<?xml version="1.0" encoding="utf-8" standalone="no"?>
<!DOCTYPE svg PUBLIC "-//W3C//DTD SVG 1.1//EN"
  "http://www.w3.org/Graphics/SVG/1.1/DTD/svg11.dtd">
<!-- Created with matplotlib (https://matplotlib.org/) -->
<svg height="720pt" version="1.1" viewBox="0 0 1440 720" width="1440pt" xmlns="http://www.w3.org/2000/svg" xmlns:xlink="http://www.w3.org/1999/xlink">
 <defs>
  <style type="text/css">
*{stroke-linecap:butt;stroke-linejoin:round;}
  </style>
 </defs>
 <g id="figure_1">
  <g id="patch_1">
   <path d="M 0 720 
L 1440 720 
L 1440 0 
L 0 0 
z
" style="fill:#ffffff;"/>
  </g>
  <g id="axes_1">
   <g id="patch_2">
    <path d="M 180 640.8 
L 1296 640.8 
L 1296 86.4 
L 180 86.4 
z
" style="fill:#ffffff;"/>
   </g>
   <g id="matplotlib.axis_1">
    <g id="xtick_1">
     <g id="line2d_1">
      <defs>
       <path d="M 0 0 
L 0 3.5 
" id="mac1204ccd2" style="stroke:#000000;stroke-width:0.8;"/>
      </defs>
      <g>
       <use style="stroke:#000000;stroke-width:0.8;" x="333.310231" xlink:href="#mac1204ccd2" y="640.8"/>
      </g>
     </g>
     <g id="text_1">
      <!-- 100.0 -->
      <defs>
       <path d="M 12.40625 8.296875 
L 28.515625 8.296875 
L 28.515625 63.921875 
L 10.984375 60.40625 
L 10.984375 69.390625 
L 28.421875 72.90625 
L 38.28125 72.90625 
L 38.28125 8.296875 
L 54.390625 8.296875 
L 54.390625 0 
L 12.40625 0 
z
" id="DejaVuSans-49"/>
       <path d="M 31.78125 66.40625 
Q 24.171875 66.40625 20.328125 58.90625 
Q 16.5 51.421875 16.5 36.375 
Q 16.5 21.390625 20.328125 13.890625 
Q 24.171875 6.390625 31.78125 6.390625 
Q 39.453125 6.390625 43.28125 13.890625 
Q 47.125 21.390625 47.125 36.375 
Q 47.125 51.421875 43.28125 58.90625 
Q 39.453125 66.40625 31.78125 66.40625 
z
M 31.78125 74.21875 
Q 44.046875 74.21875 50.515625 64.515625 
Q 56.984375 54.828125 56.984375 36.375 
Q 56.984375 17.96875 50.515625 8.265625 
Q 44.046875 -1.421875 31.78125 -1.421875 
Q 19.53125 -1.421875 13.0625 8.265625 
Q 6.59375 17.96875 6.59375 36.375 
Q 6.59375 54.828125 13.0625 64.515625 
Q 19.53125 74.21875 31.78125 74.21875 
z
" id="DejaVuSans-48"/>
       <path d="M 10.6875 12.40625 
L 21 12.40625 
L 21 0 
L 10.6875 0 
z
" id="DejaVuSans-46"/>
      </defs>
      <g transform="translate(318.996168 655.398438)scale(0.1 -0.1)">
       <use xlink:href="#DejaVuSans-49"/>
       <use x="63.623047" xlink:href="#DejaVuSans-48"/>
       <use x="127.246094" xlink:href="#DejaVuSans-48"/>
       <use x="190.869141" xlink:href="#DejaVuSans-46"/>
       <use x="222.65625" xlink:href="#DejaVuSans-48"/>
      </g>
     </g>
    </g>
    <g id="xtick_2">
     <g id="line2d_2">
      <g>
       <use style="stroke:#000000;stroke-width:0.8;" x="435.893189" xlink:href="#mac1204ccd2" y="640.8"/>
      </g>
     </g>
     <g id="text_2">
      <!-- 200.0 -->
      <defs>
       <path d="M 19.1875 8.296875 
L 53.609375 8.296875 
L 53.609375 0 
L 7.328125 0 
L 7.328125 8.296875 
Q 12.9375 14.109375 22.625 23.890625 
Q 32.328125 33.6875 34.8125 36.53125 
Q 39.546875 41.84375 41.421875 45.53125 
Q 43.3125 49.21875 43.3125 52.78125 
Q 43.3125 58.59375 39.234375 62.25 
Q 35.15625 65.921875 28.609375 65.921875 
Q 23.96875 65.921875 18.8125 64.3125 
Q 13.671875 62.703125 7.8125 59.421875 
L 7.8125 69.390625 
Q 13.765625 71.78125 18.9375 73 
Q 24.125 74.21875 28.421875 74.21875 
Q 39.75 74.21875 46.484375 68.546875 
Q 53.21875 62.890625 53.21875 53.421875 
Q 53.21875 48.921875 51.53125 44.890625 
Q 49.859375 40.875 45.40625 35.40625 
Q 44.1875 33.984375 37.640625 27.21875 
Q 31.109375 20.453125 19.1875 8.296875 
z
" id="DejaVuSans-50"/>
      </defs>
      <g transform="translate(421.579126 655.398438)scale(0.1 -0.1)">
       <use xlink:href="#DejaVuSans-50"/>
       <use x="63.623047" xlink:href="#DejaVuSans-48"/>
       <use x="127.246094" xlink:href="#DejaVuSans-48"/>
       <use x="190.869141" xlink:href="#DejaVuSans-46"/>
       <use x="222.65625" xlink:href="#DejaVuSans-48"/>
      </g>
     </g>
    </g>
    <g id="xtick_3">
     <g id="line2d_3">
      <g>
       <use style="stroke:#000000;stroke-width:0.8;" x="538.476147" xlink:href="#mac1204ccd2" y="640.8"/>
      </g>
     </g>
     <g id="text_3">
      <!-- 300.0 -->
      <defs>
       <path d="M 40.578125 39.3125 
Q 47.65625 37.796875 51.625 33 
Q 55.609375 28.21875 55.609375 21.1875 
Q 55.609375 10.40625 48.1875 4.484375 
Q 40.765625 -1.421875 27.09375 -1.421875 
Q 22.515625 -1.421875 17.65625 -0.515625 
Q 12.796875 0.390625 7.625 2.203125 
L 7.625 11.71875 
Q 11.71875 9.328125 16.59375 8.109375 
Q 21.484375 6.890625 26.8125 6.890625 
Q 36.078125 6.890625 40.9375 10.546875 
Q 45.796875 14.203125 45.796875 21.1875 
Q 45.796875 27.640625 41.28125 31.265625 
Q 36.765625 34.90625 28.71875 34.90625 
L 20.21875 34.90625 
L 20.21875 43.015625 
L 29.109375 43.015625 
Q 36.375 43.015625 40.234375 45.921875 
Q 44.09375 48.828125 44.09375 54.296875 
Q 44.09375 59.90625 40.109375 62.90625 
Q 36.140625 65.921875 28.71875 65.921875 
Q 24.65625 65.921875 20.015625 65.03125 
Q 15.375 64.15625 9.8125 62.3125 
L 9.8125 71.09375 
Q 15.4375 72.65625 20.34375 73.4375 
Q 25.25 74.21875 29.59375 74.21875 
Q 40.828125 74.21875 47.359375 69.109375 
Q 53.90625 64.015625 53.90625 55.328125 
Q 53.90625 49.265625 50.4375 45.09375 
Q 46.96875 40.921875 40.578125 39.3125 
z
" id="DejaVuSans-51"/>
      </defs>
      <g transform="translate(524.162084 655.398438)scale(0.1 -0.1)">
       <use xlink:href="#DejaVuSans-51"/>
       <use x="63.623047" xlink:href="#DejaVuSans-48"/>
       <use x="127.246094" xlink:href="#DejaVuSans-48"/>
       <use x="190.869141" xlink:href="#DejaVuSans-46"/>
       <use x="222.65625" xlink:href="#DejaVuSans-48"/>
      </g>
     </g>
    </g>
    <g id="xtick_4">
     <g id="line2d_4">
      <g>
       <use style="stroke:#000000;stroke-width:0.8;" x="641.059105" xlink:href="#mac1204ccd2" y="640.8"/>
      </g>
     </g>
     <g id="text_4">
      <!-- 400.0 -->
      <defs>
       <path d="M 37.796875 64.3125 
L 12.890625 25.390625 
L 37.796875 25.390625 
z
M 35.203125 72.90625 
L 47.609375 72.90625 
L 47.609375 25.390625 
L 58.015625 25.390625 
L 58.015625 17.1875 
L 47.609375 17.1875 
L 47.609375 0 
L 37.796875 0 
L 37.796875 17.1875 
L 4.890625 17.1875 
L 4.890625 26.703125 
z
" id="DejaVuSans-52"/>
      </defs>
      <g transform="translate(626.745042 655.398438)scale(0.1 -0.1)">
       <use xlink:href="#DejaVuSans-52"/>
       <use x="63.623047" xlink:href="#DejaVuSans-48"/>
       <use x="127.246094" xlink:href="#DejaVuSans-48"/>
       <use x="190.869141" xlink:href="#DejaVuSans-46"/>
       <use x="222.65625" xlink:href="#DejaVuSans-48"/>
      </g>
     </g>
    </g>
    <g id="xtick_5">
     <g id="line2d_5">
      <g>
       <use style="stroke:#000000;stroke-width:0.8;" x="743.642063" xlink:href="#mac1204ccd2" y="640.8"/>
      </g>
     </g>
     <g id="text_5">
      <!-- 500.0 -->
      <defs>
       <path d="M 10.796875 72.90625 
L 49.515625 72.90625 
L 49.515625 64.59375 
L 19.828125 64.59375 
L 19.828125 46.734375 
Q 21.96875 47.46875 24.109375 47.828125 
Q 26.265625 48.1875 28.421875 48.1875 
Q 40.625 48.1875 47.75 41.5 
Q 54.890625 34.8125 54.890625 23.390625 
Q 54.890625 11.625 47.5625 5.09375 
Q 40.234375 -1.421875 26.90625 -1.421875 
Q 22.3125 -1.421875 17.546875 -0.640625 
Q 12.796875 0.140625 7.71875 1.703125 
L 7.71875 11.625 
Q 12.109375 9.234375 16.796875 8.0625 
Q 21.484375 6.890625 26.703125 6.890625 
Q 35.15625 6.890625 40.078125 11.328125 
Q 45.015625 15.765625 45.015625 23.390625 
Q 45.015625 31 40.078125 35.4375 
Q 35.15625 39.890625 26.703125 39.890625 
Q 22.75 39.890625 18.8125 39.015625 
Q 14.890625 38.140625 10.796875 36.28125 
z
" id="DejaVuSans-53"/>
      </defs>
      <g transform="translate(729.328 655.398438)scale(0.1 -0.1)">
       <use xlink:href="#DejaVuSans-53"/>
       <use x="63.623047" xlink:href="#DejaVuSans-48"/>
       <use x="127.246094" xlink:href="#DejaVuSans-48"/>
       <use x="190.869141" xlink:href="#DejaVuSans-46"/>
       <use x="222.65625" xlink:href="#DejaVuSans-48"/>
      </g>
     </g>
    </g>
    <g id="xtick_6">
     <g id="line2d_6">
      <g>
       <use style="stroke:#000000;stroke-width:0.8;" x="846.225021" xlink:href="#mac1204ccd2" y="640.8"/>
      </g>
     </g>
     <g id="text_6">
      <!-- 600.0 -->
      <defs>
       <path d="M 33.015625 40.375 
Q 26.375 40.375 22.484375 35.828125 
Q 18.609375 31.296875 18.609375 23.390625 
Q 18.609375 15.53125 22.484375 10.953125 
Q 26.375 6.390625 33.015625 6.390625 
Q 39.65625 6.390625 43.53125 10.953125 
Q 47.40625 15.53125 47.40625 23.390625 
Q 47.40625 31.296875 43.53125 35.828125 
Q 39.65625 40.375 33.015625 40.375 
z
M 52.59375 71.296875 
L 52.59375 62.3125 
Q 48.875 64.0625 45.09375 64.984375 
Q 41.3125 65.921875 37.59375 65.921875 
Q 27.828125 65.921875 22.671875 59.328125 
Q 17.53125 52.734375 16.796875 39.40625 
Q 19.671875 43.65625 24.015625 45.921875 
Q 28.375 48.1875 33.59375 48.1875 
Q 44.578125 48.1875 50.953125 41.515625 
Q 57.328125 34.859375 57.328125 23.390625 
Q 57.328125 12.15625 50.6875 5.359375 
Q 44.046875 -1.421875 33.015625 -1.421875 
Q 20.359375 -1.421875 13.671875 8.265625 
Q 6.984375 17.96875 6.984375 36.375 
Q 6.984375 53.65625 15.1875 63.9375 
Q 23.390625 74.21875 37.203125 74.21875 
Q 40.921875 74.21875 44.703125 73.484375 
Q 48.484375 72.75 52.59375 71.296875 
z
" id="DejaVuSans-54"/>
      </defs>
      <g transform="translate(831.910958 655.398438)scale(0.1 -0.1)">
       <use xlink:href="#DejaVuSans-54"/>
       <use x="63.623047" xlink:href="#DejaVuSans-48"/>
       <use x="127.246094" xlink:href="#DejaVuSans-48"/>
       <use x="190.869141" xlink:href="#DejaVuSans-46"/>
       <use x="222.65625" xlink:href="#DejaVuSans-48"/>
      </g>
     </g>
    </g>
    <g id="xtick_7">
     <g id="line2d_7">
      <g>
       <use style="stroke:#000000;stroke-width:0.8;" x="948.807979" xlink:href="#mac1204ccd2" y="640.8"/>
      </g>
     </g>
     <g id="text_7">
      <!-- 700.0 -->
      <defs>
       <path d="M 8.203125 72.90625 
L 55.078125 72.90625 
L 55.078125 68.703125 
L 28.609375 0 
L 18.3125 0 
L 43.21875 64.59375 
L 8.203125 64.59375 
z
" id="DejaVuSans-55"/>
      </defs>
      <g transform="translate(934.493916 655.398438)scale(0.1 -0.1)">
       <use xlink:href="#DejaVuSans-55"/>
       <use x="63.623047" xlink:href="#DejaVuSans-48"/>
       <use x="127.246094" xlink:href="#DejaVuSans-48"/>
       <use x="190.869141" xlink:href="#DejaVuSans-46"/>
       <use x="222.65625" xlink:href="#DejaVuSans-48"/>
      </g>
     </g>
    </g>
    <g id="xtick_8">
     <g id="line2d_8">
      <g>
       <use style="stroke:#000000;stroke-width:0.8;" x="1051.390937" xlink:href="#mac1204ccd2" y="640.8"/>
      </g>
     </g>
     <g id="text_8">
      <!-- 800.0 -->
      <defs>
       <path d="M 31.78125 34.625 
Q 24.75 34.625 20.71875 30.859375 
Q 16.703125 27.09375 16.703125 20.515625 
Q 16.703125 13.921875 20.71875 10.15625 
Q 24.75 6.390625 31.78125 6.390625 
Q 38.8125 6.390625 42.859375 10.171875 
Q 46.921875 13.96875 46.921875 20.515625 
Q 46.921875 27.09375 42.890625 30.859375 
Q 38.875 34.625 31.78125 34.625 
z
M 21.921875 38.8125 
Q 15.578125 40.375 12.03125 44.71875 
Q 8.5 49.078125 8.5 55.328125 
Q 8.5 64.0625 14.71875 69.140625 
Q 20.953125 74.21875 31.78125 74.21875 
Q 42.671875 74.21875 48.875 69.140625 
Q 55.078125 64.0625 55.078125 55.328125 
Q 55.078125 49.078125 51.53125 44.71875 
Q 48 40.375 41.703125 38.8125 
Q 48.828125 37.15625 52.796875 32.3125 
Q 56.78125 27.484375 56.78125 20.515625 
Q 56.78125 9.90625 50.3125 4.234375 
Q 43.84375 -1.421875 31.78125 -1.421875 
Q 19.734375 -1.421875 13.25 4.234375 
Q 6.78125 9.90625 6.78125 20.515625 
Q 6.78125 27.484375 10.78125 32.3125 
Q 14.796875 37.15625 21.921875 38.8125 
z
M 18.3125 54.390625 
Q 18.3125 48.734375 21.84375 45.5625 
Q 25.390625 42.390625 31.78125 42.390625 
Q 38.140625 42.390625 41.71875 45.5625 
Q 45.3125 48.734375 45.3125 54.390625 
Q 45.3125 60.0625 41.71875 63.234375 
Q 38.140625 66.40625 31.78125 66.40625 
Q 25.390625 66.40625 21.84375 63.234375 
Q 18.3125 60.0625 18.3125 54.390625 
z
" id="DejaVuSans-56"/>
      </defs>
      <g transform="translate(1037.076874 655.398438)scale(0.1 -0.1)">
       <use xlink:href="#DejaVuSans-56"/>
       <use x="63.623047" xlink:href="#DejaVuSans-48"/>
       <use x="127.246094" xlink:href="#DejaVuSans-48"/>
       <use x="190.869141" xlink:href="#DejaVuSans-46"/>
       <use x="222.65625" xlink:href="#DejaVuSans-48"/>
      </g>
     </g>
    </g>
    <g id="xtick_9">
     <g id="line2d_9">
      <g>
       <use style="stroke:#000000;stroke-width:0.8;" x="1153.973895" xlink:href="#mac1204ccd2" y="640.8"/>
      </g>
     </g>
     <g id="text_9">
      <!-- 900.0 -->
      <defs>
       <path d="M 10.984375 1.515625 
L 10.984375 10.5 
Q 14.703125 8.734375 18.5 7.8125 
Q 22.3125 6.890625 25.984375 6.890625 
Q 35.75 6.890625 40.890625 13.453125 
Q 46.046875 20.015625 46.78125 33.40625 
Q 43.953125 29.203125 39.59375 26.953125 
Q 35.25 24.703125 29.984375 24.703125 
Q 19.046875 24.703125 12.671875 31.3125 
Q 6.296875 37.9375 6.296875 49.421875 
Q 6.296875 60.640625 12.9375 67.421875 
Q 19.578125 74.21875 30.609375 74.21875 
Q 43.265625 74.21875 49.921875 64.515625 
Q 56.59375 54.828125 56.59375 36.375 
Q 56.59375 19.140625 48.40625 8.859375 
Q 40.234375 -1.421875 26.421875 -1.421875 
Q 22.703125 -1.421875 18.890625 -0.6875 
Q 15.09375 0.046875 10.984375 1.515625 
z
M 30.609375 32.421875 
Q 37.25 32.421875 41.125 36.953125 
Q 45.015625 41.5 45.015625 49.421875 
Q 45.015625 57.28125 41.125 61.84375 
Q 37.25 66.40625 30.609375 66.40625 
Q 23.96875 66.40625 20.09375 61.84375 
Q 16.21875 57.28125 16.21875 49.421875 
Q 16.21875 41.5 20.09375 36.953125 
Q 23.96875 32.421875 30.609375 32.421875 
z
" id="DejaVuSans-57"/>
      </defs>
      <g transform="translate(1139.659832 655.398438)scale(0.1 -0.1)">
       <use xlink:href="#DejaVuSans-57"/>
       <use x="63.623047" xlink:href="#DejaVuSans-48"/>
       <use x="127.246094" xlink:href="#DejaVuSans-48"/>
       <use x="190.869141" xlink:href="#DejaVuSans-46"/>
       <use x="222.65625" xlink:href="#DejaVuSans-48"/>
      </g>
     </g>
    </g>
    <g id="xtick_10">
     <g id="line2d_10">
      <g>
       <use style="stroke:#000000;stroke-width:0.8;" x="1256.556853" xlink:href="#mac1204ccd2" y="640.8"/>
      </g>
     </g>
     <g id="text_10">
      <!-- 1000.0 -->
      <g transform="translate(1239.06154 655.398438)scale(0.1 -0.1)">
       <use xlink:href="#DejaVuSans-49"/>
       <use x="63.623047" xlink:href="#DejaVuSans-48"/>
       <use x="127.246094" xlink:href="#DejaVuSans-48"/>
       <use x="190.869141" xlink:href="#DejaVuSans-48"/>
       <use x="254.492188" xlink:href="#DejaVuSans-46"/>
       <use x="286.279297" xlink:href="#DejaVuSans-48"/>
      </g>
     </g>
    </g>
    <g id="text_11">
     <!-- n -->
     <defs>
      <path d="M 54.890625 33.015625 
L 54.890625 0 
L 45.90625 0 
L 45.90625 32.71875 
Q 45.90625 40.484375 42.875 44.328125 
Q 39.84375 48.1875 33.796875 48.1875 
Q 26.515625 48.1875 22.3125 43.546875 
Q 18.109375 38.921875 18.109375 30.90625 
L 18.109375 0 
L 9.078125 0 
L 9.078125 54.6875 
L 18.109375 54.6875 
L 18.109375 46.1875 
Q 21.34375 51.125 25.703125 53.5625 
Q 30.078125 56 35.796875 56 
Q 45.21875 56 50.046875 50.171875 
Q 54.890625 44.34375 54.890625 33.015625 
z
" id="DejaVuSans-110"/>
     </defs>
     <g transform="translate(734.83125 669.076563)scale(0.1 -0.1)">
      <use xlink:href="#DejaVuSans-110"/>
     </g>
    </g>
   </g>
   <g id="matplotlib.axis_2">
    <g id="ytick_1">
     <g id="line2d_11">
      <defs>
       <path d="M 0 0 
L -3.5 0 
" id="m08800c65dd" style="stroke:#000000;stroke-width:0.8;"/>
      </defs>
      <g>
       <use style="stroke:#000000;stroke-width:0.8;" x="180" xlink:href="#m08800c65dd" y="563.616389"/>
      </g>
     </g>
     <g id="text_12">
      <!-- 50 -->
      <g transform="translate(160.275 567.415608)scale(0.1 -0.1)">
       <use xlink:href="#DejaVuSans-53"/>
       <use x="63.623047" xlink:href="#DejaVuSans-48"/>
      </g>
     </g>
    </g>
    <g id="ytick_2">
     <g id="line2d_12">
      <g>
       <use style="stroke:#000000;stroke-width:0.8;" x="180" xlink:href="#m08800c65dd" y="480.181706"/>
      </g>
     </g>
     <g id="text_13">
      <!-- 100 -->
      <g transform="translate(153.9125 483.980925)scale(0.1 -0.1)">
       <use xlink:href="#DejaVuSans-49"/>
       <use x="63.623047" xlink:href="#DejaVuSans-48"/>
       <use x="127.246094" xlink:href="#DejaVuSans-48"/>
      </g>
     </g>
    </g>
    <g id="ytick_3">
     <g id="line2d_13">
      <g>
       <use style="stroke:#000000;stroke-width:0.8;" x="180" xlink:href="#m08800c65dd" y="396.747023"/>
      </g>
     </g>
     <g id="text_14">
      <!-- 150 -->
      <g transform="translate(153.9125 400.546242)scale(0.1 -0.1)">
       <use xlink:href="#DejaVuSans-49"/>
       <use x="63.623047" xlink:href="#DejaVuSans-53"/>
       <use x="127.246094" xlink:href="#DejaVuSans-48"/>
      </g>
     </g>
    </g>
    <g id="ytick_4">
     <g id="line2d_14">
      <g>
       <use style="stroke:#000000;stroke-width:0.8;" x="180" xlink:href="#m08800c65dd" y="313.31234"/>
      </g>
     </g>
     <g id="text_15">
      <!-- 200 -->
      <g transform="translate(153.9125 317.111559)scale(0.1 -0.1)">
       <use xlink:href="#DejaVuSans-50"/>
       <use x="63.623047" xlink:href="#DejaVuSans-48"/>
       <use x="127.246094" xlink:href="#DejaVuSans-48"/>
      </g>
     </g>
    </g>
    <g id="ytick_5">
     <g id="line2d_15">
      <g>
       <use style="stroke:#000000;stroke-width:0.8;" x="180" xlink:href="#m08800c65dd" y="229.877657"/>
      </g>
     </g>
     <g id="text_16">
      <!-- 250 -->
      <g transform="translate(153.9125 233.676876)scale(0.1 -0.1)">
       <use xlink:href="#DejaVuSans-50"/>
       <use x="63.623047" xlink:href="#DejaVuSans-53"/>
       <use x="127.246094" xlink:href="#DejaVuSans-48"/>
      </g>
     </g>
    </g>
    <g id="ytick_6">
     <g id="line2d_16">
      <g>
       <use style="stroke:#000000;stroke-width:0.8;" x="180" xlink:href="#m08800c65dd" y="146.442974"/>
      </g>
     </g>
     <g id="text_17">
      <!-- 300 -->
      <g transform="translate(153.9125 150.242193)scale(0.1 -0.1)">
       <use xlink:href="#DejaVuSans-51"/>
       <use x="63.623047" xlink:href="#DejaVuSans-48"/>
       <use x="127.246094" xlink:href="#DejaVuSans-48"/>
      </g>
     </g>
    </g>
    <g id="text_18">
     <!-- speedup -->
     <defs>
      <path d="M 44.28125 53.078125 
L 44.28125 44.578125 
Q 40.484375 46.53125 36.375 47.5 
Q 32.28125 48.484375 27.875 48.484375 
Q 21.1875 48.484375 17.84375 46.4375 
Q 14.5 44.390625 14.5 40.28125 
Q 14.5 37.15625 16.890625 35.375 
Q 19.28125 33.59375 26.515625 31.984375 
L 29.59375 31.296875 
Q 39.15625 29.25 43.1875 25.515625 
Q 47.21875 21.78125 47.21875 15.09375 
Q 47.21875 7.46875 41.1875 3.015625 
Q 35.15625 -1.421875 24.609375 -1.421875 
Q 20.21875 -1.421875 15.453125 -0.5625 
Q 10.6875 0.296875 5.421875 2 
L 5.421875 11.28125 
Q 10.40625 8.6875 15.234375 7.390625 
Q 20.0625 6.109375 24.8125 6.109375 
Q 31.15625 6.109375 34.5625 8.28125 
Q 37.984375 10.453125 37.984375 14.40625 
Q 37.984375 18.0625 35.515625 20.015625 
Q 33.0625 21.96875 24.703125 23.78125 
L 21.578125 24.515625 
Q 13.234375 26.265625 9.515625 29.90625 
Q 5.8125 33.546875 5.8125 39.890625 
Q 5.8125 47.609375 11.28125 51.796875 
Q 16.75 56 26.8125 56 
Q 31.78125 56 36.171875 55.265625 
Q 40.578125 54.546875 44.28125 53.078125 
z
" id="DejaVuSans-115"/>
      <path d="M 18.109375 8.203125 
L 18.109375 -20.796875 
L 9.078125 -20.796875 
L 9.078125 54.6875 
L 18.109375 54.6875 
L 18.109375 46.390625 
Q 20.953125 51.265625 25.265625 53.625 
Q 29.59375 56 35.59375 56 
Q 45.5625 56 51.78125 48.09375 
Q 58.015625 40.1875 58.015625 27.296875 
Q 58.015625 14.40625 51.78125 6.484375 
Q 45.5625 -1.421875 35.59375 -1.421875 
Q 29.59375 -1.421875 25.265625 0.953125 
Q 20.953125 3.328125 18.109375 8.203125 
z
M 48.6875 27.296875 
Q 48.6875 37.203125 44.609375 42.84375 
Q 40.53125 48.484375 33.40625 48.484375 
Q 26.265625 48.484375 22.1875 42.84375 
Q 18.109375 37.203125 18.109375 27.296875 
Q 18.109375 17.390625 22.1875 11.75 
Q 26.265625 6.109375 33.40625 6.109375 
Q 40.53125 6.109375 44.609375 11.75 
Q 48.6875 17.390625 48.6875 27.296875 
z
" id="DejaVuSans-112"/>
      <path d="M 56.203125 29.59375 
L 56.203125 25.203125 
L 14.890625 25.203125 
Q 15.484375 15.921875 20.484375 11.0625 
Q 25.484375 6.203125 34.421875 6.203125 
Q 39.59375 6.203125 44.453125 7.46875 
Q 49.3125 8.734375 54.109375 11.28125 
L 54.109375 2.78125 
Q 49.265625 0.734375 44.1875 -0.34375 
Q 39.109375 -1.421875 33.890625 -1.421875 
Q 20.796875 -1.421875 13.15625 6.1875 
Q 5.515625 13.8125 5.515625 26.8125 
Q 5.515625 40.234375 12.765625 48.109375 
Q 20.015625 56 32.328125 56 
Q 43.359375 56 49.78125 48.890625 
Q 56.203125 41.796875 56.203125 29.59375 
z
M 47.21875 32.234375 
Q 47.125 39.59375 43.09375 43.984375 
Q 39.0625 48.390625 32.421875 48.390625 
Q 24.90625 48.390625 20.390625 44.140625 
Q 15.875 39.890625 15.1875 32.171875 
z
" id="DejaVuSans-101"/>
      <path d="M 45.40625 46.390625 
L 45.40625 75.984375 
L 54.390625 75.984375 
L 54.390625 0 
L 45.40625 0 
L 45.40625 8.203125 
Q 42.578125 3.328125 38.25 0.953125 
Q 33.9375 -1.421875 27.875 -1.421875 
Q 17.96875 -1.421875 11.734375 6.484375 
Q 5.515625 14.40625 5.515625 27.296875 
Q 5.515625 40.1875 11.734375 48.09375 
Q 17.96875 56 27.875 56 
Q 33.9375 56 38.25 53.625 
Q 42.578125 51.265625 45.40625 46.390625 
z
M 14.796875 27.296875 
Q 14.796875 17.390625 18.875 11.75 
Q 22.953125 6.109375 30.078125 6.109375 
Q 37.203125 6.109375 41.296875 11.75 
Q 45.40625 17.390625 45.40625 27.296875 
Q 45.40625 37.203125 41.296875 42.84375 
Q 37.203125 48.484375 30.078125 48.484375 
Q 22.953125 48.484375 18.875 42.84375 
Q 14.796875 37.203125 14.796875 27.296875 
z
" id="DejaVuSans-100"/>
      <path d="M 8.5 21.578125 
L 8.5 54.6875 
L 17.484375 54.6875 
L 17.484375 21.921875 
Q 17.484375 14.15625 20.5 10.265625 
Q 23.53125 6.390625 29.59375 6.390625 
Q 36.859375 6.390625 41.078125 11.03125 
Q 45.3125 15.671875 45.3125 23.6875 
L 45.3125 54.6875 
L 54.296875 54.6875 
L 54.296875 0 
L 45.3125 0 
L 45.3125 8.40625 
Q 42.046875 3.421875 37.71875 1 
Q 33.40625 -1.421875 27.6875 -1.421875 
Q 18.265625 -1.421875 13.375 4.4375 
Q 8.5 10.296875 8.5 21.578125 
z
M 31.109375 56 
z
" id="DejaVuSans-117"/>
     </defs>
     <g transform="translate(147.832812 385.049219)rotate(-90)scale(0.1 -0.1)">
      <use xlink:href="#DejaVuSans-115"/>
      <use x="52.099609" xlink:href="#DejaVuSans-112"/>
      <use x="115.576172" xlink:href="#DejaVuSans-101"/>
      <use x="177.099609" xlink:href="#DejaVuSans-101"/>
      <use x="238.623047" xlink:href="#DejaVuSans-100"/>
      <use x="302.099609" xlink:href="#DejaVuSans-117"/>
      <use x="365.478516" xlink:href="#DejaVuSans-112"/>
     </g>
    </g>
   </g>
   <g id="line2d_17">
    <path clip-path="url(#p6961cc775c)" d="M 230.727273 283.366087 
L 231.753102 387.130299 
L 232.778932 130.754911 
L 233.804761 383.858245 
L 234.830591 152.13302 
L 235.856421 399.879582 
L 236.88225 391.771455 
L 237.90808 160.346932 
L 238.933909 425.550716 
L 239.959739 395.526568 
L 240.985569 172.576834 
L 242.011398 394.756578 
L 243.037228 193.674942 
L 244.063057 411.07212 
L 245.088887 421.065351 
L 246.114716 196.626337 
L 247.140546 236.373133 
L 248.166376 221.7815 
L 249.192205 260.297968 
L 250.218035 271.29189 
L 251.243864 111.6 
L 252.269694 367.956465 
L 253.295523 220.014172 
L 254.321353 264.1909 
L 255.347183 508.101236 
L 256.373012 225.228134 
L 257.398842 264.929562 
L 258.424671 246.474456 
L 259.450501 247.137382 
L 260.476331 267.704075 
L 261.50216 224.352651 
L 262.52799 244.550477 
L 263.553819 300.21874 
L 264.579649 285.089809 
L 265.605478 293.552982 
L 266.631308 274.209394 
L 267.657138 291.915153 
L 268.682967 306.577979 
L 269.708797 303.971934 
L 270.734626 304.515727 
L 271.760456 310.800984 
L 272.786286 316.389575 
L 273.812115 266.293638 
L 274.837945 328.295376 
L 275.863774 338.786701 
L 276.889604 341.67151 
L 277.915433 314.541712 
L 278.941263 329.609576 
L 279.967093 316.19491 
L 280.992922 340.032957 
L 282.018752 345.367815 
L 283.044581 336.972201 
L 284.070411 347.338765 
L 285.09624 306.391644 
L 286.12207 287.236764 
L 287.1479 369.719605 
L 288.173729 352.057465 
L 289.199559 363.349187 
L 290.225388 369.175708 
L 291.251218 359.319789 
L 292.277048 367.705203 
L 293.302877 366.142108 
L 294.328707 335.847538 
L 295.354536 380.361918 
L 296.380366 348.488472 
L 297.406195 355.852586 
L 298.432025 342.991104 
L 299.457855 369.964427 
L 300.483684 392.351492 
L 301.509514 393.302214 
L 302.535343 376.361625 
L 303.561173 340.101015 
L 304.587002 371.549503 
L 305.612832 411.919322 
L 306.638662 373.740948 
L 307.664491 383.445004 
L 308.690321 375.811327 
L 309.71615 492.529508 
L 310.74198 380.547016 
L 311.76781 403.952152 
L 312.793639 363.53199 
L 313.819469 424.622837 
L 314.845298 393.640654 
L 315.871128 380.45507 
L 316.896957 409.390368 
L 317.922787 404.773912 
L 318.948617 404.965492 
L 319.974446 407.513074 
L 321.000276 418.896617 
L 322.026105 356.764416 
L 323.051935 350.525905 
L 324.077765 394.364836 
L 326.129424 366.353956 
L 327.155253 355.629567 
L 328.181083 388.8402 
L 329.206912 395.246981 
L 330.232742 415.573127 
L 331.258572 417.211898 
L 332.284401 414.344489 
L 333.310231 415.06692 
L 334.33606 422.92282 
L 335.36189 415.904856 
L 336.387719 398.533649 
L 337.413549 413.66683 
L 338.439379 417.63984 
L 339.465208 364.078624 
L 340.491038 417.589333 
L 341.516867 411.078391 
L 342.542697 416.31742 
L 343.568527 391.390546 
L 344.594356 371.104939 
L 345.620186 423.027099 
L 346.646015 415.268552 
L 347.671845 431.560243 
L 348.697674 415.243896 
L 349.723504 431.083729 
L 350.749334 424.79386 
L 351.775163 404.997306 
L 352.800993 434.537227 
L 353.826822 393.356764 
L 354.852652 382.110534 
L 355.878481 426.64939 
L 356.904311 420.638982 
L 357.930141 393.08736 
L 358.95597 420.277363 
L 359.9818 404.476345 
L 361.007629 424.202445 
L 362.033459 425.191018 
L 363.059289 417.101905 
L 364.085118 389.897815 
L 365.110948 445.909162 
L 366.136777 406.94507 
L 367.162607 433.595522 
L 368.188436 414.170597 
L 369.214266 423.938109 
L 370.240096 442.524752 
L 371.265925 400.18845 
L 372.291755 468.459823 
L 373.317584 424.160733 
L 374.343414 427.804075 
L 375.369243 454.898299 
L 376.395073 437.439255 
L 377.420903 449.004418 
L 378.446732 419.404306 
L 379.472562 448.189658 
L 380.498391 399.130929 
L 381.524221 423.138463 
L 382.550051 452.827105 
L 383.57588 416.962415 
L 384.60171 423.135914 
L 385.627539 423.864487 
L 386.653369 438.958745 
L 387.679198 484.586922 
L 388.705028 394.377205 
L 391.782517 456.799017 
L 392.808346 405.309714 
L 393.834176 367.343934 
L 394.860006 452.380706 
L 395.885835 442.271187 
L 396.911665 430.567423 
L 397.937494 463.509391 
L 398.963324 464.800367 
L 399.989153 442.453463 
L 401.014983 409.29071 
L 402.040813 426.041551 
L 403.066642 413.513247 
L 404.092472 417.697228 
L 405.118301 429.202608 
L 406.144131 430.203166 
L 407.16996 453.791247 
L 408.19579 438.06882 
L 409.22162 446.444156 
L 410.247449 496.154431 
L 411.273279 419.03148 
L 412.299108 454.699963 
L 413.324938 430.220895 
L 414.350768 412.507746 
L 415.376597 447.359749 
L 416.402427 419.846344 
L 417.428256 456.673193 
L 418.454086 456.882692 
L 419.479915 437.265716 
L 420.505745 432.195735 
L 421.531575 435.085646 
L 422.557404 469.716205 
L 423.583234 468.538191 
L 424.609063 447.81873 
L 425.634893 450.969275 
L 426.660722 456.559908 
L 427.686552 472.980343 
L 429.738211 448.96868 
L 430.764041 466.511236 
L 431.78987 452.003206 
L 432.8157 461.533743 
L 433.84153 450.850916 
L 434.867359 451.648845 
L 435.893189 453.903568 
L 436.919018 469.607472 
L 437.944848 431.722138 
L 438.970677 460.6641 
L 439.996507 468.201689 
L 441.022337 455.832432 
L 442.048166 469.048168 
L 443.073996 464.662909 
L 444.099825 457.886136 
L 445.125655 463.153526 
L 446.151485 472.248633 
L 447.177314 458.507082 
L 448.203144 465.654313 
L 449.228973 456.949166 
L 450.254803 430.786461 
L 451.280632 465.738582 
L 452.306462 450.512058 
L 453.332292 474.455675 
L 454.358121 455.889341 
L 455.383951 460.920625 
L 456.40978 474.612846 
L 457.43561 478.187131 
L 458.461439 460.909306 
L 459.487269 441.384374 
L 460.513099 445.314838 
L 461.538928 484.396451 
L 462.564758 463.885285 
L 463.590587 560.413246 
L 464.616417 464.217773 
L 465.642247 467.256987 
L 466.668076 448.37561 
L 467.693906 439.265772 
L 468.719735 443.675612 
L 469.745565 464.18694 
L 470.771394 452.968159 
L 471.797224 454.820798 
L 472.823054 453.77566 
L 473.848883 457.537336 
L 474.874713 459.807898 
L 475.900542 460.1398 
L 476.926372 475.769302 
L 477.952201 472.818247 
L 478.978031 452.329036 
L 480.003861 464.531868 
L 481.02969 467.967823 
L 482.05552 464.475681 
L 483.081349 453.563703 
L 484.107179 458.343684 
L 485.133009 461.729367 
L 486.158838 464.073619 
L 487.184668 441.703313 
L 488.210497 460.168713 
L 489.236327 457.798948 
L 490.262156 459.779949 
L 491.287986 470.305289 
L 492.313816 447.422597 
L 493.339645 509.440652 
L 494.365475 484.490604 
L 495.391304 449.268833 
L 496.417134 465.779403 
L 497.442964 467.354957 
L 498.468793 462.836878 
L 499.494623 496.995203 
L 500.520452 468.43003 
L 501.546282 466.449356 
L 502.572111 481.214338 
L 503.597941 452.804123 
L 504.623771 462.531854 
L 506.67543 487.239014 
L 507.701259 462.271643 
L 508.727089 461.173169 
L 509.752918 489.720396 
L 510.778748 484.706536 
L 511.804578 451.156613 
L 512.830407 465.15235 
L 513.856237 508.55513 
L 514.882066 484.922618 
L 515.907896 495.84351 
L 516.933726 482.083482 
L 517.959555 484.13954 
L 518.985385 483.86303 
L 521.037044 457.825196 
L 522.062873 483.341633 
L 523.088703 474.036288 
L 524.114533 506.490698 
L 525.140362 473.254416 
L 526.166192 472.52031 
L 527.192021 481.431754 
L 528.217851 472.338407 
L 529.24368 465.742813 
L 530.26951 477.259673 
L 531.29534 499.420909 
L 532.321169 457.759421 
L 533.346999 508.412002 
L 534.372828 509.88388 
L 535.398658 483.322271 
L 536.424488 493.476755 
L 537.450317 482.380771 
L 538.476147 497.445171 
L 539.501976 495.294203 
L 540.527806 485.021667 
L 541.553635 479.951043 
L 542.579465 491.159138 
L 543.605295 490.966891 
L 544.631124 466.513139 
L 545.656954 482.242271 
L 546.682783 486.651693 
L 547.708613 499.559291 
L 548.734443 509.784847 
L 549.760272 460.284774 
L 550.786102 490.468252 
L 551.811931 473.299669 
L 552.837761 467.619569 
L 553.86359 511.752431 
L 554.88942 481.620004 
L 555.91525 493.775669 
L 556.941079 490.033999 
L 557.966909 458.078983 
L 558.992738 491.742446 
L 560.018568 498.471984 
L 561.044397 493.568756 
L 562.070227 486.91122 
L 563.096057 484.080288 
L 564.121886 486.282509 
L 565.147716 480.048441 
L 566.173545 487.918386 
L 567.199375 484.87409 
L 568.225205 496.105255 
L 569.251034 482.401061 
L 570.276864 500.233303 
L 571.302693 531.271657 
L 572.328523 515.271552 
L 573.354352 496.803046 
L 574.380182 495.811842 
L 575.406012 505.103258 
L 576.431841 495.997446 
L 577.457671 462.677534 
L 578.4835 492.744477 
L 579.50933 499.677122 
L 580.535159 550.156974 
L 581.560989 491.804278 
L 582.586819 467.85699 
L 583.612648 552.556264 
L 584.638478 500.40556 
L 585.664307 480.135084 
L 586.690137 470.295984 
L 587.715967 504.021138 
L 588.741796 508.795795 
L 589.767626 519.716667 
L 590.793455 447.607658 
L 591.819285 523.352376 
L 592.845114 503.929453 
L 593.870944 511.221264 
L 594.896774 529.463789 
L 595.922603 488.894463 
L 596.948433 512.980792 
L 597.974262 558.522086 
L 599.000092 489.509611 
L 600.025922 499.682999 
L 601.051751 498.875443 
L 602.077581 488.308638 
L 603.10341 507.685842 
L 604.12924 473.247633 
L 605.155069 489.973417 
L 606.180899 498.305419 
L 607.206729 539.559351 
L 608.232558 492.578793 
L 609.258388 504.545511 
L 610.284217 514.498895 
L 611.310047 546.815604 
L 612.335876 496.547174 
L 613.361706 502.839839 
L 614.387536 510.768475 
L 615.413365 507.061268 
L 616.439195 500.019091 
L 617.465024 456.403792 
L 618.490854 516.671053 
L 619.516684 512.889351 
L 620.542513 484.876107 
L 621.568343 483.453704 
L 622.594172 506.50642 
L 623.620002 509.859461 
L 624.645831 530.932872 
L 625.671661 487.194315 
L 626.697491 514.539822 
L 627.72332 507.766128 
L 628.74915 499.447706 
L 629.774979 486.284986 
L 630.800809 503.565369 
L 631.826638 502.106564 
L 632.852468 485.608799 
L 633.878298 489.868885 
L 634.904127 509.834259 
L 635.929957 497.347859 
L 636.955786 487.358278 
L 637.981616 561.907198 
L 639.007446 513.771396 
L 640.033275 510.854658 
L 641.059105 498.771666 
L 642.084934 510.291564 
L 643.110764 512.677155 
L 644.136593 512.964762 
L 645.162423 509.004049 
L 646.188253 514.107521 
L 647.214082 503.015632 
L 648.239912 498.209888 
L 649.265741 521.423944 
L 650.291571 512.137261 
L 651.3174 504.740699 
L 652.34323 506.809832 
L 653.36906 513.149856 
L 654.394889 515.419857 
L 655.420719 511.584013 
L 656.446548 501.139897 
L 657.472378 522.922449 
L 658.498208 518.659556 
L 659.524037 502.701286 
L 660.549867 513.194964 
L 661.575696 520.316826 
L 662.601526 528.693956 
L 663.627355 509.359681 
L 664.653185 513.47821 
L 665.679015 529.225633 
L 666.704844 523.729789 
L 667.730674 515.697839 
L 669.782333 529.103762 
L 670.808163 528.071887 
L 672.859822 511.928065 
L 673.885651 530.014667 
L 674.911481 531.227196 
L 675.93731 521.078633 
L 676.96314 512.862236 
L 677.98897 528.342108 
L 679.014799 528.715374 
L 680.040629 522.923707 
L 681.066458 523.704315 
L 682.092288 527.372506 
L 683.118117 537.314911 
L 684.143947 514.185319 
L 685.169777 521.070105 
L 686.195606 531.10003 
L 687.221436 534.629094 
L 688.247265 521.400348 
L 689.273095 518.500722 
L 690.298925 541.04588 
L 691.324754 535.761542 
L 692.350584 536.90235 
L 693.376413 522.998304 
L 694.402243 532.0547 
L 695.428072 538.807723 
L 696.453902 527.341455 
L 697.479732 520.449384 
L 698.505561 540.811628 
L 699.531391 532.683915 
L 700.55722 526.411713 
L 701.58305 525.185569 
L 702.608879 528.994236 
L 703.634709 541.358031 
L 705.686368 521.447811 
L 706.712198 541.016156 
L 707.738027 538.884712 
L 708.763857 522.816153 
L 709.789687 525.938112 
L 710.815516 541.393636 
L 711.841346 529.177526 
L 712.867175 530.305808 
L 713.893005 526.215844 
L 715.944664 537.695903 
L 716.970494 541.379313 
L 717.996323 526.631939 
L 719.022153 539.096525 
L 720.047982 535.716261 
L 721.073812 533.31881 
L 722.099642 533.26778 
L 723.125471 544.723001 
L 724.151301 537.763688 
L 725.17713 534.118994 
L 726.20296 534.730547 
L 727.228789 535.092074 
L 728.254619 537.451189 
L 729.280449 523.502171 
L 730.306278 538.23478 
L 731.332108 545.297297 
L 732.357937 542.207637 
L 733.383767 532.490547 
L 734.409596 528.598884 
L 735.435426 534.617467 
L 736.461256 542.426195 
L 737.487085 534.845554 
L 738.512915 536.058932 
L 739.538744 544.667025 
L 740.564574 531.534951 
L 741.590404 489.263508 
L 742.616233 542.569315 
L 743.642063 547.061518 
L 744.667892 537.151301 
L 745.693722 559.225878 
L 746.719551 532.72451 
L 747.745381 550.657195 
L 749.79704 533.2069 
L 750.82287 533.598228 
L 751.848699 541.832838 
L 752.874529 546.109563 
L 753.900358 544.26361 
L 754.926188 532.165689 
L 755.952018 552.916186 
L 756.977847 546.687588 
L 758.003677 531.388223 
L 759.029506 537.535367 
L 760.055336 547.398523 
L 761.081166 545.681935 
L 762.106995 537.025875 
L 763.132825 539.346834 
L 764.158654 542.45245 
L 765.184484 541.886585 
L 766.210313 536.672152 
L 767.236143 533.326095 
L 768.261973 546.395798 
L 769.287802 547.992565 
L 770.313632 540.189167 
L 771.339461 542.287886 
L 772.365291 551.628203 
L 773.391121 545.750818 
L 774.41695 542.682281 
L 775.44278 540.092714 
L 776.468609 550.208657 
L 777.494439 543.982167 
L 778.520268 539.630842 
L 779.546098 546.015723 
L 780.571928 554.108387 
L 781.597757 555.832575 
L 782.623587 540.44894 
L 783.649416 540.751206 
L 784.675246 555.243889 
L 785.701075 551.69939 
L 786.726905 548.615628 
L 787.752735 547.930339 
L 788.778564 554.267711 
L 789.804394 547.481537 
L 790.830223 541.838074 
L 791.856053 544.834258 
L 792.881883 554.999894 
L 793.907712 554.204022 
L 794.933542 548.264054 
L 796.985201 556.935001 
L 798.01103 552.147166 
L 799.03686 544.375527 
L 800.06269 546.77155 
L 801.088519 555.150509 
L 802.114349 557.485949 
L 803.140178 544.365851 
L 804.166008 533.626416 
L 805.191837 555.954822 
L 806.217667 554.729466 
L 807.243497 542.411074 
L 808.269326 543.967082 
L 809.295156 552.161714 
L 810.320985 553.048025 
L 811.346815 544.87522 
L 812.372645 551.68129 
L 813.398474 552.941815 
L 814.424304 557.07876 
L 815.450133 546.346691 
L 816.475963 547.473189 
L 817.501792 575.230957 
L 818.527622 526.64453 
L 819.553452 558.76111 
L 820.579281 545.857446 
L 821.605111 554.228941 
L 822.63094 556.86556 
L 823.65677 533.996036 
L 824.6826 554.371729 
L 825.708429 550.443012 
L 826.734259 558.292988 
L 827.760088 545.216408 
L 828.785918 544.308682 
L 829.811747 558.197743 
L 830.837577 555.569181 
L 831.863407 548.693895 
L 832.889236 542.821158 
L 833.915066 556.014984 
L 834.940895 553.665046 
L 835.966725 566.303201 
L 836.992554 547.39431 
L 838.018384 556.253934 
L 839.044214 553.423061 
L 840.070043 539.670172 
L 841.095873 550.42046 
L 842.121702 556.851633 
L 843.147532 560.308428 
L 844.173362 551.716708 
L 845.199191 554.407085 
L 846.225021 559.759451 
L 847.25085 555.533522 
L 848.27668 555.44683 
L 849.302509 554.97116 
L 850.328339 548.714388 
L 851.354169 561.983266 
L 852.379998 548.106532 
L 853.405828 550.670438 
L 854.431657 558.229263 
L 855.457487 552.976657 
L 857.509146 547.505337 
L 858.534976 556.539986 
L 859.560805 562.606985 
L 860.586635 544.944205 
L 861.612464 556.918068 
L 862.638294 561.948483 
L 863.664124 553.813855 
L 864.689953 549.8835 
L 865.715783 552.568209 
L 866.741612 556.804833 
L 867.767442 564.248642 
L 868.793271 565.683143 
L 869.819101 555.658644 
L 870.844931 551.728327 
L 871.87076 561.057071 
L 872.89659 561.119703 
L 873.922419 556.841557 
L 874.948249 567.771307 
L 875.974078 572.454774 
L 878.025738 557.518571 
L 879.051567 563.315546 
L 880.077397 563.972485 
L 881.103226 557.151017 
L 882.129056 568.522842 
L 883.154886 566.710936 
L 884.180715 565.885054 
L 885.206545 557.705938 
L 886.232374 558.765668 
L 887.258204 574.190298 
L 889.309863 550.470933 
L 890.335693 557.794898 
L 891.361522 569.035823 
L 892.387352 561.132211 
L 893.413181 558.955811 
L 894.439011 557.6135 
L 895.464841 563.947344 
L 896.49067 565.248613 
L 897.5165 556.096134 
L 898.542329 556.677359 
L 899.568159 562.133843 
L 900.593988 581.14639 
L 901.619818 575.742693 
L 902.645648 558.259197 
L 903.671477 561.259292 
L 904.697307 566.53883 
L 905.723136 565.116776 
L 906.748966 554.074231 
L 907.774795 568.803519 
L 908.800625 576.126924 
L 909.826455 559.969413 
L 910.852284 561.025054 
L 911.878114 561.336412 
L 912.903943 565.107242 
L 913.929773 556.995294 
L 914.955603 555.535896 
L 915.981432 565.523063 
L 917.007262 566.140385 
L 918.033091 563.530708 
L 919.058921 562.857942 
L 920.08475 565.458478 
L 921.11058 570.753368 
L 922.13641 557.8071 
L 923.162239 570.327928 
L 924.188069 569.38092 
L 925.213898 567.594193 
L 926.239728 556.902421 
L 928.291387 567.448685 
L 929.317217 568.963569 
L 930.343046 563.493092 
L 931.368876 563.009331 
L 932.394705 570.672664 
L 933.420535 570.768945 
L 934.446365 564.710387 
L 935.472194 564.74165 
L 936.498024 569.285715 
L 937.523853 571.286075 
L 938.549683 569.714429 
L 939.575512 567.509023 
L 940.601342 574.179822 
L 941.627172 572.441558 
L 942.653001 569.916844 
L 943.678831 565.556392 
L 944.70466 569.655562 
L 945.73049 572.853067 
L 946.75632 569.912085 
L 947.782149 565.363433 
L 948.807979 572.200821 
L 949.833808 574.998614 
L 950.859638 573.322879 
L 951.885467 565.459542 
L 952.911297 568.366092 
L 953.937127 569.004169 
L 954.962956 570.195403 
L 955.988786 569.064868 
L 957.014615 595.298044 
L 958.040445 574.378735 
L 959.066274 571.084282 
L 960.092104 565.501257 
L 961.117934 576.148259 
L 962.143763 568.067951 
L 963.169593 569.494805 
L 964.195422 562.588194 
L 965.221252 572.936628 
L 966.247082 568.60932 
L 967.272911 569.391908 
L 968.298741 576.07274 
L 969.32457 574.610866 
L 970.3504 572.469232 
L 971.376229 573.447021 
L 972.402059 568.878272 
L 973.427889 578.367138 
L 974.453718 574.378951 
L 975.479548 566.34946 
L 976.505377 583.873398 
L 977.531207 571.602496 
L 978.557036 575.983504 
L 979.582866 570.388695 
L 980.608696 569.002444 
L 981.634525 571.320758 
L 982.660355 575.634572 
L 983.686184 563.777896 
L 985.737844 572.541022 
L 986.763673 574.203931 
L 987.789503 567.711164 
L 988.815332 569.849667 
L 989.841162 574.119272 
L 990.866991 570.915028 
L 991.892821 569.36189 
L 992.918651 566.471076 
L 993.94448 571.836719 
L 994.97031 575.419204 
L 995.996139 567.533067 
L 997.021969 568.189253 
L 998.047799 573.44123 
L 999.073628 573.928138 
L 1000.099458 569.818089 
L 1001.125287 566.945798 
L 1002.151117 577.407903 
L 1003.176946 573.801226 
L 1004.202776 566.980094 
L 1005.228606 569.117606 
L 1006.254435 571.776484 
L 1007.280265 575.448555 
L 1008.306094 571.419708 
L 1009.331924 568.410184 
L 1010.357753 579.143717 
L 1011.383583 577.220717 
L 1012.409413 568.419852 
L 1013.435242 567.209415 
L 1014.461072 575.185098 
L 1015.486901 576.118256 
L 1016.512731 570.494589 
L 1017.538561 588.020799 
L 1018.56439 590.133619 
L 1019.59022 574.802362 
L 1020.616049 568.829067 
L 1021.641879 568.933066 
L 1022.667708 576.667872 
L 1023.693538 579.129792 
L 1024.719368 566.49815 
L 1025.745197 572.66509 
L 1026.771027 601.607601 
L 1027.796856 577.29648 
L 1028.822686 569.974034 
L 1029.848515 574.151055 
L 1030.874345 577.22858 
L 1031.900175 578.045696 
L 1032.926004 568.278421 
L 1033.951834 570.350794 
L 1034.977663 573.678366 
L 1036.003493 573.565056 
L 1037.029323 566.921744 
L 1038.055152 565.401513 
L 1039.080982 579.87027 
L 1040.106811 574.835285 
L 1041.132641 575.675574 
L 1042.15847 574.267997 
L 1043.1843 580.686923 
L 1044.21013 576.419787 
L 1045.235959 567.295651 
L 1046.261789 572.250711 
L 1047.287618 579.654285 
L 1048.313448 578.794547 
L 1049.339278 572.430519 
L 1050.365107 576.15607 
L 1051.390937 578.402577 
L 1052.416766 581.59191 
L 1053.442596 573.979868 
L 1054.468425 572.36772 
L 1055.494255 579.038546 
L 1056.520085 579.098623 
L 1057.545914 572.58804 
L 1058.571744 576.67402 
L 1059.597573 581.531374 
L 1060.623403 582.914976 
L 1061.649232 575.635587 
L 1062.675062 573.414466 
L 1063.700892 580.188499 
L 1064.726721 580.094994 
L 1065.752551 573.918864 
L 1066.77838 574.013081 
L 1067.80421 578.515321 
L 1068.83004 577.474882 
L 1069.855869 570.517352 
L 1070.881699 585.662127 
L 1071.907528 579.066021 
L 1072.933358 579.973199 
L 1073.959187 572.38433 
L 1074.985017 573.921566 
L 1076.010847 579.2992 
L 1077.036676 579.175276 
L 1078.062506 572.789318 
L 1079.088335 573.191238 
L 1080.114165 579.123153 
L 1081.139994 577.825247 
L 1082.165824 574.384011 
L 1083.191654 571.621069 
L 1084.217483 580.873134 
L 1085.243313 576.813195 
L 1086.269142 573.218293 
L 1087.294972 574.020925 
L 1088.320802 578.159741 
L 1089.346631 579.928241 
L 1090.372461 573.225036 
L 1091.39829 573.275462 
L 1092.42412 581.225474 
L 1093.449949 583.546356 
L 1094.475779 578.05354 
L 1095.501609 571.541002 
L 1096.527438 582.017939 
L 1098.579097 575.693482 
L 1099.604927 571.412613 
L 1100.630757 580.656076 
L 1101.656586 581.085864 
L 1102.682416 576.811714 
L 1103.708245 575.050997 
L 1105.759904 583.339217 
L 1106.785734 578.702744 
L 1107.811564 575.834117 
L 1108.837393 582.257621 
L 1109.863223 581.399839 
L 1110.889052 574.245744 
L 1111.914882 573.35474 
L 1112.940711 582.307237 
L 1113.966541 580.094057 
L 1114.992371 573.817998 
L 1116.0182 578.985086 
L 1117.04403 582.931376 
L 1118.069859 582.352977 
L 1119.095689 575.422369 
L 1120.121519 576.107371 
L 1121.147348 582.076337 
L 1122.173178 580.158101 
L 1123.199007 577.199727 
L 1124.224837 576.863153 
L 1125.250666 581.700664 
L 1126.276496 582.818442 
L 1127.302326 576.384256 
L 1128.328155 576.998531 
L 1129.353985 583.052989 
L 1130.379814 582.619105 
L 1131.405644 577.2929 
L 1132.431473 578.012035 
L 1133.457303 582.815912 
L 1134.483133 582.311094 
L 1135.508962 577.066912 
L 1136.534792 576.857463 
L 1137.560621 582.97085 
L 1138.586451 583.610218 
L 1139.612281 577.825436 
L 1140.63811 577.589723 
L 1141.66394 582.234355 
L 1142.689769 583.52476 
L 1143.715599 577.99215 
L 1144.741428 577.520817 
L 1145.767258 582.845081 
L 1146.793088 582.507209 
L 1147.818917 580.562601 
L 1148.844747 577.511343 
L 1149.870576 580.738143 
L 1150.896406 584.414083 
L 1151.922235 579.934667 
L 1152.948065 573.472544 
L 1153.973895 580.773456 
L 1154.999724 580.993412 
L 1156.025554 575.191042 
L 1157.051383 575.742885 
L 1158.077213 583.237428 
L 1159.103043 582.512115 
L 1160.128872 579.971585 
L 1161.154702 576.812498 
L 1162.180531 585.834643 
L 1163.206361 580.856039 
L 1164.23219 580.373019 
L 1165.25802 578.535371 
L 1166.28385 586.921262 
L 1167.309679 587.36733 
L 1168.335509 581.207767 
L 1169.361338 582.24284 
L 1170.387168 586.327274 
L 1171.412998 587.207349 
L 1172.438827 592.312129 
L 1173.464657 579.36473 
L 1174.490486 583.569992 
L 1175.516316 600.474968 
L 1176.542145 582.605281 
L 1177.567975 581.535058 
L 1178.593805 585.262594 
L 1179.619634 585.214036 
L 1180.645464 579.665508 
L 1181.671293 577.225763 
L 1182.697123 585.549594 
L 1183.722952 584.624515 
L 1184.748782 579.219535 
L 1185.774612 578.19133 
L 1186.800441 584.921452 
L 1187.826271 585.431501 
L 1188.8521 577.916389 
L 1189.87793 577.574096 
L 1190.90376 586.908277 
L 1191.929589 584.096795 
L 1192.955419 579.12166 
L 1193.981248 580.254319 
L 1195.007078 586.040015 
L 1196.032907 583.932982 
L 1197.058737 582.864023 
L 1198.084567 582.832308 
L 1199.110396 585.311871 
L 1200.136226 583.871492 
L 1201.162055 582.825454 
L 1202.187885 582.214228 
L 1203.213714 587.266507 
L 1204.239544 588.036178 
L 1205.265374 582.887884 
L 1206.291203 582.840445 
L 1207.317033 584.161598 
L 1208.342862 595.768239 
L 1209.368692 580.025723 
L 1210.394522 583.311993 
L 1211.420351 588.245009 
L 1212.446181 588.4734 
L 1213.47201 582.827021 
L 1214.49784 580.22507 
L 1215.523669 586.941185 
L 1216.549499 587.569271 
L 1217.575329 580.901723 
L 1218.601158 582.114306 
L 1219.626988 588.313229 
L 1220.652817 588.369219 
L 1221.678647 577.507945 
L 1222.704477 580.866711 
L 1223.730306 582.101887 
L 1224.756136 586.215936 
L 1225.781965 579.220325 
L 1226.807795 577.390589 
L 1227.833624 584.273791 
L 1228.859454 585.968413 
L 1229.885284 581.115096 
L 1230.911113 587.778221 
L 1231.936943 585.868146 
L 1232.962772 583.612935 
L 1233.988602 582.296114 
L 1235.014431 580.101648 
L 1236.040261 594.244309 
L 1237.066091 592.403988 
L 1238.09192 583.128375 
L 1239.11775 581.602749 
L 1240.143579 585.577095 
L 1241.169409 584.532782 
L 1242.195239 579.023183 
L 1243.221068 579.124144 
L 1244.246898 586.420599 
L 1245.272727 585.598952 
L 1245.272727 585.598952 
" style="fill:none;stroke:#1f77b4;stroke-linecap:square;stroke-width:1.5;"/>
   </g>
   <g id="line2d_18">
    <path clip-path="url(#p6961cc775c)" d="M 230.727273 246.11922 
L 231.753102 125.248022 
L 232.778932 153.820327 
L 233.804761 212.27566 
L 234.830591 164.366995 
L 235.856421 213.144681 
L 236.88225 195.153533 
L 237.90808 214.618562 
L 238.933909 229.440387 
L 239.959739 205.300298 
L 240.985569 252.239332 
L 242.011398 243.656706 
L 243.037228 245.871222 
L 244.063057 266.002613 
L 245.088887 260.789791 
L 246.114716 272.858043 
L 247.140546 250.952502 
L 248.166376 290.632473 
L 249.192205 269.319195 
L 250.218035 296.635354 
L 251.243864 278.369695 
L 252.269694 306.07105 
L 253.295523 313.847503 
L 254.321353 308.528432 
L 255.347183 318.463623 
L 256.373012 340.658781 
L 257.398842 393.793392 
L 258.424671 354.699404 
L 259.450501 339.429705 
L 260.476331 356.333975 
L 261.50216 343.277785 
L 262.52799 361.24386 
L 263.553819 352.51901 
L 264.579649 366.285804 
L 265.605478 345.740169 
L 266.631308 370.872323 
L 267.657138 374.787439 
L 268.682967 331.276551 
L 269.708797 359.987237 
L 270.734626 335.19589 
L 271.760456 377.306844 
L 272.786286 373.223588 
L 273.812115 366.201025 
L 274.837945 352.128071 
L 275.863774 293.941426 
L 276.889604 455.814906 
L 277.915433 333.975657 
L 278.941263 395.072816 
L 279.967093 400.279028 
L 280.992922 342.665451 
L 282.018752 406.427695 
L 283.044581 404.325556 
L 284.070411 372.109806 
L 285.09624 377.296038 
L 286.12207 420.577681 
L 287.1479 417.280292 
L 288.173729 417.622097 
L 289.199559 388.210101 
L 290.225388 364.158573 
L 291.251218 424.929922 
L 292.277048 427.590836 
L 293.302877 376.936025 
L 294.328707 432.451858 
L 295.354536 378.512399 
L 296.380366 396.349841 
L 297.406195 382.424351 
L 298.432025 403.840755 
L 299.457855 382.934852 
L 300.483684 406.725316 
L 301.509514 393.598248 
L 303.561173 406.290086 
L 304.587002 410.040015 
L 305.612832 401.796085 
L 306.638662 414.260371 
L 307.664491 412.567235 
L 308.690321 417.430754 
L 309.71615 407.285988 
L 310.74198 445.238556 
L 311.76781 443.92463 
L 312.793639 411.524748 
L 313.819469 420.562044 
L 314.845298 433.615616 
L 315.871128 420.411416 
L 316.896957 425.203471 
L 317.922787 420.418941 
L 318.948617 436.749242 
L 319.974446 416.142894 
L 321.000276 437.52041 
L 322.026105 416.078891 
L 323.051935 444.523371 
L 324.077765 434.052833 
L 325.103594 472.442628 
L 326.129424 433.591418 
L 327.155253 478.99787 
L 328.181083 432.471683 
L 329.206912 440.324678 
L 330.232742 484.8485 
L 331.258572 473.682095 
L 332.284401 447.361749 
L 333.310231 438.153646 
L 334.33606 448.428438 
L 335.36189 461.863498 
L 336.387719 516.73701 
L 337.413549 458.153748 
L 338.439379 531.437622 
L 339.465208 455.664294 
L 340.491038 464.084783 
L 341.516867 463.441528 
L 342.542697 450.894457 
L 343.568527 466.179812 
L 344.594356 483.773042 
L 345.620186 481.97865 
L 346.646015 454.237173 
L 347.671845 468.742186 
L 348.697674 534.093757 
L 349.723504 470.074222 
L 350.749334 505.828429 
L 351.775163 478.739364 
L 352.800993 462.687381 
L 353.826822 476.873849 
L 354.852652 438.301684 
L 356.904311 530.312547 
L 357.930141 472.296617 
L 358.95597 534.432231 
L 359.9818 481.355375 
L 361.007629 464.519352 
L 362.033459 489.098433 
L 363.059289 476.689396 
L 364.085118 484.894731 
L 365.110948 479.495169 
L 366.136777 476.682192 
L 367.162607 482.569467 
L 368.188436 487.359139 
L 369.214266 478.750106 
L 370.240096 479.312797 
L 371.265925 482.846661 
L 372.291755 497.568693 
L 373.317584 480.521462 
L 374.343414 486.230386 
L 375.369243 473.766675 
L 376.395073 494.360273 
L 377.420903 484.623646 
L 378.446732 498.988557 
L 379.472562 478.051433 
L 380.498391 540.552817 
L 381.524221 483.848089 
L 382.550051 497.551055 
L 383.57588 480.790791 
L 384.60171 498.517866 
L 385.627539 491.825097 
L 386.653369 528.075759 
L 387.679198 491.746967 
L 388.705028 516.079475 
L 389.730858 487.568754 
L 391.782517 497.094729 
L 392.808346 492.680854 
L 393.834176 502.304294 
L 394.860006 502.297544 
L 395.885835 490.35209 
L 396.911665 507.277671 
L 397.937494 500.888513 
L 398.963324 497.443542 
L 399.989153 479.095368 
L 401.014983 505.685581 
L 402.040813 493.869761 
L 403.066642 502.991575 
L 404.092472 499.077534 
L 405.118301 541.018269 
L 406.144131 505.707535 
L 407.16996 519.98585 
L 408.19579 506.101468 
L 409.22162 505.74842 
L 410.247449 497.772716 
L 411.273279 512.384125 
L 412.299108 509.954615 
L 413.324938 538.320484 
L 414.350768 510.600533 
L 415.376597 509.130557 
L 416.402427 505.240182 
L 417.428256 509.593213 
L 418.454086 496.13069 
L 419.479915 524.449932 
L 420.505745 488.540993 
L 421.531575 513.686343 
L 422.557404 487.819516 
L 423.583234 517.264901 
L 424.609063 489.899843 
L 425.634893 507.779954 
L 426.660722 504.982144 
L 427.686552 527.650407 
L 428.712382 511.615829 
L 429.738211 518.673905 
L 430.764041 499.536174 
L 431.78987 523.550252 
L 432.8157 521.621098 
L 433.84153 519.246774 
L 434.867359 505.705313 
L 435.893189 513.399568 
L 436.919018 514.652731 
L 437.944848 529.327474 
L 438.970677 523.98712 
L 439.996507 531.776966 
L 441.022337 516.163045 
L 442.048166 516.073943 
L 443.073996 520.6448 
L 444.099825 512.508539 
L 445.125655 532.730559 
L 446.151485 525.363489 
L 447.177314 513.579566 
L 448.203144 539.955063 
L 449.228973 524.944797 
L 450.254803 539.646903 
L 451.280632 524.086852 
L 452.306462 542.688589 
L 453.332292 554.716428 
L 454.358121 543.631515 
L 455.383951 513.975587 
L 456.40978 533.217692 
L 457.43561 535.939886 
L 458.461439 542.078021 
L 459.487269 518.831834 
L 460.513099 538.486679 
L 461.538928 529.801257 
L 462.564758 542.689439 
L 463.590587 533.214366 
L 464.616417 535.311549 
L 465.642247 529.076982 
L 466.668076 540.130718 
L 467.693906 536.016734 
L 468.719735 535.773735 
L 469.745565 521.831661 
L 470.771394 546.553967 
L 471.797224 535.265354 
L 472.823054 545.997921 
L 473.848883 534.78854 
L 474.874713 542.487301 
L 475.900542 531.661436 
L 476.926372 541.503662 
L 477.952201 543.590005 
L 478.978031 542.289352 
L 480.003861 533.927289 
L 481.02969 546.340103 
L 482.05552 540.32086 
L 483.081349 546.767836 
L 484.107179 543.680168 
L 485.133009 547.523591 
L 486.158838 546.263551 
L 487.184668 550.633172 
L 488.210497 550.284695 
L 489.236327 549.476244 
L 490.262156 546.438924 
L 491.287986 539.343995 
L 492.313816 545.747768 
L 493.339645 555.680439 
L 494.365475 538.320111 
L 495.391304 544.492034 
L 496.417134 545.934942 
L 497.442964 564.781633 
L 498.468793 538.323209 
L 499.494623 551.508971 
L 500.520452 531.737841 
L 501.546282 550.06766 
L 502.572111 545.004387 
L 503.597941 549.846518 
L 504.623771 530.200815 
L 505.6496 545.675409 
L 506.67543 535.22945 
L 507.701259 549.279326 
L 508.727089 534.731323 
L 509.752918 549.436239 
L 510.778748 541.719966 
L 511.804578 554.575062 
L 512.830407 543.936306 
L 513.856237 549.894103 
L 514.882066 545.975845 
L 515.907896 549.032089 
L 516.933726 538.477545 
L 517.959555 556.963752 
L 518.985385 540.723591 
L 520.011214 574.911676 
L 521.037044 544.091119 
L 522.062873 545.957035 
L 523.088703 543.723339 
L 524.114533 553.192957 
L 525.140362 546.50552 
L 526.166192 547.995991 
L 527.192021 543.200987 
L 528.217851 556.837496 
L 529.24368 555.9455 
L 530.26951 554.64272 
L 531.29534 537.930383 
L 532.321169 556.257401 
L 533.346999 544.040504 
L 534.372828 556.581422 
L 535.398658 545.520649 
L 536.424488 557.047006 
L 537.450317 550.739014 
L 538.476147 561.670878 
L 539.501976 548.046261 
L 540.527806 553.738043 
L 541.553635 552.901562 
L 542.579465 559.44814 
L 543.605295 553.856034 
L 544.631124 557.523317 
L 545.656954 556.907964 
L 546.682783 558.921619 
L 547.708613 556.391038 
L 548.734443 552.940024 
L 549.760272 558.864517 
L 550.786102 560.366942 
L 551.811931 553.28284 
L 552.837761 561.584701 
L 553.86359 547.166829 
L 554.88942 562.788222 
L 555.91525 560.00717 
L 556.941079 558.28496 
L 557.966909 562.516945 
L 558.992738 559.945602 
L 560.018568 552.439879 
L 561.044397 586.827403 
L 562.070227 545.905667 
L 563.096057 566.485538 
L 564.121886 555.541609 
L 565.147716 564.233067 
L 566.173545 558.274761 
L 567.199375 562.010353 
L 568.225205 552.530537 
L 569.251034 562.680466 
L 570.276864 570.554965 
L 571.302693 562.313344 
L 572.328523 562.775182 
L 573.354352 560.003128 
L 574.380182 559.383945 
L 575.406012 561.371916 
L 576.431841 566.238568 
L 577.457671 563.974697 
L 578.4835 562.654991 
L 579.50933 570.045156 
L 580.535159 561.094101 
L 581.560989 569.35183 
L 582.586819 560.087312 
L 583.612648 562.252623 
L 584.638478 559.559667 
L 585.664307 562.571972 
L 586.690137 560.477574 
L 587.715967 568.18346 
L 588.741796 560.643784 
L 589.767626 565.481535 
L 590.793455 561.866405 
L 591.819285 566.342899 
L 592.845114 562.884459 
L 593.870944 566.11774 
L 594.896774 561.270445 
L 595.922603 571.2134 
L 596.948433 562.50826 
L 597.974262 570.090378 
L 599.000092 562.428437 
L 600.025922 567.55076 
L 601.051751 564.022701 
L 602.077581 566.228795 
L 603.10341 558.2329 
L 604.12924 572.270683 
L 605.155069 561.986849 
L 606.180899 568.491983 
L 607.206729 563.844365 
L 608.232558 571.207293 
L 609.258388 563.482328 
L 610.284217 569.263828 
L 611.310047 564.706946 
L 612.335876 575.529503 
L 613.361706 565.320526 
L 614.387536 573.299193 
L 615.413365 567.044602 
L 616.439195 572.144903 
L 617.465024 568.180325 
L 618.490854 572.206553 
L 619.516684 561.673169 
L 620.542513 572.241029 
L 621.568343 564.104114 
L 622.594172 569.901713 
L 623.620002 561.545617 
L 624.645831 573.370945 
L 625.671661 572.267444 
L 626.697491 572.105291 
L 627.72332 565.32459 
L 628.74915 570.566243 
L 629.774979 565.562731 
L 630.800809 572.627291 
L 631.826638 565.608781 
L 632.852468 575.028847 
L 633.878298 566.424461 
L 634.904127 576.570784 
L 635.929957 569.07833 
L 636.955786 570.475506 
L 637.981616 570.389571 
L 639.007446 573.973701 
L 640.033275 570.580564 
L 641.059105 579.485655 
L 642.084934 574.080217 
L 643.110764 576.379793 
L 644.136593 566.973107 
L 645.162423 574.485818 
L 646.188253 570.892879 
L 647.214082 576.894451 
L 648.239912 569.882493 
L 649.265741 577.827955 
L 650.291571 570.800803 
L 651.3174 576.759951 
L 652.34323 571.311333 
L 653.36906 574.566227 
L 654.394889 570.78658 
L 655.420719 578.275347 
L 656.446548 571.095174 
L 657.472378 578.383193 
L 658.498208 577.551921 
L 659.524037 578.58705 
L 660.549867 572.577716 
L 661.575696 580.993144 
L 662.601526 569.923546 
L 663.627355 577.206688 
L 664.653185 569.485828 
L 665.679015 578.750028 
L 666.704844 569.586651 
L 667.730674 579.621102 
L 668.756503 574.153489 
L 669.782333 579.969827 
L 670.808163 582.802091 
L 671.833992 577.577853 
L 672.859822 580.362245 
L 673.885651 580.165757 
L 674.911481 571.480641 
L 675.93731 581.026875 
L 676.96314 588.371174 
L 677.98897 580.165862 
L 679.014799 575.271238 
L 680.040629 577.37794 
L 681.066458 573.357864 
L 682.092288 581.432893 
L 683.118117 576.236073 
L 684.143947 581.218674 
L 685.169777 574.123182 
L 686.195606 582.141201 
L 687.221436 576.947552 
L 688.247265 582.5504 
L 689.273095 575.696484 
L 690.298925 582.924213 
L 691.324754 577.721913 
L 692.350584 582.298378 
L 693.376413 578.59449 
L 694.402243 584.846374 
L 695.428072 577.238942 
L 696.453902 585.033841 
L 697.479732 575.729934 
L 698.505561 580.739419 
L 699.531391 579.376256 
L 700.55722 582.806332 
L 701.58305 580.607863 
L 702.608879 584.484111 
L 703.634709 580.798377 
L 704.660539 584.292459 
L 705.686368 577.959808 
L 706.712198 585.725651 
L 707.738027 578.596319 
L 708.763857 586.26726 
L 709.789687 578.926021 
L 710.815516 587.093331 
L 711.841346 577.935437 
L 712.867175 584.66918 
L 713.893005 577.133468 
L 714.918834 586.60377 
L 715.944664 578.642408 
L 716.970494 585.785367 
L 717.996323 582.037845 
L 719.022153 585.245236 
L 720.047982 576.994492 
L 721.073812 588.462607 
L 722.099642 581.939845 
L 723.125471 588.883496 
L 724.151301 585.992425 
L 725.17713 589.057707 
L 726.20296 592.726846 
L 727.228789 586.934882 
L 728.254619 580.467224 
L 729.280449 586.606045 
L 730.306278 580.246547 
L 731.332108 588.415361 
L 732.357937 583.786381 
L 733.383767 587.083588 
L 734.409596 582.616686 
L 735.435426 586.799115 
L 736.461256 595.059937 
L 737.487085 588.224961 
L 738.512915 583.575565 
L 739.538744 587.838999 
L 740.564574 585.805699 
L 741.590404 588.060164 
L 742.616233 584.095604 
L 743.642063 587.380501 
L 744.667892 582.129754 
L 745.693722 590.296942 
L 746.719551 584.618358 
L 747.745381 590.025451 
L 748.771211 583.000621 
L 749.79704 585.7885 
L 751.848699 589.680867 
L 752.874529 591.690487 
L 753.900358 585.588463 
L 754.926188 584.27914 
L 755.952018 590.157353 
L 756.977847 584.901013 
L 758.003677 588.825545 
L 759.029506 594.028792 
L 760.055336 589.96961 
L 761.081166 583.392875 
L 762.106995 591.843403 
L 763.132825 585.605341 
L 764.158654 589.337716 
L 765.184484 588.227575 
L 766.210313 590.810263 
L 767.236143 583.244455 
L 768.261973 590.796934 
L 769.287802 588.031777 
L 770.313632 597.355658 
L 771.339461 587.446761 
L 772.365291 591.235554 
L 773.391121 586.246095 
L 774.41695 593.073143 
L 775.44278 586.607831 
L 776.468609 592.436128 
L 777.494439 588.319153 
L 778.520268 592.609997 
L 779.546098 586.580389 
L 780.571928 590.787862 
L 781.597757 590.287643 
L 782.623587 592.252859 
L 783.649416 586.892362 
L 784.675246 591.776956 
L 785.701075 576.995001 
L 786.726905 592.134114 
L 787.752735 589.648099 
L 788.778564 591.723277 
L 789.804394 585.624576 
L 790.830223 583.15165 
L 791.856053 587.649494 
L 792.881883 591.412752 
L 793.907712 589.351398 
L 794.933542 593.262988 
L 795.959371 587.389277 
L 796.985201 594.056174 
L 798.01103 588.108989 
L 799.03686 593.92762 
L 800.06269 589.505187 
L 801.088519 590.373149 
L 802.114349 578.175326 
L 803.140178 593.723755 
L 804.166008 588.989898 
L 805.191837 595.729453 
L 806.217667 588.972901 
L 807.243497 594.156537 
L 808.269326 587.470916 
L 809.295156 595.887651 
L 810.320985 587.275777 
L 811.346815 593.223178 
L 812.372645 601.186368 
L 813.398474 593.109389 
L 814.424304 589.116462 
L 815.450133 595.038917 
L 816.475963 591.839881 
L 817.501792 592.0452 
L 818.527622 591.567863 
L 819.553452 595.283033 
L 820.579281 588.160118 
L 821.605111 596.865928 
L 822.63094 591.767453 
L 823.65677 597.273267 
L 824.6826 592.223528 
L 825.708429 596.407802 
L 826.734259 593.645447 
L 827.760088 597.428373 
L 828.785918 590.615687 
L 829.811747 602.920676 
L 830.837577 590.261776 
L 831.863407 596.317778 
L 832.889236 593.626146 
L 833.915066 595.733777 
L 834.940895 579.575227 
L 835.966725 597.598813 
L 836.992554 589.57101 
L 838.018384 597.643406 
L 839.044214 591.519311 
L 840.070043 597.354468 
L 841.095873 594.006336 
L 842.121702 597.095848 
L 843.147532 593.515042 
L 844.173362 597.840228 
L 845.199191 592.415189 
L 846.225021 598.269638 
L 847.25085 591.213844 
L 848.27668 595.929359 
L 849.302509 592.09089 
L 850.328339 604.807059 
L 851.354169 595.269519 
L 852.379998 597.957046 
L 853.405828 595.057589 
L 854.431657 598.901364 
L 855.457487 589.68645 
L 856.483316 597.981514 
L 857.509146 593.103169 
L 858.534976 598.159078 
L 859.560805 590.909868 
L 860.586635 594.034884 
L 861.612464 594.824405 
L 862.638294 598.368841 
L 863.664124 595.579076 
L 864.689953 598.979099 
L 865.715783 593.857358 
L 866.741612 589.632607 
L 867.767442 592.730037 
L 868.793271 601.555673 
L 869.819101 602.286028 
L 870.844931 597.211382 
L 871.87076 595.6226 
L 872.89659 599.090904 
L 873.922419 596.004607 
L 874.948249 599.83359 
L 875.974078 594.85501 
L 876.999908 598.394995 
L 878.025738 595.938329 
L 879.051567 597.934605 
L 880.077397 598.752435 
L 881.103226 598.86548 
L 882.129056 592.811706 
L 883.154886 600.613077 
L 884.180715 597.505109 
L 885.206545 600.247729 
L 886.232374 596.725116 
L 887.258204 597.735763 
L 888.284033 592.848265 
L 889.309863 601.140115 
L 890.335693 594.982183 
L 891.361522 600.456477 
L 892.387352 595.11157 
L 893.413181 600.292793 
L 894.439011 593.960197 
L 895.464841 601.085989 
L 896.49067 593.826442 
L 897.5165 615.6 
L 898.542329 595.980923 
L 899.568159 600.125175 
L 900.593988 602.145805 
L 902.645648 595.915643 
L 903.671477 601.973034 
L 904.697307 598.41394 
L 905.723136 599.480171 
L 906.748966 594.617596 
L 907.774795 601.820708 
L 908.800625 594.889841 
L 909.826455 602.979811 
L 910.852284 595.378102 
L 911.878114 598.910897 
L 912.903943 596.169021 
L 913.929773 599.996709 
L 914.955603 595.641995 
L 915.981432 600.23817 
L 917.007262 602.290043 
L 918.033091 602.078439 
L 919.058921 598.398587 
L 920.08475 601.839437 
L 921.11058 598.21263 
L 922.13641 602.11613 
L 923.162239 598.668991 
L 924.188069 602.536494 
L 925.213898 598.762904 
L 926.239728 601.937139 
L 927.265557 598.277924 
L 928.291387 602.974841 
L 929.317217 598.273543 
L 930.343046 602.97126 
L 931.368876 598.789187 
L 932.394705 601.753514 
L 933.420535 599.386694 
L 934.446365 602.262846 
L 935.472194 603.521782 
L 936.498024 602.823893 
L 937.523853 595.368418 
L 938.549683 602.256345 
L 939.575512 598.858572 
L 940.601342 603.156603 
L 941.627172 599.583544 
L 943.678831 604.272037 
L 944.70466 604.419146 
L 945.73049 599.922055 
L 946.75632 603.858105 
L 947.782149 597.182199 
L 948.807979 603.907514 
L 949.833808 600.625999 
L 950.859638 603.859162 
L 951.885467 597.910768 
L 952.911297 600.835939 
L 953.937127 599.128919 
L 954.962956 603.594866 
L 955.988786 599.080139 
L 957.014615 605.252144 
L 958.040445 598.404919 
L 959.066274 604.210415 
L 960.092104 599.942493 
L 961.117934 605.06836 
L 962.143763 601.05036 
L 963.169593 604.668632 
L 964.195422 598.521741 
L 965.221252 604.602949 
L 966.247082 599.606664 
L 967.272911 601.075275 
L 968.298741 590.374288 
L 969.32457 604.322585 
L 970.3504 599.061239 
L 971.376229 604.081138 
L 972.402059 598.071286 
L 973.427889 604.361723 
L 974.453718 601.39984 
L 975.479548 602.158395 
L 976.505377 605.603532 
L 977.531207 610.685888 
L 978.557036 598.558261 
L 979.582866 603.606725 
L 980.608696 599.5703 
L 981.634525 606.031349 
L 982.660355 590.357111 
L 983.686184 603.545918 
L 984.712014 605.9384 
L 985.737844 603.46117 
L 986.763673 598.151612 
L 987.789503 603.771973 
L 988.815332 600.046549 
L 989.841162 604.646205 
L 990.866991 602.983062 
L 991.892821 610.204775 
L 992.918651 600.618395 
L 993.94448 605.327492 
L 994.97031 599.45257 
L 995.996139 604.223611 
L 997.021969 602.299484 
L 998.047799 603.589922 
L 999.073628 601.306652 
L 1000.099458 603.966059 
L 1001.125287 602.047378 
L 1002.151117 604.120598 
L 1003.176946 599.523988 
L 1004.202776 605.597852 
L 1005.228606 600.085316 
L 1006.254435 603.590342 
L 1007.280265 601.086922 
L 1008.306094 606.616147 
L 1009.331924 602.114687 
L 1010.357753 607.231621 
L 1011.383583 603.476299 
L 1012.409413 605.43962 
L 1013.435242 601.010774 
L 1014.461072 603.002687 
L 1015.486901 598.081825 
L 1016.512731 605.651207 
L 1017.538561 601.105399 
L 1018.56439 605.708615 
L 1019.59022 601.248026 
L 1020.616049 610.284127 
L 1021.641879 600.462662 
L 1022.667708 609.979691 
L 1023.693538 601.252397 
L 1024.719368 605.073295 
L 1025.745197 600.640454 
L 1026.771027 605.707687 
L 1027.796856 601.171218 
L 1028.822686 605.92648 
L 1029.848515 600.281334 
L 1030.874345 607.213239 
L 1031.900175 601.479085 
L 1032.926004 605.479041 
L 1033.951834 601.036114 
L 1034.977663 592.446142 
L 1036.003493 600.390944 
L 1037.029323 605.58663 
L 1038.055152 601.461776 
L 1039.080982 605.300086 
L 1040.106811 603.270629 
L 1041.132641 607.61698 
L 1042.15847 604.583168 
L 1043.1843 607.998577 
L 1044.21013 604.202639 
L 1045.235959 606.090557 
L 1046.261789 601.376519 
L 1047.287618 606.00303 
L 1048.313448 601.854022 
L 1049.339278 605.371372 
L 1050.365107 601.592457 
L 1051.390937 606.810136 
L 1052.416766 602.852483 
L 1053.442596 606.654436 
L 1054.468425 603.232059 
L 1055.494255 606.928148 
L 1056.520085 604.814361 
L 1057.545914 606.797692 
L 1058.571744 601.314958 
L 1059.597573 606.183059 
L 1060.623403 605.140703 
L 1061.649232 607.060228 
L 1062.675062 604.279818 
L 1063.700892 608.836384 
L 1064.726721 606.421367 
L 1065.752551 606.979822 
L 1066.77838 601.732524 
L 1067.80421 608.900759 
L 1068.83004 603.320717 
L 1069.855869 606.866893 
L 1070.881699 603.816752 
L 1071.907528 609.125198 
L 1072.933358 603.671165 
L 1073.959187 607.508605 
L 1074.985017 606.518091 
L 1076.010847 605.935328 
L 1078.062506 606.167145 
L 1079.088335 605.477544 
L 1080.114165 608.138491 
L 1081.139994 605.983851 
L 1082.165824 607.885192 
L 1083.191654 604.104725 
L 1084.217483 608.067425 
L 1085.243313 606.731998 
L 1086.269142 607.634984 
L 1087.294972 606.085813 
L 1088.320802 609.219791 
L 1089.346631 606.08802 
L 1090.372461 610.658306 
L 1091.39829 604.402682 
L 1092.42412 607.833878 
L 1093.449949 603.545215 
L 1094.475779 606.36827 
L 1095.501609 604.537486 
L 1096.527438 607.876594 
L 1097.553268 604.260908 
L 1098.579097 607.26112 
L 1099.604927 608.072279 
L 1100.630757 607.396581 
L 1101.656586 605.404209 
L 1102.682416 608.145876 
L 1103.708245 608.510071 
L 1104.734075 608.406815 
L 1105.759904 604.575613 
L 1106.785734 608.227036 
L 1107.811564 602.38238 
L 1108.837393 609.276011 
L 1109.863223 606.579961 
L 1110.889052 609.131503 
L 1111.914882 605.704472 
L 1112.940711 609.56792 
L 1113.966541 604.806727 
L 1114.992371 604.92193 
L 1116.0182 605.522164 
L 1117.04403 609.187902 
L 1118.069859 604.905026 
L 1119.095689 609.755021 
L 1120.121519 605.08553 
L 1121.147348 613.3481 
L 1122.173178 609.339223 
L 1123.199007 609.012317 
L 1124.224837 605.32538 
L 1125.250666 608.845671 
L 1126.276496 606.094259 
L 1127.302326 611.109889 
L 1128.328155 606.659597 
L 1129.353985 609.382789 
L 1130.379814 608.38081 
L 1131.405644 610.029927 
L 1132.431473 607.382986 
L 1133.457303 609.591126 
L 1134.483133 605.518911 
L 1135.508962 609.531927 
L 1136.534792 604.905983 
L 1137.560621 609.588054 
L 1138.586451 604.485901 
L 1139.612281 610.96027 
L 1140.63811 607.676792 
L 1141.66394 610.476759 
L 1142.689769 607.623679 
L 1143.715599 602.883453 
L 1145.767258 609.96864 
L 1146.793088 605.441875 
L 1147.818917 610.967067 
L 1148.844747 607.904436 
L 1149.870576 610.939646 
L 1150.896406 608.159388 
L 1151.922235 609.536281 
L 1152.948065 606.477632 
L 1153.973895 610.363989 
L 1154.999724 606.60557 
L 1156.025554 608.82837 
L 1157.051383 607.124323 
L 1158.077213 610.513635 
L 1159.103043 606.48608 
L 1160.128872 608.4717 
L 1161.154702 606.781821 
L 1162.180531 610.382618 
L 1163.206361 607.148473 
L 1164.23219 608.51228 
L 1165.25802 607.165781 
L 1166.28385 611.359019 
L 1167.309679 610.675139 
L 1168.335509 611.258839 
L 1169.361338 607.615539 
L 1170.387168 610.879464 
L 1171.412998 606.590915 
L 1172.438827 611.423232 
L 1173.464657 606.792793 
L 1174.490486 610.944341 
L 1175.516316 606.620145 
L 1176.542145 612.145458 
L 1177.567975 607.42107 
L 1178.593805 612.573412 
L 1179.619634 607.464992 
L 1180.645464 611.945695 
L 1181.671293 606.624012 
L 1182.697123 611.573872 
L 1183.722952 607.826226 
L 1184.748782 611.700413 
L 1185.774612 606.86055 
L 1186.800441 613.666076 
L 1187.826271 607.529104 
L 1188.8521 611.260725 
L 1189.87793 607.638197 
L 1190.90376 611.677946 
L 1191.929589 607.802348 
L 1192.955419 612.790262 
L 1193.981248 607.089846 
L 1195.007078 611.193925 
L 1196.032907 608.159885 
L 1197.058737 611.29594 
L 1198.084567 609.270346 
L 1199.110396 612.537684 
L 1200.136226 608.189239 
L 1201.162055 611.478927 
L 1202.187885 608.373957 
L 1203.213714 611.951074 
L 1204.239544 608.391321 
L 1205.265374 611.36197 
L 1206.291203 608.684475 
L 1207.317033 612.562491 
L 1208.342862 608.522578 
L 1209.368692 612.181618 
L 1210.394522 608.532957 
L 1211.420351 612.090955 
L 1212.446181 610.044624 
L 1213.47201 611.58764 
L 1214.49784 607.887776 
L 1215.523669 612.065816 
L 1216.549499 608.698741 
L 1217.575329 612.143504 
L 1218.601158 609.765568 
L 1219.626988 612.948589 
L 1220.652817 609.071997 
L 1221.678647 611.875759 
L 1222.704477 608.953233 
L 1223.730306 613.602841 
L 1224.756136 608.049958 
L 1225.781965 611.468331 
L 1226.807795 612.829656 
L 1227.833624 613.723437 
L 1228.859454 608.107123 
L 1229.885284 612.318857 
L 1230.911113 609.073588 
L 1231.936943 612.823225 
L 1232.962772 609.187157 
L 1233.988602 612.756126 
L 1235.014431 609.063193 
L 1236.040261 612.418788 
L 1237.066091 609.180362 
L 1238.09192 612.902835 
L 1239.11775 608.697227 
L 1240.143579 613.841642 
L 1241.169409 610.878606 
L 1242.195239 613.786742 
L 1243.221068 609.006452 
L 1244.246898 613.837438 
L 1245.272727 609.70456 
L 1245.272727 609.70456 
" style="fill:none;stroke:#ff7f0e;stroke-linecap:square;stroke-width:1.5;"/>
   </g>
   <g id="patch_3">
    <path d="M 180 640.8 
L 180 86.4 
" style="fill:none;stroke:#000000;stroke-linecap:square;stroke-linejoin:miter;stroke-width:0.8;"/>
   </g>
   <g id="patch_4">
    <path d="M 1296 640.8 
L 1296 86.4 
" style="fill:none;stroke:#000000;stroke-linecap:square;stroke-linejoin:miter;stroke-width:0.8;"/>
   </g>
   <g id="patch_5">
    <path d="M 180 640.8 
L 1296 640.8 
" style="fill:none;stroke:#000000;stroke-linecap:square;stroke-linejoin:miter;stroke-width:0.8;"/>
   </g>
   <g id="patch_6">
    <path d="M 180 86.4 
L 1296 86.4 
" style="fill:none;stroke:#000000;stroke-linecap:square;stroke-linejoin:miter;stroke-width:0.8;"/>
   </g>
   <g id="text_19">
    <!-- Accumulation/Distribution Index (ADI) Speedup -->
    <defs>
     <path d="M 34.1875 63.1875 
L 20.796875 26.90625 
L 47.609375 26.90625 
z
M 28.609375 72.90625 
L 39.796875 72.90625 
L 67.578125 0 
L 57.328125 0 
L 50.6875 18.703125 
L 17.828125 18.703125 
L 11.1875 0 
L 0.78125 0 
z
" id="DejaVuSans-65"/>
     <path d="M 48.78125 52.59375 
L 48.78125 44.1875 
Q 44.96875 46.296875 41.140625 47.34375 
Q 37.3125 48.390625 33.40625 48.390625 
Q 24.65625 48.390625 19.8125 42.84375 
Q 14.984375 37.3125 14.984375 27.296875 
Q 14.984375 17.28125 19.8125 11.734375 
Q 24.65625 6.203125 33.40625 6.203125 
Q 37.3125 6.203125 41.140625 7.25 
Q 44.96875 8.296875 48.78125 10.40625 
L 48.78125 2.09375 
Q 45.015625 0.34375 40.984375 -0.53125 
Q 36.96875 -1.421875 32.421875 -1.421875 
Q 20.0625 -1.421875 12.78125 6.34375 
Q 5.515625 14.109375 5.515625 27.296875 
Q 5.515625 40.671875 12.859375 48.328125 
Q 20.21875 56 33.015625 56 
Q 37.15625 56 41.109375 55.140625 
Q 45.0625 54.296875 48.78125 52.59375 
z
" id="DejaVuSans-99"/>
     <path d="M 52 44.1875 
Q 55.375 50.25 60.0625 53.125 
Q 64.75 56 71.09375 56 
Q 79.640625 56 84.28125 50.015625 
Q 88.921875 44.046875 88.921875 33.015625 
L 88.921875 0 
L 79.890625 0 
L 79.890625 32.71875 
Q 79.890625 40.578125 77.09375 44.375 
Q 74.3125 48.1875 68.609375 48.1875 
Q 61.625 48.1875 57.5625 43.546875 
Q 53.515625 38.921875 53.515625 30.90625 
L 53.515625 0 
L 44.484375 0 
L 44.484375 32.71875 
Q 44.484375 40.625 41.703125 44.40625 
Q 38.921875 48.1875 33.109375 48.1875 
Q 26.21875 48.1875 22.15625 43.53125 
Q 18.109375 38.875 18.109375 30.90625 
L 18.109375 0 
L 9.078125 0 
L 9.078125 54.6875 
L 18.109375 54.6875 
L 18.109375 46.1875 
Q 21.1875 51.21875 25.484375 53.609375 
Q 29.78125 56 35.6875 56 
Q 41.65625 56 45.828125 52.96875 
Q 50 49.953125 52 44.1875 
z
" id="DejaVuSans-109"/>
     <path d="M 9.421875 75.984375 
L 18.40625 75.984375 
L 18.40625 0 
L 9.421875 0 
z
" id="DejaVuSans-108"/>
     <path d="M 34.28125 27.484375 
Q 23.390625 27.484375 19.1875 25 
Q 14.984375 22.515625 14.984375 16.5 
Q 14.984375 11.71875 18.140625 8.90625 
Q 21.296875 6.109375 26.703125 6.109375 
Q 34.1875 6.109375 38.703125 11.40625 
Q 43.21875 16.703125 43.21875 25.484375 
L 43.21875 27.484375 
z
M 52.203125 31.203125 
L 52.203125 0 
L 43.21875 0 
L 43.21875 8.296875 
Q 40.140625 3.328125 35.546875 0.953125 
Q 30.953125 -1.421875 24.3125 -1.421875 
Q 15.921875 -1.421875 10.953125 3.296875 
Q 6 8.015625 6 15.921875 
Q 6 25.140625 12.171875 29.828125 
Q 18.359375 34.515625 30.609375 34.515625 
L 43.21875 34.515625 
L 43.21875 35.40625 
Q 43.21875 41.609375 39.140625 45 
Q 35.0625 48.390625 27.6875 48.390625 
Q 23 48.390625 18.546875 47.265625 
Q 14.109375 46.140625 10.015625 43.890625 
L 10.015625 52.203125 
Q 14.9375 54.109375 19.578125 55.046875 
Q 24.21875 56 28.609375 56 
Q 40.484375 56 46.34375 49.84375 
Q 52.203125 43.703125 52.203125 31.203125 
z
" id="DejaVuSans-97"/>
     <path d="M 18.3125 70.21875 
L 18.3125 54.6875 
L 36.8125 54.6875 
L 36.8125 47.703125 
L 18.3125 47.703125 
L 18.3125 18.015625 
Q 18.3125 11.328125 20.140625 9.421875 
Q 21.96875 7.515625 27.59375 7.515625 
L 36.8125 7.515625 
L 36.8125 0 
L 27.59375 0 
Q 17.1875 0 13.234375 3.875 
Q 9.28125 7.765625 9.28125 18.015625 
L 9.28125 47.703125 
L 2.6875 47.703125 
L 2.6875 54.6875 
L 9.28125 54.6875 
L 9.28125 70.21875 
z
" id="DejaVuSans-116"/>
     <path d="M 9.421875 54.6875 
L 18.40625 54.6875 
L 18.40625 0 
L 9.421875 0 
z
M 9.421875 75.984375 
L 18.40625 75.984375 
L 18.40625 64.59375 
L 9.421875 64.59375 
z
" id="DejaVuSans-105"/>
     <path d="M 30.609375 48.390625 
Q 23.390625 48.390625 19.1875 42.75 
Q 14.984375 37.109375 14.984375 27.296875 
Q 14.984375 17.484375 19.15625 11.84375 
Q 23.34375 6.203125 30.609375 6.203125 
Q 37.796875 6.203125 41.984375 11.859375 
Q 46.1875 17.53125 46.1875 27.296875 
Q 46.1875 37.015625 41.984375 42.703125 
Q 37.796875 48.390625 30.609375 48.390625 
z
M 30.609375 56 
Q 42.328125 56 49.015625 48.375 
Q 55.71875 40.765625 55.71875 27.296875 
Q 55.71875 13.875 49.015625 6.21875 
Q 42.328125 -1.421875 30.609375 -1.421875 
Q 18.84375 -1.421875 12.171875 6.21875 
Q 5.515625 13.875 5.515625 27.296875 
Q 5.515625 40.765625 12.171875 48.375 
Q 18.84375 56 30.609375 56 
z
" id="DejaVuSans-111"/>
     <path d="M 25.390625 72.90625 
L 33.6875 72.90625 
L 8.296875 -9.28125 
L 0 -9.28125 
z
" id="DejaVuSans-47"/>
     <path d="M 19.671875 64.796875 
L 19.671875 8.109375 
L 31.59375 8.109375 
Q 46.6875 8.109375 53.6875 14.9375 
Q 60.6875 21.78125 60.6875 36.53125 
Q 60.6875 51.171875 53.6875 57.984375 
Q 46.6875 64.796875 31.59375 64.796875 
z
M 9.8125 72.90625 
L 30.078125 72.90625 
Q 51.265625 72.90625 61.171875 64.09375 
Q 71.09375 55.28125 71.09375 36.53125 
Q 71.09375 17.671875 61.125 8.828125 
Q 51.171875 0 30.078125 0 
L 9.8125 0 
z
" id="DejaVuSans-68"/>
     <path d="M 41.109375 46.296875 
Q 39.59375 47.171875 37.8125 47.578125 
Q 36.03125 48 33.890625 48 
Q 26.265625 48 22.1875 43.046875 
Q 18.109375 38.09375 18.109375 28.8125 
L 18.109375 0 
L 9.078125 0 
L 9.078125 54.6875 
L 18.109375 54.6875 
L 18.109375 46.1875 
Q 20.953125 51.171875 25.484375 53.578125 
Q 30.03125 56 36.53125 56 
Q 37.453125 56 38.578125 55.875 
Q 39.703125 55.765625 41.0625 55.515625 
z
" id="DejaVuSans-114"/>
     <path d="M 48.6875 27.296875 
Q 48.6875 37.203125 44.609375 42.84375 
Q 40.53125 48.484375 33.40625 48.484375 
Q 26.265625 48.484375 22.1875 42.84375 
Q 18.109375 37.203125 18.109375 27.296875 
Q 18.109375 17.390625 22.1875 11.75 
Q 26.265625 6.109375 33.40625 6.109375 
Q 40.53125 6.109375 44.609375 11.75 
Q 48.6875 17.390625 48.6875 27.296875 
z
M 18.109375 46.390625 
Q 20.953125 51.265625 25.265625 53.625 
Q 29.59375 56 35.59375 56 
Q 45.5625 56 51.78125 48.09375 
Q 58.015625 40.1875 58.015625 27.296875 
Q 58.015625 14.40625 51.78125 6.484375 
Q 45.5625 -1.421875 35.59375 -1.421875 
Q 29.59375 -1.421875 25.265625 0.953125 
Q 20.953125 3.328125 18.109375 8.203125 
L 18.109375 0 
L 9.078125 0 
L 9.078125 75.984375 
L 18.109375 75.984375 
z
" id="DejaVuSans-98"/>
     <path id="DejaVuSans-32"/>
     <path d="M 9.8125 72.90625 
L 19.671875 72.90625 
L 19.671875 0 
L 9.8125 0 
z
" id="DejaVuSans-73"/>
     <path d="M 54.890625 54.6875 
L 35.109375 28.078125 
L 55.90625 0 
L 45.3125 0 
L 29.390625 21.484375 
L 13.484375 0 
L 2.875 0 
L 24.125 28.609375 
L 4.6875 54.6875 
L 15.28125 54.6875 
L 29.78125 35.203125 
L 44.28125 54.6875 
z
" id="DejaVuSans-120"/>
     <path d="M 31 75.875 
Q 24.46875 64.65625 21.28125 53.65625 
Q 18.109375 42.671875 18.109375 31.390625 
Q 18.109375 20.125 21.3125 9.0625 
Q 24.515625 -2 31 -13.1875 
L 23.1875 -13.1875 
Q 15.875 -1.703125 12.234375 9.375 
Q 8.59375 20.453125 8.59375 31.390625 
Q 8.59375 42.28125 12.203125 53.3125 
Q 15.828125 64.359375 23.1875 75.875 
z
" id="DejaVuSans-40"/>
     <path d="M 8.015625 75.875 
L 15.828125 75.875 
Q 23.140625 64.359375 26.78125 53.3125 
Q 30.421875 42.28125 30.421875 31.390625 
Q 30.421875 20.453125 26.78125 9.375 
Q 23.140625 -1.703125 15.828125 -13.1875 
L 8.015625 -13.1875 
Q 14.5 -2 17.703125 9.0625 
Q 20.90625 20.125 20.90625 31.390625 
Q 20.90625 42.671875 17.703125 53.65625 
Q 14.5 64.65625 8.015625 75.875 
z
" id="DejaVuSans-41"/>
     <path d="M 53.515625 70.515625 
L 53.515625 60.890625 
Q 47.90625 63.578125 42.921875 64.890625 
Q 37.9375 66.21875 33.296875 66.21875 
Q 25.25 66.21875 20.875 63.09375 
Q 16.5 59.96875 16.5 54.203125 
Q 16.5 49.359375 19.40625 46.890625 
Q 22.3125 44.4375 30.421875 42.921875 
L 36.375 41.703125 
Q 47.40625 39.59375 52.65625 34.296875 
Q 57.90625 29 57.90625 20.125 
Q 57.90625 9.515625 50.796875 4.046875 
Q 43.703125 -1.421875 29.984375 -1.421875 
Q 24.8125 -1.421875 18.96875 -0.25 
Q 13.140625 0.921875 6.890625 3.21875 
L 6.890625 13.375 
Q 12.890625 10.015625 18.65625 8.296875 
Q 24.421875 6.59375 29.984375 6.59375 
Q 38.421875 6.59375 43.015625 9.90625 
Q 47.609375 13.234375 47.609375 19.390625 
Q 47.609375 24.75 44.3125 27.78125 
Q 41.015625 30.8125 33.5 32.328125 
L 27.484375 33.5 
Q 16.453125 35.6875 11.515625 40.375 
Q 6.59375 45.0625 6.59375 53.421875 
Q 6.59375 63.09375 13.40625 68.65625 
Q 20.21875 74.21875 32.171875 74.21875 
Q 37.3125 74.21875 42.625 73.28125 
Q 47.953125 72.359375 53.515625 70.515625 
z
" id="DejaVuSans-83"/>
    </defs>
    <g transform="translate(596.25375 80.4)scale(0.12 -0.12)">
     <use xlink:href="#DejaVuSans-65"/>
     <use x="66.658203" xlink:href="#DejaVuSans-99"/>
     <use x="121.638672" xlink:href="#DejaVuSans-99"/>
     <use x="176.619141" xlink:href="#DejaVuSans-117"/>
     <use x="239.998047" xlink:href="#DejaVuSans-109"/>
     <use x="337.410156" xlink:href="#DejaVuSans-117"/>
     <use x="400.789062" xlink:href="#DejaVuSans-108"/>
     <use x="428.572266" xlink:href="#DejaVuSans-97"/>
     <use x="489.851562" xlink:href="#DejaVuSans-116"/>
     <use x="529.060547" xlink:href="#DejaVuSans-105"/>
     <use x="556.84375" xlink:href="#DejaVuSans-111"/>
     <use x="618.025391" xlink:href="#DejaVuSans-110"/>
     <use x="681.404297" xlink:href="#DejaVuSans-47"/>
     <use x="715.095703" xlink:href="#DejaVuSans-68"/>
     <use x="792.097656" xlink:href="#DejaVuSans-105"/>
     <use x="819.880859" xlink:href="#DejaVuSans-115"/>
     <use x="871.980469" xlink:href="#DejaVuSans-116"/>
     <use x="911.189453" xlink:href="#DejaVuSans-114"/>
     <use x="952.302734" xlink:href="#DejaVuSans-105"/>
     <use x="980.085938" xlink:href="#DejaVuSans-98"/>
     <use x="1043.5625" xlink:href="#DejaVuSans-117"/>
     <use x="1106.941406" xlink:href="#DejaVuSans-116"/>
     <use x="1146.150391" xlink:href="#DejaVuSans-105"/>
     <use x="1173.933594" xlink:href="#DejaVuSans-111"/>
     <use x="1235.115234" xlink:href="#DejaVuSans-110"/>
     <use x="1298.494141" xlink:href="#DejaVuSans-32"/>
     <use x="1330.28125" xlink:href="#DejaVuSans-73"/>
     <use x="1359.773438" xlink:href="#DejaVuSans-110"/>
     <use x="1423.152344" xlink:href="#DejaVuSans-100"/>
     <use x="1486.628906" xlink:href="#DejaVuSans-101"/>
     <use x="1546.402344" xlink:href="#DejaVuSans-120"/>
     <use x="1605.582031" xlink:href="#DejaVuSans-32"/>
     <use x="1637.369141" xlink:href="#DejaVuSans-40"/>
     <use x="1676.382812" xlink:href="#DejaVuSans-65"/>
     <use x="1744.791016" xlink:href="#DejaVuSans-68"/>
     <use x="1821.792969" xlink:href="#DejaVuSans-73"/>
     <use x="1851.285156" xlink:href="#DejaVuSans-41"/>
     <use x="1890.298828" xlink:href="#DejaVuSans-32"/>
     <use x="1922.085938" xlink:href="#DejaVuSans-83"/>
     <use x="1985.5625" xlink:href="#DejaVuSans-112"/>
     <use x="2049.039062" xlink:href="#DejaVuSans-101"/>
     <use x="2110.5625" xlink:href="#DejaVuSans-101"/>
     <use x="2172.085938" xlink:href="#DejaVuSans-100"/>
     <use x="2235.5625" xlink:href="#DejaVuSans-117"/>
     <use x="2298.941406" xlink:href="#DejaVuSans-112"/>
    </g>
   </g>
   <g id="legend_1">
    <g id="patch_7">
     <path d="M 1185.373437 123.75625 
L 1289 123.75625 
Q 1291 123.75625 1291 121.75625 
L 1291 93.4 
Q 1291 91.4 1289 91.4 
L 1185.373437 91.4 
Q 1183.373437 91.4 1183.373437 93.4 
L 1183.373437 121.75625 
Q 1183.373437 123.75625 1185.373437 123.75625 
z
" style="fill:#ffffff;opacity:0.8;stroke:#cccccc;stroke-linejoin:miter;"/>
    </g>
    <g id="line2d_19">
     <path d="M 1187.373437 99.498437 
L 1207.373437 99.498437 
" style="fill:none;stroke:#1f77b4;stroke-linecap:square;stroke-width:1.5;"/>
    </g>
    <g id="line2d_20"/>
    <g id="text_20">
     <!-- numpy.float32 -->
     <defs>
      <path d="M 32.171875 -5.078125 
Q 28.375 -14.84375 24.75 -17.8125 
Q 21.140625 -20.796875 15.09375 -20.796875 
L 7.90625 -20.796875 
L 7.90625 -13.28125 
L 13.1875 -13.28125 
Q 16.890625 -13.28125 18.9375 -11.515625 
Q 21 -9.765625 23.484375 -3.21875 
L 25.09375 0.875 
L 2.984375 54.6875 
L 12.5 54.6875 
L 29.59375 11.921875 
L 46.6875 54.6875 
L 56.203125 54.6875 
z
" id="DejaVuSans-121"/>
      <path d="M 37.109375 75.984375 
L 37.109375 68.5 
L 28.515625 68.5 
Q 23.6875 68.5 21.796875 66.546875 
Q 19.921875 64.59375 19.921875 59.515625 
L 19.921875 54.6875 
L 34.71875 54.6875 
L 34.71875 47.703125 
L 19.921875 47.703125 
L 19.921875 0 
L 10.890625 0 
L 10.890625 47.703125 
L 2.296875 47.703125 
L 2.296875 54.6875 
L 10.890625 54.6875 
L 10.890625 58.5 
Q 10.890625 67.625 15.140625 71.796875 
Q 19.390625 75.984375 28.609375 75.984375 
z
" id="DejaVuSans-102"/>
     </defs>
     <g transform="translate(1215.373437 102.998437)scale(0.1 -0.1)">
      <use xlink:href="#DejaVuSans-110"/>
      <use x="63.378906" xlink:href="#DejaVuSans-117"/>
      <use x="126.757812" xlink:href="#DejaVuSans-109"/>
      <use x="224.169922" xlink:href="#DejaVuSans-112"/>
      <use x="287.646484" xlink:href="#DejaVuSans-121"/>
      <use x="332.576172" xlink:href="#DejaVuSans-46"/>
      <use x="364.363281" xlink:href="#DejaVuSans-102"/>
      <use x="399.568359" xlink:href="#DejaVuSans-108"/>
      <use x="427.351562" xlink:href="#DejaVuSans-111"/>
      <use x="488.533203" xlink:href="#DejaVuSans-97"/>
      <use x="549.8125" xlink:href="#DejaVuSans-116"/>
      <use x="589.021484" xlink:href="#DejaVuSans-51"/>
      <use x="652.644531" xlink:href="#DejaVuSans-50"/>
     </g>
    </g>
    <g id="line2d_21">
     <path d="M 1187.373437 114.176562 
L 1207.373437 114.176562 
" style="fill:none;stroke:#ff7f0e;stroke-linecap:square;stroke-width:1.5;"/>
    </g>
    <g id="line2d_22"/>
    <g id="text_21">
     <!-- numpy.float64 -->
     <g transform="translate(1215.373437 117.676562)scale(0.1 -0.1)">
      <use xlink:href="#DejaVuSans-110"/>
      <use x="63.378906" xlink:href="#DejaVuSans-117"/>
      <use x="126.757812" xlink:href="#DejaVuSans-109"/>
      <use x="224.169922" xlink:href="#DejaVuSans-112"/>
      <use x="287.646484" xlink:href="#DejaVuSans-121"/>
      <use x="332.576172" xlink:href="#DejaVuSans-46"/>
      <use x="364.363281" xlink:href="#DejaVuSans-102"/>
      <use x="399.568359" xlink:href="#DejaVuSans-108"/>
      <use x="427.351562" xlink:href="#DejaVuSans-111"/>
      <use x="488.533203" xlink:href="#DejaVuSans-97"/>
      <use x="549.8125" xlink:href="#DejaVuSans-116"/>
      <use x="589.021484" xlink:href="#DejaVuSans-54"/>
      <use x="652.644531" xlink:href="#DejaVuSans-52"/>
     </g>
    </g>
   </g>
  </g>
 </g>
 <defs>
  <clipPath id="p6961cc775c">
   <rect height="554.4" width="1116" x="180" y="86.4"/>
  </clipPath>
 </defs>
</svg>
