<?xml version="1.0" encoding="utf-8" standalone="no"?>
<!DOCTYPE svg PUBLIC "-//W3C//DTD SVG 1.1//EN"
  "http://www.w3.org/Graphics/SVG/1.1/DTD/svg11.dtd">
<!-- Created with matplotlib (https://matplotlib.org/) -->
<svg height="720pt" version="1.1" viewBox="0 0 1440 720" width="1440pt" xmlns="http://www.w3.org/2000/svg" xmlns:xlink="http://www.w3.org/1999/xlink">
 <defs>
  <style type="text/css">
*{stroke-linecap:butt;stroke-linejoin:round;}
  </style>
 </defs>
 <g id="figure_1">
  <g id="patch_1">
   <path d="M 0 720 
L 1440 720 
L 1440 0 
L 0 0 
z
" style="fill:#ffffff;"/>
  </g>
  <g id="axes_1">
   <g id="patch_2">
    <path d="M 180 640.8 
L 1296 640.8 
L 1296 86.4 
L 180 86.4 
z
" style="fill:#ffffff;"/>
   </g>
   <g id="matplotlib.axis_1">
    <g id="xtick_1">
     <g id="line2d_1">
      <defs>
       <path d="M 0 0 
L 0 3.5 
" id="mb580a540e6" style="stroke:#000000;stroke-width:0.8;"/>
      </defs>
      <g>
       <use style="stroke:#000000;stroke-width:0.8;" x="333.310231" xlink:href="#mb580a540e6" y="640.8"/>
      </g>
     </g>
     <g id="text_1">
      <!-- 100.0 -->
      <defs>
       <path d="M 12.40625 8.296875 
L 28.515625 8.296875 
L 28.515625 63.921875 
L 10.984375 60.40625 
L 10.984375 69.390625 
L 28.421875 72.90625 
L 38.28125 72.90625 
L 38.28125 8.296875 
L 54.390625 8.296875 
L 54.390625 0 
L 12.40625 0 
z
" id="DejaVuSans-49"/>
       <path d="M 31.78125 66.40625 
Q 24.171875 66.40625 20.328125 58.90625 
Q 16.5 51.421875 16.5 36.375 
Q 16.5 21.390625 20.328125 13.890625 
Q 24.171875 6.390625 31.78125 6.390625 
Q 39.453125 6.390625 43.28125 13.890625 
Q 47.125 21.390625 47.125 36.375 
Q 47.125 51.421875 43.28125 58.90625 
Q 39.453125 66.40625 31.78125 66.40625 
z
M 31.78125 74.21875 
Q 44.046875 74.21875 50.515625 64.515625 
Q 56.984375 54.828125 56.984375 36.375 
Q 56.984375 17.96875 50.515625 8.265625 
Q 44.046875 -1.421875 31.78125 -1.421875 
Q 19.53125 -1.421875 13.0625 8.265625 
Q 6.59375 17.96875 6.59375 36.375 
Q 6.59375 54.828125 13.0625 64.515625 
Q 19.53125 74.21875 31.78125 74.21875 
z
" id="DejaVuSans-48"/>
       <path d="M 10.6875 12.40625 
L 21 12.40625 
L 21 0 
L 10.6875 0 
z
" id="DejaVuSans-46"/>
      </defs>
      <g transform="translate(318.996168 655.398438)scale(0.1 -0.1)">
       <use xlink:href="#DejaVuSans-49"/>
       <use x="63.623047" xlink:href="#DejaVuSans-48"/>
       <use x="127.246094" xlink:href="#DejaVuSans-48"/>
       <use x="190.869141" xlink:href="#DejaVuSans-46"/>
       <use x="222.65625" xlink:href="#DejaVuSans-48"/>
      </g>
     </g>
    </g>
    <g id="xtick_2">
     <g id="line2d_2">
      <g>
       <use style="stroke:#000000;stroke-width:0.8;" x="435.893189" xlink:href="#mb580a540e6" y="640.8"/>
      </g>
     </g>
     <g id="text_2">
      <!-- 200.0 -->
      <defs>
       <path d="M 19.1875 8.296875 
L 53.609375 8.296875 
L 53.609375 0 
L 7.328125 0 
L 7.328125 8.296875 
Q 12.9375 14.109375 22.625 23.890625 
Q 32.328125 33.6875 34.8125 36.53125 
Q 39.546875 41.84375 41.421875 45.53125 
Q 43.3125 49.21875 43.3125 52.78125 
Q 43.3125 58.59375 39.234375 62.25 
Q 35.15625 65.921875 28.609375 65.921875 
Q 23.96875 65.921875 18.8125 64.3125 
Q 13.671875 62.703125 7.8125 59.421875 
L 7.8125 69.390625 
Q 13.765625 71.78125 18.9375 73 
Q 24.125 74.21875 28.421875 74.21875 
Q 39.75 74.21875 46.484375 68.546875 
Q 53.21875 62.890625 53.21875 53.421875 
Q 53.21875 48.921875 51.53125 44.890625 
Q 49.859375 40.875 45.40625 35.40625 
Q 44.1875 33.984375 37.640625 27.21875 
Q 31.109375 20.453125 19.1875 8.296875 
z
" id="DejaVuSans-50"/>
      </defs>
      <g transform="translate(421.579126 655.398438)scale(0.1 -0.1)">
       <use xlink:href="#DejaVuSans-50"/>
       <use x="63.623047" xlink:href="#DejaVuSans-48"/>
       <use x="127.246094" xlink:href="#DejaVuSans-48"/>
       <use x="190.869141" xlink:href="#DejaVuSans-46"/>
       <use x="222.65625" xlink:href="#DejaVuSans-48"/>
      </g>
     </g>
    </g>
    <g id="xtick_3">
     <g id="line2d_3">
      <g>
       <use style="stroke:#000000;stroke-width:0.8;" x="538.476147" xlink:href="#mb580a540e6" y="640.8"/>
      </g>
     </g>
     <g id="text_3">
      <!-- 300.0 -->
      <defs>
       <path d="M 40.578125 39.3125 
Q 47.65625 37.796875 51.625 33 
Q 55.609375 28.21875 55.609375 21.1875 
Q 55.609375 10.40625 48.1875 4.484375 
Q 40.765625 -1.421875 27.09375 -1.421875 
Q 22.515625 -1.421875 17.65625 -0.515625 
Q 12.796875 0.390625 7.625 2.203125 
L 7.625 11.71875 
Q 11.71875 9.328125 16.59375 8.109375 
Q 21.484375 6.890625 26.8125 6.890625 
Q 36.078125 6.890625 40.9375 10.546875 
Q 45.796875 14.203125 45.796875 21.1875 
Q 45.796875 27.640625 41.28125 31.265625 
Q 36.765625 34.90625 28.71875 34.90625 
L 20.21875 34.90625 
L 20.21875 43.015625 
L 29.109375 43.015625 
Q 36.375 43.015625 40.234375 45.921875 
Q 44.09375 48.828125 44.09375 54.296875 
Q 44.09375 59.90625 40.109375 62.90625 
Q 36.140625 65.921875 28.71875 65.921875 
Q 24.65625 65.921875 20.015625 65.03125 
Q 15.375 64.15625 9.8125 62.3125 
L 9.8125 71.09375 
Q 15.4375 72.65625 20.34375 73.4375 
Q 25.25 74.21875 29.59375 74.21875 
Q 40.828125 74.21875 47.359375 69.109375 
Q 53.90625 64.015625 53.90625 55.328125 
Q 53.90625 49.265625 50.4375 45.09375 
Q 46.96875 40.921875 40.578125 39.3125 
z
" id="DejaVuSans-51"/>
      </defs>
      <g transform="translate(524.162084 655.398438)scale(0.1 -0.1)">
       <use xlink:href="#DejaVuSans-51"/>
       <use x="63.623047" xlink:href="#DejaVuSans-48"/>
       <use x="127.246094" xlink:href="#DejaVuSans-48"/>
       <use x="190.869141" xlink:href="#DejaVuSans-46"/>
       <use x="222.65625" xlink:href="#DejaVuSans-48"/>
      </g>
     </g>
    </g>
    <g id="xtick_4">
     <g id="line2d_4">
      <g>
       <use style="stroke:#000000;stroke-width:0.8;" x="641.059105" xlink:href="#mb580a540e6" y="640.8"/>
      </g>
     </g>
     <g id="text_4">
      <!-- 400.0 -->
      <defs>
       <path d="M 37.796875 64.3125 
L 12.890625 25.390625 
L 37.796875 25.390625 
z
M 35.203125 72.90625 
L 47.609375 72.90625 
L 47.609375 25.390625 
L 58.015625 25.390625 
L 58.015625 17.1875 
L 47.609375 17.1875 
L 47.609375 0 
L 37.796875 0 
L 37.796875 17.1875 
L 4.890625 17.1875 
L 4.890625 26.703125 
z
" id="DejaVuSans-52"/>
      </defs>
      <g transform="translate(626.745042 655.398438)scale(0.1 -0.1)">
       <use xlink:href="#DejaVuSans-52"/>
       <use x="63.623047" xlink:href="#DejaVuSans-48"/>
       <use x="127.246094" xlink:href="#DejaVuSans-48"/>
       <use x="190.869141" xlink:href="#DejaVuSans-46"/>
       <use x="222.65625" xlink:href="#DejaVuSans-48"/>
      </g>
     </g>
    </g>
    <g id="xtick_5">
     <g id="line2d_5">
      <g>
       <use style="stroke:#000000;stroke-width:0.8;" x="743.642063" xlink:href="#mb580a540e6" y="640.8"/>
      </g>
     </g>
     <g id="text_5">
      <!-- 500.0 -->
      <defs>
       <path d="M 10.796875 72.90625 
L 49.515625 72.90625 
L 49.515625 64.59375 
L 19.828125 64.59375 
L 19.828125 46.734375 
Q 21.96875 47.46875 24.109375 47.828125 
Q 26.265625 48.1875 28.421875 48.1875 
Q 40.625 48.1875 47.75 41.5 
Q 54.890625 34.8125 54.890625 23.390625 
Q 54.890625 11.625 47.5625 5.09375 
Q 40.234375 -1.421875 26.90625 -1.421875 
Q 22.3125 -1.421875 17.546875 -0.640625 
Q 12.796875 0.140625 7.71875 1.703125 
L 7.71875 11.625 
Q 12.109375 9.234375 16.796875 8.0625 
Q 21.484375 6.890625 26.703125 6.890625 
Q 35.15625 6.890625 40.078125 11.328125 
Q 45.015625 15.765625 45.015625 23.390625 
Q 45.015625 31 40.078125 35.4375 
Q 35.15625 39.890625 26.703125 39.890625 
Q 22.75 39.890625 18.8125 39.015625 
Q 14.890625 38.140625 10.796875 36.28125 
z
" id="DejaVuSans-53"/>
      </defs>
      <g transform="translate(729.328 655.398438)scale(0.1 -0.1)">
       <use xlink:href="#DejaVuSans-53"/>
       <use x="63.623047" xlink:href="#DejaVuSans-48"/>
       <use x="127.246094" xlink:href="#DejaVuSans-48"/>
       <use x="190.869141" xlink:href="#DejaVuSans-46"/>
       <use x="222.65625" xlink:href="#DejaVuSans-48"/>
      </g>
     </g>
    </g>
    <g id="xtick_6">
     <g id="line2d_6">
      <g>
       <use style="stroke:#000000;stroke-width:0.8;" x="846.225021" xlink:href="#mb580a540e6" y="640.8"/>
      </g>
     </g>
     <g id="text_6">
      <!-- 600.0 -->
      <defs>
       <path d="M 33.015625 40.375 
Q 26.375 40.375 22.484375 35.828125 
Q 18.609375 31.296875 18.609375 23.390625 
Q 18.609375 15.53125 22.484375 10.953125 
Q 26.375 6.390625 33.015625 6.390625 
Q 39.65625 6.390625 43.53125 10.953125 
Q 47.40625 15.53125 47.40625 23.390625 
Q 47.40625 31.296875 43.53125 35.828125 
Q 39.65625 40.375 33.015625 40.375 
z
M 52.59375 71.296875 
L 52.59375 62.3125 
Q 48.875 64.0625 45.09375 64.984375 
Q 41.3125 65.921875 37.59375 65.921875 
Q 27.828125 65.921875 22.671875 59.328125 
Q 17.53125 52.734375 16.796875 39.40625 
Q 19.671875 43.65625 24.015625 45.921875 
Q 28.375 48.1875 33.59375 48.1875 
Q 44.578125 48.1875 50.953125 41.515625 
Q 57.328125 34.859375 57.328125 23.390625 
Q 57.328125 12.15625 50.6875 5.359375 
Q 44.046875 -1.421875 33.015625 -1.421875 
Q 20.359375 -1.421875 13.671875 8.265625 
Q 6.984375 17.96875 6.984375 36.375 
Q 6.984375 53.65625 15.1875 63.9375 
Q 23.390625 74.21875 37.203125 74.21875 
Q 40.921875 74.21875 44.703125 73.484375 
Q 48.484375 72.75 52.59375 71.296875 
z
" id="DejaVuSans-54"/>
      </defs>
      <g transform="translate(831.910958 655.398438)scale(0.1 -0.1)">
       <use xlink:href="#DejaVuSans-54"/>
       <use x="63.623047" xlink:href="#DejaVuSans-48"/>
       <use x="127.246094" xlink:href="#DejaVuSans-48"/>
       <use x="190.869141" xlink:href="#DejaVuSans-46"/>
       <use x="222.65625" xlink:href="#DejaVuSans-48"/>
      </g>
     </g>
    </g>
    <g id="xtick_7">
     <g id="line2d_7">
      <g>
       <use style="stroke:#000000;stroke-width:0.8;" x="948.807979" xlink:href="#mb580a540e6" y="640.8"/>
      </g>
     </g>
     <g id="text_7">
      <!-- 700.0 -->
      <defs>
       <path d="M 8.203125 72.90625 
L 55.078125 72.90625 
L 55.078125 68.703125 
L 28.609375 0 
L 18.3125 0 
L 43.21875 64.59375 
L 8.203125 64.59375 
z
" id="DejaVuSans-55"/>
      </defs>
      <g transform="translate(934.493916 655.398438)scale(0.1 -0.1)">
       <use xlink:href="#DejaVuSans-55"/>
       <use x="63.623047" xlink:href="#DejaVuSans-48"/>
       <use x="127.246094" xlink:href="#DejaVuSans-48"/>
       <use x="190.869141" xlink:href="#DejaVuSans-46"/>
       <use x="222.65625" xlink:href="#DejaVuSans-48"/>
      </g>
     </g>
    </g>
    <g id="xtick_8">
     <g id="line2d_8">
      <g>
       <use style="stroke:#000000;stroke-width:0.8;" x="1051.390937" xlink:href="#mb580a540e6" y="640.8"/>
      </g>
     </g>
     <g id="text_8">
      <!-- 800.0 -->
      <defs>
       <path d="M 31.78125 34.625 
Q 24.75 34.625 20.71875 30.859375 
Q 16.703125 27.09375 16.703125 20.515625 
Q 16.703125 13.921875 20.71875 10.15625 
Q 24.75 6.390625 31.78125 6.390625 
Q 38.8125 6.390625 42.859375 10.171875 
Q 46.921875 13.96875 46.921875 20.515625 
Q 46.921875 27.09375 42.890625 30.859375 
Q 38.875 34.625 31.78125 34.625 
z
M 21.921875 38.8125 
Q 15.578125 40.375 12.03125 44.71875 
Q 8.5 49.078125 8.5 55.328125 
Q 8.5 64.0625 14.71875 69.140625 
Q 20.953125 74.21875 31.78125 74.21875 
Q 42.671875 74.21875 48.875 69.140625 
Q 55.078125 64.0625 55.078125 55.328125 
Q 55.078125 49.078125 51.53125 44.71875 
Q 48 40.375 41.703125 38.8125 
Q 48.828125 37.15625 52.796875 32.3125 
Q 56.78125 27.484375 56.78125 20.515625 
Q 56.78125 9.90625 50.3125 4.234375 
Q 43.84375 -1.421875 31.78125 -1.421875 
Q 19.734375 -1.421875 13.25 4.234375 
Q 6.78125 9.90625 6.78125 20.515625 
Q 6.78125 27.484375 10.78125 32.3125 
Q 14.796875 37.15625 21.921875 38.8125 
z
M 18.3125 54.390625 
Q 18.3125 48.734375 21.84375 45.5625 
Q 25.390625 42.390625 31.78125 42.390625 
Q 38.140625 42.390625 41.71875 45.5625 
Q 45.3125 48.734375 45.3125 54.390625 
Q 45.3125 60.0625 41.71875 63.234375 
Q 38.140625 66.40625 31.78125 66.40625 
Q 25.390625 66.40625 21.84375 63.234375 
Q 18.3125 60.0625 18.3125 54.390625 
z
" id="DejaVuSans-56"/>
      </defs>
      <g transform="translate(1037.076874 655.398438)scale(0.1 -0.1)">
       <use xlink:href="#DejaVuSans-56"/>
       <use x="63.623047" xlink:href="#DejaVuSans-48"/>
       <use x="127.246094" xlink:href="#DejaVuSans-48"/>
       <use x="190.869141" xlink:href="#DejaVuSans-46"/>
       <use x="222.65625" xlink:href="#DejaVuSans-48"/>
      </g>
     </g>
    </g>
    <g id="xtick_9">
     <g id="line2d_9">
      <g>
       <use style="stroke:#000000;stroke-width:0.8;" x="1153.973895" xlink:href="#mb580a540e6" y="640.8"/>
      </g>
     </g>
     <g id="text_9">
      <!-- 900.0 -->
      <defs>
       <path d="M 10.984375 1.515625 
L 10.984375 10.5 
Q 14.703125 8.734375 18.5 7.8125 
Q 22.3125 6.890625 25.984375 6.890625 
Q 35.75 6.890625 40.890625 13.453125 
Q 46.046875 20.015625 46.78125 33.40625 
Q 43.953125 29.203125 39.59375 26.953125 
Q 35.25 24.703125 29.984375 24.703125 
Q 19.046875 24.703125 12.671875 31.3125 
Q 6.296875 37.9375 6.296875 49.421875 
Q 6.296875 60.640625 12.9375 67.421875 
Q 19.578125 74.21875 30.609375 74.21875 
Q 43.265625 74.21875 49.921875 64.515625 
Q 56.59375 54.828125 56.59375 36.375 
Q 56.59375 19.140625 48.40625 8.859375 
Q 40.234375 -1.421875 26.421875 -1.421875 
Q 22.703125 -1.421875 18.890625 -0.6875 
Q 15.09375 0.046875 10.984375 1.515625 
z
M 30.609375 32.421875 
Q 37.25 32.421875 41.125 36.953125 
Q 45.015625 41.5 45.015625 49.421875 
Q 45.015625 57.28125 41.125 61.84375 
Q 37.25 66.40625 30.609375 66.40625 
Q 23.96875 66.40625 20.09375 61.84375 
Q 16.21875 57.28125 16.21875 49.421875 
Q 16.21875 41.5 20.09375 36.953125 
Q 23.96875 32.421875 30.609375 32.421875 
z
" id="DejaVuSans-57"/>
      </defs>
      <g transform="translate(1139.659832 655.398438)scale(0.1 -0.1)">
       <use xlink:href="#DejaVuSans-57"/>
       <use x="63.623047" xlink:href="#DejaVuSans-48"/>
       <use x="127.246094" xlink:href="#DejaVuSans-48"/>
       <use x="190.869141" xlink:href="#DejaVuSans-46"/>
       <use x="222.65625" xlink:href="#DejaVuSans-48"/>
      </g>
     </g>
    </g>
    <g id="xtick_10">
     <g id="line2d_10">
      <g>
       <use style="stroke:#000000;stroke-width:0.8;" x="1256.556853" xlink:href="#mb580a540e6" y="640.8"/>
      </g>
     </g>
     <g id="text_10">
      <!-- 1000.0 -->
      <g transform="translate(1239.06154 655.398438)scale(0.1 -0.1)">
       <use xlink:href="#DejaVuSans-49"/>
       <use x="63.623047" xlink:href="#DejaVuSans-48"/>
       <use x="127.246094" xlink:href="#DejaVuSans-48"/>
       <use x="190.869141" xlink:href="#DejaVuSans-48"/>
       <use x="254.492188" xlink:href="#DejaVuSans-46"/>
       <use x="286.279297" xlink:href="#DejaVuSans-48"/>
      </g>
     </g>
    </g>
    <g id="text_11">
     <!-- n -->
     <defs>
      <path d="M 54.890625 33.015625 
L 54.890625 0 
L 45.90625 0 
L 45.90625 32.71875 
Q 45.90625 40.484375 42.875 44.328125 
Q 39.84375 48.1875 33.796875 48.1875 
Q 26.515625 48.1875 22.3125 43.546875 
Q 18.109375 38.921875 18.109375 30.90625 
L 18.109375 0 
L 9.078125 0 
L 9.078125 54.6875 
L 18.109375 54.6875 
L 18.109375 46.1875 
Q 21.34375 51.125 25.703125 53.5625 
Q 30.078125 56 35.796875 56 
Q 45.21875 56 50.046875 50.171875 
Q 54.890625 44.34375 54.890625 33.015625 
z
" id="DejaVuSans-110"/>
     </defs>
     <g transform="translate(734.83125 669.076563)scale(0.1 -0.1)">
      <use xlink:href="#DejaVuSans-110"/>
     </g>
    </g>
   </g>
   <g id="matplotlib.axis_2">
    <g id="ytick_1">
     <g id="line2d_11">
      <defs>
       <path d="M 0 0 
L -3.5 0 
" id="m4513eeccc7" style="stroke:#000000;stroke-width:0.8;"/>
      </defs>
      <g>
       <use style="stroke:#000000;stroke-width:0.8;" x="180" xlink:href="#m4513eeccc7" y="567.262286"/>
      </g>
     </g>
     <g id="text_12">
      <!-- 50 -->
      <g transform="translate(160.275 571.061505)scale(0.1 -0.1)">
       <use xlink:href="#DejaVuSans-53"/>
       <use x="63.623047" xlink:href="#DejaVuSans-48"/>
      </g>
     </g>
    </g>
    <g id="ytick_2">
     <g id="line2d_12">
      <g>
       <use style="stroke:#000000;stroke-width:0.8;" x="180" xlink:href="#m4513eeccc7" y="490.93631"/>
      </g>
     </g>
     <g id="text_13">
      <!-- 100 -->
      <g transform="translate(153.9125 494.735529)scale(0.1 -0.1)">
       <use xlink:href="#DejaVuSans-49"/>
       <use x="63.623047" xlink:href="#DejaVuSans-48"/>
       <use x="127.246094" xlink:href="#DejaVuSans-48"/>
      </g>
     </g>
    </g>
    <g id="ytick_3">
     <g id="line2d_13">
      <g>
       <use style="stroke:#000000;stroke-width:0.8;" x="180" xlink:href="#m4513eeccc7" y="414.610334"/>
      </g>
     </g>
     <g id="text_14">
      <!-- 150 -->
      <g transform="translate(153.9125 418.409553)scale(0.1 -0.1)">
       <use xlink:href="#DejaVuSans-49"/>
       <use x="63.623047" xlink:href="#DejaVuSans-53"/>
       <use x="127.246094" xlink:href="#DejaVuSans-48"/>
      </g>
     </g>
    </g>
    <g id="ytick_4">
     <g id="line2d_14">
      <g>
       <use style="stroke:#000000;stroke-width:0.8;" x="180" xlink:href="#m4513eeccc7" y="338.284358"/>
      </g>
     </g>
     <g id="text_15">
      <!-- 200 -->
      <g transform="translate(153.9125 342.083577)scale(0.1 -0.1)">
       <use xlink:href="#DejaVuSans-50"/>
       <use x="63.623047" xlink:href="#DejaVuSans-48"/>
       <use x="127.246094" xlink:href="#DejaVuSans-48"/>
      </g>
     </g>
    </g>
    <g id="ytick_5">
     <g id="line2d_15">
      <g>
       <use style="stroke:#000000;stroke-width:0.8;" x="180" xlink:href="#m4513eeccc7" y="261.958382"/>
      </g>
     </g>
     <g id="text_16">
      <!-- 250 -->
      <g transform="translate(153.9125 265.757601)scale(0.1 -0.1)">
       <use xlink:href="#DejaVuSans-50"/>
       <use x="63.623047" xlink:href="#DejaVuSans-53"/>
       <use x="127.246094" xlink:href="#DejaVuSans-48"/>
      </g>
     </g>
    </g>
    <g id="ytick_6">
     <g id="line2d_16">
      <g>
       <use style="stroke:#000000;stroke-width:0.8;" x="180" xlink:href="#m4513eeccc7" y="185.632406"/>
      </g>
     </g>
     <g id="text_17">
      <!-- 300 -->
      <g transform="translate(153.9125 189.431625)scale(0.1 -0.1)">
       <use xlink:href="#DejaVuSans-51"/>
       <use x="63.623047" xlink:href="#DejaVuSans-48"/>
       <use x="127.246094" xlink:href="#DejaVuSans-48"/>
      </g>
     </g>
    </g>
    <g id="ytick_7">
     <g id="line2d_17">
      <g>
       <use style="stroke:#000000;stroke-width:0.8;" x="180" xlink:href="#m4513eeccc7" y="109.30643"/>
      </g>
     </g>
     <g id="text_18">
      <!-- 350 -->
      <g transform="translate(153.9125 113.105649)scale(0.1 -0.1)">
       <use xlink:href="#DejaVuSans-51"/>
       <use x="63.623047" xlink:href="#DejaVuSans-53"/>
       <use x="127.246094" xlink:href="#DejaVuSans-48"/>
      </g>
     </g>
    </g>
    <g id="text_19">
     <!-- speedup -->
     <defs>
      <path d="M 44.28125 53.078125 
L 44.28125 44.578125 
Q 40.484375 46.53125 36.375 47.5 
Q 32.28125 48.484375 27.875 48.484375 
Q 21.1875 48.484375 17.84375 46.4375 
Q 14.5 44.390625 14.5 40.28125 
Q 14.5 37.15625 16.890625 35.375 
Q 19.28125 33.59375 26.515625 31.984375 
L 29.59375 31.296875 
Q 39.15625 29.25 43.1875 25.515625 
Q 47.21875 21.78125 47.21875 15.09375 
Q 47.21875 7.46875 41.1875 3.015625 
Q 35.15625 -1.421875 24.609375 -1.421875 
Q 20.21875 -1.421875 15.453125 -0.5625 
Q 10.6875 0.296875 5.421875 2 
L 5.421875 11.28125 
Q 10.40625 8.6875 15.234375 7.390625 
Q 20.0625 6.109375 24.8125 6.109375 
Q 31.15625 6.109375 34.5625 8.28125 
Q 37.984375 10.453125 37.984375 14.40625 
Q 37.984375 18.0625 35.515625 20.015625 
Q 33.0625 21.96875 24.703125 23.78125 
L 21.578125 24.515625 
Q 13.234375 26.265625 9.515625 29.90625 
Q 5.8125 33.546875 5.8125 39.890625 
Q 5.8125 47.609375 11.28125 51.796875 
Q 16.75 56 26.8125 56 
Q 31.78125 56 36.171875 55.265625 
Q 40.578125 54.546875 44.28125 53.078125 
z
" id="DejaVuSans-115"/>
      <path d="M 18.109375 8.203125 
L 18.109375 -20.796875 
L 9.078125 -20.796875 
L 9.078125 54.6875 
L 18.109375 54.6875 
L 18.109375 46.390625 
Q 20.953125 51.265625 25.265625 53.625 
Q 29.59375 56 35.59375 56 
Q 45.5625 56 51.78125 48.09375 
Q 58.015625 40.1875 58.015625 27.296875 
Q 58.015625 14.40625 51.78125 6.484375 
Q 45.5625 -1.421875 35.59375 -1.421875 
Q 29.59375 -1.421875 25.265625 0.953125 
Q 20.953125 3.328125 18.109375 8.203125 
z
M 48.6875 27.296875 
Q 48.6875 37.203125 44.609375 42.84375 
Q 40.53125 48.484375 33.40625 48.484375 
Q 26.265625 48.484375 22.1875 42.84375 
Q 18.109375 37.203125 18.109375 27.296875 
Q 18.109375 17.390625 22.1875 11.75 
Q 26.265625 6.109375 33.40625 6.109375 
Q 40.53125 6.109375 44.609375 11.75 
Q 48.6875 17.390625 48.6875 27.296875 
z
" id="DejaVuSans-112"/>
      <path d="M 56.203125 29.59375 
L 56.203125 25.203125 
L 14.890625 25.203125 
Q 15.484375 15.921875 20.484375 11.0625 
Q 25.484375 6.203125 34.421875 6.203125 
Q 39.59375 6.203125 44.453125 7.46875 
Q 49.3125 8.734375 54.109375 11.28125 
L 54.109375 2.78125 
Q 49.265625 0.734375 44.1875 -0.34375 
Q 39.109375 -1.421875 33.890625 -1.421875 
Q 20.796875 -1.421875 13.15625 6.1875 
Q 5.515625 13.8125 5.515625 26.8125 
Q 5.515625 40.234375 12.765625 48.109375 
Q 20.015625 56 32.328125 56 
Q 43.359375 56 49.78125 48.890625 
Q 56.203125 41.796875 56.203125 29.59375 
z
M 47.21875 32.234375 
Q 47.125 39.59375 43.09375 43.984375 
Q 39.0625 48.390625 32.421875 48.390625 
Q 24.90625 48.390625 20.390625 44.140625 
Q 15.875 39.890625 15.1875 32.171875 
z
" id="DejaVuSans-101"/>
      <path d="M 45.40625 46.390625 
L 45.40625 75.984375 
L 54.390625 75.984375 
L 54.390625 0 
L 45.40625 0 
L 45.40625 8.203125 
Q 42.578125 3.328125 38.25 0.953125 
Q 33.9375 -1.421875 27.875 -1.421875 
Q 17.96875 -1.421875 11.734375 6.484375 
Q 5.515625 14.40625 5.515625 27.296875 
Q 5.515625 40.1875 11.734375 48.09375 
Q 17.96875 56 27.875 56 
Q 33.9375 56 38.25 53.625 
Q 42.578125 51.265625 45.40625 46.390625 
z
M 14.796875 27.296875 
Q 14.796875 17.390625 18.875 11.75 
Q 22.953125 6.109375 30.078125 6.109375 
Q 37.203125 6.109375 41.296875 11.75 
Q 45.40625 17.390625 45.40625 27.296875 
Q 45.40625 37.203125 41.296875 42.84375 
Q 37.203125 48.484375 30.078125 48.484375 
Q 22.953125 48.484375 18.875 42.84375 
Q 14.796875 37.203125 14.796875 27.296875 
z
" id="DejaVuSans-100"/>
      <path d="M 8.5 21.578125 
L 8.5 54.6875 
L 17.484375 54.6875 
L 17.484375 21.921875 
Q 17.484375 14.15625 20.5 10.265625 
Q 23.53125 6.390625 29.59375 6.390625 
Q 36.859375 6.390625 41.078125 11.03125 
Q 45.3125 15.671875 45.3125 23.6875 
L 45.3125 54.6875 
L 54.296875 54.6875 
L 54.296875 0 
L 45.3125 0 
L 45.3125 8.40625 
Q 42.046875 3.421875 37.71875 1 
Q 33.40625 -1.421875 27.6875 -1.421875 
Q 18.265625 -1.421875 13.375 4.4375 
Q 8.5 10.296875 8.5 21.578125 
z
M 31.109375 56 
z
" id="DejaVuSans-117"/>
     </defs>
     <g transform="translate(147.832812 385.049219)rotate(-90)scale(0.1 -0.1)">
      <use xlink:href="#DejaVuSans-115"/>
      <use x="52.099609" xlink:href="#DejaVuSans-112"/>
      <use x="115.576172" xlink:href="#DejaVuSans-101"/>
      <use x="177.099609" xlink:href="#DejaVuSans-101"/>
      <use x="238.623047" xlink:href="#DejaVuSans-100"/>
      <use x="302.099609" xlink:href="#DejaVuSans-117"/>
      <use x="365.478516" xlink:href="#DejaVuSans-112"/>
     </g>
    </g>
   </g>
   <g id="line2d_18">
    <path clip-path="url(#pc71e94369a)" d="M 230.727273 133.125204 
L 232.778932 111.6 
L 233.804761 185.3207 
L 234.830591 150.445567 
L 235.856421 154.047766 
L 236.88225 169.818671 
L 237.90808 161.853973 
L 238.933909 183.438634 
L 239.959739 185.723754 
L 240.985569 178.175138 
L 242.011398 129.078321 
L 243.037228 217.718485 
L 244.063057 229.0144 
L 245.088887 200.346769 
L 246.114716 208.868862 
L 247.140546 227.237634 
L 248.166376 236.480742 
L 249.192205 223.117185 
L 250.218035 235.874164 
L 251.243864 222.736985 
L 252.269694 255.757981 
L 253.295523 238.187926 
L 254.321353 238.118157 
L 255.347183 259.505131 
L 256.373012 263.480965 
L 257.398842 251.136084 
L 258.424671 266.257289 
L 259.450501 263.497615 
L 260.476331 291.347482 
L 261.50216 228.665044 
L 262.52799 333.861386 
L 263.553819 291.574219 
L 264.579649 300.659525 
L 265.605478 290.063238 
L 266.631308 276.912351 
L 267.657138 300.592734 
L 268.682967 288.72293 
L 269.708797 306.864629 
L 270.734626 253.100661 
L 271.760456 310.642478 
L 272.786286 313.501031 
L 273.812115 302.653862 
L 274.837945 347.131522 
L 275.863774 329.493328 
L 276.889604 327.861473 
L 277.915433 333.578224 
L 278.941263 283.522571 
L 279.967093 283.708414 
L 280.992922 342.017561 
L 282.018752 357.534894 
L 283.044581 361.0558 
L 284.070411 351.712671 
L 285.09624 346.125822 
L 286.12207 311.191668 
L 287.1479 364.961677 
L 288.173729 361.280816 
L 289.199559 319.357276 
L 290.225388 512.452866 
L 291.251218 348.129215 
L 292.277048 367.507552 
L 293.302877 374.174342 
L 294.328707 362.950332 
L 295.354536 359.722198 
L 296.380366 373.286712 
L 297.406195 372.006459 
L 298.432025 371.370129 
L 299.457855 377.611461 
L 300.483684 391.699005 
L 301.509514 400.806754 
L 302.535343 382.855502 
L 303.561173 379.669329 
L 304.587002 375.860338 
L 305.612832 380.108003 
L 306.638662 375.878055 
L 307.664491 424.587866 
L 308.690321 344.4237 
L 309.71615 366.507688 
L 310.74198 378.783446 
L 311.76781 358.181237 
L 312.793639 327.979638 
L 313.819469 411.904905 
L 314.845298 370.396383 
L 315.871128 356.971308 
L 316.896957 373.609107 
L 317.922787 384.552032 
L 318.948617 372.114675 
L 319.974446 352.22731 
L 321.000276 398.431322 
L 322.026105 382.923379 
L 323.051935 379.300378 
L 324.077765 356.623315 
L 325.103594 322.296704 
L 326.129424 429.115896 
L 327.155253 363.046746 
L 328.181083 347.61927 
L 329.206912 415.936831 
L 330.232742 412.133906 
L 331.258572 411.513297 
L 332.284401 405.345264 
L 333.310231 387.074431 
L 334.33606 388.817772 
L 335.36189 392.289785 
L 336.387719 391.156747 
L 337.413549 406.06985 
L 338.439379 372.042001 
L 339.465208 456.282153 
L 340.491038 372.59055 
L 341.516867 453.447563 
L 342.542697 438.309926 
L 343.568527 459.719615 
L 344.594356 373.067799 
L 345.620186 437.215393 
L 346.646015 450.252159 
L 347.671845 398.519776 
L 348.697674 406.065804 
L 349.723504 392.433777 
L 350.749334 419.418171 
L 351.775163 412.035493 
L 352.800993 463.685 
L 353.826822 410.683494 
L 354.852652 370.845192 
L 355.878481 476.225595 
L 356.904311 382.156353 
L 357.930141 436.729714 
L 358.95597 408.113849 
L 359.9818 472.978353 
L 361.007629 394.554603 
L 362.033459 393.538922 
L 363.059289 378.91227 
L 364.085118 409.940152 
L 365.110948 457.418987 
L 366.136777 374.82624 
L 367.162607 394.387434 
L 368.188436 430.057291 
L 369.214266 412.232847 
L 370.240096 439.860636 
L 371.265925 404.698466 
L 372.291755 422.955596 
L 373.317584 377.288727 
L 374.343414 467.508432 
L 375.369243 418.383695 
L 376.395073 378.836128 
L 377.420903 476.08218 
L 378.446732 424.393621 
L 379.472562 421.9447 
L 380.498391 390.42553 
L 381.524221 467.058975 
L 382.550051 453.074757 
L 383.57588 459.402625 
L 384.60171 434.664548 
L 385.627539 471.435446 
L 386.653369 409.975839 
L 387.679198 418.845581 
L 388.705028 417.335438 
L 389.730858 518.000686 
L 390.756687 432.231206 
L 391.782517 464.904022 
L 392.808346 467.898299 
L 393.834176 406.9881 
L 394.860006 432.109372 
L 395.885835 470.166701 
L 396.911665 415.608791 
L 397.937494 409.97656 
L 398.963324 461.790323 
L 399.989153 429.33385 
L 401.014983 422.102436 
L 402.040813 441.114706 
L 403.066642 424.846595 
L 404.092472 397.582467 
L 405.118301 430.924329 
L 406.144131 450.011565 
L 407.16996 406.194917 
L 408.19579 435.291128 
L 409.22162 452.370166 
L 410.247449 443.967881 
L 411.273279 487.718678 
L 412.299108 433.803562 
L 413.324938 442.759825 
L 414.350768 442.619093 
L 415.376597 432.975262 
L 416.402427 438.711298 
L 417.428256 433.001348 
L 418.454086 424.863275 
L 419.479915 430.522098 
L 420.505745 406.566426 
L 421.531575 416.899042 
L 422.557404 417.87284 
L 423.583234 399.288078 
L 424.609063 444.525813 
L 425.634893 444.519449 
L 426.660722 444.307858 
L 427.686552 478.295489 
L 428.712382 440.494529 
L 429.738211 423.034108 
L 430.764041 451.400044 
L 431.78987 505.880374 
L 432.8157 437.159716 
L 433.84153 437.675494 
L 434.867359 444.007211 
L 435.893189 413.565278 
L 436.919018 438.788326 
L 437.944848 439.03093 
L 438.970677 504.210767 
L 439.996507 506.407457 
L 441.022337 414.905662 
L 442.048166 457.151362 
L 443.073996 454.187232 
L 444.099825 414.734703 
L 445.125655 452.15156 
L 446.151485 420.732001 
L 447.177314 458.672518 
L 448.203144 457.40061 
L 449.228973 472.227858 
L 450.254803 500.192619 
L 451.280632 458.970109 
L 452.306462 440.738775 
L 453.332292 515.747554 
L 454.358121 468.201965 
L 455.383951 454.790573 
L 456.40978 443.247585 
L 457.43561 461.852512 
L 458.461439 475.112857 
L 459.487269 475.961992 
L 460.513099 441.916202 
L 461.538928 483.002561 
L 462.564758 441.811458 
L 463.590587 437.518112 
L 464.616417 515.432487 
L 465.642247 432.591954 
L 466.668076 458.108799 
L 467.693906 438.160441 
L 468.719735 460.439391 
L 469.745565 433.543802 
L 470.771394 469.790117 
L 471.797224 457.471489 
L 472.823054 468.434579 
L 473.848883 469.256869 
L 474.874713 451.369871 
L 475.900542 444.99913 
L 476.926372 484.89586 
L 477.952201 464.570305 
L 478.978031 517.101816 
L 480.003861 471.661839 
L 482.05552 487.017068 
L 483.081349 468.201901 
L 484.107179 459.31445 
L 485.133009 464.747297 
L 486.158838 463.968552 
L 487.184668 467.037294 
L 488.210497 454.225148 
L 489.236327 495.769809 
L 490.262156 519.47714 
L 491.287986 485.042775 
L 492.313816 477.62078 
L 493.339645 471.952595 
L 494.365475 470.65374 
L 495.391304 474.001529 
L 496.417134 484.719853 
L 497.442964 447.622071 
L 498.468793 472.377625 
L 499.494623 470.496972 
L 500.520452 452.539918 
L 501.546282 480.770353 
L 502.572111 446.853073 
L 503.597941 468.876912 
L 504.623771 461.41728 
L 505.6496 472.746111 
L 506.67543 444.990909 
L 507.701259 462.367949 
L 508.727089 462.092981 
L 509.752918 444.11885 
L 510.778748 459.105743 
L 511.804578 463.892065 
L 512.830407 513.098155 
L 513.856237 475.60774 
L 514.882066 469.801735 
L 515.907896 488.073524 
L 516.933726 475.282561 
L 517.959555 473.86328 
L 518.985385 462.693163 
L 520.011214 503.650079 
L 521.037044 496.452362 
L 522.062873 459.088693 
L 523.088703 477.209656 
L 524.114533 466.815651 
L 525.140362 476.43246 
L 526.166192 468.649829 
L 527.192021 462.512582 
L 528.217851 521.228038 
L 529.24368 489.658364 
L 530.26951 466.785546 
L 531.29534 456.809267 
L 532.321169 480.764392 
L 533.346999 547.328093 
L 534.372828 465.584637 
L 535.398658 455.488281 
L 536.424488 511.698471 
L 537.450317 490.709931 
L 538.476147 487.68699 
L 539.501976 478.065677 
L 540.527806 477.967305 
L 541.553635 483.730414 
L 542.579465 495.283798 
L 543.605295 463.791979 
L 544.631124 541.283302 
L 545.656954 491.822943 
L 546.682783 484.441215 
L 548.734443 435.264157 
L 549.760272 491.687971 
L 550.786102 461.795191 
L 551.811931 467.673165 
L 552.837761 502.466647 
L 553.86359 492.769482 
L 554.88942 460.15535 
L 555.91525 497.918203 
L 556.941079 499.799429 
L 557.966909 511.96572 
L 558.992738 520.398411 
L 560.018568 476.591573 
L 561.044397 490.841252 
L 562.070227 520.30885 
L 563.096057 514.233408 
L 564.121886 485.091546 
L 565.147716 476.290399 
L 566.173545 491.265793 
L 567.199375 469.758323 
L 568.225205 493.891346 
L 569.251034 483.06452 
L 570.276864 540.257818 
L 571.302693 482.181112 
L 572.328523 494.015053 
L 573.354352 514.572766 
L 574.380182 503.28466 
L 575.406012 482.662217 
L 576.431841 469.785651 
L 577.457671 495.283523 
L 578.4835 494.607232 
L 579.50933 492.20306 
L 580.535159 476.175265 
L 581.560989 484.558907 
L 582.586819 508.419793 
L 583.612648 549.06511 
L 584.638478 520.3885 
L 585.664307 496.601263 
L 586.690137 542.032607 
L 587.715967 493.515691 
L 588.741796 490.07011 
L 589.767626 480.119924 
L 590.793455 504.648492 
L 591.819285 493.369307 
L 592.845114 498.214665 
L 593.870944 500.813503 
L 594.896774 496.422281 
L 595.922603 493.219116 
L 596.948433 456.999359 
L 597.974262 511.817821 
L 599.000092 505.997937 
L 600.025922 494.348652 
L 601.051751 487.867859 
L 602.077581 506.680585 
L 603.10341 484.003493 
L 604.12924 516.27469 
L 605.155069 489.942651 
L 606.180899 505.511249 
L 607.206729 484.515734 
L 608.232558 506.633634 
L 609.258388 499.926451 
L 610.284217 525.305428 
L 611.310047 506.812551 
L 612.335876 491.324888 
L 613.361706 492.565473 
L 614.387536 524.494404 
L 615.413365 492.915667 
L 616.439195 477.468796 
L 617.465024 494.618347 
L 618.490854 497.919466 
L 619.516684 537.631289 
L 620.542513 476.206146 
L 621.568343 503.449206 
L 622.594172 508.943752 
L 623.620002 536.856127 
L 624.645831 499.960844 
L 625.671661 509.674044 
L 626.697491 496.308592 
L 627.72332 508.544353 
L 628.74915 499.782251 
L 629.774979 474.629938 
L 630.800809 540.884354 
L 631.826638 515.013149 
L 632.852468 493.896919 
L 633.878298 489.402093 
L 634.904127 499.468627 
L 635.929957 498.479515 
L 636.955786 474.112531 
L 637.981616 513.045439 
L 639.007446 511.29059 
L 640.033275 506.339249 
L 641.059105 508.313164 
L 642.084934 503.685504 
L 643.110764 507.294371 
L 644.136593 564.126517 
L 645.162423 505.756773 
L 646.188253 507.050898 
L 647.214082 512.786806 
L 648.239912 515.005822 
L 649.265741 485.900791 
L 650.291571 497.071167 
L 651.3174 514.669399 
L 652.34323 518.199364 
L 653.36906 510.8878 
L 654.394889 523.806042 
L 655.420719 515.763491 
L 656.446548 570.816773 
L 657.472378 490.035689 
L 658.498208 494.804375 
L 659.524037 513.439154 
L 660.549867 519.664472 
L 661.575696 545.910612 
L 662.601526 502.833328 
L 663.627355 514.978864 
L 664.653185 522.7489 
L 665.679015 512.936875 
L 666.704844 509.731724 
L 667.730674 522.039092 
L 668.756503 546.469759 
L 669.782333 505.22005 
L 670.808163 514.048613 
L 671.833992 525.689736 
L 672.859822 517.253956 
L 673.885651 514.290517 
L 674.911481 508.962414 
L 675.93731 529.395485 
L 676.96314 516.8325 
L 677.98897 545.04413 
L 679.014799 515.587655 
L 680.040629 526.818663 
L 681.066458 526.501357 
L 682.092288 513.352555 
L 683.118117 519.295445 
L 684.143947 523.717366 
L 685.169777 525.585567 
L 686.195606 534.023806 
L 687.221436 524.085404 
L 688.247265 503.437544 
L 689.273095 533.594153 
L 690.298925 531.549983 
L 691.324754 514.220242 
L 692.350584 532.05492 
L 694.402243 538.46125 
L 695.428072 514.501633 
L 696.453902 534.162319 
L 697.479732 537.073348 
L 698.505561 517.009917 
L 699.531391 525.420709 
L 700.55722 530.072105 
L 701.58305 524.005701 
L 702.608879 528.183916 
L 703.634709 522.002406 
L 704.660539 535.684459 
L 705.686368 521.130042 
L 706.712198 518.587683 
L 707.738027 550.110286 
L 708.763857 527.339095 
L 709.789687 536.561067 
L 710.815516 527.915756 
L 711.841346 520.884236 
L 712.867175 536.806501 
L 713.893005 539.22607 
L 714.918834 519.493826 
L 715.944664 526.501689 
L 716.970494 530.138967 
L 717.996323 536.934912 
L 719.022153 523.549287 
L 720.047982 562.027313 
L 721.073812 532.385628 
L 722.099642 537.149815 
L 723.125471 522.750718 
L 724.151301 527.616087 
L 725.17713 509.19694 
L 726.20296 535.271265 
L 727.228789 548.408296 
L 728.254619 527.43501 
L 729.280449 538.163808 
L 730.306278 536.812379 
L 731.332108 480.556821 
L 732.357937 532.816589 
L 733.383767 536.844247 
L 734.409596 536.497059 
L 735.435426 525.323923 
L 736.461256 524.020803 
L 737.487085 553.877734 
L 738.512915 539.736088 
L 739.538744 529.110628 
L 740.564574 547.416917 
L 741.590404 536.959707 
L 742.616233 539.573217 
L 743.642063 549.510975 
L 744.667892 526.113149 
L 745.693722 538.904284 
L 746.719551 538.73602 
L 747.745381 531.854488 
L 749.79704 544.02024 
L 750.82287 541.676799 
L 751.848699 524.818414 
L 752.874529 528.291589 
L 753.900358 535.908464 
L 754.926188 534.255734 
L 755.952018 530.342554 
L 756.977847 548.592491 
L 758.003677 539.211543 
L 759.029506 535.22852 
L 760.055336 555.498648 
L 761.081166 532.871923 
L 762.106995 496.491916 
L 763.132825 539.660854 
L 764.158654 533.909707 
L 765.184484 537.258189 
L 766.210313 542.542634 
L 767.236143 542.650304 
L 768.261973 527.403906 
L 769.287802 526.810835 
L 770.313632 562.785758 
L 771.339461 580.062328 
L 772.365291 533.175886 
L 773.391121 532.940284 
L 774.41695 542.312079 
L 775.44278 544.369569 
L 776.468609 534.463931 
L 777.494439 530.786787 
L 778.520268 482.713398 
L 779.546098 521.664843 
L 780.571928 536.077288 
L 781.597757 543.821059 
L 782.623587 537.983884 
L 783.649416 542.073444 
L 784.675246 533.293621 
L 785.701075 555.054555 
L 786.726905 544.87731 
L 787.752735 546.528732 
L 788.778564 525.656899 
L 789.804394 531.386665 
L 790.830223 557.57509 
L 791.856053 541.585069 
L 792.881883 530.923714 
L 793.907712 538.091266 
L 794.933542 547.656161 
L 795.959371 544.184689 
L 796.985201 539.872897 
L 798.01103 538.50255 
L 799.03686 540.449666 
L 800.06269 543.05459 
L 801.088519 537.531131 
L 802.114349 550.687224 
L 803.140178 496.818353 
L 804.166008 546.107524 
L 805.191837 535.768323 
L 806.217667 540.294002 
L 807.243497 540.531189 
L 808.269326 553.274513 
L 809.295156 543.109781 
L 810.320985 539.488701 
L 811.346815 546.594544 
L 812.372645 547.517799 
L 813.398474 541.080642 
L 814.424304 540.431743 
L 815.450133 546.009033 
L 816.475963 554.921666 
L 817.501792 540.961663 
L 818.527622 534.333592 
L 819.553452 550.241246 
L 820.579281 509.761899 
L 821.605111 541.536674 
L 822.63094 554.70739 
L 823.65677 547.362932 
L 824.6826 549.228866 
L 825.708429 543.218818 
L 826.734259 540.358299 
L 827.760088 551.256452 
L 828.785918 543.252429 
L 829.811747 537.840607 
L 830.837577 537.405569 
L 831.863407 548.739323 
L 832.889236 550.45933 
L 833.915066 544.267484 
L 834.940895 541.460479 
L 835.966725 558.536014 
L 836.992554 569.463074 
L 838.018384 586.047466 
L 839.044214 541.573331 
L 840.070043 564.267464 
L 841.095873 547.969051 
L 842.121702 536.412478 
L 843.147532 551.180066 
L 844.173362 547.990907 
L 845.199191 570.293539 
L 846.225021 546.951078 
L 847.25085 552.150254 
L 848.27668 558.093593 
L 849.302509 544.633657 
L 850.328339 543.99272 
L 851.354169 546.145747 
L 852.379998 567.565973 
L 853.405828 558.32733 
L 854.431657 554.395297 
L 855.457487 545.355519 
L 856.483316 550.278158 
L 857.509146 553.494979 
L 858.534976 544.963735 
L 859.560805 546.299063 
L 860.586635 517.264131 
L 861.612464 557.47871 
L 862.638294 546.298619 
L 863.664124 543.911782 
L 864.689953 554.004389 
L 865.715783 553.710458 
L 866.741612 546.879316 
L 867.767442 546.614814 
L 868.793271 554.375647 
L 869.819101 553.165894 
L 870.844931 541.855862 
L 871.87076 565.441761 
L 872.89659 554.461593 
L 873.922419 551.358113 
L 874.948249 543.063603 
L 875.974078 543.089526 
L 876.999908 552.038318 
L 878.025738 551.183653 
L 879.051567 569.321551 
L 880.077397 543.053721 
L 881.103226 553.117076 
L 882.129056 555.3915 
L 883.154886 562.130047 
L 884.180715 546.37539 
L 885.206545 553.635486 
L 886.232374 556.604924 
L 887.258204 547.612842 
L 888.284033 542.916045 
L 889.309863 557.670427 
L 890.335693 554.542542 
L 891.361522 546.078627 
L 892.387352 562.826458 
L 893.413181 555.304433 
L 894.439011 559.598027 
L 895.464841 551.768571 
L 896.49067 549.468168 
L 897.5165 555.598802 
L 898.542329 553.35737 
L 899.568159 513.8677 
L 900.593988 546.430041 
L 901.619818 557.089063 
L 902.645648 552.600179 
L 903.671477 550.940925 
L 904.697307 550.956149 
L 905.723136 553.591462 
L 906.748966 557.07719 
L 907.774795 550.610541 
L 908.800625 551.089572 
L 909.826455 556.933667 
L 910.852284 558.707404 
L 911.878114 549.377184 
L 912.903943 547.300852 
L 913.929773 558.749588 
L 914.955603 557.506013 
L 915.981432 550.439129 
L 917.007262 552.374814 
L 918.033091 566.229233 
L 919.058921 556.39545 
L 920.08475 554.136517 
L 921.11058 558.757922 
L 922.13641 559.222988 
L 923.162239 568.43189 
L 924.188069 553.693379 
L 925.213898 548.071822 
L 926.239728 556.493528 
L 927.265557 520.460794 
L 928.291387 552.237378 
L 929.317217 551.127288 
L 930.343046 558.868489 
L 931.368876 560.4902 
L 932.394705 551.113248 
L 933.420535 553.664789 
L 934.446365 558.39056 
L 935.472194 555.756947 
L 936.498024 549.291115 
L 937.523853 552.003556 
L 938.549683 561.525478 
L 939.575512 561.186797 
L 940.601342 550.659847 
L 941.627172 565.435427 
L 942.653001 555.339349 
L 943.678831 560.280464 
L 944.70466 554.621778 
L 945.73049 554.41534 
L 946.75632 560.089092 
L 947.782149 563.441771 
L 948.807979 549.343176 
L 950.859638 560.30202 
L 951.885467 561.91688 
L 952.911297 555.016284 
L 953.937127 552.087444 
L 954.962956 564.141436 
L 955.988786 567.266636 
L 957.014615 557.456859 
L 958.040445 565.455898 
L 959.066274 565.947441 
L 960.092104 565.123019 
L 961.117934 557.854508 
L 962.143763 547.690221 
L 963.169593 565.864039 
L 964.195422 559.935407 
L 965.221252 563.765432 
L 966.247082 553.399449 
L 967.272911 559.84728 
L 968.298741 559.421593 
L 969.32457 552.096943 
L 970.3504 557.770975 
L 971.376229 577.702274 
L 972.402059 564.109142 
L 973.427889 552.91622 
L 974.453718 554.831406 
L 975.479548 562.372893 
L 976.505377 561.96476 
L 977.531207 551.838859 
L 978.557036 557.74055 
L 979.582866 560.266978 
L 980.608696 535.998663 
L 981.634525 558.770548 
L 982.660355 553.041813 
L 983.686184 558.959768 
L 984.712014 562.895481 
L 985.737844 556.632322 
L 986.763673 560.321111 
L 987.789503 565.366967 
L 988.815332 563.380025 
L 989.841162 557.389216 
L 990.866991 556.213098 
L 991.892821 566.282484 
L 992.918651 566.156051 
L 993.94448 556.386981 
L 994.97031 569.076147 
L 995.996139 563.460587 
L 997.021969 566.249257 
L 998.047799 561.424911 
L 999.073628 554.172654 
L 1000.099458 564.144254 
L 1001.125287 559.887831 
L 1002.151117 560.986498 
L 1003.176946 559.833443 
L 1004.202776 563.340287 
L 1005.228606 564.953309 
L 1006.254435 557.739867 
L 1007.280265 568.045613 
L 1008.306094 564.452881 
L 1009.331924 564.639817 
L 1010.357753 565.2321 
L 1011.383583 555.54108 
L 1012.409413 561.603878 
L 1013.435242 566.201348 
L 1014.461072 562.038638 
L 1015.486901 560.623919 
L 1016.512731 571.335158 
L 1017.538561 569.947818 
L 1018.56439 559.318575 
L 1019.59022 552.605712 
L 1020.616049 564.893432 
L 1021.641879 564.564523 
L 1022.667708 562.623444 
L 1023.693538 581.784449 
L 1024.719368 563.659423 
L 1025.745197 565.609583 
L 1026.771027 561.600826 
L 1027.796856 563.576469 
L 1028.822686 566.135867 
L 1029.848515 567.093813 
L 1030.874345 560.65739 
L 1031.900175 557.803311 
L 1032.926004 578.299348 
L 1033.951834 570.710361 
L 1034.977663 572.014499 
L 1036.003493 564.844657 
L 1037.029323 568.079606 
L 1038.055152 568.793906 
L 1039.080982 563.142076 
L 1040.106811 562.434191 
L 1041.132641 564.703579 
L 1042.15847 557.026015 
L 1043.1843 559.691724 
L 1044.21013 558.363986 
L 1045.235959 565.806624 
L 1046.261789 563.805373 
L 1047.287618 561.077565 
L 1048.313448 564.376845 
L 1049.339278 569.69599 
L 1050.365107 565.979526 
L 1051.390937 563.5354 
L 1052.416766 529.567176 
L 1053.442596 568.718289 
L 1054.468425 570.392476 
L 1055.494255 565.426696 
L 1056.520085 559.015488 
L 1057.545914 568.188808 
L 1058.571744 571.576412 
L 1059.597573 562.480835 
L 1060.623403 565.059808 
L 1061.649232 573.065541 
L 1062.675062 573.959136 
L 1063.700892 566.425896 
L 1064.726721 565.491746 
L 1065.752551 570.319752 
L 1066.77838 569.065344 
L 1067.80421 566.38662 
L 1068.83004 560.605513 
L 1069.855869 570.206152 
L 1070.881699 570.564993 
L 1071.907528 564.286795 
L 1072.933358 564.331498 
L 1073.959187 570.544212 
L 1074.985017 572.011471 
L 1076.010847 560.796934 
L 1077.036676 560.224073 
L 1078.062506 589.32908 
L 1079.088335 571.910775 
L 1080.114165 564.241059 
L 1081.139994 565.051364 
L 1082.165824 573.555857 
L 1083.191654 573.405058 
L 1084.217483 565.585922 
L 1085.243313 565.318259 
L 1086.269142 570.306143 
L 1087.294972 552.512853 
L 1088.320802 561.695504 
L 1089.346631 562.44473 
L 1090.372461 573.159855 
L 1091.39829 569.945359 
L 1092.42412 576.628754 
L 1093.449949 561.477387 
L 1094.475779 571.597478 
L 1095.501609 573.373984 
L 1096.527438 562.917537 
L 1097.553268 564.859549 
L 1098.579097 570.999629 
L 1099.604927 572.362117 
L 1100.630757 541.815394 
L 1101.656586 528.107026 
L 1102.682416 573.140191 
L 1103.708245 573.671653 
L 1104.734075 566.157897 
L 1105.759904 566.292495 
L 1106.785734 572.798033 
L 1107.811564 570.546898 
L 1108.837393 562.529479 
L 1109.863223 565.224637 
L 1110.889052 572.849842 
L 1111.914882 572.6309 
L 1112.940711 563.863899 
L 1113.966541 566.090893 
L 1114.992371 573.152294 
L 1116.0182 569.443236 
L 1117.04403 562.486137 
L 1118.069859 567.718375 
L 1119.095689 574.510186 
L 1120.121519 573.158953 
L 1121.147348 568.052386 
L 1122.173178 573.822948 
L 1123.199007 577.836715 
L 1124.224837 576.84132 
L 1125.250666 565.466996 
L 1126.276496 568.517131 
L 1127.302326 570.084991 
L 1128.328155 573.991121 
L 1129.353985 566.836183 
L 1130.379814 569.350177 
L 1131.405644 574.235784 
L 1132.431473 573.458103 
L 1133.457303 565.908483 
L 1134.483133 570.987554 
L 1135.508962 595.955407 
L 1136.534792 573.471991 
L 1137.560621 572.757291 
L 1138.586451 565.917164 
L 1139.612281 576.774372 
L 1140.63811 572.453645 
L 1141.66394 569.005093 
L 1142.689769 569.331137 
L 1143.715599 573.689752 
L 1144.741428 571.335562 
L 1145.767258 570.986557 
L 1146.793088 569.105258 
L 1147.818917 587.972441 
L 1148.844747 574.895949 
L 1149.870576 568.921173 
L 1150.896406 569.197269 
L 1151.922235 575.720569 
L 1152.948065 575.178432 
L 1153.973895 567.19528 
L 1156.025554 574.009817 
L 1157.051383 572.956716 
L 1158.077213 569.971735 
L 1159.103043 570.088875 
L 1160.128872 576.219524 
L 1161.154702 575.754823 
L 1162.180531 572.048548 
L 1163.206361 569.814763 
L 1164.23219 574.968845 
L 1165.25802 577.82726 
L 1166.28385 569.800858 
L 1167.309679 571.249252 
L 1168.335509 579.317856 
L 1169.361338 569.34723 
L 1170.387168 572.703127 
L 1171.412998 572.065752 
L 1172.438827 576.755218 
L 1173.464657 578.02684 
L 1174.490486 572.137437 
L 1175.516316 571.515681 
L 1176.542145 576.043037 
L 1177.567975 578.854873 
L 1178.593805 565.372443 
L 1180.645464 576.882446 
L 1181.671293 578.364239 
L 1182.697123 569.228967 
L 1183.722952 569.312902 
L 1184.748782 576.770556 
L 1185.774612 577.910335 
L 1186.800441 570.390729 
L 1187.826271 570.997353 
L 1189.87793 577.365108 
L 1190.90376 572.118487 
L 1191.929589 573.071395 
L 1192.955419 568.725427 
L 1193.981248 577.29549 
L 1195.007078 571.276012 
L 1196.032907 571.874006 
L 1197.058737 575.721841 
L 1198.084567 576.490484 
L 1199.110396 568.253738 
L 1200.136226 568.895286 
L 1201.162055 577.248518 
L 1202.187885 569.073033 
L 1203.213714 572.553666 
L 1204.239544 572.234093 
L 1205.265374 575.703147 
L 1206.291203 591.357564 
L 1207.317033 578.38578 
L 1208.342862 569.769057 
L 1209.368692 577.748406 
L 1210.394522 574.420909 
L 1211.420351 572.541415 
L 1213.47201 576.962061 
L 1214.49784 577.483954 
L 1215.523669 576.778037 
L 1216.549499 570.379374 
L 1217.575329 580.276468 
L 1218.601158 578.63807 
L 1219.626988 569.655035 
L 1220.652817 571.405598 
L 1221.678647 578.382669 
L 1222.704477 581.76079 
L 1223.730306 570.767268 
L 1224.756136 574.485684 
L 1225.781965 575.430249 
L 1226.807795 580.029643 
L 1227.833624 572.917449 
L 1228.859454 571.182615 
L 1229.885284 579.843348 
L 1230.911113 578.264924 
L 1231.936943 573.579675 
L 1232.962772 572.919635 
L 1233.988602 579.098372 
L 1235.014431 571.857978 
L 1236.040261 573.177635 
L 1237.066091 570.861579 
L 1238.09192 583.621206 
L 1240.143579 574.44634 
L 1241.169409 575.27809 
L 1242.195239 579.554116 
L 1243.221068 580.78518 
L 1244.246898 572.894929 
L 1245.272727 575.010576 
L 1245.272727 575.010576 
" style="fill:none;stroke:#1f77b4;stroke-linecap:square;stroke-width:1.5;"/>
   </g>
   <g id="line2d_19">
    <path clip-path="url(#pc71e94369a)" d="M 230.727273 250.610768 
L 231.753102 141.700553 
L 232.778932 149.225651 
L 233.804761 167.871868 
L 234.830591 183.615361 
L 235.856421 182.23573 
L 236.88225 197.278349 
L 237.90808 204.87465 
L 238.933909 205.584904 
L 239.959739 155.715104 
L 240.985569 282.034617 
L 242.011398 245.01364 
L 243.037228 248.61831 
L 244.063057 259.021035 
L 245.088887 257.194566 
L 246.114716 272.772371 
L 247.140546 300.82767 
L 248.166376 311.210589 
L 249.192205 315.577317 
L 250.218035 311.624218 
L 251.243864 311.021294 
L 252.269694 327.485329 
L 253.295523 312.826754 
L 254.321353 333.590473 
L 255.347183 298.023831 
L 257.398842 348.968996 
L 258.424671 285.60436 
L 259.450501 343.771018 
L 260.476331 352.320867 
L 261.50216 350.971015 
L 262.52799 354.024604 
L 263.553819 361.722543 
L 264.579649 320.293048 
L 265.605478 343.508235 
L 266.631308 359.249802 
L 267.657138 385.907972 
L 268.682967 389.240795 
L 269.708797 383.333617 
L 270.734626 375.985923 
L 271.760456 381.086973 
L 272.786286 340.646664 
L 273.812115 350.116876 
L 274.837945 373.75538 
L 275.863774 342.419088 
L 277.915433 376.12137 
L 278.941263 386.481163 
L 279.967093 416.296673 
L 280.992922 380.996559 
L 282.018752 406.336668 
L 283.044581 414.815793 
L 284.070411 381.819499 
L 285.09624 419.295143 
L 286.12207 401.911307 
L 287.1479 406.423461 
L 288.173729 388.224561 
L 289.199559 392.647593 
L 290.225388 398.844708 
L 291.251218 420.692612 
L 292.277048 404.491359 
L 293.302877 403.984516 
L 294.328707 418.233516 
L 295.354536 414.363637 
L 296.380366 414.360779 
L 297.406195 411.457041 
L 298.432025 418.231279 
L 299.457855 393.547078 
L 300.483684 450.254044 
L 301.509514 443.794128 
L 302.535343 409.256699 
L 303.561173 403.5209 
L 304.587002 428.627085 
L 305.612832 386.469596 
L 306.638662 422.234262 
L 307.664491 416.342431 
L 308.690321 414.823241 
L 309.71615 429.185636 
L 310.74198 420.887651 
L 311.76781 431.422071 
L 312.793639 431.761757 
L 313.819469 424.185925 
L 314.845298 425.184754 
L 315.871128 427.604016 
L 316.896957 417.429927 
L 317.922787 449.414008 
L 318.948617 432.12931 
L 319.974446 435.837748 
L 321.000276 433.743234 
L 322.026105 429.192341 
L 323.051935 476.586432 
L 324.077765 439.488778 
L 325.103594 437.507188 
L 326.129424 445.493375 
L 327.155253 434.301577 
L 328.181083 480.534153 
L 329.206912 444.508085 
L 330.232742 487.481783 
L 331.258572 428.993592 
L 333.310231 466.811317 
L 334.33606 457.756367 
L 335.36189 445.348581 
L 336.387719 455.574629 
L 337.413549 455.401424 
L 338.439379 460.553835 
L 339.465208 456.052597 
L 340.491038 464.086306 
L 341.516867 459.881346 
L 342.542697 454.621666 
L 343.568527 465.403016 
L 344.594356 534.237538 
L 345.620186 469.138753 
L 346.646015 481.308518 
L 347.671845 470.072078 
L 348.697674 471.379152 
L 349.723504 471.014996 
L 350.749334 466.978886 
L 351.775163 472.396382 
L 352.800993 498.403156 
L 353.826822 475.552464 
L 354.852652 473.829999 
L 355.878481 475.076963 
L 356.904311 470.379331 
L 357.930141 466.582022 
L 358.95597 474.715048 
L 359.9818 523.620863 
L 361.007629 488.312935 
L 362.033459 494.085422 
L 363.059289 490.943338 
L 364.085118 477.800883 
L 365.110948 493.965539 
L 366.136777 495.936604 
L 367.162607 478.957807 
L 368.188436 497.416811 
L 369.214266 498.929252 
L 370.240096 498.477236 
L 371.265925 551.417172 
L 372.291755 528.827069 
L 373.317584 517.515795 
L 374.343414 498.582588 
L 375.369243 475.174933 
L 376.395073 501.113447 
L 377.420903 488.206277 
L 378.446732 488.87874 
L 379.472562 500.474785 
L 380.498391 475.282714 
L 381.524221 494.510071 
L 382.550051 489.126393 
L 383.57588 500.309103 
L 384.60171 487.296064 
L 385.627539 518.61211 
L 386.653369 480.911714 
L 387.679198 493.109072 
L 388.705028 483.378648 
L 389.730858 495.014679 
L 390.756687 498.477146 
L 391.782517 455.119344 
L 392.808346 496.086527 
L 393.834176 502.591532 
L 394.860006 506.971631 
L 395.885835 492.066736 
L 396.911665 521.00955 
L 397.937494 482.311179 
L 398.963324 497.152052 
L 399.989153 495.63638 
L 401.014983 500.113707 
L 402.040813 502.917961 
L 403.066642 501.155456 
L 404.092472 511.629369 
L 405.118301 502.845426 
L 406.144131 516.981322 
L 407.16996 490.493218 
L 408.19579 538.891777 
L 409.22162 512.574374 
L 410.247449 502.846328 
L 411.273279 491.24308 
L 412.299108 497.272286 
L 413.324938 489.409252 
L 414.350768 499.484925 
L 415.376597 494.304552 
L 416.402427 529.65357 
L 417.428256 495.989296 
L 418.454086 504.023181 
L 419.479915 521.568772 
L 420.505745 503.936274 
L 421.531575 496.01975 
L 423.583234 521.622652 
L 424.609063 510.632117 
L 425.634893 514.701368 
L 426.660722 522.580621 
L 427.686552 526.444285 
L 428.712382 504.003637 
L 429.738211 488.279107 
L 430.764041 523.477208 
L 431.78987 544.401296 
L 432.8157 508.650512 
L 433.84153 511.411536 
L 434.867359 522.794597 
L 435.893189 519.213672 
L 436.919018 508.153794 
L 437.944848 513.769248 
L 438.970677 513.803022 
L 439.996507 514.503739 
L 441.022337 504.201009 
L 442.048166 504.50851 
L 443.073996 513.09999 
L 444.099825 502.325385 
L 445.125655 545.901939 
L 446.151485 513.444869 
L 447.177314 522.254311 
L 448.203144 521.37096 
L 449.228973 522.012292 
L 450.254803 519.890891 
L 451.280632 520.598965 
L 452.306462 515.728382 
L 453.332292 523.056341 
L 454.358121 518.333894 
L 455.383951 522.354393 
L 456.40978 527.327783 
L 457.43561 519.839519 
L 459.487269 524.162082 
L 461.538928 526.731072 
L 463.590587 520.9191 
L 464.616417 524.709286 
L 465.642247 525.29298 
L 466.668076 517.482144 
L 467.693906 531.302168 
L 468.719735 528.326123 
L 469.745565 536.666694 
L 470.771394 526.572237 
L 471.797224 529.894336 
L 472.823054 523.176926 
L 473.848883 532.714995 
L 474.874713 529.960942 
L 475.900542 522.490398 
L 476.926372 524.3505 
L 477.952201 557.018381 
L 478.978031 529.448461 
L 480.003861 527.097252 
L 481.02969 542.12911 
L 482.05552 536.199164 
L 483.081349 525.932362 
L 484.107179 518.062526 
L 485.133009 537.727242 
L 486.158838 527.26836 
L 487.184668 531.603774 
L 488.210497 533.186165 
L 489.236327 530.659094 
L 490.262156 526.926187 
L 492.313816 545.482454 
L 493.339645 532.502607 
L 494.365475 540.847948 
L 495.391304 536.659869 
L 496.417134 537.75901 
L 497.442964 539.836372 
L 498.468793 539.265753 
L 499.494623 512.835553 
L 500.520452 531.23457 
L 501.546282 535.727497 
L 502.572111 547.23815 
L 503.597941 548.026203 
L 504.623771 547.100533 
L 505.6496 542.519622 
L 506.67543 559.454902 
L 507.701259 564.001465 
L 508.727089 548.938264 
L 509.752918 544.240081 
L 510.778748 543.655494 
L 511.804578 577.237668 
L 512.830407 546.90758 
L 513.856237 547.986108 
L 514.882066 546.389992 
L 515.907896 545.401576 
L 516.933726 558.13771 
L 517.959555 548.83113 
L 518.985385 549.553939 
L 520.011214 543.38284 
L 521.037044 571.066636 
L 522.062873 543.529896 
L 523.088703 547.525622 
L 524.114533 544.53136 
L 525.140362 543.906805 
L 526.166192 554.709687 
L 528.217851 542.955075 
L 529.24368 553.492204 
L 530.26951 557.003896 
L 531.29534 545.744097 
L 532.321169 551.526447 
L 533.346999 552.340687 
L 534.372828 596.438751 
L 535.398658 546.991055 
L 536.424488 548.68679 
L 537.450317 548.981061 
L 538.476147 551.107299 
L 539.501976 550.495425 
L 540.527806 542.339733 
L 541.553635 550.774891 
L 542.579465 575.169561 
L 543.605295 546.41599 
L 544.631124 549.098731 
L 545.656954 550.401873 
L 546.682783 555.401873 
L 547.708613 557.841054 
L 548.734443 549.14272 
L 549.760272 559.116521 
L 550.786102 556.271307 
L 551.811931 558.004046 
L 552.837761 574.214356 
L 553.86359 570.712576 
L 554.88942 556.887866 
L 555.91525 553.570002 
L 556.941079 557.884165 
L 557.966909 558.661652 
L 558.992738 557.182538 
L 560.018568 549.946262 
L 561.044397 557.028618 
L 562.070227 554.11684 
L 563.096057 551.684558 
L 564.121886 554.781232 
L 565.147716 559.606607 
L 566.173545 552.945171 
L 567.199375 558.747201 
L 568.225205 560.347368 
L 569.251034 558.79787 
L 570.276864 565.57847 
L 571.302693 560.704848 
L 572.328523 554.665896 
L 573.354352 565.557101 
L 574.380182 560.024866 
L 575.406012 559.996809 
L 576.431841 560.906975 
L 577.457671 562.479459 
L 578.4835 561.225186 
L 579.50933 555.819713 
L 580.535159 555.551634 
L 581.560989 559.121002 
L 582.586819 558.243444 
L 583.612648 553.974496 
L 584.638478 553.601747 
L 585.664307 558.189447 
L 586.690137 561.721454 
L 587.715967 573.281491 
L 588.741796 555.863375 
L 589.767626 557.749465 
L 590.793455 566.21347 
L 591.819285 555.727788 
L 592.845114 560.251912 
L 593.870944 565.36705 
L 595.922603 566.140428 
L 596.948433 560.680261 
L 597.974262 562.298398 
L 599.000092 565.539385 
L 600.025922 569.724619 
L 601.051751 564.59808 
L 602.077581 565.057647 
L 603.10341 564.653493 
L 604.12924 566.237203 
L 605.155069 564.14531 
L 606.180899 567.500373 
L 607.206729 570.02413 
L 608.232558 567.27031 
L 609.258388 565.288119 
L 610.284217 565.76967 
L 611.310047 566.013473 
L 612.335876 565.385071 
L 613.361706 566.588908 
L 614.387536 573.6251 
L 615.413365 565.89716 
L 616.439195 569.38138 
L 617.465024 568.597756 
L 618.490854 569.333234 
L 619.516684 566.478273 
L 620.542513 568.640542 
L 621.568343 567.698368 
L 622.594172 568.543279 
L 623.620002 570.380301 
L 624.645831 565.134033 
L 625.671661 569.486691 
L 626.697491 570.364034 
L 627.72332 564.680047 
L 628.74915 572.654007 
L 629.774979 569.483906 
L 630.800809 569.965364 
L 631.826638 569.232884 
L 632.852468 567.294426 
L 633.878298 568.685857 
L 634.904127 567.69004 
L 635.929957 574.782915 
L 636.955786 571.75338 
L 637.981616 579.270575 
L 639.007446 572.277195 
L 640.033275 567.559477 
L 641.059105 568.7105 
L 642.084934 572.200944 
L 643.110764 571.111173 
L 644.136593 591.037705 
L 645.162423 567.681784 
L 646.188253 569.871578 
L 647.214082 568.469798 
L 648.239912 571.086223 
L 649.265741 571.832611 
L 650.291571 573.245121 
L 651.3174 579.227226 
L 652.34323 571.757518 
L 653.36906 572.855019 
L 654.394889 571.597075 
L 655.420719 569.692496 
L 656.446548 569.955926 
L 657.472378 570.538261 
L 659.524037 573.438236 
L 660.549867 569.683866 
L 661.575696 569.733293 
L 662.601526 573.707946 
L 663.627355 580.521601 
L 664.653185 573.004762 
L 665.679015 571.749922 
L 666.704844 575.31102 
L 667.730674 575.322689 
L 668.756503 574.171552 
L 669.782333 574.481629 
L 670.808163 570.553123 
L 671.833992 575.734439 
L 672.859822 569.849844 
L 673.885651 570.82744 
L 674.911481 575.207772 
L 675.93731 570.308137 
L 676.96314 574.515186 
L 677.98897 576.835496 
L 679.014799 572.250635 
L 680.040629 573.182853 
L 681.066458 574.488429 
L 682.092288 571.195258 
L 683.118117 569.753937 
L 684.143947 575.002628 
L 685.169777 576.016681 
L 686.195606 574.445259 
L 687.221436 577.316947 
L 689.273095 572.332095 
L 690.298925 579.194184 
L 691.324754 576.758821 
L 692.350584 573.887636 
L 693.376413 574.557912 
L 694.402243 573.378061 
L 695.428072 577.193671 
L 696.453902 574.69784 
L 698.505561 574.966841 
L 699.531391 575.27687 
L 700.55722 572.797801 
L 701.58305 573.660925 
L 702.608879 576.629918 
L 703.634709 578.156252 
L 704.660539 573.06334 
L 705.686368 575.843901 
L 706.712198 572.968115 
L 707.738027 576.062935 
L 708.763857 576.864256 
L 709.789687 576.204025 
L 710.815516 575.107814 
L 711.841346 577.960042 
L 712.867175 573.936221 
L 713.893005 576.354948 
L 714.918834 577.176668 
L 715.944664 575.434905 
L 716.970494 575.225122 
L 717.996323 575.709212 
L 719.022153 577.33564 
L 720.047982 577.811938 
L 721.073812 575.977189 
L 722.099642 579.007255 
L 723.125471 575.213684 
L 724.151301 575.18262 
L 725.17713 579.966859 
L 726.20296 579.409637 
L 727.228789 576.12691 
L 728.254619 579.901968 
L 729.280449 579.092458 
L 731.332108 578.511194 
L 732.357937 576.639811 
L 733.383767 580.705781 
L 734.409596 574.531572 
L 735.435426 577.180117 
L 736.461256 572.7262 
L 737.487085 580.737032 
L 738.512915 578.052444 
L 739.538744 577.44466 
L 740.564574 572.086721 
L 741.590404 580.123786 
L 742.616233 577.166966 
L 743.642063 581.360384 
L 744.667892 574.625759 
L 745.693722 583.786219 
L 746.719551 576.362387 
L 747.745381 581.182223 
L 748.771211 578.393201 
L 749.79704 583.44784 
L 750.82287 578.83961 
L 751.848699 580.066433 
L 752.874529 578.40582 
L 753.900358 593.563365 
L 754.926188 576.980377 
L 755.952018 582.58427 
L 756.977847 580.692895 
L 758.003677 585.966759 
L 759.029506 583.994328 
L 760.055336 583.331699 
L 761.081166 587.45981 
L 762.106995 583.16442 
L 763.132825 575.297207 
L 764.158654 585.072714 
L 765.184484 581.423677 
L 766.210313 584.66844 
L 767.236143 578.65463 
L 768.261973 593.485124 
L 769.287802 556.737055 
L 770.313632 583.72948 
L 771.339461 579.827465 
L 772.365291 584.933676 
L 773.391121 577.615004 
L 774.41695 585.18692 
L 775.44278 579.25071 
L 776.468609 584.94662 
L 777.494439 586.991496 
L 778.520268 585.00784 
L 779.546098 584.533845 
L 780.571928 586.138831 
L 781.597757 579.714452 
L 782.623587 583.651285 
L 783.649416 581.949066 
L 784.675246 576.238206 
L 785.701075 574.642494 
L 786.726905 586.492504 
L 787.752735 585.224133 
L 788.778564 592.149957 
L 789.804394 578.415872 
L 790.830223 582.782847 
L 791.856053 577.571093 
L 792.881883 593.632556 
L 793.907712 573.563323 
L 794.933542 582.915413 
L 795.959371 579.758782 
L 796.985201 576.004101 
L 798.01103 592.155561 
L 799.03686 587.628977 
L 800.06269 580.611119 
L 801.088519 586.596664 
L 802.114349 581.952495 
L 803.140178 586.08889 
L 804.166008 580.988033 
L 805.191837 587.535699 
L 806.217667 580.111523 
L 807.243497 585.484626 
L 808.269326 580.740331 
L 809.295156 589.331015 
L 810.320985 580.86758 
L 811.346815 586.201053 
L 812.372645 582.252417 
L 813.398474 588.153194 
L 814.424304 581.978775 
L 815.450133 589.25605 
L 816.475963 581.834491 
L 817.501792 587.971501 
L 818.527622 581.8145 
L 819.553452 587.873763 
L 820.579281 581.446846 
L 821.605111 587.636261 
L 822.63094 583.787172 
L 823.65677 588.182341 
L 824.6826 582.440331 
L 825.708429 588.313554 
L 826.734259 586.687809 
L 827.760088 586.933548 
L 828.785918 583.316365 
L 829.811747 588.34847 
L 830.837577 585.237578 
L 831.863407 588.349112 
L 832.889236 585.010264 
L 833.915066 589.376113 
L 834.940895 608.210076 
L 835.966725 588.221776 
L 836.992554 582.729979 
L 838.018384 593.723275 
L 839.044214 585.897828 
L 840.070043 589.780311 
L 841.095873 586.983119 
L 842.121702 591.03323 
L 843.147532 598.812268 
L 844.173362 589.408867 
L 845.199191 585.927797 
L 846.225021 589.364727 
L 847.25085 585.838136 
L 848.27668 590.01183 
L 849.302509 583.420928 
L 850.328339 590.199386 
L 851.354169 590.507513 
L 852.379998 592.483973 
L 853.405828 586.679635 
L 854.431657 595.875201 
L 855.457487 584.374425 
L 856.483316 591.595948 
L 857.509146 586.458425 
L 858.534976 592.039787 
L 859.560805 595.37747 
L 860.586635 593.419795 
L 861.612464 585.503011 
L 862.638294 593.018093 
L 863.664124 589.955024 
L 864.689953 592.3573 
L 865.715783 592.968916 
L 866.741612 590.753076 
L 867.767442 589.745659 
L 868.793271 593.660568 
L 869.819101 590.228095 
L 870.844931 590.430653 
L 871.87076 585.601492 
L 872.89659 591.796789 
L 873.922419 586.282083 
L 874.948249 592.041207 
L 875.974078 589.313072 
L 876.999908 597.718128 
L 878.025738 586.203969 
L 879.051567 592.03667 
L 880.077397 587.048858 
L 881.103226 592.336117 
L 882.129056 589.093711 
L 883.154886 591.965182 
L 884.180715 583.793053 
L 885.206545 592.064496 
L 886.232374 590.487338 
L 887.258204 594.334274 
L 888.284033 591.176852 
L 889.309863 595.157646 
L 890.335693 589.257483 
L 891.361522 593.545145 
L 892.387352 584.884467 
L 893.413181 593.619103 
L 894.439011 588.506713 
L 895.464841 592.976276 
L 896.49067 589.852292 
L 897.5165 593.206721 
L 898.542329 587.053945 
L 899.568159 592.494772 
L 900.593988 588.16593 
L 901.619818 593.477121 
L 902.645648 596.035321 
L 903.671477 596.302485 
L 904.697307 591.274918 
L 905.723136 595.219423 
L 906.748966 589.815865 
L 907.774795 594.45828 
L 908.800625 587.628444 
L 909.826455 594.05667 
L 910.852284 590.604592 
L 911.878114 595.143666 
L 912.903943 589.513303 
L 913.929773 593.139603 
L 914.955603 589.540614 
L 915.981432 594.53807 
L 917.007262 588.832011 
L 918.033091 594.415085 
L 919.058921 589.759748 
L 920.08475 593.324777 
L 921.11058 590.437125 
L 922.13641 595.205834 
L 923.162239 589.954833 
L 924.188069 595.864223 
L 925.213898 591.55111 
L 926.239728 594.331684 
L 927.265557 591.838455 
L 928.291387 595.249781 
L 929.317217 591.009251 
L 930.343046 575.861161 
L 931.368876 590.174714 
L 932.394705 595.740958 
L 933.420535 590.122617 
L 934.446365 594.753657 
L 935.472194 590.679651 
L 936.498024 595.094177 
L 937.523853 590.76856 
L 938.549683 595.726024 
L 939.575512 589.227791 
L 940.601342 594.791685 
L 941.627172 592.257648 
L 942.653001 596.216642 
L 943.678831 596.61063 
L 944.70466 594.941152 
L 945.73049 590.349565 
L 946.75632 596.134318 
L 947.782149 591.918377 
L 948.807979 595.724888 
L 949.833808 592.502673 
L 950.859638 595.347166 
L 951.885467 592.010286 
L 952.911297 596.256033 
L 953.937127 599.98513 
L 955.988786 593.690362 
L 957.014615 597.40182 
L 958.040445 592.010786 
L 959.066274 598.773757 
L 960.092104 590.981324 
L 961.117934 596.253769 
L 962.143763 592.875374 
L 963.169593 598.661381 
L 964.195422 592.809244 
L 965.221252 598.100825 
L 966.247082 594.001185 
L 967.272911 587.07771 
L 968.298741 577.587488 
L 970.3504 591.115577 
L 971.376229 601.118177 
L 972.402059 593.693278 
L 973.427889 601.120875 
L 974.453718 593.02921 
L 975.479548 596.251162 
L 976.505377 593.103452 
L 977.531207 597.6355 
L 978.557036 593.475311 
L 979.582866 598.188284 
L 980.608696 591.761522 
L 981.634525 603.675271 
L 982.660355 594.84018 
L 983.686184 597.54909 
L 984.712014 594.212051 
L 985.737844 597.699752 
L 986.763673 602.120177 
L 987.789503 597.464903 
L 988.815332 594.575694 
L 989.841162 598.737026 
L 990.866991 599.210049 
L 991.892821 597.357189 
L 992.918651 594.581059 
L 993.94448 598.429728 
L 994.97031 593.076333 
L 995.996139 600.04083 
L 997.021969 594.97372 
L 998.047799 598.355924 
L 999.073628 594.151644 
L 1000.099458 598.494092 
L 1001.125287 591.06116 
L 1002.151117 598.577395 
L 1003.176946 595.001026 
L 1004.202776 598.866034 
L 1005.228606 594.88657 
L 1006.254435 594.137268 
L 1007.280265 591.283837 
L 1008.306094 603.885151 
L 1009.331924 601.357163 
L 1010.357753 599.432174 
L 1011.383583 595.132852 
L 1012.409413 600.345548 
L 1013.435242 596.277635 
L 1014.461072 598.696331 
L 1015.486901 594.269252 
L 1016.512731 597.503557 
L 1017.538561 594.338968 
L 1018.56439 601.171834 
L 1019.59022 595.698596 
L 1020.616049 598.654308 
L 1021.641879 594.716875 
L 1022.667708 599.309797 
L 1023.693538 596.138612 
L 1024.719368 596.493825 
L 1025.745197 594.018952 
L 1026.771027 600.37585 
L 1027.796856 610.854773 
L 1028.822686 600.028782 
L 1029.848515 600.500358 
L 1030.874345 599.381947 
L 1031.900175 596.57435 
L 1032.926004 600.53963 
L 1033.951834 596.062032 
L 1034.977663 600.955544 
L 1036.003493 598.546926 
L 1037.029323 599.586556 
L 1038.055152 594.939386 
L 1039.080982 600.758027 
L 1040.106811 592.864284 
L 1041.132641 581.727472 
L 1042.15847 598.462689 
L 1043.1843 601.740781 
L 1044.21013 602.382741 
L 1045.235959 603.343963 
L 1046.261789 599.221658 
L 1047.287618 601.565388 
L 1048.313448 597.187832 
L 1049.339278 602.070833 
L 1050.365107 597.255274 
L 1051.390937 600.477386 
L 1052.416766 596.37363 
L 1053.442596 600.480014 
L 1054.468425 597.146567 
L 1055.494255 600.95622 
L 1056.520085 595.911992 
L 1057.545914 600.921523 
L 1058.571744 596.893974 
L 1059.597573 600.83312 
L 1060.623403 596.815496 
L 1061.649232 602.691319 
L 1062.675062 598.840609 
L 1063.700892 602.305764 
L 1064.726721 598.436455 
L 1065.752551 602.417986 
L 1066.77838 597.39716 
L 1067.80421 601.950805 
L 1068.83004 597.610716 
L 1069.855869 601.420306 
L 1070.881699 599.962861 
L 1071.907528 601.926774 
L 1072.933358 598.535019 
L 1073.959187 601.964242 
L 1074.985017 596.692055 
L 1076.010847 601.789393 
L 1077.036676 597.365024 
L 1078.062506 601.276523 
L 1079.088335 597.168097 
L 1080.114165 602.503547 
L 1081.139994 598.669913 
L 1082.165824 602.964686 
L 1083.191654 598.503854 
L 1084.217483 600.678389 
L 1085.243313 594.642059 
L 1086.269142 601.043107 
L 1087.294972 597.516322 
L 1088.320802 579.015892 
L 1089.346631 594.241884 
L 1090.372461 597.771854 
L 1091.39829 590.394706 
L 1092.42412 599.971952 
L 1093.449949 593.370231 
L 1094.475779 596.235995 
L 1095.501609 595.086164 
L 1096.527438 601.341716 
L 1097.553268 588.078875 
L 1098.579097 598.912259 
L 1099.604927 598.547468 
L 1100.630757 602.214274 
L 1101.656586 598.08303 
L 1102.682416 599.85271 
L 1103.708245 602.604703 
L 1104.734075 602.991684 
L 1105.759904 596.848766 
L 1106.785734 602.075202 
L 1107.811564 595.731367 
L 1108.837393 612.056159 
L 1109.863223 598.255391 
L 1110.889052 603.072616 
L 1111.914882 597.35991 
L 1112.940711 604.02864 
L 1113.966541 600.97805 
L 1114.992371 605.861084 
L 1116.0182 599.69752 
L 1117.04403 594.392425 
L 1118.069859 600.68605 
L 1119.095689 603.931394 
L 1120.121519 602.209942 
L 1121.147348 601.542393 
L 1122.173178 600.067456 
L 1123.199007 603.17616 
L 1124.224837 599.618204 
L 1125.250666 603.227391 
L 1126.276496 601.822091 
L 1127.302326 603.422512 
L 1128.328155 599.401672 
L 1129.353985 604.257867 
L 1130.379814 598.705334 
L 1131.405644 603.529743 
L 1132.431473 599.496249 
L 1133.457303 601.980677 
L 1134.483133 597.471816 
L 1135.508962 600.389567 
L 1136.534792 597.742152 
L 1137.560621 604.370444 
L 1138.586451 600.068212 
L 1139.612281 597.060781 
L 1140.63811 600.119146 
L 1141.66394 603.831012 
L 1142.689769 601.307256 
L 1143.715599 604.574713 
L 1144.741428 599.798619 
L 1145.767258 604.578295 
L 1146.793088 600.100715 
L 1147.818917 604.375 
L 1148.844747 601.868458 
L 1149.870576 604.830454 
L 1150.896406 600.492619 
L 1151.922235 604.944737 
L 1152.948065 601.249528 
L 1153.973895 605.162759 
L 1154.999724 601.355815 
L 1156.025554 604.732628 
L 1157.051383 600.557707 
L 1158.077213 604.823571 
L 1159.103043 603.839783 
L 1160.128872 604.855402 
L 1161.154702 601.023666 
L 1162.180531 604.932013 
L 1163.206361 600.944911 
L 1164.23219 604.792281 
L 1165.25802 600.759532 
L 1166.28385 606.340107 
L 1167.309679 602.077181 
L 1168.335509 606.056942 
L 1169.361338 602.229029 
L 1170.387168 604.978027 
L 1171.412998 599.737793 
L 1172.438827 608.120018 
L 1173.464657 601.796437 
L 1174.490486 605.817492 
L 1175.516316 602.163944 
L 1176.542145 604.852361 
L 1177.567975 601.706272 
L 1178.593805 603.330754 
L 1179.619634 601.810832 
L 1180.645464 605.284989 
L 1181.671293 604.504021 
L 1182.697123 607.214164 
L 1183.722952 602.205092 
L 1184.748782 605.812573 
L 1185.774612 583.786592 
L 1186.800441 606.648349 
L 1187.826271 603.000719 
L 1188.8521 605.876417 
L 1189.87793 602.291436 
L 1190.90376 605.133681 
L 1191.929589 602.202788 
L 1192.955419 605.52261 
L 1193.981248 601.450835 
L 1195.007078 604.033126 
L 1196.032907 603.732743 
L 1197.058737 606.884387 
L 1198.084567 602.064631 
L 1199.110396 605.339657 
L 1200.136226 602.57647 
L 1201.162055 606.678785 
L 1202.187885 602.321348 
L 1203.213714 605.889066 
L 1204.239544 610.201179 
L 1205.265374 606.019663 
L 1206.291203 603.280173 
L 1207.317033 615.6 
L 1208.342862 589.549567 
L 1209.368692 606.657958 
L 1210.394522 607.572396 
L 1211.420351 605.918947 
L 1212.446181 602.815806 
L 1213.47201 605.298786 
L 1214.49784 603.05246 
L 1215.523669 606.370414 
L 1216.549499 603.310324 
L 1217.575329 594.031043 
L 1218.601158 604.665996 
L 1219.626988 608.690374 
L 1220.652817 603.257763 
L 1221.678647 606.636777 
L 1222.704477 603.082729 
L 1223.730306 606.987845 
L 1224.756136 603.618645 
L 1225.781965 606.808715 
L 1226.807795 602.595075 
L 1227.833624 608.739519 
L 1228.859454 603.4136 
L 1229.885284 606.651635 
L 1230.911113 535.380374 
L 1231.936943 606.998752 
L 1232.962772 602.127589 
L 1233.988602 608.280459 
L 1235.014431 602.820972 
L 1236.040261 607.43779 
L 1237.066091 602.124073 
L 1238.09192 607.320388 
L 1239.11775 614.776761 
L 1240.143579 607.264127 
L 1241.169409 602.651117 
L 1242.195239 607.058936 
L 1243.221068 602.376414 
L 1244.246898 608.819947 
L 1245.272727 601.965704 
L 1245.272727 601.965704 
" style="fill:none;stroke:#ff7f0e;stroke-linecap:square;stroke-width:1.5;"/>
   </g>
   <g id="patch_3">
    <path d="M 180 640.8 
L 180 86.4 
" style="fill:none;stroke:#000000;stroke-linecap:square;stroke-linejoin:miter;stroke-width:0.8;"/>
   </g>
   <g id="patch_4">
    <path d="M 1296 640.8 
L 1296 86.4 
" style="fill:none;stroke:#000000;stroke-linecap:square;stroke-linejoin:miter;stroke-width:0.8;"/>
   </g>
   <g id="patch_5">
    <path d="M 180 640.8 
L 1296 640.8 
" style="fill:none;stroke:#000000;stroke-linecap:square;stroke-linejoin:miter;stroke-width:0.8;"/>
   </g>
   <g id="patch_6">
    <path d="M 180 86.4 
L 1296 86.4 
" style="fill:none;stroke:#000000;stroke-linecap:square;stroke-linejoin:miter;stroke-width:0.8;"/>
   </g>
   <g id="text_20">
    <!-- Accumulation/Distribution Index (ADI) Speedup -->
    <defs>
     <path d="M 34.1875 63.1875 
L 20.796875 26.90625 
L 47.609375 26.90625 
z
M 28.609375 72.90625 
L 39.796875 72.90625 
L 67.578125 0 
L 57.328125 0 
L 50.6875 18.703125 
L 17.828125 18.703125 
L 11.1875 0 
L 0.78125 0 
z
" id="DejaVuSans-65"/>
     <path d="M 48.78125 52.59375 
L 48.78125 44.1875 
Q 44.96875 46.296875 41.140625 47.34375 
Q 37.3125 48.390625 33.40625 48.390625 
Q 24.65625 48.390625 19.8125 42.84375 
Q 14.984375 37.3125 14.984375 27.296875 
Q 14.984375 17.28125 19.8125 11.734375 
Q 24.65625 6.203125 33.40625 6.203125 
Q 37.3125 6.203125 41.140625 7.25 
Q 44.96875 8.296875 48.78125 10.40625 
L 48.78125 2.09375 
Q 45.015625 0.34375 40.984375 -0.53125 
Q 36.96875 -1.421875 32.421875 -1.421875 
Q 20.0625 -1.421875 12.78125 6.34375 
Q 5.515625 14.109375 5.515625 27.296875 
Q 5.515625 40.671875 12.859375 48.328125 
Q 20.21875 56 33.015625 56 
Q 37.15625 56 41.109375 55.140625 
Q 45.0625 54.296875 48.78125 52.59375 
z
" id="DejaVuSans-99"/>
     <path d="M 52 44.1875 
Q 55.375 50.25 60.0625 53.125 
Q 64.75 56 71.09375 56 
Q 79.640625 56 84.28125 50.015625 
Q 88.921875 44.046875 88.921875 33.015625 
L 88.921875 0 
L 79.890625 0 
L 79.890625 32.71875 
Q 79.890625 40.578125 77.09375 44.375 
Q 74.3125 48.1875 68.609375 48.1875 
Q 61.625 48.1875 57.5625 43.546875 
Q 53.515625 38.921875 53.515625 30.90625 
L 53.515625 0 
L 44.484375 0 
L 44.484375 32.71875 
Q 44.484375 40.625 41.703125 44.40625 
Q 38.921875 48.1875 33.109375 48.1875 
Q 26.21875 48.1875 22.15625 43.53125 
Q 18.109375 38.875 18.109375 30.90625 
L 18.109375 0 
L 9.078125 0 
L 9.078125 54.6875 
L 18.109375 54.6875 
L 18.109375 46.1875 
Q 21.1875 51.21875 25.484375 53.609375 
Q 29.78125 56 35.6875 56 
Q 41.65625 56 45.828125 52.96875 
Q 50 49.953125 52 44.1875 
z
" id="DejaVuSans-109"/>
     <path d="M 9.421875 75.984375 
L 18.40625 75.984375 
L 18.40625 0 
L 9.421875 0 
z
" id="DejaVuSans-108"/>
     <path d="M 34.28125 27.484375 
Q 23.390625 27.484375 19.1875 25 
Q 14.984375 22.515625 14.984375 16.5 
Q 14.984375 11.71875 18.140625 8.90625 
Q 21.296875 6.109375 26.703125 6.109375 
Q 34.1875 6.109375 38.703125 11.40625 
Q 43.21875 16.703125 43.21875 25.484375 
L 43.21875 27.484375 
z
M 52.203125 31.203125 
L 52.203125 0 
L 43.21875 0 
L 43.21875 8.296875 
Q 40.140625 3.328125 35.546875 0.953125 
Q 30.953125 -1.421875 24.3125 -1.421875 
Q 15.921875 -1.421875 10.953125 3.296875 
Q 6 8.015625 6 15.921875 
Q 6 25.140625 12.171875 29.828125 
Q 18.359375 34.515625 30.609375 34.515625 
L 43.21875 34.515625 
L 43.21875 35.40625 
Q 43.21875 41.609375 39.140625 45 
Q 35.0625 48.390625 27.6875 48.390625 
Q 23 48.390625 18.546875 47.265625 
Q 14.109375 46.140625 10.015625 43.890625 
L 10.015625 52.203125 
Q 14.9375 54.109375 19.578125 55.046875 
Q 24.21875 56 28.609375 56 
Q 40.484375 56 46.34375 49.84375 
Q 52.203125 43.703125 52.203125 31.203125 
z
" id="DejaVuSans-97"/>
     <path d="M 18.3125 70.21875 
L 18.3125 54.6875 
L 36.8125 54.6875 
L 36.8125 47.703125 
L 18.3125 47.703125 
L 18.3125 18.015625 
Q 18.3125 11.328125 20.140625 9.421875 
Q 21.96875 7.515625 27.59375 7.515625 
L 36.8125 7.515625 
L 36.8125 0 
L 27.59375 0 
Q 17.1875 0 13.234375 3.875 
Q 9.28125 7.765625 9.28125 18.015625 
L 9.28125 47.703125 
L 2.6875 47.703125 
L 2.6875 54.6875 
L 9.28125 54.6875 
L 9.28125 70.21875 
z
" id="DejaVuSans-116"/>
     <path d="M 9.421875 54.6875 
L 18.40625 54.6875 
L 18.40625 0 
L 9.421875 0 
z
M 9.421875 75.984375 
L 18.40625 75.984375 
L 18.40625 64.59375 
L 9.421875 64.59375 
z
" id="DejaVuSans-105"/>
     <path d="M 30.609375 48.390625 
Q 23.390625 48.390625 19.1875 42.75 
Q 14.984375 37.109375 14.984375 27.296875 
Q 14.984375 17.484375 19.15625 11.84375 
Q 23.34375 6.203125 30.609375 6.203125 
Q 37.796875 6.203125 41.984375 11.859375 
Q 46.1875 17.53125 46.1875 27.296875 
Q 46.1875 37.015625 41.984375 42.703125 
Q 37.796875 48.390625 30.609375 48.390625 
z
M 30.609375 56 
Q 42.328125 56 49.015625 48.375 
Q 55.71875 40.765625 55.71875 27.296875 
Q 55.71875 13.875 49.015625 6.21875 
Q 42.328125 -1.421875 30.609375 -1.421875 
Q 18.84375 -1.421875 12.171875 6.21875 
Q 5.515625 13.875 5.515625 27.296875 
Q 5.515625 40.765625 12.171875 48.375 
Q 18.84375 56 30.609375 56 
z
" id="DejaVuSans-111"/>
     <path d="M 25.390625 72.90625 
L 33.6875 72.90625 
L 8.296875 -9.28125 
L 0 -9.28125 
z
" id="DejaVuSans-47"/>
     <path d="M 19.671875 64.796875 
L 19.671875 8.109375 
L 31.59375 8.109375 
Q 46.6875 8.109375 53.6875 14.9375 
Q 60.6875 21.78125 60.6875 36.53125 
Q 60.6875 51.171875 53.6875 57.984375 
Q 46.6875 64.796875 31.59375 64.796875 
z
M 9.8125 72.90625 
L 30.078125 72.90625 
Q 51.265625 72.90625 61.171875 64.09375 
Q 71.09375 55.28125 71.09375 36.53125 
Q 71.09375 17.671875 61.125 8.828125 
Q 51.171875 0 30.078125 0 
L 9.8125 0 
z
" id="DejaVuSans-68"/>
     <path d="M 41.109375 46.296875 
Q 39.59375 47.171875 37.8125 47.578125 
Q 36.03125 48 33.890625 48 
Q 26.265625 48 22.1875 43.046875 
Q 18.109375 38.09375 18.109375 28.8125 
L 18.109375 0 
L 9.078125 0 
L 9.078125 54.6875 
L 18.109375 54.6875 
L 18.109375 46.1875 
Q 20.953125 51.171875 25.484375 53.578125 
Q 30.03125 56 36.53125 56 
Q 37.453125 56 38.578125 55.875 
Q 39.703125 55.765625 41.0625 55.515625 
z
" id="DejaVuSans-114"/>
     <path d="M 48.6875 27.296875 
Q 48.6875 37.203125 44.609375 42.84375 
Q 40.53125 48.484375 33.40625 48.484375 
Q 26.265625 48.484375 22.1875 42.84375 
Q 18.109375 37.203125 18.109375 27.296875 
Q 18.109375 17.390625 22.1875 11.75 
Q 26.265625 6.109375 33.40625 6.109375 
Q 40.53125 6.109375 44.609375 11.75 
Q 48.6875 17.390625 48.6875 27.296875 
z
M 18.109375 46.390625 
Q 20.953125 51.265625 25.265625 53.625 
Q 29.59375 56 35.59375 56 
Q 45.5625 56 51.78125 48.09375 
Q 58.015625 40.1875 58.015625 27.296875 
Q 58.015625 14.40625 51.78125 6.484375 
Q 45.5625 -1.421875 35.59375 -1.421875 
Q 29.59375 -1.421875 25.265625 0.953125 
Q 20.953125 3.328125 18.109375 8.203125 
L 18.109375 0 
L 9.078125 0 
L 9.078125 75.984375 
L 18.109375 75.984375 
z
" id="DejaVuSans-98"/>
     <path id="DejaVuSans-32"/>
     <path d="M 9.8125 72.90625 
L 19.671875 72.90625 
L 19.671875 0 
L 9.8125 0 
z
" id="DejaVuSans-73"/>
     <path d="M 54.890625 54.6875 
L 35.109375 28.078125 
L 55.90625 0 
L 45.3125 0 
L 29.390625 21.484375 
L 13.484375 0 
L 2.875 0 
L 24.125 28.609375 
L 4.6875 54.6875 
L 15.28125 54.6875 
L 29.78125 35.203125 
L 44.28125 54.6875 
z
" id="DejaVuSans-120"/>
     <path d="M 31 75.875 
Q 24.46875 64.65625 21.28125 53.65625 
Q 18.109375 42.671875 18.109375 31.390625 
Q 18.109375 20.125 21.3125 9.0625 
Q 24.515625 -2 31 -13.1875 
L 23.1875 -13.1875 
Q 15.875 -1.703125 12.234375 9.375 
Q 8.59375 20.453125 8.59375 31.390625 
Q 8.59375 42.28125 12.203125 53.3125 
Q 15.828125 64.359375 23.1875 75.875 
z
" id="DejaVuSans-40"/>
     <path d="M 8.015625 75.875 
L 15.828125 75.875 
Q 23.140625 64.359375 26.78125 53.3125 
Q 30.421875 42.28125 30.421875 31.390625 
Q 30.421875 20.453125 26.78125 9.375 
Q 23.140625 -1.703125 15.828125 -13.1875 
L 8.015625 -13.1875 
Q 14.5 -2 17.703125 9.0625 
Q 20.90625 20.125 20.90625 31.390625 
Q 20.90625 42.671875 17.703125 53.65625 
Q 14.5 64.65625 8.015625 75.875 
z
" id="DejaVuSans-41"/>
     <path d="M 53.515625 70.515625 
L 53.515625 60.890625 
Q 47.90625 63.578125 42.921875 64.890625 
Q 37.9375 66.21875 33.296875 66.21875 
Q 25.25 66.21875 20.875 63.09375 
Q 16.5 59.96875 16.5 54.203125 
Q 16.5 49.359375 19.40625 46.890625 
Q 22.3125 44.4375 30.421875 42.921875 
L 36.375 41.703125 
Q 47.40625 39.59375 52.65625 34.296875 
Q 57.90625 29 57.90625 20.125 
Q 57.90625 9.515625 50.796875 4.046875 
Q 43.703125 -1.421875 29.984375 -1.421875 
Q 24.8125 -1.421875 18.96875 -0.25 
Q 13.140625 0.921875 6.890625 3.21875 
L 6.890625 13.375 
Q 12.890625 10.015625 18.65625 8.296875 
Q 24.421875 6.59375 29.984375 6.59375 
Q 38.421875 6.59375 43.015625 9.90625 
Q 47.609375 13.234375 47.609375 19.390625 
Q 47.609375 24.75 44.3125 27.78125 
Q 41.015625 30.8125 33.5 32.328125 
L 27.484375 33.5 
Q 16.453125 35.6875 11.515625 40.375 
Q 6.59375 45.0625 6.59375 53.421875 
Q 6.59375 63.09375 13.40625 68.65625 
Q 20.21875 74.21875 32.171875 74.21875 
Q 37.3125 74.21875 42.625 73.28125 
Q 47.953125 72.359375 53.515625 70.515625 
z
" id="DejaVuSans-83"/>
    </defs>
    <g transform="translate(596.25375 80.4)scale(0.12 -0.12)">
     <use xlink:href="#DejaVuSans-65"/>
     <use x="66.658203" xlink:href="#DejaVuSans-99"/>
     <use x="121.638672" xlink:href="#DejaVuSans-99"/>
     <use x="176.619141" xlink:href="#DejaVuSans-117"/>
     <use x="239.998047" xlink:href="#DejaVuSans-109"/>
     <use x="337.410156" xlink:href="#DejaVuSans-117"/>
     <use x="400.789062" xlink:href="#DejaVuSans-108"/>
     <use x="428.572266" xlink:href="#DejaVuSans-97"/>
     <use x="489.851562" xlink:href="#DejaVuSans-116"/>
     <use x="529.060547" xlink:href="#DejaVuSans-105"/>
     <use x="556.84375" xlink:href="#DejaVuSans-111"/>
     <use x="618.025391" xlink:href="#DejaVuSans-110"/>
     <use x="681.404297" xlink:href="#DejaVuSans-47"/>
     <use x="715.095703" xlink:href="#DejaVuSans-68"/>
     <use x="792.097656" xlink:href="#DejaVuSans-105"/>
     <use x="819.880859" xlink:href="#DejaVuSans-115"/>
     <use x="871.980469" xlink:href="#DejaVuSans-116"/>
     <use x="911.189453" xlink:href="#DejaVuSans-114"/>
     <use x="952.302734" xlink:href="#DejaVuSans-105"/>
     <use x="980.085938" xlink:href="#DejaVuSans-98"/>
     <use x="1043.5625" xlink:href="#DejaVuSans-117"/>
     <use x="1106.941406" xlink:href="#DejaVuSans-116"/>
     <use x="1146.150391" xlink:href="#DejaVuSans-105"/>
     <use x="1173.933594" xlink:href="#DejaVuSans-111"/>
     <use x="1235.115234" xlink:href="#DejaVuSans-110"/>
     <use x="1298.494141" xlink:href="#DejaVuSans-32"/>
     <use x="1330.28125" xlink:href="#DejaVuSans-73"/>
     <use x="1359.773438" xlink:href="#DejaVuSans-110"/>
     <use x="1423.152344" xlink:href="#DejaVuSans-100"/>
     <use x="1486.628906" xlink:href="#DejaVuSans-101"/>
     <use x="1546.402344" xlink:href="#DejaVuSans-120"/>
     <use x="1605.582031" xlink:href="#DejaVuSans-32"/>
     <use x="1637.369141" xlink:href="#DejaVuSans-40"/>
     <use x="1676.382812" xlink:href="#DejaVuSans-65"/>
     <use x="1744.791016" xlink:href="#DejaVuSans-68"/>
     <use x="1821.792969" xlink:href="#DejaVuSans-73"/>
     <use x="1851.285156" xlink:href="#DejaVuSans-41"/>
     <use x="1890.298828" xlink:href="#DejaVuSans-32"/>
     <use x="1922.085938" xlink:href="#DejaVuSans-83"/>
     <use x="1985.5625" xlink:href="#DejaVuSans-112"/>
     <use x="2049.039062" xlink:href="#DejaVuSans-101"/>
     <use x="2110.5625" xlink:href="#DejaVuSans-101"/>
     <use x="2172.085938" xlink:href="#DejaVuSans-100"/>
     <use x="2235.5625" xlink:href="#DejaVuSans-117"/>
     <use x="2298.941406" xlink:href="#DejaVuSans-112"/>
    </g>
   </g>
   <g id="legend_1">
    <g id="patch_7">
     <path d="M 1185.373437 123.75625 
L 1289 123.75625 
Q 1291 123.75625 1291 121.75625 
L 1291 93.4 
Q 1291 91.4 1289 91.4 
L 1185.373437 91.4 
Q 1183.373437 91.4 1183.373437 93.4 
L 1183.373437 121.75625 
Q 1183.373437 123.75625 1185.373437 123.75625 
z
" style="fill:#ffffff;opacity:0.8;stroke:#cccccc;stroke-linejoin:miter;"/>
    </g>
    <g id="line2d_20">
     <path d="M 1187.373437 99.498437 
L 1207.373437 99.498437 
" style="fill:none;stroke:#1f77b4;stroke-linecap:square;stroke-width:1.5;"/>
    </g>
    <g id="line2d_21"/>
    <g id="text_21">
     <!-- numpy.float32 -->
     <defs>
      <path d="M 32.171875 -5.078125 
Q 28.375 -14.84375 24.75 -17.8125 
Q 21.140625 -20.796875 15.09375 -20.796875 
L 7.90625 -20.796875 
L 7.90625 -13.28125 
L 13.1875 -13.28125 
Q 16.890625 -13.28125 18.9375 -11.515625 
Q 21 -9.765625 23.484375 -3.21875 
L 25.09375 0.875 
L 2.984375 54.6875 
L 12.5 54.6875 
L 29.59375 11.921875 
L 46.6875 54.6875 
L 56.203125 54.6875 
z
" id="DejaVuSans-121"/>
      <path d="M 37.109375 75.984375 
L 37.109375 68.5 
L 28.515625 68.5 
Q 23.6875 68.5 21.796875 66.546875 
Q 19.921875 64.59375 19.921875 59.515625 
L 19.921875 54.6875 
L 34.71875 54.6875 
L 34.71875 47.703125 
L 19.921875 47.703125 
L 19.921875 0 
L 10.890625 0 
L 10.890625 47.703125 
L 2.296875 47.703125 
L 2.296875 54.6875 
L 10.890625 54.6875 
L 10.890625 58.5 
Q 10.890625 67.625 15.140625 71.796875 
Q 19.390625 75.984375 28.609375 75.984375 
z
" id="DejaVuSans-102"/>
     </defs>
     <g transform="translate(1215.373437 102.998437)scale(0.1 -0.1)">
      <use xlink:href="#DejaVuSans-110"/>
      <use x="63.378906" xlink:href="#DejaVuSans-117"/>
      <use x="126.757812" xlink:href="#DejaVuSans-109"/>
      <use x="224.169922" xlink:href="#DejaVuSans-112"/>
      <use x="287.646484" xlink:href="#DejaVuSans-121"/>
      <use x="332.576172" xlink:href="#DejaVuSans-46"/>
      <use x="364.363281" xlink:href="#DejaVuSans-102"/>
      <use x="399.568359" xlink:href="#DejaVuSans-108"/>
      <use x="427.351562" xlink:href="#DejaVuSans-111"/>
      <use x="488.533203" xlink:href="#DejaVuSans-97"/>
      <use x="549.8125" xlink:href="#DejaVuSans-116"/>
      <use x="589.021484" xlink:href="#DejaVuSans-51"/>
      <use x="652.644531" xlink:href="#DejaVuSans-50"/>
     </g>
    </g>
    <g id="line2d_22">
     <path d="M 1187.373437 114.176562 
L 1207.373437 114.176562 
" style="fill:none;stroke:#ff7f0e;stroke-linecap:square;stroke-width:1.5;"/>
    </g>
    <g id="line2d_23"/>
    <g id="text_22">
     <!-- numpy.float64 -->
     <g transform="translate(1215.373437 117.676562)scale(0.1 -0.1)">
      <use xlink:href="#DejaVuSans-110"/>
      <use x="63.378906" xlink:href="#DejaVuSans-117"/>
      <use x="126.757812" xlink:href="#DejaVuSans-109"/>
      <use x="224.169922" xlink:href="#DejaVuSans-112"/>
      <use x="287.646484" xlink:href="#DejaVuSans-121"/>
      <use x="332.576172" xlink:href="#DejaVuSans-46"/>
      <use x="364.363281" xlink:href="#DejaVuSans-102"/>
      <use x="399.568359" xlink:href="#DejaVuSans-108"/>
      <use x="427.351562" xlink:href="#DejaVuSans-111"/>
      <use x="488.533203" xlink:href="#DejaVuSans-97"/>
      <use x="549.8125" xlink:href="#DejaVuSans-116"/>
      <use x="589.021484" xlink:href="#DejaVuSans-54"/>
      <use x="652.644531" xlink:href="#DejaVuSans-52"/>
     </g>
    </g>
   </g>
  </g>
 </g>
 <defs>
  <clipPath id="pc71e94369a">
   <rect height="554.4" width="1116" x="180" y="86.4"/>
  </clipPath>
 </defs>
</svg>
