<?xml version="1.0" encoding="utf-8" standalone="no"?>
<!DOCTYPE svg PUBLIC "-//W3C//DTD SVG 1.1//EN"
  "http://www.w3.org/Graphics/SVG/1.1/DTD/svg11.dtd">
<!-- Created with matplotlib (https://matplotlib.org/) -->
<svg height="720pt" version="1.1" viewBox="0 0 1440 720" width="1440pt" xmlns="http://www.w3.org/2000/svg" xmlns:xlink="http://www.w3.org/1999/xlink">
 <defs>
  <style type="text/css">
*{stroke-linecap:butt;stroke-linejoin:round;}
  </style>
 </defs>
 <g id="figure_1">
  <g id="patch_1">
   <path d="M 0 720 
L 1440 720 
L 1440 0 
L 0 0 
z
" style="fill:#ffffff;"/>
  </g>
  <g id="axes_1">
   <g id="patch_2">
    <path d="M 180 640.8 
L 1296 640.8 
L 1296 86.4 
L 180 86.4 
z
" style="fill:#ffffff;"/>
   </g>
   <g id="matplotlib.axis_1">
    <g id="xtick_1">
     <g id="line2d_1">
      <defs>
       <path d="M 0 0 
L 0 3.5 
" id="ma074d50b70" style="stroke:#000000;stroke-width:0.8;"/>
      </defs>
      <g>
       <use style="stroke:#000000;stroke-width:0.8;" x="333.310231" xlink:href="#ma074d50b70" y="640.8"/>
      </g>
     </g>
     <g id="text_1">
      <!-- 100.0 -->
      <defs>
       <path d="M 12.40625 8.296875 
L 28.515625 8.296875 
L 28.515625 63.921875 
L 10.984375 60.40625 
L 10.984375 69.390625 
L 28.421875 72.90625 
L 38.28125 72.90625 
L 38.28125 8.296875 
L 54.390625 8.296875 
L 54.390625 0 
L 12.40625 0 
z
" id="DejaVuSans-49"/>
       <path d="M 31.78125 66.40625 
Q 24.171875 66.40625 20.328125 58.90625 
Q 16.5 51.421875 16.5 36.375 
Q 16.5 21.390625 20.328125 13.890625 
Q 24.171875 6.390625 31.78125 6.390625 
Q 39.453125 6.390625 43.28125 13.890625 
Q 47.125 21.390625 47.125 36.375 
Q 47.125 51.421875 43.28125 58.90625 
Q 39.453125 66.40625 31.78125 66.40625 
z
M 31.78125 74.21875 
Q 44.046875 74.21875 50.515625 64.515625 
Q 56.984375 54.828125 56.984375 36.375 
Q 56.984375 17.96875 50.515625 8.265625 
Q 44.046875 -1.421875 31.78125 -1.421875 
Q 19.53125 -1.421875 13.0625 8.265625 
Q 6.59375 17.96875 6.59375 36.375 
Q 6.59375 54.828125 13.0625 64.515625 
Q 19.53125 74.21875 31.78125 74.21875 
z
" id="DejaVuSans-48"/>
       <path d="M 10.6875 12.40625 
L 21 12.40625 
L 21 0 
L 10.6875 0 
z
" id="DejaVuSans-46"/>
      </defs>
      <g transform="translate(318.996168 655.398438)scale(0.1 -0.1)">
       <use xlink:href="#DejaVuSans-49"/>
       <use x="63.623047" xlink:href="#DejaVuSans-48"/>
       <use x="127.246094" xlink:href="#DejaVuSans-48"/>
       <use x="190.869141" xlink:href="#DejaVuSans-46"/>
       <use x="222.65625" xlink:href="#DejaVuSans-48"/>
      </g>
     </g>
    </g>
    <g id="xtick_2">
     <g id="line2d_2">
      <g>
       <use style="stroke:#000000;stroke-width:0.8;" x="435.893189" xlink:href="#ma074d50b70" y="640.8"/>
      </g>
     </g>
     <g id="text_2">
      <!-- 200.0 -->
      <defs>
       <path d="M 19.1875 8.296875 
L 53.609375 8.296875 
L 53.609375 0 
L 7.328125 0 
L 7.328125 8.296875 
Q 12.9375 14.109375 22.625 23.890625 
Q 32.328125 33.6875 34.8125 36.53125 
Q 39.546875 41.84375 41.421875 45.53125 
Q 43.3125 49.21875 43.3125 52.78125 
Q 43.3125 58.59375 39.234375 62.25 
Q 35.15625 65.921875 28.609375 65.921875 
Q 23.96875 65.921875 18.8125 64.3125 
Q 13.671875 62.703125 7.8125 59.421875 
L 7.8125 69.390625 
Q 13.765625 71.78125 18.9375 73 
Q 24.125 74.21875 28.421875 74.21875 
Q 39.75 74.21875 46.484375 68.546875 
Q 53.21875 62.890625 53.21875 53.421875 
Q 53.21875 48.921875 51.53125 44.890625 
Q 49.859375 40.875 45.40625 35.40625 
Q 44.1875 33.984375 37.640625 27.21875 
Q 31.109375 20.453125 19.1875 8.296875 
z
" id="DejaVuSans-50"/>
      </defs>
      <g transform="translate(421.579126 655.398438)scale(0.1 -0.1)">
       <use xlink:href="#DejaVuSans-50"/>
       <use x="63.623047" xlink:href="#DejaVuSans-48"/>
       <use x="127.246094" xlink:href="#DejaVuSans-48"/>
       <use x="190.869141" xlink:href="#DejaVuSans-46"/>
       <use x="222.65625" xlink:href="#DejaVuSans-48"/>
      </g>
     </g>
    </g>
    <g id="xtick_3">
     <g id="line2d_3">
      <g>
       <use style="stroke:#000000;stroke-width:0.8;" x="538.476147" xlink:href="#ma074d50b70" y="640.8"/>
      </g>
     </g>
     <g id="text_3">
      <!-- 300.0 -->
      <defs>
       <path d="M 40.578125 39.3125 
Q 47.65625 37.796875 51.625 33 
Q 55.609375 28.21875 55.609375 21.1875 
Q 55.609375 10.40625 48.1875 4.484375 
Q 40.765625 -1.421875 27.09375 -1.421875 
Q 22.515625 -1.421875 17.65625 -0.515625 
Q 12.796875 0.390625 7.625 2.203125 
L 7.625 11.71875 
Q 11.71875 9.328125 16.59375 8.109375 
Q 21.484375 6.890625 26.8125 6.890625 
Q 36.078125 6.890625 40.9375 10.546875 
Q 45.796875 14.203125 45.796875 21.1875 
Q 45.796875 27.640625 41.28125 31.265625 
Q 36.765625 34.90625 28.71875 34.90625 
L 20.21875 34.90625 
L 20.21875 43.015625 
L 29.109375 43.015625 
Q 36.375 43.015625 40.234375 45.921875 
Q 44.09375 48.828125 44.09375 54.296875 
Q 44.09375 59.90625 40.109375 62.90625 
Q 36.140625 65.921875 28.71875 65.921875 
Q 24.65625 65.921875 20.015625 65.03125 
Q 15.375 64.15625 9.8125 62.3125 
L 9.8125 71.09375 
Q 15.4375 72.65625 20.34375 73.4375 
Q 25.25 74.21875 29.59375 74.21875 
Q 40.828125 74.21875 47.359375 69.109375 
Q 53.90625 64.015625 53.90625 55.328125 
Q 53.90625 49.265625 50.4375 45.09375 
Q 46.96875 40.921875 40.578125 39.3125 
z
" id="DejaVuSans-51"/>
      </defs>
      <g transform="translate(524.162084 655.398438)scale(0.1 -0.1)">
       <use xlink:href="#DejaVuSans-51"/>
       <use x="63.623047" xlink:href="#DejaVuSans-48"/>
       <use x="127.246094" xlink:href="#DejaVuSans-48"/>
       <use x="190.869141" xlink:href="#DejaVuSans-46"/>
       <use x="222.65625" xlink:href="#DejaVuSans-48"/>
      </g>
     </g>
    </g>
    <g id="xtick_4">
     <g id="line2d_4">
      <g>
       <use style="stroke:#000000;stroke-width:0.8;" x="641.059105" xlink:href="#ma074d50b70" y="640.8"/>
      </g>
     </g>
     <g id="text_4">
      <!-- 400.0 -->
      <defs>
       <path d="M 37.796875 64.3125 
L 12.890625 25.390625 
L 37.796875 25.390625 
z
M 35.203125 72.90625 
L 47.609375 72.90625 
L 47.609375 25.390625 
L 58.015625 25.390625 
L 58.015625 17.1875 
L 47.609375 17.1875 
L 47.609375 0 
L 37.796875 0 
L 37.796875 17.1875 
L 4.890625 17.1875 
L 4.890625 26.703125 
z
" id="DejaVuSans-52"/>
      </defs>
      <g transform="translate(626.745042 655.398438)scale(0.1 -0.1)">
       <use xlink:href="#DejaVuSans-52"/>
       <use x="63.623047" xlink:href="#DejaVuSans-48"/>
       <use x="127.246094" xlink:href="#DejaVuSans-48"/>
       <use x="190.869141" xlink:href="#DejaVuSans-46"/>
       <use x="222.65625" xlink:href="#DejaVuSans-48"/>
      </g>
     </g>
    </g>
    <g id="xtick_5">
     <g id="line2d_5">
      <g>
       <use style="stroke:#000000;stroke-width:0.8;" x="743.642063" xlink:href="#ma074d50b70" y="640.8"/>
      </g>
     </g>
     <g id="text_5">
      <!-- 500.0 -->
      <defs>
       <path d="M 10.796875 72.90625 
L 49.515625 72.90625 
L 49.515625 64.59375 
L 19.828125 64.59375 
L 19.828125 46.734375 
Q 21.96875 47.46875 24.109375 47.828125 
Q 26.265625 48.1875 28.421875 48.1875 
Q 40.625 48.1875 47.75 41.5 
Q 54.890625 34.8125 54.890625 23.390625 
Q 54.890625 11.625 47.5625 5.09375 
Q 40.234375 -1.421875 26.90625 -1.421875 
Q 22.3125 -1.421875 17.546875 -0.640625 
Q 12.796875 0.140625 7.71875 1.703125 
L 7.71875 11.625 
Q 12.109375 9.234375 16.796875 8.0625 
Q 21.484375 6.890625 26.703125 6.890625 
Q 35.15625 6.890625 40.078125 11.328125 
Q 45.015625 15.765625 45.015625 23.390625 
Q 45.015625 31 40.078125 35.4375 
Q 35.15625 39.890625 26.703125 39.890625 
Q 22.75 39.890625 18.8125 39.015625 
Q 14.890625 38.140625 10.796875 36.28125 
z
" id="DejaVuSans-53"/>
      </defs>
      <g transform="translate(729.328 655.398438)scale(0.1 -0.1)">
       <use xlink:href="#DejaVuSans-53"/>
       <use x="63.623047" xlink:href="#DejaVuSans-48"/>
       <use x="127.246094" xlink:href="#DejaVuSans-48"/>
       <use x="190.869141" xlink:href="#DejaVuSans-46"/>
       <use x="222.65625" xlink:href="#DejaVuSans-48"/>
      </g>
     </g>
    </g>
    <g id="xtick_6">
     <g id="line2d_6">
      <g>
       <use style="stroke:#000000;stroke-width:0.8;" x="846.225021" xlink:href="#ma074d50b70" y="640.8"/>
      </g>
     </g>
     <g id="text_6">
      <!-- 600.0 -->
      <defs>
       <path d="M 33.015625 40.375 
Q 26.375 40.375 22.484375 35.828125 
Q 18.609375 31.296875 18.609375 23.390625 
Q 18.609375 15.53125 22.484375 10.953125 
Q 26.375 6.390625 33.015625 6.390625 
Q 39.65625 6.390625 43.53125 10.953125 
Q 47.40625 15.53125 47.40625 23.390625 
Q 47.40625 31.296875 43.53125 35.828125 
Q 39.65625 40.375 33.015625 40.375 
z
M 52.59375 71.296875 
L 52.59375 62.3125 
Q 48.875 64.0625 45.09375 64.984375 
Q 41.3125 65.921875 37.59375 65.921875 
Q 27.828125 65.921875 22.671875 59.328125 
Q 17.53125 52.734375 16.796875 39.40625 
Q 19.671875 43.65625 24.015625 45.921875 
Q 28.375 48.1875 33.59375 48.1875 
Q 44.578125 48.1875 50.953125 41.515625 
Q 57.328125 34.859375 57.328125 23.390625 
Q 57.328125 12.15625 50.6875 5.359375 
Q 44.046875 -1.421875 33.015625 -1.421875 
Q 20.359375 -1.421875 13.671875 8.265625 
Q 6.984375 17.96875 6.984375 36.375 
Q 6.984375 53.65625 15.1875 63.9375 
Q 23.390625 74.21875 37.203125 74.21875 
Q 40.921875 74.21875 44.703125 73.484375 
Q 48.484375 72.75 52.59375 71.296875 
z
" id="DejaVuSans-54"/>
      </defs>
      <g transform="translate(831.910958 655.398438)scale(0.1 -0.1)">
       <use xlink:href="#DejaVuSans-54"/>
       <use x="63.623047" xlink:href="#DejaVuSans-48"/>
       <use x="127.246094" xlink:href="#DejaVuSans-48"/>
       <use x="190.869141" xlink:href="#DejaVuSans-46"/>
       <use x="222.65625" xlink:href="#DejaVuSans-48"/>
      </g>
     </g>
    </g>
    <g id="xtick_7">
     <g id="line2d_7">
      <g>
       <use style="stroke:#000000;stroke-width:0.8;" x="948.807979" xlink:href="#ma074d50b70" y="640.8"/>
      </g>
     </g>
     <g id="text_7">
      <!-- 700.0 -->
      <defs>
       <path d="M 8.203125 72.90625 
L 55.078125 72.90625 
L 55.078125 68.703125 
L 28.609375 0 
L 18.3125 0 
L 43.21875 64.59375 
L 8.203125 64.59375 
z
" id="DejaVuSans-55"/>
      </defs>
      <g transform="translate(934.493916 655.398438)scale(0.1 -0.1)">
       <use xlink:href="#DejaVuSans-55"/>
       <use x="63.623047" xlink:href="#DejaVuSans-48"/>
       <use x="127.246094" xlink:href="#DejaVuSans-48"/>
       <use x="190.869141" xlink:href="#DejaVuSans-46"/>
       <use x="222.65625" xlink:href="#DejaVuSans-48"/>
      </g>
     </g>
    </g>
    <g id="xtick_8">
     <g id="line2d_8">
      <g>
       <use style="stroke:#000000;stroke-width:0.8;" x="1051.390937" xlink:href="#ma074d50b70" y="640.8"/>
      </g>
     </g>
     <g id="text_8">
      <!-- 800.0 -->
      <defs>
       <path d="M 31.78125 34.625 
Q 24.75 34.625 20.71875 30.859375 
Q 16.703125 27.09375 16.703125 20.515625 
Q 16.703125 13.921875 20.71875 10.15625 
Q 24.75 6.390625 31.78125 6.390625 
Q 38.8125 6.390625 42.859375 10.171875 
Q 46.921875 13.96875 46.921875 20.515625 
Q 46.921875 27.09375 42.890625 30.859375 
Q 38.875 34.625 31.78125 34.625 
z
M 21.921875 38.8125 
Q 15.578125 40.375 12.03125 44.71875 
Q 8.5 49.078125 8.5 55.328125 
Q 8.5 64.0625 14.71875 69.140625 
Q 20.953125 74.21875 31.78125 74.21875 
Q 42.671875 74.21875 48.875 69.140625 
Q 55.078125 64.0625 55.078125 55.328125 
Q 55.078125 49.078125 51.53125 44.71875 
Q 48 40.375 41.703125 38.8125 
Q 48.828125 37.15625 52.796875 32.3125 
Q 56.78125 27.484375 56.78125 20.515625 
Q 56.78125 9.90625 50.3125 4.234375 
Q 43.84375 -1.421875 31.78125 -1.421875 
Q 19.734375 -1.421875 13.25 4.234375 
Q 6.78125 9.90625 6.78125 20.515625 
Q 6.78125 27.484375 10.78125 32.3125 
Q 14.796875 37.15625 21.921875 38.8125 
z
M 18.3125 54.390625 
Q 18.3125 48.734375 21.84375 45.5625 
Q 25.390625 42.390625 31.78125 42.390625 
Q 38.140625 42.390625 41.71875 45.5625 
Q 45.3125 48.734375 45.3125 54.390625 
Q 45.3125 60.0625 41.71875 63.234375 
Q 38.140625 66.40625 31.78125 66.40625 
Q 25.390625 66.40625 21.84375 63.234375 
Q 18.3125 60.0625 18.3125 54.390625 
z
" id="DejaVuSans-56"/>
      </defs>
      <g transform="translate(1037.076874 655.398438)scale(0.1 -0.1)">
       <use xlink:href="#DejaVuSans-56"/>
       <use x="63.623047" xlink:href="#DejaVuSans-48"/>
       <use x="127.246094" xlink:href="#DejaVuSans-48"/>
       <use x="190.869141" xlink:href="#DejaVuSans-46"/>
       <use x="222.65625" xlink:href="#DejaVuSans-48"/>
      </g>
     </g>
    </g>
    <g id="xtick_9">
     <g id="line2d_9">
      <g>
       <use style="stroke:#000000;stroke-width:0.8;" x="1153.973895" xlink:href="#ma074d50b70" y="640.8"/>
      </g>
     </g>
     <g id="text_9">
      <!-- 900.0 -->
      <defs>
       <path d="M 10.984375 1.515625 
L 10.984375 10.5 
Q 14.703125 8.734375 18.5 7.8125 
Q 22.3125 6.890625 25.984375 6.890625 
Q 35.75 6.890625 40.890625 13.453125 
Q 46.046875 20.015625 46.78125 33.40625 
Q 43.953125 29.203125 39.59375 26.953125 
Q 35.25 24.703125 29.984375 24.703125 
Q 19.046875 24.703125 12.671875 31.3125 
Q 6.296875 37.9375 6.296875 49.421875 
Q 6.296875 60.640625 12.9375 67.421875 
Q 19.578125 74.21875 30.609375 74.21875 
Q 43.265625 74.21875 49.921875 64.515625 
Q 56.59375 54.828125 56.59375 36.375 
Q 56.59375 19.140625 48.40625 8.859375 
Q 40.234375 -1.421875 26.421875 -1.421875 
Q 22.703125 -1.421875 18.890625 -0.6875 
Q 15.09375 0.046875 10.984375 1.515625 
z
M 30.609375 32.421875 
Q 37.25 32.421875 41.125 36.953125 
Q 45.015625 41.5 45.015625 49.421875 
Q 45.015625 57.28125 41.125 61.84375 
Q 37.25 66.40625 30.609375 66.40625 
Q 23.96875 66.40625 20.09375 61.84375 
Q 16.21875 57.28125 16.21875 49.421875 
Q 16.21875 41.5 20.09375 36.953125 
Q 23.96875 32.421875 30.609375 32.421875 
z
" id="DejaVuSans-57"/>
      </defs>
      <g transform="translate(1139.659832 655.398438)scale(0.1 -0.1)">
       <use xlink:href="#DejaVuSans-57"/>
       <use x="63.623047" xlink:href="#DejaVuSans-48"/>
       <use x="127.246094" xlink:href="#DejaVuSans-48"/>
       <use x="190.869141" xlink:href="#DejaVuSans-46"/>
       <use x="222.65625" xlink:href="#DejaVuSans-48"/>
      </g>
     </g>
    </g>
    <g id="xtick_10">
     <g id="line2d_10">
      <g>
       <use style="stroke:#000000;stroke-width:0.8;" x="1256.556853" xlink:href="#ma074d50b70" y="640.8"/>
      </g>
     </g>
     <g id="text_10">
      <!-- 1000.0 -->
      <g transform="translate(1239.06154 655.398438)scale(0.1 -0.1)">
       <use xlink:href="#DejaVuSans-49"/>
       <use x="63.623047" xlink:href="#DejaVuSans-48"/>
       <use x="127.246094" xlink:href="#DejaVuSans-48"/>
       <use x="190.869141" xlink:href="#DejaVuSans-48"/>
       <use x="254.492188" xlink:href="#DejaVuSans-46"/>
       <use x="286.279297" xlink:href="#DejaVuSans-48"/>
      </g>
     </g>
    </g>
    <g id="text_11">
     <!-- n -->
     <defs>
      <path d="M 54.890625 33.015625 
L 54.890625 0 
L 45.90625 0 
L 45.90625 32.71875 
Q 45.90625 40.484375 42.875 44.328125 
Q 39.84375 48.1875 33.796875 48.1875 
Q 26.515625 48.1875 22.3125 43.546875 
Q 18.109375 38.921875 18.109375 30.90625 
L 18.109375 0 
L 9.078125 0 
L 9.078125 54.6875 
L 18.109375 54.6875 
L 18.109375 46.1875 
Q 21.34375 51.125 25.703125 53.5625 
Q 30.078125 56 35.796875 56 
Q 45.21875 56 50.046875 50.171875 
Q 54.890625 44.34375 54.890625 33.015625 
z
" id="DejaVuSans-110"/>
     </defs>
     <g transform="translate(734.83125 669.076563)scale(0.1 -0.1)">
      <use xlink:href="#DejaVuSans-110"/>
     </g>
    </g>
   </g>
   <g id="matplotlib.axis_2">
    <g id="ytick_1">
     <g id="line2d_11">
      <defs>
       <path d="M 0 0 
L -3.5 0 
" id="me6a9fd503a" style="stroke:#000000;stroke-width:0.8;"/>
      </defs>
      <g>
       <use style="stroke:#000000;stroke-width:0.8;" x="180" xlink:href="#me6a9fd503a" y="557.657185"/>
      </g>
     </g>
     <g id="text_12">
      <!-- 50 -->
      <g transform="translate(160.275 561.456404)scale(0.1 -0.1)">
       <use xlink:href="#DejaVuSans-53"/>
       <use x="63.623047" xlink:href="#DejaVuSans-48"/>
      </g>
     </g>
    </g>
    <g id="ytick_2">
     <g id="line2d_12">
      <g>
       <use style="stroke:#000000;stroke-width:0.8;" x="180" xlink:href="#me6a9fd503a" y="471.083714"/>
      </g>
     </g>
     <g id="text_13">
      <!-- 100 -->
      <g transform="translate(153.9125 474.882933)scale(0.1 -0.1)">
       <use xlink:href="#DejaVuSans-49"/>
       <use x="63.623047" xlink:href="#DejaVuSans-48"/>
       <use x="127.246094" xlink:href="#DejaVuSans-48"/>
      </g>
     </g>
    </g>
    <g id="ytick_3">
     <g id="line2d_13">
      <g>
       <use style="stroke:#000000;stroke-width:0.8;" x="180" xlink:href="#me6a9fd503a" y="384.510244"/>
      </g>
     </g>
     <g id="text_14">
      <!-- 150 -->
      <g transform="translate(153.9125 388.309463)scale(0.1 -0.1)">
       <use xlink:href="#DejaVuSans-49"/>
       <use x="63.623047" xlink:href="#DejaVuSans-53"/>
       <use x="127.246094" xlink:href="#DejaVuSans-48"/>
      </g>
     </g>
    </g>
    <g id="ytick_4">
     <g id="line2d_14">
      <g>
       <use style="stroke:#000000;stroke-width:0.8;" x="180" xlink:href="#me6a9fd503a" y="297.936774"/>
      </g>
     </g>
     <g id="text_15">
      <!-- 200 -->
      <g transform="translate(153.9125 301.735992)scale(0.1 -0.1)">
       <use xlink:href="#DejaVuSans-50"/>
       <use x="63.623047" xlink:href="#DejaVuSans-48"/>
       <use x="127.246094" xlink:href="#DejaVuSans-48"/>
      </g>
     </g>
    </g>
    <g id="ytick_5">
     <g id="line2d_15">
      <g>
       <use style="stroke:#000000;stroke-width:0.8;" x="180" xlink:href="#me6a9fd503a" y="211.363303"/>
      </g>
     </g>
     <g id="text_16">
      <!-- 250 -->
      <g transform="translate(153.9125 215.162522)scale(0.1 -0.1)">
       <use xlink:href="#DejaVuSans-50"/>
       <use x="63.623047" xlink:href="#DejaVuSans-53"/>
       <use x="127.246094" xlink:href="#DejaVuSans-48"/>
      </g>
     </g>
    </g>
    <g id="ytick_6">
     <g id="line2d_16">
      <g>
       <use style="stroke:#000000;stroke-width:0.8;" x="180" xlink:href="#me6a9fd503a" y="124.789833"/>
      </g>
     </g>
     <g id="text_17">
      <!-- 300 -->
      <g transform="translate(153.9125 128.589051)scale(0.1 -0.1)">
       <use xlink:href="#DejaVuSans-51"/>
       <use x="63.623047" xlink:href="#DejaVuSans-48"/>
       <use x="127.246094" xlink:href="#DejaVuSans-48"/>
      </g>
     </g>
    </g>
    <g id="text_18">
     <!-- speedup -->
     <defs>
      <path d="M 44.28125 53.078125 
L 44.28125 44.578125 
Q 40.484375 46.53125 36.375 47.5 
Q 32.28125 48.484375 27.875 48.484375 
Q 21.1875 48.484375 17.84375 46.4375 
Q 14.5 44.390625 14.5 40.28125 
Q 14.5 37.15625 16.890625 35.375 
Q 19.28125 33.59375 26.515625 31.984375 
L 29.59375 31.296875 
Q 39.15625 29.25 43.1875 25.515625 
Q 47.21875 21.78125 47.21875 15.09375 
Q 47.21875 7.46875 41.1875 3.015625 
Q 35.15625 -1.421875 24.609375 -1.421875 
Q 20.21875 -1.421875 15.453125 -0.5625 
Q 10.6875 0.296875 5.421875 2 
L 5.421875 11.28125 
Q 10.40625 8.6875 15.234375 7.390625 
Q 20.0625 6.109375 24.8125 6.109375 
Q 31.15625 6.109375 34.5625 8.28125 
Q 37.984375 10.453125 37.984375 14.40625 
Q 37.984375 18.0625 35.515625 20.015625 
Q 33.0625 21.96875 24.703125 23.78125 
L 21.578125 24.515625 
Q 13.234375 26.265625 9.515625 29.90625 
Q 5.8125 33.546875 5.8125 39.890625 
Q 5.8125 47.609375 11.28125 51.796875 
Q 16.75 56 26.8125 56 
Q 31.78125 56 36.171875 55.265625 
Q 40.578125 54.546875 44.28125 53.078125 
z
" id="DejaVuSans-115"/>
      <path d="M 18.109375 8.203125 
L 18.109375 -20.796875 
L 9.078125 -20.796875 
L 9.078125 54.6875 
L 18.109375 54.6875 
L 18.109375 46.390625 
Q 20.953125 51.265625 25.265625 53.625 
Q 29.59375 56 35.59375 56 
Q 45.5625 56 51.78125 48.09375 
Q 58.015625 40.1875 58.015625 27.296875 
Q 58.015625 14.40625 51.78125 6.484375 
Q 45.5625 -1.421875 35.59375 -1.421875 
Q 29.59375 -1.421875 25.265625 0.953125 
Q 20.953125 3.328125 18.109375 8.203125 
z
M 48.6875 27.296875 
Q 48.6875 37.203125 44.609375 42.84375 
Q 40.53125 48.484375 33.40625 48.484375 
Q 26.265625 48.484375 22.1875 42.84375 
Q 18.109375 37.203125 18.109375 27.296875 
Q 18.109375 17.390625 22.1875 11.75 
Q 26.265625 6.109375 33.40625 6.109375 
Q 40.53125 6.109375 44.609375 11.75 
Q 48.6875 17.390625 48.6875 27.296875 
z
" id="DejaVuSans-112"/>
      <path d="M 56.203125 29.59375 
L 56.203125 25.203125 
L 14.890625 25.203125 
Q 15.484375 15.921875 20.484375 11.0625 
Q 25.484375 6.203125 34.421875 6.203125 
Q 39.59375 6.203125 44.453125 7.46875 
Q 49.3125 8.734375 54.109375 11.28125 
L 54.109375 2.78125 
Q 49.265625 0.734375 44.1875 -0.34375 
Q 39.109375 -1.421875 33.890625 -1.421875 
Q 20.796875 -1.421875 13.15625 6.1875 
Q 5.515625 13.8125 5.515625 26.8125 
Q 5.515625 40.234375 12.765625 48.109375 
Q 20.015625 56 32.328125 56 
Q 43.359375 56 49.78125 48.890625 
Q 56.203125 41.796875 56.203125 29.59375 
z
M 47.21875 32.234375 
Q 47.125 39.59375 43.09375 43.984375 
Q 39.0625 48.390625 32.421875 48.390625 
Q 24.90625 48.390625 20.390625 44.140625 
Q 15.875 39.890625 15.1875 32.171875 
z
" id="DejaVuSans-101"/>
      <path d="M 45.40625 46.390625 
L 45.40625 75.984375 
L 54.390625 75.984375 
L 54.390625 0 
L 45.40625 0 
L 45.40625 8.203125 
Q 42.578125 3.328125 38.25 0.953125 
Q 33.9375 -1.421875 27.875 -1.421875 
Q 17.96875 -1.421875 11.734375 6.484375 
Q 5.515625 14.40625 5.515625 27.296875 
Q 5.515625 40.1875 11.734375 48.09375 
Q 17.96875 56 27.875 56 
Q 33.9375 56 38.25 53.625 
Q 42.578125 51.265625 45.40625 46.390625 
z
M 14.796875 27.296875 
Q 14.796875 17.390625 18.875 11.75 
Q 22.953125 6.109375 30.078125 6.109375 
Q 37.203125 6.109375 41.296875 11.75 
Q 45.40625 17.390625 45.40625 27.296875 
Q 45.40625 37.203125 41.296875 42.84375 
Q 37.203125 48.484375 30.078125 48.484375 
Q 22.953125 48.484375 18.875 42.84375 
Q 14.796875 37.203125 14.796875 27.296875 
z
" id="DejaVuSans-100"/>
      <path d="M 8.5 21.578125 
L 8.5 54.6875 
L 17.484375 54.6875 
L 17.484375 21.921875 
Q 17.484375 14.15625 20.5 10.265625 
Q 23.53125 6.390625 29.59375 6.390625 
Q 36.859375 6.390625 41.078125 11.03125 
Q 45.3125 15.671875 45.3125 23.6875 
L 45.3125 54.6875 
L 54.296875 54.6875 
L 54.296875 0 
L 45.3125 0 
L 45.3125 8.40625 
Q 42.046875 3.421875 37.71875 1 
Q 33.40625 -1.421875 27.6875 -1.421875 
Q 18.265625 -1.421875 13.375 4.4375 
Q 8.5 10.296875 8.5 21.578125 
z
M 31.109375 56 
z
" id="DejaVuSans-117"/>
     </defs>
     <g transform="translate(147.832812 385.049219)rotate(-90)scale(0.1 -0.1)">
      <use xlink:href="#DejaVuSans-115"/>
      <use x="52.099609" xlink:href="#DejaVuSans-112"/>
      <use x="115.576172" xlink:href="#DejaVuSans-101"/>
      <use x="177.099609" xlink:href="#DejaVuSans-101"/>
      <use x="238.623047" xlink:href="#DejaVuSans-100"/>
      <use x="302.099609" xlink:href="#DejaVuSans-117"/>
      <use x="365.478516" xlink:href="#DejaVuSans-112"/>
     </g>
    </g>
   </g>
   <g id="line2d_17">
    <path clip-path="url(#p5475e24b5e)" d="M 230.727273 260.887658 
L 231.753102 366.535901 
L 232.778932 166.584634 
L 233.804761 385.615203 
L 234.830591 129.775583 
L 235.856421 385.126382 
L 236.88225 366.548832 
L 237.90808 146.865734 
L 238.933909 405.130234 
L 239.959739 401.359133 
L 240.985569 160.727013 
L 242.011398 387.584249 
L 243.037228 163.659178 
L 244.063057 394.26737 
L 245.088887 427.722579 
L 246.114716 161.642367 
L 247.140546 213.728158 
L 248.166376 202.538115 
L 249.192205 179.401096 
L 250.218035 211.10721 
L 251.243864 210.018169 
L 252.269694 206.880522 
L 253.295523 237.041892 
L 254.321353 241.553284 
L 255.347183 290.585577 
L 256.373012 230.510373 
L 257.398842 241.317148 
L 258.424671 248.470792 
L 259.450501 244.871978 
L 260.476331 262.696332 
L 261.50216 256.779756 
L 262.52799 275.534255 
L 263.553819 298.107937 
L 264.579649 243.071628 
L 265.605478 289.698531 
L 266.631308 274.613291 
L 267.657138 272.637779 
L 268.682967 319.095165 
L 269.708797 263.074075 
L 270.734626 318.165506 
L 271.760456 292.491401 
L 272.786286 291.51281 
L 273.812115 305.053591 
L 274.837945 284.206815 
L 275.863774 318.545769 
L 276.889604 303.661291 
L 277.915433 344.524829 
L 278.941263 319.027038 
L 279.967093 315.251015 
L 280.992922 337.326561 
L 282.018752 295.611103 
L 283.044581 344.210652 
L 284.070411 327.413961 
L 285.09624 321.903872 
L 286.12207 338.370143 
L 287.1479 284.992012 
L 288.173729 344.172945 
L 289.199559 346.999167 
L 290.225388 295.956542 
L 291.251218 307.579109 
L 292.277048 326.816535 
L 293.302877 382.360266 
L 294.328707 296.073417 
L 295.354536 337.808403 
L 296.380366 333.767065 
L 297.406195 345.399415 
L 298.432025 364.898086 
L 299.457855 296.821519 
L 300.483684 348.64423 
L 301.509514 408.513214 
L 302.535343 353.680605 
L 303.561173 365.317778 
L 304.587002 370.115279 
L 305.612832 326.3374 
L 306.638662 342.151272 
L 307.664491 346.614375 
L 308.690321 295.933185 
L 309.71615 366.668223 
L 310.74198 372.825508 
L 311.76781 391.679866 
L 312.793639 316.64232 
L 313.819469 362.336631 
L 314.845298 355.984554 
L 315.871128 322.478897 
L 316.896957 356.447161 
L 317.922787 379.726432 
L 318.948617 372.746549 
L 319.974446 369.001974 
L 321.000276 378.651216 
L 322.026105 364.21222 
L 323.051935 409.738459 
L 324.077765 370.550425 
L 325.103594 273.985072 
L 326.129424 379.711584 
L 327.155253 292.254996 
L 328.181083 380.370183 
L 329.206912 387.608184 
L 330.232742 373.774564 
L 331.258572 335.934815 
L 332.284401 350.38287 
L 333.310231 352.064388 
L 334.33606 440.105022 
L 335.36189 405.123067 
L 336.387719 393.191239 
L 337.413549 384.59606 
L 338.439379 438.357846 
L 339.465208 383.595227 
L 340.491038 395.578066 
L 342.542697 378.494875 
L 343.568527 396.919841 
L 344.594356 390.490664 
L 345.620186 348.56566 
L 346.646015 400.834048 
L 347.671845 390.12047 
L 348.697674 369.305085 
L 349.723504 370.956947 
L 350.749334 383.880497 
L 351.775163 348.503447 
L 352.800993 371.977655 
L 353.826822 376.128877 
L 354.852652 384.682211 
L 355.878481 387.125496 
L 356.904311 392.375744 
L 357.930141 412.830956 
L 358.95597 421.000892 
L 359.9818 407.598626 
L 361.007629 433.700144 
L 362.033459 361.759177 
L 363.059289 394.384305 
L 364.085118 395.976548 
L 365.110948 385.669947 
L 366.136777 405.091321 
L 367.162607 369.881083 
L 368.188436 415.623774 
L 369.214266 343.003048 
L 370.240096 412.832492 
L 371.265925 400.671259 
L 372.291755 417.671973 
L 373.317584 395.599322 
L 374.343414 413.803877 
L 375.369243 395.36478 
L 376.395073 428.359009 
L 377.420903 390.050832 
L 378.446732 421.958705 
L 379.472562 406.165848 
L 380.498391 400.031227 
L 381.524221 402.159953 
L 382.550051 372.997385 
L 383.57588 408.589173 
L 384.60171 392.041895 
L 385.627539 412.649303 
L 386.653369 380.288132 
L 387.679198 422.468283 
L 388.705028 439.560902 
L 389.730858 377.912523 
L 390.756687 409.853676 
L 391.782517 387.110289 
L 392.808346 418.187673 
L 393.834176 361.666252 
L 394.860006 425.47295 
L 395.885835 462.489999 
L 396.911665 487.855072 
L 397.937494 403.049507 
L 398.963324 461.037592 
L 399.989153 417.555089 
L 401.014983 429.551764 
L 402.040813 483.494813 
L 403.066642 401.406158 
L 404.092472 416.358933 
L 405.118301 409.471878 
L 406.144131 385.54518 
L 407.16996 413.2706 
L 409.22162 416.772405 
L 410.247449 457.191897 
L 411.273279 393.909007 
L 412.299108 396.181363 
L 413.324938 433.865458 
L 414.350768 422.444906 
L 415.376597 416.46569 
L 416.402427 490.554725 
L 417.428256 462.204373 
L 418.454086 460.776759 
L 419.479915 402.118664 
L 420.505745 419.650896 
L 421.531575 442.370742 
L 422.557404 417.083611 
L 423.583234 397.821195 
L 424.609063 461.272132 
L 425.634893 442.681944 
L 426.660722 419.35078 
L 427.686552 400.376435 
L 428.712382 399.265118 
L 429.738211 436.18271 
L 430.764041 425.580316 
L 431.78987 439.026282 
L 432.8157 431.97567 
L 433.84153 440.509534 
L 434.867359 419.245713 
L 435.893189 440.674902 
L 436.919018 429.96545 
L 437.944848 423.343385 
L 438.970677 442.141551 
L 439.996507 440.678288 
L 441.022337 366.582954 
L 442.048166 428.355869 
L 443.073996 412.07864 
L 444.099825 413.449503 
L 445.125655 421.004082 
L 446.151485 483.233782 
L 447.177314 432.810381 
L 448.203144 415.858048 
L 449.228973 489.901553 
L 450.254803 481.797441 
L 451.280632 425.31059 
L 452.306462 425.688825 
L 453.332292 406.718654 
L 454.358121 432.399228 
L 455.383951 449.616829 
L 456.40978 425.681096 
L 457.43561 443.704118 
L 458.461439 445.240354 
L 460.513099 422.04484 
L 461.538928 447.300117 
L 462.564758 462.459286 
L 464.616417 425.445977 
L 465.642247 436.131953 
L 466.668076 456.513435 
L 467.693906 429.940931 
L 468.719735 432.51778 
L 469.745565 454.308569 
L 470.771394 436.198812 
L 471.797224 421.812596 
L 472.823054 452.716063 
L 473.848883 423.176205 
L 474.874713 490.397534 
L 475.900542 415.353928 
L 476.926372 425.680598 
L 477.952201 386.335593 
L 478.978031 511.869726 
L 480.003861 428.44601 
L 481.02969 424.6629 
L 482.05552 438.915581 
L 483.081349 475.151185 
L 484.107179 444.86775 
L 485.133009 445.848927 
L 486.158838 455.515582 
L 487.184668 470.078208 
L 488.210497 430.692265 
L 489.236327 446.565564 
L 490.262156 455.645264 
L 491.287986 468.230334 
L 492.313816 475.936933 
L 493.339645 445.502676 
L 494.365475 460.444167 
L 495.391304 450.841741 
L 496.417134 454.319607 
L 497.442964 455.723304 
L 498.468793 528.984966 
L 499.494623 459.477519 
L 500.520452 487.611146 
L 501.546282 440.592867 
L 502.572111 463.211188 
L 503.597941 466.930141 
L 504.623771 413.540336 
L 505.6496 513.372251 
L 506.67543 442.43532 
L 507.701259 456.280704 
L 508.727089 451.422718 
L 509.752918 452.437226 
L 510.778748 450.742444 
L 511.804578 473.467777 
L 512.830407 484.017035 
L 513.856237 459.879731 
L 514.882066 471.830389 
L 515.907896 488.620763 
L 517.959555 440.745037 
L 518.985385 447.797372 
L 520.011214 479.673803 
L 521.037044 460.580133 
L 522.062873 456.285965 
L 523.088703 468.435793 
L 524.114533 473.984591 
L 525.140362 466.4523 
L 526.166192 466.228761 
L 527.192021 492.64651 
L 528.217851 462.016175 
L 529.24368 447.617164 
L 530.26951 529.613298 
L 531.29534 464.0586 
L 532.321169 476.490395 
L 533.346999 452.484862 
L 534.372828 451.021433 
L 535.398658 459.93394 
L 536.424488 489.293269 
L 537.450317 473.123774 
L 538.476147 474.561119 
L 539.501976 492.772286 
L 540.527806 472.104065 
L 541.553635 470.321952 
L 542.579465 468.895254 
L 543.605295 461.88668 
L 544.631124 478.170564 
L 545.656954 474.760723 
L 546.682783 475.070817 
L 547.708613 475.815062 
L 548.734443 468.691937 
L 549.760272 487.155122 
L 550.786102 483.79514 
L 551.811931 483.791768 
L 552.837761 482.182926 
L 553.86359 471.693571 
L 554.88942 527.946383 
L 555.91525 476.398227 
L 556.941079 467.70072 
L 557.966909 521.795474 
L 558.992738 475.584484 
L 560.018568 475.556882 
L 561.044397 485.291928 
L 562.070227 471.116537 
L 563.096057 476.491833 
L 564.121886 484.541122 
L 565.147716 488.302352 
L 566.173545 422.998504 
L 567.199375 454.849503 
L 568.225205 482.9755 
L 569.251034 483.080226 
L 570.276864 485.9045 
L 571.302693 461.912354 
L 572.328523 482.824683 
L 573.354352 474.522241 
L 574.380182 484.174693 
L 575.406012 507.697372 
L 576.431841 495.675511 
L 577.457671 496.551023 
L 578.4835 488.819426 
L 579.50933 462.510821 
L 580.535159 479.273731 
L 581.560989 482.011946 
L 582.586819 478.694537 
L 583.612648 469.9691 
L 584.638478 485.342572 
L 585.664307 494.854724 
L 586.690137 550.778397 
L 587.715967 477.975856 
L 588.741796 480.534612 
L 589.767626 490.058859 
L 590.793455 479.172321 
L 591.819285 492.351982 
L 592.845114 480.415884 
L 593.870944 498.365103 
L 594.896774 483.58184 
L 595.922603 483.556806 
L 596.948433 502.818241 
L 597.974262 493.472855 
L 599.000092 467.209002 
L 600.025922 489.714968 
L 601.051751 481.656145 
L 602.077581 495.63788 
L 603.10341 487.836752 
L 604.12924 509.41873 
L 605.155069 489.605704 
L 606.180899 508.321531 
L 607.206729 486.585777 
L 608.232558 489.31469 
L 609.258388 471.522083 
L 610.284217 508.126325 
L 611.310047 489.239065 
L 612.335876 486.142122 
L 613.361706 476.086314 
L 614.387536 546.996391 
L 615.413365 488.412134 
L 616.439195 537.95671 
L 617.465024 488.852047 
L 618.490854 491.814342 
L 619.516684 490.265287 
L 620.542513 487.921491 
L 621.568343 491.930487 
L 622.594172 502.396404 
L 623.620002 489.856199 
L 624.645831 499.636769 
L 625.671661 496.66192 
L 626.697491 518.142857 
L 627.72332 493.219562 
L 628.74915 488.820709 
L 630.800809 507.762827 
L 631.826638 484.403894 
L 632.852468 488.462503 
L 633.878298 496.729727 
L 634.904127 503.23197 
L 635.929957 488.597256 
L 636.955786 495.99118 
L 637.981616 486.346721 
L 639.007446 515.355834 
L 640.033275 493.813089 
L 641.059105 492.051316 
L 642.084934 498.595223 
L 643.110764 507.70048 
L 644.136593 542.98464 
L 645.162423 503.102079 
L 646.188253 503.090065 
L 647.214082 506.374385 
L 648.239912 490.035775 
L 649.265741 488.976105 
L 650.291571 495.400053 
L 651.3174 507.952083 
L 652.34323 513.263045 
L 653.36906 502.198545 
L 654.394889 489.404768 
L 655.420719 508.392267 
L 656.446548 491.890625 
L 657.472378 507.887533 
L 658.498208 503.774751 
L 659.524037 510.405194 
L 660.549867 512.841793 
L 661.575696 514.38027 
L 662.601526 504.687106 
L 663.627355 509.869092 
L 664.653185 504.872277 
L 665.679015 554.84805 
L 666.704844 513.152712 
L 667.730674 518.306242 
L 668.756503 501.116304 
L 669.782333 501.719571 
L 670.808163 511.063022 
L 671.833992 519.248857 
L 672.859822 507.423876 
L 673.885651 529.600996 
L 674.911481 509.878765 
L 675.93731 521.399954 
L 676.96314 501.128466 
L 677.98897 510.027955 
L 679.014799 508.321226 
L 680.040629 514.857903 
L 681.066458 514.709975 
L 682.092288 505.445193 
L 683.118117 507.480944 
L 684.143947 524.687321 
L 685.169777 513.759103 
L 686.195606 507.493767 
L 687.221436 510.629495 
L 688.247265 532.920744 
L 690.298925 515.918249 
L 691.324754 509.872836 
L 692.350584 521.711051 
L 693.376413 511.313798 
L 694.402243 523.589811 
L 695.428072 525.110381 
L 696.453902 526.080733 
L 697.479732 526.571597 
L 698.505561 532.145988 
L 699.531391 523.674245 
L 700.55722 546.548062 
L 701.58305 525.229744 
L 702.608879 525.624452 
L 703.634709 535.718857 
L 704.660539 533.645965 
L 705.686368 529.006993 
L 706.712198 531.002951 
L 707.738027 530.668015 
L 708.763857 526.668255 
L 709.789687 539.283204 
L 710.815516 532.970153 
L 711.841346 528.269951 
L 712.867175 533.744724 
L 713.893005 526.910589 
L 714.918834 527.759099 
L 715.944664 524.174176 
L 716.970494 535.362631 
L 717.996323 528.687745 
L 719.022153 531.662149 
L 720.047982 532.400997 
L 721.073812 539.657047 
L 722.099642 527.472118 
L 723.125471 545.059991 
L 724.151301 529.941318 
L 725.17713 552.201227 
L 726.20296 532.940364 
L 727.228789 555.176908 
L 728.254619 533.830657 
L 729.280449 539.468459 
L 730.306278 532.908343 
L 731.332108 529.628616 
L 732.357937 532.872479 
L 733.383767 542.551588 
L 734.409596 533.673001 
L 735.435426 529.307934 
L 736.461256 532.120092 
L 737.487085 558.130671 
L 738.512915 528.303724 
L 739.538744 536.370254 
L 740.564574 532.085712 
L 741.590404 532.608853 
L 742.616233 558.548195 
L 743.642063 531.158963 
L 744.667892 528.176441 
L 745.693722 547.021532 
L 746.719551 537.40883 
L 747.745381 551.54683 
L 748.771211 552.368036 
L 749.79704 543.852407 
L 750.82287 537.470292 
L 751.848699 536.604135 
L 752.874529 536.396836 
L 753.900358 542.469068 
L 754.926188 502.296459 
L 755.952018 538.0589 
L 756.977847 529.82061 
L 758.003677 538.254099 
L 759.029506 561.18353 
L 760.055336 548.911608 
L 761.081166 539.666205 
L 762.106995 556.471935 
L 763.132825 537.293641 
L 764.158654 536.347014 
L 765.184484 537.737475 
L 766.210313 543.503573 
L 767.236143 538.599915 
L 768.261973 536.842835 
L 769.287802 532.338838 
L 770.313632 547.482084 
L 771.339461 544.225558 
L 772.365291 537.695726 
L 773.391121 564.444006 
L 774.41695 542.900802 
L 775.44278 533.392114 
L 776.468609 537.371813 
L 777.494439 534.479608 
L 778.520268 544.624026 
L 779.546098 533.276265 
L 780.571928 533.930069 
L 781.597757 535.3801 
L 782.623587 544.146549 
L 783.649416 540.220134 
L 784.675246 538.777664 
L 785.701075 538.34151 
L 786.726905 552.451543 
L 787.752735 540.614748 
L 788.778564 537.455625 
L 789.804394 536.725435 
L 790.830223 546.307694 
L 791.856053 542.803692 
L 792.881883 540.972474 
L 793.907712 541.395068 
L 794.933542 547.366761 
L 795.959371 542.989091 
L 796.985201 547.505631 
L 798.01103 540.817164 
L 799.03686 544.621446 
L 800.06269 542.555903 
L 801.088519 540.919604 
L 802.114349 542.594336 
L 803.140178 549.490747 
L 804.166008 541.166676 
L 806.217667 542.393393 
L 807.243497 544.113715 
L 808.269326 539.539061 
L 809.295156 542.312932 
L 810.320985 542.416537 
L 811.346815 546.002862 
L 812.372645 538.085393 
L 813.398474 539.674882 
L 814.424304 544.35576 
L 815.450133 547.866817 
L 816.475963 541.723356 
L 817.501792 539.717084 
L 818.527622 538.607342 
L 819.553452 552.487471 
L 820.579281 538.495008 
L 821.605111 543.274513 
L 822.63094 541.302748 
L 823.65677 548.414404 
L 824.6826 539.805327 
L 825.708429 540.649108 
L 826.734259 545.522781 
L 827.760088 551.408791 
L 828.785918 542.835353 
L 829.811747 524.256983 
L 830.837577 544.980171 
L 831.863407 554.019275 
L 832.889236 540.581494 
L 833.915066 541.314778 
L 834.940895 545.818369 
L 835.966725 554.07885 
L 836.992554 540.801503 
L 838.018384 541.971671 
L 839.044214 546.801479 
L 840.070043 549.70712 
L 841.095873 547.374408 
L 842.121702 541.242243 
L 844.173362 552.474388 
L 845.199191 550.382797 
L 846.225021 542.439356 
L 847.25085 543.470602 
L 848.27668 549.807618 
L 849.302509 546.995427 
L 850.328339 549.834831 
L 852.379998 554.566187 
L 853.405828 548.75511 
L 854.431657 550.3856 
L 855.457487 550.993668 
L 856.483316 555.450087 
L 858.534976 548.428328 
L 859.560805 549.849093 
L 860.586635 569.900619 
L 861.612464 549.327074 
L 862.638294 544.754978 
L 863.664124 547.691324 
L 864.689953 554.853726 
L 865.715783 547.368794 
L 866.741612 549.375345 
L 867.767442 545.190085 
L 868.793271 554.964577 
L 869.819101 551.154525 
L 870.844931 547.792117 
L 871.87076 549.791003 
L 872.89659 557.296553 
L 873.922419 548.133269 
L 874.948249 545.042383 
L 875.974078 550.739086 
L 876.999908 562.450583 
L 878.025738 550.047739 
L 879.051567 546.944534 
L 880.077397 545.629196 
L 881.103226 557.414301 
L 882.129056 550.674684 
L 883.154886 550.293681 
L 884.180715 552.64171 
L 885.206545 559.485723 
L 886.232374 552.094039 
L 887.258204 551.498063 
L 888.284033 552.187108 
L 889.309863 558.798192 
L 890.335693 550.002317 
L 891.361522 545.407681 
L 892.387352 579.267428 
L 893.413181 558.522445 
L 894.439011 553.65044 
L 895.464841 553.017036 
L 896.49067 547.257701 
L 897.5165 561.802865 
L 898.542329 552.84099 
L 899.568159 551.183447 
L 900.593988 549.124563 
L 901.619818 558.660957 
L 902.645648 547.783316 
L 903.671477 549.926577 
L 904.697307 552.879371 
L 905.723136 559.942184 
L 906.748966 560.751638 
L 907.774795 549.421224 
L 908.800625 553.094359 
L 909.826455 568.454283 
L 910.852284 550.833157 
L 911.878114 550.248133 
L 912.903943 553.145018 
L 913.929773 556.781088 
L 914.955603 552.956897 
L 915.981432 555.128755 
L 917.007262 554.004075 
L 918.033091 561.742916 
L 919.058921 561.345633 
L 920.08475 550.009823 
L 921.11058 554.874148 
L 922.13641 561.414335 
L 923.162239 551.451828 
L 924.188069 555.433669 
L 925.213898 553.178607 
L 926.239728 556.286994 
L 927.265557 553.685149 
L 928.291387 554.585631 
L 929.317217 555.08364 
L 930.343046 559.915042 
L 931.368876 555.306237 
L 932.394705 556.01888 
L 933.420535 555.39846 
L 934.446365 559.575528 
L 935.472194 555.088706 
L 936.498024 554.992702 
L 937.523853 553.602966 
L 938.549683 562.213877 
L 939.575512 556.668707 
L 940.601342 552.437169 
L 942.653001 563.063241 
L 943.678831 556.282277 
L 944.70466 568.286265 
L 945.73049 556.172355 
L 946.75632 559.129108 
L 947.782149 557.352137 
L 948.807979 556.823798 
L 949.833808 556.519976 
L 950.859638 560.147832 
L 951.885467 558.683131 
L 952.911297 554.530803 
L 953.937127 558.901979 
L 954.962956 565.750433 
L 955.988786 559.134618 
L 957.014615 562.893342 
L 958.040445 563.391322 
L 959.066274 561.149343 
L 960.092104 561.204409 
L 961.117934 561.133322 
L 962.143763 553.506371 
L 963.169593 578.139518 
L 964.195422 576.187801 
L 965.221252 563.095767 
L 966.247082 560.088064 
L 967.272911 565.659561 
L 968.298741 555.858768 
L 970.3504 558.829549 
L 971.376229 563.147358 
L 972.402059 561.228476 
L 973.427889 549.868732 
L 974.453718 559.946351 
L 975.479548 566.292822 
L 976.505377 556.331345 
L 977.531207 555.289615 
L 978.557036 547.137952 
L 979.582866 565.346554 
L 980.608696 575.97206 
L 981.634525 560.43878 
L 982.660355 560.881789 
L 983.686184 577.497109 
L 984.712014 556.152183 
L 985.737844 557.079814 
L 986.763673 577.341555 
L 987.789503 563.089519 
L 988.815332 560.38624 
L 989.841162 565.09492 
L 990.866991 557.700226 
L 991.892821 567.036462 
L 992.918651 543.499725 
L 993.94448 564.085472 
L 994.97031 561.242981 
L 995.996139 566.638503 
L 997.021969 560.853904 
L 998.047799 562.597859 
L 999.073628 557.540589 
L 1000.099458 564.914843 
L 1001.125287 556.377382 
L 1002.151117 580.460773 
L 1003.176946 558.794646 
L 1004.202776 568.554487 
L 1005.228606 569.594797 
L 1006.254435 545.826258 
L 1007.280265 562.97409 
L 1008.306094 574.057475 
L 1009.331924 576.482734 
L 1010.357753 563.58172 
L 1011.383583 558.451768 
L 1012.409413 567.790509 
L 1013.435242 562.601711 
L 1014.461072 554.211306 
L 1015.486901 559.320056 
L 1016.512731 568.476381 
L 1017.538561 549.706622 
L 1018.56439 559.728236 
L 1019.59022 563.462561 
L 1020.616049 569.20108 
L 1021.641879 581.013805 
L 1022.667708 562.931732 
L 1023.693538 548.317488 
L 1024.719368 553.9672 
L 1025.745197 542.282854 
L 1026.771027 547.812411 
L 1027.796856 541.977779 
L 1028.822686 552.127784 
L 1029.848515 565.564576 
L 1030.874345 558.583981 
L 1031.900175 561.605134 
L 1032.926004 568.550586 
L 1034.977663 560.145375 
L 1037.029323 568.986071 
L 1038.055152 564.91239 
L 1039.080982 565.038199 
L 1040.106811 567.373925 
L 1041.132641 575.75791 
L 1042.15847 561.875297 
L 1043.1843 562.02671 
L 1044.21013 558.187098 
L 1045.235959 564.444256 
L 1046.261789 538.953806 
L 1047.287618 574.782026 
L 1048.313448 570.688846 
L 1049.339278 573.230374 
L 1050.365107 566.170637 
L 1051.390937 564.922246 
L 1052.416766 562.692806 
L 1053.442596 571.215622 
L 1054.468425 566.85661 
L 1055.494255 567.211577 
L 1056.520085 565.491927 
L 1057.545914 573.853244 
L 1058.571744 567.428973 
L 1059.597573 563.813085 
L 1060.623403 565.089372 
L 1061.649232 592.366924 
L 1062.675062 566.071106 
L 1063.700892 569.708508 
L 1064.726721 575.636834 
L 1065.752551 574.4028 
L 1066.77838 567.645322 
L 1067.80421 568.343815 
L 1068.83004 569.515549 
L 1069.855869 572.718217 
L 1070.881699 565.106738 
L 1071.907528 567.563534 
L 1072.933358 568.803464 
L 1073.959187 574.310207 
L 1074.985017 567.125064 
L 1076.010847 567.595866 
L 1077.036676 564.093016 
L 1078.062506 571.00749 
L 1079.088335 568.202315 
L 1080.114165 566.583755 
L 1081.139994 567.20488 
L 1082.165824 576.110785 
L 1083.191654 569.719151 
L 1085.243313 567.716753 
L 1086.269142 575.192814 
L 1087.294972 569.181107 
L 1088.320802 569.314647 
L 1089.346631 577.551869 
L 1090.372461 574.395914 
L 1091.39829 567.403076 
L 1092.42412 568.510885 
L 1093.449949 568.062274 
L 1094.475779 573.920122 
L 1095.501609 566.813051 
L 1096.527438 568.852169 
L 1097.553268 565.429605 
L 1098.579097 573.145955 
L 1099.604927 569.793271 
L 1100.630757 569.369641 
L 1101.656586 568.058445 
L 1102.682416 573.735402 
L 1103.708245 569.358648 
L 1104.734075 567.96774 
L 1105.759904 568.738184 
L 1106.785734 586.396536 
L 1107.811564 569.078851 
L 1108.837393 566.926774 
L 1109.863223 576.74283 
L 1110.889052 577.504459 
L 1111.914882 568.309391 
L 1112.940711 569.608371 
L 1113.966541 566.241368 
L 1114.992371 574.84227 
L 1117.04403 567.619155 
L 1118.069859 570.749523 
L 1119.095689 576.379059 
L 1120.121519 567.776812 
L 1121.147348 569.225646 
L 1122.173178 569.948427 
L 1123.199007 579.956411 
L 1124.224837 569.041028 
L 1125.250666 575.036777 
L 1126.276496 567.166543 
L 1127.302326 576.838427 
L 1128.328155 570.066345 
L 1129.353985 573.88705 
L 1130.379814 581.70648 
L 1131.405644 574.796328 
L 1132.431473 573.904692 
L 1133.457303 572.307073 
L 1134.483133 570.050915 
L 1135.508962 576.952764 
L 1136.534792 571.37515 
L 1137.560621 572.416046 
L 1138.586451 571.328538 
L 1139.612281 567.193951 
L 1140.63811 567.909182 
L 1141.66394 568.455629 
L 1142.689769 571.204092 
L 1143.715599 575.455045 
L 1144.741428 570.799247 
L 1145.767258 568.961833 
L 1146.793088 572.90076 
L 1147.818917 577.404468 
L 1148.844747 569.192335 
L 1149.870576 569.569861 
L 1150.896406 571.426235 
L 1151.922235 577.861818 
L 1152.948065 569.232406 
L 1153.973895 572.899 
L 1154.999724 571.965497 
L 1156.025554 576.143448 
L 1157.051383 572.256458 
L 1158.077213 571.36059 
L 1159.103043 571.367561 
L 1160.128872 577.740026 
L 1161.154702 572.111627 
L 1162.180531 573.500172 
L 1163.206361 574.145089 
L 1164.23219 578.633824 
L 1165.25802 573.229511 
L 1166.28385 576.524013 
L 1167.309679 575.452596 
L 1168.335509 581.03335 
L 1169.361338 575.895704 
L 1170.387168 574.630008 
L 1171.412998 573.767499 
L 1172.438827 577.731582 
L 1173.464657 573.775622 
L 1174.490486 575.570353 
L 1175.516316 573.083314 
L 1176.542145 579.713821 
L 1177.567975 573.687799 
L 1178.593805 574.630665 
L 1179.619634 570.964137 
L 1180.645464 577.541538 
L 1181.671293 575.475899 
L 1182.697123 567.899181 
L 1183.722952 572.466027 
L 1184.748782 580.508471 
L 1185.774612 571.568343 
L 1186.800441 571.704711 
L 1187.826271 574.808408 
L 1188.8521 579.315698 
L 1189.87793 574.308973 
L 1190.90376 573.640237 
L 1191.929589 575.237399 
L 1192.955419 579.113937 
L 1193.981248 576.510083 
L 1195.007078 574.938279 
L 1196.032907 574.768452 
L 1197.058737 578.190632 
L 1198.084567 574.816552 
L 1199.110396 574.981706 
L 1200.136226 573.265619 
L 1201.162055 578.789136 
L 1203.213714 572.235484 
L 1204.239544 572.650324 
L 1205.265374 579.114873 
L 1206.291203 575.202117 
L 1207.317033 573.709964 
L 1208.342862 573.606061 
L 1209.368692 579.868269 
L 1210.394522 572.916351 
L 1211.420351 571.813588 
L 1212.446181 574.882421 
L 1213.47201 579.252534 
L 1214.49784 576.40248 
L 1215.523669 574.954089 
L 1216.549499 575.172864 
L 1217.575329 580.43414 
L 1218.601158 575.546571 
L 1219.626988 573.448667 
L 1220.652817 572.676089 
L 1221.678647 579.298787 
L 1222.704477 575.555982 
L 1223.730306 572.901683 
L 1224.756136 574.612198 
L 1225.781965 580.913845 
L 1226.807795 576.791036 
L 1227.833624 575.058264 
L 1229.885284 578.570269 
L 1230.911113 574.39754 
L 1231.936943 575.869782 
L 1232.962772 575.707518 
L 1233.988602 580.002757 
L 1235.014431 577.369267 
L 1236.040261 575.85318 
L 1237.066091 584.874894 
L 1238.09192 581.860188 
L 1239.11775 577.122863 
L 1240.143579 573.003358 
L 1241.169409 575.770704 
L 1242.195239 579.101277 
L 1243.221068 579.613722 
L 1244.246898 579.847726 
L 1245.272727 577.012767 
L 1245.272727 577.012767 
" style="fill:none;stroke:#1f77b4;stroke-linecap:square;stroke-width:1.5;"/>
   </g>
   <g id="line2d_18">
    <path clip-path="url(#p5475e24b5e)" d="M 230.727273 193.175966 
L 231.753102 145.275814 
L 232.778932 111.6 
L 233.804761 155.1025 
L 234.830591 175.644067 
L 235.856421 207.321719 
L 236.88225 162.032402 
L 237.90808 177.560778 
L 238.933909 229.801701 
L 239.959739 190.925989 
L 240.985569 190.637127 
L 243.037228 222.220762 
L 244.063057 253.6385 
L 245.088887 230.031288 
L 246.114716 233.520191 
L 247.140546 251.259593 
L 248.166376 281.260486 
L 249.192205 282.879727 
L 250.218035 251.598433 
L 251.243864 286.031767 
L 252.269694 275.818116 
L 253.295523 283.707029 
L 254.321353 260.991636 
L 255.347183 296.991713 
L 256.373012 273.324519 
L 257.398842 257.848249 
L 258.424671 309.696375 
L 259.450501 344.622258 
L 260.476331 334.935799 
L 261.50216 284.259328 
L 262.52799 318.467632 
L 263.553819 334.105779 
L 264.579649 278.607007 
L 265.605478 334.425008 
L 266.631308 286.196198 
L 267.657138 302.913183 
L 268.682967 344.469404 
L 269.708797 343.615263 
L 270.734626 362.856934 
L 271.760456 350.07462 
L 273.812115 302.844513 
L 274.837945 371.18387 
L 275.863774 329.19316 
L 276.889604 360.164435 
L 277.915433 337.590203 
L 278.941263 380.548904 
L 279.967093 335.35012 
L 280.992922 383.19839 
L 282.018752 375.761593 
L 283.044581 367.240242 
L 284.070411 220.205957 
L 285.09624 373.243507 
L 286.12207 377.918189 
L 287.1479 397.181898 
L 288.173729 378.698533 
L 289.199559 387.527695 
L 290.225388 356.652753 
L 291.251218 373.617645 
L 292.277048 401.903644 
L 293.302877 360.404844 
L 294.328707 370.895378 
L 295.354536 417.895398 
L 296.380366 361.713712 
L 297.406195 396.321143 
L 298.432025 401.797522 
L 299.457855 399.266919 
L 300.483684 376.785678 
L 301.509514 432.495771 
L 302.535343 426.607799 
L 303.561173 395.105026 
L 304.587002 378.988335 
L 305.612832 406.526715 
L 306.638662 411.470964 
L 307.664491 461.932729 
L 308.690321 385.713663 
L 309.71615 443.878982 
L 310.74198 430.19222 
L 311.76781 414.67614 
L 312.793639 449.001855 
L 313.819469 392.857146 
L 314.845298 408.418915 
L 315.871128 420.928548 
L 316.896957 451.652721 
L 317.922787 411.120277 
L 318.948617 427.428634 
L 319.974446 460.42762 
L 321.000276 458.615213 
L 322.026105 415.598698 
L 323.051935 478.754103 
L 324.077765 439.51254 
L 325.103594 423.69226 
L 326.129424 415.177182 
L 327.155253 450.83722 
L 328.181083 442.484003 
L 329.206912 436.743437 
L 330.232742 412.412007 
L 331.258572 442.598877 
L 332.284401 431.034474 
L 333.310231 413.491043 
L 334.33606 419.792283 
L 335.36189 452.257961 
L 336.387719 436.968347 
L 337.413549 423.956056 
L 338.439379 439.414936 
L 339.465208 441.873014 
L 340.491038 468.322581 
L 341.516867 442.587377 
L 342.542697 432.422639 
L 343.568527 469.594839 
L 344.594356 466.277749 
L 345.620186 466.836345 
L 346.646015 459.652539 
L 347.671845 465.598247 
L 348.697674 501.162939 
L 349.723504 431.267716 
L 350.749334 452.288703 
L 351.775163 467.594005 
L 352.800993 462.592437 
L 353.826822 455.40507 
L 354.852652 453.995791 
L 355.878481 471.427457 
L 356.904311 462.112407 
L 357.930141 469.283082 
L 358.95597 471.368251 
L 359.9818 476.421487 
L 361.007629 470.258003 
L 362.033459 461.780692 
L 363.059289 457.306198 
L 364.085118 459.708372 
L 365.110948 456.832693 
L 366.136777 450.892622 
L 367.162607 472.295286 
L 368.188436 475.260533 
L 369.214266 487.417113 
L 370.240096 446.960266 
L 371.265925 469.024455 
L 372.291755 485.735543 
L 373.317584 419.350145 
L 374.343414 407.09972 
L 375.369243 474.382336 
L 376.395073 501.799929 
L 377.420903 424.39948 
L 378.446732 471.463296 
L 379.472562 478.291454 
L 380.498391 501.204924 
L 381.524221 478.970527 
L 382.550051 472.7881 
L 383.57588 474.044769 
L 384.60171 516.666482 
L 385.627539 490.744437 
L 386.653369 490.662592 
L 387.679198 494.815917 
L 388.705028 495.180661 
L 389.730858 499.575338 
L 390.756687 482.840161 
L 391.782517 495.905354 
L 392.808346 501.095417 
L 393.834176 512.301661 
L 394.860006 475.799105 
L 395.885835 482.119372 
L 396.911665 479.696863 
L 397.937494 493.509853 
L 398.963324 477.199953 
L 399.989153 493.988306 
L 401.014983 555.068045 
L 402.040813 493.458809 
L 403.066642 503.334744 
L 404.092472 492.391112 
L 405.118301 498.302762 
L 406.144131 484.700932 
L 407.16996 484.509721 
L 408.19579 462.645288 
L 409.22162 496.652941 
L 410.247449 490.323603 
L 411.273279 493.774172 
L 412.299108 485.866627 
L 413.324938 489.907236 
L 414.350768 508.357515 
L 415.376597 473.274312 
L 416.402427 465.398166 
L 417.428256 498.908743 
L 418.454086 518.058955 
L 419.479915 488.126505 
L 420.505745 492.768559 
L 421.531575 508.327521 
L 422.557404 518.6463 
L 423.583234 513.668731 
L 424.609063 503.857915 
L 425.634893 506.394256 
L 426.660722 508.412328 
L 427.686552 490.465818 
L 428.712382 479.74952 
L 429.738211 494.819484 
L 430.764041 505.191355 
L 431.78987 471.507786 
L 432.8157 505.603706 
L 433.84153 497.5748 
L 434.867359 507.45138 
L 435.893189 522.775211 
L 436.919018 484.545702 
L 437.944848 514.750618 
L 438.970677 512.496673 
L 439.996507 499.972916 
L 441.022337 520.693645 
L 442.048166 523.324411 
L 443.073996 525.249146 
L 444.099825 518.22642 
L 446.151485 524.963123 
L 447.177314 520.827692 
L 448.203144 566.205363 
L 449.228973 512.971185 
L 450.254803 523.158772 
L 451.280632 517.312753 
L 452.306462 524.25231 
L 453.332292 513.298985 
L 454.358121 527.470091 
L 455.383951 521.48596 
L 456.40978 528.421062 
L 457.43561 536.619327 
L 458.461439 517.841871 
L 459.487269 527.739138 
L 460.513099 511.744491 
L 461.538928 517.90779 
L 462.564758 522.963393 
L 463.590587 524.098525 
L 464.616417 521.218557 
L 465.642247 522.371795 
L 466.668076 538.032625 
L 467.693906 528.724041 
L 468.719735 522.954011 
L 469.745565 528.142675 
L 470.771394 558.762815 
L 471.797224 530.555233 
L 472.823054 525.841649 
L 473.848883 557.744981 
L 474.874713 527.580943 
L 475.900542 543.672445 
L 476.926372 527.318092 
L 477.952201 535.709731 
L 478.978031 525.458723 
L 480.003861 563.347903 
L 481.02969 534.596469 
L 482.05552 532.774863 
L 483.081349 538.706597 
L 484.107179 537.406555 
L 485.133009 529.083895 
L 486.158838 558.087504 
L 487.184668 546.489005 
L 488.210497 548.339441 
L 489.236327 537.796059 
L 490.262156 543.090773 
L 491.287986 542.126437 
L 492.313816 548.086534 
L 493.339645 576.996859 
L 494.365475 538.482469 
L 495.391304 545.758352 
L 496.417134 545.133131 
L 497.442964 539.492949 
L 498.468793 537.90041 
L 499.494623 552.928858 
L 500.520452 547.7888 
L 501.546282 534.140465 
L 502.572111 545.049727 
L 503.597941 549.413383 
L 504.623771 533.100244 
L 505.6496 549.776504 
L 506.67543 540.144943 
L 507.701259 547.314995 
L 508.727089 535.763578 
L 509.752918 544.110448 
L 510.778748 548.038025 
L 511.804578 544.224333 
L 512.830407 536.332105 
L 513.856237 548.609806 
L 514.882066 546.8807 
L 515.907896 548.846449 
L 516.933726 544.958111 
L 517.959555 546.470838 
L 518.985385 549.4397 
L 520.011214 547.396087 
L 521.037044 551.515297 
L 522.062873 557.192624 
L 523.088703 555.293054 
L 524.114533 549.017995 
L 525.140362 570.93352 
L 526.166192 554.624201 
L 527.192021 553.762282 
L 528.217851 545.549395 
L 529.24368 550.719046 
L 530.26951 554.97398 
L 531.29534 547.665143 
L 532.321169 542.0062 
L 533.346999 545.809327 
L 534.372828 554.771521 
L 535.398658 556.295821 
L 536.424488 550.847745 
L 537.450317 549.732867 
L 538.476147 557.217014 
L 539.501976 557.870873 
L 540.527806 557.768682 
L 541.553635 557.991485 
L 542.579465 554.947319 
L 543.605295 558.913936 
L 544.631124 540.789575 
L 545.656954 550.314722 
L 546.682783 562.204368 
L 547.708613 550.510185 
L 548.734443 557.476881 
L 549.760272 561.203042 
L 550.786102 553.937659 
L 551.811931 559.705436 
L 552.837761 556.771162 
L 553.86359 547.916857 
L 554.88942 558.64788 
L 555.91525 560.612413 
L 556.941079 553.962878 
L 557.966909 561.882946 
L 558.992738 558.3125 
L 560.018568 565.381194 
L 561.044397 560.866361 
L 562.070227 549.638342 
L 563.096057 560.388286 
L 564.121886 559.071363 
L 565.147716 551.716799 
L 566.173545 554.853305 
L 567.199375 579.203315 
L 568.225205 563.762074 
L 569.251034 555.999694 
L 570.276864 554.325327 
L 571.302693 563.166781 
L 572.328523 571.024036 
L 573.354352 555.258221 
L 574.380182 553.288809 
L 575.406012 570.813934 
L 576.431841 572.333694 
L 577.457671 558.91782 
L 578.4835 566.410569 
L 579.50933 560.584693 
L 580.535159 564.984953 
L 581.560989 556.697885 
L 582.586819 558.644628 
L 583.612648 572.217278 
L 584.638478 565.517508 
L 585.664307 562.916 
L 586.690137 564.452724 
L 587.715967 581.525284 
L 588.741796 567.615371 
L 589.767626 561.584132 
L 590.793455 561.182433 
L 591.819285 570.506976 
L 592.845114 570.871355 
L 593.870944 560.726929 
L 594.896774 570.229619 
L 595.922603 564.615655 
L 596.948433 560.33048 
L 597.974262 568.446252 
L 599.000092 568.640379 
L 600.025922 563.034941 
L 601.051751 565.341842 
L 602.077581 570.964204 
L 603.10341 570.956374 
L 604.12924 563.793574 
L 605.155069 569.087492 
L 606.180899 569.87037 
L 607.206729 566.959275 
L 608.232558 567.572224 
L 609.258388 558.714479 
L 610.284217 558.776297 
L 611.310047 542.365602 
L 612.335876 514.483153 
L 613.361706 529.401318 
L 614.387536 568.447025 
L 615.413365 570.905972 
L 616.439195 536.431005 
L 617.465024 549.000474 
L 618.490854 566.507571 
L 619.516684 568.802831 
L 620.542513 564.091527 
L 621.568343 530.872627 
L 622.594172 538.720118 
L 623.620002 536.403485 
L 624.645831 566.108525 
L 625.671661 571.49438 
L 626.697491 573.653776 
L 627.72332 572.573168 
L 628.74915 564.228829 
L 629.774979 564.685414 
L 630.800809 572.602823 
L 631.826638 574.27497 
L 632.852468 565.936272 
L 633.878298 568.846255 
L 635.929957 576.505986 
L 636.955786 578.445247 
L 637.981616 571.100178 
L 639.007446 572.252791 
L 640.033275 577.34644 
L 641.059105 567.945616 
L 642.084934 568.45612 
L 643.110764 573.275233 
L 644.136593 572.119811 
L 645.162423 571.383531 
L 646.188253 574.001174 
L 647.214082 573.324722 
L 648.239912 572.869287 
L 649.265741 566.543765 
L 650.291571 567.455668 
L 651.3174 578.110305 
L 652.34323 575.182158 
L 653.36906 568.081294 
L 654.394889 567.305236 
L 655.420719 575.657885 
L 656.446548 571.827575 
L 657.472378 570.26185 
L 658.498208 556.380258 
L 659.524037 575.664197 
L 660.549867 577.415712 
L 661.575696 566.395109 
L 662.601526 569.594936 
L 663.627355 573.882966 
L 664.653185 579.33799 
L 665.679015 568.933055 
L 666.704844 567.244964 
L 667.730674 593.317448 
L 668.756503 577.187424 
L 669.782333 534.580567 
L 670.808163 573.172526 
L 671.833992 579.981257 
L 673.885651 569.480347 
L 674.911481 545.168897 
L 675.93731 578.508523 
L 676.96314 588.451187 
L 677.98897 569.224097 
L 679.014799 570.41708 
L 680.040629 582.757452 
L 681.066458 565.872483 
L 682.092288 576.396519 
L 683.118117 575.942524 
L 684.143947 580.813075 
L 685.169777 580.616621 
L 686.195606 558.48367 
L 687.221436 575.194529 
L 688.247265 581.400137 
L 689.273095 579.769355 
L 690.298925 575.232562 
L 691.324754 575.602513 
L 692.350584 574.644675 
L 693.376413 585.465443 
L 694.402243 577.856406 
L 695.428072 576.474818 
L 696.453902 579.921024 
L 697.479732 579.81396 
L 698.505561 575.000348 
L 699.531391 577.654492 
L 700.55722 578.43336 
L 701.58305 579.862826 
L 702.608879 574.790778 
L 703.634709 571.672228 
L 704.660539 582.060792 
L 705.686368 580.226216 
L 706.712198 571.232485 
L 707.738027 575.724699 
L 708.763857 568.007239 
L 709.789687 581.7711 
L 711.841346 575.529736 
L 712.867175 581.692567 
L 713.893005 584.719408 
L 714.918834 592.350848 
L 715.944664 575.990449 
L 716.970494 579.564595 
L 717.996323 579.63976 
L 719.022153 580.044196 
L 720.047982 554.754819 
L 721.073812 585.080958 
L 722.099642 583.47052 
L 723.125471 578.391886 
L 724.151301 580.47082 
L 725.17713 568.197934 
L 726.20296 584.253183 
L 727.228789 578.860985 
L 728.254619 580.68501 
L 729.280449 593.177673 
L 730.306278 583.883363 
L 731.332108 593.652961 
L 732.357937 582.313562 
L 733.383767 590.429869 
L 734.409596 585.084305 
L 735.435426 575.669527 
L 736.461256 573.600297 
L 737.487085 589.743063 
L 738.512915 585.314531 
L 739.538744 578.254209 
L 740.564574 577.437344 
L 741.590404 565.323519 
L 742.616233 584.314155 
L 743.642063 578.736864 
L 744.667892 579.62047 
L 745.693722 586.92163 
L 746.719551 576.93753 
L 747.745381 581.67979 
L 748.771211 574.742606 
L 749.79704 584.05317 
L 750.82287 587.778477 
L 751.848699 574.262915 
L 752.874529 585.611444 
L 753.900358 584.775559 
L 754.926188 585.110271 
L 755.952018 576.607407 
L 756.977847 576.27701 
L 758.003677 588.957831 
L 759.029506 586.443834 
L 760.055336 583.194972 
L 761.081166 581.609887 
L 763.132825 588.815573 
L 764.158654 578.7273 
L 765.184484 580.478328 
L 766.210313 578.244112 
L 767.236143 585.308797 
L 768.261973 579.089813 
L 769.287802 582.015933 
L 770.313632 587.2644 
L 771.339461 585.12212 
L 772.365291 576.836555 
L 773.391121 574.302788 
L 774.41695 583.177088 
L 775.44278 583.947327 
L 776.468609 571.429711 
L 777.494439 578.448243 
L 778.520268 587.018233 
L 779.546098 585.378533 
L 780.571928 575.999837 
L 781.597757 578.680831 
L 782.623587 579.501901 
L 783.649416 588.326329 
L 784.675246 576.545295 
L 785.701075 582.264435 
L 786.726905 584.98925 
L 787.752735 588.18806 
L 788.778564 580.444211 
L 789.804394 580.753199 
L 790.830223 589.640034 
L 791.856053 573.976432 
L 792.881883 581.997952 
L 793.907712 588.690511 
L 794.933542 596.772017 
L 796.985201 581.4503 
L 798.01103 582.112513 
L 799.03686 587.378214 
L 800.06269 590.963427 
L 801.088519 583.480337 
L 802.114349 584.705347 
L 803.140178 587.063715 
L 804.166008 572.975175 
L 805.191837 585.453305 
L 806.217667 586.198653 
L 807.243497 587.938778 
L 808.269326 587.570022 
L 809.295156 580.192753 
L 810.320985 562.453266 
L 811.346815 591.639444 
L 812.372645 587.707217 
L 813.398474 586.003533 
L 814.424304 542.869882 
L 815.450133 594.135613 
L 816.475963 590.877738 
L 817.501792 579.121164 
L 818.527622 583.176482 
L 819.553452 589.303874 
L 820.579281 591.062025 
L 821.605111 591.991984 
L 822.63094 585.469412 
L 823.65677 586.679037 
L 824.6826 589.198813 
L 825.708429 552.268601 
L 826.734259 587.160712 
L 828.785918 590.138554 
L 829.811747 583.782352 
L 830.837577 583.353664 
L 831.863407 588.287765 
L 832.889236 589.414334 
L 833.915066 583.927914 
L 834.940895 588.965908 
L 835.966725 591.528734 
L 836.992554 591.809547 
L 838.018384 574.856654 
L 839.044214 580.107147 
L 840.070043 589.814278 
L 841.095873 590.08526 
L 842.121702 585.825077 
L 843.147532 564.261104 
L 844.173362 588.546432 
L 845.199191 588.615742 
L 846.225021 587.516332 
L 847.25085 590.82633 
L 848.27668 582.798286 
L 849.302509 587.305974 
L 850.328339 596.715869 
L 851.354169 564.215053 
L 852.379998 591.232129 
L 853.405828 590.002435 
L 854.431657 588.138551 
L 855.457487 589.546347 
L 856.483316 571.798528 
L 857.509146 592.826803 
L 858.534976 600.836857 
L 859.560805 591.127135 
L 860.586635 592.6918 
L 861.612464 593.368278 
L 862.638294 551.068933 
L 863.664124 586.484335 
L 864.689953 592.175474 
L 865.715783 595.887655 
L 866.741612 584.711066 
L 867.767442 559.533733 
L 869.819101 592.949666 
L 870.844931 587.168695 
L 871.87076 587.322134 
L 872.89659 591.858527 
L 873.922419 588.340251 
L 874.948249 557.430485 
L 875.974078 589.558043 
L 876.999908 593.99562 
L 878.025738 594.7495 
L 879.051567 592.992353 
L 880.077397 570.531555 
L 881.103226 598.344481 
L 882.129056 591.699623 
L 883.154886 582.717721 
L 884.180715 589.456972 
L 885.206545 593.38478 
L 886.232374 579.159413 
L 887.258204 591.184705 
L 888.284033 586.970593 
L 889.309863 593.627699 
L 890.335693 594.869308 
L 891.361522 589.464716 
L 892.387352 595.728299 
L 893.413181 583.384956 
L 894.439011 595.696857 
L 895.464841 587.639779 
L 896.49067 593.800728 
L 897.5165 587.765924 
L 898.542329 591.143131 
L 899.568159 589.846758 
L 900.593988 597.594463 
L 901.619818 594.243068 
L 902.645648 597.048729 
L 903.671477 590.84286 
L 904.697307 591.726818 
L 905.723136 596.178824 
L 906.748966 594.995689 
L 907.774795 592.745661 
L 908.800625 592.114831 
L 909.826455 588.268267 
L 910.852284 603.476814 
L 911.878114 592.189491 
L 912.903943 588.738076 
L 913.929773 594.020275 
L 914.955603 595.514264 
L 915.981432 591.032919 
L 917.007262 595.759357 
L 918.033091 595.487672 
L 919.058921 595.523783 
L 920.08475 591.01457 
L 921.11058 589.717249 
L 922.13641 596.105161 
L 923.162239 597.316834 
L 924.188069 592.107879 
L 925.213898 592.458097 
L 926.239728 590.833192 
L 927.265557 596.064406 
L 928.291387 590.796652 
L 929.317217 589.80986 
L 930.343046 598.331887 
L 931.368876 596.213146 
L 932.394705 592.042159 
L 933.420535 590.88619 
L 934.446365 595.462231 
L 935.472194 595.752308 
L 936.498024 587.342356 
L 937.523853 593.874643 
L 939.575512 598.854103 
L 940.601342 593.490421 
L 941.627172 592.431672 
L 942.653001 597.168127 
L 943.678831 596.415884 
L 944.70466 593.434592 
L 945.73049 591.359226 
L 946.75632 595.876176 
L 947.782149 595.437189 
L 948.807979 591.41939 
L 949.833808 594.831061 
L 950.859638 598.928742 
L 952.911297 593.974135 
L 953.937127 593.002567 
L 955.988786 603.440459 
L 957.014615 596.066235 
L 958.040445 592.916399 
L 959.066274 597.818957 
L 960.092104 598.642997 
L 961.117934 594.417171 
L 962.143763 592.72029 
L 963.169593 594.557781 
L 964.195422 599.240801 
L 965.221252 594.19255 
L 966.247082 596.747237 
L 967.272911 598.920866 
L 968.298741 596.03701 
L 969.32457 593.599544 
L 970.3504 596.519243 
L 971.376229 600.0601 
L 972.402059 599.472412 
L 973.427889 593.284995 
L 974.453718 596.186537 
L 975.479548 601.016628 
L 976.505377 598.987852 
L 977.531207 595.071967 
L 978.557036 586.628313 
L 979.582866 601.705701 
L 980.608696 600.658707 
L 981.634525 596.356295 
L 982.660355 596.226897 
L 983.686184 599.37751 
L 984.712014 598.876397 
L 985.737844 595.386854 
L 986.763673 595.272828 
L 987.789503 603.830418 
L 988.815332 597.946395 
L 989.841162 597.126471 
L 990.866991 595.371931 
L 991.892821 601.770476 
L 992.918651 599.187271 
L 993.94448 593.702061 
L 994.97031 598.967075 
L 995.996139 599.043479 
L 997.021969 598.88724 
L 998.047799 595.485894 
L 999.073628 596.294176 
L 1000.099458 599.824203 
L 1001.125287 601.017697 
L 1002.151117 607.833264 
L 1003.176946 589.965811 
L 1004.202776 602.936606 
L 1005.228606 601.96963 
L 1006.254435 598.28139 
L 1007.280265 599.329383 
L 1008.306094 598.261321 
L 1009.331924 600.474796 
L 1010.357753 598.079849 
L 1011.383583 598.468753 
L 1012.409413 601.599323 
L 1013.435242 605.229444 
L 1014.461072 598.728212 
L 1015.486901 599.077191 
L 1016.512731 602.800725 
L 1017.538561 602.398929 
L 1018.56439 614.525615 
L 1019.59022 600.286819 
L 1020.616049 601.512874 
L 1021.641879 601.490256 
L 1022.667708 596.402599 
L 1023.693538 596.636678 
L 1024.719368 601.327221 
L 1025.745197 606.704835 
L 1026.771027 596.064963 
L 1027.796856 588.483883 
L 1028.822686 601.882306 
L 1029.848515 601.721919 
L 1030.874345 598.257584 
L 1031.900175 596.911307 
L 1032.926004 604.895535 
L 1034.977663 598.240729 
L 1036.003493 599.175608 
L 1037.029323 603.000603 
L 1038.055152 589.74547 
L 1039.080982 599.112759 
L 1040.106811 598.051151 
L 1041.132641 601.469429 
L 1042.15847 599.153287 
L 1043.1843 600.509371 
L 1044.21013 600.039227 
L 1045.235959 603.524273 
L 1046.261789 601.874209 
L 1047.287618 603.404749 
L 1048.313448 606.250084 
L 1049.339278 601.867791 
L 1050.365107 602.681911 
L 1051.390937 598.187801 
L 1052.416766 598.586136 
L 1053.442596 603.78602 
L 1054.468425 602.329255 
L 1055.494255 598.071659 
L 1056.520085 596.68049 
L 1057.545914 603.250571 
L 1058.571744 602.941446 
L 1059.597573 598.199638 
L 1060.623403 598.986604 
L 1061.649232 603.306507 
L 1062.675062 605.40475 
L 1063.700892 601.081076 
L 1064.726721 608.302297 
L 1065.752551 602.489792 
L 1066.77838 603.722061 
L 1067.80421 598.220406 
L 1068.83004 599.318579 
L 1069.855869 602.413873 
L 1070.881699 604.546767 
L 1071.907528 599.770833 
L 1072.933358 599.675333 
L 1073.959187 603.314242 
L 1074.985017 603.377668 
L 1076.010847 600.602432 
L 1077.036676 598.428463 
L 1078.062506 602.455355 
L 1079.088335 604.783758 
L 1080.114165 597.600901 
L 1081.139994 609.910912 
L 1082.165824 603.333335 
L 1083.191654 603.378739 
L 1084.217483 599.318064 
L 1085.243313 604.200137 
L 1086.269142 603.822111 
L 1087.294972 603.780029 
L 1088.320802 601.511386 
L 1089.346631 592.280478 
L 1090.372461 603.676788 
L 1091.39829 604.311052 
L 1092.42412 600.422463 
L 1093.449949 600.88867 
L 1094.475779 603.685878 
L 1095.501609 606.919116 
L 1096.527438 600.366244 
L 1097.553268 599.83119 
L 1098.579097 601.161165 
L 1099.604927 604.517311 
L 1100.630757 599.400106 
L 1101.656586 599.594319 
L 1102.682416 603.588427 
L 1103.708245 603.652842 
L 1104.734075 597.398013 
L 1105.759904 599.562676 
L 1106.785734 604.337876 
L 1107.811564 603.45389 
L 1108.837393 607.805132 
L 1109.863223 601.955269 
L 1110.889052 604.972374 
L 1111.914882 606.407567 
L 1112.940711 606.712999 
L 1113.966541 602.084364 
L 1114.992371 606.444134 
L 1116.0182 606.779835 
L 1117.04403 600.763158 
L 1118.069859 599.33458 
L 1119.095689 606.522955 
L 1120.121519 606.490421 
L 1121.147348 599.339885 
L 1122.173178 600.604293 
L 1123.199007 604.97012 
L 1124.224837 605.953722 
L 1125.250666 600.79824 
L 1126.276496 604.919498 
L 1127.302326 605.515382 
L 1128.328155 605.132 
L 1129.353985 601.194695 
L 1130.379814 602.90998 
L 1131.405644 600.864745 
L 1132.431473 605.268766 
L 1133.457303 600.495052 
L 1134.483133 600.717476 
L 1135.508962 604.454763 
L 1136.534792 605.888204 
L 1137.560621 601.803185 
L 1138.586451 602.582722 
L 1139.612281 615.458838 
L 1140.63811 607.798852 
L 1141.66394 602.142071 
L 1142.689769 595.265194 
L 1143.715599 608.46546 
L 1144.741428 605.601839 
L 1145.767258 603.138135 
L 1146.793088 601.654944 
L 1147.818917 601.790266 
L 1148.844747 615.6 
L 1149.870576 602.853704 
L 1150.896406 603.147225 
L 1151.922235 606.659666 
L 1152.948065 606.844077 
L 1153.973895 602.743705 
L 1154.999724 603.712951 
L 1156.025554 606.994474 
L 1157.051383 599.729896 
L 1158.077213 604.576894 
L 1159.103043 598.864217 
L 1160.128872 605.403062 
L 1161.154702 605.859136 
L 1162.180531 603.620028 
L 1163.206361 602.787034 
L 1164.23219 607.476894 
L 1165.25802 606.415992 
L 1166.28385 602.923166 
L 1167.309679 604.167165 
L 1168.335509 608.060189 
L 1169.361338 607.459601 
L 1170.387168 604.289428 
L 1171.412998 602.657069 
L 1172.438827 606.41631 
L 1173.464657 607.0039 
L 1174.490486 603.082945 
L 1175.516316 603.727197 
L 1176.542145 608.18572 
L 1177.567975 608.16168 
L 1178.593805 597.649949 
L 1179.619634 578.135081 
L 1180.645464 598.811209 
L 1181.671293 606.935202 
L 1182.697123 602.968578 
L 1183.722952 605.69868 
L 1184.748782 611.910054 
L 1185.774612 608.908314 
L 1186.800441 604.751079 
L 1187.826271 602.906185 
L 1188.8521 608.463729 
L 1189.87793 607.103834 
L 1190.90376 601.544132 
L 1192.955419 607.42798 
L 1193.981248 606.876157 
L 1195.007078 602.311304 
L 1196.032907 602.631197 
L 1197.058737 608.228134 
L 1198.084567 607.351669 
L 1199.110396 604.645019 
L 1200.136226 604.765436 
L 1201.162055 609.029215 
L 1203.213714 605.356121 
L 1204.239544 604.209689 
L 1205.265374 608.658163 
L 1206.291203 607.187337 
L 1207.317033 602.349176 
L 1208.342862 603.72996 
L 1209.368692 607.214584 
L 1210.394522 608.007461 
L 1211.420351 603.761796 
L 1212.446181 603.276563 
L 1213.47201 608.434639 
L 1214.49784 609.912621 
L 1215.523669 605.973114 
L 1216.549499 605.704755 
L 1217.575329 608.819211 
L 1218.601158 610.410193 
L 1219.626988 604.614129 
L 1220.652817 603.926591 
L 1221.678647 608.427517 
L 1222.704477 599.157118 
L 1223.730306 605.323057 
L 1224.756136 605.380911 
L 1225.781965 598.28247 
L 1226.807795 609.314991 
L 1227.833624 604.239453 
L 1228.859454 579.31737 
L 1229.885284 608.515579 
L 1230.911113 608.275786 
L 1231.936943 605.305895 
L 1232.962772 608.32963 
L 1233.988602 608.975919 
L 1235.014431 608.412589 
L 1236.040261 596.963111 
L 1237.066091 600.487858 
L 1238.09192 607.569907 
L 1239.11775 608.926943 
L 1240.143579 604.631785 
L 1241.169409 604.905308 
L 1242.195239 608.898148 
L 1243.221068 608.736369 
L 1244.246898 603.970028 
L 1245.272727 604.691763 
L 1245.272727 604.691763 
" style="fill:none;stroke:#ff7f0e;stroke-linecap:square;stroke-width:1.5;"/>
   </g>
   <g id="patch_3">
    <path d="M 180 640.8 
L 180 86.4 
" style="fill:none;stroke:#000000;stroke-linecap:square;stroke-linejoin:miter;stroke-width:0.8;"/>
   </g>
   <g id="patch_4">
    <path d="M 1296 640.8 
L 1296 86.4 
" style="fill:none;stroke:#000000;stroke-linecap:square;stroke-linejoin:miter;stroke-width:0.8;"/>
   </g>
   <g id="patch_5">
    <path d="M 180 640.8 
L 1296 640.8 
" style="fill:none;stroke:#000000;stroke-linecap:square;stroke-linejoin:miter;stroke-width:0.8;"/>
   </g>
   <g id="patch_6">
    <path d="M 180 86.4 
L 1296 86.4 
" style="fill:none;stroke:#000000;stroke-linecap:square;stroke-linejoin:miter;stroke-width:0.8;"/>
   </g>
   <g id="text_19">
    <!-- Accumulation/Distribution Index (ADI) Speedup -->
    <defs>
     <path d="M 34.1875 63.1875 
L 20.796875 26.90625 
L 47.609375 26.90625 
z
M 28.609375 72.90625 
L 39.796875 72.90625 
L 67.578125 0 
L 57.328125 0 
L 50.6875 18.703125 
L 17.828125 18.703125 
L 11.1875 0 
L 0.78125 0 
z
" id="DejaVuSans-65"/>
     <path d="M 48.78125 52.59375 
L 48.78125 44.1875 
Q 44.96875 46.296875 41.140625 47.34375 
Q 37.3125 48.390625 33.40625 48.390625 
Q 24.65625 48.390625 19.8125 42.84375 
Q 14.984375 37.3125 14.984375 27.296875 
Q 14.984375 17.28125 19.8125 11.734375 
Q 24.65625 6.203125 33.40625 6.203125 
Q 37.3125 6.203125 41.140625 7.25 
Q 44.96875 8.296875 48.78125 10.40625 
L 48.78125 2.09375 
Q 45.015625 0.34375 40.984375 -0.53125 
Q 36.96875 -1.421875 32.421875 -1.421875 
Q 20.0625 -1.421875 12.78125 6.34375 
Q 5.515625 14.109375 5.515625 27.296875 
Q 5.515625 40.671875 12.859375 48.328125 
Q 20.21875 56 33.015625 56 
Q 37.15625 56 41.109375 55.140625 
Q 45.0625 54.296875 48.78125 52.59375 
z
" id="DejaVuSans-99"/>
     <path d="M 52 44.1875 
Q 55.375 50.25 60.0625 53.125 
Q 64.75 56 71.09375 56 
Q 79.640625 56 84.28125 50.015625 
Q 88.921875 44.046875 88.921875 33.015625 
L 88.921875 0 
L 79.890625 0 
L 79.890625 32.71875 
Q 79.890625 40.578125 77.09375 44.375 
Q 74.3125 48.1875 68.609375 48.1875 
Q 61.625 48.1875 57.5625 43.546875 
Q 53.515625 38.921875 53.515625 30.90625 
L 53.515625 0 
L 44.484375 0 
L 44.484375 32.71875 
Q 44.484375 40.625 41.703125 44.40625 
Q 38.921875 48.1875 33.109375 48.1875 
Q 26.21875 48.1875 22.15625 43.53125 
Q 18.109375 38.875 18.109375 30.90625 
L 18.109375 0 
L 9.078125 0 
L 9.078125 54.6875 
L 18.109375 54.6875 
L 18.109375 46.1875 
Q 21.1875 51.21875 25.484375 53.609375 
Q 29.78125 56 35.6875 56 
Q 41.65625 56 45.828125 52.96875 
Q 50 49.953125 52 44.1875 
z
" id="DejaVuSans-109"/>
     <path d="M 9.421875 75.984375 
L 18.40625 75.984375 
L 18.40625 0 
L 9.421875 0 
z
" id="DejaVuSans-108"/>
     <path d="M 34.28125 27.484375 
Q 23.390625 27.484375 19.1875 25 
Q 14.984375 22.515625 14.984375 16.5 
Q 14.984375 11.71875 18.140625 8.90625 
Q 21.296875 6.109375 26.703125 6.109375 
Q 34.1875 6.109375 38.703125 11.40625 
Q 43.21875 16.703125 43.21875 25.484375 
L 43.21875 27.484375 
z
M 52.203125 31.203125 
L 52.203125 0 
L 43.21875 0 
L 43.21875 8.296875 
Q 40.140625 3.328125 35.546875 0.953125 
Q 30.953125 -1.421875 24.3125 -1.421875 
Q 15.921875 -1.421875 10.953125 3.296875 
Q 6 8.015625 6 15.921875 
Q 6 25.140625 12.171875 29.828125 
Q 18.359375 34.515625 30.609375 34.515625 
L 43.21875 34.515625 
L 43.21875 35.40625 
Q 43.21875 41.609375 39.140625 45 
Q 35.0625 48.390625 27.6875 48.390625 
Q 23 48.390625 18.546875 47.265625 
Q 14.109375 46.140625 10.015625 43.890625 
L 10.015625 52.203125 
Q 14.9375 54.109375 19.578125 55.046875 
Q 24.21875 56 28.609375 56 
Q 40.484375 56 46.34375 49.84375 
Q 52.203125 43.703125 52.203125 31.203125 
z
" id="DejaVuSans-97"/>
     <path d="M 18.3125 70.21875 
L 18.3125 54.6875 
L 36.8125 54.6875 
L 36.8125 47.703125 
L 18.3125 47.703125 
L 18.3125 18.015625 
Q 18.3125 11.328125 20.140625 9.421875 
Q 21.96875 7.515625 27.59375 7.515625 
L 36.8125 7.515625 
L 36.8125 0 
L 27.59375 0 
Q 17.1875 0 13.234375 3.875 
Q 9.28125 7.765625 9.28125 18.015625 
L 9.28125 47.703125 
L 2.6875 47.703125 
L 2.6875 54.6875 
L 9.28125 54.6875 
L 9.28125 70.21875 
z
" id="DejaVuSans-116"/>
     <path d="M 9.421875 54.6875 
L 18.40625 54.6875 
L 18.40625 0 
L 9.421875 0 
z
M 9.421875 75.984375 
L 18.40625 75.984375 
L 18.40625 64.59375 
L 9.421875 64.59375 
z
" id="DejaVuSans-105"/>
     <path d="M 30.609375 48.390625 
Q 23.390625 48.390625 19.1875 42.75 
Q 14.984375 37.109375 14.984375 27.296875 
Q 14.984375 17.484375 19.15625 11.84375 
Q 23.34375 6.203125 30.609375 6.203125 
Q 37.796875 6.203125 41.984375 11.859375 
Q 46.1875 17.53125 46.1875 27.296875 
Q 46.1875 37.015625 41.984375 42.703125 
Q 37.796875 48.390625 30.609375 48.390625 
z
M 30.609375 56 
Q 42.328125 56 49.015625 48.375 
Q 55.71875 40.765625 55.71875 27.296875 
Q 55.71875 13.875 49.015625 6.21875 
Q 42.328125 -1.421875 30.609375 -1.421875 
Q 18.84375 -1.421875 12.171875 6.21875 
Q 5.515625 13.875 5.515625 27.296875 
Q 5.515625 40.765625 12.171875 48.375 
Q 18.84375 56 30.609375 56 
z
" id="DejaVuSans-111"/>
     <path d="M 25.390625 72.90625 
L 33.6875 72.90625 
L 8.296875 -9.28125 
L 0 -9.28125 
z
" id="DejaVuSans-47"/>
     <path d="M 19.671875 64.796875 
L 19.671875 8.109375 
L 31.59375 8.109375 
Q 46.6875 8.109375 53.6875 14.9375 
Q 60.6875 21.78125 60.6875 36.53125 
Q 60.6875 51.171875 53.6875 57.984375 
Q 46.6875 64.796875 31.59375 64.796875 
z
M 9.8125 72.90625 
L 30.078125 72.90625 
Q 51.265625 72.90625 61.171875 64.09375 
Q 71.09375 55.28125 71.09375 36.53125 
Q 71.09375 17.671875 61.125 8.828125 
Q 51.171875 0 30.078125 0 
L 9.8125 0 
z
" id="DejaVuSans-68"/>
     <path d="M 41.109375 46.296875 
Q 39.59375 47.171875 37.8125 47.578125 
Q 36.03125 48 33.890625 48 
Q 26.265625 48 22.1875 43.046875 
Q 18.109375 38.09375 18.109375 28.8125 
L 18.109375 0 
L 9.078125 0 
L 9.078125 54.6875 
L 18.109375 54.6875 
L 18.109375 46.1875 
Q 20.953125 51.171875 25.484375 53.578125 
Q 30.03125 56 36.53125 56 
Q 37.453125 56 38.578125 55.875 
Q 39.703125 55.765625 41.0625 55.515625 
z
" id="DejaVuSans-114"/>
     <path d="M 48.6875 27.296875 
Q 48.6875 37.203125 44.609375 42.84375 
Q 40.53125 48.484375 33.40625 48.484375 
Q 26.265625 48.484375 22.1875 42.84375 
Q 18.109375 37.203125 18.109375 27.296875 
Q 18.109375 17.390625 22.1875 11.75 
Q 26.265625 6.109375 33.40625 6.109375 
Q 40.53125 6.109375 44.609375 11.75 
Q 48.6875 17.390625 48.6875 27.296875 
z
M 18.109375 46.390625 
Q 20.953125 51.265625 25.265625 53.625 
Q 29.59375 56 35.59375 56 
Q 45.5625 56 51.78125 48.09375 
Q 58.015625 40.1875 58.015625 27.296875 
Q 58.015625 14.40625 51.78125 6.484375 
Q 45.5625 -1.421875 35.59375 -1.421875 
Q 29.59375 -1.421875 25.265625 0.953125 
Q 20.953125 3.328125 18.109375 8.203125 
L 18.109375 0 
L 9.078125 0 
L 9.078125 75.984375 
L 18.109375 75.984375 
z
" id="DejaVuSans-98"/>
     <path id="DejaVuSans-32"/>
     <path d="M 9.8125 72.90625 
L 19.671875 72.90625 
L 19.671875 0 
L 9.8125 0 
z
" id="DejaVuSans-73"/>
     <path d="M 54.890625 54.6875 
L 35.109375 28.078125 
L 55.90625 0 
L 45.3125 0 
L 29.390625 21.484375 
L 13.484375 0 
L 2.875 0 
L 24.125 28.609375 
L 4.6875 54.6875 
L 15.28125 54.6875 
L 29.78125 35.203125 
L 44.28125 54.6875 
z
" id="DejaVuSans-120"/>
     <path d="M 31 75.875 
Q 24.46875 64.65625 21.28125 53.65625 
Q 18.109375 42.671875 18.109375 31.390625 
Q 18.109375 20.125 21.3125 9.0625 
Q 24.515625 -2 31 -13.1875 
L 23.1875 -13.1875 
Q 15.875 -1.703125 12.234375 9.375 
Q 8.59375 20.453125 8.59375 31.390625 
Q 8.59375 42.28125 12.203125 53.3125 
Q 15.828125 64.359375 23.1875 75.875 
z
" id="DejaVuSans-40"/>
     <path d="M 8.015625 75.875 
L 15.828125 75.875 
Q 23.140625 64.359375 26.78125 53.3125 
Q 30.421875 42.28125 30.421875 31.390625 
Q 30.421875 20.453125 26.78125 9.375 
Q 23.140625 -1.703125 15.828125 -13.1875 
L 8.015625 -13.1875 
Q 14.5 -2 17.703125 9.0625 
Q 20.90625 20.125 20.90625 31.390625 
Q 20.90625 42.671875 17.703125 53.65625 
Q 14.5 64.65625 8.015625 75.875 
z
" id="DejaVuSans-41"/>
     <path d="M 53.515625 70.515625 
L 53.515625 60.890625 
Q 47.90625 63.578125 42.921875 64.890625 
Q 37.9375 66.21875 33.296875 66.21875 
Q 25.25 66.21875 20.875 63.09375 
Q 16.5 59.96875 16.5 54.203125 
Q 16.5 49.359375 19.40625 46.890625 
Q 22.3125 44.4375 30.421875 42.921875 
L 36.375 41.703125 
Q 47.40625 39.59375 52.65625 34.296875 
Q 57.90625 29 57.90625 20.125 
Q 57.90625 9.515625 50.796875 4.046875 
Q 43.703125 -1.421875 29.984375 -1.421875 
Q 24.8125 -1.421875 18.96875 -0.25 
Q 13.140625 0.921875 6.890625 3.21875 
L 6.890625 13.375 
Q 12.890625 10.015625 18.65625 8.296875 
Q 24.421875 6.59375 29.984375 6.59375 
Q 38.421875 6.59375 43.015625 9.90625 
Q 47.609375 13.234375 47.609375 19.390625 
Q 47.609375 24.75 44.3125 27.78125 
Q 41.015625 30.8125 33.5 32.328125 
L 27.484375 33.5 
Q 16.453125 35.6875 11.515625 40.375 
Q 6.59375 45.0625 6.59375 53.421875 
Q 6.59375 63.09375 13.40625 68.65625 
Q 20.21875 74.21875 32.171875 74.21875 
Q 37.3125 74.21875 42.625 73.28125 
Q 47.953125 72.359375 53.515625 70.515625 
z
" id="DejaVuSans-83"/>
    </defs>
    <g transform="translate(596.25375 80.4)scale(0.12 -0.12)">
     <use xlink:href="#DejaVuSans-65"/>
     <use x="66.658203" xlink:href="#DejaVuSans-99"/>
     <use x="121.638672" xlink:href="#DejaVuSans-99"/>
     <use x="176.619141" xlink:href="#DejaVuSans-117"/>
     <use x="239.998047" xlink:href="#DejaVuSans-109"/>
     <use x="337.410156" xlink:href="#DejaVuSans-117"/>
     <use x="400.789062" xlink:href="#DejaVuSans-108"/>
     <use x="428.572266" xlink:href="#DejaVuSans-97"/>
     <use x="489.851562" xlink:href="#DejaVuSans-116"/>
     <use x="529.060547" xlink:href="#DejaVuSans-105"/>
     <use x="556.84375" xlink:href="#DejaVuSans-111"/>
     <use x="618.025391" xlink:href="#DejaVuSans-110"/>
     <use x="681.404297" xlink:href="#DejaVuSans-47"/>
     <use x="715.095703" xlink:href="#DejaVuSans-68"/>
     <use x="792.097656" xlink:href="#DejaVuSans-105"/>
     <use x="819.880859" xlink:href="#DejaVuSans-115"/>
     <use x="871.980469" xlink:href="#DejaVuSans-116"/>
     <use x="911.189453" xlink:href="#DejaVuSans-114"/>
     <use x="952.302734" xlink:href="#DejaVuSans-105"/>
     <use x="980.085938" xlink:href="#DejaVuSans-98"/>
     <use x="1043.5625" xlink:href="#DejaVuSans-117"/>
     <use x="1106.941406" xlink:href="#DejaVuSans-116"/>
     <use x="1146.150391" xlink:href="#DejaVuSans-105"/>
     <use x="1173.933594" xlink:href="#DejaVuSans-111"/>
     <use x="1235.115234" xlink:href="#DejaVuSans-110"/>
     <use x="1298.494141" xlink:href="#DejaVuSans-32"/>
     <use x="1330.28125" xlink:href="#DejaVuSans-73"/>
     <use x="1359.773438" xlink:href="#DejaVuSans-110"/>
     <use x="1423.152344" xlink:href="#DejaVuSans-100"/>
     <use x="1486.628906" xlink:href="#DejaVuSans-101"/>
     <use x="1546.402344" xlink:href="#DejaVuSans-120"/>
     <use x="1605.582031" xlink:href="#DejaVuSans-32"/>
     <use x="1637.369141" xlink:href="#DejaVuSans-40"/>
     <use x="1676.382812" xlink:href="#DejaVuSans-65"/>
     <use x="1744.791016" xlink:href="#DejaVuSans-68"/>
     <use x="1821.792969" xlink:href="#DejaVuSans-73"/>
     <use x="1851.285156" xlink:href="#DejaVuSans-41"/>
     <use x="1890.298828" xlink:href="#DejaVuSans-32"/>
     <use x="1922.085938" xlink:href="#DejaVuSans-83"/>
     <use x="1985.5625" xlink:href="#DejaVuSans-112"/>
     <use x="2049.039062" xlink:href="#DejaVuSans-101"/>
     <use x="2110.5625" xlink:href="#DejaVuSans-101"/>
     <use x="2172.085938" xlink:href="#DejaVuSans-100"/>
     <use x="2235.5625" xlink:href="#DejaVuSans-117"/>
     <use x="2298.941406" xlink:href="#DejaVuSans-112"/>
    </g>
   </g>
   <g id="legend_1">
    <g id="patch_7">
     <path d="M 1185.373437 123.75625 
L 1289 123.75625 
Q 1291 123.75625 1291 121.75625 
L 1291 93.4 
Q 1291 91.4 1289 91.4 
L 1185.373437 91.4 
Q 1183.373437 91.4 1183.373437 93.4 
L 1183.373437 121.75625 
Q 1183.373437 123.75625 1185.373437 123.75625 
z
" style="fill:#ffffff;opacity:0.8;stroke:#cccccc;stroke-linejoin:miter;"/>
    </g>
    <g id="line2d_19">
     <path d="M 1187.373437 99.498437 
L 1207.373437 99.498437 
" style="fill:none;stroke:#1f77b4;stroke-linecap:square;stroke-width:1.5;"/>
    </g>
    <g id="line2d_20"/>
    <g id="text_20">
     <!-- numpy.float32 -->
     <defs>
      <path d="M 32.171875 -5.078125 
Q 28.375 -14.84375 24.75 -17.8125 
Q 21.140625 -20.796875 15.09375 -20.796875 
L 7.90625 -20.796875 
L 7.90625 -13.28125 
L 13.1875 -13.28125 
Q 16.890625 -13.28125 18.9375 -11.515625 
Q 21 -9.765625 23.484375 -3.21875 
L 25.09375 0.875 
L 2.984375 54.6875 
L 12.5 54.6875 
L 29.59375 11.921875 
L 46.6875 54.6875 
L 56.203125 54.6875 
z
" id="DejaVuSans-121"/>
      <path d="M 37.109375 75.984375 
L 37.109375 68.5 
L 28.515625 68.5 
Q 23.6875 68.5 21.796875 66.546875 
Q 19.921875 64.59375 19.921875 59.515625 
L 19.921875 54.6875 
L 34.71875 54.6875 
L 34.71875 47.703125 
L 19.921875 47.703125 
L 19.921875 0 
L 10.890625 0 
L 10.890625 47.703125 
L 2.296875 47.703125 
L 2.296875 54.6875 
L 10.890625 54.6875 
L 10.890625 58.5 
Q 10.890625 67.625 15.140625 71.796875 
Q 19.390625 75.984375 28.609375 75.984375 
z
" id="DejaVuSans-102"/>
     </defs>
     <g transform="translate(1215.373437 102.998437)scale(0.1 -0.1)">
      <use xlink:href="#DejaVuSans-110"/>
      <use x="63.378906" xlink:href="#DejaVuSans-117"/>
      <use x="126.757812" xlink:href="#DejaVuSans-109"/>
      <use x="224.169922" xlink:href="#DejaVuSans-112"/>
      <use x="287.646484" xlink:href="#DejaVuSans-121"/>
      <use x="332.576172" xlink:href="#DejaVuSans-46"/>
      <use x="364.363281" xlink:href="#DejaVuSans-102"/>
      <use x="399.568359" xlink:href="#DejaVuSans-108"/>
      <use x="427.351562" xlink:href="#DejaVuSans-111"/>
      <use x="488.533203" xlink:href="#DejaVuSans-97"/>
      <use x="549.8125" xlink:href="#DejaVuSans-116"/>
      <use x="589.021484" xlink:href="#DejaVuSans-51"/>
      <use x="652.644531" xlink:href="#DejaVuSans-50"/>
     </g>
    </g>
    <g id="line2d_21">
     <path d="M 1187.373437 114.176562 
L 1207.373437 114.176562 
" style="fill:none;stroke:#ff7f0e;stroke-linecap:square;stroke-width:1.5;"/>
    </g>
    <g id="line2d_22"/>
    <g id="text_21">
     <!-- numpy.float64 -->
     <g transform="translate(1215.373437 117.676562)scale(0.1 -0.1)">
      <use xlink:href="#DejaVuSans-110"/>
      <use x="63.378906" xlink:href="#DejaVuSans-117"/>
      <use x="126.757812" xlink:href="#DejaVuSans-109"/>
      <use x="224.169922" xlink:href="#DejaVuSans-112"/>
      <use x="287.646484" xlink:href="#DejaVuSans-121"/>
      <use x="332.576172" xlink:href="#DejaVuSans-46"/>
      <use x="364.363281" xlink:href="#DejaVuSans-102"/>
      <use x="399.568359" xlink:href="#DejaVuSans-108"/>
      <use x="427.351562" xlink:href="#DejaVuSans-111"/>
      <use x="488.533203" xlink:href="#DejaVuSans-97"/>
      <use x="549.8125" xlink:href="#DejaVuSans-116"/>
      <use x="589.021484" xlink:href="#DejaVuSans-54"/>
      <use x="652.644531" xlink:href="#DejaVuSans-52"/>
     </g>
    </g>
   </g>
  </g>
 </g>
 <defs>
  <clipPath id="p5475e24b5e">
   <rect height="554.4" width="1116" x="180" y="86.4"/>
  </clipPath>
 </defs>
</svg>
