<?xml version="1.0" encoding="utf-8" standalone="no"?>
<!DOCTYPE svg PUBLIC "-//W3C//DTD SVG 1.1//EN"
  "http://www.w3.org/Graphics/SVG/1.1/DTD/svg11.dtd">
<!-- Created with matplotlib (https://matplotlib.org/) -->
<svg height="345.6pt" version="1.1" viewBox="0 0 460.8 345.6" width="460.8pt" xmlns="http://www.w3.org/2000/svg" xmlns:xlink="http://www.w3.org/1999/xlink">
 <defs>
  <style type="text/css">
*{stroke-linecap:butt;stroke-linejoin:round;}
  </style>
 </defs>
 <g id="figure_1">
  <g id="patch_1">
   <path d="M 0 345.6 
L 460.8 345.6 
L 460.8 0 
L 0 0 
z
" style="fill:#ffffff;"/>
  </g>
  <g id="axes_1">
   <g id="patch_2">
    <path d="M 57.6 307.584 
L 414.72 307.584 
L 414.72 41.472 
L 57.6 41.472 
z
" style="fill:#ffffff;"/>
   </g>
   <g id="matplotlib.axis_1">
    <g id="xtick_1">
     <g id="line2d_1">
      <defs>
       <path d="M 0 0 
L 0 3.5 
" id="m4b6845945d" style="stroke:#000000;stroke-width:0.8;"/>
      </defs>
      <g>
       <use style="stroke:#000000;stroke-width:0.8;" x="106.659274" xlink:href="#m4b6845945d" y="307.584"/>
      </g>
     </g>
     <g id="text_1">
      <!-- 100.0 -->
      <defs>
       <path d="M 12.40625 8.296875 
L 28.515625 8.296875 
L 28.515625 63.921875 
L 10.984375 60.40625 
L 10.984375 69.390625 
L 28.421875 72.90625 
L 38.28125 72.90625 
L 38.28125 8.296875 
L 54.390625 8.296875 
L 54.390625 0 
L 12.40625 0 
z
" id="DejaVuSans-49"/>
       <path d="M 31.78125 66.40625 
Q 24.171875 66.40625 20.328125 58.90625 
Q 16.5 51.421875 16.5 36.375 
Q 16.5 21.390625 20.328125 13.890625 
Q 24.171875 6.390625 31.78125 6.390625 
Q 39.453125 6.390625 43.28125 13.890625 
Q 47.125 21.390625 47.125 36.375 
Q 47.125 51.421875 43.28125 58.90625 
Q 39.453125 66.40625 31.78125 66.40625 
z
M 31.78125 74.21875 
Q 44.046875 74.21875 50.515625 64.515625 
Q 56.984375 54.828125 56.984375 36.375 
Q 56.984375 17.96875 50.515625 8.265625 
Q 44.046875 -1.421875 31.78125 -1.421875 
Q 19.53125 -1.421875 13.0625 8.265625 
Q 6.59375 17.96875 6.59375 36.375 
Q 6.59375 54.828125 13.0625 64.515625 
Q 19.53125 74.21875 31.78125 74.21875 
z
" id="DejaVuSans-48"/>
       <path d="M 10.6875 12.40625 
L 21 12.40625 
L 21 0 
L 10.6875 0 
z
" id="DejaVuSans-46"/>
      </defs>
      <g transform="translate(92.345211 322.182437)scale(0.1 -0.1)">
       <use xlink:href="#DejaVuSans-49"/>
       <use x="63.623047" xlink:href="#DejaVuSans-48"/>
       <use x="127.246094" xlink:href="#DejaVuSans-48"/>
       <use x="190.869141" xlink:href="#DejaVuSans-46"/>
       <use x="222.65625" xlink:href="#DejaVuSans-48"/>
      </g>
     </g>
    </g>
    <g id="xtick_2">
     <g id="line2d_2">
      <g>
       <use style="stroke:#000000;stroke-width:0.8;" x="139.48582" xlink:href="#m4b6845945d" y="307.584"/>
      </g>
     </g>
     <g id="text_2">
      <!-- 200.0 -->
      <defs>
       <path d="M 19.1875 8.296875 
L 53.609375 8.296875 
L 53.609375 0 
L 7.328125 0 
L 7.328125 8.296875 
Q 12.9375 14.109375 22.625 23.890625 
Q 32.328125 33.6875 34.8125 36.53125 
Q 39.546875 41.84375 41.421875 45.53125 
Q 43.3125 49.21875 43.3125 52.78125 
Q 43.3125 58.59375 39.234375 62.25 
Q 35.15625 65.921875 28.609375 65.921875 
Q 23.96875 65.921875 18.8125 64.3125 
Q 13.671875 62.703125 7.8125 59.421875 
L 7.8125 69.390625 
Q 13.765625 71.78125 18.9375 73 
Q 24.125 74.21875 28.421875 74.21875 
Q 39.75 74.21875 46.484375 68.546875 
Q 53.21875 62.890625 53.21875 53.421875 
Q 53.21875 48.921875 51.53125 44.890625 
Q 49.859375 40.875 45.40625 35.40625 
Q 44.1875 33.984375 37.640625 27.21875 
Q 31.109375 20.453125 19.1875 8.296875 
z
" id="DejaVuSans-50"/>
      </defs>
      <g transform="translate(125.171758 322.182437)scale(0.1 -0.1)">
       <use xlink:href="#DejaVuSans-50"/>
       <use x="63.623047" xlink:href="#DejaVuSans-48"/>
       <use x="127.246094" xlink:href="#DejaVuSans-48"/>
       <use x="190.869141" xlink:href="#DejaVuSans-46"/>
       <use x="222.65625" xlink:href="#DejaVuSans-48"/>
      </g>
     </g>
    </g>
    <g id="xtick_3">
     <g id="line2d_3">
      <g>
       <use style="stroke:#000000;stroke-width:0.8;" x="172.312367" xlink:href="#m4b6845945d" y="307.584"/>
      </g>
     </g>
     <g id="text_3">
      <!-- 300.0 -->
      <defs>
       <path d="M 40.578125 39.3125 
Q 47.65625 37.796875 51.625 33 
Q 55.609375 28.21875 55.609375 21.1875 
Q 55.609375 10.40625 48.1875 4.484375 
Q 40.765625 -1.421875 27.09375 -1.421875 
Q 22.515625 -1.421875 17.65625 -0.515625 
Q 12.796875 0.390625 7.625 2.203125 
L 7.625 11.71875 
Q 11.71875 9.328125 16.59375 8.109375 
Q 21.484375 6.890625 26.8125 6.890625 
Q 36.078125 6.890625 40.9375 10.546875 
Q 45.796875 14.203125 45.796875 21.1875 
Q 45.796875 27.640625 41.28125 31.265625 
Q 36.765625 34.90625 28.71875 34.90625 
L 20.21875 34.90625 
L 20.21875 43.015625 
L 29.109375 43.015625 
Q 36.375 43.015625 40.234375 45.921875 
Q 44.09375 48.828125 44.09375 54.296875 
Q 44.09375 59.90625 40.109375 62.90625 
Q 36.140625 65.921875 28.71875 65.921875 
Q 24.65625 65.921875 20.015625 65.03125 
Q 15.375 64.15625 9.8125 62.3125 
L 9.8125 71.09375 
Q 15.4375 72.65625 20.34375 73.4375 
Q 25.25 74.21875 29.59375 74.21875 
Q 40.828125 74.21875 47.359375 69.109375 
Q 53.90625 64.015625 53.90625 55.328125 
Q 53.90625 49.265625 50.4375 45.09375 
Q 46.96875 40.921875 40.578125 39.3125 
z
" id="DejaVuSans-51"/>
      </defs>
      <g transform="translate(157.998304 322.182437)scale(0.1 -0.1)">
       <use xlink:href="#DejaVuSans-51"/>
       <use x="63.623047" xlink:href="#DejaVuSans-48"/>
       <use x="127.246094" xlink:href="#DejaVuSans-48"/>
       <use x="190.869141" xlink:href="#DejaVuSans-46"/>
       <use x="222.65625" xlink:href="#DejaVuSans-48"/>
      </g>
     </g>
    </g>
    <g id="xtick_4">
     <g id="line2d_4">
      <g>
       <use style="stroke:#000000;stroke-width:0.8;" x="205.138914" xlink:href="#m4b6845945d" y="307.584"/>
      </g>
     </g>
     <g id="text_4">
      <!-- 400.0 -->
      <defs>
       <path d="M 37.796875 64.3125 
L 12.890625 25.390625 
L 37.796875 25.390625 
z
M 35.203125 72.90625 
L 47.609375 72.90625 
L 47.609375 25.390625 
L 58.015625 25.390625 
L 58.015625 17.1875 
L 47.609375 17.1875 
L 47.609375 0 
L 37.796875 0 
L 37.796875 17.1875 
L 4.890625 17.1875 
L 4.890625 26.703125 
z
" id="DejaVuSans-52"/>
      </defs>
      <g transform="translate(190.824851 322.182437)scale(0.1 -0.1)">
       <use xlink:href="#DejaVuSans-52"/>
       <use x="63.623047" xlink:href="#DejaVuSans-48"/>
       <use x="127.246094" xlink:href="#DejaVuSans-48"/>
       <use x="190.869141" xlink:href="#DejaVuSans-46"/>
       <use x="222.65625" xlink:href="#DejaVuSans-48"/>
      </g>
     </g>
    </g>
    <g id="xtick_5">
     <g id="line2d_5">
      <g>
       <use style="stroke:#000000;stroke-width:0.8;" x="237.96546" xlink:href="#m4b6845945d" y="307.584"/>
      </g>
     </g>
     <g id="text_5">
      <!-- 500.0 -->
      <defs>
       <path d="M 10.796875 72.90625 
L 49.515625 72.90625 
L 49.515625 64.59375 
L 19.828125 64.59375 
L 19.828125 46.734375 
Q 21.96875 47.46875 24.109375 47.828125 
Q 26.265625 48.1875 28.421875 48.1875 
Q 40.625 48.1875 47.75 41.5 
Q 54.890625 34.8125 54.890625 23.390625 
Q 54.890625 11.625 47.5625 5.09375 
Q 40.234375 -1.421875 26.90625 -1.421875 
Q 22.3125 -1.421875 17.546875 -0.640625 
Q 12.796875 0.140625 7.71875 1.703125 
L 7.71875 11.625 
Q 12.109375 9.234375 16.796875 8.0625 
Q 21.484375 6.890625 26.703125 6.890625 
Q 35.15625 6.890625 40.078125 11.328125 
Q 45.015625 15.765625 45.015625 23.390625 
Q 45.015625 31 40.078125 35.4375 
Q 35.15625 39.890625 26.703125 39.890625 
Q 22.75 39.890625 18.8125 39.015625 
Q 14.890625 38.140625 10.796875 36.28125 
z
" id="DejaVuSans-53"/>
      </defs>
      <g transform="translate(223.651398 322.182437)scale(0.1 -0.1)">
       <use xlink:href="#DejaVuSans-53"/>
       <use x="63.623047" xlink:href="#DejaVuSans-48"/>
       <use x="127.246094" xlink:href="#DejaVuSans-48"/>
       <use x="190.869141" xlink:href="#DejaVuSans-46"/>
       <use x="222.65625" xlink:href="#DejaVuSans-48"/>
      </g>
     </g>
    </g>
    <g id="xtick_6">
     <g id="line2d_6">
      <g>
       <use style="stroke:#000000;stroke-width:0.8;" x="270.792007" xlink:href="#m4b6845945d" y="307.584"/>
      </g>
     </g>
     <g id="text_6">
      <!-- 600.0 -->
      <defs>
       <path d="M 33.015625 40.375 
Q 26.375 40.375 22.484375 35.828125 
Q 18.609375 31.296875 18.609375 23.390625 
Q 18.609375 15.53125 22.484375 10.953125 
Q 26.375 6.390625 33.015625 6.390625 
Q 39.65625 6.390625 43.53125 10.953125 
Q 47.40625 15.53125 47.40625 23.390625 
Q 47.40625 31.296875 43.53125 35.828125 
Q 39.65625 40.375 33.015625 40.375 
z
M 52.59375 71.296875 
L 52.59375 62.3125 
Q 48.875 64.0625 45.09375 64.984375 
Q 41.3125 65.921875 37.59375 65.921875 
Q 27.828125 65.921875 22.671875 59.328125 
Q 17.53125 52.734375 16.796875 39.40625 
Q 19.671875 43.65625 24.015625 45.921875 
Q 28.375 48.1875 33.59375 48.1875 
Q 44.578125 48.1875 50.953125 41.515625 
Q 57.328125 34.859375 57.328125 23.390625 
Q 57.328125 12.15625 50.6875 5.359375 
Q 44.046875 -1.421875 33.015625 -1.421875 
Q 20.359375 -1.421875 13.671875 8.265625 
Q 6.984375 17.96875 6.984375 36.375 
Q 6.984375 53.65625 15.1875 63.9375 
Q 23.390625 74.21875 37.203125 74.21875 
Q 40.921875 74.21875 44.703125 73.484375 
Q 48.484375 72.75 52.59375 71.296875 
z
" id="DejaVuSans-54"/>
      </defs>
      <g transform="translate(256.477944 322.182437)scale(0.1 -0.1)">
       <use xlink:href="#DejaVuSans-54"/>
       <use x="63.623047" xlink:href="#DejaVuSans-48"/>
       <use x="127.246094" xlink:href="#DejaVuSans-48"/>
       <use x="190.869141" xlink:href="#DejaVuSans-46"/>
       <use x="222.65625" xlink:href="#DejaVuSans-48"/>
      </g>
     </g>
    </g>
    <g id="xtick_7">
     <g id="line2d_7">
      <g>
       <use style="stroke:#000000;stroke-width:0.8;" x="303.618553" xlink:href="#m4b6845945d" y="307.584"/>
      </g>
     </g>
     <g id="text_7">
      <!-- 700.0 -->
      <defs>
       <path d="M 8.203125 72.90625 
L 55.078125 72.90625 
L 55.078125 68.703125 
L 28.609375 0 
L 18.3125 0 
L 43.21875 64.59375 
L 8.203125 64.59375 
z
" id="DejaVuSans-55"/>
      </defs>
      <g transform="translate(289.304491 322.182437)scale(0.1 -0.1)">
       <use xlink:href="#DejaVuSans-55"/>
       <use x="63.623047" xlink:href="#DejaVuSans-48"/>
       <use x="127.246094" xlink:href="#DejaVuSans-48"/>
       <use x="190.869141" xlink:href="#DejaVuSans-46"/>
       <use x="222.65625" xlink:href="#DejaVuSans-48"/>
      </g>
     </g>
    </g>
    <g id="xtick_8">
     <g id="line2d_8">
      <g>
       <use style="stroke:#000000;stroke-width:0.8;" x="336.4451" xlink:href="#m4b6845945d" y="307.584"/>
      </g>
     </g>
     <g id="text_8">
      <!-- 800.0 -->
      <defs>
       <path d="M 31.78125 34.625 
Q 24.75 34.625 20.71875 30.859375 
Q 16.703125 27.09375 16.703125 20.515625 
Q 16.703125 13.921875 20.71875 10.15625 
Q 24.75 6.390625 31.78125 6.390625 
Q 38.8125 6.390625 42.859375 10.171875 
Q 46.921875 13.96875 46.921875 20.515625 
Q 46.921875 27.09375 42.890625 30.859375 
Q 38.875 34.625 31.78125 34.625 
z
M 21.921875 38.8125 
Q 15.578125 40.375 12.03125 44.71875 
Q 8.5 49.078125 8.5 55.328125 
Q 8.5 64.0625 14.71875 69.140625 
Q 20.953125 74.21875 31.78125 74.21875 
Q 42.671875 74.21875 48.875 69.140625 
Q 55.078125 64.0625 55.078125 55.328125 
Q 55.078125 49.078125 51.53125 44.71875 
Q 48 40.375 41.703125 38.8125 
Q 48.828125 37.15625 52.796875 32.3125 
Q 56.78125 27.484375 56.78125 20.515625 
Q 56.78125 9.90625 50.3125 4.234375 
Q 43.84375 -1.421875 31.78125 -1.421875 
Q 19.734375 -1.421875 13.25 4.234375 
Q 6.78125 9.90625 6.78125 20.515625 
Q 6.78125 27.484375 10.78125 32.3125 
Q 14.796875 37.15625 21.921875 38.8125 
z
M 18.3125 54.390625 
Q 18.3125 48.734375 21.84375 45.5625 
Q 25.390625 42.390625 31.78125 42.390625 
Q 38.140625 42.390625 41.71875 45.5625 
Q 45.3125 48.734375 45.3125 54.390625 
Q 45.3125 60.0625 41.71875 63.234375 
Q 38.140625 66.40625 31.78125 66.40625 
Q 25.390625 66.40625 21.84375 63.234375 
Q 18.3125 60.0625 18.3125 54.390625 
z
" id="DejaVuSans-56"/>
      </defs>
      <g transform="translate(322.131037 322.182437)scale(0.1 -0.1)">
       <use xlink:href="#DejaVuSans-56"/>
       <use x="63.623047" xlink:href="#DejaVuSans-48"/>
       <use x="127.246094" xlink:href="#DejaVuSans-48"/>
       <use x="190.869141" xlink:href="#DejaVuSans-46"/>
       <use x="222.65625" xlink:href="#DejaVuSans-48"/>
      </g>
     </g>
    </g>
    <g id="xtick_9">
     <g id="line2d_9">
      <g>
       <use style="stroke:#000000;stroke-width:0.8;" x="369.271646" xlink:href="#m4b6845945d" y="307.584"/>
      </g>
     </g>
     <g id="text_9">
      <!-- 900.0 -->
      <defs>
       <path d="M 10.984375 1.515625 
L 10.984375 10.5 
Q 14.703125 8.734375 18.5 7.8125 
Q 22.3125 6.890625 25.984375 6.890625 
Q 35.75 6.890625 40.890625 13.453125 
Q 46.046875 20.015625 46.78125 33.40625 
Q 43.953125 29.203125 39.59375 26.953125 
Q 35.25 24.703125 29.984375 24.703125 
Q 19.046875 24.703125 12.671875 31.3125 
Q 6.296875 37.9375 6.296875 49.421875 
Q 6.296875 60.640625 12.9375 67.421875 
Q 19.578125 74.21875 30.609375 74.21875 
Q 43.265625 74.21875 49.921875 64.515625 
Q 56.59375 54.828125 56.59375 36.375 
Q 56.59375 19.140625 48.40625 8.859375 
Q 40.234375 -1.421875 26.421875 -1.421875 
Q 22.703125 -1.421875 18.890625 -0.6875 
Q 15.09375 0.046875 10.984375 1.515625 
z
M 30.609375 32.421875 
Q 37.25 32.421875 41.125 36.953125 
Q 45.015625 41.5 45.015625 49.421875 
Q 45.015625 57.28125 41.125 61.84375 
Q 37.25 66.40625 30.609375 66.40625 
Q 23.96875 66.40625 20.09375 61.84375 
Q 16.21875 57.28125 16.21875 49.421875 
Q 16.21875 41.5 20.09375 36.953125 
Q 23.96875 32.421875 30.609375 32.421875 
z
" id="DejaVuSans-57"/>
      </defs>
      <g transform="translate(354.957584 322.182437)scale(0.1 -0.1)">
       <use xlink:href="#DejaVuSans-57"/>
       <use x="63.623047" xlink:href="#DejaVuSans-48"/>
       <use x="127.246094" xlink:href="#DejaVuSans-48"/>
       <use x="190.869141" xlink:href="#DejaVuSans-46"/>
       <use x="222.65625" xlink:href="#DejaVuSans-48"/>
      </g>
     </g>
    </g>
    <g id="xtick_10">
     <g id="line2d_10">
      <g>
       <use style="stroke:#000000;stroke-width:0.8;" x="402.098193" xlink:href="#m4b6845945d" y="307.584"/>
      </g>
     </g>
     <g id="text_10">
      <!-- 1000.0 -->
      <g transform="translate(384.60288 322.182437)scale(0.1 -0.1)">
       <use xlink:href="#DejaVuSans-49"/>
       <use x="63.623047" xlink:href="#DejaVuSans-48"/>
       <use x="127.246094" xlink:href="#DejaVuSans-48"/>
       <use x="190.869141" xlink:href="#DejaVuSans-48"/>
       <use x="254.492188" xlink:href="#DejaVuSans-46"/>
       <use x="286.279297" xlink:href="#DejaVuSans-48"/>
      </g>
     </g>
    </g>
    <g id="text_11">
     <!-- n -->
     <defs>
      <path d="M 54.890625 33.015625 
L 54.890625 0 
L 45.90625 0 
L 45.90625 32.71875 
Q 45.90625 40.484375 42.875 44.328125 
Q 39.84375 48.1875 33.796875 48.1875 
Q 26.515625 48.1875 22.3125 43.546875 
Q 18.109375 38.921875 18.109375 30.90625 
L 18.109375 0 
L 9.078125 0 
L 9.078125 54.6875 
L 18.109375 54.6875 
L 18.109375 46.1875 
Q 21.34375 51.125 25.703125 53.5625 
Q 30.078125 56 35.796875 56 
Q 45.21875 56 50.046875 50.171875 
Q 54.890625 44.34375 54.890625 33.015625 
z
" id="DejaVuSans-110"/>
     </defs>
     <g transform="translate(232.99125 335.860562)scale(0.1 -0.1)">
      <use xlink:href="#DejaVuSans-110"/>
     </g>
    </g>
   </g>
   <g id="matplotlib.axis_2">
    <g id="ytick_1">
     <g id="line2d_11">
      <defs>
       <path d="M 0 0 
L -3.5 0 
" id="me7f74a22a0" style="stroke:#000000;stroke-width:0.8;"/>
      </defs>
      <g>
       <use style="stroke:#000000;stroke-width:0.8;" x="57.6" xlink:href="#me7f74a22a0" y="265.385425"/>
      </g>
     </g>
     <g id="text_12">
      <!-- 50 -->
      <g transform="translate(37.875 269.184644)scale(0.1 -0.1)">
       <use xlink:href="#DejaVuSans-53"/>
       <use x="63.623047" xlink:href="#DejaVuSans-48"/>
      </g>
     </g>
    </g>
    <g id="ytick_2">
     <g id="line2d_12">
      <g>
       <use style="stroke:#000000;stroke-width:0.8;" x="57.6" xlink:href="#me7f74a22a0" y="222.864533"/>
      </g>
     </g>
     <g id="text_13">
      <!-- 100 -->
      <g transform="translate(31.5125 226.663752)scale(0.1 -0.1)">
       <use xlink:href="#DejaVuSans-49"/>
       <use x="63.623047" xlink:href="#DejaVuSans-48"/>
       <use x="127.246094" xlink:href="#DejaVuSans-48"/>
      </g>
     </g>
    </g>
    <g id="ytick_3">
     <g id="line2d_13">
      <g>
       <use style="stroke:#000000;stroke-width:0.8;" x="57.6" xlink:href="#me7f74a22a0" y="180.34364"/>
      </g>
     </g>
     <g id="text_14">
      <!-- 150 -->
      <g transform="translate(31.5125 184.142859)scale(0.1 -0.1)">
       <use xlink:href="#DejaVuSans-49"/>
       <use x="63.623047" xlink:href="#DejaVuSans-53"/>
       <use x="127.246094" xlink:href="#DejaVuSans-48"/>
      </g>
     </g>
    </g>
    <g id="ytick_4">
     <g id="line2d_14">
      <g>
       <use style="stroke:#000000;stroke-width:0.8;" x="57.6" xlink:href="#me7f74a22a0" y="137.822748"/>
      </g>
     </g>
     <g id="text_15">
      <!-- 200 -->
      <g transform="translate(31.5125 141.621967)scale(0.1 -0.1)">
       <use xlink:href="#DejaVuSans-50"/>
       <use x="63.623047" xlink:href="#DejaVuSans-48"/>
       <use x="127.246094" xlink:href="#DejaVuSans-48"/>
      </g>
     </g>
    </g>
    <g id="ytick_5">
     <g id="line2d_15">
      <g>
       <use style="stroke:#000000;stroke-width:0.8;" x="57.6" xlink:href="#me7f74a22a0" y="95.301856"/>
      </g>
     </g>
     <g id="text_16">
      <!-- 250 -->
      <g transform="translate(31.5125 99.101074)scale(0.1 -0.1)">
       <use xlink:href="#DejaVuSans-50"/>
       <use x="63.623047" xlink:href="#DejaVuSans-53"/>
       <use x="127.246094" xlink:href="#DejaVuSans-48"/>
      </g>
     </g>
    </g>
    <g id="ytick_6">
     <g id="line2d_16">
      <g>
       <use style="stroke:#000000;stroke-width:0.8;" x="57.6" xlink:href="#me7f74a22a0" y="52.780963"/>
      </g>
     </g>
     <g id="text_17">
      <!-- 300 -->
      <g transform="translate(31.5125 56.580182)scale(0.1 -0.1)">
       <use xlink:href="#DejaVuSans-51"/>
       <use x="63.623047" xlink:href="#DejaVuSans-48"/>
       <use x="127.246094" xlink:href="#DejaVuSans-48"/>
      </g>
     </g>
    </g>
    <g id="text_18">
     <!-- speedup -->
     <defs>
      <path d="M 44.28125 53.078125 
L 44.28125 44.578125 
Q 40.484375 46.53125 36.375 47.5 
Q 32.28125 48.484375 27.875 48.484375 
Q 21.1875 48.484375 17.84375 46.4375 
Q 14.5 44.390625 14.5 40.28125 
Q 14.5 37.15625 16.890625 35.375 
Q 19.28125 33.59375 26.515625 31.984375 
L 29.59375 31.296875 
Q 39.15625 29.25 43.1875 25.515625 
Q 47.21875 21.78125 47.21875 15.09375 
Q 47.21875 7.46875 41.1875 3.015625 
Q 35.15625 -1.421875 24.609375 -1.421875 
Q 20.21875 -1.421875 15.453125 -0.5625 
Q 10.6875 0.296875 5.421875 2 
L 5.421875 11.28125 
Q 10.40625 8.6875 15.234375 7.390625 
Q 20.0625 6.109375 24.8125 6.109375 
Q 31.15625 6.109375 34.5625 8.28125 
Q 37.984375 10.453125 37.984375 14.40625 
Q 37.984375 18.0625 35.515625 20.015625 
Q 33.0625 21.96875 24.703125 23.78125 
L 21.578125 24.515625 
Q 13.234375 26.265625 9.515625 29.90625 
Q 5.8125 33.546875 5.8125 39.890625 
Q 5.8125 47.609375 11.28125 51.796875 
Q 16.75 56 26.8125 56 
Q 31.78125 56 36.171875 55.265625 
Q 40.578125 54.546875 44.28125 53.078125 
z
" id="DejaVuSans-115"/>
      <path d="M 18.109375 8.203125 
L 18.109375 -20.796875 
L 9.078125 -20.796875 
L 9.078125 54.6875 
L 18.109375 54.6875 
L 18.109375 46.390625 
Q 20.953125 51.265625 25.265625 53.625 
Q 29.59375 56 35.59375 56 
Q 45.5625 56 51.78125 48.09375 
Q 58.015625 40.1875 58.015625 27.296875 
Q 58.015625 14.40625 51.78125 6.484375 
Q 45.5625 -1.421875 35.59375 -1.421875 
Q 29.59375 -1.421875 25.265625 0.953125 
Q 20.953125 3.328125 18.109375 8.203125 
z
M 48.6875 27.296875 
Q 48.6875 37.203125 44.609375 42.84375 
Q 40.53125 48.484375 33.40625 48.484375 
Q 26.265625 48.484375 22.1875 42.84375 
Q 18.109375 37.203125 18.109375 27.296875 
Q 18.109375 17.390625 22.1875 11.75 
Q 26.265625 6.109375 33.40625 6.109375 
Q 40.53125 6.109375 44.609375 11.75 
Q 48.6875 17.390625 48.6875 27.296875 
z
" id="DejaVuSans-112"/>
      <path d="M 56.203125 29.59375 
L 56.203125 25.203125 
L 14.890625 25.203125 
Q 15.484375 15.921875 20.484375 11.0625 
Q 25.484375 6.203125 34.421875 6.203125 
Q 39.59375 6.203125 44.453125 7.46875 
Q 49.3125 8.734375 54.109375 11.28125 
L 54.109375 2.78125 
Q 49.265625 0.734375 44.1875 -0.34375 
Q 39.109375 -1.421875 33.890625 -1.421875 
Q 20.796875 -1.421875 13.15625 6.1875 
Q 5.515625 13.8125 5.515625 26.8125 
Q 5.515625 40.234375 12.765625 48.109375 
Q 20.015625 56 32.328125 56 
Q 43.359375 56 49.78125 48.890625 
Q 56.203125 41.796875 56.203125 29.59375 
z
M 47.21875 32.234375 
Q 47.125 39.59375 43.09375 43.984375 
Q 39.0625 48.390625 32.421875 48.390625 
Q 24.90625 48.390625 20.390625 44.140625 
Q 15.875 39.890625 15.1875 32.171875 
z
" id="DejaVuSans-101"/>
      <path d="M 45.40625 46.390625 
L 45.40625 75.984375 
L 54.390625 75.984375 
L 54.390625 0 
L 45.40625 0 
L 45.40625 8.203125 
Q 42.578125 3.328125 38.25 0.953125 
Q 33.9375 -1.421875 27.875 -1.421875 
Q 17.96875 -1.421875 11.734375 6.484375 
Q 5.515625 14.40625 5.515625 27.296875 
Q 5.515625 40.1875 11.734375 48.09375 
Q 17.96875 56 27.875 56 
Q 33.9375 56 38.25 53.625 
Q 42.578125 51.265625 45.40625 46.390625 
z
M 14.796875 27.296875 
Q 14.796875 17.390625 18.875 11.75 
Q 22.953125 6.109375 30.078125 6.109375 
Q 37.203125 6.109375 41.296875 11.75 
Q 45.40625 17.390625 45.40625 27.296875 
Q 45.40625 37.203125 41.296875 42.84375 
Q 37.203125 48.484375 30.078125 48.484375 
Q 22.953125 48.484375 18.875 42.84375 
Q 14.796875 37.203125 14.796875 27.296875 
z
" id="DejaVuSans-100"/>
      <path d="M 8.5 21.578125 
L 8.5 54.6875 
L 17.484375 54.6875 
L 17.484375 21.921875 
Q 17.484375 14.15625 20.5 10.265625 
Q 23.53125 6.390625 29.59375 6.390625 
Q 36.859375 6.390625 41.078125 11.03125 
Q 45.3125 15.671875 45.3125 23.6875 
L 45.3125 54.6875 
L 54.296875 54.6875 
L 54.296875 0 
L 45.3125 0 
L 45.3125 8.40625 
Q 42.046875 3.421875 37.71875 1 
Q 33.40625 -1.421875 27.6875 -1.421875 
Q 18.265625 -1.421875 13.375 4.4375 
Q 8.5 10.296875 8.5 21.578125 
z
M 31.109375 56 
z
" id="DejaVuSans-117"/>
     </defs>
     <g transform="translate(25.432812 195.977219)rotate(-90)scale(0.1 -0.1)">
      <use xlink:href="#DejaVuSans-115"/>
      <use x="52.099609" xlink:href="#DejaVuSans-112"/>
      <use x="115.576172" xlink:href="#DejaVuSans-101"/>
      <use x="177.099609" xlink:href="#DejaVuSans-101"/>
      <use x="238.623047" xlink:href="#DejaVuSans-100"/>
      <use x="302.099609" xlink:href="#DejaVuSans-117"/>
      <use x="365.478516" xlink:href="#DejaVuSans-112"/>
     </g>
    </g>
   </g>
   <g id="line2d_17">
    <path clip-path="url(#p655c48c716)" d="M 73.832727 117.286031 
L 74.160993 163.875363 
L 74.489258 53.568 
L 74.817524 81.296578 
L 75.145789 82.284679 
L 75.474055 82.917918 
L 75.80232 97.108654 
L 76.130586 88.926942 
L 76.458851 196.121507 
L 76.787116 93.377519 
L 77.115382 115.298085 
L 77.443647 112.511299 
L 77.771913 111.792631 
L 78.100178 102.814234 
L 78.428444 103.247998 
L 78.756709 103.05161 
L 79.084975 130.286982 
L 79.41324 221.543634 
L 79.741506 132.69436 
L 80.069771 128.253565 
L 80.726302 156.003032 
L 81.054568 120.674899 
L 81.382833 151.003507 
L 81.711098 139.709929 
L 82.039364 145.878531 
L 82.367629 147.168414 
L 82.695895 144.613713 
L 83.02416 148.685809 
L 83.352426 146.181203 
L 83.680691 148.692726 
L 84.008957 159.812232 
L 84.337222 148.471076 
L 84.665488 169.006027 
L 84.993753 160.522327 
L 85.322019 169.693624 
L 85.650284 183.208299 
L 85.978549 188.440898 
L 86.306815 172.153401 
L 86.63508 163.008426 
L 86.963346 163.533471 
L 87.619877 176.236808 
L 87.948142 173.41136 
L 88.276408 173.089431 
L 88.604673 173.10823 
L 88.932939 163.585778 
L 89.261204 164.305243 
L 89.58947 177.223269 
L 89.917735 171.96177 
L 90.246001 180.08681 
L 90.574266 200.691422 
L 90.902531 170.818978 
L 91.559062 182.882646 
L 91.887328 183.901484 
L 92.215593 209.214687 
L 92.543859 189.121309 
L 92.872124 202.135564 
L 93.20039 176.697239 
L 93.856921 194.88046 
L 94.185186 190.443519 
L 94.841717 208.330936 
L 95.169983 188.091386 
L 95.498248 198.813449 
L 95.826513 219.662009 
L 96.154779 194.585154 
L 96.483044 191.41496 
L 96.81131 194.84684 
L 97.139575 196.758152 
L 97.467841 201.783762 
L 97.796106 189.550976 
L 98.124372 193.71953 
L 98.452637 200.119956 
L 98.780903 200.316021 
L 99.109168 190.39861 
L 99.437434 192.630672 
L 99.765699 229.319053 
L 100.093965 196.786412 
L 100.42223 205.523397 
L 100.750495 205.247152 
L 101.407026 197.114844 
L 101.735292 194.427224 
L 102.063557 195.90241 
L 102.391823 208.05245 
L 102.720088 207.32077 
L 103.048354 198.41933 
L 103.376619 211.776626 
L 103.704885 209.44441 
L 104.03315 210.294087 
L 104.361416 225.543208 
L 105.017947 217.841281 
L 105.346212 203.651894 
L 105.674477 213.700625 
L 106.002743 209.654579 
L 106.331008 212.581974 
L 106.659274 218.369257 
L 106.987539 213.910096 
L 107.315805 214.631981 
L 107.64407 210.41351 
L 107.972336 224.354614 
L 108.300601 216.914312 
L 108.628867 216.473743 
L 108.957132 208.058966 
L 109.285398 217.707486 
L 109.613663 214.395437 
L 109.941928 219.734629 
L 110.270194 216.053178 
L 110.598459 218.320277 
L 110.926725 211.831134 
L 111.25499 221.645144 
L 111.583256 216.742607 
L 111.911521 227.989337 
L 112.239787 214.472127 
L 112.568052 211.793457 
L 112.896318 212.198561 
L 113.881114 221.475994 
L 114.20938 231.794894 
L 114.537645 215.68353 
L 114.86591 224.593228 
L 115.194176 219.212247 
L 115.522441 218.144563 
L 115.850707 224.681192 
L 116.178972 221.789798 
L 116.507238 223.164775 
L 116.835503 217.004831 
L 117.163769 224.134636 
L 117.492034 226.078167 
L 117.8203 218.35352 
L 118.148565 224.716421 
L 118.476831 227.723213 
L 118.805096 227.723433 
L 119.133362 219.755396 
L 119.461627 232.019355 
L 119.789892 221.710694 
L 120.118158 229.877374 
L 120.446423 221.903796 
L 120.774689 231.184105 
L 121.102954 228.468996 
L 121.43122 230.907794 
L 121.759485 229.863356 
L 122.087751 223.590483 
L 122.416016 228.590296 
L 122.744282 249.135206 
L 123.400813 231.593079 
L 123.729078 230.589895 
L 124.057344 230.890485 
L 124.385609 240.526994 
L 124.713874 232.447774 
L 125.04214 236.018185 
L 125.370405 226.317566 
L 126.026936 236.126497 
L 126.355202 226.77282 
L 127.011733 235.636591 
L 127.339998 233.802869 
L 127.668264 228.472282 
L 127.996529 234.235951 
L 128.324795 243.007965 
L 128.981325 229.863774 
L 129.309591 240.198825 
L 129.637856 242.695632 
L 129.966122 232.839443 
L 130.294387 235.388123 
L 130.622653 229.398711 
L 130.950918 241.882978 
L 131.279184 235.742702 
L 131.607449 237.631957 
L 131.935715 235.499738 
L 132.26398 263.538532 
L 132.592246 239.978509 
L 132.920511 238.125848 
L 133.248777 246.648771 
L 133.577042 241.024442 
L 133.905307 238.753065 
L 134.233573 239.158225 
L 134.561838 237.885681 
L 134.890104 239.090945 
L 135.218369 238.311019 
L 135.546635 234.81062 
L 135.8749 240.523208 
L 136.203166 249.6913 
L 136.531431 240.737815 
L 136.859697 236.374338 
L 137.187962 241.669199 
L 137.516228 236.985911 
L 137.844493 240.569575 
L 138.172759 259.828363 
L 138.501024 238.786905 
L 138.829289 238.636594 
L 139.157555 238.145312 
L 139.48582 241.184535 
L 139.814086 242.963566 
L 140.142351 241.672978 
L 140.470617 242.070002 
L 140.798882 238.854191 
L 141.127148 238.607906 
L 141.455413 243.361264 
L 141.783679 240.333443 
L 142.111944 244.958515 
L 142.44021 239.329097 
L 142.768475 242.951071 
L 143.096741 239.945867 
L 143.425006 244.047989 
L 143.753271 253.773972 
L 144.081537 247.048465 
L 144.409802 243.509854 
L 145.066333 243.870883 
L 145.394599 241.63453 
L 145.722864 241.578775 
L 146.05113 245.831253 
L 146.379395 246.336046 
L 146.707661 242.173293 
L 147.035926 245.665775 
L 147.364192 245.667106 
L 147.692457 244.737606 
L 148.020722 245.962673 
L 148.348988 264.140445 
L 148.677253 247.071948 
L 149.005519 247.178294 
L 149.333784 244.295115 
L 149.66205 254.549174 
L 149.990315 248.444797 
L 150.318581 248.952567 
L 150.646846 248.439752 
L 150.975112 245.759932 
L 151.631643 247.047919 
L 151.959908 245.299931 
L 152.288174 248.45676 
L 152.616439 244.554227 
L 152.944704 248.180454 
L 153.27297 260.094051 
L 153.601235 247.787925 
L 153.929501 258.362291 
L 154.257766 247.002538 
L 154.586032 249.294458 
L 154.914297 258.770974 
L 155.242563 249.805217 
L 155.570828 250.979958 
L 155.899094 247.850915 
L 156.227359 250.331214 
L 156.555625 250.962031 
L 156.88389 249.151587 
L 157.212156 257.860435 
L 157.868686 247.858999 
L 158.196952 263.194032 
L 158.525217 250.323876 
L 158.853483 252.708025 
L 159.181748 248.467838 
L 159.510014 250.772864 
L 159.838279 249.585584 
L 160.166545 249.577307 
L 160.49481 257.876682 
L 160.823076 249.392326 
L 161.151341 252.730043 
L 161.479607 258.747183 
L 161.807872 250.854658 
L 162.136138 253.747512 
L 162.464403 253.439189 
L 162.792668 255.930816 
L 163.120934 252.121374 
L 163.777465 254.789043 
L 164.10573 253.828287 
L 164.433996 251.384752 
L 164.762261 254.087896 
L 165.090527 255.676349 
L 165.418792 253.197201 
L 165.747058 265.727463 
L 166.075323 254.451338 
L 166.403589 252.586774 
L 166.731854 255.242749 
L 167.060119 254.703679 
L 167.388385 252.073602 
L 167.71665 264.273745 
L 168.044916 256.324785 
L 168.373181 255.604444 
L 168.701447 254.405323 
L 169.029712 256.324968 
L 169.357978 254.623562 
L 169.686243 256.471397 
L 170.014509 256.62948 
L 170.342774 260.999261 
L 170.67104 255.968584 
L 170.999305 256.133081 
L 171.327571 256.731814 
L 171.655836 257.679606 
L 171.984101 255.571348 
L 172.312367 256.657604 
L 172.640632 256.109061 
L 172.968898 264.50638 
L 173.297163 262.675241 
L 173.625429 259.026076 
L 173.953694 258.642307 
L 174.28196 256.714616 
L 174.610225 257.65887 
L 174.938491 256.160474 
L 175.266756 260.874237 
L 175.595022 257.435996 
L 175.923287 263.365266 
L 176.251553 258.249524 
L 176.579818 258.58126 
L 176.908083 258.608753 
L 177.236349 259.295625 
L 177.564614 263.581934 
L 177.89288 262.258868 
L 178.221145 264.04037 
L 178.549411 259.152526 
L 178.877676 259.196707 
L 179.205942 258.005337 
L 179.534207 259.981269 
L 179.862473 260.227884 
L 180.190738 258.196015 
L 180.519004 260.546892 
L 180.847269 257.885179 
L 181.175535 264.278048 
L 181.5038 259.677431 
L 181.832065 258.561945 
L 182.160331 260.174831 
L 182.488596 270.371491 
L 182.816862 260.768376 
L 183.145127 259.227497 
L 183.473393 260.562482 
L 183.801658 259.640189 
L 184.129924 257.696666 
L 184.458189 262.014816 
L 184.786455 261.940514 
L 185.11472 263.05256 
L 185.442986 260.060821 
L 185.771251 262.348023 
L 186.099516 260.456888 
L 186.427782 262.254004 
L 186.756047 260.853054 
L 187.084313 262.415774 
L 187.740844 259.878076 
L 188.069109 262.939118 
L 188.72564 261.942818 
L 189.053906 261.852536 
L 189.382171 261.218826 
L 189.710437 262.51401 
L 190.038702 263.069897 
L 190.366968 262.992045 
L 190.695233 263.20693 
L 191.023498 261.834377 
L 191.351764 261.836089 
L 191.680029 263.915683 
L 192.008295 263.122804 
L 192.33656 264.230247 
L 192.664826 262.370847 
L 192.993091 262.204428 
L 193.321357 263.806475 
L 193.649622 263.984261 
L 193.977888 263.893098 
L 194.306153 262.53592 
L 194.634419 263.925617 
L 194.962684 263.043585 
L 195.619215 262.859553 
L 195.94748 264.18195 
L 196.275746 264.230346 
L 196.604011 267.073062 
L 196.932277 264.850156 
L 197.260542 264.305776 
L 197.588808 265.149231 
L 197.917073 263.89519 
L 198.245339 261.50426 
L 198.573604 271.807981 
L 198.90187 263.57512 
L 199.230135 264.712858 
L 199.558401 265.138376 
L 199.886666 263.477525 
L 200.214932 263.550546 
L 200.543197 265.597251 
L 200.871462 265.589114 
L 201.199728 265.033094 
L 201.527993 263.678994 
L 202.184524 268.748271 
L 202.51279 265.819188 
L 202.841055 264.296524 
L 203.169321 265.09013 
L 203.497586 266.474159 
L 204.154117 265.432222 
L 204.482383 264.816575 
L 204.810648 265.427003 
L 205.138914 266.382663 
L 205.795444 267.3077 
L 206.12371 267.363756 
L 206.780241 266.036312 
L 207.108506 266.311571 
L 207.436772 265.65801 
L 207.765037 267.668558 
L 208.093303 266.953975 
L 208.421568 267.583712 
L 209.078099 266.574553 
L 209.406365 267.368491 
L 209.73463 269.279656 
L 210.062895 267.197455 
L 210.391161 267.629905 
L 210.719426 267.623863 
L 211.047692 267.994865 
L 211.375957 267.803238 
L 211.704223 267.473817 
L 212.032488 267.376521 
L 212.360754 267.851365 
L 212.689019 268.7151 
L 213.017285 267.466256 
L 213.34555 267.392466 
L 213.673816 268.367879 
L 214.002081 268.907266 
L 214.330347 268.909213 
L 214.658612 269.233666 
L 214.986877 268.304824 
L 215.315143 268.914587 
L 215.643408 269.252798 
L 215.971674 268.419973 
L 216.299939 268.543641 
L 216.628205 269.007426 
L 216.95647 268.049565 
L 217.284736 269.608108 
L 217.613001 267.265896 
L 217.941267 272.675722 
L 218.269532 269.245884 
L 218.597798 269.132139 
L 218.926063 271.356089 
L 219.254329 269.109831 
L 219.582594 269.924984 
L 219.910859 271.910255 
L 220.239125 269.362116 
L 220.56739 269.679785 
L 220.895656 273.404559 
L 221.223921 269.554261 
L 221.552187 268.46489 
L 221.880452 274.416331 
L 222.208718 269.314873 
L 222.536983 270.050752 
L 222.865249 269.407651 
L 223.193514 269.540441 
L 223.52178 269.255725 
L 223.850045 270.258309 
L 224.178311 269.993421 
L 224.506576 268.89108 
L 224.834841 269.630939 
L 225.163107 269.798531 
L 225.819638 270.454252 
L 226.147903 269.654599 
L 226.476169 270.804075 
L 226.804434 270.149347 
L 227.1327 269.991836 
L 227.460965 271.255718 
L 227.789231 271.495281 
L 228.117496 268.397414 
L 228.445762 270.330927 
L 228.774027 273.798689 
L 229.102292 270.471408 
L 229.430558 270.339102 
L 229.758823 273.059573 
L 230.087089 274.716825 
L 230.415354 271.394431 
L 230.74362 273.063028 
L 231.071885 269.891722 
L 231.400151 271.482592 
L 231.728416 270.691003 
L 232.056682 270.657349 
L 232.384947 276.05499 
L 232.713213 270.56182 
L 233.041478 270.787377 
L 233.698009 271.947774 
L 234.026274 271.944562 
L 234.35454 271.374807 
L 234.682805 271.296848 
L 235.011071 271.612466 
L 235.339336 271.28655 
L 235.667602 272.217357 
L 235.995867 271.803514 
L 236.324133 270.092969 
L 236.980664 271.927729 
L 237.308929 274.661952 
L 237.96546 267.738068 
L 238.293726 272.424548 
L 238.621991 270.838938 
L 238.950256 271.198011 
L 239.278522 273.291959 
L 240.263318 272.26744 
L 240.919849 272.437501 
L 241.248115 272.023713 
L 241.57638 270.909763 
L 241.904646 277.430932 
L 242.232911 273.17694 
L 242.561177 276.766982 
L 242.889442 272.386562 
L 243.217708 271.818215 
L 243.545973 272.661426 
L 243.874238 273.174087 
L 244.202504 273.191269 
L 244.530769 273.382914 
L 244.859035 273.049773 
L 245.1873 272.213232 
L 245.515566 272.007044 
L 245.843831 272.788729 
L 246.172097 272.97788 
L 246.500362 272.560574 
L 246.828628 273.309141 
L 247.156893 279.176465 
L 247.485159 273.807971 
L 247.813424 273.419648 
L 248.141689 272.845883 
L 248.469955 273.426612 
L 248.79822 273.146697 
L 249.126486 273.89505 
L 249.454751 272.603853 
L 249.783017 273.787972 
L 250.111282 273.006656 
L 250.439548 275.550949 
L 250.767813 273.754516 
L 251.096079 276.332277 
L 251.424344 273.651019 
L 251.75261 274.426215 
L 252.080875 273.099068 
L 252.737406 274.429144 
L 253.393937 273.68546 
L 253.722202 273.692404 
L 254.050468 274.707573 
L 254.378733 274.058417 
L 254.706999 273.992387 
L 255.035264 274.102328 
L 255.36353 274.748664 
L 256.020061 274.323881 
L 256.348326 276.467523 
L 256.676592 274.709166 
L 257.004857 274.086296 
L 257.333123 274.239433 
L 257.661388 279.879301 
L 257.989653 274.773378 
L 258.317919 274.571323 
L 258.646184 274.219716 
L 258.97445 275.127453 
L 259.302715 275.398974 
L 259.630981 274.568835 
L 260.287512 274.981933 
L 260.615777 274.492185 
L 260.944043 274.830453 
L 261.272308 274.24167 
L 261.600574 274.715021 
L 261.928839 275.441301 
L 262.257105 275.069007 
L 262.58537 275.284001 
L 262.913635 275.34329 
L 263.241901 274.945448 
L 263.570166 274.837275 
L 264.226697 275.753559 
L 264.554963 275.470405 
L 264.883228 276.039729 
L 265.211494 275.785752 
L 265.868025 275.814887 
L 266.19629 275.271092 
L 266.524556 277.080915 
L 266.852821 275.568468 
L 267.181086 275.35423 
L 267.509352 274.909042 
L 267.837617 276.712367 
L 268.165883 275.681233 
L 268.494148 276.082332 
L 268.822414 275.986511 
L 269.150679 276.279017 
L 269.478945 276.330426 
L 269.80721 276.063338 
L 270.135476 275.282956 
L 270.463741 276.065241 
L 270.792007 275.814577 
L 271.120272 275.854844 
L 271.448538 275.401108 
L 271.776803 276.283505 
L 272.433334 276.470938 
L 272.761599 276.728885 
L 273.089865 275.441583 
L 273.41813 276.384749 
L 273.746396 276.311667 
L 274.074661 278.352705 
L 274.402927 276.524982 
L 274.731192 276.868221 
L 275.059458 276.81743 
L 275.387723 276.490006 
L 275.715989 276.561434 
L 276.044254 277.036676 
L 276.37252 277.069418 
L 276.700785 280.838107 
L 277.02905 276.05579 
L 277.357316 276.845531 
L 277.685581 278.451661 
L 278.013847 276.353345 
L 278.342112 276.507562 
L 278.670378 279.265437 
L 278.998643 279.136135 
L 279.326909 277.031139 
L 279.655174 276.5875 
L 279.98344 277.379566 
L 280.311705 277.527713 
L 280.968236 276.883479 
L 281.296502 278.994608 
L 281.624767 275.817926 
L 281.953032 277.541221 
L 282.281298 276.871272 
L 282.609563 278.549521 
L 282.937829 278.028929 
L 283.922625 278.252781 
L 284.250891 279.032961 
L 284.579156 277.444953 
L 284.907422 277.453781 
L 285.235687 278.237351 
L 285.892218 277.186985 
L 286.220484 277.513681 
L 286.548749 278.320218 
L 286.877014 278.107605 
L 287.20528 281.252622 
L 287.533545 277.387105 
L 287.861811 278.139509 
L 288.190076 278.106925 
L 288.518342 277.67794 
L 288.846607 277.744787 
L 289.174873 277.92888 
L 289.503138 278.3137 
L 289.831404 277.872108 
L 290.159669 277.641848 
L 290.487935 277.764938 
L 291.144465 278.277395 
L 291.800996 278.310236 
L 292.129262 278.779701 
L 292.457527 278.462517 
L 292.785793 280.007173 
L 293.114058 278.923706 
L 293.442324 278.877113 
L 293.770589 278.21281 
L 294.42712 277.814543 
L 295.083651 278.565796 
L 295.411917 278.354852 
L 295.740182 278.379125 
L 296.068447 278.274113 
L 296.396713 278.416419 
L 296.724978 278.326343 
L 297.053244 278.782715 
L 297.381509 278.012661 
L 297.709775 278.582153 
L 298.03804 278.885532 
L 298.366306 279.764391 
L 299.022837 278.797091 
L 299.351102 278.844709 
L 300.007633 279.234564 
L 300.335899 279.30544 
L 300.664164 279.258921 
L 300.992429 279.426495 
L 301.320695 279.225273 
L 301.64896 282.448 
L 301.977226 279.245381 
L 302.305491 279.101216 
L 302.633757 279.218889 
L 302.962022 279.117612 
L 303.290288 278.882064 
L 303.618553 279.382694 
L 303.946819 279.420695 
L 304.275084 279.099596 
L 304.60335 279.367468 
L 304.931615 281.949184 
L 305.259881 279.659317 
L 305.588146 279.146814 
L 306.244677 279.592119 
L 306.572942 279.49684 
L 306.901208 279.658301 
L 307.229473 279.512988 
L 307.557739 279.838957 
L 307.886004 279.669604 
L 308.21427 279.268454 
L 308.542535 279.558548 
L 308.870801 280.620539 
L 309.199066 279.476537 
L 309.527332 279.975264 
L 310.512128 279.78817 
L 311.168659 280.157445 
L 311.496924 280.27483 
L 311.82519 279.934223 
L 312.153455 280.093242 
L 312.481721 281.473742 
L 312.809986 280.229298 
L 313.138252 280.055169 
L 313.466517 280.449012 
L 313.794783 280.477347 
L 314.123048 279.875357 
L 314.451314 280.244891 
L 315.43611 280.443121 
L 315.764375 281.851159 
L 316.092641 280.138593 
L 316.420906 280.334656 
L 316.749172 282.4758 
L 317.077437 280.670212 
L 317.405703 280.427619 
L 317.733968 284.869666 
L 318.062234 282.34942 
L 318.390499 280.816367 
L 318.718765 280.38714 
L 319.04703 281.833418 
L 319.375296 280.492923 
L 319.703561 280.929682 
L 320.031826 280.702957 
L 320.688357 280.752042 
L 321.344888 281.271653 
L 321.673154 281.85486 
L 322.001419 281.047222 
L 322.986216 280.93197 
L 323.314481 280.953919 
L 323.642747 281.820446 
L 323.971012 281.022336 
L 324.299278 281.104646 
L 324.627543 280.779261 
L 324.955808 281.434889 
L 325.284074 280.660801 
L 325.612339 280.704195 
L 325.940605 279.649549 
L 326.597136 282.282211 
L 326.925401 281.001179 
L 327.581932 280.953627 
L 327.910198 280.795401 
L 328.238463 281.223269 
L 328.566729 280.815942 
L 328.894994 281.037378 
L 329.223259 281.474575 
L 329.551525 281.138937 
L 329.87979 281.438527 
L 330.208056 281.168686 
L 330.864587 281.45371 
L 331.192852 281.727068 
L 331.849383 281.536396 
L 332.505914 281.956306 
L 333.162445 281.439234 
L 333.490711 282.468302 
L 333.818976 281.823769 
L 334.147241 281.539367 
L 334.475507 281.984606 
L 334.803772 282.076274 
L 335.132038 281.568143 
L 335.460303 281.860288 
L 335.788569 281.643128 
L 336.116834 281.643666 
L 336.4451 281.931577 
L 336.773365 281.859889 
L 337.101631 281.566349 
L 337.429896 282.131919 
L 337.758162 281.634549 
L 338.086427 281.941076 
L 338.742958 282.154873 
L 339.071223 281.95587 
L 339.399489 282.058769 
L 339.727754 281.951046 
L 340.384285 282.131631 
L 340.712551 282.53815 
L 341.040816 284.924351 
L 341.369082 282.372953 
L 341.697347 282.409893 
L 342.025613 282.614166 
L 342.353878 282.381302 
L 342.682144 282.356265 
L 343.010409 282.756997 
L 343.338675 282.309582 
L 344.651736 282.352816 
L 344.980002 283.468438 
L 345.308267 282.676815 
L 345.964798 282.440354 
L 346.293064 282.451418 
L 346.621329 282.659944 
L 346.949595 282.553747 
L 347.27786 282.265114 
L 347.606126 282.701788 
L 348.262656 282.698613 
L 348.590922 282.89058 
L 348.919187 283.862891 
L 349.247453 282.927562 
L 349.575718 282.993491 
L 349.903984 282.585362 
L 350.560515 282.53119 
L 350.88878 282.70469 
L 351.217046 283.279729 
L 351.545311 282.684894 
L 351.873577 282.586252 
L 352.201842 282.712683 
L 352.858373 283.731649 
L 353.186638 282.986561 
L 353.843169 283.0986 
L 354.171435 283.376039 
L 354.4997 283.085944 
L 354.827966 283.190538 
L 355.156231 283.059004 
L 355.484497 282.720781 
L 355.812762 283.117502 
L 356.141028 282.928768 
L 356.797559 283.041591 
L 357.125824 282.977482 
L 358.11062 283.369976 
L 358.767151 283.318516 
L 359.095417 283.535156 
L 359.423682 283.247824 
L 360.080213 283.333095 
L 360.408479 284.40579 
L 360.736744 283.345985 
L 361.06501 283.03224 
L 361.393275 283.37686 
L 362.378072 283.642354 
L 362.706337 283.461893 
L 363.034602 283.619809 
L 363.691133 283.595697 
L 364.347664 283.20593 
L 365.004195 283.562413 
L 365.332461 283.11638 
L 365.988992 283.568547 
L 366.317257 283.667276 
L 367.630319 283.41919 
L 367.958584 284.218902 
L 368.28685 283.56079 
L 368.943381 283.598363 
L 369.271646 283.876803 
L 369.928177 283.799647 
L 370.256443 283.681466 
L 371.569505 283.833146 
L 371.89777 283.733515 
L 372.226035 283.920407 
L 372.554301 283.772708 
L 372.882566 283.941608 
L 373.210832 283.479487 
L 373.539097 283.789313 
L 373.867363 284.306114 
L 374.195628 283.627204 
L 374.523894 284.115086 
L 374.852159 283.761038 
L 375.180425 286.352464 
L 375.50869 284.192636 
L 375.836956 284.271014 
L 376.165221 284.185105 
L 376.493487 283.873048 
L 376.821752 285.0661 
L 377.150017 285.001639 
L 377.478283 283.881885 
L 377.806548 284.154438 
L 378.134814 284.179762 
L 378.463079 284.041143 
L 378.791345 284.218095 
L 379.11961 286.340614 
L 379.447876 284.155543 
L 379.776141 283.967803 
L 380.104407 284.228989 
L 380.432672 284.946164 
L 380.760938 284.384128 
L 381.089203 285.04107 
L 381.417469 284.324202 
L 381.745734 284.252054 
L 382.073999 284.295811 
L 382.402265 285.37014 
L 382.73053 284.116096 
L 383.058796 284.304654 
L 383.387061 283.852587 
L 383.715327 284.69204 
L 384.371858 284.423817 
L 384.700123 285.964573 
L 385.028389 284.332988 
L 385.356654 284.255442 
L 385.68492 284.571644 
L 386.013185 284.731504 
L 386.341451 284.705109 
L 386.669716 284.39381 
L 386.997981 284.28744 
L 387.982778 284.357654 
L 388.311043 284.616325 
L 388.967574 284.545655 
L 389.624105 284.542756 
L 389.952371 284.11874 
L 390.280636 284.610198 
L 390.608902 284.622028 
L 390.937167 284.809384 
L 391.265432 286.017419 
L 391.593698 284.857764 
L 391.921963 284.551597 
L 392.250229 284.760622 
L 392.578494 284.673395 
L 392.90676 285.020049 
L 393.235025 284.994087 
L 393.563291 284.549256 
L 393.891556 284.834989 
L 394.548087 284.914558 
L 394.876353 287.13087 
L 395.204618 285.57084 
L 395.532884 284.830004 
L 396.51768 284.963832 
L 397.174211 285.174577 
L 397.502476 285.179667 
L 397.830742 286.008684 
L 398.159007 285.139139 
L 398.487273 285.172655 
L 398.487273 285.172655 
" style="fill:none;stroke:#1f77b4;stroke-linecap:square;stroke-width:1.5;"/>
   </g>
   <g id="line2d_18">
    <path clip-path="url(#p655c48c716)" d="M 73.832727 101.1819 
L 74.160993 85.847856 
L 74.489258 182.997697 
L 74.817524 203.465309 
L 75.145789 108.283487 
L 75.474055 111.165244 
L 75.80232 110.701322 
L 76.130586 129.27182 
L 76.458851 120.7914 
L 76.787116 137.457508 
L 77.115382 138.180616 
L 77.443647 143.677141 
L 77.771913 129.84094 
L 78.428444 153.036212 
L 78.756709 161.133477 
L 79.084975 153.76179 
L 79.41324 155.368989 
L 80.069771 173.100648 
L 80.398037 154.49738 
L 80.726302 161.854055 
L 81.054568 165.26687 
L 81.382833 166.079206 
L 81.711098 166.443152 
L 82.039364 171.982307 
L 82.367629 172.797284 
L 82.695895 180.074012 
L 83.02416 178.079503 
L 83.352426 180.105195 
L 83.680691 181.185692 
L 84.008957 180.122683 
L 84.337222 203.288034 
L 84.665488 187.065252 
L 84.993753 186.328633 
L 85.322019 191.544998 
L 85.650284 192.106755 
L 85.978549 209.964403 
L 86.306815 195.08172 
L 86.63508 199.25039 
L 86.963346 198.226037 
L 87.291611 201.024056 
L 87.619877 200.698581 
L 87.948142 216.433074 
L 88.276408 199.8816 
L 88.604673 205.515426 
L 89.261204 208.738949 
L 89.58947 208.896101 
L 89.917735 209.893847 
L 90.246001 205.066042 
L 90.902531 214.929479 
L 91.230797 215.146406 
L 91.559062 216.398297 
L 91.887328 216.387481 
L 92.215593 209.154258 
L 92.543859 210.328081 
L 92.872124 220.894424 
L 93.20039 220.419271 
L 93.528655 212.065529 
L 93.856921 219.543243 
L 94.185186 232.999229 
L 94.513452 215.857677 
L 94.841717 215.733795 
L 95.498248 224.428202 
L 95.826513 221.436652 
L 96.154779 221.795933 
L 96.483044 223.571849 
L 96.81131 224.486116 
L 97.139575 227.666566 
L 97.467841 222.695006 
L 97.796106 229.086038 
L 98.124372 223.848846 
L 98.452637 229.500254 
L 98.780903 225.387047 
L 99.109168 231.461351 
L 99.437434 230.68414 
L 99.765699 236.379173 
L 100.42223 230.983391 
L 100.750495 232.771562 
L 101.078761 238.0239 
L 101.407026 230.01992 
L 101.735292 230.722669 
L 102.063557 231.102079 
L 102.391823 241.084932 
L 102.720088 233.574207 
L 103.048354 237.88017 
L 103.376619 237.81569 
L 103.704885 233.550191 
L 104.03315 239.925247 
L 104.361416 237.331887 
L 105.017947 236.532287 
L 105.346212 240.613111 
L 105.674477 243.276514 
L 106.002743 252.855855 
L 106.331008 244.381595 
L 106.659274 242.207617 
L 106.987539 241.82629 
L 107.315805 238.24955 
L 107.64407 243.32036 
L 107.972336 246.248569 
L 108.300601 240.31589 
L 108.628867 250.689764 
L 108.957132 241.447882 
L 109.285398 250.577978 
L 109.613663 240.89457 
L 109.941928 246.961606 
L 110.270194 244.488878 
L 110.598459 245.261543 
L 110.926725 247.595831 
L 111.25499 244.662561 
L 111.911521 247.351388 
L 112.239787 249.515046 
L 112.568052 248.301092 
L 112.896318 249.354155 
L 113.224583 249.153685 
L 113.552849 255.545202 
L 113.881114 246.27898 
L 114.20938 249.984504 
L 114.537645 251.321492 
L 114.86591 251.716339 
L 115.194176 248.5116 
L 115.522441 248.006035 
L 115.850707 251.696445 
L 116.178972 251.935972 
L 116.507238 249.105687 
L 116.835503 249.870771 
L 117.492034 257.801781 
L 117.8203 252.939217 
L 118.148565 253.603893 
L 118.476831 251.413415 
L 118.805096 255.972293 
L 119.133362 254.425275 
L 119.461627 255.554538 
L 119.789892 251.627443 
L 120.118158 253.963166 
L 120.446423 255.492836 
L 120.774689 272.579599 
L 121.102954 261.677608 
L 121.43122 256.401764 
L 121.759485 255.805794 
L 122.416016 258.684138 
L 122.744282 257.177191 
L 123.072547 257.743914 
L 123.400813 260.291087 
L 123.729078 256.856545 
L 124.057344 259.2601 
L 124.713874 258.673209 
L 125.04214 259.981922 
L 125.370405 265.305156 
L 125.698671 259.615927 
L 126.026936 259.441254 
L 126.355202 260.185198 
L 126.683467 261.913021 
L 127.011733 265.741286 
L 127.339998 261.357734 
L 127.668264 259.954195 
L 127.996529 262.295071 
L 128.324795 271.068309 
L 128.65306 261.660945 
L 128.981325 262.481539 
L 129.309591 259.909605 
L 129.637856 261.059796 
L 129.966122 261.033054 
L 130.950918 261.391599 
L 131.279184 262.12998 
L 131.607449 263.79565 
L 132.26398 261.405403 
L 132.592246 264.081808 
L 132.920511 262.099606 
L 133.248777 262.574174 
L 133.577042 263.40727 
L 133.905307 264.888239 
L 134.233573 263.007694 
L 134.561838 264.180972 
L 134.890104 267.279207 
L 135.218369 268.132555 
L 135.8749 263.622419 
L 136.203166 265.375355 
L 136.531431 264.825249 
L 136.859697 266.488528 
L 137.187962 264.6098 
L 137.844493 267.611202 
L 138.172759 265.045043 
L 138.501024 271.589793 
L 138.829289 266.261546 
L 139.157555 265.168762 
L 139.48582 265.758583 
L 139.814086 265.270992 
L 140.142351 266.871787 
L 140.470617 267.710707 
L 140.798882 265.684022 
L 141.127148 266.737936 
L 141.455413 266.967295 
L 141.783679 267.051256 
L 142.111944 268.51789 
L 142.44021 269.415624 
L 142.768475 266.919175 
L 143.096741 268.019477 
L 143.425006 268.719747 
L 143.753271 268.582488 
L 144.081537 267.666219 
L 144.409802 269.206955 
L 144.738068 268.978597 
L 145.066333 268.926584 
L 145.394599 275.100222 
L 145.722864 272.014655 
L 146.05113 270.021298 
L 146.379395 271.926166 
L 146.707661 268.358792 
L 147.035926 268.654036 
L 147.692457 270.560999 
L 148.020722 270.670058 
L 148.348988 268.783469 
L 148.677253 270.021624 
L 149.005519 269.392194 
L 149.66205 270.848411 
L 149.990315 276.188802 
L 150.318581 271.283185 
L 150.646846 276.9503 
L 150.975112 271.606276 
L 151.303377 271.973939 
L 151.631643 271.077871 
L 151.959908 271.300821 
L 152.288174 277.109071 
L 152.616439 270.719972 
L 153.27297 272.663295 
L 153.601235 270.247127 
L 153.929501 272.383528 
L 154.257766 271.825487 
L 154.586032 272.342804 
L 154.914297 271.979251 
L 155.242563 272.119772 
L 155.570828 271.576074 
L 155.899094 272.956978 
L 156.227359 272.857746 
L 156.555625 276.636173 
L 156.88389 273.058767 
L 157.212156 273.114275 
L 157.540421 272.751189 
L 157.868686 272.681765 
L 158.196952 273.817684 
L 158.525217 272.543695 
L 158.853483 273.785665 
L 159.181748 274.133844 
L 159.510014 273.495015 
L 159.838279 273.3869 
L 160.166545 277.794204 
L 160.49481 273.900224 
L 160.823076 273.212167 
L 161.151341 274.627947 
L 161.479607 276.760323 
L 161.807872 274.868889 
L 162.464403 274.270829 
L 163.120934 275.162765 
L 163.449199 274.475415 
L 163.777465 274.698923 
L 164.10573 274.443576 
L 164.433996 275.360079 
L 164.762261 274.52331 
L 165.090527 275.509016 
L 165.418792 275.899747 
L 165.747058 275.78443 
L 166.075323 274.83141 
L 166.403589 275.479042 
L 166.731854 275.860983 
L 167.060119 275.650575 
L 167.388385 275.908335 
L 167.71665 275.781243 
L 168.044916 277.018747 
L 168.373181 276.572665 
L 168.701447 276.487389 
L 169.029712 279.379463 
L 169.357978 276.382173 
L 169.686243 277.042162 
L 170.014509 276.283996 
L 170.342774 276.562054 
L 170.67104 276.322265 
L 170.999305 276.437666 
L 171.327571 276.883332 
L 171.655836 276.514555 
L 172.312367 277.673408 
L 172.640632 276.898422 
L 172.968898 277.447287 
L 173.297163 277.054851 
L 173.625429 277.272946 
L 173.953694 276.845268 
L 174.28196 277.095292 
L 174.610225 277.762891 
L 174.938491 277.660318 
L 175.266756 276.986655 
L 175.595022 277.838646 
L 175.923287 277.388427 
L 176.251553 277.391013 
L 176.579818 278.275775 
L 176.908083 278.530204 
L 177.236349 278.23173 
L 177.564614 277.730419 
L 177.89288 277.951138 
L 178.221145 278.394822 
L 178.549411 278.351843 
L 178.877676 278.915949 
L 179.205942 278.333803 
L 179.534207 278.823493 
L 179.862473 278.861941 
L 180.190738 279.337954 
L 180.519004 279.01725 
L 180.847269 278.429798 
L 181.175535 279.03477 
L 181.5038 277.980439 
L 181.832065 278.974169 
L 182.160331 278.655921 
L 182.488596 279.091023 
L 182.816862 279.145763 
L 183.145127 276.537601 
L 183.473393 279.052854 
L 183.801658 280.039891 
L 184.129924 280.105362 
L 184.458189 279.361029 
L 184.786455 279.81989 
L 185.11472 279.601889 
L 185.442986 280.051399 
L 185.771251 279.787561 
L 186.099516 279.76414 
L 186.427782 280.437459 
L 186.756047 279.889025 
L 187.084313 280.266087 
L 187.412578 279.225911 
L 187.740844 279.476697 
L 188.069109 279.914652 
L 188.397375 280.076273 
L 188.72564 280.427222 
L 189.053906 284.597739 
L 189.382171 280.605518 
L 189.710437 280.715778 
L 190.038702 280.623321 
L 190.366968 280.890595 
L 190.695233 286.490058 
L 191.023498 280.744717 
L 191.351764 280.705639 
L 191.680029 281.310689 
L 192.008295 284.039703 
L 192.33656 280.867068 
L 192.664826 280.923094 
L 192.993091 281.188863 
L 193.321357 284.144509 
L 193.649622 281.277692 
L 193.977888 281.367659 
L 194.306153 281.031042 
L 194.634419 281.922711 
L 194.962684 281.129358 
L 195.29095 281.519581 
L 195.619215 281.416796 
L 196.604011 281.643243 
L 196.932277 282.255563 
L 197.260542 281.916592 
L 197.588808 282.178299 
L 197.917073 281.664117 
L 198.245339 282.101119 
L 198.573604 285.48038 
L 198.90187 282.049353 
L 199.230135 281.811906 
L 199.558401 283.266898 
L 199.886666 282.275488 
L 200.214932 282.049642 
L 200.543197 282.600899 
L 200.871462 282.192951 
L 201.199728 282.313833 
L 201.527993 283.973466 
L 201.856259 282.801119 
L 202.184524 282.687785 
L 202.51279 283.105155 
L 203.497586 282.588187 
L 204.154117 283.156877 
L 204.482383 283.222259 
L 204.810648 282.604279 
L 205.138914 283.313985 
L 205.467179 283.255919 
L 205.795444 285.660666 
L 206.12371 282.917452 
L 206.780241 283.482305 
L 207.108506 283.489598 
L 207.436772 283.281572 
L 208.093303 283.516041 
L 208.421568 283.225976 
L 208.749834 286.893897 
L 209.078099 283.294551 
L 209.406365 283.931551 
L 209.73463 283.604558 
L 210.062895 283.756321 
L 210.391161 284.051116 
L 210.719426 283.912096 
L 211.047692 284.041774 
L 211.375957 283.721812 
L 212.032488 284.190711 
L 212.360754 284.024836 
L 213.017285 284.300359 
L 213.34555 284.231936 
L 213.673816 283.835549 
L 214.002081 284.31997 
L 214.330347 284.150736 
L 214.658612 284.218614 
L 215.315143 284.497679 
L 215.643408 284.506041 
L 215.971674 284.335798 
L 216.299939 284.545611 
L 216.628205 284.62243 
L 216.95647 286.392921 
L 217.284736 284.637594 
L 217.613001 284.663347 
L 217.941267 284.981136 
L 218.597798 284.39317 
L 218.926063 284.689262 
L 219.254329 284.723641 
L 219.910859 284.992393 
L 220.239125 284.884506 
L 220.56739 285.147947 
L 220.895656 284.863793 
L 221.223921 285.242679 
L 221.552187 285.048611 
L 221.880452 285.244957 
L 222.208718 285.190772 
L 222.536983 285.016307 
L 222.865249 285.116937 
L 223.193514 285.573414 
L 223.52178 285.644516 
L 223.850045 285.46 
L 224.178311 285.114248 
L 225.163107 285.636942 
L 225.491372 285.134179 
L 225.819638 285.542237 
L 226.147903 287.306437 
L 226.476169 285.499695 
L 226.804434 285.557891 
L 227.1327 285.937535 
L 227.460965 285.639859 
L 227.789231 286.805074 
L 228.117496 285.533986 
L 229.102292 286.010366 
L 229.430558 285.44593 
L 229.758823 285.798165 
L 230.087089 285.903731 
L 230.74362 286.231444 
L 231.071885 286.326612 
L 231.400151 285.836735 
L 231.728416 286.131022 
L 232.056682 287.788022 
L 232.384947 286.314258 
L 232.713213 287.142245 
L 233.041478 286.129501 
L 233.698009 286.144899 
L 234.026274 286.487366 
L 234.35454 286.573774 
L 234.682805 286.533016 
L 235.011071 286.66894 
L 235.339336 286.30174 
L 235.667602 286.674956 
L 235.995867 286.371375 
L 236.324133 286.638629 
L 236.652398 286.632622 
L 236.980664 289.673403 
L 237.308929 286.906241 
L 237.637195 286.68492 
L 238.293726 287.057207 
L 238.621991 286.892236 
L 238.950256 287.140154 
L 239.606787 286.976787 
L 239.935053 287.126402 
L 240.263318 286.845556 
L 240.591584 285.97579 
L 240.919849 281.241584 
L 241.248115 286.601245 
L 241.904646 287.252626 
L 242.232911 287.132635 
L 242.561177 290.065748 
L 242.889442 287.242676 
L 243.217708 287.010354 
L 243.545973 287.275963 
L 243.874238 287.346492 
L 244.202504 287.564482 
L 244.530769 288.212312 
L 244.859035 289.330029 
L 245.1873 287.133441 
L 245.843831 287.461646 
L 246.172097 287.343156 
L 246.500362 287.825685 
L 246.828628 288.042713 
L 247.156893 287.590857 
L 247.485159 287.442518 
L 248.141689 287.657715 
L 249.126486 287.82394 
L 250.439548 287.8114 
L 250.767813 287.913237 
L 251.096079 287.683585 
L 251.424344 288.204103 
L 251.75261 288.024553 
L 252.080875 288.160638 
L 253.393937 287.854283 
L 254.050468 288.315554 
L 254.378733 288.184156 
L 254.706999 288.516488 
L 255.035264 288.13724 
L 255.36353 288.351798 
L 257.333123 288.625827 
L 257.989653 288.571778 
L 258.317919 288.296903 
L 258.646184 288.36636 
L 258.97445 288.670829 
L 259.302715 288.775725 
L 259.630981 288.673859 
L 259.959246 288.858968 
L 260.287512 288.785057 
L 260.615777 288.834012 
L 260.944043 288.645449 
L 262.58537 288.713239 
L 262.913635 288.94488 
L 263.241901 289.029715 
L 264.554963 288.671721 
L 264.883228 288.983642 
L 265.539759 289.024891 
L 266.19629 289.306635 
L 267.181086 289.058888 
L 267.837617 289.227297 
L 268.165883 288.993485 
L 268.494148 289.330512 
L 268.822414 289.226821 
L 269.150679 290.310117 
L 269.478945 289.306049 
L 269.80721 289.54621 
L 270.463741 289.377419 
L 270.792007 289.34312 
L 271.120272 289.483223 
L 271.448538 289.790677 
L 272.105068 289.447823 
L 272.433334 289.601063 
L 272.761599 289.552324 
L 273.089865 289.694531 
L 273.41813 290.380677 
L 273.746396 289.902012 
L 274.074661 291.164436 
L 274.402927 289.704895 
L 274.731192 289.708379 
L 275.059458 291.860017 
L 275.387723 289.534058 
L 275.715989 289.737809 
L 276.044254 289.646167 
L 276.700785 289.917834 
L 277.02905 289.76348 
L 277.685581 290.043015 
L 278.013847 290.004818 
L 278.342112 289.817435 
L 279.326909 289.798504 
L 279.655174 290.024181 
L 280.311705 290.005092 
L 280.639971 289.959294 
L 280.968236 290.838908 
L 281.296502 289.657336 
L 281.624767 289.691105 
L 281.953032 290.25038 
L 282.281298 290.316476 
L 282.609563 290.222692 
L 282.937829 290.472197 
L 283.266094 290.377673 
L 283.59436 290.404366 
L 283.922625 292.102263 
L 284.250891 290.325021 
L 284.579156 291.570863 
L 284.907422 290.505134 
L 285.235687 290.259893 
L 285.563953 290.412571 
L 285.892218 290.193652 
L 287.20528 290.261475 
L 287.533545 290.447233 
L 287.861811 290.419062 
L 288.190076 290.618087 
L 288.846607 290.6227 
L 289.174873 292.693389 
L 289.503138 291.843213 
L 289.831404 292.721961 
L 290.159669 291.811673 
L 290.487935 290.53189 
L 290.8162 290.521532 
L 291.472731 290.778094 
L 292.457527 290.694501 
L 292.785793 290.895988 
L 293.114058 290.736742 
L 293.442324 290.941167 
L 293.770589 290.719558 
L 294.098855 290.740664 
L 294.42712 290.962841 
L 297.053244 291.09597 
L 297.381509 292.314527 
L 297.709775 291.117077 
L 298.366306 290.927752 
L 298.694571 291.06085 
L 299.022837 291.022521 
L 299.351102 291.170438 
L 299.679368 291.096827 
L 300.007633 291.23869 
L 300.335899 291.188738 
L 300.664164 291.315936 
L 300.992429 291.156925 
L 301.977226 291.183567 
L 302.305491 291.30127 
L 303.618553 291.204523 
L 303.946819 291.471582 
L 304.275084 291.445522 
L 305.259881 291.701317 
L 305.588146 291.529167 
L 305.916411 291.627119 
L 306.244677 291.530309 
L 306.901208 291.771365 
L 308.870801 291.701984 
L 309.527332 291.872452 
L 309.855597 291.680539 
L 310.183862 291.828735 
L 311.168659 291.749719 
L 311.496924 291.964781 
L 311.82519 291.855956 
L 312.153455 291.974001 
L 312.809986 293.880074 
L 313.138252 292.937209 
L 313.466517 292.870673 
L 313.794783 293.089842 
L 314.123048 293.812842 
L 314.451314 293.186405 
L 315.107844 292.999433 
L 315.43611 293.790981 
L 315.764375 294.037281 
L 316.092641 293.367035 
L 316.420906 292.979318 
L 316.749172 294.605742 
L 317.077437 292.063321 
L 317.405703 292.090376 
L 317.733968 292.001092 
L 318.062234 292.216386 
L 318.390499 292.276804 
L 318.718765 292.051951 
L 319.04703 292.213519 
L 319.375296 292.678255 
L 319.703561 292.290892 
L 320.031826 293.139078 
L 320.360092 292.31296 
L 321.016623 292.257843 
L 321.344888 292.177821 
L 322.001419 292.374648 
L 322.329685 292.361766 
L 322.65795 291.941711 
L 322.986216 292.431668 
L 323.314481 292.375288 
L 324.299278 292.796667 
L 324.627543 292.316282 
L 325.284074 292.48077 
L 325.940605 292.348497 
L 326.26887 292.396118 
L 326.597136 292.288098 
L 326.925401 292.397489 
L 327.253667 292.357406 
L 327.581932 292.488461 
L 327.910198 292.464827 
L 328.238463 292.679147 
L 328.566729 292.557183 
L 328.894994 292.607591 
L 329.223259 292.432568 
L 330.208056 292.71397 
L 330.536321 292.404158 
L 330.864587 292.730156 
L 331.192852 292.572797 
L 331.521118 292.708601 
L 331.849383 292.642936 
L 332.505914 292.813186 
L 332.83418 293.767596 
L 333.162445 292.842692 
L 333.490711 292.937692 
L 333.818976 293.774071 
L 334.147241 292.844066 
L 334.475507 292.797145 
L 335.460303 292.987884 
L 335.788569 292.827792 
L 338.414693 292.953799 
L 338.742958 293.135571 
L 339.071223 292.955645 
L 339.399489 293.09608 
L 340.05602 293.186193 
L 340.384285 293.270755 
L 340.712551 295.238124 
L 341.040816 293.247219 
L 342.353878 293.267223 
L 343.010409 293.216039 
L 344.651736 293.182799 
L 344.980002 293.328349 
L 345.636533 293.234479 
L 345.964798 293.639867 
L 346.293064 293.379907 
L 346.621329 293.511283 
L 346.949595 293.435314 
L 347.27786 293.595786 
L 348.262656 293.339017 
L 348.590922 293.83237 
L 348.919187 293.341235 
L 349.247453 293.443079 
L 349.903984 293.401823 
L 350.232249 293.524528 
L 350.88878 293.495592 
L 351.217046 293.736642 
L 351.545311 293.610833 
L 352.530108 293.675108 
L 352.858373 293.581416 
L 353.186638 293.647427 
L 353.843169 293.596615 
L 354.4997 293.618537 
L 354.827966 293.553097 
L 355.156231 293.698782 
L 355.484497 293.695907 
L 355.812762 295.145101 
L 356.141028 293.570695 
L 356.469293 293.895405 
L 356.797559 293.92775 
L 357.125824 293.794398 
L 359.423682 293.766047 
L 359.751948 294.675895 
L 360.080213 293.820343 
L 360.408479 293.837243 
L 360.736744 293.737975 
L 361.393275 293.916812 
L 361.721541 293.75937 
L 362.049806 293.829533 
L 362.378072 289.27167 
L 362.706337 293.848254 
L 363.034602 293.956353 
L 364.019399 293.806246 
L 364.347664 293.886183 
L 364.67593 293.656152 
L 365.004195 293.978321 
L 365.332461 294.522582 
L 365.660726 294.048804 
L 366.645523 293.93906 
L 366.973788 294.054134 
L 367.958584 293.948607 
L 368.615115 294.061988 
L 368.943381 294.136691 
L 370.256443 294.0108 
L 370.584708 294.133493 
L 370.912974 294.076972 
L 371.241239 294.541324 
L 371.569505 294.116684 
L 372.226035 294.351585 
L 372.554301 294.201382 
L 372.882566 294.467387 
L 373.210832 294.120212 
L 373.867363 294.236016 
L 374.852159 294.251029 
L 375.180425 294.142539 
L 375.50869 294.23373 
L 376.493487 294.152542 
L 376.821752 294.250904 
L 377.150017 295.109249 
L 377.478283 294.48331 
L 377.806548 294.278549 
L 378.463079 294.352093 
L 378.791345 294.333955 
L 379.11961 294.194173 
L 379.447876 294.437587 
L 381.089203 294.463675 
L 381.417469 294.646651 
L 381.745734 294.369592 
L 382.073999 294.582533 
L 382.402265 294.494947 
L 382.73053 294.889819 
L 383.058796 294.488233 
L 384.043592 294.504605 
L 384.371858 295.250257 
L 384.700123 294.599732 
L 385.68492 294.491746 
L 386.013185 294.756818 
L 386.341451 294.849911 
L 386.669716 294.651008 
L 386.997981 295.279543 
L 387.326247 294.661296 
L 388.311043 294.537894 
L 389.29584 295.053554 
L 389.624105 294.593753 
L 389.952371 294.78619 
L 390.280636 294.678693 
L 390.608902 294.757895 
L 390.937167 295.488 
L 391.265432 294.900215 
L 391.593698 294.759201 
L 392.250229 294.803779 
L 392.578494 294.710612 
L 392.90676 294.773501 
L 393.235025 295.035676 
L 393.563291 294.744136 
L 393.891556 294.870655 
L 394.219822 294.821569 
L 394.548087 294.922502 
L 394.876353 294.727593 
L 395.204618 294.986606 
L 395.532884 295.047647 
L 396.189414 294.759675 
L 396.51768 295.089886 
L 396.845945 294.78305 
L 397.174211 295.006133 
L 397.502476 294.947216 
L 398.487273 295.115202 
L 398.487273 295.115202 
" style="fill:none;stroke:#ff7f0e;stroke-linecap:square;stroke-width:1.5;"/>
   </g>
   <g id="patch_3">
    <path d="M 57.6 307.584 
L 57.6 41.472 
" style="fill:none;stroke:#000000;stroke-linecap:square;stroke-linejoin:miter;stroke-width:0.8;"/>
   </g>
   <g id="patch_4">
    <path d="M 414.72 307.584 
L 414.72 41.472 
" style="fill:none;stroke:#000000;stroke-linecap:square;stroke-linejoin:miter;stroke-width:0.8;"/>
   </g>
   <g id="patch_5">
    <path d="M 57.6 307.584 
L 414.72 307.584 
" style="fill:none;stroke:#000000;stroke-linecap:square;stroke-linejoin:miter;stroke-width:0.8;"/>
   </g>
   <g id="patch_6">
    <path d="M 57.6 41.472 
L 414.72 41.472 
" style="fill:none;stroke:#000000;stroke-linecap:square;stroke-linejoin:miter;stroke-width:0.8;"/>
   </g>
   <g id="text_19">
    <!-- AO Speedup -->
    <defs>
     <path d="M 34.1875 63.1875 
L 20.796875 26.90625 
L 47.609375 26.90625 
z
M 28.609375 72.90625 
L 39.796875 72.90625 
L 67.578125 0 
L 57.328125 0 
L 50.6875 18.703125 
L 17.828125 18.703125 
L 11.1875 0 
L 0.78125 0 
z
" id="DejaVuSans-65"/>
     <path d="M 39.40625 66.21875 
Q 28.65625 66.21875 22.328125 58.203125 
Q 16.015625 50.203125 16.015625 36.375 
Q 16.015625 22.609375 22.328125 14.59375 
Q 28.65625 6.59375 39.40625 6.59375 
Q 50.140625 6.59375 56.421875 14.59375 
Q 62.703125 22.609375 62.703125 36.375 
Q 62.703125 50.203125 56.421875 58.203125 
Q 50.140625 66.21875 39.40625 66.21875 
z
M 39.40625 74.21875 
Q 54.734375 74.21875 63.90625 63.9375 
Q 73.09375 53.65625 73.09375 36.375 
Q 73.09375 19.140625 63.90625 8.859375 
Q 54.734375 -1.421875 39.40625 -1.421875 
Q 24.03125 -1.421875 14.8125 8.828125 
Q 5.609375 19.09375 5.609375 36.375 
Q 5.609375 53.65625 14.8125 63.9375 
Q 24.03125 74.21875 39.40625 74.21875 
z
" id="DejaVuSans-79"/>
     <path id="DejaVuSans-32"/>
     <path d="M 53.515625 70.515625 
L 53.515625 60.890625 
Q 47.90625 63.578125 42.921875 64.890625 
Q 37.9375 66.21875 33.296875 66.21875 
Q 25.25 66.21875 20.875 63.09375 
Q 16.5 59.96875 16.5 54.203125 
Q 16.5 49.359375 19.40625 46.890625 
Q 22.3125 44.4375 30.421875 42.921875 
L 36.375 41.703125 
Q 47.40625 39.59375 52.65625 34.296875 
Q 57.90625 29 57.90625 20.125 
Q 57.90625 9.515625 50.796875 4.046875 
Q 43.703125 -1.421875 29.984375 -1.421875 
Q 24.8125 -1.421875 18.96875 -0.25 
Q 13.140625 0.921875 6.890625 3.21875 
L 6.890625 13.375 
Q 12.890625 10.015625 18.65625 8.296875 
Q 24.421875 6.59375 29.984375 6.59375 
Q 38.421875 6.59375 43.015625 9.90625 
Q 47.609375 13.234375 47.609375 19.390625 
Q 47.609375 24.75 44.3125 27.78125 
Q 41.015625 30.8125 33.5 32.328125 
L 27.484375 33.5 
Q 16.453125 35.6875 11.515625 40.375 
Q 6.59375 45.0625 6.59375 53.421875 
Q 6.59375 63.09375 13.40625 68.65625 
Q 20.21875 74.21875 32.171875 74.21875 
Q 37.3125 74.21875 42.625 73.28125 
Q 47.953125 72.359375 53.515625 70.515625 
z
" id="DejaVuSans-83"/>
    </defs>
    <g transform="translate(199.108125 35.472)scale(0.12 -0.12)">
     <use xlink:href="#DejaVuSans-65"/>
     <use x="66.658203" xlink:href="#DejaVuSans-79"/>
     <use x="145.369141" xlink:href="#DejaVuSans-32"/>
     <use x="177.15625" xlink:href="#DejaVuSans-83"/>
     <use x="240.632812" xlink:href="#DejaVuSans-112"/>
     <use x="304.109375" xlink:href="#DejaVuSans-101"/>
     <use x="365.632812" xlink:href="#DejaVuSans-101"/>
     <use x="427.15625" xlink:href="#DejaVuSans-100"/>
     <use x="490.632812" xlink:href="#DejaVuSans-117"/>
     <use x="554.011719" xlink:href="#DejaVuSans-112"/>
    </g>
   </g>
   <g id="legend_1">
    <g id="patch_7">
     <path d="M 304.093437 78.82825 
L 407.72 78.82825 
Q 409.72 78.82825 409.72 76.82825 
L 409.72 48.472 
Q 409.72 46.472 407.72 46.472 
L 304.093437 46.472 
Q 302.093437 46.472 302.093437 48.472 
L 302.093437 76.82825 
Q 302.093437 78.82825 304.093437 78.82825 
z
" style="fill:#ffffff;opacity:0.8;stroke:#cccccc;stroke-linejoin:miter;"/>
    </g>
    <g id="line2d_19">
     <path d="M 306.093437 54.570437 
L 326.093437 54.570437 
" style="fill:none;stroke:#1f77b4;stroke-linecap:square;stroke-width:1.5;"/>
    </g>
    <g id="line2d_20"/>
    <g id="text_20">
     <!-- numpy.float32 -->
     <defs>
      <path d="M 52 44.1875 
Q 55.375 50.25 60.0625 53.125 
Q 64.75 56 71.09375 56 
Q 79.640625 56 84.28125 50.015625 
Q 88.921875 44.046875 88.921875 33.015625 
L 88.921875 0 
L 79.890625 0 
L 79.890625 32.71875 
Q 79.890625 40.578125 77.09375 44.375 
Q 74.3125 48.1875 68.609375 48.1875 
Q 61.625 48.1875 57.5625 43.546875 
Q 53.515625 38.921875 53.515625 30.90625 
L 53.515625 0 
L 44.484375 0 
L 44.484375 32.71875 
Q 44.484375 40.625 41.703125 44.40625 
Q 38.921875 48.1875 33.109375 48.1875 
Q 26.21875 48.1875 22.15625 43.53125 
Q 18.109375 38.875 18.109375 30.90625 
L 18.109375 0 
L 9.078125 0 
L 9.078125 54.6875 
L 18.109375 54.6875 
L 18.109375 46.1875 
Q 21.1875 51.21875 25.484375 53.609375 
Q 29.78125 56 35.6875 56 
Q 41.65625 56 45.828125 52.96875 
Q 50 49.953125 52 44.1875 
z
" id="DejaVuSans-109"/>
      <path d="M 32.171875 -5.078125 
Q 28.375 -14.84375 24.75 -17.8125 
Q 21.140625 -20.796875 15.09375 -20.796875 
L 7.90625 -20.796875 
L 7.90625 -13.28125 
L 13.1875 -13.28125 
Q 16.890625 -13.28125 18.9375 -11.515625 
Q 21 -9.765625 23.484375 -3.21875 
L 25.09375 0.875 
L 2.984375 54.6875 
L 12.5 54.6875 
L 29.59375 11.921875 
L 46.6875 54.6875 
L 56.203125 54.6875 
z
" id="DejaVuSans-121"/>
      <path d="M 37.109375 75.984375 
L 37.109375 68.5 
L 28.515625 68.5 
Q 23.6875 68.5 21.796875 66.546875 
Q 19.921875 64.59375 19.921875 59.515625 
L 19.921875 54.6875 
L 34.71875 54.6875 
L 34.71875 47.703125 
L 19.921875 47.703125 
L 19.921875 0 
L 10.890625 0 
L 10.890625 47.703125 
L 2.296875 47.703125 
L 2.296875 54.6875 
L 10.890625 54.6875 
L 10.890625 58.5 
Q 10.890625 67.625 15.140625 71.796875 
Q 19.390625 75.984375 28.609375 75.984375 
z
" id="DejaVuSans-102"/>
      <path d="M 9.421875 75.984375 
L 18.40625 75.984375 
L 18.40625 0 
L 9.421875 0 
z
" id="DejaVuSans-108"/>
      <path d="M 30.609375 48.390625 
Q 23.390625 48.390625 19.1875 42.75 
Q 14.984375 37.109375 14.984375 27.296875 
Q 14.984375 17.484375 19.15625 11.84375 
Q 23.34375 6.203125 30.609375 6.203125 
Q 37.796875 6.203125 41.984375 11.859375 
Q 46.1875 17.53125 46.1875 27.296875 
Q 46.1875 37.015625 41.984375 42.703125 
Q 37.796875 48.390625 30.609375 48.390625 
z
M 30.609375 56 
Q 42.328125 56 49.015625 48.375 
Q 55.71875 40.765625 55.71875 27.296875 
Q 55.71875 13.875 49.015625 6.21875 
Q 42.328125 -1.421875 30.609375 -1.421875 
Q 18.84375 -1.421875 12.171875 6.21875 
Q 5.515625 13.875 5.515625 27.296875 
Q 5.515625 40.765625 12.171875 48.375 
Q 18.84375 56 30.609375 56 
z
" id="DejaVuSans-111"/>
      <path d="M 34.28125 27.484375 
Q 23.390625 27.484375 19.1875 25 
Q 14.984375 22.515625 14.984375 16.5 
Q 14.984375 11.71875 18.140625 8.90625 
Q 21.296875 6.109375 26.703125 6.109375 
Q 34.1875 6.109375 38.703125 11.40625 
Q 43.21875 16.703125 43.21875 25.484375 
L 43.21875 27.484375 
z
M 52.203125 31.203125 
L 52.203125 0 
L 43.21875 0 
L 43.21875 8.296875 
Q 40.140625 3.328125 35.546875 0.953125 
Q 30.953125 -1.421875 24.3125 -1.421875 
Q 15.921875 -1.421875 10.953125 3.296875 
Q 6 8.015625 6 15.921875 
Q 6 25.140625 12.171875 29.828125 
Q 18.359375 34.515625 30.609375 34.515625 
L 43.21875 34.515625 
L 43.21875 35.40625 
Q 43.21875 41.609375 39.140625 45 
Q 35.0625 48.390625 27.6875 48.390625 
Q 23 48.390625 18.546875 47.265625 
Q 14.109375 46.140625 10.015625 43.890625 
L 10.015625 52.203125 
Q 14.9375 54.109375 19.578125 55.046875 
Q 24.21875 56 28.609375 56 
Q 40.484375 56 46.34375 49.84375 
Q 52.203125 43.703125 52.203125 31.203125 
z
" id="DejaVuSans-97"/>
      <path d="M 18.3125 70.21875 
L 18.3125 54.6875 
L 36.8125 54.6875 
L 36.8125 47.703125 
L 18.3125 47.703125 
L 18.3125 18.015625 
Q 18.3125 11.328125 20.140625 9.421875 
Q 21.96875 7.515625 27.59375 7.515625 
L 36.8125 7.515625 
L 36.8125 0 
L 27.59375 0 
Q 17.1875 0 13.234375 3.875 
Q 9.28125 7.765625 9.28125 18.015625 
L 9.28125 47.703125 
L 2.6875 47.703125 
L 2.6875 54.6875 
L 9.28125 54.6875 
L 9.28125 70.21875 
z
" id="DejaVuSans-116"/>
     </defs>
     <g transform="translate(334.093437 58.070437)scale(0.1 -0.1)">
      <use xlink:href="#DejaVuSans-110"/>
      <use x="63.378906" xlink:href="#DejaVuSans-117"/>
      <use x="126.757812" xlink:href="#DejaVuSans-109"/>
      <use x="224.169922" xlink:href="#DejaVuSans-112"/>
      <use x="287.646484" xlink:href="#DejaVuSans-121"/>
      <use x="332.576172" xlink:href="#DejaVuSans-46"/>
      <use x="364.363281" xlink:href="#DejaVuSans-102"/>
      <use x="399.568359" xlink:href="#DejaVuSans-108"/>
      <use x="427.351562" xlink:href="#DejaVuSans-111"/>
      <use x="488.533203" xlink:href="#DejaVuSans-97"/>
      <use x="549.8125" xlink:href="#DejaVuSans-116"/>
      <use x="589.021484" xlink:href="#DejaVuSans-51"/>
      <use x="652.644531" xlink:href="#DejaVuSans-50"/>
     </g>
    </g>
    <g id="line2d_21">
     <path d="M 306.093437 69.248562 
L 326.093437 69.248562 
" style="fill:none;stroke:#ff7f0e;stroke-linecap:square;stroke-width:1.5;"/>
    </g>
    <g id="line2d_22"/>
    <g id="text_21">
     <!-- numpy.float64 -->
     <g transform="translate(334.093437 72.748562)scale(0.1 -0.1)">
      <use xlink:href="#DejaVuSans-110"/>
      <use x="63.378906" xlink:href="#DejaVuSans-117"/>
      <use x="126.757812" xlink:href="#DejaVuSans-109"/>
      <use x="224.169922" xlink:href="#DejaVuSans-112"/>
      <use x="287.646484" xlink:href="#DejaVuSans-121"/>
      <use x="332.576172" xlink:href="#DejaVuSans-46"/>
      <use x="364.363281" xlink:href="#DejaVuSans-102"/>
      <use x="399.568359" xlink:href="#DejaVuSans-108"/>
      <use x="427.351562" xlink:href="#DejaVuSans-111"/>
      <use x="488.533203" xlink:href="#DejaVuSans-97"/>
      <use x="549.8125" xlink:href="#DejaVuSans-116"/>
      <use x="589.021484" xlink:href="#DejaVuSans-54"/>
      <use x="652.644531" xlink:href="#DejaVuSans-52"/>
     </g>
    </g>
   </g>
  </g>
 </g>
 <defs>
  <clipPath id="p655c48c716">
   <rect height="266.112" width="357.12" x="57.6" y="41.472"/>
  </clipPath>
 </defs>
</svg>
