<?xml version="1.0" encoding="utf-8" standalone="no"?>
<!DOCTYPE svg PUBLIC "-//W3C//DTD SVG 1.1//EN"
  "http://www.w3.org/Graphics/SVG/1.1/DTD/svg11.dtd">
<!-- Created with matplotlib (https://matplotlib.org/) -->
<svg height="720pt" version="1.1" viewBox="0 0 1440 720" width="1440pt" xmlns="http://www.w3.org/2000/svg" xmlns:xlink="http://www.w3.org/1999/xlink">
 <defs>
  <style type="text/css">
*{stroke-linecap:butt;stroke-linejoin:round;}
  </style>
 </defs>
 <g id="figure_1">
  <g id="patch_1">
   <path d="M 0 720 
L 1440 720 
L 1440 0 
L 0 0 
z
" style="fill:#ffffff;"/>
  </g>
  <g id="axes_1">
   <g id="patch_2">
    <path d="M 180 640.8 
L 1296 640.8 
L 1296 86.4 
L 180 86.4 
z
" style="fill:#ffffff;"/>
   </g>
   <g id="matplotlib.axis_1">
    <g id="xtick_1">
     <g id="line2d_1">
      <defs>
       <path d="M 0 0 
L 0 3.5 
" id="mba26611521" style="stroke:#000000;stroke-width:0.8;"/>
      </defs>
      <g>
       <use style="stroke:#000000;stroke-width:0.8;" x="333.310231" xlink:href="#mba26611521" y="640.8"/>
      </g>
     </g>
     <g id="text_1">
      <!-- 100.0 -->
      <defs>
       <path d="M 12.40625 8.296875 
L 28.515625 8.296875 
L 28.515625 63.921875 
L 10.984375 60.40625 
L 10.984375 69.390625 
L 28.421875 72.90625 
L 38.28125 72.90625 
L 38.28125 8.296875 
L 54.390625 8.296875 
L 54.390625 0 
L 12.40625 0 
z
" id="DejaVuSans-49"/>
       <path d="M 31.78125 66.40625 
Q 24.171875 66.40625 20.328125 58.90625 
Q 16.5 51.421875 16.5 36.375 
Q 16.5 21.390625 20.328125 13.890625 
Q 24.171875 6.390625 31.78125 6.390625 
Q 39.453125 6.390625 43.28125 13.890625 
Q 47.125 21.390625 47.125 36.375 
Q 47.125 51.421875 43.28125 58.90625 
Q 39.453125 66.40625 31.78125 66.40625 
z
M 31.78125 74.21875 
Q 44.046875 74.21875 50.515625 64.515625 
Q 56.984375 54.828125 56.984375 36.375 
Q 56.984375 17.96875 50.515625 8.265625 
Q 44.046875 -1.421875 31.78125 -1.421875 
Q 19.53125 -1.421875 13.0625 8.265625 
Q 6.59375 17.96875 6.59375 36.375 
Q 6.59375 54.828125 13.0625 64.515625 
Q 19.53125 74.21875 31.78125 74.21875 
z
" id="DejaVuSans-48"/>
       <path d="M 10.6875 12.40625 
L 21 12.40625 
L 21 0 
L 10.6875 0 
z
" id="DejaVuSans-46"/>
      </defs>
      <g transform="translate(318.996168 655.398438)scale(0.1 -0.1)">
       <use xlink:href="#DejaVuSans-49"/>
       <use x="63.623047" xlink:href="#DejaVuSans-48"/>
       <use x="127.246094" xlink:href="#DejaVuSans-48"/>
       <use x="190.869141" xlink:href="#DejaVuSans-46"/>
       <use x="222.65625" xlink:href="#DejaVuSans-48"/>
      </g>
     </g>
    </g>
    <g id="xtick_2">
     <g id="line2d_2">
      <g>
       <use style="stroke:#000000;stroke-width:0.8;" x="435.893189" xlink:href="#mba26611521" y="640.8"/>
      </g>
     </g>
     <g id="text_2">
      <!-- 200.0 -->
      <defs>
       <path d="M 19.1875 8.296875 
L 53.609375 8.296875 
L 53.609375 0 
L 7.328125 0 
L 7.328125 8.296875 
Q 12.9375 14.109375 22.625 23.890625 
Q 32.328125 33.6875 34.8125 36.53125 
Q 39.546875 41.84375 41.421875 45.53125 
Q 43.3125 49.21875 43.3125 52.78125 
Q 43.3125 58.59375 39.234375 62.25 
Q 35.15625 65.921875 28.609375 65.921875 
Q 23.96875 65.921875 18.8125 64.3125 
Q 13.671875 62.703125 7.8125 59.421875 
L 7.8125 69.390625 
Q 13.765625 71.78125 18.9375 73 
Q 24.125 74.21875 28.421875 74.21875 
Q 39.75 74.21875 46.484375 68.546875 
Q 53.21875 62.890625 53.21875 53.421875 
Q 53.21875 48.921875 51.53125 44.890625 
Q 49.859375 40.875 45.40625 35.40625 
Q 44.1875 33.984375 37.640625 27.21875 
Q 31.109375 20.453125 19.1875 8.296875 
z
" id="DejaVuSans-50"/>
      </defs>
      <g transform="translate(421.579126 655.398438)scale(0.1 -0.1)">
       <use xlink:href="#DejaVuSans-50"/>
       <use x="63.623047" xlink:href="#DejaVuSans-48"/>
       <use x="127.246094" xlink:href="#DejaVuSans-48"/>
       <use x="190.869141" xlink:href="#DejaVuSans-46"/>
       <use x="222.65625" xlink:href="#DejaVuSans-48"/>
      </g>
     </g>
    </g>
    <g id="xtick_3">
     <g id="line2d_3">
      <g>
       <use style="stroke:#000000;stroke-width:0.8;" x="538.476147" xlink:href="#mba26611521" y="640.8"/>
      </g>
     </g>
     <g id="text_3">
      <!-- 300.0 -->
      <defs>
       <path d="M 40.578125 39.3125 
Q 47.65625 37.796875 51.625 33 
Q 55.609375 28.21875 55.609375 21.1875 
Q 55.609375 10.40625 48.1875 4.484375 
Q 40.765625 -1.421875 27.09375 -1.421875 
Q 22.515625 -1.421875 17.65625 -0.515625 
Q 12.796875 0.390625 7.625 2.203125 
L 7.625 11.71875 
Q 11.71875 9.328125 16.59375 8.109375 
Q 21.484375 6.890625 26.8125 6.890625 
Q 36.078125 6.890625 40.9375 10.546875 
Q 45.796875 14.203125 45.796875 21.1875 
Q 45.796875 27.640625 41.28125 31.265625 
Q 36.765625 34.90625 28.71875 34.90625 
L 20.21875 34.90625 
L 20.21875 43.015625 
L 29.109375 43.015625 
Q 36.375 43.015625 40.234375 45.921875 
Q 44.09375 48.828125 44.09375 54.296875 
Q 44.09375 59.90625 40.109375 62.90625 
Q 36.140625 65.921875 28.71875 65.921875 
Q 24.65625 65.921875 20.015625 65.03125 
Q 15.375 64.15625 9.8125 62.3125 
L 9.8125 71.09375 
Q 15.4375 72.65625 20.34375 73.4375 
Q 25.25 74.21875 29.59375 74.21875 
Q 40.828125 74.21875 47.359375 69.109375 
Q 53.90625 64.015625 53.90625 55.328125 
Q 53.90625 49.265625 50.4375 45.09375 
Q 46.96875 40.921875 40.578125 39.3125 
z
" id="DejaVuSans-51"/>
      </defs>
      <g transform="translate(524.162084 655.398438)scale(0.1 -0.1)">
       <use xlink:href="#DejaVuSans-51"/>
       <use x="63.623047" xlink:href="#DejaVuSans-48"/>
       <use x="127.246094" xlink:href="#DejaVuSans-48"/>
       <use x="190.869141" xlink:href="#DejaVuSans-46"/>
       <use x="222.65625" xlink:href="#DejaVuSans-48"/>
      </g>
     </g>
    </g>
    <g id="xtick_4">
     <g id="line2d_4">
      <g>
       <use style="stroke:#000000;stroke-width:0.8;" x="641.059105" xlink:href="#mba26611521" y="640.8"/>
      </g>
     </g>
     <g id="text_4">
      <!-- 400.0 -->
      <defs>
       <path d="M 37.796875 64.3125 
L 12.890625 25.390625 
L 37.796875 25.390625 
z
M 35.203125 72.90625 
L 47.609375 72.90625 
L 47.609375 25.390625 
L 58.015625 25.390625 
L 58.015625 17.1875 
L 47.609375 17.1875 
L 47.609375 0 
L 37.796875 0 
L 37.796875 17.1875 
L 4.890625 17.1875 
L 4.890625 26.703125 
z
" id="DejaVuSans-52"/>
      </defs>
      <g transform="translate(626.745042 655.398438)scale(0.1 -0.1)">
       <use xlink:href="#DejaVuSans-52"/>
       <use x="63.623047" xlink:href="#DejaVuSans-48"/>
       <use x="127.246094" xlink:href="#DejaVuSans-48"/>
       <use x="190.869141" xlink:href="#DejaVuSans-46"/>
       <use x="222.65625" xlink:href="#DejaVuSans-48"/>
      </g>
     </g>
    </g>
    <g id="xtick_5">
     <g id="line2d_5">
      <g>
       <use style="stroke:#000000;stroke-width:0.8;" x="743.642063" xlink:href="#mba26611521" y="640.8"/>
      </g>
     </g>
     <g id="text_5">
      <!-- 500.0 -->
      <defs>
       <path d="M 10.796875 72.90625 
L 49.515625 72.90625 
L 49.515625 64.59375 
L 19.828125 64.59375 
L 19.828125 46.734375 
Q 21.96875 47.46875 24.109375 47.828125 
Q 26.265625 48.1875 28.421875 48.1875 
Q 40.625 48.1875 47.75 41.5 
Q 54.890625 34.8125 54.890625 23.390625 
Q 54.890625 11.625 47.5625 5.09375 
Q 40.234375 -1.421875 26.90625 -1.421875 
Q 22.3125 -1.421875 17.546875 -0.640625 
Q 12.796875 0.140625 7.71875 1.703125 
L 7.71875 11.625 
Q 12.109375 9.234375 16.796875 8.0625 
Q 21.484375 6.890625 26.703125 6.890625 
Q 35.15625 6.890625 40.078125 11.328125 
Q 45.015625 15.765625 45.015625 23.390625 
Q 45.015625 31 40.078125 35.4375 
Q 35.15625 39.890625 26.703125 39.890625 
Q 22.75 39.890625 18.8125 39.015625 
Q 14.890625 38.140625 10.796875 36.28125 
z
" id="DejaVuSans-53"/>
      </defs>
      <g transform="translate(729.328 655.398438)scale(0.1 -0.1)">
       <use xlink:href="#DejaVuSans-53"/>
       <use x="63.623047" xlink:href="#DejaVuSans-48"/>
       <use x="127.246094" xlink:href="#DejaVuSans-48"/>
       <use x="190.869141" xlink:href="#DejaVuSans-46"/>
       <use x="222.65625" xlink:href="#DejaVuSans-48"/>
      </g>
     </g>
    </g>
    <g id="xtick_6">
     <g id="line2d_6">
      <g>
       <use style="stroke:#000000;stroke-width:0.8;" x="846.225021" xlink:href="#mba26611521" y="640.8"/>
      </g>
     </g>
     <g id="text_6">
      <!-- 600.0 -->
      <defs>
       <path d="M 33.015625 40.375 
Q 26.375 40.375 22.484375 35.828125 
Q 18.609375 31.296875 18.609375 23.390625 
Q 18.609375 15.53125 22.484375 10.953125 
Q 26.375 6.390625 33.015625 6.390625 
Q 39.65625 6.390625 43.53125 10.953125 
Q 47.40625 15.53125 47.40625 23.390625 
Q 47.40625 31.296875 43.53125 35.828125 
Q 39.65625 40.375 33.015625 40.375 
z
M 52.59375 71.296875 
L 52.59375 62.3125 
Q 48.875 64.0625 45.09375 64.984375 
Q 41.3125 65.921875 37.59375 65.921875 
Q 27.828125 65.921875 22.671875 59.328125 
Q 17.53125 52.734375 16.796875 39.40625 
Q 19.671875 43.65625 24.015625 45.921875 
Q 28.375 48.1875 33.59375 48.1875 
Q 44.578125 48.1875 50.953125 41.515625 
Q 57.328125 34.859375 57.328125 23.390625 
Q 57.328125 12.15625 50.6875 5.359375 
Q 44.046875 -1.421875 33.015625 -1.421875 
Q 20.359375 -1.421875 13.671875 8.265625 
Q 6.984375 17.96875 6.984375 36.375 
Q 6.984375 53.65625 15.1875 63.9375 
Q 23.390625 74.21875 37.203125 74.21875 
Q 40.921875 74.21875 44.703125 73.484375 
Q 48.484375 72.75 52.59375 71.296875 
z
" id="DejaVuSans-54"/>
      </defs>
      <g transform="translate(831.910958 655.398438)scale(0.1 -0.1)">
       <use xlink:href="#DejaVuSans-54"/>
       <use x="63.623047" xlink:href="#DejaVuSans-48"/>
       <use x="127.246094" xlink:href="#DejaVuSans-48"/>
       <use x="190.869141" xlink:href="#DejaVuSans-46"/>
       <use x="222.65625" xlink:href="#DejaVuSans-48"/>
      </g>
     </g>
    </g>
    <g id="xtick_7">
     <g id="line2d_7">
      <g>
       <use style="stroke:#000000;stroke-width:0.8;" x="948.807979" xlink:href="#mba26611521" y="640.8"/>
      </g>
     </g>
     <g id="text_7">
      <!-- 700.0 -->
      <defs>
       <path d="M 8.203125 72.90625 
L 55.078125 72.90625 
L 55.078125 68.703125 
L 28.609375 0 
L 18.3125 0 
L 43.21875 64.59375 
L 8.203125 64.59375 
z
" id="DejaVuSans-55"/>
      </defs>
      <g transform="translate(934.493916 655.398438)scale(0.1 -0.1)">
       <use xlink:href="#DejaVuSans-55"/>
       <use x="63.623047" xlink:href="#DejaVuSans-48"/>
       <use x="127.246094" xlink:href="#DejaVuSans-48"/>
       <use x="190.869141" xlink:href="#DejaVuSans-46"/>
       <use x="222.65625" xlink:href="#DejaVuSans-48"/>
      </g>
     </g>
    </g>
    <g id="xtick_8">
     <g id="line2d_8">
      <g>
       <use style="stroke:#000000;stroke-width:0.8;" x="1051.390937" xlink:href="#mba26611521" y="640.8"/>
      </g>
     </g>
     <g id="text_8">
      <!-- 800.0 -->
      <defs>
       <path d="M 31.78125 34.625 
Q 24.75 34.625 20.71875 30.859375 
Q 16.703125 27.09375 16.703125 20.515625 
Q 16.703125 13.921875 20.71875 10.15625 
Q 24.75 6.390625 31.78125 6.390625 
Q 38.8125 6.390625 42.859375 10.171875 
Q 46.921875 13.96875 46.921875 20.515625 
Q 46.921875 27.09375 42.890625 30.859375 
Q 38.875 34.625 31.78125 34.625 
z
M 21.921875 38.8125 
Q 15.578125 40.375 12.03125 44.71875 
Q 8.5 49.078125 8.5 55.328125 
Q 8.5 64.0625 14.71875 69.140625 
Q 20.953125 74.21875 31.78125 74.21875 
Q 42.671875 74.21875 48.875 69.140625 
Q 55.078125 64.0625 55.078125 55.328125 
Q 55.078125 49.078125 51.53125 44.71875 
Q 48 40.375 41.703125 38.8125 
Q 48.828125 37.15625 52.796875 32.3125 
Q 56.78125 27.484375 56.78125 20.515625 
Q 56.78125 9.90625 50.3125 4.234375 
Q 43.84375 -1.421875 31.78125 -1.421875 
Q 19.734375 -1.421875 13.25 4.234375 
Q 6.78125 9.90625 6.78125 20.515625 
Q 6.78125 27.484375 10.78125 32.3125 
Q 14.796875 37.15625 21.921875 38.8125 
z
M 18.3125 54.390625 
Q 18.3125 48.734375 21.84375 45.5625 
Q 25.390625 42.390625 31.78125 42.390625 
Q 38.140625 42.390625 41.71875 45.5625 
Q 45.3125 48.734375 45.3125 54.390625 
Q 45.3125 60.0625 41.71875 63.234375 
Q 38.140625 66.40625 31.78125 66.40625 
Q 25.390625 66.40625 21.84375 63.234375 
Q 18.3125 60.0625 18.3125 54.390625 
z
" id="DejaVuSans-56"/>
      </defs>
      <g transform="translate(1037.076874 655.398438)scale(0.1 -0.1)">
       <use xlink:href="#DejaVuSans-56"/>
       <use x="63.623047" xlink:href="#DejaVuSans-48"/>
       <use x="127.246094" xlink:href="#DejaVuSans-48"/>
       <use x="190.869141" xlink:href="#DejaVuSans-46"/>
       <use x="222.65625" xlink:href="#DejaVuSans-48"/>
      </g>
     </g>
    </g>
    <g id="xtick_9">
     <g id="line2d_9">
      <g>
       <use style="stroke:#000000;stroke-width:0.8;" x="1153.973895" xlink:href="#mba26611521" y="640.8"/>
      </g>
     </g>
     <g id="text_9">
      <!-- 900.0 -->
      <defs>
       <path d="M 10.984375 1.515625 
L 10.984375 10.5 
Q 14.703125 8.734375 18.5 7.8125 
Q 22.3125 6.890625 25.984375 6.890625 
Q 35.75 6.890625 40.890625 13.453125 
Q 46.046875 20.015625 46.78125 33.40625 
Q 43.953125 29.203125 39.59375 26.953125 
Q 35.25 24.703125 29.984375 24.703125 
Q 19.046875 24.703125 12.671875 31.3125 
Q 6.296875 37.9375 6.296875 49.421875 
Q 6.296875 60.640625 12.9375 67.421875 
Q 19.578125 74.21875 30.609375 74.21875 
Q 43.265625 74.21875 49.921875 64.515625 
Q 56.59375 54.828125 56.59375 36.375 
Q 56.59375 19.140625 48.40625 8.859375 
Q 40.234375 -1.421875 26.421875 -1.421875 
Q 22.703125 -1.421875 18.890625 -0.6875 
Q 15.09375 0.046875 10.984375 1.515625 
z
M 30.609375 32.421875 
Q 37.25 32.421875 41.125 36.953125 
Q 45.015625 41.5 45.015625 49.421875 
Q 45.015625 57.28125 41.125 61.84375 
Q 37.25 66.40625 30.609375 66.40625 
Q 23.96875 66.40625 20.09375 61.84375 
Q 16.21875 57.28125 16.21875 49.421875 
Q 16.21875 41.5 20.09375 36.953125 
Q 23.96875 32.421875 30.609375 32.421875 
z
" id="DejaVuSans-57"/>
      </defs>
      <g transform="translate(1139.659832 655.398438)scale(0.1 -0.1)">
       <use xlink:href="#DejaVuSans-57"/>
       <use x="63.623047" xlink:href="#DejaVuSans-48"/>
       <use x="127.246094" xlink:href="#DejaVuSans-48"/>
       <use x="190.869141" xlink:href="#DejaVuSans-46"/>
       <use x="222.65625" xlink:href="#DejaVuSans-48"/>
      </g>
     </g>
    </g>
    <g id="xtick_10">
     <g id="line2d_10">
      <g>
       <use style="stroke:#000000;stroke-width:0.8;" x="1256.556853" xlink:href="#mba26611521" y="640.8"/>
      </g>
     </g>
     <g id="text_10">
      <!-- 1000.0 -->
      <g transform="translate(1239.06154 655.398438)scale(0.1 -0.1)">
       <use xlink:href="#DejaVuSans-49"/>
       <use x="63.623047" xlink:href="#DejaVuSans-48"/>
       <use x="127.246094" xlink:href="#DejaVuSans-48"/>
       <use x="190.869141" xlink:href="#DejaVuSans-48"/>
       <use x="254.492188" xlink:href="#DejaVuSans-46"/>
       <use x="286.279297" xlink:href="#DejaVuSans-48"/>
      </g>
     </g>
    </g>
    <g id="text_11">
     <!-- n -->
     <defs>
      <path d="M 54.890625 33.015625 
L 54.890625 0 
L 45.90625 0 
L 45.90625 32.71875 
Q 45.90625 40.484375 42.875 44.328125 
Q 39.84375 48.1875 33.796875 48.1875 
Q 26.515625 48.1875 22.3125 43.546875 
Q 18.109375 38.921875 18.109375 30.90625 
L 18.109375 0 
L 9.078125 0 
L 9.078125 54.6875 
L 18.109375 54.6875 
L 18.109375 46.1875 
Q 21.34375 51.125 25.703125 53.5625 
Q 30.078125 56 35.796875 56 
Q 45.21875 56 50.046875 50.171875 
Q 54.890625 44.34375 54.890625 33.015625 
z
" id="DejaVuSans-110"/>
     </defs>
     <g transform="translate(734.83125 669.076563)scale(0.1 -0.1)">
      <use xlink:href="#DejaVuSans-110"/>
     </g>
    </g>
   </g>
   <g id="matplotlib.axis_2">
    <g id="ytick_1">
     <g id="line2d_11">
      <defs>
       <path d="M 0 0 
L -3.5 0 
" id="m2e4ce28ca0" style="stroke:#000000;stroke-width:0.8;"/>
      </defs>
      <g>
       <use style="stroke:#000000;stroke-width:0.8;" x="180" xlink:href="#m2e4ce28ca0" y="573.929479"/>
      </g>
     </g>
     <g id="text_12">
      <!-- 50 -->
      <g transform="translate(160.275 577.728698)scale(0.1 -0.1)">
       <use xlink:href="#DejaVuSans-53"/>
       <use x="63.623047" xlink:href="#DejaVuSans-48"/>
      </g>
     </g>
    </g>
    <g id="ytick_2">
     <g id="line2d_12">
      <g>
       <use style="stroke:#000000;stroke-width:0.8;" x="180" xlink:href="#m2e4ce28ca0" y="479.064391"/>
      </g>
     </g>
     <g id="text_13">
      <!-- 100 -->
      <g transform="translate(153.9125 482.86361)scale(0.1 -0.1)">
       <use xlink:href="#DejaVuSans-49"/>
       <use x="63.623047" xlink:href="#DejaVuSans-48"/>
       <use x="127.246094" xlink:href="#DejaVuSans-48"/>
      </g>
     </g>
    </g>
    <g id="ytick_3">
     <g id="line2d_13">
      <g>
       <use style="stroke:#000000;stroke-width:0.8;" x="180" xlink:href="#m2e4ce28ca0" y="384.199304"/>
      </g>
     </g>
     <g id="text_14">
      <!-- 150 -->
      <g transform="translate(153.9125 387.998523)scale(0.1 -0.1)">
       <use xlink:href="#DejaVuSans-49"/>
       <use x="63.623047" xlink:href="#DejaVuSans-53"/>
       <use x="127.246094" xlink:href="#DejaVuSans-48"/>
      </g>
     </g>
    </g>
    <g id="ytick_4">
     <g id="line2d_14">
      <g>
       <use style="stroke:#000000;stroke-width:0.8;" x="180" xlink:href="#m2e4ce28ca0" y="289.334216"/>
      </g>
     </g>
     <g id="text_15">
      <!-- 200 -->
      <g transform="translate(153.9125 293.133435)scale(0.1 -0.1)">
       <use xlink:href="#DejaVuSans-50"/>
       <use x="63.623047" xlink:href="#DejaVuSans-48"/>
       <use x="127.246094" xlink:href="#DejaVuSans-48"/>
      </g>
     </g>
    </g>
    <g id="ytick_5">
     <g id="line2d_15">
      <g>
       <use style="stroke:#000000;stroke-width:0.8;" x="180" xlink:href="#m2e4ce28ca0" y="194.469128"/>
      </g>
     </g>
     <g id="text_16">
      <!-- 250 -->
      <g transform="translate(153.9125 198.268347)scale(0.1 -0.1)">
       <use xlink:href="#DejaVuSans-50"/>
       <use x="63.623047" xlink:href="#DejaVuSans-53"/>
       <use x="127.246094" xlink:href="#DejaVuSans-48"/>
      </g>
     </g>
    </g>
    <g id="ytick_6">
     <g id="line2d_16">
      <g>
       <use style="stroke:#000000;stroke-width:0.8;" x="180" xlink:href="#m2e4ce28ca0" y="99.604041"/>
      </g>
     </g>
     <g id="text_17">
      <!-- 300 -->
      <g transform="translate(153.9125 103.403259)scale(0.1 -0.1)">
       <use xlink:href="#DejaVuSans-51"/>
       <use x="63.623047" xlink:href="#DejaVuSans-48"/>
       <use x="127.246094" xlink:href="#DejaVuSans-48"/>
      </g>
     </g>
    </g>
    <g id="text_18">
     <!-- speedup -->
     <defs>
      <path d="M 44.28125 53.078125 
L 44.28125 44.578125 
Q 40.484375 46.53125 36.375 47.5 
Q 32.28125 48.484375 27.875 48.484375 
Q 21.1875 48.484375 17.84375 46.4375 
Q 14.5 44.390625 14.5 40.28125 
Q 14.5 37.15625 16.890625 35.375 
Q 19.28125 33.59375 26.515625 31.984375 
L 29.59375 31.296875 
Q 39.15625 29.25 43.1875 25.515625 
Q 47.21875 21.78125 47.21875 15.09375 
Q 47.21875 7.46875 41.1875 3.015625 
Q 35.15625 -1.421875 24.609375 -1.421875 
Q 20.21875 -1.421875 15.453125 -0.5625 
Q 10.6875 0.296875 5.421875 2 
L 5.421875 11.28125 
Q 10.40625 8.6875 15.234375 7.390625 
Q 20.0625 6.109375 24.8125 6.109375 
Q 31.15625 6.109375 34.5625 8.28125 
Q 37.984375 10.453125 37.984375 14.40625 
Q 37.984375 18.0625 35.515625 20.015625 
Q 33.0625 21.96875 24.703125 23.78125 
L 21.578125 24.515625 
Q 13.234375 26.265625 9.515625 29.90625 
Q 5.8125 33.546875 5.8125 39.890625 
Q 5.8125 47.609375 11.28125 51.796875 
Q 16.75 56 26.8125 56 
Q 31.78125 56 36.171875 55.265625 
Q 40.578125 54.546875 44.28125 53.078125 
z
" id="DejaVuSans-115"/>
      <path d="M 18.109375 8.203125 
L 18.109375 -20.796875 
L 9.078125 -20.796875 
L 9.078125 54.6875 
L 18.109375 54.6875 
L 18.109375 46.390625 
Q 20.953125 51.265625 25.265625 53.625 
Q 29.59375 56 35.59375 56 
Q 45.5625 56 51.78125 48.09375 
Q 58.015625 40.1875 58.015625 27.296875 
Q 58.015625 14.40625 51.78125 6.484375 
Q 45.5625 -1.421875 35.59375 -1.421875 
Q 29.59375 -1.421875 25.265625 0.953125 
Q 20.953125 3.328125 18.109375 8.203125 
z
M 48.6875 27.296875 
Q 48.6875 37.203125 44.609375 42.84375 
Q 40.53125 48.484375 33.40625 48.484375 
Q 26.265625 48.484375 22.1875 42.84375 
Q 18.109375 37.203125 18.109375 27.296875 
Q 18.109375 17.390625 22.1875 11.75 
Q 26.265625 6.109375 33.40625 6.109375 
Q 40.53125 6.109375 44.609375 11.75 
Q 48.6875 17.390625 48.6875 27.296875 
z
" id="DejaVuSans-112"/>
      <path d="M 56.203125 29.59375 
L 56.203125 25.203125 
L 14.890625 25.203125 
Q 15.484375 15.921875 20.484375 11.0625 
Q 25.484375 6.203125 34.421875 6.203125 
Q 39.59375 6.203125 44.453125 7.46875 
Q 49.3125 8.734375 54.109375 11.28125 
L 54.109375 2.78125 
Q 49.265625 0.734375 44.1875 -0.34375 
Q 39.109375 -1.421875 33.890625 -1.421875 
Q 20.796875 -1.421875 13.15625 6.1875 
Q 5.515625 13.8125 5.515625 26.8125 
Q 5.515625 40.234375 12.765625 48.109375 
Q 20.015625 56 32.328125 56 
Q 43.359375 56 49.78125 48.890625 
Q 56.203125 41.796875 56.203125 29.59375 
z
M 47.21875 32.234375 
Q 47.125 39.59375 43.09375 43.984375 
Q 39.0625 48.390625 32.421875 48.390625 
Q 24.90625 48.390625 20.390625 44.140625 
Q 15.875 39.890625 15.1875 32.171875 
z
" id="DejaVuSans-101"/>
      <path d="M 45.40625 46.390625 
L 45.40625 75.984375 
L 54.390625 75.984375 
L 54.390625 0 
L 45.40625 0 
L 45.40625 8.203125 
Q 42.578125 3.328125 38.25 0.953125 
Q 33.9375 -1.421875 27.875 -1.421875 
Q 17.96875 -1.421875 11.734375 6.484375 
Q 5.515625 14.40625 5.515625 27.296875 
Q 5.515625 40.1875 11.734375 48.09375 
Q 17.96875 56 27.875 56 
Q 33.9375 56 38.25 53.625 
Q 42.578125 51.265625 45.40625 46.390625 
z
M 14.796875 27.296875 
Q 14.796875 17.390625 18.875 11.75 
Q 22.953125 6.109375 30.078125 6.109375 
Q 37.203125 6.109375 41.296875 11.75 
Q 45.40625 17.390625 45.40625 27.296875 
Q 45.40625 37.203125 41.296875 42.84375 
Q 37.203125 48.484375 30.078125 48.484375 
Q 22.953125 48.484375 18.875 42.84375 
Q 14.796875 37.203125 14.796875 27.296875 
z
" id="DejaVuSans-100"/>
      <path d="M 8.5 21.578125 
L 8.5 54.6875 
L 17.484375 54.6875 
L 17.484375 21.921875 
Q 17.484375 14.15625 20.5 10.265625 
Q 23.53125 6.390625 29.59375 6.390625 
Q 36.859375 6.390625 41.078125 11.03125 
Q 45.3125 15.671875 45.3125 23.6875 
L 45.3125 54.6875 
L 54.296875 54.6875 
L 54.296875 0 
L 45.3125 0 
L 45.3125 8.40625 
Q 42.046875 3.421875 37.71875 1 
Q 33.40625 -1.421875 27.6875 -1.421875 
Q 18.265625 -1.421875 13.375 4.4375 
Q 8.5 10.296875 8.5 21.578125 
z
M 31.109375 56 
z
" id="DejaVuSans-117"/>
     </defs>
     <g transform="translate(147.832812 385.049219)rotate(-90)scale(0.1 -0.1)">
      <use xlink:href="#DejaVuSans-115"/>
      <use x="52.099609" xlink:href="#DejaVuSans-112"/>
      <use x="115.576172" xlink:href="#DejaVuSans-101"/>
      <use x="177.099609" xlink:href="#DejaVuSans-101"/>
      <use x="238.623047" xlink:href="#DejaVuSans-100"/>
      <use x="302.099609" xlink:href="#DejaVuSans-117"/>
      <use x="365.478516" xlink:href="#DejaVuSans-112"/>
     </g>
    </g>
   </g>
   <g id="line2d_17">
    <path clip-path="url(#p4c2155b6a9)" d="M 230.727273 229.999414 
L 231.753102 353.061116 
L 232.778932 111.6 
L 233.804761 170.216602 
L 234.830591 198.33891 
L 235.856421 186.643233 
L 236.88225 221.412779 
L 237.90808 187.780342 
L 238.933909 417.41949 
L 239.959739 218.810718 
L 240.985569 222.328693 
L 242.011398 226.501896 
L 243.037228 239.101669 
L 244.063057 238.138064 
L 245.088887 233.278314 
L 246.114716 219.733221 
L 247.140546 252.66821 
L 248.166376 259.91804 
L 249.192205 253.528556 
L 250.218035 265.530524 
L 251.243864 268.770328 
L 252.269694 253.121478 
L 253.295523 233.787088 
L 254.321353 274.121859 
L 255.347183 309.362556 
L 256.373012 307.473343 
L 257.398842 546.755782 
L 258.424671 316.744926 
L 259.450501 306.36826 
L 260.476331 313.868981 
L 261.50216 316.351479 
L 262.52799 321.185733 
L 263.553819 335.382736 
L 264.579649 249.227439 
L 265.605478 336.427866 
L 266.631308 336.824616 
L 267.657138 266.704685 
L 268.682967 343.272468 
L 269.708797 390.020523 
L 270.734626 341.567784 
L 271.760456 366.644155 
L 272.786286 352.666968 
L 273.812115 360.246254 
L 274.837945 360.673035 
L 276.889604 310.780468 
L 277.915433 385.034872 
L 278.941263 296.783172 
L 279.967093 381.520565 
L 280.992922 393.968625 
L 282.018752 291.399433 
L 283.044581 323.704246 
L 284.070411 403.92185 
L 285.09624 343.959785 
L 286.12207 348.147603 
L 287.1479 408.177557 
L 288.173729 385.740849 
L 289.199559 414.024561 
L 290.225388 407.753533 
L 291.251218 388.528805 
L 292.277048 418.730536 
L 293.302877 419.106187 
L 294.328707 428.978769 
L 295.354536 389.043155 
L 296.380366 330.723646 
L 297.406195 346.627435 
L 298.432025 369.251745 
L 299.457855 404.828557 
L 300.483684 358.96586 
L 301.509514 523.773915 
L 302.535343 355.922639 
L 303.561173 376.135049 
L 304.587002 321.307068 
L 305.612832 383.696424 
L 306.638662 323.496983 
L 307.664491 448.011393 
L 308.690321 451.938939 
L 309.71615 422.81998 
L 310.74198 413.954171 
L 311.76781 380.016372 
L 312.793639 350.48316 
L 313.819469 398.228427 
L 314.845298 339.299349 
L 316.896957 437.312423 
L 317.922787 379.37646 
L 318.948617 333.857283 
L 319.974446 432.572315 
L 321.000276 392.189426 
L 322.026105 393.752822 
L 323.051935 433.053064 
L 324.077765 439.50421 
L 325.103594 442.591583 
L 326.129424 415.071751 
L 327.155253 364.503814 
L 328.181083 391.517956 
L 329.206912 452.124566 
L 330.232742 436.964296 
L 331.258572 414.528268 
L 332.284401 440.292894 
L 333.310231 430.098868 
L 334.33606 412.685118 
L 335.36189 432.301973 
L 336.387719 419.680301 
L 337.413549 368.481356 
L 338.439379 431.954975 
L 339.465208 483.028447 
L 340.491038 448.875892 
L 341.516867 408.875001 
L 342.542697 451.201117 
L 343.568527 440.458289 
L 344.594356 451.142876 
L 345.620186 454.35669 
L 346.646015 442.286314 
L 347.671845 437.207227 
L 348.697674 440.604032 
L 349.723504 430.462484 
L 350.749334 433.850152 
L 351.775163 434.174517 
L 352.800993 414.99163 
L 353.826822 456.932708 
L 354.852652 456.459282 
L 355.878481 507.929293 
L 356.904311 451.418615 
L 357.930141 423.504169 
L 358.95597 445.405884 
L 359.9818 438.148491 
L 361.007629 456.604051 
L 363.059289 419.964492 
L 364.085118 441.40014 
L 365.110948 458.529984 
L 366.136777 396.228687 
L 367.162607 465.591143 
L 368.188436 452.050387 
L 369.214266 428.742871 
L 370.240096 428.380663 
L 371.265925 408.734896 
L 372.291755 404.241606 
L 373.317584 424.829589 
L 374.343414 422.349184 
L 375.369243 563.447955 
L 376.395073 463.29929 
L 377.420903 463.752379 
L 378.446732 413.283095 
L 379.472562 435.651726 
L 380.498391 466.067674 
L 381.524221 456.78532 
L 382.550051 461.462896 
L 383.57588 470.680413 
L 384.60171 419.985963 
L 385.627539 429.15984 
L 386.653369 470.97255 
L 387.679198 467.512395 
L 388.705028 469.849648 
L 389.730858 427.732237 
L 390.756687 466.548716 
L 391.782517 445.71042 
L 392.808346 473.967923 
L 393.834176 479.655382 
L 394.860006 468.387238 
L 395.885835 465.85869 
L 396.911665 470.26704 
L 397.937494 465.100624 
L 398.963324 519.753179 
L 399.989153 427.543186 
L 401.014983 440.029797 
L 402.040813 471.543615 
L 403.066642 470.231964 
L 404.092472 460.737706 
L 405.118301 417.492552 
L 406.144131 456.059696 
L 407.16996 477.467658 
L 408.19579 471.59699 
L 409.22162 466.466351 
L 410.247449 416.839759 
L 411.273279 474.899591 
L 413.324938 480.874626 
L 414.350768 471.411474 
L 415.376597 485.728003 
L 416.402427 476.590397 
L 417.428256 421.778879 
L 418.454086 417.375511 
L 419.479915 449.426841 
L 420.505745 457.58116 
L 421.531575 446.971298 
L 422.557404 453.056974 
L 423.583234 462.410029 
L 424.609063 502.236927 
L 425.634893 471.901552 
L 426.660722 481.517049 
L 427.686552 483.675451 
L 428.712382 487.860176 
L 429.738211 469.181907 
L 430.764041 471.278841 
L 431.78987 449.393408 
L 432.8157 468.699211 
L 433.84153 447.264559 
L 435.893189 489.151957 
L 436.919018 573.416314 
L 437.944848 470.594214 
L 438.970677 486.912805 
L 439.996507 482.250322 
L 441.022337 488.448944 
L 442.048166 480.84171 
L 443.073996 449.045548 
L 444.099825 489.654969 
L 445.125655 480.665085 
L 446.151485 481.429089 
L 447.177314 490.939361 
L 448.203144 472.751376 
L 449.228973 463.404002 
L 450.254803 475.432765 
L 451.280632 501.197549 
L 452.306462 487.683226 
L 453.332292 495.866349 
L 454.358121 487.159631 
L 455.383951 491.65781 
L 456.40978 481.244103 
L 457.43561 494.590518 
L 458.461439 495.079562 
L 459.487269 491.875958 
L 460.513099 469.873106 
L 461.538928 484.133025 
L 462.564758 501.480802 
L 463.590587 462.657526 
L 464.616417 489.834967 
L 465.642247 494.981964 
L 466.668076 490.711531 
L 467.693906 493.700046 
L 468.719735 490.830209 
L 469.745565 471.367902 
L 470.771394 469.02476 
L 471.797224 488.454138 
L 472.823054 449.843508 
L 473.848883 472.919542 
L 474.874713 452.760537 
L 476.926372 520.20235 
L 477.952201 494.339163 
L 478.978031 498.574584 
L 480.003861 493.131017 
L 481.02969 498.352937 
L 482.05552 498.635361 
L 483.081349 501.870134 
L 484.107179 466.754529 
L 485.133009 454.244943 
L 487.184668 482.058222 
L 488.210497 502.751143 
L 489.236327 495.821208 
L 490.262156 494.397621 
L 491.287986 500.508887 
L 492.313816 517.086373 
L 493.339645 500.651893 
L 494.365475 498.278845 
L 495.391304 487.916105 
L 496.417134 503.631859 
L 497.442964 504.328462 
L 498.468793 500.904817 
L 499.494623 504.147437 
L 500.520452 508.632817 
L 501.546282 502.277435 
L 502.572111 504.74909 
L 503.597941 497.796996 
L 504.623771 506.043331 
L 505.6496 485.32913 
L 506.67543 492.47139 
L 507.701259 491.734069 
L 508.727089 506.425046 
L 509.752918 477.709724 
L 510.778748 509.917723 
L 511.804578 496.456649 
L 512.830407 486.598603 
L 513.856237 511.243466 
L 514.882066 507.371126 
L 515.907896 510.28034 
L 516.933726 508.662214 
L 517.959555 518.73325 
L 518.985385 503.992242 
L 520.011214 503.180315 
L 521.037044 498.690588 
L 522.062873 496.874153 
L 523.088703 497.171148 
L 524.114533 504.270692 
L 526.166192 507.953976 
L 527.192021 515.558582 
L 528.217851 507.781854 
L 529.24368 497.599061 
L 530.26951 512.642307 
L 531.29534 508.59988 
L 532.321169 515.589294 
L 533.346999 514.532667 
L 534.372828 538.941448 
L 535.398658 514.276614 
L 536.424488 513.106304 
L 537.450317 505.959995 
L 538.476147 507.67258 
L 539.501976 512.866149 
L 540.527806 498.329363 
L 541.553635 514.93258 
L 542.579465 511.04774 
L 543.605295 489.931523 
L 544.631124 512.909316 
L 545.656954 505.323571 
L 546.682783 501.71894 
L 547.708613 511.575038 
L 548.734443 511.006256 
L 549.760272 513.062059 
L 550.786102 519.637311 
L 551.811931 516.449833 
L 552.837761 486.187632 
L 553.86359 513.364332 
L 554.88942 488.163967 
L 555.91525 518.804779 
L 556.941079 514.184605 
L 557.966909 522.633112 
L 558.992738 511.467187 
L 560.018568 490.215723 
L 561.044397 496.314426 
L 562.070227 518.589011 
L 563.096057 521.437355 
L 564.121886 516.966205 
L 565.147716 517.768728 
L 566.173545 519.124802 
L 567.199375 512.180094 
L 568.225205 521.582523 
L 569.251034 510.905226 
L 570.276864 514.661711 
L 571.302693 521.168787 
L 572.328523 522.323 
L 573.354352 521.869172 
L 574.380182 493.329643 
L 575.406012 523.144286 
L 576.431841 527.563309 
L 577.457671 524.627994 
L 578.4835 520.750583 
L 579.50933 502.625408 
L 580.535159 515.55404 
L 581.560989 522.929692 
L 582.586819 513.382598 
L 583.612648 526.450285 
L 584.638478 524.066466 
L 585.664307 524.653889 
L 586.690137 509.651951 
L 587.715967 520.555123 
L 588.741796 524.927211 
L 589.767626 522.738777 
L 590.793455 521.702236 
L 591.819285 519.618525 
L 592.845114 515.9377 
L 593.870944 526.594494 
L 594.896774 527.656933 
L 595.922603 526.000326 
L 596.948433 516.013553 
L 597.974262 518.687185 
L 599.000092 525.105673 
L 600.025922 527.779159 
L 601.051751 502.176353 
L 602.077581 528.047216 
L 603.10341 512.800802 
L 604.12924 533.458272 
L 605.155069 518.37378 
L 606.180899 521.187002 
L 607.206729 536.82836 
L 608.232558 512.494325 
L 609.258388 527.809676 
L 610.284217 537.454379 
L 611.310047 502.716478 
L 612.335876 515.208281 
L 613.361706 539.382574 
L 614.387536 538.211831 
L 615.413365 536.379859 
L 616.439195 534.842296 
L 617.465024 534.820281 
L 618.490854 528.248915 
L 619.516684 525.409487 
L 620.542513 513.1646 
L 621.568343 521.987338 
L 622.594172 523.534019 
L 623.620002 527.257253 
L 624.645831 518.827563 
L 625.671661 524.436642 
L 626.697491 519.94754 
L 627.72332 526.208455 
L 628.74915 524.208912 
L 629.774979 516.442419 
L 630.800809 523.89011 
L 631.826638 528.607046 
L 632.852468 529.319157 
L 633.878298 517.435357 
L 634.904127 522.418722 
L 635.929957 528.737422 
L 636.955786 525.741951 
L 637.981616 528.608113 
L 639.007446 525.974824 
L 640.033275 528.758426 
L 641.059105 528.231822 
L 642.084934 528.691303 
L 643.110764 528.691483 
L 644.136593 529.811492 
L 645.162423 525.2506 
L 646.188253 527.926344 
L 647.214082 522.865348 
L 648.239912 539.497226 
L 649.265741 545.658175 
L 650.291571 541.872104 
L 651.3174 541.105833 
L 652.34323 540.855533 
L 653.36906 544.25931 
L 654.394889 545.604063 
L 655.420719 542.208548 
L 656.446548 540.337027 
L 657.472378 544.908582 
L 658.498208 535.212412 
L 659.524037 535.321281 
L 660.549867 534.809594 
L 661.575696 544.243252 
L 662.601526 542.638761 
L 663.627355 539.557382 
L 664.653185 530.850501 
L 665.679015 525.583136 
L 666.704844 526.253612 
L 667.730674 529.158083 
L 668.756503 560.088001 
L 669.782333 534.254177 
L 670.808163 531.394214 
L 671.833992 531.366422 
L 672.859822 533.358899 
L 673.885651 532.937329 
L 674.911481 533.931326 
L 675.93731 525.865066 
L 676.96314 529.664122 
L 677.98897 483.634225 
L 679.014799 549.45559 
L 680.040629 531.002687 
L 681.066458 527.977008 
L 682.092288 542.47276 
L 683.118117 542.712574 
L 684.143947 540.216539 
L 685.169777 528.04278 
L 686.195606 526.910063 
L 687.221436 529.028475 
L 688.247265 552.000185 
L 689.273095 535.995383 
L 690.298925 582.694902 
L 691.324754 531.36171 
L 692.350584 551.816263 
L 693.376413 535.969695 
L 694.402243 547.399025 
L 695.428072 541.664008 
L 696.453902 548.407625 
L 697.479732 537.016543 
L 698.505561 545.788698 
L 699.531391 526.150508 
L 700.55722 531.869467 
L 701.58305 529.836304 
L 702.608879 566.937213 
L 703.634709 530.432022 
L 704.660539 562.367765 
L 705.686368 528.849116 
L 706.712198 528.183249 
L 707.738027 532.501951 
L 708.763857 528.630375 
L 709.789687 544.202817 
L 710.815516 531.05603 
L 711.841346 540.228772 
L 712.867175 535.485024 
L 713.893005 542.704115 
L 714.918834 537.176467 
L 715.944664 528.498552 
L 716.970494 534.483191 
L 717.996323 532.850984 
L 719.022153 536.084779 
L 720.047982 537.757489 
L 721.073812 537.620954 
L 722.099642 535.57278 
L 723.125471 532.413566 
L 724.151301 539.818 
L 725.17713 538.116062 
L 726.20296 535.60173 
L 727.228789 548.451958 
L 728.254619 547.062145 
L 729.280449 534.210842 
L 730.306278 559.773743 
L 731.332108 539.749558 
L 732.357937 539.314792 
L 733.383767 539.934763 
L 734.409596 537.620337 
L 735.435426 543.384212 
L 736.461256 538.389326 
L 737.487085 534.216459 
L 738.512915 542.906707 
L 739.538744 545.94862 
L 740.564574 564.879463 
L 741.590404 552.415289 
L 742.616233 534.052444 
L 743.642063 544.662858 
L 744.667892 546.131416 
L 745.693722 545.062935 
L 746.719551 549.172154 
L 747.745381 540.167688 
L 748.771211 550.495271 
L 749.79704 545.16205 
L 750.82287 551.434018 
L 751.848699 542.507075 
L 752.874529 542.188632 
L 753.900358 540.683921 
L 754.926188 542.877123 
L 755.952018 543.468309 
L 756.977847 554.255481 
L 758.003677 533.283791 
L 759.029506 545.879611 
L 760.055336 554.662203 
L 761.081166 540.669215 
L 762.106995 551.861468 
L 763.132825 554.432389 
L 764.158654 553.013832 
L 765.184484 556.059997 
L 766.210313 543.712525 
L 767.236143 544.553905 
L 768.261973 556.656492 
L 769.287802 553.758006 
L 770.313632 554.688274 
L 771.339461 538.570016 
L 772.365291 547.615255 
L 773.391121 544.350773 
L 774.41695 538.987625 
L 775.44278 549.547021 
L 776.468609 554.998601 
L 777.494439 550.142928 
L 778.520268 546.499773 
L 779.546098 555.444153 
L 780.571928 541.401256 
L 781.597757 574.401589 
L 782.623587 552.099776 
L 783.649416 548.077926 
L 784.675246 555.810015 
L 785.701075 583.932547 
L 786.726905 546.869161 
L 787.752735 542.572668 
L 788.778564 550.224077 
L 789.804394 580.449641 
L 790.830223 551.544396 
L 791.856053 544.28186 
L 792.881883 546.373218 
L 793.907712 546.058917 
L 794.933542 544.115061 
L 795.959371 548.95394 
L 796.985201 557.657872 
L 799.03686 545.106394 
L 800.06269 547.278525 
L 801.088519 557.235017 
L 802.114349 548.877312 
L 803.140178 554.840634 
L 804.166008 555.258354 
L 805.191837 547.580453 
L 806.217667 550.328706 
L 807.243497 542.356375 
L 808.269326 557.861041 
L 809.295156 547.474291 
L 810.320985 579.171302 
L 811.346815 545.601907 
L 812.372645 545.183716 
L 813.398474 550.649171 
L 814.424304 561.947588 
L 815.450133 548.702143 
L 816.475963 547.63087 
L 817.501792 552.499189 
L 818.527622 559.133334 
L 819.553452 548.057435 
L 820.579281 562.229381 
L 821.605111 550.482496 
L 822.63094 561.156766 
L 823.65677 552.245176 
L 824.6826 547.035201 
L 825.708429 561.243178 
L 826.734259 551.100354 
L 827.760088 551.19026 
L 828.785918 550.037465 
L 829.811747 554.478776 
L 830.837577 553.635769 
L 831.863407 547.292371 
L 832.889236 561.875134 
L 833.915066 563.998069 
L 834.940895 552.701448 
L 835.966725 556.478946 
L 836.992554 557.139392 
L 838.018384 551.798197 
L 839.044214 552.559144 
L 840.070043 548.172787 
L 841.095873 551.847409 
L 842.121702 562.352727 
L 843.147532 558.03294 
L 844.173362 559.969411 
L 845.199191 553.238166 
L 846.225021 555.83664 
L 847.25085 553.854646 
L 848.27668 548.62692 
L 849.302509 550.651853 
L 850.328339 550.87163 
L 851.354169 552.340685 
L 852.379998 548.481293 
L 853.405828 552.552537 
L 854.431657 544.33554 
L 855.457487 511.748448 
L 856.483316 549.56211 
L 857.509146 575.40534 
L 858.534976 571.432029 
L 859.560805 550.875614 
L 860.586635 558.571086 
L 861.612464 553.340687 
L 862.638294 551.208737 
L 863.664124 553.96857 
L 864.689953 560.649163 
L 865.715783 549.028078 
L 866.741612 553.346535 
L 867.767442 545.12347 
L 868.793271 534.539711 
L 869.819101 553.342182 
L 870.844931 558.823465 
L 871.87076 555.618894 
L 872.89659 556.814588 
L 873.922419 559.323571 
L 874.948249 559.333592 
L 875.974078 595.341051 
L 876.999908 586.753455 
L 878.025738 560.074227 
L 879.051567 560.254881 
L 880.077397 555.55704 
L 881.103226 555.77554 
L 882.129056 562.215015 
L 883.154886 564.159734 
L 884.180715 558.201428 
L 885.206545 555.043097 
L 886.232374 550.205174 
L 887.258204 564.893234 
L 888.284033 554.718535 
L 889.309863 558.091985 
L 890.335693 559.208439 
L 891.361522 567.862585 
L 892.387352 561.664636 
L 893.413181 563.375348 
L 894.439011 554.193343 
L 895.464841 560.583398 
L 896.49067 559.612901 
L 897.5165 562.395604 
L 898.542329 559.975541 
L 899.568159 556.620932 
L 900.593988 569.993973 
L 901.619818 556.039451 
L 902.645648 556.176411 
L 903.671477 554.553349 
L 904.697307 558.181628 
L 905.723136 558.462527 
L 906.748966 557.198727 
L 907.774795 562.224037 
L 908.800625 568.943861 
L 909.826455 560.55209 
L 910.852284 557.941574 
L 911.878114 557.233784 
L 912.903943 557.495092 
L 914.955603 561.444038 
L 915.981432 562.161788 
L 917.007262 560.056973 
L 918.033091 560.59395 
L 919.058921 566.588102 
L 920.08475 558.336163 
L 921.11058 568.495887 
L 922.13641 563.071905 
L 923.162239 569.977681 
L 924.188069 561.930844 
L 925.213898 570.255747 
L 926.239728 565.89834 
L 927.265557 567.89636 
L 928.291387 561.267207 
L 929.317217 570.345377 
L 930.343046 569.867271 
L 931.368876 559.684443 
L 932.394705 560.779301 
L 933.420535 567.701817 
L 934.446365 562.268805 
L 935.472194 567.306681 
L 936.498024 565.906807 
L 937.523853 558.777447 
L 938.549683 561.565186 
L 939.575512 569.908477 
L 940.601342 566.490929 
L 941.627172 561.607279 
L 942.653001 560.968896 
L 943.678831 571.362032 
L 944.70466 562.46857 
L 945.73049 561.664674 
L 946.75632 587.633619 
L 947.782149 556.371352 
L 948.807979 560.454805 
L 949.833808 567.766808 
L 950.859638 561.191283 
L 951.885467 559.751554 
L 952.911297 567.976625 
L 953.937127 561.87107 
L 954.962956 565.23015 
L 955.988786 596.491066 
L 957.014615 558.900277 
L 958.040445 559.455921 
L 959.066274 560.863743 
L 960.092104 565.720764 
L 961.117934 562.561385 
L 962.143763 558.815115 
L 963.169593 557.855746 
L 964.195422 570.711867 
L 965.221252 592.046224 
L 966.247082 564.488516 
L 967.272911 562.730967 
L 968.298741 569.170776 
L 969.32457 560.56878 
L 970.3504 589.595084 
L 971.376229 565.68833 
L 972.402059 568.557219 
L 974.453718 571.222441 
L 975.479548 561.505581 
L 976.505377 568.095618 
L 977.531207 560.131402 
L 978.557036 566.8691 
L 979.582866 567.802383 
L 980.608696 570.350293 
L 981.634525 562.870202 
L 982.660355 562.902209 
L 983.686184 569.402986 
L 984.712014 567.656241 
L 985.737844 562.426862 
L 986.763673 566.370949 
L 987.789503 564.36692 
L 988.815332 569.462659 
L 989.841162 590.688154 
L 990.866991 566.682269 
L 991.892821 573.695641 
L 992.918651 573.396179 
L 993.94448 560.238484 
L 994.97031 577.266391 
L 995.996139 571.373062 
L 997.021969 569.892548 
L 998.047799 564.591852 
L 999.073628 551.985851 
L 1000.099458 567.366311 
L 1001.125287 565.389958 
L 1002.151117 589.665814 
L 1003.176946 564.169784 
L 1004.202776 565.295304 
L 1005.228606 558.227838 
L 1006.254435 569.210825 
L 1007.280265 558.934381 
L 1008.306094 564.066901 
L 1009.331924 565.465431 
L 1010.357753 571.645438 
L 1011.383583 563.678995 
L 1012.409413 564.897678 
L 1013.435242 565.934975 
L 1014.461072 566.182175 
L 1015.486901 590.099845 
L 1016.512731 560.847918 
L 1017.538561 560.786404 
L 1018.56439 569.350354 
L 1019.59022 563.823185 
L 1020.616049 569.920782 
L 1021.641879 562.460923 
L 1022.667708 569.421008 
L 1023.693538 564.439103 
L 1024.719368 562.016188 
L 1025.745197 563.568364 
L 1026.771027 600.209767 
L 1027.796856 574.238779 
L 1028.822686 568.587791 
L 1029.848515 567.975976 
L 1030.874345 573.962349 
L 1031.900175 575.197582 
L 1032.926004 559.268239 
L 1033.951834 565.497683 
L 1034.977663 566.386307 
L 1036.003493 567.087262 
L 1037.029323 565.725769 
L 1038.055152 565.518647 
L 1039.080982 590.521513 
L 1040.106811 569.709144 
L 1041.132641 567.657026 
L 1042.15847 571.788393 
L 1043.1843 567.081049 
L 1044.21013 570.672511 
L 1045.235959 562.848197 
L 1046.261789 567.318894 
L 1047.287618 589.836729 
L 1048.313448 569.096906 
L 1049.339278 568.361293 
L 1050.365107 570.748843 
L 1051.390937 569.28514 
L 1052.416766 570.446501 
L 1053.442596 570.504849 
L 1054.468425 576.05667 
L 1055.494255 566.641605 
L 1057.545914 574.697497 
L 1058.571744 576.956318 
L 1059.597573 570.999384 
L 1060.623403 580.060078 
L 1061.649232 578.641983 
L 1062.675062 571.206495 
L 1063.700892 579.008844 
L 1064.726721 578.512471 
L 1065.752551 573.562027 
L 1066.77838 573.573891 
L 1067.80421 574.363255 
L 1068.83004 572.040847 
L 1069.855869 573.241546 
L 1070.881699 573.015541 
L 1071.907528 571.938058 
L 1072.933358 573.714191 
L 1073.959187 572.808128 
L 1074.985017 573.247619 
L 1076.010847 572.957325 
L 1077.036676 577.462319 
L 1078.062506 573.699687 
L 1079.088335 578.032856 
L 1080.114165 578.895254 
L 1081.139994 575.309201 
L 1082.165824 572.371623 
L 1083.191654 574.155628 
L 1084.217483 571.756937 
L 1085.243313 574.56522 
L 1086.269142 569.321709 
L 1089.346631 582.895763 
L 1090.372461 573.569826 
L 1091.39829 574.174533 
L 1092.42412 578.445852 
L 1093.449949 575.18488 
L 1094.475779 571.399823 
L 1095.501609 570.974047 
L 1096.527438 578.399545 
L 1097.553268 576.99539 
L 1098.579097 572.308343 
L 1099.604927 579.695327 
L 1100.630757 575.822394 
L 1101.656586 573.816112 
L 1102.682416 573.859976 
L 1103.708245 574.128802 
L 1104.734075 573.772664 
L 1105.759904 579.611604 
L 1106.785734 572.838524 
L 1107.811564 573.442209 
L 1108.837393 574.834619 
L 1109.863223 590.73326 
L 1110.889052 573.506584 
L 1111.914882 575.411477 
L 1112.940711 572.880689 
L 1113.966541 574.276908 
L 1114.992371 573.411082 
L 1116.0182 577.314906 
L 1117.04403 574.452994 
L 1118.069859 580.53664 
L 1119.095689 577.706122 
L 1120.121519 576.995262 
L 1121.147348 597.264028 
L 1122.173178 576.174356 
L 1123.199007 576.130563 
L 1124.224837 576.795037 
L 1125.250666 575.618816 
L 1126.276496 582.177589 
L 1127.302326 575.469132 
L 1128.328155 576.113626 
L 1129.353985 578.314873 
L 1130.379814 577.077796 
L 1131.405644 578.107471 
L 1132.431473 575.12609 
L 1133.457303 569.965512 
L 1134.483133 578.290209 
L 1135.508962 581.409167 
L 1136.534792 591.951038 
L 1137.560621 577.960311 
L 1138.586451 580.691175 
L 1139.612281 582.171773 
L 1140.63811 580.906383 
L 1141.66394 577.337341 
L 1142.689769 576.667688 
L 1143.715599 577.864729 
L 1144.741428 578.513454 
L 1145.767258 577.348262 
L 1146.793088 578.984489 
L 1147.818917 577.961302 
L 1148.844747 575.958695 
L 1149.870576 576.959599 
L 1150.896406 577.221312 
L 1151.922235 577.933613 
L 1152.948065 578.149073 
L 1153.973895 579.072887 
L 1154.999724 576.917024 
L 1156.025554 576.535345 
L 1157.051383 577.996143 
L 1158.077213 577.173175 
L 1159.103043 576.649991 
L 1160.128872 578.503277 
L 1161.154702 577.31067 
L 1162.180531 578.826248 
L 1164.23219 578.626037 
L 1165.25802 578.830864 
L 1166.28385 576.959727 
L 1167.309679 583.079805 
L 1168.335509 579.4038 
L 1169.361338 582.160206 
L 1170.387168 578.479882 
L 1171.412998 579.159532 
L 1172.438827 572.997673 
L 1173.464657 594.738313 
L 1174.490486 581.226672 
L 1175.516316 576.316942 
L 1176.542145 582.665649 
L 1177.567975 575.767716 
L 1178.593805 577.247156 
L 1179.619634 585.842903 
L 1180.645464 580.143907 
L 1181.671293 572.48689 
L 1182.697123 576.888903 
L 1183.722952 579.374682 
L 1184.748782 578.071661 
L 1185.774612 576.189499 
L 1186.800441 578.350662 
L 1187.826271 579.561041 
L 1188.8521 574.90645 
L 1189.87793 581.928444 
L 1190.90376 578.973254 
L 1191.929589 589.158754 
L 1192.955419 577.720879 
L 1193.981248 583.1234 
L 1195.007078 583.102455 
L 1196.032907 575.346009 
L 1197.058737 579.659177 
L 1198.084567 582.740144 
L 1199.110396 581.09922 
L 1200.136226 574.706286 
L 1201.162055 580.177886 
L 1202.187885 580.712659 
L 1203.213714 579.444712 
L 1204.239544 579.8319 
L 1205.265374 579.202737 
L 1206.291203 579.438027 
L 1207.317033 596.847087 
L 1208.342862 580.937234 
L 1209.368692 580.161614 
L 1210.394522 574.054144 
L 1211.420351 580.541627 
L 1212.446181 581.246365 
L 1213.47201 582.271078 
L 1214.49784 575.177526 
L 1215.523669 580.501245 
L 1216.549499 583.728162 
L 1217.575329 581.706129 
L 1218.601158 581.740778 
L 1219.626988 580.151426 
L 1220.652817 579.636334 
L 1221.678647 581.670038 
L 1223.730306 581.961188 
L 1224.756136 581.275915 
L 1225.781965 582.378162 
L 1227.833624 580.244715 
L 1228.859454 583.733168 
L 1230.911113 578.730461 
L 1231.936943 579.65307 
L 1232.962772 581.971413 
L 1233.988602 581.895394 
L 1236.040261 582.040633 
L 1237.066091 582.640619 
L 1238.09192 581.608312 
L 1239.11775 584.588797 
L 1241.169409 585.623532 
L 1242.195239 586.642041 
L 1243.221068 582.768303 
L 1244.246898 585.439553 
L 1245.272727 581.514701 
L 1245.272727 581.514701 
" style="fill:none;stroke:#1f77b4;stroke-linecap:square;stroke-width:1.5;"/>
   </g>
   <g id="line2d_18">
    <path clip-path="url(#p4c2155b6a9)" d="M 230.727273 177.657047 
L 231.753102 168.380589 
L 232.778932 167.739152 
L 233.804761 370.196086 
L 234.830591 181.681731 
L 237.90808 218.55174 
L 238.933909 216.711834 
L 239.959739 228.323934 
L 240.985569 232.678513 
L 242.011398 236.094327 
L 243.037228 263.911044 
L 244.063057 241.078983 
L 245.088887 262.841121 
L 246.114716 235.347858 
L 247.140546 274.221437 
L 248.166376 246.002928 
L 249.192205 270.875153 
L 250.218035 235.86765 
L 251.243864 288.653657 
L 252.269694 296.890057 
L 253.295523 303.491732 
L 254.321353 260.844221 
L 255.347183 252.637888 
L 256.373012 319.149942 
L 257.398842 319.77893 
L 258.424671 275.588593 
L 259.450501 319.840162 
L 260.476331 304.482924 
L 261.50216 352.263489 
L 262.52799 293.313073 
L 263.553819 335.362048 
L 264.579649 296.52885 
L 266.631308 357.185055 
L 267.657138 335.729644 
L 268.682967 308.264361 
L 269.708797 296.780792 
L 270.734626 287.787218 
L 271.760456 361.873444 
L 272.786286 386.354662 
L 273.812115 339.869721 
L 274.837945 361.066193 
L 275.863774 344.593715 
L 276.889604 361.017482 
L 278.941263 322.186373 
L 279.967093 308.422099 
L 280.992922 339.873714 
L 282.018752 318.285901 
L 283.044581 347.276021 
L 284.070411 351.412447 
L 285.09624 325.994322 
L 286.12207 366.922081 
L 287.1479 365.832808 
L 288.173729 323.040047 
L 289.199559 382.984887 
L 290.225388 369.619317 
L 291.251218 371.305624 
L 292.277048 379.629338 
L 293.302877 338.013302 
L 294.328707 379.042907 
L 295.354536 336.926119 
L 296.380366 378.028935 
L 297.406195 382.322294 
L 298.432025 369.490451 
L 299.457855 348.430114 
L 300.483684 393.841033 
L 301.509514 396.215742 
L 302.535343 404.955622 
L 303.561173 372.559584 
L 304.587002 396.257736 
L 305.612832 380.87691 
L 306.638662 398.221779 
L 307.664491 510.816208 
L 308.690321 393.336383 
L 309.71615 413.609142 
L 310.74198 398.838961 
L 311.76781 436.40966 
L 312.793639 359.436438 
L 313.819469 392.789524 
L 315.871128 398.749073 
L 316.896957 389.365799 
L 317.922787 404.977021 
L 318.948617 403.194356 
L 319.974446 407.901067 
L 321.000276 388.730632 
L 322.026105 430.807183 
L 323.051935 409.601477 
L 324.077765 378.543305 
L 325.103594 407.693723 
L 326.129424 402.45857 
L 327.155253 405.129611 
L 328.181083 413.785878 
L 329.206912 401.888918 
L 330.232742 416.462144 
L 331.258572 391.233559 
L 332.284401 424.198542 
L 333.310231 396.675048 
L 334.33606 412.881531 
L 335.36189 405.935202 
L 336.387719 458.409852 
L 337.413549 416.270497 
L 338.439379 431.50593 
L 340.491038 403.020506 
L 341.516867 425.447765 
L 342.542697 436.088739 
L 343.568527 399.672303 
L 344.594356 401.159259 
L 345.620186 426.806659 
L 346.646015 428.250454 
L 347.671845 412.046384 
L 348.697674 431.250522 
L 349.723504 421.589795 
L 350.749334 417.622373 
L 351.775163 432.810194 
L 352.800993 433.344941 
L 353.826822 427.724694 
L 354.852652 505.525657 
L 355.878481 436.688778 
L 356.904311 436.73197 
L 357.930141 455.410287 
L 358.95597 441.877515 
L 359.9818 457.013014 
L 361.007629 459.208372 
L 362.033459 460.025322 
L 363.059289 444.465877 
L 364.085118 451.917082 
L 365.110948 468.348674 
L 366.136777 445.555462 
L 367.162607 462.061653 
L 368.188436 442.912082 
L 369.214266 457.456816 
L 370.240096 464.03081 
L 371.265925 446.707495 
L 372.291755 469.948968 
L 373.317584 457.490347 
L 374.343414 475.305546 
L 375.369243 472.286299 
L 376.395073 501.01613 
L 377.420903 501.796476 
L 378.446732 493.963181 
L 379.472562 500.459082 
L 380.498391 498.821896 
L 381.524221 453.018963 
L 382.550051 501.926372 
L 383.57588 501.43044 
L 384.60171 501.201624 
L 385.627539 480.632263 
L 386.653369 503.085549 
L 387.679198 501.585375 
L 388.705028 503.665882 
L 389.730858 498.557472 
L 390.756687 489.110752 
L 391.782517 492.685918 
L 392.808346 503.495364 
L 393.834176 511.220599 
L 395.885835 467.185852 
L 396.911665 487.454317 
L 397.937494 477.721923 
L 398.963324 491.745797 
L 401.014983 473.892538 
L 402.040813 513.816853 
L 403.066642 460.347477 
L 404.092472 483.662431 
L 405.118301 515.277974 
L 406.144131 483.686551 
L 407.16996 488.142926 
L 408.19579 513.89276 
L 409.22162 456.255654 
L 410.247449 507.276253 
L 411.273279 506.276218 
L 412.299108 503.808614 
L 413.324938 502.177047 
L 414.350768 504.816179 
L 415.376597 498.31231 
L 416.402427 508.282656 
L 417.428256 553.432773 
L 418.454086 484.658662 
L 419.479915 516.18555 
L 420.505745 507.926811 
L 421.531575 504.657891 
L 422.557404 497.032801 
L 423.583234 514.786525 
L 424.609063 494.30743 
L 425.634893 499.958152 
L 426.660722 499.467706 
L 427.686552 481.933188 
L 428.712382 500.823217 
L 429.738211 497.42684 
L 430.764041 506.783004 
L 431.78987 502.177058 
L 432.8157 503.859629 
L 433.84153 498.05076 
L 434.867359 482.846816 
L 435.893189 492.324644 
L 436.919018 494.036628 
L 437.944848 496.764497 
L 438.970677 505.769978 
L 439.996507 491.145815 
L 441.022337 506.984697 
L 442.048166 554.05278 
L 443.073996 497.589598 
L 444.099825 498.949163 
L 445.125655 495.335618 
L 446.151485 504.909871 
L 447.177314 504.733139 
L 448.203144 524.252298 
L 449.228973 523.093346 
L 450.254803 503.852708 
L 451.280632 509.085517 
L 452.306462 494.656181 
L 453.332292 516.702433 
L 454.358121 516.991954 
L 455.383951 555.689935 
L 456.40978 495.724581 
L 457.43561 497.466014 
L 458.461439 508.128008 
L 459.487269 492.924531 
L 460.513099 492.511947 
L 461.538928 524.179398 
L 462.564758 512.166887 
L 463.590587 510.327968 
L 464.616417 513.660876 
L 465.642247 507.414041 
L 466.668076 494.577102 
L 467.693906 518.020351 
L 468.719735 507.193581 
L 469.745565 506.639145 
L 470.771394 511.37881 
L 471.797224 513.747987 
L 472.823054 549.048192 
L 473.848883 512.245722 
L 474.874713 508.803481 
L 475.900542 511.736839 
L 476.926372 508.584578 
L 477.952201 516.760513 
L 478.978031 563.539405 
L 480.003861 530.573689 
L 481.02969 532.464843 
L 482.05552 532.35109 
L 483.081349 531.771434 
L 484.107179 527.804528 
L 485.133009 529.668858 
L 486.158838 534.333026 
L 487.184668 527.843942 
L 488.210497 509.891754 
L 489.236327 520.896033 
L 490.262156 518.369265 
L 491.287986 523.869354 
L 492.313816 521.447039 
L 493.339645 515.788803 
L 494.365475 525.205454 
L 495.391304 519.706051 
L 496.417134 510.484848 
L 497.442964 520.706996 
L 498.468793 522.145087 
L 499.494623 517.577492 
L 500.520452 510.062374 
L 501.546282 516.454243 
L 502.572111 525.494067 
L 503.597941 523.462563 
L 504.623771 514.708824 
L 505.6496 518.322141 
L 506.67543 514.758726 
L 507.701259 516.566669 
L 508.727089 514.943562 
L 509.752918 519.139836 
L 510.778748 528.076177 
L 511.804578 525.449771 
L 512.830407 522.242506 
L 513.856237 526.478233 
L 514.882066 516.874871 
L 515.907896 524.035937 
L 516.933726 523.462984 
L 517.959555 524.29713 
L 518.985385 522.79795 
L 520.011214 491.646472 
L 521.037044 527.163892 
L 522.062873 529.897837 
L 523.088703 514.781598 
L 524.114533 519.957047 
L 525.140362 528.638054 
L 526.166192 522.782181 
L 527.192021 525.634442 
L 528.217851 526.162265 
L 529.24368 531.14694 
L 530.26951 529.092775 
L 531.29534 527.419783 
L 532.321169 527.106102 
L 533.346999 530.881085 
L 534.372828 524.568614 
L 535.398658 532.811647 
L 536.424488 526.993037 
L 537.450317 529.141832 
L 538.476147 528.468585 
L 539.501976 520.466849 
L 540.527806 525.497823 
L 541.553635 526.599931 
L 542.579465 525.280103 
L 543.605295 529.516553 
L 544.631124 528.746387 
L 545.656954 522.868587 
L 546.682783 528.545661 
L 547.708613 522.918058 
L 548.734443 526.02894 
L 549.760272 526.560048 
L 550.786102 525.064059 
L 551.811931 528.648422 
L 552.837761 520.274477 
L 553.86359 528.160708 
L 554.88942 532.946344 
L 555.91525 531.174179 
L 556.941079 530.001194 
L 557.966909 521.912652 
L 560.018568 532.234678 
L 561.044397 522.290598 
L 562.070227 534.561706 
L 563.096057 527.602248 
L 564.121886 528.222498 
L 565.147716 523.887814 
L 566.173545 534.845449 
L 567.199375 525.626572 
L 568.225205 525.785726 
L 569.251034 534.694246 
L 570.276864 524.293622 
L 571.302693 528.915395 
L 572.328523 528.622521 
L 573.354352 574.02623 
L 574.380182 529.793942 
L 575.406012 531.472172 
L 576.431841 533.944448 
L 577.457671 529.523409 
L 578.4835 537.811782 
L 579.50933 534.278282 
L 580.535159 537.972448 
L 581.560989 528.868652 
L 582.586819 530.406643 
L 583.612648 537.454091 
L 584.638478 536.019052 
L 585.664307 534.832106 
L 586.690137 538.394727 
L 588.741796 538.878101 
L 589.767626 531.343854 
L 590.793455 541.632368 
L 591.819285 536.423685 
L 592.845114 538.384066 
L 593.870944 541.070401 
L 594.896774 537.444128 
L 595.922603 538.813812 
L 596.948433 537.314456 
L 597.974262 538.473292 
L 600.025922 565.330504 
L 601.051751 536.546167 
L 602.077581 540.368726 
L 603.10341 538.079644 
L 604.12924 537.645138 
L 605.155069 548.685181 
L 607.206729 535.780024 
L 608.232558 541.35408 
L 609.258388 536.695415 
L 610.284217 537.227421 
L 611.310047 538.605477 
L 612.335876 550.55729 
L 613.361706 541.409803 
L 614.387536 543.600693 
L 615.413365 548.179663 
L 616.439195 541.469114 
L 617.465024 551.973052 
L 618.490854 544.851221 
L 619.516684 545.832122 
L 620.542513 537.859646 
L 621.568343 534.570789 
L 622.594172 544.00778 
L 623.620002 547.188241 
L 624.645831 544.953461 
L 625.671661 539.099022 
L 626.697491 545.573543 
L 627.72332 545.128794 
L 628.74915 545.392129 
L 629.774979 540.637713 
L 630.800809 541.373182 
L 631.826638 546.388608 
L 632.852468 548.061958 
L 633.878298 545.225919 
L 634.904127 543.281701 
L 635.929957 545.804206 
L 636.955786 545.813912 
L 637.981616 557.364217 
L 639.007446 557.418727 
L 640.033275 548.724231 
L 641.059105 546.97395 
L 642.084934 548.803553 
L 643.110764 558.491572 
L 644.136593 558.81118 
L 645.162423 561.654331 
L 646.188253 544.420965 
L 647.214082 548.083491 
L 648.239912 550.738749 
L 649.265741 546.439851 
L 650.291571 551.580017 
L 651.3174 547.113905 
L 652.34323 550.875907 
L 653.36906 545.839948 
L 654.394889 548.610536 
L 655.420719 553.134791 
L 656.446548 543.26368 
L 657.472378 555.859653 
L 658.498208 549.907022 
L 659.524037 546.232652 
L 660.549867 550.613426 
L 661.575696 542.992932 
L 662.601526 552.83254 
L 663.627355 548.972772 
L 664.653185 551.759834 
L 665.679015 552.1871 
L 666.704844 552.902102 
L 667.730674 548.905672 
L 668.756503 546.267318 
L 669.782333 552.051065 
L 670.808163 553.860068 
L 671.833992 563.396012 
L 672.859822 553.087028 
L 673.885651 549.256469 
L 674.911481 556.013142 
L 675.93731 542.868364 
L 676.96314 562.981207 
L 677.98897 562.084683 
L 679.014799 560.397877 
L 680.040629 562.789266 
L 681.066458 563.035175 
L 682.092288 568.637247 
L 683.118117 554.718125 
L 684.143947 549.786297 
L 685.169777 554.36539 
L 686.195606 551.765646 
L 687.221436 554.653255 
L 689.273095 556.418654 
L 690.298925 552.327342 
L 691.324754 558.774286 
L 692.350584 555.914897 
L 693.376413 557.434127 
L 694.402243 555.150189 
L 695.428072 557.610702 
L 696.453902 556.086996 
L 697.479732 557.206862 
L 698.505561 561.933384 
L 699.531391 551.019983 
L 700.55722 555.936966 
L 701.58305 558.42294 
L 702.608879 555.563339 
L 703.634709 560.248331 
L 705.686368 556.981193 
L 706.712198 556.618633 
L 707.738027 554.777913 
L 708.763857 558.109279 
L 709.789687 558.047975 
L 710.815516 554.571405 
L 711.841346 551.745304 
L 712.867175 555.991429 
L 713.893005 556.715205 
L 714.918834 557.996399 
L 715.944664 557.302917 
L 716.970494 558.813096 
L 717.996323 558.657076 
L 719.022153 557.056341 
L 720.047982 561.693529 
L 721.073812 560.193568 
L 722.099642 560.968882 
L 723.125471 558.928858 
L 724.151301 561.312468 
L 725.17713 560.149072 
L 726.20296 577.574397 
L 727.228789 557.984782 
L 728.254619 559.382101 
L 729.280449 561.08447 
L 730.306278 563.451697 
L 731.332108 562.179814 
L 732.357937 563.235346 
L 733.383767 570.660913 
L 734.409596 560.124992 
L 735.435426 561.473427 
L 736.461256 562.349226 
L 737.487085 564.487023 
L 738.512915 561.458215 
L 739.538744 558.915295 
L 740.564574 563.191272 
L 741.590404 563.209284 
L 742.616233 565.25918 
L 743.642063 564.447646 
L 744.667892 565.867831 
L 745.693722 564.288864 
L 746.719551 565.534266 
L 747.745381 565.803605 
L 748.771211 567.453877 
L 749.79704 573.119831 
L 750.82287 568.325343 
L 751.848699 569.519466 
L 752.874529 569.890829 
L 753.900358 565.784473 
L 754.926188 564.018255 
L 755.952018 567.899252 
L 756.977847 573.230148 
L 758.003677 559.721984 
L 759.029506 569.686124 
L 760.055336 562.310934 
L 761.081166 564.411552 
L 762.106995 570.965734 
L 763.132825 566.163822 
L 764.158654 562.361934 
L 765.184484 570.968863 
L 766.210313 565.693865 
L 767.236143 573.912556 
L 768.261973 565.050105 
L 769.287802 567.152535 
L 770.313632 566.898717 
L 771.339461 565.98364 
L 772.365291 564.884137 
L 773.391121 565.93119 
L 774.41695 566.04969 
L 775.44278 568.215594 
L 776.468609 565.427843 
L 777.494439 572.067276 
L 778.520268 570.124265 
L 779.546098 574.658298 
L 780.571928 571.471441 
L 781.597757 567.101523 
L 782.623587 568.919276 
L 783.649416 569.238517 
L 784.675246 566.62078 
L 785.701075 566.722883 
L 786.726905 567.778421 
L 787.752735 565.678501 
L 788.778564 566.62142 
L 790.830223 569.255918 
L 791.856053 568.126907 
L 792.881883 566.053419 
L 793.907712 568.191904 
L 794.933542 568.28197 
L 795.959371 568.067007 
L 796.985201 569.310714 
L 798.01103 573.196497 
L 799.03686 569.852279 
L 800.06269 570.433955 
L 801.088519 569.818059 
L 802.114349 570.596318 
L 803.140178 569.296526 
L 804.166008 571.75785 
L 805.191837 570.396233 
L 806.217667 569.970998 
L 807.243497 568.047434 
L 808.269326 571.544565 
L 809.295156 568.547103 
L 810.320985 570.447175 
L 811.346815 568.319141 
L 812.372645 572.25172 
L 813.398474 569.514434 
L 814.424304 572.286909 
L 815.450133 570.150452 
L 816.475963 571.309542 
L 817.501792 570.213659 
L 818.527622 570.098337 
L 819.553452 570.989554 
L 820.579281 571.612826 
L 821.605111 571.779156 
L 822.63094 574.096739 
L 823.65677 571.103599 
L 824.6826 573.314975 
L 825.708429 569.591016 
L 826.734259 571.965068 
L 827.760088 569.800446 
L 828.785918 573.667948 
L 829.811747 572.605395 
L 830.837577 573.657712 
L 831.863407 570.330449 
L 832.889236 574.005255 
L 833.915066 570.233087 
L 834.940895 575.121338 
L 835.966725 570.641145 
L 836.992554 572.805967 
L 838.018384 573.75927 
L 839.044214 573.836021 
L 840.070043 575.320469 
L 841.095873 573.100456 
L 842.121702 541.179134 
L 843.147532 578.164082 
L 844.173362 569.792116 
L 845.199191 573.534667 
L 846.225021 573.844377 
L 847.25085 575.245033 
L 848.27668 573.186726 
L 849.302509 576.819742 
L 850.328339 579.603606 
L 851.354169 577.621537 
L 852.379998 577.165634 
L 853.405828 577.378025 
L 854.431657 574.362955 
L 855.457487 580.718044 
L 856.483316 570.517618 
L 857.509146 574.216447 
L 858.534976 590.078021 
L 859.560805 574.584698 
L 860.586635 574.911585 
L 861.612464 575.694391 
L 862.638294 576.050486 
L 863.664124 592.513028 
L 864.689953 571.633185 
L 865.715783 575.213257 
L 866.741612 576.139885 
L 867.767442 575.447096 
L 868.793271 575.611598 
L 869.819101 577.169471 
L 870.844931 575.881948 
L 871.87076 578.772053 
L 872.89659 572.300067 
L 873.922419 582.778827 
L 874.948249 577.001556 
L 875.974078 577.344729 
L 876.999908 581.721075 
L 878.025738 579.28073 
L 879.051567 579.16202 
L 880.077397 578.721125 
L 881.103226 570.021058 
L 882.129056 577.775324 
L 883.154886 573.78989 
L 884.180715 579.260009 
L 885.206545 582.290446 
L 886.232374 579.060851 
L 887.258204 583.776095 
L 888.284033 583.834686 
L 889.309863 604.314915 
L 890.335693 579.162314 
L 891.361522 579.121144 
L 892.387352 576.857325 
L 893.413181 566.873006 
L 894.439011 580.580667 
L 895.464841 587.612012 
L 896.49067 580.008083 
L 897.5165 575.404936 
L 898.542329 583.677487 
L 899.568159 580.678326 
L 900.593988 581.587693 
L 901.619818 583.423226 
L 902.645648 582.521543 
L 903.671477 582.948999 
L 904.697307 581.849372 
L 905.723136 580.463127 
L 906.748966 582.079592 
L 907.774795 583.434701 
L 908.800625 593.798574 
L 909.826455 582.635311 
L 910.852284 580.661543 
L 911.878114 580.954761 
L 912.903943 582.816688 
L 913.929773 581.036174 
L 914.955603 581.342021 
L 915.981432 576.261434 
L 917.007262 582.997483 
L 919.058921 579.900479 
L 920.08475 579.206693 
L 921.11058 585.781487 
L 922.13641 583.15708 
L 923.162239 584.180404 
L 924.188069 582.537982 
L 925.213898 583.094783 
L 926.239728 585.737816 
L 927.265557 586.346193 
L 928.291387 580.895115 
L 929.317217 606.300667 
L 930.343046 582.382257 
L 931.368876 584.418949 
L 932.394705 584.788706 
L 933.420535 581.954218 
L 934.446365 584.502956 
L 935.472194 584.841601 
L 936.498024 584.899188 
L 937.523853 582.309831 
L 938.549683 585.620206 
L 939.575512 584.823614 
L 940.601342 584.438853 
L 941.627172 585.880591 
L 942.653001 584.283752 
L 943.678831 584.700184 
L 944.70466 585.338701 
L 945.73049 585.642528 
L 946.75632 585.300853 
L 947.782149 584.513692 
L 948.807979 582.29421 
L 949.833808 583.037694 
L 950.859638 584.829152 
L 951.885467 587.301866 
L 952.911297 586.569645 
L 953.937127 598.991798 
L 954.962956 586.055416 
L 955.988786 588.382441 
L 957.014615 586.702849 
L 958.040445 586.979929 
L 959.066274 583.362682 
L 960.092104 586.28546 
L 961.117934 584.288556 
L 962.143763 585.529637 
L 963.169593 587.111969 
L 964.195422 586.898223 
L 965.221252 586.807461 
L 966.247082 587.038447 
L 967.272911 586.238083 
L 968.298741 588.15683 
L 969.32457 582.452326 
L 970.3504 588.210034 
L 971.376229 585.951373 
L 972.402059 587.688315 
L 973.427889 585.476339 
L 974.453718 588.291255 
L 975.479548 587.502542 
L 976.505377 587.391179 
L 977.531207 587.540921 
L 978.557036 587.387195 
L 979.582866 586.492986 
L 980.608696 588.481623 
L 981.634525 588.239582 
L 982.660355 587.27599 
L 983.686184 587.843788 
L 984.712014 587.907913 
L 985.737844 588.37378 
L 986.763673 588.288779 
L 987.789503 588.572527 
L 988.815332 588.69106 
L 989.841162 614.744519 
L 990.866991 589.481065 
L 991.892821 587.693605 
L 992.918651 588.868343 
L 993.94448 590.94408 
L 994.97031 590.311277 
L 995.996139 592.662777 
L 997.021969 590.495534 
L 998.047799 587.942968 
L 999.073628 587.166916 
L 1000.099458 587.358457 
L 1002.151117 586.9185 
L 1003.176946 591.940967 
L 1004.202776 589.164865 
L 1005.228606 590.271812 
L 1006.254435 588.261832 
L 1007.280265 590.397015 
L 1008.306094 587.199396 
L 1009.331924 591.90181 
L 1010.357753 590.518256 
L 1011.383583 602.983039 
L 1012.409413 592.215654 
L 1013.435242 591.682389 
L 1014.461072 595.523162 
L 1015.486901 590.914693 
L 1016.512731 588.701602 
L 1017.538561 591.813121 
L 1018.56439 590.423106 
L 1019.59022 590.934698 
L 1020.616049 589.000725 
L 1021.641879 593.437191 
L 1022.667708 590.03192 
L 1023.693538 590.652899 
L 1024.719368 589.733925 
L 1025.745197 590.298578 
L 1026.771027 589.806031 
L 1027.796856 591.114399 
L 1028.822686 589.729464 
L 1029.848515 589.303193 
L 1030.874345 588.602453 
L 1031.900175 592.451256 
L 1032.926004 594.233293 
L 1033.951834 591.573904 
L 1034.977663 592.115034 
L 1036.003493 591.700266 
L 1038.055152 594.130529 
L 1039.080982 591.276612 
L 1040.106811 593.944042 
L 1041.132641 593.051252 
L 1042.15847 593.004272 
L 1043.1843 592.20086 
L 1044.21013 593.794708 
L 1046.261789 592.345282 
L 1047.287618 591.12215 
L 1048.313448 593.816088 
L 1049.339278 592.046077 
L 1050.365107 592.891213 
L 1051.390937 592.97595 
L 1052.416766 594.71719 
L 1053.442596 593.862657 
L 1054.468425 594.663393 
L 1055.494255 593.237931 
L 1056.520085 595.278086 
L 1057.545914 592.739632 
L 1058.571744 596.331022 
L 1059.597573 603.217138 
L 1060.623403 593.931223 
L 1061.649232 594.342347 
L 1062.675062 594.935775 
L 1063.700892 595.022384 
L 1064.726721 595.885312 
L 1065.752551 595.655846 
L 1066.77838 594.557601 
L 1067.80421 596.242054 
L 1068.83004 596.589374 
L 1069.855869 595.181166 
L 1070.881699 595.726134 
L 1071.907528 595.652465 
L 1072.933358 596.385814 
L 1073.959187 595.399623 
L 1074.985017 593.90552 
L 1076.010847 595.414067 
L 1077.036676 596.32546 
L 1078.062506 594.040316 
L 1079.088335 595.133941 
L 1080.114165 594.902782 
L 1081.139994 594.993927 
L 1082.165824 593.165528 
L 1083.191654 595.618202 
L 1084.217483 596.174869 
L 1085.243313 595.929212 
L 1086.269142 596.234004 
L 1087.294972 596.854028 
L 1088.320802 595.397819 
L 1089.346631 594.911813 
L 1090.372461 595.848105 
L 1091.39829 595.359621 
L 1092.42412 595.380478 
L 1093.449949 596.621454 
L 1094.475779 595.604838 
L 1095.501609 597.912704 
L 1096.527438 595.931756 
L 1097.553268 596.248094 
L 1098.579097 591.232657 
L 1099.604927 596.015825 
L 1100.630757 594.70047 
L 1101.656586 595.497573 
L 1102.682416 594.619137 
L 1103.708245 595.085346 
L 1104.734075 595.700616 
L 1105.759904 595.885177 
L 1106.785734 594.2841 
L 1107.811564 596.249843 
L 1108.837393 595.457396 
L 1109.863223 597.421534 
L 1110.889052 596.35062 
L 1111.914882 596.429398 
L 1112.940711 607.237629 
L 1113.966541 598.315329 
L 1114.992371 596.347209 
L 1116.0182 597.89733 
L 1117.04403 595.79227 
L 1118.069859 597.277941 
L 1119.095689 596.315382 
L 1120.121519 596.520079 
L 1121.147348 595.134015 
L 1122.173178 597.128354 
L 1126.276496 596.606596 
L 1127.302326 595.442963 
L 1128.328155 598.215603 
L 1129.353985 596.193832 
L 1130.379814 596.182662 
L 1131.405644 596.460641 
L 1132.431473 597.51155 
L 1133.457303 593.060928 
L 1134.483133 594.6116 
L 1135.508962 592.618056 
L 1136.534792 596.402299 
L 1137.560621 597.040576 
L 1138.586451 596.125375 
L 1141.66394 595.519077 
L 1142.689769 596.805546 
L 1143.715599 596.147665 
L 1144.741428 597.688385 
L 1145.767258 596.491701 
L 1146.793088 596.188236 
L 1147.818917 595.208095 
L 1148.844747 597.824071 
L 1149.870576 601.003121 
L 1150.896406 597.546761 
L 1151.922235 597.88771 
L 1152.948065 596.67376 
L 1153.973895 596.386215 
L 1154.999724 598.602529 
L 1156.025554 597.503047 
L 1157.051383 598.488925 
L 1158.077213 592.122519 
L 1159.103043 598.217524 
L 1160.128872 597.584027 
L 1161.154702 596.412361 
L 1162.180531 597.207115 
L 1163.206361 598.99172 
L 1164.23219 598.445752 
L 1165.25802 598.800633 
L 1166.28385 599.595395 
L 1167.309679 597.251787 
L 1168.335509 597.550416 
L 1169.361338 598.865378 
L 1170.387168 598.606242 
L 1171.412998 598.699187 
L 1172.438827 598.326142 
L 1173.464657 598.831239 
L 1174.490486 597.573501 
L 1175.516316 598.185661 
L 1176.542145 597.939453 
L 1177.567975 599.244805 
L 1178.593805 598.031556 
L 1179.619634 598.921574 
L 1180.645464 598.788355 
L 1181.671293 599.369441 
L 1182.697123 597.980205 
L 1183.722952 598.398889 
L 1184.748782 598.219646 
L 1185.774612 599.810374 
L 1186.800441 597.494639 
L 1188.8521 599.903209 
L 1190.90376 599.85269 
L 1191.929589 598.698791 
L 1192.955419 598.709385 
L 1193.981248 599.883079 
L 1195.007078 597.700953 
L 1196.032907 599.524348 
L 1197.058737 598.479675 
L 1198.084567 599.462201 
L 1199.110396 598.309499 
L 1200.136226 600.108288 
L 1201.162055 599.562978 
L 1202.187885 600.003251 
L 1203.213714 599.358425 
L 1204.239544 599.928994 
L 1205.265374 597.263918 
L 1206.291203 599.775859 
L 1207.317033 600.363416 
L 1208.342862 599.518556 
L 1209.368692 598.248491 
L 1210.394522 599.30128 
L 1211.420351 597.637648 
L 1212.446181 599.469704 
L 1213.47201 599.678834 
L 1214.49784 601.579104 
L 1215.523669 600.865618 
L 1216.549499 602.777501 
L 1217.575329 599.996779 
L 1218.601158 600.95599 
L 1219.626988 598.684625 
L 1220.652817 602.860623 
L 1221.678647 600.918553 
L 1222.704477 601.054773 
L 1223.730306 596.17323 
L 1224.756136 599.700072 
L 1225.781965 598.874535 
L 1226.807795 600.139952 
L 1227.833624 598.937586 
L 1228.859454 599.120648 
L 1229.885284 601.38624 
L 1230.911113 601.605235 
L 1231.936943 600.160878 
L 1232.962772 613.400006 
L 1233.988602 600.000345 
L 1235.014431 600.944382 
L 1236.040261 600.738781 
L 1237.066091 599.621428 
L 1238.09192 599.715841 
L 1239.11775 601.350634 
L 1240.143579 602.070567 
L 1241.169409 601.967695 
L 1242.195239 615.6 
L 1243.221068 602.232508 
L 1244.246898 601.275172 
L 1245.272727 602.594855 
L 1245.272727 602.594855 
" style="fill:none;stroke:#ff7f0e;stroke-linecap:square;stroke-width:1.5;"/>
   </g>
   <g id="patch_3">
    <path d="M 180 640.8 
L 180 86.4 
" style="fill:none;stroke:#000000;stroke-linecap:square;stroke-linejoin:miter;stroke-width:0.8;"/>
   </g>
   <g id="patch_4">
    <path d="M 1296 640.8 
L 1296 86.4 
" style="fill:none;stroke:#000000;stroke-linecap:square;stroke-linejoin:miter;stroke-width:0.8;"/>
   </g>
   <g id="patch_5">
    <path d="M 180 640.8 
L 1296 640.8 
" style="fill:none;stroke:#000000;stroke-linecap:square;stroke-linejoin:miter;stroke-width:0.8;"/>
   </g>
   <g id="patch_6">
    <path d="M 180 86.4 
L 1296 86.4 
" style="fill:none;stroke:#000000;stroke-linecap:square;stroke-linejoin:miter;stroke-width:0.8;"/>
   </g>
   <g id="text_19">
    <!-- AO Speedup -->
    <defs>
     <path d="M 34.1875 63.1875 
L 20.796875 26.90625 
L 47.609375 26.90625 
z
M 28.609375 72.90625 
L 39.796875 72.90625 
L 67.578125 0 
L 57.328125 0 
L 50.6875 18.703125 
L 17.828125 18.703125 
L 11.1875 0 
L 0.78125 0 
z
" id="DejaVuSans-65"/>
     <path d="M 39.40625 66.21875 
Q 28.65625 66.21875 22.328125 58.203125 
Q 16.015625 50.203125 16.015625 36.375 
Q 16.015625 22.609375 22.328125 14.59375 
Q 28.65625 6.59375 39.40625 6.59375 
Q 50.140625 6.59375 56.421875 14.59375 
Q 62.703125 22.609375 62.703125 36.375 
Q 62.703125 50.203125 56.421875 58.203125 
Q 50.140625 66.21875 39.40625 66.21875 
z
M 39.40625 74.21875 
Q 54.734375 74.21875 63.90625 63.9375 
Q 73.09375 53.65625 73.09375 36.375 
Q 73.09375 19.140625 63.90625 8.859375 
Q 54.734375 -1.421875 39.40625 -1.421875 
Q 24.03125 -1.421875 14.8125 8.828125 
Q 5.609375 19.09375 5.609375 36.375 
Q 5.609375 53.65625 14.8125 63.9375 
Q 24.03125 74.21875 39.40625 74.21875 
z
" id="DejaVuSans-79"/>
     <path id="DejaVuSans-32"/>
     <path d="M 53.515625 70.515625 
L 53.515625 60.890625 
Q 47.90625 63.578125 42.921875 64.890625 
Q 37.9375 66.21875 33.296875 66.21875 
Q 25.25 66.21875 20.875 63.09375 
Q 16.5 59.96875 16.5 54.203125 
Q 16.5 49.359375 19.40625 46.890625 
Q 22.3125 44.4375 30.421875 42.921875 
L 36.375 41.703125 
Q 47.40625 39.59375 52.65625 34.296875 
Q 57.90625 29 57.90625 20.125 
Q 57.90625 9.515625 50.796875 4.046875 
Q 43.703125 -1.421875 29.984375 -1.421875 
Q 24.8125 -1.421875 18.96875 -0.25 
Q 13.140625 0.921875 6.890625 3.21875 
L 6.890625 13.375 
Q 12.890625 10.015625 18.65625 8.296875 
Q 24.421875 6.59375 29.984375 6.59375 
Q 38.421875 6.59375 43.015625 9.90625 
Q 47.609375 13.234375 47.609375 19.390625 
Q 47.609375 24.75 44.3125 27.78125 
Q 41.015625 30.8125 33.5 32.328125 
L 27.484375 33.5 
Q 16.453125 35.6875 11.515625 40.375 
Q 6.59375 45.0625 6.59375 53.421875 
Q 6.59375 63.09375 13.40625 68.65625 
Q 20.21875 74.21875 32.171875 74.21875 
Q 37.3125 74.21875 42.625 73.28125 
Q 47.953125 72.359375 53.515625 70.515625 
z
" id="DejaVuSans-83"/>
    </defs>
    <g transform="translate(700.948125 80.4)scale(0.12 -0.12)">
     <use xlink:href="#DejaVuSans-65"/>
     <use x="66.658203" xlink:href="#DejaVuSans-79"/>
     <use x="145.369141" xlink:href="#DejaVuSans-32"/>
     <use x="177.15625" xlink:href="#DejaVuSans-83"/>
     <use x="240.632812" xlink:href="#DejaVuSans-112"/>
     <use x="304.109375" xlink:href="#DejaVuSans-101"/>
     <use x="365.632812" xlink:href="#DejaVuSans-101"/>
     <use x="427.15625" xlink:href="#DejaVuSans-100"/>
     <use x="490.632812" xlink:href="#DejaVuSans-117"/>
     <use x="554.011719" xlink:href="#DejaVuSans-112"/>
    </g>
   </g>
   <g id="legend_1">
    <g id="patch_7">
     <path d="M 1185.373437 123.75625 
L 1289 123.75625 
Q 1291 123.75625 1291 121.75625 
L 1291 93.4 
Q 1291 91.4 1289 91.4 
L 1185.373437 91.4 
Q 1183.373437 91.4 1183.373437 93.4 
L 1183.373437 121.75625 
Q 1183.373437 123.75625 1185.373437 123.75625 
z
" style="fill:#ffffff;opacity:0.8;stroke:#cccccc;stroke-linejoin:miter;"/>
    </g>
    <g id="line2d_19">
     <path d="M 1187.373437 99.498437 
L 1207.373437 99.498437 
" style="fill:none;stroke:#1f77b4;stroke-linecap:square;stroke-width:1.5;"/>
    </g>
    <g id="line2d_20"/>
    <g id="text_20">
     <!-- numpy.float32 -->
     <defs>
      <path d="M 52 44.1875 
Q 55.375 50.25 60.0625 53.125 
Q 64.75 56 71.09375 56 
Q 79.640625 56 84.28125 50.015625 
Q 88.921875 44.046875 88.921875 33.015625 
L 88.921875 0 
L 79.890625 0 
L 79.890625 32.71875 
Q 79.890625 40.578125 77.09375 44.375 
Q 74.3125 48.1875 68.609375 48.1875 
Q 61.625 48.1875 57.5625 43.546875 
Q 53.515625 38.921875 53.515625 30.90625 
L 53.515625 0 
L 44.484375 0 
L 44.484375 32.71875 
Q 44.484375 40.625 41.703125 44.40625 
Q 38.921875 48.1875 33.109375 48.1875 
Q 26.21875 48.1875 22.15625 43.53125 
Q 18.109375 38.875 18.109375 30.90625 
L 18.109375 0 
L 9.078125 0 
L 9.078125 54.6875 
L 18.109375 54.6875 
L 18.109375 46.1875 
Q 21.1875 51.21875 25.484375 53.609375 
Q 29.78125 56 35.6875 56 
Q 41.65625 56 45.828125 52.96875 
Q 50 49.953125 52 44.1875 
z
" id="DejaVuSans-109"/>
      <path d="M 32.171875 -5.078125 
Q 28.375 -14.84375 24.75 -17.8125 
Q 21.140625 -20.796875 15.09375 -20.796875 
L 7.90625 -20.796875 
L 7.90625 -13.28125 
L 13.1875 -13.28125 
Q 16.890625 -13.28125 18.9375 -11.515625 
Q 21 -9.765625 23.484375 -3.21875 
L 25.09375 0.875 
L 2.984375 54.6875 
L 12.5 54.6875 
L 29.59375 11.921875 
L 46.6875 54.6875 
L 56.203125 54.6875 
z
" id="DejaVuSans-121"/>
      <path d="M 37.109375 75.984375 
L 37.109375 68.5 
L 28.515625 68.5 
Q 23.6875 68.5 21.796875 66.546875 
Q 19.921875 64.59375 19.921875 59.515625 
L 19.921875 54.6875 
L 34.71875 54.6875 
L 34.71875 47.703125 
L 19.921875 47.703125 
L 19.921875 0 
L 10.890625 0 
L 10.890625 47.703125 
L 2.296875 47.703125 
L 2.296875 54.6875 
L 10.890625 54.6875 
L 10.890625 58.5 
Q 10.890625 67.625 15.140625 71.796875 
Q 19.390625 75.984375 28.609375 75.984375 
z
" id="DejaVuSans-102"/>
      <path d="M 9.421875 75.984375 
L 18.40625 75.984375 
L 18.40625 0 
L 9.421875 0 
z
" id="DejaVuSans-108"/>
      <path d="M 30.609375 48.390625 
Q 23.390625 48.390625 19.1875 42.75 
Q 14.984375 37.109375 14.984375 27.296875 
Q 14.984375 17.484375 19.15625 11.84375 
Q 23.34375 6.203125 30.609375 6.203125 
Q 37.796875 6.203125 41.984375 11.859375 
Q 46.1875 17.53125 46.1875 27.296875 
Q 46.1875 37.015625 41.984375 42.703125 
Q 37.796875 48.390625 30.609375 48.390625 
z
M 30.609375 56 
Q 42.328125 56 49.015625 48.375 
Q 55.71875 40.765625 55.71875 27.296875 
Q 55.71875 13.875 49.015625 6.21875 
Q 42.328125 -1.421875 30.609375 -1.421875 
Q 18.84375 -1.421875 12.171875 6.21875 
Q 5.515625 13.875 5.515625 27.296875 
Q 5.515625 40.765625 12.171875 48.375 
Q 18.84375 56 30.609375 56 
z
" id="DejaVuSans-111"/>
      <path d="M 34.28125 27.484375 
Q 23.390625 27.484375 19.1875 25 
Q 14.984375 22.515625 14.984375 16.5 
Q 14.984375 11.71875 18.140625 8.90625 
Q 21.296875 6.109375 26.703125 6.109375 
Q 34.1875 6.109375 38.703125 11.40625 
Q 43.21875 16.703125 43.21875 25.484375 
L 43.21875 27.484375 
z
M 52.203125 31.203125 
L 52.203125 0 
L 43.21875 0 
L 43.21875 8.296875 
Q 40.140625 3.328125 35.546875 0.953125 
Q 30.953125 -1.421875 24.3125 -1.421875 
Q 15.921875 -1.421875 10.953125 3.296875 
Q 6 8.015625 6 15.921875 
Q 6 25.140625 12.171875 29.828125 
Q 18.359375 34.515625 30.609375 34.515625 
L 43.21875 34.515625 
L 43.21875 35.40625 
Q 43.21875 41.609375 39.140625 45 
Q 35.0625 48.390625 27.6875 48.390625 
Q 23 48.390625 18.546875 47.265625 
Q 14.109375 46.140625 10.015625 43.890625 
L 10.015625 52.203125 
Q 14.9375 54.109375 19.578125 55.046875 
Q 24.21875 56 28.609375 56 
Q 40.484375 56 46.34375 49.84375 
Q 52.203125 43.703125 52.203125 31.203125 
z
" id="DejaVuSans-97"/>
      <path d="M 18.3125 70.21875 
L 18.3125 54.6875 
L 36.8125 54.6875 
L 36.8125 47.703125 
L 18.3125 47.703125 
L 18.3125 18.015625 
Q 18.3125 11.328125 20.140625 9.421875 
Q 21.96875 7.515625 27.59375 7.515625 
L 36.8125 7.515625 
L 36.8125 0 
L 27.59375 0 
Q 17.1875 0 13.234375 3.875 
Q 9.28125 7.765625 9.28125 18.015625 
L 9.28125 47.703125 
L 2.6875 47.703125 
L 2.6875 54.6875 
L 9.28125 54.6875 
L 9.28125 70.21875 
z
" id="DejaVuSans-116"/>
     </defs>
     <g transform="translate(1215.373437 102.998437)scale(0.1 -0.1)">
      <use xlink:href="#DejaVuSans-110"/>
      <use x="63.378906" xlink:href="#DejaVuSans-117"/>
      <use x="126.757812" xlink:href="#DejaVuSans-109"/>
      <use x="224.169922" xlink:href="#DejaVuSans-112"/>
      <use x="287.646484" xlink:href="#DejaVuSans-121"/>
      <use x="332.576172" xlink:href="#DejaVuSans-46"/>
      <use x="364.363281" xlink:href="#DejaVuSans-102"/>
      <use x="399.568359" xlink:href="#DejaVuSans-108"/>
      <use x="427.351562" xlink:href="#DejaVuSans-111"/>
      <use x="488.533203" xlink:href="#DejaVuSans-97"/>
      <use x="549.8125" xlink:href="#DejaVuSans-116"/>
      <use x="589.021484" xlink:href="#DejaVuSans-51"/>
      <use x="652.644531" xlink:href="#DejaVuSans-50"/>
     </g>
    </g>
    <g id="line2d_21">
     <path d="M 1187.373437 114.176562 
L 1207.373437 114.176562 
" style="fill:none;stroke:#ff7f0e;stroke-linecap:square;stroke-width:1.5;"/>
    </g>
    <g id="line2d_22"/>
    <g id="text_21">
     <!-- numpy.float64 -->
     <g transform="translate(1215.373437 117.676562)scale(0.1 -0.1)">
      <use xlink:href="#DejaVuSans-110"/>
      <use x="63.378906" xlink:href="#DejaVuSans-117"/>
      <use x="126.757812" xlink:href="#DejaVuSans-109"/>
      <use x="224.169922" xlink:href="#DejaVuSans-112"/>
      <use x="287.646484" xlink:href="#DejaVuSans-121"/>
      <use x="332.576172" xlink:href="#DejaVuSans-46"/>
      <use x="364.363281" xlink:href="#DejaVuSans-102"/>
      <use x="399.568359" xlink:href="#DejaVuSans-108"/>
      <use x="427.351562" xlink:href="#DejaVuSans-111"/>
      <use x="488.533203" xlink:href="#DejaVuSans-97"/>
      <use x="549.8125" xlink:href="#DejaVuSans-116"/>
      <use x="589.021484" xlink:href="#DejaVuSans-54"/>
      <use x="652.644531" xlink:href="#DejaVuSans-52"/>
     </g>
    </g>
   </g>
  </g>
 </g>
 <defs>
  <clipPath id="p4c2155b6a9">
   <rect height="554.4" width="1116" x="180" y="86.4"/>
  </clipPath>
 </defs>
</svg>
