<?xml version="1.0" encoding="utf-8" standalone="no"?>
<!DOCTYPE svg PUBLIC "-//W3C//DTD SVG 1.1//EN"
  "http://www.w3.org/Graphics/SVG/1.1/DTD/svg11.dtd">
<!-- Created with matplotlib (https://matplotlib.org/) -->
<svg height="345.6pt" version="1.1" viewBox="0 0 460.8 345.6" width="460.8pt" xmlns="http://www.w3.org/2000/svg" xmlns:xlink="http://www.w3.org/1999/xlink">
 <defs>
  <style type="text/css">
*{stroke-linecap:butt;stroke-linejoin:round;}
  </style>
 </defs>
 <g id="figure_1">
  <g id="patch_1">
   <path d="M 0 345.6 
L 460.8 345.6 
L 460.8 0 
L 0 0 
z
" style="fill:#ffffff;"/>
  </g>
  <g id="axes_1">
   <g id="patch_2">
    <path d="M 57.6 307.584 
L 414.72 307.584 
L 414.72 41.472 
L 57.6 41.472 
z
" style="fill:#ffffff;"/>
   </g>
   <g id="matplotlib.axis_1">
    <g id="xtick_1">
     <g id="line2d_1">
      <defs>
       <path d="M 0 0 
L 0 3.5 
" id="m0b96e201eb" style="stroke:#000000;stroke-width:0.8;"/>
      </defs>
      <g>
       <use style="stroke:#000000;stroke-width:0.8;" x="106.659274" xlink:href="#m0b96e201eb" y="307.584"/>
      </g>
     </g>
     <g id="text_1">
      <!-- 100.0 -->
      <defs>
       <path d="M 12.40625 8.296875 
L 28.515625 8.296875 
L 28.515625 63.921875 
L 10.984375 60.40625 
L 10.984375 69.390625 
L 28.421875 72.90625 
L 38.28125 72.90625 
L 38.28125 8.296875 
L 54.390625 8.296875 
L 54.390625 0 
L 12.40625 0 
z
" id="DejaVuSans-49"/>
       <path d="M 31.78125 66.40625 
Q 24.171875 66.40625 20.328125 58.90625 
Q 16.5 51.421875 16.5 36.375 
Q 16.5 21.390625 20.328125 13.890625 
Q 24.171875 6.390625 31.78125 6.390625 
Q 39.453125 6.390625 43.28125 13.890625 
Q 47.125 21.390625 47.125 36.375 
Q 47.125 51.421875 43.28125 58.90625 
Q 39.453125 66.40625 31.78125 66.40625 
z
M 31.78125 74.21875 
Q 44.046875 74.21875 50.515625 64.515625 
Q 56.984375 54.828125 56.984375 36.375 
Q 56.984375 17.96875 50.515625 8.265625 
Q 44.046875 -1.421875 31.78125 -1.421875 
Q 19.53125 -1.421875 13.0625 8.265625 
Q 6.59375 17.96875 6.59375 36.375 
Q 6.59375 54.828125 13.0625 64.515625 
Q 19.53125 74.21875 31.78125 74.21875 
z
" id="DejaVuSans-48"/>
       <path d="M 10.6875 12.40625 
L 21 12.40625 
L 21 0 
L 10.6875 0 
z
" id="DejaVuSans-46"/>
      </defs>
      <g transform="translate(92.345211 322.182437)scale(0.1 -0.1)">
       <use xlink:href="#DejaVuSans-49"/>
       <use x="63.623047" xlink:href="#DejaVuSans-48"/>
       <use x="127.246094" xlink:href="#DejaVuSans-48"/>
       <use x="190.869141" xlink:href="#DejaVuSans-46"/>
       <use x="222.65625" xlink:href="#DejaVuSans-48"/>
      </g>
     </g>
    </g>
    <g id="xtick_2">
     <g id="line2d_2">
      <g>
       <use style="stroke:#000000;stroke-width:0.8;" x="139.48582" xlink:href="#m0b96e201eb" y="307.584"/>
      </g>
     </g>
     <g id="text_2">
      <!-- 200.0 -->
      <defs>
       <path d="M 19.1875 8.296875 
L 53.609375 8.296875 
L 53.609375 0 
L 7.328125 0 
L 7.328125 8.296875 
Q 12.9375 14.109375 22.625 23.890625 
Q 32.328125 33.6875 34.8125 36.53125 
Q 39.546875 41.84375 41.421875 45.53125 
Q 43.3125 49.21875 43.3125 52.78125 
Q 43.3125 58.59375 39.234375 62.25 
Q 35.15625 65.921875 28.609375 65.921875 
Q 23.96875 65.921875 18.8125 64.3125 
Q 13.671875 62.703125 7.8125 59.421875 
L 7.8125 69.390625 
Q 13.765625 71.78125 18.9375 73 
Q 24.125 74.21875 28.421875 74.21875 
Q 39.75 74.21875 46.484375 68.546875 
Q 53.21875 62.890625 53.21875 53.421875 
Q 53.21875 48.921875 51.53125 44.890625 
Q 49.859375 40.875 45.40625 35.40625 
Q 44.1875 33.984375 37.640625 27.21875 
Q 31.109375 20.453125 19.1875 8.296875 
z
" id="DejaVuSans-50"/>
      </defs>
      <g transform="translate(125.171758 322.182437)scale(0.1 -0.1)">
       <use xlink:href="#DejaVuSans-50"/>
       <use x="63.623047" xlink:href="#DejaVuSans-48"/>
       <use x="127.246094" xlink:href="#DejaVuSans-48"/>
       <use x="190.869141" xlink:href="#DejaVuSans-46"/>
       <use x="222.65625" xlink:href="#DejaVuSans-48"/>
      </g>
     </g>
    </g>
    <g id="xtick_3">
     <g id="line2d_3">
      <g>
       <use style="stroke:#000000;stroke-width:0.8;" x="172.312367" xlink:href="#m0b96e201eb" y="307.584"/>
      </g>
     </g>
     <g id="text_3">
      <!-- 300.0 -->
      <defs>
       <path d="M 40.578125 39.3125 
Q 47.65625 37.796875 51.625 33 
Q 55.609375 28.21875 55.609375 21.1875 
Q 55.609375 10.40625 48.1875 4.484375 
Q 40.765625 -1.421875 27.09375 -1.421875 
Q 22.515625 -1.421875 17.65625 -0.515625 
Q 12.796875 0.390625 7.625 2.203125 
L 7.625 11.71875 
Q 11.71875 9.328125 16.59375 8.109375 
Q 21.484375 6.890625 26.8125 6.890625 
Q 36.078125 6.890625 40.9375 10.546875 
Q 45.796875 14.203125 45.796875 21.1875 
Q 45.796875 27.640625 41.28125 31.265625 
Q 36.765625 34.90625 28.71875 34.90625 
L 20.21875 34.90625 
L 20.21875 43.015625 
L 29.109375 43.015625 
Q 36.375 43.015625 40.234375 45.921875 
Q 44.09375 48.828125 44.09375 54.296875 
Q 44.09375 59.90625 40.109375 62.90625 
Q 36.140625 65.921875 28.71875 65.921875 
Q 24.65625 65.921875 20.015625 65.03125 
Q 15.375 64.15625 9.8125 62.3125 
L 9.8125 71.09375 
Q 15.4375 72.65625 20.34375 73.4375 
Q 25.25 74.21875 29.59375 74.21875 
Q 40.828125 74.21875 47.359375 69.109375 
Q 53.90625 64.015625 53.90625 55.328125 
Q 53.90625 49.265625 50.4375 45.09375 
Q 46.96875 40.921875 40.578125 39.3125 
z
" id="DejaVuSans-51"/>
      </defs>
      <g transform="translate(157.998304 322.182437)scale(0.1 -0.1)">
       <use xlink:href="#DejaVuSans-51"/>
       <use x="63.623047" xlink:href="#DejaVuSans-48"/>
       <use x="127.246094" xlink:href="#DejaVuSans-48"/>
       <use x="190.869141" xlink:href="#DejaVuSans-46"/>
       <use x="222.65625" xlink:href="#DejaVuSans-48"/>
      </g>
     </g>
    </g>
    <g id="xtick_4">
     <g id="line2d_4">
      <g>
       <use style="stroke:#000000;stroke-width:0.8;" x="205.138914" xlink:href="#m0b96e201eb" y="307.584"/>
      </g>
     </g>
     <g id="text_4">
      <!-- 400.0 -->
      <defs>
       <path d="M 37.796875 64.3125 
L 12.890625 25.390625 
L 37.796875 25.390625 
z
M 35.203125 72.90625 
L 47.609375 72.90625 
L 47.609375 25.390625 
L 58.015625 25.390625 
L 58.015625 17.1875 
L 47.609375 17.1875 
L 47.609375 0 
L 37.796875 0 
L 37.796875 17.1875 
L 4.890625 17.1875 
L 4.890625 26.703125 
z
" id="DejaVuSans-52"/>
      </defs>
      <g transform="translate(190.824851 322.182437)scale(0.1 -0.1)">
       <use xlink:href="#DejaVuSans-52"/>
       <use x="63.623047" xlink:href="#DejaVuSans-48"/>
       <use x="127.246094" xlink:href="#DejaVuSans-48"/>
       <use x="190.869141" xlink:href="#DejaVuSans-46"/>
       <use x="222.65625" xlink:href="#DejaVuSans-48"/>
      </g>
     </g>
    </g>
    <g id="xtick_5">
     <g id="line2d_5">
      <g>
       <use style="stroke:#000000;stroke-width:0.8;" x="237.96546" xlink:href="#m0b96e201eb" y="307.584"/>
      </g>
     </g>
     <g id="text_5">
      <!-- 500.0 -->
      <defs>
       <path d="M 10.796875 72.90625 
L 49.515625 72.90625 
L 49.515625 64.59375 
L 19.828125 64.59375 
L 19.828125 46.734375 
Q 21.96875 47.46875 24.109375 47.828125 
Q 26.265625 48.1875 28.421875 48.1875 
Q 40.625 48.1875 47.75 41.5 
Q 54.890625 34.8125 54.890625 23.390625 
Q 54.890625 11.625 47.5625 5.09375 
Q 40.234375 -1.421875 26.90625 -1.421875 
Q 22.3125 -1.421875 17.546875 -0.640625 
Q 12.796875 0.140625 7.71875 1.703125 
L 7.71875 11.625 
Q 12.109375 9.234375 16.796875 8.0625 
Q 21.484375 6.890625 26.703125 6.890625 
Q 35.15625 6.890625 40.078125 11.328125 
Q 45.015625 15.765625 45.015625 23.390625 
Q 45.015625 31 40.078125 35.4375 
Q 35.15625 39.890625 26.703125 39.890625 
Q 22.75 39.890625 18.8125 39.015625 
Q 14.890625 38.140625 10.796875 36.28125 
z
" id="DejaVuSans-53"/>
      </defs>
      <g transform="translate(223.651398 322.182437)scale(0.1 -0.1)">
       <use xlink:href="#DejaVuSans-53"/>
       <use x="63.623047" xlink:href="#DejaVuSans-48"/>
       <use x="127.246094" xlink:href="#DejaVuSans-48"/>
       <use x="190.869141" xlink:href="#DejaVuSans-46"/>
       <use x="222.65625" xlink:href="#DejaVuSans-48"/>
      </g>
     </g>
    </g>
    <g id="xtick_6">
     <g id="line2d_6">
      <g>
       <use style="stroke:#000000;stroke-width:0.8;" x="270.792007" xlink:href="#m0b96e201eb" y="307.584"/>
      </g>
     </g>
     <g id="text_6">
      <!-- 600.0 -->
      <defs>
       <path d="M 33.015625 40.375 
Q 26.375 40.375 22.484375 35.828125 
Q 18.609375 31.296875 18.609375 23.390625 
Q 18.609375 15.53125 22.484375 10.953125 
Q 26.375 6.390625 33.015625 6.390625 
Q 39.65625 6.390625 43.53125 10.953125 
Q 47.40625 15.53125 47.40625 23.390625 
Q 47.40625 31.296875 43.53125 35.828125 
Q 39.65625 40.375 33.015625 40.375 
z
M 52.59375 71.296875 
L 52.59375 62.3125 
Q 48.875 64.0625 45.09375 64.984375 
Q 41.3125 65.921875 37.59375 65.921875 
Q 27.828125 65.921875 22.671875 59.328125 
Q 17.53125 52.734375 16.796875 39.40625 
Q 19.671875 43.65625 24.015625 45.921875 
Q 28.375 48.1875 33.59375 48.1875 
Q 44.578125 48.1875 50.953125 41.515625 
Q 57.328125 34.859375 57.328125 23.390625 
Q 57.328125 12.15625 50.6875 5.359375 
Q 44.046875 -1.421875 33.015625 -1.421875 
Q 20.359375 -1.421875 13.671875 8.265625 
Q 6.984375 17.96875 6.984375 36.375 
Q 6.984375 53.65625 15.1875 63.9375 
Q 23.390625 74.21875 37.203125 74.21875 
Q 40.921875 74.21875 44.703125 73.484375 
Q 48.484375 72.75 52.59375 71.296875 
z
" id="DejaVuSans-54"/>
      </defs>
      <g transform="translate(256.477944 322.182437)scale(0.1 -0.1)">
       <use xlink:href="#DejaVuSans-54"/>
       <use x="63.623047" xlink:href="#DejaVuSans-48"/>
       <use x="127.246094" xlink:href="#DejaVuSans-48"/>
       <use x="190.869141" xlink:href="#DejaVuSans-46"/>
       <use x="222.65625" xlink:href="#DejaVuSans-48"/>
      </g>
     </g>
    </g>
    <g id="xtick_7">
     <g id="line2d_7">
      <g>
       <use style="stroke:#000000;stroke-width:0.8;" x="303.618553" xlink:href="#m0b96e201eb" y="307.584"/>
      </g>
     </g>
     <g id="text_7">
      <!-- 700.0 -->
      <defs>
       <path d="M 8.203125 72.90625 
L 55.078125 72.90625 
L 55.078125 68.703125 
L 28.609375 0 
L 18.3125 0 
L 43.21875 64.59375 
L 8.203125 64.59375 
z
" id="DejaVuSans-55"/>
      </defs>
      <g transform="translate(289.304491 322.182437)scale(0.1 -0.1)">
       <use xlink:href="#DejaVuSans-55"/>
       <use x="63.623047" xlink:href="#DejaVuSans-48"/>
       <use x="127.246094" xlink:href="#DejaVuSans-48"/>
       <use x="190.869141" xlink:href="#DejaVuSans-46"/>
       <use x="222.65625" xlink:href="#DejaVuSans-48"/>
      </g>
     </g>
    </g>
    <g id="xtick_8">
     <g id="line2d_8">
      <g>
       <use style="stroke:#000000;stroke-width:0.8;" x="336.4451" xlink:href="#m0b96e201eb" y="307.584"/>
      </g>
     </g>
     <g id="text_8">
      <!-- 800.0 -->
      <defs>
       <path d="M 31.78125 34.625 
Q 24.75 34.625 20.71875 30.859375 
Q 16.703125 27.09375 16.703125 20.515625 
Q 16.703125 13.921875 20.71875 10.15625 
Q 24.75 6.390625 31.78125 6.390625 
Q 38.8125 6.390625 42.859375 10.171875 
Q 46.921875 13.96875 46.921875 20.515625 
Q 46.921875 27.09375 42.890625 30.859375 
Q 38.875 34.625 31.78125 34.625 
z
M 21.921875 38.8125 
Q 15.578125 40.375 12.03125 44.71875 
Q 8.5 49.078125 8.5 55.328125 
Q 8.5 64.0625 14.71875 69.140625 
Q 20.953125 74.21875 31.78125 74.21875 
Q 42.671875 74.21875 48.875 69.140625 
Q 55.078125 64.0625 55.078125 55.328125 
Q 55.078125 49.078125 51.53125 44.71875 
Q 48 40.375 41.703125 38.8125 
Q 48.828125 37.15625 52.796875 32.3125 
Q 56.78125 27.484375 56.78125 20.515625 
Q 56.78125 9.90625 50.3125 4.234375 
Q 43.84375 -1.421875 31.78125 -1.421875 
Q 19.734375 -1.421875 13.25 4.234375 
Q 6.78125 9.90625 6.78125 20.515625 
Q 6.78125 27.484375 10.78125 32.3125 
Q 14.796875 37.15625 21.921875 38.8125 
z
M 18.3125 54.390625 
Q 18.3125 48.734375 21.84375 45.5625 
Q 25.390625 42.390625 31.78125 42.390625 
Q 38.140625 42.390625 41.71875 45.5625 
Q 45.3125 48.734375 45.3125 54.390625 
Q 45.3125 60.0625 41.71875 63.234375 
Q 38.140625 66.40625 31.78125 66.40625 
Q 25.390625 66.40625 21.84375 63.234375 
Q 18.3125 60.0625 18.3125 54.390625 
z
" id="DejaVuSans-56"/>
      </defs>
      <g transform="translate(322.131037 322.182437)scale(0.1 -0.1)">
       <use xlink:href="#DejaVuSans-56"/>
       <use x="63.623047" xlink:href="#DejaVuSans-48"/>
       <use x="127.246094" xlink:href="#DejaVuSans-48"/>
       <use x="190.869141" xlink:href="#DejaVuSans-46"/>
       <use x="222.65625" xlink:href="#DejaVuSans-48"/>
      </g>
     </g>
    </g>
    <g id="xtick_9">
     <g id="line2d_9">
      <g>
       <use style="stroke:#000000;stroke-width:0.8;" x="369.271646" xlink:href="#m0b96e201eb" y="307.584"/>
      </g>
     </g>
     <g id="text_9">
      <!-- 900.0 -->
      <defs>
       <path d="M 10.984375 1.515625 
L 10.984375 10.5 
Q 14.703125 8.734375 18.5 7.8125 
Q 22.3125 6.890625 25.984375 6.890625 
Q 35.75 6.890625 40.890625 13.453125 
Q 46.046875 20.015625 46.78125 33.40625 
Q 43.953125 29.203125 39.59375 26.953125 
Q 35.25 24.703125 29.984375 24.703125 
Q 19.046875 24.703125 12.671875 31.3125 
Q 6.296875 37.9375 6.296875 49.421875 
Q 6.296875 60.640625 12.9375 67.421875 
Q 19.578125 74.21875 30.609375 74.21875 
Q 43.265625 74.21875 49.921875 64.515625 
Q 56.59375 54.828125 56.59375 36.375 
Q 56.59375 19.140625 48.40625 8.859375 
Q 40.234375 -1.421875 26.421875 -1.421875 
Q 22.703125 -1.421875 18.890625 -0.6875 
Q 15.09375 0.046875 10.984375 1.515625 
z
M 30.609375 32.421875 
Q 37.25 32.421875 41.125 36.953125 
Q 45.015625 41.5 45.015625 49.421875 
Q 45.015625 57.28125 41.125 61.84375 
Q 37.25 66.40625 30.609375 66.40625 
Q 23.96875 66.40625 20.09375 61.84375 
Q 16.21875 57.28125 16.21875 49.421875 
Q 16.21875 41.5 20.09375 36.953125 
Q 23.96875 32.421875 30.609375 32.421875 
z
" id="DejaVuSans-57"/>
      </defs>
      <g transform="translate(354.957584 322.182437)scale(0.1 -0.1)">
       <use xlink:href="#DejaVuSans-57"/>
       <use x="63.623047" xlink:href="#DejaVuSans-48"/>
       <use x="127.246094" xlink:href="#DejaVuSans-48"/>
       <use x="190.869141" xlink:href="#DejaVuSans-46"/>
       <use x="222.65625" xlink:href="#DejaVuSans-48"/>
      </g>
     </g>
    </g>
    <g id="xtick_10">
     <g id="line2d_10">
      <g>
       <use style="stroke:#000000;stroke-width:0.8;" x="402.098193" xlink:href="#m0b96e201eb" y="307.584"/>
      </g>
     </g>
     <g id="text_10">
      <!-- 1000.0 -->
      <g transform="translate(384.60288 322.182437)scale(0.1 -0.1)">
       <use xlink:href="#DejaVuSans-49"/>
       <use x="63.623047" xlink:href="#DejaVuSans-48"/>
       <use x="127.246094" xlink:href="#DejaVuSans-48"/>
       <use x="190.869141" xlink:href="#DejaVuSans-48"/>
       <use x="254.492188" xlink:href="#DejaVuSans-46"/>
       <use x="286.279297" xlink:href="#DejaVuSans-48"/>
      </g>
     </g>
    </g>
    <g id="text_11">
     <!-- n -->
     <defs>
      <path d="M 54.890625 33.015625 
L 54.890625 0 
L 45.90625 0 
L 45.90625 32.71875 
Q 45.90625 40.484375 42.875 44.328125 
Q 39.84375 48.1875 33.796875 48.1875 
Q 26.515625 48.1875 22.3125 43.546875 
Q 18.109375 38.921875 18.109375 30.90625 
L 18.109375 0 
L 9.078125 0 
L 9.078125 54.6875 
L 18.109375 54.6875 
L 18.109375 46.1875 
Q 21.34375 51.125 25.703125 53.5625 
Q 30.078125 56 35.796875 56 
Q 45.21875 56 50.046875 50.171875 
Q 54.890625 44.34375 54.890625 33.015625 
z
" id="DejaVuSans-110"/>
     </defs>
     <g transform="translate(232.99125 335.860562)scale(0.1 -0.1)">
      <use xlink:href="#DejaVuSans-110"/>
     </g>
    </g>
   </g>
   <g id="matplotlib.axis_2">
    <g id="ytick_1">
     <g id="line2d_11">
      <defs>
       <path d="M 0 0 
L -3.5 0 
" id="m0ce65c5e71" style="stroke:#000000;stroke-width:0.8;"/>
      </defs>
      <g>
       <use style="stroke:#000000;stroke-width:0.8;" x="57.6" xlink:href="#m0ce65c5e71" y="305.980145"/>
      </g>
     </g>
     <g id="text_12">
      <!-- 0 -->
      <g transform="translate(44.2375 309.779364)scale(0.1 -0.1)">
       <use xlink:href="#DejaVuSans-48"/>
      </g>
     </g>
    </g>
    <g id="ytick_2">
     <g id="line2d_12">
      <g>
       <use style="stroke:#000000;stroke-width:0.8;" x="57.6" xlink:href="#m0ce65c5e71" y="266.815856"/>
      </g>
     </g>
     <g id="text_13">
      <!-- 50 -->
      <g transform="translate(37.875 270.615075)scale(0.1 -0.1)">
       <use xlink:href="#DejaVuSans-53"/>
       <use x="63.623047" xlink:href="#DejaVuSans-48"/>
      </g>
     </g>
    </g>
    <g id="ytick_3">
     <g id="line2d_13">
      <g>
       <use style="stroke:#000000;stroke-width:0.8;" x="57.6" xlink:href="#m0ce65c5e71" y="227.651568"/>
      </g>
     </g>
     <g id="text_14">
      <!-- 100 -->
      <g transform="translate(31.5125 231.450787)scale(0.1 -0.1)">
       <use xlink:href="#DejaVuSans-49"/>
       <use x="63.623047" xlink:href="#DejaVuSans-48"/>
       <use x="127.246094" xlink:href="#DejaVuSans-48"/>
      </g>
     </g>
    </g>
    <g id="ytick_4">
     <g id="line2d_14">
      <g>
       <use style="stroke:#000000;stroke-width:0.8;" x="57.6" xlink:href="#m0ce65c5e71" y="188.487279"/>
      </g>
     </g>
     <g id="text_15">
      <!-- 150 -->
      <g transform="translate(31.5125 192.286498)scale(0.1 -0.1)">
       <use xlink:href="#DejaVuSans-49"/>
       <use x="63.623047" xlink:href="#DejaVuSans-53"/>
       <use x="127.246094" xlink:href="#DejaVuSans-48"/>
      </g>
     </g>
    </g>
    <g id="ytick_5">
     <g id="line2d_15">
      <g>
       <use style="stroke:#000000;stroke-width:0.8;" x="57.6" xlink:href="#m0ce65c5e71" y="149.322991"/>
      </g>
     </g>
     <g id="text_16">
      <!-- 200 -->
      <g transform="translate(31.5125 153.122209)scale(0.1 -0.1)">
       <use xlink:href="#DejaVuSans-50"/>
       <use x="63.623047" xlink:href="#DejaVuSans-48"/>
       <use x="127.246094" xlink:href="#DejaVuSans-48"/>
      </g>
     </g>
    </g>
    <g id="ytick_6">
     <g id="line2d_16">
      <g>
       <use style="stroke:#000000;stroke-width:0.8;" x="57.6" xlink:href="#m0ce65c5e71" y="110.158702"/>
      </g>
     </g>
     <g id="text_17">
      <!-- 250 -->
      <g transform="translate(31.5125 113.957921)scale(0.1 -0.1)">
       <use xlink:href="#DejaVuSans-50"/>
       <use x="63.623047" xlink:href="#DejaVuSans-53"/>
       <use x="127.246094" xlink:href="#DejaVuSans-48"/>
      </g>
     </g>
    </g>
    <g id="ytick_7">
     <g id="line2d_17">
      <g>
       <use style="stroke:#000000;stroke-width:0.8;" x="57.6" xlink:href="#m0ce65c5e71" y="70.994414"/>
      </g>
     </g>
     <g id="text_18">
      <!-- 300 -->
      <g transform="translate(31.5125 74.793632)scale(0.1 -0.1)">
       <use xlink:href="#DejaVuSans-51"/>
       <use x="63.623047" xlink:href="#DejaVuSans-48"/>
       <use x="127.246094" xlink:href="#DejaVuSans-48"/>
      </g>
     </g>
    </g>
    <g id="text_19">
     <!-- speedup -->
     <defs>
      <path d="M 44.28125 53.078125 
L 44.28125 44.578125 
Q 40.484375 46.53125 36.375 47.5 
Q 32.28125 48.484375 27.875 48.484375 
Q 21.1875 48.484375 17.84375 46.4375 
Q 14.5 44.390625 14.5 40.28125 
Q 14.5 37.15625 16.890625 35.375 
Q 19.28125 33.59375 26.515625 31.984375 
L 29.59375 31.296875 
Q 39.15625 29.25 43.1875 25.515625 
Q 47.21875 21.78125 47.21875 15.09375 
Q 47.21875 7.46875 41.1875 3.015625 
Q 35.15625 -1.421875 24.609375 -1.421875 
Q 20.21875 -1.421875 15.453125 -0.5625 
Q 10.6875 0.296875 5.421875 2 
L 5.421875 11.28125 
Q 10.40625 8.6875 15.234375 7.390625 
Q 20.0625 6.109375 24.8125 6.109375 
Q 31.15625 6.109375 34.5625 8.28125 
Q 37.984375 10.453125 37.984375 14.40625 
Q 37.984375 18.0625 35.515625 20.015625 
Q 33.0625 21.96875 24.703125 23.78125 
L 21.578125 24.515625 
Q 13.234375 26.265625 9.515625 29.90625 
Q 5.8125 33.546875 5.8125 39.890625 
Q 5.8125 47.609375 11.28125 51.796875 
Q 16.75 56 26.8125 56 
Q 31.78125 56 36.171875 55.265625 
Q 40.578125 54.546875 44.28125 53.078125 
z
" id="DejaVuSans-115"/>
      <path d="M 18.109375 8.203125 
L 18.109375 -20.796875 
L 9.078125 -20.796875 
L 9.078125 54.6875 
L 18.109375 54.6875 
L 18.109375 46.390625 
Q 20.953125 51.265625 25.265625 53.625 
Q 29.59375 56 35.59375 56 
Q 45.5625 56 51.78125 48.09375 
Q 58.015625 40.1875 58.015625 27.296875 
Q 58.015625 14.40625 51.78125 6.484375 
Q 45.5625 -1.421875 35.59375 -1.421875 
Q 29.59375 -1.421875 25.265625 0.953125 
Q 20.953125 3.328125 18.109375 8.203125 
z
M 48.6875 27.296875 
Q 48.6875 37.203125 44.609375 42.84375 
Q 40.53125 48.484375 33.40625 48.484375 
Q 26.265625 48.484375 22.1875 42.84375 
Q 18.109375 37.203125 18.109375 27.296875 
Q 18.109375 17.390625 22.1875 11.75 
Q 26.265625 6.109375 33.40625 6.109375 
Q 40.53125 6.109375 44.609375 11.75 
Q 48.6875 17.390625 48.6875 27.296875 
z
" id="DejaVuSans-112"/>
      <path d="M 56.203125 29.59375 
L 56.203125 25.203125 
L 14.890625 25.203125 
Q 15.484375 15.921875 20.484375 11.0625 
Q 25.484375 6.203125 34.421875 6.203125 
Q 39.59375 6.203125 44.453125 7.46875 
Q 49.3125 8.734375 54.109375 11.28125 
L 54.109375 2.78125 
Q 49.265625 0.734375 44.1875 -0.34375 
Q 39.109375 -1.421875 33.890625 -1.421875 
Q 20.796875 -1.421875 13.15625 6.1875 
Q 5.515625 13.8125 5.515625 26.8125 
Q 5.515625 40.234375 12.765625 48.109375 
Q 20.015625 56 32.328125 56 
Q 43.359375 56 49.78125 48.890625 
Q 56.203125 41.796875 56.203125 29.59375 
z
M 47.21875 32.234375 
Q 47.125 39.59375 43.09375 43.984375 
Q 39.0625 48.390625 32.421875 48.390625 
Q 24.90625 48.390625 20.390625 44.140625 
Q 15.875 39.890625 15.1875 32.171875 
z
" id="DejaVuSans-101"/>
      <path d="M 45.40625 46.390625 
L 45.40625 75.984375 
L 54.390625 75.984375 
L 54.390625 0 
L 45.40625 0 
L 45.40625 8.203125 
Q 42.578125 3.328125 38.25 0.953125 
Q 33.9375 -1.421875 27.875 -1.421875 
Q 17.96875 -1.421875 11.734375 6.484375 
Q 5.515625 14.40625 5.515625 27.296875 
Q 5.515625 40.1875 11.734375 48.09375 
Q 17.96875 56 27.875 56 
Q 33.9375 56 38.25 53.625 
Q 42.578125 51.265625 45.40625 46.390625 
z
M 14.796875 27.296875 
Q 14.796875 17.390625 18.875 11.75 
Q 22.953125 6.109375 30.078125 6.109375 
Q 37.203125 6.109375 41.296875 11.75 
Q 45.40625 17.390625 45.40625 27.296875 
Q 45.40625 37.203125 41.296875 42.84375 
Q 37.203125 48.484375 30.078125 48.484375 
Q 22.953125 48.484375 18.875 42.84375 
Q 14.796875 37.203125 14.796875 27.296875 
z
" id="DejaVuSans-100"/>
      <path d="M 8.5 21.578125 
L 8.5 54.6875 
L 17.484375 54.6875 
L 17.484375 21.921875 
Q 17.484375 14.15625 20.5 10.265625 
Q 23.53125 6.390625 29.59375 6.390625 
Q 36.859375 6.390625 41.078125 11.03125 
Q 45.3125 15.671875 45.3125 23.6875 
L 45.3125 54.6875 
L 54.296875 54.6875 
L 54.296875 0 
L 45.3125 0 
L 45.3125 8.40625 
Q 42.046875 3.421875 37.71875 1 
Q 33.40625 -1.421875 27.6875 -1.421875 
Q 18.265625 -1.421875 13.375 4.4375 
Q 8.5 10.296875 8.5 21.578125 
z
M 31.109375 56 
z
" id="DejaVuSans-117"/>
     </defs>
     <g transform="translate(25.432812 195.977219)rotate(-90)scale(0.1 -0.1)">
      <use xlink:href="#DejaVuSans-115"/>
      <use x="52.099609" xlink:href="#DejaVuSans-112"/>
      <use x="115.576172" xlink:href="#DejaVuSans-101"/>
      <use x="177.099609" xlink:href="#DejaVuSans-101"/>
      <use x="238.623047" xlink:href="#DejaVuSans-100"/>
      <use x="302.099609" xlink:href="#DejaVuSans-117"/>
      <use x="365.478516" xlink:href="#DejaVuSans-112"/>
     </g>
    </g>
   </g>
   <g id="line2d_18">
    <path clip-path="url(#p2f92f087aa)" d="M 73.832727 138.499999 
L 74.160993 172.065215 
L 74.489258 73.019984 
L 74.817524 120.290627 
L 75.145789 120.950714 
L 75.474055 123.269509 
L 75.80232 128.385265 
L 76.130586 123.429972 
L 76.458851 209.559123 
L 76.787116 129.582087 
L 77.115382 144.381278 
L 77.443647 121.225815 
L 77.771913 142.719934 
L 78.100178 141.79977 
L 78.428444 141.399684 
L 78.756709 147.748708 
L 79.084975 162.973799 
L 79.41324 201.84233 
L 79.741506 163.307755 
L 80.069771 165.806936 
L 80.398037 169.487423 
L 80.726302 138.401262 
L 81.054568 166.303486 
L 81.382833 178.2581 
L 81.711098 163.648526 
L 82.039364 166.69935 
L 82.367629 181.963957 
L 82.695895 188.712855 
L 83.02416 171.729051 
L 83.352426 169.030557 
L 83.680691 181.099891 
L 84.337222 178.325016 
L 84.665488 180.237516 
L 84.993753 179.084237 
L 85.322019 181.835511 
L 85.650284 162.291859 
L 85.978549 190.949476 
L 86.306815 172.311795 
L 86.63508 174.293514 
L 86.963346 185.223237 
L 87.291611 207.796229 
L 87.619877 206.806964 
L 87.948142 181.113079 
L 88.276408 201.299512 
L 88.604673 179.491076 
L 88.932939 190.899977 
L 89.261204 208.855947 
L 89.58947 208.874303 
L 89.917735 210.236244 
L 90.246001 210.447082 
L 90.574266 244.332322 
L 90.902531 210.29931 
L 91.230797 203.300653 
L 91.559062 208.342744 
L 91.887328 232.802325 
L 92.215593 203.526547 
L 92.543859 201.747519 
L 92.872124 211.58687 
L 93.20039 197.909413 
L 93.528655 189.940755 
L 93.856921 202.56658 
L 94.185186 208.647605 
L 94.513452 197.516106 
L 94.841717 210.052472 
L 95.169983 196.241782 
L 95.498248 197.168194 
L 95.826513 195.223971 
L 96.154779 214.883063 
L 96.483044 195.92642 
L 96.81131 215.206992 
L 97.139575 224.595895 
L 97.467841 203.220691 
L 97.796106 216.329031 
L 98.124372 218.450063 
L 98.452637 208.520128 
L 98.780903 231.930156 
L 99.109168 210.759914 
L 99.437434 216.890963 
L 99.765699 234.599586 
L 100.093965 213.674295 
L 100.42223 216.278522 
L 100.750495 209.654567 
L 101.078761 222.72939 
L 101.407026 221.820809 
L 101.735292 226.62728 
L 102.063557 221.346966 
L 102.391823 217.911441 
L 102.720088 208.866517 
L 103.376619 221.622452 
L 103.704885 219.495197 
L 104.03315 213.87051 
L 104.361416 216.623117 
L 104.689681 208.604477 
L 105.346212 200.11037 
L 106.002743 229.757032 
L 106.659274 204.631579 
L 106.987539 221.906731 
L 107.315805 231.819728 
L 107.64407 229.971134 
L 107.972336 232.987956 
L 108.300601 233.721067 
L 108.628867 222.033104 
L 108.957132 229.16956 
L 109.285398 254.848817 
L 109.613663 234.339001 
L 110.270194 226.665662 
L 110.598459 231.397099 
L 110.926725 234.378785 
L 111.25499 226.95212 
L 111.583256 227.621175 
L 111.911521 224.255515 
L 112.239787 252.570327 
L 112.568052 221.305686 
L 112.896318 232.057061 
L 113.224583 229.638351 
L 113.552849 214.838945 
L 114.20938 245.074397 
L 114.537645 228.329959 
L 114.86591 244.93873 
L 115.194176 225.565002 
L 115.522441 252.506349 
L 115.850707 224.878503 
L 116.507238 238.100487 
L 116.835503 241.006333 
L 117.163769 237.871391 
L 117.492034 238.147184 
L 117.8203 242.219544 
L 118.148565 231.816504 
L 118.476831 237.046742 
L 118.805096 230.71488 
L 119.133362 231.917588 
L 119.461627 243.330182 
L 119.789892 230.842701 
L 120.118158 235.528736 
L 120.446423 225.155336 
L 120.774689 234.363398 
L 121.102954 235.481508 
L 121.43122 228.897504 
L 121.759485 235.430513 
L 122.087751 249.15211 
L 123.072547 234.125263 
L 123.400813 247.30079 
L 123.729078 246.947828 
L 124.057344 229.54457 
L 124.385609 231.849458 
L 125.04214 247.541091 
L 125.370405 233.225747 
L 126.026936 243.600415 
L 126.683467 248.814453 
L 127.011733 254.959694 
L 127.339998 236.784475 
L 127.668264 242.635823 
L 127.996529 238.065715 
L 128.324795 239.760589 
L 128.65306 234.177735 
L 128.981325 233.050017 
L 129.309591 245.013625 
L 129.637856 246.233283 
L 129.966122 242.61777 
L 130.294387 241.782708 
L 130.622653 243.007029 
L 130.950918 257.9414 
L 131.279184 242.576346 
L 131.607449 240.026359 
L 131.935715 245.222185 
L 132.26398 240.359915 
L 132.592246 244.592284 
L 132.920511 241.227367 
L 133.248777 247.278825 
L 133.577042 247.914605 
L 133.905307 251.319444 
L 134.233573 250.089602 
L 134.561838 250.476935 
L 134.890104 241.823533 
L 135.546635 250.342027 
L 135.8749 249.960795 
L 136.203166 244.981835 
L 136.531431 246.430775 
L 136.859697 243.221203 
L 137.187962 243.502318 
L 137.516228 247.361535 
L 137.844493 246.018261 
L 138.172759 248.577676 
L 138.501024 244.184769 
L 138.829289 250.997557 
L 139.157555 224.906121 
L 139.48582 260.918797 
L 139.814086 256.207456 
L 140.142351 253.783476 
L 140.470617 244.496681 
L 140.798882 250.575586 
L 141.127148 253.339428 
L 141.455413 244.252953 
L 141.783679 249.78292 
L 142.111944 247.048084 
L 142.44021 255.031725 
L 142.768475 254.784255 
L 143.096741 234.027656 
L 143.425006 250.088931 
L 143.753271 251.930588 
L 144.081537 250.094803 
L 144.409802 250.14917 
L 144.738068 254.594919 
L 145.066333 253.974975 
L 145.394599 247.815514 
L 145.722864 249.888202 
L 146.05113 254.254659 
L 146.379395 252.871469 
L 146.707661 257.117277 
L 147.035926 245.534268 
L 147.364192 250.259747 
L 147.692457 247.809958 
L 148.020722 256.083049 
L 148.677253 250.08713 
L 149.005519 272.32147 
L 149.333784 264.403261 
L 149.66205 250.523109 
L 149.990315 251.089827 
L 150.318581 249.318838 
L 150.646846 251.05532 
L 150.975112 250.973428 
L 151.631643 255.444631 
L 151.959908 251.111738 
L 152.288174 267.300296 
L 152.616439 253.568944 
L 152.944704 256.988158 
L 153.27297 237.658686 
L 153.601235 258.71152 
L 153.929501 252.178749 
L 154.257766 255.040793 
L 154.586032 253.300534 
L 155.242563 243.340912 
L 155.570828 255.378313 
L 155.899094 254.505696 
L 156.227359 254.988972 
L 156.555625 253.429115 
L 156.88389 258.070716 
L 157.212156 253.831245 
L 157.540421 254.346255 
L 157.868686 257.419688 
L 158.196952 254.503938 
L 158.525217 253.051242 
L 159.181748 256.330307 
L 159.510014 260.025324 
L 159.838279 258.448849 
L 160.166545 256.28671 
L 160.49481 255.291935 
L 160.823076 252.927818 
L 161.151341 268.020324 
L 161.479607 255.807254 
L 161.807872 257.67163 
L 162.136138 257.876201 
L 162.464403 260.902566 
L 162.792668 261.057295 
L 163.120934 273.409559 
L 163.449199 256.070047 
L 163.777465 261.72158 
L 164.10573 258.324005 
L 164.433996 256.854948 
L 164.762261 258.995129 
L 165.090527 258.669907 
L 165.418792 257.915548 
L 165.747058 260.496825 
L 166.075323 258.76709 
L 166.403589 261.557656 
L 166.731854 266.933797 
L 167.060119 261.581455 
L 167.388385 260.01329 
L 167.71665 257.8475 
L 168.044916 261.941785 
L 168.373181 263.219177 
L 168.701447 276.383402 
L 169.029712 248.945499 
L 169.357978 247.9227 
L 169.686243 258.998522 
L 170.014509 261.652604 
L 170.342774 265.991257 
L 170.67104 247.095746 
L 170.999305 260.07594 
L 171.327571 259.617313 
L 171.655836 261.82858 
L 171.984101 262.729018 
L 172.312367 257.980846 
L 172.640632 262.014695 
L 172.968898 264.325021 
L 173.297163 262.154031 
L 173.625429 261.247086 
L 173.953694 268.185554 
L 174.28196 263.496508 
L 174.610225 265.057361 
L 174.938491 264.585535 
L 175.266756 263.078483 
L 175.595022 258.711411 
L 175.923287 260.406474 
L 176.251553 264.56577 
L 176.579818 260.57644 
L 176.908083 259.767724 
L 177.236349 262.648944 
L 177.564614 274.306265 
L 178.221145 262.039981 
L 178.549411 263.57352 
L 178.877676 265.843765 
L 179.534207 264.109468 
L 179.862473 265.187907 
L 180.190738 264.526322 
L 180.519004 266.390035 
L 180.847269 265.233602 
L 181.175535 266.786092 
L 181.5038 265.565454 
L 181.832065 262.104074 
L 182.160331 262.902909 
L 182.488596 262.880098 
L 183.145127 263.708692 
L 183.473393 263.254607 
L 183.801658 265.860674 
L 184.129924 264.244821 
L 184.458189 266.33477 
L 184.786455 253.536777 
L 185.11472 265.11038 
L 185.442986 264.191119 
L 185.771251 271.933963 
L 186.099516 266.728575 
L 186.427782 266.58888 
L 186.756047 269.276155 
L 187.084313 266.308602 
L 187.412578 265.012389 
L 187.740844 265.186802 
L 188.069109 263.609745 
L 188.397375 267.106277 
L 188.72564 267.86451 
L 189.053906 264.023985 
L 189.382171 275.565042 
L 189.710437 268.490743 
L 190.038702 264.154801 
L 190.366968 263.944163 
L 191.023498 268.286607 
L 191.351764 267.673813 
L 191.680029 265.378675 
L 192.008295 265.647642 
L 192.33656 268.36436 
L 192.664826 268.975631 
L 192.993091 267.347503 
L 193.321357 268.776256 
L 193.649622 266.054559 
L 193.977888 266.459256 
L 194.306153 274.303612 
L 194.634419 264.005381 
L 194.962684 269.036528 
L 195.29095 266.626797 
L 195.619215 267.003457 
L 195.94748 266.2368 
L 196.275746 266.034293 
L 196.604011 266.714615 
L 196.932277 266.129498 
L 197.260542 257.567379 
L 197.588808 272.266824 
L 198.573604 265.455503 
L 198.90187 262.030833 
L 199.230135 266.509182 
L 199.558401 267.572347 
L 199.886666 270.285433 
L 200.214932 269.415143 
L 200.543197 269.613497 
L 200.871462 269.958612 
L 201.199728 268.856835 
L 201.527993 269.789085 
L 201.856259 268.584889 
L 202.184524 269.609946 
L 202.51279 270.135562 
L 202.841055 268.007502 
L 203.169321 270.399046 
L 203.825852 267.158719 
L 204.154117 268.969361 
L 204.482383 268.818736 
L 204.810648 268.372564 
L 205.138914 268.941339 
L 205.467179 267.847376 
L 205.795444 275.955615 
L 206.12371 267.510872 
L 206.451975 270.88437 
L 206.780241 270.23752 
L 207.108506 268.187662 
L 207.436772 272.718912 
L 208.093303 268.296219 
L 208.421568 269.456127 
L 208.749834 270.097841 
L 209.078099 271.575458 
L 209.406365 269.695354 
L 209.73463 269.889511 
L 210.391161 272.384987 
L 210.719426 269.788447 
L 211.047692 271.12945 
L 211.375957 275.075347 
L 211.704223 270.449064 
L 212.032488 270.425892 
L 212.360754 266.774135 
L 212.689019 271.016153 
L 213.017285 270.854185 
L 213.34555 271.454942 
L 213.673816 270.883447 
L 214.002081 268.217626 
L 214.330347 272.279558 
L 214.658612 270.811844 
L 214.986877 270.877151 
L 215.315143 270.451317 
L 215.643408 269.358388 
L 215.971674 274.491638 
L 216.299939 270.82186 
L 216.628205 270.851836 
L 216.95647 271.338138 
L 217.284736 272.525426 
L 217.613001 270.573821 
L 217.941267 276.195016 
L 218.269532 271.846342 
L 218.597798 273.900647 
L 218.926063 272.687193 
L 219.254329 272.675663 
L 219.582594 273.987591 
L 219.910859 271.306006 
L 220.239125 271.651328 
L 220.56739 271.441443 
L 220.895656 274.36616 
L 221.223921 274.095097 
L 221.552187 272.398977 
L 221.880452 273.299816 
L 222.208718 273.335991 
L 222.536983 271.40822 
L 222.865249 273.084012 
L 223.52178 271.78223 
L 223.850045 272.208873 
L 224.178311 275.183898 
L 224.506576 271.939475 
L 225.163107 273.434705 
L 225.491372 272.020461 
L 225.819638 275.047755 
L 226.147903 259.65041 
L 226.476169 271.683558 
L 226.804434 272.487057 
L 227.1327 270.130165 
L 227.460965 273.136798 
L 227.789231 277.629642 
L 228.117496 274.372255 
L 228.445762 273.329929 
L 228.774027 270.347209 
L 229.102292 272.73412 
L 229.430558 271.882179 
L 229.758823 273.544101 
L 230.087089 273.267079 
L 230.415354 270.029875 
L 231.071885 276.845587 
L 231.400151 273.946971 
L 231.728416 274.869491 
L 232.056682 272.25172 
L 232.384947 275.391164 
L 232.713213 274.812175 
L 233.041478 274.938884 
L 233.369744 274.003337 
L 233.698009 272.652275 
L 234.026274 273.959893 
L 234.35454 273.401264 
L 234.682805 273.804767 
L 235.011071 275.007591 
L 235.339336 270.88911 
L 235.667602 274.909701 
L 235.995867 275.071238 
L 236.324133 274.36233 
L 236.652398 274.834676 
L 236.980664 273.672776 
L 237.308929 275.382566 
L 237.637195 274.855457 
L 237.96546 274.581962 
L 238.293726 273.992653 
L 238.621991 275.922357 
L 239.278522 273.710526 
L 239.606787 275.600326 
L 239.935053 274.364457 
L 240.263318 280.237034 
L 240.591584 275.035859 
L 240.919849 275.50628 
L 241.248115 276.983652 
L 241.57638 273.086963 
L 241.904646 275.137413 
L 242.232911 275.729324 
L 242.561177 275.087374 
L 242.889442 275.133592 
L 243.217708 273.226343 
L 243.545973 276.24009 
L 243.874238 276.121728 
L 244.202504 275.302242 
L 244.530769 275.246553 
L 244.859035 268.205974 
L 245.1873 276.445641 
L 245.515566 276.260798 
L 245.843831 275.652215 
L 246.172097 273.78794 
L 246.500362 276.118483 
L 246.828628 274.768795 
L 247.156893 275.706613 
L 247.485159 275.503983 
L 247.813424 272.584113 
L 248.141689 275.771458 
L 248.469955 276.189836 
L 248.79822 279.931788 
L 249.126486 276.824718 
L 249.454751 271.325954 
L 249.783017 273.320261 
L 250.111282 276.625849 
L 250.439548 275.798276 
L 250.767813 275.307272 
L 251.096079 274.422101 
L 251.424344 270.983 
L 251.75261 276.674124 
L 252.080875 275.769918 
L 252.737406 277.050855 
L 253.065671 276.493935 
L 253.393937 276.72083 
L 253.722202 276.482621 
L 254.050468 275.265286 
L 254.378733 276.770753 
L 255.035264 277.652101 
L 255.36353 276.646024 
L 255.691795 277.167102 
L 256.020061 276.990844 
L 256.348326 276.435523 
L 256.676592 276.699545 
L 257.004857 269.202175 
L 257.333123 277.078828 
L 257.661388 277.413068 
L 257.989653 276.415508 
L 258.317919 276.939729 
L 258.646184 277.710738 
L 258.97445 276.851997 
L 259.302715 277.708265 
L 259.630981 281.220006 
L 259.959246 274.676954 
L 260.287512 278.229251 
L 260.615777 277.40622 
L 260.944043 276.906019 
L 261.272308 277.054964 
L 261.600574 279.817238 
L 261.928839 280.80337 
L 262.257105 277.748564 
L 262.58537 277.41224 
L 262.913635 277.514361 
L 263.241901 277.02787 
L 263.570166 278.597229 
L 263.898432 277.597259 
L 264.226697 277.691762 
L 264.554963 277.409948 
L 264.883228 277.901983 
L 265.211494 277.960172 
L 265.539759 277.741986 
L 265.868025 277.197203 
L 266.19629 277.869296 
L 266.524556 277.975345 
L 266.852821 278.391729 
L 267.181086 281.173304 
L 267.509352 277.719265 
L 267.837617 278.121701 
L 268.165883 280.004288 
L 268.494148 277.806375 
L 268.822414 277.395189 
L 269.150679 278.759885 
L 269.478945 278.126419 
L 269.80721 277.952493 
L 270.135476 278.754893 
L 270.463741 278.03242 
L 270.792007 278.238258 
L 271.120272 277.938273 
L 271.448538 278.798004 
L 271.776803 277.705473 
L 272.105068 276.219633 
L 272.433334 278.303352 
L 272.761599 277.223942 
L 273.089865 278.816108 
L 273.41813 270.429207 
L 273.746396 278.657466 
L 274.074661 278.229555 
L 274.402927 278.063133 
L 275.059458 262.692763 
L 275.387723 278.807241 
L 275.715989 278.766881 
L 276.044254 276.13094 
L 276.37252 279.551785 
L 276.700785 278.960178 
L 277.02905 279.115287 
L 277.357316 268.530387 
L 277.685581 279.811282 
L 278.342112 278.724746 
L 278.670378 274.91917 
L 278.998643 279.395252 
L 279.326909 278.442272 
L 279.655174 278.820187 
L 279.98344 278.794161 
L 280.311705 281.512512 
L 280.639971 278.820952 
L 280.968236 280.24114 
L 281.624767 278.237338 
L 281.953032 279.128316 
L 282.281298 278.904182 
L 282.609563 278.961626 
L 282.937829 278.64977 
L 283.266094 280.763715 
L 283.59436 279.405397 
L 283.922625 280.14802 
L 284.250891 279.523364 
L 284.579156 279.233298 
L 284.907422 280.306292 
L 285.235687 279.67192 
L 285.563953 279.953617 
L 285.892218 270.753133 
L 286.220484 278.996052 
L 286.877014 279.900881 
L 287.20528 279.824787 
L 287.533545 282.383976 
L 287.861811 279.658011 
L 288.518342 279.691981 
L 288.846607 286.293156 
L 289.174873 279.8477 
L 289.503138 279.830707 
L 289.831404 279.291887 
L 290.159669 280.703693 
L 290.487935 280.044706 
L 290.8162 279.73038 
L 291.144465 279.952977 
L 291.472731 272.971359 
L 291.800996 279.911706 
L 292.129262 280.037871 
L 292.457527 284.011074 
L 292.785793 280.29049 
L 293.442324 279.894236 
L 293.770589 280.45479 
L 294.098855 279.608736 
L 294.42712 276.016844 
L 294.755386 280.877878 
L 295.083651 280.941914 
L 295.411917 280.4593 
L 295.740182 279.482392 
L 296.396713 280.960113 
L 296.724978 280.006419 
L 297.053244 280.217112 
L 297.381509 280.231597 
L 297.709775 281.012629 
L 298.03804 281.093216 
L 298.366306 280.636396 
L 298.694571 280.545305 
L 299.022837 282.2719 
L 299.351102 281.068875 
L 300.335899 280.475967 
L 300.664164 280.514819 
L 300.992429 281.08085 
L 301.320695 286.874191 
L 301.64896 279.700335 
L 301.977226 280.663473 
L 302.305491 280.55586 
L 302.633757 278.252037 
L 302.962022 280.662164 
L 303.290288 280.066095 
L 303.618553 280.911129 
L 304.275084 280.760755 
L 304.931615 281.249592 
L 305.259881 281.459181 
L 305.588146 279.638602 
L 305.916411 281.644796 
L 306.244677 281.030573 
L 306.572942 280.770312 
L 306.901208 280.855763 
L 307.229473 279.995705 
L 307.557739 281.258101 
L 308.21427 279.910204 
L 308.542535 281.079752 
L 308.870801 281.544618 
L 309.199066 278.559611 
L 309.527332 281.025241 
L 309.855597 280.794943 
L 310.183862 281.818821 
L 310.512128 281.624945 
L 310.840393 281.591388 
L 311.168659 280.076813 
L 311.496924 279.377888 
L 311.82519 281.693772 
L 312.153455 281.198961 
L 312.481721 282.23298 
L 312.809986 281.52825 
L 313.138252 281.092741 
L 313.466517 283.754119 
L 313.794783 281.319568 
L 314.123048 281.416208 
L 314.451314 281.303117 
L 314.779579 286.157276 
L 315.107844 280.889612 
L 315.43611 281.326302 
L 315.764375 281.999375 
L 316.092641 285.178832 
L 316.420906 282.573107 
L 316.749172 282.02018 
L 317.077437 280.591759 
L 317.405703 281.616237 
L 318.062234 282.242659 
L 318.390499 281.677661 
L 318.718765 284.911295 
L 319.04703 281.350508 
L 319.703561 282.210374 
L 320.031826 281.675079 
L 320.360092 284.017492 
L 320.688357 284.754912 
L 321.016623 279.15434 
L 321.344888 281.889764 
L 321.673154 282.235568 
L 322.001419 281.788625 
L 322.329685 282.318746 
L 322.65795 280.668205 
L 322.986216 282.021817 
L 323.314481 282.594309 
L 323.642747 277.952873 
L 323.971012 281.800671 
L 324.299278 281.651311 
L 324.627543 282.277045 
L 324.955808 279.722159 
L 325.284074 282.293243 
L 325.612339 282.121938 
L 325.940605 282.102401 
L 326.26887 279.027593 
L 326.597136 279.686592 
L 326.925401 282.888612 
L 327.253667 279.0375 
L 327.581932 282.238013 
L 327.910198 282.434978 
L 328.238463 282.860781 
L 328.566729 282.693416 
L 328.894994 279.102493 
L 329.223259 282.89218 
L 329.551525 282.462893 
L 329.87979 282.767984 
L 330.208056 281.557794 
L 330.864587 285.009675 
L 331.192852 282.406814 
L 331.521118 284.624786 
L 331.849383 282.944685 
L 332.177649 282.828403 
L 332.505914 281.500997 
L 332.83418 282.381083 
L 333.490711 282.933674 
L 333.818976 283.034612 
L 334.147241 283.444879 
L 334.475507 281.435509 
L 334.803772 282.256182 
L 335.132038 281.335591 
L 335.460303 284.77592 
L 335.788569 282.554193 
L 336.116834 282.861921 
L 336.4451 289.860973 
L 336.773365 283.115047 
L 337.101631 283.022999 
L 337.429896 282.440151 
L 337.758162 283.195415 
L 338.086427 284.876699 
L 338.414693 283.310041 
L 339.399489 283.203102 
L 340.05602 282.029173 
L 340.712551 283.191073 
L 341.040816 283.130111 
L 341.369082 281.520362 
L 341.697347 283.229881 
L 342.025613 282.31001 
L 342.353878 283.602582 
L 342.682144 282.618134 
L 343.010409 285.924647 
L 343.338675 283.861675 
L 343.66694 283.350049 
L 343.995205 282.176621 
L 344.323471 283.245706 
L 344.651736 283.753261 
L 344.980002 283.41063 
L 345.308267 281.248933 
L 345.636533 282.623892 
L 345.964798 282.047057 
L 346.293064 283.733137 
L 346.621329 282.128989 
L 346.949595 277.018586 
L 347.27786 283.716993 
L 347.606126 281.767837 
L 347.934391 282.824735 
L 348.262656 283.351206 
L 348.590922 283.660361 
L 349.247453 283.402121 
L 349.575718 285.15818 
L 349.903984 283.858627 
L 350.232249 283.659949 
L 350.560515 284.788896 
L 351.217046 283.283232 
L 351.545311 283.554255 
L 351.873577 284.009144 
L 352.201842 284.040147 
L 352.530108 283.852963 
L 352.858373 282.184478 
L 353.186638 284.107209 
L 353.843169 283.603205 
L 354.171435 283.968546 
L 354.827966 284.281077 
L 355.156231 284.030688 
L 355.484497 283.317958 
L 355.812762 283.852911 
L 356.141028 283.751087 
L 356.469293 283.932803 
L 356.797559 283.346252 
L 357.125824 284.022153 
L 357.45409 284.161596 
L 357.782355 283.892638 
L 358.11062 284.330808 
L 358.438886 283.711166 
L 358.767151 284.39632 
L 359.095417 283.758316 
L 359.423682 283.908909 
L 359.751948 284.504755 
L 360.080213 283.636811 
L 360.408479 283.722144 
L 360.736744 283.655952 
L 361.06501 284.553137 
L 361.393275 284.625524 
L 361.721541 283.777229 
L 362.049806 284.616663 
L 362.378072 284.185177 
L 362.706337 284.480425 
L 363.034602 284.106651 
L 363.362868 284.800017 
L 363.691133 284.484546 
L 364.019399 284.573372 
L 364.347664 284.141302 
L 364.67593 287.798838 
L 365.004195 284.734525 
L 365.332461 284.215625 
L 365.988992 284.458082 
L 366.317257 284.668552 
L 366.645523 285.573416 
L 366.973788 280.340527 
L 367.302053 280.552803 
L 367.630319 284.783969 
L 367.958584 284.651286 
L 368.28685 284.335248 
L 368.615115 284.798282 
L 368.943381 275.201168 
L 369.271646 284.957797 
L 369.599912 284.515923 
L 369.928177 284.817084 
L 370.256443 284.059408 
L 370.584708 284.85426 
L 370.912974 285.02357 
L 371.241239 278.012585 
L 371.569505 284.70094 
L 371.89777 285.021986 
L 372.226035 284.846434 
L 372.554301 284.478776 
L 372.882566 285.120086 
L 373.210832 284.966843 
L 373.539097 284.950779 
L 373.867363 280.809648 
L 374.195628 285.326404 
L 374.523894 282.429998 
L 374.852159 288.16822 
L 375.836956 279.7982 
L 376.165221 285.232878 
L 376.821752 285.415772 
L 377.150017 285.223961 
L 377.478283 285.219347 
L 377.806548 284.177516 
L 378.134814 284.800988 
L 378.463079 284.957474 
L 379.11961 285.402014 
L 379.447876 285.287524 
L 379.776141 285.399742 
L 380.104407 285.199424 
L 380.432672 285.815591 
L 380.760938 285.460912 
L 381.089203 285.358231 
L 381.417469 284.30782 
L 381.745734 285.399441 
L 382.402265 285.316085 
L 382.73053 284.599788 
L 383.058796 285.645915 
L 383.387061 285.427008 
L 383.715327 285.355524 
L 384.043592 285.571675 
L 384.371858 287.803816 
L 384.700123 282.923043 
L 385.356654 285.442061 
L 385.68492 285.483157 
L 386.013185 285.726179 
L 386.341451 285.592112 
L 386.669716 285.726529 
L 386.997981 285.196937 
L 387.654512 285.459277 
L 388.311043 285.504392 
L 388.639309 285.197096 
L 388.967574 285.6311 
L 389.29584 287.33392 
L 389.624105 285.980713 
L 389.952371 285.365124 
L 390.280636 285.74971 
L 390.937167 285.392856 
L 391.265432 285.840471 
L 391.593698 285.944494 
L 391.921963 285.912173 
L 392.250229 286.767045 
L 392.578494 285.785731 
L 392.90676 285.967964 
L 393.235025 284.944392 
L 393.563291 285.776664 
L 393.891556 285.985942 
L 394.219822 285.874599 
L 394.548087 285.579688 
L 394.876353 286.080883 
L 395.204618 285.947119 
L 395.532884 285.212541 
L 395.861149 286.262884 
L 396.189414 285.834051 
L 396.51768 286.130989 
L 396.845945 284.67505 
L 397.174211 286.131699 
L 397.502476 286.161116 
L 397.830742 286.049635 
L 398.159007 285.222865 
L 398.487273 286.139364 
L 398.487273 286.139364 
" style="fill:none;stroke:#1f77b4;stroke-linecap:square;stroke-width:1.5;"/>
   </g>
   <g id="line2d_19">
    <path clip-path="url(#p2f92f087aa)" d="M 73.832727 131.252896 
L 74.160993 53.568 
L 74.489258 180.903312 
L 74.817524 148.867185 
L 75.145789 141.268204 
L 75.474055 141.331868 
L 76.458851 158.336737 
L 77.115382 168.187909 
L 77.443647 166.942108 
L 77.771913 172.397853 
L 78.100178 155.791443 
L 78.428444 159.581944 
L 78.756709 166.471168 
L 79.084975 160.108479 
L 79.741506 190.475815 
L 80.069771 182.822753 
L 80.398037 146.246858 
L 80.726302 205.363074 
L 81.054568 173.826222 
L 81.382833 127.338637 
L 81.711098 172.807291 
L 82.039364 192.607199 
L 82.367629 201.809306 
L 82.695895 186.248986 
L 83.02416 193.822915 
L 83.352426 193.954641 
L 83.680691 190.468914 
L 84.008957 194.711943 
L 84.337222 201.476246 
L 84.665488 211.535972 
L 84.993753 213.857169 
L 85.322019 207.535366 
L 85.650284 214.356761 
L 85.978549 223.871864 
L 86.306815 209.860935 
L 86.63508 217.40356 
L 86.963346 210.451629 
L 87.291611 222.357645 
L 87.619877 225.87546 
L 87.948142 219.939124 
L 88.276408 218.936982 
L 88.604673 217.171426 
L 88.932939 203.3592 
L 89.58947 233.975372 
L 89.917735 220.060558 
L 90.246001 234.932388 
L 90.574266 223.027105 
L 90.902531 219.111494 
L 91.230797 224.30146 
L 91.559062 209.630444 
L 91.887328 205.419766 
L 92.215593 215.55324 
L 92.543859 237.379361 
L 92.872124 222.821475 
L 93.20039 227.759982 
L 93.528655 225.274543 
L 93.856921 225.87922 
L 94.185186 239.065624 
L 94.513452 224.503056 
L 94.841717 232.87274 
L 95.169983 224.398216 
L 95.498248 224.034057 
L 96.154779 237.631829 
L 96.483044 227.214733 
L 96.81131 230.604209 
L 97.139575 232.439461 
L 97.467841 239.54998 
L 97.796106 239.922171 
L 98.124372 240.767476 
L 98.452637 209.196626 
L 98.780903 252.498899 
L 99.109168 242.146396 
L 99.437434 243.377232 
L 100.093965 236.040267 
L 100.42223 241.7532 
L 100.750495 239.033576 
L 101.078761 238.218709 
L 101.407026 240.070848 
L 101.735292 238.26214 
L 102.391823 243.453777 
L 102.720088 239.280014 
L 103.048354 217.983045 
L 103.376619 263.27969 
L 103.704885 244.222214 
L 104.03315 242.023822 
L 104.361416 249.155517 
L 104.689681 250.660891 
L 105.017947 249.049417 
L 105.346212 245.846231 
L 105.674477 248.075052 
L 106.002743 252.770528 
L 106.331008 245.77164 
L 106.659274 251.198772 
L 106.987539 252.398289 
L 107.315805 245.805588 
L 107.64407 245.480878 
L 107.972336 262.536474 
L 108.300601 250.258877 
L 108.628867 246.718845 
L 108.957132 255.276875 
L 109.285398 251.738872 
L 109.613663 256.636349 
L 109.941928 254.481367 
L 110.270194 250.907896 
L 110.598459 249.42522 
L 110.926725 254.903708 
L 111.25499 254.729931 
L 111.911521 256.104998 
L 112.239787 253.701454 
L 112.568052 257.392368 
L 112.896318 230.399329 
L 113.224583 250.794356 
L 113.552849 259.15053 
L 113.881114 257.485912 
L 114.20938 251.822268 
L 114.537645 258.465367 
L 114.86591 252.708347 
L 115.194176 252.907177 
L 115.522441 257.589998 
L 115.850707 259.896699 
L 116.178972 258.988559 
L 116.507238 259.403367 
L 116.835503 263.415159 
L 117.163769 258.200026 
L 117.492034 259.641582 
L 117.8203 256.499333 
L 118.476831 261.573925 
L 118.805096 263.154181 
L 119.133362 260.327472 
L 119.461627 266.177846 
L 119.789892 261.051022 
L 120.118158 261.069247 
L 120.446423 259.00156 
L 120.774689 258.784139 
L 121.102954 259.017651 
L 121.43122 263.212762 
L 121.759485 264.233084 
L 122.087751 260.310746 
L 122.416016 262.94583 
L 122.744282 260.955899 
L 123.072547 259.797284 
L 123.400813 261.159742 
L 123.729078 261.4959 
L 124.057344 263.97584 
L 124.385609 264.746814 
L 124.713874 265.18948 
L 125.04214 264.624055 
L 125.370405 265.938224 
L 125.698671 264.760778 
L 126.026936 263.098596 
L 126.355202 266.16624 
L 126.683467 262.932389 
L 127.011733 264.411777 
L 127.339998 264.527892 
L 127.668264 263.891703 
L 127.996529 249.940596 
L 128.324795 251.215751 
L 128.981325 266.906826 
L 129.637856 264.496929 
L 129.966122 264.48801 
L 130.294387 251.313461 
L 130.622653 258.673364 
L 130.950918 269.986864 
L 131.279184 267.119079 
L 131.607449 265.868105 
L 131.935715 267.160178 
L 132.26398 267.960845 
L 132.592246 265.868482 
L 132.920511 268.690353 
L 133.248777 268.340118 
L 133.577042 270.221316 
L 133.905307 266.102248 
L 134.233573 267.77516 
L 134.561838 268.129126 
L 134.890104 267.473005 
L 135.218369 269.486043 
L 135.546635 267.827964 
L 135.8749 270.662919 
L 136.203166 270.329361 
L 136.531431 267.462661 
L 136.859697 269.404877 
L 137.187962 268.447647 
L 137.516228 268.361776 
L 137.844493 268.773061 
L 138.172759 269.568325 
L 138.501024 263.43311 
L 138.829289 271.628126 
L 139.157555 271.464854 
L 139.48582 269.632943 
L 139.814086 269.798101 
L 140.142351 268.593647 
L 140.470617 271.64135 
L 140.798882 269.644079 
L 141.127148 271.73794 
L 141.455413 271.086841 
L 141.783679 271.41928 
L 142.111944 270.525031 
L 142.44021 271.833358 
L 143.096741 270.706766 
L 143.425006 270.617635 
L 143.753271 271.486137 
L 144.081537 271.008622 
L 144.409802 274.446972 
L 144.738068 276.679902 
L 145.066333 271.927083 
L 145.394599 274.673426 
L 145.722864 272.047032 
L 146.05113 271.434473 
L 146.379395 273.151892 
L 146.707661 272.026313 
L 147.035926 271.87668 
L 147.364192 274.511094 
L 147.692457 272.039722 
L 148.020722 272.614996 
L 148.348988 272.694708 
L 148.677253 274.707052 
L 149.005519 274.792389 
L 149.333784 273.9968 
L 149.66205 274.206049 
L 150.318581 272.296875 
L 150.646846 275.461718 
L 150.975112 273.343458 
L 151.303377 273.864997 
L 151.631643 273.286064 
L 151.959908 273.574272 
L 152.288174 273.596173 
L 152.616439 256.883449 
L 152.944704 274.682131 
L 153.27297 275.694071 
L 153.601235 274.111078 
L 153.929501 273.986772 
L 154.257766 274.380193 
L 154.586032 274.156137 
L 154.914297 274.398514 
L 155.242563 279.622514 
L 155.570828 275.664128 
L 155.899094 276.852292 
L 156.227359 276.638958 
L 156.555625 275.116031 
L 156.88389 275.087253 
L 157.212156 278.247261 
L 157.540421 275.312482 
L 157.868686 276.5192 
L 158.196952 275.821031 
L 158.525217 268.696082 
L 158.853483 276.772979 
L 159.181748 277.520635 
L 159.510014 275.906914 
L 159.838279 275.325478 
L 160.166545 277.095825 
L 160.49481 275.8636 
L 160.823076 279.955038 
L 161.151341 276.697642 
L 161.479607 276.395202 
L 161.807872 276.688674 
L 162.136138 273.501975 
L 162.464403 278.055929 
L 162.792668 279.628649 
L 163.120934 275.942388 
L 163.777465 276.805746 
L 164.10573 276.995108 
L 164.433996 279.496156 
L 164.762261 267.970884 
L 165.090527 277.57091 
L 165.418792 277.544257 
L 165.747058 277.274055 
L 166.075323 278.688379 
L 166.403589 277.258833 
L 166.731854 278.402798 
L 167.060119 277.105328 
L 167.388385 277.199116 
L 167.71665 276.778205 
L 168.044916 281.884893 
L 168.373181 273.258156 
L 168.701447 268.292873 
L 169.029712 268.502955 
L 169.357978 272.461014 
L 169.686243 269.706062 
L 170.342774 280.517549 
L 170.67104 278.497594 
L 170.999305 279.117674 
L 171.327571 279.198953 
L 171.984101 278.713643 
L 172.312367 279.123434 
L 172.640632 279.341098 
L 172.968898 279.710118 
L 173.297163 279.662929 
L 173.625429 286.302959 
L 173.953694 278.60268 
L 174.28196 278.737321 
L 174.610225 280.623903 
L 174.938491 279.751344 
L 175.266756 279.588674 
L 175.923287 280.407269 
L 176.251553 275.339908 
L 176.579818 281.861065 
L 176.908083 282.369523 
L 177.236349 279.545329 
L 177.564614 280.546535 
L 177.89288 279.461635 
L 178.221145 276.876059 
L 178.549411 282.427087 
L 178.877676 280.952172 
L 179.205942 280.935966 
L 179.534207 280.609423 
L 179.862473 279.343623 
L 180.190738 281.282336 
L 180.519004 280.282214 
L 181.175535 281.113311 
L 181.5038 280.71571 
L 181.832065 281.478071 
L 182.160331 281.065739 
L 182.488596 281.424002 
L 182.816862 281.159005 
L 183.145127 281.746699 
L 183.473393 281.245099 
L 183.801658 281.995039 
L 184.129924 283.428343 
L 184.458189 282.216761 
L 184.786455 281.816807 
L 185.11472 281.088699 
L 185.442986 285.25807 
L 185.771251 282.01 
L 186.099516 282.231838 
L 186.427782 281.596674 
L 186.756047 282.527078 
L 187.084313 282.575784 
L 187.412578 282.175711 
L 187.740844 282.250508 
L 188.069109 282.51507 
L 188.397375 282.522823 
L 188.72564 284.52344 
L 189.710437 274.363339 
L 190.038702 274.974739 
L 190.366968 274.719375 
L 190.695233 279.35777 
L 191.023498 279.06737 
L 191.351764 282.336446 
L 191.680029 283.557418 
L 192.008295 283.116573 
L 192.33656 283.138218 
L 192.664826 282.882637 
L 193.321357 281.930641 
L 193.649622 272.629827 
L 193.977888 283.092278 
L 194.306153 283.005443 
L 194.634419 283.168905 
L 195.29095 283.080926 
L 195.619215 283.530341 
L 195.94748 283.784835 
L 196.275746 283.268705 
L 196.604011 283.022247 
L 196.932277 279.638712 
L 197.260542 282.195008 
L 197.588808 283.638982 
L 197.917073 282.943368 
L 198.245339 283.471731 
L 198.573604 283.597335 
L 198.90187 283.564536 
L 199.230135 283.769218 
L 199.886666 283.852686 
L 200.214932 283.601449 
L 200.543197 284.432472 
L 200.871462 284.587152 
L 201.199728 284.010476 
L 201.527993 283.767496 
L 202.184524 285.07378 
L 202.51279 284.446168 
L 202.841055 284.087366 
L 203.169321 284.370602 
L 203.497586 284.367024 
L 203.825852 285.867609 
L 204.154117 278.978878 
L 204.482383 284.576998 
L 205.138914 284.575103 
L 205.467179 284.551892 
L 206.12371 285.009309 
L 206.451975 284.998774 
L 206.780241 284.696058 
L 207.108506 284.858038 
L 207.436772 285.167111 
L 207.765037 284.828907 
L 208.093303 285.209201 
L 208.421568 285.002299 
L 208.749834 285.032909 
L 209.078099 284.702105 
L 209.406365 285.108208 
L 209.73463 285.232033 
L 210.719426 284.96878 
L 211.047692 286.330534 
L 211.375957 285.56459 
L 211.704223 287.388581 
L 212.032488 285.294505 
L 212.360754 285.340925 
L 212.689019 285.505934 
L 213.34555 285.256307 
L 214.002081 285.672518 
L 214.330347 285.281364 
L 214.658612 285.784245 
L 214.986877 285.221158 
L 215.315143 285.570526 
L 215.971674 284.087497 
L 216.299939 286.533647 
L 216.628205 286.948531 
L 216.95647 285.73003 
L 217.284736 285.478778 
L 217.613001 284.507533 
L 217.941267 287.145179 
L 218.269532 286.302122 
L 218.597798 286.112877 
L 218.926063 285.750986 
L 219.254329 284.879553 
L 219.582594 287.025117 
L 219.910859 286.832412 
L 220.239125 286.159416 
L 220.56739 286.143586 
L 220.895656 284.919862 
L 221.223921 286.217548 
L 221.552187 286.653966 
L 222.536983 285.654964 
L 223.193514 286.979951 
L 223.52178 286.375234 
L 223.850045 286.088623 
L 224.178311 285.132547 
L 224.506576 288.060883 
L 224.834841 286.267127 
L 225.163107 286.563369 
L 225.819638 285.822815 
L 226.147903 286.672297 
L 226.476169 286.506421 
L 226.804434 286.889882 
L 227.1327 286.535512 
L 227.460965 285.379659 
L 227.789231 287.012859 
L 228.117496 286.876169 
L 228.445762 287.002794 
L 228.774027 286.822954 
L 229.102292 285.420118 
L 229.430558 286.376158 
L 230.087089 287.14011 
L 230.415354 285.385652 
L 230.74362 285.151965 
L 231.400151 287.230077 
L 231.728416 287.112764 
L 232.056682 287.979973 
L 232.384947 286.745227 
L 232.713213 286.160932 
L 233.369744 287.380815 
L 233.698009 287.873333 
L 234.026274 289.130885 
L 234.35454 285.560455 
L 234.682805 287.247198 
L 235.011071 287.089086 
L 235.339336 286.094414 
L 235.667602 287.630482 
L 235.995867 287.135457 
L 236.324133 287.637205 
L 236.652398 287.423331 
L 236.980664 286.513725 
L 237.637195 287.530189 
L 237.96546 287.655868 
L 238.621991 287.612748 
L 238.950256 288.64757 
L 239.278522 287.974961 
L 239.606787 287.777059 
L 239.935053 287.300216 
L 240.263318 287.763381 
L 240.591584 288.882925 
L 240.919849 288.042688 
L 241.248115 287.973856 
L 241.57638 282.415282 
L 241.904646 286.604445 
L 242.232911 288.070934 
L 242.561177 287.885723 
L 242.889442 288.596228 
L 243.217708 288.130581 
L 243.545973 286.209011 
L 243.874238 288.026698 
L 244.530769 288.342622 
L 244.859035 290.379477 
L 245.1873 288.348727 
L 245.515566 288.333826 
L 245.843831 287.014959 
L 246.172097 288.270626 
L 246.828628 288.504061 
L 247.156893 288.034801 
L 247.485159 288.590614 
L 247.813424 288.522967 
L 248.141689 290.10973 
L 248.469955 288.560188 
L 248.79822 280.956348 
L 249.126486 288.587758 
L 250.439548 288.643701 
L 250.767813 288.877066 
L 251.096079 288.931777 
L 251.424344 288.77645 
L 251.75261 288.391267 
L 252.080875 288.777062 
L 252.737406 288.85653 
L 253.065671 289.057852 
L 253.393937 288.768829 
L 253.722202 289.048975 
L 254.050468 290.229634 
L 254.378733 289.110337 
L 254.706999 288.944796 
L 255.035264 287.592301 
L 255.36353 288.895844 
L 255.691795 288.897292 
L 256.020061 289.157124 
L 256.348326 290.109134 
L 256.676592 289.026758 
L 257.004857 289.31387 
L 257.989653 289.420191 
L 258.317919 289.22555 
L 258.646184 289.253349 
L 258.97445 289.409383 
L 259.302715 289.202038 
L 259.630981 289.37744 
L 260.615777 289.459771 
L 260.944043 288.99398 
L 261.272308 289.419528 
L 261.928839 289.499307 
L 262.257105 289.509359 
L 262.58537 290.110732 
L 262.913635 289.555695 
L 263.570166 289.783923 
L 263.898432 289.586309 
L 264.226697 289.814873 
L 264.554963 290.475022 
L 264.883228 289.326254 
L 265.211494 289.586937 
L 265.539759 283.292036 
L 265.868025 291.642782 
L 266.19629 289.760014 
L 266.524556 289.910922 
L 266.852821 288.665357 
L 267.181086 285.592841 
L 267.509352 289.924431 
L 268.822414 289.894113 
L 269.478945 289.790138 
L 269.80721 289.969172 
L 270.135476 289.901345 
L 270.463741 290.05177 
L 270.792007 289.956505 
L 271.120272 291.365463 
L 271.448538 290.295553 
L 272.105068 290.114232 
L 272.433334 291.250783 
L 272.761599 290.107715 
L 273.089865 290.311731 
L 273.41813 290.240255 
L 273.746396 290.353107 
L 274.074661 289.373349 
L 274.402927 290.343899 
L 274.731192 290.259527 
L 275.059458 290.375298 
L 275.387723 290.091261 
L 275.715989 290.096083 
L 276.044254 289.340642 
L 276.37252 290.552934 
L 276.700785 290.447905 
L 277.02905 287.762155 
L 277.357316 290.449493 
L 277.685581 290.352378 
L 278.013847 290.455797 
L 278.670378 285.602957 
L 278.998643 290.482911 
L 279.326909 290.533555 
L 279.655174 290.818738 
L 280.311705 290.615877 
L 280.639971 290.641423 
L 280.968236 291.620668 
L 281.296502 290.468885 
L 281.953032 290.639171 
L 282.281298 290.619278 
L 282.609563 288.749096 
L 282.937829 291.83269 
L 283.266094 290.713907 
L 283.59436 290.764298 
L 283.922625 295.14872 
L 284.250891 290.819309 
L 284.907422 290.711961 
L 285.235687 290.188091 
L 285.563953 290.895073 
L 285.892218 290.794223 
L 286.548749 290.851673 
L 286.877014 291.831831 
L 287.20528 290.819141 
L 287.861811 290.989637 
L 288.190076 284.640496 
L 288.518342 290.783507 
L 288.846607 290.900803 
L 289.174873 283.373002 
L 289.503138 290.933044 
L 289.831404 285.873267 
L 290.159669 291.272289 
L 290.487935 291.361053 
L 290.8162 292.277962 
L 291.144465 291.109674 
L 291.472731 291.119035 
L 291.800996 292.36449 
L 292.129262 291.129542 
L 292.457527 291.267517 
L 293.114058 291.124663 
L 293.770589 291.351732 
L 294.42712 291.227732 
L 294.755386 291.442196 
L 295.083651 291.28514 
L 296.068447 291.407656 
L 296.396713 291.390347 
L 297.053244 291.727055 
L 297.381509 291.537846 
L 298.366306 291.777539 
L 298.694571 290.386968 
L 299.022837 293.249447 
L 299.351102 291.663437 
L 299.679368 291.728864 
L 300.007633 291.567095 
L 300.335899 289.449956 
L 300.664164 291.678193 
L 301.977226 291.7814 
L 302.962022 291.609895 
L 303.290288 291.897998 
L 303.946819 291.91311 
L 304.275084 287.590511 
L 304.60335 291.857029 
L 304.931615 291.97537 
L 305.259881 291.910141 
L 305.588146 292.350867 
L 305.916411 292.004087 
L 307.886004 292.011169 
L 308.21427 286.795929 
L 308.542535 292.271985 
L 309.199066 292.191792 
L 310.512128 292.294563 
L 310.840393 285.291674 
L 311.168659 292.000044 
L 311.496924 287.892531 
L 311.82519 293.002679 
L 312.153455 293.202932 
L 312.809986 293.298526 
L 313.138252 288.445446 
L 313.466517 291.525786 
L 313.794783 292.181543 
L 314.123048 292.284781 
L 314.451314 290.214633 
L 314.779579 292.095908 
L 315.107844 292.304431 
L 315.43611 292.332566 
L 315.764375 290.443884 
L 316.092641 292.297597 
L 316.749172 291.39118 
L 317.077437 291.226959 
L 317.405703 292.538876 
L 317.733968 292.259145 
L 318.062234 291.594827 
L 318.390499 293.092008 
L 318.718765 292.135966 
L 319.04703 292.395884 
L 319.375296 290.634663 
L 319.703561 292.691179 
L 320.031826 292.553827 
L 320.360092 292.57929 
L 320.688357 291.212253 
L 321.016623 293.198511 
L 321.344888 292.677342 
L 321.673154 292.737038 
L 322.001419 291.722862 
L 322.329685 292.641633 
L 322.65795 292.220307 
L 322.986216 292.650152 
L 323.314481 291.257333 
L 323.642747 292.589544 
L 323.971012 292.487205 
L 324.299278 292.790999 
L 324.627543 290.261308 
L 324.955808 293.129851 
L 325.284074 292.184798 
L 325.612339 292.261794 
L 325.940605 293.64871 
L 326.26887 292.709605 
L 326.925401 293.016918 
L 327.253667 292.904348 
L 327.910198 292.979707 
L 328.238463 290.384427 
L 328.566729 292.660418 
L 329.223259 292.884501 
L 329.551525 292.22966 
L 329.87979 292.94245 
L 330.536321 292.950985 
L 330.864587 291.804671 
L 331.192852 288.875227 
L 331.521118 292.96453 
L 331.849383 292.360086 
L 332.177649 292.900168 
L 332.505914 293.043108 
L 332.83418 293.043157 
L 333.162445 292.570962 
L 333.490711 292.919229 
L 333.818976 293.054936 
L 334.147241 293.032239 
L 334.475507 291.29006 
L 334.803772 292.767221 
L 335.132038 293.201568 
L 335.460303 293.195429 
L 335.788569 293.599432 
L 336.116834 293.167655 
L 336.773365 293.189475 
L 337.101631 293.79935 
L 337.429896 293.130617 
L 338.086427 293.264739 
L 338.414693 292.16721 
L 338.742958 293.39705 
L 339.399489 293.329487 
L 339.727754 293.416661 
L 340.05602 293.349324 
L 340.384285 293.39681 
L 340.712551 292.446145 
L 341.040816 293.334635 
L 341.697347 293.409769 
L 342.025613 292.887298 
L 342.353878 293.417445 
L 343.010409 293.555335 
L 343.338675 292.442234 
L 343.66694 293.519222 
L 344.323471 293.466442 
L 344.651736 294.25454 
L 344.980002 293.480371 
L 345.636533 293.508661 
L 345.964798 293.241902 
L 346.293064 294.382026 
L 346.621329 293.621184 
L 346.949595 293.633685 
L 347.27786 293.853108 
L 347.934391 293.411426 
L 348.262656 293.12495 
L 348.590922 293.464988 
L 348.919187 293.642844 
L 349.247453 293.651683 
L 349.575718 290.632115 
L 349.903984 289.234682 
L 350.232249 293.650839 
L 350.560515 293.690579 
L 350.88878 292.557011 
L 351.217046 290.06627 
L 351.545311 293.662965 
L 351.873577 291.939907 
L 352.201842 293.652398 
L 352.530108 293.84543 
L 353.186638 293.676193 
L 353.514904 293.759377 
L 353.843169 293.630693 
L 354.171435 291.732087 
L 354.4997 293.812892 
L 354.827966 293.760958 
L 355.156231 293.838008 
L 355.484497 291.387638 
L 355.812762 292.370866 
L 356.141028 293.835027 
L 356.797559 293.930027 
L 357.125824 293.321047 
L 357.45409 293.913087 
L 357.782355 291.850847 
L 358.11062 293.937894 
L 358.767151 294.00616 
L 359.095417 291.41647 
L 359.423682 293.852373 
L 359.751948 294.029435 
L 360.080213 293.964303 
L 360.408479 295.437773 
L 360.736744 293.924754 
L 361.06501 293.887958 
L 361.393275 292.475359 
L 361.721541 293.820284 
L 362.378072 293.855877 
L 362.706337 291.823953 
L 363.034602 293.828202 
L 364.019399 293.966549 
L 364.67593 293.746576 
L 365.004195 292.26246 
L 365.332461 293.862439 
L 365.988992 293.954884 
L 366.317257 291.973846 
L 366.645523 293.924457 
L 367.302053 293.979632 
L 367.630319 293.69521 
L 367.958584 294.052663 
L 368.28685 293.981615 
L 368.615115 292.258002 
L 368.943381 293.864804 
L 369.271646 294.003753 
L 369.599912 293.975364 
L 369.928177 290.394073 
L 370.256443 291.959879 
L 370.584708 292.247259 
L 370.912974 294.106049 
L 371.89777 294.091288 
L 372.226035 294.014208 
L 372.554301 294.199489 
L 372.882566 292.250038 
L 373.210832 294.010827 
L 373.867363 294.183311 
L 374.195628 292.295281 
L 374.523894 291.873928 
L 374.852159 294.072683 
L 375.180425 292.353734 
L 375.50869 294.190729 
L 375.836956 294.171743 
L 376.493487 295.488 
L 376.821752 294.238583 
L 377.150017 293.93483 
L 377.478283 292.326279 
L 377.806548 294.192391 
L 378.463079 294.36325 
L 378.791345 292.153798 
L 379.11961 294.234705 
L 379.447876 294.307725 
L 379.776141 293.608911 
L 380.104407 294.332558 
L 380.760938 294.327348 
L 381.089203 292.608155 
L 381.417469 294.399259 
L 381.745734 295.019419 
L 382.073999 294.119698 
L 382.402265 294.121037 
L 382.73053 294.380292 
L 383.058796 294.387211 
L 383.387061 292.22968 
L 383.715327 294.510289 
L 384.043592 294.431054 
L 384.371858 294.191688 
L 384.700123 294.508809 
L 385.028389 294.346273 
L 385.356654 295.053576 
L 385.68492 291.550866 
L 386.013185 294.449181 
L 386.669716 294.497535 
L 386.997981 294.334188 
L 387.326247 294.634204 
L 387.654512 294.614526 
L 387.982778 293.884895 
L 388.311043 291.224023 
L 388.639309 294.457985 
L 388.967574 294.430989 
L 389.29584 294.568652 
L 389.624105 294.457093 
L 389.952371 294.6132 
L 390.280636 292.443741 
L 390.608902 294.667246 
L 391.265432 294.530588 
L 391.921963 294.79771 
L 392.578494 294.523445 
L 393.235025 294.630535 
L 393.563291 294.379765 
L 393.891556 294.334991 
L 394.548087 294.678986 
L 394.876353 294.449709 
L 395.204618 294.733937 
L 395.861149 294.671911 
L 396.189414 294.802576 
L 396.51768 294.707451 
L 396.845945 294.826173 
L 397.174211 294.704864 
L 397.830742 294.766933 
L 398.159007 294.255648 
L 398.487273 294.524098 
L 398.487273 294.524098 
" style="fill:none;stroke:#ff7f0e;stroke-linecap:square;stroke-width:1.5;"/>
   </g>
   <g id="patch_3">
    <path d="M 57.6 307.584 
L 57.6 41.472 
" style="fill:none;stroke:#000000;stroke-linecap:square;stroke-linejoin:miter;stroke-width:0.8;"/>
   </g>
   <g id="patch_4">
    <path d="M 414.72 307.584 
L 414.72 41.472 
" style="fill:none;stroke:#000000;stroke-linecap:square;stroke-linejoin:miter;stroke-width:0.8;"/>
   </g>
   <g id="patch_5">
    <path d="M 57.6 307.584 
L 414.72 307.584 
" style="fill:none;stroke:#000000;stroke-linecap:square;stroke-linejoin:miter;stroke-width:0.8;"/>
   </g>
   <g id="patch_6">
    <path d="M 57.6 41.472 
L 414.72 41.472 
" style="fill:none;stroke:#000000;stroke-linecap:square;stroke-linejoin:miter;stroke-width:0.8;"/>
   </g>
   <g id="text_20">
    <!-- AO Speedup -->
    <defs>
     <path d="M 34.1875 63.1875 
L 20.796875 26.90625 
L 47.609375 26.90625 
z
M 28.609375 72.90625 
L 39.796875 72.90625 
L 67.578125 0 
L 57.328125 0 
L 50.6875 18.703125 
L 17.828125 18.703125 
L 11.1875 0 
L 0.78125 0 
z
" id="DejaVuSans-65"/>
     <path d="M 39.40625 66.21875 
Q 28.65625 66.21875 22.328125 58.203125 
Q 16.015625 50.203125 16.015625 36.375 
Q 16.015625 22.609375 22.328125 14.59375 
Q 28.65625 6.59375 39.40625 6.59375 
Q 50.140625 6.59375 56.421875 14.59375 
Q 62.703125 22.609375 62.703125 36.375 
Q 62.703125 50.203125 56.421875 58.203125 
Q 50.140625 66.21875 39.40625 66.21875 
z
M 39.40625 74.21875 
Q 54.734375 74.21875 63.90625 63.9375 
Q 73.09375 53.65625 73.09375 36.375 
Q 73.09375 19.140625 63.90625 8.859375 
Q 54.734375 -1.421875 39.40625 -1.421875 
Q 24.03125 -1.421875 14.8125 8.828125 
Q 5.609375 19.09375 5.609375 36.375 
Q 5.609375 53.65625 14.8125 63.9375 
Q 24.03125 74.21875 39.40625 74.21875 
z
" id="DejaVuSans-79"/>
     <path id="DejaVuSans-32"/>
     <path d="M 53.515625 70.515625 
L 53.515625 60.890625 
Q 47.90625 63.578125 42.921875 64.890625 
Q 37.9375 66.21875 33.296875 66.21875 
Q 25.25 66.21875 20.875 63.09375 
Q 16.5 59.96875 16.5 54.203125 
Q 16.5 49.359375 19.40625 46.890625 
Q 22.3125 44.4375 30.421875 42.921875 
L 36.375 41.703125 
Q 47.40625 39.59375 52.65625 34.296875 
Q 57.90625 29 57.90625 20.125 
Q 57.90625 9.515625 50.796875 4.046875 
Q 43.703125 -1.421875 29.984375 -1.421875 
Q 24.8125 -1.421875 18.96875 -0.25 
Q 13.140625 0.921875 6.890625 3.21875 
L 6.890625 13.375 
Q 12.890625 10.015625 18.65625 8.296875 
Q 24.421875 6.59375 29.984375 6.59375 
Q 38.421875 6.59375 43.015625 9.90625 
Q 47.609375 13.234375 47.609375 19.390625 
Q 47.609375 24.75 44.3125 27.78125 
Q 41.015625 30.8125 33.5 32.328125 
L 27.484375 33.5 
Q 16.453125 35.6875 11.515625 40.375 
Q 6.59375 45.0625 6.59375 53.421875 
Q 6.59375 63.09375 13.40625 68.65625 
Q 20.21875 74.21875 32.171875 74.21875 
Q 37.3125 74.21875 42.625 73.28125 
Q 47.953125 72.359375 53.515625 70.515625 
z
" id="DejaVuSans-83"/>
    </defs>
    <g transform="translate(199.108125 35.472)scale(0.12 -0.12)">
     <use xlink:href="#DejaVuSans-65"/>
     <use x="66.658203" xlink:href="#DejaVuSans-79"/>
     <use x="145.369141" xlink:href="#DejaVuSans-32"/>
     <use x="177.15625" xlink:href="#DejaVuSans-83"/>
     <use x="240.632812" xlink:href="#DejaVuSans-112"/>
     <use x="304.109375" xlink:href="#DejaVuSans-101"/>
     <use x="365.632812" xlink:href="#DejaVuSans-101"/>
     <use x="427.15625" xlink:href="#DejaVuSans-100"/>
     <use x="490.632812" xlink:href="#DejaVuSans-117"/>
     <use x="554.011719" xlink:href="#DejaVuSans-112"/>
    </g>
   </g>
   <g id="legend_1">
    <g id="patch_7">
     <path d="M 304.093437 78.82825 
L 407.72 78.82825 
Q 409.72 78.82825 409.72 76.82825 
L 409.72 48.472 
Q 409.72 46.472 407.72 46.472 
L 304.093437 46.472 
Q 302.093437 46.472 302.093437 48.472 
L 302.093437 76.82825 
Q 302.093437 78.82825 304.093437 78.82825 
z
" style="fill:#ffffff;opacity:0.8;stroke:#cccccc;stroke-linejoin:miter;"/>
    </g>
    <g id="line2d_20">
     <path d="M 306.093437 54.570437 
L 326.093437 54.570437 
" style="fill:none;stroke:#1f77b4;stroke-linecap:square;stroke-width:1.5;"/>
    </g>
    <g id="line2d_21"/>
    <g id="text_21">
     <!-- numpy.float32 -->
     <defs>
      <path d="M 52 44.1875 
Q 55.375 50.25 60.0625 53.125 
Q 64.75 56 71.09375 56 
Q 79.640625 56 84.28125 50.015625 
Q 88.921875 44.046875 88.921875 33.015625 
L 88.921875 0 
L 79.890625 0 
L 79.890625 32.71875 
Q 79.890625 40.578125 77.09375 44.375 
Q 74.3125 48.1875 68.609375 48.1875 
Q 61.625 48.1875 57.5625 43.546875 
Q 53.515625 38.921875 53.515625 30.90625 
L 53.515625 0 
L 44.484375 0 
L 44.484375 32.71875 
Q 44.484375 40.625 41.703125 44.40625 
Q 38.921875 48.1875 33.109375 48.1875 
Q 26.21875 48.1875 22.15625 43.53125 
Q 18.109375 38.875 18.109375 30.90625 
L 18.109375 0 
L 9.078125 0 
L 9.078125 54.6875 
L 18.109375 54.6875 
L 18.109375 46.1875 
Q 21.1875 51.21875 25.484375 53.609375 
Q 29.78125 56 35.6875 56 
Q 41.65625 56 45.828125 52.96875 
Q 50 49.953125 52 44.1875 
z
" id="DejaVuSans-109"/>
      <path d="M 32.171875 -5.078125 
Q 28.375 -14.84375 24.75 -17.8125 
Q 21.140625 -20.796875 15.09375 -20.796875 
L 7.90625 -20.796875 
L 7.90625 -13.28125 
L 13.1875 -13.28125 
Q 16.890625 -13.28125 18.9375 -11.515625 
Q 21 -9.765625 23.484375 -3.21875 
L 25.09375 0.875 
L 2.984375 54.6875 
L 12.5 54.6875 
L 29.59375 11.921875 
L 46.6875 54.6875 
L 56.203125 54.6875 
z
" id="DejaVuSans-121"/>
      <path d="M 37.109375 75.984375 
L 37.109375 68.5 
L 28.515625 68.5 
Q 23.6875 68.5 21.796875 66.546875 
Q 19.921875 64.59375 19.921875 59.515625 
L 19.921875 54.6875 
L 34.71875 54.6875 
L 34.71875 47.703125 
L 19.921875 47.703125 
L 19.921875 0 
L 10.890625 0 
L 10.890625 47.703125 
L 2.296875 47.703125 
L 2.296875 54.6875 
L 10.890625 54.6875 
L 10.890625 58.5 
Q 10.890625 67.625 15.140625 71.796875 
Q 19.390625 75.984375 28.609375 75.984375 
z
" id="DejaVuSans-102"/>
      <path d="M 9.421875 75.984375 
L 18.40625 75.984375 
L 18.40625 0 
L 9.421875 0 
z
" id="DejaVuSans-108"/>
      <path d="M 30.609375 48.390625 
Q 23.390625 48.390625 19.1875 42.75 
Q 14.984375 37.109375 14.984375 27.296875 
Q 14.984375 17.484375 19.15625 11.84375 
Q 23.34375 6.203125 30.609375 6.203125 
Q 37.796875 6.203125 41.984375 11.859375 
Q 46.1875 17.53125 46.1875 27.296875 
Q 46.1875 37.015625 41.984375 42.703125 
Q 37.796875 48.390625 30.609375 48.390625 
z
M 30.609375 56 
Q 42.328125 56 49.015625 48.375 
Q 55.71875 40.765625 55.71875 27.296875 
Q 55.71875 13.875 49.015625 6.21875 
Q 42.328125 -1.421875 30.609375 -1.421875 
Q 18.84375 -1.421875 12.171875 6.21875 
Q 5.515625 13.875 5.515625 27.296875 
Q 5.515625 40.765625 12.171875 48.375 
Q 18.84375 56 30.609375 56 
z
" id="DejaVuSans-111"/>
      <path d="M 34.28125 27.484375 
Q 23.390625 27.484375 19.1875 25 
Q 14.984375 22.515625 14.984375 16.5 
Q 14.984375 11.71875 18.140625 8.90625 
Q 21.296875 6.109375 26.703125 6.109375 
Q 34.1875 6.109375 38.703125 11.40625 
Q 43.21875 16.703125 43.21875 25.484375 
L 43.21875 27.484375 
z
M 52.203125 31.203125 
L 52.203125 0 
L 43.21875 0 
L 43.21875 8.296875 
Q 40.140625 3.328125 35.546875 0.953125 
Q 30.953125 -1.421875 24.3125 -1.421875 
Q 15.921875 -1.421875 10.953125 3.296875 
Q 6 8.015625 6 15.921875 
Q 6 25.140625 12.171875 29.828125 
Q 18.359375 34.515625 30.609375 34.515625 
L 43.21875 34.515625 
L 43.21875 35.40625 
Q 43.21875 41.609375 39.140625 45 
Q 35.0625 48.390625 27.6875 48.390625 
Q 23 48.390625 18.546875 47.265625 
Q 14.109375 46.140625 10.015625 43.890625 
L 10.015625 52.203125 
Q 14.9375 54.109375 19.578125 55.046875 
Q 24.21875 56 28.609375 56 
Q 40.484375 56 46.34375 49.84375 
Q 52.203125 43.703125 52.203125 31.203125 
z
" id="DejaVuSans-97"/>
      <path d="M 18.3125 70.21875 
L 18.3125 54.6875 
L 36.8125 54.6875 
L 36.8125 47.703125 
L 18.3125 47.703125 
L 18.3125 18.015625 
Q 18.3125 11.328125 20.140625 9.421875 
Q 21.96875 7.515625 27.59375 7.515625 
L 36.8125 7.515625 
L 36.8125 0 
L 27.59375 0 
Q 17.1875 0 13.234375 3.875 
Q 9.28125 7.765625 9.28125 18.015625 
L 9.28125 47.703125 
L 2.6875 47.703125 
L 2.6875 54.6875 
L 9.28125 54.6875 
L 9.28125 70.21875 
z
" id="DejaVuSans-116"/>
     </defs>
     <g transform="translate(334.093437 58.070437)scale(0.1 -0.1)">
      <use xlink:href="#DejaVuSans-110"/>
      <use x="63.378906" xlink:href="#DejaVuSans-117"/>
      <use x="126.757812" xlink:href="#DejaVuSans-109"/>
      <use x="224.169922" xlink:href="#DejaVuSans-112"/>
      <use x="287.646484" xlink:href="#DejaVuSans-121"/>
      <use x="332.576172" xlink:href="#DejaVuSans-46"/>
      <use x="364.363281" xlink:href="#DejaVuSans-102"/>
      <use x="399.568359" xlink:href="#DejaVuSans-108"/>
      <use x="427.351562" xlink:href="#DejaVuSans-111"/>
      <use x="488.533203" xlink:href="#DejaVuSans-97"/>
      <use x="549.8125" xlink:href="#DejaVuSans-116"/>
      <use x="589.021484" xlink:href="#DejaVuSans-51"/>
      <use x="652.644531" xlink:href="#DejaVuSans-50"/>
     </g>
    </g>
    <g id="line2d_22">
     <path d="M 306.093437 69.248562 
L 326.093437 69.248562 
" style="fill:none;stroke:#ff7f0e;stroke-linecap:square;stroke-width:1.5;"/>
    </g>
    <g id="line2d_23"/>
    <g id="text_22">
     <!-- numpy.float64 -->
     <g transform="translate(334.093437 72.748562)scale(0.1 -0.1)">
      <use xlink:href="#DejaVuSans-110"/>
      <use x="63.378906" xlink:href="#DejaVuSans-117"/>
      <use x="126.757812" xlink:href="#DejaVuSans-109"/>
      <use x="224.169922" xlink:href="#DejaVuSans-112"/>
      <use x="287.646484" xlink:href="#DejaVuSans-121"/>
      <use x="332.576172" xlink:href="#DejaVuSans-46"/>
      <use x="364.363281" xlink:href="#DejaVuSans-102"/>
      <use x="399.568359" xlink:href="#DejaVuSans-108"/>
      <use x="427.351562" xlink:href="#DejaVuSans-111"/>
      <use x="488.533203" xlink:href="#DejaVuSans-97"/>
      <use x="549.8125" xlink:href="#DejaVuSans-116"/>
      <use x="589.021484" xlink:href="#DejaVuSans-54"/>
      <use x="652.644531" xlink:href="#DejaVuSans-52"/>
     </g>
    </g>
   </g>
  </g>
 </g>
 <defs>
  <clipPath id="p2f92f087aa">
   <rect height="266.112" width="357.12" x="57.6" y="41.472"/>
  </clipPath>
 </defs>
</svg>
