<?xml version="1.0" encoding="utf-8" standalone="no"?>
<!DOCTYPE svg PUBLIC "-//W3C//DTD SVG 1.1//EN"
  "http://www.w3.org/Graphics/SVG/1.1/DTD/svg11.dtd">
<!-- Created with matplotlib (https://matplotlib.org/) -->
<svg height="720pt" version="1.1" viewBox="0 0 1440 720" width="1440pt" xmlns="http://www.w3.org/2000/svg" xmlns:xlink="http://www.w3.org/1999/xlink">
 <defs>
  <style type="text/css">
*{stroke-linecap:butt;stroke-linejoin:round;}
  </style>
 </defs>
 <g id="figure_1">
  <g id="patch_1">
   <path d="M 0 720 
L 1440 720 
L 1440 0 
L 0 0 
z
" style="fill:#ffffff;"/>
  </g>
  <g id="axes_1">
   <g id="patch_2">
    <path d="M 180 640.8 
L 1296 640.8 
L 1296 86.4 
L 180 86.4 
z
" style="fill:#ffffff;"/>
   </g>
   <g id="matplotlib.axis_1">
    <g id="xtick_1">
     <g id="line2d_1">
      <defs>
       <path d="M 0 0 
L 0 3.5 
" id="m71bd07490a" style="stroke:#000000;stroke-width:0.8;"/>
      </defs>
      <g>
       <use style="stroke:#000000;stroke-width:0.8;" x="333.310231" xlink:href="#m71bd07490a" y="640.8"/>
      </g>
     </g>
     <g id="text_1">
      <!-- 100.0 -->
      <defs>
       <path d="M 12.40625 8.296875 
L 28.515625 8.296875 
L 28.515625 63.921875 
L 10.984375 60.40625 
L 10.984375 69.390625 
L 28.421875 72.90625 
L 38.28125 72.90625 
L 38.28125 8.296875 
L 54.390625 8.296875 
L 54.390625 0 
L 12.40625 0 
z
" id="DejaVuSans-49"/>
       <path d="M 31.78125 66.40625 
Q 24.171875 66.40625 20.328125 58.90625 
Q 16.5 51.421875 16.5 36.375 
Q 16.5 21.390625 20.328125 13.890625 
Q 24.171875 6.390625 31.78125 6.390625 
Q 39.453125 6.390625 43.28125 13.890625 
Q 47.125 21.390625 47.125 36.375 
Q 47.125 51.421875 43.28125 58.90625 
Q 39.453125 66.40625 31.78125 66.40625 
z
M 31.78125 74.21875 
Q 44.046875 74.21875 50.515625 64.515625 
Q 56.984375 54.828125 56.984375 36.375 
Q 56.984375 17.96875 50.515625 8.265625 
Q 44.046875 -1.421875 31.78125 -1.421875 
Q 19.53125 -1.421875 13.0625 8.265625 
Q 6.59375 17.96875 6.59375 36.375 
Q 6.59375 54.828125 13.0625 64.515625 
Q 19.53125 74.21875 31.78125 74.21875 
z
" id="DejaVuSans-48"/>
       <path d="M 10.6875 12.40625 
L 21 12.40625 
L 21 0 
L 10.6875 0 
z
" id="DejaVuSans-46"/>
      </defs>
      <g transform="translate(318.996168 655.398438)scale(0.1 -0.1)">
       <use xlink:href="#DejaVuSans-49"/>
       <use x="63.623047" xlink:href="#DejaVuSans-48"/>
       <use x="127.246094" xlink:href="#DejaVuSans-48"/>
       <use x="190.869141" xlink:href="#DejaVuSans-46"/>
       <use x="222.65625" xlink:href="#DejaVuSans-48"/>
      </g>
     </g>
    </g>
    <g id="xtick_2">
     <g id="line2d_2">
      <g>
       <use style="stroke:#000000;stroke-width:0.8;" x="435.893189" xlink:href="#m71bd07490a" y="640.8"/>
      </g>
     </g>
     <g id="text_2">
      <!-- 200.0 -->
      <defs>
       <path d="M 19.1875 8.296875 
L 53.609375 8.296875 
L 53.609375 0 
L 7.328125 0 
L 7.328125 8.296875 
Q 12.9375 14.109375 22.625 23.890625 
Q 32.328125 33.6875 34.8125 36.53125 
Q 39.546875 41.84375 41.421875 45.53125 
Q 43.3125 49.21875 43.3125 52.78125 
Q 43.3125 58.59375 39.234375 62.25 
Q 35.15625 65.921875 28.609375 65.921875 
Q 23.96875 65.921875 18.8125 64.3125 
Q 13.671875 62.703125 7.8125 59.421875 
L 7.8125 69.390625 
Q 13.765625 71.78125 18.9375 73 
Q 24.125 74.21875 28.421875 74.21875 
Q 39.75 74.21875 46.484375 68.546875 
Q 53.21875 62.890625 53.21875 53.421875 
Q 53.21875 48.921875 51.53125 44.890625 
Q 49.859375 40.875 45.40625 35.40625 
Q 44.1875 33.984375 37.640625 27.21875 
Q 31.109375 20.453125 19.1875 8.296875 
z
" id="DejaVuSans-50"/>
      </defs>
      <g transform="translate(421.579126 655.398438)scale(0.1 -0.1)">
       <use xlink:href="#DejaVuSans-50"/>
       <use x="63.623047" xlink:href="#DejaVuSans-48"/>
       <use x="127.246094" xlink:href="#DejaVuSans-48"/>
       <use x="190.869141" xlink:href="#DejaVuSans-46"/>
       <use x="222.65625" xlink:href="#DejaVuSans-48"/>
      </g>
     </g>
    </g>
    <g id="xtick_3">
     <g id="line2d_3">
      <g>
       <use style="stroke:#000000;stroke-width:0.8;" x="538.476147" xlink:href="#m71bd07490a" y="640.8"/>
      </g>
     </g>
     <g id="text_3">
      <!-- 300.0 -->
      <defs>
       <path d="M 40.578125 39.3125 
Q 47.65625 37.796875 51.625 33 
Q 55.609375 28.21875 55.609375 21.1875 
Q 55.609375 10.40625 48.1875 4.484375 
Q 40.765625 -1.421875 27.09375 -1.421875 
Q 22.515625 -1.421875 17.65625 -0.515625 
Q 12.796875 0.390625 7.625 2.203125 
L 7.625 11.71875 
Q 11.71875 9.328125 16.59375 8.109375 
Q 21.484375 6.890625 26.8125 6.890625 
Q 36.078125 6.890625 40.9375 10.546875 
Q 45.796875 14.203125 45.796875 21.1875 
Q 45.796875 27.640625 41.28125 31.265625 
Q 36.765625 34.90625 28.71875 34.90625 
L 20.21875 34.90625 
L 20.21875 43.015625 
L 29.109375 43.015625 
Q 36.375 43.015625 40.234375 45.921875 
Q 44.09375 48.828125 44.09375 54.296875 
Q 44.09375 59.90625 40.109375 62.90625 
Q 36.140625 65.921875 28.71875 65.921875 
Q 24.65625 65.921875 20.015625 65.03125 
Q 15.375 64.15625 9.8125 62.3125 
L 9.8125 71.09375 
Q 15.4375 72.65625 20.34375 73.4375 
Q 25.25 74.21875 29.59375 74.21875 
Q 40.828125 74.21875 47.359375 69.109375 
Q 53.90625 64.015625 53.90625 55.328125 
Q 53.90625 49.265625 50.4375 45.09375 
Q 46.96875 40.921875 40.578125 39.3125 
z
" id="DejaVuSans-51"/>
      </defs>
      <g transform="translate(524.162084 655.398438)scale(0.1 -0.1)">
       <use xlink:href="#DejaVuSans-51"/>
       <use x="63.623047" xlink:href="#DejaVuSans-48"/>
       <use x="127.246094" xlink:href="#DejaVuSans-48"/>
       <use x="190.869141" xlink:href="#DejaVuSans-46"/>
       <use x="222.65625" xlink:href="#DejaVuSans-48"/>
      </g>
     </g>
    </g>
    <g id="xtick_4">
     <g id="line2d_4">
      <g>
       <use style="stroke:#000000;stroke-width:0.8;" x="641.059105" xlink:href="#m71bd07490a" y="640.8"/>
      </g>
     </g>
     <g id="text_4">
      <!-- 400.0 -->
      <defs>
       <path d="M 37.796875 64.3125 
L 12.890625 25.390625 
L 37.796875 25.390625 
z
M 35.203125 72.90625 
L 47.609375 72.90625 
L 47.609375 25.390625 
L 58.015625 25.390625 
L 58.015625 17.1875 
L 47.609375 17.1875 
L 47.609375 0 
L 37.796875 0 
L 37.796875 17.1875 
L 4.890625 17.1875 
L 4.890625 26.703125 
z
" id="DejaVuSans-52"/>
      </defs>
      <g transform="translate(626.745042 655.398438)scale(0.1 -0.1)">
       <use xlink:href="#DejaVuSans-52"/>
       <use x="63.623047" xlink:href="#DejaVuSans-48"/>
       <use x="127.246094" xlink:href="#DejaVuSans-48"/>
       <use x="190.869141" xlink:href="#DejaVuSans-46"/>
       <use x="222.65625" xlink:href="#DejaVuSans-48"/>
      </g>
     </g>
    </g>
    <g id="xtick_5">
     <g id="line2d_5">
      <g>
       <use style="stroke:#000000;stroke-width:0.8;" x="743.642063" xlink:href="#m71bd07490a" y="640.8"/>
      </g>
     </g>
     <g id="text_5">
      <!-- 500.0 -->
      <defs>
       <path d="M 10.796875 72.90625 
L 49.515625 72.90625 
L 49.515625 64.59375 
L 19.828125 64.59375 
L 19.828125 46.734375 
Q 21.96875 47.46875 24.109375 47.828125 
Q 26.265625 48.1875 28.421875 48.1875 
Q 40.625 48.1875 47.75 41.5 
Q 54.890625 34.8125 54.890625 23.390625 
Q 54.890625 11.625 47.5625 5.09375 
Q 40.234375 -1.421875 26.90625 -1.421875 
Q 22.3125 -1.421875 17.546875 -0.640625 
Q 12.796875 0.140625 7.71875 1.703125 
L 7.71875 11.625 
Q 12.109375 9.234375 16.796875 8.0625 
Q 21.484375 6.890625 26.703125 6.890625 
Q 35.15625 6.890625 40.078125 11.328125 
Q 45.015625 15.765625 45.015625 23.390625 
Q 45.015625 31 40.078125 35.4375 
Q 35.15625 39.890625 26.703125 39.890625 
Q 22.75 39.890625 18.8125 39.015625 
Q 14.890625 38.140625 10.796875 36.28125 
z
" id="DejaVuSans-53"/>
      </defs>
      <g transform="translate(729.328 655.398438)scale(0.1 -0.1)">
       <use xlink:href="#DejaVuSans-53"/>
       <use x="63.623047" xlink:href="#DejaVuSans-48"/>
       <use x="127.246094" xlink:href="#DejaVuSans-48"/>
       <use x="190.869141" xlink:href="#DejaVuSans-46"/>
       <use x="222.65625" xlink:href="#DejaVuSans-48"/>
      </g>
     </g>
    </g>
    <g id="xtick_6">
     <g id="line2d_6">
      <g>
       <use style="stroke:#000000;stroke-width:0.8;" x="846.225021" xlink:href="#m71bd07490a" y="640.8"/>
      </g>
     </g>
     <g id="text_6">
      <!-- 600.0 -->
      <defs>
       <path d="M 33.015625 40.375 
Q 26.375 40.375 22.484375 35.828125 
Q 18.609375 31.296875 18.609375 23.390625 
Q 18.609375 15.53125 22.484375 10.953125 
Q 26.375 6.390625 33.015625 6.390625 
Q 39.65625 6.390625 43.53125 10.953125 
Q 47.40625 15.53125 47.40625 23.390625 
Q 47.40625 31.296875 43.53125 35.828125 
Q 39.65625 40.375 33.015625 40.375 
z
M 52.59375 71.296875 
L 52.59375 62.3125 
Q 48.875 64.0625 45.09375 64.984375 
Q 41.3125 65.921875 37.59375 65.921875 
Q 27.828125 65.921875 22.671875 59.328125 
Q 17.53125 52.734375 16.796875 39.40625 
Q 19.671875 43.65625 24.015625 45.921875 
Q 28.375 48.1875 33.59375 48.1875 
Q 44.578125 48.1875 50.953125 41.515625 
Q 57.328125 34.859375 57.328125 23.390625 
Q 57.328125 12.15625 50.6875 5.359375 
Q 44.046875 -1.421875 33.015625 -1.421875 
Q 20.359375 -1.421875 13.671875 8.265625 
Q 6.984375 17.96875 6.984375 36.375 
Q 6.984375 53.65625 15.1875 63.9375 
Q 23.390625 74.21875 37.203125 74.21875 
Q 40.921875 74.21875 44.703125 73.484375 
Q 48.484375 72.75 52.59375 71.296875 
z
" id="DejaVuSans-54"/>
      </defs>
      <g transform="translate(831.910958 655.398438)scale(0.1 -0.1)">
       <use xlink:href="#DejaVuSans-54"/>
       <use x="63.623047" xlink:href="#DejaVuSans-48"/>
       <use x="127.246094" xlink:href="#DejaVuSans-48"/>
       <use x="190.869141" xlink:href="#DejaVuSans-46"/>
       <use x="222.65625" xlink:href="#DejaVuSans-48"/>
      </g>
     </g>
    </g>
    <g id="xtick_7">
     <g id="line2d_7">
      <g>
       <use style="stroke:#000000;stroke-width:0.8;" x="948.807979" xlink:href="#m71bd07490a" y="640.8"/>
      </g>
     </g>
     <g id="text_7">
      <!-- 700.0 -->
      <defs>
       <path d="M 8.203125 72.90625 
L 55.078125 72.90625 
L 55.078125 68.703125 
L 28.609375 0 
L 18.3125 0 
L 43.21875 64.59375 
L 8.203125 64.59375 
z
" id="DejaVuSans-55"/>
      </defs>
      <g transform="translate(934.493916 655.398438)scale(0.1 -0.1)">
       <use xlink:href="#DejaVuSans-55"/>
       <use x="63.623047" xlink:href="#DejaVuSans-48"/>
       <use x="127.246094" xlink:href="#DejaVuSans-48"/>
       <use x="190.869141" xlink:href="#DejaVuSans-46"/>
       <use x="222.65625" xlink:href="#DejaVuSans-48"/>
      </g>
     </g>
    </g>
    <g id="xtick_8">
     <g id="line2d_8">
      <g>
       <use style="stroke:#000000;stroke-width:0.8;" x="1051.390937" xlink:href="#m71bd07490a" y="640.8"/>
      </g>
     </g>
     <g id="text_8">
      <!-- 800.0 -->
      <defs>
       <path d="M 31.78125 34.625 
Q 24.75 34.625 20.71875 30.859375 
Q 16.703125 27.09375 16.703125 20.515625 
Q 16.703125 13.921875 20.71875 10.15625 
Q 24.75 6.390625 31.78125 6.390625 
Q 38.8125 6.390625 42.859375 10.171875 
Q 46.921875 13.96875 46.921875 20.515625 
Q 46.921875 27.09375 42.890625 30.859375 
Q 38.875 34.625 31.78125 34.625 
z
M 21.921875 38.8125 
Q 15.578125 40.375 12.03125 44.71875 
Q 8.5 49.078125 8.5 55.328125 
Q 8.5 64.0625 14.71875 69.140625 
Q 20.953125 74.21875 31.78125 74.21875 
Q 42.671875 74.21875 48.875 69.140625 
Q 55.078125 64.0625 55.078125 55.328125 
Q 55.078125 49.078125 51.53125 44.71875 
Q 48 40.375 41.703125 38.8125 
Q 48.828125 37.15625 52.796875 32.3125 
Q 56.78125 27.484375 56.78125 20.515625 
Q 56.78125 9.90625 50.3125 4.234375 
Q 43.84375 -1.421875 31.78125 -1.421875 
Q 19.734375 -1.421875 13.25 4.234375 
Q 6.78125 9.90625 6.78125 20.515625 
Q 6.78125 27.484375 10.78125 32.3125 
Q 14.796875 37.15625 21.921875 38.8125 
z
M 18.3125 54.390625 
Q 18.3125 48.734375 21.84375 45.5625 
Q 25.390625 42.390625 31.78125 42.390625 
Q 38.140625 42.390625 41.71875 45.5625 
Q 45.3125 48.734375 45.3125 54.390625 
Q 45.3125 60.0625 41.71875 63.234375 
Q 38.140625 66.40625 31.78125 66.40625 
Q 25.390625 66.40625 21.84375 63.234375 
Q 18.3125 60.0625 18.3125 54.390625 
z
" id="DejaVuSans-56"/>
      </defs>
      <g transform="translate(1037.076874 655.398438)scale(0.1 -0.1)">
       <use xlink:href="#DejaVuSans-56"/>
       <use x="63.623047" xlink:href="#DejaVuSans-48"/>
       <use x="127.246094" xlink:href="#DejaVuSans-48"/>
       <use x="190.869141" xlink:href="#DejaVuSans-46"/>
       <use x="222.65625" xlink:href="#DejaVuSans-48"/>
      </g>
     </g>
    </g>
    <g id="xtick_9">
     <g id="line2d_9">
      <g>
       <use style="stroke:#000000;stroke-width:0.8;" x="1153.973895" xlink:href="#m71bd07490a" y="640.8"/>
      </g>
     </g>
     <g id="text_9">
      <!-- 900.0 -->
      <defs>
       <path d="M 10.984375 1.515625 
L 10.984375 10.5 
Q 14.703125 8.734375 18.5 7.8125 
Q 22.3125 6.890625 25.984375 6.890625 
Q 35.75 6.890625 40.890625 13.453125 
Q 46.046875 20.015625 46.78125 33.40625 
Q 43.953125 29.203125 39.59375 26.953125 
Q 35.25 24.703125 29.984375 24.703125 
Q 19.046875 24.703125 12.671875 31.3125 
Q 6.296875 37.9375 6.296875 49.421875 
Q 6.296875 60.640625 12.9375 67.421875 
Q 19.578125 74.21875 30.609375 74.21875 
Q 43.265625 74.21875 49.921875 64.515625 
Q 56.59375 54.828125 56.59375 36.375 
Q 56.59375 19.140625 48.40625 8.859375 
Q 40.234375 -1.421875 26.421875 -1.421875 
Q 22.703125 -1.421875 18.890625 -0.6875 
Q 15.09375 0.046875 10.984375 1.515625 
z
M 30.609375 32.421875 
Q 37.25 32.421875 41.125 36.953125 
Q 45.015625 41.5 45.015625 49.421875 
Q 45.015625 57.28125 41.125 61.84375 
Q 37.25 66.40625 30.609375 66.40625 
Q 23.96875 66.40625 20.09375 61.84375 
Q 16.21875 57.28125 16.21875 49.421875 
Q 16.21875 41.5 20.09375 36.953125 
Q 23.96875 32.421875 30.609375 32.421875 
z
" id="DejaVuSans-57"/>
      </defs>
      <g transform="translate(1139.659832 655.398438)scale(0.1 -0.1)">
       <use xlink:href="#DejaVuSans-57"/>
       <use x="63.623047" xlink:href="#DejaVuSans-48"/>
       <use x="127.246094" xlink:href="#DejaVuSans-48"/>
       <use x="190.869141" xlink:href="#DejaVuSans-46"/>
       <use x="222.65625" xlink:href="#DejaVuSans-48"/>
      </g>
     </g>
    </g>
    <g id="xtick_10">
     <g id="line2d_10">
      <g>
       <use style="stroke:#000000;stroke-width:0.8;" x="1256.556853" xlink:href="#m71bd07490a" y="640.8"/>
      </g>
     </g>
     <g id="text_10">
      <!-- 1000.0 -->
      <g transform="translate(1239.06154 655.398438)scale(0.1 -0.1)">
       <use xlink:href="#DejaVuSans-49"/>
       <use x="63.623047" xlink:href="#DejaVuSans-48"/>
       <use x="127.246094" xlink:href="#DejaVuSans-48"/>
       <use x="190.869141" xlink:href="#DejaVuSans-48"/>
       <use x="254.492188" xlink:href="#DejaVuSans-46"/>
       <use x="286.279297" xlink:href="#DejaVuSans-48"/>
      </g>
     </g>
    </g>
    <g id="text_11">
     <!-- n -->
     <defs>
      <path d="M 54.890625 33.015625 
L 54.890625 0 
L 45.90625 0 
L 45.90625 32.71875 
Q 45.90625 40.484375 42.875 44.328125 
Q 39.84375 48.1875 33.796875 48.1875 
Q 26.515625 48.1875 22.3125 43.546875 
Q 18.109375 38.921875 18.109375 30.90625 
L 18.109375 0 
L 9.078125 0 
L 9.078125 54.6875 
L 18.109375 54.6875 
L 18.109375 46.1875 
Q 21.34375 51.125 25.703125 53.5625 
Q 30.078125 56 35.796875 56 
Q 45.21875 56 50.046875 50.171875 
Q 54.890625 44.34375 54.890625 33.015625 
z
" id="DejaVuSans-110"/>
     </defs>
     <g transform="translate(734.83125 669.076563)scale(0.1 -0.1)">
      <use xlink:href="#DejaVuSans-110"/>
     </g>
    </g>
   </g>
   <g id="matplotlib.axis_2">
    <g id="ytick_1">
     <g id="line2d_11">
      <defs>
       <path d="M 0 0 
L -3.5 0 
" id="m0e06d46c35" style="stroke:#000000;stroke-width:0.8;"/>
      </defs>
      <g>
       <use style="stroke:#000000;stroke-width:0.8;" x="180" xlink:href="#m0e06d46c35" y="575.670992"/>
      </g>
     </g>
     <g id="text_12">
      <!-- 50 -->
      <g transform="translate(160.275 579.47021)scale(0.1 -0.1)">
       <use xlink:href="#DejaVuSans-53"/>
       <use x="63.623047" xlink:href="#DejaVuSans-48"/>
      </g>
     </g>
    </g>
    <g id="ytick_2">
     <g id="line2d_12">
      <g>
       <use style="stroke:#000000;stroke-width:0.8;" x="180" xlink:href="#m0e06d46c35" y="493.453339"/>
      </g>
     </g>
     <g id="text_13">
      <!-- 100 -->
      <g transform="translate(153.9125 497.252558)scale(0.1 -0.1)">
       <use xlink:href="#DejaVuSans-49"/>
       <use x="63.623047" xlink:href="#DejaVuSans-48"/>
       <use x="127.246094" xlink:href="#DejaVuSans-48"/>
      </g>
     </g>
    </g>
    <g id="ytick_3">
     <g id="line2d_13">
      <g>
       <use style="stroke:#000000;stroke-width:0.8;" x="180" xlink:href="#m0e06d46c35" y="411.235686"/>
      </g>
     </g>
     <g id="text_14">
      <!-- 150 -->
      <g transform="translate(153.9125 415.034905)scale(0.1 -0.1)">
       <use xlink:href="#DejaVuSans-49"/>
       <use x="63.623047" xlink:href="#DejaVuSans-53"/>
       <use x="127.246094" xlink:href="#DejaVuSans-48"/>
      </g>
     </g>
    </g>
    <g id="ytick_4">
     <g id="line2d_14">
      <g>
       <use style="stroke:#000000;stroke-width:0.8;" x="180" xlink:href="#m0e06d46c35" y="329.018034"/>
      </g>
     </g>
     <g id="text_15">
      <!-- 200 -->
      <g transform="translate(153.9125 332.817252)scale(0.1 -0.1)">
       <use xlink:href="#DejaVuSans-50"/>
       <use x="63.623047" xlink:href="#DejaVuSans-48"/>
       <use x="127.246094" xlink:href="#DejaVuSans-48"/>
      </g>
     </g>
    </g>
    <g id="ytick_5">
     <g id="line2d_15">
      <g>
       <use style="stroke:#000000;stroke-width:0.8;" x="180" xlink:href="#m0e06d46c35" y="246.800381"/>
      </g>
     </g>
     <g id="text_16">
      <!-- 250 -->
      <g transform="translate(153.9125 250.5996)scale(0.1 -0.1)">
       <use xlink:href="#DejaVuSans-50"/>
       <use x="63.623047" xlink:href="#DejaVuSans-53"/>
       <use x="127.246094" xlink:href="#DejaVuSans-48"/>
      </g>
     </g>
    </g>
    <g id="ytick_6">
     <g id="line2d_16">
      <g>
       <use style="stroke:#000000;stroke-width:0.8;" x="180" xlink:href="#m0e06d46c35" y="164.582728"/>
      </g>
     </g>
     <g id="text_17">
      <!-- 300 -->
      <g transform="translate(153.9125 168.381947)scale(0.1 -0.1)">
       <use xlink:href="#DejaVuSans-51"/>
       <use x="63.623047" xlink:href="#DejaVuSans-48"/>
       <use x="127.246094" xlink:href="#DejaVuSans-48"/>
      </g>
     </g>
    </g>
    <g id="text_18">
     <!-- speedup -->
     <defs>
      <path d="M 44.28125 53.078125 
L 44.28125 44.578125 
Q 40.484375 46.53125 36.375 47.5 
Q 32.28125 48.484375 27.875 48.484375 
Q 21.1875 48.484375 17.84375 46.4375 
Q 14.5 44.390625 14.5 40.28125 
Q 14.5 37.15625 16.890625 35.375 
Q 19.28125 33.59375 26.515625 31.984375 
L 29.59375 31.296875 
Q 39.15625 29.25 43.1875 25.515625 
Q 47.21875 21.78125 47.21875 15.09375 
Q 47.21875 7.46875 41.1875 3.015625 
Q 35.15625 -1.421875 24.609375 -1.421875 
Q 20.21875 -1.421875 15.453125 -0.5625 
Q 10.6875 0.296875 5.421875 2 
L 5.421875 11.28125 
Q 10.40625 8.6875 15.234375 7.390625 
Q 20.0625 6.109375 24.8125 6.109375 
Q 31.15625 6.109375 34.5625 8.28125 
Q 37.984375 10.453125 37.984375 14.40625 
Q 37.984375 18.0625 35.515625 20.015625 
Q 33.0625 21.96875 24.703125 23.78125 
L 21.578125 24.515625 
Q 13.234375 26.265625 9.515625 29.90625 
Q 5.8125 33.546875 5.8125 39.890625 
Q 5.8125 47.609375 11.28125 51.796875 
Q 16.75 56 26.8125 56 
Q 31.78125 56 36.171875 55.265625 
Q 40.578125 54.546875 44.28125 53.078125 
z
" id="DejaVuSans-115"/>
      <path d="M 18.109375 8.203125 
L 18.109375 -20.796875 
L 9.078125 -20.796875 
L 9.078125 54.6875 
L 18.109375 54.6875 
L 18.109375 46.390625 
Q 20.953125 51.265625 25.265625 53.625 
Q 29.59375 56 35.59375 56 
Q 45.5625 56 51.78125 48.09375 
Q 58.015625 40.1875 58.015625 27.296875 
Q 58.015625 14.40625 51.78125 6.484375 
Q 45.5625 -1.421875 35.59375 -1.421875 
Q 29.59375 -1.421875 25.265625 0.953125 
Q 20.953125 3.328125 18.109375 8.203125 
z
M 48.6875 27.296875 
Q 48.6875 37.203125 44.609375 42.84375 
Q 40.53125 48.484375 33.40625 48.484375 
Q 26.265625 48.484375 22.1875 42.84375 
Q 18.109375 37.203125 18.109375 27.296875 
Q 18.109375 17.390625 22.1875 11.75 
Q 26.265625 6.109375 33.40625 6.109375 
Q 40.53125 6.109375 44.609375 11.75 
Q 48.6875 17.390625 48.6875 27.296875 
z
" id="DejaVuSans-112"/>
      <path d="M 56.203125 29.59375 
L 56.203125 25.203125 
L 14.890625 25.203125 
Q 15.484375 15.921875 20.484375 11.0625 
Q 25.484375 6.203125 34.421875 6.203125 
Q 39.59375 6.203125 44.453125 7.46875 
Q 49.3125 8.734375 54.109375 11.28125 
L 54.109375 2.78125 
Q 49.265625 0.734375 44.1875 -0.34375 
Q 39.109375 -1.421875 33.890625 -1.421875 
Q 20.796875 -1.421875 13.15625 6.1875 
Q 5.515625 13.8125 5.515625 26.8125 
Q 5.515625 40.234375 12.765625 48.109375 
Q 20.015625 56 32.328125 56 
Q 43.359375 56 49.78125 48.890625 
Q 56.203125 41.796875 56.203125 29.59375 
z
M 47.21875 32.234375 
Q 47.125 39.59375 43.09375 43.984375 
Q 39.0625 48.390625 32.421875 48.390625 
Q 24.90625 48.390625 20.390625 44.140625 
Q 15.875 39.890625 15.1875 32.171875 
z
" id="DejaVuSans-101"/>
      <path d="M 45.40625 46.390625 
L 45.40625 75.984375 
L 54.390625 75.984375 
L 54.390625 0 
L 45.40625 0 
L 45.40625 8.203125 
Q 42.578125 3.328125 38.25 0.953125 
Q 33.9375 -1.421875 27.875 -1.421875 
Q 17.96875 -1.421875 11.734375 6.484375 
Q 5.515625 14.40625 5.515625 27.296875 
Q 5.515625 40.1875 11.734375 48.09375 
Q 17.96875 56 27.875 56 
Q 33.9375 56 38.25 53.625 
Q 42.578125 51.265625 45.40625 46.390625 
z
M 14.796875 27.296875 
Q 14.796875 17.390625 18.875 11.75 
Q 22.953125 6.109375 30.078125 6.109375 
Q 37.203125 6.109375 41.296875 11.75 
Q 45.40625 17.390625 45.40625 27.296875 
Q 45.40625 37.203125 41.296875 42.84375 
Q 37.203125 48.484375 30.078125 48.484375 
Q 22.953125 48.484375 18.875 42.84375 
Q 14.796875 37.203125 14.796875 27.296875 
z
" id="DejaVuSans-100"/>
      <path d="M 8.5 21.578125 
L 8.5 54.6875 
L 17.484375 54.6875 
L 17.484375 21.921875 
Q 17.484375 14.15625 20.5 10.265625 
Q 23.53125 6.390625 29.59375 6.390625 
Q 36.859375 6.390625 41.078125 11.03125 
Q 45.3125 15.671875 45.3125 23.6875 
L 45.3125 54.6875 
L 54.296875 54.6875 
L 54.296875 0 
L 45.3125 0 
L 45.3125 8.40625 
Q 42.046875 3.421875 37.71875 1 
Q 33.40625 -1.421875 27.6875 -1.421875 
Q 18.265625 -1.421875 13.375 4.4375 
Q 8.5 10.296875 8.5 21.578125 
z
M 31.109375 56 
z
" id="DejaVuSans-117"/>
     </defs>
     <g transform="translate(147.832812 385.049219)rotate(-90)scale(0.1 -0.1)">
      <use xlink:href="#DejaVuSans-115"/>
      <use x="52.099609" xlink:href="#DejaVuSans-112"/>
      <use x="115.576172" xlink:href="#DejaVuSans-101"/>
      <use x="177.099609" xlink:href="#DejaVuSans-101"/>
      <use x="238.623047" xlink:href="#DejaVuSans-100"/>
      <use x="302.099609" xlink:href="#DejaVuSans-117"/>
      <use x="365.478516" xlink:href="#DejaVuSans-112"/>
     </g>
    </g>
   </g>
   <g id="line2d_17">
    <path clip-path="url(#pb65602112c)" d="M 230.727273 277.626984 
L 231.753102 376.478101 
L 232.778932 111.6 
L 233.804761 196.687058 
L 234.830591 200.414548 
L 235.856421 221.255953 
L 236.88225 219.476823 
L 237.90808 232.330328 
L 238.933909 433.117416 
L 239.959739 236.660659 
L 240.985569 226.684951 
L 242.011398 267.408727 
L 243.037228 202.133555 
L 244.063057 254.709258 
L 245.088887 248.400341 
L 246.114716 275.252196 
L 247.140546 264.09986 
L 248.166376 304.865465 
L 249.192205 290.320428 
L 250.218035 300.901039 
L 251.243864 314.776148 
L 252.269694 312.69668 
L 253.295523 318.357184 
L 254.321353 328.709464 
L 255.347183 271.498496 
L 256.373012 310.444248 
L 257.398842 334.327442 
L 258.424671 282.285954 
L 259.450501 354.115272 
L 260.476331 332.470193 
L 261.50216 361.639354 
L 262.52799 307.365064 
L 263.553819 364.796529 
L 264.579649 326.478516 
L 265.605478 347.496978 
L 266.631308 345.913182 
L 267.657138 358.871276 
L 268.682967 363.621627 
L 269.708797 385.610438 
L 270.734626 485.289257 
L 271.760456 376.174658 
L 272.786286 401.622577 
L 274.837945 358.72295 
L 275.863774 388.463948 
L 276.889604 379.232843 
L 277.915433 356.059645 
L 278.941263 360.502383 
L 279.967093 359.452073 
L 280.992922 381.621271 
L 282.018752 319.382672 
L 283.044581 325.525509 
L 284.070411 418.845332 
L 285.09624 351.748441 
L 286.12207 338.70709 
L 287.1479 372.545823 
L 288.173729 381.010796 
L 289.199559 363.437864 
L 290.225388 336.490329 
L 291.251218 329.51259 
L 292.277048 386.783501 
L 293.302877 361.158971 
L 294.328707 367.013387 
L 295.354536 385.98112 
L 296.380366 335.771334 
L 297.406195 375.310193 
L 298.432025 377.786049 
L 299.457855 373.398597 
L 300.483684 376.391908 
L 301.509514 388.283878 
L 302.535343 403.818228 
L 303.561173 384.938022 
L 304.587002 424.404703 
L 305.612832 387.918484 
L 306.638662 467.866704 
L 307.664491 399.511804 
L 308.690321 464.448791 
L 309.71615 341.315403 
L 310.74198 405.00497 
L 311.76781 390.732304 
L 312.793639 402.382598 
L 313.819469 360.176132 
L 314.845298 412.146741 
L 315.871128 421.958321 
L 316.896957 343.956759 
L 317.922787 385.455795 
L 318.948617 374.251757 
L 319.974446 410.611891 
L 321.000276 362.773233 
L 322.026105 396.52817 
L 323.051935 513.183154 
L 324.077765 364.005121 
L 325.103594 401.805138 
L 326.129424 368.939758 
L 328.181083 433.02928 
L 329.206912 435.379264 
L 330.232742 428.286613 
L 331.258572 406.058138 
L 332.284401 462.614428 
L 333.310231 405.893047 
L 334.33606 430.379501 
L 335.36189 371.456633 
L 336.387719 388.005248 
L 337.413549 378.003837 
L 338.439379 385.021125 
L 339.465208 419.526852 
L 340.491038 378.712863 
L 341.516867 456.532288 
L 342.542697 394.606119 
L 343.568527 428.176917 
L 344.594356 427.245648 
L 345.620186 499.063281 
L 346.646015 422.291232 
L 347.671845 444.547609 
L 348.697674 443.439991 
L 349.723504 476.078785 
L 350.749334 437.262237 
L 351.775163 390.785047 
L 352.800993 466.670926 
L 353.826822 403.136429 
L 354.852652 432.181864 
L 355.878481 453.972735 
L 356.904311 470.129563 
L 357.930141 436.838772 
L 358.95597 450.191668 
L 359.9818 468.135695 
L 361.007629 458.119012 
L 362.033459 446.236419 
L 363.059289 468.145107 
L 364.085118 499.119694 
L 366.136777 427.923129 
L 367.162607 462.942291 
L 368.188436 464.037259 
L 369.214266 521.612307 
L 370.240096 508.686536 
L 371.265925 421.273319 
L 372.291755 505.11755 
L 373.317584 535.734547 
L 374.343414 435.250963 
L 375.369243 425.971965 
L 376.395073 403.96861 
L 377.420903 458.94004 
L 378.446732 445.260792 
L 379.472562 458.652756 
L 380.498391 440.451921 
L 381.524221 497.910007 
L 382.550051 441.580307 
L 383.57588 416.329097 
L 384.60171 446.153667 
L 385.627539 440.538749 
L 386.653369 441.84373 
L 387.679198 453.297038 
L 388.705028 430.58499 
L 389.730858 411.407992 
L 390.756687 454.3738 
L 391.782517 435.244018 
L 392.808346 419.784081 
L 393.834176 441.226648 
L 394.860006 427.162822 
L 395.885835 417.985279 
L 396.911665 456.788096 
L 397.937494 455.665591 
L 398.963324 452.66457 
L 399.989153 433.892168 
L 401.014983 442.324797 
L 402.040813 456.580445 
L 403.066642 452.913342 
L 404.092472 513.617568 
L 405.118301 436.651595 
L 406.144131 447.972069 
L 407.16996 435.325386 
L 408.19579 456.924858 
L 409.22162 436.155997 
L 410.247449 470.331365 
L 411.273279 424.302011 
L 412.299108 454.911525 
L 413.324938 441.970743 
L 414.350768 483.256422 
L 415.376597 473.117837 
L 416.402427 471.109006 
L 417.428256 479.096524 
L 418.454086 506.911009 
L 419.479915 450.059664 
L 420.505745 467.925441 
L 421.531575 581.217188 
L 422.557404 432.57068 
L 423.583234 481.814071 
L 424.609063 459.173293 
L 425.634893 494.088154 
L 426.660722 458.71362 
L 427.686552 459.601721 
L 428.712382 466.261778 
L 429.738211 458.40583 
L 430.764041 466.304149 
L 431.78987 442.870405 
L 432.8157 467.037271 
L 433.84153 478.109026 
L 434.867359 435.736779 
L 435.893189 471.719793 
L 436.919018 527.848773 
L 437.944848 437.639177 
L 438.970677 470.521897 
L 439.996507 462.759905 
L 441.022337 445.479898 
L 442.048166 446.984949 
L 443.073996 480.065692 
L 444.099825 484.604609 
L 445.125655 534.255647 
L 446.151485 467.18907 
L 447.177314 463.006016 
L 448.203144 465.960252 
L 449.228973 471.6304 
L 450.254803 456.019657 
L 451.280632 477.523002 
L 452.306462 386.5231 
L 453.332292 544.67816 
L 454.358121 446.341302 
L 455.383951 472.339572 
L 456.40978 541.042852 
L 457.43561 470.435751 
L 458.461439 475.230462 
L 459.487269 467.154117 
L 460.513099 488.385511 
L 461.538928 488.028893 
L 462.564758 529.256716 
L 463.590587 447.271854 
L 464.616417 460.571422 
L 465.642247 471.892712 
L 466.668076 479.281701 
L 467.693906 477.315468 
L 468.719735 496.389282 
L 469.745565 500.349299 
L 470.771394 483.300281 
L 471.797224 511.155971 
L 472.823054 534.954649 
L 473.848883 439.283596 
L 474.874713 468.979256 
L 475.900542 519.783771 
L 476.926372 490.099812 
L 477.952201 508.829197 
L 478.978031 485.352241 
L 480.003861 507.094927 
L 481.02969 512.4951 
L 482.05552 486.496381 
L 484.107179 499.227513 
L 485.133009 497.548544 
L 486.158838 507.271386 
L 488.210497 461.197887 
L 489.236327 457.261798 
L 490.262156 490.372122 
L 491.287986 476.371405 
L 492.313816 473.622344 
L 493.339645 496.697642 
L 494.365475 487.661852 
L 495.391304 495.793391 
L 496.417134 486.665016 
L 497.442964 512.924057 
L 498.468793 502.859599 
L 499.494623 487.147008 
L 500.520452 480.274505 
L 501.546282 477.369118 
L 502.572111 487.827944 
L 503.597941 501.054633 
L 504.623771 493.276259 
L 505.6496 488.051168 
L 506.67543 480.81664 
L 507.701259 497.974811 
L 508.727089 500.338189 
L 509.752918 490.195223 
L 510.778748 488.711694 
L 511.804578 503.874112 
L 512.830407 501.144047 
L 513.856237 480.281567 
L 514.882066 488.771922 
L 515.907896 491.798312 
L 516.933726 488.439736 
L 517.959555 496.935207 
L 518.985385 483.908782 
L 520.011214 512.908775 
L 521.037044 461.166891 
L 522.062873 510.740467 
L 523.088703 484.915308 
L 524.114533 479.870273 
L 525.140362 503.293329 
L 526.166192 501.418239 
L 527.192021 491.931763 
L 528.217851 501.467602 
L 529.24368 506.168866 
L 530.26951 483.336971 
L 531.29534 499.745236 
L 532.321169 495.431181 
L 533.346999 485.792647 
L 534.372828 506.111753 
L 535.398658 518.132842 
L 536.424488 489.122932 
L 537.450317 494.725744 
L 538.476147 491.88709 
L 539.501976 516.00563 
L 540.527806 503.97272 
L 541.553635 493.890745 
L 542.579465 488.772197 
L 543.605295 494.105811 
L 544.631124 501.871786 
L 545.656954 565.785483 
L 546.682783 497.03748 
L 547.708613 500.900745 
L 548.734443 502.381113 
L 549.760272 494.597089 
L 550.786102 502.216032 
L 551.811931 508.928702 
L 552.837761 505.947591 
L 553.86359 498.505397 
L 554.88942 504.840785 
L 555.91525 519.657817 
L 556.941079 527.364175 
L 557.966909 494.708518 
L 558.992738 506.475603 
L 560.018568 505.643016 
L 561.044397 517.333487 
L 562.070227 501.38173 
L 563.096057 511.367309 
L 564.121886 531.531071 
L 565.147716 528.799373 
L 566.173545 516.122157 
L 567.199375 530.20838 
L 568.225205 528.771368 
L 569.251034 526.873729 
L 571.302693 528.505914 
L 572.328523 524.805707 
L 573.354352 505.569776 
L 574.380182 518.130405 
L 575.406012 533.267314 
L 576.431841 571.791397 
L 577.457671 507.149582 
L 578.4835 517.947961 
L 579.50933 516.704699 
L 580.535159 512.92375 
L 581.560989 522.796858 
L 582.586819 513.93672 
L 583.612648 526.072274 
L 584.638478 528.903649 
L 585.664307 529.908761 
L 586.690137 525.089238 
L 587.715967 518.041924 
L 588.741796 516.84462 
L 589.767626 510.827066 
L 590.793455 513.738701 
L 591.819285 521.130228 
L 592.845114 526.435123 
L 593.870944 569.057286 
L 594.896774 530.502786 
L 596.948433 537.188776 
L 597.974262 467.451961 
L 599.000092 542.968534 
L 601.051751 506.890248 
L 602.077581 528.891413 
L 603.10341 523.410719 
L 604.12924 535.258181 
L 605.155069 578.848141 
L 606.180899 502.162604 
L 608.232558 534.47286 
L 609.258388 533.323999 
L 610.284217 532.906476 
L 611.310047 521.994757 
L 612.335876 555.772878 
L 613.361706 507.873399 
L 614.387536 513.339086 
L 615.413365 526.034083 
L 616.439195 507.164887 
L 617.465024 534.450431 
L 618.490854 526.948725 
L 619.516684 528.04057 
L 620.542513 524.569065 
L 621.568343 524.237594 
L 622.594172 535.758818 
L 623.620002 541.801216 
L 624.645831 523.948258 
L 625.671661 521.47024 
L 626.697491 515.598453 
L 627.72332 521.853032 
L 628.74915 521.406116 
L 629.774979 538.280975 
L 630.800809 522.624739 
L 631.826638 530.063189 
L 632.852468 520.862912 
L 633.878298 522.09873 
L 634.904127 528.090541 
L 635.929957 525.941673 
L 636.955786 527.382645 
L 637.981616 521.305216 
L 639.007446 543.387366 
L 640.033275 523.918814 
L 641.059105 519.761381 
L 642.084934 528.142471 
L 643.110764 577.826254 
L 644.136593 523.74656 
L 645.162423 522.454891 
L 646.188253 522.593081 
L 647.214082 527.069717 
L 648.239912 524.684539 
L 649.265741 529.658662 
L 650.291571 527.667629 
L 651.3174 531.294952 
L 652.34323 522.786166 
L 653.36906 532.216004 
L 654.394889 529.626087 
L 655.420719 534.291229 
L 656.446548 529.031308 
L 657.472378 527.937124 
L 658.498208 531.741055 
L 659.524037 530.563309 
L 660.549867 533.951013 
L 661.575696 531.360556 
L 662.601526 521.678466 
L 663.627355 528.214483 
L 664.653185 529.139825 
L 665.679015 534.767195 
L 666.704844 533.121098 
L 667.730674 530.114175 
L 668.756503 525.153011 
L 669.782333 529.979711 
L 670.808163 526.976886 
L 671.833992 532.955234 
L 672.859822 557.000872 
L 673.885651 528.795776 
L 674.911481 526.543679 
L 675.93731 530.374637 
L 676.96314 543.281593 
L 677.98897 531.87996 
L 679.014799 524.009129 
L 680.040629 529.935626 
L 681.066458 528.040677 
L 682.092288 529.520909 
L 683.118117 520.893624 
L 684.143947 542.998163 
L 685.169777 534.938049 
L 686.195606 520.771684 
L 687.221436 534.031408 
L 688.247265 583.89472 
L 689.273095 532.222765 
L 690.298925 532.091252 
L 691.324754 531.021386 
L 692.350584 526.248471 
L 693.376413 532.794671 
L 694.402243 532.89518 
L 695.428072 531.2445 
L 696.453902 536.347957 
L 697.479732 526.789731 
L 698.505561 530.034979 
L 699.531391 534.841531 
L 700.55722 533.744208 
L 701.58305 535.737751 
L 702.608879 547.033761 
L 703.634709 532.73914 
L 704.660539 531.380769 
L 705.686368 534.812945 
L 706.712198 529.512123 
L 707.738027 534.961378 
L 708.763857 532.543768 
L 709.789687 530.669717 
L 710.815516 553.632496 
L 711.841346 531.415553 
L 712.867175 536.849393 
L 713.893005 543.410238 
L 714.918834 532.53585 
L 715.944664 544.302836 
L 716.970494 557.650698 
L 717.996323 537.338421 
L 719.022153 548.601712 
L 720.047982 538.579375 
L 721.073812 537.169152 
L 722.099642 548.002045 
L 723.125471 531.387823 
L 724.151301 538.699093 
L 725.17713 550.858363 
L 726.20296 529.622751 
L 727.228789 538.241444 
L 728.254619 549.06817 
L 729.280449 534.085883 
L 730.306278 548.991736 
L 731.332108 549.519234 
L 732.357937 539.600402 
L 733.383767 563.474773 
L 734.409596 550.757377 
L 735.435426 540.395221 
L 736.461256 558.490322 
L 737.487085 540.350153 
L 738.512915 542.243676 
L 739.538744 554.474379 
L 740.564574 541.320771 
L 741.590404 536.36162 
L 742.616233 538.523915 
L 743.642063 544.237399 
L 744.667892 546.965993 
L 745.693722 541.672621 
L 746.719551 537.561514 
L 747.745381 540.402538 
L 748.771211 536.296658 
L 749.79704 535.179745 
L 750.82287 543.33883 
L 751.848699 559.428102 
L 752.874529 542.869282 
L 753.900358 542.725571 
L 755.952018 543.580796 
L 756.977847 543.64015 
L 758.003677 543.368806 
L 759.029506 531.885657 
L 760.055336 535.907293 
L 761.081166 553.167303 
L 762.106995 535.12059 
L 763.132825 568.197995 
L 764.158654 537.058677 
L 765.184484 541.620756 
L 766.210313 543.885988 
L 767.236143 536.787891 
L 768.261973 538.654046 
L 769.287802 543.157623 
L 770.313632 555.524899 
L 771.339461 541.344417 
L 772.365291 560.673748 
L 773.391121 537.749275 
L 774.41695 548.836536 
L 775.44278 539.213976 
L 776.468609 542.381859 
L 777.494439 544.011496 
L 778.520268 546.259964 
L 779.546098 549.414648 
L 780.571928 574.946279 
L 781.597757 552.743788 
L 782.623587 544.287195 
L 783.649416 553.741001 
L 784.675246 544.09431 
L 785.701075 542.986665 
L 786.726905 545.028361 
L 787.752735 552.024165 
L 788.778564 545.809868 
L 789.804394 544.333794 
L 790.830223 552.473382 
L 791.856053 544.81959 
L 792.881883 548.262007 
L 793.907712 558.635945 
L 794.933542 547.683507 
L 795.959371 550.760023 
L 796.985201 542.136444 
L 798.01103 556.558866 
L 799.03686 557.425054 
L 800.06269 555.599246 
L 801.088519 558.833337 
L 802.114349 540.870142 
L 803.140178 556.243884 
L 804.166008 545.833823 
L 805.191837 556.262579 
L 806.217667 543.628249 
L 807.243497 544.807395 
L 808.269326 557.378033 
L 809.295156 551.288485 
L 810.320985 554.989456 
L 811.346815 546.025473 
L 812.372645 551.469043 
L 813.398474 561.684639 
L 814.424304 547.357756 
L 815.450133 556.614484 
L 816.475963 553.882676 
L 817.501792 551.806753 
L 818.527622 559.637473 
L 819.553452 549.269275 
L 820.579281 550.061798 
L 821.605111 549.494888 
L 822.63094 549.289369 
L 823.65677 548.890872 
L 824.6826 550.087832 
L 825.708429 550.561519 
L 826.734259 553.144876 
L 827.760088 548.00216 
L 828.785918 548.722561 
L 829.811747 551.378325 
L 830.837577 544.485941 
L 831.863407 546.079519 
L 832.889236 547.236514 
L 833.915066 558.058622 
L 834.940895 552.900708 
L 835.966725 548.335828 
L 836.992554 550.067457 
L 838.018384 577.698904 
L 839.044214 556.300902 
L 840.070043 587.52986 
L 841.095873 545.775289 
L 842.121702 558.724237 
L 843.147532 558.045346 
L 844.173362 583.833177 
L 845.199191 570.317919 
L 846.225021 527.934747 
L 847.25085 554.446504 
L 848.27668 552.171382 
L 849.302509 556.194859 
L 850.328339 555.845733 
L 851.354169 555.058697 
L 852.379998 565.301913 
L 853.405828 560.779163 
L 854.431657 548.603221 
L 855.457487 564.034157 
L 856.483316 558.27678 
L 857.509146 548.915369 
L 858.534976 548.733882 
L 859.560805 559.250527 
L 860.586635 563.064052 
L 861.612464 556.959256 
L 862.638294 550.147359 
L 863.664124 550.93822 
L 864.689953 553.847012 
L 865.715783 553.656055 
L 866.741612 560.146847 
L 867.767442 559.307018 
L 868.793271 586.861413 
L 869.819101 563.734041 
L 870.844931 564.708239 
L 871.87076 556.948059 
L 872.89659 562.282344 
L 873.922419 548.246065 
L 874.948249 552.440779 
L 876.999908 549.426383 
L 878.025738 550.751912 
L 879.051567 557.71849 
L 880.077397 550.104237 
L 881.103226 572.124328 
L 882.129056 552.34427 
L 884.180715 561.310085 
L 885.206545 562.053589 
L 886.232374 569.868327 
L 887.258204 557.214828 
L 888.284033 576.441759 
L 889.309863 560.780145 
L 890.335693 556.054616 
L 891.361522 555.181516 
L 892.387352 580.289248 
L 893.413181 557.946291 
L 894.439011 562.014091 
L 895.464841 561.442631 
L 896.49067 551.79258 
L 897.5165 547.306161 
L 898.542329 555.213473 
L 899.568159 542.091417 
L 900.593988 576.155315 
L 901.619818 555.873385 
L 902.645648 555.614936 
L 903.671477 556.331406 
L 904.697307 550.954023 
L 905.723136 555.874038 
L 906.748966 555.750642 
L 907.774795 558.288634 
L 908.800625 553.97253 
L 909.826455 556.682123 
L 910.852284 557.438922 
L 911.878114 559.929175 
L 912.903943 557.234386 
L 913.929773 557.657831 
L 914.955603 561.54965 
L 915.981432 561.285595 
L 917.007262 561.835301 
L 918.033091 592.509291 
L 919.058921 559.938209 
L 920.08475 560.829381 
L 921.11058 556.003141 
L 922.13641 555.496328 
L 923.162239 557.698403 
L 924.188069 556.019826 
L 925.213898 554.943883 
L 926.239728 554.071659 
L 928.291387 557.565873 
L 929.317217 561.694678 
L 930.343046 553.563315 
L 931.368876 559.717646 
L 932.394705 559.97358 
L 933.420535 559.866064 
L 934.446365 556.053141 
L 935.472194 558.061958 
L 936.498024 566.71061 
L 937.523853 558.862293 
L 938.549683 558.56619 
L 939.575512 560.426293 
L 940.601342 559.95431 
L 941.627172 559.106767 
L 942.653001 561.987796 
L 943.678831 565.682564 
L 944.70466 561.720815 
L 945.73049 562.184124 
L 946.75632 559.894791 
L 947.782149 558.698355 
L 948.807979 562.718561 
L 949.833808 563.188092 
L 950.859638 562.009132 
L 951.885467 559.584386 
L 952.911297 560.617662 
L 953.937127 562.595505 
L 954.962956 562.538723 
L 955.988786 565.667661 
L 957.014615 565.758871 
L 959.066274 560.115189 
L 960.092104 562.428702 
L 961.117934 563.426741 
L 962.143763 560.826081 
L 963.169593 564.447654 
L 964.195422 559.816792 
L 965.221252 562.903612 
L 966.247082 563.03193 
L 967.272911 564.0349 
L 968.298741 564.114758 
L 969.32457 563.903984 
L 970.3504 564.040769 
L 971.376229 563.840802 
L 972.402059 564.491311 
L 973.427889 563.371273 
L 974.453718 565.369918 
L 975.479548 562.459595 
L 976.505377 565.841318 
L 977.531207 563.981145 
L 978.557036 565.586127 
L 979.582866 573.556456 
L 980.608696 565.809349 
L 981.634525 554.860569 
L 982.660355 565.198503 
L 983.686184 559.264634 
L 984.712014 567.503163 
L 985.737844 563.866878 
L 986.763673 575.439893 
L 987.789503 566.663447 
L 988.815332 566.211016 
L 989.841162 564.722113 
L 990.866991 563.643428 
L 991.892821 567.318769 
L 992.918651 569.661119 
L 993.94448 566.406481 
L 994.97031 567.607715 
L 995.996139 565.727677 
L 997.021969 571.982452 
L 998.047799 566.81336 
L 999.073628 566.413761 
L 1000.099458 567.387975 
L 1002.151117 563.796989 
L 1003.176946 566.235607 
L 1004.202776 583.124942 
L 1005.228606 566.119974 
L 1006.254435 565.920939 
L 1008.306094 567.49826 
L 1009.331924 567.794479 
L 1010.357753 565.491706 
L 1011.383583 564.572991 
L 1013.435242 568.200784 
L 1015.486901 564.485638 
L 1016.512731 569.115775 
L 1017.538561 570.350509 
L 1018.56439 568.641303 
L 1019.59022 568.764266 
L 1020.616049 572.824092 
L 1021.641879 568.779496 
L 1022.667708 567.914959 
L 1023.693538 567.361379 
L 1024.719368 567.110963 
L 1025.745197 575.795234 
L 1026.771027 569.225423 
L 1027.796856 567.815029 
L 1029.848515 571.133987 
L 1030.874345 566.385142 
L 1031.900175 566.977093 
L 1032.926004 570.088784 
L 1033.951834 568.782942 
L 1034.977663 577.040929 
L 1036.003493 569.125342 
L 1037.029323 568.168312 
L 1038.055152 569.772701 
L 1039.080982 568.119557 
L 1040.106811 569.413878 
L 1041.132641 570.145676 
L 1042.15847 569.953974 
L 1043.1843 566.316023 
L 1044.21013 566.484351 
L 1045.235959 584.244437 
L 1046.261789 572.547677 
L 1047.287618 570.146381 
L 1048.313448 569.47019 
L 1049.339278 572.141117 
L 1050.365107 573.568692 
L 1051.390937 571.533278 
L 1052.416766 570.993701 
L 1053.442596 573.556499 
L 1054.468425 574.967469 
L 1055.494255 572.109157 
L 1056.520085 570.504245 
L 1057.545914 587.093827 
L 1058.571744 573.054637 
L 1059.597573 571.120595 
L 1060.623403 569.615396 
L 1061.649232 573.606092 
L 1062.675062 573.059078 
L 1063.700892 571.167076 
L 1064.726721 572.993978 
L 1065.752551 573.671391 
L 1066.77838 573.945108 
L 1067.80421 572.032482 
L 1068.83004 572.399512 
L 1069.855869 573.553326 
L 1070.881699 574.485673 
L 1071.907528 573.678158 
L 1072.933358 572.061671 
L 1073.959187 575.787945 
L 1074.985017 574.809356 
L 1076.010847 574.979358 
L 1077.036676 571.220635 
L 1078.062506 576.168338 
L 1079.088335 572.67712 
L 1080.114165 571.178737 
L 1081.139994 572.601685 
L 1082.165824 576.158025 
L 1083.191654 574.9642 
L 1084.217483 571.367811 
L 1085.243313 573.20045 
L 1086.269142 576.49213 
L 1087.294972 576.652219 
L 1088.320802 572.5419 
L 1089.346631 574.750618 
L 1090.372461 574.669353 
L 1091.39829 572.752814 
L 1093.449949 572.236154 
L 1094.475779 575.076537 
L 1095.501609 574.783303 
L 1096.527438 554.738523 
L 1097.553268 603.849925 
L 1098.579097 576.567068 
L 1099.604927 575.457347 
L 1100.630757 572.961785 
L 1101.656586 571.55375 
L 1102.682416 574.391355 
L 1103.708245 576.102056 
L 1104.734075 575.037938 
L 1105.759904 573.301564 
L 1107.811564 576.593677 
L 1108.837393 575.381298 
L 1109.863223 575.736631 
L 1110.889052 576.783249 
L 1111.914882 576.129251 
L 1112.940711 574.681263 
L 1113.966541 573.852081 
L 1114.992371 575.377213 
L 1116.0182 575.901822 
L 1117.04403 574.942101 
L 1118.069859 574.626745 
L 1119.095689 576.525093 
L 1120.121519 577.167373 
L 1122.173178 575.489473 
L 1123.199007 577.073453 
L 1124.224837 576.508383 
L 1125.250666 574.586551 
L 1126.276496 574.465416 
L 1127.302326 577.091459 
L 1128.328155 576.922315 
L 1129.353985 575.925762 
L 1130.379814 585.51828 
L 1131.405644 586.398711 
L 1132.431473 577.453482 
L 1133.457303 586.384236 
L 1134.483133 581.504256 
L 1135.508962 577.338883 
L 1136.534792 576.220189 
L 1137.560621 579.854491 
L 1138.586451 575.681609 
L 1139.612281 578.510255 
L 1140.63811 579.062359 
L 1141.66394 576.522982 
L 1142.689769 574.696351 
L 1143.715599 579.447083 
L 1144.741428 578.916917 
L 1145.767258 575.897569 
L 1146.793088 576.938626 
L 1147.818917 578.236819 
L 1148.844747 578.076245 
L 1149.870576 573.894207 
L 1150.896406 575.297197 
L 1151.922235 577.894082 
L 1152.948065 576.096107 
L 1153.973895 581.996314 
L 1154.999724 579.434638 
L 1156.025554 578.214326 
L 1157.051383 579.20222 
L 1158.077213 576.065316 
L 1159.103043 574.367855 
L 1160.128872 578.821723 
L 1161.154702 578.251799 
L 1162.180531 577.493969 
L 1163.206361 577.193978 
L 1164.23219 578.794323 
L 1165.25802 578.200487 
L 1166.28385 578.165415 
L 1167.309679 576.496002 
L 1168.335509 578.788763 
L 1169.361338 579.12797 
L 1170.387168 577.788071 
L 1171.412998 577.383642 
L 1172.438827 578.892064 
L 1173.464657 578.695189 
L 1175.516316 576.813461 
L 1176.542145 579.660036 
L 1177.567975 580.083116 
L 1178.593805 577.552032 
L 1179.619634 578.059207 
L 1180.645464 580.001798 
L 1181.671293 578.88795 
L 1182.697123 577.39612 
L 1183.722952 576.949537 
L 1184.748782 578.647934 
L 1185.774612 578.87281 
L 1186.800441 577.756954 
L 1187.826271 575.851569 
L 1188.8521 578.977249 
L 1189.87793 580.676381 
L 1190.90376 597.828069 
L 1191.929589 577.388844 
L 1192.955419 580.297435 
L 1193.981248 580.197261 
L 1195.007078 587.837334 
L 1196.032907 577.680884 
L 1197.058737 578.452439 
L 1198.084567 578.684709 
L 1199.110396 577.405641 
L 1200.136226 577.130145 
L 1201.162055 580.080877 
L 1202.187885 580.476666 
L 1203.213714 578.332967 
L 1204.239544 577.418694 
L 1205.265374 579.131401 
L 1206.291203 579.466118 
L 1207.317033 578.20466 
L 1208.342862 588.512054 
L 1209.368692 579.609282 
L 1210.394522 578.997417 
L 1211.420351 581.612733 
L 1212.446181 576.9692 
L 1213.47201 586.151699 
L 1214.49784 579.811516 
L 1215.523669 577.868517 
L 1216.549499 573.382381 
L 1217.575329 581.642451 
L 1219.626988 578.322975 
L 1220.652817 584.588353 
L 1221.678647 580.281199 
L 1222.704477 581.075783 
L 1223.730306 579.29831 
L 1224.756136 580.427417 
L 1225.781965 581.117144 
L 1226.807795 582.304344 
L 1227.833624 580.645382 
L 1228.859454 579.536917 
L 1229.885284 579.781062 
L 1230.911113 583.483636 
L 1231.936943 596.022368 
L 1232.962772 579.409959 
L 1233.988602 578.071973 
L 1235.014431 579.071328 
L 1236.040261 579.20023 
L 1237.066091 579.092969 
L 1238.09192 581.077167 
L 1239.11775 580.625302 
L 1240.143579 578.302752 
L 1241.169409 579.856146 
L 1242.195239 598.879498 
L 1243.221068 579.538655 
L 1244.246898 578.629533 
L 1245.272727 588.977309 
L 1245.272727 588.977309 
" style="fill:none;stroke:#1f77b4;stroke-linecap:square;stroke-width:1.5;"/>
   </g>
   <g id="line2d_18">
    <path clip-path="url(#pb65602112c)" d="M 230.727273 248.946893 
L 231.753102 176.644407 
L 232.778932 215.545185 
L 233.804761 162.489942 
L 234.830591 215.554185 
L 236.88225 222.798902 
L 237.90808 238.31112 
L 238.933909 267.329047 
L 239.959739 254.123313 
L 240.985569 279.280687 
L 242.011398 265.495645 
L 243.037228 281.949145 
L 244.063057 294.015317 
L 245.088887 288.480147 
L 246.114716 300.125693 
L 247.140546 258.252969 
L 248.166376 308.474663 
L 249.192205 302.112235 
L 250.218035 265.559323 
L 251.243864 340.11538 
L 252.269694 341.419675 
L 253.295523 337.64651 
L 254.321353 310.428527 
L 255.347183 346.886978 
L 256.373012 357.105878 
L 257.398842 331.456752 
L 258.424671 352.074856 
L 259.450501 329.861864 
L 260.476331 361.384846 
L 261.50216 297.659498 
L 262.52799 348.401663 
L 263.553819 336.8307 
L 264.579649 353.037007 
L 265.605478 339.558752 
L 266.631308 333.833786 
L 267.657138 325.663832 
L 268.682967 353.717827 
L 269.708797 399.836206 
L 270.734626 400.591735 
L 271.760456 341.214609 
L 272.786286 410.891101 
L 273.812115 345.073579 
L 274.837945 369.379819 
L 275.863774 381.515157 
L 276.889604 433.202628 
L 277.915433 330.42664 
L 278.941263 442.797596 
L 279.967093 425.20814 
L 280.992922 373.085721 
L 282.018752 297.256503 
L 283.044581 416.270341 
L 284.070411 471.300964 
L 285.09624 439.545138 
L 286.12207 354.226887 
L 287.1479 448.517397 
L 288.173729 453.121672 
L 289.199559 427.508772 
L 290.225388 448.525011 
L 291.251218 394.190234 
L 292.277048 385.92827 
L 293.302877 371.721641 
L 294.328707 448.026603 
L 295.354536 387.613974 
L 296.380366 444.083984 
L 297.406195 384.140365 
L 298.432025 404.225893 
L 300.483684 421.157753 
L 301.509514 466.749848 
L 302.535343 412.022304 
L 303.561173 382.32719 
L 304.587002 379.146479 
L 305.612832 476.621498 
L 306.638662 432.501429 
L 307.664491 376.051132 
L 308.690321 408.68443 
L 309.71615 395.847586 
L 310.74198 466.357385 
L 311.76781 383.597247 
L 312.793639 407.860063 
L 313.819469 375.634762 
L 314.845298 418.844305 
L 315.871128 498.275565 
L 316.896957 418.834956 
L 317.922787 421.279493 
L 318.948617 427.002608 
L 319.974446 460.337493 
L 321.000276 482.918931 
L 322.026105 392.569893 
L 323.051935 418.594252 
L 324.077765 453.780877 
L 325.103594 475.36642 
L 326.129424 406.583658 
L 327.155253 438.386407 
L 328.181083 400.708213 
L 329.206912 422.068947 
L 330.232742 421.281756 
L 331.258572 423.013651 
L 332.284401 424.983825 
L 333.310231 463.951119 
L 334.33606 423.859943 
L 335.36189 442.296167 
L 336.387719 436.941865 
L 337.413549 437.2731 
L 338.439379 439.740274 
L 339.465208 407.359851 
L 340.491038 408.670493 
L 341.516867 440.451517 
L 342.542697 441.285398 
L 343.568527 457.81276 
L 344.594356 446.536982 
L 345.620186 444.428301 
L 346.646015 447.235068 
L 347.671845 458.026186 
L 348.697674 527.852757 
L 349.723504 462.521654 
L 350.749334 456.209385 
L 351.775163 443.639149 
L 352.800993 468.628054 
L 353.826822 443.081215 
L 354.852652 464.796423 
L 355.878481 497.678158 
L 356.904311 453.658456 
L 357.930141 446.436772 
L 358.95597 464.925363 
L 359.9818 445.826128 
L 361.007629 494.984702 
L 362.033459 496.917373 
L 363.059289 500.072463 
L 364.085118 485.103618 
L 365.110948 478.832622 
L 366.136777 482.892837 
L 367.162607 467.793153 
L 368.188436 457.588142 
L 369.214266 474.106846 
L 370.240096 508.133987 
L 371.265925 503.651831 
L 372.291755 418.073463 
L 373.317584 495.561165 
L 374.343414 503.924896 
L 375.369243 508.63796 
L 376.395073 482.306016 
L 377.420903 479.214116 
L 378.446732 464.501809 
L 379.472562 483.476651 
L 380.498391 474.645554 
L 381.524221 476.882199 
L 382.550051 503.552955 
L 383.57588 471.545846 
L 384.60171 480.719757 
L 385.627539 488.878781 
L 386.653369 491.077974 
L 387.679198 506.169713 
L 388.705028 510.02499 
L 389.730858 488.685601 
L 390.756687 488.024073 
L 391.782517 509.80578 
L 392.808346 484.965789 
L 393.834176 491.057576 
L 394.860006 479.278575 
L 395.885835 477.314226 
L 396.911665 486.639284 
L 397.937494 494.579605 
L 398.963324 495.752106 
L 399.989153 517.667522 
L 401.014983 491.43657 
L 402.040813 484.826068 
L 403.066642 502.578672 
L 404.092472 492.722636 
L 405.118301 508.173421 
L 406.144131 509.053282 
L 407.16996 480.882094 
L 408.19579 532.593697 
L 410.247449 481.833202 
L 411.273279 501.231165 
L 412.299108 523.361563 
L 413.324938 483.384112 
L 414.350768 499.958376 
L 415.376597 495.031518 
L 416.402427 519.35074 
L 417.428256 488.689358 
L 418.454086 512.479514 
L 419.479915 518.388319 
L 420.505745 508.890525 
L 421.531575 503.797106 
L 422.557404 484.55645 
L 423.583234 499.164831 
L 424.609063 491.212 
L 425.634893 499.256133 
L 426.660722 504.827892 
L 427.686552 501.613464 
L 428.712382 507.241336 
L 429.738211 504.710746 
L 431.78987 512.512414 
L 432.8157 506.759741 
L 433.84153 511.717211 
L 434.867359 506.556223 
L 435.893189 504.798846 
L 436.919018 515.729058 
L 437.944848 505.208849 
L 438.970677 501.293824 
L 439.996507 499.326605 
L 441.022337 506.831067 
L 442.048166 512.073047 
L 443.073996 527.654112 
L 444.099825 513.078241 
L 445.125655 508.31682 
L 446.151485 505.24368 
L 447.177314 506.563861 
L 448.203144 505.246305 
L 449.228973 532.643676 
L 450.254803 501.979028 
L 451.280632 513.199596 
L 452.306462 513.587605 
L 453.332292 509.565776 
L 454.358121 514.115365 
L 455.383951 514.123401 
L 456.40978 504.267285 
L 457.43561 512.982678 
L 458.461439 503.655585 
L 459.487269 518.479206 
L 460.513099 516.486275 
L 461.538928 516.690789 
L 462.564758 516.235274 
L 463.590587 512.889038 
L 464.616417 519.309058 
L 466.668076 513.987482 
L 468.719735 530.931115 
L 469.745565 515.760422 
L 470.771394 522.623277 
L 471.797224 519.778364 
L 472.823054 512.072521 
L 473.848883 522.075035 
L 474.874713 563.002768 
L 475.900542 526.236497 
L 476.926372 519.106226 
L 477.952201 521.960576 
L 478.978031 521.147748 
L 480.003861 513.981637 
L 481.02969 519.798717 
L 482.05552 521.047192 
L 483.081349 520.814042 
L 484.107179 516.634962 
L 485.133009 518.997479 
L 486.158838 516.857015 
L 487.184668 521.809464 
L 488.210497 522.240964 
L 489.236327 521.899746 
L 490.262156 540.002568 
L 491.287986 517.725796 
L 492.313816 518.669206 
L 493.339645 523.388389 
L 494.365475 525.690909 
L 495.391304 521.555428 
L 496.417134 521.998588 
L 497.442964 563.598769 
L 498.468793 522.639379 
L 499.494623 519.559876 
L 500.520452 562.805809 
L 501.546282 562.757198 
L 502.572111 530.599351 
L 503.597941 528.562939 
L 504.623771 518.185092 
L 505.6496 543.076044 
L 506.67543 526.44256 
L 507.701259 528.46644 
L 508.727089 531.836147 
L 509.752918 527.421315 
L 510.778748 519.566174 
L 512.830407 544.927087 
L 513.856237 536.721571 
L 514.882066 506.751087 
L 515.907896 540.110414 
L 516.933726 545.335657 
L 517.959555 541.323154 
L 518.985385 541.282869 
L 520.011214 530.988428 
L 521.037044 529.4064 
L 522.062873 524.033931 
L 523.088703 538.254173 
L 524.114533 527.315136 
L 525.140362 522.986443 
L 526.166192 527.060404 
L 527.192021 520.337514 
L 528.217851 526.954336 
L 529.24368 524.847286 
L 530.26951 523.924555 
L 531.29534 530.457593 
L 532.321169 543.037436 
L 533.346999 536.525215 
L 534.372828 537.346354 
L 535.398658 532.767651 
L 536.424488 524.058857 
L 537.450317 525.873921 
L 538.476147 544.036986 
L 539.501976 541.415252 
L 540.527806 531.783962 
L 541.553635 541.422399 
L 542.579465 537.21095 
L 543.605295 537.704704 
L 544.631124 547.017218 
L 545.656954 545.888612 
L 546.682783 524.852835 
L 547.708613 536.957479 
L 548.734443 569.339379 
L 549.760272 545.332495 
L 550.786102 532.214215 
L 551.811931 544.406937 
L 552.837761 530.065226 
L 553.86359 535.132655 
L 554.88942 547.336471 
L 555.91525 546.120675 
L 556.941079 528.433219 
L 557.966909 532.182444 
L 558.992738 549.758203 
L 560.018568 543.003191 
L 561.044397 548.621496 
L 562.070227 532.058291 
L 563.096057 534.944566 
L 564.121886 562.053859 
L 565.147716 545.750226 
L 566.173545 547.810988 
L 567.199375 540.263923 
L 568.225205 551.779881 
L 569.251034 548.782319 
L 570.276864 534.236862 
L 571.302693 549.474286 
L 572.328523 545.076708 
L 573.354352 557.532111 
L 574.380182 553.631581 
L 575.406012 537.530011 
L 576.431841 533.667507 
L 577.457671 567.688899 
L 578.4835 534.421281 
L 579.50933 539.764538 
L 580.535159 539.968951 
L 581.560989 546.784426 
L 582.586819 549.291942 
L 583.612648 548.079387 
L 584.638478 551.187037 
L 585.664307 547.103432 
L 586.690137 555.424021 
L 587.715967 547.294478 
L 588.741796 554.440546 
L 589.767626 567.92418 
L 590.793455 541.84298 
L 591.819285 542.27947 
L 592.845114 548.778566 
L 593.870944 543.299069 
L 594.896774 542.166585 
L 595.922603 539.136149 
L 596.948433 542.565519 
L 597.974262 556.309886 
L 599.000092 549.084376 
L 600.025922 531.852231 
L 601.051751 544.974512 
L 602.077581 540.293442 
L 603.10341 542.526468 
L 604.12924 543.890839 
L 605.155069 538.296569 
L 606.180899 541.885147 
L 607.206729 546.430319 
L 608.232558 547.78227 
L 609.258388 555.560386 
L 610.284217 553.462121 
L 612.335876 555.667746 
L 613.361706 550.25395 
L 614.387536 555.041874 
L 615.413365 546.918135 
L 616.439195 546.471449 
L 617.465024 542.37094 
L 618.490854 546.179603 
L 619.516684 542.991282 
L 620.542513 551.996178 
L 621.568343 555.223353 
L 622.594172 552.255172 
L 623.620002 557.655404 
L 624.645831 553.265473 
L 625.671661 552.46888 
L 626.697491 556.664315 
L 627.72332 553.801827 
L 628.74915 556.339445 
L 629.774979 579.716743 
L 630.800809 554.419423 
L 631.826638 558.846972 
L 632.852468 557.43144 
L 633.878298 567.778963 
L 634.904127 557.536977 
L 635.929957 553.773359 
L 636.955786 560.847461 
L 639.007446 561.021861 
L 640.033275 560.483135 
L 641.059105 562.278497 
L 642.084934 559.698457 
L 643.110764 552.979691 
L 644.136593 559.209492 
L 646.188253 553.844832 
L 647.214082 565.823288 
L 648.239912 554.034211 
L 649.265741 561.922084 
L 650.291571 549.51491 
L 651.3174 554.09944 
L 652.34323 567.569928 
L 653.36906 557.876022 
L 654.394889 553.21825 
L 655.420719 555.582612 
L 656.446548 557.034723 
L 657.472378 554.695908 
L 658.498208 553.004698 
L 659.524037 552.42141 
L 660.549867 555.893083 
L 661.575696 545.359627 
L 662.601526 554.786816 
L 663.627355 562.543566 
L 664.653185 558.939085 
L 665.679015 553.133774 
L 666.704844 559.949165 
L 667.730674 553.408281 
L 668.756503 554.540622 
L 669.782333 551.688567 
L 670.808163 559.814239 
L 671.833992 562.930714 
L 672.859822 564.606113 
L 673.885651 553.597399 
L 674.911481 556.359573 
L 675.93731 557.785641 
L 676.96314 564.145906 
L 677.98897 587.164469 
L 679.014799 564.586927 
L 680.040629 564.058631 
L 681.066458 556.877691 
L 683.118117 554.250671 
L 684.143947 565.564967 
L 685.169777 556.139119 
L 686.195606 557.43405 
L 687.221436 558.236168 
L 688.247265 580.668108 
L 689.273095 565.690468 
L 690.298925 558.304375 
L 691.324754 561.460937 
L 692.350584 557.111046 
L 693.376413 569.795473 
L 694.402243 566.747573 
L 695.428072 557.635355 
L 696.453902 560.932713 
L 697.479732 558.059828 
L 698.505561 581.727951 
L 699.531391 557.846901 
L 700.55722 561.806922 
L 701.58305 561.152039 
L 702.608879 561.397876 
L 703.634709 558.371753 
L 704.660539 558.602081 
L 705.686368 559.219856 
L 706.712198 560.195629 
L 707.738027 559.698453 
L 708.763857 559.557231 
L 709.789687 561.355881 
L 710.815516 568.550714 
L 711.841346 566.47897 
L 712.867175 570.106626 
L 713.893005 573.092856 
L 714.918834 561.750714 
L 715.944664 562.367482 
L 716.970494 560.567663 
L 717.996323 563.549569 
L 719.022153 562.125558 
L 720.047982 565.251855 
L 721.073812 564.286084 
L 722.099642 566.552819 
L 723.125471 566.071088 
L 724.151301 567.045288 
L 725.17713 593.631686 
L 726.20296 561.532148 
L 727.228789 566.618086 
L 728.254619 565.565035 
L 729.280449 561.689113 
L 730.306278 560.153955 
L 731.332108 568.437536 
L 733.383767 558.200882 
L 734.409596 564.343739 
L 735.435426 566.350305 
L 736.461256 561.574629 
L 737.487085 564.731698 
L 738.512915 563.705318 
L 739.538744 564.334267 
L 740.564574 568.94431 
L 741.590404 567.078675 
L 742.616233 563.879653 
L 743.642063 566.092268 
L 744.667892 567.403018 
L 745.693722 555.43526 
L 746.719551 568.765126 
L 747.745381 565.743751 
L 748.771211 573.239753 
L 749.79704 568.796092 
L 750.82287 572.414153 
L 751.848699 567.617717 
L 752.874529 571.445456 
L 753.900358 572.741021 
L 754.926188 573.102325 
L 755.952018 585.716265 
L 756.977847 572.791268 
L 758.003677 570.778989 
L 759.029506 569.699088 
L 760.055336 572.048573 
L 761.081166 571.045105 
L 762.106995 571.852515 
L 763.132825 565.815925 
L 764.158654 589.495629 
L 765.184484 572.899233 
L 766.210313 564.973008 
L 767.236143 574.137164 
L 768.261973 568.006083 
L 769.287802 584.112696 
L 770.313632 566.354185 
L 771.339461 569.724005 
L 772.365291 568.135689 
L 773.391121 573.535075 
L 774.41695 567.81136 
L 775.44278 575.423695 
L 776.468609 566.14379 
L 777.494439 569.300981 
L 778.520268 568.132838 
L 779.546098 565.409867 
L 780.571928 567.680991 
L 781.597757 570.687217 
L 782.623587 575.639889 
L 783.649416 568.330177 
L 784.675246 569.366602 
L 785.701075 570.201512 
L 786.726905 568.705378 
L 787.752735 570.386502 
L 788.778564 572.969978 
L 789.804394 572.449986 
L 790.830223 569.85833 
L 791.856053 568.796763 
L 792.881883 572.278708 
L 793.907712 570.063127 
L 794.933542 569.679471 
L 795.959371 573.255358 
L 796.985201 572.834052 
L 798.01103 573.102726 
L 799.03686 574.398795 
L 800.06269 593.473144 
L 801.088519 567.289504 
L 802.114349 566.663636 
L 803.140178 574.625072 
L 804.166008 572.575401 
L 805.191837 573.516694 
L 806.217667 586.778433 
L 807.243497 568.716006 
L 808.269326 571.29095 
L 809.295156 572.654981 
L 810.320985 577.603268 
L 811.346815 570.553266 
L 812.372645 593.052252 
L 813.398474 575.676525 
L 814.424304 576.898562 
L 815.450133 577.009275 
L 816.475963 577.714274 
L 817.501792 575.739391 
L 818.527622 579.33981 
L 819.553452 574.637836 
L 820.579281 574.409074 
L 821.605111 574.915685 
L 823.65677 584.012482 
L 824.6826 579.021127 
L 825.708429 572.339437 
L 826.734259 571.216668 
L 827.760088 582.467105 
L 828.785918 572.058458 
L 829.811747 571.926143 
L 831.863407 577.071273 
L 832.889236 575.647178 
L 833.915066 573.532416 
L 834.940895 574.937766 
L 835.966725 572.771332 
L 836.992554 576.13484 
L 838.018384 575.536415 
L 839.044214 578.556847 
L 840.070043 572.369915 
L 841.095873 578.605712 
L 842.121702 575.6763 
L 843.147532 574.697473 
L 844.173362 577.842252 
L 845.199191 576.000388 
L 846.225021 575.446916 
L 847.25085 574.219132 
L 848.27668 573.833741 
L 849.302509 576.275833 
L 850.328339 575.285816 
L 851.354169 576.916618 
L 852.379998 578.278089 
L 853.405828 576.576256 
L 854.431657 580.5943 
L 855.457487 576.956103 
L 856.483316 580.307865 
L 857.509146 576.250667 
L 858.534976 580.012394 
L 859.560805 578.93746 
L 860.586635 575.806864 
L 861.612464 578.208406 
L 862.638294 581.219372 
L 863.664124 575.028543 
L 864.689953 579.672442 
L 865.715783 577.234079 
L 866.741612 576.888481 
L 867.767442 577.764325 
L 868.793271 575.971978 
L 869.819101 580.760586 
L 870.844931 577.095893 
L 871.87076 575.676565 
L 872.89659 577.390542 
L 873.922419 580.551675 
L 874.948249 576.121344 
L 875.974078 578.601236 
L 876.999908 576.743542 
L 878.025738 578.929941 
L 879.051567 577.13776 
L 880.077397 579.30612 
L 881.103226 577.406175 
L 882.129056 581.827567 
L 883.154886 580.146928 
L 884.180715 581.086302 
L 885.206545 580.641666 
L 886.232374 581.919254 
L 887.258204 577.856784 
L 888.284033 577.990784 
L 889.309863 578.279428 
L 890.335693 577.909958 
L 891.361522 576.156088 
L 892.387352 579.15862 
L 893.413181 580.096596 
L 894.439011 578.682844 
L 896.49067 585.606115 
L 897.5165 582.731217 
L 898.542329 583.226594 
L 899.568159 581.858721 
L 900.593988 582.471449 
L 901.619818 597.274808 
L 902.645648 584.455539 
L 903.671477 583.159629 
L 904.697307 580.802016 
L 905.723136 585.512093 
L 906.748966 585.708557 
L 907.774795 585.265114 
L 908.800625 584.135983 
L 909.826455 580.978121 
L 910.852284 582.690796 
L 911.878114 581.849166 
L 912.903943 582.531129 
L 913.929773 580.832113 
L 914.955603 581.322567 
L 915.981432 587.668805 
L 917.007262 583.115075 
L 918.033091 583.273028 
L 919.058921 583.072249 
L 920.08475 583.159062 
L 921.11058 586.503378 
L 922.13641 583.080782 
L 923.162239 583.454048 
L 924.188069 582.222539 
L 925.213898 582.477513 
L 926.239728 581.900936 
L 927.265557 582.743414 
L 928.291387 582.685336 
L 929.317217 588.037545 
L 930.343046 583.757386 
L 931.368876 582.369816 
L 932.394705 582.668782 
L 933.420535 584.351861 
L 934.446365 582.26916 
L 935.472194 583.879396 
L 936.498024 583.251429 
L 937.523853 583.965981 
L 938.549683 590.84864 
L 939.575512 585.269167 
L 940.601342 584.336284 
L 941.627172 584.817685 
L 942.653001 582.970094 
L 943.678831 584.673119 
L 944.70466 584.268485 
L 945.73049 585.336535 
L 946.75632 585.681327 
L 947.782149 588.485857 
L 948.807979 587.061477 
L 949.833808 587.55327 
L 950.859638 584.232296 
L 951.885467 586.892149 
L 952.911297 585.155316 
L 953.937127 587.936382 
L 954.962956 584.773111 
L 955.988786 587.374403 
L 957.014615 585.884213 
L 958.040445 588.194671 
L 959.066274 586.282342 
L 960.092104 587.471922 
L 961.117934 586.757346 
L 962.143763 587.141314 
L 963.169593 585.138323 
L 965.221252 586.862307 
L 966.247082 587.142074 
L 967.272911 591.963405 
L 968.298741 587.707853 
L 969.32457 586.198513 
L 970.3504 591.213549 
L 971.376229 585.50733 
L 972.402059 587.621892 
L 973.427889 586.263129 
L 974.453718 584.048149 
L 976.505377 588.022365 
L 977.531207 586.006479 
L 978.557036 585.860268 
L 979.582866 585.508567 
L 980.608696 588.756636 
L 981.634525 587.504924 
L 982.660355 587.181493 
L 983.686184 587.610609 
L 984.712014 587.793018 
L 985.737844 587.068409 
L 987.789503 588.095415 
L 988.815332 588.9685 
L 989.841162 587.836045 
L 990.866991 587.603496 
L 991.892821 586.922565 
L 992.918651 588.636337 
L 993.94448 587.317996 
L 994.97031 589.0515 
L 995.996139 589.09767 
L 997.021969 589.480745 
L 998.047799 588.414654 
L 999.073628 590.329419 
L 1000.099458 589.724023 
L 1001.125287 590.228585 
L 1002.151117 589.020295 
L 1003.176946 589.048585 
L 1004.202776 588.412771 
L 1005.228606 590.668054 
L 1006.254435 590.844634 
L 1007.280265 590.465777 
L 1008.306094 591.909336 
L 1009.331924 590.600023 
L 1010.357753 590.560163 
L 1011.383583 588.801263 
L 1012.409413 588.220177 
L 1013.435242 591.575205 
L 1014.461072 589.901958 
L 1017.538561 591.402092 
L 1018.56439 589.408633 
L 1019.59022 591.633118 
L 1020.616049 588.685777 
L 1021.641879 591.713262 
L 1022.667708 589.241026 
L 1023.693538 590.384871 
L 1024.719368 593.173045 
L 1025.745197 591.440073 
L 1026.771027 591.250389 
L 1027.796856 590.559754 
L 1028.822686 588.248539 
L 1029.848515 591.673192 
L 1030.874345 590.449322 
L 1031.900175 591.87241 
L 1032.926004 591.96586 
L 1033.951834 590.412843 
L 1034.977663 568.476403 
L 1036.003493 591.983068 
L 1037.029323 590.493466 
L 1038.055152 594.048356 
L 1039.080982 589.740579 
L 1040.106811 589.536487 
L 1041.132641 591.635875 
L 1042.15847 599.213302 
L 1043.1843 588.350592 
L 1044.21013 591.90834 
L 1045.235959 586.271052 
L 1046.261789 592.489711 
L 1047.287618 589.86765 
L 1048.313448 602.303036 
L 1049.339278 589.701241 
L 1050.365107 591.441179 
L 1051.390937 590.704421 
L 1052.416766 591.476276 
L 1053.442596 592.49951 
L 1054.468425 592.492468 
L 1055.494255 592.136797 
L 1056.520085 594.065724 
L 1057.545914 593.374009 
L 1058.571744 592.940753 
L 1059.597573 591.59157 
L 1060.623403 592.621048 
L 1061.649232 591.429212 
L 1062.675062 593.001676 
L 1063.700892 591.962436 
L 1064.726721 593.944793 
L 1065.752551 592.165597 
L 1066.77838 592.534173 
L 1067.80421 593.530103 
L 1068.83004 593.620074 
L 1069.855869 601.347212 
L 1070.881699 593.766146 
L 1071.907528 593.962102 
L 1072.933358 595.404768 
L 1073.959187 593.739414 
L 1074.985017 593.284356 
L 1076.010847 590.555287 
L 1077.036676 593.148365 
L 1078.062506 592.006301 
L 1079.088335 592.266247 
L 1080.114165 593.581012 
L 1081.139994 592.57575 
L 1082.165824 592.702524 
L 1083.191654 594.020841 
L 1084.217483 594.478988 
L 1085.243313 597.079888 
L 1086.269142 593.035582 
L 1087.294972 593.594474 
L 1088.320802 593.554539 
L 1089.346631 593.695587 
L 1090.372461 594.224191 
L 1091.39829 593.118866 
L 1093.449949 593.141872 
L 1094.475779 594.173555 
L 1095.501609 593.97067 
L 1096.527438 594.027469 
L 1097.553268 594.53327 
L 1098.579097 593.43496 
L 1099.604927 594.374544 
L 1100.630757 593.605098 
L 1101.656586 595.523165 
L 1102.682416 595.092469 
L 1103.708245 594.356319 
L 1104.734075 601.670433 
L 1105.759904 594.975934 
L 1106.785734 594.148502 
L 1107.811564 598.575335 
L 1108.837393 594.416874 
L 1109.863223 595.65963 
L 1110.889052 595.532215 
L 1111.914882 596.605932 
L 1112.940711 594.385732 
L 1113.966541 598.703792 
L 1114.992371 595.504654 
L 1116.0182 597.082453 
L 1117.04403 595.39455 
L 1118.069859 596.952153 
L 1119.095689 594.390628 
L 1120.121519 599.515129 
L 1121.147348 596.487628 
L 1122.173178 596.379675 
L 1123.199007 602.625887 
L 1124.224837 596.36009 
L 1125.250666 595.278575 
L 1126.276496 594.55384 
L 1127.302326 594.029336 
L 1128.328155 594.589132 
L 1129.353985 595.990388 
L 1130.379814 594.89431 
L 1131.405644 595.832534 
L 1132.431473 595.244942 
L 1133.457303 596.517339 
L 1134.483133 594.654179 
L 1135.508962 595.874927 
L 1136.534792 596.181597 
L 1137.560621 595.166958 
L 1138.586451 594.706835 
L 1139.612281 603.894194 
L 1140.63811 596.927398 
L 1141.66394 596.542756 
L 1142.689769 596.797271 
L 1143.715599 595.857952 
L 1144.741428 597.548354 
L 1145.767258 596.158804 
L 1146.793088 604.413605 
L 1147.818917 596.66797 
L 1148.844747 597.086247 
L 1149.870576 596.53148 
L 1150.896406 595.837714 
L 1151.922235 597.371273 
L 1152.948065 596.246385 
L 1153.973895 597.381324 
L 1154.999724 595.825426 
L 1156.025554 597.012864 
L 1157.051383 596.762844 
L 1158.077213 595.87196 
L 1159.103043 597.214374 
L 1160.128872 596.695832 
L 1161.154702 602.726753 
L 1162.180531 596.403012 
L 1163.206361 597.624018 
L 1164.23219 598.109715 
L 1165.25802 599.673149 
L 1166.28385 598.28794 
L 1167.309679 598.702639 
L 1168.335509 600.850296 
L 1169.361338 598.195768 
L 1170.387168 597.91963 
L 1171.412998 597.37054 
L 1172.438827 595.996707 
L 1173.464657 596.982357 
L 1174.490486 596.569528 
L 1175.516316 602.023589 
L 1176.542145 597.144502 
L 1177.567975 597.81044 
L 1178.593805 596.347665 
L 1179.619634 596.96201 
L 1181.671293 597.067444 
L 1182.697123 596.293885 
L 1183.722952 607.352716 
L 1184.748782 597.435338 
L 1185.774612 597.268596 
L 1186.800441 605.121854 
L 1187.826271 598.476071 
L 1188.8521 597.66225 
L 1189.87793 591.82279 
L 1190.90376 598.118365 
L 1191.929589 615.6 
L 1192.955419 598.083546 
L 1193.981248 598.223272 
L 1195.007078 596.590572 
L 1196.032907 597.268547 
L 1197.058737 597.37234 
L 1198.084567 598.19698 
L 1199.110396 597.469079 
L 1200.136226 596.399614 
L 1201.162055 597.409336 
L 1202.187885 597.587169 
L 1203.213714 598.024184 
L 1204.239544 597.536935 
L 1205.265374 596.919905 
L 1206.291203 597.78397 
L 1207.317033 597.099447 
L 1208.342862 598.549949 
L 1209.368692 597.72466 
L 1210.394522 598.092684 
L 1211.420351 597.632679 
L 1212.446181 598.481515 
L 1213.47201 599.115632 
L 1214.49784 599.363404 
L 1215.523669 598.525578 
L 1216.549499 599.402788 
L 1217.575329 598.479193 
L 1218.601158 606.882594 
L 1219.626988 599.300611 
L 1220.652817 598.827488 
L 1221.678647 598.158666 
L 1222.704477 599.098537 
L 1223.730306 598.133425 
L 1225.781965 601.196408 
L 1226.807795 598.245064 
L 1227.833624 599.234678 
L 1228.859454 597.941466 
L 1229.885284 597.960198 
L 1230.911113 599.161943 
L 1232.962772 597.523041 
L 1233.988602 598.213651 
L 1235.014431 599.966891 
L 1236.040261 599.536986 
L 1237.066091 600.194287 
L 1238.09192 598.659019 
L 1239.11775 598.981627 
L 1240.143579 598.619287 
L 1241.169409 599.759184 
L 1243.221068 599.869677 
L 1244.246898 599.858412 
L 1245.272727 599.455089 
L 1245.272727 599.455089 
" style="fill:none;stroke:#ff7f0e;stroke-linecap:square;stroke-width:1.5;"/>
   </g>
   <g id="patch_3">
    <path d="M 180 640.8 
L 180 86.4 
" style="fill:none;stroke:#000000;stroke-linecap:square;stroke-linejoin:miter;stroke-width:0.8;"/>
   </g>
   <g id="patch_4">
    <path d="M 1296 640.8 
L 1296 86.4 
" style="fill:none;stroke:#000000;stroke-linecap:square;stroke-linejoin:miter;stroke-width:0.8;"/>
   </g>
   <g id="patch_5">
    <path d="M 180 640.8 
L 1296 640.8 
" style="fill:none;stroke:#000000;stroke-linecap:square;stroke-linejoin:miter;stroke-width:0.8;"/>
   </g>
   <g id="patch_6">
    <path d="M 180 86.4 
L 1296 86.4 
" style="fill:none;stroke:#000000;stroke-linecap:square;stroke-linejoin:miter;stroke-width:0.8;"/>
   </g>
   <g id="text_19">
    <!-- AO Speedup -->
    <defs>
     <path d="M 34.1875 63.1875 
L 20.796875 26.90625 
L 47.609375 26.90625 
z
M 28.609375 72.90625 
L 39.796875 72.90625 
L 67.578125 0 
L 57.328125 0 
L 50.6875 18.703125 
L 17.828125 18.703125 
L 11.1875 0 
L 0.78125 0 
z
" id="DejaVuSans-65"/>
     <path d="M 39.40625 66.21875 
Q 28.65625 66.21875 22.328125 58.203125 
Q 16.015625 50.203125 16.015625 36.375 
Q 16.015625 22.609375 22.328125 14.59375 
Q 28.65625 6.59375 39.40625 6.59375 
Q 50.140625 6.59375 56.421875 14.59375 
Q 62.703125 22.609375 62.703125 36.375 
Q 62.703125 50.203125 56.421875 58.203125 
Q 50.140625 66.21875 39.40625 66.21875 
z
M 39.40625 74.21875 
Q 54.734375 74.21875 63.90625 63.9375 
Q 73.09375 53.65625 73.09375 36.375 
Q 73.09375 19.140625 63.90625 8.859375 
Q 54.734375 -1.421875 39.40625 -1.421875 
Q 24.03125 -1.421875 14.8125 8.828125 
Q 5.609375 19.09375 5.609375 36.375 
Q 5.609375 53.65625 14.8125 63.9375 
Q 24.03125 74.21875 39.40625 74.21875 
z
" id="DejaVuSans-79"/>
     <path id="DejaVuSans-32"/>
     <path d="M 53.515625 70.515625 
L 53.515625 60.890625 
Q 47.90625 63.578125 42.921875 64.890625 
Q 37.9375 66.21875 33.296875 66.21875 
Q 25.25 66.21875 20.875 63.09375 
Q 16.5 59.96875 16.5 54.203125 
Q 16.5 49.359375 19.40625 46.890625 
Q 22.3125 44.4375 30.421875 42.921875 
L 36.375 41.703125 
Q 47.40625 39.59375 52.65625 34.296875 
Q 57.90625 29 57.90625 20.125 
Q 57.90625 9.515625 50.796875 4.046875 
Q 43.703125 -1.421875 29.984375 -1.421875 
Q 24.8125 -1.421875 18.96875 -0.25 
Q 13.140625 0.921875 6.890625 3.21875 
L 6.890625 13.375 
Q 12.890625 10.015625 18.65625 8.296875 
Q 24.421875 6.59375 29.984375 6.59375 
Q 38.421875 6.59375 43.015625 9.90625 
Q 47.609375 13.234375 47.609375 19.390625 
Q 47.609375 24.75 44.3125 27.78125 
Q 41.015625 30.8125 33.5 32.328125 
L 27.484375 33.5 
Q 16.453125 35.6875 11.515625 40.375 
Q 6.59375 45.0625 6.59375 53.421875 
Q 6.59375 63.09375 13.40625 68.65625 
Q 20.21875 74.21875 32.171875 74.21875 
Q 37.3125 74.21875 42.625 73.28125 
Q 47.953125 72.359375 53.515625 70.515625 
z
" id="DejaVuSans-83"/>
    </defs>
    <g transform="translate(700.948125 80.4)scale(0.12 -0.12)">
     <use xlink:href="#DejaVuSans-65"/>
     <use x="66.658203" xlink:href="#DejaVuSans-79"/>
     <use x="145.369141" xlink:href="#DejaVuSans-32"/>
     <use x="177.15625" xlink:href="#DejaVuSans-83"/>
     <use x="240.632812" xlink:href="#DejaVuSans-112"/>
     <use x="304.109375" xlink:href="#DejaVuSans-101"/>
     <use x="365.632812" xlink:href="#DejaVuSans-101"/>
     <use x="427.15625" xlink:href="#DejaVuSans-100"/>
     <use x="490.632812" xlink:href="#DejaVuSans-117"/>
     <use x="554.011719" xlink:href="#DejaVuSans-112"/>
    </g>
   </g>
   <g id="legend_1">
    <g id="patch_7">
     <path d="M 1185.373437 123.75625 
L 1289 123.75625 
Q 1291 123.75625 1291 121.75625 
L 1291 93.4 
Q 1291 91.4 1289 91.4 
L 1185.373437 91.4 
Q 1183.373437 91.4 1183.373437 93.4 
L 1183.373437 121.75625 
Q 1183.373437 123.75625 1185.373437 123.75625 
z
" style="fill:#ffffff;opacity:0.8;stroke:#cccccc;stroke-linejoin:miter;"/>
    </g>
    <g id="line2d_19">
     <path d="M 1187.373437 99.498437 
L 1207.373437 99.498437 
" style="fill:none;stroke:#1f77b4;stroke-linecap:square;stroke-width:1.5;"/>
    </g>
    <g id="line2d_20"/>
    <g id="text_20">
     <!-- numpy.float32 -->
     <defs>
      <path d="M 52 44.1875 
Q 55.375 50.25 60.0625 53.125 
Q 64.75 56 71.09375 56 
Q 79.640625 56 84.28125 50.015625 
Q 88.921875 44.046875 88.921875 33.015625 
L 88.921875 0 
L 79.890625 0 
L 79.890625 32.71875 
Q 79.890625 40.578125 77.09375 44.375 
Q 74.3125 48.1875 68.609375 48.1875 
Q 61.625 48.1875 57.5625 43.546875 
Q 53.515625 38.921875 53.515625 30.90625 
L 53.515625 0 
L 44.484375 0 
L 44.484375 32.71875 
Q 44.484375 40.625 41.703125 44.40625 
Q 38.921875 48.1875 33.109375 48.1875 
Q 26.21875 48.1875 22.15625 43.53125 
Q 18.109375 38.875 18.109375 30.90625 
L 18.109375 0 
L 9.078125 0 
L 9.078125 54.6875 
L 18.109375 54.6875 
L 18.109375 46.1875 
Q 21.1875 51.21875 25.484375 53.609375 
Q 29.78125 56 35.6875 56 
Q 41.65625 56 45.828125 52.96875 
Q 50 49.953125 52 44.1875 
z
" id="DejaVuSans-109"/>
      <path d="M 32.171875 -5.078125 
Q 28.375 -14.84375 24.75 -17.8125 
Q 21.140625 -20.796875 15.09375 -20.796875 
L 7.90625 -20.796875 
L 7.90625 -13.28125 
L 13.1875 -13.28125 
Q 16.890625 -13.28125 18.9375 -11.515625 
Q 21 -9.765625 23.484375 -3.21875 
L 25.09375 0.875 
L 2.984375 54.6875 
L 12.5 54.6875 
L 29.59375 11.921875 
L 46.6875 54.6875 
L 56.203125 54.6875 
z
" id="DejaVuSans-121"/>
      <path d="M 37.109375 75.984375 
L 37.109375 68.5 
L 28.515625 68.5 
Q 23.6875 68.5 21.796875 66.546875 
Q 19.921875 64.59375 19.921875 59.515625 
L 19.921875 54.6875 
L 34.71875 54.6875 
L 34.71875 47.703125 
L 19.921875 47.703125 
L 19.921875 0 
L 10.890625 0 
L 10.890625 47.703125 
L 2.296875 47.703125 
L 2.296875 54.6875 
L 10.890625 54.6875 
L 10.890625 58.5 
Q 10.890625 67.625 15.140625 71.796875 
Q 19.390625 75.984375 28.609375 75.984375 
z
" id="DejaVuSans-102"/>
      <path d="M 9.421875 75.984375 
L 18.40625 75.984375 
L 18.40625 0 
L 9.421875 0 
z
" id="DejaVuSans-108"/>
      <path d="M 30.609375 48.390625 
Q 23.390625 48.390625 19.1875 42.75 
Q 14.984375 37.109375 14.984375 27.296875 
Q 14.984375 17.484375 19.15625 11.84375 
Q 23.34375 6.203125 30.609375 6.203125 
Q 37.796875 6.203125 41.984375 11.859375 
Q 46.1875 17.53125 46.1875 27.296875 
Q 46.1875 37.015625 41.984375 42.703125 
Q 37.796875 48.390625 30.609375 48.390625 
z
M 30.609375 56 
Q 42.328125 56 49.015625 48.375 
Q 55.71875 40.765625 55.71875 27.296875 
Q 55.71875 13.875 49.015625 6.21875 
Q 42.328125 -1.421875 30.609375 -1.421875 
Q 18.84375 -1.421875 12.171875 6.21875 
Q 5.515625 13.875 5.515625 27.296875 
Q 5.515625 40.765625 12.171875 48.375 
Q 18.84375 56 30.609375 56 
z
" id="DejaVuSans-111"/>
      <path d="M 34.28125 27.484375 
Q 23.390625 27.484375 19.1875 25 
Q 14.984375 22.515625 14.984375 16.5 
Q 14.984375 11.71875 18.140625 8.90625 
Q 21.296875 6.109375 26.703125 6.109375 
Q 34.1875 6.109375 38.703125 11.40625 
Q 43.21875 16.703125 43.21875 25.484375 
L 43.21875 27.484375 
z
M 52.203125 31.203125 
L 52.203125 0 
L 43.21875 0 
L 43.21875 8.296875 
Q 40.140625 3.328125 35.546875 0.953125 
Q 30.953125 -1.421875 24.3125 -1.421875 
Q 15.921875 -1.421875 10.953125 3.296875 
Q 6 8.015625 6 15.921875 
Q 6 25.140625 12.171875 29.828125 
Q 18.359375 34.515625 30.609375 34.515625 
L 43.21875 34.515625 
L 43.21875 35.40625 
Q 43.21875 41.609375 39.140625 45 
Q 35.0625 48.390625 27.6875 48.390625 
Q 23 48.390625 18.546875 47.265625 
Q 14.109375 46.140625 10.015625 43.890625 
L 10.015625 52.203125 
Q 14.9375 54.109375 19.578125 55.046875 
Q 24.21875 56 28.609375 56 
Q 40.484375 56 46.34375 49.84375 
Q 52.203125 43.703125 52.203125 31.203125 
z
" id="DejaVuSans-97"/>
      <path d="M 18.3125 70.21875 
L 18.3125 54.6875 
L 36.8125 54.6875 
L 36.8125 47.703125 
L 18.3125 47.703125 
L 18.3125 18.015625 
Q 18.3125 11.328125 20.140625 9.421875 
Q 21.96875 7.515625 27.59375 7.515625 
L 36.8125 7.515625 
L 36.8125 0 
L 27.59375 0 
Q 17.1875 0 13.234375 3.875 
Q 9.28125 7.765625 9.28125 18.015625 
L 9.28125 47.703125 
L 2.6875 47.703125 
L 2.6875 54.6875 
L 9.28125 54.6875 
L 9.28125 70.21875 
z
" id="DejaVuSans-116"/>
     </defs>
     <g transform="translate(1215.373437 102.998437)scale(0.1 -0.1)">
      <use xlink:href="#DejaVuSans-110"/>
      <use x="63.378906" xlink:href="#DejaVuSans-117"/>
      <use x="126.757812" xlink:href="#DejaVuSans-109"/>
      <use x="224.169922" xlink:href="#DejaVuSans-112"/>
      <use x="287.646484" xlink:href="#DejaVuSans-121"/>
      <use x="332.576172" xlink:href="#DejaVuSans-46"/>
      <use x="364.363281" xlink:href="#DejaVuSans-102"/>
      <use x="399.568359" xlink:href="#DejaVuSans-108"/>
      <use x="427.351562" xlink:href="#DejaVuSans-111"/>
      <use x="488.533203" xlink:href="#DejaVuSans-97"/>
      <use x="549.8125" xlink:href="#DejaVuSans-116"/>
      <use x="589.021484" xlink:href="#DejaVuSans-51"/>
      <use x="652.644531" xlink:href="#DejaVuSans-50"/>
     </g>
    </g>
    <g id="line2d_21">
     <path d="M 1187.373437 114.176562 
L 1207.373437 114.176562 
" style="fill:none;stroke:#ff7f0e;stroke-linecap:square;stroke-width:1.5;"/>
    </g>
    <g id="line2d_22"/>
    <g id="text_21">
     <!-- numpy.float64 -->
     <g transform="translate(1215.373437 117.676562)scale(0.1 -0.1)">
      <use xlink:href="#DejaVuSans-110"/>
      <use x="63.378906" xlink:href="#DejaVuSans-117"/>
      <use x="126.757812" xlink:href="#DejaVuSans-109"/>
      <use x="224.169922" xlink:href="#DejaVuSans-112"/>
      <use x="287.646484" xlink:href="#DejaVuSans-121"/>
      <use x="332.576172" xlink:href="#DejaVuSans-46"/>
      <use x="364.363281" xlink:href="#DejaVuSans-102"/>
      <use x="399.568359" xlink:href="#DejaVuSans-108"/>
      <use x="427.351562" xlink:href="#DejaVuSans-111"/>
      <use x="488.533203" xlink:href="#DejaVuSans-97"/>
      <use x="549.8125" xlink:href="#DejaVuSans-116"/>
      <use x="589.021484" xlink:href="#DejaVuSans-54"/>
      <use x="652.644531" xlink:href="#DejaVuSans-52"/>
     </g>
    </g>
   </g>
  </g>
 </g>
 <defs>
  <clipPath id="pb65602112c">
   <rect height="554.4" width="1116" x="180" y="86.4"/>
  </clipPath>
 </defs>
</svg>
