<?xml version="1.0" encoding="utf-8" standalone="no"?>
<!DOCTYPE svg PUBLIC "-//W3C//DTD SVG 1.1//EN"
  "http://www.w3.org/Graphics/SVG/1.1/DTD/svg11.dtd">
<!-- Created with matplotlib (https://matplotlib.org/) -->
<svg height="720pt" version="1.1" viewBox="0 0 1440 720" width="1440pt" xmlns="http://www.w3.org/2000/svg" xmlns:xlink="http://www.w3.org/1999/xlink">
 <defs>
  <style type="text/css">
*{stroke-linecap:butt;stroke-linejoin:round;}
  </style>
 </defs>
 <g id="figure_1">
  <g id="patch_1">
   <path d="M 0 720 
L 1440 720 
L 1440 0 
L 0 0 
z
" style="fill:#ffffff;"/>
  </g>
  <g id="axes_1">
   <g id="patch_2">
    <path d="M 180 640.8 
L 1296 640.8 
L 1296 86.4 
L 180 86.4 
z
" style="fill:#ffffff;"/>
   </g>
   <g id="matplotlib.axis_1">
    <g id="xtick_1">
     <g id="line2d_1">
      <defs>
       <path d="M 0 0 
L 0 3.5 
" id="m2ae7a96f11" style="stroke:#000000;stroke-width:0.8;"/>
      </defs>
      <g>
       <use style="stroke:#000000;stroke-width:0.8;" x="333.310231" xlink:href="#m2ae7a96f11" y="640.8"/>
      </g>
     </g>
     <g id="text_1">
      <!-- 100.0 -->
      <defs>
       <path d="M 12.40625 8.296875 
L 28.515625 8.296875 
L 28.515625 63.921875 
L 10.984375 60.40625 
L 10.984375 69.390625 
L 28.421875 72.90625 
L 38.28125 72.90625 
L 38.28125 8.296875 
L 54.390625 8.296875 
L 54.390625 0 
L 12.40625 0 
z
" id="DejaVuSans-49"/>
       <path d="M 31.78125 66.40625 
Q 24.171875 66.40625 20.328125 58.90625 
Q 16.5 51.421875 16.5 36.375 
Q 16.5 21.390625 20.328125 13.890625 
Q 24.171875 6.390625 31.78125 6.390625 
Q 39.453125 6.390625 43.28125 13.890625 
Q 47.125 21.390625 47.125 36.375 
Q 47.125 51.421875 43.28125 58.90625 
Q 39.453125 66.40625 31.78125 66.40625 
z
M 31.78125 74.21875 
Q 44.046875 74.21875 50.515625 64.515625 
Q 56.984375 54.828125 56.984375 36.375 
Q 56.984375 17.96875 50.515625 8.265625 
Q 44.046875 -1.421875 31.78125 -1.421875 
Q 19.53125 -1.421875 13.0625 8.265625 
Q 6.59375 17.96875 6.59375 36.375 
Q 6.59375 54.828125 13.0625 64.515625 
Q 19.53125 74.21875 31.78125 74.21875 
z
" id="DejaVuSans-48"/>
       <path d="M 10.6875 12.40625 
L 21 12.40625 
L 21 0 
L 10.6875 0 
z
" id="DejaVuSans-46"/>
      </defs>
      <g transform="translate(318.996168 655.398438)scale(0.1 -0.1)">
       <use xlink:href="#DejaVuSans-49"/>
       <use x="63.623047" xlink:href="#DejaVuSans-48"/>
       <use x="127.246094" xlink:href="#DejaVuSans-48"/>
       <use x="190.869141" xlink:href="#DejaVuSans-46"/>
       <use x="222.65625" xlink:href="#DejaVuSans-48"/>
      </g>
     </g>
    </g>
    <g id="xtick_2">
     <g id="line2d_2">
      <g>
       <use style="stroke:#000000;stroke-width:0.8;" x="435.893189" xlink:href="#m2ae7a96f11" y="640.8"/>
      </g>
     </g>
     <g id="text_2">
      <!-- 200.0 -->
      <defs>
       <path d="M 19.1875 8.296875 
L 53.609375 8.296875 
L 53.609375 0 
L 7.328125 0 
L 7.328125 8.296875 
Q 12.9375 14.109375 22.625 23.890625 
Q 32.328125 33.6875 34.8125 36.53125 
Q 39.546875 41.84375 41.421875 45.53125 
Q 43.3125 49.21875 43.3125 52.78125 
Q 43.3125 58.59375 39.234375 62.25 
Q 35.15625 65.921875 28.609375 65.921875 
Q 23.96875 65.921875 18.8125 64.3125 
Q 13.671875 62.703125 7.8125 59.421875 
L 7.8125 69.390625 
Q 13.765625 71.78125 18.9375 73 
Q 24.125 74.21875 28.421875 74.21875 
Q 39.75 74.21875 46.484375 68.546875 
Q 53.21875 62.890625 53.21875 53.421875 
Q 53.21875 48.921875 51.53125 44.890625 
Q 49.859375 40.875 45.40625 35.40625 
Q 44.1875 33.984375 37.640625 27.21875 
Q 31.109375 20.453125 19.1875 8.296875 
z
" id="DejaVuSans-50"/>
      </defs>
      <g transform="translate(421.579126 655.398438)scale(0.1 -0.1)">
       <use xlink:href="#DejaVuSans-50"/>
       <use x="63.623047" xlink:href="#DejaVuSans-48"/>
       <use x="127.246094" xlink:href="#DejaVuSans-48"/>
       <use x="190.869141" xlink:href="#DejaVuSans-46"/>
       <use x="222.65625" xlink:href="#DejaVuSans-48"/>
      </g>
     </g>
    </g>
    <g id="xtick_3">
     <g id="line2d_3">
      <g>
       <use style="stroke:#000000;stroke-width:0.8;" x="538.476147" xlink:href="#m2ae7a96f11" y="640.8"/>
      </g>
     </g>
     <g id="text_3">
      <!-- 300.0 -->
      <defs>
       <path d="M 40.578125 39.3125 
Q 47.65625 37.796875 51.625 33 
Q 55.609375 28.21875 55.609375 21.1875 
Q 55.609375 10.40625 48.1875 4.484375 
Q 40.765625 -1.421875 27.09375 -1.421875 
Q 22.515625 -1.421875 17.65625 -0.515625 
Q 12.796875 0.390625 7.625 2.203125 
L 7.625 11.71875 
Q 11.71875 9.328125 16.59375 8.109375 
Q 21.484375 6.890625 26.8125 6.890625 
Q 36.078125 6.890625 40.9375 10.546875 
Q 45.796875 14.203125 45.796875 21.1875 
Q 45.796875 27.640625 41.28125 31.265625 
Q 36.765625 34.90625 28.71875 34.90625 
L 20.21875 34.90625 
L 20.21875 43.015625 
L 29.109375 43.015625 
Q 36.375 43.015625 40.234375 45.921875 
Q 44.09375 48.828125 44.09375 54.296875 
Q 44.09375 59.90625 40.109375 62.90625 
Q 36.140625 65.921875 28.71875 65.921875 
Q 24.65625 65.921875 20.015625 65.03125 
Q 15.375 64.15625 9.8125 62.3125 
L 9.8125 71.09375 
Q 15.4375 72.65625 20.34375 73.4375 
Q 25.25 74.21875 29.59375 74.21875 
Q 40.828125 74.21875 47.359375 69.109375 
Q 53.90625 64.015625 53.90625 55.328125 
Q 53.90625 49.265625 50.4375 45.09375 
Q 46.96875 40.921875 40.578125 39.3125 
z
" id="DejaVuSans-51"/>
      </defs>
      <g transform="translate(524.162084 655.398438)scale(0.1 -0.1)">
       <use xlink:href="#DejaVuSans-51"/>
       <use x="63.623047" xlink:href="#DejaVuSans-48"/>
       <use x="127.246094" xlink:href="#DejaVuSans-48"/>
       <use x="190.869141" xlink:href="#DejaVuSans-46"/>
       <use x="222.65625" xlink:href="#DejaVuSans-48"/>
      </g>
     </g>
    </g>
    <g id="xtick_4">
     <g id="line2d_4">
      <g>
       <use style="stroke:#000000;stroke-width:0.8;" x="641.059105" xlink:href="#m2ae7a96f11" y="640.8"/>
      </g>
     </g>
     <g id="text_4">
      <!-- 400.0 -->
      <defs>
       <path d="M 37.796875 64.3125 
L 12.890625 25.390625 
L 37.796875 25.390625 
z
M 35.203125 72.90625 
L 47.609375 72.90625 
L 47.609375 25.390625 
L 58.015625 25.390625 
L 58.015625 17.1875 
L 47.609375 17.1875 
L 47.609375 0 
L 37.796875 0 
L 37.796875 17.1875 
L 4.890625 17.1875 
L 4.890625 26.703125 
z
" id="DejaVuSans-52"/>
      </defs>
      <g transform="translate(626.745042 655.398438)scale(0.1 -0.1)">
       <use xlink:href="#DejaVuSans-52"/>
       <use x="63.623047" xlink:href="#DejaVuSans-48"/>
       <use x="127.246094" xlink:href="#DejaVuSans-48"/>
       <use x="190.869141" xlink:href="#DejaVuSans-46"/>
       <use x="222.65625" xlink:href="#DejaVuSans-48"/>
      </g>
     </g>
    </g>
    <g id="xtick_5">
     <g id="line2d_5">
      <g>
       <use style="stroke:#000000;stroke-width:0.8;" x="743.642063" xlink:href="#m2ae7a96f11" y="640.8"/>
      </g>
     </g>
     <g id="text_5">
      <!-- 500.0 -->
      <defs>
       <path d="M 10.796875 72.90625 
L 49.515625 72.90625 
L 49.515625 64.59375 
L 19.828125 64.59375 
L 19.828125 46.734375 
Q 21.96875 47.46875 24.109375 47.828125 
Q 26.265625 48.1875 28.421875 48.1875 
Q 40.625 48.1875 47.75 41.5 
Q 54.890625 34.8125 54.890625 23.390625 
Q 54.890625 11.625 47.5625 5.09375 
Q 40.234375 -1.421875 26.90625 -1.421875 
Q 22.3125 -1.421875 17.546875 -0.640625 
Q 12.796875 0.140625 7.71875 1.703125 
L 7.71875 11.625 
Q 12.109375 9.234375 16.796875 8.0625 
Q 21.484375 6.890625 26.703125 6.890625 
Q 35.15625 6.890625 40.078125 11.328125 
Q 45.015625 15.765625 45.015625 23.390625 
Q 45.015625 31 40.078125 35.4375 
Q 35.15625 39.890625 26.703125 39.890625 
Q 22.75 39.890625 18.8125 39.015625 
Q 14.890625 38.140625 10.796875 36.28125 
z
" id="DejaVuSans-53"/>
      </defs>
      <g transform="translate(729.328 655.398438)scale(0.1 -0.1)">
       <use xlink:href="#DejaVuSans-53"/>
       <use x="63.623047" xlink:href="#DejaVuSans-48"/>
       <use x="127.246094" xlink:href="#DejaVuSans-48"/>
       <use x="190.869141" xlink:href="#DejaVuSans-46"/>
       <use x="222.65625" xlink:href="#DejaVuSans-48"/>
      </g>
     </g>
    </g>
    <g id="xtick_6">
     <g id="line2d_6">
      <g>
       <use style="stroke:#000000;stroke-width:0.8;" x="846.225021" xlink:href="#m2ae7a96f11" y="640.8"/>
      </g>
     </g>
     <g id="text_6">
      <!-- 600.0 -->
      <defs>
       <path d="M 33.015625 40.375 
Q 26.375 40.375 22.484375 35.828125 
Q 18.609375 31.296875 18.609375 23.390625 
Q 18.609375 15.53125 22.484375 10.953125 
Q 26.375 6.390625 33.015625 6.390625 
Q 39.65625 6.390625 43.53125 10.953125 
Q 47.40625 15.53125 47.40625 23.390625 
Q 47.40625 31.296875 43.53125 35.828125 
Q 39.65625 40.375 33.015625 40.375 
z
M 52.59375 71.296875 
L 52.59375 62.3125 
Q 48.875 64.0625 45.09375 64.984375 
Q 41.3125 65.921875 37.59375 65.921875 
Q 27.828125 65.921875 22.671875 59.328125 
Q 17.53125 52.734375 16.796875 39.40625 
Q 19.671875 43.65625 24.015625 45.921875 
Q 28.375 48.1875 33.59375 48.1875 
Q 44.578125 48.1875 50.953125 41.515625 
Q 57.328125 34.859375 57.328125 23.390625 
Q 57.328125 12.15625 50.6875 5.359375 
Q 44.046875 -1.421875 33.015625 -1.421875 
Q 20.359375 -1.421875 13.671875 8.265625 
Q 6.984375 17.96875 6.984375 36.375 
Q 6.984375 53.65625 15.1875 63.9375 
Q 23.390625 74.21875 37.203125 74.21875 
Q 40.921875 74.21875 44.703125 73.484375 
Q 48.484375 72.75 52.59375 71.296875 
z
" id="DejaVuSans-54"/>
      </defs>
      <g transform="translate(831.910958 655.398438)scale(0.1 -0.1)">
       <use xlink:href="#DejaVuSans-54"/>
       <use x="63.623047" xlink:href="#DejaVuSans-48"/>
       <use x="127.246094" xlink:href="#DejaVuSans-48"/>
       <use x="190.869141" xlink:href="#DejaVuSans-46"/>
       <use x="222.65625" xlink:href="#DejaVuSans-48"/>
      </g>
     </g>
    </g>
    <g id="xtick_7">
     <g id="line2d_7">
      <g>
       <use style="stroke:#000000;stroke-width:0.8;" x="948.807979" xlink:href="#m2ae7a96f11" y="640.8"/>
      </g>
     </g>
     <g id="text_7">
      <!-- 700.0 -->
      <defs>
       <path d="M 8.203125 72.90625 
L 55.078125 72.90625 
L 55.078125 68.703125 
L 28.609375 0 
L 18.3125 0 
L 43.21875 64.59375 
L 8.203125 64.59375 
z
" id="DejaVuSans-55"/>
      </defs>
      <g transform="translate(934.493916 655.398438)scale(0.1 -0.1)">
       <use xlink:href="#DejaVuSans-55"/>
       <use x="63.623047" xlink:href="#DejaVuSans-48"/>
       <use x="127.246094" xlink:href="#DejaVuSans-48"/>
       <use x="190.869141" xlink:href="#DejaVuSans-46"/>
       <use x="222.65625" xlink:href="#DejaVuSans-48"/>
      </g>
     </g>
    </g>
    <g id="xtick_8">
     <g id="line2d_8">
      <g>
       <use style="stroke:#000000;stroke-width:0.8;" x="1051.390937" xlink:href="#m2ae7a96f11" y="640.8"/>
      </g>
     </g>
     <g id="text_8">
      <!-- 800.0 -->
      <defs>
       <path d="M 31.78125 34.625 
Q 24.75 34.625 20.71875 30.859375 
Q 16.703125 27.09375 16.703125 20.515625 
Q 16.703125 13.921875 20.71875 10.15625 
Q 24.75 6.390625 31.78125 6.390625 
Q 38.8125 6.390625 42.859375 10.171875 
Q 46.921875 13.96875 46.921875 20.515625 
Q 46.921875 27.09375 42.890625 30.859375 
Q 38.875 34.625 31.78125 34.625 
z
M 21.921875 38.8125 
Q 15.578125 40.375 12.03125 44.71875 
Q 8.5 49.078125 8.5 55.328125 
Q 8.5 64.0625 14.71875 69.140625 
Q 20.953125 74.21875 31.78125 74.21875 
Q 42.671875 74.21875 48.875 69.140625 
Q 55.078125 64.0625 55.078125 55.328125 
Q 55.078125 49.078125 51.53125 44.71875 
Q 48 40.375 41.703125 38.8125 
Q 48.828125 37.15625 52.796875 32.3125 
Q 56.78125 27.484375 56.78125 20.515625 
Q 56.78125 9.90625 50.3125 4.234375 
Q 43.84375 -1.421875 31.78125 -1.421875 
Q 19.734375 -1.421875 13.25 4.234375 
Q 6.78125 9.90625 6.78125 20.515625 
Q 6.78125 27.484375 10.78125 32.3125 
Q 14.796875 37.15625 21.921875 38.8125 
z
M 18.3125 54.390625 
Q 18.3125 48.734375 21.84375 45.5625 
Q 25.390625 42.390625 31.78125 42.390625 
Q 38.140625 42.390625 41.71875 45.5625 
Q 45.3125 48.734375 45.3125 54.390625 
Q 45.3125 60.0625 41.71875 63.234375 
Q 38.140625 66.40625 31.78125 66.40625 
Q 25.390625 66.40625 21.84375 63.234375 
Q 18.3125 60.0625 18.3125 54.390625 
z
" id="DejaVuSans-56"/>
      </defs>
      <g transform="translate(1037.076874 655.398438)scale(0.1 -0.1)">
       <use xlink:href="#DejaVuSans-56"/>
       <use x="63.623047" xlink:href="#DejaVuSans-48"/>
       <use x="127.246094" xlink:href="#DejaVuSans-48"/>
       <use x="190.869141" xlink:href="#DejaVuSans-46"/>
       <use x="222.65625" xlink:href="#DejaVuSans-48"/>
      </g>
     </g>
    </g>
    <g id="xtick_9">
     <g id="line2d_9">
      <g>
       <use style="stroke:#000000;stroke-width:0.8;" x="1153.973895" xlink:href="#m2ae7a96f11" y="640.8"/>
      </g>
     </g>
     <g id="text_9">
      <!-- 900.0 -->
      <defs>
       <path d="M 10.984375 1.515625 
L 10.984375 10.5 
Q 14.703125 8.734375 18.5 7.8125 
Q 22.3125 6.890625 25.984375 6.890625 
Q 35.75 6.890625 40.890625 13.453125 
Q 46.046875 20.015625 46.78125 33.40625 
Q 43.953125 29.203125 39.59375 26.953125 
Q 35.25 24.703125 29.984375 24.703125 
Q 19.046875 24.703125 12.671875 31.3125 
Q 6.296875 37.9375 6.296875 49.421875 
Q 6.296875 60.640625 12.9375 67.421875 
Q 19.578125 74.21875 30.609375 74.21875 
Q 43.265625 74.21875 49.921875 64.515625 
Q 56.59375 54.828125 56.59375 36.375 
Q 56.59375 19.140625 48.40625 8.859375 
Q 40.234375 -1.421875 26.421875 -1.421875 
Q 22.703125 -1.421875 18.890625 -0.6875 
Q 15.09375 0.046875 10.984375 1.515625 
z
M 30.609375 32.421875 
Q 37.25 32.421875 41.125 36.953125 
Q 45.015625 41.5 45.015625 49.421875 
Q 45.015625 57.28125 41.125 61.84375 
Q 37.25 66.40625 30.609375 66.40625 
Q 23.96875 66.40625 20.09375 61.84375 
Q 16.21875 57.28125 16.21875 49.421875 
Q 16.21875 41.5 20.09375 36.953125 
Q 23.96875 32.421875 30.609375 32.421875 
z
" id="DejaVuSans-57"/>
      </defs>
      <g transform="translate(1139.659832 655.398438)scale(0.1 -0.1)">
       <use xlink:href="#DejaVuSans-57"/>
       <use x="63.623047" xlink:href="#DejaVuSans-48"/>
       <use x="127.246094" xlink:href="#DejaVuSans-48"/>
       <use x="190.869141" xlink:href="#DejaVuSans-46"/>
       <use x="222.65625" xlink:href="#DejaVuSans-48"/>
      </g>
     </g>
    </g>
    <g id="xtick_10">
     <g id="line2d_10">
      <g>
       <use style="stroke:#000000;stroke-width:0.8;" x="1256.556853" xlink:href="#m2ae7a96f11" y="640.8"/>
      </g>
     </g>
     <g id="text_10">
      <!-- 1000.0 -->
      <g transform="translate(1239.06154 655.398438)scale(0.1 -0.1)">
       <use xlink:href="#DejaVuSans-49"/>
       <use x="63.623047" xlink:href="#DejaVuSans-48"/>
       <use x="127.246094" xlink:href="#DejaVuSans-48"/>
       <use x="190.869141" xlink:href="#DejaVuSans-48"/>
       <use x="254.492188" xlink:href="#DejaVuSans-46"/>
       <use x="286.279297" xlink:href="#DejaVuSans-48"/>
      </g>
     </g>
    </g>
    <g id="text_11">
     <!-- n -->
     <defs>
      <path d="M 54.890625 33.015625 
L 54.890625 0 
L 45.90625 0 
L 45.90625 32.71875 
Q 45.90625 40.484375 42.875 44.328125 
Q 39.84375 48.1875 33.796875 48.1875 
Q 26.515625 48.1875 22.3125 43.546875 
Q 18.109375 38.921875 18.109375 30.90625 
L 18.109375 0 
L 9.078125 0 
L 9.078125 54.6875 
L 18.109375 54.6875 
L 18.109375 46.1875 
Q 21.34375 51.125 25.703125 53.5625 
Q 30.078125 56 35.796875 56 
Q 45.21875 56 50.046875 50.171875 
Q 54.890625 44.34375 54.890625 33.015625 
z
" id="DejaVuSans-110"/>
     </defs>
     <g transform="translate(734.83125 669.076563)scale(0.1 -0.1)">
      <use xlink:href="#DejaVuSans-110"/>
     </g>
    </g>
   </g>
   <g id="matplotlib.axis_2">
    <g id="ytick_1">
     <g id="line2d_11">
      <defs>
       <path d="M 0 0 
L -3.5 0 
" id="m70ce4468b9" style="stroke:#000000;stroke-width:0.8;"/>
      </defs>
      <g>
       <use style="stroke:#000000;stroke-width:0.8;" x="180" xlink:href="#m70ce4468b9" y="637.305333"/>
      </g>
     </g>
     <g id="text_12">
      <!-- 0 -->
      <g transform="translate(166.6375 641.104552)scale(0.1 -0.1)">
       <use xlink:href="#DejaVuSans-48"/>
      </g>
     </g>
    </g>
    <g id="ytick_2">
     <g id="line2d_12">
      <g>
       <use style="stroke:#000000;stroke-width:0.8;" x="180" xlink:href="#m70ce4468b9" y="556.588026"/>
      </g>
     </g>
     <g id="text_13">
      <!-- 50 -->
      <g transform="translate(160.275 560.387245)scale(0.1 -0.1)">
       <use xlink:href="#DejaVuSans-53"/>
       <use x="63.623047" xlink:href="#DejaVuSans-48"/>
      </g>
     </g>
    </g>
    <g id="ytick_3">
     <g id="line2d_13">
      <g>
       <use style="stroke:#000000;stroke-width:0.8;" x="180" xlink:href="#m70ce4468b9" y="475.870719"/>
      </g>
     </g>
     <g id="text_14">
      <!-- 100 -->
      <g transform="translate(153.9125 479.669938)scale(0.1 -0.1)">
       <use xlink:href="#DejaVuSans-49"/>
       <use x="63.623047" xlink:href="#DejaVuSans-48"/>
       <use x="127.246094" xlink:href="#DejaVuSans-48"/>
      </g>
     </g>
    </g>
    <g id="ytick_4">
     <g id="line2d_14">
      <g>
       <use style="stroke:#000000;stroke-width:0.8;" x="180" xlink:href="#m70ce4468b9" y="395.153413"/>
      </g>
     </g>
     <g id="text_15">
      <!-- 150 -->
      <g transform="translate(153.9125 398.952631)scale(0.1 -0.1)">
       <use xlink:href="#DejaVuSans-49"/>
       <use x="63.623047" xlink:href="#DejaVuSans-53"/>
       <use x="127.246094" xlink:href="#DejaVuSans-48"/>
      </g>
     </g>
    </g>
    <g id="ytick_5">
     <g id="line2d_15">
      <g>
       <use style="stroke:#000000;stroke-width:0.8;" x="180" xlink:href="#m70ce4468b9" y="314.436106"/>
      </g>
     </g>
     <g id="text_16">
      <!-- 200 -->
      <g transform="translate(153.9125 318.235325)scale(0.1 -0.1)">
       <use xlink:href="#DejaVuSans-50"/>
       <use x="63.623047" xlink:href="#DejaVuSans-48"/>
       <use x="127.246094" xlink:href="#DejaVuSans-48"/>
      </g>
     </g>
    </g>
    <g id="ytick_6">
     <g id="line2d_16">
      <g>
       <use style="stroke:#000000;stroke-width:0.8;" x="180" xlink:href="#m70ce4468b9" y="233.718799"/>
      </g>
     </g>
     <g id="text_17">
      <!-- 250 -->
      <g transform="translate(153.9125 237.518018)scale(0.1 -0.1)">
       <use xlink:href="#DejaVuSans-50"/>
       <use x="63.623047" xlink:href="#DejaVuSans-53"/>
       <use x="127.246094" xlink:href="#DejaVuSans-48"/>
      </g>
     </g>
    </g>
    <g id="ytick_7">
     <g id="line2d_17">
      <g>
       <use style="stroke:#000000;stroke-width:0.8;" x="180" xlink:href="#m70ce4468b9" y="153.001492"/>
      </g>
     </g>
     <g id="text_18">
      <!-- 300 -->
      <g transform="translate(153.9125 156.800711)scale(0.1 -0.1)">
       <use xlink:href="#DejaVuSans-51"/>
       <use x="63.623047" xlink:href="#DejaVuSans-48"/>
       <use x="127.246094" xlink:href="#DejaVuSans-48"/>
      </g>
     </g>
    </g>
    <g id="text_19">
     <!-- speedup -->
     <defs>
      <path d="M 44.28125 53.078125 
L 44.28125 44.578125 
Q 40.484375 46.53125 36.375 47.5 
Q 32.28125 48.484375 27.875 48.484375 
Q 21.1875 48.484375 17.84375 46.4375 
Q 14.5 44.390625 14.5 40.28125 
Q 14.5 37.15625 16.890625 35.375 
Q 19.28125 33.59375 26.515625 31.984375 
L 29.59375 31.296875 
Q 39.15625 29.25 43.1875 25.515625 
Q 47.21875 21.78125 47.21875 15.09375 
Q 47.21875 7.46875 41.1875 3.015625 
Q 35.15625 -1.421875 24.609375 -1.421875 
Q 20.21875 -1.421875 15.453125 -0.5625 
Q 10.6875 0.296875 5.421875 2 
L 5.421875 11.28125 
Q 10.40625 8.6875 15.234375 7.390625 
Q 20.0625 6.109375 24.8125 6.109375 
Q 31.15625 6.109375 34.5625 8.28125 
Q 37.984375 10.453125 37.984375 14.40625 
Q 37.984375 18.0625 35.515625 20.015625 
Q 33.0625 21.96875 24.703125 23.78125 
L 21.578125 24.515625 
Q 13.234375 26.265625 9.515625 29.90625 
Q 5.8125 33.546875 5.8125 39.890625 
Q 5.8125 47.609375 11.28125 51.796875 
Q 16.75 56 26.8125 56 
Q 31.78125 56 36.171875 55.265625 
Q 40.578125 54.546875 44.28125 53.078125 
z
" id="DejaVuSans-115"/>
      <path d="M 18.109375 8.203125 
L 18.109375 -20.796875 
L 9.078125 -20.796875 
L 9.078125 54.6875 
L 18.109375 54.6875 
L 18.109375 46.390625 
Q 20.953125 51.265625 25.265625 53.625 
Q 29.59375 56 35.59375 56 
Q 45.5625 56 51.78125 48.09375 
Q 58.015625 40.1875 58.015625 27.296875 
Q 58.015625 14.40625 51.78125 6.484375 
Q 45.5625 -1.421875 35.59375 -1.421875 
Q 29.59375 -1.421875 25.265625 0.953125 
Q 20.953125 3.328125 18.109375 8.203125 
z
M 48.6875 27.296875 
Q 48.6875 37.203125 44.609375 42.84375 
Q 40.53125 48.484375 33.40625 48.484375 
Q 26.265625 48.484375 22.1875 42.84375 
Q 18.109375 37.203125 18.109375 27.296875 
Q 18.109375 17.390625 22.1875 11.75 
Q 26.265625 6.109375 33.40625 6.109375 
Q 40.53125 6.109375 44.609375 11.75 
Q 48.6875 17.390625 48.6875 27.296875 
z
" id="DejaVuSans-112"/>
      <path d="M 56.203125 29.59375 
L 56.203125 25.203125 
L 14.890625 25.203125 
Q 15.484375 15.921875 20.484375 11.0625 
Q 25.484375 6.203125 34.421875 6.203125 
Q 39.59375 6.203125 44.453125 7.46875 
Q 49.3125 8.734375 54.109375 11.28125 
L 54.109375 2.78125 
Q 49.265625 0.734375 44.1875 -0.34375 
Q 39.109375 -1.421875 33.890625 -1.421875 
Q 20.796875 -1.421875 13.15625 6.1875 
Q 5.515625 13.8125 5.515625 26.8125 
Q 5.515625 40.234375 12.765625 48.109375 
Q 20.015625 56 32.328125 56 
Q 43.359375 56 49.78125 48.890625 
Q 56.203125 41.796875 56.203125 29.59375 
z
M 47.21875 32.234375 
Q 47.125 39.59375 43.09375 43.984375 
Q 39.0625 48.390625 32.421875 48.390625 
Q 24.90625 48.390625 20.390625 44.140625 
Q 15.875 39.890625 15.1875 32.171875 
z
" id="DejaVuSans-101"/>
      <path d="M 45.40625 46.390625 
L 45.40625 75.984375 
L 54.390625 75.984375 
L 54.390625 0 
L 45.40625 0 
L 45.40625 8.203125 
Q 42.578125 3.328125 38.25 0.953125 
Q 33.9375 -1.421875 27.875 -1.421875 
Q 17.96875 -1.421875 11.734375 6.484375 
Q 5.515625 14.40625 5.515625 27.296875 
Q 5.515625 40.1875 11.734375 48.09375 
Q 17.96875 56 27.875 56 
Q 33.9375 56 38.25 53.625 
Q 42.578125 51.265625 45.40625 46.390625 
z
M 14.796875 27.296875 
Q 14.796875 17.390625 18.875 11.75 
Q 22.953125 6.109375 30.078125 6.109375 
Q 37.203125 6.109375 41.296875 11.75 
Q 45.40625 17.390625 45.40625 27.296875 
Q 45.40625 37.203125 41.296875 42.84375 
Q 37.203125 48.484375 30.078125 48.484375 
Q 22.953125 48.484375 18.875 42.84375 
Q 14.796875 37.203125 14.796875 27.296875 
z
" id="DejaVuSans-100"/>
      <path d="M 8.5 21.578125 
L 8.5 54.6875 
L 17.484375 54.6875 
L 17.484375 21.921875 
Q 17.484375 14.15625 20.5 10.265625 
Q 23.53125 6.390625 29.59375 6.390625 
Q 36.859375 6.390625 41.078125 11.03125 
Q 45.3125 15.671875 45.3125 23.6875 
L 45.3125 54.6875 
L 54.296875 54.6875 
L 54.296875 0 
L 45.3125 0 
L 45.3125 8.40625 
Q 42.046875 3.421875 37.71875 1 
Q 33.40625 -1.421875 27.6875 -1.421875 
Q 18.265625 -1.421875 13.375 4.4375 
Q 8.5 10.296875 8.5 21.578125 
z
M 31.109375 56 
z
" id="DejaVuSans-117"/>
     </defs>
     <g transform="translate(147.832812 385.049219)rotate(-90)scale(0.1 -0.1)">
      <use xlink:href="#DejaVuSans-115"/>
      <use x="52.099609" xlink:href="#DejaVuSans-112"/>
      <use x="115.576172" xlink:href="#DejaVuSans-101"/>
      <use x="177.099609" xlink:href="#DejaVuSans-101"/>
      <use x="238.623047" xlink:href="#DejaVuSans-100"/>
      <use x="302.099609" xlink:href="#DejaVuSans-117"/>
      <use x="365.478516" xlink:href="#DejaVuSans-112"/>
     </g>
    </g>
   </g>
   <g id="line2d_18">
    <path clip-path="url(#p07474439af)" d="M 230.727273 282.024098 
L 231.753102 383.57473 
L 232.778932 170.060958 
L 233.804761 204.515207 
L 234.830591 164.091531 
L 235.856421 454.42346 
L 236.88225 190.359176 
L 237.90808 162.841613 
L 238.933909 420.32823 
L 239.959739 111.6 
L 240.985569 314.526086 
L 242.011398 248.852065 
L 243.037228 273.191203 
L 244.063057 257.080248 
L 245.088887 270.922225 
L 246.114716 238.786707 
L 247.140546 153.308565 
L 248.166376 392.295888 
L 249.192205 278.578142 
L 250.218035 487.296428 
L 251.243864 413.707233 
L 252.269694 361.468743 
L 253.295523 340.069676 
L 254.321353 310.836822 
L 255.347183 214.125905 
L 256.373012 368.248017 
L 257.398842 330.057779 
L 258.424671 328.304588 
L 259.450501 364.860416 
L 260.476331 356.568638 
L 261.50216 317.664647 
L 262.52799 372.67581 
L 263.553819 359.214953 
L 264.579649 331.493057 
L 265.605478 319.661324 
L 266.631308 382.294746 
L 267.657138 356.521564 
L 268.682967 352.196921 
L 269.708797 441.027407 
L 270.734626 405.189912 
L 271.760456 359.914352 
L 272.786286 385.529262 
L 273.812115 397.392227 
L 274.837945 381.928224 
L 275.863774 394.417727 
L 276.889604 389.92119 
L 277.915433 376.436053 
L 278.941263 381.144139 
L 279.967093 400.172032 
L 280.992922 375.482528 
L 282.018752 400.943437 
L 283.044581 397.354034 
L 284.070411 408.559261 
L 285.09624 410.563549 
L 286.12207 444.963781 
L 287.1479 439.050215 
L 288.173729 401.39248 
L 289.199559 390.969675 
L 290.225388 446.736907 
L 291.251218 438.472869 
L 292.277048 426.7301 
L 293.302877 417.416236 
L 294.328707 396.275329 
L 295.354536 426.497076 
L 296.380366 402.17354 
L 297.406195 396.944358 
L 298.432025 475.409318 
L 299.457855 473.663226 
L 300.483684 415.153602 
L 301.509514 445.956045 
L 302.535343 423.156842 
L 303.561173 410.779498 
L 304.587002 436.680482 
L 305.612832 451.072075 
L 306.638662 430.937844 
L 307.664491 416.533237 
L 308.690321 450.145692 
L 309.71615 446.377929 
L 310.74198 416.52845 
L 311.76781 451.801643 
L 312.793639 494.789918 
L 313.819469 456.1919 
L 314.845298 445.939842 
L 315.871128 431.578181 
L 316.896957 421.651047 
L 317.922787 450.538131 
L 318.948617 489.302818 
L 319.974446 453.253738 
L 321.000276 464.705458 
L 323.051935 432.579037 
L 324.077765 450.840966 
L 325.103594 428.629945 
L 326.129424 440.288704 
L 327.155253 499.763864 
L 328.181083 458.110352 
L 329.206912 450.834018 
L 330.232742 455.875496 
L 331.258572 474.589994 
L 332.284401 459.683229 
L 333.310231 486.007935 
L 334.33606 476.262925 
L 335.36189 454.68581 
L 336.387719 445.169176 
L 337.413549 455.402359 
L 338.439379 466.760584 
L 339.465208 458.707415 
L 340.491038 449.248677 
L 341.516867 470.484748 
L 342.542697 461.789992 
L 343.568527 459.514877 
L 344.594356 463.664493 
L 345.620186 454.526003 
L 346.646015 467.237032 
L 347.671845 487.435825 
L 348.697674 455.980962 
L 349.723504 484.761229 
L 350.749334 491.755158 
L 351.775163 465.946391 
L 353.826822 484.220209 
L 354.852652 492.602763 
L 355.878481 494.337363 
L 356.904311 458.05386 
L 357.930141 464.794467 
L 358.95597 481.777611 
L 359.9818 491.746886 
L 361.007629 507.911209 
L 362.033459 501.701762 
L 363.059289 479.278875 
L 364.085118 498.155494 
L 365.110948 509.976409 
L 366.136777 500.04099 
L 367.162607 502.591726 
L 368.188436 507.237658 
L 369.214266 472.61953 
L 370.240096 473.024384 
L 371.265925 506.528161 
L 372.291755 499.552368 
L 373.317584 494.76842 
L 374.343414 534.214486 
L 375.369243 487.914865 
L 376.395073 484.206999 
L 377.420903 478.285849 
L 379.472562 488.957398 
L 380.498391 496.00285 
L 381.524221 477.923399 
L 382.550051 494.3434 
L 383.57588 482.668123 
L 384.60171 477.18168 
L 385.627539 492.469754 
L 386.653369 488.272987 
L 387.679198 495.796083 
L 388.705028 493.22016 
L 389.730858 533.326848 
L 390.756687 495.190142 
L 391.782517 486.912683 
L 393.834176 504.322895 
L 394.860006 485.955824 
L 395.885835 487.372097 
L 396.911665 495.86193 
L 397.937494 479.957655 
L 398.963324 499.084715 
L 399.989153 499.330016 
L 401.014983 502.486608 
L 402.040813 491.188367 
L 403.066642 503.324627 
L 404.092472 493.64157 
L 405.118301 504.713147 
L 406.144131 488.661645 
L 407.16996 495.497127 
L 408.19579 495.591719 
L 409.22162 482.312523 
L 410.247449 492.200629 
L 411.273279 498.378508 
L 412.299108 514.194053 
L 413.324938 501.985244 
L 414.350768 507.309256 
L 415.376597 554.237219 
L 416.402427 518.013603 
L 417.428256 519.885752 
L 418.454086 524.398785 
L 420.505745 517.948823 
L 421.531575 502.760165 
L 422.557404 505.695392 
L 423.583234 509.01411 
L 424.609063 510.572092 
L 425.634893 509.976319 
L 426.660722 502.90285 
L 427.686552 503.929271 
L 428.712382 506.946045 
L 429.738211 497.054145 
L 430.764041 509.306947 
L 431.78987 530.873645 
L 432.8157 513.299172 
L 433.84153 509.679965 
L 434.867359 505.209524 
L 435.893189 513.52963 
L 436.919018 508.433811 
L 437.944848 509.254071 
L 439.996507 517.556383 
L 441.022337 515.629511 
L 442.048166 509.897198 
L 443.073996 511.429127 
L 444.099825 509.487865 
L 445.125655 514.242581 
L 446.151485 532.396869 
L 447.177314 517.384339 
L 448.203144 515.496138 
L 449.228973 526.542107 
L 450.254803 521.719114 
L 451.280632 515.644792 
L 452.306462 526.98161 
L 453.332292 540.456625 
L 454.358121 516.573092 
L 455.383951 511.812404 
L 456.40978 532.223227 
L 457.43561 528.221236 
L 459.487269 518.319668 
L 460.513099 517.456155 
L 461.538928 517.052114 
L 462.564758 519.848272 
L 463.590587 521.583562 
L 464.616417 524.616268 
L 465.642247 528.151343 
L 466.668076 537.174633 
L 467.693906 525.621298 
L 468.719735 521.004283 
L 470.771394 535.605421 
L 471.797224 522.21144 
L 472.823054 520.373996 
L 473.848883 524.350085 
L 474.874713 525.958021 
L 475.900542 534.913558 
L 476.926372 524.584806 
L 477.952201 537.045508 
L 478.978031 521.82643 
L 480.003861 526.831982 
L 481.02969 536.151498 
L 482.05552 537.736054 
L 483.081349 531.956246 
L 484.107179 535.276873 
L 485.133009 527.719963 
L 486.158838 524.037908 
L 487.184668 528.352088 
L 488.210497 536.869423 
L 489.236327 529.2553 
L 490.262156 541.657888 
L 491.287986 527.843163 
L 492.313816 531.410861 
L 493.339645 536.855749 
L 494.365475 535.673063 
L 495.391304 525.375853 
L 496.417134 532.642361 
L 497.442964 528.825007 
L 499.494623 537.17635 
L 500.520452 536.879673 
L 501.546282 525.855859 
L 502.572111 544.278855 
L 503.597941 536.178965 
L 504.623771 534.988986 
L 505.6496 541.35803 
L 506.67543 542.101969 
L 507.701259 540.205183 
L 508.727089 541.494177 
L 509.752918 533.849826 
L 510.778748 537.223548 
L 511.804578 539.245974 
L 512.830407 534.891869 
L 513.856237 533.554893 
L 514.882066 538.305954 
L 515.907896 537.386047 
L 516.933726 542.44436 
L 517.959555 538.030737 
L 518.985385 540.900093 
L 520.011214 531.819427 
L 521.037044 541.258471 
L 522.062873 541.049249 
L 523.088703 538.15262 
L 524.114533 537.421904 
L 525.140362 537.855552 
L 526.166192 539.576445 
L 527.192021 538.20638 
L 528.217851 540.043716 
L 529.24368 538.610722 
L 530.26951 541.79716 
L 531.29534 536.494713 
L 532.321169 543.720888 
L 533.346999 498.083255 
L 534.372828 527.253791 
L 535.398658 543.816718 
L 536.424488 539.531608 
L 537.450317 538.067669 
L 538.476147 543.763706 
L 540.527806 541.702325 
L 541.553635 540.208592 
L 542.579465 549.193233 
L 544.631124 549.97046 
L 545.656954 538.326218 
L 546.682783 542.863938 
L 547.708613 508.40336 
L 548.734443 537.458226 
L 549.760272 517.723075 
L 550.786102 558.315492 
L 551.811931 547.493921 
L 552.837761 542.624951 
L 553.86359 544.554328 
L 554.88942 545.215182 
L 555.91525 543.585466 
L 556.941079 550.325108 
L 557.966909 544.512499 
L 558.992738 543.452458 
L 560.018568 544.348862 
L 561.044397 531.45471 
L 562.070227 560.321989 
L 563.096057 538.764082 
L 564.121886 536.832266 
L 565.147716 577.374559 
L 566.173545 546.135009 
L 567.199375 547.642537 
L 568.225205 549.744933 
L 569.251034 544.351725 
L 570.276864 551.371569 
L 571.302693 582.736757 
L 572.328523 547.857403 
L 573.354352 547.349258 
L 574.380182 560.31218 
L 575.406012 551.738328 
L 576.431841 557.937536 
L 577.457671 549.514463 
L 578.4835 555.686272 
L 579.50933 549.801209 
L 580.535159 549.913298 
L 581.560989 557.836047 
L 582.586819 538.079945 
L 583.612648 537.80957 
L 584.638478 541.83959 
L 585.664307 553.176185 
L 586.690137 548.877587 
L 587.715967 574.700455 
L 588.741796 537.904705 
L 589.767626 572.270735 
L 590.793455 526.516944 
L 591.819285 576.420774 
L 592.845114 542.820052 
L 593.870944 544.574038 
L 594.896774 566.274743 
L 595.922603 512.416273 
L 596.948433 559.826921 
L 597.974262 544.510031 
L 599.000092 557.85596 
L 600.025922 555.864304 
L 601.051751 547.891083 
L 602.077581 544.522879 
L 603.10341 539.074343 
L 604.12924 556.744502 
L 605.155069 567.795787 
L 606.180899 543.985773 
L 607.206729 562.144722 
L 608.232558 548.016326 
L 609.258388 564.197953 
L 610.284217 560.921854 
L 611.310047 563.185618 
L 612.335876 534.615042 
L 613.361706 564.316677 
L 614.387536 547.363802 
L 615.413365 546.412093 
L 616.439195 563.765857 
L 617.465024 547.699795 
L 618.490854 539.32423 
L 619.516684 544.599311 
L 620.542513 557.888409 
L 621.568343 555.417346 
L 622.594172 561.352027 
L 623.620002 555.32775 
L 624.645831 553.298298 
L 625.671661 562.232607 
L 626.697491 558.499632 
L 627.72332 564.556549 
L 628.74915 555.93244 
L 629.774979 564.332114 
L 630.800809 562.453396 
L 631.826638 558.460911 
L 632.852468 551.858683 
L 633.878298 557.780592 
L 634.904127 566.023747 
L 635.929957 554.9595 
L 636.955786 560.416616 
L 637.981616 555.363095 
L 639.007446 577.031216 
L 640.033275 561.856827 
L 641.059105 562.799752 
L 642.084934 575.386266 
L 643.110764 557.800814 
L 644.136593 557.288732 
L 645.162423 564.430847 
L 646.188253 561.323549 
L 647.214082 560.985611 
L 648.239912 558.266281 
L 649.265741 572.429393 
L 650.291571 558.956323 
L 651.3174 567.734123 
L 652.34323 563.395616 
L 653.36906 561.583513 
L 654.394889 558.961615 
L 655.420719 560.103251 
L 656.446548 561.574644 
L 657.472378 557.839621 
L 658.498208 561.180024 
L 659.524037 565.754493 
L 660.549867 564.561281 
L 661.575696 563.558198 
L 662.601526 566.398287 
L 663.627355 558.456286 
L 664.653185 562.276162 
L 665.679015 560.464563 
L 666.704844 560.721033 
L 667.730674 574.697202 
L 668.756503 560.719279 
L 669.782333 563.352876 
L 670.808163 565.105991 
L 671.833992 562.444759 
L 672.859822 561.070484 
L 673.885651 555.258947 
L 674.911481 563.904986 
L 676.96314 559.799928 
L 677.98897 565.040527 
L 679.014799 560.196457 
L 681.066458 561.591131 
L 682.092288 567.452599 
L 684.143947 567.512939 
L 685.169777 564.597277 
L 686.195606 562.417797 
L 687.221436 562.361755 
L 688.247265 561.707696 
L 689.273095 544.731542 
L 690.298925 566.776842 
L 691.324754 565.182629 
L 692.350584 560.424966 
L 694.402243 569.281073 
L 695.428072 564.736999 
L 696.453902 568.136707 
L 697.479732 563.072497 
L 698.505561 567.049374 
L 699.531391 577.860733 
L 700.55722 563.900092 
L 701.58305 563.459318 
L 702.608879 565.354304 
L 703.634709 563.140864 
L 704.660539 565.295186 
L 705.686368 568.761911 
L 706.712198 568.561323 
L 707.738027 561.130171 
L 708.763857 565.922869 
L 709.789687 565.113189 
L 710.815516 572.036681 
L 712.867175 567.393649 
L 713.893005 563.95435 
L 714.918834 566.391025 
L 715.944664 566.058908 
L 716.970494 577.1242 
L 717.996323 569.479417 
L 719.022153 571.554667 
L 720.047982 568.96968 
L 721.073812 567.504217 
L 722.099642 565.742992 
L 723.125471 568.144728 
L 724.151301 567.447976 
L 725.17713 567.344645 
L 726.20296 567.826634 
L 727.228789 567.267021 
L 728.254619 571.588295 
L 729.280449 562.000829 
L 730.306278 570.79573 
L 731.332108 571.17677 
L 732.357937 568.125308 
L 733.383767 561.790009 
L 734.409596 575.519597 
L 735.435426 574.483589 
L 736.461256 582.466166 
L 737.487085 576.945379 
L 738.512915 581.824878 
L 739.538744 580.681109 
L 740.564574 551.277627 
L 741.590404 568.020516 
L 742.616233 562.596751 
L 743.642063 574.123156 
L 744.667892 563.412891 
L 745.693722 577.8362 
L 746.719551 571.129536 
L 747.745381 581.503112 
L 748.771211 569.273779 
L 749.79704 570.86952 
L 750.82287 570.970048 
L 751.848699 573.146381 
L 752.874529 571.788047 
L 753.900358 573.188745 
L 754.926188 572.818381 
L 755.952018 569.850103 
L 756.977847 573.390347 
L 758.003677 570.828078 
L 760.055336 574.694754 
L 761.081166 570.974888 
L 762.106995 570.774209 
L 763.132825 572.316314 
L 765.184484 574.525868 
L 766.210313 569.885894 
L 767.236143 573.844729 
L 768.261973 571.876324 
L 769.287802 572.923355 
L 770.313632 574.55439 
L 771.339461 573.999812 
L 772.365291 582.687698 
L 773.391121 571.713136 
L 774.41695 577.224522 
L 775.44278 574.739556 
L 776.468609 572.770446 
L 777.494439 571.083485 
L 778.520268 579.641054 
L 779.546098 571.492215 
L 780.571928 571.279277 
L 781.597757 573.705794 
L 782.623587 573.111413 
L 783.649416 578.198979 
L 784.675246 578.695354 
L 785.701075 574.176998 
L 786.726905 574.580439 
L 787.752735 568.634066 
L 788.778564 570.656789 
L 789.804394 575.510549 
L 790.830223 572.316695 
L 791.856053 574.878134 
L 792.881883 573.742858 
L 793.907712 576.222698 
L 794.933542 575.625911 
L 795.959371 573.438677 
L 796.985201 577.197817 
L 798.01103 575.989547 
L 799.03686 573.200634 
L 800.06269 577.347653 
L 801.088519 572.135255 
L 802.114349 574.749043 
L 803.140178 574.735952 
L 804.166008 577.898053 
L 805.191837 576.320359 
L 806.217667 576.960084 
L 807.243497 577.139688 
L 808.269326 577.715452 
L 809.295156 576.692632 
L 811.346815 578.030083 
L 812.372645 573.480601 
L 813.398474 575.757665 
L 814.424304 575.981731 
L 815.450133 573.009989 
L 816.475963 577.494038 
L 817.501792 575.604276 
L 818.527622 575.255856 
L 819.553452 574.255726 
L 820.579281 575.777857 
L 821.605111 576.243885 
L 822.63094 575.620703 
L 823.65677 564.202071 
L 824.6826 583.578774 
L 825.708429 576.732723 
L 826.734259 578.496543 
L 827.760088 575.808113 
L 828.785918 576.503391 
L 829.811747 575.500218 
L 830.837577 575.793624 
L 831.863407 578.148894 
L 832.889236 576.960776 
L 833.915066 576.44844 
L 834.940895 579.565791 
L 835.966725 580.379586 
L 836.992554 577.391612 
L 838.018384 575.982351 
L 839.044214 578.225971 
L 840.070043 577.480856 
L 841.095873 578.701326 
L 842.121702 577.134158 
L 843.147532 584.3783 
L 844.173362 574.493481 
L 845.199191 578.23689 
L 847.25085 578.471677 
L 848.27668 576.585398 
L 849.302509 571.528552 
L 850.328339 578.673025 
L 851.354169 580.976258 
L 852.379998 576.913113 
L 853.405828 581.66334 
L 854.431657 580.624381 
L 855.457487 586.44744 
L 856.483316 580.547192 
L 857.509146 578.398267 
L 858.534976 581.107793 
L 859.560805 577.834568 
L 860.586635 576.978595 
L 861.612464 579.042173 
L 862.638294 576.928042 
L 863.664124 578.433123 
L 864.689953 578.030203 
L 865.715783 578.861379 
L 866.741612 578.625291 
L 867.767442 580.342085 
L 868.793271 578.748775 
L 869.819101 578.834298 
L 870.844931 578.481537 
L 871.87076 577.282745 
L 872.89659 587.11123 
L 873.922419 581.021634 
L 874.948249 582.056248 
L 875.974078 580.135787 
L 876.999908 588.922508 
L 878.025738 581.643092 
L 879.051567 583.201181 
L 880.077397 582.579474 
L 881.103226 583.400189 
L 882.129056 579.393018 
L 883.154886 579.203038 
L 884.180715 581.070012 
L 885.206545 582.442894 
L 886.232374 580.064536 
L 887.258204 580.65448 
L 888.284033 579.007743 
L 889.309863 581.085387 
L 890.335693 579.469157 
L 891.361522 580.540225 
L 892.387352 579.713087 
L 893.413181 581.164401 
L 894.439011 575.188653 
L 895.464841 583.277144 
L 896.49067 582.699412 
L 897.5165 581.798792 
L 898.542329 581.098569 
L 899.568159 581.454273 
L 900.593988 579.531764 
L 901.619818 581.311581 
L 902.645648 582.274102 
L 903.671477 580.958734 
L 904.697307 581.602884 
L 905.723136 579.413507 
L 906.748966 581.262971 
L 907.774795 580.272588 
L 908.800625 582.573456 
L 910.852284 583.65107 
L 911.878114 582.666525 
L 912.903943 580.973435 
L 913.929773 581.855496 
L 914.955603 581.978767 
L 915.981432 583.22668 
L 917.007262 582.418139 
L 918.033091 583.870037 
L 919.058921 580.403673 
L 920.08475 584.324589 
L 921.11058 582.713277 
L 922.13641 582.61063 
L 923.162239 584.60461 
L 925.213898 584.923417 
L 926.239728 584.309974 
L 927.265557 588.39221 
L 928.291387 584.356536 
L 929.317217 582.011936 
L 930.343046 582.713253 
L 931.368876 584.649484 
L 932.394705 584.093192 
L 933.420535 582.164755 
L 934.446365 582.27946 
L 935.472194 581.489528 
L 936.498024 581.928666 
L 937.523853 581.30204 
L 938.549683 582.408314 
L 939.575512 582.963649 
L 940.601342 580.596508 
L 941.627172 583.295996 
L 942.653001 587.054891 
L 943.678831 583.830775 
L 944.70466 583.045494 
L 945.73049 583.339237 
L 946.75632 582.878469 
L 947.782149 583.049277 
L 948.807979 592.867656 
L 949.833808 584.367374 
L 950.859638 580.992587 
L 951.885467 586.179387 
L 952.911297 583.570195 
L 953.937127 581.64544 
L 954.962956 582.79131 
L 955.988786 583.114826 
L 957.014615 590.543843 
L 958.040445 583.656107 
L 959.066274 581.766357 
L 960.092104 585.57869 
L 961.117934 582.441654 
L 962.143763 586.160061 
L 963.169593 583.749047 
L 964.195422 582.629798 
L 965.221252 584.396729 
L 966.247082 583.241702 
L 967.272911 584.902074 
L 968.298741 584.524637 
L 970.3504 585.069578 
L 971.376229 583.72848 
L 972.402059 584.430708 
L 973.427889 584.481326 
L 974.453718 585.273521 
L 975.479548 585.775141 
L 976.505377 586.600326 
L 977.531207 584.837983 
L 978.557036 584.843843 
L 979.582866 585.230827 
L 982.660355 587.497879 
L 983.686184 586.099997 
L 984.712014 586.038345 
L 985.737844 585.05174 
L 986.763673 584.348989 
L 987.789503 587.410003 
L 988.815332 586.844056 
L 989.841162 584.526209 
L 990.866991 584.54631 
L 991.892821 585.169062 
L 992.918651 586.159266 
L 993.94448 585.707889 
L 994.97031 584.866296 
L 995.996139 585.894941 
L 997.021969 585.547791 
L 998.047799 594.545687 
L 999.073628 586.75547 
L 1000.099458 586.691371 
L 1001.125287 587.718335 
L 1002.151117 586.060919 
L 1003.176946 594.520398 
L 1004.202776 587.96378 
L 1005.228606 586.330687 
L 1006.254435 585.699693 
L 1007.280265 587.83144 
L 1008.306094 590.548121 
L 1009.331924 586.176948 
L 1010.357753 587.812483 
L 1012.409413 584.536668 
L 1013.435242 587.380492 
L 1014.461072 592.257728 
L 1015.486901 584.66492 
L 1016.512731 586.285073 
L 1017.538561 586.47228 
L 1018.56439 591.368462 
L 1019.59022 587.527043 
L 1020.616049 585.768961 
L 1021.641879 586.049813 
L 1022.667708 590.178951 
L 1023.693538 586.07304 
L 1024.719368 586.699917 
L 1025.745197 588.371605 
L 1026.771027 592.042079 
L 1027.796856 587.778242 
L 1029.848515 586.176878 
L 1030.874345 589.192635 
L 1031.900175 587.174098 
L 1032.926004 585.928367 
L 1033.951834 587.055785 
L 1034.977663 588.791775 
L 1036.003493 589.730054 
L 1037.029323 587.827403 
L 1038.055152 588.312036 
L 1039.080982 588.980374 
L 1040.106811 588.698613 
L 1041.132641 588.809547 
L 1042.15847 589.084161 
L 1043.1843 590.479417 
L 1044.21013 587.664886 
L 1045.235959 587.770045 
L 1046.261789 586.905383 
L 1047.287618 588.616438 
L 1048.313448 588.151806 
L 1049.339278 588.069671 
L 1050.365107 589.655043 
L 1051.390937 589.504411 
L 1052.416766 588.408453 
L 1053.442596 588.00782 
L 1054.468425 588.188947 
L 1055.494255 588.075551 
L 1056.520085 587.124647 
L 1057.545914 587.340384 
L 1058.571744 583.457289 
L 1059.597573 588.067824 
L 1060.623403 588.029578 
L 1061.649232 592.065984 
L 1062.675062 587.365201 
L 1063.700892 595.506631 
L 1064.726721 588.437982 
L 1065.752551 587.410553 
L 1066.77838 593.518164 
L 1067.80421 590.702388 
L 1068.83004 589.406142 
L 1069.855869 589.971367 
L 1070.881699 587.168776 
L 1071.907528 590.2264 
L 1072.933358 590.460034 
L 1073.959187 588.772886 
L 1074.985017 589.178675 
L 1076.010847 587.683242 
L 1077.036676 590.342628 
L 1078.062506 588.536814 
L 1080.114165 589.035515 
L 1081.139994 589.008417 
L 1082.165824 588.77224 
L 1083.191654 588.358049 
L 1084.217483 591.25789 
L 1085.243313 590.13297 
L 1086.269142 589.587835 
L 1087.294972 588.377264 
L 1088.320802 592.864501 
L 1089.346631 589.541057 
L 1090.372461 589.608443 
L 1091.39829 589.349994 
L 1092.42412 589.735282 
L 1093.449949 591.373852 
L 1095.501609 590.039487 
L 1096.527438 595.007266 
L 1097.553268 591.343897 
L 1098.579097 590.868164 
L 1099.604927 590.867084 
L 1100.630757 590.120885 
L 1101.656586 590.919609 
L 1102.682416 589.629613 
L 1103.708245 589.216193 
L 1104.734075 589.994052 
L 1105.759904 590.261509 
L 1106.785734 591.550766 
L 1107.811564 589.367554 
L 1108.837393 591.674718 
L 1109.863223 591.132275 
L 1110.889052 591.296165 
L 1111.914882 590.110872 
L 1112.940711 590.503693 
L 1113.966541 590.324884 
L 1114.992371 587.207949 
L 1116.0182 589.927434 
L 1117.04403 590.906781 
L 1118.069859 590.514475 
L 1119.095689 591.475835 
L 1120.121519 595.952587 
L 1121.147348 591.00813 
L 1122.173178 592.59979 
L 1123.199007 590.700652 
L 1124.224837 591.259465 
L 1125.250666 591.123934 
L 1126.276496 590.777333 
L 1127.302326 591.65973 
L 1128.328155 592.350536 
L 1129.353985 590.597645 
L 1130.379814 591.005327 
L 1131.405644 590.268121 
L 1132.431473 592.061798 
L 1133.457303 591.949316 
L 1134.483133 592.2306 
L 1135.508962 589.96925 
L 1136.534792 592.017728 
L 1137.560621 592.241762 
L 1138.586451 590.65581 
L 1139.612281 591.585566 
L 1140.63811 595.170466 
L 1141.66394 591.925404 
L 1142.689769 594.542372 
L 1143.715599 590.672273 
L 1144.741428 590.841076 
L 1145.767258 595.412414 
L 1146.793088 590.768504 
L 1147.818917 589.647095 
L 1148.844747 590.651168 
L 1149.870576 595.222961 
L 1150.896406 591.567493 
L 1151.922235 591.013989 
L 1153.973895 591.063203 
L 1154.999724 590.759399 
L 1156.025554 591.027036 
L 1157.051383 590.400408 
L 1158.077213 590.983078 
L 1159.103043 592.181482 
L 1160.128872 591.715679 
L 1161.154702 590.834196 
L 1162.180531 591.950914 
L 1163.206361 591.766115 
L 1164.23219 590.19778 
L 1165.25802 591.193943 
L 1166.28385 591.139518 
L 1168.335509 592.612355 
L 1169.361338 591.98012 
L 1170.387168 593.454934 
L 1171.412998 592.948421 
L 1172.438827 592.115372 
L 1173.464657 590.776568 
L 1174.490486 592.706887 
L 1175.516316 592.217639 
L 1176.542145 592.818858 
L 1177.567975 592.017766 
L 1178.593805 593.00367 
L 1179.619634 592.542416 
L 1180.645464 592.431333 
L 1181.671293 593.198954 
L 1182.697123 596.386419 
L 1183.722952 593.494781 
L 1184.748782 591.563961 
L 1185.774612 592.981194 
L 1186.800441 592.241576 
L 1187.826271 592.991056 
L 1188.8521 593.540133 
L 1189.87793 592.531159 
L 1190.90376 593.465513 
L 1191.929589 593.529415 
L 1192.955419 593.191391 
L 1193.981248 591.770112 
L 1195.007078 592.831484 
L 1196.032907 592.165358 
L 1197.058737 591.970493 
L 1198.084567 592.359918 
L 1199.110396 592.934755 
L 1200.136226 594.385293 
L 1201.162055 592.405541 
L 1202.187885 594.480054 
L 1203.213714 591.942801 
L 1204.239544 597.182966 
L 1205.265374 592.558539 
L 1206.291203 596.44946 
L 1207.317033 592.441482 
L 1208.342862 593.140053 
L 1209.368692 592.238379 
L 1210.394522 592.705837 
L 1212.446181 593.400818 
L 1214.49784 591.634413 
L 1215.523669 593.372203 
L 1216.549499 592.409775 
L 1217.575329 593.095998 
L 1218.601158 592.832965 
L 1219.626988 593.290694 
L 1220.652817 592.68873 
L 1221.678647 592.940502 
L 1222.704477 592.993457 
L 1223.730306 593.938125 
L 1224.756136 593.791335 
L 1225.781965 595.018471 
L 1226.807795 592.952566 
L 1227.833624 594.048049 
L 1228.859454 593.619038 
L 1230.911113 593.600194 
L 1231.936943 593.364325 
L 1232.962772 593.591653 
L 1233.988602 593.315781 
L 1235.014431 593.217853 
L 1236.040261 593.98683 
L 1237.066091 594.22754 
L 1238.09192 593.588417 
L 1239.11775 592.091169 
L 1240.143579 593.893631 
L 1241.169409 593.611558 
L 1242.195239 597.478649 
L 1243.221068 593.069119 
L 1244.246898 591.634045 
L 1245.272727 587.757009 
L 1245.272727 587.757009 
" style="fill:none;stroke:#1f77b4;stroke-linecap:square;stroke-width:1.5;"/>
   </g>
   <g id="line2d_19">
    <path clip-path="url(#p07474439af)" d="M 230.727273 288.768498 
L 231.753102 225.977761 
L 232.778932 247.678242 
L 233.804761 274.032047 
L 235.856421 282.936187 
L 236.88225 292.422505 
L 237.90808 298.506157 
L 238.933909 305.569091 
L 239.959739 326.790239 
L 240.985569 295.83287 
L 242.011398 303.459181 
L 243.037228 305.655707 
L 244.063057 332.002912 
L 245.088887 335.538142 
L 246.114716 353.1857 
L 247.140546 358.390729 
L 248.166376 361.240568 
L 249.192205 352.672221 
L 250.218035 359.41802 
L 252.269694 399.160497 
L 253.295523 367.977431 
L 254.321353 409.488734 
L 255.347183 376.018048 
L 256.373012 395.487644 
L 257.398842 420.810465 
L 258.424671 431.509095 
L 259.450501 424.164053 
L 260.476331 398.687655 
L 261.50216 402.574539 
L 262.52799 437.004471 
L 263.553819 432.570453 
L 264.579649 404.77318 
L 265.605478 442.095989 
L 266.631308 445.124399 
L 267.657138 414.381243 
L 268.682967 426.255203 
L 269.708797 430.700674 
L 270.734626 431.303338 
L 271.760456 433.893719 
L 272.786286 425.29825 
L 273.812115 438.825859 
L 274.837945 432.865505 
L 275.863774 436.614422 
L 276.889604 432.480658 
L 277.915433 435.819174 
L 278.941263 435.079019 
L 279.967093 463.06213 
L 280.992922 441.652854 
L 282.018752 460.122264 
L 283.044581 463.208569 
L 284.070411 451.275895 
L 285.09624 447.202442 
L 286.12207 495.23501 
L 287.1479 466.325314 
L 288.173729 471.670831 
L 290.225388 460.795758 
L 291.251218 501.003275 
L 292.277048 488.399082 
L 293.302877 463.941823 
L 294.328707 481.832488 
L 295.354536 468.142263 
L 296.380366 475.109502 
L 297.406195 489.851292 
L 298.432025 489.423636 
L 299.457855 482.076356 
L 300.483684 483.77888 
L 301.509514 478.811868 
L 302.535343 494.494351 
L 303.561173 491.873949 
L 304.587002 495.824765 
L 305.612832 498.807129 
L 306.638662 499.075661 
L 307.664491 492.870109 
L 308.690321 491.955893 
L 309.71615 497.328705 
L 310.74198 483.128424 
L 311.76781 497.648811 
L 312.793639 522.781577 
L 313.819469 500.692995 
L 314.845298 500.805471 
L 315.871128 502.317512 
L 316.896957 498.505588 
L 317.922787 505.878992 
L 318.948617 508.197232 
L 319.974446 503.757385 
L 321.000276 507.517786 
L 322.026105 504.43258 
L 323.051935 509.296712 
L 324.077765 506.870598 
L 326.129424 498.700507 
L 328.181083 521.841969 
L 329.206912 504.71084 
L 330.232742 517.509406 
L 331.258572 499.309007 
L 332.284401 521.79932 
L 333.310231 504.745696 
L 334.33606 517.539926 
L 335.36189 527.202385 
L 336.387719 526.785762 
L 337.413549 518.569399 
L 338.439379 549.157631 
L 339.465208 518.139383 
L 340.491038 518.173407 
L 341.516867 518.894423 
L 342.542697 526.050937 
L 343.568527 516.62121 
L 344.594356 523.750312 
L 345.620186 516.052169 
L 346.646015 522.727339 
L 347.671845 521.04418 
L 348.697674 523.387409 
L 349.723504 519.98235 
L 350.749334 525.508972 
L 351.775163 519.738302 
L 352.800993 529.086705 
L 353.826822 525.686689 
L 354.852652 524.164558 
L 355.878481 527.745873 
L 356.904311 525.648613 
L 357.930141 526.605876 
L 358.95597 530.993823 
L 359.9818 538.197032 
L 361.007629 536.286675 
L 362.033459 530.619161 
L 363.059289 532.778942 
L 364.085118 527.458018 
L 365.110948 541.166127 
L 366.136777 532.148012 
L 367.162607 528.896582 
L 368.188436 536.736717 
L 369.214266 532.902387 
L 370.240096 534.218599 
L 371.265925 532.485623 
L 372.291755 533.333622 
L 373.317584 543.539836 
L 375.369243 551.271436 
L 376.395073 535.758639 
L 377.420903 545.476013 
L 378.446732 541.29562 
L 379.472562 548.145881 
L 380.498391 549.471052 
L 381.524221 547.964149 
L 382.550051 539.278776 
L 383.57588 542.233819 
L 384.60171 548.755124 
L 385.627539 549.177036 
L 386.653369 547.080243 
L 387.679198 555.908374 
L 388.705028 540.200609 
L 389.730858 548.396117 
L 390.756687 547.050122 
L 391.782517 546.444307 
L 392.808346 553.650719 
L 393.834176 548.168372 
L 394.860006 547.239217 
L 395.885835 549.997993 
L 396.911665 548.535723 
L 397.937494 545.918649 
L 398.963324 551.974085 
L 399.989153 553.007129 
L 401.014983 553.115813 
L 402.040813 552.473725 
L 403.066642 556.003096 
L 404.092472 552.299909 
L 405.118301 558.475209 
L 406.144131 552.361902 
L 407.16996 550.256127 
L 408.19579 557.395993 
L 409.22162 551.706551 
L 410.247449 552.812792 
L 411.273279 556.685278 
L 412.299108 553.744804 
L 413.324938 565.619859 
L 414.350768 559.829441 
L 415.376597 552.850233 
L 416.402427 554.934433 
L 417.428256 553.186979 
L 418.454086 561.044086 
L 419.479915 555.055549 
L 420.505745 558.288911 
L 421.531575 559.008197 
L 422.557404 559.111782 
L 423.583234 552.704725 
L 424.609063 558.500547 
L 425.634893 557.039309 
L 426.660722 559.249775 
L 427.686552 563.907154 
L 428.712382 556.558874 
L 429.738211 559.113208 
L 430.764041 557.020972 
L 431.78987 563.26881 
L 432.8157 559.411426 
L 433.84153 565.266328 
L 434.867359 563.94865 
L 435.893189 557.801933 
L 436.919018 559.845029 
L 437.944848 560.767022 
L 438.970677 565.555604 
L 439.996507 567.686862 
L 441.022337 566.666298 
L 442.048166 561.588335 
L 443.073996 562.485189 
L 444.099825 567.399128 
L 445.125655 561.474678 
L 446.151485 561.632291 
L 447.177314 567.541867 
L 448.203144 563.886561 
L 449.228973 567.671851 
L 450.254803 563.855402 
L 451.280632 563.626788 
L 452.306462 563.03393 
L 453.332292 569.566133 
L 454.358121 566.935513 
L 455.383951 568.914275 
L 456.40978 564.69857 
L 457.43561 566.890803 
L 458.461439 566.10345 
L 459.487269 567.008269 
L 460.513099 571.0289 
L 461.538928 567.779145 
L 462.564758 578.84698 
L 463.590587 572.097049 
L 464.616417 570.433623 
L 465.642247 567.093452 
L 466.668076 570.891777 
L 467.693906 565.273986 
L 468.719735 567.32716 
L 469.745565 567.382145 
L 470.771394 565.78822 
L 471.797224 575.010379 
L 473.848883 568.684005 
L 474.874713 570.724008 
L 475.900542 568.450696 
L 476.926372 568.457906 
L 477.952201 572.175714 
L 478.978031 574.163463 
L 480.003861 570.728662 
L 481.02969 571.402547 
L 482.05552 570.327624 
L 483.081349 576.191073 
L 484.107179 569.214026 
L 485.133009 571.479919 
L 486.158838 578.100845 
L 487.184668 570.779749 
L 488.210497 570.73948 
L 489.236327 569.006043 
L 490.262156 571.643703 
L 491.287986 574.9417 
L 492.313816 574.696662 
L 493.339645 569.801518 
L 494.365475 571.775321 
L 496.417134 571.363412 
L 497.442964 575.144266 
L 498.468793 575.587341 
L 499.494623 571.439846 
L 500.520452 572.856873 
L 501.546282 583.612667 
L 502.572111 572.837529 
L 503.597941 575.735766 
L 504.623771 578.155327 
L 505.6496 572.635943 
L 506.67543 572.937975 
L 508.727089 573.130868 
L 509.752918 577.848341 
L 510.778748 574.262997 
L 511.804578 574.955827 
L 512.830407 583.979054 
L 513.856237 577.581478 
L 514.882066 579.737323 
L 515.907896 577.866952 
L 516.933726 578.639892 
L 517.959555 577.011028 
L 518.985385 574.981739 
L 520.011214 577.983484 
L 521.037044 575.588628 
L 522.062873 580.219905 
L 523.088703 580.326242 
L 524.114533 577.895259 
L 525.140362 576.820457 
L 526.166192 576.329073 
L 527.192021 577.852763 
L 528.217851 580.457085 
L 529.24368 580.709792 
L 530.26951 578.48117 
L 531.29534 578.987009 
L 532.321169 578.563244 
L 533.346999 578.619759 
L 534.372828 579.356909 
L 535.398658 579.798753 
L 536.424488 587.284816 
L 537.450317 578.58766 
L 539.501976 579.716715 
L 540.527806 578.618864 
L 541.553635 579.9497 
L 542.579465 582.839801 
L 543.605295 582.024282 
L 544.631124 579.318108 
L 545.656954 579.248315 
L 546.682783 586.840161 
L 547.708613 587.402924 
L 548.734443 580.458269 
L 549.760272 581.358428 
L 550.786102 578.088982 
L 551.811931 585.622432 
L 552.837761 579.998947 
L 553.86359 584.86431 
L 554.88942 584.815758 
L 555.91525 579.738692 
L 556.941079 580.71506 
L 557.966909 581.899562 
L 558.992738 582.561958 
L 560.018568 582.034066 
L 561.044397 582.57426 
L 562.070227 582.915608 
L 563.096057 582.236019 
L 564.121886 584.32791 
L 565.147716 582.444098 
L 566.173545 582.470537 
L 567.199375 585.029462 
L 568.225205 582.918267 
L 569.251034 583.334409 
L 570.276864 584.197374 
L 571.302693 582.69013 
L 572.328523 589.372643 
L 573.354352 584.2317 
L 574.380182 582.866725 
L 575.406012 585.817905 
L 576.431841 586.407832 
L 577.457671 584.155829 
L 578.4835 583.769915 
L 579.50933 586.192308 
L 581.560989 583.878186 
L 582.586819 588.585999 
L 583.612648 584.123903 
L 584.638478 584.434564 
L 585.664307 585.646281 
L 586.690137 586.597242 
L 587.715967 585.532203 
L 588.741796 586.804394 
L 589.767626 586.296474 
L 590.793455 586.029099 
L 591.819285 585.065935 
L 592.845114 587.703252 
L 593.870944 585.905024 
L 594.896774 586.171292 
L 595.922603 585.403117 
L 596.948433 588.102699 
L 597.974262 578.736314 
L 599.000092 594.425982 
L 600.025922 585.920486 
L 601.051751 591.838649 
L 602.077581 586.146618 
L 603.10341 586.29744 
L 604.12924 586.037277 
L 606.180899 587.726881 
L 607.206729 591.060778 
L 608.232558 586.165236 
L 609.258388 586.45085 
L 610.284217 587.375863 
L 611.310047 587.780409 
L 612.335876 587.430824 
L 613.361706 588.471402 
L 614.387536 586.806679 
L 615.413365 588.048786 
L 616.439195 588.70704 
L 617.465024 588.579998 
L 618.490854 588.109715 
L 619.516684 586.080005 
L 620.542513 588.342013 
L 621.568343 589.014693 
L 623.620002 587.391823 
L 624.645831 589.404911 
L 625.671661 590.353784 
L 626.697491 590.11191 
L 628.74915 588.980574 
L 629.774979 590.521375 
L 630.800809 589.519554 
L 631.826638 591.034542 
L 632.852468 589.111575 
L 633.878298 589.86709 
L 634.904127 595.271047 
L 635.929957 589.441712 
L 636.955786 587.596466 
L 637.981616 591.090732 
L 639.007446 590.841525 
L 640.033275 589.708472 
L 642.084934 574.21398 
L 643.110764 574.369274 
L 644.136593 575.880699 
L 645.162423 574.316567 
L 646.188253 576.595725 
L 647.214082 575.626327 
L 648.239912 574.015791 
L 649.265741 575.08929 
L 650.291571 586.388107 
L 651.3174 590.98782 
L 652.34323 591.141655 
L 653.36906 592.344998 
L 654.394889 592.652557 
L 655.420719 592.622528 
L 656.446548 591.531858 
L 657.472378 593.035633 
L 658.498208 593.473323 
L 659.524037 592.870315 
L 660.549867 594.04763 
L 661.575696 594.033652 
L 662.601526 593.752527 
L 663.627355 592.545144 
L 664.653185 594.620968 
L 665.679015 594.20918 
L 666.704844 594.05219 
L 667.730674 593.179005 
L 668.756503 594.615254 
L 669.782333 594.970404 
L 671.833992 593.520846 
L 672.859822 594.604822 
L 673.885651 594.517162 
L 674.911481 594.599762 
L 675.93731 594.23545 
L 676.96314 594.289216 
L 677.98897 594.974329 
L 679.014799 595.150109 
L 680.040629 593.857383 
L 681.066458 595.037202 
L 682.092288 594.8585 
L 683.118117 595.031744 
L 684.143947 595.554771 
L 685.169777 595.273546 
L 686.195606 593.770645 
L 687.221436 595.214903 
L 688.247265 594.610594 
L 689.273095 594.41617 
L 690.298925 596.440105 
L 691.324754 592.75917 
L 692.350584 594.919345 
L 693.376413 594.792543 
L 695.428072 597.049303 
L 696.453902 595.1361 
L 697.479732 594.690528 
L 698.505561 594.452187 
L 699.531391 595.416768 
L 700.55722 595.001145 
L 701.58305 595.206807 
L 702.608879 594.281177 
L 703.634709 596.475189 
L 704.660539 594.697415 
L 705.686368 594.319211 
L 706.712198 596.755403 
L 707.738027 596.398334 
L 708.763857 596.386033 
L 709.789687 596.637005 
L 710.815516 599.885099 
L 711.841346 595.704748 
L 712.867175 596.790308 
L 714.918834 596.94355 
L 715.944664 596.532977 
L 716.970494 596.914413 
L 717.996323 596.31828 
L 719.022153 595.05009 
L 720.047982 596.996425 
L 722.099642 596.281931 
L 723.125471 604.085524 
L 724.151301 597.321391 
L 725.17713 597.264295 
L 726.20296 595.990992 
L 727.228789 597.88021 
L 728.254619 597.668043 
L 729.280449 596.88934 
L 731.332108 598.131926 
L 732.357937 597.635601 
L 733.383767 598.173404 
L 734.409596 599.668347 
L 735.435426 596.772473 
L 736.461256 598.007558 
L 737.487085 597.202609 
L 738.512915 598.364444 
L 739.538744 597.816145 
L 740.564574 598.039649 
L 741.590404 597.515099 
L 742.616233 601.009498 
L 743.642063 598.359933 
L 744.667892 597.991208 
L 745.693722 599.759733 
L 746.719551 597.927493 
L 747.745381 598.935031 
L 748.771211 599.282492 
L 749.79704 603.657171 
L 750.82287 598.441854 
L 751.848699 598.870189 
L 752.874529 598.371227 
L 753.900358 599.16784 
L 754.926188 599.407561 
L 755.952018 591.529481 
L 756.977847 598.002447 
L 758.003677 599.057799 
L 759.029506 597.910065 
L 760.055336 599.39124 
L 761.081166 598.641443 
L 762.106995 598.527283 
L 763.132825 598.770786 
L 764.158654 598.724569 
L 765.184484 598.800198 
L 766.210313 598.458833 
L 767.236143 599.675074 
L 768.261973 597.728919 
L 769.287802 598.41629 
L 770.313632 599.280368 
L 771.339461 597.920819 
L 772.365291 599.086306 
L 773.391121 600.594004 
L 774.41695 598.698037 
L 775.44278 598.398944 
L 776.468609 599.864553 
L 777.494439 598.307733 
L 778.520268 593.712867 
L 779.546098 599.755174 
L 780.571928 599.421712 
L 781.597757 596.574263 
L 782.623587 598.708213 
L 783.649416 599.557959 
L 784.675246 600.60149 
L 785.701075 599.510423 
L 786.726905 600.232583 
L 787.752735 600.126375 
L 788.778564 603.257167 
L 789.804394 600.657015 
L 790.830223 601.211114 
L 791.856053 600.936591 
L 792.881883 601.006384 
L 793.907712 599.205953 
L 794.933542 601.1072 
L 795.959371 601.114371 
L 796.985201 600.248799 
L 798.01103 597.972405 
L 799.03686 599.513079 
L 800.06269 600.059122 
L 801.088519 600.964333 
L 802.114349 601.691541 
L 803.140178 596.185964 
L 804.166008 603.764425 
L 805.191837 600.39584 
L 806.217667 601.484099 
L 807.243497 598.126381 
L 808.269326 598.475591 
L 809.295156 598.642716 
L 810.320985 600.335149 
L 811.346815 599.6323 
L 812.372645 595.821433 
L 813.398474 601.882813 
L 814.424304 600.513675 
L 815.450133 601.460628 
L 816.475963 598.182286 
L 817.501792 600.702691 
L 819.553452 600.509274 
L 820.579281 601.272278 
L 821.605111 599.107125 
L 822.63094 601.702218 
L 823.65677 600.55113 
L 824.6826 601.957669 
L 825.708429 597.613168 
L 826.734259 600.833437 
L 827.760088 600.786017 
L 828.785918 601.430394 
L 829.811747 597.624868 
L 830.837577 600.781878 
L 831.863407 601.387625 
L 833.915066 601.029914 
L 834.940895 601.045131 
L 835.966725 601.731771 
L 836.992554 601.624125 
L 838.018384 602.988675 
L 839.044214 601.281361 
L 840.070043 602.74351 
L 841.095873 600.654509 
L 842.121702 600.872382 
L 843.147532 601.814781 
L 844.173362 600.00191 
L 845.199191 603.934743 
L 846.225021 601.795628 
L 847.25085 601.231597 
L 848.27668 599.809923 
L 849.302509 602.989118 
L 850.328339 602.92152 
L 851.354169 601.773225 
L 852.379998 599.741451 
L 853.405828 596.988745 
L 854.431657 602.399944 
L 855.457487 603.228415 
L 856.483316 602.820941 
L 857.509146 602.547223 
L 858.534976 603.243444 
L 859.560805 602.363877 
L 860.586635 602.792396 
L 861.612464 604.256727 
L 862.638294 606.334806 
L 863.664124 602.702977 
L 864.689953 603.503205 
L 865.715783 601.717452 
L 866.741612 603.672785 
L 867.767442 603.430634 
L 868.793271 603.859251 
L 869.819101 603.416584 
L 870.844931 603.124078 
L 871.87076 603.675223 
L 872.89659 603.880149 
L 873.922419 603.51831 
L 874.948249 603.579498 
L 875.974078 603.392503 
L 876.999908 603.349449 
L 878.025738 603.673153 
L 879.051567 605.29151 
L 880.077397 602.677993 
L 881.103226 603.582078 
L 883.154886 603.968151 
L 884.180715 601.812458 
L 885.206545 602.533218 
L 886.232374 603.996917 
L 887.258204 603.747775 
L 888.284033 604.200274 
L 889.309863 606.775279 
L 890.335693 603.920401 
L 891.361522 603.79944 
L 892.387352 603.35003 
L 893.413181 603.592819 
L 894.439011 604.406504 
L 895.464841 604.439993 
L 896.49067 604.736759 
L 897.5165 603.851897 
L 898.542329 605.074376 
L 899.568159 605.234013 
L 900.593988 604.457988 
L 901.619818 605.205505 
L 902.645648 604.487796 
L 903.671477 608.294108 
L 904.697307 605.086073 
L 905.723136 610.849475 
L 906.748966 608.931444 
L 907.774795 605.341182 
L 910.852284 604.510184 
L 913.929773 604.820861 
L 914.955603 604.585944 
L 915.981432 608.069284 
L 917.007262 605.153846 
L 918.033091 605.505948 
L 919.058921 606.392739 
L 920.08475 605.778117 
L 921.11058 604.480963 
L 922.13641 604.674036 
L 923.162239 605.329639 
L 924.188069 604.771194 
L 925.213898 605.451335 
L 926.239728 605.716672 
L 927.265557 604.624965 
L 928.291387 605.961189 
L 929.317217 605.727249 
L 931.368876 605.628614 
L 932.394705 605.960931 
L 933.420535 605.613621 
L 934.446365 606.119564 
L 935.472194 605.234244 
L 936.498024 606.278902 
L 937.523853 606.34541 
L 938.549683 605.623398 
L 939.575512 605.907979 
L 940.601342 608.421789 
L 941.627172 606.178414 
L 942.653001 606.283533 
L 944.70466 605.699947 
L 945.73049 606.231633 
L 947.782149 605.986345 
L 949.833808 606.033066 
L 950.859638 607.58954 
L 951.885467 608.7902 
L 952.911297 599.948038 
L 953.937127 611.928741 
L 954.962956 608.343409 
L 955.988786 608.620753 
L 957.014615 609.176388 
L 958.040445 608.903424 
L 959.066274 606.668244 
L 960.092104 608.712409 
L 961.117934 608.118688 
L 962.143763 609.149754 
L 963.169593 607.267959 
L 964.195422 606.088438 
L 965.221252 607.049424 
L 966.247082 606.917453 
L 967.272911 606.471011 
L 968.298741 606.962028 
L 969.32457 606.393095 
L 970.3504 606.923076 
L 971.376229 607.194859 
L 972.402059 608.335483 
L 973.427889 603.728366 
L 974.453718 600.316191 
L 975.479548 597.395511 
L 976.505377 604.978559 
L 977.531207 606.115165 
L 978.557036 593.999647 
L 979.582866 606.66246 
L 980.608696 606.786045 
L 981.634525 604.407913 
L 982.660355 605.912564 
L 983.686184 604.424285 
L 984.712014 606.69943 
L 985.737844 607.039757 
L 986.763673 604.07661 
L 987.789503 606.921301 
L 988.815332 605.873627 
L 989.841162 607.354439 
L 990.866991 606.65283 
L 991.892821 607.349443 
L 992.918651 607.672747 
L 993.94448 607.196201 
L 994.97031 607.146241 
L 995.996139 607.249673 
L 998.047799 607.842434 
L 1000.099458 607.472615 
L 1001.125287 607.708828 
L 1002.151117 607.740861 
L 1003.176946 607.640679 
L 1004.202776 607.318074 
L 1005.228606 607.196953 
L 1006.254435 606.469213 
L 1007.280265 606.963311 
L 1008.306094 606.399982 
L 1009.331924 607.792278 
L 1010.357753 608.189255 
L 1011.383583 607.471874 
L 1012.409413 607.770365 
L 1013.435242 607.280913 
L 1014.461072 608.417275 
L 1015.486901 605.015933 
L 1016.512731 608.627721 
L 1018.56439 607.669129 
L 1019.59022 607.084658 
L 1020.616049 608.078443 
L 1021.641879 609.996329 
L 1022.667708 608.352332 
L 1023.693538 607.628527 
L 1024.719368 608.239072 
L 1025.745197 608.667392 
L 1026.771027 608.388797 
L 1027.796856 605.820363 
L 1028.822686 608.451798 
L 1029.848515 608.513761 
L 1030.874345 608.71303 
L 1031.900175 608.169594 
L 1032.926004 608.431255 
L 1033.951834 609.074802 
L 1034.977663 608.002662 
L 1036.003493 605.901037 
L 1037.029323 608.720663 
L 1038.055152 608.645851 
L 1039.080982 608.809889 
L 1040.106811 607.400705 
L 1041.132641 608.532504 
L 1042.15847 608.7099 
L 1043.1843 608.689795 
L 1044.21013 608.93413 
L 1045.235959 608.67609 
L 1046.261789 608.82451 
L 1047.287618 608.609905 
L 1048.313448 590.933257 
L 1049.339278 609.090642 
L 1050.365107 608.434007 
L 1051.390937 608.844306 
L 1052.416766 611.080424 
L 1053.442596 610.820857 
L 1054.468425 609.065397 
L 1055.494255 607.884185 
L 1056.520085 605.390447 
L 1057.545914 608.63765 
L 1058.571744 609.348779 
L 1059.597573 609.423151 
L 1060.623403 609.088222 
L 1061.649232 609.391631 
L 1062.675062 609.352289 
L 1063.700892 608.660815 
L 1064.726721 608.525012 
L 1065.752551 609.56844 
L 1066.77838 609.586544 
L 1067.80421 606.987108 
L 1068.83004 609.605022 
L 1069.855869 609.249264 
L 1070.881699 609.381975 
L 1071.907528 609.919376 
L 1072.933358 609.106409 
L 1073.959187 609.467313 
L 1074.985017 609.005456 
L 1076.010847 609.662216 
L 1077.036676 609.799727 
L 1078.062506 609.453245 
L 1079.088335 609.45697 
L 1080.114165 609.970564 
L 1081.139994 609.951199 
L 1082.165824 609.304706 
L 1083.191654 609.962083 
L 1084.217483 610.03869 
L 1085.243313 609.619372 
L 1086.269142 609.83021 
L 1087.294972 606.189296 
L 1088.320802 609.743234 
L 1089.346631 609.613482 
L 1090.372461 609.756873 
L 1091.39829 607.333632 
L 1092.42412 609.839958 
L 1093.449949 609.90365 
L 1094.475779 612.488757 
L 1095.501609 609.497717 
L 1096.527438 610.11518 
L 1097.553268 609.861373 
L 1098.579097 609.954226 
L 1099.604927 611.638252 
L 1100.630757 609.92521 
L 1101.656586 611.896995 
L 1102.682416 610.358026 
L 1103.708245 615.6 
L 1104.734075 608.292916 
L 1105.759904 609.822158 
L 1106.785734 608.822946 
L 1107.811564 609.902742 
L 1108.837393 610.658558 
L 1109.863223 610.391549 
L 1110.889052 609.735227 
L 1111.914882 610.609396 
L 1112.940711 611.837035 
L 1113.966541 610.711492 
L 1114.992371 610.956841 
L 1116.0182 610.326284 
L 1117.04403 610.075388 
L 1118.069859 610.253829 
L 1119.095689 610.652417 
L 1120.121519 610.212398 
L 1121.147348 610.765249 
L 1122.173178 610.712694 
L 1123.199007 613.902538 
L 1124.224837 610.975702 
L 1125.250666 610.095888 
L 1126.276496 607.331701 
L 1127.302326 610.148193 
L 1128.328155 610.787123 
L 1130.379814 610.006403 
L 1131.405644 612.015633 
L 1132.431473 610.865574 
L 1133.457303 611.118535 
L 1134.483133 610.032085 
L 1135.508962 611.115803 
L 1136.534792 610.733167 
L 1137.560621 609.462327 
L 1138.586451 611.859775 
L 1139.612281 610.665025 
L 1140.63811 610.803951 
L 1141.66394 610.161466 
L 1142.689769 606.318401 
L 1143.715599 610.220058 
L 1144.741428 605.77386 
L 1145.767258 609.816879 
L 1146.793088 610.147808 
L 1147.818917 610.701397 
L 1148.844747 612.720727 
L 1149.870576 610.815584 
L 1150.896406 611.381329 
L 1151.922235 610.781784 
L 1152.948065 611.227934 
L 1153.973895 610.85073 
L 1154.999724 610.617349 
L 1156.025554 610.687473 
L 1157.051383 613.410298 
L 1158.077213 611.59141 
L 1160.128872 611.155819 
L 1161.154702 611.061089 
L 1162.180531 611.224301 
L 1163.206361 611.596911 
L 1164.23219 611.211477 
L 1165.25802 611.349147 
L 1166.28385 611.774947 
L 1167.309679 611.319749 
L 1168.335509 611.503155 
L 1169.361338 611.32623 
L 1170.387168 611.629247 
L 1171.412998 611.662467 
L 1172.438827 611.141674 
L 1173.464657 611.700152 
L 1175.516316 611.638103 
L 1176.542145 611.291287 
L 1177.567975 612.961265 
L 1178.593805 611.716185 
L 1179.619634 611.356774 
L 1180.645464 611.408058 
L 1182.697123 611.84751 
L 1183.722952 611.781443 
L 1184.748782 611.558109 
L 1185.774612 611.466035 
L 1186.800441 611.504929 
L 1187.826271 613.149835 
L 1188.8521 612.940354 
L 1189.87793 612.043877 
L 1190.90376 612.03106 
L 1191.929589 611.326778 
L 1192.955419 611.878042 
L 1193.981248 611.914817 
L 1195.007078 613.249315 
L 1196.032907 611.897007 
L 1198.084567 611.734286 
L 1199.110396 611.8558 
L 1200.136226 611.765069 
L 1201.162055 611.515554 
L 1202.187885 612.130386 
L 1203.213714 612.140447 
L 1204.239544 611.901638 
L 1205.265374 611.837002 
L 1206.291203 612.237523 
L 1207.317033 610.757886 
L 1208.342862 612.005962 
L 1209.368692 611.955661 
L 1210.394522 605.92901 
L 1211.420351 612.136389 
L 1214.49784 612.180284 
L 1215.523669 611.980585 
L 1216.549499 611.427456 
L 1217.575329 611.314102 
L 1218.601158 611.328149 
L 1219.626988 610.077942 
L 1221.678647 612.140503 
L 1222.704477 612.5179 
L 1224.756136 612.236756 
L 1225.781965 612.597459 
L 1226.807795 612.451529 
L 1227.833624 612.846628 
L 1229.885284 612.386295 
L 1232.962772 612.66398 
L 1233.988602 612.517672 
L 1235.014431 607.534682 
L 1236.040261 612.480807 
L 1237.066091 612.546614 
L 1238.09192 608.127535 
L 1239.11775 612.708004 
L 1240.143579 612.578478 
L 1241.169409 612.791777 
L 1242.195239 612.746002 
L 1243.221068 613.105145 
L 1244.246898 612.765101 
L 1245.272727 611.944108 
L 1245.272727 611.944108 
" style="fill:none;stroke:#ff7f0e;stroke-linecap:square;stroke-width:1.5;"/>
   </g>
   <g id="patch_3">
    <path d="M 180 640.8 
L 180 86.4 
" style="fill:none;stroke:#000000;stroke-linecap:square;stroke-linejoin:miter;stroke-width:0.8;"/>
   </g>
   <g id="patch_4">
    <path d="M 1296 640.8 
L 1296 86.4 
" style="fill:none;stroke:#000000;stroke-linecap:square;stroke-linejoin:miter;stroke-width:0.8;"/>
   </g>
   <g id="patch_5">
    <path d="M 180 640.8 
L 1296 640.8 
" style="fill:none;stroke:#000000;stroke-linecap:square;stroke-linejoin:miter;stroke-width:0.8;"/>
   </g>
   <g id="patch_6">
    <path d="M 180 86.4 
L 1296 86.4 
" style="fill:none;stroke:#000000;stroke-linecap:square;stroke-linejoin:miter;stroke-width:0.8;"/>
   </g>
   <g id="text_20">
    <!-- AO Speedup -->
    <defs>
     <path d="M 34.1875 63.1875 
L 20.796875 26.90625 
L 47.609375 26.90625 
z
M 28.609375 72.90625 
L 39.796875 72.90625 
L 67.578125 0 
L 57.328125 0 
L 50.6875 18.703125 
L 17.828125 18.703125 
L 11.1875 0 
L 0.78125 0 
z
" id="DejaVuSans-65"/>
     <path d="M 39.40625 66.21875 
Q 28.65625 66.21875 22.328125 58.203125 
Q 16.015625 50.203125 16.015625 36.375 
Q 16.015625 22.609375 22.328125 14.59375 
Q 28.65625 6.59375 39.40625 6.59375 
Q 50.140625 6.59375 56.421875 14.59375 
Q 62.703125 22.609375 62.703125 36.375 
Q 62.703125 50.203125 56.421875 58.203125 
Q 50.140625 66.21875 39.40625 66.21875 
z
M 39.40625 74.21875 
Q 54.734375 74.21875 63.90625 63.9375 
Q 73.09375 53.65625 73.09375 36.375 
Q 73.09375 19.140625 63.90625 8.859375 
Q 54.734375 -1.421875 39.40625 -1.421875 
Q 24.03125 -1.421875 14.8125 8.828125 
Q 5.609375 19.09375 5.609375 36.375 
Q 5.609375 53.65625 14.8125 63.9375 
Q 24.03125 74.21875 39.40625 74.21875 
z
" id="DejaVuSans-79"/>
     <path id="DejaVuSans-32"/>
     <path d="M 53.515625 70.515625 
L 53.515625 60.890625 
Q 47.90625 63.578125 42.921875 64.890625 
Q 37.9375 66.21875 33.296875 66.21875 
Q 25.25 66.21875 20.875 63.09375 
Q 16.5 59.96875 16.5 54.203125 
Q 16.5 49.359375 19.40625 46.890625 
Q 22.3125 44.4375 30.421875 42.921875 
L 36.375 41.703125 
Q 47.40625 39.59375 52.65625 34.296875 
Q 57.90625 29 57.90625 20.125 
Q 57.90625 9.515625 50.796875 4.046875 
Q 43.703125 -1.421875 29.984375 -1.421875 
Q 24.8125 -1.421875 18.96875 -0.25 
Q 13.140625 0.921875 6.890625 3.21875 
L 6.890625 13.375 
Q 12.890625 10.015625 18.65625 8.296875 
Q 24.421875 6.59375 29.984375 6.59375 
Q 38.421875 6.59375 43.015625 9.90625 
Q 47.609375 13.234375 47.609375 19.390625 
Q 47.609375 24.75 44.3125 27.78125 
Q 41.015625 30.8125 33.5 32.328125 
L 27.484375 33.5 
Q 16.453125 35.6875 11.515625 40.375 
Q 6.59375 45.0625 6.59375 53.421875 
Q 6.59375 63.09375 13.40625 68.65625 
Q 20.21875 74.21875 32.171875 74.21875 
Q 37.3125 74.21875 42.625 73.28125 
Q 47.953125 72.359375 53.515625 70.515625 
z
" id="DejaVuSans-83"/>
    </defs>
    <g transform="translate(700.948125 80.4)scale(0.12 -0.12)">
     <use xlink:href="#DejaVuSans-65"/>
     <use x="66.658203" xlink:href="#DejaVuSans-79"/>
     <use x="145.369141" xlink:href="#DejaVuSans-32"/>
     <use x="177.15625" xlink:href="#DejaVuSans-83"/>
     <use x="240.632812" xlink:href="#DejaVuSans-112"/>
     <use x="304.109375" xlink:href="#DejaVuSans-101"/>
     <use x="365.632812" xlink:href="#DejaVuSans-101"/>
     <use x="427.15625" xlink:href="#DejaVuSans-100"/>
     <use x="490.632812" xlink:href="#DejaVuSans-117"/>
     <use x="554.011719" xlink:href="#DejaVuSans-112"/>
    </g>
   </g>
   <g id="legend_1">
    <g id="patch_7">
     <path d="M 1185.373437 123.75625 
L 1289 123.75625 
Q 1291 123.75625 1291 121.75625 
L 1291 93.4 
Q 1291 91.4 1289 91.4 
L 1185.373437 91.4 
Q 1183.373437 91.4 1183.373437 93.4 
L 1183.373437 121.75625 
Q 1183.373437 123.75625 1185.373437 123.75625 
z
" style="fill:#ffffff;opacity:0.8;stroke:#cccccc;stroke-linejoin:miter;"/>
    </g>
    <g id="line2d_20">
     <path d="M 1187.373437 99.498437 
L 1207.373437 99.498437 
" style="fill:none;stroke:#1f77b4;stroke-linecap:square;stroke-width:1.5;"/>
    </g>
    <g id="line2d_21"/>
    <g id="text_21">
     <!-- numpy.float32 -->
     <defs>
      <path d="M 52 44.1875 
Q 55.375 50.25 60.0625 53.125 
Q 64.75 56 71.09375 56 
Q 79.640625 56 84.28125 50.015625 
Q 88.921875 44.046875 88.921875 33.015625 
L 88.921875 0 
L 79.890625 0 
L 79.890625 32.71875 
Q 79.890625 40.578125 77.09375 44.375 
Q 74.3125 48.1875 68.609375 48.1875 
Q 61.625 48.1875 57.5625 43.546875 
Q 53.515625 38.921875 53.515625 30.90625 
L 53.515625 0 
L 44.484375 0 
L 44.484375 32.71875 
Q 44.484375 40.625 41.703125 44.40625 
Q 38.921875 48.1875 33.109375 48.1875 
Q 26.21875 48.1875 22.15625 43.53125 
Q 18.109375 38.875 18.109375 30.90625 
L 18.109375 0 
L 9.078125 0 
L 9.078125 54.6875 
L 18.109375 54.6875 
L 18.109375 46.1875 
Q 21.1875 51.21875 25.484375 53.609375 
Q 29.78125 56 35.6875 56 
Q 41.65625 56 45.828125 52.96875 
Q 50 49.953125 52 44.1875 
z
" id="DejaVuSans-109"/>
      <path d="M 32.171875 -5.078125 
Q 28.375 -14.84375 24.75 -17.8125 
Q 21.140625 -20.796875 15.09375 -20.796875 
L 7.90625 -20.796875 
L 7.90625 -13.28125 
L 13.1875 -13.28125 
Q 16.890625 -13.28125 18.9375 -11.515625 
Q 21 -9.765625 23.484375 -3.21875 
L 25.09375 0.875 
L 2.984375 54.6875 
L 12.5 54.6875 
L 29.59375 11.921875 
L 46.6875 54.6875 
L 56.203125 54.6875 
z
" id="DejaVuSans-121"/>
      <path d="M 37.109375 75.984375 
L 37.109375 68.5 
L 28.515625 68.5 
Q 23.6875 68.5 21.796875 66.546875 
Q 19.921875 64.59375 19.921875 59.515625 
L 19.921875 54.6875 
L 34.71875 54.6875 
L 34.71875 47.703125 
L 19.921875 47.703125 
L 19.921875 0 
L 10.890625 0 
L 10.890625 47.703125 
L 2.296875 47.703125 
L 2.296875 54.6875 
L 10.890625 54.6875 
L 10.890625 58.5 
Q 10.890625 67.625 15.140625 71.796875 
Q 19.390625 75.984375 28.609375 75.984375 
z
" id="DejaVuSans-102"/>
      <path d="M 9.421875 75.984375 
L 18.40625 75.984375 
L 18.40625 0 
L 9.421875 0 
z
" id="DejaVuSans-108"/>
      <path d="M 30.609375 48.390625 
Q 23.390625 48.390625 19.1875 42.75 
Q 14.984375 37.109375 14.984375 27.296875 
Q 14.984375 17.484375 19.15625 11.84375 
Q 23.34375 6.203125 30.609375 6.203125 
Q 37.796875 6.203125 41.984375 11.859375 
Q 46.1875 17.53125 46.1875 27.296875 
Q 46.1875 37.015625 41.984375 42.703125 
Q 37.796875 48.390625 30.609375 48.390625 
z
M 30.609375 56 
Q 42.328125 56 49.015625 48.375 
Q 55.71875 40.765625 55.71875 27.296875 
Q 55.71875 13.875 49.015625 6.21875 
Q 42.328125 -1.421875 30.609375 -1.421875 
Q 18.84375 -1.421875 12.171875 6.21875 
Q 5.515625 13.875 5.515625 27.296875 
Q 5.515625 40.765625 12.171875 48.375 
Q 18.84375 56 30.609375 56 
z
" id="DejaVuSans-111"/>
      <path d="M 34.28125 27.484375 
Q 23.390625 27.484375 19.1875 25 
Q 14.984375 22.515625 14.984375 16.5 
Q 14.984375 11.71875 18.140625 8.90625 
Q 21.296875 6.109375 26.703125 6.109375 
Q 34.1875 6.109375 38.703125 11.40625 
Q 43.21875 16.703125 43.21875 25.484375 
L 43.21875 27.484375 
z
M 52.203125 31.203125 
L 52.203125 0 
L 43.21875 0 
L 43.21875 8.296875 
Q 40.140625 3.328125 35.546875 0.953125 
Q 30.953125 -1.421875 24.3125 -1.421875 
Q 15.921875 -1.421875 10.953125 3.296875 
Q 6 8.015625 6 15.921875 
Q 6 25.140625 12.171875 29.828125 
Q 18.359375 34.515625 30.609375 34.515625 
L 43.21875 34.515625 
L 43.21875 35.40625 
Q 43.21875 41.609375 39.140625 45 
Q 35.0625 48.390625 27.6875 48.390625 
Q 23 48.390625 18.546875 47.265625 
Q 14.109375 46.140625 10.015625 43.890625 
L 10.015625 52.203125 
Q 14.9375 54.109375 19.578125 55.046875 
Q 24.21875 56 28.609375 56 
Q 40.484375 56 46.34375 49.84375 
Q 52.203125 43.703125 52.203125 31.203125 
z
" id="DejaVuSans-97"/>
      <path d="M 18.3125 70.21875 
L 18.3125 54.6875 
L 36.8125 54.6875 
L 36.8125 47.703125 
L 18.3125 47.703125 
L 18.3125 18.015625 
Q 18.3125 11.328125 20.140625 9.421875 
Q 21.96875 7.515625 27.59375 7.515625 
L 36.8125 7.515625 
L 36.8125 0 
L 27.59375 0 
Q 17.1875 0 13.234375 3.875 
Q 9.28125 7.765625 9.28125 18.015625 
L 9.28125 47.703125 
L 2.6875 47.703125 
L 2.6875 54.6875 
L 9.28125 54.6875 
L 9.28125 70.21875 
z
" id="DejaVuSans-116"/>
     </defs>
     <g transform="translate(1215.373437 102.998437)scale(0.1 -0.1)">
      <use xlink:href="#DejaVuSans-110"/>
      <use x="63.378906" xlink:href="#DejaVuSans-117"/>
      <use x="126.757812" xlink:href="#DejaVuSans-109"/>
      <use x="224.169922" xlink:href="#DejaVuSans-112"/>
      <use x="287.646484" xlink:href="#DejaVuSans-121"/>
      <use x="332.576172" xlink:href="#DejaVuSans-46"/>
      <use x="364.363281" xlink:href="#DejaVuSans-102"/>
      <use x="399.568359" xlink:href="#DejaVuSans-108"/>
      <use x="427.351562" xlink:href="#DejaVuSans-111"/>
      <use x="488.533203" xlink:href="#DejaVuSans-97"/>
      <use x="549.8125" xlink:href="#DejaVuSans-116"/>
      <use x="589.021484" xlink:href="#DejaVuSans-51"/>
      <use x="652.644531" xlink:href="#DejaVuSans-50"/>
     </g>
    </g>
    <g id="line2d_22">
     <path d="M 1187.373437 114.176562 
L 1207.373437 114.176562 
" style="fill:none;stroke:#ff7f0e;stroke-linecap:square;stroke-width:1.5;"/>
    </g>
    <g id="line2d_23"/>
    <g id="text_22">
     <!-- numpy.float64 -->
     <g transform="translate(1215.373437 117.676562)scale(0.1 -0.1)">
      <use xlink:href="#DejaVuSans-110"/>
      <use x="63.378906" xlink:href="#DejaVuSans-117"/>
      <use x="126.757812" xlink:href="#DejaVuSans-109"/>
      <use x="224.169922" xlink:href="#DejaVuSans-112"/>
      <use x="287.646484" xlink:href="#DejaVuSans-121"/>
      <use x="332.576172" xlink:href="#DejaVuSans-46"/>
      <use x="364.363281" xlink:href="#DejaVuSans-102"/>
      <use x="399.568359" xlink:href="#DejaVuSans-108"/>
      <use x="427.351562" xlink:href="#DejaVuSans-111"/>
      <use x="488.533203" xlink:href="#DejaVuSans-97"/>
      <use x="549.8125" xlink:href="#DejaVuSans-116"/>
      <use x="589.021484" xlink:href="#DejaVuSans-54"/>
      <use x="652.644531" xlink:href="#DejaVuSans-52"/>
     </g>
    </g>
   </g>
  </g>
 </g>
 <defs>
  <clipPath id="p07474439af">
   <rect height="554.4" width="1116" x="180" y="86.4"/>
  </clipPath>
 </defs>
</svg>
