<?xml version="1.0" encoding="utf-8" standalone="no"?>
<!DOCTYPE svg PUBLIC "-//W3C//DTD SVG 1.1//EN"
  "http://www.w3.org/Graphics/SVG/1.1/DTD/svg11.dtd">
<!-- Created with matplotlib (https://matplotlib.org/) -->
<svg height="720pt" version="1.1" viewBox="0 0 1440 720" width="1440pt" xmlns="http://www.w3.org/2000/svg" xmlns:xlink="http://www.w3.org/1999/xlink">
 <defs>
  <style type="text/css">
*{stroke-linecap:butt;stroke-linejoin:round;}
  </style>
 </defs>
 <g id="figure_1">
  <g id="patch_1">
   <path d="M 0 720 
L 1440 720 
L 1440 0 
L 0 0 
z
" style="fill:#ffffff;"/>
  </g>
  <g id="axes_1">
   <g id="patch_2">
    <path d="M 180 640.8 
L 1296 640.8 
L 1296 86.4 
L 180 86.4 
z
" style="fill:#ffffff;"/>
   </g>
   <g id="matplotlib.axis_1">
    <g id="xtick_1">
     <g id="line2d_1">
      <defs>
       <path d="M 0 0 
L 0 3.5 
" id="mfa7f3a1b78" style="stroke:#000000;stroke-width:0.8;"/>
      </defs>
      <g>
       <use style="stroke:#000000;stroke-width:0.8;" x="333.310231" xlink:href="#mfa7f3a1b78" y="640.8"/>
      </g>
     </g>
     <g id="text_1">
      <!-- 100.0 -->
      <defs>
       <path d="M 12.40625 8.296875 
L 28.515625 8.296875 
L 28.515625 63.921875 
L 10.984375 60.40625 
L 10.984375 69.390625 
L 28.421875 72.90625 
L 38.28125 72.90625 
L 38.28125 8.296875 
L 54.390625 8.296875 
L 54.390625 0 
L 12.40625 0 
z
" id="DejaVuSans-49"/>
       <path d="M 31.78125 66.40625 
Q 24.171875 66.40625 20.328125 58.90625 
Q 16.5 51.421875 16.5 36.375 
Q 16.5 21.390625 20.328125 13.890625 
Q 24.171875 6.390625 31.78125 6.390625 
Q 39.453125 6.390625 43.28125 13.890625 
Q 47.125 21.390625 47.125 36.375 
Q 47.125 51.421875 43.28125 58.90625 
Q 39.453125 66.40625 31.78125 66.40625 
z
M 31.78125 74.21875 
Q 44.046875 74.21875 50.515625 64.515625 
Q 56.984375 54.828125 56.984375 36.375 
Q 56.984375 17.96875 50.515625 8.265625 
Q 44.046875 -1.421875 31.78125 -1.421875 
Q 19.53125 -1.421875 13.0625 8.265625 
Q 6.59375 17.96875 6.59375 36.375 
Q 6.59375 54.828125 13.0625 64.515625 
Q 19.53125 74.21875 31.78125 74.21875 
z
" id="DejaVuSans-48"/>
       <path d="M 10.6875 12.40625 
L 21 12.40625 
L 21 0 
L 10.6875 0 
z
" id="DejaVuSans-46"/>
      </defs>
      <g transform="translate(318.996168 655.398438)scale(0.1 -0.1)">
       <use xlink:href="#DejaVuSans-49"/>
       <use x="63.623047" xlink:href="#DejaVuSans-48"/>
       <use x="127.246094" xlink:href="#DejaVuSans-48"/>
       <use x="190.869141" xlink:href="#DejaVuSans-46"/>
       <use x="222.65625" xlink:href="#DejaVuSans-48"/>
      </g>
     </g>
    </g>
    <g id="xtick_2">
     <g id="line2d_2">
      <g>
       <use style="stroke:#000000;stroke-width:0.8;" x="435.893189" xlink:href="#mfa7f3a1b78" y="640.8"/>
      </g>
     </g>
     <g id="text_2">
      <!-- 200.0 -->
      <defs>
       <path d="M 19.1875 8.296875 
L 53.609375 8.296875 
L 53.609375 0 
L 7.328125 0 
L 7.328125 8.296875 
Q 12.9375 14.109375 22.625 23.890625 
Q 32.328125 33.6875 34.8125 36.53125 
Q 39.546875 41.84375 41.421875 45.53125 
Q 43.3125 49.21875 43.3125 52.78125 
Q 43.3125 58.59375 39.234375 62.25 
Q 35.15625 65.921875 28.609375 65.921875 
Q 23.96875 65.921875 18.8125 64.3125 
Q 13.671875 62.703125 7.8125 59.421875 
L 7.8125 69.390625 
Q 13.765625 71.78125 18.9375 73 
Q 24.125 74.21875 28.421875 74.21875 
Q 39.75 74.21875 46.484375 68.546875 
Q 53.21875 62.890625 53.21875 53.421875 
Q 53.21875 48.921875 51.53125 44.890625 
Q 49.859375 40.875 45.40625 35.40625 
Q 44.1875 33.984375 37.640625 27.21875 
Q 31.109375 20.453125 19.1875 8.296875 
z
" id="DejaVuSans-50"/>
      </defs>
      <g transform="translate(421.579126 655.398438)scale(0.1 -0.1)">
       <use xlink:href="#DejaVuSans-50"/>
       <use x="63.623047" xlink:href="#DejaVuSans-48"/>
       <use x="127.246094" xlink:href="#DejaVuSans-48"/>
       <use x="190.869141" xlink:href="#DejaVuSans-46"/>
       <use x="222.65625" xlink:href="#DejaVuSans-48"/>
      </g>
     </g>
    </g>
    <g id="xtick_3">
     <g id="line2d_3">
      <g>
       <use style="stroke:#000000;stroke-width:0.8;" x="538.476147" xlink:href="#mfa7f3a1b78" y="640.8"/>
      </g>
     </g>
     <g id="text_3">
      <!-- 300.0 -->
      <defs>
       <path d="M 40.578125 39.3125 
Q 47.65625 37.796875 51.625 33 
Q 55.609375 28.21875 55.609375 21.1875 
Q 55.609375 10.40625 48.1875 4.484375 
Q 40.765625 -1.421875 27.09375 -1.421875 
Q 22.515625 -1.421875 17.65625 -0.515625 
Q 12.796875 0.390625 7.625 2.203125 
L 7.625 11.71875 
Q 11.71875 9.328125 16.59375 8.109375 
Q 21.484375 6.890625 26.8125 6.890625 
Q 36.078125 6.890625 40.9375 10.546875 
Q 45.796875 14.203125 45.796875 21.1875 
Q 45.796875 27.640625 41.28125 31.265625 
Q 36.765625 34.90625 28.71875 34.90625 
L 20.21875 34.90625 
L 20.21875 43.015625 
L 29.109375 43.015625 
Q 36.375 43.015625 40.234375 45.921875 
Q 44.09375 48.828125 44.09375 54.296875 
Q 44.09375 59.90625 40.109375 62.90625 
Q 36.140625 65.921875 28.71875 65.921875 
Q 24.65625 65.921875 20.015625 65.03125 
Q 15.375 64.15625 9.8125 62.3125 
L 9.8125 71.09375 
Q 15.4375 72.65625 20.34375 73.4375 
Q 25.25 74.21875 29.59375 74.21875 
Q 40.828125 74.21875 47.359375 69.109375 
Q 53.90625 64.015625 53.90625 55.328125 
Q 53.90625 49.265625 50.4375 45.09375 
Q 46.96875 40.921875 40.578125 39.3125 
z
" id="DejaVuSans-51"/>
      </defs>
      <g transform="translate(524.162084 655.398438)scale(0.1 -0.1)">
       <use xlink:href="#DejaVuSans-51"/>
       <use x="63.623047" xlink:href="#DejaVuSans-48"/>
       <use x="127.246094" xlink:href="#DejaVuSans-48"/>
       <use x="190.869141" xlink:href="#DejaVuSans-46"/>
       <use x="222.65625" xlink:href="#DejaVuSans-48"/>
      </g>
     </g>
    </g>
    <g id="xtick_4">
     <g id="line2d_4">
      <g>
       <use style="stroke:#000000;stroke-width:0.8;" x="641.059105" xlink:href="#mfa7f3a1b78" y="640.8"/>
      </g>
     </g>
     <g id="text_4">
      <!-- 400.0 -->
      <defs>
       <path d="M 37.796875 64.3125 
L 12.890625 25.390625 
L 37.796875 25.390625 
z
M 35.203125 72.90625 
L 47.609375 72.90625 
L 47.609375 25.390625 
L 58.015625 25.390625 
L 58.015625 17.1875 
L 47.609375 17.1875 
L 47.609375 0 
L 37.796875 0 
L 37.796875 17.1875 
L 4.890625 17.1875 
L 4.890625 26.703125 
z
" id="DejaVuSans-52"/>
      </defs>
      <g transform="translate(626.745042 655.398438)scale(0.1 -0.1)">
       <use xlink:href="#DejaVuSans-52"/>
       <use x="63.623047" xlink:href="#DejaVuSans-48"/>
       <use x="127.246094" xlink:href="#DejaVuSans-48"/>
       <use x="190.869141" xlink:href="#DejaVuSans-46"/>
       <use x="222.65625" xlink:href="#DejaVuSans-48"/>
      </g>
     </g>
    </g>
    <g id="xtick_5">
     <g id="line2d_5">
      <g>
       <use style="stroke:#000000;stroke-width:0.8;" x="743.642063" xlink:href="#mfa7f3a1b78" y="640.8"/>
      </g>
     </g>
     <g id="text_5">
      <!-- 500.0 -->
      <defs>
       <path d="M 10.796875 72.90625 
L 49.515625 72.90625 
L 49.515625 64.59375 
L 19.828125 64.59375 
L 19.828125 46.734375 
Q 21.96875 47.46875 24.109375 47.828125 
Q 26.265625 48.1875 28.421875 48.1875 
Q 40.625 48.1875 47.75 41.5 
Q 54.890625 34.8125 54.890625 23.390625 
Q 54.890625 11.625 47.5625 5.09375 
Q 40.234375 -1.421875 26.90625 -1.421875 
Q 22.3125 -1.421875 17.546875 -0.640625 
Q 12.796875 0.140625 7.71875 1.703125 
L 7.71875 11.625 
Q 12.109375 9.234375 16.796875 8.0625 
Q 21.484375 6.890625 26.703125 6.890625 
Q 35.15625 6.890625 40.078125 11.328125 
Q 45.015625 15.765625 45.015625 23.390625 
Q 45.015625 31 40.078125 35.4375 
Q 35.15625 39.890625 26.703125 39.890625 
Q 22.75 39.890625 18.8125 39.015625 
Q 14.890625 38.140625 10.796875 36.28125 
z
" id="DejaVuSans-53"/>
      </defs>
      <g transform="translate(729.328 655.398438)scale(0.1 -0.1)">
       <use xlink:href="#DejaVuSans-53"/>
       <use x="63.623047" xlink:href="#DejaVuSans-48"/>
       <use x="127.246094" xlink:href="#DejaVuSans-48"/>
       <use x="190.869141" xlink:href="#DejaVuSans-46"/>
       <use x="222.65625" xlink:href="#DejaVuSans-48"/>
      </g>
     </g>
    </g>
    <g id="xtick_6">
     <g id="line2d_6">
      <g>
       <use style="stroke:#000000;stroke-width:0.8;" x="846.225021" xlink:href="#mfa7f3a1b78" y="640.8"/>
      </g>
     </g>
     <g id="text_6">
      <!-- 600.0 -->
      <defs>
       <path d="M 33.015625 40.375 
Q 26.375 40.375 22.484375 35.828125 
Q 18.609375 31.296875 18.609375 23.390625 
Q 18.609375 15.53125 22.484375 10.953125 
Q 26.375 6.390625 33.015625 6.390625 
Q 39.65625 6.390625 43.53125 10.953125 
Q 47.40625 15.53125 47.40625 23.390625 
Q 47.40625 31.296875 43.53125 35.828125 
Q 39.65625 40.375 33.015625 40.375 
z
M 52.59375 71.296875 
L 52.59375 62.3125 
Q 48.875 64.0625 45.09375 64.984375 
Q 41.3125 65.921875 37.59375 65.921875 
Q 27.828125 65.921875 22.671875 59.328125 
Q 17.53125 52.734375 16.796875 39.40625 
Q 19.671875 43.65625 24.015625 45.921875 
Q 28.375 48.1875 33.59375 48.1875 
Q 44.578125 48.1875 50.953125 41.515625 
Q 57.328125 34.859375 57.328125 23.390625 
Q 57.328125 12.15625 50.6875 5.359375 
Q 44.046875 -1.421875 33.015625 -1.421875 
Q 20.359375 -1.421875 13.671875 8.265625 
Q 6.984375 17.96875 6.984375 36.375 
Q 6.984375 53.65625 15.1875 63.9375 
Q 23.390625 74.21875 37.203125 74.21875 
Q 40.921875 74.21875 44.703125 73.484375 
Q 48.484375 72.75 52.59375 71.296875 
z
" id="DejaVuSans-54"/>
      </defs>
      <g transform="translate(831.910958 655.398438)scale(0.1 -0.1)">
       <use xlink:href="#DejaVuSans-54"/>
       <use x="63.623047" xlink:href="#DejaVuSans-48"/>
       <use x="127.246094" xlink:href="#DejaVuSans-48"/>
       <use x="190.869141" xlink:href="#DejaVuSans-46"/>
       <use x="222.65625" xlink:href="#DejaVuSans-48"/>
      </g>
     </g>
    </g>
    <g id="xtick_7">
     <g id="line2d_7">
      <g>
       <use style="stroke:#000000;stroke-width:0.8;" x="948.807979" xlink:href="#mfa7f3a1b78" y="640.8"/>
      </g>
     </g>
     <g id="text_7">
      <!-- 700.0 -->
      <defs>
       <path d="M 8.203125 72.90625 
L 55.078125 72.90625 
L 55.078125 68.703125 
L 28.609375 0 
L 18.3125 0 
L 43.21875 64.59375 
L 8.203125 64.59375 
z
" id="DejaVuSans-55"/>
      </defs>
      <g transform="translate(934.493916 655.398438)scale(0.1 -0.1)">
       <use xlink:href="#DejaVuSans-55"/>
       <use x="63.623047" xlink:href="#DejaVuSans-48"/>
       <use x="127.246094" xlink:href="#DejaVuSans-48"/>
       <use x="190.869141" xlink:href="#DejaVuSans-46"/>
       <use x="222.65625" xlink:href="#DejaVuSans-48"/>
      </g>
     </g>
    </g>
    <g id="xtick_8">
     <g id="line2d_8">
      <g>
       <use style="stroke:#000000;stroke-width:0.8;" x="1051.390937" xlink:href="#mfa7f3a1b78" y="640.8"/>
      </g>
     </g>
     <g id="text_8">
      <!-- 800.0 -->
      <defs>
       <path d="M 31.78125 34.625 
Q 24.75 34.625 20.71875 30.859375 
Q 16.703125 27.09375 16.703125 20.515625 
Q 16.703125 13.921875 20.71875 10.15625 
Q 24.75 6.390625 31.78125 6.390625 
Q 38.8125 6.390625 42.859375 10.171875 
Q 46.921875 13.96875 46.921875 20.515625 
Q 46.921875 27.09375 42.890625 30.859375 
Q 38.875 34.625 31.78125 34.625 
z
M 21.921875 38.8125 
Q 15.578125 40.375 12.03125 44.71875 
Q 8.5 49.078125 8.5 55.328125 
Q 8.5 64.0625 14.71875 69.140625 
Q 20.953125 74.21875 31.78125 74.21875 
Q 42.671875 74.21875 48.875 69.140625 
Q 55.078125 64.0625 55.078125 55.328125 
Q 55.078125 49.078125 51.53125 44.71875 
Q 48 40.375 41.703125 38.8125 
Q 48.828125 37.15625 52.796875 32.3125 
Q 56.78125 27.484375 56.78125 20.515625 
Q 56.78125 9.90625 50.3125 4.234375 
Q 43.84375 -1.421875 31.78125 -1.421875 
Q 19.734375 -1.421875 13.25 4.234375 
Q 6.78125 9.90625 6.78125 20.515625 
Q 6.78125 27.484375 10.78125 32.3125 
Q 14.796875 37.15625 21.921875 38.8125 
z
M 18.3125 54.390625 
Q 18.3125 48.734375 21.84375 45.5625 
Q 25.390625 42.390625 31.78125 42.390625 
Q 38.140625 42.390625 41.71875 45.5625 
Q 45.3125 48.734375 45.3125 54.390625 
Q 45.3125 60.0625 41.71875 63.234375 
Q 38.140625 66.40625 31.78125 66.40625 
Q 25.390625 66.40625 21.84375 63.234375 
Q 18.3125 60.0625 18.3125 54.390625 
z
" id="DejaVuSans-56"/>
      </defs>
      <g transform="translate(1037.076874 655.398438)scale(0.1 -0.1)">
       <use xlink:href="#DejaVuSans-56"/>
       <use x="63.623047" xlink:href="#DejaVuSans-48"/>
       <use x="127.246094" xlink:href="#DejaVuSans-48"/>
       <use x="190.869141" xlink:href="#DejaVuSans-46"/>
       <use x="222.65625" xlink:href="#DejaVuSans-48"/>
      </g>
     </g>
    </g>
    <g id="xtick_9">
     <g id="line2d_9">
      <g>
       <use style="stroke:#000000;stroke-width:0.8;" x="1153.973895" xlink:href="#mfa7f3a1b78" y="640.8"/>
      </g>
     </g>
     <g id="text_9">
      <!-- 900.0 -->
      <defs>
       <path d="M 10.984375 1.515625 
L 10.984375 10.5 
Q 14.703125 8.734375 18.5 7.8125 
Q 22.3125 6.890625 25.984375 6.890625 
Q 35.75 6.890625 40.890625 13.453125 
Q 46.046875 20.015625 46.78125 33.40625 
Q 43.953125 29.203125 39.59375 26.953125 
Q 35.25 24.703125 29.984375 24.703125 
Q 19.046875 24.703125 12.671875 31.3125 
Q 6.296875 37.9375 6.296875 49.421875 
Q 6.296875 60.640625 12.9375 67.421875 
Q 19.578125 74.21875 30.609375 74.21875 
Q 43.265625 74.21875 49.921875 64.515625 
Q 56.59375 54.828125 56.59375 36.375 
Q 56.59375 19.140625 48.40625 8.859375 
Q 40.234375 -1.421875 26.421875 -1.421875 
Q 22.703125 -1.421875 18.890625 -0.6875 
Q 15.09375 0.046875 10.984375 1.515625 
z
M 30.609375 32.421875 
Q 37.25 32.421875 41.125 36.953125 
Q 45.015625 41.5 45.015625 49.421875 
Q 45.015625 57.28125 41.125 61.84375 
Q 37.25 66.40625 30.609375 66.40625 
Q 23.96875 66.40625 20.09375 61.84375 
Q 16.21875 57.28125 16.21875 49.421875 
Q 16.21875 41.5 20.09375 36.953125 
Q 23.96875 32.421875 30.609375 32.421875 
z
" id="DejaVuSans-57"/>
      </defs>
      <g transform="translate(1139.659832 655.398438)scale(0.1 -0.1)">
       <use xlink:href="#DejaVuSans-57"/>
       <use x="63.623047" xlink:href="#DejaVuSans-48"/>
       <use x="127.246094" xlink:href="#DejaVuSans-48"/>
       <use x="190.869141" xlink:href="#DejaVuSans-46"/>
       <use x="222.65625" xlink:href="#DejaVuSans-48"/>
      </g>
     </g>
    </g>
    <g id="xtick_10">
     <g id="line2d_10">
      <g>
       <use style="stroke:#000000;stroke-width:0.8;" x="1256.556853" xlink:href="#mfa7f3a1b78" y="640.8"/>
      </g>
     </g>
     <g id="text_10">
      <!-- 1000.0 -->
      <g transform="translate(1239.06154 655.398438)scale(0.1 -0.1)">
       <use xlink:href="#DejaVuSans-49"/>
       <use x="63.623047" xlink:href="#DejaVuSans-48"/>
       <use x="127.246094" xlink:href="#DejaVuSans-48"/>
       <use x="190.869141" xlink:href="#DejaVuSans-48"/>
       <use x="254.492188" xlink:href="#DejaVuSans-46"/>
       <use x="286.279297" xlink:href="#DejaVuSans-48"/>
      </g>
     </g>
    </g>
    <g id="text_11">
     <!-- n -->
     <defs>
      <path d="M 54.890625 33.015625 
L 54.890625 0 
L 45.90625 0 
L 45.90625 32.71875 
Q 45.90625 40.484375 42.875 44.328125 
Q 39.84375 48.1875 33.796875 48.1875 
Q 26.515625 48.1875 22.3125 43.546875 
Q 18.109375 38.921875 18.109375 30.90625 
L 18.109375 0 
L 9.078125 0 
L 9.078125 54.6875 
L 18.109375 54.6875 
L 18.109375 46.1875 
Q 21.34375 51.125 25.703125 53.5625 
Q 30.078125 56 35.796875 56 
Q 45.21875 56 50.046875 50.171875 
Q 54.890625 44.34375 54.890625 33.015625 
z
" id="DejaVuSans-110"/>
     </defs>
     <g transform="translate(734.83125 669.076563)scale(0.1 -0.1)">
      <use xlink:href="#DejaVuSans-110"/>
     </g>
    </g>
   </g>
   <g id="matplotlib.axis_2">
    <g id="ytick_1">
     <g id="line2d_11">
      <defs>
       <path d="M 0 0 
L -3.5 0 
" id="mde0bb93b80" style="stroke:#000000;stroke-width:0.8;"/>
      </defs>
      <g>
       <use style="stroke:#000000;stroke-width:0.8;" x="180" xlink:href="#mde0bb93b80" y="562.255842"/>
      </g>
     </g>
     <g id="text_12">
      <!-- 5000 -->
      <g transform="translate(147.55 566.055061)scale(0.1 -0.1)">
       <use xlink:href="#DejaVuSans-53"/>
       <use x="63.623047" xlink:href="#DejaVuSans-48"/>
       <use x="127.246094" xlink:href="#DejaVuSans-48"/>
       <use x="190.869141" xlink:href="#DejaVuSans-48"/>
      </g>
     </g>
    </g>
    <g id="ytick_2">
     <g id="line2d_12">
      <g>
       <use style="stroke:#000000;stroke-width:0.8;" x="180" xlink:href="#mde0bb93b80" y="453.101248"/>
      </g>
     </g>
     <g id="text_13">
      <!-- 10000 -->
      <g transform="translate(141.1875 456.900467)scale(0.1 -0.1)">
       <use xlink:href="#DejaVuSans-49"/>
       <use x="63.623047" xlink:href="#DejaVuSans-48"/>
       <use x="127.246094" xlink:href="#DejaVuSans-48"/>
       <use x="190.869141" xlink:href="#DejaVuSans-48"/>
       <use x="254.492188" xlink:href="#DejaVuSans-48"/>
      </g>
     </g>
    </g>
    <g id="ytick_3">
     <g id="line2d_13">
      <g>
       <use style="stroke:#000000;stroke-width:0.8;" x="180" xlink:href="#mde0bb93b80" y="343.946654"/>
      </g>
     </g>
     <g id="text_14">
      <!-- 15000 -->
      <g transform="translate(141.1875 347.745873)scale(0.1 -0.1)">
       <use xlink:href="#DejaVuSans-49"/>
       <use x="63.623047" xlink:href="#DejaVuSans-53"/>
       <use x="127.246094" xlink:href="#DejaVuSans-48"/>
       <use x="190.869141" xlink:href="#DejaVuSans-48"/>
       <use x="254.492188" xlink:href="#DejaVuSans-48"/>
      </g>
     </g>
    </g>
    <g id="ytick_4">
     <g id="line2d_14">
      <g>
       <use style="stroke:#000000;stroke-width:0.8;" x="180" xlink:href="#mde0bb93b80" y="234.79206"/>
      </g>
     </g>
     <g id="text_15">
      <!-- 20000 -->
      <g transform="translate(141.1875 238.591279)scale(0.1 -0.1)">
       <use xlink:href="#DejaVuSans-50"/>
       <use x="63.623047" xlink:href="#DejaVuSans-48"/>
       <use x="127.246094" xlink:href="#DejaVuSans-48"/>
       <use x="190.869141" xlink:href="#DejaVuSans-48"/>
       <use x="254.492188" xlink:href="#DejaVuSans-48"/>
      </g>
     </g>
    </g>
    <g id="ytick_5">
     <g id="line2d_15">
      <g>
       <use style="stroke:#000000;stroke-width:0.8;" x="180" xlink:href="#mde0bb93b80" y="125.637467"/>
      </g>
     </g>
     <g id="text_16">
      <!-- 25000 -->
      <g transform="translate(141.1875 129.436685)scale(0.1 -0.1)">
       <use xlink:href="#DejaVuSans-50"/>
       <use x="63.623047" xlink:href="#DejaVuSans-53"/>
       <use x="127.246094" xlink:href="#DejaVuSans-48"/>
       <use x="190.869141" xlink:href="#DejaVuSans-48"/>
       <use x="254.492188" xlink:href="#DejaVuSans-48"/>
      </g>
     </g>
    </g>
    <g id="text_17">
     <!-- speedup -->
     <defs>
      <path d="M 44.28125 53.078125 
L 44.28125 44.578125 
Q 40.484375 46.53125 36.375 47.5 
Q 32.28125 48.484375 27.875 48.484375 
Q 21.1875 48.484375 17.84375 46.4375 
Q 14.5 44.390625 14.5 40.28125 
Q 14.5 37.15625 16.890625 35.375 
Q 19.28125 33.59375 26.515625 31.984375 
L 29.59375 31.296875 
Q 39.15625 29.25 43.1875 25.515625 
Q 47.21875 21.78125 47.21875 15.09375 
Q 47.21875 7.46875 41.1875 3.015625 
Q 35.15625 -1.421875 24.609375 -1.421875 
Q 20.21875 -1.421875 15.453125 -0.5625 
Q 10.6875 0.296875 5.421875 2 
L 5.421875 11.28125 
Q 10.40625 8.6875 15.234375 7.390625 
Q 20.0625 6.109375 24.8125 6.109375 
Q 31.15625 6.109375 34.5625 8.28125 
Q 37.984375 10.453125 37.984375 14.40625 
Q 37.984375 18.0625 35.515625 20.015625 
Q 33.0625 21.96875 24.703125 23.78125 
L 21.578125 24.515625 
Q 13.234375 26.265625 9.515625 29.90625 
Q 5.8125 33.546875 5.8125 39.890625 
Q 5.8125 47.609375 11.28125 51.796875 
Q 16.75 56 26.8125 56 
Q 31.78125 56 36.171875 55.265625 
Q 40.578125 54.546875 44.28125 53.078125 
z
" id="DejaVuSans-115"/>
      <path d="M 18.109375 8.203125 
L 18.109375 -20.796875 
L 9.078125 -20.796875 
L 9.078125 54.6875 
L 18.109375 54.6875 
L 18.109375 46.390625 
Q 20.953125 51.265625 25.265625 53.625 
Q 29.59375 56 35.59375 56 
Q 45.5625 56 51.78125 48.09375 
Q 58.015625 40.1875 58.015625 27.296875 
Q 58.015625 14.40625 51.78125 6.484375 
Q 45.5625 -1.421875 35.59375 -1.421875 
Q 29.59375 -1.421875 25.265625 0.953125 
Q 20.953125 3.328125 18.109375 8.203125 
z
M 48.6875 27.296875 
Q 48.6875 37.203125 44.609375 42.84375 
Q 40.53125 48.484375 33.40625 48.484375 
Q 26.265625 48.484375 22.1875 42.84375 
Q 18.109375 37.203125 18.109375 27.296875 
Q 18.109375 17.390625 22.1875 11.75 
Q 26.265625 6.109375 33.40625 6.109375 
Q 40.53125 6.109375 44.609375 11.75 
Q 48.6875 17.390625 48.6875 27.296875 
z
" id="DejaVuSans-112"/>
      <path d="M 56.203125 29.59375 
L 56.203125 25.203125 
L 14.890625 25.203125 
Q 15.484375 15.921875 20.484375 11.0625 
Q 25.484375 6.203125 34.421875 6.203125 
Q 39.59375 6.203125 44.453125 7.46875 
Q 49.3125 8.734375 54.109375 11.28125 
L 54.109375 2.78125 
Q 49.265625 0.734375 44.1875 -0.34375 
Q 39.109375 -1.421875 33.890625 -1.421875 
Q 20.796875 -1.421875 13.15625 6.1875 
Q 5.515625 13.8125 5.515625 26.8125 
Q 5.515625 40.234375 12.765625 48.109375 
Q 20.015625 56 32.328125 56 
Q 43.359375 56 49.78125 48.890625 
Q 56.203125 41.796875 56.203125 29.59375 
z
M 47.21875 32.234375 
Q 47.125 39.59375 43.09375 43.984375 
Q 39.0625 48.390625 32.421875 48.390625 
Q 24.90625 48.390625 20.390625 44.140625 
Q 15.875 39.890625 15.1875 32.171875 
z
" id="DejaVuSans-101"/>
      <path d="M 45.40625 46.390625 
L 45.40625 75.984375 
L 54.390625 75.984375 
L 54.390625 0 
L 45.40625 0 
L 45.40625 8.203125 
Q 42.578125 3.328125 38.25 0.953125 
Q 33.9375 -1.421875 27.875 -1.421875 
Q 17.96875 -1.421875 11.734375 6.484375 
Q 5.515625 14.40625 5.515625 27.296875 
Q 5.515625 40.1875 11.734375 48.09375 
Q 17.96875 56 27.875 56 
Q 33.9375 56 38.25 53.625 
Q 42.578125 51.265625 45.40625 46.390625 
z
M 14.796875 27.296875 
Q 14.796875 17.390625 18.875 11.75 
Q 22.953125 6.109375 30.078125 6.109375 
Q 37.203125 6.109375 41.296875 11.75 
Q 45.40625 17.390625 45.40625 27.296875 
Q 45.40625 37.203125 41.296875 42.84375 
Q 37.203125 48.484375 30.078125 48.484375 
Q 22.953125 48.484375 18.875 42.84375 
Q 14.796875 37.203125 14.796875 27.296875 
z
" id="DejaVuSans-100"/>
      <path d="M 8.5 21.578125 
L 8.5 54.6875 
L 17.484375 54.6875 
L 17.484375 21.921875 
Q 17.484375 14.15625 20.5 10.265625 
Q 23.53125 6.390625 29.59375 6.390625 
Q 36.859375 6.390625 41.078125 11.03125 
Q 45.3125 15.671875 45.3125 23.6875 
L 45.3125 54.6875 
L 54.296875 54.6875 
L 54.296875 0 
L 45.3125 0 
L 45.3125 8.40625 
Q 42.046875 3.421875 37.71875 1 
Q 33.40625 -1.421875 27.6875 -1.421875 
Q 18.265625 -1.421875 13.375 4.4375 
Q 8.5 10.296875 8.5 21.578125 
z
M 31.109375 56 
z
" id="DejaVuSans-117"/>
     </defs>
     <g transform="translate(135.107812 385.049219)rotate(-90)scale(0.1 -0.1)">
      <use xlink:href="#DejaVuSans-115"/>
      <use x="52.099609" xlink:href="#DejaVuSans-112"/>
      <use x="115.576172" xlink:href="#DejaVuSans-101"/>
      <use x="177.099609" xlink:href="#DejaVuSans-101"/>
      <use x="238.623047" xlink:href="#DejaVuSans-100"/>
      <use x="302.099609" xlink:href="#DejaVuSans-117"/>
      <use x="365.478516" xlink:href="#DejaVuSans-112"/>
     </g>
    </g>
   </g>
   <g id="line2d_16">
    <path clip-path="url(#p2945ba18ab)" d="M 230.727273 615.468985 
L 231.753102 588.133132 
L 232.778932 577.181335 
L 233.804761 578.985667 
L 234.830591 571.344394 
L 235.856421 561.257364 
L 237.90808 551.604339 
L 238.933909 555.174276 
L 239.959739 539.262614 
L 240.985569 535.962051 
L 242.011398 547.381843 
L 243.037228 528.059851 
L 244.063057 522.435665 
L 245.088887 527.104456 
L 246.114716 513.074732 
L 247.140546 510.278155 
L 248.166376 505.626896 
L 249.192205 497.422741 
L 250.218035 501.802467 
L 251.243864 501.425736 
L 252.269694 512.123766 
L 253.295523 482.634503 
L 254.321353 481.179504 
L 255.347183 477.148561 
L 256.373012 465.340211 
L 257.398842 493.96071 
L 258.424671 478.109525 
L 259.450501 467.501293 
L 260.476331 467.346324 
L 261.50216 454.175601 
L 262.52799 478.085603 
L 263.553819 462.409923 
L 264.579649 453.301622 
L 265.605478 459.644644 
L 266.631308 442.64504 
L 267.657138 452.882267 
L 268.682967 437.631417 
L 269.708797 433.529275 
L 270.734626 431.968614 
L 271.760456 426.253564 
L 272.786286 424.944791 
L 273.812115 424.845329 
L 274.837945 456.200027 
L 275.863774 445.353946 
L 276.889604 445.607614 
L 277.915433 423.748442 
L 278.941263 423.093408 
L 279.967093 439.054045 
L 280.992922 404.686174 
L 282.018752 403.377672 
L 283.044581 396.242116 
L 284.070411 444.379164 
L 285.09624 398.994621 
L 286.12207 422.992896 
L 287.1479 394.89729 
L 288.173729 397.865409 
L 289.199559 409.752537 
L 290.225388 416.602143 
L 291.251218 408.847897 
L 292.277048 383.526029 
L 293.302877 413.273876 
L 294.328707 384.363357 
L 295.354536 404.589488 
L 296.380366 379.315564 
L 297.406195 381.033655 
L 298.432025 385.391754 
L 299.457855 378.243432 
L 300.483684 365.217222 
L 301.509514 375.353039 
L 302.535343 392.605688 
L 303.561173 404.361317 
L 304.587002 397.111448 
L 305.612832 370.07582 
L 306.638662 380.485066 
L 307.664491 371.331785 
L 308.690321 369.41865 
L 309.71615 396.31093 
L 310.74198 392.423574 
L 311.76781 349.233392 
L 312.793639 362.353781 
L 313.819469 354.974515 
L 314.845298 381.564462 
L 315.871128 347.480885 
L 316.896957 374.857004 
L 317.922787 350.570417 
L 318.948617 365.534058 
L 319.974446 361.606684 
L 321.000276 351.868142 
L 322.026105 347.677785 
L 323.051935 389.601086 
L 324.077765 372.342942 
L 325.103594 353.052502 
L 326.129424 345.751082 
L 328.181083 336.162963 
L 329.206912 359.198891 
L 330.232742 343.995173 
L 331.258572 356.665214 
L 332.284401 324.737812 
L 333.310231 361.703759 
L 334.33606 330.363097 
L 335.36189 366.031166 
L 336.387719 328.71943 
L 337.413549 333.379196 
L 338.439379 320.162944 
L 339.465208 321.154327 
L 340.491038 355.004634 
L 341.516867 361.781704 
L 342.542697 349.226544 
L 343.568527 317.922528 
L 344.594356 316.220687 
L 345.620186 344.764443 
L 346.646015 316.699811 
L 347.671845 348.567212 
L 348.697674 318.669942 
L 349.723504 345.657659 
L 350.749334 348.020748 
L 352.800993 319.408753 
L 353.826822 319.839131 
L 354.852652 317.482891 
L 355.878481 338.058878 
L 356.904311 348.519823 
L 357.930141 324.110149 
L 358.95597 313.316189 
L 359.9818 334.407647 
L 361.007629 332.195369 
L 363.059289 302.49537 
L 364.085118 338.648096 
L 365.110948 315.446312 
L 366.136777 312.921052 
L 367.162607 298.009357 
L 368.188436 323.243228 
L 369.214266 328.688398 
L 370.240096 328.372426 
L 371.265925 330.03503 
L 372.291755 303.649612 
L 373.317584 316.199018 
L 374.343414 321.035215 
L 375.369243 309.559905 
L 376.395073 315.343588 
L 377.420903 328.043437 
L 378.446732 295.410098 
L 379.472562 295.967995 
L 380.498391 319.092391 
L 381.524221 321.830425 
L 382.550051 294.276681 
L 383.57588 322.469951 
L 384.60171 316.88314 
L 385.627539 293.115556 
L 386.653369 297.403146 
L 387.679198 275.411507 
L 388.705028 316.1243 
L 389.730858 314.723705 
L 390.756687 316.892447 
L 391.782517 304.275461 
L 392.808346 305.313821 
L 393.834176 318.132665 
L 394.860006 307.254919 
L 395.885835 310.491309 
L 396.911665 308.538482 
L 397.937494 285.012595 
L 398.963324 291.052703 
L 399.989153 299.088647 
L 402.040813 275.287034 
L 403.066642 310.994579 
L 404.092472 288.89895 
L 405.118301 299.247954 
L 406.144131 304.876627 
L 407.16996 286.003111 
L 408.19579 312.160553 
L 409.22162 290.355777 
L 410.247449 290.600422 
L 411.273279 298.039007 
L 412.299108 272.303426 
L 413.324938 301.146013 
L 414.350768 305.816608 
L 415.376597 270.296499 
L 416.402427 292.684332 
L 417.428256 290.854805 
L 418.454086 289.878129 
L 419.479915 294.894915 
L 420.505745 300.918431 
L 421.531575 288.639942 
L 422.557404 288.800929 
L 423.583234 276.191809 
L 424.609063 283.525406 
L 425.634893 285.653074 
L 426.660722 278.467068 
L 427.686552 280.916154 
L 428.712382 288.655316 
L 429.738211 281.926448 
L 430.764041 310.129859 
L 431.78987 291.157476 
L 432.8157 277.432897 
L 433.84153 269.466142 
L 434.867359 294.18213 
L 435.893189 267.078903 
L 436.919018 252.334734 
L 437.944848 292.138396 
L 438.970677 260.486152 
L 439.996507 279.896265 
L 441.022337 282.787944 
L 442.048166 270.806787 
L 443.073996 263.368979 
L 444.099825 278.229398 
L 445.125655 279.835784 
L 446.151485 280.401858 
L 447.177314 264.693659 
L 448.203144 281.095792 
L 449.228973 276.459365 
L 450.254803 264.799283 
L 451.280632 260.328299 
L 452.306462 277.249048 
L 453.332292 269.240336 
L 454.358121 288.664026 
L 455.383951 266.637667 
L 456.40978 276.163265 
L 457.43561 276.221037 
L 458.461439 269.871683 
L 459.487269 255.99059 
L 460.513099 275.41274 
L 461.538928 265.314742 
L 462.564758 267.38419 
L 463.590587 274.595852 
L 464.616417 266.798065 
L 465.642247 263.777106 
L 466.668076 264.268181 
L 467.693906 258.460996 
L 468.719735 311.811656 
L 469.745565 242.691031 
L 470.771394 258.090179 
L 471.797224 229.938123 
L 472.823054 262.897647 
L 473.848883 299.654706 
L 474.874713 248.331045 
L 475.900542 262.18956 
L 476.926372 257.272924 
L 477.952201 254.338724 
L 478.978031 275.21473 
L 480.003861 255.71282 
L 481.02969 258.264744 
L 482.05552 248.969643 
L 483.081349 276.626666 
L 484.107179 268.73482 
L 485.133009 263.823897 
L 486.158838 252.034616 
L 487.184668 260.822014 
L 488.210497 271.936267 
L 489.236327 250.422444 
L 490.262156 257.440534 
L 491.287986 255.155453 
L 492.313816 250.267659 
L 493.339645 249.090339 
L 494.365475 254.311489 
L 495.391304 250.325585 
L 496.417134 267.510728 
L 497.442964 261.572277 
L 498.468793 241.807279 
L 499.494623 266.647134 
L 500.520452 262.763807 
L 501.546282 266.277602 
L 502.572111 344.204385 
L 503.597941 222.138524 
L 504.623771 233.576446 
L 505.6496 249.649462 
L 506.67543 256.74676 
L 507.701259 234.588559 
L 509.752918 251.737673 
L 510.778748 266.269397 
L 511.804578 236.064005 
L 512.830407 594.735889 
L 513.856237 243.661796 
L 514.882066 256.525873 
L 515.907896 257.110627 
L 516.933726 237.438404 
L 517.959555 254.687714 
L 518.985385 259.304632 
L 520.011214 249.873893 
L 521.037044 258.658875 
L 522.062873 259.880355 
L 523.088703 249.063697 
L 525.140362 249.440822 
L 526.166192 248.179072 
L 527.192021 261.143719 
L 528.217851 247.542359 
L 529.24368 254.312795 
L 530.26951 239.547106 
L 531.29534 247.592626 
L 532.321169 243.517063 
L 533.346999 255.232371 
L 534.372828 251.495975 
L 535.398658 243.708067 
L 536.424488 265.97451 
L 537.450317 257.73236 
L 538.476147 234.729281 
L 539.501976 243.577988 
L 540.527806 244.557699 
L 541.553635 240.854065 
L 542.579465 233.798725 
L 543.605295 254.171089 
L 544.631124 250.631352 
L 545.656954 248.131256 
L 546.682783 255.286949 
L 547.708613 241.113167 
L 548.734443 246.744998 
L 549.760272 243.236471 
L 550.786102 245.491216 
L 551.811931 236.006118 
L 552.837761 248.643907 
L 553.86359 239.05151 
L 554.88942 240.613353 
L 555.91525 245.956213 
L 556.941079 241.610922 
L 558.992738 239.874279 
L 560.018568 242.805729 
L 561.044397 238.820644 
L 562.070227 237.050469 
L 563.096057 233.631936 
L 564.121886 248.653643 
L 565.147716 236.543001 
L 566.173545 243.447297 
L 567.199375 247.298733 
L 568.225205 234.042023 
L 569.251034 245.256264 
L 570.276864 235.288973 
L 571.302693 242.655553 
L 572.328523 245.736668 
L 573.354352 238.198599 
L 574.380182 239.559676 
L 575.406012 246.795032 
L 576.431841 242.906875 
L 577.457671 236.783112 
L 578.4835 234.971423 
L 579.50933 251.975166 
L 580.535159 239.313792 
L 581.560989 237.462325 
L 582.586819 222.609967 
L 583.612648 233.916252 
L 584.638478 227.090212 
L 585.664307 239.315172 
L 586.690137 249.669793 
L 587.715967 228.054018 
L 588.741796 248.049995 
L 589.767626 236.48468 
L 590.793455 237.902647 
L 591.819285 236.344601 
L 592.845114 232.169271 
L 593.870944 234.027288 
L 594.896774 238.456851 
L 595.922603 235.023145 
L 596.948433 230.054008 
L 597.974262 233.620549 
L 599.000092 231.201114 
L 600.025922 235.940703 
L 601.051751 230.037458 
L 602.077581 232.08969 
L 603.10341 230.775379 
L 604.12924 239.790616 
L 605.155069 233.794981 
L 606.180899 234.048298 
L 607.206729 233.531984 
L 608.232558 237.481239 
L 609.258388 227.790698 
L 610.284217 230.953021 
L 611.310047 238.175729 
L 612.335876 231.557016 
L 613.361706 232.137104 
L 614.387536 236.92615 
L 615.413365 234.320013 
L 616.439195 229.273484 
L 617.465024 232.921928 
L 618.490854 230.012647 
L 619.516684 233.71621 
L 620.542513 235.09092 
L 621.568343 229.729069 
L 622.594172 231.56982 
L 623.620002 235.952511 
L 625.671661 226.376501 
L 626.697491 231.072743 
L 627.72332 223.425176 
L 628.74915 223.645032 
L 629.774979 231.120269 
L 630.800809 226.426434 
L 631.826638 226.998404 
L 632.852468 229.949518 
L 633.878298 224.088757 
L 634.904127 226.925221 
L 635.929957 231.248185 
L 636.955786 232.784174 
L 637.981616 228.505015 
L 639.007446 226.366695 
L 640.033275 230.7002 
L 641.059105 248.305924 
L 643.110764 231.611893 
L 644.136593 312.23001 
L 645.162423 237.152218 
L 646.188253 226.961943 
L 647.214082 228.111204 
L 648.239912 227.998439 
L 649.265741 230.211864 
L 650.291571 309.348468 
L 651.3174 232.044507 
L 652.34323 228.646921 
L 653.36906 226.428924 
L 654.394889 225.232534 
L 655.420719 217.250118 
L 657.472378 228.108586 
L 658.498208 219.24385 
L 659.524037 218.795594 
L 660.549867 215.672709 
L 661.575696 224.789372 
L 662.601526 235.260638 
L 663.627355 221.664906 
L 664.653185 223.471841 
L 665.679015 224.21597 
L 666.704844 219.424363 
L 667.730674 222.351824 
L 668.756503 220.48309 
L 669.782333 229.192875 
L 670.808163 218.067178 
L 671.833992 227.672621 
L 672.859822 214.649733 
L 673.885651 226.849981 
L 674.911481 214.2796 
L 675.93731 220.61474 
L 676.96314 221.451628 
L 677.98897 237.3334 
L 679.014799 223.686177 
L 680.040629 221.639111 
L 681.066458 222.573337 
L 682.092288 226.828083 
L 683.118117 223.18516 
L 684.143947 218.360981 
L 685.169777 222.991835 
L 686.195606 221.206953 
L 687.221436 225.466524 
L 688.247265 221.058438 
L 689.273095 224.046118 
L 690.298925 228.344704 
L 691.324754 220.733576 
L 692.350584 220.135913 
L 693.376413 221.788862 
L 694.402243 225.03594 
L 695.428072 224.795744 
L 696.453902 222.389599 
L 697.479732 224.400474 
L 698.505561 219.610582 
L 699.531391 215.966749 
L 700.55722 228.597188 
L 701.58305 206.981136 
L 702.608879 213.721555 
L 703.634709 204.614812 
L 704.660539 290.242212 
L 705.686368 200.407398 
L 707.738027 212.330924 
L 708.763857 216.823114 
L 709.789687 219.90297 
L 710.815516 221.015059 
L 711.841346 217.906021 
L 712.867175 219.461061 
L 713.893005 205.986182 
L 714.918834 215.40026 
L 715.944664 214.441296 
L 716.970494 208.687662 
L 717.996323 221.12206 
L 719.022153 218.394766 
L 720.047982 224.030326 
L 721.073812 210.564547 
L 722.099642 222.4589 
L 723.125471 218.209691 
L 724.151301 222.477646 
L 725.17713 217.297892 
L 727.228789 209.700483 
L 729.280449 214.505881 
L 730.306278 215.518892 
L 731.332108 220.849921 
L 732.357937 214.673839 
L 733.383767 222.881039 
L 734.409596 219.406889 
L 735.435426 214.183685 
L 736.461256 209.668288 
L 737.487085 217.498246 
L 738.512915 213.748939 
L 739.538744 219.273542 
L 740.564574 206.655362 
L 741.590404 203.041051 
L 742.616233 214.564349 
L 743.642063 218.296826 
L 744.667892 215.553274 
L 745.693722 255.518415 
L 746.719551 235.089724 
L 747.745381 208.919408 
L 748.771211 221.38053 
L 749.79704 214.848063 
L 750.82287 212.177547 
L 751.848699 211.632073 
L 752.874529 218.121059 
L 753.900358 213.769717 
L 754.926188 203.415494 
L 755.952018 205.677691 
L 756.977847 214.692988 
L 759.029506 210.117138 
L 760.055336 213.841527 
L 761.081166 227.844004 
L 762.106995 217.811071 
L 763.132825 219.253552 
L 764.158654 210.782556 
L 765.184484 206.101914 
L 766.210313 204.164677 
L 767.236143 218.596172 
L 769.287802 206.701679 
L 770.313632 212.052236 
L 771.339461 202.875746 
L 772.365291 198.317501 
L 773.391121 202.931632 
L 774.41695 214.675341 
L 775.44278 205.046358 
L 776.468609 214.031742 
L 777.494439 210.672486 
L 778.520268 208.461615 
L 779.546098 207.100698 
L 780.571928 202.202797 
L 781.597757 213.141373 
L 782.623587 210.489281 
L 783.649416 220.393493 
L 784.675246 216.500091 
L 785.701075 213.106401 
L 786.726905 212.133996 
L 787.752735 208.526229 
L 788.778564 202.042795 
L 789.804394 206.131395 
L 790.830223 204.85293 
L 791.856053 210.459744 
L 792.881883 218.763179 
L 793.907712 205.920925 
L 794.933542 209.425498 
L 795.959371 199.647085 
L 796.985201 210.103337 
L 798.01103 208.241516 
L 799.03686 200.878148 
L 800.06269 202.974477 
L 801.088519 208.281689 
L 802.114349 202.954672 
L 803.140178 280.395799 
L 804.166008 206.477477 
L 805.191837 205.511128 
L 806.217667 204.275966 
L 807.243497 194.000427 
L 808.269326 215.388959 
L 809.295156 208.217233 
L 811.346815 203.100299 
L 812.372645 201.030534 
L 813.398474 207.863734 
L 814.424304 216.523251 
L 815.450133 202.364433 
L 817.501792 208.551274 
L 818.527622 204.496069 
L 819.553452 204.99684 
L 820.579281 195.979541 
L 821.605111 201.835423 
L 822.63094 199.046507 
L 823.65677 206.747985 
L 824.6826 201.476743 
L 825.708429 200.846456 
L 826.734259 203.070529 
L 827.760088 195.872318 
L 828.785918 195.678857 
L 829.811747 195.889896 
L 830.837577 211.194241 
L 831.863407 208.532041 
L 832.889236 204.605821 
L 833.915066 201.705063 
L 834.940895 198.429454 
L 835.966725 192.738416 
L 836.992554 200.788389 
L 838.018384 214.25509 
L 839.044214 211.200805 
L 840.070043 205.617705 
L 841.095873 203.865948 
L 842.121702 196.909151 
L 843.147532 195.130438 
L 844.173362 206.737012 
L 845.199191 202.703606 
L 846.225021 202.696873 
L 847.25085 204.05407 
L 848.27668 197.833256 
L 849.302509 198.133696 
L 850.328339 198.313685 
L 851.354169 225.666188 
L 852.379998 225.413324 
L 853.405828 206.187336 
L 854.431657 203.471954 
L 855.457487 202.44092 
L 856.483316 198.662101 
L 857.509146 208.059572 
L 858.534976 206.778801 
L 859.560805 208.165124 
L 860.586635 204.008312 
L 861.612464 197.993239 
L 863.664124 208.20888 
L 864.689953 198.621469 
L 865.715783 266.254736 
L 866.741612 206.5869 
L 867.767442 197.134218 
L 868.793271 203.261509 
L 869.819101 202.292408 
L 870.844931 197.151759 
L 871.87076 208.626735 
L 872.89659 199.392922 
L 873.922419 198.823362 
L 874.948249 204.412997 
L 875.974078 201.681365 
L 878.025738 208.18604 
L 879.051567 199.216402 
L 880.077397 201.922543 
L 881.103226 194.668607 
L 882.129056 195.213538 
L 883.154886 198.928935 
L 884.180715 201.96883 
L 885.206545 199.113975 
L 886.232374 197.571664 
L 887.258204 201.897482 
L 888.284033 193.629946 
L 889.309863 192.361093 
L 890.335693 201.905497 
L 891.361522 202.947245 
L 892.387352 202.647441 
L 893.413181 200.182471 
L 894.439011 196.919055 
L 895.464841 205.760622 
L 896.49067 199.136756 
L 897.5165 188.77955 
L 898.542329 200.766707 
L 899.568159 193.496021 
L 900.593988 199.72558 
L 901.619818 268.721491 
L 902.645648 194.280911 
L 903.671477 190.603737 
L 904.697307 197.384567 
L 905.723136 189.105727 
L 906.748966 195.326597 
L 907.774795 195.335503 
L 908.800625 193.74482 
L 909.826455 195.414288 
L 910.852284 205.15941 
L 911.878114 191.132718 
L 912.903943 200.348173 
L 913.929773 196.136714 
L 914.955603 193.223153 
L 915.981432 187.746434 
L 917.007262 191.575112 
L 918.033091 257.649781 
L 919.058921 199.192039 
L 920.08475 184.402576 
L 921.11058 199.841013 
L 922.13641 193.283458 
L 923.162239 190.144076 
L 924.188069 197.510065 
L 925.213898 198.514591 
L 926.239728 194.254204 
L 927.265557 201.442104 
L 928.291387 198.269265 
L 929.317217 191.097261 
L 930.343046 194.3991 
L 931.368876 201.34713 
L 932.394705 175.730138 
L 933.420535 187.086093 
L 934.446365 183.804219 
L 935.472194 195.666998 
L 936.498024 196.429874 
L 937.523853 192.936765 
L 938.549683 191.096455 
L 939.575512 194.736717 
L 940.601342 197.84949 
L 941.627172 196.142828 
L 942.653001 183.477013 
L 943.678831 189.030851 
L 944.70466 184.191086 
L 945.73049 184.94762 
L 946.75632 190.450851 
L 947.782149 188.653344 
L 948.807979 185.340186 
L 949.833808 195.85906 
L 950.859638 187.737479 
L 951.885467 191.434136 
L 952.911297 285.905043 
L 954.962956 111.6 
L 955.988786 241.594171 
L 958.040445 193.891329 
L 959.066274 197.974649 
L 960.092104 181.00742 
L 961.117934 193.195347 
L 962.143763 196.207799 
L 963.169593 172.223726 
L 964.195422 190.76018 
L 965.221252 182.03389 
L 966.247082 192.250535 
L 967.272911 187.316985 
L 968.298741 191.037791 
L 969.32457 198.531277 
L 970.3504 253.791905 
L 971.376229 190.317873 
L 972.402059 199.024715 
L 973.427889 184.933345 
L 974.453718 187.112656 
L 975.479548 190.720385 
L 976.505377 193.672871 
L 977.531207 182.824511 
L 978.557036 182.957184 
L 979.582866 196.833062 
L 980.608696 186.043778 
L 981.634525 195.257274 
L 982.660355 194.092308 
L 983.686184 182.637136 
L 984.712014 194.885855 
L 985.737844 200.425108 
L 986.763673 184.088979 
L 987.789503 180.613009 
L 988.815332 194.886526 
L 989.841162 197.271973 
L 990.866991 191.139743 
L 991.892821 181.738805 
L 992.918651 195.0652 
L 993.94448 186.993366 
L 994.97031 193.035159 
L 995.996139 191.135337 
L 997.021969 193.053994 
L 998.047799 191.149414 
L 999.073628 185.227759 
L 1000.099458 191.554487 
L 1001.125287 180.625775 
L 1002.151117 192.01266 
L 1003.176946 173.548085 
L 1004.202776 190.244473 
L 1005.228606 188.30396 
L 1006.254435 187.955441 
L 1007.280265 180.582528 
L 1008.306094 194.657625 
L 1009.331924 178.75295 
L 1010.357753 190.293086 
L 1011.383583 193.917518 
L 1012.409413 183.708171 
L 1013.435242 182.058623 
L 1014.461072 187.811338 
L 1015.486901 180.960161 
L 1016.512731 192.18958 
L 1017.538561 185.896127 
L 1018.56439 197.601778 
L 1019.59022 193.114042 
L 1020.616049 183.923592 
L 1021.641879 188.078095 
L 1022.667708 196.211308 
L 1023.693538 187.902921 
L 1024.719368 180.579688 
L 1025.745197 188.066095 
L 1026.771027 180.158569 
L 1027.796856 196.381307 
L 1028.822686 184.193649 
L 1029.848515 183.420675 
L 1030.874345 182.007899 
L 1031.900175 182.525611 
L 1032.926004 183.16796 
L 1033.951834 243.16963 
L 1034.977663 180.463838 
L 1036.003493 188.710432 
L 1037.029323 186.294489 
L 1038.055152 187.970264 
L 1039.080982 184.8152 
L 1040.106811 180.377088 
L 1041.132641 193.715951 
L 1042.15847 181.744319 
L 1043.1843 191.628701 
L 1044.21013 182.853462 
L 1045.235959 175.592804 
L 1046.261789 174.471864 
L 1047.287618 183.907355 
L 1048.313448 188.656337 
L 1049.339278 192.008217 
L 1050.365107 185.254774 
L 1051.390937 185.622921 
L 1052.416766 179.560625 
L 1053.442596 186.539764 
L 1054.468425 178.733379 
L 1055.494255 184.60688 
L 1056.520085 182.038522 
L 1057.545914 185.714271 
L 1058.571744 248.227836 
L 1059.597573 179.616709 
L 1060.623403 178.504988 
L 1061.649232 209.881952 
L 1062.675062 207.295759 
L 1063.700892 195.983792 
L 1064.726721 189.32385 
L 1065.752551 178.803457 
L 1066.77838 182.258872 
L 1067.80421 176.13932 
L 1068.83004 182.008546 
L 1069.855869 179.434615 
L 1070.881699 183.520357 
L 1071.907528 190.411166 
L 1072.933358 176.225468 
L 1073.959187 176.103995 
L 1074.985017 181.601657 
L 1076.010847 180.303169 
L 1077.036676 184.672419 
L 1078.062506 174.35181 
L 1079.088335 181.709407 
L 1080.114165 182.447346 
L 1081.139994 174.424195 
L 1082.165824 180.102113 
L 1083.191654 167.983191 
L 1084.217483 175.248307 
L 1085.243313 178.905015 
L 1086.269142 172.196308 
L 1087.294972 179.851079 
L 1088.320802 175.976806 
L 1089.346631 176.166828 
L 1090.372461 178.497108 
L 1091.39829 173.590529 
L 1092.42412 177.783338 
L 1093.449949 184.28946 
L 1094.475779 177.555853 
L 1095.501609 174.033705 
L 1096.527438 193.809191 
L 1097.553268 182.456596 
L 1098.579097 169.139511 
L 1099.604927 179.615653 
L 1100.630757 177.628931 
L 1101.656586 187.960124 
L 1102.682416 178.415433 
L 1103.708245 181.627395 
L 1104.734075 179.411695 
L 1105.759904 175.625083 
L 1106.785734 188.903846 
L 1107.811564 180.365469 
L 1108.837393 183.565033 
L 1109.863223 173.34359 
L 1110.889052 176.299474 
L 1111.914882 181.860055 
L 1112.940711 165.440002 
L 1113.966541 166.924599 
L 1114.992371 155.941937 
L 1116.0182 165.093002 
L 1117.04403 159.783364 
L 1118.069859 173.860363 
L 1119.095689 168.649776 
L 1120.121519 182.485822 
L 1121.147348 180.925213 
L 1122.173178 172.81427 
L 1123.199007 173.047596 
L 1124.224837 171.440536 
L 1125.250666 176.220232 
L 1126.276496 178.276234 
L 1127.302326 179.044662 
L 1128.328155 178.245539 
L 1129.353985 231.060385 
L 1130.379814 174.470479 
L 1131.405644 182.29662 
L 1132.431473 173.935773 
L 1133.457303 171.802078 
L 1134.483133 177.916965 
L 1135.508962 178.951657 
L 1136.534792 173.931531 
L 1137.560621 173.130469 
L 1138.586451 176.738876 
L 1139.612281 175.002019 
L 1140.63811 185.251839 
L 1141.66394 179.260994 
L 1142.689769 179.928552 
L 1143.715599 176.702987 
L 1144.741428 177.529701 
L 1145.767258 176.514655 
L 1146.793088 168.825606 
L 1147.818917 175.436278 
L 1148.844747 174.26454 
L 1149.870576 176.955587 
L 1150.896406 185.590706 
L 1151.922235 170.130713 
L 1152.948065 169.588912 
L 1153.973895 191.747362 
L 1154.999724 175.003177 
L 1156.025554 174.405525 
L 1157.051383 171.289932 
L 1158.077213 176.901623 
L 1159.103043 175.437033 
L 1160.128872 243.368787 
L 1161.154702 180.667248 
L 1162.180531 183.477985 
L 1163.206361 188.157576 
L 1165.25802 179.831138 
L 1166.28385 209.104433 
L 1167.309679 200.540808 
L 1168.335509 181.650084 
L 1169.361338 177.6055 
L 1170.387168 176.480496 
L 1171.412998 180.546738 
L 1172.438827 177.767534 
L 1173.464657 181.442908 
L 1174.490486 183.827219 
L 1175.516316 177.773307 
L 1176.542145 174.092188 
L 1177.567975 172.35335 
L 1178.593805 176.82752 
L 1179.619634 180.378343 
L 1180.645464 178.654636 
L 1181.671293 163.39848 
L 1182.697123 176.206464 
L 1183.722952 159.717869 
L 1184.748782 159.840416 
L 1185.774612 174.638386 
L 1186.800441 170.312638 
L 1187.826271 178.028815 
L 1188.8521 167.047539 
L 1189.87793 169.925232 
L 1190.90376 165.917703 
L 1191.929589 172.337887 
L 1192.955419 163.246717 
L 1193.981248 156.050821 
L 1198.084567 178.898887 
L 1199.110396 168.46842 
L 1200.136226 177.158017 
L 1201.162055 166.983424 
L 1202.187885 168.4133 
L 1203.213714 174.228181 
L 1204.239544 168.067785 
L 1205.265374 169.537815 
L 1206.291203 170.469131 
L 1207.317033 170.63294 
L 1208.342862 179.49713 
L 1209.368692 167.209378 
L 1210.394522 172.935124 
L 1211.420351 170.510051 
L 1212.446181 172.525141 
L 1213.47201 176.480106 
L 1214.49784 170.185497 
L 1215.523669 184.699325 
L 1216.549499 173.821362 
L 1217.575329 174.462518 
L 1218.601158 167.920474 
L 1219.626988 177.538645 
L 1220.652817 169.594801 
L 1221.678647 174.583207 
L 1222.704477 174.095023 
L 1223.730306 166.466093 
L 1224.756136 173.088456 
L 1225.781965 165.489408 
L 1226.807795 170.312032 
L 1227.833624 179.081254 
L 1228.859454 167.084018 
L 1229.885284 160.988685 
L 1230.911113 164.711804 
L 1232.962772 177.697396 
L 1233.988602 170.962727 
L 1235.014431 167.474267 
L 1236.040261 173.271156 
L 1237.066091 171.187869 
L 1238.09192 168.536057 
L 1239.11775 179.125199 
L 1240.143579 218.028475 
L 1241.169409 173.728127 
L 1242.195239 174.049121 
L 1243.221068 184.12004 
L 1244.246898 169.584933 
L 1245.272727 178.826903 
L 1245.272727 178.826903 
" style="fill:none;stroke:#1f77b4;stroke-linecap:square;stroke-width:1.5;"/>
   </g>
   <g id="line2d_17">
    <path clip-path="url(#p2945ba18ab)" d="M 230.727273 615.6 
L 231.753102 587.327032 
L 232.778932 578.963868 
L 233.804761 573.435229 
L 234.830591 570.450447 
L 235.856421 564.497825 
L 236.88225 565.327171 
L 237.90808 553.905684 
L 238.933909 549.699751 
L 239.959739 544.814857 
L 240.985569 544.58864 
L 242.011398 534.348044 
L 243.037228 535.709737 
L 244.063057 526.287385 
L 245.088887 530.714577 
L 246.114716 521.592424 
L 247.140546 517.5279 
L 248.166376 514.314242 
L 249.192205 510.22125 
L 250.218035 508.61069 
L 251.243864 523.849319 
L 252.269694 497.050794 
L 253.295523 520.78071 
L 254.321353 497.11081 
L 255.347183 494.730174 
L 256.373012 487.704331 
L 257.398842 484.260129 
L 258.424671 495.329514 
L 259.450501 476.751742 
L 260.476331 473.221725 
L 261.50216 474.191953 
L 262.52799 469.559622 
L 263.553819 456.321062 
L 264.579649 477.889042 
L 265.605478 463.657416 
L 266.631308 454.027679 
L 267.657138 439.76889 
L 268.682967 488.959701 
L 269.708797 464.501142 
L 270.734626 447.747958 
L 271.760456 445.270203 
L 272.786286 439.390244 
L 273.812115 460.97655 
L 274.837945 476.344318 
L 275.863774 439.317521 
L 276.889604 437.734013 
L 277.915433 431.23759 
L 278.941263 429.831429 
L 279.967093 429.46709 
L 280.992922 451.832389 
L 282.018752 422.178504 
L 283.044581 440.73087 
L 284.070411 439.412953 
L 285.09624 418.558937 
L 287.1479 420.807726 
L 288.173729 432.855134 
L 289.199559 411.941386 
L 290.225388 449.764739 
L 291.251218 409.171292 
L 292.277048 408.163441 
L 293.302877 409.554945 
L 294.328707 408.604323 
L 295.354536 418.953489 
L 296.380366 400.433638 
L 297.406195 411.928214 
L 298.432025 403.717497 
L 299.457855 430.753847 
L 300.483684 397.961724 
L 301.509514 393.133472 
L 302.535343 396.869646 
L 303.561173 416.887412 
L 304.587002 392.69132 
L 305.612832 393.688655 
L 306.638662 411.659594 
L 307.664491 383.110362 
L 308.690321 413.313318 
L 309.71615 378.110962 
L 310.74198 404.60553 
L 311.76781 368.028268 
L 312.793639 377.179043 
L 313.819469 403.356594 
L 314.845298 383.843931 
L 315.871128 407.397077 
L 316.896957 385.434759 
L 317.922787 391.236322 
L 318.948617 363.712926 
L 319.974446 402.296209 
L 321.000276 382.572288 
L 322.026105 372.344373 
L 323.051935 373.904713 
L 324.077765 400.572584 
L 325.103594 372.451394 
L 326.129424 396.643802 
L 327.155253 375.669457 
L 328.181083 395.963414 
L 329.206912 378.686047 
L 330.232742 372.872071 
L 331.258572 362.830992 
L 332.284401 395.896201 
L 333.310231 392.178513 
L 334.33606 365.712081 
L 335.36189 438.555583 
L 336.387719 364.354637 
L 337.413549 391.907252 
L 338.439379 363.253473 
L 339.465208 364.57638 
L 340.491038 354.966114 
L 341.516867 382.31148 
L 342.542697 388.356374 
L 343.568527 382.182352 
L 344.594356 380.416109 
L 346.646015 358.34146 
L 347.671845 383.743353 
L 348.697674 379.995164 
L 349.723504 379.630524 
L 350.749334 360.452693 
L 351.775163 350.40333 
L 352.800993 378.566244 
L 353.826822 360.242596 
L 354.852652 355.10306 
L 355.878481 358.229961 
L 356.904311 374.631438 
L 357.930141 385.525069 
L 358.95597 345.780608 
L 359.9818 373.628831 
L 361.007629 368.218943 
L 362.033459 401.268727 
L 363.059289 397.638515 
L 364.085118 386.065076 
L 365.110948 383.118841 
L 366.136777 389.213539 
L 367.162607 370.66325 
L 368.188436 380.646759 
L 369.214266 364.512416 
L 370.240096 382.808515 
L 371.265925 394.594252 
L 372.291755 368.828859 
L 373.317584 365.288668 
L 374.343414 365.037832 
L 375.369243 377.84283 
L 376.395073 379.884578 
L 377.420903 356.070764 
L 378.446732 354.531655 
L 379.472562 372.01481 
L 380.498391 358.238709 
L 381.524221 365.013146 
L 382.550051 374.646916 
L 383.57588 355.747316 
L 384.60171 351.05839 
L 385.627539 338.225971 
L 386.653369 358.440927 
L 387.679198 360.899599 
L 388.705028 375.305336 
L 389.730858 334.403145 
L 390.756687 344.0005 
L 391.782517 361.433611 
L 392.808346 350.343829 
L 393.834176 352.973403 
L 394.860006 370.166292 
L 395.885835 334.354305 
L 396.911665 341.453198 
L 397.937494 361.339558 
L 398.963324 342.051613 
L 399.989153 347.741423 
L 401.014983 337.404521 
L 402.040813 350.104903 
L 403.066642 343.116384 
L 404.092472 363.235151 
L 405.118301 355.2053 
L 406.144131 329.765784 
L 407.16996 345.015017 
L 408.19579 355.593362 
L 409.22162 329.717859 
L 410.247449 351.497288 
L 411.273279 358.889914 
L 412.299108 335.482453 
L 413.324938 332.005156 
L 414.350768 351.522864 
L 415.376597 350.703261 
L 416.402427 326.721183 
L 417.428256 354.579609 
L 418.454086 333.26795 
L 419.479915 332.085658 
L 420.505745 344.538013 
L 421.531575 352.800647 
L 423.583234 320.525227 
L 424.609063 351.987633 
L 425.634893 345.143161 
L 426.660722 336.419622 
L 427.686552 419.409302 
L 428.712382 319.450127 
L 429.738211 341.778477 
L 430.764041 336.123455 
L 431.78987 320.513817 
L 432.8157 327.484171 
L 433.84153 338.549557 
L 434.867359 335.402899 
L 435.893189 325.666341 
L 436.919018 311.583478 
L 437.944848 310.013146 
L 438.970677 326.926215 
L 439.996507 314.02261 
L 441.022337 321.546431 
L 442.048166 330.927082 
L 443.073996 326.431262 
L 444.099825 317.35151 
L 445.125655 320.82705 
L 446.151485 302.086294 
L 447.177314 330.028521 
L 448.203144 320.866163 
L 449.228973 331.375277 
L 450.254803 327.048197 
L 451.280632 311.850393 
L 452.306462 325.429143 
L 453.332292 327.667408 
L 454.358121 315.11745 
L 455.383951 329.186214 
L 456.40978 325.139152 
L 457.43561 301.899113 
L 459.487269 344.214449 
L 460.513099 336.558847 
L 461.538928 320.385486 
L 462.564758 308.293294 
L 463.590587 308.151713 
L 464.616417 319.492602 
L 465.642247 296.017053 
L 466.668076 320.768451 
L 467.693906 303.023325 
L 468.719735 320.911011 
L 469.745565 313.152912 
L 470.771394 298.276846 
L 471.797224 317.547514 
L 472.823054 314.083556 
L 473.848883 324.153376 
L 474.874713 297.137861 
L 475.900542 317.679843 
L 476.926372 317.508215 
L 477.952201 303.839157 
L 478.978031 319.481157 
L 480.003861 309.932796 
L 481.02969 321.469142 
L 482.05552 313.719299 
L 483.081349 285.296556 
L 484.107179 315.673345 
L 485.133009 294.219518 
L 486.158838 310.321365 
L 487.184668 329.785153 
L 488.210497 298.155506 
L 489.236327 308.527737 
L 490.262156 300.701528 
L 491.287986 309.687075 
L 492.313816 287.835349 
L 493.339645 327.216188 
L 494.365475 306.70803 
L 495.391304 312.813859 
L 496.417134 303.24332 
L 497.442964 307.562501 
L 498.468793 308.039086 
L 499.494623 284.518859 
L 500.520452 284.560235 
L 502.572111 331.545093 
L 503.597941 323.043242 
L 504.623771 327.857779 
L 505.6496 311.652253 
L 506.67543 325.419634 
L 507.701259 319.904193 
L 508.727089 326.603397 
L 509.752918 332.56478 
L 510.778748 327.890382 
L 511.804578 319.295257 
L 512.830407 328.346598 
L 513.856237 309.801482 
L 514.882066 326.618366 
L 515.907896 330.068488 
L 516.933726 313.781169 
L 517.959555 315.352209 
L 518.985385 342.548917 
L 520.011214 317.296066 
L 521.037044 318.302702 
L 522.062873 316.671099 
L 523.088703 306.202207 
L 524.114533 310.037527 
L 525.140362 315.03978 
L 526.166192 316.678222 
L 527.192021 312.069349 
L 528.217851 315.513402 
L 529.24368 301.254701 
L 530.26951 315.952973 
L 531.29534 310.82115 
L 532.321169 302.350766 
L 533.346999 375.57625 
L 534.372828 309.561784 
L 535.398658 296.862387 
L 536.424488 304.372279 
L 537.450317 301.356285 
L 538.476147 300.625249 
L 539.501976 295.041389 
L 540.527806 304.374638 
L 541.553635 291.905352 
L 543.605295 308.299953 
L 544.631124 280.891794 
L 545.656954 301.989163 
L 546.682783 290.287035 
L 547.708613 314.256458 
L 548.734443 312.953766 
L 549.760272 314.248856 
L 550.786102 306.928337 
L 551.811931 308.50991 
L 552.837761 316.868686 
L 553.86359 306.754711 
L 554.88942 299.235678 
L 555.91525 313.941182 
L 556.941079 310.569705 
L 557.966909 310.827975 
L 558.992738 319.212154 
L 560.018568 298.452679 
L 561.044397 313.420761 
L 562.070227 288.640616 
L 563.096057 308.057006 
L 564.121886 305.008179 
L 565.147716 308.554402 
L 566.173545 296.49261 
L 567.199375 311.928441 
L 568.225205 311.386072 
L 569.251034 304.067454 
L 570.276864 289.637342 
L 571.302693 300.905613 
L 572.328523 301.173345 
L 573.354352 287.72098 
L 574.380182 296.831809 
L 575.406012 304.380714 
L 576.431841 301.126169 
L 577.457671 312.005987 
L 578.4835 285.195185 
L 579.50933 289.975133 
L 580.535159 292.184457 
L 581.560989 289.804939 
L 582.586819 302.266193 
L 583.612648 290.634444 
L 584.638478 296.747969 
L 585.664307 286.744161 
L 587.715967 325.13355 
L 588.741796 291.806009 
L 589.767626 300.762377 
L 590.793455 268.257322 
L 591.819285 272.892292 
L 592.845114 270.704526 
L 593.870944 305.516833 
L 594.896774 306.823678 
L 595.922603 313.233853 
L 596.948433 303.445963 
L 597.974262 309.992264 
L 599.000092 302.955608 
L 600.025922 308.074107 
L 601.051751 308.507903 
L 602.077581 311.551278 
L 603.10341 298.477604 
L 604.12924 339.735041 
L 605.155069 307.677543 
L 606.180899 304.389716 
L 607.206729 306.277412 
L 608.232558 302.372392 
L 609.258388 303.514871 
L 610.284217 297.56682 
L 611.310047 294.28979 
L 612.335876 292.096565 
L 613.361706 295.391048 
L 614.387536 369.037033 
L 615.413365 298.88262 
L 616.439195 286.417883 
L 617.465024 300.426844 
L 618.490854 292.575578 
L 619.516684 290.948355 
L 620.542513 287.497466 
L 621.568343 297.941299 
L 622.594172 294.336354 
L 623.620002 297.751811 
L 624.645831 297.023446 
L 625.671661 288.025817 
L 626.697491 295.105912 
L 627.72332 285.698803 
L 628.74915 302.297469 
L 629.774979 294.438012 
L 630.800809 285.604041 
L 631.826638 296.992445 
L 632.852468 309.7136 
L 633.878298 282.40273 
L 634.904127 291.819943 
L 635.929957 289.135287 
L 636.955786 281.294982 
L 637.981616 282.919865 
L 639.007446 287.525066 
L 640.033275 271.927558 
L 641.059105 285.977012 
L 642.084934 298.112698 
L 643.110764 292.281392 
L 644.136593 295.997685 
L 645.162423 359.57783 
L 646.188253 284.454264 
L 647.214082 278.18871 
L 648.239912 287.32951 
L 649.265741 276.784913 
L 650.291571 283.928771 
L 651.3174 286.363343 
L 652.34323 277.05207 
L 653.36906 285.358395 
L 654.394889 283.025267 
L 655.420719 261.628014 
L 656.446548 285.133032 
L 657.472378 277.926673 
L 658.498208 286.417202 
L 659.524037 286.814303 
L 660.549867 279.033857 
L 661.575696 280.063841 
L 662.601526 283.721227 
L 663.627355 283.805245 
L 664.653185 285.916293 
L 665.679015 285.569297 
L 666.704844 314.308324 
L 667.730674 287.03061 
L 668.756503 283.440375 
L 669.782333 284.900195 
L 670.808163 284.519888 
L 671.833992 272.33643 
L 672.859822 272.186956 
L 673.885651 279.49627 
L 674.911481 273.469259 
L 675.93731 278.193571 
L 676.96314 274.388318 
L 677.98897 268.686247 
L 679.014799 272.414489 
L 680.040629 274.158504 
L 681.066458 266.457457 
L 682.092288 276.248194 
L 683.118117 260.961789 
L 684.143947 302.51335 
L 685.169777 270.192692 
L 686.195606 271.475153 
L 687.221436 273.195222 
L 688.247265 282.372966 
L 689.273095 267.720863 
L 690.298925 274.395327 
L 691.324754 276.552455 
L 692.350584 284.935831 
L 693.376413 275.852852 
L 694.402243 271.264995 
L 695.428072 270.193066 
L 696.453902 282.24873 
L 697.479732 276.262764 
L 698.505561 275.596643 
L 699.531391 260.296253 
L 700.55722 272.953011 
L 701.58305 262.770162 
L 702.608879 272.949252 
L 703.634709 265.286515 
L 704.660539 255.29557 
L 705.686368 261.857749 
L 706.712198 264.907605 
L 707.738027 269.009787 
L 708.763857 267.951453 
L 709.789687 327.357881 
L 710.815516 269.243412 
L 711.841346 271.054081 
L 712.867175 269.605708 
L 713.893005 264.874661 
L 714.918834 259.094047 
L 715.944664 262.219051 
L 716.970494 265.969325 
L 717.996323 278.596572 
L 719.022153 262.89433 
L 720.047982 257.285422 
L 721.073812 272.156118 
L 722.099642 263.669698 
L 723.125471 268.633574 
L 724.151301 257.1737 
L 725.17713 271.145311 
L 726.20296 268.987224 
L 727.228789 272.255857 
L 728.254619 272.612807 
L 729.280449 270.678145 
L 730.306278 335.308719 
L 731.332108 269.183383 
L 732.357937 256.645899 
L 733.383767 255.703233 
L 734.409596 251.959765 
L 735.435426 266.321489 
L 736.461256 257.748371 
L 737.487085 246.318856 
L 738.512915 256.191775 
L 739.538744 263.983886 
L 740.564574 261.832303 
L 741.590404 256.492573 
L 742.616233 245.62705 
L 743.642063 253.354222 
L 744.667892 249.897959 
L 745.693722 333.065118 
L 746.719551 261.312294 
L 747.745381 262.579184 
L 748.771211 252.780377 
L 749.79704 247.688563 
L 750.82287 260.838845 
L 751.848699 252.217085 
L 752.874529 257.15305 
L 753.900358 246.152037 
L 754.926188 256.779033 
L 755.952018 244.463468 
L 756.977847 243.622663 
L 758.003677 254.841477 
L 759.029506 252.146113 
L 760.055336 251.549741 
L 761.081166 259.691249 
L 762.106995 251.808509 
L 763.132825 254.475906 
L 764.158654 246.688572 
L 765.184484 242.068633 
L 766.210313 260.537592 
L 767.236143 247.555577 
L 768.261973 271.517891 
L 769.287802 243.343993 
L 770.313632 253.571346 
L 771.339461 250.46747 
L 772.365291 244.667857 
L 773.391121 248.42266 
L 774.41695 254.177709 
L 775.44278 253.759869 
L 776.468609 258.5126 
L 777.494439 249.227719 
L 778.520268 243.060278 
L 779.546098 250.577801 
L 780.571928 259.914427 
L 781.597757 245.271207 
L 782.623587 266.428772 
L 783.649416 248.136865 
L 784.675246 265.976498 
L 785.701075 251.139294 
L 786.726905 248.857603 
L 787.752735 265.865865 
L 788.778564 310.723109 
L 789.804394 250.066529 
L 790.830223 248.588757 
L 791.856053 252.879469 
L 792.881883 262.929549 
L 793.907712 248.947508 
L 794.933542 245.079769 
L 795.959371 251.638028 
L 796.985201 315.715066 
L 798.01103 268.515646 
L 799.03686 288.273898 
L 800.06269 253.680667 
L 801.088519 245.479472 
L 802.114349 258.650499 
L 803.140178 248.159817 
L 804.166008 248.389101 
L 805.191837 244.286088 
L 806.217667 238.287909 
L 807.243497 260.19257 
L 808.269326 256.936097 
L 809.295156 236.676045 
L 810.320985 245.117944 
L 811.346815 247.876102 
L 812.372645 245.203036 
L 813.398474 280.295163 
L 814.424304 249.201322 
L 815.450133 254.929113 
L 816.475963 241.152958 
L 817.501792 258.313737 
L 818.527622 242.403462 
L 819.553452 242.357853 
L 820.579281 236.327756 
L 821.605111 249.627176 
L 822.63094 253.725264 
L 823.65677 239.134605 
L 824.6826 250.714317 
L 825.708429 236.512965 
L 826.734259 266.243567 
L 827.760088 234.926272 
L 828.785918 236.457714 
L 829.811747 262.253655 
L 830.837577 251.595233 
L 831.863407 237.200571 
L 832.889236 242.382367 
L 833.915066 248.559113 
L 834.940895 253.523017 
L 835.966725 264.611712 
L 836.992554 248.854528 
L 838.018384 292.304032 
L 839.044214 218.083338 
L 840.070043 242.134054 
L 841.095873 242.507456 
L 842.121702 247.644612 
L 843.147532 249.821775 
L 844.173362 258.148687 
L 845.199191 267.612979 
L 846.225021 252.865655 
L 847.25085 252.604233 
L 848.27668 299.331133 
L 849.302509 241.933053 
L 850.328339 242.55174 
L 851.354169 281.479442 
L 852.379998 238.665562 
L 853.405828 230.181334 
L 854.431657 249.54242 
L 855.457487 248.873695 
L 856.483316 269.383298 
L 857.509146 245.038762 
L 858.534976 233.948224 
L 859.560805 224.953056 
L 860.586635 236.550365 
L 861.612464 244.20761 
L 862.638294 228.351053 
L 863.664124 239.453322 
L 864.689953 234.843453 
L 865.715783 230.753092 
L 866.741612 318.092554 
L 867.767442 238.690424 
L 868.793271 261.255787 
L 869.819101 247.211876 
L 870.844931 230.371227 
L 871.87076 241.73267 
L 872.89659 258.49911 
L 873.922419 234.838991 
L 874.948249 276.670672 
L 875.974078 244.786435 
L 876.999908 243.471018 
L 878.025738 254.732979 
L 879.051567 170.654114 
L 880.077397 242.509538 
L 881.103226 261.728424 
L 882.129056 269.783265 
L 883.154886 149.548743 
L 884.180715 250.55522 
L 885.206545 322.838988 
L 886.232374 245.863463 
L 887.258204 237.352053 
L 888.284033 245.296933 
L 889.309863 232.173662 
L 890.335693 234.269118 
L 891.361522 271.812015 
L 892.387352 225.6561 
L 893.413181 237.911349 
L 894.439011 246.009041 
L 895.464841 321.849747 
L 896.49067 245.923854 
L 897.5165 254.04253 
L 898.542329 248.524944 
L 899.568159 238.806466 
L 900.593988 254.424007 
L 901.619818 275.931893 
L 902.645648 264.151472 
L 903.671477 199.03216 
L 904.697307 243.846734 
L 905.723136 254.665426 
L 906.748966 280.116719 
L 907.774795 266.440781 
L 908.800625 156.49013 
L 909.826455 267.608236 
L 910.852284 254.629258 
L 911.878114 254.63698 
L 912.903943 255.035068 
L 913.929773 236.306176 
L 914.955603 269.433492 
L 915.981432 254.755734 
L 917.007262 256.805662 
L 918.033091 244.477782 
L 919.058921 249.897169 
L 920.08475 245.197356 
L 921.11058 257.103136 
L 922.13641 239.4062 
L 923.162239 271.165876 
L 924.188069 247.360202 
L 925.213898 237.761473 
L 926.239728 231.793686 
L 927.265557 250.125209 
L 928.291387 260.19512 
L 929.317217 191.123964 
L 930.343046 266.947795 
L 931.368876 351.791395 
L 932.394705 237.728811 
L 933.420535 183.113937 
L 934.446365 244.340653 
L 935.472194 168.581939 
L 936.498024 182.967922 
L 937.523853 217.869101 
L 938.549683 240.301264 
L 939.575512 289.49414 
L 940.601342 346.902146 
L 941.627172 167.315912 
L 942.653001 235.710498 
L 943.678831 295.407492 
L 944.70466 265.906212 
L 945.73049 293.19987 
L 946.75632 240.421932 
L 947.782149 238.90263 
L 948.807979 304.022445 
L 949.833808 176.55985 
L 950.859638 300.1288 
L 952.911297 209.64164 
L 953.937127 232.371185 
L 954.962956 238.866844 
L 955.988786 199.829575 
L 957.014615 234.830393 
L 958.040445 228.581668 
L 959.066274 294.973783 
L 960.092104 245.661929 
L 961.117934 235.357631 
L 962.143763 232.589007 
L 963.169593 230.197562 
L 964.195422 236.500197 
L 965.221252 233.08791 
L 966.247082 237.77224 
L 967.272911 230.485435 
L 968.298741 240.306405 
L 969.32457 239.587168 
L 970.3504 226.89784 
L 971.376229 234.906356 
L 972.402059 233.67567 
L 973.427889 236.730478 
L 974.453718 233.005299 
L 975.479548 234.416507 
L 976.505377 237.296277 
L 977.531207 233.938129 
L 978.557036 234.530331 
L 979.582866 235.930197 
L 980.608696 232.205124 
L 981.634525 235.740728 
L 982.660355 240.535089 
L 983.686184 240.827908 
L 984.712014 232.672965 
L 985.737844 232.351327 
L 986.763673 235.295098 
L 987.789503 226.832919 
L 988.815332 228.326608 
L 989.841162 235.929606 
L 990.866991 283.034139 
L 991.892821 231.457657 
L 992.918651 227.102947 
L 993.94448 227.908041 
L 994.97031 242.889349 
L 995.996139 231.940461 
L 997.021969 245.833318 
L 998.047799 222.379019 
L 999.073628 234.244495 
L 1000.099458 230.347129 
L 1001.125287 225.906223 
L 1003.176946 238.485167 
L 1004.202776 222.485863 
L 1005.228606 228.948055 
L 1006.254435 227.587 
L 1007.280265 230.047639 
L 1008.306094 318.693555 
L 1009.331924 245.211394 
L 1010.357753 238.549207 
L 1011.383583 233.002501 
L 1012.409413 231.592444 
L 1013.435242 233.828428 
L 1014.461072 243.537789 
L 1015.486901 235.300415 
L 1016.512731 232.224635 
L 1017.538561 235.933396 
L 1018.56439 228.273946 
L 1019.59022 215.232349 
L 1020.616049 224.079743 
L 1021.641879 215.600886 
L 1022.667708 227.500366 
L 1023.693538 229.816449 
L 1024.719368 231.096502 
L 1025.745197 230.24372 
L 1026.771027 227.653083 
L 1027.796856 229.058383 
L 1028.822686 228.205592 
L 1029.848515 230.863463 
L 1030.874345 227.311465 
L 1031.900175 229.623181 
L 1032.926004 226.76362 
L 1033.951834 230.944346 
L 1034.977663 233.364516 
L 1036.003493 228.647944 
L 1037.029323 241.341032 
L 1039.080982 225.48771 
L 1040.106811 224.69012 
L 1041.132641 234.274018 
L 1042.15847 238.110636 
L 1044.21013 229.196175 
L 1045.235959 219.629851 
L 1046.261789 220.621412 
L 1047.287618 243.211841 
L 1048.313448 226.155131 
L 1049.339278 226.964423 
L 1050.365107 225.396371 
L 1051.390937 231.873441 
L 1052.416766 231.573478 
L 1053.442596 228.607521 
L 1054.468425 228.637044 
L 1055.494255 237.021196 
L 1056.520085 229.343932 
L 1057.545914 247.81867 
L 1058.571744 225.499551 
L 1059.597573 223.741564 
L 1060.623403 228.807594 
L 1061.649232 273.962664 
L 1062.675062 234.369015 
L 1063.700892 230.050789 
L 1064.726721 243.087204 
L 1065.752551 224.79342 
L 1066.77838 224.139754 
L 1067.80421 223.111295 
L 1068.83004 223.409947 
L 1069.855869 223.323567 
L 1070.881699 223.121482 
L 1071.907528 235.276085 
L 1072.933358 221.836566 
L 1073.959187 220.573234 
L 1074.985017 222.32426 
L 1076.010847 217.97352 
L 1077.036676 224.20999 
L 1078.062506 225.696176 
L 1079.088335 225.95268 
L 1080.114165 225.760953 
L 1081.139994 225.26052 
L 1082.165824 239.348233 
L 1083.191654 227.687874 
L 1084.217483 223.594672 
L 1085.243313 230.537037 
L 1086.269142 216.202067 
L 1087.294972 217.272678 
L 1088.320802 229.335726 
L 1089.346631 229.264302 
L 1090.372461 224.372752 
L 1091.39829 231.279857 
L 1092.42412 228.295467 
L 1093.449949 219.144318 
L 1094.475779 264.919714 
L 1095.501609 219.356273 
L 1096.527438 223.119975 
L 1097.553268 228.397654 
L 1098.579097 229.059515 
L 1099.604927 224.340945 
L 1100.630757 227.969687 
L 1101.656586 241.806361 
L 1102.682416 228.1012 
L 1103.708245 220.418433 
L 1105.759904 233.215851 
L 1106.785734 221.806589 
L 1107.811564 230.392666 
L 1108.837393 246.146721 
L 1109.863223 226.671114 
L 1110.889052 234.074252 
L 1112.940711 224.621408 
L 1113.966541 276.17727 
L 1114.992371 232.350796 
L 1116.0182 222.061666 
L 1117.04403 222.321749 
L 1118.069859 220.343486 
L 1119.095689 223.91253 
L 1120.121519 222.561681 
L 1121.147348 230.161039 
L 1122.173178 226.135703 
L 1123.199007 224.403845 
L 1124.224837 221.232724 
L 1125.250666 220.065364 
L 1126.276496 221.439774 
L 1127.302326 229.222236 
L 1129.353985 224.265057 
L 1130.379814 223.374812 
L 1131.405644 221.4197 
L 1132.431473 225.471486 
L 1134.483133 226.913685 
L 1135.508962 224.174534 
L 1136.534792 220.380363 
L 1137.560621 220.772801 
L 1138.586451 216.98073 
L 1139.612281 222.879709 
L 1140.63811 224.303939 
L 1141.66394 223.638921 
L 1142.689769 218.4776 
L 1143.715599 221.000014 
L 1144.741428 226.674517 
L 1145.767258 224.046897 
L 1146.793088 213.994142 
L 1147.818917 217.842346 
L 1148.844747 224.019247 
L 1149.870576 218.124173 
L 1150.896406 225.71524 
L 1151.922235 219.985364 
L 1152.948065 217.813669 
L 1153.973895 224.72806 
L 1154.999724 222.054725 
L 1156.025554 218.671851 
L 1157.051383 222.488091 
L 1158.077213 225.666533 
L 1159.103043 232.097908 
L 1160.128872 222.809695 
L 1161.154702 228.557527 
L 1162.180531 214.616611 
L 1163.206361 220.510723 
L 1164.23219 220.787047 
L 1165.25802 227.638743 
L 1166.28385 280.559973 
L 1167.309679 231.675375 
L 1168.335509 223.59967 
L 1169.361338 264.222811 
L 1170.387168 220.160564 
L 1171.412998 225.09969 
L 1172.438827 217.909791 
L 1173.464657 221.987158 
L 1174.490486 232.38181 
L 1175.516316 220.579814 
L 1176.542145 218.564162 
L 1177.567975 221.52898 
L 1178.593805 236.030574 
L 1179.619634 216.929584 
L 1180.645464 216.868629 
L 1181.671293 217.06556 
L 1182.697123 217.979416 
L 1183.722952 215.5556 
L 1184.748782 217.773715 
L 1185.774612 223.954852 
L 1186.800441 214.962802 
L 1187.826271 221.543283 
L 1188.8521 222.749632 
L 1189.87793 220.356739 
L 1190.90376 219.560785 
L 1191.929589 221.679561 
L 1192.955419 227.343324 
L 1193.981248 215.179021 
L 1195.007078 223.460012 
L 1196.032907 212.488657 
L 1197.058737 220.980129 
L 1198.084567 221.188206 
L 1199.110396 225.71931 
L 1200.136226 223.033008 
L 1201.162055 214.348157 
L 1202.187885 210.626558 
L 1203.213714 208.869676 
L 1204.239544 216.48711 
L 1205.265374 218.285492 
L 1206.291203 217.975998 
L 1207.317033 219.127896 
L 1208.342862 234.724337 
L 1209.368692 207.885062 
L 1210.394522 221.299706 
L 1211.420351 218.737792 
L 1212.446181 219.135778 
L 1213.47201 224.6724 
L 1215.523669 219.499651 
L 1217.575329 221.884316 
L 1218.601158 277.256207 
L 1219.626988 233.151836 
L 1220.652817 229.45866 
L 1221.678647 216.965613 
L 1222.704477 224.180256 
L 1223.730306 242.99154 
L 1224.756136 220.689114 
L 1225.781965 221.981126 
L 1226.807795 265.908097 
L 1227.833624 224.198041 
L 1228.859454 215.043999 
L 1229.885284 220.439955 
L 1230.911113 219.918829 
L 1231.936943 221.3728 
L 1232.962772 221.641503 
L 1233.988602 218.067631 
L 1235.014431 219.438957 
L 1236.040261 217.863612 
L 1237.066091 217.54155 
L 1238.09192 214.420681 
L 1239.11775 219.71576 
L 1240.143579 221.575029 
L 1241.169409 217.615488 
L 1242.195239 215.961264 
L 1243.221068 218.0487 
L 1244.246898 225.758668 
L 1245.272727 221.287217 
L 1245.272727 221.287217 
" style="fill:none;stroke:#ff7f0e;stroke-linecap:square;stroke-width:1.5;"/>
   </g>
   <g id="patch_3">
    <path d="M 180 640.8 
L 180 86.4 
" style="fill:none;stroke:#000000;stroke-linecap:square;stroke-linejoin:miter;stroke-width:0.8;"/>
   </g>
   <g id="patch_4">
    <path d="M 1296 640.8 
L 1296 86.4 
" style="fill:none;stroke:#000000;stroke-linecap:square;stroke-linejoin:miter;stroke-width:0.8;"/>
   </g>
   <g id="patch_5">
    <path d="M 180 640.8 
L 1296 640.8 
" style="fill:none;stroke:#000000;stroke-linecap:square;stroke-linejoin:miter;stroke-width:0.8;"/>
   </g>
   <g id="patch_6">
    <path d="M 180 86.4 
L 1296 86.4 
" style="fill:none;stroke:#000000;stroke-linecap:square;stroke-linejoin:miter;stroke-width:0.8;"/>
   </g>
   <g id="text_18">
    <!-- Average True Range (ATR) Speedup -->
    <defs>
     <path d="M 34.1875 63.1875 
L 20.796875 26.90625 
L 47.609375 26.90625 
z
M 28.609375 72.90625 
L 39.796875 72.90625 
L 67.578125 0 
L 57.328125 0 
L 50.6875 18.703125 
L 17.828125 18.703125 
L 11.1875 0 
L 0.78125 0 
z
" id="DejaVuSans-65"/>
     <path d="M 2.984375 54.6875 
L 12.5 54.6875 
L 29.59375 8.796875 
L 46.6875 54.6875 
L 56.203125 54.6875 
L 35.6875 0 
L 23.484375 0 
z
" id="DejaVuSans-118"/>
     <path d="M 41.109375 46.296875 
Q 39.59375 47.171875 37.8125 47.578125 
Q 36.03125 48 33.890625 48 
Q 26.265625 48 22.1875 43.046875 
Q 18.109375 38.09375 18.109375 28.8125 
L 18.109375 0 
L 9.078125 0 
L 9.078125 54.6875 
L 18.109375 54.6875 
L 18.109375 46.1875 
Q 20.953125 51.171875 25.484375 53.578125 
Q 30.03125 56 36.53125 56 
Q 37.453125 56 38.578125 55.875 
Q 39.703125 55.765625 41.0625 55.515625 
z
" id="DejaVuSans-114"/>
     <path d="M 34.28125 27.484375 
Q 23.390625 27.484375 19.1875 25 
Q 14.984375 22.515625 14.984375 16.5 
Q 14.984375 11.71875 18.140625 8.90625 
Q 21.296875 6.109375 26.703125 6.109375 
Q 34.1875 6.109375 38.703125 11.40625 
Q 43.21875 16.703125 43.21875 25.484375 
L 43.21875 27.484375 
z
M 52.203125 31.203125 
L 52.203125 0 
L 43.21875 0 
L 43.21875 8.296875 
Q 40.140625 3.328125 35.546875 0.953125 
Q 30.953125 -1.421875 24.3125 -1.421875 
Q 15.921875 -1.421875 10.953125 3.296875 
Q 6 8.015625 6 15.921875 
Q 6 25.140625 12.171875 29.828125 
Q 18.359375 34.515625 30.609375 34.515625 
L 43.21875 34.515625 
L 43.21875 35.40625 
Q 43.21875 41.609375 39.140625 45 
Q 35.0625 48.390625 27.6875 48.390625 
Q 23 48.390625 18.546875 47.265625 
Q 14.109375 46.140625 10.015625 43.890625 
L 10.015625 52.203125 
Q 14.9375 54.109375 19.578125 55.046875 
Q 24.21875 56 28.609375 56 
Q 40.484375 56 46.34375 49.84375 
Q 52.203125 43.703125 52.203125 31.203125 
z
" id="DejaVuSans-97"/>
     <path d="M 45.40625 27.984375 
Q 45.40625 37.75 41.375 43.109375 
Q 37.359375 48.484375 30.078125 48.484375 
Q 22.859375 48.484375 18.828125 43.109375 
Q 14.796875 37.75 14.796875 27.984375 
Q 14.796875 18.265625 18.828125 12.890625 
Q 22.859375 7.515625 30.078125 7.515625 
Q 37.359375 7.515625 41.375 12.890625 
Q 45.40625 18.265625 45.40625 27.984375 
z
M 54.390625 6.78125 
Q 54.390625 -7.171875 48.1875 -13.984375 
Q 42 -20.796875 29.203125 -20.796875 
Q 24.46875 -20.796875 20.265625 -20.09375 
Q 16.0625 -19.390625 12.109375 -17.921875 
L 12.109375 -9.1875 
Q 16.0625 -11.328125 19.921875 -12.34375 
Q 23.78125 -13.375 27.78125 -13.375 
Q 36.625 -13.375 41.015625 -8.765625 
Q 45.40625 -4.15625 45.40625 5.171875 
L 45.40625 9.625 
Q 42.625 4.78125 38.28125 2.390625 
Q 33.9375 0 27.875 0 
Q 17.828125 0 11.671875 7.65625 
Q 5.515625 15.328125 5.515625 27.984375 
Q 5.515625 40.671875 11.671875 48.328125 
Q 17.828125 56 27.875 56 
Q 33.9375 56 38.28125 53.609375 
Q 42.625 51.21875 45.40625 46.390625 
L 45.40625 54.6875 
L 54.390625 54.6875 
z
" id="DejaVuSans-103"/>
     <path id="DejaVuSans-32"/>
     <path d="M -0.296875 72.90625 
L 61.375 72.90625 
L 61.375 64.59375 
L 35.5 64.59375 
L 35.5 0 
L 25.59375 0 
L 25.59375 64.59375 
L -0.296875 64.59375 
z
" id="DejaVuSans-84"/>
     <path d="M 44.390625 34.1875 
Q 47.5625 33.109375 50.5625 29.59375 
Q 53.5625 26.078125 56.59375 19.921875 
L 66.609375 0 
L 56 0 
L 46.6875 18.703125 
Q 43.0625 26.03125 39.671875 28.421875 
Q 36.28125 30.8125 30.421875 30.8125 
L 19.671875 30.8125 
L 19.671875 0 
L 9.8125 0 
L 9.8125 72.90625 
L 32.078125 72.90625 
Q 44.578125 72.90625 50.734375 67.671875 
Q 56.890625 62.453125 56.890625 51.90625 
Q 56.890625 45.015625 53.6875 40.46875 
Q 50.484375 35.9375 44.390625 34.1875 
z
M 19.671875 64.796875 
L 19.671875 38.921875 
L 32.078125 38.921875 
Q 39.203125 38.921875 42.84375 42.21875 
Q 46.484375 45.515625 46.484375 51.90625 
Q 46.484375 58.296875 42.84375 61.546875 
Q 39.203125 64.796875 32.078125 64.796875 
z
" id="DejaVuSans-82"/>
     <path d="M 31 75.875 
Q 24.46875 64.65625 21.28125 53.65625 
Q 18.109375 42.671875 18.109375 31.390625 
Q 18.109375 20.125 21.3125 9.0625 
Q 24.515625 -2 31 -13.1875 
L 23.1875 -13.1875 
Q 15.875 -1.703125 12.234375 9.375 
Q 8.59375 20.453125 8.59375 31.390625 
Q 8.59375 42.28125 12.203125 53.3125 
Q 15.828125 64.359375 23.1875 75.875 
z
" id="DejaVuSans-40"/>
     <path d="M 8.015625 75.875 
L 15.828125 75.875 
Q 23.140625 64.359375 26.78125 53.3125 
Q 30.421875 42.28125 30.421875 31.390625 
Q 30.421875 20.453125 26.78125 9.375 
Q 23.140625 -1.703125 15.828125 -13.1875 
L 8.015625 -13.1875 
Q 14.5 -2 17.703125 9.0625 
Q 20.90625 20.125 20.90625 31.390625 
Q 20.90625 42.671875 17.703125 53.65625 
Q 14.5 64.65625 8.015625 75.875 
z
" id="DejaVuSans-41"/>
     <path d="M 53.515625 70.515625 
L 53.515625 60.890625 
Q 47.90625 63.578125 42.921875 64.890625 
Q 37.9375 66.21875 33.296875 66.21875 
Q 25.25 66.21875 20.875 63.09375 
Q 16.5 59.96875 16.5 54.203125 
Q 16.5 49.359375 19.40625 46.890625 
Q 22.3125 44.4375 30.421875 42.921875 
L 36.375 41.703125 
Q 47.40625 39.59375 52.65625 34.296875 
Q 57.90625 29 57.90625 20.125 
Q 57.90625 9.515625 50.796875 4.046875 
Q 43.703125 -1.421875 29.984375 -1.421875 
Q 24.8125 -1.421875 18.96875 -0.25 
Q 13.140625 0.921875 6.890625 3.21875 
L 6.890625 13.375 
Q 12.890625 10.015625 18.65625 8.296875 
Q 24.421875 6.59375 29.984375 6.59375 
Q 38.421875 6.59375 43.015625 9.90625 
Q 47.609375 13.234375 47.609375 19.390625 
Q 47.609375 24.75 44.3125 27.78125 
Q 41.015625 30.8125 33.5 32.328125 
L 27.484375 33.5 
Q 16.453125 35.6875 11.515625 40.375 
Q 6.59375 45.0625 6.59375 53.421875 
Q 6.59375 63.09375 13.40625 68.65625 
Q 20.21875 74.21875 32.171875 74.21875 
Q 37.3125 74.21875 42.625 73.28125 
Q 47.953125 72.359375 53.515625 70.515625 
z
" id="DejaVuSans-83"/>
    </defs>
    <g transform="translate(631.400625 80.4)scale(0.12 -0.12)">
     <use xlink:href="#DejaVuSans-65"/>
     <use x="62.533203" xlink:href="#DejaVuSans-118"/>
     <use x="121.712891" xlink:href="#DejaVuSans-101"/>
     <use x="183.236328" xlink:href="#DejaVuSans-114"/>
     <use x="224.349609" xlink:href="#DejaVuSans-97"/>
     <use x="285.628906" xlink:href="#DejaVuSans-103"/>
     <use x="349.105469" xlink:href="#DejaVuSans-101"/>
     <use x="410.628906" xlink:href="#DejaVuSans-32"/>
     <use x="442.416016" xlink:href="#DejaVuSans-84"/>
     <use x="488.75" xlink:href="#DejaVuSans-114"/>
     <use x="529.863281" xlink:href="#DejaVuSans-117"/>
     <use x="593.242188" xlink:href="#DejaVuSans-101"/>
     <use x="654.765625" xlink:href="#DejaVuSans-32"/>
     <use x="686.552734" xlink:href="#DejaVuSans-82"/>
     <use x="753.785156" xlink:href="#DejaVuSans-97"/>
     <use x="815.064453" xlink:href="#DejaVuSans-110"/>
     <use x="878.443359" xlink:href="#DejaVuSans-103"/>
     <use x="941.919922" xlink:href="#DejaVuSans-101"/>
     <use x="1003.443359" xlink:href="#DejaVuSans-32"/>
     <use x="1035.230469" xlink:href="#DejaVuSans-40"/>
     <use x="1074.244141" xlink:href="#DejaVuSans-65"/>
     <use x="1134.902344" xlink:href="#DejaVuSans-84"/>
     <use x="1195.986328" xlink:href="#DejaVuSans-82"/>
     <use x="1265.46875" xlink:href="#DejaVuSans-41"/>
     <use x="1304.482422" xlink:href="#DejaVuSans-32"/>
     <use x="1336.269531" xlink:href="#DejaVuSans-83"/>
     <use x="1399.746094" xlink:href="#DejaVuSans-112"/>
     <use x="1463.222656" xlink:href="#DejaVuSans-101"/>
     <use x="1524.746094" xlink:href="#DejaVuSans-101"/>
     <use x="1586.269531" xlink:href="#DejaVuSans-100"/>
     <use x="1649.746094" xlink:href="#DejaVuSans-117"/>
     <use x="1713.125" xlink:href="#DejaVuSans-112"/>
    </g>
   </g>
   <g id="legend_1">
    <g id="patch_7">
     <path d="M 1185.373437 123.75625 
L 1289 123.75625 
Q 1291 123.75625 1291 121.75625 
L 1291 93.4 
Q 1291 91.4 1289 91.4 
L 1185.373437 91.4 
Q 1183.373437 91.4 1183.373437 93.4 
L 1183.373437 121.75625 
Q 1183.373437 123.75625 1185.373437 123.75625 
z
" style="fill:#ffffff;opacity:0.8;stroke:#cccccc;stroke-linejoin:miter;"/>
    </g>
    <g id="line2d_18">
     <path d="M 1187.373437 99.498437 
L 1207.373437 99.498437 
" style="fill:none;stroke:#1f77b4;stroke-linecap:square;stroke-width:1.5;"/>
    </g>
    <g id="line2d_19"/>
    <g id="text_19">
     <!-- numpy.float32 -->
     <defs>
      <path d="M 52 44.1875 
Q 55.375 50.25 60.0625 53.125 
Q 64.75 56 71.09375 56 
Q 79.640625 56 84.28125 50.015625 
Q 88.921875 44.046875 88.921875 33.015625 
L 88.921875 0 
L 79.890625 0 
L 79.890625 32.71875 
Q 79.890625 40.578125 77.09375 44.375 
Q 74.3125 48.1875 68.609375 48.1875 
Q 61.625 48.1875 57.5625 43.546875 
Q 53.515625 38.921875 53.515625 30.90625 
L 53.515625 0 
L 44.484375 0 
L 44.484375 32.71875 
Q 44.484375 40.625 41.703125 44.40625 
Q 38.921875 48.1875 33.109375 48.1875 
Q 26.21875 48.1875 22.15625 43.53125 
Q 18.109375 38.875 18.109375 30.90625 
L 18.109375 0 
L 9.078125 0 
L 9.078125 54.6875 
L 18.109375 54.6875 
L 18.109375 46.1875 
Q 21.1875 51.21875 25.484375 53.609375 
Q 29.78125 56 35.6875 56 
Q 41.65625 56 45.828125 52.96875 
Q 50 49.953125 52 44.1875 
z
" id="DejaVuSans-109"/>
      <path d="M 32.171875 -5.078125 
Q 28.375 -14.84375 24.75 -17.8125 
Q 21.140625 -20.796875 15.09375 -20.796875 
L 7.90625 -20.796875 
L 7.90625 -13.28125 
L 13.1875 -13.28125 
Q 16.890625 -13.28125 18.9375 -11.515625 
Q 21 -9.765625 23.484375 -3.21875 
L 25.09375 0.875 
L 2.984375 54.6875 
L 12.5 54.6875 
L 29.59375 11.921875 
L 46.6875 54.6875 
L 56.203125 54.6875 
z
" id="DejaVuSans-121"/>
      <path d="M 37.109375 75.984375 
L 37.109375 68.5 
L 28.515625 68.5 
Q 23.6875 68.5 21.796875 66.546875 
Q 19.921875 64.59375 19.921875 59.515625 
L 19.921875 54.6875 
L 34.71875 54.6875 
L 34.71875 47.703125 
L 19.921875 47.703125 
L 19.921875 0 
L 10.890625 0 
L 10.890625 47.703125 
L 2.296875 47.703125 
L 2.296875 54.6875 
L 10.890625 54.6875 
L 10.890625 58.5 
Q 10.890625 67.625 15.140625 71.796875 
Q 19.390625 75.984375 28.609375 75.984375 
z
" id="DejaVuSans-102"/>
      <path d="M 9.421875 75.984375 
L 18.40625 75.984375 
L 18.40625 0 
L 9.421875 0 
z
" id="DejaVuSans-108"/>
      <path d="M 30.609375 48.390625 
Q 23.390625 48.390625 19.1875 42.75 
Q 14.984375 37.109375 14.984375 27.296875 
Q 14.984375 17.484375 19.15625 11.84375 
Q 23.34375 6.203125 30.609375 6.203125 
Q 37.796875 6.203125 41.984375 11.859375 
Q 46.1875 17.53125 46.1875 27.296875 
Q 46.1875 37.015625 41.984375 42.703125 
Q 37.796875 48.390625 30.609375 48.390625 
z
M 30.609375 56 
Q 42.328125 56 49.015625 48.375 
Q 55.71875 40.765625 55.71875 27.296875 
Q 55.71875 13.875 49.015625 6.21875 
Q 42.328125 -1.421875 30.609375 -1.421875 
Q 18.84375 -1.421875 12.171875 6.21875 
Q 5.515625 13.875 5.515625 27.296875 
Q 5.515625 40.765625 12.171875 48.375 
Q 18.84375 56 30.609375 56 
z
" id="DejaVuSans-111"/>
      <path d="M 18.3125 70.21875 
L 18.3125 54.6875 
L 36.8125 54.6875 
L 36.8125 47.703125 
L 18.3125 47.703125 
L 18.3125 18.015625 
Q 18.3125 11.328125 20.140625 9.421875 
Q 21.96875 7.515625 27.59375 7.515625 
L 36.8125 7.515625 
L 36.8125 0 
L 27.59375 0 
Q 17.1875 0 13.234375 3.875 
Q 9.28125 7.765625 9.28125 18.015625 
L 9.28125 47.703125 
L 2.6875 47.703125 
L 2.6875 54.6875 
L 9.28125 54.6875 
L 9.28125 70.21875 
z
" id="DejaVuSans-116"/>
     </defs>
     <g transform="translate(1215.373437 102.998437)scale(0.1 -0.1)">
      <use xlink:href="#DejaVuSans-110"/>
      <use x="63.378906" xlink:href="#DejaVuSans-117"/>
      <use x="126.757812" xlink:href="#DejaVuSans-109"/>
      <use x="224.169922" xlink:href="#DejaVuSans-112"/>
      <use x="287.646484" xlink:href="#DejaVuSans-121"/>
      <use x="332.576172" xlink:href="#DejaVuSans-46"/>
      <use x="364.363281" xlink:href="#DejaVuSans-102"/>
      <use x="399.568359" xlink:href="#DejaVuSans-108"/>
      <use x="427.351562" xlink:href="#DejaVuSans-111"/>
      <use x="488.533203" xlink:href="#DejaVuSans-97"/>
      <use x="549.8125" xlink:href="#DejaVuSans-116"/>
      <use x="589.021484" xlink:href="#DejaVuSans-51"/>
      <use x="652.644531" xlink:href="#DejaVuSans-50"/>
     </g>
    </g>
    <g id="line2d_20">
     <path d="M 1187.373437 114.176562 
L 1207.373437 114.176562 
" style="fill:none;stroke:#ff7f0e;stroke-linecap:square;stroke-width:1.5;"/>
    </g>
    <g id="line2d_21"/>
    <g id="text_20">
     <!-- numpy.float64 -->
     <g transform="translate(1215.373437 117.676562)scale(0.1 -0.1)">
      <use xlink:href="#DejaVuSans-110"/>
      <use x="63.378906" xlink:href="#DejaVuSans-117"/>
      <use x="126.757812" xlink:href="#DejaVuSans-109"/>
      <use x="224.169922" xlink:href="#DejaVuSans-112"/>
      <use x="287.646484" xlink:href="#DejaVuSans-121"/>
      <use x="332.576172" xlink:href="#DejaVuSans-46"/>
      <use x="364.363281" xlink:href="#DejaVuSans-102"/>
      <use x="399.568359" xlink:href="#DejaVuSans-108"/>
      <use x="427.351562" xlink:href="#DejaVuSans-111"/>
      <use x="488.533203" xlink:href="#DejaVuSans-97"/>
      <use x="549.8125" xlink:href="#DejaVuSans-116"/>
      <use x="589.021484" xlink:href="#DejaVuSans-54"/>
      <use x="652.644531" xlink:href="#DejaVuSans-52"/>
     </g>
    </g>
   </g>
  </g>
 </g>
 <defs>
  <clipPath id="p2945ba18ab">
   <rect height="554.4" width="1116" x="180" y="86.4"/>
  </clipPath>
 </defs>
</svg>
