<?xml version="1.0" encoding="utf-8" standalone="no"?>
<!DOCTYPE svg PUBLIC "-//W3C//DTD SVG 1.1//EN"
  "http://www.w3.org/Graphics/SVG/1.1/DTD/svg11.dtd">
<!-- Created with matplotlib (https://matplotlib.org/) -->
<svg height="720pt" version="1.1" viewBox="0 0 1440 720" width="1440pt" xmlns="http://www.w3.org/2000/svg" xmlns:xlink="http://www.w3.org/1999/xlink">
 <defs>
  <style type="text/css">
*{stroke-linecap:butt;stroke-linejoin:round;}
  </style>
 </defs>
 <g id="figure_1">
  <g id="patch_1">
   <path d="M 0 720 
L 1440 720 
L 1440 0 
L 0 0 
z
" style="fill:#ffffff;"/>
  </g>
  <g id="axes_1">
   <g id="patch_2">
    <path d="M 180 640.8 
L 1296 640.8 
L 1296 86.4 
L 180 86.4 
z
" style="fill:#ffffff;"/>
   </g>
   <g id="matplotlib.axis_1">
    <g id="xtick_1">
     <g id="line2d_1">
      <defs>
       <path d="M 0 0 
L 0 3.5 
" id="m14ccbcd4dd" style="stroke:#000000;stroke-width:0.8;"/>
      </defs>
      <g>
       <use style="stroke:#000000;stroke-width:0.8;" x="333.310231" xlink:href="#m14ccbcd4dd" y="640.8"/>
      </g>
     </g>
     <g id="text_1">
      <!-- 100.0 -->
      <defs>
       <path d="M 12.40625 8.296875 
L 28.515625 8.296875 
L 28.515625 63.921875 
L 10.984375 60.40625 
L 10.984375 69.390625 
L 28.421875 72.90625 
L 38.28125 72.90625 
L 38.28125 8.296875 
L 54.390625 8.296875 
L 54.390625 0 
L 12.40625 0 
z
" id="DejaVuSans-49"/>
       <path d="M 31.78125 66.40625 
Q 24.171875 66.40625 20.328125 58.90625 
Q 16.5 51.421875 16.5 36.375 
Q 16.5 21.390625 20.328125 13.890625 
Q 24.171875 6.390625 31.78125 6.390625 
Q 39.453125 6.390625 43.28125 13.890625 
Q 47.125 21.390625 47.125 36.375 
Q 47.125 51.421875 43.28125 58.90625 
Q 39.453125 66.40625 31.78125 66.40625 
z
M 31.78125 74.21875 
Q 44.046875 74.21875 50.515625 64.515625 
Q 56.984375 54.828125 56.984375 36.375 
Q 56.984375 17.96875 50.515625 8.265625 
Q 44.046875 -1.421875 31.78125 -1.421875 
Q 19.53125 -1.421875 13.0625 8.265625 
Q 6.59375 17.96875 6.59375 36.375 
Q 6.59375 54.828125 13.0625 64.515625 
Q 19.53125 74.21875 31.78125 74.21875 
z
" id="DejaVuSans-48"/>
       <path d="M 10.6875 12.40625 
L 21 12.40625 
L 21 0 
L 10.6875 0 
z
" id="DejaVuSans-46"/>
      </defs>
      <g transform="translate(318.996168 655.398438)scale(0.1 -0.1)">
       <use xlink:href="#DejaVuSans-49"/>
       <use x="63.623047" xlink:href="#DejaVuSans-48"/>
       <use x="127.246094" xlink:href="#DejaVuSans-48"/>
       <use x="190.869141" xlink:href="#DejaVuSans-46"/>
       <use x="222.65625" xlink:href="#DejaVuSans-48"/>
      </g>
     </g>
    </g>
    <g id="xtick_2">
     <g id="line2d_2">
      <g>
       <use style="stroke:#000000;stroke-width:0.8;" x="435.893189" xlink:href="#m14ccbcd4dd" y="640.8"/>
      </g>
     </g>
     <g id="text_2">
      <!-- 200.0 -->
      <defs>
       <path d="M 19.1875 8.296875 
L 53.609375 8.296875 
L 53.609375 0 
L 7.328125 0 
L 7.328125 8.296875 
Q 12.9375 14.109375 22.625 23.890625 
Q 32.328125 33.6875 34.8125 36.53125 
Q 39.546875 41.84375 41.421875 45.53125 
Q 43.3125 49.21875 43.3125 52.78125 
Q 43.3125 58.59375 39.234375 62.25 
Q 35.15625 65.921875 28.609375 65.921875 
Q 23.96875 65.921875 18.8125 64.3125 
Q 13.671875 62.703125 7.8125 59.421875 
L 7.8125 69.390625 
Q 13.765625 71.78125 18.9375 73 
Q 24.125 74.21875 28.421875 74.21875 
Q 39.75 74.21875 46.484375 68.546875 
Q 53.21875 62.890625 53.21875 53.421875 
Q 53.21875 48.921875 51.53125 44.890625 
Q 49.859375 40.875 45.40625 35.40625 
Q 44.1875 33.984375 37.640625 27.21875 
Q 31.109375 20.453125 19.1875 8.296875 
z
" id="DejaVuSans-50"/>
      </defs>
      <g transform="translate(421.579126 655.398438)scale(0.1 -0.1)">
       <use xlink:href="#DejaVuSans-50"/>
       <use x="63.623047" xlink:href="#DejaVuSans-48"/>
       <use x="127.246094" xlink:href="#DejaVuSans-48"/>
       <use x="190.869141" xlink:href="#DejaVuSans-46"/>
       <use x="222.65625" xlink:href="#DejaVuSans-48"/>
      </g>
     </g>
    </g>
    <g id="xtick_3">
     <g id="line2d_3">
      <g>
       <use style="stroke:#000000;stroke-width:0.8;" x="538.476147" xlink:href="#m14ccbcd4dd" y="640.8"/>
      </g>
     </g>
     <g id="text_3">
      <!-- 300.0 -->
      <defs>
       <path d="M 40.578125 39.3125 
Q 47.65625 37.796875 51.625 33 
Q 55.609375 28.21875 55.609375 21.1875 
Q 55.609375 10.40625 48.1875 4.484375 
Q 40.765625 -1.421875 27.09375 -1.421875 
Q 22.515625 -1.421875 17.65625 -0.515625 
Q 12.796875 0.390625 7.625 2.203125 
L 7.625 11.71875 
Q 11.71875 9.328125 16.59375 8.109375 
Q 21.484375 6.890625 26.8125 6.890625 
Q 36.078125 6.890625 40.9375 10.546875 
Q 45.796875 14.203125 45.796875 21.1875 
Q 45.796875 27.640625 41.28125 31.265625 
Q 36.765625 34.90625 28.71875 34.90625 
L 20.21875 34.90625 
L 20.21875 43.015625 
L 29.109375 43.015625 
Q 36.375 43.015625 40.234375 45.921875 
Q 44.09375 48.828125 44.09375 54.296875 
Q 44.09375 59.90625 40.109375 62.90625 
Q 36.140625 65.921875 28.71875 65.921875 
Q 24.65625 65.921875 20.015625 65.03125 
Q 15.375 64.15625 9.8125 62.3125 
L 9.8125 71.09375 
Q 15.4375 72.65625 20.34375 73.4375 
Q 25.25 74.21875 29.59375 74.21875 
Q 40.828125 74.21875 47.359375 69.109375 
Q 53.90625 64.015625 53.90625 55.328125 
Q 53.90625 49.265625 50.4375 45.09375 
Q 46.96875 40.921875 40.578125 39.3125 
z
" id="DejaVuSans-51"/>
      </defs>
      <g transform="translate(524.162084 655.398438)scale(0.1 -0.1)">
       <use xlink:href="#DejaVuSans-51"/>
       <use x="63.623047" xlink:href="#DejaVuSans-48"/>
       <use x="127.246094" xlink:href="#DejaVuSans-48"/>
       <use x="190.869141" xlink:href="#DejaVuSans-46"/>
       <use x="222.65625" xlink:href="#DejaVuSans-48"/>
      </g>
     </g>
    </g>
    <g id="xtick_4">
     <g id="line2d_4">
      <g>
       <use style="stroke:#000000;stroke-width:0.8;" x="641.059105" xlink:href="#m14ccbcd4dd" y="640.8"/>
      </g>
     </g>
     <g id="text_4">
      <!-- 400.0 -->
      <defs>
       <path d="M 37.796875 64.3125 
L 12.890625 25.390625 
L 37.796875 25.390625 
z
M 35.203125 72.90625 
L 47.609375 72.90625 
L 47.609375 25.390625 
L 58.015625 25.390625 
L 58.015625 17.1875 
L 47.609375 17.1875 
L 47.609375 0 
L 37.796875 0 
L 37.796875 17.1875 
L 4.890625 17.1875 
L 4.890625 26.703125 
z
" id="DejaVuSans-52"/>
      </defs>
      <g transform="translate(626.745042 655.398438)scale(0.1 -0.1)">
       <use xlink:href="#DejaVuSans-52"/>
       <use x="63.623047" xlink:href="#DejaVuSans-48"/>
       <use x="127.246094" xlink:href="#DejaVuSans-48"/>
       <use x="190.869141" xlink:href="#DejaVuSans-46"/>
       <use x="222.65625" xlink:href="#DejaVuSans-48"/>
      </g>
     </g>
    </g>
    <g id="xtick_5">
     <g id="line2d_5">
      <g>
       <use style="stroke:#000000;stroke-width:0.8;" x="743.642063" xlink:href="#m14ccbcd4dd" y="640.8"/>
      </g>
     </g>
     <g id="text_5">
      <!-- 500.0 -->
      <defs>
       <path d="M 10.796875 72.90625 
L 49.515625 72.90625 
L 49.515625 64.59375 
L 19.828125 64.59375 
L 19.828125 46.734375 
Q 21.96875 47.46875 24.109375 47.828125 
Q 26.265625 48.1875 28.421875 48.1875 
Q 40.625 48.1875 47.75 41.5 
Q 54.890625 34.8125 54.890625 23.390625 
Q 54.890625 11.625 47.5625 5.09375 
Q 40.234375 -1.421875 26.90625 -1.421875 
Q 22.3125 -1.421875 17.546875 -0.640625 
Q 12.796875 0.140625 7.71875 1.703125 
L 7.71875 11.625 
Q 12.109375 9.234375 16.796875 8.0625 
Q 21.484375 6.890625 26.703125 6.890625 
Q 35.15625 6.890625 40.078125 11.328125 
Q 45.015625 15.765625 45.015625 23.390625 
Q 45.015625 31 40.078125 35.4375 
Q 35.15625 39.890625 26.703125 39.890625 
Q 22.75 39.890625 18.8125 39.015625 
Q 14.890625 38.140625 10.796875 36.28125 
z
" id="DejaVuSans-53"/>
      </defs>
      <g transform="translate(729.328 655.398438)scale(0.1 -0.1)">
       <use xlink:href="#DejaVuSans-53"/>
       <use x="63.623047" xlink:href="#DejaVuSans-48"/>
       <use x="127.246094" xlink:href="#DejaVuSans-48"/>
       <use x="190.869141" xlink:href="#DejaVuSans-46"/>
       <use x="222.65625" xlink:href="#DejaVuSans-48"/>
      </g>
     </g>
    </g>
    <g id="xtick_6">
     <g id="line2d_6">
      <g>
       <use style="stroke:#000000;stroke-width:0.8;" x="846.225021" xlink:href="#m14ccbcd4dd" y="640.8"/>
      </g>
     </g>
     <g id="text_6">
      <!-- 600.0 -->
      <defs>
       <path d="M 33.015625 40.375 
Q 26.375 40.375 22.484375 35.828125 
Q 18.609375 31.296875 18.609375 23.390625 
Q 18.609375 15.53125 22.484375 10.953125 
Q 26.375 6.390625 33.015625 6.390625 
Q 39.65625 6.390625 43.53125 10.953125 
Q 47.40625 15.53125 47.40625 23.390625 
Q 47.40625 31.296875 43.53125 35.828125 
Q 39.65625 40.375 33.015625 40.375 
z
M 52.59375 71.296875 
L 52.59375 62.3125 
Q 48.875 64.0625 45.09375 64.984375 
Q 41.3125 65.921875 37.59375 65.921875 
Q 27.828125 65.921875 22.671875 59.328125 
Q 17.53125 52.734375 16.796875 39.40625 
Q 19.671875 43.65625 24.015625 45.921875 
Q 28.375 48.1875 33.59375 48.1875 
Q 44.578125 48.1875 50.953125 41.515625 
Q 57.328125 34.859375 57.328125 23.390625 
Q 57.328125 12.15625 50.6875 5.359375 
Q 44.046875 -1.421875 33.015625 -1.421875 
Q 20.359375 -1.421875 13.671875 8.265625 
Q 6.984375 17.96875 6.984375 36.375 
Q 6.984375 53.65625 15.1875 63.9375 
Q 23.390625 74.21875 37.203125 74.21875 
Q 40.921875 74.21875 44.703125 73.484375 
Q 48.484375 72.75 52.59375 71.296875 
z
" id="DejaVuSans-54"/>
      </defs>
      <g transform="translate(831.910958 655.398438)scale(0.1 -0.1)">
       <use xlink:href="#DejaVuSans-54"/>
       <use x="63.623047" xlink:href="#DejaVuSans-48"/>
       <use x="127.246094" xlink:href="#DejaVuSans-48"/>
       <use x="190.869141" xlink:href="#DejaVuSans-46"/>
       <use x="222.65625" xlink:href="#DejaVuSans-48"/>
      </g>
     </g>
    </g>
    <g id="xtick_7">
     <g id="line2d_7">
      <g>
       <use style="stroke:#000000;stroke-width:0.8;" x="948.807979" xlink:href="#m14ccbcd4dd" y="640.8"/>
      </g>
     </g>
     <g id="text_7">
      <!-- 700.0 -->
      <defs>
       <path d="M 8.203125 72.90625 
L 55.078125 72.90625 
L 55.078125 68.703125 
L 28.609375 0 
L 18.3125 0 
L 43.21875 64.59375 
L 8.203125 64.59375 
z
" id="DejaVuSans-55"/>
      </defs>
      <g transform="translate(934.493916 655.398438)scale(0.1 -0.1)">
       <use xlink:href="#DejaVuSans-55"/>
       <use x="63.623047" xlink:href="#DejaVuSans-48"/>
       <use x="127.246094" xlink:href="#DejaVuSans-48"/>
       <use x="190.869141" xlink:href="#DejaVuSans-46"/>
       <use x="222.65625" xlink:href="#DejaVuSans-48"/>
      </g>
     </g>
    </g>
    <g id="xtick_8">
     <g id="line2d_8">
      <g>
       <use style="stroke:#000000;stroke-width:0.8;" x="1051.390937" xlink:href="#m14ccbcd4dd" y="640.8"/>
      </g>
     </g>
     <g id="text_8">
      <!-- 800.0 -->
      <defs>
       <path d="M 31.78125 34.625 
Q 24.75 34.625 20.71875 30.859375 
Q 16.703125 27.09375 16.703125 20.515625 
Q 16.703125 13.921875 20.71875 10.15625 
Q 24.75 6.390625 31.78125 6.390625 
Q 38.8125 6.390625 42.859375 10.171875 
Q 46.921875 13.96875 46.921875 20.515625 
Q 46.921875 27.09375 42.890625 30.859375 
Q 38.875 34.625 31.78125 34.625 
z
M 21.921875 38.8125 
Q 15.578125 40.375 12.03125 44.71875 
Q 8.5 49.078125 8.5 55.328125 
Q 8.5 64.0625 14.71875 69.140625 
Q 20.953125 74.21875 31.78125 74.21875 
Q 42.671875 74.21875 48.875 69.140625 
Q 55.078125 64.0625 55.078125 55.328125 
Q 55.078125 49.078125 51.53125 44.71875 
Q 48 40.375 41.703125 38.8125 
Q 48.828125 37.15625 52.796875 32.3125 
Q 56.78125 27.484375 56.78125 20.515625 
Q 56.78125 9.90625 50.3125 4.234375 
Q 43.84375 -1.421875 31.78125 -1.421875 
Q 19.734375 -1.421875 13.25 4.234375 
Q 6.78125 9.90625 6.78125 20.515625 
Q 6.78125 27.484375 10.78125 32.3125 
Q 14.796875 37.15625 21.921875 38.8125 
z
M 18.3125 54.390625 
Q 18.3125 48.734375 21.84375 45.5625 
Q 25.390625 42.390625 31.78125 42.390625 
Q 38.140625 42.390625 41.71875 45.5625 
Q 45.3125 48.734375 45.3125 54.390625 
Q 45.3125 60.0625 41.71875 63.234375 
Q 38.140625 66.40625 31.78125 66.40625 
Q 25.390625 66.40625 21.84375 63.234375 
Q 18.3125 60.0625 18.3125 54.390625 
z
" id="DejaVuSans-56"/>
      </defs>
      <g transform="translate(1037.076874 655.398438)scale(0.1 -0.1)">
       <use xlink:href="#DejaVuSans-56"/>
       <use x="63.623047" xlink:href="#DejaVuSans-48"/>
       <use x="127.246094" xlink:href="#DejaVuSans-48"/>
       <use x="190.869141" xlink:href="#DejaVuSans-46"/>
       <use x="222.65625" xlink:href="#DejaVuSans-48"/>
      </g>
     </g>
    </g>
    <g id="xtick_9">
     <g id="line2d_9">
      <g>
       <use style="stroke:#000000;stroke-width:0.8;" x="1153.973895" xlink:href="#m14ccbcd4dd" y="640.8"/>
      </g>
     </g>
     <g id="text_9">
      <!-- 900.0 -->
      <defs>
       <path d="M 10.984375 1.515625 
L 10.984375 10.5 
Q 14.703125 8.734375 18.5 7.8125 
Q 22.3125 6.890625 25.984375 6.890625 
Q 35.75 6.890625 40.890625 13.453125 
Q 46.046875 20.015625 46.78125 33.40625 
Q 43.953125 29.203125 39.59375 26.953125 
Q 35.25 24.703125 29.984375 24.703125 
Q 19.046875 24.703125 12.671875 31.3125 
Q 6.296875 37.9375 6.296875 49.421875 
Q 6.296875 60.640625 12.9375 67.421875 
Q 19.578125 74.21875 30.609375 74.21875 
Q 43.265625 74.21875 49.921875 64.515625 
Q 56.59375 54.828125 56.59375 36.375 
Q 56.59375 19.140625 48.40625 8.859375 
Q 40.234375 -1.421875 26.421875 -1.421875 
Q 22.703125 -1.421875 18.890625 -0.6875 
Q 15.09375 0.046875 10.984375 1.515625 
z
M 30.609375 32.421875 
Q 37.25 32.421875 41.125 36.953125 
Q 45.015625 41.5 45.015625 49.421875 
Q 45.015625 57.28125 41.125 61.84375 
Q 37.25 66.40625 30.609375 66.40625 
Q 23.96875 66.40625 20.09375 61.84375 
Q 16.21875 57.28125 16.21875 49.421875 
Q 16.21875 41.5 20.09375 36.953125 
Q 23.96875 32.421875 30.609375 32.421875 
z
" id="DejaVuSans-57"/>
      </defs>
      <g transform="translate(1139.659832 655.398438)scale(0.1 -0.1)">
       <use xlink:href="#DejaVuSans-57"/>
       <use x="63.623047" xlink:href="#DejaVuSans-48"/>
       <use x="127.246094" xlink:href="#DejaVuSans-48"/>
       <use x="190.869141" xlink:href="#DejaVuSans-46"/>
       <use x="222.65625" xlink:href="#DejaVuSans-48"/>
      </g>
     </g>
    </g>
    <g id="xtick_10">
     <g id="line2d_10">
      <g>
       <use style="stroke:#000000;stroke-width:0.8;" x="1256.556853" xlink:href="#m14ccbcd4dd" y="640.8"/>
      </g>
     </g>
     <g id="text_10">
      <!-- 1000.0 -->
      <g transform="translate(1239.06154 655.398438)scale(0.1 -0.1)">
       <use xlink:href="#DejaVuSans-49"/>
       <use x="63.623047" xlink:href="#DejaVuSans-48"/>
       <use x="127.246094" xlink:href="#DejaVuSans-48"/>
       <use x="190.869141" xlink:href="#DejaVuSans-48"/>
       <use x="254.492188" xlink:href="#DejaVuSans-46"/>
       <use x="286.279297" xlink:href="#DejaVuSans-48"/>
      </g>
     </g>
    </g>
    <g id="text_11">
     <!-- n -->
     <defs>
      <path d="M 54.890625 33.015625 
L 54.890625 0 
L 45.90625 0 
L 45.90625 32.71875 
Q 45.90625 40.484375 42.875 44.328125 
Q 39.84375 48.1875 33.796875 48.1875 
Q 26.515625 48.1875 22.3125 43.546875 
Q 18.109375 38.921875 18.109375 30.90625 
L 18.109375 0 
L 9.078125 0 
L 9.078125 54.6875 
L 18.109375 54.6875 
L 18.109375 46.1875 
Q 21.34375 51.125 25.703125 53.5625 
Q 30.078125 56 35.796875 56 
Q 45.21875 56 50.046875 50.171875 
Q 54.890625 44.34375 54.890625 33.015625 
z
" id="DejaVuSans-110"/>
     </defs>
     <g transform="translate(734.83125 669.076563)scale(0.1 -0.1)">
      <use xlink:href="#DejaVuSans-110"/>
     </g>
    </g>
   </g>
   <g id="matplotlib.axis_2">
    <g id="ytick_1">
     <g id="line2d_11">
      <defs>
       <path d="M 0 0 
L -3.5 0 
" id="m016dc3c564" style="stroke:#000000;stroke-width:0.8;"/>
      </defs>
      <g>
       <use style="stroke:#000000;stroke-width:0.8;" x="180" xlink:href="#m016dc3c564" y="620.151104"/>
      </g>
     </g>
     <g id="text_12">
      <!-- 0 -->
      <g transform="translate(166.6375 623.950323)scale(0.1 -0.1)">
       <use xlink:href="#DejaVuSans-48"/>
      </g>
     </g>
    </g>
    <g id="ytick_2">
     <g id="line2d_12">
      <g>
       <use style="stroke:#000000;stroke-width:0.8;" x="180" xlink:href="#m016dc3c564" y="548.973264"/>
      </g>
     </g>
     <g id="text_13">
      <!-- 25 -->
      <g transform="translate(160.275 552.772483)scale(0.1 -0.1)">
       <use xlink:href="#DejaVuSans-50"/>
       <use x="63.623047" xlink:href="#DejaVuSans-53"/>
      </g>
     </g>
    </g>
    <g id="ytick_3">
     <g id="line2d_13">
      <g>
       <use style="stroke:#000000;stroke-width:0.8;" x="180" xlink:href="#m016dc3c564" y="477.795425"/>
      </g>
     </g>
     <g id="text_14">
      <!-- 50 -->
      <g transform="translate(160.275 481.594643)scale(0.1 -0.1)">
       <use xlink:href="#DejaVuSans-53"/>
       <use x="63.623047" xlink:href="#DejaVuSans-48"/>
      </g>
     </g>
    </g>
    <g id="ytick_4">
     <g id="line2d_14">
      <g>
       <use style="stroke:#000000;stroke-width:0.8;" x="180" xlink:href="#m016dc3c564" y="406.617585"/>
      </g>
     </g>
     <g id="text_15">
      <!-- 75 -->
      <g transform="translate(160.275 410.416804)scale(0.1 -0.1)">
       <use xlink:href="#DejaVuSans-55"/>
       <use x="63.623047" xlink:href="#DejaVuSans-53"/>
      </g>
     </g>
    </g>
    <g id="ytick_5">
     <g id="line2d_15">
      <g>
       <use style="stroke:#000000;stroke-width:0.8;" x="180" xlink:href="#m016dc3c564" y="335.439745"/>
      </g>
     </g>
     <g id="text_16">
      <!-- 100 -->
      <g transform="translate(153.9125 339.238964)scale(0.1 -0.1)">
       <use xlink:href="#DejaVuSans-49"/>
       <use x="63.623047" xlink:href="#DejaVuSans-48"/>
       <use x="127.246094" xlink:href="#DejaVuSans-48"/>
      </g>
     </g>
    </g>
    <g id="ytick_6">
     <g id="line2d_16">
      <g>
       <use style="stroke:#000000;stroke-width:0.8;" x="180" xlink:href="#m016dc3c564" y="264.261905"/>
      </g>
     </g>
     <g id="text_17">
      <!-- 125 -->
      <g transform="translate(153.9125 268.061124)scale(0.1 -0.1)">
       <use xlink:href="#DejaVuSans-49"/>
       <use x="63.623047" xlink:href="#DejaVuSans-50"/>
       <use x="127.246094" xlink:href="#DejaVuSans-53"/>
      </g>
     </g>
    </g>
    <g id="ytick_7">
     <g id="line2d_17">
      <g>
       <use style="stroke:#000000;stroke-width:0.8;" x="180" xlink:href="#m016dc3c564" y="193.084066"/>
      </g>
     </g>
     <g id="text_18">
      <!-- 150 -->
      <g transform="translate(153.9125 196.883284)scale(0.1 -0.1)">
       <use xlink:href="#DejaVuSans-49"/>
       <use x="63.623047" xlink:href="#DejaVuSans-53"/>
       <use x="127.246094" xlink:href="#DejaVuSans-48"/>
      </g>
     </g>
    </g>
    <g id="ytick_8">
     <g id="line2d_18">
      <g>
       <use style="stroke:#000000;stroke-width:0.8;" x="180" xlink:href="#m016dc3c564" y="121.906226"/>
      </g>
     </g>
     <g id="text_19">
      <!-- 175 -->
      <g transform="translate(153.9125 125.705445)scale(0.1 -0.1)">
       <use xlink:href="#DejaVuSans-49"/>
       <use x="63.623047" xlink:href="#DejaVuSans-55"/>
       <use x="127.246094" xlink:href="#DejaVuSans-53"/>
      </g>
     </g>
    </g>
    <g id="text_20">
     <!-- speedup -->
     <defs>
      <path d="M 44.28125 53.078125 
L 44.28125 44.578125 
Q 40.484375 46.53125 36.375 47.5 
Q 32.28125 48.484375 27.875 48.484375 
Q 21.1875 48.484375 17.84375 46.4375 
Q 14.5 44.390625 14.5 40.28125 
Q 14.5 37.15625 16.890625 35.375 
Q 19.28125 33.59375 26.515625 31.984375 
L 29.59375 31.296875 
Q 39.15625 29.25 43.1875 25.515625 
Q 47.21875 21.78125 47.21875 15.09375 
Q 47.21875 7.46875 41.1875 3.015625 
Q 35.15625 -1.421875 24.609375 -1.421875 
Q 20.21875 -1.421875 15.453125 -0.5625 
Q 10.6875 0.296875 5.421875 2 
L 5.421875 11.28125 
Q 10.40625 8.6875 15.234375 7.390625 
Q 20.0625 6.109375 24.8125 6.109375 
Q 31.15625 6.109375 34.5625 8.28125 
Q 37.984375 10.453125 37.984375 14.40625 
Q 37.984375 18.0625 35.515625 20.015625 
Q 33.0625 21.96875 24.703125 23.78125 
L 21.578125 24.515625 
Q 13.234375 26.265625 9.515625 29.90625 
Q 5.8125 33.546875 5.8125 39.890625 
Q 5.8125 47.609375 11.28125 51.796875 
Q 16.75 56 26.8125 56 
Q 31.78125 56 36.171875 55.265625 
Q 40.578125 54.546875 44.28125 53.078125 
z
" id="DejaVuSans-115"/>
      <path d="M 18.109375 8.203125 
L 18.109375 -20.796875 
L 9.078125 -20.796875 
L 9.078125 54.6875 
L 18.109375 54.6875 
L 18.109375 46.390625 
Q 20.953125 51.265625 25.265625 53.625 
Q 29.59375 56 35.59375 56 
Q 45.5625 56 51.78125 48.09375 
Q 58.015625 40.1875 58.015625 27.296875 
Q 58.015625 14.40625 51.78125 6.484375 
Q 45.5625 -1.421875 35.59375 -1.421875 
Q 29.59375 -1.421875 25.265625 0.953125 
Q 20.953125 3.328125 18.109375 8.203125 
z
M 48.6875 27.296875 
Q 48.6875 37.203125 44.609375 42.84375 
Q 40.53125 48.484375 33.40625 48.484375 
Q 26.265625 48.484375 22.1875 42.84375 
Q 18.109375 37.203125 18.109375 27.296875 
Q 18.109375 17.390625 22.1875 11.75 
Q 26.265625 6.109375 33.40625 6.109375 
Q 40.53125 6.109375 44.609375 11.75 
Q 48.6875 17.390625 48.6875 27.296875 
z
" id="DejaVuSans-112"/>
      <path d="M 56.203125 29.59375 
L 56.203125 25.203125 
L 14.890625 25.203125 
Q 15.484375 15.921875 20.484375 11.0625 
Q 25.484375 6.203125 34.421875 6.203125 
Q 39.59375 6.203125 44.453125 7.46875 
Q 49.3125 8.734375 54.109375 11.28125 
L 54.109375 2.78125 
Q 49.265625 0.734375 44.1875 -0.34375 
Q 39.109375 -1.421875 33.890625 -1.421875 
Q 20.796875 -1.421875 13.15625 6.1875 
Q 5.515625 13.8125 5.515625 26.8125 
Q 5.515625 40.234375 12.765625 48.109375 
Q 20.015625 56 32.328125 56 
Q 43.359375 56 49.78125 48.890625 
Q 56.203125 41.796875 56.203125 29.59375 
z
M 47.21875 32.234375 
Q 47.125 39.59375 43.09375 43.984375 
Q 39.0625 48.390625 32.421875 48.390625 
Q 24.90625 48.390625 20.390625 44.140625 
Q 15.875 39.890625 15.1875 32.171875 
z
" id="DejaVuSans-101"/>
      <path d="M 45.40625 46.390625 
L 45.40625 75.984375 
L 54.390625 75.984375 
L 54.390625 0 
L 45.40625 0 
L 45.40625 8.203125 
Q 42.578125 3.328125 38.25 0.953125 
Q 33.9375 -1.421875 27.875 -1.421875 
Q 17.96875 -1.421875 11.734375 6.484375 
Q 5.515625 14.40625 5.515625 27.296875 
Q 5.515625 40.1875 11.734375 48.09375 
Q 17.96875 56 27.875 56 
Q 33.9375 56 38.25 53.625 
Q 42.578125 51.265625 45.40625 46.390625 
z
M 14.796875 27.296875 
Q 14.796875 17.390625 18.875 11.75 
Q 22.953125 6.109375 30.078125 6.109375 
Q 37.203125 6.109375 41.296875 11.75 
Q 45.40625 17.390625 45.40625 27.296875 
Q 45.40625 37.203125 41.296875 42.84375 
Q 37.203125 48.484375 30.078125 48.484375 
Q 22.953125 48.484375 18.875 42.84375 
Q 14.796875 37.203125 14.796875 27.296875 
z
" id="DejaVuSans-100"/>
      <path d="M 8.5 21.578125 
L 8.5 54.6875 
L 17.484375 54.6875 
L 17.484375 21.921875 
Q 17.484375 14.15625 20.5 10.265625 
Q 23.53125 6.390625 29.59375 6.390625 
Q 36.859375 6.390625 41.078125 11.03125 
Q 45.3125 15.671875 45.3125 23.6875 
L 45.3125 54.6875 
L 54.296875 54.6875 
L 54.296875 0 
L 45.3125 0 
L 45.3125 8.40625 
Q 42.046875 3.421875 37.71875 1 
Q 33.40625 -1.421875 27.6875 -1.421875 
Q 18.265625 -1.421875 13.375 4.4375 
Q 8.5 10.296875 8.5 21.578125 
z
M 31.109375 56 
z
" id="DejaVuSans-117"/>
     </defs>
     <g transform="translate(147.832812 385.049219)rotate(-90)scale(0.1 -0.1)">
      <use xlink:href="#DejaVuSans-115"/>
      <use x="52.099609" xlink:href="#DejaVuSans-112"/>
      <use x="115.576172" xlink:href="#DejaVuSans-101"/>
      <use x="177.099609" xlink:href="#DejaVuSans-101"/>
      <use x="238.623047" xlink:href="#DejaVuSans-100"/>
      <use x="302.099609" xlink:href="#DejaVuSans-117"/>
      <use x="365.478516" xlink:href="#DejaVuSans-112"/>
     </g>
    </g>
   </g>
   <g id="line2d_19">
    <path clip-path="url(#pd6029a3fa7)" d="M 230.727273 231.536694 
L 231.753102 293.593962 
L 232.778932 204.335237 
L 233.804761 337.951601 
L 234.830591 347.755765 
L 235.856421 359.074378 
L 236.88225 237.264122 
L 237.90808 274.436265 
L 238.933909 277.169241 
L 239.959739 296.816513 
L 240.985569 295.94464 
L 242.011398 313.907497 
L 243.037228 293.12396 
L 244.063057 384.536447 
L 245.088887 306.129911 
L 246.114716 323.317562 
L 247.140546 355.65584 
L 248.166376 350.39374 
L 249.192205 438.903419 
L 250.218035 330.488419 
L 251.243864 328.079219 
L 252.269694 346.488521 
L 253.295523 377.758905 
L 254.321353 359.926537 
L 255.347183 352.457041 
L 256.373012 401.727436 
L 257.398842 370.251732 
L 258.424671 393.081735 
L 259.450501 385.254718 
L 260.476331 381.99013 
L 261.50216 386.981333 
L 262.52799 403.312974 
L 263.553819 469.365977 
L 264.579649 440.415112 
L 265.605478 396.854058 
L 266.631308 400.338804 
L 267.657138 420.061654 
L 268.682967 407.790661 
L 269.708797 414.081806 
L 270.734626 428.652596 
L 271.760456 434.679922 
L 272.786286 436.87812 
L 273.812115 428.366742 
L 274.837945 427.081163 
L 275.863774 436.693365 
L 276.889604 480.235165 
L 277.915433 450.091289 
L 278.941263 441.553899 
L 279.967093 463.004246 
L 280.992922 434.467748 
L 282.018752 456.024984 
L 283.044581 457.285128 
L 284.070411 463.077057 
L 285.09624 462.800479 
L 286.12207 461.369684 
L 287.1479 465.167661 
L 288.173729 464.804516 
L 289.199559 462.564023 
L 290.225388 465.406708 
L 291.251218 460.765182 
L 292.277048 488.372662 
L 293.302877 469.803101 
L 294.328707 467.138092 
L 295.354536 481.53961 
L 296.380366 467.582084 
L 297.406195 479.803687 
L 298.432025 467.684329 
L 299.457855 470.998346 
L 300.483684 479.114324 
L 301.509514 469.214738 
L 302.535343 481.114321 
L 303.561173 481.855337 
L 304.587002 478.357834 
L 305.612832 486.693968 
L 306.638662 489.482194 
L 307.664491 481.946436 
L 308.690321 488.735137 
L 309.71615 481.979294 
L 310.74198 488.713895 
L 311.76781 487.369378 
L 312.793639 497.197527 
L 313.819469 590.825395 
L 314.845298 591.576121 
L 315.871128 504.3575 
L 316.896957 488.711659 
L 318.948617 498.17965 
L 319.974446 492.197646 
L 321.000276 497.734169 
L 322.026105 593.48501 
L 323.051935 593.512444 
L 324.077765 593.892587 
L 325.103594 497.370352 
L 326.129424 501.892624 
L 327.155253 503.654427 
L 328.181083 503.304926 
L 329.206912 501.899287 
L 330.232742 507.276429 
L 331.258572 508.086538 
L 332.284401 514.089756 
L 333.310231 512.480927 
L 334.33606 509.12241 
L 335.36189 509.74293 
L 336.387719 518.461302 
L 337.413549 510.377465 
L 338.439379 526.231893 
L 339.465208 516.073626 
L 340.491038 515.889877 
L 341.516867 517.303804 
L 342.542697 515.394074 
L 343.568527 519.759476 
L 344.594356 515.93985 
L 345.620186 521.303252 
L 346.646015 520.524502 
L 347.671845 522.122874 
L 348.697674 519.476567 
L 349.723504 516.233118 
L 350.749334 517.027942 
L 351.775163 520.500077 
L 352.800993 520.168844 
L 353.826822 520.474 
L 354.852652 520.509 
L 355.878481 523.176784 
L 356.904311 523.081321 
L 357.930141 522.695215 
L 358.95597 522.149395 
L 359.9818 524.672554 
L 361.007629 525.761188 
L 362.033459 525.021291 
L 363.059289 528.289715 
L 364.085118 525.342838 
L 365.110948 526.138929 
L 366.136777 530.272366 
L 367.162607 533.087814 
L 368.188436 526.748354 
L 369.214266 529.595037 
L 370.240096 534.679238 
L 371.265925 530.296366 
L 372.291755 534.508883 
L 373.317584 534.30573 
L 374.343414 520.063408 
L 375.369243 529.162052 
L 376.395073 536.209666 
L 377.420903 535.109175 
L 378.446732 534.874579 
L 379.472562 532.991474 
L 380.498391 546.898346 
L 381.524221 536.525188 
L 382.550051 534.555446 
L 383.57588 538.654376 
L 384.60171 535.697692 
L 385.627539 536.372873 
L 386.653369 540.485548 
L 387.679198 538.896306 
L 388.705028 541.193563 
L 389.730858 535.841694 
L 390.756687 541.071724 
L 391.782517 540.408138 
L 392.808346 540.137282 
L 393.834176 543.05159 
L 394.860006 540.095111 
L 395.885835 543.869243 
L 396.911665 539.870447 
L 397.937494 540.783279 
L 398.963324 542.242787 
L 399.989153 546.93287 
L 401.014983 545.980529 
L 402.040813 542.53979 
L 403.066642 541.717234 
L 405.118301 542.607905 
L 406.144131 544.690658 
L 407.16996 545.986392 
L 408.19579 545.285576 
L 409.22162 546.233155 
L 410.247449 548.623092 
L 411.273279 546.089259 
L 412.299108 545.73613 
L 413.324938 544.797764 
L 414.350768 545.157273 
L 415.376597 544.380117 
L 416.402427 549.587625 
L 417.428256 548.676317 
L 418.454086 548.912657 
L 419.479915 550.79515 
L 420.505745 548.364258 
L 421.531575 547.511769 
L 422.557404 547.345491 
L 423.583234 552.963926 
L 424.609063 547.071631 
L 425.634893 554.707959 
L 426.660722 551.467675 
L 427.686552 551.043564 
L 428.712382 552.47039 
L 429.738211 551.302948 
L 430.764041 552.451974 
L 431.78987 553.096339 
L 432.8157 553.095953 
L 433.84153 552.550224 
L 434.867359 553.216766 
L 435.893189 551.817933 
L 436.919018 554.842817 
L 437.944848 553.545047 
L 438.970677 553.144528 
L 439.996507 553.492686 
L 441.022337 558.435281 
L 442.048166 558.013899 
L 443.073996 553.688701 
L 444.099825 553.507042 
L 445.125655 556.764956 
L 446.151485 553.900376 
L 447.177314 555.255187 
L 448.203144 555.658154 
L 449.228973 555.537103 
L 450.254803 555.882708 
L 451.280632 554.506435 
L 452.306462 556.705848 
L 453.332292 555.643562 
L 454.358121 555.953848 
L 455.383951 555.798821 
L 456.40978 557.762872 
L 457.43561 557.850471 
L 458.461439 557.290375 
L 459.487269 572.593264 
L 460.513099 558.510471 
L 461.538928 558.570696 
L 462.564758 559.310894 
L 463.590587 558.413005 
L 464.616417 558.43528 
L 465.642247 557.731076 
L 467.693906 559.241947 
L 468.719735 560.316045 
L 469.745565 557.577409 
L 470.771394 557.874793 
L 471.797224 560.064992 
L 472.823054 560.480556 
L 473.848883 561.805406 
L 474.874713 562.115903 
L 476.926372 560.264521 
L 477.952201 560.866109 
L 478.978031 560.213657 
L 481.02969 562.819985 
L 482.05552 571.483475 
L 483.081349 559.356416 
L 484.107179 563.128973 
L 485.133009 563.736972 
L 486.158838 562.729472 
L 487.184668 562.751859 
L 488.210497 561.891961 
L 489.236327 564.824517 
L 490.262156 564.483288 
L 491.287986 563.950971 
L 492.313816 563.697581 
L 493.339645 563.107668 
L 494.365475 555.491235 
L 495.391304 568.684492 
L 496.417134 564.057784 
L 497.442964 563.796753 
L 498.468793 566.716681 
L 499.494623 565.163622 
L 500.520452 565.361465 
L 501.546282 564.243678 
L 502.572111 566.318823 
L 503.597941 565.106196 
L 504.623771 569.112075 
L 505.6496 565.882767 
L 506.67543 567.032787 
L 507.701259 567.978721 
L 508.727089 566.225454 
L 509.752918 566.263922 
L 510.778748 570.306759 
L 511.804578 566.719031 
L 513.856237 566.300171 
L 514.882066 567.81868 
L 515.907896 567.437856 
L 517.959555 567.415722 
L 518.985385 568.042796 
L 520.011214 567.931146 
L 521.037044 576.310345 
L 522.062873 568.44579 
L 523.088703 568.361759 
L 524.114533 567.848628 
L 525.140362 569.991787 
L 526.166192 568.84448 
L 527.192021 569.101472 
L 528.217851 578.75573 
L 529.24368 569.345079 
L 530.26951 572.424501 
L 531.29534 570.560084 
L 532.321169 569.482865 
L 533.346999 570.369558 
L 534.372828 569.113781 
L 535.398658 575.433774 
L 536.424488 570.614494 
L 537.450317 570.876764 
L 538.476147 570.745726 
L 539.501976 570.330135 
L 540.527806 572.852012 
L 541.553635 571.23834 
L 542.579465 573.712963 
L 543.605295 571.232809 
L 544.631124 571.437186 
L 545.656954 572.824867 
L 546.682783 572.784574 
L 547.708613 580.405531 
L 548.734443 570.42 
L 549.760272 570.241511 
L 550.786102 572.171156 
L 551.811931 575.605388 
L 552.837761 573.366797 
L 553.86359 574.173277 
L 554.88942 572.089866 
L 555.91525 572.650802 
L 556.941079 572.660496 
L 557.966909 573.422289 
L 558.992738 572.500869 
L 560.018568 611.009279 
L 561.044397 573.093783 
L 562.070227 571.764959 
L 563.096057 574.677192 
L 564.121886 573.840335 
L 565.147716 573.971331 
L 566.173545 573.526217 
L 567.199375 574.785774 
L 568.225205 572.34409 
L 569.251034 572.52612 
L 570.276864 574.870817 
L 571.302693 574.562881 
L 572.328523 575.30941 
L 573.354352 575.534927 
L 574.380182 574.602094 
L 575.406012 575.196117 
L 576.431841 574.828827 
L 577.457671 575.250969 
L 578.4835 575.468026 
L 579.50933 575.23492 
L 580.535159 587.63101 
L 581.560989 585.7884 
L 582.586819 574.854388 
L 583.612648 576.163474 
L 584.638478 575.52309 
L 585.664307 576.34221 
L 586.690137 576.383027 
L 587.715967 576.616441 
L 589.767626 576.608495 
L 590.793455 576.097186 
L 591.819285 611.681425 
L 594.896774 611.843066 
L 595.922603 576.664424 
L 596.948433 577.454626 
L 597.974262 576.585839 
L 599.000092 577.320031 
L 600.025922 577.179266 
L 601.051751 577.559821 
L 602.077581 578.506436 
L 603.10341 584.465624 
L 604.12924 587.946131 
L 605.155069 584.135143 
L 606.180899 583.760004 
L 607.206729 584.171279 
L 608.232558 578.864121 
L 609.258388 577.696779 
L 610.284217 582.073247 
L 611.310047 584.104579 
L 612.335876 577.05486 
L 613.361706 584.418678 
L 614.387536 578.1632 
L 615.413365 578.118956 
L 616.439195 585.884075 
L 617.465024 574.061822 
L 618.490854 569.837376 
L 619.516684 556.74033 
L 620.542513 582.045262 
L 621.568343 578.421947 
L 622.594172 578.167885 
L 623.620002 578.327797 
L 624.645831 584.539827 
L 625.671661 553.707043 
L 626.697491 578.573076 
L 627.72332 572.11278 
L 628.74915 586.143342 
L 629.774979 611.579971 
L 630.800809 612.04979 
L 631.826638 577.601806 
L 632.852468 610.631067 
L 633.878298 567.02184 
L 634.904127 577.886368 
L 635.929957 576.633048 
L 636.955786 526.419006 
L 637.981616 589.43402 
L 639.007446 580.699715 
L 640.033275 579.756345 
L 641.059105 579.420029 
L 642.084934 590.947678 
L 643.110764 580.560814 
L 644.136593 580.255052 
L 645.162423 580.907335 
L 646.188253 588.419405 
L 647.214082 581.377385 
L 648.239912 579.946777 
L 649.265741 580.022546 
L 650.291571 612.634424 
L 651.3174 581.180241 
L 652.34323 581.07707 
L 653.36906 580.699614 
L 654.394889 580.605649 
L 655.420719 581.231241 
L 656.446548 581.190631 
L 657.472378 581.562366 
L 658.498208 581.664005 
L 659.524037 580.107477 
L 660.549867 581.737328 
L 661.575696 581.559501 
L 662.601526 583.714792 
L 663.627355 581.563346 
L 664.653185 581.902953 
L 667.730674 581.515043 
L 668.756503 581.731736 
L 669.782333 584.316413 
L 670.808163 581.391871 
L 671.833992 581.163656 
L 672.859822 583.051081 
L 673.885651 581.232206 
L 674.911481 584.97563 
L 675.93731 574.262466 
L 676.96314 581.482923 
L 677.98897 585.89894 
L 679.014799 580.644332 
L 680.040629 584.632021 
L 681.066458 579.897572 
L 682.092288 581.251836 
L 683.118117 573.149333 
L 684.143947 580.625732 
L 685.169777 583.482156 
L 686.195606 576.136961 
L 688.247265 586.18794 
L 689.273095 583.757815 
L 690.298925 585.386092 
L 691.324754 582.149202 
L 692.350584 578.445662 
L 693.376413 586.871626 
L 694.402243 578.330928 
L 695.428072 582.624495 
L 696.453902 582.986401 
L 697.479732 580.993417 
L 698.505561 580.390804 
L 699.531391 567.12544 
L 700.55722 590.474209 
L 701.58305 588.318016 
L 702.608879 572.16431 
L 703.634709 570.241326 
L 704.660539 567.056061 
L 705.686368 588.105904 
L 706.712198 567.718146 
L 707.738027 589.038093 
L 708.763857 571.570489 
L 709.789687 563.316299 
L 710.815516 569.147321 
L 711.841346 582.849318 
L 712.867175 585.938672 
L 713.893005 579.230144 
L 715.944664 568.89397 
L 716.970494 590.913113 
L 717.996323 585.381563 
L 719.022153 582.895721 
L 720.047982 583.006852 
L 721.073812 585.134884 
L 722.099642 585.69435 
L 723.125471 583.62573 
L 724.151301 585.131326 
L 725.17713 585.656534 
L 726.20296 585.821627 
L 727.228789 584.261806 
L 728.254619 586.516791 
L 729.280449 587.107012 
L 730.306278 586.560804 
L 731.332108 584.203893 
L 732.357937 613.023292 
L 733.383767 586.578113 
L 735.435426 585.024703 
L 736.461256 586.346896 
L 737.487085 586.086389 
L 738.512915 585.498292 
L 739.538744 585.960355 
L 740.564574 585.10912 
L 741.590404 586.54144 
L 742.616233 585.97437 
L 743.642063 587.607129 
L 744.667892 586.899081 
L 745.693722 591.561495 
L 746.719551 586.319172 
L 747.745381 587.121356 
L 748.771211 586.458597 
L 749.79704 587.395793 
L 750.82287 586.486249 
L 751.848699 588.223671 
L 752.874529 589.517243 
L 753.900358 587.384926 
L 754.926188 586.877693 
L 755.952018 587.625684 
L 756.977847 586.847939 
L 758.003677 587.754886 
L 759.029506 586.772087 
L 760.055336 587.439086 
L 761.081166 586.185602 
L 762.106995 587.561112 
L 763.132825 586.403146 
L 764.158654 588.31671 
L 765.184484 586.600101 
L 766.210313 587.694236 
L 767.236143 587.728708 
L 768.261973 588.155072 
L 769.287802 586.838012 
L 770.313632 586.693895 
L 771.339461 588.078618 
L 772.365291 590.093218 
L 773.391121 586.362443 
L 775.44278 588.283128 
L 776.468609 586.036421 
L 777.494439 588.871336 
L 778.520268 588.238662 
L 779.546098 588.650586 
L 780.571928 588.336822 
L 781.597757 579.372578 
L 782.623587 587.766212 
L 783.649416 588.706649 
L 784.675246 587.801272 
L 785.701075 581.182821 
L 786.726905 588.217031 
L 787.752735 588.960079 
L 788.778564 588.268436 
L 789.804394 587.754241 
L 790.830223 589.886388 
L 791.856053 589.105169 
L 792.881883 589.231833 
L 793.907712 585.534791 
L 794.933542 588.719287 
L 795.959371 588.859034 
L 796.985201 585.702884 
L 798.01103 597.326654 
L 799.03686 589.361613 
L 800.06269 589.88278 
L 801.088519 582.175823 
L 802.114349 589.663224 
L 803.140178 589.445619 
L 804.166008 589.015247 
L 805.191837 581.071101 
L 806.217667 589.365493 
L 807.243497 589.411068 
L 808.269326 590.109691 
L 809.295156 595.920784 
L 810.320985 590.832886 
L 811.346815 592.147751 
L 812.372645 587.331742 
L 813.398474 589.496777 
L 814.424304 589.811158 
L 815.450133 589.405839 
L 816.475963 584.020967 
L 817.501792 596.356062 
L 818.527622 589.419133 
L 819.553452 589.716781 
L 820.579281 600.484724 
L 821.605111 590.081422 
L 822.63094 589.93792 
L 823.65677 583.520722 
L 824.6826 589.587775 
L 825.708429 590.392367 
L 826.734259 590.203935 
L 827.760088 581.695954 
L 828.785918 590.353914 
L 829.811747 590.440943 
L 830.837577 591.233118 
L 831.863407 597.736171 
L 832.889236 590.744437 
L 833.915066 590.656327 
L 834.940895 586.578416 
L 835.966725 591.495475 
L 836.992554 590.340111 
L 838.018384 590.906585 
L 839.044214 581.470965 
L 840.070043 593.321664 
L 841.095873 590.736198 
L 842.121702 590.629691 
L 843.147532 598.004037 
L 844.173362 590.956862 
L 845.199191 591.079678 
L 846.225021 587.625961 
L 847.25085 591.061996 
L 848.27668 591.684114 
L 849.302509 593.280749 
L 850.328339 582.455092 
L 851.354169 591.31968 
L 852.379998 590.911211 
L 853.405828 592.027408 
L 854.431657 597.792362 
L 855.457487 591.357904 
L 856.483316 591.555532 
L 857.509146 589.036539 
L 858.534976 590.985663 
L 859.560805 591.093143 
L 860.586635 590.704036 
L 861.612464 584.92971 
L 862.638294 592.482602 
L 863.664124 590.786417 
L 864.689953 591.30799 
L 865.715783 590.480846 
L 866.741612 591.650569 
L 867.767442 591.874138 
L 868.793271 584.067245 
L 869.819101 584.470254 
L 870.844931 591.791797 
L 871.87076 588.501689 
L 872.89659 592.520123 
L 873.922419 592.34758 
L 874.948249 591.637761 
L 875.974078 581.260072 
L 876.999908 587.156053 
L 878.025738 592.173169 
L 879.051567 587.906442 
L 880.077397 593.57968 
L 881.103226 592.079104 
L 882.129056 591.624618 
L 883.154886 581.854854 
L 884.180715 592.006754 
L 885.206545 592.035154 
L 886.232374 588.366604 
L 887.258204 594.905335 
L 888.284033 592.954702 
L 889.309863 592.296927 
L 890.335693 586.497523 
L 891.361522 592.464756 
L 892.387352 592.709626 
L 893.413181 593.734858 
L 894.439011 590.910256 
L 895.464841 592.435153 
L 896.49067 592.943268 
L 897.5165 595.157801 
L 898.542329 592.841256 
L 899.568159 592.79748 
L 900.593988 583.606826 
L 901.619818 595.010227 
L 902.645648 592.839616 
L 903.671477 593.213192 
L 904.697307 581.876517 
L 905.723136 593.549465 
L 906.748966 592.799079 
L 907.774795 584.554004 
L 908.800625 592.273045 
L 909.826455 592.840183 
L 910.852284 592.998844 
L 911.878114 600.737729 
L 912.903943 593.313096 
L 913.929773 592.179498 
L 914.955603 584.283287 
L 915.981432 593.235041 
L 917.007262 593.310006 
L 918.033091 589.888881 
L 919.058921 592.477501 
L 920.08475 593.376739 
L 921.11058 593.062146 
L 922.13641 592.512951 
L 923.162239 592.975167 
L 924.188069 594.26611 
L 925.213898 593.335197 
L 926.239728 590.929937 
L 927.265557 593.665775 
L 928.291387 593.416098 
L 929.317217 593.650371 
L 930.343046 593.110868 
L 931.368876 594.182161 
L 932.394705 593.418205 
L 935.472194 593.575127 
L 936.498024 593.891651 
L 937.523853 598.033918 
L 938.549683 593.719867 
L 939.575512 593.906735 
L 940.601342 593.654838 
L 941.627172 594.25185 
L 942.653001 593.885593 
L 944.70466 593.744629 
L 945.73049 594.163241 
L 946.75632 593.639259 
L 948.807979 593.707033 
L 949.833808 593.963826 
L 950.859638 594.923933 
L 951.885467 593.404826 
L 952.911297 594.164416 
L 953.937127 594.748661 
L 954.962956 596.774204 
L 955.988786 601.321385 
L 957.014615 594.110535 
L 958.040445 594.276265 
L 959.066274 590.579035 
L 960.092104 594.125946 
L 961.117934 594.258774 
L 962.143763 594.976045 
L 963.169593 601.100546 
L 964.195422 594.342723 
L 965.221252 594.520315 
L 966.247082 590.979504 
L 967.272911 595.294392 
L 968.298741 594.819601 
L 969.32457 594.473944 
L 971.376229 593.270572 
L 972.402059 594.861834 
L 973.427889 593.827559 
L 975.479548 594.406895 
L 976.505377 594.407266 
L 977.531207 595.483451 
L 978.557036 594.413953 
L 979.582866 594.566606 
L 980.608696 591.997623 
L 981.634525 615.343011 
L 982.660355 595.12322 
L 983.686184 591.733088 
L 984.712014 594.07787 
L 985.737844 595.700388 
L 986.763673 594.615592 
L 987.789503 592.027237 
L 988.815332 595.113734 
L 989.841162 594.762305 
L 990.866991 592.999872 
L 991.892821 594.198422 
L 992.918651 594.976983 
L 993.94448 595.296654 
L 995.996139 595.041468 
L 997.021969 595.277523 
L 998.047799 592.104087 
L 999.073628 595.593603 
L 1000.099458 595.056844 
L 1001.125287 592.641738 
L 1002.151117 594.891827 
L 1004.202776 594.836838 
L 1005.228606 594.463499 
L 1006.254435 595.385874 
L 1007.280265 595.625332 
L 1008.306094 592.51316 
L 1009.331924 594.957359 
L 1010.357753 595.593641 
L 1011.383583 593.207236 
L 1012.409413 596.449712 
L 1013.435242 595.853227 
L 1014.461072 592.841592 
L 1015.486901 595.13771 
L 1016.512731 595.461693 
L 1017.538561 595.378907 
L 1018.56439 593.359647 
L 1019.59022 595.941519 
L 1020.616049 595.839512 
L 1021.641879 597.684057 
L 1022.667708 596.023933 
L 1023.693538 596.947557 
L 1024.719368 592.450113 
L 1025.745197 595.896083 
L 1026.771027 596.110791 
L 1027.796856 595.022871 
L 1028.822686 595.494339 
L 1029.848515 595.726264 
L 1030.874345 596.403836 
L 1031.900175 615.516658 
L 1032.926004 596.465602 
L 1033.951834 595.949578 
L 1034.977663 592.401217 
L 1036.003493 596.232841 
L 1037.029323 615.542235 
L 1038.055152 615.568526 
L 1039.080982 595.972965 
L 1040.106811 596.377959 
L 1041.132641 592.671086 
L 1042.15847 596.401355 
L 1043.1843 596.195988 
L 1044.21013 593.481245 
L 1045.235959 595.620387 
L 1046.261789 596.448693 
L 1047.287618 615.127051 
L 1048.313448 596.67897 
L 1049.339278 595.62822 
L 1050.365107 594.404148 
L 1051.390937 595.347321 
L 1052.416766 596.507173 
L 1053.442596 596.119669 
L 1054.468425 593.975966 
L 1055.494255 595.911584 
L 1056.520085 596.751752 
L 1057.545914 594.233587 
L 1058.571744 596.411905 
L 1059.597573 596.60796 
L 1060.623403 595.924757 
L 1062.675062 596.436631 
L 1063.700892 596.671911 
L 1064.726721 596.277415 
L 1066.77838 596.649431 
L 1067.80421 596.426077 
L 1068.83004 597.140372 
L 1069.855869 595.205151 
L 1070.881699 596.101035 
L 1071.907528 595.892515 
L 1072.933358 596.931763 
L 1073.959187 615.17121 
L 1074.985017 596.928397 
L 1076.010847 597.045197 
L 1077.036676 615.214584 
L 1078.062506 596.723624 
L 1079.088335 597.21804 
L 1080.114165 595.266284 
L 1081.139994 596.658676 
L 1082.165824 596.886367 
L 1083.191654 594.827254 
L 1084.217483 596.372193 
L 1085.243313 596.627344 
L 1086.269142 597.584596 
L 1087.294972 596.622764 
L 1089.346631 597.211846 
L 1090.372461 594.191347 
L 1091.39829 596.855569 
L 1092.42412 597.479682 
L 1093.449949 596.535547 
L 1094.475779 596.944566 
L 1095.501609 596.957209 
L 1096.527438 597.153601 
L 1097.553268 596.84112 
L 1098.579097 597.123759 
L 1099.604927 597.064769 
L 1100.630757 597.425587 
L 1101.656586 597.16324 
L 1102.682416 597.367245 
L 1103.708245 596.951506 
L 1104.734075 597.477183 
L 1105.759904 597.022614 
L 1106.785734 593.335787 
L 1107.811564 597.122223 
L 1108.837393 597.534517 
L 1109.863223 586.164421 
L 1110.889052 602.534815 
L 1111.914882 593.489893 
L 1112.940711 596.653948 
L 1113.966541 597.552895 
L 1114.992371 591.962033 
L 1116.0182 596.686592 
L 1117.04403 597.601018 
L 1118.069859 591.389626 
L 1119.095689 596.629165 
L 1120.121519 597.669016 
L 1121.147348 593.277062 
L 1122.173178 597.133752 
L 1123.199007 597.522546 
L 1124.224837 592.507992 
L 1125.250666 596.956608 
L 1126.276496 598.242487 
L 1127.302326 593.204485 
L 1128.328155 597.239792 
L 1129.353985 598.018381 
L 1130.379814 595.486778 
L 1131.405644 597.458872 
L 1132.431473 598.003113 
L 1133.457303 595.600067 
L 1134.483133 598.118559 
L 1135.508962 597.602164 
L 1136.534792 595.830384 
L 1137.560621 597.320243 
L 1138.586451 598.170865 
L 1139.612281 596.790362 
L 1140.63811 597.241153 
L 1141.66394 597.848688 
L 1142.689769 598.041481 
L 1143.715599 597.627494 
L 1145.767258 598.569452 
L 1146.793088 603.025994 
L 1148.844747 593.40195 
L 1149.870576 597.785238 
L 1150.896406 598.293372 
L 1151.922235 593.56286 
L 1152.948065 597.381345 
L 1153.973895 598.343236 
L 1154.999724 593.262514 
L 1156.025554 597.517147 
L 1157.051383 597.977024 
L 1158.077213 594.646502 
L 1159.103043 597.819844 
L 1160.128872 598.47136 
L 1161.154702 592.909344 
L 1162.180531 597.524092 
L 1163.206361 597.811023 
L 1164.23219 594.703618 
L 1165.25802 597.810086 
L 1166.28385 598.206862 
L 1167.309679 593.10395 
L 1168.335509 597.690875 
L 1169.361338 598.273641 
L 1170.387168 594.871879 
L 1171.412998 597.858651 
L 1172.438827 598.245406 
L 1173.464657 593.937489 
L 1174.490486 598.088972 
L 1175.516316 598.660734 
L 1176.542145 595.082816 
L 1177.567975 597.901071 
L 1178.593805 598.613227 
L 1179.619634 595.69915 
L 1180.645464 597.834712 
L 1181.671293 598.37488 
L 1182.697123 592.472985 
L 1183.722952 604.496134 
L 1184.748782 598.656961 
L 1185.774612 597.89947 
L 1186.800441 598.721863 
L 1187.826271 598.574317 
L 1188.8521 597.981776 
L 1189.87793 598.62203 
L 1190.90376 596.701009 
L 1191.929589 597.84499 
L 1192.955419 598.692728 
L 1193.981248 594.87127 
L 1195.007078 598.244279 
L 1196.032907 599.002117 
L 1197.058737 593.918183 
L 1198.084567 597.94499 
L 1199.110396 598.875773 
L 1200.136226 597.751393 
L 1202.187885 598.858985 
L 1203.213714 598.614196 
L 1204.239544 599.222882 
L 1205.265374 598.825187 
L 1206.291203 598.928256 
L 1207.317033 598.602998 
L 1208.342862 598.941346 
L 1209.368692 598.812234 
L 1210.394522 598.545774 
L 1211.420351 599.088927 
L 1212.446181 598.905657 
L 1213.47201 598.448542 
L 1214.49784 599.199552 
L 1215.523669 598.912952 
L 1216.549499 598.895836 
L 1217.575329 598.73326 
L 1218.601158 599.074258 
L 1219.626988 598.50254 
L 1220.652817 599.502733 
L 1222.704477 598.542582 
L 1223.730306 599.350075 
L 1224.756136 599.400697 
L 1225.781965 598.718569 
L 1226.807795 599.175364 
L 1227.833624 599.312248 
L 1228.859454 599.114464 
L 1230.911113 598.98614 
L 1231.936943 598.562191 
L 1232.962772 599.350551 
L 1233.988602 599.830891 
L 1235.014431 598.88307 
L 1236.040261 599.726342 
L 1237.066091 599.465564 
L 1238.09192 600.277418 
L 1239.11775 600.050249 
L 1240.143579 599.481738 
L 1241.169409 599.145771 
L 1242.195239 599.44346 
L 1244.246898 599.148346 
L 1245.272727 599.443177 
L 1245.272727 599.443177 
" style="fill:none;stroke:#1f77b4;stroke-linecap:square;stroke-width:1.5;"/>
   </g>
   <g id="line2d_20">
    <path clip-path="url(#pd6029a3fa7)" d="M 230.727273 218.798309 
L 231.753102 111.6 
L 232.778932 294.295778 
L 233.804761 382.694075 
L 234.830591 294.805932 
L 235.856421 292.650808 
L 236.88225 295.687533 
L 237.90808 381.747564 
L 238.933909 272.418595 
L 239.959739 348.378861 
L 240.985569 297.389161 
L 242.011398 311.245002 
L 243.037228 303.805782 
L 244.063057 275.831555 
L 245.088887 322.68543 
L 246.114716 302.790158 
L 247.140546 319.327223 
L 248.166376 301.456941 
L 249.192205 332.980744 
L 250.218035 342.513299 
L 251.243864 332.643379 
L 252.269694 345.787537 
L 253.295523 304.818579 
L 254.321353 378.731649 
L 255.347183 353.895043 
L 256.373012 386.608958 
L 257.398842 366.37044 
L 258.424671 402.29623 
L 259.450501 401.298954 
L 260.476331 382.719429 
L 261.50216 382.801331 
L 262.52799 376.898689 
L 263.553819 393.336131 
L 264.579649 400.115003 
L 265.605478 420.697954 
L 266.631308 423.837351 
L 267.657138 401.561356 
L 268.682967 408.614386 
L 269.708797 422.04461 
L 270.734626 418.655045 
L 271.760456 429.279742 
L 272.786286 428.366821 
L 273.812115 430.865268 
L 274.837945 443.14884 
L 275.863774 430.52393 
L 276.889604 460.345445 
L 277.915433 438.224094 
L 278.941263 439.814533 
L 279.967093 424.974118 
L 280.992922 440.594268 
L 282.018752 428.580465 
L 283.044581 451.414211 
L 284.070411 457.960457 
L 285.09624 467.231278 
L 286.12207 456.694639 
L 287.1479 457.422322 
L 288.173729 430.794703 
L 289.199559 456.051082 
L 290.225388 461.484971 
L 291.251218 445.208995 
L 292.277048 491.672128 
L 293.302877 450.459856 
L 294.328707 474.550309 
L 295.354536 445.383911 
L 296.380366 467.30501 
L 297.406195 461.695265 
L 298.432025 454.666787 
L 299.457855 456.059655 
L 300.483684 465.926312 
L 301.509514 445.021121 
L 302.535343 509.992177 
L 303.561173 470.347247 
L 304.587002 468.149201 
L 305.612832 484.022788 
L 306.638662 483.360236 
L 307.664491 458.870205 
L 308.690321 505.697031 
L 309.71615 476.548252 
L 310.74198 475.614746 
L 311.76781 488.792831 
L 312.793639 477.031967 
L 313.819469 481.32738 
L 314.845298 478.585454 
L 316.896957 491.907482 
L 317.922787 495.708347 
L 318.948617 495.385925 
L 319.974446 496.076592 
L 321.000276 525.030238 
L 322.026105 529.039429 
L 323.051935 495.506775 
L 324.077765 502.195334 
L 325.103594 498.29414 
L 326.129424 502.808332 
L 327.155253 498.618197 
L 328.181083 537.448649 
L 329.206912 506.573439 
L 330.232742 489.971519 
L 331.258572 502.503339 
L 332.284401 500.708743 
L 333.310231 502.859639 
L 334.33606 509.18929 
L 335.36189 506.50376 
L 336.387719 501.74763 
L 337.413549 502.449017 
L 338.439379 502.937698 
L 339.465208 498.347719 
L 340.491038 506.751432 
L 341.516867 510.397637 
L 342.542697 508.488717 
L 343.568527 508.912004 
L 344.594356 504.741779 
L 345.620186 510.209042 
L 346.646015 502.710529 
L 347.671845 510.868759 
L 348.697674 510.190748 
L 350.749334 519.226006 
L 351.775163 518.768122 
L 352.800993 507.636183 
L 353.826822 520.15441 
L 354.852652 516.511081 
L 355.878481 515.675534 
L 357.930141 511.339379 
L 358.95597 536.759466 
L 359.9818 521.672619 
L 361.007629 521.079265 
L 362.033459 524.921056 
L 363.059289 527.385581 
L 364.085118 518.291342 
L 365.110948 510.856716 
L 366.136777 525.812606 
L 367.162607 520.125943 
L 368.188436 523.156023 
L 369.214266 524.31913 
L 370.240096 516.593438 
L 371.265925 515.182932 
L 372.291755 523.35012 
L 373.317584 530.368676 
L 374.343414 527.633113 
L 375.369243 529.490755 
L 376.395073 528.853903 
L 377.420903 534.172056 
L 378.446732 530.075927 
L 379.472562 530.515139 
L 380.498391 532.793764 
L 381.524221 531.721957 
L 382.550051 518.133376 
L 383.57588 531.473743 
L 384.60171 533.809645 
L 385.627539 531.53874 
L 386.653369 530.734311 
L 387.679198 529.767107 
L 388.705028 523.309763 
L 389.730858 539.848694 
L 390.756687 536.363489 
L 391.782517 536.124482 
L 392.808346 537.260523 
L 393.834176 538.816135 
L 394.860006 558.157237 
L 395.885835 536.053875 
L 396.911665 535.617755 
L 397.937494 539.492342 
L 398.963324 539.887716 
L 399.989153 531.795339 
L 401.014983 535.910909 
L 402.040813 538.896547 
L 403.066642 538.35493 
L 404.092472 536.742069 
L 405.118301 550.39919 
L 406.144131 528.346181 
L 407.16996 538.941847 
L 408.19579 538.173714 
L 409.22162 539.917262 
L 410.247449 553.239136 
L 411.273279 538.914419 
L 412.299108 539.969458 
L 413.324938 563.30342 
L 414.350768 545.824875 
L 415.376597 543.187307 
L 416.402427 541.304877 
L 417.428256 539.047254 
L 418.454086 556.475601 
L 419.479915 555.504613 
L 420.505745 561.092916 
L 421.531575 544.405757 
L 422.557404 563.093486 
L 423.583234 555.578973 
L 424.609063 544.443764 
L 425.634893 548.707784 
L 426.660722 546.422455 
L 427.686552 545.544561 
L 428.712382 541.925708 
L 429.738211 565.59608 
L 430.764041 565.155098 
L 431.78987 547.008464 
L 432.8157 546.555602 
L 433.84153 547.79879 
L 434.867359 546.622071 
L 435.893189 548.70665 
L 436.919018 546.935436 
L 437.944848 548.541846 
L 438.970677 549.026232 
L 439.996507 545.975686 
L 441.022337 552.554946 
L 442.048166 551.634831 
L 443.073996 550.173445 
L 444.099825 551.771229 
L 445.125655 549.579308 
L 446.151485 545.996692 
L 447.177314 551.542042 
L 448.203144 552.937782 
L 449.228973 552.946163 
L 450.254803 553.319874 
L 451.280632 542.791636 
L 452.306462 551.964816 
L 453.332292 551.915631 
L 454.358121 560.740354 
L 455.383951 553.607883 
L 456.40978 549.100009 
L 457.43561 557.655278 
L 458.461439 554.961676 
L 459.487269 554.769084 
L 460.513099 554.910815 
L 461.538928 554.172866 
L 462.564758 548.689712 
L 463.590587 556.625176 
L 465.642247 556.566599 
L 466.668076 556.180462 
L 467.693906 552.58008 
L 468.719735 555.883657 
L 469.745565 557.738365 
L 470.771394 554.10766 
L 471.797224 557.951023 
L 472.823054 550.157129 
L 473.848883 556.100611 
L 474.874713 559.439261 
L 475.900542 559.22351 
L 476.926372 557.509028 
L 477.952201 554.098471 
L 478.978031 577.314376 
L 480.003861 560.060462 
L 481.02969 560.41363 
L 482.05552 559.51479 
L 483.081349 560.664689 
L 484.107179 552.869401 
L 485.133009 558.962435 
L 486.158838 559.464569 
L 488.210497 560.987558 
L 489.236327 554.616943 
L 490.262156 561.453823 
L 491.287986 579.031352 
L 492.313816 561.351446 
L 493.339645 558.393183 
L 494.365475 557.09213 
L 495.391304 563.349124 
L 496.417134 563.474104 
L 497.442964 561.562659 
L 498.468793 561.968675 
L 499.494623 557.179699 
L 500.520452 564.950142 
L 501.546282 576.257853 
L 503.597941 562.907916 
L 504.623771 563.046869 
L 505.6496 564.158814 
L 506.67543 561.948712 
L 507.701259 580.200675 
L 508.727089 580.554165 
L 509.752918 575.43247 
L 510.778748 579.006082 
L 511.804578 564.214927 
L 512.830407 565.622299 
L 513.856237 563.961254 
L 514.882066 558.372222 
L 515.907896 564.380038 
L 516.933726 566.007127 
L 517.959555 565.023274 
L 518.985385 565.822577 
L 520.011214 558.682478 
L 521.037044 565.360346 
L 522.062873 564.711257 
L 523.088703 565.864668 
L 524.114533 566.386373 
L 525.140362 560.519417 
L 527.192021 568.433527 
L 528.217851 568.254448 
L 529.24368 568.961059 
L 530.26951 564.315939 
L 531.29534 568.180066 
L 532.321169 564.221058 
L 533.346999 567.818278 
L 534.372828 567.630041 
L 535.398658 560.293013 
L 536.424488 568.930086 
L 537.450317 569.477641 
L 538.476147 565.889543 
L 539.501976 567.801023 
L 540.527806 561.544319 
L 541.553635 568.452433 
L 542.579465 567.93483 
L 543.605295 567.982412 
L 544.631124 569.134811 
L 545.656954 563.080415 
L 546.682783 568.286036 
L 547.708613 568.497949 
L 549.760272 570.787165 
L 550.786102 563.37683 
L 551.811931 568.773699 
L 552.837761 569.799301 
L 553.86359 611.047187 
L 554.88942 568.432322 
L 555.91525 564.407849 
L 556.941079 571.257308 
L 557.966909 572.124877 
L 558.992738 570.430723 
L 560.018568 567.518098 
L 561.044397 594.779241 
L 562.070227 572.847164 
L 563.096057 570.628272 
L 564.121886 570.347443 
L 565.147716 569.759193 
L 566.173545 572.177309 
L 567.199375 570.539211 
L 568.225205 569.920436 
L 569.251034 572.157453 
L 570.276864 565.494679 
L 571.302693 570.218268 
L 572.328523 571.884277 
L 573.354352 572.582648 
L 574.380182 572.717595 
L 575.406012 557.265039 
L 576.431841 573.053405 
L 577.457671 573.524015 
L 578.4835 572.653282 
L 579.50933 570.15683 
L 580.535159 577.066851 
L 581.560989 573.4518 
L 582.586819 573.996843 
L 583.612648 572.427235 
L 584.638478 567.810575 
L 585.664307 573.190271 
L 586.690137 574.793295 
L 587.715967 573.139108 
L 588.741796 573.237521 
L 589.767626 569.691898 
L 590.793455 575.374902 
L 591.819285 573.52634 
L 592.845114 573.435993 
L 593.870944 574.994037 
L 594.896774 571.28162 
L 595.922603 573.984969 
L 596.948433 572.706955 
L 597.974262 574.515972 
L 599.000092 574.297989 
L 600.025922 576.835538 
L 601.051751 581.143611 
L 602.077581 575.652318 
L 603.10341 576.396669 
L 604.12924 570.490699 
L 605.155069 576.111969 
L 606.180899 574.679638 
L 607.206729 575.570208 
L 608.232558 576.193063 
L 609.258388 571.810393 
L 610.284217 575.992813 
L 611.310047 574.92767 
L 612.335876 576.250828 
L 613.361706 574.869871 
L 614.387536 575.234084 
L 615.413365 575.001566 
L 616.439195 577.102289 
L 617.465024 576.798594 
L 618.490854 570.721491 
L 619.516684 576.173553 
L 620.542513 576.585656 
L 621.568343 578.00325 
L 623.620002 572.09055 
L 624.645831 576.558458 
L 625.671661 575.519038 
L 626.697491 577.684143 
L 627.72332 571.489619 
L 628.74915 575.675179 
L 629.774979 576.719115 
L 630.800809 578.61106 
L 631.826638 577.424845 
L 632.852468 577.844018 
L 633.878298 578.881876 
L 634.904127 577.534418 
L 635.929957 578.015938 
L 636.955786 575.729953 
L 639.007446 579.745412 
L 640.033275 578.791654 
L 641.059105 576.940543 
L 642.084934 573.342192 
L 643.110764 580.107926 
L 645.162423 578.358406 
L 646.188253 576.522724 
L 647.214082 578.910323 
L 648.239912 579.385649 
L 649.265741 578.298411 
L 650.291571 578.468386 
L 651.3174 577.581273 
L 652.34323 577.120355 
L 653.36906 578.484464 
L 654.394889 578.717035 
L 655.420719 575.700409 
L 656.446548 579.714134 
L 659.524037 578.588337 
L 660.549867 581.345516 
L 661.575696 578.667144 
L 662.601526 579.502866 
L 663.627355 579.914864 
L 664.653185 575.27531 
L 665.679015 579.121753 
L 667.730674 580.407799 
L 668.756503 582.683205 
L 669.782333 589.47847 
L 670.808163 585.611471 
L 671.833992 591.838495 
L 672.859822 586.468132 
L 673.885651 575.843147 
L 674.911481 591.784525 
L 675.93731 581.576119 
L 676.96314 581.790053 
L 677.98897 575.427804 
L 679.014799 580.575318 
L 680.040629 580.964062 
L 681.066458 581.834052 
L 683.118117 580.568434 
L 684.143947 583.851702 
L 685.169777 582.138824 
L 686.195606 585.673164 
L 687.221436 576.596391 
L 688.247265 583.729959 
L 689.273095 581.84477 
L 690.298925 580.873796 
L 691.324754 576.583369 
L 692.350584 582.757408 
L 693.376413 582.511559 
L 694.402243 581.804724 
L 695.428072 577.07743 
L 696.453902 582.44777 
L 697.479732 582.625351 
L 698.505561 582.021025 
L 699.531391 581.038639 
L 701.58305 583.228344 
L 703.634709 582.475351 
L 704.660539 588.387633 
L 705.686368 579.896229 
L 706.712198 581.697866 
L 707.738027 582.206566 
L 708.763857 576.215362 
L 709.789687 582.865949 
L 710.815516 582.219394 
L 711.841346 582.380836 
L 712.867175 581.682663 
L 713.893005 585.314406 
L 714.918834 583.355729 
L 715.944664 582.890999 
L 716.970494 581.762537 
L 717.996323 584.739209 
L 719.022153 582.855668 
L 720.047982 582.466009 
L 721.073812 583.614197 
L 722.099642 580.149897 
L 723.125471 583.22811 
L 724.151301 582.605063 
L 725.17713 585.127582 
L 726.20296 589.350719 
L 727.228789 583.540959 
L 728.254619 583.41441 
L 729.280449 584.098418 
L 730.306278 579.356127 
L 731.332108 583.74598 
L 732.357937 583.883051 
L 733.383767 584.392949 
L 734.409596 579.954936 
L 735.435426 583.335478 
L 736.461256 583.506551 
L 737.487085 585.103086 
L 738.512915 583.504116 
L 739.538744 583.671876 
L 740.564574 584.209842 
L 741.590404 585.008577 
L 742.616233 583.106259 
L 743.642063 594.118046 
L 744.667892 593.521946 
L 745.693722 594.231325 
L 746.719551 593.510872 
L 747.745381 593.272216 
L 749.79704 595.900981 
L 750.82287 583.505976 
L 751.848699 585.528966 
L 753.900358 585.902356 
L 754.926188 584.428638 
L 755.952018 583.917128 
L 756.977847 584.6065 
L 758.003677 583.682682 
L 759.029506 585.979873 
L 760.055336 586.172102 
L 761.081166 585.287728 
L 763.132825 585.885035 
L 764.158654 583.198686 
L 765.184484 585.801018 
L 766.210313 586.646258 
L 767.236143 586.592102 
L 768.261973 585.102673 
L 770.313632 586.54215 
L 771.339461 586.617469 
L 772.365291 592.949608 
L 773.391121 586.183445 
L 774.41695 586.639057 
L 775.44278 586.516342 
L 776.468609 587.382072 
L 777.494439 586.531929 
L 778.520268 586.499315 
L 779.546098 587.195889 
L 780.571928 584.521446 
L 781.597757 586.238991 
L 782.623587 586.341249 
L 783.649416 586.88648 
L 784.675246 582.295038 
L 785.701075 586.173278 
L 786.726905 586.837128 
L 787.752735 586.945844 
L 788.778564 584.269265 
L 789.804394 614.162692 
L 790.830223 587.368462 
L 791.856053 587.125068 
L 792.881883 583.341327 
L 793.907712 587.259461 
L 794.933542 587.237442 
L 795.959371 587.377438 
L 796.985201 587.102638 
L 798.01103 586.948988 
L 799.03686 588.322095 
L 800.06269 587.676018 
L 801.088519 592.248272 
L 802.114349 587.061962 
L 803.140178 587.508536 
L 804.166008 587.139476 
L 805.191837 586.480747 
L 806.217667 587.541443 
L 807.243497 587.80825 
L 808.269326 587.107149 
L 809.295156 586.031674 
L 810.320985 587.694872 
L 811.346815 587.864519 
L 812.372645 586.390057 
L 813.398474 585.811759 
L 814.424304 587.514825 
L 815.450133 587.975237 
L 816.475963 586.907427 
L 817.501792 588.370665 
L 818.527622 587.912418 
L 819.553452 588.569128 
L 820.579281 587.589494 
L 821.605111 587.869152 
L 822.63094 587.907518 
L 823.65677 589.523183 
L 824.6826 584.066927 
L 825.708429 587.810224 
L 826.734259 587.813592 
L 827.760088 588.448499 
L 828.785918 587.360274 
L 829.811747 588.009344 
L 830.837577 587.876325 
L 831.863407 588.556322 
L 832.889236 588.247032 
L 833.915066 587.642201 
L 834.940895 588.582262 
L 835.966725 588.070987 
L 836.992554 583.643464 
L 838.018384 589.483866 
L 839.044214 588.567509 
L 840.070043 587.889929 
L 841.095873 589.023153 
L 842.121702 588.444999 
L 843.147532 588.402837 
L 844.173362 584.944496 
L 845.199191 588.729164 
L 847.25085 588.580588 
L 848.27668 588.285226 
L 849.302509 590.377183 
L 850.328339 588.482086 
L 851.354169 589.247186 
L 852.379998 588.027392 
L 853.405828 589.533378 
L 854.431657 589.255847 
L 855.457487 589.295115 
L 856.483316 586.555628 
L 857.509146 590.16388 
L 858.534976 590.468354 
L 859.560805 588.253703 
L 860.586635 587.619181 
L 861.612464 590.213965 
L 862.638294 589.472642 
L 863.664124 587.590489 
L 864.689953 589.596578 
L 865.715783 594.424015 
L 866.741612 589.905667 
L 867.767442 589.145392 
L 868.793271 598.477685 
L 869.819101 589.429309 
L 870.844931 590.110211 
L 871.87076 591.466255 
L 872.89659 594.43581 
L 873.922419 594.029063 
L 874.948249 597.159816 
L 875.974078 596.751525 
L 876.999908 594.7807 
L 878.025738 599.452204 
L 879.051567 595.493429 
L 880.077397 590.480253 
L 881.103226 599.520096 
L 882.129056 590.162962 
L 883.154886 598.363232 
L 884.180715 590.335404 
L 885.206545 590.816056 
L 886.232374 589.768666 
L 887.258204 603.308593 
L 888.284033 591.455972 
L 889.309863 590.203746 
L 890.335693 587.258775 
L 891.361522 592.706928 
L 892.387352 590.846586 
L 893.413181 590.23358 
L 894.439011 592.786238 
L 895.464841 591.668274 
L 897.5165 590.492506 
L 898.542329 590.340695 
L 899.568159 589.430077 
L 900.593988 591.689701 
L 902.645648 590.156233 
L 903.671477 591.304305 
L 904.697307 593.764041 
L 905.723136 589.365785 
L 906.748966 590.277395 
L 907.774795 591.498545 
L 908.800625 589.656882 
L 909.826455 590.407718 
L 910.852284 591.624822 
L 911.878114 592.109235 
L 912.903943 589.043627 
L 913.929773 590.827389 
L 914.955603 591.007812 
L 915.981432 592.27577 
L 917.007262 601.272568 
L 918.033091 592.543936 
L 919.058921 591.335086 
L 920.08475 591.218969 
L 921.11058 592.243828 
L 922.13641 591.206449 
L 923.162239 591.302204 
L 924.188069 588.973255 
L 925.213898 593.53121 
L 926.239728 591.590288 
L 927.265557 591.241496 
L 928.291387 589.19677 
L 929.317217 591.889917 
L 930.343046 591.198655 
L 931.368876 588.464029 
L 932.394705 592.831066 
L 933.420535 592.620747 
L 935.472194 591.370477 
L 936.498024 592.949414 
L 937.523853 592.530849 
L 938.549683 588.645086 
L 939.575512 591.371277 
L 940.601342 592.430637 
L 941.627172 592.988374 
L 942.653001 591.985634 
L 943.678831 591.310483 
L 944.70466 592.116433 
L 945.73049 592.526221 
L 946.75632 602.21384 
L 947.782149 591.803787 
L 948.807979 592.641849 
L 949.833808 589.702794 
L 950.859638 592.286538 
L 951.885467 592.699443 
L 952.911297 592.722223 
L 953.937127 590.308812 
L 954.962956 592.28743 
L 955.988786 593.012525 
L 957.014615 592.025925 
L 958.040445 592.786541 
L 959.066274 592.69718 
L 961.117934 592.189639 
L 962.143763 593.032323 
L 963.169593 593.261145 
L 964.195422 592.188871 
L 965.221252 600.795706 
L 966.247082 593.343483 
L 967.272911 592.609549 
L 968.298741 589.738311 
L 969.32457 593.025741 
L 970.3504 593.375204 
L 971.376229 592.154916 
L 972.402059 600.609221 
L 973.427889 593.486075 
L 974.453718 593.464709 
L 975.479548 589.618012 
L 976.505377 593.152459 
L 977.531207 593.105261 
L 978.557036 593.192311 
L 979.582866 592.757624 
L 981.634525 593.481779 
L 982.660355 591.302041 
L 983.686184 593.251118 
L 984.712014 600.98609 
L 985.737844 600.667815 
L 986.763673 601.087479 
L 987.789503 592.442217 
L 988.815332 601.317919 
L 989.841162 596.005874 
L 990.866991 593.667432 
L 991.892821 601.352681 
L 992.918651 592.465654 
L 993.94448 601.249571 
L 994.97031 602.541732 
L 995.996139 593.919559 
L 997.021969 591.943567 
L 998.047799 593.138338 
L 999.073628 593.283972 
L 1000.099458 592.445336 
L 1001.125287 593.820125 
L 1002.151117 593.770932 
L 1003.176946 593.160081 
L 1004.202776 602.407578 
L 1005.228606 594.587324 
L 1006.254435 595.035759 
L 1007.280265 591.375051 
L 1008.306094 594.110682 
L 1009.331924 594.555196 
L 1010.357753 593.903956 
L 1011.383583 593.714934 
L 1012.409413 594.120454 
L 1013.435242 594.368422 
L 1014.461072 592.744561 
L 1015.486901 593.308358 
L 1016.512731 594.479634 
L 1017.538561 594.540124 
L 1018.56439 593.259597 
L 1019.59022 594.35946 
L 1020.616049 593.808623 
L 1021.641879 592.701438 
L 1022.667708 593.97821 
L 1023.693538 594.87328 
L 1024.719368 592.255015 
L 1025.745197 594.483906 
L 1026.771027 593.828394 
L 1027.796856 593.671212 
L 1028.822686 594.687384 
L 1029.848515 594.554445 
L 1030.874345 594.171014 
L 1031.900175 592.313048 
L 1032.926004 595.964538 
L 1033.951834 594.94536 
L 1034.977663 592.233206 
L 1036.003493 593.875944 
L 1037.029323 594.658961 
L 1038.055152 594.767338 
L 1039.080982 594.616456 
L 1040.106811 594.14263 
L 1041.132641 595.02737 
L 1042.15847 594.277368 
L 1043.1843 592.965102 
L 1045.235959 595.229337 
L 1046.261789 594.953217 
L 1047.287618 594.260134 
L 1048.313448 594.936335 
L 1049.339278 593.231127 
L 1050.365107 595.176893 
L 1051.390937 595.00551 
L 1052.416766 592.595739 
L 1053.442596 595.046033 
L 1054.468425 594.940303 
L 1055.494255 592.408241 
L 1056.520085 615.6 
L 1057.545914 614.275277 
L 1058.571744 615.324203 
L 1059.597573 595.663076 
L 1060.623403 594.078077 
L 1061.649232 594.952856 
L 1062.675062 614.630326 
L 1063.700892 594.867808 
L 1064.726721 594.714195 
L 1065.752551 595.343604 
L 1066.77838 595.800894 
L 1067.80421 594.474889 
L 1068.83004 594.960252 
L 1069.855869 595.612625 
L 1070.881699 595.503753 
L 1071.907528 594.86336 
L 1072.933358 594.970646 
L 1073.959187 595.365934 
L 1074.985017 595.167943 
L 1076.010847 599.35859 
L 1077.036676 595.032414 
L 1078.062506 595.746746 
L 1079.088335 595.865305 
L 1080.114165 596.223618 
L 1081.139994 594.190871 
L 1082.165824 595.170112 
L 1083.191654 595.691916 
L 1084.217483 596.519385 
L 1085.243313 595.858741 
L 1087.294972 596.20679 
L 1088.320802 596.134031 
L 1089.346631 595.143367 
L 1090.372461 596.142229 
L 1091.39829 595.398814 
L 1094.475779 595.566306 
L 1095.501609 596.12753 
L 1096.527438 595.655465 
L 1097.553268 595.61639 
L 1098.579097 595.688734 
L 1099.604927 596.320919 
L 1100.630757 595.940976 
L 1102.682416 595.774873 
L 1103.708245 600.79778 
L 1104.734075 601.375237 
L 1105.759904 602.767026 
L 1106.785734 603.18717 
L 1107.811564 603.146257 
L 1108.837393 603.229145 
L 1109.863223 595.55625 
L 1110.889052 596.502492 
L 1111.914882 596.723943 
L 1112.940711 595.754952 
L 1113.966541 596.220473 
L 1114.992371 596.19858 
L 1116.0182 596.88091 
L 1117.04403 596.260509 
L 1118.069859 597.355667 
L 1120.121519 596.661361 
L 1121.147348 595.272866 
L 1122.173178 595.804987 
L 1123.199007 596.499093 
L 1125.250666 596.62605 
L 1126.276496 595.999477 
L 1127.302326 596.764807 
L 1129.353985 595.429791 
L 1130.379814 595.984957 
L 1131.405644 595.527461 
L 1132.431473 596.847518 
L 1133.457303 596.099896 
L 1134.483133 595.547008 
L 1135.508962 596.938539 
L 1136.534792 596.649423 
L 1137.560621 595.994581 
L 1138.586451 595.905865 
L 1139.612281 597.112565 
L 1140.63811 596.914633 
L 1141.66394 595.674421 
L 1142.689769 597.250288 
L 1143.715599 596.982615 
L 1144.741428 596.315405 
L 1145.767258 597.254358 
L 1146.793088 596.320336 
L 1147.818917 595.943323 
L 1148.844747 597.001566 
L 1149.870576 596.502777 
L 1150.896406 595.624489 
L 1151.922235 596.903235 
L 1152.948065 597.0428 
L 1153.973895 596.351808 
L 1154.999724 596.346114 
L 1156.025554 597.860017 
L 1158.077213 596.39643 
L 1159.103043 596.496903 
L 1160.128872 596.815354 
L 1161.154702 596.374539 
L 1162.180531 596.599208 
L 1163.206361 596.530985 
L 1165.25802 597.250312 
L 1166.28385 596.811351 
L 1167.309679 596.899135 
L 1168.335509 597.33838 
L 1169.361338 597.337287 
L 1170.387168 595.707518 
L 1171.412998 596.355288 
L 1172.438827 597.216203 
L 1174.490486 596.624754 
L 1175.516316 596.64438 
L 1176.542145 597.56966 
L 1177.567975 597.026545 
L 1178.593805 597.161509 
L 1179.619634 596.925461 
L 1180.645464 597.40461 
L 1181.671293 597.760278 
L 1183.722952 596.269618 
L 1184.748782 597.457465 
L 1185.774612 597.657457 
L 1186.800441 596.745826 
L 1187.826271 596.756528 
L 1188.8521 597.638697 
L 1189.87793 596.995454 
L 1190.90376 597.236437 
L 1191.929589 597.009638 
L 1192.955419 598.681492 
L 1193.981248 597.641053 
L 1195.007078 597.081504 
L 1196.032907 596.368581 
L 1197.058737 597.333716 
L 1198.084567 597.175417 
L 1199.110396 597.173872 
L 1200.136226 597.35133 
L 1201.162055 597.698081 
L 1202.187885 597.570958 
L 1203.213714 597.232398 
L 1204.239544 597.492859 
L 1205.265374 597.571244 
L 1206.291203 598.051677 
L 1207.317033 597.252666 
L 1208.342862 598.069622 
L 1209.368692 597.211642 
L 1210.394522 597.927623 
L 1211.420351 598.007614 
L 1212.446181 597.086698 
L 1213.47201 598.082264 
L 1214.49784 598.18615 
L 1215.523669 599.591609 
L 1216.549499 598.174541 
L 1217.575329 598.297002 
L 1218.601158 596.910051 
L 1219.626988 598.308951 
L 1220.652817 597.797819 
L 1221.678647 596.513429 
L 1222.704477 598.171632 
L 1223.730306 597.709811 
L 1224.756136 597.57 
L 1225.781965 597.762321 
L 1226.807795 598.100021 
L 1227.833624 597.46285 
L 1228.859454 597.618687 
L 1229.885284 598.117674 
L 1231.936943 597.761419 
L 1232.962772 597.971287 
L 1235.014431 598.095081 
L 1236.040261 598.575421 
L 1237.066091 596.975966 
L 1238.09192 598.236628 
L 1239.11775 598.324027 
L 1240.143579 597.072223 
L 1241.169409 598.246454 
L 1242.195239 598.320251 
L 1243.221068 597.291025 
L 1244.246898 598.673202 
L 1245.272727 598.077029 
L 1245.272727 598.077029 
" style="fill:none;stroke:#ff7f0e;stroke-linecap:square;stroke-width:1.5;"/>
   </g>
   <g id="patch_3">
    <path d="M 180 640.8 
L 180 86.4 
" style="fill:none;stroke:#000000;stroke-linecap:square;stroke-linejoin:miter;stroke-width:0.8;"/>
   </g>
   <g id="patch_4">
    <path d="M 1296 640.8 
L 1296 86.4 
" style="fill:none;stroke:#000000;stroke-linecap:square;stroke-linejoin:miter;stroke-width:0.8;"/>
   </g>
   <g id="patch_5">
    <path d="M 180 640.8 
L 1296 640.8 
" style="fill:none;stroke:#000000;stroke-linecap:square;stroke-linejoin:miter;stroke-width:0.8;"/>
   </g>
   <g id="patch_6">
    <path d="M 180 86.4 
L 1296 86.4 
" style="fill:none;stroke:#000000;stroke-linecap:square;stroke-linejoin:miter;stroke-width:0.8;"/>
   </g>
   <g id="text_21">
    <!-- Bollinger Bands Speedup -->
    <defs>
     <path d="M 19.671875 34.8125 
L 19.671875 8.109375 
L 35.5 8.109375 
Q 43.453125 8.109375 47.28125 11.40625 
Q 51.125 14.703125 51.125 21.484375 
Q 51.125 28.328125 47.28125 31.5625 
Q 43.453125 34.8125 35.5 34.8125 
z
M 19.671875 64.796875 
L 19.671875 42.828125 
L 34.28125 42.828125 
Q 41.5 42.828125 45.03125 45.53125 
Q 48.578125 48.25 48.578125 53.8125 
Q 48.578125 59.328125 45.03125 62.0625 
Q 41.5 64.796875 34.28125 64.796875 
z
M 9.8125 72.90625 
L 35.015625 72.90625 
Q 46.296875 72.90625 52.390625 68.21875 
Q 58.5 63.53125 58.5 54.890625 
Q 58.5 48.1875 55.375 44.234375 
Q 52.25 40.28125 46.1875 39.3125 
Q 53.46875 37.75 57.5 32.78125 
Q 61.53125 27.828125 61.53125 20.40625 
Q 61.53125 10.640625 54.890625 5.3125 
Q 48.25 0 35.984375 0 
L 9.8125 0 
z
" id="DejaVuSans-66"/>
     <path d="M 30.609375 48.390625 
Q 23.390625 48.390625 19.1875 42.75 
Q 14.984375 37.109375 14.984375 27.296875 
Q 14.984375 17.484375 19.15625 11.84375 
Q 23.34375 6.203125 30.609375 6.203125 
Q 37.796875 6.203125 41.984375 11.859375 
Q 46.1875 17.53125 46.1875 27.296875 
Q 46.1875 37.015625 41.984375 42.703125 
Q 37.796875 48.390625 30.609375 48.390625 
z
M 30.609375 56 
Q 42.328125 56 49.015625 48.375 
Q 55.71875 40.765625 55.71875 27.296875 
Q 55.71875 13.875 49.015625 6.21875 
Q 42.328125 -1.421875 30.609375 -1.421875 
Q 18.84375 -1.421875 12.171875 6.21875 
Q 5.515625 13.875 5.515625 27.296875 
Q 5.515625 40.765625 12.171875 48.375 
Q 18.84375 56 30.609375 56 
z
" id="DejaVuSans-111"/>
     <path d="M 9.421875 75.984375 
L 18.40625 75.984375 
L 18.40625 0 
L 9.421875 0 
z
" id="DejaVuSans-108"/>
     <path d="M 9.421875 54.6875 
L 18.40625 54.6875 
L 18.40625 0 
L 9.421875 0 
z
M 9.421875 75.984375 
L 18.40625 75.984375 
L 18.40625 64.59375 
L 9.421875 64.59375 
z
" id="DejaVuSans-105"/>
     <path d="M 45.40625 27.984375 
Q 45.40625 37.75 41.375 43.109375 
Q 37.359375 48.484375 30.078125 48.484375 
Q 22.859375 48.484375 18.828125 43.109375 
Q 14.796875 37.75 14.796875 27.984375 
Q 14.796875 18.265625 18.828125 12.890625 
Q 22.859375 7.515625 30.078125 7.515625 
Q 37.359375 7.515625 41.375 12.890625 
Q 45.40625 18.265625 45.40625 27.984375 
z
M 54.390625 6.78125 
Q 54.390625 -7.171875 48.1875 -13.984375 
Q 42 -20.796875 29.203125 -20.796875 
Q 24.46875 -20.796875 20.265625 -20.09375 
Q 16.0625 -19.390625 12.109375 -17.921875 
L 12.109375 -9.1875 
Q 16.0625 -11.328125 19.921875 -12.34375 
Q 23.78125 -13.375 27.78125 -13.375 
Q 36.625 -13.375 41.015625 -8.765625 
Q 45.40625 -4.15625 45.40625 5.171875 
L 45.40625 9.625 
Q 42.625 4.78125 38.28125 2.390625 
Q 33.9375 0 27.875 0 
Q 17.828125 0 11.671875 7.65625 
Q 5.515625 15.328125 5.515625 27.984375 
Q 5.515625 40.671875 11.671875 48.328125 
Q 17.828125 56 27.875 56 
Q 33.9375 56 38.28125 53.609375 
Q 42.625 51.21875 45.40625 46.390625 
L 45.40625 54.6875 
L 54.390625 54.6875 
z
" id="DejaVuSans-103"/>
     <path d="M 41.109375 46.296875 
Q 39.59375 47.171875 37.8125 47.578125 
Q 36.03125 48 33.890625 48 
Q 26.265625 48 22.1875 43.046875 
Q 18.109375 38.09375 18.109375 28.8125 
L 18.109375 0 
L 9.078125 0 
L 9.078125 54.6875 
L 18.109375 54.6875 
L 18.109375 46.1875 
Q 20.953125 51.171875 25.484375 53.578125 
Q 30.03125 56 36.53125 56 
Q 37.453125 56 38.578125 55.875 
Q 39.703125 55.765625 41.0625 55.515625 
z
" id="DejaVuSans-114"/>
     <path id="DejaVuSans-32"/>
     <path d="M 34.28125 27.484375 
Q 23.390625 27.484375 19.1875 25 
Q 14.984375 22.515625 14.984375 16.5 
Q 14.984375 11.71875 18.140625 8.90625 
Q 21.296875 6.109375 26.703125 6.109375 
Q 34.1875 6.109375 38.703125 11.40625 
Q 43.21875 16.703125 43.21875 25.484375 
L 43.21875 27.484375 
z
M 52.203125 31.203125 
L 52.203125 0 
L 43.21875 0 
L 43.21875 8.296875 
Q 40.140625 3.328125 35.546875 0.953125 
Q 30.953125 -1.421875 24.3125 -1.421875 
Q 15.921875 -1.421875 10.953125 3.296875 
Q 6 8.015625 6 15.921875 
Q 6 25.140625 12.171875 29.828125 
Q 18.359375 34.515625 30.609375 34.515625 
L 43.21875 34.515625 
L 43.21875 35.40625 
Q 43.21875 41.609375 39.140625 45 
Q 35.0625 48.390625 27.6875 48.390625 
Q 23 48.390625 18.546875 47.265625 
Q 14.109375 46.140625 10.015625 43.890625 
L 10.015625 52.203125 
Q 14.9375 54.109375 19.578125 55.046875 
Q 24.21875 56 28.609375 56 
Q 40.484375 56 46.34375 49.84375 
Q 52.203125 43.703125 52.203125 31.203125 
z
" id="DejaVuSans-97"/>
     <path d="M 53.515625 70.515625 
L 53.515625 60.890625 
Q 47.90625 63.578125 42.921875 64.890625 
Q 37.9375 66.21875 33.296875 66.21875 
Q 25.25 66.21875 20.875 63.09375 
Q 16.5 59.96875 16.5 54.203125 
Q 16.5 49.359375 19.40625 46.890625 
Q 22.3125 44.4375 30.421875 42.921875 
L 36.375 41.703125 
Q 47.40625 39.59375 52.65625 34.296875 
Q 57.90625 29 57.90625 20.125 
Q 57.90625 9.515625 50.796875 4.046875 
Q 43.703125 -1.421875 29.984375 -1.421875 
Q 24.8125 -1.421875 18.96875 -0.25 
Q 13.140625 0.921875 6.890625 3.21875 
L 6.890625 13.375 
Q 12.890625 10.015625 18.65625 8.296875 
Q 24.421875 6.59375 29.984375 6.59375 
Q 38.421875 6.59375 43.015625 9.90625 
Q 47.609375 13.234375 47.609375 19.390625 
Q 47.609375 24.75 44.3125 27.78125 
Q 41.015625 30.8125 33.5 32.328125 
L 27.484375 33.5 
Q 16.453125 35.6875 11.515625 40.375 
Q 6.59375 45.0625 6.59375 53.421875 
Q 6.59375 63.09375 13.40625 68.65625 
Q 20.21875 74.21875 32.171875 74.21875 
Q 37.3125 74.21875 42.625 73.28125 
Q 47.953125 72.359375 53.515625 70.515625 
z
" id="DejaVuSans-83"/>
    </defs>
    <g transform="translate(662.674688 80.4)scale(0.12 -0.12)">
     <use xlink:href="#DejaVuSans-66"/>
     <use x="68.603516" xlink:href="#DejaVuSans-111"/>
     <use x="129.785156" xlink:href="#DejaVuSans-108"/>
     <use x="157.568359" xlink:href="#DejaVuSans-108"/>
     <use x="185.351562" xlink:href="#DejaVuSans-105"/>
     <use x="213.134766" xlink:href="#DejaVuSans-110"/>
     <use x="276.513672" xlink:href="#DejaVuSans-103"/>
     <use x="339.990234" xlink:href="#DejaVuSans-101"/>
     <use x="401.513672" xlink:href="#DejaVuSans-114"/>
     <use x="442.626953" xlink:href="#DejaVuSans-32"/>
     <use x="474.414062" xlink:href="#DejaVuSans-66"/>
     <use x="543.017578" xlink:href="#DejaVuSans-97"/>
     <use x="604.296875" xlink:href="#DejaVuSans-110"/>
     <use x="667.675781" xlink:href="#DejaVuSans-100"/>
     <use x="731.152344" xlink:href="#DejaVuSans-115"/>
     <use x="783.251953" xlink:href="#DejaVuSans-32"/>
     <use x="815.039062" xlink:href="#DejaVuSans-83"/>
     <use x="878.515625" xlink:href="#DejaVuSans-112"/>
     <use x="941.992188" xlink:href="#DejaVuSans-101"/>
     <use x="1003.515625" xlink:href="#DejaVuSans-101"/>
     <use x="1065.039062" xlink:href="#DejaVuSans-100"/>
     <use x="1128.515625" xlink:href="#DejaVuSans-117"/>
     <use x="1191.894531" xlink:href="#DejaVuSans-112"/>
    </g>
   </g>
   <g id="legend_1">
    <g id="patch_7">
     <path d="M 1185.373437 123.75625 
L 1289 123.75625 
Q 1291 123.75625 1291 121.75625 
L 1291 93.4 
Q 1291 91.4 1289 91.4 
L 1185.373437 91.4 
Q 1183.373437 91.4 1183.373437 93.4 
L 1183.373437 121.75625 
Q 1183.373437 123.75625 1185.373437 123.75625 
z
" style="fill:#ffffff;opacity:0.8;stroke:#cccccc;stroke-linejoin:miter;"/>
    </g>
    <g id="line2d_21">
     <path d="M 1187.373437 99.498437 
L 1207.373437 99.498437 
" style="fill:none;stroke:#1f77b4;stroke-linecap:square;stroke-width:1.5;"/>
    </g>
    <g id="line2d_22"/>
    <g id="text_22">
     <!-- numpy.float32 -->
     <defs>
      <path d="M 52 44.1875 
Q 55.375 50.25 60.0625 53.125 
Q 64.75 56 71.09375 56 
Q 79.640625 56 84.28125 50.015625 
Q 88.921875 44.046875 88.921875 33.015625 
L 88.921875 0 
L 79.890625 0 
L 79.890625 32.71875 
Q 79.890625 40.578125 77.09375 44.375 
Q 74.3125 48.1875 68.609375 48.1875 
Q 61.625 48.1875 57.5625 43.546875 
Q 53.515625 38.921875 53.515625 30.90625 
L 53.515625 0 
L 44.484375 0 
L 44.484375 32.71875 
Q 44.484375 40.625 41.703125 44.40625 
Q 38.921875 48.1875 33.109375 48.1875 
Q 26.21875 48.1875 22.15625 43.53125 
Q 18.109375 38.875 18.109375 30.90625 
L 18.109375 0 
L 9.078125 0 
L 9.078125 54.6875 
L 18.109375 54.6875 
L 18.109375 46.1875 
Q 21.1875 51.21875 25.484375 53.609375 
Q 29.78125 56 35.6875 56 
Q 41.65625 56 45.828125 52.96875 
Q 50 49.953125 52 44.1875 
z
" id="DejaVuSans-109"/>
      <path d="M 32.171875 -5.078125 
Q 28.375 -14.84375 24.75 -17.8125 
Q 21.140625 -20.796875 15.09375 -20.796875 
L 7.90625 -20.796875 
L 7.90625 -13.28125 
L 13.1875 -13.28125 
Q 16.890625 -13.28125 18.9375 -11.515625 
Q 21 -9.765625 23.484375 -3.21875 
L 25.09375 0.875 
L 2.984375 54.6875 
L 12.5 54.6875 
L 29.59375 11.921875 
L 46.6875 54.6875 
L 56.203125 54.6875 
z
" id="DejaVuSans-121"/>
      <path d="M 37.109375 75.984375 
L 37.109375 68.5 
L 28.515625 68.5 
Q 23.6875 68.5 21.796875 66.546875 
Q 19.921875 64.59375 19.921875 59.515625 
L 19.921875 54.6875 
L 34.71875 54.6875 
L 34.71875 47.703125 
L 19.921875 47.703125 
L 19.921875 0 
L 10.890625 0 
L 10.890625 47.703125 
L 2.296875 47.703125 
L 2.296875 54.6875 
L 10.890625 54.6875 
L 10.890625 58.5 
Q 10.890625 67.625 15.140625 71.796875 
Q 19.390625 75.984375 28.609375 75.984375 
z
" id="DejaVuSans-102"/>
      <path d="M 18.3125 70.21875 
L 18.3125 54.6875 
L 36.8125 54.6875 
L 36.8125 47.703125 
L 18.3125 47.703125 
L 18.3125 18.015625 
Q 18.3125 11.328125 20.140625 9.421875 
Q 21.96875 7.515625 27.59375 7.515625 
L 36.8125 7.515625 
L 36.8125 0 
L 27.59375 0 
Q 17.1875 0 13.234375 3.875 
Q 9.28125 7.765625 9.28125 18.015625 
L 9.28125 47.703125 
L 2.6875 47.703125 
L 2.6875 54.6875 
L 9.28125 54.6875 
L 9.28125 70.21875 
z
" id="DejaVuSans-116"/>
     </defs>
     <g transform="translate(1215.373437 102.998437)scale(0.1 -0.1)">
      <use xlink:href="#DejaVuSans-110"/>
      <use x="63.378906" xlink:href="#DejaVuSans-117"/>
      <use x="126.757812" xlink:href="#DejaVuSans-109"/>
      <use x="224.169922" xlink:href="#DejaVuSans-112"/>
      <use x="287.646484" xlink:href="#DejaVuSans-121"/>
      <use x="332.576172" xlink:href="#DejaVuSans-46"/>
      <use x="364.363281" xlink:href="#DejaVuSans-102"/>
      <use x="399.568359" xlink:href="#DejaVuSans-108"/>
      <use x="427.351562" xlink:href="#DejaVuSans-111"/>
      <use x="488.533203" xlink:href="#DejaVuSans-97"/>
      <use x="549.8125" xlink:href="#DejaVuSans-116"/>
      <use x="589.021484" xlink:href="#DejaVuSans-51"/>
      <use x="652.644531" xlink:href="#DejaVuSans-50"/>
     </g>
    </g>
    <g id="line2d_23">
     <path d="M 1187.373437 114.176562 
L 1207.373437 114.176562 
" style="fill:none;stroke:#ff7f0e;stroke-linecap:square;stroke-width:1.5;"/>
    </g>
    <g id="line2d_24"/>
    <g id="text_23">
     <!-- numpy.float64 -->
     <g transform="translate(1215.373437 117.676562)scale(0.1 -0.1)">
      <use xlink:href="#DejaVuSans-110"/>
      <use x="63.378906" xlink:href="#DejaVuSans-117"/>
      <use x="126.757812" xlink:href="#DejaVuSans-109"/>
      <use x="224.169922" xlink:href="#DejaVuSans-112"/>
      <use x="287.646484" xlink:href="#DejaVuSans-121"/>
      <use x="332.576172" xlink:href="#DejaVuSans-46"/>
      <use x="364.363281" xlink:href="#DejaVuSans-102"/>
      <use x="399.568359" xlink:href="#DejaVuSans-108"/>
      <use x="427.351562" xlink:href="#DejaVuSans-111"/>
      <use x="488.533203" xlink:href="#DejaVuSans-97"/>
      <use x="549.8125" xlink:href="#DejaVuSans-116"/>
      <use x="589.021484" xlink:href="#DejaVuSans-54"/>
      <use x="652.644531" xlink:href="#DejaVuSans-52"/>
     </g>
    </g>
   </g>
  </g>
 </g>
 <defs>
  <clipPath id="pd6029a3fa7">
   <rect height="554.4" width="1116" x="180" y="86.4"/>
  </clipPath>
 </defs>
</svg>
