<?xml version="1.0" encoding="utf-8" standalone="no"?>
<!DOCTYPE svg PUBLIC "-//W3C//DTD SVG 1.1//EN"
  "http://www.w3.org/Graphics/SVG/1.1/DTD/svg11.dtd">
<!-- Created with matplotlib (https://matplotlib.org/) -->
<svg height="720pt" version="1.1" viewBox="0 0 1440 720" width="1440pt" xmlns="http://www.w3.org/2000/svg" xmlns:xlink="http://www.w3.org/1999/xlink">
 <defs>
  <style type="text/css">
*{stroke-linecap:butt;stroke-linejoin:round;}
  </style>
 </defs>
 <g id="figure_1">
  <g id="patch_1">
   <path d="M 0 720 
L 1440 720 
L 1440 0 
L 0 0 
z
" style="fill:#ffffff;"/>
  </g>
  <g id="axes_1">
   <g id="patch_2">
    <path d="M 180 640.8 
L 1296 640.8 
L 1296 86.4 
L 180 86.4 
z
" style="fill:#ffffff;"/>
   </g>
   <g id="matplotlib.axis_1">
    <g id="xtick_1">
     <g id="line2d_1">
      <defs>
       <path d="M 0 0 
L 0 3.5 
" id="m9022f2d730" style="stroke:#000000;stroke-width:0.8;"/>
      </defs>
      <g>
       <use style="stroke:#000000;stroke-width:0.8;" x="333.310231" xlink:href="#m9022f2d730" y="640.8"/>
      </g>
     </g>
     <g id="text_1">
      <!-- 100.0 -->
      <defs>
       <path d="M 12.40625 8.296875 
L 28.515625 8.296875 
L 28.515625 63.921875 
L 10.984375 60.40625 
L 10.984375 69.390625 
L 28.421875 72.90625 
L 38.28125 72.90625 
L 38.28125 8.296875 
L 54.390625 8.296875 
L 54.390625 0 
L 12.40625 0 
z
" id="DejaVuSans-49"/>
       <path d="M 31.78125 66.40625 
Q 24.171875 66.40625 20.328125 58.90625 
Q 16.5 51.421875 16.5 36.375 
Q 16.5 21.390625 20.328125 13.890625 
Q 24.171875 6.390625 31.78125 6.390625 
Q 39.453125 6.390625 43.28125 13.890625 
Q 47.125 21.390625 47.125 36.375 
Q 47.125 51.421875 43.28125 58.90625 
Q 39.453125 66.40625 31.78125 66.40625 
z
M 31.78125 74.21875 
Q 44.046875 74.21875 50.515625 64.515625 
Q 56.984375 54.828125 56.984375 36.375 
Q 56.984375 17.96875 50.515625 8.265625 
Q 44.046875 -1.421875 31.78125 -1.421875 
Q 19.53125 -1.421875 13.0625 8.265625 
Q 6.59375 17.96875 6.59375 36.375 
Q 6.59375 54.828125 13.0625 64.515625 
Q 19.53125 74.21875 31.78125 74.21875 
z
" id="DejaVuSans-48"/>
       <path d="M 10.6875 12.40625 
L 21 12.40625 
L 21 0 
L 10.6875 0 
z
" id="DejaVuSans-46"/>
      </defs>
      <g transform="translate(318.996168 655.398438)scale(0.1 -0.1)">
       <use xlink:href="#DejaVuSans-49"/>
       <use x="63.623047" xlink:href="#DejaVuSans-48"/>
       <use x="127.246094" xlink:href="#DejaVuSans-48"/>
       <use x="190.869141" xlink:href="#DejaVuSans-46"/>
       <use x="222.65625" xlink:href="#DejaVuSans-48"/>
      </g>
     </g>
    </g>
    <g id="xtick_2">
     <g id="line2d_2">
      <g>
       <use style="stroke:#000000;stroke-width:0.8;" x="435.893189" xlink:href="#m9022f2d730" y="640.8"/>
      </g>
     </g>
     <g id="text_2">
      <!-- 200.0 -->
      <defs>
       <path d="M 19.1875 8.296875 
L 53.609375 8.296875 
L 53.609375 0 
L 7.328125 0 
L 7.328125 8.296875 
Q 12.9375 14.109375 22.625 23.890625 
Q 32.328125 33.6875 34.8125 36.53125 
Q 39.546875 41.84375 41.421875 45.53125 
Q 43.3125 49.21875 43.3125 52.78125 
Q 43.3125 58.59375 39.234375 62.25 
Q 35.15625 65.921875 28.609375 65.921875 
Q 23.96875 65.921875 18.8125 64.3125 
Q 13.671875 62.703125 7.8125 59.421875 
L 7.8125 69.390625 
Q 13.765625 71.78125 18.9375 73 
Q 24.125 74.21875 28.421875 74.21875 
Q 39.75 74.21875 46.484375 68.546875 
Q 53.21875 62.890625 53.21875 53.421875 
Q 53.21875 48.921875 51.53125 44.890625 
Q 49.859375 40.875 45.40625 35.40625 
Q 44.1875 33.984375 37.640625 27.21875 
Q 31.109375 20.453125 19.1875 8.296875 
z
" id="DejaVuSans-50"/>
      </defs>
      <g transform="translate(421.579126 655.398438)scale(0.1 -0.1)">
       <use xlink:href="#DejaVuSans-50"/>
       <use x="63.623047" xlink:href="#DejaVuSans-48"/>
       <use x="127.246094" xlink:href="#DejaVuSans-48"/>
       <use x="190.869141" xlink:href="#DejaVuSans-46"/>
       <use x="222.65625" xlink:href="#DejaVuSans-48"/>
      </g>
     </g>
    </g>
    <g id="xtick_3">
     <g id="line2d_3">
      <g>
       <use style="stroke:#000000;stroke-width:0.8;" x="538.476147" xlink:href="#m9022f2d730" y="640.8"/>
      </g>
     </g>
     <g id="text_3">
      <!-- 300.0 -->
      <defs>
       <path d="M 40.578125 39.3125 
Q 47.65625 37.796875 51.625 33 
Q 55.609375 28.21875 55.609375 21.1875 
Q 55.609375 10.40625 48.1875 4.484375 
Q 40.765625 -1.421875 27.09375 -1.421875 
Q 22.515625 -1.421875 17.65625 -0.515625 
Q 12.796875 0.390625 7.625 2.203125 
L 7.625 11.71875 
Q 11.71875 9.328125 16.59375 8.109375 
Q 21.484375 6.890625 26.8125 6.890625 
Q 36.078125 6.890625 40.9375 10.546875 
Q 45.796875 14.203125 45.796875 21.1875 
Q 45.796875 27.640625 41.28125 31.265625 
Q 36.765625 34.90625 28.71875 34.90625 
L 20.21875 34.90625 
L 20.21875 43.015625 
L 29.109375 43.015625 
Q 36.375 43.015625 40.234375 45.921875 
Q 44.09375 48.828125 44.09375 54.296875 
Q 44.09375 59.90625 40.109375 62.90625 
Q 36.140625 65.921875 28.71875 65.921875 
Q 24.65625 65.921875 20.015625 65.03125 
Q 15.375 64.15625 9.8125 62.3125 
L 9.8125 71.09375 
Q 15.4375 72.65625 20.34375 73.4375 
Q 25.25 74.21875 29.59375 74.21875 
Q 40.828125 74.21875 47.359375 69.109375 
Q 53.90625 64.015625 53.90625 55.328125 
Q 53.90625 49.265625 50.4375 45.09375 
Q 46.96875 40.921875 40.578125 39.3125 
z
" id="DejaVuSans-51"/>
      </defs>
      <g transform="translate(524.162084 655.398438)scale(0.1 -0.1)">
       <use xlink:href="#DejaVuSans-51"/>
       <use x="63.623047" xlink:href="#DejaVuSans-48"/>
       <use x="127.246094" xlink:href="#DejaVuSans-48"/>
       <use x="190.869141" xlink:href="#DejaVuSans-46"/>
       <use x="222.65625" xlink:href="#DejaVuSans-48"/>
      </g>
     </g>
    </g>
    <g id="xtick_4">
     <g id="line2d_4">
      <g>
       <use style="stroke:#000000;stroke-width:0.8;" x="641.059105" xlink:href="#m9022f2d730" y="640.8"/>
      </g>
     </g>
     <g id="text_4">
      <!-- 400.0 -->
      <defs>
       <path d="M 37.796875 64.3125 
L 12.890625 25.390625 
L 37.796875 25.390625 
z
M 35.203125 72.90625 
L 47.609375 72.90625 
L 47.609375 25.390625 
L 58.015625 25.390625 
L 58.015625 17.1875 
L 47.609375 17.1875 
L 47.609375 0 
L 37.796875 0 
L 37.796875 17.1875 
L 4.890625 17.1875 
L 4.890625 26.703125 
z
" id="DejaVuSans-52"/>
      </defs>
      <g transform="translate(626.745042 655.398438)scale(0.1 -0.1)">
       <use xlink:href="#DejaVuSans-52"/>
       <use x="63.623047" xlink:href="#DejaVuSans-48"/>
       <use x="127.246094" xlink:href="#DejaVuSans-48"/>
       <use x="190.869141" xlink:href="#DejaVuSans-46"/>
       <use x="222.65625" xlink:href="#DejaVuSans-48"/>
      </g>
     </g>
    </g>
    <g id="xtick_5">
     <g id="line2d_5">
      <g>
       <use style="stroke:#000000;stroke-width:0.8;" x="743.642063" xlink:href="#m9022f2d730" y="640.8"/>
      </g>
     </g>
     <g id="text_5">
      <!-- 500.0 -->
      <defs>
       <path d="M 10.796875 72.90625 
L 49.515625 72.90625 
L 49.515625 64.59375 
L 19.828125 64.59375 
L 19.828125 46.734375 
Q 21.96875 47.46875 24.109375 47.828125 
Q 26.265625 48.1875 28.421875 48.1875 
Q 40.625 48.1875 47.75 41.5 
Q 54.890625 34.8125 54.890625 23.390625 
Q 54.890625 11.625 47.5625 5.09375 
Q 40.234375 -1.421875 26.90625 -1.421875 
Q 22.3125 -1.421875 17.546875 -0.640625 
Q 12.796875 0.140625 7.71875 1.703125 
L 7.71875 11.625 
Q 12.109375 9.234375 16.796875 8.0625 
Q 21.484375 6.890625 26.703125 6.890625 
Q 35.15625 6.890625 40.078125 11.328125 
Q 45.015625 15.765625 45.015625 23.390625 
Q 45.015625 31 40.078125 35.4375 
Q 35.15625 39.890625 26.703125 39.890625 
Q 22.75 39.890625 18.8125 39.015625 
Q 14.890625 38.140625 10.796875 36.28125 
z
" id="DejaVuSans-53"/>
      </defs>
      <g transform="translate(729.328 655.398438)scale(0.1 -0.1)">
       <use xlink:href="#DejaVuSans-53"/>
       <use x="63.623047" xlink:href="#DejaVuSans-48"/>
       <use x="127.246094" xlink:href="#DejaVuSans-48"/>
       <use x="190.869141" xlink:href="#DejaVuSans-46"/>
       <use x="222.65625" xlink:href="#DejaVuSans-48"/>
      </g>
     </g>
    </g>
    <g id="xtick_6">
     <g id="line2d_6">
      <g>
       <use style="stroke:#000000;stroke-width:0.8;" x="846.225021" xlink:href="#m9022f2d730" y="640.8"/>
      </g>
     </g>
     <g id="text_6">
      <!-- 600.0 -->
      <defs>
       <path d="M 33.015625 40.375 
Q 26.375 40.375 22.484375 35.828125 
Q 18.609375 31.296875 18.609375 23.390625 
Q 18.609375 15.53125 22.484375 10.953125 
Q 26.375 6.390625 33.015625 6.390625 
Q 39.65625 6.390625 43.53125 10.953125 
Q 47.40625 15.53125 47.40625 23.390625 
Q 47.40625 31.296875 43.53125 35.828125 
Q 39.65625 40.375 33.015625 40.375 
z
M 52.59375 71.296875 
L 52.59375 62.3125 
Q 48.875 64.0625 45.09375 64.984375 
Q 41.3125 65.921875 37.59375 65.921875 
Q 27.828125 65.921875 22.671875 59.328125 
Q 17.53125 52.734375 16.796875 39.40625 
Q 19.671875 43.65625 24.015625 45.921875 
Q 28.375 48.1875 33.59375 48.1875 
Q 44.578125 48.1875 50.953125 41.515625 
Q 57.328125 34.859375 57.328125 23.390625 
Q 57.328125 12.15625 50.6875 5.359375 
Q 44.046875 -1.421875 33.015625 -1.421875 
Q 20.359375 -1.421875 13.671875 8.265625 
Q 6.984375 17.96875 6.984375 36.375 
Q 6.984375 53.65625 15.1875 63.9375 
Q 23.390625 74.21875 37.203125 74.21875 
Q 40.921875 74.21875 44.703125 73.484375 
Q 48.484375 72.75 52.59375 71.296875 
z
" id="DejaVuSans-54"/>
      </defs>
      <g transform="translate(831.910958 655.398438)scale(0.1 -0.1)">
       <use xlink:href="#DejaVuSans-54"/>
       <use x="63.623047" xlink:href="#DejaVuSans-48"/>
       <use x="127.246094" xlink:href="#DejaVuSans-48"/>
       <use x="190.869141" xlink:href="#DejaVuSans-46"/>
       <use x="222.65625" xlink:href="#DejaVuSans-48"/>
      </g>
     </g>
    </g>
    <g id="xtick_7">
     <g id="line2d_7">
      <g>
       <use style="stroke:#000000;stroke-width:0.8;" x="948.807979" xlink:href="#m9022f2d730" y="640.8"/>
      </g>
     </g>
     <g id="text_7">
      <!-- 700.0 -->
      <defs>
       <path d="M 8.203125 72.90625 
L 55.078125 72.90625 
L 55.078125 68.703125 
L 28.609375 0 
L 18.3125 0 
L 43.21875 64.59375 
L 8.203125 64.59375 
z
" id="DejaVuSans-55"/>
      </defs>
      <g transform="translate(934.493916 655.398438)scale(0.1 -0.1)">
       <use xlink:href="#DejaVuSans-55"/>
       <use x="63.623047" xlink:href="#DejaVuSans-48"/>
       <use x="127.246094" xlink:href="#DejaVuSans-48"/>
       <use x="190.869141" xlink:href="#DejaVuSans-46"/>
       <use x="222.65625" xlink:href="#DejaVuSans-48"/>
      </g>
     </g>
    </g>
    <g id="xtick_8">
     <g id="line2d_8">
      <g>
       <use style="stroke:#000000;stroke-width:0.8;" x="1051.390937" xlink:href="#m9022f2d730" y="640.8"/>
      </g>
     </g>
     <g id="text_8">
      <!-- 800.0 -->
      <defs>
       <path d="M 31.78125 34.625 
Q 24.75 34.625 20.71875 30.859375 
Q 16.703125 27.09375 16.703125 20.515625 
Q 16.703125 13.921875 20.71875 10.15625 
Q 24.75 6.390625 31.78125 6.390625 
Q 38.8125 6.390625 42.859375 10.171875 
Q 46.921875 13.96875 46.921875 20.515625 
Q 46.921875 27.09375 42.890625 30.859375 
Q 38.875 34.625 31.78125 34.625 
z
M 21.921875 38.8125 
Q 15.578125 40.375 12.03125 44.71875 
Q 8.5 49.078125 8.5 55.328125 
Q 8.5 64.0625 14.71875 69.140625 
Q 20.953125 74.21875 31.78125 74.21875 
Q 42.671875 74.21875 48.875 69.140625 
Q 55.078125 64.0625 55.078125 55.328125 
Q 55.078125 49.078125 51.53125 44.71875 
Q 48 40.375 41.703125 38.8125 
Q 48.828125 37.15625 52.796875 32.3125 
Q 56.78125 27.484375 56.78125 20.515625 
Q 56.78125 9.90625 50.3125 4.234375 
Q 43.84375 -1.421875 31.78125 -1.421875 
Q 19.734375 -1.421875 13.25 4.234375 
Q 6.78125 9.90625 6.78125 20.515625 
Q 6.78125 27.484375 10.78125 32.3125 
Q 14.796875 37.15625 21.921875 38.8125 
z
M 18.3125 54.390625 
Q 18.3125 48.734375 21.84375 45.5625 
Q 25.390625 42.390625 31.78125 42.390625 
Q 38.140625 42.390625 41.71875 45.5625 
Q 45.3125 48.734375 45.3125 54.390625 
Q 45.3125 60.0625 41.71875 63.234375 
Q 38.140625 66.40625 31.78125 66.40625 
Q 25.390625 66.40625 21.84375 63.234375 
Q 18.3125 60.0625 18.3125 54.390625 
z
" id="DejaVuSans-56"/>
      </defs>
      <g transform="translate(1037.076874 655.398438)scale(0.1 -0.1)">
       <use xlink:href="#DejaVuSans-56"/>
       <use x="63.623047" xlink:href="#DejaVuSans-48"/>
       <use x="127.246094" xlink:href="#DejaVuSans-48"/>
       <use x="190.869141" xlink:href="#DejaVuSans-46"/>
       <use x="222.65625" xlink:href="#DejaVuSans-48"/>
      </g>
     </g>
    </g>
    <g id="xtick_9">
     <g id="line2d_9">
      <g>
       <use style="stroke:#000000;stroke-width:0.8;" x="1153.973895" xlink:href="#m9022f2d730" y="640.8"/>
      </g>
     </g>
     <g id="text_9">
      <!-- 900.0 -->
      <defs>
       <path d="M 10.984375 1.515625 
L 10.984375 10.5 
Q 14.703125 8.734375 18.5 7.8125 
Q 22.3125 6.890625 25.984375 6.890625 
Q 35.75 6.890625 40.890625 13.453125 
Q 46.046875 20.015625 46.78125 33.40625 
Q 43.953125 29.203125 39.59375 26.953125 
Q 35.25 24.703125 29.984375 24.703125 
Q 19.046875 24.703125 12.671875 31.3125 
Q 6.296875 37.9375 6.296875 49.421875 
Q 6.296875 60.640625 12.9375 67.421875 
Q 19.578125 74.21875 30.609375 74.21875 
Q 43.265625 74.21875 49.921875 64.515625 
Q 56.59375 54.828125 56.59375 36.375 
Q 56.59375 19.140625 48.40625 8.859375 
Q 40.234375 -1.421875 26.421875 -1.421875 
Q 22.703125 -1.421875 18.890625 -0.6875 
Q 15.09375 0.046875 10.984375 1.515625 
z
M 30.609375 32.421875 
Q 37.25 32.421875 41.125 36.953125 
Q 45.015625 41.5 45.015625 49.421875 
Q 45.015625 57.28125 41.125 61.84375 
Q 37.25 66.40625 30.609375 66.40625 
Q 23.96875 66.40625 20.09375 61.84375 
Q 16.21875 57.28125 16.21875 49.421875 
Q 16.21875 41.5 20.09375 36.953125 
Q 23.96875 32.421875 30.609375 32.421875 
z
" id="DejaVuSans-57"/>
      </defs>
      <g transform="translate(1139.659832 655.398438)scale(0.1 -0.1)">
       <use xlink:href="#DejaVuSans-57"/>
       <use x="63.623047" xlink:href="#DejaVuSans-48"/>
       <use x="127.246094" xlink:href="#DejaVuSans-48"/>
       <use x="190.869141" xlink:href="#DejaVuSans-46"/>
       <use x="222.65625" xlink:href="#DejaVuSans-48"/>
      </g>
     </g>
    </g>
    <g id="xtick_10">
     <g id="line2d_10">
      <g>
       <use style="stroke:#000000;stroke-width:0.8;" x="1256.556853" xlink:href="#m9022f2d730" y="640.8"/>
      </g>
     </g>
     <g id="text_10">
      <!-- 1000.0 -->
      <g transform="translate(1239.06154 655.398438)scale(0.1 -0.1)">
       <use xlink:href="#DejaVuSans-49"/>
       <use x="63.623047" xlink:href="#DejaVuSans-48"/>
       <use x="127.246094" xlink:href="#DejaVuSans-48"/>
       <use x="190.869141" xlink:href="#DejaVuSans-48"/>
       <use x="254.492188" xlink:href="#DejaVuSans-46"/>
       <use x="286.279297" xlink:href="#DejaVuSans-48"/>
      </g>
     </g>
    </g>
    <g id="text_11">
     <!-- n -->
     <defs>
      <path d="M 54.890625 33.015625 
L 54.890625 0 
L 45.90625 0 
L 45.90625 32.71875 
Q 45.90625 40.484375 42.875 44.328125 
Q 39.84375 48.1875 33.796875 48.1875 
Q 26.515625 48.1875 22.3125 43.546875 
Q 18.109375 38.921875 18.109375 30.90625 
L 18.109375 0 
L 9.078125 0 
L 9.078125 54.6875 
L 18.109375 54.6875 
L 18.109375 46.1875 
Q 21.34375 51.125 25.703125 53.5625 
Q 30.078125 56 35.796875 56 
Q 45.21875 56 50.046875 50.171875 
Q 54.890625 44.34375 54.890625 33.015625 
z
" id="DejaVuSans-110"/>
     </defs>
     <g transform="translate(734.83125 669.076563)scale(0.1 -0.1)">
      <use xlink:href="#DejaVuSans-110"/>
     </g>
    </g>
   </g>
   <g id="matplotlib.axis_2">
    <g id="ytick_1">
     <g id="line2d_11">
      <defs>
       <path d="M 0 0 
L -3.5 0 
" id="mdbcc1366e8" style="stroke:#000000;stroke-width:0.8;"/>
      </defs>
      <g>
       <use style="stroke:#000000;stroke-width:0.8;" x="180" xlink:href="#mdbcc1366e8" y="524.590956"/>
      </g>
     </g>
     <g id="text_12">
      <!-- 100 -->
      <g transform="translate(153.9125 528.390175)scale(0.1 -0.1)">
       <use xlink:href="#DejaVuSans-49"/>
       <use x="63.623047" xlink:href="#DejaVuSans-48"/>
       <use x="127.246094" xlink:href="#DejaVuSans-48"/>
      </g>
     </g>
    </g>
    <g id="ytick_2">
     <g id="line2d_12">
      <g>
       <use style="stroke:#000000;stroke-width:0.8;" x="180" xlink:href="#mdbcc1366e8" y="407.625042"/>
      </g>
     </g>
     <g id="text_13">
      <!-- 200 -->
      <g transform="translate(153.9125 411.424261)scale(0.1 -0.1)">
       <use xlink:href="#DejaVuSans-50"/>
       <use x="63.623047" xlink:href="#DejaVuSans-48"/>
       <use x="127.246094" xlink:href="#DejaVuSans-48"/>
      </g>
     </g>
    </g>
    <g id="ytick_3">
     <g id="line2d_13">
      <g>
       <use style="stroke:#000000;stroke-width:0.8;" x="180" xlink:href="#mdbcc1366e8" y="290.659129"/>
      </g>
     </g>
     <g id="text_14">
      <!-- 300 -->
      <g transform="translate(153.9125 294.458348)scale(0.1 -0.1)">
       <use xlink:href="#DejaVuSans-51"/>
       <use x="63.623047" xlink:href="#DejaVuSans-48"/>
       <use x="127.246094" xlink:href="#DejaVuSans-48"/>
      </g>
     </g>
    </g>
    <g id="ytick_4">
     <g id="line2d_14">
      <g>
       <use style="stroke:#000000;stroke-width:0.8;" x="180" xlink:href="#mdbcc1366e8" y="173.693216"/>
      </g>
     </g>
     <g id="text_15">
      <!-- 400 -->
      <g transform="translate(153.9125 177.492434)scale(0.1 -0.1)">
       <use xlink:href="#DejaVuSans-52"/>
       <use x="63.623047" xlink:href="#DejaVuSans-48"/>
       <use x="127.246094" xlink:href="#DejaVuSans-48"/>
      </g>
     </g>
    </g>
    <g id="text_16">
     <!-- speedup -->
     <defs>
      <path d="M 44.28125 53.078125 
L 44.28125 44.578125 
Q 40.484375 46.53125 36.375 47.5 
Q 32.28125 48.484375 27.875 48.484375 
Q 21.1875 48.484375 17.84375 46.4375 
Q 14.5 44.390625 14.5 40.28125 
Q 14.5 37.15625 16.890625 35.375 
Q 19.28125 33.59375 26.515625 31.984375 
L 29.59375 31.296875 
Q 39.15625 29.25 43.1875 25.515625 
Q 47.21875 21.78125 47.21875 15.09375 
Q 47.21875 7.46875 41.1875 3.015625 
Q 35.15625 -1.421875 24.609375 -1.421875 
Q 20.21875 -1.421875 15.453125 -0.5625 
Q 10.6875 0.296875 5.421875 2 
L 5.421875 11.28125 
Q 10.40625 8.6875 15.234375 7.390625 
Q 20.0625 6.109375 24.8125 6.109375 
Q 31.15625 6.109375 34.5625 8.28125 
Q 37.984375 10.453125 37.984375 14.40625 
Q 37.984375 18.0625 35.515625 20.015625 
Q 33.0625 21.96875 24.703125 23.78125 
L 21.578125 24.515625 
Q 13.234375 26.265625 9.515625 29.90625 
Q 5.8125 33.546875 5.8125 39.890625 
Q 5.8125 47.609375 11.28125 51.796875 
Q 16.75 56 26.8125 56 
Q 31.78125 56 36.171875 55.265625 
Q 40.578125 54.546875 44.28125 53.078125 
z
" id="DejaVuSans-115"/>
      <path d="M 18.109375 8.203125 
L 18.109375 -20.796875 
L 9.078125 -20.796875 
L 9.078125 54.6875 
L 18.109375 54.6875 
L 18.109375 46.390625 
Q 20.953125 51.265625 25.265625 53.625 
Q 29.59375 56 35.59375 56 
Q 45.5625 56 51.78125 48.09375 
Q 58.015625 40.1875 58.015625 27.296875 
Q 58.015625 14.40625 51.78125 6.484375 
Q 45.5625 -1.421875 35.59375 -1.421875 
Q 29.59375 -1.421875 25.265625 0.953125 
Q 20.953125 3.328125 18.109375 8.203125 
z
M 48.6875 27.296875 
Q 48.6875 37.203125 44.609375 42.84375 
Q 40.53125 48.484375 33.40625 48.484375 
Q 26.265625 48.484375 22.1875 42.84375 
Q 18.109375 37.203125 18.109375 27.296875 
Q 18.109375 17.390625 22.1875 11.75 
Q 26.265625 6.109375 33.40625 6.109375 
Q 40.53125 6.109375 44.609375 11.75 
Q 48.6875 17.390625 48.6875 27.296875 
z
" id="DejaVuSans-112"/>
      <path d="M 56.203125 29.59375 
L 56.203125 25.203125 
L 14.890625 25.203125 
Q 15.484375 15.921875 20.484375 11.0625 
Q 25.484375 6.203125 34.421875 6.203125 
Q 39.59375 6.203125 44.453125 7.46875 
Q 49.3125 8.734375 54.109375 11.28125 
L 54.109375 2.78125 
Q 49.265625 0.734375 44.1875 -0.34375 
Q 39.109375 -1.421875 33.890625 -1.421875 
Q 20.796875 -1.421875 13.15625 6.1875 
Q 5.515625 13.8125 5.515625 26.8125 
Q 5.515625 40.234375 12.765625 48.109375 
Q 20.015625 56 32.328125 56 
Q 43.359375 56 49.78125 48.890625 
Q 56.203125 41.796875 56.203125 29.59375 
z
M 47.21875 32.234375 
Q 47.125 39.59375 43.09375 43.984375 
Q 39.0625 48.390625 32.421875 48.390625 
Q 24.90625 48.390625 20.390625 44.140625 
Q 15.875 39.890625 15.1875 32.171875 
z
" id="DejaVuSans-101"/>
      <path d="M 45.40625 46.390625 
L 45.40625 75.984375 
L 54.390625 75.984375 
L 54.390625 0 
L 45.40625 0 
L 45.40625 8.203125 
Q 42.578125 3.328125 38.25 0.953125 
Q 33.9375 -1.421875 27.875 -1.421875 
Q 17.96875 -1.421875 11.734375 6.484375 
Q 5.515625 14.40625 5.515625 27.296875 
Q 5.515625 40.1875 11.734375 48.09375 
Q 17.96875 56 27.875 56 
Q 33.9375 56 38.25 53.625 
Q 42.578125 51.265625 45.40625 46.390625 
z
M 14.796875 27.296875 
Q 14.796875 17.390625 18.875 11.75 
Q 22.953125 6.109375 30.078125 6.109375 
Q 37.203125 6.109375 41.296875 11.75 
Q 45.40625 17.390625 45.40625 27.296875 
Q 45.40625 37.203125 41.296875 42.84375 
Q 37.203125 48.484375 30.078125 48.484375 
Q 22.953125 48.484375 18.875 42.84375 
Q 14.796875 37.203125 14.796875 27.296875 
z
" id="DejaVuSans-100"/>
      <path d="M 8.5 21.578125 
L 8.5 54.6875 
L 17.484375 54.6875 
L 17.484375 21.921875 
Q 17.484375 14.15625 20.5 10.265625 
Q 23.53125 6.390625 29.59375 6.390625 
Q 36.859375 6.390625 41.078125 11.03125 
Q 45.3125 15.671875 45.3125 23.6875 
L 45.3125 54.6875 
L 54.296875 54.6875 
L 54.296875 0 
L 45.3125 0 
L 45.3125 8.40625 
Q 42.046875 3.421875 37.71875 1 
Q 33.40625 -1.421875 27.6875 -1.421875 
Q 18.265625 -1.421875 13.375 4.4375 
Q 8.5 10.296875 8.5 21.578125 
z
M 31.109375 56 
z
" id="DejaVuSans-117"/>
     </defs>
     <g transform="translate(147.832812 385.049219)rotate(-90)scale(0.1 -0.1)">
      <use xlink:href="#DejaVuSans-115"/>
      <use x="52.099609" xlink:href="#DejaVuSans-112"/>
      <use x="115.576172" xlink:href="#DejaVuSans-101"/>
      <use x="177.099609" xlink:href="#DejaVuSans-101"/>
      <use x="238.623047" xlink:href="#DejaVuSans-100"/>
      <use x="302.099609" xlink:href="#DejaVuSans-117"/>
      <use x="365.478516" xlink:href="#DejaVuSans-112"/>
     </g>
    </g>
   </g>
   <g id="line2d_15">
    <path clip-path="url(#p82e718255a)" d="M 230.727273 281.059349 
L 231.753102 347.439535 
L 232.778932 111.6 
L 233.804761 373.689835 
L 234.830591 165.354375 
L 235.856421 380.591173 
L 236.88225 167.44107 
L 237.90808 181.472557 
L 238.933909 188.528706 
L 239.959739 198.297962 
L 240.985569 197.608147 
L 242.011398 234.135695 
L 243.037228 222.58048 
L 244.063057 391.214918 
L 245.088887 240.812029 
L 246.114716 240.894172 
L 247.140546 258.876744 
L 248.166376 265.485902 
L 250.218035 281.520303 
L 251.243864 293.576661 
L 252.269694 313.219532 
L 253.295523 298.233596 
L 254.321353 301.456246 
L 255.347183 333.040033 
L 256.373012 312.391347 
L 258.424671 326.622007 
L 259.450501 322.386171 
L 260.476331 351.283264 
L 261.50216 320.63374 
L 262.52799 338.287741 
L 263.553819 352.26284 
L 264.579649 350.202944 
L 265.605478 356.769105 
L 266.631308 351.5953 
L 267.657138 372.561385 
L 268.682967 360.268317 
L 269.708797 360.458487 
L 270.734626 325.291282 
L 271.760456 383.098429 
L 272.786286 363.838402 
L 273.812115 374.975859 
L 274.837945 379.997759 
L 275.863774 386.005215 
L 276.889604 373.987048 
L 277.915433 384.526815 
L 278.941263 381.508877 
L 279.967093 398.259645 
L 280.992922 352.521495 
L 282.018752 402.450759 
L 283.044581 395.220626 
L 284.070411 407.931496 
L 285.09624 396.065733 
L 286.12207 401.030594 
L 287.1479 411.361233 
L 288.173729 392.588665 
L 289.199559 399.983447 
L 290.225388 383.500275 
L 291.251218 362.133595 
L 292.277048 376.605967 
L 293.302877 364.533694 
L 294.328707 330.484739 
L 295.354536 404.288262 
L 296.380366 424.569339 
L 297.406195 363.773782 
L 298.432025 381.268523 
L 299.457855 358.401448 
L 300.483684 381.628626 
L 301.509514 381.5351 
L 302.535343 344.736219 
L 303.561173 344.789963 
L 304.587002 376.722237 
L 305.612832 394.90651 
L 306.638662 381.895576 
L 307.664491 355.7894 
L 308.690321 429.382654 
L 309.71615 358.036688 
L 310.74198 384.52333 
L 311.76781 378.197382 
L 312.793639 383.948384 
L 313.819469 386.953486 
L 314.845298 370.812094 
L 315.871128 472.866023 
L 316.896957 377.836445 
L 317.922787 373.49364 
L 318.948617 371.000319 
L 319.974446 363.034081 
L 321.000276 402.941902 
L 322.026105 367.600692 
L 323.051935 389.326054 
L 324.077765 396.305249 
L 325.103594 394.689456 
L 326.129424 378.402256 
L 327.155253 394.839468 
L 328.181083 441.473106 
L 329.206912 402.826609 
L 330.232742 385.50096 
L 331.258572 478.172447 
L 332.284401 413.790895 
L 333.310231 399.343186 
L 334.33606 388.884794 
L 335.36189 409.995279 
L 336.387719 418.300593 
L 337.413549 433.70834 
L 338.439379 417.198627 
L 339.465208 412.151255 
L 340.491038 411.731636 
L 341.516867 407.912932 
L 342.542697 409.073455 
L 343.568527 414.327427 
L 344.594356 408.631146 
L 345.620186 418.699982 
L 346.646015 401.283847 
L 347.671845 398.12167 
L 348.697674 413.520582 
L 349.723504 419.10748 
L 350.749334 418.969856 
L 351.775163 437.349127 
L 352.800993 423.715748 
L 353.826822 407.736424 
L 354.852652 421.885053 
L 355.878481 451.077295 
L 356.904311 378.286802 
L 357.930141 453.602519 
L 358.95597 452.934768 
L 359.9818 452.104533 
L 361.007629 463.219525 
L 362.033459 448.364824 
L 363.059289 471.128322 
L 364.085118 424.472917 
L 365.110948 465.293957 
L 366.136777 466.384498 
L 367.162607 421.143886 
L 368.188436 503.527184 
L 369.214266 433.986399 
L 370.240096 441.78271 
L 371.265925 426.395595 
L 372.291755 429.22471 
L 373.317584 443.931868 
L 374.343414 460.601191 
L 375.369243 441.702788 
L 376.395073 445.917745 
L 377.420903 460.94999 
L 378.446732 463.062878 
L 379.472562 439.174492 
L 380.498391 444.60646 
L 381.524221 431.23321 
L 382.550051 444.270457 
L 383.57588 453.144789 
L 384.60171 445.546949 
L 385.627539 441.541285 
L 386.653369 446.127301 
L 387.679198 457.411865 
L 388.705028 439.056549 
L 389.730858 454.718219 
L 390.756687 460.892543 
L 391.782517 456.153955 
L 392.808346 490.116693 
L 393.834176 469.800991 
L 394.860006 475.8831 
L 395.885835 450.936291 
L 396.911665 443.216629 
L 397.937494 492.700578 
L 398.963324 476.351436 
L 399.989153 463.587157 
L 401.014983 448.264282 
L 402.040813 459.241421 
L 403.066642 452.779935 
L 404.092472 450.657615 
L 405.118301 461.267782 
L 406.144131 440.546375 
L 407.16996 458.604188 
L 408.19579 438.553 
L 409.22162 449.301136 
L 410.247449 461.714219 
L 411.273279 451.855858 
L 412.299108 469.493363 
L 413.324938 467.779089 
L 414.350768 455.505854 
L 415.376597 456.916793 
L 416.402427 448.087107 
L 417.428256 464.130068 
L 418.454086 467.692075 
L 419.479915 467.779436 
L 420.505745 474.191118 
L 421.531575 469.796221 
L 422.557404 463.639949 
L 423.583234 459.646769 
L 424.609063 474.7931 
L 425.634893 481.128596 
L 426.660722 479.321742 
L 427.686552 463.54604 
L 428.712382 465.127305 
L 429.738211 485.005353 
L 430.764041 482.747578 
L 431.78987 487.148627 
L 433.84153 483.596036 
L 434.867359 483.877182 
L 435.893189 484.551811 
L 436.919018 487.487575 
L 437.944848 485.671103 
L 438.970677 489.153399 
L 439.996507 491.362762 
L 441.022337 484.712988 
L 442.048166 493.755704 
L 443.073996 488.423373 
L 444.099825 491.661827 
L 445.125655 475.140423 
L 446.151485 490.764331 
L 447.177314 481.275685 
L 448.203144 492.578684 
L 450.254803 482.985525 
L 451.280632 496.769683 
L 452.306462 494.198413 
L 453.332292 495.488054 
L 454.358121 487.427944 
L 455.383951 491.358588 
L 456.40978 490.33647 
L 457.43561 497.192716 
L 458.461439 497.94114 
L 459.487269 499.45846 
L 460.513099 498.156953 
L 461.538928 496.128716 
L 462.564758 492.083539 
L 463.590587 493.342355 
L 464.616417 494.291608 
L 465.642247 500.137326 
L 466.668076 486.432916 
L 469.745565 473.688529 
L 470.771394 503.862823 
L 471.797224 488.40556 
L 472.823054 498.562487 
L 473.848883 472.51525 
L 475.900542 489.252046 
L 476.926372 486.02969 
L 477.952201 525.25958 
L 478.978031 486.192634 
L 480.003861 482.262203 
L 481.02969 475.765004 
L 482.05552 496.32789 
L 483.081349 507.001506 
L 484.107179 485.71177 
L 485.133009 476.7788 
L 486.158838 494.745746 
L 487.184668 500.419584 
L 488.210497 501.445662 
L 489.236327 486.870728 
L 490.262156 479.315798 
L 491.287986 484.424073 
L 492.313816 487.144122 
L 493.339645 482.030638 
L 494.365475 495.049844 
L 495.391304 497.129132 
L 496.417134 498.627082 
L 497.442964 489.501756 
L 498.468793 507.172342 
L 499.494623 499.553911 
L 500.520452 485.09526 
L 501.546282 492.799073 
L 502.572111 503.587473 
L 503.597941 504.469191 
L 504.623771 515.702989 
L 505.6496 510.074687 
L 506.67543 508.275853 
L 507.701259 511.053085 
L 508.727089 490.313023 
L 509.752918 496.88705 
L 510.778748 500.214125 
L 511.804578 498.698571 
L 512.830407 498.783053 
L 513.856237 519.428634 
L 514.882066 493.065409 
L 515.907896 493.518808 
L 516.933726 496.532714 
L 517.959555 493.96883 
L 518.985385 493.815907 
L 520.011214 497.210046 
L 521.037044 502.442054 
L 522.062873 500.182207 
L 523.088703 493.578903 
L 524.114533 503.555928 
L 525.140362 514.882296 
L 526.166192 536.889017 
L 527.192021 501.106786 
L 528.217851 504.182124 
L 529.24368 506.553624 
L 530.26951 495.985101 
L 531.29534 499.717397 
L 532.321169 506.136858 
L 533.346999 505.762554 
L 534.372828 499.51976 
L 535.398658 506.079401 
L 536.424488 510.644049 
L 537.450317 501.152252 
L 538.476147 511.615654 
L 539.501976 505.409404 
L 540.527806 509.324944 
L 541.553635 541.923531 
L 542.579465 495.240793 
L 543.605295 500.629134 
L 544.631124 512.47544 
L 545.656954 504.702047 
L 546.682783 501.847468 
L 547.708613 504.848144 
L 548.734443 518.931358 
L 549.760272 499.303576 
L 550.786102 503.924639 
L 551.811931 512.623805 
L 553.86359 501.093136 
L 554.88942 525.590556 
L 555.91525 521.481135 
L 556.941079 518.686359 
L 557.966909 523.720845 
L 558.992738 509.154853 
L 560.018568 527.946515 
L 561.044397 509.618726 
L 562.070227 504.109361 
L 563.096057 554.984648 
L 564.121886 511.619266 
L 565.147716 526.581226 
L 566.173545 524.038826 
L 567.199375 509.630152 
L 568.225205 525.645918 
L 569.251034 531.039152 
L 570.276864 527.098767 
L 571.302693 543.452632 
L 572.328523 527.924985 
L 573.354352 526.558916 
L 574.380182 506.87222 
L 575.406012 512.914317 
L 576.431841 512.388053 
L 577.457671 516.484304 
L 578.4835 514.410732 
L 579.50933 514.432821 
L 580.535159 511.504862 
L 581.560989 511.232761 
L 582.586819 558.584725 
L 583.612648 513.537641 
L 584.638478 543.630712 
L 585.664307 518.696154 
L 586.690137 509.166873 
L 587.715967 539.605166 
L 588.741796 509.243395 
L 589.767626 520.112167 
L 590.793455 527.269875 
L 591.819285 523.383557 
L 592.845114 509.520144 
L 593.870944 515.637332 
L 594.896774 528.301758 
L 595.922603 518.976509 
L 596.948433 524.386861 
L 597.974262 541.064211 
L 599.000092 514.965552 
L 600.025922 530.744594 
L 601.051751 518.756844 
L 602.077581 524.618887 
L 603.10341 514.169821 
L 604.12924 520.459635 
L 605.155069 522.412827 
L 606.180899 523.840779 
L 608.232558 541.602317 
L 609.258388 531.270865 
L 610.284217 529.840926 
L 611.310047 518.13715 
L 612.335876 513.81454 
L 613.361706 543.11191 
L 614.387536 535.247697 
L 615.413365 526.076666 
L 616.439195 530.267143 
L 617.465024 524.935135 
L 618.490854 536.979821 
L 619.516684 527.651518 
L 620.542513 521.327548 
L 621.568343 524.547623 
L 622.594172 526.141075 
L 623.620002 530.333418 
L 624.645831 516.10596 
L 625.671661 548.434004 
L 626.697491 538.048987 
L 627.72332 529.79928 
L 628.74915 531.901826 
L 629.774979 520.174406 
L 630.800809 527.336789 
L 631.826638 522.129035 
L 632.852468 535.527771 
L 633.878298 527.117567 
L 634.904127 525.029934 
L 635.929957 522.59226 
L 636.955786 521.921321 
L 637.981616 523.56366 
L 639.007446 550.534632 
L 640.033275 533.215547 
L 641.059105 537.301512 
L 642.084934 537.377669 
L 643.110764 530.5778 
L 644.136593 529.04179 
L 645.162423 530.6906 
L 646.188253 538.392273 
L 647.214082 534.808314 
L 648.239912 536.520415 
L 649.265741 528.146365 
L 650.291571 523.571191 
L 651.3174 538.51569 
L 652.34323 534.299392 
L 653.36906 555.372236 
L 654.394889 528.828535 
L 655.420719 533.981121 
L 656.446548 525.003564 
L 657.472378 526.079764 
L 658.498208 545.665423 
L 659.524037 538.656936 
L 660.549867 528.706022 
L 661.575696 527.257257 
L 662.601526 526.387689 
L 663.627355 533.336239 
L 664.653185 533.346452 
L 665.679015 537.236514 
L 666.704844 535.825492 
L 667.730674 539.785705 
L 668.756503 533.135632 
L 669.782333 530.482137 
L 671.833992 535.482797 
L 672.859822 534.364935 
L 673.885651 531.240095 
L 674.911481 536.738531 
L 675.93731 536.859654 
L 676.96314 532.871063 
L 677.98897 530.975333 
L 679.014799 530.51935 
L 680.040629 538.20771 
L 681.066458 532.999211 
L 683.118117 538.863059 
L 684.143947 541.698778 
L 685.169777 544.005492 
L 686.195606 515.127522 
L 687.221436 541.962102 
L 688.247265 547.423358 
L 689.273095 537.026559 
L 690.298925 537.290582 
L 691.324754 538.425619 
L 693.376413 545.170041 
L 694.402243 535.450619 
L 696.453902 542.371065 
L 697.479732 544.023592 
L 698.505561 570.471901 
L 699.531391 545.434857 
L 700.55722 546.112176 
L 702.608879 539.396395 
L 704.660539 547.581945 
L 705.686368 541.992571 
L 706.712198 540.702624 
L 707.738027 543.883094 
L 708.763857 545.874222 
L 709.789687 553.396624 
L 710.815516 543.132868 
L 711.841346 539.739939 
L 712.867175 545.173585 
L 713.893005 538.90729 
L 714.918834 546.708211 
L 715.944664 539.433739 
L 716.970494 546.699701 
L 719.022153 540.787458 
L 720.047982 557.239652 
L 721.073812 543.973194 
L 722.099642 568.925358 
L 723.125471 544.594278 
L 724.151301 541.713843 
L 725.17713 548.39924 
L 726.20296 540.628172 
L 727.228789 543.51729 
L 728.254619 540.820574 
L 729.280449 549.673473 
L 730.306278 546.291212 
L 731.332108 546.313518 
L 732.357937 544.551592 
L 733.383767 548.875381 
L 734.409596 545.530244 
L 735.435426 554.823613 
L 736.461256 542.985525 
L 737.487085 553.247239 
L 738.512915 547.085533 
L 739.538744 548.504677 
L 740.564574 544.600344 
L 741.590404 547.824566 
L 742.616233 544.677985 
L 743.642063 545.641579 
L 744.667892 541.434427 
L 745.693722 557.505874 
L 746.719551 551.058627 
L 747.745381 553.434199 
L 748.771211 547.17771 
L 749.79704 551.243545 
L 750.82287 543.766638 
L 751.848699 545.83651 
L 752.874529 551.454157 
L 753.900358 541.212924 
L 754.926188 547.969458 
L 755.952018 548.796034 
L 756.977847 548.134859 
L 758.003677 559.100009 
L 759.029506 545.720549 
L 760.055336 544.818531 
L 761.081166 547.806604 
L 762.106995 549.192511 
L 763.132825 554.327366 
L 764.158654 548.971299 
L 765.184484 546.782046 
L 766.210313 552.835589 
L 767.236143 545.251269 
L 768.261973 549.351541 
L 769.287802 558.450889 
L 770.313632 576.003368 
L 771.339461 551.736506 
L 772.365291 549.607344 
L 773.391121 545.717269 
L 774.41695 554.217509 
L 775.44278 550.909597 
L 776.468609 554.75345 
L 777.494439 550.304217 
L 778.520268 557.179555 
L 779.546098 552.571055 
L 780.571928 550.007564 
L 781.597757 553.489769 
L 782.623587 553.400211 
L 783.649416 552.819743 
L 784.675246 548.949869 
L 785.701075 555.361411 
L 786.726905 555.571042 
L 787.752735 551.366483 
L 788.778564 551.817023 
L 789.804394 551.50993 
L 790.830223 555.579692 
L 791.856053 550.391115 
L 792.881883 550.526845 
L 793.907712 556.316362 
L 794.933542 555.454985 
L 795.959371 562.228691 
L 796.985201 556.719586 
L 798.01103 551.870104 
L 799.03686 556.090172 
L 800.06269 553.546306 
L 801.088519 554.92117 
L 802.114349 554.481304 
L 803.140178 558.721745 
L 804.166008 552.651326 
L 805.191837 557.716678 
L 806.217667 552.603499 
L 807.243497 557.73827 
L 808.269326 553.766279 
L 809.295156 557.328842 
L 810.320985 557.642864 
L 811.346815 555.75722 
L 812.372645 555.531833 
L 813.398474 556.120317 
L 814.424304 554.441577 
L 815.450133 559.806876 
L 816.475963 554.378225 
L 817.501792 550.84126 
L 818.527622 555.569125 
L 819.553452 556.13049 
L 820.579281 552.739418 
L 821.605111 553.263001 
L 822.63094 555.262326 
L 823.65677 561.797933 
L 824.6826 557.774166 
L 825.708429 559.108174 
L 826.734259 558.955708 
L 827.760088 562.560376 
L 828.785918 553.738491 
L 829.811747 556.159695 
L 830.837577 556.802092 
L 831.863407 561.861555 
L 832.889236 556.084307 
L 833.915066 556.975977 
L 834.940895 558.630003 
L 835.966725 560.693153 
L 836.992554 558.904412 
L 838.018384 556.797619 
L 839.044214 561.541877 
L 840.070043 562.434587 
L 841.095873 555.190388 
L 842.121702 561.371989 
L 843.147532 560.074742 
L 844.173362 561.741291 
L 845.199191 555.100117 
L 846.225021 558.974986 
L 847.25085 561.371576 
L 848.27668 562.91208 
L 849.302509 560.706289 
L 850.328339 560.627742 
L 851.354169 563.551681 
L 852.379998 564.839032 
L 853.405828 563.552199 
L 854.431657 560.752187 
L 855.457487 549.256297 
L 856.483316 563.143808 
L 857.509146 556.808907 
L 858.534976 566.53699 
L 859.560805 557.920029 
L 860.586635 563.47926 
L 861.612464 557.416246 
L 862.638294 558.959748 
L 863.664124 558.127235 
L 864.689953 561.769594 
L 866.741612 556.562585 
L 867.767442 559.994135 
L 868.793271 565.56193 
L 869.819101 557.782335 
L 870.844931 559.541469 
L 871.87076 559.484515 
L 872.89659 564.162395 
L 873.922419 563.23257 
L 874.948249 559.920613 
L 875.974078 558.748821 
L 876.999908 564.83313 
L 878.025738 560.460316 
L 879.051567 560.844474 
L 880.077397 560.925319 
L 881.103226 567.288459 
L 882.129056 560.553675 
L 883.154886 561.417043 
L 885.206545 567.612527 
L 886.232374 565.452262 
L 887.258204 561.930432 
L 888.284033 559.810171 
L 889.309863 578.743045 
L 890.335693 566.587751 
L 891.361522 573.330493 
L 892.387352 561.086488 
L 893.413181 561.792993 
L 894.439011 561.339652 
L 895.464841 562.912737 
L 896.49067 563.761295 
L 897.5165 566.937486 
L 898.542329 565.635759 
L 899.568159 568.488185 
L 900.593988 566.478043 
L 901.619818 567.402033 
L 903.671477 560.533871 
L 904.697307 566.591403 
L 905.723136 569.144304 
L 906.748966 562.167864 
L 907.774795 566.108467 
L 908.800625 554.504417 
L 909.826455 568.57221 
L 910.852284 563.749739 
L 912.903943 567.890031 
L 913.929773 570.999602 
L 914.955603 565.448363 
L 915.981432 565.326399 
L 917.007262 569.508091 
L 918.033091 571.268861 
L 919.058921 568.302136 
L 920.08475 565.882908 
L 921.11058 568.758403 
L 922.13641 570.884056 
L 923.162239 568.760196 
L 924.188069 568.865004 
L 925.213898 566.289054 
L 926.239728 570.994403 
L 927.265557 566.656068 
L 928.291387 566.766031 
L 929.317217 565.829218 
L 930.343046 571.359054 
L 931.368876 565.440439 
L 932.394705 563.575294 
L 934.446365 571.169098 
L 935.472194 566.639195 
L 936.498024 567.266691 
L 937.523853 567.667698 
L 938.549683 570.607556 
L 939.575512 565.227768 
L 940.601342 567.553504 
L 941.627172 564.471455 
L 942.653001 570.869951 
L 943.678831 569.071546 
L 944.70466 566.282453 
L 945.73049 577.48789 
L 946.75632 569.740037 
L 947.782149 568.209557 
L 948.807979 567.143338 
L 949.833808 568.876828 
L 950.859638 571.246851 
L 951.885467 568.136657 
L 952.911297 566.314617 
L 954.962956 571.843552 
L 955.988786 571.723433 
L 957.014615 568.839168 
L 958.040445 571.525202 
L 959.066274 573.019546 
L 960.092104 564.395524 
L 961.117934 571.904954 
L 962.143763 571.162986 
L 963.169593 572.913563 
L 964.195422 568.279519 
L 965.221252 568.006317 
L 966.247082 569.436221 
L 967.272911 580.385223 
L 968.298741 571.350878 
L 969.32457 567.216285 
L 971.376229 573.128714 
L 972.402059 568.068337 
L 973.427889 569.336906 
L 974.453718 568.650399 
L 975.479548 572.339879 
L 976.505377 570.214874 
L 977.531207 569.651102 
L 978.557036 568.22326 
L 979.582866 573.478636 
L 980.608696 568.066749 
L 981.634525 570.768864 
L 982.660355 568.548776 
L 984.712014 577.721437 
L 985.737844 569.844521 
L 986.763673 570.079389 
L 987.789503 572.738038 
L 988.815332 569.316629 
L 989.841162 570.120884 
L 990.866991 568.92123 
L 991.892821 575.439937 
L 992.918651 571.067255 
L 993.94448 571.219021 
L 994.97031 570.02998 
L 995.996139 572.513868 
L 997.021969 569.124567 
L 998.047799 569.337614 
L 999.073628 570.512279 
L 1000.099458 574.888749 
L 1001.125287 570.119317 
L 1002.151117 573.436042 
L 1003.176946 570.081951 
L 1004.202776 581.03259 
L 1005.228606 573.278621 
L 1006.254435 573.509805 
L 1007.280265 573.525044 
L 1008.306094 574.704722 
L 1009.331924 565.575503 
L 1010.357753 574.395925 
L 1011.383583 573.214078 
L 1012.409413 576.136945 
L 1013.435242 572.620778 
L 1014.461072 571.567829 
L 1015.486901 574.053126 
L 1016.512731 575.530213 
L 1017.538561 573.118061 
L 1019.59022 570.729693 
L 1020.616049 575.123149 
L 1021.641879 574.822744 
L 1022.667708 569.130115 
L 1023.693538 573.405344 
L 1024.719368 575.308345 
L 1025.745197 572.893446 
L 1026.771027 573.845061 
L 1027.796856 572.933384 
L 1028.822686 575.993444 
L 1029.848515 571.912151 
L 1030.874345 573.251302 
L 1031.900175 572.981508 
L 1032.926004 576.43671 
L 1034.977663 572.907301 
L 1036.003493 573.854165 
L 1037.029323 575.553912 
L 1038.055152 576.052069 
L 1039.080982 574.124098 
L 1040.106811 574.259733 
L 1041.132641 577.609661 
L 1042.15847 574.53065 
L 1043.1843 573.816752 
L 1044.21013 582.437399 
L 1045.235959 578.900472 
L 1046.261789 574.275963 
L 1047.287618 574.736007 
L 1048.313448 578.318034 
L 1049.339278 575.926472 
L 1051.390937 573.161139 
L 1053.442596 575.548139 
L 1054.468425 575.239609 
L 1055.494255 575.238563 
L 1056.520085 572.069748 
L 1057.545914 578.693659 
L 1059.597573 574.739945 
L 1060.623403 576.049182 
L 1061.649232 580.332979 
L 1062.675062 573.92081 
L 1063.700892 576.028287 
L 1064.726721 575.392245 
L 1065.752551 578.278921 
L 1066.77838 574.626723 
L 1067.80421 575.264518 
L 1068.83004 577.765885 
L 1069.855869 577.660597 
L 1070.881699 576.322174 
L 1071.907528 572.910381 
L 1072.933358 576.613784 
L 1073.959187 577.743105 
L 1074.985017 580.538985 
L 1077.036676 574.602225 
L 1078.062506 579.829749 
L 1079.088335 577.787376 
L 1080.114165 577.686772 
L 1081.139994 579.013711 
L 1082.165824 578.828949 
L 1084.217483 577.966647 
L 1085.243313 578.472302 
L 1086.269142 579.736697 
L 1087.294972 575.669811 
L 1088.320802 577.03584 
L 1089.346631 575.415499 
L 1090.372461 578.585329 
L 1091.39829 578.957084 
L 1092.42412 577.452516 
L 1093.449949 578.46202 
L 1094.475779 579.948977 
L 1095.501609 576.416277 
L 1096.527438 576.05834 
L 1097.553268 577.286297 
L 1098.579097 589.24454 
L 1099.604927 576.251254 
L 1100.630757 576.541646 
L 1101.656586 578.033813 
L 1102.682416 581.561642 
L 1103.708245 577.325727 
L 1104.734075 579.221889 
L 1105.759904 578.760348 
L 1106.785734 581.092659 
L 1108.837393 576.569167 
L 1109.863223 577.253086 
L 1110.889052 580.410949 
L 1112.940711 575.327052 
L 1113.966541 577.929022 
L 1114.992371 581.242444 
L 1116.0182 581.339511 
L 1117.04403 577.913324 
L 1118.069859 578.138181 
L 1119.095689 581.05208 
L 1120.121519 578.355297 
L 1121.147348 580.133102 
L 1122.173178 576.648181 
L 1123.199007 581.928926 
L 1124.224837 583.315666 
L 1125.250666 578.728739 
L 1126.276496 578.728946 
L 1127.302326 582.039556 
L 1128.328155 578.232911 
L 1129.353985 578.271121 
L 1130.379814 578.891586 
L 1131.405644 581.893906 
L 1132.431473 577.384303 
L 1133.457303 580.609004 
L 1134.483133 579.14717 
L 1135.508962 581.314998 
L 1137.560621 577.449174 
L 1138.586451 579.218419 
L 1139.612281 581.760322 
L 1140.63811 577.315151 
L 1141.66394 586.615781 
L 1142.689769 577.285494 
L 1143.715599 581.865576 
L 1144.741428 579.462298 
L 1145.767258 578.146146 
L 1146.793088 579.37045 
L 1147.818917 581.988661 
L 1148.844747 588.114458 
L 1149.870576 580.781984 
L 1150.896406 580.042092 
L 1151.922235 583.273066 
L 1152.948065 579.67574 
L 1153.973895 580.102751 
L 1154.999724 572.183327 
L 1156.025554 581.103658 
L 1157.051383 578.718597 
L 1158.077213 579.388402 
L 1159.103043 580.457757 
L 1160.128872 582.441032 
L 1161.154702 580.002092 
L 1162.180531 583.722735 
L 1163.206361 580.497487 
L 1164.23219 582.747413 
L 1165.25802 581.188167 
L 1166.28385 581.802057 
L 1167.309679 583.185485 
L 1168.335509 583.650601 
L 1170.387168 581.89678 
L 1171.412998 578.750249 
L 1172.438827 583.614815 
L 1173.464657 579.403488 
L 1174.490486 580.373434 
L 1175.516316 581.041491 
L 1176.542145 583.67024 
L 1177.567975 581.718391 
L 1178.593805 580.315661 
L 1179.619634 579.459052 
L 1180.645464 581.690399 
L 1181.671293 579.953216 
L 1182.697123 579.617571 
L 1183.722952 580.874039 
L 1184.748782 584.840542 
L 1185.774612 580.315056 
L 1186.800441 580.825971 
L 1187.826271 582.038618 
L 1188.8521 584.679178 
L 1189.87793 581.048441 
L 1190.90376 579.9379 
L 1191.929589 580.884135 
L 1192.955419 583.903209 
L 1193.981248 581.73727 
L 1195.007078 581.687978 
L 1196.032907 582.803447 
L 1197.058737 587.434991 
L 1198.084567 583.090529 
L 1199.110396 582.706994 
L 1200.136226 582.836571 
L 1201.162055 583.638794 
L 1202.187885 582.288435 
L 1203.213714 582.43486 
L 1204.239544 587.512677 
L 1205.265374 585.46454 
L 1206.291203 581.893807 
L 1207.317033 583.19351 
L 1208.342862 583.420157 
L 1209.368692 584.287227 
L 1210.394522 581.85564 
L 1211.420351 582.567928 
L 1212.446181 582.83084 
L 1213.47201 583.890478 
L 1215.523669 583.282974 
L 1216.549499 584.514475 
L 1217.575329 584.052627 
L 1218.601158 583.331831 
L 1219.626988 580.914482 
L 1220.652817 582.481591 
L 1221.678647 584.49066 
L 1222.704477 582.053878 
L 1223.730306 581.132605 
L 1224.756136 582.676941 
L 1225.781965 586.923503 
L 1226.807795 582.555479 
L 1227.833624 581.275433 
L 1228.859454 584.902576 
L 1229.885284 584.819781 
L 1230.911113 583.816294 
L 1231.936943 585.302388 
L 1232.962772 582.712899 
L 1233.988602 585.626464 
L 1235.014431 575.318029 
L 1236.040261 584.146288 
L 1237.066091 582.024783 
L 1238.09192 585.669252 
L 1239.11775 581.700974 
L 1240.143579 583.83812 
L 1241.169409 581.7776 
L 1242.195239 586.416367 
L 1243.221068 583.320676 
L 1244.246898 585.168991 
L 1245.272727 583.563265 
L 1245.272727 583.563265 
" style="fill:none;stroke:#1f77b4;stroke-linecap:square;stroke-width:1.5;"/>
   </g>
   <g id="line2d_16">
    <path clip-path="url(#p82e718255a)" d="M 230.727273 228.591631 
L 231.753102 156.473152 
L 232.778932 159.82744 
L 233.804761 249.152488 
L 234.830591 221.664338 
L 235.856421 214.48852 
L 236.88225 251.859072 
L 237.90808 241.248404 
L 238.933909 247.184699 
L 239.959739 243.468949 
L 240.985569 255.551695 
L 242.011398 255.663344 
L 243.037228 272.640308 
L 244.063057 264.168569 
L 245.088887 303.30028 
L 246.114716 276.131323 
L 247.140546 287.486083 
L 249.192205 320.061578 
L 250.218035 337.054498 
L 251.243864 330.14861 
L 252.269694 266.004431 
L 253.295523 324.069201 
L 254.321353 335.066234 
L 255.347183 338.177013 
L 256.373012 344.40723 
L 257.398842 353.088332 
L 258.424671 339.894672 
L 259.450501 282.456485 
L 260.476331 359.724423 
L 261.50216 359.648984 
L 262.52799 330.241771 
L 263.553819 337.059712 
L 264.579649 335.502181 
L 265.605478 317.566615 
L 266.631308 355.707307 
L 267.657138 335.12381 
L 268.682967 336.25413 
L 269.708797 341.766489 
L 271.760456 322.253757 
L 272.786286 357.972908 
L 273.812115 353.452774 
L 274.837945 350.474824 
L 275.863774 363.629851 
L 276.889604 364.885199 
L 277.915433 358.384503 
L 278.941263 370.103629 
L 279.967093 360.907381 
L 280.992922 335.156108 
L 282.018752 388.152807 
L 283.044581 367.61252 
L 284.070411 352.292852 
L 285.09624 364.615733 
L 286.12207 422.914067 
L 287.1479 377.946344 
L 288.173729 363.860125 
L 289.199559 378.188655 
L 290.225388 378.385342 
L 291.251218 388.630641 
L 292.277048 379.441851 
L 293.302877 375.896917 
L 294.328707 398.884859 
L 295.354536 398.272301 
L 296.380366 392.597335 
L 297.406195 390.395177 
L 298.432025 361.655443 
L 299.457855 415.460072 
L 300.483684 393.506822 
L 301.509514 400.652814 
L 302.535343 409.659505 
L 303.561173 409.572568 
L 304.587002 398.533088 
L 305.612832 396.86557 
L 306.638662 475.887942 
L 307.664491 418.469277 
L 308.690321 435.872759 
L 309.71615 428.121128 
L 310.74198 421.230907 
L 311.76781 423.469198 
L 312.793639 412.967115 
L 313.819469 410.933113 
L 314.845298 418.60633 
L 315.871128 431.047064 
L 316.896957 418.303062 
L 317.922787 422.140459 
L 318.948617 435.246441 
L 319.974446 452.871582 
L 321.000276 464.747617 
L 322.026105 420.856531 
L 323.051935 421.933228 
L 324.077765 444.631749 
L 325.103594 422.444055 
L 326.129424 435.026464 
L 327.155253 502.492679 
L 328.181083 448.442661 
L 329.206912 433.690573 
L 330.232742 436.715796 
L 331.258572 443.405783 
L 332.284401 452.512784 
L 333.310231 434.567831 
L 334.33606 444.744563 
L 335.36189 443.397911 
L 336.387719 471.946272 
L 337.413549 433.577456 
L 338.439379 470.915572 
L 339.465208 464.207817 
L 340.491038 471.45003 
L 341.516867 464.844151 
L 342.542697 454.224178 
L 343.568527 460.825409 
L 344.594356 461.256589 
L 345.620186 441.695656 
L 346.646015 451.568395 
L 347.671845 465.225377 
L 348.697674 466.781139 
L 349.723504 457.628495 
L 350.749334 460.597528 
L 351.775163 459.414722 
L 352.800993 456.657033 
L 353.826822 448.281777 
L 354.852652 458.110035 
L 355.878481 464.852065 
L 356.904311 500.949766 
L 357.930141 453.479546 
L 358.95597 469.868953 
L 359.9818 466.924749 
L 361.007629 467.059922 
L 362.033459 464.786517 
L 363.059289 481.033507 
L 364.085118 458.928405 
L 365.110948 471.740926 
L 366.136777 496.617671 
L 367.162607 479.911559 
L 368.188436 470.899733 
L 369.214266 469.937295 
L 370.240096 474.631526 
L 371.265925 480.906552 
L 372.291755 464.213054 
L 373.317584 467.336006 
L 374.343414 457.391675 
L 375.369243 472.044713 
L 376.395073 481.699015 
L 377.420903 475.055128 
L 378.446732 496.510912 
L 379.472562 492.775673 
L 381.524221 483.245019 
L 382.550051 488.268149 
L 383.57588 487.439236 
L 384.60171 492.628023 
L 385.627539 493.119901 
L 386.653369 486.52275 
L 387.679198 498.780992 
L 388.705028 498.262615 
L 389.730858 502.657665 
L 390.756687 494.127852 
L 391.782517 480.111223 
L 392.808346 493.464693 
L 393.834176 490.942666 
L 394.860006 494.076494 
L 395.885835 491.68383 
L 396.911665 496.102527 
L 397.937494 502.141794 
L 398.963324 490.952798 
L 399.989153 481.163577 
L 401.014983 497.367197 
L 402.040813 496.307333 
L 403.066642 497.108402 
L 405.118301 502.11184 
L 406.144131 535.998107 
L 407.16996 500.749354 
L 408.19579 484.437402 
L 409.22162 498.09274 
L 411.273279 507.833182 
L 412.299108 521.336822 
L 413.324938 486.914328 
L 414.350768 506.143514 
L 415.376597 507.029246 
L 416.402427 502.317725 
L 417.428256 508.158246 
L 418.454086 493.545242 
L 419.479915 509.866747 
L 420.505745 501.54516 
L 421.531575 497.45192 
L 422.557404 502.46698 
L 424.609063 519.348498 
L 425.634893 500.864847 
L 426.660722 514.375495 
L 427.686552 509.882542 
L 428.712382 516.133653 
L 429.738211 502.184888 
L 430.764041 516.253002 
L 431.78987 524.0761 
L 432.8157 524.407066 
L 433.84153 513.297403 
L 434.867359 511.62387 
L 435.893189 525.320665 
L 436.919018 513.26943 
L 437.944848 524.775623 
L 438.970677 547.794411 
L 439.996507 521.538535 
L 441.022337 514.168423 
L 442.048166 520.769795 
L 443.073996 529.142929 
L 444.099825 508.285828 
L 445.125655 509.224803 
L 446.151485 533.213385 
L 448.203144 513.89542 
L 449.228973 524.250107 
L 450.254803 529.80712 
L 451.280632 532.171249 
L 452.306462 524.054063 
L 453.332292 514.24284 
L 454.358121 531.81185 
L 455.383951 534.773869 
L 456.40978 528.96661 
L 457.43561 530.483171 
L 458.461439 535.395306 
L 459.487269 533.04763 
L 460.513099 529.925783 
L 461.538928 527.185218 
L 462.564758 535.434755 
L 463.590587 536.17725 
L 464.616417 532.786693 
L 465.642247 531.782451 
L 466.668076 532.178599 
L 467.693906 532.06366 
L 468.719735 527.150387 
L 469.745565 526.54455 
L 470.771394 529.372762 
L 471.797224 523.013129 
L 472.823054 535.448111 
L 473.848883 535.598308 
L 474.874713 525.088994 
L 475.900542 533.483275 
L 476.926372 535.7559 
L 477.952201 540.623004 
L 478.978031 534.02569 
L 480.003861 535.3107 
L 481.02969 536.942434 
L 482.05552 541.847374 
L 483.081349 533.052085 
L 484.107179 533.320262 
L 485.133009 536.790165 
L 486.158838 539.179825 
L 487.184668 533.009697 
L 488.210497 534.903899 
L 489.236327 537.957538 
L 490.262156 547.221895 
L 491.287986 537.833639 
L 492.313816 532.493481 
L 494.365475 547.707537 
L 495.391304 534.806309 
L 496.417134 539.030043 
L 497.442964 546.240484 
L 498.468793 546.063758 
L 499.494623 539.796592 
L 500.520452 536.968256 
L 501.546282 546.48952 
L 502.572111 545.715087 
L 503.597941 532.570813 
L 504.623771 544.567041 
L 505.6496 549.8479 
L 506.67543 540.768987 
L 507.701259 548.723811 
L 508.727089 541.896188 
L 509.752918 545.883733 
L 510.778748 539.854939 
L 511.804578 544.775984 
L 512.830407 533.232417 
L 513.856237 541.68575 
L 514.882066 539.126484 
L 515.907896 543.712523 
L 516.933726 545.557411 
L 517.959555 538.944839 
L 518.985385 538.062435 
L 520.011214 543.977115 
L 521.037044 546.939739 
L 522.062873 541.473087 
L 523.088703 537.29628 
L 524.114533 546.430722 
L 525.140362 549.444915 
L 526.166192 540.569917 
L 527.192021 543.38368 
L 528.217851 551.710808 
L 529.24368 550.672855 
L 530.26951 545.140303 
L 531.29534 540.686929 
L 532.321169 546.606334 
L 533.346999 550.572566 
L 534.372828 545.180741 
L 535.398658 542.960601 
L 536.424488 551.458475 
L 537.450317 551.23404 
L 538.476147 550.307995 
L 539.501976 544.073707 
L 540.527806 551.82011 
L 541.553635 555.508206 
L 542.579465 547.439497 
L 543.605295 550.673047 
L 544.631124 551.173592 
L 546.682783 551.934349 
L 547.708613 545.48271 
L 549.760272 557.487257 
L 550.786102 556.662064 
L 551.811931 552.70307 
L 552.837761 558.870239 
L 553.86359 557.282111 
L 554.88942 550.926761 
L 555.91525 552.46631 
L 556.941079 558.601511 
L 557.966909 557.329238 
L 558.992738 553.649865 
L 560.018568 553.844685 
L 561.044397 559.248514 
L 562.070227 554.92883 
L 563.096057 555.189612 
L 564.121886 553.81162 
L 565.147716 557.259453 
L 566.173545 556.268255 
L 567.199375 548.583612 
L 568.225205 557.464749 
L 569.251034 559.669654 
L 570.276864 559.951651 
L 571.302693 555.683432 
L 572.328523 550.35062 
L 573.354352 558.377591 
L 574.380182 556.318639 
L 575.406012 558.44036 
L 576.431841 557.676492 
L 577.457671 544.56651 
L 578.4835 562.418906 
L 579.50933 552.383811 
L 580.535159 554.488468 
L 581.560989 558.206938 
L 582.586819 558.310118 
L 583.612648 555.36219 
L 584.638478 551.930591 
L 585.664307 557.697138 
L 586.690137 564.879966 
L 587.715967 556.745325 
L 588.741796 554.80958 
L 589.767626 561.525649 
L 590.793455 560.846076 
L 591.819285 554.680731 
L 592.845114 559.173678 
L 593.870944 562.259592 
L 594.896774 557.330077 
L 595.922603 560.13747 
L 596.948433 562.582663 
L 597.974262 556.011005 
L 599.000092 556.894476 
L 600.025922 561.78028 
L 601.051751 562.777743 
L 602.077581 562.009755 
L 603.10341 557.393874 
L 605.155069 565.262715 
L 607.206729 555.925924 
L 608.232558 569.727674 
L 609.258388 564.496539 
L 610.284217 560.766042 
L 611.310047 560.228164 
L 612.335876 563.861933 
L 613.361706 565.458186 
L 614.387536 559.269275 
L 615.413365 572.234216 
L 616.439195 567.676511 
L 617.465024 568.33525 
L 618.490854 562.986339 
L 619.516684 563.236693 
L 620.542513 568.711302 
L 621.568343 567.808282 
L 622.594172 562.904014 
L 623.620002 563.944442 
L 624.645831 568.738954 
L 625.671661 569.915672 
L 626.697491 565.025151 
L 627.72332 564.213947 
L 628.74915 569.802379 
L 629.774979 571.964176 
L 630.800809 562.670975 
L 631.826638 564.823297 
L 632.852468 570.123806 
L 633.878298 570.124898 
L 634.904127 566.221566 
L 635.929957 565.048466 
L 636.955786 570.336395 
L 637.981616 571.480995 
L 639.007446 553.640484 
L 640.033275 566.759855 
L 641.059105 570.297801 
L 642.084934 572.151778 
L 643.110764 565.974208 
L 644.136593 565.927941 
L 645.162423 572.877942 
L 646.188253 571.616402 
L 647.214082 566.320198 
L 648.239912 567.851008 
L 649.265741 570.215946 
L 650.291571 571.244289 
L 651.3174 566.597305 
L 652.34323 567.633823 
L 653.36906 571.966219 
L 654.394889 573.132978 
L 655.420719 567.88049 
L 656.446548 566.761524 
L 657.472378 571.645904 
L 658.498208 571.172469 
L 659.524037 567.829335 
L 660.549867 568.678033 
L 661.575696 571.702278 
L 662.601526 575.915272 
L 663.627355 569.628768 
L 664.653185 568.298258 
L 665.679015 575.051509 
L 666.704844 574.383006 
L 667.730674 566.687635 
L 668.756503 569.302192 
L 669.782333 574.461623 
L 670.808163 572.903364 
L 671.833992 568.304743 
L 672.859822 570.430093 
L 673.885651 574.586283 
L 674.911481 575.698727 
L 675.93731 568.395779 
L 676.96314 570.100117 
L 677.98897 574.04031 
L 679.014799 576.069395 
L 680.040629 572.568343 
L 681.066458 572.084564 
L 682.092288 577.681115 
L 683.118117 575.216378 
L 684.143947 571.304867 
L 685.169777 572.299262 
L 686.195606 574.85284 
L 687.221436 576.594363 
L 688.247265 573.625703 
L 689.273095 572.124149 
L 690.298925 575.323572 
L 691.324754 577.48241 
L 692.350584 571.663031 
L 693.376413 571.608338 
L 694.402243 577.721181 
L 695.428072 575.802716 
L 696.453902 573.602599 
L 697.479732 562.686564 
L 698.505561 576.043649 
L 699.531391 576.468028 
L 700.55722 571.36234 
L 701.58305 571.307787 
L 702.608879 577.33365 
L 703.634709 595.711508 
L 704.660539 572.91704 
L 705.686368 574.017576 
L 706.712198 576.381698 
L 707.738027 578.076499 
L 708.763857 573.987838 
L 709.789687 574.195251 
L 710.815516 581.343884 
L 711.841346 577.657748 
L 712.867175 574.71728 
L 713.893005 572.19756 
L 714.918834 578.157301 
L 715.944664 578.992401 
L 716.970494 574.38088 
L 717.996323 576.618693 
L 719.022153 580.904638 
L 720.047982 577.945857 
L 721.073812 573.371977 
L 722.099642 574.907843 
L 723.125471 578.469447 
L 724.151301 579.021613 
L 725.17713 575.827571 
L 726.20296 574.518943 
L 727.228789 580.40796 
L 728.254619 579.414647 
L 730.306278 575.753095 
L 731.332108 579.446208 
L 732.357937 579.1379 
L 733.383767 577.018738 
L 734.409596 577.516758 
L 735.435426 579.115099 
L 736.461256 582.989334 
L 737.487085 576.891869 
L 738.512915 576.490092 
L 739.538744 580.867392 
L 740.564574 582.871116 
L 741.590404 576.628078 
L 743.642063 580.473637 
L 744.667892 583.325181 
L 745.693722 581.330368 
L 746.719551 579.613272 
L 747.745381 581.782998 
L 748.771211 583.078247 
L 749.79704 579.980234 
L 750.82287 576.489538 
L 751.848699 582.489378 
L 752.874529 582.476367 
L 753.900358 577.800552 
L 754.926188 580.376072 
L 755.952018 583.867323 
L 756.977847 580.069738 
L 758.003677 577.489869 
L 759.029506 577.376656 
L 760.055336 581.594108 
L 761.081166 582.079373 
L 762.106995 577.814125 
L 763.132825 577.92729 
L 764.158654 582.720201 
L 765.184484 582.536029 
L 766.210313 578.725974 
L 767.236143 578.721654 
L 768.261973 583.253044 
L 769.287802 582.564896 
L 770.313632 578.515008 
L 771.339461 577.443983 
L 772.365291 583.774019 
L 773.391121 585.722954 
L 774.41695 579.0255 
L 775.44278 582.478048 
L 776.468609 581.963787 
L 778.520268 586.496334 
L 779.546098 582.047569 
L 780.571928 586.753887 
L 781.597757 586.621768 
L 782.623587 579.314668 
L 783.649416 581.322579 
L 784.675246 584.317174 
L 785.701075 583.524847 
L 786.726905 580.06664 
L 787.752735 579.868065 
L 788.778564 583.881167 
L 789.804394 584.779235 
L 790.830223 580.796432 
L 791.856053 580.789022 
L 792.881883 584.758802 
L 793.907712 585.150892 
L 794.933542 580.705907 
L 795.959371 583.236376 
L 796.985201 584.852219 
L 798.01103 585.308432 
L 799.03686 588.857198 
L 800.06269 581.920312 
L 801.088519 585.0866 
L 802.114349 585.810876 
L 803.140178 581.684683 
L 804.166008 581.804035 
L 805.191837 585.473522 
L 806.217667 585.234939 
L 807.243497 573.414258 
L 808.269326 582.761336 
L 809.295156 586.025047 
L 810.320985 585.124618 
L 811.346815 583.594054 
L 812.372645 586.965964 
L 813.398474 581.874711 
L 814.424304 586.792074 
L 815.450133 581.608239 
L 816.475963 581.646059 
L 817.501792 587.472248 
L 818.527622 586.311414 
L 819.553452 581.552012 
L 820.579281 589.307192 
L 821.605111 586.229178 
L 822.63094 587.15745 
L 823.65677 582.23041 
L 824.6826 582.873582 
L 825.708429 586.945724 
L 826.734259 586.329608 
L 827.760088 589.186979 
L 828.785918 583.636063 
L 829.811747 587.263514 
L 830.837577 587.355861 
L 831.863407 583.729623 
L 832.889236 583.496577 
L 833.915066 587.183065 
L 834.940895 586.654882 
L 835.966725 583.340475 
L 836.992554 584.583415 
L 838.018384 587.675259 
L 839.044214 588.136861 
L 840.070043 584.297023 
L 841.095873 585.71503 
L 842.121702 587.811091 
L 843.147532 587.263302 
L 845.199191 583.790703 
L 846.225021 588.341975 
L 847.25085 589.109068 
L 848.27668 590.60813 
L 849.302509 585.176935 
L 851.354169 590.142208 
L 852.379998 585.77007 
L 853.405828 586.156894 
L 854.431657 589.01348 
L 855.457487 590.018852 
L 856.483316 586.815222 
L 857.509146 587.795738 
L 858.534976 580.968915 
L 859.560805 589.272878 
L 860.586635 587.852907 
L 861.612464 586.823634 
L 862.638294 590.04289 
L 863.664124 589.123173 
L 864.689953 585.649419 
L 865.715783 591.72124 
L 866.741612 588.820663 
L 867.767442 589.468777 
L 868.793271 585.103968 
L 869.819101 589.97386 
L 870.844931 589.56819 
L 872.89659 586.223543 
L 873.922419 585.146489 
L 874.948249 589.710926 
L 875.974078 595.479437 
L 876.999908 591.488369 
L 878.025738 585.407703 
L 879.051567 590.305313 
L 880.077397 590.967082 
L 881.103226 586.61485 
L 882.129056 588.900946 
L 883.154886 592.661898 
L 884.180715 592.087859 
L 885.206545 588.105952 
L 886.232374 587.817501 
L 887.258204 590.63635 
L 888.284033 590.882965 
L 889.309863 587.53238 
L 890.335693 587.542758 
L 891.361522 591.45237 
L 892.387352 590.873137 
L 893.413181 587.397896 
L 894.439011 588.661037 
L 895.464841 590.947605 
L 896.49067 591.401392 
L 897.5165 587.764236 
L 898.542329 588.754347 
L 899.568159 591.008048 
L 900.593988 592.518814 
L 901.619818 588.367628 
L 902.645648 588.772668 
L 903.671477 592.366311 
L 904.697307 593.18977 
L 905.723136 588.379108 
L 906.748966 589.025933 
L 907.774795 592.140674 
L 908.800625 584.093992 
L 909.826455 589.082744 
L 910.852284 590.682643 
L 911.878114 592.92515 
L 912.903943 594.113384 
L 913.929773 589.32601 
L 914.955603 588.841219 
L 915.981432 593.277504 
L 917.007262 594.139061 
L 918.033091 589.432632 
L 919.058921 590.901215 
L 920.08475 594.007172 
L 921.11058 593.579066 
L 922.13641 595.337751 
L 923.162239 591.67625 
L 924.188069 593.38908 
L 925.213898 592.96508 
L 926.239728 589.872275 
L 927.265557 589.211489 
L 928.291387 593.062307 
L 929.317217 593.491198 
L 931.368876 590.097237 
L 932.394705 593.220925 
L 933.420535 593.615686 
L 934.446365 589.93287 
L 935.472194 589.998662 
L 936.498024 593.689525 
L 937.523853 595.032703 
L 938.549683 592.35833 
L 939.575512 591.349042 
L 940.601342 594.924489 
L 941.627172 595.115872 
L 942.653001 592.078516 
L 943.678831 589.735758 
L 944.70466 595.288364 
L 945.73049 594.079361 
L 946.75632 592.314733 
L 947.782149 591.490641 
L 948.807979 593.459049 
L 949.833808 593.619851 
L 950.859638 596.684685 
L 951.885467 590.704785 
L 953.937127 596.779392 
L 954.962956 590.924899 
L 955.988786 593.280504 
L 957.014615 586.671728 
L 958.040445 596.094598 
L 959.066274 591.70525 
L 960.092104 591.311879 
L 961.117934 594.304922 
L 962.143763 595.378789 
L 963.169593 590.70965 
L 964.195422 591.518582 
L 965.221252 595.092553 
L 966.247082 594.678667 
L 967.272911 591.103358 
L 968.298741 591.711693 
L 969.32457 594.966849 
L 970.3504 594.947378 
L 971.376229 593.589985 
L 972.402059 590.949796 
L 973.427889 594.345233 
L 974.453718 596.624913 
L 975.479548 592.440794 
L 976.505377 592.790567 
L 977.531207 595.784864 
L 978.557036 595.373021 
L 979.582866 592.669025 
L 980.608696 593.529817 
L 981.634525 596.07343 
L 982.660355 596.817235 
L 983.686184 591.610654 
L 984.712014 594.098927 
L 985.737844 595.121022 
L 986.763673 597.263693 
L 987.789503 593.287645 
L 988.815332 592.212604 
L 989.841162 596.271274 
L 990.866991 595.704567 
L 991.892821 593.425848 
L 992.918651 592.670007 
L 993.94448 596.044073 
L 994.97031 596.985895 
L 995.996139 595.146169 
L 997.021969 593.583305 
L 998.047799 596.147513 
L 999.073628 596.574992 
L 1000.099458 593.501704 
L 1001.125287 595.327321 
L 1002.151117 596.401604 
L 1003.176946 597.109452 
L 1004.202776 585.830408 
L 1005.228606 593.513519 
L 1006.254435 595.890337 
L 1007.280265 596.674061 
L 1008.306094 594.665286 
L 1009.331924 594.759294 
L 1010.357753 589.334016 
L 1011.383583 597.346602 
L 1012.409413 593.199134 
L 1013.435242 594.309241 
L 1014.461072 597.611291 
L 1015.486901 596.647798 
L 1016.512731 593.957134 
L 1017.538561 593.854093 
L 1018.56439 597.322 
L 1019.59022 597.37258 
L 1020.616049 593.946389 
L 1021.641879 593.042915 
L 1022.667708 596.485289 
L 1023.693538 596.803182 
L 1024.719368 594.144689 
L 1025.745197 594.416874 
L 1026.771027 598.179812 
L 1027.796856 597.579492 
L 1028.822686 594.37343 
L 1029.848515 594.004929 
L 1030.874345 596.765727 
L 1031.900175 597.64138 
L 1032.926004 594.343912 
L 1033.951834 594.863999 
L 1034.977663 597.291766 
L 1036.003493 599.084197 
L 1037.029323 594.159523 
L 1038.055152 595.484019 
L 1039.080982 598.866645 
L 1040.106811 598.35712 
L 1041.132641 594.922831 
L 1042.15847 595.091648 
L 1043.1843 597.919586 
L 1044.21013 598.218646 
L 1045.235959 594.956747 
L 1046.261789 595.802553 
L 1047.287618 597.680464 
L 1048.313448 601.532605 
L 1049.339278 595.157666 
L 1050.365107 592.247976 
L 1051.390937 597.621542 
L 1052.416766 598.505062 
L 1053.442596 595.113567 
L 1054.468425 595.246815 
L 1055.494255 599.255249 
L 1056.520085 599.002963 
L 1057.545914 595.5614 
L 1058.571744 594.960475 
L 1059.597573 598.124705 
L 1060.623403 600.710468 
L 1061.649232 595.389969 
L 1063.700892 597.467191 
L 1064.726721 598.775148 
L 1065.752551 597.617608 
L 1066.77838 595.597792 
L 1067.80421 598.568408 
L 1068.83004 599.324972 
L 1069.855869 595.252088 
L 1070.881699 596.091579 
L 1071.907528 598.737395 
L 1072.933358 599.499968 
L 1073.959187 595.363337 
L 1074.985017 598.431088 
L 1076.010847 599.066311 
L 1077.036676 599.115495 
L 1078.062506 596.734172 
L 1079.088335 595.766195 
L 1080.114165 598.582685 
L 1081.139994 598.843167 
L 1082.165824 595.533045 
L 1083.191654 596.058893 
L 1084.217483 598.086676 
L 1085.243313 598.474449 
L 1086.269142 595.312022 
L 1087.294972 597.632107 
L 1088.320802 598.558245 
L 1089.346631 599.033815 
L 1090.372461 595.998574 
L 1091.39829 597.416533 
L 1092.42412 599.467684 
L 1093.449949 599.145896 
L 1094.475779 596.897214 
L 1095.501609 605.266027 
L 1096.527438 601.251639 
L 1097.553268 599.923734 
L 1098.579097 596.349108 
L 1099.604927 603.503293 
L 1100.630757 600.654981 
L 1101.656586 599.996115 
L 1102.682416 598.014393 
L 1103.708245 598.473445 
L 1104.734075 599.928113 
L 1105.759904 601.845348 
L 1106.785734 597.486966 
L 1107.811564 601.671566 
L 1108.837393 601.016415 
L 1109.863223 601.257657 
L 1110.889052 598.692703 
L 1111.914882 597.495231 
L 1112.940711 599.795268 
L 1113.966541 601.791127 
L 1114.992371 598.182746 
L 1116.0182 597.617334 
L 1117.04403 600.27425 
L 1118.069859 600.993513 
L 1119.095689 597.946515 
L 1120.121519 598.132634 
L 1121.147348 602.572051 
L 1122.173178 601.136717 
L 1123.199007 597.765929 
L 1124.224837 597.989924 
L 1125.250666 600.565119 
L 1126.276496 600.666721 
L 1127.302326 598.134067 
L 1128.328155 597.383312 
L 1129.353985 602.425419 
L 1130.379814 601.129989 
L 1131.405644 598.086675 
L 1132.431473 598.319968 
L 1134.483133 604.338793 
L 1135.508962 597.97237 
L 1136.534792 597.492077 
L 1137.560621 601.328572 
L 1138.586451 601.260058 
L 1139.612281 602.828167 
L 1140.63811 599.41336 
L 1141.66394 593.715142 
L 1142.689769 601.549228 
L 1143.715599 597.630066 
L 1144.741428 599.767248 
L 1145.767258 601.481274 
L 1146.793088 604.252071 
L 1147.818917 598.473868 
L 1148.844747 598.573149 
L 1149.870576 601.537031 
L 1150.896406 600.809838 
L 1151.922235 598.689416 
L 1152.948065 599.131789 
L 1154.999724 601.982669 
L 1156.025554 598.733115 
L 1157.051383 599.164841 
L 1158.077213 601.991366 
L 1159.103043 601.564596 
L 1160.128872 597.84253 
L 1161.154702 599.545501 
L 1162.180531 601.503566 
L 1163.206361 601.811514 
L 1164.23219 598.822661 
L 1165.25802 599.047201 
L 1166.28385 602.791415 
L 1167.309679 602.957209 
L 1168.335509 599.737565 
L 1169.361338 598.737474 
L 1170.387168 602.423948 
L 1171.412998 602.862867 
L 1172.438827 598.729073 
L 1173.464657 599.305634 
L 1174.490486 601.955464 
L 1175.516316 602.565284 
L 1176.542145 598.963165 
L 1177.567975 600.247105 
L 1178.593805 601.93569 
L 1179.619634 602.808887 
L 1180.645464 599.159845 
L 1181.671293 599.775088 
L 1182.697123 602.589076 
L 1183.722952 602.81149 
L 1184.748782 599.470286 
L 1185.774612 599.200419 
L 1186.800441 615.6 
L 1187.826271 603.658007 
L 1188.8521 598.451581 
L 1189.87793 599.592779 
L 1190.90376 603.200694 
L 1191.929589 609.564645 
L 1192.955419 601.005785 
L 1193.981248 600.001555 
L 1195.007078 602.639177 
L 1196.032907 602.716513 
L 1197.058737 600.175689 
L 1198.084567 600.06121 
L 1199.110396 603.123178 
L 1200.136226 603.010988 
L 1201.162055 600.490273 
L 1202.187885 600.298519 
L 1203.213714 603.177698 
L 1204.239544 602.727826 
L 1205.265374 599.920112 
L 1206.291203 600.465694 
L 1207.317033 603.098626 
L 1208.342862 603.161485 
L 1209.368692 600.312802 
L 1210.394522 600.671134 
L 1211.420351 603.057157 
L 1212.446181 603.417159 
L 1213.47201 601.10893 
L 1214.49784 599.82489 
L 1215.523669 603.572195 
L 1216.549499 604.03141 
L 1217.575329 600.684906 
L 1218.601158 601.80793 
L 1219.626988 604.328496 
L 1220.652817 603.971474 
L 1221.678647 601.376175 
L 1222.704477 600.657276 
L 1223.730306 603.923655 
L 1224.756136 605.434322 
L 1225.781965 600.563843 
L 1226.807795 600.2963 
L 1227.833624 605.360084 
L 1228.859454 603.517662 
L 1229.885284 598.515435 
L 1230.911113 602.117911 
L 1231.936943 603.974009 
L 1232.962772 604.574258 
L 1233.988602 602.010237 
L 1235.014431 606.029158 
L 1236.040261 603.787592 
L 1237.066091 604.827556 
L 1238.09192 601.273074 
L 1239.11775 600.789723 
L 1240.143579 604.591226 
L 1241.169409 604.853632 
L 1242.195239 602.387141 
L 1243.221068 601.573398 
L 1244.246898 604.830926 
L 1245.272727 604.548645 
L 1245.272727 604.548645 
" style="fill:none;stroke:#ff7f0e;stroke-linecap:square;stroke-width:1.5;"/>
   </g>
   <g id="patch_3">
    <path d="M 180 640.8 
L 180 86.4 
" style="fill:none;stroke:#000000;stroke-linecap:square;stroke-linejoin:miter;stroke-width:0.8;"/>
   </g>
   <g id="patch_4">
    <path d="M 1296 640.8 
L 1296 86.4 
" style="fill:none;stroke:#000000;stroke-linecap:square;stroke-linejoin:miter;stroke-width:0.8;"/>
   </g>
   <g id="patch_5">
    <path d="M 180 640.8 
L 1296 640.8 
" style="fill:none;stroke:#000000;stroke-linecap:square;stroke-linejoin:miter;stroke-width:0.8;"/>
   </g>
   <g id="patch_6">
    <path d="M 180 86.4 
L 1296 86.4 
" style="fill:none;stroke:#000000;stroke-linecap:square;stroke-linejoin:miter;stroke-width:0.8;"/>
   </g>
   <g id="text_17">
    <!-- Chaikin Money Flow (CMF) Speedup -->
    <defs>
     <path d="M 64.40625 67.28125 
L 64.40625 56.890625 
Q 59.421875 61.53125 53.78125 63.8125 
Q 48.140625 66.109375 41.796875 66.109375 
Q 29.296875 66.109375 22.65625 58.46875 
Q 16.015625 50.828125 16.015625 36.375 
Q 16.015625 21.96875 22.65625 14.328125 
Q 29.296875 6.6875 41.796875 6.6875 
Q 48.140625 6.6875 53.78125 8.984375 
Q 59.421875 11.28125 64.40625 15.921875 
L 64.40625 5.609375 
Q 59.234375 2.09375 53.4375 0.328125 
Q 47.65625 -1.421875 41.21875 -1.421875 
Q 24.65625 -1.421875 15.125 8.703125 
Q 5.609375 18.84375 5.609375 36.375 
Q 5.609375 53.953125 15.125 64.078125 
Q 24.65625 74.21875 41.21875 74.21875 
Q 47.75 74.21875 53.53125 72.484375 
Q 59.328125 70.75 64.40625 67.28125 
z
" id="DejaVuSans-67"/>
     <path d="M 54.890625 33.015625 
L 54.890625 0 
L 45.90625 0 
L 45.90625 32.71875 
Q 45.90625 40.484375 42.875 44.328125 
Q 39.84375 48.1875 33.796875 48.1875 
Q 26.515625 48.1875 22.3125 43.546875 
Q 18.109375 38.921875 18.109375 30.90625 
L 18.109375 0 
L 9.078125 0 
L 9.078125 75.984375 
L 18.109375 75.984375 
L 18.109375 46.1875 
Q 21.34375 51.125 25.703125 53.5625 
Q 30.078125 56 35.796875 56 
Q 45.21875 56 50.046875 50.171875 
Q 54.890625 44.34375 54.890625 33.015625 
z
" id="DejaVuSans-104"/>
     <path d="M 34.28125 27.484375 
Q 23.390625 27.484375 19.1875 25 
Q 14.984375 22.515625 14.984375 16.5 
Q 14.984375 11.71875 18.140625 8.90625 
Q 21.296875 6.109375 26.703125 6.109375 
Q 34.1875 6.109375 38.703125 11.40625 
Q 43.21875 16.703125 43.21875 25.484375 
L 43.21875 27.484375 
z
M 52.203125 31.203125 
L 52.203125 0 
L 43.21875 0 
L 43.21875 8.296875 
Q 40.140625 3.328125 35.546875 0.953125 
Q 30.953125 -1.421875 24.3125 -1.421875 
Q 15.921875 -1.421875 10.953125 3.296875 
Q 6 8.015625 6 15.921875 
Q 6 25.140625 12.171875 29.828125 
Q 18.359375 34.515625 30.609375 34.515625 
L 43.21875 34.515625 
L 43.21875 35.40625 
Q 43.21875 41.609375 39.140625 45 
Q 35.0625 48.390625 27.6875 48.390625 
Q 23 48.390625 18.546875 47.265625 
Q 14.109375 46.140625 10.015625 43.890625 
L 10.015625 52.203125 
Q 14.9375 54.109375 19.578125 55.046875 
Q 24.21875 56 28.609375 56 
Q 40.484375 56 46.34375 49.84375 
Q 52.203125 43.703125 52.203125 31.203125 
z
" id="DejaVuSans-97"/>
     <path d="M 9.421875 54.6875 
L 18.40625 54.6875 
L 18.40625 0 
L 9.421875 0 
z
M 9.421875 75.984375 
L 18.40625 75.984375 
L 18.40625 64.59375 
L 9.421875 64.59375 
z
" id="DejaVuSans-105"/>
     <path d="M 9.078125 75.984375 
L 18.109375 75.984375 
L 18.109375 31.109375 
L 44.921875 54.6875 
L 56.390625 54.6875 
L 27.390625 29.109375 
L 57.625 0 
L 45.90625 0 
L 18.109375 26.703125 
L 18.109375 0 
L 9.078125 0 
z
" id="DejaVuSans-107"/>
     <path id="DejaVuSans-32"/>
     <path d="M 9.8125 72.90625 
L 24.515625 72.90625 
L 43.109375 23.296875 
L 61.8125 72.90625 
L 76.515625 72.90625 
L 76.515625 0 
L 66.890625 0 
L 66.890625 64.015625 
L 48.09375 14.015625 
L 38.1875 14.015625 
L 19.390625 64.015625 
L 19.390625 0 
L 9.8125 0 
z
" id="DejaVuSans-77"/>
     <path d="M 30.609375 48.390625 
Q 23.390625 48.390625 19.1875 42.75 
Q 14.984375 37.109375 14.984375 27.296875 
Q 14.984375 17.484375 19.15625 11.84375 
Q 23.34375 6.203125 30.609375 6.203125 
Q 37.796875 6.203125 41.984375 11.859375 
Q 46.1875 17.53125 46.1875 27.296875 
Q 46.1875 37.015625 41.984375 42.703125 
Q 37.796875 48.390625 30.609375 48.390625 
z
M 30.609375 56 
Q 42.328125 56 49.015625 48.375 
Q 55.71875 40.765625 55.71875 27.296875 
Q 55.71875 13.875 49.015625 6.21875 
Q 42.328125 -1.421875 30.609375 -1.421875 
Q 18.84375 -1.421875 12.171875 6.21875 
Q 5.515625 13.875 5.515625 27.296875 
Q 5.515625 40.765625 12.171875 48.375 
Q 18.84375 56 30.609375 56 
z
" id="DejaVuSans-111"/>
     <path d="M 32.171875 -5.078125 
Q 28.375 -14.84375 24.75 -17.8125 
Q 21.140625 -20.796875 15.09375 -20.796875 
L 7.90625 -20.796875 
L 7.90625 -13.28125 
L 13.1875 -13.28125 
Q 16.890625 -13.28125 18.9375 -11.515625 
Q 21 -9.765625 23.484375 -3.21875 
L 25.09375 0.875 
L 2.984375 54.6875 
L 12.5 54.6875 
L 29.59375 11.921875 
L 46.6875 54.6875 
L 56.203125 54.6875 
z
" id="DejaVuSans-121"/>
     <path d="M 9.8125 72.90625 
L 51.703125 72.90625 
L 51.703125 64.59375 
L 19.671875 64.59375 
L 19.671875 43.109375 
L 48.578125 43.109375 
L 48.578125 34.8125 
L 19.671875 34.8125 
L 19.671875 0 
L 9.8125 0 
z
" id="DejaVuSans-70"/>
     <path d="M 9.421875 75.984375 
L 18.40625 75.984375 
L 18.40625 0 
L 9.421875 0 
z
" id="DejaVuSans-108"/>
     <path d="M 4.203125 54.6875 
L 13.1875 54.6875 
L 24.421875 12.015625 
L 35.59375 54.6875 
L 46.1875 54.6875 
L 57.421875 12.015625 
L 68.609375 54.6875 
L 77.59375 54.6875 
L 63.28125 0 
L 52.6875 0 
L 40.921875 44.828125 
L 29.109375 0 
L 18.5 0 
z
" id="DejaVuSans-119"/>
     <path d="M 31 75.875 
Q 24.46875 64.65625 21.28125 53.65625 
Q 18.109375 42.671875 18.109375 31.390625 
Q 18.109375 20.125 21.3125 9.0625 
Q 24.515625 -2 31 -13.1875 
L 23.1875 -13.1875 
Q 15.875 -1.703125 12.234375 9.375 
Q 8.59375 20.453125 8.59375 31.390625 
Q 8.59375 42.28125 12.203125 53.3125 
Q 15.828125 64.359375 23.1875 75.875 
z
" id="DejaVuSans-40"/>
     <path d="M 8.015625 75.875 
L 15.828125 75.875 
Q 23.140625 64.359375 26.78125 53.3125 
Q 30.421875 42.28125 30.421875 31.390625 
Q 30.421875 20.453125 26.78125 9.375 
Q 23.140625 -1.703125 15.828125 -13.1875 
L 8.015625 -13.1875 
Q 14.5 -2 17.703125 9.0625 
Q 20.90625 20.125 20.90625 31.390625 
Q 20.90625 42.671875 17.703125 53.65625 
Q 14.5 64.65625 8.015625 75.875 
z
" id="DejaVuSans-41"/>
     <path d="M 53.515625 70.515625 
L 53.515625 60.890625 
Q 47.90625 63.578125 42.921875 64.890625 
Q 37.9375 66.21875 33.296875 66.21875 
Q 25.25 66.21875 20.875 63.09375 
Q 16.5 59.96875 16.5 54.203125 
Q 16.5 49.359375 19.40625 46.890625 
Q 22.3125 44.4375 30.421875 42.921875 
L 36.375 41.703125 
Q 47.40625 39.59375 52.65625 34.296875 
Q 57.90625 29 57.90625 20.125 
Q 57.90625 9.515625 50.796875 4.046875 
Q 43.703125 -1.421875 29.984375 -1.421875 
Q 24.8125 -1.421875 18.96875 -0.25 
Q 13.140625 0.921875 6.890625 3.21875 
L 6.890625 13.375 
Q 12.890625 10.015625 18.65625 8.296875 
Q 24.421875 6.59375 29.984375 6.59375 
Q 38.421875 6.59375 43.015625 9.90625 
Q 47.609375 13.234375 47.609375 19.390625 
Q 47.609375 24.75 44.3125 27.78125 
Q 41.015625 30.8125 33.5 32.328125 
L 27.484375 33.5 
Q 16.453125 35.6875 11.515625 40.375 
Q 6.59375 45.0625 6.59375 53.421875 
Q 6.59375 63.09375 13.40625 68.65625 
Q 20.21875 74.21875 32.171875 74.21875 
Q 37.3125 74.21875 42.625 73.28125 
Q 47.953125 72.359375 53.515625 70.515625 
z
" id="DejaVuSans-83"/>
    </defs>
    <g transform="translate(630.58125 80.4)scale(0.12 -0.12)">
     <use xlink:href="#DejaVuSans-67"/>
     <use x="69.824219" xlink:href="#DejaVuSans-104"/>
     <use x="133.203125" xlink:href="#DejaVuSans-97"/>
     <use x="194.482422" xlink:href="#DejaVuSans-105"/>
     <use x="222.265625" xlink:href="#DejaVuSans-107"/>
     <use x="280.175781" xlink:href="#DejaVuSans-105"/>
     <use x="307.958984" xlink:href="#DejaVuSans-110"/>
     <use x="371.337891" xlink:href="#DejaVuSans-32"/>
     <use x="403.125" xlink:href="#DejaVuSans-77"/>
     <use x="489.404297" xlink:href="#DejaVuSans-111"/>
     <use x="550.585938" xlink:href="#DejaVuSans-110"/>
     <use x="613.964844" xlink:href="#DejaVuSans-101"/>
     <use x="675.488281" xlink:href="#DejaVuSans-121"/>
     <use x="734.667969" xlink:href="#DejaVuSans-32"/>
     <use x="766.455078" xlink:href="#DejaVuSans-70"/>
     <use x="823.974609" xlink:href="#DejaVuSans-108"/>
     <use x="851.757812" xlink:href="#DejaVuSans-111"/>
     <use x="912.939453" xlink:href="#DejaVuSans-119"/>
     <use x="994.726562" xlink:href="#DejaVuSans-32"/>
     <use x="1026.513672" xlink:href="#DejaVuSans-40"/>
     <use x="1065.527344" xlink:href="#DejaVuSans-67"/>
     <use x="1135.351562" xlink:href="#DejaVuSans-77"/>
     <use x="1221.630859" xlink:href="#DejaVuSans-70"/>
     <use x="1279.150391" xlink:href="#DejaVuSans-41"/>
     <use x="1318.164062" xlink:href="#DejaVuSans-32"/>
     <use x="1349.951172" xlink:href="#DejaVuSans-83"/>
     <use x="1413.427734" xlink:href="#DejaVuSans-112"/>
     <use x="1476.904297" xlink:href="#DejaVuSans-101"/>
     <use x="1538.427734" xlink:href="#DejaVuSans-101"/>
     <use x="1599.951172" xlink:href="#DejaVuSans-100"/>
     <use x="1663.427734" xlink:href="#DejaVuSans-117"/>
     <use x="1726.806641" xlink:href="#DejaVuSans-112"/>
    </g>
   </g>
   <g id="legend_1">
    <g id="patch_7">
     <path d="M 1185.373437 123.75625 
L 1289 123.75625 
Q 1291 123.75625 1291 121.75625 
L 1291 93.4 
Q 1291 91.4 1289 91.4 
L 1185.373437 91.4 
Q 1183.373437 91.4 1183.373437 93.4 
L 1183.373437 121.75625 
Q 1183.373437 123.75625 1185.373437 123.75625 
z
" style="fill:#ffffff;opacity:0.8;stroke:#cccccc;stroke-linejoin:miter;"/>
    </g>
    <g id="line2d_17">
     <path d="M 1187.373437 99.498437 
L 1207.373437 99.498437 
" style="fill:none;stroke:#1f77b4;stroke-linecap:square;stroke-width:1.5;"/>
    </g>
    <g id="line2d_18"/>
    <g id="text_18">
     <!-- numpy.float32 -->
     <defs>
      <path d="M 52 44.1875 
Q 55.375 50.25 60.0625 53.125 
Q 64.75 56 71.09375 56 
Q 79.640625 56 84.28125 50.015625 
Q 88.921875 44.046875 88.921875 33.015625 
L 88.921875 0 
L 79.890625 0 
L 79.890625 32.71875 
Q 79.890625 40.578125 77.09375 44.375 
Q 74.3125 48.1875 68.609375 48.1875 
Q 61.625 48.1875 57.5625 43.546875 
Q 53.515625 38.921875 53.515625 30.90625 
L 53.515625 0 
L 44.484375 0 
L 44.484375 32.71875 
Q 44.484375 40.625 41.703125 44.40625 
Q 38.921875 48.1875 33.109375 48.1875 
Q 26.21875 48.1875 22.15625 43.53125 
Q 18.109375 38.875 18.109375 30.90625 
L 18.109375 0 
L 9.078125 0 
L 9.078125 54.6875 
L 18.109375 54.6875 
L 18.109375 46.1875 
Q 21.1875 51.21875 25.484375 53.609375 
Q 29.78125 56 35.6875 56 
Q 41.65625 56 45.828125 52.96875 
Q 50 49.953125 52 44.1875 
z
" id="DejaVuSans-109"/>
      <path d="M 37.109375 75.984375 
L 37.109375 68.5 
L 28.515625 68.5 
Q 23.6875 68.5 21.796875 66.546875 
Q 19.921875 64.59375 19.921875 59.515625 
L 19.921875 54.6875 
L 34.71875 54.6875 
L 34.71875 47.703125 
L 19.921875 47.703125 
L 19.921875 0 
L 10.890625 0 
L 10.890625 47.703125 
L 2.296875 47.703125 
L 2.296875 54.6875 
L 10.890625 54.6875 
L 10.890625 58.5 
Q 10.890625 67.625 15.140625 71.796875 
Q 19.390625 75.984375 28.609375 75.984375 
z
" id="DejaVuSans-102"/>
      <path d="M 18.3125 70.21875 
L 18.3125 54.6875 
L 36.8125 54.6875 
L 36.8125 47.703125 
L 18.3125 47.703125 
L 18.3125 18.015625 
Q 18.3125 11.328125 20.140625 9.421875 
Q 21.96875 7.515625 27.59375 7.515625 
L 36.8125 7.515625 
L 36.8125 0 
L 27.59375 0 
Q 17.1875 0 13.234375 3.875 
Q 9.28125 7.765625 9.28125 18.015625 
L 9.28125 47.703125 
L 2.6875 47.703125 
L 2.6875 54.6875 
L 9.28125 54.6875 
L 9.28125 70.21875 
z
" id="DejaVuSans-116"/>
     </defs>
     <g transform="translate(1215.373437 102.998437)scale(0.1 -0.1)">
      <use xlink:href="#DejaVuSans-110"/>
      <use x="63.378906" xlink:href="#DejaVuSans-117"/>
      <use x="126.757812" xlink:href="#DejaVuSans-109"/>
      <use x="224.169922" xlink:href="#DejaVuSans-112"/>
      <use x="287.646484" xlink:href="#DejaVuSans-121"/>
      <use x="332.576172" xlink:href="#DejaVuSans-46"/>
      <use x="364.363281" xlink:href="#DejaVuSans-102"/>
      <use x="399.568359" xlink:href="#DejaVuSans-108"/>
      <use x="427.351562" xlink:href="#DejaVuSans-111"/>
      <use x="488.533203" xlink:href="#DejaVuSans-97"/>
      <use x="549.8125" xlink:href="#DejaVuSans-116"/>
      <use x="589.021484" xlink:href="#DejaVuSans-51"/>
      <use x="652.644531" xlink:href="#DejaVuSans-50"/>
     </g>
    </g>
    <g id="line2d_19">
     <path d="M 1187.373437 114.176562 
L 1207.373437 114.176562 
" style="fill:none;stroke:#ff7f0e;stroke-linecap:square;stroke-width:1.5;"/>
    </g>
    <g id="line2d_20"/>
    <g id="text_19">
     <!-- numpy.float64 -->
     <g transform="translate(1215.373437 117.676562)scale(0.1 -0.1)">
      <use xlink:href="#DejaVuSans-110"/>
      <use x="63.378906" xlink:href="#DejaVuSans-117"/>
      <use x="126.757812" xlink:href="#DejaVuSans-109"/>
      <use x="224.169922" xlink:href="#DejaVuSans-112"/>
      <use x="287.646484" xlink:href="#DejaVuSans-121"/>
      <use x="332.576172" xlink:href="#DejaVuSans-46"/>
      <use x="364.363281" xlink:href="#DejaVuSans-102"/>
      <use x="399.568359" xlink:href="#DejaVuSans-108"/>
      <use x="427.351562" xlink:href="#DejaVuSans-111"/>
      <use x="488.533203" xlink:href="#DejaVuSans-97"/>
      <use x="549.8125" xlink:href="#DejaVuSans-116"/>
      <use x="589.021484" xlink:href="#DejaVuSans-54"/>
      <use x="652.644531" xlink:href="#DejaVuSans-52"/>
     </g>
    </g>
   </g>
  </g>
 </g>
 <defs>
  <clipPath id="p82e718255a">
   <rect height="554.4" width="1116" x="180" y="86.4"/>
  </clipPath>
 </defs>
</svg>
