<?xml version="1.0" encoding="utf-8" standalone="no"?>
<!DOCTYPE svg PUBLIC "-//W3C//DTD SVG 1.1//EN"
  "http://www.w3.org/Graphics/SVG/1.1/DTD/svg11.dtd">
<!-- Created with matplotlib (https://matplotlib.org/) -->
<svg height="720pt" version="1.1" viewBox="0 0 1440 720" width="1440pt" xmlns="http://www.w3.org/2000/svg" xmlns:xlink="http://www.w3.org/1999/xlink">
 <defs>
  <style type="text/css">
*{stroke-linecap:butt;stroke-linejoin:round;}
  </style>
 </defs>
 <g id="figure_1">
  <g id="patch_1">
   <path d="M 0 720 
L 1440 720 
L 1440 0 
L 0 0 
z
" style="fill:#ffffff;"/>
  </g>
  <g id="axes_1">
   <g id="patch_2">
    <path d="M 180 640.8 
L 1296 640.8 
L 1296 86.4 
L 180 86.4 
z
" style="fill:#ffffff;"/>
   </g>
   <g id="matplotlib.axis_1">
    <g id="xtick_1">
     <g id="line2d_1">
      <defs>
       <path d="M 0 0 
L 0 3.5 
" id="m2eadb34378" style="stroke:#000000;stroke-width:0.8;"/>
      </defs>
      <g>
       <use style="stroke:#000000;stroke-width:0.8;" x="333.310231" xlink:href="#m2eadb34378" y="640.8"/>
      </g>
     </g>
     <g id="text_1">
      <!-- 100.0 -->
      <defs>
       <path d="M 12.40625 8.296875 
L 28.515625 8.296875 
L 28.515625 63.921875 
L 10.984375 60.40625 
L 10.984375 69.390625 
L 28.421875 72.90625 
L 38.28125 72.90625 
L 38.28125 8.296875 
L 54.390625 8.296875 
L 54.390625 0 
L 12.40625 0 
z
" id="DejaVuSans-49"/>
       <path d="M 31.78125 66.40625 
Q 24.171875 66.40625 20.328125 58.90625 
Q 16.5 51.421875 16.5 36.375 
Q 16.5 21.390625 20.328125 13.890625 
Q 24.171875 6.390625 31.78125 6.390625 
Q 39.453125 6.390625 43.28125 13.890625 
Q 47.125 21.390625 47.125 36.375 
Q 47.125 51.421875 43.28125 58.90625 
Q 39.453125 66.40625 31.78125 66.40625 
z
M 31.78125 74.21875 
Q 44.046875 74.21875 50.515625 64.515625 
Q 56.984375 54.828125 56.984375 36.375 
Q 56.984375 17.96875 50.515625 8.265625 
Q 44.046875 -1.421875 31.78125 -1.421875 
Q 19.53125 -1.421875 13.0625 8.265625 
Q 6.59375 17.96875 6.59375 36.375 
Q 6.59375 54.828125 13.0625 64.515625 
Q 19.53125 74.21875 31.78125 74.21875 
z
" id="DejaVuSans-48"/>
       <path d="M 10.6875 12.40625 
L 21 12.40625 
L 21 0 
L 10.6875 0 
z
" id="DejaVuSans-46"/>
      </defs>
      <g transform="translate(318.996168 655.398438)scale(0.1 -0.1)">
       <use xlink:href="#DejaVuSans-49"/>
       <use x="63.623047" xlink:href="#DejaVuSans-48"/>
       <use x="127.246094" xlink:href="#DejaVuSans-48"/>
       <use x="190.869141" xlink:href="#DejaVuSans-46"/>
       <use x="222.65625" xlink:href="#DejaVuSans-48"/>
      </g>
     </g>
    </g>
    <g id="xtick_2">
     <g id="line2d_2">
      <g>
       <use style="stroke:#000000;stroke-width:0.8;" x="435.893189" xlink:href="#m2eadb34378" y="640.8"/>
      </g>
     </g>
     <g id="text_2">
      <!-- 200.0 -->
      <defs>
       <path d="M 19.1875 8.296875 
L 53.609375 8.296875 
L 53.609375 0 
L 7.328125 0 
L 7.328125 8.296875 
Q 12.9375 14.109375 22.625 23.890625 
Q 32.328125 33.6875 34.8125 36.53125 
Q 39.546875 41.84375 41.421875 45.53125 
Q 43.3125 49.21875 43.3125 52.78125 
Q 43.3125 58.59375 39.234375 62.25 
Q 35.15625 65.921875 28.609375 65.921875 
Q 23.96875 65.921875 18.8125 64.3125 
Q 13.671875 62.703125 7.8125 59.421875 
L 7.8125 69.390625 
Q 13.765625 71.78125 18.9375 73 
Q 24.125 74.21875 28.421875 74.21875 
Q 39.75 74.21875 46.484375 68.546875 
Q 53.21875 62.890625 53.21875 53.421875 
Q 53.21875 48.921875 51.53125 44.890625 
Q 49.859375 40.875 45.40625 35.40625 
Q 44.1875 33.984375 37.640625 27.21875 
Q 31.109375 20.453125 19.1875 8.296875 
z
" id="DejaVuSans-50"/>
      </defs>
      <g transform="translate(421.579126 655.398438)scale(0.1 -0.1)">
       <use xlink:href="#DejaVuSans-50"/>
       <use x="63.623047" xlink:href="#DejaVuSans-48"/>
       <use x="127.246094" xlink:href="#DejaVuSans-48"/>
       <use x="190.869141" xlink:href="#DejaVuSans-46"/>
       <use x="222.65625" xlink:href="#DejaVuSans-48"/>
      </g>
     </g>
    </g>
    <g id="xtick_3">
     <g id="line2d_3">
      <g>
       <use style="stroke:#000000;stroke-width:0.8;" x="538.476147" xlink:href="#m2eadb34378" y="640.8"/>
      </g>
     </g>
     <g id="text_3">
      <!-- 300.0 -->
      <defs>
       <path d="M 40.578125 39.3125 
Q 47.65625 37.796875 51.625 33 
Q 55.609375 28.21875 55.609375 21.1875 
Q 55.609375 10.40625 48.1875 4.484375 
Q 40.765625 -1.421875 27.09375 -1.421875 
Q 22.515625 -1.421875 17.65625 -0.515625 
Q 12.796875 0.390625 7.625 2.203125 
L 7.625 11.71875 
Q 11.71875 9.328125 16.59375 8.109375 
Q 21.484375 6.890625 26.8125 6.890625 
Q 36.078125 6.890625 40.9375 10.546875 
Q 45.796875 14.203125 45.796875 21.1875 
Q 45.796875 27.640625 41.28125 31.265625 
Q 36.765625 34.90625 28.71875 34.90625 
L 20.21875 34.90625 
L 20.21875 43.015625 
L 29.109375 43.015625 
Q 36.375 43.015625 40.234375 45.921875 
Q 44.09375 48.828125 44.09375 54.296875 
Q 44.09375 59.90625 40.109375 62.90625 
Q 36.140625 65.921875 28.71875 65.921875 
Q 24.65625 65.921875 20.015625 65.03125 
Q 15.375 64.15625 9.8125 62.3125 
L 9.8125 71.09375 
Q 15.4375 72.65625 20.34375 73.4375 
Q 25.25 74.21875 29.59375 74.21875 
Q 40.828125 74.21875 47.359375 69.109375 
Q 53.90625 64.015625 53.90625 55.328125 
Q 53.90625 49.265625 50.4375 45.09375 
Q 46.96875 40.921875 40.578125 39.3125 
z
" id="DejaVuSans-51"/>
      </defs>
      <g transform="translate(524.162084 655.398438)scale(0.1 -0.1)">
       <use xlink:href="#DejaVuSans-51"/>
       <use x="63.623047" xlink:href="#DejaVuSans-48"/>
       <use x="127.246094" xlink:href="#DejaVuSans-48"/>
       <use x="190.869141" xlink:href="#DejaVuSans-46"/>
       <use x="222.65625" xlink:href="#DejaVuSans-48"/>
      </g>
     </g>
    </g>
    <g id="xtick_4">
     <g id="line2d_4">
      <g>
       <use style="stroke:#000000;stroke-width:0.8;" x="641.059105" xlink:href="#m2eadb34378" y="640.8"/>
      </g>
     </g>
     <g id="text_4">
      <!-- 400.0 -->
      <defs>
       <path d="M 37.796875 64.3125 
L 12.890625 25.390625 
L 37.796875 25.390625 
z
M 35.203125 72.90625 
L 47.609375 72.90625 
L 47.609375 25.390625 
L 58.015625 25.390625 
L 58.015625 17.1875 
L 47.609375 17.1875 
L 47.609375 0 
L 37.796875 0 
L 37.796875 17.1875 
L 4.890625 17.1875 
L 4.890625 26.703125 
z
" id="DejaVuSans-52"/>
      </defs>
      <g transform="translate(626.745042 655.398438)scale(0.1 -0.1)">
       <use xlink:href="#DejaVuSans-52"/>
       <use x="63.623047" xlink:href="#DejaVuSans-48"/>
       <use x="127.246094" xlink:href="#DejaVuSans-48"/>
       <use x="190.869141" xlink:href="#DejaVuSans-46"/>
       <use x="222.65625" xlink:href="#DejaVuSans-48"/>
      </g>
     </g>
    </g>
    <g id="xtick_5">
     <g id="line2d_5">
      <g>
       <use style="stroke:#000000;stroke-width:0.8;" x="743.642063" xlink:href="#m2eadb34378" y="640.8"/>
      </g>
     </g>
     <g id="text_5">
      <!-- 500.0 -->
      <defs>
       <path d="M 10.796875 72.90625 
L 49.515625 72.90625 
L 49.515625 64.59375 
L 19.828125 64.59375 
L 19.828125 46.734375 
Q 21.96875 47.46875 24.109375 47.828125 
Q 26.265625 48.1875 28.421875 48.1875 
Q 40.625 48.1875 47.75 41.5 
Q 54.890625 34.8125 54.890625 23.390625 
Q 54.890625 11.625 47.5625 5.09375 
Q 40.234375 -1.421875 26.90625 -1.421875 
Q 22.3125 -1.421875 17.546875 -0.640625 
Q 12.796875 0.140625 7.71875 1.703125 
L 7.71875 11.625 
Q 12.109375 9.234375 16.796875 8.0625 
Q 21.484375 6.890625 26.703125 6.890625 
Q 35.15625 6.890625 40.078125 11.328125 
Q 45.015625 15.765625 45.015625 23.390625 
Q 45.015625 31 40.078125 35.4375 
Q 35.15625 39.890625 26.703125 39.890625 
Q 22.75 39.890625 18.8125 39.015625 
Q 14.890625 38.140625 10.796875 36.28125 
z
" id="DejaVuSans-53"/>
      </defs>
      <g transform="translate(729.328 655.398438)scale(0.1 -0.1)">
       <use xlink:href="#DejaVuSans-53"/>
       <use x="63.623047" xlink:href="#DejaVuSans-48"/>
       <use x="127.246094" xlink:href="#DejaVuSans-48"/>
       <use x="190.869141" xlink:href="#DejaVuSans-46"/>
       <use x="222.65625" xlink:href="#DejaVuSans-48"/>
      </g>
     </g>
    </g>
    <g id="xtick_6">
     <g id="line2d_6">
      <g>
       <use style="stroke:#000000;stroke-width:0.8;" x="846.225021" xlink:href="#m2eadb34378" y="640.8"/>
      </g>
     </g>
     <g id="text_6">
      <!-- 600.0 -->
      <defs>
       <path d="M 33.015625 40.375 
Q 26.375 40.375 22.484375 35.828125 
Q 18.609375 31.296875 18.609375 23.390625 
Q 18.609375 15.53125 22.484375 10.953125 
Q 26.375 6.390625 33.015625 6.390625 
Q 39.65625 6.390625 43.53125 10.953125 
Q 47.40625 15.53125 47.40625 23.390625 
Q 47.40625 31.296875 43.53125 35.828125 
Q 39.65625 40.375 33.015625 40.375 
z
M 52.59375 71.296875 
L 52.59375 62.3125 
Q 48.875 64.0625 45.09375 64.984375 
Q 41.3125 65.921875 37.59375 65.921875 
Q 27.828125 65.921875 22.671875 59.328125 
Q 17.53125 52.734375 16.796875 39.40625 
Q 19.671875 43.65625 24.015625 45.921875 
Q 28.375 48.1875 33.59375 48.1875 
Q 44.578125 48.1875 50.953125 41.515625 
Q 57.328125 34.859375 57.328125 23.390625 
Q 57.328125 12.15625 50.6875 5.359375 
Q 44.046875 -1.421875 33.015625 -1.421875 
Q 20.359375 -1.421875 13.671875 8.265625 
Q 6.984375 17.96875 6.984375 36.375 
Q 6.984375 53.65625 15.1875 63.9375 
Q 23.390625 74.21875 37.203125 74.21875 
Q 40.921875 74.21875 44.703125 73.484375 
Q 48.484375 72.75 52.59375 71.296875 
z
" id="DejaVuSans-54"/>
      </defs>
      <g transform="translate(831.910958 655.398438)scale(0.1 -0.1)">
       <use xlink:href="#DejaVuSans-54"/>
       <use x="63.623047" xlink:href="#DejaVuSans-48"/>
       <use x="127.246094" xlink:href="#DejaVuSans-48"/>
       <use x="190.869141" xlink:href="#DejaVuSans-46"/>
       <use x="222.65625" xlink:href="#DejaVuSans-48"/>
      </g>
     </g>
    </g>
    <g id="xtick_7">
     <g id="line2d_7">
      <g>
       <use style="stroke:#000000;stroke-width:0.8;" x="948.807979" xlink:href="#m2eadb34378" y="640.8"/>
      </g>
     </g>
     <g id="text_7">
      <!-- 700.0 -->
      <defs>
       <path d="M 8.203125 72.90625 
L 55.078125 72.90625 
L 55.078125 68.703125 
L 28.609375 0 
L 18.3125 0 
L 43.21875 64.59375 
L 8.203125 64.59375 
z
" id="DejaVuSans-55"/>
      </defs>
      <g transform="translate(934.493916 655.398438)scale(0.1 -0.1)">
       <use xlink:href="#DejaVuSans-55"/>
       <use x="63.623047" xlink:href="#DejaVuSans-48"/>
       <use x="127.246094" xlink:href="#DejaVuSans-48"/>
       <use x="190.869141" xlink:href="#DejaVuSans-46"/>
       <use x="222.65625" xlink:href="#DejaVuSans-48"/>
      </g>
     </g>
    </g>
    <g id="xtick_8">
     <g id="line2d_8">
      <g>
       <use style="stroke:#000000;stroke-width:0.8;" x="1051.390937" xlink:href="#m2eadb34378" y="640.8"/>
      </g>
     </g>
     <g id="text_8">
      <!-- 800.0 -->
      <defs>
       <path d="M 31.78125 34.625 
Q 24.75 34.625 20.71875 30.859375 
Q 16.703125 27.09375 16.703125 20.515625 
Q 16.703125 13.921875 20.71875 10.15625 
Q 24.75 6.390625 31.78125 6.390625 
Q 38.8125 6.390625 42.859375 10.171875 
Q 46.921875 13.96875 46.921875 20.515625 
Q 46.921875 27.09375 42.890625 30.859375 
Q 38.875 34.625 31.78125 34.625 
z
M 21.921875 38.8125 
Q 15.578125 40.375 12.03125 44.71875 
Q 8.5 49.078125 8.5 55.328125 
Q 8.5 64.0625 14.71875 69.140625 
Q 20.953125 74.21875 31.78125 74.21875 
Q 42.671875 74.21875 48.875 69.140625 
Q 55.078125 64.0625 55.078125 55.328125 
Q 55.078125 49.078125 51.53125 44.71875 
Q 48 40.375 41.703125 38.8125 
Q 48.828125 37.15625 52.796875 32.3125 
Q 56.78125 27.484375 56.78125 20.515625 
Q 56.78125 9.90625 50.3125 4.234375 
Q 43.84375 -1.421875 31.78125 -1.421875 
Q 19.734375 -1.421875 13.25 4.234375 
Q 6.78125 9.90625 6.78125 20.515625 
Q 6.78125 27.484375 10.78125 32.3125 
Q 14.796875 37.15625 21.921875 38.8125 
z
M 18.3125 54.390625 
Q 18.3125 48.734375 21.84375 45.5625 
Q 25.390625 42.390625 31.78125 42.390625 
Q 38.140625 42.390625 41.71875 45.5625 
Q 45.3125 48.734375 45.3125 54.390625 
Q 45.3125 60.0625 41.71875 63.234375 
Q 38.140625 66.40625 31.78125 66.40625 
Q 25.390625 66.40625 21.84375 63.234375 
Q 18.3125 60.0625 18.3125 54.390625 
z
" id="DejaVuSans-56"/>
      </defs>
      <g transform="translate(1037.076874 655.398438)scale(0.1 -0.1)">
       <use xlink:href="#DejaVuSans-56"/>
       <use x="63.623047" xlink:href="#DejaVuSans-48"/>
       <use x="127.246094" xlink:href="#DejaVuSans-48"/>
       <use x="190.869141" xlink:href="#DejaVuSans-46"/>
       <use x="222.65625" xlink:href="#DejaVuSans-48"/>
      </g>
     </g>
    </g>
    <g id="xtick_9">
     <g id="line2d_9">
      <g>
       <use style="stroke:#000000;stroke-width:0.8;" x="1153.973895" xlink:href="#m2eadb34378" y="640.8"/>
      </g>
     </g>
     <g id="text_9">
      <!-- 900.0 -->
      <defs>
       <path d="M 10.984375 1.515625 
L 10.984375 10.5 
Q 14.703125 8.734375 18.5 7.8125 
Q 22.3125 6.890625 25.984375 6.890625 
Q 35.75 6.890625 40.890625 13.453125 
Q 46.046875 20.015625 46.78125 33.40625 
Q 43.953125 29.203125 39.59375 26.953125 
Q 35.25 24.703125 29.984375 24.703125 
Q 19.046875 24.703125 12.671875 31.3125 
Q 6.296875 37.9375 6.296875 49.421875 
Q 6.296875 60.640625 12.9375 67.421875 
Q 19.578125 74.21875 30.609375 74.21875 
Q 43.265625 74.21875 49.921875 64.515625 
Q 56.59375 54.828125 56.59375 36.375 
Q 56.59375 19.140625 48.40625 8.859375 
Q 40.234375 -1.421875 26.421875 -1.421875 
Q 22.703125 -1.421875 18.890625 -0.6875 
Q 15.09375 0.046875 10.984375 1.515625 
z
M 30.609375 32.421875 
Q 37.25 32.421875 41.125 36.953125 
Q 45.015625 41.5 45.015625 49.421875 
Q 45.015625 57.28125 41.125 61.84375 
Q 37.25 66.40625 30.609375 66.40625 
Q 23.96875 66.40625 20.09375 61.84375 
Q 16.21875 57.28125 16.21875 49.421875 
Q 16.21875 41.5 20.09375 36.953125 
Q 23.96875 32.421875 30.609375 32.421875 
z
" id="DejaVuSans-57"/>
      </defs>
      <g transform="translate(1139.659832 655.398438)scale(0.1 -0.1)">
       <use xlink:href="#DejaVuSans-57"/>
       <use x="63.623047" xlink:href="#DejaVuSans-48"/>
       <use x="127.246094" xlink:href="#DejaVuSans-48"/>
       <use x="190.869141" xlink:href="#DejaVuSans-46"/>
       <use x="222.65625" xlink:href="#DejaVuSans-48"/>
      </g>
     </g>
    </g>
    <g id="xtick_10">
     <g id="line2d_10">
      <g>
       <use style="stroke:#000000;stroke-width:0.8;" x="1256.556853" xlink:href="#m2eadb34378" y="640.8"/>
      </g>
     </g>
     <g id="text_10">
      <!-- 1000.0 -->
      <g transform="translate(1239.06154 655.398438)scale(0.1 -0.1)">
       <use xlink:href="#DejaVuSans-49"/>
       <use x="63.623047" xlink:href="#DejaVuSans-48"/>
       <use x="127.246094" xlink:href="#DejaVuSans-48"/>
       <use x="190.869141" xlink:href="#DejaVuSans-48"/>
       <use x="254.492188" xlink:href="#DejaVuSans-46"/>
       <use x="286.279297" xlink:href="#DejaVuSans-48"/>
      </g>
     </g>
    </g>
    <g id="text_11">
     <!-- n -->
     <defs>
      <path d="M 54.890625 33.015625 
L 54.890625 0 
L 45.90625 0 
L 45.90625 32.71875 
Q 45.90625 40.484375 42.875 44.328125 
Q 39.84375 48.1875 33.796875 48.1875 
Q 26.515625 48.1875 22.3125 43.546875 
Q 18.109375 38.921875 18.109375 30.90625 
L 18.109375 0 
L 9.078125 0 
L 9.078125 54.6875 
L 18.109375 54.6875 
L 18.109375 46.1875 
Q 21.34375 51.125 25.703125 53.5625 
Q 30.078125 56 35.796875 56 
Q 45.21875 56 50.046875 50.171875 
Q 54.890625 44.34375 54.890625 33.015625 
z
" id="DejaVuSans-110"/>
     </defs>
     <g transform="translate(734.83125 669.076563)scale(0.1 -0.1)">
      <use xlink:href="#DejaVuSans-110"/>
     </g>
    </g>
   </g>
   <g id="matplotlib.axis_2">
    <g id="ytick_1">
     <g id="line2d_11">
      <defs>
       <path d="M 0 0 
L -3.5 0 
" id="m78cc9d6870" style="stroke:#000000;stroke-width:0.8;"/>
      </defs>
      <g>
       <use style="stroke:#000000;stroke-width:0.8;" x="180" xlink:href="#m78cc9d6870" y="538.443797"/>
      </g>
     </g>
     <g id="text_12">
      <!-- 100 -->
      <g transform="translate(153.9125 542.243016)scale(0.1 -0.1)">
       <use xlink:href="#DejaVuSans-49"/>
       <use x="63.623047" xlink:href="#DejaVuSans-48"/>
       <use x="127.246094" xlink:href="#DejaVuSans-48"/>
      </g>
     </g>
    </g>
    <g id="ytick_2">
     <g id="line2d_12">
      <g>
       <use style="stroke:#000000;stroke-width:0.8;" x="180" xlink:href="#m78cc9d6870" y="432.379842"/>
      </g>
     </g>
     <g id="text_13">
      <!-- 200 -->
      <g transform="translate(153.9125 436.17906)scale(0.1 -0.1)">
       <use xlink:href="#DejaVuSans-50"/>
       <use x="63.623047" xlink:href="#DejaVuSans-48"/>
       <use x="127.246094" xlink:href="#DejaVuSans-48"/>
      </g>
     </g>
    </g>
    <g id="ytick_3">
     <g id="line2d_13">
      <g>
       <use style="stroke:#000000;stroke-width:0.8;" x="180" xlink:href="#m78cc9d6870" y="326.315886"/>
      </g>
     </g>
     <g id="text_14">
      <!-- 300 -->
      <g transform="translate(153.9125 330.115105)scale(0.1 -0.1)">
       <use xlink:href="#DejaVuSans-51"/>
       <use x="63.623047" xlink:href="#DejaVuSans-48"/>
       <use x="127.246094" xlink:href="#DejaVuSans-48"/>
      </g>
     </g>
    </g>
    <g id="ytick_4">
     <g id="line2d_14">
      <g>
       <use style="stroke:#000000;stroke-width:0.8;" x="180" xlink:href="#m78cc9d6870" y="220.251931"/>
      </g>
     </g>
     <g id="text_15">
      <!-- 400 -->
      <g transform="translate(153.9125 224.051149)scale(0.1 -0.1)">
       <use xlink:href="#DejaVuSans-52"/>
       <use x="63.623047" xlink:href="#DejaVuSans-48"/>
       <use x="127.246094" xlink:href="#DejaVuSans-48"/>
      </g>
     </g>
    </g>
    <g id="ytick_5">
     <g id="line2d_15">
      <g>
       <use style="stroke:#000000;stroke-width:0.8;" x="180" xlink:href="#m78cc9d6870" y="114.187975"/>
      </g>
     </g>
     <g id="text_16">
      <!-- 500 -->
      <g transform="translate(153.9125 117.987194)scale(0.1 -0.1)">
       <use xlink:href="#DejaVuSans-53"/>
       <use x="63.623047" xlink:href="#DejaVuSans-48"/>
       <use x="127.246094" xlink:href="#DejaVuSans-48"/>
      </g>
     </g>
    </g>
    <g id="text_17">
     <!-- speedup -->
     <defs>
      <path d="M 44.28125 53.078125 
L 44.28125 44.578125 
Q 40.484375 46.53125 36.375 47.5 
Q 32.28125 48.484375 27.875 48.484375 
Q 21.1875 48.484375 17.84375 46.4375 
Q 14.5 44.390625 14.5 40.28125 
Q 14.5 37.15625 16.890625 35.375 
Q 19.28125 33.59375 26.515625 31.984375 
L 29.59375 31.296875 
Q 39.15625 29.25 43.1875 25.515625 
Q 47.21875 21.78125 47.21875 15.09375 
Q 47.21875 7.46875 41.1875 3.015625 
Q 35.15625 -1.421875 24.609375 -1.421875 
Q 20.21875 -1.421875 15.453125 -0.5625 
Q 10.6875 0.296875 5.421875 2 
L 5.421875 11.28125 
Q 10.40625 8.6875 15.234375 7.390625 
Q 20.0625 6.109375 24.8125 6.109375 
Q 31.15625 6.109375 34.5625 8.28125 
Q 37.984375 10.453125 37.984375 14.40625 
Q 37.984375 18.0625 35.515625 20.015625 
Q 33.0625 21.96875 24.703125 23.78125 
L 21.578125 24.515625 
Q 13.234375 26.265625 9.515625 29.90625 
Q 5.8125 33.546875 5.8125 39.890625 
Q 5.8125 47.609375 11.28125 51.796875 
Q 16.75 56 26.8125 56 
Q 31.78125 56 36.171875 55.265625 
Q 40.578125 54.546875 44.28125 53.078125 
z
" id="DejaVuSans-115"/>
      <path d="M 18.109375 8.203125 
L 18.109375 -20.796875 
L 9.078125 -20.796875 
L 9.078125 54.6875 
L 18.109375 54.6875 
L 18.109375 46.390625 
Q 20.953125 51.265625 25.265625 53.625 
Q 29.59375 56 35.59375 56 
Q 45.5625 56 51.78125 48.09375 
Q 58.015625 40.1875 58.015625 27.296875 
Q 58.015625 14.40625 51.78125 6.484375 
Q 45.5625 -1.421875 35.59375 -1.421875 
Q 29.59375 -1.421875 25.265625 0.953125 
Q 20.953125 3.328125 18.109375 8.203125 
z
M 48.6875 27.296875 
Q 48.6875 37.203125 44.609375 42.84375 
Q 40.53125 48.484375 33.40625 48.484375 
Q 26.265625 48.484375 22.1875 42.84375 
Q 18.109375 37.203125 18.109375 27.296875 
Q 18.109375 17.390625 22.1875 11.75 
Q 26.265625 6.109375 33.40625 6.109375 
Q 40.53125 6.109375 44.609375 11.75 
Q 48.6875 17.390625 48.6875 27.296875 
z
" id="DejaVuSans-112"/>
      <path d="M 56.203125 29.59375 
L 56.203125 25.203125 
L 14.890625 25.203125 
Q 15.484375 15.921875 20.484375 11.0625 
Q 25.484375 6.203125 34.421875 6.203125 
Q 39.59375 6.203125 44.453125 7.46875 
Q 49.3125 8.734375 54.109375 11.28125 
L 54.109375 2.78125 
Q 49.265625 0.734375 44.1875 -0.34375 
Q 39.109375 -1.421875 33.890625 -1.421875 
Q 20.796875 -1.421875 13.15625 6.1875 
Q 5.515625 13.8125 5.515625 26.8125 
Q 5.515625 40.234375 12.765625 48.109375 
Q 20.015625 56 32.328125 56 
Q 43.359375 56 49.78125 48.890625 
Q 56.203125 41.796875 56.203125 29.59375 
z
M 47.21875 32.234375 
Q 47.125 39.59375 43.09375 43.984375 
Q 39.0625 48.390625 32.421875 48.390625 
Q 24.90625 48.390625 20.390625 44.140625 
Q 15.875 39.890625 15.1875 32.171875 
z
" id="DejaVuSans-101"/>
      <path d="M 45.40625 46.390625 
L 45.40625 75.984375 
L 54.390625 75.984375 
L 54.390625 0 
L 45.40625 0 
L 45.40625 8.203125 
Q 42.578125 3.328125 38.25 0.953125 
Q 33.9375 -1.421875 27.875 -1.421875 
Q 17.96875 -1.421875 11.734375 6.484375 
Q 5.515625 14.40625 5.515625 27.296875 
Q 5.515625 40.1875 11.734375 48.09375 
Q 17.96875 56 27.875 56 
Q 33.9375 56 38.25 53.625 
Q 42.578125 51.265625 45.40625 46.390625 
z
M 14.796875 27.296875 
Q 14.796875 17.390625 18.875 11.75 
Q 22.953125 6.109375 30.078125 6.109375 
Q 37.203125 6.109375 41.296875 11.75 
Q 45.40625 17.390625 45.40625 27.296875 
Q 45.40625 37.203125 41.296875 42.84375 
Q 37.203125 48.484375 30.078125 48.484375 
Q 22.953125 48.484375 18.875 42.84375 
Q 14.796875 37.203125 14.796875 27.296875 
z
" id="DejaVuSans-100"/>
      <path d="M 8.5 21.578125 
L 8.5 54.6875 
L 17.484375 54.6875 
L 17.484375 21.921875 
Q 17.484375 14.15625 20.5 10.265625 
Q 23.53125 6.390625 29.59375 6.390625 
Q 36.859375 6.390625 41.078125 11.03125 
Q 45.3125 15.671875 45.3125 23.6875 
L 45.3125 54.6875 
L 54.296875 54.6875 
L 54.296875 0 
L 45.3125 0 
L 45.3125 8.40625 
Q 42.046875 3.421875 37.71875 1 
Q 33.40625 -1.421875 27.6875 -1.421875 
Q 18.265625 -1.421875 13.375 4.4375 
Q 8.5 10.296875 8.5 21.578125 
z
M 31.109375 56 
z
" id="DejaVuSans-117"/>
     </defs>
     <g transform="translate(147.832812 385.049219)rotate(-90)scale(0.1 -0.1)">
      <use xlink:href="#DejaVuSans-115"/>
      <use x="52.099609" xlink:href="#DejaVuSans-112"/>
      <use x="115.576172" xlink:href="#DejaVuSans-101"/>
      <use x="177.099609" xlink:href="#DejaVuSans-101"/>
      <use x="238.623047" xlink:href="#DejaVuSans-100"/>
      <use x="302.099609" xlink:href="#DejaVuSans-117"/>
      <use x="365.478516" xlink:href="#DejaVuSans-112"/>
     </g>
    </g>
   </g>
   <g id="line2d_16">
    <path clip-path="url(#p5f58f0bbe1)" d="M 230.727273 318.295079 
L 231.753102 386.472047 
L 232.778932 199.766215 
L 233.804761 396.047642 
L 234.830591 226.236313 
L 235.856421 405.016403 
L 236.88225 224.436823 
L 237.90808 220.944497 
L 238.933909 233.694144 
L 239.959739 273.134541 
L 240.985569 239.737627 
L 242.011398 225.598863 
L 243.037228 269.408615 
L 244.063057 418.34865 
L 245.088887 242.909273 
L 247.140546 291.187458 
L 248.166376 270.850609 
L 249.192205 270.990037 
L 250.218035 306.031709 
L 251.243864 306.651993 
L 252.269694 318.31307 
L 253.295523 315.145116 
L 254.321353 323.071993 
L 255.347183 288.936929 
L 256.373012 337.316702 
L 257.398842 336.526201 
L 258.424671 469.650137 
L 259.450501 339.372992 
L 260.476331 351.961086 
L 261.50216 352.803966 
L 262.52799 330.661081 
L 263.553819 373.431247 
L 264.579649 331.829911 
L 265.605478 355.669948 
L 266.631308 313.323645 
L 267.657138 370.294848 
L 268.682967 327.038693 
L 269.708797 373.252246 
L 270.734626 355.219316 
L 271.760456 350.957107 
L 272.786286 377.349875 
L 274.837945 351.424683 
L 275.863774 373.550256 
L 276.889604 332.268541 
L 277.915433 404.863634 
L 278.941263 374.681696 
L 279.967093 378.49321 
L 280.992922 350.800145 
L 282.018752 367.762949 
L 283.044581 344.25417 
L 284.070411 399.198991 
L 285.09624 391.208556 
L 286.12207 371.10691 
L 287.1479 388.997298 
L 288.173729 409.35873 
L 289.199559 357.751973 
L 290.225388 440.850927 
L 291.251218 382.164148 
L 292.277048 377.247781 
L 293.302877 386.881187 
L 294.328707 442.38679 
L 295.354536 367.909188 
L 296.380366 389.496106 
L 297.406195 393.085518 
L 298.432025 394.73884 
L 299.457855 393.402418 
L 300.483684 389.82622 
L 301.509514 442.062656 
L 302.535343 384.195206 
L 303.561173 348.841882 
L 304.587002 354.549782 
L 305.612832 429.668067 
L 306.638662 380.494213 
L 307.664491 448.745766 
L 308.690321 394.349671 
L 310.74198 408.150206 
L 311.76781 394.026211 
L 312.793639 433.220539 
L 313.819469 419.399639 
L 314.845298 416.181386 
L 315.871128 397.986514 
L 316.896957 426.306764 
L 317.922787 444.6258 
L 318.948617 459.063933 
L 319.974446 457.09365 
L 321.000276 456.156366 
L 322.026105 402.095657 
L 323.051935 450.612569 
L 324.077765 456.374197 
L 325.103594 458.600169 
L 326.129424 491.933964 
L 327.155253 411.344339 
L 328.181083 403.934125 
L 329.206912 411.98511 
L 330.232742 412.791396 
L 331.258572 414.327873 
L 332.284401 458.887831 
L 333.310231 422.68323 
L 335.36189 466.456429 
L 336.387719 436.410566 
L 337.413549 415.975446 
L 338.439379 434.330084 
L 339.465208 420.332002 
L 340.491038 440.524639 
L 341.516867 440.854187 
L 342.542697 434.137851 
L 343.568527 413.648221 
L 344.594356 432.928985 
L 345.620186 423.469886 
L 346.646015 442.852948 
L 347.671845 435.687269 
L 349.723504 451.377751 
L 350.749334 427.062773 
L 351.775163 449.234202 
L 352.800993 507.475332 
L 353.826822 466.220665 
L 354.852652 472.960292 
L 355.878481 447.295031 
L 356.904311 474.132882 
L 357.930141 451.889848 
L 358.95597 478.773368 
L 359.9818 482.829003 
L 361.007629 472.940512 
L 362.033459 480.402181 
L 363.059289 466.67425 
L 364.085118 465.317922 
L 365.110948 469.926923 
L 366.136777 458.970219 
L 367.162607 466.858626 
L 368.188436 521.273945 
L 369.214266 448.346437 
L 370.240096 446.872882 
L 371.265925 446.965725 
L 372.291755 436.797813 
L 373.317584 441.381312 
L 374.343414 468.195343 
L 375.369243 476.372265 
L 376.395073 463.713778 
L 377.420903 459.748807 
L 378.446732 468.926321 
L 379.472562 499.001204 
L 380.498391 451.851452 
L 381.524221 441.221515 
L 382.550051 470.612717 
L 383.57588 468.342171 
L 384.60171 465.436033 
L 385.627539 492.435311 
L 386.653369 457.363461 
L 387.679198 471.650603 
L 388.705028 463.652549 
L 389.730858 478.436177 
L 390.756687 466.19504 
L 391.782517 465.688493 
L 392.808346 467.224176 
L 393.834176 448.929441 
L 394.860006 464.022655 
L 395.885835 486.530511 
L 396.911665 488.521112 
L 397.937494 487.798954 
L 398.963324 493.307835 
L 399.989153 493.78929 
L 401.014983 503.672366 
L 402.040813 539.39754 
L 403.066642 516.447607 
L 404.092472 475.654763 
L 405.118301 470.703863 
L 406.144131 458.691258 
L 407.16996 475.744365 
L 408.19579 479.291934 
L 409.22162 468.322878 
L 410.247449 460.413798 
L 411.273279 476.310674 
L 412.299108 477.118162 
L 413.324938 468.856676 
L 414.350768 463.391078 
L 415.376597 480.378725 
L 416.402427 480.946246 
L 417.428256 483.54561 
L 418.454086 475.145913 
L 419.479915 474.347611 
L 420.505745 487.721922 
L 421.531575 472.219233 
L 422.557404 467.051897 
L 423.583234 473.957437 
L 424.609063 476.551298 
L 425.634893 477.569993 
L 426.660722 485.482357 
L 427.686552 509.518501 
L 428.712382 487.96133 
L 429.738211 471.241085 
L 430.764041 486.212741 
L 431.78987 495.714466 
L 432.8157 488.166197 
L 433.84153 475.63462 
L 434.867359 477.718168 
L 435.893189 520.227233 
L 436.919018 494.976632 
L 437.944848 492.184468 
L 438.970677 493.395384 
L 439.996507 509.321586 
L 441.022337 497.431631 
L 442.048166 501.014654 
L 443.073996 477.930034 
L 444.099825 496.942467 
L 445.125655 484.284161 
L 446.151485 504.878281 
L 447.177314 499.05195 
L 448.203144 484.107426 
L 449.228973 512.074567 
L 450.254803 507.734237 
L 451.280632 505.741891 
L 452.306462 486.626967 
L 453.332292 499.640177 
L 454.358121 489.005915 
L 455.383951 485.099621 
L 456.40978 513.624942 
L 457.43561 504.728468 
L 458.461439 488.680633 
L 459.487269 483.550354 
L 460.513099 507.72248 
L 461.538928 502.627338 
L 462.564758 493.316172 
L 463.590587 493.49099 
L 464.616417 501.823448 
L 465.642247 494.846971 
L 466.668076 495.117432 
L 467.693906 492.834354 
L 468.719735 484.183707 
L 469.745565 506.345018 
L 470.771394 360.045678 
L 471.797224 491.950608 
L 472.823054 486.268366 
L 473.848883 490.514206 
L 474.874713 504.953883 
L 475.900542 545.805517 
L 476.926372 504.6764 
L 477.952201 492.032808 
L 478.978031 502.166304 
L 480.003861 513.495789 
L 481.02969 497.918222 
L 482.05552 510.550178 
L 483.081349 502.263974 
L 484.107179 503.041706 
L 485.133009 491.681429 
L 486.158838 517.80057 
L 487.184668 515.190025 
L 488.210497 558.315703 
L 489.236327 520.921847 
L 490.262156 518.735129 
L 491.287986 509.85972 
L 492.313816 524.308878 
L 493.339645 514.313294 
L 494.365475 498.977655 
L 495.391304 522.377436 
L 496.417134 560.024499 
L 497.442964 505.193268 
L 498.468793 509.119693 
L 499.494623 505.105204 
L 500.520452 520.694277 
L 501.546282 521.712002 
L 502.572111 520.520297 
L 503.597941 518.171113 
L 504.623771 526.263394 
L 505.6496 517.207884 
L 506.67543 509.646553 
L 507.701259 506.451953 
L 508.727089 512.77714 
L 509.752918 503.795909 
L 510.778748 490.326995 
L 511.804578 517.426393 
L 512.830407 515.246797 
L 513.856237 511.117945 
L 514.882066 516.434943 
L 515.907896 515.30607 
L 517.959555 520.065385 
L 518.985385 504.002303 
L 520.011214 522.873933 
L 521.037044 529.998482 
L 522.062873 514.591584 
L 523.088703 506.637833 
L 524.114533 520.882448 
L 525.140362 526.391738 
L 526.166192 513.626155 
L 527.192021 526.794233 
L 528.217851 505.357475 
L 529.24368 519.477255 
L 530.26951 512.285922 
L 531.29534 509.322274 
L 532.321169 521.808365 
L 533.346999 528.68212 
L 534.372828 508.846795 
L 535.398658 527.763028 
L 536.424488 523.049425 
L 537.450317 528.969307 
L 538.476147 526.652943 
L 539.501976 521.900683 
L 540.527806 532.181121 
L 541.553635 534.356525 
L 542.579465 532.226054 
L 543.605295 531.928299 
L 544.631124 529.547256 
L 545.656954 535.468394 
L 546.682783 510.617985 
L 547.708613 533.137286 
L 548.734443 534.724245 
L 549.760272 543.897968 
L 550.786102 538.643572 
L 551.811931 536.981166 
L 552.837761 532.203738 
L 553.86359 534.272547 
L 554.88942 538.436951 
L 555.91525 534.996233 
L 556.941079 530.13208 
L 557.966909 519.482708 
L 558.992738 576.94411 
L 560.018568 535.89276 
L 561.044397 536.596123 
L 562.070227 545.564468 
L 563.096057 537.442717 
L 564.121886 538.593561 
L 565.147716 533.633164 
L 566.173545 531.32324 
L 567.199375 528.503161 
L 568.225205 528.034683 
L 569.251034 517.487344 
L 570.276864 534.540117 
L 571.302693 528.602194 
L 572.328523 531.322538 
L 573.354352 539.003845 
L 574.380182 535.081786 
L 575.406012 521.585564 
L 576.431841 540.36287 
L 577.457671 530.191896 
L 578.4835 525.954951 
L 579.50933 537.366765 
L 580.535159 536.399946 
L 581.560989 534.807166 
L 582.586819 531.524042 
L 583.612648 538.869008 
L 584.638478 538.955497 
L 585.664307 535.249292 
L 586.690137 532.715903 
L 587.715967 536.453499 
L 588.741796 535.022608 
L 589.767626 528.796771 
L 590.793455 528.511049 
L 591.819285 539.610664 
L 592.845114 540.720729 
L 593.870944 544.451061 
L 594.896774 540.415533 
L 595.922603 576.739849 
L 596.948433 537.601265 
L 597.974262 542.017935 
L 599.000092 540.247797 
L 601.051751 548.09824 
L 602.077581 538.598503 
L 603.10341 543.5405 
L 604.12924 547.467013 
L 605.155069 532.219788 
L 606.180899 537.924995 
L 607.206729 538.305244 
L 608.232558 532.587184 
L 609.258388 538.267854 
L 610.284217 542.772142 
L 611.310047 538.146291 
L 612.335876 542.77817 
L 613.361706 537.385517 
L 614.387536 544.663702 
L 615.413365 539.111725 
L 616.439195 539.470834 
L 617.465024 537.314682 
L 618.490854 542.15659 
L 619.516684 542.223778 
L 620.542513 541.745942 
L 622.594172 539.254631 
L 623.620002 543.334196 
L 624.645831 544.688384 
L 625.671661 533.548994 
L 626.697491 545.595085 
L 627.72332 545.164002 
L 628.74915 538.330891 
L 629.774979 547.816871 
L 630.800809 546.316145 
L 631.826638 558.699539 
L 632.852468 543.101382 
L 633.878298 539.617614 
L 634.904127 542.483823 
L 635.929957 544.581695 
L 636.955786 549.353928 
L 637.981616 547.987594 
L 639.007446 554.418056 
L 640.033275 550.216891 
L 641.059105 549.060882 
L 642.084934 552.33106 
L 643.110764 552.654927 
L 644.136593 557.22899 
L 646.188253 550.251208 
L 647.214082 544.156443 
L 648.239912 553.529724 
L 649.265741 564.464668 
L 650.291571 557.7085 
L 651.3174 542.087114 
L 652.34323 547.110144 
L 653.36906 557.533219 
L 654.394889 556.86468 
L 655.420719 550.131498 
L 656.446548 546.863125 
L 657.472378 556.33171 
L 658.498208 553.544091 
L 659.524037 549.396334 
L 660.549867 549.680717 
L 661.575696 551.337801 
L 662.601526 553.994084 
L 663.627355 554.756027 
L 664.653185 550.066071 
L 665.679015 552.697849 
L 666.704844 553.973337 
L 667.730674 549.096146 
L 668.756503 552.485084 
L 669.782333 554.865856 
L 670.808163 554.540788 
L 671.833992 552.567625 
L 672.859822 551.128037 
L 673.885651 554.03649 
L 674.911481 554.093392 
L 675.93731 561.078178 
L 676.96314 555.045119 
L 677.98897 556.472426 
L 679.014799 554.87811 
L 680.040629 559.383993 
L 681.066458 546.87956 
L 682.092288 562.793634 
L 683.118117 563.246622 
L 684.143947 571.626891 
L 685.169777 546.17901 
L 686.195606 555.341737 
L 687.221436 561.135053 
L 688.247265 554.140363 
L 689.273095 560.724166 
L 690.298925 561.534545 
L 691.324754 561.930602 
L 692.350584 555.162577 
L 693.376413 559.656192 
L 694.402243 558.269183 
L 695.428072 557.897167 
L 696.453902 566.296464 
L 697.479732 554.414573 
L 698.505561 563.615462 
L 699.531391 563.345139 
L 700.55722 557.195549 
L 701.58305 578.373654 
L 702.608879 561.196224 
L 703.634709 562.515619 
L 704.660539 554.451215 
L 705.686368 556.532879 
L 706.712198 562.440297 
L 707.738027 559.769041 
L 708.763857 554.023329 
L 709.789687 563.718501 
L 710.815516 568.399034 
L 711.841346 563.201811 
L 712.867175 556.932924 
L 713.893005 563.053197 
L 714.918834 578.280384 
L 715.944664 557.441538 
L 716.970494 556.803344 
L 717.996323 564.101946 
L 719.022153 560.845239 
L 720.047982 562.006614 
L 721.073812 558.644915 
L 722.099642 562.79526 
L 723.125471 565.881486 
L 724.151301 562.017846 
L 725.17713 558.919142 
L 726.20296 558.81825 
L 727.228789 559.572613 
L 728.254619 562.804392 
L 729.280449 559.36678 
L 730.306278 557.763884 
L 731.332108 561.831243 
L 732.357937 561.870145 
L 733.383767 560.389507 
L 734.409596 558.02324 
L 735.435426 563.000582 
L 736.461256 561.86242 
L 737.487085 559.239751 
L 738.512915 574.509963 
L 739.538744 564.274773 
L 740.564574 566.23329 
L 741.590404 561.557222 
L 742.616233 562.693024 
L 743.642063 561.826499 
L 744.667892 567.084532 
L 745.693722 558.165735 
L 746.719551 565.203253 
L 747.745381 568.230241 
L 748.771211 563.668834 
L 749.79704 561.763176 
L 751.848699 567.617846 
L 752.874529 566.028533 
L 753.900358 567.520756 
L 754.926188 564.971783 
L 755.952018 567.386149 
L 756.977847 567.652501 
L 758.003677 561.855218 
L 759.029506 562.54917 
L 760.055336 566.866526 
L 761.081166 567.311763 
L 762.106995 562.185669 
L 763.132825 563.694321 
L 764.158654 564.667963 
L 766.210313 568.064939 
L 767.236143 566.303437 
L 768.261973 567.252166 
L 769.287802 565.181289 
L 770.313632 566.367871 
L 771.339461 568.706699 
L 772.365291 569.287494 
L 773.391121 571.560647 
L 774.41695 576.686964 
L 775.44278 568.216683 
L 776.468609 566.239067 
L 777.494439 563.942799 
L 778.520268 565.013039 
L 779.546098 567.12702 
L 780.571928 561.780243 
L 781.597757 574.704579 
L 782.623587 578.489322 
L 783.649416 566.538196 
L 784.675246 580.425642 
L 785.701075 573.408169 
L 786.726905 552.954228 
L 788.778564 569.329868 
L 789.804394 570.649821 
L 790.830223 566.547405 
L 791.856053 564.537174 
L 792.881883 572.25494 
L 793.907712 569.54171 
L 794.933542 565.955835 
L 795.959371 563.976194 
L 796.985201 567.933337 
L 798.01103 561.768011 
L 799.03686 564.878191 
L 800.06269 582.059425 
L 801.088519 550.492088 
L 802.114349 571.092811 
L 803.140178 569.060255 
L 804.166008 566.737311 
L 805.191837 570.719823 
L 806.217667 568.647097 
L 807.243497 564.390486 
L 808.269326 568.716766 
L 809.295156 568.949586 
L 810.320985 564.779949 
L 811.346815 568.106018 
L 812.372645 570.026774 
L 813.398474 573.445879 
L 814.424304 568.179286 
L 815.450133 567.361621 
L 816.475963 568.883399 
L 818.527622 567.97998 
L 819.553452 571.94126 
L 820.579281 566.283705 
L 821.605111 571.10976 
L 822.63094 568.680383 
L 824.6826 574.064887 
L 825.708429 572.384864 
L 826.734259 572.273462 
L 827.760088 571.118474 
L 828.785918 568.418587 
L 829.811747 570.411625 
L 830.837577 589.37582 
L 831.863407 569.365373 
L 832.889236 566.616037 
L 833.915066 569.472971 
L 834.940895 583.910451 
L 835.966725 575.967278 
L 836.992554 584.738092 
L 838.018384 574.32838 
L 839.044214 573.900288 
L 840.070043 569.066205 
L 841.095873 529.536599 
L 842.121702 570.941666 
L 843.147532 573.617492 
L 844.173362 570.128188 
L 845.199191 572.241244 
L 846.225021 577.106396 
L 847.25085 575.1961 
L 848.27668 569.412755 
L 849.302509 570.316459 
L 850.328339 574.333367 
L 851.354169 573.707104 
L 852.379998 571.600762 
L 853.405828 573.180131 
L 854.431657 575.520866 
L 855.457487 576.866261 
L 856.483316 570.335398 
L 857.509146 576.873518 
L 858.534976 575.421291 
L 859.560805 576.185108 
L 860.586635 572.095086 
L 861.612464 572.315787 
L 862.638294 575.871133 
L 863.664124 576.676216 
L 864.689953 575.775954 
L 865.715783 570.449595 
L 866.741612 576.66222 
L 867.767442 576.146208 
L 868.793271 571.034126 
L 870.844931 574.369983 
L 871.87076 577.530734 
L 872.89659 571.326478 
L 873.922419 572.650782 
L 874.948249 576.714101 
L 875.974078 575.430541 
L 876.999908 573.148408 
L 878.025738 572.778737 
L 879.051567 575.49083 
L 880.077397 574.992332 
L 881.103226 573.223083 
L 882.129056 572.558471 
L 883.154886 577.153656 
L 884.180715 578.215566 
L 885.206545 572.113759 
L 886.232374 574.396501 
L 887.258204 577.065808 
L 888.284033 578.304447 
L 889.309863 572.392695 
L 890.335693 572.237193 
L 891.361522 577.453721 
L 892.387352 575.179329 
L 893.413181 575.242609 
L 894.439011 573.43762 
L 895.464841 577.146225 
L 896.49067 576.307831 
L 897.5165 574.237991 
L 898.542329 575.76102 
L 899.568159 578.589154 
L 900.593988 578.871788 
L 901.619818 573.323888 
L 902.645648 574.104246 
L 903.671477 577.653506 
L 904.697307 578.85401 
L 905.723136 573.294105 
L 906.748966 577.769239 
L 907.774795 578.483186 
L 908.800625 577.28481 
L 909.826455 575.366117 
L 910.852284 579.708253 
L 911.878114 579.525044 
L 912.903943 579.702626 
L 913.929773 575.116774 
L 914.955603 577.896131 
L 915.981432 579.385695 
L 917.007262 578.722817 
L 918.033091 572.110569 
L 920.08475 580.742313 
L 921.11058 580.791052 
L 922.13641 578.440209 
L 923.162239 573.335748 
L 924.188069 578.934065 
L 925.213898 577.635184 
L 926.239728 573.740862 
L 927.265557 576.313782 
L 928.291387 579.567892 
L 929.317217 577.442159 
L 930.343046 576.596616 
L 931.368876 576.743769 
L 932.394705 577.992355 
L 933.420535 578.024594 
L 934.446365 576.339046 
L 935.472194 583.457742 
L 936.498024 579.186419 
L 937.523853 578.250786 
L 938.549683 576.011365 
L 939.575512 577.63665 
L 940.601342 580.775088 
L 941.627172 577.587255 
L 942.653001 575.019048 
L 943.678831 576.598208 
L 944.70466 582.473449 
L 945.73049 577.906534 
L 946.75632 575.8927 
L 947.782149 575.355821 
L 948.807979 584.620182 
L 949.833808 577.367327 
L 950.859638 573.76681 
L 951.885467 574.461327 
L 952.911297 579.667217 
L 953.937127 578.466155 
L 954.962956 576.066354 
L 955.988786 585.441596 
L 957.014615 582.097167 
L 958.040445 584.067551 
L 959.066274 577.112313 
L 960.092104 577.30324 
L 961.117934 582.088018 
L 962.143763 581.084327 
L 963.169593 575.853092 
L 965.221252 581.116244 
L 966.247082 579.924521 
L 967.272911 578.227502 
L 968.298741 577.672194 
L 969.32457 581.414849 
L 970.3504 580.235336 
L 971.376229 578.852511 
L 972.402059 578.239796 
L 973.427889 582.062966 
L 975.479548 578.538661 
L 976.505377 580.209289 
L 977.531207 582.865322 
L 978.557036 580.429972 
L 979.582866 578.687125 
L 981.634525 581.036175 
L 982.660355 581.376147 
L 983.686184 577.408394 
L 984.712014 578.7792 
L 985.737844 584.001324 
L 986.763673 581.757446 
L 987.789503 580.754625 
L 989.841162 584.127601 
L 990.866991 582.180535 
L 992.918651 579.496501 
L 993.94448 584.52852 
L 994.97031 583.473257 
L 995.996139 580.055146 
L 997.021969 580.374624 
L 998.047799 582.947942 
L 999.073628 591.801637 
L 1000.099458 581.531739 
L 1001.125287 580.543378 
L 1002.151117 583.525463 
L 1003.176946 595.958439 
L 1004.202776 584.723412 
L 1005.228606 579.974407 
L 1006.254435 583.029921 
L 1007.280265 585.01779 
L 1008.306094 584.200277 
L 1009.331924 582.180411 
L 1010.357753 583.54153 
L 1011.383583 586.075135 
L 1012.409413 580.469309 
L 1013.435242 584.311292 
L 1015.486901 587.928023 
L 1016.512731 584.062063 
L 1017.538561 581.661846 
L 1018.56439 585.650535 
L 1019.59022 586.625785 
L 1020.616049 584.062145 
L 1021.641879 583.975615 
L 1022.667708 585.287773 
L 1023.693538 584.900499 
L 1024.719368 582.558138 
L 1025.745197 581.106605 
L 1026.771027 581.919757 
L 1027.796856 582.934613 
L 1028.822686 581.106484 
L 1029.848515 582.957287 
L 1030.874345 582.525335 
L 1031.900175 583.067245 
L 1032.926004 581.659043 
L 1033.951834 585.717122 
L 1034.977663 583.125432 
L 1036.003493 582.667997 
L 1037.029323 585.891688 
L 1038.055152 583.906995 
L 1039.080982 582.869913 
L 1040.106811 581.536775 
L 1041.132641 584.475525 
L 1042.15847 585.02208 
L 1043.1843 582.457989 
L 1045.235959 583.704408 
L 1046.261789 583.065247 
L 1047.287618 582.790678 
L 1048.313448 584.954611 
L 1049.339278 583.743418 
L 1050.365107 585.050361 
L 1051.390937 585.258594 
L 1053.442596 585.325791 
L 1054.468425 584.256998 
L 1055.494255 584.283643 
L 1056.520085 584.554565 
L 1057.545914 585.917188 
L 1058.571744 585.261874 
L 1059.597573 585.103353 
L 1060.623403 582.765576 
L 1061.649232 584.141239 
L 1062.675062 584.619477 
L 1063.700892 589.474175 
L 1064.726721 584.107614 
L 1065.752551 583.377844 
L 1066.77838 585.034782 
L 1067.80421 583.130962 
L 1068.83004 583.322524 
L 1069.855869 588.544919 
L 1070.881699 586.667718 
L 1071.907528 586.406302 
L 1072.933358 585.391221 
L 1073.959187 584.714241 
L 1074.985017 586.570367 
L 1076.010847 586.922178 
L 1077.036676 585.743018 
L 1078.062506 588.02896 
L 1079.088335 585.33413 
L 1081.139994 585.077437 
L 1082.165824 584.047225 
L 1083.191654 583.852016 
L 1084.217483 585.585764 
L 1085.243313 585.211245 
L 1086.269142 583.85448 
L 1087.294972 585.22277 
L 1088.320802 584.496066 
L 1089.346631 586.196046 
L 1090.372461 585.557689 
L 1091.39829 585.62553 
L 1092.42412 585.487652 
L 1093.449949 587.139762 
L 1094.475779 584.727169 
L 1095.501609 585.226637 
L 1096.527438 586.147573 
L 1097.553268 586.672257 
L 1098.579097 585.983846 
L 1099.604927 587.170863 
L 1100.630757 587.574144 
L 1101.656586 594.134036 
L 1103.708245 588.004125 
L 1105.759904 586.109985 
L 1106.785734 590.274068 
L 1107.811564 587.36913 
L 1108.837393 588.244754 
L 1109.863223 587.172315 
L 1110.889052 592.406798 
L 1111.914882 587.284818 
L 1112.940711 588.249365 
L 1113.966541 586.961477 
L 1114.992371 592.365883 
L 1116.0182 587.639881 
L 1117.04403 587.063682 
L 1118.069859 589.802236 
L 1119.095689 586.630441 
L 1120.121519 586.294078 
L 1121.147348 591.020721 
L 1122.173178 584.374857 
L 1123.199007 587.182317 
L 1124.224837 585.791203 
L 1125.250666 591.66192 
L 1126.276496 587.959819 
L 1127.302326 600.697371 
L 1128.328155 587.204257 
L 1129.353985 587.178888 
L 1130.379814 590.467868 
L 1131.405644 586.616308 
L 1132.431473 586.391299 
L 1133.457303 591.20274 
L 1134.483133 586.396473 
L 1135.508962 587.950164 
L 1136.534792 587.942117 
L 1137.560621 585.999597 
L 1138.586451 586.87541 
L 1139.612281 587.93531 
L 1140.63811 587.526125 
L 1141.66394 588.409293 
L 1142.689769 587.681603 
L 1143.715599 587.511922 
L 1144.741428 587.017953 
L 1145.767258 586.77463 
L 1146.793088 586.994289 
L 1147.818917 587.466425 
L 1148.844747 585.887607 
L 1149.870576 587.006889 
L 1150.896406 588.510712 
L 1151.922235 587.879796 
L 1152.948065 588.512477 
L 1153.973895 587.458154 
L 1154.999724 587.313479 
L 1156.025554 587.046383 
L 1157.051383 601.236851 
L 1158.077213 587.292716 
L 1159.103043 588.624107 
L 1160.128872 588.150378 
L 1161.154702 587.317167 
L 1162.180531 588.732198 
L 1163.206361 588.317359 
L 1165.25802 587.946209 
L 1166.28385 591.364788 
L 1167.309679 587.533307 
L 1168.335509 588.454862 
L 1169.361338 588.892282 
L 1171.412998 588.872674 
L 1172.438827 588.119282 
L 1173.464657 592.584581 
L 1174.490486 589.185592 
L 1175.516316 588.603012 
L 1176.542145 588.949504 
L 1177.567975 591.191106 
L 1178.593805 596.088775 
L 1179.619634 590.65254 
L 1180.645464 588.218023 
L 1181.671293 590.056542 
L 1182.697123 590.842469 
L 1183.722952 590.836918 
L 1184.748782 587.440269 
L 1185.774612 592.422494 
L 1186.800441 590.691507 
L 1187.826271 589.319935 
L 1188.8521 590.652079 
L 1189.87793 588.018161 
L 1190.90376 587.177766 
L 1191.929589 589.409619 
L 1192.955419 588.802142 
L 1193.981248 591.484333 
L 1195.007078 589.960871 
L 1196.032907 587.881742 
L 1197.058737 589.333046 
L 1198.084567 590.401233 
L 1200.136226 589.558642 
L 1201.162055 590.131594 
L 1202.187885 587.514839 
L 1203.213714 590.691365 
L 1204.239544 589.960369 
L 1205.265374 584.797327 
L 1206.291203 587.517898 
L 1207.317033 579.944539 
L 1208.342862 563.598238 
L 1209.368692 575.309798 
L 1210.394522 574.522986 
L 1211.420351 590.571085 
L 1212.446181 591.113937 
L 1213.47201 591.140369 
L 1214.49784 589.177721 
L 1215.523669 589.234367 
L 1216.549499 593.458632 
L 1217.575329 590.635572 
L 1218.601158 592.963749 
L 1219.626988 590.900686 
L 1220.652817 589.472568 
L 1221.678647 590.321952 
L 1222.704477 590.441469 
L 1223.730306 591.500338 
L 1224.756136 589.708277 
L 1225.781965 593.516196 
L 1226.807795 589.63384 
L 1227.833624 589.973163 
L 1228.859454 591.365292 
L 1229.885284 590.658226 
L 1230.911113 592.286252 
L 1231.936943 590.089063 
L 1232.962772 591.164658 
L 1233.988602 591.698276 
L 1235.014431 591.71779 
L 1236.040261 591.033088 
L 1237.066091 573.486749 
L 1238.09192 590.424316 
L 1239.11775 589.705364 
L 1240.143579 591.616401 
L 1241.169409 591.035682 
L 1242.195239 593.70709 
L 1243.221068 591.458231 
L 1244.246898 590.495419 
L 1245.272727 590.66869 
L 1245.272727 590.66869 
" style="fill:none;stroke:#1f77b4;stroke-linecap:square;stroke-width:1.5;"/>
   </g>
   <g id="line2d_17">
    <path clip-path="url(#p5f58f0bbe1)" d="M 230.727273 262.351353 
L 231.753102 111.6 
L 232.778932 224.319791 
L 233.804761 245.928675 
L 234.830591 253.720975 
L 235.856421 241.106717 
L 236.88225 273.822091 
L 237.90808 270.294441 
L 238.933909 274.390957 
L 239.959739 265.648634 
L 240.985569 279.348398 
L 242.011398 305.394343 
L 243.037228 274.924073 
L 244.063057 342.67207 
L 245.088887 282.776674 
L 246.114716 353.459489 
L 247.140546 297.760171 
L 248.166376 232.508261 
L 249.192205 318.846121 
L 251.243864 390.288864 
L 252.269694 368.372373 
L 253.295523 299.992131 
L 254.321353 308.243593 
L 255.347183 371.992556 
L 256.373012 382.161347 
L 257.398842 373.028236 
L 258.424671 386.289502 
L 259.450501 373.678869 
L 260.476331 405.522557 
L 261.50216 361.735376 
L 262.52799 363.022321 
L 263.553819 361.907719 
L 264.579649 383.146359 
L 265.605478 413.104493 
L 266.631308 387.282085 
L 267.657138 387.222517 
L 268.682967 428.522542 
L 269.708797 345.888579 
L 270.734626 363.714771 
L 271.760456 353.576383 
L 272.786286 426.416883 
L 273.812115 374.432568 
L 274.837945 398.253153 
L 275.863774 393.165561 
L 276.889604 449.793953 
L 277.915433 444.261417 
L 278.941263 390.156699 
L 279.967093 390.591866 
L 280.992922 391.792258 
L 282.018752 411.705854 
L 283.044581 395.447975 
L 284.070411 385.215928 
L 285.09624 397.045155 
L 286.12207 395.664182 
L 287.1479 423.684236 
L 288.173729 420.188807 
L 289.199559 420.824934 
L 290.225388 411.673832 
L 291.251218 421.695339 
L 292.277048 404.804847 
L 293.302877 435.284186 
L 294.328707 406.939602 
L 295.354536 427.342683 
L 296.380366 410.498193 
L 297.406195 421.831607 
L 298.432025 427.699403 
L 299.457855 461.259631 
L 300.483684 376.766044 
L 301.509514 492.926764 
L 302.535343 467.702902 
L 303.561173 473.062894 
L 304.587002 469.752217 
L 305.612832 423.483818 
L 306.638662 450.26793 
L 307.664491 455.693107 
L 308.690321 471.64034 
L 309.71615 450.659293 
L 310.74198 479.227732 
L 311.76781 454.36958 
L 312.793639 458.153631 
L 313.819469 456.734977 
L 314.845298 452.701134 
L 315.871128 475.729672 
L 316.896957 458.09934 
L 317.922787 469.15505 
L 318.948617 456.397543 
L 319.974446 468.876567 
L 321.000276 466.587911 
L 322.026105 476.697453 
L 323.051935 465.047939 
L 324.077765 475.355831 
L 325.103594 463.722076 
L 326.129424 474.022019 
L 327.155253 464.588088 
L 328.181083 474.901028 
L 329.206912 472.012767 
L 330.232742 478.341903 
L 331.258572 467.214718 
L 332.284401 467.628163 
L 333.310231 465.44605 
L 334.33606 474.877809 
L 335.36189 468.143178 
L 336.387719 472.926769 
L 337.413549 469.739147 
L 338.439379 479.342082 
L 339.465208 462.788822 
L 340.491038 473.451535 
L 341.516867 473.43968 
L 342.542697 482.895487 
L 343.568527 480.236918 
L 344.594356 497.385327 
L 345.620186 477.725769 
L 346.646015 477.153374 
L 347.671845 474.557003 
L 348.697674 489.671436 
L 349.723504 530.389396 
L 350.749334 533.968894 
L 351.775163 470.211428 
L 352.800993 479.878141 
L 353.826822 494.285424 
L 354.852652 492.789905 
L 355.878481 474.122271 
L 356.904311 487.609655 
L 357.930141 490.419305 
L 358.95597 496.300065 
L 359.9818 485.050467 
L 361.007629 494.650225 
L 362.033459 495.728225 
L 363.059289 489.236751 
L 364.085118 502.866495 
L 365.110948 505.575859 
L 366.136777 525.420216 
L 367.162607 501.088879 
L 368.188436 519.553007 
L 369.214266 504.319124 
L 370.240096 492.315242 
L 371.265925 500.275569 
L 372.291755 496.14898 
L 373.317584 497.177573 
L 375.369243 502.003518 
L 376.395073 504.461497 
L 377.420903 499.632426 
L 378.446732 525.658687 
L 379.472562 506.144594 
L 380.498391 506.161997 
L 381.524221 505.930712 
L 382.550051 501.583693 
L 383.57588 514.076193 
L 384.60171 506.367311 
L 385.627539 507.869201 
L 386.653369 502.133997 
L 387.679198 509.675391 
L 388.705028 510.53218 
L 389.730858 461.7497 
L 390.756687 508.859438 
L 391.782517 518.117888 
L 392.808346 537.604709 
L 393.834176 515.785736 
L 394.860006 513.153156 
L 395.885835 519.134531 
L 396.911665 514.65399 
L 397.937494 525.048961 
L 398.963324 512.080517 
L 399.989153 520.301115 
L 401.014983 527.289165 
L 402.040813 519.95462 
L 403.066642 453.298807 
L 404.092472 516.411028 
L 405.118301 503.290526 
L 406.144131 519.912424 
L 407.16996 520.33782 
L 408.19579 520.060221 
L 409.22162 511.176839 
L 410.247449 519.545761 
L 411.273279 516.21861 
L 412.299108 545.882705 
L 413.324938 477.158269 
L 414.350768 529.065308 
L 415.376597 525.446895 
L 416.402427 527.484067 
L 417.428256 495.275437 
L 418.454086 527.455577 
L 419.479915 510.674265 
L 420.505745 533.34233 
L 421.531575 518.002107 
L 422.557404 532.034202 
L 423.583234 527.651347 
L 424.609063 526.595036 
L 425.634893 528.219505 
L 426.660722 510.632579 
L 427.686552 553.038019 
L 429.738211 519.056541 
L 430.764041 539.322179 
L 431.78987 544.711563 
L 432.8157 539.234796 
L 433.84153 536.407292 
L 434.867359 531.127843 
L 435.893189 487.810784 
L 436.919018 561.142141 
L 437.944848 528.381625 
L 438.970677 540.440068 
L 439.996507 494.805442 
L 441.022337 542.118249 
L 442.048166 531.366213 
L 443.073996 535.014601 
L 444.099825 517.895062 
L 445.125655 537.403375 
L 446.151485 530.790659 
L 447.177314 536.596366 
L 448.203144 534.759645 
L 449.228973 511.167247 
L 450.254803 533.417803 
L 451.280632 540.730003 
L 452.306462 528.821527 
L 453.332292 514.601243 
L 454.358121 531.668275 
L 455.383951 544.284725 
L 456.40978 554.078322 
L 457.43561 515.616209 
L 458.461439 540.386589 
L 459.487269 550.001963 
L 460.513099 535.856779 
L 461.538928 527.861831 
L 462.564758 567.358046 
L 463.590587 543.117262 
L 464.616417 539.735441 
L 465.642247 542.12922 
L 466.668076 544.083245 
L 467.693906 547.619718 
L 468.719735 546.982367 
L 469.745565 548.40735 
L 470.771394 520.351849 
L 471.797224 547.497841 
L 472.823054 553.301546 
L 473.848883 539.591531 
L 474.874713 517.61208 
L 475.900542 543.132557 
L 476.926372 548.025629 
L 477.952201 541.234928 
L 478.978031 527.369661 
L 480.003861 540.196988 
L 481.02969 555.789256 
L 482.05552 541.166705 
L 483.081349 530.06696 
L 484.107179 549.58154 
L 485.133009 551.076964 
L 486.158838 551.486676 
L 487.184668 547.338683 
L 488.210497 565.877711 
L 489.236327 556.230422 
L 490.262156 552.231306 
L 491.287986 549.548487 
L 492.313816 566.620419 
L 493.339645 553.865099 
L 494.365475 548.204803 
L 495.391304 556.507037 
L 496.417134 556.391961 
L 497.442964 552.922792 
L 498.468793 545.878724 
L 499.494623 553.401076 
L 500.520452 553.727162 
L 501.546282 555.722504 
L 502.572111 549.152985 
L 503.597941 553.835174 
L 504.623771 528.030578 
L 505.6496 554.84797 
L 506.67543 554.221399 
L 507.701259 556.378954 
L 508.727089 519.107939 
L 509.752918 556.921566 
L 510.778748 551.774584 
L 511.804578 554.396222 
L 512.830407 527.043734 
L 513.856237 558.004784 
L 514.882066 556.58837 
L 515.907896 557.542393 
L 516.933726 552.197046 
L 517.959555 567.26189 
L 518.985385 553.73075 
L 520.011214 556.403167 
L 521.037044 526.048986 
L 522.062873 557.084452 
L 523.088703 554.171195 
L 524.114533 563.724253 
L 525.140362 554.065672 
L 526.166192 565.443679 
L 527.192021 557.040651 
L 528.217851 561.788357 
L 529.24368 527.976118 
L 530.26951 558.848679 
L 531.29534 559.46678 
L 532.321169 564.932501 
L 533.346999 540.057232 
L 534.372828 563.025375 
L 535.398658 557.730799 
L 536.424488 567.23262 
L 537.450317 536.741713 
L 538.476147 562.533274 
L 539.501976 562.989446 
L 540.527806 566.015579 
L 541.553635 564.797102 
L 542.579465 563.139393 
L 543.605295 559.253386 
L 544.631124 560.917157 
L 545.656954 540.969221 
L 546.682783 573.621674 
L 547.708613 558.920071 
L 548.734443 559.899426 
L 549.760272 565.654836 
L 550.786102 557.263516 
L 551.811931 565.320407 
L 552.837761 563.440532 
L 553.86359 566.621512 
L 554.88942 576.165007 
L 555.91525 569.2082 
L 556.941079 566.409021 
L 557.966909 559.395705 
L 558.992738 577.10354 
L 560.018568 567.274799 
L 561.044397 562.400187 
L 562.070227 554.624756 
L 563.096057 582.16759 
L 564.121886 570.920091 
L 565.147716 561.931752 
L 566.173545 569.531918 
L 567.199375 567.941999 
L 568.225205 570.786576 
L 569.251034 564.604344 
L 570.276864 567.206255 
L 571.302693 574.233488 
L 572.328523 570.039782 
L 573.354352 564.957504 
L 574.380182 570.231857 
L 575.406012 562.660669 
L 576.431841 572.543639 
L 577.457671 562.612697 
L 578.4835 568.822646 
L 579.50933 564.808804 
L 580.535159 572.405669 
L 581.560989 563.695167 
L 582.586819 571.167651 
L 583.612648 569.408636 
L 584.638478 572.012821 
L 585.664307 563.6341 
L 586.690137 574.042126 
L 587.715967 566.59245 
L 588.741796 572.214387 
L 589.767626 565.494887 
L 590.793455 572.656023 
L 591.819285 569.566579 
L 592.845114 575.322147 
L 593.870944 569.759694 
L 594.896774 571.333517 
L 595.922603 571.334954 
L 596.948433 571.785677 
L 597.974262 574.969211 
L 599.000092 571.42354 
L 600.025922 576.400665 
L 601.051751 567.210424 
L 602.077581 575.801441 
L 603.10341 572.423841 
L 604.12924 573.366314 
L 605.155069 569.67074 
L 606.180899 574.084669 
L 607.206729 571.888323 
L 608.232558 574.656941 
L 609.258388 567.236915 
L 610.284217 575.101992 
L 611.310047 571.146032 
L 612.335876 573.497768 
L 613.361706 568.165832 
L 614.387536 573.962856 
L 615.413365 568.098123 
L 616.439195 580.068405 
L 617.465024 571.481506 
L 618.490854 578.562502 
L 619.516684 555.295446 
L 620.542513 572.908136 
L 621.568343 575.015183 
L 622.594172 576.346918 
L 623.620002 573.603183 
L 624.645831 580.322384 
L 625.671661 573.923757 
L 626.697491 559.840118 
L 627.72332 575.999993 
L 628.74915 576.488961 
L 629.774979 570.769861 
L 630.800809 565.755295 
L 631.826638 573.388411 
L 632.852468 577.553446 
L 633.878298 572.35633 
L 634.904127 559.935694 
L 635.929957 575.170309 
L 636.955786 578.889738 
L 637.981616 573.628471 
L 639.007446 581.898863 
L 640.033275 577.890018 
L 641.059105 582.020302 
L 642.084934 559.992095 
L 643.110764 579.15731 
L 644.136593 573.019781 
L 645.162423 579.236317 
L 646.188253 554.50643 
L 647.214082 575.412442 
L 648.239912 579.028241 
L 649.265741 576.870788 
L 650.291571 563.971253 
L 651.3174 581.864617 
L 652.34323 582.896793 
L 653.36906 573.903309 
L 654.394889 593.360733 
L 655.420719 575.989459 
L 656.446548 582.470016 
L 657.472378 560.406874 
L 658.498208 582.375563 
L 659.524037 594.520259 
L 660.549867 584.517371 
L 661.575696 561.116107 
L 662.601526 582.839479 
L 663.627355 576.816279 
L 664.653185 583.751152 
L 665.679015 583.873281 
L 666.704844 583.310292 
L 667.730674 577.45761 
L 668.756503 570.431264 
L 669.782333 578.860833 
L 670.808163 581.476389 
L 671.833992 576.598277 
L 672.859822 565.419677 
L 673.885651 577.56208 
L 674.911481 583.258493 
L 675.93731 578.828618 
L 676.96314 588.245467 
L 677.98897 583.058186 
L 679.014799 584.062996 
L 680.040629 566.199394 
L 681.066458 580.687528 
L 682.092288 579.807118 
L 683.118117 583.813587 
L 684.143947 565.514255 
L 685.169777 584.613741 
L 686.195606 581.37477 
L 687.221436 584.629995 
L 688.247265 570.374297 
L 689.273095 583.206197 
L 690.298925 589.127685 
L 691.324754 581.432559 
L 692.350584 594.109599 
L 693.376413 588.088388 
L 694.402243 580.877867 
L 695.428072 567.2631 
L 696.453902 585.554087 
L 697.479732 587.491542 
L 698.505561 581.204717 
L 699.531391 593.047388 
L 700.55722 583.841342 
L 701.58305 585.833801 
L 702.608879 568.246847 
L 703.634709 586.050254 
L 704.660539 583.772666 
L 705.686368 585.136271 
L 706.712198 569.831251 
L 707.738027 582.723349 
L 708.763857 583.230693 
L 709.789687 577.140941 
L 710.815516 589.083077 
L 711.841346 587.329907 
L 712.867175 582.483325 
L 713.893005 585.659907 
L 714.918834 580.866719 
L 715.944664 586.546795 
L 716.970494 580.387127 
L 717.996323 572.8874 
L 719.022153 581.711087 
L 720.047982 585.466411 
L 721.073812 582.257627 
L 722.099642 573.079642 
L 723.125471 583.112372 
L 724.151301 587.06755 
L 725.17713 574.012749 
L 726.20296 593.042577 
L 727.228789 582.990369 
L 728.254619 586.893122 
L 729.280449 585.98709 
L 730.306278 594.613163 
L 731.332108 585.13911 
L 732.357937 584.914569 
L 733.383767 593.458041 
L 734.409596 586.958353 
L 735.435426 584.378935 
L 736.461256 573.471946 
L 737.487085 584.878731 
L 738.512915 587.778568 
L 739.538744 582.394935 
L 740.564574 594.127059 
L 741.590404 584.314046 
L 742.616233 589.785573 
L 743.642063 570.814179 
L 744.667892 589.473335 
L 745.693722 585.079863 
L 746.719551 588.936206 
L 747.745381 586.746177 
L 748.771211 589.636893 
L 749.79704 585.015935 
L 750.82287 588.466544 
L 751.848699 586.398248 
L 752.874529 589.156319 
L 753.900358 583.949243 
L 754.926188 576.273551 
L 755.952018 584.570979 
L 756.977847 589.982873 
L 758.003677 585.84453 
L 759.029506 592.258245 
L 760.055336 586.85505 
L 761.081166 589.725359 
L 762.106995 582.92644 
L 763.132825 591.940415 
L 764.158654 587.212318 
L 765.184484 590.398886 
L 766.210313 585.807924 
L 767.236143 592.265498 
L 768.261973 587.009669 
L 769.287802 592.500351 
L 770.313632 586.754032 
L 771.339461 591.480423 
L 772.365291 587.818259 
L 773.391121 591.544069 
L 774.41695 588.556585 
L 775.44278 592.311141 
L 776.468609 589.765454 
L 777.494439 590.969334 
L 778.520268 586.469975 
L 779.546098 590.648763 
L 780.571928 579.540937 
L 781.597757 592.203414 
L 782.623587 588.558273 
L 783.649416 591.799795 
L 784.675246 573.127662 
L 785.701075 591.773496 
L 786.726905 587.206913 
L 787.752735 579.078811 
L 788.778564 589.719539 
L 789.804394 592.584902 
L 790.830223 589.953988 
L 791.856053 593.777128 
L 792.881883 588.29366 
L 793.907712 591.893571 
L 794.933542 576.995862 
L 795.959371 594.268117 
L 796.985201 590.040335 
L 798.01103 591.71713 
L 799.03686 600.704709 
L 800.06269 593.781745 
L 801.088519 590.18839 
L 802.114349 582.971673 
L 803.140178 591.554353 
L 804.166008 595.232128 
L 805.191837 581.102508 
L 806.217667 594.138984 
L 807.243497 591.664192 
L 808.269326 594.140323 
L 809.295156 577.727694 
L 810.320985 594.933033 
L 811.346815 591.958113 
L 812.372645 581.277275 
L 813.398474 591.107749 
L 814.424304 595.29741 
L 815.450133 595.919443 
L 816.475963 602.255631 
L 817.501792 591.696132 
L 818.527622 595.212706 
L 819.553452 579.158911 
L 820.579281 594.373807 
L 821.605111 592.315307 
L 822.63094 587.229451 
L 823.65677 590.548831 
L 824.6826 595.408601 
L 825.708429 591.667967 
L 826.734259 595.950217 
L 827.760088 592.005207 
L 828.785918 596.3626 
L 829.811747 577.429469 
L 830.837577 593.86298 
L 831.863407 590.938709 
L 832.889236 591.101316 
L 833.915066 596.120696 
L 834.940895 595.821336 
L 835.966725 591.877383 
L 836.992554 582.202055 
L 838.018384 591.635738 
L 839.044214 594.518889 
L 840.070043 579.235096 
L 841.095873 595.761953 
L 842.121702 592.156865 
L 843.147532 587.393143 
L 845.199191 595.942311 
L 846.225021 592.551918 
L 847.25085 596.260416 
L 848.27668 594.408201 
L 849.302509 598.01467 
L 850.328339 594.426991 
L 851.354169 604.931607 
L 852.379998 594.338644 
L 853.405828 598.173086 
L 854.431657 595.771614 
L 855.457487 598.225185 
L 856.483316 598.997648 
L 857.509146 597.498738 
L 858.534976 597.125425 
L 859.560805 597.884538 
L 860.586635 596.580428 
L 861.612464 597.528355 
L 862.638294 593.872316 
L 863.664124 598.875583 
L 864.689953 594.522381 
L 865.715783 598.201119 
L 866.741612 594.368042 
L 867.767442 597.941355 
L 868.793271 594.315253 
L 869.819101 597.850587 
L 870.844931 594.826268 
L 871.87076 599.371586 
L 872.89659 596.112903 
L 873.922419 602.146756 
L 874.948249 596.293037 
L 875.974078 597.734149 
L 876.999908 595.090643 
L 878.025738 598.324598 
L 879.051567 596.457949 
L 880.077397 599.254332 
L 881.103226 596.355314 
L 882.129056 598.813146 
L 883.154886 597.668221 
L 885.206545 602.335963 
L 886.232374 599.062813 
L 887.258204 595.263478 
L 888.284033 598.849554 
L 889.309863 595.891758 
L 890.335693 599.391629 
L 891.361522 595.743303 
L 892.387352 599.412136 
L 893.413181 596.370289 
L 894.439011 599.561095 
L 895.464841 596.533092 
L 896.49067 600.506738 
L 897.5165 595.062492 
L 898.542329 599.787992 
L 899.568159 596.534144 
L 900.593988 599.961639 
L 901.619818 596.634838 
L 902.645648 599.119659 
L 903.671477 597.439467 
L 904.697307 600.181034 
L 905.723136 596.949008 
L 906.748966 601.573953 
L 907.774795 597.85073 
L 908.800625 600.580658 
L 909.826455 596.935744 
L 910.852284 600.447699 
L 911.878114 597.379725 
L 912.903943 600.527361 
L 913.929773 596.222049 
L 914.955603 600.611967 
L 915.981432 597.835204 
L 917.007262 601.538136 
L 918.033091 597.040352 
L 919.058921 600.691606 
L 920.08475 596.803294 
L 921.11058 600.869838 
L 922.13641 599.199917 
L 923.162239 600.337566 
L 925.213898 600.514574 
L 926.239728 596.623626 
L 927.265557 601.525588 
L 928.291387 599.182021 
L 929.317217 602.384934 
L 930.343046 596.923721 
L 931.368876 601.272337 
L 932.394705 597.705628 
L 933.420535 601.235415 
L 934.446365 599.556114 
L 935.472194 601.166887 
L 936.498024 598.081829 
L 937.523853 605.848015 
L 938.549683 598.019524 
L 939.575512 601.588274 
L 940.601342 597.640255 
L 941.627172 601.75379 
L 942.653001 600.04399 
L 943.678831 602.281526 
L 944.70466 599.23227 
L 945.73049 602.911571 
L 946.75632 603.949398 
L 947.782149 603.028357 
L 948.807979 598.228028 
L 949.833808 601.703002 
L 950.859638 599.057306 
L 951.885467 602.774997 
L 952.911297 599.265586 
L 953.937127 602.485034 
L 954.962956 600.646367 
L 955.988786 603.850333 
L 957.014615 601.255504 
L 958.040445 601.512481 
L 959.066274 599.840998 
L 960.092104 602.949729 
L 961.117934 599.507351 
L 962.143763 602.147419 
L 963.169593 599.775038 
L 964.195422 602.35801 
L 965.221252 599.625066 
L 966.247082 602.472308 
L 967.272911 599.842594 
L 968.298741 602.759823 
L 969.32457 599.588067 
L 970.3504 602.319833 
L 971.376229 598.719448 
L 972.402059 602.60912 
L 973.427889 599.647039 
L 974.453718 602.512868 
L 975.479548 599.805106 
L 976.505377 602.419758 
L 977.531207 599.266249 
L 978.557036 602.93937 
L 979.582866 600.509818 
L 980.608696 603.526101 
L 981.634525 599.360597 
L 982.660355 603.409801 
L 983.686184 599.629036 
L 984.712014 603.617128 
L 985.737844 599.630436 
L 986.763673 603.617508 
L 987.789503 600.577184 
L 988.815332 603.743862 
L 989.841162 600.66127 
L 990.866991 603.770874 
L 991.892821 600.940488 
L 992.918651 606.262774 
L 993.94448 600.38616 
L 994.97031 603.759794 
L 995.996139 600.774966 
L 997.021969 604.100027 
L 998.047799 601.064265 
L 999.073628 604.269696 
L 1000.099458 600.787076 
L 1001.125287 604.524079 
L 1002.151117 600.259124 
L 1003.176946 603.807661 
L 1004.202776 601.079515 
L 1005.228606 603.996525 
L 1006.254435 600.895904 
L 1007.280265 604.973783 
L 1008.306094 601.445866 
L 1009.331924 605.347862 
L 1010.357753 601.901558 
L 1011.383583 604.703716 
L 1012.409413 601.287287 
L 1013.435242 604.759107 
L 1014.461072 601.46963 
L 1015.486901 604.553524 
L 1016.512731 601.286937 
L 1017.538561 604.248909 
L 1018.56439 601.590865 
L 1019.59022 605.144999 
L 1020.616049 601.534023 
L 1021.641879 605.344435 
L 1022.667708 601.25204 
L 1023.693538 605.012172 
L 1024.719368 601.792116 
L 1025.745197 604.454398 
L 1026.771027 601.867544 
L 1027.796856 605.168138 
L 1028.822686 602.585452 
L 1029.848515 604.859151 
L 1030.874345 601.640678 
L 1031.900175 604.770687 
L 1032.926004 601.661004 
L 1033.951834 605.199817 
L 1034.977663 602.341369 
L 1036.003493 605.471441 
L 1037.029323 602.441807 
L 1038.055152 605.408913 
L 1039.080982 602.998274 
L 1040.106811 605.661598 
L 1041.132641 602.25067 
L 1042.15847 605.564217 
L 1043.1843 604.118441 
L 1045.235959 607.603469 
L 1046.261789 605.928561 
L 1047.287618 603.936142 
L 1048.313448 605.820407 
L 1049.339278 602.55454 
L 1050.365107 605.774565 
L 1051.390937 602.599017 
L 1052.416766 606.598657 
L 1053.442596 607.922949 
L 1054.468425 605.554974 
L 1055.494255 602.642303 
L 1056.520085 606.082035 
L 1057.545914 604.477482 
L 1058.571744 606.54184 
L 1059.597573 603.616359 
L 1060.623403 607.527769 
L 1061.649232 604.008368 
L 1062.675062 606.248031 
L 1063.700892 603.248338 
L 1064.726721 610.779334 
L 1065.752551 603.605228 
L 1066.77838 606.791321 
L 1067.80421 603.26448 
L 1068.83004 607.069539 
L 1069.855869 603.62216 
L 1070.881699 606.836641 
L 1071.907528 603.643829 
L 1072.933358 606.615209 
L 1073.959187 602.980861 
L 1074.985017 606.739868 
L 1076.010847 603.853364 
L 1077.036676 606.899821 
L 1078.062506 603.515296 
L 1079.088335 607.409103 
L 1080.114165 604.252794 
L 1081.139994 606.56591 
L 1082.165824 603.819324 
L 1083.191654 607.444263 
L 1084.217483 603.403769 
L 1085.243313 607.943012 
L 1086.269142 606.005122 
L 1087.294972 607.251499 
L 1088.320802 605.134836 
L 1089.346631 608.040666 
L 1090.372461 605.528269 
L 1091.39829 606.792467 
L 1092.42412 604.936055 
L 1093.449949 606.897899 
L 1094.475779 603.713143 
L 1095.501609 606.959205 
L 1096.527438 603.778956 
L 1097.553268 606.50356 
L 1098.579097 606.070378 
L 1099.604927 607.402234 
L 1100.630757 604.049449 
L 1101.656586 608.302551 
L 1102.682416 603.967065 
L 1103.708245 607.9676 
L 1104.734075 607.016788 
L 1105.759904 608.268835 
L 1106.785734 608.079562 
L 1107.811564 609.883073 
L 1108.837393 605.148896 
L 1109.863223 608.136821 
L 1110.889052 607.411423 
L 1111.914882 609.408948 
L 1112.940711 605.709069 
L 1113.966541 607.866774 
L 1114.992371 606.182702 
L 1116.0182 609.118729 
L 1117.04403 604.690333 
L 1118.069859 608.354087 
L 1119.095689 605.208814 
L 1120.121519 611.018016 
L 1121.147348 604.984605 
L 1122.173178 608.221486 
L 1123.199007 605.523384 
L 1124.224837 607.682734 
L 1125.250666 606.12005 
L 1126.276496 607.864589 
L 1127.302326 605.959071 
L 1128.328155 609.176334 
L 1129.353985 605.53881 
L 1130.379814 608.649199 
L 1131.405644 605.451565 
L 1132.431473 611.359875 
L 1133.457303 605.494492 
L 1134.483133 608.132575 
L 1135.508962 605.326795 
L 1136.534792 608.321575 
L 1137.560621 605.04661 
L 1138.586451 608.404524 
L 1139.612281 604.715037 
L 1140.63811 610.011126 
L 1141.66394 605.853073 
L 1142.689769 608.989043 
L 1143.715599 605.598067 
L 1144.741428 609.008225 
L 1145.767258 606.351705 
L 1146.793088 608.563448 
L 1147.818917 606.182242 
L 1148.844747 608.809761 
L 1149.870576 608.458872 
L 1150.896406 608.730583 
L 1151.922235 605.431688 
L 1152.948065 611.271785 
L 1153.973895 610.059699 
L 1154.999724 609.635349 
L 1156.025554 606.311605 
L 1157.051383 608.727696 
L 1158.077213 605.925635 
L 1159.103043 609.103688 
L 1160.128872 606.08557 
L 1161.154702 609.441257 
L 1162.180531 605.791274 
L 1163.206361 609.589736 
L 1164.23219 606.797505 
L 1165.25802 610.193086 
L 1166.28385 608.278195 
L 1167.309679 610.260348 
L 1168.335509 607.649772 
L 1169.361338 610.331836 
L 1170.387168 606.922798 
L 1171.412998 610.288481 
L 1172.438827 607.614755 
L 1173.464657 611.044506 
L 1174.490486 607.899116 
L 1175.516316 609.8676 
L 1176.542145 606.318139 
L 1177.567975 609.339131 
L 1178.593805 606.146024 
L 1179.619634 609.746798 
L 1180.645464 606.787546 
L 1181.671293 609.757589 
L 1182.697123 607.793628 
L 1183.722952 610.37934 
L 1184.748782 607.030833 
L 1185.774612 615.6 
L 1186.800441 606.601754 
L 1187.826271 610.767751 
L 1188.8521 608.084622 
L 1189.87793 610.20965 
L 1190.90376 607.040741 
L 1191.929589 609.607668 
L 1192.955419 607.164003 
L 1193.981248 612.227427 
L 1195.007078 607.233563 
L 1196.032907 610.751858 
L 1197.058737 607.642822 
L 1198.084567 610.832064 
L 1199.110396 607.542699 
L 1200.136226 611.144176 
L 1201.162055 608.417416 
L 1202.187885 610.463594 
L 1203.213714 608.458137 
L 1204.239544 610.020755 
L 1205.265374 607.720657 
L 1206.291203 610.520306 
L 1207.317033 607.671997 
L 1208.342862 611.105471 
L 1209.368692 607.756439 
L 1210.394522 610.261896 
L 1211.420351 607.589383 
L 1212.446181 610.979024 
L 1213.47201 608.485581 
L 1214.49784 611.215855 
L 1215.523669 607.515728 
L 1216.549499 612.030779 
L 1217.575329 609.799285 
L 1218.601158 613.341878 
L 1219.626988 609.679727 
L 1220.652817 612.011884 
L 1221.678647 609.057678 
L 1222.704477 611.448283 
L 1223.730306 607.65535 
L 1224.756136 605.31365 
L 1226.807795 611.395634 
L 1227.833624 610.071197 
L 1228.859454 611.391129 
L 1229.885284 608.010974 
L 1230.911113 610.375809 
L 1231.936943 608.586405 
L 1232.962772 610.895153 
L 1233.988602 609.157773 
L 1235.014431 611.044699 
L 1236.040261 608.306199 
L 1237.066091 611.49313 
L 1238.09192 608.139375 
L 1239.11775 610.781192 
L 1240.143579 610.823544 
L 1241.169409 611.491354 
L 1242.195239 610.067037 
L 1243.221068 611.198525 
L 1244.246898 608.51076 
L 1245.272727 612.333578 
L 1245.272727 612.333578 
" style="fill:none;stroke:#ff7f0e;stroke-linecap:square;stroke-width:1.5;"/>
   </g>
   <g id="patch_3">
    <path d="M 180 640.8 
L 180 86.4 
" style="fill:none;stroke:#000000;stroke-linecap:square;stroke-linejoin:miter;stroke-width:0.8;"/>
   </g>
   <g id="patch_4">
    <path d="M 1296 640.8 
L 1296 86.4 
" style="fill:none;stroke:#000000;stroke-linecap:square;stroke-linejoin:miter;stroke-width:0.8;"/>
   </g>
   <g id="patch_5">
    <path d="M 180 640.8 
L 1296 640.8 
" style="fill:none;stroke:#000000;stroke-linecap:square;stroke-linejoin:miter;stroke-width:0.8;"/>
   </g>
   <g id="patch_6">
    <path d="M 180 86.4 
L 1296 86.4 
" style="fill:none;stroke:#000000;stroke-linecap:square;stroke-linejoin:miter;stroke-width:0.8;"/>
   </g>
   <g id="text_18">
    <!-- Chaikin Money Flow (CMF) Speedup -->
    <defs>
     <path d="M 64.40625 67.28125 
L 64.40625 56.890625 
Q 59.421875 61.53125 53.78125 63.8125 
Q 48.140625 66.109375 41.796875 66.109375 
Q 29.296875 66.109375 22.65625 58.46875 
Q 16.015625 50.828125 16.015625 36.375 
Q 16.015625 21.96875 22.65625 14.328125 
Q 29.296875 6.6875 41.796875 6.6875 
Q 48.140625 6.6875 53.78125 8.984375 
Q 59.421875 11.28125 64.40625 15.921875 
L 64.40625 5.609375 
Q 59.234375 2.09375 53.4375 0.328125 
Q 47.65625 -1.421875 41.21875 -1.421875 
Q 24.65625 -1.421875 15.125 8.703125 
Q 5.609375 18.84375 5.609375 36.375 
Q 5.609375 53.953125 15.125 64.078125 
Q 24.65625 74.21875 41.21875 74.21875 
Q 47.75 74.21875 53.53125 72.484375 
Q 59.328125 70.75 64.40625 67.28125 
z
" id="DejaVuSans-67"/>
     <path d="M 54.890625 33.015625 
L 54.890625 0 
L 45.90625 0 
L 45.90625 32.71875 
Q 45.90625 40.484375 42.875 44.328125 
Q 39.84375 48.1875 33.796875 48.1875 
Q 26.515625 48.1875 22.3125 43.546875 
Q 18.109375 38.921875 18.109375 30.90625 
L 18.109375 0 
L 9.078125 0 
L 9.078125 75.984375 
L 18.109375 75.984375 
L 18.109375 46.1875 
Q 21.34375 51.125 25.703125 53.5625 
Q 30.078125 56 35.796875 56 
Q 45.21875 56 50.046875 50.171875 
Q 54.890625 44.34375 54.890625 33.015625 
z
" id="DejaVuSans-104"/>
     <path d="M 34.28125 27.484375 
Q 23.390625 27.484375 19.1875 25 
Q 14.984375 22.515625 14.984375 16.5 
Q 14.984375 11.71875 18.140625 8.90625 
Q 21.296875 6.109375 26.703125 6.109375 
Q 34.1875 6.109375 38.703125 11.40625 
Q 43.21875 16.703125 43.21875 25.484375 
L 43.21875 27.484375 
z
M 52.203125 31.203125 
L 52.203125 0 
L 43.21875 0 
L 43.21875 8.296875 
Q 40.140625 3.328125 35.546875 0.953125 
Q 30.953125 -1.421875 24.3125 -1.421875 
Q 15.921875 -1.421875 10.953125 3.296875 
Q 6 8.015625 6 15.921875 
Q 6 25.140625 12.171875 29.828125 
Q 18.359375 34.515625 30.609375 34.515625 
L 43.21875 34.515625 
L 43.21875 35.40625 
Q 43.21875 41.609375 39.140625 45 
Q 35.0625 48.390625 27.6875 48.390625 
Q 23 48.390625 18.546875 47.265625 
Q 14.109375 46.140625 10.015625 43.890625 
L 10.015625 52.203125 
Q 14.9375 54.109375 19.578125 55.046875 
Q 24.21875 56 28.609375 56 
Q 40.484375 56 46.34375 49.84375 
Q 52.203125 43.703125 52.203125 31.203125 
z
" id="DejaVuSans-97"/>
     <path d="M 9.421875 54.6875 
L 18.40625 54.6875 
L 18.40625 0 
L 9.421875 0 
z
M 9.421875 75.984375 
L 18.40625 75.984375 
L 18.40625 64.59375 
L 9.421875 64.59375 
z
" id="DejaVuSans-105"/>
     <path d="M 9.078125 75.984375 
L 18.109375 75.984375 
L 18.109375 31.109375 
L 44.921875 54.6875 
L 56.390625 54.6875 
L 27.390625 29.109375 
L 57.625 0 
L 45.90625 0 
L 18.109375 26.703125 
L 18.109375 0 
L 9.078125 0 
z
" id="DejaVuSans-107"/>
     <path id="DejaVuSans-32"/>
     <path d="M 9.8125 72.90625 
L 24.515625 72.90625 
L 43.109375 23.296875 
L 61.8125 72.90625 
L 76.515625 72.90625 
L 76.515625 0 
L 66.890625 0 
L 66.890625 64.015625 
L 48.09375 14.015625 
L 38.1875 14.015625 
L 19.390625 64.015625 
L 19.390625 0 
L 9.8125 0 
z
" id="DejaVuSans-77"/>
     <path d="M 30.609375 48.390625 
Q 23.390625 48.390625 19.1875 42.75 
Q 14.984375 37.109375 14.984375 27.296875 
Q 14.984375 17.484375 19.15625 11.84375 
Q 23.34375 6.203125 30.609375 6.203125 
Q 37.796875 6.203125 41.984375 11.859375 
Q 46.1875 17.53125 46.1875 27.296875 
Q 46.1875 37.015625 41.984375 42.703125 
Q 37.796875 48.390625 30.609375 48.390625 
z
M 30.609375 56 
Q 42.328125 56 49.015625 48.375 
Q 55.71875 40.765625 55.71875 27.296875 
Q 55.71875 13.875 49.015625 6.21875 
Q 42.328125 -1.421875 30.609375 -1.421875 
Q 18.84375 -1.421875 12.171875 6.21875 
Q 5.515625 13.875 5.515625 27.296875 
Q 5.515625 40.765625 12.171875 48.375 
Q 18.84375 56 30.609375 56 
z
" id="DejaVuSans-111"/>
     <path d="M 32.171875 -5.078125 
Q 28.375 -14.84375 24.75 -17.8125 
Q 21.140625 -20.796875 15.09375 -20.796875 
L 7.90625 -20.796875 
L 7.90625 -13.28125 
L 13.1875 -13.28125 
Q 16.890625 -13.28125 18.9375 -11.515625 
Q 21 -9.765625 23.484375 -3.21875 
L 25.09375 0.875 
L 2.984375 54.6875 
L 12.5 54.6875 
L 29.59375 11.921875 
L 46.6875 54.6875 
L 56.203125 54.6875 
z
" id="DejaVuSans-121"/>
     <path d="M 9.8125 72.90625 
L 51.703125 72.90625 
L 51.703125 64.59375 
L 19.671875 64.59375 
L 19.671875 43.109375 
L 48.578125 43.109375 
L 48.578125 34.8125 
L 19.671875 34.8125 
L 19.671875 0 
L 9.8125 0 
z
" id="DejaVuSans-70"/>
     <path d="M 9.421875 75.984375 
L 18.40625 75.984375 
L 18.40625 0 
L 9.421875 0 
z
" id="DejaVuSans-108"/>
     <path d="M 4.203125 54.6875 
L 13.1875 54.6875 
L 24.421875 12.015625 
L 35.59375 54.6875 
L 46.1875 54.6875 
L 57.421875 12.015625 
L 68.609375 54.6875 
L 77.59375 54.6875 
L 63.28125 0 
L 52.6875 0 
L 40.921875 44.828125 
L 29.109375 0 
L 18.5 0 
z
" id="DejaVuSans-119"/>
     <path d="M 31 75.875 
Q 24.46875 64.65625 21.28125 53.65625 
Q 18.109375 42.671875 18.109375 31.390625 
Q 18.109375 20.125 21.3125 9.0625 
Q 24.515625 -2 31 -13.1875 
L 23.1875 -13.1875 
Q 15.875 -1.703125 12.234375 9.375 
Q 8.59375 20.453125 8.59375 31.390625 
Q 8.59375 42.28125 12.203125 53.3125 
Q 15.828125 64.359375 23.1875 75.875 
z
" id="DejaVuSans-40"/>
     <path d="M 8.015625 75.875 
L 15.828125 75.875 
Q 23.140625 64.359375 26.78125 53.3125 
Q 30.421875 42.28125 30.421875 31.390625 
Q 30.421875 20.453125 26.78125 9.375 
Q 23.140625 -1.703125 15.828125 -13.1875 
L 8.015625 -13.1875 
Q 14.5 -2 17.703125 9.0625 
Q 20.90625 20.125 20.90625 31.390625 
Q 20.90625 42.671875 17.703125 53.65625 
Q 14.5 64.65625 8.015625 75.875 
z
" id="DejaVuSans-41"/>
     <path d="M 53.515625 70.515625 
L 53.515625 60.890625 
Q 47.90625 63.578125 42.921875 64.890625 
Q 37.9375 66.21875 33.296875 66.21875 
Q 25.25 66.21875 20.875 63.09375 
Q 16.5 59.96875 16.5 54.203125 
Q 16.5 49.359375 19.40625 46.890625 
Q 22.3125 44.4375 30.421875 42.921875 
L 36.375 41.703125 
Q 47.40625 39.59375 52.65625 34.296875 
Q 57.90625 29 57.90625 20.125 
Q 57.90625 9.515625 50.796875 4.046875 
Q 43.703125 -1.421875 29.984375 -1.421875 
Q 24.8125 -1.421875 18.96875 -0.25 
Q 13.140625 0.921875 6.890625 3.21875 
L 6.890625 13.375 
Q 12.890625 10.015625 18.65625 8.296875 
Q 24.421875 6.59375 29.984375 6.59375 
Q 38.421875 6.59375 43.015625 9.90625 
Q 47.609375 13.234375 47.609375 19.390625 
Q 47.609375 24.75 44.3125 27.78125 
Q 41.015625 30.8125 33.5 32.328125 
L 27.484375 33.5 
Q 16.453125 35.6875 11.515625 40.375 
Q 6.59375 45.0625 6.59375 53.421875 
Q 6.59375 63.09375 13.40625 68.65625 
Q 20.21875 74.21875 32.171875 74.21875 
Q 37.3125 74.21875 42.625 73.28125 
Q 47.953125 72.359375 53.515625 70.515625 
z
" id="DejaVuSans-83"/>
    </defs>
    <g transform="translate(630.58125 80.4)scale(0.12 -0.12)">
     <use xlink:href="#DejaVuSans-67"/>
     <use x="69.824219" xlink:href="#DejaVuSans-104"/>
     <use x="133.203125" xlink:href="#DejaVuSans-97"/>
     <use x="194.482422" xlink:href="#DejaVuSans-105"/>
     <use x="222.265625" xlink:href="#DejaVuSans-107"/>
     <use x="280.175781" xlink:href="#DejaVuSans-105"/>
     <use x="307.958984" xlink:href="#DejaVuSans-110"/>
     <use x="371.337891" xlink:href="#DejaVuSans-32"/>
     <use x="403.125" xlink:href="#DejaVuSans-77"/>
     <use x="489.404297" xlink:href="#DejaVuSans-111"/>
     <use x="550.585938" xlink:href="#DejaVuSans-110"/>
     <use x="613.964844" xlink:href="#DejaVuSans-101"/>
     <use x="675.488281" xlink:href="#DejaVuSans-121"/>
     <use x="734.667969" xlink:href="#DejaVuSans-32"/>
     <use x="766.455078" xlink:href="#DejaVuSans-70"/>
     <use x="823.974609" xlink:href="#DejaVuSans-108"/>
     <use x="851.757812" xlink:href="#DejaVuSans-111"/>
     <use x="912.939453" xlink:href="#DejaVuSans-119"/>
     <use x="994.726562" xlink:href="#DejaVuSans-32"/>
     <use x="1026.513672" xlink:href="#DejaVuSans-40"/>
     <use x="1065.527344" xlink:href="#DejaVuSans-67"/>
     <use x="1135.351562" xlink:href="#DejaVuSans-77"/>
     <use x="1221.630859" xlink:href="#DejaVuSans-70"/>
     <use x="1279.150391" xlink:href="#DejaVuSans-41"/>
     <use x="1318.164062" xlink:href="#DejaVuSans-32"/>
     <use x="1349.951172" xlink:href="#DejaVuSans-83"/>
     <use x="1413.427734" xlink:href="#DejaVuSans-112"/>
     <use x="1476.904297" xlink:href="#DejaVuSans-101"/>
     <use x="1538.427734" xlink:href="#DejaVuSans-101"/>
     <use x="1599.951172" xlink:href="#DejaVuSans-100"/>
     <use x="1663.427734" xlink:href="#DejaVuSans-117"/>
     <use x="1726.806641" xlink:href="#DejaVuSans-112"/>
    </g>
   </g>
   <g id="legend_1">
    <g id="patch_7">
     <path d="M 1185.373437 123.75625 
L 1289 123.75625 
Q 1291 123.75625 1291 121.75625 
L 1291 93.4 
Q 1291 91.4 1289 91.4 
L 1185.373437 91.4 
Q 1183.373437 91.4 1183.373437 93.4 
L 1183.373437 121.75625 
Q 1183.373437 123.75625 1185.373437 123.75625 
z
" style="fill:#ffffff;opacity:0.8;stroke:#cccccc;stroke-linejoin:miter;"/>
    </g>
    <g id="line2d_18">
     <path d="M 1187.373437 99.498437 
L 1207.373437 99.498437 
" style="fill:none;stroke:#1f77b4;stroke-linecap:square;stroke-width:1.5;"/>
    </g>
    <g id="line2d_19"/>
    <g id="text_19">
     <!-- numpy.float32 -->
     <defs>
      <path d="M 52 44.1875 
Q 55.375 50.25 60.0625 53.125 
Q 64.75 56 71.09375 56 
Q 79.640625 56 84.28125 50.015625 
Q 88.921875 44.046875 88.921875 33.015625 
L 88.921875 0 
L 79.890625 0 
L 79.890625 32.71875 
Q 79.890625 40.578125 77.09375 44.375 
Q 74.3125 48.1875 68.609375 48.1875 
Q 61.625 48.1875 57.5625 43.546875 
Q 53.515625 38.921875 53.515625 30.90625 
L 53.515625 0 
L 44.484375 0 
L 44.484375 32.71875 
Q 44.484375 40.625 41.703125 44.40625 
Q 38.921875 48.1875 33.109375 48.1875 
Q 26.21875 48.1875 22.15625 43.53125 
Q 18.109375 38.875 18.109375 30.90625 
L 18.109375 0 
L 9.078125 0 
L 9.078125 54.6875 
L 18.109375 54.6875 
L 18.109375 46.1875 
Q 21.1875 51.21875 25.484375 53.609375 
Q 29.78125 56 35.6875 56 
Q 41.65625 56 45.828125 52.96875 
Q 50 49.953125 52 44.1875 
z
" id="DejaVuSans-109"/>
      <path d="M 37.109375 75.984375 
L 37.109375 68.5 
L 28.515625 68.5 
Q 23.6875 68.5 21.796875 66.546875 
Q 19.921875 64.59375 19.921875 59.515625 
L 19.921875 54.6875 
L 34.71875 54.6875 
L 34.71875 47.703125 
L 19.921875 47.703125 
L 19.921875 0 
L 10.890625 0 
L 10.890625 47.703125 
L 2.296875 47.703125 
L 2.296875 54.6875 
L 10.890625 54.6875 
L 10.890625 58.5 
Q 10.890625 67.625 15.140625 71.796875 
Q 19.390625 75.984375 28.609375 75.984375 
z
" id="DejaVuSans-102"/>
      <path d="M 18.3125 70.21875 
L 18.3125 54.6875 
L 36.8125 54.6875 
L 36.8125 47.703125 
L 18.3125 47.703125 
L 18.3125 18.015625 
Q 18.3125 11.328125 20.140625 9.421875 
Q 21.96875 7.515625 27.59375 7.515625 
L 36.8125 7.515625 
L 36.8125 0 
L 27.59375 0 
Q 17.1875 0 13.234375 3.875 
Q 9.28125 7.765625 9.28125 18.015625 
L 9.28125 47.703125 
L 2.6875 47.703125 
L 2.6875 54.6875 
L 9.28125 54.6875 
L 9.28125 70.21875 
z
" id="DejaVuSans-116"/>
     </defs>
     <g transform="translate(1215.373437 102.998437)scale(0.1 -0.1)">
      <use xlink:href="#DejaVuSans-110"/>
      <use x="63.378906" xlink:href="#DejaVuSans-117"/>
      <use x="126.757812" xlink:href="#DejaVuSans-109"/>
      <use x="224.169922" xlink:href="#DejaVuSans-112"/>
      <use x="287.646484" xlink:href="#DejaVuSans-121"/>
      <use x="332.576172" xlink:href="#DejaVuSans-46"/>
      <use x="364.363281" xlink:href="#DejaVuSans-102"/>
      <use x="399.568359" xlink:href="#DejaVuSans-108"/>
      <use x="427.351562" xlink:href="#DejaVuSans-111"/>
      <use x="488.533203" xlink:href="#DejaVuSans-97"/>
      <use x="549.8125" xlink:href="#DejaVuSans-116"/>
      <use x="589.021484" xlink:href="#DejaVuSans-51"/>
      <use x="652.644531" xlink:href="#DejaVuSans-50"/>
     </g>
    </g>
    <g id="line2d_20">
     <path d="M 1187.373437 114.176562 
L 1207.373437 114.176562 
" style="fill:none;stroke:#ff7f0e;stroke-linecap:square;stroke-width:1.5;"/>
    </g>
    <g id="line2d_21"/>
    <g id="text_20">
     <!-- numpy.float64 -->
     <g transform="translate(1215.373437 117.676562)scale(0.1 -0.1)">
      <use xlink:href="#DejaVuSans-110"/>
      <use x="63.378906" xlink:href="#DejaVuSans-117"/>
      <use x="126.757812" xlink:href="#DejaVuSans-109"/>
      <use x="224.169922" xlink:href="#DejaVuSans-112"/>
      <use x="287.646484" xlink:href="#DejaVuSans-121"/>
      <use x="332.576172" xlink:href="#DejaVuSans-46"/>
      <use x="364.363281" xlink:href="#DejaVuSans-102"/>
      <use x="399.568359" xlink:href="#DejaVuSans-108"/>
      <use x="427.351562" xlink:href="#DejaVuSans-111"/>
      <use x="488.533203" xlink:href="#DejaVuSans-97"/>
      <use x="549.8125" xlink:href="#DejaVuSans-116"/>
      <use x="589.021484" xlink:href="#DejaVuSans-54"/>
      <use x="652.644531" xlink:href="#DejaVuSans-52"/>
     </g>
    </g>
   </g>
  </g>
 </g>
 <defs>
  <clipPath id="p5f58f0bbe1">
   <rect height="554.4" width="1116" x="180" y="86.4"/>
  </clipPath>
 </defs>
</svg>
