<?xml version="1.0" encoding="utf-8" standalone="no"?>
<!DOCTYPE svg PUBLIC "-//W3C//DTD SVG 1.1//EN"
  "http://www.w3.org/Graphics/SVG/1.1/DTD/svg11.dtd">
<!-- Created with matplotlib (https://matplotlib.org/) -->
<svg height="720pt" version="1.1" viewBox="0 0 1440 720" width="1440pt" xmlns="http://www.w3.org/2000/svg" xmlns:xlink="http://www.w3.org/1999/xlink">
 <defs>
  <style type="text/css">
*{stroke-linecap:butt;stroke-linejoin:round;}
  </style>
 </defs>
 <g id="figure_1">
  <g id="patch_1">
   <path d="M 0 720 
L 1440 720 
L 1440 0 
L 0 0 
z
" style="fill:#ffffff;"/>
  </g>
  <g id="axes_1">
   <g id="patch_2">
    <path d="M 180 640.8 
L 1296 640.8 
L 1296 86.4 
L 180 86.4 
z
" style="fill:#ffffff;"/>
   </g>
   <g id="matplotlib.axis_1">
    <g id="xtick_1">
     <g id="line2d_1">
      <defs>
       <path d="M 0 0 
L 0 3.5 
" id="md2909278a4" style="stroke:#000000;stroke-width:0.8;"/>
      </defs>
      <g>
       <use style="stroke:#000000;stroke-width:0.8;" x="333.310231" xlink:href="#md2909278a4" y="640.8"/>
      </g>
     </g>
     <g id="text_1">
      <!-- 100.0 -->
      <defs>
       <path d="M 12.40625 8.296875 
L 28.515625 8.296875 
L 28.515625 63.921875 
L 10.984375 60.40625 
L 10.984375 69.390625 
L 28.421875 72.90625 
L 38.28125 72.90625 
L 38.28125 8.296875 
L 54.390625 8.296875 
L 54.390625 0 
L 12.40625 0 
z
" id="DejaVuSans-49"/>
       <path d="M 31.78125 66.40625 
Q 24.171875 66.40625 20.328125 58.90625 
Q 16.5 51.421875 16.5 36.375 
Q 16.5 21.390625 20.328125 13.890625 
Q 24.171875 6.390625 31.78125 6.390625 
Q 39.453125 6.390625 43.28125 13.890625 
Q 47.125 21.390625 47.125 36.375 
Q 47.125 51.421875 43.28125 58.90625 
Q 39.453125 66.40625 31.78125 66.40625 
z
M 31.78125 74.21875 
Q 44.046875 74.21875 50.515625 64.515625 
Q 56.984375 54.828125 56.984375 36.375 
Q 56.984375 17.96875 50.515625 8.265625 
Q 44.046875 -1.421875 31.78125 -1.421875 
Q 19.53125 -1.421875 13.0625 8.265625 
Q 6.59375 17.96875 6.59375 36.375 
Q 6.59375 54.828125 13.0625 64.515625 
Q 19.53125 74.21875 31.78125 74.21875 
z
" id="DejaVuSans-48"/>
       <path d="M 10.6875 12.40625 
L 21 12.40625 
L 21 0 
L 10.6875 0 
z
" id="DejaVuSans-46"/>
      </defs>
      <g transform="translate(318.996168 655.398438)scale(0.1 -0.1)">
       <use xlink:href="#DejaVuSans-49"/>
       <use x="63.623047" xlink:href="#DejaVuSans-48"/>
       <use x="127.246094" xlink:href="#DejaVuSans-48"/>
       <use x="190.869141" xlink:href="#DejaVuSans-46"/>
       <use x="222.65625" xlink:href="#DejaVuSans-48"/>
      </g>
     </g>
    </g>
    <g id="xtick_2">
     <g id="line2d_2">
      <g>
       <use style="stroke:#000000;stroke-width:0.8;" x="435.893189" xlink:href="#md2909278a4" y="640.8"/>
      </g>
     </g>
     <g id="text_2">
      <!-- 200.0 -->
      <defs>
       <path d="M 19.1875 8.296875 
L 53.609375 8.296875 
L 53.609375 0 
L 7.328125 0 
L 7.328125 8.296875 
Q 12.9375 14.109375 22.625 23.890625 
Q 32.328125 33.6875 34.8125 36.53125 
Q 39.546875 41.84375 41.421875 45.53125 
Q 43.3125 49.21875 43.3125 52.78125 
Q 43.3125 58.59375 39.234375 62.25 
Q 35.15625 65.921875 28.609375 65.921875 
Q 23.96875 65.921875 18.8125 64.3125 
Q 13.671875 62.703125 7.8125 59.421875 
L 7.8125 69.390625 
Q 13.765625 71.78125 18.9375 73 
Q 24.125 74.21875 28.421875 74.21875 
Q 39.75 74.21875 46.484375 68.546875 
Q 53.21875 62.890625 53.21875 53.421875 
Q 53.21875 48.921875 51.53125 44.890625 
Q 49.859375 40.875 45.40625 35.40625 
Q 44.1875 33.984375 37.640625 27.21875 
Q 31.109375 20.453125 19.1875 8.296875 
z
" id="DejaVuSans-50"/>
      </defs>
      <g transform="translate(421.579126 655.398438)scale(0.1 -0.1)">
       <use xlink:href="#DejaVuSans-50"/>
       <use x="63.623047" xlink:href="#DejaVuSans-48"/>
       <use x="127.246094" xlink:href="#DejaVuSans-48"/>
       <use x="190.869141" xlink:href="#DejaVuSans-46"/>
       <use x="222.65625" xlink:href="#DejaVuSans-48"/>
      </g>
     </g>
    </g>
    <g id="xtick_3">
     <g id="line2d_3">
      <g>
       <use style="stroke:#000000;stroke-width:0.8;" x="538.476147" xlink:href="#md2909278a4" y="640.8"/>
      </g>
     </g>
     <g id="text_3">
      <!-- 300.0 -->
      <defs>
       <path d="M 40.578125 39.3125 
Q 47.65625 37.796875 51.625 33 
Q 55.609375 28.21875 55.609375 21.1875 
Q 55.609375 10.40625 48.1875 4.484375 
Q 40.765625 -1.421875 27.09375 -1.421875 
Q 22.515625 -1.421875 17.65625 -0.515625 
Q 12.796875 0.390625 7.625 2.203125 
L 7.625 11.71875 
Q 11.71875 9.328125 16.59375 8.109375 
Q 21.484375 6.890625 26.8125 6.890625 
Q 36.078125 6.890625 40.9375 10.546875 
Q 45.796875 14.203125 45.796875 21.1875 
Q 45.796875 27.640625 41.28125 31.265625 
Q 36.765625 34.90625 28.71875 34.90625 
L 20.21875 34.90625 
L 20.21875 43.015625 
L 29.109375 43.015625 
Q 36.375 43.015625 40.234375 45.921875 
Q 44.09375 48.828125 44.09375 54.296875 
Q 44.09375 59.90625 40.109375 62.90625 
Q 36.140625 65.921875 28.71875 65.921875 
Q 24.65625 65.921875 20.015625 65.03125 
Q 15.375 64.15625 9.8125 62.3125 
L 9.8125 71.09375 
Q 15.4375 72.65625 20.34375 73.4375 
Q 25.25 74.21875 29.59375 74.21875 
Q 40.828125 74.21875 47.359375 69.109375 
Q 53.90625 64.015625 53.90625 55.328125 
Q 53.90625 49.265625 50.4375 45.09375 
Q 46.96875 40.921875 40.578125 39.3125 
z
" id="DejaVuSans-51"/>
      </defs>
      <g transform="translate(524.162084 655.398438)scale(0.1 -0.1)">
       <use xlink:href="#DejaVuSans-51"/>
       <use x="63.623047" xlink:href="#DejaVuSans-48"/>
       <use x="127.246094" xlink:href="#DejaVuSans-48"/>
       <use x="190.869141" xlink:href="#DejaVuSans-46"/>
       <use x="222.65625" xlink:href="#DejaVuSans-48"/>
      </g>
     </g>
    </g>
    <g id="xtick_4">
     <g id="line2d_4">
      <g>
       <use style="stroke:#000000;stroke-width:0.8;" x="641.059105" xlink:href="#md2909278a4" y="640.8"/>
      </g>
     </g>
     <g id="text_4">
      <!-- 400.0 -->
      <defs>
       <path d="M 37.796875 64.3125 
L 12.890625 25.390625 
L 37.796875 25.390625 
z
M 35.203125 72.90625 
L 47.609375 72.90625 
L 47.609375 25.390625 
L 58.015625 25.390625 
L 58.015625 17.1875 
L 47.609375 17.1875 
L 47.609375 0 
L 37.796875 0 
L 37.796875 17.1875 
L 4.890625 17.1875 
L 4.890625 26.703125 
z
" id="DejaVuSans-52"/>
      </defs>
      <g transform="translate(626.745042 655.398438)scale(0.1 -0.1)">
       <use xlink:href="#DejaVuSans-52"/>
       <use x="63.623047" xlink:href="#DejaVuSans-48"/>
       <use x="127.246094" xlink:href="#DejaVuSans-48"/>
       <use x="190.869141" xlink:href="#DejaVuSans-46"/>
       <use x="222.65625" xlink:href="#DejaVuSans-48"/>
      </g>
     </g>
    </g>
    <g id="xtick_5">
     <g id="line2d_5">
      <g>
       <use style="stroke:#000000;stroke-width:0.8;" x="743.642063" xlink:href="#md2909278a4" y="640.8"/>
      </g>
     </g>
     <g id="text_5">
      <!-- 500.0 -->
      <defs>
       <path d="M 10.796875 72.90625 
L 49.515625 72.90625 
L 49.515625 64.59375 
L 19.828125 64.59375 
L 19.828125 46.734375 
Q 21.96875 47.46875 24.109375 47.828125 
Q 26.265625 48.1875 28.421875 48.1875 
Q 40.625 48.1875 47.75 41.5 
Q 54.890625 34.8125 54.890625 23.390625 
Q 54.890625 11.625 47.5625 5.09375 
Q 40.234375 -1.421875 26.90625 -1.421875 
Q 22.3125 -1.421875 17.546875 -0.640625 
Q 12.796875 0.140625 7.71875 1.703125 
L 7.71875 11.625 
Q 12.109375 9.234375 16.796875 8.0625 
Q 21.484375 6.890625 26.703125 6.890625 
Q 35.15625 6.890625 40.078125 11.328125 
Q 45.015625 15.765625 45.015625 23.390625 
Q 45.015625 31 40.078125 35.4375 
Q 35.15625 39.890625 26.703125 39.890625 
Q 22.75 39.890625 18.8125 39.015625 
Q 14.890625 38.140625 10.796875 36.28125 
z
" id="DejaVuSans-53"/>
      </defs>
      <g transform="translate(729.328 655.398438)scale(0.1 -0.1)">
       <use xlink:href="#DejaVuSans-53"/>
       <use x="63.623047" xlink:href="#DejaVuSans-48"/>
       <use x="127.246094" xlink:href="#DejaVuSans-48"/>
       <use x="190.869141" xlink:href="#DejaVuSans-46"/>
       <use x="222.65625" xlink:href="#DejaVuSans-48"/>
      </g>
     </g>
    </g>
    <g id="xtick_6">
     <g id="line2d_6">
      <g>
       <use style="stroke:#000000;stroke-width:0.8;" x="846.225021" xlink:href="#md2909278a4" y="640.8"/>
      </g>
     </g>
     <g id="text_6">
      <!-- 600.0 -->
      <defs>
       <path d="M 33.015625 40.375 
Q 26.375 40.375 22.484375 35.828125 
Q 18.609375 31.296875 18.609375 23.390625 
Q 18.609375 15.53125 22.484375 10.953125 
Q 26.375 6.390625 33.015625 6.390625 
Q 39.65625 6.390625 43.53125 10.953125 
Q 47.40625 15.53125 47.40625 23.390625 
Q 47.40625 31.296875 43.53125 35.828125 
Q 39.65625 40.375 33.015625 40.375 
z
M 52.59375 71.296875 
L 52.59375 62.3125 
Q 48.875 64.0625 45.09375 64.984375 
Q 41.3125 65.921875 37.59375 65.921875 
Q 27.828125 65.921875 22.671875 59.328125 
Q 17.53125 52.734375 16.796875 39.40625 
Q 19.671875 43.65625 24.015625 45.921875 
Q 28.375 48.1875 33.59375 48.1875 
Q 44.578125 48.1875 50.953125 41.515625 
Q 57.328125 34.859375 57.328125 23.390625 
Q 57.328125 12.15625 50.6875 5.359375 
Q 44.046875 -1.421875 33.015625 -1.421875 
Q 20.359375 -1.421875 13.671875 8.265625 
Q 6.984375 17.96875 6.984375 36.375 
Q 6.984375 53.65625 15.1875 63.9375 
Q 23.390625 74.21875 37.203125 74.21875 
Q 40.921875 74.21875 44.703125 73.484375 
Q 48.484375 72.75 52.59375 71.296875 
z
" id="DejaVuSans-54"/>
      </defs>
      <g transform="translate(831.910958 655.398438)scale(0.1 -0.1)">
       <use xlink:href="#DejaVuSans-54"/>
       <use x="63.623047" xlink:href="#DejaVuSans-48"/>
       <use x="127.246094" xlink:href="#DejaVuSans-48"/>
       <use x="190.869141" xlink:href="#DejaVuSans-46"/>
       <use x="222.65625" xlink:href="#DejaVuSans-48"/>
      </g>
     </g>
    </g>
    <g id="xtick_7">
     <g id="line2d_7">
      <g>
       <use style="stroke:#000000;stroke-width:0.8;" x="948.807979" xlink:href="#md2909278a4" y="640.8"/>
      </g>
     </g>
     <g id="text_7">
      <!-- 700.0 -->
      <defs>
       <path d="M 8.203125 72.90625 
L 55.078125 72.90625 
L 55.078125 68.703125 
L 28.609375 0 
L 18.3125 0 
L 43.21875 64.59375 
L 8.203125 64.59375 
z
" id="DejaVuSans-55"/>
      </defs>
      <g transform="translate(934.493916 655.398438)scale(0.1 -0.1)">
       <use xlink:href="#DejaVuSans-55"/>
       <use x="63.623047" xlink:href="#DejaVuSans-48"/>
       <use x="127.246094" xlink:href="#DejaVuSans-48"/>
       <use x="190.869141" xlink:href="#DejaVuSans-46"/>
       <use x="222.65625" xlink:href="#DejaVuSans-48"/>
      </g>
     </g>
    </g>
    <g id="xtick_8">
     <g id="line2d_8">
      <g>
       <use style="stroke:#000000;stroke-width:0.8;" x="1051.390937" xlink:href="#md2909278a4" y="640.8"/>
      </g>
     </g>
     <g id="text_8">
      <!-- 800.0 -->
      <defs>
       <path d="M 31.78125 34.625 
Q 24.75 34.625 20.71875 30.859375 
Q 16.703125 27.09375 16.703125 20.515625 
Q 16.703125 13.921875 20.71875 10.15625 
Q 24.75 6.390625 31.78125 6.390625 
Q 38.8125 6.390625 42.859375 10.171875 
Q 46.921875 13.96875 46.921875 20.515625 
Q 46.921875 27.09375 42.890625 30.859375 
Q 38.875 34.625 31.78125 34.625 
z
M 21.921875 38.8125 
Q 15.578125 40.375 12.03125 44.71875 
Q 8.5 49.078125 8.5 55.328125 
Q 8.5 64.0625 14.71875 69.140625 
Q 20.953125 74.21875 31.78125 74.21875 
Q 42.671875 74.21875 48.875 69.140625 
Q 55.078125 64.0625 55.078125 55.328125 
Q 55.078125 49.078125 51.53125 44.71875 
Q 48 40.375 41.703125 38.8125 
Q 48.828125 37.15625 52.796875 32.3125 
Q 56.78125 27.484375 56.78125 20.515625 
Q 56.78125 9.90625 50.3125 4.234375 
Q 43.84375 -1.421875 31.78125 -1.421875 
Q 19.734375 -1.421875 13.25 4.234375 
Q 6.78125 9.90625 6.78125 20.515625 
Q 6.78125 27.484375 10.78125 32.3125 
Q 14.796875 37.15625 21.921875 38.8125 
z
M 18.3125 54.390625 
Q 18.3125 48.734375 21.84375 45.5625 
Q 25.390625 42.390625 31.78125 42.390625 
Q 38.140625 42.390625 41.71875 45.5625 
Q 45.3125 48.734375 45.3125 54.390625 
Q 45.3125 60.0625 41.71875 63.234375 
Q 38.140625 66.40625 31.78125 66.40625 
Q 25.390625 66.40625 21.84375 63.234375 
Q 18.3125 60.0625 18.3125 54.390625 
z
" id="DejaVuSans-56"/>
      </defs>
      <g transform="translate(1037.076874 655.398438)scale(0.1 -0.1)">
       <use xlink:href="#DejaVuSans-56"/>
       <use x="63.623047" xlink:href="#DejaVuSans-48"/>
       <use x="127.246094" xlink:href="#DejaVuSans-48"/>
       <use x="190.869141" xlink:href="#DejaVuSans-46"/>
       <use x="222.65625" xlink:href="#DejaVuSans-48"/>
      </g>
     </g>
    </g>
    <g id="xtick_9">
     <g id="line2d_9">
      <g>
       <use style="stroke:#000000;stroke-width:0.8;" x="1153.973895" xlink:href="#md2909278a4" y="640.8"/>
      </g>
     </g>
     <g id="text_9">
      <!-- 900.0 -->
      <defs>
       <path d="M 10.984375 1.515625 
L 10.984375 10.5 
Q 14.703125 8.734375 18.5 7.8125 
Q 22.3125 6.890625 25.984375 6.890625 
Q 35.75 6.890625 40.890625 13.453125 
Q 46.046875 20.015625 46.78125 33.40625 
Q 43.953125 29.203125 39.59375 26.953125 
Q 35.25 24.703125 29.984375 24.703125 
Q 19.046875 24.703125 12.671875 31.3125 
Q 6.296875 37.9375 6.296875 49.421875 
Q 6.296875 60.640625 12.9375 67.421875 
Q 19.578125 74.21875 30.609375 74.21875 
Q 43.265625 74.21875 49.921875 64.515625 
Q 56.59375 54.828125 56.59375 36.375 
Q 56.59375 19.140625 48.40625 8.859375 
Q 40.234375 -1.421875 26.421875 -1.421875 
Q 22.703125 -1.421875 18.890625 -0.6875 
Q 15.09375 0.046875 10.984375 1.515625 
z
M 30.609375 32.421875 
Q 37.25 32.421875 41.125 36.953125 
Q 45.015625 41.5 45.015625 49.421875 
Q 45.015625 57.28125 41.125 61.84375 
Q 37.25 66.40625 30.609375 66.40625 
Q 23.96875 66.40625 20.09375 61.84375 
Q 16.21875 57.28125 16.21875 49.421875 
Q 16.21875 41.5 20.09375 36.953125 
Q 23.96875 32.421875 30.609375 32.421875 
z
" id="DejaVuSans-57"/>
      </defs>
      <g transform="translate(1139.659832 655.398438)scale(0.1 -0.1)">
       <use xlink:href="#DejaVuSans-57"/>
       <use x="63.623047" xlink:href="#DejaVuSans-48"/>
       <use x="127.246094" xlink:href="#DejaVuSans-48"/>
       <use x="190.869141" xlink:href="#DejaVuSans-46"/>
       <use x="222.65625" xlink:href="#DejaVuSans-48"/>
      </g>
     </g>
    </g>
    <g id="xtick_10">
     <g id="line2d_10">
      <g>
       <use style="stroke:#000000;stroke-width:0.8;" x="1256.556853" xlink:href="#md2909278a4" y="640.8"/>
      </g>
     </g>
     <g id="text_10">
      <!-- 1000.0 -->
      <g transform="translate(1239.06154 655.398438)scale(0.1 -0.1)">
       <use xlink:href="#DejaVuSans-49"/>
       <use x="63.623047" xlink:href="#DejaVuSans-48"/>
       <use x="127.246094" xlink:href="#DejaVuSans-48"/>
       <use x="190.869141" xlink:href="#DejaVuSans-48"/>
       <use x="254.492188" xlink:href="#DejaVuSans-46"/>
       <use x="286.279297" xlink:href="#DejaVuSans-48"/>
      </g>
     </g>
    </g>
    <g id="text_11">
     <!-- n -->
     <defs>
      <path d="M 54.890625 33.015625 
L 54.890625 0 
L 45.90625 0 
L 45.90625 32.71875 
Q 45.90625 40.484375 42.875 44.328125 
Q 39.84375 48.1875 33.796875 48.1875 
Q 26.515625 48.1875 22.3125 43.546875 
Q 18.109375 38.921875 18.109375 30.90625 
L 18.109375 0 
L 9.078125 0 
L 9.078125 54.6875 
L 18.109375 54.6875 
L 18.109375 46.1875 
Q 21.34375 51.125 25.703125 53.5625 
Q 30.078125 56 35.796875 56 
Q 45.21875 56 50.046875 50.171875 
Q 54.890625 44.34375 54.890625 33.015625 
z
" id="DejaVuSans-110"/>
     </defs>
     <g transform="translate(734.83125 669.076563)scale(0.1 -0.1)">
      <use xlink:href="#DejaVuSans-110"/>
     </g>
    </g>
   </g>
   <g id="matplotlib.axis_2">
    <g id="ytick_1">
     <g id="line2d_11">
      <defs>
       <path d="M 0 0 
L -3.5 0 
" id="md5f29d45fc" style="stroke:#000000;stroke-width:0.8;"/>
      </defs>
      <g>
       <use style="stroke:#000000;stroke-width:0.8;" x="180" xlink:href="#md5f29d45fc" y="618.031571"/>
      </g>
     </g>
     <g id="text_12">
      <!-- 0 -->
      <g transform="translate(166.6375 621.83079)scale(0.1 -0.1)">
       <use xlink:href="#DejaVuSans-48"/>
      </g>
     </g>
    </g>
    <g id="ytick_2">
     <g id="line2d_12">
      <g>
       <use style="stroke:#000000;stroke-width:0.8;" x="180" xlink:href="#md5f29d45fc" y="556.144666"/>
      </g>
     </g>
     <g id="text_13">
      <!-- 20 -->
      <g transform="translate(160.275 559.943885)scale(0.1 -0.1)">
       <use xlink:href="#DejaVuSans-50"/>
       <use x="63.623047" xlink:href="#DejaVuSans-48"/>
      </g>
     </g>
    </g>
    <g id="ytick_3">
     <g id="line2d_13">
      <g>
       <use style="stroke:#000000;stroke-width:0.8;" x="180" xlink:href="#md5f29d45fc" y="494.257762"/>
      </g>
     </g>
     <g id="text_14">
      <!-- 40 -->
      <g transform="translate(160.275 498.05698)scale(0.1 -0.1)">
       <use xlink:href="#DejaVuSans-52"/>
       <use x="63.623047" xlink:href="#DejaVuSans-48"/>
      </g>
     </g>
    </g>
    <g id="ytick_4">
     <g id="line2d_14">
      <g>
       <use style="stroke:#000000;stroke-width:0.8;" x="180" xlink:href="#md5f29d45fc" y="432.370857"/>
      </g>
     </g>
     <g id="text_15">
      <!-- 60 -->
      <g transform="translate(160.275 436.170076)scale(0.1 -0.1)">
       <use xlink:href="#DejaVuSans-54"/>
       <use x="63.623047" xlink:href="#DejaVuSans-48"/>
      </g>
     </g>
    </g>
    <g id="ytick_5">
     <g id="line2d_15">
      <g>
       <use style="stroke:#000000;stroke-width:0.8;" x="180" xlink:href="#md5f29d45fc" y="370.483952"/>
      </g>
     </g>
     <g id="text_16">
      <!-- 80 -->
      <g transform="translate(160.275 374.283171)scale(0.1 -0.1)">
       <use xlink:href="#DejaVuSans-56"/>
       <use x="63.623047" xlink:href="#DejaVuSans-48"/>
      </g>
     </g>
    </g>
    <g id="ytick_6">
     <g id="line2d_16">
      <g>
       <use style="stroke:#000000;stroke-width:0.8;" x="180" xlink:href="#md5f29d45fc" y="308.597048"/>
      </g>
     </g>
     <g id="text_17">
      <!-- 100 -->
      <g transform="translate(153.9125 312.396266)scale(0.1 -0.1)">
       <use xlink:href="#DejaVuSans-49"/>
       <use x="63.623047" xlink:href="#DejaVuSans-48"/>
       <use x="127.246094" xlink:href="#DejaVuSans-48"/>
      </g>
     </g>
    </g>
    <g id="ytick_7">
     <g id="line2d_17">
      <g>
       <use style="stroke:#000000;stroke-width:0.8;" x="180" xlink:href="#md5f29d45fc" y="246.710143"/>
      </g>
     </g>
     <g id="text_18">
      <!-- 120 -->
      <g transform="translate(153.9125 250.509362)scale(0.1 -0.1)">
       <use xlink:href="#DejaVuSans-49"/>
       <use x="63.623047" xlink:href="#DejaVuSans-50"/>
       <use x="127.246094" xlink:href="#DejaVuSans-48"/>
      </g>
     </g>
    </g>
    <g id="ytick_8">
     <g id="line2d_18">
      <g>
       <use style="stroke:#000000;stroke-width:0.8;" x="180" xlink:href="#md5f29d45fc" y="184.823238"/>
      </g>
     </g>
     <g id="text_19">
      <!-- 140 -->
      <g transform="translate(153.9125 188.622457)scale(0.1 -0.1)">
       <use xlink:href="#DejaVuSans-49"/>
       <use x="63.623047" xlink:href="#DejaVuSans-52"/>
       <use x="127.246094" xlink:href="#DejaVuSans-48"/>
      </g>
     </g>
    </g>
    <g id="ytick_9">
     <g id="line2d_19">
      <g>
       <use style="stroke:#000000;stroke-width:0.8;" x="180" xlink:href="#md5f29d45fc" y="122.936333"/>
      </g>
     </g>
     <g id="text_20">
      <!-- 160 -->
      <g transform="translate(153.9125 126.735552)scale(0.1 -0.1)">
       <use xlink:href="#DejaVuSans-49"/>
       <use x="63.623047" xlink:href="#DejaVuSans-54"/>
       <use x="127.246094" xlink:href="#DejaVuSans-48"/>
      </g>
     </g>
    </g>
    <g id="text_21">
     <!-- speedup -->
     <defs>
      <path d="M 44.28125 53.078125 
L 44.28125 44.578125 
Q 40.484375 46.53125 36.375 47.5 
Q 32.28125 48.484375 27.875 48.484375 
Q 21.1875 48.484375 17.84375 46.4375 
Q 14.5 44.390625 14.5 40.28125 
Q 14.5 37.15625 16.890625 35.375 
Q 19.28125 33.59375 26.515625 31.984375 
L 29.59375 31.296875 
Q 39.15625 29.25 43.1875 25.515625 
Q 47.21875 21.78125 47.21875 15.09375 
Q 47.21875 7.46875 41.1875 3.015625 
Q 35.15625 -1.421875 24.609375 -1.421875 
Q 20.21875 -1.421875 15.453125 -0.5625 
Q 10.6875 0.296875 5.421875 2 
L 5.421875 11.28125 
Q 10.40625 8.6875 15.234375 7.390625 
Q 20.0625 6.109375 24.8125 6.109375 
Q 31.15625 6.109375 34.5625 8.28125 
Q 37.984375 10.453125 37.984375 14.40625 
Q 37.984375 18.0625 35.515625 20.015625 
Q 33.0625 21.96875 24.703125 23.78125 
L 21.578125 24.515625 
Q 13.234375 26.265625 9.515625 29.90625 
Q 5.8125 33.546875 5.8125 39.890625 
Q 5.8125 47.609375 11.28125 51.796875 
Q 16.75 56 26.8125 56 
Q 31.78125 56 36.171875 55.265625 
Q 40.578125 54.546875 44.28125 53.078125 
z
" id="DejaVuSans-115"/>
      <path d="M 18.109375 8.203125 
L 18.109375 -20.796875 
L 9.078125 -20.796875 
L 9.078125 54.6875 
L 18.109375 54.6875 
L 18.109375 46.390625 
Q 20.953125 51.265625 25.265625 53.625 
Q 29.59375 56 35.59375 56 
Q 45.5625 56 51.78125 48.09375 
Q 58.015625 40.1875 58.015625 27.296875 
Q 58.015625 14.40625 51.78125 6.484375 
Q 45.5625 -1.421875 35.59375 -1.421875 
Q 29.59375 -1.421875 25.265625 0.953125 
Q 20.953125 3.328125 18.109375 8.203125 
z
M 48.6875 27.296875 
Q 48.6875 37.203125 44.609375 42.84375 
Q 40.53125 48.484375 33.40625 48.484375 
Q 26.265625 48.484375 22.1875 42.84375 
Q 18.109375 37.203125 18.109375 27.296875 
Q 18.109375 17.390625 22.1875 11.75 
Q 26.265625 6.109375 33.40625 6.109375 
Q 40.53125 6.109375 44.609375 11.75 
Q 48.6875 17.390625 48.6875 27.296875 
z
" id="DejaVuSans-112"/>
      <path d="M 56.203125 29.59375 
L 56.203125 25.203125 
L 14.890625 25.203125 
Q 15.484375 15.921875 20.484375 11.0625 
Q 25.484375 6.203125 34.421875 6.203125 
Q 39.59375 6.203125 44.453125 7.46875 
Q 49.3125 8.734375 54.109375 11.28125 
L 54.109375 2.78125 
Q 49.265625 0.734375 44.1875 -0.34375 
Q 39.109375 -1.421875 33.890625 -1.421875 
Q 20.796875 -1.421875 13.15625 6.1875 
Q 5.515625 13.8125 5.515625 26.8125 
Q 5.515625 40.234375 12.765625 48.109375 
Q 20.015625 56 32.328125 56 
Q 43.359375 56 49.78125 48.890625 
Q 56.203125 41.796875 56.203125 29.59375 
z
M 47.21875 32.234375 
Q 47.125 39.59375 43.09375 43.984375 
Q 39.0625 48.390625 32.421875 48.390625 
Q 24.90625 48.390625 20.390625 44.140625 
Q 15.875 39.890625 15.1875 32.171875 
z
" id="DejaVuSans-101"/>
      <path d="M 45.40625 46.390625 
L 45.40625 75.984375 
L 54.390625 75.984375 
L 54.390625 0 
L 45.40625 0 
L 45.40625 8.203125 
Q 42.578125 3.328125 38.25 0.953125 
Q 33.9375 -1.421875 27.875 -1.421875 
Q 17.96875 -1.421875 11.734375 6.484375 
Q 5.515625 14.40625 5.515625 27.296875 
Q 5.515625 40.1875 11.734375 48.09375 
Q 17.96875 56 27.875 56 
Q 33.9375 56 38.25 53.625 
Q 42.578125 51.265625 45.40625 46.390625 
z
M 14.796875 27.296875 
Q 14.796875 17.390625 18.875 11.75 
Q 22.953125 6.109375 30.078125 6.109375 
Q 37.203125 6.109375 41.296875 11.75 
Q 45.40625 17.390625 45.40625 27.296875 
Q 45.40625 37.203125 41.296875 42.84375 
Q 37.203125 48.484375 30.078125 48.484375 
Q 22.953125 48.484375 18.875 42.84375 
Q 14.796875 37.203125 14.796875 27.296875 
z
" id="DejaVuSans-100"/>
      <path d="M 8.5 21.578125 
L 8.5 54.6875 
L 17.484375 54.6875 
L 17.484375 21.921875 
Q 17.484375 14.15625 20.5 10.265625 
Q 23.53125 6.390625 29.59375 6.390625 
Q 36.859375 6.390625 41.078125 11.03125 
Q 45.3125 15.671875 45.3125 23.6875 
L 45.3125 54.6875 
L 54.296875 54.6875 
L 54.296875 0 
L 45.3125 0 
L 45.3125 8.40625 
Q 42.046875 3.421875 37.71875 1 
Q 33.40625 -1.421875 27.6875 -1.421875 
Q 18.265625 -1.421875 13.375 4.4375 
Q 8.5 10.296875 8.5 21.578125 
z
M 31.109375 56 
z
" id="DejaVuSans-117"/>
     </defs>
     <g transform="translate(147.832812 385.049219)rotate(-90)scale(0.1 -0.1)">
      <use xlink:href="#DejaVuSans-115"/>
      <use x="52.099609" xlink:href="#DejaVuSans-112"/>
      <use x="115.576172" xlink:href="#DejaVuSans-101"/>
      <use x="177.099609" xlink:href="#DejaVuSans-101"/>
      <use x="238.623047" xlink:href="#DejaVuSans-100"/>
      <use x="302.099609" xlink:href="#DejaVuSans-117"/>
      <use x="365.478516" xlink:href="#DejaVuSans-112"/>
     </g>
    </g>
   </g>
   <g id="line2d_20">
    <path clip-path="url(#p3f2cb80088)" d="M 230.727273 111.6 
L 231.753102 133.260007 
L 232.778932 161.402415 
L 234.830591 205.404726 
L 235.856421 216.518235 
L 236.88225 231.762064 
L 237.90808 257.638642 
L 238.933909 250.971952 
L 239.959739 279.507623 
L 240.985569 282.696388 
L 242.011398 271.687806 
L 243.037228 303.741213 
L 244.063057 316.437215 
L 245.088887 324.213338 
L 246.114716 328.871058 
L 247.140546 337.792611 
L 248.166376 352.118093 
L 249.192205 354.49197 
L 250.218035 361.551423 
L 251.243864 346.895252 
L 252.269694 365.212049 
L 253.295523 375.734098 
L 254.321353 378.294438 
L 255.347183 387.682816 
L 256.373012 395.124948 
L 257.398842 397.716353 
L 258.424671 396.755356 
L 259.450501 408.595876 
L 260.476331 412.089152 
L 261.50216 412.670093 
L 262.52799 411.045505 
L 263.553819 422.660092 
L 264.579649 426.51949 
L 265.605478 428.768775 
L 266.631308 429.323914 
L 267.657138 435.633811 
L 268.682967 436.926312 
L 269.708797 441.892772 
L 270.734626 443.414032 
L 271.760456 442.432799 
L 272.786286 445.640053 
L 273.812115 449.629854 
L 274.837945 452.288288 
L 275.863774 453.834283 
L 276.889604 453.959071 
L 277.915433 482.507286 
L 278.941263 461.358358 
L 279.967093 464.472046 
L 280.992922 464.326353 
L 282.018752 465.025962 
L 283.044581 460.563235 
L 284.070411 467.447146 
L 285.09624 476.022188 
L 286.12207 473.390623 
L 287.1479 474.246286 
L 288.173729 475.879052 
L 289.199559 479.589778 
L 290.225388 480.514303 
L 291.251218 482.693199 
L 292.277048 477.126054 
L 293.302877 484.964699 
L 294.328707 485.10454 
L 295.354536 487.026594 
L 296.380366 490.326293 
L 297.406195 494.225693 
L 298.432025 493.894345 
L 299.457855 494.796769 
L 300.483684 498.962041 
L 301.509514 497.726509 
L 302.535343 503.355722 
L 303.561173 499.737281 
L 304.587002 501.335096 
L 305.612832 502.223844 
L 306.638662 502.721329 
L 307.664491 505.281578 
L 308.690321 502.452803 
L 309.71615 506.409142 
L 310.74198 505.771845 
L 311.76781 509.484503 
L 312.793639 507.791243 
L 313.819469 509.294065 
L 314.845298 511.572831 
L 315.871128 510.006049 
L 316.896957 512.559064 
L 317.922787 512.942231 
L 318.948617 515.186432 
L 319.974446 512.167392 
L 321.000276 518.859356 
L 322.026105 518.249711 
L 323.051935 513.29731 
L 324.077765 509.922691 
L 325.103594 518.404677 
L 326.129424 523.042483 
L 327.155253 521.111013 
L 328.181083 522.981889 
L 329.206912 516.868904 
L 330.232742 522.826603 
L 331.258572 524.202638 
L 332.284401 523.800153 
L 333.310231 525.89164 
L 334.33606 525.846722 
L 335.36189 527.421947 
L 336.387719 526.75487 
L 337.413549 525.411059 
L 338.439379 526.327766 
L 339.465208 529.022314 
L 340.491038 530.442066 
L 341.516867 529.99668 
L 342.542697 531.186553 
L 343.568527 534.08881 
L 344.594356 532.213038 
L 345.620186 531.931244 
L 346.646015 529.281515 
L 347.671845 532.818407 
L 348.697674 535.275873 
L 349.723504 534.026591 
L 350.749334 535.659872 
L 351.775163 533.556453 
L 352.800993 537.665571 
L 353.826822 536.963012 
L 354.852652 537.215658 
L 355.878481 538.471394 
L 356.904311 538.251994 
L 357.930141 539.017918 
L 358.95597 538.838299 
L 359.9818 536.357409 
L 361.007629 540.249625 
L 362.033459 541.231104 
L 363.059289 541.257838 
L 364.085118 541.093435 
L 366.136777 543.448013 
L 367.162607 542.773038 
L 368.188436 543.730058 
L 369.214266 545.472581 
L 370.240096 544.185682 
L 371.265925 544.910004 
L 372.291755 544.868055 
L 373.317584 545.383038 
L 374.343414 555.7707 
L 375.369243 546.808985 
L 376.395073 546.034964 
L 377.420903 547.474251 
L 379.472562 545.023039 
L 380.498391 547.801965 
L 381.524221 548.364765 
L 382.550051 553.072987 
L 384.60171 545.370366 
L 385.627539 550.088436 
L 386.653369 549.797012 
L 387.679198 551.120322 
L 388.705028 550.440356 
L 389.730858 551.976395 
L 390.756687 551.100467 
L 391.782517 552.393929 
L 392.808346 549.206606 
L 393.834176 553.42223 
L 394.860006 552.735418 
L 395.885835 553.76763 
L 396.911665 553.577569 
L 397.937494 545.594657 
L 398.963324 548.117324 
L 399.989153 564.561547 
L 401.014983 554.91598 
L 403.066642 553.708654 
L 404.092472 555.719463 
L 405.118301 555.562608 
L 406.144131 554.989265 
L 407.16996 556.096539 
L 408.19579 552.770427 
L 409.22162 556.890219 
L 410.247449 556.506132 
L 411.273279 556.768711 
L 412.299108 556.702897 
L 413.324938 557.829598 
L 414.350768 557.366974 
L 415.376597 558.283189 
L 416.402427 557.641067 
L 417.428256 558.496425 
L 418.454086 558.421406 
L 419.479915 559.38385 
L 420.505745 559.050242 
L 421.531575 559.855547 
L 422.557404 559.8178 
L 423.583234 557.301305 
L 424.609063 565.872723 
L 425.634893 560.389251 
L 426.660722 561.253442 
L 427.686552 556.853954 
L 428.712382 561.130133 
L 429.738211 578.890754 
L 430.764041 558.768321 
L 431.78987 562.15448 
L 432.8157 562.483567 
L 433.84153 562.548785 
L 434.867359 563.379942 
L 435.893189 563.028347 
L 436.919018 564.069718 
L 437.944848 562.203818 
L 438.970677 563.926836 
L 439.996507 564.512074 
L 441.022337 563.357549 
L 442.048166 563.826867 
L 443.073996 562.303058 
L 444.099825 564.54626 
L 445.125655 562.95575 
L 446.151485 565.355411 
L 447.177314 566.994035 
L 448.203144 565.363083 
L 449.228973 565.358062 
L 450.254803 564.853717 
L 451.280632 566.499048 
L 452.306462 565.492273 
L 453.332292 567.22189 
L 454.358121 566.325139 
L 455.383951 566.568202 
L 456.40978 566.490991 
L 457.43561 567.476224 
L 458.461439 567.291368 
L 459.487269 567.490554 
L 460.513099 573.938646 
L 461.538928 565.550156 
L 462.564758 567.530478 
L 463.590587 567.679228 
L 464.616417 568.257386 
L 465.642247 568.344082 
L 466.668076 568.276905 
L 467.693906 567.500618 
L 468.719735 568.978666 
L 469.745565 569.200336 
L 470.771394 570.179443 
L 471.797224 569.448499 
L 472.823054 569.251364 
L 473.848883 567.668181 
L 474.874713 569.866783 
L 475.900542 569.827335 
L 476.926372 571.894809 
L 477.952201 568.067228 
L 478.978031 570.333752 
L 480.003861 570.234803 
L 481.02969 568.638841 
L 482.05552 570.334342 
L 484.107179 571.738582 
L 485.133009 571.39361 
L 486.158838 571.767199 
L 487.184668 574.548746 
L 488.210497 570.686317 
L 489.236327 571.559417 
L 491.287986 572.555684 
L 492.313816 571.630033 
L 493.339645 572.884302 
L 494.365475 572.486606 
L 495.391304 572.862079 
L 496.417134 572.750928 
L 497.442964 572.855976 
L 498.468793 573.447792 
L 499.494623 572.349639 
L 500.520452 573.637623 
L 501.546282 572.863306 
L 502.572111 573.545272 
L 503.597941 572.124701 
L 504.623771 573.714855 
L 505.6496 574.011155 
L 506.67543 574.131679 
L 507.701259 574.578547 
L 508.727089 578.114733 
L 509.752918 574.059359 
L 510.778748 574.684653 
L 511.804578 574.673331 
L 512.830407 574.918582 
L 513.856237 574.665109 
L 514.882066 572.724392 
L 515.907896 574.93338 
L 516.933726 574.984377 
L 517.959555 575.388784 
L 518.985385 575.464539 
L 520.011214 575.324631 
L 521.037044 575.846565 
L 522.062873 582.983426 
L 523.088703 576.508575 
L 524.114533 575.028525 
L 526.166192 576.608523 
L 527.192021 575.981262 
L 528.217851 574.692133 
L 529.24368 576.920092 
L 530.26951 576.320049 
L 531.29534 576.959098 
L 532.321169 576.705577 
L 533.346999 577.256079 
L 534.372828 576.238359 
L 535.398658 576.78029 
L 536.424488 577.75167 
L 537.450317 577.133108 
L 538.476147 578.111993 
L 539.501976 576.234404 
L 540.527806 577.273273 
L 541.553635 579.803538 
L 542.579465 580.517418 
L 543.605295 577.843895 
L 544.631124 578.549502 
L 545.656954 578.333561 
L 546.682783 581.412453 
L 547.708613 577.483311 
L 548.734443 581.338661 
L 549.760272 578.998768 
L 550.786102 578.526207 
L 552.837761 579.243614 
L 553.86359 577.43664 
L 554.88942 579.323737 
L 555.91525 579.420085 
L 556.941079 579.065161 
L 557.966909 579.648524 
L 558.992738 579.868217 
L 560.018568 577.79972 
L 561.044397 580.158365 
L 562.070227 579.693025 
L 563.096057 579.926716 
L 564.121886 579.953382 
L 565.147716 582.439759 
L 566.173545 579.520658 
L 567.199375 580.208255 
L 568.225205 580.421008 
L 569.251034 580.462279 
L 570.276864 580.035633 
L 571.302693 580.183481 
L 572.328523 579.675252 
L 573.354352 580.648279 
L 574.380182 580.725574 
L 575.406012 581.184917 
L 576.431841 580.445922 
L 577.457671 581.192636 
L 578.4835 579.386045 
L 579.50933 581.457392 
L 580.535159 581.246784 
L 581.560989 581.508867 
L 582.586819 581.396798 
L 583.612648 581.707133 
L 584.638478 580.987865 
L 585.664307 581.330659 
L 586.690137 581.823615 
L 587.715967 581.855942 
L 588.741796 581.386608 
L 589.767626 581.792534 
L 590.793455 580.683055 
L 591.819285 581.937216 
L 592.845114 582.507857 
L 593.870944 582.167427 
L 594.896774 582.835748 
L 595.922603 582.403954 
L 596.948433 581.480255 
L 597.974262 582.510563 
L 599.000092 582.631918 
L 600.025922 582.546283 
L 601.051751 583.46083 
L 603.10341 582.635322 
L 604.12924 583.087166 
L 605.155069 583.35921 
L 606.180899 583.131305 
L 607.206729 583.692318 
L 608.232558 583.155057 
L 609.258388 583.000003 
L 611.310047 583.293616 
L 612.335876 582.461882 
L 613.361706 583.384922 
L 614.387536 583.540641 
L 615.413365 583.238457 
L 617.465024 583.652891 
L 618.490854 582.346672 
L 619.516684 583.723161 
L 620.542513 584.134294 
L 621.568343 584.398522 
L 622.594172 615.6 
L 623.620002 584.915794 
L 624.645831 584.108653 
L 625.671661 584.54682 
L 626.697491 584.042751 
L 627.72332 584.264176 
L 628.74915 583.819723 
L 629.774979 584.683088 
L 630.800809 584.455453 
L 631.826638 584.762406 
L 632.852468 584.720727 
L 633.878298 584.315706 
L 634.904127 585.580801 
L 635.929957 583.647914 
L 636.955786 584.906404 
L 637.981616 584.771923 
L 639.007446 584.898248 
L 640.033275 584.245665 
L 644.136593 585.674216 
L 645.162423 585.366526 
L 646.188253 584.810548 
L 647.214082 586.031111 
L 648.239912 578.445002 
L 649.265741 584.214847 
L 650.291571 584.282202 
L 651.3174 585.965851 
L 652.34323 585.865947 
L 654.394889 586.512359 
L 655.420719 582.753916 
L 656.446548 589.527564 
L 657.472378 586.243225 
L 658.498208 586.550426 
L 659.524037 585.185044 
L 660.549867 586.507584 
L 661.575696 586.619089 
L 663.627355 586.463573 
L 664.653185 585.421407 
L 665.679015 587.9433 
L 666.704844 586.577847 
L 667.730674 587.002674 
L 668.756503 586.952374 
L 669.782333 586.713889 
L 670.808163 585.674435 
L 671.833992 585.881152 
L 672.859822 587.177582 
L 675.93731 585.963317 
L 676.96314 587.300982 
L 677.98897 587.147105 
L 679.014799 587.337332 
L 681.066458 586.964318 
L 682.092288 591.537709 
L 683.118117 587.726519 
L 684.143947 587.433834 
L 685.169777 587.32825 
L 686.195606 587.68953 
L 687.221436 586.768342 
L 688.247265 587.470943 
L 689.273095 588.022535 
L 690.298925 587.828581 
L 691.324754 588.103943 
L 692.350584 586.749604 
L 693.376413 587.865979 
L 695.428072 588.524504 
L 696.453902 588.166213 
L 697.479732 588.316691 
L 699.531391 587.615497 
L 700.55722 589.551221 
L 701.58305 588.054912 
L 702.608879 588.149498 
L 703.634709 591.039123 
L 704.660539 587.743737 
L 705.686368 588.178935 
L 706.712198 588.25279 
L 707.738027 588.067704 
L 708.763857 586.939594 
L 709.789687 588.197881 
L 710.815516 588.323502 
L 711.841346 588.756702 
L 712.867175 588.676552 
L 713.893005 588.274426 
L 714.918834 588.87446 
L 715.944664 588.770815 
L 716.970494 588.785847 
L 717.996323 589.176658 
L 719.022153 588.059913 
L 720.047982 589.006254 
L 721.073812 588.749037 
L 722.099642 589.090436 
L 723.125471 589.222708 
L 724.151301 588.249972 
L 725.17713 589.002912 
L 726.20296 590.661007 
L 727.228789 589.054914 
L 728.254619 590.625574 
L 729.280449 588.166305 
L 730.306278 589.346058 
L 731.332108 589.761766 
L 732.357937 588.547453 
L 733.383767 589.379027 
L 734.409596 588.854332 
L 735.435426 589.731788 
L 736.461256 589.787703 
L 737.487085 589.569848 
L 738.512915 589.519799 
L 739.538744 588.968463 
L 740.564574 589.96431 
L 741.590404 591.127648 
L 742.616233 589.888544 
L 743.642063 589.994351 
L 744.667892 589.069284 
L 745.693722 590.128574 
L 747.745381 590.10668 
L 748.771211 590.366393 
L 749.79704 589.755992 
L 750.82287 590.301214 
L 751.848699 590.065156 
L 752.874529 590.381896 
L 753.900358 590.47535 
L 754.926188 589.455221 
L 755.952018 589.762811 
L 756.977847 590.428724 
L 758.003677 590.635812 
L 759.029506 590.686282 
L 761.081166 590.391918 
L 763.132825 590.720122 
L 764.158654 590.689019 
L 765.184484 590.248974 
L 766.210313 590.792074 
L 767.236143 590.369785 
L 769.287802 591.104014 
L 770.313632 589.921266 
L 771.339461 590.682569 
L 772.365291 590.109009 
L 773.391121 590.856131 
L 774.41695 590.573619 
L 775.44278 595.512706 
L 776.468609 590.737107 
L 777.494439 590.785386 
L 778.520268 591.291079 
L 779.546098 591.303879 
L 780.571928 591.102036 
L 781.597757 591.025257 
L 782.623587 591.275222 
L 783.649416 591.261485 
L 784.675246 590.388255 
L 785.701075 592.075347 
L 786.726905 591.024249 
L 787.752735 591.771584 
L 788.778564 591.774502 
L 789.804394 590.687785 
L 790.830223 591.518671 
L 792.881883 591.221651 
L 793.907712 591.25835 
L 794.933542 591.096617 
L 795.959371 591.500346 
L 796.985201 591.260378 
L 798.01103 591.16844 
L 801.088519 591.657551 
L 802.114349 592.027419 
L 803.140178 591.473267 
L 804.166008 590.534603 
L 805.191837 590.65683 
L 806.217667 591.720789 
L 807.243497 591.814333 
L 808.269326 592.900916 
L 809.295156 590.944403 
L 810.320985 591.656843 
L 812.372645 591.743302 
L 813.398474 591.863746 
L 814.424304 593.117403 
L 815.450133 591.820057 
L 817.501792 591.967156 
L 818.527622 591.13389 
L 820.579281 593.111869 
L 821.605111 592.041357 
L 822.63094 592.070478 
L 823.65677 593.628202 
L 824.6826 592.320075 
L 825.708429 592.33464 
L 826.734259 592.675732 
L 827.760088 591.617422 
L 828.785918 591.304764 
L 829.811747 592.10374 
L 830.837577 592.520696 
L 831.863407 592.814062 
L 832.889236 591.647011 
L 833.915066 593.609845 
L 834.940895 592.557869 
L 835.966725 592.618674 
L 836.992554 592.978866 
L 838.018384 592.181256 
L 839.044214 592.677966 
L 841.095873 592.851484 
L 842.121702 591.549454 
L 843.147532 592.542325 
L 844.173362 592.705961 
L 845.199191 592.687687 
L 846.225021 592.849393 
L 847.25085 592.894693 
L 848.27668 593.099148 
L 851.354169 592.575883 
L 852.379998 592.919295 
L 853.405828 592.866724 
L 854.431657 592.994324 
L 855.457487 593.874586 
L 856.483316 592.764435 
L 858.534976 593.144588 
L 860.586635 592.451816 
L 861.612464 593.065529 
L 862.638294 592.867346 
L 863.664124 593.782802 
L 864.689953 592.414271 
L 865.715783 593.560832 
L 866.741612 593.248606 
L 867.767442 593.239878 
L 868.793271 593.777653 
L 869.819101 595.86135 
L 870.844931 593.688058 
L 871.87076 594.384832 
L 872.89659 583.716672 
L 873.922419 583.752094 
L 874.948249 591.98866 
L 875.974078 591.242665 
L 876.999908 590.090034 
L 878.025738 597.708742 
L 879.051567 599.041744 
L 880.077397 589.170476 
L 881.103226 590.979286 
L 882.129056 593.045578 
L 883.154886 591.917619 
L 884.180715 592.309968 
L 885.206545 592.957485 
L 886.232374 587.570645 
L 887.258204 592.728234 
L 888.284033 581.926392 
L 889.309863 593.528136 
L 890.335693 594.498804 
L 891.361522 593.293324 
L 892.387352 594.606538 
L 893.413181 594.80791 
L 894.439011 587.656843 
L 895.464841 579.319125 
L 896.49067 588.849093 
L 897.5165 584.170436 
L 898.542329 596.907861 
L 899.568159 592.571782 
L 900.593988 592.573082 
L 901.619818 585.957882 
L 902.645648 588.300493 
L 903.671477 615.118253 
L 904.697307 592.037742 
L 905.723136 587.802505 
L 906.748966 592.739692 
L 907.774795 593.558859 
L 908.800625 591.953765 
L 909.826455 595.275338 
L 910.852284 591.937277 
L 911.878114 591.149175 
L 912.903943 593.229982 
L 913.929773 593.820602 
L 914.955603 592.545927 
L 915.981432 600.165476 
L 917.007262 593.100279 
L 918.033091 594.184632 
L 919.058921 580.543125 
L 920.08475 587.522288 
L 921.11058 598.317276 
L 922.13641 596.218408 
L 923.162239 593.421402 
L 924.188069 593.905771 
L 925.213898 590.019443 
L 926.239728 591.567423 
L 927.265557 591.61257 
L 928.291387 583.892582 
L 929.317217 592.143735 
L 930.343046 583.520207 
L 931.368876 590.719559 
L 932.394705 587.216412 
L 933.420535 597.018912 
L 934.446365 593.955435 
L 935.472194 599.175936 
L 936.498024 597.340862 
L 937.523853 590.908002 
L 938.549683 596.707979 
L 939.575512 591.386205 
L 940.601342 589.563892 
L 941.627172 594.867342 
L 942.653001 586.948394 
L 943.678831 589.22944 
L 944.70466 592.38569 
L 945.73049 591.410034 
L 946.75632 592.055207 
L 947.782149 595.551224 
L 948.807979 601.855535 
L 949.833808 591.057617 
L 950.859638 591.701618 
L 951.885467 591.758387 
L 952.911297 593.172571 
L 953.937127 594.809915 
L 954.962956 589.934646 
L 955.988786 589.658827 
L 957.014615 584.866213 
L 958.040445 592.415881 
L 959.066274 591.658418 
L 960.092104 597.019967 
L 961.117934 592.711883 
L 962.143763 600.088689 
L 963.169593 584.524216 
L 964.195422 586.501758 
L 965.221252 588.059689 
L 966.247082 592.902393 
L 967.272911 591.856114 
L 968.298741 588.513052 
L 969.32457 588.006883 
L 970.3504 596.046228 
L 971.376229 587.886164 
L 972.402059 591.457128 
L 973.427889 582.228066 
L 974.453718 593.119983 
L 975.479548 594.826319 
L 976.505377 595.410516 
L 977.531207 594.816952 
L 978.557036 598.377773 
L 979.582866 591.822984 
L 980.608696 584.359025 
L 981.634525 599.853037 
L 982.660355 592.057673 
L 983.686184 589.536583 
L 984.712014 594.263131 
L 985.737844 592.685058 
L 986.763673 594.424925 
L 987.789503 597.152164 
L 988.815332 583.126613 
L 989.841162 596.950177 
L 990.866991 593.631168 
L 991.892821 594.969913 
L 992.918651 595.177822 
L 993.94448 592.864441 
L 994.97031 593.375163 
L 997.021969 595.236306 
L 998.047799 589.388557 
L 999.073628 590.388219 
L 1000.099458 597.654976 
L 1001.125287 580.532203 
L 1002.151117 593.280342 
L 1003.176946 579.746994 
L 1004.202776 597.242195 
L 1005.228606 590.914904 
L 1006.254435 581.416248 
L 1007.280265 594.128158 
L 1008.306094 595.907152 
L 1009.331924 596.593934 
L 1010.357753 596.038579 
L 1011.383583 597.514814 
L 1012.409413 596.043077 
L 1013.435242 592.065691 
L 1014.461072 595.261313 
L 1015.486901 596.294408 
L 1016.512731 594.539024 
L 1017.538561 595.521109 
L 1018.56439 596.183159 
L 1019.59022 596.080723 
L 1020.616049 596.302493 
L 1022.667708 594.275749 
L 1023.693538 595.323817 
L 1024.719368 595.571482 
L 1025.745197 600.326538 
L 1026.771027 596.177452 
L 1027.796856 596.451214 
L 1028.822686 595.506507 
L 1029.848515 596.616455 
L 1031.900175 596.092443 
L 1032.926004 596.429006 
L 1033.951834 594.053188 
L 1034.977663 598.063079 
L 1036.003493 593.898119 
L 1037.029323 596.172453 
L 1038.055152 596.542609 
L 1039.080982 596.515723 
L 1040.106811 598.158096 
L 1041.132641 596.550948 
L 1042.15847 596.093674 
L 1043.1843 598.997503 
L 1044.21013 594.127586 
L 1045.235959 592.382698 
L 1047.287618 596.692244 
L 1048.313448 595.419034 
L 1049.339278 596.768286 
L 1050.365107 595.453198 
L 1051.390937 596.572098 
L 1052.416766 595.772484 
L 1053.442596 596.331409 
L 1054.468425 597.031459 
L 1055.494255 596.850798 
L 1056.520085 593.456893 
L 1057.545914 595.789422 
L 1058.571744 596.783985 
L 1059.597573 596.6706 
L 1060.623403 595.036012 
L 1061.649232 596.869949 
L 1062.675062 597.574261 
L 1064.726721 597.226787 
L 1065.752551 596.668386 
L 1066.77838 597.787338 
L 1067.80421 597.070253 
L 1068.83004 598.19672 
L 1069.855869 598.082607 
L 1070.881699 597.824852 
L 1071.907528 595.877457 
L 1072.933358 599.847514 
L 1073.959187 596.888787 
L 1074.985017 596.224846 
L 1076.010847 595.959445 
L 1077.036676 595.908152 
L 1078.062506 598.789036 
L 1079.088335 597.803361 
L 1080.114165 597.222368 
L 1081.139994 597.283493 
L 1082.165824 597.67788 
L 1083.191654 597.188614 
L 1084.217483 597.804994 
L 1085.243313 597.781033 
L 1086.269142 598.204664 
L 1087.294972 597.841435 
L 1088.320802 597.211144 
L 1089.346631 597.289542 
L 1090.372461 597.050356 
L 1091.39829 597.795149 
L 1093.449949 597.770765 
L 1094.475779 597.996144 
L 1095.501609 598.7831 
L 1097.553268 596.9225 
L 1098.579097 596.78948 
L 1099.604927 597.827292 
L 1100.630757 596.912968 
L 1101.656586 597.584469 
L 1102.682416 597.736595 
L 1103.708245 598.099615 
L 1104.734075 597.718752 
L 1105.759904 597.03623 
L 1106.785734 597.958938 
L 1107.811564 597.498357 
L 1108.837393 596.444695 
L 1109.863223 597.07317 
L 1110.889052 597.843426 
L 1111.914882 600.901159 
L 1112.940711 598.383054 
L 1113.966541 597.477972 
L 1116.0182 594.378283 
L 1117.04403 595.990256 
L 1118.069859 601.408363 
L 1119.095689 596.908425 
L 1120.121519 598.146633 
L 1121.147348 597.234358 
L 1122.173178 598.4083 
L 1124.224837 598.150392 
L 1125.250666 592.738704 
L 1126.276496 598.043654 
L 1127.302326 598.054968 
L 1128.328155 600.098401 
L 1129.353985 597.748875 
L 1130.379814 598.390596 
L 1131.405644 597.797416 
L 1132.431473 602.550065 
L 1133.457303 597.776763 
L 1134.483133 596.914848 
L 1135.508962 593.842538 
L 1136.534792 597.879673 
L 1137.560621 596.989222 
L 1138.586451 595.472512 
L 1139.612281 597.886395 
L 1140.63811 597.445634 
L 1141.66394 597.370332 
L 1142.689769 591.966326 
L 1143.715599 597.033241 
L 1144.741428 597.500225 
L 1146.793088 597.46598 
L 1147.818917 598.051069 
L 1148.844747 597.158019 
L 1149.870576 597.086481 
L 1150.896406 599.851751 
L 1151.922235 597.817797 
L 1152.948065 596.572274 
L 1156.025554 598.642499 
L 1157.051383 597.81336 
L 1158.077213 598.376852 
L 1159.103043 598.061352 
L 1160.128872 597.521175 
L 1162.180531 597.950435 
L 1163.206361 598.282775 
L 1164.23219 598.067442 
L 1165.25802 598.55151 
L 1166.28385 597.939949 
L 1167.309679 597.667094 
L 1168.335509 593.618596 
L 1169.361338 597.192114 
L 1170.387168 598.950056 
L 1171.412998 598.365948 
L 1172.438827 598.516638 
L 1173.464657 596.490544 
L 1174.490486 598.072071 
L 1175.516316 598.414537 
L 1176.542145 597.863756 
L 1177.567975 598.349582 
L 1178.593805 600.520451 
L 1179.619634 595.590992 
L 1180.645464 598.154095 
L 1181.671293 597.415767 
L 1182.697123 598.160011 
L 1183.722952 598.200096 
L 1184.748782 596.639492 
L 1185.774612 589.98732 
L 1186.800441 600.804717 
L 1187.826271 593.313533 
L 1188.8521 597.600375 
L 1189.87793 599.294901 
L 1190.90376 601.968213 
L 1191.929589 598.903391 
L 1192.955419 596.332823 
L 1193.981248 594.945378 
L 1195.007078 596.399103 
L 1196.032907 596.573616 
L 1197.058737 594.276791 
L 1198.084567 596.473174 
L 1199.110396 596.814195 
L 1200.136226 591.073823 
L 1201.162055 597.097771 
L 1202.187885 598.489316 
L 1203.213714 597.742457 
L 1204.239544 598.524173 
L 1205.265374 598.257617 
L 1207.317033 598.563843 
L 1208.342862 597.725023 
L 1209.368692 599.011832 
L 1210.394522 598.26836 
L 1212.446181 598.536494 
L 1213.47201 599.115258 
L 1214.49784 598.525145 
L 1215.523669 598.253466 
L 1216.549499 597.641693 
L 1217.575329 598.647432 
L 1219.626988 598.258494 
L 1221.678647 598.711037 
L 1222.704477 598.876343 
L 1223.730306 604.092243 
L 1224.756136 598.789614 
L 1226.807795 598.088514 
L 1227.833624 599.442799 
L 1228.859454 598.927406 
L 1229.885284 596.678259 
L 1230.911113 598.3807 
L 1231.936943 598.99159 
L 1232.962772 597.959157 
L 1233.988602 598.982727 
L 1235.014431 599.397385 
L 1236.040261 598.661748 
L 1237.066091 598.807688 
L 1238.09192 599.165407 
L 1239.11775 594.809037 
L 1240.143579 597.855124 
L 1241.169409 599.112196 
L 1243.221068 598.808457 
L 1244.246898 599.026093 
L 1245.272727 598.894686 
L 1245.272727 598.894686 
" style="fill:none;stroke:#1f77b4;stroke-linecap:square;stroke-width:1.5;"/>
   </g>
   <g id="line2d_21">
    <path clip-path="url(#p3f2cb80088)" d="M 230.727273 124.436584 
L 231.753102 113.253529 
L 232.778932 165.637642 
L 233.804761 188.203295 
L 234.830591 185.537023 
L 235.856421 128.632145 
L 237.90808 244.97752 
L 238.933909 247.761296 
L 239.959739 226.350075 
L 240.985569 201.651045 
L 242.011398 237.648058 
L 243.037228 265.78918 
L 244.063057 254.193355 
L 245.088887 281.636981 
L 246.114716 333.083539 
L 247.140546 285.505762 
L 248.166376 282.779783 
L 250.218035 336.956155 
L 251.243864 313.876596 
L 252.269694 337.320098 
L 253.295523 302.38933 
L 254.321353 301.545795 
L 255.347183 294.437914 
L 256.373012 320.400705 
L 257.398842 329.714626 
L 258.424671 309.168454 
L 259.450501 322.257619 
L 260.476331 355.325539 
L 261.50216 365.628891 
L 262.52799 353.922634 
L 263.553819 359.919327 
L 264.579649 323.575726 
L 265.605478 366.693862 
L 266.631308 350.622091 
L 267.657138 392.555617 
L 268.682967 378.402533 
L 269.708797 356.314586 
L 270.734626 392.780989 
L 271.760456 377.56149 
L 272.786286 409.644816 
L 273.812115 369.289668 
L 274.837945 377.410501 
L 275.863774 421.491453 
L 276.889604 409.885764 
L 277.915433 279.473072 
L 278.941263 451.695434 
L 279.967093 439.091019 
L 280.992922 444.788759 
L 282.018752 460.327031 
L 283.044581 432.352945 
L 284.070411 436.345501 
L 285.09624 425.838742 
L 286.12207 416.540101 
L 287.1479 415.79831 
L 288.173729 432.762381 
L 289.199559 479.602084 
L 290.225388 456.608187 
L 291.251218 418.793812 
L 292.277048 412.746781 
L 293.302877 380.453784 
L 294.328707 410.552494 
L 295.354536 410.605364 
L 296.380366 405.475721 
L 297.406195 403.570346 
L 298.432025 397.672841 
L 299.457855 408.212104 
L 300.483684 417.076055 
L 301.509514 454.031255 
L 302.535343 403.092353 
L 303.561173 422.504875 
L 304.587002 417.780282 
L 305.612832 432.037261 
L 306.638662 429.959698 
L 307.664491 441.835698 
L 308.690321 425.560329 
L 309.71615 429.066742 
L 310.74198 431.558067 
L 311.76781 451.64298 
L 312.793639 444.626103 
L 313.819469 441.501268 
L 314.845298 458.730881 
L 315.871128 465.489709 
L 316.896957 456.207676 
L 317.922787 474.118216 
L 318.948617 468.607245 
L 319.974446 462.136018 
L 321.000276 484.067954 
L 322.026105 468.040352 
L 323.051935 466.80393 
L 324.077765 489.173914 
L 325.103594 479.656716 
L 327.155253 424.111026 
L 328.181083 479.396111 
L 329.206912 459.311048 
L 330.232742 461.37332 
L 331.258572 467.498907 
L 332.284401 472.16074 
L 333.310231 467.900533 
L 334.33606 482.410564 
L 335.36189 465.788648 
L 336.387719 490.562531 
L 338.439379 479.346764 
L 339.465208 485.382703 
L 340.491038 494.436951 
L 341.516867 483.371846 
L 342.542697 493.70743 
L 343.568527 463.765181 
L 344.594356 470.982841 
L 345.620186 469.070397 
L 346.646015 505.1822 
L 347.671845 472.239549 
L 348.697674 480.466815 
L 349.723504 481.924078 
L 350.749334 480.243433 
L 351.775163 481.483222 
L 352.800993 483.828525 
L 353.826822 482.324136 
L 354.852652 486.33442 
L 355.878481 467.185832 
L 356.904311 530.29852 
L 357.930141 505.569488 
L 358.95597 507.651418 
L 359.9818 500.575935 
L 361.007629 483.586515 
L 362.033459 484.99883 
L 363.059289 488.164779 
L 364.085118 489.697379 
L 365.110948 494.781986 
L 366.136777 486.102569 
L 367.162607 498.763533 
L 368.188436 489.057211 
L 369.214266 454.031894 
L 370.240096 508.621078 
L 371.265925 490.285589 
L 372.291755 501.962346 
L 373.317584 499.535187 
L 374.343414 495.681395 
L 375.369243 498.933327 
L 376.395073 505.656872 
L 377.420903 503.634605 
L 378.446732 497.025795 
L 379.472562 494.651241 
L 380.498391 494.565651 
L 381.524221 489.800575 
L 382.550051 491.640799 
L 383.57588 496.489627 
L 384.60171 500.179247 
L 385.627539 498.420604 
L 386.653369 504.598624 
L 387.679198 499.156196 
L 388.705028 499.767394 
L 389.730858 506.769789 
L 390.756687 510.146243 
L 391.782517 503.950227 
L 392.808346 524.40064 
L 393.834176 514.900379 
L 394.860006 516.131729 
L 395.885835 495.514808 
L 396.911665 505.433695 
L 397.937494 490.142489 
L 398.963324 505.285285 
L 399.989153 506.916869 
L 401.014983 501.043702 
L 402.040813 499.506212 
L 403.066642 501.297844 
L 404.092472 502.028306 
L 405.118301 501.781457 
L 406.144131 504.492866 
L 407.16996 512.254146 
L 408.19579 508.715149 
L 409.22162 506.480016 
L 410.247449 469.529592 
L 411.273279 517.663178 
L 412.299108 547.472612 
L 413.324938 506.598233 
L 414.350768 515.670458 
L 415.376597 515.373185 
L 416.402427 513.80665 
L 417.428256 516.122248 
L 418.454086 533.953033 
L 419.479915 533.012266 
L 420.505745 519.608604 
L 421.531575 516.072812 
L 422.557404 515.250031 
L 423.583234 519.762571 
L 424.609063 522.273653 
L 425.634893 518.94487 
L 426.660722 519.51552 
L 427.686552 521.856577 
L 428.712382 525.306844 
L 429.738211 520.916558 
L 430.764041 522.621103 
L 431.78987 532.521923 
L 432.8157 523.30678 
L 435.893189 530.831052 
L 436.919018 525.714364 
L 437.944848 528.145655 
L 438.970677 527.220084 
L 439.996507 541.841811 
L 441.022337 528.971124 
L 442.048166 526.814754 
L 443.073996 529.512849 
L 445.125655 532.730887 
L 446.151485 530.32836 
L 447.177314 536.322464 
L 448.203144 533.288763 
L 449.228973 537.387385 
L 450.254803 533.874089 
L 451.280632 532.830525 
L 452.306462 487.622083 
L 453.332292 548.673435 
L 454.358121 563.359467 
L 455.383951 535.034888 
L 456.40978 532.714149 
L 457.43561 533.415148 
L 458.461439 536.967728 
L 459.487269 550.869676 
L 460.513099 542.100477 
L 461.538928 538.982492 
L 462.564758 541.271907 
L 463.590587 549.653614 
L 464.616417 539.040276 
L 465.642247 542.921411 
L 466.668076 537.283021 
L 467.693906 539.352195 
L 468.719735 541.063244 
L 469.745565 540.545875 
L 470.771394 540.610035 
L 471.797224 542.815568 
L 472.823054 541.526845 
L 473.848883 551.489875 
L 474.874713 542.735668 
L 475.900542 544.390058 
L 476.926372 541.760205 
L 477.952201 543.201323 
L 478.978031 544.960338 
L 480.003861 542.800157 
L 481.02969 556.827914 
L 482.05552 545.338655 
L 483.081349 560.83824 
L 484.107179 548.105377 
L 485.133009 547.264878 
L 486.158838 544.801389 
L 487.184668 546.540789 
L 488.210497 547.500068 
L 489.236327 549.327212 
L 490.262156 550.059493 
L 491.287986 508.876467 
L 492.313816 559.461511 
L 493.339645 574.051064 
L 494.365475 549.344309 
L 495.391304 550.34875 
L 496.417134 551.014043 
L 497.442964 550.06362 
L 498.468793 553.737656 
L 499.494623 552.515661 
L 500.520452 534.324252 
L 501.546282 532.225144 
L 502.572111 533.12975 
L 503.597941 532.823451 
L 504.623771 544.72674 
L 505.6496 537.108031 
L 506.67543 534.18824 
L 507.701259 534.233935 
L 508.727089 535.725728 
L 509.752918 547.617118 
L 510.778748 548.555769 
L 511.804578 544.140182 
L 512.830407 531.064436 
L 513.856237 541.743043 
L 514.882066 534.486392 
L 515.907896 536.517112 
L 516.933726 534.542168 
L 517.959555 546.948577 
L 518.985385 537.144334 
L 520.011214 547.705692 
L 521.037044 533.131304 
L 522.062873 556.128563 
L 523.088703 536.108915 
L 524.114533 540.177581 
L 525.140362 543.170977 
L 526.166192 543.102581 
L 527.192021 509.773843 
L 528.217851 572.224915 
L 529.24368 543.533502 
L 530.26951 543.114292 
L 531.29534 544.304156 
L 532.321169 539.500197 
L 533.346999 545.017796 
L 534.372828 545.99324 
L 535.398658 546.504872 
L 536.424488 544.746043 
L 537.450317 545.502368 
L 538.476147 545.23354 
L 539.501976 548.323895 
L 540.527806 544.086302 
L 541.553635 551.399052 
L 542.579465 550.430183 
L 543.605295 550.135717 
L 544.631124 556.829918 
L 545.656954 550.662672 
L 546.682783 547.876742 
L 547.708613 553.418542 
L 548.734443 550.563808 
L 549.760272 546.957373 
L 550.786102 548.107565 
L 551.811931 551.871214 
L 552.837761 552.628347 
L 553.86359 552.344951 
L 554.88942 556.975399 
L 555.91525 555.072917 
L 556.941079 550.71163 
L 557.966909 555.22005 
L 558.992738 558.706632 
L 560.018568 551.713337 
L 561.044397 550.73304 
L 562.070227 546.801828 
L 563.096057 563.929311 
L 564.121886 557.388344 
L 565.147716 553.785453 
L 566.173545 552.301188 
L 567.199375 571.327806 
L 568.225205 575.205427 
L 569.251034 569.747739 
L 570.276864 574.039258 
L 571.302693 571.617244 
L 572.328523 573.16792 
L 573.354352 571.243549 
L 574.380182 573.762689 
L 575.406012 570.755162 
L 576.431841 574.247795 
L 577.457671 572.623116 
L 578.4835 572.204085 
L 579.50933 577.528246 
L 581.560989 570.58957 
L 582.586819 574.421185 
L 583.612648 572.49277 
L 584.638478 573.43297 
L 585.664307 571.191836 
L 586.690137 574.14519 
L 587.715967 572.035176 
L 588.741796 574.106467 
L 589.767626 569.758404 
L 590.793455 574.33769 
L 591.819285 573.658335 
L 592.845114 574.898333 
L 593.870944 575.47112 
L 594.896774 572.766883 
L 595.922603 575.545905 
L 596.948433 577.634484 
L 597.974262 569.107748 
L 599.000092 551.69444 
L 600.025922 570.936769 
L 601.051751 568.092956 
L 602.077581 563.950162 
L 603.10341 567.7897 
L 604.12924 566.260682 
L 605.155069 576.287459 
L 606.180899 572.341021 
L 607.206729 567.536572 
L 608.232558 572.710748 
L 609.258388 575.006017 
L 610.284217 566.696251 
L 611.310047 542.951765 
L 612.335876 548.662122 
L 613.361706 546.292296 
L 614.387536 573.952602 
L 615.413365 574.737054 
L 616.439195 572.267807 
L 618.490854 576.826148 
L 619.516684 576.756998 
L 620.542513 573.557302 
L 621.568343 572.696929 
L 622.594172 572.435274 
L 623.620002 575.923501 
L 624.645831 573.388426 
L 625.671661 574.924732 
L 626.697491 574.305415 
L 627.72332 574.618398 
L 628.74915 577.302688 
L 629.774979 580.457809 
L 630.800809 572.946547 
L 631.826638 576.649632 
L 632.852468 575.027552 
L 633.878298 577.189785 
L 634.904127 574.403338 
L 635.929957 576.915099 
L 636.955786 573.793949 
L 637.981616 576.483394 
L 639.007446 579.970502 
L 640.033275 576.705496 
L 641.059105 576.117182 
L 642.084934 577.159329 
L 643.110764 575.970401 
L 644.136593 577.524919 
L 645.162423 578.323109 
L 646.188253 576.468916 
L 647.214082 576.016715 
L 648.239912 563.369718 
L 649.265741 566.694815 
L 650.291571 577.398991 
L 651.3174 575.418228 
L 652.34323 576.630615 
L 653.36906 575.610666 
L 654.394889 577.436652 
L 655.420719 574.105785 
L 656.446548 577.054283 
L 657.472378 575.585828 
L 658.498208 576.994894 
L 659.524037 574.198462 
L 660.549867 577.978931 
L 661.575696 575.358355 
L 662.601526 577.505716 
L 663.627355 582.356294 
L 664.653185 577.109266 
L 665.679015 575.396462 
L 666.704844 575.90448 
L 667.730674 579.682036 
L 668.756503 579.806659 
L 669.782333 576.405864 
L 670.808163 577.906616 
L 671.833992 576.202265 
L 672.859822 577.355916 
L 673.885651 576.785035 
L 674.911481 583.224632 
L 675.93731 582.180436 
L 676.96314 577.68672 
L 677.98897 577.713872 
L 679.014799 577.909085 
L 680.040629 576.797241 
L 681.066458 578.290112 
L 682.092288 577.121524 
L 683.118117 578.546883 
L 684.143947 581.807243 
L 685.169777 579.252946 
L 686.195606 582.646253 
L 687.221436 578.635623 
L 688.247265 554.771417 
L 689.273095 579.706996 
L 690.298925 577.602901 
L 691.324754 578.428451 
L 692.350584 580.174596 
L 693.376413 577.746297 
L 694.402243 580.385181 
L 695.428072 578.829507 
L 696.453902 576.72818 
L 697.479732 577.312865 
L 698.505561 575.885255 
L 699.531391 578.511034 
L 700.55722 581.730959 
L 701.58305 577.823844 
L 702.608879 581.543939 
L 703.634709 578.959009 
L 704.660539 565.410655 
L 705.686368 579.381628 
L 707.738027 578.49583 
L 709.789687 575.433892 
L 710.815516 576.20942 
L 711.841346 580.230847 
L 712.867175 577.309909 
L 713.893005 578.885453 
L 714.918834 577.647113 
L 715.944664 588.595759 
L 716.970494 577.208772 
L 717.996323 576.578456 
L 719.022153 573.055421 
L 720.047982 583.130262 
L 721.073812 570.320498 
L 722.099642 577.825751 
L 723.125471 577.610544 
L 724.151301 582.993248 
L 725.17713 579.191452 
L 726.20296 582.550877 
L 727.228789 580.842374 
L 728.254619 582.618013 
L 729.280449 580.60412 
L 730.306278 582.130242 
L 731.332108 576.460119 
L 732.357937 581.957521 
L 733.383767 580.223518 
L 734.409596 582.78268 
L 735.435426 581.201501 
L 736.461256 583.203839 
L 737.487085 572.842763 
L 738.512915 583.762697 
L 739.538744 581.298097 
L 740.564574 582.553378 
L 741.590404 581.924544 
L 742.616233 582.359515 
L 743.642063 584.681057 
L 744.667892 584.552103 
L 745.693722 581.869615 
L 746.719551 583.888448 
L 748.771211 579.381897 
L 750.82287 583.102626 
L 751.848699 584.540885 
L 752.874529 582.210993 
L 753.900358 583.056375 
L 754.926188 587.632905 
L 755.952018 582.125304 
L 756.977847 584.04533 
L 758.003677 582.649086 
L 759.029506 584.69997 
L 760.055336 581.381958 
L 761.081166 595.206247 
L 762.106995 583.391359 
L 763.132825 584.249436 
L 764.158654 582.830963 
L 765.184484 580.67054 
L 766.210313 580.665456 
L 767.236143 584.072887 
L 768.261973 582.414572 
L 769.287802 581.151899 
L 770.313632 581.666651 
L 771.339461 583.75355 
L 772.365291 591.200433 
L 773.391121 581.764287 
L 774.41695 585.911455 
L 775.44278 588.750408 
L 776.468609 586.97294 
L 777.494439 570.306466 
L 778.520268 575.989767 
L 779.546098 576.638881 
L 780.571928 580.173716 
L 781.597757 576.798244 
L 782.623587 576.890356 
L 783.649416 575.577412 
L 784.675246 576.942676 
L 785.701075 586.403116 
L 786.726905 577.655296 
L 787.752735 576.661378 
L 788.778564 582.487076 
L 789.804394 575.24937 
L 791.856053 578.669355 
L 792.881883 576.674669 
L 793.907712 574.953759 
L 794.933542 576.816858 
L 795.959371 576.713657 
L 796.985201 574.539458 
L 798.01103 568.971576 
L 799.03686 585.654063 
L 800.06269 592.475261 
L 801.088519 572.439204 
L 803.140178 581.425108 
L 804.166008 580.640214 
L 805.191837 580.560317 
L 806.217667 576.248426 
L 807.243497 575.484118 
L 808.269326 577.084446 
L 809.295156 574.832469 
L 810.320985 575.907975 
L 811.346815 579.464019 
L 812.372645 581.443949 
L 813.398474 582.137358 
L 814.424304 592.107286 
L 815.450133 568.342181 
L 816.475963 576.016755 
L 817.501792 578.73784 
L 818.527622 572.088134 
L 819.553452 575.659496 
L 820.579281 574.608156 
L 821.605111 568.621727 
L 822.63094 581.479094 
L 823.65677 581.969643 
L 824.6826 583.726179 
L 825.708429 588.051502 
L 826.734259 573.042379 
L 827.760088 576.065554 
L 828.785918 575.279624 
L 829.811747 575.471023 
L 830.837577 572.967464 
L 831.863407 576.828153 
L 832.889236 576.64572 
L 833.915066 577.166377 
L 834.940895 578.92534 
L 835.966725 569.125794 
L 836.992554 575.113341 
L 838.018384 573.136207 
L 839.044214 589.220644 
L 840.070043 573.536793 
L 841.095873 575.151997 
L 842.121702 578.144729 
L 843.147532 576.404836 
L 844.173362 575.686742 
L 845.199191 572.576022 
L 846.225021 575.97915 
L 847.25085 576.395762 
L 848.27668 576.296987 
L 849.302509 576.816363 
L 850.328339 574.85316 
L 851.354169 576.573803 
L 852.379998 573.651195 
L 853.405828 579.870226 
L 854.431657 574.814549 
L 855.457487 574.053689 
L 856.483316 574.854772 
L 857.509146 576.529253 
L 858.534976 576.808854 
L 859.560805 576.040246 
L 860.586635 577.193743 
L 861.612464 584.636035 
L 862.638294 582.222835 
L 863.664124 576.889149 
L 864.689953 579.238238 
L 865.715783 574.795562 
L 866.741612 575.595971 
L 867.767442 576.630797 
L 868.793271 574.642769 
L 869.819101 576.518948 
L 870.844931 576.029914 
L 871.87076 576.864705 
L 872.89659 576.281091 
L 873.922419 579.422952 
L 874.948249 580.174287 
L 875.974078 577.00625 
L 876.999908 576.753728 
L 878.025738 576.05276 
L 879.051567 571.259461 
L 880.077397 584.388162 
L 881.103226 576.320989 
L 882.129056 586.398342 
L 883.154886 587.864703 
L 884.180715 577.398431 
L 885.206545 577.676343 
L 886.232374 569.187027 
L 888.284033 581.13022 
L 889.309863 576.544976 
L 890.335693 578.515684 
L 891.361522 578.363327 
L 892.387352 577.702041 
L 893.413181 576.882129 
L 894.439011 579.551507 
L 895.464841 578.592664 
L 896.49067 578.712182 
L 897.5165 577.676419 
L 898.542329 577.731675 
L 899.568159 577.528024 
L 900.593988 575.99273 
L 901.619818 579.692069 
L 902.645648 580.149162 
L 903.671477 581.630735 
L 904.697307 580.661102 
L 905.723136 580.856562 
L 906.748966 580.318783 
L 907.774795 583.104791 
L 908.800625 580.432331 
L 909.826455 576.076909 
L 910.852284 584.191113 
L 911.878114 579.777384 
L 912.903943 580.680131 
L 913.929773 581.116741 
L 914.955603 580.110206 
L 915.981432 582.496013 
L 917.007262 580.761649 
L 918.033091 585.091592 
L 919.058921 580.698275 
L 920.08475 575.287939 
L 921.11058 578.929149 
L 922.13641 579.792413 
L 923.162239 583.569069 
L 924.188069 579.293808 
L 925.213898 579.293175 
L 926.239728 572.534848 
L 927.265557 581.603165 
L 928.291387 580.038031 
L 929.317217 575.693755 
L 930.343046 581.158611 
L 931.368876 580.332689 
L 932.394705 581.087669 
L 933.420535 577.876761 
L 934.446365 583.148925 
L 935.472194 579.648327 
L 936.498024 585.489973 
L 937.523853 580.521722 
L 938.549683 582.288041 
L 939.575512 581.862409 
L 940.601342 581.637958 
L 941.627172 581.188079 
L 942.653001 588.642881 
L 943.678831 581.626301 
L 944.70466 575.773656 
L 945.73049 583.899349 
L 946.75632 586.612088 
L 947.782149 577.224288 
L 948.807979 582.113415 
L 949.833808 579.00839 
L 950.859638 586.663991 
L 951.885467 581.309876 
L 952.911297 566.09103 
L 953.937127 580.926762 
L 954.962956 580.055173 
L 955.988786 577.335955 
L 957.014615 580.392629 
L 958.040445 581.795256 
L 959.066274 581.239613 
L 960.092104 581.564584 
L 961.117934 576.955543 
L 963.169593 580.95717 
L 964.195422 580.631016 
L 965.221252 572.439605 
L 966.247082 580.97379 
L 967.272911 582.071316 
L 968.298741 581.850519 
L 969.32457 579.43827 
L 970.3504 581.38455 
L 971.376229 581.455004 
L 973.427889 581.900185 
L 974.453718 594.618953 
L 975.479548 580.781554 
L 976.505377 581.790064 
L 977.531207 580.917721 
L 978.557036 581.58887 
L 979.582866 581.126914 
L 980.608696 593.287533 
L 981.634525 579.452248 
L 982.660355 580.990036 
L 983.686184 580.770033 
L 984.712014 570.682783 
L 985.737844 590.287124 
L 986.763673 581.394385 
L 987.789503 580.7021 
L 988.815332 580.515673 
L 989.841162 581.568915 
L 990.866991 581.822291 
L 991.892821 580.110696 
L 992.918651 573.5236 
L 993.94448 581.16276 
L 994.97031 575.911959 
L 995.996139 584.439162 
L 997.021969 580.931806 
L 998.047799 582.055555 
L 999.073628 582.092618 
L 1000.099458 580.172656 
L 1001.125287 577.656283 
L 1002.151117 574.02172 
L 1003.176946 580.334094 
L 1004.202776 581.691276 
L 1005.228606 581.570071 
L 1006.254435 581.641976 
L 1008.306094 582.05234 
L 1009.331924 579.546683 
L 1010.357753 580.314412 
L 1011.383583 581.954813 
L 1012.409413 582.040062 
L 1013.435242 580.810494 
L 1014.461072 573.875754 
L 1015.486901 588.231048 
L 1016.512731 587.403866 
L 1017.538561 581.562013 
L 1018.56439 581.76219 
L 1019.59022 584.539731 
L 1020.616049 588.84748 
L 1021.641879 581.616469 
L 1022.667708 581.561966 
L 1023.693538 578.351783 
L 1024.719368 582.673986 
L 1025.745197 580.370452 
L 1026.771027 580.74626 
L 1027.796856 582.956721 
L 1028.822686 585.950967 
L 1029.848515 591.225268 
L 1030.874345 573.529877 
L 1031.900175 582.592253 
L 1032.926004 579.780618 
L 1033.951834 580.148897 
L 1034.977663 581.09771 
L 1036.003493 580.317222 
L 1037.029323 578.411032 
L 1038.055152 575.066247 
L 1039.080982 588.418626 
L 1040.106811 587.702292 
L 1041.132641 581.932095 
L 1043.1843 582.113239 
L 1044.21013 586.24613 
L 1045.235959 581.457811 
L 1046.261789 581.964432 
L 1047.287618 581.456646 
L 1048.313448 582.201419 
L 1049.339278 580.464118 
L 1050.365107 582.391862 
L 1051.390937 587.732981 
L 1052.416766 581.973473 
L 1053.442596 580.640083 
L 1054.468425 581.958017 
L 1055.494255 578.308956 
L 1056.520085 586.981611 
L 1057.545914 583.294978 
L 1058.571744 582.33146 
L 1059.597573 579.984914 
L 1060.623403 583.89386 
L 1061.649232 584.093403 
L 1062.675062 584.77857 
L 1063.700892 590.432772 
L 1064.726721 584.048603 
L 1065.752551 584.300699 
L 1066.77838 584.948991 
L 1067.80421 584.658129 
L 1068.83004 583.73049 
L 1069.855869 588.436867 
L 1070.881699 581.847359 
L 1071.907528 586.835656 
L 1072.933358 582.669228 
L 1073.959187 584.788265 
L 1074.985017 580.860008 
L 1076.010847 586.282583 
L 1077.036676 586.390588 
L 1078.062506 598.09061 
L 1079.088335 585.729281 
L 1080.114165 585.463228 
L 1081.139994 585.590075 
L 1082.165824 592.812279 
L 1083.191654 586.303148 
L 1084.217483 584.032982 
L 1085.243313 586.642181 
L 1086.269142 592.582866 
L 1088.320802 579.432988 
L 1089.346631 586.345898 
L 1090.372461 566.281747 
L 1091.39829 594.754932 
L 1092.42412 585.799633 
L 1093.449949 585.313082 
L 1094.475779 585.609222 
L 1095.501609 578.174157 
L 1096.527438 585.795858 
L 1098.579097 585.565752 
L 1099.604927 585.829378 
L 1100.630757 578.409141 
L 1101.656586 587.006923 
L 1102.682416 584.312137 
L 1103.708245 577.71599 
L 1104.734075 585.617544 
L 1105.759904 586.059693 
L 1106.785734 579.821591 
L 1107.811564 576.025507 
L 1108.837393 596.637613 
L 1109.863223 586.740563 
L 1110.889052 584.837785 
L 1112.940711 585.34044 
L 1113.966541 586.696385 
L 1114.992371 585.708029 
L 1116.0182 586.110701 
L 1117.04403 590.113629 
L 1118.069859 587.13804 
L 1119.095689 585.688177 
L 1120.121519 586.269325 
L 1121.147348 590.000375 
L 1122.173178 586.519209 
L 1123.199007 585.986932 
L 1125.250666 585.43982 
L 1126.276496 586.420801 
L 1127.302326 569.8553 
L 1128.328155 597.776078 
L 1129.353985 589.929811 
L 1130.379814 585.771057 
L 1131.405644 587.250292 
L 1132.431473 585.701807 
L 1133.457303 586.360216 
L 1134.483133 585.600065 
L 1135.508962 585.813808 
L 1136.534792 585.604422 
L 1137.560621 585.568606 
L 1138.586451 574.210582 
L 1139.612281 585.262368 
L 1141.66394 584.613426 
L 1142.689769 596.146499 
L 1143.715599 584.541963 
L 1144.741428 585.639998 
L 1145.767258 588.844178 
L 1146.793088 584.680662 
L 1147.818917 585.611471 
L 1148.844747 584.778649 
L 1149.870576 584.675927 
L 1150.896406 586.635678 
L 1151.922235 586.448543 
L 1152.948065 584.982009 
L 1153.973895 585.696701 
L 1154.999724 585.920473 
L 1156.025554 601.713386 
L 1157.051383 591.545832 
L 1158.077213 573.468586 
L 1159.103043 588.206694 
L 1160.128872 587.999237 
L 1161.154702 596.818178 
L 1162.180531 586.167363 
L 1163.206361 585.936855 
L 1164.23219 586.10747 
L 1165.25802 589.971737 
L 1166.28385 585.878595 
L 1167.309679 586.026583 
L 1168.335509 585.954337 
L 1169.361338 586.280376 
L 1170.387168 586.206564 
L 1171.412998 589.320951 
L 1172.438827 585.193287 
L 1173.464657 590.27562 
L 1174.490486 594.58525 
L 1175.516316 585.404936 
L 1176.542145 594.531867 
L 1177.567975 585.229559 
L 1178.593805 586.486254 
L 1179.619634 590.647889 
L 1180.645464 588.808143 
L 1181.671293 595.854931 
L 1182.697123 585.515599 
L 1183.722952 585.750363 
L 1184.748782 568.392452 
L 1185.774612 587.761251 
L 1186.800441 587.269935 
L 1187.826271 585.415018 
L 1188.8521 583.191136 
L 1189.87793 586.192807 
L 1190.90376 586.589583 
L 1192.955419 584.995904 
L 1193.981248 584.544281 
L 1195.007078 585.56627 
L 1196.032907 585.571156 
L 1197.058737 585.10962 
L 1198.084567 585.755711 
L 1199.110396 586.190298 
L 1200.136226 590.236951 
L 1201.162055 585.839218 
L 1202.187885 579.420707 
L 1203.213714 585.371839 
L 1204.239544 584.988419 
L 1205.265374 586.081077 
L 1206.291203 586.058717 
L 1207.317033 581.477769 
L 1208.342862 580.66768 
L 1209.368692 581.408178 
L 1210.394522 586.114394 
L 1211.420351 585.401279 
L 1212.446181 586.400797 
L 1213.47201 577.738163 
L 1214.49784 586.58801 
L 1215.523669 586.30349 
L 1216.549499 584.95897 
L 1217.575329 588.466782 
L 1218.601158 590.188998 
L 1219.626988 582.137702 
L 1220.652817 586.893261 
L 1221.678647 585.844918 
L 1222.704477 585.658355 
L 1223.730306 584.518289 
L 1224.756136 586.170216 
L 1225.781965 585.457891 
L 1226.807795 584.443942 
L 1227.833624 585.727607 
L 1228.859454 590.363204 
L 1229.885284 586.14205 
L 1230.911113 585.398946 
L 1231.936943 586.254098 
L 1232.962772 584.03221 
L 1233.988602 584.018049 
L 1235.014431 584.193478 
L 1236.040261 582.252229 
L 1237.066091 586.85873 
L 1239.11775 585.941987 
L 1240.143579 587.371064 
L 1241.169409 597.485367 
L 1242.195239 586.003704 
L 1243.221068 587.354341 
L 1244.246898 586.543902 
L 1245.272727 586.491893 
L 1245.272727 586.491893 
" style="fill:none;stroke:#ff7f0e;stroke-linecap:square;stroke-width:1.5;"/>
   </g>
   <g id="patch_3">
    <path d="M 180 640.8 
L 180 86.4 
" style="fill:none;stroke:#000000;stroke-linecap:square;stroke-linejoin:miter;stroke-width:0.8;"/>
   </g>
   <g id="patch_4">
    <path d="M 1296 640.8 
L 1296 86.4 
" style="fill:none;stroke:#000000;stroke-linecap:square;stroke-linejoin:miter;stroke-width:0.8;"/>
   </g>
   <g id="patch_5">
    <path d="M 180 640.8 
L 1296 640.8 
" style="fill:none;stroke:#000000;stroke-linecap:square;stroke-linejoin:miter;stroke-width:0.8;"/>
   </g>
   <g id="patch_6">
    <path d="M 180 86.4 
L 1296 86.4 
" style="fill:none;stroke:#000000;stroke-linecap:square;stroke-linejoin:miter;stroke-width:0.8;"/>
   </g>
   <g id="text_22">
    <!-- Donchian Channel (DC) Speedup -->
    <defs>
     <path d="M 19.671875 64.796875 
L 19.671875 8.109375 
L 31.59375 8.109375 
Q 46.6875 8.109375 53.6875 14.9375 
Q 60.6875 21.78125 60.6875 36.53125 
Q 60.6875 51.171875 53.6875 57.984375 
Q 46.6875 64.796875 31.59375 64.796875 
z
M 9.8125 72.90625 
L 30.078125 72.90625 
Q 51.265625 72.90625 61.171875 64.09375 
Q 71.09375 55.28125 71.09375 36.53125 
Q 71.09375 17.671875 61.125 8.828125 
Q 51.171875 0 30.078125 0 
L 9.8125 0 
z
" id="DejaVuSans-68"/>
     <path d="M 30.609375 48.390625 
Q 23.390625 48.390625 19.1875 42.75 
Q 14.984375 37.109375 14.984375 27.296875 
Q 14.984375 17.484375 19.15625 11.84375 
Q 23.34375 6.203125 30.609375 6.203125 
Q 37.796875 6.203125 41.984375 11.859375 
Q 46.1875 17.53125 46.1875 27.296875 
Q 46.1875 37.015625 41.984375 42.703125 
Q 37.796875 48.390625 30.609375 48.390625 
z
M 30.609375 56 
Q 42.328125 56 49.015625 48.375 
Q 55.71875 40.765625 55.71875 27.296875 
Q 55.71875 13.875 49.015625 6.21875 
Q 42.328125 -1.421875 30.609375 -1.421875 
Q 18.84375 -1.421875 12.171875 6.21875 
Q 5.515625 13.875 5.515625 27.296875 
Q 5.515625 40.765625 12.171875 48.375 
Q 18.84375 56 30.609375 56 
z
" id="DejaVuSans-111"/>
     <path d="M 48.78125 52.59375 
L 48.78125 44.1875 
Q 44.96875 46.296875 41.140625 47.34375 
Q 37.3125 48.390625 33.40625 48.390625 
Q 24.65625 48.390625 19.8125 42.84375 
Q 14.984375 37.3125 14.984375 27.296875 
Q 14.984375 17.28125 19.8125 11.734375 
Q 24.65625 6.203125 33.40625 6.203125 
Q 37.3125 6.203125 41.140625 7.25 
Q 44.96875 8.296875 48.78125 10.40625 
L 48.78125 2.09375 
Q 45.015625 0.34375 40.984375 -0.53125 
Q 36.96875 -1.421875 32.421875 -1.421875 
Q 20.0625 -1.421875 12.78125 6.34375 
Q 5.515625 14.109375 5.515625 27.296875 
Q 5.515625 40.671875 12.859375 48.328125 
Q 20.21875 56 33.015625 56 
Q 37.15625 56 41.109375 55.140625 
Q 45.0625 54.296875 48.78125 52.59375 
z
" id="DejaVuSans-99"/>
     <path d="M 54.890625 33.015625 
L 54.890625 0 
L 45.90625 0 
L 45.90625 32.71875 
Q 45.90625 40.484375 42.875 44.328125 
Q 39.84375 48.1875 33.796875 48.1875 
Q 26.515625 48.1875 22.3125 43.546875 
Q 18.109375 38.921875 18.109375 30.90625 
L 18.109375 0 
L 9.078125 0 
L 9.078125 75.984375 
L 18.109375 75.984375 
L 18.109375 46.1875 
Q 21.34375 51.125 25.703125 53.5625 
Q 30.078125 56 35.796875 56 
Q 45.21875 56 50.046875 50.171875 
Q 54.890625 44.34375 54.890625 33.015625 
z
" id="DejaVuSans-104"/>
     <path d="M 9.421875 54.6875 
L 18.40625 54.6875 
L 18.40625 0 
L 9.421875 0 
z
M 9.421875 75.984375 
L 18.40625 75.984375 
L 18.40625 64.59375 
L 9.421875 64.59375 
z
" id="DejaVuSans-105"/>
     <path d="M 34.28125 27.484375 
Q 23.390625 27.484375 19.1875 25 
Q 14.984375 22.515625 14.984375 16.5 
Q 14.984375 11.71875 18.140625 8.90625 
Q 21.296875 6.109375 26.703125 6.109375 
Q 34.1875 6.109375 38.703125 11.40625 
Q 43.21875 16.703125 43.21875 25.484375 
L 43.21875 27.484375 
z
M 52.203125 31.203125 
L 52.203125 0 
L 43.21875 0 
L 43.21875 8.296875 
Q 40.140625 3.328125 35.546875 0.953125 
Q 30.953125 -1.421875 24.3125 -1.421875 
Q 15.921875 -1.421875 10.953125 3.296875 
Q 6 8.015625 6 15.921875 
Q 6 25.140625 12.171875 29.828125 
Q 18.359375 34.515625 30.609375 34.515625 
L 43.21875 34.515625 
L 43.21875 35.40625 
Q 43.21875 41.609375 39.140625 45 
Q 35.0625 48.390625 27.6875 48.390625 
Q 23 48.390625 18.546875 47.265625 
Q 14.109375 46.140625 10.015625 43.890625 
L 10.015625 52.203125 
Q 14.9375 54.109375 19.578125 55.046875 
Q 24.21875 56 28.609375 56 
Q 40.484375 56 46.34375 49.84375 
Q 52.203125 43.703125 52.203125 31.203125 
z
" id="DejaVuSans-97"/>
     <path id="DejaVuSans-32"/>
     <path d="M 64.40625 67.28125 
L 64.40625 56.890625 
Q 59.421875 61.53125 53.78125 63.8125 
Q 48.140625 66.109375 41.796875 66.109375 
Q 29.296875 66.109375 22.65625 58.46875 
Q 16.015625 50.828125 16.015625 36.375 
Q 16.015625 21.96875 22.65625 14.328125 
Q 29.296875 6.6875 41.796875 6.6875 
Q 48.140625 6.6875 53.78125 8.984375 
Q 59.421875 11.28125 64.40625 15.921875 
L 64.40625 5.609375 
Q 59.234375 2.09375 53.4375 0.328125 
Q 47.65625 -1.421875 41.21875 -1.421875 
Q 24.65625 -1.421875 15.125 8.703125 
Q 5.609375 18.84375 5.609375 36.375 
Q 5.609375 53.953125 15.125 64.078125 
Q 24.65625 74.21875 41.21875 74.21875 
Q 47.75 74.21875 53.53125 72.484375 
Q 59.328125 70.75 64.40625 67.28125 
z
" id="DejaVuSans-67"/>
     <path d="M 9.421875 75.984375 
L 18.40625 75.984375 
L 18.40625 0 
L 9.421875 0 
z
" id="DejaVuSans-108"/>
     <path d="M 31 75.875 
Q 24.46875 64.65625 21.28125 53.65625 
Q 18.109375 42.671875 18.109375 31.390625 
Q 18.109375 20.125 21.3125 9.0625 
Q 24.515625 -2 31 -13.1875 
L 23.1875 -13.1875 
Q 15.875 -1.703125 12.234375 9.375 
Q 8.59375 20.453125 8.59375 31.390625 
Q 8.59375 42.28125 12.203125 53.3125 
Q 15.828125 64.359375 23.1875 75.875 
z
" id="DejaVuSans-40"/>
     <path d="M 8.015625 75.875 
L 15.828125 75.875 
Q 23.140625 64.359375 26.78125 53.3125 
Q 30.421875 42.28125 30.421875 31.390625 
Q 30.421875 20.453125 26.78125 9.375 
Q 23.140625 -1.703125 15.828125 -13.1875 
L 8.015625 -13.1875 
Q 14.5 -2 17.703125 9.0625 
Q 20.90625 20.125 20.90625 31.390625 
Q 20.90625 42.671875 17.703125 53.65625 
Q 14.5 64.65625 8.015625 75.875 
z
" id="DejaVuSans-41"/>
     <path d="M 53.515625 70.515625 
L 53.515625 60.890625 
Q 47.90625 63.578125 42.921875 64.890625 
Q 37.9375 66.21875 33.296875 66.21875 
Q 25.25 66.21875 20.875 63.09375 
Q 16.5 59.96875 16.5 54.203125 
Q 16.5 49.359375 19.40625 46.890625 
Q 22.3125 44.4375 30.421875 42.921875 
L 36.375 41.703125 
Q 47.40625 39.59375 52.65625 34.296875 
Q 57.90625 29 57.90625 20.125 
Q 57.90625 9.515625 50.796875 4.046875 
Q 43.703125 -1.421875 29.984375 -1.421875 
Q 24.8125 -1.421875 18.96875 -0.25 
Q 13.140625 0.921875 6.890625 3.21875 
L 6.890625 13.375 
Q 12.890625 10.015625 18.65625 8.296875 
Q 24.421875 6.59375 29.984375 6.59375 
Q 38.421875 6.59375 43.015625 9.90625 
Q 47.609375 13.234375 47.609375 19.390625 
Q 47.609375 24.75 44.3125 27.78125 
Q 41.015625 30.8125 33.5 32.328125 
L 27.484375 33.5 
Q 16.453125 35.6875 11.515625 40.375 
Q 6.59375 45.0625 6.59375 53.421875 
Q 6.59375 63.09375 13.40625 68.65625 
Q 20.21875 74.21875 32.171875 74.21875 
Q 37.3125 74.21875 42.625 73.28125 
Q 47.953125 72.359375 53.515625 70.515625 
z
" id="DejaVuSans-83"/>
    </defs>
    <g transform="translate(639.390938 80.4)scale(0.12 -0.12)">
     <use xlink:href="#DejaVuSans-68"/>
     <use x="77.001953" xlink:href="#DejaVuSans-111"/>
     <use x="138.183594" xlink:href="#DejaVuSans-110"/>
     <use x="201.5625" xlink:href="#DejaVuSans-99"/>
     <use x="256.542969" xlink:href="#DejaVuSans-104"/>
     <use x="319.921875" xlink:href="#DejaVuSans-105"/>
     <use x="347.705078" xlink:href="#DejaVuSans-97"/>
     <use x="408.984375" xlink:href="#DejaVuSans-110"/>
     <use x="472.363281" xlink:href="#DejaVuSans-32"/>
     <use x="504.150391" xlink:href="#DejaVuSans-67"/>
     <use x="573.974609" xlink:href="#DejaVuSans-104"/>
     <use x="637.353516" xlink:href="#DejaVuSans-97"/>
     <use x="698.632812" xlink:href="#DejaVuSans-110"/>
     <use x="762.011719" xlink:href="#DejaVuSans-110"/>
     <use x="825.390625" xlink:href="#DejaVuSans-101"/>
     <use x="886.914062" xlink:href="#DejaVuSans-108"/>
     <use x="914.697266" xlink:href="#DejaVuSans-32"/>
     <use x="946.484375" xlink:href="#DejaVuSans-40"/>
     <use x="985.498047" xlink:href="#DejaVuSans-68"/>
     <use x="1062.5" xlink:href="#DejaVuSans-67"/>
     <use x="1132.324219" xlink:href="#DejaVuSans-41"/>
     <use x="1171.337891" xlink:href="#DejaVuSans-32"/>
     <use x="1203.125" xlink:href="#DejaVuSans-83"/>
     <use x="1266.601562" xlink:href="#DejaVuSans-112"/>
     <use x="1330.078125" xlink:href="#DejaVuSans-101"/>
     <use x="1391.601562" xlink:href="#DejaVuSans-101"/>
     <use x="1453.125" xlink:href="#DejaVuSans-100"/>
     <use x="1516.601562" xlink:href="#DejaVuSans-117"/>
     <use x="1579.980469" xlink:href="#DejaVuSans-112"/>
    </g>
   </g>
   <g id="legend_1">
    <g id="patch_7">
     <path d="M 1185.373437 123.75625 
L 1289 123.75625 
Q 1291 123.75625 1291 121.75625 
L 1291 93.4 
Q 1291 91.4 1289 91.4 
L 1185.373437 91.4 
Q 1183.373437 91.4 1183.373437 93.4 
L 1183.373437 121.75625 
Q 1183.373437 123.75625 1185.373437 123.75625 
z
" style="fill:#ffffff;opacity:0.8;stroke:#cccccc;stroke-linejoin:miter;"/>
    </g>
    <g id="line2d_22">
     <path d="M 1187.373437 99.498437 
L 1207.373437 99.498437 
" style="fill:none;stroke:#1f77b4;stroke-linecap:square;stroke-width:1.5;"/>
    </g>
    <g id="line2d_23"/>
    <g id="text_23">
     <!-- numpy.float32 -->
     <defs>
      <path d="M 52 44.1875 
Q 55.375 50.25 60.0625 53.125 
Q 64.75 56 71.09375 56 
Q 79.640625 56 84.28125 50.015625 
Q 88.921875 44.046875 88.921875 33.015625 
L 88.921875 0 
L 79.890625 0 
L 79.890625 32.71875 
Q 79.890625 40.578125 77.09375 44.375 
Q 74.3125 48.1875 68.609375 48.1875 
Q 61.625 48.1875 57.5625 43.546875 
Q 53.515625 38.921875 53.515625 30.90625 
L 53.515625 0 
L 44.484375 0 
L 44.484375 32.71875 
Q 44.484375 40.625 41.703125 44.40625 
Q 38.921875 48.1875 33.109375 48.1875 
Q 26.21875 48.1875 22.15625 43.53125 
Q 18.109375 38.875 18.109375 30.90625 
L 18.109375 0 
L 9.078125 0 
L 9.078125 54.6875 
L 18.109375 54.6875 
L 18.109375 46.1875 
Q 21.1875 51.21875 25.484375 53.609375 
Q 29.78125 56 35.6875 56 
Q 41.65625 56 45.828125 52.96875 
Q 50 49.953125 52 44.1875 
z
" id="DejaVuSans-109"/>
      <path d="M 32.171875 -5.078125 
Q 28.375 -14.84375 24.75 -17.8125 
Q 21.140625 -20.796875 15.09375 -20.796875 
L 7.90625 -20.796875 
L 7.90625 -13.28125 
L 13.1875 -13.28125 
Q 16.890625 -13.28125 18.9375 -11.515625 
Q 21 -9.765625 23.484375 -3.21875 
L 25.09375 0.875 
L 2.984375 54.6875 
L 12.5 54.6875 
L 29.59375 11.921875 
L 46.6875 54.6875 
L 56.203125 54.6875 
z
" id="DejaVuSans-121"/>
      <path d="M 37.109375 75.984375 
L 37.109375 68.5 
L 28.515625 68.5 
Q 23.6875 68.5 21.796875 66.546875 
Q 19.921875 64.59375 19.921875 59.515625 
L 19.921875 54.6875 
L 34.71875 54.6875 
L 34.71875 47.703125 
L 19.921875 47.703125 
L 19.921875 0 
L 10.890625 0 
L 10.890625 47.703125 
L 2.296875 47.703125 
L 2.296875 54.6875 
L 10.890625 54.6875 
L 10.890625 58.5 
Q 10.890625 67.625 15.140625 71.796875 
Q 19.390625 75.984375 28.609375 75.984375 
z
" id="DejaVuSans-102"/>
      <path d="M 18.3125 70.21875 
L 18.3125 54.6875 
L 36.8125 54.6875 
L 36.8125 47.703125 
L 18.3125 47.703125 
L 18.3125 18.015625 
Q 18.3125 11.328125 20.140625 9.421875 
Q 21.96875 7.515625 27.59375 7.515625 
L 36.8125 7.515625 
L 36.8125 0 
L 27.59375 0 
Q 17.1875 0 13.234375 3.875 
Q 9.28125 7.765625 9.28125 18.015625 
L 9.28125 47.703125 
L 2.6875 47.703125 
L 2.6875 54.6875 
L 9.28125 54.6875 
L 9.28125 70.21875 
z
" id="DejaVuSans-116"/>
     </defs>
     <g transform="translate(1215.373437 102.998437)scale(0.1 -0.1)">
      <use xlink:href="#DejaVuSans-110"/>
      <use x="63.378906" xlink:href="#DejaVuSans-117"/>
      <use x="126.757812" xlink:href="#DejaVuSans-109"/>
      <use x="224.169922" xlink:href="#DejaVuSans-112"/>
      <use x="287.646484" xlink:href="#DejaVuSans-121"/>
      <use x="332.576172" xlink:href="#DejaVuSans-46"/>
      <use x="364.363281" xlink:href="#DejaVuSans-102"/>
      <use x="399.568359" xlink:href="#DejaVuSans-108"/>
      <use x="427.351562" xlink:href="#DejaVuSans-111"/>
      <use x="488.533203" xlink:href="#DejaVuSans-97"/>
      <use x="549.8125" xlink:href="#DejaVuSans-116"/>
      <use x="589.021484" xlink:href="#DejaVuSans-51"/>
      <use x="652.644531" xlink:href="#DejaVuSans-50"/>
     </g>
    </g>
    <g id="line2d_24">
     <path d="M 1187.373437 114.176562 
L 1207.373437 114.176562 
" style="fill:none;stroke:#ff7f0e;stroke-linecap:square;stroke-width:1.5;"/>
    </g>
    <g id="line2d_25"/>
    <g id="text_24">
     <!-- numpy.float64 -->
     <g transform="translate(1215.373437 117.676562)scale(0.1 -0.1)">
      <use xlink:href="#DejaVuSans-110"/>
      <use x="63.378906" xlink:href="#DejaVuSans-117"/>
      <use x="126.757812" xlink:href="#DejaVuSans-109"/>
      <use x="224.169922" xlink:href="#DejaVuSans-112"/>
      <use x="287.646484" xlink:href="#DejaVuSans-121"/>
      <use x="332.576172" xlink:href="#DejaVuSans-46"/>
      <use x="364.363281" xlink:href="#DejaVuSans-102"/>
      <use x="399.568359" xlink:href="#DejaVuSans-108"/>
      <use x="427.351562" xlink:href="#DejaVuSans-111"/>
      <use x="488.533203" xlink:href="#DejaVuSans-97"/>
      <use x="549.8125" xlink:href="#DejaVuSans-116"/>
      <use x="589.021484" xlink:href="#DejaVuSans-54"/>
      <use x="652.644531" xlink:href="#DejaVuSans-52"/>
     </g>
    </g>
   </g>
  </g>
 </g>
 <defs>
  <clipPath id="p3f2cb80088">
   <rect height="554.4" width="1116" x="180" y="86.4"/>
  </clipPath>
 </defs>
</svg>
