<?xml version="1.0" encoding="utf-8" standalone="no"?>
<!DOCTYPE svg PUBLIC "-//W3C//DTD SVG 1.1//EN"
  "http://www.w3.org/Graphics/SVG/1.1/DTD/svg11.dtd">
<!-- Created with matplotlib (https://matplotlib.org/) -->
<svg height="720pt" version="1.1" viewBox="0 0 1440 720" width="1440pt" xmlns="http://www.w3.org/2000/svg" xmlns:xlink="http://www.w3.org/1999/xlink">
 <defs>
  <style type="text/css">
*{stroke-linecap:butt;stroke-linejoin:round;}
  </style>
 </defs>
 <g id="figure_1">
  <g id="patch_1">
   <path d="M 0 720 
L 1440 720 
L 1440 0 
L 0 0 
z
" style="fill:#ffffff;"/>
  </g>
  <g id="axes_1">
   <g id="patch_2">
    <path d="M 180 640.8 
L 1296 640.8 
L 1296 86.4 
L 180 86.4 
z
" style="fill:#ffffff;"/>
   </g>
   <g id="matplotlib.axis_1">
    <g id="xtick_1">
     <g id="line2d_1">
      <defs>
       <path d="M 0 0 
L 0 3.5 
" id="mfed04299e3" style="stroke:#000000;stroke-width:0.8;"/>
      </defs>
      <g>
       <use style="stroke:#000000;stroke-width:0.8;" x="333.310231" xlink:href="#mfed04299e3" y="640.8"/>
      </g>
     </g>
     <g id="text_1">
      <!-- 100.0 -->
      <defs>
       <path d="M 12.40625 8.296875 
L 28.515625 8.296875 
L 28.515625 63.921875 
L 10.984375 60.40625 
L 10.984375 69.390625 
L 28.421875 72.90625 
L 38.28125 72.90625 
L 38.28125 8.296875 
L 54.390625 8.296875 
L 54.390625 0 
L 12.40625 0 
z
" id="DejaVuSans-49"/>
       <path d="M 31.78125 66.40625 
Q 24.171875 66.40625 20.328125 58.90625 
Q 16.5 51.421875 16.5 36.375 
Q 16.5 21.390625 20.328125 13.890625 
Q 24.171875 6.390625 31.78125 6.390625 
Q 39.453125 6.390625 43.28125 13.890625 
Q 47.125 21.390625 47.125 36.375 
Q 47.125 51.421875 43.28125 58.90625 
Q 39.453125 66.40625 31.78125 66.40625 
z
M 31.78125 74.21875 
Q 44.046875 74.21875 50.515625 64.515625 
Q 56.984375 54.828125 56.984375 36.375 
Q 56.984375 17.96875 50.515625 8.265625 
Q 44.046875 -1.421875 31.78125 -1.421875 
Q 19.53125 -1.421875 13.0625 8.265625 
Q 6.59375 17.96875 6.59375 36.375 
Q 6.59375 54.828125 13.0625 64.515625 
Q 19.53125 74.21875 31.78125 74.21875 
z
" id="DejaVuSans-48"/>
       <path d="M 10.6875 12.40625 
L 21 12.40625 
L 21 0 
L 10.6875 0 
z
" id="DejaVuSans-46"/>
      </defs>
      <g transform="translate(318.996168 655.398438)scale(0.1 -0.1)">
       <use xlink:href="#DejaVuSans-49"/>
       <use x="63.623047" xlink:href="#DejaVuSans-48"/>
       <use x="127.246094" xlink:href="#DejaVuSans-48"/>
       <use x="190.869141" xlink:href="#DejaVuSans-46"/>
       <use x="222.65625" xlink:href="#DejaVuSans-48"/>
      </g>
     </g>
    </g>
    <g id="xtick_2">
     <g id="line2d_2">
      <g>
       <use style="stroke:#000000;stroke-width:0.8;" x="435.893189" xlink:href="#mfed04299e3" y="640.8"/>
      </g>
     </g>
     <g id="text_2">
      <!-- 200.0 -->
      <defs>
       <path d="M 19.1875 8.296875 
L 53.609375 8.296875 
L 53.609375 0 
L 7.328125 0 
L 7.328125 8.296875 
Q 12.9375 14.109375 22.625 23.890625 
Q 32.328125 33.6875 34.8125 36.53125 
Q 39.546875 41.84375 41.421875 45.53125 
Q 43.3125 49.21875 43.3125 52.78125 
Q 43.3125 58.59375 39.234375 62.25 
Q 35.15625 65.921875 28.609375 65.921875 
Q 23.96875 65.921875 18.8125 64.3125 
Q 13.671875 62.703125 7.8125 59.421875 
L 7.8125 69.390625 
Q 13.765625 71.78125 18.9375 73 
Q 24.125 74.21875 28.421875 74.21875 
Q 39.75 74.21875 46.484375 68.546875 
Q 53.21875 62.890625 53.21875 53.421875 
Q 53.21875 48.921875 51.53125 44.890625 
Q 49.859375 40.875 45.40625 35.40625 
Q 44.1875 33.984375 37.640625 27.21875 
Q 31.109375 20.453125 19.1875 8.296875 
z
" id="DejaVuSans-50"/>
      </defs>
      <g transform="translate(421.579126 655.398438)scale(0.1 -0.1)">
       <use xlink:href="#DejaVuSans-50"/>
       <use x="63.623047" xlink:href="#DejaVuSans-48"/>
       <use x="127.246094" xlink:href="#DejaVuSans-48"/>
       <use x="190.869141" xlink:href="#DejaVuSans-46"/>
       <use x="222.65625" xlink:href="#DejaVuSans-48"/>
      </g>
     </g>
    </g>
    <g id="xtick_3">
     <g id="line2d_3">
      <g>
       <use style="stroke:#000000;stroke-width:0.8;" x="538.476147" xlink:href="#mfed04299e3" y="640.8"/>
      </g>
     </g>
     <g id="text_3">
      <!-- 300.0 -->
      <defs>
       <path d="M 40.578125 39.3125 
Q 47.65625 37.796875 51.625 33 
Q 55.609375 28.21875 55.609375 21.1875 
Q 55.609375 10.40625 48.1875 4.484375 
Q 40.765625 -1.421875 27.09375 -1.421875 
Q 22.515625 -1.421875 17.65625 -0.515625 
Q 12.796875 0.390625 7.625 2.203125 
L 7.625 11.71875 
Q 11.71875 9.328125 16.59375 8.109375 
Q 21.484375 6.890625 26.8125 6.890625 
Q 36.078125 6.890625 40.9375 10.546875 
Q 45.796875 14.203125 45.796875 21.1875 
Q 45.796875 27.640625 41.28125 31.265625 
Q 36.765625 34.90625 28.71875 34.90625 
L 20.21875 34.90625 
L 20.21875 43.015625 
L 29.109375 43.015625 
Q 36.375 43.015625 40.234375 45.921875 
Q 44.09375 48.828125 44.09375 54.296875 
Q 44.09375 59.90625 40.109375 62.90625 
Q 36.140625 65.921875 28.71875 65.921875 
Q 24.65625 65.921875 20.015625 65.03125 
Q 15.375 64.15625 9.8125 62.3125 
L 9.8125 71.09375 
Q 15.4375 72.65625 20.34375 73.4375 
Q 25.25 74.21875 29.59375 74.21875 
Q 40.828125 74.21875 47.359375 69.109375 
Q 53.90625 64.015625 53.90625 55.328125 
Q 53.90625 49.265625 50.4375 45.09375 
Q 46.96875 40.921875 40.578125 39.3125 
z
" id="DejaVuSans-51"/>
      </defs>
      <g transform="translate(524.162084 655.398438)scale(0.1 -0.1)">
       <use xlink:href="#DejaVuSans-51"/>
       <use x="63.623047" xlink:href="#DejaVuSans-48"/>
       <use x="127.246094" xlink:href="#DejaVuSans-48"/>
       <use x="190.869141" xlink:href="#DejaVuSans-46"/>
       <use x="222.65625" xlink:href="#DejaVuSans-48"/>
      </g>
     </g>
    </g>
    <g id="xtick_4">
     <g id="line2d_4">
      <g>
       <use style="stroke:#000000;stroke-width:0.8;" x="641.059105" xlink:href="#mfed04299e3" y="640.8"/>
      </g>
     </g>
     <g id="text_4">
      <!-- 400.0 -->
      <defs>
       <path d="M 37.796875 64.3125 
L 12.890625 25.390625 
L 37.796875 25.390625 
z
M 35.203125 72.90625 
L 47.609375 72.90625 
L 47.609375 25.390625 
L 58.015625 25.390625 
L 58.015625 17.1875 
L 47.609375 17.1875 
L 47.609375 0 
L 37.796875 0 
L 37.796875 17.1875 
L 4.890625 17.1875 
L 4.890625 26.703125 
z
" id="DejaVuSans-52"/>
      </defs>
      <g transform="translate(626.745042 655.398438)scale(0.1 -0.1)">
       <use xlink:href="#DejaVuSans-52"/>
       <use x="63.623047" xlink:href="#DejaVuSans-48"/>
       <use x="127.246094" xlink:href="#DejaVuSans-48"/>
       <use x="190.869141" xlink:href="#DejaVuSans-46"/>
       <use x="222.65625" xlink:href="#DejaVuSans-48"/>
      </g>
     </g>
    </g>
    <g id="xtick_5">
     <g id="line2d_5">
      <g>
       <use style="stroke:#000000;stroke-width:0.8;" x="743.642063" xlink:href="#mfed04299e3" y="640.8"/>
      </g>
     </g>
     <g id="text_5">
      <!-- 500.0 -->
      <defs>
       <path d="M 10.796875 72.90625 
L 49.515625 72.90625 
L 49.515625 64.59375 
L 19.828125 64.59375 
L 19.828125 46.734375 
Q 21.96875 47.46875 24.109375 47.828125 
Q 26.265625 48.1875 28.421875 48.1875 
Q 40.625 48.1875 47.75 41.5 
Q 54.890625 34.8125 54.890625 23.390625 
Q 54.890625 11.625 47.5625 5.09375 
Q 40.234375 -1.421875 26.90625 -1.421875 
Q 22.3125 -1.421875 17.546875 -0.640625 
Q 12.796875 0.140625 7.71875 1.703125 
L 7.71875 11.625 
Q 12.109375 9.234375 16.796875 8.0625 
Q 21.484375 6.890625 26.703125 6.890625 
Q 35.15625 6.890625 40.078125 11.328125 
Q 45.015625 15.765625 45.015625 23.390625 
Q 45.015625 31 40.078125 35.4375 
Q 35.15625 39.890625 26.703125 39.890625 
Q 22.75 39.890625 18.8125 39.015625 
Q 14.890625 38.140625 10.796875 36.28125 
z
" id="DejaVuSans-53"/>
      </defs>
      <g transform="translate(729.328 655.398438)scale(0.1 -0.1)">
       <use xlink:href="#DejaVuSans-53"/>
       <use x="63.623047" xlink:href="#DejaVuSans-48"/>
       <use x="127.246094" xlink:href="#DejaVuSans-48"/>
       <use x="190.869141" xlink:href="#DejaVuSans-46"/>
       <use x="222.65625" xlink:href="#DejaVuSans-48"/>
      </g>
     </g>
    </g>
    <g id="xtick_6">
     <g id="line2d_6">
      <g>
       <use style="stroke:#000000;stroke-width:0.8;" x="846.225021" xlink:href="#mfed04299e3" y="640.8"/>
      </g>
     </g>
     <g id="text_6">
      <!-- 600.0 -->
      <defs>
       <path d="M 33.015625 40.375 
Q 26.375 40.375 22.484375 35.828125 
Q 18.609375 31.296875 18.609375 23.390625 
Q 18.609375 15.53125 22.484375 10.953125 
Q 26.375 6.390625 33.015625 6.390625 
Q 39.65625 6.390625 43.53125 10.953125 
Q 47.40625 15.53125 47.40625 23.390625 
Q 47.40625 31.296875 43.53125 35.828125 
Q 39.65625 40.375 33.015625 40.375 
z
M 52.59375 71.296875 
L 52.59375 62.3125 
Q 48.875 64.0625 45.09375 64.984375 
Q 41.3125 65.921875 37.59375 65.921875 
Q 27.828125 65.921875 22.671875 59.328125 
Q 17.53125 52.734375 16.796875 39.40625 
Q 19.671875 43.65625 24.015625 45.921875 
Q 28.375 48.1875 33.59375 48.1875 
Q 44.578125 48.1875 50.953125 41.515625 
Q 57.328125 34.859375 57.328125 23.390625 
Q 57.328125 12.15625 50.6875 5.359375 
Q 44.046875 -1.421875 33.015625 -1.421875 
Q 20.359375 -1.421875 13.671875 8.265625 
Q 6.984375 17.96875 6.984375 36.375 
Q 6.984375 53.65625 15.1875 63.9375 
Q 23.390625 74.21875 37.203125 74.21875 
Q 40.921875 74.21875 44.703125 73.484375 
Q 48.484375 72.75 52.59375 71.296875 
z
" id="DejaVuSans-54"/>
      </defs>
      <g transform="translate(831.910958 655.398438)scale(0.1 -0.1)">
       <use xlink:href="#DejaVuSans-54"/>
       <use x="63.623047" xlink:href="#DejaVuSans-48"/>
       <use x="127.246094" xlink:href="#DejaVuSans-48"/>
       <use x="190.869141" xlink:href="#DejaVuSans-46"/>
       <use x="222.65625" xlink:href="#DejaVuSans-48"/>
      </g>
     </g>
    </g>
    <g id="xtick_7">
     <g id="line2d_7">
      <g>
       <use style="stroke:#000000;stroke-width:0.8;" x="948.807979" xlink:href="#mfed04299e3" y="640.8"/>
      </g>
     </g>
     <g id="text_7">
      <!-- 700.0 -->
      <defs>
       <path d="M 8.203125 72.90625 
L 55.078125 72.90625 
L 55.078125 68.703125 
L 28.609375 0 
L 18.3125 0 
L 43.21875 64.59375 
L 8.203125 64.59375 
z
" id="DejaVuSans-55"/>
      </defs>
      <g transform="translate(934.493916 655.398438)scale(0.1 -0.1)">
       <use xlink:href="#DejaVuSans-55"/>
       <use x="63.623047" xlink:href="#DejaVuSans-48"/>
       <use x="127.246094" xlink:href="#DejaVuSans-48"/>
       <use x="190.869141" xlink:href="#DejaVuSans-46"/>
       <use x="222.65625" xlink:href="#DejaVuSans-48"/>
      </g>
     </g>
    </g>
    <g id="xtick_8">
     <g id="line2d_8">
      <g>
       <use style="stroke:#000000;stroke-width:0.8;" x="1051.390937" xlink:href="#mfed04299e3" y="640.8"/>
      </g>
     </g>
     <g id="text_8">
      <!-- 800.0 -->
      <defs>
       <path d="M 31.78125 34.625 
Q 24.75 34.625 20.71875 30.859375 
Q 16.703125 27.09375 16.703125 20.515625 
Q 16.703125 13.921875 20.71875 10.15625 
Q 24.75 6.390625 31.78125 6.390625 
Q 38.8125 6.390625 42.859375 10.171875 
Q 46.921875 13.96875 46.921875 20.515625 
Q 46.921875 27.09375 42.890625 30.859375 
Q 38.875 34.625 31.78125 34.625 
z
M 21.921875 38.8125 
Q 15.578125 40.375 12.03125 44.71875 
Q 8.5 49.078125 8.5 55.328125 
Q 8.5 64.0625 14.71875 69.140625 
Q 20.953125 74.21875 31.78125 74.21875 
Q 42.671875 74.21875 48.875 69.140625 
Q 55.078125 64.0625 55.078125 55.328125 
Q 55.078125 49.078125 51.53125 44.71875 
Q 48 40.375 41.703125 38.8125 
Q 48.828125 37.15625 52.796875 32.3125 
Q 56.78125 27.484375 56.78125 20.515625 
Q 56.78125 9.90625 50.3125 4.234375 
Q 43.84375 -1.421875 31.78125 -1.421875 
Q 19.734375 -1.421875 13.25 4.234375 
Q 6.78125 9.90625 6.78125 20.515625 
Q 6.78125 27.484375 10.78125 32.3125 
Q 14.796875 37.15625 21.921875 38.8125 
z
M 18.3125 54.390625 
Q 18.3125 48.734375 21.84375 45.5625 
Q 25.390625 42.390625 31.78125 42.390625 
Q 38.140625 42.390625 41.71875 45.5625 
Q 45.3125 48.734375 45.3125 54.390625 
Q 45.3125 60.0625 41.71875 63.234375 
Q 38.140625 66.40625 31.78125 66.40625 
Q 25.390625 66.40625 21.84375 63.234375 
Q 18.3125 60.0625 18.3125 54.390625 
z
" id="DejaVuSans-56"/>
      </defs>
      <g transform="translate(1037.076874 655.398438)scale(0.1 -0.1)">
       <use xlink:href="#DejaVuSans-56"/>
       <use x="63.623047" xlink:href="#DejaVuSans-48"/>
       <use x="127.246094" xlink:href="#DejaVuSans-48"/>
       <use x="190.869141" xlink:href="#DejaVuSans-46"/>
       <use x="222.65625" xlink:href="#DejaVuSans-48"/>
      </g>
     </g>
    </g>
    <g id="xtick_9">
     <g id="line2d_9">
      <g>
       <use style="stroke:#000000;stroke-width:0.8;" x="1153.973895" xlink:href="#mfed04299e3" y="640.8"/>
      </g>
     </g>
     <g id="text_9">
      <!-- 900.0 -->
      <defs>
       <path d="M 10.984375 1.515625 
L 10.984375 10.5 
Q 14.703125 8.734375 18.5 7.8125 
Q 22.3125 6.890625 25.984375 6.890625 
Q 35.75 6.890625 40.890625 13.453125 
Q 46.046875 20.015625 46.78125 33.40625 
Q 43.953125 29.203125 39.59375 26.953125 
Q 35.25 24.703125 29.984375 24.703125 
Q 19.046875 24.703125 12.671875 31.3125 
Q 6.296875 37.9375 6.296875 49.421875 
Q 6.296875 60.640625 12.9375 67.421875 
Q 19.578125 74.21875 30.609375 74.21875 
Q 43.265625 74.21875 49.921875 64.515625 
Q 56.59375 54.828125 56.59375 36.375 
Q 56.59375 19.140625 48.40625 8.859375 
Q 40.234375 -1.421875 26.421875 -1.421875 
Q 22.703125 -1.421875 18.890625 -0.6875 
Q 15.09375 0.046875 10.984375 1.515625 
z
M 30.609375 32.421875 
Q 37.25 32.421875 41.125 36.953125 
Q 45.015625 41.5 45.015625 49.421875 
Q 45.015625 57.28125 41.125 61.84375 
Q 37.25 66.40625 30.609375 66.40625 
Q 23.96875 66.40625 20.09375 61.84375 
Q 16.21875 57.28125 16.21875 49.421875 
Q 16.21875 41.5 20.09375 36.953125 
Q 23.96875 32.421875 30.609375 32.421875 
z
" id="DejaVuSans-57"/>
      </defs>
      <g transform="translate(1139.659832 655.398438)scale(0.1 -0.1)">
       <use xlink:href="#DejaVuSans-57"/>
       <use x="63.623047" xlink:href="#DejaVuSans-48"/>
       <use x="127.246094" xlink:href="#DejaVuSans-48"/>
       <use x="190.869141" xlink:href="#DejaVuSans-46"/>
       <use x="222.65625" xlink:href="#DejaVuSans-48"/>
      </g>
     </g>
    </g>
    <g id="xtick_10">
     <g id="line2d_10">
      <g>
       <use style="stroke:#000000;stroke-width:0.8;" x="1256.556853" xlink:href="#mfed04299e3" y="640.8"/>
      </g>
     </g>
     <g id="text_10">
      <!-- 1000.0 -->
      <g transform="translate(1239.06154 655.398438)scale(0.1 -0.1)">
       <use xlink:href="#DejaVuSans-49"/>
       <use x="63.623047" xlink:href="#DejaVuSans-48"/>
       <use x="127.246094" xlink:href="#DejaVuSans-48"/>
       <use x="190.869141" xlink:href="#DejaVuSans-48"/>
       <use x="254.492188" xlink:href="#DejaVuSans-46"/>
       <use x="286.279297" xlink:href="#DejaVuSans-48"/>
      </g>
     </g>
    </g>
    <g id="text_11">
     <!-- n -->
     <defs>
      <path d="M 54.890625 33.015625 
L 54.890625 0 
L 45.90625 0 
L 45.90625 32.71875 
Q 45.90625 40.484375 42.875 44.328125 
Q 39.84375 48.1875 33.796875 48.1875 
Q 26.515625 48.1875 22.3125 43.546875 
Q 18.109375 38.921875 18.109375 30.90625 
L 18.109375 0 
L 9.078125 0 
L 9.078125 54.6875 
L 18.109375 54.6875 
L 18.109375 46.1875 
Q 21.34375 51.125 25.703125 53.5625 
Q 30.078125 56 35.796875 56 
Q 45.21875 56 50.046875 50.171875 
Q 54.890625 44.34375 54.890625 33.015625 
z
" id="DejaVuSans-110"/>
     </defs>
     <g transform="translate(734.83125 669.076563)scale(0.1 -0.1)">
      <use xlink:href="#DejaVuSans-110"/>
     </g>
    </g>
   </g>
   <g id="matplotlib.axis_2">
    <g id="ytick_1">
     <g id="line2d_11">
      <defs>
       <path d="M 0 0 
L -3.5 0 
" id="mf3f4c267a3" style="stroke:#000000;stroke-width:0.8;"/>
      </defs>
      <g>
       <use style="stroke:#000000;stroke-width:0.8;" x="180" xlink:href="#mf3f4c267a3" y="563.441066"/>
      </g>
     </g>
     <g id="text_12">
      <!-- 50 -->
      <g transform="translate(160.275 567.240285)scale(0.1 -0.1)">
       <use xlink:href="#DejaVuSans-53"/>
       <use x="63.623047" xlink:href="#DejaVuSans-48"/>
      </g>
     </g>
    </g>
    <g id="ytick_2">
     <g id="line2d_12">
      <g>
       <use style="stroke:#000000;stroke-width:0.8;" x="180" xlink:href="#mf3f4c267a3" y="483.62532"/>
      </g>
     </g>
     <g id="text_13">
      <!-- 100 -->
      <g transform="translate(153.9125 487.424539)scale(0.1 -0.1)">
       <use xlink:href="#DejaVuSans-49"/>
       <use x="63.623047" xlink:href="#DejaVuSans-48"/>
       <use x="127.246094" xlink:href="#DejaVuSans-48"/>
      </g>
     </g>
    </g>
    <g id="ytick_3">
     <g id="line2d_13">
      <g>
       <use style="stroke:#000000;stroke-width:0.8;" x="180" xlink:href="#mf3f4c267a3" y="403.809574"/>
      </g>
     </g>
     <g id="text_14">
      <!-- 150 -->
      <g transform="translate(153.9125 407.608793)scale(0.1 -0.1)">
       <use xlink:href="#DejaVuSans-49"/>
       <use x="63.623047" xlink:href="#DejaVuSans-53"/>
       <use x="127.246094" xlink:href="#DejaVuSans-48"/>
      </g>
     </g>
    </g>
    <g id="ytick_4">
     <g id="line2d_14">
      <g>
       <use style="stroke:#000000;stroke-width:0.8;" x="180" xlink:href="#mf3f4c267a3" y="323.993828"/>
      </g>
     </g>
     <g id="text_15">
      <!-- 200 -->
      <g transform="translate(153.9125 327.793047)scale(0.1 -0.1)">
       <use xlink:href="#DejaVuSans-50"/>
       <use x="63.623047" xlink:href="#DejaVuSans-48"/>
       <use x="127.246094" xlink:href="#DejaVuSans-48"/>
      </g>
     </g>
    </g>
    <g id="ytick_5">
     <g id="line2d_15">
      <g>
       <use style="stroke:#000000;stroke-width:0.8;" x="180" xlink:href="#mf3f4c267a3" y="244.178082"/>
      </g>
     </g>
     <g id="text_16">
      <!-- 250 -->
      <g transform="translate(153.9125 247.977301)scale(0.1 -0.1)">
       <use xlink:href="#DejaVuSans-50"/>
       <use x="63.623047" xlink:href="#DejaVuSans-53"/>
       <use x="127.246094" xlink:href="#DejaVuSans-48"/>
      </g>
     </g>
    </g>
    <g id="ytick_6">
     <g id="line2d_16">
      <g>
       <use style="stroke:#000000;stroke-width:0.8;" x="180" xlink:href="#mf3f4c267a3" y="164.362336"/>
      </g>
     </g>
     <g id="text_17">
      <!-- 300 -->
      <g transform="translate(153.9125 168.161555)scale(0.1 -0.1)">
       <use xlink:href="#DejaVuSans-51"/>
       <use x="63.623047" xlink:href="#DejaVuSans-48"/>
       <use x="127.246094" xlink:href="#DejaVuSans-48"/>
      </g>
     </g>
    </g>
    <g id="text_18">
     <!-- speedup -->
     <defs>
      <path d="M 44.28125 53.078125 
L 44.28125 44.578125 
Q 40.484375 46.53125 36.375 47.5 
Q 32.28125 48.484375 27.875 48.484375 
Q 21.1875 48.484375 17.84375 46.4375 
Q 14.5 44.390625 14.5 40.28125 
Q 14.5 37.15625 16.890625 35.375 
Q 19.28125 33.59375 26.515625 31.984375 
L 29.59375 31.296875 
Q 39.15625 29.25 43.1875 25.515625 
Q 47.21875 21.78125 47.21875 15.09375 
Q 47.21875 7.46875 41.1875 3.015625 
Q 35.15625 -1.421875 24.609375 -1.421875 
Q 20.21875 -1.421875 15.453125 -0.5625 
Q 10.6875 0.296875 5.421875 2 
L 5.421875 11.28125 
Q 10.40625 8.6875 15.234375 7.390625 
Q 20.0625 6.109375 24.8125 6.109375 
Q 31.15625 6.109375 34.5625 8.28125 
Q 37.984375 10.453125 37.984375 14.40625 
Q 37.984375 18.0625 35.515625 20.015625 
Q 33.0625 21.96875 24.703125 23.78125 
L 21.578125 24.515625 
Q 13.234375 26.265625 9.515625 29.90625 
Q 5.8125 33.546875 5.8125 39.890625 
Q 5.8125 47.609375 11.28125 51.796875 
Q 16.75 56 26.8125 56 
Q 31.78125 56 36.171875 55.265625 
Q 40.578125 54.546875 44.28125 53.078125 
z
" id="DejaVuSans-115"/>
      <path d="M 18.109375 8.203125 
L 18.109375 -20.796875 
L 9.078125 -20.796875 
L 9.078125 54.6875 
L 18.109375 54.6875 
L 18.109375 46.390625 
Q 20.953125 51.265625 25.265625 53.625 
Q 29.59375 56 35.59375 56 
Q 45.5625 56 51.78125 48.09375 
Q 58.015625 40.1875 58.015625 27.296875 
Q 58.015625 14.40625 51.78125 6.484375 
Q 45.5625 -1.421875 35.59375 -1.421875 
Q 29.59375 -1.421875 25.265625 0.953125 
Q 20.953125 3.328125 18.109375 8.203125 
z
M 48.6875 27.296875 
Q 48.6875 37.203125 44.609375 42.84375 
Q 40.53125 48.484375 33.40625 48.484375 
Q 26.265625 48.484375 22.1875 42.84375 
Q 18.109375 37.203125 18.109375 27.296875 
Q 18.109375 17.390625 22.1875 11.75 
Q 26.265625 6.109375 33.40625 6.109375 
Q 40.53125 6.109375 44.609375 11.75 
Q 48.6875 17.390625 48.6875 27.296875 
z
" id="DejaVuSans-112"/>
      <path d="M 56.203125 29.59375 
L 56.203125 25.203125 
L 14.890625 25.203125 
Q 15.484375 15.921875 20.484375 11.0625 
Q 25.484375 6.203125 34.421875 6.203125 
Q 39.59375 6.203125 44.453125 7.46875 
Q 49.3125 8.734375 54.109375 11.28125 
L 54.109375 2.78125 
Q 49.265625 0.734375 44.1875 -0.34375 
Q 39.109375 -1.421875 33.890625 -1.421875 
Q 20.796875 -1.421875 13.15625 6.1875 
Q 5.515625 13.8125 5.515625 26.8125 
Q 5.515625 40.234375 12.765625 48.109375 
Q 20.015625 56 32.328125 56 
Q 43.359375 56 49.78125 48.890625 
Q 56.203125 41.796875 56.203125 29.59375 
z
M 47.21875 32.234375 
Q 47.125 39.59375 43.09375 43.984375 
Q 39.0625 48.390625 32.421875 48.390625 
Q 24.90625 48.390625 20.390625 44.140625 
Q 15.875 39.890625 15.1875 32.171875 
z
" id="DejaVuSans-101"/>
      <path d="M 45.40625 46.390625 
L 45.40625 75.984375 
L 54.390625 75.984375 
L 54.390625 0 
L 45.40625 0 
L 45.40625 8.203125 
Q 42.578125 3.328125 38.25 0.953125 
Q 33.9375 -1.421875 27.875 -1.421875 
Q 17.96875 -1.421875 11.734375 6.484375 
Q 5.515625 14.40625 5.515625 27.296875 
Q 5.515625 40.1875 11.734375 48.09375 
Q 17.96875 56 27.875 56 
Q 33.9375 56 38.25 53.625 
Q 42.578125 51.265625 45.40625 46.390625 
z
M 14.796875 27.296875 
Q 14.796875 17.390625 18.875 11.75 
Q 22.953125 6.109375 30.078125 6.109375 
Q 37.203125 6.109375 41.296875 11.75 
Q 45.40625 17.390625 45.40625 27.296875 
Q 45.40625 37.203125 41.296875 42.84375 
Q 37.203125 48.484375 30.078125 48.484375 
Q 22.953125 48.484375 18.875 42.84375 
Q 14.796875 37.203125 14.796875 27.296875 
z
" id="DejaVuSans-100"/>
      <path d="M 8.5 21.578125 
L 8.5 54.6875 
L 17.484375 54.6875 
L 17.484375 21.921875 
Q 17.484375 14.15625 20.5 10.265625 
Q 23.53125 6.390625 29.59375 6.390625 
Q 36.859375 6.390625 41.078125 11.03125 
Q 45.3125 15.671875 45.3125 23.6875 
L 45.3125 54.6875 
L 54.296875 54.6875 
L 54.296875 0 
L 45.3125 0 
L 45.3125 8.40625 
Q 42.046875 3.421875 37.71875 1 
Q 33.40625 -1.421875 27.6875 -1.421875 
Q 18.265625 -1.421875 13.375 4.4375 
Q 8.5 10.296875 8.5 21.578125 
z
M 31.109375 56 
z
" id="DejaVuSans-117"/>
     </defs>
     <g transform="translate(147.832812 385.049219)rotate(-90)scale(0.1 -0.1)">
      <use xlink:href="#DejaVuSans-115"/>
      <use x="52.099609" xlink:href="#DejaVuSans-112"/>
      <use x="115.576172" xlink:href="#DejaVuSans-101"/>
      <use x="177.099609" xlink:href="#DejaVuSans-101"/>
      <use x="238.623047" xlink:href="#DejaVuSans-100"/>
      <use x="302.099609" xlink:href="#DejaVuSans-117"/>
      <use x="365.478516" xlink:href="#DejaVuSans-112"/>
     </g>
    </g>
   </g>
   <g id="line2d_17">
    <path clip-path="url(#pdadedd736b)" d="M 230.727273 223.083871 
L 231.753102 327.564871 
L 232.778932 111.6 
L 233.804761 433.222546 
L 234.830591 181.477261 
L 235.856421 337.363292 
L 236.88225 322.018182 
L 237.90808 170.420749 
L 238.933909 387.844498 
L 239.959739 166.97721 
L 240.985569 170.088941 
L 242.011398 350.587843 
L 243.037228 128.719032 
L 244.063057 184.976623 
L 245.088887 173.216004 
L 246.114716 169.695221 
L 247.140546 207.780214 
L 248.166376 218.655421 
L 249.192205 167.389829 
L 250.218035 210.691091 
L 251.243864 220.16429 
L 252.269694 220.386699 
L 253.295523 260.315884 
L 254.321353 371.753968 
L 255.347183 187.648774 
L 256.373012 231.818473 
L 257.398842 159.313882 
L 258.424671 213.370272 
L 259.450501 356.579233 
L 260.476331 244.339566 
L 261.50216 194.246298 
L 262.52799 235.288379 
L 263.553819 306.044839 
L 264.579649 276.036971 
L 265.605478 239.048387 
L 266.631308 258.091557 
L 267.657138 279.333505 
L 268.682967 319.727859 
L 269.708797 378.382033 
L 270.734626 268.42399 
L 271.760456 285.878521 
L 272.786286 335.24701 
L 273.812115 252.303198 
L 274.837945 189.931771 
L 275.863774 264.669268 
L 276.889604 259.616921 
L 277.915433 330.867515 
L 278.941263 309.892008 
L 279.967093 261.409039 
L 280.992922 296.953541 
L 282.018752 286.475999 
L 283.044581 396.3261 
L 284.070411 305.437836 
L 285.09624 330.998723 
L 286.12207 290.478062 
L 287.1479 411.873138 
L 288.173729 285.806943 
L 289.199559 327.93589 
L 290.225388 377.492253 
L 291.251218 346.46726 
L 292.277048 288.63126 
L 293.302877 330.045475 
L 294.328707 310.915813 
L 295.354536 361.51277 
L 296.380366 322.016306 
L 297.406195 330.206577 
L 298.432025 348.972327 
L 299.457855 411.1375 
L 300.483684 285.005734 
L 302.535343 385.572323 
L 303.561173 359.686168 
L 304.587002 269.449416 
L 305.612832 306.104932 
L 306.638662 303.997421 
L 307.664491 298.115703 
L 308.690321 315.366612 
L 309.71615 361.12147 
L 310.74198 325.600217 
L 311.76781 440.324478 
L 312.793639 360.754556 
L 313.819469 330.903031 
L 314.845298 332.71376 
L 316.896957 305.257007 
L 317.922787 347.600573 
L 318.948617 310.298042 
L 319.974446 322.205219 
L 321.000276 342.902792 
L 322.026105 338.348417 
L 323.051935 318.365614 
L 324.077765 354.390895 
L 325.103594 346.690773 
L 326.129424 322.019831 
L 327.155253 353.48892 
L 328.181083 369.937553 
L 329.206912 368.122908 
L 330.232742 351.103373 
L 331.258572 434.527455 
L 332.284401 427.379675 
L 333.310231 441.667104 
L 334.33606 357.640874 
L 335.36189 415.020316 
L 336.387719 320.953951 
L 337.413549 411.656271 
L 338.439379 373.752245 
L 339.465208 365.352168 
L 340.491038 361.206308 
L 341.516867 246.786108 
L 343.568527 423.75057 
L 344.594356 410.531507 
L 345.620186 399.489008 
L 346.646015 334.376581 
L 347.671845 409.274289 
L 348.697674 382.376025 
L 349.723504 380.961363 
L 350.749334 407.22592 
L 351.775163 401.17812 
L 352.800993 333.233428 
L 353.826822 378.222351 
L 354.852652 363.168751 
L 355.878481 376.916867 
L 356.904311 350.341301 
L 357.930141 359.139985 
L 358.95597 339.908452 
L 361.007629 401.991718 
L 362.033459 350.942007 
L 363.059289 547.45501 
L 364.085118 364.08718 
L 365.110948 349.501589 
L 366.136777 371.111231 
L 367.162607 327.821716 
L 368.188436 414.339047 
L 369.214266 337.670025 
L 370.240096 448.156764 
L 371.265925 388.225096 
L 372.291755 394.927789 
L 373.317584 367.005976 
L 374.343414 406.596993 
L 375.369243 365.947947 
L 376.395073 378.632675 
L 377.420903 389.185766 
L 378.446732 377.908885 
L 379.472562 332.663622 
L 380.498391 381.113345 
L 381.524221 447.496198 
L 382.550051 427.40849 
L 383.57588 469.345513 
L 384.60171 387.918483 
L 385.627539 470.701126 
L 386.653369 390.208634 
L 387.679198 384.568399 
L 388.705028 438.586832 
L 389.730858 416.580921 
L 390.756687 413.517846 
L 391.782517 446.839225 
L 392.808346 447.366035 
L 393.834176 356.646423 
L 394.860006 390.928919 
L 395.885835 513.86293 
L 396.911665 489.401462 
L 397.937494 393.667851 
L 398.963324 429.444565 
L 399.989153 370.014834 
L 401.014983 377.899418 
L 402.040813 359.346356 
L 403.066642 389.045178 
L 404.092472 438.492094 
L 405.118301 380.537638 
L 406.144131 391.654873 
L 407.16996 386.829926 
L 408.19579 392.581938 
L 409.22162 416.445466 
L 410.247449 409.883653 
L 411.273279 410.043134 
L 412.299108 405.755851 
L 413.324938 496.85396 
L 414.350768 411.262256 
L 415.376597 391.913504 
L 416.402427 445.660721 
L 417.428256 405.598613 
L 418.454086 437.552424 
L 419.479915 402.281208 
L 420.505745 396.400825 
L 421.531575 462.106402 
L 422.557404 405.696319 
L 423.583234 431.629708 
L 424.609063 388.382969 
L 425.634893 414.925502 
L 426.660722 421.594605 
L 427.686552 432.486406 
L 428.712382 432.210832 
L 429.738211 417.562381 
L 430.764041 420.881275 
L 431.78987 404.363259 
L 432.8157 415.085381 
L 433.84153 405.945729 
L 434.867359 415.585473 
L 435.893189 400.974082 
L 436.919018 407.927935 
L 437.944848 420.696933 
L 438.970677 421.152554 
L 439.996507 385.475142 
L 441.022337 427.137735 
L 442.048166 402.359251 
L 443.073996 400.314425 
L 444.099825 405.063453 
L 445.125655 432.913162 
L 446.151485 421.386046 
L 447.177314 456.34074 
L 448.203144 540.83021 
L 449.228973 449.266747 
L 450.254803 422.102395 
L 451.280632 416.006311 
L 452.306462 403.521622 
L 453.332292 400.336441 
L 454.358121 418.218638 
L 455.383951 427.716345 
L 456.40978 395.916481 
L 457.43561 431.722249 
L 458.461439 420.444326 
L 459.487269 426.608431 
L 460.513099 425.207374 
L 461.538928 439.356585 
L 462.564758 425.603471 
L 463.590587 434.107716 
L 464.616417 437.225715 
L 465.642247 453.935271 
L 466.668076 430.029945 
L 467.693906 410.083906 
L 468.719735 463.988188 
L 469.745565 414.915398 
L 470.771394 512.946696 
L 471.797224 433.011472 
L 472.823054 422.05113 
L 473.848883 442.200689 
L 474.874713 443.084019 
L 475.900542 415.043171 
L 476.926372 497.273572 
L 477.952201 448.45102 
L 478.978031 467.976218 
L 480.003861 471.248197 
L 481.02969 466.224785 
L 482.05552 452.805265 
L 483.081349 478.330142 
L 484.107179 468.584438 
L 485.133009 454.812783 
L 486.158838 434.093297 
L 487.184668 445.755431 
L 488.210497 442.449339 
L 489.236327 430.488082 
L 490.262156 463.724805 
L 491.287986 455.507477 
L 492.313816 439.15193 
L 493.339645 425.938623 
L 494.365475 424.284536 
L 495.391304 441.34647 
L 496.417134 450.242476 
L 497.442964 430.991235 
L 498.468793 430.965248 
L 499.494623 455.859123 
L 500.520452 450.942354 
L 501.546282 434.778186 
L 502.572111 432.387576 
L 503.597941 476.045099 
L 504.623771 450.302145 
L 505.6496 448.012535 
L 506.67543 504.048806 
L 507.701259 454.695667 
L 508.727089 430.344221 
L 509.752918 433.162187 
L 510.778748 456.623228 
L 511.804578 468.997014 
L 512.830407 447.297152 
L 513.856237 442.592199 
L 514.882066 456.078223 
L 515.907896 465.207449 
L 516.933726 454.796435 
L 517.959555 438.579423 
L 520.011214 462.807664 
L 522.062873 453.539762 
L 523.088703 456.725051 
L 524.114533 459.179975 
L 525.140362 452.488571 
L 526.166192 456.842166 
L 527.192021 446.016831 
L 528.217851 469.707345 
L 529.24368 475.460728 
L 530.26951 460.450791 
L 531.29534 457.50221 
L 532.321169 469.868898 
L 533.346999 496.407101 
L 534.372828 465.101485 
L 535.398658 449.172326 
L 536.424488 475.632317 
L 537.450317 461.227043 
L 538.476147 465.455541 
L 539.501976 464.997339 
L 540.527806 473.14281 
L 542.579465 457.580008 
L 543.605295 459.906967 
L 544.631124 445.954019 
L 545.656954 459.159071 
L 547.708613 455.833511 
L 548.734443 477.479032 
L 549.760272 488.903441 
L 550.786102 441.423553 
L 551.811931 456.646705 
L 552.837761 536.619032 
L 553.86359 448.318387 
L 554.88942 458.416956 
L 555.91525 529.72714 
L 556.941079 480.768909 
L 557.966909 456.411149 
L 558.992738 442.631385 
L 560.018568 474.4286 
L 561.044397 492.191228 
L 562.070227 462.082103 
L 563.096057 503.468703 
L 564.121886 461.847657 
L 565.147716 472.052993 
L 566.173545 473.004933 
L 567.199375 472.356675 
L 568.225205 460.744113 
L 569.251034 473.122232 
L 570.276864 452.566901 
L 571.302693 464.972329 
L 572.328523 465.167683 
L 573.354352 470.704735 
L 574.380182 470.15961 
L 575.406012 496.482259 
L 576.431841 479.00158 
L 577.457671 527.226138 
L 578.4835 484.03633 
L 579.50933 497.834596 
L 580.535159 537.534674 
L 581.560989 495.257633 
L 582.586819 495.877479 
L 583.612648 490.712786 
L 584.638478 499.190947 
L 585.664307 502.079132 
L 586.690137 487.956207 
L 587.715967 496.247945 
L 588.741796 481.130945 
L 589.767626 503.377072 
L 591.819285 498.721874 
L 592.845114 504.957317 
L 593.870944 504.160064 
L 594.896774 482.533532 
L 595.922603 487.664459 
L 596.948433 486.875184 
L 597.974262 489.731319 
L 599.000092 487.9821 
L 600.025922 487.471243 
L 601.051751 481.902672 
L 602.077581 491.91267 
L 603.10341 498.400791 
L 604.12924 474.666516 
L 605.155069 501.438427 
L 606.180899 489.687394 
L 607.206729 503.015442 
L 608.232558 475.496094 
L 609.258388 509.055774 
L 610.284217 446.378568 
L 611.310047 495.524426 
L 612.335876 504.335672 
L 613.361706 482.239948 
L 614.387536 499.29362 
L 615.413365 472.096707 
L 616.439195 498.762032 
L 617.465024 538.747168 
L 618.490854 507.72815 
L 619.516684 494.341651 
L 620.542513 494.345931 
L 621.568343 481.624939 
L 622.594172 540.430438 
L 623.620002 490.758232 
L 624.645831 485.307374 
L 625.671661 491.742363 
L 626.697491 494.99147 
L 627.72332 529.115028 
L 628.74915 453.964926 
L 629.774979 505.142583 
L 630.800809 508.43162 
L 631.826638 533.043976 
L 632.852468 525.251818 
L 633.878298 497.502202 
L 634.904127 489.651124 
L 635.929957 530.839002 
L 636.955786 519.430266 
L 637.981616 509.990458 
L 639.007446 504.044344 
L 640.033275 514.583123 
L 641.059105 507.765136 
L 642.084934 498.559797 
L 643.110764 505.368934 
L 644.136593 501.617096 
L 645.162423 520.608911 
L 646.188253 502.403374 
L 647.214082 498.413268 
L 648.239912 458.360741 
L 649.265741 541.869947 
L 650.291571 487.14239 
L 651.3174 545.092385 
L 652.34323 505.147852 
L 653.36906 505.413482 
L 654.394889 506.403353 
L 655.420719 470.240024 
L 656.446548 505.197811 
L 657.472378 520.857492 
L 658.498208 515.781793 
L 659.524037 505.101284 
L 660.549867 491.729832 
L 661.575696 491.549078 
L 662.601526 518.21028 
L 663.627355 509.907613 
L 664.653185 548.701182 
L 665.679015 500.238772 
L 666.704844 518.431771 
L 667.730674 540.258695 
L 668.756503 507.283611 
L 669.782333 506.997219 
L 670.808163 501.465584 
L 671.833992 528.739919 
L 672.859822 501.044418 
L 673.885651 546.834912 
L 674.911481 505.088765 
L 675.93731 513.818575 
L 676.96314 497.888224 
L 677.98897 497.545785 
L 679.014799 510.323573 
L 680.040629 510.654601 
L 681.066458 511.829664 
L 682.092288 502.805774 
L 683.118117 505.092855 
L 684.143947 504.827363 
L 685.169777 509.602304 
L 686.195606 513.208434 
L 687.221436 507.025327 
L 688.247265 548.383807 
L 689.273095 553.682914 
L 690.298925 500.455586 
L 691.324754 509.169374 
L 692.350584 558.902653 
L 693.376413 508.055182 
L 694.402243 513.032782 
L 695.428072 543.64629 
L 696.453902 524.266528 
L 697.479732 508.504454 
L 698.505561 513.976658 
L 699.531391 505.788536 
L 700.55722 516.672252 
L 701.58305 509.680729 
L 702.608879 540.248153 
L 703.634709 539.319375 
L 704.660539 525.171517 
L 705.686368 518.68239 
L 706.712198 519.894929 
L 707.738027 510.084324 
L 708.763857 515.119737 
L 709.789687 507.580223 
L 710.815516 512.887526 
L 711.841346 508.100034 
L 712.867175 514.94662 
L 713.893005 509.574405 
L 714.918834 503.279593 
L 715.944664 507.838565 
L 716.970494 513.819871 
L 717.996323 513.353064 
L 719.022153 548.512811 
L 720.047982 512.615501 
L 721.073812 521.519346 
L 722.099642 521.078018 
L 723.125471 518.71291 
L 724.151301 519.505401 
L 725.17713 520.638022 
L 726.20296 523.01088 
L 727.228789 508.365639 
L 728.254619 519.521696 
L 729.280449 520.791554 
L 730.306278 537.80567 
L 731.332108 517.367608 
L 732.357937 522.461923 
L 733.383767 520.973909 
L 734.409596 524.672989 
L 735.435426 536.341997 
L 736.461256 514.273508 
L 737.487085 531.424788 
L 738.512915 533.565834 
L 739.538744 524.244479 
L 740.564574 519.535215 
L 741.590404 532.246063 
L 742.616233 517.073587 
L 743.642063 526.866994 
L 744.667892 520.768383 
L 745.693722 542.116563 
L 746.719551 524.995288 
L 747.745381 527.972636 
L 748.771211 522.673012 
L 749.79704 533.886727 
L 750.82287 526.160537 
L 751.848699 527.456884 
L 752.874529 521.916688 
L 754.926188 520.283538 
L 755.952018 522.059263 
L 756.977847 529.356896 
L 759.029506 521.117037 
L 760.055336 519.048361 
L 761.081166 521.047846 
L 762.106995 526.566425 
L 763.132825 516.057563 
L 764.158654 522.829802 
L 765.184484 521.862077 
L 766.210313 526.457668 
L 767.236143 519.116925 
L 768.261973 525.76014 
L 769.287802 524.800167 
L 770.313632 525.042139 
L 771.339461 513.632121 
L 774.41695 536.183086 
L 775.44278 515.068194 
L 776.468609 517.252814 
L 777.494439 547.313313 
L 778.520268 530.97235 
L 780.571928 520.915072 
L 781.597757 521.998529 
L 782.623587 536.868107 
L 783.649416 529.820301 
L 784.675246 530.980744 
L 785.701075 531.000422 
L 786.726905 537.797217 
L 787.752735 525.090289 
L 788.778564 532.849407 
L 789.804394 528.652333 
L 790.830223 518.33642 
L 791.856053 529.671683 
L 792.881883 521.096799 
L 793.907712 523.590516 
L 794.933542 526.956437 
L 795.959371 519.778116 
L 796.985201 532.964634 
L 798.01103 524.151072 
L 799.03686 526.904735 
L 800.06269 563.836152 
L 801.088519 554.443665 
L 802.114349 524.529422 
L 803.140178 531.963609 
L 804.166008 540.561976 
L 805.191837 519.935128 
L 806.217667 527.880356 
L 807.243497 533.389127 
L 808.269326 518.857182 
L 809.295156 518.971808 
L 810.320985 522.35833 
L 811.346815 531.569501 
L 812.372645 480.017762 
L 813.398474 525.396621 
L 814.424304 518.378787 
L 815.450133 564.82891 
L 816.475963 546.286489 
L 817.501792 524.584942 
L 818.527622 525.044122 
L 819.553452 556.231836 
L 820.579281 464.626845 
L 821.605111 525.784747 
L 822.63094 522.716649 
L 823.65677 529.195791 
L 824.6826 545.813028 
L 825.708429 530.880641 
L 826.734259 528.898136 
L 827.760088 490.747705 
L 828.785918 530.484074 
L 829.811747 560.273725 
L 830.837577 564.576109 
L 831.863407 532.082621 
L 832.889236 531.149865 
L 833.915066 524.887395 
L 834.940895 552.604206 
L 835.966725 550.576154 
L 836.992554 538.288581 
L 838.018384 533.010729 
L 839.044214 530.457329 
L 840.070043 538.967235 
L 841.095873 501.372517 
L 842.121702 538.66249 
L 843.147532 532.402906 
L 844.173362 543.914266 
L 845.199191 534.750051 
L 846.225021 533.034438 
L 847.25085 537.739818 
L 848.27668 538.083821 
L 849.302509 539.203072 
L 850.328339 537.903945 
L 851.354169 543.853417 
L 852.379998 544.985046 
L 853.405828 537.424739 
L 854.431657 536.921239 
L 855.457487 539.985693 
L 856.483316 544.351304 
L 857.509146 537.915544 
L 858.534976 537.49369 
L 859.560805 579.731789 
L 860.586635 560.063865 
L 861.612464 546.879751 
L 862.638294 539.189125 
L 863.664124 536.343957 
L 864.689953 544.657712 
L 866.741612 537.192555 
L 867.767442 538.763791 
L 868.793271 544.122692 
L 869.819101 537.898442 
L 870.844931 538.771596 
L 871.87076 536.307909 
L 872.89659 542.220639 
L 873.922419 537.576412 
L 874.948249 537.971429 
L 875.974078 539.964584 
L 876.999908 544.677568 
L 878.025738 541.425929 
L 879.051567 538.745532 
L 880.077397 538.734626 
L 881.103226 546.415026 
L 882.129056 539.396222 
L 883.154886 536.688383 
L 884.180715 537.026706 
L 885.206545 547.175797 
L 886.232374 537.719751 
L 887.258204 547.904797 
L 888.284033 537.049746 
L 889.309863 549.538628 
L 890.335693 542.078356 
L 891.361522 543.336982 
L 892.387352 541.532952 
L 893.413181 543.540634 
L 894.439011 537.608934 
L 895.464841 538.90987 
L 896.49067 538.519688 
L 897.5165 547.605556 
L 898.542329 543.758356 
L 899.568159 537.720153 
L 900.593988 543.020004 
L 901.619818 542.881728 
L 902.645648 538.751655 
L 903.671477 540.230042 
L 904.697307 539.797443 
L 905.723136 546.314365 
L 906.748966 539.94286 
L 907.774795 540.443353 
L 908.800625 541.815948 
L 909.826455 542.537724 
L 910.852284 539.124358 
L 911.878114 540.537314 
L 912.903943 536.712834 
L 913.929773 541.793025 
L 914.955603 535.576152 
L 915.981432 537.329699 
L 917.007262 538.137905 
L 918.033091 544.693992 
L 919.058921 539.95047 
L 920.08475 542.643757 
L 921.11058 550.762085 
L 923.162239 543.707481 
L 924.188069 541.982062 
L 925.213898 543.618633 
L 926.239728 548.361862 
L 927.265557 544.556978 
L 928.291387 541.859965 
L 929.317217 537.52001 
L 930.343046 547.136373 
L 931.368876 541.017984 
L 932.394705 539.528228 
L 933.420535 540.97149 
L 934.446365 545.197855 
L 935.472194 539.680433 
L 936.498024 544.595121 
L 937.523853 538.866456 
L 938.549683 544.616305 
L 939.575512 539.358028 
L 940.601342 539.973363 
L 941.627172 542.248356 
L 942.653001 544.948094 
L 943.678831 540.785998 
L 944.70466 541.670828 
L 945.73049 542.005482 
L 946.75632 545.58187 
L 947.782149 542.124476 
L 949.833808 540.091313 
L 950.859638 548.463582 
L 951.885467 541.19107 
L 952.911297 544.941778 
L 953.937127 544.315067 
L 954.962956 550.035693 
L 955.988786 557.844173 
L 957.014615 544.145998 
L 958.040445 546.742842 
L 959.066274 552.608751 
L 960.092104 544.12624 
L 961.117934 538.170354 
L 962.143763 541.009447 
L 963.169593 547.424363 
L 964.195422 541.289734 
L 965.221252 540.589302 
L 966.247082 542.47698 
L 967.272911 548.351043 
L 968.298741 541.594619 
L 969.32457 545.404946 
L 970.3504 541.210074 
L 971.376229 571.026968 
L 972.402059 542.923706 
L 973.427889 545.430606 
L 974.453718 546.017178 
L 975.479548 549.828313 
L 976.505377 543.183371 
L 977.531207 548.929532 
L 978.557036 545.755923 
L 979.582866 549.981345 
L 980.608696 541.223656 
L 981.634525 540.239464 
L 982.660355 542.137261 
L 983.686184 548.493825 
L 984.712014 542.464843 
L 985.737844 540.712641 
L 986.763673 545.287005 
L 987.789503 547.19592 
L 988.815332 545.497238 
L 989.841162 544.926049 
L 990.866991 544.964567 
L 991.892821 549.062349 
L 992.918651 544.573797 
L 993.94448 544.853011 
L 994.97031 547.368383 
L 995.996139 553.289451 
L 997.021969 554.970835 
L 998.047799 546.699564 
L 999.073628 546.759312 
L 1000.099458 554.251666 
L 1001.125287 547.74138 
L 1002.151117 547.258111 
L 1003.176946 548.229873 
L 1004.202776 569.770882 
L 1005.228606 546.634049 
L 1006.254435 545.152692 
L 1007.280265 547.747916 
L 1008.306094 554.479763 
L 1009.331924 548.228133 
L 1010.357753 546.17337 
L 1012.409413 555.640395 
L 1013.435242 550.498097 
L 1014.461072 552.277595 
L 1015.486901 548.499573 
L 1016.512731 554.527362 
L 1017.538561 549.87372 
L 1018.56439 549.814465 
L 1019.59022 548.777181 
L 1020.616049 554.906046 
L 1021.641879 550.538759 
L 1022.667708 550.27311 
L 1023.693538 548.975239 
L 1024.719368 554.945271 
L 1025.745197 550.640424 
L 1026.771027 550.726418 
L 1027.796856 551.333062 
L 1028.822686 557.399544 
L 1029.848515 552.134639 
L 1030.874345 551.37643 
L 1031.900175 549.850493 
L 1032.926004 554.922957 
L 1033.951834 551.006997 
L 1034.977663 540.136088 
L 1036.003493 549.704543 
L 1037.029323 555.831709 
L 1038.055152 549.856569 
L 1039.080982 551.701328 
L 1040.106811 551.130967 
L 1041.132641 558.118266 
L 1042.15847 551.95159 
L 1043.1843 553.443834 
L 1044.21013 563.312917 
L 1045.235959 556.620693 
L 1046.261789 552.211932 
L 1047.287618 551.701622 
L 1048.313448 552.122083 
L 1049.339278 556.48286 
L 1050.365107 551.66007 
L 1051.390937 551.756321 
L 1052.416766 551.664157 
L 1053.442596 559.142957 
L 1054.468425 552.722844 
L 1055.494255 551.63374 
L 1056.520085 552.620319 
L 1057.545914 558.436235 
L 1058.571744 554.30127 
L 1059.597573 555.07661 
L 1060.623403 554.200184 
L 1061.649232 566.94399 
L 1062.675062 561.031266 
L 1063.700892 556.188571 
L 1064.726721 557.287214 
L 1065.752551 561.289609 
L 1066.77838 556.542301 
L 1067.80421 550.889148 
L 1068.83004 550.690785 
L 1069.855869 560.054286 
L 1070.881699 554.648548 
L 1071.907528 555.421763 
L 1072.933358 555.251943 
L 1073.959187 558.589944 
L 1074.985017 554.793144 
L 1076.010847 554.489599 
L 1077.036676 553.318214 
L 1078.062506 561.648328 
L 1079.088335 554.808789 
L 1080.114165 554.97199 
L 1081.139994 553.686612 
L 1082.165824 559.564553 
L 1083.191654 556.111202 
L 1084.217483 554.84566 
L 1085.243313 554.896236 
L 1086.269142 569.393572 
L 1087.294972 556.339954 
L 1088.320802 553.837193 
L 1089.346631 549.153319 
L 1090.372461 559.108455 
L 1091.39829 556.212326 
L 1092.42412 555.949929 
L 1093.449949 554.799777 
L 1094.475779 560.828735 
L 1095.501609 557.024116 
L 1096.527438 555.952854 
L 1098.579097 560.894426 
L 1099.604927 556.364446 
L 1100.630757 554.647478 
L 1101.656586 555.502661 
L 1102.682416 560.450271 
L 1103.708245 556.046247 
L 1104.734075 554.381117 
L 1105.759904 553.951614 
L 1106.785734 561.278129 
L 1107.811564 556.237473 
L 1108.837393 565.70349 
L 1109.863223 556.023155 
L 1110.889052 561.285797 
L 1111.914882 554.528864 
L 1112.940711 554.176189 
L 1113.966541 555.401941 
L 1114.992371 561.398749 
L 1116.0182 558.002025 
L 1117.04403 557.744056 
L 1118.069859 556.789157 
L 1119.095689 561.273076 
L 1120.121519 557.12271 
L 1121.147348 556.506742 
L 1122.173178 557.095933 
L 1123.199007 562.233823 
L 1124.224837 557.613787 
L 1125.250666 558.411152 
L 1126.276496 557.77511 
L 1127.302326 561.711228 
L 1128.328155 556.311182 
L 1129.353985 558.916588 
L 1130.379814 558.275282 
L 1131.405644 564.499006 
L 1132.431473 556.863967 
L 1133.457303 556.276212 
L 1134.483133 557.814878 
L 1135.508962 563.17575 
L 1136.534792 557.777833 
L 1137.560621 558.713526 
L 1138.586451 561.387148 
L 1139.612281 562.851048 
L 1140.63811 557.117573 
L 1142.689769 558.732565 
L 1143.715599 563.09169 
L 1144.741428 558.903865 
L 1145.767258 558.23842 
L 1146.793088 558.181317 
L 1147.818917 564.023657 
L 1148.844747 559.164475 
L 1149.870576 559.104052 
L 1150.896406 558.257293 
L 1151.922235 564.153835 
L 1152.948065 545.741064 
L 1153.973895 561.456817 
L 1154.999724 561.083681 
L 1156.025554 564.913435 
L 1157.051383 561.652874 
L 1158.077213 563.431899 
L 1159.103043 559.418155 
L 1160.128872 565.037382 
L 1161.154702 560.458021 
L 1162.180531 563.059214 
L 1163.206361 559.558191 
L 1164.23219 567.015307 
L 1165.25802 558.494048 
L 1166.28385 567.914673 
L 1167.309679 568.131986 
L 1168.335509 568.230231 
L 1169.361338 563.742346 
L 1170.387168 562.122119 
L 1171.412998 561.358322 
L 1172.438827 566.463864 
L 1173.464657 560.549247 
L 1174.490486 563.862982 
L 1175.516316 561.487657 
L 1176.542145 565.809901 
L 1177.567975 560.655697 
L 1178.593805 561.640795 
L 1179.619634 561.987924 
L 1180.645464 566.268639 
L 1181.671293 561.434822 
L 1182.697123 561.288855 
L 1183.722952 562.328344 
L 1184.748782 568.388384 
L 1185.774612 560.587977 
L 1186.800441 561.083029 
L 1187.826271 561.274794 
L 1188.8521 567.30574 
L 1189.87793 561.520634 
L 1190.90376 561.761799 
L 1191.929589 561.551384 
L 1192.955419 568.777325 
L 1193.981248 572.931633 
L 1195.007078 561.583828 
L 1196.032907 562.668157 
L 1197.058737 565.728927 
L 1198.084567 561.405124 
L 1199.110396 573.594748 
L 1200.136226 561.45734 
L 1201.162055 564.967557 
L 1202.187885 567.355538 
L 1203.213714 563.983439 
L 1204.239544 561.788001 
L 1205.265374 569.867794 
L 1206.291203 563.835149 
L 1207.317033 561.678156 
L 1208.342862 561.066238 
L 1209.368692 568.013383 
L 1210.394522 561.268868 
L 1211.420351 561.143454 
L 1212.446181 562.621796 
L 1213.47201 564.664001 
L 1214.49784 563.154934 
L 1215.523669 563.22665 
L 1216.549499 564.445835 
L 1217.575329 566.643302 
L 1218.601158 564.575213 
L 1219.626988 561.95631 
L 1220.652817 561.78535 
L 1221.678647 567.873227 
L 1222.704477 563.647601 
L 1223.730306 563.015079 
L 1224.756136 562.815038 
L 1225.781965 567.317049 
L 1226.807795 562.746515 
L 1227.833624 573.976083 
L 1228.859454 573.826191 
L 1229.885284 569.529094 
L 1230.911113 563.015067 
L 1231.936943 563.554051 
L 1232.962772 564.542579 
L 1233.988602 568.536793 
L 1235.014431 563.053101 
L 1236.040261 564.223951 
L 1237.066091 573.270951 
L 1238.09192 571.340526 
L 1239.11775 564.024766 
L 1240.143579 563.949073 
L 1241.169409 564.400348 
L 1242.195239 568.850709 
L 1243.221068 564.157683 
L 1244.246898 564.030262 
L 1245.272727 564.163627 
L 1245.272727 564.163627 
" style="fill:none;stroke:#1f77b4;stroke-linecap:square;stroke-width:1.5;"/>
   </g>
   <g id="line2d_18">
    <path clip-path="url(#pdadedd736b)" d="M 230.727273 238.347698 
L 231.753102 167.932917 
L 232.778932 352.49739 
L 233.804761 286.023473 
L 234.830591 186.725719 
L 235.856421 174.958649 
L 236.88225 196.475895 
L 237.90808 184.696169 
L 238.933909 213.019113 
L 239.959739 232.419806 
L 240.985569 202.077913 
L 242.011398 232.774378 
L 243.037228 224.751077 
L 244.063057 238.3825 
L 245.088887 298.697335 
L 246.114716 279.568509 
L 247.140546 276.357354 
L 248.166376 288.415358 
L 249.192205 289.307338 
L 250.218035 299.142627 
L 251.243864 287.305166 
L 252.269694 258.781448 
L 253.295523 291.669731 
L 254.321353 292.810423 
L 255.347183 251.786048 
L 256.373012 321.126988 
L 257.398842 278.863309 
L 258.424671 279.204759 
L 259.450501 317.621729 
L 260.476331 312.171371 
L 261.50216 267.026833 
L 262.52799 317.273213 
L 263.553819 300.021454 
L 265.605478 343.962042 
L 266.631308 296.172343 
L 267.657138 333.120558 
L 268.682967 321.122384 
L 269.708797 317.652271 
L 270.734626 315.815318 
L 271.760456 309.006218 
L 273.812115 321.556197 
L 274.837945 341.157728 
L 275.863774 327.705202 
L 276.889604 389.331604 
L 277.915433 327.751866 
L 278.941263 360.737501 
L 279.967093 385.57622 
L 280.992922 351.353914 
L 282.018752 380.71041 
L 284.070411 336.74866 
L 285.09624 354.752394 
L 286.12207 363.643247 
L 287.1479 340.628258 
L 288.173729 279.108223 
L 289.199559 354.519096 
L 290.225388 367.736185 
L 291.251218 367.91917 
L 292.277048 409.76542 
L 293.302877 354.82486 
L 294.328707 375.059494 
L 295.354536 400.363693 
L 296.380366 351.186674 
L 298.432025 424.730588 
L 299.457855 389.516812 
L 300.483684 379.075733 
L 301.509514 379.066897 
L 302.535343 369.937198 
L 303.561173 487.986049 
L 304.587002 378.275173 
L 305.612832 422.897883 
L 306.638662 429.283299 
L 307.664491 422.559506 
L 308.690321 404.880499 
L 309.71615 379.958081 
L 310.74198 405.94177 
L 311.76781 426.013587 
L 312.793639 430.665616 
L 313.819469 415.383859 
L 314.845298 429.65758 
L 315.871128 369.5088 
L 316.896957 412.164752 
L 317.922787 403.882663 
L 318.948617 382.784879 
L 319.974446 411.333638 
L 321.000276 403.328006 
L 322.026105 455.216721 
L 323.051935 346.924148 
L 324.077765 408.91355 
L 325.103594 397.513312 
L 326.129424 430.365939 
L 327.155253 472.998116 
L 328.181083 407.131731 
L 329.206912 421.448741 
L 330.232742 438.848588 
L 331.258572 435.376163 
L 333.310231 420.094623 
L 334.33606 404.964272 
L 335.36189 422.75152 
L 336.387719 433.247612 
L 337.413549 435.622592 
L 338.439379 436.271328 
L 339.465208 426.699956 
L 340.491038 439.045758 
L 341.516867 422.326268 
L 342.542697 422.555937 
L 343.568527 432.362231 
L 344.594356 455.710439 
L 345.620186 442.643247 
L 346.646015 410.431136 
L 347.671845 432.275828 
L 348.697674 471.556257 
L 349.723504 443.117899 
L 350.749334 438.660733 
L 351.775163 447.326706 
L 352.800993 452.523176 
L 353.826822 441.278627 
L 354.852652 435.560576 
L 355.878481 435.998633 
L 356.904311 470.163271 
L 357.930141 452.029148 
L 358.95597 428.839415 
L 359.9818 458.897458 
L 361.007629 459.009396 
L 362.033459 446.346771 
L 363.059289 465.135551 
L 364.085118 474.308904 
L 365.110948 470.802011 
L 366.136777 441.984461 
L 367.162607 471.107476 
L 368.188436 454.958409 
L 369.214266 476.780361 
L 370.240096 469.480009 
L 371.265925 469.140809 
L 372.291755 484.698188 
L 373.317584 469.517542 
L 374.343414 469.594155 
L 375.369243 496.884688 
L 376.395073 468.21704 
L 377.420903 473.680622 
L 378.446732 474.185853 
L 379.472562 479.110195 
L 380.498391 474.853984 
L 381.524221 479.666972 
L 382.550051 478.682461 
L 383.57588 483.326891 
L 384.60171 468.705857 
L 385.627539 474.312323 
L 386.653369 482.009578 
L 387.679198 480.588352 
L 388.705028 468.963135 
L 389.730858 491.775076 
L 390.756687 460.323719 
L 392.808346 486.531611 
L 393.834176 485.974881 
L 394.860006 470.234612 
L 395.885835 475.787495 
L 396.911665 487.870661 
L 397.937494 484.963048 
L 398.963324 492.194336 
L 399.989153 475.506909 
L 401.014983 481.622476 
L 402.040813 476.974567 
L 403.066642 492.022727 
L 404.092472 469.581633 
L 405.118301 493.377439 
L 406.144131 540.551153 
L 407.16996 478.823223 
L 408.19579 476.617899 
L 409.22162 505.208093 
L 410.247449 496.492496 
L 411.273279 520.938281 
L 412.299108 499.490783 
L 413.324938 486.714398 
L 414.350768 507.414734 
L 415.376597 472.202598 
L 417.428256 484.9603 
L 418.454086 481.131238 
L 419.479915 466.385438 
L 420.505745 469.154825 
L 421.531575 480.942864 
L 422.557404 424.29072 
L 423.583234 494.040819 
L 424.609063 526.551291 
L 425.634893 495.823301 
L 426.660722 486.453092 
L 427.686552 486.153143 
L 428.712382 488.802834 
L 429.738211 493.572202 
L 430.764041 511.406184 
L 431.78987 495.361458 
L 432.8157 498.969211 
L 433.84153 528.999658 
L 434.867359 503.918438 
L 435.893189 497.738183 
L 436.919018 488.046372 
L 437.944848 501.914586 
L 438.970677 510.075341 
L 439.996507 501.1705 
L 441.022337 498.78126 
L 442.048166 512.527926 
L 443.073996 504.834671 
L 444.099825 499.715375 
L 445.125655 509.222845 
L 446.151485 516.438014 
L 447.177314 511.466696 
L 448.203144 501.234428 
L 449.228973 498.407687 
L 450.254803 509.892401 
L 451.280632 515.247801 
L 452.306462 509.420392 
L 453.332292 501.430146 
L 454.358121 514.255027 
L 455.383951 516.322888 
L 456.40978 511.488684 
L 457.43561 513.635085 
L 458.461439 520.533237 
L 459.487269 520.764224 
L 460.513099 507.307607 
L 461.538928 505.033685 
L 462.564758 523.760275 
L 463.590587 524.527577 
L 464.616417 519.031147 
L 465.642247 519.794244 
L 466.668076 512.990955 
L 467.693906 525.731344 
L 468.719735 517.715931 
L 469.745565 511.47027 
L 471.797224 524.536174 
L 472.823054 511.340203 
L 473.848883 522.588191 
L 474.874713 527.770856 
L 475.900542 534.119316 
L 476.926372 518.895944 
L 477.952201 509.102437 
L 478.978031 528.192308 
L 480.003861 529.005457 
L 481.02969 515.675476 
L 482.05552 525.353976 
L 483.081349 542.060877 
L 484.107179 527.205799 
L 486.158838 520.807848 
L 487.184668 532.150387 
L 488.210497 525.64088 
L 489.236327 523.860999 
L 490.262156 521.561285 
L 491.287986 529.097504 
L 492.313816 529.879446 
L 493.339645 519.760845 
L 494.365475 520.723938 
L 495.391304 526.135685 
L 496.417134 548.775106 
L 497.442964 525.40613 
L 498.468793 517.913116 
L 499.494623 532.947031 
L 500.520452 527.831645 
L 501.546282 564.88839 
L 502.572111 513.107937 
L 503.597941 520.385572 
L 504.623771 526.064039 
L 505.6496 519.850107 
L 506.67543 518.693273 
L 507.701259 527.996161 
L 508.727089 548.937326 
L 509.752918 519.265437 
L 510.778748 513.235672 
L 511.804578 526.406875 
L 512.830407 530.818345 
L 513.856237 520.507681 
L 514.882066 516.081854 
L 515.907896 531.380139 
L 516.933726 531.123622 
L 517.959555 546.22363 
L 518.985385 526.120724 
L 520.011214 527.184769 
L 521.037044 536.303498 
L 522.062873 528.280091 
L 523.088703 522.865508 
L 524.114533 530.116214 
L 525.140362 538.239433 
L 526.166192 524.96053 
L 527.192021 534.51917 
L 528.217851 554.533446 
L 529.24368 538.207664 
L 530.26951 523.836629 
L 531.29534 526.871452 
L 532.321169 532.971606 
L 533.346999 542.359522 
L 534.372828 536.179438 
L 535.398658 526.500473 
L 536.424488 541.740611 
L 537.450317 539.72362 
L 538.476147 533.920667 
L 539.501976 526.286343 
L 540.527806 541.100864 
L 541.553635 537.272304 
L 542.579465 536.188658 
L 543.605295 529.920951 
L 544.631124 553.17431 
L 545.656954 538.173221 
L 546.682783 530.112457 
L 547.708613 531.282321 
L 549.760272 542.548788 
L 550.786102 535.211322 
L 551.811931 540.280203 
L 552.837761 544.740224 
L 553.86359 544.805918 
L 554.88942 555.667521 
L 555.91525 550.766227 
L 557.966909 542.256848 
L 558.992738 535.906087 
L 560.018568 523.901426 
L 561.044397 544.441846 
L 562.070227 570.599073 
L 563.096057 538.767557 
L 564.121886 541.457427 
L 565.147716 539.449604 
L 566.173545 547.263982 
L 567.199375 538.552349 
L 568.225205 532.929873 
L 569.251034 546.806694 
L 570.276864 547.254197 
L 571.302693 531.884923 
L 573.354352 548.918648 
L 574.380182 545.315702 
L 575.406012 535.747765 
L 576.431841 539.447643 
L 577.457671 543.631753 
L 578.4835 572.300001 
L 579.50933 539.62666 
L 580.535159 534.374601 
L 581.560989 549.56513 
L 582.586819 543.159347 
L 583.612648 543.638212 
L 584.638478 565.269053 
L 585.664307 513.285529 
L 586.690137 552.410947 
L 587.715967 548.71906 
L 588.741796 550.049239 
L 589.767626 552.623671 
L 590.793455 547.718239 
L 591.819285 548.084389 
L 592.845114 546.567379 
L 593.870944 574.433689 
L 594.896774 554.944255 
L 595.922603 544.545442 
L 596.948433 566.527941 
L 597.974262 554.473087 
L 599.000092 547.819016 
L 600.025922 579.056197 
L 601.051751 546.349849 
L 602.077581 549.303978 
L 603.10341 554.454337 
L 604.12924 544.203214 
L 605.155069 547.698682 
L 606.180899 571.884508 
L 607.206729 548.929694 
L 608.232558 548.83656 
L 609.258388 549.48198 
L 610.284217 552.020569 
L 611.310047 572.662611 
L 612.335876 550.41344 
L 613.361706 549.794496 
L 614.387536 553.113569 
L 615.413365 556.932145 
L 616.439195 558.803088 
L 617.465024 546.117491 
L 618.490854 551.033133 
L 619.516684 556.529912 
L 620.542513 544.168749 
L 621.568343 553.587912 
L 622.594172 550.658862 
L 623.620002 558.043196 
L 624.645831 555.725831 
L 625.671661 546.826012 
L 626.697491 554.369572 
L 627.72332 557.613357 
L 628.74915 554.38242 
L 629.774979 552.848173 
L 630.800809 557.141948 
L 631.826638 558.502588 
L 632.852468 553.220046 
L 633.878298 549.637165 
L 634.904127 558.951685 
L 635.929957 558.32801 
L 636.955786 554.322685 
L 637.981616 554.373659 
L 639.007446 562.735727 
L 640.033275 561.967171 
L 641.059105 563.966515 
L 642.084934 551.026781 
L 643.110764 561.410292 
L 644.136593 561.96898 
L 645.162423 570.269878 
L 646.188253 555.685089 
L 647.214082 560.566627 
L 648.239912 561.048329 
L 649.265741 555.66549 
L 650.291571 556.017717 
L 651.3174 562.153701 
L 652.34323 560.581305 
L 653.36906 546.910575 
L 654.394889 560.93918 
L 655.420719 564.239901 
L 656.446548 562.653727 
L 657.472378 557.830463 
L 658.498208 578.161519 
L 659.524037 563.448346 
L 660.549867 563.012487 
L 661.575696 557.225176 
L 662.601526 558.364083 
L 663.627355 563.196582 
L 664.653185 562.834955 
L 665.679015 558.742828 
L 666.704844 558.631634 
L 667.730674 565.569272 
L 668.756503 564.267704 
L 669.782333 558.868178 
L 670.808163 558.426777 
L 671.833992 565.35883 
L 672.859822 564.134012 
L 673.885651 560.45318 
L 674.911481 558.614646 
L 675.93731 567.280123 
L 676.96314 564.746337 
L 677.98897 559.832648 
L 679.014799 560.136948 
L 680.040629 566.926983 
L 681.066458 564.074404 
L 683.118117 561.805364 
L 685.169777 571.261659 
L 686.195606 559.815083 
L 687.221436 565.284309 
L 688.247265 565.800994 
L 689.273095 569.974578 
L 690.298925 557.611905 
L 691.324754 560.638946 
L 692.350584 567.533723 
L 693.376413 575.557093 
L 694.402243 559.940564 
L 695.428072 562.810064 
L 696.453902 567.239808 
L 697.479732 569.313282 
L 698.505561 564.456849 
L 699.531391 557.194134 
L 700.55722 582.129017 
L 701.58305 565.25002 
L 702.608879 564.640828 
L 703.634709 551.442751 
L 704.660539 573.119292 
L 705.686368 569.661915 
L 706.712198 567.799614 
L 707.738027 559.354582 
L 708.763857 572.036152 
L 709.789687 572.718066 
L 710.815516 566.780953 
L 711.841346 562.939466 
L 713.893005 583.068477 
L 714.918834 568.390048 
L 715.944664 567.291945 
L 716.970494 573.050549 
L 717.996323 573.449443 
L 719.022153 567.243527 
L 720.047982 567.647786 
L 721.073812 570.92469 
L 722.099642 573.618268 
L 723.125471 566.224861 
L 724.151301 567.90544 
L 725.17713 561.038983 
L 726.20296 575.310196 
L 727.228789 569.997845 
L 728.254619 568.681095 
L 729.280449 574.876427 
L 730.306278 572.442172 
L 731.332108 568.060864 
L 732.357937 567.964708 
L 733.383767 568.209068 
L 734.409596 573.128966 
L 735.435426 567.760093 
L 737.487085 573.514576 
L 738.512915 573.360066 
L 739.538744 570.104639 
L 740.564574 561.436258 
L 741.590404 566.662388 
L 742.616233 575.248568 
L 743.642063 570.148815 
L 744.667892 577.815651 
L 745.693722 583.107534 
L 746.719551 578.542946 
L 747.745381 571.183645 
L 748.771211 572.117942 
L 749.79704 569.979314 
L 750.82287 576.960594 
L 751.848699 571.59336 
L 752.874529 572.223876 
L 753.900358 575.055718 
L 754.926188 577.473569 
L 755.952018 570.578085 
L 756.977847 571.179552 
L 759.029506 578.129849 
L 760.055336 573.62832 
L 761.081166 571.772979 
L 762.106995 575.621089 
L 763.132825 576.149184 
L 764.158654 571.3877 
L 765.184484 574.297457 
L 766.210313 576.500118 
L 767.236143 577.03095 
L 768.261973 572.54242 
L 769.287802 571.809853 
L 770.313632 579.551523 
L 771.339461 576.842301 
L 772.365291 577.292801 
L 773.391121 574.238021 
L 774.41695 578.011791 
L 775.44278 577.993133 
L 776.468609 572.299599 
L 777.494439 572.080883 
L 778.520268 577.21653 
L 779.546098 578.306184 
L 780.571928 573.400793 
L 781.597757 573.599066 
L 782.623587 577.516284 
L 783.649416 578.392884 
L 784.675246 573.719909 
L 785.701075 572.964654 
L 786.726905 579.234051 
L 787.752735 578.722713 
L 788.778564 573.497394 
L 789.804394 573.394946 
L 790.830223 581.066832 
L 791.856053 578.103477 
L 792.881883 564.094991 
L 793.907712 573.697412 
L 794.933542 575.619756 
L 795.959371 581.496822 
L 796.985201 575.362725 
L 798.01103 575.34542 
L 799.03686 588.95791 
L 800.06269 581.086203 
L 801.088519 575.386453 
L 802.114349 575.15561 
L 803.140178 576.77423 
L 804.166008 580.166982 
L 805.191837 575.269461 
L 806.217667 575.055503 
L 807.243497 575.80199 
L 808.269326 581.77579 
L 809.295156 575.230545 
L 810.320985 575.61337 
L 811.346815 576.662323 
L 812.372645 581.672768 
L 813.398474 575.244241 
L 814.424304 575.256746 
L 815.450133 571.366383 
L 816.475963 585.124627 
L 817.501792 575.836732 
L 818.527622 576.283223 
L 819.553452 584.139635 
L 820.579281 580.624056 
L 821.605111 576.37043 
L 822.63094 577.587545 
L 823.65677 580.548626 
L 824.6826 581.2535 
L 825.708429 578.666435 
L 826.734259 578.68335 
L 827.760088 581.846749 
L 828.785918 581.4464 
L 829.811747 578.96243 
L 830.837577 573.17543 
L 831.863407 582.239033 
L 832.889236 582.290558 
L 833.915066 576.689597 
L 834.940895 577.48357 
L 835.966725 582.834626 
L 836.992554 582.955015 
L 838.018384 577.959673 
L 839.044214 575.791659 
L 840.070043 583.567202 
L 841.095873 582.213849 
L 842.121702 577.30851 
L 843.147532 576.977585 
L 844.173362 583.388655 
L 845.199191 583.644722 
L 846.225021 578.443789 
L 847.25085 579.171937 
L 848.27668 584.23264 
L 849.302509 579.216916 
L 850.328339 579.019255 
L 851.354169 584.687057 
L 852.379998 585.211913 
L 853.405828 585.187814 
L 854.431657 580.944761 
L 855.457487 580.343907 
L 856.483316 576.290257 
L 857.509146 585.923745 
L 858.534976 581.056748 
L 859.560805 580.060489 
L 860.586635 580.404686 
L 861.612464 584.125302 
L 862.638294 579.024801 
L 863.664124 579.221889 
L 864.689953 585.463933 
L 865.715783 583.790335 
L 866.741612 579.116645 
L 867.767442 581.272362 
L 868.793271 584.953107 
L 869.819101 585.185662 
L 870.844931 581.297999 
L 871.87076 579.445567 
L 872.89659 581.058125 
L 873.922419 584.788063 
L 874.948249 592.970794 
L 875.974078 580.422707 
L 876.999908 585.669242 
L 878.025738 585.261874 
L 879.051567 581.345629 
L 880.077397 581.035893 
L 881.103226 585.874241 
L 882.129056 585.746948 
L 883.154886 581.370219 
L 884.180715 574.852159 
L 885.206545 586.845958 
L 886.232374 584.877339 
L 887.258204 581.624967 
L 888.284033 582.386259 
L 889.309863 585.867028 
L 890.335693 585.917938 
L 891.361522 581.62371 
L 892.387352 581.581287 
L 893.413181 586.438314 
L 894.439011 586.395875 
L 895.464841 578.405645 
L 896.49067 582.74479 
L 897.5165 591.198617 
L 899.568159 582.443142 
L 900.593988 584.40569 
L 901.619818 583.352966 
L 902.645648 587.576617 
L 903.671477 587.796531 
L 904.697307 583.998202 
L 905.723136 588.093391 
L 906.748966 587.493666 
L 907.774795 583.025288 
L 908.800625 583.404343 
L 909.826455 587.412704 
L 910.852284 587.748475 
L 911.878114 590.645447 
L 912.903943 583.769491 
L 913.929773 587.511011 
L 914.955603 587.165813 
L 915.981432 577.461923 
L 917.007262 583.689141 
L 918.033091 594.193087 
L 919.058921 588.286506 
L 920.08475 584.59408 
L 921.11058 584.639519 
L 922.13641 588.2953 
L 923.162239 586.291612 
L 924.188069 590.060308 
L 925.213898 585.058704 
L 926.239728 588.052334 
L 927.265557 589.124166 
L 928.291387 584.977887 
L 929.317217 584.814401 
L 930.343046 589.148688 
L 931.368876 588.591605 
L 932.394705 585.414111 
L 933.420535 584.213724 
L 934.446365 586.655361 
L 935.472194 588.558583 
L 936.498024 584.646828 
L 937.523853 585.351159 
L 938.549683 588.123497 
L 939.575512 589.279198 
L 940.601342 584.390166 
L 941.627172 583.424064 
L 942.653001 589.295232 
L 943.678831 588.829513 
L 944.70466 584.793292 
L 945.73049 584.985124 
L 946.75632 589.272879 
L 947.782149 589.118915 
L 948.807979 580.305742 
L 950.859638 589.730267 
L 951.885467 589.583503 
L 952.911297 585.80985 
L 953.937127 585.940865 
L 954.962956 591.026196 
L 955.988786 595.041412 
L 957.014615 587.680772 
L 958.040445 587.741326 
L 959.066274 591.724016 
L 960.092104 592.236144 
L 961.117934 588.333234 
L 962.143763 587.735286 
L 963.169593 591.465603 
L 964.195422 591.546463 
L 965.221252 587.117347 
L 966.247082 587.37701 
L 967.272911 590.98873 
L 968.298741 590.272863 
L 969.32457 587.99514 
L 970.3504 584.759184 
L 971.376229 591.607954 
L 972.402059 591.06388 
L 973.427889 588.214026 
L 974.453718 588.946892 
L 975.479548 591.906278 
L 976.505377 589.249579 
L 977.531207 595.135015 
L 978.557036 587.804374 
L 979.582866 592.071024 
L 980.608696 592.660397 
L 981.634525 588.886758 
L 982.660355 587.345225 
L 983.686184 592.450118 
L 984.712014 592.491513 
L 985.737844 588.355804 
L 986.763673 588.644691 
L 987.789503 587.564919 
L 988.815332 592.706651 
L 989.841162 588.384369 
L 990.866991 587.912274 
L 991.892821 592.601678 
L 992.918651 593.21261 
L 993.94448 589.303845 
L 994.97031 589.543358 
L 995.996139 593.202183 
L 997.021969 593.247492 
L 998.047799 587.029147 
L 999.073628 589.367425 
L 1000.099458 592.966091 
L 1001.125287 593.453546 
L 1002.151117 602.858432 
L 1003.176946 588.848937 
L 1004.202776 592.774162 
L 1005.228606 594.777067 
L 1006.254435 590.433986 
L 1007.280265 590.437129 
L 1008.306094 602.51136 
L 1009.331924 594.622805 
L 1010.357753 590.604078 
L 1011.383583 590.053523 
L 1012.409413 591.214964 
L 1013.435242 594.001233 
L 1014.461072 589.765095 
L 1015.486901 589.478784 
L 1016.512731 595.796904 
L 1017.538561 593.881109 
L 1018.56439 589.722776 
L 1019.59022 590.500411 
L 1020.616049 593.522712 
L 1021.641879 597.894341 
L 1022.667708 585.459322 
L 1023.693538 589.777238 
L 1024.719368 593.325557 
L 1025.745197 593.582792 
L 1026.771027 590.758168 
L 1027.796856 590.749577 
L 1028.822686 593.73872 
L 1029.848515 594.007291 
L 1030.874345 589.851269 
L 1031.900175 590.079387 
L 1032.926004 590.728152 
L 1033.951834 594.665909 
L 1034.977663 590.48213 
L 1036.003493 590.260517 
L 1037.029323 594.579154 
L 1038.055152 594.744771 
L 1039.080982 591.562211 
L 1040.106811 591.766316 
L 1041.132641 595.03477 
L 1042.15847 594.507992 
L 1043.1843 591.459619 
L 1044.21013 590.809674 
L 1045.235959 592.179913 
L 1046.261789 595.340453 
L 1047.287618 591.31298 
L 1048.313448 588.693264 
L 1049.339278 594.17474 
L 1050.365107 594.858997 
L 1051.390937 578.131581 
L 1052.416766 592.051776 
L 1053.442596 594.794688 
L 1054.468425 594.642923 
L 1055.494255 591.079686 
L 1056.520085 591.615266 
L 1057.545914 594.752767 
L 1058.571744 594.467062 
L 1059.597573 592.182739 
L 1060.623403 592.450441 
L 1061.649232 597.840591 
L 1062.675062 597.191005 
L 1063.700892 593.732223 
L 1064.726721 590.802967 
L 1065.752551 595.473361 
L 1066.77838 595.735543 
L 1067.80421 592.087797 
L 1068.83004 591.675967 
L 1069.855869 595.665703 
L 1070.881699 595.525308 
L 1071.907528 591.219276 
L 1072.933358 591.442402 
L 1073.959187 596.382849 
L 1074.985017 593.220802 
L 1076.010847 591.863342 
L 1077.036676 592.514113 
L 1079.088335 596.090084 
L 1080.114165 592.198782 
L 1081.139994 592.400447 
L 1082.165824 595.517018 
L 1083.191654 596.419487 
L 1084.217483 593.252602 
L 1086.269142 590.656572 
L 1087.294972 595.900768 
L 1088.320802 593.249256 
L 1089.346631 594.313873 
L 1090.372461 595.583038 
L 1091.39829 595.632906 
L 1092.42412 581.788671 
L 1093.449949 582.488581 
L 1094.475779 596.602881 
L 1095.501609 596.920323 
L 1096.527438 587.295867 
L 1097.553268 592.029158 
L 1098.579097 584.075611 
L 1099.604927 607.443898 
L 1100.630757 593.811163 
L 1101.656586 594.147239 
L 1102.682416 596.904845 
L 1103.708245 596.625642 
L 1104.734075 592.851449 
L 1105.759904 593.380729 
L 1106.785734 596.899901 
L 1107.811564 597.08782 
L 1108.837393 594.193637 
L 1109.863223 593.891891 
L 1110.889052 598.342104 
L 1111.914882 598.720709 
L 1112.940711 593.76169 
L 1113.966541 598.564256 
L 1114.992371 598.230813 
L 1116.0182 599.558047 
L 1117.04403 594.641139 
L 1118.069859 594.750177 
L 1119.095689 597.844124 
L 1120.121519 598.210156 
L 1121.147348 595.242604 
L 1122.173178 594.838174 
L 1123.199007 598.143952 
L 1124.224837 598.558341 
L 1125.250666 595.369638 
L 1126.276496 595.032851 
L 1127.302326 598.045311 
L 1128.328155 598.01897 
L 1129.353985 599.454042 
L 1130.379814 595.656613 
L 1131.405644 597.883112 
L 1132.431473 597.86332 
L 1133.457303 593.928663 
L 1134.483133 595.484229 
L 1135.508962 598.216447 
L 1136.534792 592.256318 
L 1137.560621 596.685092 
L 1138.586451 594.862642 
L 1139.612281 598.610159 
L 1140.63811 597.901953 
L 1141.66394 595.190844 
L 1142.689769 594.633632 
L 1143.715599 598.102405 
L 1144.741428 599.055693 
L 1145.767258 593.584084 
L 1146.793088 594.831963 
L 1147.818917 597.524309 
L 1148.844747 598.231957 
L 1149.870576 594.53913 
L 1150.896406 595.96742 
L 1151.922235 598.690075 
L 1152.948065 597.912295 
L 1153.973895 592.837463 
L 1154.999724 594.774101 
L 1156.025554 598.320539 
L 1157.051383 598.878583 
L 1158.077213 594.925005 
L 1159.103043 591.788567 
L 1160.128872 595.752202 
L 1161.154702 598.709626 
L 1162.180531 595.932736 
L 1163.206361 595.933425 
L 1164.23219 601.805915 
L 1165.25802 599.843507 
L 1166.28385 601.439235 
L 1167.309679 597.530345 
L 1168.335509 600.15733 
L 1169.361338 600.412433 
L 1170.387168 596.671767 
L 1171.412998 596.618908 
L 1172.438827 600.071084 
L 1173.464657 600.024262 
L 1174.490486 596.421114 
L 1175.516316 596.003902 
L 1176.542145 598.940821 
L 1177.567975 599.775578 
L 1178.593805 596.340643 
L 1179.619634 596.763399 
L 1180.645464 599.869673 
L 1181.671293 600.023689 
L 1182.697123 596.12382 
L 1183.722952 596.76997 
L 1184.748782 600.017873 
L 1185.774612 599.541204 
L 1186.800441 596.58953 
L 1187.826271 597.020909 
L 1188.8521 587.154784 
L 1189.87793 600.860435 
L 1190.90376 596.85309 
L 1191.929589 596.970211 
L 1192.955419 600.349809 
L 1193.981248 600.448979 
L 1195.007078 596.985957 
L 1196.032907 596.985643 
L 1197.058737 600.390819 
L 1198.084567 600.995647 
L 1199.110396 596.917912 
L 1200.136226 596.485729 
L 1201.162055 600.031602 
L 1202.187885 600.661502 
L 1203.213714 596.749949 
L 1204.239544 598.832469 
L 1205.265374 600.386367 
L 1206.291203 600.383421 
L 1207.317033 597.164688 
L 1208.342862 601.505598 
L 1209.368692 600.794398 
L 1210.394522 601.022936 
L 1211.420351 597.644943 
L 1212.446181 597.989362 
L 1213.47201 601.131339 
L 1214.49784 601.625906 
L 1215.523669 598.009521 
L 1216.549499 598.145434 
L 1217.575329 601.614401 
L 1218.601158 605.769455 
L 1219.626988 599.590827 
L 1220.652817 599.009647 
L 1221.678647 601.225874 
L 1222.704477 602.072484 
L 1223.730306 598.672137 
L 1224.756136 598.295384 
L 1225.781965 601.524603 
L 1226.807795 601.683441 
L 1227.833624 597.641636 
L 1228.859454 598.545957 
L 1229.885284 601.483268 
L 1230.911113 601.340341 
L 1231.936943 598.347777 
L 1232.962772 598.714886 
L 1233.988602 601.723543 
L 1235.014431 601.897056 
L 1236.040261 598.784842 
L 1237.066091 601.800887 
L 1238.09192 601.60767 
L 1239.11775 601.997223 
L 1240.143579 598.81082 
L 1241.169409 598.836895 
L 1242.195239 615.6 
L 1243.221068 601.789484 
L 1244.246898 598.815646 
L 1245.272727 598.818859 
L 1245.272727 598.818859 
" style="fill:none;stroke:#ff7f0e;stroke-linecap:square;stroke-width:1.5;"/>
   </g>
   <g id="patch_3">
    <path d="M 180 640.8 
L 180 86.4 
" style="fill:none;stroke:#000000;stroke-linecap:square;stroke-linejoin:miter;stroke-width:0.8;"/>
   </g>
   <g id="patch_4">
    <path d="M 1296 640.8 
L 1296 86.4 
" style="fill:none;stroke:#000000;stroke-linecap:square;stroke-linejoin:miter;stroke-width:0.8;"/>
   </g>
   <g id="patch_5">
    <path d="M 180 640.8 
L 1296 640.8 
" style="fill:none;stroke:#000000;stroke-linecap:square;stroke-linejoin:miter;stroke-width:0.8;"/>
   </g>
   <g id="patch_6">
    <path d="M 180 86.4 
L 1296 86.4 
" style="fill:none;stroke:#000000;stroke-linecap:square;stroke-linejoin:miter;stroke-width:0.8;"/>
   </g>
   <g id="text_19">
    <!-- Ease of movement (EoM, EMV) Speedup -->
    <defs>
     <path d="M 9.8125 72.90625 
L 55.90625 72.90625 
L 55.90625 64.59375 
L 19.671875 64.59375 
L 19.671875 43.015625 
L 54.390625 43.015625 
L 54.390625 34.71875 
L 19.671875 34.71875 
L 19.671875 8.296875 
L 56.78125 8.296875 
L 56.78125 0 
L 9.8125 0 
z
" id="DejaVuSans-69"/>
     <path d="M 34.28125 27.484375 
Q 23.390625 27.484375 19.1875 25 
Q 14.984375 22.515625 14.984375 16.5 
Q 14.984375 11.71875 18.140625 8.90625 
Q 21.296875 6.109375 26.703125 6.109375 
Q 34.1875 6.109375 38.703125 11.40625 
Q 43.21875 16.703125 43.21875 25.484375 
L 43.21875 27.484375 
z
M 52.203125 31.203125 
L 52.203125 0 
L 43.21875 0 
L 43.21875 8.296875 
Q 40.140625 3.328125 35.546875 0.953125 
Q 30.953125 -1.421875 24.3125 -1.421875 
Q 15.921875 -1.421875 10.953125 3.296875 
Q 6 8.015625 6 15.921875 
Q 6 25.140625 12.171875 29.828125 
Q 18.359375 34.515625 30.609375 34.515625 
L 43.21875 34.515625 
L 43.21875 35.40625 
Q 43.21875 41.609375 39.140625 45 
Q 35.0625 48.390625 27.6875 48.390625 
Q 23 48.390625 18.546875 47.265625 
Q 14.109375 46.140625 10.015625 43.890625 
L 10.015625 52.203125 
Q 14.9375 54.109375 19.578125 55.046875 
Q 24.21875 56 28.609375 56 
Q 40.484375 56 46.34375 49.84375 
Q 52.203125 43.703125 52.203125 31.203125 
z
" id="DejaVuSans-97"/>
     <path id="DejaVuSans-32"/>
     <path d="M 30.609375 48.390625 
Q 23.390625 48.390625 19.1875 42.75 
Q 14.984375 37.109375 14.984375 27.296875 
Q 14.984375 17.484375 19.15625 11.84375 
Q 23.34375 6.203125 30.609375 6.203125 
Q 37.796875 6.203125 41.984375 11.859375 
Q 46.1875 17.53125 46.1875 27.296875 
Q 46.1875 37.015625 41.984375 42.703125 
Q 37.796875 48.390625 30.609375 48.390625 
z
M 30.609375 56 
Q 42.328125 56 49.015625 48.375 
Q 55.71875 40.765625 55.71875 27.296875 
Q 55.71875 13.875 49.015625 6.21875 
Q 42.328125 -1.421875 30.609375 -1.421875 
Q 18.84375 -1.421875 12.171875 6.21875 
Q 5.515625 13.875 5.515625 27.296875 
Q 5.515625 40.765625 12.171875 48.375 
Q 18.84375 56 30.609375 56 
z
" id="DejaVuSans-111"/>
     <path d="M 37.109375 75.984375 
L 37.109375 68.5 
L 28.515625 68.5 
Q 23.6875 68.5 21.796875 66.546875 
Q 19.921875 64.59375 19.921875 59.515625 
L 19.921875 54.6875 
L 34.71875 54.6875 
L 34.71875 47.703125 
L 19.921875 47.703125 
L 19.921875 0 
L 10.890625 0 
L 10.890625 47.703125 
L 2.296875 47.703125 
L 2.296875 54.6875 
L 10.890625 54.6875 
L 10.890625 58.5 
Q 10.890625 67.625 15.140625 71.796875 
Q 19.390625 75.984375 28.609375 75.984375 
z
" id="DejaVuSans-102"/>
     <path d="M 52 44.1875 
Q 55.375 50.25 60.0625 53.125 
Q 64.75 56 71.09375 56 
Q 79.640625 56 84.28125 50.015625 
Q 88.921875 44.046875 88.921875 33.015625 
L 88.921875 0 
L 79.890625 0 
L 79.890625 32.71875 
Q 79.890625 40.578125 77.09375 44.375 
Q 74.3125 48.1875 68.609375 48.1875 
Q 61.625 48.1875 57.5625 43.546875 
Q 53.515625 38.921875 53.515625 30.90625 
L 53.515625 0 
L 44.484375 0 
L 44.484375 32.71875 
Q 44.484375 40.625 41.703125 44.40625 
Q 38.921875 48.1875 33.109375 48.1875 
Q 26.21875 48.1875 22.15625 43.53125 
Q 18.109375 38.875 18.109375 30.90625 
L 18.109375 0 
L 9.078125 0 
L 9.078125 54.6875 
L 18.109375 54.6875 
L 18.109375 46.1875 
Q 21.1875 51.21875 25.484375 53.609375 
Q 29.78125 56 35.6875 56 
Q 41.65625 56 45.828125 52.96875 
Q 50 49.953125 52 44.1875 
z
" id="DejaVuSans-109"/>
     <path d="M 2.984375 54.6875 
L 12.5 54.6875 
L 29.59375 8.796875 
L 46.6875 54.6875 
L 56.203125 54.6875 
L 35.6875 0 
L 23.484375 0 
z
" id="DejaVuSans-118"/>
     <path d="M 18.3125 70.21875 
L 18.3125 54.6875 
L 36.8125 54.6875 
L 36.8125 47.703125 
L 18.3125 47.703125 
L 18.3125 18.015625 
Q 18.3125 11.328125 20.140625 9.421875 
Q 21.96875 7.515625 27.59375 7.515625 
L 36.8125 7.515625 
L 36.8125 0 
L 27.59375 0 
Q 17.1875 0 13.234375 3.875 
Q 9.28125 7.765625 9.28125 18.015625 
L 9.28125 47.703125 
L 2.6875 47.703125 
L 2.6875 54.6875 
L 9.28125 54.6875 
L 9.28125 70.21875 
z
" id="DejaVuSans-116"/>
     <path d="M 31 75.875 
Q 24.46875 64.65625 21.28125 53.65625 
Q 18.109375 42.671875 18.109375 31.390625 
Q 18.109375 20.125 21.3125 9.0625 
Q 24.515625 -2 31 -13.1875 
L 23.1875 -13.1875 
Q 15.875 -1.703125 12.234375 9.375 
Q 8.59375 20.453125 8.59375 31.390625 
Q 8.59375 42.28125 12.203125 53.3125 
Q 15.828125 64.359375 23.1875 75.875 
z
" id="DejaVuSans-40"/>
     <path d="M 9.8125 72.90625 
L 24.515625 72.90625 
L 43.109375 23.296875 
L 61.8125 72.90625 
L 76.515625 72.90625 
L 76.515625 0 
L 66.890625 0 
L 66.890625 64.015625 
L 48.09375 14.015625 
L 38.1875 14.015625 
L 19.390625 64.015625 
L 19.390625 0 
L 9.8125 0 
z
" id="DejaVuSans-77"/>
     <path d="M 11.71875 12.40625 
L 22.015625 12.40625 
L 22.015625 4 
L 14.015625 -11.625 
L 7.71875 -11.625 
L 11.71875 4 
z
" id="DejaVuSans-44"/>
     <path d="M 28.609375 0 
L 0.78125 72.90625 
L 11.078125 72.90625 
L 34.1875 11.53125 
L 57.328125 72.90625 
L 67.578125 72.90625 
L 39.796875 0 
z
" id="DejaVuSans-86"/>
     <path d="M 8.015625 75.875 
L 15.828125 75.875 
Q 23.140625 64.359375 26.78125 53.3125 
Q 30.421875 42.28125 30.421875 31.390625 
Q 30.421875 20.453125 26.78125 9.375 
Q 23.140625 -1.703125 15.828125 -13.1875 
L 8.015625 -13.1875 
Q 14.5 -2 17.703125 9.0625 
Q 20.90625 20.125 20.90625 31.390625 
Q 20.90625 42.671875 17.703125 53.65625 
Q 14.5 64.65625 8.015625 75.875 
z
" id="DejaVuSans-41"/>
     <path d="M 53.515625 70.515625 
L 53.515625 60.890625 
Q 47.90625 63.578125 42.921875 64.890625 
Q 37.9375 66.21875 33.296875 66.21875 
Q 25.25 66.21875 20.875 63.09375 
Q 16.5 59.96875 16.5 54.203125 
Q 16.5 49.359375 19.40625 46.890625 
Q 22.3125 44.4375 30.421875 42.921875 
L 36.375 41.703125 
Q 47.40625 39.59375 52.65625 34.296875 
Q 57.90625 29 57.90625 20.125 
Q 57.90625 9.515625 50.796875 4.046875 
Q 43.703125 -1.421875 29.984375 -1.421875 
Q 24.8125 -1.421875 18.96875 -0.25 
Q 13.140625 0.921875 6.890625 3.21875 
L 6.890625 13.375 
Q 12.890625 10.015625 18.65625 8.296875 
Q 24.421875 6.59375 29.984375 6.59375 
Q 38.421875 6.59375 43.015625 9.90625 
Q 47.609375 13.234375 47.609375 19.390625 
Q 47.609375 24.75 44.3125 27.78125 
Q 41.015625 30.8125 33.5 32.328125 
L 27.484375 33.5 
Q 16.453125 35.6875 11.515625 40.375 
Q 6.59375 45.0625 6.59375 53.421875 
Q 6.59375 63.09375 13.40625 68.65625 
Q 20.21875 74.21875 32.171875 74.21875 
Q 37.3125 74.21875 42.625 73.28125 
Q 47.953125 72.359375 53.515625 70.515625 
z
" id="DejaVuSans-83"/>
    </defs>
    <g transform="translate(617.22375 80.4)scale(0.12 -0.12)">
     <use xlink:href="#DejaVuSans-69"/>
     <use x="63.183594" xlink:href="#DejaVuSans-97"/>
     <use x="124.462891" xlink:href="#DejaVuSans-115"/>
     <use x="176.5625" xlink:href="#DejaVuSans-101"/>
     <use x="238.085938" xlink:href="#DejaVuSans-32"/>
     <use x="269.873047" xlink:href="#DejaVuSans-111"/>
     <use x="331.054688" xlink:href="#DejaVuSans-102"/>
     <use x="366.259766" xlink:href="#DejaVuSans-32"/>
     <use x="398.046875" xlink:href="#DejaVuSans-109"/>
     <use x="495.458984" xlink:href="#DejaVuSans-111"/>
     <use x="556.640625" xlink:href="#DejaVuSans-118"/>
     <use x="615.820312" xlink:href="#DejaVuSans-101"/>
     <use x="677.34375" xlink:href="#DejaVuSans-109"/>
     <use x="774.755859" xlink:href="#DejaVuSans-101"/>
     <use x="836.279297" xlink:href="#DejaVuSans-110"/>
     <use x="899.658203" xlink:href="#DejaVuSans-116"/>
     <use x="938.867188" xlink:href="#DejaVuSans-32"/>
     <use x="970.654297" xlink:href="#DejaVuSans-40"/>
     <use x="1009.667969" xlink:href="#DejaVuSans-69"/>
     <use x="1072.851562" xlink:href="#DejaVuSans-111"/>
     <use x="1134.033203" xlink:href="#DejaVuSans-77"/>
     <use x="1220.3125" xlink:href="#DejaVuSans-44"/>
     <use x="1252.099609" xlink:href="#DejaVuSans-32"/>
     <use x="1283.886719" xlink:href="#DejaVuSans-69"/>
     <use x="1347.070312" xlink:href="#DejaVuSans-77"/>
     <use x="1433.349609" xlink:href="#DejaVuSans-86"/>
     <use x="1501.757812" xlink:href="#DejaVuSans-41"/>
     <use x="1540.771484" xlink:href="#DejaVuSans-32"/>
     <use x="1572.558594" xlink:href="#DejaVuSans-83"/>
     <use x="1636.035156" xlink:href="#DejaVuSans-112"/>
     <use x="1699.511719" xlink:href="#DejaVuSans-101"/>
     <use x="1761.035156" xlink:href="#DejaVuSans-101"/>
     <use x="1822.558594" xlink:href="#DejaVuSans-100"/>
     <use x="1886.035156" xlink:href="#DejaVuSans-117"/>
     <use x="1949.414062" xlink:href="#DejaVuSans-112"/>
    </g>
   </g>
   <g id="legend_1">
    <g id="patch_7">
     <path d="M 1185.373437 123.75625 
L 1289 123.75625 
Q 1291 123.75625 1291 121.75625 
L 1291 93.4 
Q 1291 91.4 1289 91.4 
L 1185.373437 91.4 
Q 1183.373437 91.4 1183.373437 93.4 
L 1183.373437 121.75625 
Q 1183.373437 123.75625 1185.373437 123.75625 
z
" style="fill:#ffffff;opacity:0.8;stroke:#cccccc;stroke-linejoin:miter;"/>
    </g>
    <g id="line2d_19">
     <path d="M 1187.373437 99.498437 
L 1207.373437 99.498437 
" style="fill:none;stroke:#1f77b4;stroke-linecap:square;stroke-width:1.5;"/>
    </g>
    <g id="line2d_20"/>
    <g id="text_20">
     <!-- numpy.float32 -->
     <defs>
      <path d="M 32.171875 -5.078125 
Q 28.375 -14.84375 24.75 -17.8125 
Q 21.140625 -20.796875 15.09375 -20.796875 
L 7.90625 -20.796875 
L 7.90625 -13.28125 
L 13.1875 -13.28125 
Q 16.890625 -13.28125 18.9375 -11.515625 
Q 21 -9.765625 23.484375 -3.21875 
L 25.09375 0.875 
L 2.984375 54.6875 
L 12.5 54.6875 
L 29.59375 11.921875 
L 46.6875 54.6875 
L 56.203125 54.6875 
z
" id="DejaVuSans-121"/>
      <path d="M 9.421875 75.984375 
L 18.40625 75.984375 
L 18.40625 0 
L 9.421875 0 
z
" id="DejaVuSans-108"/>
     </defs>
     <g transform="translate(1215.373437 102.998437)scale(0.1 -0.1)">
      <use xlink:href="#DejaVuSans-110"/>
      <use x="63.378906" xlink:href="#DejaVuSans-117"/>
      <use x="126.757812" xlink:href="#DejaVuSans-109"/>
      <use x="224.169922" xlink:href="#DejaVuSans-112"/>
      <use x="287.646484" xlink:href="#DejaVuSans-121"/>
      <use x="332.576172" xlink:href="#DejaVuSans-46"/>
      <use x="364.363281" xlink:href="#DejaVuSans-102"/>
      <use x="399.568359" xlink:href="#DejaVuSans-108"/>
      <use x="427.351562" xlink:href="#DejaVuSans-111"/>
      <use x="488.533203" xlink:href="#DejaVuSans-97"/>
      <use x="549.8125" xlink:href="#DejaVuSans-116"/>
      <use x="589.021484" xlink:href="#DejaVuSans-51"/>
      <use x="652.644531" xlink:href="#DejaVuSans-50"/>
     </g>
    </g>
    <g id="line2d_21">
     <path d="M 1187.373437 114.176562 
L 1207.373437 114.176562 
" style="fill:none;stroke:#ff7f0e;stroke-linecap:square;stroke-width:1.5;"/>
    </g>
    <g id="line2d_22"/>
    <g id="text_21">
     <!-- numpy.float64 -->
     <g transform="translate(1215.373437 117.676562)scale(0.1 -0.1)">
      <use xlink:href="#DejaVuSans-110"/>
      <use x="63.378906" xlink:href="#DejaVuSans-117"/>
      <use x="126.757812" xlink:href="#DejaVuSans-109"/>
      <use x="224.169922" xlink:href="#DejaVuSans-112"/>
      <use x="287.646484" xlink:href="#DejaVuSans-121"/>
      <use x="332.576172" xlink:href="#DejaVuSans-46"/>
      <use x="364.363281" xlink:href="#DejaVuSans-102"/>
      <use x="399.568359" xlink:href="#DejaVuSans-108"/>
      <use x="427.351562" xlink:href="#DejaVuSans-111"/>
      <use x="488.533203" xlink:href="#DejaVuSans-97"/>
      <use x="549.8125" xlink:href="#DejaVuSans-116"/>
      <use x="589.021484" xlink:href="#DejaVuSans-54"/>
      <use x="652.644531" xlink:href="#DejaVuSans-52"/>
     </g>
    </g>
   </g>
  </g>
 </g>
 <defs>
  <clipPath id="pdadedd736b">
   <rect height="554.4" width="1116" x="180" y="86.4"/>
  </clipPath>
 </defs>
</svg>
