<?xml version="1.0" encoding="utf-8" standalone="no"?>
<!DOCTYPE svg PUBLIC "-//W3C//DTD SVG 1.1//EN"
  "http://www.w3.org/Graphics/SVG/1.1/DTD/svg11.dtd">
<!-- Created with matplotlib (https://matplotlib.org/) -->
<svg height="720pt" version="1.1" viewBox="0 0 1440 720" width="1440pt" xmlns="http://www.w3.org/2000/svg" xmlns:xlink="http://www.w3.org/1999/xlink">
 <defs>
  <style type="text/css">
*{stroke-linecap:butt;stroke-linejoin:round;}
  </style>
 </defs>
 <g id="figure_1">
  <g id="patch_1">
   <path d="M 0 720 
L 1440 720 
L 1440 0 
L 0 0 
z
" style="fill:#ffffff;"/>
  </g>
  <g id="axes_1">
   <g id="patch_2">
    <path d="M 180 640.8 
L 1296 640.8 
L 1296 86.4 
L 180 86.4 
z
" style="fill:#ffffff;"/>
   </g>
   <g id="matplotlib.axis_1">
    <g id="xtick_1">
     <g id="line2d_1">
      <defs>
       <path d="M 0 0 
L 0 3.5 
" id="me1d4a4696b" style="stroke:#000000;stroke-width:0.8;"/>
      </defs>
      <g>
       <use style="stroke:#000000;stroke-width:0.8;" x="333.310231" xlink:href="#me1d4a4696b" y="640.8"/>
      </g>
     </g>
     <g id="text_1">
      <!-- 100.0 -->
      <defs>
       <path d="M 12.40625 8.296875 
L 28.515625 8.296875 
L 28.515625 63.921875 
L 10.984375 60.40625 
L 10.984375 69.390625 
L 28.421875 72.90625 
L 38.28125 72.90625 
L 38.28125 8.296875 
L 54.390625 8.296875 
L 54.390625 0 
L 12.40625 0 
z
" id="DejaVuSans-49"/>
       <path d="M 31.78125 66.40625 
Q 24.171875 66.40625 20.328125 58.90625 
Q 16.5 51.421875 16.5 36.375 
Q 16.5 21.390625 20.328125 13.890625 
Q 24.171875 6.390625 31.78125 6.390625 
Q 39.453125 6.390625 43.28125 13.890625 
Q 47.125 21.390625 47.125 36.375 
Q 47.125 51.421875 43.28125 58.90625 
Q 39.453125 66.40625 31.78125 66.40625 
z
M 31.78125 74.21875 
Q 44.046875 74.21875 50.515625 64.515625 
Q 56.984375 54.828125 56.984375 36.375 
Q 56.984375 17.96875 50.515625 8.265625 
Q 44.046875 -1.421875 31.78125 -1.421875 
Q 19.53125 -1.421875 13.0625 8.265625 
Q 6.59375 17.96875 6.59375 36.375 
Q 6.59375 54.828125 13.0625 64.515625 
Q 19.53125 74.21875 31.78125 74.21875 
z
" id="DejaVuSans-48"/>
       <path d="M 10.6875 12.40625 
L 21 12.40625 
L 21 0 
L 10.6875 0 
z
" id="DejaVuSans-46"/>
      </defs>
      <g transform="translate(318.996168 655.398438)scale(0.1 -0.1)">
       <use xlink:href="#DejaVuSans-49"/>
       <use x="63.623047" xlink:href="#DejaVuSans-48"/>
       <use x="127.246094" xlink:href="#DejaVuSans-48"/>
       <use x="190.869141" xlink:href="#DejaVuSans-46"/>
       <use x="222.65625" xlink:href="#DejaVuSans-48"/>
      </g>
     </g>
    </g>
    <g id="xtick_2">
     <g id="line2d_2">
      <g>
       <use style="stroke:#000000;stroke-width:0.8;" x="435.893189" xlink:href="#me1d4a4696b" y="640.8"/>
      </g>
     </g>
     <g id="text_2">
      <!-- 200.0 -->
      <defs>
       <path d="M 19.1875 8.296875 
L 53.609375 8.296875 
L 53.609375 0 
L 7.328125 0 
L 7.328125 8.296875 
Q 12.9375 14.109375 22.625 23.890625 
Q 32.328125 33.6875 34.8125 36.53125 
Q 39.546875 41.84375 41.421875 45.53125 
Q 43.3125 49.21875 43.3125 52.78125 
Q 43.3125 58.59375 39.234375 62.25 
Q 35.15625 65.921875 28.609375 65.921875 
Q 23.96875 65.921875 18.8125 64.3125 
Q 13.671875 62.703125 7.8125 59.421875 
L 7.8125 69.390625 
Q 13.765625 71.78125 18.9375 73 
Q 24.125 74.21875 28.421875 74.21875 
Q 39.75 74.21875 46.484375 68.546875 
Q 53.21875 62.890625 53.21875 53.421875 
Q 53.21875 48.921875 51.53125 44.890625 
Q 49.859375 40.875 45.40625 35.40625 
Q 44.1875 33.984375 37.640625 27.21875 
Q 31.109375 20.453125 19.1875 8.296875 
z
" id="DejaVuSans-50"/>
      </defs>
      <g transform="translate(421.579126 655.398438)scale(0.1 -0.1)">
       <use xlink:href="#DejaVuSans-50"/>
       <use x="63.623047" xlink:href="#DejaVuSans-48"/>
       <use x="127.246094" xlink:href="#DejaVuSans-48"/>
       <use x="190.869141" xlink:href="#DejaVuSans-46"/>
       <use x="222.65625" xlink:href="#DejaVuSans-48"/>
      </g>
     </g>
    </g>
    <g id="xtick_3">
     <g id="line2d_3">
      <g>
       <use style="stroke:#000000;stroke-width:0.8;" x="538.476147" xlink:href="#me1d4a4696b" y="640.8"/>
      </g>
     </g>
     <g id="text_3">
      <!-- 300.0 -->
      <defs>
       <path d="M 40.578125 39.3125 
Q 47.65625 37.796875 51.625 33 
Q 55.609375 28.21875 55.609375 21.1875 
Q 55.609375 10.40625 48.1875 4.484375 
Q 40.765625 -1.421875 27.09375 -1.421875 
Q 22.515625 -1.421875 17.65625 -0.515625 
Q 12.796875 0.390625 7.625 2.203125 
L 7.625 11.71875 
Q 11.71875 9.328125 16.59375 8.109375 
Q 21.484375 6.890625 26.8125 6.890625 
Q 36.078125 6.890625 40.9375 10.546875 
Q 45.796875 14.203125 45.796875 21.1875 
Q 45.796875 27.640625 41.28125 31.265625 
Q 36.765625 34.90625 28.71875 34.90625 
L 20.21875 34.90625 
L 20.21875 43.015625 
L 29.109375 43.015625 
Q 36.375 43.015625 40.234375 45.921875 
Q 44.09375 48.828125 44.09375 54.296875 
Q 44.09375 59.90625 40.109375 62.90625 
Q 36.140625 65.921875 28.71875 65.921875 
Q 24.65625 65.921875 20.015625 65.03125 
Q 15.375 64.15625 9.8125 62.3125 
L 9.8125 71.09375 
Q 15.4375 72.65625 20.34375 73.4375 
Q 25.25 74.21875 29.59375 74.21875 
Q 40.828125 74.21875 47.359375 69.109375 
Q 53.90625 64.015625 53.90625 55.328125 
Q 53.90625 49.265625 50.4375 45.09375 
Q 46.96875 40.921875 40.578125 39.3125 
z
" id="DejaVuSans-51"/>
      </defs>
      <g transform="translate(524.162084 655.398438)scale(0.1 -0.1)">
       <use xlink:href="#DejaVuSans-51"/>
       <use x="63.623047" xlink:href="#DejaVuSans-48"/>
       <use x="127.246094" xlink:href="#DejaVuSans-48"/>
       <use x="190.869141" xlink:href="#DejaVuSans-46"/>
       <use x="222.65625" xlink:href="#DejaVuSans-48"/>
      </g>
     </g>
    </g>
    <g id="xtick_4">
     <g id="line2d_4">
      <g>
       <use style="stroke:#000000;stroke-width:0.8;" x="641.059105" xlink:href="#me1d4a4696b" y="640.8"/>
      </g>
     </g>
     <g id="text_4">
      <!-- 400.0 -->
      <defs>
       <path d="M 37.796875 64.3125 
L 12.890625 25.390625 
L 37.796875 25.390625 
z
M 35.203125 72.90625 
L 47.609375 72.90625 
L 47.609375 25.390625 
L 58.015625 25.390625 
L 58.015625 17.1875 
L 47.609375 17.1875 
L 47.609375 0 
L 37.796875 0 
L 37.796875 17.1875 
L 4.890625 17.1875 
L 4.890625 26.703125 
z
" id="DejaVuSans-52"/>
      </defs>
      <g transform="translate(626.745042 655.398438)scale(0.1 -0.1)">
       <use xlink:href="#DejaVuSans-52"/>
       <use x="63.623047" xlink:href="#DejaVuSans-48"/>
       <use x="127.246094" xlink:href="#DejaVuSans-48"/>
       <use x="190.869141" xlink:href="#DejaVuSans-46"/>
       <use x="222.65625" xlink:href="#DejaVuSans-48"/>
      </g>
     </g>
    </g>
    <g id="xtick_5">
     <g id="line2d_5">
      <g>
       <use style="stroke:#000000;stroke-width:0.8;" x="743.642063" xlink:href="#me1d4a4696b" y="640.8"/>
      </g>
     </g>
     <g id="text_5">
      <!-- 500.0 -->
      <defs>
       <path d="M 10.796875 72.90625 
L 49.515625 72.90625 
L 49.515625 64.59375 
L 19.828125 64.59375 
L 19.828125 46.734375 
Q 21.96875 47.46875 24.109375 47.828125 
Q 26.265625 48.1875 28.421875 48.1875 
Q 40.625 48.1875 47.75 41.5 
Q 54.890625 34.8125 54.890625 23.390625 
Q 54.890625 11.625 47.5625 5.09375 
Q 40.234375 -1.421875 26.90625 -1.421875 
Q 22.3125 -1.421875 17.546875 -0.640625 
Q 12.796875 0.140625 7.71875 1.703125 
L 7.71875 11.625 
Q 12.109375 9.234375 16.796875 8.0625 
Q 21.484375 6.890625 26.703125 6.890625 
Q 35.15625 6.890625 40.078125 11.328125 
Q 45.015625 15.765625 45.015625 23.390625 
Q 45.015625 31 40.078125 35.4375 
Q 35.15625 39.890625 26.703125 39.890625 
Q 22.75 39.890625 18.8125 39.015625 
Q 14.890625 38.140625 10.796875 36.28125 
z
" id="DejaVuSans-53"/>
      </defs>
      <g transform="translate(729.328 655.398438)scale(0.1 -0.1)">
       <use xlink:href="#DejaVuSans-53"/>
       <use x="63.623047" xlink:href="#DejaVuSans-48"/>
       <use x="127.246094" xlink:href="#DejaVuSans-48"/>
       <use x="190.869141" xlink:href="#DejaVuSans-46"/>
       <use x="222.65625" xlink:href="#DejaVuSans-48"/>
      </g>
     </g>
    </g>
    <g id="xtick_6">
     <g id="line2d_6">
      <g>
       <use style="stroke:#000000;stroke-width:0.8;" x="846.225021" xlink:href="#me1d4a4696b" y="640.8"/>
      </g>
     </g>
     <g id="text_6">
      <!-- 600.0 -->
      <defs>
       <path d="M 33.015625 40.375 
Q 26.375 40.375 22.484375 35.828125 
Q 18.609375 31.296875 18.609375 23.390625 
Q 18.609375 15.53125 22.484375 10.953125 
Q 26.375 6.390625 33.015625 6.390625 
Q 39.65625 6.390625 43.53125 10.953125 
Q 47.40625 15.53125 47.40625 23.390625 
Q 47.40625 31.296875 43.53125 35.828125 
Q 39.65625 40.375 33.015625 40.375 
z
M 52.59375 71.296875 
L 52.59375 62.3125 
Q 48.875 64.0625 45.09375 64.984375 
Q 41.3125 65.921875 37.59375 65.921875 
Q 27.828125 65.921875 22.671875 59.328125 
Q 17.53125 52.734375 16.796875 39.40625 
Q 19.671875 43.65625 24.015625 45.921875 
Q 28.375 48.1875 33.59375 48.1875 
Q 44.578125 48.1875 50.953125 41.515625 
Q 57.328125 34.859375 57.328125 23.390625 
Q 57.328125 12.15625 50.6875 5.359375 
Q 44.046875 -1.421875 33.015625 -1.421875 
Q 20.359375 -1.421875 13.671875 8.265625 
Q 6.984375 17.96875 6.984375 36.375 
Q 6.984375 53.65625 15.1875 63.9375 
Q 23.390625 74.21875 37.203125 74.21875 
Q 40.921875 74.21875 44.703125 73.484375 
Q 48.484375 72.75 52.59375 71.296875 
z
" id="DejaVuSans-54"/>
      </defs>
      <g transform="translate(831.910958 655.398438)scale(0.1 -0.1)">
       <use xlink:href="#DejaVuSans-54"/>
       <use x="63.623047" xlink:href="#DejaVuSans-48"/>
       <use x="127.246094" xlink:href="#DejaVuSans-48"/>
       <use x="190.869141" xlink:href="#DejaVuSans-46"/>
       <use x="222.65625" xlink:href="#DejaVuSans-48"/>
      </g>
     </g>
    </g>
    <g id="xtick_7">
     <g id="line2d_7">
      <g>
       <use style="stroke:#000000;stroke-width:0.8;" x="948.807979" xlink:href="#me1d4a4696b" y="640.8"/>
      </g>
     </g>
     <g id="text_7">
      <!-- 700.0 -->
      <defs>
       <path d="M 8.203125 72.90625 
L 55.078125 72.90625 
L 55.078125 68.703125 
L 28.609375 0 
L 18.3125 0 
L 43.21875 64.59375 
L 8.203125 64.59375 
z
" id="DejaVuSans-55"/>
      </defs>
      <g transform="translate(934.493916 655.398438)scale(0.1 -0.1)">
       <use xlink:href="#DejaVuSans-55"/>
       <use x="63.623047" xlink:href="#DejaVuSans-48"/>
       <use x="127.246094" xlink:href="#DejaVuSans-48"/>
       <use x="190.869141" xlink:href="#DejaVuSans-46"/>
       <use x="222.65625" xlink:href="#DejaVuSans-48"/>
      </g>
     </g>
    </g>
    <g id="xtick_8">
     <g id="line2d_8">
      <g>
       <use style="stroke:#000000;stroke-width:0.8;" x="1051.390937" xlink:href="#me1d4a4696b" y="640.8"/>
      </g>
     </g>
     <g id="text_8">
      <!-- 800.0 -->
      <defs>
       <path d="M 31.78125 34.625 
Q 24.75 34.625 20.71875 30.859375 
Q 16.703125 27.09375 16.703125 20.515625 
Q 16.703125 13.921875 20.71875 10.15625 
Q 24.75 6.390625 31.78125 6.390625 
Q 38.8125 6.390625 42.859375 10.171875 
Q 46.921875 13.96875 46.921875 20.515625 
Q 46.921875 27.09375 42.890625 30.859375 
Q 38.875 34.625 31.78125 34.625 
z
M 21.921875 38.8125 
Q 15.578125 40.375 12.03125 44.71875 
Q 8.5 49.078125 8.5 55.328125 
Q 8.5 64.0625 14.71875 69.140625 
Q 20.953125 74.21875 31.78125 74.21875 
Q 42.671875 74.21875 48.875 69.140625 
Q 55.078125 64.0625 55.078125 55.328125 
Q 55.078125 49.078125 51.53125 44.71875 
Q 48 40.375 41.703125 38.8125 
Q 48.828125 37.15625 52.796875 32.3125 
Q 56.78125 27.484375 56.78125 20.515625 
Q 56.78125 9.90625 50.3125 4.234375 
Q 43.84375 -1.421875 31.78125 -1.421875 
Q 19.734375 -1.421875 13.25 4.234375 
Q 6.78125 9.90625 6.78125 20.515625 
Q 6.78125 27.484375 10.78125 32.3125 
Q 14.796875 37.15625 21.921875 38.8125 
z
M 18.3125 54.390625 
Q 18.3125 48.734375 21.84375 45.5625 
Q 25.390625 42.390625 31.78125 42.390625 
Q 38.140625 42.390625 41.71875 45.5625 
Q 45.3125 48.734375 45.3125 54.390625 
Q 45.3125 60.0625 41.71875 63.234375 
Q 38.140625 66.40625 31.78125 66.40625 
Q 25.390625 66.40625 21.84375 63.234375 
Q 18.3125 60.0625 18.3125 54.390625 
z
" id="DejaVuSans-56"/>
      </defs>
      <g transform="translate(1037.076874 655.398438)scale(0.1 -0.1)">
       <use xlink:href="#DejaVuSans-56"/>
       <use x="63.623047" xlink:href="#DejaVuSans-48"/>
       <use x="127.246094" xlink:href="#DejaVuSans-48"/>
       <use x="190.869141" xlink:href="#DejaVuSans-46"/>
       <use x="222.65625" xlink:href="#DejaVuSans-48"/>
      </g>
     </g>
    </g>
    <g id="xtick_9">
     <g id="line2d_9">
      <g>
       <use style="stroke:#000000;stroke-width:0.8;" x="1153.973895" xlink:href="#me1d4a4696b" y="640.8"/>
      </g>
     </g>
     <g id="text_9">
      <!-- 900.0 -->
      <defs>
       <path d="M 10.984375 1.515625 
L 10.984375 10.5 
Q 14.703125 8.734375 18.5 7.8125 
Q 22.3125 6.890625 25.984375 6.890625 
Q 35.75 6.890625 40.890625 13.453125 
Q 46.046875 20.015625 46.78125 33.40625 
Q 43.953125 29.203125 39.59375 26.953125 
Q 35.25 24.703125 29.984375 24.703125 
Q 19.046875 24.703125 12.671875 31.3125 
Q 6.296875 37.9375 6.296875 49.421875 
Q 6.296875 60.640625 12.9375 67.421875 
Q 19.578125 74.21875 30.609375 74.21875 
Q 43.265625 74.21875 49.921875 64.515625 
Q 56.59375 54.828125 56.59375 36.375 
Q 56.59375 19.140625 48.40625 8.859375 
Q 40.234375 -1.421875 26.421875 -1.421875 
Q 22.703125 -1.421875 18.890625 -0.6875 
Q 15.09375 0.046875 10.984375 1.515625 
z
M 30.609375 32.421875 
Q 37.25 32.421875 41.125 36.953125 
Q 45.015625 41.5 45.015625 49.421875 
Q 45.015625 57.28125 41.125 61.84375 
Q 37.25 66.40625 30.609375 66.40625 
Q 23.96875 66.40625 20.09375 61.84375 
Q 16.21875 57.28125 16.21875 49.421875 
Q 16.21875 41.5 20.09375 36.953125 
Q 23.96875 32.421875 30.609375 32.421875 
z
" id="DejaVuSans-57"/>
      </defs>
      <g transform="translate(1139.659832 655.398438)scale(0.1 -0.1)">
       <use xlink:href="#DejaVuSans-57"/>
       <use x="63.623047" xlink:href="#DejaVuSans-48"/>
       <use x="127.246094" xlink:href="#DejaVuSans-48"/>
       <use x="190.869141" xlink:href="#DejaVuSans-46"/>
       <use x="222.65625" xlink:href="#DejaVuSans-48"/>
      </g>
     </g>
    </g>
    <g id="xtick_10">
     <g id="line2d_10">
      <g>
       <use style="stroke:#000000;stroke-width:0.8;" x="1256.556853" xlink:href="#me1d4a4696b" y="640.8"/>
      </g>
     </g>
     <g id="text_10">
      <!-- 1000.0 -->
      <g transform="translate(1239.06154 655.398438)scale(0.1 -0.1)">
       <use xlink:href="#DejaVuSans-49"/>
       <use x="63.623047" xlink:href="#DejaVuSans-48"/>
       <use x="127.246094" xlink:href="#DejaVuSans-48"/>
       <use x="190.869141" xlink:href="#DejaVuSans-48"/>
       <use x="254.492188" xlink:href="#DejaVuSans-46"/>
       <use x="286.279297" xlink:href="#DejaVuSans-48"/>
      </g>
     </g>
    </g>
    <g id="text_11">
     <!-- n -->
     <defs>
      <path d="M 54.890625 33.015625 
L 54.890625 0 
L 45.90625 0 
L 45.90625 32.71875 
Q 45.90625 40.484375 42.875 44.328125 
Q 39.84375 48.1875 33.796875 48.1875 
Q 26.515625 48.1875 22.3125 43.546875 
Q 18.109375 38.921875 18.109375 30.90625 
L 18.109375 0 
L 9.078125 0 
L 9.078125 54.6875 
L 18.109375 54.6875 
L 18.109375 46.1875 
Q 21.34375 51.125 25.703125 53.5625 
Q 30.078125 56 35.796875 56 
Q 45.21875 56 50.046875 50.171875 
Q 54.890625 44.34375 54.890625 33.015625 
z
" id="DejaVuSans-110"/>
     </defs>
     <g transform="translate(734.83125 669.076563)scale(0.1 -0.1)">
      <use xlink:href="#DejaVuSans-110"/>
     </g>
    </g>
   </g>
   <g id="matplotlib.axis_2">
    <g id="ytick_1">
     <g id="line2d_11">
      <defs>
       <path d="M 0 0 
L -3.5 0 
" id="m2dfff36bcb" style="stroke:#000000;stroke-width:0.8;"/>
      </defs>
      <g>
       <use style="stroke:#000000;stroke-width:0.8;" x="180" xlink:href="#m2dfff36bcb" y="576.4729"/>
      </g>
     </g>
     <g id="text_12">
      <!-- 50 -->
      <g transform="translate(160.275 580.272119)scale(0.1 -0.1)">
       <use xlink:href="#DejaVuSans-53"/>
       <use x="63.623047" xlink:href="#DejaVuSans-48"/>
      </g>
     </g>
    </g>
    <g id="ytick_2">
     <g id="line2d_12">
      <g>
       <use style="stroke:#000000;stroke-width:0.8;" x="180" xlink:href="#m2dfff36bcb" y="504.445263"/>
      </g>
     </g>
     <g id="text_13">
      <!-- 100 -->
      <g transform="translate(153.9125 508.244481)scale(0.1 -0.1)">
       <use xlink:href="#DejaVuSans-49"/>
       <use x="63.623047" xlink:href="#DejaVuSans-48"/>
       <use x="127.246094" xlink:href="#DejaVuSans-48"/>
      </g>
     </g>
    </g>
    <g id="ytick_3">
     <g id="line2d_13">
      <g>
       <use style="stroke:#000000;stroke-width:0.8;" x="180" xlink:href="#m2dfff36bcb" y="432.417625"/>
      </g>
     </g>
     <g id="text_14">
      <!-- 150 -->
      <g transform="translate(153.9125 436.216844)scale(0.1 -0.1)">
       <use xlink:href="#DejaVuSans-49"/>
       <use x="63.623047" xlink:href="#DejaVuSans-53"/>
       <use x="127.246094" xlink:href="#DejaVuSans-48"/>
      </g>
     </g>
    </g>
    <g id="ytick_4">
     <g id="line2d_14">
      <g>
       <use style="stroke:#000000;stroke-width:0.8;" x="180" xlink:href="#m2dfff36bcb" y="360.389987"/>
      </g>
     </g>
     <g id="text_15">
      <!-- 200 -->
      <g transform="translate(153.9125 364.189206)scale(0.1 -0.1)">
       <use xlink:href="#DejaVuSans-50"/>
       <use x="63.623047" xlink:href="#DejaVuSans-48"/>
       <use x="127.246094" xlink:href="#DejaVuSans-48"/>
      </g>
     </g>
    </g>
    <g id="ytick_5">
     <g id="line2d_15">
      <g>
       <use style="stroke:#000000;stroke-width:0.8;" x="180" xlink:href="#m2dfff36bcb" y="288.362349"/>
      </g>
     </g>
     <g id="text_16">
      <!-- 250 -->
      <g transform="translate(153.9125 292.161568)scale(0.1 -0.1)">
       <use xlink:href="#DejaVuSans-50"/>
       <use x="63.623047" xlink:href="#DejaVuSans-53"/>
       <use x="127.246094" xlink:href="#DejaVuSans-48"/>
      </g>
     </g>
    </g>
    <g id="ytick_6">
     <g id="line2d_16">
      <g>
       <use style="stroke:#000000;stroke-width:0.8;" x="180" xlink:href="#m2dfff36bcb" y="216.334712"/>
      </g>
     </g>
     <g id="text_17">
      <!-- 300 -->
      <g transform="translate(153.9125 220.13393)scale(0.1 -0.1)">
       <use xlink:href="#DejaVuSans-51"/>
       <use x="63.623047" xlink:href="#DejaVuSans-48"/>
       <use x="127.246094" xlink:href="#DejaVuSans-48"/>
      </g>
     </g>
    </g>
    <g id="ytick_7">
     <g id="line2d_17">
      <g>
       <use style="stroke:#000000;stroke-width:0.8;" x="180" xlink:href="#m2dfff36bcb" y="144.307074"/>
      </g>
     </g>
     <g id="text_18">
      <!-- 350 -->
      <g transform="translate(153.9125 148.106293)scale(0.1 -0.1)">
       <use xlink:href="#DejaVuSans-51"/>
       <use x="63.623047" xlink:href="#DejaVuSans-53"/>
       <use x="127.246094" xlink:href="#DejaVuSans-48"/>
      </g>
     </g>
    </g>
    <g id="text_19">
     <!-- speedup -->
     <defs>
      <path d="M 44.28125 53.078125 
L 44.28125 44.578125 
Q 40.484375 46.53125 36.375 47.5 
Q 32.28125 48.484375 27.875 48.484375 
Q 21.1875 48.484375 17.84375 46.4375 
Q 14.5 44.390625 14.5 40.28125 
Q 14.5 37.15625 16.890625 35.375 
Q 19.28125 33.59375 26.515625 31.984375 
L 29.59375 31.296875 
Q 39.15625 29.25 43.1875 25.515625 
Q 47.21875 21.78125 47.21875 15.09375 
Q 47.21875 7.46875 41.1875 3.015625 
Q 35.15625 -1.421875 24.609375 -1.421875 
Q 20.21875 -1.421875 15.453125 -0.5625 
Q 10.6875 0.296875 5.421875 2 
L 5.421875 11.28125 
Q 10.40625 8.6875 15.234375 7.390625 
Q 20.0625 6.109375 24.8125 6.109375 
Q 31.15625 6.109375 34.5625 8.28125 
Q 37.984375 10.453125 37.984375 14.40625 
Q 37.984375 18.0625 35.515625 20.015625 
Q 33.0625 21.96875 24.703125 23.78125 
L 21.578125 24.515625 
Q 13.234375 26.265625 9.515625 29.90625 
Q 5.8125 33.546875 5.8125 39.890625 
Q 5.8125 47.609375 11.28125 51.796875 
Q 16.75 56 26.8125 56 
Q 31.78125 56 36.171875 55.265625 
Q 40.578125 54.546875 44.28125 53.078125 
z
" id="DejaVuSans-115"/>
      <path d="M 18.109375 8.203125 
L 18.109375 -20.796875 
L 9.078125 -20.796875 
L 9.078125 54.6875 
L 18.109375 54.6875 
L 18.109375 46.390625 
Q 20.953125 51.265625 25.265625 53.625 
Q 29.59375 56 35.59375 56 
Q 45.5625 56 51.78125 48.09375 
Q 58.015625 40.1875 58.015625 27.296875 
Q 58.015625 14.40625 51.78125 6.484375 
Q 45.5625 -1.421875 35.59375 -1.421875 
Q 29.59375 -1.421875 25.265625 0.953125 
Q 20.953125 3.328125 18.109375 8.203125 
z
M 48.6875 27.296875 
Q 48.6875 37.203125 44.609375 42.84375 
Q 40.53125 48.484375 33.40625 48.484375 
Q 26.265625 48.484375 22.1875 42.84375 
Q 18.109375 37.203125 18.109375 27.296875 
Q 18.109375 17.390625 22.1875 11.75 
Q 26.265625 6.109375 33.40625 6.109375 
Q 40.53125 6.109375 44.609375 11.75 
Q 48.6875 17.390625 48.6875 27.296875 
z
" id="DejaVuSans-112"/>
      <path d="M 56.203125 29.59375 
L 56.203125 25.203125 
L 14.890625 25.203125 
Q 15.484375 15.921875 20.484375 11.0625 
Q 25.484375 6.203125 34.421875 6.203125 
Q 39.59375 6.203125 44.453125 7.46875 
Q 49.3125 8.734375 54.109375 11.28125 
L 54.109375 2.78125 
Q 49.265625 0.734375 44.1875 -0.34375 
Q 39.109375 -1.421875 33.890625 -1.421875 
Q 20.796875 -1.421875 13.15625 6.1875 
Q 5.515625 13.8125 5.515625 26.8125 
Q 5.515625 40.234375 12.765625 48.109375 
Q 20.015625 56 32.328125 56 
Q 43.359375 56 49.78125 48.890625 
Q 56.203125 41.796875 56.203125 29.59375 
z
M 47.21875 32.234375 
Q 47.125 39.59375 43.09375 43.984375 
Q 39.0625 48.390625 32.421875 48.390625 
Q 24.90625 48.390625 20.390625 44.140625 
Q 15.875 39.890625 15.1875 32.171875 
z
" id="DejaVuSans-101"/>
      <path d="M 45.40625 46.390625 
L 45.40625 75.984375 
L 54.390625 75.984375 
L 54.390625 0 
L 45.40625 0 
L 45.40625 8.203125 
Q 42.578125 3.328125 38.25 0.953125 
Q 33.9375 -1.421875 27.875 -1.421875 
Q 17.96875 -1.421875 11.734375 6.484375 
Q 5.515625 14.40625 5.515625 27.296875 
Q 5.515625 40.1875 11.734375 48.09375 
Q 17.96875 56 27.875 56 
Q 33.9375 56 38.25 53.625 
Q 42.578125 51.265625 45.40625 46.390625 
z
M 14.796875 27.296875 
Q 14.796875 17.390625 18.875 11.75 
Q 22.953125 6.109375 30.078125 6.109375 
Q 37.203125 6.109375 41.296875 11.75 
Q 45.40625 17.390625 45.40625 27.296875 
Q 45.40625 37.203125 41.296875 42.84375 
Q 37.203125 48.484375 30.078125 48.484375 
Q 22.953125 48.484375 18.875 42.84375 
Q 14.796875 37.203125 14.796875 27.296875 
z
" id="DejaVuSans-100"/>
      <path d="M 8.5 21.578125 
L 8.5 54.6875 
L 17.484375 54.6875 
L 17.484375 21.921875 
Q 17.484375 14.15625 20.5 10.265625 
Q 23.53125 6.390625 29.59375 6.390625 
Q 36.859375 6.390625 41.078125 11.03125 
Q 45.3125 15.671875 45.3125 23.6875 
L 45.3125 54.6875 
L 54.296875 54.6875 
L 54.296875 0 
L 45.3125 0 
L 45.3125 8.40625 
Q 42.046875 3.421875 37.71875 1 
Q 33.40625 -1.421875 27.6875 -1.421875 
Q 18.265625 -1.421875 13.375 4.4375 
Q 8.5 10.296875 8.5 21.578125 
z
M 31.109375 56 
z
" id="DejaVuSans-117"/>
     </defs>
     <g transform="translate(147.832812 385.049219)rotate(-90)scale(0.1 -0.1)">
      <use xlink:href="#DejaVuSans-115"/>
      <use x="52.099609" xlink:href="#DejaVuSans-112"/>
      <use x="115.576172" xlink:href="#DejaVuSans-101"/>
      <use x="177.099609" xlink:href="#DejaVuSans-101"/>
      <use x="238.623047" xlink:href="#DejaVuSans-100"/>
      <use x="302.099609" xlink:href="#DejaVuSans-117"/>
      <use x="365.478516" xlink:href="#DejaVuSans-112"/>
     </g>
    </g>
   </g>
   <g id="line2d_18">
    <path clip-path="url(#pf2ed0f7d98)" d="M 230.727273 306.631295 
L 231.753102 389.4384 
L 232.778932 111.6 
L 233.804761 403.226651 
L 234.830591 203.380757 
L 235.856421 400.869447 
L 236.88225 220.058257 
L 237.90808 198.017865 
L 238.933909 435.257002 
L 239.959739 237.663257 
L 240.985569 232.989412 
L 242.011398 244.135062 
L 243.037228 249.967386 
L 244.063057 263.047153 
L 245.088887 237.261464 
L 246.114716 240.055963 
L 247.140546 223.528963 
L 248.166376 268.48532 
L 249.192205 245.00853 
L 250.218035 295.286595 
L 251.243864 297.676861 
L 252.269694 199.224129 
L 253.295523 287.68984 
L 254.321353 312.164527 
L 255.347183 308.623669 
L 256.373012 310.019834 
L 257.398842 319.62985 
L 258.424671 271.907799 
L 259.450501 325.316916 
L 260.476331 299.847449 
L 261.50216 333.37245 
L 262.52799 295.212103 
L 263.553819 320.10759 
L 264.579649 324.885055 
L 265.605478 275.169657 
L 266.631308 353.98438 
L 267.657138 337.135889 
L 268.682967 333.124323 
L 269.708797 348.202566 
L 270.734626 341.016709 
L 271.760456 348.980195 
L 272.786286 297.490163 
L 274.837945 381.505489 
L 275.863774 312.091922 
L 276.889604 354.923324 
L 277.915433 352.83814 
L 278.941263 378.592566 
L 279.967093 348.967216 
L 280.992922 407.939362 
L 282.018752 385.237312 
L 283.044581 383.270235 
L 284.070411 390.604586 
L 285.09624 393.138939 
L 286.12207 299.705789 
L 287.1479 401.401327 
L 288.173729 306.048751 
L 289.199559 402.957041 
L 290.225388 487.376902 
L 291.251218 378.936473 
L 292.277048 354.487043 
L 293.302877 355.783866 
L 294.328707 311.391368 
L 295.354536 411.492253 
L 296.380366 369.182541 
L 297.406195 338.911829 
L 298.432025 345.465649 
L 299.457855 384.058258 
L 300.483684 354.156608 
L 301.509514 402.921204 
L 302.535343 350.576268 
L 303.561173 413.743197 
L 304.587002 424.905552 
L 305.612832 379.221154 
L 306.638662 417.74219 
L 307.664491 420.315897 
L 308.690321 404.576774 
L 309.71615 377.913137 
L 310.74198 343.679033 
L 311.76781 372.650143 
L 312.793639 396.657526 
L 313.819469 438.652119 
L 314.845298 373.845215 
L 315.871128 385.743579 
L 316.896957 388.739802 
L 317.922787 352.762474 
L 318.948617 471.674877 
L 319.974446 414.31529 
L 322.026105 384.149833 
L 323.051935 400.294786 
L 324.077765 353.922212 
L 325.103594 300.843964 
L 326.129424 408.024875 
L 327.155253 404.236393 
L 328.181083 401.090705 
L 329.206912 435.563379 
L 330.232742 393.660505 
L 331.258572 441.32483 
L 332.284401 350.222948 
L 333.310231 451.163281 
L 334.33606 406.235082 
L 335.36189 437.190859 
L 336.387719 391.650384 
L 337.413549 401.298239 
L 338.439379 368.307774 
L 339.465208 423.225158 
L 340.491038 403.691212 
L 341.516867 408.979511 
L 342.542697 419.671598 
L 343.568527 392.934429 
L 344.594356 455.189934 
L 345.620186 460.877439 
L 346.646015 394.644059 
L 347.671845 398.648157 
L 348.697674 452.515472 
L 349.723504 404.370168 
L 350.749334 439.902841 
L 351.775163 457.323744 
L 352.800993 393.785299 
L 353.826822 389.196209 
L 354.852652 418.315758 
L 355.878481 374.147312 
L 356.904311 474.583186 
L 357.930141 388.740513 
L 358.95597 389.023729 
L 359.9818 405.654588 
L 361.007629 406.965956 
L 362.033459 414.694958 
L 363.059289 465.794027 
L 364.085118 384.419095 
L 365.110948 425.658723 
L 366.136777 440.499606 
L 367.162607 427.071006 
L 368.188436 320.967693 
L 369.214266 463.331039 
L 370.240096 424.821379 
L 371.265925 499.350177 
L 372.291755 413.441723 
L 373.317584 422.15204 
L 374.343414 340.992064 
L 375.369243 419.665672 
L 376.395073 458.795059 
L 377.420903 448.193744 
L 378.446732 403.247935 
L 379.472562 396.908912 
L 380.498391 430.6323 
L 381.524221 380.588064 
L 382.550051 510.648241 
L 383.57588 459.458725 
L 384.60171 498.261324 
L 385.627539 401.6655 
L 386.653369 418.495278 
L 387.679198 508.418145 
L 388.705028 455.081103 
L 389.730858 416.285058 
L 390.756687 506.934817 
L 391.782517 436.562009 
L 392.808346 456.440713 
L 393.834176 516.946151 
L 394.860006 473.158091 
L 395.885835 452.09307 
L 396.911665 467.819199 
L 397.937494 356.266111 
L 398.963324 430.541817 
L 399.989153 439.417455 
L 401.014983 435.706679 
L 402.040813 422.8888 
L 403.066642 457.353239 
L 404.092472 404.422873 
L 405.118301 476.463081 
L 406.144131 464.358945 
L 407.16996 464.412984 
L 408.19579 461.863336 
L 409.22162 461.81843 
L 410.247449 483.469979 
L 411.273279 471.198062 
L 412.299108 471.192558 
L 413.324938 428.728197 
L 414.350768 491.312966 
L 415.376597 389.351232 
L 416.402427 521.582851 
L 417.428256 441.863872 
L 418.454086 436.823975 
L 419.479915 447.327142 
L 420.505745 471.749621 
L 421.531575 423.783361 
L 422.557404 450.438465 
L 423.583234 443.590318 
L 424.609063 469.035688 
L 425.634893 478.408791 
L 426.660722 456.580513 
L 428.712382 508.374256 
L 429.738211 454.882538 
L 430.764041 454.850913 
L 431.78987 474.222839 
L 432.8157 412.490347 
L 433.84153 476.060309 
L 434.867359 449.483859 
L 435.893189 439.168056 
L 436.919018 485.057898 
L 437.944848 477.252337 
L 438.970677 526.381401 
L 439.996507 449.025869 
L 441.022337 487.037826 
L 442.048166 453.997915 
L 443.073996 443.952748 
L 444.099825 454.202837 
L 445.125655 479.55612 
L 446.151485 483.205887 
L 447.177314 428.206226 
L 448.203144 463.029626 
L 449.228973 482.680623 
L 450.254803 462.602568 
L 451.280632 489.821644 
L 452.306462 488.026589 
L 453.332292 451.969503 
L 454.358121 433.394749 
L 455.383951 446.811966 
L 457.43561 536.744907 
L 458.461439 452.033735 
L 459.487269 485.738756 
L 460.513099 491.85388 
L 461.538928 485.491538 
L 462.564758 489.211987 
L 464.616417 453.710433 
L 465.642247 474.313794 
L 466.668076 451.654851 
L 467.693906 473.066133 
L 468.719735 542.217004 
L 469.745565 455.328795 
L 470.771394 470.968624 
L 471.797224 492.387326 
L 472.823054 477.12341 
L 473.848883 480.810045 
L 474.874713 514.783266 
L 475.900542 495.173457 
L 476.926372 497.01868 
L 477.952201 456.717778 
L 480.003861 520.886916 
L 481.02969 479.445997 
L 482.05552 470.873111 
L 483.081349 496.722417 
L 484.107179 487.943862 
L 485.133009 464.558822 
L 486.158838 475.002492 
L 487.184668 472.815381 
L 488.210497 459.069155 
L 489.236327 496.112153 
L 490.262156 524.4667 
L 491.287986 546.051015 
L 492.313816 496.509501 
L 493.339645 475.887947 
L 494.365475 494.448426 
L 495.391304 473.84775 
L 496.417134 435.314135 
L 497.442964 482.635207 
L 498.468793 471.040629 
L 499.494623 469.296488 
L 500.520452 474.94197 
L 501.546282 465.412769 
L 502.572111 478.30056 
L 503.597941 477.435024 
L 504.623771 472.903909 
L 505.6496 474.811933 
L 506.67543 516.285555 
L 507.701259 501.464616 
L 508.727089 494.692482 
L 509.752918 494.299346 
L 510.778748 498.561214 
L 511.804578 482.98168 
L 512.830407 444.246883 
L 513.856237 537.858079 
L 514.882066 491.028333 
L 515.907896 501.160755 
L 516.933726 488.126942 
L 517.959555 477.980004 
L 518.985385 485.173517 
L 520.011214 495.154725 
L 521.037044 503.600892 
L 522.062873 505.70343 
L 523.088703 543.09053 
L 524.114533 501.806669 
L 525.140362 480.34136 
L 526.166192 504.093078 
L 527.192021 474.247495 
L 528.217851 498.961112 
L 529.24368 506.914726 
L 530.26951 495.273986 
L 531.29534 499.054196 
L 533.346999 488.917452 
L 534.372828 500.436618 
L 535.398658 487.437821 
L 536.424488 487.224098 
L 537.450317 494.207561 
L 538.476147 483.050117 
L 539.501976 506.057479 
L 540.527806 519.381242 
L 541.553635 489.059052 
L 542.579465 484.287301 
L 543.605295 480.559143 
L 544.631124 470.482121 
L 545.656954 476.158524 
L 546.682783 479.702946 
L 547.708613 494.072701 
L 548.734443 488.789379 
L 549.760272 477.477139 
L 550.786102 481.543693 
L 551.811931 493.702725 
L 552.837761 498.177685 
L 553.86359 495.412833 
L 554.88942 481.32314 
L 555.91525 478.302402 
L 556.941079 513.267351 
L 557.966909 499.603639 
L 558.992738 493.709562 
L 560.018568 500.740925 
L 561.044397 479.036547 
L 563.096057 507.576601 
L 564.121886 504.294139 
L 565.147716 492.874025 
L 566.173545 502.752022 
L 567.199375 495.755497 
L 568.225205 498.782696 
L 570.276864 489.525722 
L 571.302693 494.029863 
L 572.328523 496.799058 
L 573.354352 483.269141 
L 574.380182 497.746417 
L 575.406012 493.670978 
L 576.431841 515.940602 
L 577.457671 495.047478 
L 578.4835 496.851093 
L 579.50933 496.080353 
L 580.535159 491.355815 
L 581.560989 502.172568 
L 582.586819 505.233809 
L 583.612648 496.11369 
L 584.638478 515.286327 
L 585.664307 508.736161 
L 586.690137 499.506613 
L 587.715967 496.651198 
L 588.741796 521.291916 
L 589.767626 505.754187 
L 590.793455 501.644134 
L 591.819285 510.576541 
L 592.845114 495.47145 
L 593.870944 503.867885 
L 594.896774 500.928158 
L 595.922603 495.970799 
L 596.948433 499.642398 
L 597.974262 516.313992 
L 599.000092 519.170959 
L 600.025922 520.955824 
L 601.051751 503.235209 
L 602.077581 517.698496 
L 603.10341 503.701801 
L 604.12924 522.284274 
L 605.155069 501.433206 
L 606.180899 518.290827 
L 607.206729 519.407377 
L 608.232558 539.351073 
L 609.258388 533.868466 
L 610.284217 476.281206 
L 611.310047 553.892914 
L 612.335876 514.643881 
L 613.361706 514.918794 
L 614.387536 505.399246 
L 615.413365 520.314147 
L 616.439195 525.182233 
L 617.465024 502.87045 
L 618.490854 501.77084 
L 619.516684 516.724033 
L 620.542513 522.840525 
L 621.568343 540.858284 
L 622.594172 522.373196 
L 623.620002 515.292169 
L 624.645831 504.352599 
L 625.671661 538.591573 
L 626.697491 522.448846 
L 627.72332 523.811573 
L 628.74915 529.422932 
L 629.774979 523.794351 
L 630.800809 520.068909 
L 631.826638 524.797666 
L 632.852468 534.598994 
L 633.878298 531.304414 
L 634.904127 531.706609 
L 635.929957 533.410471 
L 636.955786 532.75334 
L 637.981616 530.901406 
L 639.007446 527.137476 
L 640.033275 520.536808 
L 641.059105 527.884178 
L 642.084934 526.761026 
L 643.110764 521.84275 
L 644.136593 532.468958 
L 645.162423 512.938025 
L 646.188253 520.944786 
L 647.214082 521.180891 
L 648.239912 521.629834 
L 649.265741 521.684223 
L 650.291571 522.065734 
L 651.3174 520.559075 
L 652.34323 518.34403 
L 653.36906 521.391521 
L 654.394889 525.040216 
L 655.420719 518.595857 
L 656.446548 522.74523 
L 657.472378 522.449592 
L 658.498208 523.935398 
L 659.524037 530.284401 
L 660.549867 519.720164 
L 661.575696 529.999826 
L 662.601526 537.797957 
L 663.627355 535.212185 
L 664.653185 529.386744 
L 665.679015 529.153835 
L 666.704844 522.024541 
L 667.730674 526.170953 
L 668.756503 537.440153 
L 669.782333 526.937008 
L 670.808163 536.261337 
L 671.833992 525.275673 
L 672.859822 534.847056 
L 673.885651 528.164683 
L 674.911481 529.357143 
L 675.93731 521.161668 
L 676.96314 555.420115 
L 677.98897 528.44727 
L 679.014799 528.592608 
L 680.040629 537.003989 
L 681.066458 534.23126 
L 682.092288 527.283642 
L 683.118117 531.069446 
L 684.143947 498.980108 
L 685.169777 534.654163 
L 686.195606 528.058157 
L 687.221436 530.143943 
L 688.247265 536.806484 
L 690.298925 532.014792 
L 691.324754 530.184089 
L 692.350584 528.924049 
L 694.402243 528.199076 
L 695.428072 527.344597 
L 696.453902 528.100246 
L 697.479732 529.636899 
L 698.505561 526.766657 
L 699.531391 540.575474 
L 700.55722 530.262231 
L 701.58305 533.124471 
L 702.608879 534.841596 
L 703.634709 532.612519 
L 704.660539 529.439921 
L 705.686368 530.19498 
L 706.712198 533.366321 
L 707.738027 539.495171 
L 708.763857 529.069393 
L 709.789687 531.401825 
L 710.815516 531.27125 
L 711.841346 542.474628 
L 712.867175 540.744948 
L 713.893005 533.168425 
L 714.918834 530.038522 
L 715.944664 532.364259 
L 716.970494 529.635859 
L 717.996323 535.821277 
L 719.022153 534.098902 
L 720.047982 535.531469 
L 721.073812 532.103751 
L 722.099642 532.407616 
L 723.125471 534.585678 
L 724.151301 534.8783 
L 725.17713 534.161758 
L 726.20296 536.977255 
L 727.228789 539.392988 
L 728.254619 534.391126 
L 729.280449 538.74616 
L 730.306278 521.037077 
L 731.332108 532.873645 
L 732.357937 534.229089 
L 733.383767 528.673468 
L 734.409596 530.245675 
L 735.435426 547.89263 
L 736.461256 540.207936 
L 737.487085 536.111507 
L 738.512915 538.257755 
L 739.538744 537.41914 
L 740.564574 537.44175 
L 741.590404 539.391262 
L 742.616233 539.803177 
L 743.642063 535.312998 
L 744.667892 536.47435 
L 745.693722 558.80939 
L 746.719551 512.236596 
L 747.745381 509.256765 
L 748.771211 504.791138 
L 749.79704 531.092532 
L 750.82287 544.158653 
L 751.848699 542.526501 
L 752.874529 541.26867 
L 753.900358 546.026403 
L 754.926188 540.050369 
L 756.977847 553.617365 
L 758.003677 549.111308 
L 759.029506 546.878662 
L 760.055336 547.721545 
L 761.081166 548.259388 
L 762.106995 545.099423 
L 763.132825 543.792638 
L 764.158654 538.270072 
L 765.184484 541.41404 
L 766.210313 538.492086 
L 767.236143 541.857295 
L 768.261973 543.650912 
L 769.287802 561.216161 
L 770.313632 539.134336 
L 771.339461 547.765865 
L 772.365291 543.25767 
L 773.391121 543.280748 
L 774.41695 549.944203 
L 775.44278 549.25628 
L 776.468609 542.710131 
L 777.494439 542.884385 
L 778.520268 548.445445 
L 779.546098 547.740792 
L 780.571928 543.514986 
L 781.597757 542.850074 
L 782.623587 548.030213 
L 783.649416 561.708465 
L 784.675246 540.880302 
L 785.701075 543.503926 
L 786.726905 547.104593 
L 787.752735 549.136654 
L 788.778564 542.734083 
L 789.804394 550.320533 
L 790.830223 548.865326 
L 791.856053 554.552168 
L 792.881883 549.064196 
L 793.907712 542.737989 
L 794.933542 550.583571 
L 795.959371 555.051809 
L 796.985201 553.075698 
L 798.01103 546.0001 
L 799.03686 552.516883 
L 800.06269 556.210444 
L 801.088519 547.993743 
L 802.114349 548.219445 
L 804.166008 550.557658 
L 805.191837 543.673378 
L 806.217667 545.264157 
L 807.243497 551.599031 
L 808.269326 551.005633 
L 809.295156 545.267235 
L 810.320985 546.573657 
L 811.346815 549.969789 
L 812.372645 552.058075 
L 813.398474 547.447629 
L 814.424304 545.00216 
L 815.450133 551.779938 
L 816.475963 549.89117 
L 817.501792 546.730782 
L 818.527622 546.448547 
L 819.553452 551.380051 
L 820.579281 553.760348 
L 821.605111 546.925704 
L 822.63094 552.246196 
L 823.65677 555.269083 
L 824.6826 554.126952 
L 825.708429 545.945048 
L 826.734259 547.20384 
L 827.760088 557.661543 
L 828.785918 558.681754 
L 829.811747 549.60743 
L 830.837577 549.447246 
L 831.863407 555.28529 
L 832.889236 557.057139 
L 833.915066 550.865382 
L 834.940895 555.655119 
L 835.966725 552.825776 
L 836.992554 556.97606 
L 838.018384 551.418328 
L 839.044214 548.742286 
L 840.070043 556.458867 
L 841.095873 558.819883 
L 842.121702 551.659767 
L 843.147532 553.042367 
L 844.173362 556.123805 
L 845.199191 558.004511 
L 846.225021 551.118153 
L 847.25085 556.222462 
L 848.27668 566.208277 
L 849.302509 560.126925 
L 850.328339 550.751003 
L 851.354169 559.715499 
L 852.379998 566.6852 
L 853.405828 566.266455 
L 854.431657 552.902332 
L 856.483316 560.72837 
L 857.509146 558.885289 
L 858.534976 551.204438 
L 859.560805 552.034852 
L 860.586635 556.22974 
L 861.612464 556.013367 
L 862.638294 551.360882 
L 863.664124 553.396597 
L 864.689953 561.17875 
L 865.715783 558.927773 
L 866.741612 553.236217 
L 867.767442 551.173461 
L 868.793271 558.427761 
L 869.819101 562.175551 
L 870.844931 552.180444 
L 871.87076 551.687646 
L 872.89659 561.263614 
L 875.974078 552.289615 
L 876.999908 558.738244 
L 878.025738 559.589011 
L 879.051567 554.196688 
L 880.077397 553.730306 
L 881.103226 561.759727 
L 882.129056 560.680454 
L 883.154886 552.817879 
L 884.180715 554.707644 
L 885.206545 560.124918 
L 886.232374 561.20765 
L 887.258204 552.963889 
L 888.284033 554.192998 
L 889.309863 558.482393 
L 890.335693 560.526365 
L 891.361522 557.029497 
L 892.387352 559.652083 
L 893.413181 561.821084 
L 894.439011 560.34676 
L 895.464841 553.475892 
L 896.49067 555.77549 
L 897.5165 559.436163 
L 898.542329 560.266371 
L 899.568159 555.176664 
L 900.593988 555.630108 
L 901.619818 560.114649 
L 902.645648 561.671619 
L 903.671477 556.609099 
L 904.697307 555.303745 
L 905.723136 561.499412 
L 906.748966 562.282424 
L 907.774795 558.246224 
L 908.800625 556.615902 
L 909.826455 560.558647 
L 910.852284 563.651947 
L 911.878114 562.414676 
L 912.903943 553.312363 
L 913.929773 558.918569 
L 914.955603 582.231668 
L 915.981432 560.844186 
L 917.007262 557.70487 
L 918.033091 563.737564 
L 919.058921 561.768151 
L 920.08475 561.223363 
L 921.11058 559.913825 
L 922.13641 564.645585 
L 923.162239 564.102921 
L 924.188069 558.230173 
L 925.213898 556.597682 
L 926.239728 566.1592 
L 927.265557 563.686028 
L 928.291387 562.628015 
L 929.317217 560.182636 
L 930.343046 566.449005 
L 932.394705 560.88329 
L 933.420535 561.558317 
L 934.446365 566.476358 
L 935.472194 562.644312 
L 936.498024 559.424606 
L 937.523853 557.243932 
L 938.549683 563.68942 
L 939.575512 564.356104 
L 940.601342 558.552357 
L 941.627172 556.33512 
L 942.653001 579.039241 
L 943.678831 562.850367 
L 944.70466 559.570295 
L 945.73049 557.289704 
L 946.75632 564.712944 
L 947.782149 566.212925 
L 948.807979 562.92876 
L 949.833808 556.893289 
L 950.859638 565.799696 
L 951.885467 566.437108 
L 952.911297 563.61338 
L 953.937127 547.935034 
L 954.962956 569.022152 
L 955.988786 578.815901 
L 957.014615 567.833998 
L 958.040445 563.319678 
L 959.066274 567.207905 
L 960.092104 569.886799 
L 961.117934 560.364029 
L 962.143763 562.682979 
L 963.169593 567.216025 
L 964.195422 566.546132 
L 965.221252 560.988975 
L 966.247082 565.388757 
L 967.272911 568.231437 
L 968.298741 566.339324 
L 969.32457 561.692875 
L 970.3504 562.455032 
L 971.376229 569.083785 
L 973.427889 560.734701 
L 974.453718 562.079984 
L 975.479548 565.948577 
L 976.505377 567.668512 
L 977.531207 561.803628 
L 978.557036 562.457314 
L 979.582866 566.802026 
L 980.608696 568.084115 
L 981.634525 560.503672 
L 982.660355 562.04119 
L 983.686184 567.002923 
L 984.712014 567.084848 
L 985.737844 560.381177 
L 986.763673 561.18639 
L 987.789503 568.734859 
L 988.815332 568.587813 
L 989.841162 561.286491 
L 990.866991 562.166127 
L 991.892821 566.301814 
L 992.918651 567.120456 
L 993.94448 562.216575 
L 994.97031 561.918506 
L 995.996139 569.154929 
L 997.021969 571.186748 
L 998.047799 564.566788 
L 1000.099458 564.284123 
L 1001.125287 577.706626 
L 1002.151117 566.428434 
L 1003.176946 562.547013 
L 1004.202776 568.500594 
L 1005.228606 571.543429 
L 1006.254435 566.759818 
L 1007.280265 567.424738 
L 1008.306094 571.87499 
L 1009.331924 571.413895 
L 1010.357753 567.427244 
L 1011.383583 564.938498 
L 1012.409413 569.479376 
L 1013.435242 569.905744 
L 1014.461072 571.504164 
L 1015.486901 572.006394 
L 1016.512731 573.181547 
L 1017.538561 569.655858 
L 1018.56439 565.221118 
L 1019.59022 563.818533 
L 1020.616049 572.462084 
L 1021.641879 571.175401 
L 1022.667708 567.487949 
L 1023.693538 566.761103 
L 1024.719368 571.585274 
L 1025.745197 569.660844 
L 1026.771027 566.483443 
L 1027.796856 563.882062 
L 1028.822686 570.388276 
L 1029.848515 571.265094 
L 1030.874345 564.98342 
L 1031.900175 565.453548 
L 1032.926004 572.262971 
L 1033.951834 573.706527 
L 1034.977663 565.986843 
L 1036.003493 567.946067 
L 1037.029323 572.503343 
L 1038.055152 571.807111 
L 1039.080982 568.119824 
L 1040.106811 566.143768 
L 1041.132641 572.760007 
L 1042.15847 571.39352 
L 1043.1843 565.671452 
L 1044.21013 566.85127 
L 1045.235959 572.706738 
L 1046.261789 571.462402 
L 1047.287618 565.363541 
L 1048.313448 570.113171 
L 1049.339278 573.552532 
L 1050.365107 573.972828 
L 1051.390937 590.713099 
L 1052.416766 568.433625 
L 1053.442596 574.283249 
L 1054.468425 573.799263 
L 1055.494255 569.687325 
L 1056.520085 569.446535 
L 1057.545914 573.232978 
L 1058.571744 573.806444 
L 1059.597573 570.967779 
L 1060.623403 567.7284 
L 1061.649232 573.054061 
L 1062.675062 573.324336 
L 1063.700892 571.505907 
L 1064.726721 568.699894 
L 1065.752551 574.490866 
L 1066.77838 575.31859 
L 1067.80421 567.354488 
L 1068.83004 570.206628 
L 1069.855869 574.62547 
L 1070.881699 575.587153 
L 1071.907528 572.007153 
L 1072.933358 571.593944 
L 1073.959187 574.923144 
L 1074.985017 575.015968 
L 1076.010847 571.046704 
L 1077.036676 572.719219 
L 1078.062506 576.877611 
L 1079.088335 575.934959 
L 1080.114165 569.066487 
L 1081.139994 568.769167 
L 1082.165824 574.742408 
L 1083.191654 574.440832 
L 1084.217483 572.43332 
L 1085.243313 572.109902 
L 1086.269142 577.367122 
L 1087.294972 577.123966 
L 1088.320802 571.367198 
L 1089.346631 572.178503 
L 1090.372461 576.950201 
L 1091.39829 577.243909 
L 1092.42412 571.804988 
L 1093.449949 569.406088 
L 1094.475779 576.581342 
L 1095.501609 577.26616 
L 1096.527438 572.637126 
L 1097.553268 568.835886 
L 1098.579097 576.440526 
L 1099.604927 577.053609 
L 1100.630757 582.140831 
L 1101.656586 573.393314 
L 1102.682416 576.741593 
L 1103.708245 576.600722 
L 1104.734075 571.763853 
L 1105.759904 572.613244 
L 1106.785734 574.494219 
L 1107.811564 571.701832 
L 1108.837393 570.835771 
L 1109.863223 574.132983 
L 1110.889052 573.270098 
L 1111.914882 582.150709 
L 1112.940711 574.052831 
L 1113.966541 572.807552 
L 1114.992371 578.752967 
L 1116.0182 575.6509 
L 1117.04403 581.025238 
L 1118.069859 576.278075 
L 1119.095689 577.569923 
L 1121.147348 583.355405 
L 1122.173178 572.910317 
L 1123.199007 577.414844 
L 1124.224837 576.776019 
L 1125.250666 581.802442 
L 1126.276496 571.301429 
L 1127.302326 576.737266 
L 1128.328155 576.839411 
L 1129.353985 573.268313 
L 1130.379814 571.438144 
L 1131.405644 577.081227 
L 1132.431473 581.42371 
L 1133.457303 574.330662 
L 1134.483133 572.623877 
L 1135.508962 578.594871 
L 1136.534792 580.180798 
L 1137.560621 572.907398 
L 1138.586451 572.881634 
L 1139.612281 579.670266 
L 1140.63811 577.116816 
L 1141.66394 572.411553 
L 1142.689769 576.221333 
L 1143.715599 577.961176 
L 1144.741428 577.100179 
L 1145.767258 571.995306 
L 1146.793088 572.677274 
L 1147.818917 578.095721 
L 1148.844747 578.064599 
L 1149.870576 571.389466 
L 1150.896406 575.692518 
L 1151.922235 585.477694 
L 1152.948065 576.092735 
L 1153.973895 572.659088 
L 1154.999724 572.780388 
L 1156.025554 575.109592 
L 1157.051383 576.532181 
L 1158.077213 575.750458 
L 1159.103043 574.057287 
L 1160.128872 580.41181 
L 1161.154702 579.32841 
L 1162.180531 574.913799 
L 1163.206361 574.562706 
L 1164.23219 579.04372 
L 1165.25802 578.803256 
L 1166.28385 576.650727 
L 1167.309679 575.253647 
L 1168.335509 579.022588 
L 1169.361338 579.265633 
L 1170.387168 574.96969 
L 1171.412998 576.714357 
L 1172.438827 578.718847 
L 1173.464657 580.298038 
L 1174.490486 575.082474 
L 1175.516316 581.564386 
L 1176.542145 579.240722 
L 1177.567975 581.626811 
L 1178.593805 575.570353 
L 1179.619634 575.033267 
L 1180.645464 581.643648 
L 1181.671293 580.947168 
L 1182.697123 575.505564 
L 1183.722952 576.383385 
L 1184.748782 580.001039 
L 1185.774612 580.165803 
L 1186.800441 574.459284 
L 1187.826271 574.490919 
L 1188.8521 582.262421 
L 1189.87793 580.134867 
L 1190.90376 574.532607 
L 1191.929589 578.429764 
L 1192.955419 578.122939 
L 1193.981248 582.253802 
L 1195.007078 577.644897 
L 1196.032907 577.019411 
L 1197.058737 582.232623 
L 1198.084567 581.842497 
L 1199.110396 575.664294 
L 1200.136226 580.951551 
L 1201.162055 580.968892 
L 1202.187885 582.043896 
L 1203.213714 582.16312 
L 1204.239544 576.132751 
L 1205.265374 582.324948 
L 1206.291203 579.522451 
L 1207.317033 575.791168 
L 1208.342862 576.156958 
L 1209.368692 582.600029 
L 1210.394522 580.991876 
L 1211.420351 575.63889 
L 1212.446181 576.037457 
L 1213.47201 580.448596 
L 1214.49784 582.246521 
L 1215.523669 579.349932 
L 1216.549499 578.26378 
L 1217.575329 580.700536 
L 1218.601158 580.629988 
L 1219.626988 579.02031 
L 1220.652817 588.759048 
L 1221.678647 581.697709 
L 1222.704477 582.656995 
L 1223.730306 579.067166 
L 1224.756136 582.446791 
L 1225.781965 587.122711 
L 1226.807795 583.658648 
L 1227.833624 577.935945 
L 1228.859454 579.614742 
L 1229.885284 584.200201 
L 1230.911113 581.785257 
L 1233.988602 577.246861 
L 1235.014431 577.17978 
L 1236.040261 564.52082 
L 1237.066091 557.80785 
L 1238.09192 576.962898 
L 1239.11775 581.336224 
L 1240.143579 564.430529 
L 1241.169409 575.930498 
L 1242.195239 581.12024 
L 1243.221068 581.933059 
L 1244.246898 578.258828 
L 1245.272727 577.966422 
L 1245.272727 577.966422 
" style="fill:none;stroke:#1f77b4;stroke-linecap:square;stroke-width:1.5;"/>
   </g>
   <g id="line2d_19">
    <path clip-path="url(#pf2ed0f7d98)" d="M 230.727273 267.712944 
L 231.753102 202.022503 
L 232.778932 240.310214 
L 233.804761 461.619431 
L 234.830591 254.786459 
L 235.856421 205.311256 
L 236.88225 250.36848 
L 237.90808 254.474021 
L 238.933909 271.902033 
L 239.959739 267.430172 
L 240.985569 278.786642 
L 242.011398 293.396201 
L 243.037228 270.130037 
L 244.063057 308.524193 
L 245.088887 310.004795 
L 246.114716 313.692158 
L 247.140546 320.159931 
L 248.166376 263.655675 
L 249.192205 274.280115 
L 250.218035 317.224039 
L 251.243864 336.057201 
L 252.269694 348.367945 
L 253.295523 347.389897 
L 254.321353 323.407641 
L 255.347183 338.103668 
L 256.373012 355.918532 
L 257.398842 320.304265 
L 258.424671 327.005109 
L 259.450501 376.327561 
L 260.476331 322.529873 
L 261.50216 321.417669 
L 262.52799 347.874958 
L 263.553819 363.561783 
L 264.579649 390.783212 
L 265.605478 372.728034 
L 266.631308 365.662039 
L 267.657138 363.127175 
L 268.682967 350.096912 
L 269.708797 346.085149 
L 270.734626 324.63934 
L 271.760456 363.477042 
L 272.786286 372.278729 
L 273.812115 419.936667 
L 274.837945 415.815498 
L 275.863774 385.066613 
L 276.889604 423.203822 
L 277.915433 358.160876 
L 278.941263 379.363322 
L 279.967093 407.492988 
L 282.018752 396.422493 
L 283.044581 388.542525 
L 284.070411 398.148943 
L 285.09624 406.080349 
L 286.12207 399.20909 
L 287.1479 438.720878 
L 288.173729 410.442875 
L 289.199559 434.578632 
L 290.225388 393.798996 
L 291.251218 381.836293 
L 292.277048 457.603947 
L 293.302877 409.366601 
L 294.328707 437.543721 
L 295.354536 438.847613 
L 296.380366 465.532149 
L 297.406195 455.42679 
L 298.432025 407.111915 
L 299.457855 443.158843 
L 300.483684 428.681874 
L 301.509514 421.045011 
L 302.535343 374.063563 
L 303.561173 422.503183 
L 304.587002 415.182384 
L 305.612832 437.809028 
L 306.638662 422.973655 
L 307.664491 424.068219 
L 308.690321 462.493876 
L 309.71615 433.785284 
L 310.74198 401.915392 
L 311.76781 426.433439 
L 312.793639 437.753102 
L 313.819469 435.796818 
L 314.845298 447.229314 
L 315.871128 460.020886 
L 316.896957 423.00597 
L 317.922787 460.026825 
L 318.948617 426.129819 
L 319.974446 451.440653 
L 321.000276 451.142857 
L 322.026105 443.025848 
L 323.051935 442.815403 
L 324.077765 436.253849 
L 325.103594 438.225273 
L 326.129424 450.956257 
L 327.155253 453.997032 
L 328.181083 463.689073 
L 329.206912 453.396393 
L 330.232742 411.808586 
L 331.258572 446.305552 
L 332.284401 510.65059 
L 333.310231 461.482913 
L 334.33606 431.222875 
L 335.36189 464.615458 
L 336.387719 429.566889 
L 337.413549 482.533993 
L 338.439379 449.905253 
L 339.465208 453.960232 
L 340.491038 459.339623 
L 341.516867 499.088727 
L 342.542697 463.165928 
L 343.568527 450.257433 
L 344.594356 473.429224 
L 345.620186 469.934127 
L 346.646015 480.894452 
L 347.671845 480.460902 
L 348.697674 475.984148 
L 349.723504 459.437689 
L 350.749334 434.37766 
L 351.775163 473.386028 
L 352.800993 465.967503 
L 353.826822 465.853039 
L 354.852652 461.435274 
L 355.878481 474.49866 
L 356.904311 450.439258 
L 357.930141 487.25194 
L 358.95597 475.552601 
L 359.9818 534.426839 
L 361.007629 482.601246 
L 362.033459 472.602376 
L 363.059289 485.844104 
L 364.085118 470.564677 
L 365.110948 491.556903 
L 366.136777 481.401808 
L 367.162607 485.376959 
L 368.188436 465.088102 
L 369.214266 480.566362 
L 370.240096 486.159976 
L 371.265925 495.607671 
L 372.291755 482.77324 
L 373.317584 482.691791 
L 374.343414 470.299115 
L 375.369243 489.183812 
L 376.395073 537.125135 
L 377.420903 482.709328 
L 379.472562 504.426349 
L 380.498391 484.043206 
L 381.524221 494.687802 
L 382.550051 466.166914 
L 383.57588 500.955855 
L 384.60171 495.625283 
L 385.627539 491.848689 
L 386.653369 481.823143 
L 387.679198 499.784742 
L 388.705028 487.738697 
L 389.730858 502.923512 
L 390.756687 494.608198 
L 391.782517 493.291815 
L 392.808346 492.412804 
L 393.834176 502.485015 
L 394.860006 497.393569 
L 395.885835 497.096408 
L 396.911665 498.796599 
L 397.937494 499.32376 
L 398.963324 496.016222 
L 399.989153 544.347933 
L 401.014983 501.776839 
L 402.040813 506.576002 
L 403.066642 502.778391 
L 404.092472 503.153749 
L 405.118301 500.50573 
L 406.144131 513.098608 
L 407.16996 500.602106 
L 408.19579 515.457724 
L 409.22162 510.25186 
L 410.247449 513.974819 
L 411.273279 507.316238 
L 412.299108 512.994328 
L 413.324938 505.482404 
L 414.350768 516.314087 
L 415.376597 500.724934 
L 416.402427 518.290237 
L 417.428256 510.579672 
L 418.454086 511.090094 
L 419.479915 509.367649 
L 420.505745 522.02023 
L 421.531575 512.377415 
L 422.557404 514.163964 
L 423.583234 514.175275 
L 424.609063 511.294874 
L 425.634893 513.261324 
L 426.660722 523.938086 
L 427.686552 512.604372 
L 428.712382 524.978656 
L 429.738211 517.844431 
L 430.764041 530.406789 
L 431.78987 516.974564 
L 432.8157 568.184037 
L 433.84153 517.061509 
L 434.867359 529.802651 
L 435.893189 518.922686 
L 436.919018 532.282892 
L 437.944848 522.894959 
L 438.970677 528.727972 
L 439.996507 523.20714 
L 441.022337 547.779979 
L 442.048166 522.060518 
L 443.073996 524.946785 
L 444.099825 529.255016 
L 445.125655 531.864309 
L 446.151485 534.065562 
L 447.177314 534.103773 
L 448.203144 555.509495 
L 449.228973 530.261381 
L 450.254803 527.105451 
L 451.280632 532.732224 
L 452.306462 534.116968 
L 453.332292 537.443111 
L 454.358121 534.734258 
L 455.383951 544.040363 
L 456.40978 501.187017 
L 457.43561 559.018285 
L 458.461439 500.246287 
L 459.487269 566.521214 
L 460.513099 528.336884 
L 461.538928 566.451399 
L 462.564758 547.818522 
L 463.590587 542.102595 
L 464.616417 531.344194 
L 465.642247 552.272748 
L 466.668076 538.308968 
L 467.693906 532.983003 
L 468.719735 533.91539 
L 469.745565 543.689809 
L 470.771394 536.662458 
L 471.797224 545.856623 
L 472.823054 541.88246 
L 473.848883 542.325622 
L 474.874713 534.946673 
L 475.900542 547.207579 
L 476.926372 537.459578 
L 477.952201 544.506944 
L 478.978031 533.776834 
L 480.003861 542.974808 
L 481.02969 538.178659 
L 482.05552 548.943823 
L 483.081349 553.545434 
L 484.107179 550.268948 
L 485.133009 541.060552 
L 486.158838 545.990148 
L 487.184668 541.574139 
L 488.210497 549.391884 
L 489.236327 548.642973 
L 490.262156 559.749449 
L 491.287986 541.701448 
L 492.313816 548.310376 
L 493.339645 544.131969 
L 494.365475 550.322414 
L 495.391304 538.441642 
L 496.417134 547.970738 
L 497.442964 544.722283 
L 498.468793 547.983443 
L 499.494623 539.773381 
L 500.520452 545.35671 
L 501.546282 546.500159 
L 502.572111 557.700349 
L 503.597941 545.522284 
L 504.623771 552.004335 
L 505.6496 539.950641 
L 506.67543 574.769746 
L 507.701259 549.715922 
L 508.727089 558.972773 
L 509.752918 546.264649 
L 510.778748 558.090628 
L 511.804578 558.792651 
L 512.830407 559.780914 
L 513.856237 547.630598 
L 514.882066 555.705292 
L 515.907896 546.37437 
L 516.933726 558.282716 
L 517.959555 547.37328 
L 518.985385 560.255852 
L 520.011214 553.177255 
L 521.037044 554.575774 
L 522.062873 580.319041 
L 523.088703 555.162292 
L 524.114533 552.954916 
L 525.140362 574.679663 
L 526.166192 548.778312 
L 528.217851 573.981628 
L 529.24368 554.187106 
L 530.26951 551.656683 
L 531.29534 562.325934 
L 532.321169 551.586786 
L 533.346999 549.795014 
L 534.372828 557.856692 
L 535.398658 558.87434 
L 536.424488 560.597584 
L 537.450317 576.566558 
L 538.476147 559.013786 
L 539.501976 559.601792 
L 540.527806 554.541976 
L 541.553635 561.287698 
L 542.579465 582.230356 
L 543.605295 559.939013 
L 544.631124 554.824189 
L 545.656954 562.991715 
L 546.682783 554.811286 
L 547.708613 560.82473 
L 548.734443 560.640898 
L 549.760272 556.024027 
L 550.786102 575.36659 
L 551.811931 556.103713 
L 552.837761 571.133264 
L 553.86359 558.050639 
L 554.88942 564.072553 
L 555.91525 560.858561 
L 556.941079 561.761038 
L 557.966909 568.587774 
L 558.992738 561.838116 
L 560.018568 559.456839 
L 561.044397 562.880392 
L 562.070227 556.376975 
L 563.096057 581.978314 
L 564.121886 560.82293 
L 565.147716 563.30108 
L 566.173545 559.301881 
L 567.199375 566.361961 
L 568.225205 558.189572 
L 569.251034 564.651877 
L 570.276864 563.908273 
L 571.302693 562.468159 
L 572.328523 560.737017 
L 573.354352 566.371012 
L 574.380182 561.212192 
L 575.406012 563.392638 
L 576.431841 560.715928 
L 577.457671 565.712083 
L 578.4835 581.525954 
L 579.50933 571.860234 
L 580.535159 559.382567 
L 581.560989 568.849429 
L 582.586819 562.374052 
L 583.612648 569.653835 
L 584.638478 560.788069 
L 585.664307 567.325162 
L 586.690137 563.977981 
L 588.741796 570.59672 
L 589.767626 569.412478 
L 590.793455 562.014939 
L 591.819285 568.307349 
L 592.845114 562.358601 
L 593.870944 570.605964 
L 594.896774 569.446083 
L 595.922603 565.241557 
L 596.948433 569.863993 
L 597.974262 563.003761 
L 599.000092 570.697069 
L 600.025922 565.047432 
L 601.051751 571.883642 
L 602.077581 566.972606 
L 603.10341 573.427886 
L 604.12924 565.002418 
L 605.155069 572.084267 
L 606.180899 565.106822 
L 607.206729 571.571319 
L 608.232558 563.48018 
L 609.258388 570.212738 
L 610.284217 566.577279 
L 611.310047 572.33203 
L 612.335876 566.389262 
L 613.361706 572.885253 
L 614.387536 568.447432 
L 615.413365 572.900367 
L 616.439195 566.2357 
L 617.465024 571.995035 
L 618.490854 569.0244 
L 619.516684 574.890111 
L 620.542513 569.135729 
L 621.568343 574.835993 
L 622.594172 568.217011 
L 623.620002 573.492761 
L 624.645831 569.133848 
L 625.671661 573.064793 
L 626.697491 568.588413 
L 627.72332 573.908499 
L 628.74915 570.070825 
L 629.774979 575.422862 
L 630.800809 569.350826 
L 631.826638 572.870612 
L 632.852468 567.656833 
L 633.878298 575.718169 
L 634.904127 566.27212 
L 635.929957 568.758185 
L 636.955786 567.526412 
L 637.981616 576.066359 
L 639.007446 570.285605 
L 640.033275 570.807029 
L 641.059105 575.32678 
L 642.084934 574.041198 
L 643.110764 569.407555 
L 644.136593 576.381287 
L 645.162423 567.253012 
L 646.188253 575.05741 
L 647.214082 576.105585 
L 648.239912 572.333168 
L 649.265741 576.713582 
L 650.291571 568.944152 
L 651.3174 573.565007 
L 652.34323 581.262761 
L 653.36906 576.924774 
L 654.394889 571.978406 
L 655.420719 576.518439 
L 656.446548 579.088749 
L 657.472378 569.235507 
L 658.498208 565.911825 
L 659.524037 576.402485 
L 660.549867 573.504349 
L 661.575696 572.601348 
L 662.601526 572.646676 
L 663.627355 576.755006 
L 664.653185 574.070937 
L 665.679015 575.148303 
L 666.704844 573.908087 
L 667.730674 576.892477 
L 668.756503 571.781437 
L 669.782333 578.706132 
L 670.808163 572.720107 
L 671.833992 575.572662 
L 672.859822 573.083176 
L 673.885651 578.617155 
L 674.911481 573.600958 
L 675.93731 576.730189 
L 676.96314 571.936151 
L 677.98897 578.97742 
L 679.014799 573.482131 
L 680.040629 579.1724 
L 681.066458 571.211246 
L 682.092288 578.147607 
L 683.118117 574.491207 
L 684.143947 576.383446 
L 685.169777 577.312072 
L 686.195606 580.8539 
L 687.221436 574.623811 
L 688.247265 589.387671 
L 689.273095 574.096531 
L 690.298925 579.628862 
L 691.324754 574.469439 
L 692.350584 581.845866 
L 693.376413 583.653383 
L 694.402243 591.50938 
L 695.428072 581.426856 
L 696.453902 580.510065 
L 697.479732 576.52338 
L 698.505561 581.808702 
L 699.531391 576.278379 
L 700.55722 582.759034 
L 701.58305 578.176298 
L 702.608879 581.498273 
L 703.634709 576.622497 
L 704.660539 580.631143 
L 705.686368 576.888529 
L 706.712198 581.690152 
L 707.738027 577.02203 
L 708.763857 583.126976 
L 710.815516 571.511548 
L 711.841346 579.163707 
L 712.867175 582.588144 
L 713.893005 578.016223 
L 714.918834 581.530424 
L 715.944664 578.32147 
L 716.970494 582.857601 
L 717.996323 580.48171 
L 719.022153 585.942346 
L 720.047982 578.146847 
L 721.073812 582.856627 
L 722.099642 579.416093 
L 723.125471 583.503291 
L 724.151301 579.419661 
L 725.17713 583.235148 
L 726.20296 579.267526 
L 727.228789 585.095256 
L 728.254619 579.863021 
L 729.280449 583.817917 
L 730.306278 579.679329 
L 731.332108 584.811054 
L 732.357937 579.426692 
L 733.383767 584.756199 
L 734.409596 582.882169 
L 735.435426 585.772984 
L 736.461256 581.436552 
L 737.487085 584.434911 
L 738.512915 579.411141 
L 739.538744 585.659269 
L 740.564574 579.401151 
L 741.590404 586.208084 
L 742.616233 580.962724 
L 743.642063 585.559373 
L 744.667892 582.662999 
L 745.693722 597.118271 
L 746.719551 584.369907 
L 747.745381 587.44351 
L 748.771211 581.882268 
L 749.79704 587.053258 
L 750.82287 588.731338 
L 751.848699 586.655277 
L 752.874529 581.602496 
L 753.900358 588.918236 
L 754.926188 583.163164 
L 756.977847 591.665687 
L 758.003677 587.57697 
L 759.029506 584.641694 
L 760.055336 586.663773 
L 761.081166 583.840596 
L 762.106995 586.708045 
L 763.132825 587.403844 
L 764.158654 587.120264 
L 765.184484 583.276794 
L 766.210313 589.741674 
L 767.236143 584.450671 
L 768.261973 587.579051 
L 769.287802 583.333433 
L 770.313632 587.766834 
L 771.339461 584.834413 
L 772.365291 587.99385 
L 773.391121 586.618437 
L 774.41695 589.473066 
L 775.44278 585.151935 
L 776.468609 586.825839 
L 777.494439 583.305011 
L 778.520268 589.50113 
L 779.546098 593.12446 
L 780.571928 589.911491 
L 781.597757 584.596583 
L 782.623587 591.136231 
L 783.649416 584.687719 
L 784.675246 589.53948 
L 785.701075 587.181061 
L 786.726905 591.195259 
L 787.752735 585.364234 
L 788.778564 589.115574 
L 789.804394 587.70966 
L 790.830223 591.523314 
L 791.856053 588.168283 
L 792.881883 589.834688 
L 793.907712 585.659322 
L 794.933542 590.392665 
L 795.959371 587.928243 
L 796.985201 591.842385 
L 798.01103 585.952965 
L 799.03686 594.43855 
L 800.06269 587.785773 
L 801.088519 593.031114 
L 802.114349 586.888026 
L 803.140178 592.242476 
L 804.166008 587.543777 
L 805.191837 593.230775 
L 806.217667 588.278602 
L 807.243497 590.368573 
L 808.269326 586.219374 
L 809.295156 590.932938 
L 810.320985 588.4789 
L 811.346815 593.238348 
L 812.372645 593.538801 
L 814.424304 588.217118 
L 815.450133 592.333275 
L 816.475963 587.880273 
L 817.501792 592.151391 
L 818.527622 588.580282 
L 819.553452 593.359597 
L 820.579281 588.386592 
L 821.605111 593.0288 
L 822.63094 588.263639 
L 823.65677 593.429578 
L 824.6826 589.977846 
L 825.708429 590.825539 
L 826.734259 588.435979 
L 827.760088 592.610996 
L 828.785918 587.991793 
L 829.811747 594.040794 
L 830.837577 591.032197 
L 831.863407 592.72955 
L 832.889236 588.36097 
L 833.915066 592.824531 
L 834.940895 587.249445 
L 835.966725 592.254926 
L 836.992554 589.484754 
L 838.018384 596.006131 
L 839.044214 590.037591 
L 840.070043 594.300488 
L 841.095873 589.823512 
L 842.121702 593.798462 
L 843.147532 589.623613 
L 844.173362 595.775611 
L 845.199191 589.248409 
L 846.225021 593.786451 
L 847.25085 590.222156 
L 848.27668 594.732803 
L 849.302509 591.119644 
L 850.328339 594.308552 
L 851.354169 596.227954 
L 852.379998 595.87751 
L 853.405828 592.17681 
L 854.431657 595.873384 
L 855.457487 590.985817 
L 856.483316 595.502787 
L 857.509146 591.776526 
L 858.534976 596.735233 
L 859.560805 591.760946 
L 860.586635 599.178402 
L 861.612464 593.752728 
L 862.638294 595.346227 
L 863.664124 600.075601 
L 864.689953 596.461779 
L 865.715783 591.624612 
L 866.741612 598.978157 
L 867.767442 592.011824 
L 868.793271 595.73965 
L 869.819101 592.979734 
L 870.844931 595.697582 
L 871.87076 591.517592 
L 872.89659 596.173894 
L 873.922419 591.856872 
L 874.948249 595.467543 
L 875.974078 592.243969 
L 876.999908 595.933426 
L 878.025738 593.077198 
L 879.051567 597.822425 
L 880.077397 591.950668 
L 881.103226 596.278655 
L 882.129056 592.681769 
L 883.154886 596.534508 
L 884.180715 593.125311 
L 885.206545 597.26939 
L 886.232374 594.028883 
L 887.258204 597.007449 
L 888.284033 593.549918 
L 889.309863 596.763377 
L 890.335693 593.346899 
L 891.361522 601.185249 
L 892.387352 594.842759 
L 893.413181 597.391393 
L 894.439011 595.10574 
L 895.464841 598.53828 
L 896.49067 594.539716 
L 897.5165 598.349245 
L 898.542329 593.491062 
L 899.568159 598.409323 
L 900.593988 601.182703 
L 901.619818 599.27179 
L 902.645648 593.826005 
L 903.671477 602.71087 
L 904.697307 596.120219 
L 905.723136 599.376786 
L 906.748966 595.854508 
L 907.774795 601.404751 
L 908.800625 595.725084 
L 909.826455 595.928262 
L 910.852284 601.872268 
L 911.878114 600.678128 
L 912.903943 595.44224 
L 913.929773 599.178611 
L 914.955603 597.178935 
L 915.981432 599.327304 
L 917.007262 602.177206 
L 918.033091 600.446197 
L 919.058921 596.794137 
L 920.08475 599.857488 
L 921.11058 597.457316 
L 922.13641 600.709238 
L 923.162239 595.493047 
L 924.188069 600.076557 
L 925.213898 596.489614 
L 926.239728 600.00898 
L 927.265557 600.953816 
L 928.291387 593.298694 
L 929.317217 589.553355 
L 930.343046 590.996953 
L 931.368876 597.201586 
L 932.394705 600.975957 
L 933.420535 580.146416 
L 934.446365 610.524623 
L 935.472194 597.560765 
L 936.498024 600.457546 
L 937.523853 596.794666 
L 938.549683 601.123611 
L 939.575512 596.451828 
L 940.601342 601.438893 
L 941.627172 597.071546 
L 942.653001 600.799392 
L 943.678831 597.392189 
L 944.70466 601.506573 
L 945.73049 597.879369 
L 946.75632 600.679121 
L 947.782149 597.666629 
L 948.807979 600.701071 
L 949.833808 597.549172 
L 950.859638 602.2274 
L 951.885467 599.243854 
L 952.911297 601.570352 
L 953.937127 598.439336 
L 954.962956 600.747373 
L 955.988786 604.298132 
L 957.014615 603.355027 
L 958.040445 599.543223 
L 959.066274 601.787824 
L 960.092104 598.304259 
L 961.117934 602.246084 
L 962.143763 600.398425 
L 963.169593 602.47949 
L 964.195422 599.184156 
L 965.221252 601.827063 
L 966.247082 598.411945 
L 967.272911 602.78086 
L 968.298741 599.268287 
L 969.32457 607.400033 
L 970.3504 600.047683 
L 971.376229 602.47653 
L 972.402059 599.138262 
L 973.427889 602.888681 
L 974.453718 599.560309 
L 975.479548 602.409662 
L 976.505377 581.76785 
L 977.531207 587.266785 
L 978.557036 580.869397 
L 979.582866 606.664082 
L 980.608696 599.979768 
L 981.634525 603.185228 
L 982.660355 601.487431 
L 983.686184 604.074955 
L 984.712014 599.63406 
L 985.737844 602.80169 
L 986.763673 600.14141 
L 987.789503 603.292766 
L 988.815332 599.838438 
L 989.841162 603.657762 
L 990.866991 600.767852 
L 991.892821 604.127893 
L 992.918651 600.552535 
L 993.94448 604.486861 
L 994.97031 600.93129 
L 995.996139 603.770458 
L 997.021969 600.423219 
L 998.047799 597.979348 
L 999.073628 601.098811 
L 1000.099458 603.273099 
L 1001.125287 600.957077 
L 1002.151117 604.419283 
L 1003.176946 600.008916 
L 1004.202776 603.788421 
L 1005.228606 601.587534 
L 1006.254435 604.731669 
L 1007.280265 601.755152 
L 1008.306094 612.012948 
L 1009.331924 602.160775 
L 1010.357753 606.018329 
L 1011.383583 602.27095 
L 1012.409413 605.838542 
L 1013.435242 602.343325 
L 1014.461072 605.27666 
L 1015.486901 602.249724 
L 1016.512731 604.415549 
L 1017.538561 601.589953 
L 1018.56439 605.123449 
L 1019.59022 600.735671 
L 1020.616049 604.373715 
L 1021.641879 601.286523 
L 1022.667708 604.891128 
L 1023.693538 601.648263 
L 1024.719368 605.188335 
L 1025.745197 603.03742 
L 1026.771027 605.092213 
L 1027.796856 602.308863 
L 1028.822686 605.519748 
L 1029.848515 602.077311 
L 1030.874345 605.211083 
L 1031.900175 601.481033 
L 1032.926004 605.316951 
L 1033.951834 601.988574 
L 1034.977663 605.554096 
L 1036.003493 602.129542 
L 1037.029323 605.325286 
L 1038.055152 602.032967 
L 1039.080982 605.577366 
L 1040.106811 603.387839 
L 1041.132641 605.452777 
L 1042.15847 602.118301 
L 1043.1843 604.917429 
L 1044.21013 602.387372 
L 1045.235959 605.526913 
L 1046.261789 602.225023 
L 1047.287618 606.402845 
L 1048.313448 602.698649 
L 1049.339278 605.92338 
L 1050.365107 603.225646 
L 1051.390937 607.151149 
L 1052.416766 602.585386 
L 1053.442596 606.269524 
L 1054.468425 603.487991 
L 1055.494255 606.221656 
L 1056.520085 603.087024 
L 1057.545914 607.083098 
L 1058.571744 599.570785 
L 1059.597573 608.461625 
L 1060.623403 603.910527 
L 1061.649232 609.333932 
L 1062.675062 607.054049 
L 1063.700892 608.568864 
L 1064.726721 604.766686 
L 1065.752551 607.735245 
L 1066.77838 604.132804 
L 1067.80421 607.455099 
L 1068.83004 603.765347 
L 1069.855869 607.329103 
L 1070.881699 603.846205 
L 1071.907528 607.095283 
L 1072.933358 604.701915 
L 1073.959187 611.994833 
L 1074.985017 603.76956 
L 1076.010847 606.830801 
L 1077.036676 603.799579 
L 1078.062506 607.467141 
L 1079.088335 603.872886 
L 1080.114165 607.078502 
L 1081.139994 604.448602 
L 1082.165824 607.201033 
L 1083.191654 604.123483 
L 1084.217483 607.385104 
L 1085.243313 604.652634 
L 1086.269142 607.197641 
L 1087.294972 604.24169 
L 1088.320802 607.900469 
L 1089.346631 604.641804 
L 1090.372461 607.355486 
L 1091.39829 605.27109 
L 1092.42412 607.59776 
L 1093.449949 604.470348 
L 1094.475779 608.152481 
L 1095.501609 604.52514 
L 1096.527438 609.511483 
L 1097.553268 605.115002 
L 1098.579097 607.64481 
L 1099.604927 605.134628 
L 1100.630757 607.93119 
L 1101.656586 605.250927 
L 1102.682416 607.900905 
L 1103.708245 605.079639 
L 1104.734075 608.481819 
L 1105.759904 606.240807 
L 1106.785734 608.530949 
L 1107.811564 607.966178 
L 1108.837393 611.822815 
L 1109.863223 608.10313 
L 1110.889052 608.234513 
L 1111.914882 607.13001 
L 1112.940711 609.71413 
L 1113.966541 609.492086 
L 1114.992371 610.026001 
L 1116.0182 606.658041 
L 1117.04403 609.371549 
L 1118.069859 607.462711 
L 1119.095689 608.72521 
L 1120.121519 605.794969 
L 1121.147348 609.094337 
L 1122.173178 605.638774 
L 1123.199007 608.866519 
L 1124.224837 606.097793 
L 1125.250666 608.634334 
L 1126.276496 605.825461 
L 1127.302326 609.129826 
L 1128.328155 606.245361 
L 1129.353985 609.265163 
L 1130.379814 606.061411 
L 1131.405644 608.968396 
L 1132.431473 605.706157 
L 1133.457303 609.655461 
L 1134.483133 606.261303 
L 1135.508962 609.231692 
L 1136.534792 605.758558 
L 1137.560621 609.292796 
L 1138.586451 606.577642 
L 1139.612281 606.222648 
L 1140.63811 606.029317 
L 1141.66394 611.130118 
L 1142.689769 608.089789 
L 1143.715599 609.098993 
L 1144.741428 606.869181 
L 1145.767258 609.754958 
L 1146.793088 606.348434 
L 1147.818917 609.077158 
L 1148.844747 607.597735 
L 1149.870576 609.044122 
L 1150.896406 606.499668 
L 1151.922235 610.661178 
L 1152.948065 606.821279 
L 1153.973895 610.198487 
L 1154.999724 606.437795 
L 1156.025554 609.719807 
L 1157.051383 606.64821 
L 1158.077213 608.671506 
L 1159.103043 606.248439 
L 1160.128872 610.378124 
L 1161.154702 606.899807 
L 1162.180531 610.57384 
L 1163.206361 609.795053 
L 1164.23219 610.494833 
L 1165.25802 607.973239 
L 1166.28385 614.144799 
L 1167.309679 608.386901 
L 1168.335509 612.2807 
L 1169.361338 607.759791 
L 1170.387168 610.701975 
L 1171.412998 607.697263 
L 1172.438827 611.418958 
L 1173.464657 609.174899 
L 1174.490486 610.368877 
L 1175.516316 607.545776 
L 1176.542145 610.406496 
L 1177.567975 607.689529 
L 1178.593805 610.249569 
L 1179.619634 608.291208 
L 1180.645464 611.133723 
L 1181.671293 607.730149 
L 1182.697123 610.991482 
L 1183.722952 607.519897 
L 1184.748782 610.852589 
L 1185.774612 607.711486 
L 1186.800441 610.397354 
L 1187.826271 607.844692 
L 1188.8521 610.707765 
L 1189.87793 608.41419 
L 1190.90376 610.556908 
L 1191.929589 607.954647 
L 1192.955419 610.467835 
L 1193.981248 608.836579 
L 1195.007078 610.84925 
L 1196.032907 608.47073 
L 1197.058737 610.600239 
L 1198.084567 608.598968 
L 1199.110396 610.775491 
L 1200.136226 608.737578 
L 1201.162055 611.064134 
L 1202.187885 608.791494 
L 1203.213714 611.086459 
L 1204.239544 608.122462 
L 1205.265374 611.575726 
L 1206.291203 608.188146 
L 1207.317033 611.306973 
L 1208.342862 608.593061 
L 1209.368692 612.010121 
L 1210.394522 608.631468 
L 1211.420351 611.542527 
L 1212.446181 608.825548 
L 1213.47201 614.553518 
L 1214.49784 609.178819 
L 1215.523669 612.388561 
L 1216.549499 609.354003 
L 1217.575329 612.020896 
L 1218.601158 613.901326 
L 1219.626988 612.835837 
L 1220.652817 609.86186 
L 1221.678647 612.326879 
L 1222.704477 609.68831 
L 1223.730306 611.873153 
L 1224.756136 608.988506 
L 1225.781965 613.103077 
L 1226.807795 609.188618 
L 1227.833624 611.85753 
L 1228.859454 609.239904 
L 1229.885284 614.985576 
L 1230.911113 609.29818 
L 1231.936943 612.375999 
L 1232.962772 609.22491 
L 1233.988602 612.161085 
L 1235.014431 609.173613 
L 1236.040261 612.499511 
L 1237.066091 609.816106 
L 1238.09192 611.817972 
L 1239.11775 609.482196 
L 1240.143579 612.515269 
L 1241.169409 609.231567 
L 1242.195239 615.6 
L 1243.221068 609.730983 
L 1244.246898 612.303935 
L 1245.272727 609.668785 
L 1245.272727 609.668785 
" style="fill:none;stroke:#ff7f0e;stroke-linecap:square;stroke-width:1.5;"/>
   </g>
   <g id="patch_3">
    <path d="M 180 640.8 
L 180 86.4 
" style="fill:none;stroke:#000000;stroke-linecap:square;stroke-linejoin:miter;stroke-width:0.8;"/>
   </g>
   <g id="patch_4">
    <path d="M 1296 640.8 
L 1296 86.4 
" style="fill:none;stroke:#000000;stroke-linecap:square;stroke-linejoin:miter;stroke-width:0.8;"/>
   </g>
   <g id="patch_5">
    <path d="M 180 640.8 
L 1296 640.8 
" style="fill:none;stroke:#000000;stroke-linecap:square;stroke-linejoin:miter;stroke-width:0.8;"/>
   </g>
   <g id="patch_6">
    <path d="M 180 86.4 
L 1296 86.4 
" style="fill:none;stroke:#000000;stroke-linecap:square;stroke-linejoin:miter;stroke-width:0.8;"/>
   </g>
   <g id="text_20">
    <!-- Ease of movement (EoM, EMV) Speedup -->
    <defs>
     <path d="M 9.8125 72.90625 
L 55.90625 72.90625 
L 55.90625 64.59375 
L 19.671875 64.59375 
L 19.671875 43.015625 
L 54.390625 43.015625 
L 54.390625 34.71875 
L 19.671875 34.71875 
L 19.671875 8.296875 
L 56.78125 8.296875 
L 56.78125 0 
L 9.8125 0 
z
" id="DejaVuSans-69"/>
     <path d="M 34.28125 27.484375 
Q 23.390625 27.484375 19.1875 25 
Q 14.984375 22.515625 14.984375 16.5 
Q 14.984375 11.71875 18.140625 8.90625 
Q 21.296875 6.109375 26.703125 6.109375 
Q 34.1875 6.109375 38.703125 11.40625 
Q 43.21875 16.703125 43.21875 25.484375 
L 43.21875 27.484375 
z
M 52.203125 31.203125 
L 52.203125 0 
L 43.21875 0 
L 43.21875 8.296875 
Q 40.140625 3.328125 35.546875 0.953125 
Q 30.953125 -1.421875 24.3125 -1.421875 
Q 15.921875 -1.421875 10.953125 3.296875 
Q 6 8.015625 6 15.921875 
Q 6 25.140625 12.171875 29.828125 
Q 18.359375 34.515625 30.609375 34.515625 
L 43.21875 34.515625 
L 43.21875 35.40625 
Q 43.21875 41.609375 39.140625 45 
Q 35.0625 48.390625 27.6875 48.390625 
Q 23 48.390625 18.546875 47.265625 
Q 14.109375 46.140625 10.015625 43.890625 
L 10.015625 52.203125 
Q 14.9375 54.109375 19.578125 55.046875 
Q 24.21875 56 28.609375 56 
Q 40.484375 56 46.34375 49.84375 
Q 52.203125 43.703125 52.203125 31.203125 
z
" id="DejaVuSans-97"/>
     <path id="DejaVuSans-32"/>
     <path d="M 30.609375 48.390625 
Q 23.390625 48.390625 19.1875 42.75 
Q 14.984375 37.109375 14.984375 27.296875 
Q 14.984375 17.484375 19.15625 11.84375 
Q 23.34375 6.203125 30.609375 6.203125 
Q 37.796875 6.203125 41.984375 11.859375 
Q 46.1875 17.53125 46.1875 27.296875 
Q 46.1875 37.015625 41.984375 42.703125 
Q 37.796875 48.390625 30.609375 48.390625 
z
M 30.609375 56 
Q 42.328125 56 49.015625 48.375 
Q 55.71875 40.765625 55.71875 27.296875 
Q 55.71875 13.875 49.015625 6.21875 
Q 42.328125 -1.421875 30.609375 -1.421875 
Q 18.84375 -1.421875 12.171875 6.21875 
Q 5.515625 13.875 5.515625 27.296875 
Q 5.515625 40.765625 12.171875 48.375 
Q 18.84375 56 30.609375 56 
z
" id="DejaVuSans-111"/>
     <path d="M 37.109375 75.984375 
L 37.109375 68.5 
L 28.515625 68.5 
Q 23.6875 68.5 21.796875 66.546875 
Q 19.921875 64.59375 19.921875 59.515625 
L 19.921875 54.6875 
L 34.71875 54.6875 
L 34.71875 47.703125 
L 19.921875 47.703125 
L 19.921875 0 
L 10.890625 0 
L 10.890625 47.703125 
L 2.296875 47.703125 
L 2.296875 54.6875 
L 10.890625 54.6875 
L 10.890625 58.5 
Q 10.890625 67.625 15.140625 71.796875 
Q 19.390625 75.984375 28.609375 75.984375 
z
" id="DejaVuSans-102"/>
     <path d="M 52 44.1875 
Q 55.375 50.25 60.0625 53.125 
Q 64.75 56 71.09375 56 
Q 79.640625 56 84.28125 50.015625 
Q 88.921875 44.046875 88.921875 33.015625 
L 88.921875 0 
L 79.890625 0 
L 79.890625 32.71875 
Q 79.890625 40.578125 77.09375 44.375 
Q 74.3125 48.1875 68.609375 48.1875 
Q 61.625 48.1875 57.5625 43.546875 
Q 53.515625 38.921875 53.515625 30.90625 
L 53.515625 0 
L 44.484375 0 
L 44.484375 32.71875 
Q 44.484375 40.625 41.703125 44.40625 
Q 38.921875 48.1875 33.109375 48.1875 
Q 26.21875 48.1875 22.15625 43.53125 
Q 18.109375 38.875 18.109375 30.90625 
L 18.109375 0 
L 9.078125 0 
L 9.078125 54.6875 
L 18.109375 54.6875 
L 18.109375 46.1875 
Q 21.1875 51.21875 25.484375 53.609375 
Q 29.78125 56 35.6875 56 
Q 41.65625 56 45.828125 52.96875 
Q 50 49.953125 52 44.1875 
z
" id="DejaVuSans-109"/>
     <path d="M 2.984375 54.6875 
L 12.5 54.6875 
L 29.59375 8.796875 
L 46.6875 54.6875 
L 56.203125 54.6875 
L 35.6875 0 
L 23.484375 0 
z
" id="DejaVuSans-118"/>
     <path d="M 18.3125 70.21875 
L 18.3125 54.6875 
L 36.8125 54.6875 
L 36.8125 47.703125 
L 18.3125 47.703125 
L 18.3125 18.015625 
Q 18.3125 11.328125 20.140625 9.421875 
Q 21.96875 7.515625 27.59375 7.515625 
L 36.8125 7.515625 
L 36.8125 0 
L 27.59375 0 
Q 17.1875 0 13.234375 3.875 
Q 9.28125 7.765625 9.28125 18.015625 
L 9.28125 47.703125 
L 2.6875 47.703125 
L 2.6875 54.6875 
L 9.28125 54.6875 
L 9.28125 70.21875 
z
" id="DejaVuSans-116"/>
     <path d="M 31 75.875 
Q 24.46875 64.65625 21.28125 53.65625 
Q 18.109375 42.671875 18.109375 31.390625 
Q 18.109375 20.125 21.3125 9.0625 
Q 24.515625 -2 31 -13.1875 
L 23.1875 -13.1875 
Q 15.875 -1.703125 12.234375 9.375 
Q 8.59375 20.453125 8.59375 31.390625 
Q 8.59375 42.28125 12.203125 53.3125 
Q 15.828125 64.359375 23.1875 75.875 
z
" id="DejaVuSans-40"/>
     <path d="M 9.8125 72.90625 
L 24.515625 72.90625 
L 43.109375 23.296875 
L 61.8125 72.90625 
L 76.515625 72.90625 
L 76.515625 0 
L 66.890625 0 
L 66.890625 64.015625 
L 48.09375 14.015625 
L 38.1875 14.015625 
L 19.390625 64.015625 
L 19.390625 0 
L 9.8125 0 
z
" id="DejaVuSans-77"/>
     <path d="M 11.71875 12.40625 
L 22.015625 12.40625 
L 22.015625 4 
L 14.015625 -11.625 
L 7.71875 -11.625 
L 11.71875 4 
z
" id="DejaVuSans-44"/>
     <path d="M 28.609375 0 
L 0.78125 72.90625 
L 11.078125 72.90625 
L 34.1875 11.53125 
L 57.328125 72.90625 
L 67.578125 72.90625 
L 39.796875 0 
z
" id="DejaVuSans-86"/>
     <path d="M 8.015625 75.875 
L 15.828125 75.875 
Q 23.140625 64.359375 26.78125 53.3125 
Q 30.421875 42.28125 30.421875 31.390625 
Q 30.421875 20.453125 26.78125 9.375 
Q 23.140625 -1.703125 15.828125 -13.1875 
L 8.015625 -13.1875 
Q 14.5 -2 17.703125 9.0625 
Q 20.90625 20.125 20.90625 31.390625 
Q 20.90625 42.671875 17.703125 53.65625 
Q 14.5 64.65625 8.015625 75.875 
z
" id="DejaVuSans-41"/>
     <path d="M 53.515625 70.515625 
L 53.515625 60.890625 
Q 47.90625 63.578125 42.921875 64.890625 
Q 37.9375 66.21875 33.296875 66.21875 
Q 25.25 66.21875 20.875 63.09375 
Q 16.5 59.96875 16.5 54.203125 
Q 16.5 49.359375 19.40625 46.890625 
Q 22.3125 44.4375 30.421875 42.921875 
L 36.375 41.703125 
Q 47.40625 39.59375 52.65625 34.296875 
Q 57.90625 29 57.90625 20.125 
Q 57.90625 9.515625 50.796875 4.046875 
Q 43.703125 -1.421875 29.984375 -1.421875 
Q 24.8125 -1.421875 18.96875 -0.25 
Q 13.140625 0.921875 6.890625 3.21875 
L 6.890625 13.375 
Q 12.890625 10.015625 18.65625 8.296875 
Q 24.421875 6.59375 29.984375 6.59375 
Q 38.421875 6.59375 43.015625 9.90625 
Q 47.609375 13.234375 47.609375 19.390625 
Q 47.609375 24.75 44.3125 27.78125 
Q 41.015625 30.8125 33.5 32.328125 
L 27.484375 33.5 
Q 16.453125 35.6875 11.515625 40.375 
Q 6.59375 45.0625 6.59375 53.421875 
Q 6.59375 63.09375 13.40625 68.65625 
Q 20.21875 74.21875 32.171875 74.21875 
Q 37.3125 74.21875 42.625 73.28125 
Q 47.953125 72.359375 53.515625 70.515625 
z
" id="DejaVuSans-83"/>
    </defs>
    <g transform="translate(617.22375 80.4)scale(0.12 -0.12)">
     <use xlink:href="#DejaVuSans-69"/>
     <use x="63.183594" xlink:href="#DejaVuSans-97"/>
     <use x="124.462891" xlink:href="#DejaVuSans-115"/>
     <use x="176.5625" xlink:href="#DejaVuSans-101"/>
     <use x="238.085938" xlink:href="#DejaVuSans-32"/>
     <use x="269.873047" xlink:href="#DejaVuSans-111"/>
     <use x="331.054688" xlink:href="#DejaVuSans-102"/>
     <use x="366.259766" xlink:href="#DejaVuSans-32"/>
     <use x="398.046875" xlink:href="#DejaVuSans-109"/>
     <use x="495.458984" xlink:href="#DejaVuSans-111"/>
     <use x="556.640625" xlink:href="#DejaVuSans-118"/>
     <use x="615.820312" xlink:href="#DejaVuSans-101"/>
     <use x="677.34375" xlink:href="#DejaVuSans-109"/>
     <use x="774.755859" xlink:href="#DejaVuSans-101"/>
     <use x="836.279297" xlink:href="#DejaVuSans-110"/>
     <use x="899.658203" xlink:href="#DejaVuSans-116"/>
     <use x="938.867188" xlink:href="#DejaVuSans-32"/>
     <use x="970.654297" xlink:href="#DejaVuSans-40"/>
     <use x="1009.667969" xlink:href="#DejaVuSans-69"/>
     <use x="1072.851562" xlink:href="#DejaVuSans-111"/>
     <use x="1134.033203" xlink:href="#DejaVuSans-77"/>
     <use x="1220.3125" xlink:href="#DejaVuSans-44"/>
     <use x="1252.099609" xlink:href="#DejaVuSans-32"/>
     <use x="1283.886719" xlink:href="#DejaVuSans-69"/>
     <use x="1347.070312" xlink:href="#DejaVuSans-77"/>
     <use x="1433.349609" xlink:href="#DejaVuSans-86"/>
     <use x="1501.757812" xlink:href="#DejaVuSans-41"/>
     <use x="1540.771484" xlink:href="#DejaVuSans-32"/>
     <use x="1572.558594" xlink:href="#DejaVuSans-83"/>
     <use x="1636.035156" xlink:href="#DejaVuSans-112"/>
     <use x="1699.511719" xlink:href="#DejaVuSans-101"/>
     <use x="1761.035156" xlink:href="#DejaVuSans-101"/>
     <use x="1822.558594" xlink:href="#DejaVuSans-100"/>
     <use x="1886.035156" xlink:href="#DejaVuSans-117"/>
     <use x="1949.414062" xlink:href="#DejaVuSans-112"/>
    </g>
   </g>
   <g id="legend_1">
    <g id="patch_7">
     <path d="M 1185.373437 123.75625 
L 1289 123.75625 
Q 1291 123.75625 1291 121.75625 
L 1291 93.4 
Q 1291 91.4 1289 91.4 
L 1185.373437 91.4 
Q 1183.373437 91.4 1183.373437 93.4 
L 1183.373437 121.75625 
Q 1183.373437 123.75625 1185.373437 123.75625 
z
" style="fill:#ffffff;opacity:0.8;stroke:#cccccc;stroke-linejoin:miter;"/>
    </g>
    <g id="line2d_20">
     <path d="M 1187.373437 99.498437 
L 1207.373437 99.498437 
" style="fill:none;stroke:#1f77b4;stroke-linecap:square;stroke-width:1.5;"/>
    </g>
    <g id="line2d_21"/>
    <g id="text_21">
     <!-- numpy.float32 -->
     <defs>
      <path d="M 32.171875 -5.078125 
Q 28.375 -14.84375 24.75 -17.8125 
Q 21.140625 -20.796875 15.09375 -20.796875 
L 7.90625 -20.796875 
L 7.90625 -13.28125 
L 13.1875 -13.28125 
Q 16.890625 -13.28125 18.9375 -11.515625 
Q 21 -9.765625 23.484375 -3.21875 
L 25.09375 0.875 
L 2.984375 54.6875 
L 12.5 54.6875 
L 29.59375 11.921875 
L 46.6875 54.6875 
L 56.203125 54.6875 
z
" id="DejaVuSans-121"/>
      <path d="M 9.421875 75.984375 
L 18.40625 75.984375 
L 18.40625 0 
L 9.421875 0 
z
" id="DejaVuSans-108"/>
     </defs>
     <g transform="translate(1215.373437 102.998437)scale(0.1 -0.1)">
      <use xlink:href="#DejaVuSans-110"/>
      <use x="63.378906" xlink:href="#DejaVuSans-117"/>
      <use x="126.757812" xlink:href="#DejaVuSans-109"/>
      <use x="224.169922" xlink:href="#DejaVuSans-112"/>
      <use x="287.646484" xlink:href="#DejaVuSans-121"/>
      <use x="332.576172" xlink:href="#DejaVuSans-46"/>
      <use x="364.363281" xlink:href="#DejaVuSans-102"/>
      <use x="399.568359" xlink:href="#DejaVuSans-108"/>
      <use x="427.351562" xlink:href="#DejaVuSans-111"/>
      <use x="488.533203" xlink:href="#DejaVuSans-97"/>
      <use x="549.8125" xlink:href="#DejaVuSans-116"/>
      <use x="589.021484" xlink:href="#DejaVuSans-51"/>
      <use x="652.644531" xlink:href="#DejaVuSans-50"/>
     </g>
    </g>
    <g id="line2d_22">
     <path d="M 1187.373437 114.176562 
L 1207.373437 114.176562 
" style="fill:none;stroke:#ff7f0e;stroke-linecap:square;stroke-width:1.5;"/>
    </g>
    <g id="line2d_23"/>
    <g id="text_22">
     <!-- numpy.float64 -->
     <g transform="translate(1215.373437 117.676562)scale(0.1 -0.1)">
      <use xlink:href="#DejaVuSans-110"/>
      <use x="63.378906" xlink:href="#DejaVuSans-117"/>
      <use x="126.757812" xlink:href="#DejaVuSans-109"/>
      <use x="224.169922" xlink:href="#DejaVuSans-112"/>
      <use x="287.646484" xlink:href="#DejaVuSans-121"/>
      <use x="332.576172" xlink:href="#DejaVuSans-46"/>
      <use x="364.363281" xlink:href="#DejaVuSans-102"/>
      <use x="399.568359" xlink:href="#DejaVuSans-108"/>
      <use x="427.351562" xlink:href="#DejaVuSans-111"/>
      <use x="488.533203" xlink:href="#DejaVuSans-97"/>
      <use x="549.8125" xlink:href="#DejaVuSans-116"/>
      <use x="589.021484" xlink:href="#DejaVuSans-54"/>
      <use x="652.644531" xlink:href="#DejaVuSans-52"/>
     </g>
    </g>
   </g>
  </g>
 </g>
 <defs>
  <clipPath id="pf2ed0f7d98">
   <rect height="554.4" width="1116" x="180" y="86.4"/>
  </clipPath>
 </defs>
</svg>
