<?xml version="1.0" encoding="utf-8" standalone="no"?>
<!DOCTYPE svg PUBLIC "-//W3C//DTD SVG 1.1//EN"
  "http://www.w3.org/Graphics/SVG/1.1/DTD/svg11.dtd">
<!-- Created with matplotlib (https://matplotlib.org/) -->
<svg height="720pt" version="1.1" viewBox="0 0 1440 720" width="1440pt" xmlns="http://www.w3.org/2000/svg" xmlns:xlink="http://www.w3.org/1999/xlink">
 <defs>
  <style type="text/css">
*{stroke-linecap:butt;stroke-linejoin:round;}
  </style>
 </defs>
 <g id="figure_1">
  <g id="patch_1">
   <path d="M 0 720 
L 1440 720 
L 1440 0 
L 0 0 
z
" style="fill:#ffffff;"/>
  </g>
  <g id="axes_1">
   <g id="patch_2">
    <path d="M 180 640.8 
L 1296 640.8 
L 1296 86.4 
L 180 86.4 
z
" style="fill:#ffffff;"/>
   </g>
   <g id="matplotlib.axis_1">
    <g id="xtick_1">
     <g id="line2d_1">
      <defs>
       <path d="M 0 0 
L 0 3.5 
" id="m6840895ad1" style="stroke:#000000;stroke-width:0.8;"/>
      </defs>
      <g>
       <use style="stroke:#000000;stroke-width:0.8;" x="333.310231" xlink:href="#m6840895ad1" y="640.8"/>
      </g>
     </g>
     <g id="text_1">
      <!-- 100.0 -->
      <defs>
       <path d="M 12.40625 8.296875 
L 28.515625 8.296875 
L 28.515625 63.921875 
L 10.984375 60.40625 
L 10.984375 69.390625 
L 28.421875 72.90625 
L 38.28125 72.90625 
L 38.28125 8.296875 
L 54.390625 8.296875 
L 54.390625 0 
L 12.40625 0 
z
" id="DejaVuSans-49"/>
       <path d="M 31.78125 66.40625 
Q 24.171875 66.40625 20.328125 58.90625 
Q 16.5 51.421875 16.5 36.375 
Q 16.5 21.390625 20.328125 13.890625 
Q 24.171875 6.390625 31.78125 6.390625 
Q 39.453125 6.390625 43.28125 13.890625 
Q 47.125 21.390625 47.125 36.375 
Q 47.125 51.421875 43.28125 58.90625 
Q 39.453125 66.40625 31.78125 66.40625 
z
M 31.78125 74.21875 
Q 44.046875 74.21875 50.515625 64.515625 
Q 56.984375 54.828125 56.984375 36.375 
Q 56.984375 17.96875 50.515625 8.265625 
Q 44.046875 -1.421875 31.78125 -1.421875 
Q 19.53125 -1.421875 13.0625 8.265625 
Q 6.59375 17.96875 6.59375 36.375 
Q 6.59375 54.828125 13.0625 64.515625 
Q 19.53125 74.21875 31.78125 74.21875 
z
" id="DejaVuSans-48"/>
       <path d="M 10.6875 12.40625 
L 21 12.40625 
L 21 0 
L 10.6875 0 
z
" id="DejaVuSans-46"/>
      </defs>
      <g transform="translate(318.996168 655.398438)scale(0.1 -0.1)">
       <use xlink:href="#DejaVuSans-49"/>
       <use x="63.623047" xlink:href="#DejaVuSans-48"/>
       <use x="127.246094" xlink:href="#DejaVuSans-48"/>
       <use x="190.869141" xlink:href="#DejaVuSans-46"/>
       <use x="222.65625" xlink:href="#DejaVuSans-48"/>
      </g>
     </g>
    </g>
    <g id="xtick_2">
     <g id="line2d_2">
      <g>
       <use style="stroke:#000000;stroke-width:0.8;" x="435.893189" xlink:href="#m6840895ad1" y="640.8"/>
      </g>
     </g>
     <g id="text_2">
      <!-- 200.0 -->
      <defs>
       <path d="M 19.1875 8.296875 
L 53.609375 8.296875 
L 53.609375 0 
L 7.328125 0 
L 7.328125 8.296875 
Q 12.9375 14.109375 22.625 23.890625 
Q 32.328125 33.6875 34.8125 36.53125 
Q 39.546875 41.84375 41.421875 45.53125 
Q 43.3125 49.21875 43.3125 52.78125 
Q 43.3125 58.59375 39.234375 62.25 
Q 35.15625 65.921875 28.609375 65.921875 
Q 23.96875 65.921875 18.8125 64.3125 
Q 13.671875 62.703125 7.8125 59.421875 
L 7.8125 69.390625 
Q 13.765625 71.78125 18.9375 73 
Q 24.125 74.21875 28.421875 74.21875 
Q 39.75 74.21875 46.484375 68.546875 
Q 53.21875 62.890625 53.21875 53.421875 
Q 53.21875 48.921875 51.53125 44.890625 
Q 49.859375 40.875 45.40625 35.40625 
Q 44.1875 33.984375 37.640625 27.21875 
Q 31.109375 20.453125 19.1875 8.296875 
z
" id="DejaVuSans-50"/>
      </defs>
      <g transform="translate(421.579126 655.398438)scale(0.1 -0.1)">
       <use xlink:href="#DejaVuSans-50"/>
       <use x="63.623047" xlink:href="#DejaVuSans-48"/>
       <use x="127.246094" xlink:href="#DejaVuSans-48"/>
       <use x="190.869141" xlink:href="#DejaVuSans-46"/>
       <use x="222.65625" xlink:href="#DejaVuSans-48"/>
      </g>
     </g>
    </g>
    <g id="xtick_3">
     <g id="line2d_3">
      <g>
       <use style="stroke:#000000;stroke-width:0.8;" x="538.476147" xlink:href="#m6840895ad1" y="640.8"/>
      </g>
     </g>
     <g id="text_3">
      <!-- 300.0 -->
      <defs>
       <path d="M 40.578125 39.3125 
Q 47.65625 37.796875 51.625 33 
Q 55.609375 28.21875 55.609375 21.1875 
Q 55.609375 10.40625 48.1875 4.484375 
Q 40.765625 -1.421875 27.09375 -1.421875 
Q 22.515625 -1.421875 17.65625 -0.515625 
Q 12.796875 0.390625 7.625 2.203125 
L 7.625 11.71875 
Q 11.71875 9.328125 16.59375 8.109375 
Q 21.484375 6.890625 26.8125 6.890625 
Q 36.078125 6.890625 40.9375 10.546875 
Q 45.796875 14.203125 45.796875 21.1875 
Q 45.796875 27.640625 41.28125 31.265625 
Q 36.765625 34.90625 28.71875 34.90625 
L 20.21875 34.90625 
L 20.21875 43.015625 
L 29.109375 43.015625 
Q 36.375 43.015625 40.234375 45.921875 
Q 44.09375 48.828125 44.09375 54.296875 
Q 44.09375 59.90625 40.109375 62.90625 
Q 36.140625 65.921875 28.71875 65.921875 
Q 24.65625 65.921875 20.015625 65.03125 
Q 15.375 64.15625 9.8125 62.3125 
L 9.8125 71.09375 
Q 15.4375 72.65625 20.34375 73.4375 
Q 25.25 74.21875 29.59375 74.21875 
Q 40.828125 74.21875 47.359375 69.109375 
Q 53.90625 64.015625 53.90625 55.328125 
Q 53.90625 49.265625 50.4375 45.09375 
Q 46.96875 40.921875 40.578125 39.3125 
z
" id="DejaVuSans-51"/>
      </defs>
      <g transform="translate(524.162084 655.398438)scale(0.1 -0.1)">
       <use xlink:href="#DejaVuSans-51"/>
       <use x="63.623047" xlink:href="#DejaVuSans-48"/>
       <use x="127.246094" xlink:href="#DejaVuSans-48"/>
       <use x="190.869141" xlink:href="#DejaVuSans-46"/>
       <use x="222.65625" xlink:href="#DejaVuSans-48"/>
      </g>
     </g>
    </g>
    <g id="xtick_4">
     <g id="line2d_4">
      <g>
       <use style="stroke:#000000;stroke-width:0.8;" x="641.059105" xlink:href="#m6840895ad1" y="640.8"/>
      </g>
     </g>
     <g id="text_4">
      <!-- 400.0 -->
      <defs>
       <path d="M 37.796875 64.3125 
L 12.890625 25.390625 
L 37.796875 25.390625 
z
M 35.203125 72.90625 
L 47.609375 72.90625 
L 47.609375 25.390625 
L 58.015625 25.390625 
L 58.015625 17.1875 
L 47.609375 17.1875 
L 47.609375 0 
L 37.796875 0 
L 37.796875 17.1875 
L 4.890625 17.1875 
L 4.890625 26.703125 
z
" id="DejaVuSans-52"/>
      </defs>
      <g transform="translate(626.745042 655.398438)scale(0.1 -0.1)">
       <use xlink:href="#DejaVuSans-52"/>
       <use x="63.623047" xlink:href="#DejaVuSans-48"/>
       <use x="127.246094" xlink:href="#DejaVuSans-48"/>
       <use x="190.869141" xlink:href="#DejaVuSans-46"/>
       <use x="222.65625" xlink:href="#DejaVuSans-48"/>
      </g>
     </g>
    </g>
    <g id="xtick_5">
     <g id="line2d_5">
      <g>
       <use style="stroke:#000000;stroke-width:0.8;" x="743.642063" xlink:href="#m6840895ad1" y="640.8"/>
      </g>
     </g>
     <g id="text_5">
      <!-- 500.0 -->
      <defs>
       <path d="M 10.796875 72.90625 
L 49.515625 72.90625 
L 49.515625 64.59375 
L 19.828125 64.59375 
L 19.828125 46.734375 
Q 21.96875 47.46875 24.109375 47.828125 
Q 26.265625 48.1875 28.421875 48.1875 
Q 40.625 48.1875 47.75 41.5 
Q 54.890625 34.8125 54.890625 23.390625 
Q 54.890625 11.625 47.5625 5.09375 
Q 40.234375 -1.421875 26.90625 -1.421875 
Q 22.3125 -1.421875 17.546875 -0.640625 
Q 12.796875 0.140625 7.71875 1.703125 
L 7.71875 11.625 
Q 12.109375 9.234375 16.796875 8.0625 
Q 21.484375 6.890625 26.703125 6.890625 
Q 35.15625 6.890625 40.078125 11.328125 
Q 45.015625 15.765625 45.015625 23.390625 
Q 45.015625 31 40.078125 35.4375 
Q 35.15625 39.890625 26.703125 39.890625 
Q 22.75 39.890625 18.8125 39.015625 
Q 14.890625 38.140625 10.796875 36.28125 
z
" id="DejaVuSans-53"/>
      </defs>
      <g transform="translate(729.328 655.398438)scale(0.1 -0.1)">
       <use xlink:href="#DejaVuSans-53"/>
       <use x="63.623047" xlink:href="#DejaVuSans-48"/>
       <use x="127.246094" xlink:href="#DejaVuSans-48"/>
       <use x="190.869141" xlink:href="#DejaVuSans-46"/>
       <use x="222.65625" xlink:href="#DejaVuSans-48"/>
      </g>
     </g>
    </g>
    <g id="xtick_6">
     <g id="line2d_6">
      <g>
       <use style="stroke:#000000;stroke-width:0.8;" x="846.225021" xlink:href="#m6840895ad1" y="640.8"/>
      </g>
     </g>
     <g id="text_6">
      <!-- 600.0 -->
      <defs>
       <path d="M 33.015625 40.375 
Q 26.375 40.375 22.484375 35.828125 
Q 18.609375 31.296875 18.609375 23.390625 
Q 18.609375 15.53125 22.484375 10.953125 
Q 26.375 6.390625 33.015625 6.390625 
Q 39.65625 6.390625 43.53125 10.953125 
Q 47.40625 15.53125 47.40625 23.390625 
Q 47.40625 31.296875 43.53125 35.828125 
Q 39.65625 40.375 33.015625 40.375 
z
M 52.59375 71.296875 
L 52.59375 62.3125 
Q 48.875 64.0625 45.09375 64.984375 
Q 41.3125 65.921875 37.59375 65.921875 
Q 27.828125 65.921875 22.671875 59.328125 
Q 17.53125 52.734375 16.796875 39.40625 
Q 19.671875 43.65625 24.015625 45.921875 
Q 28.375 48.1875 33.59375 48.1875 
Q 44.578125 48.1875 50.953125 41.515625 
Q 57.328125 34.859375 57.328125 23.390625 
Q 57.328125 12.15625 50.6875 5.359375 
Q 44.046875 -1.421875 33.015625 -1.421875 
Q 20.359375 -1.421875 13.671875 8.265625 
Q 6.984375 17.96875 6.984375 36.375 
Q 6.984375 53.65625 15.1875 63.9375 
Q 23.390625 74.21875 37.203125 74.21875 
Q 40.921875 74.21875 44.703125 73.484375 
Q 48.484375 72.75 52.59375 71.296875 
z
" id="DejaVuSans-54"/>
      </defs>
      <g transform="translate(831.910958 655.398438)scale(0.1 -0.1)">
       <use xlink:href="#DejaVuSans-54"/>
       <use x="63.623047" xlink:href="#DejaVuSans-48"/>
       <use x="127.246094" xlink:href="#DejaVuSans-48"/>
       <use x="190.869141" xlink:href="#DejaVuSans-46"/>
       <use x="222.65625" xlink:href="#DejaVuSans-48"/>
      </g>
     </g>
    </g>
    <g id="xtick_7">
     <g id="line2d_7">
      <g>
       <use style="stroke:#000000;stroke-width:0.8;" x="948.807979" xlink:href="#m6840895ad1" y="640.8"/>
      </g>
     </g>
     <g id="text_7">
      <!-- 700.0 -->
      <defs>
       <path d="M 8.203125 72.90625 
L 55.078125 72.90625 
L 55.078125 68.703125 
L 28.609375 0 
L 18.3125 0 
L 43.21875 64.59375 
L 8.203125 64.59375 
z
" id="DejaVuSans-55"/>
      </defs>
      <g transform="translate(934.493916 655.398438)scale(0.1 -0.1)">
       <use xlink:href="#DejaVuSans-55"/>
       <use x="63.623047" xlink:href="#DejaVuSans-48"/>
       <use x="127.246094" xlink:href="#DejaVuSans-48"/>
       <use x="190.869141" xlink:href="#DejaVuSans-46"/>
       <use x="222.65625" xlink:href="#DejaVuSans-48"/>
      </g>
     </g>
    </g>
    <g id="xtick_8">
     <g id="line2d_8">
      <g>
       <use style="stroke:#000000;stroke-width:0.8;" x="1051.390937" xlink:href="#m6840895ad1" y="640.8"/>
      </g>
     </g>
     <g id="text_8">
      <!-- 800.0 -->
      <defs>
       <path d="M 31.78125 34.625 
Q 24.75 34.625 20.71875 30.859375 
Q 16.703125 27.09375 16.703125 20.515625 
Q 16.703125 13.921875 20.71875 10.15625 
Q 24.75 6.390625 31.78125 6.390625 
Q 38.8125 6.390625 42.859375 10.171875 
Q 46.921875 13.96875 46.921875 20.515625 
Q 46.921875 27.09375 42.890625 30.859375 
Q 38.875 34.625 31.78125 34.625 
z
M 21.921875 38.8125 
Q 15.578125 40.375 12.03125 44.71875 
Q 8.5 49.078125 8.5 55.328125 
Q 8.5 64.0625 14.71875 69.140625 
Q 20.953125 74.21875 31.78125 74.21875 
Q 42.671875 74.21875 48.875 69.140625 
Q 55.078125 64.0625 55.078125 55.328125 
Q 55.078125 49.078125 51.53125 44.71875 
Q 48 40.375 41.703125 38.8125 
Q 48.828125 37.15625 52.796875 32.3125 
Q 56.78125 27.484375 56.78125 20.515625 
Q 56.78125 9.90625 50.3125 4.234375 
Q 43.84375 -1.421875 31.78125 -1.421875 
Q 19.734375 -1.421875 13.25 4.234375 
Q 6.78125 9.90625 6.78125 20.515625 
Q 6.78125 27.484375 10.78125 32.3125 
Q 14.796875 37.15625 21.921875 38.8125 
z
M 18.3125 54.390625 
Q 18.3125 48.734375 21.84375 45.5625 
Q 25.390625 42.390625 31.78125 42.390625 
Q 38.140625 42.390625 41.71875 45.5625 
Q 45.3125 48.734375 45.3125 54.390625 
Q 45.3125 60.0625 41.71875 63.234375 
Q 38.140625 66.40625 31.78125 66.40625 
Q 25.390625 66.40625 21.84375 63.234375 
Q 18.3125 60.0625 18.3125 54.390625 
z
" id="DejaVuSans-56"/>
      </defs>
      <g transform="translate(1037.076874 655.398438)scale(0.1 -0.1)">
       <use xlink:href="#DejaVuSans-56"/>
       <use x="63.623047" xlink:href="#DejaVuSans-48"/>
       <use x="127.246094" xlink:href="#DejaVuSans-48"/>
       <use x="190.869141" xlink:href="#DejaVuSans-46"/>
       <use x="222.65625" xlink:href="#DejaVuSans-48"/>
      </g>
     </g>
    </g>
    <g id="xtick_9">
     <g id="line2d_9">
      <g>
       <use style="stroke:#000000;stroke-width:0.8;" x="1153.973895" xlink:href="#m6840895ad1" y="640.8"/>
      </g>
     </g>
     <g id="text_9">
      <!-- 900.0 -->
      <defs>
       <path d="M 10.984375 1.515625 
L 10.984375 10.5 
Q 14.703125 8.734375 18.5 7.8125 
Q 22.3125 6.890625 25.984375 6.890625 
Q 35.75 6.890625 40.890625 13.453125 
Q 46.046875 20.015625 46.78125 33.40625 
Q 43.953125 29.203125 39.59375 26.953125 
Q 35.25 24.703125 29.984375 24.703125 
Q 19.046875 24.703125 12.671875 31.3125 
Q 6.296875 37.9375 6.296875 49.421875 
Q 6.296875 60.640625 12.9375 67.421875 
Q 19.578125 74.21875 30.609375 74.21875 
Q 43.265625 74.21875 49.921875 64.515625 
Q 56.59375 54.828125 56.59375 36.375 
Q 56.59375 19.140625 48.40625 8.859375 
Q 40.234375 -1.421875 26.421875 -1.421875 
Q 22.703125 -1.421875 18.890625 -0.6875 
Q 15.09375 0.046875 10.984375 1.515625 
z
M 30.609375 32.421875 
Q 37.25 32.421875 41.125 36.953125 
Q 45.015625 41.5 45.015625 49.421875 
Q 45.015625 57.28125 41.125 61.84375 
Q 37.25 66.40625 30.609375 66.40625 
Q 23.96875 66.40625 20.09375 61.84375 
Q 16.21875 57.28125 16.21875 49.421875 
Q 16.21875 41.5 20.09375 36.953125 
Q 23.96875 32.421875 30.609375 32.421875 
z
" id="DejaVuSans-57"/>
      </defs>
      <g transform="translate(1139.659832 655.398438)scale(0.1 -0.1)">
       <use xlink:href="#DejaVuSans-57"/>
       <use x="63.623047" xlink:href="#DejaVuSans-48"/>
       <use x="127.246094" xlink:href="#DejaVuSans-48"/>
       <use x="190.869141" xlink:href="#DejaVuSans-46"/>
       <use x="222.65625" xlink:href="#DejaVuSans-48"/>
      </g>
     </g>
    </g>
    <g id="xtick_10">
     <g id="line2d_10">
      <g>
       <use style="stroke:#000000;stroke-width:0.8;" x="1256.556853" xlink:href="#m6840895ad1" y="640.8"/>
      </g>
     </g>
     <g id="text_10">
      <!-- 1000.0 -->
      <g transform="translate(1239.06154 655.398438)scale(0.1 -0.1)">
       <use xlink:href="#DejaVuSans-49"/>
       <use x="63.623047" xlink:href="#DejaVuSans-48"/>
       <use x="127.246094" xlink:href="#DejaVuSans-48"/>
       <use x="190.869141" xlink:href="#DejaVuSans-48"/>
       <use x="254.492188" xlink:href="#DejaVuSans-46"/>
       <use x="286.279297" xlink:href="#DejaVuSans-48"/>
      </g>
     </g>
    </g>
    <g id="text_11">
     <!-- n -->
     <defs>
      <path d="M 54.890625 33.015625 
L 54.890625 0 
L 45.90625 0 
L 45.90625 32.71875 
Q 45.90625 40.484375 42.875 44.328125 
Q 39.84375 48.1875 33.796875 48.1875 
Q 26.515625 48.1875 22.3125 43.546875 
Q 18.109375 38.921875 18.109375 30.90625 
L 18.109375 0 
L 9.078125 0 
L 9.078125 54.6875 
L 18.109375 54.6875 
L 18.109375 46.1875 
Q 21.34375 51.125 25.703125 53.5625 
Q 30.078125 56 35.796875 56 
Q 45.21875 56 50.046875 50.171875 
Q 54.890625 44.34375 54.890625 33.015625 
z
" id="DejaVuSans-110"/>
     </defs>
     <g transform="translate(734.83125 669.076563)scale(0.1 -0.1)">
      <use xlink:href="#DejaVuSans-110"/>
     </g>
    </g>
   </g>
   <g id="matplotlib.axis_2">
    <g id="ytick_1">
     <g id="line2d_11">
      <defs>
       <path d="M 0 0 
L -3.5 0 
" id="m62433888e7" style="stroke:#000000;stroke-width:0.8;"/>
      </defs>
      <g>
       <use style="stroke:#000000;stroke-width:0.8;" x="180" xlink:href="#m62433888e7" y="554.946162"/>
      </g>
     </g>
     <g id="text_12">
      <!-- 50 -->
      <g transform="translate(160.275 558.745381)scale(0.1 -0.1)">
       <use xlink:href="#DejaVuSans-53"/>
       <use x="63.623047" xlink:href="#DejaVuSans-48"/>
      </g>
     </g>
    </g>
    <g id="ytick_2">
     <g id="line2d_12">
      <g>
       <use style="stroke:#000000;stroke-width:0.8;" x="180" xlink:href="#m62433888e7" y="463.715859"/>
      </g>
     </g>
     <g id="text_13">
      <!-- 100 -->
      <g transform="translate(153.9125 467.515078)scale(0.1 -0.1)">
       <use xlink:href="#DejaVuSans-49"/>
       <use x="63.623047" xlink:href="#DejaVuSans-48"/>
       <use x="127.246094" xlink:href="#DejaVuSans-48"/>
      </g>
     </g>
    </g>
    <g id="ytick_3">
     <g id="line2d_13">
      <g>
       <use style="stroke:#000000;stroke-width:0.8;" x="180" xlink:href="#m62433888e7" y="372.485555"/>
      </g>
     </g>
     <g id="text_14">
      <!-- 150 -->
      <g transform="translate(153.9125 376.284774)scale(0.1 -0.1)">
       <use xlink:href="#DejaVuSans-49"/>
       <use x="63.623047" xlink:href="#DejaVuSans-53"/>
       <use x="127.246094" xlink:href="#DejaVuSans-48"/>
      </g>
     </g>
    </g>
    <g id="ytick_4">
     <g id="line2d_14">
      <g>
       <use style="stroke:#000000;stroke-width:0.8;" x="180" xlink:href="#m62433888e7" y="281.255251"/>
      </g>
     </g>
     <g id="text_15">
      <!-- 200 -->
      <g transform="translate(153.9125 285.05447)scale(0.1 -0.1)">
       <use xlink:href="#DejaVuSans-50"/>
       <use x="63.623047" xlink:href="#DejaVuSans-48"/>
       <use x="127.246094" xlink:href="#DejaVuSans-48"/>
      </g>
     </g>
    </g>
    <g id="ytick_5">
     <g id="line2d_15">
      <g>
       <use style="stroke:#000000;stroke-width:0.8;" x="180" xlink:href="#m62433888e7" y="190.024948"/>
      </g>
     </g>
     <g id="text_16">
      <!-- 250 -->
      <g transform="translate(153.9125 193.824166)scale(0.1 -0.1)">
       <use xlink:href="#DejaVuSans-50"/>
       <use x="63.623047" xlink:href="#DejaVuSans-53"/>
       <use x="127.246094" xlink:href="#DejaVuSans-48"/>
      </g>
     </g>
    </g>
    <g id="ytick_6">
     <g id="line2d_16">
      <g>
       <use style="stroke:#000000;stroke-width:0.8;" x="180" xlink:href="#m62433888e7" y="98.794644"/>
      </g>
     </g>
     <g id="text_17">
      <!-- 300 -->
      <g transform="translate(153.9125 102.593863)scale(0.1 -0.1)">
       <use xlink:href="#DejaVuSans-51"/>
       <use x="63.623047" xlink:href="#DejaVuSans-48"/>
       <use x="127.246094" xlink:href="#DejaVuSans-48"/>
      </g>
     </g>
    </g>
    <g id="text_18">
     <!-- speedup -->
     <defs>
      <path d="M 44.28125 53.078125 
L 44.28125 44.578125 
Q 40.484375 46.53125 36.375 47.5 
Q 32.28125 48.484375 27.875 48.484375 
Q 21.1875 48.484375 17.84375 46.4375 
Q 14.5 44.390625 14.5 40.28125 
Q 14.5 37.15625 16.890625 35.375 
Q 19.28125 33.59375 26.515625 31.984375 
L 29.59375 31.296875 
Q 39.15625 29.25 43.1875 25.515625 
Q 47.21875 21.78125 47.21875 15.09375 
Q 47.21875 7.46875 41.1875 3.015625 
Q 35.15625 -1.421875 24.609375 -1.421875 
Q 20.21875 -1.421875 15.453125 -0.5625 
Q 10.6875 0.296875 5.421875 2 
L 5.421875 11.28125 
Q 10.40625 8.6875 15.234375 7.390625 
Q 20.0625 6.109375 24.8125 6.109375 
Q 31.15625 6.109375 34.5625 8.28125 
Q 37.984375 10.453125 37.984375 14.40625 
Q 37.984375 18.0625 35.515625 20.015625 
Q 33.0625 21.96875 24.703125 23.78125 
L 21.578125 24.515625 
Q 13.234375 26.265625 9.515625 29.90625 
Q 5.8125 33.546875 5.8125 39.890625 
Q 5.8125 47.609375 11.28125 51.796875 
Q 16.75 56 26.8125 56 
Q 31.78125 56 36.171875 55.265625 
Q 40.578125 54.546875 44.28125 53.078125 
z
" id="DejaVuSans-115"/>
      <path d="M 18.109375 8.203125 
L 18.109375 -20.796875 
L 9.078125 -20.796875 
L 9.078125 54.6875 
L 18.109375 54.6875 
L 18.109375 46.390625 
Q 20.953125 51.265625 25.265625 53.625 
Q 29.59375 56 35.59375 56 
Q 45.5625 56 51.78125 48.09375 
Q 58.015625 40.1875 58.015625 27.296875 
Q 58.015625 14.40625 51.78125 6.484375 
Q 45.5625 -1.421875 35.59375 -1.421875 
Q 29.59375 -1.421875 25.265625 0.953125 
Q 20.953125 3.328125 18.109375 8.203125 
z
M 48.6875 27.296875 
Q 48.6875 37.203125 44.609375 42.84375 
Q 40.53125 48.484375 33.40625 48.484375 
Q 26.265625 48.484375 22.1875 42.84375 
Q 18.109375 37.203125 18.109375 27.296875 
Q 18.109375 17.390625 22.1875 11.75 
Q 26.265625 6.109375 33.40625 6.109375 
Q 40.53125 6.109375 44.609375 11.75 
Q 48.6875 17.390625 48.6875 27.296875 
z
" id="DejaVuSans-112"/>
      <path d="M 56.203125 29.59375 
L 56.203125 25.203125 
L 14.890625 25.203125 
Q 15.484375 15.921875 20.484375 11.0625 
Q 25.484375 6.203125 34.421875 6.203125 
Q 39.59375 6.203125 44.453125 7.46875 
Q 49.3125 8.734375 54.109375 11.28125 
L 54.109375 2.78125 
Q 49.265625 0.734375 44.1875 -0.34375 
Q 39.109375 -1.421875 33.890625 -1.421875 
Q 20.796875 -1.421875 13.15625 6.1875 
Q 5.515625 13.8125 5.515625 26.8125 
Q 5.515625 40.234375 12.765625 48.109375 
Q 20.015625 56 32.328125 56 
Q 43.359375 56 49.78125 48.890625 
Q 56.203125 41.796875 56.203125 29.59375 
z
M 47.21875 32.234375 
Q 47.125 39.59375 43.09375 43.984375 
Q 39.0625 48.390625 32.421875 48.390625 
Q 24.90625 48.390625 20.390625 44.140625 
Q 15.875 39.890625 15.1875 32.171875 
z
" id="DejaVuSans-101"/>
      <path d="M 45.40625 46.390625 
L 45.40625 75.984375 
L 54.390625 75.984375 
L 54.390625 0 
L 45.40625 0 
L 45.40625 8.203125 
Q 42.578125 3.328125 38.25 0.953125 
Q 33.9375 -1.421875 27.875 -1.421875 
Q 17.96875 -1.421875 11.734375 6.484375 
Q 5.515625 14.40625 5.515625 27.296875 
Q 5.515625 40.1875 11.734375 48.09375 
Q 17.96875 56 27.875 56 
Q 33.9375 56 38.25 53.625 
Q 42.578125 51.265625 45.40625 46.390625 
z
M 14.796875 27.296875 
Q 14.796875 17.390625 18.875 11.75 
Q 22.953125 6.109375 30.078125 6.109375 
Q 37.203125 6.109375 41.296875 11.75 
Q 45.40625 17.390625 45.40625 27.296875 
Q 45.40625 37.203125 41.296875 42.84375 
Q 37.203125 48.484375 30.078125 48.484375 
Q 22.953125 48.484375 18.875 42.84375 
Q 14.796875 37.203125 14.796875 27.296875 
z
" id="DejaVuSans-100"/>
      <path d="M 8.5 21.578125 
L 8.5 54.6875 
L 17.484375 54.6875 
L 17.484375 21.921875 
Q 17.484375 14.15625 20.5 10.265625 
Q 23.53125 6.390625 29.59375 6.390625 
Q 36.859375 6.390625 41.078125 11.03125 
Q 45.3125 15.671875 45.3125 23.6875 
L 45.3125 54.6875 
L 54.296875 54.6875 
L 54.296875 0 
L 45.3125 0 
L 45.3125 8.40625 
Q 42.046875 3.421875 37.71875 1 
Q 33.40625 -1.421875 27.6875 -1.421875 
Q 18.265625 -1.421875 13.375 4.4375 
Q 8.5 10.296875 8.5 21.578125 
z
M 31.109375 56 
z
" id="DejaVuSans-117"/>
     </defs>
     <g transform="translate(147.832812 385.049219)rotate(-90)scale(0.1 -0.1)">
      <use xlink:href="#DejaVuSans-115"/>
      <use x="52.099609" xlink:href="#DejaVuSans-112"/>
      <use x="115.576172" xlink:href="#DejaVuSans-101"/>
      <use x="177.099609" xlink:href="#DejaVuSans-101"/>
      <use x="238.623047" xlink:href="#DejaVuSans-100"/>
      <use x="302.099609" xlink:href="#DejaVuSans-117"/>
      <use x="365.478516" xlink:href="#DejaVuSans-112"/>
     </g>
    </g>
   </g>
   <g id="line2d_17">
    <path clip-path="url(#peda409c5fc)" d="M 230.727273 111.6 
L 232.778932 153.764483 
L 233.804761 112.794603 
L 234.830591 150.167685 
L 235.856421 168.59611 
L 236.88225 161.3691 
L 237.90808 176.501639 
L 238.933909 186.68352 
L 239.959739 185.644344 
L 240.985569 218.326388 
L 242.011398 226.630791 
L 243.037228 221.325853 
L 244.063057 233.369312 
L 245.088887 254.643546 
L 246.114716 214.7375 
L 247.140546 220.944621 
L 249.192205 253.794965 
L 250.218035 243.516618 
L 251.243864 265.513802 
L 252.269694 261.191815 
L 253.295523 266.928504 
L 254.321353 284.416589 
L 255.347183 276.4415 
L 256.373012 274.695119 
L 257.398842 286.857278 
L 258.424671 279.702776 
L 259.450501 284.283757 
L 260.476331 307.907999 
L 261.50216 286.69491 
L 262.52799 297.359686 
L 263.553819 279.206242 
L 264.579649 301.485813 
L 265.605478 309.622611 
L 266.631308 315.773302 
L 267.657138 309.948053 
L 268.682967 324.400166 
L 269.708797 332.673878 
L 270.734626 327.331671 
L 271.760456 335.461155 
L 272.786286 332.486798 
L 273.812115 357.827701 
L 274.837945 335.731945 
L 275.863774 338.923466 
L 276.889604 348.085497 
L 277.915433 342.211935 
L 278.941263 341.184536 
L 279.967093 341.899558 
L 280.992922 347.040006 
L 282.018752 351.336826 
L 283.044581 357.021462 
L 284.070411 357.200159 
L 285.09624 367.284822 
L 286.12207 371.572162 
L 287.1479 367.125281 
L 288.173729 375.436198 
L 289.199559 365.966807 
L 290.225388 373.113901 
L 291.251218 377.394423 
L 292.277048 375.549962 
L 293.302877 380.833991 
L 294.328707 387.717144 
L 295.354536 398.627994 
L 296.380366 389.43202 
L 297.406195 389.127033 
L 298.432025 501.630549 
L 299.457855 380.465226 
L 300.483684 381.945123 
L 301.509514 349.403115 
L 302.535343 397.221683 
L 303.561173 386.874564 
L 304.587002 401.490515 
L 305.612832 408.841929 
L 306.638662 408.971091 
L 307.664491 406.512186 
L 308.690321 405.094428 
L 309.71615 416.527336 
L 310.74198 418.427469 
L 312.793639 406.376392 
L 313.819469 419.452959 
L 314.845298 418.987905 
L 315.871128 418.76935 
L 316.896957 422.819639 
L 317.922787 404.376604 
L 318.948617 426.576807 
L 319.974446 427.782388 
L 321.000276 435.379957 
L 322.026105 430.021881 
L 323.051935 428.507797 
L 324.077765 430.313952 
L 325.103594 433.57709 
L 326.129424 448.030346 
L 327.155253 441.708194 
L 328.181083 430.181731 
L 329.206912 436.453364 
L 330.232742 438.865011 
L 331.258572 446.841392 
L 332.284401 442.48386 
L 333.310231 441.790568 
L 334.33606 443.580262 
L 335.36189 447.166502 
L 336.387719 448.398254 
L 337.413549 450.021565 
L 338.439379 447.825352 
L 339.465208 451.242835 
L 340.491038 447.194892 
L 341.516867 452.682839 
L 342.542697 454.360303 
L 343.568527 453.651309 
L 344.594356 453.642635 
L 345.620186 454.376129 
L 346.646015 461.057257 
L 347.671845 459.207325 
L 348.697674 462.967132 
L 349.723504 458.751962 
L 350.749334 465.292431 
L 351.775163 464.491996 
L 352.800993 464.661057 
L 353.826822 461.48581 
L 354.852652 465.742607 
L 355.878481 478.667369 
L 356.904311 467.528105 
L 357.930141 470.318996 
L 359.9818 469.321341 
L 361.007629 473.374015 
L 362.033459 471.321818 
L 363.059289 471.168234 
L 364.085118 474.775074 
L 365.110948 469.481115 
L 366.136777 476.771498 
L 367.162607 475.386672 
L 368.188436 482.331659 
L 369.214266 479.269797 
L 370.240096 478.267872 
L 371.265925 482.120323 
L 372.291755 479.748141 
L 373.317584 481.876107 
L 374.343414 490.787861 
L 375.369243 483.356352 
L 376.395073 523.079493 
L 377.420903 482.776059 
L 378.446732 487.353158 
L 379.472562 484.436959 
L 380.498391 489.062466 
L 381.524221 486.180163 
L 382.550051 487.136523 
L 383.57588 489.947686 
L 384.60171 488.921748 
L 385.627539 490.483981 
L 386.653369 488.865122 
L 387.679198 492.668832 
L 388.705028 492.967841 
L 389.730858 492.033361 
L 390.756687 494.723978 
L 391.782517 493.143086 
L 393.834176 498.856642 
L 394.860006 493.721193 
L 395.885835 495.467655 
L 396.911665 497.770496 
L 397.937494 490.802557 
L 398.963324 497.583334 
L 399.989153 496.031341 
L 401.014983 498.721205 
L 402.040813 499.554055 
L 403.066642 502.576371 
L 404.092472 503.207827 
L 405.118301 498.485064 
L 406.144131 501.363662 
L 407.16996 499.220096 
L 408.19579 500.64262 
L 409.22162 502.3274 
L 410.247449 503.546101 
L 412.299108 504.446934 
L 413.324938 502.754252 
L 414.350768 508.172024 
L 415.376597 505.794893 
L 416.402427 505.01595 
L 417.428256 505.770298 
L 418.454086 507.056779 
L 419.479915 509.58753 
L 420.505745 507.969843 
L 421.531575 508.696963 
L 422.557404 508.653322 
L 423.583234 508.838628 
L 425.634893 513.773696 
L 426.660722 511.994413 
L 427.686552 511.45529 
L 429.738211 514.53795 
L 430.764041 522.001608 
L 431.78987 521.743048 
L 432.8157 515.29162 
L 433.84153 510.645453 
L 434.867359 516.206072 
L 435.893189 516.771527 
L 436.919018 516.934274 
L 437.944848 515.592143 
L 439.996507 517.820658 
L 441.022337 518.410264 
L 442.048166 518.425291 
L 443.073996 522.252652 
L 444.099825 519.786516 
L 445.125655 527.288513 
L 446.151485 521.440678 
L 447.177314 519.199639 
L 448.203144 520.183583 
L 449.228973 522.403342 
L 450.254803 518.026599 
L 451.280632 520.240995 
L 452.306462 521.790829 
L 453.332292 522.776632 
L 454.358121 524.338 
L 455.383951 522.911429 
L 456.40978 525.703461 
L 457.43561 522.978729 
L 458.461439 526.125571 
L 459.487269 524.628929 
L 460.513099 526.245939 
L 461.538928 525.293882 
L 462.564758 528.887062 
L 463.590587 527.484623 
L 464.616417 527.496413 
L 465.642247 526.645966 
L 466.668076 531.160701 
L 467.693906 528.93997 
L 468.719735 528.64236 
L 469.745565 529.175128 
L 470.771394 530.423275 
L 471.797224 531.351607 
L 472.823054 527.481703 
L 473.848883 530.882772 
L 474.874713 528.617727 
L 475.900542 529.614572 
L 477.952201 532.844985 
L 478.978031 531.669107 
L 480.003861 533.503231 
L 481.02969 531.682719 
L 482.05552 533.417551 
L 483.081349 532.19097 
L 484.107179 534.434 
L 485.133009 531.194441 
L 486.158838 534.663904 
L 487.184668 535.047002 
L 488.210497 536.419632 
L 490.262156 535.388065 
L 491.287986 535.876866 
L 492.313816 535.090264 
L 493.339645 536.652617 
L 494.365475 537.081058 
L 495.391304 538.11759 
L 496.417134 535.288993 
L 497.442964 537.741743 
L 498.468793 539.449166 
L 499.494623 538.796489 
L 500.520452 539.09509 
L 501.546282 538.175415 
L 502.572111 537.825246 
L 503.597941 539.303941 
L 504.623771 540.312655 
L 505.6496 540.262984 
L 506.67543 541.628115 
L 507.701259 539.960504 
L 508.727089 540.472055 
L 509.752918 541.323746 
L 510.778748 543.132306 
L 512.830407 542.45191 
L 513.856237 542.697702 
L 514.882066 543.760323 
L 515.907896 543.509638 
L 516.933726 544.09066 
L 517.959555 543.9935 
L 518.985385 541.548693 
L 520.011214 541.860327 
L 521.037044 544.554058 
L 522.062873 544.570089 
L 524.114533 545.755629 
L 525.140362 545.410234 
L 526.166192 547.004222 
L 527.192021 546.668966 
L 528.217851 546.743234 
L 529.24368 547.316795 
L 530.26951 548.024435 
L 531.29534 546.516641 
L 532.321169 548.555103 
L 533.346999 546.719646 
L 534.372828 547.14092 
L 535.398658 545.713253 
L 536.424488 555.783959 
L 537.450317 552.323474 
L 539.501976 547.487662 
L 540.527806 550.17271 
L 541.553635 549.032713 
L 542.579465 551.2782 
L 543.605295 548.990874 
L 544.631124 549.412748 
L 545.656954 548.277481 
L 546.682783 549.554598 
L 547.708613 553.255421 
L 548.734443 551.922534 
L 550.786102 551.819173 
L 551.811931 553.54463 
L 552.837761 550.398689 
L 553.86359 553.35385 
L 554.88942 551.61886 
L 555.91525 553.580667 
L 556.941079 553.215626 
L 557.966909 554.429736 
L 558.992738 553.210988 
L 560.018568 554.916501 
L 561.044397 553.206796 
L 562.070227 554.874718 
L 563.096057 555.483084 
L 564.121886 555.128491 
L 565.147716 556.230985 
L 566.173545 554.733169 
L 567.199375 556.09338 
L 568.225205 555.117131 
L 569.251034 556.711204 
L 570.276864 553.436542 
L 571.302693 556.286305 
L 572.328523 554.590526 
L 573.354352 557.409302 
L 574.380182 556.386736 
L 575.406012 556.739619 
L 576.431841 557.499849 
L 577.457671 556.266796 
L 578.4835 557.04514 
L 579.50933 557.602352 
L 580.535159 558.646336 
L 581.560989 557.771539 
L 582.586819 559.55873 
L 583.612648 556.652884 
L 584.638478 559.664143 
L 585.664307 559.02689 
L 586.690137 558.702578 
L 587.715967 558.564582 
L 588.741796 559.756622 
L 589.767626 559.841335 
L 590.793455 558.567017 
L 591.819285 558.431792 
L 592.845114 560.698669 
L 593.870944 560.998536 
L 594.896774 559.617256 
L 595.922603 560.40119 
L 596.948433 559.422844 
L 597.974262 559.623118 
L 599.000092 562.439507 
L 600.025922 560.880717 
L 601.051751 560.804892 
L 602.077581 561.027114 
L 603.10341 561.007159 
L 604.12924 561.107495 
L 605.155069 562.833576 
L 606.180899 561.14691 
L 608.232558 563.434754 
L 609.258388 562.374792 
L 610.284217 562.310761 
L 611.310047 562.993895 
L 612.335876 563.001861 
L 613.361706 563.584537 
L 614.387536 563.056349 
L 615.413365 562.912711 
L 616.439195 564.29461 
L 617.465024 563.808094 
L 618.490854 563.579611 
L 619.516684 563.660768 
L 620.542513 563.510381 
L 621.568343 565.797921 
L 622.594172 564.938027 
L 623.620002 563.848339 
L 624.645831 567.044866 
L 625.671661 564.372013 
L 626.697491 565.354162 
L 627.72332 564.78883 
L 628.74915 564.889905 
L 629.774979 566.273757 
L 630.800809 565.532947 
L 631.826638 567.560179 
L 632.852468 566.740839 
L 633.878298 566.418694 
L 634.904127 565.589492 
L 635.929957 567.230905 
L 636.955786 567.502707 
L 637.981616 566.343043 
L 639.007446 568.175063 
L 640.033275 567.472157 
L 641.059105 574.161398 
L 642.084934 572.724963 
L 643.110764 568.245803 
L 644.136593 567.9996 
L 645.162423 568.506713 
L 646.188253 568.564829 
L 647.214082 567.767605 
L 649.265741 568.313979 
L 650.291571 569.027295 
L 651.3174 571.225226 
L 652.34323 570.339676 
L 653.36906 570.765504 
L 654.394889 570.060713 
L 655.420719 570.113152 
L 656.446548 568.472603 
L 657.472378 570.309532 
L 658.498208 571.338672 
L 659.524037 569.344575 
L 660.549867 571.13092 
L 661.575696 570.656895 
L 662.601526 571.37942 
L 663.627355 571.837232 
L 664.653185 570.010004 
L 665.679015 571.673499 
L 666.704844 569.923462 
L 667.730674 571.180592 
L 668.756503 573.41843 
L 670.808163 570.469051 
L 671.833992 570.47708 
L 672.859822 572.522247 
L 673.885651 571.384736 
L 674.911481 571.227666 
L 675.93731 573.498735 
L 676.96314 570.995407 
L 677.98897 572.736135 
L 679.014799 572.596109 
L 680.040629 573.127169 
L 681.066458 573.952126 
L 682.092288 573.718018 
L 683.118117 573.234893 
L 684.143947 573.576904 
L 685.169777 572.808457 
L 686.195606 573.003836 
L 687.221436 572.749967 
L 688.247265 573.876516 
L 689.273095 572.475028 
L 690.298925 574.348143 
L 691.324754 573.47208 
L 693.376413 573.741544 
L 694.402243 574.812646 
L 696.453902 575.779221 
L 697.479732 574.693273 
L 698.505561 574.025897 
L 699.531391 576.371344 
L 700.55722 574.791759 
L 701.58305 574.554024 
L 702.608879 574.958942 
L 703.634709 574.935229 
L 704.660539 575.986222 
L 705.686368 571.124132 
L 706.712198 576.256746 
L 707.738027 574.337136 
L 708.763857 576.399839 
L 709.789687 577.050158 
L 710.815516 576.055093 
L 711.841346 575.723826 
L 712.867175 576.466007 
L 713.893005 576.212867 
L 714.918834 577.466005 
L 715.944664 575.842344 
L 716.970494 577.242741 
L 717.996323 577.746593 
L 719.022153 576.332805 
L 720.047982 577.483923 
L 721.073812 576.940821 
L 722.099642 577.213979 
L 723.125471 577.627446 
L 724.151301 575.640764 
L 725.17713 577.66783 
L 726.20296 578.512646 
L 728.254619 577.05296 
L 729.280449 578.119471 
L 731.332108 577.999975 
L 732.357937 578.132694 
L 733.383767 578.94381 
L 734.409596 578.906173 
L 735.435426 579.936944 
L 736.461256 579.490927 
L 737.487085 578.253406 
L 738.512915 579.216264 
L 739.538744 580.666495 
L 740.564574 577.953969 
L 741.590404 579.642626 
L 742.616233 580.52856 
L 743.642063 579.667667 
L 744.667892 580.873774 
L 745.693722 585.166713 
L 746.719551 585.967896 
L 747.745381 581.104042 
L 748.771211 580.203162 
L 749.79704 579.509191 
L 750.82287 580.853297 
L 751.848699 580.018023 
L 752.874529 580.591461 
L 753.900358 581.627131 
L 754.926188 580.132156 
L 755.952018 581.596294 
L 756.977847 580.968237 
L 758.003677 581.452233 
L 759.029506 581.546024 
L 760.055336 581.260225 
L 761.081166 581.430012 
L 763.132825 581.155662 
L 764.158654 581.876505 
L 765.184484 581.581056 
L 767.236143 581.825707 
L 768.261973 582.77839 
L 769.287802 581.300439 
L 771.339461 582.52044 
L 772.365291 582.650973 
L 773.391121 583.054958 
L 774.41695 582.788604 
L 776.468609 583.42952 
L 777.494439 582.566196 
L 778.520268 583.720871 
L 779.546098 582.908741 
L 780.571928 583.032383 
L 781.597757 583.00091 
L 782.623587 584.236834 
L 783.649416 582.997485 
L 785.701075 583.383757 
L 786.726905 584.086141 
L 787.752735 583.713746 
L 788.778564 583.509351 
L 789.804394 583.512679 
L 790.830223 582.954805 
L 791.856053 583.734581 
L 792.881883 583.856042 
L 793.907712 584.325197 
L 794.933542 584.403542 
L 795.959371 583.892232 
L 796.985201 584.777985 
L 798.01103 586.660359 
L 799.03686 585.750622 
L 800.06269 558.060147 
L 801.088519 591.14106 
L 802.114349 586.314788 
L 803.140178 585.138644 
L 804.166008 584.313185 
L 805.191837 585.094239 
L 806.217667 585.49661 
L 807.243497 583.223736 
L 808.269326 586.365937 
L 809.295156 585.997043 
L 810.320985 584.498172 
L 811.346815 585.314477 
L 812.372645 584.724812 
L 813.398474 584.887642 
L 814.424304 585.434772 
L 815.450133 585.704008 
L 817.501792 585.460099 
L 818.527622 586.374295 
L 819.553452 584.961387 
L 820.579281 586.188708 
L 821.605111 586.093843 
L 822.63094 586.456998 
L 823.65677 586.193211 
L 824.6826 586.388587 
L 825.708429 596.306184 
L 826.734259 585.576229 
L 827.760088 586.66405 
L 828.785918 586.358026 
L 829.811747 586.732568 
L 830.837577 585.80763 
L 831.863407 587.052673 
L 832.889236 586.601508 
L 835.966725 587.017259 
L 836.992554 587.780082 
L 838.018384 587.138373 
L 839.044214 587.470022 
L 840.070043 587.958695 
L 841.095873 588.121264 
L 842.121702 587.784455 
L 843.147532 588.314838 
L 844.173362 587.675516 
L 845.199191 587.34374 
L 846.225021 587.739721 
L 847.25085 587.459837 
L 848.27668 588.847196 
L 849.302509 586.957968 
L 850.328339 587.55186 
L 851.354169 594.315684 
L 852.379998 583.382067 
L 853.405828 588.817413 
L 854.431657 588.140921 
L 855.457487 588.920923 
L 856.483316 588.066725 
L 857.509146 589.137289 
L 858.534976 589.151091 
L 859.560805 588.902299 
L 860.586635 588.77028 
L 861.612464 589.227042 
L 862.638294 588.863833 
L 864.689953 589.223618 
L 865.715783 589.705766 
L 866.741612 589.286754 
L 868.793271 590.604759 
L 869.819101 588.712093 
L 870.844931 587.455431 
L 871.87076 589.476651 
L 872.89659 588.983234 
L 873.922419 588.962732 
L 874.948249 590.362294 
L 875.974078 589.635648 
L 876.999908 589.62376 
L 878.025738 590.150294 
L 879.051567 590.836552 
L 880.077397 589.39821 
L 881.103226 590.987157 
L 882.129056 590.455867 
L 883.154886 590.072298 
L 885.206545 590.653709 
L 886.232374 591.077749 
L 887.258204 590.393318 
L 889.309863 590.069131 
L 890.335693 589.829153 
L 891.361522 590.229322 
L 892.387352 590.754285 
L 893.413181 591.716789 
L 895.464841 591.297682 
L 896.49067 591.870486 
L 897.5165 590.928833 
L 898.542329 591.088612 
L 899.568159 590.736827 
L 900.593988 593.205671 
L 901.619818 590.628551 
L 902.645648 591.297071 
L 903.671477 591.71681 
L 904.697307 591.580423 
L 905.723136 590.860771 
L 906.748966 591.224322 
L 907.774795 592.796054 
L 908.800625 591.767102 
L 909.826455 592.730203 
L 911.878114 591.546967 
L 912.903943 592.139657 
L 913.929773 592.222297 
L 914.955603 593.189564 
L 915.981432 592.236667 
L 917.007262 592.396756 
L 918.033091 593.208712 
L 919.058921 593.218837 
L 920.08475 592.511868 
L 921.11058 592.773309 
L 922.13641 593.494019 
L 923.162239 592.340869 
L 924.188069 589.544805 
L 925.213898 591.905862 
L 926.239728 593.444198 
L 927.265557 592.979751 
L 928.291387 593.143914 
L 929.317217 593.447334 
L 930.343046 593.406203 
L 931.368876 592.553081 
L 932.394705 593.256636 
L 933.420535 593.551218 
L 934.446365 592.721873 
L 935.472194 589.545255 
L 936.498024 593.538591 
L 937.523853 591.473391 
L 938.549683 593.443025 
L 939.575512 592.818277 
L 940.601342 594.041416 
L 941.627172 594.189356 
L 942.653001 592.536589 
L 943.678831 593.201592 
L 944.70466 593.633532 
L 945.73049 594.631211 
L 946.75632 593.4105 
L 947.782149 594.289725 
L 948.807979 594.095148 
L 949.833808 594.849136 
L 950.859638 593.948313 
L 951.885467 594.05468 
L 952.911297 594.534259 
L 953.937127 595.262714 
L 954.962956 593.561705 
L 955.988786 599.787443 
L 957.014615 598.838064 
L 958.040445 602.098677 
L 959.066274 595.06966 
L 960.092104 594.975049 
L 961.117934 595.338234 
L 963.169593 594.416545 
L 964.195422 595.239321 
L 965.221252 594.842474 
L 966.247082 594.783775 
L 967.272911 595.246418 
L 968.298741 594.762726 
L 969.32457 595.18703 
L 970.3504 599.627117 
L 971.376229 595.370316 
L 972.402059 595.832823 
L 973.427889 596.071558 
L 974.453718 595.777138 
L 975.479548 594.506239 
L 976.505377 595.824455 
L 977.531207 596.113876 
L 978.557036 602.784202 
L 979.582866 595.248848 
L 980.608696 596.115704 
L 981.634525 596.371525 
L 982.660355 595.572759 
L 983.686184 596.062018 
L 984.712014 596.355812 
L 985.737844 595.822754 
L 986.763673 596.360437 
L 987.789503 595.773033 
L 988.815332 596.960414 
L 989.841162 595.504241 
L 990.866991 595.953347 
L 991.892821 595.531777 
L 992.918651 600.404316 
L 993.94448 596.191126 
L 994.97031 596.839469 
L 995.996139 595.824126 
L 997.021969 596.45231 
L 999.073628 596.779631 
L 1000.099458 603.228639 
L 1001.125287 596.081489 
L 1002.151117 597.366613 
L 1003.176946 597.881908 
L 1004.202776 596.915471 
L 1005.228606 596.552842 
L 1006.254435 596.386483 
L 1007.280265 597.026648 
L 1008.306094 596.608837 
L 1009.331924 597.225117 
L 1010.357753 597.270077 
L 1011.383583 597.534696 
L 1012.409413 597.103665 
L 1013.435242 597.270683 
L 1014.461072 597.317789 
L 1015.486901 597.245901 
L 1016.512731 598.678043 
L 1018.56439 597.397226 
L 1019.59022 597.631555 
L 1020.616049 598.161859 
L 1021.641879 597.103345 
L 1022.667708 597.355873 
L 1023.693538 597.223967 
L 1024.719368 598.174885 
L 1025.745197 598.295448 
L 1026.771027 598.91916 
L 1027.796856 597.949762 
L 1028.822686 597.557436 
L 1029.848515 598.172308 
L 1030.874345 597.656879 
L 1031.900175 598.676156 
L 1032.926004 597.887828 
L 1033.951834 597.689783 
L 1034.977663 598.009088 
L 1036.003493 598.842302 
L 1037.029323 597.97648 
L 1038.055152 597.563548 
L 1039.080982 598.765629 
L 1040.106811 597.984763 
L 1041.132641 598.808644 
L 1042.15847 598.515751 
L 1043.1843 597.824108 
L 1044.21013 598.909001 
L 1045.235959 599.276474 
L 1046.261789 598.597369 
L 1047.287618 598.81961 
L 1048.313448 599.714883 
L 1049.339278 599.254047 
L 1050.365107 599.007495 
L 1051.390937 598.424825 
L 1052.416766 598.926759 
L 1053.442596 600.749428 
L 1054.468425 599.337306 
L 1055.494255 600.188241 
L 1056.520085 598.973956 
L 1057.545914 599.225525 
L 1058.571744 599.133215 
L 1059.597573 599.326352 
L 1060.623403 599.754109 
L 1061.649232 604.118561 
L 1062.675062 602.900968 
L 1063.700892 599.849858 
L 1064.726721 599.920007 
L 1065.752551 599.486309 
L 1066.77838 596.511107 
L 1067.80421 599.673652 
L 1068.83004 599.290326 
L 1069.855869 600.895635 
L 1070.881699 599.731659 
L 1071.907528 600.187523 
L 1074.985017 599.90885 
L 1076.010847 600.366504 
L 1077.036676 600.396548 
L 1078.062506 599.859346 
L 1079.088335 599.458688 
L 1080.114165 600.851508 
L 1081.139994 600.447357 
L 1082.165824 600.346177 
L 1083.191654 601.001978 
L 1084.217483 599.908117 
L 1085.243313 601.604865 
L 1086.269142 600.38737 
L 1087.294972 600.57126 
L 1088.320802 600.299206 
L 1089.346631 600.313502 
L 1090.372461 600.675616 
L 1091.39829 600.455779 
L 1092.42412 600.974716 
L 1093.449949 600.104367 
L 1094.475779 600.556412 
L 1095.501609 600.51522 
L 1096.527438 600.786146 
L 1097.553268 600.584186 
L 1098.579097 600.777623 
L 1099.604927 600.746124 
L 1100.630757 599.866376 
L 1101.656586 600.526012 
L 1102.682416 601.474314 
L 1103.708245 601.372596 
L 1104.734075 601.401973 
L 1105.759904 600.929285 
L 1106.785734 600.770187 
L 1107.811564 600.89885 
L 1108.837393 602.23915 
L 1109.863223 601.301552 
L 1110.889052 601.624541 
L 1111.914882 601.527357 
L 1112.940711 600.547984 
L 1113.966541 601.488403 
L 1114.992371 601.823508 
L 1116.0182 601.090643 
L 1118.069859 601.256658 
L 1119.095689 600.909086 
L 1120.121519 601.054769 
L 1121.147348 601.061561 
L 1122.173178 601.771793 
L 1123.199007 601.400077 
L 1124.224837 601.994336 
L 1125.250666 601.317196 
L 1126.276496 601.678545 
L 1127.302326 599.356195 
L 1128.328155 602.373895 
L 1130.379814 601.000365 
L 1131.405644 602.031159 
L 1132.431473 602.421624 
L 1133.457303 601.99764 
L 1134.483133 602.685464 
L 1135.508962 602.123831 
L 1136.534792 601.782187 
L 1137.560621 601.83757 
L 1138.586451 601.203563 
L 1139.612281 595.381664 
L 1140.63811 601.781441 
L 1142.689769 602.454341 
L 1144.741428 601.630859 
L 1145.767258 602.441969 
L 1146.793088 603.102736 
L 1147.818917 603.568932 
L 1148.844747 602.879601 
L 1149.870576 602.651218 
L 1150.896406 602.23283 
L 1151.922235 603.728402 
L 1152.948065 603.006534 
L 1153.973895 602.605768 
L 1154.999724 602.656202 
L 1156.025554 602.541324 
L 1157.051383 603.406937 
L 1158.077213 602.434581 
L 1159.103043 602.254317 
L 1160.128872 602.75287 
L 1161.154702 599.692747 
L 1162.180531 603.14621 
L 1163.206361 601.561034 
L 1164.23219 603.983508 
L 1165.25802 602.22912 
L 1166.28385 607.068023 
L 1167.309679 606.278955 
L 1168.335509 603.188918 
L 1170.387168 603.473639 
L 1171.412998 601.802049 
L 1172.438827 603.290246 
L 1173.464657 603.279533 
L 1174.490486 602.870042 
L 1175.516316 602.772911 
L 1176.542145 603.014772 
L 1177.567975 603.488753 
L 1178.593805 603.465237 
L 1179.619634 603.708526 
L 1180.645464 603.3807 
L 1181.671293 602.509815 
L 1182.697123 603.364976 
L 1184.748782 603.806144 
L 1185.774612 603.301173 
L 1186.800441 603.374139 
L 1187.826271 608.154978 
L 1188.8521 603.977151 
L 1189.87793 603.240373 
L 1190.90376 603.21518 
L 1192.955419 604.04202 
L 1193.981248 603.793125 
L 1195.007078 604.376834 
L 1196.032907 603.232444 
L 1197.058737 603.039004 
L 1199.110396 603.682315 
L 1200.136226 603.431071 
L 1201.162055 604.356088 
L 1202.187885 604.145792 
L 1203.213714 604.565651 
L 1204.239544 604.098859 
L 1205.265374 604.215397 
L 1206.291203 608.455492 
L 1207.317033 603.682445 
L 1209.368692 604.399104 
L 1210.394522 604.690809 
L 1211.420351 604.328435 
L 1212.446181 604.62636 
L 1213.47201 604.482311 
L 1214.49784 603.941867 
L 1215.523669 604.674547 
L 1216.549499 604.429564 
L 1217.575329 604.038601 
L 1219.626988 604.638826 
L 1220.652817 604.885542 
L 1221.678647 609.679504 
L 1222.704477 604.182392 
L 1223.730306 604.779898 
L 1225.781965 604.757142 
L 1226.807795 604.860671 
L 1227.833624 603.821638 
L 1228.859454 604.688979 
L 1229.885284 605.199826 
L 1230.911113 609.603657 
L 1231.936943 604.792995 
L 1232.962772 604.064722 
L 1233.988602 604.611346 
L 1235.014431 605.402711 
L 1236.040261 604.846481 
L 1237.066091 604.959571 
L 1238.09192 605.395643 
L 1239.11775 605.03612 
L 1240.143579 605.35758 
L 1241.169409 605.812176 
L 1242.195239 605.469308 
L 1243.221068 604.873235 
L 1244.246898 605.300888 
L 1245.272727 605.295559 
L 1245.272727 605.295559 
" style="fill:none;stroke:#1f77b4;stroke-linecap:square;stroke-width:1.5;"/>
   </g>
   <g id="line2d_18">
    <path clip-path="url(#peda409c5fc)" d="M 230.727273 234.005828 
L 231.753102 145.914122 
L 232.778932 163.956711 
L 233.804761 184.361851 
L 234.830591 188.451934 
L 235.856421 201.044539 
L 236.88225 205.764407 
L 237.90808 198.004135 
L 238.933909 227.96428 
L 239.959739 225.277167 
L 240.985569 220.639042 
L 242.011398 239.481951 
L 243.037228 234.946425 
L 244.063057 493.843348 
L 245.088887 268.262763 
L 246.114716 237.545172 
L 247.140546 280.207258 
L 248.166376 268.824617 
L 249.192205 273.069942 
L 250.218035 273.553417 
L 251.243864 285.775437 
L 252.269694 273.235619 
L 253.295523 307.062329 
L 254.321353 284.471393 
L 255.347183 279.692073 
L 256.373012 300.497751 
L 257.398842 310.369499 
L 258.424671 303.769766 
L 259.450501 324.935908 
L 260.476331 311.946112 
L 261.50216 331.91701 
L 262.52799 327.018906 
L 263.553819 335.886696 
L 264.579649 339.066709 
L 265.605478 340.002376 
L 266.631308 344.742591 
L 267.657138 351.541601 
L 268.682967 352.152075 
L 269.708797 358.01247 
L 270.734626 353.85513 
L 271.760456 350.428854 
L 272.786286 361.080091 
L 273.812115 367.422692 
L 274.837945 367.114107 
L 275.863774 371.012432 
L 276.889604 368.273024 
L 277.915433 386.368287 
L 278.941263 377.336421 
L 279.967093 373.253917 
L 280.992922 382.951475 
L 282.018752 384.891071 
L 283.044581 388.154713 
L 284.070411 414.929032 
L 285.09624 387.376654 
L 286.12207 394.025247 
L 287.1479 394.865481 
L 288.173729 399.866103 
L 289.199559 403.059672 
L 290.225388 401.154864 
L 291.251218 402.021001 
L 292.277048 403.579809 
L 293.302877 409.005795 
L 294.328707 406.948344 
L 295.354536 412.942824 
L 296.380366 409.301535 
L 297.406195 420.375279 
L 298.432025 420.415626 
L 299.457855 426.703546 
L 300.483684 417.896716 
L 301.509514 424.178541 
L 302.535343 429.232162 
L 303.561173 424.666583 
L 304.587002 428.746448 
L 305.612832 436.150237 
L 306.638662 430.191716 
L 307.664491 436.444666 
L 308.690321 440.634288 
L 309.71615 433.376802 
L 310.74198 442.954298 
L 311.76781 437.914452 
L 312.793639 444.754976 
L 313.819469 442.221997 
L 314.845298 442.276577 
L 315.871128 444.413629 
L 316.896957 444.368349 
L 317.922787 451.135857 
L 318.948617 454.176002 
L 319.974446 450.19549 
L 321.000276 456.217309 
L 322.026105 456.799595 
L 323.051935 462.176267 
L 324.077765 458.146744 
L 325.103594 460.149628 
L 326.129424 462.407606 
L 327.155253 465.945743 
L 328.181083 465.283832 
L 329.206912 465.955043 
L 330.232742 461.117804 
L 331.258572 468.093185 
L 332.284401 468.133838 
L 333.310231 470.039674 
L 334.33606 469.702284 
L 336.387719 472.331463 
L 337.413549 472.505383 
L 338.439379 478.090172 
L 339.465208 476.980214 
L 340.491038 472.814622 
L 341.516867 479.691272 
L 342.542697 479.431924 
L 344.594356 483.547125 
L 345.620186 485.453536 
L 346.646015 484.393516 
L 347.671845 483.098822 
L 348.697674 485.894402 
L 349.723504 486.09978 
L 350.749334 484.612072 
L 351.775163 487.351131 
L 352.800993 486.999284 
L 353.826822 489.376801 
L 354.852652 475.61485 
L 355.878481 490.663299 
L 356.904311 489.912798 
L 357.930141 493.832343 
L 358.95597 494.193286 
L 359.9818 500.626117 
L 361.007629 504.998254 
L 362.033459 506.217913 
L 363.059289 509.46945 
L 364.085118 505.721616 
L 365.110948 509.837443 
L 366.136777 507.861639 
L 367.162607 510.975726 
L 368.188436 506.170456 
L 369.214266 510.358289 
L 370.240096 513.165809 
L 371.265925 508.614515 
L 372.291755 510.39985 
L 373.317584 509.621261 
L 374.343414 512.242823 
L 375.369243 512.916288 
L 376.395073 510.876564 
L 377.420903 514.595812 
L 378.446732 514.590062 
L 379.472562 517.817813 
L 380.498391 512.626034 
L 381.524221 516.692323 
L 382.550051 514.213319 
L 383.57588 513.226913 
L 384.60171 513.800022 
L 385.627539 511.345456 
L 386.653369 518.307374 
L 387.679198 516.082904 
L 388.705028 514.504032 
L 389.730858 515.867089 
L 390.756687 513.726104 
L 391.782517 518.766084 
L 392.808346 517.605887 
L 393.834176 518.802598 
L 394.860006 516.530642 
L 395.885835 521.453286 
L 396.911665 520.686365 
L 397.937494 518.895759 
L 398.963324 521.377754 
L 399.989153 516.452324 
L 401.014983 518.102277 
L 402.040813 520.023782 
L 403.066642 519.645987 
L 404.092472 532.494682 
L 405.118301 518.945241 
L 406.144131 523.834398 
L 407.16996 562.6351 
L 408.19579 524.466943 
L 409.22162 521.152257 
L 410.247449 523.619778 
L 411.273279 521.803835 
L 412.299108 526.631033 
L 413.324938 526.989347 
L 414.350768 529.188353 
L 415.376597 528.650948 
L 416.402427 531.543687 
L 417.428256 528.426487 
L 418.454086 528.600587 
L 419.479915 528.197459 
L 420.505745 528.253386 
L 421.531575 531.924686 
L 422.557404 530.557185 
L 423.583234 532.39022 
L 424.609063 529.381694 
L 425.634893 534.684744 
L 426.660722 531.348767 
L 427.686552 534.919489 
L 428.712382 531.84404 
L 429.738211 534.037016 
L 430.764041 530.247813 
L 432.8157 533.483867 
L 433.84153 532.00286 
L 434.867359 531.988852 
L 436.919018 535.113557 
L 437.944848 536.829372 
L 438.970677 534.691679 
L 439.996507 534.374358 
L 441.022337 537.423349 
L 442.048166 535.951268 
L 443.073996 535.501985 
L 444.099825 533.454928 
L 445.125655 537.257234 
L 446.151485 538.555247 
L 447.177314 538.736088 
L 448.203144 539.586005 
L 449.228973 536.446841 
L 450.254803 534.777653 
L 451.280632 538.493988 
L 453.332292 540.038703 
L 454.358121 537.667919 
L 455.383951 539.868842 
L 457.43561 539.903664 
L 458.461439 542.933933 
L 459.487269 542.183753 
L 460.513099 542.892191 
L 461.538928 541.505379 
L 462.564758 545.02387 
L 463.590587 541.082658 
L 464.616417 546.025157 
L 465.642247 544.650993 
L 466.668076 545.118615 
L 467.693906 544.23477 
L 468.719735 553.528541 
L 469.745565 543.265576 
L 470.771394 545.218211 
L 471.797224 545.2461 
L 472.823054 545.886592 
L 473.848883 544.460174 
L 475.900542 548.065931 
L 476.926372 544.993675 
L 477.952201 546.435788 
L 478.978031 545.395558 
L 480.003861 550.175981 
L 481.02969 509.60045 
L 482.05552 558.416717 
L 483.081349 547.84309 
L 484.107179 548.673406 
L 485.133009 550.804946 
L 486.158838 550.462133 
L 487.184668 551.516459 
L 488.210497 550.369362 
L 489.236327 551.652102 
L 490.262156 550.175011 
L 491.287986 550.855429 
L 492.313816 549.768988 
L 493.339645 551.914727 
L 494.365475 554.627561 
L 495.391304 554.193521 
L 496.417134 555.330656 
L 497.442964 553.691222 
L 498.468793 553.640453 
L 499.494623 555.679665 
L 501.546282 553.936595 
L 502.572111 556.12383 
L 503.597941 560.479834 
L 504.623771 561.401253 
L 505.6496 561.860383 
L 506.67543 558.925572 
L 507.701259 559.305074 
L 508.727089 562.140219 
L 509.752918 561.407051 
L 510.778748 561.509742 
L 511.804578 561.411283 
L 512.830407 563.001086 
L 513.856237 562.469537 
L 514.882066 560.561504 
L 515.907896 562.000778 
L 516.933726 561.470217 
L 517.959555 561.720308 
L 518.985385 571.555929 
L 520.011214 564.452727 
L 521.037044 559.488651 
L 522.062873 560.287313 
L 523.088703 560.334777 
L 524.114533 560.759827 
L 525.140362 560.365109 
L 526.166192 563.202422 
L 527.192021 568.34712 
L 528.217851 564.965795 
L 529.24368 560.693707 
L 530.26951 564.533447 
L 531.29534 562.245307 
L 532.321169 561.241136 
L 533.346999 561.959024 
L 534.372828 563.775738 
L 535.398658 561.535866 
L 536.424488 564.140208 
L 538.476147 561.733437 
L 539.501976 566.363573 
L 540.527806 563.635365 
L 541.553635 565.184855 
L 542.579465 561.776666 
L 543.605295 566.699968 
L 544.631124 565.574113 
L 545.656954 566.072648 
L 546.682783 564.418948 
L 547.708613 570.721733 
L 548.734443 569.828709 
L 549.760272 570.423783 
L 550.786102 569.049604 
L 551.811931 569.472076 
L 552.837761 571.425033 
L 553.86359 569.133672 
L 554.88942 568.808463 
L 555.91525 568.160814 
L 556.941079 569.666611 
L 557.966909 569.757702 
L 558.992738 571.340168 
L 560.018568 569.601443 
L 561.044397 569.699106 
L 562.070227 569.967761 
L 563.096057 571.035605 
L 564.121886 569.507569 
L 565.147716 571.189779 
L 566.173545 570.215657 
L 567.199375 570.589816 
L 568.225205 567.790181 
L 569.251034 571.826926 
L 570.276864 570.715475 
L 571.302693 572.222031 
L 572.328523 570.923542 
L 573.354352 572.246213 
L 574.380182 572.664973 
L 575.406012 572.021527 
L 576.431841 574.331295 
L 577.457671 566.828407 
L 578.4835 571.588346 
L 579.50933 571.716556 
L 580.535159 572.376858 
L 581.560989 571.176949 
L 582.586819 573.242658 
L 583.612648 571.150206 
L 584.638478 573.132921 
L 585.664307 573.289839 
L 586.690137 569.013571 
L 587.715967 583.701822 
L 588.741796 570.204422 
L 589.767626 571.678207 
L 590.793455 569.635258 
L 591.819285 572.866522 
L 592.845114 572.139496 
L 593.870944 577.446306 
L 594.896774 578.632331 
L 595.922603 576.89662 
L 596.948433 577.951051 
L 597.974262 579.760547 
L 599.000092 577.665932 
L 600.025922 578.78398 
L 601.051751 577.765685 
L 602.077581 577.944231 
L 603.10341 576.701742 
L 604.12924 577.79618 
L 605.155069 576.981048 
L 606.180899 578.825569 
L 607.206729 576.252666 
L 608.232558 578.214388 
L 609.258388 580.515267 
L 610.284217 577.100567 
L 612.335876 577.49937 
L 613.361706 578.914667 
L 614.387536 579.322553 
L 615.413365 580.335124 
L 616.439195 577.939259 
L 617.465024 579.071455 
L 618.490854 576.024918 
L 619.516684 578.849866 
L 620.542513 580.140917 
L 621.568343 577.683881 
L 622.594172 581.766396 
L 623.620002 579.114152 
L 624.645831 578.014272 
L 625.671661 577.830203 
L 626.697491 580.271395 
L 627.72332 580.46382 
L 628.74915 579.404252 
L 629.774979 579.661204 
L 630.800809 578.917763 
L 631.826638 578.343093 
L 633.878298 579.822784 
L 634.904127 579.884171 
L 635.929957 578.755973 
L 636.955786 580.899242 
L 637.981616 580.937287 
L 639.007446 581.651902 
L 640.033275 579.078631 
L 641.059105 582.396853 
L 642.084934 582.440445 
L 643.110764 583.094869 
L 644.136593 581.414847 
L 645.162423 580.521298 
L 646.188253 580.125006 
L 647.214082 582.802027 
L 648.239912 581.013071 
L 649.265741 580.709866 
L 650.291571 579.942093 
L 651.3174 581.920272 
L 652.34323 581.333271 
L 653.36906 583.356406 
L 654.394889 581.996029 
L 655.420719 581.302095 
L 657.472378 580.882439 
L 658.498208 581.692302 
L 659.524037 581.644018 
L 661.575696 581.848407 
L 663.627355 582.9247 
L 664.653185 582.020086 
L 665.679015 583.2213 
L 666.704844 591.739211 
L 667.730674 584.568944 
L 668.756503 583.236303 
L 669.782333 583.251282 
L 670.808163 582.809444 
L 671.833992 586.214751 
L 672.859822 581.685862 
L 673.885651 584.748675 
L 674.911481 582.205642 
L 675.93731 584.028249 
L 676.96314 583.423863 
L 677.98897 584.374033 
L 679.014799 581.223582 
L 680.040629 585.516548 
L 681.066458 586.493668 
L 682.092288 573.447865 
L 683.118117 583.324783 
L 684.143947 585.143801 
L 685.169777 584.040612 
L 686.195606 584.91756 
L 687.221436 585.103734 
L 688.247265 583.534571 
L 689.273095 585.907755 
L 690.298925 583.484203 
L 691.324754 585.296682 
L 692.350584 585.331934 
L 694.402243 584.616859 
L 695.428072 584.193392 
L 696.453902 584.889002 
L 697.479732 584.400549 
L 698.505561 584.749035 
L 699.531391 586.072305 
L 700.55722 585.474202 
L 701.58305 585.431061 
L 702.608879 586.017976 
L 703.634709 585.970664 
L 704.660539 584.889726 
L 705.686368 584.840665 
L 706.712198 586.844206 
L 707.738027 586.104939 
L 708.763857 585.938973 
L 709.789687 586.048705 
L 710.815516 586.635784 
L 711.841346 587.026204 
L 712.867175 587.002285 
L 713.893005 585.669584 
L 714.918834 586.594574 
L 715.944664 586.773044 
L 716.970494 588.804923 
L 717.996323 588.639828 
L 719.022153 589.007152 
L 720.047982 587.322005 
L 721.073812 588.576184 
L 722.099642 587.436582 
L 723.125471 586.848269 
L 724.151301 589.738541 
L 725.17713 590.036692 
L 726.20296 587.983596 
L 727.228789 588.029728 
L 728.254619 587.525218 
L 729.280449 588.53631 
L 730.306278 588.895478 
L 731.332108 588.701892 
L 732.357937 588.13636 
L 733.383767 586.204784 
L 734.409596 585.631282 
L 735.435426 588.217769 
L 736.461256 586.607462 
L 737.487085 587.48616 
L 738.512915 585.254142 
L 739.538744 587.472133 
L 740.564574 587.244774 
L 742.616233 587.654773 
L 743.642063 588.588068 
L 744.667892 589.195661 
L 745.693722 597.398006 
L 746.719551 587.780297 
L 747.745381 588.089642 
L 748.771211 586.88166 
L 749.79704 585.894464 
L 750.82287 587.337725 
L 751.848699 590.738304 
L 752.874529 587.293474 
L 753.900358 588.617367 
L 754.926188 587.618196 
L 755.952018 588.40674 
L 756.977847 586.839425 
L 758.003677 587.66595 
L 759.029506 586.647516 
L 760.055336 588.493347 
L 761.081166 587.668345 
L 762.106995 589.232683 
L 763.132825 589.110648 
L 764.158654 588.195846 
L 765.184484 590.050223 
L 766.210313 588.352246 
L 767.236143 588.736076 
L 768.261973 587.426384 
L 769.287802 589.910938 
L 770.313632 588.200472 
L 771.339461 588.333787 
L 772.365291 597.948326 
L 773.391121 589.663203 
L 774.41695 590.261887 
L 776.468609 589.528159 
L 777.494439 591.491512 
L 778.520268 589.693384 
L 779.546098 590.522991 
L 780.571928 590.167613 
L 781.597757 589.594593 
L 782.623587 590.207803 
L 783.649416 587.182702 
L 784.675246 589.747123 
L 785.701075 589.660165 
L 786.726905 590.673855 
L 787.752735 589.296638 
L 788.778564 589.871188 
L 789.804394 590.969429 
L 790.830223 590.586794 
L 791.856053 587.852295 
L 792.881883 593.739493 
L 793.907712 591.07832 
L 794.933542 590.27366 
L 795.959371 592.602412 
L 796.985201 589.381829 
L 799.03686 597.825182 
L 800.06269 590.292941 
L 801.088519 591.336244 
L 802.114349 591.426798 
L 803.140178 595.15588 
L 804.166008 592.583033 
L 805.191837 594.727751 
L 806.217667 591.161178 
L 807.243497 591.981462 
L 808.269326 591.048955 
L 809.295156 590.920247 
L 810.320985 592.761817 
L 811.346815 592.63462 
L 812.372645 591.868429 
L 813.398474 591.78803 
L 814.424304 593.823981 
L 815.450133 599.793591 
L 816.475963 591.965777 
L 817.501792 592.591633 
L 818.527622 589.431697 
L 819.553452 592.135805 
L 820.579281 592.968542 
L 821.605111 592.190404 
L 822.63094 593.492659 
L 823.65677 593.790991 
L 824.6826 592.877012 
L 825.708429 593.192778 
L 826.734259 592.263398 
L 827.760088 594.549444 
L 828.785918 593.717073 
L 829.811747 592.694748 
L 830.837577 592.639943 
L 831.863407 593.285619 
L 832.889236 593.303965 
L 833.915066 594.543786 
L 834.940895 594.330515 
L 835.966725 593.908336 
L 836.992554 592.746944 
L 838.018384 593.268678 
L 839.044214 594.042672 
L 840.070043 596.382974 
L 841.095873 594.17625 
L 842.121702 593.930993 
L 843.147532 593.517702 
L 844.173362 594.508395 
L 845.199191 593.693518 
L 846.225021 595.156153 
L 847.25085 593.928572 
L 848.27668 593.911964 
L 849.302509 593.375951 
L 850.328339 594.101961 
L 851.354169 602.493776 
L 852.379998 596.143356 
L 853.405828 595.099699 
L 854.431657 595.253215 
L 855.457487 594.544944 
L 856.483316 594.259614 
L 857.509146 595.804187 
L 858.534976 595.002988 
L 859.560805 597.145496 
L 861.612464 595.703199 
L 863.664124 594.609027 
L 864.689953 596.735364 
L 865.715783 594.896131 
L 866.741612 596.608784 
L 867.767442 596.35568 
L 868.793271 595.719103 
L 870.844931 597.592787 
L 871.87076 595.872252 
L 873.922419 595.80025 
L 874.948249 595.139216 
L 875.974078 595.201612 
L 876.999908 597.036256 
L 878.025738 596.334097 
L 879.051567 596.204877 
L 880.077397 595.356433 
L 881.103226 596.35281 
L 882.129056 596.324572 
L 883.154886 597.661271 
L 884.180715 596.28781 
L 885.206545 596.795778 
L 886.232374 596.211083 
L 887.258204 595.407602 
L 888.284033 596.70745 
L 889.309863 599.513573 
L 890.335693 595.434815 
L 891.361522 596.29391 
L 892.387352 596.766266 
L 893.413181 596.64332 
L 894.439011 595.900635 
L 895.464841 597.421574 
L 896.49067 597.358518 
L 897.5165 596.93761 
L 899.568159 596.981191 
L 900.593988 596.815831 
L 901.619818 597.18979 
L 902.645648 596.753146 
L 903.671477 598.821942 
L 904.697307 598.731254 
L 905.723136 596.958866 
L 906.748966 598.109987 
L 907.774795 597.971561 
L 909.826455 597.012003 
L 910.852284 598.056368 
L 911.878114 597.75418 
L 912.903943 597.953621 
L 913.929773 597.920564 
L 914.955603 597.271207 
L 915.981432 598.04425 
L 917.007262 597.110215 
L 918.033091 599.22166 
L 919.058921 598.485999 
L 920.08475 598.256999 
L 921.11058 597.795643 
L 922.13641 598.584976 
L 923.162239 598.60366 
L 924.188069 601.149796 
L 925.213898 597.937112 
L 926.239728 598.227888 
L 927.265557 598.917409 
L 928.291387 597.968353 
L 929.317217 598.049031 
L 931.368876 598.47693 
L 932.394705 598.298285 
L 933.420535 598.882444 
L 934.446365 596.83233 
L 935.472194 601.563804 
L 936.498024 598.122355 
L 937.523853 598.899035 
L 938.549683 599.523479 
L 940.601342 598.519415 
L 941.627172 598.844067 
L 942.653001 599.380232 
L 943.678831 599.688162 
L 944.70466 598.91009 
L 945.73049 599.194654 
L 946.75632 597.65042 
L 947.782149 600.138565 
L 948.807979 603.13852 
L 949.833808 599.527371 
L 950.859638 599.662186 
L 951.885467 599.240534 
L 952.911297 602.277544 
L 953.937127 599.860782 
L 954.962956 599.897983 
L 955.988786 608.304942 
L 957.014615 599.797781 
L 958.040445 599.127918 
L 959.066274 600.27049 
L 960.092104 600.523899 
L 961.117934 600.223751 
L 962.143763 600.204708 
L 964.195422 600.506038 
L 965.221252 600.275912 
L 966.247082 600.363151 
L 967.272911 600.713599 
L 968.298741 600.357158 
L 969.32457 599.308944 
L 970.3504 599.879223 
L 971.376229 600.304557 
L 972.402059 601.315619 
L 973.427889 600.234041 
L 974.453718 601.781002 
L 975.479548 600.752271 
L 976.505377 600.381718 
L 977.531207 610.410482 
L 978.557036 600.434061 
L 979.582866 600.979253 
L 980.608696 600.404584 
L 981.634525 601.336413 
L 982.660355 600.143377 
L 983.686184 601.345356 
L 984.712014 601.030903 
L 985.737844 601.307889 
L 986.763673 601.711529 
L 987.789503 600.763527 
L 989.841162 601.720059 
L 990.866991 601.009688 
L 991.892821 602.180434 
L 992.918651 601.296142 
L 993.94448 601.787881 
L 994.97031 601.931042 
L 995.996139 601.131263 
L 997.021969 599.969853 
L 998.047799 601.903422 
L 999.073628 601.956121 
L 1000.099458 601.409423 
L 1001.125287 601.617226 
L 1002.151117 602.27227 
L 1003.176946 601.42496 
L 1004.202776 601.765213 
L 1005.228606 601.463331 
L 1006.254435 601.750223 
L 1007.280265 601.858604 
L 1008.306094 610.126282 
L 1009.331924 603.117549 
L 1010.357753 602.305152 
L 1011.383583 603.592368 
L 1012.409413 602.357063 
L 1013.435242 601.795953 
L 1014.461072 602.373368 
L 1015.486901 602.184337 
L 1017.538561 602.891283 
L 1018.56439 602.980019 
L 1019.59022 602.469628 
L 1020.616049 602.66683 
L 1021.641879 601.991481 
L 1023.693538 602.728702 
L 1024.719368 603.512734 
L 1025.745197 602.552333 
L 1026.771027 603.206134 
L 1027.796856 602.952679 
L 1028.822686 603.006102 
L 1030.874345 602.732464 
L 1031.900175 602.910226 
L 1032.926004 603.31572 
L 1033.951834 603.04117 
L 1034.977663 603.235503 
L 1036.003493 603.110504 
L 1037.029323 603.542291 
L 1038.055152 603.722885 
L 1039.080982 603.408835 
L 1040.106811 602.518542 
L 1041.132641 603.800334 
L 1042.15847 603.655335 
L 1043.1843 603.63778 
L 1044.21013 602.902138 
L 1045.235959 603.320805 
L 1046.261789 604.477288 
L 1047.287618 603.93689 
L 1049.339278 603.702207 
L 1050.365107 603.204092 
L 1051.390937 601.336366 
L 1052.416766 603.915533 
L 1053.442596 604.603226 
L 1054.468425 603.396712 
L 1055.494255 603.261826 
L 1056.520085 604.001934 
L 1057.545914 604.107923 
L 1058.571744 604.466556 
L 1059.597573 604.067367 
L 1060.623403 604.615865 
L 1061.649232 610.546977 
L 1062.675062 605.227726 
L 1063.700892 603.392915 
L 1064.726721 604.661889 
L 1065.752551 604.30547 
L 1066.77838 604.293759 
L 1067.80421 605.203787 
L 1068.83004 604.993074 
L 1069.855869 609.130877 
L 1070.881699 604.736844 
L 1071.907528 604.407746 
L 1072.933358 606.446237 
L 1073.959187 604.796418 
L 1074.985017 605.130515 
L 1077.036676 605.065554 
L 1078.062506 605.255076 
L 1079.088335 604.97713 
L 1080.114165 605.512466 
L 1081.139994 605.004942 
L 1082.165824 605.436039 
L 1083.191654 605.306589 
L 1084.217483 605.355719 
L 1085.243313 605.012595 
L 1086.269142 606.601366 
L 1087.294972 605.163472 
L 1088.320802 605.303975 
L 1089.346631 605.297775 
L 1090.372461 605.618963 
L 1091.39829 606.123858 
L 1092.42412 605.548821 
L 1093.449949 605.208216 
L 1094.475779 605.628119 
L 1095.501609 605.404006 
L 1096.527438 605.924669 
L 1097.553268 606.1475 
L 1098.579097 605.332184 
L 1099.604927 605.816703 
L 1100.630757 605.89578 
L 1101.656586 605.71793 
L 1102.682416 606.016341 
L 1103.708245 610.095702 
L 1104.734075 605.390098 
L 1105.759904 605.375583 
L 1106.785734 606.170212 
L 1107.811564 605.927126 
L 1108.837393 606.263254 
L 1109.863223 607.705457 
L 1110.889052 606.363707 
L 1112.940711 605.603764 
L 1113.966541 612.627107 
L 1114.992371 607.282497 
L 1116.0182 610.610235 
L 1117.04403 605.717159 
L 1118.069859 606.346637 
L 1119.095689 606.682682 
L 1120.121519 606.788933 
L 1121.147348 606.592974 
L 1122.173178 610.383293 
L 1123.199007 606.124051 
L 1124.224837 606.442577 
L 1125.250666 607.521828 
L 1126.276496 606.581282 
L 1128.328155 606.965138 
L 1129.353985 606.433957 
L 1130.379814 606.825447 
L 1131.405644 606.266879 
L 1132.431473 606.927699 
L 1134.483133 607.207511 
L 1135.508962 606.633365 
L 1136.534792 606.280876 
L 1137.560621 606.407896 
L 1138.586451 606.384231 
L 1139.612281 606.562401 
L 1140.63811 607.273663 
L 1141.66394 607.31653 
L 1142.689769 606.625003 
L 1144.741428 607.227263 
L 1145.767258 607.028994 
L 1146.793088 607.732208 
L 1147.818917 607.496688 
L 1148.844747 611.627826 
L 1149.870576 606.924621 
L 1150.896406 607.325546 
L 1151.922235 606.69576 
L 1152.948065 607.497284 
L 1153.973895 606.809733 
L 1154.999724 607.353707 
L 1156.025554 607.646317 
L 1157.051383 607.130616 
L 1158.077213 607.429466 
L 1159.103043 607.223204 
L 1160.128872 607.437743 
L 1161.154702 607.357662 
L 1162.180531 607.823436 
L 1163.206361 607.763655 
L 1165.25802 607.238068 
L 1166.28385 614.176116 
L 1167.309679 608.616263 
L 1168.335509 607.558941 
L 1169.361338 607.547198 
L 1170.387168 607.777511 
L 1171.412998 608.138522 
L 1172.438827 607.277535 
L 1173.464657 607.605976 
L 1174.490486 608.743265 
L 1175.516316 607.488206 
L 1176.542145 608.276666 
L 1177.567975 607.949617 
L 1178.593805 608.349307 
L 1179.619634 611.014871 
L 1180.645464 607.650968 
L 1181.671293 607.792839 
L 1182.697123 607.345307 
L 1183.722952 607.820935 
L 1186.800441 608.457522 
L 1187.826271 607.906004 
L 1188.8521 607.558624 
L 1192.955419 608.544363 
L 1193.981248 608.498499 
L 1195.007078 608.773292 
L 1196.032907 608.253469 
L 1197.058737 608.42366 
L 1198.084567 608.382203 
L 1199.110396 607.859468 
L 1200.136226 608.595282 
L 1201.162055 608.299308 
L 1202.187885 608.633135 
L 1203.213714 608.65356 
L 1204.239544 611.940485 
L 1205.265374 608.550741 
L 1207.317033 608.516774 
L 1208.342862 608.695195 
L 1209.368692 608.454828 
L 1210.394522 608.99927 
L 1211.420351 609.040099 
L 1212.446181 604.2725 
L 1213.47201 608.983437 
L 1214.49784 608.775828 
L 1215.523669 608.430628 
L 1216.549499 608.921299 
L 1217.575329 608.636956 
L 1218.601158 615.6 
L 1219.626988 609.749702 
L 1220.652817 609.274364 
L 1222.704477 608.968484 
L 1223.730306 609.434098 
L 1224.756136 609.048239 
L 1225.781965 608.81798 
L 1226.807795 609.081764 
L 1227.833624 610.72224 
L 1228.859454 609.110733 
L 1231.936943 608.895613 
L 1232.962772 609.170783 
L 1233.988602 609.901829 
L 1235.014431 609.112484 
L 1236.040261 608.801464 
L 1239.11775 609.052016 
L 1241.169409 609.693484 
L 1242.195239 609.3361 
L 1243.221068 610.05835 
L 1244.246898 609.572111 
L 1245.272727 612.401239 
L 1245.272727 612.401239 
" style="fill:none;stroke:#ff7f0e;stroke-linecap:square;stroke-width:1.5;"/>
   </g>
   <g id="patch_3">
    <path d="M 180 640.8 
L 180 86.4 
" style="fill:none;stroke:#000000;stroke-linecap:square;stroke-linejoin:miter;stroke-width:0.8;"/>
   </g>
   <g id="patch_4">
    <path d="M 1296 640.8 
L 1296 86.4 
" style="fill:none;stroke:#000000;stroke-linecap:square;stroke-linejoin:miter;stroke-width:0.8;"/>
   </g>
   <g id="patch_5">
    <path d="M 180 640.8 
L 1296 640.8 
" style="fill:none;stroke:#000000;stroke-linecap:square;stroke-linejoin:miter;stroke-width:0.8;"/>
   </g>
   <g id="patch_6">
    <path d="M 180 86.4 
L 1296 86.4 
" style="fill:none;stroke:#000000;stroke-linecap:square;stroke-linejoin:miter;stroke-width:0.8;"/>
   </g>
   <g id="text_19">
    <!-- Force Index (FI) Speedup -->
    <defs>
     <path d="M 9.8125 72.90625 
L 51.703125 72.90625 
L 51.703125 64.59375 
L 19.671875 64.59375 
L 19.671875 43.109375 
L 48.578125 43.109375 
L 48.578125 34.8125 
L 19.671875 34.8125 
L 19.671875 0 
L 9.8125 0 
z
" id="DejaVuSans-70"/>
     <path d="M 30.609375 48.390625 
Q 23.390625 48.390625 19.1875 42.75 
Q 14.984375 37.109375 14.984375 27.296875 
Q 14.984375 17.484375 19.15625 11.84375 
Q 23.34375 6.203125 30.609375 6.203125 
Q 37.796875 6.203125 41.984375 11.859375 
Q 46.1875 17.53125 46.1875 27.296875 
Q 46.1875 37.015625 41.984375 42.703125 
Q 37.796875 48.390625 30.609375 48.390625 
z
M 30.609375 56 
Q 42.328125 56 49.015625 48.375 
Q 55.71875 40.765625 55.71875 27.296875 
Q 55.71875 13.875 49.015625 6.21875 
Q 42.328125 -1.421875 30.609375 -1.421875 
Q 18.84375 -1.421875 12.171875 6.21875 
Q 5.515625 13.875 5.515625 27.296875 
Q 5.515625 40.765625 12.171875 48.375 
Q 18.84375 56 30.609375 56 
z
" id="DejaVuSans-111"/>
     <path d="M 41.109375 46.296875 
Q 39.59375 47.171875 37.8125 47.578125 
Q 36.03125 48 33.890625 48 
Q 26.265625 48 22.1875 43.046875 
Q 18.109375 38.09375 18.109375 28.8125 
L 18.109375 0 
L 9.078125 0 
L 9.078125 54.6875 
L 18.109375 54.6875 
L 18.109375 46.1875 
Q 20.953125 51.171875 25.484375 53.578125 
Q 30.03125 56 36.53125 56 
Q 37.453125 56 38.578125 55.875 
Q 39.703125 55.765625 41.0625 55.515625 
z
" id="DejaVuSans-114"/>
     <path d="M 48.78125 52.59375 
L 48.78125 44.1875 
Q 44.96875 46.296875 41.140625 47.34375 
Q 37.3125 48.390625 33.40625 48.390625 
Q 24.65625 48.390625 19.8125 42.84375 
Q 14.984375 37.3125 14.984375 27.296875 
Q 14.984375 17.28125 19.8125 11.734375 
Q 24.65625 6.203125 33.40625 6.203125 
Q 37.3125 6.203125 41.140625 7.25 
Q 44.96875 8.296875 48.78125 10.40625 
L 48.78125 2.09375 
Q 45.015625 0.34375 40.984375 -0.53125 
Q 36.96875 -1.421875 32.421875 -1.421875 
Q 20.0625 -1.421875 12.78125 6.34375 
Q 5.515625 14.109375 5.515625 27.296875 
Q 5.515625 40.671875 12.859375 48.328125 
Q 20.21875 56 33.015625 56 
Q 37.15625 56 41.109375 55.140625 
Q 45.0625 54.296875 48.78125 52.59375 
z
" id="DejaVuSans-99"/>
     <path id="DejaVuSans-32"/>
     <path d="M 9.8125 72.90625 
L 19.671875 72.90625 
L 19.671875 0 
L 9.8125 0 
z
" id="DejaVuSans-73"/>
     <path d="M 54.890625 54.6875 
L 35.109375 28.078125 
L 55.90625 0 
L 45.3125 0 
L 29.390625 21.484375 
L 13.484375 0 
L 2.875 0 
L 24.125 28.609375 
L 4.6875 54.6875 
L 15.28125 54.6875 
L 29.78125 35.203125 
L 44.28125 54.6875 
z
" id="DejaVuSans-120"/>
     <path d="M 31 75.875 
Q 24.46875 64.65625 21.28125 53.65625 
Q 18.109375 42.671875 18.109375 31.390625 
Q 18.109375 20.125 21.3125 9.0625 
Q 24.515625 -2 31 -13.1875 
L 23.1875 -13.1875 
Q 15.875 -1.703125 12.234375 9.375 
Q 8.59375 20.453125 8.59375 31.390625 
Q 8.59375 42.28125 12.203125 53.3125 
Q 15.828125 64.359375 23.1875 75.875 
z
" id="DejaVuSans-40"/>
     <path d="M 8.015625 75.875 
L 15.828125 75.875 
Q 23.140625 64.359375 26.78125 53.3125 
Q 30.421875 42.28125 30.421875 31.390625 
Q 30.421875 20.453125 26.78125 9.375 
Q 23.140625 -1.703125 15.828125 -13.1875 
L 8.015625 -13.1875 
Q 14.5 -2 17.703125 9.0625 
Q 20.90625 20.125 20.90625 31.390625 
Q 20.90625 42.671875 17.703125 53.65625 
Q 14.5 64.65625 8.015625 75.875 
z
" id="DejaVuSans-41"/>
     <path d="M 53.515625 70.515625 
L 53.515625 60.890625 
Q 47.90625 63.578125 42.921875 64.890625 
Q 37.9375 66.21875 33.296875 66.21875 
Q 25.25 66.21875 20.875 63.09375 
Q 16.5 59.96875 16.5 54.203125 
Q 16.5 49.359375 19.40625 46.890625 
Q 22.3125 44.4375 30.421875 42.921875 
L 36.375 41.703125 
Q 47.40625 39.59375 52.65625 34.296875 
Q 57.90625 29 57.90625 20.125 
Q 57.90625 9.515625 50.796875 4.046875 
Q 43.703125 -1.421875 29.984375 -1.421875 
Q 24.8125 -1.421875 18.96875 -0.25 
Q 13.140625 0.921875 6.890625 3.21875 
L 6.890625 13.375 
Q 12.890625 10.015625 18.65625 8.296875 
Q 24.421875 6.59375 29.984375 6.59375 
Q 38.421875 6.59375 43.015625 9.90625 
Q 47.609375 13.234375 47.609375 19.390625 
Q 47.609375 24.75 44.3125 27.78125 
Q 41.015625 30.8125 33.5 32.328125 
L 27.484375 33.5 
Q 16.453125 35.6875 11.515625 40.375 
Q 6.59375 45.0625 6.59375 53.421875 
Q 6.59375 63.09375 13.40625 68.65625 
Q 20.21875 74.21875 32.171875 74.21875 
Q 37.3125 74.21875 42.625 73.28125 
Q 47.953125 72.359375 53.515625 70.515625 
z
" id="DejaVuSans-83"/>
    </defs>
    <g transform="translate(663.207188 80.4)scale(0.12 -0.12)">
     <use xlink:href="#DejaVuSans-70"/>
     <use x="53.894531" xlink:href="#DejaVuSans-111"/>
     <use x="115.076172" xlink:href="#DejaVuSans-114"/>
     <use x="153.939453" xlink:href="#DejaVuSans-99"/>
     <use x="208.919922" xlink:href="#DejaVuSans-101"/>
     <use x="270.443359" xlink:href="#DejaVuSans-32"/>
     <use x="302.230469" xlink:href="#DejaVuSans-73"/>
     <use x="331.722656" xlink:href="#DejaVuSans-110"/>
     <use x="395.101562" xlink:href="#DejaVuSans-100"/>
     <use x="458.578125" xlink:href="#DejaVuSans-101"/>
     <use x="518.351562" xlink:href="#DejaVuSans-120"/>
     <use x="577.53125" xlink:href="#DejaVuSans-32"/>
     <use x="609.318359" xlink:href="#DejaVuSans-40"/>
     <use x="648.332031" xlink:href="#DejaVuSans-70"/>
     <use x="705.851562" xlink:href="#DejaVuSans-73"/>
     <use x="735.34375" xlink:href="#DejaVuSans-41"/>
     <use x="774.357422" xlink:href="#DejaVuSans-32"/>
     <use x="806.144531" xlink:href="#DejaVuSans-83"/>
     <use x="869.621094" xlink:href="#DejaVuSans-112"/>
     <use x="933.097656" xlink:href="#DejaVuSans-101"/>
     <use x="994.621094" xlink:href="#DejaVuSans-101"/>
     <use x="1056.144531" xlink:href="#DejaVuSans-100"/>
     <use x="1119.621094" xlink:href="#DejaVuSans-117"/>
     <use x="1183" xlink:href="#DejaVuSans-112"/>
    </g>
   </g>
   <g id="legend_1">
    <g id="patch_7">
     <path d="M 1185.373437 123.75625 
L 1289 123.75625 
Q 1291 123.75625 1291 121.75625 
L 1291 93.4 
Q 1291 91.4 1289 91.4 
L 1185.373437 91.4 
Q 1183.373437 91.4 1183.373437 93.4 
L 1183.373437 121.75625 
Q 1183.373437 123.75625 1185.373437 123.75625 
z
" style="fill:#ffffff;opacity:0.8;stroke:#cccccc;stroke-linejoin:miter;"/>
    </g>
    <g id="line2d_19">
     <path d="M 1187.373437 99.498437 
L 1207.373437 99.498437 
" style="fill:none;stroke:#1f77b4;stroke-linecap:square;stroke-width:1.5;"/>
    </g>
    <g id="line2d_20"/>
    <g id="text_20">
     <!-- numpy.float32 -->
     <defs>
      <path d="M 52 44.1875 
Q 55.375 50.25 60.0625 53.125 
Q 64.75 56 71.09375 56 
Q 79.640625 56 84.28125 50.015625 
Q 88.921875 44.046875 88.921875 33.015625 
L 88.921875 0 
L 79.890625 0 
L 79.890625 32.71875 
Q 79.890625 40.578125 77.09375 44.375 
Q 74.3125 48.1875 68.609375 48.1875 
Q 61.625 48.1875 57.5625 43.546875 
Q 53.515625 38.921875 53.515625 30.90625 
L 53.515625 0 
L 44.484375 0 
L 44.484375 32.71875 
Q 44.484375 40.625 41.703125 44.40625 
Q 38.921875 48.1875 33.109375 48.1875 
Q 26.21875 48.1875 22.15625 43.53125 
Q 18.109375 38.875 18.109375 30.90625 
L 18.109375 0 
L 9.078125 0 
L 9.078125 54.6875 
L 18.109375 54.6875 
L 18.109375 46.1875 
Q 21.1875 51.21875 25.484375 53.609375 
Q 29.78125 56 35.6875 56 
Q 41.65625 56 45.828125 52.96875 
Q 50 49.953125 52 44.1875 
z
" id="DejaVuSans-109"/>
      <path d="M 32.171875 -5.078125 
Q 28.375 -14.84375 24.75 -17.8125 
Q 21.140625 -20.796875 15.09375 -20.796875 
L 7.90625 -20.796875 
L 7.90625 -13.28125 
L 13.1875 -13.28125 
Q 16.890625 -13.28125 18.9375 -11.515625 
Q 21 -9.765625 23.484375 -3.21875 
L 25.09375 0.875 
L 2.984375 54.6875 
L 12.5 54.6875 
L 29.59375 11.921875 
L 46.6875 54.6875 
L 56.203125 54.6875 
z
" id="DejaVuSans-121"/>
      <path d="M 37.109375 75.984375 
L 37.109375 68.5 
L 28.515625 68.5 
Q 23.6875 68.5 21.796875 66.546875 
Q 19.921875 64.59375 19.921875 59.515625 
L 19.921875 54.6875 
L 34.71875 54.6875 
L 34.71875 47.703125 
L 19.921875 47.703125 
L 19.921875 0 
L 10.890625 0 
L 10.890625 47.703125 
L 2.296875 47.703125 
L 2.296875 54.6875 
L 10.890625 54.6875 
L 10.890625 58.5 
Q 10.890625 67.625 15.140625 71.796875 
Q 19.390625 75.984375 28.609375 75.984375 
z
" id="DejaVuSans-102"/>
      <path d="M 9.421875 75.984375 
L 18.40625 75.984375 
L 18.40625 0 
L 9.421875 0 
z
" id="DejaVuSans-108"/>
      <path d="M 34.28125 27.484375 
Q 23.390625 27.484375 19.1875 25 
Q 14.984375 22.515625 14.984375 16.5 
Q 14.984375 11.71875 18.140625 8.90625 
Q 21.296875 6.109375 26.703125 6.109375 
Q 34.1875 6.109375 38.703125 11.40625 
Q 43.21875 16.703125 43.21875 25.484375 
L 43.21875 27.484375 
z
M 52.203125 31.203125 
L 52.203125 0 
L 43.21875 0 
L 43.21875 8.296875 
Q 40.140625 3.328125 35.546875 0.953125 
Q 30.953125 -1.421875 24.3125 -1.421875 
Q 15.921875 -1.421875 10.953125 3.296875 
Q 6 8.015625 6 15.921875 
Q 6 25.140625 12.171875 29.828125 
Q 18.359375 34.515625 30.609375 34.515625 
L 43.21875 34.515625 
L 43.21875 35.40625 
Q 43.21875 41.609375 39.140625 45 
Q 35.0625 48.390625 27.6875 48.390625 
Q 23 48.390625 18.546875 47.265625 
Q 14.109375 46.140625 10.015625 43.890625 
L 10.015625 52.203125 
Q 14.9375 54.109375 19.578125 55.046875 
Q 24.21875 56 28.609375 56 
Q 40.484375 56 46.34375 49.84375 
Q 52.203125 43.703125 52.203125 31.203125 
z
" id="DejaVuSans-97"/>
      <path d="M 18.3125 70.21875 
L 18.3125 54.6875 
L 36.8125 54.6875 
L 36.8125 47.703125 
L 18.3125 47.703125 
L 18.3125 18.015625 
Q 18.3125 11.328125 20.140625 9.421875 
Q 21.96875 7.515625 27.59375 7.515625 
L 36.8125 7.515625 
L 36.8125 0 
L 27.59375 0 
Q 17.1875 0 13.234375 3.875 
Q 9.28125 7.765625 9.28125 18.015625 
L 9.28125 47.703125 
L 2.6875 47.703125 
L 2.6875 54.6875 
L 9.28125 54.6875 
L 9.28125 70.21875 
z
" id="DejaVuSans-116"/>
     </defs>
     <g transform="translate(1215.373437 102.998437)scale(0.1 -0.1)">
      <use xlink:href="#DejaVuSans-110"/>
      <use x="63.378906" xlink:href="#DejaVuSans-117"/>
      <use x="126.757812" xlink:href="#DejaVuSans-109"/>
      <use x="224.169922" xlink:href="#DejaVuSans-112"/>
      <use x="287.646484" xlink:href="#DejaVuSans-121"/>
      <use x="332.576172" xlink:href="#DejaVuSans-46"/>
      <use x="364.363281" xlink:href="#DejaVuSans-102"/>
      <use x="399.568359" xlink:href="#DejaVuSans-108"/>
      <use x="427.351562" xlink:href="#DejaVuSans-111"/>
      <use x="488.533203" xlink:href="#DejaVuSans-97"/>
      <use x="549.8125" xlink:href="#DejaVuSans-116"/>
      <use x="589.021484" xlink:href="#DejaVuSans-51"/>
      <use x="652.644531" xlink:href="#DejaVuSans-50"/>
     </g>
    </g>
    <g id="line2d_21">
     <path d="M 1187.373437 114.176562 
L 1207.373437 114.176562 
" style="fill:none;stroke:#ff7f0e;stroke-linecap:square;stroke-width:1.5;"/>
    </g>
    <g id="line2d_22"/>
    <g id="text_21">
     <!-- numpy.float64 -->
     <g transform="translate(1215.373437 117.676562)scale(0.1 -0.1)">
      <use xlink:href="#DejaVuSans-110"/>
      <use x="63.378906" xlink:href="#DejaVuSans-117"/>
      <use x="126.757812" xlink:href="#DejaVuSans-109"/>
      <use x="224.169922" xlink:href="#DejaVuSans-112"/>
      <use x="287.646484" xlink:href="#DejaVuSans-121"/>
      <use x="332.576172" xlink:href="#DejaVuSans-46"/>
      <use x="364.363281" xlink:href="#DejaVuSans-102"/>
      <use x="399.568359" xlink:href="#DejaVuSans-108"/>
      <use x="427.351562" xlink:href="#DejaVuSans-111"/>
      <use x="488.533203" xlink:href="#DejaVuSans-97"/>
      <use x="549.8125" xlink:href="#DejaVuSans-116"/>
      <use x="589.021484" xlink:href="#DejaVuSans-54"/>
      <use x="652.644531" xlink:href="#DejaVuSans-52"/>
     </g>
    </g>
   </g>
  </g>
 </g>
 <defs>
  <clipPath id="peda409c5fc">
   <rect height="554.4" width="1116" x="180" y="86.4"/>
  </clipPath>
 </defs>
</svg>
