<?xml version="1.0" encoding="utf-8" standalone="no"?>
<!DOCTYPE svg PUBLIC "-//W3C//DTD SVG 1.1//EN"
  "http://www.w3.org/Graphics/SVG/1.1/DTD/svg11.dtd">
<!-- Created with matplotlib (https://matplotlib.org/) -->
<svg height="345.6pt" version="1.1" viewBox="0 0 460.8 345.6" width="460.8pt" xmlns="http://www.w3.org/2000/svg" xmlns:xlink="http://www.w3.org/1999/xlink">
 <defs>
  <style type="text/css">
*{stroke-linecap:butt;stroke-linejoin:round;}
  </style>
 </defs>
 <g id="figure_1">
  <g id="patch_1">
   <path d="M 0 345.6 
L 460.8 345.6 
L 460.8 0 
L 0 0 
z
" style="fill:#ffffff;"/>
  </g>
  <g id="axes_1">
   <g id="patch_2">
    <path d="M 57.6 307.584 
L 414.72 307.584 
L 414.72 41.472 
L 57.6 41.472 
z
" style="fill:#ffffff;"/>
   </g>
   <g id="matplotlib.axis_1">
    <g id="xtick_1">
     <g id="line2d_1">
      <defs>
       <path d="M 0 0 
L 0 3.5 
" id="m977baf3270" style="stroke:#000000;stroke-width:0.8;"/>
      </defs>
      <g>
       <use style="stroke:#000000;stroke-width:0.8;" x="106.659274" xlink:href="#m977baf3270" y="307.584"/>
      </g>
     </g>
     <g id="text_1">
      <!-- 100.0 -->
      <defs>
       <path d="M 12.40625 8.296875 
L 28.515625 8.296875 
L 28.515625 63.921875 
L 10.984375 60.40625 
L 10.984375 69.390625 
L 28.421875 72.90625 
L 38.28125 72.90625 
L 38.28125 8.296875 
L 54.390625 8.296875 
L 54.390625 0 
L 12.40625 0 
z
" id="DejaVuSans-49"/>
       <path d="M 31.78125 66.40625 
Q 24.171875 66.40625 20.328125 58.90625 
Q 16.5 51.421875 16.5 36.375 
Q 16.5 21.390625 20.328125 13.890625 
Q 24.171875 6.390625 31.78125 6.390625 
Q 39.453125 6.390625 43.28125 13.890625 
Q 47.125 21.390625 47.125 36.375 
Q 47.125 51.421875 43.28125 58.90625 
Q 39.453125 66.40625 31.78125 66.40625 
z
M 31.78125 74.21875 
Q 44.046875 74.21875 50.515625 64.515625 
Q 56.984375 54.828125 56.984375 36.375 
Q 56.984375 17.96875 50.515625 8.265625 
Q 44.046875 -1.421875 31.78125 -1.421875 
Q 19.53125 -1.421875 13.0625 8.265625 
Q 6.59375 17.96875 6.59375 36.375 
Q 6.59375 54.828125 13.0625 64.515625 
Q 19.53125 74.21875 31.78125 74.21875 
z
" id="DejaVuSans-48"/>
       <path d="M 10.6875 12.40625 
L 21 12.40625 
L 21 0 
L 10.6875 0 
z
" id="DejaVuSans-46"/>
      </defs>
      <g transform="translate(92.345211 322.182437)scale(0.1 -0.1)">
       <use xlink:href="#DejaVuSans-49"/>
       <use x="63.623047" xlink:href="#DejaVuSans-48"/>
       <use x="127.246094" xlink:href="#DejaVuSans-48"/>
       <use x="190.869141" xlink:href="#DejaVuSans-46"/>
       <use x="222.65625" xlink:href="#DejaVuSans-48"/>
      </g>
     </g>
    </g>
    <g id="xtick_2">
     <g id="line2d_2">
      <g>
       <use style="stroke:#000000;stroke-width:0.8;" x="139.48582" xlink:href="#m977baf3270" y="307.584"/>
      </g>
     </g>
     <g id="text_2">
      <!-- 200.0 -->
      <defs>
       <path d="M 19.1875 8.296875 
L 53.609375 8.296875 
L 53.609375 0 
L 7.328125 0 
L 7.328125 8.296875 
Q 12.9375 14.109375 22.625 23.890625 
Q 32.328125 33.6875 34.8125 36.53125 
Q 39.546875 41.84375 41.421875 45.53125 
Q 43.3125 49.21875 43.3125 52.78125 
Q 43.3125 58.59375 39.234375 62.25 
Q 35.15625 65.921875 28.609375 65.921875 
Q 23.96875 65.921875 18.8125 64.3125 
Q 13.671875 62.703125 7.8125 59.421875 
L 7.8125 69.390625 
Q 13.765625 71.78125 18.9375 73 
Q 24.125 74.21875 28.421875 74.21875 
Q 39.75 74.21875 46.484375 68.546875 
Q 53.21875 62.890625 53.21875 53.421875 
Q 53.21875 48.921875 51.53125 44.890625 
Q 49.859375 40.875 45.40625 35.40625 
Q 44.1875 33.984375 37.640625 27.21875 
Q 31.109375 20.453125 19.1875 8.296875 
z
" id="DejaVuSans-50"/>
      </defs>
      <g transform="translate(125.171758 322.182437)scale(0.1 -0.1)">
       <use xlink:href="#DejaVuSans-50"/>
       <use x="63.623047" xlink:href="#DejaVuSans-48"/>
       <use x="127.246094" xlink:href="#DejaVuSans-48"/>
       <use x="190.869141" xlink:href="#DejaVuSans-46"/>
       <use x="222.65625" xlink:href="#DejaVuSans-48"/>
      </g>
     </g>
    </g>
    <g id="xtick_3">
     <g id="line2d_3">
      <g>
       <use style="stroke:#000000;stroke-width:0.8;" x="172.312367" xlink:href="#m977baf3270" y="307.584"/>
      </g>
     </g>
     <g id="text_3">
      <!-- 300.0 -->
      <defs>
       <path d="M 40.578125 39.3125 
Q 47.65625 37.796875 51.625 33 
Q 55.609375 28.21875 55.609375 21.1875 
Q 55.609375 10.40625 48.1875 4.484375 
Q 40.765625 -1.421875 27.09375 -1.421875 
Q 22.515625 -1.421875 17.65625 -0.515625 
Q 12.796875 0.390625 7.625 2.203125 
L 7.625 11.71875 
Q 11.71875 9.328125 16.59375 8.109375 
Q 21.484375 6.890625 26.8125 6.890625 
Q 36.078125 6.890625 40.9375 10.546875 
Q 45.796875 14.203125 45.796875 21.1875 
Q 45.796875 27.640625 41.28125 31.265625 
Q 36.765625 34.90625 28.71875 34.90625 
L 20.21875 34.90625 
L 20.21875 43.015625 
L 29.109375 43.015625 
Q 36.375 43.015625 40.234375 45.921875 
Q 44.09375 48.828125 44.09375 54.296875 
Q 44.09375 59.90625 40.109375 62.90625 
Q 36.140625 65.921875 28.71875 65.921875 
Q 24.65625 65.921875 20.015625 65.03125 
Q 15.375 64.15625 9.8125 62.3125 
L 9.8125 71.09375 
Q 15.4375 72.65625 20.34375 73.4375 
Q 25.25 74.21875 29.59375 74.21875 
Q 40.828125 74.21875 47.359375 69.109375 
Q 53.90625 64.015625 53.90625 55.328125 
Q 53.90625 49.265625 50.4375 45.09375 
Q 46.96875 40.921875 40.578125 39.3125 
z
" id="DejaVuSans-51"/>
      </defs>
      <g transform="translate(157.998304 322.182437)scale(0.1 -0.1)">
       <use xlink:href="#DejaVuSans-51"/>
       <use x="63.623047" xlink:href="#DejaVuSans-48"/>
       <use x="127.246094" xlink:href="#DejaVuSans-48"/>
       <use x="190.869141" xlink:href="#DejaVuSans-46"/>
       <use x="222.65625" xlink:href="#DejaVuSans-48"/>
      </g>
     </g>
    </g>
    <g id="xtick_4">
     <g id="line2d_4">
      <g>
       <use style="stroke:#000000;stroke-width:0.8;" x="205.138914" xlink:href="#m977baf3270" y="307.584"/>
      </g>
     </g>
     <g id="text_4">
      <!-- 400.0 -->
      <defs>
       <path d="M 37.796875 64.3125 
L 12.890625 25.390625 
L 37.796875 25.390625 
z
M 35.203125 72.90625 
L 47.609375 72.90625 
L 47.609375 25.390625 
L 58.015625 25.390625 
L 58.015625 17.1875 
L 47.609375 17.1875 
L 47.609375 0 
L 37.796875 0 
L 37.796875 17.1875 
L 4.890625 17.1875 
L 4.890625 26.703125 
z
" id="DejaVuSans-52"/>
      </defs>
      <g transform="translate(190.824851 322.182437)scale(0.1 -0.1)">
       <use xlink:href="#DejaVuSans-52"/>
       <use x="63.623047" xlink:href="#DejaVuSans-48"/>
       <use x="127.246094" xlink:href="#DejaVuSans-48"/>
       <use x="190.869141" xlink:href="#DejaVuSans-46"/>
       <use x="222.65625" xlink:href="#DejaVuSans-48"/>
      </g>
     </g>
    </g>
    <g id="xtick_5">
     <g id="line2d_5">
      <g>
       <use style="stroke:#000000;stroke-width:0.8;" x="237.96546" xlink:href="#m977baf3270" y="307.584"/>
      </g>
     </g>
     <g id="text_5">
      <!-- 500.0 -->
      <defs>
       <path d="M 10.796875 72.90625 
L 49.515625 72.90625 
L 49.515625 64.59375 
L 19.828125 64.59375 
L 19.828125 46.734375 
Q 21.96875 47.46875 24.109375 47.828125 
Q 26.265625 48.1875 28.421875 48.1875 
Q 40.625 48.1875 47.75 41.5 
Q 54.890625 34.8125 54.890625 23.390625 
Q 54.890625 11.625 47.5625 5.09375 
Q 40.234375 -1.421875 26.90625 -1.421875 
Q 22.3125 -1.421875 17.546875 -0.640625 
Q 12.796875 0.140625 7.71875 1.703125 
L 7.71875 11.625 
Q 12.109375 9.234375 16.796875 8.0625 
Q 21.484375 6.890625 26.703125 6.890625 
Q 35.15625 6.890625 40.078125 11.328125 
Q 45.015625 15.765625 45.015625 23.390625 
Q 45.015625 31 40.078125 35.4375 
Q 35.15625 39.890625 26.703125 39.890625 
Q 22.75 39.890625 18.8125 39.015625 
Q 14.890625 38.140625 10.796875 36.28125 
z
" id="DejaVuSans-53"/>
      </defs>
      <g transform="translate(223.651398 322.182437)scale(0.1 -0.1)">
       <use xlink:href="#DejaVuSans-53"/>
       <use x="63.623047" xlink:href="#DejaVuSans-48"/>
       <use x="127.246094" xlink:href="#DejaVuSans-48"/>
       <use x="190.869141" xlink:href="#DejaVuSans-46"/>
       <use x="222.65625" xlink:href="#DejaVuSans-48"/>
      </g>
     </g>
    </g>
    <g id="xtick_6">
     <g id="line2d_6">
      <g>
       <use style="stroke:#000000;stroke-width:0.8;" x="270.792007" xlink:href="#m977baf3270" y="307.584"/>
      </g>
     </g>
     <g id="text_6">
      <!-- 600.0 -->
      <defs>
       <path d="M 33.015625 40.375 
Q 26.375 40.375 22.484375 35.828125 
Q 18.609375 31.296875 18.609375 23.390625 
Q 18.609375 15.53125 22.484375 10.953125 
Q 26.375 6.390625 33.015625 6.390625 
Q 39.65625 6.390625 43.53125 10.953125 
Q 47.40625 15.53125 47.40625 23.390625 
Q 47.40625 31.296875 43.53125 35.828125 
Q 39.65625 40.375 33.015625 40.375 
z
M 52.59375 71.296875 
L 52.59375 62.3125 
Q 48.875 64.0625 45.09375 64.984375 
Q 41.3125 65.921875 37.59375 65.921875 
Q 27.828125 65.921875 22.671875 59.328125 
Q 17.53125 52.734375 16.796875 39.40625 
Q 19.671875 43.65625 24.015625 45.921875 
Q 28.375 48.1875 33.59375 48.1875 
Q 44.578125 48.1875 50.953125 41.515625 
Q 57.328125 34.859375 57.328125 23.390625 
Q 57.328125 12.15625 50.6875 5.359375 
Q 44.046875 -1.421875 33.015625 -1.421875 
Q 20.359375 -1.421875 13.671875 8.265625 
Q 6.984375 17.96875 6.984375 36.375 
Q 6.984375 53.65625 15.1875 63.9375 
Q 23.390625 74.21875 37.203125 74.21875 
Q 40.921875 74.21875 44.703125 73.484375 
Q 48.484375 72.75 52.59375 71.296875 
z
" id="DejaVuSans-54"/>
      </defs>
      <g transform="translate(256.477944 322.182437)scale(0.1 -0.1)">
       <use xlink:href="#DejaVuSans-54"/>
       <use x="63.623047" xlink:href="#DejaVuSans-48"/>
       <use x="127.246094" xlink:href="#DejaVuSans-48"/>
       <use x="190.869141" xlink:href="#DejaVuSans-46"/>
       <use x="222.65625" xlink:href="#DejaVuSans-48"/>
      </g>
     </g>
    </g>
    <g id="xtick_7">
     <g id="line2d_7">
      <g>
       <use style="stroke:#000000;stroke-width:0.8;" x="303.618553" xlink:href="#m977baf3270" y="307.584"/>
      </g>
     </g>
     <g id="text_7">
      <!-- 700.0 -->
      <defs>
       <path d="M 8.203125 72.90625 
L 55.078125 72.90625 
L 55.078125 68.703125 
L 28.609375 0 
L 18.3125 0 
L 43.21875 64.59375 
L 8.203125 64.59375 
z
" id="DejaVuSans-55"/>
      </defs>
      <g transform="translate(289.304491 322.182437)scale(0.1 -0.1)">
       <use xlink:href="#DejaVuSans-55"/>
       <use x="63.623047" xlink:href="#DejaVuSans-48"/>
       <use x="127.246094" xlink:href="#DejaVuSans-48"/>
       <use x="190.869141" xlink:href="#DejaVuSans-46"/>
       <use x="222.65625" xlink:href="#DejaVuSans-48"/>
      </g>
     </g>
    </g>
    <g id="xtick_8">
     <g id="line2d_8">
      <g>
       <use style="stroke:#000000;stroke-width:0.8;" x="336.4451" xlink:href="#m977baf3270" y="307.584"/>
      </g>
     </g>
     <g id="text_8">
      <!-- 800.0 -->
      <defs>
       <path d="M 31.78125 34.625 
Q 24.75 34.625 20.71875 30.859375 
Q 16.703125 27.09375 16.703125 20.515625 
Q 16.703125 13.921875 20.71875 10.15625 
Q 24.75 6.390625 31.78125 6.390625 
Q 38.8125 6.390625 42.859375 10.171875 
Q 46.921875 13.96875 46.921875 20.515625 
Q 46.921875 27.09375 42.890625 30.859375 
Q 38.875 34.625 31.78125 34.625 
z
M 21.921875 38.8125 
Q 15.578125 40.375 12.03125 44.71875 
Q 8.5 49.078125 8.5 55.328125 
Q 8.5 64.0625 14.71875 69.140625 
Q 20.953125 74.21875 31.78125 74.21875 
Q 42.671875 74.21875 48.875 69.140625 
Q 55.078125 64.0625 55.078125 55.328125 
Q 55.078125 49.078125 51.53125 44.71875 
Q 48 40.375 41.703125 38.8125 
Q 48.828125 37.15625 52.796875 32.3125 
Q 56.78125 27.484375 56.78125 20.515625 
Q 56.78125 9.90625 50.3125 4.234375 
Q 43.84375 -1.421875 31.78125 -1.421875 
Q 19.734375 -1.421875 13.25 4.234375 
Q 6.78125 9.90625 6.78125 20.515625 
Q 6.78125 27.484375 10.78125 32.3125 
Q 14.796875 37.15625 21.921875 38.8125 
z
M 18.3125 54.390625 
Q 18.3125 48.734375 21.84375 45.5625 
Q 25.390625 42.390625 31.78125 42.390625 
Q 38.140625 42.390625 41.71875 45.5625 
Q 45.3125 48.734375 45.3125 54.390625 
Q 45.3125 60.0625 41.71875 63.234375 
Q 38.140625 66.40625 31.78125 66.40625 
Q 25.390625 66.40625 21.84375 63.234375 
Q 18.3125 60.0625 18.3125 54.390625 
z
" id="DejaVuSans-56"/>
      </defs>
      <g transform="translate(322.131037 322.182437)scale(0.1 -0.1)">
       <use xlink:href="#DejaVuSans-56"/>
       <use x="63.623047" xlink:href="#DejaVuSans-48"/>
       <use x="127.246094" xlink:href="#DejaVuSans-48"/>
       <use x="190.869141" xlink:href="#DejaVuSans-46"/>
       <use x="222.65625" xlink:href="#DejaVuSans-48"/>
      </g>
     </g>
    </g>
    <g id="xtick_9">
     <g id="line2d_9">
      <g>
       <use style="stroke:#000000;stroke-width:0.8;" x="369.271646" xlink:href="#m977baf3270" y="307.584"/>
      </g>
     </g>
     <g id="text_9">
      <!-- 900.0 -->
      <defs>
       <path d="M 10.984375 1.515625 
L 10.984375 10.5 
Q 14.703125 8.734375 18.5 7.8125 
Q 22.3125 6.890625 25.984375 6.890625 
Q 35.75 6.890625 40.890625 13.453125 
Q 46.046875 20.015625 46.78125 33.40625 
Q 43.953125 29.203125 39.59375 26.953125 
Q 35.25 24.703125 29.984375 24.703125 
Q 19.046875 24.703125 12.671875 31.3125 
Q 6.296875 37.9375 6.296875 49.421875 
Q 6.296875 60.640625 12.9375 67.421875 
Q 19.578125 74.21875 30.609375 74.21875 
Q 43.265625 74.21875 49.921875 64.515625 
Q 56.59375 54.828125 56.59375 36.375 
Q 56.59375 19.140625 48.40625 8.859375 
Q 40.234375 -1.421875 26.421875 -1.421875 
Q 22.703125 -1.421875 18.890625 -0.6875 
Q 15.09375 0.046875 10.984375 1.515625 
z
M 30.609375 32.421875 
Q 37.25 32.421875 41.125 36.953125 
Q 45.015625 41.5 45.015625 49.421875 
Q 45.015625 57.28125 41.125 61.84375 
Q 37.25 66.40625 30.609375 66.40625 
Q 23.96875 66.40625 20.09375 61.84375 
Q 16.21875 57.28125 16.21875 49.421875 
Q 16.21875 41.5 20.09375 36.953125 
Q 23.96875 32.421875 30.609375 32.421875 
z
" id="DejaVuSans-57"/>
      </defs>
      <g transform="translate(354.957584 322.182437)scale(0.1 -0.1)">
       <use xlink:href="#DejaVuSans-57"/>
       <use x="63.623047" xlink:href="#DejaVuSans-48"/>
       <use x="127.246094" xlink:href="#DejaVuSans-48"/>
       <use x="190.869141" xlink:href="#DejaVuSans-46"/>
       <use x="222.65625" xlink:href="#DejaVuSans-48"/>
      </g>
     </g>
    </g>
    <g id="xtick_10">
     <g id="line2d_10">
      <g>
       <use style="stroke:#000000;stroke-width:0.8;" x="402.098193" xlink:href="#m977baf3270" y="307.584"/>
      </g>
     </g>
     <g id="text_10">
      <!-- 1000.0 -->
      <g transform="translate(384.60288 322.182437)scale(0.1 -0.1)">
       <use xlink:href="#DejaVuSans-49"/>
       <use x="63.623047" xlink:href="#DejaVuSans-48"/>
       <use x="127.246094" xlink:href="#DejaVuSans-48"/>
       <use x="190.869141" xlink:href="#DejaVuSans-48"/>
       <use x="254.492188" xlink:href="#DejaVuSans-46"/>
       <use x="286.279297" xlink:href="#DejaVuSans-48"/>
      </g>
     </g>
    </g>
    <g id="text_11">
     <!-- n -->
     <defs>
      <path d="M 54.890625 33.015625 
L 54.890625 0 
L 45.90625 0 
L 45.90625 32.71875 
Q 45.90625 40.484375 42.875 44.328125 
Q 39.84375 48.1875 33.796875 48.1875 
Q 26.515625 48.1875 22.3125 43.546875 
Q 18.109375 38.921875 18.109375 30.90625 
L 18.109375 0 
L 9.078125 0 
L 9.078125 54.6875 
L 18.109375 54.6875 
L 18.109375 46.1875 
Q 21.34375 51.125 25.703125 53.5625 
Q 30.078125 56 35.796875 56 
Q 45.21875 56 50.046875 50.171875 
Q 54.890625 44.34375 54.890625 33.015625 
z
" id="DejaVuSans-110"/>
     </defs>
     <g transform="translate(232.99125 335.860562)scale(0.1 -0.1)">
      <use xlink:href="#DejaVuSans-110"/>
     </g>
    </g>
   </g>
   <g id="matplotlib.axis_2">
    <g id="ytick_1">
     <g id="line2d_11">
      <defs>
       <path d="M 0 0 
L -3.5 0 
" id="m330b0f05e5" style="stroke:#000000;stroke-width:0.8;"/>
      </defs>
      <g>
       <use style="stroke:#000000;stroke-width:0.8;" x="57.6" xlink:href="#m330b0f05e5" y="290.640387"/>
      </g>
     </g>
     <g id="text_12">
      <!-- 200 -->
      <g transform="translate(31.5125 294.439605)scale(0.1 -0.1)">
       <use xlink:href="#DejaVuSans-50"/>
       <use x="63.623047" xlink:href="#DejaVuSans-48"/>
       <use x="127.246094" xlink:href="#DejaVuSans-48"/>
      </g>
     </g>
    </g>
    <g id="ytick_2">
     <g id="line2d_12">
      <g>
       <use style="stroke:#000000;stroke-width:0.8;" x="57.6" xlink:href="#m330b0f05e5" y="238.411701"/>
      </g>
     </g>
     <g id="text_13">
      <!-- 400 -->
      <g transform="translate(31.5125 242.210919)scale(0.1 -0.1)">
       <use xlink:href="#DejaVuSans-52"/>
       <use x="63.623047" xlink:href="#DejaVuSans-48"/>
       <use x="127.246094" xlink:href="#DejaVuSans-48"/>
      </g>
     </g>
    </g>
    <g id="ytick_3">
     <g id="line2d_13">
      <g>
       <use style="stroke:#000000;stroke-width:0.8;" x="57.6" xlink:href="#m330b0f05e5" y="186.183014"/>
      </g>
     </g>
     <g id="text_14">
      <!-- 600 -->
      <g transform="translate(31.5125 189.982233)scale(0.1 -0.1)">
       <use xlink:href="#DejaVuSans-54"/>
       <use x="63.623047" xlink:href="#DejaVuSans-48"/>
       <use x="127.246094" xlink:href="#DejaVuSans-48"/>
      </g>
     </g>
    </g>
    <g id="ytick_4">
     <g id="line2d_14">
      <g>
       <use style="stroke:#000000;stroke-width:0.8;" x="57.6" xlink:href="#m330b0f05e5" y="133.954328"/>
      </g>
     </g>
     <g id="text_15">
      <!-- 800 -->
      <g transform="translate(31.5125 137.753547)scale(0.1 -0.1)">
       <use xlink:href="#DejaVuSans-56"/>
       <use x="63.623047" xlink:href="#DejaVuSans-48"/>
       <use x="127.246094" xlink:href="#DejaVuSans-48"/>
      </g>
     </g>
    </g>
    <g id="ytick_5">
     <g id="line2d_15">
      <g>
       <use style="stroke:#000000;stroke-width:0.8;" x="57.6" xlink:href="#m330b0f05e5" y="81.725642"/>
      </g>
     </g>
     <g id="text_16">
      <!-- 1000 -->
      <g transform="translate(25.15 85.524861)scale(0.1 -0.1)">
       <use xlink:href="#DejaVuSans-49"/>
       <use x="63.623047" xlink:href="#DejaVuSans-48"/>
       <use x="127.246094" xlink:href="#DejaVuSans-48"/>
       <use x="190.869141" xlink:href="#DejaVuSans-48"/>
      </g>
     </g>
    </g>
    <g id="text_17">
     <!-- speedup -->
     <defs>
      <path d="M 44.28125 53.078125 
L 44.28125 44.578125 
Q 40.484375 46.53125 36.375 47.5 
Q 32.28125 48.484375 27.875 48.484375 
Q 21.1875 48.484375 17.84375 46.4375 
Q 14.5 44.390625 14.5 40.28125 
Q 14.5 37.15625 16.890625 35.375 
Q 19.28125 33.59375 26.515625 31.984375 
L 29.59375 31.296875 
Q 39.15625 29.25 43.1875 25.515625 
Q 47.21875 21.78125 47.21875 15.09375 
Q 47.21875 7.46875 41.1875 3.015625 
Q 35.15625 -1.421875 24.609375 -1.421875 
Q 20.21875 -1.421875 15.453125 -0.5625 
Q 10.6875 0.296875 5.421875 2 
L 5.421875 11.28125 
Q 10.40625 8.6875 15.234375 7.390625 
Q 20.0625 6.109375 24.8125 6.109375 
Q 31.15625 6.109375 34.5625 8.28125 
Q 37.984375 10.453125 37.984375 14.40625 
Q 37.984375 18.0625 35.515625 20.015625 
Q 33.0625 21.96875 24.703125 23.78125 
L 21.578125 24.515625 
Q 13.234375 26.265625 9.515625 29.90625 
Q 5.8125 33.546875 5.8125 39.890625 
Q 5.8125 47.609375 11.28125 51.796875 
Q 16.75 56 26.8125 56 
Q 31.78125 56 36.171875 55.265625 
Q 40.578125 54.546875 44.28125 53.078125 
z
" id="DejaVuSans-115"/>
      <path d="M 18.109375 8.203125 
L 18.109375 -20.796875 
L 9.078125 -20.796875 
L 9.078125 54.6875 
L 18.109375 54.6875 
L 18.109375 46.390625 
Q 20.953125 51.265625 25.265625 53.625 
Q 29.59375 56 35.59375 56 
Q 45.5625 56 51.78125 48.09375 
Q 58.015625 40.1875 58.015625 27.296875 
Q 58.015625 14.40625 51.78125 6.484375 
Q 45.5625 -1.421875 35.59375 -1.421875 
Q 29.59375 -1.421875 25.265625 0.953125 
Q 20.953125 3.328125 18.109375 8.203125 
z
M 48.6875 27.296875 
Q 48.6875 37.203125 44.609375 42.84375 
Q 40.53125 48.484375 33.40625 48.484375 
Q 26.265625 48.484375 22.1875 42.84375 
Q 18.109375 37.203125 18.109375 27.296875 
Q 18.109375 17.390625 22.1875 11.75 
Q 26.265625 6.109375 33.40625 6.109375 
Q 40.53125 6.109375 44.609375 11.75 
Q 48.6875 17.390625 48.6875 27.296875 
z
" id="DejaVuSans-112"/>
      <path d="M 56.203125 29.59375 
L 56.203125 25.203125 
L 14.890625 25.203125 
Q 15.484375 15.921875 20.484375 11.0625 
Q 25.484375 6.203125 34.421875 6.203125 
Q 39.59375 6.203125 44.453125 7.46875 
Q 49.3125 8.734375 54.109375 11.28125 
L 54.109375 2.78125 
Q 49.265625 0.734375 44.1875 -0.34375 
Q 39.109375 -1.421875 33.890625 -1.421875 
Q 20.796875 -1.421875 13.15625 6.1875 
Q 5.515625 13.8125 5.515625 26.8125 
Q 5.515625 40.234375 12.765625 48.109375 
Q 20.015625 56 32.328125 56 
Q 43.359375 56 49.78125 48.890625 
Q 56.203125 41.796875 56.203125 29.59375 
z
M 47.21875 32.234375 
Q 47.125 39.59375 43.09375 43.984375 
Q 39.0625 48.390625 32.421875 48.390625 
Q 24.90625 48.390625 20.390625 44.140625 
Q 15.875 39.890625 15.1875 32.171875 
z
" id="DejaVuSans-101"/>
      <path d="M 45.40625 46.390625 
L 45.40625 75.984375 
L 54.390625 75.984375 
L 54.390625 0 
L 45.40625 0 
L 45.40625 8.203125 
Q 42.578125 3.328125 38.25 0.953125 
Q 33.9375 -1.421875 27.875 -1.421875 
Q 17.96875 -1.421875 11.734375 6.484375 
Q 5.515625 14.40625 5.515625 27.296875 
Q 5.515625 40.1875 11.734375 48.09375 
Q 17.96875 56 27.875 56 
Q 33.9375 56 38.25 53.625 
Q 42.578125 51.265625 45.40625 46.390625 
z
M 14.796875 27.296875 
Q 14.796875 17.390625 18.875 11.75 
Q 22.953125 6.109375 30.078125 6.109375 
Q 37.203125 6.109375 41.296875 11.75 
Q 45.40625 17.390625 45.40625 27.296875 
Q 45.40625 37.203125 41.296875 42.84375 
Q 37.203125 48.484375 30.078125 48.484375 
Q 22.953125 48.484375 18.875 42.84375 
Q 14.796875 37.203125 14.796875 27.296875 
z
" id="DejaVuSans-100"/>
      <path d="M 8.5 21.578125 
L 8.5 54.6875 
L 17.484375 54.6875 
L 17.484375 21.921875 
Q 17.484375 14.15625 20.5 10.265625 
Q 23.53125 6.390625 29.59375 6.390625 
Q 36.859375 6.390625 41.078125 11.03125 
Q 45.3125 15.671875 45.3125 23.6875 
L 45.3125 54.6875 
L 54.296875 54.6875 
L 54.296875 0 
L 45.3125 0 
L 45.3125 8.40625 
Q 42.046875 3.421875 37.71875 1 
Q 33.40625 -1.421875 27.6875 -1.421875 
Q 18.265625 -1.421875 13.375 4.4375 
Q 8.5 10.296875 8.5 21.578125 
z
M 31.109375 56 
z
" id="DejaVuSans-117"/>
     </defs>
     <g transform="translate(19.070312 195.977219)rotate(-90)scale(0.1 -0.1)">
      <use xlink:href="#DejaVuSans-115"/>
      <use x="52.099609" xlink:href="#DejaVuSans-112"/>
      <use x="115.576172" xlink:href="#DejaVuSans-101"/>
      <use x="177.099609" xlink:href="#DejaVuSans-101"/>
      <use x="238.623047" xlink:href="#DejaVuSans-100"/>
      <use x="302.099609" xlink:href="#DejaVuSans-117"/>
      <use x="365.478516" xlink:href="#DejaVuSans-112"/>
     </g>
    </g>
   </g>
   <g id="line2d_16">
    <path clip-path="url(#p57b8ff207c)" d="M 73.832727 253.911899 
L 74.160993 276.245787 
L 74.489258 214.183332 
L 74.817524 268.297532 
L 75.145789 215.530544 
L 75.474055 270.113094 
L 75.80232 266.486511 
L 76.130586 211.171828 
L 76.458851 204.129632 
L 76.787116 205.390285 
L 77.115382 212.007972 
L 77.443647 201.666758 
L 77.771913 142.778173 
L 78.100178 258.324675 
L 78.428444 199.935606 
L 78.756709 212.261796 
L 79.084975 217.164922 
L 79.41324 211.734497 
L 80.069771 196.105313 
L 80.398037 198.542896 
L 80.726302 207.54936 
L 81.054568 198.079559 
L 81.382833 206.254134 
L 81.711098 204.831529 
L 82.039364 204.475798 
L 82.367629 198.80677 
L 82.695895 201.749972 
L 83.02416 199.562923 
L 83.352426 201.712681 
L 84.008957 194.804073 
L 84.337222 199.950096 
L 84.665488 195.12346 
L 84.993753 187.554168 
L 85.322019 197.348868 
L 85.650284 200.284534 
L 85.978549 197.059724 
L 86.306815 196.03809 
L 86.63508 198.835607 
L 87.291611 195.130322 
L 87.619877 195.94136 
L 87.948142 201.654972 
L 88.276408 192.382017 
L 88.604673 192.076732 
L 88.932939 175.724536 
L 89.261204 176.258218 
L 89.58947 180.407211 
L 89.917735 206.87722 
L 90.246001 180.789707 
L 90.574266 175.545477 
L 90.902531 191.645094 
L 91.230797 172.26265 
L 91.559062 174.114247 
L 91.887328 187.492824 
L 92.215593 190.273577 
L 92.543859 183.396733 
L 92.872124 185.638911 
L 93.20039 180.883611 
L 93.856921 162.519348 
L 94.513452 197.569662 
L 94.841717 169.409014 
L 95.169983 170.085791 
L 95.498248 184.405326 
L 96.483044 165.741836 
L 96.81131 182.361035 
L 97.139575 160.763184 
L 97.467841 161.991629 
L 97.796106 176.166428 
L 98.124372 177.164022 
L 98.452637 159.249792 
L 98.780903 158.778631 
L 99.437434 179.32468 
L 99.765699 163.189579 
L 100.093965 179.865225 
L 100.42223 170.094733 
L 100.750495 179.599328 
L 101.078761 172.40262 
L 101.407026 167.732488 
L 101.735292 167.867562 
L 102.063557 165.12125 
L 102.391823 169.786537 
L 102.720088 190.109429 
L 103.048354 163.471374 
L 103.376619 190.290857 
L 103.704885 194.81469 
L 104.03315 163.42772 
L 104.361416 166.950207 
L 104.689681 160.051749 
L 105.017947 177.198689 
L 105.346212 152.064177 
L 105.674477 166.937161 
L 106.002743 162.397447 
L 106.331008 190.066821 
L 106.659274 149.45633 
L 106.987539 169.542628 
L 107.64407 147.503945 
L 107.972336 160.823459 
L 108.300601 167.691268 
L 108.957132 127.785343 
L 109.285398 167.201454 
L 109.613663 164.680569 
L 109.941928 155.092235 
L 110.270194 164.198573 
L 110.598459 169.925338 
L 110.926725 160.235163 
L 111.25499 157.883793 
L 111.583256 164.967869 
L 111.911521 187.088006 
L 112.239787 162.120119 
L 112.568052 154.114456 
L 112.896318 160.17275 
L 113.224583 173.806035 
L 113.552849 162.15134 
L 113.881114 164.726952 
L 114.537645 157.243751 
L 114.86591 152.445358 
L 115.194176 154.29216 
L 115.522441 144.166033 
L 115.850707 142.473302 
L 116.178972 151.44077 
L 116.507238 144.333911 
L 116.835503 223.538254 
L 117.163769 150.118681 
L 117.492034 153.141318 
L 117.8203 142.250034 
L 118.148565 140.143853 
L 118.476831 147.753426 
L 118.805096 117.042613 
L 119.133362 155.621817 
L 119.461627 149.469913 
L 119.789892 152.121934 
L 120.118158 153.568506 
L 120.446423 140.698039 
L 120.774689 159.972578 
L 121.102954 154.512795 
L 121.43122 139.552916 
L 121.759485 146.814026 
L 122.087751 137.693713 
L 122.416016 160.725266 
L 122.744282 152.078628 
L 123.072547 155.504156 
L 123.400813 119.299026 
L 124.057344 230.067435 
L 124.713874 144.036865 
L 125.04214 140.011326 
L 125.370405 145.361472 
L 125.698671 134.787345 
L 126.026936 150.838778 
L 126.355202 154.294963 
L 126.683467 163.161467 
L 127.011733 139.522985 
L 127.339998 149.232095 
L 127.668264 143.110486 
L 127.996529 130.48239 
L 128.65306 186.989363 
L 128.981325 144.184097 
L 129.309591 148.124306 
L 129.637856 145.047047 
L 129.966122 150.583911 
L 130.294387 142.34212 
L 130.622653 144.389638 
L 130.950918 197.612721 
L 131.279184 142.634317 
L 131.607449 134.410128 
L 131.935715 135.515607 
L 132.26398 137.36295 
L 132.592246 137.454505 
L 132.920511 143.499527 
L 133.248777 134.538515 
L 133.577042 178.439655 
L 133.905307 145.85928 
L 134.233573 143.288264 
L 134.561838 149.213129 
L 135.218369 132.910215 
L 135.546635 139.276931 
L 135.8749 141.999833 
L 136.203166 138.795522 
L 136.531431 131.743863 
L 137.187962 152.963074 
L 137.516228 158.421446 
L 137.844493 145.203779 
L 138.172759 144.88564 
L 138.501024 143.284262 
L 138.829289 104.005296 
L 139.157555 146.978859 
L 139.48582 168.668537 
L 139.814086 145.477849 
L 140.142351 137.258874 
L 140.470617 142.740142 
L 141.127148 136.428934 
L 141.455413 138.337966 
L 141.783679 132.052226 
L 142.111944 133.522958 
L 142.44021 132.074338 
L 142.768475 141.807271 
L 143.096741 134.167195 
L 143.425006 137.583539 
L 143.753271 139.3307 
L 144.081537 131.604987 
L 144.409802 143.844211 
L 144.738068 139.934592 
L 145.066333 133.714277 
L 145.394599 131.273494 
L 145.722864 132.134823 
L 146.05113 138.951403 
L 146.379395 134.296568 
L 146.707661 146.09922 
L 147.035926 176.312955 
L 147.364192 132.306432 
L 147.692457 139.97572 
L 148.020722 138.321845 
L 148.348988 138.403081 
L 148.677253 131.077062 
L 149.005519 140.620496 
L 149.333784 138.831516 
L 149.66205 135.350791 
L 149.990315 128.57468 
L 150.318581 133.406267 
L 150.646846 136.014228 
L 150.975112 144.07915 
L 151.303377 137.088644 
L 151.631643 138.54745 
L 152.288174 142.638263 
L 152.616439 132.489924 
L 152.944704 132.218401 
L 153.601235 138.268456 
L 153.929501 139.926726 
L 154.257766 183.180902 
L 154.914297 133.051045 
L 155.242563 188.866523 
L 155.570828 135.937722 
L 155.899094 131.285264 
L 156.227359 133.06861 
L 156.555625 133.786115 
L 156.88389 137.533838 
L 157.212156 138.773163 
L 157.540421 138.625238 
L 157.868686 137.774281 
L 158.196952 130.158995 
L 158.525217 137.740135 
L 158.853483 137.232894 
L 159.181748 125.970894 
L 159.510014 133.597661 
L 159.838279 114.660164 
L 160.166545 130.528686 
L 160.49481 124.535715 
L 160.823076 133.459715 
L 161.479607 126.907386 
L 161.807872 131.679707 
L 162.136138 124.92614 
L 162.792668 131.96011 
L 163.120934 130.598091 
L 163.449199 135.253185 
L 163.777465 133.425376 
L 164.10573 125.727539 
L 164.433996 140.42416 
L 164.762261 133.385229 
L 165.090527 136.237116 
L 165.418792 134.97198 
L 165.747058 126.063134 
L 166.075323 159.664625 
L 166.403589 133.608329 
L 166.731854 132.721466 
L 167.060119 136.725467 
L 167.388385 129.38545 
L 167.71665 135.641559 
L 168.044916 132.990817 
L 168.373181 123.115738 
L 168.701447 137.027744 
L 169.357978 131.379364 
L 170.014509 134.329956 
L 170.342774 129.196536 
L 170.67104 133.385967 
L 170.999305 125.176576 
L 171.327571 131.12561 
L 171.655836 131.186414 
L 171.984101 128.706185 
L 172.312367 129.956217 
L 172.640632 132.885852 
L 172.968898 127.652088 
L 173.297163 124.418936 
L 173.625429 186.544205 
L 173.953694 133.981503 
L 174.28196 129.357095 
L 174.610225 129.722696 
L 174.938491 130.805683 
L 175.266756 129.251723 
L 175.595022 124.285376 
L 175.923287 171.602202 
L 176.251553 125.607758 
L 176.579818 139.958068 
L 176.908083 128.74003 
L 177.236349 134.277285 
L 177.564614 129.335656 
L 177.89288 143.788847 
L 178.221145 130.977919 
L 178.549411 129.092625 
L 178.877676 133.861828 
L 179.205942 125.240457 
L 179.534207 129.639221 
L 179.862473 129.009189 
L 180.190738 125.542328 
L 180.519004 159.988631 
L 180.847269 119.498656 
L 181.175535 127.826612 
L 181.5038 128.38288 
L 181.832065 124.297114 
L 182.160331 121.947092 
L 182.488596 132.165239 
L 182.816862 130.985124 
L 183.145127 134.663672 
L 183.473393 124.292768 
L 183.801658 129.829728 
L 184.129924 131.37359 
L 184.458189 185.74914 
L 184.786455 121.170666 
L 185.11472 154.845336 
L 185.442986 129.522799 
L 185.771251 130.704843 
L 186.099516 117.966707 
L 186.427782 121.309594 
L 186.756047 129.424007 
L 187.084313 131.118717 
L 187.412578 125.342643 
L 187.740844 128.196953 
L 188.069109 126.965572 
L 188.397375 127.545447 
L 188.72564 127.769631 
L 189.053906 140.385149 
L 189.382171 133.602091 
L 189.710437 124.485727 
L 190.038702 130.481269 
L 190.366968 120.625279 
L 190.695233 121.354394 
L 191.023498 132.246025 
L 191.351764 125.802124 
L 191.680029 127.868326 
L 192.008295 130.795151 
L 192.33656 126.130833 
L 192.664826 151.206089 
L 192.993091 133.188316 
L 193.321357 127.379639 
L 193.649622 137.214596 
L 193.977888 123.776909 
L 194.306153 128.286753 
L 194.634419 127.811855 
L 194.962684 129.054015 
L 195.29095 120.991086 
L 195.619215 126.807812 
L 195.94748 128.965519 
L 196.275746 125.529015 
L 196.604011 163.303263 
L 196.932277 154.98714 
L 197.260542 127.488567 
L 197.588808 119.938057 
L 197.917073 123.395449 
L 198.245339 131.754722 
L 198.573604 125.325313 
L 198.90187 130.499693 
L 199.230135 128.558072 
L 199.558401 124.511487 
L 199.886666 129.773995 
L 200.214932 128.007307 
L 200.543197 122.210229 
L 200.871462 122.990548 
L 201.199728 127.53224 
L 201.527993 128.079383 
L 201.856259 128.052049 
L 202.184524 122.902333 
L 202.51279 130.326122 
L 202.841055 122.060734 
L 203.169321 127.840624 
L 203.497586 124.175433 
L 203.825852 123.216738 
L 204.154117 130.47826 
L 204.482383 122.833005 
L 204.810648 136.365041 
L 205.138914 127.621703 
L 205.467179 148.500239 
L 205.795444 121.154103 
L 206.12371 127.994317 
L 206.451975 125.976082 
L 206.780241 125.666533 
L 207.108506 134.378115 
L 207.765037 122.153224 
L 208.093303 121.673227 
L 208.421568 153.16042 
L 208.749834 111.926118 
L 209.078099 125.562354 
L 209.406365 129.600142 
L 209.73463 126.470658 
L 210.062895 125.035032 
L 210.391161 120.241916 
L 210.719426 123.43578 
L 211.047692 125.258655 
L 211.375957 148.827607 
L 211.704223 121.998158 
L 212.032488 124.105254 
L 212.360754 154.650714 
L 212.689019 123.474278 
L 213.017285 128.976852 
L 213.34555 126.634656 
L 213.673816 121.525458 
L 214.002081 120.124515 
L 214.330347 127.76377 
L 214.658612 126.690329 
L 214.986877 126.734518 
L 215.315143 126.615908 
L 215.643408 127.823145 
L 215.971674 133.679692 
L 216.299939 128.005326 
L 216.628205 120.012651 
L 216.95647 122.517825 
L 217.284736 127.634192 
L 217.613001 156.348372 
L 217.941267 153.451511 
L 218.269532 120.487527 
L 218.597798 126.716505 
L 218.926063 121.87834 
L 219.254329 121.445673 
L 219.582594 121.750698 
L 219.910859 122.793852 
L 220.56739 118.19812 
L 220.895656 131.102245 
L 221.223921 119.434788 
L 221.552187 128.196785 
L 221.880452 124.075679 
L 222.208718 149.279705 
L 222.536983 121.84903 
L 222.865249 118.775608 
L 223.193514 130.635605 
L 223.52178 125.2386 
L 223.850045 127.277147 
L 224.506576 118.310113 
L 224.834841 122.025699 
L 225.163107 128.210082 
L 225.491372 122.410157 
L 225.819638 121.582397 
L 226.147903 125.122252 
L 226.476169 125.667713 
L 226.804434 115.957609 
L 227.1327 123.144996 
L 227.460965 122.911532 
L 227.789231 118.979079 
L 228.117496 132.190375 
L 228.445762 139.720694 
L 228.774027 126.386721 
L 229.102292 126.598408 
L 229.430558 118.995647 
L 229.758823 119.694321 
L 230.087089 122.456642 
L 230.415354 117.496537 
L 230.74362 143.268095 
L 231.071885 119.635633 
L 231.400151 143.498669 
L 231.728416 124.165446 
L 232.056682 123.255492 
L 232.384947 134.010578 
L 232.713213 118.056139 
L 233.041478 122.381395 
L 233.369744 117.871699 
L 233.698009 134.996634 
L 234.35454 115.190077 
L 234.682805 124.896222 
L 235.011071 145.825305 
L 235.339336 117.371294 
L 235.667602 120.257102 
L 235.995867 119.756892 
L 236.324133 111.66863 
L 236.652398 119.798956 
L 236.980664 162.174877 
L 237.308929 121.687761 
L 237.637195 123.122042 
L 238.293726 120.409987 
L 238.621991 139.943232 
L 238.950256 116.289463 
L 239.278522 112.885872 
L 239.606787 121.08471 
L 239.935053 122.258579 
L 240.263318 121.722294 
L 240.591584 119.829265 
L 240.919849 125.17612 
L 241.248115 125.875122 
L 241.57638 121.192268 
L 241.904646 147.475657 
L 242.232911 119.98649 
L 242.561177 120.627522 
L 242.889442 122.286274 
L 243.217708 117.586786 
L 243.545973 119.524175 
L 243.874238 120.143555 
L 244.202504 114.943465 
L 244.530769 114.17077 
L 244.859035 118.928898 
L 245.1873 115.49218 
L 245.515566 119.466927 
L 245.843831 120.804392 
L 246.172097 119.564953 
L 246.500362 114.625415 
L 246.828628 116.554311 
L 247.156893 122.229388 
L 247.485159 121.405903 
L 248.141689 118.838939 
L 248.469955 115.75706 
L 248.79822 118.49654 
L 249.126486 125.853064 
L 249.454751 118.675477 
L 249.783017 123.567381 
L 250.111282 126.559473 
L 250.439548 119.019659 
L 250.767813 119.917661 
L 251.096079 118.222176 
L 251.424344 134.953112 
L 251.75261 113.689989 
L 252.080875 121.901964 
L 252.409141 123.216703 
L 253.393937 116.401942 
L 253.722202 119.18081 
L 254.050468 116.606081 
L 254.378733 115.389812 
L 254.706999 114.843836 
L 255.035264 120.853945 
L 255.36353 123.39817 
L 255.691795 113.874772 
L 256.020061 120.022514 
L 256.348326 121.687371 
L 256.676592 119.141856 
L 257.004857 118.361774 
L 257.333123 128.407274 
L 257.661388 119.526253 
L 257.989653 120.804418 
L 258.646184 110.292675 
L 258.97445 123.486351 
L 259.302715 120.207541 
L 259.630981 118.562152 
L 259.959246 114.99934 
L 260.615777 120.764211 
L 260.944043 105.607492 
L 261.272308 117.326198 
L 261.600574 119.321407 
L 261.928839 117.83521 
L 262.257105 118.221978 
L 262.58537 111.15869 
L 262.913635 113.263736 
L 263.241901 116.963155 
L 263.570166 109.853045 
L 263.898432 146.202304 
L 264.226697 115.329193 
L 264.554963 114.871025 
L 264.883228 122.638488 
L 265.211494 148.240894 
L 265.539759 116.004045 
L 265.868025 118.144642 
L 266.19629 116.34865 
L 266.524556 115.595651 
L 266.852821 140.565321 
L 267.181086 123.819797 
L 267.509352 116.828241 
L 267.837617 118.829994 
L 268.165883 117.867927 
L 268.494148 140.063674 
L 268.822414 116.975358 
L 269.150679 116.773759 
L 269.478945 125.079915 
L 269.80721 117.083463 
L 270.135476 118.137762 
L 270.463741 117.983465 
L 270.792007 119.406355 
L 271.120272 122.789861 
L 271.448538 110.364912 
L 271.776803 138.272223 
L 272.105068 115.816551 
L 272.433334 136.585012 
L 272.761599 119.892645 
L 273.089865 118.464723 
L 273.41813 115.693561 
L 273.746396 119.594253 
L 274.074661 117.017054 
L 274.402927 121.216271 
L 274.731192 118.056722 
L 275.059458 119.703979 
L 275.387723 113.31934 
L 275.715989 113.092339 
L 276.044254 116.781674 
L 276.37252 163.214917 
L 276.700785 113.123373 
L 277.02905 116.241923 
L 277.357316 116.462361 
L 277.685581 117.000748 
L 278.013847 114.638152 
L 278.342112 116.042738 
L 278.670378 111.39878 
L 278.998643 114.720672 
L 279.326909 110.897933 
L 279.655174 111.226573 
L 279.98344 133.504077 
L 280.311705 139.845618 
L 280.639971 114.060035 
L 280.968236 111.368648 
L 281.296502 114.092083 
L 281.624767 121.734451 
L 281.953032 121.217295 
L 282.281298 112.387985 
L 282.609563 120.477948 
L 282.937829 117.537768 
L 283.266094 134.845974 
L 283.59436 115.032429 
L 283.922625 112.804375 
L 284.250891 118.410358 
L 284.579156 114.116815 
L 284.907422 114.407567 
L 285.235687 114.976583 
L 285.563953 118.295927 
L 285.892218 112.0741 
L 286.220484 114.504469 
L 286.548749 115.121762 
L 286.877014 114.568284 
L 287.20528 112.074035 
L 287.533545 114.685918 
L 287.861811 115.411254 
L 288.190076 114.201742 
L 288.518342 114.084813 
L 289.174873 112.493617 
L 289.503138 113.832848 
L 289.831404 126.541864 
L 290.159669 110.276226 
L 290.487935 115.494107 
L 291.144465 110.850818 
L 291.472731 115.786229 
L 291.800996 117.699869 
L 292.129262 118.173388 
L 292.457527 112.564887 
L 292.785793 112.96503 
L 293.114058 114.802428 
L 293.442324 113.11782 
L 293.770589 112.381077 
L 294.098855 112.843248 
L 294.42712 115.699222 
L 294.755386 157.45171 
L 295.083651 121.30864 
L 295.411917 110.114497 
L 296.068447 114.892422 
L 296.396713 109.324261 
L 296.724978 114.742547 
L 297.053244 116.644413 
L 297.381509 120.873011 
L 297.709775 140.54914 
L 298.03804 113.890156 
L 298.366306 114.64351 
L 298.694571 114.830334 
L 299.022837 112.542954 
L 299.351102 114.176966 
L 299.679368 114.200768 
L 300.007633 127.2222 
L 300.335899 129.2284 
L 300.664164 115.08961 
L 300.992429 114.748585 
L 301.320695 117.271389 
L 301.64896 114.452897 
L 301.977226 119.379629 
L 302.305491 114.655439 
L 302.633757 130.640529 
L 302.962022 110.626403 
L 303.290288 110.124176 
L 303.618553 119.496501 
L 303.946819 114.510324 
L 304.275084 142.117928 
L 304.60335 111.08636 
L 304.931615 118.074877 
L 305.259881 115.111406 
L 305.588146 115.22161 
L 305.916411 112.345456 
L 306.244677 131.343815 
L 306.901208 110.673589 
L 307.229473 117.207848 
L 307.557739 112.157322 
L 307.886004 134.50692 
L 308.21427 122.122977 
L 308.542535 119.442593 
L 308.870801 112.966573 
L 309.199066 118.964795 
L 309.527332 113.695121 
L 309.855597 133.675174 
L 310.183862 115.689483 
L 310.512128 111.789598 
L 310.840393 115.891189 
L 311.168659 112.152403 
L 311.496924 149.784953 
L 311.82519 114.034612 
L 312.153455 111.069656 
L 312.481721 114.327765 
L 312.809986 113.769078 
L 313.138252 115.095243 
L 313.466517 112.267419 
L 313.794783 111.170826 
L 314.123048 111.222751 
L 314.451314 127.303199 
L 314.779579 115.13059 
L 315.107844 113.927382 
L 315.764375 114.342001 
L 316.092641 136.872288 
L 316.420906 115.136492 
L 316.749172 113.502607 
L 317.077437 114.866513 
L 317.405703 111.544119 
L 317.733968 113.19549 
L 318.062234 112.037323 
L 318.390499 115.27489 
L 318.718765 110.826818 
L 319.04703 114.013765 
L 319.375296 115.357913 
L 319.703561 117.838455 
L 320.031826 117.612744 
L 320.360092 119.049065 
L 320.688357 119.560791 
L 321.016623 116.984398 
L 321.344888 117.613024 
L 321.673154 119.451989 
L 322.001419 116.429007 
L 322.329685 115.331924 
L 322.65795 112.591146 
L 322.986216 144.896496 
L 323.314481 136.748969 
L 323.642747 115.835295 
L 323.971012 111.529356 
L 324.299278 127.686737 
L 324.627543 116.437683 
L 324.955808 123.129067 
L 325.612339 107.329699 
L 326.26887 120.165741 
L 326.597136 114.576615 
L 326.925401 114.647823 
L 327.581932 118.762712 
L 327.910198 108.4172 
L 328.238463 117.28673 
L 328.566729 112.985214 
L 328.894994 116.200027 
L 329.223259 115.157274 
L 329.551525 117.182723 
L 329.87979 93.720785 
L 330.208056 150.266024 
L 330.536321 116.932226 
L 330.864587 118.283708 
L 331.192852 124.699311 
L 331.521118 134.438357 
L 331.849383 118.674107 
L 332.177649 114.025366 
L 332.505914 114.456455 
L 332.83418 114.399902 
L 333.162445 118.279251 
L 333.490711 110.835574 
L 333.818976 120.015094 
L 334.475507 111.188583 
L 334.803772 114.579259 
L 335.132038 129.921976 
L 335.460303 114.443497 
L 335.788569 122.115694 
L 336.116834 133.756489 
L 336.4451 119.276274 
L 336.773365 117.972891 
L 337.101631 114.982076 
L 337.429896 113.618702 
L 337.758162 90.199528 
L 338.086427 124.302527 
L 338.414693 122.716446 
L 338.742958 119.904085 
L 339.071223 124.603034 
L 339.399489 118.749553 
L 339.727754 121.109032 
L 340.05602 116.904159 
L 340.384285 120.36632 
L 340.712551 118.088598 
L 341.040816 117.6347 
L 341.369082 113.303508 
L 341.697347 119.218789 
L 342.025613 115.434523 
L 342.353878 120.45674 
L 342.682144 113.928015 
L 343.010409 116.532173 
L 343.338675 117.467871 
L 343.66694 117.786617 
L 343.995205 115.388876 
L 344.323471 111.170938 
L 344.651736 112.715101 
L 344.980002 115.536726 
L 345.308267 111.240689 
L 345.636533 129.899373 
L 345.964798 115.209915 
L 346.293064 138.759376 
L 346.621329 118.193521 
L 346.949595 111.310138 
L 347.27786 113.476813 
L 347.606126 124.801514 
L 347.934391 129.834173 
L 348.262656 115.827526 
L 348.590922 120.243352 
L 348.919187 118.454548 
L 349.247453 113.92965 
L 349.575718 117.843733 
L 350.560515 110.592665 
L 350.88878 119.486789 
L 351.217046 123.079819 
L 351.545311 114.571064 
L 351.873577 114.372485 
L 352.201842 118.235012 
L 352.530108 117.773568 
L 352.858373 116.425573 
L 353.186638 116.806914 
L 353.514904 121.829973 
L 353.843169 123.664445 
L 354.171435 115.26486 
L 354.4997 119.165041 
L 354.827966 120.220703 
L 355.156231 122.413206 
L 355.484497 126.808737 
L 355.812762 122.767023 
L 356.141028 117.144519 
L 356.469293 114.039604 
L 356.797559 53.568 
L 357.125824 117.966042 
L 357.45409 110.952411 
L 357.782355 112.664856 
L 358.11062 115.72054 
L 358.438886 96.70761 
L 358.767151 116.940709 
L 359.095417 128.479199 
L 359.423682 116.442297 
L 359.751948 116.766106 
L 360.080213 120.317553 
L 360.408479 118.206353 
L 360.736744 118.751572 
L 361.06501 113.345197 
L 361.393275 120.884828 
L 362.049806 113.175349 
L 362.378072 113.623923 
L 362.706337 118.356693 
L 363.034602 118.880534 
L 363.362868 112.551424 
L 363.691133 118.752932 
L 364.019399 118.423949 
L 364.347664 115.881121 
L 364.67593 117.358175 
L 365.004195 119.881929 
L 365.332461 123.996381 
L 365.660726 122.29268 
L 365.988992 110.757894 
L 366.317257 160.569776 
L 366.645523 77.263787 
L 366.973788 112.940655 
L 367.302053 116.123487 
L 367.630319 83.635719 
L 367.958584 132.202789 
L 368.28685 113.4359 
L 368.615115 106.503467 
L 368.943381 118.182865 
L 369.271646 115.048595 
L 369.599912 96.164033 
L 369.928177 157.112176 
L 370.256443 110.156282 
L 370.584708 121.045969 
L 370.912974 121.901236 
L 371.241239 117.458679 
L 371.569505 97.528482 
L 371.89777 120.506166 
L 372.226035 112.310819 
L 372.554301 152.881915 
L 372.882566 141.179843 
L 373.210832 119.809126 
L 373.539097 131.624998 
L 373.867363 121.868525 
L 374.195628 116.532585 
L 374.523894 120.210498 
L 375.180425 113.470536 
L 375.50869 118.671488 
L 376.165221 121.132401 
L 376.493487 113.93868 
L 376.821752 86.887079 
L 377.150017 117.7512 
L 377.478283 118.11409 
L 377.806548 103.756533 
L 378.134814 117.794867 
L 378.463079 116.382509 
L 378.791345 104.669756 
L 379.11961 119.721188 
L 379.447876 117.416777 
L 379.776141 116.775631 
L 380.104407 117.284853 
L 380.432672 112.71574 
L 380.760938 112.701317 
L 381.089203 118.438629 
L 381.417469 114.688333 
L 381.745734 112.924595 
L 382.073999 111.959097 
L 382.402265 115.684722 
L 382.73053 91.075144 
L 383.058796 115.050066 
L 383.387061 93.368633 
L 383.715327 170.297384 
L 384.043592 116.883632 
L 384.371858 120.158358 
L 384.700123 116.176958 
L 385.028389 117.415548 
L 385.356654 119.477839 
L 386.013185 113.838969 
L 386.341451 113.81713 
L 386.669716 114.602651 
L 386.997981 112.188696 
L 387.326247 114.386776 
L 387.654512 113.858978 
L 387.982778 113.854854 
L 388.311043 110.753247 
L 388.639309 114.055119 
L 388.967574 116.062189 
L 389.29584 115.134607 
L 389.624105 119.97214 
L 389.952371 112.331203 
L 390.280636 112.040795 
L 390.608902 116.185379 
L 390.937167 112.384721 
L 391.593698 111.489446 
L 391.921963 127.4581 
L 392.250229 132.852324 
L 392.578494 84.120749 
L 392.90676 119.58913 
L 393.563291 116.903698 
L 393.891556 72.48036 
L 394.219822 120.873544 
L 394.548087 119.099353 
L 394.876353 120.624345 
L 395.532884 106.783922 
L 395.861149 122.266854 
L 396.189414 122.839486 
L 396.51768 114.794546 
L 396.845945 117.465498 
L 397.502476 116.535618 
L 397.830742 115.19859 
L 398.487273 125.447789 
L 398.487273 125.447789 
" style="fill:none;stroke:#1f77b4;stroke-linecap:square;stroke-width:1.5;"/>
   </g>
   <g id="line2d_17">
    <path clip-path="url(#p57b8ff207c)" d="M 73.832727 255.073646 
L 74.160993 227.026459 
L 74.489258 249.98235 
L 74.817524 247.831251 
L 75.145789 252.561056 
L 75.474055 295.488 
L 75.80232 247.059613 
L 76.130586 246.650548 
L 76.458851 280.096649 
L 77.115382 237.73806 
L 77.443647 255.256441 
L 77.771913 252.156751 
L 78.100178 244.892833 
L 78.428444 257.109935 
L 78.756709 261.44055 
L 79.084975 288.722039 
L 79.41324 265.585078 
L 79.741506 257.261264 
L 80.069771 261.825449 
L 80.398037 254.554328 
L 80.726302 285.701962 
L 81.054568 252.934017 
L 81.382833 252.470195 
L 81.711098 274.976967 
L 82.039364 258.399389 
L 82.367629 257.102753 
L 82.695895 247.976504 
L 83.02416 259.139673 
L 83.352426 256.26987 
L 83.680691 258.790088 
L 84.008957 257.582328 
L 84.337222 264.68444 
L 84.665488 258.154556 
L 84.993753 261.630279 
L 85.322019 256.011665 
L 85.650284 268.050479 
L 85.978549 256.273447 
L 86.306815 253.031266 
L 86.63508 255.280497 
L 86.963346 272.49042 
L 87.291611 254.185806 
L 87.619877 254.279651 
L 87.948142 259.68189 
L 88.276408 262.43406 
L 88.604673 261.167496 
L 88.932939 258.281438 
L 89.261204 261.770543 
L 89.58947 256.62345 
L 89.917735 258.339949 
L 90.246001 254.075918 
L 90.574266 261.015941 
L 90.902531 264.615824 
L 91.230797 263.521042 
L 91.559062 260.820854 
L 91.887328 265.78856 
L 92.215593 246.062503 
L 92.543859 261.207104 
L 92.872124 265.357415 
L 93.20039 263.013018 
L 93.528655 252.819406 
L 93.856921 253.439089 
L 94.185186 268.244024 
L 94.513452 256.041718 
L 94.841717 262.839195 
L 95.169983 266.854703 
L 95.498248 259.529917 
L 95.826513 258.301533 
L 96.154779 268.170704 
L 96.483044 263.587217 
L 96.81131 251.841246 
L 97.139575 265.286232 
L 97.467841 284.391228 
L 97.796106 257.199287 
L 98.124372 251.21685 
L 98.780903 259.15712 
L 99.109168 250.366381 
L 99.437434 248.634174 
L 100.093965 251.100807 
L 100.42223 254.92979 
L 100.750495 269.383023 
L 101.078761 256.709861 
L 101.407026 250.909899 
L 101.735292 249.438323 
L 102.063557 258.17468 
L 102.391823 283.607131 
L 102.720088 249.012098 
L 103.048354 250.775947 
L 103.376619 257.151529 
L 103.704885 254.043982 
L 104.03315 244.728411 
L 104.689681 256.098846 
L 105.017947 284.447102 
L 105.346212 261.82708 
L 105.674477 262.575494 
L 106.002743 249.813699 
L 106.331008 262.735906 
L 106.659274 252.453013 
L 106.987539 258.940694 
L 107.315805 253.196354 
L 107.64407 269.106032 
L 107.972336 251.154708 
L 108.300601 264.49629 
L 108.628867 262.781299 
L 108.957132 256.309961 
L 109.285398 252.23182 
L 109.613663 261.563003 
L 109.941928 256.358346 
L 110.270194 256.328615 
L 110.598459 287.322614 
L 110.926725 262.977193 
L 111.25499 256.008428 
L 111.583256 269.229676 
L 111.911521 249.033163 
L 112.239787 271.925902 
L 112.568052 267.764094 
L 112.896318 255.283047 
L 113.224583 254.103751 
L 113.552849 257.901731 
L 113.881114 254.689696 
L 114.20938 254.473526 
L 114.537645 253.532494 
L 114.86591 262.990948 
L 115.194176 253.070475 
L 115.522441 261.509875 
L 115.850707 248.497616 
L 116.178972 253.530341 
L 116.507238 248.185196 
L 117.163769 262.709901 
L 117.492034 251.178693 
L 117.8203 255.858462 
L 118.148565 254.86836 
L 118.476831 250.729308 
L 118.805096 258.689091 
L 119.133362 249.096128 
L 119.461627 260.891587 
L 119.789892 254.799659 
L 120.118158 275.10219 
L 120.446423 256.478011 
L 120.774689 263.474198 
L 121.102954 254.527405 
L 121.43122 274.103283 
L 121.759485 260.775586 
L 122.087751 260.13407 
L 122.416016 252.006473 
L 122.744282 257.254795 
L 123.072547 256.90833 
L 123.400813 256.361082 
L 123.729078 258.181447 
L 124.057344 252.440471 
L 124.385609 262.547224 
L 124.713874 262.661631 
L 125.04214 264.953777 
L 125.370405 255.142846 
L 125.698671 262.601589 
L 126.026936 251.151507 
L 126.355202 256.775751 
L 126.683467 255.832985 
L 127.011733 253.588453 
L 127.339998 259.912042 
L 127.668264 257.530812 
L 127.996529 261.60311 
L 128.324795 257.968472 
L 128.65306 267.634177 
L 128.981325 257.402708 
L 129.309591 253.966805 
L 129.637856 269.440275 
L 129.966122 251.05844 
L 130.294387 256.717112 
L 130.622653 252.94441 
L 130.950918 263.567469 
L 131.279184 250.838943 
L 131.607449 256.600979 
L 131.935715 253.021122 
L 132.26398 259.835508 
L 132.592246 252.956913 
L 132.920511 258.486286 
L 133.248777 253.277259 
L 133.577042 257.764697 
L 133.905307 258.715375 
L 134.233573 254.513035 
L 134.561838 255.051912 
L 134.890104 281.620809 
L 135.218369 256.640597 
L 135.546635 261.229481 
L 135.8749 257.405206 
L 136.203166 256.189543 
L 136.531431 249.738445 
L 136.859697 265.614186 
L 137.187962 257.197494 
L 137.516228 255.885147 
L 137.844493 254.074578 
L 138.172759 251.332184 
L 138.501024 249.767704 
L 138.829289 268.323745 
L 139.157555 256.435627 
L 139.48582 255.117879 
L 139.814086 256.789094 
L 140.470617 250.884001 
L 140.798882 263.663598 
L 141.127148 260.792952 
L 141.455413 261.569566 
L 141.783679 252.483162 
L 142.111944 272.709101 
L 142.44021 252.498796 
L 142.768475 280.460713 
L 143.096741 253.287196 
L 143.425006 257.181872 
L 143.753271 253.690612 
L 144.081537 256.806585 
L 144.409802 269.990503 
L 145.066333 251.40389 
L 145.394599 268.766645 
L 145.722864 253.105703 
L 146.05113 255.760626 
L 146.379395 252.782379 
L 146.707661 262.681768 
L 147.035926 253.425505 
L 147.364192 258.393331 
L 147.692457 250.319934 
L 148.020722 261.385301 
L 148.348988 259.947453 
L 148.677253 261.181111 
L 149.005519 249.836426 
L 149.333784 255.149573 
L 149.66205 257.369825 
L 149.990315 256.821864 
L 150.318581 259.460384 
L 151.303377 256.620365 
L 151.631643 260.648371 
L 151.959908 255.862132 
L 152.288174 269.968347 
L 152.616439 255.198419 
L 152.944704 259.415757 
L 153.27297 255.264894 
L 153.601235 249.156176 
L 153.929501 255.677374 
L 154.257766 257.42739 
L 154.586032 275.274907 
L 154.914297 249.821871 
L 155.242563 256.866534 
L 155.570828 250.974087 
L 155.899094 271.346223 
L 156.227359 261.058366 
L 156.88389 253.895171 
L 157.212156 256.501425 
L 157.540421 250.209421 
L 157.868686 252.133584 
L 158.525217 260.462395 
L 158.853483 257.27499 
L 159.181748 264.193058 
L 159.510014 257.198068 
L 159.838279 261.225936 
L 160.166545 251.770717 
L 160.49481 256.75424 
L 160.823076 257.470811 
L 161.151341 261.19545 
L 161.479607 260.661201 
L 161.807872 254.861219 
L 162.136138 257.282142 
L 162.464403 256.778326 
L 162.792668 252.13747 
L 163.120934 261.118956 
L 163.449199 251.974824 
L 163.777465 256.47253 
L 164.10573 250.970902 
L 164.433996 259.844776 
L 164.762261 256.816355 
L 165.090527 261.784945 
L 165.418792 250.092051 
L 165.747058 258.43106 
L 166.075323 250.115496 
L 166.403589 257.146211 
L 166.731854 252.296416 
L 167.060119 257.727439 
L 167.388385 252.515612 
L 167.71665 272.242133 
L 168.044916 255.665292 
L 168.373181 257.086658 
L 168.701447 253.698398 
L 169.029712 263.634688 
L 169.357978 249.253676 
L 169.686243 255.144549 
L 170.014509 252.29979 
L 170.342774 259.625921 
L 170.67104 252.705963 
L 170.999305 258.524037 
L 171.327571 258.240569 
L 171.655836 255.595719 
L 171.984101 250.306138 
L 172.312367 264.876682 
L 172.640632 255.280205 
L 172.968898 257.220644 
L 173.297163 254.666921 
L 173.625429 261.168456 
L 173.953694 254.395377 
L 174.28196 268.716852 
L 174.610225 252.828317 
L 174.938491 260.623289 
L 175.266756 254.785068 
L 175.595022 252.454839 
L 175.923287 254.710927 
L 176.251553 252.506604 
L 176.579818 261.448821 
L 176.908083 262.5412 
L 177.236349 261.96512 
L 177.564614 251.904204 
L 177.89288 256.959224 
L 178.221145 247.969855 
L 178.549411 259.390513 
L 178.877676 252.170257 
L 179.205942 254.809519 
L 179.534207 252.094724 
L 179.862473 253.896313 
L 180.190738 252.058177 
L 180.519004 255.400826 
L 180.847269 251.592227 
L 181.5038 269.806418 
L 181.832065 254.929853 
L 182.160331 251.875061 
L 182.488596 255.112482 
L 182.816862 253.394062 
L 183.145127 263.283687 
L 183.473393 251.777693 
L 183.801658 258.916335 
L 184.129924 250.660423 
L 184.458189 257.520493 
L 184.786455 255.28708 
L 185.11472 259.912919 
L 185.442986 254.068938 
L 185.771251 257.151484 
L 186.099516 249.120801 
L 186.427782 271.992948 
L 186.756047 254.504423 
L 187.084313 260.427027 
L 187.412578 251.915671 
L 187.740844 256.310032 
L 188.069109 250.870486 
L 188.397375 259.132622 
L 188.72564 256.091061 
L 189.053906 258.085422 
L 189.382171 250.204363 
L 189.710437 262.197323 
L 190.038702 251.042446 
L 190.366968 255.450028 
L 190.695233 256.435414 
L 191.023498 258.574853 
L 191.351764 256.028373 
L 191.680029 263.424267 
L 192.008295 257.081119 
L 192.33656 253.048713 
L 192.664826 257.588787 
L 192.993091 253.212274 
L 193.321357 257.60012 
L 193.649622 255.57016 
L 193.977888 256.855413 
L 194.306153 255.440994 
L 194.634419 255.171097 
L 194.962684 252.581402 
L 195.29095 258.16276 
L 195.94748 257.537264 
L 196.275746 261.912392 
L 196.604011 258.221196 
L 196.932277 272.868617 
L 197.260542 254.856311 
L 197.588808 250.986818 
L 197.917073 258.249974 
L 198.245339 249.641844 
L 198.573604 261.030628 
L 198.90187 248.741108 
L 199.230135 260.361277 
L 199.558401 249.559109 
L 199.886666 267.868123 
L 200.543197 257.610723 
L 200.871462 256.717763 
L 201.199728 256.89857 
L 201.527993 262.834546 
L 202.184524 249.020632 
L 202.51279 258.692531 
L 202.841055 259.615686 
L 203.169321 227.830811 
L 203.497586 228.388309 
L 203.825852 252.184846 
L 204.154117 251.03033 
L 204.482383 253.808721 
L 204.810648 249.725949 
L 205.138914 257.799468 
L 205.467179 249.295826 
L 205.795444 255.465273 
L 206.12371 246.434611 
L 206.451975 254.050952 
L 206.780241 248.116383 
L 207.108506 248.122332 
L 207.436772 255.84688 
L 207.765037 251.603889 
L 208.093303 255.37393 
L 208.421568 256.937778 
L 208.749834 255.270864 
L 209.078099 251.900838 
L 209.406365 238.598615 
L 210.062895 258.061545 
L 210.391161 250.837239 
L 210.719426 264.300633 
L 211.047692 251.562135 
L 211.375957 257.003187 
L 211.704223 253.549662 
L 212.032488 266.926653 
L 212.360754 262.530079 
L 212.689019 211.750635 
L 213.34555 256.132032 
L 213.673816 255.001654 
L 214.002081 258.858796 
L 214.330347 254.641479 
L 214.658612 256.938961 
L 214.986877 264.123729 
L 215.315143 258.755189 
L 215.643408 257.632739 
L 215.971674 257.987226 
L 216.628205 261.452818 
L 216.95647 253.836437 
L 217.284736 255.632294 
L 217.613001 254.128466 
L 217.941267 260.128745 
L 218.269532 254.144543 
L 218.597798 257.586125 
L 218.926063 255.179695 
L 219.254329 256.294375 
L 219.582594 252.223817 
L 219.910859 259.637146 
L 220.239125 255.581766 
L 220.56739 257.001659 
L 220.895656 254.015459 
L 221.223921 266.328614 
L 221.552187 256.479325 
L 221.880452 261.206537 
L 222.208718 252.285359 
L 222.536983 254.670588 
L 222.865249 255.823349 
L 223.193514 260.456686 
L 223.52178 254.386449 
L 223.850045 257.110452 
L 224.178311 258.729702 
L 224.506576 256.637894 
L 224.834841 258.501363 
L 225.163107 259.398727 
L 225.491372 253.324984 
L 225.819638 259.830864 
L 226.147903 260.039942 
L 226.476169 259.527087 
L 226.804434 256.34763 
L 227.1327 256.770156 
L 227.460965 250.853068 
L 227.789231 260.145197 
L 228.117496 257.807228 
L 228.445762 257.897777 
L 228.774027 264.550331 
L 229.102292 257.369154 
L 229.430558 256.634148 
L 229.758823 259.318337 
L 230.087089 253.743627 
L 230.415354 258.30242 
L 230.74362 258.309821 
L 231.071885 255.825364 
L 231.400151 254.613021 
L 231.728416 257.86754 
L 232.056682 256.483541 
L 232.384947 260.021032 
L 232.713213 255.739245 
L 233.041478 258.847839 
L 233.369744 253.415106 
L 233.698009 258.148245 
L 234.026274 254.140295 
L 234.35454 259.301675 
L 234.682805 257.615842 
L 235.011071 258.213565 
L 235.339336 253.04441 
L 235.667602 259.312921 
L 235.995867 256.102113 
L 236.324133 259.63333 
L 236.652398 254.314691 
L 236.980664 258.416452 
L 237.308929 254.864213 
L 237.637195 257.94727 
L 237.96546 256.742556 
L 238.293726 259.235857 
L 238.621991 256.463656 
L 238.950256 258.470201 
L 239.278522 253.275634 
L 239.606787 262.724503 
L 239.935053 252.711245 
L 240.263318 257.805215 
L 240.591584 252.923249 
L 240.919849 257.520142 
L 241.57638 255.517017 
L 241.904646 256.242405 
L 242.232911 259.000205 
L 242.561177 255.594391 
L 242.889442 261.42529 
L 243.217708 254.346151 
L 243.545973 258.670355 
L 243.874238 251.909657 
L 244.202504 258.381183 
L 244.530769 257.294697 
L 244.859035 257.159138 
L 245.1873 252.967542 
L 245.515566 259.089575 
L 245.843831 252.96773 
L 246.172097 258.635594 
L 246.500362 256.777812 
L 246.828628 257.407005 
L 247.156893 251.527446 
L 247.485159 257.343309 
L 247.813424 255.925743 
L 248.141689 259.222842 
L 248.469955 251.414498 
L 248.79822 259.983704 
L 249.126486 252.138546 
L 249.454751 259.040392 
L 249.783017 253.266874 
L 250.111282 258.522951 
L 250.439548 254.106272 
L 250.767813 257.732593 
L 251.096079 254.591798 
L 251.424344 244.082758 
L 251.75261 254.720415 
L 252.080875 259.848674 
L 252.409141 252.795486 
L 252.737406 261.785747 
L 253.065671 259.631985 
L 253.393937 258.957739 
L 253.722202 256.060779 
L 254.050468 257.316546 
L 254.378733 255.007171 
L 255.035264 261.644247 
L 255.691795 256.046614 
L 256.020061 260.828594 
L 256.348326 252.815704 
L 256.676592 257.207572 
L 257.004857 252.745656 
L 257.333123 259.977754 
L 257.661388 256.886946 
L 257.989653 261.332493 
L 258.317919 255.087077 
L 258.646184 265.383919 
L 258.97445 252.785034 
L 259.302715 259.107616 
L 259.630981 252.522963 
L 259.959246 266.486661 
L 260.287512 254.966061 
L 260.615777 258.116091 
L 260.944043 256.501796 
L 261.272308 259.21473 
L 261.600574 254.137504 
L 261.928839 257.495995 
L 262.257105 255.463441 
L 262.58537 258.274157 
L 262.913635 252.070746 
L 263.241901 257.986085 
L 263.570166 252.480549 
L 263.898432 257.873552 
L 264.226697 253.204116 
L 264.554963 258.369105 
L 264.883228 253.291417 
L 265.211494 257.686619 
L 265.539759 256.880163 
L 265.868025 258.475891 
L 266.19629 255.638052 
L 266.524556 258.33255 
L 266.852821 253.659418 
L 267.181086 257.450361 
L 267.509352 254.744979 
L 267.837617 260.493766 
L 268.165883 251.281815 
L 268.494148 257.801632 
L 268.822414 253.798479 
L 269.150679 260.441407 
L 269.478945 256.362604 
L 269.80721 261.563656 
L 270.135476 254.344355 
L 270.463741 259.079831 
L 270.792007 256.317257 
L 271.120272 259.138638 
L 271.448538 254.480994 
L 271.776803 258.808753 
L 272.105068 256.169558 
L 272.433334 260.02326 
L 272.761599 250.716888 
L 273.089865 259.051745 
L 273.41813 253.821471 
L 273.746396 257.64408 
L 274.074661 254.981289 
L 274.402927 258.801329 
L 274.731192 253.887707 
L 275.059458 258.549374 
L 275.387723 254.875422 
L 275.715989 260.230618 
L 276.044254 256.383927 
L 276.37252 259.368982 
L 276.700785 250.882352 
L 277.02905 259.611381 
L 277.357316 254.936974 
L 277.685581 258.674905 
L 278.013847 254.132292 
L 278.342112 257.193714 
L 278.670378 254.534077 
L 278.998643 259.541821 
L 279.326909 252.645334 
L 279.655174 258.521628 
L 279.98344 253.084563 
L 280.311705 257.68808 
L 280.639971 253.641728 
L 280.968236 258.507863 
L 281.296502 260.5863 
L 281.624767 257.559172 
L 281.953032 252.900608 
L 282.281298 259.758481 
L 282.609563 255.946764 
L 282.937829 258.928247 
L 283.266094 255.756687 
L 283.59436 257.894009 
L 283.922625 254.007874 
L 284.250891 256.895952 
L 284.579156 258.491725 
L 284.907422 264.492815 
L 285.235687 253.703593 
L 285.563953 259.32612 
L 285.892218 256.872245 
L 286.220484 258.945922 
L 286.548749 254.718281 
L 286.877014 258.580324 
L 287.20528 255.332192 
L 287.533545 259.630988 
L 287.861811 256.569328 
L 288.190076 261.545011 
L 288.518342 254.93519 
L 288.846607 259.461209 
L 289.174873 252.280067 
L 289.503138 258.6821 
L 289.831404 255.561055 
L 290.159669 258.666838 
L 290.487935 272.321963 
L 291.144465 253.858268 
L 291.472731 261.001579 
L 291.800996 254.796514 
L 292.129262 258.864828 
L 292.457527 254.599558 
L 292.785793 258.435569 
L 293.114058 252.85941 
L 293.442324 260.196962 
L 293.770589 254.715859 
L 294.098855 258.691782 
L 294.42712 252.448025 
L 294.755386 258.185426 
L 295.083651 254.412288 
L 295.411917 258.870715 
L 295.740182 252.843559 
L 296.068447 260.048316 
L 296.396713 253.848779 
L 296.724978 257.55587 
L 297.053244 254.22762 
L 297.381509 258.638625 
L 297.709775 252.917806 
L 298.03804 257.056679 
L 298.366306 253.782047 
L 298.694571 258.396206 
L 299.022837 254.760538 
L 299.351102 258.785354 
L 299.679368 252.325313 
L 300.007633 257.944982 
L 300.335899 254.556241 
L 300.664164 259.411021 
L 300.992429 253.735067 
L 301.320695 261.472013 
L 301.64896 260.299422 
L 301.977226 259.932672 
L 302.305491 254.754263 
L 302.633757 258.507133 
L 302.962022 253.607479 
L 303.290288 257.686976 
L 303.618553 259.241922 
L 303.946819 259.349452 
L 304.275084 254.214748 
L 304.60335 264.063609 
L 304.931615 257.429813 
L 305.259881 259.662885 
L 305.588146 252.939796 
L 305.916411 260.613787 
L 306.244677 253.986792 
L 306.572942 258.919249 
L 306.901208 256.160839 
L 307.229473 258.935651 
L 307.557739 253.928905 
L 307.886004 258.418844 
L 308.21427 254.51608 
L 308.542535 262.141529 
L 308.870801 254.823683 
L 309.199066 259.617109 
L 309.527332 257.307649 
L 309.855597 262.139793 
L 310.183862 254.526825 
L 310.512128 259.240441 
L 310.840393 253.194843 
L 311.168659 258.464058 
L 311.496924 253.738743 
L 311.82519 259.414757 
L 312.153455 254.17489 
L 312.481721 258.009096 
L 312.809986 251.668323 
L 313.138252 257.125785 
L 313.466517 255.72713 
L 313.794783 258.244203 
L 314.123048 254.252514 
L 314.451314 263.36741 
L 314.779579 255.568663 
L 315.107844 258.056209 
L 315.43611 253.583858 
L 315.764375 257.582238 
L 316.092641 253.408922 
L 316.420906 260.080306 
L 316.749172 256.10605 
L 317.077437 259.63761 
L 317.405703 254.930766 
L 317.733968 257.907274 
L 318.062234 252.978351 
L 318.390499 258.817558 
L 318.718765 252.506412 
L 319.04703 259.045789 
L 319.375296 256.93727 
L 319.703561 257.507189 
L 320.031826 254.076995 
L 320.360092 259.003846 
L 320.688357 253.144232 
L 321.016623 258.757864 
L 321.344888 254.129077 
L 321.673154 259.792213 
L 322.001419 251.892647 
L 322.329685 259.258465 
L 322.65795 254.697542 
L 322.986216 261.861445 
L 323.314481 254.166476 
L 323.642747 259.575811 
L 323.971012 253.678664 
L 324.299278 259.903085 
L 324.627543 253.702045 
L 324.955808 258.758315 
L 325.284074 260.936049 
L 325.612339 257.675461 
L 325.940605 252.359832 
L 326.26887 259.185373 
L 326.597136 256.774855 
L 326.925401 258.632818 
L 327.253667 252.350547 
L 327.581932 259.446401 
L 327.910198 258.961484 
L 328.238463 259.208172 
L 328.566729 253.443928 
L 328.894994 258.372618 
L 329.223259 252.542576 
L 329.551525 256.560034 
L 329.87979 255.300923 
L 330.208056 258.46823 
L 330.536321 254.544991 
L 330.864587 257.460713 
L 331.192852 255.44827 
L 331.521118 260.004778 
L 331.849383 254.732846 
L 332.177649 258.812853 
L 332.505914 253.161463 
L 332.83418 258.481926 
L 333.162445 255.012386 
L 333.490711 258.561206 
L 333.818976 252.970836 
L 334.147241 257.689616 
L 334.475507 253.49473 
L 334.803772 259.364744 
L 335.132038 252.984203 
L 335.460303 258.215197 
L 335.788569 254.544766 
L 336.116834 259.560518 
L 336.4451 257.31438 
L 336.773365 258.749832 
L 337.101631 254.292593 
L 337.429896 258.126542 
L 337.758162 254.704422 
L 338.086427 258.808871 
L 338.414693 252.762152 
L 338.742958 262.467458 
L 339.071223 254.27778 
L 339.399489 259.483887 
L 339.727754 255.806729 
L 340.05602 257.540503 
L 340.384285 253.670778 
L 340.712551 258.932029 
L 341.040816 254.968468 
L 341.369082 260.626041 
L 341.697347 255.503293 
L 342.025613 263.565451 
L 342.353878 253.836318 
L 342.682144 261.422275 
L 343.010409 253.549652 
L 343.338675 257.542803 
L 343.66694 266.139231 
L 344.323471 254.473294 
L 344.651736 257.649772 
L 344.980002 254.402013 
L 345.308267 258.564479 
L 345.636533 253.428702 
L 345.964798 256.141033 
L 346.293064 247.050482 
L 346.621329 259.883979 
L 346.949595 256.245959 
L 347.27786 258.942603 
L 347.606126 252.918805 
L 347.934391 263.231858 
L 348.262656 252.885165 
L 348.590922 258.272122 
L 348.919187 254.675016 
L 349.247453 259.337723 
L 349.575718 253.342435 
L 349.903984 259.652628 
L 350.232249 253.101315 
L 350.560515 256.571006 
L 350.88878 254.027793 
L 351.217046 259.160861 
L 351.545311 254.32765 
L 351.873577 260.130821 
L 352.201842 253.964897 
L 352.530108 257.987849 
L 352.858373 254.649174 
L 353.186638 257.162331 
L 353.514904 255.250281 
L 353.843169 259.909133 
L 354.4997 259.083249 
L 354.827966 261.340094 
L 355.156231 258.390711 
L 355.484497 253.567873 
L 355.812762 259.050457 
L 356.141028 252.997826 
L 356.469293 257.323823 
L 356.797559 254.069047 
L 357.125824 259.514475 
L 357.45409 254.885976 
L 357.782355 266.041954 
L 358.11062 257.852333 
L 358.438886 260.905562 
L 358.767151 258.166576 
L 359.095417 256.81223 
L 359.423682 254.186555 
L 359.751948 259.35461 
L 360.080213 254.443448 
L 360.408479 257.362945 
L 360.736744 254.778744 
L 361.06501 258.902364 
L 361.393275 253.334531 
L 361.721541 259.26843 
L 362.049806 253.605697 
L 362.378072 260.819023 
L 362.706337 253.945737 
L 363.034602 257.765749 
L 363.362868 253.036215 
L 363.691133 259.283182 
L 364.019399 251.708667 
L 364.347664 260.460317 
L 364.67593 254.500446 
L 365.004195 258.967705 
L 365.332461 254.872264 
L 365.660726 258.914682 
L 365.988992 254.257852 
L 366.317257 258.998042 
L 366.645523 252.859465 
L 366.973788 257.570087 
L 367.302053 254.573544 
L 367.630319 257.642433 
L 367.958584 253.741745 
L 368.28685 261.229008 
L 368.615115 253.333661 
L 368.943381 257.526878 
L 369.271646 253.286933 
L 369.599912 260.127723 
L 369.928177 253.803003 
L 370.256443 258.035535 
L 370.584708 253.223205 
L 370.912974 258.03738 
L 371.241239 252.783379 
L 371.569505 258.435513 
L 371.89777 254.909997 
L 372.226035 258.666351 
L 372.554301 254.241793 
L 372.882566 258.770378 
L 373.210832 255.33006 
L 373.539097 260.290394 
L 373.867363 254.269619 
L 374.195628 258.639329 
L 374.523894 253.996206 
L 374.852159 257.43687 
L 375.180425 251.881003 
L 375.50869 258.412252 
L 375.836956 255.085067 
L 376.165221 258.722745 
L 376.493487 256.634186 
L 376.821752 259.220484 
L 377.150017 254.444204 
L 377.478283 258.803425 
L 377.806548 254.449994 
L 378.134814 257.77697 
L 378.463079 253.663612 
L 378.791345 257.836717 
L 379.11961 252.610555 
L 379.447876 259.796009 
L 379.776141 253.967719 
L 380.104407 258.084054 
L 380.432672 255.605125 
L 380.760938 259.143437 
L 381.089203 258.046489 
L 381.417469 260.921435 
L 381.745734 254.106083 
L 382.073999 259.432567 
L 382.402265 255.474237 
L 382.73053 259.479048 
L 383.058796 255.242309 
L 383.387061 258.768177 
L 383.715327 253.938727 
L 384.043592 258.788333 
L 384.371858 253.572474 
L 384.700123 258.119067 
L 385.028389 252.269386 
L 385.356654 258.970712 
L 385.68492 254.015611 
L 386.013185 261.211696 
L 386.341451 239.729789 
L 386.669716 260.448216 
L 386.997981 251.458235 
L 387.326247 260.775777 
L 387.654512 253.000616 
L 387.982778 259.277907 
L 388.311043 252.684971 
L 388.639309 259.62421 
L 388.967574 255.708172 
L 389.29584 262.695622 
L 389.624105 255.379285 
L 389.952371 259.250539 
L 390.280636 254.146632 
L 390.608902 258.434146 
L 390.937167 254.224793 
L 391.265432 258.151906 
L 391.593698 249.48706 
L 391.921963 257.360248 
L 392.250229 252.626745 
L 392.578494 244.24215 
L 392.90676 261.427053 
L 393.235025 258.979829 
L 393.563291 254.252674 
L 393.891556 259.045867 
L 394.219822 252.786703 
L 394.548087 261.045645 
L 394.876353 248.931955 
L 395.204618 255.486302 
L 395.532884 252.33247 
L 395.861149 258.96487 
L 396.189414 254.912262 
L 396.51768 258.893709 
L 396.845945 254.513445 
L 397.174211 256.893407 
L 397.502476 252.489914 
L 397.830742 271.576266 
L 398.159007 242.56393 
L 398.487273 259.254825 
L 398.487273 259.254825 
" style="fill:none;stroke:#ff7f0e;stroke-linecap:square;stroke-width:1.5;"/>
   </g>
   <g id="patch_3">
    <path d="M 57.6 307.584 
L 57.6 41.472 
" style="fill:none;stroke:#000000;stroke-linecap:square;stroke-linejoin:miter;stroke-width:0.8;"/>
   </g>
   <g id="patch_4">
    <path d="M 414.72 307.584 
L 414.72 41.472 
" style="fill:none;stroke:#000000;stroke-linecap:square;stroke-linejoin:miter;stroke-width:0.8;"/>
   </g>
   <g id="patch_5">
    <path d="M 57.6 307.584 
L 414.72 307.584 
" style="fill:none;stroke:#000000;stroke-linecap:square;stroke-linejoin:miter;stroke-width:0.8;"/>
   </g>
   <g id="patch_6">
    <path d="M 57.6 41.472 
L 414.72 41.472 
" style="fill:none;stroke:#000000;stroke-linecap:square;stroke-linejoin:miter;stroke-width:0.8;"/>
   </g>
   <g id="text_18">
    <!-- KAMA Speedup -->
    <defs>
     <path d="M 9.8125 72.90625 
L 19.671875 72.90625 
L 19.671875 42.09375 
L 52.390625 72.90625 
L 65.09375 72.90625 
L 28.90625 38.921875 
L 67.671875 0 
L 54.6875 0 
L 19.671875 35.109375 
L 19.671875 0 
L 9.8125 0 
z
" id="DejaVuSans-75"/>
     <path d="M 34.1875 63.1875 
L 20.796875 26.90625 
L 47.609375 26.90625 
z
M 28.609375 72.90625 
L 39.796875 72.90625 
L 67.578125 0 
L 57.328125 0 
L 50.6875 18.703125 
L 17.828125 18.703125 
L 11.1875 0 
L 0.78125 0 
z
" id="DejaVuSans-65"/>
     <path d="M 9.8125 72.90625 
L 24.515625 72.90625 
L 43.109375 23.296875 
L 61.8125 72.90625 
L 76.515625 72.90625 
L 76.515625 0 
L 66.890625 0 
L 66.890625 64.015625 
L 48.09375 14.015625 
L 38.1875 14.015625 
L 19.390625 64.015625 
L 19.390625 0 
L 9.8125 0 
z
" id="DejaVuSans-77"/>
     <path id="DejaVuSans-32"/>
     <path d="M 53.515625 70.515625 
L 53.515625 60.890625 
Q 47.90625 63.578125 42.921875 64.890625 
Q 37.9375 66.21875 33.296875 66.21875 
Q 25.25 66.21875 20.875 63.09375 
Q 16.5 59.96875 16.5 54.203125 
Q 16.5 49.359375 19.40625 46.890625 
Q 22.3125 44.4375 30.421875 42.921875 
L 36.375 41.703125 
Q 47.40625 39.59375 52.65625 34.296875 
Q 57.90625 29 57.90625 20.125 
Q 57.90625 9.515625 50.796875 4.046875 
Q 43.703125 -1.421875 29.984375 -1.421875 
Q 24.8125 -1.421875 18.96875 -0.25 
Q 13.140625 0.921875 6.890625 3.21875 
L 6.890625 13.375 
Q 12.890625 10.015625 18.65625 8.296875 
Q 24.421875 6.59375 29.984375 6.59375 
Q 38.421875 6.59375 43.015625 9.90625 
Q 47.609375 13.234375 47.609375 19.390625 
Q 47.609375 24.75 44.3125 27.78125 
Q 41.015625 30.8125 33.5 32.328125 
L 27.484375 33.5 
Q 16.453125 35.6875 11.515625 40.375 
Q 6.59375 45.0625 6.59375 53.421875 
Q 6.59375 63.09375 13.40625 68.65625 
Q 20.21875 74.21875 32.171875 74.21875 
Q 37.3125 74.21875 42.625 73.28125 
Q 47.953125 72.359375 53.515625 70.515625 
z
" id="DejaVuSans-83"/>
    </defs>
    <g transform="translate(190.615313 35.472)scale(0.12 -0.12)">
     <use xlink:href="#DejaVuSans-75"/>
     <use x="63.826172" xlink:href="#DejaVuSans-65"/>
     <use x="132.234375" xlink:href="#DejaVuSans-77"/>
     <use x="218.513672" xlink:href="#DejaVuSans-65"/>
     <use x="286.921875" xlink:href="#DejaVuSans-32"/>
     <use x="318.708984" xlink:href="#DejaVuSans-83"/>
     <use x="382.185547" xlink:href="#DejaVuSans-112"/>
     <use x="445.662109" xlink:href="#DejaVuSans-101"/>
     <use x="507.185547" xlink:href="#DejaVuSans-101"/>
     <use x="568.708984" xlink:href="#DejaVuSans-100"/>
     <use x="632.185547" xlink:href="#DejaVuSans-117"/>
     <use x="695.564453" xlink:href="#DejaVuSans-112"/>
    </g>
   </g>
   <g id="legend_1">
    <g id="patch_7">
     <path d="M 304.093437 78.82825 
L 407.72 78.82825 
Q 409.72 78.82825 409.72 76.82825 
L 409.72 48.472 
Q 409.72 46.472 407.72 46.472 
L 304.093437 46.472 
Q 302.093437 46.472 302.093437 48.472 
L 302.093437 76.82825 
Q 302.093437 78.82825 304.093437 78.82825 
z
" style="fill:#ffffff;opacity:0.8;stroke:#cccccc;stroke-linejoin:miter;"/>
    </g>
    <g id="line2d_18">
     <path d="M 306.093437 54.570437 
L 326.093437 54.570437 
" style="fill:none;stroke:#1f77b4;stroke-linecap:square;stroke-width:1.5;"/>
    </g>
    <g id="line2d_19"/>
    <g id="text_19">
     <!-- numpy.float32 -->
     <defs>
      <path d="M 52 44.1875 
Q 55.375 50.25 60.0625 53.125 
Q 64.75 56 71.09375 56 
Q 79.640625 56 84.28125 50.015625 
Q 88.921875 44.046875 88.921875 33.015625 
L 88.921875 0 
L 79.890625 0 
L 79.890625 32.71875 
Q 79.890625 40.578125 77.09375 44.375 
Q 74.3125 48.1875 68.609375 48.1875 
Q 61.625 48.1875 57.5625 43.546875 
Q 53.515625 38.921875 53.515625 30.90625 
L 53.515625 0 
L 44.484375 0 
L 44.484375 32.71875 
Q 44.484375 40.625 41.703125 44.40625 
Q 38.921875 48.1875 33.109375 48.1875 
Q 26.21875 48.1875 22.15625 43.53125 
Q 18.109375 38.875 18.109375 30.90625 
L 18.109375 0 
L 9.078125 0 
L 9.078125 54.6875 
L 18.109375 54.6875 
L 18.109375 46.1875 
Q 21.1875 51.21875 25.484375 53.609375 
Q 29.78125 56 35.6875 56 
Q 41.65625 56 45.828125 52.96875 
Q 50 49.953125 52 44.1875 
z
" id="DejaVuSans-109"/>
      <path d="M 32.171875 -5.078125 
Q 28.375 -14.84375 24.75 -17.8125 
Q 21.140625 -20.796875 15.09375 -20.796875 
L 7.90625 -20.796875 
L 7.90625 -13.28125 
L 13.1875 -13.28125 
Q 16.890625 -13.28125 18.9375 -11.515625 
Q 21 -9.765625 23.484375 -3.21875 
L 25.09375 0.875 
L 2.984375 54.6875 
L 12.5 54.6875 
L 29.59375 11.921875 
L 46.6875 54.6875 
L 56.203125 54.6875 
z
" id="DejaVuSans-121"/>
      <path d="M 37.109375 75.984375 
L 37.109375 68.5 
L 28.515625 68.5 
Q 23.6875 68.5 21.796875 66.546875 
Q 19.921875 64.59375 19.921875 59.515625 
L 19.921875 54.6875 
L 34.71875 54.6875 
L 34.71875 47.703125 
L 19.921875 47.703125 
L 19.921875 0 
L 10.890625 0 
L 10.890625 47.703125 
L 2.296875 47.703125 
L 2.296875 54.6875 
L 10.890625 54.6875 
L 10.890625 58.5 
Q 10.890625 67.625 15.140625 71.796875 
Q 19.390625 75.984375 28.609375 75.984375 
z
" id="DejaVuSans-102"/>
      <path d="M 9.421875 75.984375 
L 18.40625 75.984375 
L 18.40625 0 
L 9.421875 0 
z
" id="DejaVuSans-108"/>
      <path d="M 30.609375 48.390625 
Q 23.390625 48.390625 19.1875 42.75 
Q 14.984375 37.109375 14.984375 27.296875 
Q 14.984375 17.484375 19.15625 11.84375 
Q 23.34375 6.203125 30.609375 6.203125 
Q 37.796875 6.203125 41.984375 11.859375 
Q 46.1875 17.53125 46.1875 27.296875 
Q 46.1875 37.015625 41.984375 42.703125 
Q 37.796875 48.390625 30.609375 48.390625 
z
M 30.609375 56 
Q 42.328125 56 49.015625 48.375 
Q 55.71875 40.765625 55.71875 27.296875 
Q 55.71875 13.875 49.015625 6.21875 
Q 42.328125 -1.421875 30.609375 -1.421875 
Q 18.84375 -1.421875 12.171875 6.21875 
Q 5.515625 13.875 5.515625 27.296875 
Q 5.515625 40.765625 12.171875 48.375 
Q 18.84375 56 30.609375 56 
z
" id="DejaVuSans-111"/>
      <path d="M 34.28125 27.484375 
Q 23.390625 27.484375 19.1875 25 
Q 14.984375 22.515625 14.984375 16.5 
Q 14.984375 11.71875 18.140625 8.90625 
Q 21.296875 6.109375 26.703125 6.109375 
Q 34.1875 6.109375 38.703125 11.40625 
Q 43.21875 16.703125 43.21875 25.484375 
L 43.21875 27.484375 
z
M 52.203125 31.203125 
L 52.203125 0 
L 43.21875 0 
L 43.21875 8.296875 
Q 40.140625 3.328125 35.546875 0.953125 
Q 30.953125 -1.421875 24.3125 -1.421875 
Q 15.921875 -1.421875 10.953125 3.296875 
Q 6 8.015625 6 15.921875 
Q 6 25.140625 12.171875 29.828125 
Q 18.359375 34.515625 30.609375 34.515625 
L 43.21875 34.515625 
L 43.21875 35.40625 
Q 43.21875 41.609375 39.140625 45 
Q 35.0625 48.390625 27.6875 48.390625 
Q 23 48.390625 18.546875 47.265625 
Q 14.109375 46.140625 10.015625 43.890625 
L 10.015625 52.203125 
Q 14.9375 54.109375 19.578125 55.046875 
Q 24.21875 56 28.609375 56 
Q 40.484375 56 46.34375 49.84375 
Q 52.203125 43.703125 52.203125 31.203125 
z
" id="DejaVuSans-97"/>
      <path d="M 18.3125 70.21875 
L 18.3125 54.6875 
L 36.8125 54.6875 
L 36.8125 47.703125 
L 18.3125 47.703125 
L 18.3125 18.015625 
Q 18.3125 11.328125 20.140625 9.421875 
Q 21.96875 7.515625 27.59375 7.515625 
L 36.8125 7.515625 
L 36.8125 0 
L 27.59375 0 
Q 17.1875 0 13.234375 3.875 
Q 9.28125 7.765625 9.28125 18.015625 
L 9.28125 47.703125 
L 2.6875 47.703125 
L 2.6875 54.6875 
L 9.28125 54.6875 
L 9.28125 70.21875 
z
" id="DejaVuSans-116"/>
     </defs>
     <g transform="translate(334.093437 58.070437)scale(0.1 -0.1)">
      <use xlink:href="#DejaVuSans-110"/>
      <use x="63.378906" xlink:href="#DejaVuSans-117"/>
      <use x="126.757812" xlink:href="#DejaVuSans-109"/>
      <use x="224.169922" xlink:href="#DejaVuSans-112"/>
      <use x="287.646484" xlink:href="#DejaVuSans-121"/>
      <use x="332.576172" xlink:href="#DejaVuSans-46"/>
      <use x="364.363281" xlink:href="#DejaVuSans-102"/>
      <use x="399.568359" xlink:href="#DejaVuSans-108"/>
      <use x="427.351562" xlink:href="#DejaVuSans-111"/>
      <use x="488.533203" xlink:href="#DejaVuSans-97"/>
      <use x="549.8125" xlink:href="#DejaVuSans-116"/>
      <use x="589.021484" xlink:href="#DejaVuSans-51"/>
      <use x="652.644531" xlink:href="#DejaVuSans-50"/>
     </g>
    </g>
    <g id="line2d_20">
     <path d="M 306.093437 69.248562 
L 326.093437 69.248562 
" style="fill:none;stroke:#ff7f0e;stroke-linecap:square;stroke-width:1.5;"/>
    </g>
    <g id="line2d_21"/>
    <g id="text_20">
     <!-- numpy.float64 -->
     <g transform="translate(334.093437 72.748562)scale(0.1 -0.1)">
      <use xlink:href="#DejaVuSans-110"/>
      <use x="63.378906" xlink:href="#DejaVuSans-117"/>
      <use x="126.757812" xlink:href="#DejaVuSans-109"/>
      <use x="224.169922" xlink:href="#DejaVuSans-112"/>
      <use x="287.646484" xlink:href="#DejaVuSans-121"/>
      <use x="332.576172" xlink:href="#DejaVuSans-46"/>
      <use x="364.363281" xlink:href="#DejaVuSans-102"/>
      <use x="399.568359" xlink:href="#DejaVuSans-108"/>
      <use x="427.351562" xlink:href="#DejaVuSans-111"/>
      <use x="488.533203" xlink:href="#DejaVuSans-97"/>
      <use x="549.8125" xlink:href="#DejaVuSans-116"/>
      <use x="589.021484" xlink:href="#DejaVuSans-54"/>
      <use x="652.644531" xlink:href="#DejaVuSans-52"/>
     </g>
    </g>
   </g>
  </g>
 </g>
 <defs>
  <clipPath id="p57b8ff207c">
   <rect height="266.112" width="357.12" x="57.6" y="41.472"/>
  </clipPath>
 </defs>
</svg>
