<?xml version="1.0" encoding="utf-8" standalone="no"?>
<!DOCTYPE svg PUBLIC "-//W3C//DTD SVG 1.1//EN"
  "http://www.w3.org/Graphics/SVG/1.1/DTD/svg11.dtd">
<!-- Created with matplotlib (https://matplotlib.org/) -->
<svg height="720pt" version="1.1" viewBox="0 0 1440 720" width="1440pt" xmlns="http://www.w3.org/2000/svg" xmlns:xlink="http://www.w3.org/1999/xlink">
 <defs>
  <style type="text/css">
*{stroke-linecap:butt;stroke-linejoin:round;}
  </style>
 </defs>
 <g id="figure_1">
  <g id="patch_1">
   <path d="M 0 720 
L 1440 720 
L 1440 0 
L 0 0 
z
" style="fill:#ffffff;"/>
  </g>
  <g id="axes_1">
   <g id="patch_2">
    <path d="M 180 640.8 
L 1296 640.8 
L 1296 86.4 
L 180 86.4 
z
" style="fill:#ffffff;"/>
   </g>
   <g id="matplotlib.axis_1">
    <g id="xtick_1">
     <g id="line2d_1">
      <defs>
       <path d="M 0 0 
L 0 3.5 
" id="m0661c83e27" style="stroke:#000000;stroke-width:0.8;"/>
      </defs>
      <g>
       <use style="stroke:#000000;stroke-width:0.8;" x="333.310231" xlink:href="#m0661c83e27" y="640.8"/>
      </g>
     </g>
     <g id="text_1">
      <!-- 100.0 -->
      <defs>
       <path d="M 12.40625 8.296875 
L 28.515625 8.296875 
L 28.515625 63.921875 
L 10.984375 60.40625 
L 10.984375 69.390625 
L 28.421875 72.90625 
L 38.28125 72.90625 
L 38.28125 8.296875 
L 54.390625 8.296875 
L 54.390625 0 
L 12.40625 0 
z
" id="DejaVuSans-49"/>
       <path d="M 31.78125 66.40625 
Q 24.171875 66.40625 20.328125 58.90625 
Q 16.5 51.421875 16.5 36.375 
Q 16.5 21.390625 20.328125 13.890625 
Q 24.171875 6.390625 31.78125 6.390625 
Q 39.453125 6.390625 43.28125 13.890625 
Q 47.125 21.390625 47.125 36.375 
Q 47.125 51.421875 43.28125 58.90625 
Q 39.453125 66.40625 31.78125 66.40625 
z
M 31.78125 74.21875 
Q 44.046875 74.21875 50.515625 64.515625 
Q 56.984375 54.828125 56.984375 36.375 
Q 56.984375 17.96875 50.515625 8.265625 
Q 44.046875 -1.421875 31.78125 -1.421875 
Q 19.53125 -1.421875 13.0625 8.265625 
Q 6.59375 17.96875 6.59375 36.375 
Q 6.59375 54.828125 13.0625 64.515625 
Q 19.53125 74.21875 31.78125 74.21875 
z
" id="DejaVuSans-48"/>
       <path d="M 10.6875 12.40625 
L 21 12.40625 
L 21 0 
L 10.6875 0 
z
" id="DejaVuSans-46"/>
      </defs>
      <g transform="translate(318.996168 655.398438)scale(0.1 -0.1)">
       <use xlink:href="#DejaVuSans-49"/>
       <use x="63.623047" xlink:href="#DejaVuSans-48"/>
       <use x="127.246094" xlink:href="#DejaVuSans-48"/>
       <use x="190.869141" xlink:href="#DejaVuSans-46"/>
       <use x="222.65625" xlink:href="#DejaVuSans-48"/>
      </g>
     </g>
    </g>
    <g id="xtick_2">
     <g id="line2d_2">
      <g>
       <use style="stroke:#000000;stroke-width:0.8;" x="435.893189" xlink:href="#m0661c83e27" y="640.8"/>
      </g>
     </g>
     <g id="text_2">
      <!-- 200.0 -->
      <defs>
       <path d="M 19.1875 8.296875 
L 53.609375 8.296875 
L 53.609375 0 
L 7.328125 0 
L 7.328125 8.296875 
Q 12.9375 14.109375 22.625 23.890625 
Q 32.328125 33.6875 34.8125 36.53125 
Q 39.546875 41.84375 41.421875 45.53125 
Q 43.3125 49.21875 43.3125 52.78125 
Q 43.3125 58.59375 39.234375 62.25 
Q 35.15625 65.921875 28.609375 65.921875 
Q 23.96875 65.921875 18.8125 64.3125 
Q 13.671875 62.703125 7.8125 59.421875 
L 7.8125 69.390625 
Q 13.765625 71.78125 18.9375 73 
Q 24.125 74.21875 28.421875 74.21875 
Q 39.75 74.21875 46.484375 68.546875 
Q 53.21875 62.890625 53.21875 53.421875 
Q 53.21875 48.921875 51.53125 44.890625 
Q 49.859375 40.875 45.40625 35.40625 
Q 44.1875 33.984375 37.640625 27.21875 
Q 31.109375 20.453125 19.1875 8.296875 
z
" id="DejaVuSans-50"/>
      </defs>
      <g transform="translate(421.579126 655.398438)scale(0.1 -0.1)">
       <use xlink:href="#DejaVuSans-50"/>
       <use x="63.623047" xlink:href="#DejaVuSans-48"/>
       <use x="127.246094" xlink:href="#DejaVuSans-48"/>
       <use x="190.869141" xlink:href="#DejaVuSans-46"/>
       <use x="222.65625" xlink:href="#DejaVuSans-48"/>
      </g>
     </g>
    </g>
    <g id="xtick_3">
     <g id="line2d_3">
      <g>
       <use style="stroke:#000000;stroke-width:0.8;" x="538.476147" xlink:href="#m0661c83e27" y="640.8"/>
      </g>
     </g>
     <g id="text_3">
      <!-- 300.0 -->
      <defs>
       <path d="M 40.578125 39.3125 
Q 47.65625 37.796875 51.625 33 
Q 55.609375 28.21875 55.609375 21.1875 
Q 55.609375 10.40625 48.1875 4.484375 
Q 40.765625 -1.421875 27.09375 -1.421875 
Q 22.515625 -1.421875 17.65625 -0.515625 
Q 12.796875 0.390625 7.625 2.203125 
L 7.625 11.71875 
Q 11.71875 9.328125 16.59375 8.109375 
Q 21.484375 6.890625 26.8125 6.890625 
Q 36.078125 6.890625 40.9375 10.546875 
Q 45.796875 14.203125 45.796875 21.1875 
Q 45.796875 27.640625 41.28125 31.265625 
Q 36.765625 34.90625 28.71875 34.90625 
L 20.21875 34.90625 
L 20.21875 43.015625 
L 29.109375 43.015625 
Q 36.375 43.015625 40.234375 45.921875 
Q 44.09375 48.828125 44.09375 54.296875 
Q 44.09375 59.90625 40.109375 62.90625 
Q 36.140625 65.921875 28.71875 65.921875 
Q 24.65625 65.921875 20.015625 65.03125 
Q 15.375 64.15625 9.8125 62.3125 
L 9.8125 71.09375 
Q 15.4375 72.65625 20.34375 73.4375 
Q 25.25 74.21875 29.59375 74.21875 
Q 40.828125 74.21875 47.359375 69.109375 
Q 53.90625 64.015625 53.90625 55.328125 
Q 53.90625 49.265625 50.4375 45.09375 
Q 46.96875 40.921875 40.578125 39.3125 
z
" id="DejaVuSans-51"/>
      </defs>
      <g transform="translate(524.162084 655.398438)scale(0.1 -0.1)">
       <use xlink:href="#DejaVuSans-51"/>
       <use x="63.623047" xlink:href="#DejaVuSans-48"/>
       <use x="127.246094" xlink:href="#DejaVuSans-48"/>
       <use x="190.869141" xlink:href="#DejaVuSans-46"/>
       <use x="222.65625" xlink:href="#DejaVuSans-48"/>
      </g>
     </g>
    </g>
    <g id="xtick_4">
     <g id="line2d_4">
      <g>
       <use style="stroke:#000000;stroke-width:0.8;" x="641.059105" xlink:href="#m0661c83e27" y="640.8"/>
      </g>
     </g>
     <g id="text_4">
      <!-- 400.0 -->
      <defs>
       <path d="M 37.796875 64.3125 
L 12.890625 25.390625 
L 37.796875 25.390625 
z
M 35.203125 72.90625 
L 47.609375 72.90625 
L 47.609375 25.390625 
L 58.015625 25.390625 
L 58.015625 17.1875 
L 47.609375 17.1875 
L 47.609375 0 
L 37.796875 0 
L 37.796875 17.1875 
L 4.890625 17.1875 
L 4.890625 26.703125 
z
" id="DejaVuSans-52"/>
      </defs>
      <g transform="translate(626.745042 655.398438)scale(0.1 -0.1)">
       <use xlink:href="#DejaVuSans-52"/>
       <use x="63.623047" xlink:href="#DejaVuSans-48"/>
       <use x="127.246094" xlink:href="#DejaVuSans-48"/>
       <use x="190.869141" xlink:href="#DejaVuSans-46"/>
       <use x="222.65625" xlink:href="#DejaVuSans-48"/>
      </g>
     </g>
    </g>
    <g id="xtick_5">
     <g id="line2d_5">
      <g>
       <use style="stroke:#000000;stroke-width:0.8;" x="743.642063" xlink:href="#m0661c83e27" y="640.8"/>
      </g>
     </g>
     <g id="text_5">
      <!-- 500.0 -->
      <defs>
       <path d="M 10.796875 72.90625 
L 49.515625 72.90625 
L 49.515625 64.59375 
L 19.828125 64.59375 
L 19.828125 46.734375 
Q 21.96875 47.46875 24.109375 47.828125 
Q 26.265625 48.1875 28.421875 48.1875 
Q 40.625 48.1875 47.75 41.5 
Q 54.890625 34.8125 54.890625 23.390625 
Q 54.890625 11.625 47.5625 5.09375 
Q 40.234375 -1.421875 26.90625 -1.421875 
Q 22.3125 -1.421875 17.546875 -0.640625 
Q 12.796875 0.140625 7.71875 1.703125 
L 7.71875 11.625 
Q 12.109375 9.234375 16.796875 8.0625 
Q 21.484375 6.890625 26.703125 6.890625 
Q 35.15625 6.890625 40.078125 11.328125 
Q 45.015625 15.765625 45.015625 23.390625 
Q 45.015625 31 40.078125 35.4375 
Q 35.15625 39.890625 26.703125 39.890625 
Q 22.75 39.890625 18.8125 39.015625 
Q 14.890625 38.140625 10.796875 36.28125 
z
" id="DejaVuSans-53"/>
      </defs>
      <g transform="translate(729.328 655.398438)scale(0.1 -0.1)">
       <use xlink:href="#DejaVuSans-53"/>
       <use x="63.623047" xlink:href="#DejaVuSans-48"/>
       <use x="127.246094" xlink:href="#DejaVuSans-48"/>
       <use x="190.869141" xlink:href="#DejaVuSans-46"/>
       <use x="222.65625" xlink:href="#DejaVuSans-48"/>
      </g>
     </g>
    </g>
    <g id="xtick_6">
     <g id="line2d_6">
      <g>
       <use style="stroke:#000000;stroke-width:0.8;" x="846.225021" xlink:href="#m0661c83e27" y="640.8"/>
      </g>
     </g>
     <g id="text_6">
      <!-- 600.0 -->
      <defs>
       <path d="M 33.015625 40.375 
Q 26.375 40.375 22.484375 35.828125 
Q 18.609375 31.296875 18.609375 23.390625 
Q 18.609375 15.53125 22.484375 10.953125 
Q 26.375 6.390625 33.015625 6.390625 
Q 39.65625 6.390625 43.53125 10.953125 
Q 47.40625 15.53125 47.40625 23.390625 
Q 47.40625 31.296875 43.53125 35.828125 
Q 39.65625 40.375 33.015625 40.375 
z
M 52.59375 71.296875 
L 52.59375 62.3125 
Q 48.875 64.0625 45.09375 64.984375 
Q 41.3125 65.921875 37.59375 65.921875 
Q 27.828125 65.921875 22.671875 59.328125 
Q 17.53125 52.734375 16.796875 39.40625 
Q 19.671875 43.65625 24.015625 45.921875 
Q 28.375 48.1875 33.59375 48.1875 
Q 44.578125 48.1875 50.953125 41.515625 
Q 57.328125 34.859375 57.328125 23.390625 
Q 57.328125 12.15625 50.6875 5.359375 
Q 44.046875 -1.421875 33.015625 -1.421875 
Q 20.359375 -1.421875 13.671875 8.265625 
Q 6.984375 17.96875 6.984375 36.375 
Q 6.984375 53.65625 15.1875 63.9375 
Q 23.390625 74.21875 37.203125 74.21875 
Q 40.921875 74.21875 44.703125 73.484375 
Q 48.484375 72.75 52.59375 71.296875 
z
" id="DejaVuSans-54"/>
      </defs>
      <g transform="translate(831.910958 655.398438)scale(0.1 -0.1)">
       <use xlink:href="#DejaVuSans-54"/>
       <use x="63.623047" xlink:href="#DejaVuSans-48"/>
       <use x="127.246094" xlink:href="#DejaVuSans-48"/>
       <use x="190.869141" xlink:href="#DejaVuSans-46"/>
       <use x="222.65625" xlink:href="#DejaVuSans-48"/>
      </g>
     </g>
    </g>
    <g id="xtick_7">
     <g id="line2d_7">
      <g>
       <use style="stroke:#000000;stroke-width:0.8;" x="948.807979" xlink:href="#m0661c83e27" y="640.8"/>
      </g>
     </g>
     <g id="text_7">
      <!-- 700.0 -->
      <defs>
       <path d="M 8.203125 72.90625 
L 55.078125 72.90625 
L 55.078125 68.703125 
L 28.609375 0 
L 18.3125 0 
L 43.21875 64.59375 
L 8.203125 64.59375 
z
" id="DejaVuSans-55"/>
      </defs>
      <g transform="translate(934.493916 655.398438)scale(0.1 -0.1)">
       <use xlink:href="#DejaVuSans-55"/>
       <use x="63.623047" xlink:href="#DejaVuSans-48"/>
       <use x="127.246094" xlink:href="#DejaVuSans-48"/>
       <use x="190.869141" xlink:href="#DejaVuSans-46"/>
       <use x="222.65625" xlink:href="#DejaVuSans-48"/>
      </g>
     </g>
    </g>
    <g id="xtick_8">
     <g id="line2d_8">
      <g>
       <use style="stroke:#000000;stroke-width:0.8;" x="1051.390937" xlink:href="#m0661c83e27" y="640.8"/>
      </g>
     </g>
     <g id="text_8">
      <!-- 800.0 -->
      <defs>
       <path d="M 31.78125 34.625 
Q 24.75 34.625 20.71875 30.859375 
Q 16.703125 27.09375 16.703125 20.515625 
Q 16.703125 13.921875 20.71875 10.15625 
Q 24.75 6.390625 31.78125 6.390625 
Q 38.8125 6.390625 42.859375 10.171875 
Q 46.921875 13.96875 46.921875 20.515625 
Q 46.921875 27.09375 42.890625 30.859375 
Q 38.875 34.625 31.78125 34.625 
z
M 21.921875 38.8125 
Q 15.578125 40.375 12.03125 44.71875 
Q 8.5 49.078125 8.5 55.328125 
Q 8.5 64.0625 14.71875 69.140625 
Q 20.953125 74.21875 31.78125 74.21875 
Q 42.671875 74.21875 48.875 69.140625 
Q 55.078125 64.0625 55.078125 55.328125 
Q 55.078125 49.078125 51.53125 44.71875 
Q 48 40.375 41.703125 38.8125 
Q 48.828125 37.15625 52.796875 32.3125 
Q 56.78125 27.484375 56.78125 20.515625 
Q 56.78125 9.90625 50.3125 4.234375 
Q 43.84375 -1.421875 31.78125 -1.421875 
Q 19.734375 -1.421875 13.25 4.234375 
Q 6.78125 9.90625 6.78125 20.515625 
Q 6.78125 27.484375 10.78125 32.3125 
Q 14.796875 37.15625 21.921875 38.8125 
z
M 18.3125 54.390625 
Q 18.3125 48.734375 21.84375 45.5625 
Q 25.390625 42.390625 31.78125 42.390625 
Q 38.140625 42.390625 41.71875 45.5625 
Q 45.3125 48.734375 45.3125 54.390625 
Q 45.3125 60.0625 41.71875 63.234375 
Q 38.140625 66.40625 31.78125 66.40625 
Q 25.390625 66.40625 21.84375 63.234375 
Q 18.3125 60.0625 18.3125 54.390625 
z
" id="DejaVuSans-56"/>
      </defs>
      <g transform="translate(1037.076874 655.398438)scale(0.1 -0.1)">
       <use xlink:href="#DejaVuSans-56"/>
       <use x="63.623047" xlink:href="#DejaVuSans-48"/>
       <use x="127.246094" xlink:href="#DejaVuSans-48"/>
       <use x="190.869141" xlink:href="#DejaVuSans-46"/>
       <use x="222.65625" xlink:href="#DejaVuSans-48"/>
      </g>
     </g>
    </g>
    <g id="xtick_9">
     <g id="line2d_9">
      <g>
       <use style="stroke:#000000;stroke-width:0.8;" x="1153.973895" xlink:href="#m0661c83e27" y="640.8"/>
      </g>
     </g>
     <g id="text_9">
      <!-- 900.0 -->
      <defs>
       <path d="M 10.984375 1.515625 
L 10.984375 10.5 
Q 14.703125 8.734375 18.5 7.8125 
Q 22.3125 6.890625 25.984375 6.890625 
Q 35.75 6.890625 40.890625 13.453125 
Q 46.046875 20.015625 46.78125 33.40625 
Q 43.953125 29.203125 39.59375 26.953125 
Q 35.25 24.703125 29.984375 24.703125 
Q 19.046875 24.703125 12.671875 31.3125 
Q 6.296875 37.9375 6.296875 49.421875 
Q 6.296875 60.640625 12.9375 67.421875 
Q 19.578125 74.21875 30.609375 74.21875 
Q 43.265625 74.21875 49.921875 64.515625 
Q 56.59375 54.828125 56.59375 36.375 
Q 56.59375 19.140625 48.40625 8.859375 
Q 40.234375 -1.421875 26.421875 -1.421875 
Q 22.703125 -1.421875 18.890625 -0.6875 
Q 15.09375 0.046875 10.984375 1.515625 
z
M 30.609375 32.421875 
Q 37.25 32.421875 41.125 36.953125 
Q 45.015625 41.5 45.015625 49.421875 
Q 45.015625 57.28125 41.125 61.84375 
Q 37.25 66.40625 30.609375 66.40625 
Q 23.96875 66.40625 20.09375 61.84375 
Q 16.21875 57.28125 16.21875 49.421875 
Q 16.21875 41.5 20.09375 36.953125 
Q 23.96875 32.421875 30.609375 32.421875 
z
" id="DejaVuSans-57"/>
      </defs>
      <g transform="translate(1139.659832 655.398438)scale(0.1 -0.1)">
       <use xlink:href="#DejaVuSans-57"/>
       <use x="63.623047" xlink:href="#DejaVuSans-48"/>
       <use x="127.246094" xlink:href="#DejaVuSans-48"/>
       <use x="190.869141" xlink:href="#DejaVuSans-46"/>
       <use x="222.65625" xlink:href="#DejaVuSans-48"/>
      </g>
     </g>
    </g>
    <g id="xtick_10">
     <g id="line2d_10">
      <g>
       <use style="stroke:#000000;stroke-width:0.8;" x="1256.556853" xlink:href="#m0661c83e27" y="640.8"/>
      </g>
     </g>
     <g id="text_10">
      <!-- 1000.0 -->
      <g transform="translate(1239.06154 655.398438)scale(0.1 -0.1)">
       <use xlink:href="#DejaVuSans-49"/>
       <use x="63.623047" xlink:href="#DejaVuSans-48"/>
       <use x="127.246094" xlink:href="#DejaVuSans-48"/>
       <use x="190.869141" xlink:href="#DejaVuSans-48"/>
       <use x="254.492188" xlink:href="#DejaVuSans-46"/>
       <use x="286.279297" xlink:href="#DejaVuSans-48"/>
      </g>
     </g>
    </g>
    <g id="text_11">
     <!-- n -->
     <defs>
      <path d="M 54.890625 33.015625 
L 54.890625 0 
L 45.90625 0 
L 45.90625 32.71875 
Q 45.90625 40.484375 42.875 44.328125 
Q 39.84375 48.1875 33.796875 48.1875 
Q 26.515625 48.1875 22.3125 43.546875 
Q 18.109375 38.921875 18.109375 30.90625 
L 18.109375 0 
L 9.078125 0 
L 9.078125 54.6875 
L 18.109375 54.6875 
L 18.109375 46.1875 
Q 21.34375 51.125 25.703125 53.5625 
Q 30.078125 56 35.796875 56 
Q 45.21875 56 50.046875 50.171875 
Q 54.890625 44.34375 54.890625 33.015625 
z
" id="DejaVuSans-110"/>
     </defs>
     <g transform="translate(734.83125 669.076563)scale(0.1 -0.1)">
      <use xlink:href="#DejaVuSans-110"/>
     </g>
    </g>
   </g>
   <g id="matplotlib.axis_2">
    <g id="ytick_1">
     <g id="line2d_11">
      <defs>
       <path d="M 0 0 
L -3.5 0 
" id="mbabf5960c9" style="stroke:#000000;stroke-width:0.8;"/>
      </defs>
      <g>
       <use style="stroke:#000000;stroke-width:0.8;" x="180" xlink:href="#mbabf5960c9" y="622.160037"/>
      </g>
     </g>
     <g id="text_12">
      <!-- 200 -->
      <g transform="translate(153.9125 625.959256)scale(0.1 -0.1)">
       <use xlink:href="#DejaVuSans-50"/>
       <use x="63.623047" xlink:href="#DejaVuSans-48"/>
       <use x="127.246094" xlink:href="#DejaVuSans-48"/>
      </g>
     </g>
    </g>
    <g id="ytick_2">
     <g id="line2d_12">
      <g>
       <use style="stroke:#000000;stroke-width:0.8;" x="180" xlink:href="#mbabf5960c9" y="519.70272"/>
      </g>
     </g>
     <g id="text_13">
      <!-- 400 -->
      <g transform="translate(153.9125 523.501939)scale(0.1 -0.1)">
       <use xlink:href="#DejaVuSans-52"/>
       <use x="63.623047" xlink:href="#DejaVuSans-48"/>
       <use x="127.246094" xlink:href="#DejaVuSans-48"/>
      </g>
     </g>
    </g>
    <g id="ytick_3">
     <g id="line2d_13">
      <g>
       <use style="stroke:#000000;stroke-width:0.8;" x="180" xlink:href="#mbabf5960c9" y="417.245403"/>
      </g>
     </g>
     <g id="text_14">
      <!-- 600 -->
      <g transform="translate(153.9125 421.044622)scale(0.1 -0.1)">
       <use xlink:href="#DejaVuSans-54"/>
       <use x="63.623047" xlink:href="#DejaVuSans-48"/>
       <use x="127.246094" xlink:href="#DejaVuSans-48"/>
      </g>
     </g>
    </g>
    <g id="ytick_4">
     <g id="line2d_14">
      <g>
       <use style="stroke:#000000;stroke-width:0.8;" x="180" xlink:href="#mbabf5960c9" y="314.788086"/>
      </g>
     </g>
     <g id="text_15">
      <!-- 800 -->
      <g transform="translate(153.9125 318.587305)scale(0.1 -0.1)">
       <use xlink:href="#DejaVuSans-56"/>
       <use x="63.623047" xlink:href="#DejaVuSans-48"/>
       <use x="127.246094" xlink:href="#DejaVuSans-48"/>
      </g>
     </g>
    </g>
    <g id="ytick_5">
     <g id="line2d_15">
      <g>
       <use style="stroke:#000000;stroke-width:0.8;" x="180" xlink:href="#mbabf5960c9" y="212.330769"/>
      </g>
     </g>
     <g id="text_16">
      <!-- 1000 -->
      <g transform="translate(147.55 216.129988)scale(0.1 -0.1)">
       <use xlink:href="#DejaVuSans-49"/>
       <use x="63.623047" xlink:href="#DejaVuSans-48"/>
       <use x="127.246094" xlink:href="#DejaVuSans-48"/>
       <use x="190.869141" xlink:href="#DejaVuSans-48"/>
      </g>
     </g>
    </g>
    <g id="ytick_6">
     <g id="line2d_16">
      <g>
       <use style="stroke:#000000;stroke-width:0.8;" x="180" xlink:href="#mbabf5960c9" y="109.873452"/>
      </g>
     </g>
     <g id="text_17">
      <!-- 1200 -->
      <g transform="translate(147.55 113.672671)scale(0.1 -0.1)">
       <use xlink:href="#DejaVuSans-49"/>
       <use x="63.623047" xlink:href="#DejaVuSans-50"/>
       <use x="127.246094" xlink:href="#DejaVuSans-48"/>
       <use x="190.869141" xlink:href="#DejaVuSans-48"/>
      </g>
     </g>
    </g>
    <g id="text_18">
     <!-- speedup -->
     <defs>
      <path d="M 44.28125 53.078125 
L 44.28125 44.578125 
Q 40.484375 46.53125 36.375 47.5 
Q 32.28125 48.484375 27.875 48.484375 
Q 21.1875 48.484375 17.84375 46.4375 
Q 14.5 44.390625 14.5 40.28125 
Q 14.5 37.15625 16.890625 35.375 
Q 19.28125 33.59375 26.515625 31.984375 
L 29.59375 31.296875 
Q 39.15625 29.25 43.1875 25.515625 
Q 47.21875 21.78125 47.21875 15.09375 
Q 47.21875 7.46875 41.1875 3.015625 
Q 35.15625 -1.421875 24.609375 -1.421875 
Q 20.21875 -1.421875 15.453125 -0.5625 
Q 10.6875 0.296875 5.421875 2 
L 5.421875 11.28125 
Q 10.40625 8.6875 15.234375 7.390625 
Q 20.0625 6.109375 24.8125 6.109375 
Q 31.15625 6.109375 34.5625 8.28125 
Q 37.984375 10.453125 37.984375 14.40625 
Q 37.984375 18.0625 35.515625 20.015625 
Q 33.0625 21.96875 24.703125 23.78125 
L 21.578125 24.515625 
Q 13.234375 26.265625 9.515625 29.90625 
Q 5.8125 33.546875 5.8125 39.890625 
Q 5.8125 47.609375 11.28125 51.796875 
Q 16.75 56 26.8125 56 
Q 31.78125 56 36.171875 55.265625 
Q 40.578125 54.546875 44.28125 53.078125 
z
" id="DejaVuSans-115"/>
      <path d="M 18.109375 8.203125 
L 18.109375 -20.796875 
L 9.078125 -20.796875 
L 9.078125 54.6875 
L 18.109375 54.6875 
L 18.109375 46.390625 
Q 20.953125 51.265625 25.265625 53.625 
Q 29.59375 56 35.59375 56 
Q 45.5625 56 51.78125 48.09375 
Q 58.015625 40.1875 58.015625 27.296875 
Q 58.015625 14.40625 51.78125 6.484375 
Q 45.5625 -1.421875 35.59375 -1.421875 
Q 29.59375 -1.421875 25.265625 0.953125 
Q 20.953125 3.328125 18.109375 8.203125 
z
M 48.6875 27.296875 
Q 48.6875 37.203125 44.609375 42.84375 
Q 40.53125 48.484375 33.40625 48.484375 
Q 26.265625 48.484375 22.1875 42.84375 
Q 18.109375 37.203125 18.109375 27.296875 
Q 18.109375 17.390625 22.1875 11.75 
Q 26.265625 6.109375 33.40625 6.109375 
Q 40.53125 6.109375 44.609375 11.75 
Q 48.6875 17.390625 48.6875 27.296875 
z
" id="DejaVuSans-112"/>
      <path d="M 56.203125 29.59375 
L 56.203125 25.203125 
L 14.890625 25.203125 
Q 15.484375 15.921875 20.484375 11.0625 
Q 25.484375 6.203125 34.421875 6.203125 
Q 39.59375 6.203125 44.453125 7.46875 
Q 49.3125 8.734375 54.109375 11.28125 
L 54.109375 2.78125 
Q 49.265625 0.734375 44.1875 -0.34375 
Q 39.109375 -1.421875 33.890625 -1.421875 
Q 20.796875 -1.421875 13.15625 6.1875 
Q 5.515625 13.8125 5.515625 26.8125 
Q 5.515625 40.234375 12.765625 48.109375 
Q 20.015625 56 32.328125 56 
Q 43.359375 56 49.78125 48.890625 
Q 56.203125 41.796875 56.203125 29.59375 
z
M 47.21875 32.234375 
Q 47.125 39.59375 43.09375 43.984375 
Q 39.0625 48.390625 32.421875 48.390625 
Q 24.90625 48.390625 20.390625 44.140625 
Q 15.875 39.890625 15.1875 32.171875 
z
" id="DejaVuSans-101"/>
      <path d="M 45.40625 46.390625 
L 45.40625 75.984375 
L 54.390625 75.984375 
L 54.390625 0 
L 45.40625 0 
L 45.40625 8.203125 
Q 42.578125 3.328125 38.25 0.953125 
Q 33.9375 -1.421875 27.875 -1.421875 
Q 17.96875 -1.421875 11.734375 6.484375 
Q 5.515625 14.40625 5.515625 27.296875 
Q 5.515625 40.1875 11.734375 48.09375 
Q 17.96875 56 27.875 56 
Q 33.9375 56 38.25 53.625 
Q 42.578125 51.265625 45.40625 46.390625 
z
M 14.796875 27.296875 
Q 14.796875 17.390625 18.875 11.75 
Q 22.953125 6.109375 30.078125 6.109375 
Q 37.203125 6.109375 41.296875 11.75 
Q 45.40625 17.390625 45.40625 27.296875 
Q 45.40625 37.203125 41.296875 42.84375 
Q 37.203125 48.484375 30.078125 48.484375 
Q 22.953125 48.484375 18.875 42.84375 
Q 14.796875 37.203125 14.796875 27.296875 
z
" id="DejaVuSans-100"/>
      <path d="M 8.5 21.578125 
L 8.5 54.6875 
L 17.484375 54.6875 
L 17.484375 21.921875 
Q 17.484375 14.15625 20.5 10.265625 
Q 23.53125 6.390625 29.59375 6.390625 
Q 36.859375 6.390625 41.078125 11.03125 
Q 45.3125 15.671875 45.3125 23.6875 
L 45.3125 54.6875 
L 54.296875 54.6875 
L 54.296875 0 
L 45.3125 0 
L 45.3125 8.40625 
Q 42.046875 3.421875 37.71875 1 
Q 33.40625 -1.421875 27.6875 -1.421875 
Q 18.265625 -1.421875 13.375 4.4375 
Q 8.5 10.296875 8.5 21.578125 
z
M 31.109375 56 
z
" id="DejaVuSans-117"/>
     </defs>
     <g transform="translate(141.470313 385.049219)rotate(-90)scale(0.1 -0.1)">
      <use xlink:href="#DejaVuSans-115"/>
      <use x="52.099609" xlink:href="#DejaVuSans-112"/>
      <use x="115.576172" xlink:href="#DejaVuSans-101"/>
      <use x="177.099609" xlink:href="#DejaVuSans-101"/>
      <use x="238.623047" xlink:href="#DejaVuSans-100"/>
      <use x="302.099609" xlink:href="#DejaVuSans-117"/>
      <use x="365.478516" xlink:href="#DejaVuSans-112"/>
     </g>
    </g>
   </g>
   <g id="line2d_17">
    <path clip-path="url(#p1cbeac9e87)" d="M 230.727273 550.784231 
L 231.753102 578.653182 
L 232.778932 455.641355 
L 233.804761 574.112262 
L 234.830591 467.473225 
L 235.856421 581.913551 
L 236.88225 576.135306 
L 237.90808 458.462986 
L 238.933909 446.757312 
L 239.959739 467.504427 
L 240.985569 475.769404 
L 242.011398 445.893142 
L 243.037228 441.697798 
L 244.063057 559.174701 
L 245.088887 408.086179 
L 246.114716 456.810156 
L 247.140546 456.845364 
L 248.166376 460.773744 
L 249.192205 452.857489 
L 250.218035 447.601338 
L 251.243864 443.047753 
L 252.269694 445.03251 
L 253.295523 438.09522 
L 254.321353 425.560482 
L 255.347183 437.159908 
L 256.373012 451.563455 
L 257.398842 420.411533 
L 258.424671 410.067882 
L 259.450501 443.022116 
L 260.476331 421.648827 
L 261.50216 445.000795 
L 262.52799 442.867909 
L 263.553819 446.784452 
L 264.579649 441.123384 
L 265.605478 438.30868 
L 266.631308 396.410274 
L 267.657138 436.215253 
L 268.682967 434.828636 
L 269.708797 392.28703 
L 270.734626 382.908311 
L 271.760456 429.413466 
L 272.786286 424.500249 
L 273.812115 484.733032 
L 274.837945 378.787726 
L 275.863774 385.03688 
L 276.889604 396.750671 
L 277.915433 374.507828 
L 278.941263 404.548309 
L 279.967093 404.184117 
L 280.992922 409.167215 
L 282.018752 434.367641 
L 283.044581 426.667342 
L 284.070411 454.689572 
L 285.09624 441.36648 
L 286.12207 434.646216 
L 287.1479 448.461015 
L 288.173729 427.998172 
L 289.199559 442.526515 
L 290.225388 435.114372 
L 291.251218 432.614889 
L 292.277048 432.531675 
L 293.302877 374.758275 
L 294.328707 417.154469 
L 295.354536 422.370723 
L 296.380366 388.772776 
L 297.406195 421.982157 
L 299.457855 351.855997 
L 300.483684 341.750651 
L 301.509514 382.745919 
L 302.535343 389.288649 
L 303.561173 358.363507 
L 304.587002 362.238039 
L 305.612832 371.603778 
L 306.638662 366.317758 
L 307.664491 401.36607 
L 308.690321 411.230952 
L 309.71615 433.472131 
L 310.74198 339.084788 
L 311.76781 372.45808 
L 312.793639 382.309777 
L 313.819469 365.695221 
L 314.845298 339.95012 
L 315.871128 358.332135 
L 316.896957 365.01323 
L 317.922787 365.40986 
L 318.948617 332.6068 
L 319.974446 349.923318 
L 321.000276 331.212282 
L 322.026105 366.518107 
L 323.051935 331.108615 
L 324.077765 391.535806 
L 325.103594 353.401628 
L 326.129424 331.028835 
L 327.155253 373.014598 
L 328.181083 429.056907 
L 329.206912 432.498877 
L 330.232742 332.290458 
L 331.258572 435.496637 
L 332.284401 336.937291 
L 333.310231 303.655703 
L 334.33606 350.558492 
L 335.36189 335.076566 
L 336.387719 339.402648 
L 337.413549 356.939512 
L 338.439379 342.736022 
L 339.465208 346.23452 
L 340.491038 329.990134 
L 341.516867 342.667916 
L 342.542697 335.572879 
L 343.568527 313.406561 
L 344.594356 343.684386 
L 345.620186 341.5964 
L 346.646015 413.961697 
L 347.671845 333.520821 
L 348.697674 348.642749 
L 349.723504 289.303543 
L 350.749334 330.565696 
L 351.775163 412.665847 
L 352.800993 219.60347 
L 353.826822 393.585625 
L 354.852652 354.174533 
L 355.878481 330.50579 
L 356.904311 375.686801 
L 357.930141 326.299097 
L 358.95597 363.184538 
L 359.9818 317.403024 
L 361.007629 343.226866 
L 362.033459 331.902782 
L 363.059289 381.991452 
L 364.085118 340.687651 
L 365.110948 329.904671 
L 366.136777 444.67943 
L 367.162607 358.235078 
L 368.188436 316.758336 
L 369.214266 394.986214 
L 370.240096 411.58664 
L 371.265925 318.523787 
L 372.291755 286.777716 
L 373.317584 352.352998 
L 374.343414 361.736475 
L 375.369243 386.05566 
L 376.395073 276.165857 
L 377.420903 321.043924 
L 378.446732 299.248921 
L 379.472562 292.477332 
L 380.498391 273.338575 
L 381.524221 339.266193 
L 382.550051 368.25333 
L 383.57588 322.711668 
L 384.60171 327.417162 
L 385.627539 325.7338 
L 386.653369 264.061963 
L 387.679198 300.404869 
L 388.705028 350.661576 
L 389.730858 306.538591 
L 390.756687 302.650184 
L 391.782517 284.806788 
L 392.808346 346.726964 
L 393.834176 280.64548 
L 394.860006 307.846911 
L 395.885835 314.458855 
L 397.937494 275.700875 
L 398.963324 287.743283 
L 399.989153 295.862145 
L 401.014983 270.258583 
L 402.040813 302.760417 
L 403.066642 266.447328 
L 404.092472 300.49629 
L 405.118301 275.100988 
L 406.144131 291.158112 
L 407.16996 288.897235 
L 408.19579 273.971043 
L 409.22162 298.483033 
L 410.247449 271.65825 
L 411.273279 270.348381 
L 412.299108 279.49854 
L 413.324938 273.972574 
L 414.350768 270.893817 
L 415.376597 291.469077 
L 416.402427 270.107858 
L 417.428256 317.588656 
L 418.454086 297.988388 
L 419.479915 303.633312 
L 420.505745 296.040609 
L 421.531575 289.585877 
L 422.557404 280.760962 
L 423.583234 266.637421 
L 424.609063 261.528695 
L 425.634893 301.025622 
L 426.660722 262.103635 
L 427.686552 298.772024 
L 428.712382 268.403998 
L 429.738211 319.837791 
L 430.764041 298.952625 
L 431.78987 315.607201 
L 432.8157 406.155047 
L 433.84153 278.685016 
L 434.867359 288.506602 
L 435.893189 299.627471 
L 436.919018 277.139319 
L 437.944848 281.635163 
L 438.970677 296.555851 
L 439.996507 277.686846 
L 441.022337 266.258077 
L 442.048166 324.361155 
L 444.099825 268.861525 
L 445.125655 258.806415 
L 446.151485 275.272285 
L 447.177314 297.548963 
L 448.203144 294.521811 
L 449.228973 275.933078 
L 450.254803 277.828198 
L 451.280632 259.977682 
L 452.306462 251.587429 
L 453.332292 323.652977 
L 454.358121 317.740718 
L 455.383951 251.352386 
L 457.43561 244.520195 
L 458.461439 314.948269 
L 459.487269 279.689121 
L 460.513099 274.789519 
L 461.538928 263.14474 
L 462.564758 367.927316 
L 463.590587 282.727912 
L 464.616417 318.765653 
L 465.642247 266.939734 
L 467.693906 336.765727 
L 468.719735 284.637528 
L 469.745565 286.562802 
L 470.771394 259.698267 
L 471.797224 330.671179 
L 472.823054 267.151096 
L 473.848883 287.410382 
L 474.874713 282.478225 
L 475.900542 281.594632 
L 476.926372 273.856191 
L 477.952201 251.552938 
L 478.978031 277.516082 
L 480.003861 333.222928 
L 481.02969 281.162212 
L 483.081349 308.643877 
L 484.107179 268.097418 
L 485.133009 310.003055 
L 486.158838 271.8483 
L 487.184668 266.938434 
L 488.210497 271.175272 
L 489.236327 386.62755 
L 490.262156 355.083304 
L 491.287986 254.634852 
L 492.313816 261.072254 
L 493.339645 274.067954 
L 494.365475 281.68669 
L 495.391304 258.074419 
L 496.417134 264.656913 
L 497.442964 270.234195 
L 498.468793 250.010368 
L 499.494623 264.106527 
L 500.520452 262.038561 
L 501.546282 323.681774 
L 502.572111 265.164491 
L 503.597941 272.38228 
L 504.623771 257.875043 
L 505.6496 277.295349 
L 506.67543 278.299803 
L 507.701259 252.876006 
L 508.727089 281.696943 
L 509.752918 286.030922 
L 510.778748 254.268838 
L 511.804578 276.152218 
L 512.830407 276.795124 
L 513.856237 268.82792 
L 514.882066 271.479688 
L 515.907896 246.533108 
L 516.933726 256.641917 
L 517.959555 271.64903 
L 518.985385 262.077062 
L 520.011214 238.579907 
L 521.037044 259.752635 
L 522.062873 253.773314 
L 523.088703 256.188022 
L 524.114533 257.524365 
L 525.140362 265.184332 
L 526.166192 259.244424 
L 527.192021 245.39801 
L 528.217851 265.989445 
L 529.24368 256.641941 
L 530.26951 254.473795 
L 531.29534 248.131564 
L 532.321169 239.049405 
L 533.346999 307.415781 
L 534.372828 273.535441 
L 535.398658 259.832415 
L 536.424488 256.072474 
L 538.476147 267.59176 
L 539.501976 251.885014 
L 540.527806 261.310448 
L 541.553635 294.4685 
L 542.579465 265.194555 
L 543.605295 279.863565 
L 544.631124 171.607966 
L 545.656954 354.581605 
L 546.682783 364.771913 
L 547.708613 275.602685 
L 548.734443 267.257409 
L 549.760272 264.959913 
L 550.786102 253.29477 
L 551.811931 263.871159 
L 552.837761 243.88793 
L 553.86359 402.539367 
L 554.88942 268.121272 
L 555.91525 327.970066 
L 556.941079 259.131527 
L 557.966909 278.302109 
L 558.992738 247.93509 
L 560.018568 241.256677 
L 561.044397 295.023398 
L 562.070227 363.026287 
L 563.096057 294.580793 
L 564.121886 298.876361 
L 565.147716 334.881557 
L 566.173545 313.747637 
L 567.199375 301.122288 
L 568.225205 273.289502 
L 569.251034 279.269128 
L 570.276864 271.764935 
L 571.302693 251.604518 
L 572.328523 280.461156 
L 573.354352 246.707554 
L 574.380182 282.826521 
L 575.406012 254.679161 
L 576.431841 263.712924 
L 577.457671 294.131658 
L 578.4835 285.31256 
L 579.50933 296.691385 
L 580.535159 272.528446 
L 581.560989 272.587104 
L 582.586819 257.141829 
L 583.612648 271.615221 
L 584.638478 279.678286 
L 585.664307 280.293242 
L 586.690137 270.42619 
L 587.715967 263.399519 
L 588.741796 265.369096 
L 589.767626 290.258718 
L 590.793455 259.486245 
L 591.819285 255.176143 
L 592.845114 290.121377 
L 593.870944 279.235037 
L 594.896774 292.354707 
L 595.922603 260.823431 
L 596.948433 267.01997 
L 597.974262 267.634228 
L 599.000092 271.394378 
L 600.025922 285.804981 
L 601.051751 255.919916 
L 602.077581 278.080656 
L 603.10341 260.758432 
L 604.12924 265.774897 
L 605.155069 289.054725 
L 606.180899 279.0195 
L 607.206729 252.306733 
L 609.258388 272.328839 
L 610.284217 262.266455 
L 611.310047 267.349138 
L 612.335876 269.126648 
L 613.361706 255.496763 
L 614.387536 268.918638 
L 615.413365 306.179522 
L 616.439195 269.293776 
L 618.490854 257.075751 
L 619.516684 249.399082 
L 620.542513 264.001428 
L 621.568343 256.41886 
L 622.594172 241.693543 
L 623.620002 240.395378 
L 624.645831 263.989798 
L 625.671661 272.491949 
L 626.697491 269.635678 
L 627.72332 274.028618 
L 628.74915 256.907459 
L 629.774979 261.21774 
L 630.800809 246.639803 
L 631.826638 276.464147 
L 632.852468 261.766291 
L 633.878298 260.599333 
L 634.904127 256.459768 
L 635.929957 256.34731 
L 636.955786 285.378186 
L 639.007446 262.04815 
L 640.033275 290.616693 
L 641.059105 369.01429 
L 642.084934 308.193334 
L 644.136593 277.657749 
L 645.162423 118.711222 
L 646.188253 277.785904 
L 647.214082 328.077733 
L 648.239912 252.790668 
L 649.265741 246.333364 
L 650.291571 262.902414 
L 651.3174 213.90338 
L 652.34323 277.708167 
L 653.36906 236.778644 
L 654.394889 234.384881 
L 655.420719 168.703884 
L 656.446548 221.751664 
L 657.472378 263.411254 
L 658.498208 111.6 
L 659.524037 278.078253 
L 660.549867 261.873536 
L 661.575696 265.540236 
L 662.601526 234.458327 
L 663.627355 279.28461 
L 664.653185 249.882642 
L 665.679015 262.077434 
L 666.704844 243.058896 
L 667.730674 251.225812 
L 668.756503 263.44313 
L 669.782333 258.560875 
L 670.808163 266.634155 
L 671.833992 264.538561 
L 672.859822 300.612143 
L 673.885651 269.624134 
L 674.911481 278.042255 
L 675.93731 271.033313 
L 676.96314 249.119989 
L 677.98897 247.666097 
L 679.014799 248.600975 
L 682.092288 272.410879 
L 683.118117 259.431172 
L 684.143947 256.909376 
L 685.169777 245.722318 
L 686.195606 277.815439 
L 687.221436 294.758456 
L 688.247265 260.070846 
L 689.273095 256.883574 
L 690.298925 254.711625 
L 691.324754 251.03768 
L 692.350584 253.674636 
L 693.376413 273.413353 
L 695.428072 249.89028 
L 696.453902 245.940384 
L 697.479732 255.840314 
L 698.505561 241.553184 
L 699.531391 262.069848 
L 700.55722 248.866435 
L 701.58305 278.268119 
L 702.608879 269.304712 
L 703.634709 254.764342 
L 704.660539 242.639708 
L 705.686368 283.81608 
L 706.712198 249.860982 
L 707.738027 247.381923 
L 708.763857 255.03592 
L 709.789687 254.966033 
L 710.815516 258.416331 
L 711.841346 252.001266 
L 712.867175 256.263521 
L 713.893005 240.434917 
L 714.918834 248.748852 
L 715.944664 248.613384 
L 716.970494 263.564852 
L 717.996323 255.679621 
L 719.022153 249.246704 
L 720.047982 253.629895 
L 721.073812 253.299237 
L 722.099642 252.192941 
L 723.125471 237.828551 
L 724.151301 249.170627 
L 725.17713 250.287949 
L 726.20296 243.896781 
L 727.228789 329.726513 
L 728.254619 231.434288 
L 729.280449 294.435636 
L 730.306278 264.091048 
L 731.332108 241.702456 
L 732.357937 242.219076 
L 733.383767 261.29476 
L 734.409596 263.10303 
L 735.435426 261.357407 
L 736.461256 260.026543 
L 737.487085 251.30988 
L 738.512915 224.174148 
L 739.538744 343.267887 
L 740.564574 245.723421 
L 741.590404 265.057491 
L 742.616233 253.645543 
L 743.642063 249.947789 
L 744.667892 259.11905 
L 745.693722 249.87459 
L 746.719551 255.649028 
L 747.745381 255.337162 
L 748.771211 254.342016 
L 749.79704 249.869453 
L 750.82287 260.882634 
L 751.848699 238.553802 
L 752.874529 254.7088 
L 753.900358 241.425594 
L 754.926188 271.55883 
L 755.952018 251.05869 
L 756.977847 254.801442 
L 758.003677 243.722663 
L 759.029506 253.560065 
L 760.055336 252.678628 
L 761.081166 252.987079 
L 762.106995 251.538715 
L 763.132825 233.902397 
L 764.158654 244.333898 
L 765.184484 244.464319 
L 766.210313 251.735342 
L 767.236143 240.961092 
L 768.261973 253.049161 
L 769.287802 236.189747 
L 770.313632 249.521099 
L 771.339461 252.520116 
L 772.365291 245.681038 
L 773.391121 294.612953 
L 774.41695 253.052589 
L 775.44278 245.935091 
L 776.468609 252.65759 
L 777.494439 233.051499 
L 778.520268 243.983484 
L 779.546098 252.242945 
L 780.571928 239.395811 
L 781.597757 247.66106 
L 782.623587 247.73968 
L 783.649416 241.83973 
L 784.675246 237.508638 
L 785.701075 236.727821 
L 786.726905 244.577067 
L 787.752735 238.499328 
L 788.778564 236.228566 
L 789.804394 370.842916 
L 790.830223 283.847005 
L 791.856053 226.44848 
L 792.881883 243.109175 
L 793.907712 231.401982 
L 794.933542 227.743947 
L 795.959371 311.741555 
L 796.985201 245.121753 
L 798.01103 284.217126 
L 800.06269 244.468537 
L 801.088519 265.313498 
L 803.140178 224.06625 
L 804.166008 259.39683 
L 805.191837 221.081133 
L 806.217667 241.909157 
L 807.243497 245.406067 
L 808.269326 292.393165 
L 809.295156 236.242186 
L 810.320985 247.276184 
L 811.346815 255.217813 
L 812.372645 250.596053 
L 813.398474 234.563798 
L 814.424304 245.049551 
L 815.450133 246.624705 
L 816.475963 239.946074 
L 817.501792 237.026694 
L 818.527622 242.008152 
L 819.553452 247.727495 
L 820.579281 248.633546 
L 821.605111 238.697434 
L 822.63094 246.735771 
L 823.65677 244.911913 
L 824.6826 242.47233 
L 825.708429 238.81867 
L 826.734259 247.118935 
L 827.760088 236.593779 
L 828.785918 247.574975 
L 829.811747 245.070845 
L 830.837577 236.848856 
L 831.863407 238.719658 
L 832.889236 242.150981 
L 833.915066 250.774589 
L 834.940895 244.491907 
L 835.966725 246.583816 
L 836.992554 240.245968 
L 838.018384 256.847199 
L 839.044214 237.473426 
L 840.070043 182.246748 
L 841.095873 249.045008 
L 842.121702 250.664682 
L 843.147532 235.746782 
L 844.173362 252.73234 
L 845.199191 238.189588 
L 846.225021 244.923392 
L 847.25085 268.239875 
L 848.27668 253.348915 
L 849.302509 232.798865 
L 850.328339 344.375566 
L 851.354169 232.049 
L 852.379998 239.58363 
L 853.405828 378.89083 
L 854.431657 266.86776 
L 855.457487 227.839405 
L 856.483316 235.13529 
L 857.509146 229.693366 
L 858.534976 221.51979 
L 859.560805 227.801555 
L 860.586635 230.505781 
L 861.612464 226.531155 
L 862.638294 234.600842 
L 863.664124 222.778218 
L 864.689953 287.867778 
L 865.715783 224.918725 
L 866.741612 227.633028 
L 867.767442 229.417944 
L 868.793271 238.175733 
L 869.819101 235.956752 
L 870.844931 235.842528 
L 871.87076 221.47966 
L 872.89659 237.036381 
L 873.922419 239.055462 
L 874.948249 231.94703 
L 875.974078 245.793172 
L 876.999908 252.610932 
L 878.025738 234.420827 
L 879.051567 224.299643 
L 880.077397 226.689538 
L 881.103226 229.713889 
L 882.129056 243.094986 
L 883.154886 218.73082 
L 884.180715 231.026432 
L 885.206545 227.737651 
L 886.232374 230.285552 
L 887.258204 229.316705 
L 888.284033 227.963588 
L 889.309863 233.705861 
L 890.335693 235.443037 
L 891.361522 261.606212 
L 892.387352 233.902398 
L 893.413181 233.555555 
L 894.439011 231.86182 
L 895.464841 227.648453 
L 896.49067 227.911024 
L 897.5165 231.062129 
L 898.542329 320.065621 
L 899.568159 209.888518 
L 900.593988 253.582027 
L 901.619818 234.60129 
L 902.645648 227.458512 
L 903.671477 236.337608 
L 904.697307 231.628686 
L 905.723136 211.338014 
L 906.748966 240.144598 
L 907.774795 215.979179 
L 908.800625 228.46354 
L 909.826455 133.517923 
L 910.852284 227.13939 
L 911.878114 226.533141 
L 912.903943 223.989294 
L 913.929773 229.929446 
L 914.955603 226.335637 
L 915.981432 218.322898 
L 917.007262 231.679394 
L 918.033091 222.032216 
L 919.058921 220.66899 
L 920.08475 221.76921 
L 921.11058 218.471816 
L 922.13641 225.814315 
L 923.162239 220.81683 
L 924.188069 210.809177 
L 925.213898 234.73447 
L 926.239728 230.308626 
L 927.265557 187.692397 
L 928.291387 263.180167 
L 929.317217 204.928823 
L 930.343046 319.6379 
L 931.368876 255.771619 
L 932.394705 222.582771 
L 933.420535 261.596491 
L 934.446365 236.448148 
L 935.472194 229.251079 
L 936.498024 212.039351 
L 937.523853 225.473517 
L 938.549683 293.746077 
L 939.575512 121.453968 
L 940.601342 224.879578 
L 941.627172 220.145049 
L 942.653001 236.59334 
L 943.678831 255.121035 
L 944.70466 209.21563 
L 945.73049 229.218214 
L 946.75632 223.056683 
L 947.782149 182.994772 
L 948.807979 233.432819 
L 949.833808 215.054309 
L 950.859638 199.159219 
L 951.885467 241.621918 
L 952.911297 230.726767 
L 953.937127 228.206918 
L 954.962956 274.090359 
L 955.988786 224.603226 
L 957.014615 268.284748 
L 958.040445 243.959254 
L 959.066274 227.822377 
L 960.092104 237.914333 
L 961.117934 221.774387 
L 962.143763 220.39654 
L 963.169593 227.153149 
L 964.195422 230.699439 
L 965.221252 227.989758 
L 966.247082 232.095277 
L 967.272911 228.203574 
L 968.298741 185.05885 
L 969.32457 274.807479 
L 970.3504 193.551889 
L 971.376229 197.103688 
L 972.402059 184.759405 
L 973.427889 228.740557 
L 974.453718 243.931204 
L 975.479548 237.653975 
L 976.505377 250.266137 
L 977.531207 229.080033 
L 978.557036 215.05684 
L 979.582866 236.954505 
L 980.608696 236.667798 
L 981.634525 199.626338 
L 982.660355 267.983804 
L 983.686184 225.400774 
L 984.712014 284.687406 
L 985.737844 233.851567 
L 986.763673 233.83555 
L 987.789503 260.350103 
L 989.841162 230.195299 
L 990.866991 237.179196 
L 991.892821 238.006391 
L 992.918651 241.211024 
L 993.94448 236.28434 
L 994.97031 224.032252 
L 995.996139 247.758913 
L 997.021969 250.328153 
L 998.047799 235.148326 
L 999.073628 242.362899 
L 1000.099458 239.093118 
L 1001.125287 240.466817 
L 1002.151117 268.331022 
L 1003.176946 235.707256 
L 1004.202776 232.866565 
L 1005.228606 226.649742 
L 1006.254435 232.927396 
L 1007.280265 243.017068 
L 1008.306094 265.536986 
L 1009.331924 242.391419 
L 1010.357753 230.721951 
L 1011.383583 226.551382 
L 1012.409413 246.238641 
L 1013.435242 241.448083 
L 1014.461072 231.610229 
L 1015.486901 157.971426 
L 1016.512731 319.724734 
L 1017.538561 215.016359 
L 1018.56439 210.44287 
L 1019.59022 261.2666 
L 1020.616049 228.668623 
L 1021.641879 240.729465 
L 1022.667708 237.083158 
L 1023.693538 228.181956 
L 1024.719368 236.363419 
L 1025.745197 217.302167 
L 1026.771027 235.163358 
L 1027.796856 228.953703 
L 1028.822686 219.69277 
L 1029.848515 243.015323 
L 1030.874345 239.831666 
L 1031.900175 223.217297 
L 1032.926004 240.208583 
L 1033.951834 239.009483 
L 1034.977663 232.456256 
L 1036.003493 157.632167 
L 1037.029323 251.235991 
L 1038.055152 279.421714 
L 1039.080982 241.17641 
L 1040.106811 277.03087 
L 1041.132641 267.178848 
L 1042.15847 240.373826 
L 1043.1843 230.4185 
L 1044.21013 226.00727 
L 1045.235959 235.882914 
L 1046.261789 230.281285 
L 1047.287618 237.585738 
L 1048.313448 237.288376 
L 1049.339278 229.052795 
L 1050.365107 240.269779 
L 1051.390937 237.366552 
L 1052.416766 235.051082 
L 1053.442596 231.78524 
L 1054.468425 231.561331 
L 1056.520085 221.533579 
L 1057.545914 242.110479 
L 1058.571744 239.276405 
L 1059.597573 227.601217 
L 1060.623403 287.225672 
L 1061.649232 236.700942 
L 1062.675062 246.074483 
L 1063.700892 236.822494 
L 1064.726721 242.834294 
L 1065.752551 235.617421 
L 1066.77838 141.84563 
L 1067.80421 365.7526 
L 1068.83004 234.735141 
L 1069.855869 234.473731 
L 1070.881699 224.023081 
L 1071.907528 225.668621 
L 1072.933358 223.245155 
L 1073.959187 232.709032 
L 1074.985017 237.20084 
L 1076.010847 200.706143 
L 1077.036676 232.578283 
L 1078.062506 215.552415 
L 1079.088335 321.138168 
L 1080.114165 239.20231 
L 1081.139994 228.706046 
L 1082.165824 229.53935 
L 1083.191654 232.580549 
L 1084.217483 224.345099 
L 1085.243313 262.106168 
L 1086.269142 241.319708 
L 1087.294972 242.949821 
L 1088.320802 266.636845 
L 1089.346631 220.903295 
L 1090.372461 238.855687 
L 1091.39829 233.987782 
L 1092.42412 231.127463 
L 1093.449949 275.217349 
L 1094.475779 226.937778 
L 1095.501609 229.016361 
L 1096.527438 273.442583 
L 1097.553268 245.306554 
L 1098.579097 229.693494 
L 1099.604927 270.156502 
L 1100.630757 235.893909 
L 1101.656586 233.652353 
L 1102.682416 240.546483 
L 1103.708245 229.701764 
L 1104.734075 231.221624 
L 1105.759904 224.597465 
L 1106.785734 222.332415 
L 1107.811564 236.083075 
L 1108.837393 253.137896 
L 1109.863223 251.689651 
L 1110.889052 208.932568 
L 1111.914882 282.879786 
L 1112.940711 191.634475 
L 1113.966541 237.879771 
L 1114.992371 235.540907 
L 1116.0182 121.253782 
L 1117.04403 228.797784 
L 1118.069859 238.507249 
L 1119.095689 242.092404 
L 1120.121519 233.536392 
L 1121.147348 221.212526 
L 1122.173178 224.027134 
L 1123.199007 244.897509 
L 1124.224837 234.934921 
L 1125.250666 228.824095 
L 1126.276496 227.4385 
L 1127.302326 243.898139 
L 1128.328155 229.793416 
L 1129.353985 237.307384 
L 1130.379814 259.397686 
L 1131.405644 229.039921 
L 1132.431473 232.769018 
L 1133.457303 217.298188 
L 1134.483133 222.149927 
L 1135.508962 139.732023 
L 1136.534792 235.595899 
L 1137.560621 231.739029 
L 1138.586451 246.029016 
L 1139.612281 234.508657 
L 1140.63811 240.944734 
L 1141.66394 223.327607 
L 1142.689769 240.987987 
L 1143.715599 245.061135 
L 1144.741428 241.332595 
L 1145.767258 224.753133 
L 1146.793088 242.395247 
L 1147.818917 230.526498 
L 1148.844747 232.399417 
L 1149.870576 216.565336 
L 1150.896406 235.617748 
L 1151.922235 234.463339 
L 1152.948065 234.962442 
L 1153.973895 225.479417 
L 1154.999724 221.207651 
L 1156.025554 241.419679 
L 1157.051383 233.498997 
L 1158.077213 203.682364 
L 1159.103043 227.306275 
L 1160.128872 229.634668 
L 1161.154702 234.417894 
L 1162.180531 237.91943 
L 1163.206361 224.637022 
L 1164.23219 242.344809 
L 1165.25802 276.720263 
L 1166.28385 224.40581 
L 1167.309679 265.275016 
L 1168.335509 245.554007 
L 1169.361338 233.699073 
L 1170.387168 228.387626 
L 1171.412998 222.178745 
L 1172.438827 230.627029 
L 1173.464657 244.55243 
L 1174.490486 220.807876 
L 1175.516316 203.245054 
L 1176.542145 269.373502 
L 1177.567975 208.670395 
L 1178.593805 233.894037 
L 1179.619634 229.65514 
L 1181.671293 235.144099 
L 1182.697123 235.850873 
L 1183.722952 226.016459 
L 1184.748782 238.50788 
L 1185.774612 233.409299 
L 1186.800441 232.766137 
L 1187.826271 264.473825 
L 1188.8521 234.649049 
L 1189.87793 227.510104 
L 1190.90376 241.66315 
L 1191.929589 241.874743 
L 1192.955419 241.78457 
L 1193.981248 233.16277 
L 1195.007078 237.073846 
L 1196.032907 233.529336 
L 1197.058737 233.336801 
L 1198.084567 233.944826 
L 1199.110396 230.837116 
L 1200.136226 241.338363 
L 1201.162055 233.101386 
L 1202.187885 232.808372 
L 1203.213714 231.807626 
L 1204.239544 300.403375 
L 1205.265374 226.13148 
L 1206.291203 237.69678 
L 1207.317033 225.515576 
L 1208.342862 217.771693 
L 1209.368692 232.882596 
L 1210.394522 278.388778 
L 1211.420351 178.960874 
L 1212.446181 237.152378 
L 1213.47201 226.888704 
L 1214.49784 233.524068 
L 1215.523669 232.421636 
L 1216.549499 246.228276 
L 1217.575329 235.135492 
L 1218.601158 239.252107 
L 1219.626988 239.845753 
L 1220.652817 225.342469 
L 1221.678647 271.048345 
L 1222.704477 233.982383 
L 1223.730306 225.331969 
L 1224.756136 268.112613 
L 1225.781965 237.85251 
L 1226.807795 199.806923 
L 1227.833624 238.989741 
L 1228.859454 201.477438 
L 1229.885284 212.318071 
L 1230.911113 233.0405 
L 1231.936943 233.842738 
L 1232.962772 231.820998 
L 1233.988602 226.686972 
L 1235.014431 234.709912 
L 1236.040261 228.63972 
L 1237.066091 231.440788 
L 1238.09192 231.809072 
L 1239.11775 227.696808 
L 1240.143579 225.979231 
L 1241.169409 233.056275 
L 1242.195239 228.143397 
L 1243.221068 238.656324 
L 1244.246898 228.801609 
L 1245.272727 234.934789 
L 1245.272727 234.934789 
" style="fill:none;stroke:#1f77b4;stroke-linecap:square;stroke-width:1.5;"/>
   </g>
   <g id="line2d_18">
    <path clip-path="url(#p1cbeac9e87)" d="M 230.727273 571.687345 
L 231.753102 531.250722 
L 232.778932 540.154422 
L 233.804761 532.189967 
L 234.830591 548.974511 
L 235.856421 533.38221 
L 236.88225 538.200427 
L 237.90808 541.885911 
L 238.933909 553.536206 
L 239.959739 547.115522 
L 240.985569 551.395254 
L 242.011398 550.466944 
L 243.037228 557.278747 
L 244.063057 555.088069 
L 245.088887 553.873791 
L 246.114716 555.385335 
L 247.140546 558.417898 
L 248.166376 558.435986 
L 249.192205 552.104694 
L 250.218035 560.414723 
L 251.243864 554.64237 
L 252.269694 552.247789 
L 253.295523 563.02901 
L 254.321353 556.731596 
L 255.347183 565.14711 
L 256.373012 561.488027 
L 257.398842 556.08796 
L 258.424671 562.086737 
L 259.450501 566.574013 
L 260.476331 559.285849 
L 261.50216 565.70124 
L 262.52799 565.85462 
L 263.553819 554.151848 
L 264.579649 563.630786 
L 265.605478 551.80235 
L 266.631308 548.229158 
L 267.657138 569.855126 
L 268.682967 560.696082 
L 269.708797 571.746577 
L 270.734626 566.484704 
L 271.760456 557.365123 
L 272.786286 566.36331 
L 273.812115 562.167948 
L 274.837945 543.637483 
L 275.863774 569.092812 
L 276.889604 562.446763 
L 277.915433 572.189203 
L 278.941263 560.958542 
L 279.967093 567.743513 
L 280.992922 559.057236 
L 283.044581 568.407987 
L 284.070411 548.95102 
L 285.09624 557.6218 
L 286.12207 570.178506 
L 287.1479 564.481723 
L 288.173729 567.350206 
L 289.199559 562.494549 
L 290.225388 549.139243 
L 291.251218 561.740231 
L 292.277048 568.262205 
L 293.302877 563.458046 
L 294.328707 566.464607 
L 295.354536 562.530051 
L 296.380366 565.126703 
L 297.406195 556.173562 
L 298.432025 549.617193 
L 300.483684 558.583166 
L 301.509514 546.48507 
L 302.535343 549.513161 
L 303.561173 551.969141 
L 304.587002 553.360306 
L 305.612832 554.220733 
L 306.638662 553.400761 
L 307.664491 566.133464 
L 308.690321 565.934204 
L 309.71615 541.727544 
L 310.74198 567.786077 
L 311.76781 557.595569 
L 312.793639 560.548184 
L 313.819469 553.734904 
L 314.845298 553.658745 
L 315.871128 561.340925 
L 316.896957 554.893793 
L 317.922787 552.232757 
L 318.948617 559.486447 
L 319.974446 552.626074 
L 321.000276 552.646411 
L 322.026105 553.826435 
L 323.051935 557.91009 
L 324.077765 555.978182 
L 325.103594 561.19437 
L 326.129424 556.212313 
L 327.155253 566.599493 
L 328.181083 554.70991 
L 329.206912 552.765373 
L 330.232742 555.457973 
L 331.258572 583.534722 
L 332.284401 546.562842 
L 333.310231 558.732579 
L 334.33606 567.375416 
L 335.36189 562.16764 
L 336.387719 544.496044 
L 337.413549 565.286829 
L 338.439379 545.027606 
L 339.465208 551.590495 
L 340.491038 555.457909 
L 341.516867 561.789473 
L 342.542697 549.166628 
L 343.568527 578.963591 
L 344.594356 556.252237 
L 345.620186 563.221366 
L 346.646015 556.732517 
L 348.697674 566.949877 
L 349.723504 564.811424 
L 350.749334 553.66555 
L 351.775163 567.368021 
L 352.800993 567.418595 
L 353.826822 570.462286 
L 354.852652 557.958262 
L 355.878481 559.661917 
L 356.904311 563.945535 
L 357.930141 590.53155 
L 358.95597 563.349935 
L 359.9818 586.059336 
L 361.007629 560.923836 
L 362.033459 566.338628 
L 363.059289 559.524361 
L 364.085118 568.075791 
L 365.110948 558.687127 
L 366.136777 569.942001 
L 367.162607 562.222032 
L 368.188436 564.157829 
L 369.214266 556.572664 
L 370.240096 570.017308 
L 371.265925 555.588027 
L 372.291755 559.410881 
L 373.317584 555.735395 
L 374.343414 568.819254 
L 375.369243 554.348074 
L 376.395073 567.887242 
L 377.420903 552.971569 
L 378.446732 562.902681 
L 379.472562 554.359568 
L 380.498391 563.569962 
L 381.524221 552.777907 
L 382.550051 563.641571 
L 383.57588 558.474399 
L 384.60171 555.272891 
L 385.627539 560.360103 
L 386.653369 556.62429 
L 387.679198 562.574526 
L 388.705028 555.526551 
L 389.730858 560.884814 
L 390.756687 558.908132 
L 391.782517 562.421486 
L 392.808346 557.438667 
L 393.834176 563.190294 
L 394.860006 557.569884 
L 395.885835 563.137719 
L 396.911665 556.011948 
L 397.937494 558.048198 
L 398.963324 559.11529 
L 399.989153 556.256663 
L 401.014983 560.403124 
L 402.040813 554.26938 
L 403.066642 552.616669 
L 404.092472 560.962068 
L 405.118301 556.430868 
L 406.144131 563.848248 
L 407.16996 556.59553 
L 408.19579 567.524088 
L 409.22162 556.732042 
L 410.247449 560.887575 
L 411.273279 559.435804 
L 412.299108 559.946507 
L 413.324938 559.275818 
L 414.350768 557.530048 
L 415.376597 560.01381 
L 416.402427 560.522301 
L 417.428256 547.768257 
L 418.454086 561.571011 
L 419.479915 555.085383 
L 420.505745 561.846246 
L 421.531575 557.742569 
L 422.557404 564.956827 
L 423.583234 559.005797 
L 424.609063 566.687504 
L 425.634893 555.90025 
L 426.660722 615.6 
L 427.686552 592.178163 
L 428.712382 564.098411 
L 429.738211 553.803743 
L 430.764041 555.98399 
L 431.78987 550.973684 
L 432.8157 563.625953 
L 433.84153 557.842899 
L 434.867359 556.00447 
L 435.893189 552.418739 
L 436.919018 558.097338 
L 437.944848 558.334687 
L 438.970677 560.0471 
L 439.996507 557.976495 
L 441.022337 557.689402 
L 442.048166 552.856766 
L 443.073996 562.532387 
L 444.099825 554.362786 
L 445.125655 561.410028 
L 446.151485 559.659301 
L 447.177314 559.247894 
L 448.203144 553.738007 
L 449.228973 596.01506 
L 450.254803 558.589591 
L 451.280632 563.540624 
L 452.306462 558.197958 
L 453.332292 546.75621 
L 454.358121 559.105005 
L 455.383951 564.83375 
L 456.40978 550.366485 
L 457.43561 561.204436 
L 458.461439 547.797735 
L 459.487269 567.829499 
L 460.513099 553.362099 
L 461.538928 600.891197 
L 462.564758 557.519964 
L 463.590587 561.793725 
L 464.616417 556.346464 
L 465.642247 557.808005 
L 466.668076 557.564454 
L 467.693906 555.763372 
L 468.719735 549.688314 
L 469.745565 560.201631 
L 470.771394 552.832918 
L 471.797224 560.321401 
L 472.823054 564.466607 
L 473.848883 491.500535 
L 474.874713 555.738527 
L 475.900542 562.779756 
L 476.926372 550.85038 
L 477.952201 554.989076 
L 478.978031 547.181393 
L 480.003861 559.039715 
L 481.02969 591.633703 
L 482.05552 560.219789 
L 483.081349 549.784665 
L 484.107179 578.980172 
L 485.133009 549.674691 
L 486.158838 557.919082 
L 487.184668 554.70324 
L 488.210497 560.390365 
L 489.236327 553.068659 
L 490.262156 560.342267 
L 491.287986 550.506334 
L 492.313816 560.625332 
L 493.339645 550.616857 
L 494.365475 561.362463 
L 495.391304 551.166916 
L 496.417134 558.248015 
L 497.442964 553.081709 
L 498.468793 556.312152 
L 499.494623 548.120129 
L 500.520452 559.527684 
L 501.546282 552.320117 
L 502.572111 557.068965 
L 503.597941 553.764806 
L 504.623771 555.664501 
L 505.6496 548.627722 
L 506.67543 556.630184 
L 507.701259 551.770247 
L 508.727089 559.393204 
L 509.752918 551.798574 
L 510.778748 560.245215 
L 511.804578 547.620849 
L 512.830407 557.929969 
L 513.856237 548.275517 
L 514.882066 558.901895 
L 515.907896 547.343456 
L 516.933726 558.480306 
L 517.959555 551.629032 
L 518.985385 555.199862 
L 520.011214 549.283043 
L 521.037044 562.811009 
L 522.062873 552.75376 
L 523.088703 557.554875 
L 524.114533 550.43128 
L 525.140362 555.541547 
L 526.166192 552.812747 
L 527.192021 499.294012 
L 528.217851 552.094628 
L 529.24368 559.502754 
L 530.26951 546.177612 
L 531.29534 556.656243 
L 532.321169 234.416262 
L 533.346999 255.141494 
L 534.372828 551.326517 
L 535.398658 562.845472 
L 536.424488 557.678266 
L 537.450317 560.038917 
L 538.476147 549.32431 
L 539.501976 561.603281 
L 540.527806 547.708012 
L 541.553635 555.795697 
L 542.579465 546.032241 
L 543.605295 557.742255 
L 544.631124 546.609904 
L 545.656954 553.91743 
L 546.682783 546.198552 
L 547.708613 556.337013 
L 548.734443 555.736847 
L 549.760272 548.53576 
L 550.786102 555.239169 
L 551.811931 547.441603 
L 552.837761 554.289622 
L 553.86359 541.765378 
L 554.88942 552.740059 
L 555.91525 548.352484 
L 556.941079 555.756359 
L 557.966909 547.005279 
L 560.018568 562.001437 
L 561.044397 554.282028 
L 562.070227 548.418777 
L 563.096057 557.157518 
L 564.121886 546.276593 
L 565.147716 557.147224 
L 566.173545 542.299246 
L 567.199375 558.324673 
L 568.225205 556.285944 
L 569.251034 554.983597 
L 570.276864 550.914691 
L 571.302693 556.9068 
L 572.328523 546.624717 
L 573.354352 551.311689 
L 574.380182 546.66496 
L 575.406012 557.83347 
L 576.431841 544.22894 
L 577.457671 553.018457 
L 578.4835 544.602683 
L 579.50933 554.538507 
L 580.535159 546.28339 
L 581.560989 556.457596 
L 582.586819 546.653338 
L 583.612648 552.491753 
L 584.638478 544.293123 
L 585.664307 557.23235 
L 586.690137 550.327751 
L 587.715967 553.976465 
L 588.741796 546.459339 
L 589.767626 551.833903 
L 590.793455 569.236542 
L 592.845114 545.082301 
L 593.870944 556.337645 
L 594.896774 555.397321 
L 595.922603 544.579132 
L 596.948433 554.129052 
L 597.974262 545.912626 
L 599.000092 554.674511 
L 600.025922 543.624249 
L 601.051751 557.451982 
L 602.077581 543.539661 
L 603.10341 554.472887 
L 604.12924 544.345856 
L 605.155069 555.341757 
L 606.180899 545.647153 
L 607.206729 557.177012 
L 608.232558 549.289922 
L 609.258388 575.310603 
L 610.284217 547.359224 
L 611.310047 556.345054 
L 612.335876 546.424579 
L 613.361706 557.534812 
L 614.387536 531.758239 
L 615.413365 559.410341 
L 616.439195 551.875057 
L 617.465024 553.044496 
L 618.490854 551.069511 
L 619.516684 570.843749 
L 620.542513 546.386717 
L 621.568343 560.021239 
L 622.594172 539.444019 
L 623.620002 555.813324 
L 624.645831 539.629305 
L 625.671661 560.977254 
L 626.697491 550.210552 
L 627.72332 537.271384 
L 628.74915 545.011804 
L 629.774979 557.575172 
L 630.800809 564.862313 
L 631.826638 554.090631 
L 632.852468 541.659866 
L 633.878298 557.539464 
L 634.904127 547.394547 
L 635.929957 556.849433 
L 636.955786 544.84986 
L 637.981616 543.806843 
L 639.007446 547.909525 
L 640.033275 557.990595 
L 641.059105 544.322497 
L 642.084934 561.822713 
L 643.110764 542.97798 
L 644.136593 555.030892 
L 645.162423 544.358786 
L 646.188253 553.84887 
L 647.214082 554.447265 
L 648.239912 544.629893 
L 649.265741 555.468687 
L 650.291571 547.868162 
L 651.3174 556.15527 
L 652.34323 545.553595 
L 653.36906 558.290668 
L 654.394889 543.255748 
L 655.420719 557.390511 
L 656.446548 548.770042 
L 657.472378 555.11365 
L 658.498208 547.196817 
L 659.524037 557.415342 
L 660.549867 543.021964 
L 661.575696 554.353501 
L 662.601526 538.94548 
L 663.627355 561.753972 
L 664.653185 548.123877 
L 665.679015 555.197209 
L 666.704844 549.940661 
L 667.730674 555.21215 
L 668.756503 549.006502 
L 669.782333 554.485034 
L 670.808163 554.42922 
L 672.859822 547.299168 
L 673.885651 560.025008 
L 674.911481 543.472515 
L 675.93731 554.843081 
L 676.96314 610.738786 
L 677.98897 557.451132 
L 679.014799 546.73919 
L 680.040629 563.303527 
L 681.066458 544.858913 
L 682.092288 555.132392 
L 683.118117 546.479765 
L 684.143947 554.216746 
L 685.169777 548.832915 
L 686.195606 560.398032 
L 687.221436 544.058286 
L 688.247265 555.622209 
L 689.273095 548.423597 
L 690.298925 561.050743 
L 691.324754 549.613217 
L 692.350584 558.043269 
L 693.376413 563.947582 
L 695.428072 540.622981 
L 696.453902 603.91415 
L 697.479732 549.842447 
L 698.505561 557.910533 
L 699.531391 542.790668 
L 700.55722 555.224239 
L 701.58305 545.393226 
L 702.608879 555.581992 
L 703.634709 549.841833 
L 704.660539 560.808496 
L 705.686368 549.211249 
L 706.712198 547.456255 
L 707.738027 549.595843 
L 708.763857 556.858776 
L 709.789687 548.946783 
L 710.815516 557.214096 
L 711.841346 549.826993 
L 712.867175 555.800378 
L 713.893005 550.086691 
L 714.918834 558.040941 
L 715.944664 573.012814 
L 717.996323 545.874404 
L 719.022153 539.779765 
L 720.047982 550.285172 
L 721.073812 557.165534 
L 722.099642 550.019766 
L 723.125471 556.238019 
L 724.151301 551.511594 
L 725.17713 558.244708 
L 726.20296 546.619373 
L 727.228789 556.413614 
L 728.254619 549.883243 
L 729.280449 556.907351 
L 730.306278 548.301062 
L 731.332108 557.106319 
L 732.357937 549.526506 
L 733.383767 557.990464 
L 734.409596 549.460907 
L 735.435426 556.382236 
L 736.461256 546.588766 
L 737.487085 560.322924 
L 738.512915 545.549499 
L 739.538744 559.062986 
L 740.564574 547.62002 
L 741.590404 555.485051 
L 742.616233 550.563164 
L 743.642063 561.803899 
L 744.667892 555.017105 
L 745.693722 558.925789 
L 746.719551 552.906026 
L 747.745381 570.640004 
L 748.771211 551.116115 
L 749.79704 557.853514 
L 750.82287 549.251908 
L 751.848699 557.966569 
L 752.874529 549.440283 
L 753.900358 557.541933 
L 754.926188 549.424784 
L 755.952018 558.112838 
L 756.977847 549.376916 
L 758.003677 559.076608 
L 759.029506 549.658231 
L 760.055336 557.755049 
L 761.081166 548.036476 
L 762.106995 557.4407 
L 763.132825 547.26248 
L 764.158654 560.119409 
L 765.184484 565.313153 
L 766.210313 556.318618 
L 767.236143 545.903402 
L 768.261973 556.67445 
L 769.287802 545.409201 
L 770.313632 571.164821 
L 771.339461 548.252096 
L 772.365291 556.246908 
L 773.391121 572.597356 
L 774.41695 557.545715 
L 775.44278 548.212773 
L 776.468609 554.223746 
L 777.494439 542.650724 
L 778.520268 555.281793 
L 779.546098 546.027681 
L 780.571928 559.215442 
L 781.597757 547.924304 
L 782.623587 553.173012 
L 783.649416 545.35916 
L 784.675246 557.393084 
L 785.701075 547.48486 
L 786.726905 554.771944 
L 787.752735 553.976735 
L 788.778564 555.421356 
L 789.804394 552.897262 
L 790.830223 557.547137 
L 791.856053 553.161739 
L 792.881883 559.337977 
L 793.907712 547.463069 
L 794.933542 560.423184 
L 795.959371 549.138639 
L 796.985201 559.795791 
L 798.01103 554.266652 
L 799.03686 559.901232 
L 800.06269 550.897389 
L 801.088519 561.204897 
L 802.114349 548.040717 
L 803.140178 554.165819 
L 804.166008 548.078072 
L 805.191837 557.271746 
L 806.217667 549.233743 
L 807.243497 556.955124 
L 808.269326 549.198516 
L 809.295156 558.136729 
L 810.320985 548.829565 
L 811.346815 558.77714 
L 812.372645 550.494988 
L 813.398474 557.645632 
L 814.424304 548.909296 
L 815.450133 558.301678 
L 816.475963 548.640944 
L 817.501792 559.159838 
L 818.527622 549.604362 
L 819.553452 560.059246 
L 820.579281 547.705897 
L 821.605111 557.059867 
L 822.63094 550.795691 
L 823.65677 557.0752 
L 824.6826 549.170794 
L 825.708429 557.40881 
L 826.734259 546.428193 
L 827.760088 559.096891 
L 828.785918 554.886188 
L 829.811747 557.948017 
L 830.837577 547.330712 
L 831.863407 553.732238 
L 832.889236 549.692791 
L 833.915066 558.765382 
L 834.940895 552.442344 
L 835.966725 559.545975 
L 836.992554 548.342137 
L 838.018384 555.403156 
L 839.044214 549.187895 
L 840.070043 558.418934 
L 841.095873 550.479899 
L 842.121702 559.999068 
L 843.147532 549.529717 
L 844.173362 557.585811 
L 845.199191 549.725691 
L 846.225021 557.202214 
L 847.25085 550.935281 
L 848.27668 557.93397 
L 849.302509 556.335554 
L 850.328339 560.262038 
L 851.354169 550.259121 
L 852.379998 558.395195 
L 853.405828 548.315573 
L 854.431657 558.026229 
L 855.457487 549.39645 
L 856.483316 556.107631 
L 857.509146 550.38398 
L 858.534976 560.219636 
L 859.560805 548.906894 
L 860.586635 557.771777 
L 861.612464 548.565987 
L 862.638294 556.958838 
L 863.664124 549.933148 
L 864.689953 556.874603 
L 865.715783 547.143497 
L 866.741612 558.125638 
L 867.767442 546.790457 
L 868.793271 556.690797 
L 869.819101 549.655426 
L 870.844931 557.60897 
L 871.87076 549.134808 
L 872.89659 559.319283 
L 873.922419 548.190436 
L 874.948249 557.617798 
L 875.974078 548.37301 
L 876.999908 557.291958 
L 878.025738 552.484101 
L 879.051567 556.642473 
L 880.077397 551.484178 
L 881.103226 560.662767 
L 882.129056 561.082644 
L 883.154886 555.796742 
L 884.180715 551.290604 
L 885.206545 556.462225 
L 886.232374 549.899338 
L 887.258204 554.295787 
L 888.284033 546.339115 
L 889.309863 555.362627 
L 890.335693 549.49992 
L 891.361522 555.58416 
L 892.387352 548.223201 
L 893.413181 561.01822 
L 894.439011 549.513224 
L 895.464841 557.399093 
L 896.49067 547.047925 
L 897.5165 556.02901 
L 898.542329 546.739701 
L 899.568159 557.818697 
L 900.593988 550.922163 
L 901.619818 559.480172 
L 902.645648 551.511049 
L 903.671477 562.348436 
L 904.697307 551.171872 
L 905.723136 558.349351 
L 906.748966 547.221762 
L 907.774795 560.895875 
L 908.800625 549.683366 
L 909.826455 560.182795 
L 910.852284 550.052825 
L 911.878114 569.163203 
L 912.903943 549.474032 
L 913.929773 560.813177 
L 914.955603 551.470237 
L 915.981432 557.561758 
L 917.007262 551.174008 
L 918.033091 558.178752 
L 919.058921 549.781238 
L 920.08475 560.001683 
L 921.11058 550.17584 
L 922.13641 559.531649 
L 923.162239 550.973304 
L 924.188069 557.517844 
L 925.213898 548.409432 
L 926.239728 582.243975 
L 927.265557 553.208309 
L 928.291387 563.307678 
L 929.317217 549.92882 
L 930.343046 563.849974 
L 931.368876 551.940919 
L 932.394705 557.180372 
L 933.420535 555.543627 
L 934.446365 561.096964 
L 935.472194 551.23013 
L 936.498024 556.680253 
L 937.523853 549.887663 
L 938.549683 558.940113 
L 939.575512 551.050062 
L 940.601342 542.100451 
L 941.627172 550.656274 
L 942.653001 557.052097 
L 943.678831 576.07841 
L 944.70466 562.33084 
L 945.73049 550.134713 
L 946.75632 561.865571 
L 947.782149 554.118003 
L 948.807979 559.889753 
L 949.833808 552.562937 
L 950.859638 559.018855 
L 951.885467 554.109809 
L 952.911297 560.018118 
L 953.937127 551.234416 
L 954.962956 562.871389 
L 955.988786 552.440063 
L 957.014615 557.34734 
L 958.040445 553.830183 
L 959.066274 568.018379 
L 960.092104 549.574126 
L 961.117934 558.142545 
L 962.143763 551.58426 
L 963.169593 559.80161 
L 964.195422 550.02222 
L 965.221252 559.716509 
L 966.247082 549.339116 
L 967.272911 559.745057 
L 968.298741 550.320903 
L 969.32457 562.419164 
L 970.3504 551.495846 
L 971.376229 558.738711 
L 972.402059 553.905268 
L 973.427889 556.818613 
L 974.453718 578.708893 
L 975.479548 560.373019 
L 976.505377 551.387101 
L 977.531207 588.07845 
L 978.557036 546.325103 
L 979.582866 554.633706 
L 980.608696 554.472161 
L 981.634525 562.130472 
L 982.660355 550.607585 
L 983.686184 559.340244 
L 984.712014 551.254345 
L 985.737844 559.317237 
L 986.763673 552.51057 
L 987.789503 550.100472 
L 988.815332 548.269675 
L 989.841162 557.150779 
L 990.866991 550.810665 
L 991.892821 561.087717 
L 992.918651 548.68372 
L 993.94448 558.430414 
L 994.97031 549.275635 
L 995.996139 560.143247 
L 997.021969 550.98175 
L 998.047799 561.388068 
L 999.073628 554.504741 
L 1000.099458 562.062695 
L 1001.125287 552.03548 
L 1003.176946 570.244867 
L 1004.202776 566.709537 
L 1005.228606 552.607699 
L 1006.254435 560.758537 
L 1007.280265 546.398979 
L 1008.306094 563.62857 
L 1009.331924 553.645163 
L 1010.357753 556.382892 
L 1011.383583 528.125022 
L 1012.409413 560.590272 
L 1013.435242 551.028971 
L 1014.461072 558.730007 
L 1015.486901 551.646229 
L 1016.512731 557.591838 
L 1017.538561 551.325495 
L 1018.56439 558.924764 
L 1019.59022 551.409563 
L 1020.616049 559.733571 
L 1021.641879 548.776999 
L 1022.667708 557.713753 
L 1023.693538 551.860881 
L 1024.719368 568.38995 
L 1025.745197 546.452781 
L 1026.771027 559.951515 
L 1027.796856 548.498592 
L 1028.822686 560.438106 
L 1029.848515 554.38511 
L 1030.874345 562.491188 
L 1031.900175 552.638757 
L 1032.926004 561.107841 
L 1033.951834 553.80719 
L 1034.977663 564.108669 
L 1036.003493 552.454953 
L 1037.029323 560.775841 
L 1038.055152 552.065747 
L 1039.080982 560.906624 
L 1040.106811 551.254453 
L 1041.132641 559.110119 
L 1042.15847 551.961417 
L 1043.1843 559.581498 
L 1044.21013 552.70986 
L 1045.235959 560.122239 
L 1046.261789 563.097477 
L 1047.287618 561.515789 
L 1048.313448 552.337962 
L 1049.339278 559.454188 
L 1050.365107 550.763882 
L 1051.390937 568.488182 
L 1052.416766 548.206097 
L 1053.442596 560.912212 
L 1054.468425 551.713565 
L 1055.494255 559.727854 
L 1056.520085 552.37322 
L 1057.545914 560.931531 
L 1058.571744 551.725792 
L 1059.597573 558.794946 
L 1060.623403 550.963942 
L 1061.649232 560.480061 
L 1062.675062 550.110964 
L 1063.700892 559.244093 
L 1064.726721 551.179292 
L 1065.752551 571.247992 
L 1066.77838 550.292661 
L 1067.80421 559.258862 
L 1068.83004 551.526963 
L 1069.855869 560.124025 
L 1070.881699 553.297146 
L 1071.907528 556.099054 
L 1072.933358 553.363103 
L 1073.959187 559.758769 
L 1074.985017 553.989016 
L 1076.010847 560.583905 
L 1077.036676 550.270753 
L 1078.062506 557.82859 
L 1079.088335 549.965021 
L 1080.114165 558.851305 
L 1081.139994 548.916288 
L 1082.165824 558.82969 
L 1083.191654 550.558308 
L 1084.217483 559.176285 
L 1085.243313 543.70951 
L 1086.269142 563.549852 
L 1087.294972 550.934488 
L 1088.320802 557.574655 
L 1089.346631 544.944004 
L 1090.372461 556.509183 
L 1091.39829 551.875752 
L 1092.42412 559.440348 
L 1093.449949 556.231667 
L 1094.475779 560.327627 
L 1095.501609 561.433352 
L 1096.527438 558.311109 
L 1097.553268 548.890323 
L 1098.579097 560.304386 
L 1099.604927 556.964897 
L 1100.630757 561.01637 
L 1101.656586 553.275546 
L 1102.682416 561.619212 
L 1103.708245 550.802645 
L 1104.734075 559.35719 
L 1105.759904 549.960156 
L 1106.785734 557.022193 
L 1107.811564 553.567257 
L 1108.837393 564.37245 
L 1109.863223 547.5658 
L 1110.889052 562.404795 
L 1111.914882 549.934859 
L 1112.940711 561.195235 
L 1113.966541 552.115324 
L 1114.992371 568.723464 
L 1116.0182 551.403724 
L 1117.04403 559.883553 
L 1118.069859 552.445853 
L 1119.095689 559.873794 
L 1120.121519 550.177433 
L 1121.147348 559.654451 
L 1122.173178 551.168369 
L 1123.199007 560.750721 
L 1124.224837 548.811456 
L 1125.250666 558.87187 
L 1126.276496 549.991099 
L 1127.302326 560.084705 
L 1128.328155 551.867815 
L 1129.353985 560.678205 
L 1130.379814 552.26022 
L 1131.405644 556.37304 
L 1132.431473 551.812611 
L 1133.457303 558.590963 
L 1134.483133 551.696044 
L 1135.508962 560.160824 
L 1136.534792 545.229976 
L 1137.560621 559.61178 
L 1138.586451 553.430862 
L 1139.612281 566.196118 
L 1140.63811 550.734016 
L 1141.66394 560.18497 
L 1142.689769 550.398931 
L 1143.715599 558.518875 
L 1144.741428 549.602714 
L 1145.767258 558.018012 
L 1146.793088 550.748472 
L 1147.818917 557.636655 
L 1148.844747 547.749168 
L 1149.870576 556.52255 
L 1150.896406 549.146136 
L 1151.922235 559.832784 
L 1152.948065 550.128977 
L 1153.973895 556.658286 
L 1154.999724 544.564057 
L 1156.025554 557.364649 
L 1157.051383 554.96199 
L 1158.077213 566.714334 
L 1159.103043 546.623296 
L 1160.128872 557.894485 
L 1161.154702 550.336418 
L 1162.180531 559.857449 
L 1163.206361 563.608385 
L 1164.23219 560.999353 
L 1165.25802 546.677091 
L 1166.28385 561.730855 
L 1167.309679 553.141491 
L 1168.335509 558.432937 
L 1169.361338 551.106814 
L 1170.387168 578.560386 
L 1171.412998 552.914603 
L 1172.438827 560.189211 
L 1173.464657 549.723199 
L 1174.490486 559.955707 
L 1175.516316 553.122279 
L 1176.542145 558.072722 
L 1177.567975 550.691215 
L 1178.593805 557.923956 
L 1179.619634 549.416597 
L 1180.645464 560.819852 
L 1181.671293 549.224295 
L 1182.697123 560.643024 
L 1183.722952 549.906905 
L 1184.748782 559.513082 
L 1185.774612 550.701967 
L 1186.800441 557.532848 
L 1187.826271 551.164765 
L 1188.8521 560.340752 
L 1189.87793 551.44317 
L 1190.90376 559.398417 
L 1191.929589 577.864331 
L 1193.981248 546.745108 
L 1195.007078 561.5319 
L 1196.032907 551.214435 
L 1197.058737 558.773211 
L 1198.084567 544.942049 
L 1199.110396 561.955376 
L 1200.136226 544.621875 
L 1201.162055 556.761048 
L 1202.187885 549.18972 
L 1203.213714 564.146497 
L 1204.239544 549.295466 
L 1205.265374 554.619674 
L 1206.291203 550.262378 
L 1207.317033 560.820666 
L 1208.342862 552.86267 
L 1209.368692 556.657174 
L 1210.394522 549.88973 
L 1211.420351 553.267671 
L 1212.446181 549.99056 
L 1213.47201 558.996668 
L 1214.49784 551.59494 
L 1215.523669 551.605858 
L 1216.549499 554.150589 
L 1217.575329 554.762445 
L 1218.601158 552.700976 
L 1219.626988 576.859652 
L 1220.652817 580.655151 
L 1221.678647 576.301924 
L 1222.704477 554.939315 
L 1223.730306 584.653681 
L 1224.756136 583.946349 
L 1225.781965 555.10626 
L 1226.807795 570.038024 
L 1228.859454 547.413364 
L 1229.885284 553.704083 
L 1230.911113 549.59477 
L 1231.936943 556.090777 
L 1232.962772 550.040627 
L 1233.988602 559.582312 
L 1235.014431 548.355679 
L 1236.040261 554.086395 
L 1237.066091 558.851415 
L 1238.09192 557.520408 
L 1239.11775 548.556716 
L 1240.143579 552.214344 
L 1241.169409 554.458378 
L 1242.195239 589.432503 
L 1243.221068 545.608476 
L 1244.246898 561.949742 
L 1245.272727 550.541835 
L 1245.272727 550.541835 
" style="fill:none;stroke:#ff7f0e;stroke-linecap:square;stroke-width:1.5;"/>
   </g>
   <g id="patch_3">
    <path d="M 180 640.8 
L 180 86.4 
" style="fill:none;stroke:#000000;stroke-linecap:square;stroke-linejoin:miter;stroke-width:0.8;"/>
   </g>
   <g id="patch_4">
    <path d="M 1296 640.8 
L 1296 86.4 
" style="fill:none;stroke:#000000;stroke-linecap:square;stroke-linejoin:miter;stroke-width:0.8;"/>
   </g>
   <g id="patch_5">
    <path d="M 180 640.8 
L 1296 640.8 
" style="fill:none;stroke:#000000;stroke-linecap:square;stroke-linejoin:miter;stroke-width:0.8;"/>
   </g>
   <g id="patch_6">
    <path d="M 180 86.4 
L 1296 86.4 
" style="fill:none;stroke:#000000;stroke-linecap:square;stroke-linejoin:miter;stroke-width:0.8;"/>
   </g>
   <g id="text_19">
    <!-- KAMA Speedup -->
    <defs>
     <path d="M 9.8125 72.90625 
L 19.671875 72.90625 
L 19.671875 42.09375 
L 52.390625 72.90625 
L 65.09375 72.90625 
L 28.90625 38.921875 
L 67.671875 0 
L 54.6875 0 
L 19.671875 35.109375 
L 19.671875 0 
L 9.8125 0 
z
" id="DejaVuSans-75"/>
     <path d="M 34.1875 63.1875 
L 20.796875 26.90625 
L 47.609375 26.90625 
z
M 28.609375 72.90625 
L 39.796875 72.90625 
L 67.578125 0 
L 57.328125 0 
L 50.6875 18.703125 
L 17.828125 18.703125 
L 11.1875 0 
L 0.78125 0 
z
" id="DejaVuSans-65"/>
     <path d="M 9.8125 72.90625 
L 24.515625 72.90625 
L 43.109375 23.296875 
L 61.8125 72.90625 
L 76.515625 72.90625 
L 76.515625 0 
L 66.890625 0 
L 66.890625 64.015625 
L 48.09375 14.015625 
L 38.1875 14.015625 
L 19.390625 64.015625 
L 19.390625 0 
L 9.8125 0 
z
" id="DejaVuSans-77"/>
     <path id="DejaVuSans-32"/>
     <path d="M 53.515625 70.515625 
L 53.515625 60.890625 
Q 47.90625 63.578125 42.921875 64.890625 
Q 37.9375 66.21875 33.296875 66.21875 
Q 25.25 66.21875 20.875 63.09375 
Q 16.5 59.96875 16.5 54.203125 
Q 16.5 49.359375 19.40625 46.890625 
Q 22.3125 44.4375 30.421875 42.921875 
L 36.375 41.703125 
Q 47.40625 39.59375 52.65625 34.296875 
Q 57.90625 29 57.90625 20.125 
Q 57.90625 9.515625 50.796875 4.046875 
Q 43.703125 -1.421875 29.984375 -1.421875 
Q 24.8125 -1.421875 18.96875 -0.25 
Q 13.140625 0.921875 6.890625 3.21875 
L 6.890625 13.375 
Q 12.890625 10.015625 18.65625 8.296875 
Q 24.421875 6.59375 29.984375 6.59375 
Q 38.421875 6.59375 43.015625 9.90625 
Q 47.609375 13.234375 47.609375 19.390625 
Q 47.609375 24.75 44.3125 27.78125 
Q 41.015625 30.8125 33.5 32.328125 
L 27.484375 33.5 
Q 16.453125 35.6875 11.515625 40.375 
Q 6.59375 45.0625 6.59375 53.421875 
Q 6.59375 63.09375 13.40625 68.65625 
Q 20.21875 74.21875 32.171875 74.21875 
Q 37.3125 74.21875 42.625 73.28125 
Q 47.953125 72.359375 53.515625 70.515625 
z
" id="DejaVuSans-83"/>
    </defs>
    <g transform="translate(692.455312 80.4)scale(0.12 -0.12)">
     <use xlink:href="#DejaVuSans-75"/>
     <use x="63.826172" xlink:href="#DejaVuSans-65"/>
     <use x="132.234375" xlink:href="#DejaVuSans-77"/>
     <use x="218.513672" xlink:href="#DejaVuSans-65"/>
     <use x="286.921875" xlink:href="#DejaVuSans-32"/>
     <use x="318.708984" xlink:href="#DejaVuSans-83"/>
     <use x="382.185547" xlink:href="#DejaVuSans-112"/>
     <use x="445.662109" xlink:href="#DejaVuSans-101"/>
     <use x="507.185547" xlink:href="#DejaVuSans-101"/>
     <use x="568.708984" xlink:href="#DejaVuSans-100"/>
     <use x="632.185547" xlink:href="#DejaVuSans-117"/>
     <use x="695.564453" xlink:href="#DejaVuSans-112"/>
    </g>
   </g>
   <g id="legend_1">
    <g id="patch_7">
     <path d="M 1185.373437 123.75625 
L 1289 123.75625 
Q 1291 123.75625 1291 121.75625 
L 1291 93.4 
Q 1291 91.4 1289 91.4 
L 1185.373437 91.4 
Q 1183.373437 91.4 1183.373437 93.4 
L 1183.373437 121.75625 
Q 1183.373437 123.75625 1185.373437 123.75625 
z
" style="fill:#ffffff;opacity:0.8;stroke:#cccccc;stroke-linejoin:miter;"/>
    </g>
    <g id="line2d_19">
     <path d="M 1187.373437 99.498437 
L 1207.373437 99.498437 
" style="fill:none;stroke:#1f77b4;stroke-linecap:square;stroke-width:1.5;"/>
    </g>
    <g id="line2d_20"/>
    <g id="text_20">
     <!-- numpy.float32 -->
     <defs>
      <path d="M 52 44.1875 
Q 55.375 50.25 60.0625 53.125 
Q 64.75 56 71.09375 56 
Q 79.640625 56 84.28125 50.015625 
Q 88.921875 44.046875 88.921875 33.015625 
L 88.921875 0 
L 79.890625 0 
L 79.890625 32.71875 
Q 79.890625 40.578125 77.09375 44.375 
Q 74.3125 48.1875 68.609375 48.1875 
Q 61.625 48.1875 57.5625 43.546875 
Q 53.515625 38.921875 53.515625 30.90625 
L 53.515625 0 
L 44.484375 0 
L 44.484375 32.71875 
Q 44.484375 40.625 41.703125 44.40625 
Q 38.921875 48.1875 33.109375 48.1875 
Q 26.21875 48.1875 22.15625 43.53125 
Q 18.109375 38.875 18.109375 30.90625 
L 18.109375 0 
L 9.078125 0 
L 9.078125 54.6875 
L 18.109375 54.6875 
L 18.109375 46.1875 
Q 21.1875 51.21875 25.484375 53.609375 
Q 29.78125 56 35.6875 56 
Q 41.65625 56 45.828125 52.96875 
Q 50 49.953125 52 44.1875 
z
" id="DejaVuSans-109"/>
      <path d="M 32.171875 -5.078125 
Q 28.375 -14.84375 24.75 -17.8125 
Q 21.140625 -20.796875 15.09375 -20.796875 
L 7.90625 -20.796875 
L 7.90625 -13.28125 
L 13.1875 -13.28125 
Q 16.890625 -13.28125 18.9375 -11.515625 
Q 21 -9.765625 23.484375 -3.21875 
L 25.09375 0.875 
L 2.984375 54.6875 
L 12.5 54.6875 
L 29.59375 11.921875 
L 46.6875 54.6875 
L 56.203125 54.6875 
z
" id="DejaVuSans-121"/>
      <path d="M 37.109375 75.984375 
L 37.109375 68.5 
L 28.515625 68.5 
Q 23.6875 68.5 21.796875 66.546875 
Q 19.921875 64.59375 19.921875 59.515625 
L 19.921875 54.6875 
L 34.71875 54.6875 
L 34.71875 47.703125 
L 19.921875 47.703125 
L 19.921875 0 
L 10.890625 0 
L 10.890625 47.703125 
L 2.296875 47.703125 
L 2.296875 54.6875 
L 10.890625 54.6875 
L 10.890625 58.5 
Q 10.890625 67.625 15.140625 71.796875 
Q 19.390625 75.984375 28.609375 75.984375 
z
" id="DejaVuSans-102"/>
      <path d="M 9.421875 75.984375 
L 18.40625 75.984375 
L 18.40625 0 
L 9.421875 0 
z
" id="DejaVuSans-108"/>
      <path d="M 30.609375 48.390625 
Q 23.390625 48.390625 19.1875 42.75 
Q 14.984375 37.109375 14.984375 27.296875 
Q 14.984375 17.484375 19.15625 11.84375 
Q 23.34375 6.203125 30.609375 6.203125 
Q 37.796875 6.203125 41.984375 11.859375 
Q 46.1875 17.53125 46.1875 27.296875 
Q 46.1875 37.015625 41.984375 42.703125 
Q 37.796875 48.390625 30.609375 48.390625 
z
M 30.609375 56 
Q 42.328125 56 49.015625 48.375 
Q 55.71875 40.765625 55.71875 27.296875 
Q 55.71875 13.875 49.015625 6.21875 
Q 42.328125 -1.421875 30.609375 -1.421875 
Q 18.84375 -1.421875 12.171875 6.21875 
Q 5.515625 13.875 5.515625 27.296875 
Q 5.515625 40.765625 12.171875 48.375 
Q 18.84375 56 30.609375 56 
z
" id="DejaVuSans-111"/>
      <path d="M 34.28125 27.484375 
Q 23.390625 27.484375 19.1875 25 
Q 14.984375 22.515625 14.984375 16.5 
Q 14.984375 11.71875 18.140625 8.90625 
Q 21.296875 6.109375 26.703125 6.109375 
Q 34.1875 6.109375 38.703125 11.40625 
Q 43.21875 16.703125 43.21875 25.484375 
L 43.21875 27.484375 
z
M 52.203125 31.203125 
L 52.203125 0 
L 43.21875 0 
L 43.21875 8.296875 
Q 40.140625 3.328125 35.546875 0.953125 
Q 30.953125 -1.421875 24.3125 -1.421875 
Q 15.921875 -1.421875 10.953125 3.296875 
Q 6 8.015625 6 15.921875 
Q 6 25.140625 12.171875 29.828125 
Q 18.359375 34.515625 30.609375 34.515625 
L 43.21875 34.515625 
L 43.21875 35.40625 
Q 43.21875 41.609375 39.140625 45 
Q 35.0625 48.390625 27.6875 48.390625 
Q 23 48.390625 18.546875 47.265625 
Q 14.109375 46.140625 10.015625 43.890625 
L 10.015625 52.203125 
Q 14.9375 54.109375 19.578125 55.046875 
Q 24.21875 56 28.609375 56 
Q 40.484375 56 46.34375 49.84375 
Q 52.203125 43.703125 52.203125 31.203125 
z
" id="DejaVuSans-97"/>
      <path d="M 18.3125 70.21875 
L 18.3125 54.6875 
L 36.8125 54.6875 
L 36.8125 47.703125 
L 18.3125 47.703125 
L 18.3125 18.015625 
Q 18.3125 11.328125 20.140625 9.421875 
Q 21.96875 7.515625 27.59375 7.515625 
L 36.8125 7.515625 
L 36.8125 0 
L 27.59375 0 
Q 17.1875 0 13.234375 3.875 
Q 9.28125 7.765625 9.28125 18.015625 
L 9.28125 47.703125 
L 2.6875 47.703125 
L 2.6875 54.6875 
L 9.28125 54.6875 
L 9.28125 70.21875 
z
" id="DejaVuSans-116"/>
     </defs>
     <g transform="translate(1215.373437 102.998437)scale(0.1 -0.1)">
      <use xlink:href="#DejaVuSans-110"/>
      <use x="63.378906" xlink:href="#DejaVuSans-117"/>
      <use x="126.757812" xlink:href="#DejaVuSans-109"/>
      <use x="224.169922" xlink:href="#DejaVuSans-112"/>
      <use x="287.646484" xlink:href="#DejaVuSans-121"/>
      <use x="332.576172" xlink:href="#DejaVuSans-46"/>
      <use x="364.363281" xlink:href="#DejaVuSans-102"/>
      <use x="399.568359" xlink:href="#DejaVuSans-108"/>
      <use x="427.351562" xlink:href="#DejaVuSans-111"/>
      <use x="488.533203" xlink:href="#DejaVuSans-97"/>
      <use x="549.8125" xlink:href="#DejaVuSans-116"/>
      <use x="589.021484" xlink:href="#DejaVuSans-51"/>
      <use x="652.644531" xlink:href="#DejaVuSans-50"/>
     </g>
    </g>
    <g id="line2d_21">
     <path d="M 1187.373437 114.176562 
L 1207.373437 114.176562 
" style="fill:none;stroke:#ff7f0e;stroke-linecap:square;stroke-width:1.5;"/>
    </g>
    <g id="line2d_22"/>
    <g id="text_21">
     <!-- numpy.float64 -->
     <g transform="translate(1215.373437 117.676562)scale(0.1 -0.1)">
      <use xlink:href="#DejaVuSans-110"/>
      <use x="63.378906" xlink:href="#DejaVuSans-117"/>
      <use x="126.757812" xlink:href="#DejaVuSans-109"/>
      <use x="224.169922" xlink:href="#DejaVuSans-112"/>
      <use x="287.646484" xlink:href="#DejaVuSans-121"/>
      <use x="332.576172" xlink:href="#DejaVuSans-46"/>
      <use x="364.363281" xlink:href="#DejaVuSans-102"/>
      <use x="399.568359" xlink:href="#DejaVuSans-108"/>
      <use x="427.351562" xlink:href="#DejaVuSans-111"/>
      <use x="488.533203" xlink:href="#DejaVuSans-97"/>
      <use x="549.8125" xlink:href="#DejaVuSans-116"/>
      <use x="589.021484" xlink:href="#DejaVuSans-54"/>
      <use x="652.644531" xlink:href="#DejaVuSans-52"/>
     </g>
    </g>
   </g>
  </g>
 </g>
 <defs>
  <clipPath id="p1cbeac9e87">
   <rect height="554.4" width="1116" x="180" y="86.4"/>
  </clipPath>
 </defs>
</svg>
