<?xml version="1.0" encoding="utf-8" standalone="no"?>
<!DOCTYPE svg PUBLIC "-//W3C//DTD SVG 1.1//EN"
  "http://www.w3.org/Graphics/SVG/1.1/DTD/svg11.dtd">
<!-- Created with matplotlib (https://matplotlib.org/) -->
<svg height="720pt" version="1.1" viewBox="0 0 1440 720" width="1440pt" xmlns="http://www.w3.org/2000/svg" xmlns:xlink="http://www.w3.org/1999/xlink">
 <defs>
  <style type="text/css">
*{stroke-linecap:butt;stroke-linejoin:round;}
  </style>
 </defs>
 <g id="figure_1">
  <g id="patch_1">
   <path d="M 0 720 
L 1440 720 
L 1440 0 
L 0 0 
z
" style="fill:#ffffff;"/>
  </g>
  <g id="axes_1">
   <g id="patch_2">
    <path d="M 180 640.8 
L 1296 640.8 
L 1296 86.4 
L 180 86.4 
z
" style="fill:#ffffff;"/>
   </g>
   <g id="matplotlib.axis_1">
    <g id="xtick_1">
     <g id="line2d_1">
      <defs>
       <path d="M 0 0 
L 0 3.5 
" id="m6fe4be8768" style="stroke:#000000;stroke-width:0.8;"/>
      </defs>
      <g>
       <use style="stroke:#000000;stroke-width:0.8;" x="333.310231" xlink:href="#m6fe4be8768" y="640.8"/>
      </g>
     </g>
     <g id="text_1">
      <!-- 100.0 -->
      <defs>
       <path d="M 12.40625 8.296875 
L 28.515625 8.296875 
L 28.515625 63.921875 
L 10.984375 60.40625 
L 10.984375 69.390625 
L 28.421875 72.90625 
L 38.28125 72.90625 
L 38.28125 8.296875 
L 54.390625 8.296875 
L 54.390625 0 
L 12.40625 0 
z
" id="DejaVuSans-49"/>
       <path d="M 31.78125 66.40625 
Q 24.171875 66.40625 20.328125 58.90625 
Q 16.5 51.421875 16.5 36.375 
Q 16.5 21.390625 20.328125 13.890625 
Q 24.171875 6.390625 31.78125 6.390625 
Q 39.453125 6.390625 43.28125 13.890625 
Q 47.125 21.390625 47.125 36.375 
Q 47.125 51.421875 43.28125 58.90625 
Q 39.453125 66.40625 31.78125 66.40625 
z
M 31.78125 74.21875 
Q 44.046875 74.21875 50.515625 64.515625 
Q 56.984375 54.828125 56.984375 36.375 
Q 56.984375 17.96875 50.515625 8.265625 
Q 44.046875 -1.421875 31.78125 -1.421875 
Q 19.53125 -1.421875 13.0625 8.265625 
Q 6.59375 17.96875 6.59375 36.375 
Q 6.59375 54.828125 13.0625 64.515625 
Q 19.53125 74.21875 31.78125 74.21875 
z
" id="DejaVuSans-48"/>
       <path d="M 10.6875 12.40625 
L 21 12.40625 
L 21 0 
L 10.6875 0 
z
" id="DejaVuSans-46"/>
      </defs>
      <g transform="translate(318.996168 655.398438)scale(0.1 -0.1)">
       <use xlink:href="#DejaVuSans-49"/>
       <use x="63.623047" xlink:href="#DejaVuSans-48"/>
       <use x="127.246094" xlink:href="#DejaVuSans-48"/>
       <use x="190.869141" xlink:href="#DejaVuSans-46"/>
       <use x="222.65625" xlink:href="#DejaVuSans-48"/>
      </g>
     </g>
    </g>
    <g id="xtick_2">
     <g id="line2d_2">
      <g>
       <use style="stroke:#000000;stroke-width:0.8;" x="435.893189" xlink:href="#m6fe4be8768" y="640.8"/>
      </g>
     </g>
     <g id="text_2">
      <!-- 200.0 -->
      <defs>
       <path d="M 19.1875 8.296875 
L 53.609375 8.296875 
L 53.609375 0 
L 7.328125 0 
L 7.328125 8.296875 
Q 12.9375 14.109375 22.625 23.890625 
Q 32.328125 33.6875 34.8125 36.53125 
Q 39.546875 41.84375 41.421875 45.53125 
Q 43.3125 49.21875 43.3125 52.78125 
Q 43.3125 58.59375 39.234375 62.25 
Q 35.15625 65.921875 28.609375 65.921875 
Q 23.96875 65.921875 18.8125 64.3125 
Q 13.671875 62.703125 7.8125 59.421875 
L 7.8125 69.390625 
Q 13.765625 71.78125 18.9375 73 
Q 24.125 74.21875 28.421875 74.21875 
Q 39.75 74.21875 46.484375 68.546875 
Q 53.21875 62.890625 53.21875 53.421875 
Q 53.21875 48.921875 51.53125 44.890625 
Q 49.859375 40.875 45.40625 35.40625 
Q 44.1875 33.984375 37.640625 27.21875 
Q 31.109375 20.453125 19.1875 8.296875 
z
" id="DejaVuSans-50"/>
      </defs>
      <g transform="translate(421.579126 655.398438)scale(0.1 -0.1)">
       <use xlink:href="#DejaVuSans-50"/>
       <use x="63.623047" xlink:href="#DejaVuSans-48"/>
       <use x="127.246094" xlink:href="#DejaVuSans-48"/>
       <use x="190.869141" xlink:href="#DejaVuSans-46"/>
       <use x="222.65625" xlink:href="#DejaVuSans-48"/>
      </g>
     </g>
    </g>
    <g id="xtick_3">
     <g id="line2d_3">
      <g>
       <use style="stroke:#000000;stroke-width:0.8;" x="538.476147" xlink:href="#m6fe4be8768" y="640.8"/>
      </g>
     </g>
     <g id="text_3">
      <!-- 300.0 -->
      <defs>
       <path d="M 40.578125 39.3125 
Q 47.65625 37.796875 51.625 33 
Q 55.609375 28.21875 55.609375 21.1875 
Q 55.609375 10.40625 48.1875 4.484375 
Q 40.765625 -1.421875 27.09375 -1.421875 
Q 22.515625 -1.421875 17.65625 -0.515625 
Q 12.796875 0.390625 7.625 2.203125 
L 7.625 11.71875 
Q 11.71875 9.328125 16.59375 8.109375 
Q 21.484375 6.890625 26.8125 6.890625 
Q 36.078125 6.890625 40.9375 10.546875 
Q 45.796875 14.203125 45.796875 21.1875 
Q 45.796875 27.640625 41.28125 31.265625 
Q 36.765625 34.90625 28.71875 34.90625 
L 20.21875 34.90625 
L 20.21875 43.015625 
L 29.109375 43.015625 
Q 36.375 43.015625 40.234375 45.921875 
Q 44.09375 48.828125 44.09375 54.296875 
Q 44.09375 59.90625 40.109375 62.90625 
Q 36.140625 65.921875 28.71875 65.921875 
Q 24.65625 65.921875 20.015625 65.03125 
Q 15.375 64.15625 9.8125 62.3125 
L 9.8125 71.09375 
Q 15.4375 72.65625 20.34375 73.4375 
Q 25.25 74.21875 29.59375 74.21875 
Q 40.828125 74.21875 47.359375 69.109375 
Q 53.90625 64.015625 53.90625 55.328125 
Q 53.90625 49.265625 50.4375 45.09375 
Q 46.96875 40.921875 40.578125 39.3125 
z
" id="DejaVuSans-51"/>
      </defs>
      <g transform="translate(524.162084 655.398438)scale(0.1 -0.1)">
       <use xlink:href="#DejaVuSans-51"/>
       <use x="63.623047" xlink:href="#DejaVuSans-48"/>
       <use x="127.246094" xlink:href="#DejaVuSans-48"/>
       <use x="190.869141" xlink:href="#DejaVuSans-46"/>
       <use x="222.65625" xlink:href="#DejaVuSans-48"/>
      </g>
     </g>
    </g>
    <g id="xtick_4">
     <g id="line2d_4">
      <g>
       <use style="stroke:#000000;stroke-width:0.8;" x="641.059105" xlink:href="#m6fe4be8768" y="640.8"/>
      </g>
     </g>
     <g id="text_4">
      <!-- 400.0 -->
      <defs>
       <path d="M 37.796875 64.3125 
L 12.890625 25.390625 
L 37.796875 25.390625 
z
M 35.203125 72.90625 
L 47.609375 72.90625 
L 47.609375 25.390625 
L 58.015625 25.390625 
L 58.015625 17.1875 
L 47.609375 17.1875 
L 47.609375 0 
L 37.796875 0 
L 37.796875 17.1875 
L 4.890625 17.1875 
L 4.890625 26.703125 
z
" id="DejaVuSans-52"/>
      </defs>
      <g transform="translate(626.745042 655.398438)scale(0.1 -0.1)">
       <use xlink:href="#DejaVuSans-52"/>
       <use x="63.623047" xlink:href="#DejaVuSans-48"/>
       <use x="127.246094" xlink:href="#DejaVuSans-48"/>
       <use x="190.869141" xlink:href="#DejaVuSans-46"/>
       <use x="222.65625" xlink:href="#DejaVuSans-48"/>
      </g>
     </g>
    </g>
    <g id="xtick_5">
     <g id="line2d_5">
      <g>
       <use style="stroke:#000000;stroke-width:0.8;" x="743.642063" xlink:href="#m6fe4be8768" y="640.8"/>
      </g>
     </g>
     <g id="text_5">
      <!-- 500.0 -->
      <defs>
       <path d="M 10.796875 72.90625 
L 49.515625 72.90625 
L 49.515625 64.59375 
L 19.828125 64.59375 
L 19.828125 46.734375 
Q 21.96875 47.46875 24.109375 47.828125 
Q 26.265625 48.1875 28.421875 48.1875 
Q 40.625 48.1875 47.75 41.5 
Q 54.890625 34.8125 54.890625 23.390625 
Q 54.890625 11.625 47.5625 5.09375 
Q 40.234375 -1.421875 26.90625 -1.421875 
Q 22.3125 -1.421875 17.546875 -0.640625 
Q 12.796875 0.140625 7.71875 1.703125 
L 7.71875 11.625 
Q 12.109375 9.234375 16.796875 8.0625 
Q 21.484375 6.890625 26.703125 6.890625 
Q 35.15625 6.890625 40.078125 11.328125 
Q 45.015625 15.765625 45.015625 23.390625 
Q 45.015625 31 40.078125 35.4375 
Q 35.15625 39.890625 26.703125 39.890625 
Q 22.75 39.890625 18.8125 39.015625 
Q 14.890625 38.140625 10.796875 36.28125 
z
" id="DejaVuSans-53"/>
      </defs>
      <g transform="translate(729.328 655.398438)scale(0.1 -0.1)">
       <use xlink:href="#DejaVuSans-53"/>
       <use x="63.623047" xlink:href="#DejaVuSans-48"/>
       <use x="127.246094" xlink:href="#DejaVuSans-48"/>
       <use x="190.869141" xlink:href="#DejaVuSans-46"/>
       <use x="222.65625" xlink:href="#DejaVuSans-48"/>
      </g>
     </g>
    </g>
    <g id="xtick_6">
     <g id="line2d_6">
      <g>
       <use style="stroke:#000000;stroke-width:0.8;" x="846.225021" xlink:href="#m6fe4be8768" y="640.8"/>
      </g>
     </g>
     <g id="text_6">
      <!-- 600.0 -->
      <defs>
       <path d="M 33.015625 40.375 
Q 26.375 40.375 22.484375 35.828125 
Q 18.609375 31.296875 18.609375 23.390625 
Q 18.609375 15.53125 22.484375 10.953125 
Q 26.375 6.390625 33.015625 6.390625 
Q 39.65625 6.390625 43.53125 10.953125 
Q 47.40625 15.53125 47.40625 23.390625 
Q 47.40625 31.296875 43.53125 35.828125 
Q 39.65625 40.375 33.015625 40.375 
z
M 52.59375 71.296875 
L 52.59375 62.3125 
Q 48.875 64.0625 45.09375 64.984375 
Q 41.3125 65.921875 37.59375 65.921875 
Q 27.828125 65.921875 22.671875 59.328125 
Q 17.53125 52.734375 16.796875 39.40625 
Q 19.671875 43.65625 24.015625 45.921875 
Q 28.375 48.1875 33.59375 48.1875 
Q 44.578125 48.1875 50.953125 41.515625 
Q 57.328125 34.859375 57.328125 23.390625 
Q 57.328125 12.15625 50.6875 5.359375 
Q 44.046875 -1.421875 33.015625 -1.421875 
Q 20.359375 -1.421875 13.671875 8.265625 
Q 6.984375 17.96875 6.984375 36.375 
Q 6.984375 53.65625 15.1875 63.9375 
Q 23.390625 74.21875 37.203125 74.21875 
Q 40.921875 74.21875 44.703125 73.484375 
Q 48.484375 72.75 52.59375 71.296875 
z
" id="DejaVuSans-54"/>
      </defs>
      <g transform="translate(831.910958 655.398438)scale(0.1 -0.1)">
       <use xlink:href="#DejaVuSans-54"/>
       <use x="63.623047" xlink:href="#DejaVuSans-48"/>
       <use x="127.246094" xlink:href="#DejaVuSans-48"/>
       <use x="190.869141" xlink:href="#DejaVuSans-46"/>
       <use x="222.65625" xlink:href="#DejaVuSans-48"/>
      </g>
     </g>
    </g>
    <g id="xtick_7">
     <g id="line2d_7">
      <g>
       <use style="stroke:#000000;stroke-width:0.8;" x="948.807979" xlink:href="#m6fe4be8768" y="640.8"/>
      </g>
     </g>
     <g id="text_7">
      <!-- 700.0 -->
      <defs>
       <path d="M 8.203125 72.90625 
L 55.078125 72.90625 
L 55.078125 68.703125 
L 28.609375 0 
L 18.3125 0 
L 43.21875 64.59375 
L 8.203125 64.59375 
z
" id="DejaVuSans-55"/>
      </defs>
      <g transform="translate(934.493916 655.398438)scale(0.1 -0.1)">
       <use xlink:href="#DejaVuSans-55"/>
       <use x="63.623047" xlink:href="#DejaVuSans-48"/>
       <use x="127.246094" xlink:href="#DejaVuSans-48"/>
       <use x="190.869141" xlink:href="#DejaVuSans-46"/>
       <use x="222.65625" xlink:href="#DejaVuSans-48"/>
      </g>
     </g>
    </g>
    <g id="xtick_8">
     <g id="line2d_8">
      <g>
       <use style="stroke:#000000;stroke-width:0.8;" x="1051.390937" xlink:href="#m6fe4be8768" y="640.8"/>
      </g>
     </g>
     <g id="text_8">
      <!-- 800.0 -->
      <defs>
       <path d="M 31.78125 34.625 
Q 24.75 34.625 20.71875 30.859375 
Q 16.703125 27.09375 16.703125 20.515625 
Q 16.703125 13.921875 20.71875 10.15625 
Q 24.75 6.390625 31.78125 6.390625 
Q 38.8125 6.390625 42.859375 10.171875 
Q 46.921875 13.96875 46.921875 20.515625 
Q 46.921875 27.09375 42.890625 30.859375 
Q 38.875 34.625 31.78125 34.625 
z
M 21.921875 38.8125 
Q 15.578125 40.375 12.03125 44.71875 
Q 8.5 49.078125 8.5 55.328125 
Q 8.5 64.0625 14.71875 69.140625 
Q 20.953125 74.21875 31.78125 74.21875 
Q 42.671875 74.21875 48.875 69.140625 
Q 55.078125 64.0625 55.078125 55.328125 
Q 55.078125 49.078125 51.53125 44.71875 
Q 48 40.375 41.703125 38.8125 
Q 48.828125 37.15625 52.796875 32.3125 
Q 56.78125 27.484375 56.78125 20.515625 
Q 56.78125 9.90625 50.3125 4.234375 
Q 43.84375 -1.421875 31.78125 -1.421875 
Q 19.734375 -1.421875 13.25 4.234375 
Q 6.78125 9.90625 6.78125 20.515625 
Q 6.78125 27.484375 10.78125 32.3125 
Q 14.796875 37.15625 21.921875 38.8125 
z
M 18.3125 54.390625 
Q 18.3125 48.734375 21.84375 45.5625 
Q 25.390625 42.390625 31.78125 42.390625 
Q 38.140625 42.390625 41.71875 45.5625 
Q 45.3125 48.734375 45.3125 54.390625 
Q 45.3125 60.0625 41.71875 63.234375 
Q 38.140625 66.40625 31.78125 66.40625 
Q 25.390625 66.40625 21.84375 63.234375 
Q 18.3125 60.0625 18.3125 54.390625 
z
" id="DejaVuSans-56"/>
      </defs>
      <g transform="translate(1037.076874 655.398438)scale(0.1 -0.1)">
       <use xlink:href="#DejaVuSans-56"/>
       <use x="63.623047" xlink:href="#DejaVuSans-48"/>
       <use x="127.246094" xlink:href="#DejaVuSans-48"/>
       <use x="190.869141" xlink:href="#DejaVuSans-46"/>
       <use x="222.65625" xlink:href="#DejaVuSans-48"/>
      </g>
     </g>
    </g>
    <g id="xtick_9">
     <g id="line2d_9">
      <g>
       <use style="stroke:#000000;stroke-width:0.8;" x="1153.973895" xlink:href="#m6fe4be8768" y="640.8"/>
      </g>
     </g>
     <g id="text_9">
      <!-- 900.0 -->
      <defs>
       <path d="M 10.984375 1.515625 
L 10.984375 10.5 
Q 14.703125 8.734375 18.5 7.8125 
Q 22.3125 6.890625 25.984375 6.890625 
Q 35.75 6.890625 40.890625 13.453125 
Q 46.046875 20.015625 46.78125 33.40625 
Q 43.953125 29.203125 39.59375 26.953125 
Q 35.25 24.703125 29.984375 24.703125 
Q 19.046875 24.703125 12.671875 31.3125 
Q 6.296875 37.9375 6.296875 49.421875 
Q 6.296875 60.640625 12.9375 67.421875 
Q 19.578125 74.21875 30.609375 74.21875 
Q 43.265625 74.21875 49.921875 64.515625 
Q 56.59375 54.828125 56.59375 36.375 
Q 56.59375 19.140625 48.40625 8.859375 
Q 40.234375 -1.421875 26.421875 -1.421875 
Q 22.703125 -1.421875 18.890625 -0.6875 
Q 15.09375 0.046875 10.984375 1.515625 
z
M 30.609375 32.421875 
Q 37.25 32.421875 41.125 36.953125 
Q 45.015625 41.5 45.015625 49.421875 
Q 45.015625 57.28125 41.125 61.84375 
Q 37.25 66.40625 30.609375 66.40625 
Q 23.96875 66.40625 20.09375 61.84375 
Q 16.21875 57.28125 16.21875 49.421875 
Q 16.21875 41.5 20.09375 36.953125 
Q 23.96875 32.421875 30.609375 32.421875 
z
" id="DejaVuSans-57"/>
      </defs>
      <g transform="translate(1139.659832 655.398438)scale(0.1 -0.1)">
       <use xlink:href="#DejaVuSans-57"/>
       <use x="63.623047" xlink:href="#DejaVuSans-48"/>
       <use x="127.246094" xlink:href="#DejaVuSans-48"/>
       <use x="190.869141" xlink:href="#DejaVuSans-46"/>
       <use x="222.65625" xlink:href="#DejaVuSans-48"/>
      </g>
     </g>
    </g>
    <g id="xtick_10">
     <g id="line2d_10">
      <g>
       <use style="stroke:#000000;stroke-width:0.8;" x="1256.556853" xlink:href="#m6fe4be8768" y="640.8"/>
      </g>
     </g>
     <g id="text_10">
      <!-- 1000.0 -->
      <g transform="translate(1239.06154 655.398438)scale(0.1 -0.1)">
       <use xlink:href="#DejaVuSans-49"/>
       <use x="63.623047" xlink:href="#DejaVuSans-48"/>
       <use x="127.246094" xlink:href="#DejaVuSans-48"/>
       <use x="190.869141" xlink:href="#DejaVuSans-48"/>
       <use x="254.492188" xlink:href="#DejaVuSans-46"/>
       <use x="286.279297" xlink:href="#DejaVuSans-48"/>
      </g>
     </g>
    </g>
    <g id="text_11">
     <!-- n -->
     <defs>
      <path d="M 54.890625 33.015625 
L 54.890625 0 
L 45.90625 0 
L 45.90625 32.71875 
Q 45.90625 40.484375 42.875 44.328125 
Q 39.84375 48.1875 33.796875 48.1875 
Q 26.515625 48.1875 22.3125 43.546875 
Q 18.109375 38.921875 18.109375 30.90625 
L 18.109375 0 
L 9.078125 0 
L 9.078125 54.6875 
L 18.109375 54.6875 
L 18.109375 46.1875 
Q 21.34375 51.125 25.703125 53.5625 
Q 30.078125 56 35.796875 56 
Q 45.21875 56 50.046875 50.171875 
Q 54.890625 44.34375 54.890625 33.015625 
z
" id="DejaVuSans-110"/>
     </defs>
     <g transform="translate(734.83125 669.076563)scale(0.1 -0.1)">
      <use xlink:href="#DejaVuSans-110"/>
     </g>
    </g>
   </g>
   <g id="matplotlib.axis_2">
    <g id="ytick_1">
     <g id="line2d_11">
      <defs>
       <path d="M 0 0 
L -3.5 0 
" id="mf9e23087b2" style="stroke:#000000;stroke-width:0.8;"/>
      </defs>
      <g>
       <use style="stroke:#000000;stroke-width:0.8;" x="180" xlink:href="#mf9e23087b2" y="640.371657"/>
      </g>
     </g>
     <g id="text_12">
      <!-- 200 -->
      <g transform="translate(153.9125 644.170876)scale(0.1 -0.1)">
       <use xlink:href="#DejaVuSans-50"/>
       <use x="63.623047" xlink:href="#DejaVuSans-48"/>
       <use x="127.246094" xlink:href="#DejaVuSans-48"/>
      </g>
     </g>
    </g>
    <g id="ytick_2">
     <g id="line2d_12">
      <g>
       <use style="stroke:#000000;stroke-width:0.8;" x="180" xlink:href="#mf9e23087b2" y="542.84043"/>
      </g>
     </g>
     <g id="text_13">
      <!-- 400 -->
      <g transform="translate(153.9125 546.639649)scale(0.1 -0.1)">
       <use xlink:href="#DejaVuSans-52"/>
       <use x="63.623047" xlink:href="#DejaVuSans-48"/>
       <use x="127.246094" xlink:href="#DejaVuSans-48"/>
      </g>
     </g>
    </g>
    <g id="ytick_3">
     <g id="line2d_13">
      <g>
       <use style="stroke:#000000;stroke-width:0.8;" x="180" xlink:href="#mf9e23087b2" y="445.309203"/>
      </g>
     </g>
     <g id="text_14">
      <!-- 600 -->
      <g transform="translate(153.9125 449.108422)scale(0.1 -0.1)">
       <use xlink:href="#DejaVuSans-54"/>
       <use x="63.623047" xlink:href="#DejaVuSans-48"/>
       <use x="127.246094" xlink:href="#DejaVuSans-48"/>
      </g>
     </g>
    </g>
    <g id="ytick_4">
     <g id="line2d_14">
      <g>
       <use style="stroke:#000000;stroke-width:0.8;" x="180" xlink:href="#mf9e23087b2" y="347.777976"/>
      </g>
     </g>
     <g id="text_15">
      <!-- 800 -->
      <g transform="translate(153.9125 351.577195)scale(0.1 -0.1)">
       <use xlink:href="#DejaVuSans-56"/>
       <use x="63.623047" xlink:href="#DejaVuSans-48"/>
       <use x="127.246094" xlink:href="#DejaVuSans-48"/>
      </g>
     </g>
    </g>
    <g id="ytick_5">
     <g id="line2d_15">
      <g>
       <use style="stroke:#000000;stroke-width:0.8;" x="180" xlink:href="#mf9e23087b2" y="250.246749"/>
      </g>
     </g>
     <g id="text_16">
      <!-- 1000 -->
      <g transform="translate(147.55 254.045968)scale(0.1 -0.1)">
       <use xlink:href="#DejaVuSans-49"/>
       <use x="63.623047" xlink:href="#DejaVuSans-48"/>
       <use x="127.246094" xlink:href="#DejaVuSans-48"/>
       <use x="190.869141" xlink:href="#DejaVuSans-48"/>
      </g>
     </g>
    </g>
    <g id="ytick_6">
     <g id="line2d_16">
      <g>
       <use style="stroke:#000000;stroke-width:0.8;" x="180" xlink:href="#mf9e23087b2" y="152.715522"/>
      </g>
     </g>
     <g id="text_17">
      <!-- 1200 -->
      <g transform="translate(147.55 156.514741)scale(0.1 -0.1)">
       <use xlink:href="#DejaVuSans-49"/>
       <use x="63.623047" xlink:href="#DejaVuSans-50"/>
       <use x="127.246094" xlink:href="#DejaVuSans-48"/>
       <use x="190.869141" xlink:href="#DejaVuSans-48"/>
      </g>
     </g>
    </g>
    <g id="text_18">
     <!-- speedup -->
     <defs>
      <path d="M 44.28125 53.078125 
L 44.28125 44.578125 
Q 40.484375 46.53125 36.375 47.5 
Q 32.28125 48.484375 27.875 48.484375 
Q 21.1875 48.484375 17.84375 46.4375 
Q 14.5 44.390625 14.5 40.28125 
Q 14.5 37.15625 16.890625 35.375 
Q 19.28125 33.59375 26.515625 31.984375 
L 29.59375 31.296875 
Q 39.15625 29.25 43.1875 25.515625 
Q 47.21875 21.78125 47.21875 15.09375 
Q 47.21875 7.46875 41.1875 3.015625 
Q 35.15625 -1.421875 24.609375 -1.421875 
Q 20.21875 -1.421875 15.453125 -0.5625 
Q 10.6875 0.296875 5.421875 2 
L 5.421875 11.28125 
Q 10.40625 8.6875 15.234375 7.390625 
Q 20.0625 6.109375 24.8125 6.109375 
Q 31.15625 6.109375 34.5625 8.28125 
Q 37.984375 10.453125 37.984375 14.40625 
Q 37.984375 18.0625 35.515625 20.015625 
Q 33.0625 21.96875 24.703125 23.78125 
L 21.578125 24.515625 
Q 13.234375 26.265625 9.515625 29.90625 
Q 5.8125 33.546875 5.8125 39.890625 
Q 5.8125 47.609375 11.28125 51.796875 
Q 16.75 56 26.8125 56 
Q 31.78125 56 36.171875 55.265625 
Q 40.578125 54.546875 44.28125 53.078125 
z
" id="DejaVuSans-115"/>
      <path d="M 18.109375 8.203125 
L 18.109375 -20.796875 
L 9.078125 -20.796875 
L 9.078125 54.6875 
L 18.109375 54.6875 
L 18.109375 46.390625 
Q 20.953125 51.265625 25.265625 53.625 
Q 29.59375 56 35.59375 56 
Q 45.5625 56 51.78125 48.09375 
Q 58.015625 40.1875 58.015625 27.296875 
Q 58.015625 14.40625 51.78125 6.484375 
Q 45.5625 -1.421875 35.59375 -1.421875 
Q 29.59375 -1.421875 25.265625 0.953125 
Q 20.953125 3.328125 18.109375 8.203125 
z
M 48.6875 27.296875 
Q 48.6875 37.203125 44.609375 42.84375 
Q 40.53125 48.484375 33.40625 48.484375 
Q 26.265625 48.484375 22.1875 42.84375 
Q 18.109375 37.203125 18.109375 27.296875 
Q 18.109375 17.390625 22.1875 11.75 
Q 26.265625 6.109375 33.40625 6.109375 
Q 40.53125 6.109375 44.609375 11.75 
Q 48.6875 17.390625 48.6875 27.296875 
z
" id="DejaVuSans-112"/>
      <path d="M 56.203125 29.59375 
L 56.203125 25.203125 
L 14.890625 25.203125 
Q 15.484375 15.921875 20.484375 11.0625 
Q 25.484375 6.203125 34.421875 6.203125 
Q 39.59375 6.203125 44.453125 7.46875 
Q 49.3125 8.734375 54.109375 11.28125 
L 54.109375 2.78125 
Q 49.265625 0.734375 44.1875 -0.34375 
Q 39.109375 -1.421875 33.890625 -1.421875 
Q 20.796875 -1.421875 13.15625 6.1875 
Q 5.515625 13.8125 5.515625 26.8125 
Q 5.515625 40.234375 12.765625 48.109375 
Q 20.015625 56 32.328125 56 
Q 43.359375 56 49.78125 48.890625 
Q 56.203125 41.796875 56.203125 29.59375 
z
M 47.21875 32.234375 
Q 47.125 39.59375 43.09375 43.984375 
Q 39.0625 48.390625 32.421875 48.390625 
Q 24.90625 48.390625 20.390625 44.140625 
Q 15.875 39.890625 15.1875 32.171875 
z
" id="DejaVuSans-101"/>
      <path d="M 45.40625 46.390625 
L 45.40625 75.984375 
L 54.390625 75.984375 
L 54.390625 0 
L 45.40625 0 
L 45.40625 8.203125 
Q 42.578125 3.328125 38.25 0.953125 
Q 33.9375 -1.421875 27.875 -1.421875 
Q 17.96875 -1.421875 11.734375 6.484375 
Q 5.515625 14.40625 5.515625 27.296875 
Q 5.515625 40.1875 11.734375 48.09375 
Q 17.96875 56 27.875 56 
Q 33.9375 56 38.25 53.625 
Q 42.578125 51.265625 45.40625 46.390625 
z
M 14.796875 27.296875 
Q 14.796875 17.390625 18.875 11.75 
Q 22.953125 6.109375 30.078125 6.109375 
Q 37.203125 6.109375 41.296875 11.75 
Q 45.40625 17.390625 45.40625 27.296875 
Q 45.40625 37.203125 41.296875 42.84375 
Q 37.203125 48.484375 30.078125 48.484375 
Q 22.953125 48.484375 18.875 42.84375 
Q 14.796875 37.203125 14.796875 27.296875 
z
" id="DejaVuSans-100"/>
      <path d="M 8.5 21.578125 
L 8.5 54.6875 
L 17.484375 54.6875 
L 17.484375 21.921875 
Q 17.484375 14.15625 20.5 10.265625 
Q 23.53125 6.390625 29.59375 6.390625 
Q 36.859375 6.390625 41.078125 11.03125 
Q 45.3125 15.671875 45.3125 23.6875 
L 45.3125 54.6875 
L 54.296875 54.6875 
L 54.296875 0 
L 45.3125 0 
L 45.3125 8.40625 
Q 42.046875 3.421875 37.71875 1 
Q 33.40625 -1.421875 27.6875 -1.421875 
Q 18.265625 -1.421875 13.375 4.4375 
Q 8.5 10.296875 8.5 21.578125 
z
M 31.109375 56 
z
" id="DejaVuSans-117"/>
     </defs>
     <g transform="translate(141.470313 385.049219)rotate(-90)scale(0.1 -0.1)">
      <use xlink:href="#DejaVuSans-115"/>
      <use x="52.099609" xlink:href="#DejaVuSans-112"/>
      <use x="115.576172" xlink:href="#DejaVuSans-101"/>
      <use x="177.099609" xlink:href="#DejaVuSans-101"/>
      <use x="238.623047" xlink:href="#DejaVuSans-100"/>
      <use x="302.099609" xlink:href="#DejaVuSans-117"/>
      <use x="365.478516" xlink:href="#DejaVuSans-112"/>
     </g>
    </g>
   </g>
   <g id="line2d_17">
    <path clip-path="url(#p9020466846)" d="M 230.727273 472.9521 
L 231.753102 426.075539 
L 232.778932 409.425884 
L 233.804761 415.369964 
L 234.830591 405.485967 
L 235.856421 433.044679 
L 236.88225 397.760223 
L 237.90808 398.852104 
L 238.933909 399.503692 
L 239.959739 384.366182 
L 240.985569 390.996109 
L 242.011398 375.307582 
L 243.037228 385.554636 
L 244.063057 377.353696 
L 245.088887 387.159778 
L 246.114716 383.297381 
L 247.140546 382.013326 
L 248.166376 372.673599 
L 249.192205 358.759397 
L 250.218035 355.167352 
L 251.243864 353.789741 
L 252.269694 361.50893 
L 253.295523 347.042525 
L 254.321353 348.870156 
L 255.347183 350.087118 
L 256.373012 348.839091 
L 257.398842 355.054223 
L 258.424671 349.631603 
L 259.450501 345.218758 
L 260.476331 358.042173 
L 261.50216 330.126651 
L 262.52799 345.615956 
L 263.553819 344.430299 
L 264.579649 341.887609 
L 265.605478 349.641675 
L 266.631308 337.815607 
L 267.657138 343.401154 
L 268.682967 334.607987 
L 269.708797 343.023365 
L 270.734626 325.82589 
L 271.760456 341.157941 
L 272.786286 328.512411 
L 273.812115 334.263208 
L 274.837945 322.969465 
L 275.863774 334.728794 
L 276.889604 342.335627 
L 277.915433 386.917651 
L 278.941263 379.17569 
L 279.967093 379.195148 
L 280.992922 336.94189 
L 282.018752 349.503875 
L 283.044581 402.357238 
L 284.070411 362.178789 
L 285.09624 332.847891 
L 286.12207 366.399936 
L 287.1479 352.494531 
L 288.173729 311.813141 
L 289.199559 324.958486 
L 290.225388 308.878007 
L 291.251218 335.947709 
L 292.277048 314.753515 
L 293.302877 326.466385 
L 294.328707 304.904236 
L 295.354536 303.641267 
L 296.380366 302.02695 
L 297.406195 310.905799 
L 298.432025 304.615663 
L 299.457855 306.93537 
L 300.483684 298.577672 
L 301.509514 312.446289 
L 302.535343 300.675758 
L 303.561173 477.881007 
L 304.587002 309.886808 
L 305.612832 303.261911 
L 306.638662 300.064505 
L 307.664491 314.784195 
L 308.690321 298.998513 
L 309.71615 302.863321 
L 310.74198 305.416284 
L 311.76781 296.45877 
L 312.793639 306.073474 
L 313.819469 304.375993 
L 314.845298 300.123001 
L 315.871128 294.785682 
L 316.896957 299.09958 
L 317.922787 295.142054 
L 318.948617 313.503281 
L 319.974446 295.228023 
L 321.000276 300.321783 
L 322.026105 296.274362 
L 323.051935 295.530812 
L 324.077765 295.407007 
L 325.103594 303.998872 
L 326.129424 300.539252 
L 327.155253 294.599178 
L 328.181083 290.338916 
L 329.206912 303.363639 
L 330.232742 298.202891 
L 331.258572 291.775338 
L 332.284401 296.432395 
L 333.310231 235.192128 
L 334.33606 315.211524 
L 335.36189 287.025722 
L 336.387719 288.890627 
L 337.413549 299.610513 
L 338.439379 295.322734 
L 339.465208 299.890411 
L 340.491038 285.336157 
L 341.516867 298.257448 
L 342.542697 296.009077 
L 343.568527 297.333699 
L 344.594356 290.490367 
L 345.620186 303.804218 
L 346.646015 292.099443 
L 347.671845 297.153187 
L 348.697674 293.292148 
L 349.723504 288.456037 
L 350.749334 286.166548 
L 351.775163 266.578134 
L 352.800993 279.269726 
L 353.826822 299.332538 
L 354.852652 291.127947 
L 355.878481 273.583451 
L 356.904311 302.513859 
L 357.930141 274.490506 
L 358.95597 289.677828 
L 359.9818 299.796064 
L 361.007629 294.796917 
L 362.033459 287.058259 
L 363.059289 288.94039 
L 364.085118 293.834399 
L 365.110948 282.378337 
L 366.136777 286.244549 
L 367.162607 277.675734 
L 368.188436 282.56383 
L 369.214266 281.55841 
L 370.240096 283.321207 
L 372.291755 287.455339 
L 373.317584 279.787523 
L 374.343414 285.793603 
L 375.369243 285.980134 
L 376.395073 324.573519 
L 377.420903 281.336963 
L 378.446732 283.229148 
L 379.472562 271.242523 
L 380.498391 290.318908 
L 381.524221 280.25709 
L 382.550051 292.286924 
L 383.57588 294.248928 
L 384.60171 277.601416 
L 385.627539 282.886783 
L 386.653369 262.096601 
L 387.679198 294.434983 
L 388.705028 273.841969 
L 389.730858 260.861201 
L 390.756687 290.653009 
L 391.782517 289.960616 
L 392.808346 258.895838 
L 393.834176 249.796087 
L 394.860006 282.180558 
L 395.885835 288.717981 
L 396.911665 277.232936 
L 397.937494 248.970242 
L 398.963324 255.994085 
L 399.989153 277.16024 
L 401.014983 282.955121 
L 402.040813 276.674437 
L 403.066642 279.545388 
L 404.092472 284.887389 
L 405.118301 252.823534 
L 406.144131 252.866525 
L 408.19579 285.46929 
L 409.22162 286.048596 
L 410.247449 275.634213 
L 411.273279 290.040016 
L 412.299108 283.106189 
L 413.324938 282.162765 
L 414.350768 243.24436 
L 415.376597 291.346827 
L 416.402427 265.375451 
L 417.428256 283.682753 
L 418.454086 245.985639 
L 419.479915 280.668038 
L 420.505745 279.915213 
L 421.531575 268.615753 
L 422.557404 242.681976 
L 423.583234 276.441776 
L 424.609063 269.372237 
L 425.634893 251.123423 
L 426.660722 256.142494 
L 427.686552 251.581969 
L 428.712382 270.873782 
L 429.738211 253.263796 
L 430.764041 270.366375 
L 431.78987 278.335185 
L 432.8157 256.306675 
L 433.84153 276.596222 
L 434.867359 252.754467 
L 435.893189 263.706432 
L 436.919018 259.50802 
L 437.944848 249.853329 
L 438.970677 259.797075 
L 439.996507 274.114947 
L 441.022337 261.226999 
L 442.048166 276.050978 
L 443.073996 246.028249 
L 444.099825 237.928973 
L 445.125655 270.781078 
L 446.151485 256.858873 
L 447.177314 244.85232 
L 448.203144 265.069757 
L 449.228973 268.644281 
L 450.254803 238.067087 
L 451.280632 237.154674 
L 452.306462 254.387665 
L 453.332292 240.761139 
L 454.358121 252.030248 
L 455.383951 235.072776 
L 456.40978 263.36377 
L 457.43561 249.222885 
L 458.461439 251.070304 
L 459.487269 239.111478 
L 460.513099 272.064964 
L 461.538928 217.903937 
L 462.564758 262.348512 
L 463.590587 263.337555 
L 464.616417 272.89917 
L 466.668076 252.107753 
L 467.693906 260.080764 
L 468.719735 258.116611 
L 469.745565 251.482595 
L 471.797224 233.809286 
L 472.823054 244.064325 
L 473.848883 267.93914 
L 474.874713 257.028064 
L 475.900542 281.126654 
L 476.926372 256.699134 
L 477.952201 247.154995 
L 478.978031 272.202686 
L 480.003861 247.71034 
L 481.02969 236.925889 
L 482.05552 229.747948 
L 483.081349 224.141309 
L 484.107179 281.790985 
L 485.133009 251.002689 
L 486.158838 257.597662 
L 487.184668 234.169269 
L 488.210497 240.197655 
L 489.236327 253.716796 
L 490.262156 242.223474 
L 491.287986 238.340963 
L 492.313816 247.919065 
L 493.339645 253.767706 
L 494.365475 240.489612 
L 495.391304 256.008525 
L 496.417134 245.630121 
L 497.442964 250.876521 
L 498.468793 267.76614 
L 499.494623 257.330354 
L 500.520452 227.078239 
L 501.546282 249.147938 
L 502.572111 239.334132 
L 503.597941 273.494307 
L 504.623771 263.513087 
L 505.6496 236.296823 
L 506.67543 218.781392 
L 507.701259 246.56501 
L 508.727089 262.837453 
L 509.752918 258.29072 
L 510.778748 245.389138 
L 511.804578 246.465171 
L 512.830407 246.162208 
L 513.856237 236.085306 
L 514.882066 265.988333 
L 515.907896 239.741337 
L 516.933726 235.472777 
L 517.959555 231.72762 
L 518.985385 238.999196 
L 520.011214 255.369725 
L 521.037044 274.869489 
L 522.062873 238.658465 
L 523.088703 234.088834 
L 524.114533 270.12469 
L 525.140362 245.894402 
L 526.166192 232.00308 
L 527.192021 244.080306 
L 528.217851 247.13658 
L 529.24368 240.02766 
L 530.26951 233.980165 
L 531.29534 265.159818 
L 532.321169 235.538945 
L 533.346999 253.089182 
L 534.372828 238.521142 
L 535.398658 226.620656 
L 536.424488 239.159331 
L 537.450317 233.859533 
L 538.476147 264.59398 
L 539.501976 222.096574 
L 540.527806 229.567654 
L 541.553635 230.063757 
L 542.579465 216.574479 
L 543.605295 215.930821 
L 545.656954 245.028217 
L 546.682783 220.969297 
L 547.708613 222.260356 
L 548.734443 254.421671 
L 549.760272 237.743103 
L 550.786102 236.733816 
L 551.811931 219.305502 
L 552.837761 246.748194 
L 553.86359 238.6184 
L 554.88942 246.359668 
L 555.91525 214.729955 
L 556.941079 240.990888 
L 557.966909 225.06278 
L 558.992738 225.717323 
L 560.018568 206.695987 
L 561.044397 232.067819 
L 562.070227 269.972954 
L 563.096057 344.116135 
L 564.121886 229.597644 
L 565.147716 195.923538 
L 566.173545 252.098491 
L 567.199375 264.08614 
L 568.225205 223.723505 
L 569.251034 244.549007 
L 570.276864 236.533024 
L 571.302693 219.332245 
L 572.328523 242.089239 
L 573.354352 245.335656 
L 574.380182 236.066491 
L 575.406012 219.8963 
L 576.431841 227.224052 
L 577.457671 229.182488 
L 578.4835 243.313867 
L 579.50933 218.112148 
L 580.535159 266.274363 
L 581.560989 230.341366 
L 582.586819 246.082873 
L 583.612648 215.603829 
L 584.638478 212.197482 
L 586.690137 241.802052 
L 587.715967 230.902164 
L 588.741796 230.003572 
L 589.767626 236.015806 
L 590.793455 236.835235 
L 591.819285 241.347106 
L 592.845114 209.635666 
L 593.870944 239.283666 
L 594.896774 247.214667 
L 595.922603 212.04601 
L 596.948433 220.163254 
L 597.974262 239.962235 
L 599.000092 240.555326 
L 600.025922 236.807213 
L 601.051751 220.387317 
L 602.077581 237.295928 
L 603.10341 222.292087 
L 604.12924 228.85509 
L 605.155069 216.414673 
L 606.180899 238.536918 
L 607.206729 227.127657 
L 609.258388 209.424769 
L 610.284217 236.348124 
L 611.310047 268.427151 
L 612.335876 232.288743 
L 613.361706 224.456056 
L 614.387536 230.938739 
L 615.413365 225.754758 
L 616.439195 233.733101 
L 617.465024 226.775817 
L 618.490854 275.853473 
L 619.516684 270.264107 
L 620.542513 266.289291 
L 621.568343 258.253955 
L 622.594172 233.635756 
L 623.620002 224.446545 
L 624.645831 211.487031 
L 625.671661 206.896193 
L 626.697491 230.414309 
L 627.72332 237.311138 
L 628.74915 230.313283 
L 629.774979 214.324731 
L 630.800809 230.030851 
L 631.826638 223.348807 
L 632.852468 207.799633 
L 634.904127 232.167165 
L 635.929957 230.957309 
L 636.955786 208.554545 
L 637.981616 206.893963 
L 640.033275 288.77463 
L 641.059105 222.412766 
L 642.084934 256.324226 
L 643.110764 221.98645 
L 644.136593 228.279354 
L 645.162423 214.690073 
L 646.188253 219.824117 
L 647.214082 231.083889 
L 648.239912 224.921063 
L 649.265741 247.289102 
L 650.291571 207.99049 
L 651.3174 230.663932 
L 652.34323 219.446276 
L 653.36906 203.817297 
L 654.394889 208.660982 
L 655.420719 240.406408 
L 656.446548 227.326554 
L 657.472378 225.456913 
L 658.498208 215.709109 
L 659.524037 268.048998 
L 660.549867 218.975233 
L 661.575696 212.43803 
L 662.601526 213.753909 
L 663.627355 230.328671 
L 664.653185 221.661468 
L 665.679015 220.88704 
L 666.704844 206.512112 
L 667.730674 231.617103 
L 668.756503 222.81753 
L 669.782333 215.476722 
L 670.808163 228.060455 
L 671.833992 214.074606 
L 672.859822 222.736738 
L 673.885651 233.558691 
L 674.911481 245.789994 
L 675.93731 222.789651 
L 676.96314 236.395847 
L 677.98897 231.669469 
L 679.014799 197.018565 
L 680.040629 237.269742 
L 681.066458 253.527611 
L 682.092288 219.182925 
L 683.118117 206.868096 
L 684.143947 221.0446 
L 685.169777 227.566815 
L 686.195606 211.466066 
L 687.221436 226.299875 
L 688.247265 230.039631 
L 689.273095 221.414953 
L 690.298925 145.220145 
L 691.324754 236.129171 
L 692.350584 237.869367 
L 693.376413 234.674102 
L 694.402243 221.296439 
L 695.428072 214.133316 
L 696.453902 219.095369 
L 697.479732 216.527306 
L 698.505561 210.073618 
L 699.531391 214.035934 
L 700.55722 286.02617 
L 701.58305 209.948957 
L 702.608879 204.411952 
L 703.634709 206.179587 
L 704.660539 219.109223 
L 705.686368 206.050281 
L 706.712198 216.322395 
L 707.738027 195.809448 
L 708.763857 222.309504 
L 709.789687 211.259065 
L 710.815516 201.613132 
L 711.841346 204.532103 
L 712.867175 227.758954 
L 713.893005 234.82641 
L 714.918834 217.64948 
L 715.944664 205.071904 
L 716.970494 233.117564 
L 717.996323 208.641985 
L 719.022153 207.992142 
L 720.047982 223.192278 
L 721.073812 222.642853 
L 722.099642 225.732384 
L 723.125471 202.418503 
L 724.151301 182.994477 
L 725.17713 274.548535 
L 726.20296 226.997248 
L 727.228789 202.311656 
L 728.254619 203.619988 
L 729.280449 221.414862 
L 730.306278 215.004985 
L 731.332108 206.884988 
L 732.357937 210.751472 
L 733.383767 222.457861 
L 734.409596 216.423293 
L 735.435426 201.174909 
L 736.461256 208.83188 
L 737.487085 219.506752 
L 738.512915 206.785396 
L 739.538744 220.136314 
L 740.564574 200.322427 
L 741.590404 222.259194 
L 742.616233 216.01047 
L 743.642063 216.765602 
L 744.667892 213.780351 
L 745.693722 234.26653 
L 746.719551 225.419281 
L 747.745381 271.851337 
L 748.771211 215.512541 
L 749.79704 211.444721 
L 750.82287 227.025474 
L 751.848699 258.824821 
L 752.874529 219.869031 
L 753.900358 201.29255 
L 754.926188 219.323928 
L 755.952018 208.859816 
L 756.977847 211.64771 
L 758.003677 216.49847 
L 759.029506 224.623582 
L 761.081166 206.301205 
L 762.106995 202.33082 
L 763.132825 221.713449 
L 764.158654 214.113384 
L 765.184484 211.006253 
L 766.210313 221.503343 
L 767.236143 224.705804 
L 768.261973 206.148864 
L 769.287802 208.638288 
L 770.313632 225.253852 
L 771.339461 223.32721 
L 772.365291 259.215302 
L 773.391121 262.727073 
L 774.41695 221.347391 
L 775.44278 226.922121 
L 776.468609 231.628459 
L 777.494439 203.942897 
L 778.520268 233.763727 
L 779.546098 222.297034 
L 780.571928 196.588174 
L 781.597757 200.997054 
L 782.623587 222.101116 
L 783.649416 220.052427 
L 784.675246 203.02912 
L 785.701075 209.652068 
L 786.726905 231.426987 
L 787.752735 209.82186 
L 788.778564 200.40144 
L 789.804394 207.254362 
L 790.830223 220.370083 
L 791.856053 220.459002 
L 792.881883 210.428438 
L 793.907712 211.354814 
L 794.933542 212.433568 
L 795.959371 220.48928 
L 796.985201 206.149634 
L 798.01103 203.590019 
L 799.03686 218.247179 
L 800.06269 221.857066 
L 801.088519 208.877537 
L 802.114349 210.244456 
L 803.140178 221.115872 
L 804.166008 220.639662 
L 805.191837 205.73214 
L 806.217667 204.341312 
L 807.243497 217.21638 
L 808.269326 227.579355 
L 809.295156 209.277606 
L 810.320985 263.349555 
L 811.346815 214.985703 
L 812.372645 214.909919 
L 813.398474 203.69871 
L 814.424304 202.661736 
L 815.450133 232.802369 
L 816.475963 226.023242 
L 817.501792 212.994723 
L 818.527622 197.774074 
L 819.553452 218.645137 
L 820.579281 228.195519 
L 821.605111 201.362468 
L 823.65677 217.721804 
L 824.6826 216.636727 
L 825.708429 201.51232 
L 826.734259 254.355684 
L 827.760088 220.4942 
L 828.785918 231.375533 
L 829.811747 220.834266 
L 830.837577 209.110837 
L 831.863407 220.239837 
L 832.889236 240.809382 
L 833.915066 200.481539 
L 834.940895 206.155434 
L 835.966725 214.177894 
L 836.992554 220.453179 
L 838.018384 201.388294 
L 839.044214 203.057493 
L 840.070043 216.579808 
L 841.095873 219.524613 
L 842.121702 199.723235 
L 843.147532 210.587314 
L 844.173362 216.765204 
L 845.199191 214.258885 
L 846.225021 261.642992 
L 847.25085 202.134927 
L 848.27668 222.895833 
L 849.302509 215.767779 
L 850.328339 224.63914 
L 851.354169 223.981558 
L 852.379998 220.973025 
L 853.405828 222.960849 
L 854.431657 205.697917 
L 855.457487 207.140573 
L 856.483316 226.09647 
L 857.509146 253.612354 
L 858.534976 208.08785 
L 859.560805 201.373196 
L 860.586635 219.962032 
L 862.638294 209.405372 
L 863.664124 199.417772 
L 864.689953 232.24064 
L 865.715783 233.156638 
L 866.741612 208.440887 
L 867.767442 197.748864 
L 868.793271 223.995443 
L 869.819101 211.162013 
L 870.844931 210.844676 
L 871.87076 208.204742 
L 872.89659 214.85778 
L 873.922419 213.49596 
L 874.948249 195.601573 
L 875.974078 201.677129 
L 876.999908 211.009865 
L 878.025738 211.526996 
L 879.051567 203.200004 
L 880.077397 197.627094 
L 881.103226 222.839629 
L 883.154886 198.776741 
L 884.180715 196.271784 
L 885.206545 209.037594 
L 886.232374 217.466048 
L 887.258204 194.366869 
L 888.284033 209.678521 
L 889.309863 211.322011 
L 890.335693 232.786632 
L 891.361522 202.101827 
L 892.387352 196.396292 
L 893.413181 202.257015 
L 894.439011 224.221758 
L 895.464841 196.367386 
L 896.49067 212.499702 
L 897.5165 217.054776 
L 898.542329 201.846037 
L 899.568159 201.949265 
L 900.593988 201.729445 
L 901.619818 211.60016 
L 902.645648 216.222442 
L 903.671477 198.14582 
L 904.697307 195.407926 
L 905.723136 211.374451 
L 906.748966 232.531838 
L 907.774795 198.124675 
L 908.800625 212.151513 
L 909.826455 214.107269 
L 910.852284 214.87274 
L 911.878114 197.672565 
L 912.903943 201.89065 
L 913.929773 219.081013 
L 915.981432 197.669821 
L 917.007262 192.742309 
L 918.033091 224.108364 
L 919.058921 219.373207 
L 920.08475 201.714244 
L 921.11058 200.035706 
L 922.13641 216.402051 
L 923.162239 216.20087 
L 924.188069 205.384458 
L 925.213898 201.583445 
L 926.239728 208.099168 
L 927.265557 217.776694 
L 928.291387 210.833577 
L 929.317217 210.568289 
L 930.343046 215.333956 
L 931.368876 218.006535 
L 932.394705 204.354054 
L 933.420535 198.334978 
L 934.446365 206.483188 
L 935.472194 209.56762 
L 936.498024 199.628828 
L 937.523853 199.112261 
L 938.549683 209.550314 
L 939.575512 211.396734 
L 940.601342 111.6 
L 941.627172 211.756911 
L 942.653001 214.392332 
L 943.678831 222.518456 
L 944.70466 202.709229 
L 945.73049 203.413557 
L 946.75632 214.2031 
L 947.782149 213.776169 
L 948.807979 193.946498 
L 949.833808 198.832036 
L 950.859638 216.058649 
L 951.885467 213.799546 
L 952.911297 206.006512 
L 953.937127 203.340518 
L 954.962956 255.11614 
L 955.988786 232.673811 
L 957.014615 263.086879 
L 958.040445 211.733603 
L 959.066274 212.10028 
L 960.092104 214.103609 
L 961.117934 198.339903 
L 962.143763 194.832061 
L 963.169593 214.418722 
L 964.195422 223.262426 
L 965.221252 197.634045 
L 966.247082 220.784452 
L 967.272911 213.806356 
L 968.298741 210.673068 
L 969.32457 202.173191 
L 970.3504 196.527763 
L 971.376229 206.783483 
L 972.402059 214.103422 
L 973.427889 194.815835 
L 974.453718 197.719655 
L 975.479548 216.741513 
L 977.531207 207.951634 
L 978.557036 196.503986 
L 979.582866 220.970171 
L 980.608696 213.383244 
L 981.634525 198.305361 
L 982.660355 207.442307 
L 983.686184 263.411693 
L 984.712014 207.784282 
L 985.737844 199.362198 
L 986.763673 206.365054 
L 987.789503 227.547245 
L 988.815332 214.688471 
L 989.841162 199.220594 
L 990.866991 198.939411 
L 991.892821 209.721426 
L 992.918651 210.163708 
L 993.94448 197.342677 
L 994.97031 204.052707 
L 995.996139 169.547968 
L 997.021969 216.650968 
L 998.047799 195.239328 
L 1000.099458 207.17133 
L 1001.125287 216.948579 
L 1002.151117 202.956348 
L 1003.176946 196.626611 
L 1005.228606 223.692281 
L 1006.254435 191.762414 
L 1007.280265 199.804252 
L 1008.306094 210.845855 
L 1009.331924 203.619407 
L 1010.357753 193.2874 
L 1012.409413 206.998661 
L 1013.435242 214.394693 
L 1014.461072 198.193252 
L 1015.486901 197.545671 
L 1016.512731 206.371225 
L 1017.538561 190.549229 
L 1018.56439 307.978893 
L 1019.59022 248.303666 
L 1020.616049 210.41166 
L 1021.641879 209.453867 
L 1022.667708 202.451853 
L 1023.693538 197.346085 
L 1024.719368 216.720737 
L 1025.745197 209.975743 
L 1026.771027 199.215726 
L 1027.796856 193.99047 
L 1028.822686 222.807708 
L 1029.848515 207.353279 
L 1030.874345 198.223389 
L 1031.900175 192.359218 
L 1032.926004 208.289467 
L 1033.951834 208.128582 
L 1034.977663 192.580891 
L 1036.003493 187.801666 
L 1037.029323 204.597532 
L 1038.055152 214.10387 
L 1039.080982 197.114913 
L 1040.106811 193.878944 
L 1041.132641 209.752303 
L 1042.15847 206.892264 
L 1043.1843 193.704685 
L 1044.21013 187.316358 
L 1045.235959 243.898917 
L 1046.261789 238.312035 
L 1047.287618 203.646928 
L 1048.313448 193.095879 
L 1049.339278 209.737247 
L 1050.365107 212.721138 
L 1051.390937 200.839958 
L 1052.416766 197.312657 
L 1054.468425 218.83094 
L 1055.494255 193.520248 
L 1056.520085 200.008518 
L 1057.545914 209.720271 
L 1058.571744 183.821988 
L 1059.597573 219.612333 
L 1060.623403 215.390058 
L 1061.649232 222.914075 
L 1062.675062 217.356701 
L 1063.700892 201.708087 
L 1064.726721 196.703312 
L 1065.752551 219.345523 
L 1066.77838 218.125838 
L 1067.80421 192.310525 
L 1068.83004 223.206874 
L 1069.855869 200.531787 
L 1070.881699 216.117182 
L 1071.907528 201.548629 
L 1072.933358 204.184005 
L 1073.959187 212.514568 
L 1074.985017 213.892111 
L 1076.010847 206.835047 
L 1077.036676 193.892716 
L 1078.062506 214.490526 
L 1079.088335 220.382705 
L 1080.114165 218.756592 
L 1081.139994 205.97703 
L 1082.165824 210.318155 
L 1083.191654 215.473738 
L 1084.217483 197.84689 
L 1085.243313 197.050079 
L 1086.269142 231.03178 
L 1087.294972 211.980204 
L 1088.320802 212.439508 
L 1089.346631 248.47588 
L 1090.372461 217.709524 
L 1092.42412 208.762113 
L 1093.449949 195.573441 
L 1094.475779 220.834524 
L 1095.501609 209.378572 
L 1096.527438 194.037288 
L 1097.553268 202.189882 
L 1098.579097 216.609147 
L 1099.604927 217.844692 
L 1100.630757 198.281426 
L 1102.682416 212.327171 
L 1103.708245 225.887153 
L 1104.734075 198.235817 
L 1105.759904 220.193144 
L 1106.785734 208.598228 
L 1107.811564 238.601472 
L 1108.837393 198.280661 
L 1109.863223 205.421595 
L 1110.889052 209.519392 
L 1111.914882 214.74533 
L 1112.940711 200.308244 
L 1113.966541 203.673668 
L 1114.992371 214.873861 
L 1116.0182 206.063535 
L 1117.04403 210.126409 
L 1118.069859 203.613382 
L 1119.095689 216.223379 
L 1120.121519 216.886637 
L 1121.147348 192.247571 
L 1122.173178 198.258412 
L 1123.199007 209.18187 
L 1124.224837 224.057977 
L 1125.250666 190.220298 
L 1127.302326 217.250015 
L 1128.328155 208.305782 
L 1129.353985 200.507679 
L 1130.379814 203.341744 
L 1131.405644 211.33414 
L 1132.431473 211.696733 
L 1133.457303 198.686526 
L 1134.483133 189.634377 
L 1135.508962 220.891068 
L 1136.534792 214.081283 
L 1137.560621 200.321167 
L 1138.586451 203.259641 
L 1139.612281 247.916822 
L 1140.63811 218.792271 
L 1142.689769 198.169767 
L 1143.715599 212.738845 
L 1144.741428 216.841519 
L 1145.767258 201.452647 
L 1146.793088 202.486702 
L 1147.818917 210.880618 
L 1148.844747 211.662787 
L 1149.870576 201.050234 
L 1150.896406 207.412691 
L 1151.922235 210.871463 
L 1152.948065 242.084555 
L 1153.973895 204.49322 
L 1154.999724 248.949319 
L 1156.025554 242.454604 
L 1157.051383 214.80128 
L 1158.077213 215.055513 
L 1159.103043 195.606665 
L 1160.128872 204.345209 
L 1161.154702 207.087879 
L 1162.180531 196.649134 
L 1163.206361 193.71579 
L 1164.23219 218.605804 
L 1165.25802 296.965661 
L 1166.28385 216.140312 
L 1167.309679 210.653191 
L 1168.335509 249.576428 
L 1169.361338 211.919854 
L 1170.387168 193.494499 
L 1171.412998 196.910438 
L 1172.438827 229.862158 
L 1173.464657 247.117918 
L 1174.490486 193.551685 
L 1175.516316 194.9661 
L 1176.542145 206.983144 
L 1177.567975 208.642531 
L 1178.593805 189.57195 
L 1179.619634 198.722267 
L 1180.645464 243.350576 
L 1181.671293 245.938744 
L 1182.697123 201.374619 
L 1183.722952 203.884968 
L 1184.748782 203.835117 
L 1185.774612 212.811341 
L 1186.800441 194.067605 
L 1187.826271 172.870744 
L 1188.8521 215.82181 
L 1189.87793 211.458644 
L 1190.90376 204.703301 
L 1191.929589 186.772671 
L 1192.955419 210.37457 
L 1193.981248 206.761857 
L 1195.007078 197.803964 
L 1196.032907 192.865859 
L 1197.058737 203.566967 
L 1198.084567 205.787657 
L 1199.110396 195.019597 
L 1200.136226 219.374537 
L 1201.162055 213.090039 
L 1202.187885 214.598991 
L 1203.213714 197.608632 
L 1204.239544 196.072021 
L 1205.265374 209.550398 
L 1206.291203 204.47577 
L 1207.317033 196.356045 
L 1208.342862 194.518858 
L 1209.368692 205.839206 
L 1210.394522 209.206368 
L 1211.420351 198.937971 
L 1212.446181 194.943645 
L 1213.47201 201.105171 
L 1214.49784 205.206507 
L 1215.523669 202.597183 
L 1216.549499 211.522579 
L 1217.575329 213.404502 
L 1218.601158 214.678391 
L 1219.626988 192.93503 
L 1220.652817 197.273764 
L 1221.678647 209.167349 
L 1222.704477 223.356987 
L 1223.730306 190.586039 
L 1224.756136 198.962899 
L 1225.781965 289.080703 
L 1226.807795 211.877552 
L 1227.833624 202.196029 
L 1228.859454 199.750975 
L 1229.885284 209.194162 
L 1230.911113 255.912775 
L 1231.936943 203.624108 
L 1232.962772 204.878131 
L 1233.988602 215.209616 
L 1235.014431 210.689074 
L 1236.040261 236.444031 
L 1237.066091 200.172315 
L 1238.09192 211.377216 
L 1239.11775 218.112944 
L 1240.143579 202.238017 
L 1241.169409 204.040704 
L 1242.195239 215.026999 
L 1243.221068 206.963435 
L 1244.246898 196.391127 
L 1245.272727 199.892364 
L 1245.272727 199.892364 
" style="fill:none;stroke:#1f77b4;stroke-linecap:square;stroke-width:1.5;"/>
   </g>
   <g id="line2d_18">
    <path clip-path="url(#p9020466846)" d="M 230.727273 550.38868 
L 231.753102 504.040221 
L 232.778932 501.526752 
L 233.804761 502.879292 
L 234.830591 505.115163 
L 235.856421 502.12844 
L 236.88225 506.527801 
L 237.90808 501.656366 
L 238.933909 505.579037 
L 239.959739 517.193093 
L 240.985569 515.335419 
L 242.011398 511.951613 
L 243.037228 513.014363 
L 244.063057 520.0077 
L 245.088887 522.611814 
L 246.114716 520.268128 
L 247.140546 521.122469 
L 248.166376 526.147402 
L 249.192205 525.030336 
L 250.218035 528.467684 
L 251.243864 527.345396 
L 252.269694 528.303112 
L 253.295523 524.933368 
L 254.321353 532.757447 
L 255.347183 529.308016 
L 256.373012 527.749503 
L 257.398842 533.0006 
L 258.424671 523.798293 
L 259.450501 530.560868 
L 260.476331 528.015289 
L 261.50216 531.057671 
L 262.52799 535.640787 
L 263.553819 523.449988 
L 264.579649 531.830845 
L 265.605478 523.478588 
L 266.631308 536.829835 
L 267.657138 536.614412 
L 268.682967 533.001671 
L 269.708797 615.6 
L 270.734626 539.965479 
L 271.760456 535.891425 
L 272.786286 540.062706 
L 273.812115 540.417895 
L 274.837945 537.557776 
L 275.863774 540.912107 
L 276.889604 546.843436 
L 277.915433 539.062349 
L 278.941263 540.569657 
L 279.967093 542.51049 
L 280.992922 536.980562 
L 282.018752 536.885428 
L 283.044581 515.792149 
L 284.070411 516.131942 
L 285.09624 541.554692 
L 286.12207 538.621856 
L 287.1479 521.417939 
L 288.173729 539.724154 
L 289.199559 540.981986 
L 290.225388 512.7267 
L 291.251218 535.789506 
L 292.277048 524.089892 
L 293.302877 539.859957 
L 294.328707 532.094001 
L 295.354536 515.186801 
L 296.380366 536.459249 
L 297.406195 536.769659 
L 298.432025 529.537897 
L 299.457855 540.894179 
L 300.483684 517.229598 
L 301.509514 534.194993 
L 302.535343 529.72682 
L 303.561173 540.267964 
L 304.587002 526.692689 
L 305.612832 515.8053 
L 306.638662 518.338688 
L 307.664491 522.35661 
L 308.690321 538.309438 
L 309.71615 526.261031 
L 310.74198 517.443565 
L 311.76781 543.810969 
L 312.793639 526.380575 
L 313.819469 543.408405 
L 314.845298 521.794404 
L 315.871128 548.090341 
L 316.896957 529.148512 
L 317.922787 520.381942 
L 318.948617 523.411561 
L 319.974446 547.360493 
L 321.000276 544.909954 
L 322.026105 522.636137 
L 323.051935 520.103348 
L 324.077765 546.579802 
L 325.103594 520.891709 
L 326.129424 544.091478 
L 327.155253 531.363839 
L 328.181083 521.045751 
L 329.206912 521.312854 
L 330.232742 538.347167 
L 331.258572 546.710034 
L 332.284401 523.213875 
L 334.33606 523.452855 
L 335.36189 525.671914 
L 336.387719 541.821434 
L 337.413549 530.211534 
L 338.439379 523.793492 
L 339.465208 522.708268 
L 340.491038 536.310793 
L 341.516867 522.855515 
L 343.568527 538.16318 
L 344.594356 525.816186 
L 345.620186 522.815688 
L 346.646015 523.724293 
L 347.671845 525.364973 
L 348.697674 535.023032 
L 349.723504 524.891896 
L 350.749334 525.557436 
L 351.775163 526.089955 
L 352.800993 527.1511 
L 353.826822 525.393936 
L 354.852652 527.001718 
L 355.878481 495.947679 
L 356.904311 529.591895 
L 357.930141 545.004683 
L 358.95597 533.52595 
L 359.9818 535.005111 
L 361.007629 535.477941 
L 362.033459 536.750356 
L 363.059289 534.882521 
L 364.085118 536.422547 
L 365.110948 541.852458 
L 366.136777 542.946891 
L 367.162607 545.312325 
L 368.188436 553.702302 
L 369.214266 535.540379 
L 370.240096 535.087534 
L 371.265925 537.423244 
L 372.291755 534.482213 
L 373.317584 538.388251 
L 374.343414 559.361894 
L 375.369243 539.240788 
L 376.395073 548.510317 
L 377.420903 535.870757 
L 378.446732 534.902231 
L 379.472562 534.702003 
L 380.498391 526.794426 
L 381.524221 536.583378 
L 382.550051 531.700607 
L 383.57588 532.128619 
L 384.60171 530.370124 
L 385.627539 539.395186 
L 386.653369 532.212587 
L 387.679198 532.526914 
L 388.705028 534.697738 
L 389.730858 532.018444 
L 390.756687 530.298115 
L 391.782517 529.735339 
L 392.808346 531.199571 
L 393.834176 533.711355 
L 394.860006 554.344467 
L 395.885835 533.776492 
L 396.911665 532.230107 
L 397.937494 531.178256 
L 398.963324 532.096361 
L 399.989153 555.941694 
L 401.014983 528.335099 
L 402.040813 534.058194 
L 403.066642 530.148185 
L 404.092472 531.209926 
L 405.118301 528.718798 
L 406.144131 527.826956 
L 407.16996 530.181881 
L 408.19579 529.740692 
L 409.22162 532.974322 
L 410.247449 531.339583 
L 411.273279 527.394575 
L 412.299108 527.560668 
L 413.324938 532.177469 
L 414.350768 529.815289 
L 415.376597 529.331108 
L 416.402427 531.482577 
L 417.428256 530.423856 
L 418.454086 560.351013 
L 419.479915 532.195892 
L 420.505745 531.726327 
L 423.583234 533.030727 
L 424.609063 530.718088 
L 425.634893 534.118001 
L 426.660722 532.233873 
L 427.686552 558.709921 
L 428.712382 537.578387 
L 429.738211 529.291629 
L 430.764041 530.390265 
L 431.78987 530.913975 
L 432.8157 528.78425 
L 433.84153 535.22702 
L 434.867359 539.815206 
L 435.893189 540.802952 
L 436.919018 556.133955 
L 437.944848 535.151342 
L 438.970677 527.707735 
L 439.996507 530.78217 
L 441.022337 531.749843 
L 442.048166 529.418634 
L 443.073996 529.653955 
L 444.099825 531.481332 
L 445.125655 529.515973 
L 446.151485 527.234218 
L 447.177314 529.271888 
L 448.203144 529.760416 
L 449.228973 528.54186 
L 450.254803 529.342888 
L 451.280632 530.408383 
L 452.306462 529.611415 
L 453.332292 532.166872 
L 454.358121 529.505209 
L 455.383951 534.146111 
L 456.40978 531.38063 
L 457.43561 529.41941 
L 458.461439 531.016956 
L 459.487269 529.300588 
L 460.513099 529.311717 
L 461.538928 527.821649 
L 462.564758 528.48868 
L 463.590587 530.002522 
L 464.616417 532.504331 
L 465.642247 531.600067 
L 466.668076 530.302465 
L 467.693906 531.461242 
L 468.719735 534.721064 
L 469.745565 531.048038 
L 470.771394 564.030681 
L 471.797224 534.296284 
L 472.823054 533.58554 
L 473.848883 533.584131 
L 474.874713 532.043046 
L 475.900542 534.589678 
L 476.926372 531.553453 
L 477.952201 532.094273 
L 478.978031 529.590118 
L 480.003861 531.906367 
L 481.02969 529.657822 
L 482.05552 533.543404 
L 483.081349 562.44756 
L 484.107179 534.771003 
L 485.133009 529.704738 
L 486.158838 530.934553 
L 487.184668 531.613193 
L 488.210497 533.009182 
L 489.236327 533.376501 
L 490.262156 534.060271 
L 491.287986 530.203917 
L 492.313816 531.989879 
L 493.339645 529.206922 
L 494.365475 536.38396 
L 495.391304 534.107553 
L 496.417134 533.552542 
L 497.442964 530.798576 
L 498.468793 532.678926 
L 499.494623 531.564386 
L 500.520452 533.57216 
L 501.546282 532.292205 
L 502.572111 541.267813 
L 503.597941 543.836155 
L 504.623771 540.058651 
L 505.6496 537.843596 
L 506.67543 539.25318 
L 507.701259 539.451512 
L 508.727089 540.25769 
L 509.752918 538.021195 
L 510.778748 538.341784 
L 511.804578 538.489892 
L 512.830407 545.023045 
L 513.856237 563.186657 
L 514.882066 535.262653 
L 515.907896 539.739299 
L 516.933726 537.863494 
L 517.959555 539.142426 
L 518.985385 565.539825 
L 520.011214 537.777789 
L 521.037044 541.62058 
L 522.062873 535.801161 
L 523.088703 538.099893 
L 524.114533 538.8964 
L 525.140362 537.060235 
L 526.166192 536.985518 
L 527.192021 535.244263 
L 528.217851 534.970069 
L 529.24368 535.70327 
L 530.26951 536.144935 
L 531.29534 535.421812 
L 532.321169 563.909037 
L 533.346999 536.580122 
L 534.372828 535.439413 
L 535.398658 536.802851 
L 536.424488 534.832129 
L 537.450317 539.368558 
L 538.476147 535.659947 
L 539.501976 534.180178 
L 540.527806 533.538171 
L 541.553635 537.877489 
L 542.579465 532.753666 
L 543.605295 528.833649 
L 544.631124 536.522556 
L 545.656954 534.802142 
L 546.682783 533.937307 
L 547.708613 539.501853 
L 548.734443 542.909786 
L 549.760272 543.754312 
L 550.786102 540.905711 
L 551.811931 543.293423 
L 552.837761 542.276188 
L 553.86359 542.885968 
L 554.88942 537.481215 
L 556.941079 541.346911 
L 557.966909 542.292444 
L 558.992738 542.263426 
L 560.018568 537.746285 
L 561.044397 540.114627 
L 562.070227 539.31989 
L 563.096057 536.938018 
L 564.121886 537.607249 
L 565.147716 537.40923 
L 566.173545 539.764472 
L 567.199375 562.092533 
L 568.225205 538.559534 
L 569.251034 536.790064 
L 570.276864 538.807479 
L 571.302693 536.320484 
L 572.328523 538.761904 
L 573.354352 538.287029 
L 574.380182 540.924613 
L 575.406012 538.382847 
L 576.431841 537.926187 
L 577.457671 538.233786 
L 578.4835 549.952661 
L 579.50933 553.633456 
L 580.535159 538.361017 
L 581.560989 536.439076 
L 582.586819 538.393326 
L 583.612648 535.439591 
L 584.638478 536.635141 
L 585.664307 538.00757 
L 586.690137 518.954589 
L 587.715967 547.624191 
L 588.741796 536.583926 
L 589.767626 534.733578 
L 590.793455 513.256291 
L 591.819285 534.565226 
L 592.845114 533.503983 
L 593.870944 542.891618 
L 594.896774 539.616082 
L 595.922603 538.229847 
L 596.948433 542.095135 
L 599.000092 539.941621 
L 600.025922 541.602367 
L 601.051751 546.772547 
L 602.077581 539.661191 
L 603.10341 542.096941 
L 604.12924 540.305788 
L 605.155069 542.583362 
L 606.180899 543.23499 
L 607.206729 542.308371 
L 608.232558 539.943156 
L 609.258388 540.650202 
L 610.284217 549.198287 
L 611.310047 540.475557 
L 612.335876 539.784843 
L 613.361706 543.89974 
L 614.387536 539.992891 
L 615.413365 542.583429 
L 616.439195 539.975373 
L 617.465024 542.361729 
L 618.490854 541.846017 
L 619.516684 539.360844 
L 620.542513 538.263783 
L 621.568343 540.972467 
L 622.594172 539.381849 
L 623.620002 539.869047 
L 624.645831 539.411997 
L 625.671661 539.277796 
L 626.697491 542.490457 
L 627.72332 538.489153 
L 628.74915 538.792078 
L 629.774979 540.791901 
L 630.800809 561.497633 
L 631.826638 539.81412 
L 632.852468 536.564111 
L 633.878298 538.238937 
L 634.904127 539.646766 
L 635.929957 539.445364 
L 636.955786 540.860516 
L 637.981616 537.777617 
L 639.007446 539.509337 
L 640.033275 536.724508 
L 641.059105 537.114153 
L 642.084934 540.671131 
L 643.110764 539.50704 
L 644.136593 541.68051 
L 645.162423 538.272825 
L 646.188253 541.609249 
L 647.214082 539.422337 
L 648.239912 541.68329 
L 649.265741 540.02754 
L 650.291571 540.413138 
L 651.3174 540.176936 
L 653.36906 540.46442 
L 654.394889 537.492652 
L 655.420719 539.61623 
L 656.446548 539.955366 
L 657.472378 540.551552 
L 658.498208 540.358659 
L 659.524037 539.092226 
L 660.549867 543.554822 
L 661.575696 539.325067 
L 662.601526 540.300944 
L 663.627355 537.946257 
L 664.653185 539.676586 
L 665.679015 540.03965 
L 666.704844 539.195876 
L 667.730674 540.592698 
L 668.756503 537.241787 
L 669.782333 537.969837 
L 670.808163 541.310518 
L 671.833992 537.008043 
L 672.859822 541.672776 
L 673.885651 539.674309 
L 674.911481 538.875864 
L 675.93731 540.203501 
L 676.96314 541.939715 
L 679.014799 539.456377 
L 680.040629 539.40405 
L 681.066458 540.452663 
L 682.092288 540.080229 
L 683.118117 543.952262 
L 684.143947 540.75254 
L 685.169777 538.133775 
L 686.195606 540.036846 
L 687.221436 539.351645 
L 688.247265 541.740948 
L 689.273095 538.63726 
L 691.324754 543.393691 
L 692.350584 540.898734 
L 693.376413 537.340425 
L 694.402243 537.490794 
L 695.428072 534.299415 
L 696.453902 538.321981 
L 697.479732 537.627198 
L 698.505561 537.580445 
L 699.531391 536.038838 
L 701.58305 540.459273 
L 702.608879 538.134857 
L 703.634709 537.370087 
L 704.660539 537.677846 
L 705.686368 538.110597 
L 706.712198 539.530553 
L 707.738027 539.371006 
L 708.763857 538.751025 
L 709.789687 540.370421 
L 710.815516 539.476243 
L 711.841346 540.072909 
L 712.867175 537.579503 
L 713.893005 543.631991 
L 714.918834 539.365117 
L 715.944664 540.11786 
L 716.970494 539.116265 
L 717.996323 538.841153 
L 719.022153 544.684647 
L 720.047982 541.198046 
L 721.073812 538.178662 
L 722.099642 540.317621 
L 723.125471 539.398051 
L 724.151301 542.786423 
L 725.17713 538.087676 
L 726.20296 541.434762 
L 727.228789 538.776974 
L 728.254619 545.183957 
L 729.280449 541.287995 
L 730.306278 542.14595 
L 731.332108 541.449565 
L 732.357937 536.970741 
L 733.383767 544.097381 
L 734.409596 538.531524 
L 735.435426 546.485765 
L 736.461256 538.679278 
L 737.487085 545.79315 
L 738.512915 539.62511 
L 739.538744 547.496637 
L 740.564574 537.207721 
L 741.590404 544.834275 
L 742.616233 538.166121 
L 743.642063 544.53255 
L 744.667892 541.628779 
L 745.693722 548.336137 
L 746.719551 546.599286 
L 748.771211 539.42387 
L 749.79704 543.945114 
L 750.82287 539.164345 
L 751.848699 547.653951 
L 752.874529 538.641245 
L 753.900358 545.298184 
L 754.926188 540.681277 
L 755.952018 544.990066 
L 756.977847 533.374531 
L 758.003677 547.481672 
L 759.029506 540.713406 
L 760.055336 529.932031 
L 761.081166 537.229974 
L 762.106995 542.136162 
L 763.132825 538.712478 
L 764.158654 545.433174 
L 765.184484 539.229256 
L 766.210313 543.053405 
L 767.236143 536.7186 
L 768.261973 543.899698 
L 769.287802 538.274099 
L 770.313632 545.00262 
L 771.339461 535.190111 
L 772.365291 541.684248 
L 773.391121 537.707569 
L 774.41695 544.13833 
L 775.44278 540.110809 
L 776.468609 545.431586 
L 777.494439 538.588281 
L 778.520268 545.309023 
L 779.546098 542.440225 
L 780.571928 544.0803 
L 781.597757 538.677381 
L 782.623587 544.039955 
L 783.649416 539.156783 
L 784.675246 539.177275 
L 785.701075 539.889281 
L 786.726905 544.785535 
L 787.752735 537.445095 
L 788.778564 544.990915 
L 789.804394 538.321485 
L 790.830223 545.22465 
L 791.856053 536.396477 
L 792.881883 544.30697 
L 793.907712 538.883862 
L 794.933542 544.022699 
L 795.959371 538.438512 
L 796.985201 546.053359 
L 798.01103 543.405882 
L 799.03686 549.656502 
L 800.06269 544.599183 
L 801.088519 545.878942 
L 802.114349 537.951532 
L 803.140178 546.662227 
L 804.166008 539.299845 
L 805.191837 544.870387 
L 806.217667 537.265714 
L 807.243497 544.904504 
L 808.269326 538.190737 
L 809.295156 544.588941 
L 810.320985 539.562801 
L 811.346815 543.229389 
L 812.372645 537.355673 
L 813.398474 547.153844 
L 814.424304 536.496196 
L 815.450133 546.082426 
L 816.475963 538.62642 
L 817.501792 544.309165 
L 818.527622 537.147583 
L 819.553452 546.922097 
L 820.579281 538.817335 
L 821.605111 545.257801 
L 822.63094 536.51217 
L 823.65677 543.496955 
L 824.6826 538.490467 
L 825.708429 543.159806 
L 826.734259 537.548917 
L 827.760088 544.80156 
L 828.785918 541.661741 
L 829.811747 543.14248 
L 830.837577 539.17423 
L 831.863407 546.670529 
L 832.889236 538.664633 
L 833.915066 545.721046 
L 834.940895 538.121747 
L 835.966725 545.611675 
L 836.992554 540.467406 
L 838.018384 544.730125 
L 839.044214 539.548567 
L 840.070043 544.862416 
L 841.095873 539.457356 
L 842.121702 544.78627 
L 843.147532 537.838005 
L 844.173362 546.770353 
L 845.199191 539.476965 
L 846.225021 544.790175 
L 847.25085 539.02257 
L 848.27668 544.61437 
L 849.302509 540.107362 
L 850.328339 544.481093 
L 851.354169 539.747451 
L 852.379998 545.871891 
L 853.405828 539.681992 
L 854.431657 545.605556 
L 855.457487 539.717977 
L 856.483316 578.174988 
L 857.509146 539.602461 
L 858.534976 541.063551 
L 859.560805 542.045217 
L 860.586635 545.621576 
L 861.612464 539.290239 
L 862.638294 543.950841 
L 863.664124 538.12902 
L 864.689953 546.814624 
L 865.715783 540.344963 
L 866.741612 544.90202 
L 867.767442 539.108826 
L 868.793271 544.383109 
L 869.819101 539.320701 
L 870.844931 543.373549 
L 871.87076 537.161422 
L 872.89659 542.222526 
L 873.922419 537.197379 
L 874.948249 542.08663 
L 875.974078 538.438643 
L 876.999908 544.535104 
L 878.025738 540.133556 
L 879.051567 546.648668 
L 880.077397 537.632208 
L 881.103226 546.72896 
L 882.129056 540.319747 
L 883.154886 545.120444 
L 884.180715 539.888754 
L 885.206545 545.925878 
L 886.232374 539.905474 
L 887.258204 541.840486 
L 888.284033 539.548502 
L 889.309863 531.787373 
L 890.335693 536.388893 
L 891.361522 545.245875 
L 892.387352 538.866639 
L 893.413181 544.745333 
L 894.439011 541.103364 
L 895.464841 548.490622 
L 896.49067 539.864669 
L 897.5165 541.293054 
L 898.542329 539.952671 
L 899.568159 543.654519 
L 900.593988 537.633681 
L 901.619818 543.719946 
L 902.645648 543.382403 
L 903.671477 551.091223 
L 904.697307 538.36234 
L 905.723136 544.696015 
L 906.748966 538.926986 
L 907.774795 546.928126 
L 908.800625 540.547201 
L 909.826455 543.491684 
L 910.852284 540.78682 
L 911.878114 544.450588 
L 912.903943 538.976972 
L 913.929773 545.283262 
L 914.955603 540.445873 
L 915.981432 547.656911 
L 917.007262 540.809741 
L 918.033091 544.599137 
L 919.058921 537.487925 
L 920.08475 548.237793 
L 921.11058 539.099054 
L 922.13641 544.770304 
L 923.162239 539.673323 
L 924.188069 542.735296 
L 925.213898 534.421984 
L 926.239728 544.910171 
L 927.265557 538.085265 
L 928.291387 545.573341 
L 929.317217 538.074998 
L 930.343046 543.212755 
L 931.368876 540.363916 
L 932.394705 542.498576 
L 933.420535 541.525058 
L 934.446365 544.733437 
L 935.472194 541.030319 
L 936.498024 546.172849 
L 937.523853 535.981988 
L 938.549683 545.947876 
L 939.575512 540.018044 
L 940.601342 545.33799 
L 941.627172 539.406804 
L 942.653001 546.718406 
L 943.678831 538.348684 
L 944.70466 545.533013 
L 945.73049 537.190525 
L 946.75632 547.312971 
L 947.782149 542.08019 
L 948.807979 545.594852 
L 949.833808 539.187141 
L 950.859638 545.084133 
L 951.885467 540.392036 
L 952.911297 544.501272 
L 953.937127 537.796244 
L 954.962956 552.859822 
L 955.988786 546.299619 
L 957.014615 547.589124 
L 958.040445 539.947223 
L 959.066274 545.840559 
L 960.092104 538.785255 
L 961.117934 543.705236 
L 962.143763 538.652952 
L 963.169593 544.578069 
L 964.195422 539.629466 
L 965.221252 544.843519 
L 966.247082 537.003321 
L 967.272911 546.480843 
L 968.298741 539.716053 
L 969.32457 547.767362 
L 970.3504 536.065403 
L 971.376229 546.539525 
L 972.402059 541.797468 
L 973.427889 545.248283 
L 974.453718 539.411714 
L 975.479548 542.84035 
L 976.505377 538.152414 
L 977.531207 543.250693 
L 978.557036 538.188069 
L 979.582866 556.359353 
L 980.608696 539.306911 
L 981.634525 543.044233 
L 982.660355 542.381285 
L 983.686184 545.71268 
L 984.712014 538.487602 
L 985.737844 542.957587 
L 986.763673 537.767447 
L 987.789503 546.311922 
L 988.815332 541.250487 
L 989.841162 545.26977 
L 990.866991 538.417768 
L 991.892821 545.86114 
L 992.918651 540.785111 
L 993.94448 547.547652 
L 994.97031 540.43621 
L 995.996139 541.488316 
L 997.021969 537.893687 
L 998.047799 545.673486 
L 999.073628 531.119896 
L 1000.099458 545.226742 
L 1001.125287 539.032411 
L 1002.151117 543.23149 
L 1003.176946 538.881642 
L 1004.202776 543.789381 
L 1005.228606 539.394773 
L 1006.254435 546.557174 
L 1007.280265 541.32358 
L 1008.306094 557.70715 
L 1009.331924 543.355629 
L 1010.357753 545.6432 
L 1011.383583 539.232596 
L 1012.409413 546.223738 
L 1013.435242 541.562128 
L 1014.461072 546.441576 
L 1015.486901 539.605279 
L 1016.512731 542.271232 
L 1017.538561 539.161913 
L 1018.56439 546.099604 
L 1019.59022 540.58759 
L 1020.616049 545.489257 
L 1021.641879 538.039282 
L 1022.667708 546.284992 
L 1023.693538 540.040359 
L 1024.719368 544.981535 
L 1025.745197 538.388478 
L 1026.771027 541.437422 
L 1027.796856 535.5574 
L 1028.822686 544.57208 
L 1029.848515 540.926051 
L 1030.874345 545.728817 
L 1031.900175 536.173318 
L 1032.926004 545.896579 
L 1033.951834 540.03694 
L 1034.977663 544.636437 
L 1036.003493 537.288468 
L 1037.029323 547.538398 
L 1038.055152 539.485977 
L 1039.080982 546.768881 
L 1040.106811 538.793397 
L 1041.132641 547.494813 
L 1042.15847 541.149268 
L 1043.1843 545.389199 
L 1044.21013 540.555396 
L 1045.235959 546.817936 
L 1046.261789 541.361439 
L 1047.287618 546.247055 
L 1048.313448 536.98544 
L 1049.339278 548.722647 
L 1050.365107 538.837327 
L 1051.390937 544.387386 
L 1052.416766 539.33221 
L 1053.442596 548.269271 
L 1054.468425 539.645962 
L 1055.494255 545.344194 
L 1056.520085 539.224848 
L 1057.545914 543.793772 
L 1058.571744 539.480625 
L 1059.597573 554.958692 
L 1060.623403 541.917952 
L 1061.649232 546.665546 
L 1062.675062 550.367523 
L 1063.700892 546.123439 
L 1064.726721 540.936659 
L 1065.752551 546.431468 
L 1066.77838 540.084681 
L 1067.80421 545.375684 
L 1068.83004 536.55033 
L 1069.855869 544.995372 
L 1070.881699 538.739489 
L 1071.907528 545.979043 
L 1072.933358 537.4726 
L 1073.959187 543.270399 
L 1074.985017 537.63133 
L 1076.010847 547.620302 
L 1077.036676 538.171754 
L 1078.062506 544.175032 
L 1079.088335 537.909589 
L 1080.114165 546.662227 
L 1081.139994 537.071386 
L 1082.165824 545.328654 
L 1083.191654 537.32395 
L 1084.217483 546.924601 
L 1085.243313 537.713704 
L 1086.269142 545.086509 
L 1087.294972 541.05089 
L 1088.320802 545.812017 
L 1089.346631 539.829096 
L 1090.372461 546.316309 
L 1091.39829 538.725815 
L 1092.42412 543.419126 
L 1093.449949 540.561379 
L 1094.475779 537.359678 
L 1095.501609 541.091988 
L 1096.527438 538.205917 
L 1097.553268 540.017531 
L 1098.579097 544.989407 
L 1099.604927 533.658428 
L 1100.630757 540.353245 
L 1101.656586 536.482133 
L 1102.682416 543.252906 
L 1103.708245 534.107859 
L 1104.734075 542.57339 
L 1105.759904 531.679316 
L 1106.785734 542.559588 
L 1107.811564 536.089521 
L 1108.837393 543.422242 
L 1109.863223 532.269652 
L 1110.889052 542.117488 
L 1111.914882 535.736346 
L 1112.940711 541.62184 
L 1113.966541 534.894789 
L 1114.992371 539.916861 
L 1116.0182 539.846984 
L 1117.04403 544.368652 
L 1118.069859 569.470126 
L 1119.095689 540.527914 
L 1120.121519 537.342084 
L 1121.147348 539.738331 
L 1122.173178 538.522992 
L 1123.199007 544.231335 
L 1124.224837 539.778903 
L 1125.250666 543.667205 
L 1126.276496 538.847517 
L 1128.328155 535.544435 
L 1129.353985 560.85134 
L 1130.379814 531.494199 
L 1131.405644 538.400004 
L 1132.431473 534.990856 
L 1133.457303 541.672516 
L 1134.483133 536.663612 
L 1135.508962 540.786754 
L 1136.534792 534.968642 
L 1137.560621 540.000997 
L 1138.586451 534.557739 
L 1139.612281 541.489719 
L 1140.63811 534.587203 
L 1141.66394 543.652573 
L 1142.689769 541.85942 
L 1143.715599 541.601989 
L 1144.741428 534.088773 
L 1145.767258 540.17978 
L 1146.793088 533.766797 
L 1147.818917 541.851532 
L 1148.844747 543.574386 
L 1149.870576 541.8059 
L 1150.896406 536.238859 
L 1151.922235 555.238147 
L 1152.948065 541.333383 
L 1153.973895 546.20918 
L 1154.999724 541.008546 
L 1156.025554 543.548507 
L 1157.051383 537.151012 
L 1158.077213 543.801585 
L 1159.103043 537.029606 
L 1160.128872 544.142384 
L 1161.154702 533.896733 
L 1162.180531 541.664644 
L 1163.206361 535.682228 
L 1164.23219 541.416193 
L 1165.25802 538.752934 
L 1166.28385 547.438943 
L 1167.309679 534.972738 
L 1168.335509 540.222363 
L 1169.361338 537.477188 
L 1170.387168 539.121306 
L 1171.412998 534.129694 
L 1172.438827 541.147646 
L 1173.464657 535.645501 
L 1174.490486 541.579673 
L 1175.516316 533.42759 
L 1176.542145 542.767967 
L 1177.567975 533.854678 
L 1178.593805 545.537008 
L 1179.619634 525.57902 
L 1180.645464 544.828396 
L 1181.671293 540.262401 
L 1182.697123 547.638725 
L 1183.722952 538.348906 
L 1184.748782 546.965354 
L 1185.774612 540.169157 
L 1186.800441 547.291631 
L 1187.826271 541.856318 
L 1188.8521 546.684563 
L 1189.87793 538.831795 
L 1190.90376 547.855908 
L 1191.929589 539.033183 
L 1192.955419 545.711179 
L 1193.981248 548.319253 
L 1195.007078 546.447839 
L 1196.032907 541.811148 
L 1197.058737 545.268881 
L 1198.084567 537.627089 
L 1199.110396 544.221308 
L 1200.136226 538.901599 
L 1201.162055 546.290103 
L 1202.187885 537.580245 
L 1203.213714 547.517405 
L 1204.239544 540.676753 
L 1205.265374 548.256053 
L 1206.291203 540.51204 
L 1207.317033 549.081706 
L 1208.342862 539.90872 
L 1209.368692 546.463727 
L 1210.394522 539.570503 
L 1211.420351 547.678321 
L 1212.446181 539.820029 
L 1213.47201 545.418871 
L 1214.49784 548.838494 
L 1215.523669 546.581505 
L 1216.549499 537.877508 
L 1217.575329 549.530087 
L 1218.601158 548.100152 
L 1219.626988 547.601558 
L 1220.652817 539.378043 
L 1221.678647 544.936883 
L 1222.704477 538.746547 
L 1223.730306 546.499773 
L 1224.756136 539.01132 
L 1225.781965 554.487248 
L 1226.807795 539.322361 
L 1227.833624 547.587124 
L 1228.859454 538.579037 
L 1229.885284 543.51197 
L 1230.911113 542.192607 
L 1231.936943 547.679334 
L 1232.962772 537.098633 
L 1233.988602 547.273255 
L 1235.014431 539.971527 
L 1236.040261 544.837727 
L 1237.066091 538.097287 
L 1238.09192 543.916027 
L 1239.11775 539.604661 
L 1240.143579 542.38404 
L 1241.169409 540.469332 
L 1242.195239 546.039143 
L 1243.221068 540.565811 
L 1244.246898 544.732859 
L 1245.272727 539.196504 
L 1245.272727 539.196504 
" style="fill:none;stroke:#ff7f0e;stroke-linecap:square;stroke-width:1.5;"/>
   </g>
   <g id="patch_3">
    <path d="M 180 640.8 
L 180 86.4 
" style="fill:none;stroke:#000000;stroke-linecap:square;stroke-linejoin:miter;stroke-width:0.8;"/>
   </g>
   <g id="patch_4">
    <path d="M 1296 640.8 
L 1296 86.4 
" style="fill:none;stroke:#000000;stroke-linecap:square;stroke-linejoin:miter;stroke-width:0.8;"/>
   </g>
   <g id="patch_5">
    <path d="M 180 640.8 
L 1296 640.8 
" style="fill:none;stroke:#000000;stroke-linecap:square;stroke-linejoin:miter;stroke-width:0.8;"/>
   </g>
   <g id="patch_6">
    <path d="M 180 86.4 
L 1296 86.4 
" style="fill:none;stroke:#000000;stroke-linecap:square;stroke-linejoin:miter;stroke-width:0.8;"/>
   </g>
   <g id="text_19">
    <!-- KAMA Speedup -->
    <defs>
     <path d="M 9.8125 72.90625 
L 19.671875 72.90625 
L 19.671875 42.09375 
L 52.390625 72.90625 
L 65.09375 72.90625 
L 28.90625 38.921875 
L 67.671875 0 
L 54.6875 0 
L 19.671875 35.109375 
L 19.671875 0 
L 9.8125 0 
z
" id="DejaVuSans-75"/>
     <path d="M 34.1875 63.1875 
L 20.796875 26.90625 
L 47.609375 26.90625 
z
M 28.609375 72.90625 
L 39.796875 72.90625 
L 67.578125 0 
L 57.328125 0 
L 50.6875 18.703125 
L 17.828125 18.703125 
L 11.1875 0 
L 0.78125 0 
z
" id="DejaVuSans-65"/>
     <path d="M 9.8125 72.90625 
L 24.515625 72.90625 
L 43.109375 23.296875 
L 61.8125 72.90625 
L 76.515625 72.90625 
L 76.515625 0 
L 66.890625 0 
L 66.890625 64.015625 
L 48.09375 14.015625 
L 38.1875 14.015625 
L 19.390625 64.015625 
L 19.390625 0 
L 9.8125 0 
z
" id="DejaVuSans-77"/>
     <path id="DejaVuSans-32"/>
     <path d="M 53.515625 70.515625 
L 53.515625 60.890625 
Q 47.90625 63.578125 42.921875 64.890625 
Q 37.9375 66.21875 33.296875 66.21875 
Q 25.25 66.21875 20.875 63.09375 
Q 16.5 59.96875 16.5 54.203125 
Q 16.5 49.359375 19.40625 46.890625 
Q 22.3125 44.4375 30.421875 42.921875 
L 36.375 41.703125 
Q 47.40625 39.59375 52.65625 34.296875 
Q 57.90625 29 57.90625 20.125 
Q 57.90625 9.515625 50.796875 4.046875 
Q 43.703125 -1.421875 29.984375 -1.421875 
Q 24.8125 -1.421875 18.96875 -0.25 
Q 13.140625 0.921875 6.890625 3.21875 
L 6.890625 13.375 
Q 12.890625 10.015625 18.65625 8.296875 
Q 24.421875 6.59375 29.984375 6.59375 
Q 38.421875 6.59375 43.015625 9.90625 
Q 47.609375 13.234375 47.609375 19.390625 
Q 47.609375 24.75 44.3125 27.78125 
Q 41.015625 30.8125 33.5 32.328125 
L 27.484375 33.5 
Q 16.453125 35.6875 11.515625 40.375 
Q 6.59375 45.0625 6.59375 53.421875 
Q 6.59375 63.09375 13.40625 68.65625 
Q 20.21875 74.21875 32.171875 74.21875 
Q 37.3125 74.21875 42.625 73.28125 
Q 47.953125 72.359375 53.515625 70.515625 
z
" id="DejaVuSans-83"/>
    </defs>
    <g transform="translate(692.455312 80.4)scale(0.12 -0.12)">
     <use xlink:href="#DejaVuSans-75"/>
     <use x="63.826172" xlink:href="#DejaVuSans-65"/>
     <use x="132.234375" xlink:href="#DejaVuSans-77"/>
     <use x="218.513672" xlink:href="#DejaVuSans-65"/>
     <use x="286.921875" xlink:href="#DejaVuSans-32"/>
     <use x="318.708984" xlink:href="#DejaVuSans-83"/>
     <use x="382.185547" xlink:href="#DejaVuSans-112"/>
     <use x="445.662109" xlink:href="#DejaVuSans-101"/>
     <use x="507.185547" xlink:href="#DejaVuSans-101"/>
     <use x="568.708984" xlink:href="#DejaVuSans-100"/>
     <use x="632.185547" xlink:href="#DejaVuSans-117"/>
     <use x="695.564453" xlink:href="#DejaVuSans-112"/>
    </g>
   </g>
   <g id="legend_1">
    <g id="patch_7">
     <path d="M 1185.373437 123.75625 
L 1289 123.75625 
Q 1291 123.75625 1291 121.75625 
L 1291 93.4 
Q 1291 91.4 1289 91.4 
L 1185.373437 91.4 
Q 1183.373437 91.4 1183.373437 93.4 
L 1183.373437 121.75625 
Q 1183.373437 123.75625 1185.373437 123.75625 
z
" style="fill:#ffffff;opacity:0.8;stroke:#cccccc;stroke-linejoin:miter;"/>
    </g>
    <g id="line2d_19">
     <path d="M 1187.373437 99.498437 
L 1207.373437 99.498437 
" style="fill:none;stroke:#1f77b4;stroke-linecap:square;stroke-width:1.5;"/>
    </g>
    <g id="line2d_20"/>
    <g id="text_20">
     <!-- numpy.float32 -->
     <defs>
      <path d="M 52 44.1875 
Q 55.375 50.25 60.0625 53.125 
Q 64.75 56 71.09375 56 
Q 79.640625 56 84.28125 50.015625 
Q 88.921875 44.046875 88.921875 33.015625 
L 88.921875 0 
L 79.890625 0 
L 79.890625 32.71875 
Q 79.890625 40.578125 77.09375 44.375 
Q 74.3125 48.1875 68.609375 48.1875 
Q 61.625 48.1875 57.5625 43.546875 
Q 53.515625 38.921875 53.515625 30.90625 
L 53.515625 0 
L 44.484375 0 
L 44.484375 32.71875 
Q 44.484375 40.625 41.703125 44.40625 
Q 38.921875 48.1875 33.109375 48.1875 
Q 26.21875 48.1875 22.15625 43.53125 
Q 18.109375 38.875 18.109375 30.90625 
L 18.109375 0 
L 9.078125 0 
L 9.078125 54.6875 
L 18.109375 54.6875 
L 18.109375 46.1875 
Q 21.1875 51.21875 25.484375 53.609375 
Q 29.78125 56 35.6875 56 
Q 41.65625 56 45.828125 52.96875 
Q 50 49.953125 52 44.1875 
z
" id="DejaVuSans-109"/>
      <path d="M 32.171875 -5.078125 
Q 28.375 -14.84375 24.75 -17.8125 
Q 21.140625 -20.796875 15.09375 -20.796875 
L 7.90625 -20.796875 
L 7.90625 -13.28125 
L 13.1875 -13.28125 
Q 16.890625 -13.28125 18.9375 -11.515625 
Q 21 -9.765625 23.484375 -3.21875 
L 25.09375 0.875 
L 2.984375 54.6875 
L 12.5 54.6875 
L 29.59375 11.921875 
L 46.6875 54.6875 
L 56.203125 54.6875 
z
" id="DejaVuSans-121"/>
      <path d="M 37.109375 75.984375 
L 37.109375 68.5 
L 28.515625 68.5 
Q 23.6875 68.5 21.796875 66.546875 
Q 19.921875 64.59375 19.921875 59.515625 
L 19.921875 54.6875 
L 34.71875 54.6875 
L 34.71875 47.703125 
L 19.921875 47.703125 
L 19.921875 0 
L 10.890625 0 
L 10.890625 47.703125 
L 2.296875 47.703125 
L 2.296875 54.6875 
L 10.890625 54.6875 
L 10.890625 58.5 
Q 10.890625 67.625 15.140625 71.796875 
Q 19.390625 75.984375 28.609375 75.984375 
z
" id="DejaVuSans-102"/>
      <path d="M 9.421875 75.984375 
L 18.40625 75.984375 
L 18.40625 0 
L 9.421875 0 
z
" id="DejaVuSans-108"/>
      <path d="M 30.609375 48.390625 
Q 23.390625 48.390625 19.1875 42.75 
Q 14.984375 37.109375 14.984375 27.296875 
Q 14.984375 17.484375 19.15625 11.84375 
Q 23.34375 6.203125 30.609375 6.203125 
Q 37.796875 6.203125 41.984375 11.859375 
Q 46.1875 17.53125 46.1875 27.296875 
Q 46.1875 37.015625 41.984375 42.703125 
Q 37.796875 48.390625 30.609375 48.390625 
z
M 30.609375 56 
Q 42.328125 56 49.015625 48.375 
Q 55.71875 40.765625 55.71875 27.296875 
Q 55.71875 13.875 49.015625 6.21875 
Q 42.328125 -1.421875 30.609375 -1.421875 
Q 18.84375 -1.421875 12.171875 6.21875 
Q 5.515625 13.875 5.515625 27.296875 
Q 5.515625 40.765625 12.171875 48.375 
Q 18.84375 56 30.609375 56 
z
" id="DejaVuSans-111"/>
      <path d="M 34.28125 27.484375 
Q 23.390625 27.484375 19.1875 25 
Q 14.984375 22.515625 14.984375 16.5 
Q 14.984375 11.71875 18.140625 8.90625 
Q 21.296875 6.109375 26.703125 6.109375 
Q 34.1875 6.109375 38.703125 11.40625 
Q 43.21875 16.703125 43.21875 25.484375 
L 43.21875 27.484375 
z
M 52.203125 31.203125 
L 52.203125 0 
L 43.21875 0 
L 43.21875 8.296875 
Q 40.140625 3.328125 35.546875 0.953125 
Q 30.953125 -1.421875 24.3125 -1.421875 
Q 15.921875 -1.421875 10.953125 3.296875 
Q 6 8.015625 6 15.921875 
Q 6 25.140625 12.171875 29.828125 
Q 18.359375 34.515625 30.609375 34.515625 
L 43.21875 34.515625 
L 43.21875 35.40625 
Q 43.21875 41.609375 39.140625 45 
Q 35.0625 48.390625 27.6875 48.390625 
Q 23 48.390625 18.546875 47.265625 
Q 14.109375 46.140625 10.015625 43.890625 
L 10.015625 52.203125 
Q 14.9375 54.109375 19.578125 55.046875 
Q 24.21875 56 28.609375 56 
Q 40.484375 56 46.34375 49.84375 
Q 52.203125 43.703125 52.203125 31.203125 
z
" id="DejaVuSans-97"/>
      <path d="M 18.3125 70.21875 
L 18.3125 54.6875 
L 36.8125 54.6875 
L 36.8125 47.703125 
L 18.3125 47.703125 
L 18.3125 18.015625 
Q 18.3125 11.328125 20.140625 9.421875 
Q 21.96875 7.515625 27.59375 7.515625 
L 36.8125 7.515625 
L 36.8125 0 
L 27.59375 0 
Q 17.1875 0 13.234375 3.875 
Q 9.28125 7.765625 9.28125 18.015625 
L 9.28125 47.703125 
L 2.6875 47.703125 
L 2.6875 54.6875 
L 9.28125 54.6875 
L 9.28125 70.21875 
z
" id="DejaVuSans-116"/>
     </defs>
     <g transform="translate(1215.373437 102.998437)scale(0.1 -0.1)">
      <use xlink:href="#DejaVuSans-110"/>
      <use x="63.378906" xlink:href="#DejaVuSans-117"/>
      <use x="126.757812" xlink:href="#DejaVuSans-109"/>
      <use x="224.169922" xlink:href="#DejaVuSans-112"/>
      <use x="287.646484" xlink:href="#DejaVuSans-121"/>
      <use x="332.576172" xlink:href="#DejaVuSans-46"/>
      <use x="364.363281" xlink:href="#DejaVuSans-102"/>
      <use x="399.568359" xlink:href="#DejaVuSans-108"/>
      <use x="427.351562" xlink:href="#DejaVuSans-111"/>
      <use x="488.533203" xlink:href="#DejaVuSans-97"/>
      <use x="549.8125" xlink:href="#DejaVuSans-116"/>
      <use x="589.021484" xlink:href="#DejaVuSans-51"/>
      <use x="652.644531" xlink:href="#DejaVuSans-50"/>
     </g>
    </g>
    <g id="line2d_21">
     <path d="M 1187.373437 114.176562 
L 1207.373437 114.176562 
" style="fill:none;stroke:#ff7f0e;stroke-linecap:square;stroke-width:1.5;"/>
    </g>
    <g id="line2d_22"/>
    <g id="text_21">
     <!-- numpy.float64 -->
     <g transform="translate(1215.373437 117.676562)scale(0.1 -0.1)">
      <use xlink:href="#DejaVuSans-110"/>
      <use x="63.378906" xlink:href="#DejaVuSans-117"/>
      <use x="126.757812" xlink:href="#DejaVuSans-109"/>
      <use x="224.169922" xlink:href="#DejaVuSans-112"/>
      <use x="287.646484" xlink:href="#DejaVuSans-121"/>
      <use x="332.576172" xlink:href="#DejaVuSans-46"/>
      <use x="364.363281" xlink:href="#DejaVuSans-102"/>
      <use x="399.568359" xlink:href="#DejaVuSans-108"/>
      <use x="427.351562" xlink:href="#DejaVuSans-111"/>
      <use x="488.533203" xlink:href="#DejaVuSans-97"/>
      <use x="549.8125" xlink:href="#DejaVuSans-116"/>
      <use x="589.021484" xlink:href="#DejaVuSans-54"/>
      <use x="652.644531" xlink:href="#DejaVuSans-52"/>
     </g>
    </g>
   </g>
  </g>
 </g>
 <defs>
  <clipPath id="p9020466846">
   <rect height="554.4" width="1116" x="180" y="86.4"/>
  </clipPath>
 </defs>
</svg>
