<?xml version="1.0" encoding="utf-8" standalone="no"?>
<!DOCTYPE svg PUBLIC "-//W3C//DTD SVG 1.1//EN"
  "http://www.w3.org/Graphics/SVG/1.1/DTD/svg11.dtd">
<!-- Created with matplotlib (https://matplotlib.org/) -->
<svg height="720pt" version="1.1" viewBox="0 0 1440 720" width="1440pt" xmlns="http://www.w3.org/2000/svg" xmlns:xlink="http://www.w3.org/1999/xlink">
 <defs>
  <style type="text/css">
*{stroke-linecap:butt;stroke-linejoin:round;}
  </style>
 </defs>
 <g id="figure_1">
  <g id="patch_1">
   <path d="M 0 720 
L 1440 720 
L 1440 0 
L 0 0 
z
" style="fill:#ffffff;"/>
  </g>
  <g id="axes_1">
   <g id="patch_2">
    <path d="M 180 640.8 
L 1296 640.8 
L 1296 86.4 
L 180 86.4 
z
" style="fill:#ffffff;"/>
   </g>
   <g id="matplotlib.axis_1">
    <g id="xtick_1">
     <g id="line2d_1">
      <defs>
       <path d="M 0 0 
L 0 3.5 
" id="m55e6a3fc72" style="stroke:#000000;stroke-width:0.8;"/>
      </defs>
      <g>
       <use style="stroke:#000000;stroke-width:0.8;" x="333.310231" xlink:href="#m55e6a3fc72" y="640.8"/>
      </g>
     </g>
     <g id="text_1">
      <!-- 100.0 -->
      <defs>
       <path d="M 12.40625 8.296875 
L 28.515625 8.296875 
L 28.515625 63.921875 
L 10.984375 60.40625 
L 10.984375 69.390625 
L 28.421875 72.90625 
L 38.28125 72.90625 
L 38.28125 8.296875 
L 54.390625 8.296875 
L 54.390625 0 
L 12.40625 0 
z
" id="DejaVuSans-49"/>
       <path d="M 31.78125 66.40625 
Q 24.171875 66.40625 20.328125 58.90625 
Q 16.5 51.421875 16.5 36.375 
Q 16.5 21.390625 20.328125 13.890625 
Q 24.171875 6.390625 31.78125 6.390625 
Q 39.453125 6.390625 43.28125 13.890625 
Q 47.125 21.390625 47.125 36.375 
Q 47.125 51.421875 43.28125 58.90625 
Q 39.453125 66.40625 31.78125 66.40625 
z
M 31.78125 74.21875 
Q 44.046875 74.21875 50.515625 64.515625 
Q 56.984375 54.828125 56.984375 36.375 
Q 56.984375 17.96875 50.515625 8.265625 
Q 44.046875 -1.421875 31.78125 -1.421875 
Q 19.53125 -1.421875 13.0625 8.265625 
Q 6.59375 17.96875 6.59375 36.375 
Q 6.59375 54.828125 13.0625 64.515625 
Q 19.53125 74.21875 31.78125 74.21875 
z
" id="DejaVuSans-48"/>
       <path d="M 10.6875 12.40625 
L 21 12.40625 
L 21 0 
L 10.6875 0 
z
" id="DejaVuSans-46"/>
      </defs>
      <g transform="translate(318.996168 655.398438)scale(0.1 -0.1)">
       <use xlink:href="#DejaVuSans-49"/>
       <use x="63.623047" xlink:href="#DejaVuSans-48"/>
       <use x="127.246094" xlink:href="#DejaVuSans-48"/>
       <use x="190.869141" xlink:href="#DejaVuSans-46"/>
       <use x="222.65625" xlink:href="#DejaVuSans-48"/>
      </g>
     </g>
    </g>
    <g id="xtick_2">
     <g id="line2d_2">
      <g>
       <use style="stroke:#000000;stroke-width:0.8;" x="435.893189" xlink:href="#m55e6a3fc72" y="640.8"/>
      </g>
     </g>
     <g id="text_2">
      <!-- 200.0 -->
      <defs>
       <path d="M 19.1875 8.296875 
L 53.609375 8.296875 
L 53.609375 0 
L 7.328125 0 
L 7.328125 8.296875 
Q 12.9375 14.109375 22.625 23.890625 
Q 32.328125 33.6875 34.8125 36.53125 
Q 39.546875 41.84375 41.421875 45.53125 
Q 43.3125 49.21875 43.3125 52.78125 
Q 43.3125 58.59375 39.234375 62.25 
Q 35.15625 65.921875 28.609375 65.921875 
Q 23.96875 65.921875 18.8125 64.3125 
Q 13.671875 62.703125 7.8125 59.421875 
L 7.8125 69.390625 
Q 13.765625 71.78125 18.9375 73 
Q 24.125 74.21875 28.421875 74.21875 
Q 39.75 74.21875 46.484375 68.546875 
Q 53.21875 62.890625 53.21875 53.421875 
Q 53.21875 48.921875 51.53125 44.890625 
Q 49.859375 40.875 45.40625 35.40625 
Q 44.1875 33.984375 37.640625 27.21875 
Q 31.109375 20.453125 19.1875 8.296875 
z
" id="DejaVuSans-50"/>
      </defs>
      <g transform="translate(421.579126 655.398438)scale(0.1 -0.1)">
       <use xlink:href="#DejaVuSans-50"/>
       <use x="63.623047" xlink:href="#DejaVuSans-48"/>
       <use x="127.246094" xlink:href="#DejaVuSans-48"/>
       <use x="190.869141" xlink:href="#DejaVuSans-46"/>
       <use x="222.65625" xlink:href="#DejaVuSans-48"/>
      </g>
     </g>
    </g>
    <g id="xtick_3">
     <g id="line2d_3">
      <g>
       <use style="stroke:#000000;stroke-width:0.8;" x="538.476147" xlink:href="#m55e6a3fc72" y="640.8"/>
      </g>
     </g>
     <g id="text_3">
      <!-- 300.0 -->
      <defs>
       <path d="M 40.578125 39.3125 
Q 47.65625 37.796875 51.625 33 
Q 55.609375 28.21875 55.609375 21.1875 
Q 55.609375 10.40625 48.1875 4.484375 
Q 40.765625 -1.421875 27.09375 -1.421875 
Q 22.515625 -1.421875 17.65625 -0.515625 
Q 12.796875 0.390625 7.625 2.203125 
L 7.625 11.71875 
Q 11.71875 9.328125 16.59375 8.109375 
Q 21.484375 6.890625 26.8125 6.890625 
Q 36.078125 6.890625 40.9375 10.546875 
Q 45.796875 14.203125 45.796875 21.1875 
Q 45.796875 27.640625 41.28125 31.265625 
Q 36.765625 34.90625 28.71875 34.90625 
L 20.21875 34.90625 
L 20.21875 43.015625 
L 29.109375 43.015625 
Q 36.375 43.015625 40.234375 45.921875 
Q 44.09375 48.828125 44.09375 54.296875 
Q 44.09375 59.90625 40.109375 62.90625 
Q 36.140625 65.921875 28.71875 65.921875 
Q 24.65625 65.921875 20.015625 65.03125 
Q 15.375 64.15625 9.8125 62.3125 
L 9.8125 71.09375 
Q 15.4375 72.65625 20.34375 73.4375 
Q 25.25 74.21875 29.59375 74.21875 
Q 40.828125 74.21875 47.359375 69.109375 
Q 53.90625 64.015625 53.90625 55.328125 
Q 53.90625 49.265625 50.4375 45.09375 
Q 46.96875 40.921875 40.578125 39.3125 
z
" id="DejaVuSans-51"/>
      </defs>
      <g transform="translate(524.162084 655.398438)scale(0.1 -0.1)">
       <use xlink:href="#DejaVuSans-51"/>
       <use x="63.623047" xlink:href="#DejaVuSans-48"/>
       <use x="127.246094" xlink:href="#DejaVuSans-48"/>
       <use x="190.869141" xlink:href="#DejaVuSans-46"/>
       <use x="222.65625" xlink:href="#DejaVuSans-48"/>
      </g>
     </g>
    </g>
    <g id="xtick_4">
     <g id="line2d_4">
      <g>
       <use style="stroke:#000000;stroke-width:0.8;" x="641.059105" xlink:href="#m55e6a3fc72" y="640.8"/>
      </g>
     </g>
     <g id="text_4">
      <!-- 400.0 -->
      <defs>
       <path d="M 37.796875 64.3125 
L 12.890625 25.390625 
L 37.796875 25.390625 
z
M 35.203125 72.90625 
L 47.609375 72.90625 
L 47.609375 25.390625 
L 58.015625 25.390625 
L 58.015625 17.1875 
L 47.609375 17.1875 
L 47.609375 0 
L 37.796875 0 
L 37.796875 17.1875 
L 4.890625 17.1875 
L 4.890625 26.703125 
z
" id="DejaVuSans-52"/>
      </defs>
      <g transform="translate(626.745042 655.398438)scale(0.1 -0.1)">
       <use xlink:href="#DejaVuSans-52"/>
       <use x="63.623047" xlink:href="#DejaVuSans-48"/>
       <use x="127.246094" xlink:href="#DejaVuSans-48"/>
       <use x="190.869141" xlink:href="#DejaVuSans-46"/>
       <use x="222.65625" xlink:href="#DejaVuSans-48"/>
      </g>
     </g>
    </g>
    <g id="xtick_5">
     <g id="line2d_5">
      <g>
       <use style="stroke:#000000;stroke-width:0.8;" x="743.642063" xlink:href="#m55e6a3fc72" y="640.8"/>
      </g>
     </g>
     <g id="text_5">
      <!-- 500.0 -->
      <defs>
       <path d="M 10.796875 72.90625 
L 49.515625 72.90625 
L 49.515625 64.59375 
L 19.828125 64.59375 
L 19.828125 46.734375 
Q 21.96875 47.46875 24.109375 47.828125 
Q 26.265625 48.1875 28.421875 48.1875 
Q 40.625 48.1875 47.75 41.5 
Q 54.890625 34.8125 54.890625 23.390625 
Q 54.890625 11.625 47.5625 5.09375 
Q 40.234375 -1.421875 26.90625 -1.421875 
Q 22.3125 -1.421875 17.546875 -0.640625 
Q 12.796875 0.140625 7.71875 1.703125 
L 7.71875 11.625 
Q 12.109375 9.234375 16.796875 8.0625 
Q 21.484375 6.890625 26.703125 6.890625 
Q 35.15625 6.890625 40.078125 11.328125 
Q 45.015625 15.765625 45.015625 23.390625 
Q 45.015625 31 40.078125 35.4375 
Q 35.15625 39.890625 26.703125 39.890625 
Q 22.75 39.890625 18.8125 39.015625 
Q 14.890625 38.140625 10.796875 36.28125 
z
" id="DejaVuSans-53"/>
      </defs>
      <g transform="translate(729.328 655.398438)scale(0.1 -0.1)">
       <use xlink:href="#DejaVuSans-53"/>
       <use x="63.623047" xlink:href="#DejaVuSans-48"/>
       <use x="127.246094" xlink:href="#DejaVuSans-48"/>
       <use x="190.869141" xlink:href="#DejaVuSans-46"/>
       <use x="222.65625" xlink:href="#DejaVuSans-48"/>
      </g>
     </g>
    </g>
    <g id="xtick_6">
     <g id="line2d_6">
      <g>
       <use style="stroke:#000000;stroke-width:0.8;" x="846.225021" xlink:href="#m55e6a3fc72" y="640.8"/>
      </g>
     </g>
     <g id="text_6">
      <!-- 600.0 -->
      <defs>
       <path d="M 33.015625 40.375 
Q 26.375 40.375 22.484375 35.828125 
Q 18.609375 31.296875 18.609375 23.390625 
Q 18.609375 15.53125 22.484375 10.953125 
Q 26.375 6.390625 33.015625 6.390625 
Q 39.65625 6.390625 43.53125 10.953125 
Q 47.40625 15.53125 47.40625 23.390625 
Q 47.40625 31.296875 43.53125 35.828125 
Q 39.65625 40.375 33.015625 40.375 
z
M 52.59375 71.296875 
L 52.59375 62.3125 
Q 48.875 64.0625 45.09375 64.984375 
Q 41.3125 65.921875 37.59375 65.921875 
Q 27.828125 65.921875 22.671875 59.328125 
Q 17.53125 52.734375 16.796875 39.40625 
Q 19.671875 43.65625 24.015625 45.921875 
Q 28.375 48.1875 33.59375 48.1875 
Q 44.578125 48.1875 50.953125 41.515625 
Q 57.328125 34.859375 57.328125 23.390625 
Q 57.328125 12.15625 50.6875 5.359375 
Q 44.046875 -1.421875 33.015625 -1.421875 
Q 20.359375 -1.421875 13.671875 8.265625 
Q 6.984375 17.96875 6.984375 36.375 
Q 6.984375 53.65625 15.1875 63.9375 
Q 23.390625 74.21875 37.203125 74.21875 
Q 40.921875 74.21875 44.703125 73.484375 
Q 48.484375 72.75 52.59375 71.296875 
z
" id="DejaVuSans-54"/>
      </defs>
      <g transform="translate(831.910958 655.398438)scale(0.1 -0.1)">
       <use xlink:href="#DejaVuSans-54"/>
       <use x="63.623047" xlink:href="#DejaVuSans-48"/>
       <use x="127.246094" xlink:href="#DejaVuSans-48"/>
       <use x="190.869141" xlink:href="#DejaVuSans-46"/>
       <use x="222.65625" xlink:href="#DejaVuSans-48"/>
      </g>
     </g>
    </g>
    <g id="xtick_7">
     <g id="line2d_7">
      <g>
       <use style="stroke:#000000;stroke-width:0.8;" x="948.807979" xlink:href="#m55e6a3fc72" y="640.8"/>
      </g>
     </g>
     <g id="text_7">
      <!-- 700.0 -->
      <defs>
       <path d="M 8.203125 72.90625 
L 55.078125 72.90625 
L 55.078125 68.703125 
L 28.609375 0 
L 18.3125 0 
L 43.21875 64.59375 
L 8.203125 64.59375 
z
" id="DejaVuSans-55"/>
      </defs>
      <g transform="translate(934.493916 655.398438)scale(0.1 -0.1)">
       <use xlink:href="#DejaVuSans-55"/>
       <use x="63.623047" xlink:href="#DejaVuSans-48"/>
       <use x="127.246094" xlink:href="#DejaVuSans-48"/>
       <use x="190.869141" xlink:href="#DejaVuSans-46"/>
       <use x="222.65625" xlink:href="#DejaVuSans-48"/>
      </g>
     </g>
    </g>
    <g id="xtick_8">
     <g id="line2d_8">
      <g>
       <use style="stroke:#000000;stroke-width:0.8;" x="1051.390937" xlink:href="#m55e6a3fc72" y="640.8"/>
      </g>
     </g>
     <g id="text_8">
      <!-- 800.0 -->
      <defs>
       <path d="M 31.78125 34.625 
Q 24.75 34.625 20.71875 30.859375 
Q 16.703125 27.09375 16.703125 20.515625 
Q 16.703125 13.921875 20.71875 10.15625 
Q 24.75 6.390625 31.78125 6.390625 
Q 38.8125 6.390625 42.859375 10.171875 
Q 46.921875 13.96875 46.921875 20.515625 
Q 46.921875 27.09375 42.890625 30.859375 
Q 38.875 34.625 31.78125 34.625 
z
M 21.921875 38.8125 
Q 15.578125 40.375 12.03125 44.71875 
Q 8.5 49.078125 8.5 55.328125 
Q 8.5 64.0625 14.71875 69.140625 
Q 20.953125 74.21875 31.78125 74.21875 
Q 42.671875 74.21875 48.875 69.140625 
Q 55.078125 64.0625 55.078125 55.328125 
Q 55.078125 49.078125 51.53125 44.71875 
Q 48 40.375 41.703125 38.8125 
Q 48.828125 37.15625 52.796875 32.3125 
Q 56.78125 27.484375 56.78125 20.515625 
Q 56.78125 9.90625 50.3125 4.234375 
Q 43.84375 -1.421875 31.78125 -1.421875 
Q 19.734375 -1.421875 13.25 4.234375 
Q 6.78125 9.90625 6.78125 20.515625 
Q 6.78125 27.484375 10.78125 32.3125 
Q 14.796875 37.15625 21.921875 38.8125 
z
M 18.3125 54.390625 
Q 18.3125 48.734375 21.84375 45.5625 
Q 25.390625 42.390625 31.78125 42.390625 
Q 38.140625 42.390625 41.71875 45.5625 
Q 45.3125 48.734375 45.3125 54.390625 
Q 45.3125 60.0625 41.71875 63.234375 
Q 38.140625 66.40625 31.78125 66.40625 
Q 25.390625 66.40625 21.84375 63.234375 
Q 18.3125 60.0625 18.3125 54.390625 
z
" id="DejaVuSans-56"/>
      </defs>
      <g transform="translate(1037.076874 655.398438)scale(0.1 -0.1)">
       <use xlink:href="#DejaVuSans-56"/>
       <use x="63.623047" xlink:href="#DejaVuSans-48"/>
       <use x="127.246094" xlink:href="#DejaVuSans-48"/>
       <use x="190.869141" xlink:href="#DejaVuSans-46"/>
       <use x="222.65625" xlink:href="#DejaVuSans-48"/>
      </g>
     </g>
    </g>
    <g id="xtick_9">
     <g id="line2d_9">
      <g>
       <use style="stroke:#000000;stroke-width:0.8;" x="1153.973895" xlink:href="#m55e6a3fc72" y="640.8"/>
      </g>
     </g>
     <g id="text_9">
      <!-- 900.0 -->
      <defs>
       <path d="M 10.984375 1.515625 
L 10.984375 10.5 
Q 14.703125 8.734375 18.5 7.8125 
Q 22.3125 6.890625 25.984375 6.890625 
Q 35.75 6.890625 40.890625 13.453125 
Q 46.046875 20.015625 46.78125 33.40625 
Q 43.953125 29.203125 39.59375 26.953125 
Q 35.25 24.703125 29.984375 24.703125 
Q 19.046875 24.703125 12.671875 31.3125 
Q 6.296875 37.9375 6.296875 49.421875 
Q 6.296875 60.640625 12.9375 67.421875 
Q 19.578125 74.21875 30.609375 74.21875 
Q 43.265625 74.21875 49.921875 64.515625 
Q 56.59375 54.828125 56.59375 36.375 
Q 56.59375 19.140625 48.40625 8.859375 
Q 40.234375 -1.421875 26.421875 -1.421875 
Q 22.703125 -1.421875 18.890625 -0.6875 
Q 15.09375 0.046875 10.984375 1.515625 
z
M 30.609375 32.421875 
Q 37.25 32.421875 41.125 36.953125 
Q 45.015625 41.5 45.015625 49.421875 
Q 45.015625 57.28125 41.125 61.84375 
Q 37.25 66.40625 30.609375 66.40625 
Q 23.96875 66.40625 20.09375 61.84375 
Q 16.21875 57.28125 16.21875 49.421875 
Q 16.21875 41.5 20.09375 36.953125 
Q 23.96875 32.421875 30.609375 32.421875 
z
" id="DejaVuSans-57"/>
      </defs>
      <g transform="translate(1139.659832 655.398438)scale(0.1 -0.1)">
       <use xlink:href="#DejaVuSans-57"/>
       <use x="63.623047" xlink:href="#DejaVuSans-48"/>
       <use x="127.246094" xlink:href="#DejaVuSans-48"/>
       <use x="190.869141" xlink:href="#DejaVuSans-46"/>
       <use x="222.65625" xlink:href="#DejaVuSans-48"/>
      </g>
     </g>
    </g>
    <g id="xtick_10">
     <g id="line2d_10">
      <g>
       <use style="stroke:#000000;stroke-width:0.8;" x="1256.556853" xlink:href="#m55e6a3fc72" y="640.8"/>
      </g>
     </g>
     <g id="text_10">
      <!-- 1000.0 -->
      <g transform="translate(1239.06154 655.398438)scale(0.1 -0.1)">
       <use xlink:href="#DejaVuSans-49"/>
       <use x="63.623047" xlink:href="#DejaVuSans-48"/>
       <use x="127.246094" xlink:href="#DejaVuSans-48"/>
       <use x="190.869141" xlink:href="#DejaVuSans-48"/>
       <use x="254.492188" xlink:href="#DejaVuSans-46"/>
       <use x="286.279297" xlink:href="#DejaVuSans-48"/>
      </g>
     </g>
    </g>
    <g id="text_11">
     <!-- n -->
     <defs>
      <path d="M 54.890625 33.015625 
L 54.890625 0 
L 45.90625 0 
L 45.90625 32.71875 
Q 45.90625 40.484375 42.875 44.328125 
Q 39.84375 48.1875 33.796875 48.1875 
Q 26.515625 48.1875 22.3125 43.546875 
Q 18.109375 38.921875 18.109375 30.90625 
L 18.109375 0 
L 9.078125 0 
L 9.078125 54.6875 
L 18.109375 54.6875 
L 18.109375 46.1875 
Q 21.34375 51.125 25.703125 53.5625 
Q 30.078125 56 35.796875 56 
Q 45.21875 56 50.046875 50.171875 
Q 54.890625 44.34375 54.890625 33.015625 
z
" id="DejaVuSans-110"/>
     </defs>
     <g transform="translate(734.83125 669.076563)scale(0.1 -0.1)">
      <use xlink:href="#DejaVuSans-110"/>
     </g>
    </g>
   </g>
   <g id="matplotlib.axis_2">
    <g id="ytick_1">
     <g id="line2d_11">
      <defs>
       <path d="M 0 0 
L -3.5 0 
" id="md1967604c0" style="stroke:#000000;stroke-width:0.8;"/>
      </defs>
      <g>
       <use style="stroke:#000000;stroke-width:0.8;" x="180" xlink:href="#md1967604c0" y="628.464515"/>
      </g>
     </g>
     <g id="text_12">
      <!-- 200 -->
      <g transform="translate(153.9125 632.263734)scale(0.1 -0.1)">
       <use xlink:href="#DejaVuSans-50"/>
       <use x="63.623047" xlink:href="#DejaVuSans-48"/>
       <use x="127.246094" xlink:href="#DejaVuSans-48"/>
      </g>
     </g>
    </g>
    <g id="ytick_2">
     <g id="line2d_12">
      <g>
       <use style="stroke:#000000;stroke-width:0.8;" x="180" xlink:href="#md1967604c0" y="542.264561"/>
      </g>
     </g>
     <g id="text_13">
      <!-- 400 -->
      <g transform="translate(153.9125 546.06378)scale(0.1 -0.1)">
       <use xlink:href="#DejaVuSans-52"/>
       <use x="63.623047" xlink:href="#DejaVuSans-48"/>
       <use x="127.246094" xlink:href="#DejaVuSans-48"/>
      </g>
     </g>
    </g>
    <g id="ytick_3">
     <g id="line2d_13">
      <g>
       <use style="stroke:#000000;stroke-width:0.8;" x="180" xlink:href="#md1967604c0" y="456.064607"/>
      </g>
     </g>
     <g id="text_14">
      <!-- 600 -->
      <g transform="translate(153.9125 459.863826)scale(0.1 -0.1)">
       <use xlink:href="#DejaVuSans-54"/>
       <use x="63.623047" xlink:href="#DejaVuSans-48"/>
       <use x="127.246094" xlink:href="#DejaVuSans-48"/>
      </g>
     </g>
    </g>
    <g id="ytick_4">
     <g id="line2d_14">
      <g>
       <use style="stroke:#000000;stroke-width:0.8;" x="180" xlink:href="#md1967604c0" y="369.864654"/>
      </g>
     </g>
     <g id="text_15">
      <!-- 800 -->
      <g transform="translate(153.9125 373.663872)scale(0.1 -0.1)">
       <use xlink:href="#DejaVuSans-56"/>
       <use x="63.623047" xlink:href="#DejaVuSans-48"/>
       <use x="127.246094" xlink:href="#DejaVuSans-48"/>
      </g>
     </g>
    </g>
    <g id="ytick_5">
     <g id="line2d_15">
      <g>
       <use style="stroke:#000000;stroke-width:0.8;" x="180" xlink:href="#md1967604c0" y="283.6647"/>
      </g>
     </g>
     <g id="text_16">
      <!-- 1000 -->
      <g transform="translate(147.55 287.463918)scale(0.1 -0.1)">
       <use xlink:href="#DejaVuSans-49"/>
       <use x="63.623047" xlink:href="#DejaVuSans-48"/>
       <use x="127.246094" xlink:href="#DejaVuSans-48"/>
       <use x="190.869141" xlink:href="#DejaVuSans-48"/>
      </g>
     </g>
    </g>
    <g id="ytick_6">
     <g id="line2d_16">
      <g>
       <use style="stroke:#000000;stroke-width:0.8;" x="180" xlink:href="#md1967604c0" y="197.464746"/>
      </g>
     </g>
     <g id="text_17">
      <!-- 1200 -->
      <g transform="translate(147.55 201.263965)scale(0.1 -0.1)">
       <use xlink:href="#DejaVuSans-49"/>
       <use x="63.623047" xlink:href="#DejaVuSans-50"/>
       <use x="127.246094" xlink:href="#DejaVuSans-48"/>
       <use x="190.869141" xlink:href="#DejaVuSans-48"/>
      </g>
     </g>
    </g>
    <g id="ytick_7">
     <g id="line2d_17">
      <g>
       <use style="stroke:#000000;stroke-width:0.8;" x="180" xlink:href="#md1967604c0" y="111.264792"/>
      </g>
     </g>
     <g id="text_18">
      <!-- 1400 -->
      <g transform="translate(147.55 115.064011)scale(0.1 -0.1)">
       <use xlink:href="#DejaVuSans-49"/>
       <use x="63.623047" xlink:href="#DejaVuSans-52"/>
       <use x="127.246094" xlink:href="#DejaVuSans-48"/>
       <use x="190.869141" xlink:href="#DejaVuSans-48"/>
      </g>
     </g>
    </g>
    <g id="text_19">
     <!-- speedup -->
     <defs>
      <path d="M 44.28125 53.078125 
L 44.28125 44.578125 
Q 40.484375 46.53125 36.375 47.5 
Q 32.28125 48.484375 27.875 48.484375 
Q 21.1875 48.484375 17.84375 46.4375 
Q 14.5 44.390625 14.5 40.28125 
Q 14.5 37.15625 16.890625 35.375 
Q 19.28125 33.59375 26.515625 31.984375 
L 29.59375 31.296875 
Q 39.15625 29.25 43.1875 25.515625 
Q 47.21875 21.78125 47.21875 15.09375 
Q 47.21875 7.46875 41.1875 3.015625 
Q 35.15625 -1.421875 24.609375 -1.421875 
Q 20.21875 -1.421875 15.453125 -0.5625 
Q 10.6875 0.296875 5.421875 2 
L 5.421875 11.28125 
Q 10.40625 8.6875 15.234375 7.390625 
Q 20.0625 6.109375 24.8125 6.109375 
Q 31.15625 6.109375 34.5625 8.28125 
Q 37.984375 10.453125 37.984375 14.40625 
Q 37.984375 18.0625 35.515625 20.015625 
Q 33.0625 21.96875 24.703125 23.78125 
L 21.578125 24.515625 
Q 13.234375 26.265625 9.515625 29.90625 
Q 5.8125 33.546875 5.8125 39.890625 
Q 5.8125 47.609375 11.28125 51.796875 
Q 16.75 56 26.8125 56 
Q 31.78125 56 36.171875 55.265625 
Q 40.578125 54.546875 44.28125 53.078125 
z
" id="DejaVuSans-115"/>
      <path d="M 18.109375 8.203125 
L 18.109375 -20.796875 
L 9.078125 -20.796875 
L 9.078125 54.6875 
L 18.109375 54.6875 
L 18.109375 46.390625 
Q 20.953125 51.265625 25.265625 53.625 
Q 29.59375 56 35.59375 56 
Q 45.5625 56 51.78125 48.09375 
Q 58.015625 40.1875 58.015625 27.296875 
Q 58.015625 14.40625 51.78125 6.484375 
Q 45.5625 -1.421875 35.59375 -1.421875 
Q 29.59375 -1.421875 25.265625 0.953125 
Q 20.953125 3.328125 18.109375 8.203125 
z
M 48.6875 27.296875 
Q 48.6875 37.203125 44.609375 42.84375 
Q 40.53125 48.484375 33.40625 48.484375 
Q 26.265625 48.484375 22.1875 42.84375 
Q 18.109375 37.203125 18.109375 27.296875 
Q 18.109375 17.390625 22.1875 11.75 
Q 26.265625 6.109375 33.40625 6.109375 
Q 40.53125 6.109375 44.609375 11.75 
Q 48.6875 17.390625 48.6875 27.296875 
z
" id="DejaVuSans-112"/>
      <path d="M 56.203125 29.59375 
L 56.203125 25.203125 
L 14.890625 25.203125 
Q 15.484375 15.921875 20.484375 11.0625 
Q 25.484375 6.203125 34.421875 6.203125 
Q 39.59375 6.203125 44.453125 7.46875 
Q 49.3125 8.734375 54.109375 11.28125 
L 54.109375 2.78125 
Q 49.265625 0.734375 44.1875 -0.34375 
Q 39.109375 -1.421875 33.890625 -1.421875 
Q 20.796875 -1.421875 13.15625 6.1875 
Q 5.515625 13.8125 5.515625 26.8125 
Q 5.515625 40.234375 12.765625 48.109375 
Q 20.015625 56 32.328125 56 
Q 43.359375 56 49.78125 48.890625 
Q 56.203125 41.796875 56.203125 29.59375 
z
M 47.21875 32.234375 
Q 47.125 39.59375 43.09375 43.984375 
Q 39.0625 48.390625 32.421875 48.390625 
Q 24.90625 48.390625 20.390625 44.140625 
Q 15.875 39.890625 15.1875 32.171875 
z
" id="DejaVuSans-101"/>
      <path d="M 45.40625 46.390625 
L 45.40625 75.984375 
L 54.390625 75.984375 
L 54.390625 0 
L 45.40625 0 
L 45.40625 8.203125 
Q 42.578125 3.328125 38.25 0.953125 
Q 33.9375 -1.421875 27.875 -1.421875 
Q 17.96875 -1.421875 11.734375 6.484375 
Q 5.515625 14.40625 5.515625 27.296875 
Q 5.515625 40.1875 11.734375 48.09375 
Q 17.96875 56 27.875 56 
Q 33.9375 56 38.25 53.625 
Q 42.578125 51.265625 45.40625 46.390625 
z
M 14.796875 27.296875 
Q 14.796875 17.390625 18.875 11.75 
Q 22.953125 6.109375 30.078125 6.109375 
Q 37.203125 6.109375 41.296875 11.75 
Q 45.40625 17.390625 45.40625 27.296875 
Q 45.40625 37.203125 41.296875 42.84375 
Q 37.203125 48.484375 30.078125 48.484375 
Q 22.953125 48.484375 18.875 42.84375 
Q 14.796875 37.203125 14.796875 27.296875 
z
" id="DejaVuSans-100"/>
      <path d="M 8.5 21.578125 
L 8.5 54.6875 
L 17.484375 54.6875 
L 17.484375 21.921875 
Q 17.484375 14.15625 20.5 10.265625 
Q 23.53125 6.390625 29.59375 6.390625 
Q 36.859375 6.390625 41.078125 11.03125 
Q 45.3125 15.671875 45.3125 23.6875 
L 45.3125 54.6875 
L 54.296875 54.6875 
L 54.296875 0 
L 45.3125 0 
L 45.3125 8.40625 
Q 42.046875 3.421875 37.71875 1 
Q 33.40625 -1.421875 27.6875 -1.421875 
Q 18.265625 -1.421875 13.375 4.4375 
Q 8.5 10.296875 8.5 21.578125 
z
M 31.109375 56 
z
" id="DejaVuSans-117"/>
     </defs>
     <g transform="translate(141.470313 385.049219)rotate(-90)scale(0.1 -0.1)">
      <use xlink:href="#DejaVuSans-115"/>
      <use x="52.099609" xlink:href="#DejaVuSans-112"/>
      <use x="115.576172" xlink:href="#DejaVuSans-101"/>
      <use x="177.099609" xlink:href="#DejaVuSans-101"/>
      <use x="238.623047" xlink:href="#DejaVuSans-100"/>
      <use x="302.099609" xlink:href="#DejaVuSans-117"/>
      <use x="365.478516" xlink:href="#DejaVuSans-112"/>
     </g>
    </g>
   </g>
   <g id="line2d_18">
    <path clip-path="url(#p9502a35517)" d="M 230.727273 574.792211 
L 231.753102 597.743954 
L 232.778932 494.732719 
L 233.804761 597.419234 
L 234.830591 508.272331 
L 235.856421 590.575671 
L 236.88225 592.909368 
L 237.90808 501.729297 
L 238.933909 500.831163 
L 239.959739 496.722203 
L 240.985569 499.127017 
L 242.011398 509.5895 
L 243.037228 491.702146 
L 244.063057 581.041127 
L 245.088887 497.552591 
L 246.114716 493.002319 
L 247.140546 508.672105 
L 248.166376 502.886969 
L 249.192205 506.086499 
L 250.218035 504.253261 
L 251.243864 489.837246 
L 252.269694 491.59598 
L 253.295523 497.135256 
L 254.321353 493.461529 
L 255.347183 493.178826 
L 256.373012 494.541062 
L 257.398842 493.176434 
L 258.424671 490.40341 
L 259.450501 493.857371 
L 260.476331 487.333104 
L 261.50216 486.746721 
L 262.52799 495.890849 
L 263.553819 492.29699 
L 264.579649 494.540637 
L 265.605478 489.537005 
L 266.631308 488.555024 
L 267.657138 490.195308 
L 268.682967 484.037462 
L 269.708797 483.904709 
L 270.734626 481.597735 
L 271.760456 483.151302 
L 272.786286 476.993824 
L 273.812115 458.849856 
L 274.837945 474.803138 
L 275.863774 472.765145 
L 276.889604 480.450864 
L 277.915433 485.486648 
L 278.941263 480.510113 
L 279.967093 430.391053 
L 280.992922 479.17228 
L 282.018752 479.041954 
L 284.070411 472.323621 
L 285.09624 429.917301 
L 286.12207 454.679549 
L 287.1479 422.650737 
L 288.173729 460.859879 
L 289.199559 466.777981 
L 290.225388 473.863121 
L 291.251218 411.855035 
L 292.277048 427.856712 
L 293.302877 465.924705 
L 294.328707 465.060615 
L 295.354536 458.927975 
L 296.380366 490.025555 
L 297.406195 444.169563 
L 298.432025 475.988868 
L 299.457855 435.835945 
L 300.483684 461.91014 
L 301.509514 460.121043 
L 302.535343 472.736944 
L 303.561173 441.947291 
L 304.587002 429.058345 
L 305.612832 443.406475 
L 306.638662 395.866491 
L 307.664491 422.341875 
L 308.690321 396.538469 
L 309.71615 387.248119 
L 310.74198 434.446295 
L 311.76781 389.143996 
L 312.793639 449.718645 
L 313.819469 442.615894 
L 314.845298 394.399552 
L 315.871128 408.448169 
L 316.896957 417.930141 
L 317.922787 385.366762 
L 318.948617 416.227963 
L 319.974446 407.778104 
L 321.000276 444.862059 
L 322.026105 412.962582 
L 323.051935 412.106924 
L 324.077765 452.91916 
L 325.103594 472.050433 
L 326.129424 420.795541 
L 327.155253 417.134527 
L 328.181083 400.762385 
L 329.206912 446.723738 
L 330.232742 395.55995 
L 331.258572 437.888202 
L 332.284401 412.061965 
L 333.310231 435.003758 
L 334.33606 404.447491 
L 335.36189 394.592952 
L 336.387719 454.94929 
L 337.413549 397.446496 
L 338.439379 389.362243 
L 339.465208 451.942527 
L 340.491038 397.048325 
L 341.516867 386.966047 
L 342.542697 419.324617 
L 343.568527 425.812792 
L 344.594356 380.079884 
L 345.620186 411.246239 
L 346.646015 433.134327 
L 347.671845 430.460479 
L 348.697674 420.240804 
L 349.723504 425.947042 
L 350.749334 366.923267 
L 351.775163 385.901037 
L 352.800993 431.700046 
L 353.826822 389.042958 
L 354.852652 429.006031 
L 355.878481 369.197745 
L 357.930141 434.599126 
L 358.95597 386.608614 
L 359.9818 363.543106 
L 361.007629 388.501916 
L 362.033459 379.061728 
L 363.059289 416.504949 
L 364.085118 404.627284 
L 365.110948 371.476799 
L 366.136777 351.772337 
L 367.162607 399.504049 
L 368.188436 383.495519 
L 369.214266 372.071418 
L 370.240096 418.105621 
L 371.265925 421.034203 
L 372.291755 373.550038 
L 373.317584 378.423214 
L 374.343414 407.84041 
L 375.369243 403.223202 
L 376.395073 388.472621 
L 377.420903 378.485514 
L 378.446732 409.573466 
L 379.472562 415.377865 
L 380.498391 394.089088 
L 381.524221 391.661164 
L 382.550051 392.586389 
L 383.57588 468.224785 
L 384.60171 374.853629 
L 385.627539 398.707432 
L 386.653369 403.256115 
L 387.679198 413.730531 
L 388.705028 382.00544 
L 389.730858 403.564909 
L 390.756687 342.249598 
L 391.782517 386.475764 
L 392.808346 399.249183 
L 393.834176 378.971505 
L 394.860006 402.795534 
L 395.885835 392.443552 
L 396.911665 386.67425 
L 397.937494 379.737713 
L 398.963324 388.428122 
L 399.989153 390.779559 
L 401.014983 377.780218 
L 402.040813 374.556407 
L 403.066642 365.864186 
L 404.092472 392.758152 
L 405.118301 393.101813 
L 406.144131 381.299298 
L 407.16996 350.467134 
L 408.19579 425.93989 
L 409.22162 344.075332 
L 410.247449 401.230811 
L 411.273279 363.362127 
L 412.299108 399.344601 
L 413.324938 460.803851 
L 414.350768 356.606082 
L 415.376597 466.236999 
L 416.402427 370.173514 
L 417.428256 391.504542 
L 418.454086 350.513869 
L 419.479915 351.48449 
L 420.505745 377.643736 
L 421.531575 334.969697 
L 422.557404 345.47014 
L 423.583234 388.538764 
L 424.609063 392.139162 
L 425.634893 378.731023 
L 426.660722 325.427016 
L 428.712382 385.795829 
L 429.738211 393.570961 
L 430.764041 392.423048 
L 431.78987 363.818281 
L 432.8157 387.0781 
L 433.84153 463.249981 
L 434.867359 367.271314 
L 435.893189 376.303641 
L 436.919018 330.401646 
L 437.944848 369.658842 
L 438.970677 376.421207 
L 439.996507 362.332583 
L 441.022337 354.457928 
L 442.048166 381.371732 
L 443.073996 379.40822 
L 444.099825 357.616474 
L 445.125655 374.482916 
L 446.151485 348.992201 
L 447.177314 403.945014 
L 448.203144 334.900489 
L 449.228973 358.00684 
L 450.254803 350.396908 
L 451.280632 403.5514 
L 452.306462 331.010303 
L 453.332292 344.299378 
L 454.358121 364.531434 
L 455.383951 378.498404 
L 456.40978 374.149427 
L 457.43561 362.510305 
L 458.461439 144.056099 
L 459.487269 382.705582 
L 460.513099 368.279825 
L 461.538928 337.280014 
L 462.564758 326.824192 
L 463.590587 327.523711 
L 464.616417 349.295865 
L 465.642247 332.650127 
L 466.668076 406.66872 
L 467.693906 405.245085 
L 468.719735 357.339842 
L 469.745565 354.520523 
L 470.771394 355.71043 
L 471.797224 350.255133 
L 472.823054 326.996751 
L 473.848883 323.223764 
L 474.874713 366.007192 
L 475.900542 343.525149 
L 476.926372 324.540052 
L 477.952201 341.054228 
L 478.978031 379.127081 
L 480.003861 330.338463 
L 481.02969 320.713403 
L 482.05552 342.136964 
L 483.081349 315.179392 
L 484.107179 366.649441 
L 485.133009 343.073187 
L 486.158838 371.561231 
L 487.184668 360.538982 
L 488.210497 340.899491 
L 489.236327 340.789231 
L 490.262156 338.132083 
L 491.287986 346.630582 
L 492.313816 364.484405 
L 493.339645 346.822316 
L 494.365475 360.346494 
L 495.391304 428.579526 
L 496.417134 346.361177 
L 497.442964 330.675624 
L 498.468793 378.27513 
L 499.494623 367.007189 
L 500.520452 341.022677 
L 501.546282 365.398918 
L 502.572111 355.157768 
L 503.597941 360.578728 
L 504.623771 341.19933 
L 505.6496 358.632135 
L 506.67543 369.822722 
L 507.701259 316.170831 
L 508.727089 324.336687 
L 509.752918 311.471639 
L 510.778748 327.860474 
L 511.804578 341.256017 
L 512.830407 314.053405 
L 513.856237 353.946697 
L 514.882066 352.496622 
L 515.907896 311.023242 
L 516.933726 312.301856 
L 517.959555 323.708549 
L 518.985385 350.131473 
L 520.011214 315.121462 
L 521.037044 343.261434 
L 522.062873 343.705362 
L 523.088703 358.450361 
L 524.114533 303.873487 
L 525.140362 342.6041 
L 526.166192 320.241884 
L 527.192021 415.272145 
L 528.217851 334.139677 
L 529.24368 315.4184 
L 530.26951 159.263068 
L 531.29534 395.617883 
L 532.321169 358.256814 
L 533.346999 357.276713 
L 534.372828 318.463664 
L 535.398658 323.814689 
L 536.424488 344.998206 
L 537.450317 353.864733 
L 538.476147 343.086713 
L 539.501976 357.467931 
L 540.527806 341.79941 
L 541.553635 386.658333 
L 542.579465 339.109663 
L 543.605295 344.504446 
L 544.631124 317.101756 
L 545.656954 348.243349 
L 546.682783 361.00522 
L 547.708613 353.710891 
L 548.734443 404.772229 
L 550.786102 308.351535 
L 551.811931 355.585301 
L 552.837761 338.174324 
L 553.86359 348.50985 
L 554.88942 323.15139 
L 555.91525 308.90564 
L 556.941079 308.741858 
L 557.966909 322.610031 
L 558.992738 296.670548 
L 560.018568 338.230303 
L 561.044397 426.861749 
L 562.070227 353.961616 
L 563.096057 352.428478 
L 564.121886 349.874563 
L 565.147716 334.207936 
L 566.173545 351.372396 
L 567.199375 330.806938 
L 568.225205 335.339933 
L 569.251034 342.397756 
L 570.276864 311.864822 
L 571.302693 304.740211 
L 572.328523 344.694163 
L 573.354352 347.695525 
L 574.380182 352.306406 
L 575.406012 331.667038 
L 576.431841 337.201852 
L 577.457671 325.180778 
L 578.4835 358.434548 
L 579.50933 342.044163 
L 580.535159 332.821342 
L 581.560989 308.26097 
L 582.586819 320.719509 
L 584.638478 373.168128 
L 585.664307 344.455314 
L 586.690137 397.442474 
L 587.715967 265.630479 
L 588.741796 336.085595 
L 589.767626 335.431677 
L 590.793455 347.73013 
L 591.819285 318.636423 
L 592.845114 315.372531 
L 593.870944 320.016746 
L 594.896774 320.07263 
L 595.922603 347.129606 
L 596.948433 314.626121 
L 597.974262 333.786911 
L 599.000092 321.534608 
L 600.025922 321.931014 
L 601.051751 319.242641 
L 602.077581 340.098317 
L 603.10341 338.115039 
L 604.12924 344.252372 
L 605.155069 322.965281 
L 606.180899 334.037481 
L 607.206729 337.512661 
L 608.232558 325.62044 
L 609.258388 316.65969 
L 610.284217 353.623666 
L 611.310047 331.187693 
L 612.335876 315.894646 
L 613.361706 308.131724 
L 614.387536 407.210379 
L 615.413365 356.575146 
L 616.439195 343.31528 
L 617.465024 344.396279 
L 618.490854 312.809819 
L 619.516684 401.740595 
L 620.542513 329.510854 
L 621.568343 332.975729 
L 622.594172 345.500258 
L 623.620002 388.742237 
L 624.645831 304.077208 
L 625.671661 307.037154 
L 626.697491 341.738559 
L 627.72332 308.213798 
L 629.774979 324.721017 
L 630.800809 343.663524 
L 631.826638 338.891987 
L 632.852468 313.391881 
L 633.878298 383.624707 
L 634.904127 347.831431 
L 635.929957 323.607793 
L 636.955786 336.05118 
L 637.981616 342.135387 
L 639.007446 331.181729 
L 640.033275 385.008326 
L 641.059105 342.19762 
L 642.084934 362.716796 
L 643.110764 325.113377 
L 644.136593 334.476324 
L 645.162423 364.788061 
L 646.188253 356.382752 
L 647.214082 328.761835 
L 648.239912 333.029757 
L 649.265741 314.950901 
L 650.291571 336.801648 
L 651.3174 301.319229 
L 652.34323 384.990709 
L 653.36906 335.627101 
L 654.394889 308.873858 
L 655.420719 315.186439 
L 656.446548 341.027675 
L 657.472378 326.300967 
L 658.498208 304.577263 
L 659.524037 301.555377 
L 660.549867 338.283923 
L 661.575696 332.441941 
L 662.601526 297.860795 
L 663.627355 308.075618 
L 664.653185 335.706816 
L 665.679015 308.030951 
L 666.704844 322.641037 
L 667.730674 356.15919 
L 668.756503 304.20281 
L 669.782333 310.134725 
L 670.808163 300.632154 
L 671.833992 319.227539 
L 672.859822 308.190114 
L 673.885651 310.412725 
L 674.911481 326.174696 
L 675.93731 335.979481 
L 676.96314 327.087618 
L 677.98897 328.894656 
L 679.014799 323.532702 
L 680.040629 349.390418 
L 681.066458 304.800933 
L 682.092288 330.701727 
L 683.118117 322.294902 
L 684.143947 368.485401 
L 685.169777 311.159438 
L 686.195606 309.995509 
L 687.221436 305.389507 
L 688.247265 310.885815 
L 689.273095 292.075319 
L 690.298925 318.441982 
L 691.324754 318.531857 
L 692.350584 311.434034 
L 693.376413 330.289998 
L 694.402243 377.599504 
L 695.428072 336.653797 
L 696.453902 431.769366 
L 697.479732 298.989994 
L 698.505561 285.235679 
L 699.531391 325.691253 
L 700.55722 395.040383 
L 701.58305 327.69572 
L 702.608879 296.428341 
L 703.634709 307.142743 
L 704.660539 312.810933 
L 705.686368 306.208673 
L 706.712198 326.285332 
L 707.738027 307.888808 
L 708.763857 315.568387 
L 709.789687 279.124724 
L 710.815516 380.088379 
L 711.841346 338.119946 
L 712.867175 306.872621 
L 713.893005 312.234659 
L 714.918834 312.814548 
L 715.944664 331.675563 
L 716.970494 316.404219 
L 717.996323 357.494586 
L 719.022153 329.451851 
L 720.047982 307.48315 
L 721.073812 330.657424 
L 722.099642 328.919696 
L 723.125471 303.405044 
L 724.151301 302.553873 
L 725.17713 325.002769 
L 726.20296 317.833366 
L 727.228789 288.372114 
L 728.254619 326.873683 
L 729.280449 308.896928 
L 730.306278 301.496624 
L 731.332108 302.191371 
L 732.357937 323.357973 
L 733.383767 332.878827 
L 734.409596 328.827351 
L 735.435426 319.68017 
L 736.461256 334.320854 
L 737.487085 325.973439 
L 738.512915 336.813302 
L 739.538744 355.366555 
L 740.564574 320.482347 
L 741.590404 317.01849 
L 742.616233 311.822731 
L 743.642063 328.605105 
L 744.667892 326.45473 
L 745.693722 343.930314 
L 746.719551 319.363754 
L 747.745381 302.530797 
L 748.771211 312.365201 
L 749.79704 375.754205 
L 750.82287 299.980191 
L 751.848699 345.39342 
L 752.874529 331.535918 
L 753.900358 320.873945 
L 754.926188 329.779596 
L 755.952018 310.151379 
L 756.977847 311.300612 
L 758.003677 330.014229 
L 759.029506 315.883163 
L 760.055336 321.914452 
L 761.081166 306.596826 
L 762.106995 306.899615 
L 763.132825 302.318187 
L 764.158654 313.292052 
L 765.184484 335.675681 
L 766.210313 302.715758 
L 767.236143 315.381085 
L 768.261973 311.031211 
L 769.287802 321.811293 
L 770.313632 398.183933 
L 771.339461 331.857293 
L 772.365291 317.277529 
L 773.391121 308.699429 
L 774.41695 327.387648 
L 775.44278 394.833918 
L 776.468609 315.516655 
L 777.494439 337.73998 
L 778.520268 312.418271 
L 779.546098 310.162944 
L 780.571928 317.783824 
L 781.597757 340.622789 
L 782.623587 313.748531 
L 783.649416 311.680002 
L 784.675246 324.759955 
L 785.701075 299.773094 
L 786.726905 297.486031 
L 787.752735 318.277377 
L 788.778564 306.680771 
L 789.804394 324.091504 
L 790.830223 316.228178 
L 791.856053 317.056307 
L 792.881883 304.469897 
L 793.907712 329.840541 
L 794.933542 347.721283 
L 795.959371 312.024017 
L 796.985201 320.647311 
L 798.01103 308.706201 
L 799.03686 322.041496 
L 800.06269 304.930339 
L 801.088519 311.117518 
L 802.114349 297.805826 
L 803.140178 276.432799 
L 804.166008 296.746505 
L 805.191837 287.739771 
L 806.217667 304.330717 
L 807.243497 303.392712 
L 808.269326 304.416182 
L 809.295156 176.300062 
L 810.320985 320.409565 
L 811.346815 308.513813 
L 813.398474 313.914539 
L 814.424304 317.674938 
L 815.450133 301.000147 
L 816.475963 325.841463 
L 817.501792 304.977523 
L 818.527622 299.218376 
L 819.553452 327.049712 
L 820.579281 310.016328 
L 821.605111 295.588425 
L 822.63094 291.787783 
L 823.65677 313.805315 
L 824.6826 297.921213 
L 825.708429 296.862062 
L 826.734259 312.558945 
L 827.760088 314.88388 
L 828.785918 304.423598 
L 829.811747 323.880531 
L 830.837577 312.346052 
L 831.863407 317.835435 
L 832.889236 302.058896 
L 833.915066 300.825949 
L 834.940895 309.734768 
L 835.966725 311.736823 
L 836.992554 291.924511 
L 838.018384 297.26699 
L 839.044214 311.02496 
L 840.070043 361.462432 
L 841.095873 305.87059 
L 842.121702 299.786639 
L 843.147532 297.192885 
L 844.173362 301.764976 
L 845.199191 301.07827 
L 846.225021 285.035447 
L 847.25085 321.285572 
L 848.27668 313.963266 
L 849.302509 305.506118 
L 850.328339 326.966331 
L 851.354169 322.027072 
L 852.379998 304.024293 
L 853.405828 317.056007 
L 854.431657 322.54037 
L 855.457487 310.967728 
L 856.483316 310.058863 
L 857.509146 256.115288 
L 858.534976 316.976267 
L 859.560805 312.795553 
L 860.586635 305.362194 
L 861.612464 314.578332 
L 862.638294 304.990444 
L 863.664124 321.078367 
L 864.689953 313.458148 
L 865.715783 319.584812 
L 866.741612 297.448501 
L 867.767442 299.415182 
L 869.819101 318.12527 
L 871.87076 284.331558 
L 872.89659 321.301769 
L 873.922419 297.544313 
L 874.948249 291.075261 
L 875.974078 345.8603 
L 876.999908 307.890788 
L 878.025738 291.037917 
L 879.051567 295.679006 
L 880.077397 302.825961 
L 881.103226 300.002346 
L 882.129056 273.340902 
L 883.154886 308.446917 
L 884.180715 315.445161 
L 885.206545 313.443415 
L 886.232374 351.234761 
L 887.258204 301.012141 
L 888.284033 306.45977 
L 889.309863 307.821755 
L 890.335693 323.514806 
L 891.361522 305.087649 
L 892.387352 310.41547 
L 893.413181 322.514682 
L 894.439011 323.288966 
L 895.464841 302.319796 
L 896.49067 308.67402 
L 897.5165 303.373903 
L 898.542329 309.120781 
L 899.568159 307.824272 
L 900.593988 310.729964 
L 901.619818 307.304296 
L 902.645648 301.99117 
L 903.671477 297.29312 
L 904.697307 299.491727 
L 905.723136 301.361029 
L 906.748966 301.364164 
L 907.774795 291.424172 
L 908.800625 302.639287 
L 909.826455 306.607501 
L 911.878114 291.617651 
L 912.903943 302.659267 
L 913.929773 299.058428 
L 914.955603 290.588629 
L 915.981432 296.734434 
L 917.007262 292.878429 
L 918.033091 292.035443 
L 919.058921 292.438193 
L 920.08475 298.605568 
L 921.11058 297.745098 
L 922.13641 299.509447 
L 923.162239 323.793794 
L 924.188069 226.323832 
L 925.213898 305.799673 
L 926.239728 298.026824 
L 927.265557 294.365251 
L 928.291387 302.017514 
L 929.317217 301.423381 
L 930.343046 228.856028 
L 931.368876 365.501456 
L 932.394705 300.834513 
L 933.420535 313.450208 
L 934.446365 304.91829 
L 935.472194 302.291526 
L 936.498024 300.893693 
L 937.523853 312.863029 
L 938.549683 294.359563 
L 939.575512 288.969217 
L 940.601342 294.298786 
L 941.627172 308.173448 
L 942.653001 307.85166 
L 943.678831 295.707212 
L 944.70466 294.558029 
L 945.73049 297.567358 
L 946.75632 287.164361 
L 947.782149 303.341685 
L 948.807979 329.534121 
L 949.833808 295.083588 
L 950.859638 306.626527 
L 951.885467 296.79906 
L 952.911297 304.840292 
L 953.937127 296.748606 
L 954.962956 326.738295 
L 955.988786 319.19567 
L 957.014615 306.706444 
L 958.040445 225.663196 
L 959.066274 301.463783 
L 960.092104 331.491227 
L 961.117934 294.023332 
L 962.143763 306.148725 
L 963.169593 324.063009 
L 965.221252 297.921343 
L 966.247082 296.945985 
L 967.272911 307.502954 
L 968.298741 260.930738 
L 969.32457 303.472619 
L 970.3504 304.144989 
L 971.376229 309.057716 
L 972.402059 294.795693 
L 973.427889 306.323535 
L 974.453718 332.216189 
L 975.479548 307.663745 
L 976.505377 302.183017 
L 977.531207 302.589863 
L 978.557036 303.86201 
L 979.582866 297.194464 
L 980.608696 307.098211 
L 981.634525 302.914596 
L 982.660355 312.617326 
L 983.686184 354.477797 
L 984.712014 319.549139 
L 985.737844 300.416411 
L 986.763673 291.215274 
L 987.789503 307.246554 
L 988.815332 361.451396 
L 989.841162 296.683371 
L 990.866991 314.245525 
L 991.892821 337.786527 
L 992.918651 312.319974 
L 993.94448 298.108248 
L 994.97031 301.836823 
L 995.996139 306.862046 
L 997.021969 317.232718 
L 998.047799 314.525742 
L 999.073628 306.269538 
L 1000.099458 312.765878 
L 1001.125287 310.8618 
L 1002.151117 309.2532 
L 1003.176946 309.111701 
L 1004.202776 300.786877 
L 1005.228606 346.475749 
L 1006.254435 307.3341 
L 1007.280265 305.615295 
L 1008.306094 309.048509 
L 1009.331924 352.391772 
L 1010.357753 299.776527 
L 1011.383583 309.225952 
L 1012.409413 311.119694 
L 1013.435242 316.54327 
L 1014.461072 319.04331 
L 1015.486901 316.088207 
L 1016.512731 307.978863 
L 1017.538561 304.789699 
L 1018.56439 304.643124 
L 1019.59022 306.60122 
L 1020.616049 307.535677 
L 1021.641879 305.596573 
L 1022.667708 294.239615 
L 1023.693538 309.607587 
L 1024.719368 318.901854 
L 1025.745197 297.137846 
L 1026.771027 297.246014 
L 1027.796856 250.422582 
L 1028.822686 302.217864 
L 1029.848515 309.130752 
L 1030.874345 296.353234 
L 1031.900175 305.560422 
L 1032.926004 304.404991 
L 1033.951834 305.303874 
L 1034.977663 311.529406 
L 1036.003493 303.333388 
L 1037.029323 306.156744 
L 1038.055152 304.835517 
L 1039.080982 295.449155 
L 1040.106811 306.687204 
L 1041.132641 301.04788 
L 1042.15847 305.40243 
L 1043.1843 296.25482 
L 1044.21013 356.939909 
L 1045.235959 319.857845 
L 1046.261789 301.655732 
L 1047.287618 298.470585 
L 1048.313448 460.04562 
L 1049.339278 321.529935 
L 1050.365107 293.705523 
L 1051.390937 301.838859 
L 1052.416766 305.114275 
L 1053.442596 298.575076 
L 1054.468425 301.013846 
L 1055.494255 295.574771 
L 1056.520085 304.824494 
L 1057.545914 291.780515 
L 1058.571744 311.45859 
L 1059.597573 285.005329 
L 1060.623403 323.412207 
L 1061.649232 309.705028 
L 1062.675062 300.333226 
L 1063.700892 313.622034 
L 1064.726721 303.976256 
L 1065.752551 301.515806 
L 1066.77838 302.09068 
L 1067.80421 299.059325 
L 1068.83004 330.453056 
L 1069.855869 294.844549 
L 1070.881699 305.424013 
L 1071.907528 304.944871 
L 1073.959187 307.995057 
L 1074.985017 111.6 
L 1076.010847 234.063742 
L 1077.036676 306.483741 
L 1078.062506 297.834191 
L 1079.088335 299.880712 
L 1080.114165 299.528947 
L 1081.139994 301.686303 
L 1082.165824 327.313762 
L 1083.191654 292.450648 
L 1085.243313 309.196208 
L 1086.269142 289.369336 
L 1087.294972 298.015412 
L 1088.320802 293.139065 
L 1089.346631 290.202284 
L 1090.372461 305.617763 
L 1091.39829 303.824364 
L 1092.42412 294.661829 
L 1093.449949 310.166567 
L 1094.475779 395.410081 
L 1095.501609 299.259056 
L 1096.527438 304.662098 
L 1097.553268 295.674022 
L 1098.579097 300.55638 
L 1099.604927 294.33928 
L 1100.630757 311.50426 
L 1101.656586 300.356127 
L 1102.682416 297.052899 
L 1103.708245 268.181372 
L 1104.734075 279.623717 
L 1105.759904 308.567371 
L 1106.785734 314.293206 
L 1107.811564 298.126359 
L 1108.837393 307.072334 
L 1109.863223 304.504126 
L 1110.889052 298.255535 
L 1111.914882 305.244129 
L 1112.940711 295.726037 
L 1113.966541 304.762114 
L 1114.992371 296.023123 
L 1116.0182 309.64309 
L 1117.04403 301.868746 
L 1118.069859 303.323247 
L 1119.095689 301.189488 
L 1120.121519 298.575217 
L 1121.147348 304.855948 
L 1122.173178 296.957371 
L 1123.199007 297.353513 
L 1124.224837 301.404171 
L 1125.250666 304.303118 
L 1128.328155 285.88677 
L 1129.353985 304.780767 
L 1130.379814 295.277194 
L 1131.405644 292.32233 
L 1132.431473 302.607414 
L 1133.457303 301.69223 
L 1134.483133 302.958242 
L 1135.508962 286.909972 
L 1137.560621 305.909182 
L 1138.586451 297.64267 
L 1139.612281 295.513514 
L 1140.63811 288.816316 
L 1141.66394 305.523591 
L 1142.689769 306.173248 
L 1143.715599 300.553678 
L 1144.741428 299.330469 
L 1145.767258 302.824734 
L 1146.793088 294.124411 
L 1147.818917 298.947572 
L 1148.844747 295.576665 
L 1149.870576 301.218342 
L 1150.896406 296.007525 
L 1151.922235 292.31212 
L 1152.948065 291.902837 
L 1153.973895 295.963989 
L 1154.999724 296.646939 
L 1156.025554 294.266385 
L 1157.051383 292.385724 
L 1158.077213 292.406236 
L 1159.103043 299.491717 
L 1160.128872 292.245421 
L 1161.154702 342.316523 
L 1162.180531 293.299143 
L 1163.206361 307.507281 
L 1164.23219 339.135156 
L 1165.25802 353.005735 
L 1166.28385 300.945436 
L 1167.309679 338.366925 
L 1168.335509 283.281339 
L 1170.387168 302.056975 
L 1171.412998 345.036546 
L 1172.438827 289.37046 
L 1173.464657 302.092368 
L 1174.490486 299.273207 
L 1175.516316 297.198066 
L 1176.542145 309.106616 
L 1177.567975 228.071313 
L 1178.593805 302.312517 
L 1179.619634 298.676715 
L 1180.645464 289.529959 
L 1181.671293 291.57506 
L 1182.697123 294.130128 
L 1183.722952 312.958881 
L 1184.748782 290.509879 
L 1185.774612 290.69986 
L 1186.800441 292.016471 
L 1187.826271 291.033116 
L 1188.8521 303.031842 
L 1189.87793 294.745247 
L 1190.90376 295.682546 
L 1191.929589 373.473183 
L 1192.955419 293.561562 
L 1193.981248 297.759115 
L 1195.007078 299.143139 
L 1196.032907 307.913842 
L 1197.058737 297.496222 
L 1198.084567 292.48078 
L 1199.110396 294.935742 
L 1200.136226 304.157216 
L 1201.162055 303.567782 
L 1202.187885 285.702133 
L 1203.213714 292.467965 
L 1204.239544 409.499589 
L 1205.265374 303.358525 
L 1206.291203 288.895621 
L 1207.317033 306.001199 
L 1208.342862 293.052273 
L 1209.368692 293.496044 
L 1210.394522 297.769825 
L 1211.420351 293.590646 
L 1212.446181 294.902393 
L 1213.47201 297.532826 
L 1214.49784 286.750616 
L 1215.523669 289.712285 
L 1216.549499 308.546608 
L 1217.575329 296.127936 
L 1218.601158 263.616083 
L 1219.626988 313.158122 
L 1220.652817 288.394151 
L 1221.678647 287.267655 
L 1222.704477 296.663284 
L 1223.730306 288.67769 
L 1224.756136 279.334174 
L 1225.781965 317.560619 
L 1226.807795 291.4497 
L 1227.833624 304.344769 
L 1229.885284 285.293654 
L 1230.911113 294.981708 
L 1231.936943 295.570642 
L 1232.962772 292.769113 
L 1233.988602 278.272182 
L 1235.014431 322.605467 
L 1236.040261 314.489199 
L 1238.09192 278.034031 
L 1239.11775 284.134407 
L 1241.169409 311.424733 
L 1242.195239 270.376578 
L 1243.221068 331.94016 
L 1244.246898 282.087063 
L 1245.272727 330.28641 
L 1245.272727 330.28641 
" style="fill:none;stroke:#1f77b4;stroke-linecap:square;stroke-width:1.5;"/>
   </g>
   <g id="line2d_19">
    <path clip-path="url(#p9502a35517)" d="M 230.727273 581.309134 
L 231.753102 556.237175 
L 232.778932 562.64394 
L 233.804761 556.88543 
L 234.830591 568.682036 
L 235.856421 563.338696 
L 236.88225 565.506804 
L 237.90808 562.167108 
L 238.933909 565.960286 
L 239.959739 570.829633 
L 240.985569 567.639659 
L 242.011398 562.553376 
L 243.037228 558.723838 
L 244.063057 505.36983 
L 245.088887 542.021441 
L 246.114716 574.5721 
L 247.140546 575.820309 
L 249.192205 559.941827 
L 250.218035 586.765071 
L 251.243864 571.456593 
L 252.269694 579.787488 
L 253.295523 575.120556 
L 254.321353 582.763141 
L 255.347183 574.520107 
L 256.373012 580.696933 
L 257.398842 577.609584 
L 258.424671 569.704848 
L 259.450501 580.206809 
L 260.476331 577.730449 
L 261.50216 564.946661 
L 262.52799 567.693552 
L 263.553819 577.168636 
L 264.579649 578.440561 
L 265.605478 573.69901 
L 266.631308 582.979711 
L 267.657138 573.06306 
L 268.682967 584.761169 
L 269.708797 559.100838 
L 270.734626 569.930445 
L 271.760456 572.936483 
L 272.786286 574.720149 
L 273.812115 575.386182 
L 274.837945 582.191784 
L 275.863774 561.930929 
L 276.889604 560.098022 
L 277.915433 601.854252 
L 278.941263 577.59098 
L 279.967093 599.24704 
L 280.992922 584.508714 
L 282.018752 578.088859 
L 283.044581 581.976852 
L 284.070411 569.244795 
L 285.09624 579.651405 
L 287.1479 574.397222 
L 288.173729 580.534654 
L 289.199559 566.67094 
L 290.225388 571.976293 
L 291.251218 566.051389 
L 292.277048 571.244894 
L 293.302877 581.707356 
L 294.328707 572.70455 
L 295.354536 577.563049 
L 296.380366 572.826706 
L 297.406195 580.707157 
L 298.432025 572.050849 
L 299.457855 579.289051 
L 300.483684 563.003368 
L 301.509514 573.514041 
L 302.535343 557.654338 
L 303.561173 569.748497 
L 304.587002 561.086992 
L 305.612832 565.354429 
L 306.638662 561.723527 
L 307.664491 566.979839 
L 308.690321 570.994277 
L 309.71615 567.364063 
L 310.74198 576.117788 
L 311.76781 570.099004 
L 312.793639 566.513401 
L 313.819469 575.904634 
L 314.845298 567.21552 
L 315.871128 566.616193 
L 316.896957 589.658719 
L 317.922787 607.191031 
L 318.948617 569.900083 
L 319.974446 564.138273 
L 321.000276 570.113987 
L 322.026105 577.673141 
L 323.051935 567.834738 
L 324.077765 572.485082 
L 325.103594 566.709758 
L 326.129424 572.846826 
L 327.155253 558.552467 
L 328.181083 565.448877 
L 329.206912 560.633018 
L 330.232742 576.965 
L 331.258572 558.428441 
L 332.284401 572.865144 
L 333.310231 557.634509 
L 334.33606 576.652281 
L 335.36189 556.745364 
L 336.387719 566.716239 
L 337.413549 560.656617 
L 338.439379 567.978633 
L 339.465208 564.620114 
L 340.491038 564.843718 
L 341.516867 556.838711 
L 342.542697 565.032191 
L 343.568527 559.421713 
L 344.594356 573.703135 
L 345.620186 555.772261 
L 346.646015 562.248762 
L 347.671845 566.076281 
L 348.697674 569.154552 
L 349.723504 569.815379 
L 350.749334 569.934534 
L 351.775163 557.372102 
L 352.800993 569.36189 
L 353.826822 557.24755 
L 354.852652 576.348801 
L 355.878481 555.212808 
L 356.904311 577.535464 
L 357.930141 572.954095 
L 358.95597 581.014328 
L 359.9818 574.784839 
L 361.007629 574.27614 
L 362.033459 564.35152 
L 363.059289 577.812011 
L 364.085118 573.307563 
L 365.110948 570.075275 
L 366.136777 560.903669 
L 367.162607 580.599304 
L 368.188436 572.862011 
L 370.240096 573.966778 
L 371.265925 577.266983 
L 372.291755 572.924641 
L 373.317584 577.453177 
L 374.343414 574.534822 
L 375.369243 576.950588 
L 376.395073 571.136585 
L 377.420903 578.104593 
L 378.446732 572.256494 
L 379.472562 573.694026 
L 380.498391 572.591905 
L 381.524221 575.743178 
L 382.550051 569.833257 
L 383.57588 571.986096 
L 384.60171 575.708424 
L 385.627539 568.36262 
L 386.653369 577.625251 
L 387.679198 569.96903 
L 388.705028 605.863965 
L 389.730858 572.176612 
L 390.756687 574.551044 
L 391.782517 561.328421 
L 392.808346 568.54541 
L 393.834176 567.771447 
L 394.860006 570.542884 
L 395.885835 563.881363 
L 396.911665 570.096955 
L 397.937494 568.413541 
L 398.963324 570.702215 
L 399.989153 565.637744 
L 401.014983 571.982452 
L 402.040813 561.994969 
L 403.066642 576.529404 
L 404.092472 573.596478 
L 405.118301 576.276101 
L 406.144131 570.790423 
L 407.16996 575.324665 
L 408.19579 564.237103 
L 409.22162 598.719799 
L 410.247449 563.373049 
L 411.273279 602.86596 
L 412.299108 567.123785 
L 413.324938 569.230628 
L 414.350768 566.934358 
L 415.376597 572.564151 
L 417.428256 566.535178 
L 418.454086 566.11254 
L 419.479915 569.280658 
L 420.505745 574.351566 
L 421.531575 572.573588 
L 422.557404 567.231774 
L 423.583234 573.635359 
L 424.609063 567.35181 
L 425.634893 567.829611 
L 426.660722 567.937873 
L 427.686552 574.255854 
L 428.712382 564.703031 
L 429.738211 564.878356 
L 430.764041 571.763663 
L 431.78987 559.052431 
L 432.8157 586.479723 
L 433.84153 569.269796 
L 434.867359 563.928162 
L 435.893189 572.769136 
L 436.919018 570.182436 
L 437.944848 571.536722 
L 438.970677 555.949377 
L 439.996507 579.504399 
L 441.022337 565.7674 
L 442.048166 567.258737 
L 443.073996 566.237855 
L 444.099825 567.994636 
L 445.125655 564.115468 
L 446.151485 568.792334 
L 447.177314 568.708462 
L 448.203144 565.727656 
L 449.228973 565.891344 
L 450.254803 565.583987 
L 451.280632 560.888768 
L 452.306462 567.755932 
L 453.332292 564.21016 
L 454.358121 566.884063 
L 455.383951 603.17487 
L 456.40978 563.653098 
L 457.43561 588.058385 
L 458.461439 570.977202 
L 459.487269 560.632736 
L 460.513099 572.555556 
L 461.538928 560.421717 
L 462.564758 569.14695 
L 463.590587 566.890226 
L 464.616417 571.363394 
L 465.642247 567.178378 
L 466.668076 569.31219 
L 467.693906 560.658283 
L 468.719735 569.231824 
L 469.745565 565.197943 
L 470.771394 562.945626 
L 471.797224 567.980435 
L 472.823054 569.810367 
L 473.848883 565.393551 
L 474.874713 568.745374 
L 475.900542 566.421991 
L 476.926372 567.946265 
L 477.952201 572.58997 
L 478.978031 568.363929 
L 480.003861 568.090808 
L 481.02969 567.025443 
L 482.05552 567.072724 
L 483.081349 568.031531 
L 484.107179 567.693711 
L 485.133009 571.071026 
L 486.158838 562.565066 
L 487.184668 572.265404 
L 488.210497 565.98385 
L 489.236327 567.76583 
L 490.262156 564.768454 
L 491.287986 593.282749 
L 492.313816 565.175082 
L 493.339645 567.95097 
L 494.365475 560.383873 
L 495.391304 565.024524 
L 496.417134 559.267886 
L 498.468793 574.046037 
L 499.494623 568.135806 
L 500.520452 565.337349 
L 501.546282 569.749067 
L 502.572111 562.151228 
L 503.597941 568.397105 
L 504.623771 559.597043 
L 505.6496 572.353369 
L 506.67543 559.185176 
L 507.701259 568.385045 
L 508.727089 556.572758 
L 509.752918 564.413569 
L 510.778748 573.140908 
L 511.804578 566.869359 
L 512.830407 562.503843 
L 513.856237 569.010861 
L 514.882066 561.412257 
L 515.907896 571.0055 
L 516.933726 560.95746 
L 517.959555 568.919895 
L 518.985385 565.076053 
L 520.011214 568.498732 
L 521.037044 564.88136 
L 522.062873 569.458115 
L 523.088703 559.722579 
L 524.114533 561.418209 
L 525.140362 562.44834 
L 526.166192 567.024362 
L 527.192021 561.628301 
L 528.217851 568.734284 
L 529.24368 562.431911 
L 530.26951 572.347031 
L 531.29534 558.485353 
L 532.321169 563.339175 
L 533.346999 565.514748 
L 534.372828 568.68069 
L 535.398658 567.182517 
L 536.424488 574.407587 
L 537.450317 563.716678 
L 538.476147 568.30491 
L 539.501976 566.894654 
L 540.527806 567.324883 
L 541.553635 562.151669 
L 542.579465 561.971623 
L 543.605295 559.058399 
L 544.631124 564.392791 
L 545.656954 580.591289 
L 546.682783 569.154505 
L 547.708613 561.063066 
L 548.734443 563.561913 
L 549.760272 569.336536 
L 550.786102 559.946413 
L 551.811931 566.998525 
L 552.837761 568.25134 
L 553.86359 567.969813 
L 554.88942 558.348675 
L 555.91525 570.596594 
L 556.941079 565.381187 
L 557.966909 565.51935 
L 558.992738 560.445097 
L 560.018568 570.805467 
L 561.044397 561.953815 
L 562.070227 564.968479 
L 563.096057 558.960637 
L 564.121886 567.207969 
L 565.147716 558.570757 
L 566.173545 567.19504 
L 567.199375 559.511907 
L 568.225205 568.91443 
L 569.251034 558.213278 
L 570.276864 597.970311 
L 571.302693 561.491577 
L 572.328523 569.078621 
L 573.354352 582.795578 
L 574.380182 577.807812 
L 575.406012 561.469937 
L 576.431841 569.075428 
L 577.457671 554.929648 
L 578.4835 563.066427 
L 579.50933 560.558783 
L 580.535159 568.258656 
L 581.560989 561.294591 
L 582.586819 566.840946 
L 583.612648 580.922734 
L 584.638478 567.49957 
L 585.664307 564.003915 
L 586.690137 568.077993 
L 587.715967 562.067175 
L 588.741796 569.38877 
L 589.767626 559.688558 
L 590.793455 563.4836 
L 591.819285 561.54909 
L 592.845114 562.758374 
L 593.870944 554.525007 
L 594.896774 557.11317 
L 595.922603 562.992269 
L 596.948433 557.881819 
L 597.974262 563.425021 
L 599.000092 556.889826 
L 600.025922 568.392546 
L 601.051751 555.836306 
L 602.077581 564.944822 
L 603.10341 556.762265 
L 604.12924 562.872626 
L 605.155069 556.957498 
L 606.180899 563.511043 
L 607.206729 558.046768 
L 608.232558 565.928917 
L 609.258388 555.913078 
L 610.284217 566.048965 
L 611.310047 555.864137 
L 612.335876 565.035306 
L 613.361706 558.891555 
L 614.387536 562.493118 
L 615.413365 559.28947 
L 616.439195 567.774146 
L 617.465024 568.255953 
L 618.490854 563.758355 
L 619.516684 561.99149 
L 620.542513 565.371619 
L 621.568343 560.45822 
L 622.594172 566.627675 
L 623.620002 564.036827 
L 624.645831 569.200671 
L 625.671661 568.315193 
L 626.697491 569.11307 
L 627.72332 568.391963 
L 628.74915 571.166332 
L 629.774979 556.732616 
L 630.800809 565.137428 
L 631.826638 550.512176 
L 632.852468 565.125732 
L 633.878298 569.202468 
L 634.904127 568.362238 
L 635.929957 555.961662 
L 636.955786 574.429169 
L 637.981616 560.995209 
L 639.007446 566.17505 
L 640.033275 563.291253 
L 641.059105 571.288892 
L 642.084934 553.899721 
L 643.110764 565.116598 
L 644.136593 558.278318 
L 645.162423 565.75161 
L 646.188253 559.672829 
L 647.214082 559.036946 
L 648.239912 564.733443 
L 649.265741 555.812275 
L 650.291571 567.538386 
L 651.3174 559.861444 
L 652.34323 565.896121 
L 653.36906 558.809349 
L 654.394889 567.482938 
L 655.420719 559.079527 
L 656.446548 565.893639 
L 657.472378 559.790359 
L 658.498208 569.12451 
L 659.524037 559.34333 
L 660.549867 561.384288 
L 661.575696 558.712126 
L 662.601526 594.729519 
L 663.627355 562.678623 
L 664.653185 565.985305 
L 665.679015 558.502243 
L 666.704844 564.762231 
L 667.730674 554.913247 
L 668.756503 567.83127 
L 669.782333 559.972677 
L 670.808163 566.334181 
L 671.833992 556.91214 
L 672.859822 540.474635 
L 673.885651 558.359728 
L 674.911481 567.447077 
L 675.93731 558.531168 
L 676.96314 567.535223 
L 677.98897 559.638397 
L 679.014799 566.00299 
L 680.040629 566.456837 
L 681.066458 564.114266 
L 682.092288 561.102358 
L 683.118117 566.05292 
L 684.143947 560.187347 
L 685.169777 567.033045 
L 686.195606 555.59205 
L 687.221436 565.332585 
L 688.247265 555.893567 
L 689.273095 568.092103 
L 690.298925 559.19681 
L 691.324754 567.785148 
L 692.350584 557.313795 
L 693.376413 566.850485 
L 694.402243 559.098416 
L 695.428072 564.899584 
L 696.453902 559.644944 
L 697.479732 604.922125 
L 698.505561 560.811369 
L 699.531391 567.76777 
L 700.55722 560.516662 
L 701.58305 569.439191 
L 702.608879 559.699385 
L 703.634709 561.685305 
L 704.660539 557.581296 
L 705.686368 566.360239 
L 706.712198 559.409261 
L 707.738027 565.736902 
L 708.763857 588.449195 
L 709.789687 569.258299 
L 710.815516 558.099187 
L 711.841346 558.662332 
L 712.867175 559.599806 
L 713.893005 568.583218 
L 714.918834 557.889452 
L 715.944664 567.613128 
L 716.970494 560.819489 
L 717.996323 574.353045 
L 719.022153 566.797516 
L 720.047982 562.491978 
L 721.073812 559.445668 
L 722.099642 566.018376 
L 723.125471 557.583393 
L 724.151301 565.714003 
L 725.17713 558.172137 
L 726.20296 564.642642 
L 727.228789 558.528774 
L 728.254619 566.996523 
L 729.280449 556.09968 
L 730.306278 567.250404 
L 731.332108 560.128499 
L 732.357937 564.236568 
L 733.383767 561.560817 
L 734.409596 568.523398 
L 735.435426 557.25867 
L 736.461256 566.683136 
L 737.487085 558.225152 
L 738.512915 565.892841 
L 739.538744 557.948585 
L 740.564574 566.66792 
L 741.590404 559.799832 
L 742.616233 567.285593 
L 743.642063 560.914649 
L 744.667892 567.287907 
L 745.693722 559.233389 
L 746.719551 569.260112 
L 747.745381 557.894667 
L 748.771211 565.533235 
L 749.79704 557.772853 
L 750.82287 563.940151 
L 751.848699 560.765676 
L 752.874529 566.256958 
L 753.900358 559.035321 
L 754.926188 565.258453 
L 755.952018 558.13027 
L 756.977847 565.419061 
L 758.003677 556.731794 
L 759.029506 566.169104 
L 760.055336 555.931812 
L 761.081166 566.538505 
L 762.106995 558.48887 
L 763.132825 567.185354 
L 764.158654 559.666274 
L 765.184484 566.263472 
L 766.210313 548.413431 
L 767.236143 565.549123 
L 768.261973 557.39006 
L 769.287802 565.553199 
L 770.313632 557.773979 
L 771.339461 564.574116 
L 772.365291 559.336949 
L 773.391121 567.060913 
L 774.41695 541.767299 
L 775.44278 566.532861 
L 776.468609 558.653002 
L 777.494439 564.903137 
L 778.520268 555.370064 
L 779.546098 568.855809 
L 780.571928 558.3816 
L 781.597757 566.019955 
L 782.623587 558.539685 
L 783.649416 566.156273 
L 784.675246 558.62033 
L 785.701075 565.346278 
L 786.726905 558.30043 
L 787.752735 568.331944 
L 788.778564 557.561353 
L 789.804394 565.464077 
L 790.830223 576.414375 
L 791.856053 566.869246 
L 792.881883 561.692014 
L 793.907712 568.362344 
L 794.933542 556.990711 
L 795.959371 567.126294 
L 796.985201 561.41238 
L 798.01103 565.713886 
L 799.03686 561.473385 
L 800.06269 567.384341 
L 801.088519 559.537755 
L 802.114349 562.993577 
L 803.140178 557.523666 
L 804.166008 567.522791 
L 805.191837 559.473376 
L 806.217667 568.415614 
L 807.243497 562.689277 
L 809.295156 576.452919 
L 810.320985 566.610486 
L 811.346815 560.456461 
L 812.372645 566.480983 
L 813.398474 558.725317 
L 814.424304 566.971135 
L 815.450133 561.216382 
L 816.475963 569.073512 
L 817.501792 557.635095 
L 818.527622 582.894647 
L 819.553452 561.008993 
L 820.579281 567.079088 
L 821.605111 559.426893 
L 822.63094 564.884804 
L 823.65677 556.90793 
L 824.6826 564.854124 
L 825.708429 553.58222 
L 826.734259 572.237968 
L 827.760088 556.697259 
L 828.785918 563.473829 
L 829.811747 560.097745 
L 830.837577 565.711277 
L 831.863407 539.866929 
L 832.889236 564.384417 
L 833.915066 557.9768 
L 834.940895 565.738671 
L 835.966725 567.081134 
L 836.992554 565.933426 
L 838.018384 558.936271 
L 839.044214 567.153304 
L 840.070043 555.480091 
L 841.095873 566.720398 
L 842.121702 557.632091 
L 843.147532 564.491135 
L 844.173362 556.493656 
L 845.199191 567.799167 
L 846.225021 558.263873 
L 847.25085 564.575796 
L 848.27668 560.024985 
L 849.302509 565.46246 
L 850.328339 557.062324 
L 851.354169 567.157365 
L 852.379998 558.30208 
L 853.405828 572.682641 
L 854.431657 546.847201 
L 855.457487 570.855334 
L 856.483316 564.554125 
L 857.509146 555.276947 
L 858.534976 557.757712 
L 859.560805 575.530314 
L 860.586635 557.786276 
L 861.612464 575.124699 
L 862.638294 558.575085 
L 863.664124 567.88355 
L 864.689953 558.250898 
L 865.715783 566.897177 
L 866.741612 559.231894 
L 867.767442 565.348751 
L 868.793271 557.301614 
L 869.819101 567.8852 
L 870.844931 557.72217 
L 871.87076 567.579822 
L 872.89659 562.26345 
L 873.922419 566.866088 
L 874.948249 558.673012 
L 875.974078 566.668799 
L 876.999908 557.904443 
L 878.025738 568.889815 
L 879.051567 552.259197 
L 880.077397 564.594391 
L 881.103226 556.939497 
L 882.129056 568.217756 
L 883.154886 556.431989 
L 884.180715 565.84468 
L 885.206545 558.482 
L 886.232374 566.217364 
L 887.258204 556.764856 
L 888.284033 565.438634 
L 889.309863 496.492812 
L 890.335693 566.933422 
L 891.361522 556.739496 
L 892.387352 567.711472 
L 893.413181 556.47346 
L 894.439011 564.788751 
L 895.464841 556.957564 
L 896.49067 565.037214 
L 897.5165 558.477572 
L 898.542329 598.672549 
L 899.568159 556.862389 
L 900.593988 567.255458 
L 901.619818 557.684861 
L 902.645648 568.726911 
L 903.671477 549.453996 
L 904.697307 571.18153 
L 905.723136 564.236481 
L 906.748966 569.24154 
L 907.774795 559.151718 
L 908.800625 566.799843 
L 909.826455 551.928718 
L 910.852284 566.408969 
L 911.878114 561.044288 
L 912.903943 564.939699 
L 913.929773 557.655915 
L 914.955603 567.78237 
L 915.981432 565.350631 
L 917.007262 578.256529 
L 918.033091 560.964496 
L 919.058921 569.387521 
L 920.08475 558.748815 
L 921.11058 567.917177 
L 922.13641 562.238741 
L 923.162239 575.087095 
L 924.188069 559.537918 
L 925.213898 566.63337 
L 926.239728 560.989431 
L 927.265557 569.288874 
L 928.291387 560.175345 
L 929.317217 588.804097 
L 930.343046 561.342475 
L 931.368876 569.218716 
L 932.394705 551.696779 
L 933.420535 569.821034 
L 934.446365 564.806496 
L 935.472194 570.703342 
L 936.498024 561.014223 
L 937.523853 570.705099 
L 938.549683 556.325107 
L 939.575512 568.699786 
L 940.601342 561.558606 
L 941.627172 573.481989 
L 942.653001 559.69716 
L 943.678831 568.649677 
L 944.70466 559.923574 
L 945.73049 568.688201 
L 946.75632 560.46371 
L 947.782149 569.205764 
L 948.807979 562.233757 
L 949.833808 568.776257 
L 950.859638 559.726575 
L 951.885467 567.658875 
L 952.911297 560.171328 
L 953.937127 576.936761 
L 954.962956 561.116479 
L 955.988786 563.556651 
L 957.014615 563.872382 
L 958.040445 569.1476 
L 959.066274 559.755705 
L 960.092104 560.988409 
L 961.117934 569.229586 
L 962.143763 564.51357 
L 963.169593 558.571319 
L 964.195422 569.76185 
L 965.221252 559.37761 
L 966.247082 569.557689 
L 967.272911 561.816626 
L 968.298741 569.422504 
L 969.32457 563.166945 
L 970.3504 569.938732 
L 971.376229 560.940121 
L 972.402059 584.719584 
L 973.427889 559.28675 
L 974.453718 569.166156 
L 975.479548 559.093242 
L 976.505377 568.29703 
L 977.531207 567.442172 
L 978.557036 566.378833 
L 979.582866 560.153994 
L 980.608696 571.820331 
L 981.634525 560.508964 
L 982.660355 569.67952 
L 983.686184 561.604645 
L 984.712014 568.233032 
L 985.737844 558.617953 
L 986.763673 562.10764 
L 987.789503 562.210285 
L 988.815332 567.450925 
L 989.841162 538.769093 
L 990.866991 567.329654 
L 991.892821 558.826592 
L 992.918651 568.508719 
L 993.94448 560.933473 
L 994.97031 568.970361 
L 995.996139 557.384919 
L 997.021969 568.960898 
L 998.047799 558.273478 
L 999.073628 574.932452 
L 1000.099458 560.14106 
L 1001.125287 565.788134 
L 1002.151117 558.725858 
L 1003.176946 567.92233 
L 1004.202776 558.852555 
L 1005.228606 568.055508 
L 1006.254435 561.06655 
L 1007.280265 561.880779 
L 1008.306094 558.120312 
L 1009.331924 569.979114 
L 1010.357753 558.757355 
L 1011.383583 567.428062 
L 1012.409413 558.802823 
L 1013.435242 568.589799 
L 1014.461072 558.170147 
L 1015.486901 566.417245 
L 1016.512731 557.941187 
L 1017.538561 569.127263 
L 1018.56439 560.143901 
L 1019.59022 566.16503 
L 1020.616049 560.395187 
L 1021.641879 567.840521 
L 1022.667708 559.759633 
L 1023.693538 567.998845 
L 1024.719368 554.555215 
L 1025.745197 552.688029 
L 1026.771027 554.044514 
L 1027.796856 567.627161 
L 1028.822686 560.208582 
L 1029.848515 568.167051 
L 1030.874345 558.820366 
L 1031.900175 568.657728 
L 1032.926004 559.465144 
L 1033.951834 569.668244 
L 1034.977663 556.212902 
L 1036.003493 570.004528 
L 1037.029323 559.584273 
L 1038.055152 567.062312 
L 1039.080982 561.420532 
L 1040.106811 568.795612 
L 1041.132641 561.177201 
L 1042.15847 569.472356 
L 1043.1843 566.420035 
L 1044.21013 567.833136 
L 1045.235959 559.316714 
L 1046.261789 569.236454 
L 1047.287618 597.493405 
L 1048.313448 578.571388 
L 1049.339278 562.387277 
L 1050.365107 540.247245 
L 1051.390937 561.748676 
L 1052.416766 565.629142 
L 1053.442596 560.279783 
L 1054.468425 567.420113 
L 1055.494255 557.946153 
L 1056.520085 568.007045 
L 1057.545914 559.729292 
L 1058.571744 567.97996 
L 1059.597573 558.675708 
L 1060.623403 569.096209 
L 1061.649232 561.739861 
L 1062.675062 574.798871 
L 1063.700892 558.226203 
L 1064.726721 569.417077 
L 1065.752551 561.10167 
L 1066.77838 570.64553 
L 1067.80421 560.655826 
L 1068.83004 568.530044 
L 1069.855869 560.288726 
L 1070.881699 567.918938 
L 1071.907528 559.981504 
L 1072.933358 568.375054 
L 1073.959187 557.788043 
L 1074.985017 566.424628 
L 1076.010847 560.271166 
L 1077.036676 569.160007 
L 1078.062506 561.194661 
L 1079.088335 568.676157 
L 1080.114165 560.551395 
L 1081.139994 567.858695 
L 1082.165824 559.49265 
L 1083.191654 568.706464 
L 1084.217483 558.633011 
L 1085.243313 564.412562 
L 1086.269142 559.493565 
L 1087.294972 565.552654 
L 1088.320802 563.078882 
L 1089.346631 568.535557 
L 1090.372461 559.855736 
L 1091.39829 566.614582 
L 1092.42412 541.624534 
L 1093.449949 569.190494 
L 1094.475779 558.749592 
L 1095.501609 567.60427 
L 1096.527438 559.228613 
L 1097.553268 570.538195 
L 1098.579097 561.482684 
L 1099.604927 567.773968 
L 1100.630757 559.858857 
L 1101.656586 568.446295 
L 1102.682416 560.28408 
L 1103.708245 568.337905 
L 1104.734075 557.821502 
L 1105.759904 567.832088 
L 1106.785734 562.048874 
L 1107.811564 567.496443 
L 1108.837393 557.698148 
L 1109.863223 567.922977 
L 1110.889052 557.634883 
L 1111.914882 570.247432 
L 1112.940711 560.072096 
L 1113.966541 567.43667 
L 1114.992371 559.373426 
L 1116.0182 569.215078 
L 1117.04403 559.581457 
L 1118.069859 569.011588 
L 1119.095689 560.256188 
L 1120.121519 569.083107 
L 1121.147348 562.032676 
L 1122.173178 566.879487 
L 1123.199007 559.909124 
L 1124.224837 571.932213 
L 1125.250666 559.826518 
L 1126.276496 566.536609 
L 1127.302326 559.942313 
L 1128.328155 567.404817 
L 1129.353985 559.761021 
L 1130.379814 567.681582 
L 1131.405644 560.289358 
L 1132.431473 569.002974 
L 1133.457303 559.559415 
L 1134.483133 584.069876 
L 1135.508962 560.023637 
L 1136.534792 568.114295 
L 1137.560621 560.25575 
L 1138.586451 567.372416 
L 1139.612281 560.971352 
L 1140.63811 570.284273 
L 1141.66394 568.76538 
L 1142.689769 566.728466 
L 1143.715599 554.228023 
L 1144.741428 573.736058 
L 1145.767258 561.768044 
L 1146.793088 567.727472 
L 1147.818917 557.634005 
L 1148.844747 566.576378 
L 1149.870576 563.342669 
L 1150.896406 566.939019 
L 1151.922235 561.938035 
L 1152.948065 567.667966 
L 1153.973895 615.6 
L 1154.999724 564.445966 
L 1156.025554 560.371961 
L 1157.051383 565.310261 
L 1158.077213 561.335997 
L 1159.103043 568.284977 
L 1160.128872 560.477221 
L 1161.154702 577.70779 
L 1162.180531 545.73478 
L 1163.206361 568.795593 
L 1164.23219 559.720467 
L 1165.25802 569.013337 
L 1166.28385 561.197482 
L 1167.309679 568.566555 
L 1168.335509 559.286561 
L 1169.361338 568.139471 
L 1170.387168 559.008781 
L 1171.412998 569.008611 
L 1172.438827 561.021137 
L 1173.464657 569.276756 
L 1174.490486 559.547744 
L 1175.516316 569.872129 
L 1176.542145 560.56931 
L 1177.567975 567.88871 
L 1178.593805 560.845637 
L 1179.619634 568.362144 
L 1180.645464 560.717745 
L 1181.671293 567.19495 
L 1182.697123 560.173095 
L 1183.722952 566.725072 
L 1184.748782 557.563716 
L 1185.774612 570.12634 
L 1186.800441 559.699559 
L 1187.826271 567.571019 
L 1188.8521 559.668235 
L 1189.87793 569.33325 
L 1190.90376 557.719058 
L 1191.929589 568.814065 
L 1192.955419 560.506066 
L 1193.981248 566.264045 
L 1195.007078 560.843529 
L 1196.032907 567.792996 
L 1197.058737 560.956452 
L 1198.084567 567.562854 
L 1199.110396 559.990278 
L 1200.136226 568.706259 
L 1201.162055 542.971697 
L 1202.187885 568.854681 
L 1203.213714 560.292846 
L 1204.239544 569.00405 
L 1205.265374 559.595297 
L 1206.291203 569.032728 
L 1207.317033 591.472892 
L 1208.342862 569.243353 
L 1209.368692 558.776252 
L 1210.394522 568.513545 
L 1211.420351 550.105889 
L 1212.446181 577.429667 
L 1213.47201 559.299209 
L 1214.49784 567.543083 
L 1215.523669 557.068159 
L 1216.549499 567.751776 
L 1217.575329 576.29577 
L 1218.601158 570.89697 
L 1219.626988 557.76144 
L 1220.652817 573.133698 
L 1221.678647 559.976645 
L 1222.704477 567.580688 
L 1223.730306 559.623852 
L 1224.756136 568.231689 
L 1225.781965 558.913192 
L 1226.807795 567.712644 
L 1227.833624 557.901809 
L 1228.859454 566.282972 
L 1229.885284 559.269957 
L 1230.911113 567.314114 
L 1231.936943 553.452757 
L 1232.962772 571.63918 
L 1233.988602 560.831212 
L 1235.014431 567.806188 
L 1236.040261 555.776002 
L 1237.066091 568.460231 
L 1238.09192 557.966276 
L 1239.11775 571.585109 
L 1240.143579 556.87998 
L 1241.169409 566.71058 
L 1242.195239 559.711088 
L 1243.221068 568.486954 
L 1244.246898 559.549243 
L 1245.272727 582.192683 
L 1245.272727 582.192683 
" style="fill:none;stroke:#ff7f0e;stroke-linecap:square;stroke-width:1.5;"/>
   </g>
   <g id="patch_3">
    <path d="M 180 640.8 
L 180 86.4 
" style="fill:none;stroke:#000000;stroke-linecap:square;stroke-linejoin:miter;stroke-width:0.8;"/>
   </g>
   <g id="patch_4">
    <path d="M 1296 640.8 
L 1296 86.4 
" style="fill:none;stroke:#000000;stroke-linecap:square;stroke-linejoin:miter;stroke-width:0.8;"/>
   </g>
   <g id="patch_5">
    <path d="M 180 640.8 
L 1296 640.8 
" style="fill:none;stroke:#000000;stroke-linecap:square;stroke-linejoin:miter;stroke-width:0.8;"/>
   </g>
   <g id="patch_6">
    <path d="M 180 86.4 
L 1296 86.4 
" style="fill:none;stroke:#000000;stroke-linecap:square;stroke-linejoin:miter;stroke-width:0.8;"/>
   </g>
   <g id="text_20">
    <!-- KAMA Speedup -->
    <defs>
     <path d="M 9.8125 72.90625 
L 19.671875 72.90625 
L 19.671875 42.09375 
L 52.390625 72.90625 
L 65.09375 72.90625 
L 28.90625 38.921875 
L 67.671875 0 
L 54.6875 0 
L 19.671875 35.109375 
L 19.671875 0 
L 9.8125 0 
z
" id="DejaVuSans-75"/>
     <path d="M 34.1875 63.1875 
L 20.796875 26.90625 
L 47.609375 26.90625 
z
M 28.609375 72.90625 
L 39.796875 72.90625 
L 67.578125 0 
L 57.328125 0 
L 50.6875 18.703125 
L 17.828125 18.703125 
L 11.1875 0 
L 0.78125 0 
z
" id="DejaVuSans-65"/>
     <path d="M 9.8125 72.90625 
L 24.515625 72.90625 
L 43.109375 23.296875 
L 61.8125 72.90625 
L 76.515625 72.90625 
L 76.515625 0 
L 66.890625 0 
L 66.890625 64.015625 
L 48.09375 14.015625 
L 38.1875 14.015625 
L 19.390625 64.015625 
L 19.390625 0 
L 9.8125 0 
z
" id="DejaVuSans-77"/>
     <path id="DejaVuSans-32"/>
     <path d="M 53.515625 70.515625 
L 53.515625 60.890625 
Q 47.90625 63.578125 42.921875 64.890625 
Q 37.9375 66.21875 33.296875 66.21875 
Q 25.25 66.21875 20.875 63.09375 
Q 16.5 59.96875 16.5 54.203125 
Q 16.5 49.359375 19.40625 46.890625 
Q 22.3125 44.4375 30.421875 42.921875 
L 36.375 41.703125 
Q 47.40625 39.59375 52.65625 34.296875 
Q 57.90625 29 57.90625 20.125 
Q 57.90625 9.515625 50.796875 4.046875 
Q 43.703125 -1.421875 29.984375 -1.421875 
Q 24.8125 -1.421875 18.96875 -0.25 
Q 13.140625 0.921875 6.890625 3.21875 
L 6.890625 13.375 
Q 12.890625 10.015625 18.65625 8.296875 
Q 24.421875 6.59375 29.984375 6.59375 
Q 38.421875 6.59375 43.015625 9.90625 
Q 47.609375 13.234375 47.609375 19.390625 
Q 47.609375 24.75 44.3125 27.78125 
Q 41.015625 30.8125 33.5 32.328125 
L 27.484375 33.5 
Q 16.453125 35.6875 11.515625 40.375 
Q 6.59375 45.0625 6.59375 53.421875 
Q 6.59375 63.09375 13.40625 68.65625 
Q 20.21875 74.21875 32.171875 74.21875 
Q 37.3125 74.21875 42.625 73.28125 
Q 47.953125 72.359375 53.515625 70.515625 
z
" id="DejaVuSans-83"/>
    </defs>
    <g transform="translate(692.455312 80.4)scale(0.12 -0.12)">
     <use xlink:href="#DejaVuSans-75"/>
     <use x="63.826172" xlink:href="#DejaVuSans-65"/>
     <use x="132.234375" xlink:href="#DejaVuSans-77"/>
     <use x="218.513672" xlink:href="#DejaVuSans-65"/>
     <use x="286.921875" xlink:href="#DejaVuSans-32"/>
     <use x="318.708984" xlink:href="#DejaVuSans-83"/>
     <use x="382.185547" xlink:href="#DejaVuSans-112"/>
     <use x="445.662109" xlink:href="#DejaVuSans-101"/>
     <use x="507.185547" xlink:href="#DejaVuSans-101"/>
     <use x="568.708984" xlink:href="#DejaVuSans-100"/>
     <use x="632.185547" xlink:href="#DejaVuSans-117"/>
     <use x="695.564453" xlink:href="#DejaVuSans-112"/>
    </g>
   </g>
   <g id="legend_1">
    <g id="patch_7">
     <path d="M 1185.373437 123.75625 
L 1289 123.75625 
Q 1291 123.75625 1291 121.75625 
L 1291 93.4 
Q 1291 91.4 1289 91.4 
L 1185.373437 91.4 
Q 1183.373437 91.4 1183.373437 93.4 
L 1183.373437 121.75625 
Q 1183.373437 123.75625 1185.373437 123.75625 
z
" style="fill:#ffffff;opacity:0.8;stroke:#cccccc;stroke-linejoin:miter;"/>
    </g>
    <g id="line2d_20">
     <path d="M 1187.373437 99.498437 
L 1207.373437 99.498437 
" style="fill:none;stroke:#1f77b4;stroke-linecap:square;stroke-width:1.5;"/>
    </g>
    <g id="line2d_21"/>
    <g id="text_21">
     <!-- numpy.float32 -->
     <defs>
      <path d="M 52 44.1875 
Q 55.375 50.25 60.0625 53.125 
Q 64.75 56 71.09375 56 
Q 79.640625 56 84.28125 50.015625 
Q 88.921875 44.046875 88.921875 33.015625 
L 88.921875 0 
L 79.890625 0 
L 79.890625 32.71875 
Q 79.890625 40.578125 77.09375 44.375 
Q 74.3125 48.1875 68.609375 48.1875 
Q 61.625 48.1875 57.5625 43.546875 
Q 53.515625 38.921875 53.515625 30.90625 
L 53.515625 0 
L 44.484375 0 
L 44.484375 32.71875 
Q 44.484375 40.625 41.703125 44.40625 
Q 38.921875 48.1875 33.109375 48.1875 
Q 26.21875 48.1875 22.15625 43.53125 
Q 18.109375 38.875 18.109375 30.90625 
L 18.109375 0 
L 9.078125 0 
L 9.078125 54.6875 
L 18.109375 54.6875 
L 18.109375 46.1875 
Q 21.1875 51.21875 25.484375 53.609375 
Q 29.78125 56 35.6875 56 
Q 41.65625 56 45.828125 52.96875 
Q 50 49.953125 52 44.1875 
z
" id="DejaVuSans-109"/>
      <path d="M 32.171875 -5.078125 
Q 28.375 -14.84375 24.75 -17.8125 
Q 21.140625 -20.796875 15.09375 -20.796875 
L 7.90625 -20.796875 
L 7.90625 -13.28125 
L 13.1875 -13.28125 
Q 16.890625 -13.28125 18.9375 -11.515625 
Q 21 -9.765625 23.484375 -3.21875 
L 25.09375 0.875 
L 2.984375 54.6875 
L 12.5 54.6875 
L 29.59375 11.921875 
L 46.6875 54.6875 
L 56.203125 54.6875 
z
" id="DejaVuSans-121"/>
      <path d="M 37.109375 75.984375 
L 37.109375 68.5 
L 28.515625 68.5 
Q 23.6875 68.5 21.796875 66.546875 
Q 19.921875 64.59375 19.921875 59.515625 
L 19.921875 54.6875 
L 34.71875 54.6875 
L 34.71875 47.703125 
L 19.921875 47.703125 
L 19.921875 0 
L 10.890625 0 
L 10.890625 47.703125 
L 2.296875 47.703125 
L 2.296875 54.6875 
L 10.890625 54.6875 
L 10.890625 58.5 
Q 10.890625 67.625 15.140625 71.796875 
Q 19.390625 75.984375 28.609375 75.984375 
z
" id="DejaVuSans-102"/>
      <path d="M 9.421875 75.984375 
L 18.40625 75.984375 
L 18.40625 0 
L 9.421875 0 
z
" id="DejaVuSans-108"/>
      <path d="M 30.609375 48.390625 
Q 23.390625 48.390625 19.1875 42.75 
Q 14.984375 37.109375 14.984375 27.296875 
Q 14.984375 17.484375 19.15625 11.84375 
Q 23.34375 6.203125 30.609375 6.203125 
Q 37.796875 6.203125 41.984375 11.859375 
Q 46.1875 17.53125 46.1875 27.296875 
Q 46.1875 37.015625 41.984375 42.703125 
Q 37.796875 48.390625 30.609375 48.390625 
z
M 30.609375 56 
Q 42.328125 56 49.015625 48.375 
Q 55.71875 40.765625 55.71875 27.296875 
Q 55.71875 13.875 49.015625 6.21875 
Q 42.328125 -1.421875 30.609375 -1.421875 
Q 18.84375 -1.421875 12.171875 6.21875 
Q 5.515625 13.875 5.515625 27.296875 
Q 5.515625 40.765625 12.171875 48.375 
Q 18.84375 56 30.609375 56 
z
" id="DejaVuSans-111"/>
      <path d="M 34.28125 27.484375 
Q 23.390625 27.484375 19.1875 25 
Q 14.984375 22.515625 14.984375 16.5 
Q 14.984375 11.71875 18.140625 8.90625 
Q 21.296875 6.109375 26.703125 6.109375 
Q 34.1875 6.109375 38.703125 11.40625 
Q 43.21875 16.703125 43.21875 25.484375 
L 43.21875 27.484375 
z
M 52.203125 31.203125 
L 52.203125 0 
L 43.21875 0 
L 43.21875 8.296875 
Q 40.140625 3.328125 35.546875 0.953125 
Q 30.953125 -1.421875 24.3125 -1.421875 
Q 15.921875 -1.421875 10.953125 3.296875 
Q 6 8.015625 6 15.921875 
Q 6 25.140625 12.171875 29.828125 
Q 18.359375 34.515625 30.609375 34.515625 
L 43.21875 34.515625 
L 43.21875 35.40625 
Q 43.21875 41.609375 39.140625 45 
Q 35.0625 48.390625 27.6875 48.390625 
Q 23 48.390625 18.546875 47.265625 
Q 14.109375 46.140625 10.015625 43.890625 
L 10.015625 52.203125 
Q 14.9375 54.109375 19.578125 55.046875 
Q 24.21875 56 28.609375 56 
Q 40.484375 56 46.34375 49.84375 
Q 52.203125 43.703125 52.203125 31.203125 
z
" id="DejaVuSans-97"/>
      <path d="M 18.3125 70.21875 
L 18.3125 54.6875 
L 36.8125 54.6875 
L 36.8125 47.703125 
L 18.3125 47.703125 
L 18.3125 18.015625 
Q 18.3125 11.328125 20.140625 9.421875 
Q 21.96875 7.515625 27.59375 7.515625 
L 36.8125 7.515625 
L 36.8125 0 
L 27.59375 0 
Q 17.1875 0 13.234375 3.875 
Q 9.28125 7.765625 9.28125 18.015625 
L 9.28125 47.703125 
L 2.6875 47.703125 
L 2.6875 54.6875 
L 9.28125 54.6875 
L 9.28125 70.21875 
z
" id="DejaVuSans-116"/>
     </defs>
     <g transform="translate(1215.373437 102.998437)scale(0.1 -0.1)">
      <use xlink:href="#DejaVuSans-110"/>
      <use x="63.378906" xlink:href="#DejaVuSans-117"/>
      <use x="126.757812" xlink:href="#DejaVuSans-109"/>
      <use x="224.169922" xlink:href="#DejaVuSans-112"/>
      <use x="287.646484" xlink:href="#DejaVuSans-121"/>
      <use x="332.576172" xlink:href="#DejaVuSans-46"/>
      <use x="364.363281" xlink:href="#DejaVuSans-102"/>
      <use x="399.568359" xlink:href="#DejaVuSans-108"/>
      <use x="427.351562" xlink:href="#DejaVuSans-111"/>
      <use x="488.533203" xlink:href="#DejaVuSans-97"/>
      <use x="549.8125" xlink:href="#DejaVuSans-116"/>
      <use x="589.021484" xlink:href="#DejaVuSans-51"/>
      <use x="652.644531" xlink:href="#DejaVuSans-50"/>
     </g>
    </g>
    <g id="line2d_22">
     <path d="M 1187.373437 114.176562 
L 1207.373437 114.176562 
" style="fill:none;stroke:#ff7f0e;stroke-linecap:square;stroke-width:1.5;"/>
    </g>
    <g id="line2d_23"/>
    <g id="text_22">
     <!-- numpy.float64 -->
     <g transform="translate(1215.373437 117.676562)scale(0.1 -0.1)">
      <use xlink:href="#DejaVuSans-110"/>
      <use x="63.378906" xlink:href="#DejaVuSans-117"/>
      <use x="126.757812" xlink:href="#DejaVuSans-109"/>
      <use x="224.169922" xlink:href="#DejaVuSans-112"/>
      <use x="287.646484" xlink:href="#DejaVuSans-121"/>
      <use x="332.576172" xlink:href="#DejaVuSans-46"/>
      <use x="364.363281" xlink:href="#DejaVuSans-102"/>
      <use x="399.568359" xlink:href="#DejaVuSans-108"/>
      <use x="427.351562" xlink:href="#DejaVuSans-111"/>
      <use x="488.533203" xlink:href="#DejaVuSans-97"/>
      <use x="549.8125" xlink:href="#DejaVuSans-116"/>
      <use x="589.021484" xlink:href="#DejaVuSans-54"/>
      <use x="652.644531" xlink:href="#DejaVuSans-52"/>
     </g>
    </g>
   </g>
  </g>
 </g>
 <defs>
  <clipPath id="p9502a35517">
   <rect height="554.4" width="1116" x="180" y="86.4"/>
  </clipPath>
 </defs>
</svg>
