<?xml version="1.0" encoding="utf-8" standalone="no"?>
<!DOCTYPE svg PUBLIC "-//W3C//DTD SVG 1.1//EN"
  "http://www.w3.org/Graphics/SVG/1.1/DTD/svg11.dtd">
<!-- Created with matplotlib (https://matplotlib.org/) -->
<svg height="345.6pt" version="1.1" viewBox="0 0 460.8 345.6" width="460.8pt" xmlns="http://www.w3.org/2000/svg" xmlns:xlink="http://www.w3.org/1999/xlink">
 <defs>
  <style type="text/css">
*{stroke-linecap:butt;stroke-linejoin:round;}
  </style>
 </defs>
 <g id="figure_1">
  <g id="patch_1">
   <path d="M 0 345.6 
L 460.8 345.6 
L 460.8 0 
L 0 0 
z
" style="fill:#ffffff;"/>
  </g>
  <g id="axes_1">
   <g id="patch_2">
    <path d="M 57.6 307.584 
L 414.72 307.584 
L 414.72 41.472 
L 57.6 41.472 
z
" style="fill:#ffffff;"/>
   </g>
   <g id="matplotlib.axis_1">
    <g id="xtick_1">
     <g id="line2d_1">
      <defs>
       <path d="M 0 0 
L 0 3.5 
" id="m9d316d8c3a" style="stroke:#000000;stroke-width:0.8;"/>
      </defs>
      <g>
       <use style="stroke:#000000;stroke-width:0.8;" x="106.659274" xlink:href="#m9d316d8c3a" y="307.584"/>
      </g>
     </g>
     <g id="text_1">
      <!-- 100.0 -->
      <defs>
       <path d="M 12.40625 8.296875 
L 28.515625 8.296875 
L 28.515625 63.921875 
L 10.984375 60.40625 
L 10.984375 69.390625 
L 28.421875 72.90625 
L 38.28125 72.90625 
L 38.28125 8.296875 
L 54.390625 8.296875 
L 54.390625 0 
L 12.40625 0 
z
" id="DejaVuSans-49"/>
       <path d="M 31.78125 66.40625 
Q 24.171875 66.40625 20.328125 58.90625 
Q 16.5 51.421875 16.5 36.375 
Q 16.5 21.390625 20.328125 13.890625 
Q 24.171875 6.390625 31.78125 6.390625 
Q 39.453125 6.390625 43.28125 13.890625 
Q 47.125 21.390625 47.125 36.375 
Q 47.125 51.421875 43.28125 58.90625 
Q 39.453125 66.40625 31.78125 66.40625 
z
M 31.78125 74.21875 
Q 44.046875 74.21875 50.515625 64.515625 
Q 56.984375 54.828125 56.984375 36.375 
Q 56.984375 17.96875 50.515625 8.265625 
Q 44.046875 -1.421875 31.78125 -1.421875 
Q 19.53125 -1.421875 13.0625 8.265625 
Q 6.59375 17.96875 6.59375 36.375 
Q 6.59375 54.828125 13.0625 64.515625 
Q 19.53125 74.21875 31.78125 74.21875 
z
" id="DejaVuSans-48"/>
       <path d="M 10.6875 12.40625 
L 21 12.40625 
L 21 0 
L 10.6875 0 
z
" id="DejaVuSans-46"/>
      </defs>
      <g transform="translate(92.345211 322.182437)scale(0.1 -0.1)">
       <use xlink:href="#DejaVuSans-49"/>
       <use x="63.623047" xlink:href="#DejaVuSans-48"/>
       <use x="127.246094" xlink:href="#DejaVuSans-48"/>
       <use x="190.869141" xlink:href="#DejaVuSans-46"/>
       <use x="222.65625" xlink:href="#DejaVuSans-48"/>
      </g>
     </g>
    </g>
    <g id="xtick_2">
     <g id="line2d_2">
      <g>
       <use style="stroke:#000000;stroke-width:0.8;" x="139.48582" xlink:href="#m9d316d8c3a" y="307.584"/>
      </g>
     </g>
     <g id="text_2">
      <!-- 200.0 -->
      <defs>
       <path d="M 19.1875 8.296875 
L 53.609375 8.296875 
L 53.609375 0 
L 7.328125 0 
L 7.328125 8.296875 
Q 12.9375 14.109375 22.625 23.890625 
Q 32.328125 33.6875 34.8125 36.53125 
Q 39.546875 41.84375 41.421875 45.53125 
Q 43.3125 49.21875 43.3125 52.78125 
Q 43.3125 58.59375 39.234375 62.25 
Q 35.15625 65.921875 28.609375 65.921875 
Q 23.96875 65.921875 18.8125 64.3125 
Q 13.671875 62.703125 7.8125 59.421875 
L 7.8125 69.390625 
Q 13.765625 71.78125 18.9375 73 
Q 24.125 74.21875 28.421875 74.21875 
Q 39.75 74.21875 46.484375 68.546875 
Q 53.21875 62.890625 53.21875 53.421875 
Q 53.21875 48.921875 51.53125 44.890625 
Q 49.859375 40.875 45.40625 35.40625 
Q 44.1875 33.984375 37.640625 27.21875 
Q 31.109375 20.453125 19.1875 8.296875 
z
" id="DejaVuSans-50"/>
      </defs>
      <g transform="translate(125.171758 322.182437)scale(0.1 -0.1)">
       <use xlink:href="#DejaVuSans-50"/>
       <use x="63.623047" xlink:href="#DejaVuSans-48"/>
       <use x="127.246094" xlink:href="#DejaVuSans-48"/>
       <use x="190.869141" xlink:href="#DejaVuSans-46"/>
       <use x="222.65625" xlink:href="#DejaVuSans-48"/>
      </g>
     </g>
    </g>
    <g id="xtick_3">
     <g id="line2d_3">
      <g>
       <use style="stroke:#000000;stroke-width:0.8;" x="172.312367" xlink:href="#m9d316d8c3a" y="307.584"/>
      </g>
     </g>
     <g id="text_3">
      <!-- 300.0 -->
      <defs>
       <path d="M 40.578125 39.3125 
Q 47.65625 37.796875 51.625 33 
Q 55.609375 28.21875 55.609375 21.1875 
Q 55.609375 10.40625 48.1875 4.484375 
Q 40.765625 -1.421875 27.09375 -1.421875 
Q 22.515625 -1.421875 17.65625 -0.515625 
Q 12.796875 0.390625 7.625 2.203125 
L 7.625 11.71875 
Q 11.71875 9.328125 16.59375 8.109375 
Q 21.484375 6.890625 26.8125 6.890625 
Q 36.078125 6.890625 40.9375 10.546875 
Q 45.796875 14.203125 45.796875 21.1875 
Q 45.796875 27.640625 41.28125 31.265625 
Q 36.765625 34.90625 28.71875 34.90625 
L 20.21875 34.90625 
L 20.21875 43.015625 
L 29.109375 43.015625 
Q 36.375 43.015625 40.234375 45.921875 
Q 44.09375 48.828125 44.09375 54.296875 
Q 44.09375 59.90625 40.109375 62.90625 
Q 36.140625 65.921875 28.71875 65.921875 
Q 24.65625 65.921875 20.015625 65.03125 
Q 15.375 64.15625 9.8125 62.3125 
L 9.8125 71.09375 
Q 15.4375 72.65625 20.34375 73.4375 
Q 25.25 74.21875 29.59375 74.21875 
Q 40.828125 74.21875 47.359375 69.109375 
Q 53.90625 64.015625 53.90625 55.328125 
Q 53.90625 49.265625 50.4375 45.09375 
Q 46.96875 40.921875 40.578125 39.3125 
z
" id="DejaVuSans-51"/>
      </defs>
      <g transform="translate(157.998304 322.182437)scale(0.1 -0.1)">
       <use xlink:href="#DejaVuSans-51"/>
       <use x="63.623047" xlink:href="#DejaVuSans-48"/>
       <use x="127.246094" xlink:href="#DejaVuSans-48"/>
       <use x="190.869141" xlink:href="#DejaVuSans-46"/>
       <use x="222.65625" xlink:href="#DejaVuSans-48"/>
      </g>
     </g>
    </g>
    <g id="xtick_4">
     <g id="line2d_4">
      <g>
       <use style="stroke:#000000;stroke-width:0.8;" x="205.138914" xlink:href="#m9d316d8c3a" y="307.584"/>
      </g>
     </g>
     <g id="text_4">
      <!-- 400.0 -->
      <defs>
       <path d="M 37.796875 64.3125 
L 12.890625 25.390625 
L 37.796875 25.390625 
z
M 35.203125 72.90625 
L 47.609375 72.90625 
L 47.609375 25.390625 
L 58.015625 25.390625 
L 58.015625 17.1875 
L 47.609375 17.1875 
L 47.609375 0 
L 37.796875 0 
L 37.796875 17.1875 
L 4.890625 17.1875 
L 4.890625 26.703125 
z
" id="DejaVuSans-52"/>
      </defs>
      <g transform="translate(190.824851 322.182437)scale(0.1 -0.1)">
       <use xlink:href="#DejaVuSans-52"/>
       <use x="63.623047" xlink:href="#DejaVuSans-48"/>
       <use x="127.246094" xlink:href="#DejaVuSans-48"/>
       <use x="190.869141" xlink:href="#DejaVuSans-46"/>
       <use x="222.65625" xlink:href="#DejaVuSans-48"/>
      </g>
     </g>
    </g>
    <g id="xtick_5">
     <g id="line2d_5">
      <g>
       <use style="stroke:#000000;stroke-width:0.8;" x="237.96546" xlink:href="#m9d316d8c3a" y="307.584"/>
      </g>
     </g>
     <g id="text_5">
      <!-- 500.0 -->
      <defs>
       <path d="M 10.796875 72.90625 
L 49.515625 72.90625 
L 49.515625 64.59375 
L 19.828125 64.59375 
L 19.828125 46.734375 
Q 21.96875 47.46875 24.109375 47.828125 
Q 26.265625 48.1875 28.421875 48.1875 
Q 40.625 48.1875 47.75 41.5 
Q 54.890625 34.8125 54.890625 23.390625 
Q 54.890625 11.625 47.5625 5.09375 
Q 40.234375 -1.421875 26.90625 -1.421875 
Q 22.3125 -1.421875 17.546875 -0.640625 
Q 12.796875 0.140625 7.71875 1.703125 
L 7.71875 11.625 
Q 12.109375 9.234375 16.796875 8.0625 
Q 21.484375 6.890625 26.703125 6.890625 
Q 35.15625 6.890625 40.078125 11.328125 
Q 45.015625 15.765625 45.015625 23.390625 
Q 45.015625 31 40.078125 35.4375 
Q 35.15625 39.890625 26.703125 39.890625 
Q 22.75 39.890625 18.8125 39.015625 
Q 14.890625 38.140625 10.796875 36.28125 
z
" id="DejaVuSans-53"/>
      </defs>
      <g transform="translate(223.651398 322.182437)scale(0.1 -0.1)">
       <use xlink:href="#DejaVuSans-53"/>
       <use x="63.623047" xlink:href="#DejaVuSans-48"/>
       <use x="127.246094" xlink:href="#DejaVuSans-48"/>
       <use x="190.869141" xlink:href="#DejaVuSans-46"/>
       <use x="222.65625" xlink:href="#DejaVuSans-48"/>
      </g>
     </g>
    </g>
    <g id="xtick_6">
     <g id="line2d_6">
      <g>
       <use style="stroke:#000000;stroke-width:0.8;" x="270.792007" xlink:href="#m9d316d8c3a" y="307.584"/>
      </g>
     </g>
     <g id="text_6">
      <!-- 600.0 -->
      <defs>
       <path d="M 33.015625 40.375 
Q 26.375 40.375 22.484375 35.828125 
Q 18.609375 31.296875 18.609375 23.390625 
Q 18.609375 15.53125 22.484375 10.953125 
Q 26.375 6.390625 33.015625 6.390625 
Q 39.65625 6.390625 43.53125 10.953125 
Q 47.40625 15.53125 47.40625 23.390625 
Q 47.40625 31.296875 43.53125 35.828125 
Q 39.65625 40.375 33.015625 40.375 
z
M 52.59375 71.296875 
L 52.59375 62.3125 
Q 48.875 64.0625 45.09375 64.984375 
Q 41.3125 65.921875 37.59375 65.921875 
Q 27.828125 65.921875 22.671875 59.328125 
Q 17.53125 52.734375 16.796875 39.40625 
Q 19.671875 43.65625 24.015625 45.921875 
Q 28.375 48.1875 33.59375 48.1875 
Q 44.578125 48.1875 50.953125 41.515625 
Q 57.328125 34.859375 57.328125 23.390625 
Q 57.328125 12.15625 50.6875 5.359375 
Q 44.046875 -1.421875 33.015625 -1.421875 
Q 20.359375 -1.421875 13.671875 8.265625 
Q 6.984375 17.96875 6.984375 36.375 
Q 6.984375 53.65625 15.1875 63.9375 
Q 23.390625 74.21875 37.203125 74.21875 
Q 40.921875 74.21875 44.703125 73.484375 
Q 48.484375 72.75 52.59375 71.296875 
z
" id="DejaVuSans-54"/>
      </defs>
      <g transform="translate(256.477944 322.182437)scale(0.1 -0.1)">
       <use xlink:href="#DejaVuSans-54"/>
       <use x="63.623047" xlink:href="#DejaVuSans-48"/>
       <use x="127.246094" xlink:href="#DejaVuSans-48"/>
       <use x="190.869141" xlink:href="#DejaVuSans-46"/>
       <use x="222.65625" xlink:href="#DejaVuSans-48"/>
      </g>
     </g>
    </g>
    <g id="xtick_7">
     <g id="line2d_7">
      <g>
       <use style="stroke:#000000;stroke-width:0.8;" x="303.618553" xlink:href="#m9d316d8c3a" y="307.584"/>
      </g>
     </g>
     <g id="text_7">
      <!-- 700.0 -->
      <defs>
       <path d="M 8.203125 72.90625 
L 55.078125 72.90625 
L 55.078125 68.703125 
L 28.609375 0 
L 18.3125 0 
L 43.21875 64.59375 
L 8.203125 64.59375 
z
" id="DejaVuSans-55"/>
      </defs>
      <g transform="translate(289.304491 322.182437)scale(0.1 -0.1)">
       <use xlink:href="#DejaVuSans-55"/>
       <use x="63.623047" xlink:href="#DejaVuSans-48"/>
       <use x="127.246094" xlink:href="#DejaVuSans-48"/>
       <use x="190.869141" xlink:href="#DejaVuSans-46"/>
       <use x="222.65625" xlink:href="#DejaVuSans-48"/>
      </g>
     </g>
    </g>
    <g id="xtick_8">
     <g id="line2d_8">
      <g>
       <use style="stroke:#000000;stroke-width:0.8;" x="336.4451" xlink:href="#m9d316d8c3a" y="307.584"/>
      </g>
     </g>
     <g id="text_8">
      <!-- 800.0 -->
      <defs>
       <path d="M 31.78125 34.625 
Q 24.75 34.625 20.71875 30.859375 
Q 16.703125 27.09375 16.703125 20.515625 
Q 16.703125 13.921875 20.71875 10.15625 
Q 24.75 6.390625 31.78125 6.390625 
Q 38.8125 6.390625 42.859375 10.171875 
Q 46.921875 13.96875 46.921875 20.515625 
Q 46.921875 27.09375 42.890625 30.859375 
Q 38.875 34.625 31.78125 34.625 
z
M 21.921875 38.8125 
Q 15.578125 40.375 12.03125 44.71875 
Q 8.5 49.078125 8.5 55.328125 
Q 8.5 64.0625 14.71875 69.140625 
Q 20.953125 74.21875 31.78125 74.21875 
Q 42.671875 74.21875 48.875 69.140625 
Q 55.078125 64.0625 55.078125 55.328125 
Q 55.078125 49.078125 51.53125 44.71875 
Q 48 40.375 41.703125 38.8125 
Q 48.828125 37.15625 52.796875 32.3125 
Q 56.78125 27.484375 56.78125 20.515625 
Q 56.78125 9.90625 50.3125 4.234375 
Q 43.84375 -1.421875 31.78125 -1.421875 
Q 19.734375 -1.421875 13.25 4.234375 
Q 6.78125 9.90625 6.78125 20.515625 
Q 6.78125 27.484375 10.78125 32.3125 
Q 14.796875 37.15625 21.921875 38.8125 
z
M 18.3125 54.390625 
Q 18.3125 48.734375 21.84375 45.5625 
Q 25.390625 42.390625 31.78125 42.390625 
Q 38.140625 42.390625 41.71875 45.5625 
Q 45.3125 48.734375 45.3125 54.390625 
Q 45.3125 60.0625 41.71875 63.234375 
Q 38.140625 66.40625 31.78125 66.40625 
Q 25.390625 66.40625 21.84375 63.234375 
Q 18.3125 60.0625 18.3125 54.390625 
z
" id="DejaVuSans-56"/>
      </defs>
      <g transform="translate(322.131037 322.182437)scale(0.1 -0.1)">
       <use xlink:href="#DejaVuSans-56"/>
       <use x="63.623047" xlink:href="#DejaVuSans-48"/>
       <use x="127.246094" xlink:href="#DejaVuSans-48"/>
       <use x="190.869141" xlink:href="#DejaVuSans-46"/>
       <use x="222.65625" xlink:href="#DejaVuSans-48"/>
      </g>
     </g>
    </g>
    <g id="xtick_9">
     <g id="line2d_9">
      <g>
       <use style="stroke:#000000;stroke-width:0.8;" x="369.271646" xlink:href="#m9d316d8c3a" y="307.584"/>
      </g>
     </g>
     <g id="text_9">
      <!-- 900.0 -->
      <defs>
       <path d="M 10.984375 1.515625 
L 10.984375 10.5 
Q 14.703125 8.734375 18.5 7.8125 
Q 22.3125 6.890625 25.984375 6.890625 
Q 35.75 6.890625 40.890625 13.453125 
Q 46.046875 20.015625 46.78125 33.40625 
Q 43.953125 29.203125 39.59375 26.953125 
Q 35.25 24.703125 29.984375 24.703125 
Q 19.046875 24.703125 12.671875 31.3125 
Q 6.296875 37.9375 6.296875 49.421875 
Q 6.296875 60.640625 12.9375 67.421875 
Q 19.578125 74.21875 30.609375 74.21875 
Q 43.265625 74.21875 49.921875 64.515625 
Q 56.59375 54.828125 56.59375 36.375 
Q 56.59375 19.140625 48.40625 8.859375 
Q 40.234375 -1.421875 26.421875 -1.421875 
Q 22.703125 -1.421875 18.890625 -0.6875 
Q 15.09375 0.046875 10.984375 1.515625 
z
M 30.609375 32.421875 
Q 37.25 32.421875 41.125 36.953125 
Q 45.015625 41.5 45.015625 49.421875 
Q 45.015625 57.28125 41.125 61.84375 
Q 37.25 66.40625 30.609375 66.40625 
Q 23.96875 66.40625 20.09375 61.84375 
Q 16.21875 57.28125 16.21875 49.421875 
Q 16.21875 41.5 20.09375 36.953125 
Q 23.96875 32.421875 30.609375 32.421875 
z
" id="DejaVuSans-57"/>
      </defs>
      <g transform="translate(354.957584 322.182437)scale(0.1 -0.1)">
       <use xlink:href="#DejaVuSans-57"/>
       <use x="63.623047" xlink:href="#DejaVuSans-48"/>
       <use x="127.246094" xlink:href="#DejaVuSans-48"/>
       <use x="190.869141" xlink:href="#DejaVuSans-46"/>
       <use x="222.65625" xlink:href="#DejaVuSans-48"/>
      </g>
     </g>
    </g>
    <g id="xtick_10">
     <g id="line2d_10">
      <g>
       <use style="stroke:#000000;stroke-width:0.8;" x="402.098193" xlink:href="#m9d316d8c3a" y="307.584"/>
      </g>
     </g>
     <g id="text_10">
      <!-- 1000.0 -->
      <g transform="translate(384.60288 322.182437)scale(0.1 -0.1)">
       <use xlink:href="#DejaVuSans-49"/>
       <use x="63.623047" xlink:href="#DejaVuSans-48"/>
       <use x="127.246094" xlink:href="#DejaVuSans-48"/>
       <use x="190.869141" xlink:href="#DejaVuSans-48"/>
       <use x="254.492188" xlink:href="#DejaVuSans-46"/>
       <use x="286.279297" xlink:href="#DejaVuSans-48"/>
      </g>
     </g>
    </g>
    <g id="text_11">
     <!-- n -->
     <defs>
      <path d="M 54.890625 33.015625 
L 54.890625 0 
L 45.90625 0 
L 45.90625 32.71875 
Q 45.90625 40.484375 42.875 44.328125 
Q 39.84375 48.1875 33.796875 48.1875 
Q 26.515625 48.1875 22.3125 43.546875 
Q 18.109375 38.921875 18.109375 30.90625 
L 18.109375 0 
L 9.078125 0 
L 9.078125 54.6875 
L 18.109375 54.6875 
L 18.109375 46.1875 
Q 21.34375 51.125 25.703125 53.5625 
Q 30.078125 56 35.796875 56 
Q 45.21875 56 50.046875 50.171875 
Q 54.890625 44.34375 54.890625 33.015625 
z
" id="DejaVuSans-110"/>
     </defs>
     <g transform="translate(232.99125 335.860562)scale(0.1 -0.1)">
      <use xlink:href="#DejaVuSans-110"/>
     </g>
    </g>
   </g>
   <g id="matplotlib.axis_2">
    <g id="ytick_1">
     <g id="line2d_11">
      <defs>
       <path d="M 0 0 
L -3.5 0 
" id="me269f1e620" style="stroke:#000000;stroke-width:0.8;"/>
      </defs>
      <g>
       <use style="stroke:#000000;stroke-width:0.8;" x="57.6" xlink:href="#me269f1e620" y="256.284112"/>
      </g>
     </g>
     <g id="text_12">
      <!-- 400 -->
      <g transform="translate(31.5125 260.083331)scale(0.1 -0.1)">
       <use xlink:href="#DejaVuSans-52"/>
       <use x="63.623047" xlink:href="#DejaVuSans-48"/>
       <use x="127.246094" xlink:href="#DejaVuSans-48"/>
      </g>
     </g>
    </g>
    <g id="ytick_2">
     <g id="line2d_12">
      <g>
       <use style="stroke:#000000;stroke-width:0.8;" x="57.6" xlink:href="#me269f1e620" y="201.116778"/>
      </g>
     </g>
     <g id="text_13">
      <!-- 600 -->
      <g transform="translate(31.5125 204.915997)scale(0.1 -0.1)">
       <use xlink:href="#DejaVuSans-54"/>
       <use x="63.623047" xlink:href="#DejaVuSans-48"/>
       <use x="127.246094" xlink:href="#DejaVuSans-48"/>
      </g>
     </g>
    </g>
    <g id="ytick_3">
     <g id="line2d_13">
      <g>
       <use style="stroke:#000000;stroke-width:0.8;" x="57.6" xlink:href="#me269f1e620" y="145.949444"/>
      </g>
     </g>
     <g id="text_14">
      <!-- 800 -->
      <g transform="translate(31.5125 149.748662)scale(0.1 -0.1)">
       <use xlink:href="#DejaVuSans-56"/>
       <use x="63.623047" xlink:href="#DejaVuSans-48"/>
       <use x="127.246094" xlink:href="#DejaVuSans-48"/>
      </g>
     </g>
    </g>
    <g id="ytick_4">
     <g id="line2d_14">
      <g>
       <use style="stroke:#000000;stroke-width:0.8;" x="57.6" xlink:href="#me269f1e620" y="90.782109"/>
      </g>
     </g>
     <g id="text_15">
      <!-- 1000 -->
      <g transform="translate(25.15 94.581328)scale(0.1 -0.1)">
       <use xlink:href="#DejaVuSans-49"/>
       <use x="63.623047" xlink:href="#DejaVuSans-48"/>
       <use x="127.246094" xlink:href="#DejaVuSans-48"/>
       <use x="190.869141" xlink:href="#DejaVuSans-48"/>
      </g>
     </g>
    </g>
    <g id="text_16">
     <!-- speedup -->
     <defs>
      <path d="M 44.28125 53.078125 
L 44.28125 44.578125 
Q 40.484375 46.53125 36.375 47.5 
Q 32.28125 48.484375 27.875 48.484375 
Q 21.1875 48.484375 17.84375 46.4375 
Q 14.5 44.390625 14.5 40.28125 
Q 14.5 37.15625 16.890625 35.375 
Q 19.28125 33.59375 26.515625 31.984375 
L 29.59375 31.296875 
Q 39.15625 29.25 43.1875 25.515625 
Q 47.21875 21.78125 47.21875 15.09375 
Q 47.21875 7.46875 41.1875 3.015625 
Q 35.15625 -1.421875 24.609375 -1.421875 
Q 20.21875 -1.421875 15.453125 -0.5625 
Q 10.6875 0.296875 5.421875 2 
L 5.421875 11.28125 
Q 10.40625 8.6875 15.234375 7.390625 
Q 20.0625 6.109375 24.8125 6.109375 
Q 31.15625 6.109375 34.5625 8.28125 
Q 37.984375 10.453125 37.984375 14.40625 
Q 37.984375 18.0625 35.515625 20.015625 
Q 33.0625 21.96875 24.703125 23.78125 
L 21.578125 24.515625 
Q 13.234375 26.265625 9.515625 29.90625 
Q 5.8125 33.546875 5.8125 39.890625 
Q 5.8125 47.609375 11.28125 51.796875 
Q 16.75 56 26.8125 56 
Q 31.78125 56 36.171875 55.265625 
Q 40.578125 54.546875 44.28125 53.078125 
z
" id="DejaVuSans-115"/>
      <path d="M 18.109375 8.203125 
L 18.109375 -20.796875 
L 9.078125 -20.796875 
L 9.078125 54.6875 
L 18.109375 54.6875 
L 18.109375 46.390625 
Q 20.953125 51.265625 25.265625 53.625 
Q 29.59375 56 35.59375 56 
Q 45.5625 56 51.78125 48.09375 
Q 58.015625 40.1875 58.015625 27.296875 
Q 58.015625 14.40625 51.78125 6.484375 
Q 45.5625 -1.421875 35.59375 -1.421875 
Q 29.59375 -1.421875 25.265625 0.953125 
Q 20.953125 3.328125 18.109375 8.203125 
z
M 48.6875 27.296875 
Q 48.6875 37.203125 44.609375 42.84375 
Q 40.53125 48.484375 33.40625 48.484375 
Q 26.265625 48.484375 22.1875 42.84375 
Q 18.109375 37.203125 18.109375 27.296875 
Q 18.109375 17.390625 22.1875 11.75 
Q 26.265625 6.109375 33.40625 6.109375 
Q 40.53125 6.109375 44.609375 11.75 
Q 48.6875 17.390625 48.6875 27.296875 
z
" id="DejaVuSans-112"/>
      <path d="M 56.203125 29.59375 
L 56.203125 25.203125 
L 14.890625 25.203125 
Q 15.484375 15.921875 20.484375 11.0625 
Q 25.484375 6.203125 34.421875 6.203125 
Q 39.59375 6.203125 44.453125 7.46875 
Q 49.3125 8.734375 54.109375 11.28125 
L 54.109375 2.78125 
Q 49.265625 0.734375 44.1875 -0.34375 
Q 39.109375 -1.421875 33.890625 -1.421875 
Q 20.796875 -1.421875 13.15625 6.1875 
Q 5.515625 13.8125 5.515625 26.8125 
Q 5.515625 40.234375 12.765625 48.109375 
Q 20.015625 56 32.328125 56 
Q 43.359375 56 49.78125 48.890625 
Q 56.203125 41.796875 56.203125 29.59375 
z
M 47.21875 32.234375 
Q 47.125 39.59375 43.09375 43.984375 
Q 39.0625 48.390625 32.421875 48.390625 
Q 24.90625 48.390625 20.390625 44.140625 
Q 15.875 39.890625 15.1875 32.171875 
z
" id="DejaVuSans-101"/>
      <path d="M 45.40625 46.390625 
L 45.40625 75.984375 
L 54.390625 75.984375 
L 54.390625 0 
L 45.40625 0 
L 45.40625 8.203125 
Q 42.578125 3.328125 38.25 0.953125 
Q 33.9375 -1.421875 27.875 -1.421875 
Q 17.96875 -1.421875 11.734375 6.484375 
Q 5.515625 14.40625 5.515625 27.296875 
Q 5.515625 40.1875 11.734375 48.09375 
Q 17.96875 56 27.875 56 
Q 33.9375 56 38.25 53.625 
Q 42.578125 51.265625 45.40625 46.390625 
z
M 14.796875 27.296875 
Q 14.796875 17.390625 18.875 11.75 
Q 22.953125 6.109375 30.078125 6.109375 
Q 37.203125 6.109375 41.296875 11.75 
Q 45.40625 17.390625 45.40625 27.296875 
Q 45.40625 37.203125 41.296875 42.84375 
Q 37.203125 48.484375 30.078125 48.484375 
Q 22.953125 48.484375 18.875 42.84375 
Q 14.796875 37.203125 14.796875 27.296875 
z
" id="DejaVuSans-100"/>
      <path d="M 8.5 21.578125 
L 8.5 54.6875 
L 17.484375 54.6875 
L 17.484375 21.921875 
Q 17.484375 14.15625 20.5 10.265625 
Q 23.53125 6.390625 29.59375 6.390625 
Q 36.859375 6.390625 41.078125 11.03125 
Q 45.3125 15.671875 45.3125 23.6875 
L 45.3125 54.6875 
L 54.296875 54.6875 
L 54.296875 0 
L 45.3125 0 
L 45.3125 8.40625 
Q 42.046875 3.421875 37.71875 1 
Q 33.40625 -1.421875 27.6875 -1.421875 
Q 18.265625 -1.421875 13.375 4.4375 
Q 8.5 10.296875 8.5 21.578125 
z
M 31.109375 56 
z
" id="DejaVuSans-117"/>
     </defs>
     <g transform="translate(19.070312 195.977219)rotate(-90)scale(0.1 -0.1)">
      <use xlink:href="#DejaVuSans-115"/>
      <use x="52.099609" xlink:href="#DejaVuSans-112"/>
      <use x="115.576172" xlink:href="#DejaVuSans-101"/>
      <use x="177.099609" xlink:href="#DejaVuSans-101"/>
      <use x="238.623047" xlink:href="#DejaVuSans-100"/>
      <use x="302.099609" xlink:href="#DejaVuSans-117"/>
      <use x="365.478516" xlink:href="#DejaVuSans-112"/>
     </g>
    </g>
   </g>
   <g id="line2d_15">
    <path clip-path="url(#p90ed88e9e9)" d="M 73.832727 281.107998 
L 74.160993 233.705845 
L 74.489258 290.502402 
L 74.817524 233.200391 
L 75.474055 216.961857 
L 76.130586 229.014503 
L 76.458851 227.392972 
L 76.787116 207.863953 
L 77.115382 210.024343 
L 77.443647 216.082963 
L 77.771913 207.240093 
L 78.100178 211.615227 
L 78.428444 237.443124 
L 78.756709 216.546792 
L 79.084975 286.871741 
L 79.741506 208.672927 
L 80.069771 205.944082 
L 80.398037 222.743238 
L 80.726302 201.048338 
L 81.054568 218.569992 
L 81.382833 220.873145 
L 81.711098 217.953366 
L 82.367629 196.971579 
L 82.695895 283.19723 
L 83.02416 203.426558 
L 83.352426 216.783405 
L 83.680691 190.174498 
L 84.008957 220.903669 
L 84.337222 206.403703 
L 84.665488 212.412763 
L 84.993753 206.357809 
L 85.322019 213.744436 
L 85.650284 203.755547 
L 85.978549 211.348459 
L 86.306815 259.883085 
L 86.63508 208.841785 
L 86.963346 178.094353 
L 87.291611 210.227487 
L 87.619877 193.332515 
L 87.948142 199.645492 
L 88.276408 182.27801 
L 88.932939 218.13445 
L 89.261204 220.097603 
L 89.58947 199.974272 
L 89.917735 191.727861 
L 90.246001 187.589317 
L 90.574266 195.210428 
L 90.902531 212.70221 
L 91.230797 190.978441 
L 91.559062 206.490987 
L 91.887328 192.134816 
L 92.215593 185.634772 
L 92.543859 209.635463 
L 92.872124 204.469479 
L 93.20039 182.182545 
L 93.528655 210.130733 
L 93.856921 186.619571 
L 94.185186 205.21689 
L 94.513452 204.083484 
L 94.841717 187.96335 
L 95.169983 179.371574 
L 95.498248 199.006494 
L 95.826513 190.742395 
L 96.154779 203.808153 
L 96.483044 143.306659 
L 96.81131 208.566691 
L 97.139575 199.197948 
L 97.467841 159.710857 
L 97.796106 216.443804 
L 98.124372 172.090623 
L 98.452637 164.19335 
L 98.780903 179.179932 
L 99.109168 203.14481 
L 99.437434 204.160006 
L 99.765699 201.410036 
L 100.093965 192.912265 
L 100.42223 163.224893 
L 100.750495 176.743645 
L 101.078761 185.630371 
L 101.407026 183.298571 
L 102.063557 167.364283 
L 102.391823 163.064828 
L 102.720088 198.290351 
L 103.048354 183.225512 
L 103.376619 178.601513 
L 103.704885 209.46545 
L 104.03315 202.000791 
L 104.689681 214.429744 
L 105.017947 193.366185 
L 105.346212 199.219489 
L 105.674477 163.866822 
L 106.002743 198.668794 
L 106.331008 157.649176 
L 106.659274 200.158816 
L 106.987539 159.700844 
L 107.315805 195.100603 
L 107.64407 165.305414 
L 107.972336 166.015296 
L 108.300601 180.690869 
L 108.957132 223.662246 
L 109.285398 159.777916 
L 109.613663 173.166136 
L 109.941928 155.944025 
L 110.270194 181.529498 
L 110.598459 135.258429 
L 110.926725 197.468666 
L 111.583256 257.23163 
L 111.911521 148.503368 
L 112.239787 157.814495 
L 112.568052 199.286298 
L 112.896318 155.087804 
L 113.224583 134.785641 
L 113.552849 207.047031 
L 113.881114 177.909705 
L 114.20938 185.943159 
L 114.537645 156.00991 
L 114.86591 152.907494 
L 115.194176 156.436552 
L 115.522441 162.260464 
L 115.850707 154.840514 
L 116.178972 127.776806 
L 116.507238 170.669485 
L 116.835503 132.893765 
L 117.163769 110.531352 
L 117.492034 109.088837 
L 117.8203 183.02765 
L 118.148565 147.152736 
L 118.476831 173.31027 
L 118.805096 146.335705 
L 119.133362 140.116086 
L 119.461627 164.478456 
L 119.789892 156.994793 
L 120.118158 158.018335 
L 120.446423 158.473149 
L 120.774689 152.608389 
L 121.102954 178.711886 
L 121.43122 126.357234 
L 121.759485 160.602109 
L 122.087751 159.663148 
L 122.416016 192.141565 
L 122.744282 147.83277 
L 123.072547 121.449255 
L 123.400813 196.249017 
L 123.729078 152.649509 
L 124.057344 167.721833 
L 124.385609 205.336407 
L 124.713874 148.99091 
L 125.04214 170.845847 
L 125.370405 166.062213 
L 125.698671 146.110555 
L 126.355202 155.350925 
L 126.683467 130.762251 
L 127.011733 179.064304 
L 127.339998 175.802091 
L 127.668264 158.366936 
L 127.996529 132.605784 
L 128.324795 139.082708 
L 128.65306 142.337675 
L 128.981325 153.563749 
L 129.309591 150.23913 
L 129.637856 142.372958 
L 129.966122 178.103664 
L 130.294387 106.70792 
L 130.622653 99.226102 
L 130.950918 172.770513 
L 131.607449 144.855484 
L 131.935715 136.057444 
L 132.26398 174.258749 
L 132.592246 167.724122 
L 132.920511 156.739782 
L 133.248777 137.800813 
L 133.577042 97.405575 
L 133.905307 141.280216 
L 134.233573 133.074228 
L 134.561838 154.350847 
L 134.890104 132.024509 
L 135.218369 134.119502 
L 135.546635 131.065188 
L 135.8749 144.80724 
L 136.203166 146.87959 
L 136.531431 167.141506 
L 136.859697 175.904519 
L 137.187962 173.211741 
L 137.516228 142.084394 
L 137.844493 156.891067 
L 138.172759 146.336278 
L 138.501024 152.420158 
L 138.829289 138.052681 
L 139.157555 153.18017 
L 139.48582 153.280269 
L 139.814086 154.796164 
L 140.142351 186.265697 
L 140.470617 168.165825 
L 140.798882 139.155495 
L 141.127148 149.230723 
L 141.455413 145.199852 
L 141.783679 152.823067 
L 142.111944 137.427801 
L 142.44021 140.002287 
L 142.768475 130.299425 
L 143.096741 151.15361 
L 143.425006 135.574072 
L 143.753271 203.401865 
L 144.081537 133.875915 
L 144.409802 130.999209 
L 144.738068 137.642643 
L 145.066333 134.518403 
L 145.394599 128.284124 
L 145.722864 135.706231 
L 146.05113 149.807634 
L 146.379395 134.868156 
L 146.707661 137.776607 
L 147.035926 136.639075 
L 147.364192 124.058406 
L 147.692457 140.902003 
L 148.020722 109.166615 
L 148.348988 124.082645 
L 149.005519 136.904941 
L 149.333784 130.42951 
L 149.66205 134.013336 
L 149.990315 125.549867 
L 150.318581 191.717947 
L 150.646846 121.169412 
L 150.975112 188.646018 
L 151.303377 138.79969 
L 151.631643 122.27802 
L 151.959908 146.746697 
L 152.288174 141.554902 
L 152.616439 132.796396 
L 152.944704 102.95032 
L 153.27297 147.882225 
L 153.929501 133.748516 
L 154.257766 121.353655 
L 154.586032 124.529422 
L 155.242563 133.033461 
L 155.570828 125.83046 
L 155.899094 131.019992 
L 156.227359 127.839944 
L 156.555625 120.466148 
L 156.88389 121.285125 
L 157.212156 145.058098 
L 157.868686 119.687759 
L 158.196952 125.419196 
L 158.525217 148.056102 
L 158.853483 129.540978 
L 159.181748 167.323106 
L 159.510014 80.100754 
L 159.838279 131.539596 
L 160.166545 124.698948 
L 160.49481 194.985957 
L 160.823076 195.5542 
L 161.151341 132.94032 
L 161.479607 130.732417 
L 161.807872 53.568 
L 162.136138 156.187772 
L 162.792668 124.401791 
L 163.449199 170.681258 
L 163.777465 88.079834 
L 164.10573 124.846024 
L 164.433996 123.169097 
L 164.762261 125.009375 
L 165.090527 134.330857 
L 165.418792 125.280338 
L 165.747058 182.917768 
L 166.075323 120.051866 
L 166.403589 138.696493 
L 166.731854 173.114666 
L 167.060119 118.558189 
L 167.388385 137.155041 
L 167.71665 125.085334 
L 168.044916 128.658754 
L 168.373181 98.742555 
L 168.701447 126.342806 
L 169.029712 117.567914 
L 169.357978 135.960809 
L 169.686243 120.126199 
L 170.014509 118.434337 
L 170.342774 93.856858 
L 170.67104 123.953175 
L 170.999305 139.160521 
L 171.327571 124.323414 
L 171.655836 134.269121 
L 171.984101 132.155239 
L 172.312367 168.514118 
L 172.640632 127.496952 
L 172.968898 144.830318 
L 173.297163 125.133613 
L 173.625429 123.925391 
L 173.953694 133.909737 
L 174.28196 122.022839 
L 174.610225 137.123401 
L 174.938491 117.977964 
L 175.266756 109.21712 
L 175.595022 129.500599 
L 176.251553 150.184614 
L 176.579818 146.035793 
L 177.236349 119.107478 
L 177.564614 154.183717 
L 177.89288 117.896828 
L 178.221145 124.283639 
L 178.549411 119.549907 
L 178.877676 120.557855 
L 179.205942 120.701894 
L 179.534207 118.502229 
L 179.862473 125.717549 
L 180.519004 111.722076 
L 180.847269 114.127333 
L 181.175535 107.172836 
L 181.5038 112.163511 
L 181.832065 119.437139 
L 182.160331 145.240507 
L 182.488596 118.066897 
L 182.816862 100.454433 
L 183.145127 117.587574 
L 183.473393 121.166908 
L 183.801658 111.785451 
L 184.458189 128.466355 
L 184.786455 125.468208 
L 185.11472 136.781223 
L 185.771251 114.861194 
L 186.099516 110.707215 
L 186.427782 135.940627 
L 186.756047 138.569968 
L 187.084313 125.304232 
L 187.412578 90.175935 
L 187.740844 109.747009 
L 188.069109 118.539586 
L 188.397375 136.693517 
L 188.72564 120.323313 
L 189.053906 117.429882 
L 189.382171 108.904441 
L 189.710437 110.233288 
L 190.038702 150.342035 
L 190.366968 102.355776 
L 190.695233 115.595691 
L 191.023498 120.369953 
L 191.351764 172.469115 
L 191.680029 117.489882 
L 192.008295 108.920991 
L 192.33656 112.115348 
L 192.664826 125.551294 
L 192.993091 107.994629 
L 193.321357 168.52772 
L 193.649622 115.030204 
L 193.977888 100.106529 
L 194.306153 131.065309 
L 194.634419 112.817635 
L 194.962684 110.739232 
L 195.29095 112.003087 
L 195.619215 107.738684 
L 195.94748 143.010679 
L 196.275746 109.814382 
L 196.604011 112.753729 
L 196.932277 58.052855 
L 197.260542 175.916261 
L 197.588808 123.756773 
L 197.917073 114.570642 
L 198.245339 129.538987 
L 198.573604 122.186903 
L 198.90187 166.715871 
L 199.230135 126.054644 
L 199.558401 127.123217 
L 199.886666 121.89745 
L 200.214932 111.219368 
L 200.543197 128.18188 
L 201.199728 112.150418 
L 201.527993 107.143284 
L 201.856259 89.419514 
L 202.184524 116.887931 
L 202.51279 102.567557 
L 202.841055 139.128812 
L 203.497586 82.756029 
L 203.825852 124.210459 
L 204.154117 122.375912 
L 204.482383 103.327914 
L 204.810648 113.678307 
L 205.138914 161.834089 
L 205.467179 114.560816 
L 206.12371 108.834423 
L 206.451975 102.549102 
L 206.780241 105.343823 
L 207.108506 112.289219 
L 207.436772 123.291924 
L 207.765037 104.055705 
L 208.093303 172.5063 
L 208.421568 172.431044 
L 208.749834 113.565168 
L 209.078099 109.170312 
L 209.406365 112.009152 
L 209.73463 125.428008 
L 210.062895 115.075398 
L 210.391161 99.744962 
L 210.719426 146.986306 
L 211.047692 110.429099 
L 211.375957 118.82505 
L 211.704223 103.92338 
L 212.032488 103.074128 
L 212.360754 87.357746 
L 212.689019 117.075726 
L 213.017285 125.287251 
L 213.34555 116.940479 
L 213.673816 113.710997 
L 214.002081 109.28967 
L 214.330347 150.770121 
L 214.658612 117.951472 
L 214.986877 130.751925 
L 215.315143 129.073859 
L 215.643408 109.530624 
L 215.971674 114.860609 
L 216.299939 113.126372 
L 216.628205 100.780497 
L 217.284736 118.277248 
L 217.613001 106.379264 
L 217.941267 105.79491 
L 218.269532 117.24422 
L 218.597798 105.615597 
L 218.926063 106.166076 
L 219.254329 132.500066 
L 219.582594 126.343171 
L 219.910859 114.608652 
L 220.239125 127.852723 
L 220.56739 124.161923 
L 220.895656 122.513384 
L 221.223921 113.684778 
L 221.552187 108.408846 
L 221.880452 122.241007 
L 222.208718 108.828459 
L 222.536983 117.094576 
L 222.865249 120.925568 
L 223.193514 112.843959 
L 223.52178 116.864454 
L 223.850045 65.943396 
L 224.178311 119.286531 
L 224.506576 110.818874 
L 224.834841 117.403094 
L 225.163107 97.069562 
L 225.491372 110.119595 
L 225.819638 116.182368 
L 226.147903 107.984649 
L 226.476169 96.311992 
L 226.804434 126.168607 
L 227.1327 120.84244 
L 227.460965 75.947998 
L 227.789231 135.009483 
L 228.117496 111.037003 
L 228.445762 121.6436 
L 228.774027 119.080026 
L 229.102292 105.24687 
L 229.758823 132.826293 
L 230.415354 100.339176 
L 230.74362 116.962325 
L 231.071885 124.448209 
L 231.400151 105.796227 
L 231.728416 101.768413 
L 232.056682 116.747698 
L 232.384947 114.631914 
L 232.713213 111.105428 
L 233.041478 103.097544 
L 233.698009 135.366042 
L 234.026274 105.966707 
L 234.35454 168.025441 
L 234.682805 115.34508 
L 235.011071 116.200276 
L 235.339336 74.117646 
L 235.667602 118.107751 
L 235.995867 113.295407 
L 236.324133 122.187457 
L 236.652398 118.819176 
L 236.980664 107.817594 
L 237.308929 123.494749 
L 237.637195 121.837572 
L 237.96546 105.026697 
L 238.293726 112.044791 
L 238.621991 124.400022 
L 238.950256 161.588324 
L 239.278522 104.645461 
L 239.935053 131.680429 
L 240.263318 123.800007 
L 240.591584 111.88213 
L 240.919849 116.741182 
L 241.248115 118.492372 
L 241.57638 109.967742 
L 241.904646 119.94793 
L 242.232911 111.752141 
L 242.561177 119.630127 
L 242.889442 110.646694 
L 243.217708 110.179638 
L 243.545973 138.366871 
L 243.874238 90.176206 
L 244.202504 124.746361 
L 244.530769 108.118687 
L 244.859035 103.155062 
L 245.1873 117.542379 
L 245.515566 121.029792 
L 245.843831 121.649535 
L 246.172097 100.943158 
L 246.500362 178.251137 
L 246.828628 113.33594 
L 247.156893 101.771582 
L 247.485159 105.466103 
L 247.813424 143.979203 
L 248.141689 112.935774 
L 248.469955 107.174537 
L 248.79822 107.517151 
L 249.126486 108.401065 
L 249.454751 137.22951 
L 249.783017 94.983075 
L 250.111282 106.121506 
L 250.439548 103.371099 
L 250.767813 99.572584 
L 251.096079 108.717899 
L 251.424344 172.232528 
L 251.75261 113.404088 
L 252.080875 112.960248 
L 252.409141 108.903388 
L 252.737406 167.771253 
L 253.065671 119.450532 
L 253.393937 111.79338 
L 253.722202 110.5747 
L 254.050468 151.939208 
L 254.378733 113.490473 
L 254.706999 112.121677 
L 255.035264 106.555807 
L 255.36353 78.583207 
L 255.691795 79.270506 
L 256.020061 104.637822 
L 256.348326 104.649305 
L 256.676592 90.223721 
L 257.004857 129.40617 
L 257.333123 118.804796 
L 257.661388 118.664323 
L 257.989653 93.576379 
L 258.317919 120.527591 
L 258.646184 165.792322 
L 258.97445 99.893526 
L 259.302715 112.579367 
L 259.630981 115.36815 
L 259.959246 100.723219 
L 260.287512 111.931022 
L 260.615777 113.730805 
L 260.944043 124.248102 
L 261.272308 100.397095 
L 261.600574 106.60538 
L 261.928839 101.681994 
L 262.257105 112.584126 
L 262.58537 102.293781 
L 262.913635 108.778486 
L 263.241901 105.938117 
L 263.570166 77.244286 
L 263.898432 112.436682 
L 264.226697 107.42202 
L 264.554963 71.607739 
L 264.883228 116.276361 
L 265.211494 110.955109 
L 265.539759 77.988971 
L 265.868025 99.826118 
L 266.19629 107.437255 
L 266.524556 118.376685 
L 267.181086 183.620937 
L 267.509352 104.609413 
L 267.837617 116.063033 
L 268.165883 109.847164 
L 268.494148 146.364556 
L 268.822414 113.927251 
L 269.478945 110.558118 
L 270.135476 118.335639 
L 270.792007 108.041533 
L 271.120272 103.762508 
L 271.448538 142.101123 
L 271.776803 86.310508 
L 272.105068 112.98005 
L 272.433334 107.133766 
L 272.761599 111.382517 
L 273.089865 110.947074 
L 273.41813 107.726479 
L 273.746396 98.100882 
L 274.074661 99.208496 
L 274.402927 88.288259 
L 274.731192 72.480719 
L 275.059458 152.396033 
L 275.387723 88.868294 
L 275.715989 111.248108 
L 276.044254 113.162761 
L 276.37252 90.099526 
L 276.700785 99.613017 
L 277.02905 172.594091 
L 277.357316 96.828277 
L 277.685581 109.237965 
L 278.013847 101.733067 
L 278.342112 107.179725 
L 278.670378 98.101599 
L 278.998643 101.466457 
L 279.326909 162.024783 
L 279.655174 112.408976 
L 279.98344 107.049573 
L 280.311705 107.336084 
L 280.639971 127.403385 
L 280.968236 102.673507 
L 281.296502 106.676961 
L 281.624767 105.965954 
L 282.281298 69.328356 
L 282.937829 159.907849 
L 283.266094 107.767915 
L 283.59436 121.438734 
L 283.922625 97.075205 
L 284.250891 100.970411 
L 284.579156 133.739889 
L 284.907422 93.580715 
L 285.235687 106.125845 
L 285.563953 155.916773 
L 285.892218 109.946691 
L 286.220484 109.999308 
L 286.548749 96.724579 
L 286.877014 150.759556 
L 287.20528 94.341816 
L 287.533545 103.150245 
L 287.861811 104.900031 
L 288.190076 103.257825 
L 288.518342 108.196054 
L 288.846607 102.234106 
L 289.174873 103.85364 
L 289.503138 128.067748 
L 289.831404 105.025255 
L 290.159669 104.83826 
L 290.487935 116.278443 
L 290.8162 107.159119 
L 291.144465 119.112409 
L 291.472731 111.624384 
L 291.800996 100.752581 
L 292.129262 107.464876 
L 292.457527 83.606835 
L 292.785793 104.740989 
L 293.114058 100.122799 
L 293.442324 154.385659 
L 293.770589 98.375057 
L 294.098855 116.698964 
L 294.755386 93.81263 
L 295.083651 108.884216 
L 295.411917 110.133021 
L 295.740182 83.645764 
L 296.068447 99.74664 
L 296.396713 153.368277 
L 296.724978 97.955791 
L 297.053244 105.540896 
L 297.381509 103.045083 
L 297.709775 139.765067 
L 298.03804 107.995677 
L 298.366306 108.955395 
L 298.694571 104.503545 
L 299.022837 107.167968 
L 299.351102 102.985883 
L 299.679368 110.09261 
L 300.007633 79.391735 
L 300.335899 100.528314 
L 300.664164 108.795221 
L 301.320695 92.718636 
L 301.64896 96.640246 
L 301.977226 111.390088 
L 302.305491 147.843749 
L 302.633757 98.718726 
L 302.962022 106.288586 
L 303.290288 107.157556 
L 303.618553 159.663828 
L 303.946819 103.835327 
L 304.275084 93.70644 
L 304.60335 98.500563 
L 304.931615 98.779809 
L 305.259881 104.249173 
L 305.588146 132.245228 
L 305.916411 104.887016 
L 306.244677 138.437688 
L 306.572942 102.096699 
L 307.229473 109.565209 
L 307.557739 132.339924 
L 307.886004 94.211948 
L 308.21427 109.958814 
L 308.870801 107.029457 
L 309.199066 99.952426 
L 309.855597 112.797351 
L 310.183862 100.281053 
L 310.512128 116.527319 
L 310.840393 105.088391 
L 311.168659 103.800758 
L 311.496924 106.722321 
L 311.82519 93.450452 
L 312.481721 113.313936 
L 312.809986 116.97772 
L 313.138252 107.620401 
L 313.466517 111.079221 
L 313.794783 121.724785 
L 314.123048 108.187531 
L 314.451314 140.269936 
L 314.779579 109.244689 
L 315.107844 127.420937 
L 315.764375 106.337651 
L 316.092641 117.398537 
L 316.420906 108.352444 
L 316.749172 109.770129 
L 317.077437 95.777662 
L 317.405703 107.264586 
L 317.733968 111.5215 
L 318.062234 106.230453 
L 318.390499 105.361496 
L 318.718765 101.927588 
L 319.04703 115.15382 
L 320.031826 100.125136 
L 320.360092 113.803788 
L 320.688357 114.327617 
L 321.016623 104.798803 
L 321.673154 115.419646 
L 322.329685 104.2225 
L 322.65795 103.726082 
L 322.986216 116.635295 
L 323.642747 103.545776 
L 323.971012 80.340718 
L 324.299278 108.580362 
L 324.627543 106.061842 
L 324.955808 100.270131 
L 325.284074 102.199787 
L 325.612339 112.191121 
L 325.940605 105.794725 
L 326.26887 86.693155 
L 326.925401 122.979775 
L 327.253667 76.863865 
L 327.581932 98.661919 
L 327.910198 79.3403 
L 328.238463 87.597251 
L 328.566729 109.796546 
L 328.894994 84.708621 
L 329.223259 105.475181 
L 329.551525 98.069783 
L 329.87979 126.913187 
L 330.536321 79.693074 
L 330.864587 118.47118 
L 331.192852 81.463352 
L 331.521118 102.430223 
L 331.849383 86.868872 
L 332.177649 107.155485 
L 332.505914 119.193516 
L 332.83418 85.489853 
L 333.162445 157.65383 
L 333.490711 114.003133 
L 333.818976 108.117862 
L 334.147241 94.244478 
L 334.475507 103.467288 
L 334.803772 106.970426 
L 335.132038 105.213479 
L 335.460303 98.511459 
L 335.788569 101.09547 
L 336.116834 98.905719 
L 336.4451 103.696172 
L 336.773365 95.445752 
L 337.101631 98.600399 
L 337.429896 113.829047 
L 337.758162 98.819598 
L 338.086427 99.115726 
L 338.414693 101.833211 
L 338.742958 115.761964 
L 339.071223 102.772802 
L 339.399489 100.333019 
L 339.727754 106.335658 
L 340.05602 106.820094 
L 340.384285 114.234038 
L 340.712551 96.604576 
L 341.040816 106.303666 
L 341.369082 84.411388 
L 341.697347 110.908691 
L 342.025613 103.370773 
L 342.353878 85.13149 
L 342.682144 106.385759 
L 343.010409 117.139506 
L 343.338675 101.983828 
L 343.66694 108.536542 
L 343.995205 107.86213 
L 344.323471 107.693284 
L 344.651736 83.313768 
L 344.980002 104.187378 
L 345.308267 96.914381 
L 345.636533 103.073318 
L 345.964798 99.328763 
L 346.293064 98.305188 
L 346.621329 112.341959 
L 346.949595 100.141757 
L 347.27786 99.254451 
L 347.606126 100.796409 
L 347.934391 107.728486 
L 348.262656 111.557046 
L 348.590922 149.292848 
L 348.919187 108.803026 
L 349.247453 109.71925 
L 349.575718 117.220256 
L 349.903984 111.868195 
L 350.232249 109.197224 
L 350.560515 111.376904 
L 351.217046 100.011067 
L 351.545311 105.280964 
L 351.873577 106.786563 
L 352.201842 105.951891 
L 352.530108 104.174468 
L 352.858373 99.352596 
L 353.186638 108.634473 
L 353.514904 112.841365 
L 353.843169 88.913339 
L 354.171435 82.491358 
L 354.4997 111.661046 
L 354.827966 105.383441 
L 355.156231 101.942828 
L 355.484497 101.491492 
L 355.812762 111.639381 
L 356.469293 100.645522 
L 356.797559 101.49545 
L 357.125824 107.222259 
L 357.45409 105.601817 
L 357.782355 97.731837 
L 358.11062 98.379987 
L 358.438886 105.941765 
L 358.767151 103.063729 
L 359.095417 102.622284 
L 359.423682 81.550305 
L 359.751948 112.220273 
L 360.080213 108.794873 
L 360.408479 94.474049 
L 360.736744 102.952282 
L 361.06501 106.216724 
L 361.393275 100.01386 
L 361.721541 103.267371 
L 362.049806 101.063804 
L 362.378072 108.340184 
L 362.706337 106.223512 
L 363.034602 102.101514 
L 363.362868 100.343282 
L 363.691133 115.355049 
L 364.019399 95.834117 
L 364.347664 108.007424 
L 364.67593 100.389715 
L 365.004195 111.257325 
L 365.332461 109.009932 
L 365.660726 93.813763 
L 365.988992 112.692395 
L 366.317257 118.247413 
L 366.645523 107.107327 
L 366.973788 109.67461 
L 367.302053 97.326363 
L 367.630319 148.146727 
L 367.958584 102.68333 
L 368.28685 107.620614 
L 368.615115 100.212476 
L 368.943381 113.816187 
L 369.271646 120.915282 
L 369.599912 120.68279 
L 369.928177 99.523683 
L 370.256443 107.692816 
L 370.584708 93.676564 
L 370.912974 101.797891 
L 371.241239 94.912678 
L 371.569505 100.724347 
L 371.89777 111.238371 
L 372.226035 102.122947 
L 372.554301 125.054497 
L 372.882566 93.846033 
L 373.210832 129.28482 
L 373.867363 108.967021 
L 374.195628 109.77434 
L 374.523894 114.567129 
L 374.852159 108.333968 
L 375.180425 111.811834 
L 375.836956 103.349731 
L 376.165221 89.393672 
L 376.821752 111.480851 
L 377.150017 122.809055 
L 377.806548 92.82434 
L 378.134814 111.821573 
L 378.463079 156.57845 
L 378.791345 102.561434 
L 379.11961 99.88419 
L 379.447876 111.240222 
L 379.776141 106.190392 
L 380.104407 136.555271 
L 380.432672 105.064674 
L 380.760938 110.458075 
L 381.089203 98.699626 
L 381.417469 102.856722 
L 381.745734 86.608682 
L 382.073999 112.014749 
L 382.402265 93.002085 
L 382.73053 97.636975 
L 383.058796 105.021923 
L 383.387061 102.096562 
L 383.715327 106.870141 
L 384.043592 94.704902 
L 384.371858 104.066884 
L 384.700123 107.836696 
L 385.028389 91.535502 
L 385.356654 91.627633 
L 385.68492 78.360306 
L 386.013185 130.454669 
L 386.341451 100.230179 
L 386.669716 102.873601 
L 386.997981 159.856138 
L 387.326247 122.351843 
L 387.654512 114.65556 
L 387.982778 94.40861 
L 388.311043 91.654392 
L 388.639309 109.094306 
L 388.967574 88.888044 
L 389.29584 103.65532 
L 389.624105 86.393744 
L 389.952371 108.715161 
L 390.280636 112.424205 
L 390.937167 105.370348 
L 391.265432 124.486472 
L 391.921963 101.814948 
L 392.250229 136.104494 
L 392.578494 108.103307 
L 392.90676 104.896719 
L 393.235025 117.753348 
L 393.563291 107.820177 
L 394.219822 111.653512 
L 394.548087 111.182442 
L 394.876353 104.176102 
L 395.204618 107.052027 
L 395.532884 107.292619 
L 395.861149 100.004097 
L 396.189414 102.090273 
L 396.51768 93.004465 
L 396.845945 97.179692 
L 397.174211 90.472621 
L 397.502476 95.013929 
L 397.830742 107.007631 
L 398.159007 114.470925 
L 398.487273 95.080165 
L 398.487273 95.080165 
" style="fill:none;stroke:#1f77b4;stroke-linecap:square;stroke-width:1.5;"/>
   </g>
   <g id="line2d_16">
    <path clip-path="url(#p90ed88e9e9)" d="M 73.832727 276.726303 
L 74.160993 262.770093 
L 74.489258 260.856763 
L 74.817524 254.866353 
L 75.474055 270.243673 
L 75.80232 269.330984 
L 76.130586 265.490298 
L 76.458851 270.83635 
L 76.787116 268.796913 
L 77.115382 262.828925 
L 77.443647 275.163401 
L 77.771913 271.205461 
L 78.100178 264.803595 
L 78.428444 274.01144 
L 78.756709 269.075475 
L 79.084975 275.118146 
L 79.41324 274.271467 
L 79.741506 283.626838 
L 80.069771 275.247728 
L 80.398037 276.689384 
L 80.726302 273.367767 
L 81.054568 282.731787 
L 81.382833 282.889486 
L 81.711098 277.772849 
L 82.039364 241.363425 
L 82.367629 273.304683 
L 82.695895 277.998106 
L 83.02416 262.690111 
L 83.352426 265.967387 
L 83.680691 277.424903 
L 84.008957 276.113503 
L 84.337222 278.957374 
L 84.665488 283.774021 
L 84.993753 272.469057 
L 85.322019 278.770259 
L 85.650284 268.375852 
L 85.978549 277.627399 
L 86.306815 291.159357 
L 86.963346 267.035715 
L 87.291611 282.668238 
L 87.619877 276.59364 
L 87.948142 275.396592 
L 88.276408 286.921746 
L 88.604673 274.578121 
L 88.932939 255.763874 
L 89.261204 274.424724 
L 89.58947 282.922042 
L 89.917735 228.597349 
L 90.246001 283.317643 
L 90.574266 253.508714 
L 91.230797 282.909165 
L 91.559062 267.637601 
L 91.887328 267.003451 
L 92.215593 269.30768 
L 92.543859 281.930707 
L 92.872124 272.204524 
L 93.20039 273.32777 
L 93.528655 283.715955 
L 93.856921 281.260313 
L 94.185186 268.343781 
L 94.513452 273.028196 
L 94.841717 274.534155 
L 95.169983 274.698242 
L 95.498248 283.972754 
L 95.826513 248.087306 
L 96.154779 277.232217 
L 96.483044 251.839794 
L 96.81131 271.775318 
L 97.139575 267.072529 
L 97.467841 265.857154 
L 97.796106 265.483818 
L 98.124372 278.078208 
L 98.452637 265.506501 
L 98.780903 271.732689 
L 99.109168 262.674629 
L 99.437434 266.769302 
L 99.765699 274.251946 
L 100.093965 263.276921 
L 100.42223 265.592551 
L 100.750495 275.379507 
L 101.078761 264.062332 
L 101.407026 284.951526 
L 101.735292 267.179725 
L 102.063557 287.85935 
L 102.391823 262.460566 
L 102.720088 288.43326 
L 103.048354 267.693964 
L 103.376619 274.9239 
L 103.704885 271.757659 
L 104.03315 264.135527 
L 104.361416 272.317506 
L 104.689681 260.380955 
L 105.017947 275.647108 
L 105.346212 265.303455 
L 105.674477 273.878984 
L 106.002743 272.154616 
L 106.331008 264.132494 
L 106.659274 270.990318 
L 106.987539 286.373533 
L 107.315805 270.083115 
L 107.64407 284.654135 
L 107.972336 266.48816 
L 108.300601 273.720899 
L 108.628867 265.844177 
L 108.957132 274.515621 
L 109.285398 262.087763 
L 109.941928 273.15009 
L 110.270194 266.732096 
L 110.598459 284.741451 
L 110.926725 262.19946 
L 111.25499 262.615136 
L 111.583256 287.805875 
L 111.911521 261.671353 
L 112.239787 255.83882 
L 112.568052 273.611531 
L 112.896318 260.60369 
L 113.224583 257.236315 
L 113.552849 268.623501 
L 113.881114 268.529911 
L 114.20938 270.413896 
L 114.537645 260.072716 
L 114.86591 290.226723 
L 115.194176 258.442829 
L 115.850707 276.533102 
L 116.178972 262.476012 
L 116.507238 264.062477 
L 116.835503 262.45939 
L 117.163769 267.886893 
L 117.492034 282.227176 
L 117.8203 254.01919 
L 118.476831 265.279982 
L 118.805096 290.103584 
L 119.133362 260.441248 
L 119.461627 261.273316 
L 119.789892 266.120284 
L 120.118158 276.482103 
L 120.446423 261.510228 
L 120.774689 260.955122 
L 121.43122 257.972349 
L 122.087751 294.327238 
L 122.416016 255.804614 
L 123.072547 265.312806 
L 123.400813 261.394798 
L 123.729078 268.917436 
L 124.057344 288.009592 
L 124.385609 262.337428 
L 124.713874 272.429539 
L 125.04214 274.369845 
L 125.370405 261.953124 
L 125.698671 279.189949 
L 126.026936 276.912863 
L 126.355202 272.841013 
L 126.683467 272.004997 
L 127.011733 266.877511 
L 127.339998 263.972867 
L 127.668264 258.78162 
L 127.996529 270.439515 
L 128.324795 270.412899 
L 128.65306 272.944603 
L 128.981325 285.897141 
L 129.309591 271.402817 
L 129.637856 273.63982 
L 129.966122 264.212902 
L 130.294387 266.517489 
L 130.622653 267.51804 
L 130.950918 275.262282 
L 131.279184 263.888383 
L 131.607449 261.820201 
L 131.935715 271.328827 
L 132.592246 256.533468 
L 132.920511 271.426197 
L 133.248777 276.410246 
L 133.577042 270.267345 
L 133.905307 270.333071 
L 134.233573 260.354051 
L 134.561838 272.641187 
L 134.890104 270.460404 
L 135.218369 264.376147 
L 135.546635 276.703362 
L 135.8749 267.849939 
L 136.203166 269.225637 
L 136.531431 268.312767 
L 136.859697 277.416025 
L 137.187962 263.863378 
L 137.516228 281.492511 
L 137.844493 268.122756 
L 138.172759 269.338416 
L 138.501024 270.119562 
L 138.829289 272.057451 
L 139.157555 263.314598 
L 139.48582 270.445901 
L 139.814086 273.06946 
L 140.142351 270.187383 
L 140.798882 275.358997 
L 141.127148 270.386827 
L 141.455413 273.044362 
L 141.783679 263.299605 
L 142.111944 270.208751 
L 142.44021 266.523985 
L 142.768475 269.932952 
L 143.096741 264.067415 
L 143.425006 267.091456 
L 143.753271 248.698373 
L 144.081537 292.662955 
L 144.409802 264.521717 
L 144.738068 269.243773 
L 145.066333 269.34972 
L 145.394599 271.297002 
L 145.722864 262.905265 
L 146.05113 262.610824 
L 146.379395 276.618947 
L 146.707661 282.824846 
L 147.035926 269.589245 
L 147.364192 278.73781 
L 147.692457 265.067767 
L 148.020722 277.786219 
L 148.348988 257.218697 
L 148.677253 274.123055 
L 149.005519 267.364904 
L 149.333784 264.151012 
L 149.66205 268.762495 
L 149.990315 269.180456 
L 150.318581 292.31102 
L 150.646846 267.273817 
L 150.975112 265.551443 
L 151.303377 271.135941 
L 151.631643 268.153881 
L 152.944704 281.732708 
L 153.27297 268.884861 
L 153.601235 269.824682 
L 153.929501 268.952934 
L 154.257766 265.522646 
L 154.586032 272.70862 
L 154.914297 268.60603 
L 155.242563 276.230587 
L 155.570828 271.48769 
L 155.899094 269.613582 
L 156.227359 282.792824 
L 156.555625 275.019089 
L 156.88389 256.198238 
L 157.212156 277.081021 
L 157.540421 263.120008 
L 157.868686 268.758555 
L 158.196952 266.736732 
L 158.525217 269.022645 
L 158.853483 265.417515 
L 159.181748 270.264808 
L 159.510014 223.935428 
L 159.838279 290.182943 
L 160.166545 267.359599 
L 160.49481 283.017932 
L 160.823076 266.550913 
L 161.151341 273.863521 
L 161.479607 257.773686 
L 161.807872 262.790398 
L 162.136138 289.317184 
L 162.464403 266.320834 
L 162.792668 262.346216 
L 163.120934 275.602834 
L 163.449199 262.586205 
L 163.777465 264.131762 
L 164.10573 276.482504 
L 164.762261 266.31223 
L 165.418792 272.295678 
L 165.747058 279.297209 
L 166.075323 267.230938 
L 166.403589 274.940964 
L 166.731854 261.439733 
L 167.060119 277.91208 
L 167.388385 260.262645 
L 167.71665 267.01208 
L 168.044916 265.245825 
L 168.373181 268.350898 
L 168.701447 269.059321 
L 169.029712 274.798555 
L 169.357978 255.659438 
L 169.686243 279.571472 
L 170.014509 256.864946 
L 170.342774 272.698334 
L 170.67104 260.287282 
L 170.999305 273.888581 
L 171.327571 272.363985 
L 171.655836 263.129069 
L 171.984101 268.98846 
L 172.312367 267.420554 
L 172.640632 269.193826 
L 172.968898 265.991858 
L 173.297163 257.102126 
L 173.625429 272.882303 
L 173.953694 257.036326 
L 174.28196 267.021002 
L 174.610225 262.278753 
L 174.938491 271.713357 
L 175.266756 261.211613 
L 175.595022 264.833072 
L 175.923287 265.221394 
L 176.251553 268.641058 
L 176.579818 265.556398 
L 176.908083 258.351142 
L 177.236349 274.059181 
L 177.89288 240.397688 
L 178.221145 272.383726 
L 178.549411 253.29619 
L 178.877676 244.518896 
L 179.205942 274.270064 
L 179.534207 275.453586 
L 179.862473 264.416641 
L 180.190738 262.909928 
L 180.519004 275.29685 
L 180.847269 264.422934 
L 181.175535 273.041697 
L 181.5038 260.397519 
L 181.832065 255.595641 
L 182.160331 269.037458 
L 182.488596 273.405645 
L 182.816862 270.826211 
L 183.145127 265.480933 
L 183.473393 266.042564 
L 183.801658 270.642537 
L 184.129924 266.986095 
L 184.458189 270.513234 
L 184.786455 264.866323 
L 185.11472 267.028256 
L 185.442986 284.074267 
L 185.771251 261.562234 
L 186.099516 268.613209 
L 186.427782 268.858088 
L 186.756047 261.977344 
L 187.084313 282.511134 
L 187.412578 269.088595 
L 187.740844 269.784626 
L 188.069109 264.789894 
L 188.397375 272.788409 
L 188.72564 254.002127 
L 189.053906 278.741715 
L 189.382171 261.904264 
L 189.710437 266.73061 
L 190.038702 266.713051 
L 190.366968 268.728866 
L 190.695233 275.812899 
L 191.023498 271.643084 
L 191.351764 272.184576 
L 191.680029 266.396302 
L 192.008295 273.462974 
L 192.33656 240.867205 
L 192.664826 283.045012 
L 192.993091 257.611239 
L 193.321357 257.556821 
L 193.649622 276.888927 
L 193.977888 270.891154 
L 194.306153 260.137536 
L 194.634419 272.907031 
L 194.962684 265.406792 
L 195.29095 279.529505 
L 195.619215 259.687027 
L 195.94748 272.327272 
L 196.275746 261.733902 
L 196.604011 268.566105 
L 196.932277 260.514248 
L 197.260542 270.756256 
L 197.588808 260.576871 
L 197.917073 269.895687 
L 198.245339 265.821022 
L 198.573604 277.948579 
L 198.90187 263.677932 
L 199.230135 270.525143 
L 199.558401 263.597037 
L 199.886666 273.31337 
L 200.214932 266.795395 
L 200.871462 280.01351 
L 201.199728 271.833942 
L 201.527993 256.383982 
L 201.856259 269.134568 
L 202.184524 262.531675 
L 202.51279 271.579105 
L 202.841055 256.978124 
L 203.169321 272.010159 
L 203.497586 258.326512 
L 203.825852 271.669813 
L 204.154117 273.202463 
L 204.482383 264.255157 
L 204.810648 271.227583 
L 205.138914 272.483366 
L 205.467179 267.951708 
L 205.795444 269.716648 
L 206.12371 267.432204 
L 206.451975 271.597512 
L 206.780241 266.200845 
L 207.108506 235.672136 
L 207.436772 271.826078 
L 207.765037 267.547491 
L 208.093303 272.96234 
L 208.421568 258.981954 
L 208.749834 270.977826 
L 209.078099 265.896243 
L 209.406365 272.913071 
L 209.73463 262.046876 
L 210.062895 262.131763 
L 210.719426 272.140763 
L 211.047692 263.763661 
L 211.375957 270.175336 
L 211.704223 283.609764 
L 212.032488 266.924653 
L 212.360754 261.364343 
L 213.017285 274.161493 
L 213.34555 267.718105 
L 213.673816 265.23035 
L 214.002081 263.793809 
L 214.658612 268.212474 
L 214.986877 264.99884 
L 215.315143 274.955948 
L 215.643408 265.804883 
L 215.971674 270.464911 
L 216.299939 263.419547 
L 216.628205 270.360201 
L 216.95647 263.971137 
L 217.284736 269.434556 
L 217.613001 262.195182 
L 217.941267 267.007296 
L 218.269532 262.201632 
L 218.597798 272.987261 
L 218.926063 266.620119 
L 219.254329 273.967371 
L 219.582594 267.760516 
L 219.910859 270.175588 
L 220.239125 258.98889 
L 220.56739 280.16564 
L 220.895656 267.040031 
L 221.223921 268.746192 
L 221.552187 268.681776 
L 221.880452 272.765734 
L 222.208718 266.6965 
L 222.536983 252.143673 
L 222.865249 284.0483 
L 223.193514 268.711564 
L 223.52178 268.351582 
L 224.178311 265.787446 
L 224.506576 267.082778 
L 224.834841 270.45522 
L 225.163107 264.731188 
L 225.491372 261.661949 
L 225.819638 273.831585 
L 226.147903 269.319296 
L 226.476169 269.610203 
L 226.804434 268.428828 
L 227.1327 272.980955 
L 227.460965 258.136295 
L 227.789231 268.310351 
L 228.117496 267.905104 
L 228.774027 275.905665 
L 229.102292 278.216981 
L 229.430558 260.8576 
L 229.758823 267.394428 
L 230.087089 257.502017 
L 230.415354 272.299356 
L 230.74362 266.024279 
L 231.071885 272.525789 
L 231.400151 269.195443 
L 231.728416 279.955942 
L 232.056682 266.912988 
L 232.384947 271.743174 
L 232.713213 261.892563 
L 233.041478 271.850131 
L 233.369744 263.342101 
L 233.698009 278.249498 
L 234.026274 265.439343 
L 234.35454 267.318705 
L 234.682805 268.069085 
L 235.011071 266.74357 
L 235.667602 278.507838 
L 235.995867 262.401215 
L 236.324133 274.667855 
L 236.652398 261.813712 
L 236.980664 271.659678 
L 237.308929 258.093914 
L 237.637195 295.488 
L 237.96546 266.938717 
L 238.293726 271.179037 
L 238.621991 288.52132 
L 238.950256 268.154979 
L 239.278522 269.784618 
L 239.606787 265.181412 
L 239.935053 288.364304 
L 240.263318 272.28098 
L 240.919849 262.615778 
L 241.248115 262.350416 
L 241.57638 273.469772 
L 241.904646 246.84243 
L 242.232911 269.412971 
L 242.561177 267.199859 
L 242.889442 272.759267 
L 243.217708 269.932424 
L 243.545973 276.673193 
L 243.874238 267.419135 
L 244.202504 273.430384 
L 244.530769 265.031706 
L 244.859035 268.034842 
L 245.1873 263.201382 
L 245.515566 276.483375 
L 245.843831 265.188808 
L 246.172097 282.463446 
L 246.500362 266.726389 
L 246.828628 273.685977 
L 247.156893 268.323399 
L 247.485159 273.328946 
L 247.813424 263.770463 
L 248.141689 272.597093 
L 248.469955 265.267785 
L 248.79822 272.150694 
L 249.126486 265.574641 
L 249.454751 273.509231 
L 249.783017 266.88019 
L 250.111282 270.080592 
L 250.439548 263.77316 
L 250.767813 272.16866 
L 251.096079 262.441787 
L 251.75261 274.673871 
L 252.080875 266.924216 
L 252.409141 269.096165 
L 252.737406 267.230263 
L 253.065671 267.467944 
L 253.393937 264.436253 
L 253.722202 264.890441 
L 254.050468 271.664938 
L 254.378733 263.476425 
L 254.706999 273.461855 
L 255.035264 268.276797 
L 255.36353 256.544673 
L 255.691795 286.29795 
L 256.020061 281.333953 
L 256.348326 267.571443 
L 256.676592 270.926483 
L 257.004857 264.951852 
L 257.333123 270.206018 
L 257.661388 266.802932 
L 257.989653 276.378403 
L 258.317919 265.600894 
L 258.646184 268.08873 
L 258.97445 263.483561 
L 259.302715 265.569225 
L 259.630981 243.305355 
L 259.959246 263.374161 
L 260.287512 263.995408 
L 260.615777 268.202921 
L 260.944043 266.895713 
L 261.272308 274.267706 
L 261.600574 254.989935 
L 261.928839 268.931831 
L 262.257105 264.400149 
L 262.58537 264.270232 
L 262.913635 262.876118 
L 263.241901 269.057454 
L 263.570166 266.971537 
L 263.898432 261.067367 
L 264.226697 264.008637 
L 264.554963 265.331053 
L 264.883228 257.829234 
L 265.211494 265.277567 
L 265.539759 263.851248 
L 265.868025 258.823802 
L 266.19629 266.640679 
L 266.524556 268.019403 
L 266.852821 268.89301 
L 267.181086 268.549821 
L 267.509352 263.434759 
L 267.837617 269.002774 
L 268.165883 263.705264 
L 268.494148 267.656098 
L 268.822414 263.043471 
L 269.150679 289.218411 
L 269.478945 266.873172 
L 269.80721 262.296589 
L 270.135476 262.455908 
L 270.463741 267.010787 
L 270.792007 257.797033 
L 271.120272 269.244399 
L 272.105068 264.051803 
L 272.433334 271.118135 
L 272.761599 264.978047 
L 273.089865 275.958235 
L 273.41813 264.053545 
L 273.746396 260.7478 
L 274.074661 273.57176 
L 274.402927 269.613072 
L 274.731192 274.26918 
L 275.059458 268.476195 
L 275.387723 244.922619 
L 275.715989 270.791038 
L 276.044254 264.137441 
L 276.37252 276.88346 
L 276.700785 262.793386 
L 277.02905 269.668277 
L 277.357316 256.743908 
L 277.685581 271.38237 
L 278.013847 270.697928 
L 278.670378 263.237781 
L 278.998643 266.147509 
L 279.326909 260.555956 
L 279.655174 271.318072 
L 279.98344 267.617079 
L 280.311705 286.608979 
L 280.639971 258.892056 
L 280.968236 261.182831 
L 281.296502 258.476547 
L 281.624767 271.726413 
L 281.953032 261.784072 
L 282.281298 271.277325 
L 282.609563 262.505276 
L 282.937829 265.873474 
L 283.266094 263.486665 
L 283.59436 269.954372 
L 283.922625 266.05624 
L 284.250891 273.829125 
L 284.579156 267.948602 
L 284.907422 268.99094 
L 285.235687 267.883587 
L 285.563953 270.245809 
L 285.892218 260.99528 
L 286.220484 271.098642 
L 286.548749 266.156259 
L 286.877014 271.594934 
L 287.20528 267.474672 
L 287.533545 271.539982 
L 287.861811 272.329679 
L 288.190076 272.182405 
L 288.518342 263.984097 
L 288.846607 284.03798 
L 289.174873 273.018459 
L 289.503138 266.481394 
L 289.831404 265.090106 
L 290.159669 269.30463 
L 290.487935 261.607985 
L 290.8162 272.598674 
L 291.144465 271.850257 
L 291.472731 271.481534 
L 291.800996 266.509081 
L 292.129262 268.876877 
L 292.457527 256.602291 
L 292.785793 280.492688 
L 293.114058 261.751605 
L 293.442324 268.668894 
L 293.770589 264.415247 
L 294.098855 245.16458 
L 294.42712 265.076511 
L 294.755386 270.897646 
L 295.083651 267.998801 
L 295.411917 271.925122 
L 295.740182 264.593419 
L 296.068447 270.535976 
L 296.396713 264.872229 
L 296.724978 271.243728 
L 297.053244 267.65683 
L 297.381509 271.88269 
L 297.709775 259.592549 
L 298.03804 269.115936 
L 298.366306 263.839792 
L 298.694571 266.222661 
L 299.022837 266.517926 
L 299.351102 262.762088 
L 300.007633 269.521665 
L 300.335899 263.161707 
L 300.664164 269.328151 
L 300.992429 243.179184 
L 301.320695 275.650356 
L 301.64896 269.687825 
L 301.977226 266.468576 
L 302.305491 267.662839 
L 302.633757 268.136314 
L 302.962022 281.211473 
L 303.618553 263.541526 
L 303.946819 261.89007 
L 304.275084 263.970959 
L 304.60335 261.063533 
L 304.931615 268.463076 
L 305.259881 267.412413 
L 305.588146 268.067452 
L 305.916411 270.898646 
L 306.244677 254.534958 
L 306.572942 269.036951 
L 306.901208 256.438083 
L 307.229473 272.476528 
L 307.557739 264.373687 
L 307.886004 274.990299 
L 308.21427 259.541323 
L 308.542535 264.125137 
L 308.870801 259.555297 
L 309.199066 260.099272 
L 309.527332 283.82325 
L 309.855597 268.783221 
L 310.183862 262.547388 
L 310.512128 270.15252 
L 310.840393 253.283475 
L 311.168659 272.776577 
L 311.496924 262.454842 
L 311.82519 266.94512 
L 312.153455 283.232123 
L 312.809986 257.815165 
L 313.138252 263.799458 
L 313.466517 261.127425 
L 313.794783 271.011129 
L 314.123048 252.498448 
L 314.451314 268.369212 
L 314.779579 267.776712 
L 315.107844 268.49389 
L 315.43611 265.991688 
L 315.764375 258.637747 
L 316.092641 257.14949 
L 316.420906 272.541032 
L 316.749172 264.088655 
L 317.077437 272.77342 
L 317.405703 253.880479 
L 317.733968 270.503305 
L 318.062234 264.771558 
L 318.390499 267.995074 
L 318.718765 268.15387 
L 319.04703 274.858109 
L 319.375296 262.924592 
L 319.703561 271.809242 
L 320.031826 261.214039 
L 320.360092 270.337989 
L 320.688357 263.637818 
L 321.016623 264.888038 
L 321.344888 261.348867 
L 321.673154 268.26199 
L 322.001419 266.549275 
L 322.329685 269.636337 
L 322.65795 264.532171 
L 322.986216 266.588822 
L 323.314481 267.212348 
L 323.642747 291.698845 
L 323.971012 262.270883 
L 324.299278 270.244246 
L 324.627543 262.766555 
L 324.955808 270.140492 
L 325.284074 265.901758 
L 325.612339 266.497957 
L 325.940605 264.768341 
L 326.26887 273.236868 
L 326.597136 267.703154 
L 326.925401 259.546464 
L 327.581932 268.539033 
L 327.910198 261.18429 
L 328.238463 266.820199 
L 328.566729 264.204919 
L 328.894994 267.711111 
L 329.223259 274.412014 
L 329.87979 265.603268 
L 330.208056 269.926955 
L 330.536321 269.665548 
L 330.864587 253.941129 
L 331.192852 263.831098 
L 331.521118 255.14306 
L 331.849383 261.45762 
L 332.177649 276.756549 
L 332.505914 262.307998 
L 332.83418 271.591768 
L 333.162445 263.504791 
L 333.490711 270.652993 
L 333.818976 258.819337 
L 334.147241 263.933714 
L 334.475507 275.732353 
L 334.803772 264.953387 
L 335.132038 265.322622 
L 335.460303 265.399754 
L 335.788569 263.573854 
L 336.116834 268.915173 
L 336.4451 261.239568 
L 336.773365 268.303448 
L 337.101631 281.036808 
L 337.758162 261.666996 
L 338.086427 270.64245 
L 338.414693 265.084385 
L 338.742958 271.498323 
L 339.071223 267.08101 
L 339.399489 285.257598 
L 339.727754 266.647761 
L 340.05602 269.392902 
L 340.384285 267.707835 
L 340.712551 262.243272 
L 341.040816 261.047824 
L 341.369082 269.036447 
L 341.697347 266.212361 
L 342.025613 261.415086 
L 342.353878 259.844986 
L 342.682144 268.224135 
L 343.010409 268.173672 
L 343.338675 272.265485 
L 343.66694 263.804091 
L 343.995205 270.983135 
L 344.323471 265.31779 
L 344.651736 270.478945 
L 344.980002 266.728157 
L 345.308267 265.880755 
L 345.636533 264.096684 
L 345.964798 268.659449 
L 346.293064 271.18637 
L 346.621329 270.56818 
L 346.949595 265.83873 
L 347.27786 270.62737 
L 347.606126 265.982847 
L 347.934391 278.502667 
L 348.262656 260.56156 
L 348.590922 272.083246 
L 348.919187 265.791 
L 349.247453 272.173544 
L 349.575718 265.173644 
L 349.903984 272.486459 
L 350.232249 265.913214 
L 350.560515 272.152128 
L 351.217046 264.27959 
L 351.545311 272.54283 
L 351.873577 268.277341 
L 352.201842 265.60232 
L 352.530108 269.198039 
L 352.858373 265.852093 
L 353.186638 269.172602 
L 353.514904 265.36367 
L 353.843169 264.087173 
L 354.171435 259.194148 
L 354.4997 290.779593 
L 354.827966 260.641199 
L 355.156231 269.605348 
L 355.484497 260.304993 
L 355.812762 265.143631 
L 356.141028 261.062848 
L 356.469293 269.486309 
L 356.797559 261.174581 
L 357.125824 272.446672 
L 357.45409 262.432768 
L 357.782355 269.018063 
L 358.11062 269.553177 
L 358.438886 271.892766 
L 358.767151 262.449299 
L 359.095417 266.042795 
L 359.423682 261.879842 
L 359.751948 266.078697 
L 360.080213 264.527682 
L 360.408479 280.430547 
L 360.736744 274.053651 
L 361.06501 259.173234 
L 361.393275 263.703701 
L 361.721541 264.906868 
L 362.049806 262.605894 
L 362.378072 266.768875 
L 362.706337 267.391831 
L 363.034602 271.347451 
L 363.362868 266.853568 
L 363.691133 272.514566 
L 364.019399 263.761438 
L 364.347664 268.865802 
L 364.67593 270.066719 
L 365.004195 250.548678 
L 365.332461 267.032093 
L 365.660726 269.799472 
L 365.988992 266.288276 
L 366.317257 255.955573 
L 366.645523 268.684895 
L 366.973788 270.879621 
L 367.630319 269.694374 
L 367.958584 260.470527 
L 368.28685 270.734396 
L 368.615115 264.88335 
L 368.943381 270.220537 
L 369.271646 257.218722 
L 369.599912 266.845458 
L 369.928177 261.470521 
L 370.256443 271.752264 
L 370.584708 257.735468 
L 370.912974 271.022432 
L 371.241239 265.496482 
L 371.569505 288.828721 
L 372.226035 270.022409 
L 372.554301 263.941806 
L 372.882566 265.979617 
L 373.210832 261.454634 
L 373.539097 269.759762 
L 374.195628 253.285911 
L 374.523894 258.687915 
L 374.852159 269.346074 
L 375.180425 261.952537 
L 375.50869 273.840791 
L 375.836956 265.297941 
L 376.165221 271.470031 
L 376.493487 258.603343 
L 376.821752 269.876715 
L 377.150017 258.752078 
L 377.478283 267.753147 
L 377.806548 259.883538 
L 378.134814 268.683382 
L 378.463079 259.56435 
L 378.791345 269.407011 
L 379.11961 270.460713 
L 379.447876 264.38889 
L 379.776141 260.922603 
L 380.104407 270.928153 
L 380.432672 263.9411 
L 380.760938 270.760059 
L 381.089203 259.725482 
L 381.417469 269.672277 
L 381.745734 262.671833 
L 382.073999 270.403522 
L 382.402265 261.42682 
L 382.73053 272.64128 
L 383.058796 264.652305 
L 383.387061 250.030814 
L 383.715327 263.295469 
L 384.043592 268.497999 
L 384.371858 267.095484 
L 384.700123 263.246124 
L 385.028389 265.494003 
L 385.356654 269.726513 
L 385.68492 264.650129 
L 386.013185 261.832905 
L 386.341451 260.660868 
L 386.669716 269.206255 
L 386.997981 260.089357 
L 387.326247 264.601749 
L 387.654512 258.670624 
L 387.982778 271.933585 
L 388.311043 261.79937 
L 388.639309 275.67946 
L 388.967574 269.04231 
L 389.29584 271.480858 
L 389.624105 261.220746 
L 389.952371 270.932383 
L 390.280636 259.562409 
L 390.608902 274.499316 
L 390.937167 262.970196 
L 391.265432 272.341204 
L 391.593698 262.680659 
L 391.921963 268.907652 
L 392.250229 254.143484 
L 392.578494 267.566357 
L 392.90676 260.195392 
L 393.235025 268.320983 
L 393.563291 258.245251 
L 393.891556 270.51645 
L 394.219822 265.051428 
L 394.548087 276.281776 
L 394.876353 264.445426 
L 395.204618 272.554996 
L 395.532884 262.944904 
L 395.861149 266.917372 
L 396.189414 264.682728 
L 396.51768 279.784519 
L 396.845945 265.843015 
L 397.174211 267.499872 
L 397.502476 265.773672 
L 397.830742 268.218959 
L 398.159007 260.8502 
L 398.487273 267.999617 
L 398.487273 267.999617 
" style="fill:none;stroke:#ff7f0e;stroke-linecap:square;stroke-width:1.5;"/>
   </g>
   <g id="patch_3">
    <path d="M 57.6 307.584 
L 57.6 41.472 
" style="fill:none;stroke:#000000;stroke-linecap:square;stroke-linejoin:miter;stroke-width:0.8;"/>
   </g>
   <g id="patch_4">
    <path d="M 414.72 307.584 
L 414.72 41.472 
" style="fill:none;stroke:#000000;stroke-linecap:square;stroke-linejoin:miter;stroke-width:0.8;"/>
   </g>
   <g id="patch_5">
    <path d="M 57.6 307.584 
L 414.72 307.584 
" style="fill:none;stroke:#000000;stroke-linecap:square;stroke-linejoin:miter;stroke-width:0.8;"/>
   </g>
   <g id="patch_6">
    <path d="M 57.6 41.472 
L 414.72 41.472 
" style="fill:none;stroke:#000000;stroke-linecap:square;stroke-linejoin:miter;stroke-width:0.8;"/>
   </g>
   <g id="text_17">
    <!-- KAMA Speedup -->
    <defs>
     <path d="M 9.8125 72.90625 
L 19.671875 72.90625 
L 19.671875 42.09375 
L 52.390625 72.90625 
L 65.09375 72.90625 
L 28.90625 38.921875 
L 67.671875 0 
L 54.6875 0 
L 19.671875 35.109375 
L 19.671875 0 
L 9.8125 0 
z
" id="DejaVuSans-75"/>
     <path d="M 34.1875 63.1875 
L 20.796875 26.90625 
L 47.609375 26.90625 
z
M 28.609375 72.90625 
L 39.796875 72.90625 
L 67.578125 0 
L 57.328125 0 
L 50.6875 18.703125 
L 17.828125 18.703125 
L 11.1875 0 
L 0.78125 0 
z
" id="DejaVuSans-65"/>
     <path d="M 9.8125 72.90625 
L 24.515625 72.90625 
L 43.109375 23.296875 
L 61.8125 72.90625 
L 76.515625 72.90625 
L 76.515625 0 
L 66.890625 0 
L 66.890625 64.015625 
L 48.09375 14.015625 
L 38.1875 14.015625 
L 19.390625 64.015625 
L 19.390625 0 
L 9.8125 0 
z
" id="DejaVuSans-77"/>
     <path id="DejaVuSans-32"/>
     <path d="M 53.515625 70.515625 
L 53.515625 60.890625 
Q 47.90625 63.578125 42.921875 64.890625 
Q 37.9375 66.21875 33.296875 66.21875 
Q 25.25 66.21875 20.875 63.09375 
Q 16.5 59.96875 16.5 54.203125 
Q 16.5 49.359375 19.40625 46.890625 
Q 22.3125 44.4375 30.421875 42.921875 
L 36.375 41.703125 
Q 47.40625 39.59375 52.65625 34.296875 
Q 57.90625 29 57.90625 20.125 
Q 57.90625 9.515625 50.796875 4.046875 
Q 43.703125 -1.421875 29.984375 -1.421875 
Q 24.8125 -1.421875 18.96875 -0.25 
Q 13.140625 0.921875 6.890625 3.21875 
L 6.890625 13.375 
Q 12.890625 10.015625 18.65625 8.296875 
Q 24.421875 6.59375 29.984375 6.59375 
Q 38.421875 6.59375 43.015625 9.90625 
Q 47.609375 13.234375 47.609375 19.390625 
Q 47.609375 24.75 44.3125 27.78125 
Q 41.015625 30.8125 33.5 32.328125 
L 27.484375 33.5 
Q 16.453125 35.6875 11.515625 40.375 
Q 6.59375 45.0625 6.59375 53.421875 
Q 6.59375 63.09375 13.40625 68.65625 
Q 20.21875 74.21875 32.171875 74.21875 
Q 37.3125 74.21875 42.625 73.28125 
Q 47.953125 72.359375 53.515625 70.515625 
z
" id="DejaVuSans-83"/>
    </defs>
    <g transform="translate(190.615313 35.472)scale(0.12 -0.12)">
     <use xlink:href="#DejaVuSans-75"/>
     <use x="63.826172" xlink:href="#DejaVuSans-65"/>
     <use x="132.234375" xlink:href="#DejaVuSans-77"/>
     <use x="218.513672" xlink:href="#DejaVuSans-65"/>
     <use x="286.921875" xlink:href="#DejaVuSans-32"/>
     <use x="318.708984" xlink:href="#DejaVuSans-83"/>
     <use x="382.185547" xlink:href="#DejaVuSans-112"/>
     <use x="445.662109" xlink:href="#DejaVuSans-101"/>
     <use x="507.185547" xlink:href="#DejaVuSans-101"/>
     <use x="568.708984" xlink:href="#DejaVuSans-100"/>
     <use x="632.185547" xlink:href="#DejaVuSans-117"/>
     <use x="695.564453" xlink:href="#DejaVuSans-112"/>
    </g>
   </g>
   <g id="legend_1">
    <g id="patch_7">
     <path d="M 304.093437 78.82825 
L 407.72 78.82825 
Q 409.72 78.82825 409.72 76.82825 
L 409.72 48.472 
Q 409.72 46.472 407.72 46.472 
L 304.093437 46.472 
Q 302.093437 46.472 302.093437 48.472 
L 302.093437 76.82825 
Q 302.093437 78.82825 304.093437 78.82825 
z
" style="fill:#ffffff;opacity:0.8;stroke:#cccccc;stroke-linejoin:miter;"/>
    </g>
    <g id="line2d_17">
     <path d="M 306.093437 54.570437 
L 326.093437 54.570437 
" style="fill:none;stroke:#1f77b4;stroke-linecap:square;stroke-width:1.5;"/>
    </g>
    <g id="line2d_18"/>
    <g id="text_18">
     <!-- numpy.float32 -->
     <defs>
      <path d="M 52 44.1875 
Q 55.375 50.25 60.0625 53.125 
Q 64.75 56 71.09375 56 
Q 79.640625 56 84.28125 50.015625 
Q 88.921875 44.046875 88.921875 33.015625 
L 88.921875 0 
L 79.890625 0 
L 79.890625 32.71875 
Q 79.890625 40.578125 77.09375 44.375 
Q 74.3125 48.1875 68.609375 48.1875 
Q 61.625 48.1875 57.5625 43.546875 
Q 53.515625 38.921875 53.515625 30.90625 
L 53.515625 0 
L 44.484375 0 
L 44.484375 32.71875 
Q 44.484375 40.625 41.703125 44.40625 
Q 38.921875 48.1875 33.109375 48.1875 
Q 26.21875 48.1875 22.15625 43.53125 
Q 18.109375 38.875 18.109375 30.90625 
L 18.109375 0 
L 9.078125 0 
L 9.078125 54.6875 
L 18.109375 54.6875 
L 18.109375 46.1875 
Q 21.1875 51.21875 25.484375 53.609375 
Q 29.78125 56 35.6875 56 
Q 41.65625 56 45.828125 52.96875 
Q 50 49.953125 52 44.1875 
z
" id="DejaVuSans-109"/>
      <path d="M 32.171875 -5.078125 
Q 28.375 -14.84375 24.75 -17.8125 
Q 21.140625 -20.796875 15.09375 -20.796875 
L 7.90625 -20.796875 
L 7.90625 -13.28125 
L 13.1875 -13.28125 
Q 16.890625 -13.28125 18.9375 -11.515625 
Q 21 -9.765625 23.484375 -3.21875 
L 25.09375 0.875 
L 2.984375 54.6875 
L 12.5 54.6875 
L 29.59375 11.921875 
L 46.6875 54.6875 
L 56.203125 54.6875 
z
" id="DejaVuSans-121"/>
      <path d="M 37.109375 75.984375 
L 37.109375 68.5 
L 28.515625 68.5 
Q 23.6875 68.5 21.796875 66.546875 
Q 19.921875 64.59375 19.921875 59.515625 
L 19.921875 54.6875 
L 34.71875 54.6875 
L 34.71875 47.703125 
L 19.921875 47.703125 
L 19.921875 0 
L 10.890625 0 
L 10.890625 47.703125 
L 2.296875 47.703125 
L 2.296875 54.6875 
L 10.890625 54.6875 
L 10.890625 58.5 
Q 10.890625 67.625 15.140625 71.796875 
Q 19.390625 75.984375 28.609375 75.984375 
z
" id="DejaVuSans-102"/>
      <path d="M 9.421875 75.984375 
L 18.40625 75.984375 
L 18.40625 0 
L 9.421875 0 
z
" id="DejaVuSans-108"/>
      <path d="M 30.609375 48.390625 
Q 23.390625 48.390625 19.1875 42.75 
Q 14.984375 37.109375 14.984375 27.296875 
Q 14.984375 17.484375 19.15625 11.84375 
Q 23.34375 6.203125 30.609375 6.203125 
Q 37.796875 6.203125 41.984375 11.859375 
Q 46.1875 17.53125 46.1875 27.296875 
Q 46.1875 37.015625 41.984375 42.703125 
Q 37.796875 48.390625 30.609375 48.390625 
z
M 30.609375 56 
Q 42.328125 56 49.015625 48.375 
Q 55.71875 40.765625 55.71875 27.296875 
Q 55.71875 13.875 49.015625 6.21875 
Q 42.328125 -1.421875 30.609375 -1.421875 
Q 18.84375 -1.421875 12.171875 6.21875 
Q 5.515625 13.875 5.515625 27.296875 
Q 5.515625 40.765625 12.171875 48.375 
Q 18.84375 56 30.609375 56 
z
" id="DejaVuSans-111"/>
      <path d="M 34.28125 27.484375 
Q 23.390625 27.484375 19.1875 25 
Q 14.984375 22.515625 14.984375 16.5 
Q 14.984375 11.71875 18.140625 8.90625 
Q 21.296875 6.109375 26.703125 6.109375 
Q 34.1875 6.109375 38.703125 11.40625 
Q 43.21875 16.703125 43.21875 25.484375 
L 43.21875 27.484375 
z
M 52.203125 31.203125 
L 52.203125 0 
L 43.21875 0 
L 43.21875 8.296875 
Q 40.140625 3.328125 35.546875 0.953125 
Q 30.953125 -1.421875 24.3125 -1.421875 
Q 15.921875 -1.421875 10.953125 3.296875 
Q 6 8.015625 6 15.921875 
Q 6 25.140625 12.171875 29.828125 
Q 18.359375 34.515625 30.609375 34.515625 
L 43.21875 34.515625 
L 43.21875 35.40625 
Q 43.21875 41.609375 39.140625 45 
Q 35.0625 48.390625 27.6875 48.390625 
Q 23 48.390625 18.546875 47.265625 
Q 14.109375 46.140625 10.015625 43.890625 
L 10.015625 52.203125 
Q 14.9375 54.109375 19.578125 55.046875 
Q 24.21875 56 28.609375 56 
Q 40.484375 56 46.34375 49.84375 
Q 52.203125 43.703125 52.203125 31.203125 
z
" id="DejaVuSans-97"/>
      <path d="M 18.3125 70.21875 
L 18.3125 54.6875 
L 36.8125 54.6875 
L 36.8125 47.703125 
L 18.3125 47.703125 
L 18.3125 18.015625 
Q 18.3125 11.328125 20.140625 9.421875 
Q 21.96875 7.515625 27.59375 7.515625 
L 36.8125 7.515625 
L 36.8125 0 
L 27.59375 0 
Q 17.1875 0 13.234375 3.875 
Q 9.28125 7.765625 9.28125 18.015625 
L 9.28125 47.703125 
L 2.6875 47.703125 
L 2.6875 54.6875 
L 9.28125 54.6875 
L 9.28125 70.21875 
z
" id="DejaVuSans-116"/>
     </defs>
     <g transform="translate(334.093437 58.070437)scale(0.1 -0.1)">
      <use xlink:href="#DejaVuSans-110"/>
      <use x="63.378906" xlink:href="#DejaVuSans-117"/>
      <use x="126.757812" xlink:href="#DejaVuSans-109"/>
      <use x="224.169922" xlink:href="#DejaVuSans-112"/>
      <use x="287.646484" xlink:href="#DejaVuSans-121"/>
      <use x="332.576172" xlink:href="#DejaVuSans-46"/>
      <use x="364.363281" xlink:href="#DejaVuSans-102"/>
      <use x="399.568359" xlink:href="#DejaVuSans-108"/>
      <use x="427.351562" xlink:href="#DejaVuSans-111"/>
      <use x="488.533203" xlink:href="#DejaVuSans-97"/>
      <use x="549.8125" xlink:href="#DejaVuSans-116"/>
      <use x="589.021484" xlink:href="#DejaVuSans-51"/>
      <use x="652.644531" xlink:href="#DejaVuSans-50"/>
     </g>
    </g>
    <g id="line2d_19">
     <path d="M 306.093437 69.248562 
L 326.093437 69.248562 
" style="fill:none;stroke:#ff7f0e;stroke-linecap:square;stroke-width:1.5;"/>
    </g>
    <g id="line2d_20"/>
    <g id="text_19">
     <!-- numpy.float64 -->
     <g transform="translate(334.093437 72.748562)scale(0.1 -0.1)">
      <use xlink:href="#DejaVuSans-110"/>
      <use x="63.378906" xlink:href="#DejaVuSans-117"/>
      <use x="126.757812" xlink:href="#DejaVuSans-109"/>
      <use x="224.169922" xlink:href="#DejaVuSans-112"/>
      <use x="287.646484" xlink:href="#DejaVuSans-121"/>
      <use x="332.576172" xlink:href="#DejaVuSans-46"/>
      <use x="364.363281" xlink:href="#DejaVuSans-102"/>
      <use x="399.568359" xlink:href="#DejaVuSans-108"/>
      <use x="427.351562" xlink:href="#DejaVuSans-111"/>
      <use x="488.533203" xlink:href="#DejaVuSans-97"/>
      <use x="549.8125" xlink:href="#DejaVuSans-116"/>
      <use x="589.021484" xlink:href="#DejaVuSans-54"/>
      <use x="652.644531" xlink:href="#DejaVuSans-52"/>
     </g>
    </g>
   </g>
  </g>
 </g>
 <defs>
  <clipPath id="p90ed88e9e9">
   <rect height="266.112" width="357.12" x="57.6" y="41.472"/>
  </clipPath>
 </defs>
</svg>
