<?xml version="1.0" encoding="utf-8" standalone="no"?>
<!DOCTYPE svg PUBLIC "-//W3C//DTD SVG 1.1//EN"
  "http://www.w3.org/Graphics/SVG/1.1/DTD/svg11.dtd">
<!-- Created with matplotlib (https://matplotlib.org/) -->
<svg height="720pt" version="1.1" viewBox="0 0 1440 720" width="1440pt" xmlns="http://www.w3.org/2000/svg" xmlns:xlink="http://www.w3.org/1999/xlink">
 <defs>
  <style type="text/css">
*{stroke-linecap:butt;stroke-linejoin:round;}
  </style>
 </defs>
 <g id="figure_1">
  <g id="patch_1">
   <path d="M 0 720 
L 1440 720 
L 1440 0 
L 0 0 
z
" style="fill:#ffffff;"/>
  </g>
  <g id="axes_1">
   <g id="patch_2">
    <path d="M 180 640.8 
L 1296 640.8 
L 1296 86.4 
L 180 86.4 
z
" style="fill:#ffffff;"/>
   </g>
   <g id="matplotlib.axis_1">
    <g id="xtick_1">
     <g id="line2d_1">
      <defs>
       <path d="M 0 0 
L 0 3.5 
" id="mfb0ea2a978" style="stroke:#000000;stroke-width:0.8;"/>
      </defs>
      <g>
       <use style="stroke:#000000;stroke-width:0.8;" x="333.310231" xlink:href="#mfb0ea2a978" y="640.8"/>
      </g>
     </g>
     <g id="text_1">
      <!-- 100.0 -->
      <defs>
       <path d="M 12.40625 8.296875 
L 28.515625 8.296875 
L 28.515625 63.921875 
L 10.984375 60.40625 
L 10.984375 69.390625 
L 28.421875 72.90625 
L 38.28125 72.90625 
L 38.28125 8.296875 
L 54.390625 8.296875 
L 54.390625 0 
L 12.40625 0 
z
" id="DejaVuSans-49"/>
       <path d="M 31.78125 66.40625 
Q 24.171875 66.40625 20.328125 58.90625 
Q 16.5 51.421875 16.5 36.375 
Q 16.5 21.390625 20.328125 13.890625 
Q 24.171875 6.390625 31.78125 6.390625 
Q 39.453125 6.390625 43.28125 13.890625 
Q 47.125 21.390625 47.125 36.375 
Q 47.125 51.421875 43.28125 58.90625 
Q 39.453125 66.40625 31.78125 66.40625 
z
M 31.78125 74.21875 
Q 44.046875 74.21875 50.515625 64.515625 
Q 56.984375 54.828125 56.984375 36.375 
Q 56.984375 17.96875 50.515625 8.265625 
Q 44.046875 -1.421875 31.78125 -1.421875 
Q 19.53125 -1.421875 13.0625 8.265625 
Q 6.59375 17.96875 6.59375 36.375 
Q 6.59375 54.828125 13.0625 64.515625 
Q 19.53125 74.21875 31.78125 74.21875 
z
" id="DejaVuSans-48"/>
       <path d="M 10.6875 12.40625 
L 21 12.40625 
L 21 0 
L 10.6875 0 
z
" id="DejaVuSans-46"/>
      </defs>
      <g transform="translate(318.996168 655.398438)scale(0.1 -0.1)">
       <use xlink:href="#DejaVuSans-49"/>
       <use x="63.623047" xlink:href="#DejaVuSans-48"/>
       <use x="127.246094" xlink:href="#DejaVuSans-48"/>
       <use x="190.869141" xlink:href="#DejaVuSans-46"/>
       <use x="222.65625" xlink:href="#DejaVuSans-48"/>
      </g>
     </g>
    </g>
    <g id="xtick_2">
     <g id="line2d_2">
      <g>
       <use style="stroke:#000000;stroke-width:0.8;" x="435.893189" xlink:href="#mfb0ea2a978" y="640.8"/>
      </g>
     </g>
     <g id="text_2">
      <!-- 200.0 -->
      <defs>
       <path d="M 19.1875 8.296875 
L 53.609375 8.296875 
L 53.609375 0 
L 7.328125 0 
L 7.328125 8.296875 
Q 12.9375 14.109375 22.625 23.890625 
Q 32.328125 33.6875 34.8125 36.53125 
Q 39.546875 41.84375 41.421875 45.53125 
Q 43.3125 49.21875 43.3125 52.78125 
Q 43.3125 58.59375 39.234375 62.25 
Q 35.15625 65.921875 28.609375 65.921875 
Q 23.96875 65.921875 18.8125 64.3125 
Q 13.671875 62.703125 7.8125 59.421875 
L 7.8125 69.390625 
Q 13.765625 71.78125 18.9375 73 
Q 24.125 74.21875 28.421875 74.21875 
Q 39.75 74.21875 46.484375 68.546875 
Q 53.21875 62.890625 53.21875 53.421875 
Q 53.21875 48.921875 51.53125 44.890625 
Q 49.859375 40.875 45.40625 35.40625 
Q 44.1875 33.984375 37.640625 27.21875 
Q 31.109375 20.453125 19.1875 8.296875 
z
" id="DejaVuSans-50"/>
      </defs>
      <g transform="translate(421.579126 655.398438)scale(0.1 -0.1)">
       <use xlink:href="#DejaVuSans-50"/>
       <use x="63.623047" xlink:href="#DejaVuSans-48"/>
       <use x="127.246094" xlink:href="#DejaVuSans-48"/>
       <use x="190.869141" xlink:href="#DejaVuSans-46"/>
       <use x="222.65625" xlink:href="#DejaVuSans-48"/>
      </g>
     </g>
    </g>
    <g id="xtick_3">
     <g id="line2d_3">
      <g>
       <use style="stroke:#000000;stroke-width:0.8;" x="538.476147" xlink:href="#mfb0ea2a978" y="640.8"/>
      </g>
     </g>
     <g id="text_3">
      <!-- 300.0 -->
      <defs>
       <path d="M 40.578125 39.3125 
Q 47.65625 37.796875 51.625 33 
Q 55.609375 28.21875 55.609375 21.1875 
Q 55.609375 10.40625 48.1875 4.484375 
Q 40.765625 -1.421875 27.09375 -1.421875 
Q 22.515625 -1.421875 17.65625 -0.515625 
Q 12.796875 0.390625 7.625 2.203125 
L 7.625 11.71875 
Q 11.71875 9.328125 16.59375 8.109375 
Q 21.484375 6.890625 26.8125 6.890625 
Q 36.078125 6.890625 40.9375 10.546875 
Q 45.796875 14.203125 45.796875 21.1875 
Q 45.796875 27.640625 41.28125 31.265625 
Q 36.765625 34.90625 28.71875 34.90625 
L 20.21875 34.90625 
L 20.21875 43.015625 
L 29.109375 43.015625 
Q 36.375 43.015625 40.234375 45.921875 
Q 44.09375 48.828125 44.09375 54.296875 
Q 44.09375 59.90625 40.109375 62.90625 
Q 36.140625 65.921875 28.71875 65.921875 
Q 24.65625 65.921875 20.015625 65.03125 
Q 15.375 64.15625 9.8125 62.3125 
L 9.8125 71.09375 
Q 15.4375 72.65625 20.34375 73.4375 
Q 25.25 74.21875 29.59375 74.21875 
Q 40.828125 74.21875 47.359375 69.109375 
Q 53.90625 64.015625 53.90625 55.328125 
Q 53.90625 49.265625 50.4375 45.09375 
Q 46.96875 40.921875 40.578125 39.3125 
z
" id="DejaVuSans-51"/>
      </defs>
      <g transform="translate(524.162084 655.398438)scale(0.1 -0.1)">
       <use xlink:href="#DejaVuSans-51"/>
       <use x="63.623047" xlink:href="#DejaVuSans-48"/>
       <use x="127.246094" xlink:href="#DejaVuSans-48"/>
       <use x="190.869141" xlink:href="#DejaVuSans-46"/>
       <use x="222.65625" xlink:href="#DejaVuSans-48"/>
      </g>
     </g>
    </g>
    <g id="xtick_4">
     <g id="line2d_4">
      <g>
       <use style="stroke:#000000;stroke-width:0.8;" x="641.059105" xlink:href="#mfb0ea2a978" y="640.8"/>
      </g>
     </g>
     <g id="text_4">
      <!-- 400.0 -->
      <defs>
       <path d="M 37.796875 64.3125 
L 12.890625 25.390625 
L 37.796875 25.390625 
z
M 35.203125 72.90625 
L 47.609375 72.90625 
L 47.609375 25.390625 
L 58.015625 25.390625 
L 58.015625 17.1875 
L 47.609375 17.1875 
L 47.609375 0 
L 37.796875 0 
L 37.796875 17.1875 
L 4.890625 17.1875 
L 4.890625 26.703125 
z
" id="DejaVuSans-52"/>
      </defs>
      <g transform="translate(626.745042 655.398438)scale(0.1 -0.1)">
       <use xlink:href="#DejaVuSans-52"/>
       <use x="63.623047" xlink:href="#DejaVuSans-48"/>
       <use x="127.246094" xlink:href="#DejaVuSans-48"/>
       <use x="190.869141" xlink:href="#DejaVuSans-46"/>
       <use x="222.65625" xlink:href="#DejaVuSans-48"/>
      </g>
     </g>
    </g>
    <g id="xtick_5">
     <g id="line2d_5">
      <g>
       <use style="stroke:#000000;stroke-width:0.8;" x="743.642063" xlink:href="#mfb0ea2a978" y="640.8"/>
      </g>
     </g>
     <g id="text_5">
      <!-- 500.0 -->
      <defs>
       <path d="M 10.796875 72.90625 
L 49.515625 72.90625 
L 49.515625 64.59375 
L 19.828125 64.59375 
L 19.828125 46.734375 
Q 21.96875 47.46875 24.109375 47.828125 
Q 26.265625 48.1875 28.421875 48.1875 
Q 40.625 48.1875 47.75 41.5 
Q 54.890625 34.8125 54.890625 23.390625 
Q 54.890625 11.625 47.5625 5.09375 
Q 40.234375 -1.421875 26.90625 -1.421875 
Q 22.3125 -1.421875 17.546875 -0.640625 
Q 12.796875 0.140625 7.71875 1.703125 
L 7.71875 11.625 
Q 12.109375 9.234375 16.796875 8.0625 
Q 21.484375 6.890625 26.703125 6.890625 
Q 35.15625 6.890625 40.078125 11.328125 
Q 45.015625 15.765625 45.015625 23.390625 
Q 45.015625 31 40.078125 35.4375 
Q 35.15625 39.890625 26.703125 39.890625 
Q 22.75 39.890625 18.8125 39.015625 
Q 14.890625 38.140625 10.796875 36.28125 
z
" id="DejaVuSans-53"/>
      </defs>
      <g transform="translate(729.328 655.398438)scale(0.1 -0.1)">
       <use xlink:href="#DejaVuSans-53"/>
       <use x="63.623047" xlink:href="#DejaVuSans-48"/>
       <use x="127.246094" xlink:href="#DejaVuSans-48"/>
       <use x="190.869141" xlink:href="#DejaVuSans-46"/>
       <use x="222.65625" xlink:href="#DejaVuSans-48"/>
      </g>
     </g>
    </g>
    <g id="xtick_6">
     <g id="line2d_6">
      <g>
       <use style="stroke:#000000;stroke-width:0.8;" x="846.225021" xlink:href="#mfb0ea2a978" y="640.8"/>
      </g>
     </g>
     <g id="text_6">
      <!-- 600.0 -->
      <defs>
       <path d="M 33.015625 40.375 
Q 26.375 40.375 22.484375 35.828125 
Q 18.609375 31.296875 18.609375 23.390625 
Q 18.609375 15.53125 22.484375 10.953125 
Q 26.375 6.390625 33.015625 6.390625 
Q 39.65625 6.390625 43.53125 10.953125 
Q 47.40625 15.53125 47.40625 23.390625 
Q 47.40625 31.296875 43.53125 35.828125 
Q 39.65625 40.375 33.015625 40.375 
z
M 52.59375 71.296875 
L 52.59375 62.3125 
Q 48.875 64.0625 45.09375 64.984375 
Q 41.3125 65.921875 37.59375 65.921875 
Q 27.828125 65.921875 22.671875 59.328125 
Q 17.53125 52.734375 16.796875 39.40625 
Q 19.671875 43.65625 24.015625 45.921875 
Q 28.375 48.1875 33.59375 48.1875 
Q 44.578125 48.1875 50.953125 41.515625 
Q 57.328125 34.859375 57.328125 23.390625 
Q 57.328125 12.15625 50.6875 5.359375 
Q 44.046875 -1.421875 33.015625 -1.421875 
Q 20.359375 -1.421875 13.671875 8.265625 
Q 6.984375 17.96875 6.984375 36.375 
Q 6.984375 53.65625 15.1875 63.9375 
Q 23.390625 74.21875 37.203125 74.21875 
Q 40.921875 74.21875 44.703125 73.484375 
Q 48.484375 72.75 52.59375 71.296875 
z
" id="DejaVuSans-54"/>
      </defs>
      <g transform="translate(831.910958 655.398438)scale(0.1 -0.1)">
       <use xlink:href="#DejaVuSans-54"/>
       <use x="63.623047" xlink:href="#DejaVuSans-48"/>
       <use x="127.246094" xlink:href="#DejaVuSans-48"/>
       <use x="190.869141" xlink:href="#DejaVuSans-46"/>
       <use x="222.65625" xlink:href="#DejaVuSans-48"/>
      </g>
     </g>
    </g>
    <g id="xtick_7">
     <g id="line2d_7">
      <g>
       <use style="stroke:#000000;stroke-width:0.8;" x="948.807979" xlink:href="#mfb0ea2a978" y="640.8"/>
      </g>
     </g>
     <g id="text_7">
      <!-- 700.0 -->
      <defs>
       <path d="M 8.203125 72.90625 
L 55.078125 72.90625 
L 55.078125 68.703125 
L 28.609375 0 
L 18.3125 0 
L 43.21875 64.59375 
L 8.203125 64.59375 
z
" id="DejaVuSans-55"/>
      </defs>
      <g transform="translate(934.493916 655.398438)scale(0.1 -0.1)">
       <use xlink:href="#DejaVuSans-55"/>
       <use x="63.623047" xlink:href="#DejaVuSans-48"/>
       <use x="127.246094" xlink:href="#DejaVuSans-48"/>
       <use x="190.869141" xlink:href="#DejaVuSans-46"/>
       <use x="222.65625" xlink:href="#DejaVuSans-48"/>
      </g>
     </g>
    </g>
    <g id="xtick_8">
     <g id="line2d_8">
      <g>
       <use style="stroke:#000000;stroke-width:0.8;" x="1051.390937" xlink:href="#mfb0ea2a978" y="640.8"/>
      </g>
     </g>
     <g id="text_8">
      <!-- 800.0 -->
      <defs>
       <path d="M 31.78125 34.625 
Q 24.75 34.625 20.71875 30.859375 
Q 16.703125 27.09375 16.703125 20.515625 
Q 16.703125 13.921875 20.71875 10.15625 
Q 24.75 6.390625 31.78125 6.390625 
Q 38.8125 6.390625 42.859375 10.171875 
Q 46.921875 13.96875 46.921875 20.515625 
Q 46.921875 27.09375 42.890625 30.859375 
Q 38.875 34.625 31.78125 34.625 
z
M 21.921875 38.8125 
Q 15.578125 40.375 12.03125 44.71875 
Q 8.5 49.078125 8.5 55.328125 
Q 8.5 64.0625 14.71875 69.140625 
Q 20.953125 74.21875 31.78125 74.21875 
Q 42.671875 74.21875 48.875 69.140625 
Q 55.078125 64.0625 55.078125 55.328125 
Q 55.078125 49.078125 51.53125 44.71875 
Q 48 40.375 41.703125 38.8125 
Q 48.828125 37.15625 52.796875 32.3125 
Q 56.78125 27.484375 56.78125 20.515625 
Q 56.78125 9.90625 50.3125 4.234375 
Q 43.84375 -1.421875 31.78125 -1.421875 
Q 19.734375 -1.421875 13.25 4.234375 
Q 6.78125 9.90625 6.78125 20.515625 
Q 6.78125 27.484375 10.78125 32.3125 
Q 14.796875 37.15625 21.921875 38.8125 
z
M 18.3125 54.390625 
Q 18.3125 48.734375 21.84375 45.5625 
Q 25.390625 42.390625 31.78125 42.390625 
Q 38.140625 42.390625 41.71875 45.5625 
Q 45.3125 48.734375 45.3125 54.390625 
Q 45.3125 60.0625 41.71875 63.234375 
Q 38.140625 66.40625 31.78125 66.40625 
Q 25.390625 66.40625 21.84375 63.234375 
Q 18.3125 60.0625 18.3125 54.390625 
z
" id="DejaVuSans-56"/>
      </defs>
      <g transform="translate(1037.076874 655.398438)scale(0.1 -0.1)">
       <use xlink:href="#DejaVuSans-56"/>
       <use x="63.623047" xlink:href="#DejaVuSans-48"/>
       <use x="127.246094" xlink:href="#DejaVuSans-48"/>
       <use x="190.869141" xlink:href="#DejaVuSans-46"/>
       <use x="222.65625" xlink:href="#DejaVuSans-48"/>
      </g>
     </g>
    </g>
    <g id="xtick_9">
     <g id="line2d_9">
      <g>
       <use style="stroke:#000000;stroke-width:0.8;" x="1153.973895" xlink:href="#mfb0ea2a978" y="640.8"/>
      </g>
     </g>
     <g id="text_9">
      <!-- 900.0 -->
      <defs>
       <path d="M 10.984375 1.515625 
L 10.984375 10.5 
Q 14.703125 8.734375 18.5 7.8125 
Q 22.3125 6.890625 25.984375 6.890625 
Q 35.75 6.890625 40.890625 13.453125 
Q 46.046875 20.015625 46.78125 33.40625 
Q 43.953125 29.203125 39.59375 26.953125 
Q 35.25 24.703125 29.984375 24.703125 
Q 19.046875 24.703125 12.671875 31.3125 
Q 6.296875 37.9375 6.296875 49.421875 
Q 6.296875 60.640625 12.9375 67.421875 
Q 19.578125 74.21875 30.609375 74.21875 
Q 43.265625 74.21875 49.921875 64.515625 
Q 56.59375 54.828125 56.59375 36.375 
Q 56.59375 19.140625 48.40625 8.859375 
Q 40.234375 -1.421875 26.421875 -1.421875 
Q 22.703125 -1.421875 18.890625 -0.6875 
Q 15.09375 0.046875 10.984375 1.515625 
z
M 30.609375 32.421875 
Q 37.25 32.421875 41.125 36.953125 
Q 45.015625 41.5 45.015625 49.421875 
Q 45.015625 57.28125 41.125 61.84375 
Q 37.25 66.40625 30.609375 66.40625 
Q 23.96875 66.40625 20.09375 61.84375 
Q 16.21875 57.28125 16.21875 49.421875 
Q 16.21875 41.5 20.09375 36.953125 
Q 23.96875 32.421875 30.609375 32.421875 
z
" id="DejaVuSans-57"/>
      </defs>
      <g transform="translate(1139.659832 655.398438)scale(0.1 -0.1)">
       <use xlink:href="#DejaVuSans-57"/>
       <use x="63.623047" xlink:href="#DejaVuSans-48"/>
       <use x="127.246094" xlink:href="#DejaVuSans-48"/>
       <use x="190.869141" xlink:href="#DejaVuSans-46"/>
       <use x="222.65625" xlink:href="#DejaVuSans-48"/>
      </g>
     </g>
    </g>
    <g id="xtick_10">
     <g id="line2d_10">
      <g>
       <use style="stroke:#000000;stroke-width:0.8;" x="1256.556853" xlink:href="#mfb0ea2a978" y="640.8"/>
      </g>
     </g>
     <g id="text_10">
      <!-- 1000.0 -->
      <g transform="translate(1239.06154 655.398438)scale(0.1 -0.1)">
       <use xlink:href="#DejaVuSans-49"/>
       <use x="63.623047" xlink:href="#DejaVuSans-48"/>
       <use x="127.246094" xlink:href="#DejaVuSans-48"/>
       <use x="190.869141" xlink:href="#DejaVuSans-48"/>
       <use x="254.492188" xlink:href="#DejaVuSans-46"/>
       <use x="286.279297" xlink:href="#DejaVuSans-48"/>
      </g>
     </g>
    </g>
    <g id="text_11">
     <!-- n -->
     <defs>
      <path d="M 54.890625 33.015625 
L 54.890625 0 
L 45.90625 0 
L 45.90625 32.71875 
Q 45.90625 40.484375 42.875 44.328125 
Q 39.84375 48.1875 33.796875 48.1875 
Q 26.515625 48.1875 22.3125 43.546875 
Q 18.109375 38.921875 18.109375 30.90625 
L 18.109375 0 
L 9.078125 0 
L 9.078125 54.6875 
L 18.109375 54.6875 
L 18.109375 46.1875 
Q 21.34375 51.125 25.703125 53.5625 
Q 30.078125 56 35.796875 56 
Q 45.21875 56 50.046875 50.171875 
Q 54.890625 44.34375 54.890625 33.015625 
z
" id="DejaVuSans-110"/>
     </defs>
     <g transform="translate(734.83125 669.076563)scale(0.1 -0.1)">
      <use xlink:href="#DejaVuSans-110"/>
     </g>
    </g>
   </g>
   <g id="matplotlib.axis_2">
    <g id="ytick_1">
     <g id="line2d_11">
      <defs>
       <path d="M 0 0 
L -3.5 0 
" id="m66006cb0d4" style="stroke:#000000;stroke-width:0.8;"/>
      </defs>
      <g>
       <use style="stroke:#000000;stroke-width:0.8;" x="180" xlink:href="#m66006cb0d4" y="589.409165"/>
      </g>
     </g>
     <g id="text_12">
      <!-- 2000 -->
      <g transform="translate(147.55 593.208384)scale(0.1 -0.1)">
       <use xlink:href="#DejaVuSans-50"/>
       <use x="63.623047" xlink:href="#DejaVuSans-48"/>
       <use x="127.246094" xlink:href="#DejaVuSans-48"/>
       <use x="190.869141" xlink:href="#DejaVuSans-48"/>
      </g>
     </g>
    </g>
    <g id="ytick_2">
     <g id="line2d_12">
      <g>
       <use style="stroke:#000000;stroke-width:0.8;" x="180" xlink:href="#m66006cb0d4" y="511.410053"/>
      </g>
     </g>
     <g id="text_13">
      <!-- 4000 -->
      <g transform="translate(147.55 515.209271)scale(0.1 -0.1)">
       <use xlink:href="#DejaVuSans-52"/>
       <use x="63.623047" xlink:href="#DejaVuSans-48"/>
       <use x="127.246094" xlink:href="#DejaVuSans-48"/>
       <use x="190.869141" xlink:href="#DejaVuSans-48"/>
      </g>
     </g>
    </g>
    <g id="ytick_3">
     <g id="line2d_13">
      <g>
       <use style="stroke:#000000;stroke-width:0.8;" x="180" xlink:href="#m66006cb0d4" y="433.41094"/>
      </g>
     </g>
     <g id="text_14">
      <!-- 6000 -->
      <g transform="translate(147.55 437.210158)scale(0.1 -0.1)">
       <use xlink:href="#DejaVuSans-54"/>
       <use x="63.623047" xlink:href="#DejaVuSans-48"/>
       <use x="127.246094" xlink:href="#DejaVuSans-48"/>
       <use x="190.869141" xlink:href="#DejaVuSans-48"/>
      </g>
     </g>
    </g>
    <g id="ytick_4">
     <g id="line2d_14">
      <g>
       <use style="stroke:#000000;stroke-width:0.8;" x="180" xlink:href="#m66006cb0d4" y="355.411827"/>
      </g>
     </g>
     <g id="text_15">
      <!-- 8000 -->
      <g transform="translate(147.55 359.211046)scale(0.1 -0.1)">
       <use xlink:href="#DejaVuSans-56"/>
       <use x="63.623047" xlink:href="#DejaVuSans-48"/>
       <use x="127.246094" xlink:href="#DejaVuSans-48"/>
       <use x="190.869141" xlink:href="#DejaVuSans-48"/>
      </g>
     </g>
    </g>
    <g id="ytick_5">
     <g id="line2d_15">
      <g>
       <use style="stroke:#000000;stroke-width:0.8;" x="180" xlink:href="#m66006cb0d4" y="277.412714"/>
      </g>
     </g>
     <g id="text_16">
      <!-- 10000 -->
      <g transform="translate(141.1875 281.211933)scale(0.1 -0.1)">
       <use xlink:href="#DejaVuSans-49"/>
       <use x="63.623047" xlink:href="#DejaVuSans-48"/>
       <use x="127.246094" xlink:href="#DejaVuSans-48"/>
       <use x="190.869141" xlink:href="#DejaVuSans-48"/>
       <use x="254.492188" xlink:href="#DejaVuSans-48"/>
      </g>
     </g>
    </g>
    <g id="ytick_6">
     <g id="line2d_16">
      <g>
       <use style="stroke:#000000;stroke-width:0.8;" x="180" xlink:href="#m66006cb0d4" y="199.413601"/>
      </g>
     </g>
     <g id="text_17">
      <!-- 12000 -->
      <g transform="translate(141.1875 203.21282)scale(0.1 -0.1)">
       <use xlink:href="#DejaVuSans-49"/>
       <use x="63.623047" xlink:href="#DejaVuSans-50"/>
       <use x="127.246094" xlink:href="#DejaVuSans-48"/>
       <use x="190.869141" xlink:href="#DejaVuSans-48"/>
       <use x="254.492188" xlink:href="#DejaVuSans-48"/>
      </g>
     </g>
    </g>
    <g id="ytick_7">
     <g id="line2d_17">
      <g>
       <use style="stroke:#000000;stroke-width:0.8;" x="180" xlink:href="#m66006cb0d4" y="121.414488"/>
      </g>
     </g>
     <g id="text_18">
      <!-- 14000 -->
      <g transform="translate(141.1875 125.213707)scale(0.1 -0.1)">
       <use xlink:href="#DejaVuSans-49"/>
       <use x="63.623047" xlink:href="#DejaVuSans-52"/>
       <use x="127.246094" xlink:href="#DejaVuSans-48"/>
       <use x="190.869141" xlink:href="#DejaVuSans-48"/>
       <use x="254.492188" xlink:href="#DejaVuSans-48"/>
      </g>
     </g>
    </g>
    <g id="text_19">
     <!-- speedup -->
     <defs>
      <path d="M 44.28125 53.078125 
L 44.28125 44.578125 
Q 40.484375 46.53125 36.375 47.5 
Q 32.28125 48.484375 27.875 48.484375 
Q 21.1875 48.484375 17.84375 46.4375 
Q 14.5 44.390625 14.5 40.28125 
Q 14.5 37.15625 16.890625 35.375 
Q 19.28125 33.59375 26.515625 31.984375 
L 29.59375 31.296875 
Q 39.15625 29.25 43.1875 25.515625 
Q 47.21875 21.78125 47.21875 15.09375 
Q 47.21875 7.46875 41.1875 3.015625 
Q 35.15625 -1.421875 24.609375 -1.421875 
Q 20.21875 -1.421875 15.453125 -0.5625 
Q 10.6875 0.296875 5.421875 2 
L 5.421875 11.28125 
Q 10.40625 8.6875 15.234375 7.390625 
Q 20.0625 6.109375 24.8125 6.109375 
Q 31.15625 6.109375 34.5625 8.28125 
Q 37.984375 10.453125 37.984375 14.40625 
Q 37.984375 18.0625 35.515625 20.015625 
Q 33.0625 21.96875 24.703125 23.78125 
L 21.578125 24.515625 
Q 13.234375 26.265625 9.515625 29.90625 
Q 5.8125 33.546875 5.8125 39.890625 
Q 5.8125 47.609375 11.28125 51.796875 
Q 16.75 56 26.8125 56 
Q 31.78125 56 36.171875 55.265625 
Q 40.578125 54.546875 44.28125 53.078125 
z
" id="DejaVuSans-115"/>
      <path d="M 18.109375 8.203125 
L 18.109375 -20.796875 
L 9.078125 -20.796875 
L 9.078125 54.6875 
L 18.109375 54.6875 
L 18.109375 46.390625 
Q 20.953125 51.265625 25.265625 53.625 
Q 29.59375 56 35.59375 56 
Q 45.5625 56 51.78125 48.09375 
Q 58.015625 40.1875 58.015625 27.296875 
Q 58.015625 14.40625 51.78125 6.484375 
Q 45.5625 -1.421875 35.59375 -1.421875 
Q 29.59375 -1.421875 25.265625 0.953125 
Q 20.953125 3.328125 18.109375 8.203125 
z
M 48.6875 27.296875 
Q 48.6875 37.203125 44.609375 42.84375 
Q 40.53125 48.484375 33.40625 48.484375 
Q 26.265625 48.484375 22.1875 42.84375 
Q 18.109375 37.203125 18.109375 27.296875 
Q 18.109375 17.390625 22.1875 11.75 
Q 26.265625 6.109375 33.40625 6.109375 
Q 40.53125 6.109375 44.609375 11.75 
Q 48.6875 17.390625 48.6875 27.296875 
z
" id="DejaVuSans-112"/>
      <path d="M 56.203125 29.59375 
L 56.203125 25.203125 
L 14.890625 25.203125 
Q 15.484375 15.921875 20.484375 11.0625 
Q 25.484375 6.203125 34.421875 6.203125 
Q 39.59375 6.203125 44.453125 7.46875 
Q 49.3125 8.734375 54.109375 11.28125 
L 54.109375 2.78125 
Q 49.265625 0.734375 44.1875 -0.34375 
Q 39.109375 -1.421875 33.890625 -1.421875 
Q 20.796875 -1.421875 13.15625 6.1875 
Q 5.515625 13.8125 5.515625 26.8125 
Q 5.515625 40.234375 12.765625 48.109375 
Q 20.015625 56 32.328125 56 
Q 43.359375 56 49.78125 48.890625 
Q 56.203125 41.796875 56.203125 29.59375 
z
M 47.21875 32.234375 
Q 47.125 39.59375 43.09375 43.984375 
Q 39.0625 48.390625 32.421875 48.390625 
Q 24.90625 48.390625 20.390625 44.140625 
Q 15.875 39.890625 15.1875 32.171875 
z
" id="DejaVuSans-101"/>
      <path d="M 45.40625 46.390625 
L 45.40625 75.984375 
L 54.390625 75.984375 
L 54.390625 0 
L 45.40625 0 
L 45.40625 8.203125 
Q 42.578125 3.328125 38.25 0.953125 
Q 33.9375 -1.421875 27.875 -1.421875 
Q 17.96875 -1.421875 11.734375 6.484375 
Q 5.515625 14.40625 5.515625 27.296875 
Q 5.515625 40.1875 11.734375 48.09375 
Q 17.96875 56 27.875 56 
Q 33.9375 56 38.25 53.625 
Q 42.578125 51.265625 45.40625 46.390625 
z
M 14.796875 27.296875 
Q 14.796875 17.390625 18.875 11.75 
Q 22.953125 6.109375 30.078125 6.109375 
Q 37.203125 6.109375 41.296875 11.75 
Q 45.40625 17.390625 45.40625 27.296875 
Q 45.40625 37.203125 41.296875 42.84375 
Q 37.203125 48.484375 30.078125 48.484375 
Q 22.953125 48.484375 18.875 42.84375 
Q 14.796875 37.203125 14.796875 27.296875 
z
" id="DejaVuSans-100"/>
      <path d="M 8.5 21.578125 
L 8.5 54.6875 
L 17.484375 54.6875 
L 17.484375 21.921875 
Q 17.484375 14.15625 20.5 10.265625 
Q 23.53125 6.390625 29.59375 6.390625 
Q 36.859375 6.390625 41.078125 11.03125 
Q 45.3125 15.671875 45.3125 23.6875 
L 45.3125 54.6875 
L 54.296875 54.6875 
L 54.296875 0 
L 45.3125 0 
L 45.3125 8.40625 
Q 42.046875 3.421875 37.71875 1 
Q 33.40625 -1.421875 27.6875 -1.421875 
Q 18.265625 -1.421875 13.375 4.4375 
Q 8.5 10.296875 8.5 21.578125 
z
M 31.109375 56 
z
" id="DejaVuSans-117"/>
     </defs>
     <g transform="translate(135.107812 385.049219)rotate(-90)scale(0.1 -0.1)">
      <use xlink:href="#DejaVuSans-115"/>
      <use x="52.099609" xlink:href="#DejaVuSans-112"/>
      <use x="115.576172" xlink:href="#DejaVuSans-101"/>
      <use x="177.099609" xlink:href="#DejaVuSans-101"/>
      <use x="238.623047" xlink:href="#DejaVuSans-100"/>
      <use x="302.099609" xlink:href="#DejaVuSans-117"/>
      <use x="365.478516" xlink:href="#DejaVuSans-112"/>
     </g>
    </g>
   </g>
   <g id="line2d_18">
    <path clip-path="url(#pab117563a3)" d="M 230.727273 585.206123 
L 231.753102 566.172608 
L 232.778932 559.213954 
L 233.804761 561.093266 
L 234.830591 515.541166 
L 235.856421 555.818265 
L 236.88225 548.775691 
L 237.90808 581.692119 
L 238.933909 494.68951 
L 239.959739 525.124172 
L 240.985569 521.752102 
L 242.011398 569.596493 
L 243.037228 521.335382 
L 244.063057 530.713118 
L 245.088887 507.273092 
L 246.114716 590.599608 
L 247.140546 504.516491 
L 248.166376 495.851393 
L 249.192205 479.185629 
L 250.218035 498.297473 
L 251.243864 474.592783 
L 252.269694 505.832346 
L 254.321353 455.4642 
L 255.347183 501.838889 
L 256.373012 475.041713 
L 257.398842 473.194374 
L 258.424671 456.507028 
L 259.450501 463.31749 
L 260.476331 466.686149 
L 261.50216 474.23783 
L 262.52799 462.225209 
L 263.553819 426.262486 
L 264.579649 441.759674 
L 265.605478 448.849465 
L 266.631308 431.405903 
L 267.657138 449.294203 
L 268.682967 425.932067 
L 269.708797 445.187109 
L 270.734626 427.381386 
L 271.760456 412.115266 
L 272.786286 449.057208 
L 273.812115 425.669496 
L 274.837945 414.970938 
L 275.863774 434.204464 
L 276.889604 419.407236 
L 277.915433 425.48801 
L 278.941263 397.976731 
L 279.967093 409.593619 
L 280.992922 615.6 
L 282.018752 398.357452 
L 283.044581 416.789899 
L 284.070411 408.987898 
L 285.09624 397.05349 
L 286.12207 403.911922 
L 287.1479 403.669511 
L 288.173729 393.89197 
L 289.199559 412.676491 
L 290.225388 398.603673 
L 291.251218 444.545897 
L 292.277048 386.335802 
L 293.302877 391.60097 
L 294.328707 391.575408 
L 295.354536 401.574038 
L 296.380366 380.859101 
L 297.406195 397.456553 
L 298.432025 366.895008 
L 299.457855 369.237963 
L 300.483684 389.2262 
L 301.509514 385.622093 
L 302.535343 391.165263 
L 303.561173 387.033884 
L 304.587002 371.539375 
L 305.612832 378.299194 
L 306.638662 353.275523 
L 307.664491 379.69863 
L 308.690321 355.179696 
L 309.71615 365.948665 
L 310.74198 531.489562 
L 311.76781 369.331377 
L 312.793639 379.201642 
L 313.819469 457.481314 
L 314.845298 375.133313 
L 315.871128 380.489317 
L 316.896957 361.247624 
L 317.922787 367.992962 
L 318.948617 383.002199 
L 321.000276 355.032752 
L 322.026105 379.380839 
L 323.051935 338.590977 
L 324.077765 315.358756 
L 325.103594 329.397446 
L 326.129424 365.175915 
L 327.155253 385.970732 
L 328.181083 368.058552 
L 329.206912 369.991229 
L 330.232742 375.281681 
L 331.258572 367.468427 
L 332.284401 357.619941 
L 333.310231 351.842059 
L 334.33606 378.94124 
L 335.36189 340.205957 
L 336.387719 363.90215 
L 337.413549 354.190474 
L 338.439379 356.457027 
L 339.465208 359.972807 
L 340.491038 350.177921 
L 341.516867 429.187069 
L 342.542697 344.144307 
L 343.568527 338.358319 
L 344.594356 338.085707 
L 345.620186 350.859882 
L 346.646015 357.277312 
L 347.671845 346.118973 
L 348.697674 353.723497 
L 349.723504 345.227152 
L 350.749334 355.448716 
L 351.775163 340.214001 
L 352.800993 346.482644 
L 353.826822 336.487817 
L 354.852652 410.690359 
L 355.878481 379.850374 
L 356.904311 315.846184 
L 357.930141 293.32974 
L 358.95597 348.032865 
L 359.9818 324.512633 
L 361.007629 321.849845 
L 362.033459 312.343895 
L 363.059289 344.165542 
L 364.085118 326.107357 
L 365.110948 327.845569 
L 366.136777 324.902305 
L 367.162607 343.445373 
L 368.188436 330.040614 
L 369.214266 389.656641 
L 370.240096 328.843234 
L 371.265925 336.024001 
L 372.291755 316.87125 
L 373.317584 321.47106 
L 374.343414 320.432055 
L 375.369243 338.826773 
L 376.395073 299.092964 
L 377.420903 310.150046 
L 378.446732 324.319026 
L 379.472562 303.237314 
L 380.498391 317.025362 
L 381.524221 315.098605 
L 382.550051 329.361758 
L 383.57588 305.92401 
L 384.60171 292.301517 
L 385.627539 311.011764 
L 386.653369 325.360212 
L 387.679198 324.983835 
L 388.705028 328.641576 
L 390.756687 314.223202 
L 391.782517 319.319271 
L 392.808346 296.254647 
L 393.834176 332.8352 
L 394.860006 305.223511 
L 395.885835 300.19203 
L 396.911665 308.927192 
L 397.937494 320.659899 
L 398.963324 324.310029 
L 399.989153 313.629413 
L 401.014983 314.300824 
L 402.040813 318.84366 
L 403.066642 281.83331 
L 404.092472 301.601997 
L 405.118301 298.887921 
L 406.144131 299.416463 
L 407.16996 281.342915 
L 408.19579 325.79743 
L 409.22162 307.620738 
L 410.247449 319.888646 
L 411.273279 304.245924 
L 412.299108 317.329224 
L 413.324938 319.738907 
L 414.350768 308.537072 
L 415.376597 301.435104 
L 416.402427 298.625796 
L 417.428256 319.824398 
L 418.454086 305.95238 
L 420.505745 310.663009 
L 421.531575 309.797059 
L 422.557404 312.588581 
L 423.583234 368.173357 
L 424.609063 296.70276 
L 425.634893 310.973944 
L 426.660722 298.075059 
L 427.686552 303.758286 
L 428.712382 313.807323 
L 429.738211 319.236317 
L 430.764041 345.021039 
L 431.78987 334.888851 
L 432.8157 313.466468 
L 433.84153 456.586389 
L 434.867359 304.866543 
L 435.893189 290.596491 
L 436.919018 304.471584 
L 437.944848 298.369573 
L 438.970677 290.631046 
L 439.996507 299.815836 
L 441.022337 298.733598 
L 442.048166 303.956008 
L 443.073996 280.510516 
L 444.099825 310.852147 
L 445.125655 281.035344 
L 446.151485 280.874198 
L 447.177314 297.20082 
L 448.203144 298.246848 
L 449.228973 323.226864 
L 450.254803 309.666318 
L 451.280632 301.442705 
L 452.306462 301.002414 
L 453.332292 287.229224 
L 454.358121 296.064821 
L 455.383951 313.124435 
L 456.40978 289.99059 
L 457.43561 298.569095 
L 458.461439 371.760313 
L 459.487269 316.541263 
L 460.513099 301.573056 
L 461.538928 303.295492 
L 462.564758 265.767388 
L 463.590587 304.970704 
L 464.616417 302.283824 
L 465.642247 304.743874 
L 466.668076 303.176049 
L 467.693906 306.311079 
L 468.719735 306.57369 
L 469.745565 304.043754 
L 470.771394 313.751598 
L 471.797224 291.738295 
L 472.823054 292.99879 
L 473.848883 296.471191 
L 474.874713 273.417119 
L 475.900542 295.911624 
L 476.926372 291.732889 
L 477.952201 305.947493 
L 478.978031 285.767485 
L 480.003861 300.44962 
L 481.02969 294.006912 
L 482.05552 302.59873 
L 483.081349 296.130775 
L 484.107179 282.865093 
L 485.133009 275.9022 
L 487.184668 301.254471 
L 488.210497 287.545026 
L 489.236327 277.812797 
L 490.262156 292.006545 
L 491.287986 283.281308 
L 492.313816 284.494617 
L 493.339645 284.702346 
L 494.365475 300.263583 
L 495.391304 295.555182 
L 496.417134 282.922694 
L 497.442964 286.696153 
L 498.468793 292.850528 
L 499.494623 240.767942 
L 500.520452 202.241089 
L 501.546282 250.644963 
L 502.572111 292.2551 
L 503.597941 276.27907 
L 504.623771 270.854989 
L 505.6496 337.424946 
L 506.67543 244.559943 
L 507.701259 255.440214 
L 508.727089 321.121032 
L 509.752918 260.199892 
L 510.778748 313.733371 
L 511.804578 336.770001 
L 512.830407 220.154846 
L 513.856237 263.682504 
L 514.882066 250.296418 
L 515.907896 274.197569 
L 516.933726 269.148646 
L 517.959555 276.990659 
L 518.985385 357.624564 
L 520.011214 285.69999 
L 521.037044 316.305622 
L 522.062873 279.359633 
L 523.088703 280.014271 
L 524.114533 270.171304 
L 525.140362 284.803489 
L 526.166192 289.736846 
L 527.192021 263.313403 
L 528.217851 288.083369 
L 529.24368 283.488585 
L 530.26951 295.570808 
L 531.29534 292.463785 
L 532.321169 283.324067 
L 533.346999 295.751677 
L 534.372828 279.678499 
L 535.398658 280.687837 
L 536.424488 299.701513 
L 537.450317 306.521321 
L 538.476147 283.768405 
L 539.501976 291.180312 
L 540.527806 276.290029 
L 541.553635 300.157508 
L 542.579465 244.54021 
L 543.605295 271.848188 
L 544.631124 253.492771 
L 545.656954 260.907243 
L 546.682783 338.765916 
L 547.708613 265.569249 
L 548.734443 284.081798 
L 549.760272 253.457398 
L 550.786102 265.393869 
L 551.811931 285.005275 
L 552.837761 279.880617 
L 553.86359 287.700598 
L 554.88942 264.980004 
L 555.91525 295.372641 
L 556.941079 287.433412 
L 557.966909 276.906933 
L 558.992738 272.460175 
L 560.018568 273.105959 
L 561.044397 284.135229 
L 562.070227 265.644315 
L 563.096057 266.099007 
L 564.121886 274.649278 
L 565.147716 260.992811 
L 566.173545 275.329879 
L 567.199375 271.205217 
L 568.225205 275.200709 
L 569.251034 284.268458 
L 570.276864 340.758788 
L 571.302693 250.073694 
L 572.328523 283.079175 
L 574.380182 287.268809 
L 575.406012 246.725037 
L 576.431841 257.562187 
L 577.457671 266.942573 
L 578.4835 252.623785 
L 579.50933 276.353115 
L 580.535159 274.414388 
L 581.560989 284.273678 
L 582.586819 280.318558 
L 583.612648 277.636165 
L 584.638478 337.09022 
L 585.664307 283.340777 
L 586.690137 220.785371 
L 587.715967 283.390932 
L 588.741796 256.24899 
L 589.767626 277.002889 
L 590.793455 282.442765 
L 591.819285 267.442725 
L 592.845114 295.513429 
L 593.870944 264.886234 
L 594.896774 258.810344 
L 595.922603 277.434449 
L 596.948433 265.670023 
L 597.974262 263.750659 
L 599.000092 350.44421 
L 600.025922 265.513556 
L 601.051751 322.043357 
L 602.077581 254.391641 
L 603.10341 261.383115 
L 604.12924 246.997807 
L 605.155069 257.361584 
L 606.180899 262.49214 
L 607.206729 275.441998 
L 608.232558 268.046949 
L 609.258388 277.177778 
L 610.284217 321.553926 
L 611.310047 279.907584 
L 612.335876 273.401474 
L 613.361706 259.066296 
L 614.387536 285.742664 
L 615.413365 287.779561 
L 616.439195 291.232959 
L 617.465024 280.140231 
L 618.490854 396.467052 
L 619.516684 284.421886 
L 620.542513 289.984994 
L 621.568343 285.226311 
L 622.594172 285.673131 
L 623.620002 278.058374 
L 624.645831 293.264069 
L 625.671661 284.196692 
L 626.697491 265.542659 
L 627.72332 267.38336 
L 628.74915 247.050124 
L 629.774979 285.060669 
L 630.800809 286.417984 
L 631.826638 282.021082 
L 632.852468 279.395278 
L 633.878298 283.308753 
L 634.904127 288.496845 
L 635.929957 287.501001 
L 636.955786 275.686976 
L 637.981616 294.352078 
L 639.007446 287.118298 
L 640.033275 311.975611 
L 641.059105 302.088465 
L 642.084934 311.114042 
L 643.110764 299.205577 
L 644.136593 284.357093 
L 645.162423 284.159205 
L 646.188253 291.375665 
L 647.214082 293.550658 
L 648.239912 311.431021 
L 649.265741 289.228818 
L 650.291571 286.10517 
L 651.3174 295.671167 
L 652.34323 288.586265 
L 653.36906 271.006016 
L 654.394889 287.743926 
L 655.420719 291.00225 
L 656.446548 289.207151 
L 657.472378 286.946383 
L 658.498208 296.274411 
L 659.524037 287.680941 
L 660.549867 288.124164 
L 661.575696 282.918755 
L 662.601526 286.554756 
L 664.653185 288.179361 
L 665.679015 289.636388 
L 666.704844 287.324338 
L 667.730674 291.073203 
L 668.756503 287.78393 
L 670.808163 287.589131 
L 671.833992 288.852671 
L 672.859822 286.957088 
L 673.885651 216.504824 
L 674.911481 299.571797 
L 675.93731 300.522224 
L 676.96314 267.124852 
L 677.98897 268.37755 
L 679.014799 272.616371 
L 680.040629 271.994901 
L 681.066458 270.56915 
L 682.092288 277.502848 
L 683.118117 287.013614 
L 684.143947 335.852034 
L 685.169777 267.010822 
L 686.195606 262.488371 
L 687.221436 267.511948 
L 688.247265 274.997816 
L 689.273095 263.723345 
L 690.298925 258.103554 
L 691.324754 263.770995 
L 692.350584 246.91329 
L 693.376413 266.280807 
L 694.402243 265.968538 
L 695.428072 249.585589 
L 696.453902 273.266862 
L 697.479732 261.009733 
L 698.505561 270.219859 
L 699.531391 284.692535 
L 700.55722 260.484071 
L 701.58305 257.865129 
L 702.608879 259.248478 
L 703.634709 255.262711 
L 704.660539 240.024217 
L 705.686368 248.907602 
L 706.712198 248.752014 
L 707.738027 274.559704 
L 708.763857 275.849176 
L 709.789687 272.457428 
L 710.815516 246.028809 
L 711.841346 258.021862 
L 712.867175 324.369866 
L 713.893005 267.742918 
L 714.918834 249.558059 
L 715.944664 262.006835 
L 716.970494 260.855007 
L 717.996323 243.492956 
L 719.022153 256.559448 
L 720.047982 257.721386 
L 721.073812 267.623606 
L 722.099642 267.501814 
L 723.125471 263.369661 
L 724.151301 238.81841 
L 725.17713 258.993626 
L 726.20296 252.292775 
L 727.228789 254.383398 
L 728.254619 256.067688 
L 729.280449 254.168442 
L 730.306278 264.890623 
L 731.332108 260.827837 
L 732.357937 259.188954 
L 733.383767 309.099277 
L 734.409596 267.42894 
L 735.435426 275.340174 
L 736.461256 267.827031 
L 737.487085 248.408303 
L 738.512915 251.626762 
L 739.538744 259.063915 
L 740.564574 252.130109 
L 742.616233 269.431124 
L 743.642063 265.523308 
L 744.667892 274.113117 
L 745.693722 287.490051 
L 746.719551 294.665853 
L 747.745381 251.582822 
L 748.771211 263.416246 
L 749.79704 265.90904 
L 750.82287 258.163292 
L 751.848699 260.109539 
L 752.874529 341.531202 
L 753.900358 258.130796 
L 754.926188 251.739299 
L 755.952018 266.124545 
L 756.977847 249.610271 
L 758.003677 271.862793 
L 759.029506 240.15723 
L 760.055336 264.67992 
L 761.081166 253.64654 
L 762.106995 295.025031 
L 763.132825 256.278322 
L 764.158654 245.726205 
L 765.184484 268.334303 
L 766.210313 266.770841 
L 767.236143 269.30308 
L 768.261973 254.601723 
L 769.287802 255.172262 
L 770.313632 257.009098 
L 771.339461 268.438865 
L 772.365291 255.797983 
L 773.391121 255.803631 
L 774.41695 263.488302 
L 775.44278 259.325601 
L 776.468609 252.997488 
L 777.494439 271.139438 
L 778.520268 266.404435 
L 779.546098 258.448192 
L 780.571928 257.33391 
L 781.597757 254.168693 
L 782.623587 285.285391 
L 783.649416 232.108518 
L 784.675246 264.916868 
L 785.701075 262.113326 
L 786.726905 257.129085 
L 787.752735 257.332217 
L 788.778564 259.402872 
L 789.804394 255.29632 
L 790.830223 259.004904 
L 791.856053 252.973776 
L 792.881883 257.936111 
L 793.907712 315.863198 
L 794.933542 240.031878 
L 795.959371 247.821482 
L 796.985201 254.54519 
L 798.01103 256.280885 
L 799.03686 256.608327 
L 800.06269 257.361702 
L 801.088519 261.055109 
L 802.114349 208.651606 
L 803.140178 240.059354 
L 804.166008 234.740127 
L 805.191837 231.55054 
L 806.217667 209.595804 
L 807.243497 256.585839 
L 808.269326 237.803397 
L 809.295156 250.091925 
L 810.320985 251.093245 
L 811.346815 260.353659 
L 812.372645 258.951194 
L 814.424304 247.112303 
L 815.450133 247.221396 
L 816.475963 248.478416 
L 817.501792 228.772783 
L 818.527622 263.950236 
L 819.553452 237.052139 
L 820.579281 283.356012 
L 821.605111 309.011108 
L 822.63094 248.018365 
L 823.65677 254.351307 
L 824.6826 243.984228 
L 825.708429 250.210894 
L 826.734259 252.235859 
L 827.760088 251.48256 
L 828.785918 243.674239 
L 829.811747 243.071544 
L 830.837577 266.812517 
L 831.863407 265.654377 
L 832.889236 249.662422 
L 833.915066 253.879982 
L 834.940895 258.958729 
L 835.966725 254.313123 
L 836.992554 254.306476 
L 838.018384 251.003765 
L 839.044214 250.645242 
L 840.070043 352.944138 
L 841.095873 230.442611 
L 842.121702 264.167594 
L 843.147532 257.349701 
L 844.173362 268.636706 
L 845.199191 260.014006 
L 846.225021 260.910984 
L 847.25085 241.317286 
L 848.27668 260.237157 
L 849.302509 271.054226 
L 850.328339 255.430604 
L 851.354169 293.302565 
L 852.379998 269.789028 
L 853.405828 266.865609 
L 854.431657 247.451807 
L 855.457487 256.348991 
L 856.483316 344.041607 
L 857.509146 323.864278 
L 858.534976 255.115455 
L 859.560805 250.313193 
L 860.586635 283.469842 
L 861.612464 266.487085 
L 862.638294 261.200723 
L 863.664124 245.091624 
L 864.689953 255.811674 
L 865.715783 286.818959 
L 866.741612 249.205916 
L 867.767442 350.536756 
L 868.793271 251.325059 
L 869.819101 253.794823 
L 870.844931 256.911991 
L 871.87076 257.68476 
L 872.89659 239.737142 
L 873.922419 256.480801 
L 874.948249 255.829449 
L 875.974078 255.950528 
L 876.999908 251.828644 
L 878.025738 240.975267 
L 879.051567 239.910822 
L 880.077397 247.258491 
L 881.103226 252.946262 
L 882.129056 257.963179 
L 883.154886 240.969128 
L 884.180715 307.219508 
L 885.206545 243.702425 
L 886.232374 239.007608 
L 887.258204 240.844069 
L 888.284033 261.740526 
L 889.309863 208.437204 
L 890.335693 246.825958 
L 891.361522 265.267951 
L 892.387352 239.965686 
L 893.413181 234.233951 
L 894.439011 261.949246 
L 895.464841 249.347815 
L 896.49067 231.017288 
L 897.5165 262.720992 
L 898.542329 235.408787 
L 899.568159 251.663207 
L 900.593988 284.946069 
L 901.619818 248.651522 
L 902.645648 313.260859 
L 903.671477 320.072166 
L 904.697307 216.116389 
L 905.723136 247.358593 
L 906.748966 250.302101 
L 907.774795 243.087113 
L 908.800625 251.923474 
L 909.826455 248.918514 
L 910.852284 243.838014 
L 911.878114 242.690736 
L 912.903943 240.438128 
L 913.929773 252.617568 
L 914.955603 234.394877 
L 915.981432 234.617841 
L 917.007262 254.488128 
L 918.033091 241.425075 
L 919.058921 244.70705 
L 920.08475 242.546888 
L 921.11058 251.825339 
L 922.13641 243.855709 
L 923.162239 248.982719 
L 924.188069 234.67787 
L 925.213898 242.468843 
L 926.239728 251.204408 
L 927.265557 238.933302 
L 928.291387 236.866453 
L 929.317217 251.0751 
L 930.343046 321.984371 
L 931.368876 246.576408 
L 932.394705 239.150825 
L 933.420535 234.99227 
L 935.472194 244.260286 
L 936.498024 251.642592 
L 937.523853 286.350175 
L 938.549683 218.732506 
L 939.575512 248.407327 
L 940.601342 249.247151 
L 941.627172 256.246009 
L 942.653001 259.102522 
L 943.678831 247.202895 
L 944.70466 286.195337 
L 945.73049 254.65218 
L 946.75632 250.29265 
L 947.782149 236.586716 
L 948.807979 230.447293 
L 949.833808 251.562371 
L 950.859638 239.114693 
L 951.885467 254.797917 
L 952.911297 250.038843 
L 953.937127 347.476431 
L 954.962956 255.081019 
L 955.988786 309.359523 
L 957.014615 276.169958 
L 958.040445 278.759975 
L 959.066274 264.740677 
L 960.092104 263.654308 
L 961.117934 257.682336 
L 962.143763 271.964376 
L 963.169593 262.972704 
L 964.195422 266.41387 
L 965.221252 256.027832 
L 967.272911 265.088213 
L 968.298741 272.094716 
L 969.32457 265.755854 
L 970.3504 263.882886 
L 971.376229 258.732703 
L 972.402059 262.723373 
L 973.427889 254.448344 
L 974.453718 261.218829 
L 975.479548 261.161791 
L 976.505377 254.913496 
L 977.531207 261.78079 
L 978.557036 260.136987 
L 979.582866 277.174653 
L 980.608696 320.295536 
L 981.634525 260.731566 
L 982.660355 281.355077 
L 983.686184 339.947607 
L 984.712014 259.397571 
L 985.737844 253.00932 
L 986.763673 288.36986 
L 987.789503 261.930199 
L 988.815332 255.951048 
L 989.841162 267.132391 
L 990.866991 258.894391 
L 991.892821 254.631067 
L 992.918651 241.436379 
L 993.94448 245.13652 
L 994.97031 241.120738 
L 995.996139 211.61441 
L 997.021969 306.154256 
L 998.047799 237.056915 
L 999.073628 219.568897 
L 1000.099458 237.233102 
L 1001.125287 251.836846 
L 1002.151117 238.230706 
L 1003.176946 253.01339 
L 1004.202776 240.148071 
L 1005.228606 305.930984 
L 1006.254435 230.26326 
L 1007.280265 247.283686 
L 1008.306094 245.324506 
L 1009.331924 244.688196 
L 1010.357753 247.581933 
L 1011.383583 258.683165 
L 1012.409413 244.647458 
L 1013.435242 261.968178 
L 1014.461072 220.892968 
L 1015.486901 248.413356 
L 1016.512731 284.918741 
L 1017.538561 213.702506 
L 1018.56439 275.194169 
L 1019.59022 226.533042 
L 1020.616049 260.042429 
L 1021.641879 253.548437 
L 1022.667708 254.594099 
L 1023.693538 223.974952 
L 1024.719368 245.224185 
L 1025.745197 253.829914 
L 1026.771027 235.830502 
L 1027.796856 222.469659 
L 1028.822686 239.245974 
L 1029.848515 242.33931 
L 1030.874345 252.179351 
L 1031.900175 233.827513 
L 1032.926004 259.598897 
L 1033.951834 220.594624 
L 1034.977663 211.855426 
L 1036.003493 249.012269 
L 1037.029323 266.048011 
L 1038.055152 259.553956 
L 1039.080982 238.270184 
L 1040.106811 250.055548 
L 1041.132641 290.459135 
L 1042.15847 231.722859 
L 1043.1843 238.812331 
L 1044.21013 219.562565 
L 1045.235959 257.42777 
L 1046.261789 250.148802 
L 1047.287618 252.700106 
L 1048.313448 246.251956 
L 1049.339278 214.231962 
L 1050.365107 242.107873 
L 1051.390937 251.462409 
L 1052.416766 211.135222 
L 1053.442596 237.118159 
L 1054.468425 247.138014 
L 1056.520085 233.205605 
L 1057.545914 241.979196 
L 1058.571744 238.916193 
L 1059.597573 231.603164 
L 1060.623403 256.963081 
L 1061.649232 253.917627 
L 1062.675062 258.102571 
L 1063.700892 231.754813 
L 1064.726721 236.297633 
L 1065.752551 239.461344 
L 1066.77838 300.701497 
L 1067.80421 238.945646 
L 1068.83004 227.347152 
L 1069.855869 287.826252 
L 1070.881699 249.206987 
L 1071.907528 246.263609 
L 1072.933358 252.527542 
L 1073.959187 233.169979 
L 1074.985017 339.982166 
L 1076.010847 232.234594 
L 1077.036676 260.81495 
L 1078.062506 237.986235 
L 1079.088335 291.872919 
L 1080.114165 240.11235 
L 1081.139994 257.711218 
L 1082.165824 244.133179 
L 1083.191654 259.502589 
L 1084.217483 258.873565 
L 1085.243313 262.039315 
L 1086.269142 259.343781 
L 1087.294972 253.855165 
L 1088.320802 240.378106 
L 1089.346631 237.37401 
L 1090.372461 215.009839 
L 1091.39829 224.202493 
L 1092.42412 219.671019 
L 1093.449949 271.403409 
L 1094.475779 255.690273 
L 1095.501609 249.598728 
L 1096.527438 215.825781 
L 1098.579097 252.624784 
L 1099.604927 227.946584 
L 1100.630757 237.053241 
L 1101.656586 248.53707 
L 1102.682416 269.302089 
L 1103.708245 241.095619 
L 1104.734075 222.768424 
L 1105.759904 242.436326 
L 1106.785734 238.171434 
L 1107.811564 229.386688 
L 1108.837393 239.735174 
L 1109.863223 248.265388 
L 1110.889052 240.591622 
L 1111.914882 267.735622 
L 1112.940711 242.441372 
L 1113.966541 247.496838 
L 1114.992371 247.201494 
L 1116.0182 225.202108 
L 1117.04403 241.131122 
L 1118.069859 219.412131 
L 1119.095689 241.887648 
L 1120.121519 253.851178 
L 1121.147348 240.183962 
L 1122.173178 253.1446 
L 1123.199007 230.987016 
L 1124.224837 231.999184 
L 1125.250666 239.524714 
L 1126.276496 237.755512 
L 1127.302326 217.742705 
L 1128.328155 244.568981 
L 1129.353985 248.478391 
L 1130.379814 240.503541 
L 1131.405644 295.023621 
L 1132.431473 289.029093 
L 1133.457303 303.19551 
L 1135.508962 290.568985 
L 1136.534792 291.095498 
L 1137.560621 310.094033 
L 1138.586451 295.836287 
L 1139.612281 299.070492 
L 1140.63811 291.837209 
L 1141.66394 270.888166 
L 1142.689769 285.189104 
L 1143.715599 314.223081 
L 1144.741428 288.93302 
L 1145.767258 289.066111 
L 1146.793088 286.568327 
L 1147.818917 298.395954 
L 1148.844747 291.161983 
L 1149.870576 292.325462 
L 1150.896406 303.097123 
L 1151.922235 294.429644 
L 1152.948065 289.300296 
L 1153.973895 279.316082 
L 1154.999724 286.931117 
L 1156.025554 281.478825 
L 1157.051383 303.613277 
L 1158.077213 290.656855 
L 1159.103043 289.863474 
L 1160.128872 300.763765 
L 1161.154702 296.336649 
L 1162.180531 294.965538 
L 1163.206361 308.832795 
L 1164.23219 299.009608 
L 1165.25802 337.32706 
L 1166.28385 328.170336 
L 1167.309679 328.066358 
L 1168.335509 290.838887 
L 1169.361338 291.777018 
L 1170.387168 310.99455 
L 1171.412998 300.675416 
L 1172.438827 270.891555 
L 1173.464657 281.927447 
L 1174.490486 286.164004 
L 1175.516316 287.729213 
L 1176.542145 294.553044 
L 1177.567975 295.432209 
L 1178.593805 301.792721 
L 1179.619634 312.370798 
L 1180.645464 295.371436 
L 1181.671293 304.573112 
L 1182.697123 305.455402 
L 1183.722952 302.302086 
L 1184.748782 321.06417 
L 1185.774612 304.863932 
L 1186.800441 346.526116 
L 1187.826271 311.21364 
L 1188.8521 313.672842 
L 1189.87793 314.594853 
L 1190.90376 297.406079 
L 1191.929589 315.102375 
L 1192.955419 305.880539 
L 1193.981248 302.425003 
L 1195.007078 308.621054 
L 1196.032907 309.036452 
L 1197.058737 304.455735 
L 1198.084567 298.997124 
L 1199.110396 296.066399 
L 1200.136226 308.556627 
L 1201.162055 299.721739 
L 1202.187885 305.173326 
L 1203.213714 309.09076 
L 1204.239544 297.767105 
L 1205.265374 302.587931 
L 1206.291203 284.530978 
L 1207.317033 303.296542 
L 1208.342862 273.17089 
L 1209.368692 307.717697 
L 1210.394522 321.599057 
L 1211.420351 293.663485 
L 1212.446181 298.362139 
L 1213.47201 315.418848 
L 1214.49784 311.259159 
L 1215.523669 314.334756 
L 1216.549499 309.051586 
L 1217.575329 340.991856 
L 1218.601158 327.971065 
L 1219.626988 308.593273 
L 1220.652817 315.229288 
L 1222.704477 307.13162 
L 1223.730306 315.776976 
L 1224.756136 331.958574 
L 1225.781965 280.59762 
L 1226.807795 281.511774 
L 1227.833624 300.829899 
L 1228.859454 302.443148 
L 1229.885284 314.411868 
L 1230.911113 318.0356 
L 1231.936943 313.146715 
L 1232.962772 313.209936 
L 1233.988602 333.637077 
L 1235.014431 329.740319 
L 1236.040261 307.431262 
L 1237.066091 299.659373 
L 1238.09192 310.108712 
L 1239.11775 305.366091 
L 1240.143579 308.432519 
L 1241.169409 307.645666 
L 1242.195239 305.317232 
L 1243.221068 287.145279 
L 1244.246898 301.445981 
L 1245.272727 301.338846 
L 1245.272727 301.338846 
" style="fill:none;stroke:#1f77b4;stroke-linecap:square;stroke-width:1.5;"/>
   </g>
   <g id="line2d_19">
    <path clip-path="url(#pab117563a3)" d="M 230.727273 579.767555 
L 231.753102 571.821087 
L 232.778932 552.762956 
L 233.804761 550.820401 
L 234.830591 560.31314 
L 235.856421 527.203219 
L 236.88225 548.613561 
L 237.90808 539.019661 
L 238.933909 548.616413 
L 239.959739 533.828603 
L 240.985569 544.786343 
L 242.011398 543.952731 
L 243.037228 535.398049 
L 244.063057 536.452079 
L 245.088887 526.496818 
L 246.114716 529.7729 
L 248.166376 488.229064 
L 249.192205 542.824011 
L 251.243864 495.902949 
L 252.269694 509.887385 
L 253.295523 509.119191 
L 254.321353 494.636273 
L 255.347183 487.848066 
L 256.373012 502.783925 
L 257.398842 500.624047 
L 258.424671 506.682216 
L 259.450501 494.312777 
L 260.476331 503.777471 
L 261.50216 489.967326 
L 262.52799 491.711183 
L 263.553819 482.742335 
L 264.579649 462.910043 
L 265.605478 491.751947 
L 266.631308 479.195068 
L 267.657138 453.835116 
L 268.682967 450.929602 
L 269.708797 491.393452 
L 270.734626 439.116954 
L 271.760456 495.009622 
L 272.786286 507.926341 
L 273.812115 464.429917 
L 274.837945 473.710551 
L 275.863774 468.504576 
L 276.889604 468.185415 
L 277.915433 491.393991 
L 278.941263 495.15725 
L 279.967093 482.89451 
L 280.992922 482.292699 
L 282.018752 504.313343 
L 284.070411 482.752347 
L 285.09624 508.524246 
L 286.12207 512.662268 
L 287.1479 497.854141 
L 288.173729 512.263368 
L 289.199559 509.339914 
L 290.225388 517.097729 
L 291.251218 437.421508 
L 292.277048 431.953878 
L 293.302877 438.50397 
L 294.328707 455.9434 
L 295.354536 424.34025 
L 296.380366 416.414962 
L 297.406195 421.490366 
L 298.432025 425.965754 
L 299.457855 412.329286 
L 300.483684 427.371245 
L 301.509514 413.648891 
L 302.535343 362.121991 
L 303.561173 414.330417 
L 304.587002 419.717027 
L 305.612832 415.875096 
L 306.638662 386.912962 
L 307.664491 372.418532 
L 308.690321 416.83711 
L 309.71615 419.260906 
L 310.74198 414.398732 
L 311.76781 386.935433 
L 312.793639 353.703324 
L 313.819469 361.263418 
L 314.845298 372.094038 
L 315.871128 404.3564 
L 316.896957 356.218796 
L 317.922787 362.521216 
L 318.948617 384.064071 
L 319.974446 430.01819 
L 321.000276 375.947981 
L 322.026105 372.386628 
L 323.051935 392.282947 
L 324.077765 330.11038 
L 325.103594 386.009895 
L 326.129424 368.733634 
L 327.155253 389.46939 
L 328.181083 426.997802 
L 329.206912 440.773507 
L 330.232742 431.960496 
L 331.258572 417.106763 
L 332.284401 464.501194 
L 333.310231 412.151002 
L 334.33606 456.645772 
L 335.36189 434.298005 
L 336.387719 486.718267 
L 337.413549 439.930434 
L 338.439379 470.676778 
L 339.465208 472.404299 
L 340.491038 443.788903 
L 341.516867 491.113219 
L 342.542697 473.440009 
L 343.568527 337.608688 
L 344.594356 389.227441 
L 345.620186 399.805514 
L 346.646015 447.165831 
L 347.671845 407.890187 
L 348.697674 384.572706 
L 349.723504 364.50759 
L 350.749334 412.937466 
L 351.775163 400.781878 
L 352.800993 421.824792 
L 353.826822 435.047522 
L 354.852652 427.979263 
L 355.878481 413.475207 
L 356.904311 438.807689 
L 357.930141 418.657309 
L 358.95597 441.116891 
L 359.9818 444.211113 
L 361.007629 385.227964 
L 362.033459 310.573176 
L 363.059289 385.44642 
L 364.085118 400.33223 
L 365.110948 377.356684 
L 366.136777 426.759058 
L 367.162607 393.893356 
L 368.188436 389.975638 
L 369.214266 416.47341 
L 370.240096 420.016843 
L 371.265925 440.611943 
L 372.291755 418.999711 
L 373.317584 417.830282 
L 374.343414 412.474116 
L 375.369243 449.23644 
L 376.395073 435.431188 
L 377.420903 436.572032 
L 378.446732 376.569734 
L 379.472562 325.045668 
L 380.498391 339.299085 
L 381.524221 382.661153 
L 382.550051 384.516488 
L 383.57588 365.09799 
L 384.60171 384.864952 
L 385.627539 400.234108 
L 386.653369 355.263357 
L 387.679198 370.966324 
L 388.705028 415.20564 
L 389.730858 414.401576 
L 390.756687 438.992075 
L 391.782517 291.348843 
L 392.808346 507.557449 
L 394.860006 466.793435 
L 395.885835 465.601816 
L 396.911665 483.952042 
L 397.937494 470.357364 
L 398.963324 438.214822 
L 399.989153 475.878263 
L 401.014983 505.392395 
L 402.040813 470.26028 
L 403.066642 486.111811 
L 404.092472 463.912869 
L 405.118301 503.959153 
L 406.144131 446.379699 
L 407.16996 462.301259 
L 408.19579 454.24053 
L 409.22162 502.638584 
L 410.247449 485.266459 
L 411.273279 474.621193 
L 412.299108 468.733914 
L 413.324938 499.656247 
L 414.350768 465.827758 
L 415.376597 483.202712 
L 416.402427 497.264548 
L 417.428256 458.55617 
L 418.454086 455.830169 
L 419.479915 496.847598 
L 420.505745 460.075851 
L 421.531575 478.207173 
L 422.557404 490.378207 
L 423.583234 468.003336 
L 424.609063 465.159475 
L 425.634893 500.431295 
L 426.660722 478.683762 
L 427.686552 466.450823 
L 428.712382 490.871095 
L 429.738211 496.213338 
L 430.764041 465.927418 
L 431.78987 503.298966 
L 432.8157 451.647349 
L 433.84153 460.01165 
L 434.867359 502.111728 
L 435.893189 456.12046 
L 436.919018 471.339583 
L 437.944848 478.617694 
L 438.970677 470.844023 
L 439.996507 472.98877 
L 441.022337 491.763206 
L 442.048166 470.583444 
L 443.073996 441.110059 
L 444.099825 491.222448 
L 445.125655 471.398912 
L 446.151485 462.064243 
L 447.177314 482.441722 
L 448.203144 455.910994 
L 449.228973 456.823116 
L 450.254803 479.217945 
L 451.280632 456.493747 
L 452.306462 465.018337 
L 453.332292 496.237293 
L 454.358121 462.410554 
L 455.383951 474.408871 
L 456.40978 494.563644 
L 457.43561 427.938576 
L 458.461439 448.257051 
L 459.487269 494.874496 
L 460.513099 456.417252 
L 461.538928 481.480752 
L 462.564758 490.892874 
L 463.590587 452.43735 
L 464.616417 451.7831 
L 465.642247 501.731462 
L 466.668076 456.294536 
L 467.693906 455.298082 
L 468.719735 502.564769 
L 469.745565 459.847126 
L 470.771394 435.636817 
L 471.797224 470.821071 
L 472.823054 448.917453 
L 473.848883 478.054916 
L 474.874713 513.226941 
L 475.900542 488.751734 
L 476.926372 458.456576 
L 477.952201 382.765763 
L 478.978031 355.916046 
L 480.003861 422.703711 
L 481.02969 408.517079 
L 482.05552 401.272075 
L 483.081349 405.14094 
L 484.107179 397.976171 
L 485.133009 419.444508 
L 486.158838 375.069729 
L 487.184668 399.656583 
L 488.210497 357.724666 
L 489.236327 374.335629 
L 490.262156 443.835778 
L 491.287986 370.431518 
L 492.313816 404.119419 
L 493.339645 398.373418 
L 494.365475 381.319973 
L 495.391304 447.554604 
L 496.417134 395.407946 
L 497.442964 375.539994 
L 498.468793 350.563236 
L 499.494623 358.317391 
L 500.520452 401.978374 
L 501.546282 452.353625 
L 503.597941 357.62737 
L 504.623771 388.407861 
L 505.6496 397.92253 
L 506.67543 389.110033 
L 507.701259 415.896255 
L 508.727089 374.991573 
L 509.752918 419.166882 
L 510.778748 354.607296 
L 511.804578 403.158257 
L 512.830407 405.15997 
L 513.856237 486.906174 
L 514.882066 391.202502 
L 515.907896 425.2712 
L 516.933726 357.421706 
L 517.959555 444.362909 
L 518.985385 371.559538 
L 520.011214 407.664575 
L 521.037044 316.722542 
L 522.062873 422.310487 
L 523.088703 432.566931 
L 524.114533 489.055108 
L 525.140362 374.919568 
L 526.166192 421.998627 
L 527.192021 388.790474 
L 528.217851 426.082121 
L 529.24368 398.758375 
L 530.26951 418.587934 
L 531.29534 392.305823 
L 532.321169 410.871414 
L 533.346999 355.509528 
L 534.372828 402.116082 
L 535.398658 363.251319 
L 536.424488 398.266229 
L 537.450317 387.136219 
L 538.476147 430.171502 
L 539.501976 388.746324 
L 540.527806 401.415963 
L 541.553635 358.059107 
L 542.579465 430.800638 
L 543.605295 407.026262 
L 544.631124 436.136996 
L 545.656954 326.779313 
L 546.682783 251.460696 
L 547.708613 235.655559 
L 548.734443 333.932244 
L 549.760272 264.967802 
L 550.786102 272.400261 
L 551.811931 269.91758 
L 552.837761 234.151434 
L 553.86359 244.755133 
L 554.88942 259.163563 
L 555.91525 271.426798 
L 556.941079 250.223502 
L 557.966909 275.184609 
L 558.992738 252.820405 
L 560.018568 248.986031 
L 561.044397 255.001674 
L 562.070227 238.046773 
L 563.096057 248.992222 
L 564.121886 254.114384 
L 565.147716 244.362068 
L 566.173545 222.284888 
L 567.199375 257.301237 
L 568.225205 378.680533 
L 569.251034 253.475527 
L 570.276864 269.327171 
L 572.328523 234.988217 
L 573.354352 227.453674 
L 574.380182 268.789307 
L 575.406012 240.297206 
L 576.431841 261.59815 
L 577.457671 235.590029 
L 578.4835 281.740272 
L 579.50933 239.624814 
L 580.535159 239.077193 
L 581.560989 245.589153 
L 582.586819 263.508481 
L 583.612648 232.674705 
L 584.638478 232.569251 
L 585.664307 288.191897 
L 586.690137 210.527143 
L 587.715967 225.878206 
L 588.741796 275.612142 
L 589.767626 261.870122 
L 590.793455 252.174786 
L 591.819285 220.561181 
L 592.845114 215.738416 
L 593.870944 248.817671 
L 594.896774 259.1405 
L 595.922603 246.018465 
L 596.948433 329.767417 
L 597.974262 248.151102 
L 599.000092 244.636538 
L 600.025922 286.099644 
L 601.051751 232.080302 
L 602.077581 258.891554 
L 603.10341 254.190049 
L 604.12924 316.814903 
L 605.155069 278.93408 
L 606.180899 282.525898 
L 607.206729 262.947781 
L 608.232558 232.646151 
L 609.258388 210.314659 
L 610.284217 247.355726 
L 611.310047 239.454767 
L 612.335876 297.773731 
L 613.361706 245.141199 
L 614.387536 221.732987 
L 615.413365 245.932986 
L 616.439195 242.793725 
L 617.465024 232.12854 
L 618.490854 238.303042 
L 619.516684 250.432739 
L 620.542513 257.495492 
L 621.568343 229.203363 
L 622.594172 264.009641 
L 623.620002 222.927505 
L 624.645831 205.323215 
L 625.671661 227.092236 
L 626.697491 221.29409 
L 627.72332 244.764039 
L 628.74915 278.709018 
L 629.774979 226.397226 
L 630.800809 213.76446 
L 631.826638 218.42864 
L 632.852468 211.031722 
L 633.878298 233.115961 
L 634.904127 225.632457 
L 635.929957 247.152944 
L 636.955786 251.655392 
L 637.981616 223.794705 
L 639.007446 173.241912 
L 640.033275 188.903342 
L 641.059105 219.657875 
L 642.084934 179.146616 
L 643.110764 291.645106 
L 644.136593 246.509497 
L 645.162423 210.42931 
L 646.188253 212.973467 
L 647.214082 217.985696 
L 648.239912 215.191067 
L 649.265741 241.253246 
L 650.291571 303.911772 
L 651.3174 202.282916 
L 652.34323 236.41377 
L 653.36906 254.526891 
L 654.394889 233.688667 
L 655.420719 228.636454 
L 656.446548 226.251009 
L 657.472378 246.48047 
L 658.498208 226.615093 
L 659.524037 239.088111 
L 660.549867 246.651597 
L 661.575696 217.9985 
L 662.601526 234.503742 
L 663.627355 238.278691 
L 664.653185 206.935025 
L 665.679015 212.85288 
L 666.704844 216.477013 
L 667.730674 251.604016 
L 668.756503 268.005877 
L 669.782333 238.64304 
L 670.808163 230.424627 
L 671.833992 234.567892 
L 672.859822 266.496799 
L 673.885651 198.315145 
L 674.911481 211.068759 
L 675.93731 194.670553 
L 676.96314 229.784 
L 677.98897 293.906038 
L 679.014799 202.338059 
L 680.040629 206.361365 
L 681.066458 283.453766 
L 682.092288 210.278351 
L 683.118117 207.170824 
L 684.143947 208.077559 
L 685.169777 213.377831 
L 686.195606 174.229357 
L 687.221436 203.42017 
L 688.247265 226.367697 
L 689.273095 187.744397 
L 690.298925 204.976755 
L 691.324754 172.98748 
L 692.350584 191.819934 
L 693.376413 218.21424 
L 694.402243 279.078369 
L 695.428072 187.633115 
L 696.453902 212.350086 
L 697.479732 217.045172 
L 698.505561 260.150558 
L 699.531391 219.10381 
L 700.55722 232.505627 
L 701.58305 234.468128 
L 702.608879 214.041422 
L 703.634709 219.258954 
L 704.660539 185.089734 
L 705.686368 204.667566 
L 706.712198 214.949421 
L 707.738027 196.61502 
L 708.763857 186.011163 
L 709.789687 194.92006 
L 710.815516 231.676882 
L 711.841346 223.133955 
L 712.867175 207.500704 
L 713.893005 236.388871 
L 714.918834 184.041248 
L 715.944664 197.52268 
L 716.970494 221.415575 
L 717.996323 197.925305 
L 719.022153 224.798713 
L 720.047982 213.802047 
L 721.073812 226.057641 
L 722.099642 202.738533 
L 723.125471 212.0735 
L 724.151301 194.868155 
L 725.17713 198.057811 
L 726.20296 223.739342 
L 727.228789 204.185569 
L 728.254619 212.000071 
L 729.280449 212.977684 
L 730.306278 205.310442 
L 731.332108 202.664758 
L 732.357937 190.345705 
L 733.383767 180.91744 
L 734.409596 173.123866 
L 735.435426 201.382973 
L 736.461256 194.015156 
L 737.487085 222.361722 
L 738.512915 191.464944 
L 739.538744 221.44455 
L 740.564574 200.260208 
L 741.590404 208.519598 
L 742.616233 198.814786 
L 743.642063 221.216827 
L 744.667892 205.448943 
L 745.693722 293.700135 
L 746.719551 215.67058 
L 747.745381 221.770256 
L 748.771211 208.085825 
L 749.79704 229.926954 
L 750.82287 216.908927 
L 751.848699 211.119219 
L 752.874529 189.879266 
L 753.900358 203.233442 
L 754.926188 193.556154 
L 755.952018 222.619653 
L 756.977847 206.868341 
L 758.003677 208.700891 
L 759.029506 199.358014 
L 760.055336 196.686145 
L 761.081166 203.485574 
L 762.106995 199.921616 
L 763.132825 206.53024 
L 764.158654 195.457904 
L 765.184484 191.178183 
L 766.210313 194.112637 
L 767.236143 230.299005 
L 768.261973 200.536239 
L 769.287802 213.048763 
L 770.313632 219.834462 
L 771.339461 224.496359 
L 772.365291 207.323794 
L 773.391121 192.877426 
L 774.41695 195.871186 
L 775.44278 175.950307 
L 776.468609 180.824719 
L 777.494439 197.987156 
L 778.520268 200.926697 
L 779.546098 164.007422 
L 780.571928 227.008207 
L 781.597757 190.052125 
L 782.623587 196.017083 
L 783.649416 202.785448 
L 784.675246 192.850067 
L 785.701075 142.422071 
L 786.726905 175.310543 
L 787.752735 186.293846 
L 788.778564 177.405624 
L 789.804394 179.847308 
L 790.830223 200.871528 
L 791.856053 197.30851 
L 792.881883 240.88094 
L 793.907712 162.81513 
L 794.933542 188.032585 
L 795.959371 193.818536 
L 796.985201 166.029769 
L 799.03686 228.11532 
L 800.06269 141.622994 
L 801.088519 186.013836 
L 802.114349 163.248636 
L 803.140178 193.008391 
L 804.166008 175.849044 
L 805.191837 188.1453 
L 806.217667 193.432384 
L 807.243497 213.492526 
L 808.269326 186.183891 
L 809.295156 168.879681 
L 810.320985 166.745602 
L 811.346815 186.624923 
L 812.372645 186.619435 
L 813.398474 255.667752 
L 814.424304 178.191173 
L 815.450133 196.424131 
L 816.475963 210.528856 
L 817.501792 200.132915 
L 818.527622 199.461937 
L 819.553452 229.228435 
L 820.579281 206.804216 
L 821.605111 201.474242 
L 822.63094 171.550216 
L 823.65677 179.541377 
L 824.6826 308.266585 
L 825.708429 222.81652 
L 826.734259 192.359643 
L 827.760088 205.278085 
L 828.785918 178.008052 
L 829.811747 196.112725 
L 830.837577 175.41701 
L 831.863407 172.02608 
L 832.889236 162.886684 
L 833.915066 215.615819 
L 834.940895 201.717783 
L 836.992554 178.169727 
L 838.018384 207.266371 
L 839.044214 171.002598 
L 840.070043 158.814219 
L 841.095873 168.56213 
L 842.121702 174.489307 
L 844.173362 209.698721 
L 845.199191 183.262825 
L 846.225021 182.187868 
L 847.25085 188.150431 
L 848.27668 215.232026 
L 849.302509 194.716692 
L 850.328339 203.538793 
L 851.354169 288.183384 
L 852.379998 201.919057 
L 853.405828 197.199904 
L 854.431657 208.382513 
L 855.457487 187.827618 
L 856.483316 198.089764 
L 857.509146 185.731881 
L 858.534976 175.89087 
L 859.560805 163.708793 
L 860.586635 164.74797 
L 861.612464 182.255247 
L 862.638294 212.046883 
L 863.664124 197.835899 
L 864.689953 197.588672 
L 865.715783 192.272771 
L 866.741612 181.359774 
L 867.767442 157.230696 
L 868.793271 174.668586 
L 869.819101 155.005734 
L 870.844931 199.283239 
L 871.87076 178.933976 
L 872.89659 210.42113 
L 873.922419 209.234343 
L 874.948249 202.756937 
L 875.974078 190.788922 
L 876.999908 202.645269 
L 878.025738 188.318096 
L 879.051567 210.227472 
L 880.077397 202.709261 
L 881.103226 204.896593 
L 882.129056 182.088339 
L 883.154886 199.657423 
L 884.180715 198.628253 
L 885.206545 188.630505 
L 886.232374 194.532135 
L 887.258204 195.165818 
L 888.284033 189.991697 
L 889.309863 181.664511 
L 890.335693 163.149636 
L 891.361522 228.446832 
L 892.387352 147.805456 
L 893.413181 230.184789 
L 894.439011 156.262225 
L 895.464841 167.459723 
L 896.49067 182.338737 
L 897.5165 188.229916 
L 898.542329 229.755511 
L 899.568159 217.727943 
L 900.593988 194.32641 
L 901.619818 198.05767 
L 902.645648 197.39714 
L 903.671477 242.665467 
L 904.697307 209.001493 
L 905.723136 211.543983 
L 906.748966 189.178719 
L 907.774795 189.059995 
L 908.800625 229.369685 
L 909.826455 203.376539 
L 910.852284 228.519714 
L 911.878114 210.865597 
L 912.903943 174.347392 
L 913.929773 180.013873 
L 914.955603 169.872544 
L 915.981432 180.027566 
L 917.007262 281.03028 
L 918.033091 181.799147 
L 919.058921 164.394224 
L 920.08475 191.228454 
L 921.11058 161.431911 
L 922.13641 192.677552 
L 923.162239 200.206564 
L 924.188069 188.288054 
L 925.213898 168.973853 
L 926.239728 175.952396 
L 927.265557 168.275161 
L 928.291387 173.626034 
L 929.317217 159.858801 
L 930.343046 187.949068 
L 931.368876 163.914491 
L 932.394705 198.680883 
L 933.420535 153.419009 
L 934.446365 171.947956 
L 935.472194 171.969111 
L 936.498024 197.542888 
L 937.523853 198.697714 
L 938.549683 175.986969 
L 939.575512 166.669148 
L 940.601342 159.774743 
L 941.627172 148.885518 
L 942.653001 141.905367 
L 943.678831 142.544676 
L 944.70466 156.24086 
L 945.73049 163.726121 
L 946.75632 156.25413 
L 947.782149 161.357593 
L 948.807979 160.419865 
L 949.833808 164.939695 
L 950.859638 174.842441 
L 951.885467 173.396942 
L 952.911297 157.471141 
L 953.937127 160.733504 
L 954.962956 171.441771 
L 955.988786 233.901818 
L 958.040445 153.349857 
L 959.066274 186.865882 
L 960.092104 150.808056 
L 961.117934 176.984317 
L 962.143763 209.874242 
L 963.169593 184.432391 
L 964.195422 168.112333 
L 965.221252 177.103462 
L 966.247082 166.489243 
L 967.272911 164.851672 
L 968.298741 142.411506 
L 969.32457 154.851653 
L 970.3504 158.618528 
L 971.376229 159.679117 
L 972.402059 135.107715 
L 973.427889 180.534818 
L 974.453718 165.767804 
L 975.479548 171.67951 
L 976.505377 173.119352 
L 977.531207 267.972194 
L 978.557036 137.370393 
L 979.582866 154.808446 
L 980.608696 421.741094 
L 981.634525 174.075267 
L 982.660355 147.947238 
L 983.686184 134.868137 
L 984.712014 159.837392 
L 985.737844 169.000608 
L 986.763673 139.684808 
L 987.789503 167.344324 
L 988.815332 159.902312 
L 989.841162 163.55946 
L 990.866991 169.241287 
L 991.892821 167.624132 
L 992.918651 164.519851 
L 993.94448 165.086646 
L 995.996139 168.478275 
L 997.021969 152.592527 
L 998.047799 164.431883 
L 999.073628 301.362777 
L 1000.099458 182.636833 
L 1001.125287 159.318987 
L 1002.151117 158.53441 
L 1003.176946 171.196145 
L 1004.202776 174.881906 
L 1005.228606 158.853451 
L 1006.254435 219.30166 
L 1007.280265 159.612508 
L 1008.306094 254.935065 
L 1009.331924 157.38725 
L 1010.357753 188.324632 
L 1011.383583 167.930977 
L 1012.409413 180.977899 
L 1013.435242 170.334366 
L 1014.461072 182.408345 
L 1015.486901 166.919276 
L 1016.512731 155.672126 
L 1017.538561 166.741929 
L 1018.56439 167.318016 
L 1019.59022 158.198266 
L 1020.616049 150.49313 
L 1021.641879 165.333259 
L 1022.667708 168.991963 
L 1023.693538 145.324559 
L 1024.719368 160.985586 
L 1025.745197 213.567493 
L 1026.771027 187.340027 
L 1027.796856 146.323352 
L 1028.822686 137.957033 
L 1029.848515 179.082165 
L 1030.874345 183.236873 
L 1031.900175 148.948078 
L 1032.926004 156.463939 
L 1033.951834 168.384988 
L 1034.977663 173.986953 
L 1036.003493 143.414455 
L 1037.029323 156.308342 
L 1038.055152 179.948723 
L 1039.080982 165.783674 
L 1040.106811 156.386645 
L 1041.132641 111.6 
L 1042.15847 133.937143 
L 1043.1843 170.658112 
L 1044.21013 167.014546 
L 1045.235959 159.555458 
L 1046.261789 166.406971 
L 1047.287618 212.597914 
L 1048.313448 200.046366 
L 1049.339278 154.226151 
L 1050.365107 175.512952 
L 1051.390937 193.86449 
L 1052.416766 187.880594 
L 1053.442596 158.885749 
L 1054.468425 167.625615 
L 1055.494255 183.10228 
L 1056.520085 159.392177 
L 1057.545914 167.036792 
L 1058.571744 187.207456 
L 1059.597573 191.333291 
L 1060.623403 173.547577 
L 1061.649232 170.980905 
L 1062.675062 188.695506 
L 1063.700892 169.984601 
L 1064.726721 169.111447 
L 1065.752551 193.411579 
L 1066.77838 188.917201 
L 1067.80421 195.815212 
L 1068.83004 155.032218 
L 1069.855869 185.071809 
L 1070.881699 176.761079 
L 1071.907528 188.723219 
L 1072.933358 175.864808 
L 1073.959187 168.274845 
L 1074.985017 157.878049 
L 1076.010847 190.955191 
L 1077.036676 155.243624 
L 1078.062506 199.389771 
L 1079.088335 193.838219 
L 1080.114165 154.489136 
L 1081.139994 200.088745 
L 1082.165824 165.070135 
L 1083.191654 186.847148 
L 1084.217483 196.323369 
L 1085.243313 176.093232 
L 1086.269142 165.165187 
L 1088.320802 195.651434 
L 1089.346631 178.878168 
L 1090.372461 164.497906 
L 1091.39829 179.568729 
L 1092.42412 181.033146 
L 1093.449949 175.147623 
L 1094.475779 157.154148 
L 1095.501609 163.202204 
L 1096.527438 183.841967 
L 1097.553268 168.094206 
L 1098.579097 163.117987 
L 1099.604927 167.959974 
L 1100.630757 180.68445 
L 1101.656586 162.922475 
L 1102.682416 177.966537 
L 1103.708245 174.22277 
L 1104.734075 194.524483 
L 1105.759904 171.872771 
L 1106.785734 169.359983 
L 1107.811564 171.547667 
L 1108.837393 182.588186 
L 1109.863223 171.284504 
L 1110.889052 164.058037 
L 1111.914882 193.086741 
L 1112.940711 198.631745 
L 1113.966541 139.813764 
L 1116.0182 170.029011 
L 1117.04403 178.737243 
L 1118.069859 164.830409 
L 1119.095689 180.326433 
L 1120.121519 178.566509 
L 1121.147348 196.197547 
L 1122.173178 169.445709 
L 1123.199007 177.842821 
L 1124.224837 176.187947 
L 1125.250666 178.747905 
L 1126.276496 169.17872 
L 1127.302326 162.628718 
L 1128.328155 221.587536 
L 1129.353985 227.307109 
L 1130.379814 171.958914 
L 1131.405644 168.97807 
L 1132.431473 167.91643 
L 1133.457303 193.924503 
L 1134.483133 145.204527 
L 1135.508962 138.050472 
L 1136.534792 155.278731 
L 1137.560621 258.138586 
L 1138.586451 152.214852 
L 1139.612281 120.328441 
L 1140.63811 297.553174 
L 1141.66394 149.845488 
L 1142.689769 317.995152 
L 1143.715599 137.76676 
L 1144.741428 300.285644 
L 1145.767258 172.808215 
L 1146.793088 302.493418 
L 1147.818917 147.512489 
L 1148.844747 312.42062 
L 1149.870576 165.664172 
L 1150.896406 288.181356 
L 1151.922235 149.928036 
L 1152.948065 298.013388 
L 1153.973895 143.79986 
L 1154.999724 390.485811 
L 1156.025554 210.376271 
L 1157.051383 304.505065 
L 1158.077213 171.274711 
L 1159.103043 305.374749 
L 1160.128872 154.374894 
L 1161.154702 306.415752 
L 1162.180531 194.606022 
L 1163.206361 291.627782 
L 1164.23219 177.966411 
L 1165.25802 326.631775 
L 1166.28385 176.688887 
L 1167.309679 394.955008 
L 1168.335509 157.74248 
L 1169.361338 304.618432 
L 1170.387168 161.980098 
L 1171.412998 306.801104 
L 1172.438827 152.878429 
L 1173.464657 304.455116 
L 1174.490486 184.692514 
L 1175.516316 394.931116 
L 1176.542145 178.922226 
L 1177.567975 310.740235 
L 1178.593805 155.975805 
L 1179.619634 309.209489 
L 1180.645464 158.102968 
L 1181.671293 309.015875 
L 1182.697123 134.988578 
L 1183.722952 329.341694 
L 1184.748782 155.642312 
L 1185.774612 311.895708 
L 1186.800441 259.509008 
L 1187.826271 399.719531 
L 1188.8521 159.374279 
L 1189.87793 304.096144 
L 1190.90376 159.334458 
L 1191.929589 300.725534 
L 1192.955419 146.615258 
L 1193.981248 307.710978 
L 1195.007078 160.996415 
L 1196.032907 319.767231 
L 1197.058737 142.990876 
L 1198.084567 313.209866 
L 1199.110396 164.517217 
L 1200.136226 320.900986 
L 1201.162055 145.478115 
L 1202.187885 320.380495 
L 1203.213714 172.111086 
L 1204.239544 339.719213 
L 1205.265374 193.937511 
L 1206.291203 343.149228 
L 1207.317033 183.320499 
L 1208.342862 322.153114 
L 1209.368692 162.71294 
L 1210.394522 313.005145 
L 1211.420351 169.843684 
L 1212.446181 299.522617 
L 1213.47201 136.101627 
L 1214.49784 305.329917 
L 1215.523669 160.141913 
L 1216.549499 299.394574 
L 1217.575329 147.801151 
L 1218.601158 303.635544 
L 1219.626988 167.422063 
L 1220.652817 394.155733 
L 1221.678647 198.724683 
L 1222.704477 318.234142 
L 1223.730306 166.612928 
L 1224.756136 331.276409 
L 1225.781965 142.703882 
L 1226.807795 322.865175 
L 1227.833624 309.842423 
L 1228.859454 315.780298 
L 1229.885284 303.675794 
L 1230.911113 304.429119 
L 1231.936943 318.668757 
L 1232.962772 298.28934 
L 1233.988602 291.249505 
L 1235.014431 326.729415 
L 1236.040261 462.630596 
L 1237.066091 311.457535 
L 1238.09192 307.055884 
L 1239.11775 304.104854 
L 1240.143579 332.597088 
L 1241.169409 309.4764 
L 1242.195239 368.897067 
L 1243.221068 318.205444 
L 1244.246898 317.873836 
L 1245.272727 327.150162 
L 1245.272727 327.150162 
" style="fill:none;stroke:#ff7f0e;stroke-linecap:square;stroke-width:1.5;"/>
   </g>
   <g id="patch_3">
    <path d="M 180 640.8 
L 180 86.4 
" style="fill:none;stroke:#000000;stroke-linecap:square;stroke-linejoin:miter;stroke-width:0.8;"/>
   </g>
   <g id="patch_4">
    <path d="M 1296 640.8 
L 1296 86.4 
" style="fill:none;stroke:#000000;stroke-linecap:square;stroke-linejoin:miter;stroke-width:0.8;"/>
   </g>
   <g id="patch_5">
    <path d="M 180 640.8 
L 1296 640.8 
" style="fill:none;stroke:#000000;stroke-linecap:square;stroke-linejoin:miter;stroke-width:0.8;"/>
   </g>
   <g id="patch_6">
    <path d="M 180 86.4 
L 1296 86.4 
" style="fill:none;stroke:#000000;stroke-linecap:square;stroke-linejoin:miter;stroke-width:0.8;"/>
   </g>
   <g id="text_20">
    <!-- Keltner Channel (KC) Speedup -->
    <defs>
     <path d="M 9.8125 72.90625 
L 19.671875 72.90625 
L 19.671875 42.09375 
L 52.390625 72.90625 
L 65.09375 72.90625 
L 28.90625 38.921875 
L 67.671875 0 
L 54.6875 0 
L 19.671875 35.109375 
L 19.671875 0 
L 9.8125 0 
z
" id="DejaVuSans-75"/>
     <path d="M 9.421875 75.984375 
L 18.40625 75.984375 
L 18.40625 0 
L 9.421875 0 
z
" id="DejaVuSans-108"/>
     <path d="M 18.3125 70.21875 
L 18.3125 54.6875 
L 36.8125 54.6875 
L 36.8125 47.703125 
L 18.3125 47.703125 
L 18.3125 18.015625 
Q 18.3125 11.328125 20.140625 9.421875 
Q 21.96875 7.515625 27.59375 7.515625 
L 36.8125 7.515625 
L 36.8125 0 
L 27.59375 0 
Q 17.1875 0 13.234375 3.875 
Q 9.28125 7.765625 9.28125 18.015625 
L 9.28125 47.703125 
L 2.6875 47.703125 
L 2.6875 54.6875 
L 9.28125 54.6875 
L 9.28125 70.21875 
z
" id="DejaVuSans-116"/>
     <path d="M 41.109375 46.296875 
Q 39.59375 47.171875 37.8125 47.578125 
Q 36.03125 48 33.890625 48 
Q 26.265625 48 22.1875 43.046875 
Q 18.109375 38.09375 18.109375 28.8125 
L 18.109375 0 
L 9.078125 0 
L 9.078125 54.6875 
L 18.109375 54.6875 
L 18.109375 46.1875 
Q 20.953125 51.171875 25.484375 53.578125 
Q 30.03125 56 36.53125 56 
Q 37.453125 56 38.578125 55.875 
Q 39.703125 55.765625 41.0625 55.515625 
z
" id="DejaVuSans-114"/>
     <path id="DejaVuSans-32"/>
     <path d="M 64.40625 67.28125 
L 64.40625 56.890625 
Q 59.421875 61.53125 53.78125 63.8125 
Q 48.140625 66.109375 41.796875 66.109375 
Q 29.296875 66.109375 22.65625 58.46875 
Q 16.015625 50.828125 16.015625 36.375 
Q 16.015625 21.96875 22.65625 14.328125 
Q 29.296875 6.6875 41.796875 6.6875 
Q 48.140625 6.6875 53.78125 8.984375 
Q 59.421875 11.28125 64.40625 15.921875 
L 64.40625 5.609375 
Q 59.234375 2.09375 53.4375 0.328125 
Q 47.65625 -1.421875 41.21875 -1.421875 
Q 24.65625 -1.421875 15.125 8.703125 
Q 5.609375 18.84375 5.609375 36.375 
Q 5.609375 53.953125 15.125 64.078125 
Q 24.65625 74.21875 41.21875 74.21875 
Q 47.75 74.21875 53.53125 72.484375 
Q 59.328125 70.75 64.40625 67.28125 
z
" id="DejaVuSans-67"/>
     <path d="M 54.890625 33.015625 
L 54.890625 0 
L 45.90625 0 
L 45.90625 32.71875 
Q 45.90625 40.484375 42.875 44.328125 
Q 39.84375 48.1875 33.796875 48.1875 
Q 26.515625 48.1875 22.3125 43.546875 
Q 18.109375 38.921875 18.109375 30.90625 
L 18.109375 0 
L 9.078125 0 
L 9.078125 75.984375 
L 18.109375 75.984375 
L 18.109375 46.1875 
Q 21.34375 51.125 25.703125 53.5625 
Q 30.078125 56 35.796875 56 
Q 45.21875 56 50.046875 50.171875 
Q 54.890625 44.34375 54.890625 33.015625 
z
" id="DejaVuSans-104"/>
     <path d="M 34.28125 27.484375 
Q 23.390625 27.484375 19.1875 25 
Q 14.984375 22.515625 14.984375 16.5 
Q 14.984375 11.71875 18.140625 8.90625 
Q 21.296875 6.109375 26.703125 6.109375 
Q 34.1875 6.109375 38.703125 11.40625 
Q 43.21875 16.703125 43.21875 25.484375 
L 43.21875 27.484375 
z
M 52.203125 31.203125 
L 52.203125 0 
L 43.21875 0 
L 43.21875 8.296875 
Q 40.140625 3.328125 35.546875 0.953125 
Q 30.953125 -1.421875 24.3125 -1.421875 
Q 15.921875 -1.421875 10.953125 3.296875 
Q 6 8.015625 6 15.921875 
Q 6 25.140625 12.171875 29.828125 
Q 18.359375 34.515625 30.609375 34.515625 
L 43.21875 34.515625 
L 43.21875 35.40625 
Q 43.21875 41.609375 39.140625 45 
Q 35.0625 48.390625 27.6875 48.390625 
Q 23 48.390625 18.546875 47.265625 
Q 14.109375 46.140625 10.015625 43.890625 
L 10.015625 52.203125 
Q 14.9375 54.109375 19.578125 55.046875 
Q 24.21875 56 28.609375 56 
Q 40.484375 56 46.34375 49.84375 
Q 52.203125 43.703125 52.203125 31.203125 
z
" id="DejaVuSans-97"/>
     <path d="M 31 75.875 
Q 24.46875 64.65625 21.28125 53.65625 
Q 18.109375 42.671875 18.109375 31.390625 
Q 18.109375 20.125 21.3125 9.0625 
Q 24.515625 -2 31 -13.1875 
L 23.1875 -13.1875 
Q 15.875 -1.703125 12.234375 9.375 
Q 8.59375 20.453125 8.59375 31.390625 
Q 8.59375 42.28125 12.203125 53.3125 
Q 15.828125 64.359375 23.1875 75.875 
z
" id="DejaVuSans-40"/>
     <path d="M 8.015625 75.875 
L 15.828125 75.875 
Q 23.140625 64.359375 26.78125 53.3125 
Q 30.421875 42.28125 30.421875 31.390625 
Q 30.421875 20.453125 26.78125 9.375 
Q 23.140625 -1.703125 15.828125 -13.1875 
L 8.015625 -13.1875 
Q 14.5 -2 17.703125 9.0625 
Q 20.90625 20.125 20.90625 31.390625 
Q 20.90625 42.671875 17.703125 53.65625 
Q 14.5 64.65625 8.015625 75.875 
z
" id="DejaVuSans-41"/>
     <path d="M 53.515625 70.515625 
L 53.515625 60.890625 
Q 47.90625 63.578125 42.921875 64.890625 
Q 37.9375 66.21875 33.296875 66.21875 
Q 25.25 66.21875 20.875 63.09375 
Q 16.5 59.96875 16.5 54.203125 
Q 16.5 49.359375 19.40625 46.890625 
Q 22.3125 44.4375 30.421875 42.921875 
L 36.375 41.703125 
Q 47.40625 39.59375 52.65625 34.296875 
Q 57.90625 29 57.90625 20.125 
Q 57.90625 9.515625 50.796875 4.046875 
Q 43.703125 -1.421875 29.984375 -1.421875 
Q 24.8125 -1.421875 18.96875 -0.25 
Q 13.140625 0.921875 6.890625 3.21875 
L 6.890625 13.375 
Q 12.890625 10.015625 18.65625 8.296875 
Q 24.421875 6.59375 29.984375 6.59375 
Q 38.421875 6.59375 43.015625 9.90625 
Q 47.609375 13.234375 47.609375 19.390625 
Q 47.609375 24.75 44.3125 27.78125 
Q 41.015625 30.8125 33.5 32.328125 
L 27.484375 33.5 
Q 16.453125 35.6875 11.515625 40.375 
Q 6.59375 45.0625 6.59375 53.421875 
Q 6.59375 63.09375 13.40625 68.65625 
Q 20.21875 74.21875 32.171875 74.21875 
Q 37.3125 74.21875 42.625 73.28125 
Q 47.953125 72.359375 53.515625 70.515625 
z
" id="DejaVuSans-83"/>
    </defs>
    <g transform="translate(647.44125 80.4)scale(0.12 -0.12)">
     <use xlink:href="#DejaVuSans-75"/>
     <use x="60.576172" xlink:href="#DejaVuSans-101"/>
     <use x="122.099609" xlink:href="#DejaVuSans-108"/>
     <use x="149.882812" xlink:href="#DejaVuSans-116"/>
     <use x="189.091797" xlink:href="#DejaVuSans-110"/>
     <use x="252.470703" xlink:href="#DejaVuSans-101"/>
     <use x="313.994141" xlink:href="#DejaVuSans-114"/>
     <use x="355.107422" xlink:href="#DejaVuSans-32"/>
     <use x="386.894531" xlink:href="#DejaVuSans-67"/>
     <use x="456.71875" xlink:href="#DejaVuSans-104"/>
     <use x="520.097656" xlink:href="#DejaVuSans-97"/>
     <use x="581.376953" xlink:href="#DejaVuSans-110"/>
     <use x="644.755859" xlink:href="#DejaVuSans-110"/>
     <use x="708.134766" xlink:href="#DejaVuSans-101"/>
     <use x="769.658203" xlink:href="#DejaVuSans-108"/>
     <use x="797.441406" xlink:href="#DejaVuSans-32"/>
     <use x="829.228516" xlink:href="#DejaVuSans-40"/>
     <use x="868.242188" xlink:href="#DejaVuSans-75"/>
     <use x="928.318359" xlink:href="#DejaVuSans-67"/>
     <use x="998.142578" xlink:href="#DejaVuSans-41"/>
     <use x="1037.15625" xlink:href="#DejaVuSans-32"/>
     <use x="1068.943359" xlink:href="#DejaVuSans-83"/>
     <use x="1132.419922" xlink:href="#DejaVuSans-112"/>
     <use x="1195.896484" xlink:href="#DejaVuSans-101"/>
     <use x="1257.419922" xlink:href="#DejaVuSans-101"/>
     <use x="1318.943359" xlink:href="#DejaVuSans-100"/>
     <use x="1382.419922" xlink:href="#DejaVuSans-117"/>
     <use x="1445.798828" xlink:href="#DejaVuSans-112"/>
    </g>
   </g>
   <g id="legend_1">
    <g id="patch_7">
     <path d="M 1185.373437 123.75625 
L 1289 123.75625 
Q 1291 123.75625 1291 121.75625 
L 1291 93.4 
Q 1291 91.4 1289 91.4 
L 1185.373437 91.4 
Q 1183.373437 91.4 1183.373437 93.4 
L 1183.373437 121.75625 
Q 1183.373437 123.75625 1185.373437 123.75625 
z
" style="fill:#ffffff;opacity:0.8;stroke:#cccccc;stroke-linejoin:miter;"/>
    </g>
    <g id="line2d_20">
     <path d="M 1187.373437 99.498437 
L 1207.373437 99.498437 
" style="fill:none;stroke:#1f77b4;stroke-linecap:square;stroke-width:1.5;"/>
    </g>
    <g id="line2d_21"/>
    <g id="text_21">
     <!-- numpy.float32 -->
     <defs>
      <path d="M 52 44.1875 
Q 55.375 50.25 60.0625 53.125 
Q 64.75 56 71.09375 56 
Q 79.640625 56 84.28125 50.015625 
Q 88.921875 44.046875 88.921875 33.015625 
L 88.921875 0 
L 79.890625 0 
L 79.890625 32.71875 
Q 79.890625 40.578125 77.09375 44.375 
Q 74.3125 48.1875 68.609375 48.1875 
Q 61.625 48.1875 57.5625 43.546875 
Q 53.515625 38.921875 53.515625 30.90625 
L 53.515625 0 
L 44.484375 0 
L 44.484375 32.71875 
Q 44.484375 40.625 41.703125 44.40625 
Q 38.921875 48.1875 33.109375 48.1875 
Q 26.21875 48.1875 22.15625 43.53125 
Q 18.109375 38.875 18.109375 30.90625 
L 18.109375 0 
L 9.078125 0 
L 9.078125 54.6875 
L 18.109375 54.6875 
L 18.109375 46.1875 
Q 21.1875 51.21875 25.484375 53.609375 
Q 29.78125 56 35.6875 56 
Q 41.65625 56 45.828125 52.96875 
Q 50 49.953125 52 44.1875 
z
" id="DejaVuSans-109"/>
      <path d="M 32.171875 -5.078125 
Q 28.375 -14.84375 24.75 -17.8125 
Q 21.140625 -20.796875 15.09375 -20.796875 
L 7.90625 -20.796875 
L 7.90625 -13.28125 
L 13.1875 -13.28125 
Q 16.890625 -13.28125 18.9375 -11.515625 
Q 21 -9.765625 23.484375 -3.21875 
L 25.09375 0.875 
L 2.984375 54.6875 
L 12.5 54.6875 
L 29.59375 11.921875 
L 46.6875 54.6875 
L 56.203125 54.6875 
z
" id="DejaVuSans-121"/>
      <path d="M 37.109375 75.984375 
L 37.109375 68.5 
L 28.515625 68.5 
Q 23.6875 68.5 21.796875 66.546875 
Q 19.921875 64.59375 19.921875 59.515625 
L 19.921875 54.6875 
L 34.71875 54.6875 
L 34.71875 47.703125 
L 19.921875 47.703125 
L 19.921875 0 
L 10.890625 0 
L 10.890625 47.703125 
L 2.296875 47.703125 
L 2.296875 54.6875 
L 10.890625 54.6875 
L 10.890625 58.5 
Q 10.890625 67.625 15.140625 71.796875 
Q 19.390625 75.984375 28.609375 75.984375 
z
" id="DejaVuSans-102"/>
      <path d="M 30.609375 48.390625 
Q 23.390625 48.390625 19.1875 42.75 
Q 14.984375 37.109375 14.984375 27.296875 
Q 14.984375 17.484375 19.15625 11.84375 
Q 23.34375 6.203125 30.609375 6.203125 
Q 37.796875 6.203125 41.984375 11.859375 
Q 46.1875 17.53125 46.1875 27.296875 
Q 46.1875 37.015625 41.984375 42.703125 
Q 37.796875 48.390625 30.609375 48.390625 
z
M 30.609375 56 
Q 42.328125 56 49.015625 48.375 
Q 55.71875 40.765625 55.71875 27.296875 
Q 55.71875 13.875 49.015625 6.21875 
Q 42.328125 -1.421875 30.609375 -1.421875 
Q 18.84375 -1.421875 12.171875 6.21875 
Q 5.515625 13.875 5.515625 27.296875 
Q 5.515625 40.765625 12.171875 48.375 
Q 18.84375 56 30.609375 56 
z
" id="DejaVuSans-111"/>
     </defs>
     <g transform="translate(1215.373437 102.998437)scale(0.1 -0.1)">
      <use xlink:href="#DejaVuSans-110"/>
      <use x="63.378906" xlink:href="#DejaVuSans-117"/>
      <use x="126.757812" xlink:href="#DejaVuSans-109"/>
      <use x="224.169922" xlink:href="#DejaVuSans-112"/>
      <use x="287.646484" xlink:href="#DejaVuSans-121"/>
      <use x="332.576172" xlink:href="#DejaVuSans-46"/>
      <use x="364.363281" xlink:href="#DejaVuSans-102"/>
      <use x="399.568359" xlink:href="#DejaVuSans-108"/>
      <use x="427.351562" xlink:href="#DejaVuSans-111"/>
      <use x="488.533203" xlink:href="#DejaVuSans-97"/>
      <use x="549.8125" xlink:href="#DejaVuSans-116"/>
      <use x="589.021484" xlink:href="#DejaVuSans-51"/>
      <use x="652.644531" xlink:href="#DejaVuSans-50"/>
     </g>
    </g>
    <g id="line2d_22">
     <path d="M 1187.373437 114.176562 
L 1207.373437 114.176562 
" style="fill:none;stroke:#ff7f0e;stroke-linecap:square;stroke-width:1.5;"/>
    </g>
    <g id="line2d_23"/>
    <g id="text_22">
     <!-- numpy.float64 -->
     <g transform="translate(1215.373437 117.676562)scale(0.1 -0.1)">
      <use xlink:href="#DejaVuSans-110"/>
      <use x="63.378906" xlink:href="#DejaVuSans-117"/>
      <use x="126.757812" xlink:href="#DejaVuSans-109"/>
      <use x="224.169922" xlink:href="#DejaVuSans-112"/>
      <use x="287.646484" xlink:href="#DejaVuSans-121"/>
      <use x="332.576172" xlink:href="#DejaVuSans-46"/>
      <use x="364.363281" xlink:href="#DejaVuSans-102"/>
      <use x="399.568359" xlink:href="#DejaVuSans-108"/>
      <use x="427.351562" xlink:href="#DejaVuSans-111"/>
      <use x="488.533203" xlink:href="#DejaVuSans-97"/>
      <use x="549.8125" xlink:href="#DejaVuSans-116"/>
      <use x="589.021484" xlink:href="#DejaVuSans-54"/>
      <use x="652.644531" xlink:href="#DejaVuSans-52"/>
     </g>
    </g>
   </g>
  </g>
 </g>
 <defs>
  <clipPath id="pab117563a3">
   <rect height="554.4" width="1116" x="180" y="86.4"/>
  </clipPath>
 </defs>
</svg>
