<?xml version="1.0" encoding="utf-8" standalone="no"?>
<!DOCTYPE svg PUBLIC "-//W3C//DTD SVG 1.1//EN"
  "http://www.w3.org/Graphics/SVG/1.1/DTD/svg11.dtd">
<!-- Created with matplotlib (https://matplotlib.org/) -->
<svg height="720pt" version="1.1" viewBox="0 0 1440 720" width="1440pt" xmlns="http://www.w3.org/2000/svg" xmlns:xlink="http://www.w3.org/1999/xlink">
 <defs>
  <style type="text/css">
*{stroke-linecap:butt;stroke-linejoin:round;}
  </style>
 </defs>
 <g id="figure_1">
  <g id="patch_1">
   <path d="M 0 720 
L 1440 720 
L 1440 0 
L 0 0 
z
" style="fill:#ffffff;"/>
  </g>
  <g id="axes_1">
   <g id="patch_2">
    <path d="M 180 640.8 
L 1296 640.8 
L 1296 86.4 
L 180 86.4 
z
" style="fill:#ffffff;"/>
   </g>
   <g id="matplotlib.axis_1">
    <g id="xtick_1">
     <g id="line2d_1">
      <defs>
       <path d="M 0 0 
L 0 3.5 
" id="maccd9e43d5" style="stroke:#000000;stroke-width:0.8;"/>
      </defs>
      <g>
       <use style="stroke:#000000;stroke-width:0.8;" x="333.310231" xlink:href="#maccd9e43d5" y="640.8"/>
      </g>
     </g>
     <g id="text_1">
      <!-- 100.0 -->
      <defs>
       <path d="M 12.40625 8.296875 
L 28.515625 8.296875 
L 28.515625 63.921875 
L 10.984375 60.40625 
L 10.984375 69.390625 
L 28.421875 72.90625 
L 38.28125 72.90625 
L 38.28125 8.296875 
L 54.390625 8.296875 
L 54.390625 0 
L 12.40625 0 
z
" id="DejaVuSans-49"/>
       <path d="M 31.78125 66.40625 
Q 24.171875 66.40625 20.328125 58.90625 
Q 16.5 51.421875 16.5 36.375 
Q 16.5 21.390625 20.328125 13.890625 
Q 24.171875 6.390625 31.78125 6.390625 
Q 39.453125 6.390625 43.28125 13.890625 
Q 47.125 21.390625 47.125 36.375 
Q 47.125 51.421875 43.28125 58.90625 
Q 39.453125 66.40625 31.78125 66.40625 
z
M 31.78125 74.21875 
Q 44.046875 74.21875 50.515625 64.515625 
Q 56.984375 54.828125 56.984375 36.375 
Q 56.984375 17.96875 50.515625 8.265625 
Q 44.046875 -1.421875 31.78125 -1.421875 
Q 19.53125 -1.421875 13.0625 8.265625 
Q 6.59375 17.96875 6.59375 36.375 
Q 6.59375 54.828125 13.0625 64.515625 
Q 19.53125 74.21875 31.78125 74.21875 
z
" id="DejaVuSans-48"/>
       <path d="M 10.6875 12.40625 
L 21 12.40625 
L 21 0 
L 10.6875 0 
z
" id="DejaVuSans-46"/>
      </defs>
      <g transform="translate(318.996168 655.398438)scale(0.1 -0.1)">
       <use xlink:href="#DejaVuSans-49"/>
       <use x="63.623047" xlink:href="#DejaVuSans-48"/>
       <use x="127.246094" xlink:href="#DejaVuSans-48"/>
       <use x="190.869141" xlink:href="#DejaVuSans-46"/>
       <use x="222.65625" xlink:href="#DejaVuSans-48"/>
      </g>
     </g>
    </g>
    <g id="xtick_2">
     <g id="line2d_2">
      <g>
       <use style="stroke:#000000;stroke-width:0.8;" x="435.893189" xlink:href="#maccd9e43d5" y="640.8"/>
      </g>
     </g>
     <g id="text_2">
      <!-- 200.0 -->
      <defs>
       <path d="M 19.1875 8.296875 
L 53.609375 8.296875 
L 53.609375 0 
L 7.328125 0 
L 7.328125 8.296875 
Q 12.9375 14.109375 22.625 23.890625 
Q 32.328125 33.6875 34.8125 36.53125 
Q 39.546875 41.84375 41.421875 45.53125 
Q 43.3125 49.21875 43.3125 52.78125 
Q 43.3125 58.59375 39.234375 62.25 
Q 35.15625 65.921875 28.609375 65.921875 
Q 23.96875 65.921875 18.8125 64.3125 
Q 13.671875 62.703125 7.8125 59.421875 
L 7.8125 69.390625 
Q 13.765625 71.78125 18.9375 73 
Q 24.125 74.21875 28.421875 74.21875 
Q 39.75 74.21875 46.484375 68.546875 
Q 53.21875 62.890625 53.21875 53.421875 
Q 53.21875 48.921875 51.53125 44.890625 
Q 49.859375 40.875 45.40625 35.40625 
Q 44.1875 33.984375 37.640625 27.21875 
Q 31.109375 20.453125 19.1875 8.296875 
z
" id="DejaVuSans-50"/>
      </defs>
      <g transform="translate(421.579126 655.398438)scale(0.1 -0.1)">
       <use xlink:href="#DejaVuSans-50"/>
       <use x="63.623047" xlink:href="#DejaVuSans-48"/>
       <use x="127.246094" xlink:href="#DejaVuSans-48"/>
       <use x="190.869141" xlink:href="#DejaVuSans-46"/>
       <use x="222.65625" xlink:href="#DejaVuSans-48"/>
      </g>
     </g>
    </g>
    <g id="xtick_3">
     <g id="line2d_3">
      <g>
       <use style="stroke:#000000;stroke-width:0.8;" x="538.476147" xlink:href="#maccd9e43d5" y="640.8"/>
      </g>
     </g>
     <g id="text_3">
      <!-- 300.0 -->
      <defs>
       <path d="M 40.578125 39.3125 
Q 47.65625 37.796875 51.625 33 
Q 55.609375 28.21875 55.609375 21.1875 
Q 55.609375 10.40625 48.1875 4.484375 
Q 40.765625 -1.421875 27.09375 -1.421875 
Q 22.515625 -1.421875 17.65625 -0.515625 
Q 12.796875 0.390625 7.625 2.203125 
L 7.625 11.71875 
Q 11.71875 9.328125 16.59375 8.109375 
Q 21.484375 6.890625 26.8125 6.890625 
Q 36.078125 6.890625 40.9375 10.546875 
Q 45.796875 14.203125 45.796875 21.1875 
Q 45.796875 27.640625 41.28125 31.265625 
Q 36.765625 34.90625 28.71875 34.90625 
L 20.21875 34.90625 
L 20.21875 43.015625 
L 29.109375 43.015625 
Q 36.375 43.015625 40.234375 45.921875 
Q 44.09375 48.828125 44.09375 54.296875 
Q 44.09375 59.90625 40.109375 62.90625 
Q 36.140625 65.921875 28.71875 65.921875 
Q 24.65625 65.921875 20.015625 65.03125 
Q 15.375 64.15625 9.8125 62.3125 
L 9.8125 71.09375 
Q 15.4375 72.65625 20.34375 73.4375 
Q 25.25 74.21875 29.59375 74.21875 
Q 40.828125 74.21875 47.359375 69.109375 
Q 53.90625 64.015625 53.90625 55.328125 
Q 53.90625 49.265625 50.4375 45.09375 
Q 46.96875 40.921875 40.578125 39.3125 
z
" id="DejaVuSans-51"/>
      </defs>
      <g transform="translate(524.162084 655.398438)scale(0.1 -0.1)">
       <use xlink:href="#DejaVuSans-51"/>
       <use x="63.623047" xlink:href="#DejaVuSans-48"/>
       <use x="127.246094" xlink:href="#DejaVuSans-48"/>
       <use x="190.869141" xlink:href="#DejaVuSans-46"/>
       <use x="222.65625" xlink:href="#DejaVuSans-48"/>
      </g>
     </g>
    </g>
    <g id="xtick_4">
     <g id="line2d_4">
      <g>
       <use style="stroke:#000000;stroke-width:0.8;" x="641.059105" xlink:href="#maccd9e43d5" y="640.8"/>
      </g>
     </g>
     <g id="text_4">
      <!-- 400.0 -->
      <defs>
       <path d="M 37.796875 64.3125 
L 12.890625 25.390625 
L 37.796875 25.390625 
z
M 35.203125 72.90625 
L 47.609375 72.90625 
L 47.609375 25.390625 
L 58.015625 25.390625 
L 58.015625 17.1875 
L 47.609375 17.1875 
L 47.609375 0 
L 37.796875 0 
L 37.796875 17.1875 
L 4.890625 17.1875 
L 4.890625 26.703125 
z
" id="DejaVuSans-52"/>
      </defs>
      <g transform="translate(626.745042 655.398438)scale(0.1 -0.1)">
       <use xlink:href="#DejaVuSans-52"/>
       <use x="63.623047" xlink:href="#DejaVuSans-48"/>
       <use x="127.246094" xlink:href="#DejaVuSans-48"/>
       <use x="190.869141" xlink:href="#DejaVuSans-46"/>
       <use x="222.65625" xlink:href="#DejaVuSans-48"/>
      </g>
     </g>
    </g>
    <g id="xtick_5">
     <g id="line2d_5">
      <g>
       <use style="stroke:#000000;stroke-width:0.8;" x="743.642063" xlink:href="#maccd9e43d5" y="640.8"/>
      </g>
     </g>
     <g id="text_5">
      <!-- 500.0 -->
      <defs>
       <path d="M 10.796875 72.90625 
L 49.515625 72.90625 
L 49.515625 64.59375 
L 19.828125 64.59375 
L 19.828125 46.734375 
Q 21.96875 47.46875 24.109375 47.828125 
Q 26.265625 48.1875 28.421875 48.1875 
Q 40.625 48.1875 47.75 41.5 
Q 54.890625 34.8125 54.890625 23.390625 
Q 54.890625 11.625 47.5625 5.09375 
Q 40.234375 -1.421875 26.90625 -1.421875 
Q 22.3125 -1.421875 17.546875 -0.640625 
Q 12.796875 0.140625 7.71875 1.703125 
L 7.71875 11.625 
Q 12.109375 9.234375 16.796875 8.0625 
Q 21.484375 6.890625 26.703125 6.890625 
Q 35.15625 6.890625 40.078125 11.328125 
Q 45.015625 15.765625 45.015625 23.390625 
Q 45.015625 31 40.078125 35.4375 
Q 35.15625 39.890625 26.703125 39.890625 
Q 22.75 39.890625 18.8125 39.015625 
Q 14.890625 38.140625 10.796875 36.28125 
z
" id="DejaVuSans-53"/>
      </defs>
      <g transform="translate(729.328 655.398438)scale(0.1 -0.1)">
       <use xlink:href="#DejaVuSans-53"/>
       <use x="63.623047" xlink:href="#DejaVuSans-48"/>
       <use x="127.246094" xlink:href="#DejaVuSans-48"/>
       <use x="190.869141" xlink:href="#DejaVuSans-46"/>
       <use x="222.65625" xlink:href="#DejaVuSans-48"/>
      </g>
     </g>
    </g>
    <g id="xtick_6">
     <g id="line2d_6">
      <g>
       <use style="stroke:#000000;stroke-width:0.8;" x="846.225021" xlink:href="#maccd9e43d5" y="640.8"/>
      </g>
     </g>
     <g id="text_6">
      <!-- 600.0 -->
      <defs>
       <path d="M 33.015625 40.375 
Q 26.375 40.375 22.484375 35.828125 
Q 18.609375 31.296875 18.609375 23.390625 
Q 18.609375 15.53125 22.484375 10.953125 
Q 26.375 6.390625 33.015625 6.390625 
Q 39.65625 6.390625 43.53125 10.953125 
Q 47.40625 15.53125 47.40625 23.390625 
Q 47.40625 31.296875 43.53125 35.828125 
Q 39.65625 40.375 33.015625 40.375 
z
M 52.59375 71.296875 
L 52.59375 62.3125 
Q 48.875 64.0625 45.09375 64.984375 
Q 41.3125 65.921875 37.59375 65.921875 
Q 27.828125 65.921875 22.671875 59.328125 
Q 17.53125 52.734375 16.796875 39.40625 
Q 19.671875 43.65625 24.015625 45.921875 
Q 28.375 48.1875 33.59375 48.1875 
Q 44.578125 48.1875 50.953125 41.515625 
Q 57.328125 34.859375 57.328125 23.390625 
Q 57.328125 12.15625 50.6875 5.359375 
Q 44.046875 -1.421875 33.015625 -1.421875 
Q 20.359375 -1.421875 13.671875 8.265625 
Q 6.984375 17.96875 6.984375 36.375 
Q 6.984375 53.65625 15.1875 63.9375 
Q 23.390625 74.21875 37.203125 74.21875 
Q 40.921875 74.21875 44.703125 73.484375 
Q 48.484375 72.75 52.59375 71.296875 
z
" id="DejaVuSans-54"/>
      </defs>
      <g transform="translate(831.910958 655.398438)scale(0.1 -0.1)">
       <use xlink:href="#DejaVuSans-54"/>
       <use x="63.623047" xlink:href="#DejaVuSans-48"/>
       <use x="127.246094" xlink:href="#DejaVuSans-48"/>
       <use x="190.869141" xlink:href="#DejaVuSans-46"/>
       <use x="222.65625" xlink:href="#DejaVuSans-48"/>
      </g>
     </g>
    </g>
    <g id="xtick_7">
     <g id="line2d_7">
      <g>
       <use style="stroke:#000000;stroke-width:0.8;" x="948.807979" xlink:href="#maccd9e43d5" y="640.8"/>
      </g>
     </g>
     <g id="text_7">
      <!-- 700.0 -->
      <defs>
       <path d="M 8.203125 72.90625 
L 55.078125 72.90625 
L 55.078125 68.703125 
L 28.609375 0 
L 18.3125 0 
L 43.21875 64.59375 
L 8.203125 64.59375 
z
" id="DejaVuSans-55"/>
      </defs>
      <g transform="translate(934.493916 655.398438)scale(0.1 -0.1)">
       <use xlink:href="#DejaVuSans-55"/>
       <use x="63.623047" xlink:href="#DejaVuSans-48"/>
       <use x="127.246094" xlink:href="#DejaVuSans-48"/>
       <use x="190.869141" xlink:href="#DejaVuSans-46"/>
       <use x="222.65625" xlink:href="#DejaVuSans-48"/>
      </g>
     </g>
    </g>
    <g id="xtick_8">
     <g id="line2d_8">
      <g>
       <use style="stroke:#000000;stroke-width:0.8;" x="1051.390937" xlink:href="#maccd9e43d5" y="640.8"/>
      </g>
     </g>
     <g id="text_8">
      <!-- 800.0 -->
      <defs>
       <path d="M 31.78125 34.625 
Q 24.75 34.625 20.71875 30.859375 
Q 16.703125 27.09375 16.703125 20.515625 
Q 16.703125 13.921875 20.71875 10.15625 
Q 24.75 6.390625 31.78125 6.390625 
Q 38.8125 6.390625 42.859375 10.171875 
Q 46.921875 13.96875 46.921875 20.515625 
Q 46.921875 27.09375 42.890625 30.859375 
Q 38.875 34.625 31.78125 34.625 
z
M 21.921875 38.8125 
Q 15.578125 40.375 12.03125 44.71875 
Q 8.5 49.078125 8.5 55.328125 
Q 8.5 64.0625 14.71875 69.140625 
Q 20.953125 74.21875 31.78125 74.21875 
Q 42.671875 74.21875 48.875 69.140625 
Q 55.078125 64.0625 55.078125 55.328125 
Q 55.078125 49.078125 51.53125 44.71875 
Q 48 40.375 41.703125 38.8125 
Q 48.828125 37.15625 52.796875 32.3125 
Q 56.78125 27.484375 56.78125 20.515625 
Q 56.78125 9.90625 50.3125 4.234375 
Q 43.84375 -1.421875 31.78125 -1.421875 
Q 19.734375 -1.421875 13.25 4.234375 
Q 6.78125 9.90625 6.78125 20.515625 
Q 6.78125 27.484375 10.78125 32.3125 
Q 14.796875 37.15625 21.921875 38.8125 
z
M 18.3125 54.390625 
Q 18.3125 48.734375 21.84375 45.5625 
Q 25.390625 42.390625 31.78125 42.390625 
Q 38.140625 42.390625 41.71875 45.5625 
Q 45.3125 48.734375 45.3125 54.390625 
Q 45.3125 60.0625 41.71875 63.234375 
Q 38.140625 66.40625 31.78125 66.40625 
Q 25.390625 66.40625 21.84375 63.234375 
Q 18.3125 60.0625 18.3125 54.390625 
z
" id="DejaVuSans-56"/>
      </defs>
      <g transform="translate(1037.076874 655.398438)scale(0.1 -0.1)">
       <use xlink:href="#DejaVuSans-56"/>
       <use x="63.623047" xlink:href="#DejaVuSans-48"/>
       <use x="127.246094" xlink:href="#DejaVuSans-48"/>
       <use x="190.869141" xlink:href="#DejaVuSans-46"/>
       <use x="222.65625" xlink:href="#DejaVuSans-48"/>
      </g>
     </g>
    </g>
    <g id="xtick_9">
     <g id="line2d_9">
      <g>
       <use style="stroke:#000000;stroke-width:0.8;" x="1153.973895" xlink:href="#maccd9e43d5" y="640.8"/>
      </g>
     </g>
     <g id="text_9">
      <!-- 900.0 -->
      <defs>
       <path d="M 10.984375 1.515625 
L 10.984375 10.5 
Q 14.703125 8.734375 18.5 7.8125 
Q 22.3125 6.890625 25.984375 6.890625 
Q 35.75 6.890625 40.890625 13.453125 
Q 46.046875 20.015625 46.78125 33.40625 
Q 43.953125 29.203125 39.59375 26.953125 
Q 35.25 24.703125 29.984375 24.703125 
Q 19.046875 24.703125 12.671875 31.3125 
Q 6.296875 37.9375 6.296875 49.421875 
Q 6.296875 60.640625 12.9375 67.421875 
Q 19.578125 74.21875 30.609375 74.21875 
Q 43.265625 74.21875 49.921875 64.515625 
Q 56.59375 54.828125 56.59375 36.375 
Q 56.59375 19.140625 48.40625 8.859375 
Q 40.234375 -1.421875 26.421875 -1.421875 
Q 22.703125 -1.421875 18.890625 -0.6875 
Q 15.09375 0.046875 10.984375 1.515625 
z
M 30.609375 32.421875 
Q 37.25 32.421875 41.125 36.953125 
Q 45.015625 41.5 45.015625 49.421875 
Q 45.015625 57.28125 41.125 61.84375 
Q 37.25 66.40625 30.609375 66.40625 
Q 23.96875 66.40625 20.09375 61.84375 
Q 16.21875 57.28125 16.21875 49.421875 
Q 16.21875 41.5 20.09375 36.953125 
Q 23.96875 32.421875 30.609375 32.421875 
z
" id="DejaVuSans-57"/>
      </defs>
      <g transform="translate(1139.659832 655.398438)scale(0.1 -0.1)">
       <use xlink:href="#DejaVuSans-57"/>
       <use x="63.623047" xlink:href="#DejaVuSans-48"/>
       <use x="127.246094" xlink:href="#DejaVuSans-48"/>
       <use x="190.869141" xlink:href="#DejaVuSans-46"/>
       <use x="222.65625" xlink:href="#DejaVuSans-48"/>
      </g>
     </g>
    </g>
    <g id="xtick_10">
     <g id="line2d_10">
      <g>
       <use style="stroke:#000000;stroke-width:0.8;" x="1256.556853" xlink:href="#maccd9e43d5" y="640.8"/>
      </g>
     </g>
     <g id="text_10">
      <!-- 1000.0 -->
      <g transform="translate(1239.06154 655.398438)scale(0.1 -0.1)">
       <use xlink:href="#DejaVuSans-49"/>
       <use x="63.623047" xlink:href="#DejaVuSans-48"/>
       <use x="127.246094" xlink:href="#DejaVuSans-48"/>
       <use x="190.869141" xlink:href="#DejaVuSans-48"/>
       <use x="254.492188" xlink:href="#DejaVuSans-46"/>
       <use x="286.279297" xlink:href="#DejaVuSans-48"/>
      </g>
     </g>
    </g>
    <g id="text_11">
     <!-- n -->
     <defs>
      <path d="M 54.890625 33.015625 
L 54.890625 0 
L 45.90625 0 
L 45.90625 32.71875 
Q 45.90625 40.484375 42.875 44.328125 
Q 39.84375 48.1875 33.796875 48.1875 
Q 26.515625 48.1875 22.3125 43.546875 
Q 18.109375 38.921875 18.109375 30.90625 
L 18.109375 0 
L 9.078125 0 
L 9.078125 54.6875 
L 18.109375 54.6875 
L 18.109375 46.1875 
Q 21.34375 51.125 25.703125 53.5625 
Q 30.078125 56 35.796875 56 
Q 45.21875 56 50.046875 50.171875 
Q 54.890625 44.34375 54.890625 33.015625 
z
" id="DejaVuSans-110"/>
     </defs>
     <g transform="translate(734.83125 669.076563)scale(0.1 -0.1)">
      <use xlink:href="#DejaVuSans-110"/>
     </g>
    </g>
   </g>
   <g id="matplotlib.axis_2">
    <g id="ytick_1">
     <g id="line2d_11">
      <defs>
       <path d="M 0 0 
L -3.5 0 
" id="m13ab87898b" style="stroke:#000000;stroke-width:0.8;"/>
      </defs>
      <g>
       <use style="stroke:#000000;stroke-width:0.8;" x="180" xlink:href="#m13ab87898b" y="581.264061"/>
      </g>
     </g>
     <g id="text_12">
      <!-- 1000 -->
      <g transform="translate(147.55 585.06328)scale(0.1 -0.1)">
       <use xlink:href="#DejaVuSans-49"/>
       <use x="63.623047" xlink:href="#DejaVuSans-48"/>
       <use x="127.246094" xlink:href="#DejaVuSans-48"/>
       <use x="190.869141" xlink:href="#DejaVuSans-48"/>
      </g>
     </g>
    </g>
    <g id="ytick_2">
     <g id="line2d_12">
      <g>
       <use style="stroke:#000000;stroke-width:0.8;" x="180" xlink:href="#m13ab87898b" y="502.528955"/>
      </g>
     </g>
     <g id="text_13">
      <!-- 2000 -->
      <g transform="translate(147.55 506.328173)scale(0.1 -0.1)">
       <use xlink:href="#DejaVuSans-50"/>
       <use x="63.623047" xlink:href="#DejaVuSans-48"/>
       <use x="127.246094" xlink:href="#DejaVuSans-48"/>
       <use x="190.869141" xlink:href="#DejaVuSans-48"/>
      </g>
     </g>
    </g>
    <g id="ytick_3">
     <g id="line2d_13">
      <g>
       <use style="stroke:#000000;stroke-width:0.8;" x="180" xlink:href="#m13ab87898b" y="423.793848"/>
      </g>
     </g>
     <g id="text_14">
      <!-- 3000 -->
      <g transform="translate(147.55 427.593066)scale(0.1 -0.1)">
       <use xlink:href="#DejaVuSans-51"/>
       <use x="63.623047" xlink:href="#DejaVuSans-48"/>
       <use x="127.246094" xlink:href="#DejaVuSans-48"/>
       <use x="190.869141" xlink:href="#DejaVuSans-48"/>
      </g>
     </g>
    </g>
    <g id="ytick_4">
     <g id="line2d_14">
      <g>
       <use style="stroke:#000000;stroke-width:0.8;" x="180" xlink:href="#m13ab87898b" y="345.058741"/>
      </g>
     </g>
     <g id="text_15">
      <!-- 4000 -->
      <g transform="translate(147.55 348.85796)scale(0.1 -0.1)">
       <use xlink:href="#DejaVuSans-52"/>
       <use x="63.623047" xlink:href="#DejaVuSans-48"/>
       <use x="127.246094" xlink:href="#DejaVuSans-48"/>
       <use x="190.869141" xlink:href="#DejaVuSans-48"/>
      </g>
     </g>
    </g>
    <g id="ytick_5">
     <g id="line2d_15">
      <g>
       <use style="stroke:#000000;stroke-width:0.8;" x="180" xlink:href="#m13ab87898b" y="266.323634"/>
      </g>
     </g>
     <g id="text_16">
      <!-- 5000 -->
      <g transform="translate(147.55 270.122853)scale(0.1 -0.1)">
       <use xlink:href="#DejaVuSans-53"/>
       <use x="63.623047" xlink:href="#DejaVuSans-48"/>
       <use x="127.246094" xlink:href="#DejaVuSans-48"/>
       <use x="190.869141" xlink:href="#DejaVuSans-48"/>
      </g>
     </g>
    </g>
    <g id="ytick_6">
     <g id="line2d_16">
      <g>
       <use style="stroke:#000000;stroke-width:0.8;" x="180" xlink:href="#m13ab87898b" y="187.588527"/>
      </g>
     </g>
     <g id="text_17">
      <!-- 6000 -->
      <g transform="translate(147.55 191.387746)scale(0.1 -0.1)">
       <use xlink:href="#DejaVuSans-54"/>
       <use x="63.623047" xlink:href="#DejaVuSans-48"/>
       <use x="127.246094" xlink:href="#DejaVuSans-48"/>
       <use x="190.869141" xlink:href="#DejaVuSans-48"/>
      </g>
     </g>
    </g>
    <g id="ytick_7">
     <g id="line2d_17">
      <g>
       <use style="stroke:#000000;stroke-width:0.8;" x="180" xlink:href="#m13ab87898b" y="108.85342"/>
      </g>
     </g>
     <g id="text_18">
      <!-- 7000 -->
      <g transform="translate(147.55 112.652639)scale(0.1 -0.1)">
       <use xlink:href="#DejaVuSans-55"/>
       <use x="63.623047" xlink:href="#DejaVuSans-48"/>
       <use x="127.246094" xlink:href="#DejaVuSans-48"/>
       <use x="190.869141" xlink:href="#DejaVuSans-48"/>
      </g>
     </g>
    </g>
    <g id="text_19">
     <!-- speedup -->
     <defs>
      <path d="M 44.28125 53.078125 
L 44.28125 44.578125 
Q 40.484375 46.53125 36.375 47.5 
Q 32.28125 48.484375 27.875 48.484375 
Q 21.1875 48.484375 17.84375 46.4375 
Q 14.5 44.390625 14.5 40.28125 
Q 14.5 37.15625 16.890625 35.375 
Q 19.28125 33.59375 26.515625 31.984375 
L 29.59375 31.296875 
Q 39.15625 29.25 43.1875 25.515625 
Q 47.21875 21.78125 47.21875 15.09375 
Q 47.21875 7.46875 41.1875 3.015625 
Q 35.15625 -1.421875 24.609375 -1.421875 
Q 20.21875 -1.421875 15.453125 -0.5625 
Q 10.6875 0.296875 5.421875 2 
L 5.421875 11.28125 
Q 10.40625 8.6875 15.234375 7.390625 
Q 20.0625 6.109375 24.8125 6.109375 
Q 31.15625 6.109375 34.5625 8.28125 
Q 37.984375 10.453125 37.984375 14.40625 
Q 37.984375 18.0625 35.515625 20.015625 
Q 33.0625 21.96875 24.703125 23.78125 
L 21.578125 24.515625 
Q 13.234375 26.265625 9.515625 29.90625 
Q 5.8125 33.546875 5.8125 39.890625 
Q 5.8125 47.609375 11.28125 51.796875 
Q 16.75 56 26.8125 56 
Q 31.78125 56 36.171875 55.265625 
Q 40.578125 54.546875 44.28125 53.078125 
z
" id="DejaVuSans-115"/>
      <path d="M 18.109375 8.203125 
L 18.109375 -20.796875 
L 9.078125 -20.796875 
L 9.078125 54.6875 
L 18.109375 54.6875 
L 18.109375 46.390625 
Q 20.953125 51.265625 25.265625 53.625 
Q 29.59375 56 35.59375 56 
Q 45.5625 56 51.78125 48.09375 
Q 58.015625 40.1875 58.015625 27.296875 
Q 58.015625 14.40625 51.78125 6.484375 
Q 45.5625 -1.421875 35.59375 -1.421875 
Q 29.59375 -1.421875 25.265625 0.953125 
Q 20.953125 3.328125 18.109375 8.203125 
z
M 48.6875 27.296875 
Q 48.6875 37.203125 44.609375 42.84375 
Q 40.53125 48.484375 33.40625 48.484375 
Q 26.265625 48.484375 22.1875 42.84375 
Q 18.109375 37.203125 18.109375 27.296875 
Q 18.109375 17.390625 22.1875 11.75 
Q 26.265625 6.109375 33.40625 6.109375 
Q 40.53125 6.109375 44.609375 11.75 
Q 48.6875 17.390625 48.6875 27.296875 
z
" id="DejaVuSans-112"/>
      <path d="M 56.203125 29.59375 
L 56.203125 25.203125 
L 14.890625 25.203125 
Q 15.484375 15.921875 20.484375 11.0625 
Q 25.484375 6.203125 34.421875 6.203125 
Q 39.59375 6.203125 44.453125 7.46875 
Q 49.3125 8.734375 54.109375 11.28125 
L 54.109375 2.78125 
Q 49.265625 0.734375 44.1875 -0.34375 
Q 39.109375 -1.421875 33.890625 -1.421875 
Q 20.796875 -1.421875 13.15625 6.1875 
Q 5.515625 13.8125 5.515625 26.8125 
Q 5.515625 40.234375 12.765625 48.109375 
Q 20.015625 56 32.328125 56 
Q 43.359375 56 49.78125 48.890625 
Q 56.203125 41.796875 56.203125 29.59375 
z
M 47.21875 32.234375 
Q 47.125 39.59375 43.09375 43.984375 
Q 39.0625 48.390625 32.421875 48.390625 
Q 24.90625 48.390625 20.390625 44.140625 
Q 15.875 39.890625 15.1875 32.171875 
z
" id="DejaVuSans-101"/>
      <path d="M 45.40625 46.390625 
L 45.40625 75.984375 
L 54.390625 75.984375 
L 54.390625 0 
L 45.40625 0 
L 45.40625 8.203125 
Q 42.578125 3.328125 38.25 0.953125 
Q 33.9375 -1.421875 27.875 -1.421875 
Q 17.96875 -1.421875 11.734375 6.484375 
Q 5.515625 14.40625 5.515625 27.296875 
Q 5.515625 40.1875 11.734375 48.09375 
Q 17.96875 56 27.875 56 
Q 33.9375 56 38.25 53.625 
Q 42.578125 51.265625 45.40625 46.390625 
z
M 14.796875 27.296875 
Q 14.796875 17.390625 18.875 11.75 
Q 22.953125 6.109375 30.078125 6.109375 
Q 37.203125 6.109375 41.296875 11.75 
Q 45.40625 17.390625 45.40625 27.296875 
Q 45.40625 37.203125 41.296875 42.84375 
Q 37.203125 48.484375 30.078125 48.484375 
Q 22.953125 48.484375 18.875 42.84375 
Q 14.796875 37.203125 14.796875 27.296875 
z
" id="DejaVuSans-100"/>
      <path d="M 8.5 21.578125 
L 8.5 54.6875 
L 17.484375 54.6875 
L 17.484375 21.921875 
Q 17.484375 14.15625 20.5 10.265625 
Q 23.53125 6.390625 29.59375 6.390625 
Q 36.859375 6.390625 41.078125 11.03125 
Q 45.3125 15.671875 45.3125 23.6875 
L 45.3125 54.6875 
L 54.296875 54.6875 
L 54.296875 0 
L 45.3125 0 
L 45.3125 8.40625 
Q 42.046875 3.421875 37.71875 1 
Q 33.40625 -1.421875 27.6875 -1.421875 
Q 18.265625 -1.421875 13.375 4.4375 
Q 8.5 10.296875 8.5 21.578125 
z
M 31.109375 56 
z
" id="DejaVuSans-117"/>
     </defs>
     <g transform="translate(141.470313 385.049219)rotate(-90)scale(0.1 -0.1)">
      <use xlink:href="#DejaVuSans-115"/>
      <use x="52.099609" xlink:href="#DejaVuSans-112"/>
      <use x="115.576172" xlink:href="#DejaVuSans-101"/>
      <use x="177.099609" xlink:href="#DejaVuSans-101"/>
      <use x="238.623047" xlink:href="#DejaVuSans-100"/>
      <use x="302.099609" xlink:href="#DejaVuSans-117"/>
      <use x="365.478516" xlink:href="#DejaVuSans-112"/>
     </g>
    </g>
   </g>
   <g id="line2d_18">
    <path clip-path="url(#p53fe2bb7e3)" d="M 230.727273 610.668658 
L 231.753102 603.03436 
L 232.778932 560.677602 
L 233.804761 600.367658 
L 234.830591 558.446872 
L 235.856421 597.1551 
L 236.88225 548.412897 
L 237.90808 537.251157 
L 238.933909 615.6 
L 239.959739 524.192051 
L 240.985569 536.068533 
L 242.011398 536.064092 
L 243.037228 536.987136 
L 245.088887 520.87745 
L 246.114716 511.807037 
L 247.140546 541.785983 
L 248.166376 512.137182 
L 249.192205 528.657975 
L 250.218035 529.522259 
L 252.269694 496.399357 
L 253.295523 536.889352 
L 254.321353 515.1179 
L 255.347183 524.783924 
L 256.373012 511.457456 
L 257.398842 503.423908 
L 258.424671 492.803995 
L 259.450501 501.695426 
L 260.476331 522.473893 
L 261.50216 515.020309 
L 262.52799 488.609042 
L 263.553819 514.123761 
L 264.579649 504.409104 
L 265.605478 487.655223 
L 266.631308 503.128899 
L 267.657138 481.512198 
L 268.682967 489.255688 
L 269.708797 509.999257 
L 270.734626 515.813549 
L 271.760456 495.147615 
L 272.786286 501.57077 
L 273.812115 477.59004 
L 274.837945 449.308663 
L 275.863774 496.557451 
L 276.889604 508.828201 
L 277.915433 480.307571 
L 278.941263 483.90559 
L 279.967093 467.686704 
L 280.992922 462.566275 
L 282.018752 463.522716 
L 283.044581 471.251843 
L 284.070411 450.971676 
L 285.09624 477.021453 
L 286.12207 538.001268 
L 287.1479 453.452668 
L 288.173729 494.650792 
L 289.199559 448.999112 
L 290.225388 481.646578 
L 291.251218 453.32362 
L 292.277048 439.887091 
L 293.302877 432.996879 
L 294.328707 478.594125 
L 296.380366 468.918361 
L 297.406195 432.880917 
L 298.432025 485.106183 
L 299.457855 447.212673 
L 300.483684 431.220761 
L 301.509514 457.676513 
L 302.535343 476.202002 
L 303.561173 427.004162 
L 304.587002 424.659783 
L 305.612832 425.696019 
L 306.638662 425.913073 
L 307.664491 464.466413 
L 308.690321 452.794328 
L 309.71615 395.999831 
L 310.74198 407.928853 
L 311.76781 481.17995 
L 312.793639 450.311666 
L 313.819469 401.294173 
L 314.845298 388.877983 
L 316.896957 440.318631 
L 317.922787 483.774527 
L 318.948617 417.829422 
L 319.974446 449.350117 
L 321.000276 399.916552 
L 322.026105 409.658413 
L 323.051935 405.461575 
L 324.077765 439.89634 
L 325.103594 417.598659 
L 326.129424 367.411409 
L 327.155253 391.297143 
L 328.181083 445.620537 
L 329.206912 388.872702 
L 330.232742 423.432842 
L 331.258572 343.400948 
L 332.284401 466.321859 
L 333.310231 440.177376 
L 334.33606 379.789716 
L 335.36189 370.827455 
L 336.387719 384.144626 
L 337.413549 380.241026 
L 338.439379 356.804742 
L 339.465208 350.354933 
L 340.491038 393.155364 
L 341.516867 386.158333 
L 342.542697 427.325483 
L 343.568527 394.180816 
L 344.594356 404.245147 
L 345.620186 406.8987 
L 346.646015 369.94562 
L 347.671845 367.304151 
L 348.697674 433.634638 
L 349.723504 370.649304 
L 350.749334 401.485259 
L 351.775163 377.004444 
L 352.800993 387.351545 
L 353.826822 371.18696 
L 354.852652 376.780478 
L 355.878481 351.11361 
L 356.904311 360.362137 
L 358.95597 330.732659 
L 359.9818 388.138876 
L 361.007629 377.255958 
L 362.033459 372.810199 
L 363.059289 369.668643 
L 364.085118 355.709056 
L 365.110948 379.656642 
L 367.162607 365.10076 
L 368.188436 339.203263 
L 369.214266 370.170215 
L 370.240096 385.394908 
L 371.265925 354.205095 
L 372.291755 389.082767 
L 373.317584 343.166033 
L 374.343414 340.965659 
L 375.369243 346.840509 
L 376.395073 352.063753 
L 377.420903 355.485863 
L 378.446732 383.353369 
L 379.472562 350.184707 
L 380.498391 324.939876 
L 381.524221 333.04289 
L 382.550051 378.066653 
L 383.57588 407.575448 
L 384.60171 392.11073 
L 385.627539 378.492256 
L 386.653369 313.326052 
L 387.679198 366.920417 
L 388.705028 330.875411 
L 389.730858 378.641866 
L 390.756687 342.441507 
L 391.782517 364.527075 
L 392.808346 323.34635 
L 393.834176 357.934958 
L 394.860006 351.630284 
L 395.885835 353.72832 
L 396.911665 330.91819 
L 397.937494 357.123667 
L 398.963324 365.742666 
L 399.989153 308.805686 
L 401.014983 309.706855 
L 402.040813 400.156127 
L 403.066642 334.049063 
L 404.092472 371.657316 
L 405.118301 337.574589 
L 406.144131 334.620998 
L 407.16996 294.384378 
L 408.19579 293.578774 
L 409.22162 322.209279 
L 410.247449 357.798374 
L 411.273279 355.878791 
L 412.299108 326.390224 
L 413.324938 423.818818 
L 414.350768 330.594206 
L 415.376597 316.481544 
L 416.402427 310.005953 
L 417.428256 330.644527 
L 418.454086 345.741593 
L 419.479915 327.01554 
L 420.505745 318.181766 
L 421.531575 299.337164 
L 422.557404 340.380451 
L 423.583234 317.316463 
L 424.609063 300.752097 
L 425.634893 304.915511 
L 426.660722 290.360314 
L 427.686552 320.860974 
L 428.712382 295.392208 
L 429.738211 299.776457 
L 430.764041 347.126423 
L 431.78987 297.146664 
L 432.8157 308.334036 
L 433.84153 326.857779 
L 434.867359 422.383058 
L 435.893189 328.414935 
L 436.919018 285.371237 
L 437.944848 505.735773 
L 438.970677 345.172705 
L 439.996507 335.470738 
L 441.022337 411.275267 
L 442.048166 306.137175 
L 443.073996 345.179711 
L 444.099825 285.62162 
L 445.125655 432.869896 
L 446.151485 294.222331 
L 447.177314 314.619868 
L 448.203144 306.053887 
L 449.228973 309.063906 
L 450.254803 273.14939 
L 451.280632 385.112514 
L 452.306462 255.180868 
L 453.332292 395.998519 
L 454.358121 314.787305 
L 455.383951 314.922389 
L 456.40978 311.36631 
L 457.43561 310.790726 
L 458.461439 304.014198 
L 459.487269 377.792214 
L 460.513099 298.598508 
L 461.538928 294.862859 
L 462.564758 287.126497 
L 463.590587 322.61342 
L 464.616417 331.055429 
L 465.642247 310.720696 
L 466.668076 294.49925 
L 467.693906 339.406621 
L 468.719735 289.633678 
L 469.745565 294.514412 
L 470.771394 305.272646 
L 471.797224 374.742373 
L 473.848883 248.934996 
L 474.874713 295.851952 
L 476.926372 279.903903 
L 477.952201 297.678127 
L 478.978031 276.675435 
L 480.003861 301.801467 
L 481.02969 261.091681 
L 482.05552 309.984039 
L 483.081349 390.903579 
L 484.107179 298.56721 
L 485.133009 279.927518 
L 486.158838 300.517376 
L 487.184668 276.587103 
L 488.210497 288.931314 
L 489.236327 288.601434 
L 490.262156 249.589411 
L 491.287986 326.609714 
L 492.313816 275.910157 
L 493.339645 345.375698 
L 494.365475 285.959587 
L 495.391304 282.276735 
L 496.417134 280.909643 
L 497.442964 334.710462 
L 498.468793 307.305252 
L 499.494623 270.46211 
L 500.520452 283.897616 
L 501.546282 336.11096 
L 502.572111 290.806098 
L 503.597941 297.700733 
L 504.623771 309.165166 
L 505.6496 281.011743 
L 506.67543 271.58603 
L 507.701259 302.049053 
L 508.727089 278.409746 
L 509.752918 276.411996 
L 510.778748 294.197299 
L 511.804578 291.47288 
L 512.830407 294.859593 
L 513.856237 264.121246 
L 514.882066 321.676641 
L 515.907896 327.894389 
L 516.933726 265.391118 
L 517.959555 260.322614 
L 518.985385 267.486109 
L 520.011214 229.405063 
L 521.037044 404.610318 
L 522.062873 287.955488 
L 523.088703 327.297682 
L 524.114533 278.781593 
L 525.140362 299.254014 
L 526.166192 272.051243 
L 527.192021 308.09797 
L 528.217851 272.2563 
L 529.24368 299.931609 
L 530.26951 279.268857 
L 531.29534 276.038503 
L 532.321169 262.321784 
L 533.346999 267.549616 
L 534.372828 393.773354 
L 535.398658 284.315522 
L 536.424488 282.095852 
L 537.450317 253.604068 
L 538.476147 244.640256 
L 539.501976 270.842126 
L 540.527806 278.670254 
L 541.553635 261.281905 
L 542.579465 265.253087 
L 543.605295 257.72777 
L 544.631124 259.559501 
L 545.656954 265.658357 
L 546.682783 278.435289 
L 547.708613 252.117258 
L 548.734443 260.714315 
L 549.760272 264.688467 
L 550.786102 280.715832 
L 551.811931 242.96148 
L 552.837761 258.092698 
L 553.86359 263.442727 
L 554.88942 253.104139 
L 555.91525 247.126364 
L 556.941079 271.473193 
L 557.966909 271.729496 
L 558.992738 292.868407 
L 560.018568 257.613686 
L 561.044397 240.17977 
L 562.070227 233.831438 
L 563.096057 255.468451 
L 564.121886 258.629591 
L 565.147716 339.110299 
L 566.173545 270.736775 
L 567.199375 240.082122 
L 568.225205 285.283175 
L 569.251034 255.726425 
L 570.276864 299.181079 
L 571.302693 248.303544 
L 572.328523 252.497595 
L 573.354352 249.270115 
L 574.380182 286.654735 
L 575.406012 299.628831 
L 576.431841 265.916786 
L 577.457671 243.744437 
L 578.4835 254.0886 
L 579.50933 254.455914 
L 580.535159 256.953126 
L 581.560989 247.755078 
L 582.586819 266.716931 
L 583.612648 192.464343 
L 584.638478 272.159753 
L 585.664307 276.429521 
L 586.690137 251.555551 
L 587.715967 237.353601 
L 588.741796 247.585704 
L 589.767626 290.895485 
L 590.793455 276.374046 
L 591.819285 266.255563 
L 592.845114 283.017697 
L 593.870944 268.570843 
L 594.896774 248.522311 
L 595.922603 262.34557 
L 596.948433 286.008945 
L 597.974262 280.900807 
L 599.000092 283.841817 
L 600.025922 265.800406 
L 601.051751 317.202453 
L 602.077581 245.279405 
L 603.10341 378.962939 
L 604.12924 244.030766 
L 605.155069 200.004088 
L 606.180899 323.819195 
L 607.206729 252.696954 
L 609.258388 301.167896 
L 610.284217 318.65643 
L 611.310047 258.237051 
L 612.335876 253.869138 
L 613.361706 251.839475 
L 614.387536 211.024215 
L 615.413365 262.065223 
L 616.439195 347.196066 
L 617.465024 268.087736 
L 618.490854 157.438399 
L 619.516684 293.035146 
L 620.542513 240.657999 
L 621.568343 233.145451 
L 622.594172 270.045292 
L 623.620002 302.537313 
L 624.645831 254.624169 
L 625.671661 249.880577 
L 626.697491 250.201074 
L 627.72332 248.877113 
L 628.74915 279.387329 
L 629.774979 255.430827 
L 630.800809 236.331817 
L 631.826638 248.176491 
L 632.852468 265.177025 
L 633.878298 244.207558 
L 634.904127 252.92539 
L 635.929957 237.884662 
L 636.955786 244.755763 
L 637.981616 261.328407 
L 639.007446 222.073901 
L 640.033275 292.316949 
L 641.059105 247.002981 
L 642.084934 262.41967 
L 643.110764 188.343533 
L 644.136593 258.865941 
L 645.162423 231.623858 
L 646.188253 242.590265 
L 647.214082 260.874744 
L 648.239912 248.290003 
L 649.265741 245.375224 
L 650.291571 243.311094 
L 651.3174 247.685162 
L 652.34323 257.982101 
L 653.36906 274.374165 
L 654.394889 255.77702 
L 655.420719 225.622226 
L 656.446548 264.209612 
L 657.472378 328.668401 
L 658.498208 237.692103 
L 659.524037 235.597546 
L 660.549867 247.810435 
L 661.575696 235.543574 
L 662.601526 236.48277 
L 663.627355 267.188995 
L 664.653185 246.834247 
L 665.679015 272.150041 
L 666.704844 235.089468 
L 667.730674 250.906741 
L 668.756503 250.113543 
L 669.782333 266.815747 
L 670.808163 248.670787 
L 671.833992 257.328115 
L 672.859822 255.169404 
L 673.885651 259.474661 
L 674.911481 276.085166 
L 675.93731 245.043828 
L 676.96314 247.311977 
L 677.98897 247.129725 
L 679.014799 228.75688 
L 680.040629 246.94544 
L 681.066458 239.82527 
L 682.092288 228.731415 
L 683.118117 242.408776 
L 684.143947 266.378103 
L 685.169777 241.131541 
L 686.195606 258.762132 
L 687.221436 241.171621 
L 688.247265 270.322621 
L 689.273095 238.982434 
L 690.298925 275.629211 
L 691.324754 220.92183 
L 692.350584 297.661247 
L 693.376413 245.724524 
L 694.402243 258.393674 
L 695.428072 224.641773 
L 696.453902 233.783697 
L 697.479732 252.023806 
L 698.505561 238.855115 
L 699.531391 250.834297 
L 700.55722 240.524761 
L 701.58305 236.03834 
L 702.608879 234.348333 
L 703.634709 241.187186 
L 704.660539 226.820572 
L 705.686368 233.268323 
L 706.712198 265.826447 
L 707.738027 191.544787 
L 708.763857 255.954896 
L 709.789687 240.173865 
L 710.815516 344.04003 
L 711.841346 242.505739 
L 712.867175 227.764613 
L 713.893005 229.377458 
L 714.918834 241.2722 
L 715.944664 256.265519 
L 716.970494 237.39132 
L 717.996323 249.049197 
L 719.022153 248.136487 
L 720.047982 260.063624 
L 721.073812 235.504235 
L 722.099642 243.910913 
L 723.125471 259.758096 
L 724.151301 229.422265 
L 725.17713 235.586961 
L 726.20296 233.286081 
L 727.228789 232.916248 
L 728.254619 230.4799 
L 729.280449 257.494301 
L 730.306278 244.323774 
L 731.332108 248.060966 
L 732.357937 233.801895 
L 733.383767 247.639189 
L 734.409596 206.090135 
L 735.435426 243.203251 
L 736.461256 238.081434 
L 737.487085 257.165199 
L 738.512915 224.652394 
L 739.538744 259.551512 
L 740.564574 236.721485 
L 741.590404 229.941985 
L 742.616233 254.691061 
L 743.642063 360.729857 
L 744.667892 242.264902 
L 745.693722 249.857204 
L 746.719551 362.206124 
L 747.745381 265.009267 
L 748.771211 246.00509 
L 749.79704 262.197281 
L 750.82287 244.391058 
L 751.848699 219.052528 
L 752.874529 253.707564 
L 753.900358 210.232329 
L 754.926188 244.889223 
L 755.952018 234.052444 
L 756.977847 298.295981 
L 758.003677 233.182001 
L 759.029506 348.959825 
L 760.055336 312.054456 
L 761.081166 253.896888 
L 762.106995 217.856849 
L 763.132825 232.372213 
L 764.158654 226.707151 
L 765.184484 239.165636 
L 766.210313 257.908119 
L 767.236143 224.784671 
L 768.261973 218.53886 
L 769.287802 230.186187 
L 770.313632 233.598431 
L 771.339461 203.80086 
L 772.365291 240.335002 
L 773.391121 201.917281 
L 774.41695 227.695753 
L 775.44278 228.493131 
L 776.468609 260.814042 
L 777.494439 231.043201 
L 778.520268 243.965356 
L 779.546098 251.016565 
L 780.571928 229.698529 
L 781.597757 256.555171 
L 782.623587 240.369808 
L 783.649416 243.02152 
L 785.701075 230.004829 
L 786.726905 252.232369 
L 787.752735 247.093939 
L 788.778564 231.078282 
L 789.804394 239.724037 
L 790.830223 235.963791 
L 791.856053 231.40867 
L 792.881883 233.749388 
L 793.907712 242.403582 
L 794.933542 199.317813 
L 795.959371 251.869163 
L 796.985201 226.207964 
L 798.01103 224.731294 
L 799.03686 233.398805 
L 800.06269 233.895443 
L 801.088519 222.306642 
L 802.114349 245.292822 
L 803.140178 247.965894 
L 804.166008 238.042848 
L 805.191837 234.323523 
L 806.217667 223.323991 
L 807.243497 236.287094 
L 808.269326 193.66842 
L 809.295156 228.83203 
L 810.320985 233.255961 
L 811.346815 231.840947 
L 812.372645 225.43197 
L 813.398474 250.701877 
L 814.424304 247.227963 
L 815.450133 225.254048 
L 816.475963 254.259933 
L 817.501792 186.458305 
L 818.527622 203.120002 
L 819.553452 231.534917 
L 820.579281 240.93854 
L 821.605111 234.052769 
L 822.63094 203.235534 
L 823.65677 234.069445 
L 824.6826 299.07813 
L 825.708429 247.407234 
L 826.734259 202.353414 
L 827.760088 238.193414 
L 828.785918 223.361814 
L 829.811747 217.027566 
L 830.837577 222.130874 
L 831.863407 220.819455 
L 832.889236 261.868706 
L 833.915066 228.301173 
L 834.940895 336.258691 
L 835.966725 235.754249 
L 836.992554 213.974312 
L 838.018384 242.755382 
L 839.044214 228.14633 
L 840.070043 246.371467 
L 841.095873 218.324119 
L 842.121702 292.88791 
L 843.147532 236.298744 
L 844.173362 220.760688 
L 845.199191 216.074975 
L 846.225021 148.401378 
L 847.25085 223.366103 
L 848.27668 212.919694 
L 849.302509 238.700332 
L 850.328339 218.542438 
L 851.354169 251.079388 
L 852.379998 200.60262 
L 853.405828 324.241643 
L 854.431657 210.884544 
L 855.457487 232.10632 
L 856.483316 248.333384 
L 857.509146 206.305213 
L 858.534976 221.565807 
L 859.560805 230.77203 
L 860.586635 220.108243 
L 861.612464 200.590879 
L 862.638294 274.449434 
L 863.664124 191.816657 
L 864.689953 252.440357 
L 865.715783 218.155876 
L 866.741612 202.726264 
L 867.767442 199.285227 
L 868.793271 158.623863 
L 869.819101 230.555984 
L 870.844931 208.677112 
L 871.87076 239.371635 
L 872.89659 217.204025 
L 873.922419 295.892695 
L 874.948249 223.72112 
L 875.974078 220.305146 
L 876.999908 146.83878 
L 878.025738 214.913415 
L 879.051567 218.520527 
L 880.077397 196.447755 
L 881.103226 369.725265 
L 882.129056 217.063145 
L 883.154886 170.839679 
L 884.180715 200.588867 
L 885.206545 263.244606 
L 886.232374 370.4658 
L 887.258204 196.531614 
L 888.284033 241.122483 
L 889.309863 368.921126 
L 890.335693 223.161056 
L 891.361522 207.994655 
L 892.387352 194.818449 
L 893.413181 219.385171 
L 894.439011 221.218857 
L 895.464841 210.401225 
L 896.49067 221.913324 
L 897.5165 223.119377 
L 898.542329 235.472325 
L 899.568159 225.147003 
L 900.593988 222.816276 
L 901.619818 228.014258 
L 902.645648 236.167541 
L 903.671477 205.625285 
L 904.697307 225.755237 
L 905.723136 208.830076 
L 907.774795 230.15168 
L 908.800625 226.917621 
L 909.826455 234.806158 
L 910.852284 213.522289 
L 911.878114 241.855877 
L 912.903943 232.131423 
L 913.929773 226.084572 
L 914.955603 235.913714 
L 915.981432 223.42555 
L 917.007262 220.113482 
L 918.033091 227.383941 
L 919.058921 224.874195 
L 920.08475 372.715774 
L 921.11058 213.422587 
L 922.13641 210.172342 
L 923.162239 214.258629 
L 924.188069 191.900377 
L 925.213898 195.234702 
L 926.239728 218.366574 
L 927.265557 219.7605 
L 928.291387 201.813829 
L 929.317217 212.905201 
L 930.343046 235.95437 
L 931.368876 273.848112 
L 932.394705 211.929378 
L 933.420535 217.836386 
L 934.446365 203.009522 
L 935.472194 236.014816 
L 936.498024 133.782953 
L 937.523853 221.723564 
L 938.549683 211.344132 
L 939.575512 216.948185 
L 940.601342 219.771137 
L 941.627172 240.690594 
L 942.653001 218.454714 
L 943.678831 239.516599 
L 944.70466 237.227148 
L 945.73049 208.021911 
L 946.75632 228.685472 
L 947.782149 325.677954 
L 948.807979 197.811112 
L 949.833808 166.829423 
L 950.859638 212.840778 
L 951.885467 219.929519 
L 952.911297 231.335943 
L 953.937127 239.989043 
L 954.962956 236.251918 
L 955.988786 234.027006 
L 957.014615 227.480275 
L 958.040445 237.669881 
L 959.066274 235.816921 
L 960.092104 235.581451 
L 961.117934 235.764197 
L 962.143763 225.534969 
L 963.169593 235.76998 
L 964.195422 222.642324 
L 965.221252 220.110566 
L 966.247082 242.829807 
L 967.272911 239.320922 
L 968.298741 238.331401 
L 969.32457 301.943566 
L 970.3504 242.620343 
L 971.376229 224.894645 
L 972.402059 233.014869 
L 973.427889 234.864853 
L 974.453718 233.022343 
L 975.479548 233.854738 
L 976.505377 248.607903 
L 977.531207 235.714975 
L 978.557036 228.90868 
L 979.582866 217.364463 
L 980.608696 224.818933 
L 981.634525 236.300653 
L 982.660355 225.493235 
L 983.686184 288.705669 
L 984.712014 229.062429 
L 985.737844 225.441433 
L 986.763673 229.858942 
L 987.789503 223.941417 
L 988.815332 219.57095 
L 989.841162 243.005117 
L 990.866991 241.026355 
L 991.892821 236.827374 
L 992.918651 332.162338 
L 993.94448 218.588939 
L 994.97031 223.13232 
L 995.996139 231.281324 
L 997.021969 237.632968 
L 998.047799 219.666457 
L 999.073628 212.036949 
L 1000.099458 235.196174 
L 1001.125287 241.324971 
L 1002.151117 224.512493 
L 1003.176946 259.067052 
L 1004.202776 193.691304 
L 1005.228606 224.165273 
L 1006.254435 231.082493 
L 1007.280265 229.406722 
L 1008.306094 223.185981 
L 1009.331924 240.532192 
L 1010.357753 270.854635 
L 1011.383583 227.550763 
L 1012.409413 218.698029 
L 1013.435242 216.895431 
L 1014.461072 228.09249 
L 1015.486901 221.622852 
L 1016.512731 209.962477 
L 1017.538561 215.485183 
L 1018.56439 217.910696 
L 1019.59022 197.18976 
L 1020.616049 238.326419 
L 1021.641879 239.628529 
L 1022.667708 231.619664 
L 1023.693538 215.457755 
L 1024.719368 227.558395 
L 1025.745197 216.433961 
L 1026.771027 231.352966 
L 1027.796856 216.113327 
L 1028.822686 230.546537 
L 1029.848515 226.964847 
L 1030.874345 206.526757 
L 1031.900175 210.276704 
L 1032.926004 224.360665 
L 1033.951834 217.038483 
L 1034.977663 248.813843 
L 1036.003493 222.180245 
L 1037.029323 227.971816 
L 1038.055152 216.756028 
L 1039.080982 228.318708 
L 1040.106811 223.863298 
L 1041.132641 219.912634 
L 1042.15847 219.411297 
L 1043.1843 238.864942 
L 1044.21013 227.853513 
L 1045.235959 250.378505 
L 1046.261789 206.993624 
L 1047.287618 193.605699 
L 1048.313448 205.317417 
L 1049.339278 238.472625 
L 1050.365107 203.638164 
L 1051.390937 189.459856 
L 1054.468425 219.709777 
L 1055.494255 209.404253 
L 1056.520085 238.026497 
L 1057.545914 359.406599 
L 1058.571744 210.637149 
L 1059.597573 226.475727 
L 1060.623403 201.526515 
L 1061.649232 248.34097 
L 1062.675062 224.428965 
L 1063.700892 192.401695 
L 1064.726721 174.792844 
L 1065.752551 189.073093 
L 1066.77838 209.328196 
L 1067.80421 210.073683 
L 1068.83004 200.844943 
L 1069.855869 171.973024 
L 1070.881699 216.028174 
L 1071.907528 233.335214 
L 1072.933358 221.173954 
L 1073.959187 230.430704 
L 1074.985017 215.432 
L 1076.010847 237.298872 
L 1077.036676 221.755805 
L 1078.062506 212.764056 
L 1079.088335 213.895151 
L 1080.114165 208.743135 
L 1081.139994 274.791682 
L 1082.165824 216.728773 
L 1083.191654 225.904662 
L 1084.217483 224.88767 
L 1085.243313 222.454228 
L 1086.269142 225.271391 
L 1087.294972 220.740329 
L 1088.320802 207.37328 
L 1089.346631 207.949554 
L 1090.372461 278.820227 
L 1091.39829 224.995649 
L 1092.42412 211.37507 
L 1093.449949 221.007571 
L 1094.475779 222.733919 
L 1095.501609 233.997503 
L 1096.527438 217.035436 
L 1097.553268 212.612042 
L 1098.579097 223.162611 
L 1099.604927 212.190342 
L 1100.630757 208.423994 
L 1101.656586 363.918715 
L 1102.682416 174.52807 
L 1103.708245 239.015605 
L 1104.734075 214.008225 
L 1105.759904 218.125883 
L 1106.785734 211.719292 
L 1107.811564 211.194668 
L 1108.837393 196.310966 
L 1109.863223 225.108562 
L 1110.889052 222.04189 
L 1111.914882 223.973374 
L 1112.940711 209.200125 
L 1113.966541 210.96662 
L 1114.992371 218.84982 
L 1116.0182 215.037613 
L 1117.04403 219.04201 
L 1118.069859 225.354546 
L 1119.095689 226.408653 
L 1120.121519 202.556114 
L 1121.147348 235.456276 
L 1122.173178 201.867407 
L 1123.199007 227.141562 
L 1124.224837 227.660397 
L 1125.250666 217.441993 
L 1126.276496 229.809597 
L 1127.302326 225.820914 
L 1128.328155 197.219301 
L 1129.353985 215.359985 
L 1130.379814 217.171944 
L 1131.405644 225.888966 
L 1132.431473 226.367724 
L 1133.457303 215.827644 
L 1134.483133 223.860999 
L 1135.508962 213.437812 
L 1136.534792 211.144593 
L 1137.560621 227.495038 
L 1138.586451 218.752834 
L 1139.612281 218.391244 
L 1140.63811 219.248397 
L 1141.66394 231.993837 
L 1142.689769 274.50452 
L 1143.715599 216.142664 
L 1144.741428 214.657329 
L 1145.767258 218.108115 
L 1146.793088 221.160966 
L 1147.818917 219.491366 
L 1148.844747 213.263057 
L 1149.870576 215.525825 
L 1150.896406 223.192571 
L 1151.922235 199.184219 
L 1152.948065 227.354383 
L 1153.973895 232.685079 
L 1154.999724 215.633858 
L 1156.025554 226.736467 
L 1157.051383 223.383279 
L 1158.077213 240.526421 
L 1159.103043 190.228071 
L 1160.128872 246.37455 
L 1161.154702 226.495458 
L 1162.180531 197.381178 
L 1163.206361 234.269739 
L 1164.23219 219.52606 
L 1165.25802 209.99127 
L 1166.28385 219.020899 
L 1167.309679 220.256462 
L 1168.335509 238.335012 
L 1169.361338 221.217427 
L 1170.387168 223.614849 
L 1171.412998 216.509514 
L 1172.438827 216.654496 
L 1173.464657 224.785868 
L 1174.490486 280.580468 
L 1175.516316 203.174549 
L 1176.542145 206.474359 
L 1177.567975 208.036693 
L 1178.593805 231.972707 
L 1179.619634 191.828424 
L 1180.645464 207.558207 
L 1181.671293 215.581394 
L 1183.722952 289.569805 
L 1184.748782 232.121289 
L 1185.774612 217.416635 
L 1187.826271 226.909254 
L 1188.8521 216.361919 
L 1189.87793 222.515665 
L 1190.90376 238.91798 
L 1191.929589 202.347816 
L 1192.955419 215.760506 
L 1193.981248 244.845343 
L 1195.007078 217.209369 
L 1196.032907 227.553068 
L 1197.058737 203.961105 
L 1198.084567 232.688782 
L 1199.110396 111.6 
L 1200.136226 221.884102 
L 1201.162055 202.794475 
L 1202.187885 211.747595 
L 1203.213714 216.241535 
L 1204.239544 209.545596 
L 1205.265374 193.912903 
L 1206.291203 224.905719 
L 1207.317033 290.639532 
L 1208.342862 129.966778 
L 1209.368692 226.270408 
L 1210.394522 226.300243 
L 1211.420351 229.109707 
L 1212.446181 226.080299 
L 1213.47201 227.612717 
L 1214.49784 212.601747 
L 1215.523669 212.195227 
L 1216.549499 213.600833 
L 1217.575329 227.439457 
L 1218.601158 209.999839 
L 1219.626988 232.093658 
L 1220.652817 274.945568 
L 1221.678647 217.217954 
L 1222.704477 231.980942 
L 1223.730306 194.244667 
L 1224.756136 220.004407 
L 1225.781965 227.209006 
L 1226.807795 206.205716 
L 1227.833624 290.46936 
L 1228.859454 216.443081 
L 1229.885284 223.532192 
L 1230.911113 229.103115 
L 1231.936943 211.052397 
L 1233.988602 226.516155 
L 1235.014431 228.815351 
L 1236.040261 213.887765 
L 1237.066091 237.659171 
L 1238.09192 242.689898 
L 1239.11775 221.161597 
L 1240.143579 224.129073 
L 1241.169409 194.516114 
L 1242.195239 214.859903 
L 1243.221068 230.569424 
L 1244.246898 241.545187 
L 1245.272727 218.302231 
L 1245.272727 218.302231 
" style="fill:none;stroke:#1f77b4;stroke-linecap:square;stroke-width:1.5;"/>
   </g>
   <g id="line2d_19">
    <path clip-path="url(#p53fe2bb7e3)" d="M 230.727273 580.822242 
L 231.753102 568.522618 
L 232.778932 571.691693 
L 233.804761 567.220757 
L 234.830591 561.570689 
L 235.856421 564.02876 
L 236.88225 568.180002 
L 237.90808 564.024017 
L 238.933909 557.5708 
L 239.959739 544.016203 
L 240.985569 560.990011 
L 242.011398 547.401925 
L 243.037228 547.618775 
L 244.063057 545.671708 
L 245.088887 548.806082 
L 246.114716 545.831177 
L 247.140546 547.518555 
L 248.166376 546.303219 
L 249.192205 537.24124 
L 250.218035 534.182482 
L 251.243864 530.611447 
L 252.269694 522.238372 
L 253.295523 518.584475 
L 254.321353 532.547929 
L 255.347183 524.252718 
L 256.373012 529.254587 
L 257.398842 519.285599 
L 258.424671 546.742475 
L 259.450501 527.189041 
L 260.476331 505.275358 
L 261.50216 506.989669 
L 262.52799 501.062647 
L 263.553819 509.0936 
L 264.579649 508.751973 
L 265.605478 510.208176 
L 266.631308 519.895111 
L 267.657138 512.68571 
L 268.682967 498.924233 
L 269.708797 506.388581 
L 270.734626 523.989226 
L 271.760456 511.801295 
L 272.786286 501.827308 
L 273.812115 496.037361 
L 274.837945 500.660701 
L 275.863774 494.030316 
L 276.889604 490.077496 
L 277.915433 469.837874 
L 278.941263 506.348986 
L 279.967093 485.517271 
L 280.992922 509.544781 
L 282.018752 470.31764 
L 283.044581 486.739416 
L 284.070411 477.747555 
L 285.09624 465.537842 
L 286.12207 479.362574 
L 287.1479 484.192319 
L 288.173729 454.31619 
L 289.199559 474.136982 
L 290.225388 449.362014 
L 291.251218 493.867447 
L 292.277048 478.675448 
L 293.302877 459.655451 
L 294.328707 474.22949 
L 295.354536 477.812407 
L 296.380366 457.643918 
L 297.406195 484.984359 
L 298.432025 453.358264 
L 299.457855 467.973086 
L 300.483684 440.746862 
L 301.509514 461.529372 
L 302.535343 435.437703 
L 303.561173 470.165936 
L 304.587002 447.535399 
L 305.612832 466.363151 
L 306.638662 446.718048 
L 307.664491 451.62437 
L 308.690321 451.162798 
L 309.71615 461.38688 
L 310.74198 435.40412 
L 311.76781 471.081528 
L 312.793639 455.066985 
L 313.819469 444.15709 
L 314.845298 463.406644 
L 315.871128 459.282703 
L 316.896957 493.789302 
L 317.922787 482.283058 
L 318.948617 480.31321 
L 319.974446 484.703598 
L 321.000276 469.751953 
L 322.026105 480.84423 
L 323.051935 467.179246 
L 324.077765 477.755196 
L 325.103594 479.985829 
L 326.129424 498.358045 
L 327.155253 465.733326 
L 328.181083 457.043791 
L 329.206912 449.95284 
L 330.232742 448.415712 
L 331.258572 460.629771 
L 332.284401 457.075637 
L 333.310231 453.027305 
L 334.33606 450.812241 
L 335.36189 433.31159 
L 336.387719 437.888328 
L 337.413549 471.005699 
L 338.439379 462.391293 
L 339.465208 510.196257 
L 340.491038 483.983646 
L 341.516867 550.196842 
L 342.542697 496.370132 
L 343.568527 479.865882 
L 344.594356 444.776523 
L 345.620186 442.419555 
L 346.646015 473.552725 
L 347.671845 461.313312 
L 348.697674 483.233836 
L 349.723504 478.421406 
L 351.775163 444.537392 
L 352.800993 482.844204 
L 353.826822 468.824636 
L 354.852652 481.509836 
L 355.878481 418.217899 
L 356.904311 463.730387 
L 357.930141 454.972605 
L 358.95597 479.436588 
L 359.9818 417.46641 
L 361.007629 460.334304 
L 362.033459 457.407944 
L 363.059289 466.193484 
L 364.085118 457.57449 
L 365.110948 466.607361 
L 366.136777 462.90395 
L 367.162607 420.931266 
L 368.188436 407.265317 
L 369.214266 338.939545 
L 370.240096 326.312377 
L 371.265925 339.779263 
L 372.291755 331.386483 
L 373.317584 346.326228 
L 374.343414 314.130562 
L 375.369243 341.710433 
L 376.395073 348.132685 
L 377.420903 336.480308 
L 378.446732 323.026333 
L 379.472562 325.968181 
L 380.498391 311.212729 
L 381.524221 339.427511 
L 382.550051 312.653848 
L 383.57588 323.983737 
L 384.60171 306.708337 
L 385.627539 352.481663 
L 386.653369 348.327098 
L 387.679198 386.393109 
L 388.705028 317.82093 
L 389.730858 349.92562 
L 390.756687 361.721551 
L 391.782517 344.260578 
L 392.808346 363.548685 
L 393.834176 367.838793 
L 394.860006 359.818815 
L 396.911665 369.954596 
L 397.937494 360.002013 
L 398.963324 285.639818 
L 399.989153 345.065588 
L 401.014983 331.738448 
L 402.040813 375.379843 
L 403.066642 291.533197 
L 404.092472 321.055564 
L 405.118301 346.950675 
L 406.144131 319.8663 
L 407.16996 311.733793 
L 409.22162 372.201192 
L 410.247449 345.601929 
L 411.273279 361.137684 
L 412.299108 316.846341 
L 413.324938 323.739142 
L 414.350768 318.369995 
L 415.376597 337.99356 
L 416.402427 345.251852 
L 417.428256 348.816009 
L 418.454086 351.796097 
L 419.479915 337.889828 
L 420.505745 349.277655 
L 421.531575 321.647035 
L 422.557404 314.651084 
L 423.583234 444.031653 
L 424.609063 425.661854 
L 425.634893 433.033066 
L 426.660722 432.5702 
L 427.686552 329.803375 
L 428.712382 317.788146 
L 429.738211 314.981718 
L 430.764041 434.580717 
L 431.78987 433.609702 
L 432.8157 434.957461 
L 433.84153 438.416036 
L 434.867359 430.381557 
L 435.893189 445.784062 
L 436.919018 432.24431 
L 437.944848 441.461358 
L 438.970677 430.656255 
L 439.996507 437.456748 
L 441.022337 411.095173 
L 442.048166 413.827945 
L 443.073996 415.023127 
L 444.099825 441.826096 
L 445.125655 359.665097 
L 446.151485 393.044136 
L 447.177314 382.054916 
L 448.203144 388.461879 
L 449.228973 399.463811 
L 450.254803 381.053718 
L 451.280632 375.33801 
L 452.306462 404.354472 
L 453.332292 380.559513 
L 454.358121 408.087358 
L 455.383951 380.116123 
L 456.40978 383.038449 
L 457.43561 383.99632 
L 458.461439 403.831874 
L 459.487269 379.301193 
L 460.513099 400.444144 
L 461.538928 386.437701 
L 462.564758 388.070713 
L 463.590587 353.380749 
L 464.616417 389.723419 
L 465.642247 365.488574 
L 466.668076 390.562923 
L 467.693906 365.522665 
L 468.719735 376.88135 
L 469.745565 368.525247 
L 470.771394 395.436253 
L 471.797224 370.052501 
L 472.823054 385.221141 
L 473.848883 371.228679 
L 474.874713 394.994661 
L 475.900542 400.729098 
L 476.926372 383.864246 
L 477.952201 373.437521 
L 478.978031 379.036197 
L 480.003861 436.14924 
L 481.02969 388.856216 
L 482.05552 366.42271 
L 483.081349 389.679661 
L 484.107179 377.250727 
L 485.133009 403.683153 
L 486.158838 381.163479 
L 487.184668 373.885857 
L 488.210497 382.431395 
L 489.236327 388.509364 
L 490.262156 359.961176 
L 491.287986 377.607489 
L 492.313816 366.553076 
L 493.339645 400.880669 
L 494.365475 392.350965 
L 495.391304 395.662359 
L 496.417134 360.42995 
L 497.442964 394.684601 
L 498.468793 398.726067 
L 499.494623 394.681806 
L 500.520452 402.404993 
L 501.546282 396.04469 
L 502.572111 359.39234 
L 503.597941 409.281093 
L 504.623771 399.076686 
L 505.6496 405.406441 
L 506.67543 402.917435 
L 507.701259 406.879522 
L 508.727089 389.044958 
L 509.752918 409.835056 
L 510.778748 389.276101 
L 511.804578 407.650802 
L 512.830407 389.215033 
L 513.856237 380.645886 
L 514.882066 389.828444 
L 515.907896 401.819363 
L 516.933726 379.168206 
L 517.959555 399.886059 
L 518.985385 374.939654 
L 520.011214 426.64211 
L 521.037044 412.946668 
L 522.062873 397.415402 
L 523.088703 395.156016 
L 524.114533 403.969624 
L 525.140362 386.395413 
L 526.166192 417.685455 
L 527.192021 393.533431 
L 528.217851 404.484661 
L 529.24368 505.175638 
L 530.26951 397.887964 
L 531.29534 377.913948 
L 532.321169 425.789288 
L 533.346999 357.325626 
L 534.372828 378.495404 
L 535.398658 374.973841 
L 536.424488 402.592763 
L 537.450317 323.889408 
L 538.476147 371.102964 
L 539.501976 347.153809 
L 540.527806 377.987046 
L 541.553635 362.231046 
L 542.579465 385.141172 
L 543.605295 396.447883 
L 544.631124 393.347339 
L 545.656954 384.844188 
L 546.682783 389.31078 
L 547.708613 390.513676 
L 548.734443 394.088399 
L 549.760272 404.208971 
L 550.786102 359.475298 
L 551.811931 416.514531 
L 552.837761 369.256138 
L 553.86359 378.976423 
L 554.88942 385.676151 
L 555.91525 390.969897 
L 556.941079 362.576163 
L 557.966909 411.570287 
L 558.992738 368.742282 
L 560.018568 386.196355 
L 561.044397 379.047855 
L 562.070227 395.448571 
L 563.096057 308.03882 
L 564.121886 369.948193 
L 565.147716 357.392906 
L 566.173545 373.082826 
L 567.199375 339.707928 
L 568.225205 383.917061 
L 569.251034 355.406551 
L 570.276864 364.176473 
L 571.302693 357.064217 
L 572.328523 371.252459 
L 573.354352 356.689043 
L 574.380182 390.325501 
L 575.406012 339.888394 
L 576.431841 368.340806 
L 577.457671 337.614723 
L 578.4835 405.421708 
L 579.50933 370.535999 
L 580.535159 393.191566 
L 581.560989 374.442485 
L 582.586819 401.897491 
L 583.612648 360.033445 
L 584.638478 374.635584 
L 585.664307 351.149265 
L 586.690137 372.002395 
L 587.715967 370.356673 
L 588.741796 368.499331 
L 589.767626 346.065413 
L 590.793455 389.973501 
L 591.819285 345.536562 
L 592.845114 371.5103 
L 593.870944 377.336865 
L 594.896774 374.634297 
L 596.948433 367.992692 
L 597.974262 384.886562 
L 599.000092 360.078912 
L 600.025922 377.575464 
L 601.051751 358.242687 
L 602.077581 374.488995 
L 603.10341 359.414164 
L 604.12924 367.313573 
L 605.155069 344.756138 
L 606.180899 377.323445 
L 607.206729 344.098363 
L 608.232558 364.156325 
L 609.258388 349.105868 
L 610.284217 386.788752 
L 611.310047 359.422548 
L 612.335876 378.942006 
L 613.361706 361.190233 
L 614.387536 370.287776 
L 615.413365 376.798775 
L 616.439195 375.743311 
L 617.465024 436.407165 
L 618.490854 356.695696 
L 619.516684 431.950709 
L 620.542513 372.082705 
L 621.568343 346.641769 
L 622.594172 368.25825 
L 623.620002 342.21617 
L 624.645831 366.851359 
L 625.671661 344.260002 
L 626.697491 376.582797 
L 627.72332 339.112695 
L 628.74915 368.187474 
L 629.774979 359.417545 
L 630.800809 376.063467 
L 631.826638 349.625967 
L 632.852468 367.671784 
L 633.878298 356.598495 
L 634.904127 361.138309 
L 635.929957 356.370024 
L 636.955786 369.773587 
L 637.981616 368.200792 
L 639.007446 384.150337 
L 640.033275 376.725404 
L 641.059105 375.015792 
L 642.084934 341.475087 
L 643.110764 379.938161 
L 644.136593 333.131405 
L 645.162423 375.420784 
L 646.188253 345.120406 
L 647.214082 361.181004 
L 648.239912 381.265544 
L 649.265741 341.559993 
L 650.291571 392.088375 
L 651.3174 343.397306 
L 652.34323 365.530185 
L 653.36906 340.371368 
L 654.394889 377.996196 
L 655.420719 364.301103 
L 656.446548 370.675119 
L 657.472378 351.268596 
L 658.498208 364.782514 
L 659.524037 364.501207 
L 660.549867 364.677788 
L 661.575696 347.489749 
L 662.601526 361.928132 
L 663.627355 340.141793 
L 664.653185 363.677379 
L 665.679015 346.195673 
L 666.704844 365.287545 
L 667.730674 349.815246 
L 668.756503 362.109021 
L 669.782333 377.644302 
L 670.808163 381.425592 
L 671.833992 304.888313 
L 672.859822 359.021239 
L 673.885651 346.120532 
L 674.911481 362.902253 
L 675.93731 346.449226 
L 676.96314 361.819597 
L 677.98897 371.6761 
L 679.014799 365.23923 
L 680.040629 338.94309 
L 681.066458 364.161931 
L 682.092288 339.91696 
L 683.118117 442.565968 
L 684.143947 335.544357 
L 685.169777 367.830068 
L 686.195606 345.844039 
L 687.221436 371.669113 
L 688.247265 354.698166 
L 689.273095 387.697103 
L 690.298925 344.450725 
L 691.324754 328.876374 
L 692.350584 353.326801 
L 693.376413 367.300246 
L 694.402243 361.448345 
L 695.428072 440.829825 
L 696.453902 353.808628 
L 697.479732 365.031021 
L 698.505561 347.885405 
L 699.531391 421.60237 
L 700.55722 366.441359 
L 701.58305 376.669208 
L 702.608879 337.74265 
L 703.634709 358.073 
L 704.660539 320.547026 
L 705.686368 372.978213 
L 706.712198 341.317714 
L 707.738027 365.09516 
L 708.763857 342.935361 
L 709.789687 357.496144 
L 710.815516 339.180336 
L 711.841346 372.112184 
L 712.867175 336.650986 
L 713.893005 367.608063 
L 714.918834 345.304287 
L 715.944664 370.25805 
L 716.970494 347.418419 
L 717.996323 381.797834 
L 719.022153 349.110315 
L 720.047982 383.850407 
L 721.073812 341.480173 
L 722.099642 372.266048 
L 723.125471 369.700448 
L 724.151301 383.171964 
L 725.17713 415.913565 
L 726.20296 371.180723 
L 727.228789 314.176047 
L 728.254619 367.795255 
L 729.280449 347.153078 
L 730.306278 364.811511 
L 731.332108 347.216256 
L 732.357937 360.87235 
L 733.383767 337.124269 
L 734.409596 368.458094 
L 735.435426 348.010592 
L 736.461256 368.01917 
L 737.487085 328.866891 
L 738.512915 362.230967 
L 739.538744 361.175655 
L 740.564574 446.349282 
L 741.590404 345.576876 
L 742.616233 370.599702 
L 743.642063 343.675392 
L 744.667892 363.639392 
L 745.693722 349.64729 
L 746.719551 366.148219 
L 747.745381 346.642603 
L 748.771211 362.680836 
L 749.79704 348.713422 
L 750.82287 425.614261 
L 751.848699 356.017616 
L 752.874529 379.215202 
L 753.900358 360.720305 
L 754.926188 378.149618 
L 755.952018 353.061204 
L 756.977847 381.296384 
L 758.003677 355.266263 
L 759.029506 373.795315 
L 760.055336 341.302968 
L 761.081166 368.96766 
L 762.106995 356.43088 
L 763.132825 379.738288 
L 764.158654 368.858336 
L 765.184484 369.173109 
L 766.210313 343.392729 
L 767.236143 337.92288 
L 768.261973 368.071275 
L 769.287802 350.255715 
L 770.313632 362.481079 
L 771.339461 364.213184 
L 772.365291 344.240343 
L 773.391121 374.318756 
L 774.41695 307.730837 
L 775.44278 357.720053 
L 776.468609 340.539428 
L 777.494439 395.849988 
L 778.520268 341.590543 
L 779.546098 359.247593 
L 780.571928 328.823222 
L 781.597757 355.621237 
L 782.623587 336.110225 
L 783.649416 361.947563 
L 784.675246 340.819033 
L 785.701075 365.016221 
L 786.726905 333.314868 
L 787.752735 357.999041 
L 788.778564 336.12267 
L 789.804394 364.853411 
L 790.830223 339.369588 
L 791.856053 348.269638 
L 792.881883 332.291884 
L 793.907712 367.688793 
L 794.933542 364.773467 
L 795.959371 367.768487 
L 796.985201 335.930863 
L 798.01103 375.136195 
L 799.03686 343.762608 
L 800.06269 363.597652 
L 801.088519 345.30721 
L 802.114349 370.44525 
L 803.140178 340.161568 
L 804.166008 365.164053 
L 805.191837 336.491138 
L 806.217667 377.180741 
L 807.243497 344.900842 
L 808.269326 356.572304 
L 809.295156 323.935731 
L 810.320985 361.621243 
L 811.346815 388.669747 
L 812.372645 357.935631 
L 813.398474 337.60208 
L 814.424304 355.100195 
L 815.450133 331.960959 
L 816.475963 354.737695 
L 817.501792 341.615996 
L 818.527622 387.697417 
L 819.553452 330.692566 
L 820.579281 344.911354 
L 821.605111 338.179283 
L 822.63094 361.627174 
L 823.65677 317.011778 
L 824.6826 394.793208 
L 825.708429 360.928791 
L 826.734259 359.199366 
L 827.760088 337.732054 
L 828.785918 374.785605 
L 829.811747 330.427042 
L 830.837577 356.710204 
L 831.863407 393.324249 
L 833.915066 334.241874 
L 834.940895 359.855678 
L 835.966725 345.983504 
L 836.992554 318.808693 
L 838.018384 334.432371 
L 839.044214 355.576285 
L 840.070043 337.211021 
L 841.095873 361.210827 
L 842.121702 328.727459 
L 843.147532 366.285171 
L 844.173362 336.192651 
L 845.199191 335.683346 
L 846.225021 344.637914 
L 847.25085 360.743273 
L 848.27668 339.113482 
L 849.302509 357.056742 
L 850.328339 347.276379 
L 851.354169 324.253541 
L 852.379998 344.983999 
L 853.405828 361.420018 
L 854.431657 333.156689 
L 855.457487 354.071836 
L 856.483316 326.20198 
L 857.509146 354.254819 
L 858.534976 331.899929 
L 859.560805 334.125347 
L 860.586635 333.285736 
L 861.612464 347.663793 
L 862.638294 322.825851 
L 863.664124 353.735355 
L 864.689953 342.30761 
L 865.715783 345.610626 
L 866.741612 352.919712 
L 867.767442 354.941497 
L 868.793271 350.288369 
L 869.819101 357.519581 
L 870.844931 344.605005 
L 871.87076 360.214425 
L 872.89659 344.385954 
L 873.922419 359.676432 
L 874.948249 339.185321 
L 875.974078 361.640446 
L 876.999908 343.859407 
L 878.025738 348.14656 
L 879.051567 350.644607 
L 880.077397 390.873938 
L 881.103226 332.209678 
L 882.129056 365.790914 
L 883.154886 332.864049 
L 884.180715 391.662982 
L 885.206545 345.619765 
L 886.232374 361.305399 
L 887.258204 341.837475 
L 888.284033 366.588375 
L 889.309863 336.181954 
L 890.335693 391.548158 
L 891.361522 332.135497 
L 892.387352 368.915966 
L 893.413181 343.961623 
L 894.439011 360.303751 
L 895.464841 342.038939 
L 896.49067 353.044193 
L 897.5165 337.31698 
L 898.542329 366.040419 
L 899.568159 335.963036 
L 900.593988 397.946872 
L 901.619818 360.61034 
L 902.645648 366.022952 
L 903.671477 353.240043 
L 904.697307 366.191922 
L 905.723136 351.912832 
L 906.748966 308.30293 
L 907.774795 345.630378 
L 909.826455 334.623625 
L 910.852284 359.547606 
L 911.878114 335.297317 
L 912.903943 366.895483 
L 913.929773 346.195496 
L 914.955603 363.993142 
L 915.981432 344.448387 
L 917.007262 365.481514 
L 918.033091 265.538264 
L 919.058921 371.084908 
L 920.08475 344.899181 
L 921.11058 364.555035 
L 922.13641 311.974709 
L 923.162239 437.944163 
L 924.188069 338.030288 
L 925.213898 363.592557 
L 926.239728 336.963064 
L 927.265557 369.234347 
L 928.291387 351.29269 
L 929.317217 424.063119 
L 931.368876 256.219634 
L 932.394705 329.78071 
L 933.420535 363.987933 
L 934.446365 317.542233 
L 935.472194 340.876802 
L 936.498024 302.593472 
L 937.523853 365.58044 
L 938.549683 347.188378 
L 939.575512 339.927386 
L 940.601342 343.344683 
L 941.627172 459.115109 
L 942.653001 376.150871 
L 943.678831 360.055593 
L 944.70466 340.007974 
L 945.73049 357.444245 
L 946.75632 343.19064 
L 947.782149 351.358591 
L 948.807979 402.840921 
L 949.833808 334.209902 
L 950.859638 346.994949 
L 951.885467 362.357674 
L 952.911297 334.146818 
L 953.937127 367.701698 
L 954.962956 351.270176 
L 955.988786 381.18614 
L 957.014615 339.293318 
L 958.040445 350.22035 
L 959.066274 325.749042 
L 960.092104 347.96631 
L 961.117934 355.705912 
L 962.143763 402.339299 
L 963.169593 347.815686 
L 964.195422 416.620227 
L 965.221252 311.127397 
L 966.247082 411.333565 
L 967.272911 340.762559 
L 968.298741 294.673638 
L 969.32457 342.98889 
L 970.3504 350.354565 
L 971.376229 336.055928 
L 972.402059 362.066468 
L 973.427889 348.267918 
L 974.453718 331.522524 
L 975.479548 331.818121 
L 976.505377 356.580319 
L 977.531207 332.388104 
L 978.557036 358.826375 
L 979.582866 329.135337 
L 980.608696 373.21346 
L 981.634525 327.327836 
L 982.660355 355.997433 
L 983.686184 335.441816 
L 984.712014 354.890436 
L 985.737844 366.66141 
L 986.763673 332.92787 
L 988.815332 370.800753 
L 989.841162 342.36691 
L 990.866991 369.172779 
L 991.892821 328.766619 
L 992.918651 377.48439 
L 993.94448 282.208844 
L 994.97031 358.541325 
L 995.996139 334.254881 
L 997.021969 389.525534 
L 998.047799 335.333209 
L 999.073628 348.414039 
L 1000.099458 326.336865 
L 1001.125287 371.303002 
L 1002.151117 329.114298 
L 1003.176946 357.863213 
L 1004.202776 332.280101 
L 1005.228606 346.570463 
L 1006.254435 317.761069 
L 1007.280265 362.581651 
L 1008.306094 345.159951 
L 1009.331924 358.018179 
L 1010.357753 331.831222 
L 1011.383583 360.201444 
L 1012.409413 368.399125 
L 1013.435242 364.651043 
L 1014.461072 322.349505 
L 1015.486901 337.374184 
L 1016.512731 330.361175 
L 1017.538561 356.843656 
L 1018.56439 329.852286 
L 1019.59022 387.634604 
L 1020.616049 335.140765 
L 1021.641879 370.065447 
L 1022.667708 338.936428 
L 1023.693538 359.506741 
L 1024.719368 326.825753 
L 1025.745197 377.922416 
L 1026.771027 321.545479 
L 1027.796856 355.666656 
L 1028.822686 331.191735 
L 1029.848515 343.800145 
L 1030.874345 340.421349 
L 1031.900175 335.524721 
L 1032.926004 297.253382 
L 1033.951834 342.820025 
L 1034.977663 343.270602 
L 1036.003493 354.672634 
L 1037.029323 322.632917 
L 1038.055152 367.787169 
L 1039.080982 316.017344 
L 1040.106811 357.758981 
L 1041.132641 334.024739 
L 1042.15847 381.39763 
L 1043.1843 336.635745 
L 1044.21013 389.675102 
L 1045.235959 340.887839 
L 1046.261789 337.609851 
L 1047.287618 376.223215 
L 1048.313448 362.166369 
L 1049.339278 336.364177 
L 1050.365107 354.361155 
L 1051.390937 357.447379 
L 1052.416766 339.932939 
L 1053.442596 327.924367 
L 1054.468425 355.668993 
L 1055.494255 325.877737 
L 1056.520085 357.586264 
L 1057.545914 330.800567 
L 1058.571744 354.602888 
L 1059.597573 330.858148 
L 1060.623403 354.953717 
L 1061.649232 320.095514 
L 1062.675062 385.949192 
L 1063.700892 337.097959 
L 1064.726721 362.042834 
L 1065.752551 289.781422 
L 1066.77838 353.276837 
L 1067.80421 341.172097 
L 1068.83004 360.643814 
L 1069.855869 336.7772 
L 1070.881699 354.854213 
L 1071.907528 323.723455 
L 1072.933358 341.445335 
L 1073.959187 305.800704 
L 1074.985017 362.623146 
L 1076.010847 334.901204 
L 1077.036676 362.151378 
L 1078.062506 333.707412 
L 1079.088335 356.982878 
L 1080.114165 328.503451 
L 1081.139994 364.836956 
L 1082.165824 322.22207 
L 1083.191654 354.343524 
L 1084.217483 335.262598 
L 1085.243313 362.242485 
L 1086.269142 329.456059 
L 1087.294972 353.13524 
L 1088.320802 330.822503 
L 1089.346631 336.432481 
L 1090.372461 311.392311 
L 1091.39829 362.689197 
L 1092.42412 335.805142 
L 1093.449949 351.207724 
L 1094.475779 312.012557 
L 1095.501609 361.96826 
L 1096.527438 341.026964 
L 1097.553268 358.476856 
L 1098.579097 339.128463 
L 1099.604927 348.866075 
L 1100.630757 339.887348 
L 1101.656586 351.192083 
L 1102.682416 330.773455 
L 1103.708245 352.070355 
L 1104.734075 330.970845 
L 1105.759904 361.564506 
L 1106.785734 330.113233 
L 1107.811564 353.321816 
L 1108.837393 333.02474 
L 1109.863223 351.671877 
L 1110.889052 340.541851 
L 1111.914882 348.665023 
L 1112.940711 324.113594 
L 1113.966541 361.072837 
L 1114.992371 322.378374 
L 1116.0182 364.179319 
L 1117.04403 327.053108 
L 1118.069859 360.701712 
L 1119.095689 333.268089 
L 1120.121519 353.541278 
L 1121.147348 332.471472 
L 1122.173178 350.368838 
L 1123.199007 330.701165 
L 1124.224837 395.709814 
L 1125.250666 338.532978 
L 1126.276496 357.580976 
L 1127.302326 336.272751 
L 1128.328155 360.80073 
L 1129.353985 338.283115 
L 1130.379814 361.419711 
L 1131.405644 317.873057 
L 1132.431473 327.345362 
L 1133.457303 335.619779 
L 1134.483133 348.918987 
L 1135.508962 324.575695 
L 1136.534792 339.496896 
L 1137.560621 332.558144 
L 1138.586451 347.695881 
L 1139.612281 390.703159 
L 1140.63811 297.387287 
L 1141.66394 344.130907 
L 1142.689769 360.812564 
L 1143.715599 330.281122 
L 1144.741428 363.218151 
L 1145.767258 317.323407 
L 1146.793088 351.434135 
L 1147.818917 318.004874 
L 1148.844747 356.169018 
L 1149.870576 320.871793 
L 1150.896406 354.769192 
L 1151.922235 336.269446 
L 1152.948065 358.916465 
L 1153.973895 336.332269 
L 1154.999724 355.683796 
L 1156.025554 332.904558 
L 1157.051383 355.556338 
L 1158.077213 305.71486 
L 1159.103043 389.88855 
L 1160.128872 314.73815 
L 1161.154702 359.978215 
L 1162.180531 328.919035 
L 1163.206361 340.854068 
L 1164.23219 329.432004 
L 1166.28385 343.53699 
L 1167.309679 360.075019 
L 1168.335509 327.165818 
L 1169.361338 352.050386 
L 1170.387168 331.192778 
L 1171.412998 354.897914 
L 1172.438827 331.232505 
L 1173.464657 348.019133 
L 1174.490486 307.963745 
L 1175.516316 347.262042 
L 1176.542145 327.667633 
L 1177.567975 346.076836 
L 1178.593805 326.359278 
L 1179.619634 378.047742 
L 1180.645464 328.988181 
L 1181.671293 348.398746 
L 1182.697123 331.782587 
L 1183.722952 435.259398 
L 1184.748782 332.1772 
L 1185.774612 351.903246 
L 1186.800441 329.991749 
L 1187.826271 350.860495 
L 1188.8521 320.568758 
L 1189.87793 345.767487 
L 1190.90376 331.488614 
L 1191.929589 348.445522 
L 1192.955419 307.972816 
L 1193.981248 349.478575 
L 1195.007078 323.375071 
L 1196.032907 356.283189 
L 1197.058737 325.884665 
L 1198.084567 321.781826 
L 1199.110396 306.305935 
L 1200.136226 345.696404 
L 1201.162055 332.579025 
L 1202.187885 381.324271 
L 1203.213714 341.177078 
L 1204.239544 354.082025 
L 1205.265374 322.073059 
L 1206.291203 363.934905 
L 1207.317033 331.871147 
L 1208.342862 287.617175 
L 1209.368692 321.291698 
L 1210.394522 377.976616 
L 1211.420351 337.451027 
L 1212.446181 352.617389 
L 1213.47201 326.467988 
L 1214.49784 393.006349 
L 1215.523669 318.862939 
L 1216.549499 310.297925 
L 1217.575329 314.668754 
L 1218.601158 365.110026 
L 1219.626988 327.349891 
L 1220.652817 367.374082 
L 1221.678647 334.994337 
L 1222.704477 352.586276 
L 1223.730306 328.155963 
L 1224.756136 338.814953 
L 1225.781965 331.200852 
L 1226.807795 338.434473 
L 1227.833624 320.031045 
L 1228.859454 341.533474 
L 1229.885284 318.419707 
L 1230.911113 354.161796 
L 1231.936943 327.60962 
L 1232.962772 353.576494 
L 1233.988602 331.554564 
L 1235.014431 375.948081 
L 1236.040261 328.671801 
L 1237.066091 349.39169 
L 1238.09192 328.613962 
L 1239.11775 349.725691 
L 1240.143579 322.017296 
L 1241.169409 354.554835 
L 1242.195239 312.280588 
L 1243.221068 343.95246 
L 1244.246898 324.411975 
L 1245.272727 359.639163 
L 1245.272727 359.639163 
" style="fill:none;stroke:#ff7f0e;stroke-linecap:square;stroke-width:1.5;"/>
   </g>
   <g id="patch_3">
    <path d="M 180 640.8 
L 180 86.4 
" style="fill:none;stroke:#000000;stroke-linecap:square;stroke-linejoin:miter;stroke-width:0.8;"/>
   </g>
   <g id="patch_4">
    <path d="M 1296 640.8 
L 1296 86.4 
" style="fill:none;stroke:#000000;stroke-linecap:square;stroke-linejoin:miter;stroke-width:0.8;"/>
   </g>
   <g id="patch_5">
    <path d="M 180 640.8 
L 1296 640.8 
" style="fill:none;stroke:#000000;stroke-linecap:square;stroke-linejoin:miter;stroke-width:0.8;"/>
   </g>
   <g id="patch_6">
    <path d="M 180 86.4 
L 1296 86.4 
" style="fill:none;stroke:#000000;stroke-linecap:square;stroke-linejoin:miter;stroke-width:0.8;"/>
   </g>
   <g id="text_20">
    <!-- Money Flow Index (MFI) Speedup -->
    <defs>
     <path d="M 9.8125 72.90625 
L 24.515625 72.90625 
L 43.109375 23.296875 
L 61.8125 72.90625 
L 76.515625 72.90625 
L 76.515625 0 
L 66.890625 0 
L 66.890625 64.015625 
L 48.09375 14.015625 
L 38.1875 14.015625 
L 19.390625 64.015625 
L 19.390625 0 
L 9.8125 0 
z
" id="DejaVuSans-77"/>
     <path d="M 30.609375 48.390625 
Q 23.390625 48.390625 19.1875 42.75 
Q 14.984375 37.109375 14.984375 27.296875 
Q 14.984375 17.484375 19.15625 11.84375 
Q 23.34375 6.203125 30.609375 6.203125 
Q 37.796875 6.203125 41.984375 11.859375 
Q 46.1875 17.53125 46.1875 27.296875 
Q 46.1875 37.015625 41.984375 42.703125 
Q 37.796875 48.390625 30.609375 48.390625 
z
M 30.609375 56 
Q 42.328125 56 49.015625 48.375 
Q 55.71875 40.765625 55.71875 27.296875 
Q 55.71875 13.875 49.015625 6.21875 
Q 42.328125 -1.421875 30.609375 -1.421875 
Q 18.84375 -1.421875 12.171875 6.21875 
Q 5.515625 13.875 5.515625 27.296875 
Q 5.515625 40.765625 12.171875 48.375 
Q 18.84375 56 30.609375 56 
z
" id="DejaVuSans-111"/>
     <path d="M 32.171875 -5.078125 
Q 28.375 -14.84375 24.75 -17.8125 
Q 21.140625 -20.796875 15.09375 -20.796875 
L 7.90625 -20.796875 
L 7.90625 -13.28125 
L 13.1875 -13.28125 
Q 16.890625 -13.28125 18.9375 -11.515625 
Q 21 -9.765625 23.484375 -3.21875 
L 25.09375 0.875 
L 2.984375 54.6875 
L 12.5 54.6875 
L 29.59375 11.921875 
L 46.6875 54.6875 
L 56.203125 54.6875 
z
" id="DejaVuSans-121"/>
     <path id="DejaVuSans-32"/>
     <path d="M 9.8125 72.90625 
L 51.703125 72.90625 
L 51.703125 64.59375 
L 19.671875 64.59375 
L 19.671875 43.109375 
L 48.578125 43.109375 
L 48.578125 34.8125 
L 19.671875 34.8125 
L 19.671875 0 
L 9.8125 0 
z
" id="DejaVuSans-70"/>
     <path d="M 9.421875 75.984375 
L 18.40625 75.984375 
L 18.40625 0 
L 9.421875 0 
z
" id="DejaVuSans-108"/>
     <path d="M 4.203125 54.6875 
L 13.1875 54.6875 
L 24.421875 12.015625 
L 35.59375 54.6875 
L 46.1875 54.6875 
L 57.421875 12.015625 
L 68.609375 54.6875 
L 77.59375 54.6875 
L 63.28125 0 
L 52.6875 0 
L 40.921875 44.828125 
L 29.109375 0 
L 18.5 0 
z
" id="DejaVuSans-119"/>
     <path d="M 9.8125 72.90625 
L 19.671875 72.90625 
L 19.671875 0 
L 9.8125 0 
z
" id="DejaVuSans-73"/>
     <path d="M 54.890625 54.6875 
L 35.109375 28.078125 
L 55.90625 0 
L 45.3125 0 
L 29.390625 21.484375 
L 13.484375 0 
L 2.875 0 
L 24.125 28.609375 
L 4.6875 54.6875 
L 15.28125 54.6875 
L 29.78125 35.203125 
L 44.28125 54.6875 
z
" id="DejaVuSans-120"/>
     <path d="M 31 75.875 
Q 24.46875 64.65625 21.28125 53.65625 
Q 18.109375 42.671875 18.109375 31.390625 
Q 18.109375 20.125 21.3125 9.0625 
Q 24.515625 -2 31 -13.1875 
L 23.1875 -13.1875 
Q 15.875 -1.703125 12.234375 9.375 
Q 8.59375 20.453125 8.59375 31.390625 
Q 8.59375 42.28125 12.203125 53.3125 
Q 15.828125 64.359375 23.1875 75.875 
z
" id="DejaVuSans-40"/>
     <path d="M 8.015625 75.875 
L 15.828125 75.875 
Q 23.140625 64.359375 26.78125 53.3125 
Q 30.421875 42.28125 30.421875 31.390625 
Q 30.421875 20.453125 26.78125 9.375 
Q 23.140625 -1.703125 15.828125 -13.1875 
L 8.015625 -13.1875 
Q 14.5 -2 17.703125 9.0625 
Q 20.90625 20.125 20.90625 31.390625 
Q 20.90625 42.671875 17.703125 53.65625 
Q 14.5 64.65625 8.015625 75.875 
z
" id="DejaVuSans-41"/>
     <path d="M 53.515625 70.515625 
L 53.515625 60.890625 
Q 47.90625 63.578125 42.921875 64.890625 
Q 37.9375 66.21875 33.296875 66.21875 
Q 25.25 66.21875 20.875 63.09375 
Q 16.5 59.96875 16.5 54.203125 
Q 16.5 49.359375 19.40625 46.890625 
Q 22.3125 44.4375 30.421875 42.921875 
L 36.375 41.703125 
Q 47.40625 39.59375 52.65625 34.296875 
Q 57.90625 29 57.90625 20.125 
Q 57.90625 9.515625 50.796875 4.046875 
Q 43.703125 -1.421875 29.984375 -1.421875 
Q 24.8125 -1.421875 18.96875 -0.25 
Q 13.140625 0.921875 6.890625 3.21875 
L 6.890625 13.375 
Q 12.890625 10.015625 18.65625 8.296875 
Q 24.421875 6.59375 29.984375 6.59375 
Q 38.421875 6.59375 43.015625 9.90625 
Q 47.609375 13.234375 47.609375 19.390625 
Q 47.609375 24.75 44.3125 27.78125 
Q 41.015625 30.8125 33.5 32.328125 
L 27.484375 33.5 
Q 16.453125 35.6875 11.515625 40.375 
Q 6.59375 45.0625 6.59375 53.421875 
Q 6.59375 63.09375 13.40625 68.65625 
Q 20.21875 74.21875 32.171875 74.21875 
Q 37.3125 74.21875 42.625 73.28125 
Q 47.953125 72.359375 53.515625 70.515625 
z
" id="DejaVuSans-83"/>
    </defs>
    <g transform="translate(638.760937 80.4)scale(0.12 -0.12)">
     <use xlink:href="#DejaVuSans-77"/>
     <use x="86.279297" xlink:href="#DejaVuSans-111"/>
     <use x="147.460938" xlink:href="#DejaVuSans-110"/>
     <use x="210.839844" xlink:href="#DejaVuSans-101"/>
     <use x="272.363281" xlink:href="#DejaVuSans-121"/>
     <use x="331.542969" xlink:href="#DejaVuSans-32"/>
     <use x="363.330078" xlink:href="#DejaVuSans-70"/>
     <use x="420.849609" xlink:href="#DejaVuSans-108"/>
     <use x="448.632812" xlink:href="#DejaVuSans-111"/>
     <use x="509.814453" xlink:href="#DejaVuSans-119"/>
     <use x="591.601562" xlink:href="#DejaVuSans-32"/>
     <use x="623.388672" xlink:href="#DejaVuSans-73"/>
     <use x="652.880859" xlink:href="#DejaVuSans-110"/>
     <use x="716.259766" xlink:href="#DejaVuSans-100"/>
     <use x="779.736328" xlink:href="#DejaVuSans-101"/>
     <use x="839.509766" xlink:href="#DejaVuSans-120"/>
     <use x="898.689453" xlink:href="#DejaVuSans-32"/>
     <use x="930.476562" xlink:href="#DejaVuSans-40"/>
     <use x="969.490234" xlink:href="#DejaVuSans-77"/>
     <use x="1055.769531" xlink:href="#DejaVuSans-70"/>
     <use x="1113.289062" xlink:href="#DejaVuSans-73"/>
     <use x="1142.78125" xlink:href="#DejaVuSans-41"/>
     <use x="1181.794922" xlink:href="#DejaVuSans-32"/>
     <use x="1213.582031" xlink:href="#DejaVuSans-83"/>
     <use x="1277.058594" xlink:href="#DejaVuSans-112"/>
     <use x="1340.535156" xlink:href="#DejaVuSans-101"/>
     <use x="1402.058594" xlink:href="#DejaVuSans-101"/>
     <use x="1463.582031" xlink:href="#DejaVuSans-100"/>
     <use x="1527.058594" xlink:href="#DejaVuSans-117"/>
     <use x="1590.4375" xlink:href="#DejaVuSans-112"/>
    </g>
   </g>
   <g id="legend_1">
    <g id="patch_7">
     <path d="M 1185.373437 123.75625 
L 1289 123.75625 
Q 1291 123.75625 1291 121.75625 
L 1291 93.4 
Q 1291 91.4 1289 91.4 
L 1185.373437 91.4 
Q 1183.373437 91.4 1183.373437 93.4 
L 1183.373437 121.75625 
Q 1183.373437 123.75625 1185.373437 123.75625 
z
" style="fill:#ffffff;opacity:0.8;stroke:#cccccc;stroke-linejoin:miter;"/>
    </g>
    <g id="line2d_20">
     <path d="M 1187.373437 99.498437 
L 1207.373437 99.498437 
" style="fill:none;stroke:#1f77b4;stroke-linecap:square;stroke-width:1.5;"/>
    </g>
    <g id="line2d_21"/>
    <g id="text_21">
     <!-- numpy.float32 -->
     <defs>
      <path d="M 52 44.1875 
Q 55.375 50.25 60.0625 53.125 
Q 64.75 56 71.09375 56 
Q 79.640625 56 84.28125 50.015625 
Q 88.921875 44.046875 88.921875 33.015625 
L 88.921875 0 
L 79.890625 0 
L 79.890625 32.71875 
Q 79.890625 40.578125 77.09375 44.375 
Q 74.3125 48.1875 68.609375 48.1875 
Q 61.625 48.1875 57.5625 43.546875 
Q 53.515625 38.921875 53.515625 30.90625 
L 53.515625 0 
L 44.484375 0 
L 44.484375 32.71875 
Q 44.484375 40.625 41.703125 44.40625 
Q 38.921875 48.1875 33.109375 48.1875 
Q 26.21875 48.1875 22.15625 43.53125 
Q 18.109375 38.875 18.109375 30.90625 
L 18.109375 0 
L 9.078125 0 
L 9.078125 54.6875 
L 18.109375 54.6875 
L 18.109375 46.1875 
Q 21.1875 51.21875 25.484375 53.609375 
Q 29.78125 56 35.6875 56 
Q 41.65625 56 45.828125 52.96875 
Q 50 49.953125 52 44.1875 
z
" id="DejaVuSans-109"/>
      <path d="M 37.109375 75.984375 
L 37.109375 68.5 
L 28.515625 68.5 
Q 23.6875 68.5 21.796875 66.546875 
Q 19.921875 64.59375 19.921875 59.515625 
L 19.921875 54.6875 
L 34.71875 54.6875 
L 34.71875 47.703125 
L 19.921875 47.703125 
L 19.921875 0 
L 10.890625 0 
L 10.890625 47.703125 
L 2.296875 47.703125 
L 2.296875 54.6875 
L 10.890625 54.6875 
L 10.890625 58.5 
Q 10.890625 67.625 15.140625 71.796875 
Q 19.390625 75.984375 28.609375 75.984375 
z
" id="DejaVuSans-102"/>
      <path d="M 34.28125 27.484375 
Q 23.390625 27.484375 19.1875 25 
Q 14.984375 22.515625 14.984375 16.5 
Q 14.984375 11.71875 18.140625 8.90625 
Q 21.296875 6.109375 26.703125 6.109375 
Q 34.1875 6.109375 38.703125 11.40625 
Q 43.21875 16.703125 43.21875 25.484375 
L 43.21875 27.484375 
z
M 52.203125 31.203125 
L 52.203125 0 
L 43.21875 0 
L 43.21875 8.296875 
Q 40.140625 3.328125 35.546875 0.953125 
Q 30.953125 -1.421875 24.3125 -1.421875 
Q 15.921875 -1.421875 10.953125 3.296875 
Q 6 8.015625 6 15.921875 
Q 6 25.140625 12.171875 29.828125 
Q 18.359375 34.515625 30.609375 34.515625 
L 43.21875 34.515625 
L 43.21875 35.40625 
Q 43.21875 41.609375 39.140625 45 
Q 35.0625 48.390625 27.6875 48.390625 
Q 23 48.390625 18.546875 47.265625 
Q 14.109375 46.140625 10.015625 43.890625 
L 10.015625 52.203125 
Q 14.9375 54.109375 19.578125 55.046875 
Q 24.21875 56 28.609375 56 
Q 40.484375 56 46.34375 49.84375 
Q 52.203125 43.703125 52.203125 31.203125 
z
" id="DejaVuSans-97"/>
      <path d="M 18.3125 70.21875 
L 18.3125 54.6875 
L 36.8125 54.6875 
L 36.8125 47.703125 
L 18.3125 47.703125 
L 18.3125 18.015625 
Q 18.3125 11.328125 20.140625 9.421875 
Q 21.96875 7.515625 27.59375 7.515625 
L 36.8125 7.515625 
L 36.8125 0 
L 27.59375 0 
Q 17.1875 0 13.234375 3.875 
Q 9.28125 7.765625 9.28125 18.015625 
L 9.28125 47.703125 
L 2.6875 47.703125 
L 2.6875 54.6875 
L 9.28125 54.6875 
L 9.28125 70.21875 
z
" id="DejaVuSans-116"/>
     </defs>
     <g transform="translate(1215.373437 102.998437)scale(0.1 -0.1)">
      <use xlink:href="#DejaVuSans-110"/>
      <use x="63.378906" xlink:href="#DejaVuSans-117"/>
      <use x="126.757812" xlink:href="#DejaVuSans-109"/>
      <use x="224.169922" xlink:href="#DejaVuSans-112"/>
      <use x="287.646484" xlink:href="#DejaVuSans-121"/>
      <use x="332.576172" xlink:href="#DejaVuSans-46"/>
      <use x="364.363281" xlink:href="#DejaVuSans-102"/>
      <use x="399.568359" xlink:href="#DejaVuSans-108"/>
      <use x="427.351562" xlink:href="#DejaVuSans-111"/>
      <use x="488.533203" xlink:href="#DejaVuSans-97"/>
      <use x="549.8125" xlink:href="#DejaVuSans-116"/>
      <use x="589.021484" xlink:href="#DejaVuSans-51"/>
      <use x="652.644531" xlink:href="#DejaVuSans-50"/>
     </g>
    </g>
    <g id="line2d_22">
     <path d="M 1187.373437 114.176562 
L 1207.373437 114.176562 
" style="fill:none;stroke:#ff7f0e;stroke-linecap:square;stroke-width:1.5;"/>
    </g>
    <g id="line2d_23"/>
    <g id="text_22">
     <!-- numpy.float64 -->
     <g transform="translate(1215.373437 117.676562)scale(0.1 -0.1)">
      <use xlink:href="#DejaVuSans-110"/>
      <use x="63.378906" xlink:href="#DejaVuSans-117"/>
      <use x="126.757812" xlink:href="#DejaVuSans-109"/>
      <use x="224.169922" xlink:href="#DejaVuSans-112"/>
      <use x="287.646484" xlink:href="#DejaVuSans-121"/>
      <use x="332.576172" xlink:href="#DejaVuSans-46"/>
      <use x="364.363281" xlink:href="#DejaVuSans-102"/>
      <use x="399.568359" xlink:href="#DejaVuSans-108"/>
      <use x="427.351562" xlink:href="#DejaVuSans-111"/>
      <use x="488.533203" xlink:href="#DejaVuSans-97"/>
      <use x="549.8125" xlink:href="#DejaVuSans-116"/>
      <use x="589.021484" xlink:href="#DejaVuSans-54"/>
      <use x="652.644531" xlink:href="#DejaVuSans-52"/>
     </g>
    </g>
   </g>
  </g>
 </g>
 <defs>
  <clipPath id="p53fe2bb7e3">
   <rect height="554.4" width="1116" x="180" y="86.4"/>
  </clipPath>
 </defs>
</svg>
