<?xml version="1.0" encoding="utf-8" standalone="no"?>
<!DOCTYPE svg PUBLIC "-//W3C//DTD SVG 1.1//EN"
  "http://www.w3.org/Graphics/SVG/1.1/DTD/svg11.dtd">
<!-- Created with matplotlib (https://matplotlib.org/) -->
<svg height="720pt" version="1.1" viewBox="0 0 1440 720" width="1440pt" xmlns="http://www.w3.org/2000/svg" xmlns:xlink="http://www.w3.org/1999/xlink">
 <defs>
  <style type="text/css">
*{stroke-linecap:butt;stroke-linejoin:round;}
  </style>
 </defs>
 <g id="figure_1">
  <g id="patch_1">
   <path d="M 0 720 
L 1440 720 
L 1440 0 
L 0 0 
z
" style="fill:#ffffff;"/>
  </g>
  <g id="axes_1">
   <g id="patch_2">
    <path d="M 180 640.8 
L 1296 640.8 
L 1296 86.4 
L 180 86.4 
z
" style="fill:#ffffff;"/>
   </g>
   <g id="matplotlib.axis_1">
    <g id="xtick_1">
     <g id="line2d_1">
      <defs>
       <path d="M 0 0 
L 0 3.5 
" id="md57076d733" style="stroke:#000000;stroke-width:0.8;"/>
      </defs>
      <g>
       <use style="stroke:#000000;stroke-width:0.8;" x="333.310231" xlink:href="#md57076d733" y="640.8"/>
      </g>
     </g>
     <g id="text_1">
      <!-- 100.0 -->
      <defs>
       <path d="M 12.40625 8.296875 
L 28.515625 8.296875 
L 28.515625 63.921875 
L 10.984375 60.40625 
L 10.984375 69.390625 
L 28.421875 72.90625 
L 38.28125 72.90625 
L 38.28125 8.296875 
L 54.390625 8.296875 
L 54.390625 0 
L 12.40625 0 
z
" id="DejaVuSans-49"/>
       <path d="M 31.78125 66.40625 
Q 24.171875 66.40625 20.328125 58.90625 
Q 16.5 51.421875 16.5 36.375 
Q 16.5 21.390625 20.328125 13.890625 
Q 24.171875 6.390625 31.78125 6.390625 
Q 39.453125 6.390625 43.28125 13.890625 
Q 47.125 21.390625 47.125 36.375 
Q 47.125 51.421875 43.28125 58.90625 
Q 39.453125 66.40625 31.78125 66.40625 
z
M 31.78125 74.21875 
Q 44.046875 74.21875 50.515625 64.515625 
Q 56.984375 54.828125 56.984375 36.375 
Q 56.984375 17.96875 50.515625 8.265625 
Q 44.046875 -1.421875 31.78125 -1.421875 
Q 19.53125 -1.421875 13.0625 8.265625 
Q 6.59375 17.96875 6.59375 36.375 
Q 6.59375 54.828125 13.0625 64.515625 
Q 19.53125 74.21875 31.78125 74.21875 
z
" id="DejaVuSans-48"/>
       <path d="M 10.6875 12.40625 
L 21 12.40625 
L 21 0 
L 10.6875 0 
z
" id="DejaVuSans-46"/>
      </defs>
      <g transform="translate(318.996168 655.398438)scale(0.1 -0.1)">
       <use xlink:href="#DejaVuSans-49"/>
       <use x="63.623047" xlink:href="#DejaVuSans-48"/>
       <use x="127.246094" xlink:href="#DejaVuSans-48"/>
       <use x="190.869141" xlink:href="#DejaVuSans-46"/>
       <use x="222.65625" xlink:href="#DejaVuSans-48"/>
      </g>
     </g>
    </g>
    <g id="xtick_2">
     <g id="line2d_2">
      <g>
       <use style="stroke:#000000;stroke-width:0.8;" x="435.893189" xlink:href="#md57076d733" y="640.8"/>
      </g>
     </g>
     <g id="text_2">
      <!-- 200.0 -->
      <defs>
       <path d="M 19.1875 8.296875 
L 53.609375 8.296875 
L 53.609375 0 
L 7.328125 0 
L 7.328125 8.296875 
Q 12.9375 14.109375 22.625 23.890625 
Q 32.328125 33.6875 34.8125 36.53125 
Q 39.546875 41.84375 41.421875 45.53125 
Q 43.3125 49.21875 43.3125 52.78125 
Q 43.3125 58.59375 39.234375 62.25 
Q 35.15625 65.921875 28.609375 65.921875 
Q 23.96875 65.921875 18.8125 64.3125 
Q 13.671875 62.703125 7.8125 59.421875 
L 7.8125 69.390625 
Q 13.765625 71.78125 18.9375 73 
Q 24.125 74.21875 28.421875 74.21875 
Q 39.75 74.21875 46.484375 68.546875 
Q 53.21875 62.890625 53.21875 53.421875 
Q 53.21875 48.921875 51.53125 44.890625 
Q 49.859375 40.875 45.40625 35.40625 
Q 44.1875 33.984375 37.640625 27.21875 
Q 31.109375 20.453125 19.1875 8.296875 
z
" id="DejaVuSans-50"/>
      </defs>
      <g transform="translate(421.579126 655.398438)scale(0.1 -0.1)">
       <use xlink:href="#DejaVuSans-50"/>
       <use x="63.623047" xlink:href="#DejaVuSans-48"/>
       <use x="127.246094" xlink:href="#DejaVuSans-48"/>
       <use x="190.869141" xlink:href="#DejaVuSans-46"/>
       <use x="222.65625" xlink:href="#DejaVuSans-48"/>
      </g>
     </g>
    </g>
    <g id="xtick_3">
     <g id="line2d_3">
      <g>
       <use style="stroke:#000000;stroke-width:0.8;" x="538.476147" xlink:href="#md57076d733" y="640.8"/>
      </g>
     </g>
     <g id="text_3">
      <!-- 300.0 -->
      <defs>
       <path d="M 40.578125 39.3125 
Q 47.65625 37.796875 51.625 33 
Q 55.609375 28.21875 55.609375 21.1875 
Q 55.609375 10.40625 48.1875 4.484375 
Q 40.765625 -1.421875 27.09375 -1.421875 
Q 22.515625 -1.421875 17.65625 -0.515625 
Q 12.796875 0.390625 7.625 2.203125 
L 7.625 11.71875 
Q 11.71875 9.328125 16.59375 8.109375 
Q 21.484375 6.890625 26.8125 6.890625 
Q 36.078125 6.890625 40.9375 10.546875 
Q 45.796875 14.203125 45.796875 21.1875 
Q 45.796875 27.640625 41.28125 31.265625 
Q 36.765625 34.90625 28.71875 34.90625 
L 20.21875 34.90625 
L 20.21875 43.015625 
L 29.109375 43.015625 
Q 36.375 43.015625 40.234375 45.921875 
Q 44.09375 48.828125 44.09375 54.296875 
Q 44.09375 59.90625 40.109375 62.90625 
Q 36.140625 65.921875 28.71875 65.921875 
Q 24.65625 65.921875 20.015625 65.03125 
Q 15.375 64.15625 9.8125 62.3125 
L 9.8125 71.09375 
Q 15.4375 72.65625 20.34375 73.4375 
Q 25.25 74.21875 29.59375 74.21875 
Q 40.828125 74.21875 47.359375 69.109375 
Q 53.90625 64.015625 53.90625 55.328125 
Q 53.90625 49.265625 50.4375 45.09375 
Q 46.96875 40.921875 40.578125 39.3125 
z
" id="DejaVuSans-51"/>
      </defs>
      <g transform="translate(524.162084 655.398438)scale(0.1 -0.1)">
       <use xlink:href="#DejaVuSans-51"/>
       <use x="63.623047" xlink:href="#DejaVuSans-48"/>
       <use x="127.246094" xlink:href="#DejaVuSans-48"/>
       <use x="190.869141" xlink:href="#DejaVuSans-46"/>
       <use x="222.65625" xlink:href="#DejaVuSans-48"/>
      </g>
     </g>
    </g>
    <g id="xtick_4">
     <g id="line2d_4">
      <g>
       <use style="stroke:#000000;stroke-width:0.8;" x="641.059105" xlink:href="#md57076d733" y="640.8"/>
      </g>
     </g>
     <g id="text_4">
      <!-- 400.0 -->
      <defs>
       <path d="M 37.796875 64.3125 
L 12.890625 25.390625 
L 37.796875 25.390625 
z
M 35.203125 72.90625 
L 47.609375 72.90625 
L 47.609375 25.390625 
L 58.015625 25.390625 
L 58.015625 17.1875 
L 47.609375 17.1875 
L 47.609375 0 
L 37.796875 0 
L 37.796875 17.1875 
L 4.890625 17.1875 
L 4.890625 26.703125 
z
" id="DejaVuSans-52"/>
      </defs>
      <g transform="translate(626.745042 655.398438)scale(0.1 -0.1)">
       <use xlink:href="#DejaVuSans-52"/>
       <use x="63.623047" xlink:href="#DejaVuSans-48"/>
       <use x="127.246094" xlink:href="#DejaVuSans-48"/>
       <use x="190.869141" xlink:href="#DejaVuSans-46"/>
       <use x="222.65625" xlink:href="#DejaVuSans-48"/>
      </g>
     </g>
    </g>
    <g id="xtick_5">
     <g id="line2d_5">
      <g>
       <use style="stroke:#000000;stroke-width:0.8;" x="743.642063" xlink:href="#md57076d733" y="640.8"/>
      </g>
     </g>
     <g id="text_5">
      <!-- 500.0 -->
      <defs>
       <path d="M 10.796875 72.90625 
L 49.515625 72.90625 
L 49.515625 64.59375 
L 19.828125 64.59375 
L 19.828125 46.734375 
Q 21.96875 47.46875 24.109375 47.828125 
Q 26.265625 48.1875 28.421875 48.1875 
Q 40.625 48.1875 47.75 41.5 
Q 54.890625 34.8125 54.890625 23.390625 
Q 54.890625 11.625 47.5625 5.09375 
Q 40.234375 -1.421875 26.90625 -1.421875 
Q 22.3125 -1.421875 17.546875 -0.640625 
Q 12.796875 0.140625 7.71875 1.703125 
L 7.71875 11.625 
Q 12.109375 9.234375 16.796875 8.0625 
Q 21.484375 6.890625 26.703125 6.890625 
Q 35.15625 6.890625 40.078125 11.328125 
Q 45.015625 15.765625 45.015625 23.390625 
Q 45.015625 31 40.078125 35.4375 
Q 35.15625 39.890625 26.703125 39.890625 
Q 22.75 39.890625 18.8125 39.015625 
Q 14.890625 38.140625 10.796875 36.28125 
z
" id="DejaVuSans-53"/>
      </defs>
      <g transform="translate(729.328 655.398438)scale(0.1 -0.1)">
       <use xlink:href="#DejaVuSans-53"/>
       <use x="63.623047" xlink:href="#DejaVuSans-48"/>
       <use x="127.246094" xlink:href="#DejaVuSans-48"/>
       <use x="190.869141" xlink:href="#DejaVuSans-46"/>
       <use x="222.65625" xlink:href="#DejaVuSans-48"/>
      </g>
     </g>
    </g>
    <g id="xtick_6">
     <g id="line2d_6">
      <g>
       <use style="stroke:#000000;stroke-width:0.8;" x="846.225021" xlink:href="#md57076d733" y="640.8"/>
      </g>
     </g>
     <g id="text_6">
      <!-- 600.0 -->
      <defs>
       <path d="M 33.015625 40.375 
Q 26.375 40.375 22.484375 35.828125 
Q 18.609375 31.296875 18.609375 23.390625 
Q 18.609375 15.53125 22.484375 10.953125 
Q 26.375 6.390625 33.015625 6.390625 
Q 39.65625 6.390625 43.53125 10.953125 
Q 47.40625 15.53125 47.40625 23.390625 
Q 47.40625 31.296875 43.53125 35.828125 
Q 39.65625 40.375 33.015625 40.375 
z
M 52.59375 71.296875 
L 52.59375 62.3125 
Q 48.875 64.0625 45.09375 64.984375 
Q 41.3125 65.921875 37.59375 65.921875 
Q 27.828125 65.921875 22.671875 59.328125 
Q 17.53125 52.734375 16.796875 39.40625 
Q 19.671875 43.65625 24.015625 45.921875 
Q 28.375 48.1875 33.59375 48.1875 
Q 44.578125 48.1875 50.953125 41.515625 
Q 57.328125 34.859375 57.328125 23.390625 
Q 57.328125 12.15625 50.6875 5.359375 
Q 44.046875 -1.421875 33.015625 -1.421875 
Q 20.359375 -1.421875 13.671875 8.265625 
Q 6.984375 17.96875 6.984375 36.375 
Q 6.984375 53.65625 15.1875 63.9375 
Q 23.390625 74.21875 37.203125 74.21875 
Q 40.921875 74.21875 44.703125 73.484375 
Q 48.484375 72.75 52.59375 71.296875 
z
" id="DejaVuSans-54"/>
      </defs>
      <g transform="translate(831.910958 655.398438)scale(0.1 -0.1)">
       <use xlink:href="#DejaVuSans-54"/>
       <use x="63.623047" xlink:href="#DejaVuSans-48"/>
       <use x="127.246094" xlink:href="#DejaVuSans-48"/>
       <use x="190.869141" xlink:href="#DejaVuSans-46"/>
       <use x="222.65625" xlink:href="#DejaVuSans-48"/>
      </g>
     </g>
    </g>
    <g id="xtick_7">
     <g id="line2d_7">
      <g>
       <use style="stroke:#000000;stroke-width:0.8;" x="948.807979" xlink:href="#md57076d733" y="640.8"/>
      </g>
     </g>
     <g id="text_7">
      <!-- 700.0 -->
      <defs>
       <path d="M 8.203125 72.90625 
L 55.078125 72.90625 
L 55.078125 68.703125 
L 28.609375 0 
L 18.3125 0 
L 43.21875 64.59375 
L 8.203125 64.59375 
z
" id="DejaVuSans-55"/>
      </defs>
      <g transform="translate(934.493916 655.398438)scale(0.1 -0.1)">
       <use xlink:href="#DejaVuSans-55"/>
       <use x="63.623047" xlink:href="#DejaVuSans-48"/>
       <use x="127.246094" xlink:href="#DejaVuSans-48"/>
       <use x="190.869141" xlink:href="#DejaVuSans-46"/>
       <use x="222.65625" xlink:href="#DejaVuSans-48"/>
      </g>
     </g>
    </g>
    <g id="xtick_8">
     <g id="line2d_8">
      <g>
       <use style="stroke:#000000;stroke-width:0.8;" x="1051.390937" xlink:href="#md57076d733" y="640.8"/>
      </g>
     </g>
     <g id="text_8">
      <!-- 800.0 -->
      <defs>
       <path d="M 31.78125 34.625 
Q 24.75 34.625 20.71875 30.859375 
Q 16.703125 27.09375 16.703125 20.515625 
Q 16.703125 13.921875 20.71875 10.15625 
Q 24.75 6.390625 31.78125 6.390625 
Q 38.8125 6.390625 42.859375 10.171875 
Q 46.921875 13.96875 46.921875 20.515625 
Q 46.921875 27.09375 42.890625 30.859375 
Q 38.875 34.625 31.78125 34.625 
z
M 21.921875 38.8125 
Q 15.578125 40.375 12.03125 44.71875 
Q 8.5 49.078125 8.5 55.328125 
Q 8.5 64.0625 14.71875 69.140625 
Q 20.953125 74.21875 31.78125 74.21875 
Q 42.671875 74.21875 48.875 69.140625 
Q 55.078125 64.0625 55.078125 55.328125 
Q 55.078125 49.078125 51.53125 44.71875 
Q 48 40.375 41.703125 38.8125 
Q 48.828125 37.15625 52.796875 32.3125 
Q 56.78125 27.484375 56.78125 20.515625 
Q 56.78125 9.90625 50.3125 4.234375 
Q 43.84375 -1.421875 31.78125 -1.421875 
Q 19.734375 -1.421875 13.25 4.234375 
Q 6.78125 9.90625 6.78125 20.515625 
Q 6.78125 27.484375 10.78125 32.3125 
Q 14.796875 37.15625 21.921875 38.8125 
z
M 18.3125 54.390625 
Q 18.3125 48.734375 21.84375 45.5625 
Q 25.390625 42.390625 31.78125 42.390625 
Q 38.140625 42.390625 41.71875 45.5625 
Q 45.3125 48.734375 45.3125 54.390625 
Q 45.3125 60.0625 41.71875 63.234375 
Q 38.140625 66.40625 31.78125 66.40625 
Q 25.390625 66.40625 21.84375 63.234375 
Q 18.3125 60.0625 18.3125 54.390625 
z
" id="DejaVuSans-56"/>
      </defs>
      <g transform="translate(1037.076874 655.398438)scale(0.1 -0.1)">
       <use xlink:href="#DejaVuSans-56"/>
       <use x="63.623047" xlink:href="#DejaVuSans-48"/>
       <use x="127.246094" xlink:href="#DejaVuSans-48"/>
       <use x="190.869141" xlink:href="#DejaVuSans-46"/>
       <use x="222.65625" xlink:href="#DejaVuSans-48"/>
      </g>
     </g>
    </g>
    <g id="xtick_9">
     <g id="line2d_9">
      <g>
       <use style="stroke:#000000;stroke-width:0.8;" x="1153.973895" xlink:href="#md57076d733" y="640.8"/>
      </g>
     </g>
     <g id="text_9">
      <!-- 900.0 -->
      <defs>
       <path d="M 10.984375 1.515625 
L 10.984375 10.5 
Q 14.703125 8.734375 18.5 7.8125 
Q 22.3125 6.890625 25.984375 6.890625 
Q 35.75 6.890625 40.890625 13.453125 
Q 46.046875 20.015625 46.78125 33.40625 
Q 43.953125 29.203125 39.59375 26.953125 
Q 35.25 24.703125 29.984375 24.703125 
Q 19.046875 24.703125 12.671875 31.3125 
Q 6.296875 37.9375 6.296875 49.421875 
Q 6.296875 60.640625 12.9375 67.421875 
Q 19.578125 74.21875 30.609375 74.21875 
Q 43.265625 74.21875 49.921875 64.515625 
Q 56.59375 54.828125 56.59375 36.375 
Q 56.59375 19.140625 48.40625 8.859375 
Q 40.234375 -1.421875 26.421875 -1.421875 
Q 22.703125 -1.421875 18.890625 -0.6875 
Q 15.09375 0.046875 10.984375 1.515625 
z
M 30.609375 32.421875 
Q 37.25 32.421875 41.125 36.953125 
Q 45.015625 41.5 45.015625 49.421875 
Q 45.015625 57.28125 41.125 61.84375 
Q 37.25 66.40625 30.609375 66.40625 
Q 23.96875 66.40625 20.09375 61.84375 
Q 16.21875 57.28125 16.21875 49.421875 
Q 16.21875 41.5 20.09375 36.953125 
Q 23.96875 32.421875 30.609375 32.421875 
z
" id="DejaVuSans-57"/>
      </defs>
      <g transform="translate(1139.659832 655.398438)scale(0.1 -0.1)">
       <use xlink:href="#DejaVuSans-57"/>
       <use x="63.623047" xlink:href="#DejaVuSans-48"/>
       <use x="127.246094" xlink:href="#DejaVuSans-48"/>
       <use x="190.869141" xlink:href="#DejaVuSans-46"/>
       <use x="222.65625" xlink:href="#DejaVuSans-48"/>
      </g>
     </g>
    </g>
    <g id="xtick_10">
     <g id="line2d_10">
      <g>
       <use style="stroke:#000000;stroke-width:0.8;" x="1256.556853" xlink:href="#md57076d733" y="640.8"/>
      </g>
     </g>
     <g id="text_10">
      <!-- 1000.0 -->
      <g transform="translate(1239.06154 655.398438)scale(0.1 -0.1)">
       <use xlink:href="#DejaVuSans-49"/>
       <use x="63.623047" xlink:href="#DejaVuSans-48"/>
       <use x="127.246094" xlink:href="#DejaVuSans-48"/>
       <use x="190.869141" xlink:href="#DejaVuSans-48"/>
       <use x="254.492188" xlink:href="#DejaVuSans-46"/>
       <use x="286.279297" xlink:href="#DejaVuSans-48"/>
      </g>
     </g>
    </g>
    <g id="text_11">
     <!-- n -->
     <defs>
      <path d="M 54.890625 33.015625 
L 54.890625 0 
L 45.90625 0 
L 45.90625 32.71875 
Q 45.90625 40.484375 42.875 44.328125 
Q 39.84375 48.1875 33.796875 48.1875 
Q 26.515625 48.1875 22.3125 43.546875 
Q 18.109375 38.921875 18.109375 30.90625 
L 18.109375 0 
L 9.078125 0 
L 9.078125 54.6875 
L 18.109375 54.6875 
L 18.109375 46.1875 
Q 21.34375 51.125 25.703125 53.5625 
Q 30.078125 56 35.796875 56 
Q 45.21875 56 50.046875 50.171875 
Q 54.890625 44.34375 54.890625 33.015625 
z
" id="DejaVuSans-110"/>
     </defs>
     <g transform="translate(734.83125 669.076563)scale(0.1 -0.1)">
      <use xlink:href="#DejaVuSans-110"/>
     </g>
    </g>
   </g>
   <g id="matplotlib.axis_2">
    <g id="ytick_1">
     <g id="line2d_11">
      <defs>
       <path d="M 0 0 
L -3.5 0 
" id="m249ee49d1b" style="stroke:#000000;stroke-width:0.8;"/>
      </defs>
      <g>
       <use style="stroke:#000000;stroke-width:0.8;" x="180" xlink:href="#m249ee49d1b" y="602.003949"/>
      </g>
     </g>
     <g id="text_12">
      <!-- 1000 -->
      <g transform="translate(147.55 605.803167)scale(0.1 -0.1)">
       <use xlink:href="#DejaVuSans-49"/>
       <use x="63.623047" xlink:href="#DejaVuSans-48"/>
       <use x="127.246094" xlink:href="#DejaVuSans-48"/>
       <use x="190.869141" xlink:href="#DejaVuSans-48"/>
      </g>
     </g>
    </g>
    <g id="ytick_2">
     <g id="line2d_12">
      <g>
       <use style="stroke:#000000;stroke-width:0.8;" x="180" xlink:href="#m249ee49d1b" y="518.500099"/>
      </g>
     </g>
     <g id="text_13">
      <!-- 2000 -->
      <g transform="translate(147.55 522.299318)scale(0.1 -0.1)">
       <use xlink:href="#DejaVuSans-50"/>
       <use x="63.623047" xlink:href="#DejaVuSans-48"/>
       <use x="127.246094" xlink:href="#DejaVuSans-48"/>
       <use x="190.869141" xlink:href="#DejaVuSans-48"/>
      </g>
     </g>
    </g>
    <g id="ytick_3">
     <g id="line2d_13">
      <g>
       <use style="stroke:#000000;stroke-width:0.8;" x="180" xlink:href="#m249ee49d1b" y="434.996249"/>
      </g>
     </g>
     <g id="text_14">
      <!-- 3000 -->
      <g transform="translate(147.55 438.795468)scale(0.1 -0.1)">
       <use xlink:href="#DejaVuSans-51"/>
       <use x="63.623047" xlink:href="#DejaVuSans-48"/>
       <use x="127.246094" xlink:href="#DejaVuSans-48"/>
       <use x="190.869141" xlink:href="#DejaVuSans-48"/>
      </g>
     </g>
    </g>
    <g id="ytick_4">
     <g id="line2d_14">
      <g>
       <use style="stroke:#000000;stroke-width:0.8;" x="180" xlink:href="#m249ee49d1b" y="351.4924"/>
      </g>
     </g>
     <g id="text_15">
      <!-- 4000 -->
      <g transform="translate(147.55 355.291618)scale(0.1 -0.1)">
       <use xlink:href="#DejaVuSans-52"/>
       <use x="63.623047" xlink:href="#DejaVuSans-48"/>
       <use x="127.246094" xlink:href="#DejaVuSans-48"/>
       <use x="190.869141" xlink:href="#DejaVuSans-48"/>
      </g>
     </g>
    </g>
    <g id="ytick_5">
     <g id="line2d_15">
      <g>
       <use style="stroke:#000000;stroke-width:0.8;" x="180" xlink:href="#m249ee49d1b" y="267.98855"/>
      </g>
     </g>
     <g id="text_16">
      <!-- 5000 -->
      <g transform="translate(147.55 271.787769)scale(0.1 -0.1)">
       <use xlink:href="#DejaVuSans-53"/>
       <use x="63.623047" xlink:href="#DejaVuSans-48"/>
       <use x="127.246094" xlink:href="#DejaVuSans-48"/>
       <use x="190.869141" xlink:href="#DejaVuSans-48"/>
      </g>
     </g>
    </g>
    <g id="ytick_6">
     <g id="line2d_16">
      <g>
       <use style="stroke:#000000;stroke-width:0.8;" x="180" xlink:href="#m249ee49d1b" y="184.4847"/>
      </g>
     </g>
     <g id="text_17">
      <!-- 6000 -->
      <g transform="translate(147.55 188.283919)scale(0.1 -0.1)">
       <use xlink:href="#DejaVuSans-54"/>
       <use x="63.623047" xlink:href="#DejaVuSans-48"/>
       <use x="127.246094" xlink:href="#DejaVuSans-48"/>
       <use x="190.869141" xlink:href="#DejaVuSans-48"/>
      </g>
     </g>
    </g>
    <g id="ytick_7">
     <g id="line2d_17">
      <g>
       <use style="stroke:#000000;stroke-width:0.8;" x="180" xlink:href="#m249ee49d1b" y="100.980851"/>
      </g>
     </g>
     <g id="text_18">
      <!-- 7000 -->
      <g transform="translate(147.55 104.780069)scale(0.1 -0.1)">
       <use xlink:href="#DejaVuSans-55"/>
       <use x="63.623047" xlink:href="#DejaVuSans-48"/>
       <use x="127.246094" xlink:href="#DejaVuSans-48"/>
       <use x="190.869141" xlink:href="#DejaVuSans-48"/>
      </g>
     </g>
    </g>
    <g id="text_19">
     <!-- speedup -->
     <defs>
      <path d="M 44.28125 53.078125 
L 44.28125 44.578125 
Q 40.484375 46.53125 36.375 47.5 
Q 32.28125 48.484375 27.875 48.484375 
Q 21.1875 48.484375 17.84375 46.4375 
Q 14.5 44.390625 14.5 40.28125 
Q 14.5 37.15625 16.890625 35.375 
Q 19.28125 33.59375 26.515625 31.984375 
L 29.59375 31.296875 
Q 39.15625 29.25 43.1875 25.515625 
Q 47.21875 21.78125 47.21875 15.09375 
Q 47.21875 7.46875 41.1875 3.015625 
Q 35.15625 -1.421875 24.609375 -1.421875 
Q 20.21875 -1.421875 15.453125 -0.5625 
Q 10.6875 0.296875 5.421875 2 
L 5.421875 11.28125 
Q 10.40625 8.6875 15.234375 7.390625 
Q 20.0625 6.109375 24.8125 6.109375 
Q 31.15625 6.109375 34.5625 8.28125 
Q 37.984375 10.453125 37.984375 14.40625 
Q 37.984375 18.0625 35.515625 20.015625 
Q 33.0625 21.96875 24.703125 23.78125 
L 21.578125 24.515625 
Q 13.234375 26.265625 9.515625 29.90625 
Q 5.8125 33.546875 5.8125 39.890625 
Q 5.8125 47.609375 11.28125 51.796875 
Q 16.75 56 26.8125 56 
Q 31.78125 56 36.171875 55.265625 
Q 40.578125 54.546875 44.28125 53.078125 
z
" id="DejaVuSans-115"/>
      <path d="M 18.109375 8.203125 
L 18.109375 -20.796875 
L 9.078125 -20.796875 
L 9.078125 54.6875 
L 18.109375 54.6875 
L 18.109375 46.390625 
Q 20.953125 51.265625 25.265625 53.625 
Q 29.59375 56 35.59375 56 
Q 45.5625 56 51.78125 48.09375 
Q 58.015625 40.1875 58.015625 27.296875 
Q 58.015625 14.40625 51.78125 6.484375 
Q 45.5625 -1.421875 35.59375 -1.421875 
Q 29.59375 -1.421875 25.265625 0.953125 
Q 20.953125 3.328125 18.109375 8.203125 
z
M 48.6875 27.296875 
Q 48.6875 37.203125 44.609375 42.84375 
Q 40.53125 48.484375 33.40625 48.484375 
Q 26.265625 48.484375 22.1875 42.84375 
Q 18.109375 37.203125 18.109375 27.296875 
Q 18.109375 17.390625 22.1875 11.75 
Q 26.265625 6.109375 33.40625 6.109375 
Q 40.53125 6.109375 44.609375 11.75 
Q 48.6875 17.390625 48.6875 27.296875 
z
" id="DejaVuSans-112"/>
      <path d="M 56.203125 29.59375 
L 56.203125 25.203125 
L 14.890625 25.203125 
Q 15.484375 15.921875 20.484375 11.0625 
Q 25.484375 6.203125 34.421875 6.203125 
Q 39.59375 6.203125 44.453125 7.46875 
Q 49.3125 8.734375 54.109375 11.28125 
L 54.109375 2.78125 
Q 49.265625 0.734375 44.1875 -0.34375 
Q 39.109375 -1.421875 33.890625 -1.421875 
Q 20.796875 -1.421875 13.15625 6.1875 
Q 5.515625 13.8125 5.515625 26.8125 
Q 5.515625 40.234375 12.765625 48.109375 
Q 20.015625 56 32.328125 56 
Q 43.359375 56 49.78125 48.890625 
Q 56.203125 41.796875 56.203125 29.59375 
z
M 47.21875 32.234375 
Q 47.125 39.59375 43.09375 43.984375 
Q 39.0625 48.390625 32.421875 48.390625 
Q 24.90625 48.390625 20.390625 44.140625 
Q 15.875 39.890625 15.1875 32.171875 
z
" id="DejaVuSans-101"/>
      <path d="M 45.40625 46.390625 
L 45.40625 75.984375 
L 54.390625 75.984375 
L 54.390625 0 
L 45.40625 0 
L 45.40625 8.203125 
Q 42.578125 3.328125 38.25 0.953125 
Q 33.9375 -1.421875 27.875 -1.421875 
Q 17.96875 -1.421875 11.734375 6.484375 
Q 5.515625 14.40625 5.515625 27.296875 
Q 5.515625 40.1875 11.734375 48.09375 
Q 17.96875 56 27.875 56 
Q 33.9375 56 38.25 53.625 
Q 42.578125 51.265625 45.40625 46.390625 
z
M 14.796875 27.296875 
Q 14.796875 17.390625 18.875 11.75 
Q 22.953125 6.109375 30.078125 6.109375 
Q 37.203125 6.109375 41.296875 11.75 
Q 45.40625 17.390625 45.40625 27.296875 
Q 45.40625 37.203125 41.296875 42.84375 
Q 37.203125 48.484375 30.078125 48.484375 
Q 22.953125 48.484375 18.875 42.84375 
Q 14.796875 37.203125 14.796875 27.296875 
z
" id="DejaVuSans-100"/>
      <path d="M 8.5 21.578125 
L 8.5 54.6875 
L 17.484375 54.6875 
L 17.484375 21.921875 
Q 17.484375 14.15625 20.5 10.265625 
Q 23.53125 6.390625 29.59375 6.390625 
Q 36.859375 6.390625 41.078125 11.03125 
Q 45.3125 15.671875 45.3125 23.6875 
L 45.3125 54.6875 
L 54.296875 54.6875 
L 54.296875 0 
L 45.3125 0 
L 45.3125 8.40625 
Q 42.046875 3.421875 37.71875 1 
Q 33.40625 -1.421875 27.6875 -1.421875 
Q 18.265625 -1.421875 13.375 4.4375 
Q 8.5 10.296875 8.5 21.578125 
z
M 31.109375 56 
z
" id="DejaVuSans-117"/>
     </defs>
     <g transform="translate(141.470313 385.049219)rotate(-90)scale(0.1 -0.1)">
      <use xlink:href="#DejaVuSans-115"/>
      <use x="52.099609" xlink:href="#DejaVuSans-112"/>
      <use x="115.576172" xlink:href="#DejaVuSans-101"/>
      <use x="177.099609" xlink:href="#DejaVuSans-101"/>
      <use x="238.623047" xlink:href="#DejaVuSans-100"/>
      <use x="302.099609" xlink:href="#DejaVuSans-117"/>
      <use x="365.478516" xlink:href="#DejaVuSans-112"/>
     </g>
    </g>
   </g>
   <g id="line2d_18">
    <path clip-path="url(#p934133afb4)" d="M 230.727273 609.102559 
L 231.753102 582.377829 
L 232.778932 572.977664 
L 233.804761 578.649326 
L 234.830591 572.187698 
L 235.856421 568.220153 
L 236.88225 569.446121 
L 237.90808 562.647914 
L 238.933909 562.111074 
L 239.959739 553.802034 
L 240.985569 554.548912 
L 242.011398 553.4857 
L 243.037228 554.783286 
L 244.063057 536.281666 
L 245.088887 554.977858 
L 246.114716 546.174747 
L 247.140546 547.946837 
L 248.166376 529.071302 
L 249.192205 520.992993 
L 250.218035 540.455359 
L 251.243864 539.696606 
L 252.269694 538.057085 
L 253.295523 538.963412 
L 254.321353 504.485465 
L 255.347183 530.817291 
L 256.373012 530.429987 
L 257.398842 527.317845 
L 258.424671 495.134786 
L 259.450501 532.298119 
L 260.476331 527.496943 
L 261.50216 485.878056 
L 262.52799 535.065402 
L 263.553819 502.641755 
L 264.579649 517.039628 
L 265.605478 524.241075 
L 266.631308 515.753911 
L 267.657138 511.019495 
L 268.682967 462.720908 
L 269.708797 463.985615 
L 270.734626 502.845075 
L 271.760456 527.068214 
L 272.786286 495.478322 
L 273.812115 484.037047 
L 274.837945 500.955883 
L 275.863774 489.916815 
L 276.889604 468.54536 
L 277.915433 520.017202 
L 279.967093 469.51135 
L 280.992922 474.232737 
L 282.018752 449.590492 
L 283.044581 467.662842 
L 284.070411 443.081526 
L 285.09624 452.970181 
L 286.12207 446.07504 
L 287.1479 483.251456 
L 288.173729 462.556563 
L 289.199559 430.573805 
L 290.225388 450.634333 
L 291.251218 455.647428 
L 292.277048 457.708053 
L 293.302877 439.700854 
L 294.328707 424.96765 
L 295.354536 421.418375 
L 296.380366 420.135353 
L 297.406195 450.933671 
L 298.432025 453.901418 
L 299.457855 441.439759 
L 300.483684 448.576934 
L 301.509514 440.290185 
L 302.535343 482.113107 
L 303.561173 454.901544 
L 304.587002 393.892012 
L 305.612832 444.426608 
L 306.638662 406.210948 
L 307.664491 478.238518 
L 308.690321 416.86087 
L 309.71615 430.599905 
L 310.74198 397.543838 
L 311.76781 393.226044 
L 312.793639 390.89052 
L 313.819469 390.82508 
L 314.845298 429.609204 
L 315.871128 386.494634 
L 317.922787 424.594221 
L 318.948617 426.952261 
L 319.974446 422.313756 
L 321.000276 410.826782 
L 322.026105 413.496181 
L 323.051935 406.70155 
L 324.077765 396.490834 
L 325.103594 409.284507 
L 326.129424 405.469117 
L 327.155253 417.119249 
L 328.181083 397.184884 
L 329.206912 459.849726 
L 331.258572 378.692921 
L 332.284401 392.170309 
L 333.310231 363.264548 
L 334.33606 381.292862 
L 335.36189 379.450565 
L 336.387719 396.966806 
L 337.413549 359.769484 
L 338.439379 383.520964 
L 339.465208 397.473724 
L 340.491038 357.752553 
L 341.516867 391.892932 
L 342.542697 449.795453 
L 343.568527 369.704616 
L 344.594356 385.863165 
L 345.620186 389.595304 
L 346.646015 381.286146 
L 347.671845 369.380326 
L 348.697674 364.610676 
L 349.723504 415.684063 
L 350.749334 337.0953 
L 351.775163 373.493361 
L 352.800993 340.92787 
L 353.826822 385.616288 
L 354.852652 357.86281 
L 355.878481 372.27546 
L 356.904311 380.190474 
L 357.930141 434.834251 
L 358.95597 360.683348 
L 359.9818 348.230815 
L 361.007629 368.002235 
L 362.033459 361.374468 
L 363.059289 357.366309 
L 364.085118 368.425207 
L 365.110948 448.252173 
L 366.136777 380.908652 
L 367.162607 330.219721 
L 368.188436 367.42855 
L 369.214266 362.1467 
L 370.240096 346.578072 
L 371.265925 352.57619 
L 372.291755 324.508883 
L 373.317584 382.015098 
L 374.343414 357.340424 
L 375.369243 353.741911 
L 376.395073 322.555326 
L 377.420903 354.214772 
L 378.446732 332.433432 
L 379.472562 379.313755 
L 380.498391 339.420263 
L 381.524221 365.543497 
L 382.550051 328.219673 
L 383.57588 332.720399 
L 384.60171 331.01664 
L 385.627539 338.699232 
L 386.653369 334.340039 
L 387.679198 366.245616 
L 388.705028 342.846022 
L 389.730858 306.196398 
L 390.756687 302.892129 
L 391.782517 308.820188 
L 392.808346 336.451135 
L 393.834176 381.785959 
L 394.860006 340.198202 
L 395.885835 309.413776 
L 396.911665 449.8994 
L 397.937494 341.138591 
L 398.963324 332.509936 
L 399.989153 333.265244 
L 401.014983 334.830476 
L 402.040813 328.712786 
L 403.066642 338.147683 
L 404.092472 327.983873 
L 405.118301 334.633888 
L 406.144131 306.676808 
L 407.16996 360.312556 
L 408.19579 321.404681 
L 409.22162 334.026659 
L 410.247449 324.576364 
L 411.273279 316.886512 
L 412.299108 392.827386 
L 413.324938 338.122447 
L 414.350768 324.89234 
L 415.376597 341.299774 
L 416.402427 288.891574 
L 417.428256 355.884768 
L 418.454086 215.386578 
L 419.479915 356.827652 
L 420.505745 323.558837 
L 421.531575 329.312982 
L 422.557404 331.774581 
L 423.583234 267.064097 
L 424.609063 420.934738 
L 425.634893 307.950063 
L 426.660722 329.83364 
L 427.686552 285.739338 
L 428.712382 290.514467 
L 429.738211 342.61297 
L 430.764041 303.224047 
L 431.78987 299.666511 
L 432.8157 312.450295 
L 433.84153 304.218468 
L 434.867359 332.779953 
L 435.893189 310.133111 
L 436.919018 290.741957 
L 437.944848 283.070464 
L 438.970677 326.784745 
L 439.996507 301.632095 
L 441.022337 309.52308 
L 442.048166 293.003046 
L 443.073996 281.924331 
L 444.099825 300.021016 
L 445.125655 290.15709 
L 446.151485 405.99141 
L 447.177314 297.423472 
L 448.203144 295.819122 
L 449.228973 414.252282 
L 450.254803 286.968279 
L 451.280632 309.042512 
L 452.306462 311.18835 
L 453.332292 277.01937 
L 454.358121 293.072945 
L 455.383951 302.285183 
L 456.40978 287.449722 
L 457.43561 277.099442 
L 458.461439 269.509359 
L 459.487269 298.279239 
L 460.513099 290.25196 
L 461.538928 314.775548 
L 462.564758 275.180209 
L 463.590587 336.961407 
L 464.616417 273.114372 
L 465.642247 259.859417 
L 466.668076 311.693355 
L 467.693906 308.086624 
L 468.719735 287.259262 
L 469.745565 279.559503 
L 470.771394 299.486437 
L 471.797224 293.59513 
L 472.823054 267.807472 
L 473.848883 283.577697 
L 474.874713 289.642742 
L 475.900542 292.234688 
L 476.926372 268.795023 
L 477.952201 291.612557 
L 478.978031 271.439575 
L 480.003861 314.720772 
L 481.02969 306.739547 
L 482.05552 311.821925 
L 483.081349 302.518086 
L 484.107179 277.088546 
L 485.133009 289.950641 
L 486.158838 282.451869 
L 487.184668 262.563548 
L 488.210497 311.992115 
L 490.262156 258.47822 
L 491.287986 276.400832 
L 492.313816 268.27649 
L 493.339645 286.018626 
L 494.365475 433.409424 
L 495.391304 299.130473 
L 496.417134 289.502059 
L 497.442964 306.7531 
L 498.468793 269.158292 
L 499.494623 282.904847 
L 500.520452 268.166409 
L 501.546282 263.426675 
L 502.572111 251.300022 
L 503.597941 270.906049 
L 504.623771 264.363396 
L 505.6496 288.19174 
L 506.67543 276.18052 
L 507.701259 281.276671 
L 508.727089 286.963203 
L 509.752918 257.440387 
L 510.778748 264.213648 
L 511.804578 279.145955 
L 512.830407 284.9942 
L 513.856237 274.611903 
L 514.882066 250.814491 
L 515.907896 286.559452 
L 516.933726 285.331935 
L 517.959555 261.097446 
L 518.985385 267.883979 
L 520.011214 287.698526 
L 521.037044 287.895634 
L 522.062873 258.687346 
L 523.088703 275.621954 
L 524.114533 264.856818 
L 525.140362 257.487855 
L 526.166192 279.237971 
L 527.192021 251.976733 
L 528.217851 241.060677 
L 529.24368 275.734805 
L 530.26951 262.763624 
L 531.29534 290.243719 
L 532.321169 260.915714 
L 533.346999 241.009928 
L 534.372828 266.440514 
L 535.398658 276.559308 
L 536.424488 289.195358 
L 538.476147 255.720265 
L 539.501976 273.89978 
L 540.527806 262.769027 
L 541.553635 261.748764 
L 542.579465 258.735021 
L 543.605295 290.312872 
L 544.631124 300.121314 
L 545.656954 264.738825 
L 546.682783 237.802771 
L 547.708613 250.126969 
L 548.734443 257.093834 
L 549.760272 273.126638 
L 550.786102 264.681911 
L 551.811931 259.363492 
L 552.837761 251.97053 
L 553.86359 257.951089 
L 554.88942 279.19254 
L 555.91525 238.600083 
L 556.941079 274.143301 
L 557.966909 278.938883 
L 558.992738 263.707466 
L 560.018568 266.761337 
L 561.044397 356.738136 
L 562.070227 258.432972 
L 563.096057 258.966788 
L 564.121886 250.707868 
L 565.147716 263.390887 
L 566.173545 255.677059 
L 567.199375 255.536615 
L 568.225205 245.733641 
L 569.251034 249.98906 
L 570.276864 260.888697 
L 571.302693 237.079375 
L 572.328523 266.743344 
L 573.354352 255.444827 
L 574.380182 246.164001 
L 575.406012 280.418175 
L 576.431841 270.304509 
L 577.457671 243.515898 
L 578.4835 256.573298 
L 579.50933 240.349895 
L 580.535159 258.691751 
L 581.560989 246.994251 
L 582.586819 251.816301 
L 583.612648 263.788161 
L 584.638478 286.510714 
L 585.664307 272.851838 
L 586.690137 263.21536 
L 587.715967 262.503355 
L 588.741796 258.086246 
L 589.767626 258.569791 
L 590.793455 304.761031 
L 591.819285 290.664528 
L 592.845114 247.155722 
L 593.870944 227.607573 
L 594.896774 263.507444 
L 595.922603 247.827761 
L 596.948433 252.27158 
L 597.974262 270.083014 
L 599.000092 244.107556 
L 600.025922 240.586759 
L 601.051751 236.54797 
L 602.077581 237.916245 
L 603.10341 220.813733 
L 604.12924 261.897728 
L 605.155069 275.850809 
L 606.180899 229.18009 
L 608.232558 253.565525 
L 609.258388 247.9285 
L 610.284217 263.300038 
L 611.310047 250.589795 
L 612.335876 252.939274 
L 613.361706 252.130337 
L 614.387536 269.167938 
L 615.413365 253.914887 
L 616.439195 389.023006 
L 617.465024 243.877786 
L 618.490854 239.951874 
L 619.516684 230.786623 
L 620.542513 232.895111 
L 621.568343 243.759084 
L 622.594172 240.988076 
L 623.620002 252.99968 
L 624.645831 241.408389 
L 625.671661 252.774617 
L 626.697491 236.874377 
L 627.72332 255.105341 
L 628.74915 251.0629 
L 629.774979 242.426497 
L 630.800809 247.295835 
L 631.826638 257.835826 
L 632.852468 252.898273 
L 633.878298 273.633672 
L 634.904127 250.350665 
L 635.929957 239.252151 
L 636.955786 270.377578 
L 637.981616 225.908992 
L 639.007446 255.872078 
L 640.033275 222.310196 
L 641.059105 270.248561 
L 642.084934 240.698516 
L 643.110764 237.997766 
L 644.136593 256.913454 
L 645.162423 247.253007 
L 646.188253 260.218013 
L 647.214082 234.625501 
L 648.239912 242.823668 
L 649.265741 244.869879 
L 650.291571 263.379286 
L 651.3174 233.216028 
L 652.34323 245.093475 
L 653.36906 231.604078 
L 654.394889 224.608022 
L 655.420719 248.583002 
L 656.446548 242.731094 
L 657.472378 250.174862 
L 658.498208 234.74419 
L 659.524037 225.447091 
L 661.575696 264.452675 
L 662.601526 228.363516 
L 663.627355 226.222343 
L 664.653185 232.744322 
L 665.679015 290.270748 
L 666.704844 250.376542 
L 667.730674 238.75 
L 668.756503 230.50466 
L 669.782333 246.277233 
L 670.808163 238.623057 
L 671.833992 243.608648 
L 672.859822 242.821576 
L 673.885651 234.736458 
L 674.911481 325.037705 
L 675.93731 231.014779 
L 676.96314 257.116711 
L 677.98897 234.37027 
L 679.014799 237.842543 
L 680.040629 217.745866 
L 681.066458 226.242994 
L 682.092288 247.398569 
L 683.118117 215.283354 
L 684.143947 235.887718 
L 685.169777 238.810469 
L 686.195606 260.797455 
L 687.221436 252.2145 
L 688.247265 219.386877 
L 689.273095 235.108374 
L 690.298925 234.81789 
L 691.324754 243.6352 
L 692.350584 233.76769 
L 693.376413 236.046062 
L 694.402243 280.532976 
L 695.428072 208.625369 
L 696.453902 220.766645 
L 697.479732 256.386605 
L 698.505561 240.496786 
L 699.531391 219.053556 
L 700.55722 218.513915 
L 701.58305 233.355925 
L 702.608879 238.907478 
L 703.634709 238.358542 
L 704.660539 247.910959 
L 705.686368 269.994986 
L 706.712198 232.930614 
L 707.738027 234.483974 
L 708.763857 230.672994 
L 709.789687 237.500751 
L 710.815516 234.636876 
L 711.841346 250.445594 
L 712.867175 247.973496 
L 713.893005 241.61507 
L 714.918834 225.879138 
L 715.944664 215.573521 
L 716.970494 238.964223 
L 717.996323 229.155017 
L 719.022153 213.747787 
L 720.047982 234.594218 
L 721.073812 205.259626 
L 722.099642 245.309602 
L 723.125471 222.753279 
L 724.151301 237.728312 
L 725.17713 222.269121 
L 726.20296 243.644538 
L 727.228789 245.611039 
L 728.254619 243.923876 
L 729.280449 211.102735 
L 730.306278 248.876649 
L 731.332108 219.135181 
L 732.357937 222.008332 
L 733.383767 227.106201 
L 734.409596 216.295605 
L 735.435426 183.610398 
L 736.461256 229.207302 
L 737.487085 204.419261 
L 738.512915 221.970769 
L 739.538744 228.437373 
L 740.564574 220.831373 
L 741.590404 231.718457 
L 742.616233 221.962518 
L 743.642063 242.312242 
L 744.667892 229.584496 
L 745.693722 253.676148 
L 746.719551 234.677863 
L 747.745381 227.280578 
L 748.771211 236.856341 
L 749.79704 212.68225 
L 750.82287 224.295787 
L 751.848699 234.252522 
L 752.874529 238.375776 
L 753.900358 207.994091 
L 754.926188 236.30032 
L 755.952018 233.850661 
L 756.977847 214.789667 
L 758.003677 221.239973 
L 759.029506 237.402162 
L 760.055336 226.398989 
L 761.081166 205.482476 
L 762.106995 311.780377 
L 763.132825 231.948092 
L 764.158654 232.551258 
L 765.184484 227.972138 
L 766.210313 226.174154 
L 767.236143 223.577919 
L 768.261973 242.991904 
L 769.287802 235.848038 
L 770.313632 243.527403 
L 771.339461 222.521691 
L 772.365291 233.062393 
L 773.391121 206.935743 
L 774.41695 221.116652 
L 776.468609 218.5923 
L 777.494439 245.592816 
L 778.520268 214.334397 
L 779.546098 236.08086 
L 780.571928 230.303327 
L 781.597757 199.315369 
L 782.623587 225.392366 
L 783.649416 230.973778 
L 784.675246 231.194955 
L 785.701075 211.556975 
L 786.726905 221.442634 
L 787.752735 234.320819 
L 788.778564 243.777859 
L 789.804394 223.944753 
L 790.830223 216.555482 
L 791.856053 241.725466 
L 792.881883 236.127553 
L 793.907712 225.073071 
L 794.933542 220.437734 
L 795.959371 217.226619 
L 796.985201 222.595481 
L 798.01103 219.657368 
L 799.03686 226.201491 
L 800.06269 240.492279 
L 801.088519 230.291848 
L 802.114349 225.854134 
L 803.140178 229.52772 
L 804.166008 215.83503 
L 805.191837 217.488675 
L 806.217667 214.954647 
L 807.243497 223.992314 
L 808.269326 223.435623 
L 809.295156 219.297355 
L 810.320985 214.015031 
L 811.346815 216.859052 
L 812.372645 237.200845 
L 813.398474 217.407261 
L 814.424304 222.062193 
L 815.450133 211.189896 
L 816.475963 225.221549 
L 817.501792 210.47663 
L 818.527622 209.869524 
L 819.553452 200.86174 
L 820.579281 224.155994 
L 821.605111 217.37663 
L 822.63094 199.169363 
L 823.65677 221.554075 
L 824.6826 229.12329 
L 825.708429 209.702216 
L 826.734259 219.893862 
L 827.760088 221.910422 
L 828.785918 227.896295 
L 829.811747 214.225973 
L 830.837577 195.765674 
L 831.863407 224.992729 
L 832.889236 227.373163 
L 833.915066 208.589311 
L 834.940895 224.954586 
L 835.966725 233.54932 
L 836.992554 213.613101 
L 838.018384 223.74982 
L 839.044214 217.400327 
L 840.070043 255.764565 
L 841.095873 219.264713 
L 842.121702 210.397073 
L 843.147532 224.738652 
L 845.199191 197.458953 
L 846.225021 237.639542 
L 847.25085 219.590773 
L 848.27668 212.574205 
L 849.302509 214.828663 
L 850.328339 236.293444 
L 851.354169 245.549455 
L 852.379998 217.402669 
L 853.405828 213.999146 
L 854.431657 214.292291 
L 855.457487 212.999698 
L 856.483316 221.79113 
L 857.509146 222.620831 
L 858.534976 227.650085 
L 859.560805 205.240167 
L 860.586635 207.134961 
L 861.612464 214.795274 
L 862.638294 219.285179 
L 863.664124 196.258238 
L 864.689953 204.81103 
L 865.715783 221.112692 
L 866.741612 221.805541 
L 867.767442 205.809497 
L 868.793271 219.966442 
L 869.819101 222.877421 
L 870.844931 206.638725 
L 871.87076 196.874153 
L 872.89659 218.235173 
L 873.922419 219.062715 
L 874.948249 221.086887 
L 875.974078 207.915232 
L 876.999908 223.169034 
L 878.025738 216.409423 
L 879.051567 213.472186 
L 880.077397 206.009313 
L 881.103226 212.299096 
L 882.129056 215.230374 
L 883.154886 225.225481 
L 884.180715 220.858135 
L 885.206545 207.634494 
L 886.232374 204.961663 
L 887.258204 196.768834 
L 888.284033 217.465412 
L 889.309863 207.036018 
L 890.335693 210.395017 
L 891.361522 209.770524 
L 892.387352 204.057253 
L 893.413181 204.054813 
L 894.439011 215.446001 
L 895.464841 223.737157 
L 896.49067 212.757321 
L 897.5165 197.542246 
L 898.542329 256.945941 
L 899.568159 211.404512 
L 900.593988 222.354967 
L 901.619818 214.332758 
L 902.645648 203.495225 
L 903.671477 216.076696 
L 904.697307 212.13061 
L 905.723136 213.023866 
L 906.748966 232.726321 
L 907.774795 216.862327 
L 908.800625 212.676342 
L 909.826455 199.612149 
L 910.852284 209.821343 
L 911.878114 214.592884 
L 912.903943 215.055276 
L 913.929773 240.040454 
L 914.955603 209.96243 
L 915.981432 210.19558 
L 917.007262 212.43847 
L 918.033091 205.38113 
L 919.058921 203.580073 
L 920.08475 196.090401 
L 921.11058 211.063599 
L 922.13641 200.146414 
L 923.162239 203.264201 
L 924.188069 208.123398 
L 925.213898 198.43153 
L 926.239728 218.449728 
L 927.265557 224.159855 
L 928.291387 187.743426 
L 929.317217 212.412014 
L 930.343046 195.649215 
L 931.368876 192.265788 
L 932.394705 208.666982 
L 934.446365 199.007758 
L 935.472194 206.877737 
L 936.498024 204.220963 
L 937.523853 207.167979 
L 938.549683 197.044892 
L 939.575512 217.777288 
L 940.601342 202.652031 
L 941.627172 190.478905 
L 942.653001 221.772478 
L 943.678831 195.349011 
L 944.70466 201.438685 
L 945.73049 210.19639 
L 946.75632 205.70265 
L 947.782149 202.723098 
L 948.807979 212.755833 
L 949.833808 203.989139 
L 950.859638 212.631596 
L 951.885467 197.200572 
L 952.911297 216.330907 
L 953.937127 203.166292 
L 954.962956 215.541825 
L 955.988786 246.200902 
L 957.014615 229.984799 
L 958.040445 217.847072 
L 959.066274 218.638851 
L 960.092104 197.725878 
L 961.117934 199.912181 
L 962.143763 211.00688 
L 963.169593 204.512126 
L 964.195422 219.113432 
L 965.221252 201.971021 
L 966.247082 228.582607 
L 967.272911 201.89823 
L 968.298741 211.640755 
L 969.32457 210.308205 
L 970.3504 183.362253 
L 971.376229 202.467383 
L 972.402059 198.911817 
L 973.427889 208.944232 
L 975.479548 194.117182 
L 977.531207 216.457013 
L 978.557036 198.496097 
L 979.582866 197.032603 
L 980.608696 198.016526 
L 981.634525 210.150296 
L 982.660355 193.075597 
L 983.686184 195.029002 
L 984.712014 199.545073 
L 985.737844 198.072219 
L 986.763673 204.297276 
L 987.789503 215.434042 
L 988.815332 196.168334 
L 990.866991 202.833787 
L 991.892821 209.594562 
L 992.918651 207.358439 
L 993.94448 208.682471 
L 994.97031 202.24404 
L 995.996139 203.756088 
L 997.021969 202.878021 
L 998.047799 192.015953 
L 999.073628 195.289544 
L 1000.099458 202.97461 
L 1002.151117 211.952162 
L 1003.176946 212.971369 
L 1004.202776 201.674817 
L 1005.228606 199.681821 
L 1006.254435 220.308508 
L 1007.280265 199.581288 
L 1008.306094 205.639098 
L 1009.331924 207.459984 
L 1010.357753 204.685669 
L 1011.383583 210.896551 
L 1012.409413 271.942559 
L 1013.435242 253.498631 
L 1014.461072 209.066761 
L 1015.486901 196.580372 
L 1016.512731 194.016039 
L 1017.538561 236.677828 
L 1018.56439 203.452937 
L 1019.59022 210.581361 
L 1020.616049 192.551235 
L 1021.641879 197.755398 
L 1022.667708 189.18658 
L 1023.693538 204.359376 
L 1024.719368 209.672479 
L 1025.745197 191.858074 
L 1026.771027 213.807176 
L 1027.796856 197.642082 
L 1028.822686 196.432874 
L 1029.848515 198.442542 
L 1030.874345 196.252439 
L 1031.900175 200.308169 
L 1032.926004 209.241409 
L 1033.951834 197.392763 
L 1036.003493 195.957305 
L 1037.029323 194.034005 
L 1038.055152 196.656698 
L 1039.080982 198.235129 
L 1040.106811 192.408454 
L 1041.132641 196.584913 
L 1042.15847 216.733243 
L 1044.21013 196.720866 
L 1045.235959 198.1094 
L 1046.261789 193.878088 
L 1047.287618 211.607513 
L 1048.313448 195.98898 
L 1049.339278 184.452841 
L 1050.365107 200.589914 
L 1051.390937 206.509747 
L 1052.416766 197.665214 
L 1053.442596 204.986617 
L 1054.468425 190.189641 
L 1055.494255 203.687792 
L 1056.520085 187.983982 
L 1057.545914 202.630599 
L 1058.571744 193.491484 
L 1059.597573 202.171851 
L 1060.623403 205.976822 
L 1061.649232 228.290717 
L 1062.675062 215.825203 
L 1063.700892 200.908522 
L 1064.726721 225.939197 
L 1065.752551 198.980737 
L 1066.77838 199.634934 
L 1067.80421 204.188028 
L 1068.83004 198.034024 
L 1069.855869 202.290884 
L 1070.881699 241.746933 
L 1071.907528 211.650888 
L 1072.933358 204.209124 
L 1073.959187 200.646018 
L 1074.985017 192.742211 
L 1076.010847 207.804136 
L 1077.036676 190.389775 
L 1078.062506 205.333739 
L 1079.088335 198.416093 
L 1080.114165 199.815005 
L 1081.139994 195.287815 
L 1082.165824 199.614979 
L 1083.191654 189.575793 
L 1084.217483 205.267136 
L 1085.243313 202.493996 
L 1086.269142 207.758106 
L 1087.294972 200.620472 
L 1088.320802 204.023462 
L 1089.346631 203.340925 
L 1090.372461 202.870876 
L 1091.39829 177.058786 
L 1092.42412 211.733829 
L 1093.449949 190.785623 
L 1094.475779 209.740178 
L 1095.501609 195.279234 
L 1096.527438 192.998999 
L 1097.553268 198.417601 
L 1098.579097 206.778636 
L 1099.604927 212.104436 
L 1100.630757 206.27682 
L 1101.656586 187.867411 
L 1102.682416 305.171327 
L 1103.708245 197.584757 
L 1104.734075 202.210804 
L 1105.759904 204.223939 
L 1106.785734 202.42817 
L 1107.811564 199.90117 
L 1108.837393 193.975695 
L 1109.863223 200.033597 
L 1110.889052 199.494536 
L 1111.914882 205.240958 
L 1112.940711 202.399869 
L 1113.966541 197.582631 
L 1114.992371 224.589229 
L 1116.0182 202.386639 
L 1117.04403 205.823558 
L 1118.069859 192.957262 
L 1119.095689 202.879441 
L 1120.121519 200.246949 
L 1121.147348 185.588013 
L 1122.173178 210.713598 
L 1123.199007 206.36302 
L 1124.224837 222.377447 
L 1125.250666 204.018361 
L 1126.276496 193.087875 
L 1127.302326 204.340717 
L 1128.328155 197.315884 
L 1129.353985 200.35088 
L 1130.379814 215.764664 
L 1131.405644 197.465334 
L 1132.431473 263.8993 
L 1133.457303 204.965188 
L 1134.483133 186.550021 
L 1135.508962 208.850053 
L 1136.534792 189.928094 
L 1137.560621 198.185241 
L 1138.586451 197.702881 
L 1139.612281 202.718887 
L 1140.63811 205.936635 
L 1141.66394 201.435131 
L 1142.689769 203.940233 
L 1143.715599 204.460029 
L 1144.741428 198.828473 
L 1145.767258 206.322768 
L 1146.793088 192.347218 
L 1147.818917 196.139245 
L 1148.844747 196.720247 
L 1149.870576 207.634581 
L 1150.896406 196.33128 
L 1151.922235 200.339576 
L 1152.948065 205.655094 
L 1153.973895 204.116266 
L 1154.999724 193.43422 
L 1156.025554 192.918733 
L 1157.051383 195.33971 
L 1158.077213 203.475907 
L 1159.103043 193.628113 
L 1160.128872 200.801332 
L 1161.154702 199.642996 
L 1162.180531 196.260061 
L 1163.206361 231.948954 
L 1164.23219 197.152194 
L 1165.25802 198.746298 
L 1166.28385 239.869183 
L 1167.309679 233.036436 
L 1168.335509 209.493263 
L 1169.361338 199.459317 
L 1170.387168 195.964429 
L 1171.412998 201.792348 
L 1172.438827 193.912259 
L 1173.464657 203.784761 
L 1174.490486 200.1114 
L 1175.516316 203.105872 
L 1176.542145 201.324483 
L 1177.567975 194.276365 
L 1178.593805 199.851983 
L 1179.619634 200.462438 
L 1180.645464 204.272696 
L 1181.671293 195.505378 
L 1182.697123 205.241065 
L 1183.722952 204.520275 
L 1184.748782 192.617335 
L 1185.774612 203.124272 
L 1186.800441 204.963517 
L 1187.826271 200.916944 
L 1188.8521 194.489493 
L 1189.87793 191.705407 
L 1190.90376 201.246362 
L 1191.929589 193.61877 
L 1192.955419 195.616981 
L 1193.981248 200.947993 
L 1195.007078 259.344832 
L 1196.032907 202.967142 
L 1197.058737 187.941428 
L 1198.084567 199.262004 
L 1199.110396 193.425631 
L 1201.162055 201.695766 
L 1202.187885 203.527166 
L 1203.213714 208.258701 
L 1204.239544 193.612776 
L 1205.265374 209.302364 
L 1206.291203 197.725085 
L 1207.317033 187.571712 
L 1208.342862 198.435088 
L 1209.368692 196.203199 
L 1210.394522 204.522535 
L 1211.420351 191.876396 
L 1212.446181 193.66671 
L 1213.47201 189.150888 
L 1214.49784 189.902178 
L 1215.523669 202.053278 
L 1216.549499 199.945113 
L 1217.575329 191.224526 
L 1218.601158 188.189463 
L 1219.626988 198.416675 
L 1220.652817 194.305496 
L 1221.678647 196.807226 
L 1222.704477 198.27463 
L 1223.730306 196.090558 
L 1224.756136 200.418 
L 1225.781965 191.490967 
L 1226.807795 111.6 
L 1227.833624 205.402835 
L 1228.859454 191.867197 
L 1229.885284 185.949196 
L 1230.911113 183.774591 
L 1231.936943 198.334456 
L 1232.962772 183.250582 
L 1233.988602 198.561334 
L 1235.014431 190.086146 
L 1236.040261 187.69802 
L 1237.066091 175.120567 
L 1238.09192 187.850999 
L 1239.11775 191.315598 
L 1240.143579 191.442752 
L 1241.169409 216.692378 
L 1242.195239 194.921595 
L 1244.246898 189.87721 
L 1245.272727 205.368466 
L 1245.272727 205.368466 
" style="fill:none;stroke:#1f77b4;stroke-linecap:square;stroke-width:1.5;"/>
   </g>
   <g id="line2d_19">
    <path clip-path="url(#p934133afb4)" d="M 230.727273 615.6 
L 231.753102 587.112557 
L 232.778932 585.702697 
L 233.804761 583.708208 
L 234.830591 580.860377 
L 235.856421 581.167072 
L 236.88225 571.118696 
L 237.90808 571.85665 
L 238.933909 568.340053 
L 239.959739 571.326262 
L 240.985569 572.246028 
L 243.037228 559.45363 
L 244.063057 561.905143 
L 245.088887 552.016078 
L 246.114716 560.54969 
L 247.140546 552.616696 
L 248.166376 559.562354 
L 249.192205 545.394606 
L 250.218035 560.665399 
L 251.243864 550.098704 
L 252.269694 548.560105 
L 253.295523 536.55933 
L 254.321353 548.581368 
L 255.347183 549.670105 
L 256.373012 533.685379 
L 257.398842 534.882763 
L 258.424671 539.944627 
L 259.450501 540.629664 
L 260.476331 538.038806 
L 261.50216 539.572064 
L 262.52799 530.319295 
L 263.553819 512.141541 
L 264.579649 531.432362 
L 265.605478 513.586414 
L 266.631308 517.773196 
L 267.657138 528.393994 
L 268.682967 545.524664 
L 269.708797 514.657526 
L 270.734626 513.767348 
L 271.760456 498.032613 
L 273.812115 524.602739 
L 274.837945 488.40721 
L 275.863774 510.146725 
L 276.889604 490.704214 
L 277.915433 506.266935 
L 278.941263 507.596294 
L 279.967093 520.176189 
L 280.992922 495.176778 
L 282.018752 479.996178 
L 283.044581 490.534663 
L 284.070411 494.412125 
L 285.09624 499.718105 
L 286.12207 488.678639 
L 287.1479 480.95063 
L 288.173729 480.971337 
L 289.199559 489.652987 
L 290.225388 502.158866 
L 291.251218 475.643503 
L 292.277048 476.51873 
L 293.302877 540.248634 
L 294.328707 529.968902 
L 295.354536 491.24951 
L 296.380366 474.64148 
L 297.406195 474.862058 
L 298.432025 479.588571 
L 299.457855 457.853522 
L 300.483684 480.891159 
L 301.509514 482.742852 
L 302.535343 473.179442 
L 303.561173 477.358188 
L 304.587002 477.16104 
L 305.612832 487.254761 
L 306.638662 460.573615 
L 307.664491 455.484786 
L 308.690321 474.25124 
L 309.71615 477.279138 
L 310.74198 483.876964 
L 311.76781 455.840102 
L 312.793639 503.581926 
L 313.819469 470.570219 
L 314.845298 465.631157 
L 315.871128 471.456846 
L 316.896957 468.146806 
L 317.922787 463.178168 
L 318.948617 472.841109 
L 319.974446 467.215171 
L 321.000276 466.621809 
L 322.026105 466.837386 
L 323.051935 475.536233 
L 324.077765 457.16077 
L 325.103594 464.152768 
L 326.129424 463.916068 
L 327.155253 437.127874 
L 328.181083 459.491621 
L 329.206912 457.634335 
L 330.232742 461.988839 
L 331.258572 458.926402 
L 332.284401 453.963986 
L 333.310231 459.368405 
L 334.33606 382.612209 
L 335.36189 465.787329 
L 336.387719 451.58875 
L 337.413549 427.742997 
L 339.465208 431.03209 
L 340.491038 470.142599 
L 341.516867 500.488782 
L 342.542697 422.438556 
L 343.568527 425.306771 
L 344.594356 430.261324 
L 345.620186 410.518711 
L 346.646015 433.075615 
L 347.671845 414.702243 
L 348.697674 412.709143 
L 349.723504 443.771566 
L 350.749334 416.417637 
L 351.775163 415.341435 
L 352.800993 488.923574 
L 353.826822 510.520098 
L 354.852652 442.629229 
L 355.878481 431.937144 
L 356.904311 441.02358 
L 357.930141 443.683752 
L 358.95597 449.066714 
L 359.9818 448.652421 
L 361.007629 456.738396 
L 362.033459 450.541431 
L 363.059289 454.281805 
L 364.085118 447.16732 
L 365.110948 436.90096 
L 366.136777 444.801218 
L 368.188436 434.10632 
L 369.214266 411.27219 
L 370.240096 485.760208 
L 371.265925 431.341372 
L 372.291755 444.362286 
L 373.317584 439.403203 
L 374.343414 449.150636 
L 376.395073 426.217989 
L 377.420903 436.743997 
L 378.446732 431.307795 
L 379.472562 443.217844 
L 380.498391 429.042101 
L 381.524221 426.012961 
L 382.550051 432.024223 
L 383.57588 554.459853 
L 384.60171 443.247545 
L 385.627539 444.963244 
L 386.653369 441.74196 
L 387.679198 418.111884 
L 388.705028 426.037346 
L 389.730858 415.536929 
L 390.756687 424.542735 
L 391.782517 410.18434 
L 392.808346 432.091186 
L 394.860006 501.589314 
L 395.885835 451.433797 
L 396.911665 421.802674 
L 397.937494 438.981586 
L 398.963324 428.933281 
L 399.989153 438.630158 
L 401.014983 413.717136 
L 402.040813 403.349646 
L 403.066642 422.858356 
L 404.092472 422.9767 
L 405.118301 412.266047 
L 406.144131 426.045642 
L 407.16996 407.873283 
L 408.19579 412.517057 
L 409.22162 415.790085 
L 410.247449 424.61742 
L 411.273279 424.823696 
L 412.299108 400.373352 
L 414.350768 423.545915 
L 415.376597 418.813872 
L 416.402427 414.981102 
L 417.428256 412.965809 
L 418.454086 415.77595 
L 419.479915 407.153779 
L 420.505745 402.011646 
L 421.531575 397.52822 
L 422.557404 425.25462 
L 423.583234 404.850826 
L 424.609063 418.385838 
L 425.634893 420.301149 
L 426.660722 415.731504 
L 427.686552 405.423225 
L 428.712382 411.648861 
L 429.738211 407.583919 
L 430.764041 425.910006 
L 431.78987 417.916925 
L 432.8157 423.601293 
L 433.84153 409.350606 
L 434.867359 409.408489 
L 435.893189 416.203254 
L 436.919018 411.718461 
L 437.944848 394.959888 
L 438.970677 416.17956 
L 439.996507 408.993489 
L 441.022337 397.899873 
L 442.048166 416.462986 
L 443.073996 393.280994 
L 444.099825 415.176596 
L 445.125655 404.08776 
L 446.151485 411.235054 
L 447.177314 392.245546 
L 448.203144 402.796995 
L 449.228973 417.399179 
L 450.254803 409.976416 
L 451.280632 397.551533 
L 452.306462 431.627129 
L 453.332292 408.670028 
L 454.358121 418.629796 
L 455.383951 391.213897 
L 456.40978 420.617829 
L 457.43561 403.366873 
L 458.461439 399.562208 
L 459.487269 397.367855 
L 460.513099 396.198403 
L 461.538928 387.881677 
L 462.564758 395.829884 
L 463.590587 401.516777 
L 464.616417 400.347815 
L 465.642247 395.589072 
L 466.668076 386.499599 
L 467.693906 416.023794 
L 468.719735 400.053873 
L 469.745565 404.250245 
L 470.771394 394.548199 
L 471.797224 381.709795 
L 473.848883 407.325237 
L 474.874713 383.009923 
L 475.900542 447.605792 
L 476.926372 382.901041 
L 477.952201 395.53152 
L 478.978031 423.445279 
L 480.003861 393.607055 
L 481.02969 376.56834 
L 482.05552 404.345292 
L 483.081349 418.947191 
L 484.107179 398.098295 
L 485.133009 390.226006 
L 486.158838 387.4376 
L 487.184668 390.751437 
L 488.210497 381.053751 
L 489.236327 394.181136 
L 490.262156 373.804897 
L 491.287986 426.933654 
L 492.313816 411.334137 
L 493.339645 410.621189 
L 494.365475 391.868872 
L 496.417134 396.479299 
L 497.442964 390.291292 
L 498.468793 375.786455 
L 499.494623 392.553514 
L 500.520452 391.213973 
L 501.546282 459.244631 
L 502.572111 399.22288 
L 503.597941 419.298762 
L 504.623771 415.046389 
L 505.6496 466.014792 
L 506.67543 391.324525 
L 507.701259 404.380425 
L 508.727089 388.271549 
L 509.752918 407.830822 
L 510.778748 404.861448 
L 511.804578 382.170278 
L 512.830407 396.089657 
L 513.856237 394.734702 
L 514.882066 423.762392 
L 515.907896 412.375087 
L 516.933726 408.502553 
L 517.959555 391.485789 
L 518.985385 406.166413 
L 520.011214 397.480767 
L 521.037044 391.962498 
L 522.062873 391.340091 
L 523.088703 387.71619 
L 524.114533 396.420394 
L 525.140362 393.55975 
L 526.166192 397.047718 
L 527.192021 377.973099 
L 528.217851 386.228362 
L 529.24368 461.71271 
L 530.26951 387.381548 
L 531.29534 429.832221 
L 532.321169 377.693772 
L 533.346999 373.321396 
L 534.372828 387.141165 
L 535.398658 383.031817 
L 536.424488 384.550585 
L 537.450317 381.41972 
L 538.476147 401.540137 
L 539.501976 392.833922 
L 540.527806 405.670601 
L 541.553635 389.657526 
L 543.605295 380.282494 
L 544.631124 369.650738 
L 545.656954 385.385161 
L 546.682783 382.892879 
L 547.708613 412.253248 
L 549.760272 380.478821 
L 550.786102 402.856802 
L 551.811931 398.66451 
L 552.837761 399.362017 
L 553.86359 401.59506 
L 554.88942 388.593119 
L 555.91525 395.249326 
L 556.941079 393.153039 
L 557.966909 392.314231 
L 558.992738 382.405361 
L 560.018568 467.780862 
L 561.044397 403.596526 
L 562.070227 394.616917 
L 563.096057 400.599882 
L 564.121886 388.728032 
L 565.147716 386.638793 
L 566.173545 383.612396 
L 567.199375 394.062644 
L 568.225205 396.959714 
L 569.251034 387.399568 
L 570.276864 385.993275 
L 571.302693 390.11616 
L 572.328523 382.508105 
L 573.354352 393.936357 
L 574.380182 387.399612 
L 575.406012 376.374526 
L 576.431841 430.691251 
L 577.457671 376.665204 
L 578.4835 379.321547 
L 579.50933 372.990544 
L 580.535159 384.618055 
L 581.560989 377.079745 
L 582.586819 378.546601 
L 583.612648 379.167202 
L 584.638478 375.785202 
L 585.664307 363.375514 
L 586.690137 439.472992 
L 587.715967 395.676409 
L 588.741796 379.183647 
L 589.767626 380.595045 
L 590.793455 373.816962 
L 591.819285 374.7138 
L 592.845114 390.611451 
L 593.870944 398.231537 
L 594.896774 432.187387 
L 595.922603 383.559344 
L 596.948433 385.672518 
L 597.974262 399.776495 
L 599.000092 392.805645 
L 600.025922 395.932735 
L 601.051751 389.792579 
L 602.077581 386.53986 
L 603.10341 396.860864 
L 604.12924 382.975694 
L 605.155069 406.5476 
L 606.180899 393.146792 
L 607.206729 384.056169 
L 608.232558 380.318454 
L 609.258388 383.018052 
L 610.284217 387.80332 
L 611.310047 395.271454 
L 612.335876 422.872141 
L 613.361706 392.726278 
L 614.387536 409.305637 
L 615.413365 383.99921 
L 616.439195 387.132342 
L 617.465024 392.047507 
L 618.490854 393.168976 
L 619.516684 388.010945 
L 620.542513 376.513783 
L 621.568343 390.335293 
L 622.594172 381.895707 
L 623.620002 428.225454 
L 624.645831 382.46855 
L 625.671661 378.354155 
L 626.697491 387.681705 
L 627.72332 389.515799 
L 628.74915 380.268625 
L 629.774979 383.76542 
L 630.800809 396.776477 
L 631.826638 375.828711 
L 632.852468 383.275189 
L 633.878298 387.142591 
L 634.904127 390.55043 
L 635.929957 378.631923 
L 636.955786 372.552762 
L 637.981616 369.889472 
L 639.007446 392.921802 
L 640.033275 365.606934 
L 641.059105 381.765943 
L 642.084934 373.126776 
L 643.110764 380.575069 
L 644.136593 374.46841 
L 645.162423 372.434274 
L 646.188253 391.344038 
L 647.214082 386.180383 
L 648.239912 390.757822 
L 649.265741 377.763365 
L 650.291571 411.81385 
L 651.3174 383.775381 
L 652.34323 376.757589 
L 653.36906 380.679589 
L 654.394889 369.981277 
L 655.420719 381.423817 
L 656.446548 385.686173 
L 657.472378 383.049622 
L 658.498208 374.77165 
L 659.524037 381.554008 
L 660.549867 368.581378 
L 661.575696 371.61148 
L 662.601526 393.979981 
L 663.627355 380.614921 
L 664.653185 388.726107 
L 665.679015 378.865958 
L 666.704844 373.736974 
L 667.730674 397.697967 
L 668.756503 384.161932 
L 669.782333 381.086956 
L 670.808163 383.784885 
L 671.833992 377.577581 
L 672.859822 384.14811 
L 673.885651 426.802277 
L 674.911481 374.50285 
L 675.93731 373.007861 
L 676.96314 376.972933 
L 677.98897 371.591005 
L 679.014799 384.354444 
L 680.040629 374.401713 
L 681.066458 386.547731 
L 682.092288 368.05337 
L 683.118117 388.792523 
L 685.169777 372.938734 
L 686.195606 373.098476 
L 687.221436 390.063923 
L 688.247265 389.97423 
L 689.273095 382.490122 
L 692.350584 366.348419 
L 694.402243 380.078055 
L 695.428072 371.253634 
L 696.453902 372.952203 
L 697.479732 367.887484 
L 698.505561 380.611755 
L 699.531391 370.122351 
L 700.55722 374.048076 
L 701.58305 391.959667 
L 702.608879 361.07279 
L 703.634709 373.128106 
L 704.660539 371.380454 
L 705.686368 380.30391 
L 706.712198 365.901639 
L 707.738027 363.480909 
L 708.763857 374.290555 
L 709.789687 368.618086 
L 710.815516 365.033067 
L 711.841346 370.875663 
L 712.867175 369.000304 
L 713.893005 378.437141 
L 714.918834 368.085218 
L 715.944664 370.999756 
L 716.970494 366.626053 
L 717.996323 378.301534 
L 719.022153 386.261641 
L 720.047982 376.334427 
L 721.073812 381.152701 
L 722.099642 372.739211 
L 723.125471 391.540765 
L 724.151301 377.575018 
L 725.17713 373.048737 
L 726.20296 385.028626 
L 727.228789 383.646745 
L 728.254619 373.952064 
L 729.280449 368.063347 
L 730.306278 366.907447 
L 731.332108 367.665117 
L 732.357937 375.716114 
L 733.383767 343.240877 
L 734.409596 373.085075 
L 735.435426 348.249807 
L 736.461256 372.848683 
L 737.487085 336.335931 
L 738.512915 363.924192 
L 739.538744 344.236014 
L 740.564574 366.381593 
L 741.590404 336.297188 
L 742.616233 363.550559 
L 743.642063 333.323787 
L 744.667892 365.985116 
L 745.693722 368.546422 
L 746.719551 369.724871 
L 747.745381 345.154367 
L 748.771211 363.892044 
L 749.79704 323.449285 
L 750.82287 367.229727 
L 751.848699 343.203413 
L 752.874529 363.164051 
L 753.900358 337.919625 
L 754.926188 361.769897 
L 755.952018 337.634349 
L 756.977847 367.227461 
L 758.003677 333.169565 
L 759.029506 408.038582 
L 760.055336 368.070934 
L 761.081166 368.972452 
L 762.106995 332.310418 
L 763.132825 355.201012 
L 764.158654 345.475519 
L 765.184484 404.374297 
L 766.210313 340.049509 
L 767.236143 357.266794 
L 768.261973 343.477063 
L 769.287802 414.45659 
L 770.313632 334.208492 
L 771.339461 368.959081 
L 772.365291 349.173828 
L 773.391121 374.753275 
L 774.41695 343.804741 
L 775.44278 361.813566 
L 776.468609 347.648093 
L 777.494439 371.163136 
L 778.520268 340.498935 
L 779.546098 361.828558 
L 780.571928 364.152679 
L 781.597757 372.016073 
L 782.623587 331.918039 
L 783.649416 365.101927 
L 784.675246 339.400728 
L 785.701075 373.564266 
L 786.726905 344.137469 
L 787.752735 369.529424 
L 788.778564 317.232605 
L 789.804394 363.614024 
L 790.830223 330.788975 
L 791.856053 357.493279 
L 792.881883 330.579278 
L 793.907712 375.25103 
L 794.933542 332.818832 
L 795.959371 365.242112 
L 796.985201 339.485858 
L 798.01103 378.302569 
L 799.03686 338.642053 
L 800.06269 365.260509 
L 801.088519 348.950084 
L 802.114349 361.777004 
L 803.140178 340.675052 
L 804.166008 359.087748 
L 805.191837 328.249904 
L 806.217667 364.768958 
L 807.243497 337.632597 
L 808.269326 360.787975 
L 809.295156 333.145341 
L 810.320985 363.814869 
L 811.346815 353.156292 
L 812.372645 357.795268 
L 813.398474 338.969216 
L 814.424304 368.529326 
L 815.450133 335.556315 
L 816.475963 369.695093 
L 817.501792 340.160018 
L 818.527622 363.714327 
L 819.553452 332.923405 
L 820.579281 357.466161 
L 821.605111 344.297613 
L 822.63094 356.199191 
L 823.65677 326.02949 
L 824.6826 369.569294 
L 825.708429 339.205193 
L 826.734259 363.194773 
L 827.760088 325.657655 
L 828.785918 355.451833 
L 829.811747 339.467264 
L 830.837577 400.467478 
L 831.863407 345.373959 
L 832.889236 358.710883 
L 833.915066 341.480152 
L 834.940895 361.725154 
L 835.966725 335.782778 
L 836.992554 362.574182 
L 838.018384 334.15451 
L 839.044214 353.564618 
L 840.070043 333.33421 
L 841.095873 360.221977 
L 842.121702 336.289701 
L 843.147532 363.421011 
L 844.173362 335.31452 
L 845.199191 356.971921 
L 846.225021 332.036538 
L 847.25085 358.882863 
L 848.27668 333.274105 
L 849.302509 364.954847 
L 850.328339 339.235905 
L 851.354169 363.509511 
L 852.379998 382.099563 
L 853.405828 354.466703 
L 854.431657 347.629098 
L 855.457487 359.760138 
L 856.483316 332.002992 
L 857.509146 360.254938 
L 858.534976 325.090825 
L 859.560805 367.501357 
L 860.586635 328.329599 
L 861.612464 356.531712 
L 862.638294 332.684746 
L 863.664124 318.300446 
L 864.689953 347.936667 
L 865.715783 356.384606 
L 866.741612 335.685014 
L 867.767442 359.097932 
L 868.793271 327.420182 
L 869.819101 345.249681 
L 870.844931 334.82592 
L 871.87076 362.973716 
L 872.89659 366.093661 
L 873.922419 350.58507 
L 874.948249 328.473073 
L 875.974078 367.400087 
L 876.999908 332.982582 
L 878.025738 362.779563 
L 879.051567 370.575089 
L 880.077397 357.743615 
L 881.103226 319.603572 
L 882.129056 357.668373 
L 883.154886 340.415819 
L 884.180715 354.973218 
L 885.206545 330.077675 
L 886.232374 362.922251 
L 887.258204 317.281243 
L 888.284033 358.800708 
L 889.309863 331.152408 
L 890.335693 357.833787 
L 891.361522 335.421412 
L 892.387352 360.723486 
L 893.413181 335.227712 
L 894.439011 356.392228 
L 895.464841 328.73628 
L 896.49067 359.243359 
L 897.5165 328.719131 
L 898.542329 355.067492 
L 899.568159 339.598434 
L 900.593988 350.609119 
L 901.619818 315.260966 
L 902.645648 354.367348 
L 903.671477 334.951871 
L 904.697307 373.602677 
L 905.723136 315.357051 
L 906.748966 380.430053 
L 907.774795 331.845557 
L 908.800625 352.608402 
L 909.826455 335.778367 
L 910.852284 358.038261 
L 911.878114 315.565621 
L 913.929773 384.574108 
L 914.955603 363.153267 
L 915.981432 322.155191 
L 917.007262 358.177355 
L 918.033091 317.146562 
L 919.058921 350.095734 
L 920.08475 332.97149 
L 921.11058 361.30834 
L 922.13641 327.45623 
L 923.162239 358.802712 
L 924.188069 336.240594 
L 925.213898 357.733577 
L 926.239728 366.070667 
L 927.265557 358.415278 
L 928.291387 327.730421 
L 929.317217 351.402203 
L 930.343046 328.846013 
L 931.368876 360.479897 
L 932.394705 319.374983 
L 933.420535 379.960687 
L 934.446365 318.188951 
L 935.472194 345.816747 
L 936.498024 331.306522 
L 937.523853 367.94425 
L 938.549683 323.253288 
L 939.575512 366.543753 
L 940.601342 324.436383 
L 942.653001 332.854897 
L 943.678831 346.318538 
L 944.70466 332.423134 
L 945.73049 376.326739 
L 946.75632 326.681005 
L 947.782149 356.510804 
L 948.807979 321.712669 
L 949.833808 355.228356 
L 950.859638 333.77937 
L 951.885467 346.897001 
L 952.911297 329.038778 
L 953.937127 354.857901 
L 954.962956 321.635336 
L 955.988786 364.427278 
L 957.014615 331.403785 
L 958.040445 380.584302 
L 959.066274 326.165752 
L 960.092104 354.465895 
L 961.117934 330.411171 
L 962.143763 359.862255 
L 963.169593 334.416082 
L 964.195422 351.478828 
L 965.221252 431.20227 
L 966.247082 353.736462 
L 967.272911 357.430068 
L 968.298741 341.64639 
L 969.32457 323.479428 
L 970.3504 356.220341 
L 971.376229 317.586561 
L 972.402059 352.887584 
L 973.427889 322.755186 
L 974.453718 363.346571 
L 975.479548 323.176762 
L 976.505377 340.243299 
L 977.531207 313.365258 
L 978.557036 353.714622 
L 979.582866 320.270927 
L 980.608696 350.951898 
L 981.634525 343.054449 
L 982.660355 352.734306 
L 983.686184 305.169987 
L 984.712014 356.629513 
L 985.737844 318.994537 
L 986.763673 350.624386 
L 987.789503 337.618117 
L 988.815332 318.746722 
L 989.841162 328.271587 
L 990.866991 376.212008 
L 991.892821 327.209392 
L 992.918651 345.906719 
L 993.94448 325.024875 
L 994.97031 353.756527 
L 995.996139 320.902139 
L 997.021969 352.616972 
L 998.047799 327.603178 
L 999.073628 358.571852 
L 1000.099458 327.92739 
L 1001.125287 353.062377 
L 1002.151117 328.003638 
L 1003.176946 354.413851 
L 1004.202776 334.875892 
L 1005.228606 350.663666 
L 1006.254435 332.952531 
L 1007.280265 357.233823 
L 1008.306094 333.534421 
L 1009.331924 362.722629 
L 1010.357753 324.995067 
L 1011.383583 356.429567 
L 1012.409413 330.145212 
L 1013.435242 353.120836 
L 1014.461072 327.734394 
L 1015.486901 359.554072 
L 1016.512731 325.351053 
L 1017.538561 362.978438 
L 1018.56439 321.521743 
L 1019.59022 345.660683 
L 1020.616049 325.500668 
L 1021.641879 357.975845 
L 1022.667708 331.253912 
L 1023.693538 390.5966 
L 1024.719368 318.731125 
L 1025.745197 350.056437 
L 1026.771027 323.268023 
L 1027.796856 356.641091 
L 1028.822686 318.518401 
L 1029.848515 353.49564 
L 1030.874345 322.724429 
L 1031.900175 358.219618 
L 1032.926004 326.45734 
L 1033.951834 347.12528 
L 1034.977663 307.006242 
L 1036.003493 367.467841 
L 1037.029323 328.655382 
L 1038.055152 345.62377 
L 1039.080982 326.354811 
L 1040.106811 351.701391 
L 1041.132641 328.428712 
L 1042.15847 350.506589 
L 1043.1843 320.427191 
L 1044.21013 349.768518 
L 1045.235959 363.27793 
L 1046.261789 349.847384 
L 1047.287618 331.115735 
L 1048.313448 362.046735 
L 1049.339278 326.605892 
L 1050.365107 357.016046 
L 1051.390937 328.001683 
L 1052.416766 355.526477 
L 1053.442596 319.335001 
L 1054.468425 350.389415 
L 1055.494255 322.851552 
L 1056.520085 367.665588 
L 1057.545914 324.692567 
L 1058.571744 355.407194 
L 1059.597573 354.873365 
L 1060.623403 354.494367 
L 1061.649232 336.581856 
L 1062.675062 350.72883 
L 1063.700892 326.504727 
L 1064.726721 360.97285 
L 1065.752551 326.212619 
L 1066.77838 355.951245 
L 1067.80421 328.478069 
L 1068.83004 356.113759 
L 1069.855869 326.117789 
L 1070.881699 351.313721 
L 1071.907528 322.504038 
L 1072.933358 386.082169 
L 1073.959187 322.167356 
L 1074.985017 375.317577 
L 1076.010847 328.655449 
L 1077.036676 353.28855 
L 1078.062506 315.327761 
L 1079.088335 360.089151 
L 1080.114165 321.997611 
L 1081.139994 357.774152 
L 1082.165824 323.738101 
L 1083.191654 345.309583 
L 1084.217483 327.730276 
L 1085.243313 357.577657 
L 1086.269142 326.65485 
L 1087.294972 381.431175 
L 1088.320802 318.482341 
L 1089.346631 356.001914 
L 1090.372461 315.290043 
L 1091.39829 352.191782 
L 1092.42412 325.209698 
L 1093.449949 356.484264 
L 1094.475779 313.059435 
L 1095.501609 353.935092 
L 1096.527438 321.948524 
L 1097.553268 357.486693 
L 1098.579097 327.068861 
L 1099.604927 346.595175 
L 1100.630757 323.638538 
L 1101.656586 353.75134 
L 1102.682416 325.620009 
L 1103.708245 353.347979 
L 1104.734075 315.825436 
L 1105.759904 352.10849 
L 1106.785734 318.887721 
L 1107.811564 345.478809 
L 1108.837393 351.474595 
L 1109.863223 365.07864 
L 1110.889052 346.432164 
L 1111.914882 348.844757 
L 1112.940711 314.006019 
L 1113.966541 362.600873 
L 1114.992371 325.813427 
L 1116.0182 349.134288 
L 1117.04403 329.303641 
L 1118.069859 353.702354 
L 1119.095689 322.362382 
L 1120.121519 352.31967 
L 1121.147348 322.646489 
L 1122.173178 383.901766 
L 1123.199007 322.809841 
L 1124.224837 348.028205 
L 1125.250666 323.479788 
L 1126.276496 354.225537 
L 1127.302326 324.993402 
L 1128.328155 352.583692 
L 1129.353985 314.253456 
L 1130.379814 354.672144 
L 1131.405644 316.565118 
L 1132.431473 347.572326 
L 1133.457303 316.180393 
L 1134.483133 355.785673 
L 1135.508962 325.135917 
L 1136.534792 348.207458 
L 1137.560621 346.470254 
L 1138.586451 354.416537 
L 1139.612281 317.94528 
L 1140.63811 348.329104 
L 1141.66394 321.854304 
L 1142.689769 355.750865 
L 1143.715599 321.644311 
L 1144.741428 340.433073 
L 1145.767258 321.13234 
L 1146.793088 352.817081 
L 1147.818917 322.145642 
L 1148.844747 352.715142 
L 1149.870576 316.965489 
L 1150.896406 363.835485 
L 1151.922235 315.023929 
L 1152.948065 346.716947 
L 1153.973895 318.070853 
L 1154.999724 354.403424 
L 1156.025554 323.268441 
L 1157.051383 350.186064 
L 1158.077213 318.342647 
L 1159.103043 353.019162 
L 1160.128872 321.11211 
L 1161.154702 350.502236 
L 1162.180531 321.012499 
L 1163.206361 351.825783 
L 1164.23219 322.699869 
L 1165.25802 343.453618 
L 1166.28385 330.282098 
L 1167.309679 354.685495 
L 1168.335509 315.870162 
L 1169.361338 350.775886 
L 1170.387168 320.003275 
L 1171.412998 356.550251 
L 1172.438827 322.76381 
L 1173.464657 357.375093 
L 1174.490486 319.819616 
L 1175.516316 340.061214 
L 1176.542145 323.795856 
L 1177.567975 346.40602 
L 1178.593805 316.941209 
L 1179.619634 352.947122 
L 1180.645464 312.834269 
L 1181.671293 340.53684 
L 1182.697123 316.378853 
L 1183.722952 337.520104 
L 1184.748782 320.511234 
L 1185.774612 350.51739 
L 1186.800441 317.377187 
L 1187.826271 340.351773 
L 1188.8521 313.344741 
L 1189.87793 350.002411 
L 1190.90376 310.47434 
L 1191.929589 342.645249 
L 1192.955419 310.953697 
L 1193.981248 349.601716 
L 1195.007078 310.68994 
L 1196.032907 347.046356 
L 1197.058737 314.070774 
L 1198.084567 346.588239 
L 1199.110396 315.757712 
L 1200.136226 337.46056 
L 1201.162055 313.281791 
L 1202.187885 342.778683 
L 1203.213714 314.924897 
L 1204.239544 350.477198 
L 1205.265374 308.693666 
L 1206.291203 367.344837 
L 1207.317033 314.038921 
L 1208.342862 360.574135 
L 1209.368692 323.839731 
L 1210.394522 353.753835 
L 1211.420351 333.422343 
L 1212.446181 354.459465 
L 1213.47201 316.961792 
L 1214.49784 344.758775 
L 1215.523669 322.989675 
L 1216.549499 346.853698 
L 1217.575329 326.311607 
L 1218.601158 355.146047 
L 1219.626988 328.64364 
L 1220.652817 348.775465 
L 1221.678647 324.717576 
L 1222.704477 359.401735 
L 1223.730306 322.670458 
L 1224.756136 350.289294 
L 1225.781965 317.589266 
L 1226.807795 355.365329 
L 1227.833624 320.770978 
L 1228.859454 336.161979 
L 1229.885284 317.986787 
L 1230.911113 348.296397 
L 1231.936943 318.152418 
L 1232.962772 347.279653 
L 1233.988602 339.997738 
L 1235.014431 350.903498 
L 1236.040261 337.888837 
L 1237.066091 350.018931 
L 1238.09192 321.364566 
L 1239.11775 354.023315 
L 1240.143579 321.238259 
L 1241.169409 349.320118 
L 1242.195239 316.770492 
L 1243.221068 350.100496 
L 1244.246898 320.672619 
L 1245.272727 346.358808 
L 1245.272727 346.358808 
" style="fill:none;stroke:#ff7f0e;stroke-linecap:square;stroke-width:1.5;"/>
   </g>
   <g id="patch_3">
    <path d="M 180 640.8 
L 180 86.4 
" style="fill:none;stroke:#000000;stroke-linecap:square;stroke-linejoin:miter;stroke-width:0.8;"/>
   </g>
   <g id="patch_4">
    <path d="M 1296 640.8 
L 1296 86.4 
" style="fill:none;stroke:#000000;stroke-linecap:square;stroke-linejoin:miter;stroke-width:0.8;"/>
   </g>
   <g id="patch_5">
    <path d="M 180 640.8 
L 1296 640.8 
" style="fill:none;stroke:#000000;stroke-linecap:square;stroke-linejoin:miter;stroke-width:0.8;"/>
   </g>
   <g id="patch_6">
    <path d="M 180 86.4 
L 1296 86.4 
" style="fill:none;stroke:#000000;stroke-linecap:square;stroke-linejoin:miter;stroke-width:0.8;"/>
   </g>
   <g id="text_20">
    <!-- Money Flow Index (MFI) Speedup -->
    <defs>
     <path d="M 9.8125 72.90625 
L 24.515625 72.90625 
L 43.109375 23.296875 
L 61.8125 72.90625 
L 76.515625 72.90625 
L 76.515625 0 
L 66.890625 0 
L 66.890625 64.015625 
L 48.09375 14.015625 
L 38.1875 14.015625 
L 19.390625 64.015625 
L 19.390625 0 
L 9.8125 0 
z
" id="DejaVuSans-77"/>
     <path d="M 30.609375 48.390625 
Q 23.390625 48.390625 19.1875 42.75 
Q 14.984375 37.109375 14.984375 27.296875 
Q 14.984375 17.484375 19.15625 11.84375 
Q 23.34375 6.203125 30.609375 6.203125 
Q 37.796875 6.203125 41.984375 11.859375 
Q 46.1875 17.53125 46.1875 27.296875 
Q 46.1875 37.015625 41.984375 42.703125 
Q 37.796875 48.390625 30.609375 48.390625 
z
M 30.609375 56 
Q 42.328125 56 49.015625 48.375 
Q 55.71875 40.765625 55.71875 27.296875 
Q 55.71875 13.875 49.015625 6.21875 
Q 42.328125 -1.421875 30.609375 -1.421875 
Q 18.84375 -1.421875 12.171875 6.21875 
Q 5.515625 13.875 5.515625 27.296875 
Q 5.515625 40.765625 12.171875 48.375 
Q 18.84375 56 30.609375 56 
z
" id="DejaVuSans-111"/>
     <path d="M 32.171875 -5.078125 
Q 28.375 -14.84375 24.75 -17.8125 
Q 21.140625 -20.796875 15.09375 -20.796875 
L 7.90625 -20.796875 
L 7.90625 -13.28125 
L 13.1875 -13.28125 
Q 16.890625 -13.28125 18.9375 -11.515625 
Q 21 -9.765625 23.484375 -3.21875 
L 25.09375 0.875 
L 2.984375 54.6875 
L 12.5 54.6875 
L 29.59375 11.921875 
L 46.6875 54.6875 
L 56.203125 54.6875 
z
" id="DejaVuSans-121"/>
     <path id="DejaVuSans-32"/>
     <path d="M 9.8125 72.90625 
L 51.703125 72.90625 
L 51.703125 64.59375 
L 19.671875 64.59375 
L 19.671875 43.109375 
L 48.578125 43.109375 
L 48.578125 34.8125 
L 19.671875 34.8125 
L 19.671875 0 
L 9.8125 0 
z
" id="DejaVuSans-70"/>
     <path d="M 9.421875 75.984375 
L 18.40625 75.984375 
L 18.40625 0 
L 9.421875 0 
z
" id="DejaVuSans-108"/>
     <path d="M 4.203125 54.6875 
L 13.1875 54.6875 
L 24.421875 12.015625 
L 35.59375 54.6875 
L 46.1875 54.6875 
L 57.421875 12.015625 
L 68.609375 54.6875 
L 77.59375 54.6875 
L 63.28125 0 
L 52.6875 0 
L 40.921875 44.828125 
L 29.109375 0 
L 18.5 0 
z
" id="DejaVuSans-119"/>
     <path d="M 9.8125 72.90625 
L 19.671875 72.90625 
L 19.671875 0 
L 9.8125 0 
z
" id="DejaVuSans-73"/>
     <path d="M 54.890625 54.6875 
L 35.109375 28.078125 
L 55.90625 0 
L 45.3125 0 
L 29.390625 21.484375 
L 13.484375 0 
L 2.875 0 
L 24.125 28.609375 
L 4.6875 54.6875 
L 15.28125 54.6875 
L 29.78125 35.203125 
L 44.28125 54.6875 
z
" id="DejaVuSans-120"/>
     <path d="M 31 75.875 
Q 24.46875 64.65625 21.28125 53.65625 
Q 18.109375 42.671875 18.109375 31.390625 
Q 18.109375 20.125 21.3125 9.0625 
Q 24.515625 -2 31 -13.1875 
L 23.1875 -13.1875 
Q 15.875 -1.703125 12.234375 9.375 
Q 8.59375 20.453125 8.59375 31.390625 
Q 8.59375 42.28125 12.203125 53.3125 
Q 15.828125 64.359375 23.1875 75.875 
z
" id="DejaVuSans-40"/>
     <path d="M 8.015625 75.875 
L 15.828125 75.875 
Q 23.140625 64.359375 26.78125 53.3125 
Q 30.421875 42.28125 30.421875 31.390625 
Q 30.421875 20.453125 26.78125 9.375 
Q 23.140625 -1.703125 15.828125 -13.1875 
L 8.015625 -13.1875 
Q 14.5 -2 17.703125 9.0625 
Q 20.90625 20.125 20.90625 31.390625 
Q 20.90625 42.671875 17.703125 53.65625 
Q 14.5 64.65625 8.015625 75.875 
z
" id="DejaVuSans-41"/>
     <path d="M 53.515625 70.515625 
L 53.515625 60.890625 
Q 47.90625 63.578125 42.921875 64.890625 
Q 37.9375 66.21875 33.296875 66.21875 
Q 25.25 66.21875 20.875 63.09375 
Q 16.5 59.96875 16.5 54.203125 
Q 16.5 49.359375 19.40625 46.890625 
Q 22.3125 44.4375 30.421875 42.921875 
L 36.375 41.703125 
Q 47.40625 39.59375 52.65625 34.296875 
Q 57.90625 29 57.90625 20.125 
Q 57.90625 9.515625 50.796875 4.046875 
Q 43.703125 -1.421875 29.984375 -1.421875 
Q 24.8125 -1.421875 18.96875 -0.25 
Q 13.140625 0.921875 6.890625 3.21875 
L 6.890625 13.375 
Q 12.890625 10.015625 18.65625 8.296875 
Q 24.421875 6.59375 29.984375 6.59375 
Q 38.421875 6.59375 43.015625 9.90625 
Q 47.609375 13.234375 47.609375 19.390625 
Q 47.609375 24.75 44.3125 27.78125 
Q 41.015625 30.8125 33.5 32.328125 
L 27.484375 33.5 
Q 16.453125 35.6875 11.515625 40.375 
Q 6.59375 45.0625 6.59375 53.421875 
Q 6.59375 63.09375 13.40625 68.65625 
Q 20.21875 74.21875 32.171875 74.21875 
Q 37.3125 74.21875 42.625 73.28125 
Q 47.953125 72.359375 53.515625 70.515625 
z
" id="DejaVuSans-83"/>
    </defs>
    <g transform="translate(638.760937 80.4)scale(0.12 -0.12)">
     <use xlink:href="#DejaVuSans-77"/>
     <use x="86.279297" xlink:href="#DejaVuSans-111"/>
     <use x="147.460938" xlink:href="#DejaVuSans-110"/>
     <use x="210.839844" xlink:href="#DejaVuSans-101"/>
     <use x="272.363281" xlink:href="#DejaVuSans-121"/>
     <use x="331.542969" xlink:href="#DejaVuSans-32"/>
     <use x="363.330078" xlink:href="#DejaVuSans-70"/>
     <use x="420.849609" xlink:href="#DejaVuSans-108"/>
     <use x="448.632812" xlink:href="#DejaVuSans-111"/>
     <use x="509.814453" xlink:href="#DejaVuSans-119"/>
     <use x="591.601562" xlink:href="#DejaVuSans-32"/>
     <use x="623.388672" xlink:href="#DejaVuSans-73"/>
     <use x="652.880859" xlink:href="#DejaVuSans-110"/>
     <use x="716.259766" xlink:href="#DejaVuSans-100"/>
     <use x="779.736328" xlink:href="#DejaVuSans-101"/>
     <use x="839.509766" xlink:href="#DejaVuSans-120"/>
     <use x="898.689453" xlink:href="#DejaVuSans-32"/>
     <use x="930.476562" xlink:href="#DejaVuSans-40"/>
     <use x="969.490234" xlink:href="#DejaVuSans-77"/>
     <use x="1055.769531" xlink:href="#DejaVuSans-70"/>
     <use x="1113.289062" xlink:href="#DejaVuSans-73"/>
     <use x="1142.78125" xlink:href="#DejaVuSans-41"/>
     <use x="1181.794922" xlink:href="#DejaVuSans-32"/>
     <use x="1213.582031" xlink:href="#DejaVuSans-83"/>
     <use x="1277.058594" xlink:href="#DejaVuSans-112"/>
     <use x="1340.535156" xlink:href="#DejaVuSans-101"/>
     <use x="1402.058594" xlink:href="#DejaVuSans-101"/>
     <use x="1463.582031" xlink:href="#DejaVuSans-100"/>
     <use x="1527.058594" xlink:href="#DejaVuSans-117"/>
     <use x="1590.4375" xlink:href="#DejaVuSans-112"/>
    </g>
   </g>
   <g id="legend_1">
    <g id="patch_7">
     <path d="M 1185.373437 123.75625 
L 1289 123.75625 
Q 1291 123.75625 1291 121.75625 
L 1291 93.4 
Q 1291 91.4 1289 91.4 
L 1185.373437 91.4 
Q 1183.373437 91.4 1183.373437 93.4 
L 1183.373437 121.75625 
Q 1183.373437 123.75625 1185.373437 123.75625 
z
" style="fill:#ffffff;opacity:0.8;stroke:#cccccc;stroke-linejoin:miter;"/>
    </g>
    <g id="line2d_20">
     <path d="M 1187.373437 99.498437 
L 1207.373437 99.498437 
" style="fill:none;stroke:#1f77b4;stroke-linecap:square;stroke-width:1.5;"/>
    </g>
    <g id="line2d_21"/>
    <g id="text_21">
     <!-- numpy.float32 -->
     <defs>
      <path d="M 52 44.1875 
Q 55.375 50.25 60.0625 53.125 
Q 64.75 56 71.09375 56 
Q 79.640625 56 84.28125 50.015625 
Q 88.921875 44.046875 88.921875 33.015625 
L 88.921875 0 
L 79.890625 0 
L 79.890625 32.71875 
Q 79.890625 40.578125 77.09375 44.375 
Q 74.3125 48.1875 68.609375 48.1875 
Q 61.625 48.1875 57.5625 43.546875 
Q 53.515625 38.921875 53.515625 30.90625 
L 53.515625 0 
L 44.484375 0 
L 44.484375 32.71875 
Q 44.484375 40.625 41.703125 44.40625 
Q 38.921875 48.1875 33.109375 48.1875 
Q 26.21875 48.1875 22.15625 43.53125 
Q 18.109375 38.875 18.109375 30.90625 
L 18.109375 0 
L 9.078125 0 
L 9.078125 54.6875 
L 18.109375 54.6875 
L 18.109375 46.1875 
Q 21.1875 51.21875 25.484375 53.609375 
Q 29.78125 56 35.6875 56 
Q 41.65625 56 45.828125 52.96875 
Q 50 49.953125 52 44.1875 
z
" id="DejaVuSans-109"/>
      <path d="M 37.109375 75.984375 
L 37.109375 68.5 
L 28.515625 68.5 
Q 23.6875 68.5 21.796875 66.546875 
Q 19.921875 64.59375 19.921875 59.515625 
L 19.921875 54.6875 
L 34.71875 54.6875 
L 34.71875 47.703125 
L 19.921875 47.703125 
L 19.921875 0 
L 10.890625 0 
L 10.890625 47.703125 
L 2.296875 47.703125 
L 2.296875 54.6875 
L 10.890625 54.6875 
L 10.890625 58.5 
Q 10.890625 67.625 15.140625 71.796875 
Q 19.390625 75.984375 28.609375 75.984375 
z
" id="DejaVuSans-102"/>
      <path d="M 34.28125 27.484375 
Q 23.390625 27.484375 19.1875 25 
Q 14.984375 22.515625 14.984375 16.5 
Q 14.984375 11.71875 18.140625 8.90625 
Q 21.296875 6.109375 26.703125 6.109375 
Q 34.1875 6.109375 38.703125 11.40625 
Q 43.21875 16.703125 43.21875 25.484375 
L 43.21875 27.484375 
z
M 52.203125 31.203125 
L 52.203125 0 
L 43.21875 0 
L 43.21875 8.296875 
Q 40.140625 3.328125 35.546875 0.953125 
Q 30.953125 -1.421875 24.3125 -1.421875 
Q 15.921875 -1.421875 10.953125 3.296875 
Q 6 8.015625 6 15.921875 
Q 6 25.140625 12.171875 29.828125 
Q 18.359375 34.515625 30.609375 34.515625 
L 43.21875 34.515625 
L 43.21875 35.40625 
Q 43.21875 41.609375 39.140625 45 
Q 35.0625 48.390625 27.6875 48.390625 
Q 23 48.390625 18.546875 47.265625 
Q 14.109375 46.140625 10.015625 43.890625 
L 10.015625 52.203125 
Q 14.9375 54.109375 19.578125 55.046875 
Q 24.21875 56 28.609375 56 
Q 40.484375 56 46.34375 49.84375 
Q 52.203125 43.703125 52.203125 31.203125 
z
" id="DejaVuSans-97"/>
      <path d="M 18.3125 70.21875 
L 18.3125 54.6875 
L 36.8125 54.6875 
L 36.8125 47.703125 
L 18.3125 47.703125 
L 18.3125 18.015625 
Q 18.3125 11.328125 20.140625 9.421875 
Q 21.96875 7.515625 27.59375 7.515625 
L 36.8125 7.515625 
L 36.8125 0 
L 27.59375 0 
Q 17.1875 0 13.234375 3.875 
Q 9.28125 7.765625 9.28125 18.015625 
L 9.28125 47.703125 
L 2.6875 47.703125 
L 2.6875 54.6875 
L 9.28125 54.6875 
L 9.28125 70.21875 
z
" id="DejaVuSans-116"/>
     </defs>
     <g transform="translate(1215.373437 102.998437)scale(0.1 -0.1)">
      <use xlink:href="#DejaVuSans-110"/>
      <use x="63.378906" xlink:href="#DejaVuSans-117"/>
      <use x="126.757812" xlink:href="#DejaVuSans-109"/>
      <use x="224.169922" xlink:href="#DejaVuSans-112"/>
      <use x="287.646484" xlink:href="#DejaVuSans-121"/>
      <use x="332.576172" xlink:href="#DejaVuSans-46"/>
      <use x="364.363281" xlink:href="#DejaVuSans-102"/>
      <use x="399.568359" xlink:href="#DejaVuSans-108"/>
      <use x="427.351562" xlink:href="#DejaVuSans-111"/>
      <use x="488.533203" xlink:href="#DejaVuSans-97"/>
      <use x="549.8125" xlink:href="#DejaVuSans-116"/>
      <use x="589.021484" xlink:href="#DejaVuSans-51"/>
      <use x="652.644531" xlink:href="#DejaVuSans-50"/>
     </g>
    </g>
    <g id="line2d_22">
     <path d="M 1187.373437 114.176562 
L 1207.373437 114.176562 
" style="fill:none;stroke:#ff7f0e;stroke-linecap:square;stroke-width:1.5;"/>
    </g>
    <g id="line2d_23"/>
    <g id="text_22">
     <!-- numpy.float64 -->
     <g transform="translate(1215.373437 117.676562)scale(0.1 -0.1)">
      <use xlink:href="#DejaVuSans-110"/>
      <use x="63.378906" xlink:href="#DejaVuSans-117"/>
      <use x="126.757812" xlink:href="#DejaVuSans-109"/>
      <use x="224.169922" xlink:href="#DejaVuSans-112"/>
      <use x="287.646484" xlink:href="#DejaVuSans-121"/>
      <use x="332.576172" xlink:href="#DejaVuSans-46"/>
      <use x="364.363281" xlink:href="#DejaVuSans-102"/>
      <use x="399.568359" xlink:href="#DejaVuSans-108"/>
      <use x="427.351562" xlink:href="#DejaVuSans-111"/>
      <use x="488.533203" xlink:href="#DejaVuSans-97"/>
      <use x="549.8125" xlink:href="#DejaVuSans-116"/>
      <use x="589.021484" xlink:href="#DejaVuSans-54"/>
      <use x="652.644531" xlink:href="#DejaVuSans-52"/>
     </g>
    </g>
   </g>
  </g>
 </g>
 <defs>
  <clipPath id="p934133afb4">
   <rect height="554.4" width="1116" x="180" y="86.4"/>
  </clipPath>
 </defs>
</svg>
