<?xml version="1.0" encoding="utf-8" standalone="no"?>
<!DOCTYPE svg PUBLIC "-//W3C//DTD SVG 1.1//EN"
  "http://www.w3.org/Graphics/SVG/1.1/DTD/svg11.dtd">
<!-- Created with matplotlib (https://matplotlib.org/) -->
<svg height="720pt" version="1.1" viewBox="0 0 1440 720" width="1440pt" xmlns="http://www.w3.org/2000/svg" xmlns:xlink="http://www.w3.org/1999/xlink">
 <defs>
  <style type="text/css">
*{stroke-linecap:butt;stroke-linejoin:round;}
  </style>
 </defs>
 <g id="figure_1">
  <g id="patch_1">
   <path d="M 0 720 
L 1440 720 
L 1440 0 
L 0 0 
z
" style="fill:#ffffff;"/>
  </g>
  <g id="axes_1">
   <g id="patch_2">
    <path d="M 180 640.8 
L 1296 640.8 
L 1296 86.4 
L 180 86.4 
z
" style="fill:#ffffff;"/>
   </g>
   <g id="matplotlib.axis_1">
    <g id="xtick_1">
     <g id="line2d_1">
      <defs>
       <path d="M 0 0 
L 0 3.5 
" id="m3b7f844b7b" style="stroke:#000000;stroke-width:0.8;"/>
      </defs>
      <g>
       <use style="stroke:#000000;stroke-width:0.8;" x="333.310231" xlink:href="#m3b7f844b7b" y="640.8"/>
      </g>
     </g>
     <g id="text_1">
      <!-- 100.0 -->
      <defs>
       <path d="M 12.40625 8.296875 
L 28.515625 8.296875 
L 28.515625 63.921875 
L 10.984375 60.40625 
L 10.984375 69.390625 
L 28.421875 72.90625 
L 38.28125 72.90625 
L 38.28125 8.296875 
L 54.390625 8.296875 
L 54.390625 0 
L 12.40625 0 
z
" id="DejaVuSans-49"/>
       <path d="M 31.78125 66.40625 
Q 24.171875 66.40625 20.328125 58.90625 
Q 16.5 51.421875 16.5 36.375 
Q 16.5 21.390625 20.328125 13.890625 
Q 24.171875 6.390625 31.78125 6.390625 
Q 39.453125 6.390625 43.28125 13.890625 
Q 47.125 21.390625 47.125 36.375 
Q 47.125 51.421875 43.28125 58.90625 
Q 39.453125 66.40625 31.78125 66.40625 
z
M 31.78125 74.21875 
Q 44.046875 74.21875 50.515625 64.515625 
Q 56.984375 54.828125 56.984375 36.375 
Q 56.984375 17.96875 50.515625 8.265625 
Q 44.046875 -1.421875 31.78125 -1.421875 
Q 19.53125 -1.421875 13.0625 8.265625 
Q 6.59375 17.96875 6.59375 36.375 
Q 6.59375 54.828125 13.0625 64.515625 
Q 19.53125 74.21875 31.78125 74.21875 
z
" id="DejaVuSans-48"/>
       <path d="M 10.6875 12.40625 
L 21 12.40625 
L 21 0 
L 10.6875 0 
z
" id="DejaVuSans-46"/>
      </defs>
      <g transform="translate(318.996168 655.398438)scale(0.1 -0.1)">
       <use xlink:href="#DejaVuSans-49"/>
       <use x="63.623047" xlink:href="#DejaVuSans-48"/>
       <use x="127.246094" xlink:href="#DejaVuSans-48"/>
       <use x="190.869141" xlink:href="#DejaVuSans-46"/>
       <use x="222.65625" xlink:href="#DejaVuSans-48"/>
      </g>
     </g>
    </g>
    <g id="xtick_2">
     <g id="line2d_2">
      <g>
       <use style="stroke:#000000;stroke-width:0.8;" x="435.893189" xlink:href="#m3b7f844b7b" y="640.8"/>
      </g>
     </g>
     <g id="text_2">
      <!-- 200.0 -->
      <defs>
       <path d="M 19.1875 8.296875 
L 53.609375 8.296875 
L 53.609375 0 
L 7.328125 0 
L 7.328125 8.296875 
Q 12.9375 14.109375 22.625 23.890625 
Q 32.328125 33.6875 34.8125 36.53125 
Q 39.546875 41.84375 41.421875 45.53125 
Q 43.3125 49.21875 43.3125 52.78125 
Q 43.3125 58.59375 39.234375 62.25 
Q 35.15625 65.921875 28.609375 65.921875 
Q 23.96875 65.921875 18.8125 64.3125 
Q 13.671875 62.703125 7.8125 59.421875 
L 7.8125 69.390625 
Q 13.765625 71.78125 18.9375 73 
Q 24.125 74.21875 28.421875 74.21875 
Q 39.75 74.21875 46.484375 68.546875 
Q 53.21875 62.890625 53.21875 53.421875 
Q 53.21875 48.921875 51.53125 44.890625 
Q 49.859375 40.875 45.40625 35.40625 
Q 44.1875 33.984375 37.640625 27.21875 
Q 31.109375 20.453125 19.1875 8.296875 
z
" id="DejaVuSans-50"/>
      </defs>
      <g transform="translate(421.579126 655.398438)scale(0.1 -0.1)">
       <use xlink:href="#DejaVuSans-50"/>
       <use x="63.623047" xlink:href="#DejaVuSans-48"/>
       <use x="127.246094" xlink:href="#DejaVuSans-48"/>
       <use x="190.869141" xlink:href="#DejaVuSans-46"/>
       <use x="222.65625" xlink:href="#DejaVuSans-48"/>
      </g>
     </g>
    </g>
    <g id="xtick_3">
     <g id="line2d_3">
      <g>
       <use style="stroke:#000000;stroke-width:0.8;" x="538.476147" xlink:href="#m3b7f844b7b" y="640.8"/>
      </g>
     </g>
     <g id="text_3">
      <!-- 300.0 -->
      <defs>
       <path d="M 40.578125 39.3125 
Q 47.65625 37.796875 51.625 33 
Q 55.609375 28.21875 55.609375 21.1875 
Q 55.609375 10.40625 48.1875 4.484375 
Q 40.765625 -1.421875 27.09375 -1.421875 
Q 22.515625 -1.421875 17.65625 -0.515625 
Q 12.796875 0.390625 7.625 2.203125 
L 7.625 11.71875 
Q 11.71875 9.328125 16.59375 8.109375 
Q 21.484375 6.890625 26.8125 6.890625 
Q 36.078125 6.890625 40.9375 10.546875 
Q 45.796875 14.203125 45.796875 21.1875 
Q 45.796875 27.640625 41.28125 31.265625 
Q 36.765625 34.90625 28.71875 34.90625 
L 20.21875 34.90625 
L 20.21875 43.015625 
L 29.109375 43.015625 
Q 36.375 43.015625 40.234375 45.921875 
Q 44.09375 48.828125 44.09375 54.296875 
Q 44.09375 59.90625 40.109375 62.90625 
Q 36.140625 65.921875 28.71875 65.921875 
Q 24.65625 65.921875 20.015625 65.03125 
Q 15.375 64.15625 9.8125 62.3125 
L 9.8125 71.09375 
Q 15.4375 72.65625 20.34375 73.4375 
Q 25.25 74.21875 29.59375 74.21875 
Q 40.828125 74.21875 47.359375 69.109375 
Q 53.90625 64.015625 53.90625 55.328125 
Q 53.90625 49.265625 50.4375 45.09375 
Q 46.96875 40.921875 40.578125 39.3125 
z
" id="DejaVuSans-51"/>
      </defs>
      <g transform="translate(524.162084 655.398438)scale(0.1 -0.1)">
       <use xlink:href="#DejaVuSans-51"/>
       <use x="63.623047" xlink:href="#DejaVuSans-48"/>
       <use x="127.246094" xlink:href="#DejaVuSans-48"/>
       <use x="190.869141" xlink:href="#DejaVuSans-46"/>
       <use x="222.65625" xlink:href="#DejaVuSans-48"/>
      </g>
     </g>
    </g>
    <g id="xtick_4">
     <g id="line2d_4">
      <g>
       <use style="stroke:#000000;stroke-width:0.8;" x="641.059105" xlink:href="#m3b7f844b7b" y="640.8"/>
      </g>
     </g>
     <g id="text_4">
      <!-- 400.0 -->
      <defs>
       <path d="M 37.796875 64.3125 
L 12.890625 25.390625 
L 37.796875 25.390625 
z
M 35.203125 72.90625 
L 47.609375 72.90625 
L 47.609375 25.390625 
L 58.015625 25.390625 
L 58.015625 17.1875 
L 47.609375 17.1875 
L 47.609375 0 
L 37.796875 0 
L 37.796875 17.1875 
L 4.890625 17.1875 
L 4.890625 26.703125 
z
" id="DejaVuSans-52"/>
      </defs>
      <g transform="translate(626.745042 655.398438)scale(0.1 -0.1)">
       <use xlink:href="#DejaVuSans-52"/>
       <use x="63.623047" xlink:href="#DejaVuSans-48"/>
       <use x="127.246094" xlink:href="#DejaVuSans-48"/>
       <use x="190.869141" xlink:href="#DejaVuSans-46"/>
       <use x="222.65625" xlink:href="#DejaVuSans-48"/>
      </g>
     </g>
    </g>
    <g id="xtick_5">
     <g id="line2d_5">
      <g>
       <use style="stroke:#000000;stroke-width:0.8;" x="743.642063" xlink:href="#m3b7f844b7b" y="640.8"/>
      </g>
     </g>
     <g id="text_5">
      <!-- 500.0 -->
      <defs>
       <path d="M 10.796875 72.90625 
L 49.515625 72.90625 
L 49.515625 64.59375 
L 19.828125 64.59375 
L 19.828125 46.734375 
Q 21.96875 47.46875 24.109375 47.828125 
Q 26.265625 48.1875 28.421875 48.1875 
Q 40.625 48.1875 47.75 41.5 
Q 54.890625 34.8125 54.890625 23.390625 
Q 54.890625 11.625 47.5625 5.09375 
Q 40.234375 -1.421875 26.90625 -1.421875 
Q 22.3125 -1.421875 17.546875 -0.640625 
Q 12.796875 0.140625 7.71875 1.703125 
L 7.71875 11.625 
Q 12.109375 9.234375 16.796875 8.0625 
Q 21.484375 6.890625 26.703125 6.890625 
Q 35.15625 6.890625 40.078125 11.328125 
Q 45.015625 15.765625 45.015625 23.390625 
Q 45.015625 31 40.078125 35.4375 
Q 35.15625 39.890625 26.703125 39.890625 
Q 22.75 39.890625 18.8125 39.015625 
Q 14.890625 38.140625 10.796875 36.28125 
z
" id="DejaVuSans-53"/>
      </defs>
      <g transform="translate(729.328 655.398438)scale(0.1 -0.1)">
       <use xlink:href="#DejaVuSans-53"/>
       <use x="63.623047" xlink:href="#DejaVuSans-48"/>
       <use x="127.246094" xlink:href="#DejaVuSans-48"/>
       <use x="190.869141" xlink:href="#DejaVuSans-46"/>
       <use x="222.65625" xlink:href="#DejaVuSans-48"/>
      </g>
     </g>
    </g>
    <g id="xtick_6">
     <g id="line2d_6">
      <g>
       <use style="stroke:#000000;stroke-width:0.8;" x="846.225021" xlink:href="#m3b7f844b7b" y="640.8"/>
      </g>
     </g>
     <g id="text_6">
      <!-- 600.0 -->
      <defs>
       <path d="M 33.015625 40.375 
Q 26.375 40.375 22.484375 35.828125 
Q 18.609375 31.296875 18.609375 23.390625 
Q 18.609375 15.53125 22.484375 10.953125 
Q 26.375 6.390625 33.015625 6.390625 
Q 39.65625 6.390625 43.53125 10.953125 
Q 47.40625 15.53125 47.40625 23.390625 
Q 47.40625 31.296875 43.53125 35.828125 
Q 39.65625 40.375 33.015625 40.375 
z
M 52.59375 71.296875 
L 52.59375 62.3125 
Q 48.875 64.0625 45.09375 64.984375 
Q 41.3125 65.921875 37.59375 65.921875 
Q 27.828125 65.921875 22.671875 59.328125 
Q 17.53125 52.734375 16.796875 39.40625 
Q 19.671875 43.65625 24.015625 45.921875 
Q 28.375 48.1875 33.59375 48.1875 
Q 44.578125 48.1875 50.953125 41.515625 
Q 57.328125 34.859375 57.328125 23.390625 
Q 57.328125 12.15625 50.6875 5.359375 
Q 44.046875 -1.421875 33.015625 -1.421875 
Q 20.359375 -1.421875 13.671875 8.265625 
Q 6.984375 17.96875 6.984375 36.375 
Q 6.984375 53.65625 15.1875 63.9375 
Q 23.390625 74.21875 37.203125 74.21875 
Q 40.921875 74.21875 44.703125 73.484375 
Q 48.484375 72.75 52.59375 71.296875 
z
" id="DejaVuSans-54"/>
      </defs>
      <g transform="translate(831.910958 655.398438)scale(0.1 -0.1)">
       <use xlink:href="#DejaVuSans-54"/>
       <use x="63.623047" xlink:href="#DejaVuSans-48"/>
       <use x="127.246094" xlink:href="#DejaVuSans-48"/>
       <use x="190.869141" xlink:href="#DejaVuSans-46"/>
       <use x="222.65625" xlink:href="#DejaVuSans-48"/>
      </g>
     </g>
    </g>
    <g id="xtick_7">
     <g id="line2d_7">
      <g>
       <use style="stroke:#000000;stroke-width:0.8;" x="948.807979" xlink:href="#m3b7f844b7b" y="640.8"/>
      </g>
     </g>
     <g id="text_7">
      <!-- 700.0 -->
      <defs>
       <path d="M 8.203125 72.90625 
L 55.078125 72.90625 
L 55.078125 68.703125 
L 28.609375 0 
L 18.3125 0 
L 43.21875 64.59375 
L 8.203125 64.59375 
z
" id="DejaVuSans-55"/>
      </defs>
      <g transform="translate(934.493916 655.398438)scale(0.1 -0.1)">
       <use xlink:href="#DejaVuSans-55"/>
       <use x="63.623047" xlink:href="#DejaVuSans-48"/>
       <use x="127.246094" xlink:href="#DejaVuSans-48"/>
       <use x="190.869141" xlink:href="#DejaVuSans-46"/>
       <use x="222.65625" xlink:href="#DejaVuSans-48"/>
      </g>
     </g>
    </g>
    <g id="xtick_8">
     <g id="line2d_8">
      <g>
       <use style="stroke:#000000;stroke-width:0.8;" x="1051.390937" xlink:href="#m3b7f844b7b" y="640.8"/>
      </g>
     </g>
     <g id="text_8">
      <!-- 800.0 -->
      <defs>
       <path d="M 31.78125 34.625 
Q 24.75 34.625 20.71875 30.859375 
Q 16.703125 27.09375 16.703125 20.515625 
Q 16.703125 13.921875 20.71875 10.15625 
Q 24.75 6.390625 31.78125 6.390625 
Q 38.8125 6.390625 42.859375 10.171875 
Q 46.921875 13.96875 46.921875 20.515625 
Q 46.921875 27.09375 42.890625 30.859375 
Q 38.875 34.625 31.78125 34.625 
z
M 21.921875 38.8125 
Q 15.578125 40.375 12.03125 44.71875 
Q 8.5 49.078125 8.5 55.328125 
Q 8.5 64.0625 14.71875 69.140625 
Q 20.953125 74.21875 31.78125 74.21875 
Q 42.671875 74.21875 48.875 69.140625 
Q 55.078125 64.0625 55.078125 55.328125 
Q 55.078125 49.078125 51.53125 44.71875 
Q 48 40.375 41.703125 38.8125 
Q 48.828125 37.15625 52.796875 32.3125 
Q 56.78125 27.484375 56.78125 20.515625 
Q 56.78125 9.90625 50.3125 4.234375 
Q 43.84375 -1.421875 31.78125 -1.421875 
Q 19.734375 -1.421875 13.25 4.234375 
Q 6.78125 9.90625 6.78125 20.515625 
Q 6.78125 27.484375 10.78125 32.3125 
Q 14.796875 37.15625 21.921875 38.8125 
z
M 18.3125 54.390625 
Q 18.3125 48.734375 21.84375 45.5625 
Q 25.390625 42.390625 31.78125 42.390625 
Q 38.140625 42.390625 41.71875 45.5625 
Q 45.3125 48.734375 45.3125 54.390625 
Q 45.3125 60.0625 41.71875 63.234375 
Q 38.140625 66.40625 31.78125 66.40625 
Q 25.390625 66.40625 21.84375 63.234375 
Q 18.3125 60.0625 18.3125 54.390625 
z
" id="DejaVuSans-56"/>
      </defs>
      <g transform="translate(1037.076874 655.398438)scale(0.1 -0.1)">
       <use xlink:href="#DejaVuSans-56"/>
       <use x="63.623047" xlink:href="#DejaVuSans-48"/>
       <use x="127.246094" xlink:href="#DejaVuSans-48"/>
       <use x="190.869141" xlink:href="#DejaVuSans-46"/>
       <use x="222.65625" xlink:href="#DejaVuSans-48"/>
      </g>
     </g>
    </g>
    <g id="xtick_9">
     <g id="line2d_9">
      <g>
       <use style="stroke:#000000;stroke-width:0.8;" x="1153.973895" xlink:href="#m3b7f844b7b" y="640.8"/>
      </g>
     </g>
     <g id="text_9">
      <!-- 900.0 -->
      <defs>
       <path d="M 10.984375 1.515625 
L 10.984375 10.5 
Q 14.703125 8.734375 18.5 7.8125 
Q 22.3125 6.890625 25.984375 6.890625 
Q 35.75 6.890625 40.890625 13.453125 
Q 46.046875 20.015625 46.78125 33.40625 
Q 43.953125 29.203125 39.59375 26.953125 
Q 35.25 24.703125 29.984375 24.703125 
Q 19.046875 24.703125 12.671875 31.3125 
Q 6.296875 37.9375 6.296875 49.421875 
Q 6.296875 60.640625 12.9375 67.421875 
Q 19.578125 74.21875 30.609375 74.21875 
Q 43.265625 74.21875 49.921875 64.515625 
Q 56.59375 54.828125 56.59375 36.375 
Q 56.59375 19.140625 48.40625 8.859375 
Q 40.234375 -1.421875 26.421875 -1.421875 
Q 22.703125 -1.421875 18.890625 -0.6875 
Q 15.09375 0.046875 10.984375 1.515625 
z
M 30.609375 32.421875 
Q 37.25 32.421875 41.125 36.953125 
Q 45.015625 41.5 45.015625 49.421875 
Q 45.015625 57.28125 41.125 61.84375 
Q 37.25 66.40625 30.609375 66.40625 
Q 23.96875 66.40625 20.09375 61.84375 
Q 16.21875 57.28125 16.21875 49.421875 
Q 16.21875 41.5 20.09375 36.953125 
Q 23.96875 32.421875 30.609375 32.421875 
z
" id="DejaVuSans-57"/>
      </defs>
      <g transform="translate(1139.659832 655.398438)scale(0.1 -0.1)">
       <use xlink:href="#DejaVuSans-57"/>
       <use x="63.623047" xlink:href="#DejaVuSans-48"/>
       <use x="127.246094" xlink:href="#DejaVuSans-48"/>
       <use x="190.869141" xlink:href="#DejaVuSans-46"/>
       <use x="222.65625" xlink:href="#DejaVuSans-48"/>
      </g>
     </g>
    </g>
    <g id="xtick_10">
     <g id="line2d_10">
      <g>
       <use style="stroke:#000000;stroke-width:0.8;" x="1256.556853" xlink:href="#m3b7f844b7b" y="640.8"/>
      </g>
     </g>
     <g id="text_10">
      <!-- 1000.0 -->
      <g transform="translate(1239.06154 655.398438)scale(0.1 -0.1)">
       <use xlink:href="#DejaVuSans-49"/>
       <use x="63.623047" xlink:href="#DejaVuSans-48"/>
       <use x="127.246094" xlink:href="#DejaVuSans-48"/>
       <use x="190.869141" xlink:href="#DejaVuSans-48"/>
       <use x="254.492188" xlink:href="#DejaVuSans-46"/>
       <use x="286.279297" xlink:href="#DejaVuSans-48"/>
      </g>
     </g>
    </g>
    <g id="text_11">
     <!-- n -->
     <defs>
      <path d="M 54.890625 33.015625 
L 54.890625 0 
L 45.90625 0 
L 45.90625 32.71875 
Q 45.90625 40.484375 42.875 44.328125 
Q 39.84375 48.1875 33.796875 48.1875 
Q 26.515625 48.1875 22.3125 43.546875 
Q 18.109375 38.921875 18.109375 30.90625 
L 18.109375 0 
L 9.078125 0 
L 9.078125 54.6875 
L 18.109375 54.6875 
L 18.109375 46.1875 
Q 21.34375 51.125 25.703125 53.5625 
Q 30.078125 56 35.796875 56 
Q 45.21875 56 50.046875 50.171875 
Q 54.890625 44.34375 54.890625 33.015625 
z
" id="DejaVuSans-110"/>
     </defs>
     <g transform="translate(734.83125 669.076563)scale(0.1 -0.1)">
      <use xlink:href="#DejaVuSans-110"/>
     </g>
    </g>
   </g>
   <g id="matplotlib.axis_2">
    <g id="ytick_1">
     <g id="line2d_11">
      <defs>
       <path d="M 0 0 
L -3.5 0 
" id="m8d328a6aeb" style="stroke:#000000;stroke-width:0.8;"/>
      </defs>
      <g>
       <use style="stroke:#000000;stroke-width:0.8;" x="180" xlink:href="#m8d328a6aeb" y="636.345869"/>
      </g>
     </g>
     <g id="text_12">
      <!-- 0 -->
      <g transform="translate(166.6375 640.145088)scale(0.1 -0.1)">
       <use xlink:href="#DejaVuSans-48"/>
      </g>
     </g>
    </g>
    <g id="ytick_2">
     <g id="line2d_12">
      <g>
       <use style="stroke:#000000;stroke-width:0.8;" x="180" xlink:href="#m8d328a6aeb" y="513.264714"/>
      </g>
     </g>
     <g id="text_13">
      <!-- 10000 -->
      <g transform="translate(141.1875 517.063933)scale(0.1 -0.1)">
       <use xlink:href="#DejaVuSans-49"/>
       <use x="63.623047" xlink:href="#DejaVuSans-48"/>
       <use x="127.246094" xlink:href="#DejaVuSans-48"/>
       <use x="190.869141" xlink:href="#DejaVuSans-48"/>
       <use x="254.492188" xlink:href="#DejaVuSans-48"/>
      </g>
     </g>
    </g>
    <g id="ytick_3">
     <g id="line2d_13">
      <g>
       <use style="stroke:#000000;stroke-width:0.8;" x="180" xlink:href="#m8d328a6aeb" y="390.183559"/>
      </g>
     </g>
     <g id="text_14">
      <!-- 20000 -->
      <g transform="translate(141.1875 393.982777)scale(0.1 -0.1)">
       <use xlink:href="#DejaVuSans-50"/>
       <use x="63.623047" xlink:href="#DejaVuSans-48"/>
       <use x="127.246094" xlink:href="#DejaVuSans-48"/>
       <use x="190.869141" xlink:href="#DejaVuSans-48"/>
       <use x="254.492188" xlink:href="#DejaVuSans-48"/>
      </g>
     </g>
    </g>
    <g id="ytick_4">
     <g id="line2d_14">
      <g>
       <use style="stroke:#000000;stroke-width:0.8;" x="180" xlink:href="#m8d328a6aeb" y="267.102403"/>
      </g>
     </g>
     <g id="text_15">
      <!-- 30000 -->
      <g transform="translate(141.1875 270.901622)scale(0.1 -0.1)">
       <use xlink:href="#DejaVuSans-51"/>
       <use x="63.623047" xlink:href="#DejaVuSans-48"/>
       <use x="127.246094" xlink:href="#DejaVuSans-48"/>
       <use x="190.869141" xlink:href="#DejaVuSans-48"/>
       <use x="254.492188" xlink:href="#DejaVuSans-48"/>
      </g>
     </g>
    </g>
    <g id="ytick_5">
     <g id="line2d_15">
      <g>
       <use style="stroke:#000000;stroke-width:0.8;" x="180" xlink:href="#m8d328a6aeb" y="144.021248"/>
      </g>
     </g>
     <g id="text_16">
      <!-- 40000 -->
      <g transform="translate(141.1875 147.820467)scale(0.1 -0.1)">
       <use xlink:href="#DejaVuSans-52"/>
       <use x="63.623047" xlink:href="#DejaVuSans-48"/>
       <use x="127.246094" xlink:href="#DejaVuSans-48"/>
       <use x="190.869141" xlink:href="#DejaVuSans-48"/>
       <use x="254.492188" xlink:href="#DejaVuSans-48"/>
      </g>
     </g>
    </g>
    <g id="text_17">
     <!-- speedup -->
     <defs>
      <path d="M 44.28125 53.078125 
L 44.28125 44.578125 
Q 40.484375 46.53125 36.375 47.5 
Q 32.28125 48.484375 27.875 48.484375 
Q 21.1875 48.484375 17.84375 46.4375 
Q 14.5 44.390625 14.5 40.28125 
Q 14.5 37.15625 16.890625 35.375 
Q 19.28125 33.59375 26.515625 31.984375 
L 29.59375 31.296875 
Q 39.15625 29.25 43.1875 25.515625 
Q 47.21875 21.78125 47.21875 15.09375 
Q 47.21875 7.46875 41.1875 3.015625 
Q 35.15625 -1.421875 24.609375 -1.421875 
Q 20.21875 -1.421875 15.453125 -0.5625 
Q 10.6875 0.296875 5.421875 2 
L 5.421875 11.28125 
Q 10.40625 8.6875 15.234375 7.390625 
Q 20.0625 6.109375 24.8125 6.109375 
Q 31.15625 6.109375 34.5625 8.28125 
Q 37.984375 10.453125 37.984375 14.40625 
Q 37.984375 18.0625 35.515625 20.015625 
Q 33.0625 21.96875 24.703125 23.78125 
L 21.578125 24.515625 
Q 13.234375 26.265625 9.515625 29.90625 
Q 5.8125 33.546875 5.8125 39.890625 
Q 5.8125 47.609375 11.28125 51.796875 
Q 16.75 56 26.8125 56 
Q 31.78125 56 36.171875 55.265625 
Q 40.578125 54.546875 44.28125 53.078125 
z
" id="DejaVuSans-115"/>
      <path d="M 18.109375 8.203125 
L 18.109375 -20.796875 
L 9.078125 -20.796875 
L 9.078125 54.6875 
L 18.109375 54.6875 
L 18.109375 46.390625 
Q 20.953125 51.265625 25.265625 53.625 
Q 29.59375 56 35.59375 56 
Q 45.5625 56 51.78125 48.09375 
Q 58.015625 40.1875 58.015625 27.296875 
Q 58.015625 14.40625 51.78125 6.484375 
Q 45.5625 -1.421875 35.59375 -1.421875 
Q 29.59375 -1.421875 25.265625 0.953125 
Q 20.953125 3.328125 18.109375 8.203125 
z
M 48.6875 27.296875 
Q 48.6875 37.203125 44.609375 42.84375 
Q 40.53125 48.484375 33.40625 48.484375 
Q 26.265625 48.484375 22.1875 42.84375 
Q 18.109375 37.203125 18.109375 27.296875 
Q 18.109375 17.390625 22.1875 11.75 
Q 26.265625 6.109375 33.40625 6.109375 
Q 40.53125 6.109375 44.609375 11.75 
Q 48.6875 17.390625 48.6875 27.296875 
z
" id="DejaVuSans-112"/>
      <path d="M 56.203125 29.59375 
L 56.203125 25.203125 
L 14.890625 25.203125 
Q 15.484375 15.921875 20.484375 11.0625 
Q 25.484375 6.203125 34.421875 6.203125 
Q 39.59375 6.203125 44.453125 7.46875 
Q 49.3125 8.734375 54.109375 11.28125 
L 54.109375 2.78125 
Q 49.265625 0.734375 44.1875 -0.34375 
Q 39.109375 -1.421875 33.890625 -1.421875 
Q 20.796875 -1.421875 13.15625 6.1875 
Q 5.515625 13.8125 5.515625 26.8125 
Q 5.515625 40.234375 12.765625 48.109375 
Q 20.015625 56 32.328125 56 
Q 43.359375 56 49.78125 48.890625 
Q 56.203125 41.796875 56.203125 29.59375 
z
M 47.21875 32.234375 
Q 47.125 39.59375 43.09375 43.984375 
Q 39.0625 48.390625 32.421875 48.390625 
Q 24.90625 48.390625 20.390625 44.140625 
Q 15.875 39.890625 15.1875 32.171875 
z
" id="DejaVuSans-101"/>
      <path d="M 45.40625 46.390625 
L 45.40625 75.984375 
L 54.390625 75.984375 
L 54.390625 0 
L 45.40625 0 
L 45.40625 8.203125 
Q 42.578125 3.328125 38.25 0.953125 
Q 33.9375 -1.421875 27.875 -1.421875 
Q 17.96875 -1.421875 11.734375 6.484375 
Q 5.515625 14.40625 5.515625 27.296875 
Q 5.515625 40.1875 11.734375 48.09375 
Q 17.96875 56 27.875 56 
Q 33.9375 56 38.25 53.625 
Q 42.578125 51.265625 45.40625 46.390625 
z
M 14.796875 27.296875 
Q 14.796875 17.390625 18.875 11.75 
Q 22.953125 6.109375 30.078125 6.109375 
Q 37.203125 6.109375 41.296875 11.75 
Q 45.40625 17.390625 45.40625 27.296875 
Q 45.40625 37.203125 41.296875 42.84375 
Q 37.203125 48.484375 30.078125 48.484375 
Q 22.953125 48.484375 18.875 42.84375 
Q 14.796875 37.203125 14.796875 27.296875 
z
" id="DejaVuSans-100"/>
      <path d="M 8.5 21.578125 
L 8.5 54.6875 
L 17.484375 54.6875 
L 17.484375 21.921875 
Q 17.484375 14.15625 20.5 10.265625 
Q 23.53125 6.390625 29.59375 6.390625 
Q 36.859375 6.390625 41.078125 11.03125 
Q 45.3125 15.671875 45.3125 23.6875 
L 45.3125 54.6875 
L 54.296875 54.6875 
L 54.296875 0 
L 45.3125 0 
L 45.3125 8.40625 
Q 42.046875 3.421875 37.71875 1 
Q 33.40625 -1.421875 27.6875 -1.421875 
Q 18.265625 -1.421875 13.375 4.4375 
Q 8.5 10.296875 8.5 21.578125 
z
M 31.109375 56 
z
" id="DejaVuSans-117"/>
     </defs>
     <g transform="translate(135.107812 385.049219)rotate(-90)scale(0.1 -0.1)">
      <use xlink:href="#DejaVuSans-115"/>
      <use x="52.099609" xlink:href="#DejaVuSans-112"/>
      <use x="115.576172" xlink:href="#DejaVuSans-101"/>
      <use x="177.099609" xlink:href="#DejaVuSans-101"/>
      <use x="238.623047" xlink:href="#DejaVuSans-100"/>
      <use x="302.099609" xlink:href="#DejaVuSans-117"/>
      <use x="365.478516" xlink:href="#DejaVuSans-112"/>
     </g>
    </g>
   </g>
   <g id="line2d_16">
    <path clip-path="url(#pa101c125f8)" d="M 230.727273 615.6 
L 231.753102 611.859899 
L 232.778932 606.010385 
L 233.804761 603.310138 
L 234.830591 593.657994 
L 235.856421 612.119729 
L 236.88225 613.367541 
L 237.90808 572.688591 
L 238.933909 613.255067 
L 239.959739 581.005451 
L 240.985569 572.344169 
L 242.011398 570.718928 
L 243.037228 561.934163 
L 244.063057 603.109856 
L 245.088887 575.139281 
L 246.114716 571.397795 
L 247.140546 562.55794 
L 248.166376 565.622819 
L 249.192205 563.386387 
L 250.218035 545.625159 
L 251.243864 563.51677 
L 252.269694 557.015073 
L 253.295523 555.093965 
L 254.321353 584.223099 
L 255.347183 545.924757 
L 256.373012 541.919183 
L 257.398842 549.721262 
L 258.424671 522.247221 
L 259.450501 541.039219 
L 260.476331 543.512347 
L 261.50216 543.966174 
L 262.52799 546.849362 
L 263.553819 538.283299 
L 264.579649 538.253041 
L 265.605478 529.260552 
L 266.631308 536.664143 
L 267.657138 527.447107 
L 268.682967 520.750034 
L 269.708797 524.062193 
L 270.734626 520.579527 
L 271.760456 510.203841 
L 272.786286 527.946719 
L 273.812115 509.861937 
L 274.837945 514.199017 
L 275.863774 498.058402 
L 276.889604 524.333167 
L 277.915433 506.814433 
L 278.941263 549.721194 
L 279.967093 501.988975 
L 280.992922 497.443992 
L 282.018752 494.161586 
L 283.044581 533.750423 
L 284.070411 530.214389 
L 285.09624 489.008434 
L 286.12207 496.077289 
L 287.1479 491.421374 
L 288.173729 497.085648 
L 289.199559 492.629101 
L 290.225388 465.799834 
L 291.251218 528.746565 
L 292.277048 483.760304 
L 293.302877 481.30105 
L 294.328707 490.886706 
L 295.354536 473.934441 
L 296.380366 478.587577 
L 297.406195 481.032182 
L 298.432025 483.071605 
L 299.457855 479.157458 
L 300.483684 478.493475 
L 301.509514 481.811042 
L 302.535343 468.974263 
L 303.561173 474.279308 
L 304.587002 462.686904 
L 305.612832 454.338795 
L 306.638662 463.009635 
L 307.664491 467.275171 
L 308.690321 468.446227 
L 309.71615 470.024889 
L 310.74198 462.073554 
L 311.76781 467.660952 
L 312.793639 466.168724 
L 313.819469 453.766438 
L 314.845298 452.519628 
L 315.871128 441.630551 
L 316.896957 439.827027 
L 317.922787 439.847508 
L 318.948617 430.622704 
L 319.974446 436.017634 
L 321.000276 450.347607 
L 322.026105 452.09611 
L 323.051935 424.856728 
L 324.077765 458.646421 
L 325.103594 442.883148 
L 326.129424 439.301376 
L 327.155253 431.479156 
L 328.181083 453.026661 
L 329.206912 438.990332 
L 330.232742 431.309125 
L 331.258572 435.712352 
L 332.284401 444.234159 
L 333.310231 446.187461 
L 334.33606 434.920602 
L 335.36189 429.107069 
L 336.387719 431.464853 
L 337.413549 522.527665 
L 338.439379 423.209578 
L 339.465208 433.858306 
L 340.491038 423.556747 
L 341.516867 437.040999 
L 342.542697 462.489875 
L 343.568527 420.478936 
L 344.594356 479.078046 
L 345.620186 418.854374 
L 346.646015 429.024617 
L 347.671845 408.015498 
L 348.697674 422.8087 
L 349.723504 429.201781 
L 350.749334 406.422195 
L 351.775163 423.779319 
L 352.800993 417.694009 
L 353.826822 418.766213 
L 354.852652 417.01572 
L 355.878481 418.365508 
L 356.904311 417.020185 
L 357.930141 416.204433 
L 358.95597 405.21565 
L 359.9818 418.042783 
L 361.007629 415.486378 
L 362.033459 398.147485 
L 363.059289 444.518533 
L 364.085118 404.162265 
L 365.110948 383.890009 
L 366.136777 403.106106 
L 367.162607 382.306027 
L 368.188436 425.481251 
L 369.214266 408.758824 
L 370.240096 403.467291 
L 371.265925 389.841295 
L 372.291755 397.392554 
L 373.317584 412.802882 
L 374.343414 396.915775 
L 375.369243 387.402438 
L 376.395073 380.658914 
L 377.420903 398.572983 
L 378.446732 385.572896 
L 379.472562 400.105211 
L 380.498391 401.837613 
L 381.524221 388.613029 
L 382.550051 397.657655 
L 383.57588 398.09412 
L 384.60171 393.331134 
L 385.627539 376.475504 
L 386.653369 393.510938 
L 387.679198 383.492143 
L 388.705028 364.127695 
L 389.730858 377.318809 
L 390.756687 393.407004 
L 391.782517 416.476575 
L 392.808346 381.02993 
L 393.834176 407.709307 
L 394.860006 375.182982 
L 395.885835 469.705625 
L 396.911665 365.873694 
L 397.937494 391.952464 
L 398.963324 384.573289 
L 399.989153 375.352453 
L 402.040813 382.080159 
L 403.066642 384.249908 
L 404.092472 382.20781 
L 405.118301 371.803999 
L 406.144131 367.606984 
L 407.16996 380.198131 
L 408.19579 366.817194 
L 409.22162 357.843101 
L 410.247449 359.532762 
L 412.299108 370.777342 
L 413.324938 385.450553 
L 414.350768 348.386951 
L 415.376597 359.35131 
L 416.402427 351.423311 
L 417.428256 346.555882 
L 418.454086 365.89164 
L 419.479915 359.747557 
L 420.505745 408.358833 
L 421.531575 354.061422 
L 422.557404 343.226701 
L 423.583234 344.420036 
L 424.609063 348.272327 
L 425.634893 360.966037 
L 426.660722 365.490358 
L 427.686552 348.402288 
L 428.712382 364.757758 
L 429.738211 365.674246 
L 430.764041 315.905398 
L 431.78987 437.352987 
L 432.8157 378.817759 
L 433.84153 368.157717 
L 434.867359 359.69722 
L 435.893189 334.442877 
L 436.919018 355.854388 
L 437.944848 360.702236 
L 438.970677 372.540052 
L 439.996507 336.070297 
L 441.022337 351.856091 
L 442.048166 343.188494 
L 443.073996 361.401769 
L 444.099825 342.902854 
L 445.125655 357.151904 
L 447.177314 327.390376 
L 448.203144 342.763869 
L 449.228973 340.941323 
L 450.254803 357.655848 
L 451.280632 356.874032 
L 452.306462 348.829565 
L 453.332292 358.960689 
L 454.358121 344.554351 
L 455.383951 356.290334 
L 456.40978 349.167725 
L 457.43561 333.944332 
L 458.461439 329.916534 
L 459.487269 328.344455 
L 460.513099 333.596656 
L 461.538928 326.954522 
L 462.564758 327.720862 
L 463.590587 348.997355 
L 464.616417 335.339649 
L 465.642247 341.74104 
L 466.668076 325.707645 
L 467.693906 329.636376 
L 468.719735 346.964165 
L 469.745565 360.46498 
L 470.771394 326.9291 
L 471.797224 321.42643 
L 472.823054 333.65573 
L 473.848883 324.88776 
L 474.874713 339.272649 
L 475.900542 332.003237 
L 476.926372 334.790539 
L 477.952201 328.513582 
L 478.978031 320.569031 
L 480.003861 339.850569 
L 481.02969 340.99565 
L 482.05552 330.124192 
L 483.081349 334.782235 
L 484.107179 359.434451 
L 485.133009 324.100652 
L 486.158838 322.055945 
L 487.184668 325.44375 
L 488.210497 340.538027 
L 489.236327 328.86776 
L 490.262156 325.573512 
L 491.287986 317.059446 
L 492.313816 329.808209 
L 493.339645 319.35769 
L 494.365475 326.457029 
L 495.391304 324.251642 
L 496.417134 318.759098 
L 497.442964 314.364232 
L 498.468793 312.908097 
L 499.494623 314.51756 
L 500.520452 314.791712 
L 501.546282 328.490071 
L 502.572111 323.343904 
L 503.597941 319.511547 
L 504.623771 327.763052 
L 505.6496 311.868154 
L 506.67543 306.458922 
L 507.701259 294.156134 
L 508.727089 314.36805 
L 509.752918 297.348033 
L 510.778748 308.457781 
L 511.804578 305.693782 
L 513.856237 326.836613 
L 514.882066 323.160478 
L 515.907896 298.202997 
L 516.933726 319.461479 
L 517.959555 305.326624 
L 518.985385 318.030843 
L 520.011214 305.57039 
L 521.037044 313.163564 
L 522.062873 306.003506 
L 523.088703 321.059048 
L 524.114533 296.137555 
L 525.140362 300.711661 
L 526.166192 317.276168 
L 527.192021 310.5895 
L 528.217851 317.840712 
L 529.24368 311.473086 
L 530.26951 317.877895 
L 531.29534 309.938874 
L 532.321169 300.421471 
L 533.346999 286.387925 
L 534.372828 297.700773 
L 535.398658 307.300738 
L 536.424488 298.393388 
L 537.450317 299.801945 
L 538.476147 319.527559 
L 539.501976 291.643203 
L 540.527806 300.387538 
L 541.553635 304.837792 
L 542.579465 292.568878 
L 543.605295 289.722646 
L 544.631124 307.737863 
L 545.656954 314.33946 
L 546.682783 297.450457 
L 547.708613 294.214668 
L 548.734443 389.337477 
L 549.760272 302.404587 
L 550.786102 305.042602 
L 551.811931 302.622562 
L 552.837761 304.073778 
L 553.86359 308.812406 
L 554.88942 285.92441 
L 555.91525 307.107418 
L 556.941079 303.991051 
L 557.966909 314.837288 
L 558.992738 292.987003 
L 560.018568 303.272089 
L 561.044397 291.010823 
L 562.070227 303.073584 
L 563.096057 297.052595 
L 564.121886 299.157376 
L 565.147716 288.298549 
L 566.173545 292.602546 
L 567.199375 299.941637 
L 568.225205 374.230562 
L 569.251034 291.341625 
L 570.276864 283.327191 
L 571.302693 291.609329 
L 572.328523 307.700991 
L 573.354352 288.716224 
L 574.380182 296.025143 
L 575.406012 296.789651 
L 576.431841 282.206691 
L 577.457671 301.303362 
L 578.4835 289.667819 
L 579.50933 290.609994 
L 581.560989 286.038638 
L 582.586819 294.230376 
L 583.612648 314.711519 
L 584.638478 282.742623 
L 585.664307 434.284821 
L 586.690137 279.188274 
L 587.715967 266.642776 
L 588.741796 366.877865 
L 589.767626 285.139065 
L 590.793455 305.50509 
L 591.819285 291.044337 
L 592.845114 288.811207 
L 593.870944 284.134709 
L 594.896774 297.017873 
L 595.922603 290.32989 
L 596.948433 282.109226 
L 597.974262 269.687666 
L 599.000092 316.89009 
L 600.025922 239.498606 
L 601.051751 272.255804 
L 602.077581 206.806001 
L 603.10341 324.865568 
L 604.12924 373.19291 
L 605.155069 298.053782 
L 607.206729 257.429707 
L 608.232558 354.502221 
L 609.258388 275.001822 
L 610.284217 280.596771 
L 611.310047 278.399257 
L 612.335876 254.296586 
L 613.361706 268.909623 
L 614.387536 291.105763 
L 615.413365 268.857714 
L 616.439195 257.745316 
L 617.465024 411.010894 
L 618.490854 365.268279 
L 619.516684 357.492853 
L 620.542513 222.586005 
L 621.568343 275.090468 
L 622.594172 357.667248 
L 623.620002 283.579999 
L 624.645831 333.824459 
L 625.671661 262.371618 
L 626.697491 273.188094 
L 627.72332 297.444179 
L 628.74915 268.812443 
L 630.800809 284.29934 
L 631.826638 253.141351 
L 632.852468 279.003263 
L 633.878298 265.761323 
L 634.904127 275.152695 
L 635.929957 259.009816 
L 636.955786 276.418986 
L 637.981616 315.868985 
L 639.007446 291.562788 
L 640.033275 294.462054 
L 641.059105 266.725265 
L 642.084934 276.879377 
L 643.110764 323.126867 
L 644.136593 297.639698 
L 645.162423 280.985592 
L 646.188253 288.053844 
L 647.214082 300.314479 
L 648.239912 292.680355 
L 649.265741 262.959647 
L 650.291571 284.944941 
L 651.3174 337.536691 
L 652.34323 287.983588 
L 653.36906 251.928029 
L 654.394889 400.957989 
L 655.420719 323.080393 
L 656.446548 289.030486 
L 657.472378 298.032751 
L 658.498208 276.204093 
L 659.524037 426.510857 
L 660.549867 290.337538 
L 661.575696 252.43949 
L 662.601526 302.469955 
L 663.627355 288.184225 
L 664.653185 289.818942 
L 665.679015 367.950733 
L 666.704844 279.732617 
L 667.730674 278.175115 
L 668.756503 264.605606 
L 669.782333 313.574193 
L 670.808163 277.515073 
L 671.833992 263.363507 
L 672.859822 334.770612 
L 673.885651 255.530181 
L 674.911481 271.719926 
L 675.93731 263.326635 
L 676.96314 276.436665 
L 677.98897 267.091564 
L 679.014799 314.866777 
L 680.040629 284.660915 
L 681.066458 260.782046 
L 682.092288 250.21408 
L 683.118117 269.320359 
L 684.143947 256.783312 
L 686.195606 217.930602 
L 687.221436 283.640737 
L 688.247265 252.911545 
L 689.273095 285.472984 
L 690.298925 258.564627 
L 691.324754 260.871366 
L 692.350584 266.386679 
L 693.376413 290.961549 
L 694.402243 325.040331 
L 695.428072 244.593871 
L 696.453902 280.643761 
L 697.479732 261.112912 
L 698.505561 261.538656 
L 699.531391 258.179811 
L 700.55722 229.223755 
L 701.58305 318.961706 
L 702.608879 283.146913 
L 703.634709 253.511784 
L 704.660539 270.672137 
L 705.686368 256.609274 
L 706.712198 275.485042 
L 707.738027 265.298196 
L 708.763857 244.994217 
L 709.789687 278.305822 
L 710.815516 262.22541 
L 711.841346 293.229605 
L 712.867175 260.532988 
L 713.893005 257.776476 
L 714.918834 262.961096 
L 715.944664 236.694536 
L 716.970494 335.335484 
L 717.996323 267.396992 
L 719.022153 262.027965 
L 720.047982 261.44752 
L 721.073812 265.301164 
L 722.099642 280.524941 
L 723.125471 265.632746 
L 724.151301 242.308964 
L 725.17713 249.547238 
L 726.20296 273.090664 
L 727.228789 268.682564 
L 728.254619 267.664993 
L 729.280449 260.192806 
L 730.306278 242.560071 
L 731.332108 262.756753 
L 732.357937 264.641597 
L 733.383767 256.108782 
L 734.409596 255.905661 
L 735.435426 296.816485 
L 736.461256 259.488278 
L 737.487085 261.822187 
L 738.512915 267.631396 
L 739.538744 257.723367 
L 741.590404 269.581989 
L 742.616233 261.890645 
L 743.642063 258.993909 
L 744.667892 259.45004 
L 745.693722 264.539709 
L 746.719551 240.952533 
L 747.745381 251.099821 
L 748.771211 255.974787 
L 749.79704 268.354936 
L 750.82287 254.127403 
L 751.848699 232.167704 
L 752.874529 253.656524 
L 753.900358 252.459798 
L 754.926188 255.635275 
L 755.952018 327.280083 
L 756.977847 237.301844 
L 758.003677 249.114658 
L 759.029506 230.799202 
L 760.055336 240.861799 
L 761.081166 242.875998 
L 762.106995 260.362652 
L 763.132825 248.953956 
L 764.158654 254.519781 
L 765.184484 243.556476 
L 767.236143 258.152188 
L 768.261973 279.20068 
L 769.287802 230.130786 
L 770.313632 266.128496 
L 771.339461 248.272448 
L 772.365291 238.586654 
L 773.391121 245.834233 
L 774.41695 273.551616 
L 775.44278 277.722232 
L 776.468609 257.740161 
L 777.494439 245.797766 
L 778.520268 248.905189 
L 779.546098 245.333147 
L 780.571928 237.297356 
L 781.597757 236.605899 
L 782.623587 234.070297 
L 783.649416 244.308957 
L 784.675246 258.926589 
L 785.701075 224.543917 
L 786.726905 276.459701 
L 787.752735 231.336641 
L 788.778564 253.755387 
L 789.804394 373.51773 
L 790.830223 268.913528 
L 791.856053 237.54741 
L 792.881883 245.674113 
L 793.907712 257.4064 
L 794.933542 238.650298 
L 795.959371 245.888916 
L 796.985201 250.217465 
L 798.01103 244.870257 
L 799.03686 251.254253 
L 800.06269 254.619807 
L 801.088519 249.518812 
L 802.114349 249.135789 
L 803.140178 255.455804 
L 804.166008 248.774931 
L 805.191837 234.847744 
L 806.217667 248.755033 
L 807.243497 244.996675 
L 808.269326 252.678516 
L 809.295156 238.953937 
L 810.320985 251.490643 
L 811.346815 238.046809 
L 812.372645 239.792593 
L 813.398474 264.450919 
L 814.424304 243.03846 
L 815.450133 212.358469 
L 816.475963 240.336903 
L 817.501792 243.012406 
L 818.527622 239.578 
L 819.553452 249.148554 
L 820.579281 261.507068 
L 821.605111 230.531363 
L 822.63094 252.300549 
L 823.65677 226.584599 
L 824.6826 247.983073 
L 825.708429 256.060789 
L 826.734259 231.959215 
L 827.760088 242.721815 
L 828.785918 234.4061 
L 829.811747 232.952431 
L 830.837577 247.768017 
L 831.863407 240.650948 
L 832.889236 226.332754 
L 833.915066 233.376656 
L 834.940895 358.032336 
L 835.966725 242.457258 
L 836.992554 234.58486 
L 838.018384 248.88383 
L 839.044214 232.57376 
L 840.070043 306.893039 
L 841.095873 246.440741 
L 842.121702 253.36615 
L 843.147532 239.956202 
L 844.173362 253.271783 
L 845.199191 217.326193 
L 846.225021 231.80133 
L 847.25085 239.949031 
L 848.27668 234.000081 
L 849.302509 238.833578 
L 850.328339 219.819005 
L 851.354169 237.89175 
L 852.379998 242.260765 
L 853.405828 243.816601 
L 854.431657 232.764215 
L 855.457487 229.311314 
L 856.483316 230.399033 
L 857.509146 230.403906 
L 858.534976 247.586816 
L 859.560805 233.465728 
L 860.586635 241.176954 
L 861.612464 221.936618 
L 862.638294 234.542868 
L 863.664124 189.957981 
L 864.689953 205.474062 
L 865.715783 267.732689 
L 866.741612 307.823312 
L 867.767442 213.351683 
L 868.793271 210.507924 
L 869.819101 230.151566 
L 870.844931 235.907503 
L 871.87076 232.70948 
L 872.89659 261.429985 
L 873.922419 224.638952 
L 874.948249 242.489469 
L 875.974078 247.096534 
L 876.999908 262.299414 
L 878.025738 213.870562 
L 879.051567 241.917091 
L 880.077397 240.10573 
L 881.103226 228.31904 
L 882.129056 229.073251 
L 883.154886 224.157583 
L 884.180715 252.848903 
L 885.206545 232.836453 
L 886.232374 235.263179 
L 887.258204 236.781562 
L 888.284033 231.354581 
L 889.309863 232.024174 
L 890.335693 239.069066 
L 891.361522 237.37058 
L 892.387352 218.555421 
L 894.439011 275.835476 
L 895.464841 211.705674 
L 896.49067 228.636398 
L 897.5165 231.066574 
L 898.542329 311.527536 
L 899.568159 250.167665 
L 900.593988 237.093057 
L 901.619818 193.317291 
L 902.645648 184.735557 
L 903.671477 278.069253 
L 904.697307 223.649455 
L 905.723136 225.610272 
L 906.748966 240.014507 
L 907.774795 212.021857 
L 908.800625 205.336876 
L 909.826455 215.547095 
L 910.852284 219.420719 
L 911.878114 222.007689 
L 912.903943 463.465637 
L 913.929773 222.798993 
L 914.955603 240.907218 
L 915.981432 236.267911 
L 917.007262 215.691419 
L 918.033091 230.566453 
L 919.058921 235.212999 
L 920.08475 226.149604 
L 921.11058 224.878589 
L 922.13641 313.346808 
L 923.162239 230.770957 
L 924.188069 225.124118 
L 925.213898 207.50927 
L 926.239728 227.206145 
L 927.265557 202.84246 
L 928.291387 197.148328 
L 929.317217 186.830471 
L 930.343046 248.298784 
L 931.368876 220.904553 
L 932.394705 228.611984 
L 933.420535 233.497375 
L 934.446365 207.054246 
L 935.472194 189.753692 
L 936.498024 270.511613 
L 937.523853 203.915574 
L 938.549683 252.32011 
L 939.575512 206.073372 
L 940.601342 204.508524 
L 941.627172 225.969131 
L 942.653001 228.678563 
L 943.678831 217.779654 
L 944.70466 216.411645 
L 945.73049 211.743613 
L 946.75632 220.834877 
L 947.782149 220.104963 
L 948.807979 219.843714 
L 949.833808 217.503403 
L 950.859638 174.331229 
L 951.885467 351.952135 
L 952.911297 205.328867 
L 953.937127 181.763102 
L 954.962956 299.393235 
L 955.988786 206.814732 
L 957.014615 224.191004 
L 958.040445 214.159585 
L 959.066274 200.504532 
L 960.092104 224.498944 
L 961.117934 210.542461 
L 962.143763 192.947112 
L 963.169593 222.83527 
L 964.195422 221.009065 
L 965.221252 290.767893 
L 966.247082 227.458873 
L 967.272911 236.527644 
L 968.298741 224.193857 
L 969.32457 213.751852 
L 970.3504 194.739383 
L 971.376229 231.996026 
L 972.402059 203.882651 
L 973.427889 204.759074 
L 974.453718 287.133069 
L 975.479548 209.09581 
L 976.505377 209.884612 
L 977.531207 189.230053 
L 978.557036 228.021116 
L 979.582866 220.490524 
L 980.608696 210.068301 
L 981.634525 213.413963 
L 982.660355 178.978493 
L 983.686184 208.221987 
L 984.712014 222.665844 
L 985.737844 210.468507 
L 986.763673 182.550371 
L 987.789503 241.192341 
L 988.815332 170.354129 
L 989.841162 194.969894 
L 990.866991 183.8083 
L 991.892821 177.057932 
L 992.918651 229.818864 
L 993.94448 202.661322 
L 994.97031 221.340825 
L 995.996139 196.985247 
L 997.021969 205.960898 
L 998.047799 222.19121 
L 999.073628 214.983443 
L 1000.099458 236.896973 
L 1001.125287 205.510759 
L 1002.151117 216.392213 
L 1003.176946 184.409759 
L 1004.202776 147.971793 
L 1005.228606 273.325691 
L 1006.254435 223.622876 
L 1007.280265 218.127819 
L 1008.306094 173.762561 
L 1009.331924 259.459508 
L 1010.357753 169.979096 
L 1011.383583 203.057717 
L 1012.409413 218.934513 
L 1013.435242 192.705765 
L 1014.461072 238.539199 
L 1015.486901 220.272143 
L 1016.512731 196.627296 
L 1017.538561 245.952582 
L 1018.56439 167.047185 
L 1019.59022 203.305781 
L 1020.616049 232.127356 
L 1021.641879 268.915586 
L 1022.667708 227.883778 
L 1023.693538 199.680377 
L 1024.719368 202.051002 
L 1025.745197 202.706309 
L 1026.771027 211.654371 
L 1027.796856 430.068565 
L 1028.822686 167.387199 
L 1029.848515 186.138159 
L 1030.874345 197.451226 
L 1031.900175 199.254043 
L 1032.926004 194.892486 
L 1033.951834 185.131431 
L 1034.977663 202.344062 
L 1037.029323 175.952828 
L 1038.055152 197.098863 
L 1039.080982 181.439884 
L 1040.106811 184.009265 
L 1041.132641 261.097565 
L 1042.15847 169.5773 
L 1043.1843 192.254624 
L 1044.21013 183.567614 
L 1045.235959 215.849689 
L 1046.261789 190.641621 
L 1047.287618 282.366575 
L 1048.313448 178.531688 
L 1049.339278 404.249179 
L 1050.365107 198.186754 
L 1051.390937 245.322968 
L 1052.416766 201.426769 
L 1053.442596 212.53881 
L 1054.468425 193.167896 
L 1055.494255 188.736141 
L 1056.520085 193.533693 
L 1057.545914 297.028827 
L 1058.571744 191.643589 
L 1059.597573 193.086058 
L 1060.623403 209.288358 
L 1061.649232 166.547605 
L 1062.675062 193.461961 
L 1063.700892 211.708331 
L 1064.726721 227.494647 
L 1065.752551 210.510117 
L 1066.77838 182.562017 
L 1067.80421 203.208562 
L 1068.83004 220.396052 
L 1069.855869 191.15158 
L 1070.881699 199.926918 
L 1071.907528 199.998889 
L 1072.933358 167.28104 
L 1074.985017 212.704552 
L 1076.010847 153.233188 
L 1077.036676 177.535134 
L 1078.062506 131.821611 
L 1079.088335 201.637421 
L 1080.114165 157.432485 
L 1081.139994 217.313213 
L 1082.165824 175.436875 
L 1083.191654 202.207067 
L 1084.217483 192.970714 
L 1085.243313 173.037516 
L 1086.269142 195.650071 
L 1087.294972 187.936512 
L 1088.320802 201.882953 
L 1089.346631 193.348937 
L 1090.372461 303.794769 
L 1091.39829 248.843762 
L 1092.42412 236.855122 
L 1093.449949 170.73607 
L 1094.475779 182.655801 
L 1095.501609 158.747517 
L 1096.527438 304.34924 
L 1097.553268 186.383091 
L 1098.579097 170.46958 
L 1099.604927 202.8598 
L 1100.630757 197.797798 
L 1101.656586 232.423212 
L 1102.682416 192.271479 
L 1103.708245 220.529395 
L 1104.734075 253.982964 
L 1105.759904 191.634791 
L 1106.785734 216.903401 
L 1107.811564 235.87749 
L 1109.863223 197.02615 
L 1110.889052 202.698109 
L 1111.914882 314.303773 
L 1112.940711 208.426001 
L 1113.966541 203.675328 
L 1114.992371 203.414092 
L 1116.0182 212.347632 
L 1117.04403 213.798421 
L 1118.069859 197.587865 
L 1119.095689 224.619805 
L 1120.121519 203.834954 
L 1121.147348 202.97578 
L 1122.173178 213.233677 
L 1123.199007 212.592899 
L 1124.224837 225.031854 
L 1125.250666 217.451254 
L 1126.276496 210.770262 
L 1127.302326 201.670744 
L 1128.328155 160.560786 
L 1129.353985 192.589372 
L 1130.379814 164.089072 
L 1131.405644 234.690478 
L 1132.431473 181.594206 
L 1133.457303 194.797505 
L 1134.483133 176.55667 
L 1135.508962 203.538337 
L 1136.534792 214.18671 
L 1137.560621 279.696485 
L 1138.586451 211.653164 
L 1139.612281 208.847033 
L 1140.63811 193.735684 
L 1141.66394 209.07284 
L 1142.689769 212.32789 
L 1143.715599 200.974567 
L 1144.741428 204.249823 
L 1145.767258 201.621069 
L 1146.793088 206.981797 
L 1147.818917 209.188911 
L 1148.844747 205.303154 
L 1149.870576 178.42406 
L 1150.896406 214.59947 
L 1151.922235 196.863047 
L 1152.948065 206.507633 
L 1153.973895 209.753962 
L 1154.999724 245.534087 
L 1156.025554 204.609317 
L 1157.051383 169.521226 
L 1158.077213 208.983452 
L 1159.103043 210.270649 
L 1160.128872 208.977731 
L 1161.154702 215.562034 
L 1162.180531 213.656425 
L 1163.206361 213.039597 
L 1164.23219 212.836789 
L 1165.25802 206.683526 
L 1166.28385 206.222403 
L 1167.309679 196.950243 
L 1168.335509 211.568271 
L 1169.361338 202.16823 
L 1170.387168 206.143139 
L 1171.412998 272.224189 
L 1172.438827 206.312623 
L 1173.464657 208.51149 
L 1174.490486 192.168973 
L 1175.516316 217.98689 
L 1176.542145 183.728788 
L 1177.567975 206.051622 
L 1178.593805 184.187491 
L 1179.619634 195.258946 
L 1180.645464 196.767579 
L 1181.671293 197.157433 
L 1182.697123 272.106954 
L 1183.722952 209.551844 
L 1184.748782 202.502657 
L 1185.774612 233.977615 
L 1186.800441 208.604544 
L 1187.826271 194.947529 
L 1188.8521 194.850253 
L 1189.87793 191.66316 
L 1190.90376 201.190853 
L 1191.929589 209.507975 
L 1192.955419 194.440244 
L 1193.981248 210.261409 
L 1195.007078 207.237858 
L 1196.032907 190.770699 
L 1197.058737 188.554234 
L 1198.084567 194.968847 
L 1199.110396 204.556175 
L 1200.136226 205.743267 
L 1201.162055 251.646206 
L 1202.187885 204.118033 
L 1203.213714 199.10931 
L 1204.239544 209.608969 
L 1205.265374 191.041913 
L 1207.317033 215.697965 
L 1208.342862 209.357773 
L 1209.368692 214.269173 
L 1210.394522 261.355811 
L 1211.420351 111.6 
L 1212.446181 207.274947 
L 1213.47201 209.116489 
L 1214.49784 203.721982 
L 1215.523669 204.961765 
L 1216.549499 207.656066 
L 1217.575329 200.987988 
L 1218.601158 196.825685 
L 1219.626988 208.259831 
L 1220.652817 216.098776 
L 1221.678647 209.978019 
L 1222.704477 188.611915 
L 1223.730306 205.575058 
L 1224.756136 203.833867 
L 1225.781965 200.127414 
L 1226.807795 194.850096 
L 1227.833624 200.953113 
L 1228.859454 197.908278 
L 1229.885284 166.910936 
L 1230.911113 214.41598 
L 1231.936943 194.829071 
L 1232.962772 201.693028 
L 1233.988602 196.994676 
L 1235.014431 204.171819 
L 1236.040261 168.558751 
L 1237.066091 171.193778 
L 1238.09192 245.252014 
L 1239.11775 187.031822 
L 1240.143579 195.537081 
L 1241.169409 197.980278 
L 1242.195239 204.625064 
L 1243.221068 177.446413 
L 1244.246898 200.622972 
L 1245.272727 197.059342 
L 1245.272727 197.059342 
" style="fill:none;stroke:#1f77b4;stroke-linecap:square;stroke-width:1.5;"/>
   </g>
   <g id="line2d_17">
    <path clip-path="url(#pa101c125f8)" d="M 230.727273 601.095098 
L 231.753102 585.589092 
L 232.778932 581.080804 
L 233.804761 582.855024 
L 234.830591 575.958231 
L 235.856421 571.648627 
L 236.88225 571.267224 
L 237.90808 566.887801 
L 238.933909 578.626562 
L 239.959739 562.349882 
L 240.985569 559.658526 
L 242.011398 553.012081 
L 243.037228 549.909105 
L 244.063057 548.656783 
L 245.088887 548.073232 
L 246.114716 545.738921 
L 248.166376 535.19386 
L 249.192205 533.67787 
L 250.218035 534.786327 
L 251.243864 528.147389 
L 252.269694 526.07625 
L 253.295523 525.502439 
L 254.321353 522.420145 
L 255.347183 520.644797 
L 256.373012 517.880529 
L 257.398842 519.789761 
L 258.424671 515.848471 
L 259.450501 508.071008 
L 260.476331 509.434397 
L 261.50216 505.426038 
L 262.52799 505.449275 
L 263.553819 527.129629 
L 264.579649 495.719123 
L 265.605478 496.98145 
L 266.631308 489.44687 
L 267.657138 489.307745 
L 268.682967 490.694483 
L 269.708797 481.408442 
L 270.734626 480.922485 
L 271.760456 480.04527 
L 272.786286 483.577367 
L 273.812115 473.042802 
L 274.837945 473.607922 
L 275.863774 477.051853 
L 276.889604 469.067908 
L 277.915433 468.340587 
L 278.941263 498.838115 
L 279.967093 465.991411 
L 280.992922 465.229884 
L 282.018752 463.850772 
L 283.044581 465.100105 
L 284.070411 452.288486 
L 285.09624 459.07583 
L 286.12207 454.005084 
L 287.1479 458.325022 
L 288.173729 454.213294 
L 289.199559 443.111743 
L 290.225388 446.30297 
L 291.251218 476.583766 
L 292.277048 428.138689 
L 293.302877 444.320227 
L 294.328707 434.07898 
L 295.354536 546.789689 
L 296.380366 430.213622 
L 297.406195 434.793631 
L 298.432025 459.265147 
L 299.457855 435.530347 
L 300.483684 449.045634 
L 301.509514 443.707751 
L 302.535343 422.970934 
L 303.561173 433.069467 
L 304.587002 420.066239 
L 305.612832 419.909011 
L 306.638662 411.99464 
L 307.664491 431.393047 
L 308.690321 419.729028 
L 309.71615 455.265105 
L 310.74198 417.966183 
L 311.76781 419.645231 
L 312.793639 419.657712 
L 313.819469 415.223223 
L 314.845298 412.728091 
L 315.871128 382.117496 
L 316.896957 469.238429 
L 317.922787 459.173168 
L 318.948617 418.975795 
L 319.974446 403.881568 
L 321.000276 400.056464 
L 322.026105 467.922824 
L 323.051935 464.319859 
L 324.077765 409.025709 
L 325.103594 398.866694 
L 326.129424 435.623836 
L 327.155253 394.587399 
L 328.181083 401.33934 
L 329.206912 401.024521 
L 330.232742 406.299106 
L 331.258572 393.055524 
L 332.284401 448.453643 
L 333.310231 382.14416 
L 334.33606 389.333829 
L 335.36189 392.276649 
L 336.387719 357.981801 
L 337.413549 440.303714 
L 338.439379 383.020289 
L 339.465208 430.070175 
L 340.491038 377.481141 
L 341.516867 417.711809 
L 342.542697 377.416145 
L 343.568527 393.315067 
L 344.594356 389.254464 
L 345.620186 414.939502 
L 346.646015 372.994496 
L 347.671845 382.089224 
L 348.697674 398.006291 
L 349.723504 378.396171 
L 350.749334 383.202968 
L 351.775163 392.051994 
L 352.800993 374.67346 
L 353.826822 408.936662 
L 354.852652 390.642095 
L 355.878481 383.507207 
L 356.904311 380.410989 
L 357.930141 402.525689 
L 358.95597 362.040071 
L 359.9818 375.285917 
L 361.007629 361.142721 
L 362.033459 360.870113 
L 363.059289 396.725552 
L 364.085118 389.365178 
L 365.110948 370.455039 
L 366.136777 371.505785 
L 367.162607 356.593219 
L 368.188436 413.1477 
L 369.214266 372.715752 
L 370.240096 380.032132 
L 371.265925 383.349917 
L 372.291755 420.985097 
L 373.317584 381.334185 
L 374.343414 398.182719 
L 375.369243 449.929129 
L 376.395073 355.297318 
L 377.420903 404.555607 
L 378.446732 420.932151 
L 379.472562 402.470934 
L 380.498391 403.323215 
L 381.524221 406.88512 
L 382.550051 397.345565 
L 383.57588 390.939488 
L 384.60171 408.84292 
L 385.627539 410.756632 
L 386.653369 399.931525 
L 387.679198 410.509384 
L 388.705028 389.634632 
L 389.730858 357.684768 
L 390.756687 394.127491 
L 391.782517 411.306413 
L 392.808346 342.565574 
L 393.834176 373.737437 
L 394.860006 349.128952 
L 395.885835 378.795972 
L 396.911665 403.923696 
L 397.937494 405.654728 
L 398.963324 384.637341 
L 399.989153 390.628644 
L 401.014983 340.284292 
L 402.040813 359.26567 
L 403.066642 326.507349 
L 404.092472 383.410315 
L 405.118301 393.206089 
L 406.144131 394.600323 
L 407.16996 328.553556 
L 408.19579 387.66845 
L 409.22162 358.037824 
L 410.247449 365.420181 
L 411.273279 330.942858 
L 412.299108 372.647278 
L 413.324938 338.050684 
L 414.350768 348.289866 
L 415.376597 361.204943 
L 416.402427 377.103106 
L 417.428256 364.587614 
L 418.454086 382.633507 
L 419.479915 378.643579 
L 421.531575 350.084164 
L 422.557404 348.095462 
L 423.583234 317.794451 
L 424.609063 362.941672 
L 425.634893 350.767049 
L 426.660722 311.439838 
L 427.686552 372.202434 
L 428.712382 385.934686 
L 429.738211 371.633283 
L 430.764041 376.196198 
L 431.78987 386.372035 
L 432.8157 377.60654 
L 433.84153 363.125761 
L 434.867359 378.329637 
L 435.893189 328.424212 
L 436.919018 366.030787 
L 437.944848 326.140902 
L 438.970677 367.940692 
L 439.996507 360.865465 
L 441.022337 360.930906 
L 442.048166 354.629007 
L 443.073996 364.769818 
L 444.099825 370.146172 
L 445.125655 377.388703 
L 446.151485 442.041864 
L 447.177314 363.587385 
L 448.203144 360.37576 
L 449.228973 362.728782 
L 450.254803 326.052742 
L 451.280632 362.143644 
L 452.306462 357.903817 
L 453.332292 352.797138 
L 454.358121 323.396253 
L 455.383951 368.21842 
L 456.40978 350.247293 
L 457.43561 338.363693 
L 458.461439 355.462376 
L 459.487269 370.477322 
L 460.513099 314.126579 
L 461.538928 414.241318 
L 462.564758 361.733501 
L 463.590587 361.595707 
L 464.616417 373.187032 
L 465.642247 352.371855 
L 466.668076 362.506512 
L 467.693906 369.66922 
L 468.719735 366.196213 
L 469.745565 370.998419 
L 470.771394 358.926009 
L 471.797224 353.452221 
L 472.823054 328.134048 
L 473.848883 357.037642 
L 474.874713 348.461529 
L 475.900542 351.001368 
L 476.926372 326.060992 
L 477.952201 432.427272 
L 478.978031 322.353014 
L 480.003861 431.026545 
L 481.02969 360.771237 
L 482.05552 337.094559 
L 483.081349 342.847265 
L 484.107179 374.655366 
L 485.133009 339.294655 
L 486.158838 362.085471 
L 487.184668 357.139582 
L 488.210497 350.756139 
L 489.236327 355.136139 
L 490.262156 352.631885 
L 491.287986 356.930364 
L 492.313816 376.91657 
L 493.339645 351.084468 
L 494.365475 318.417665 
L 495.391304 366.623568 
L 496.417134 341.169596 
L 497.442964 357.970885 
L 498.468793 340.820812 
L 499.494623 326.133405 
L 500.520452 323.324344 
L 501.546282 347.427418 
L 502.572111 364.898945 
L 503.597941 355.600483 
L 504.623771 356.526237 
L 505.6496 360.908934 
L 506.67543 347.362729 
L 507.701259 344.209432 
L 508.727089 351.660901 
L 509.752918 354.918334 
L 510.778748 348.924821 
L 511.804578 325.304389 
L 512.830407 357.704712 
L 513.856237 362.42279 
L 514.882066 352.551182 
L 515.907896 331.187866 
L 516.933726 331.348128 
L 517.959555 426.030026 
L 518.985385 353.075108 
L 520.011214 358.154975 
L 521.037044 350.602095 
L 522.062873 356.630381 
L 523.088703 371.523481 
L 524.114533 348.345857 
L 525.140362 346.793777 
L 526.166192 375.792611 
L 527.192021 341.818952 
L 528.217851 342.910074 
L 529.24368 363.62832 
L 530.26951 336.08479 
L 531.29534 299.931798 
L 532.321169 359.792955 
L 533.346999 374.179386 
L 534.372828 337.302048 
L 535.398658 326.243085 
L 536.424488 404.758091 
L 537.450317 354.220024 
L 538.476147 315.995779 
L 539.501976 398.378161 
L 540.527806 302.605662 
L 541.553635 326.781291 
L 542.579465 341.232138 
L 543.605295 365.618141 
L 544.631124 341.172869 
L 545.656954 330.678816 
L 546.682783 299.986471 
L 547.708613 339.788966 
L 548.734443 330.521436 
L 549.760272 351.127862 
L 550.786102 454.672504 
L 551.811931 314.895472 
L 552.837761 325.700202 
L 553.86359 328.309919 
L 554.88942 323.590585 
L 555.91525 334.448315 
L 556.941079 375.508112 
L 557.966909 349.128952 
L 558.992738 354.188544 
L 560.018568 339.334273 
L 561.044397 336.60607 
L 562.070227 332.239399 
L 563.096057 329.747688 
L 564.121886 331.15157 
L 565.147716 350.371046 
L 566.173545 335.843235 
L 567.199375 323.966008 
L 568.225205 334.348298 
L 569.251034 342.886189 
L 570.276864 350.004654 
L 571.302693 339.132333 
L 572.328523 325.042476 
L 573.354352 330.858237 
L 574.380182 334.485079 
L 575.406012 310.593431 
L 576.431841 316.967281 
L 577.457671 341.026758 
L 578.4835 329.713933 
L 579.50933 335.937918 
L 580.535159 337.544056 
L 581.560989 304.417783 
L 582.586819 346.229647 
L 583.612648 300.970051 
L 584.638478 332.965171 
L 585.664307 339.051591 
L 586.690137 301.749981 
L 587.715967 326.9094 
L 588.741796 329.249689 
L 589.767626 308.087747 
L 590.793455 322.644964 
L 591.819285 301.444331 
L 592.845114 322.245255 
L 593.870944 337.673945 
L 594.896774 321.852405 
L 595.922603 327.553255 
L 596.948433 320.177451 
L 597.974262 320.318836 
L 599.000092 328.992166 
L 600.025922 288.037318 
L 601.051751 336.644209 
L 602.077581 331.03786 
L 603.10341 321.448964 
L 604.12924 290.159293 
L 605.155069 337.807737 
L 607.206729 314.925529 
L 608.232558 311.965742 
L 609.258388 345.52341 
L 610.284217 319.626796 
L 611.310047 321.952218 
L 612.335876 277.212896 
L 613.361706 315.86609 
L 614.387536 331.983008 
L 615.413365 275.263877 
L 616.439195 340.559178 
L 617.465024 324.499157 
L 618.490854 305.455357 
L 619.516684 339.351926 
L 620.542513 268.563327 
L 621.568343 266.617251 
L 622.594172 310.320001 
L 623.620002 329.659056 
L 624.645831 298.147443 
L 625.671661 281.856497 
L 626.697491 348.679607 
L 627.72332 316.435521 
L 628.74915 307.463488 
L 629.774979 291.659257 
L 630.800809 343.649234 
L 631.826638 323.651815 
L 632.852468 276.464885 
L 633.878298 319.24877 
L 634.904127 335.735053 
L 635.929957 284.451321 
L 637.981616 319.957613 
L 639.007446 315.371802 
L 640.033275 329.972639 
L 641.059105 316.592288 
L 642.084934 322.06694 
L 643.110764 333.001353 
L 644.136593 281.22546 
L 645.162423 294.019288 
L 646.188253 295.105297 
L 647.214082 313.897661 
L 648.239912 307.521458 
L 649.265741 310.323949 
L 650.291571 313.772473 
L 651.3174 306.462263 
L 653.36906 305.845205 
L 654.394889 266.729072 
L 655.420719 321.463229 
L 656.446548 313.091394 
L 657.472378 317.78205 
L 658.498208 310.426843 
L 659.524037 322.805969 
L 660.549867 321.733132 
L 661.575696 290.177589 
L 662.601526 312.599435 
L 663.627355 311.955476 
L 664.653185 320.124808 
L 665.679015 306.191569 
L 666.704844 304.150578 
L 667.730674 311.604 
L 668.756503 302.940289 
L 669.782333 322.289858 
L 670.808163 317.002214 
L 671.833992 310.186919 
L 672.859822 305.196725 
L 673.885651 313.125141 
L 674.911481 281.732576 
L 675.93731 324.00296 
L 676.96314 276.347229 
L 677.98897 355.270448 
L 679.014799 312.783965 
L 680.040629 278.344941 
L 681.066458 313.255935 
L 682.092288 416.718831 
L 683.118117 307.822133 
L 684.143947 319.026527 
L 685.169777 311.420948 
L 686.195606 333.921828 
L 687.221436 302.43422 
L 688.247265 320.025303 
L 689.273095 195.58119 
L 690.298925 281.553097 
L 691.324754 306.023546 
L 692.350584 272.126351 
L 693.376413 299.827565 
L 694.402243 303.842741 
L 695.428072 272.35688 
L 696.453902 306.036256 
L 697.479732 304.169901 
L 698.505561 288.460688 
L 699.531391 292.912091 
L 700.55722 283.270005 
L 701.58305 289.196417 
L 702.608879 291.921336 
L 703.634709 304.221829 
L 705.686368 296.793845 
L 706.712198 248.783915 
L 707.738027 290.376679 
L 708.763857 291.627889 
L 709.789687 310.81722 
L 710.815516 311.140606 
L 711.841346 310.624206 
L 712.867175 316.12227 
L 713.893005 330.236251 
L 714.918834 270.683299 
L 715.944664 290.118525 
L 716.970494 314.665 
L 719.022153 294.855021 
L 720.047982 332.124531 
L 721.073812 291.49914 
L 722.099642 302.932643 
L 723.125471 287.387536 
L 724.151301 312.695218 
L 725.17713 288.987033 
L 726.20296 297.892297 
L 727.228789 320.889515 
L 728.254619 303.150871 
L 729.280449 319.35975 
L 730.306278 263.709461 
L 731.332108 272.513242 
L 732.357937 311.127896 
L 733.383767 292.313825 
L 734.409596 304.107755 
L 735.435426 334.033542 
L 736.461256 236.025798 
L 737.487085 286.249028 
L 738.512915 302.57748 
L 739.538744 290.560869 
L 740.564574 282.882313 
L 741.590404 300.544534 
L 742.616233 285.084954 
L 743.642063 293.498108 
L 744.667892 276.93959 
L 745.693722 302.92667 
L 746.719551 294.180685 
L 747.745381 279.724039 
L 748.771211 299.239848 
L 749.79704 289.178456 
L 750.82287 281.683835 
L 751.848699 294.60064 
L 752.874529 259.204362 
L 753.900358 287.689501 
L 754.926188 291.640341 
L 755.952018 282.244378 
L 756.977847 291.679227 
L 758.003677 287.058372 
L 759.029506 302.248368 
L 760.055336 306.047499 
L 761.081166 287.360813 
L 762.106995 295.195185 
L 763.132825 279.607502 
L 764.158654 310.559962 
L 765.184484 300.771261 
L 766.210313 277.429346 
L 767.236143 287.11796 
L 768.261973 290.188324 
L 769.287802 288.744634 
L 770.313632 286.397402 
L 771.339461 385.213224 
L 772.365291 279.321473 
L 773.391121 285.669457 
L 774.41695 286.763744 
L 775.44278 290.944043 
L 776.468609 295.703372 
L 777.494439 270.268085 
L 778.520268 377.265887 
L 779.546098 284.240093 
L 780.571928 281.908514 
L 781.597757 271.534887 
L 782.623587 265.46819 
L 783.649416 271.664145 
L 784.675246 285.876362 
L 785.701075 295.755139 
L 786.726905 291.748764 
L 787.752735 297.263559 
L 788.778564 285.183732 
L 789.804394 286.419845 
L 790.830223 293.748611 
L 791.856053 294.317374 
L 792.881883 288.740975 
L 793.907712 300.185389 
L 795.959371 281.811839 
L 796.985201 263.733857 
L 798.01103 280.446389 
L 799.03686 277.386776 
L 800.06269 279.39373 
L 801.088519 266.655555 
L 802.114349 279.044925 
L 803.140178 260.96422 
L 804.166008 288.974659 
L 805.191837 282.136846 
L 806.217667 284.622307 
L 807.243497 273.706691 
L 808.269326 276.222383 
L 809.295156 328.020277 
L 810.320985 198.514337 
L 811.346815 278.864471 
L 812.372645 288.417979 
L 813.398474 289.336848 
L 814.424304 281.766439 
L 815.450133 278.782035 
L 816.475963 289.528989 
L 817.501792 271.817671 
L 819.553452 280.071816 
L 820.579281 361.533993 
L 821.605111 287.390642 
L 822.63094 283.076648 
L 823.65677 275.096192 
L 824.6826 283.537397 
L 825.708429 286.413529 
L 826.734259 256.45838 
L 827.760088 282.097229 
L 828.785918 284.877065 
L 829.811747 277.446978 
L 830.837577 280.84771 
L 831.863407 278.305348 
L 832.889236 281.347794 
L 833.915066 276.602404 
L 834.940895 278.894534 
L 835.966725 280.785336 
L 836.992554 268.084558 
L 838.018384 245.687169 
L 839.044214 299.691036 
L 840.070043 251.829941 
L 841.095873 263.208201 
L 842.121702 280.12696 
L 843.147532 275.326564 
L 844.173362 278.336359 
L 845.199191 260.65763 
L 846.225021 244.91982 
L 847.25085 244.322713 
L 848.27668 262.097984 
L 849.302509 262.767848 
L 850.328339 258.185591 
L 851.354169 287.162244 
L 852.379998 283.880007 
L 853.405828 272.576039 
L 854.431657 279.390838 
L 855.457487 269.658196 
L 856.483316 281.377338 
L 857.509146 264.672899 
L 858.534976 271.450143 
L 859.560805 289.743801 
L 860.586635 282.727466 
L 861.612464 283.926582 
L 862.638294 257.185771 
L 863.664124 277.444695 
L 864.689953 285.11104 
L 865.715783 267.01785 
L 866.741612 265.506895 
L 867.767442 272.784888 
L 868.793271 286.998446 
L 869.819101 278.25952 
L 870.844931 271.709482 
L 871.87076 285.405825 
L 872.89659 291.28015 
L 873.922419 289.224889 
L 874.948249 272.430869 
L 875.974078 293.370895 
L 876.999908 276.089765 
L 878.025738 311.890101 
L 879.051567 278.871245 
L 880.077397 285.367447 
L 881.103226 264.917765 
L 882.129056 295.466538 
L 883.154886 276.031899 
L 884.180715 259.700899 
L 885.206545 283.165293 
L 886.232374 276.471988 
L 888.284033 287.96185 
L 889.309863 275.887822 
L 890.335693 270.182052 
L 891.361522 292.427001 
L 892.387352 264.563998 
L 893.413181 264.96032 
L 894.439011 274.046163 
L 895.464841 292.329328 
L 896.49067 275.207903 
L 897.5165 280.937253 
L 898.542329 294.289103 
L 899.568159 270.697073 
L 900.593988 274.305671 
L 901.619818 273.982308 
L 902.645648 266.358727 
L 903.671477 279.327246 
L 904.697307 270.717643 
L 905.723136 277.105123 
L 906.748966 270.758627 
L 907.774795 240.353252 
L 908.800625 239.586864 
L 909.826455 284.688384 
L 910.852284 268.432161 
L 911.878114 268.770325 
L 912.903943 323.395711 
L 913.929773 289.307292 
L 914.955603 259.974766 
L 915.981432 253.538113 
L 917.007262 283.627266 
L 918.033091 232.090408 
L 919.058921 284.042053 
L 920.08475 272.554683 
L 921.11058 272.05669 
L 922.13641 265.535744 
L 923.162239 282.253213 
L 924.188069 278.873053 
L 925.213898 299.601363 
L 926.239728 272.823054 
L 927.265557 249.821033 
L 928.291387 256.895984 
L 929.317217 257.801111 
L 930.343046 341.932722 
L 931.368876 284.442056 
L 932.394705 250.956424 
L 933.420535 264.645908 
L 934.446365 269.453649 
L 935.472194 276.677496 
L 936.498024 315.221915 
L 937.523853 281.465674 
L 938.549683 345.500912 
L 939.575512 281.055075 
L 940.601342 180.812793 
L 941.627172 266.879071 
L 942.653001 285.306022 
L 943.678831 263.549013 
L 944.70466 257.870798 
L 945.73049 292.478277 
L 946.75632 262.770319 
L 947.782149 261.744364 
L 948.807979 240.775067 
L 949.833808 271.781178 
L 950.859638 271.453037 
L 951.885467 294.101016 
L 952.911297 285.604392 
L 953.937127 257.794994 
L 954.962956 279.704042 
L 955.988786 255.961157 
L 957.014615 279.157686 
L 958.040445 276.390498 
L 959.066274 338.470882 
L 960.092104 281.127819 
L 961.117934 264.356116 
L 962.143763 269.803705 
L 963.169593 269.514875 
L 964.195422 270.606029 
L 965.221252 280.036378 
L 966.247082 323.626141 
L 967.272911 244.571499 
L 968.298741 277.533328 
L 969.32457 273.893551 
L 970.3504 275.69466 
L 971.376229 263.860618 
L 972.402059 249.292255 
L 973.427889 260.905829 
L 975.479548 265.152637 
L 976.505377 264.409057 
L 977.531207 271.795537 
L 978.557036 263.235944 
L 979.582866 273.055871 
L 980.608696 270.498029 
L 981.634525 318.61184 
L 982.660355 268.833849 
L 983.686184 170.560597 
L 984.712014 270.29872 
L 985.737844 253.579168 
L 986.763673 276.340173 
L 987.789503 270.368634 
L 988.815332 261.128366 
L 989.841162 262.064883 
L 990.866991 274.763721 
L 991.892821 265.449027 
L 992.918651 271.793355 
L 993.94448 240.507177 
L 994.97031 270.111369 
L 995.996139 267.21168 
L 997.021969 280.281313 
L 998.047799 271.166245 
L 999.073628 345.670947 
L 1000.099458 263.661191 
L 1001.125287 316.352451 
L 1003.176946 257.804638 
L 1004.202776 256.718161 
L 1005.228606 271.430285 
L 1006.254435 261.251609 
L 1007.280265 256.154552 
L 1008.306094 265.243568 
L 1009.331924 271.424361 
L 1011.383583 252.375458 
L 1012.409413 270.726718 
L 1013.435242 251.525115 
L 1014.461072 281.13735 
L 1015.486901 246.136154 
L 1016.512731 262.652722 
L 1017.538561 293.67459 
L 1018.56439 256.052362 
L 1019.59022 265.493475 
L 1020.616049 347.104351 
L 1021.641879 305.622076 
L 1022.667708 195.733302 
L 1023.693538 260.787734 
L 1024.719368 269.384319 
L 1025.745197 262.167657 
L 1026.771027 250.407516 
L 1027.796856 266.039377 
L 1028.822686 266.276331 
L 1029.848515 270.748559 
L 1030.874345 265.926486 
L 1031.900175 321.964596 
L 1032.926004 275.016714 
L 1033.951834 296.271606 
L 1034.977663 275.031051 
L 1036.003493 270.253137 
L 1037.029323 197.063141 
L 1038.055152 267.901934 
L 1039.080982 265.642225 
L 1040.106811 265.501935 
L 1041.132641 263.778396 
L 1042.15847 275.64798 
L 1043.1843 256.869915 
L 1044.21013 267.613032 
L 1045.235959 260.99652 
L 1046.261789 270.258643 
L 1047.287618 267.916117 
L 1048.313448 257.434188 
L 1049.339278 258.309992 
L 1050.365107 284.065791 
L 1051.390937 256.356995 
L 1052.416766 261.612293 
L 1053.442596 259.764646 
L 1054.468425 264.508975 
L 1055.494255 281.48166 
L 1056.520085 290.056062 
L 1057.545914 258.735818 
L 1058.571744 281.800377 
L 1059.597573 270.052277 
L 1060.623403 266.049017 
L 1061.649232 266.727527 
L 1062.675062 234.617746 
L 1063.700892 259.57428 
L 1064.726721 252.494742 
L 1065.752551 260.864463 
L 1066.77838 275.0317 
L 1067.80421 253.53752 
L 1068.83004 298.543077 
L 1069.855869 156.965074 
L 1070.881699 264.074084 
L 1071.907528 258.082182 
L 1072.933358 303.601713 
L 1073.959187 244.562252 
L 1074.985017 260.922644 
L 1076.010847 261.872826 
L 1077.036676 304.727091 
L 1078.062506 249.815267 
L 1079.088335 278.947187 
L 1080.114165 260.437354 
L 1081.139994 220.239572 
L 1082.165824 204.901986 
L 1083.191654 252.560447 
L 1084.217483 235.278683 
L 1085.243313 232.73129 
L 1086.269142 285.373414 
L 1087.294972 205.369776 
L 1088.320802 207.658397 
L 1089.346631 331.221637 
L 1090.372461 303.633453 
L 1091.39829 246.938262 
L 1092.42412 265.984466 
L 1093.449949 267.678734 
L 1094.475779 272.907689 
L 1095.501609 253.760713 
L 1096.527438 270.290261 
L 1097.553268 268.18449 
L 1098.579097 228.901976 
L 1099.604927 269.727896 
L 1100.630757 315.890647 
L 1102.682416 231.347197 
L 1103.708245 264.098949 
L 1104.734075 256.072587 
L 1105.759904 240.386108 
L 1106.785734 259.734653 
L 1107.811564 253.708178 
L 1108.837393 233.989416 
L 1109.863223 272.687058 
L 1110.889052 240.852529 
L 1111.914882 264.770819 
L 1112.940711 262.873077 
L 1113.966541 255.319803 
L 1114.992371 232.706946 
L 1116.0182 251.533016 
L 1117.04403 247.936397 
L 1118.069859 240.428716 
L 1119.095689 266.807559 
L 1120.121519 271.043005 
L 1121.147348 276.199091 
L 1122.173178 313.793259 
L 1123.199007 262.099902 
L 1124.224837 250.454919 
L 1125.250666 221.40828 
L 1126.276496 256.849238 
L 1127.302326 305.762512 
L 1128.328155 255.90749 
L 1129.353985 254.629974 
L 1130.379814 274.904427 
L 1131.405644 306.392132 
L 1132.431473 257.988759 
L 1133.457303 326.454064 
L 1134.483133 236.357478 
L 1135.508962 264.828606 
L 1136.534792 278.968106 
L 1137.560621 271.373899 
L 1138.586451 261.293981 
L 1139.612281 265.149914 
L 1140.63811 290.086775 
L 1141.66394 256.597708 
L 1142.689769 319.413668 
L 1143.715599 286.799635 
L 1144.741428 202.474563 
L 1145.767258 264.309053 
L 1146.793088 237.780659 
L 1147.818917 256.983397 
L 1148.844747 238.075704 
L 1149.870576 248.370432 
L 1150.896406 247.052087 
L 1151.922235 248.092502 
L 1152.948065 263.964664 
L 1153.973895 255.349093 
L 1154.999724 313.730166 
L 1156.025554 253.143777 
L 1157.051383 269.830496 
L 1158.077213 240.18574 
L 1159.103043 270.832718 
L 1160.128872 260.358534 
L 1161.154702 270.481643 
L 1162.180531 249.921052 
L 1163.206361 256.177777 
L 1164.23219 260.323472 
L 1165.25802 258.443613 
L 1166.28385 238.419808 
L 1167.309679 237.437565 
L 1168.335509 260.977411 
L 1169.361338 299.045386 
L 1170.387168 258.875492 
L 1171.412998 272.929661 
L 1172.438827 254.523482 
L 1173.464657 163.788155 
L 1174.490486 262.142746 
L 1175.516316 312.060083 
L 1176.542145 253.334757 
L 1177.567975 263.742399 
L 1178.593805 210.664493 
L 1179.619634 261.298853 
L 1180.645464 244.681687 
L 1181.671293 245.620899 
L 1182.697123 286.592911 
L 1183.722952 256.166516 
L 1184.748782 242.632745 
L 1185.774612 311.391316 
L 1186.800441 260.85191 
L 1187.826271 303.827285 
L 1188.8521 255.814067 
L 1189.87793 258.655657 
L 1190.90376 257.245315 
L 1191.929589 257.165391 
L 1192.955419 264.800283 
L 1193.981248 258.223239 
L 1195.007078 256.795589 
L 1196.032907 284.501722 
L 1197.058737 260.05196 
L 1198.084567 246.672782 
L 1199.110396 260.966173 
L 1200.136226 248.501281 
L 1201.162055 254.196539 
L 1202.187885 250.797262 
L 1203.213714 257.937645 
L 1204.239544 248.356937 
L 1205.265374 256.004081 
L 1206.291203 246.557997 
L 1207.317033 250.261186 
L 1208.342862 258.562045 
L 1209.368692 250.295309 
L 1210.394522 247.124419 
L 1211.420351 262.695144 
L 1212.446181 249.483122 
L 1213.47201 253.187604 
L 1214.49784 287.500433 
L 1215.523669 248.623984 
L 1216.549499 255.046419 
L 1217.575329 262.490832 
L 1218.601158 243.568669 
L 1219.626988 238.719555 
L 1220.652817 255.977479 
L 1221.678647 252.870957 
L 1222.704477 252.82495 
L 1223.730306 253.947049 
L 1224.756136 247.037858 
L 1225.781965 261.050918 
L 1226.807795 255.693633 
L 1227.833624 252.810696 
L 1228.859454 255.954104 
L 1229.885284 250.739938 
L 1230.911113 250.297181 
L 1232.962772 275.725547 
L 1233.988602 254.473199 
L 1235.014431 258.72591 
L 1236.040261 251.66826 
L 1237.066091 251.114361 
L 1238.09192 272.258123 
L 1240.143579 249.145277 
L 1241.169409 251.208272 
L 1242.195239 255.340779 
L 1243.221068 248.936891 
L 1244.246898 263.359878 
L 1245.272727 254.039046 
L 1245.272727 254.039046 
" style="fill:none;stroke:#ff7f0e;stroke-linecap:square;stroke-width:1.5;"/>
   </g>
   <g id="patch_3">
    <path d="M 180 640.8 
L 180 86.4 
" style="fill:none;stroke:#000000;stroke-linecap:square;stroke-linejoin:miter;stroke-width:0.8;"/>
   </g>
   <g id="patch_4">
    <path d="M 1296 640.8 
L 1296 86.4 
" style="fill:none;stroke:#000000;stroke-linecap:square;stroke-linejoin:miter;stroke-width:0.8;"/>
   </g>
   <g id="patch_5">
    <path d="M 180 640.8 
L 1296 640.8 
" style="fill:none;stroke:#000000;stroke-linecap:square;stroke-linejoin:miter;stroke-width:0.8;"/>
   </g>
   <g id="patch_6">
    <path d="M 180 86.4 
L 1296 86.4 
" style="fill:none;stroke:#000000;stroke-linecap:square;stroke-linejoin:miter;stroke-width:0.8;"/>
   </g>
   <g id="text_18">
    <!-- Negative Volume Index (NVI) Speedup -->
    <defs>
     <path d="M 9.8125 72.90625 
L 23.09375 72.90625 
L 55.421875 11.921875 
L 55.421875 72.90625 
L 64.984375 72.90625 
L 64.984375 0 
L 51.703125 0 
L 19.390625 60.984375 
L 19.390625 0 
L 9.8125 0 
z
" id="DejaVuSans-78"/>
     <path d="M 45.40625 27.984375 
Q 45.40625 37.75 41.375 43.109375 
Q 37.359375 48.484375 30.078125 48.484375 
Q 22.859375 48.484375 18.828125 43.109375 
Q 14.796875 37.75 14.796875 27.984375 
Q 14.796875 18.265625 18.828125 12.890625 
Q 22.859375 7.515625 30.078125 7.515625 
Q 37.359375 7.515625 41.375 12.890625 
Q 45.40625 18.265625 45.40625 27.984375 
z
M 54.390625 6.78125 
Q 54.390625 -7.171875 48.1875 -13.984375 
Q 42 -20.796875 29.203125 -20.796875 
Q 24.46875 -20.796875 20.265625 -20.09375 
Q 16.0625 -19.390625 12.109375 -17.921875 
L 12.109375 -9.1875 
Q 16.0625 -11.328125 19.921875 -12.34375 
Q 23.78125 -13.375 27.78125 -13.375 
Q 36.625 -13.375 41.015625 -8.765625 
Q 45.40625 -4.15625 45.40625 5.171875 
L 45.40625 9.625 
Q 42.625 4.78125 38.28125 2.390625 
Q 33.9375 0 27.875 0 
Q 17.828125 0 11.671875 7.65625 
Q 5.515625 15.328125 5.515625 27.984375 
Q 5.515625 40.671875 11.671875 48.328125 
Q 17.828125 56 27.875 56 
Q 33.9375 56 38.28125 53.609375 
Q 42.625 51.21875 45.40625 46.390625 
L 45.40625 54.6875 
L 54.390625 54.6875 
z
" id="DejaVuSans-103"/>
     <path d="M 34.28125 27.484375 
Q 23.390625 27.484375 19.1875 25 
Q 14.984375 22.515625 14.984375 16.5 
Q 14.984375 11.71875 18.140625 8.90625 
Q 21.296875 6.109375 26.703125 6.109375 
Q 34.1875 6.109375 38.703125 11.40625 
Q 43.21875 16.703125 43.21875 25.484375 
L 43.21875 27.484375 
z
M 52.203125 31.203125 
L 52.203125 0 
L 43.21875 0 
L 43.21875 8.296875 
Q 40.140625 3.328125 35.546875 0.953125 
Q 30.953125 -1.421875 24.3125 -1.421875 
Q 15.921875 -1.421875 10.953125 3.296875 
Q 6 8.015625 6 15.921875 
Q 6 25.140625 12.171875 29.828125 
Q 18.359375 34.515625 30.609375 34.515625 
L 43.21875 34.515625 
L 43.21875 35.40625 
Q 43.21875 41.609375 39.140625 45 
Q 35.0625 48.390625 27.6875 48.390625 
Q 23 48.390625 18.546875 47.265625 
Q 14.109375 46.140625 10.015625 43.890625 
L 10.015625 52.203125 
Q 14.9375 54.109375 19.578125 55.046875 
Q 24.21875 56 28.609375 56 
Q 40.484375 56 46.34375 49.84375 
Q 52.203125 43.703125 52.203125 31.203125 
z
" id="DejaVuSans-97"/>
     <path d="M 18.3125 70.21875 
L 18.3125 54.6875 
L 36.8125 54.6875 
L 36.8125 47.703125 
L 18.3125 47.703125 
L 18.3125 18.015625 
Q 18.3125 11.328125 20.140625 9.421875 
Q 21.96875 7.515625 27.59375 7.515625 
L 36.8125 7.515625 
L 36.8125 0 
L 27.59375 0 
Q 17.1875 0 13.234375 3.875 
Q 9.28125 7.765625 9.28125 18.015625 
L 9.28125 47.703125 
L 2.6875 47.703125 
L 2.6875 54.6875 
L 9.28125 54.6875 
L 9.28125 70.21875 
z
" id="DejaVuSans-116"/>
     <path d="M 9.421875 54.6875 
L 18.40625 54.6875 
L 18.40625 0 
L 9.421875 0 
z
M 9.421875 75.984375 
L 18.40625 75.984375 
L 18.40625 64.59375 
L 9.421875 64.59375 
z
" id="DejaVuSans-105"/>
     <path d="M 2.984375 54.6875 
L 12.5 54.6875 
L 29.59375 8.796875 
L 46.6875 54.6875 
L 56.203125 54.6875 
L 35.6875 0 
L 23.484375 0 
z
" id="DejaVuSans-118"/>
     <path id="DejaVuSans-32"/>
     <path d="M 28.609375 0 
L 0.78125 72.90625 
L 11.078125 72.90625 
L 34.1875 11.53125 
L 57.328125 72.90625 
L 67.578125 72.90625 
L 39.796875 0 
z
" id="DejaVuSans-86"/>
     <path d="M 30.609375 48.390625 
Q 23.390625 48.390625 19.1875 42.75 
Q 14.984375 37.109375 14.984375 27.296875 
Q 14.984375 17.484375 19.15625 11.84375 
Q 23.34375 6.203125 30.609375 6.203125 
Q 37.796875 6.203125 41.984375 11.859375 
Q 46.1875 17.53125 46.1875 27.296875 
Q 46.1875 37.015625 41.984375 42.703125 
Q 37.796875 48.390625 30.609375 48.390625 
z
M 30.609375 56 
Q 42.328125 56 49.015625 48.375 
Q 55.71875 40.765625 55.71875 27.296875 
Q 55.71875 13.875 49.015625 6.21875 
Q 42.328125 -1.421875 30.609375 -1.421875 
Q 18.84375 -1.421875 12.171875 6.21875 
Q 5.515625 13.875 5.515625 27.296875 
Q 5.515625 40.765625 12.171875 48.375 
Q 18.84375 56 30.609375 56 
z
" id="DejaVuSans-111"/>
     <path d="M 9.421875 75.984375 
L 18.40625 75.984375 
L 18.40625 0 
L 9.421875 0 
z
" id="DejaVuSans-108"/>
     <path d="M 52 44.1875 
Q 55.375 50.25 60.0625 53.125 
Q 64.75 56 71.09375 56 
Q 79.640625 56 84.28125 50.015625 
Q 88.921875 44.046875 88.921875 33.015625 
L 88.921875 0 
L 79.890625 0 
L 79.890625 32.71875 
Q 79.890625 40.578125 77.09375 44.375 
Q 74.3125 48.1875 68.609375 48.1875 
Q 61.625 48.1875 57.5625 43.546875 
Q 53.515625 38.921875 53.515625 30.90625 
L 53.515625 0 
L 44.484375 0 
L 44.484375 32.71875 
Q 44.484375 40.625 41.703125 44.40625 
Q 38.921875 48.1875 33.109375 48.1875 
Q 26.21875 48.1875 22.15625 43.53125 
Q 18.109375 38.875 18.109375 30.90625 
L 18.109375 0 
L 9.078125 0 
L 9.078125 54.6875 
L 18.109375 54.6875 
L 18.109375 46.1875 
Q 21.1875 51.21875 25.484375 53.609375 
Q 29.78125 56 35.6875 56 
Q 41.65625 56 45.828125 52.96875 
Q 50 49.953125 52 44.1875 
z
" id="DejaVuSans-109"/>
     <path d="M 9.8125 72.90625 
L 19.671875 72.90625 
L 19.671875 0 
L 9.8125 0 
z
" id="DejaVuSans-73"/>
     <path d="M 54.890625 54.6875 
L 35.109375 28.078125 
L 55.90625 0 
L 45.3125 0 
L 29.390625 21.484375 
L 13.484375 0 
L 2.875 0 
L 24.125 28.609375 
L 4.6875 54.6875 
L 15.28125 54.6875 
L 29.78125 35.203125 
L 44.28125 54.6875 
z
" id="DejaVuSans-120"/>
     <path d="M 31 75.875 
Q 24.46875 64.65625 21.28125 53.65625 
Q 18.109375 42.671875 18.109375 31.390625 
Q 18.109375 20.125 21.3125 9.0625 
Q 24.515625 -2 31 -13.1875 
L 23.1875 -13.1875 
Q 15.875 -1.703125 12.234375 9.375 
Q 8.59375 20.453125 8.59375 31.390625 
Q 8.59375 42.28125 12.203125 53.3125 
Q 15.828125 64.359375 23.1875 75.875 
z
" id="DejaVuSans-40"/>
     <path d="M 8.015625 75.875 
L 15.828125 75.875 
Q 23.140625 64.359375 26.78125 53.3125 
Q 30.421875 42.28125 30.421875 31.390625 
Q 30.421875 20.453125 26.78125 9.375 
Q 23.140625 -1.703125 15.828125 -13.1875 
L 8.015625 -13.1875 
Q 14.5 -2 17.703125 9.0625 
Q 20.90625 20.125 20.90625 31.390625 
Q 20.90625 42.671875 17.703125 53.65625 
Q 14.5 64.65625 8.015625 75.875 
z
" id="DejaVuSans-41"/>
     <path d="M 53.515625 70.515625 
L 53.515625 60.890625 
Q 47.90625 63.578125 42.921875 64.890625 
Q 37.9375 66.21875 33.296875 66.21875 
Q 25.25 66.21875 20.875 63.09375 
Q 16.5 59.96875 16.5 54.203125 
Q 16.5 49.359375 19.40625 46.890625 
Q 22.3125 44.4375 30.421875 42.921875 
L 36.375 41.703125 
Q 47.40625 39.59375 52.65625 34.296875 
Q 57.90625 29 57.90625 20.125 
Q 57.90625 9.515625 50.796875 4.046875 
Q 43.703125 -1.421875 29.984375 -1.421875 
Q 24.8125 -1.421875 18.96875 -0.25 
Q 13.140625 0.921875 6.890625 3.21875 
L 6.890625 13.375 
Q 12.890625 10.015625 18.65625 8.296875 
Q 24.421875 6.59375 29.984375 6.59375 
Q 38.421875 6.59375 43.015625 9.90625 
Q 47.609375 13.234375 47.609375 19.390625 
Q 47.609375 24.75 44.3125 27.78125 
Q 41.015625 30.8125 33.5 32.328125 
L 27.484375 33.5 
Q 16.453125 35.6875 11.515625 40.375 
Q 6.59375 45.0625 6.59375 53.421875 
Q 6.59375 63.09375 13.40625 68.65625 
Q 20.21875 74.21875 32.171875 74.21875 
Q 37.3125 74.21875 42.625 73.28125 
Q 47.953125 72.359375 53.515625 70.515625 
z
" id="DejaVuSans-83"/>
    </defs>
    <g transform="translate(623.140313 80.4)scale(0.12 -0.12)">
     <use xlink:href="#DejaVuSans-78"/>
     <use x="74.804688" xlink:href="#DejaVuSans-101"/>
     <use x="136.328125" xlink:href="#DejaVuSans-103"/>
     <use x="199.804688" xlink:href="#DejaVuSans-97"/>
     <use x="261.083984" xlink:href="#DejaVuSans-116"/>
     <use x="300.292969" xlink:href="#DejaVuSans-105"/>
     <use x="328.076172" xlink:href="#DejaVuSans-118"/>
     <use x="387.255859" xlink:href="#DejaVuSans-101"/>
     <use x="448.779297" xlink:href="#DejaVuSans-32"/>
     <use x="480.566406" xlink:href="#DejaVuSans-86"/>
     <use x="541.224609" xlink:href="#DejaVuSans-111"/>
     <use x="602.40625" xlink:href="#DejaVuSans-108"/>
     <use x="630.189453" xlink:href="#DejaVuSans-117"/>
     <use x="693.568359" xlink:href="#DejaVuSans-109"/>
     <use x="790.980469" xlink:href="#DejaVuSans-101"/>
     <use x="852.503906" xlink:href="#DejaVuSans-32"/>
     <use x="884.291016" xlink:href="#DejaVuSans-73"/>
     <use x="913.783203" xlink:href="#DejaVuSans-110"/>
     <use x="977.162109" xlink:href="#DejaVuSans-100"/>
     <use x="1040.638672" xlink:href="#DejaVuSans-101"/>
     <use x="1100.412109" xlink:href="#DejaVuSans-120"/>
     <use x="1159.591797" xlink:href="#DejaVuSans-32"/>
     <use x="1191.378906" xlink:href="#DejaVuSans-40"/>
     <use x="1230.392578" xlink:href="#DejaVuSans-78"/>
     <use x="1305.197266" xlink:href="#DejaVuSans-86"/>
     <use x="1373.605469" xlink:href="#DejaVuSans-73"/>
     <use x="1403.097656" xlink:href="#DejaVuSans-41"/>
     <use x="1442.111328" xlink:href="#DejaVuSans-32"/>
     <use x="1473.898438" xlink:href="#DejaVuSans-83"/>
     <use x="1537.375" xlink:href="#DejaVuSans-112"/>
     <use x="1600.851562" xlink:href="#DejaVuSans-101"/>
     <use x="1662.375" xlink:href="#DejaVuSans-101"/>
     <use x="1723.898438" xlink:href="#DejaVuSans-100"/>
     <use x="1787.375" xlink:href="#DejaVuSans-117"/>
     <use x="1850.753906" xlink:href="#DejaVuSans-112"/>
    </g>
   </g>
   <g id="legend_1">
    <g id="patch_7">
     <path d="M 1185.373437 123.75625 
L 1289 123.75625 
Q 1291 123.75625 1291 121.75625 
L 1291 93.4 
Q 1291 91.4 1289 91.4 
L 1185.373437 91.4 
Q 1183.373437 91.4 1183.373437 93.4 
L 1183.373437 121.75625 
Q 1183.373437 123.75625 1185.373437 123.75625 
z
" style="fill:#ffffff;opacity:0.8;stroke:#cccccc;stroke-linejoin:miter;"/>
    </g>
    <g id="line2d_18">
     <path d="M 1187.373437 99.498437 
L 1207.373437 99.498437 
" style="fill:none;stroke:#1f77b4;stroke-linecap:square;stroke-width:1.5;"/>
    </g>
    <g id="line2d_19"/>
    <g id="text_19">
     <!-- numpy.float32 -->
     <defs>
      <path d="M 32.171875 -5.078125 
Q 28.375 -14.84375 24.75 -17.8125 
Q 21.140625 -20.796875 15.09375 -20.796875 
L 7.90625 -20.796875 
L 7.90625 -13.28125 
L 13.1875 -13.28125 
Q 16.890625 -13.28125 18.9375 -11.515625 
Q 21 -9.765625 23.484375 -3.21875 
L 25.09375 0.875 
L 2.984375 54.6875 
L 12.5 54.6875 
L 29.59375 11.921875 
L 46.6875 54.6875 
L 56.203125 54.6875 
z
" id="DejaVuSans-121"/>
      <path d="M 37.109375 75.984375 
L 37.109375 68.5 
L 28.515625 68.5 
Q 23.6875 68.5 21.796875 66.546875 
Q 19.921875 64.59375 19.921875 59.515625 
L 19.921875 54.6875 
L 34.71875 54.6875 
L 34.71875 47.703125 
L 19.921875 47.703125 
L 19.921875 0 
L 10.890625 0 
L 10.890625 47.703125 
L 2.296875 47.703125 
L 2.296875 54.6875 
L 10.890625 54.6875 
L 10.890625 58.5 
Q 10.890625 67.625 15.140625 71.796875 
Q 19.390625 75.984375 28.609375 75.984375 
z
" id="DejaVuSans-102"/>
     </defs>
     <g transform="translate(1215.373437 102.998437)scale(0.1 -0.1)">
      <use xlink:href="#DejaVuSans-110"/>
      <use x="63.378906" xlink:href="#DejaVuSans-117"/>
      <use x="126.757812" xlink:href="#DejaVuSans-109"/>
      <use x="224.169922" xlink:href="#DejaVuSans-112"/>
      <use x="287.646484" xlink:href="#DejaVuSans-121"/>
      <use x="332.576172" xlink:href="#DejaVuSans-46"/>
      <use x="364.363281" xlink:href="#DejaVuSans-102"/>
      <use x="399.568359" xlink:href="#DejaVuSans-108"/>
      <use x="427.351562" xlink:href="#DejaVuSans-111"/>
      <use x="488.533203" xlink:href="#DejaVuSans-97"/>
      <use x="549.8125" xlink:href="#DejaVuSans-116"/>
      <use x="589.021484" xlink:href="#DejaVuSans-51"/>
      <use x="652.644531" xlink:href="#DejaVuSans-50"/>
     </g>
    </g>
    <g id="line2d_20">
     <path d="M 1187.373437 114.176562 
L 1207.373437 114.176562 
" style="fill:none;stroke:#ff7f0e;stroke-linecap:square;stroke-width:1.5;"/>
    </g>
    <g id="line2d_21"/>
    <g id="text_20">
     <!-- numpy.float64 -->
     <g transform="translate(1215.373437 117.676562)scale(0.1 -0.1)">
      <use xlink:href="#DejaVuSans-110"/>
      <use x="63.378906" xlink:href="#DejaVuSans-117"/>
      <use x="126.757812" xlink:href="#DejaVuSans-109"/>
      <use x="224.169922" xlink:href="#DejaVuSans-112"/>
      <use x="287.646484" xlink:href="#DejaVuSans-121"/>
      <use x="332.576172" xlink:href="#DejaVuSans-46"/>
      <use x="364.363281" xlink:href="#DejaVuSans-102"/>
      <use x="399.568359" xlink:href="#DejaVuSans-108"/>
      <use x="427.351562" xlink:href="#DejaVuSans-111"/>
      <use x="488.533203" xlink:href="#DejaVuSans-97"/>
      <use x="549.8125" xlink:href="#DejaVuSans-116"/>
      <use x="589.021484" xlink:href="#DejaVuSans-54"/>
      <use x="652.644531" xlink:href="#DejaVuSans-52"/>
     </g>
    </g>
   </g>
  </g>
 </g>
 <defs>
  <clipPath id="pa101c125f8">
   <rect height="554.4" width="1116" x="180" y="86.4"/>
  </clipPath>
 </defs>
</svg>
