<?xml version="1.0" encoding="utf-8" standalone="no"?>
<!DOCTYPE svg PUBLIC "-//W3C//DTD SVG 1.1//EN"
  "http://www.w3.org/Graphics/SVG/1.1/DTD/svg11.dtd">
<!-- Created with matplotlib (https://matplotlib.org/) -->
<svg height="720pt" version="1.1" viewBox="0 0 1440 720" width="1440pt" xmlns="http://www.w3.org/2000/svg" xmlns:xlink="http://www.w3.org/1999/xlink">
 <defs>
  <style type="text/css">
*{stroke-linecap:butt;stroke-linejoin:round;}
  </style>
 </defs>
 <g id="figure_1">
  <g id="patch_1">
   <path d="M 0 720 
L 1440 720 
L 1440 0 
L 0 0 
z
" style="fill:#ffffff;"/>
  </g>
  <g id="axes_1">
   <g id="patch_2">
    <path d="M 180 640.8 
L 1296 640.8 
L 1296 86.4 
L 180 86.4 
z
" style="fill:#ffffff;"/>
   </g>
   <g id="matplotlib.axis_1">
    <g id="xtick_1">
     <g id="line2d_1">
      <defs>
       <path d="M 0 0 
L 0 3.5 
" id="m2d09de59e6" style="stroke:#000000;stroke-width:0.8;"/>
      </defs>
      <g>
       <use style="stroke:#000000;stroke-width:0.8;" x="333.310231" xlink:href="#m2d09de59e6" y="640.8"/>
      </g>
     </g>
     <g id="text_1">
      <!-- 100.0 -->
      <defs>
       <path d="M 12.40625 8.296875 
L 28.515625 8.296875 
L 28.515625 63.921875 
L 10.984375 60.40625 
L 10.984375 69.390625 
L 28.421875 72.90625 
L 38.28125 72.90625 
L 38.28125 8.296875 
L 54.390625 8.296875 
L 54.390625 0 
L 12.40625 0 
z
" id="DejaVuSans-49"/>
       <path d="M 31.78125 66.40625 
Q 24.171875 66.40625 20.328125 58.90625 
Q 16.5 51.421875 16.5 36.375 
Q 16.5 21.390625 20.328125 13.890625 
Q 24.171875 6.390625 31.78125 6.390625 
Q 39.453125 6.390625 43.28125 13.890625 
Q 47.125 21.390625 47.125 36.375 
Q 47.125 51.421875 43.28125 58.90625 
Q 39.453125 66.40625 31.78125 66.40625 
z
M 31.78125 74.21875 
Q 44.046875 74.21875 50.515625 64.515625 
Q 56.984375 54.828125 56.984375 36.375 
Q 56.984375 17.96875 50.515625 8.265625 
Q 44.046875 -1.421875 31.78125 -1.421875 
Q 19.53125 -1.421875 13.0625 8.265625 
Q 6.59375 17.96875 6.59375 36.375 
Q 6.59375 54.828125 13.0625 64.515625 
Q 19.53125 74.21875 31.78125 74.21875 
z
" id="DejaVuSans-48"/>
       <path d="M 10.6875 12.40625 
L 21 12.40625 
L 21 0 
L 10.6875 0 
z
" id="DejaVuSans-46"/>
      </defs>
      <g transform="translate(318.996168 655.398438)scale(0.1 -0.1)">
       <use xlink:href="#DejaVuSans-49"/>
       <use x="63.623047" xlink:href="#DejaVuSans-48"/>
       <use x="127.246094" xlink:href="#DejaVuSans-48"/>
       <use x="190.869141" xlink:href="#DejaVuSans-46"/>
       <use x="222.65625" xlink:href="#DejaVuSans-48"/>
      </g>
     </g>
    </g>
    <g id="xtick_2">
     <g id="line2d_2">
      <g>
       <use style="stroke:#000000;stroke-width:0.8;" x="435.893189" xlink:href="#m2d09de59e6" y="640.8"/>
      </g>
     </g>
     <g id="text_2">
      <!-- 200.0 -->
      <defs>
       <path d="M 19.1875 8.296875 
L 53.609375 8.296875 
L 53.609375 0 
L 7.328125 0 
L 7.328125 8.296875 
Q 12.9375 14.109375 22.625 23.890625 
Q 32.328125 33.6875 34.8125 36.53125 
Q 39.546875 41.84375 41.421875 45.53125 
Q 43.3125 49.21875 43.3125 52.78125 
Q 43.3125 58.59375 39.234375 62.25 
Q 35.15625 65.921875 28.609375 65.921875 
Q 23.96875 65.921875 18.8125 64.3125 
Q 13.671875 62.703125 7.8125 59.421875 
L 7.8125 69.390625 
Q 13.765625 71.78125 18.9375 73 
Q 24.125 74.21875 28.421875 74.21875 
Q 39.75 74.21875 46.484375 68.546875 
Q 53.21875 62.890625 53.21875 53.421875 
Q 53.21875 48.921875 51.53125 44.890625 
Q 49.859375 40.875 45.40625 35.40625 
Q 44.1875 33.984375 37.640625 27.21875 
Q 31.109375 20.453125 19.1875 8.296875 
z
" id="DejaVuSans-50"/>
      </defs>
      <g transform="translate(421.579126 655.398438)scale(0.1 -0.1)">
       <use xlink:href="#DejaVuSans-50"/>
       <use x="63.623047" xlink:href="#DejaVuSans-48"/>
       <use x="127.246094" xlink:href="#DejaVuSans-48"/>
       <use x="190.869141" xlink:href="#DejaVuSans-46"/>
       <use x="222.65625" xlink:href="#DejaVuSans-48"/>
      </g>
     </g>
    </g>
    <g id="xtick_3">
     <g id="line2d_3">
      <g>
       <use style="stroke:#000000;stroke-width:0.8;" x="538.476147" xlink:href="#m2d09de59e6" y="640.8"/>
      </g>
     </g>
     <g id="text_3">
      <!-- 300.0 -->
      <defs>
       <path d="M 40.578125 39.3125 
Q 47.65625 37.796875 51.625 33 
Q 55.609375 28.21875 55.609375 21.1875 
Q 55.609375 10.40625 48.1875 4.484375 
Q 40.765625 -1.421875 27.09375 -1.421875 
Q 22.515625 -1.421875 17.65625 -0.515625 
Q 12.796875 0.390625 7.625 2.203125 
L 7.625 11.71875 
Q 11.71875 9.328125 16.59375 8.109375 
Q 21.484375 6.890625 26.8125 6.890625 
Q 36.078125 6.890625 40.9375 10.546875 
Q 45.796875 14.203125 45.796875 21.1875 
Q 45.796875 27.640625 41.28125 31.265625 
Q 36.765625 34.90625 28.71875 34.90625 
L 20.21875 34.90625 
L 20.21875 43.015625 
L 29.109375 43.015625 
Q 36.375 43.015625 40.234375 45.921875 
Q 44.09375 48.828125 44.09375 54.296875 
Q 44.09375 59.90625 40.109375 62.90625 
Q 36.140625 65.921875 28.71875 65.921875 
Q 24.65625 65.921875 20.015625 65.03125 
Q 15.375 64.15625 9.8125 62.3125 
L 9.8125 71.09375 
Q 15.4375 72.65625 20.34375 73.4375 
Q 25.25 74.21875 29.59375 74.21875 
Q 40.828125 74.21875 47.359375 69.109375 
Q 53.90625 64.015625 53.90625 55.328125 
Q 53.90625 49.265625 50.4375 45.09375 
Q 46.96875 40.921875 40.578125 39.3125 
z
" id="DejaVuSans-51"/>
      </defs>
      <g transform="translate(524.162084 655.398438)scale(0.1 -0.1)">
       <use xlink:href="#DejaVuSans-51"/>
       <use x="63.623047" xlink:href="#DejaVuSans-48"/>
       <use x="127.246094" xlink:href="#DejaVuSans-48"/>
       <use x="190.869141" xlink:href="#DejaVuSans-46"/>
       <use x="222.65625" xlink:href="#DejaVuSans-48"/>
      </g>
     </g>
    </g>
    <g id="xtick_4">
     <g id="line2d_4">
      <g>
       <use style="stroke:#000000;stroke-width:0.8;" x="641.059105" xlink:href="#m2d09de59e6" y="640.8"/>
      </g>
     </g>
     <g id="text_4">
      <!-- 400.0 -->
      <defs>
       <path d="M 37.796875 64.3125 
L 12.890625 25.390625 
L 37.796875 25.390625 
z
M 35.203125 72.90625 
L 47.609375 72.90625 
L 47.609375 25.390625 
L 58.015625 25.390625 
L 58.015625 17.1875 
L 47.609375 17.1875 
L 47.609375 0 
L 37.796875 0 
L 37.796875 17.1875 
L 4.890625 17.1875 
L 4.890625 26.703125 
z
" id="DejaVuSans-52"/>
      </defs>
      <g transform="translate(626.745042 655.398438)scale(0.1 -0.1)">
       <use xlink:href="#DejaVuSans-52"/>
       <use x="63.623047" xlink:href="#DejaVuSans-48"/>
       <use x="127.246094" xlink:href="#DejaVuSans-48"/>
       <use x="190.869141" xlink:href="#DejaVuSans-46"/>
       <use x="222.65625" xlink:href="#DejaVuSans-48"/>
      </g>
     </g>
    </g>
    <g id="xtick_5">
     <g id="line2d_5">
      <g>
       <use style="stroke:#000000;stroke-width:0.8;" x="743.642063" xlink:href="#m2d09de59e6" y="640.8"/>
      </g>
     </g>
     <g id="text_5">
      <!-- 500.0 -->
      <defs>
       <path d="M 10.796875 72.90625 
L 49.515625 72.90625 
L 49.515625 64.59375 
L 19.828125 64.59375 
L 19.828125 46.734375 
Q 21.96875 47.46875 24.109375 47.828125 
Q 26.265625 48.1875 28.421875 48.1875 
Q 40.625 48.1875 47.75 41.5 
Q 54.890625 34.8125 54.890625 23.390625 
Q 54.890625 11.625 47.5625 5.09375 
Q 40.234375 -1.421875 26.90625 -1.421875 
Q 22.3125 -1.421875 17.546875 -0.640625 
Q 12.796875 0.140625 7.71875 1.703125 
L 7.71875 11.625 
Q 12.109375 9.234375 16.796875 8.0625 
Q 21.484375 6.890625 26.703125 6.890625 
Q 35.15625 6.890625 40.078125 11.328125 
Q 45.015625 15.765625 45.015625 23.390625 
Q 45.015625 31 40.078125 35.4375 
Q 35.15625 39.890625 26.703125 39.890625 
Q 22.75 39.890625 18.8125 39.015625 
Q 14.890625 38.140625 10.796875 36.28125 
z
" id="DejaVuSans-53"/>
      </defs>
      <g transform="translate(729.328 655.398438)scale(0.1 -0.1)">
       <use xlink:href="#DejaVuSans-53"/>
       <use x="63.623047" xlink:href="#DejaVuSans-48"/>
       <use x="127.246094" xlink:href="#DejaVuSans-48"/>
       <use x="190.869141" xlink:href="#DejaVuSans-46"/>
       <use x="222.65625" xlink:href="#DejaVuSans-48"/>
      </g>
     </g>
    </g>
    <g id="xtick_6">
     <g id="line2d_6">
      <g>
       <use style="stroke:#000000;stroke-width:0.8;" x="846.225021" xlink:href="#m2d09de59e6" y="640.8"/>
      </g>
     </g>
     <g id="text_6">
      <!-- 600.0 -->
      <defs>
       <path d="M 33.015625 40.375 
Q 26.375 40.375 22.484375 35.828125 
Q 18.609375 31.296875 18.609375 23.390625 
Q 18.609375 15.53125 22.484375 10.953125 
Q 26.375 6.390625 33.015625 6.390625 
Q 39.65625 6.390625 43.53125 10.953125 
Q 47.40625 15.53125 47.40625 23.390625 
Q 47.40625 31.296875 43.53125 35.828125 
Q 39.65625 40.375 33.015625 40.375 
z
M 52.59375 71.296875 
L 52.59375 62.3125 
Q 48.875 64.0625 45.09375 64.984375 
Q 41.3125 65.921875 37.59375 65.921875 
Q 27.828125 65.921875 22.671875 59.328125 
Q 17.53125 52.734375 16.796875 39.40625 
Q 19.671875 43.65625 24.015625 45.921875 
Q 28.375 48.1875 33.59375 48.1875 
Q 44.578125 48.1875 50.953125 41.515625 
Q 57.328125 34.859375 57.328125 23.390625 
Q 57.328125 12.15625 50.6875 5.359375 
Q 44.046875 -1.421875 33.015625 -1.421875 
Q 20.359375 -1.421875 13.671875 8.265625 
Q 6.984375 17.96875 6.984375 36.375 
Q 6.984375 53.65625 15.1875 63.9375 
Q 23.390625 74.21875 37.203125 74.21875 
Q 40.921875 74.21875 44.703125 73.484375 
Q 48.484375 72.75 52.59375 71.296875 
z
" id="DejaVuSans-54"/>
      </defs>
      <g transform="translate(831.910958 655.398438)scale(0.1 -0.1)">
       <use xlink:href="#DejaVuSans-54"/>
       <use x="63.623047" xlink:href="#DejaVuSans-48"/>
       <use x="127.246094" xlink:href="#DejaVuSans-48"/>
       <use x="190.869141" xlink:href="#DejaVuSans-46"/>
       <use x="222.65625" xlink:href="#DejaVuSans-48"/>
      </g>
     </g>
    </g>
    <g id="xtick_7">
     <g id="line2d_7">
      <g>
       <use style="stroke:#000000;stroke-width:0.8;" x="948.807979" xlink:href="#m2d09de59e6" y="640.8"/>
      </g>
     </g>
     <g id="text_7">
      <!-- 700.0 -->
      <defs>
       <path d="M 8.203125 72.90625 
L 55.078125 72.90625 
L 55.078125 68.703125 
L 28.609375 0 
L 18.3125 0 
L 43.21875 64.59375 
L 8.203125 64.59375 
z
" id="DejaVuSans-55"/>
      </defs>
      <g transform="translate(934.493916 655.398438)scale(0.1 -0.1)">
       <use xlink:href="#DejaVuSans-55"/>
       <use x="63.623047" xlink:href="#DejaVuSans-48"/>
       <use x="127.246094" xlink:href="#DejaVuSans-48"/>
       <use x="190.869141" xlink:href="#DejaVuSans-46"/>
       <use x="222.65625" xlink:href="#DejaVuSans-48"/>
      </g>
     </g>
    </g>
    <g id="xtick_8">
     <g id="line2d_8">
      <g>
       <use style="stroke:#000000;stroke-width:0.8;" x="1051.390937" xlink:href="#m2d09de59e6" y="640.8"/>
      </g>
     </g>
     <g id="text_8">
      <!-- 800.0 -->
      <defs>
       <path d="M 31.78125 34.625 
Q 24.75 34.625 20.71875 30.859375 
Q 16.703125 27.09375 16.703125 20.515625 
Q 16.703125 13.921875 20.71875 10.15625 
Q 24.75 6.390625 31.78125 6.390625 
Q 38.8125 6.390625 42.859375 10.171875 
Q 46.921875 13.96875 46.921875 20.515625 
Q 46.921875 27.09375 42.890625 30.859375 
Q 38.875 34.625 31.78125 34.625 
z
M 21.921875 38.8125 
Q 15.578125 40.375 12.03125 44.71875 
Q 8.5 49.078125 8.5 55.328125 
Q 8.5 64.0625 14.71875 69.140625 
Q 20.953125 74.21875 31.78125 74.21875 
Q 42.671875 74.21875 48.875 69.140625 
Q 55.078125 64.0625 55.078125 55.328125 
Q 55.078125 49.078125 51.53125 44.71875 
Q 48 40.375 41.703125 38.8125 
Q 48.828125 37.15625 52.796875 32.3125 
Q 56.78125 27.484375 56.78125 20.515625 
Q 56.78125 9.90625 50.3125 4.234375 
Q 43.84375 -1.421875 31.78125 -1.421875 
Q 19.734375 -1.421875 13.25 4.234375 
Q 6.78125 9.90625 6.78125 20.515625 
Q 6.78125 27.484375 10.78125 32.3125 
Q 14.796875 37.15625 21.921875 38.8125 
z
M 18.3125 54.390625 
Q 18.3125 48.734375 21.84375 45.5625 
Q 25.390625 42.390625 31.78125 42.390625 
Q 38.140625 42.390625 41.71875 45.5625 
Q 45.3125 48.734375 45.3125 54.390625 
Q 45.3125 60.0625 41.71875 63.234375 
Q 38.140625 66.40625 31.78125 66.40625 
Q 25.390625 66.40625 21.84375 63.234375 
Q 18.3125 60.0625 18.3125 54.390625 
z
" id="DejaVuSans-56"/>
      </defs>
      <g transform="translate(1037.076874 655.398438)scale(0.1 -0.1)">
       <use xlink:href="#DejaVuSans-56"/>
       <use x="63.623047" xlink:href="#DejaVuSans-48"/>
       <use x="127.246094" xlink:href="#DejaVuSans-48"/>
       <use x="190.869141" xlink:href="#DejaVuSans-46"/>
       <use x="222.65625" xlink:href="#DejaVuSans-48"/>
      </g>
     </g>
    </g>
    <g id="xtick_9">
     <g id="line2d_9">
      <g>
       <use style="stroke:#000000;stroke-width:0.8;" x="1153.973895" xlink:href="#m2d09de59e6" y="640.8"/>
      </g>
     </g>
     <g id="text_9">
      <!-- 900.0 -->
      <defs>
       <path d="M 10.984375 1.515625 
L 10.984375 10.5 
Q 14.703125 8.734375 18.5 7.8125 
Q 22.3125 6.890625 25.984375 6.890625 
Q 35.75 6.890625 40.890625 13.453125 
Q 46.046875 20.015625 46.78125 33.40625 
Q 43.953125 29.203125 39.59375 26.953125 
Q 35.25 24.703125 29.984375 24.703125 
Q 19.046875 24.703125 12.671875 31.3125 
Q 6.296875 37.9375 6.296875 49.421875 
Q 6.296875 60.640625 12.9375 67.421875 
Q 19.578125 74.21875 30.609375 74.21875 
Q 43.265625 74.21875 49.921875 64.515625 
Q 56.59375 54.828125 56.59375 36.375 
Q 56.59375 19.140625 48.40625 8.859375 
Q 40.234375 -1.421875 26.421875 -1.421875 
Q 22.703125 -1.421875 18.890625 -0.6875 
Q 15.09375 0.046875 10.984375 1.515625 
z
M 30.609375 32.421875 
Q 37.25 32.421875 41.125 36.953125 
Q 45.015625 41.5 45.015625 49.421875 
Q 45.015625 57.28125 41.125 61.84375 
Q 37.25 66.40625 30.609375 66.40625 
Q 23.96875 66.40625 20.09375 61.84375 
Q 16.21875 57.28125 16.21875 49.421875 
Q 16.21875 41.5 20.09375 36.953125 
Q 23.96875 32.421875 30.609375 32.421875 
z
" id="DejaVuSans-57"/>
      </defs>
      <g transform="translate(1139.659832 655.398438)scale(0.1 -0.1)">
       <use xlink:href="#DejaVuSans-57"/>
       <use x="63.623047" xlink:href="#DejaVuSans-48"/>
       <use x="127.246094" xlink:href="#DejaVuSans-48"/>
       <use x="190.869141" xlink:href="#DejaVuSans-46"/>
       <use x="222.65625" xlink:href="#DejaVuSans-48"/>
      </g>
     </g>
    </g>
    <g id="xtick_10">
     <g id="line2d_10">
      <g>
       <use style="stroke:#000000;stroke-width:0.8;" x="1256.556853" xlink:href="#m2d09de59e6" y="640.8"/>
      </g>
     </g>
     <g id="text_10">
      <!-- 1000.0 -->
      <g transform="translate(1239.06154 655.398438)scale(0.1 -0.1)">
       <use xlink:href="#DejaVuSans-49"/>
       <use x="63.623047" xlink:href="#DejaVuSans-48"/>
       <use x="127.246094" xlink:href="#DejaVuSans-48"/>
       <use x="190.869141" xlink:href="#DejaVuSans-48"/>
       <use x="254.492188" xlink:href="#DejaVuSans-46"/>
       <use x="286.279297" xlink:href="#DejaVuSans-48"/>
      </g>
     </g>
    </g>
    <g id="text_11">
     <!-- n -->
     <defs>
      <path d="M 54.890625 33.015625 
L 54.890625 0 
L 45.90625 0 
L 45.90625 32.71875 
Q 45.90625 40.484375 42.875 44.328125 
Q 39.84375 48.1875 33.796875 48.1875 
Q 26.515625 48.1875 22.3125 43.546875 
Q 18.109375 38.921875 18.109375 30.90625 
L 18.109375 0 
L 9.078125 0 
L 9.078125 54.6875 
L 18.109375 54.6875 
L 18.109375 46.1875 
Q 21.34375 51.125 25.703125 53.5625 
Q 30.078125 56 35.796875 56 
Q 45.21875 56 50.046875 50.171875 
Q 54.890625 44.34375 54.890625 33.015625 
z
" id="DejaVuSans-110"/>
     </defs>
     <g transform="translate(734.83125 669.076563)scale(0.1 -0.1)">
      <use xlink:href="#DejaVuSans-110"/>
     </g>
    </g>
   </g>
   <g id="matplotlib.axis_2">
    <g id="ytick_1">
     <g id="line2d_11">
      <defs>
       <path d="M 0 0 
L -3.5 0 
" id="m9c256c59af" style="stroke:#000000;stroke-width:0.8;"/>
      </defs>
      <g>
       <use style="stroke:#000000;stroke-width:0.8;" x="180" xlink:href="#m9c256c59af" y="583.329423"/>
      </g>
     </g>
     <g id="text_12">
      <!-- 5000 -->
      <g transform="translate(147.55 587.128642)scale(0.1 -0.1)">
       <use xlink:href="#DejaVuSans-53"/>
       <use x="63.623047" xlink:href="#DejaVuSans-48"/>
       <use x="127.246094" xlink:href="#DejaVuSans-48"/>
       <use x="190.869141" xlink:href="#DejaVuSans-48"/>
      </g>
     </g>
    </g>
    <g id="ytick_2">
     <g id="line2d_12">
      <g>
       <use style="stroke:#000000;stroke-width:0.8;" x="180" xlink:href="#m9c256c59af" y="516.284229"/>
      </g>
     </g>
     <g id="text_13">
      <!-- 10000 -->
      <g transform="translate(141.1875 520.083448)scale(0.1 -0.1)">
       <use xlink:href="#DejaVuSans-49"/>
       <use x="63.623047" xlink:href="#DejaVuSans-48"/>
       <use x="127.246094" xlink:href="#DejaVuSans-48"/>
       <use x="190.869141" xlink:href="#DejaVuSans-48"/>
       <use x="254.492188" xlink:href="#DejaVuSans-48"/>
      </g>
     </g>
    </g>
    <g id="ytick_3">
     <g id="line2d_13">
      <g>
       <use style="stroke:#000000;stroke-width:0.8;" x="180" xlink:href="#m9c256c59af" y="449.239035"/>
      </g>
     </g>
     <g id="text_14">
      <!-- 15000 -->
      <g transform="translate(141.1875 453.038254)scale(0.1 -0.1)">
       <use xlink:href="#DejaVuSans-49"/>
       <use x="63.623047" xlink:href="#DejaVuSans-53"/>
       <use x="127.246094" xlink:href="#DejaVuSans-48"/>
       <use x="190.869141" xlink:href="#DejaVuSans-48"/>
       <use x="254.492188" xlink:href="#DejaVuSans-48"/>
      </g>
     </g>
    </g>
    <g id="ytick_4">
     <g id="line2d_14">
      <g>
       <use style="stroke:#000000;stroke-width:0.8;" x="180" xlink:href="#m9c256c59af" y="382.193841"/>
      </g>
     </g>
     <g id="text_15">
      <!-- 20000 -->
      <g transform="translate(141.1875 385.993059)scale(0.1 -0.1)">
       <use xlink:href="#DejaVuSans-50"/>
       <use x="63.623047" xlink:href="#DejaVuSans-48"/>
       <use x="127.246094" xlink:href="#DejaVuSans-48"/>
       <use x="190.869141" xlink:href="#DejaVuSans-48"/>
       <use x="254.492188" xlink:href="#DejaVuSans-48"/>
      </g>
     </g>
    </g>
    <g id="ytick_5">
     <g id="line2d_15">
      <g>
       <use style="stroke:#000000;stroke-width:0.8;" x="180" xlink:href="#m9c256c59af" y="315.148646"/>
      </g>
     </g>
     <g id="text_16">
      <!-- 25000 -->
      <g transform="translate(141.1875 318.947865)scale(0.1 -0.1)">
       <use xlink:href="#DejaVuSans-50"/>
       <use x="63.623047" xlink:href="#DejaVuSans-53"/>
       <use x="127.246094" xlink:href="#DejaVuSans-48"/>
       <use x="190.869141" xlink:href="#DejaVuSans-48"/>
       <use x="254.492188" xlink:href="#DejaVuSans-48"/>
      </g>
     </g>
    </g>
    <g id="ytick_6">
     <g id="line2d_16">
      <g>
       <use style="stroke:#000000;stroke-width:0.8;" x="180" xlink:href="#m9c256c59af" y="248.103452"/>
      </g>
     </g>
     <g id="text_17">
      <!-- 30000 -->
      <g transform="translate(141.1875 251.902671)scale(0.1 -0.1)">
       <use xlink:href="#DejaVuSans-51"/>
       <use x="63.623047" xlink:href="#DejaVuSans-48"/>
       <use x="127.246094" xlink:href="#DejaVuSans-48"/>
       <use x="190.869141" xlink:href="#DejaVuSans-48"/>
       <use x="254.492188" xlink:href="#DejaVuSans-48"/>
      </g>
     </g>
    </g>
    <g id="ytick_7">
     <g id="line2d_17">
      <g>
       <use style="stroke:#000000;stroke-width:0.8;" x="180" xlink:href="#m9c256c59af" y="181.058258"/>
      </g>
     </g>
     <g id="text_18">
      <!-- 35000 -->
      <g transform="translate(141.1875 184.857477)scale(0.1 -0.1)">
       <use xlink:href="#DejaVuSans-51"/>
       <use x="63.623047" xlink:href="#DejaVuSans-53"/>
       <use x="127.246094" xlink:href="#DejaVuSans-48"/>
       <use x="190.869141" xlink:href="#DejaVuSans-48"/>
       <use x="254.492188" xlink:href="#DejaVuSans-48"/>
      </g>
     </g>
    </g>
    <g id="ytick_8">
     <g id="line2d_18">
      <g>
       <use style="stroke:#000000;stroke-width:0.8;" x="180" xlink:href="#m9c256c59af" y="114.013064"/>
      </g>
     </g>
     <g id="text_19">
      <!-- 40000 -->
      <g transform="translate(141.1875 117.812282)scale(0.1 -0.1)">
       <use xlink:href="#DejaVuSans-52"/>
       <use x="63.623047" xlink:href="#DejaVuSans-48"/>
       <use x="127.246094" xlink:href="#DejaVuSans-48"/>
       <use x="190.869141" xlink:href="#DejaVuSans-48"/>
       <use x="254.492188" xlink:href="#DejaVuSans-48"/>
      </g>
     </g>
    </g>
    <g id="text_20">
     <!-- speedup -->
     <defs>
      <path d="M 44.28125 53.078125 
L 44.28125 44.578125 
Q 40.484375 46.53125 36.375 47.5 
Q 32.28125 48.484375 27.875 48.484375 
Q 21.1875 48.484375 17.84375 46.4375 
Q 14.5 44.390625 14.5 40.28125 
Q 14.5 37.15625 16.890625 35.375 
Q 19.28125 33.59375 26.515625 31.984375 
L 29.59375 31.296875 
Q 39.15625 29.25 43.1875 25.515625 
Q 47.21875 21.78125 47.21875 15.09375 
Q 47.21875 7.46875 41.1875 3.015625 
Q 35.15625 -1.421875 24.609375 -1.421875 
Q 20.21875 -1.421875 15.453125 -0.5625 
Q 10.6875 0.296875 5.421875 2 
L 5.421875 11.28125 
Q 10.40625 8.6875 15.234375 7.390625 
Q 20.0625 6.109375 24.8125 6.109375 
Q 31.15625 6.109375 34.5625 8.28125 
Q 37.984375 10.453125 37.984375 14.40625 
Q 37.984375 18.0625 35.515625 20.015625 
Q 33.0625 21.96875 24.703125 23.78125 
L 21.578125 24.515625 
Q 13.234375 26.265625 9.515625 29.90625 
Q 5.8125 33.546875 5.8125 39.890625 
Q 5.8125 47.609375 11.28125 51.796875 
Q 16.75 56 26.8125 56 
Q 31.78125 56 36.171875 55.265625 
Q 40.578125 54.546875 44.28125 53.078125 
z
" id="DejaVuSans-115"/>
      <path d="M 18.109375 8.203125 
L 18.109375 -20.796875 
L 9.078125 -20.796875 
L 9.078125 54.6875 
L 18.109375 54.6875 
L 18.109375 46.390625 
Q 20.953125 51.265625 25.265625 53.625 
Q 29.59375 56 35.59375 56 
Q 45.5625 56 51.78125 48.09375 
Q 58.015625 40.1875 58.015625 27.296875 
Q 58.015625 14.40625 51.78125 6.484375 
Q 45.5625 -1.421875 35.59375 -1.421875 
Q 29.59375 -1.421875 25.265625 0.953125 
Q 20.953125 3.328125 18.109375 8.203125 
z
M 48.6875 27.296875 
Q 48.6875 37.203125 44.609375 42.84375 
Q 40.53125 48.484375 33.40625 48.484375 
Q 26.265625 48.484375 22.1875 42.84375 
Q 18.109375 37.203125 18.109375 27.296875 
Q 18.109375 17.390625 22.1875 11.75 
Q 26.265625 6.109375 33.40625 6.109375 
Q 40.53125 6.109375 44.609375 11.75 
Q 48.6875 17.390625 48.6875 27.296875 
z
" id="DejaVuSans-112"/>
      <path d="M 56.203125 29.59375 
L 56.203125 25.203125 
L 14.890625 25.203125 
Q 15.484375 15.921875 20.484375 11.0625 
Q 25.484375 6.203125 34.421875 6.203125 
Q 39.59375 6.203125 44.453125 7.46875 
Q 49.3125 8.734375 54.109375 11.28125 
L 54.109375 2.78125 
Q 49.265625 0.734375 44.1875 -0.34375 
Q 39.109375 -1.421875 33.890625 -1.421875 
Q 20.796875 -1.421875 13.15625 6.1875 
Q 5.515625 13.8125 5.515625 26.8125 
Q 5.515625 40.234375 12.765625 48.109375 
Q 20.015625 56 32.328125 56 
Q 43.359375 56 49.78125 48.890625 
Q 56.203125 41.796875 56.203125 29.59375 
z
M 47.21875 32.234375 
Q 47.125 39.59375 43.09375 43.984375 
Q 39.0625 48.390625 32.421875 48.390625 
Q 24.90625 48.390625 20.390625 44.140625 
Q 15.875 39.890625 15.1875 32.171875 
z
" id="DejaVuSans-101"/>
      <path d="M 45.40625 46.390625 
L 45.40625 75.984375 
L 54.390625 75.984375 
L 54.390625 0 
L 45.40625 0 
L 45.40625 8.203125 
Q 42.578125 3.328125 38.25 0.953125 
Q 33.9375 -1.421875 27.875 -1.421875 
Q 17.96875 -1.421875 11.734375 6.484375 
Q 5.515625 14.40625 5.515625 27.296875 
Q 5.515625 40.1875 11.734375 48.09375 
Q 17.96875 56 27.875 56 
Q 33.9375 56 38.25 53.625 
Q 42.578125 51.265625 45.40625 46.390625 
z
M 14.796875 27.296875 
Q 14.796875 17.390625 18.875 11.75 
Q 22.953125 6.109375 30.078125 6.109375 
Q 37.203125 6.109375 41.296875 11.75 
Q 45.40625 17.390625 45.40625 27.296875 
Q 45.40625 37.203125 41.296875 42.84375 
Q 37.203125 48.484375 30.078125 48.484375 
Q 22.953125 48.484375 18.875 42.84375 
Q 14.796875 37.203125 14.796875 27.296875 
z
" id="DejaVuSans-100"/>
      <path d="M 8.5 21.578125 
L 8.5 54.6875 
L 17.484375 54.6875 
L 17.484375 21.921875 
Q 17.484375 14.15625 20.5 10.265625 
Q 23.53125 6.390625 29.59375 6.390625 
Q 36.859375 6.390625 41.078125 11.03125 
Q 45.3125 15.671875 45.3125 23.6875 
L 45.3125 54.6875 
L 54.296875 54.6875 
L 54.296875 0 
L 45.3125 0 
L 45.3125 8.40625 
Q 42.046875 3.421875 37.71875 1 
Q 33.40625 -1.421875 27.6875 -1.421875 
Q 18.265625 -1.421875 13.375 4.4375 
Q 8.5 10.296875 8.5 21.578125 
z
M 31.109375 56 
z
" id="DejaVuSans-117"/>
     </defs>
     <g transform="translate(135.107812 385.049219)rotate(-90)scale(0.1 -0.1)">
      <use xlink:href="#DejaVuSans-115"/>
      <use x="52.099609" xlink:href="#DejaVuSans-112"/>
      <use x="115.576172" xlink:href="#DejaVuSans-101"/>
      <use x="177.099609" xlink:href="#DejaVuSans-101"/>
      <use x="238.623047" xlink:href="#DejaVuSans-100"/>
      <use x="302.099609" xlink:href="#DejaVuSans-117"/>
      <use x="365.478516" xlink:href="#DejaVuSans-112"/>
     </g>
    </g>
   </g>
   <g id="line2d_19">
    <path clip-path="url(#p0f39886b13)" d="M 230.727273 615.6 
L 231.753102 589.29411 
L 232.778932 586.228286 
L 233.804761 580.929845 
L 234.830591 576.819736 
L 235.856421 575.862009 
L 236.88225 566.327871 
L 237.90808 566.924605 
L 238.933909 563.588506 
L 239.959739 554.135689 
L 240.985569 554.61259 
L 242.011398 546.767848 
L 243.037228 544.724941 
L 244.063057 543.964678 
L 245.088887 538.223425 
L 246.114716 538.270466 
L 247.140546 531.186835 
L 248.166376 530.939265 
L 249.192205 521.088702 
L 250.218035 522.246088 
L 251.243864 521.161857 
L 252.269694 518.811196 
L 253.295523 509.178668 
L 254.321353 506.425797 
L 255.347183 527.164277 
L 256.373012 494.9091 
L 257.398842 496.25979 
L 258.424671 489.440829 
L 259.450501 488.104683 
L 260.476331 485.908617 
L 261.50216 484.490144 
L 262.52799 487.49522 
L 263.553819 497.652517 
L 264.579649 482.620603 
L 265.605478 473.75794 
L 266.631308 493.908121 
L 267.657138 483.707644 
L 268.682967 474.816841 
L 269.708797 457.32432 
L 270.734626 462.827242 
L 271.760456 457.748752 
L 272.786286 459.523267 
L 274.837945 480.293748 
L 275.863774 454.635757 
L 276.889604 452.526181 
L 277.915433 455.322462 
L 278.941263 437.200192 
L 279.967093 442.067454 
L 280.992922 442.167671 
L 282.018752 427.568205 
L 283.044581 430.979927 
L 284.070411 426.953324 
L 285.09624 433.26812 
L 286.12207 442.573604 
L 287.1479 438.891606 
L 288.173729 464.74745 
L 289.199559 413.329643 
L 290.225388 490.404163 
L 291.251218 423.858396 
L 292.277048 454.396783 
L 293.302877 438.006942 
L 294.328707 404.242111 
L 295.354536 421.36576 
L 296.380366 410.026456 
L 297.406195 470.596205 
L 298.432025 400.548878 
L 299.457855 432.494749 
L 300.483684 411.904321 
L 301.509514 420.001657 
L 302.535343 402.518946 
L 303.561173 462.768121 
L 304.587002 389.869823 
L 305.612832 397.808045 
L 306.638662 426.573947 
L 307.664491 384.236423 
L 308.690321 444.769643 
L 309.71615 402.954451 
L 310.74198 390.698164 
L 311.76781 400.160709 
L 312.793639 386.435288 
L 313.819469 391.663769 
L 314.845298 416.522565 
L 315.871128 397.9958 
L 316.896957 424.613179 
L 317.922787 380.9197 
L 318.948617 374.036474 
L 319.974446 385.205466 
L 321.000276 366.833766 
L 322.026105 375.949812 
L 323.051935 400.150282 
L 324.077765 377.52251 
L 325.103594 346.747858 
L 326.129424 360.794874 
L 327.155253 358.070613 
L 328.181083 395.861472 
L 329.206912 372.242644 
L 330.232742 417.583772 
L 331.258572 356.972819 
L 332.284401 369.207723 
L 333.310231 374.198809 
L 334.33606 352.640229 
L 335.36189 385.573611 
L 336.387719 389.972408 
L 337.413549 408.536015 
L 338.439379 345.993688 
L 339.465208 526.726036 
L 340.491038 353.177567 
L 341.516867 351.758044 
L 342.542697 367.942718 
L 343.568527 376.947897 
L 344.594356 348.066413 
L 345.620186 366.908036 
L 346.646015 346.278959 
L 347.671845 348.551115 
L 348.697674 396.344176 
L 349.723504 384.22403 
L 350.749334 340.731597 
L 351.775163 349.087915 
L 354.852652 328.687792 
L 355.878481 361.546572 
L 356.904311 332.712505 
L 357.930141 387.554868 
L 358.95597 365.649504 
L 359.9818 332.076695 
L 361.007629 352.244788 
L 362.033459 375.072253 
L 363.059289 389.750517 
L 364.085118 331.920892 
L 365.110948 317.470269 
L 366.136777 395.117472 
L 367.162607 304.062011 
L 368.188436 363.859456 
L 369.214266 351.507094 
L 370.240096 327.037832 
L 371.265925 365.348506 
L 372.291755 303.532568 
L 374.343414 365.3679 
L 375.369243 303.5607 
L 376.395073 370.96933 
L 377.420903 315.26687 
L 378.446732 317.606963 
L 379.472562 294.388115 
L 380.498391 347.095156 
L 381.524221 364.207485 
L 382.550051 295.450185 
L 383.57588 287.718316 
L 384.60171 280.858725 
L 385.627539 353.13933 
L 386.653369 294.326403 
L 388.705028 344.676592 
L 389.730858 297.077573 
L 390.756687 345.595036 
L 392.808346 282.130049 
L 393.834176 275.761971 
L 395.885835 347.383062 
L 396.911665 296.134087 
L 397.937494 255.282509 
L 398.963324 338.418797 
L 399.989153 291.004886 
L 401.014983 292.26233 
L 402.040813 313.363349 
L 403.066642 328.171652 
L 404.092472 290.112698 
L 405.118301 303.59129 
L 406.144131 259.745962 
L 408.19579 338.626973 
L 409.22162 355.170449 
L 410.247449 331.882744 
L 411.273279 337.667066 
L 412.299108 280.651741 
L 413.324938 302.384695 
L 414.350768 345.414143 
L 415.376597 315.415677 
L 416.402427 328.078688 
L 417.428256 291.102514 
L 418.454086 290.953848 
L 419.479915 304.506792 
L 420.505745 375.651662 
L 421.531575 268.699867 
L 422.557404 355.51979 
L 423.583234 277.811799 
L 424.609063 286.230695 
L 426.660722 318.734465 
L 427.686552 304.926864 
L 428.712382 258.353482 
L 429.738211 344.912811 
L 430.764041 345.700533 
L 431.78987 358.139277 
L 432.8157 261.179379 
L 433.84153 320.276018 
L 434.867359 335.672076 
L 435.893189 310.161723 
L 436.919018 333.658186 
L 437.944848 276.934922 
L 438.970677 274.655083 
L 439.996507 266.377302 
L 441.022337 285.553233 
L 442.048166 323.828316 
L 443.073996 296.037301 
L 444.099825 324.522594 
L 445.125655 266.256817 
L 446.151485 321.113149 
L 447.177314 287.060982 
L 448.203144 331.373246 
L 449.228973 253.792695 
L 450.254803 278.066715 
L 451.280632 309.847291 
L 452.306462 310.522376 
L 453.332292 299.775413 
L 454.358121 325.344077 
L 455.383951 291.909594 
L 456.40978 235.40221 
L 457.43561 320.980038 
L 458.461439 295.216992 
L 459.487269 263.439269 
L 460.513099 292.375015 
L 461.538928 316.339656 
L 462.564758 318.147377 
L 463.590587 304.637654 
L 464.616417 295.957536 
L 465.642247 252.194027 
L 466.668076 292.331016 
L 467.693906 299.835092 
L 468.719735 315.854465 
L 469.745565 286.289982 
L 470.771394 298.475621 
L 471.797224 279.803068 
L 472.823054 301.088062 
L 473.848883 239.87241 
L 474.874713 231.625378 
L 475.900542 285.985019 
L 476.926372 301.657431 
L 477.952201 238.643222 
L 478.978031 307.305164 
L 480.003861 262.495943 
L 481.02969 250.423663 
L 482.05552 294.84864 
L 483.081349 257.965449 
L 484.107179 233.869053 
L 485.133009 279.757634 
L 486.158838 294.413554 
L 487.184668 230.651375 
L 488.210497 300.720466 
L 489.236327 271.404655 
L 490.262156 286.643344 
L 491.287986 313.67913 
L 492.313816 248.921956 
L 493.339645 299.412146 
L 494.365475 276.677475 
L 495.391304 408.748286 
L 496.417134 297.957072 
L 497.442964 286.309694 
L 498.468793 227.187256 
L 499.494623 279.356816 
L 500.520452 238.147399 
L 501.546282 271.564813 
L 502.572111 236.477093 
L 503.597941 284.798026 
L 504.623771 272.969491 
L 505.6496 295.700145 
L 506.67543 286.839767 
L 507.701259 288.696127 
L 508.727089 262.402073 
L 509.752918 295.187211 
L 510.778748 260.51796 
L 511.804578 274.079031 
L 512.830407 285.033596 
L 513.856237 241.12791 
L 514.882066 263.833644 
L 515.907896 272.090482 
L 516.933726 216.834358 
L 517.959555 273.124913 
L 518.985385 274.774612 
L 520.011214 271.137601 
L 521.037044 232.579137 
L 522.062873 282.408212 
L 523.088703 279.522368 
L 525.140362 267.027199 
L 526.166192 227.435998 
L 528.217851 291.968807 
L 529.24368 260.819431 
L 530.26951 254.7533 
L 531.29534 282.509828 
L 532.321169 227.855157 
L 533.346999 258.799645 
L 534.372828 260.53269 
L 535.398658 275.217055 
L 536.424488 229.689735 
L 537.450317 261.747237 
L 538.476147 251.466501 
L 539.501976 262.778503 
L 540.527806 253.771354 
L 541.553635 242.64947 
L 542.579465 281.992122 
L 543.605295 263.479919 
L 544.631124 273.00959 
L 545.656954 254.804403 
L 546.682783 260.742768 
L 547.708613 310.924295 
L 548.734443 260.013499 
L 549.760272 261.280907 
L 550.786102 239.133718 
L 551.811931 262.759666 
L 552.837761 213.812427 
L 553.86359 301.099702 
L 554.88942 261.112145 
L 555.91525 238.309596 
L 556.941079 270.984244 
L 557.966909 238.197052 
L 558.992738 258.192103 
L 560.018568 257.517266 
L 561.044397 381.861845 
L 562.070227 254.84904 
L 563.096057 260.332738 
L 564.121886 235.75813 
L 565.147716 262.573359 
L 566.173545 271.062057 
L 567.199375 264.207268 
L 568.225205 259.951668 
L 569.251034 214.123432 
L 570.276864 270.240453 
L 571.302693 259.703194 
L 572.328523 219.871398 
L 573.354352 223.289311 
L 574.380182 268.017142 
L 575.406012 212.240789 
L 576.431841 242.626763 
L 577.457671 254.173382 
L 578.4835 241.785838 
L 579.50933 218.713676 
L 580.535159 247.130465 
L 581.560989 233.516868 
L 582.586819 322.123483 
L 584.638478 226.980467 
L 585.664307 255.217687 
L 586.690137 253.631001 
L 587.715967 243.752992 
L 588.741796 246.38949 
L 589.767626 224.798462 
L 590.793455 248.250588 
L 591.819285 261.113746 
L 592.845114 257.850666 
L 593.870944 256.269899 
L 594.896774 249.825696 
L 595.922603 248.681389 
L 596.948433 243.609395 
L 597.974262 229.26231 
L 599.000092 257.667253 
L 600.025922 253.228378 
L 601.051751 252.747456 
L 602.077581 224.339545 
L 603.10341 235.100592 
L 604.12924 219.251076 
L 605.155069 242.222016 
L 606.180899 231.823745 
L 607.206729 226.106066 
L 608.232558 242.298645 
L 609.258388 234.924726 
L 610.284217 196.457376 
L 611.310047 253.728323 
L 612.335876 245.861282 
L 613.361706 233.325394 
L 614.387536 198.125793 
L 615.413365 245.340925 
L 616.439195 213.147444 
L 617.465024 228.515639 
L 618.490854 217.956931 
L 619.516684 242.569576 
L 620.542513 240.286548 
L 621.568343 234.632198 
L 622.594172 227.972065 
L 623.620002 212.70869 
L 624.645831 231.595035 
L 625.671661 221.334944 
L 626.697491 230.909244 
L 627.72332 232.259701 
L 628.74915 242.921403 
L 629.774979 225.322083 
L 630.800809 224.304675 
L 631.826638 233.473077 
L 632.852468 236.921672 
L 633.878298 224.598079 
L 634.904127 217.01626 
L 635.929957 233.776614 
L 636.955786 229.984683 
L 637.981616 224.95357 
L 639.007446 212.173723 
L 640.033275 229.954312 
L 641.059105 225.945937 
L 642.084934 190.91969 
L 643.110764 218.082671 
L 644.136593 235.332654 
L 645.162423 198.692472 
L 646.188253 210.753941 
L 647.214082 239.082889 
L 648.239912 237.192858 
L 649.265741 227.017466 
L 650.291571 228.224013 
L 651.3174 194.090999 
L 652.34323 225.851401 
L 653.36906 183.490835 
L 654.394889 257.407521 
L 655.420719 228.762942 
L 656.446548 211.533259 
L 657.472378 224.42098 
L 658.498208 287.045909 
L 659.524037 223.281568 
L 660.549867 225.643106 
L 661.575696 214.00355 
L 662.601526 227.073859 
L 663.627355 217.153919 
L 664.653185 219.284805 
L 665.679015 226.596012 
L 666.704844 228.330676 
L 667.730674 222.617269 
L 668.756503 228.457133 
L 669.782333 215.43869 
L 670.808163 219.996937 
L 671.833992 208.365063 
L 672.859822 213.988845 
L 673.885651 196.413542 
L 674.911481 210.617008 
L 675.93731 217.446235 
L 676.96314 197.409242 
L 677.98897 209.028941 
L 679.014799 216.824685 
L 680.040629 225.510235 
L 681.066458 207.319271 
L 682.092288 198.430741 
L 683.118117 215.56276 
L 684.143947 219.879219 
L 685.169777 214.108611 
L 686.195606 214.96617 
L 687.221436 216.79058 
L 688.247265 220.435406 
L 689.273095 212.453194 
L 690.298925 209.49399 
L 691.324754 220.453636 
L 692.350584 229.023758 
L 693.376413 218.126705 
L 694.402243 221.570949 
L 695.428072 191.938874 
L 696.453902 199.353422 
L 697.479732 193.890907 
L 699.531391 232.458439 
L 700.55722 212.22615 
L 701.58305 228.307079 
L 702.608879 215.416012 
L 703.634709 216.3975 
L 704.660539 214.130787 
L 705.686368 222.191151 
L 706.712198 203.869259 
L 707.738027 214.189721 
L 708.763857 211.509908 
L 709.789687 214.856495 
L 710.815516 326.498673 
L 711.841346 223.00449 
L 712.867175 209.661281 
L 713.893005 210.764107 
L 714.918834 201.937985 
L 715.944664 220.69634 
L 716.970494 199.405304 
L 717.996323 227.783798 
L 719.022153 215.873019 
L 720.047982 197.021784 
L 721.073812 226.118138 
L 722.099642 205.029505 
L 723.125471 198.589444 
L 724.151301 214.443309 
L 725.17713 193.667584 
L 726.20296 210.328704 
L 727.228789 211.977631 
L 728.254619 206.665523 
L 729.280449 205.872328 
L 730.306278 213.055654 
L 731.332108 192.108552 
L 732.357937 212.679419 
L 733.383767 213.71553 
L 734.409596 203.863785 
L 735.435426 188.040116 
L 736.461256 211.776542 
L 737.487085 210.603299 
L 738.512915 201.400482 
L 739.538744 211.614102 
L 740.564574 183.349955 
L 741.590404 216.363218 
L 743.642063 208.477023 
L 744.667892 201.872409 
L 745.693722 197.581137 
L 746.719551 203.77979 
L 747.745381 284.924792 
L 748.771211 207.993539 
L 750.82287 185.624065 
L 751.848699 188.167522 
L 752.874529 199.479241 
L 753.900358 195.50272 
L 754.926188 199.182588 
L 755.952018 204.292833 
L 756.977847 215.03904 
L 758.003677 212.82092 
L 759.029506 168.324623 
L 760.055336 192.076624 
L 761.081166 195.55853 
L 762.106995 210.915834 
L 763.132825 195.999651 
L 764.158654 194.466616 
L 765.184484 208.561129 
L 766.210313 316.131092 
L 767.236143 196.659609 
L 768.261973 207.025609 
L 769.287802 197.250374 
L 770.313632 199.648595 
L 771.339461 261.600633 
L 772.365291 193.424132 
L 773.391121 192.049622 
L 774.41695 193.324468 
L 775.44278 206.685329 
L 776.468609 203.83895 
L 777.494439 200.198418 
L 778.520268 192.054066 
L 779.546098 187.855976 
L 780.571928 195.755049 
L 781.597757 196.947242 
L 782.623587 204.666259 
L 783.649416 178.475656 
L 784.675246 195.742934 
L 785.701075 206.711273 
L 786.726905 188.126296 
L 787.752735 181.951075 
L 788.778564 186.348176 
L 789.804394 199.342016 
L 790.830223 189.170583 
L 791.856053 193.424128 
L 792.881883 192.177249 
L 793.907712 187.11715 
L 794.933542 209.534168 
L 795.959371 179.121356 
L 796.985201 193.047618 
L 798.01103 194.091481 
L 799.03686 198.801869 
L 800.06269 197.198782 
L 801.088519 198.313011 
L 802.114349 207.72793 
L 803.140178 184.09134 
L 804.166008 185.046019 
L 805.191837 171.169465 
L 806.217667 187.04665 
L 807.243497 197.922579 
L 808.269326 227.570862 
L 809.295156 181.703722 
L 810.320985 167.313932 
L 811.346815 177.529218 
L 812.372645 208.436246 
L 813.398474 197.787121 
L 814.424304 194.831651 
L 816.475963 184.878445 
L 817.501792 204.428239 
L 818.527622 181.090157 
L 819.553452 154.518049 
L 820.579281 184.876485 
L 821.605111 188.869885 
L 822.63094 176.948436 
L 823.65677 178.702147 
L 824.6826 194.888853 
L 825.708429 191.927383 
L 826.734259 171.831586 
L 827.760088 184.033085 
L 828.785918 191.285912 
L 829.811747 190.818025 
L 830.837577 182.424229 
L 831.863407 184.641357 
L 832.889236 174.609738 
L 833.915066 206.685795 
L 834.940895 183.808892 
L 835.966725 190.50053 
L 836.992554 186.887224 
L 838.018384 188.51628 
L 839.044214 187.744035 
L 840.070043 181.851606 
L 841.095873 179.849285 
L 842.121702 173.372358 
L 843.147532 171.752112 
L 844.173362 183.786817 
L 845.199191 175.098546 
L 846.225021 183.209401 
L 847.25085 184.278818 
L 848.27668 176.722524 
L 849.302509 188.172071 
L 850.328339 176.926783 
L 851.354169 193.846878 
L 852.379998 165.220744 
L 853.405828 162.688039 
L 854.431657 188.308288 
L 855.457487 178.250967 
L 856.483316 185.009137 
L 857.509146 184.688192 
L 858.534976 186.38136 
L 859.560805 177.20051 
L 860.586635 192.023367 
L 861.612464 185.472507 
L 862.638294 183.349199 
L 863.664124 175.204118 
L 864.689953 188.848713 
L 865.715783 173.300329 
L 866.741612 190.724499 
L 867.767442 183.56931 
L 868.793271 179.762518 
L 869.819101 171.243717 
L 870.844931 186.74244 
L 871.87076 185.429432 
L 872.89659 288.196503 
L 873.922419 169.381164 
L 874.948249 183.242068 
L 875.974078 183.8478 
L 876.999908 189.544108 
L 878.025738 177.406076 
L 879.051567 183.637858 
L 880.077397 178.116953 
L 881.103226 170.651273 
L 882.129056 169.883558 
L 883.154886 175.966069 
L 884.180715 177.954499 
L 885.206545 179.590535 
L 886.232374 190.782528 
L 887.258204 172.630203 
L 888.284033 184.407327 
L 889.309863 168.815948 
L 890.335693 181.266478 
L 891.361522 186.08679 
L 892.387352 175.547389 
L 893.413181 183.423656 
L 894.439011 176.436377 
L 895.464841 180.447345 
L 896.49067 169.279667 
L 897.5165 186.431636 
L 898.542329 190.496699 
L 899.568159 171.224503 
L 900.593988 178.260786 
L 901.619818 156.314499 
L 902.645648 185.521203 
L 903.671477 187.761663 
L 904.697307 169.459156 
L 905.723136 163.077666 
L 906.748966 185.72752 
L 907.774795 172.642762 
L 908.800625 168.659008 
L 909.826455 154.212174 
L 910.852284 168.791784 
L 911.878114 181.173103 
L 912.903943 174.199832 
L 913.929773 159.679761 
L 914.955603 173.688037 
L 915.981432 164.627603 
L 917.007262 167.808576 
L 918.033091 148.893092 
L 919.058921 173.55736 
L 921.11058 173.477259 
L 922.13641 177.819853 
L 923.162239 166.460883 
L 924.188069 168.558159 
L 925.213898 162.837882 
L 926.239728 169.551876 
L 927.265557 157.873573 
L 928.291387 172.707089 
L 929.317217 166.639058 
L 930.343046 147.891398 
L 931.368876 173.700277 
L 932.394705 164.518239 
L 933.420535 161.238124 
L 934.446365 167.547619 
L 935.472194 172.437323 
L 936.498024 228.150386 
L 937.523853 174.370935 
L 938.549683 170.363166 
L 939.575512 148.039946 
L 940.601342 157.009542 
L 941.627172 172.594645 
L 942.653001 164.118359 
L 943.678831 165.163832 
L 944.70466 170.268271 
L 945.73049 161.954418 
L 946.75632 269.709418 
L 947.782149 181.11258 
L 948.807979 169.139873 
L 949.833808 160.006094 
L 950.859638 164.987987 
L 951.885467 179.841683 
L 952.911297 161.562608 
L 953.937127 147.578473 
L 954.962956 155.330224 
L 955.988786 154.347382 
L 957.014615 159.640624 
L 958.040445 157.912853 
L 959.066274 170.05958 
L 960.092104 159.883236 
L 961.117934 158.963286 
L 962.143763 173.988833 
L 963.169593 181.84744 
L 964.195422 177.024962 
L 965.221252 165.633363 
L 966.247082 165.273833 
L 967.272911 165.652174 
L 968.298741 149.95206 
L 969.32457 170.722369 
L 970.3504 149.665454 
L 971.376229 174.013779 
L 972.402059 173.02349 
L 973.427889 158.387008 
L 974.453718 167.513549 
L 975.479548 160.24545 
L 976.505377 154.651472 
L 977.531207 164.575267 
L 978.557036 168.581379 
L 979.582866 153.495716 
L 980.608696 145.389068 
L 981.634525 147.5214 
L 982.660355 179.90182 
L 983.686184 165.138751 
L 984.712014 157.492094 
L 985.737844 160.020942 
L 986.763673 160.806397 
L 987.789503 159.05973 
L 988.815332 166.743744 
L 989.841162 162.865217 
L 990.866991 157.23435 
L 991.892821 150.405334 
L 992.918651 139.845878 
L 993.94448 159.386513 
L 994.97031 150.158113 
L 995.996139 142.876532 
L 997.021969 162.651724 
L 998.047799 136.894502 
L 999.073628 163.612678 
L 1000.099458 148.87778 
L 1001.125287 177.671493 
L 1002.151117 166.468476 
L 1003.176946 164.022174 
L 1004.202776 156.404621 
L 1005.228606 151.65958 
L 1006.254435 154.729962 
L 1007.280265 172.557076 
L 1008.306094 165.566888 
L 1009.331924 156.461912 
L 1010.357753 171.717791 
L 1011.383583 167.757317 
L 1012.409413 171.792552 
L 1013.435242 167.123777 
L 1014.461072 164.018435 
L 1015.486901 166.904892 
L 1016.512731 151.860025 
L 1017.538561 154.053645 
L 1018.56439 145.652178 
L 1019.59022 148.045466 
L 1020.616049 154.180759 
L 1021.641879 165.230628 
L 1022.667708 154.75171 
L 1023.693538 161.973271 
L 1024.719368 155.51371 
L 1025.745197 163.272368 
L 1026.771027 160.631658 
L 1027.796856 155.596405 
L 1028.822686 160.841423 
L 1029.848515 255.611766 
L 1030.874345 156.848399 
L 1031.900175 157.700649 
L 1032.926004 160.974137 
L 1033.951834 144.817019 
L 1034.977663 153.422157 
L 1036.003493 153.751132 
L 1037.029323 165.519864 
L 1038.055152 166.219971 
L 1039.080982 154.227676 
L 1040.106811 168.298674 
L 1041.132641 163.459866 
L 1042.15847 147.683945 
L 1043.1843 148.015833 
L 1044.21013 155.974589 
L 1045.235959 152.600364 
L 1046.261789 150.501668 
L 1047.287618 160.645384 
L 1048.313448 164.58694 
L 1049.339278 151.520583 
L 1050.365107 161.293309 
L 1051.390937 152.679263 
L 1052.416766 168.247806 
L 1053.442596 155.112669 
L 1054.468425 154.267257 
L 1055.494255 154.125492 
L 1056.520085 162.2333 
L 1057.545914 144.693202 
L 1058.571744 141.667048 
L 1059.597573 162.810627 
L 1060.623403 146.344638 
L 1061.649232 133.399152 
L 1062.675062 162.49897 
L 1063.700892 137.837957 
L 1064.726721 151.569812 
L 1065.752551 149.838803 
L 1066.77838 138.789188 
L 1067.80421 139.12394 
L 1068.83004 154.922595 
L 1069.855869 149.748404 
L 1070.881699 136.21888 
L 1071.907528 144.895733 
L 1072.933358 152.284232 
L 1073.959187 152.96645 
L 1074.985017 147.374013 
L 1076.010847 145.928024 
L 1077.036676 143.584082 
L 1078.062506 146.584409 
L 1079.088335 145.799662 
L 1080.114165 153.640647 
L 1081.139994 125.762057 
L 1082.165824 167.606704 
L 1083.191654 141.945954 
L 1084.217483 139.622141 
L 1085.243313 151.716564 
L 1086.269142 139.329966 
L 1087.294972 155.088061 
L 1088.320802 153.909664 
L 1089.346631 147.640962 
L 1090.372461 143.870312 
L 1091.39829 156.835534 
L 1092.42412 151.491136 
L 1093.449949 147.812351 
L 1094.475779 146.107026 
L 1095.501609 134.00364 
L 1096.527438 141.718928 
L 1097.553268 139.251755 
L 1098.579097 148.32528 
L 1099.604927 146.934161 
L 1100.630757 150.405224 
L 1101.656586 145.566483 
L 1102.682416 145.921109 
L 1103.708245 144.140424 
L 1104.734075 151.409329 
L 1105.759904 150.70766 
L 1106.785734 146.454772 
L 1107.811564 155.287121 
L 1108.837393 140.910586 
L 1109.863223 158.027347 
L 1110.889052 159.757969 
L 1111.914882 153.096025 
L 1112.940711 139.501448 
L 1113.966541 142.674119 
L 1114.992371 130.15238 
L 1116.0182 134.727975 
L 1117.04403 138.203618 
L 1118.069859 146.712415 
L 1119.095689 143.239876 
L 1120.121519 154.130426 
L 1121.147348 154.716057 
L 1122.173178 151.405442 
L 1123.199007 152.156822 
L 1124.224837 135.656383 
L 1125.250666 133.90764 
L 1126.276496 142.232766 
L 1127.302326 145.756189 
L 1128.328155 143.955322 
L 1129.353985 152.863763 
L 1130.379814 153.944301 
L 1131.405644 138.52393 
L 1132.431473 144.585343 
L 1133.457303 141.925987 
L 1134.483133 143.823315 
L 1135.508962 144.929115 
L 1136.534792 149.485729 
L 1137.560621 133.083852 
L 1138.586451 153.703079 
L 1139.612281 137.555236 
L 1140.63811 129.685152 
L 1141.66394 148.889132 
L 1142.689769 149.898486 
L 1143.715599 155.467727 
L 1144.741428 141.534386 
L 1145.767258 240.963179 
L 1146.793088 138.434244 
L 1147.818917 131.852392 
L 1148.844747 127.201977 
L 1149.870576 148.058415 
L 1150.896406 138.20516 
L 1151.922235 141.704765 
L 1152.948065 153.822116 
L 1153.973895 133.219109 
L 1154.999724 136.552527 
L 1156.025554 141.567433 
L 1157.051383 143.928774 
L 1158.077213 141.678762 
L 1159.103043 144.638123 
L 1160.128872 141.963543 
L 1161.154702 166.771779 
L 1162.180531 150.907972 
L 1163.206361 150.974603 
L 1164.23219 147.458928 
L 1165.25802 146.280621 
L 1166.28385 141.545388 
L 1167.309679 142.145019 
L 1168.335509 137.071676 
L 1169.361338 134.771329 
L 1170.387168 139.085323 
L 1171.412998 118.064076 
L 1172.438827 129.923822 
L 1173.464657 145.863776 
L 1174.490486 136.379942 
L 1175.516316 136.406776 
L 1176.542145 145.622005 
L 1177.567975 144.507572 
L 1178.593805 146.344883 
L 1179.619634 127.691262 
L 1180.645464 146.028458 
L 1181.671293 148.546765 
L 1182.697123 137.532382 
L 1183.722952 139.677723 
L 1184.748782 143.963766 
L 1185.774612 132.316933 
L 1186.800441 134.750205 
L 1187.826271 126.436175 
L 1188.8521 139.990011 
L 1189.87793 135.589689 
L 1190.90376 132.497529 
L 1191.929589 147.857562 
L 1192.955419 147.334291 
L 1193.981248 141.957233 
L 1195.007078 121.868459 
L 1196.032907 128.185246 
L 1197.058737 145.330242 
L 1198.084567 139.004385 
L 1199.110396 161.412212 
L 1200.136226 135.332694 
L 1201.162055 126.685461 
L 1202.187885 124.062766 
L 1203.213714 136.143604 
L 1204.239544 137.73474 
L 1205.265374 142.488135 
L 1206.291203 138.513901 
L 1207.317033 132.32949 
L 1208.342862 143.357 
L 1209.368692 138.50468 
L 1210.394522 137.384078 
L 1211.420351 228.790803 
L 1212.446181 136.784295 
L 1213.47201 139.013571 
L 1214.49784 136.796124 
L 1215.523669 130.299771 
L 1216.549499 134.474763 
L 1217.575329 139.68746 
L 1218.601158 122.309221 
L 1219.626988 127.980239 
L 1220.652817 137.93877 
L 1221.678647 131.723494 
L 1222.704477 124.462445 
L 1223.730306 139.194376 
L 1224.756136 130.964114 
L 1225.781965 145.265028 
L 1226.807795 136.583837 
L 1227.833624 131.577126 
L 1228.859454 133.862094 
L 1229.885284 143.866475 
L 1231.936943 120.260119 
L 1232.962772 133.82907 
L 1233.988602 125.877914 
L 1235.014431 129.6001 
L 1236.040261 124.588534 
L 1237.066091 135.925924 
L 1238.09192 140.576551 
L 1239.11775 120.398609 
L 1240.143579 130.164531 
L 1241.169409 135.468923 
L 1242.195239 130.396686 
L 1243.221068 116.825799 
L 1244.246898 140.43352 
L 1245.272727 132.073682 
L 1245.272727 132.073682 
" style="fill:none;stroke:#1f77b4;stroke-linecap:square;stroke-width:1.5;"/>
   </g>
   <g id="line2d_20">
    <path clip-path="url(#p0f39886b13)" d="M 230.727273 610.481872 
L 231.753102 593.413816 
L 232.778932 584.574832 
L 233.804761 587.789246 
L 234.830591 583.971993 
L 236.88225 569.873345 
L 237.90808 564.010221 
L 238.933909 559.89583 
L 239.959739 561.077403 
L 240.985569 553.742498 
L 242.011398 552.198082 
L 243.037228 559.757541 
L 244.063057 544.120498 
L 245.088887 561.551869 
L 246.114716 556.220558 
L 247.140546 530.610012 
L 248.166376 527.515913 
L 249.192205 528.983438 
L 250.218035 519.801355 
L 251.243864 522.865394 
L 252.269694 519.641572 
L 253.295523 511.172347 
L 254.321353 508.915304 
L 255.347183 508.090518 
L 256.373012 500.800612 
L 257.398842 496.618882 
L 258.424671 494.244618 
L 259.450501 504.536502 
L 260.476331 491.524336 
L 261.50216 501.312721 
L 262.52799 493.202358 
L 263.553819 473.281411 
L 264.579649 501.330738 
L 266.631308 472.807544 
L 267.657138 470.419793 
L 268.682967 498.625806 
L 269.708797 466.01597 
L 270.734626 463.27004 
L 271.760456 517.372178 
L 272.786286 469.348436 
L 273.812115 457.061424 
L 274.837945 468.498113 
L 275.863774 490.540541 
L 276.889604 447.093347 
L 277.915433 518.678932 
L 278.941263 442.64741 
L 279.967093 435.2552 
L 280.992922 492.058292 
L 282.018752 442.736724 
L 283.044581 437.33226 
L 284.070411 437.869668 
L 285.09624 428.593082 
L 286.12207 444.797987 
L 287.1479 426.843496 
L 288.173729 427.792631 
L 289.199559 452.244301 
L 290.225388 438.990309 
L 291.251218 427.973154 
L 292.277048 427.656033 
L 293.302877 444.074561 
L 294.328707 445.506059 
L 295.354536 406.857783 
L 296.380366 450.293482 
L 297.406195 418.630376 
L 298.432025 415.848256 
L 299.457855 405.594965 
L 300.483684 457.367419 
L 302.535343 416.282718 
L 303.561173 419.477383 
L 304.587002 397.654575 
L 305.612832 393.986082 
L 306.638662 398.778234 
L 307.664491 407.118879 
L 308.690321 522.4442 
L 309.71615 399.098772 
L 310.74198 451.959865 
L 311.76781 389.03522 
L 312.793639 418.937746 
L 313.819469 389.146821 
L 314.845298 389.606865 
L 315.871128 376.081248 
L 316.896957 385.134753 
L 317.922787 410.890794 
L 318.948617 367.389546 
L 319.974446 375.875231 
L 321.000276 403.949339 
L 322.026105 368.977654 
L 323.051935 367.355974 
L 324.077765 351.08163 
L 325.103594 390.257218 
L 326.129424 364.937012 
L 327.155253 416.413132 
L 328.181083 358.234859 
L 329.206912 351.713585 
L 330.232742 371.026991 
L 331.258572 368.920769 
L 332.284401 412.326814 
L 333.310231 358.533442 
L 334.33606 371.102009 
L 335.36189 353.086086 
L 336.387719 347.384325 
L 337.413549 348.708642 
L 338.439379 351.437695 
L 339.465208 401.564314 
L 340.491038 351.989963 
L 341.516867 360.675747 
L 342.542697 401.697688 
L 343.568527 368.879932 
L 344.594356 359.105108 
L 345.620186 389.870406 
L 346.646015 359.463036 
L 347.671845 366.395758 
L 348.697674 345.748038 
L 349.723504 345.394672 
L 350.749334 358.242683 
L 351.775163 409.29521 
L 352.800993 374.929122 
L 353.826822 349.69718 
L 354.852652 397.867917 
L 355.878481 339.329793 
L 356.904311 378.449518 
L 357.930141 329.555819 
L 358.95597 354.583024 
L 359.9818 370.753269 
L 361.007629 409.501181 
L 362.033459 379.449196 
L 363.059289 415.179271 
L 364.085118 500.543187 
L 365.110948 366.17322 
L 366.136777 415.738683 
L 367.162607 380.381009 
L 368.188436 406.14411 
L 369.214266 409.354904 
L 370.240096 397.009185 
L 371.265925 373.796111 
L 372.291755 357.65475 
L 373.317584 441.313223 
L 375.369243 361.869614 
L 376.395073 391.865181 
L 377.420903 403.968565 
L 379.472562 363.506937 
L 380.498391 348.82722 
L 381.524221 380.814782 
L 382.550051 335.462609 
L 383.57588 388.290562 
L 384.60171 383.314719 
L 385.627539 376.64024 
L 386.653369 379.538658 
L 387.679198 392.276416 
L 388.705028 353.180987 
L 389.730858 325.174112 
L 390.756687 343.589492 
L 391.782517 394.347196 
L 393.834176 341.831256 
L 394.860006 311.330121 
L 395.885835 322.899665 
L 396.911665 354.264126 
L 397.937494 339.4232 
L 398.963324 361.05622 
L 399.989153 321.060561 
L 401.014983 345.790965 
L 403.066642 308.107008 
L 404.092472 344.974807 
L 405.118301 352.278147 
L 406.144131 338.737456 
L 407.16996 308.276361 
L 408.19579 328.952601 
L 409.22162 353.496225 
L 410.247449 295.595419 
L 411.273279 349.395942 
L 412.299108 325.890711 
L 413.324938 330.487009 
L 414.350768 316.673927 
L 415.376597 306.524585 
L 416.402427 302.675195 
L 417.428256 367.767906 
L 418.454086 325.538084 
L 419.479915 328.735378 
L 420.505745 327.081645 
L 421.531575 356.167444 
L 422.557404 352.989383 
L 424.609063 327.116228 
L 426.660722 362.83742 
L 427.686552 318.754742 
L 428.712382 360.267974 
L 429.738211 328.265869 
L 430.764041 283.991916 
L 431.78987 304.919357 
L 432.8157 322.501406 
L 433.84153 299.275565 
L 434.867359 318.896322 
L 435.893189 327.361998 
L 436.919018 308.368466 
L 437.944848 302.652188 
L 438.970677 303.045203 
L 439.996507 325.643061 
L 441.022337 330.880873 
L 442.048166 319.191353 
L 443.073996 315.67037 
L 444.099825 291.547351 
L 445.125655 283.773264 
L 446.151485 300.625118 
L 447.177314 305.318133 
L 448.203144 267.835821 
L 449.228973 275.96763 
L 450.254803 337.513228 
L 451.280632 322.691266 
L 452.306462 258.127523 
L 453.332292 314.175273 
L 454.358121 292.752965 
L 455.383951 259.38859 
L 456.40978 313.091065 
L 457.43561 267.064137 
L 458.461439 252.528361 
L 459.487269 264.619785 
L 460.513099 296.069606 
L 461.538928 289.26779 
L 462.564758 268.367906 
L 463.590587 300.736874 
L 464.616417 257.794397 
L 466.668076 306.75751 
L 467.693906 297.545658 
L 468.719735 279.648077 
L 469.745565 280.047435 
L 470.771394 309.957033 
L 471.797224 287.667612 
L 472.823054 337.670948 
L 473.848883 250.89225 
L 474.874713 293.494155 
L 475.900542 280.476368 
L 476.926372 309.729368 
L 477.952201 276.174249 
L 478.978031 282.993227 
L 480.003861 291.508803 
L 481.02969 312.538102 
L 482.05552 283.522357 
L 483.081349 269.974278 
L 484.107179 290.488202 
L 485.133009 279.246146 
L 486.158838 281.46247 
L 487.184668 271.031881 
L 488.210497 250.238272 
L 489.236327 285.90737 
L 490.262156 299.843813 
L 491.287986 279.63492 
L 492.313816 272.709006 
L 493.339645 290.716178 
L 494.365475 228.675511 
L 495.391304 295.940885 
L 496.417134 266.02015 
L 497.442964 286.036225 
L 498.468793 279.927955 
L 499.494623 250.743804 
L 500.520452 245.725391 
L 501.546282 292.451629 
L 502.572111 318.437258 
L 503.597941 318.889536 
L 504.623771 314.996831 
L 505.6496 287.769113 
L 506.67543 325.894642 
L 507.701259 294.040036 
L 508.727089 292.554959 
L 509.752918 306.007527 
L 510.778748 299.199396 
L 511.804578 320.350041 
L 512.830407 295.408511 
L 513.856237 295.57419 
L 514.882066 323.267397 
L 515.907896 299.328365 
L 516.933726 300.752895 
L 517.959555 305.755397 
L 518.985385 300.661438 
L 520.011214 315.584989 
L 521.037044 298.105441 
L 522.062873 309.987928 
L 523.088703 294.082347 
L 524.114533 273.751156 
L 525.140362 307.886614 
L 526.166192 282.135112 
L 527.192021 291.660554 
L 528.217851 269.609145 
L 529.24368 299.503841 
L 531.29534 287.418161 
L 532.321169 284.520203 
L 533.346999 256.970044 
L 534.372828 287.194049 
L 535.398658 275.880282 
L 536.424488 230.484003 
L 537.450317 290.996886 
L 538.476147 294.35309 
L 539.501976 287.722118 
L 540.527806 256.107478 
L 541.553635 278.138862 
L 542.579465 403.513438 
L 543.605295 287.568697 
L 544.631124 261.660413 
L 545.656954 274.348941 
L 546.682783 249.39596 
L 547.708613 301.191609 
L 548.734443 324.038046 
L 549.760272 320.943348 
L 550.786102 288.24082 
L 551.811931 306.588548 
L 552.837761 422.957988 
L 553.86359 319.844115 
L 554.88942 303.611575 
L 555.91525 301.009353 
L 556.941079 303.259588 
L 557.966909 291.83153 
L 558.992738 300.486853 
L 560.018568 300.911282 
L 561.044397 285.379727 
L 562.070227 276.334141 
L 564.121886 298.706983 
L 565.147716 293.109365 
L 566.173545 293.130992 
L 567.199375 294.242436 
L 568.225205 290.304227 
L 569.251034 295.968053 
L 570.276864 294.543022 
L 571.302693 262.257544 
L 572.328523 284.258176 
L 573.354352 289.218294 
L 574.380182 276.314644 
L 575.406012 264.917568 
L 576.431841 282.011651 
L 577.457671 286.558373 
L 578.4835 267.780686 
L 579.50933 262.801678 
L 580.535159 278.343133 
L 581.560989 277.491429 
L 582.586819 245.202799 
L 583.612648 271.129061 
L 584.638478 251.239267 
L 585.664307 263.587067 
L 586.690137 265.030772 
L 587.715967 243.881245 
L 588.741796 230.729165 
L 589.767626 268.5213 
L 590.793455 271.927295 
L 591.819285 280.782731 
L 592.845114 257.629489 
L 593.870944 301.007039 
L 594.896774 280.855342 
L 595.922603 295.267326 
L 596.948433 305.121894 
L 597.974262 301.533909 
L 599.000092 296.760997 
L 600.025922 280.952602 
L 601.051751 284.262196 
L 602.077581 292.512365 
L 603.10341 287.246749 
L 604.12924 278.690049 
L 605.155069 276.745285 
L 606.180899 287.270517 
L 607.206729 283.824478 
L 608.232558 288.966157 
L 609.258388 290.732356 
L 610.284217 281.142111 
L 611.310047 285.078069 
L 612.335876 268.607195 
L 613.361706 299.491884 
L 614.387536 276.496664 
L 615.413365 280.706286 
L 616.439195 275.421615 
L 617.465024 283.212029 
L 618.490854 324.569223 
L 619.516684 283.499733 
L 620.542513 281.008104 
L 621.568343 284.100124 
L 622.594172 292.130832 
L 623.620002 282.296665 
L 624.645831 282.598746 
L 625.671661 287.924173 
L 626.697491 281.500227 
L 627.72332 265.205603 
L 628.74915 285.146397 
L 629.774979 279.379249 
L 630.800809 278.360543 
L 631.826638 258.994157 
L 632.852468 270.547933 
L 633.878298 248.031306 
L 634.904127 260.6018 
L 635.929957 278.34269 
L 636.955786 250.977578 
L 637.981616 271.332604 
L 639.007446 260.702903 
L 640.033275 223.194118 
L 641.059105 287.433338 
L 642.084934 260.828261 
L 643.110764 255.894222 
L 644.136593 272.355016 
L 645.162423 252.558551 
L 646.188253 281.331968 
L 647.214082 276.456948 
L 648.239912 262.548114 
L 649.265741 265.531312 
L 650.291571 257.014183 
L 651.3174 272.98644 
L 652.34323 274.586431 
L 653.36906 264.197816 
L 654.394889 270.873344 
L 655.420719 258.668769 
L 656.446548 258.992287 
L 658.498208 266.173872 
L 659.524037 259.530197 
L 660.549867 256.648838 
L 661.575696 273.995575 
L 662.601526 316.802414 
L 663.627355 169.873251 
L 664.653185 258.425589 
L 665.679015 234.96179 
L 666.704844 256.887654 
L 667.730674 240.071701 
L 668.756503 264.847551 
L 669.782333 247.983196 
L 670.808163 247.229738 
L 671.833992 458.329319 
L 672.859822 238.777508 
L 673.885651 248.818 
L 674.911481 361.886254 
L 675.93731 237.55068 
L 676.96314 238.942115 
L 677.98897 247.818634 
L 679.014799 250.990727 
L 680.040629 246.605678 
L 681.066458 245.360018 
L 682.092288 250.284614 
L 684.143947 235.182908 
L 685.169777 246.076848 
L 686.195606 261.254313 
L 687.221436 256.931935 
L 688.247265 356.736848 
L 689.273095 245.598176 
L 690.298925 240.913384 
L 691.324754 246.591497 
L 692.350584 227.020747 
L 693.376413 222.096944 
L 694.402243 231.148278 
L 695.428072 215.215388 
L 696.453902 238.656397 
L 697.479732 214.062073 
L 698.505561 225.682512 
L 699.531391 229.567661 
L 700.55722 226.271355 
L 701.58305 222.51706 
L 702.608879 229.279541 
L 703.634709 229.182827 
L 704.660539 242.39796 
L 705.686368 235.351047 
L 706.712198 225.765415 
L 707.738027 219.099253 
L 708.763857 223.783021 
L 709.789687 238.658389 
L 710.815516 235.632734 
L 711.841346 223.705548 
L 712.867175 218.894841 
L 713.893005 222.735017 
L 714.918834 225.908785 
L 715.944664 219.393851 
L 716.970494 223.947502 
L 717.996323 227.636916 
L 719.022153 219.572564 
L 720.047982 250.501142 
L 721.073812 247.006762 
L 722.099642 221.122535 
L 723.125471 219.189962 
L 724.151301 235.52617 
L 725.17713 220.728429 
L 726.20296 222.196724 
L 727.228789 238.097579 
L 728.254619 218.252273 
L 729.280449 226.386898 
L 730.306278 223.331286 
L 731.332108 220.677065 
L 732.357937 203.055272 
L 733.383767 209.077816 
L 734.409596 206.28293 
L 735.435426 217.431893 
L 736.461256 204.944949 
L 737.487085 206.67327 
L 738.512915 216.776511 
L 739.538744 217.715896 
L 740.564574 206.667985 
L 741.590404 184.513685 
L 742.616233 213.312343 
L 743.642063 216.58809 
L 744.667892 192.330997 
L 745.693722 184.622 
L 746.719551 206.346671 
L 747.745381 217.019896 
L 748.771211 235.10784 
L 749.79704 199.062905 
L 750.82287 209.371825 
L 751.848699 198.443857 
L 752.874529 201.680418 
L 753.900358 211.426183 
L 754.926188 204.025264 
L 755.952018 188.791866 
L 756.977847 169.606599 
L 758.003677 199.083889 
L 759.029506 171.135527 
L 760.055336 193.40001 
L 761.081166 204.234446 
L 762.106995 191.745196 
L 763.132825 202.267425 
L 764.158654 206.967071 
L 765.184484 195.031597 
L 766.210313 187.697896 
L 767.236143 192.556886 
L 768.261973 201.441961 
L 769.287802 187.859786 
L 770.313632 189.002126 
L 771.339461 201.850962 
L 772.365291 180.146932 
L 773.391121 184.438563 
L 774.41695 193.632304 
L 775.44278 191.699306 
L 776.468609 197.784566 
L 777.494439 201.850078 
L 778.520268 183.145506 
L 779.546098 197.438923 
L 780.571928 188.176626 
L 781.597757 186.930084 
L 782.623587 207.900186 
L 783.649416 189.960083 
L 784.675246 190.450447 
L 785.701075 193.309033 
L 786.726905 195.718077 
L 787.752735 188.76955 
L 788.778564 213.531551 
L 789.804394 201.917089 
L 790.830223 197.252323 
L 791.856053 187.722486 
L 792.881883 197.108876 
L 793.907712 190.852217 
L 794.933542 189.862034 
L 795.959371 207.614344 
L 796.985201 176.436524 
L 798.01103 172.321569 
L 799.03686 194.950152 
L 800.06269 182.249468 
L 801.088519 197.497197 
L 802.114349 185.415279 
L 803.140178 200.34725 
L 804.166008 198.079525 
L 805.191837 181.651682 
L 807.243497 184.518835 
L 808.269326 186.102932 
L 809.295156 194.760157 
L 810.320985 194.866117 
L 811.346815 314.36814 
L 812.372645 191.433486 
L 813.398474 188.572297 
L 814.424304 182.796677 
L 815.450133 192.099749 
L 816.475963 177.820274 
L 817.501792 188.963324 
L 818.527622 177.906087 
L 819.553452 197.935883 
L 820.579281 193.224437 
L 821.605111 195.033002 
L 822.63094 192.196659 
L 823.65677 198.974207 
L 824.6826 194.831845 
L 825.708429 193.865762 
L 826.734259 195.280729 
L 827.760088 177.419485 
L 828.785918 194.175862 
L 829.811747 186.166675 
L 830.837577 188.214986 
L 831.863407 178.118604 
L 832.889236 186.389678 
L 833.915066 170.731184 
L 834.940895 176.073274 
L 835.966725 203.863378 
L 836.992554 296.539571 
L 838.018384 195.821526 
L 839.044214 192.229326 
L 840.070043 174.258981 
L 841.095873 189.449803 
L 842.121702 185.192997 
L 843.147532 190.890744 
L 844.173362 189.513733 
L 845.199191 181.020156 
L 846.225021 176.805026 
L 847.25085 164.959987 
L 848.27668 173.89276 
L 849.302509 178.001763 
L 850.328339 186.840295 
L 851.354169 204.457363 
L 852.379998 176.112431 
L 853.405828 186.464287 
L 854.431657 193.130894 
L 855.457487 173.423284 
L 856.483316 173.769969 
L 857.509146 192.318126 
L 858.534976 179.942045 
L 859.560805 179.533615 
L 860.586635 182.952171 
L 861.612464 293.792487 
L 862.638294 172.465988 
L 863.664124 172.875156 
L 864.689953 182.59777 
L 865.715783 188.048379 
L 866.741612 170.329267 
L 867.767442 292.867328 
L 868.793271 187.701567 
L 869.819101 190.602181 
L 870.844931 173.312661 
L 871.87076 174.943776 
L 872.89659 191.190051 
L 873.922419 162.027589 
L 874.948249 175.829008 
L 875.974078 167.076558 
L 876.999908 187.831356 
L 878.025738 181.708814 
L 879.051567 179.242465 
L 880.077397 180.860105 
L 881.103226 170.221964 
L 882.129056 164.440296 
L 883.154886 187.272004 
L 884.180715 169.930902 
L 885.206545 157.0525 
L 887.258204 172.072317 
L 888.284033 182.115581 
L 889.309863 211.991989 
L 890.335693 168.283864 
L 891.361522 185.593396 
L 892.387352 173.767216 
L 893.413181 175.537362 
L 894.439011 188.663382 
L 895.464841 174.530485 
L 896.49067 180.762661 
L 897.5165 181.793965 
L 899.568159 169.386189 
L 900.593988 173.628578 
L 902.645648 158.593609 
L 903.671477 176.74901 
L 904.697307 163.355882 
L 905.723136 172.495719 
L 906.748966 158.5198 
L 907.774795 161.5117 
L 908.800625 177.661088 
L 909.826455 154.877885 
L 910.852284 189.05369 
L 911.878114 168.314916 
L 912.903943 178.700507 
L 913.929773 163.419216 
L 914.955603 168.801827 
L 915.981432 168.739439 
L 917.007262 188.335244 
L 918.033091 180.481986 
L 919.058921 181.876775 
L 921.11058 164.562107 
L 922.13641 158.444158 
L 923.162239 168.58475 
L 924.188069 171.163143 
L 925.213898 164.300338 
L 926.239728 163.242123 
L 927.265557 180.374088 
L 928.291387 168.766341 
L 929.317217 183.106324 
L 930.343046 170.667959 
L 931.368876 170.160713 
L 932.394705 165.470393 
L 933.420535 164.862954 
L 934.446365 169.419408 
L 935.472194 168.139203 
L 936.498024 173.417478 
L 937.523853 176.135629 
L 938.549683 152.871331 
L 939.575512 178.441309 
L 940.601342 160.901535 
L 941.627172 176.156922 
L 942.653001 167.208262 
L 943.678831 166.093136 
L 944.70466 165.347416 
L 945.73049 168.594196 
L 946.75632 178.58071 
L 947.782149 166.167075 
L 948.807979 168.507471 
L 949.833808 162.05414 
L 950.859638 170.306366 
L 951.885467 172.830921 
L 952.911297 171.567517 
L 953.937127 162.350008 
L 954.962956 173.558491 
L 955.988786 149.495299 
L 957.014615 155.388232 
L 958.040445 174.899587 
L 959.066274 169.20016 
L 960.092104 160.512478 
L 961.117934 147.681193 
L 962.143763 174.131198 
L 964.195422 161.215437 
L 965.221252 151.291278 
L 966.247082 163.725602 
L 967.272911 164.944693 
L 968.298741 160.971913 
L 969.32457 149.998026 
L 970.3504 150.518539 
L 971.376229 160.64263 
L 972.402059 167.672113 
L 973.427889 171.852536 
L 974.453718 151.104599 
L 975.479548 171.26093 
L 976.505377 163.983358 
L 977.531207 164.548801 
L 978.557036 149.418946 
L 979.582866 163.835915 
L 980.608696 171.611383 
L 981.634525 162.610079 
L 982.660355 163.837409 
L 983.686184 158.060414 
L 984.712014 174.137023 
L 985.737844 154.743438 
L 986.763673 161.473449 
L 987.789503 169.600061 
L 988.815332 169.942361 
L 989.841162 157.759758 
L 990.866991 161.572614 
L 991.892821 162.874352 
L 992.918651 153.160996 
L 993.94448 171.669711 
L 994.97031 256.387625 
L 995.996139 176.120736 
L 997.021969 160.288665 
L 998.047799 154.824226 
L 999.073628 163.144337 
L 1000.099458 157.306426 
L 1001.125287 154.628156 
L 1002.151117 161.811953 
L 1003.176946 157.029334 
L 1004.202776 163.495986 
L 1005.228606 158.837912 
L 1006.254435 161.154524 
L 1007.280265 167.275046 
L 1008.306094 166.629804 
L 1009.331924 150.122551 
L 1010.357753 166.959121 
L 1012.409413 145.828195 
L 1013.435242 162.001007 
L 1014.461072 164.053097 
L 1015.486901 156.475199 
L 1017.538561 170.992818 
L 1018.56439 165.265527 
L 1019.59022 146.561341 
L 1020.616049 160.335884 
L 1021.641879 150.675155 
L 1022.667708 137.243083 
L 1023.693538 163.038361 
L 1024.719368 149.981652 
L 1025.745197 172.648519 
L 1026.771027 161.588068 
L 1027.796856 152.995861 
L 1028.822686 148.739612 
L 1029.848515 161.491539 
L 1030.874345 162.683927 
L 1031.900175 155.502668 
L 1032.926004 140.779822 
L 1033.951834 148.738624 
L 1034.977663 158.841996 
L 1036.003493 145.71529 
L 1037.029323 149.672251 
L 1038.055152 148.719961 
L 1039.080982 136.085273 
L 1040.106811 135.249094 
L 1041.132641 148.646685 
L 1042.15847 144.573357 
L 1043.1843 138.321311 
L 1044.21013 165.031573 
L 1045.235959 156.156908 
L 1046.261789 158.873383 
L 1047.287618 155.88038 
L 1048.313448 142.966311 
L 1049.339278 159.006486 
L 1050.365107 160.85271 
L 1051.390937 160.124429 
L 1052.416766 152.012565 
L 1053.442596 152.749937 
L 1054.468425 162.929628 
L 1055.494255 142.734018 
L 1056.520085 132.256756 
L 1057.545914 155.600936 
L 1058.571744 147.791951 
L 1059.597573 145.917276 
L 1060.623403 149.144149 
L 1061.649232 140.979937 
L 1062.675062 137.13882 
L 1063.700892 137.265961 
L 1064.726721 150.779341 
L 1065.752551 137.58382 
L 1066.77838 150.048883 
L 1067.80421 147.996191 
L 1068.83004 150.764554 
L 1069.855869 150.868329 
L 1070.881699 157.874803 
L 1071.907528 137.091665 
L 1072.933358 164.167381 
L 1073.959187 157.37765 
L 1074.985017 138.559306 
L 1077.036676 154.102455 
L 1078.062506 154.66756 
L 1079.088335 134.738034 
L 1080.114165 146.885296 
L 1081.139994 152.053366 
L 1082.165824 133.622475 
L 1083.191654 147.39172 
L 1084.217483 143.938637 
L 1085.243313 151.706005 
L 1086.269142 154.91936 
L 1087.294972 151.491992 
L 1088.320802 138.347116 
L 1089.346631 141.531563 
L 1090.372461 134.505652 
L 1091.39829 144.883154 
L 1092.42412 141.374081 
L 1093.449949 155.797555 
L 1094.475779 147.292004 
L 1095.501609 146.74971 
L 1096.527438 149.658479 
L 1097.553268 147.222681 
L 1098.579097 165.479472 
L 1099.604927 147.345569 
L 1100.630757 140.817731 
L 1101.656586 142.950778 
L 1102.682416 152.096806 
L 1103.708245 141.242043 
L 1104.734075 153.100016 
L 1105.759904 141.492165 
L 1106.785734 147.808039 
L 1107.811564 149.103915 
L 1108.837393 137.516015 
L 1109.863223 138.450618 
L 1110.889052 133.837954 
L 1111.914882 151.379872 
L 1112.940711 143.039211 
L 1113.966541 135.71892 
L 1116.0182 148.84008 
L 1117.04403 141.121469 
L 1118.069859 138.624292 
L 1120.121519 148.473101 
L 1121.147348 150.644132 
L 1122.173178 144.616939 
L 1123.199007 129.149142 
L 1124.224837 130.966539 
L 1125.250666 139.83327 
L 1126.276496 143.737454 
L 1127.302326 140.833042 
L 1128.328155 146.84023 
L 1129.353985 147.904287 
L 1130.379814 130.742541 
L 1131.405644 144.913193 
L 1132.431473 141.954286 
L 1133.457303 149.133594 
L 1134.483133 158.741148 
L 1135.508962 141.121796 
L 1136.534792 130.891108 
L 1137.560621 148.960365 
L 1138.586451 128.788807 
L 1139.612281 133.577137 
L 1140.63811 144.096528 
L 1141.66394 142.777155 
L 1142.689769 138.274185 
L 1143.715599 124.032222 
L 1144.741428 235.775637 
L 1145.767258 150.067586 
L 1146.793088 158.961757 
L 1147.818917 129.870494 
L 1148.844747 144.308205 
L 1149.870576 134.786015 
L 1150.896406 134.615151 
L 1151.922235 149.609023 
L 1152.948065 146.838269 
L 1153.973895 162.179026 
L 1154.999724 142.545757 
L 1156.025554 145.90589 
L 1157.051383 149.810607 
L 1158.077213 146.442293 
L 1159.103043 136.730419 
L 1160.128872 139.877577 
L 1161.154702 145.043856 
L 1162.180531 140.731454 
L 1163.206361 145.813558 
L 1164.23219 132.685617 
L 1165.25802 127.929453 
L 1166.28385 131.41292 
L 1167.309679 123.864213 
L 1168.335509 137.397584 
L 1169.361338 119.859149 
L 1170.387168 130.327573 
L 1171.412998 129.084514 
L 1172.438827 147.146797 
L 1174.490486 126.753081 
L 1175.516316 139.206498 
L 1176.542145 136.618065 
L 1177.567975 129.124728 
L 1178.593805 137.463646 
L 1179.619634 142.648327 
L 1180.645464 150.153492 
L 1181.671293 132.648222 
L 1182.697123 133.987276 
L 1183.722952 143.508428 
L 1184.748782 133.165992 
L 1185.774612 126.27014 
L 1186.800441 126.435287 
L 1187.826271 136.682281 
L 1189.87793 121.63444 
L 1190.90376 147.481858 
L 1191.929589 130.100064 
L 1192.955419 140.254117 
L 1193.981248 139.565137 
L 1195.007078 135.139073 
L 1196.032907 141.012571 
L 1197.058737 138.670786 
L 1198.084567 124.156542 
L 1199.110396 225.302928 
L 1200.136226 128.556826 
L 1201.162055 126.986932 
L 1202.187885 132.318002 
L 1203.213714 141.345407 
L 1204.239544 125.574495 
L 1205.265374 126.535984 
L 1206.291203 136.307154 
L 1207.317033 140.403676 
L 1208.342862 140.596916 
L 1209.368692 144.498914 
L 1211.420351 130.789206 
L 1212.446181 120.285216 
L 1213.47201 129.612754 
L 1214.49784 155.660678 
L 1215.523669 130.287072 
L 1216.549499 135.254834 
L 1217.575329 133.492178 
L 1218.601158 126.217129 
L 1219.626988 112.104873 
L 1220.652817 136.25909 
L 1221.678647 129.993745 
L 1222.704477 133.256421 
L 1223.730306 133.409314 
L 1224.756136 140.227266 
L 1225.781965 136.989825 
L 1226.807795 132.726383 
L 1227.833624 134.420257 
L 1228.859454 124.308636 
L 1229.885284 133.56579 
L 1230.911113 121.214861 
L 1231.936943 111.6 
L 1232.962772 136.444185 
L 1233.988602 120.507501 
L 1235.014431 135.242017 
L 1236.040261 123.336812 
L 1237.066091 125.633795 
L 1238.09192 129.551737 
L 1239.11775 126.978485 
L 1240.143579 135.145869 
L 1241.169409 134.737313 
L 1242.195239 125.842003 
L 1243.221068 121.548759 
L 1244.246898 131.506995 
L 1245.272727 130.562429 
L 1245.272727 130.562429 
" style="fill:none;stroke:#ff7f0e;stroke-linecap:square;stroke-width:1.5;"/>
   </g>
   <g id="patch_3">
    <path d="M 180 640.8 
L 180 86.4 
" style="fill:none;stroke:#000000;stroke-linecap:square;stroke-linejoin:miter;stroke-width:0.8;"/>
   </g>
   <g id="patch_4">
    <path d="M 1296 640.8 
L 1296 86.4 
" style="fill:none;stroke:#000000;stroke-linecap:square;stroke-linejoin:miter;stroke-width:0.8;"/>
   </g>
   <g id="patch_5">
    <path d="M 180 640.8 
L 1296 640.8 
" style="fill:none;stroke:#000000;stroke-linecap:square;stroke-linejoin:miter;stroke-width:0.8;"/>
   </g>
   <g id="patch_6">
    <path d="M 180 86.4 
L 1296 86.4 
" style="fill:none;stroke:#000000;stroke-linecap:square;stroke-linejoin:miter;stroke-width:0.8;"/>
   </g>
   <g id="text_21">
    <!-- Negative Volume Index (NVI) Speedup -->
    <defs>
     <path d="M 9.8125 72.90625 
L 23.09375 72.90625 
L 55.421875 11.921875 
L 55.421875 72.90625 
L 64.984375 72.90625 
L 64.984375 0 
L 51.703125 0 
L 19.390625 60.984375 
L 19.390625 0 
L 9.8125 0 
z
" id="DejaVuSans-78"/>
     <path d="M 45.40625 27.984375 
Q 45.40625 37.75 41.375 43.109375 
Q 37.359375 48.484375 30.078125 48.484375 
Q 22.859375 48.484375 18.828125 43.109375 
Q 14.796875 37.75 14.796875 27.984375 
Q 14.796875 18.265625 18.828125 12.890625 
Q 22.859375 7.515625 30.078125 7.515625 
Q 37.359375 7.515625 41.375 12.890625 
Q 45.40625 18.265625 45.40625 27.984375 
z
M 54.390625 6.78125 
Q 54.390625 -7.171875 48.1875 -13.984375 
Q 42 -20.796875 29.203125 -20.796875 
Q 24.46875 -20.796875 20.265625 -20.09375 
Q 16.0625 -19.390625 12.109375 -17.921875 
L 12.109375 -9.1875 
Q 16.0625 -11.328125 19.921875 -12.34375 
Q 23.78125 -13.375 27.78125 -13.375 
Q 36.625 -13.375 41.015625 -8.765625 
Q 45.40625 -4.15625 45.40625 5.171875 
L 45.40625 9.625 
Q 42.625 4.78125 38.28125 2.390625 
Q 33.9375 0 27.875 0 
Q 17.828125 0 11.671875 7.65625 
Q 5.515625 15.328125 5.515625 27.984375 
Q 5.515625 40.671875 11.671875 48.328125 
Q 17.828125 56 27.875 56 
Q 33.9375 56 38.28125 53.609375 
Q 42.625 51.21875 45.40625 46.390625 
L 45.40625 54.6875 
L 54.390625 54.6875 
z
" id="DejaVuSans-103"/>
     <path d="M 34.28125 27.484375 
Q 23.390625 27.484375 19.1875 25 
Q 14.984375 22.515625 14.984375 16.5 
Q 14.984375 11.71875 18.140625 8.90625 
Q 21.296875 6.109375 26.703125 6.109375 
Q 34.1875 6.109375 38.703125 11.40625 
Q 43.21875 16.703125 43.21875 25.484375 
L 43.21875 27.484375 
z
M 52.203125 31.203125 
L 52.203125 0 
L 43.21875 0 
L 43.21875 8.296875 
Q 40.140625 3.328125 35.546875 0.953125 
Q 30.953125 -1.421875 24.3125 -1.421875 
Q 15.921875 -1.421875 10.953125 3.296875 
Q 6 8.015625 6 15.921875 
Q 6 25.140625 12.171875 29.828125 
Q 18.359375 34.515625 30.609375 34.515625 
L 43.21875 34.515625 
L 43.21875 35.40625 
Q 43.21875 41.609375 39.140625 45 
Q 35.0625 48.390625 27.6875 48.390625 
Q 23 48.390625 18.546875 47.265625 
Q 14.109375 46.140625 10.015625 43.890625 
L 10.015625 52.203125 
Q 14.9375 54.109375 19.578125 55.046875 
Q 24.21875 56 28.609375 56 
Q 40.484375 56 46.34375 49.84375 
Q 52.203125 43.703125 52.203125 31.203125 
z
" id="DejaVuSans-97"/>
     <path d="M 18.3125 70.21875 
L 18.3125 54.6875 
L 36.8125 54.6875 
L 36.8125 47.703125 
L 18.3125 47.703125 
L 18.3125 18.015625 
Q 18.3125 11.328125 20.140625 9.421875 
Q 21.96875 7.515625 27.59375 7.515625 
L 36.8125 7.515625 
L 36.8125 0 
L 27.59375 0 
Q 17.1875 0 13.234375 3.875 
Q 9.28125 7.765625 9.28125 18.015625 
L 9.28125 47.703125 
L 2.6875 47.703125 
L 2.6875 54.6875 
L 9.28125 54.6875 
L 9.28125 70.21875 
z
" id="DejaVuSans-116"/>
     <path d="M 9.421875 54.6875 
L 18.40625 54.6875 
L 18.40625 0 
L 9.421875 0 
z
M 9.421875 75.984375 
L 18.40625 75.984375 
L 18.40625 64.59375 
L 9.421875 64.59375 
z
" id="DejaVuSans-105"/>
     <path d="M 2.984375 54.6875 
L 12.5 54.6875 
L 29.59375 8.796875 
L 46.6875 54.6875 
L 56.203125 54.6875 
L 35.6875 0 
L 23.484375 0 
z
" id="DejaVuSans-118"/>
     <path id="DejaVuSans-32"/>
     <path d="M 28.609375 0 
L 0.78125 72.90625 
L 11.078125 72.90625 
L 34.1875 11.53125 
L 57.328125 72.90625 
L 67.578125 72.90625 
L 39.796875 0 
z
" id="DejaVuSans-86"/>
     <path d="M 30.609375 48.390625 
Q 23.390625 48.390625 19.1875 42.75 
Q 14.984375 37.109375 14.984375 27.296875 
Q 14.984375 17.484375 19.15625 11.84375 
Q 23.34375 6.203125 30.609375 6.203125 
Q 37.796875 6.203125 41.984375 11.859375 
Q 46.1875 17.53125 46.1875 27.296875 
Q 46.1875 37.015625 41.984375 42.703125 
Q 37.796875 48.390625 30.609375 48.390625 
z
M 30.609375 56 
Q 42.328125 56 49.015625 48.375 
Q 55.71875 40.765625 55.71875 27.296875 
Q 55.71875 13.875 49.015625 6.21875 
Q 42.328125 -1.421875 30.609375 -1.421875 
Q 18.84375 -1.421875 12.171875 6.21875 
Q 5.515625 13.875 5.515625 27.296875 
Q 5.515625 40.765625 12.171875 48.375 
Q 18.84375 56 30.609375 56 
z
" id="DejaVuSans-111"/>
     <path d="M 9.421875 75.984375 
L 18.40625 75.984375 
L 18.40625 0 
L 9.421875 0 
z
" id="DejaVuSans-108"/>
     <path d="M 52 44.1875 
Q 55.375 50.25 60.0625 53.125 
Q 64.75 56 71.09375 56 
Q 79.640625 56 84.28125 50.015625 
Q 88.921875 44.046875 88.921875 33.015625 
L 88.921875 0 
L 79.890625 0 
L 79.890625 32.71875 
Q 79.890625 40.578125 77.09375 44.375 
Q 74.3125 48.1875 68.609375 48.1875 
Q 61.625 48.1875 57.5625 43.546875 
Q 53.515625 38.921875 53.515625 30.90625 
L 53.515625 0 
L 44.484375 0 
L 44.484375 32.71875 
Q 44.484375 40.625 41.703125 44.40625 
Q 38.921875 48.1875 33.109375 48.1875 
Q 26.21875 48.1875 22.15625 43.53125 
Q 18.109375 38.875 18.109375 30.90625 
L 18.109375 0 
L 9.078125 0 
L 9.078125 54.6875 
L 18.109375 54.6875 
L 18.109375 46.1875 
Q 21.1875 51.21875 25.484375 53.609375 
Q 29.78125 56 35.6875 56 
Q 41.65625 56 45.828125 52.96875 
Q 50 49.953125 52 44.1875 
z
" id="DejaVuSans-109"/>
     <path d="M 9.8125 72.90625 
L 19.671875 72.90625 
L 19.671875 0 
L 9.8125 0 
z
" id="DejaVuSans-73"/>
     <path d="M 54.890625 54.6875 
L 35.109375 28.078125 
L 55.90625 0 
L 45.3125 0 
L 29.390625 21.484375 
L 13.484375 0 
L 2.875 0 
L 24.125 28.609375 
L 4.6875 54.6875 
L 15.28125 54.6875 
L 29.78125 35.203125 
L 44.28125 54.6875 
z
" id="DejaVuSans-120"/>
     <path d="M 31 75.875 
Q 24.46875 64.65625 21.28125 53.65625 
Q 18.109375 42.671875 18.109375 31.390625 
Q 18.109375 20.125 21.3125 9.0625 
Q 24.515625 -2 31 -13.1875 
L 23.1875 -13.1875 
Q 15.875 -1.703125 12.234375 9.375 
Q 8.59375 20.453125 8.59375 31.390625 
Q 8.59375 42.28125 12.203125 53.3125 
Q 15.828125 64.359375 23.1875 75.875 
z
" id="DejaVuSans-40"/>
     <path d="M 8.015625 75.875 
L 15.828125 75.875 
Q 23.140625 64.359375 26.78125 53.3125 
Q 30.421875 42.28125 30.421875 31.390625 
Q 30.421875 20.453125 26.78125 9.375 
Q 23.140625 -1.703125 15.828125 -13.1875 
L 8.015625 -13.1875 
Q 14.5 -2 17.703125 9.0625 
Q 20.90625 20.125 20.90625 31.390625 
Q 20.90625 42.671875 17.703125 53.65625 
Q 14.5 64.65625 8.015625 75.875 
z
" id="DejaVuSans-41"/>
     <path d="M 53.515625 70.515625 
L 53.515625 60.890625 
Q 47.90625 63.578125 42.921875 64.890625 
Q 37.9375 66.21875 33.296875 66.21875 
Q 25.25 66.21875 20.875 63.09375 
Q 16.5 59.96875 16.5 54.203125 
Q 16.5 49.359375 19.40625 46.890625 
Q 22.3125 44.4375 30.421875 42.921875 
L 36.375 41.703125 
Q 47.40625 39.59375 52.65625 34.296875 
Q 57.90625 29 57.90625 20.125 
Q 57.90625 9.515625 50.796875 4.046875 
Q 43.703125 -1.421875 29.984375 -1.421875 
Q 24.8125 -1.421875 18.96875 -0.25 
Q 13.140625 0.921875 6.890625 3.21875 
L 6.890625 13.375 
Q 12.890625 10.015625 18.65625 8.296875 
Q 24.421875 6.59375 29.984375 6.59375 
Q 38.421875 6.59375 43.015625 9.90625 
Q 47.609375 13.234375 47.609375 19.390625 
Q 47.609375 24.75 44.3125 27.78125 
Q 41.015625 30.8125 33.5 32.328125 
L 27.484375 33.5 
Q 16.453125 35.6875 11.515625 40.375 
Q 6.59375 45.0625 6.59375 53.421875 
Q 6.59375 63.09375 13.40625 68.65625 
Q 20.21875 74.21875 32.171875 74.21875 
Q 37.3125 74.21875 42.625 73.28125 
Q 47.953125 72.359375 53.515625 70.515625 
z
" id="DejaVuSans-83"/>
    </defs>
    <g transform="translate(623.140313 80.4)scale(0.12 -0.12)">
     <use xlink:href="#DejaVuSans-78"/>
     <use x="74.804688" xlink:href="#DejaVuSans-101"/>
     <use x="136.328125" xlink:href="#DejaVuSans-103"/>
     <use x="199.804688" xlink:href="#DejaVuSans-97"/>
     <use x="261.083984" xlink:href="#DejaVuSans-116"/>
     <use x="300.292969" xlink:href="#DejaVuSans-105"/>
     <use x="328.076172" xlink:href="#DejaVuSans-118"/>
     <use x="387.255859" xlink:href="#DejaVuSans-101"/>
     <use x="448.779297" xlink:href="#DejaVuSans-32"/>
     <use x="480.566406" xlink:href="#DejaVuSans-86"/>
     <use x="541.224609" xlink:href="#DejaVuSans-111"/>
     <use x="602.40625" xlink:href="#DejaVuSans-108"/>
     <use x="630.189453" xlink:href="#DejaVuSans-117"/>
     <use x="693.568359" xlink:href="#DejaVuSans-109"/>
     <use x="790.980469" xlink:href="#DejaVuSans-101"/>
     <use x="852.503906" xlink:href="#DejaVuSans-32"/>
     <use x="884.291016" xlink:href="#DejaVuSans-73"/>
     <use x="913.783203" xlink:href="#DejaVuSans-110"/>
     <use x="977.162109" xlink:href="#DejaVuSans-100"/>
     <use x="1040.638672" xlink:href="#DejaVuSans-101"/>
     <use x="1100.412109" xlink:href="#DejaVuSans-120"/>
     <use x="1159.591797" xlink:href="#DejaVuSans-32"/>
     <use x="1191.378906" xlink:href="#DejaVuSans-40"/>
     <use x="1230.392578" xlink:href="#DejaVuSans-78"/>
     <use x="1305.197266" xlink:href="#DejaVuSans-86"/>
     <use x="1373.605469" xlink:href="#DejaVuSans-73"/>
     <use x="1403.097656" xlink:href="#DejaVuSans-41"/>
     <use x="1442.111328" xlink:href="#DejaVuSans-32"/>
     <use x="1473.898438" xlink:href="#DejaVuSans-83"/>
     <use x="1537.375" xlink:href="#DejaVuSans-112"/>
     <use x="1600.851562" xlink:href="#DejaVuSans-101"/>
     <use x="1662.375" xlink:href="#DejaVuSans-101"/>
     <use x="1723.898438" xlink:href="#DejaVuSans-100"/>
     <use x="1787.375" xlink:href="#DejaVuSans-117"/>
     <use x="1850.753906" xlink:href="#DejaVuSans-112"/>
    </g>
   </g>
   <g id="legend_1">
    <g id="patch_7">
     <path d="M 1185.373437 123.75625 
L 1289 123.75625 
Q 1291 123.75625 1291 121.75625 
L 1291 93.4 
Q 1291 91.4 1289 91.4 
L 1185.373437 91.4 
Q 1183.373437 91.4 1183.373437 93.4 
L 1183.373437 121.75625 
Q 1183.373437 123.75625 1185.373437 123.75625 
z
" style="fill:#ffffff;opacity:0.8;stroke:#cccccc;stroke-linejoin:miter;"/>
    </g>
    <g id="line2d_21">
     <path d="M 1187.373437 99.498437 
L 1207.373437 99.498437 
" style="fill:none;stroke:#1f77b4;stroke-linecap:square;stroke-width:1.5;"/>
    </g>
    <g id="line2d_22"/>
    <g id="text_22">
     <!-- numpy.float32 -->
     <defs>
      <path d="M 32.171875 -5.078125 
Q 28.375 -14.84375 24.75 -17.8125 
Q 21.140625 -20.796875 15.09375 -20.796875 
L 7.90625 -20.796875 
L 7.90625 -13.28125 
L 13.1875 -13.28125 
Q 16.890625 -13.28125 18.9375 -11.515625 
Q 21 -9.765625 23.484375 -3.21875 
L 25.09375 0.875 
L 2.984375 54.6875 
L 12.5 54.6875 
L 29.59375 11.921875 
L 46.6875 54.6875 
L 56.203125 54.6875 
z
" id="DejaVuSans-121"/>
      <path d="M 37.109375 75.984375 
L 37.109375 68.5 
L 28.515625 68.5 
Q 23.6875 68.5 21.796875 66.546875 
Q 19.921875 64.59375 19.921875 59.515625 
L 19.921875 54.6875 
L 34.71875 54.6875 
L 34.71875 47.703125 
L 19.921875 47.703125 
L 19.921875 0 
L 10.890625 0 
L 10.890625 47.703125 
L 2.296875 47.703125 
L 2.296875 54.6875 
L 10.890625 54.6875 
L 10.890625 58.5 
Q 10.890625 67.625 15.140625 71.796875 
Q 19.390625 75.984375 28.609375 75.984375 
z
" id="DejaVuSans-102"/>
     </defs>
     <g transform="translate(1215.373437 102.998437)scale(0.1 -0.1)">
      <use xlink:href="#DejaVuSans-110"/>
      <use x="63.378906" xlink:href="#DejaVuSans-117"/>
      <use x="126.757812" xlink:href="#DejaVuSans-109"/>
      <use x="224.169922" xlink:href="#DejaVuSans-112"/>
      <use x="287.646484" xlink:href="#DejaVuSans-121"/>
      <use x="332.576172" xlink:href="#DejaVuSans-46"/>
      <use x="364.363281" xlink:href="#DejaVuSans-102"/>
      <use x="399.568359" xlink:href="#DejaVuSans-108"/>
      <use x="427.351562" xlink:href="#DejaVuSans-111"/>
      <use x="488.533203" xlink:href="#DejaVuSans-97"/>
      <use x="549.8125" xlink:href="#DejaVuSans-116"/>
      <use x="589.021484" xlink:href="#DejaVuSans-51"/>
      <use x="652.644531" xlink:href="#DejaVuSans-50"/>
     </g>
    </g>
    <g id="line2d_23">
     <path d="M 1187.373437 114.176562 
L 1207.373437 114.176562 
" style="fill:none;stroke:#ff7f0e;stroke-linecap:square;stroke-width:1.5;"/>
    </g>
    <g id="line2d_24"/>
    <g id="text_23">
     <!-- numpy.float64 -->
     <g transform="translate(1215.373437 117.676562)scale(0.1 -0.1)">
      <use xlink:href="#DejaVuSans-110"/>
      <use x="63.378906" xlink:href="#DejaVuSans-117"/>
      <use x="126.757812" xlink:href="#DejaVuSans-109"/>
      <use x="224.169922" xlink:href="#DejaVuSans-112"/>
      <use x="287.646484" xlink:href="#DejaVuSans-121"/>
      <use x="332.576172" xlink:href="#DejaVuSans-46"/>
      <use x="364.363281" xlink:href="#DejaVuSans-102"/>
      <use x="399.568359" xlink:href="#DejaVuSans-108"/>
      <use x="427.351562" xlink:href="#DejaVuSans-111"/>
      <use x="488.533203" xlink:href="#DejaVuSans-97"/>
      <use x="549.8125" xlink:href="#DejaVuSans-116"/>
      <use x="589.021484" xlink:href="#DejaVuSans-54"/>
      <use x="652.644531" xlink:href="#DejaVuSans-52"/>
     </g>
    </g>
   </g>
  </g>
 </g>
 <defs>
  <clipPath id="p0f39886b13">
   <rect height="554.4" width="1116" x="180" y="86.4"/>
  </clipPath>
 </defs>
</svg>
