<?xml version="1.0" encoding="utf-8" standalone="no"?>
<!DOCTYPE svg PUBLIC "-//W3C//DTD SVG 1.1//EN"
  "http://www.w3.org/Graphics/SVG/1.1/DTD/svg11.dtd">
<!-- Created with matplotlib (https://matplotlib.org/) -->
<svg height="720pt" version="1.1" viewBox="0 0 1440 720" width="1440pt" xmlns="http://www.w3.org/2000/svg" xmlns:xlink="http://www.w3.org/1999/xlink">
 <defs>
  <style type="text/css">
*{stroke-linecap:butt;stroke-linejoin:round;}
  </style>
 </defs>
 <g id="figure_1">
  <g id="patch_1">
   <path d="M 0 720 
L 1440 720 
L 1440 0 
L 0 0 
z
" style="fill:#ffffff;"/>
  </g>
  <g id="axes_1">
   <g id="patch_2">
    <path d="M 180 640.8 
L 1296 640.8 
L 1296 86.4 
L 180 86.4 
z
" style="fill:#ffffff;"/>
   </g>
   <g id="matplotlib.axis_1">
    <g id="xtick_1">
     <g id="line2d_1">
      <defs>
       <path d="M 0 0 
L 0 3.5 
" id="m4246f2b130" style="stroke:#000000;stroke-width:0.8;"/>
      </defs>
      <g>
       <use style="stroke:#000000;stroke-width:0.8;" x="333.310231" xlink:href="#m4246f2b130" y="640.8"/>
      </g>
     </g>
     <g id="text_1">
      <!-- 100.0 -->
      <defs>
       <path d="M 12.40625 8.296875 
L 28.515625 8.296875 
L 28.515625 63.921875 
L 10.984375 60.40625 
L 10.984375 69.390625 
L 28.421875 72.90625 
L 38.28125 72.90625 
L 38.28125 8.296875 
L 54.390625 8.296875 
L 54.390625 0 
L 12.40625 0 
z
" id="DejaVuSans-49"/>
       <path d="M 31.78125 66.40625 
Q 24.171875 66.40625 20.328125 58.90625 
Q 16.5 51.421875 16.5 36.375 
Q 16.5 21.390625 20.328125 13.890625 
Q 24.171875 6.390625 31.78125 6.390625 
Q 39.453125 6.390625 43.28125 13.890625 
Q 47.125 21.390625 47.125 36.375 
Q 47.125 51.421875 43.28125 58.90625 
Q 39.453125 66.40625 31.78125 66.40625 
z
M 31.78125 74.21875 
Q 44.046875 74.21875 50.515625 64.515625 
Q 56.984375 54.828125 56.984375 36.375 
Q 56.984375 17.96875 50.515625 8.265625 
Q 44.046875 -1.421875 31.78125 -1.421875 
Q 19.53125 -1.421875 13.0625 8.265625 
Q 6.59375 17.96875 6.59375 36.375 
Q 6.59375 54.828125 13.0625 64.515625 
Q 19.53125 74.21875 31.78125 74.21875 
z
" id="DejaVuSans-48"/>
       <path d="M 10.6875 12.40625 
L 21 12.40625 
L 21 0 
L 10.6875 0 
z
" id="DejaVuSans-46"/>
      </defs>
      <g transform="translate(318.996168 655.398438)scale(0.1 -0.1)">
       <use xlink:href="#DejaVuSans-49"/>
       <use x="63.623047" xlink:href="#DejaVuSans-48"/>
       <use x="127.246094" xlink:href="#DejaVuSans-48"/>
       <use x="190.869141" xlink:href="#DejaVuSans-46"/>
       <use x="222.65625" xlink:href="#DejaVuSans-48"/>
      </g>
     </g>
    </g>
    <g id="xtick_2">
     <g id="line2d_2">
      <g>
       <use style="stroke:#000000;stroke-width:0.8;" x="435.893189" xlink:href="#m4246f2b130" y="640.8"/>
      </g>
     </g>
     <g id="text_2">
      <!-- 200.0 -->
      <defs>
       <path d="M 19.1875 8.296875 
L 53.609375 8.296875 
L 53.609375 0 
L 7.328125 0 
L 7.328125 8.296875 
Q 12.9375 14.109375 22.625 23.890625 
Q 32.328125 33.6875 34.8125 36.53125 
Q 39.546875 41.84375 41.421875 45.53125 
Q 43.3125 49.21875 43.3125 52.78125 
Q 43.3125 58.59375 39.234375 62.25 
Q 35.15625 65.921875 28.609375 65.921875 
Q 23.96875 65.921875 18.8125 64.3125 
Q 13.671875 62.703125 7.8125 59.421875 
L 7.8125 69.390625 
Q 13.765625 71.78125 18.9375 73 
Q 24.125 74.21875 28.421875 74.21875 
Q 39.75 74.21875 46.484375 68.546875 
Q 53.21875 62.890625 53.21875 53.421875 
Q 53.21875 48.921875 51.53125 44.890625 
Q 49.859375 40.875 45.40625 35.40625 
Q 44.1875 33.984375 37.640625 27.21875 
Q 31.109375 20.453125 19.1875 8.296875 
z
" id="DejaVuSans-50"/>
      </defs>
      <g transform="translate(421.579126 655.398438)scale(0.1 -0.1)">
       <use xlink:href="#DejaVuSans-50"/>
       <use x="63.623047" xlink:href="#DejaVuSans-48"/>
       <use x="127.246094" xlink:href="#DejaVuSans-48"/>
       <use x="190.869141" xlink:href="#DejaVuSans-46"/>
       <use x="222.65625" xlink:href="#DejaVuSans-48"/>
      </g>
     </g>
    </g>
    <g id="xtick_3">
     <g id="line2d_3">
      <g>
       <use style="stroke:#000000;stroke-width:0.8;" x="538.476147" xlink:href="#m4246f2b130" y="640.8"/>
      </g>
     </g>
     <g id="text_3">
      <!-- 300.0 -->
      <defs>
       <path d="M 40.578125 39.3125 
Q 47.65625 37.796875 51.625 33 
Q 55.609375 28.21875 55.609375 21.1875 
Q 55.609375 10.40625 48.1875 4.484375 
Q 40.765625 -1.421875 27.09375 -1.421875 
Q 22.515625 -1.421875 17.65625 -0.515625 
Q 12.796875 0.390625 7.625 2.203125 
L 7.625 11.71875 
Q 11.71875 9.328125 16.59375 8.109375 
Q 21.484375 6.890625 26.8125 6.890625 
Q 36.078125 6.890625 40.9375 10.546875 
Q 45.796875 14.203125 45.796875 21.1875 
Q 45.796875 27.640625 41.28125 31.265625 
Q 36.765625 34.90625 28.71875 34.90625 
L 20.21875 34.90625 
L 20.21875 43.015625 
L 29.109375 43.015625 
Q 36.375 43.015625 40.234375 45.921875 
Q 44.09375 48.828125 44.09375 54.296875 
Q 44.09375 59.90625 40.109375 62.90625 
Q 36.140625 65.921875 28.71875 65.921875 
Q 24.65625 65.921875 20.015625 65.03125 
Q 15.375 64.15625 9.8125 62.3125 
L 9.8125 71.09375 
Q 15.4375 72.65625 20.34375 73.4375 
Q 25.25 74.21875 29.59375 74.21875 
Q 40.828125 74.21875 47.359375 69.109375 
Q 53.90625 64.015625 53.90625 55.328125 
Q 53.90625 49.265625 50.4375 45.09375 
Q 46.96875 40.921875 40.578125 39.3125 
z
" id="DejaVuSans-51"/>
      </defs>
      <g transform="translate(524.162084 655.398438)scale(0.1 -0.1)">
       <use xlink:href="#DejaVuSans-51"/>
       <use x="63.623047" xlink:href="#DejaVuSans-48"/>
       <use x="127.246094" xlink:href="#DejaVuSans-48"/>
       <use x="190.869141" xlink:href="#DejaVuSans-46"/>
       <use x="222.65625" xlink:href="#DejaVuSans-48"/>
      </g>
     </g>
    </g>
    <g id="xtick_4">
     <g id="line2d_4">
      <g>
       <use style="stroke:#000000;stroke-width:0.8;" x="641.059105" xlink:href="#m4246f2b130" y="640.8"/>
      </g>
     </g>
     <g id="text_4">
      <!-- 400.0 -->
      <defs>
       <path d="M 37.796875 64.3125 
L 12.890625 25.390625 
L 37.796875 25.390625 
z
M 35.203125 72.90625 
L 47.609375 72.90625 
L 47.609375 25.390625 
L 58.015625 25.390625 
L 58.015625 17.1875 
L 47.609375 17.1875 
L 47.609375 0 
L 37.796875 0 
L 37.796875 17.1875 
L 4.890625 17.1875 
L 4.890625 26.703125 
z
" id="DejaVuSans-52"/>
      </defs>
      <g transform="translate(626.745042 655.398438)scale(0.1 -0.1)">
       <use xlink:href="#DejaVuSans-52"/>
       <use x="63.623047" xlink:href="#DejaVuSans-48"/>
       <use x="127.246094" xlink:href="#DejaVuSans-48"/>
       <use x="190.869141" xlink:href="#DejaVuSans-46"/>
       <use x="222.65625" xlink:href="#DejaVuSans-48"/>
      </g>
     </g>
    </g>
    <g id="xtick_5">
     <g id="line2d_5">
      <g>
       <use style="stroke:#000000;stroke-width:0.8;" x="743.642063" xlink:href="#m4246f2b130" y="640.8"/>
      </g>
     </g>
     <g id="text_5">
      <!-- 500.0 -->
      <defs>
       <path d="M 10.796875 72.90625 
L 49.515625 72.90625 
L 49.515625 64.59375 
L 19.828125 64.59375 
L 19.828125 46.734375 
Q 21.96875 47.46875 24.109375 47.828125 
Q 26.265625 48.1875 28.421875 48.1875 
Q 40.625 48.1875 47.75 41.5 
Q 54.890625 34.8125 54.890625 23.390625 
Q 54.890625 11.625 47.5625 5.09375 
Q 40.234375 -1.421875 26.90625 -1.421875 
Q 22.3125 -1.421875 17.546875 -0.640625 
Q 12.796875 0.140625 7.71875 1.703125 
L 7.71875 11.625 
Q 12.109375 9.234375 16.796875 8.0625 
Q 21.484375 6.890625 26.703125 6.890625 
Q 35.15625 6.890625 40.078125 11.328125 
Q 45.015625 15.765625 45.015625 23.390625 
Q 45.015625 31 40.078125 35.4375 
Q 35.15625 39.890625 26.703125 39.890625 
Q 22.75 39.890625 18.8125 39.015625 
Q 14.890625 38.140625 10.796875 36.28125 
z
" id="DejaVuSans-53"/>
      </defs>
      <g transform="translate(729.328 655.398438)scale(0.1 -0.1)">
       <use xlink:href="#DejaVuSans-53"/>
       <use x="63.623047" xlink:href="#DejaVuSans-48"/>
       <use x="127.246094" xlink:href="#DejaVuSans-48"/>
       <use x="190.869141" xlink:href="#DejaVuSans-46"/>
       <use x="222.65625" xlink:href="#DejaVuSans-48"/>
      </g>
     </g>
    </g>
    <g id="xtick_6">
     <g id="line2d_6">
      <g>
       <use style="stroke:#000000;stroke-width:0.8;" x="846.225021" xlink:href="#m4246f2b130" y="640.8"/>
      </g>
     </g>
     <g id="text_6">
      <!-- 600.0 -->
      <defs>
       <path d="M 33.015625 40.375 
Q 26.375 40.375 22.484375 35.828125 
Q 18.609375 31.296875 18.609375 23.390625 
Q 18.609375 15.53125 22.484375 10.953125 
Q 26.375 6.390625 33.015625 6.390625 
Q 39.65625 6.390625 43.53125 10.953125 
Q 47.40625 15.53125 47.40625 23.390625 
Q 47.40625 31.296875 43.53125 35.828125 
Q 39.65625 40.375 33.015625 40.375 
z
M 52.59375 71.296875 
L 52.59375 62.3125 
Q 48.875 64.0625 45.09375 64.984375 
Q 41.3125 65.921875 37.59375 65.921875 
Q 27.828125 65.921875 22.671875 59.328125 
Q 17.53125 52.734375 16.796875 39.40625 
Q 19.671875 43.65625 24.015625 45.921875 
Q 28.375 48.1875 33.59375 48.1875 
Q 44.578125 48.1875 50.953125 41.515625 
Q 57.328125 34.859375 57.328125 23.390625 
Q 57.328125 12.15625 50.6875 5.359375 
Q 44.046875 -1.421875 33.015625 -1.421875 
Q 20.359375 -1.421875 13.671875 8.265625 
Q 6.984375 17.96875 6.984375 36.375 
Q 6.984375 53.65625 15.1875 63.9375 
Q 23.390625 74.21875 37.203125 74.21875 
Q 40.921875 74.21875 44.703125 73.484375 
Q 48.484375 72.75 52.59375 71.296875 
z
" id="DejaVuSans-54"/>
      </defs>
      <g transform="translate(831.910958 655.398438)scale(0.1 -0.1)">
       <use xlink:href="#DejaVuSans-54"/>
       <use x="63.623047" xlink:href="#DejaVuSans-48"/>
       <use x="127.246094" xlink:href="#DejaVuSans-48"/>
       <use x="190.869141" xlink:href="#DejaVuSans-46"/>
       <use x="222.65625" xlink:href="#DejaVuSans-48"/>
      </g>
     </g>
    </g>
    <g id="xtick_7">
     <g id="line2d_7">
      <g>
       <use style="stroke:#000000;stroke-width:0.8;" x="948.807979" xlink:href="#m4246f2b130" y="640.8"/>
      </g>
     </g>
     <g id="text_7">
      <!-- 700.0 -->
      <defs>
       <path d="M 8.203125 72.90625 
L 55.078125 72.90625 
L 55.078125 68.703125 
L 28.609375 0 
L 18.3125 0 
L 43.21875 64.59375 
L 8.203125 64.59375 
z
" id="DejaVuSans-55"/>
      </defs>
      <g transform="translate(934.493916 655.398438)scale(0.1 -0.1)">
       <use xlink:href="#DejaVuSans-55"/>
       <use x="63.623047" xlink:href="#DejaVuSans-48"/>
       <use x="127.246094" xlink:href="#DejaVuSans-48"/>
       <use x="190.869141" xlink:href="#DejaVuSans-46"/>
       <use x="222.65625" xlink:href="#DejaVuSans-48"/>
      </g>
     </g>
    </g>
    <g id="xtick_8">
     <g id="line2d_8">
      <g>
       <use style="stroke:#000000;stroke-width:0.8;" x="1051.390937" xlink:href="#m4246f2b130" y="640.8"/>
      </g>
     </g>
     <g id="text_8">
      <!-- 800.0 -->
      <defs>
       <path d="M 31.78125 34.625 
Q 24.75 34.625 20.71875 30.859375 
Q 16.703125 27.09375 16.703125 20.515625 
Q 16.703125 13.921875 20.71875 10.15625 
Q 24.75 6.390625 31.78125 6.390625 
Q 38.8125 6.390625 42.859375 10.171875 
Q 46.921875 13.96875 46.921875 20.515625 
Q 46.921875 27.09375 42.890625 30.859375 
Q 38.875 34.625 31.78125 34.625 
z
M 21.921875 38.8125 
Q 15.578125 40.375 12.03125 44.71875 
Q 8.5 49.078125 8.5 55.328125 
Q 8.5 64.0625 14.71875 69.140625 
Q 20.953125 74.21875 31.78125 74.21875 
Q 42.671875 74.21875 48.875 69.140625 
Q 55.078125 64.0625 55.078125 55.328125 
Q 55.078125 49.078125 51.53125 44.71875 
Q 48 40.375 41.703125 38.8125 
Q 48.828125 37.15625 52.796875 32.3125 
Q 56.78125 27.484375 56.78125 20.515625 
Q 56.78125 9.90625 50.3125 4.234375 
Q 43.84375 -1.421875 31.78125 -1.421875 
Q 19.734375 -1.421875 13.25 4.234375 
Q 6.78125 9.90625 6.78125 20.515625 
Q 6.78125 27.484375 10.78125 32.3125 
Q 14.796875 37.15625 21.921875 38.8125 
z
M 18.3125 54.390625 
Q 18.3125 48.734375 21.84375 45.5625 
Q 25.390625 42.390625 31.78125 42.390625 
Q 38.140625 42.390625 41.71875 45.5625 
Q 45.3125 48.734375 45.3125 54.390625 
Q 45.3125 60.0625 41.71875 63.234375 
Q 38.140625 66.40625 31.78125 66.40625 
Q 25.390625 66.40625 21.84375 63.234375 
Q 18.3125 60.0625 18.3125 54.390625 
z
" id="DejaVuSans-56"/>
      </defs>
      <g transform="translate(1037.076874 655.398438)scale(0.1 -0.1)">
       <use xlink:href="#DejaVuSans-56"/>
       <use x="63.623047" xlink:href="#DejaVuSans-48"/>
       <use x="127.246094" xlink:href="#DejaVuSans-48"/>
       <use x="190.869141" xlink:href="#DejaVuSans-46"/>
       <use x="222.65625" xlink:href="#DejaVuSans-48"/>
      </g>
     </g>
    </g>
    <g id="xtick_9">
     <g id="line2d_9">
      <g>
       <use style="stroke:#000000;stroke-width:0.8;" x="1153.973895" xlink:href="#m4246f2b130" y="640.8"/>
      </g>
     </g>
     <g id="text_9">
      <!-- 900.0 -->
      <defs>
       <path d="M 10.984375 1.515625 
L 10.984375 10.5 
Q 14.703125 8.734375 18.5 7.8125 
Q 22.3125 6.890625 25.984375 6.890625 
Q 35.75 6.890625 40.890625 13.453125 
Q 46.046875 20.015625 46.78125 33.40625 
Q 43.953125 29.203125 39.59375 26.953125 
Q 35.25 24.703125 29.984375 24.703125 
Q 19.046875 24.703125 12.671875 31.3125 
Q 6.296875 37.9375 6.296875 49.421875 
Q 6.296875 60.640625 12.9375 67.421875 
Q 19.578125 74.21875 30.609375 74.21875 
Q 43.265625 74.21875 49.921875 64.515625 
Q 56.59375 54.828125 56.59375 36.375 
Q 56.59375 19.140625 48.40625 8.859375 
Q 40.234375 -1.421875 26.421875 -1.421875 
Q 22.703125 -1.421875 18.890625 -0.6875 
Q 15.09375 0.046875 10.984375 1.515625 
z
M 30.609375 32.421875 
Q 37.25 32.421875 41.125 36.953125 
Q 45.015625 41.5 45.015625 49.421875 
Q 45.015625 57.28125 41.125 61.84375 
Q 37.25 66.40625 30.609375 66.40625 
Q 23.96875 66.40625 20.09375 61.84375 
Q 16.21875 57.28125 16.21875 49.421875 
Q 16.21875 41.5 20.09375 36.953125 
Q 23.96875 32.421875 30.609375 32.421875 
z
" id="DejaVuSans-57"/>
      </defs>
      <g transform="translate(1139.659832 655.398438)scale(0.1 -0.1)">
       <use xlink:href="#DejaVuSans-57"/>
       <use x="63.623047" xlink:href="#DejaVuSans-48"/>
       <use x="127.246094" xlink:href="#DejaVuSans-48"/>
       <use x="190.869141" xlink:href="#DejaVuSans-46"/>
       <use x="222.65625" xlink:href="#DejaVuSans-48"/>
      </g>
     </g>
    </g>
    <g id="xtick_10">
     <g id="line2d_10">
      <g>
       <use style="stroke:#000000;stroke-width:0.8;" x="1256.556853" xlink:href="#m4246f2b130" y="640.8"/>
      </g>
     </g>
     <g id="text_10">
      <!-- 1000.0 -->
      <g transform="translate(1239.06154 655.398438)scale(0.1 -0.1)">
       <use xlink:href="#DejaVuSans-49"/>
       <use x="63.623047" xlink:href="#DejaVuSans-48"/>
       <use x="127.246094" xlink:href="#DejaVuSans-48"/>
       <use x="190.869141" xlink:href="#DejaVuSans-48"/>
       <use x="254.492188" xlink:href="#DejaVuSans-46"/>
       <use x="286.279297" xlink:href="#DejaVuSans-48"/>
      </g>
     </g>
    </g>
    <g id="text_11">
     <!-- n -->
     <defs>
      <path d="M 54.890625 33.015625 
L 54.890625 0 
L 45.90625 0 
L 45.90625 32.71875 
Q 45.90625 40.484375 42.875 44.328125 
Q 39.84375 48.1875 33.796875 48.1875 
Q 26.515625 48.1875 22.3125 43.546875 
Q 18.109375 38.921875 18.109375 30.90625 
L 18.109375 0 
L 9.078125 0 
L 9.078125 54.6875 
L 18.109375 54.6875 
L 18.109375 46.1875 
Q 21.34375 51.125 25.703125 53.5625 
Q 30.078125 56 35.796875 56 
Q 45.21875 56 50.046875 50.171875 
Q 54.890625 44.34375 54.890625 33.015625 
z
" id="DejaVuSans-110"/>
     </defs>
     <g transform="translate(734.83125 669.076563)scale(0.1 -0.1)">
      <use xlink:href="#DejaVuSans-110"/>
     </g>
    </g>
   </g>
   <g id="matplotlib.axis_2">
    <g id="ytick_1">
     <g id="line2d_11">
      <defs>
       <path d="M 0 0 
L -3.5 0 
" id="m8c2dc30657" style="stroke:#000000;stroke-width:0.8;"/>
      </defs>
      <g>
       <use style="stroke:#000000;stroke-width:0.8;" x="180" xlink:href="#m8c2dc30657" y="544.927107"/>
      </g>
     </g>
     <g id="text_12">
      <!-- 50 -->
      <g transform="translate(160.275 548.726326)scale(0.1 -0.1)">
       <use xlink:href="#DejaVuSans-53"/>
       <use x="63.623047" xlink:href="#DejaVuSans-48"/>
      </g>
     </g>
    </g>
    <g id="ytick_2">
     <g id="line2d_12">
      <g>
       <use style="stroke:#000000;stroke-width:0.8;" x="180" xlink:href="#m8c2dc30657" y="437.925648"/>
      </g>
     </g>
     <g id="text_13">
      <!-- 100 -->
      <g transform="translate(153.9125 441.724867)scale(0.1 -0.1)">
       <use xlink:href="#DejaVuSans-49"/>
       <use x="63.623047" xlink:href="#DejaVuSans-48"/>
       <use x="127.246094" xlink:href="#DejaVuSans-48"/>
      </g>
     </g>
    </g>
    <g id="ytick_3">
     <g id="line2d_13">
      <g>
       <use style="stroke:#000000;stroke-width:0.8;" x="180" xlink:href="#m8c2dc30657" y="330.924189"/>
      </g>
     </g>
     <g id="text_14">
      <!-- 150 -->
      <g transform="translate(153.9125 334.723408)scale(0.1 -0.1)">
       <use xlink:href="#DejaVuSans-49"/>
       <use x="63.623047" xlink:href="#DejaVuSans-53"/>
       <use x="127.246094" xlink:href="#DejaVuSans-48"/>
      </g>
     </g>
    </g>
    <g id="ytick_4">
     <g id="line2d_14">
      <g>
       <use style="stroke:#000000;stroke-width:0.8;" x="180" xlink:href="#m8c2dc30657" y="223.92273"/>
      </g>
     </g>
     <g id="text_15">
      <!-- 200 -->
      <g transform="translate(153.9125 227.721949)scale(0.1 -0.1)">
       <use xlink:href="#DejaVuSans-50"/>
       <use x="63.623047" xlink:href="#DejaVuSans-48"/>
       <use x="127.246094" xlink:href="#DejaVuSans-48"/>
      </g>
     </g>
    </g>
    <g id="ytick_5">
     <g id="line2d_15">
      <g>
       <use style="stroke:#000000;stroke-width:0.8;" x="180" xlink:href="#m8c2dc30657" y="116.921271"/>
      </g>
     </g>
     <g id="text_16">
      <!-- 250 -->
      <g transform="translate(153.9125 120.720489)scale(0.1 -0.1)">
       <use xlink:href="#DejaVuSans-50"/>
       <use x="63.623047" xlink:href="#DejaVuSans-53"/>
       <use x="127.246094" xlink:href="#DejaVuSans-48"/>
      </g>
     </g>
    </g>
    <g id="text_17">
     <!-- speedup -->
     <defs>
      <path d="M 44.28125 53.078125 
L 44.28125 44.578125 
Q 40.484375 46.53125 36.375 47.5 
Q 32.28125 48.484375 27.875 48.484375 
Q 21.1875 48.484375 17.84375 46.4375 
Q 14.5 44.390625 14.5 40.28125 
Q 14.5 37.15625 16.890625 35.375 
Q 19.28125 33.59375 26.515625 31.984375 
L 29.59375 31.296875 
Q 39.15625 29.25 43.1875 25.515625 
Q 47.21875 21.78125 47.21875 15.09375 
Q 47.21875 7.46875 41.1875 3.015625 
Q 35.15625 -1.421875 24.609375 -1.421875 
Q 20.21875 -1.421875 15.453125 -0.5625 
Q 10.6875 0.296875 5.421875 2 
L 5.421875 11.28125 
Q 10.40625 8.6875 15.234375 7.390625 
Q 20.0625 6.109375 24.8125 6.109375 
Q 31.15625 6.109375 34.5625 8.28125 
Q 37.984375 10.453125 37.984375 14.40625 
Q 37.984375 18.0625 35.515625 20.015625 
Q 33.0625 21.96875 24.703125 23.78125 
L 21.578125 24.515625 
Q 13.234375 26.265625 9.515625 29.90625 
Q 5.8125 33.546875 5.8125 39.890625 
Q 5.8125 47.609375 11.28125 51.796875 
Q 16.75 56 26.8125 56 
Q 31.78125 56 36.171875 55.265625 
Q 40.578125 54.546875 44.28125 53.078125 
z
" id="DejaVuSans-115"/>
      <path d="M 18.109375 8.203125 
L 18.109375 -20.796875 
L 9.078125 -20.796875 
L 9.078125 54.6875 
L 18.109375 54.6875 
L 18.109375 46.390625 
Q 20.953125 51.265625 25.265625 53.625 
Q 29.59375 56 35.59375 56 
Q 45.5625 56 51.78125 48.09375 
Q 58.015625 40.1875 58.015625 27.296875 
Q 58.015625 14.40625 51.78125 6.484375 
Q 45.5625 -1.421875 35.59375 -1.421875 
Q 29.59375 -1.421875 25.265625 0.953125 
Q 20.953125 3.328125 18.109375 8.203125 
z
M 48.6875 27.296875 
Q 48.6875 37.203125 44.609375 42.84375 
Q 40.53125 48.484375 33.40625 48.484375 
Q 26.265625 48.484375 22.1875 42.84375 
Q 18.109375 37.203125 18.109375 27.296875 
Q 18.109375 17.390625 22.1875 11.75 
Q 26.265625 6.109375 33.40625 6.109375 
Q 40.53125 6.109375 44.609375 11.75 
Q 48.6875 17.390625 48.6875 27.296875 
z
" id="DejaVuSans-112"/>
      <path d="M 56.203125 29.59375 
L 56.203125 25.203125 
L 14.890625 25.203125 
Q 15.484375 15.921875 20.484375 11.0625 
Q 25.484375 6.203125 34.421875 6.203125 
Q 39.59375 6.203125 44.453125 7.46875 
Q 49.3125 8.734375 54.109375 11.28125 
L 54.109375 2.78125 
Q 49.265625 0.734375 44.1875 -0.34375 
Q 39.109375 -1.421875 33.890625 -1.421875 
Q 20.796875 -1.421875 13.15625 6.1875 
Q 5.515625 13.8125 5.515625 26.8125 
Q 5.515625 40.234375 12.765625 48.109375 
Q 20.015625 56 32.328125 56 
Q 43.359375 56 49.78125 48.890625 
Q 56.203125 41.796875 56.203125 29.59375 
z
M 47.21875 32.234375 
Q 47.125 39.59375 43.09375 43.984375 
Q 39.0625 48.390625 32.421875 48.390625 
Q 24.90625 48.390625 20.390625 44.140625 
Q 15.875 39.890625 15.1875 32.171875 
z
" id="DejaVuSans-101"/>
      <path d="M 45.40625 46.390625 
L 45.40625 75.984375 
L 54.390625 75.984375 
L 54.390625 0 
L 45.40625 0 
L 45.40625 8.203125 
Q 42.578125 3.328125 38.25 0.953125 
Q 33.9375 -1.421875 27.875 -1.421875 
Q 17.96875 -1.421875 11.734375 6.484375 
Q 5.515625 14.40625 5.515625 27.296875 
Q 5.515625 40.1875 11.734375 48.09375 
Q 17.96875 56 27.875 56 
Q 33.9375 56 38.25 53.625 
Q 42.578125 51.265625 45.40625 46.390625 
z
M 14.796875 27.296875 
Q 14.796875 17.390625 18.875 11.75 
Q 22.953125 6.109375 30.078125 6.109375 
Q 37.203125 6.109375 41.296875 11.75 
Q 45.40625 17.390625 45.40625 27.296875 
Q 45.40625 37.203125 41.296875 42.84375 
Q 37.203125 48.484375 30.078125 48.484375 
Q 22.953125 48.484375 18.875 42.84375 
Q 14.796875 37.203125 14.796875 27.296875 
z
" id="DejaVuSans-100"/>
      <path d="M 8.5 21.578125 
L 8.5 54.6875 
L 17.484375 54.6875 
L 17.484375 21.921875 
Q 17.484375 14.15625 20.5 10.265625 
Q 23.53125 6.390625 29.59375 6.390625 
Q 36.859375 6.390625 41.078125 11.03125 
Q 45.3125 15.671875 45.3125 23.6875 
L 45.3125 54.6875 
L 54.296875 54.6875 
L 54.296875 0 
L 45.3125 0 
L 45.3125 8.40625 
Q 42.046875 3.421875 37.71875 1 
Q 33.40625 -1.421875 27.6875 -1.421875 
Q 18.265625 -1.421875 13.375 4.4375 
Q 8.5 10.296875 8.5 21.578125 
z
M 31.109375 56 
z
" id="DejaVuSans-117"/>
     </defs>
     <g transform="translate(147.832812 385.049219)rotate(-90)scale(0.1 -0.1)">
      <use xlink:href="#DejaVuSans-115"/>
      <use x="52.099609" xlink:href="#DejaVuSans-112"/>
      <use x="115.576172" xlink:href="#DejaVuSans-101"/>
      <use x="177.099609" xlink:href="#DejaVuSans-101"/>
      <use x="238.623047" xlink:href="#DejaVuSans-100"/>
      <use x="302.099609" xlink:href="#DejaVuSans-117"/>
      <use x="365.478516" xlink:href="#DejaVuSans-112"/>
     </g>
    </g>
   </g>
   <g id="line2d_16">
    <path clip-path="url(#pb4cd3132ea)" d="M 230.727273 411.475148 
L 231.753102 431.410081 
L 232.778932 144.331487 
L 233.804761 438.030741 
L 234.830591 126.102594 
L 235.856421 439.210233 
L 236.88225 430.231405 
L 237.90808 165.975676 
L 238.933909 465.307958 
L 239.959739 437.311278 
L 240.985569 158.561602 
L 242.011398 436.980445 
L 243.037228 183.942918 
L 244.063057 509.445109 
L 245.088887 440.126455 
L 246.114716 191.128114 
L 247.140546 241.670131 
L 248.166376 217.518275 
L 249.192205 232.382129 
L 250.218035 226.538593 
L 251.243864 241.373963 
L 252.269694 244.202973 
L 253.295523 231.920568 
L 254.321353 254.959766 
L 255.347183 253.45938 
L 256.373012 268.833934 
L 257.398842 263.14205 
L 258.424671 258.080591 
L 259.450501 260.306679 
L 260.476331 267.219991 
L 261.50216 282.338022 
L 263.553819 274.942392 
L 264.579649 283.465935 
L 265.605478 288.237104 
L 266.631308 284.230218 
L 267.657138 320.797306 
L 268.682967 287.202263 
L 269.708797 284.647096 
L 270.734626 291.081773 
L 271.760456 293.05401 
L 272.786286 301.710048 
L 273.812115 302.056638 
L 274.837945 302.746359 
L 275.863774 307.318958 
L 276.889604 315.516422 
L 277.915433 314.386513 
L 279.967093 334.740522 
L 280.992922 334.797898 
L 282.018752 326.491812 
L 283.044581 328.25163 
L 284.070411 330.554414 
L 285.09624 333.717194 
L 286.12207 342.859855 
L 288.173729 335.829761 
L 289.199559 343.265485 
L 290.225388 343.038883 
L 291.251218 346.695677 
L 292.277048 344.526271 
L 293.302877 350.146307 
L 294.328707 355.0617 
L 295.354536 353.815721 
L 296.380366 372.574937 
L 297.406195 364.152243 
L 298.432025 356.717037 
L 299.457855 358.060112 
L 300.483684 346.003545 
L 301.509514 364.107939 
L 302.535343 361.047924 
L 303.561173 368.242889 
L 304.587002 367.633908 
L 305.612832 370.001356 
L 306.638662 393.840658 
L 307.664491 378.532639 
L 308.690321 370.80513 
L 309.71615 376.042328 
L 310.74198 383.115442 
L 311.76781 379.321009 
L 312.793639 378.001256 
L 313.819469 377.53357 
L 314.845298 387.662964 
L 315.871128 381.011072 
L 316.896957 408.468861 
L 317.922787 387.740153 
L 318.948617 390.579542 
L 319.974446 388.574421 
L 321.000276 381.452975 
L 322.026105 293.856444 
L 323.051935 488.416094 
L 324.077765 393.632732 
L 325.103594 382.311707 
L 326.129424 409.81884 
L 327.155253 329.848919 
L 328.181083 478.627282 
L 329.206912 396.278327 
L 330.232742 408.614388 
L 331.258572 395.975111 
L 332.284401 403.835298 
L 333.310231 406.361748 
L 334.33606 412.286054 
L 335.36189 421.499146 
L 336.387719 404.640665 
L 337.413549 403.91663 
L 338.439379 389.331517 
L 339.465208 411.738925 
L 340.491038 412.462042 
L 341.516867 404.300456 
L 342.542697 414.327499 
L 343.568527 415.692286 
L 344.594356 414.044661 
L 345.620186 416.052711 
L 346.646015 416.540873 
L 347.671845 413.630701 
L 348.697674 424.437275 
L 349.723504 421.691132 
L 350.749334 416.833186 
L 351.775163 421.990517 
L 352.800993 421.012336 
L 353.826822 424.513916 
L 354.852652 427.289596 
L 355.878481 426.757459 
L 356.904311 428.72583 
L 357.930141 432.357262 
L 358.95597 430.25628 
L 359.9818 435.8733 
L 361.007629 446.778859 
L 362.033459 432.392657 
L 363.059289 434.977484 
L 364.085118 436.745059 
L 365.110948 433.835592 
L 366.136777 441.47157 
L 367.162607 434.031536 
L 368.188436 440.000348 
L 369.214266 439.267414 
L 370.240096 425.53214 
L 371.265925 437.582471 
L 372.291755 442.907263 
L 373.317584 440.728503 
L 374.343414 446.14217 
L 375.369243 442.79778 
L 376.395073 440.920424 
L 377.420903 443.040646 
L 378.446732 446.780501 
L 379.472562 442.143829 
L 380.498391 446.315778 
L 381.524221 443.009189 
L 382.550051 477.8634 
L 383.57588 447.476597 
L 384.60171 453.230085 
L 385.627539 454.535772 
L 386.653369 457.576285 
L 387.679198 452.671578 
L 388.705028 452.129254 
L 389.730858 450.827377 
L 390.756687 457.189586 
L 391.782517 456.236134 
L 392.808346 457.754323 
L 394.860006 458.36202 
L 395.885835 460.347063 
L 396.911665 458.670259 
L 397.937494 460.263344 
L 398.963324 464.32867 
L 399.989153 459.902966 
L 401.014983 464.128039 
L 402.040813 465.513725 
L 403.066642 471.318986 
L 404.092472 467.496991 
L 405.118301 464.140849 
L 406.144131 477.816769 
L 407.16996 469.278142 
L 408.19579 468.72396 
L 409.22162 473.518763 
L 410.247449 465.977382 
L 411.273279 464.782745 
L 412.299108 472.401279 
L 413.324938 471.946746 
L 414.350768 469.178583 
L 415.376597 472.926723 
L 416.402427 472.964276 
L 417.428256 474.631783 
L 418.454086 475.796633 
L 419.479915 474.077769 
L 420.505745 475.675801 
L 421.531575 475.365284 
L 422.557404 474.610629 
L 423.583234 479.28554 
L 424.609063 477.50951 
L 425.634893 477.536738 
L 426.660722 484.723134 
L 427.686552 479.919323 
L 428.712382 481.224508 
L 429.738211 481.765217 
L 430.764041 485.135097 
L 431.78987 482.868925 
L 432.8157 481.854634 
L 433.84153 482.43833 
L 434.867359 480.202615 
L 435.893189 484.554853 
L 436.919018 487.237245 
L 437.944848 587.266054 
L 438.970677 487.119134 
L 439.996507 487.928199 
L 441.022337 492.597777 
L 442.048166 485.520756 
L 443.073996 486.151897 
L 444.099825 489.240832 
L 445.125655 487.722053 
L 446.151485 488.562337 
L 447.177314 488.208616 
L 448.203144 491.271912 
L 449.228973 500.815098 
L 450.254803 490.254225 
L 451.280632 492.382592 
L 452.306462 491.599306 
L 453.332292 493.979601 
L 454.358121 493.134306 
L 455.383951 496.397077 
L 456.40978 494.883808 
L 457.43561 492.254079 
L 458.461439 496.800177 
L 460.513099 501.394634 
L 461.538928 496.814298 
L 462.564758 495.005007 
L 463.590587 498.885465 
L 464.616417 499.613017 
L 465.642247 495.867714 
L 466.668076 500.055344 
L 467.693906 500.612863 
L 468.719735 503.744741 
L 469.745565 500.906982 
L 470.771394 501.083678 
L 471.797224 502.275263 
L 472.823054 502.769021 
L 473.848883 501.744958 
L 474.874713 503.026773 
L 475.900542 504.809402 
L 476.926372 494.49128 
L 477.952201 504.068851 
L 478.978031 503.872156 
L 480.003861 505.973766 
L 481.02969 505.092956 
L 482.05552 514.530734 
L 483.081349 507.620304 
L 484.107179 506.361516 
L 485.133009 507.674874 
L 486.158838 508.483955 
L 487.184668 506.501457 
L 488.210497 510.214378 
L 489.236327 511.867261 
L 490.262156 512.136224 
L 491.287986 509.605567 
L 492.313816 510.77876 
L 493.339645 509.802727 
L 494.365475 511.442624 
L 495.391304 517.504611 
L 496.417134 512.388812 
L 497.442964 512.122956 
L 498.468793 512.907628 
L 499.494623 514.258894 
L 500.520452 514.126152 
L 501.546282 513.815757 
L 502.572111 513.327744 
L 503.597941 513.408541 
L 504.623771 516.051948 
L 505.6496 512.997361 
L 506.67543 514.467102 
L 507.701259 517.234576 
L 508.727089 519.031531 
L 509.752918 516.596719 
L 510.778748 515.737798 
L 511.804578 517.391595 
L 512.830407 519.962687 
L 513.856237 521.077443 
L 515.907896 516.497956 
L 516.933726 518.616553 
L 517.959555 519.310774 
L 518.985385 522.824311 
L 520.011214 520.690297 
L 521.037044 502.543041 
L 522.062873 520.336542 
L 523.088703 521.973785 
L 524.114533 524.677046 
L 525.140362 521.307269 
L 526.166192 520.388831 
L 527.192021 522.617289 
L 528.217851 521.100791 
L 529.24368 523.062882 
L 530.26951 522.864114 
L 531.29534 522.980069 
L 532.321169 523.742526 
L 533.346999 510.481618 
L 534.372828 524.922053 
L 535.398658 524.668784 
L 536.424488 529.754885 
L 537.450317 525.240313 
L 538.476147 524.997557 
L 539.501976 526.676545 
L 540.527806 526.725654 
L 541.553635 534.117551 
L 542.579465 529.331304 
L 543.605295 525.95017 
L 544.631124 529.754793 
L 545.656954 530.255527 
L 546.682783 531.456447 
L 547.708613 529.338645 
L 548.734443 528.625768 
L 549.760272 529.660548 
L 550.786102 529.138076 
L 551.811931 468.044836 
L 552.837761 537.21436 
L 553.86359 531.911014 
L 554.88942 531.097515 
L 555.91525 536.363142 
L 556.941079 531.578079 
L 557.966909 530.65133 
L 558.992738 541.890261 
L 560.018568 533.66372 
L 561.044397 534.728286 
L 562.070227 534.440584 
L 563.096057 533.777965 
L 564.121886 532.574332 
L 565.147716 532.842531 
L 566.173545 534.104018 
L 567.199375 535.876075 
L 568.225205 536.538307 
L 569.251034 534.996275 
L 570.276864 532.588392 
L 571.302693 535.639085 
L 572.328523 533.416208 
L 573.354352 535.280915 
L 575.406012 539.502068 
L 576.431841 538.669986 
L 577.457671 535.571898 
L 578.4835 537.334373 
L 579.50933 535.486161 
L 580.535159 538.838839 
L 581.560989 539.826221 
L 582.586819 542.385849 
L 583.612648 539.933433 
L 584.638478 539.036093 
L 585.664307 539.002462 
L 586.690137 540.420325 
L 587.715967 539.831751 
L 588.741796 548.520173 
L 589.767626 540.27762 
L 590.793455 540.590912 
L 591.819285 537.219916 
L 592.845114 539.160095 
L 593.870944 538.696056 
L 594.896774 541.230453 
L 595.922603 540.433797 
L 596.948433 543.490049 
L 599.000092 541.131335 
L 600.025922 542.438208 
L 601.051751 538.95884 
L 602.077581 542.22397 
L 603.10341 542.453091 
L 604.12924 544.49492 
L 605.155069 543.026197 
L 606.180899 546.750453 
L 607.206729 542.84081 
L 608.232558 542.414515 
L 609.258388 544.61779 
L 610.284217 543.998021 
L 611.310047 544.97562 
L 613.361706 546.429732 
L 614.387536 545.648908 
L 615.413365 548.788211 
L 616.439195 544.621787 
L 617.465024 544.745782 
L 618.490854 546.410854 
L 619.516684 544.566945 
L 621.568343 547.316926 
L 622.594172 547.633675 
L 623.620002 547.042868 
L 624.645831 550.653818 
L 625.671661 548.350383 
L 626.697491 546.928747 
L 627.72332 548.252629 
L 628.74915 546.912585 
L 629.774979 548.339878 
L 631.826638 549.476876 
L 632.852468 549.135605 
L 633.878298 552.198729 
L 634.904127 549.543178 
L 635.929957 549.201486 
L 636.955786 550.875466 
L 637.981616 547.80287 
L 639.007446 538.223499 
L 640.033275 548.416729 
L 641.059105 550.470668 
L 642.084934 492.193696 
L 643.110764 553.19274 
L 644.136593 557.856145 
L 645.162423 546.457223 
L 646.188253 572.688926 
L 647.214082 510.384607 
L 648.239912 517.136579 
L 649.265741 557.629964 
L 650.291571 553.203231 
L 651.3174 554.947716 
L 652.34323 552.798213 
L 653.36906 551.459957 
L 654.394889 553.793668 
L 655.420719 553.389146 
L 656.446548 553.120411 
L 657.472378 552.594148 
L 658.498208 554.304028 
L 659.524037 554.347578 
L 660.549867 555.472741 
L 661.575696 555.664287 
L 662.601526 555.639826 
L 663.627355 559.907846 
L 664.653185 555.368663 
L 665.679015 556.431803 
L 666.704844 557.087101 
L 667.730674 557.262675 
L 668.756503 559.217467 
L 669.782333 557.678672 
L 671.833992 555.722641 
L 672.859822 555.254583 
L 673.885651 558.565509 
L 674.911481 557.413668 
L 675.93731 558.62978 
L 676.96314 558.042082 
L 677.98897 557.849895 
L 679.014799 558.982377 
L 680.040629 559.443206 
L 681.066458 559.084276 
L 682.092288 560.578093 
L 683.118117 560.164857 
L 684.143947 560.461285 
L 685.169777 559.13035 
L 686.195606 560.696935 
L 687.221436 559.882205 
L 688.247265 562.376216 
L 689.273095 561.862915 
L 690.298925 561.148546 
L 691.324754 559.474305 
L 692.350584 560.164773 
L 693.376413 561.378884 
L 694.402243 559.924359 
L 695.428072 562.41976 
L 696.453902 559.811617 
L 697.479732 560.950606 
L 698.505561 561.294222 
L 699.531391 562.848198 
L 700.55722 561.315365 
L 701.58305 563.585546 
L 702.608879 562.558302 
L 703.634709 562.711077 
L 704.660539 563.094974 
L 705.686368 564.179019 
L 706.712198 563.076256 
L 707.738027 565.558754 
L 708.763857 564.105857 
L 709.789687 565.370774 
L 710.815516 564.986989 
L 711.841346 565.734387 
L 712.867175 565.289838 
L 714.918834 568.748727 
L 715.944664 565.964271 
L 716.970494 566.054497 
L 717.996323 567.967901 
L 719.022153 565.930673 
L 720.047982 568.699919 
L 721.073812 567.343835 
L 722.099642 569.031955 
L 723.125471 567.121283 
L 724.151301 588.542147 
L 725.17713 566.601147 
L 726.20296 566.005482 
L 727.228789 567.718711 
L 728.254619 566.191479 
L 729.280449 566.968912 
L 730.306278 515.173363 
L 731.332108 569.583584 
L 732.357937 568.187001 
L 733.383767 567.943485 
L 734.409596 568.142829 
L 735.435426 567.53174 
L 736.461256 568.342731 
L 737.487085 567.533784 
L 738.512915 574.666908 
L 739.538744 568.246431 
L 740.564574 568.882936 
L 741.590404 568.446064 
L 742.616233 569.467972 
L 743.642063 568.789183 
L 744.667892 569.707304 
L 745.693722 569.211563 
L 746.719551 569.784246 
L 747.745381 569.131654 
L 748.771211 569.955501 
L 749.79704 568.798722 
L 750.82287 570.202637 
L 751.848699 569.936395 
L 752.874529 571.116844 
L 753.900358 570.533886 
L 754.926188 571.07631 
L 755.952018 571.389073 
L 756.977847 570.220378 
L 758.003677 569.575998 
L 759.029506 570.740007 
L 760.055336 569.399896 
L 761.081166 571.075319 
L 762.106995 569.776766 
L 763.132825 570.834411 
L 764.158654 570.047325 
L 765.184484 571.490442 
L 766.210313 570.634258 
L 767.236143 571.310989 
L 768.261973 570.078684 
L 769.287802 571.940018 
L 770.313632 570.714229 
L 771.339461 572.610413 
L 772.365291 571.832002 
L 773.391121 572.243762 
L 774.41695 571.615952 
L 775.44278 572.690022 
L 776.468609 571.614678 
L 777.494439 572.957009 
L 778.520268 564.46276 
L 779.546098 572.534561 
L 780.571928 574.146839 
L 781.597757 573.077828 
L 782.623587 574.600613 
L 783.649416 573.582216 
L 784.675246 574.594063 
L 785.701075 574.108403 
L 786.726905 573.943118 
L 787.752735 573.417141 
L 788.778564 574.25657 
L 789.804394 573.558788 
L 790.830223 575.01369 
L 791.856053 573.047414 
L 792.881883 570.560104 
L 793.907712 552.983124 
L 794.933542 573.367024 
L 795.959371 573.577518 
L 796.985201 575.234406 
L 798.01103 576.378453 
L 799.03686 574.788811 
L 800.06269 576.328644 
L 801.088519 575.235597 
L 802.114349 575.728727 
L 803.140178 576.080431 
L 804.166008 576.673921 
L 805.191837 575.462011 
L 806.217667 574.465903 
L 807.243497 574.548841 
L 808.269326 576.062074 
L 809.295156 574.020092 
L 810.320985 575.909044 
L 811.346815 575.112332 
L 812.372645 577.122883 
L 813.398474 575.728451 
L 815.450133 578.154847 
L 816.475963 576.555611 
L 817.501792 577.451756 
L 818.527622 577.039245 
L 819.553452 577.831296 
L 820.579281 577.522036 
L 821.605111 578.094037 
L 822.63094 576.871386 
L 823.65677 577.569763 
L 824.6826 576.619672 
L 825.708429 577.565283 
L 826.734259 576.717744 
L 827.760088 578.031879 
L 828.785918 577.72234 
L 829.811747 578.400404 
L 830.837577 579.538957 
L 831.863407 578.749608 
L 832.889236 579.190222 
L 833.915066 578.629473 
L 834.940895 579.178043 
L 835.966725 578.029552 
L 836.992554 579.420854 
L 838.018384 578.516865 
L 839.044214 578.675243 
L 840.070043 578.293652 
L 841.095873 579.291087 
L 842.121702 580.79223 
L 843.147532 580.381827 
L 844.173362 582.402439 
L 845.199191 579.766613 
L 846.225021 580.625318 
L 847.25085 578.697945 
L 848.27668 580.030371 
L 849.302509 579.385126 
L 851.354169 580.491235 
L 852.379998 580.682042 
L 853.405828 581.338034 
L 855.457487 580.578361 
L 857.509146 580.367875 
L 859.560805 581.248844 
L 860.586635 580.83745 
L 861.612464 581.411795 
L 862.638294 582.48047 
L 863.664124 581.496292 
L 864.689953 581.312052 
L 865.715783 580.372156 
L 866.741612 582.166505 
L 867.767442 580.41713 
L 868.793271 581.808435 
L 869.819101 581.137137 
L 870.844931 582.593823 
L 871.87076 583.077514 
L 872.89659 581.989882 
L 873.922419 582.692921 
L 874.948249 581.2612 
L 875.974078 582.162255 
L 876.999908 581.706421 
L 878.025738 582.774604 
L 879.051567 582.995902 
L 880.077397 582.844746 
L 881.103226 582.974578 
L 882.129056 582.816984 
L 883.154886 583.070622 
L 884.180715 581.80098 
L 885.206545 582.978922 
L 886.232374 582.111087 
L 887.258204 584.227786 
L 888.284033 584.589436 
L 889.309863 583.43614 
L 890.335693 583.794518 
L 891.361522 582.903058 
L 892.387352 584.135027 
L 893.413181 582.64975 
L 894.439011 583.832297 
L 895.464841 584.492316 
L 896.49067 583.447427 
L 897.5165 583.91918 
L 898.542329 583.182705 
L 899.568159 583.736374 
L 900.593988 583.303742 
L 901.619818 584.420478 
L 902.645648 584.954299 
L 903.671477 586.382999 
L 904.697307 585.155774 
L 905.723136 584.127264 
L 906.748966 584.35367 
L 907.774795 584.127187 
L 908.800625 584.647491 
L 909.826455 586.030468 
L 910.852284 585.30938 
L 912.903943 584.798002 
L 913.929773 585.00316 
L 914.955603 584.850729 
L 915.981432 584.979808 
L 917.007262 585.360101 
L 918.033091 584.978393 
L 919.058921 585.725083 
L 920.08475 583.981322 
L 921.11058 585.756771 
L 922.13641 586.419506 
L 923.162239 586.061263 
L 924.188069 586.12051 
L 925.213898 585.248272 
L 926.239728 581.589686 
L 927.265557 584.73543 
L 928.291387 586.350617 
L 929.317217 586.64719 
L 930.343046 586.223701 
L 931.368876 586.911896 
L 932.394705 574.688123 
L 933.420535 586.470168 
L 934.446365 588.654856 
L 935.472194 586.832225 
L 936.498024 587.978959 
L 937.523853 585.116633 
L 938.549683 586.721754 
L 939.575512 587.881916 
L 940.601342 586.923421 
L 941.627172 587.988884 
L 942.653001 586.538197 
L 943.678831 587.692607 
L 944.70466 587.393972 
L 945.73049 587.319258 
L 946.75632 588.02523 
L 947.782149 586.637468 
L 948.807979 587.488817 
L 949.833808 586.80635 
L 950.859638 588.093489 
L 951.885467 587.812757 
L 952.911297 587.027764 
L 953.937127 588.305193 
L 954.962956 588.313555 
L 955.988786 589.030084 
L 957.014615 588.881118 
L 958.040445 587.735729 
L 959.066274 588.515722 
L 960.092104 588.237778 
L 961.117934 589.084327 
L 962.143763 589.419437 
L 963.169593 588.987722 
L 964.195422 589.198726 
L 965.221252 588.427681 
L 966.247082 589.939933 
L 967.272911 589.683678 
L 968.298741 588.379251 
L 969.32457 589.739933 
L 970.3504 588.695669 
L 971.376229 589.82346 
L 972.402059 589.985798 
L 973.427889 588.606807 
L 974.453718 589.331544 
L 975.479548 588.369388 
L 976.505377 590.645042 
L 977.531207 590.320058 
L 978.557036 589.553997 
L 979.582866 590.042953 
L 980.608696 589.372063 
L 981.634525 590.507906 
L 982.660355 590.109626 
L 983.686184 589.576481 
L 985.737844 591.20915 
L 986.763673 590.333261 
L 987.789503 590.632152 
L 988.815332 589.393805 
L 989.841162 591.040261 
L 990.866991 591.487288 
L 991.892821 590.855445 
L 992.918651 591.15192 
L 993.94448 590.4724 
L 994.97031 590.978079 
L 995.996139 591.296746 
L 997.021969 590.779234 
L 998.047799 588.023184 
L 999.073628 591.00927 
L 1000.099458 591.319496 
L 1001.125287 591.16355 
L 1002.151117 590.842989 
L 1003.176946 591.431337 
L 1004.202776 592.693155 
L 1005.228606 591.16796 
L 1006.254435 592.29814 
L 1007.280265 591.373399 
L 1009.331924 592.327007 
L 1010.357753 590.994035 
L 1012.409413 592.807726 
L 1013.435242 591.944844 
L 1014.461072 592.285476 
L 1015.486901 591.767179 
L 1017.538561 592.863113 
L 1018.56439 591.881998 
L 1020.616049 593.433486 
L 1021.641879 592.621052 
L 1022.667708 592.697097 
L 1023.693538 592.204337 
L 1024.719368 593.468485 
L 1025.745197 593.028245 
L 1026.771027 592.077064 
L 1027.796856 592.83639 
L 1028.822686 593.903661 
L 1029.848515 593.013232 
L 1030.874345 594.117555 
L 1031.900175 592.48244 
L 1032.926004 593.313349 
L 1033.951834 593.701699 
L 1034.977663 592.358625 
L 1036.003493 593.506089 
L 1037.029323 594.293691 
L 1038.055152 593.739223 
L 1039.080982 594.016555 
L 1040.106811 591.875563 
L 1041.132641 593.893063 
L 1042.15847 594.150762 
L 1043.1843 593.223463 
L 1044.21013 594.698454 
L 1046.261789 593.737389 
L 1047.287618 594.02734 
L 1048.313448 595.109988 
L 1049.339278 594.243881 
L 1050.365107 594.561012 
L 1051.390937 594.032309 
L 1053.442596 594.650017 
L 1054.468425 594.176627 
L 1056.520085 594.853692 
L 1057.545914 593.996541 
L 1058.571744 594.770478 
L 1059.597573 595.2776 
L 1060.623403 594.273473 
L 1061.649232 594.980106 
L 1062.675062 595.518534 
L 1063.700892 595.369892 
L 1064.726721 595.623703 
L 1066.77838 595.27144 
L 1067.80421 595.715077 
L 1068.83004 595.032966 
L 1069.855869 596.097414 
L 1070.881699 596.264582 
L 1071.907528 594.978076 
L 1073.959187 596.220631 
L 1074.985017 595.191181 
L 1077.036676 596.603401 
L 1078.062506 594.256305 
L 1079.088335 596.030614 
L 1080.114165 596.926462 
L 1081.139994 595.940567 
L 1082.165824 596.246328 
L 1083.191654 606.54226 
L 1084.217483 596.097486 
L 1085.243313 596.814721 
L 1086.269142 595.992027 
L 1087.294972 596.425615 
L 1088.320802 597.014431 
L 1089.346631 595.607435 
L 1090.372461 596.171956 
L 1091.39829 597.183831 
L 1092.42412 596.037035 
L 1093.449949 596.739266 
L 1094.475779 597.259658 
L 1095.501609 596.141096 
L 1096.527438 597.0354 
L 1097.553268 597.349087 
L 1098.579097 596.353941 
L 1099.604927 597.191539 
L 1100.630757 597.533928 
L 1101.656586 596.547447 
L 1102.682416 593.69897 
L 1103.708245 594.354451 
L 1104.734075 596.892267 
L 1106.785734 598.029735 
L 1107.811564 597.414689 
L 1108.837393 597.294125 
L 1109.863223 598.363302 
L 1110.889052 597.361754 
L 1111.914882 597.712017 
L 1113.966541 597.654052 
L 1114.992371 597.729306 
L 1116.0182 598.189979 
L 1118.069859 598.134654 
L 1119.095689 598.410415 
L 1120.121519 597.822636 
L 1121.147348 597.854392 
L 1122.173178 598.207246 
L 1123.199007 607.731364 
L 1124.224837 598.23963 
L 1125.250666 598.475055 
L 1126.276496 598.995117 
L 1127.302326 597.964065 
L 1128.328155 598.520868 
L 1129.353985 599.330606 
L 1130.379814 598.71105 
L 1131.405644 598.968219 
L 1132.431473 599.59218 
L 1133.457303 598.357452 
L 1135.508962 599.816363 
L 1136.534792 595.756895 
L 1137.560621 599.029671 
L 1138.586451 599.552829 
L 1139.612281 598.320533 
L 1140.63811 599.083416 
L 1141.66394 599.528735 
L 1142.689769 598.751153 
L 1143.715599 599.244839 
L 1144.741428 600.014727 
L 1145.767258 598.995951 
L 1147.818917 599.825518 
L 1148.844747 599.019911 
L 1149.870576 599.535588 
L 1150.896406 596.664683 
L 1151.922235 608.476602 
L 1152.948065 599.097794 
L 1153.973895 600.668158 
L 1154.999724 600.515482 
L 1156.025554 598.904388 
L 1157.051383 600.088876 
L 1158.077213 600.057216 
L 1159.103043 599.264247 
L 1160.128872 600.043264 
L 1161.154702 600.195758 
L 1162.180531 594.435472 
L 1163.206361 600.189723 
L 1164.23219 600.372935 
L 1165.25802 615.6 
L 1166.28385 600.539792 
L 1167.309679 600.615002 
L 1168.335509 600.872242 
L 1169.361338 600.053037 
L 1170.387168 600.644432 
L 1171.412998 600.840624 
L 1172.438827 600.510169 
L 1173.464657 601.136308 
L 1174.490486 601.053361 
L 1175.516316 590.471121 
L 1176.542145 601.418043 
L 1177.567975 601.211523 
L 1178.593805 601.24494 
L 1179.619634 600.333313 
L 1180.645464 601.63535 
L 1181.671293 581.292547 
L 1182.697123 597.767355 
L 1183.722952 589.177562 
L 1184.748782 587.693021 
L 1185.774612 588.915104 
L 1186.800441 581.887514 
L 1187.826271 571.957626 
L 1188.8521 581.405872 
L 1189.87793 581.101578 
L 1190.90376 601.109667 
L 1191.929589 596.841397 
L 1192.955419 596.583595 
L 1193.981248 597.465713 
L 1195.007078 592.863859 
L 1196.032907 581.974893 
L 1197.058737 586.761066 
L 1198.084567 597.57996 
L 1199.110396 570.379234 
L 1200.136226 579.54779 
L 1201.162055 592.044637 
L 1202.187885 586.032279 
L 1203.213714 586.661524 
L 1204.239544 597.841525 
L 1205.265374 576.798261 
L 1206.291203 588.921581 
L 1207.317033 575.562107 
L 1208.342862 584.726302 
L 1209.368692 582.171683 
L 1210.394522 580.196037 
L 1211.420351 579.836095 
L 1212.446181 580.318022 
L 1213.47201 597.514736 
L 1214.49784 585.668847 
L 1215.523669 603.467063 
L 1216.549499 603.109619 
L 1217.575329 602.547779 
L 1218.601158 602.954051 
L 1219.626988 603.208701 
L 1220.652817 602.267733 
L 1221.678647 602.759462 
L 1222.704477 602.820576 
L 1223.730306 602.317498 
L 1224.756136 602.294705 
L 1225.781965 602.776581 
L 1226.807795 603.430211 
L 1227.833624 602.378266 
L 1228.859454 603.024241 
L 1229.885284 601.021127 
L 1230.911113 603.57726 
L 1231.936943 602.620262 
L 1232.962772 603.753021 
L 1233.988602 603.534679 
L 1235.014431 602.747625 
L 1236.040261 603.273159 
L 1238.09192 603.949324 
L 1239.11775 602.783151 
L 1240.143579 603.379905 
L 1241.169409 603.61245 
L 1242.195239 603.251071 
L 1244.246898 603.642055 
L 1245.272727 604.152019 
L 1245.272727 604.152019 
" style="fill:none;stroke:#1f77b4;stroke-linecap:square;stroke-width:1.5;"/>
   </g>
   <g id="line2d_17">
    <path clip-path="url(#pb4cd3132ea)" d="M 230.727273 246.597662 
L 231.753102 128.136521 
L 232.778932 111.6 
L 233.804761 183.147259 
L 234.830591 154.790543 
L 236.88225 167.201056 
L 237.90808 193.427796 
L 238.933909 169.709742 
L 239.959739 184.373815 
L 240.985569 213.608048 
L 242.011398 181.49787 
L 243.037228 208.779691 
L 244.063057 199.701716 
L 246.114716 224.135837 
L 247.140546 217.09625 
L 249.192205 228.290292 
L 250.218035 230.332933 
L 251.243864 241.406504 
L 252.269694 244.150389 
L 253.295523 248.673652 
L 254.321353 267.657077 
L 255.347183 251.990473 
L 257.398842 276.357425 
L 258.424671 269.459596 
L 259.450501 274.562883 
L 260.476331 287.617308 
L 261.50216 280.368665 
L 262.52799 288.877175 
L 263.553819 283.849193 
L 264.579649 299.771611 
L 265.605478 290.1131 
L 266.631308 295.837664 
L 267.657138 283.644993 
L 268.682967 307.118395 
L 269.708797 291.117968 
L 270.734626 283.884329 
L 271.760456 294.505195 
L 272.786286 294.996282 
L 273.812115 301.71412 
L 274.837945 330.733786 
L 275.863774 308.606791 
L 276.889604 312.954583 
L 277.915433 304.65733 
L 278.941263 317.807331 
L 279.967093 315.027792 
L 280.992922 316.606743 
L 282.018752 313.872049 
L 283.044581 317.815469 
L 284.070411 319.441936 
L 285.09624 320.605143 
L 286.12207 334.229013 
L 287.1479 331.495048 
L 288.173729 325.238685 
L 289.199559 334.955717 
L 290.225388 335.573096 
L 291.251218 343.970655 
L 292.277048 344.611159 
L 293.302877 355.283265 
L 294.328707 246.520206 
L 295.354536 344.170464 
L 296.380366 347.865258 
L 297.406195 360.354431 
L 298.432025 354.828133 
L 299.457855 347.771356 
L 300.483684 359.458217 
L 301.509514 364.304906 
L 302.535343 356.873144 
L 303.561173 367.987192 
L 304.587002 371.545959 
L 305.612832 365.080857 
L 306.638662 404.300644 
L 307.664491 365.054106 
L 308.690321 370.31919 
L 309.71615 361.579868 
L 310.74198 375.833481 
L 311.76781 378.340413 
L 312.793639 373.705462 
L 313.819469 380.667599 
L 314.845298 383.941347 
L 315.871128 384.083328 
L 316.896957 390.789709 
L 317.922787 389.314221 
L 318.948617 390.00163 
L 319.974446 387.52474 
L 321.000276 390.294271 
L 322.026105 390.454366 
L 323.051935 388.121108 
L 324.077765 396.878009 
L 325.103594 394.254283 
L 326.129424 449.102126 
L 327.155253 398.625513 
L 328.181083 399.929247 
L 329.206912 399.072313 
L 330.232742 404.177182 
L 331.258572 406.125443 
L 332.284401 405.861332 
L 333.310231 401.054969 
L 335.36189 408.850141 
L 336.387719 408.380802 
L 337.413549 412.328616 
L 338.439379 413.395516 
L 339.465208 411.311876 
L 340.491038 416.162457 
L 341.516867 416.646097 
L 342.542697 412.820504 
L 343.568527 424.570351 
L 344.594356 422.670216 
L 345.620186 422.320691 
L 346.646015 419.79148 
L 347.671845 422.654785 
L 348.697674 424.231242 
L 349.723504 422.456004 
L 350.749334 424.324895 
L 351.775163 423.871272 
L 352.800993 424.965421 
L 353.826822 429.926535 
L 354.852652 430.55557 
L 355.878481 427.879515 
L 356.904311 434.044546 
L 357.930141 434.578405 
L 358.95597 430.243107 
L 359.9818 431.253031 
L 361.007629 439.704975 
L 362.033459 432.640184 
L 363.059289 438.106309 
L 364.085118 439.538025 
L 365.110948 437.040085 
L 366.136777 440.613854 
L 367.162607 442.661747 
L 368.188436 443.043986 
L 369.214266 444.200407 
L 370.240096 445.595362 
L 371.265925 444.777537 
L 372.291755 446.036631 
L 373.317584 443.855152 
L 374.343414 448.35843 
L 375.369243 454.614531 
L 376.395073 447.324194 
L 377.420903 450.467105 
L 378.446732 457.810397 
L 379.472562 454.862082 
L 380.498391 452.467067 
L 381.524221 458.379513 
L 382.550051 456.052846 
L 383.57588 454.477487 
L 384.60171 464.933722 
L 385.627539 456.284847 
L 386.653369 457.594373 
L 387.679198 462.211351 
L 389.730858 459.122846 
L 390.756687 461.618684 
L 391.782517 474.221351 
L 392.808346 463.888018 
L 393.834176 461.649806 
L 394.860006 463.444688 
L 395.885835 463.007925 
L 396.911665 466.143763 
L 397.937494 471.299577 
L 398.963324 464.349636 
L 399.989153 464.304329 
L 401.014983 466.513703 
L 402.040813 462.061824 
L 403.066642 471.778148 
L 404.092472 472.998051 
L 405.118301 468.579639 
L 406.144131 468.374431 
L 407.16996 459.937676 
L 408.19579 468.141167 
L 409.22162 475.270869 
L 410.247449 476.259856 
L 411.273279 476.130115 
L 412.299108 475.524919 
L 413.324938 478.634437 
L 414.350768 484.738361 
L 415.376597 474.404762 
L 416.402427 478.041891 
L 417.428256 477.925255 
L 418.454086 481.540404 
L 419.479915 479.174839 
L 420.505745 481.79886 
L 421.531575 481.929297 
L 422.557404 480.072207 
L 423.583234 481.157391 
L 424.609063 486.375925 
L 425.634893 483.249044 
L 426.660722 486.187281 
L 427.686552 485.68817 
L 428.712382 488.185025 
L 429.738211 488.473078 
L 430.764041 491.134146 
L 431.78987 492.932879 
L 433.84153 489.649701 
L 434.867359 493.333552 
L 435.893189 494.869677 
L 436.919018 491.954328 
L 437.944848 493.172785 
L 438.970677 493.669507 
L 439.996507 492.273415 
L 441.022337 496.144949 
L 442.048166 496.45742 
L 443.073996 500.273674 
L 444.099825 497.572062 
L 445.125655 498.559217 
L 446.151485 499.891685 
L 447.177314 500.916297 
L 448.203144 493.557942 
L 449.228973 501.168837 
L 450.254803 502.949241 
L 451.280632 501.587334 
L 452.306462 501.731348 
L 453.332292 503.177422 
L 454.358121 505.342307 
L 455.383951 506.090648 
L 456.40978 502.423507 
L 457.43561 495.233956 
L 458.461439 504.244355 
L 459.487269 505.402661 
L 460.513099 504.762223 
L 461.538928 504.953107 
L 462.564758 508.875687 
L 463.590587 510.652732 
L 464.616417 505.636844 
L 465.642247 508.072617 
L 466.668076 508.317121 
L 467.693906 510.468819 
L 468.719735 508.872399 
L 469.745565 510.137049 
L 470.771394 510.744466 
L 471.797224 510.536798 
L 472.823054 510.578626 
L 473.848883 511.341362 
L 474.874713 512.251976 
L 475.900542 511.226803 
L 476.926372 511.737608 
L 477.952201 511.258619 
L 478.978031 514.649034 
L 480.003861 514.43506 
L 481.02969 511.991494 
L 482.05552 513.925834 
L 483.081349 517.777702 
L 484.107179 518.466805 
L 485.133009 516.498523 
L 486.158838 516.680376 
L 487.184668 518.865148 
L 488.210497 518.367506 
L 489.236327 517.594488 
L 490.262156 519.146466 
L 491.287986 516.455256 
L 492.313816 519.68263 
L 493.339645 517.554841 
L 495.391304 520.40537 
L 496.417134 520.897869 
L 497.442964 524.413964 
L 498.468793 520.872891 
L 499.494623 520.603313 
L 500.520452 521.115982 
L 501.546282 521.343048 
L 502.572111 526.462784 
L 503.597941 522.949904 
L 504.623771 520.274918 
L 505.6496 524.38789 
L 506.67543 524.022259 
L 507.701259 528.089899 
L 508.727089 525.966853 
L 509.752918 523.179854 
L 510.778748 525.781627 
L 511.804578 526.876843 
L 512.830407 525.976003 
L 513.856237 525.981351 
L 514.882066 524.464901 
L 515.907896 527.017156 
L 516.933726 527.774517 
L 517.959555 527.430938 
L 518.985385 527.69743 
L 520.011214 527.169984 
L 521.037044 528.754311 
L 522.062873 528.53563 
L 523.088703 527.295613 
L 524.114533 530.317882 
L 525.140362 529.964013 
L 526.166192 529.304219 
L 527.192021 531.13676 
L 528.217851 535.113112 
L 529.24368 531.7585 
L 530.26951 531.462821 
L 531.29534 531.59938 
L 532.321169 531.389164 
L 533.346999 537.235798 
L 534.372828 531.708341 
L 535.398658 531.795752 
L 536.424488 533.701696 
L 537.450317 534.639187 
L 538.476147 536.252685 
L 539.501976 535.173347 
L 540.527806 534.489464 
L 541.553635 534.155569 
L 542.579465 535.270284 
L 543.605295 536.645791 
L 544.631124 536.497679 
L 545.656954 534.829909 
L 546.682783 535.507922 
L 547.708613 534.493128 
L 548.734443 537.55635 
L 549.760272 537.16832 
L 550.786102 540.658832 
L 552.837761 535.724717 
L 553.86359 538.829773 
L 554.88942 538.638916 
L 555.91525 540.467657 
L 556.941079 538.364412 
L 557.966909 538.791132 
L 560.018568 538.264814 
L 561.044397 541.005337 
L 562.070227 540.861756 
L 563.096057 543.362146 
L 564.121886 541.268268 
L 565.147716 539.897594 
L 566.173545 541.16839 
L 567.199375 540.627285 
L 568.225205 542.956098 
L 569.251034 541.920055 
L 570.276864 543.110867 
L 571.302693 542.684166 
L 572.328523 541.970545 
L 573.354352 542.831218 
L 574.380182 543.471924 
L 575.406012 543.267093 
L 576.431841 554.728181 
L 577.457671 545.313403 
L 578.4835 544.373541 
L 579.50933 542.950036 
L 580.535159 543.765193 
L 581.560989 544.282896 
L 582.586819 546.616196 
L 583.612648 544.982535 
L 584.638478 547.376729 
L 585.664307 545.399581 
L 586.690137 546.07293 
L 587.715967 546.17116 
L 588.741796 547.928012 
L 589.767626 549.126572 
L 590.793455 547.153633 
L 591.819285 549.813534 
L 592.845114 549.356839 
L 593.870944 539.374307 
L 594.896774 548.040002 
L 595.922603 546.717837 
L 596.948433 547.822805 
L 597.974262 548.548499 
L 599.000092 550.604175 
L 600.025922 549.045224 
L 601.051751 548.182444 
L 602.077581 549.883806 
L 603.10341 549.02672 
L 604.12924 549.762838 
L 605.155069 550.020284 
L 606.180899 551.585022 
L 607.206729 551.106632 
L 608.232558 550.882803 
L 609.258388 550.357332 
L 610.284217 550.152224 
L 611.310047 552.086548 
L 612.335876 550.228274 
L 613.361706 552.720458 
L 614.387536 552.434984 
L 615.413365 552.885146 
L 616.439195 553.089988 
L 617.465024 552.524978 
L 618.490854 552.946053 
L 619.516684 552.271745 
L 620.542513 553.191261 
L 621.568343 551.734567 
L 622.594172 552.897927 
L 623.620002 553.473483 
L 624.645831 555.886291 
L 625.671661 578.064748 
L 626.697491 556.629941 
L 627.72332 554.913376 
L 628.74915 553.877465 
L 629.774979 555.056678 
L 630.800809 554.708388 
L 631.826638 555.755975 
L 632.852468 554.927039 
L 634.904127 556.614792 
L 635.929957 558.495035 
L 636.955786 556.871157 
L 637.981616 558.994067 
L 639.007446 557.352165 
L 640.033275 556.623727 
L 641.059105 558.315642 
L 642.084934 556.477342 
L 643.110764 558.32605 
L 644.136593 558.794356 
L 645.162423 559.683383 
L 647.214082 559.658 
L 648.239912 559.309661 
L 649.265741 560.857235 
L 650.291571 560.626666 
L 651.3174 556.796644 
L 652.34323 559.377371 
L 653.36906 557.881013 
L 654.394889 559.634212 
L 655.420719 559.266735 
L 656.446548 559.449299 
L 657.472378 560.690531 
L 658.498208 560.930577 
L 659.524037 560.892244 
L 660.549867 561.948613 
L 661.575696 561.145375 
L 662.601526 563.793455 
L 663.627355 562.021137 
L 664.653185 561.301955 
L 665.679015 562.175311 
L 666.704844 561.737196 
L 667.730674 562.923999 
L 668.756503 561.175434 
L 669.782333 563.072733 
L 670.808163 561.587215 
L 671.833992 562.77285 
L 672.859822 563.351274 
L 673.885651 562.902439 
L 674.911481 563.075466 
L 675.93731 564.349277 
L 676.96314 563.885374 
L 677.98897 564.269165 
L 679.014799 563.460299 
L 680.040629 566.031804 
L 681.066458 564.575443 
L 682.092288 565.459837 
L 683.118117 564.723827 
L 684.143947 564.167422 
L 685.169777 565.556216 
L 686.195606 564.461526 
L 687.221436 565.913657 
L 688.247265 564.58192 
L 689.273095 565.875677 
L 690.298925 564.560271 
L 691.324754 564.73022 
L 692.350584 565.521137 
L 693.376413 568.330815 
L 694.402243 567.364389 
L 695.428072 567.171122 
L 696.453902 567.108941 
L 697.479732 568.567939 
L 698.505561 568.260619 
L 699.531391 568.654733 
L 700.55722 567.883605 
L 701.58305 568.650954 
L 702.608879 567.907622 
L 703.634709 569.173501 
L 704.660539 567.335563 
L 705.686368 570.071137 
L 706.712198 568.121567 
L 707.738027 568.56464 
L 709.789687 568.366125 
L 710.815516 568.822089 
L 711.841346 568.466001 
L 712.867175 570.384702 
L 713.893005 567.693673 
L 714.918834 569.246127 
L 715.944664 568.040984 
L 716.970494 569.04692 
L 717.996323 568.248368 
L 719.022153 569.814195 
L 720.047982 567.189291 
L 721.073812 570.275029 
L 722.099642 569.193998 
L 723.125471 570.542618 
L 724.151301 569.394758 
L 725.17713 570.185105 
L 726.20296 569.831285 
L 727.228789 570.730597 
L 728.254619 569.560192 
L 729.280449 570.412827 
L 730.306278 569.548508 
L 731.332108 571.072812 
L 732.357937 570.63894 
L 733.383767 572.192704 
L 734.409596 571.438445 
L 735.435426 572.684518 
L 736.461256 571.216539 
L 737.487085 573.089706 
L 738.512915 571.846135 
L 739.538744 573.076611 
L 740.564574 572.040606 
L 741.590404 573.178329 
L 742.616233 571.485011 
L 743.642063 572.812817 
L 744.667892 572.544403 
L 745.693722 576.13671 
L 746.719551 573.037429 
L 747.745381 573.749355 
L 748.771211 572.746854 
L 749.79704 574.584516 
L 750.82287 574.005688 
L 751.848699 573.795127 
L 752.874529 573.139681 
L 753.900358 574.233031 
L 754.926188 573.042469 
L 755.952018 574.910506 
L 756.977847 574.495782 
L 758.003677 575.064417 
L 759.029506 574.848425 
L 760.055336 575.387249 
L 761.081166 574.227913 
L 762.106995 575.227925 
L 763.132825 574.634592 
L 764.158654 575.053307 
L 765.184484 575.234714 
L 766.210313 575.74535 
L 767.236143 575.710563 
L 768.261973 575.985217 
L 769.287802 577.096673 
L 770.313632 576.088368 
L 771.339461 577.409284 
L 772.365291 576.407987 
L 773.391121 577.320628 
L 774.41695 576.846109 
L 776.468609 576.711335 
L 777.494439 577.118137 
L 778.520268 576.752375 
L 779.546098 577.213399 
L 780.571928 577.479764 
L 781.597757 577.255478 
L 782.623587 576.562837 
L 783.649416 577.331868 
L 784.675246 575.33419 
L 785.701075 577.675443 
L 786.726905 577.380221 
L 787.752735 578.303549 
L 788.778564 587.250159 
L 789.804394 578.073296 
L 790.830223 577.277069 
L 791.856053 578.759581 
L 792.881883 579.032563 
L 793.907712 578.772634 
L 794.933542 579.726408 
L 795.959371 579.547888 
L 796.985201 580.359206 
L 798.01103 579.035753 
L 799.03686 580.529975 
L 800.06269 579.53724 
L 801.088519 580.141024 
L 802.114349 580.581235 
L 803.140178 581.325227 
L 804.166008 579.710057 
L 805.191837 580.031514 
L 806.217667 578.738781 
L 807.243497 580.458456 
L 808.269326 579.562312 
L 809.295156 580.690147 
L 810.320985 578.952689 
L 811.346815 580.770753 
L 812.372645 596.643265 
L 813.398474 581.087641 
L 814.424304 581.517179 
L 815.450133 580.735291 
L 816.475963 581.762569 
L 817.501792 581.045884 
L 818.527622 581.455499 
L 819.553452 580.427571 
L 820.579281 581.76519 
L 821.605111 581.266397 
L 822.63094 581.792256 
L 823.65677 580.489722 
L 824.6826 581.90861 
L 825.708429 580.844948 
L 827.760088 582.936404 
L 828.785918 582.266777 
L 829.811747 582.635425 
L 830.837577 582.235457 
L 831.863407 582.360348 
L 832.889236 581.853774 
L 833.915066 582.113892 
L 834.940895 581.759196 
L 835.966725 582.191651 
L 836.992554 582.746975 
L 838.018384 582.894718 
L 839.044214 583.781132 
L 840.070043 583.705381 
L 841.095873 584.229819 
L 842.121702 583.431519 
L 843.147532 583.946306 
L 844.173362 583.076318 
L 845.199191 583.578197 
L 846.225021 582.10273 
L 847.25085 583.875024 
L 848.27668 582.962609 
L 849.302509 584.640339 
L 850.328339 584.870034 
L 851.354169 584.8558 
L 852.379998 585.006328 
L 853.405828 585.401194 
L 854.431657 585.168327 
L 855.457487 584.605609 
L 856.483316 585.205497 
L 857.509146 583.924098 
L 858.534976 584.423952 
L 859.560805 585.284961 
L 860.586635 584.972244 
L 861.612464 585.380246 
L 863.664124 585.366099 
L 864.689953 584.65166 
L 865.715783 585.104236 
L 866.741612 584.536198 
L 867.767442 585.109613 
L 868.793271 586.32082 
L 869.819101 585.860623 
L 870.844931 586.454795 
L 871.87076 585.608067 
L 872.89659 585.927948 
L 873.922419 585.202446 
L 874.948249 586.103344 
L 875.974078 585.508973 
L 876.999908 586.774371 
L 878.025738 587.116421 
L 879.051567 586.673133 
L 880.077397 586.693932 
L 881.103226 585.496613 
L 882.129056 586.65898 
L 883.154886 586.212035 
L 885.206545 587.648882 
L 886.232374 587.438449 
L 887.258204 586.974612 
L 888.284033 586.320665 
L 889.309863 586.832912 
L 890.335693 586.031641 
L 891.361522 587.740351 
L 892.387352 588.127398 
L 894.439011 587.923485 
L 895.464841 586.68745 
L 896.49067 587.924071 
L 897.5165 587.276372 
L 898.542329 587.951112 
L 899.568159 587.934562 
L 900.593988 588.19718 
L 901.619818 588.161735 
L 902.645648 587.66051 
L 903.671477 588.508309 
L 904.697307 587.080086 
L 905.723136 589.030801 
L 906.748966 589.608615 
L 907.774795 589.210167 
L 908.800625 589.248875 
L 909.826455 587.900888 
L 910.852284 588.671971 
L 911.878114 588.76875 
L 912.903943 588.449185 
L 913.929773 589.231843 
L 914.955603 589.254878 
L 915.981432 589.877448 
L 917.007262 588.743006 
L 918.033091 589.531089 
L 919.058921 589.986481 
L 920.08475 590.043438 
L 921.11058 589.46865 
L 922.13641 589.341848 
L 923.162239 590.226859 
L 924.188069 595.55632 
L 925.213898 589.512384 
L 926.239728 590.04758 
L 927.265557 590.373564 
L 928.291387 590.012496 
L 929.317217 587.86898 
L 930.343046 590.001384 
L 931.368876 590.718572 
L 933.420535 590.323857 
L 934.446365 589.404325 
L 935.472194 590.492989 
L 936.498024 591.213369 
L 937.523853 590.377559 
L 938.549683 591.077362 
L 939.575512 589.929072 
L 940.601342 590.194478 
L 941.627172 590.58241 
L 942.653001 591.340864 
L 943.678831 591.457264 
L 944.70466 591.204977 
L 945.73049 591.537972 
L 946.75632 589.596355 
L 947.782149 591.478608 
L 948.807979 591.863078 
L 949.833808 591.339542 
L 950.859638 590.189336 
L 951.885467 591.184904 
L 952.911297 591.727305 
L 954.962956 592.268601 
L 955.988786 593.197207 
L 957.014615 590.362228 
L 958.040445 592.297093 
L 960.092104 592.908036 
L 961.117934 593.280952 
L 962.143763 591.812683 
L 963.169593 591.748704 
L 964.195422 593.222454 
L 965.221252 591.940521 
L 966.247082 592.892306 
L 967.272911 592.228858 
L 968.298741 592.965932 
L 969.32457 593.518167 
L 970.3504 591.481253 
L 971.376229 592.816691 
L 972.402059 592.439291 
L 973.427889 593.119949 
L 974.453718 593.536005 
L 975.479548 593.003151 
L 977.531207 592.996573 
L 979.582866 593.532199 
L 980.608696 592.949511 
L 981.634525 598.990434 
L 982.660355 593.918251 
L 983.686184 593.566535 
L 984.712014 593.392336 
L 985.737844 592.80519 
L 986.763673 593.68997 
L 987.789503 593.935916 
L 988.815332 593.391323 
L 989.841162 594.298203 
L 990.866991 594.172875 
L 991.892821 593.822429 
L 992.918651 594.539288 
L 993.94448 593.497722 
L 995.996139 595.157627 
L 997.021969 594.725102 
L 998.047799 594.903985 
L 999.073628 594.312933 
L 1000.099458 594.803172 
L 1001.125287 594.938465 
L 1002.151117 594.817698 
L 1003.176946 594.406404 
L 1004.202776 596.005338 
L 1005.228606 593.55984 
L 1006.254435 594.798089 
L 1007.280265 595.173271 
L 1008.306094 597.844289 
L 1009.331924 596.080043 
L 1010.357753 593.885977 
L 1011.383583 595.473847 
L 1012.409413 597.443354 
L 1013.435242 594.758706 
L 1014.461072 595.282739 
L 1015.486901 607.115497 
L 1016.512731 595.153317 
L 1017.538561 595.943844 
L 1018.56439 595.122288 
L 1019.59022 595.800962 
L 1020.616049 596.178176 
L 1021.641879 595.378557 
L 1022.667708 596.471699 
L 1023.693538 596.499094 
L 1024.719368 595.98317 
L 1025.745197 596.471127 
L 1026.771027 595.080633 
L 1027.796856 596.395959 
L 1028.822686 596.691298 
L 1029.848515 595.827221 
L 1031.900175 596.687375 
L 1032.926004 596.483345 
L 1033.951834 596.67221 
L 1034.977663 596.491887 
L 1036.003493 596.558264 
L 1037.029323 596.764209 
L 1038.055152 596.176749 
L 1039.080982 596.817208 
L 1040.106811 596.672449 
L 1041.132641 596.102896 
L 1042.15847 596.901794 
L 1043.1843 597.356542 
L 1044.21013 596.479613 
L 1045.235959 597.288474 
L 1046.261789 597.227162 
L 1048.313448 597.602547 
L 1049.339278 596.552004 
L 1050.365107 597.597074 
L 1051.390937 597.588976 
L 1052.416766 596.70375 
L 1053.442596 597.644218 
L 1055.494255 598.285175 
L 1056.520085 597.707786 
L 1057.545914 598.258442 
L 1058.571744 597.722257 
L 1060.623403 598.583563 
L 1061.649232 598.270207 
L 1062.675062 598.96053 
L 1064.726721 598.308458 
L 1065.752551 599.133954 
L 1066.77838 594.010717 
L 1067.80421 598.451197 
L 1068.83004 598.758902 
L 1069.855869 597.965744 
L 1070.881699 598.78495 
L 1071.907528 599.37978 
L 1072.933358 598.602682 
L 1073.959187 599.320045 
L 1074.985017 599.179482 
L 1076.010847 598.663301 
L 1077.036676 599.044413 
L 1078.062506 599.256628 
L 1079.088335 598.855122 
L 1080.114165 599.240713 
L 1081.139994 599.753231 
L 1082.165824 598.678838 
L 1084.217483 599.799112 
L 1085.243313 599.294225 
L 1086.269142 599.66638 
L 1087.294972 599.76493 
L 1088.320802 599.265734 
L 1089.346631 599.727522 
L 1090.372461 599.442842 
L 1091.39829 599.920388 
L 1092.42412 600.038519 
L 1093.449949 599.804431 
L 1094.475779 599.761673 
L 1095.501609 599.989575 
L 1097.553268 600.035693 
L 1098.579097 600.232561 
L 1099.604927 599.925832 
L 1100.630757 600.416208 
L 1101.656586 600.43518 
L 1102.682416 599.764507 
L 1103.708245 597.84589 
L 1104.734075 600.557461 
L 1105.759904 600.531201 
L 1106.785734 600.163794 
L 1107.811564 600.563717 
L 1108.837393 600.267722 
L 1109.863223 600.407114 
L 1110.889052 600.702035 
L 1111.914882 600.597957 
L 1112.940711 600.649869 
L 1113.966541 601.563791 
L 1114.992371 600.620724 
L 1116.0182 600.565641 
L 1117.04403 601.111779 
L 1121.147348 601.100857 
L 1122.173178 601.318633 
L 1123.199007 601.321055 
L 1124.224837 601.558378 
L 1125.250666 601.297976 
L 1127.302326 601.662168 
L 1128.328155 600.713901 
L 1129.353985 601.344287 
L 1130.379814 601.777528 
L 1131.405644 600.863117 
L 1132.431473 601.1273 
L 1133.457303 601.636308 
L 1134.483133 600.686721 
L 1135.508962 601.586412 
L 1137.560621 601.019138 
L 1138.586451 601.803698 
L 1139.612281 601.717584 
L 1140.63811 599.394405 
L 1141.66394 601.47941 
L 1142.689769 601.895401 
L 1143.715599 601.594956 
L 1144.741428 601.472004 
L 1145.767258 601.70768 
L 1146.793088 602.225409 
L 1147.818917 601.604051 
L 1149.870576 602.29805 
L 1150.896406 601.376133 
L 1151.922235 602.262771 
L 1152.948065 602.49002 
L 1153.973895 601.85864 
L 1154.999724 602.29789 
L 1156.025554 602.33399 
L 1157.051383 602.192569 
L 1158.077213 602.445258 
L 1159.103043 602.438512 
L 1160.128872 610.974164 
L 1161.154702 602.69685 
L 1162.180531 602.842484 
L 1163.206361 603.395678 
L 1164.23219 602.034724 
L 1165.25802 602.804981 
L 1166.28385 603.314252 
L 1167.309679 602.177721 
L 1168.335509 603.029202 
L 1169.361338 603.102856 
L 1170.387168 602.817599 
L 1171.412998 603.015893 
L 1172.438827 603.416694 
L 1173.464657 603.466498 
L 1174.490486 602.791908 
L 1176.542145 603.573093 
L 1177.567975 602.829694 
L 1178.593805 603.355167 
L 1179.619634 603.511942 
L 1180.645464 602.966624 
L 1181.671293 603.614342 
L 1182.697123 603.756116 
L 1183.722952 603.760708 
L 1184.748782 602.707148 
L 1185.774612 603.741823 
L 1186.800441 603.906657 
L 1187.826271 603.058132 
L 1188.8521 603.783375 
L 1189.87793 603.275963 
L 1190.90376 603.719172 
L 1192.955419 603.581684 
L 1193.981248 604.240064 
L 1195.007078 603.241044 
L 1196.032907 603.811568 
L 1198.084567 603.329335 
L 1199.110396 604.086687 
L 1200.136226 604.080422 
L 1201.162055 604.676241 
L 1202.187885 603.486762 
L 1203.213714 604.478255 
L 1204.239544 605.751704 
L 1205.265374 603.800729 
L 1207.317033 604.792233 
L 1208.342862 604.795334 
L 1209.368692 602.688325 
L 1210.394522 604.71764 
L 1211.420351 604.584645 
L 1212.446181 604.207542 
L 1213.47201 604.405672 
L 1214.49784 604.855626 
L 1215.523669 605.003902 
L 1216.549499 604.350239 
L 1217.575329 604.849833 
L 1218.601158 606.060339 
L 1219.626988 604.469897 
L 1220.652817 605.674133 
L 1223.730306 605.535775 
L 1224.756136 605.054827 
L 1225.781965 605.064913 
L 1226.807795 604.77276 
L 1228.859454 605.613289 
L 1229.885284 605.927163 
L 1230.911113 605.259122 
L 1232.962772 605.775045 
L 1233.988602 612.466254 
L 1235.014431 604.908895 
L 1236.040261 605.48886 
L 1237.066091 605.525943 
L 1238.09192 605.04322 
L 1239.11775 605.229239 
L 1241.169409 605.945387 
L 1242.195239 605.333623 
L 1243.221068 605.947211 
L 1244.246898 605.703945 
L 1245.272727 605.901245 
L 1245.272727 605.901245 
" style="fill:none;stroke:#ff7f0e;stroke-linecap:square;stroke-width:1.5;"/>
   </g>
   <g id="patch_3">
    <path d="M 180 640.8 
L 180 86.4 
" style="fill:none;stroke:#000000;stroke-linecap:square;stroke-linejoin:miter;stroke-width:0.8;"/>
   </g>
   <g id="patch_4">
    <path d="M 1296 640.8 
L 1296 86.4 
" style="fill:none;stroke:#000000;stroke-linecap:square;stroke-linejoin:miter;stroke-width:0.8;"/>
   </g>
   <g id="patch_5">
    <path d="M 180 640.8 
L 1296 640.8 
" style="fill:none;stroke:#000000;stroke-linecap:square;stroke-linejoin:miter;stroke-width:0.8;"/>
   </g>
   <g id="patch_6">
    <path d="M 180 86.4 
L 1296 86.4 
" style="fill:none;stroke:#000000;stroke-linecap:square;stroke-linejoin:miter;stroke-width:0.8;"/>
   </g>
   <g id="text_18">
    <!-- On-balance volume (OBV) Speedup -->
    <defs>
     <path d="M 39.40625 66.21875 
Q 28.65625 66.21875 22.328125 58.203125 
Q 16.015625 50.203125 16.015625 36.375 
Q 16.015625 22.609375 22.328125 14.59375 
Q 28.65625 6.59375 39.40625 6.59375 
Q 50.140625 6.59375 56.421875 14.59375 
Q 62.703125 22.609375 62.703125 36.375 
Q 62.703125 50.203125 56.421875 58.203125 
Q 50.140625 66.21875 39.40625 66.21875 
z
M 39.40625 74.21875 
Q 54.734375 74.21875 63.90625 63.9375 
Q 73.09375 53.65625 73.09375 36.375 
Q 73.09375 19.140625 63.90625 8.859375 
Q 54.734375 -1.421875 39.40625 -1.421875 
Q 24.03125 -1.421875 14.8125 8.828125 
Q 5.609375 19.09375 5.609375 36.375 
Q 5.609375 53.65625 14.8125 63.9375 
Q 24.03125 74.21875 39.40625 74.21875 
z
" id="DejaVuSans-79"/>
     <path d="M 4.890625 31.390625 
L 31.203125 31.390625 
L 31.203125 23.390625 
L 4.890625 23.390625 
z
" id="DejaVuSans-45"/>
     <path d="M 48.6875 27.296875 
Q 48.6875 37.203125 44.609375 42.84375 
Q 40.53125 48.484375 33.40625 48.484375 
Q 26.265625 48.484375 22.1875 42.84375 
Q 18.109375 37.203125 18.109375 27.296875 
Q 18.109375 17.390625 22.1875 11.75 
Q 26.265625 6.109375 33.40625 6.109375 
Q 40.53125 6.109375 44.609375 11.75 
Q 48.6875 17.390625 48.6875 27.296875 
z
M 18.109375 46.390625 
Q 20.953125 51.265625 25.265625 53.625 
Q 29.59375 56 35.59375 56 
Q 45.5625 56 51.78125 48.09375 
Q 58.015625 40.1875 58.015625 27.296875 
Q 58.015625 14.40625 51.78125 6.484375 
Q 45.5625 -1.421875 35.59375 -1.421875 
Q 29.59375 -1.421875 25.265625 0.953125 
Q 20.953125 3.328125 18.109375 8.203125 
L 18.109375 0 
L 9.078125 0 
L 9.078125 75.984375 
L 18.109375 75.984375 
z
" id="DejaVuSans-98"/>
     <path d="M 34.28125 27.484375 
Q 23.390625 27.484375 19.1875 25 
Q 14.984375 22.515625 14.984375 16.5 
Q 14.984375 11.71875 18.140625 8.90625 
Q 21.296875 6.109375 26.703125 6.109375 
Q 34.1875 6.109375 38.703125 11.40625 
Q 43.21875 16.703125 43.21875 25.484375 
L 43.21875 27.484375 
z
M 52.203125 31.203125 
L 52.203125 0 
L 43.21875 0 
L 43.21875 8.296875 
Q 40.140625 3.328125 35.546875 0.953125 
Q 30.953125 -1.421875 24.3125 -1.421875 
Q 15.921875 -1.421875 10.953125 3.296875 
Q 6 8.015625 6 15.921875 
Q 6 25.140625 12.171875 29.828125 
Q 18.359375 34.515625 30.609375 34.515625 
L 43.21875 34.515625 
L 43.21875 35.40625 
Q 43.21875 41.609375 39.140625 45 
Q 35.0625 48.390625 27.6875 48.390625 
Q 23 48.390625 18.546875 47.265625 
Q 14.109375 46.140625 10.015625 43.890625 
L 10.015625 52.203125 
Q 14.9375 54.109375 19.578125 55.046875 
Q 24.21875 56 28.609375 56 
Q 40.484375 56 46.34375 49.84375 
Q 52.203125 43.703125 52.203125 31.203125 
z
" id="DejaVuSans-97"/>
     <path d="M 9.421875 75.984375 
L 18.40625 75.984375 
L 18.40625 0 
L 9.421875 0 
z
" id="DejaVuSans-108"/>
     <path d="M 48.78125 52.59375 
L 48.78125 44.1875 
Q 44.96875 46.296875 41.140625 47.34375 
Q 37.3125 48.390625 33.40625 48.390625 
Q 24.65625 48.390625 19.8125 42.84375 
Q 14.984375 37.3125 14.984375 27.296875 
Q 14.984375 17.28125 19.8125 11.734375 
Q 24.65625 6.203125 33.40625 6.203125 
Q 37.3125 6.203125 41.140625 7.25 
Q 44.96875 8.296875 48.78125 10.40625 
L 48.78125 2.09375 
Q 45.015625 0.34375 40.984375 -0.53125 
Q 36.96875 -1.421875 32.421875 -1.421875 
Q 20.0625 -1.421875 12.78125 6.34375 
Q 5.515625 14.109375 5.515625 27.296875 
Q 5.515625 40.671875 12.859375 48.328125 
Q 20.21875 56 33.015625 56 
Q 37.15625 56 41.109375 55.140625 
Q 45.0625 54.296875 48.78125 52.59375 
z
" id="DejaVuSans-99"/>
     <path id="DejaVuSans-32"/>
     <path d="M 2.984375 54.6875 
L 12.5 54.6875 
L 29.59375 8.796875 
L 46.6875 54.6875 
L 56.203125 54.6875 
L 35.6875 0 
L 23.484375 0 
z
" id="DejaVuSans-118"/>
     <path d="M 30.609375 48.390625 
Q 23.390625 48.390625 19.1875 42.75 
Q 14.984375 37.109375 14.984375 27.296875 
Q 14.984375 17.484375 19.15625 11.84375 
Q 23.34375 6.203125 30.609375 6.203125 
Q 37.796875 6.203125 41.984375 11.859375 
Q 46.1875 17.53125 46.1875 27.296875 
Q 46.1875 37.015625 41.984375 42.703125 
Q 37.796875 48.390625 30.609375 48.390625 
z
M 30.609375 56 
Q 42.328125 56 49.015625 48.375 
Q 55.71875 40.765625 55.71875 27.296875 
Q 55.71875 13.875 49.015625 6.21875 
Q 42.328125 -1.421875 30.609375 -1.421875 
Q 18.84375 -1.421875 12.171875 6.21875 
Q 5.515625 13.875 5.515625 27.296875 
Q 5.515625 40.765625 12.171875 48.375 
Q 18.84375 56 30.609375 56 
z
" id="DejaVuSans-111"/>
     <path d="M 52 44.1875 
Q 55.375 50.25 60.0625 53.125 
Q 64.75 56 71.09375 56 
Q 79.640625 56 84.28125 50.015625 
Q 88.921875 44.046875 88.921875 33.015625 
L 88.921875 0 
L 79.890625 0 
L 79.890625 32.71875 
Q 79.890625 40.578125 77.09375 44.375 
Q 74.3125 48.1875 68.609375 48.1875 
Q 61.625 48.1875 57.5625 43.546875 
Q 53.515625 38.921875 53.515625 30.90625 
L 53.515625 0 
L 44.484375 0 
L 44.484375 32.71875 
Q 44.484375 40.625 41.703125 44.40625 
Q 38.921875 48.1875 33.109375 48.1875 
Q 26.21875 48.1875 22.15625 43.53125 
Q 18.109375 38.875 18.109375 30.90625 
L 18.109375 0 
L 9.078125 0 
L 9.078125 54.6875 
L 18.109375 54.6875 
L 18.109375 46.1875 
Q 21.1875 51.21875 25.484375 53.609375 
Q 29.78125 56 35.6875 56 
Q 41.65625 56 45.828125 52.96875 
Q 50 49.953125 52 44.1875 
z
" id="DejaVuSans-109"/>
     <path d="M 31 75.875 
Q 24.46875 64.65625 21.28125 53.65625 
Q 18.109375 42.671875 18.109375 31.390625 
Q 18.109375 20.125 21.3125 9.0625 
Q 24.515625 -2 31 -13.1875 
L 23.1875 -13.1875 
Q 15.875 -1.703125 12.234375 9.375 
Q 8.59375 20.453125 8.59375 31.390625 
Q 8.59375 42.28125 12.203125 53.3125 
Q 15.828125 64.359375 23.1875 75.875 
z
" id="DejaVuSans-40"/>
     <path d="M 19.671875 34.8125 
L 19.671875 8.109375 
L 35.5 8.109375 
Q 43.453125 8.109375 47.28125 11.40625 
Q 51.125 14.703125 51.125 21.484375 
Q 51.125 28.328125 47.28125 31.5625 
Q 43.453125 34.8125 35.5 34.8125 
z
M 19.671875 64.796875 
L 19.671875 42.828125 
L 34.28125 42.828125 
Q 41.5 42.828125 45.03125 45.53125 
Q 48.578125 48.25 48.578125 53.8125 
Q 48.578125 59.328125 45.03125 62.0625 
Q 41.5 64.796875 34.28125 64.796875 
z
M 9.8125 72.90625 
L 35.015625 72.90625 
Q 46.296875 72.90625 52.390625 68.21875 
Q 58.5 63.53125 58.5 54.890625 
Q 58.5 48.1875 55.375 44.234375 
Q 52.25 40.28125 46.1875 39.3125 
Q 53.46875 37.75 57.5 32.78125 
Q 61.53125 27.828125 61.53125 20.40625 
Q 61.53125 10.640625 54.890625 5.3125 
Q 48.25 0 35.984375 0 
L 9.8125 0 
z
" id="DejaVuSans-66"/>
     <path d="M 28.609375 0 
L 0.78125 72.90625 
L 11.078125 72.90625 
L 34.1875 11.53125 
L 57.328125 72.90625 
L 67.578125 72.90625 
L 39.796875 0 
z
" id="DejaVuSans-86"/>
     <path d="M 8.015625 75.875 
L 15.828125 75.875 
Q 23.140625 64.359375 26.78125 53.3125 
Q 30.421875 42.28125 30.421875 31.390625 
Q 30.421875 20.453125 26.78125 9.375 
Q 23.140625 -1.703125 15.828125 -13.1875 
L 8.015625 -13.1875 
Q 14.5 -2 17.703125 9.0625 
Q 20.90625 20.125 20.90625 31.390625 
Q 20.90625 42.671875 17.703125 53.65625 
Q 14.5 64.65625 8.015625 75.875 
z
" id="DejaVuSans-41"/>
     <path d="M 53.515625 70.515625 
L 53.515625 60.890625 
Q 47.90625 63.578125 42.921875 64.890625 
Q 37.9375 66.21875 33.296875 66.21875 
Q 25.25 66.21875 20.875 63.09375 
Q 16.5 59.96875 16.5 54.203125 
Q 16.5 49.359375 19.40625 46.890625 
Q 22.3125 44.4375 30.421875 42.921875 
L 36.375 41.703125 
Q 47.40625 39.59375 52.65625 34.296875 
Q 57.90625 29 57.90625 20.125 
Q 57.90625 9.515625 50.796875 4.046875 
Q 43.703125 -1.421875 29.984375 -1.421875 
Q 24.8125 -1.421875 18.96875 -0.25 
Q 13.140625 0.921875 6.890625 3.21875 
L 6.890625 13.375 
Q 12.890625 10.015625 18.65625 8.296875 
Q 24.421875 6.59375 29.984375 6.59375 
Q 38.421875 6.59375 43.015625 9.90625 
Q 47.609375 13.234375 47.609375 19.390625 
Q 47.609375 24.75 44.3125 27.78125 
Q 41.015625 30.8125 33.5 32.328125 
L 27.484375 33.5 
Q 16.453125 35.6875 11.515625 40.375 
Q 6.59375 45.0625 6.59375 53.421875 
Q 6.59375 63.09375 13.40625 68.65625 
Q 20.21875 74.21875 32.171875 74.21875 
Q 37.3125 74.21875 42.625 73.28125 
Q 47.953125 72.359375 53.515625 70.515625 
z
" id="DejaVuSans-83"/>
    </defs>
    <g transform="translate(631.876875 80.4)scale(0.12 -0.12)">
     <use xlink:href="#DejaVuSans-79"/>
     <use x="78.710938" xlink:href="#DejaVuSans-110"/>
     <use x="142.089844" xlink:href="#DejaVuSans-45"/>
     <use x="178.173828" xlink:href="#DejaVuSans-98"/>
     <use x="241.650391" xlink:href="#DejaVuSans-97"/>
     <use x="302.929688" xlink:href="#DejaVuSans-108"/>
     <use x="330.712891" xlink:href="#DejaVuSans-97"/>
     <use x="391.992188" xlink:href="#DejaVuSans-110"/>
     <use x="455.371094" xlink:href="#DejaVuSans-99"/>
     <use x="510.351562" xlink:href="#DejaVuSans-101"/>
     <use x="571.875" xlink:href="#DejaVuSans-32"/>
     <use x="603.662109" xlink:href="#DejaVuSans-118"/>
     <use x="662.841797" xlink:href="#DejaVuSans-111"/>
     <use x="724.023438" xlink:href="#DejaVuSans-108"/>
     <use x="751.806641" xlink:href="#DejaVuSans-117"/>
     <use x="815.185547" xlink:href="#DejaVuSans-109"/>
     <use x="912.597656" xlink:href="#DejaVuSans-101"/>
     <use x="974.121094" xlink:href="#DejaVuSans-32"/>
     <use x="1005.908203" xlink:href="#DejaVuSans-40"/>
     <use x="1044.921875" xlink:href="#DejaVuSans-79"/>
     <use x="1123.632812" xlink:href="#DejaVuSans-66"/>
     <use x="1189.111328" xlink:href="#DejaVuSans-86"/>
     <use x="1257.519531" xlink:href="#DejaVuSans-41"/>
     <use x="1296.533203" xlink:href="#DejaVuSans-32"/>
     <use x="1328.320312" xlink:href="#DejaVuSans-83"/>
     <use x="1391.796875" xlink:href="#DejaVuSans-112"/>
     <use x="1455.273438" xlink:href="#DejaVuSans-101"/>
     <use x="1516.796875" xlink:href="#DejaVuSans-101"/>
     <use x="1578.320312" xlink:href="#DejaVuSans-100"/>
     <use x="1641.796875" xlink:href="#DejaVuSans-117"/>
     <use x="1705.175781" xlink:href="#DejaVuSans-112"/>
    </g>
   </g>
   <g id="legend_1">
    <g id="patch_7">
     <path d="M 1185.373437 123.75625 
L 1289 123.75625 
Q 1291 123.75625 1291 121.75625 
L 1291 93.4 
Q 1291 91.4 1289 91.4 
L 1185.373437 91.4 
Q 1183.373437 91.4 1183.373437 93.4 
L 1183.373437 121.75625 
Q 1183.373437 123.75625 1185.373437 123.75625 
z
" style="fill:#ffffff;opacity:0.8;stroke:#cccccc;stroke-linejoin:miter;"/>
    </g>
    <g id="line2d_18">
     <path d="M 1187.373437 99.498437 
L 1207.373437 99.498437 
" style="fill:none;stroke:#1f77b4;stroke-linecap:square;stroke-width:1.5;"/>
    </g>
    <g id="line2d_19"/>
    <g id="text_19">
     <!-- numpy.float32 -->
     <defs>
      <path d="M 32.171875 -5.078125 
Q 28.375 -14.84375 24.75 -17.8125 
Q 21.140625 -20.796875 15.09375 -20.796875 
L 7.90625 -20.796875 
L 7.90625 -13.28125 
L 13.1875 -13.28125 
Q 16.890625 -13.28125 18.9375 -11.515625 
Q 21 -9.765625 23.484375 -3.21875 
L 25.09375 0.875 
L 2.984375 54.6875 
L 12.5 54.6875 
L 29.59375 11.921875 
L 46.6875 54.6875 
L 56.203125 54.6875 
z
" id="DejaVuSans-121"/>
      <path d="M 37.109375 75.984375 
L 37.109375 68.5 
L 28.515625 68.5 
Q 23.6875 68.5 21.796875 66.546875 
Q 19.921875 64.59375 19.921875 59.515625 
L 19.921875 54.6875 
L 34.71875 54.6875 
L 34.71875 47.703125 
L 19.921875 47.703125 
L 19.921875 0 
L 10.890625 0 
L 10.890625 47.703125 
L 2.296875 47.703125 
L 2.296875 54.6875 
L 10.890625 54.6875 
L 10.890625 58.5 
Q 10.890625 67.625 15.140625 71.796875 
Q 19.390625 75.984375 28.609375 75.984375 
z
" id="DejaVuSans-102"/>
      <path d="M 18.3125 70.21875 
L 18.3125 54.6875 
L 36.8125 54.6875 
L 36.8125 47.703125 
L 18.3125 47.703125 
L 18.3125 18.015625 
Q 18.3125 11.328125 20.140625 9.421875 
Q 21.96875 7.515625 27.59375 7.515625 
L 36.8125 7.515625 
L 36.8125 0 
L 27.59375 0 
Q 17.1875 0 13.234375 3.875 
Q 9.28125 7.765625 9.28125 18.015625 
L 9.28125 47.703125 
L 2.6875 47.703125 
L 2.6875 54.6875 
L 9.28125 54.6875 
L 9.28125 70.21875 
z
" id="DejaVuSans-116"/>
     </defs>
     <g transform="translate(1215.373437 102.998437)scale(0.1 -0.1)">
      <use xlink:href="#DejaVuSans-110"/>
      <use x="63.378906" xlink:href="#DejaVuSans-117"/>
      <use x="126.757812" xlink:href="#DejaVuSans-109"/>
      <use x="224.169922" xlink:href="#DejaVuSans-112"/>
      <use x="287.646484" xlink:href="#DejaVuSans-121"/>
      <use x="332.576172" xlink:href="#DejaVuSans-46"/>
      <use x="364.363281" xlink:href="#DejaVuSans-102"/>
      <use x="399.568359" xlink:href="#DejaVuSans-108"/>
      <use x="427.351562" xlink:href="#DejaVuSans-111"/>
      <use x="488.533203" xlink:href="#DejaVuSans-97"/>
      <use x="549.8125" xlink:href="#DejaVuSans-116"/>
      <use x="589.021484" xlink:href="#DejaVuSans-51"/>
      <use x="652.644531" xlink:href="#DejaVuSans-50"/>
     </g>
    </g>
    <g id="line2d_20">
     <path d="M 1187.373437 114.176562 
L 1207.373437 114.176562 
" style="fill:none;stroke:#ff7f0e;stroke-linecap:square;stroke-width:1.5;"/>
    </g>
    <g id="line2d_21"/>
    <g id="text_20">
     <!-- numpy.float64 -->
     <g transform="translate(1215.373437 117.676562)scale(0.1 -0.1)">
      <use xlink:href="#DejaVuSans-110"/>
      <use x="63.378906" xlink:href="#DejaVuSans-117"/>
      <use x="126.757812" xlink:href="#DejaVuSans-109"/>
      <use x="224.169922" xlink:href="#DejaVuSans-112"/>
      <use x="287.646484" xlink:href="#DejaVuSans-121"/>
      <use x="332.576172" xlink:href="#DejaVuSans-46"/>
      <use x="364.363281" xlink:href="#DejaVuSans-102"/>
      <use x="399.568359" xlink:href="#DejaVuSans-108"/>
      <use x="427.351562" xlink:href="#DejaVuSans-111"/>
      <use x="488.533203" xlink:href="#DejaVuSans-97"/>
      <use x="549.8125" xlink:href="#DejaVuSans-116"/>
      <use x="589.021484" xlink:href="#DejaVuSans-54"/>
      <use x="652.644531" xlink:href="#DejaVuSans-52"/>
     </g>
    </g>
   </g>
  </g>
 </g>
 <defs>
  <clipPath id="pb4cd3132ea">
   <rect height="554.4" width="1116" x="180" y="86.4"/>
  </clipPath>
 </defs>
</svg>
