<?xml version="1.0" encoding="utf-8" standalone="no"?>
<!DOCTYPE svg PUBLIC "-//W3C//DTD SVG 1.1//EN"
  "http://www.w3.org/Graphics/SVG/1.1/DTD/svg11.dtd">
<!-- Created with matplotlib (https://matplotlib.org/) -->
<svg height="720pt" version="1.1" viewBox="0 0 1440 720" width="1440pt" xmlns="http://www.w3.org/2000/svg" xmlns:xlink="http://www.w3.org/1999/xlink">
 <defs>
  <style type="text/css">
*{stroke-linecap:butt;stroke-linejoin:round;}
  </style>
 </defs>
 <g id="figure_1">
  <g id="patch_1">
   <path d="M 0 720 
L 1440 720 
L 1440 0 
L 0 0 
z
" style="fill:#ffffff;"/>
  </g>
  <g id="axes_1">
   <g id="patch_2">
    <path d="M 180 640.8 
L 1296 640.8 
L 1296 86.4 
L 180 86.4 
z
" style="fill:#ffffff;"/>
   </g>
   <g id="matplotlib.axis_1">
    <g id="xtick_1">
     <g id="line2d_1">
      <defs>
       <path d="M 0 0 
L 0 3.5 
" id="m730e1bb519" style="stroke:#000000;stroke-width:0.8;"/>
      </defs>
      <g>
       <use style="stroke:#000000;stroke-width:0.8;" x="333.310231" xlink:href="#m730e1bb519" y="640.8"/>
      </g>
     </g>
     <g id="text_1">
      <!-- 100.0 -->
      <defs>
       <path d="M 12.40625 8.296875 
L 28.515625 8.296875 
L 28.515625 63.921875 
L 10.984375 60.40625 
L 10.984375 69.390625 
L 28.421875 72.90625 
L 38.28125 72.90625 
L 38.28125 8.296875 
L 54.390625 8.296875 
L 54.390625 0 
L 12.40625 0 
z
" id="DejaVuSans-49"/>
       <path d="M 31.78125 66.40625 
Q 24.171875 66.40625 20.328125 58.90625 
Q 16.5 51.421875 16.5 36.375 
Q 16.5 21.390625 20.328125 13.890625 
Q 24.171875 6.390625 31.78125 6.390625 
Q 39.453125 6.390625 43.28125 13.890625 
Q 47.125 21.390625 47.125 36.375 
Q 47.125 51.421875 43.28125 58.90625 
Q 39.453125 66.40625 31.78125 66.40625 
z
M 31.78125 74.21875 
Q 44.046875 74.21875 50.515625 64.515625 
Q 56.984375 54.828125 56.984375 36.375 
Q 56.984375 17.96875 50.515625 8.265625 
Q 44.046875 -1.421875 31.78125 -1.421875 
Q 19.53125 -1.421875 13.0625 8.265625 
Q 6.59375 17.96875 6.59375 36.375 
Q 6.59375 54.828125 13.0625 64.515625 
Q 19.53125 74.21875 31.78125 74.21875 
z
" id="DejaVuSans-48"/>
       <path d="M 10.6875 12.40625 
L 21 12.40625 
L 21 0 
L 10.6875 0 
z
" id="DejaVuSans-46"/>
      </defs>
      <g transform="translate(318.996168 655.398438)scale(0.1 -0.1)">
       <use xlink:href="#DejaVuSans-49"/>
       <use x="63.623047" xlink:href="#DejaVuSans-48"/>
       <use x="127.246094" xlink:href="#DejaVuSans-48"/>
       <use x="190.869141" xlink:href="#DejaVuSans-46"/>
       <use x="222.65625" xlink:href="#DejaVuSans-48"/>
      </g>
     </g>
    </g>
    <g id="xtick_2">
     <g id="line2d_2">
      <g>
       <use style="stroke:#000000;stroke-width:0.8;" x="435.893189" xlink:href="#m730e1bb519" y="640.8"/>
      </g>
     </g>
     <g id="text_2">
      <!-- 200.0 -->
      <defs>
       <path d="M 19.1875 8.296875 
L 53.609375 8.296875 
L 53.609375 0 
L 7.328125 0 
L 7.328125 8.296875 
Q 12.9375 14.109375 22.625 23.890625 
Q 32.328125 33.6875 34.8125 36.53125 
Q 39.546875 41.84375 41.421875 45.53125 
Q 43.3125 49.21875 43.3125 52.78125 
Q 43.3125 58.59375 39.234375 62.25 
Q 35.15625 65.921875 28.609375 65.921875 
Q 23.96875 65.921875 18.8125 64.3125 
Q 13.671875 62.703125 7.8125 59.421875 
L 7.8125 69.390625 
Q 13.765625 71.78125 18.9375 73 
Q 24.125 74.21875 28.421875 74.21875 
Q 39.75 74.21875 46.484375 68.546875 
Q 53.21875 62.890625 53.21875 53.421875 
Q 53.21875 48.921875 51.53125 44.890625 
Q 49.859375 40.875 45.40625 35.40625 
Q 44.1875 33.984375 37.640625 27.21875 
Q 31.109375 20.453125 19.1875 8.296875 
z
" id="DejaVuSans-50"/>
      </defs>
      <g transform="translate(421.579126 655.398438)scale(0.1 -0.1)">
       <use xlink:href="#DejaVuSans-50"/>
       <use x="63.623047" xlink:href="#DejaVuSans-48"/>
       <use x="127.246094" xlink:href="#DejaVuSans-48"/>
       <use x="190.869141" xlink:href="#DejaVuSans-46"/>
       <use x="222.65625" xlink:href="#DejaVuSans-48"/>
      </g>
     </g>
    </g>
    <g id="xtick_3">
     <g id="line2d_3">
      <g>
       <use style="stroke:#000000;stroke-width:0.8;" x="538.476147" xlink:href="#m730e1bb519" y="640.8"/>
      </g>
     </g>
     <g id="text_3">
      <!-- 300.0 -->
      <defs>
       <path d="M 40.578125 39.3125 
Q 47.65625 37.796875 51.625 33 
Q 55.609375 28.21875 55.609375 21.1875 
Q 55.609375 10.40625 48.1875 4.484375 
Q 40.765625 -1.421875 27.09375 -1.421875 
Q 22.515625 -1.421875 17.65625 -0.515625 
Q 12.796875 0.390625 7.625 2.203125 
L 7.625 11.71875 
Q 11.71875 9.328125 16.59375 8.109375 
Q 21.484375 6.890625 26.8125 6.890625 
Q 36.078125 6.890625 40.9375 10.546875 
Q 45.796875 14.203125 45.796875 21.1875 
Q 45.796875 27.640625 41.28125 31.265625 
Q 36.765625 34.90625 28.71875 34.90625 
L 20.21875 34.90625 
L 20.21875 43.015625 
L 29.109375 43.015625 
Q 36.375 43.015625 40.234375 45.921875 
Q 44.09375 48.828125 44.09375 54.296875 
Q 44.09375 59.90625 40.109375 62.90625 
Q 36.140625 65.921875 28.71875 65.921875 
Q 24.65625 65.921875 20.015625 65.03125 
Q 15.375 64.15625 9.8125 62.3125 
L 9.8125 71.09375 
Q 15.4375 72.65625 20.34375 73.4375 
Q 25.25 74.21875 29.59375 74.21875 
Q 40.828125 74.21875 47.359375 69.109375 
Q 53.90625 64.015625 53.90625 55.328125 
Q 53.90625 49.265625 50.4375 45.09375 
Q 46.96875 40.921875 40.578125 39.3125 
z
" id="DejaVuSans-51"/>
      </defs>
      <g transform="translate(524.162084 655.398438)scale(0.1 -0.1)">
       <use xlink:href="#DejaVuSans-51"/>
       <use x="63.623047" xlink:href="#DejaVuSans-48"/>
       <use x="127.246094" xlink:href="#DejaVuSans-48"/>
       <use x="190.869141" xlink:href="#DejaVuSans-46"/>
       <use x="222.65625" xlink:href="#DejaVuSans-48"/>
      </g>
     </g>
    </g>
    <g id="xtick_4">
     <g id="line2d_4">
      <g>
       <use style="stroke:#000000;stroke-width:0.8;" x="641.059105" xlink:href="#m730e1bb519" y="640.8"/>
      </g>
     </g>
     <g id="text_4">
      <!-- 400.0 -->
      <defs>
       <path d="M 37.796875 64.3125 
L 12.890625 25.390625 
L 37.796875 25.390625 
z
M 35.203125 72.90625 
L 47.609375 72.90625 
L 47.609375 25.390625 
L 58.015625 25.390625 
L 58.015625 17.1875 
L 47.609375 17.1875 
L 47.609375 0 
L 37.796875 0 
L 37.796875 17.1875 
L 4.890625 17.1875 
L 4.890625 26.703125 
z
" id="DejaVuSans-52"/>
      </defs>
      <g transform="translate(626.745042 655.398438)scale(0.1 -0.1)">
       <use xlink:href="#DejaVuSans-52"/>
       <use x="63.623047" xlink:href="#DejaVuSans-48"/>
       <use x="127.246094" xlink:href="#DejaVuSans-48"/>
       <use x="190.869141" xlink:href="#DejaVuSans-46"/>
       <use x="222.65625" xlink:href="#DejaVuSans-48"/>
      </g>
     </g>
    </g>
    <g id="xtick_5">
     <g id="line2d_5">
      <g>
       <use style="stroke:#000000;stroke-width:0.8;" x="743.642063" xlink:href="#m730e1bb519" y="640.8"/>
      </g>
     </g>
     <g id="text_5">
      <!-- 500.0 -->
      <defs>
       <path d="M 10.796875 72.90625 
L 49.515625 72.90625 
L 49.515625 64.59375 
L 19.828125 64.59375 
L 19.828125 46.734375 
Q 21.96875 47.46875 24.109375 47.828125 
Q 26.265625 48.1875 28.421875 48.1875 
Q 40.625 48.1875 47.75 41.5 
Q 54.890625 34.8125 54.890625 23.390625 
Q 54.890625 11.625 47.5625 5.09375 
Q 40.234375 -1.421875 26.90625 -1.421875 
Q 22.3125 -1.421875 17.546875 -0.640625 
Q 12.796875 0.140625 7.71875 1.703125 
L 7.71875 11.625 
Q 12.109375 9.234375 16.796875 8.0625 
Q 21.484375 6.890625 26.703125 6.890625 
Q 35.15625 6.890625 40.078125 11.328125 
Q 45.015625 15.765625 45.015625 23.390625 
Q 45.015625 31 40.078125 35.4375 
Q 35.15625 39.890625 26.703125 39.890625 
Q 22.75 39.890625 18.8125 39.015625 
Q 14.890625 38.140625 10.796875 36.28125 
z
" id="DejaVuSans-53"/>
      </defs>
      <g transform="translate(729.328 655.398438)scale(0.1 -0.1)">
       <use xlink:href="#DejaVuSans-53"/>
       <use x="63.623047" xlink:href="#DejaVuSans-48"/>
       <use x="127.246094" xlink:href="#DejaVuSans-48"/>
       <use x="190.869141" xlink:href="#DejaVuSans-46"/>
       <use x="222.65625" xlink:href="#DejaVuSans-48"/>
      </g>
     </g>
    </g>
    <g id="xtick_6">
     <g id="line2d_6">
      <g>
       <use style="stroke:#000000;stroke-width:0.8;" x="846.225021" xlink:href="#m730e1bb519" y="640.8"/>
      </g>
     </g>
     <g id="text_6">
      <!-- 600.0 -->
      <defs>
       <path d="M 33.015625 40.375 
Q 26.375 40.375 22.484375 35.828125 
Q 18.609375 31.296875 18.609375 23.390625 
Q 18.609375 15.53125 22.484375 10.953125 
Q 26.375 6.390625 33.015625 6.390625 
Q 39.65625 6.390625 43.53125 10.953125 
Q 47.40625 15.53125 47.40625 23.390625 
Q 47.40625 31.296875 43.53125 35.828125 
Q 39.65625 40.375 33.015625 40.375 
z
M 52.59375 71.296875 
L 52.59375 62.3125 
Q 48.875 64.0625 45.09375 64.984375 
Q 41.3125 65.921875 37.59375 65.921875 
Q 27.828125 65.921875 22.671875 59.328125 
Q 17.53125 52.734375 16.796875 39.40625 
Q 19.671875 43.65625 24.015625 45.921875 
Q 28.375 48.1875 33.59375 48.1875 
Q 44.578125 48.1875 50.953125 41.515625 
Q 57.328125 34.859375 57.328125 23.390625 
Q 57.328125 12.15625 50.6875 5.359375 
Q 44.046875 -1.421875 33.015625 -1.421875 
Q 20.359375 -1.421875 13.671875 8.265625 
Q 6.984375 17.96875 6.984375 36.375 
Q 6.984375 53.65625 15.1875 63.9375 
Q 23.390625 74.21875 37.203125 74.21875 
Q 40.921875 74.21875 44.703125 73.484375 
Q 48.484375 72.75 52.59375 71.296875 
z
" id="DejaVuSans-54"/>
      </defs>
      <g transform="translate(831.910958 655.398438)scale(0.1 -0.1)">
       <use xlink:href="#DejaVuSans-54"/>
       <use x="63.623047" xlink:href="#DejaVuSans-48"/>
       <use x="127.246094" xlink:href="#DejaVuSans-48"/>
       <use x="190.869141" xlink:href="#DejaVuSans-46"/>
       <use x="222.65625" xlink:href="#DejaVuSans-48"/>
      </g>
     </g>
    </g>
    <g id="xtick_7">
     <g id="line2d_7">
      <g>
       <use style="stroke:#000000;stroke-width:0.8;" x="948.807979" xlink:href="#m730e1bb519" y="640.8"/>
      </g>
     </g>
     <g id="text_7">
      <!-- 700.0 -->
      <defs>
       <path d="M 8.203125 72.90625 
L 55.078125 72.90625 
L 55.078125 68.703125 
L 28.609375 0 
L 18.3125 0 
L 43.21875 64.59375 
L 8.203125 64.59375 
z
" id="DejaVuSans-55"/>
      </defs>
      <g transform="translate(934.493916 655.398438)scale(0.1 -0.1)">
       <use xlink:href="#DejaVuSans-55"/>
       <use x="63.623047" xlink:href="#DejaVuSans-48"/>
       <use x="127.246094" xlink:href="#DejaVuSans-48"/>
       <use x="190.869141" xlink:href="#DejaVuSans-46"/>
       <use x="222.65625" xlink:href="#DejaVuSans-48"/>
      </g>
     </g>
    </g>
    <g id="xtick_8">
     <g id="line2d_8">
      <g>
       <use style="stroke:#000000;stroke-width:0.8;" x="1051.390937" xlink:href="#m730e1bb519" y="640.8"/>
      </g>
     </g>
     <g id="text_8">
      <!-- 800.0 -->
      <defs>
       <path d="M 31.78125 34.625 
Q 24.75 34.625 20.71875 30.859375 
Q 16.703125 27.09375 16.703125 20.515625 
Q 16.703125 13.921875 20.71875 10.15625 
Q 24.75 6.390625 31.78125 6.390625 
Q 38.8125 6.390625 42.859375 10.171875 
Q 46.921875 13.96875 46.921875 20.515625 
Q 46.921875 27.09375 42.890625 30.859375 
Q 38.875 34.625 31.78125 34.625 
z
M 21.921875 38.8125 
Q 15.578125 40.375 12.03125 44.71875 
Q 8.5 49.078125 8.5 55.328125 
Q 8.5 64.0625 14.71875 69.140625 
Q 20.953125 74.21875 31.78125 74.21875 
Q 42.671875 74.21875 48.875 69.140625 
Q 55.078125 64.0625 55.078125 55.328125 
Q 55.078125 49.078125 51.53125 44.71875 
Q 48 40.375 41.703125 38.8125 
Q 48.828125 37.15625 52.796875 32.3125 
Q 56.78125 27.484375 56.78125 20.515625 
Q 56.78125 9.90625 50.3125 4.234375 
Q 43.84375 -1.421875 31.78125 -1.421875 
Q 19.734375 -1.421875 13.25 4.234375 
Q 6.78125 9.90625 6.78125 20.515625 
Q 6.78125 27.484375 10.78125 32.3125 
Q 14.796875 37.15625 21.921875 38.8125 
z
M 18.3125 54.390625 
Q 18.3125 48.734375 21.84375 45.5625 
Q 25.390625 42.390625 31.78125 42.390625 
Q 38.140625 42.390625 41.71875 45.5625 
Q 45.3125 48.734375 45.3125 54.390625 
Q 45.3125 60.0625 41.71875 63.234375 
Q 38.140625 66.40625 31.78125 66.40625 
Q 25.390625 66.40625 21.84375 63.234375 
Q 18.3125 60.0625 18.3125 54.390625 
z
" id="DejaVuSans-56"/>
      </defs>
      <g transform="translate(1037.076874 655.398438)scale(0.1 -0.1)">
       <use xlink:href="#DejaVuSans-56"/>
       <use x="63.623047" xlink:href="#DejaVuSans-48"/>
       <use x="127.246094" xlink:href="#DejaVuSans-48"/>
       <use x="190.869141" xlink:href="#DejaVuSans-46"/>
       <use x="222.65625" xlink:href="#DejaVuSans-48"/>
      </g>
     </g>
    </g>
    <g id="xtick_9">
     <g id="line2d_9">
      <g>
       <use style="stroke:#000000;stroke-width:0.8;" x="1153.973895" xlink:href="#m730e1bb519" y="640.8"/>
      </g>
     </g>
     <g id="text_9">
      <!-- 900.0 -->
      <defs>
       <path d="M 10.984375 1.515625 
L 10.984375 10.5 
Q 14.703125 8.734375 18.5 7.8125 
Q 22.3125 6.890625 25.984375 6.890625 
Q 35.75 6.890625 40.890625 13.453125 
Q 46.046875 20.015625 46.78125 33.40625 
Q 43.953125 29.203125 39.59375 26.953125 
Q 35.25 24.703125 29.984375 24.703125 
Q 19.046875 24.703125 12.671875 31.3125 
Q 6.296875 37.9375 6.296875 49.421875 
Q 6.296875 60.640625 12.9375 67.421875 
Q 19.578125 74.21875 30.609375 74.21875 
Q 43.265625 74.21875 49.921875 64.515625 
Q 56.59375 54.828125 56.59375 36.375 
Q 56.59375 19.140625 48.40625 8.859375 
Q 40.234375 -1.421875 26.421875 -1.421875 
Q 22.703125 -1.421875 18.890625 -0.6875 
Q 15.09375 0.046875 10.984375 1.515625 
z
M 30.609375 32.421875 
Q 37.25 32.421875 41.125 36.953125 
Q 45.015625 41.5 45.015625 49.421875 
Q 45.015625 57.28125 41.125 61.84375 
Q 37.25 66.40625 30.609375 66.40625 
Q 23.96875 66.40625 20.09375 61.84375 
Q 16.21875 57.28125 16.21875 49.421875 
Q 16.21875 41.5 20.09375 36.953125 
Q 23.96875 32.421875 30.609375 32.421875 
z
" id="DejaVuSans-57"/>
      </defs>
      <g transform="translate(1139.659832 655.398438)scale(0.1 -0.1)">
       <use xlink:href="#DejaVuSans-57"/>
       <use x="63.623047" xlink:href="#DejaVuSans-48"/>
       <use x="127.246094" xlink:href="#DejaVuSans-48"/>
       <use x="190.869141" xlink:href="#DejaVuSans-46"/>
       <use x="222.65625" xlink:href="#DejaVuSans-48"/>
      </g>
     </g>
    </g>
    <g id="xtick_10">
     <g id="line2d_10">
      <g>
       <use style="stroke:#000000;stroke-width:0.8;" x="1256.556853" xlink:href="#m730e1bb519" y="640.8"/>
      </g>
     </g>
     <g id="text_10">
      <!-- 1000.0 -->
      <g transform="translate(1239.06154 655.398438)scale(0.1 -0.1)">
       <use xlink:href="#DejaVuSans-49"/>
       <use x="63.623047" xlink:href="#DejaVuSans-48"/>
       <use x="127.246094" xlink:href="#DejaVuSans-48"/>
       <use x="190.869141" xlink:href="#DejaVuSans-48"/>
       <use x="254.492188" xlink:href="#DejaVuSans-46"/>
       <use x="286.279297" xlink:href="#DejaVuSans-48"/>
      </g>
     </g>
    </g>
    <g id="text_11">
     <!-- n -->
     <defs>
      <path d="M 54.890625 33.015625 
L 54.890625 0 
L 45.90625 0 
L 45.90625 32.71875 
Q 45.90625 40.484375 42.875 44.328125 
Q 39.84375 48.1875 33.796875 48.1875 
Q 26.515625 48.1875 22.3125 43.546875 
Q 18.109375 38.921875 18.109375 30.90625 
L 18.109375 0 
L 9.078125 0 
L 9.078125 54.6875 
L 18.109375 54.6875 
L 18.109375 46.1875 
Q 21.34375 51.125 25.703125 53.5625 
Q 30.078125 56 35.796875 56 
Q 45.21875 56 50.046875 50.171875 
Q 54.890625 44.34375 54.890625 33.015625 
z
" id="DejaVuSans-110"/>
     </defs>
     <g transform="translate(734.83125 669.076563)scale(0.1 -0.1)">
      <use xlink:href="#DejaVuSans-110"/>
     </g>
    </g>
   </g>
   <g id="matplotlib.axis_2">
    <g id="ytick_1">
     <g id="line2d_11">
      <defs>
       <path d="M 0 0 
L -3.5 0 
" id="m9611c291ea" style="stroke:#000000;stroke-width:0.8;"/>
      </defs>
      <g>
       <use style="stroke:#000000;stroke-width:0.8;" x="180" xlink:href="#m9611c291ea" y="636.685307"/>
      </g>
     </g>
     <g id="text_12">
      <!-- 0 -->
      <g transform="translate(166.6375 640.484525)scale(0.1 -0.1)">
       <use xlink:href="#DejaVuSans-48"/>
      </g>
     </g>
    </g>
    <g id="ytick_2">
     <g id="line2d_12">
      <g>
       <use style="stroke:#000000;stroke-width:0.8;" x="180" xlink:href="#m9611c291ea" y="556.987811"/>
      </g>
     </g>
     <g id="text_13">
      <!-- 50 -->
      <g transform="translate(160.275 560.78703)scale(0.1 -0.1)">
       <use xlink:href="#DejaVuSans-53"/>
       <use x="63.623047" xlink:href="#DejaVuSans-48"/>
      </g>
     </g>
    </g>
    <g id="ytick_3">
     <g id="line2d_13">
      <g>
       <use style="stroke:#000000;stroke-width:0.8;" x="180" xlink:href="#m9611c291ea" y="477.290316"/>
      </g>
     </g>
     <g id="text_14">
      <!-- 100 -->
      <g transform="translate(153.9125 481.089534)scale(0.1 -0.1)">
       <use xlink:href="#DejaVuSans-49"/>
       <use x="63.623047" xlink:href="#DejaVuSans-48"/>
       <use x="127.246094" xlink:href="#DejaVuSans-48"/>
      </g>
     </g>
    </g>
    <g id="ytick_4">
     <g id="line2d_14">
      <g>
       <use style="stroke:#000000;stroke-width:0.8;" x="180" xlink:href="#m9611c291ea" y="397.59282"/>
      </g>
     </g>
     <g id="text_15">
      <!-- 150 -->
      <g transform="translate(153.9125 401.392039)scale(0.1 -0.1)">
       <use xlink:href="#DejaVuSans-49"/>
       <use x="63.623047" xlink:href="#DejaVuSans-53"/>
       <use x="127.246094" xlink:href="#DejaVuSans-48"/>
      </g>
     </g>
    </g>
    <g id="ytick_5">
     <g id="line2d_15">
      <g>
       <use style="stroke:#000000;stroke-width:0.8;" x="180" xlink:href="#m9611c291ea" y="317.895325"/>
      </g>
     </g>
     <g id="text_16">
      <!-- 200 -->
      <g transform="translate(153.9125 321.694543)scale(0.1 -0.1)">
       <use xlink:href="#DejaVuSans-50"/>
       <use x="63.623047" xlink:href="#DejaVuSans-48"/>
       <use x="127.246094" xlink:href="#DejaVuSans-48"/>
      </g>
     </g>
    </g>
    <g id="ytick_6">
     <g id="line2d_16">
      <g>
       <use style="stroke:#000000;stroke-width:0.8;" x="180" xlink:href="#m9611c291ea" y="238.197829"/>
      </g>
     </g>
     <g id="text_17">
      <!-- 250 -->
      <g transform="translate(153.9125 241.997048)scale(0.1 -0.1)">
       <use xlink:href="#DejaVuSans-50"/>
       <use x="63.623047" xlink:href="#DejaVuSans-53"/>
       <use x="127.246094" xlink:href="#DejaVuSans-48"/>
      </g>
     </g>
    </g>
    <g id="ytick_7">
     <g id="line2d_17">
      <g>
       <use style="stroke:#000000;stroke-width:0.8;" x="180" xlink:href="#m9611c291ea" y="158.500334"/>
      </g>
     </g>
     <g id="text_18">
      <!-- 300 -->
      <g transform="translate(153.9125 162.299553)scale(0.1 -0.1)">
       <use xlink:href="#DejaVuSans-51"/>
       <use x="63.623047" xlink:href="#DejaVuSans-48"/>
       <use x="127.246094" xlink:href="#DejaVuSans-48"/>
      </g>
     </g>
    </g>
    <g id="text_19">
     <!-- speedup -->
     <defs>
      <path d="M 44.28125 53.078125 
L 44.28125 44.578125 
Q 40.484375 46.53125 36.375 47.5 
Q 32.28125 48.484375 27.875 48.484375 
Q 21.1875 48.484375 17.84375 46.4375 
Q 14.5 44.390625 14.5 40.28125 
Q 14.5 37.15625 16.890625 35.375 
Q 19.28125 33.59375 26.515625 31.984375 
L 29.59375 31.296875 
Q 39.15625 29.25 43.1875 25.515625 
Q 47.21875 21.78125 47.21875 15.09375 
Q 47.21875 7.46875 41.1875 3.015625 
Q 35.15625 -1.421875 24.609375 -1.421875 
Q 20.21875 -1.421875 15.453125 -0.5625 
Q 10.6875 0.296875 5.421875 2 
L 5.421875 11.28125 
Q 10.40625 8.6875 15.234375 7.390625 
Q 20.0625 6.109375 24.8125 6.109375 
Q 31.15625 6.109375 34.5625 8.28125 
Q 37.984375 10.453125 37.984375 14.40625 
Q 37.984375 18.0625 35.515625 20.015625 
Q 33.0625 21.96875 24.703125 23.78125 
L 21.578125 24.515625 
Q 13.234375 26.265625 9.515625 29.90625 
Q 5.8125 33.546875 5.8125 39.890625 
Q 5.8125 47.609375 11.28125 51.796875 
Q 16.75 56 26.8125 56 
Q 31.78125 56 36.171875 55.265625 
Q 40.578125 54.546875 44.28125 53.078125 
z
" id="DejaVuSans-115"/>
      <path d="M 18.109375 8.203125 
L 18.109375 -20.796875 
L 9.078125 -20.796875 
L 9.078125 54.6875 
L 18.109375 54.6875 
L 18.109375 46.390625 
Q 20.953125 51.265625 25.265625 53.625 
Q 29.59375 56 35.59375 56 
Q 45.5625 56 51.78125 48.09375 
Q 58.015625 40.1875 58.015625 27.296875 
Q 58.015625 14.40625 51.78125 6.484375 
Q 45.5625 -1.421875 35.59375 -1.421875 
Q 29.59375 -1.421875 25.265625 0.953125 
Q 20.953125 3.328125 18.109375 8.203125 
z
M 48.6875 27.296875 
Q 48.6875 37.203125 44.609375 42.84375 
Q 40.53125 48.484375 33.40625 48.484375 
Q 26.265625 48.484375 22.1875 42.84375 
Q 18.109375 37.203125 18.109375 27.296875 
Q 18.109375 17.390625 22.1875 11.75 
Q 26.265625 6.109375 33.40625 6.109375 
Q 40.53125 6.109375 44.609375 11.75 
Q 48.6875 17.390625 48.6875 27.296875 
z
" id="DejaVuSans-112"/>
      <path d="M 56.203125 29.59375 
L 56.203125 25.203125 
L 14.890625 25.203125 
Q 15.484375 15.921875 20.484375 11.0625 
Q 25.484375 6.203125 34.421875 6.203125 
Q 39.59375 6.203125 44.453125 7.46875 
Q 49.3125 8.734375 54.109375 11.28125 
L 54.109375 2.78125 
Q 49.265625 0.734375 44.1875 -0.34375 
Q 39.109375 -1.421875 33.890625 -1.421875 
Q 20.796875 -1.421875 13.15625 6.1875 
Q 5.515625 13.8125 5.515625 26.8125 
Q 5.515625 40.234375 12.765625 48.109375 
Q 20.015625 56 32.328125 56 
Q 43.359375 56 49.78125 48.890625 
Q 56.203125 41.796875 56.203125 29.59375 
z
M 47.21875 32.234375 
Q 47.125 39.59375 43.09375 43.984375 
Q 39.0625 48.390625 32.421875 48.390625 
Q 24.90625 48.390625 20.390625 44.140625 
Q 15.875 39.890625 15.1875 32.171875 
z
" id="DejaVuSans-101"/>
      <path d="M 45.40625 46.390625 
L 45.40625 75.984375 
L 54.390625 75.984375 
L 54.390625 0 
L 45.40625 0 
L 45.40625 8.203125 
Q 42.578125 3.328125 38.25 0.953125 
Q 33.9375 -1.421875 27.875 -1.421875 
Q 17.96875 -1.421875 11.734375 6.484375 
Q 5.515625 14.40625 5.515625 27.296875 
Q 5.515625 40.1875 11.734375 48.09375 
Q 17.96875 56 27.875 56 
Q 33.9375 56 38.25 53.625 
Q 42.578125 51.265625 45.40625 46.390625 
z
M 14.796875 27.296875 
Q 14.796875 17.390625 18.875 11.75 
Q 22.953125 6.109375 30.078125 6.109375 
Q 37.203125 6.109375 41.296875 11.75 
Q 45.40625 17.390625 45.40625 27.296875 
Q 45.40625 37.203125 41.296875 42.84375 
Q 37.203125 48.484375 30.078125 48.484375 
Q 22.953125 48.484375 18.875 42.84375 
Q 14.796875 37.203125 14.796875 27.296875 
z
" id="DejaVuSans-100"/>
      <path d="M 8.5 21.578125 
L 8.5 54.6875 
L 17.484375 54.6875 
L 17.484375 21.921875 
Q 17.484375 14.15625 20.5 10.265625 
Q 23.53125 6.390625 29.59375 6.390625 
Q 36.859375 6.390625 41.078125 11.03125 
Q 45.3125 15.671875 45.3125 23.6875 
L 45.3125 54.6875 
L 54.296875 54.6875 
L 54.296875 0 
L 45.3125 0 
L 45.3125 8.40625 
Q 42.046875 3.421875 37.71875 1 
Q 33.40625 -1.421875 27.6875 -1.421875 
Q 18.265625 -1.421875 13.375 4.4375 
Q 8.5 10.296875 8.5 21.578125 
z
M 31.109375 56 
z
" id="DejaVuSans-117"/>
     </defs>
     <g transform="translate(147.832812 385.049219)rotate(-90)scale(0.1 -0.1)">
      <use xlink:href="#DejaVuSans-115"/>
      <use x="52.099609" xlink:href="#DejaVuSans-112"/>
      <use x="115.576172" xlink:href="#DejaVuSans-101"/>
      <use x="177.099609" xlink:href="#DejaVuSans-101"/>
      <use x="238.623047" xlink:href="#DejaVuSans-100"/>
      <use x="302.099609" xlink:href="#DejaVuSans-117"/>
      <use x="365.478516" xlink:href="#DejaVuSans-112"/>
     </g>
    </g>
   </g>
   <g id="line2d_18">
    <path clip-path="url(#p56e8fc0cb2)" d="M 230.727273 307.53472 
L 231.753102 457.54187 
L 232.778932 221.847682 
L 233.804761 465.843164 
L 234.830591 255.586277 
L 235.856421 459.830335 
L 236.88225 458.185533 
L 237.90808 275.416911 
L 238.933909 483.738316 
L 239.959739 458.293395 
L 240.985569 261.358547 
L 242.011398 467.689989 
L 243.037228 281.075883 
L 244.063057 472.235771 
L 245.088887 462.241951 
L 246.114716 264.855467 
L 247.140546 280.433246 
L 248.166376 268.332678 
L 249.192205 283.229236 
L 250.218035 281.132502 
L 251.243864 289.07686 
L 252.269694 277.274936 
L 253.295523 308.745528 
L 254.321353 309.689077 
L 255.347183 271.995749 
L 256.373012 303.417349 
L 257.398842 306.283084 
L 258.424671 314.577419 
L 259.450501 273.939787 
L 260.476331 111.6 
L 261.50216 429.117518 
L 262.52799 315.201329 
L 263.553819 303.218222 
L 264.579649 308.623135 
L 265.605478 325.627065 
L 266.631308 326.537425 
L 267.657138 308.994686 
L 268.682967 295.994518 
L 269.708797 340.048542 
L 270.734626 337.349596 
L 271.760456 312.513089 
L 272.786286 312.102159 
L 273.812115 331.931736 
L 274.837945 344.220654 
L 275.863774 317.471888 
L 276.889604 327.821347 
L 277.915433 350.68594 
L 278.941263 340.102135 
L 279.967093 326.574866 
L 280.992922 337.211251 
L 283.044581 341.21677 
L 284.070411 335.800289 
L 285.09624 336.780686 
L 286.12207 331.227254 
L 287.1479 343.759209 
L 288.173729 335.010151 
L 289.199559 336.795542 
L 290.225388 344.611131 
L 291.251218 338.618889 
L 292.277048 342.585282 
L 293.302877 340.743316 
L 294.328707 353.480377 
L 295.354536 350.426473 
L 296.380366 357.819361 
L 297.406195 368.543612 
L 298.432025 373.898719 
L 299.457855 358.23557 
L 300.483684 371.675871 
L 301.509514 394.055584 
L 302.535343 362.246989 
L 303.561173 363.728918 
L 304.587002 357.207607 
L 305.612832 367.259454 
L 306.638662 368.39849 
L 307.664491 363.92905 
L 308.690321 373.288523 
L 309.71615 362.60441 
L 310.74198 360.180033 
L 311.76781 365.237559 
L 312.793639 372.306449 
L 313.819469 371.881607 
L 314.845298 364.263332 
L 315.871128 373.223028 
L 316.896957 371.582722 
L 317.922787 378.801751 
L 318.948617 377.115884 
L 319.974446 364.426148 
L 321.000276 387.474347 
L 322.026105 379.09566 
L 323.051935 387.357138 
L 324.077765 378.215315 
L 325.103594 386.5637 
L 326.129424 379.438302 
L 327.155253 394.635644 
L 328.181083 393.615721 
L 329.206912 379.241015 
L 330.232742 387.095987 
L 332.284401 406.620736 
L 333.310231 386.686403 
L 334.33606 373.855785 
L 335.36189 396.785918 
L 336.387719 399.812175 
L 337.413549 391.293344 
L 338.439379 398.708808 
L 339.465208 404.831254 
L 340.491038 407.346333 
L 341.516867 390.255804 
L 342.542697 380.928854 
L 343.568527 270.572601 
L 344.594356 414.778073 
L 345.620186 393.944572 
L 346.646015 420.989167 
L 347.671845 416.574829 
L 348.697674 415.435904 
L 349.723504 408.343087 
L 350.749334 404.327261 
L 351.775163 419.001772 
L 352.800993 385.917748 
L 353.826822 373.830616 
L 354.852652 404.050417 
L 355.878481 440.844717 
L 357.930141 402.033537 
L 358.95597 412.643868 
L 359.9818 407.895088 
L 361.007629 430.942429 
L 362.033459 412.512424 
L 363.059289 414.80876 
L 364.085118 421.279841 
L 365.110948 419.768264 
L 366.136777 412.327961 
L 367.162607 417.201958 
L 368.188436 401.318548 
L 370.240096 413.939125 
L 371.265925 424.382615 
L 372.291755 408.722397 
L 373.317584 395.854579 
L 374.343414 425.472188 
L 375.369243 427.645277 
L 376.395073 420.537386 
L 377.420903 400.068094 
L 378.446732 428.153412 
L 379.472562 400.639515 
L 380.498391 424.786382 
L 381.524221 418.721075 
L 382.550051 404.867981 
L 383.57588 427.573406 
L 384.60171 424.07651 
L 386.653369 414.400676 
L 387.679198 428.167471 
L 388.705028 413.73377 
L 389.730858 414.865854 
L 390.756687 403.164162 
L 391.782517 438.160833 
L 392.808346 398.258033 
L 393.834176 428.091324 
L 394.860006 435.124 
L 395.885835 440.177944 
L 396.911665 411.203775 
L 397.937494 411.293509 
L 398.963324 430.609145 
L 399.989153 427.943323 
L 401.014983 429.088465 
L 402.040813 433.014727 
L 403.066642 409.588582 
L 404.092472 434.882098 
L 405.118301 436.14646 
L 406.144131 405.93607 
L 407.16996 415.233248 
L 408.19579 416.043109 
L 409.22162 403.031102 
L 410.247449 434.457127 
L 411.273279 438.519646 
L 412.299108 437.883823 
L 413.324938 434.370748 
L 414.350768 441.880562 
L 415.376597 430.478122 
L 416.402427 415.409766 
L 417.428256 440.908862 
L 418.454086 439.457333 
L 419.479915 451.795419 
L 420.505745 426.984734 
L 421.531575 432.889598 
L 422.557404 412.887357 
L 423.583234 446.571941 
L 424.609063 452.848672 
L 425.634893 451.820411 
L 426.660722 439.602878 
L 427.686552 423.087297 
L 428.712382 424.515799 
L 429.738211 442.609276 
L 430.764041 445.228047 
L 431.78987 425.244482 
L 432.8157 457.870538 
L 433.84153 443.53434 
L 434.867359 449.450339 
L 435.893189 452.55206 
L 436.919018 459.055202 
L 437.944848 427.489803 
L 438.970677 444.485116 
L 439.996507 430.757962 
L 441.022337 461.449772 
L 442.048166 421.103235 
L 443.073996 452.90225 
L 444.099825 455.840016 
L 445.125655 424.464348 
L 446.151485 424.604311 
L 447.177314 455.352669 
L 448.203144 426.437177 
L 449.228973 429.676903 
L 450.254803 449.243437 
L 451.280632 452.474933 
L 452.306462 448.16042 
L 453.332292 457.028699 
L 454.358121 452.188603 
L 455.383951 419.129204 
L 456.40978 458.432374 
L 457.43561 426.823299 
L 458.461439 449.215038 
L 459.487269 446.109809 
L 460.513099 433.474853 
L 461.538928 426.068822 
L 462.564758 419.549792 
L 463.590587 444.936105 
L 464.616417 449.438612 
L 466.668076 422.450497 
L 467.693906 421.144891 
L 468.719735 451.614589 
L 469.745565 427.650679 
L 470.771394 423.966103 
L 471.797224 461.14599 
L 472.823054 450.021382 
L 473.848883 468.111917 
L 474.874713 429.463124 
L 475.900542 417.222701 
L 476.926372 442.990407 
L 478.978031 461.460442 
L 480.003861 451.263696 
L 481.02969 427.728074 
L 482.05552 432.969359 
L 483.081349 456.091969 
L 484.107179 459.484763 
L 485.133009 439.202431 
L 486.158838 460.750031 
L 487.184668 435.541484 
L 488.210497 445.946918 
L 489.236327 465.618603 
L 490.262156 434.980486 
L 491.287986 463.625724 
L 492.313816 468.612655 
L 493.339645 470.721334 
L 494.365475 477.137661 
L 495.391304 460.051893 
L 496.417134 455.554474 
L 497.442964 436.365712 
L 498.468793 473.983013 
L 499.494623 471.774025 
L 500.520452 433.481611 
L 501.546282 474.587762 
L 502.572111 463.45792 
L 503.597941 444.148466 
L 504.623771 475.461105 
L 505.6496 468.031746 
L 506.67543 470.853899 
L 507.701259 429.01247 
L 508.727089 456.61616 
L 509.752918 469.735221 
L 510.778748 487.088314 
L 511.804578 465.991451 
L 512.830407 454.335509 
L 513.856237 478.39288 
L 514.882066 464.752 
L 515.907896 434.982243 
L 516.933726 458.674812 
L 517.959555 476.562084 
L 518.985385 459.566042 
L 520.011214 470.427133 
L 521.037044 457.607043 
L 522.062873 472.40276 
L 523.088703 471.478588 
L 524.114533 437.581392 
L 525.140362 489.650056 
L 526.166192 490.55278 
L 527.192021 463.627428 
L 528.217851 476.984275 
L 529.24368 442.583363 
L 530.26951 453.324452 
L 531.29534 477.994291 
L 532.321169 473.920217 
L 533.346999 465.713291 
L 534.372828 461.266707 
L 535.398658 459.137218 
L 536.424488 470.35176 
L 537.450317 430.807269 
L 538.476147 463.934691 
L 540.527806 437.613257 
L 541.553635 478.602272 
L 542.579465 477.190577 
L 544.631124 461.247479 
L 545.656954 445.264433 
L 546.682783 474.016455 
L 547.708613 470.842494 
L 548.734443 470.197037 
L 549.760272 474.418515 
L 550.786102 461.992661 
L 551.811931 460.713502 
L 552.837761 479.829139 
L 553.86359 481.660791 
L 554.88942 486.836779 
L 555.91525 472.028616 
L 556.941079 474.845188 
L 557.966909 477.992826 
L 558.992738 442.890222 
L 560.018568 504.436872 
L 561.044397 473.477683 
L 562.070227 474.329444 
L 563.096057 482.105155 
L 564.121886 493.091598 
L 565.147716 474.10393 
L 566.173545 482.079857 
L 567.199375 435.844549 
L 568.225205 470.356319 
L 569.251034 489.639152 
L 570.276864 490.070974 
L 571.302693 472.942129 
L 572.328523 470.289225 
L 573.354352 487.209294 
L 574.380182 457.09692 
L 575.406012 479.653449 
L 576.431841 445.69916 
L 577.457671 487.166432 
L 578.4835 491.076721 
L 579.50933 490.821434 
L 580.535159 491.695374 
L 581.560989 455.271766 
L 582.586819 486.212617 
L 583.612648 475.702006 
L 585.664307 489.103349 
L 586.690137 491.491728 
L 587.715967 459.348668 
L 588.741796 449.825802 
L 589.767626 493.19537 
L 590.793455 489.728411 
L 591.819285 474.831932 
L 592.845114 477.633872 
L 593.870944 479.527394 
L 594.896774 452.109119 
L 595.922603 452.512266 
L 596.948433 460.623564 
L 597.974262 506.321838 
L 599.000092 482.509358 
L 600.025922 486.334098 
L 601.051751 492.853999 
L 602.077581 480.685727 
L 603.10341 473.476324 
L 604.12924 470.103643 
L 605.155069 499.953908 
L 606.180899 456.057136 
L 607.206729 461.238956 
L 608.232558 467.653516 
L 609.258388 464.419296 
L 610.284217 473.833899 
L 611.310047 511.185442 
L 612.335876 496.230511 
L 613.361706 491.555577 
L 614.387536 452.750931 
L 615.413365 472.576985 
L 616.439195 495.605697 
L 617.465024 487.058219 
L 618.490854 488.328726 
L 619.516684 491.173411 
L 620.542513 483.977651 
L 621.568343 494.97789 
L 622.594172 498.089773 
L 623.620002 475.235196 
L 624.645831 491.657875 
L 625.671661 492.0972 
L 626.697491 470.631324 
L 627.72332 454.75927 
L 628.74915 481.632594 
L 629.774979 468.095715 
L 630.800809 485.999809 
L 631.826638 484.774362 
L 632.852468 496.474743 
L 633.878298 494.172031 
L 634.904127 489.382008 
L 635.929957 489.600009 
L 636.955786 471.704889 
L 637.981616 490.108231 
L 639.007446 512.690786 
L 640.033275 484.916637 
L 641.059105 489.833909 
L 642.084934 503.015938 
L 643.110764 480.785696 
L 644.136593 470.218988 
L 645.162423 486.615229 
L 646.188253 495.718949 
L 647.214082 479.596047 
L 648.239912 496.025582 
L 649.265741 475.535519 
L 650.291571 480.099042 
L 651.3174 477.07838 
L 652.34323 484.215315 
L 653.36906 463.708696 
L 654.394889 479.269164 
L 655.420719 492.525838 
L 656.446548 491.067154 
L 657.472378 487.068999 
L 658.498208 493.963584 
L 659.524037 484.075249 
L 660.549867 483.320984 
L 661.575696 496.370164 
L 662.601526 493.681874 
L 663.627355 504.3414 
L 664.653185 493.029594 
L 665.679015 512.258907 
L 666.704844 480.66389 
L 667.730674 538.190187 
L 668.756503 515.764201 
L 669.782333 478.224548 
L 670.808163 511.457002 
L 671.833992 505.629855 
L 672.859822 507.851544 
L 673.885651 484.867048 
L 674.911481 505.353942 
L 675.93731 511.274622 
L 676.96314 511.910717 
L 677.98897 511.097255 
L 679.014799 510.826683 
L 680.040629 522.414472 
L 681.066458 507.405783 
L 682.092288 518.439723 
L 683.118117 486.573797 
L 684.143947 505.263462 
L 685.169777 512.102084 
L 686.195606 499.011856 
L 687.221436 515.558404 
L 688.247265 523.646721 
L 689.273095 521.699567 
L 690.298925 537.212991 
L 691.324754 506.359162 
L 693.376413 500.283349 
L 694.402243 511.06602 
L 695.428072 488.136137 
L 696.453902 511.375311 
L 697.479732 496.966573 
L 698.505561 512.797884 
L 699.531391 514.359473 
L 700.55722 524.382193 
L 701.58305 517.678098 
L 702.608879 502.213805 
L 703.634709 493.914545 
L 704.660539 517.974652 
L 705.686368 513.02547 
L 706.712198 486.095434 
L 707.738027 514.250334 
L 708.763857 508.012309 
L 709.789687 507.224967 
L 710.815516 456.06322 
L 711.841346 546.911358 
L 712.867175 521.881851 
L 713.893005 514.369787 
L 714.918834 514.331104 
L 715.944664 505.192995 
L 716.970494 502.94015 
L 717.996323 497.50798 
L 719.022153 501.385693 
L 720.047982 497.942402 
L 721.073812 531.448748 
L 722.099642 514.01839 
L 723.125471 510.196465 
L 724.151301 509.230002 
L 725.17713 517.507213 
L 726.20296 520.575865 
L 727.228789 510.400939 
L 728.254619 506.223247 
L 729.280449 518.434461 
L 730.306278 582.85408 
L 731.332108 531.487675 
L 732.357937 537.860306 
L 733.383767 530.36342 
L 734.409596 539.387982 
L 735.435426 534.99123 
L 736.461256 531.959498 
L 737.487085 539.697583 
L 738.512915 539.219017 
L 739.538744 533.41999 
L 740.564574 536.079388 
L 741.590404 539.898858 
L 742.616233 538.900761 
L 743.642063 526.280378 
L 744.667892 524.525729 
L 745.693722 529.461093 
L 746.719551 528.676063 
L 747.745381 535.615101 
L 748.771211 534.513927 
L 749.79704 531.628648 
L 750.82287 529.766177 
L 751.848699 504.614737 
L 752.874529 532.395419 
L 753.900358 530.927074 
L 754.926188 537.375397 
L 755.952018 538.226198 
L 756.977847 536.418551 
L 758.003677 540.155724 
L 759.029506 531.022511 
L 760.055336 534.169199 
L 761.081166 526.748644 
L 762.106995 541.924399 
L 763.132825 542.533553 
L 764.158654 529.261179 
L 765.184484 536.480587 
L 766.210313 539.374752 
L 767.236143 533.988433 
L 768.261973 536.840259 
L 769.287802 517.937417 
L 770.313632 516.486132 
L 771.339461 543.233701 
L 772.365291 538.76438 
L 773.391121 539.140302 
L 774.41695 535.625136 
L 775.44278 544.060049 
L 776.468609 541.325141 
L 777.494439 539.394222 
L 778.520268 531.932552 
L 779.546098 541.014112 
L 780.571928 539.20425 
L 781.597757 528.588183 
L 782.623587 527.489564 
L 783.649416 536.746152 
L 784.675246 537.513418 
L 785.701075 527.393649 
L 786.726905 543.026546 
L 787.752735 542.030711 
L 788.778564 541.852285 
L 789.804394 499.950342 
L 790.830223 540.946548 
L 791.856053 543.046003 
L 792.881883 540.603087 
L 793.907712 536.484695 
L 794.933542 535.071849 
L 795.959371 545.387697 
L 796.985201 539.478909 
L 798.01103 539.748933 
L 799.03686 541.800407 
L 800.06269 533.339129 
L 801.088519 541.166925 
L 802.114349 539.223864 
L 803.140178 543.259594 
L 804.166008 546.617002 
L 805.191837 543.576975 
L 806.217667 529.644506 
L 807.243497 541.109812 
L 808.269326 540.468863 
L 809.295156 542.753076 
L 810.320985 541.963161 
L 811.346815 545.023083 
L 812.372645 537.625611 
L 813.398474 540.629011 
L 814.424304 532.094966 
L 815.450133 544.27498 
L 816.475963 539.660601 
L 817.501792 543.186889 
L 818.527622 544.443641 
L 819.553452 541.206143 
L 820.579281 545.266098 
L 821.605111 530.862858 
L 822.63094 544.105297 
L 823.65677 539.424724 
L 824.6826 538.512451 
L 825.708429 546.723251 
L 826.734259 543.70198 
L 827.760088 548.37833 
L 828.785918 547.580711 
L 829.811747 539.984421 
L 830.837577 541.050016 
L 831.863407 548.519041 
L 832.889236 547.693197 
L 833.915066 534.629058 
L 834.940895 531.106154 
L 835.966725 539.283233 
L 836.992554 537.391431 
L 838.018384 544.406948 
L 839.044214 541.098006 
L 840.070043 536.714924 
L 841.095873 543.881026 
L 842.121702 542.986045 
L 843.147532 539.47048 
L 844.173362 537.007838 
L 845.199191 541.359172 
L 846.225021 540.556273 
L 847.25085 544.997063 
L 848.27668 548.279487 
L 849.302509 549.337326 
L 850.328339 536.3918 
L 851.354169 543.848304 
L 852.379998 545.895809 
L 853.405828 544.465676 
L 854.431657 542.005529 
L 855.457487 543.110441 
L 856.483316 514.395688 
L 857.509146 532.738355 
L 858.534976 523.004874 
L 859.560805 521.607733 
L 860.586635 528.640407 
L 861.612464 536.543671 
L 862.638294 509.992276 
L 863.664124 524.645743 
L 864.689953 549.787321 
L 865.715783 537.670879 
L 866.741612 548.105371 
L 867.767442 532.722582 
L 868.793271 548.198035 
L 869.819101 541.125937 
L 870.844931 546.397265 
L 871.87076 521.146073 
L 872.89659 541.881034 
L 873.922419 547.731467 
L 874.948249 537.450214 
L 875.974078 547.920336 
L 876.999908 540.764821 
L 878.025738 553.30016 
L 879.051567 535.68698 
L 880.077397 545.818005 
L 881.103226 547.542174 
L 882.129056 552.480416 
L 883.154886 545.294401 
L 884.180715 547.076891 
L 885.206545 543.825984 
L 886.232374 452.162502 
L 887.258204 531.181147 
L 888.284033 526.294487 
L 889.309863 525.88782 
L 890.335693 541.302583 
L 891.361522 521.744437 
L 892.387352 511.275369 
L 893.413181 535.678344 
L 894.439011 526.267109 
L 895.464841 527.997299 
L 896.49067 526.136407 
L 897.5165 533.435444 
L 898.542329 531.156841 
L 899.568159 532.444286 
L 900.593988 520.701603 
L 901.619818 530.409079 
L 902.645648 533.163984 
L 903.671477 527.552792 
L 904.697307 526.990157 
L 905.723136 519.998621 
L 906.748966 536.564364 
L 907.774795 518.007136 
L 908.800625 528.889152 
L 909.826455 534.749711 
L 910.852284 531.61686 
L 911.878114 522.622933 
L 912.903943 527.012765 
L 913.929773 525.55468 
L 914.955603 533.87042 
L 915.981432 528.304116 
L 917.007262 533.808748 
L 918.033091 515.464405 
L 919.058921 515.839761 
L 920.08475 515.595478 
L 921.11058 522.267914 
L 922.13641 514.144678 
L 923.162239 588.657425 
L 924.188069 529.03827 
L 925.213898 542.731914 
L 926.239728 516.712076 
L 927.265557 532.662868 
L 928.291387 528.881373 
L 929.317217 529.189597 
L 930.343046 582.433778 
L 931.368876 531.203948 
L 932.394705 514.920737 
L 933.420535 518.692888 
L 934.446365 526.205079 
L 935.472194 527.105629 
L 936.498024 517.589818 
L 937.523853 515.135375 
L 938.549683 521.906391 
L 939.575512 517.123678 
L 940.601342 528.113343 
L 941.627172 522.630191 
L 942.653001 525.940159 
L 943.678831 526.716456 
L 944.70466 516.978971 
L 945.73049 529.220742 
L 946.75632 528.866029 
L 947.782149 517.323292 
L 948.807979 525.509534 
L 949.833808 526.516705 
L 950.859638 523.335333 
L 951.885467 518.210781 
L 952.911297 522.513494 
L 953.937127 532.942405 
L 954.962956 529.079362 
L 955.988786 520.119577 
L 957.014615 523.096125 
L 958.040445 520.472745 
L 959.066274 528.7088 
L 960.092104 517.257454 
L 961.117934 521.131264 
L 962.143763 529.396439 
L 963.169593 521.096156 
L 964.195422 529.584259 
L 965.221252 524.432515 
L 966.247082 521.234319 
L 968.298741 527.282196 
L 969.32457 521.325584 
L 970.3504 525.145544 
L 971.376229 529.497921 
L 972.402059 524.292851 
L 973.427889 526.790325 
L 974.453718 520.337896 
L 975.479548 527.219054 
L 976.505377 520.10382 
L 977.531207 524.827802 
L 978.557036 530.789604 
L 979.582866 533.028403 
L 980.608696 524.472846 
L 981.634525 522.086331 
L 982.660355 529.620686 
L 983.686184 526.784912 
L 984.712014 529.616347 
L 985.737844 529.655616 
L 986.763673 534.409279 
L 987.789503 523.258438 
L 988.815332 526.3018 
L 989.841162 524.620854 
L 990.866991 531.339367 
L 991.892821 531.196111 
L 992.918651 526.749802 
L 993.94448 526.319013 
L 994.97031 539.027474 
L 995.996139 526.573626 
L 998.047799 536.596162 
L 999.073628 521.270214 
L 1000.099458 524.201049 
L 1001.125287 528.950688 
L 1002.151117 522.849435 
L 1003.176946 528.365992 
L 1004.202776 527.83924 
L 1005.228606 528.040261 
L 1007.280265 532.044056 
L 1008.306094 531.388157 
L 1009.331924 533.129494 
L 1010.357753 524.296993 
L 1011.383583 535.634877 
L 1012.409413 524.889465 
L 1013.435242 525.422837 
L 1014.461072 534.459383 
L 1015.486901 528.828092 
L 1016.512731 531.585369 
L 1017.538561 532.784634 
L 1018.56439 527.57474 
L 1019.59022 529.769163 
L 1020.616049 538.199871 
L 1021.641879 530.498861 
L 1022.667708 534.879529 
L 1023.693538 545.013774 
L 1024.719368 526.658785 
L 1025.745197 532.546786 
L 1026.771027 530.657588 
L 1027.796856 526.005332 
L 1028.822686 537.123561 
L 1029.848515 537.070619 
L 1030.874345 531.128397 
L 1031.900175 531.830627 
L 1032.926004 539.101655 
L 1033.951834 530.265248 
L 1034.977663 524.927543 
L 1036.003493 535.123544 
L 1037.029323 526.092379 
L 1038.055152 535.646783 
L 1039.080982 591.953334 
L 1040.106811 531.010279 
L 1041.132641 533.875545 
L 1042.15847 527.223856 
L 1043.1843 526.276936 
L 1044.21013 532.240433 
L 1045.235959 531.895506 
L 1046.261789 534.372646 
L 1047.287618 533.326657 
L 1048.313448 533.997982 
L 1049.339278 566.689607 
L 1050.365107 530.595809 
L 1051.390937 537.870348 
L 1052.416766 533.589983 
L 1053.442596 538.269614 
L 1054.468425 536.894842 
L 1055.494255 532.307008 
L 1056.520085 536.310663 
L 1057.545914 528.458985 
L 1058.571744 533.655523 
L 1059.597573 535.576343 
L 1060.623403 534.737445 
L 1061.649232 534.21775 
L 1062.675062 530.6861 
L 1063.700892 534.983248 
L 1064.726721 533.635809 
L 1065.752551 539.199711 
L 1066.77838 535.271152 
L 1067.80421 534.046977 
L 1068.83004 539.053665 
L 1069.855869 531.37523 
L 1070.881699 538.734695 
L 1071.907528 537.645885 
L 1072.933358 547.334114 
L 1073.959187 529.23316 
L 1074.985017 532.861132 
L 1076.010847 531.947583 
L 1077.036676 539.858895 
L 1078.062506 537.849882 
L 1079.088335 529.34386 
L 1080.114165 538.351435 
L 1082.165824 533.675861 
L 1083.191654 536.984198 
L 1084.217483 534.918202 
L 1085.243313 535.196694 
L 1086.269142 535.15691 
L 1087.294972 540.036604 
L 1088.320802 535.987381 
L 1089.346631 530.486083 
L 1090.372461 536.419531 
L 1091.39829 536.145756 
L 1092.42412 532.920875 
L 1093.449949 541.157487 
L 1094.475779 535.871143 
L 1095.501609 537.194047 
L 1096.527438 535.531794 
L 1097.553268 532.375645 
L 1098.579097 533.925661 
L 1099.604927 536.584235 
L 1100.630757 535.028747 
L 1101.656586 537.967083 
L 1102.682416 538.041879 
L 1103.708245 533.448838 
L 1105.759904 537.763676 
L 1106.785734 542.887836 
L 1107.811564 568.98374 
L 1108.837393 537.664396 
L 1109.863223 540.921526 
L 1110.889052 553.919699 
L 1111.914882 537.104183 
L 1112.940711 539.883396 
L 1113.966541 535.227149 
L 1114.992371 535.175145 
L 1116.0182 539.252127 
L 1117.04403 540.353475 
L 1118.069859 538.834855 
L 1119.095689 542.705845 
L 1120.121519 538.07183 
L 1121.147348 542.653702 
L 1122.173178 540.554352 
L 1123.199007 539.042383 
L 1124.224837 538.682033 
L 1125.250666 540.358651 
L 1126.276496 541.173343 
L 1128.328155 534.864928 
L 1129.353985 539.177582 
L 1130.379814 538.215933 
L 1131.405644 539.382532 
L 1132.431473 536.814877 
L 1133.457303 540.887683 
L 1134.483133 540.668496 
L 1135.508962 538.183697 
L 1136.534792 534.429681 
L 1137.560621 541.702723 
L 1138.586451 543.200097 
L 1139.612281 543.717256 
L 1140.63811 540.214276 
L 1141.66394 539.227454 
L 1142.689769 541.355849 
L 1143.715599 540.251164 
L 1144.741428 542.595007 
L 1145.767258 541.587203 
L 1146.793088 538.69659 
L 1147.818917 540.652483 
L 1148.844747 540.291419 
L 1149.870576 538.968069 
L 1150.896406 537.408976 
L 1151.922235 542.017392 
L 1152.948065 540.743532 
L 1153.973895 541.730945 
L 1154.999724 538.319233 
L 1156.025554 538.283354 
L 1157.051383 541.395126 
L 1158.077213 541.259579 
L 1159.103043 541.514588 
L 1160.128872 543.485633 
L 1161.154702 542.435871 
L 1162.180531 539.19514 
L 1163.206361 575.31738 
L 1164.23219 541.315154 
L 1165.25802 544.512537 
L 1166.28385 542.075533 
L 1167.309679 541.622014 
L 1168.335509 537.555061 
L 1169.361338 542.653816 
L 1170.387168 543.082734 
L 1171.412998 540.175717 
L 1172.438827 543.260311 
L 1173.464657 544.587406 
L 1174.490486 540.571435 
L 1175.516316 541.87579 
L 1176.542145 542.719401 
L 1177.567975 546.13702 
L 1178.593805 542.929831 
L 1179.619634 545.716884 
L 1180.645464 542.448082 
L 1181.671293 541.292149 
L 1182.697123 542.883324 
L 1183.722952 541.325801 
L 1184.748782 545.191105 
L 1185.774612 540.692646 
L 1186.800441 540.172436 
L 1187.826271 541.642785 
L 1188.8521 543.920687 
L 1189.87793 542.668943 
L 1190.90376 541.084326 
L 1191.929589 546.947115 
L 1192.955419 542.23483 
L 1193.981248 540.819477 
L 1195.007078 546.569711 
L 1196.032907 538.906377 
L 1197.058737 545.08691 
L 1198.084567 537.686352 
L 1199.110396 545.88242 
L 1200.136226 544.860033 
L 1201.162055 543.369662 
L 1202.187885 544.006064 
L 1203.213714 549.72684 
L 1204.239544 541.945005 
L 1205.265374 541.267346 
L 1206.291203 543.098237 
L 1207.317033 522.933579 
L 1208.342862 543.789423 
L 1209.368692 544.395536 
L 1210.394522 543.548762 
L 1211.420351 543.657252 
L 1212.446181 541.859496 
L 1213.47201 546.115406 
L 1214.49784 542.803531 
L 1215.523669 548.888496 
L 1216.549499 549.527394 
L 1217.575329 543.770849 
L 1218.601158 547.895676 
L 1219.626988 544.19237 
L 1220.652817 544.28499 
L 1221.678647 547.733217 
L 1222.704477 544.156703 
L 1223.730306 542.174223 
L 1225.781965 549.924379 
L 1226.807795 542.413241 
L 1227.833624 546.20318 
L 1228.859454 545.975717 
L 1229.885284 546.417314 
L 1230.911113 546.292531 
L 1231.936943 544.022363 
L 1232.962772 547.233729 
L 1233.988602 590.367648 
L 1235.014431 545.889136 
L 1236.040261 546.284013 
L 1237.066091 546.455739 
L 1238.09192 545.810537 
L 1239.11775 546.547388 
L 1240.143579 544.638327 
L 1241.169409 547.117535 
L 1242.195239 546.091877 
L 1243.221068 545.577617 
L 1244.246898 547.488639 
L 1245.272727 552.958341 
L 1245.272727 552.958341 
" style="fill:none;stroke:#1f77b4;stroke-linecap:square;stroke-width:1.5;"/>
   </g>
   <g id="line2d_19">
    <path clip-path="url(#p56e8fc0cb2)" d="M 230.727273 344.238977 
L 231.753102 274.141464 
L 232.778932 259.209966 
L 233.804761 296.928839 
L 234.830591 280.527667 
L 235.856421 302.674361 
L 236.88225 307.222877 
L 237.90808 299.24882 
L 238.933909 313.423421 
L 239.959739 319.553491 
L 240.985569 318.954362 
L 242.011398 335.031923 
L 243.037228 328.977329 
L 244.063057 346.751799 
L 245.088887 346.26273 
L 246.114716 343.394843 
L 247.140546 351.862056 
L 248.166376 357.097474 
L 249.192205 376.883139 
L 250.218035 364.384563 
L 251.243864 373.172666 
L 252.269694 377.331434 
L 253.295523 381.002238 
L 254.321353 381.074082 
L 255.347183 398.317322 
L 256.373012 378.07817 
L 257.398842 399.790288 
L 258.424671 399.854566 
L 259.450501 406.671083 
L 260.476331 402.293287 
L 261.50216 412.516548 
L 262.52799 407.602679 
L 263.553819 411.437373 
L 264.579649 410.576103 
L 265.605478 414.441373 
L 266.631308 416.355658 
L 267.657138 418.703969 
L 268.682967 417.041026 
L 269.708797 420.753453 
L 270.734626 423.2931 
L 271.760456 421.602627 
L 272.786286 406.359083 
L 273.812115 426.820142 
L 274.837945 414.202417 
L 275.863774 414.689003 
L 276.889604 427.290824 
L 277.915433 427.989178 
L 278.941263 427.196464 
L 279.967093 434.03889 
L 280.992922 435.617038 
L 282.018752 445.542346 
L 283.044581 435.454491 
L 284.070411 448.517907 
L 285.09624 444.281935 
L 286.12207 430.619889 
L 287.1479 434.079339 
L 288.173729 436.268564 
L 289.199559 434.037598 
L 290.225388 456.531994 
L 291.251218 443.741139 
L 292.277048 452.616084 
L 293.302877 456.501774 
L 295.354536 447.002891 
L 297.406195 464.512367 
L 298.432025 470.713081 
L 299.457855 465.483171 
L 300.483684 458.960472 
L 301.509514 461.225658 
L 302.535343 467.966923 
L 304.587002 463.716856 
L 305.612832 462.945766 
L 306.638662 469.624589 
L 307.664491 471.197062 
L 308.690321 462.512362 
L 309.71615 468.249016 
L 310.74198 471.021455 
L 311.76781 469.418105 
L 312.793639 480.560439 
L 313.819469 475.830562 
L 314.845298 462.723959 
L 315.871128 474.618435 
L 316.896957 468.636918 
L 317.922787 468.178278 
L 318.948617 469.853613 
L 319.974446 475.242268 
L 321.000276 468.561364 
L 322.026105 484.492498 
L 323.051935 470.92377 
L 324.077765 483.494079 
L 325.103594 479.850806 
L 326.129424 483.654502 
L 327.155253 474.110296 
L 328.181083 486.805091 
L 329.206912 480.702776 
L 330.232742 485.423532 
L 331.258572 485.117426 
L 332.284401 490.086198 
L 333.310231 481.35643 
L 334.33606 490.813617 
L 335.36189 490.5419 
L 336.387719 494.400065 
L 337.413549 487.749455 
L 338.439379 497.27499 
L 339.465208 500.842936 
L 340.491038 499.803009 
L 341.516867 505.812854 
L 342.542697 500.038519 
L 343.568527 492.836681 
L 344.594356 500.27182 
L 345.620186 494.077247 
L 346.646015 505.756865 
L 347.671845 494.087301 
L 348.697674 501.475843 
L 349.723504 500.664291 
L 350.749334 496.257619 
L 351.775163 500.838464 
L 352.800993 504.565261 
L 353.826822 498.026841 
L 354.852652 504.52513 
L 355.878481 501.04581 
L 356.904311 560.666829 
L 357.930141 500.42441 
L 358.95597 507.379352 
L 359.9818 502.949411 
L 361.007629 509.655315 
L 362.033459 504.002024 
L 363.059289 510.338636 
L 364.085118 505.962054 
L 365.110948 513.581727 
L 366.136777 507.13309 
L 367.162607 514.916846 
L 368.188436 509.4063 
L 369.214266 515.321129 
L 370.240096 509.877889 
L 371.265925 522.45851 
L 372.291755 510.564187 
L 373.317584 519.328056 
L 374.343414 512.47201 
L 375.369243 519.138942 
L 376.395073 512.587598 
L 377.420903 521.462598 
L 378.446732 517.33638 
L 379.472562 511.990871 
L 380.498391 517.36729 
L 381.524221 524.157298 
L 382.550051 521.067158 
L 383.57588 522.757877 
L 384.60171 516.523898 
L 385.627539 524.528906 
L 386.653369 519.443089 
L 387.679198 524.657801 
L 388.705028 519.767428 
L 389.730858 529.574927 
L 390.756687 522.380458 
L 391.782517 530.194981 
L 392.808346 522.179845 
L 393.834176 531.009558 
L 394.860006 523.181819 
L 395.885835 528.509022 
L 396.911665 524.036423 
L 397.937494 531.101968 
L 398.963324 525.827108 
L 399.989153 531.829588 
L 401.014983 526.762725 
L 402.040813 532.275283 
L 403.066642 526.598153 
L 404.092472 530.427691 
L 405.118301 527.032951 
L 406.144131 532.79364 
L 407.16996 532.896979 
L 408.19579 534.547016 
L 409.22162 528.594822 
L 410.247449 534.082777 
L 411.273279 545.841095 
L 412.299108 535.714993 
L 413.324938 532.961192 
L 414.350768 538.150847 
L 415.376597 535.661787 
L 416.402427 540.65895 
L 417.428256 533.402542 
L 418.454086 541.179665 
L 419.479915 534.883596 
L 420.505745 539.326205 
L 421.531575 536.855042 
L 422.557404 539.17828 
L 423.583234 535.192813 
L 424.609063 541.442079 
L 425.634893 533.751963 
L 426.660722 541.637226 
L 427.686552 537.26058 
L 428.712382 544.864713 
L 429.738211 537.760612 
L 430.764041 543.145194 
L 431.78987 538.898874 
L 432.8157 545.083705 
L 433.84153 543.936032 
L 434.867359 545.791733 
L 435.893189 540.319861 
L 436.919018 545.352161 
L 437.944848 540.888964 
L 438.970677 546.375782 
L 439.996507 541.515668 
L 441.022337 545.210802 
L 442.048166 542.825654 
L 443.073996 550.984298 
L 444.099825 544.251918 
L 445.125655 549.954871 
L 446.151485 543.060706 
L 447.177314 550.166433 
L 448.203144 545.616588 
L 449.228973 549.733171 
L 450.254803 545.321966 
L 451.280632 559.830391 
L 452.306462 547.399402 
L 453.332292 551.371803 
L 454.358121 550.956137 
L 455.383951 553.130222 
L 456.40978 546.643513 
L 457.43561 552.923948 
L 458.461439 548.540367 
L 459.487269 555.054136 
L 460.513099 548.920266 
L 461.538928 553.322259 
L 462.564758 549.791582 
L 463.590587 554.91522 
L 464.616417 552.334127 
L 465.642247 554.835563 
L 466.668076 549.761409 
L 467.693906 555.482711 
L 468.719735 550.930552 
L 469.745565 555.297838 
L 470.771394 552.209785 
L 471.797224 556.436925 
L 472.823054 552.743998 
L 473.848883 556.547466 
L 474.874713 552.692067 
L 475.900542 558.963211 
L 476.926372 578.144728 
L 477.952201 558.795886 
L 478.978031 552.028537 
L 480.003861 559.497899 
L 481.02969 554.409674 
L 482.05552 559.249705 
L 483.081349 556.419369 
L 484.107179 558.949489 
L 485.133009 554.577846 
L 486.158838 560.116646 
L 487.184668 556.750316 
L 488.210497 561.448408 
L 489.236327 578.351326 
L 490.262156 561.357244 
L 491.287986 555.679324 
L 492.313816 561.707515 
L 493.339645 557.363245 
L 494.365475 563.420975 
L 495.391304 557.289249 
L 496.417134 559.379273 
L 497.442964 559.02226 
L 498.468793 563.267481 
L 499.494623 558.992471 
L 500.520452 564.731854 
L 501.546282 559.940335 
L 502.572111 565.703642 
L 503.597941 560.814993 
L 504.623771 576.276555 
L 505.6496 556.966064 
L 506.67543 565.448771 
L 507.701259 561.212576 
L 508.727089 565.196249 
L 509.752918 562.285063 
L 510.778748 570.251956 
L 511.804578 562.079787 
L 512.830407 565.565715 
L 513.856237 562.182384 
L 514.882066 565.38646 
L 515.907896 562.670213 
L 516.933726 567.018019 
L 517.959555 565.528227 
L 518.985385 567.04708 
L 520.011214 562.452868 
L 521.037044 568.955187 
L 522.062873 563.442765 
L 523.088703 568.946282 
L 524.114533 564.439081 
L 525.140362 568.625087 
L 526.166192 563.722388 
L 527.192021 567.331533 
L 528.217851 565.348738 
L 529.24368 569.407921 
L 530.26951 566.07902 
L 531.29534 569.695331 
L 532.321169 566.511233 
L 533.346999 570.884494 
L 534.372828 569.149742 
L 535.398658 570.192396 
L 536.424488 567.112021 
L 537.450317 571.632976 
L 538.476147 565.786593 
L 539.501976 570.949755 
L 540.527806 569.109631 
L 541.553635 572.08221 
L 542.579465 568.212484 
L 543.605295 572.358944 
L 544.631124 568.396062 
L 545.656954 572.265886 
L 546.682783 569.088324 
L 547.708613 573.114469 
L 548.734443 569.618715 
L 549.760272 574.636157 
L 550.786102 569.290346 
L 551.811931 574.739547 
L 552.837761 570.76819 
L 553.86359 574.962955 
L 554.88942 569.779679 
L 555.91525 573.689573 
L 556.941079 570.654181 
L 557.966909 574.930763 
L 558.992738 568.700279 
L 560.018568 573.499661 
L 561.044397 571.491836 
L 562.070227 576.207227 
L 563.096057 570.786282 
L 564.121886 575.311868 
L 565.147716 572.551743 
L 566.173545 574.937878 
L 567.199375 571.265781 
L 568.225205 575.444087 
L 569.251034 572.746916 
L 570.276864 575.610742 
L 571.302693 572.188449 
L 572.328523 576.443286 
L 573.354352 574.432694 
L 574.380182 577.51786 
L 575.406012 589.144394 
L 576.431841 576.534212 
L 577.457671 571.843631 
L 578.4835 577.068515 
L 579.50933 573.930363 
L 580.535159 577.895631 
L 581.560989 574.410921 
L 582.586819 578.700131 
L 583.612648 575.315059 
L 584.638478 579.75016 
L 585.664307 575.28236 
L 586.690137 580.193581 
L 587.715967 576.078974 
L 588.741796 591.50565 
L 589.767626 576.425693 
L 590.793455 579.805271 
L 591.819285 577.017304 
L 592.845114 580.007232 
L 593.870944 575.894297 
L 594.896774 578.900327 
L 595.922603 577.667669 
L 596.948433 578.881235 
L 597.974262 577.479972 
L 599.000092 580.665113 
L 600.025922 578.561199 
L 601.051751 580.354021 
L 602.077581 577.34018 
L 603.10341 580.506475 
L 604.12924 579.729943 
L 605.155069 581.099052 
L 606.180899 578.538068 
L 607.206729 581.112676 
L 608.232558 578.156461 
L 609.258388 582.568854 
L 610.284217 578.684812 
L 611.310047 582.704887 
L 612.335876 579.017486 
L 613.361706 581.584635 
L 614.387536 577.441243 
L 615.413365 583.430725 
L 616.439195 577.953671 
L 617.465024 583.020344 
L 618.490854 578.560809 
L 619.516684 583.799949 
L 620.542513 580.032658 
L 621.568343 582.504195 
L 622.594172 580.171209 
L 623.620002 583.732643 
L 624.645831 579.296876 
L 625.671661 583.623598 
L 626.697491 581.192965 
L 627.72332 596.114684 
L 628.74915 580.848518 
L 629.774979 582.875135 
L 630.800809 581.10112 
L 631.826638 584.275627 
L 632.852468 582.138116 
L 633.878298 583.098732 
L 634.904127 581.770453 
L 635.929957 584.549973 
L 636.955786 582.289933 
L 637.981616 604.749568 
L 639.007446 582.659395 
L 640.033275 586.20377 
L 641.059105 582.393166 
L 642.084934 585.949479 
L 643.110764 583.217674 
L 644.136593 586.490581 
L 645.162423 583.721715 
L 646.188253 586.348172 
L 647.214082 583.907673 
L 648.239912 587.106189 
L 649.265741 585.072158 
L 650.291571 586.915066 
L 651.3174 583.254595 
L 652.34323 587.820341 
L 653.36906 584.074996 
L 654.394889 587.240947 
L 655.420719 584.414125 
L 656.446548 587.849096 
L 657.472378 585.07109 
L 658.498208 588.348714 
L 659.524037 584.22901 
L 660.549867 588.430917 
L 661.575696 585.197447 
L 662.601526 589.034268 
L 663.627355 585.517098 
L 664.653185 583.059811 
L 665.679015 572.461977 
L 666.704844 570.832595 
L 667.730674 585.459448 
L 668.756503 588.329261 
L 669.782333 586.027428 
L 670.808163 588.682379 
L 671.833992 585.67064 
L 672.859822 588.885228 
L 673.885651 586.265477 
L 674.911481 589.776975 
L 675.93731 586.382909 
L 676.96314 588.868425 
L 677.98897 581.208666 
L 679.014799 589.839566 
L 680.040629 597.240145 
L 681.066458 590.277057 
L 682.092288 586.344932 
L 683.118117 590.92095 
L 684.143947 587.076167 
L 685.169777 590.166242 
L 686.195606 587.575435 
L 687.221436 590.012619 
L 688.247265 587.747713 
L 689.273095 590.684686 
L 690.298925 587.029663 
L 691.324754 591.492552 
L 692.350584 588.185928 
L 693.376413 591.611149 
L 694.402243 588.114343 
L 695.428072 590.644175 
L 696.453902 588.963718 
L 697.479732 591.533987 
L 698.505561 589.254246 
L 699.531391 591.379987 
L 700.55722 588.156309 
L 701.58305 591.909635 
L 702.608879 588.976036 
L 703.634709 591.550163 
L 704.660539 589.055907 
L 705.686368 591.126499 
L 706.712198 588.853724 
L 707.738027 591.975074 
L 708.763857 589.383465 
L 709.789687 592.202063 
L 710.815516 589.14982 
L 711.841346 591.289553 
L 712.867175 589.212833 
L 713.893005 591.581626 
L 714.918834 590.02335 
L 715.944664 592.586958 
L 716.970494 589.747345 
L 717.996323 592.37688 
L 719.022153 590.310967 
L 720.047982 592.977999 
L 721.073812 591.061764 
L 722.099642 592.978781 
L 723.125471 590.218221 
L 724.151301 593.328759 
L 725.17713 590.73978 
L 726.20296 593.940222 
L 727.228789 590.924193 
L 728.254619 593.152279 
L 729.280449 591.305533 
L 730.306278 593.656052 
L 731.332108 591.714131 
L 732.357937 594.323005 
L 733.383767 590.860636 
L 734.409596 595.619637 
L 735.435426 592.895598 
L 736.461256 595.680345 
L 737.487085 592.819906 
L 738.512915 595.740122 
L 739.538744 593.087386 
L 740.564574 595.5016 
L 741.590404 593.102699 
L 742.616233 595.842775 
L 743.642063 593.105527 
L 744.667892 596.43102 
L 745.693722 601.032563 
L 746.719551 596.085328 
L 747.745381 593.421828 
L 748.771211 596.248026 
L 749.79704 594.170815 
L 750.82287 596.625754 
L 751.848699 594.015182 
L 752.874529 602.538914 
L 753.900358 594.122208 
L 754.926188 596.284006 
L 755.952018 594.089409 
L 756.977847 596.832764 
L 758.003677 594.666781 
L 759.029506 597.014778 
L 760.055336 594.585268 
L 761.081166 597.257174 
L 762.106995 594.203287 
L 763.132825 597.325906 
L 764.158654 594.135197 
L 765.184484 597.358386 
L 766.210313 594.833417 
L 767.236143 597.206298 
L 768.261973 595.028372 
L 769.287802 596.768764 
L 770.313632 594.881599 
L 771.339461 597.528197 
L 772.365291 594.973152 
L 773.391121 597.459568 
L 774.41695 593.884996 
L 775.44278 597.929079 
L 776.468609 594.538954 
L 777.494439 597.925859 
L 778.520268 595.195283 
L 779.546098 597.85853 
L 780.571928 594.187733 
L 781.597757 598.16534 
L 782.623587 595.834588 
L 783.649416 598.464324 
L 784.675246 596.053831 
L 785.701075 598.397391 
L 786.726905 592.652304 
L 787.752735 581.989405 
L 788.778564 595.387865 
L 789.804394 598.736403 
L 790.830223 595.305082 
L 791.856053 597.696306 
L 792.881883 595.949341 
L 793.907712 598.233769 
L 794.933542 596.17481 
L 795.959371 597.847397 
L 796.985201 596.576944 
L 798.01103 595.502963 
L 799.03686 596.482358 
L 800.06269 598.580171 
L 801.088519 596.544172 
L 802.114349 599.610259 
L 803.140178 596.874231 
L 804.166008 599.277512 
L 805.191837 597.544134 
L 806.217667 597.369108 
L 807.243497 595.870504 
L 808.269326 598.113161 
L 809.295156 595.812844 
L 810.320985 598.74835 
L 811.346815 595.643154 
L 812.372645 600.204205 
L 813.398474 597.097798 
L 814.424304 599.197052 
L 815.450133 596.767069 
L 816.475963 599.808959 
L 817.501792 597.304991 
L 818.527622 600.278474 
L 819.553452 596.969566 
L 820.579281 599.06925 
L 821.605111 597.741606 
L 822.63094 598.987919 
L 823.65677 596.882124 
L 824.6826 599.140116 
L 825.708429 596.885257 
L 826.734259 599.556299 
L 827.760088 597.375201 
L 828.785918 600.621659 
L 829.811747 597.18101 
L 830.837577 598.507064 
L 831.863407 598.51268 
L 832.889236 600.602221 
L 833.915066 598.809196 
L 834.940895 600.735198 
L 835.966725 598.743871 
L 836.992554 600.871758 
L 838.018384 598.700482 
L 839.044214 601.06863 
L 840.070043 598.280462 
L 841.095873 601.412929 
L 842.121702 598.679546 
L 843.147532 601.418699 
L 844.173362 598.681308 
L 845.199191 600.61677 
L 847.25085 600.351793 
L 848.27668 597.460971 
L 849.302509 601.335828 
L 850.328339 598.496697 
L 851.354169 599.507529 
L 852.379998 598.229271 
L 853.405828 608.291284 
L 854.431657 594.7578 
L 855.457487 601.99884 
L 856.483316 599.459135 
L 857.509146 601.92433 
L 858.534976 599.391786 
L 859.560805 601.8577 
L 860.586635 599.690509 
L 861.612464 599.564849 
L 862.638294 599.753504 
L 863.664124 602.403659 
L 864.689953 600.331003 
L 865.715783 602.386482 
L 866.741612 600.298392 
L 867.767442 602.64612 
L 868.793271 600.515464 
L 869.819101 602.738535 
L 870.844931 600.701349 
L 871.87076 602.974916 
L 872.89659 600.428197 
L 873.922419 602.904494 
L 874.948249 600.645005 
L 875.974078 602.8245 
L 876.999908 600.828723 
L 878.025738 602.781047 
L 879.051567 600.6559 
L 880.077397 602.946649 
L 881.103226 601.136508 
L 882.129056 603.159715 
L 883.154886 601.039996 
L 884.180715 602.96125 
L 885.206545 601.208266 
L 886.232374 603.262341 
L 887.258204 601.358651 
L 888.284033 603.265911 
L 889.309863 601.328192 
L 890.335693 603.688732 
L 891.361522 601.438145 
L 892.387352 603.40358 
L 893.413181 601.649657 
L 894.439011 603.694843 
L 895.464841 601.76862 
L 896.49067 603.77204 
L 897.5165 601.695786 
L 898.542329 603.968129 
L 899.568159 601.602013 
L 900.593988 603.989908 
L 901.619818 601.827982 
L 902.645648 604.112428 
L 903.671477 602.095954 
L 904.697307 604.012914 
L 905.723136 601.33029 
L 906.748966 604.291055 
L 907.774795 602.095022 
L 908.800625 604.386043 
L 909.826455 602.198441 
L 910.852284 603.264519 
L 911.878114 602.247869 
L 912.903943 603.959975 
L 913.929773 602.388956 
L 914.955603 604.771713 
L 915.981432 602.035116 
L 917.007262 604.604736 
L 918.033091 601.633156 
L 919.058921 604.631688 
L 920.08475 602.313798 
L 921.11058 604.838168 
L 922.13641 602.339789 
L 923.162239 604.798272 
L 924.188069 602.568905 
L 925.213898 604.7626 
L 926.239728 602.557015 
L 927.265557 604.944961 
L 928.291387 600.888232 
L 929.317217 604.971015 
L 930.343046 600.762288 
L 931.368876 611.784144 
L 932.394705 603.17071 
L 933.420535 605.110525 
L 934.446365 603.304199 
L 935.472194 605.050832 
L 936.498024 603.334404 
L 937.523853 605.269528 
L 938.549683 603.647316 
L 939.575512 605.342266 
L 940.601342 603.383137 
L 941.627172 605.24619 
L 942.653001 603.642661 
L 943.678831 605.378279 
L 944.70466 603.38325 
L 945.73049 605.322177 
L 946.75632 603.637074 
L 947.782149 605.564372 
L 948.807979 603.825509 
L 949.833808 605.422273 
L 950.859638 603.69005 
L 951.885467 605.512827 
L 952.911297 603.950671 
L 953.937127 606.179795 
L 954.962956 604.083665 
L 955.988786 606.082025 
L 957.014615 604.135078 
L 958.040445 602.927581 
L 959.066274 603.150903 
L 960.092104 606.123588 
L 961.117934 603.92949 
L 962.143763 605.934591 
L 963.169593 603.859111 
L 964.195422 606.416496 
L 965.221252 604.324937 
L 966.247082 606.33562 
L 967.272911 604.303929 
L 968.298741 606.497886 
L 969.32457 604.389517 
L 970.3504 606.607361 
L 971.376229 604.277903 
L 972.402059 606.410866 
L 973.427889 604.818242 
L 974.453718 606.556938 
L 975.479548 604.800616 
L 976.505377 606.556672 
L 977.531207 604.763603 
L 978.557036 606.69163 
L 979.582866 611.947427 
L 980.608696 606.77182 
L 981.634525 604.875378 
L 982.660355 606.758818 
L 983.686184 605.062111 
L 984.712014 606.310196 
L 985.737844 604.855383 
L 986.763673 606.944165 
L 987.789503 604.863963 
L 988.815332 606.768795 
L 989.841162 605.198493 
L 990.866991 606.909631 
L 991.892821 605.392161 
L 992.918651 606.968505 
L 993.94448 605.47079 
L 994.97031 607.040659 
L 995.996139 604.835201 
L 997.021969 607.079149 
L 998.047799 605.674053 
L 999.073628 606.734471 
L 1000.099458 605.723101 
L 1001.125287 607.523156 
L 1002.151117 605.741369 
L 1003.176946 607.67744 
L 1004.202776 605.722296 
L 1005.228606 607.752751 
L 1006.254435 605.535185 
L 1007.280265 607.806541 
L 1008.306094 605.619012 
L 1009.331924 607.690217 
L 1010.357753 605.603163 
L 1011.383583 607.667093 
L 1012.409413 605.875704 
L 1013.435242 607.720544 
L 1014.461072 605.920704 
L 1015.486901 607.54294 
L 1016.512731 606.126324 
L 1017.538561 608.003118 
L 1018.56439 606.263681 
L 1019.59022 608.027119 
L 1020.616049 606.274425 
L 1021.641879 608.124488 
L 1022.667708 605.945802 
L 1023.693538 608.053315 
L 1024.719368 606.298385 
L 1025.745197 607.499794 
L 1026.771027 606.454596 
L 1027.796856 608.353617 
L 1028.822686 606.263656 
L 1029.848515 607.887966 
L 1030.874345 606.356941 
L 1031.900175 607.867995 
L 1032.926004 606.50588 
L 1033.951834 608.42957 
L 1034.977663 606.693251 
L 1036.003493 608.200407 
L 1037.029323 606.47774 
L 1038.055152 608.538249 
L 1039.080982 606.170167 
L 1040.106811 607.593541 
L 1041.132641 606.726013 
L 1042.15847 608.730946 
L 1043.1843 606.790008 
L 1044.21013 608.719943 
L 1045.235959 606.886478 
L 1046.261789 608.4996 
L 1047.287618 606.852535 
L 1048.313448 608.645528 
L 1049.339278 605.363283 
L 1050.365107 608.779815 
L 1051.390937 605.778379 
L 1052.416766 607.838077 
L 1053.442596 606.857219 
L 1054.468425 607.500833 
L 1055.494255 606.825193 
L 1056.520085 607.332175 
L 1057.545914 607.43391 
L 1058.571744 609.357408 
L 1059.597573 606.306662 
L 1060.623403 608.520749 
L 1061.649232 606.019869 
L 1062.675062 605.136219 
L 1063.700892 604.545046 
L 1064.726721 609.098196 
L 1065.752551 607.605054 
L 1066.77838 609.553839 
L 1067.80421 612.858566 
L 1068.83004 606.450342 
L 1069.855869 607.695015 
L 1070.881699 609.423523 
L 1071.907528 607.958891 
L 1072.933358 609.455021 
L 1073.959187 606.214976 
L 1074.985017 608.346183 
L 1076.010847 605.986935 
L 1077.036676 609.000214 
L 1078.062506 606.793858 
L 1079.088335 609.000333 
L 1080.114165 612.170056 
L 1081.139994 608.215776 
L 1082.165824 607.563206 
L 1083.191654 610.550427 
L 1084.217483 606.694429 
L 1085.243313 609.943954 
L 1086.269142 607.788591 
L 1087.294972 609.700169 
L 1088.320802 604.63345 
L 1089.346631 608.019337 
L 1090.372461 606.421993 
L 1091.39829 615.324563 
L 1092.42412 608.756146 
L 1093.449949 609.916205 
L 1094.475779 606.291498 
L 1095.501609 608.808257 
L 1096.527438 612.379037 
L 1097.553268 610.194637 
L 1098.579097 608.582886 
L 1099.604927 609.966916 
L 1100.630757 608.578839 
L 1101.656586 610.370297 
L 1102.682416 607.506481 
L 1103.708245 610.591603 
L 1104.734075 607.512104 
L 1105.759904 610.46599 
L 1106.785734 608.746585 
L 1107.811564 610.156807 
L 1108.837393 608.612309 
L 1109.863223 610.584757 
L 1110.889052 606.358246 
L 1111.914882 608.448432 
L 1112.940711 608.677494 
L 1113.966541 610.423422 
L 1114.992371 609.06673 
L 1116.0182 609.885297 
L 1117.04403 607.232107 
L 1118.069859 609.856806 
L 1119.095689 609.165494 
L 1120.121519 610.925768 
L 1121.147348 608.842179 
L 1122.173178 610.748176 
L 1123.199007 609.111126 
L 1124.224837 611.013418 
L 1125.250666 609.167501 
L 1126.276496 610.789084 
L 1127.302326 609.414922 
L 1128.328155 610.715641 
L 1129.353985 609.214855 
L 1130.379814 610.820607 
L 1131.405644 609.086333 
L 1132.431473 611.164284 
L 1133.457303 609.353477 
L 1134.483133 610.641439 
L 1135.508962 609.526627 
L 1136.534792 610.560623 
L 1137.560621 609.04873 
L 1138.586451 610.503374 
L 1139.612281 609.333832 
L 1140.63811 611.033593 
L 1141.66394 609.411356 
L 1142.689769 611.218476 
L 1143.715599 609.744562 
L 1144.741428 611.374294 
L 1145.767258 609.786125 
L 1146.793088 610.999061 
L 1147.818917 609.5801 
L 1148.844747 611.435263 
L 1149.870576 609.9445 
L 1150.896406 611.571467 
L 1151.922235 609.025611 
L 1152.948065 611.393441 
L 1153.973895 610.044153 
L 1154.999724 611.01585 
L 1156.025554 609.679707 
L 1157.051383 611.795868 
L 1158.077213 610.041002 
L 1159.103043 611.53544 
L 1160.128872 609.848996 
L 1161.154702 610.719473 
L 1162.180531 609.885366 
L 1163.206361 611.503824 
L 1164.23219 608.783416 
L 1165.25802 610.938145 
L 1166.28385 609.256437 
L 1167.309679 611.365339 
L 1168.335509 609.971081 
L 1169.361338 611.797206 
L 1170.387168 610.058705 
L 1171.412998 609.35078 
L 1172.438827 609.962553 
L 1173.464657 611.76071 
L 1174.490486 610.411843 
L 1175.516316 613.3488 
L 1176.542145 609.765025 
L 1177.567975 612.117321 
L 1178.593805 609.90096 
L 1179.619634 612.123708 
L 1180.645464 610.607407 
L 1181.671293 611.739566 
L 1182.697123 610.633155 
L 1183.722952 612.175132 
L 1184.748782 610.585968 
L 1185.774612 612.334694 
L 1188.8521 609.888307 
L 1189.87793 610.81965 
L 1190.90376 607.792534 
L 1191.929589 611.455827 
L 1192.955419 610.070373 
L 1193.981248 611.514686 
L 1195.007078 609.72996 
L 1196.032907 610.126864 
L 1197.058737 615.6 
L 1198.084567 609.807616 
L 1199.110396 610.079784 
L 1200.136226 611.858098 
L 1201.162055 609.335238 
L 1202.187885 611.971826 
L 1203.213714 610.381246 
L 1204.239544 615.337768 
L 1205.265374 611.122995 
L 1206.291203 610.551766 
L 1207.317033 610.270662 
L 1208.342862 611.791827 
L 1209.368692 610.792757 
L 1210.394522 613.664241 
L 1211.420351 610.02981 
L 1212.446181 611.422388 
L 1213.47201 610.606089 
L 1214.49784 611.864931 
L 1215.523669 610.547666 
L 1216.549499 612.437588 
L 1217.575329 605.932703 
L 1218.601158 613.533903 
L 1219.626988 609.293175 
L 1220.652817 611.618815 
L 1221.678647 610.891931 
L 1222.704477 612.282701 
L 1223.730306 610.999641 
L 1224.756136 612.264177 
L 1225.781965 610.867861 
L 1226.807795 612.377266 
L 1227.833624 611.393185 
L 1228.859454 612.34393 
L 1229.885284 611.687647 
L 1231.936943 611.348172 
L 1232.962772 613.188743 
L 1233.988602 611.549931 
L 1235.014431 613.207113 
L 1236.040261 611.675009 
L 1237.066091 613.197207 
L 1238.09192 611.680334 
L 1239.11775 613.451323 
L 1240.143579 610.833246 
L 1241.169409 613.130469 
L 1242.195239 610.358637 
L 1243.221068 612.065337 
L 1244.246898 611.105225 
L 1245.272727 612.889824 
L 1245.272727 612.889824 
" style="fill:none;stroke:#ff7f0e;stroke-linecap:square;stroke-width:1.5;"/>
   </g>
   <g id="patch_3">
    <path d="M 180 640.8 
L 180 86.4 
" style="fill:none;stroke:#000000;stroke-linecap:square;stroke-linejoin:miter;stroke-width:0.8;"/>
   </g>
   <g id="patch_4">
    <path d="M 1296 640.8 
L 1296 86.4 
" style="fill:none;stroke:#000000;stroke-linecap:square;stroke-linejoin:miter;stroke-width:0.8;"/>
   </g>
   <g id="patch_5">
    <path d="M 180 640.8 
L 1296 640.8 
" style="fill:none;stroke:#000000;stroke-linecap:square;stroke-linejoin:miter;stroke-width:0.8;"/>
   </g>
   <g id="patch_6">
    <path d="M 180 86.4 
L 1296 86.4 
" style="fill:none;stroke:#000000;stroke-linecap:square;stroke-linejoin:miter;stroke-width:0.8;"/>
   </g>
   <g id="text_20">
    <!-- ROC Speedup -->
    <defs>
     <path d="M 44.390625 34.1875 
Q 47.5625 33.109375 50.5625 29.59375 
Q 53.5625 26.078125 56.59375 19.921875 
L 66.609375 0 
L 56 0 
L 46.6875 18.703125 
Q 43.0625 26.03125 39.671875 28.421875 
Q 36.28125 30.8125 30.421875 30.8125 
L 19.671875 30.8125 
L 19.671875 0 
L 9.8125 0 
L 9.8125 72.90625 
L 32.078125 72.90625 
Q 44.578125 72.90625 50.734375 67.671875 
Q 56.890625 62.453125 56.890625 51.90625 
Q 56.890625 45.015625 53.6875 40.46875 
Q 50.484375 35.9375 44.390625 34.1875 
z
M 19.671875 64.796875 
L 19.671875 38.921875 
L 32.078125 38.921875 
Q 39.203125 38.921875 42.84375 42.21875 
Q 46.484375 45.515625 46.484375 51.90625 
Q 46.484375 58.296875 42.84375 61.546875 
Q 39.203125 64.796875 32.078125 64.796875 
z
" id="DejaVuSans-82"/>
     <path d="M 39.40625 66.21875 
Q 28.65625 66.21875 22.328125 58.203125 
Q 16.015625 50.203125 16.015625 36.375 
Q 16.015625 22.609375 22.328125 14.59375 
Q 28.65625 6.59375 39.40625 6.59375 
Q 50.140625 6.59375 56.421875 14.59375 
Q 62.703125 22.609375 62.703125 36.375 
Q 62.703125 50.203125 56.421875 58.203125 
Q 50.140625 66.21875 39.40625 66.21875 
z
M 39.40625 74.21875 
Q 54.734375 74.21875 63.90625 63.9375 
Q 73.09375 53.65625 73.09375 36.375 
Q 73.09375 19.140625 63.90625 8.859375 
Q 54.734375 -1.421875 39.40625 -1.421875 
Q 24.03125 -1.421875 14.8125 8.828125 
Q 5.609375 19.09375 5.609375 36.375 
Q 5.609375 53.65625 14.8125 63.9375 
Q 24.03125 74.21875 39.40625 74.21875 
z
" id="DejaVuSans-79"/>
     <path d="M 64.40625 67.28125 
L 64.40625 56.890625 
Q 59.421875 61.53125 53.78125 63.8125 
Q 48.140625 66.109375 41.796875 66.109375 
Q 29.296875 66.109375 22.65625 58.46875 
Q 16.015625 50.828125 16.015625 36.375 
Q 16.015625 21.96875 22.65625 14.328125 
Q 29.296875 6.6875 41.796875 6.6875 
Q 48.140625 6.6875 53.78125 8.984375 
Q 59.421875 11.28125 64.40625 15.921875 
L 64.40625 5.609375 
Q 59.234375 2.09375 53.4375 0.328125 
Q 47.65625 -1.421875 41.21875 -1.421875 
Q 24.65625 -1.421875 15.125 8.703125 
Q 5.609375 18.84375 5.609375 36.375 
Q 5.609375 53.953125 15.125 64.078125 
Q 24.65625 74.21875 41.21875 74.21875 
Q 47.75 74.21875 53.53125 72.484375 
Q 59.328125 70.75 64.40625 67.28125 
z
" id="DejaVuSans-67"/>
     <path id="DejaVuSans-32"/>
     <path d="M 53.515625 70.515625 
L 53.515625 60.890625 
Q 47.90625 63.578125 42.921875 64.890625 
Q 37.9375 66.21875 33.296875 66.21875 
Q 25.25 66.21875 20.875 63.09375 
Q 16.5 59.96875 16.5 54.203125 
Q 16.5 49.359375 19.40625 46.890625 
Q 22.3125 44.4375 30.421875 42.921875 
L 36.375 41.703125 
Q 47.40625 39.59375 52.65625 34.296875 
Q 57.90625 29 57.90625 20.125 
Q 57.90625 9.515625 50.796875 4.046875 
Q 43.703125 -1.421875 29.984375 -1.421875 
Q 24.8125 -1.421875 18.96875 -0.25 
Q 13.140625 0.921875 6.890625 3.21875 
L 6.890625 13.375 
Q 12.890625 10.015625 18.65625 8.296875 
Q 24.421875 6.59375 29.984375 6.59375 
Q 38.421875 6.59375 43.015625 9.90625 
Q 47.609375 13.234375 47.609375 19.390625 
Q 47.609375 24.75 44.3125 27.78125 
Q 41.015625 30.8125 33.5 32.328125 
L 27.484375 33.5 
Q 16.453125 35.6875 11.515625 40.375 
Q 6.59375 45.0625 6.59375 53.421875 
Q 6.59375 63.09375 13.40625 68.65625 
Q 20.21875 74.21875 32.171875 74.21875 
Q 37.3125 74.21875 42.625 73.28125 
Q 47.953125 72.359375 53.515625 70.515625 
z
" id="DejaVuSans-83"/>
    </defs>
    <g transform="translate(696.58875 80.4)scale(0.12 -0.12)">
     <use xlink:href="#DejaVuSans-82"/>
     <use x="69.482422" xlink:href="#DejaVuSans-79"/>
     <use x="148.193359" xlink:href="#DejaVuSans-67"/>
     <use x="218.017578" xlink:href="#DejaVuSans-32"/>
     <use x="249.804688" xlink:href="#DejaVuSans-83"/>
     <use x="313.28125" xlink:href="#DejaVuSans-112"/>
     <use x="376.757812" xlink:href="#DejaVuSans-101"/>
     <use x="438.28125" xlink:href="#DejaVuSans-101"/>
     <use x="499.804688" xlink:href="#DejaVuSans-100"/>
     <use x="563.28125" xlink:href="#DejaVuSans-117"/>
     <use x="626.660156" xlink:href="#DejaVuSans-112"/>
    </g>
   </g>
   <g id="legend_1">
    <g id="patch_7">
     <path d="M 1185.373437 123.75625 
L 1289 123.75625 
Q 1291 123.75625 1291 121.75625 
L 1291 93.4 
Q 1291 91.4 1289 91.4 
L 1185.373437 91.4 
Q 1183.373437 91.4 1183.373437 93.4 
L 1183.373437 121.75625 
Q 1183.373437 123.75625 1185.373437 123.75625 
z
" style="fill:#ffffff;opacity:0.8;stroke:#cccccc;stroke-linejoin:miter;"/>
    </g>
    <g id="line2d_20">
     <path d="M 1187.373437 99.498437 
L 1207.373437 99.498437 
" style="fill:none;stroke:#1f77b4;stroke-linecap:square;stroke-width:1.5;"/>
    </g>
    <g id="line2d_21"/>
    <g id="text_21">
     <!-- numpy.float32 -->
     <defs>
      <path d="M 52 44.1875 
Q 55.375 50.25 60.0625 53.125 
Q 64.75 56 71.09375 56 
Q 79.640625 56 84.28125 50.015625 
Q 88.921875 44.046875 88.921875 33.015625 
L 88.921875 0 
L 79.890625 0 
L 79.890625 32.71875 
Q 79.890625 40.578125 77.09375 44.375 
Q 74.3125 48.1875 68.609375 48.1875 
Q 61.625 48.1875 57.5625 43.546875 
Q 53.515625 38.921875 53.515625 30.90625 
L 53.515625 0 
L 44.484375 0 
L 44.484375 32.71875 
Q 44.484375 40.625 41.703125 44.40625 
Q 38.921875 48.1875 33.109375 48.1875 
Q 26.21875 48.1875 22.15625 43.53125 
Q 18.109375 38.875 18.109375 30.90625 
L 18.109375 0 
L 9.078125 0 
L 9.078125 54.6875 
L 18.109375 54.6875 
L 18.109375 46.1875 
Q 21.1875 51.21875 25.484375 53.609375 
Q 29.78125 56 35.6875 56 
Q 41.65625 56 45.828125 52.96875 
Q 50 49.953125 52 44.1875 
z
" id="DejaVuSans-109"/>
      <path d="M 32.171875 -5.078125 
Q 28.375 -14.84375 24.75 -17.8125 
Q 21.140625 -20.796875 15.09375 -20.796875 
L 7.90625 -20.796875 
L 7.90625 -13.28125 
L 13.1875 -13.28125 
Q 16.890625 -13.28125 18.9375 -11.515625 
Q 21 -9.765625 23.484375 -3.21875 
L 25.09375 0.875 
L 2.984375 54.6875 
L 12.5 54.6875 
L 29.59375 11.921875 
L 46.6875 54.6875 
L 56.203125 54.6875 
z
" id="DejaVuSans-121"/>
      <path d="M 37.109375 75.984375 
L 37.109375 68.5 
L 28.515625 68.5 
Q 23.6875 68.5 21.796875 66.546875 
Q 19.921875 64.59375 19.921875 59.515625 
L 19.921875 54.6875 
L 34.71875 54.6875 
L 34.71875 47.703125 
L 19.921875 47.703125 
L 19.921875 0 
L 10.890625 0 
L 10.890625 47.703125 
L 2.296875 47.703125 
L 2.296875 54.6875 
L 10.890625 54.6875 
L 10.890625 58.5 
Q 10.890625 67.625 15.140625 71.796875 
Q 19.390625 75.984375 28.609375 75.984375 
z
" id="DejaVuSans-102"/>
      <path d="M 9.421875 75.984375 
L 18.40625 75.984375 
L 18.40625 0 
L 9.421875 0 
z
" id="DejaVuSans-108"/>
      <path d="M 30.609375 48.390625 
Q 23.390625 48.390625 19.1875 42.75 
Q 14.984375 37.109375 14.984375 27.296875 
Q 14.984375 17.484375 19.15625 11.84375 
Q 23.34375 6.203125 30.609375 6.203125 
Q 37.796875 6.203125 41.984375 11.859375 
Q 46.1875 17.53125 46.1875 27.296875 
Q 46.1875 37.015625 41.984375 42.703125 
Q 37.796875 48.390625 30.609375 48.390625 
z
M 30.609375 56 
Q 42.328125 56 49.015625 48.375 
Q 55.71875 40.765625 55.71875 27.296875 
Q 55.71875 13.875 49.015625 6.21875 
Q 42.328125 -1.421875 30.609375 -1.421875 
Q 18.84375 -1.421875 12.171875 6.21875 
Q 5.515625 13.875 5.515625 27.296875 
Q 5.515625 40.765625 12.171875 48.375 
Q 18.84375 56 30.609375 56 
z
" id="DejaVuSans-111"/>
      <path d="M 34.28125 27.484375 
Q 23.390625 27.484375 19.1875 25 
Q 14.984375 22.515625 14.984375 16.5 
Q 14.984375 11.71875 18.140625 8.90625 
Q 21.296875 6.109375 26.703125 6.109375 
Q 34.1875 6.109375 38.703125 11.40625 
Q 43.21875 16.703125 43.21875 25.484375 
L 43.21875 27.484375 
z
M 52.203125 31.203125 
L 52.203125 0 
L 43.21875 0 
L 43.21875 8.296875 
Q 40.140625 3.328125 35.546875 0.953125 
Q 30.953125 -1.421875 24.3125 -1.421875 
Q 15.921875 -1.421875 10.953125 3.296875 
Q 6 8.015625 6 15.921875 
Q 6 25.140625 12.171875 29.828125 
Q 18.359375 34.515625 30.609375 34.515625 
L 43.21875 34.515625 
L 43.21875 35.40625 
Q 43.21875 41.609375 39.140625 45 
Q 35.0625 48.390625 27.6875 48.390625 
Q 23 48.390625 18.546875 47.265625 
Q 14.109375 46.140625 10.015625 43.890625 
L 10.015625 52.203125 
Q 14.9375 54.109375 19.578125 55.046875 
Q 24.21875 56 28.609375 56 
Q 40.484375 56 46.34375 49.84375 
Q 52.203125 43.703125 52.203125 31.203125 
z
" id="DejaVuSans-97"/>
      <path d="M 18.3125 70.21875 
L 18.3125 54.6875 
L 36.8125 54.6875 
L 36.8125 47.703125 
L 18.3125 47.703125 
L 18.3125 18.015625 
Q 18.3125 11.328125 20.140625 9.421875 
Q 21.96875 7.515625 27.59375 7.515625 
L 36.8125 7.515625 
L 36.8125 0 
L 27.59375 0 
Q 17.1875 0 13.234375 3.875 
Q 9.28125 7.765625 9.28125 18.015625 
L 9.28125 47.703125 
L 2.6875 47.703125 
L 2.6875 54.6875 
L 9.28125 54.6875 
L 9.28125 70.21875 
z
" id="DejaVuSans-116"/>
     </defs>
     <g transform="translate(1215.373437 102.998437)scale(0.1 -0.1)">
      <use xlink:href="#DejaVuSans-110"/>
      <use x="63.378906" xlink:href="#DejaVuSans-117"/>
      <use x="126.757812" xlink:href="#DejaVuSans-109"/>
      <use x="224.169922" xlink:href="#DejaVuSans-112"/>
      <use x="287.646484" xlink:href="#DejaVuSans-121"/>
      <use x="332.576172" xlink:href="#DejaVuSans-46"/>
      <use x="364.363281" xlink:href="#DejaVuSans-102"/>
      <use x="399.568359" xlink:href="#DejaVuSans-108"/>
      <use x="427.351562" xlink:href="#DejaVuSans-111"/>
      <use x="488.533203" xlink:href="#DejaVuSans-97"/>
      <use x="549.8125" xlink:href="#DejaVuSans-116"/>
      <use x="589.021484" xlink:href="#DejaVuSans-51"/>
      <use x="652.644531" xlink:href="#DejaVuSans-50"/>
     </g>
    </g>
    <g id="line2d_22">
     <path d="M 1187.373437 114.176562 
L 1207.373437 114.176562 
" style="fill:none;stroke:#ff7f0e;stroke-linecap:square;stroke-width:1.5;"/>
    </g>
    <g id="line2d_23"/>
    <g id="text_22">
     <!-- numpy.float64 -->
     <g transform="translate(1215.373437 117.676562)scale(0.1 -0.1)">
      <use xlink:href="#DejaVuSans-110"/>
      <use x="63.378906" xlink:href="#DejaVuSans-117"/>
      <use x="126.757812" xlink:href="#DejaVuSans-109"/>
      <use x="224.169922" xlink:href="#DejaVuSans-112"/>
      <use x="287.646484" xlink:href="#DejaVuSans-121"/>
      <use x="332.576172" xlink:href="#DejaVuSans-46"/>
      <use x="364.363281" xlink:href="#DejaVuSans-102"/>
      <use x="399.568359" xlink:href="#DejaVuSans-108"/>
      <use x="427.351562" xlink:href="#DejaVuSans-111"/>
      <use x="488.533203" xlink:href="#DejaVuSans-97"/>
      <use x="549.8125" xlink:href="#DejaVuSans-116"/>
      <use x="589.021484" xlink:href="#DejaVuSans-54"/>
      <use x="652.644531" xlink:href="#DejaVuSans-52"/>
     </g>
    </g>
   </g>
  </g>
 </g>
 <defs>
  <clipPath id="p56e8fc0cb2">
   <rect height="554.4" width="1116" x="180" y="86.4"/>
  </clipPath>
 </defs>
</svg>
