<?xml version="1.0" encoding="utf-8" standalone="no"?>
<!DOCTYPE svg PUBLIC "-//W3C//DTD SVG 1.1//EN"
  "http://www.w3.org/Graphics/SVG/1.1/DTD/svg11.dtd">
<!-- Created with matplotlib (https://matplotlib.org/) -->
<svg height="720pt" version="1.1" viewBox="0 0 1440 720" width="1440pt" xmlns="http://www.w3.org/2000/svg" xmlns:xlink="http://www.w3.org/1999/xlink">
 <defs>
  <style type="text/css">
*{stroke-linecap:butt;stroke-linejoin:round;}
  </style>
 </defs>
 <g id="figure_1">
  <g id="patch_1">
   <path d="M 0 720 
L 1440 720 
L 1440 0 
L 0 0 
z
" style="fill:#ffffff;"/>
  </g>
  <g id="axes_1">
   <g id="patch_2">
    <path d="M 180 640.8 
L 1296 640.8 
L 1296 86.4 
L 180 86.4 
z
" style="fill:#ffffff;"/>
   </g>
   <g id="matplotlib.axis_1">
    <g id="xtick_1">
     <g id="line2d_1">
      <defs>
       <path d="M 0 0 
L 0 3.5 
" id="m052b3dc264" style="stroke:#000000;stroke-width:0.8;"/>
      </defs>
      <g>
       <use style="stroke:#000000;stroke-width:0.8;" x="333.310231" xlink:href="#m052b3dc264" y="640.8"/>
      </g>
     </g>
     <g id="text_1">
      <!-- 100.0 -->
      <defs>
       <path d="M 12.40625 8.296875 
L 28.515625 8.296875 
L 28.515625 63.921875 
L 10.984375 60.40625 
L 10.984375 69.390625 
L 28.421875 72.90625 
L 38.28125 72.90625 
L 38.28125 8.296875 
L 54.390625 8.296875 
L 54.390625 0 
L 12.40625 0 
z
" id="DejaVuSans-49"/>
       <path d="M 31.78125 66.40625 
Q 24.171875 66.40625 20.328125 58.90625 
Q 16.5 51.421875 16.5 36.375 
Q 16.5 21.390625 20.328125 13.890625 
Q 24.171875 6.390625 31.78125 6.390625 
Q 39.453125 6.390625 43.28125 13.890625 
Q 47.125 21.390625 47.125 36.375 
Q 47.125 51.421875 43.28125 58.90625 
Q 39.453125 66.40625 31.78125 66.40625 
z
M 31.78125 74.21875 
Q 44.046875 74.21875 50.515625 64.515625 
Q 56.984375 54.828125 56.984375 36.375 
Q 56.984375 17.96875 50.515625 8.265625 
Q 44.046875 -1.421875 31.78125 -1.421875 
Q 19.53125 -1.421875 13.0625 8.265625 
Q 6.59375 17.96875 6.59375 36.375 
Q 6.59375 54.828125 13.0625 64.515625 
Q 19.53125 74.21875 31.78125 74.21875 
z
" id="DejaVuSans-48"/>
       <path d="M 10.6875 12.40625 
L 21 12.40625 
L 21 0 
L 10.6875 0 
z
" id="DejaVuSans-46"/>
      </defs>
      <g transform="translate(318.996168 655.398438)scale(0.1 -0.1)">
       <use xlink:href="#DejaVuSans-49"/>
       <use x="63.623047" xlink:href="#DejaVuSans-48"/>
       <use x="127.246094" xlink:href="#DejaVuSans-48"/>
       <use x="190.869141" xlink:href="#DejaVuSans-46"/>
       <use x="222.65625" xlink:href="#DejaVuSans-48"/>
      </g>
     </g>
    </g>
    <g id="xtick_2">
     <g id="line2d_2">
      <g>
       <use style="stroke:#000000;stroke-width:0.8;" x="435.893189" xlink:href="#m052b3dc264" y="640.8"/>
      </g>
     </g>
     <g id="text_2">
      <!-- 200.0 -->
      <defs>
       <path d="M 19.1875 8.296875 
L 53.609375 8.296875 
L 53.609375 0 
L 7.328125 0 
L 7.328125 8.296875 
Q 12.9375 14.109375 22.625 23.890625 
Q 32.328125 33.6875 34.8125 36.53125 
Q 39.546875 41.84375 41.421875 45.53125 
Q 43.3125 49.21875 43.3125 52.78125 
Q 43.3125 58.59375 39.234375 62.25 
Q 35.15625 65.921875 28.609375 65.921875 
Q 23.96875 65.921875 18.8125 64.3125 
Q 13.671875 62.703125 7.8125 59.421875 
L 7.8125 69.390625 
Q 13.765625 71.78125 18.9375 73 
Q 24.125 74.21875 28.421875 74.21875 
Q 39.75 74.21875 46.484375 68.546875 
Q 53.21875 62.890625 53.21875 53.421875 
Q 53.21875 48.921875 51.53125 44.890625 
Q 49.859375 40.875 45.40625 35.40625 
Q 44.1875 33.984375 37.640625 27.21875 
Q 31.109375 20.453125 19.1875 8.296875 
z
" id="DejaVuSans-50"/>
      </defs>
      <g transform="translate(421.579126 655.398438)scale(0.1 -0.1)">
       <use xlink:href="#DejaVuSans-50"/>
       <use x="63.623047" xlink:href="#DejaVuSans-48"/>
       <use x="127.246094" xlink:href="#DejaVuSans-48"/>
       <use x="190.869141" xlink:href="#DejaVuSans-46"/>
       <use x="222.65625" xlink:href="#DejaVuSans-48"/>
      </g>
     </g>
    </g>
    <g id="xtick_3">
     <g id="line2d_3">
      <g>
       <use style="stroke:#000000;stroke-width:0.8;" x="538.476147" xlink:href="#m052b3dc264" y="640.8"/>
      </g>
     </g>
     <g id="text_3">
      <!-- 300.0 -->
      <defs>
       <path d="M 40.578125 39.3125 
Q 47.65625 37.796875 51.625 33 
Q 55.609375 28.21875 55.609375 21.1875 
Q 55.609375 10.40625 48.1875 4.484375 
Q 40.765625 -1.421875 27.09375 -1.421875 
Q 22.515625 -1.421875 17.65625 -0.515625 
Q 12.796875 0.390625 7.625 2.203125 
L 7.625 11.71875 
Q 11.71875 9.328125 16.59375 8.109375 
Q 21.484375 6.890625 26.8125 6.890625 
Q 36.078125 6.890625 40.9375 10.546875 
Q 45.796875 14.203125 45.796875 21.1875 
Q 45.796875 27.640625 41.28125 31.265625 
Q 36.765625 34.90625 28.71875 34.90625 
L 20.21875 34.90625 
L 20.21875 43.015625 
L 29.109375 43.015625 
Q 36.375 43.015625 40.234375 45.921875 
Q 44.09375 48.828125 44.09375 54.296875 
Q 44.09375 59.90625 40.109375 62.90625 
Q 36.140625 65.921875 28.71875 65.921875 
Q 24.65625 65.921875 20.015625 65.03125 
Q 15.375 64.15625 9.8125 62.3125 
L 9.8125 71.09375 
Q 15.4375 72.65625 20.34375 73.4375 
Q 25.25 74.21875 29.59375 74.21875 
Q 40.828125 74.21875 47.359375 69.109375 
Q 53.90625 64.015625 53.90625 55.328125 
Q 53.90625 49.265625 50.4375 45.09375 
Q 46.96875 40.921875 40.578125 39.3125 
z
" id="DejaVuSans-51"/>
      </defs>
      <g transform="translate(524.162084 655.398438)scale(0.1 -0.1)">
       <use xlink:href="#DejaVuSans-51"/>
       <use x="63.623047" xlink:href="#DejaVuSans-48"/>
       <use x="127.246094" xlink:href="#DejaVuSans-48"/>
       <use x="190.869141" xlink:href="#DejaVuSans-46"/>
       <use x="222.65625" xlink:href="#DejaVuSans-48"/>
      </g>
     </g>
    </g>
    <g id="xtick_4">
     <g id="line2d_4">
      <g>
       <use style="stroke:#000000;stroke-width:0.8;" x="641.059105" xlink:href="#m052b3dc264" y="640.8"/>
      </g>
     </g>
     <g id="text_4">
      <!-- 400.0 -->
      <defs>
       <path d="M 37.796875 64.3125 
L 12.890625 25.390625 
L 37.796875 25.390625 
z
M 35.203125 72.90625 
L 47.609375 72.90625 
L 47.609375 25.390625 
L 58.015625 25.390625 
L 58.015625 17.1875 
L 47.609375 17.1875 
L 47.609375 0 
L 37.796875 0 
L 37.796875 17.1875 
L 4.890625 17.1875 
L 4.890625 26.703125 
z
" id="DejaVuSans-52"/>
      </defs>
      <g transform="translate(626.745042 655.398438)scale(0.1 -0.1)">
       <use xlink:href="#DejaVuSans-52"/>
       <use x="63.623047" xlink:href="#DejaVuSans-48"/>
       <use x="127.246094" xlink:href="#DejaVuSans-48"/>
       <use x="190.869141" xlink:href="#DejaVuSans-46"/>
       <use x="222.65625" xlink:href="#DejaVuSans-48"/>
      </g>
     </g>
    </g>
    <g id="xtick_5">
     <g id="line2d_5">
      <g>
       <use style="stroke:#000000;stroke-width:0.8;" x="743.642063" xlink:href="#m052b3dc264" y="640.8"/>
      </g>
     </g>
     <g id="text_5">
      <!-- 500.0 -->
      <defs>
       <path d="M 10.796875 72.90625 
L 49.515625 72.90625 
L 49.515625 64.59375 
L 19.828125 64.59375 
L 19.828125 46.734375 
Q 21.96875 47.46875 24.109375 47.828125 
Q 26.265625 48.1875 28.421875 48.1875 
Q 40.625 48.1875 47.75 41.5 
Q 54.890625 34.8125 54.890625 23.390625 
Q 54.890625 11.625 47.5625 5.09375 
Q 40.234375 -1.421875 26.90625 -1.421875 
Q 22.3125 -1.421875 17.546875 -0.640625 
Q 12.796875 0.140625 7.71875 1.703125 
L 7.71875 11.625 
Q 12.109375 9.234375 16.796875 8.0625 
Q 21.484375 6.890625 26.703125 6.890625 
Q 35.15625 6.890625 40.078125 11.328125 
Q 45.015625 15.765625 45.015625 23.390625 
Q 45.015625 31 40.078125 35.4375 
Q 35.15625 39.890625 26.703125 39.890625 
Q 22.75 39.890625 18.8125 39.015625 
Q 14.890625 38.140625 10.796875 36.28125 
z
" id="DejaVuSans-53"/>
      </defs>
      <g transform="translate(729.328 655.398438)scale(0.1 -0.1)">
       <use xlink:href="#DejaVuSans-53"/>
       <use x="63.623047" xlink:href="#DejaVuSans-48"/>
       <use x="127.246094" xlink:href="#DejaVuSans-48"/>
       <use x="190.869141" xlink:href="#DejaVuSans-46"/>
       <use x="222.65625" xlink:href="#DejaVuSans-48"/>
      </g>
     </g>
    </g>
    <g id="xtick_6">
     <g id="line2d_6">
      <g>
       <use style="stroke:#000000;stroke-width:0.8;" x="846.225021" xlink:href="#m052b3dc264" y="640.8"/>
      </g>
     </g>
     <g id="text_6">
      <!-- 600.0 -->
      <defs>
       <path d="M 33.015625 40.375 
Q 26.375 40.375 22.484375 35.828125 
Q 18.609375 31.296875 18.609375 23.390625 
Q 18.609375 15.53125 22.484375 10.953125 
Q 26.375 6.390625 33.015625 6.390625 
Q 39.65625 6.390625 43.53125 10.953125 
Q 47.40625 15.53125 47.40625 23.390625 
Q 47.40625 31.296875 43.53125 35.828125 
Q 39.65625 40.375 33.015625 40.375 
z
M 52.59375 71.296875 
L 52.59375 62.3125 
Q 48.875 64.0625 45.09375 64.984375 
Q 41.3125 65.921875 37.59375 65.921875 
Q 27.828125 65.921875 22.671875 59.328125 
Q 17.53125 52.734375 16.796875 39.40625 
Q 19.671875 43.65625 24.015625 45.921875 
Q 28.375 48.1875 33.59375 48.1875 
Q 44.578125 48.1875 50.953125 41.515625 
Q 57.328125 34.859375 57.328125 23.390625 
Q 57.328125 12.15625 50.6875 5.359375 
Q 44.046875 -1.421875 33.015625 -1.421875 
Q 20.359375 -1.421875 13.671875 8.265625 
Q 6.984375 17.96875 6.984375 36.375 
Q 6.984375 53.65625 15.1875 63.9375 
Q 23.390625 74.21875 37.203125 74.21875 
Q 40.921875 74.21875 44.703125 73.484375 
Q 48.484375 72.75 52.59375 71.296875 
z
" id="DejaVuSans-54"/>
      </defs>
      <g transform="translate(831.910958 655.398438)scale(0.1 -0.1)">
       <use xlink:href="#DejaVuSans-54"/>
       <use x="63.623047" xlink:href="#DejaVuSans-48"/>
       <use x="127.246094" xlink:href="#DejaVuSans-48"/>
       <use x="190.869141" xlink:href="#DejaVuSans-46"/>
       <use x="222.65625" xlink:href="#DejaVuSans-48"/>
      </g>
     </g>
    </g>
    <g id="xtick_7">
     <g id="line2d_7">
      <g>
       <use style="stroke:#000000;stroke-width:0.8;" x="948.807979" xlink:href="#m052b3dc264" y="640.8"/>
      </g>
     </g>
     <g id="text_7">
      <!-- 700.0 -->
      <defs>
       <path d="M 8.203125 72.90625 
L 55.078125 72.90625 
L 55.078125 68.703125 
L 28.609375 0 
L 18.3125 0 
L 43.21875 64.59375 
L 8.203125 64.59375 
z
" id="DejaVuSans-55"/>
      </defs>
      <g transform="translate(934.493916 655.398438)scale(0.1 -0.1)">
       <use xlink:href="#DejaVuSans-55"/>
       <use x="63.623047" xlink:href="#DejaVuSans-48"/>
       <use x="127.246094" xlink:href="#DejaVuSans-48"/>
       <use x="190.869141" xlink:href="#DejaVuSans-46"/>
       <use x="222.65625" xlink:href="#DejaVuSans-48"/>
      </g>
     </g>
    </g>
    <g id="xtick_8">
     <g id="line2d_8">
      <g>
       <use style="stroke:#000000;stroke-width:0.8;" x="1051.390937" xlink:href="#m052b3dc264" y="640.8"/>
      </g>
     </g>
     <g id="text_8">
      <!-- 800.0 -->
      <defs>
       <path d="M 31.78125 34.625 
Q 24.75 34.625 20.71875 30.859375 
Q 16.703125 27.09375 16.703125 20.515625 
Q 16.703125 13.921875 20.71875 10.15625 
Q 24.75 6.390625 31.78125 6.390625 
Q 38.8125 6.390625 42.859375 10.171875 
Q 46.921875 13.96875 46.921875 20.515625 
Q 46.921875 27.09375 42.890625 30.859375 
Q 38.875 34.625 31.78125 34.625 
z
M 21.921875 38.8125 
Q 15.578125 40.375 12.03125 44.71875 
Q 8.5 49.078125 8.5 55.328125 
Q 8.5 64.0625 14.71875 69.140625 
Q 20.953125 74.21875 31.78125 74.21875 
Q 42.671875 74.21875 48.875 69.140625 
Q 55.078125 64.0625 55.078125 55.328125 
Q 55.078125 49.078125 51.53125 44.71875 
Q 48 40.375 41.703125 38.8125 
Q 48.828125 37.15625 52.796875 32.3125 
Q 56.78125 27.484375 56.78125 20.515625 
Q 56.78125 9.90625 50.3125 4.234375 
Q 43.84375 -1.421875 31.78125 -1.421875 
Q 19.734375 -1.421875 13.25 4.234375 
Q 6.78125 9.90625 6.78125 20.515625 
Q 6.78125 27.484375 10.78125 32.3125 
Q 14.796875 37.15625 21.921875 38.8125 
z
M 18.3125 54.390625 
Q 18.3125 48.734375 21.84375 45.5625 
Q 25.390625 42.390625 31.78125 42.390625 
Q 38.140625 42.390625 41.71875 45.5625 
Q 45.3125 48.734375 45.3125 54.390625 
Q 45.3125 60.0625 41.71875 63.234375 
Q 38.140625 66.40625 31.78125 66.40625 
Q 25.390625 66.40625 21.84375 63.234375 
Q 18.3125 60.0625 18.3125 54.390625 
z
" id="DejaVuSans-56"/>
      </defs>
      <g transform="translate(1037.076874 655.398438)scale(0.1 -0.1)">
       <use xlink:href="#DejaVuSans-56"/>
       <use x="63.623047" xlink:href="#DejaVuSans-48"/>
       <use x="127.246094" xlink:href="#DejaVuSans-48"/>
       <use x="190.869141" xlink:href="#DejaVuSans-46"/>
       <use x="222.65625" xlink:href="#DejaVuSans-48"/>
      </g>
     </g>
    </g>
    <g id="xtick_9">
     <g id="line2d_9">
      <g>
       <use style="stroke:#000000;stroke-width:0.8;" x="1153.973895" xlink:href="#m052b3dc264" y="640.8"/>
      </g>
     </g>
     <g id="text_9">
      <!-- 900.0 -->
      <defs>
       <path d="M 10.984375 1.515625 
L 10.984375 10.5 
Q 14.703125 8.734375 18.5 7.8125 
Q 22.3125 6.890625 25.984375 6.890625 
Q 35.75 6.890625 40.890625 13.453125 
Q 46.046875 20.015625 46.78125 33.40625 
Q 43.953125 29.203125 39.59375 26.953125 
Q 35.25 24.703125 29.984375 24.703125 
Q 19.046875 24.703125 12.671875 31.3125 
Q 6.296875 37.9375 6.296875 49.421875 
Q 6.296875 60.640625 12.9375 67.421875 
Q 19.578125 74.21875 30.609375 74.21875 
Q 43.265625 74.21875 49.921875 64.515625 
Q 56.59375 54.828125 56.59375 36.375 
Q 56.59375 19.140625 48.40625 8.859375 
Q 40.234375 -1.421875 26.421875 -1.421875 
Q 22.703125 -1.421875 18.890625 -0.6875 
Q 15.09375 0.046875 10.984375 1.515625 
z
M 30.609375 32.421875 
Q 37.25 32.421875 41.125 36.953125 
Q 45.015625 41.5 45.015625 49.421875 
Q 45.015625 57.28125 41.125 61.84375 
Q 37.25 66.40625 30.609375 66.40625 
Q 23.96875 66.40625 20.09375 61.84375 
Q 16.21875 57.28125 16.21875 49.421875 
Q 16.21875 41.5 20.09375 36.953125 
Q 23.96875 32.421875 30.609375 32.421875 
z
" id="DejaVuSans-57"/>
      </defs>
      <g transform="translate(1139.659832 655.398438)scale(0.1 -0.1)">
       <use xlink:href="#DejaVuSans-57"/>
       <use x="63.623047" xlink:href="#DejaVuSans-48"/>
       <use x="127.246094" xlink:href="#DejaVuSans-48"/>
       <use x="190.869141" xlink:href="#DejaVuSans-46"/>
       <use x="222.65625" xlink:href="#DejaVuSans-48"/>
      </g>
     </g>
    </g>
    <g id="xtick_10">
     <g id="line2d_10">
      <g>
       <use style="stroke:#000000;stroke-width:0.8;" x="1256.556853" xlink:href="#m052b3dc264" y="640.8"/>
      </g>
     </g>
     <g id="text_10">
      <!-- 1000.0 -->
      <g transform="translate(1239.06154 655.398438)scale(0.1 -0.1)">
       <use xlink:href="#DejaVuSans-49"/>
       <use x="63.623047" xlink:href="#DejaVuSans-48"/>
       <use x="127.246094" xlink:href="#DejaVuSans-48"/>
       <use x="190.869141" xlink:href="#DejaVuSans-48"/>
       <use x="254.492188" xlink:href="#DejaVuSans-46"/>
       <use x="286.279297" xlink:href="#DejaVuSans-48"/>
      </g>
     </g>
    </g>
    <g id="text_11">
     <!-- n -->
     <defs>
      <path d="M 54.890625 33.015625 
L 54.890625 0 
L 45.90625 0 
L 45.90625 32.71875 
Q 45.90625 40.484375 42.875 44.328125 
Q 39.84375 48.1875 33.796875 48.1875 
Q 26.515625 48.1875 22.3125 43.546875 
Q 18.109375 38.921875 18.109375 30.90625 
L 18.109375 0 
L 9.078125 0 
L 9.078125 54.6875 
L 18.109375 54.6875 
L 18.109375 46.1875 
Q 21.34375 51.125 25.703125 53.5625 
Q 30.078125 56 35.796875 56 
Q 45.21875 56 50.046875 50.171875 
Q 54.890625 44.34375 54.890625 33.015625 
z
" id="DejaVuSans-110"/>
     </defs>
     <g transform="translate(734.83125 669.076563)scale(0.1 -0.1)">
      <use xlink:href="#DejaVuSans-110"/>
     </g>
    </g>
   </g>
   <g id="matplotlib.axis_2">
    <g id="ytick_1">
     <g id="line2d_11">
      <defs>
       <path d="M 0 0 
L -3.5 0 
" id="m19f549e64a" style="stroke:#000000;stroke-width:0.8;"/>
      </defs>
      <g>
       <use style="stroke:#000000;stroke-width:0.8;" x="180" xlink:href="#m19f549e64a" y="535.0904"/>
      </g>
     </g>
     <g id="text_12">
      <!-- 50 -->
      <g transform="translate(160.275 538.889619)scale(0.1 -0.1)">
       <use xlink:href="#DejaVuSans-53"/>
       <use x="63.623047" xlink:href="#DejaVuSans-48"/>
      </g>
     </g>
    </g>
    <g id="ytick_2">
     <g id="line2d_12">
      <g>
       <use style="stroke:#000000;stroke-width:0.8;" x="180" xlink:href="#m19f549e64a" y="423.199675"/>
      </g>
     </g>
     <g id="text_13">
      <!-- 100 -->
      <g transform="translate(153.9125 426.998894)scale(0.1 -0.1)">
       <use xlink:href="#DejaVuSans-49"/>
       <use x="63.623047" xlink:href="#DejaVuSans-48"/>
       <use x="127.246094" xlink:href="#DejaVuSans-48"/>
      </g>
     </g>
    </g>
    <g id="ytick_3">
     <g id="line2d_13">
      <g>
       <use style="stroke:#000000;stroke-width:0.8;" x="180" xlink:href="#m19f549e64a" y="311.308951"/>
      </g>
     </g>
     <g id="text_14">
      <!-- 150 -->
      <g transform="translate(153.9125 315.10817)scale(0.1 -0.1)">
       <use xlink:href="#DejaVuSans-49"/>
       <use x="63.623047" xlink:href="#DejaVuSans-53"/>
       <use x="127.246094" xlink:href="#DejaVuSans-48"/>
      </g>
     </g>
    </g>
    <g id="ytick_4">
     <g id="line2d_14">
      <g>
       <use style="stroke:#000000;stroke-width:0.8;" x="180" xlink:href="#m19f549e64a" y="199.418226"/>
      </g>
     </g>
     <g id="text_15">
      <!-- 200 -->
      <g transform="translate(153.9125 203.217445)scale(0.1 -0.1)">
       <use xlink:href="#DejaVuSans-50"/>
       <use x="63.623047" xlink:href="#DejaVuSans-48"/>
       <use x="127.246094" xlink:href="#DejaVuSans-48"/>
      </g>
     </g>
    </g>
    <g id="ytick_5">
     <g id="line2d_15">
      <g>
       <use style="stroke:#000000;stroke-width:0.8;" x="180" xlink:href="#m19f549e64a" y="87.527501"/>
      </g>
     </g>
     <g id="text_16">
      <!-- 250 -->
      <g transform="translate(153.9125 91.32672)scale(0.1 -0.1)">
       <use xlink:href="#DejaVuSans-50"/>
       <use x="63.623047" xlink:href="#DejaVuSans-53"/>
       <use x="127.246094" xlink:href="#DejaVuSans-48"/>
      </g>
     </g>
    </g>
    <g id="text_17">
     <!-- speedup -->
     <defs>
      <path d="M 44.28125 53.078125 
L 44.28125 44.578125 
Q 40.484375 46.53125 36.375 47.5 
Q 32.28125 48.484375 27.875 48.484375 
Q 21.1875 48.484375 17.84375 46.4375 
Q 14.5 44.390625 14.5 40.28125 
Q 14.5 37.15625 16.890625 35.375 
Q 19.28125 33.59375 26.515625 31.984375 
L 29.59375 31.296875 
Q 39.15625 29.25 43.1875 25.515625 
Q 47.21875 21.78125 47.21875 15.09375 
Q 47.21875 7.46875 41.1875 3.015625 
Q 35.15625 -1.421875 24.609375 -1.421875 
Q 20.21875 -1.421875 15.453125 -0.5625 
Q 10.6875 0.296875 5.421875 2 
L 5.421875 11.28125 
Q 10.40625 8.6875 15.234375 7.390625 
Q 20.0625 6.109375 24.8125 6.109375 
Q 31.15625 6.109375 34.5625 8.28125 
Q 37.984375 10.453125 37.984375 14.40625 
Q 37.984375 18.0625 35.515625 20.015625 
Q 33.0625 21.96875 24.703125 23.78125 
L 21.578125 24.515625 
Q 13.234375 26.265625 9.515625 29.90625 
Q 5.8125 33.546875 5.8125 39.890625 
Q 5.8125 47.609375 11.28125 51.796875 
Q 16.75 56 26.8125 56 
Q 31.78125 56 36.171875 55.265625 
Q 40.578125 54.546875 44.28125 53.078125 
z
" id="DejaVuSans-115"/>
      <path d="M 18.109375 8.203125 
L 18.109375 -20.796875 
L 9.078125 -20.796875 
L 9.078125 54.6875 
L 18.109375 54.6875 
L 18.109375 46.390625 
Q 20.953125 51.265625 25.265625 53.625 
Q 29.59375 56 35.59375 56 
Q 45.5625 56 51.78125 48.09375 
Q 58.015625 40.1875 58.015625 27.296875 
Q 58.015625 14.40625 51.78125 6.484375 
Q 45.5625 -1.421875 35.59375 -1.421875 
Q 29.59375 -1.421875 25.265625 0.953125 
Q 20.953125 3.328125 18.109375 8.203125 
z
M 48.6875 27.296875 
Q 48.6875 37.203125 44.609375 42.84375 
Q 40.53125 48.484375 33.40625 48.484375 
Q 26.265625 48.484375 22.1875 42.84375 
Q 18.109375 37.203125 18.109375 27.296875 
Q 18.109375 17.390625 22.1875 11.75 
Q 26.265625 6.109375 33.40625 6.109375 
Q 40.53125 6.109375 44.609375 11.75 
Q 48.6875 17.390625 48.6875 27.296875 
z
" id="DejaVuSans-112"/>
      <path d="M 56.203125 29.59375 
L 56.203125 25.203125 
L 14.890625 25.203125 
Q 15.484375 15.921875 20.484375 11.0625 
Q 25.484375 6.203125 34.421875 6.203125 
Q 39.59375 6.203125 44.453125 7.46875 
Q 49.3125 8.734375 54.109375 11.28125 
L 54.109375 2.78125 
Q 49.265625 0.734375 44.1875 -0.34375 
Q 39.109375 -1.421875 33.890625 -1.421875 
Q 20.796875 -1.421875 13.15625 6.1875 
Q 5.515625 13.8125 5.515625 26.8125 
Q 5.515625 40.234375 12.765625 48.109375 
Q 20.015625 56 32.328125 56 
Q 43.359375 56 49.78125 48.890625 
Q 56.203125 41.796875 56.203125 29.59375 
z
M 47.21875 32.234375 
Q 47.125 39.59375 43.09375 43.984375 
Q 39.0625 48.390625 32.421875 48.390625 
Q 24.90625 48.390625 20.390625 44.140625 
Q 15.875 39.890625 15.1875 32.171875 
z
" id="DejaVuSans-101"/>
      <path d="M 45.40625 46.390625 
L 45.40625 75.984375 
L 54.390625 75.984375 
L 54.390625 0 
L 45.40625 0 
L 45.40625 8.203125 
Q 42.578125 3.328125 38.25 0.953125 
Q 33.9375 -1.421875 27.875 -1.421875 
Q 17.96875 -1.421875 11.734375 6.484375 
Q 5.515625 14.40625 5.515625 27.296875 
Q 5.515625 40.1875 11.734375 48.09375 
Q 17.96875 56 27.875 56 
Q 33.9375 56 38.25 53.625 
Q 42.578125 51.265625 45.40625 46.390625 
z
M 14.796875 27.296875 
Q 14.796875 17.390625 18.875 11.75 
Q 22.953125 6.109375 30.078125 6.109375 
Q 37.203125 6.109375 41.296875 11.75 
Q 45.40625 17.390625 45.40625 27.296875 
Q 45.40625 37.203125 41.296875 42.84375 
Q 37.203125 48.484375 30.078125 48.484375 
Q 22.953125 48.484375 18.875 42.84375 
Q 14.796875 37.203125 14.796875 27.296875 
z
" id="DejaVuSans-100"/>
      <path d="M 8.5 21.578125 
L 8.5 54.6875 
L 17.484375 54.6875 
L 17.484375 21.921875 
Q 17.484375 14.15625 20.5 10.265625 
Q 23.53125 6.390625 29.59375 6.390625 
Q 36.859375 6.390625 41.078125 11.03125 
Q 45.3125 15.671875 45.3125 23.6875 
L 45.3125 54.6875 
L 54.296875 54.6875 
L 54.296875 0 
L 45.3125 0 
L 45.3125 8.40625 
Q 42.046875 3.421875 37.71875 1 
Q 33.40625 -1.421875 27.6875 -1.421875 
Q 18.265625 -1.421875 13.375 4.4375 
Q 8.5 10.296875 8.5 21.578125 
z
M 31.109375 56 
z
" id="DejaVuSans-117"/>
     </defs>
     <g transform="translate(147.832812 385.049219)rotate(-90)scale(0.1 -0.1)">
      <use xlink:href="#DejaVuSans-115"/>
      <use x="52.099609" xlink:href="#DejaVuSans-112"/>
      <use x="115.576172" xlink:href="#DejaVuSans-101"/>
      <use x="177.099609" xlink:href="#DejaVuSans-101"/>
      <use x="238.623047" xlink:href="#DejaVuSans-100"/>
      <use x="302.099609" xlink:href="#DejaVuSans-117"/>
      <use x="365.478516" xlink:href="#DejaVuSans-112"/>
     </g>
    </g>
   </g>
   <g id="line2d_16">
    <path clip-path="url(#peda30a1a85)" d="M 230.727273 245.630793 
L 231.753102 398.272595 
L 232.778932 173.284988 
L 233.804761 412.728643 
L 234.830591 119.944416 
L 235.856421 387.231141 
L 236.88225 399.403274 
L 237.90808 150.757995 
L 238.933909 433.477724 
L 239.959739 399.501602 
L 240.985569 143.33086 
L 242.011398 400.370771 
L 243.037228 111.6 
L 244.063057 404.848393 
L 245.088887 406.401938 
L 246.114716 157.956207 
L 247.140546 190.329192 
L 248.166376 171.719051 
L 249.192205 188.333901 
L 250.218035 197.365052 
L 251.243864 165.471558 
L 252.269694 163.159725 
L 253.295523 200.944352 
L 254.321353 197.634194 
L 255.347183 180.072428 
L 256.373012 188.581148 
L 257.398842 208.313757 
L 258.424671 198.594591 
L 259.450501 181.027399 
L 260.476331 186.726208 
L 261.50216 228.827709 
L 263.553819 193.118511 
L 264.579649 196.929625 
L 265.605478 231.693282 
L 266.631308 227.833847 
L 267.657138 208.818338 
L 268.682967 213.892225 
L 269.708797 206.441799 
L 270.734626 216.596591 
L 271.760456 210.975417 
L 272.786286 223.369709 
L 273.812115 219.427695 
L 274.837945 226.15313 
L 275.863774 223.545109 
L 276.889604 229.136657 
L 277.915433 233.23327 
L 278.941263 229.405142 
L 279.967093 238.038403 
L 282.018752 245.366324 
L 283.044581 247.959832 
L 284.070411 245.478076 
L 285.09624 250.328623 
L 286.12207 261.432114 
L 287.1479 256.68166 
L 288.173729 255.576127 
L 289.199559 251.956439 
L 290.225388 262.912494 
L 291.251218 288.494666 
L 292.277048 254.294325 
L 293.302877 256.724744 
L 294.328707 179.085616 
L 295.354536 264.061079 
L 296.380366 259.918785 
L 297.406195 260.697588 
L 298.432025 292.059646 
L 299.457855 282.423761 
L 300.483684 266.50981 
L 301.509514 278.667569 
L 302.535343 299.788 
L 303.561173 287.042192 
L 304.587002 266.238677 
L 305.612832 298.191017 
L 306.638662 279.370088 
L 307.664491 279.937736 
L 308.690321 290.450562 
L 309.71615 271.163881 
L 310.74198 295.296234 
L 311.76781 299.868664 
L 312.793639 276.722754 
L 313.819469 294.003265 
L 314.845298 294.923792 
L 315.871128 297.306684 
L 316.896957 295.196903 
L 317.922787 305.534531 
L 318.948617 301.753535 
L 319.974446 292.577597 
L 321.000276 300.432505 
L 322.026105 302.670441 
L 323.051935 285.962354 
L 324.077765 305.187399 
L 325.103594 304.547147 
L 326.129424 310.351802 
L 327.155253 320.369832 
L 328.181083 312.693015 
L 329.206912 309.541678 
L 330.232742 290.70294 
L 331.258572 315.300986 
L 332.284401 320.613557 
L 333.310231 307.011783 
L 334.33606 341.793943 
L 335.36189 321.018988 
L 336.387719 325.372266 
L 337.413549 318.119965 
L 338.439379 321.739467 
L 339.465208 323.977992 
L 340.491038 325.074622 
L 341.516867 328.807222 
L 342.542697 302.537005 
L 343.568527 335.041427 
L 344.594356 337.816903 
L 345.620186 316.470354 
L 346.646015 335.328482 
L 347.671845 341.916819 
L 348.697674 316.238089 
L 349.723504 339.394989 
L 350.749334 335.1238 
L 351.775163 346.753765 
L 352.800993 342.637218 
L 353.826822 341.170696 
L 354.852652 341.944036 
L 355.878481 324.360684 
L 356.904311 339.747358 
L 357.930141 346.523804 
L 358.95597 323.074101 
L 359.9818 350.049262 
L 361.007629 331.103053 
L 362.033459 330.734622 
L 363.059289 372.380607 
L 364.085118 331.645841 
L 365.110948 342.807343 
L 366.136777 345.939277 
L 367.162607 333.877409 
L 368.188436 340.628472 
L 369.214266 361.246232 
L 370.240096 358.984429 
L 371.265925 353.579992 
L 372.291755 338.736521 
L 373.317584 365.774982 
L 374.343414 359.606574 
L 375.369243 355.63839 
L 376.395073 361.120333 
L 377.420903 364.524501 
L 378.446732 334.917161 
L 379.472562 328.524713 
L 380.498391 342.051741 
L 382.550051 364.961212 
L 383.57588 328.889181 
L 384.60171 365.385213 
L 385.627539 346.705343 
L 386.653369 332.04339 
L 387.679198 329.128272 
L 388.705028 343.223158 
L 389.730858 319.881633 
L 390.756687 346.844472 
L 391.782517 335.73118 
L 392.808346 345.254365 
L 393.834176 388.444114 
L 394.860006 372.314607 
L 395.885835 369.234696 
L 396.911665 377.962463 
L 397.937494 400.828355 
L 398.963324 367.623454 
L 399.989153 364.590217 
L 401.014983 386.311084 
L 402.040813 380.903611 
L 403.066642 366.892896 
L 404.092472 383.940591 
L 405.118301 384.55932 
L 406.144131 379.82316 
L 407.16996 376.944961 
L 408.19579 379.5096 
L 409.22162 366.568506 
L 410.247449 393.776121 
L 411.273279 382.740754 
L 412.299108 388.808044 
L 413.324938 402.404169 
L 414.350768 388.478389 
L 415.376597 396.306411 
L 416.402427 351.734531 
L 417.428256 368.586876 
L 418.454086 346.254513 
L 419.479915 376.470586 
L 420.505745 393.504047 
L 421.531575 354.489616 
L 422.557404 405.679908 
L 423.583234 386.130004 
L 424.609063 389.182079 
L 425.634893 394.627036 
L 426.660722 395.72527 
L 427.686552 396.521563 
L 428.712382 391.876953 
L 429.738211 400.692437 
L 430.764041 372.439422 
L 431.78987 409.293132 
L 432.8157 378.842163 
L 433.84153 389.562298 
L 434.867359 390.947496 
L 435.893189 353.317609 
L 436.919018 392.020629 
L 437.944848 394.710223 
L 438.970677 393.822743 
L 439.996507 408.66807 
L 441.022337 378.612329 
L 442.048166 389.650628 
L 443.073996 397.361037 
L 444.099825 356.885688 
L 445.125655 412.567279 
L 446.151485 413.816554 
L 447.177314 410.832942 
L 448.203144 400.966708 
L 449.228973 400.804995 
L 450.254803 432.091154 
L 451.280632 369.093955 
L 452.306462 394.238137 
L 453.332292 389.79751 
L 454.358121 360.222098 
L 455.383951 411.817659 
L 456.40978 455.916921 
L 457.43561 392.290149 
L 458.461439 398.450773 
L 459.487269 397.018813 
L 460.513099 411.5807 
L 461.538928 409.47258 
L 462.564758 416.844221 
L 463.590587 367.709713 
L 464.616417 353.557667 
L 465.642247 403.080066 
L 466.668076 373.493941 
L 467.693906 407.47826 
L 468.719735 354.888447 
L 469.745565 397.516216 
L 470.771394 396.895625 
L 471.797224 419.721761 
L 472.823054 363.34378 
L 473.848883 406.830502 
L 474.874713 490.87022 
L 475.900542 372.766012 
L 476.926372 411.569968 
L 477.952201 407.43104 
L 478.978031 374.377731 
L 480.003861 446.395306 
L 481.02969 413.150433 
L 482.05552 418.371796 
L 483.081349 401.808137 
L 484.107179 454.3596 
L 485.133009 420.033443 
L 486.158838 353.43098 
L 487.184668 406.261664 
L 488.210497 409.460322 
L 489.236327 418.377118 
L 490.262156 397.312013 
L 491.287986 428.250383 
L 492.313816 408.582043 
L 493.339645 407.300874 
L 494.365475 367.857322 
L 495.391304 412.544768 
L 496.417134 414.451232 
L 497.442964 414.334447 
L 498.468793 417.381596 
L 499.494623 406.331388 
L 500.520452 403.946081 
L 501.546282 369.832538 
L 502.572111 409.006293 
L 503.597941 429.343544 
L 504.623771 417.417098 
L 505.6496 380.160624 
L 506.67543 376.278053 
L 507.701259 401.887517 
L 508.727089 410.566939 
L 509.752918 416.607437 
L 510.778748 415.378489 
L 511.804578 419.439254 
L 512.830407 390.551305 
L 513.856237 374.687235 
L 514.882066 428.910796 
L 515.907896 400.673724 
L 517.959555 433.150586 
L 518.985385 399.996797 
L 520.011214 415.998031 
L 521.037044 439.720593 
L 522.062873 372.567632 
L 523.088703 411.246424 
L 524.114533 420.24054 
L 525.140362 391.773788 
L 526.166192 428.736741 
L 527.192021 426.871293 
L 528.217851 428.647232 
L 529.24368 397.037715 
L 530.26951 337.856567 
L 531.29534 412.534671 
L 532.321169 408.990487 
L 533.346999 397.932622 
L 535.398658 436.111084 
L 536.424488 459.225489 
L 537.450317 464.969017 
L 538.476147 397.904463 
L 539.501976 464.778907 
L 540.527806 452.392932 
L 541.553635 431.871141 
L 542.579465 428.974719 
L 543.605295 406.062963 
L 544.631124 455.309315 
L 545.656954 461.87905 
L 546.682783 407.955943 
L 547.708613 422.488056 
L 548.734443 459.528108 
L 549.760272 471.995979 
L 550.786102 511.347688 
L 551.811931 389.736633 
L 552.837761 413.687384 
L 553.86359 465.713352 
L 554.88942 424.779704 
L 555.91525 410.339014 
L 556.941079 401.811263 
L 557.966909 438.59529 
L 558.992738 396.630609 
L 560.018568 389.519825 
L 561.044397 430.013967 
L 562.070227 445.791375 
L 563.096057 465.743522 
L 564.121886 405.819919 
L 565.147716 424.646535 
L 566.173545 423.774119 
L 567.199375 430.549022 
L 568.225205 432.783719 
L 569.251034 433.176403 
L 570.276864 407.024564 
L 571.302693 392.878269 
L 572.328523 408.155165 
L 573.354352 410.889752 
L 574.380182 405.022049 
L 575.406012 436.55445 
L 576.431841 424.882355 
L 577.457671 431.362421 
L 578.4835 417.272207 
L 579.50933 447.468166 
L 580.535159 392.251103 
L 581.560989 447.979421 
L 582.586819 424.557592 
L 583.612648 410.314111 
L 584.638478 391.832132 
L 585.664307 450.892432 
L 586.690137 406.218316 
L 587.715967 408.282404 
L 588.741796 424.146764 
L 589.767626 438.268209 
L 590.793455 429.829955 
L 591.819285 441.744878 
L 592.845114 398.510233 
L 593.870944 447.125655 
L 594.896774 414.079533 
L 595.922603 431.093657 
L 596.948433 433.336034 
L 597.974262 442.785343 
L 599.000092 435.658892 
L 600.025922 396.36245 
L 601.051751 441.964859 
L 602.077581 417.529845 
L 603.10341 428.263374 
L 604.12924 425.82986 
L 605.155069 429.179905 
L 606.180899 439.78655 
L 607.206729 415.755363 
L 608.232558 422.457138 
L 609.258388 443.955647 
L 610.284217 439.915669 
L 611.310047 526.643261 
L 612.335876 401.079338 
L 613.361706 445.359583 
L 614.387536 422.585359 
L 615.413365 442.353336 
L 616.439195 400.743149 
L 617.465024 425.49917 
L 618.490854 421.45289 
L 619.516684 421.788367 
L 620.542513 403.400966 
L 621.568343 421.431819 
L 622.594172 451.499092 
L 623.620002 451.500569 
L 624.645831 422.389467 
L 625.671661 397.697655 
L 626.697491 449.078828 
L 627.72332 420.734127 
L 628.74915 443.455244 
L 629.774979 429.71843 
L 630.800809 451.472859 
L 631.826638 456.682417 
L 632.852468 406.791118 
L 633.878298 428.413967 
L 634.904127 441.963282 
L 635.929957 457.178787 
L 636.955786 434.0834 
L 637.981616 425.890122 
L 639.007446 460.09211 
L 640.033275 462.062041 
L 641.059105 416.552359 
L 642.084934 431.249305 
L 643.110764 436.888487 
L 644.136593 453.473495 
L 645.162423 427.540062 
L 646.188253 433.109185 
L 647.214082 455.748589 
L 648.239912 453.045353 
L 650.291571 434.632638 
L 651.3174 467.215064 
L 652.34323 460.128751 
L 653.36906 454.10597 
L 654.394889 444.162529 
L 655.420719 493.123668 
L 656.446548 465.797359 
L 657.472378 452.900718 
L 658.498208 445.463323 
L 659.524037 461.894343 
L 660.549867 471.920683 
L 661.575696 447.568182 
L 662.601526 455.240952 
L 663.627355 441.923239 
L 664.653185 465.652415 
L 665.679015 451.134852 
L 666.704844 464.853599 
L 667.730674 449.470673 
L 668.756503 462.843628 
L 669.782333 432.574361 
L 670.808163 450.968071 
L 671.833992 450.63611 
L 672.859822 467.107342 
L 673.885651 456.212276 
L 674.911481 458.412171 
L 675.93731 468.893694 
L 676.96314 468.939756 
L 677.98897 439.175486 
L 679.014799 435.032984 
L 680.040629 448.890472 
L 681.066458 457.056894 
L 682.092288 466.485112 
L 683.118117 455.173487 
L 684.143947 475.155209 
L 685.169777 459.790528 
L 686.195606 456.12946 
L 687.221436 432.659429 
L 688.247265 456.929116 
L 689.273095 458.832439 
L 690.298925 440.136289 
L 691.324754 433.641393 
L 692.350584 461.292646 
L 693.376413 447.216944 
L 694.402243 462.220802 
L 695.428072 441.06855 
L 696.453902 452.613112 
L 697.479732 470.768608 
L 698.505561 451.576037 
L 699.531391 445.512518 
L 700.55722 447.743186 
L 701.58305 472.480842 
L 702.608879 461.49039 
L 704.660539 454.830404 
L 705.686368 476.584479 
L 706.712198 459.593778 
L 708.763857 472.008841 
L 709.789687 462.208622 
L 710.815516 463.450237 
L 711.841346 464.937719 
L 712.867175 468.316238 
L 713.893005 484.472596 
L 714.918834 458.91599 
L 715.944664 463.773982 
L 716.970494 473.855452 
L 717.996323 509.300068 
L 719.022153 470.879551 
L 720.047982 463.541229 
L 721.073812 482.316667 
L 722.099642 469.624901 
L 723.125471 466.089857 
L 724.151301 470.715709 
L 725.17713 458.648726 
L 726.20296 457.934469 
L 727.228789 458.766995 
L 728.254619 473.675802 
L 729.280449 480.069098 
L 730.306278 478.061091 
L 731.332108 470.874209 
L 732.357937 472.681534 
L 733.383767 464.312031 
L 734.409596 467.431122 
L 735.435426 443.006007 
L 736.461256 446.546819 
L 737.487085 468.206273 
L 738.512915 484.730683 
L 739.538744 447.709429 
L 740.564574 460.817698 
L 741.590404 478.306246 
L 742.616233 485.220302 
L 743.642063 461.422001 
L 744.667892 458.521441 
L 745.693722 468.830494 
L 746.719551 464.557143 
L 747.745381 477.168912 
L 748.771211 466.31401 
L 749.79704 477.056781 
L 750.82287 491.90644 
L 751.848699 521.108299 
L 752.874529 449.941498 
L 753.900358 484.984017 
L 754.926188 468.33535 
L 755.952018 474.616927 
L 756.977847 463.548947 
L 758.003677 539.552662 
L 759.029506 484.708929 
L 760.055336 468.476868 
L 761.081166 460.900344 
L 762.106995 491.344119 
L 763.132825 474.069598 
L 764.158654 471.485179 
L 765.184484 466.484234 
L 766.210313 484.398354 
L 767.236143 492.508917 
L 768.261973 474.436992 
L 769.287802 467.821305 
L 770.313632 477.043683 
L 771.339461 481.437871 
L 772.365291 467.352151 
L 773.391121 475.16709 
L 774.41695 526.896168 
L 775.44278 471.669605 
L 776.468609 472.335806 
L 777.494439 468.978071 
L 778.520268 482.405669 
L 779.546098 477.034028 
L 780.571928 481.325783 
L 781.597757 456.275646 
L 782.623587 480.304768 
L 783.649416 478.220838 
L 784.675246 475.55601 
L 785.701075 479.879142 
L 786.726905 478.137341 
L 787.752735 490.059895 
L 788.778564 472.062552 
L 789.804394 477.92337 
L 790.830223 481.127494 
L 791.856053 469.836094 
L 792.881883 484.445785 
L 793.907712 458.27918 
L 794.933542 496.396303 
L 795.959371 481.723751 
L 796.985201 481.041336 
L 798.01103 468.678642 
L 799.03686 486.317692 
L 800.06269 480.981924 
L 801.088519 478.014002 
L 802.114349 421.251155 
L 803.140178 486.637107 
L 804.166008 478.997193 
L 805.191837 480.925916 
L 806.217667 457.8417 
L 807.243497 481.365242 
L 808.269326 481.80609 
L 809.295156 475.510452 
L 810.320985 476.567202 
L 811.346815 485.897068 
L 812.372645 485.997548 
L 813.398474 485.41722 
L 814.424304 476.102314 
L 815.450133 498.555331 
L 816.475963 488.057342 
L 817.501792 484.011118 
L 818.527622 488.825948 
L 819.553452 480.766407 
L 820.579281 494.074248 
L 821.605111 457.52299 
L 822.63094 486.625837 
L 823.65677 481.389614 
L 824.6826 490.952866 
L 825.708429 486.124745 
L 827.760088 519.031614 
L 828.785918 511.076275 
L 829.811747 467.546906 
L 830.837577 488.501724 
L 831.863407 494.182925 
L 832.889236 484.514192 
L 833.915066 465.067366 
L 834.940895 467.592514 
L 835.966725 482.042248 
L 836.992554 484.665228 
L 838.018384 479.752467 
L 839.044214 488.288879 
L 840.070043 491.601001 
L 841.095873 502.012114 
L 842.121702 477.079783 
L 843.147532 484.271826 
L 844.173362 486.152879 
L 845.199191 495.6896 
L 846.225021 477.589555 
L 847.25085 479.886464 
L 848.27668 497.846017 
L 849.302509 491.297471 
L 850.328339 487.557463 
L 851.354169 493.176356 
L 852.379998 490.591519 
L 853.405828 503.389948 
L 854.431657 483.478 
L 855.457487 479.501711 
L 856.483316 495.169461 
L 857.509146 501.642778 
L 858.534976 489.028525 
L 859.560805 479.563034 
L 860.586635 413.795312 
L 861.612464 511.807542 
L 862.638294 475.626251 
L 863.664124 474.76862 
L 864.689953 510.410394 
L 865.715783 526.674899 
L 866.741612 389.746375 
L 867.767442 481.963166 
L 868.793271 495.436573 
L 869.819101 495.6135 
L 871.87076 456.10719 
L 872.89659 480.881605 
L 873.922419 459.607375 
L 874.948249 464.871641 
L 875.974078 508.225656 
L 876.999908 509.254108 
L 878.025738 490.898504 
L 879.051567 488.201146 
L 880.077397 525.833324 
L 881.103226 494.947718 
L 882.129056 493.398167 
L 883.154886 495.685238 
L 884.180715 476.789786 
L 885.206545 504.090626 
L 886.232374 481.41661 
L 887.258204 484.21205 
L 888.284033 491.399065 
L 889.309863 503.687236 
L 890.335693 494.286417 
L 891.361522 480.79136 
L 892.387352 492.951701 
L 893.413181 541.631156 
L 894.439011 502.520322 
L 895.464841 490.347076 
L 896.49067 490.006936 
L 897.5165 496.93948 
L 898.542329 533.895561 
L 899.568159 511.259981 
L 900.593988 481.382112 
L 901.619818 524.725619 
L 902.645648 508.947039 
L 903.671477 495.037229 
L 904.697307 487.382891 
L 906.748966 498.413679 
L 907.774795 495.81592 
L 908.800625 479.574123 
L 909.826455 499.449074 
L 910.852284 498.012194 
L 911.878114 493.760563 
L 912.903943 499.002229 
L 913.929773 502.022707 
L 914.955603 498.635138 
L 915.981432 498.835031 
L 917.007262 504.969797 
L 918.033091 500.719393 
L 919.058921 509.20475 
L 920.08475 504.872372 
L 921.11058 507.739283 
L 922.13641 498.104338 
L 923.162239 506.156209 
L 924.188069 500.976667 
L 925.213898 499.102899 
L 926.239728 500.033459 
L 927.265557 509.136974 
L 928.291387 508.126071 
L 929.317217 503.248077 
L 930.343046 500.81802 
L 931.368876 521.351083 
L 932.394705 503.78666 
L 933.420535 502.288039 
L 934.446365 512.381277 
L 935.472194 513.755785 
L 936.498024 501.574817 
L 937.523853 512.523233 
L 938.549683 507.888545 
L 939.575512 512.351219 
L 940.601342 507.000305 
L 941.627172 511.800758 
L 942.653001 508.193574 
L 943.678831 514.633465 
L 944.70466 507.133285 
L 945.73049 504.21695 
L 946.75632 544.775164 
L 947.782149 503.299725 
L 948.807979 513.586106 
L 949.833808 505.277976 
L 950.859638 504.157954 
L 951.885467 510.567696 
L 952.911297 508.878227 
L 953.937127 510.710198 
L 954.962956 510.182839 
L 955.988786 518.046538 
L 957.014615 503.94912 
L 958.040445 513.911985 
L 959.066274 514.885356 
L 960.092104 507.592652 
L 961.117934 507.847196 
L 962.143763 516.40157 
L 963.169593 514.35672 
L 964.195422 519.209003 
L 965.221252 513.352198 
L 966.247082 512.941106 
L 968.298741 517.957461 
L 969.32457 509.936183 
L 970.3504 511.8717 
L 971.376229 514.137319 
L 972.402059 509.885794 
L 973.427889 516.415043 
L 974.453718 512.353978 
L 975.479548 512.161797 
L 976.505377 515.315874 
L 977.531207 519.168512 
L 978.557036 510.562211 
L 979.582866 513.552062 
L 980.608696 494.805023 
L 981.634525 511.713725 
L 982.660355 518.319373 
L 983.686184 481.105907 
L 984.712014 515.011652 
L 985.737844 514.159179 
L 986.763673 512.391481 
L 987.789503 516.126733 
L 988.815332 516.668348 
L 990.866991 512.663668 
L 991.892821 520.907729 
L 992.918651 509.399175 
L 993.94448 541.500371 
L 994.97031 512.639213 
L 995.996139 513.864301 
L 997.021969 506.88288 
L 998.047799 497.146849 
L 999.073628 521.689219 
L 1000.099458 533.968602 
L 1001.125287 514.064274 
L 1002.151117 512.502518 
L 1003.176946 553.579947 
L 1004.202776 507.154365 
L 1005.228606 517.303179 
L 1007.280265 506.371353 
L 1008.306094 512.886795 
L 1009.331924 510.839818 
L 1010.357753 513.265284 
L 1011.383583 514.172299 
L 1012.409413 515.419606 
L 1014.461072 514.074038 
L 1015.486901 519.281711 
L 1016.512731 509.148825 
L 1017.538561 511.845216 
L 1019.59022 510.517744 
L 1020.616049 512.70871 
L 1021.641879 519.750855 
L 1022.667708 511.775283 
L 1023.693538 515.029143 
L 1024.719368 525.874986 
L 1025.745197 516.747522 
L 1026.771027 515.838288 
L 1027.796856 513.492358 
L 1028.822686 516.372407 
L 1029.848515 514.641874 
L 1030.874345 514.249702 
L 1031.900175 513.179583 
L 1032.926004 501.991324 
L 1033.951834 504.407385 
L 1034.977663 518.811805 
L 1036.003493 520.386465 
L 1037.029323 529.813711 
L 1038.055152 512.870045 
L 1039.080982 516.577644 
L 1040.106811 516.326173 
L 1041.132641 514.163194 
L 1042.15847 518.841748 
L 1043.1843 519.888969 
L 1044.21013 518.061224 
L 1045.235959 519.041106 
L 1046.261789 519.71228 
L 1047.287618 510.88877 
L 1048.313448 520.7341 
L 1049.339278 522.707056 
L 1051.390937 515.593659 
L 1052.416766 522.8265 
L 1053.442596 520.262014 
L 1054.468425 515.67739 
L 1055.494255 522.25899 
L 1056.520085 544.578941 
L 1057.545914 515.432509 
L 1058.571744 518.706885 
L 1059.597573 520.71341 
L 1060.623403 520.984431 
L 1061.649232 515.610037 
L 1062.675062 514.727674 
L 1063.700892 518.36339 
L 1064.726721 519.075182 
L 1065.752551 516.816029 
L 1066.77838 518.644475 
L 1067.80421 519.072169 
L 1068.83004 521.680212 
L 1069.855869 521.238505 
L 1070.881699 522.948185 
L 1071.907528 521.547902 
L 1072.933358 519.319149 
L 1073.959187 522.337895 
L 1074.985017 516.635478 
L 1076.010847 522.388382 
L 1077.036676 518.473974 
L 1079.088335 522.654985 
L 1080.114165 520.844715 
L 1081.139994 516.296956 
L 1082.165824 520.038254 
L 1083.191654 518.944706 
L 1084.217483 517.62344 
L 1085.243313 522.604276 
L 1086.269142 521.943745 
L 1087.294972 522.385069 
L 1088.320802 525.08615 
L 1089.346631 521.672702 
L 1090.372461 521.081394 
L 1091.39829 522.750822 
L 1092.42412 523.828452 
L 1093.449949 542.7234 
L 1094.475779 520.988493 
L 1095.501609 520.528898 
L 1096.527438 519.503827 
L 1097.553268 545.883485 
L 1098.579097 524.377551 
L 1099.604927 519.898178 
L 1100.630757 518.099435 
L 1101.656586 525.999575 
L 1102.682416 525.382543 
L 1103.708245 518.087 
L 1104.734075 523.092355 
L 1105.759904 526.349134 
L 1106.785734 524.312615 
L 1107.811564 522.004643 
L 1109.863223 523.993299 
L 1110.889052 517.892009 
L 1111.914882 523.406096 
L 1112.940711 526.460502 
L 1113.966541 526.488793 
L 1114.992371 521.4167 
L 1116.0182 522.493673 
L 1117.04403 527.04003 
L 1118.069859 563.607699 
L 1119.095689 520.729897 
L 1120.121519 518.202407 
L 1121.147348 524.670711 
L 1122.173178 520.415839 
L 1123.199007 521.953455 
L 1124.224837 522.548664 
L 1125.250666 526.478153 
L 1126.276496 523.606906 
L 1127.302326 525.04703 
L 1128.328155 527.060445 
L 1129.353985 529.368479 
L 1130.379814 521.145557 
L 1131.405644 526.891366 
L 1132.431473 525.7211 
L 1133.457303 524.879857 
L 1134.483133 522.990472 
L 1135.508962 526.889348 
L 1136.534792 526.306043 
L 1137.560621 522.882972 
L 1138.586451 524.515864 
L 1139.612281 534.179618 
L 1140.63811 528.396397 
L 1141.66394 521.734961 
L 1142.689769 526.078238 
L 1143.715599 524.849348 
L 1144.741428 524.902033 
L 1145.767258 531.281592 
L 1146.793088 538.919324 
L 1147.818917 527.710256 
L 1148.844747 529.892052 
L 1149.870576 525.80508 
L 1150.896406 526.867237 
L 1151.922235 560.129816 
L 1152.948065 528.130415 
L 1153.973895 527.729776 
L 1154.999724 529.164273 
L 1156.025554 529.140712 
L 1157.051383 531.768375 
L 1158.077213 536.279536 
L 1159.103043 529.50296 
L 1160.128872 529.88435 
L 1161.154702 528.974977 
L 1162.180531 526.310167 
L 1163.206361 528.864716 
L 1164.23219 527.834234 
L 1165.25802 531.300952 
L 1166.28385 527.049487 
L 1167.309679 530.162061 
L 1168.335509 529.308129 
L 1169.361338 527.606496 
L 1170.387168 542.156399 
L 1171.412998 527.354061 
L 1172.438827 599.117405 
L 1173.464657 535.730807 
L 1174.490486 531.471364 
L 1175.516316 528.722141 
L 1176.542145 531.35948 
L 1177.567975 527.11995 
L 1178.593805 531.715785 
L 1179.619634 533.235987 
L 1180.645464 531.35533 
L 1181.671293 528.138389 
L 1182.697123 532.23555 
L 1183.722952 529.686566 
L 1185.774612 538.275326 
L 1186.800441 530.894948 
L 1187.826271 535.204513 
L 1188.8521 548.291248 
L 1189.87793 538.276587 
L 1190.90376 550.99102 
L 1191.929589 547.82111 
L 1192.955419 539.165401 
L 1193.981248 541.55233 
L 1195.007078 549.837714 
L 1196.032907 547.788548 
L 1197.058737 539.593995 
L 1199.110396 550.708119 
L 1200.136226 548.181247 
L 1201.162055 551.43462 
L 1202.187885 548.722668 
L 1203.213714 550.701048 
L 1204.239544 542.33036 
L 1205.265374 547.759012 
L 1206.291203 546.825653 
L 1207.317033 547.266741 
L 1208.342862 548.817385 
L 1209.368692 541.119694 
L 1210.394522 544.763879 
L 1211.420351 551.006117 
L 1212.446181 546.482794 
L 1213.47201 550.797715 
L 1214.49784 535.986883 
L 1215.523669 585.767394 
L 1216.549499 551.120998 
L 1217.575329 547.95189 
L 1218.601158 551.773784 
L 1219.626988 543.722444 
L 1220.652817 525.649802 
L 1221.678647 549.406483 
L 1222.704477 535.690386 
L 1223.730306 535.555306 
L 1224.756136 536.459808 
L 1225.781965 530.494183 
L 1226.807795 539.532089 
L 1227.833624 588.428203 
L 1228.859454 556.071757 
L 1229.885284 534.58055 
L 1230.911113 531.266443 
L 1231.936943 532.24129 
L 1235.014431 537.037107 
L 1236.040261 558.156958 
L 1237.066091 535.228091 
L 1238.09192 532.54566 
L 1239.11775 534.334099 
L 1240.143579 534.03251 
L 1241.169409 531.442241 
L 1242.195239 536.936217 
L 1243.221068 537.475972 
L 1244.246898 534.494651 
L 1245.272727 538.972305 
L 1245.272727 538.972305 
" style="fill:none;stroke:#1f77b4;stroke-linecap:square;stroke-width:1.5;"/>
   </g>
   <g id="line2d_17">
    <path clip-path="url(#peda30a1a85)" d="M 230.727273 213.723333 
L 231.753102 125.506506 
L 232.778932 126.762256 
L 233.804761 180.454729 
L 234.830591 169.368953 
L 235.856421 179.682766 
L 236.88225 193.029298 
L 237.90808 197.327978 
L 238.933909 200.357505 
L 239.959739 202.436049 
L 240.985569 220.089471 
L 242.011398 222.470048 
L 243.037228 233.30532 
L 244.063057 232.81415 
L 245.088887 261.972965 
L 246.114716 238.462721 
L 247.140546 260.219438 
L 248.166376 252.146478 
L 249.192205 278.031231 
L 250.218035 261.12987 
L 251.243864 291.325585 
L 252.269694 275.421379 
L 253.295523 299.573129 
L 254.321353 293.493293 
L 255.347183 313.710447 
L 256.373012 282.178663 
L 257.398842 298.454452 
L 258.424671 311.214712 
L 259.450501 299.889248 
L 260.476331 297.028541 
L 261.50216 317.645902 
L 262.52799 320.731745 
L 263.553819 500.3059 
L 264.579649 333.323266 
L 265.605478 343.846135 
L 266.631308 315.419544 
L 267.657138 341.017107 
L 268.682967 330.275805 
L 269.708797 337.526178 
L 270.734626 356.733937 
L 271.760456 358.811515 
L 272.786286 345.357383 
L 273.812115 337.151456 
L 274.837945 361.536633 
L 275.863774 377.91421 
L 276.889604 368.216252 
L 277.915433 374.751902 
L 278.941263 375.248917 
L 279.967093 376.175475 
L 280.992922 398.220541 
L 282.018752 390.367922 
L 283.044581 515.414093 
L 284.070411 386.901859 
L 286.12207 381.748949 
L 287.1479 388.153152 
L 288.173729 388.869411 
L 289.199559 370.089596 
L 290.225388 380.15412 
L 291.251218 408.633962 
L 292.277048 409.856094 
L 293.302877 381.80197 
L 294.328707 379.991706 
L 295.354536 407.836353 
L 296.380366 403.595082 
L 297.406195 379.327704 
L 298.432025 389.139959 
L 299.457855 396.054629 
L 300.483684 393.420806 
L 301.509514 407.424618 
L 302.535343 403.214361 
L 303.561173 422.440963 
L 304.587002 474.483994 
L 305.612832 407.326633 
L 306.638662 401.883256 
L 307.664491 404.580323 
L 308.690321 406.886912 
L 309.71615 412.07181 
L 310.74198 306.041335 
L 311.76781 416.322192 
L 312.793639 395.422798 
L 313.819469 418.384256 
L 314.845298 408.379576 
L 315.871128 416.135718 
L 316.896957 418.564014 
L 317.922787 421.897183 
L 318.948617 427.611454 
L 319.974446 427.210411 
L 321.000276 414.640476 
L 322.026105 429.072009 
L 323.051935 419.791724 
L 324.077765 431.292195 
L 325.103594 418.744725 
L 326.129424 449.03698 
L 327.155253 425.11486 
L 328.181083 433.639563 
L 329.206912 429.393202 
L 330.232742 440.408469 
L 331.258572 431.77166 
L 332.284401 441.545817 
L 333.310231 432.518304 
L 334.33606 434.654595 
L 335.36189 436.502315 
L 336.387719 447.845733 
L 337.413549 443.246966 
L 338.439379 450.257728 
L 339.465208 438.108545 
L 340.491038 450.385116 
L 341.516867 440.428031 
L 342.542697 446.065653 
L 343.568527 446.072338 
L 344.594356 453.573972 
L 345.620186 444.905423 
L 346.646015 456.105688 
L 347.671845 450.49429 
L 348.697674 455.373853 
L 349.723504 450.512321 
L 350.749334 457.781675 
L 351.775163 461.971274 
L 352.800993 460.347521 
L 353.826822 458.387689 
L 354.852652 463.875909 
L 355.878481 458.033508 
L 356.904311 470.293241 
L 357.930141 460.359703 
L 358.95597 470.734531 
L 359.9818 459.850716 
L 361.007629 474.384446 
L 362.033459 462.907838 
L 363.059289 481.14878 
L 364.085118 465.606789 
L 365.110948 472.60118 
L 366.136777 466.368178 
L 367.162607 475.482847 
L 368.188436 467.523203 
L 369.214266 480.185431 
L 370.240096 470.314627 
L 371.265925 479.372555 
L 372.291755 473.141502 
L 373.317584 481.163229 
L 374.343414 473.113101 
L 375.369243 483.490832 
L 376.395073 465.67382 
L 377.420903 487.192324 
L 378.446732 482.902823 
L 379.472562 483.543542 
L 380.498391 463.676878 
L 381.524221 484.855714 
L 382.550051 480.677367 
L 383.57588 488.916903 
L 384.60171 478.45892 
L 385.627539 487.982669 
L 386.653369 482.546406 
L 387.679198 501.762845 
L 388.705028 484.665257 
L 389.730858 488.191183 
L 390.756687 487.382747 
L 391.782517 493.766598 
L 392.808346 487.329964 
L 393.834176 510.484642 
L 394.860006 488.950684 
L 395.885835 498.937113 
L 396.911665 489.739792 
L 397.937494 497.121282 
L 398.963324 491.210337 
L 399.989153 498.258208 
L 401.014983 498.520405 
L 402.040813 499.431691 
L 403.066642 491.121907 
L 404.092472 500.556049 
L 405.118301 495.906416 
L 406.144131 504.018959 
L 407.16996 496.034406 
L 408.19579 504.002377 
L 409.22162 499.101545 
L 410.247449 496.612872 
L 411.273279 498.864249 
L 412.299108 507.02758 
L 413.324938 497.186046 
L 414.350768 507.518618 
L 415.376597 500.286619 
L 416.402427 507.65046 
L 417.428256 503.520802 
L 418.454086 507.033837 
L 419.479915 502.908693 
L 420.505745 511.183263 
L 421.531575 503.537007 
L 422.557404 509.977332 
L 423.583234 504.442746 
L 424.609063 514.755566 
L 425.634893 505.911586 
L 426.660722 513.735019 
L 427.686552 508.498407 
L 428.712382 531.764356 
L 429.738211 509.546377 
L 430.764041 518.928864 
L 431.78987 509.025581 
L 432.8157 517.786811 
L 433.84153 509.601262 
L 434.867359 519.22461 
L 435.893189 507.377429 
L 436.919018 517.941531 
L 437.944848 511.817633 
L 438.970677 519.794383 
L 439.996507 514.971121 
L 441.022337 520.961441 
L 442.048166 556.98873 
L 443.073996 522.877636 
L 444.099825 515.644583 
L 445.125655 523.928571 
L 446.151485 517.003926 
L 447.177314 526.022069 
L 448.203144 519.244892 
L 449.228973 524.511567 
L 450.254803 519.817093 
L 451.280632 525.471513 
L 452.306462 520.974691 
L 453.332292 527.220832 
L 454.358121 530.790333 
L 455.383951 528.369726 
L 456.40978 522.08641 
L 457.43561 528.718366 
L 458.461439 523.700828 
L 459.487269 533.219441 
L 460.513099 524.433806 
L 461.538928 531.186942 
L 462.564758 523.926802 
L 463.590587 531.584006 
L 464.616417 527.913076 
L 465.642247 533.337461 
L 466.668076 563.884216 
L 467.693906 540.255672 
L 468.719735 544.76894 
L 470.771394 526.636506 
L 471.797224 536.618361 
L 472.823054 523.789739 
L 473.848883 539.43356 
L 474.874713 529.300344 
L 475.900542 555.296701 
L 476.926372 534.370729 
L 477.952201 537.258666 
L 478.978031 532.298376 
L 480.003861 538.971714 
L 481.02969 533.662031 
L 482.05552 550.301706 
L 483.081349 533.391663 
L 484.107179 537.257057 
L 485.133009 528.230384 
L 486.158838 540.992181 
L 487.184668 534.211978 
L 488.210497 540.795205 
L 489.236327 535.155137 
L 490.262156 544.776626 
L 491.287986 535.385335 
L 492.313816 541.89443 
L 493.339645 537.539647 
L 494.365475 540.708558 
L 495.391304 536.075591 
L 496.417134 543.356418 
L 497.442964 540.303604 
L 498.468793 544.017188 
L 499.494623 536.719 
L 500.520452 544.641292 
L 501.546282 534.541872 
L 502.572111 545.776147 
L 503.597941 539.231069 
L 504.623771 546.07503 
L 505.6496 539.892202 
L 506.67543 547.794329 
L 507.701259 542.394673 
L 508.727089 545.753156 
L 509.752918 540.758442 
L 510.778748 548.100966 
L 511.804578 542.240391 
L 512.830407 546.434541 
L 513.856237 542.569305 
L 514.882066 548.300576 
L 515.907896 544.626445 
L 516.933726 555.266673 
L 517.959555 541.745117 
L 518.985385 551.206636 
L 520.011214 543.862475 
L 521.037044 551.294266 
L 522.062873 543.36362 
L 523.088703 552.109352 
L 524.114533 546.213663 
L 525.140362 553.708651 
L 526.166192 546.073504 
L 527.192021 555.288195 
L 528.217851 546.744498 
L 529.24368 552.787564 
L 530.26951 545.938857 
L 531.29534 551.913079 
L 532.321169 548.672042 
L 533.346999 554.324083 
L 534.372828 549.081256 
L 535.398658 553.673542 
L 536.424488 550.540037 
L 537.450317 554.129318 
L 538.476147 552.253346 
L 539.501976 556.119588 
L 540.527806 551.042614 
L 541.553635 554.97904 
L 542.579465 548.568264 
L 543.605295 551.050408 
L 544.631124 551.527087 
L 545.656954 557.552318 
L 546.682783 551.650815 
L 547.708613 558.512798 
L 548.734443 550.910176 
L 549.760272 559.32454 
L 550.786102 554.519548 
L 551.811931 557.496421 
L 552.837761 549.135961 
L 553.86359 561.566469 
L 554.88942 554.172968 
L 555.91525 558.632186 
L 556.941079 553.275335 
L 557.966909 568.065076 
L 558.992738 555.49595 
L 560.018568 559.668319 
L 561.044397 556.168399 
L 562.070227 560.36261 
L 563.096057 556.114706 
L 564.121886 559.560359 
L 565.147716 556.602984 
L 566.173545 562.17027 
L 567.199375 555.430492 
L 568.225205 563.501972 
L 569.251034 560.830805 
L 570.276864 563.433361 
L 571.302693 560.216895 
L 572.328523 564.615406 
L 573.354352 560.518533 
L 574.380182 562.339427 
L 575.406012 557.766214 
L 576.431841 565.182577 
L 577.457671 558.555752 
L 578.4835 564.774173 
L 579.50933 555.962854 
L 580.535159 564.857683 
L 581.560989 557.098735 
L 582.586819 564.194737 
L 583.612648 560.89094 
L 584.638478 566.514182 
L 585.664307 558.560862 
L 586.690137 567.071842 
L 587.715967 561.195937 
L 588.741796 566.705037 
L 589.767626 559.044593 
L 590.793455 568.083832 
L 591.819285 562.996373 
L 592.845114 569.114209 
L 593.870944 563.236159 
L 594.896774 567.574347 
L 595.922603 564.871345 
L 596.948433 568.630553 
L 597.974262 563.47432 
L 599.000092 568.925242 
L 600.025922 563.818375 
L 601.051751 569.928919 
L 602.077581 565.133912 
L 603.10341 571.603327 
L 604.12924 564.194047 
L 605.155069 571.180084 
L 606.180899 565.605741 
L 607.206729 571.059071 
L 608.232558 565.373484 
L 609.258388 585.829746 
L 610.284217 566.40531 
L 611.310047 599.952105 
L 612.335876 565.809153 
L 613.361706 587.275283 
L 614.387536 564.163081 
L 615.413365 587.206888 
L 616.439195 567.845007 
L 617.465024 587.611716 
L 618.490854 568.356357 
L 619.516684 588.070659 
L 620.542513 567.028374 
L 621.568343 587.965661 
L 622.594172 566.833011 
L 623.620002 588.584702 
L 624.645831 568.703392 
L 625.671661 574.982153 
L 626.697491 569.478004 
L 627.72332 575.502713 
L 628.74915 567.196801 
L 629.774979 575.037695 
L 630.800809 569.898982 
L 631.826638 573.545681 
L 632.852468 567.784541 
L 633.878298 575.205216 
L 634.904127 570.253171 
L 635.929957 573.517001 
L 636.955786 570.167824 
L 637.981616 576.47609 
L 639.007446 570.748045 
L 640.033275 574.093486 
L 641.059105 570.340215 
L 642.084934 576.298232 
L 643.110764 571.503447 
L 644.136593 576.778706 
L 645.162423 572.831999 
L 646.188253 575.871132 
L 647.214082 573.625537 
L 648.239912 577.037292 
L 649.265741 571.935822 
L 650.291571 577.72437 
L 651.3174 572.766177 
L 652.34323 575.968354 
L 653.36906 571.453164 
L 654.394889 577.037002 
L 655.420719 571.21486 
L 656.446548 578.007635 
L 657.472378 573.289552 
L 658.498208 576.996879 
L 659.524037 572.580058 
L 660.549867 578.042769 
L 661.575696 572.302665 
L 662.601526 577.785699 
L 663.627355 575.615198 
L 664.653185 579.105253 
L 665.679015 574.638866 
L 666.704844 578.393778 
L 667.730674 575.970254 
L 668.756503 580.440818 
L 669.782333 575.032994 
L 670.808163 579.767844 
L 671.833992 576.586586 
L 672.859822 579.089212 
L 673.885651 575.51297 
L 674.911481 579.189543 
L 675.93731 575.781947 
L 676.96314 580.139934 
L 677.98897 577.109483 
L 679.014799 580.758165 
L 680.040629 575.126106 
L 681.066458 580.30115 
L 682.092288 576.31315 
L 683.118117 582.335326 
L 684.143947 576.734474 
L 685.169777 580.510686 
L 686.195606 576.69596 
L 687.221436 581.959927 
L 688.247265 577.500593 
L 689.273095 581.855573 
L 690.298925 577.090773 
L 691.324754 581.286695 
L 692.350584 577.574803 
L 693.376413 581.574113 
L 694.402243 578.57503 
L 695.428072 581.620016 
L 696.453902 577.809495 
L 697.479732 582.15108 
L 698.505561 580.28119 
L 699.531391 581.677746 
L 700.55722 580.377154 
L 701.58305 583.251509 
L 702.608879 580.850592 
L 703.634709 583.090048 
L 704.660539 580.234381 
L 705.686368 583.073705 
L 706.712198 580.542859 
L 707.738027 582.628436 
L 708.763857 580.157792 
L 709.789687 583.34417 
L 710.815516 579.782406 
L 711.841346 582.597786 
L 712.867175 580.331824 
L 713.893005 583.648999 
L 714.918834 581.094814 
L 715.944664 584.353573 
L 716.970494 578.348574 
L 717.996323 584.136671 
L 719.022153 577.815 
L 720.047982 585.612484 
L 721.073812 583.360922 
L 722.099642 585.622076 
L 723.125471 582.646736 
L 724.151301 585.295464 
L 725.17713 580.810685 
L 726.20296 585.961514 
L 727.228789 580.850244 
L 728.254619 585.407729 
L 729.280449 582.165937 
L 730.306278 586.652139 
L 731.332108 582.655871 
L 732.357937 585.20913 
L 733.383767 580.790987 
L 734.409596 588.700716 
L 735.435426 582.846655 
L 736.461256 588.49809 
L 737.487085 585.218293 
L 738.512915 587.886941 
L 739.538744 585.115889 
L 740.564574 587.255566 
L 741.590404 585.615661 
L 742.616233 588.434876 
L 743.642063 584.986423 
L 744.667892 591.181448 
L 745.693722 587.376833 
L 746.719551 589.271286 
L 747.745381 584.333028 
L 748.771211 589.475734 
L 749.79704 584.556283 
L 750.82287 589.262042 
L 751.848699 584.754032 
L 752.874529 589.918604 
L 753.900358 587.069231 
L 754.926188 587.691136 
L 755.952018 586.068382 
L 756.977847 602.454073 
L 758.003677 586.493433 
L 759.029506 591.130821 
L 760.055336 585.485365 
L 761.081166 590.080718 
L 762.106995 587.205141 
L 763.132825 590.130066 
L 764.158654 587.57217 
L 765.184484 589.916167 
L 766.210313 587.012837 
L 767.236143 589.352241 
L 768.261973 588.073199 
L 769.287802 590.7078 
L 770.313632 587.210507 
L 771.339461 590.519098 
L 772.365291 586.377065 
L 773.391121 595.433363 
L 774.41695 588.147422 
L 775.44278 590.994767 
L 776.468609 588.566891 
L 777.494439 591.564713 
L 778.520268 585.489277 
L 779.546098 590.127452 
L 780.571928 586.900546 
L 781.597757 591.239116 
L 782.623587 587.929871 
L 783.649416 592.409671 
L 784.675246 589.039893 
L 785.701075 590.084182 
L 786.726905 588.161727 
L 787.752735 592.896636 
L 788.778564 588.810809 
L 789.804394 593.335044 
L 790.830223 588.549935 
L 791.856053 592.784662 
L 792.881883 589.667716 
L 793.907712 592.7456 
L 794.933542 588.597432 
L 795.959371 592.988204 
L 796.985201 589.376207 
L 798.01103 593.056907 
L 799.03686 590.411814 
L 800.06269 593.823008 
L 801.088519 590.566306 
L 802.114349 594.691783 
L 803.140178 590.774324 
L 804.166008 594.175875 
L 805.191837 589.652811 
L 806.217667 591.029338 
L 807.243497 589.522878 
L 808.269326 593.143782 
L 809.295156 590.192985 
L 810.320985 595.060706 
L 811.346815 591.581568 
L 812.372645 594.092907 
L 813.398474 592.359443 
L 814.424304 595.231329 
L 815.450133 592.496502 
L 816.475963 594.223358 
L 817.501792 591.746206 
L 818.527622 591.273187 
L 819.553452 591.743277 
L 820.579281 593.70392 
L 821.605111 591.26398 
L 822.63094 594.018857 
L 823.65677 591.348819 
L 824.6826 595.233193 
L 825.708429 592.219326 
L 826.734259 594.26914 
L 827.760088 592.704538 
L 828.785918 595.401699 
L 829.811747 591.334525 
L 830.837577 595.071118 
L 831.863407 592.601724 
L 832.889236 596.01952 
L 833.915066 592.647765 
L 834.940895 592.941055 
L 835.966725 592.399338 
L 836.992554 595.246275 
L 838.018384 591.796782 
L 839.044214 596.220147 
L 840.070043 592.355276 
L 841.095873 595.386411 
L 842.121702 593.06848 
L 843.147532 595.459307 
L 844.173362 592.638173 
L 845.199191 596.073607 
L 846.225021 592.02944 
L 847.25085 597.014159 
L 848.27668 593.617421 
L 849.302509 596.304097 
L 850.328339 592.774515 
L 851.354169 597.827414 
L 852.379998 592.971446 
L 853.405828 597.226521 
L 854.431657 594.494479 
L 855.457487 596.286773 
L 856.483316 594.209533 
L 857.509146 597.36856 
L 858.534976 592.644699 
L 859.560805 598.809825 
L 860.586635 593.929668 
L 861.612464 596.136023 
L 862.638294 594.888378 
L 863.664124 596.696419 
L 864.689953 594.461706 
L 865.715783 597.84936 
L 866.741612 603.968413 
L 867.767442 597.973396 
L 868.793271 594.999471 
L 869.819101 598.118206 
L 870.844931 594.503097 
L 871.87076 597.980919 
L 872.89659 604.477085 
L 873.922419 597.366822 
L 874.948249 594.803366 
L 875.974078 599.369144 
L 876.999908 593.13652 
L 878.025738 598.388465 
L 879.051567 595.470477 
L 880.077397 598.620414 
L 881.103226 595.779064 
L 882.129056 599.04463 
L 883.154886 594.426739 
L 884.180715 599.302028 
L 885.206545 595.866969 
L 886.232374 598.576423 
L 887.258204 595.103745 
L 888.284033 598.563785 
L 889.309863 595.60722 
L 890.335693 598.772662 
L 891.361522 596.377442 
L 892.387352 598.379715 
L 893.413181 596.627023 
L 894.439011 599.369094 
L 895.464841 595.312852 
L 896.49067 596.781426 
L 897.5165 596.740805 
L 898.542329 599.195082 
L 899.568159 596.420146 
L 900.593988 599.679054 
L 901.619818 596.580709 
L 902.645648 600.226084 
L 903.671477 597.253747 
L 904.697307 600.928049 
L 905.723136 597.064148 
L 906.748966 599.800015 
L 907.774795 598.113488 
L 908.800625 600.862409 
L 909.826455 597.937332 
L 910.852284 600.352703 
L 911.878114 597.602112 
L 912.903943 600.2368 
L 913.929773 597.828649 
L 914.955603 600.367965 
L 915.981432 597.761769 
L 917.007262 600.256599 
L 918.033091 598.023802 
L 919.058921 600.408266 
L 920.08475 598.162755 
L 921.11058 600.718606 
L 922.13641 597.373118 
L 923.162239 600.923519 
L 924.188069 598.925323 
L 925.213898 601.08361 
L 926.239728 597.891361 
L 927.265557 601.434898 
L 928.291387 598.397211 
L 929.317217 601.294333 
L 930.343046 599.139605 
L 931.368876 601.847188 
L 932.394705 598.0507 
L 933.420535 601.94554 
L 934.446365 598.936248 
L 935.472194 601.995537 
L 936.498024 598.417078 
L 937.523853 602.014684 
L 938.549683 599.272429 
L 939.575512 600.358022 
L 940.601342 598.135972 
L 941.627172 602.026147 
L 942.653001 599.393936 
L 943.678831 601.540525 
L 944.70466 600.011973 
L 945.73049 601.467826 
L 946.75632 598.86075 
L 947.782149 602.742322 
L 948.807979 599.896337 
L 949.833808 602.249584 
L 950.859638 597.898693 
L 951.885467 602.133778 
L 952.911297 599.302276 
L 953.937127 602.069696 
L 954.962956 600.362672 
L 955.988786 603.117341 
L 957.014615 600.355489 
L 958.040445 602.76953 
L 959.066274 600.835897 
L 960.092104 600.835028 
L 961.117934 599.776773 
L 962.143763 603.418325 
L 963.169593 600.882464 
L 964.195422 602.986593 
L 965.221252 599.727131 
L 966.247082 602.239943 
L 967.272911 600.735616 
L 968.298741 602.992693 
L 969.32457 599.541335 
L 970.3504 603.406415 
L 971.376229 600.339259 
L 972.402059 602.683258 
L 973.427889 600.567591 
L 974.453718 615.6 
L 975.479548 601.791408 
L 976.505377 603.25072 
L 977.531207 601.91893 
L 978.557036 602.694333 
L 979.582866 601.760426 
L 980.608696 602.864306 
L 981.634525 602.46039 
L 982.660355 604.477693 
L 983.686184 601.693211 
L 984.712014 604.827678 
L 985.737844 600.1061 
L 986.763673 604.238115 
L 987.789503 600.684045 
L 988.815332 604.765405 
L 989.841162 600.430739 
L 990.866991 604.340576 
L 991.892821 601.726814 
L 992.918651 604.388811 
L 993.94448 601.51547 
L 994.97031 597.554739 
L 995.996139 590.575931 
L 997.021969 615.55314 
L 998.047799 602.020136 
L 999.073628 604.385901 
L 1000.099458 602.304123 
L 1001.125287 604.402457 
L 1002.151117 602.302171 
L 1003.176946 604.256208 
L 1004.202776 602.789135 
L 1005.228606 605.220723 
L 1006.254435 597.577256 
L 1007.280265 611.958686 
L 1008.306094 602.904917 
L 1009.331924 605.731423 
L 1010.357753 603.562246 
L 1011.383583 605.845263 
L 1012.409413 603.223249 
L 1013.435242 609.889054 
L 1014.461072 602.687982 
L 1015.486901 605.326746 
L 1016.512731 602.692811 
L 1017.538561 606.12183 
L 1018.56439 603.265307 
L 1019.59022 605.742468 
L 1020.616049 604.040429 
L 1021.641879 605.498967 
L 1022.667708 603.162593 
L 1023.693538 605.401845 
L 1024.719368 603.229894 
L 1025.745197 605.944861 
L 1026.771027 602.679763 
L 1027.796856 606.13522 
L 1028.822686 603.436483 
L 1029.848515 606.70606 
L 1030.874345 603.772737 
L 1031.900175 604.553253 
L 1032.926004 603.192929 
L 1033.951834 605.591152 
L 1034.977663 604.404934 
L 1036.003493 606.227591 
L 1037.029323 603.523564 
L 1038.055152 606.190248 
L 1039.080982 603.741673 
L 1040.106811 607.098721 
L 1041.132641 603.539991 
L 1042.15847 606.94483 
L 1043.1843 604.806066 
L 1044.21013 605.002669 
L 1045.235959 604.876629 
L 1046.261789 606.982161 
L 1047.287618 603.423939 
L 1048.313448 606.545471 
L 1049.339278 604.398405 
L 1050.365107 607.08587 
L 1051.390937 604.943171 
L 1052.416766 605.214665 
L 1053.442596 604.795251 
L 1054.468425 606.845182 
L 1055.494255 605.201606 
L 1056.520085 607.369839 
L 1057.545914 604.117676 
L 1058.571744 608.026219 
L 1059.597573 604.991086 
L 1060.623403 608.07601 
L 1061.649232 604.83732 
L 1062.675062 607.337097 
L 1063.700892 605.410443 
L 1064.726721 615.124706 
L 1065.752551 605.067011 
L 1066.77838 607.654163 
L 1067.80421 602.605512 
L 1068.83004 607.506355 
L 1069.855869 605.622764 
L 1070.881699 607.432344 
L 1071.907528 605.556791 
L 1072.933358 607.566816 
L 1073.959187 604.733049 
L 1074.985017 606.626807 
L 1076.010847 605.785557 
L 1077.036676 607.789302 
L 1078.062506 605.899037 
L 1079.088335 608.409138 
L 1080.114165 606.414192 
L 1081.139994 608.056538 
L 1082.165824 606.190772 
L 1083.191654 608.120075 
L 1084.217483 605.396225 
L 1085.243313 607.743025 
L 1086.269142 606.299894 
L 1087.294972 607.995506 
L 1088.320802 605.241676 
L 1089.346631 609.084439 
L 1090.372461 606.559039 
L 1091.39829 607.525653 
L 1092.42412 607.346137 
L 1093.449949 608.852193 
L 1094.475779 605.605158 
L 1095.501609 608.476796 
L 1096.527438 606.425067 
L 1097.553268 608.130858 
L 1098.579097 606.686022 
L 1099.604927 613.272258 
L 1100.630757 606.723408 
L 1101.656586 609.054216 
L 1102.682416 606.267664 
L 1103.708245 609.279972 
L 1104.734075 606.756202 
L 1105.759904 608.53833 
L 1106.785734 606.986235 
L 1107.811564 609.299986 
L 1108.837393 606.058244 
L 1109.863223 609.15804 
L 1110.889052 606.695005 
L 1111.914882 609.912314 
L 1112.940711 606.596395 
L 1113.966541 609.764293 
L 1114.992371 606.374644 
L 1116.0182 609.223858 
L 1117.04403 607.389579 
L 1118.069859 609.585841 
L 1119.095689 606.333689 
L 1120.121519 609.604784 
L 1121.147348 607.230976 
L 1122.173178 609.57007 
L 1123.199007 607.440172 
L 1124.224837 610.555654 
L 1125.250666 607.506397 
L 1126.276496 609.758316 
L 1127.302326 606.987772 
L 1128.328155 609.876614 
L 1129.353985 607.452911 
L 1130.379814 610.116353 
L 1131.405644 607.743673 
L 1132.431473 609.81575 
L 1133.457303 607.285509 
L 1134.483133 609.127405 
L 1135.508962 607.449982 
L 1136.534792 609.740949 
L 1137.560621 607.772854 
L 1138.586451 609.647535 
L 1139.612281 607.150233 
L 1140.63811 608.682549 
L 1141.66394 607.878095 
L 1142.689769 610.518477 
L 1143.715599 608.092163 
L 1144.741428 611.685502 
L 1145.767258 607.962101 
L 1146.793088 609.984258 
L 1147.818917 608.27082 
L 1148.844747 610.56748 
L 1149.870576 607.493387 
L 1150.896406 610.709066 
L 1151.922235 613.504502 
L 1152.948065 610.170336 
L 1153.973895 607.601752 
L 1154.999724 610.122409 
L 1156.025554 608.40089 
L 1157.051383 610.225661 
L 1158.077213 608.107627 
L 1159.103043 611.091834 
L 1160.128872 608.353812 
L 1161.154702 610.534525 
L 1162.180531 608.420049 
L 1163.206361 610.917403 
L 1164.23219 608.647779 
L 1165.25802 611.402044 
L 1166.28385 608.535839 
L 1167.309679 610.874936 
L 1168.335509 608.175549 
L 1169.361338 611.276396 
L 1170.387168 609.324469 
L 1171.412998 611.135409 
L 1172.438827 608.761637 
L 1173.464657 610.951429 
L 1174.490486 608.246009 
L 1175.516316 610.643909 
L 1176.542145 609.28103 
L 1177.567975 611.085294 
L 1178.593805 609.404417 
L 1179.619634 609.666848 
L 1180.645464 608.612204 
L 1181.671293 611.101789 
L 1182.697123 609.101027 
L 1183.722952 611.10677 
L 1184.748782 608.950554 
L 1185.774612 611.204457 
L 1186.800441 609.588898 
L 1187.826271 612.420345 
L 1188.8521 609.869102 
L 1189.87793 611.483136 
L 1190.90376 609.346107 
L 1191.929589 611.860523 
L 1192.955419 609.568354 
L 1193.981248 611.720644 
L 1195.007078 609.767838 
L 1196.032907 611.74708 
L 1197.058737 609.229052 
L 1198.084567 611.806137 
L 1199.110396 609.700763 
L 1200.136226 610.464048 
L 1201.162055 610.062159 
L 1202.187885 612.355607 
L 1203.213714 609.993166 
L 1204.239544 611.993509 
L 1205.265374 609.554361 
L 1206.291203 612.255769 
L 1207.317033 609.539232 
L 1208.342862 611.743426 
L 1209.368692 608.707706 
L 1210.394522 612.327438 
L 1211.420351 610.246445 
L 1212.446181 612.134868 
L 1213.47201 610.136995 
L 1214.49784 609.843566 
L 1215.523669 609.763921 
L 1216.549499 612.94315 
L 1217.575329 609.874975 
L 1218.601158 611.716205 
L 1219.626988 610.074718 
L 1220.652817 612.708278 
L 1221.678647 610.504343 
L 1222.704477 613.195761 
L 1223.730306 610.295925 
L 1224.756136 612.720161 
L 1225.781965 610.570267 
L 1226.807795 612.87496 
L 1227.833624 609.780443 
L 1228.859454 612.518111 
L 1229.885284 610.395998 
L 1230.911113 611.829363 
L 1231.936943 610.246084 
L 1232.962772 612.619642 
L 1233.988602 610.772367 
L 1235.014431 612.70651 
L 1236.040261 610.765704 
L 1237.066091 612.940932 
L 1238.09192 614.661945 
L 1240.143579 611.306931 
L 1241.169409 612.925038 
L 1242.195239 611.175938 
L 1243.221068 613.287579 
L 1244.246898 611.240581 
L 1245.272727 613.120263 
L 1245.272727 613.120263 
" style="fill:none;stroke:#ff7f0e;stroke-linecap:square;stroke-width:1.5;"/>
   </g>
   <g id="patch_3">
    <path d="M 180 640.8 
L 180 86.4 
" style="fill:none;stroke:#000000;stroke-linecap:square;stroke-linejoin:miter;stroke-width:0.8;"/>
   </g>
   <g id="patch_4">
    <path d="M 1296 640.8 
L 1296 86.4 
" style="fill:none;stroke:#000000;stroke-linecap:square;stroke-linejoin:miter;stroke-width:0.8;"/>
   </g>
   <g id="patch_5">
    <path d="M 180 640.8 
L 1296 640.8 
" style="fill:none;stroke:#000000;stroke-linecap:square;stroke-linejoin:miter;stroke-width:0.8;"/>
   </g>
   <g id="patch_6">
    <path d="M 180 86.4 
L 1296 86.4 
" style="fill:none;stroke:#000000;stroke-linecap:square;stroke-linejoin:miter;stroke-width:0.8;"/>
   </g>
   <g id="text_18">
    <!-- ROC Speedup -->
    <defs>
     <path d="M 44.390625 34.1875 
Q 47.5625 33.109375 50.5625 29.59375 
Q 53.5625 26.078125 56.59375 19.921875 
L 66.609375 0 
L 56 0 
L 46.6875 18.703125 
Q 43.0625 26.03125 39.671875 28.421875 
Q 36.28125 30.8125 30.421875 30.8125 
L 19.671875 30.8125 
L 19.671875 0 
L 9.8125 0 
L 9.8125 72.90625 
L 32.078125 72.90625 
Q 44.578125 72.90625 50.734375 67.671875 
Q 56.890625 62.453125 56.890625 51.90625 
Q 56.890625 45.015625 53.6875 40.46875 
Q 50.484375 35.9375 44.390625 34.1875 
z
M 19.671875 64.796875 
L 19.671875 38.921875 
L 32.078125 38.921875 
Q 39.203125 38.921875 42.84375 42.21875 
Q 46.484375 45.515625 46.484375 51.90625 
Q 46.484375 58.296875 42.84375 61.546875 
Q 39.203125 64.796875 32.078125 64.796875 
z
" id="DejaVuSans-82"/>
     <path d="M 39.40625 66.21875 
Q 28.65625 66.21875 22.328125 58.203125 
Q 16.015625 50.203125 16.015625 36.375 
Q 16.015625 22.609375 22.328125 14.59375 
Q 28.65625 6.59375 39.40625 6.59375 
Q 50.140625 6.59375 56.421875 14.59375 
Q 62.703125 22.609375 62.703125 36.375 
Q 62.703125 50.203125 56.421875 58.203125 
Q 50.140625 66.21875 39.40625 66.21875 
z
M 39.40625 74.21875 
Q 54.734375 74.21875 63.90625 63.9375 
Q 73.09375 53.65625 73.09375 36.375 
Q 73.09375 19.140625 63.90625 8.859375 
Q 54.734375 -1.421875 39.40625 -1.421875 
Q 24.03125 -1.421875 14.8125 8.828125 
Q 5.609375 19.09375 5.609375 36.375 
Q 5.609375 53.65625 14.8125 63.9375 
Q 24.03125 74.21875 39.40625 74.21875 
z
" id="DejaVuSans-79"/>
     <path d="M 64.40625 67.28125 
L 64.40625 56.890625 
Q 59.421875 61.53125 53.78125 63.8125 
Q 48.140625 66.109375 41.796875 66.109375 
Q 29.296875 66.109375 22.65625 58.46875 
Q 16.015625 50.828125 16.015625 36.375 
Q 16.015625 21.96875 22.65625 14.328125 
Q 29.296875 6.6875 41.796875 6.6875 
Q 48.140625 6.6875 53.78125 8.984375 
Q 59.421875 11.28125 64.40625 15.921875 
L 64.40625 5.609375 
Q 59.234375 2.09375 53.4375 0.328125 
Q 47.65625 -1.421875 41.21875 -1.421875 
Q 24.65625 -1.421875 15.125 8.703125 
Q 5.609375 18.84375 5.609375 36.375 
Q 5.609375 53.953125 15.125 64.078125 
Q 24.65625 74.21875 41.21875 74.21875 
Q 47.75 74.21875 53.53125 72.484375 
Q 59.328125 70.75 64.40625 67.28125 
z
" id="DejaVuSans-67"/>
     <path id="DejaVuSans-32"/>
     <path d="M 53.515625 70.515625 
L 53.515625 60.890625 
Q 47.90625 63.578125 42.921875 64.890625 
Q 37.9375 66.21875 33.296875 66.21875 
Q 25.25 66.21875 20.875 63.09375 
Q 16.5 59.96875 16.5 54.203125 
Q 16.5 49.359375 19.40625 46.890625 
Q 22.3125 44.4375 30.421875 42.921875 
L 36.375 41.703125 
Q 47.40625 39.59375 52.65625 34.296875 
Q 57.90625 29 57.90625 20.125 
Q 57.90625 9.515625 50.796875 4.046875 
Q 43.703125 -1.421875 29.984375 -1.421875 
Q 24.8125 -1.421875 18.96875 -0.25 
Q 13.140625 0.921875 6.890625 3.21875 
L 6.890625 13.375 
Q 12.890625 10.015625 18.65625 8.296875 
Q 24.421875 6.59375 29.984375 6.59375 
Q 38.421875 6.59375 43.015625 9.90625 
Q 47.609375 13.234375 47.609375 19.390625 
Q 47.609375 24.75 44.3125 27.78125 
Q 41.015625 30.8125 33.5 32.328125 
L 27.484375 33.5 
Q 16.453125 35.6875 11.515625 40.375 
Q 6.59375 45.0625 6.59375 53.421875 
Q 6.59375 63.09375 13.40625 68.65625 
Q 20.21875 74.21875 32.171875 74.21875 
Q 37.3125 74.21875 42.625 73.28125 
Q 47.953125 72.359375 53.515625 70.515625 
z
" id="DejaVuSans-83"/>
    </defs>
    <g transform="translate(696.58875 80.4)scale(0.12 -0.12)">
     <use xlink:href="#DejaVuSans-82"/>
     <use x="69.482422" xlink:href="#DejaVuSans-79"/>
     <use x="148.193359" xlink:href="#DejaVuSans-67"/>
     <use x="218.017578" xlink:href="#DejaVuSans-32"/>
     <use x="249.804688" xlink:href="#DejaVuSans-83"/>
     <use x="313.28125" xlink:href="#DejaVuSans-112"/>
     <use x="376.757812" xlink:href="#DejaVuSans-101"/>
     <use x="438.28125" xlink:href="#DejaVuSans-101"/>
     <use x="499.804688" xlink:href="#DejaVuSans-100"/>
     <use x="563.28125" xlink:href="#DejaVuSans-117"/>
     <use x="626.660156" xlink:href="#DejaVuSans-112"/>
    </g>
   </g>
   <g id="legend_1">
    <g id="patch_7">
     <path d="M 1185.373437 123.75625 
L 1289 123.75625 
Q 1291 123.75625 1291 121.75625 
L 1291 93.4 
Q 1291 91.4 1289 91.4 
L 1185.373437 91.4 
Q 1183.373437 91.4 1183.373437 93.4 
L 1183.373437 121.75625 
Q 1183.373437 123.75625 1185.373437 123.75625 
z
" style="fill:#ffffff;opacity:0.8;stroke:#cccccc;stroke-linejoin:miter;"/>
    </g>
    <g id="line2d_18">
     <path d="M 1187.373437 99.498437 
L 1207.373437 99.498437 
" style="fill:none;stroke:#1f77b4;stroke-linecap:square;stroke-width:1.5;"/>
    </g>
    <g id="line2d_19"/>
    <g id="text_19">
     <!-- numpy.float32 -->
     <defs>
      <path d="M 52 44.1875 
Q 55.375 50.25 60.0625 53.125 
Q 64.75 56 71.09375 56 
Q 79.640625 56 84.28125 50.015625 
Q 88.921875 44.046875 88.921875 33.015625 
L 88.921875 0 
L 79.890625 0 
L 79.890625 32.71875 
Q 79.890625 40.578125 77.09375 44.375 
Q 74.3125 48.1875 68.609375 48.1875 
Q 61.625 48.1875 57.5625 43.546875 
Q 53.515625 38.921875 53.515625 30.90625 
L 53.515625 0 
L 44.484375 0 
L 44.484375 32.71875 
Q 44.484375 40.625 41.703125 44.40625 
Q 38.921875 48.1875 33.109375 48.1875 
Q 26.21875 48.1875 22.15625 43.53125 
Q 18.109375 38.875 18.109375 30.90625 
L 18.109375 0 
L 9.078125 0 
L 9.078125 54.6875 
L 18.109375 54.6875 
L 18.109375 46.1875 
Q 21.1875 51.21875 25.484375 53.609375 
Q 29.78125 56 35.6875 56 
Q 41.65625 56 45.828125 52.96875 
Q 50 49.953125 52 44.1875 
z
" id="DejaVuSans-109"/>
      <path d="M 32.171875 -5.078125 
Q 28.375 -14.84375 24.75 -17.8125 
Q 21.140625 -20.796875 15.09375 -20.796875 
L 7.90625 -20.796875 
L 7.90625 -13.28125 
L 13.1875 -13.28125 
Q 16.890625 -13.28125 18.9375 -11.515625 
Q 21 -9.765625 23.484375 -3.21875 
L 25.09375 0.875 
L 2.984375 54.6875 
L 12.5 54.6875 
L 29.59375 11.921875 
L 46.6875 54.6875 
L 56.203125 54.6875 
z
" id="DejaVuSans-121"/>
      <path d="M 37.109375 75.984375 
L 37.109375 68.5 
L 28.515625 68.5 
Q 23.6875 68.5 21.796875 66.546875 
Q 19.921875 64.59375 19.921875 59.515625 
L 19.921875 54.6875 
L 34.71875 54.6875 
L 34.71875 47.703125 
L 19.921875 47.703125 
L 19.921875 0 
L 10.890625 0 
L 10.890625 47.703125 
L 2.296875 47.703125 
L 2.296875 54.6875 
L 10.890625 54.6875 
L 10.890625 58.5 
Q 10.890625 67.625 15.140625 71.796875 
Q 19.390625 75.984375 28.609375 75.984375 
z
" id="DejaVuSans-102"/>
      <path d="M 9.421875 75.984375 
L 18.40625 75.984375 
L 18.40625 0 
L 9.421875 0 
z
" id="DejaVuSans-108"/>
      <path d="M 30.609375 48.390625 
Q 23.390625 48.390625 19.1875 42.75 
Q 14.984375 37.109375 14.984375 27.296875 
Q 14.984375 17.484375 19.15625 11.84375 
Q 23.34375 6.203125 30.609375 6.203125 
Q 37.796875 6.203125 41.984375 11.859375 
Q 46.1875 17.53125 46.1875 27.296875 
Q 46.1875 37.015625 41.984375 42.703125 
Q 37.796875 48.390625 30.609375 48.390625 
z
M 30.609375 56 
Q 42.328125 56 49.015625 48.375 
Q 55.71875 40.765625 55.71875 27.296875 
Q 55.71875 13.875 49.015625 6.21875 
Q 42.328125 -1.421875 30.609375 -1.421875 
Q 18.84375 -1.421875 12.171875 6.21875 
Q 5.515625 13.875 5.515625 27.296875 
Q 5.515625 40.765625 12.171875 48.375 
Q 18.84375 56 30.609375 56 
z
" id="DejaVuSans-111"/>
      <path d="M 34.28125 27.484375 
Q 23.390625 27.484375 19.1875 25 
Q 14.984375 22.515625 14.984375 16.5 
Q 14.984375 11.71875 18.140625 8.90625 
Q 21.296875 6.109375 26.703125 6.109375 
Q 34.1875 6.109375 38.703125 11.40625 
Q 43.21875 16.703125 43.21875 25.484375 
L 43.21875 27.484375 
z
M 52.203125 31.203125 
L 52.203125 0 
L 43.21875 0 
L 43.21875 8.296875 
Q 40.140625 3.328125 35.546875 0.953125 
Q 30.953125 -1.421875 24.3125 -1.421875 
Q 15.921875 -1.421875 10.953125 3.296875 
Q 6 8.015625 6 15.921875 
Q 6 25.140625 12.171875 29.828125 
Q 18.359375 34.515625 30.609375 34.515625 
L 43.21875 34.515625 
L 43.21875 35.40625 
Q 43.21875 41.609375 39.140625 45 
Q 35.0625 48.390625 27.6875 48.390625 
Q 23 48.390625 18.546875 47.265625 
Q 14.109375 46.140625 10.015625 43.890625 
L 10.015625 52.203125 
Q 14.9375 54.109375 19.578125 55.046875 
Q 24.21875 56 28.609375 56 
Q 40.484375 56 46.34375 49.84375 
Q 52.203125 43.703125 52.203125 31.203125 
z
" id="DejaVuSans-97"/>
      <path d="M 18.3125 70.21875 
L 18.3125 54.6875 
L 36.8125 54.6875 
L 36.8125 47.703125 
L 18.3125 47.703125 
L 18.3125 18.015625 
Q 18.3125 11.328125 20.140625 9.421875 
Q 21.96875 7.515625 27.59375 7.515625 
L 36.8125 7.515625 
L 36.8125 0 
L 27.59375 0 
Q 17.1875 0 13.234375 3.875 
Q 9.28125 7.765625 9.28125 18.015625 
L 9.28125 47.703125 
L 2.6875 47.703125 
L 2.6875 54.6875 
L 9.28125 54.6875 
L 9.28125 70.21875 
z
" id="DejaVuSans-116"/>
     </defs>
     <g transform="translate(1215.373437 102.998437)scale(0.1 -0.1)">
      <use xlink:href="#DejaVuSans-110"/>
      <use x="63.378906" xlink:href="#DejaVuSans-117"/>
      <use x="126.757812" xlink:href="#DejaVuSans-109"/>
      <use x="224.169922" xlink:href="#DejaVuSans-112"/>
      <use x="287.646484" xlink:href="#DejaVuSans-121"/>
      <use x="332.576172" xlink:href="#DejaVuSans-46"/>
      <use x="364.363281" xlink:href="#DejaVuSans-102"/>
      <use x="399.568359" xlink:href="#DejaVuSans-108"/>
      <use x="427.351562" xlink:href="#DejaVuSans-111"/>
      <use x="488.533203" xlink:href="#DejaVuSans-97"/>
      <use x="549.8125" xlink:href="#DejaVuSans-116"/>
      <use x="589.021484" xlink:href="#DejaVuSans-51"/>
      <use x="652.644531" xlink:href="#DejaVuSans-50"/>
     </g>
    </g>
    <g id="line2d_20">
     <path d="M 1187.373437 114.176562 
L 1207.373437 114.176562 
" style="fill:none;stroke:#ff7f0e;stroke-linecap:square;stroke-width:1.5;"/>
    </g>
    <g id="line2d_21"/>
    <g id="text_20">
     <!-- numpy.float64 -->
     <g transform="translate(1215.373437 117.676562)scale(0.1 -0.1)">
      <use xlink:href="#DejaVuSans-110"/>
      <use x="63.378906" xlink:href="#DejaVuSans-117"/>
      <use x="126.757812" xlink:href="#DejaVuSans-109"/>
      <use x="224.169922" xlink:href="#DejaVuSans-112"/>
      <use x="287.646484" xlink:href="#DejaVuSans-121"/>
      <use x="332.576172" xlink:href="#DejaVuSans-46"/>
      <use x="364.363281" xlink:href="#DejaVuSans-102"/>
      <use x="399.568359" xlink:href="#DejaVuSans-108"/>
      <use x="427.351562" xlink:href="#DejaVuSans-111"/>
      <use x="488.533203" xlink:href="#DejaVuSans-97"/>
      <use x="549.8125" xlink:href="#DejaVuSans-116"/>
      <use x="589.021484" xlink:href="#DejaVuSans-54"/>
      <use x="652.644531" xlink:href="#DejaVuSans-52"/>
     </g>
    </g>
   </g>
  </g>
 </g>
 <defs>
  <clipPath id="peda30a1a85">
   <rect height="554.4" width="1116" x="180" y="86.4"/>
  </clipPath>
 </defs>
</svg>
