<?xml version="1.0" encoding="utf-8" standalone="no"?>
<!DOCTYPE svg PUBLIC "-//W3C//DTD SVG 1.1//EN"
  "http://www.w3.org/Graphics/SVG/1.1/DTD/svg11.dtd">
<!-- Created with matplotlib (https://matplotlib.org/) -->
<svg height="345.6pt" version="1.1" viewBox="0 0 460.8 345.6" width="460.8pt" xmlns="http://www.w3.org/2000/svg" xmlns:xlink="http://www.w3.org/1999/xlink">
 <defs>
  <style type="text/css">
*{stroke-linecap:butt;stroke-linejoin:round;}
  </style>
 </defs>
 <g id="figure_1">
  <g id="patch_1">
   <path d="M 0 345.6 
L 460.8 345.6 
L 460.8 0 
L 0 0 
z
" style="fill:#ffffff;"/>
  </g>
  <g id="axes_1">
   <g id="patch_2">
    <path d="M 57.6 307.584 
L 414.72 307.584 
L 414.72 41.472 
L 57.6 41.472 
z
" style="fill:#ffffff;"/>
   </g>
   <g id="matplotlib.axis_1">
    <g id="xtick_1">
     <g id="line2d_1">
      <defs>
       <path d="M 0 0 
L 0 3.5 
" id="m73f3685eff" style="stroke:#000000;stroke-width:0.8;"/>
      </defs>
      <g>
       <use style="stroke:#000000;stroke-width:0.8;" x="106.659274" xlink:href="#m73f3685eff" y="307.584"/>
      </g>
     </g>
     <g id="text_1">
      <!-- 100.0 -->
      <defs>
       <path d="M 12.40625 8.296875 
L 28.515625 8.296875 
L 28.515625 63.921875 
L 10.984375 60.40625 
L 10.984375 69.390625 
L 28.421875 72.90625 
L 38.28125 72.90625 
L 38.28125 8.296875 
L 54.390625 8.296875 
L 54.390625 0 
L 12.40625 0 
z
" id="DejaVuSans-49"/>
       <path d="M 31.78125 66.40625 
Q 24.171875 66.40625 20.328125 58.90625 
Q 16.5 51.421875 16.5 36.375 
Q 16.5 21.390625 20.328125 13.890625 
Q 24.171875 6.390625 31.78125 6.390625 
Q 39.453125 6.390625 43.28125 13.890625 
Q 47.125 21.390625 47.125 36.375 
Q 47.125 51.421875 43.28125 58.90625 
Q 39.453125 66.40625 31.78125 66.40625 
z
M 31.78125 74.21875 
Q 44.046875 74.21875 50.515625 64.515625 
Q 56.984375 54.828125 56.984375 36.375 
Q 56.984375 17.96875 50.515625 8.265625 
Q 44.046875 -1.421875 31.78125 -1.421875 
Q 19.53125 -1.421875 13.0625 8.265625 
Q 6.59375 17.96875 6.59375 36.375 
Q 6.59375 54.828125 13.0625 64.515625 
Q 19.53125 74.21875 31.78125 74.21875 
z
" id="DejaVuSans-48"/>
       <path d="M 10.6875 12.40625 
L 21 12.40625 
L 21 0 
L 10.6875 0 
z
" id="DejaVuSans-46"/>
      </defs>
      <g transform="translate(92.345211 322.182437)scale(0.1 -0.1)">
       <use xlink:href="#DejaVuSans-49"/>
       <use x="63.623047" xlink:href="#DejaVuSans-48"/>
       <use x="127.246094" xlink:href="#DejaVuSans-48"/>
       <use x="190.869141" xlink:href="#DejaVuSans-46"/>
       <use x="222.65625" xlink:href="#DejaVuSans-48"/>
      </g>
     </g>
    </g>
    <g id="xtick_2">
     <g id="line2d_2">
      <g>
       <use style="stroke:#000000;stroke-width:0.8;" x="139.48582" xlink:href="#m73f3685eff" y="307.584"/>
      </g>
     </g>
     <g id="text_2">
      <!-- 200.0 -->
      <defs>
       <path d="M 19.1875 8.296875 
L 53.609375 8.296875 
L 53.609375 0 
L 7.328125 0 
L 7.328125 8.296875 
Q 12.9375 14.109375 22.625 23.890625 
Q 32.328125 33.6875 34.8125 36.53125 
Q 39.546875 41.84375 41.421875 45.53125 
Q 43.3125 49.21875 43.3125 52.78125 
Q 43.3125 58.59375 39.234375 62.25 
Q 35.15625 65.921875 28.609375 65.921875 
Q 23.96875 65.921875 18.8125 64.3125 
Q 13.671875 62.703125 7.8125 59.421875 
L 7.8125 69.390625 
Q 13.765625 71.78125 18.9375 73 
Q 24.125 74.21875 28.421875 74.21875 
Q 39.75 74.21875 46.484375 68.546875 
Q 53.21875 62.890625 53.21875 53.421875 
Q 53.21875 48.921875 51.53125 44.890625 
Q 49.859375 40.875 45.40625 35.40625 
Q 44.1875 33.984375 37.640625 27.21875 
Q 31.109375 20.453125 19.1875 8.296875 
z
" id="DejaVuSans-50"/>
      </defs>
      <g transform="translate(125.171758 322.182437)scale(0.1 -0.1)">
       <use xlink:href="#DejaVuSans-50"/>
       <use x="63.623047" xlink:href="#DejaVuSans-48"/>
       <use x="127.246094" xlink:href="#DejaVuSans-48"/>
       <use x="190.869141" xlink:href="#DejaVuSans-46"/>
       <use x="222.65625" xlink:href="#DejaVuSans-48"/>
      </g>
     </g>
    </g>
    <g id="xtick_3">
     <g id="line2d_3">
      <g>
       <use style="stroke:#000000;stroke-width:0.8;" x="172.312367" xlink:href="#m73f3685eff" y="307.584"/>
      </g>
     </g>
     <g id="text_3">
      <!-- 300.0 -->
      <defs>
       <path d="M 40.578125 39.3125 
Q 47.65625 37.796875 51.625 33 
Q 55.609375 28.21875 55.609375 21.1875 
Q 55.609375 10.40625 48.1875 4.484375 
Q 40.765625 -1.421875 27.09375 -1.421875 
Q 22.515625 -1.421875 17.65625 -0.515625 
Q 12.796875 0.390625 7.625 2.203125 
L 7.625 11.71875 
Q 11.71875 9.328125 16.59375 8.109375 
Q 21.484375 6.890625 26.8125 6.890625 
Q 36.078125 6.890625 40.9375 10.546875 
Q 45.796875 14.203125 45.796875 21.1875 
Q 45.796875 27.640625 41.28125 31.265625 
Q 36.765625 34.90625 28.71875 34.90625 
L 20.21875 34.90625 
L 20.21875 43.015625 
L 29.109375 43.015625 
Q 36.375 43.015625 40.234375 45.921875 
Q 44.09375 48.828125 44.09375 54.296875 
Q 44.09375 59.90625 40.109375 62.90625 
Q 36.140625 65.921875 28.71875 65.921875 
Q 24.65625 65.921875 20.015625 65.03125 
Q 15.375 64.15625 9.8125 62.3125 
L 9.8125 71.09375 
Q 15.4375 72.65625 20.34375 73.4375 
Q 25.25 74.21875 29.59375 74.21875 
Q 40.828125 74.21875 47.359375 69.109375 
Q 53.90625 64.015625 53.90625 55.328125 
Q 53.90625 49.265625 50.4375 45.09375 
Q 46.96875 40.921875 40.578125 39.3125 
z
" id="DejaVuSans-51"/>
      </defs>
      <g transform="translate(157.998304 322.182437)scale(0.1 -0.1)">
       <use xlink:href="#DejaVuSans-51"/>
       <use x="63.623047" xlink:href="#DejaVuSans-48"/>
       <use x="127.246094" xlink:href="#DejaVuSans-48"/>
       <use x="190.869141" xlink:href="#DejaVuSans-46"/>
       <use x="222.65625" xlink:href="#DejaVuSans-48"/>
      </g>
     </g>
    </g>
    <g id="xtick_4">
     <g id="line2d_4">
      <g>
       <use style="stroke:#000000;stroke-width:0.8;" x="205.138914" xlink:href="#m73f3685eff" y="307.584"/>
      </g>
     </g>
     <g id="text_4">
      <!-- 400.0 -->
      <defs>
       <path d="M 37.796875 64.3125 
L 12.890625 25.390625 
L 37.796875 25.390625 
z
M 35.203125 72.90625 
L 47.609375 72.90625 
L 47.609375 25.390625 
L 58.015625 25.390625 
L 58.015625 17.1875 
L 47.609375 17.1875 
L 47.609375 0 
L 37.796875 0 
L 37.796875 17.1875 
L 4.890625 17.1875 
L 4.890625 26.703125 
z
" id="DejaVuSans-52"/>
      </defs>
      <g transform="translate(190.824851 322.182437)scale(0.1 -0.1)">
       <use xlink:href="#DejaVuSans-52"/>
       <use x="63.623047" xlink:href="#DejaVuSans-48"/>
       <use x="127.246094" xlink:href="#DejaVuSans-48"/>
       <use x="190.869141" xlink:href="#DejaVuSans-46"/>
       <use x="222.65625" xlink:href="#DejaVuSans-48"/>
      </g>
     </g>
    </g>
    <g id="xtick_5">
     <g id="line2d_5">
      <g>
       <use style="stroke:#000000;stroke-width:0.8;" x="237.96546" xlink:href="#m73f3685eff" y="307.584"/>
      </g>
     </g>
     <g id="text_5">
      <!-- 500.0 -->
      <defs>
       <path d="M 10.796875 72.90625 
L 49.515625 72.90625 
L 49.515625 64.59375 
L 19.828125 64.59375 
L 19.828125 46.734375 
Q 21.96875 47.46875 24.109375 47.828125 
Q 26.265625 48.1875 28.421875 48.1875 
Q 40.625 48.1875 47.75 41.5 
Q 54.890625 34.8125 54.890625 23.390625 
Q 54.890625 11.625 47.5625 5.09375 
Q 40.234375 -1.421875 26.90625 -1.421875 
Q 22.3125 -1.421875 17.546875 -0.640625 
Q 12.796875 0.140625 7.71875 1.703125 
L 7.71875 11.625 
Q 12.109375 9.234375 16.796875 8.0625 
Q 21.484375 6.890625 26.703125 6.890625 
Q 35.15625 6.890625 40.078125 11.328125 
Q 45.015625 15.765625 45.015625 23.390625 
Q 45.015625 31 40.078125 35.4375 
Q 35.15625 39.890625 26.703125 39.890625 
Q 22.75 39.890625 18.8125 39.015625 
Q 14.890625 38.140625 10.796875 36.28125 
z
" id="DejaVuSans-53"/>
      </defs>
      <g transform="translate(223.651398 322.182437)scale(0.1 -0.1)">
       <use xlink:href="#DejaVuSans-53"/>
       <use x="63.623047" xlink:href="#DejaVuSans-48"/>
       <use x="127.246094" xlink:href="#DejaVuSans-48"/>
       <use x="190.869141" xlink:href="#DejaVuSans-46"/>
       <use x="222.65625" xlink:href="#DejaVuSans-48"/>
      </g>
     </g>
    </g>
    <g id="xtick_6">
     <g id="line2d_6">
      <g>
       <use style="stroke:#000000;stroke-width:0.8;" x="270.792007" xlink:href="#m73f3685eff" y="307.584"/>
      </g>
     </g>
     <g id="text_6">
      <!-- 600.0 -->
      <defs>
       <path d="M 33.015625 40.375 
Q 26.375 40.375 22.484375 35.828125 
Q 18.609375 31.296875 18.609375 23.390625 
Q 18.609375 15.53125 22.484375 10.953125 
Q 26.375 6.390625 33.015625 6.390625 
Q 39.65625 6.390625 43.53125 10.953125 
Q 47.40625 15.53125 47.40625 23.390625 
Q 47.40625 31.296875 43.53125 35.828125 
Q 39.65625 40.375 33.015625 40.375 
z
M 52.59375 71.296875 
L 52.59375 62.3125 
Q 48.875 64.0625 45.09375 64.984375 
Q 41.3125 65.921875 37.59375 65.921875 
Q 27.828125 65.921875 22.671875 59.328125 
Q 17.53125 52.734375 16.796875 39.40625 
Q 19.671875 43.65625 24.015625 45.921875 
Q 28.375 48.1875 33.59375 48.1875 
Q 44.578125 48.1875 50.953125 41.515625 
Q 57.328125 34.859375 57.328125 23.390625 
Q 57.328125 12.15625 50.6875 5.359375 
Q 44.046875 -1.421875 33.015625 -1.421875 
Q 20.359375 -1.421875 13.671875 8.265625 
Q 6.984375 17.96875 6.984375 36.375 
Q 6.984375 53.65625 15.1875 63.9375 
Q 23.390625 74.21875 37.203125 74.21875 
Q 40.921875 74.21875 44.703125 73.484375 
Q 48.484375 72.75 52.59375 71.296875 
z
" id="DejaVuSans-54"/>
      </defs>
      <g transform="translate(256.477944 322.182437)scale(0.1 -0.1)">
       <use xlink:href="#DejaVuSans-54"/>
       <use x="63.623047" xlink:href="#DejaVuSans-48"/>
       <use x="127.246094" xlink:href="#DejaVuSans-48"/>
       <use x="190.869141" xlink:href="#DejaVuSans-46"/>
       <use x="222.65625" xlink:href="#DejaVuSans-48"/>
      </g>
     </g>
    </g>
    <g id="xtick_7">
     <g id="line2d_7">
      <g>
       <use style="stroke:#000000;stroke-width:0.8;" x="303.618553" xlink:href="#m73f3685eff" y="307.584"/>
      </g>
     </g>
     <g id="text_7">
      <!-- 700.0 -->
      <defs>
       <path d="M 8.203125 72.90625 
L 55.078125 72.90625 
L 55.078125 68.703125 
L 28.609375 0 
L 18.3125 0 
L 43.21875 64.59375 
L 8.203125 64.59375 
z
" id="DejaVuSans-55"/>
      </defs>
      <g transform="translate(289.304491 322.182437)scale(0.1 -0.1)">
       <use xlink:href="#DejaVuSans-55"/>
       <use x="63.623047" xlink:href="#DejaVuSans-48"/>
       <use x="127.246094" xlink:href="#DejaVuSans-48"/>
       <use x="190.869141" xlink:href="#DejaVuSans-46"/>
       <use x="222.65625" xlink:href="#DejaVuSans-48"/>
      </g>
     </g>
    </g>
    <g id="xtick_8">
     <g id="line2d_8">
      <g>
       <use style="stroke:#000000;stroke-width:0.8;" x="336.4451" xlink:href="#m73f3685eff" y="307.584"/>
      </g>
     </g>
     <g id="text_8">
      <!-- 800.0 -->
      <defs>
       <path d="M 31.78125 34.625 
Q 24.75 34.625 20.71875 30.859375 
Q 16.703125 27.09375 16.703125 20.515625 
Q 16.703125 13.921875 20.71875 10.15625 
Q 24.75 6.390625 31.78125 6.390625 
Q 38.8125 6.390625 42.859375 10.171875 
Q 46.921875 13.96875 46.921875 20.515625 
Q 46.921875 27.09375 42.890625 30.859375 
Q 38.875 34.625 31.78125 34.625 
z
M 21.921875 38.8125 
Q 15.578125 40.375 12.03125 44.71875 
Q 8.5 49.078125 8.5 55.328125 
Q 8.5 64.0625 14.71875 69.140625 
Q 20.953125 74.21875 31.78125 74.21875 
Q 42.671875 74.21875 48.875 69.140625 
Q 55.078125 64.0625 55.078125 55.328125 
Q 55.078125 49.078125 51.53125 44.71875 
Q 48 40.375 41.703125 38.8125 
Q 48.828125 37.15625 52.796875 32.3125 
Q 56.78125 27.484375 56.78125 20.515625 
Q 56.78125 9.90625 50.3125 4.234375 
Q 43.84375 -1.421875 31.78125 -1.421875 
Q 19.734375 -1.421875 13.25 4.234375 
Q 6.78125 9.90625 6.78125 20.515625 
Q 6.78125 27.484375 10.78125 32.3125 
Q 14.796875 37.15625 21.921875 38.8125 
z
M 18.3125 54.390625 
Q 18.3125 48.734375 21.84375 45.5625 
Q 25.390625 42.390625 31.78125 42.390625 
Q 38.140625 42.390625 41.71875 45.5625 
Q 45.3125 48.734375 45.3125 54.390625 
Q 45.3125 60.0625 41.71875 63.234375 
Q 38.140625 66.40625 31.78125 66.40625 
Q 25.390625 66.40625 21.84375 63.234375 
Q 18.3125 60.0625 18.3125 54.390625 
z
" id="DejaVuSans-56"/>
      </defs>
      <g transform="translate(322.131037 322.182437)scale(0.1 -0.1)">
       <use xlink:href="#DejaVuSans-56"/>
       <use x="63.623047" xlink:href="#DejaVuSans-48"/>
       <use x="127.246094" xlink:href="#DejaVuSans-48"/>
       <use x="190.869141" xlink:href="#DejaVuSans-46"/>
       <use x="222.65625" xlink:href="#DejaVuSans-48"/>
      </g>
     </g>
    </g>
    <g id="xtick_9">
     <g id="line2d_9">
      <g>
       <use style="stroke:#000000;stroke-width:0.8;" x="369.271646" xlink:href="#m73f3685eff" y="307.584"/>
      </g>
     </g>
     <g id="text_9">
      <!-- 900.0 -->
      <defs>
       <path d="M 10.984375 1.515625 
L 10.984375 10.5 
Q 14.703125 8.734375 18.5 7.8125 
Q 22.3125 6.890625 25.984375 6.890625 
Q 35.75 6.890625 40.890625 13.453125 
Q 46.046875 20.015625 46.78125 33.40625 
Q 43.953125 29.203125 39.59375 26.953125 
Q 35.25 24.703125 29.984375 24.703125 
Q 19.046875 24.703125 12.671875 31.3125 
Q 6.296875 37.9375 6.296875 49.421875 
Q 6.296875 60.640625 12.9375 67.421875 
Q 19.578125 74.21875 30.609375 74.21875 
Q 43.265625 74.21875 49.921875 64.515625 
Q 56.59375 54.828125 56.59375 36.375 
Q 56.59375 19.140625 48.40625 8.859375 
Q 40.234375 -1.421875 26.421875 -1.421875 
Q 22.703125 -1.421875 18.890625 -0.6875 
Q 15.09375 0.046875 10.984375 1.515625 
z
M 30.609375 32.421875 
Q 37.25 32.421875 41.125 36.953125 
Q 45.015625 41.5 45.015625 49.421875 
Q 45.015625 57.28125 41.125 61.84375 
Q 37.25 66.40625 30.609375 66.40625 
Q 23.96875 66.40625 20.09375 61.84375 
Q 16.21875 57.28125 16.21875 49.421875 
Q 16.21875 41.5 20.09375 36.953125 
Q 23.96875 32.421875 30.609375 32.421875 
z
" id="DejaVuSans-57"/>
      </defs>
      <g transform="translate(354.957584 322.182437)scale(0.1 -0.1)">
       <use xlink:href="#DejaVuSans-57"/>
       <use x="63.623047" xlink:href="#DejaVuSans-48"/>
       <use x="127.246094" xlink:href="#DejaVuSans-48"/>
       <use x="190.869141" xlink:href="#DejaVuSans-46"/>
       <use x="222.65625" xlink:href="#DejaVuSans-48"/>
      </g>
     </g>
    </g>
    <g id="xtick_10">
     <g id="line2d_10">
      <g>
       <use style="stroke:#000000;stroke-width:0.8;" x="402.098193" xlink:href="#m73f3685eff" y="307.584"/>
      </g>
     </g>
     <g id="text_10">
      <!-- 1000.0 -->
      <g transform="translate(384.60288 322.182437)scale(0.1 -0.1)">
       <use xlink:href="#DejaVuSans-49"/>
       <use x="63.623047" xlink:href="#DejaVuSans-48"/>
       <use x="127.246094" xlink:href="#DejaVuSans-48"/>
       <use x="190.869141" xlink:href="#DejaVuSans-48"/>
       <use x="254.492188" xlink:href="#DejaVuSans-46"/>
       <use x="286.279297" xlink:href="#DejaVuSans-48"/>
      </g>
     </g>
    </g>
    <g id="text_11">
     <!-- n -->
     <defs>
      <path d="M 54.890625 33.015625 
L 54.890625 0 
L 45.90625 0 
L 45.90625 32.71875 
Q 45.90625 40.484375 42.875 44.328125 
Q 39.84375 48.1875 33.796875 48.1875 
Q 26.515625 48.1875 22.3125 43.546875 
Q 18.109375 38.921875 18.109375 30.90625 
L 18.109375 0 
L 9.078125 0 
L 9.078125 54.6875 
L 18.109375 54.6875 
L 18.109375 46.1875 
Q 21.34375 51.125 25.703125 53.5625 
Q 30.078125 56 35.796875 56 
Q 45.21875 56 50.046875 50.171875 
Q 54.890625 44.34375 54.890625 33.015625 
z
" id="DejaVuSans-110"/>
     </defs>
     <g transform="translate(232.99125 335.860562)scale(0.1 -0.1)">
      <use xlink:href="#DejaVuSans-110"/>
     </g>
    </g>
   </g>
   <g id="matplotlib.axis_2">
    <g id="ytick_1">
     <g id="line2d_11">
      <defs>
       <path d="M 0 0 
L -3.5 0 
" id="m48c297a09b" style="stroke:#000000;stroke-width:0.8;"/>
      </defs>
      <g>
       <use style="stroke:#000000;stroke-width:0.8;" x="57.6" xlink:href="#m48c297a09b" y="307.191754"/>
      </g>
     </g>
     <g id="text_12">
      <!-- 0 -->
      <g transform="translate(44.2375 310.990973)scale(0.1 -0.1)">
       <use xlink:href="#DejaVuSans-48"/>
      </g>
     </g>
    </g>
    <g id="ytick_2">
     <g id="line2d_12">
      <g>
       <use style="stroke:#000000;stroke-width:0.8;" x="57.6" xlink:href="#m48c297a09b" y="263.280681"/>
      </g>
     </g>
     <g id="text_13">
      <!-- 50 -->
      <g transform="translate(37.875 267.0799)scale(0.1 -0.1)">
       <use xlink:href="#DejaVuSans-53"/>
       <use x="63.623047" xlink:href="#DejaVuSans-48"/>
      </g>
     </g>
    </g>
    <g id="ytick_3">
     <g id="line2d_13">
      <g>
       <use style="stroke:#000000;stroke-width:0.8;" x="57.6" xlink:href="#m48c297a09b" y="219.369609"/>
      </g>
     </g>
     <g id="text_14">
      <!-- 100 -->
      <g transform="translate(31.5125 223.168827)scale(0.1 -0.1)">
       <use xlink:href="#DejaVuSans-49"/>
       <use x="63.623047" xlink:href="#DejaVuSans-48"/>
       <use x="127.246094" xlink:href="#DejaVuSans-48"/>
      </g>
     </g>
    </g>
    <g id="ytick_4">
     <g id="line2d_14">
      <g>
       <use style="stroke:#000000;stroke-width:0.8;" x="57.6" xlink:href="#m48c297a09b" y="175.458536"/>
      </g>
     </g>
     <g id="text_15">
      <!-- 150 -->
      <g transform="translate(31.5125 179.257754)scale(0.1 -0.1)">
       <use xlink:href="#DejaVuSans-49"/>
       <use x="63.623047" xlink:href="#DejaVuSans-53"/>
       <use x="127.246094" xlink:href="#DejaVuSans-48"/>
      </g>
     </g>
    </g>
    <g id="ytick_5">
     <g id="line2d_15">
      <g>
       <use style="stroke:#000000;stroke-width:0.8;" x="57.6" xlink:href="#m48c297a09b" y="131.547463"/>
      </g>
     </g>
     <g id="text_16">
      <!-- 200 -->
      <g transform="translate(31.5125 135.346682)scale(0.1 -0.1)">
       <use xlink:href="#DejaVuSans-50"/>
       <use x="63.623047" xlink:href="#DejaVuSans-48"/>
       <use x="127.246094" xlink:href="#DejaVuSans-48"/>
      </g>
     </g>
    </g>
    <g id="ytick_6">
     <g id="line2d_16">
      <g>
       <use style="stroke:#000000;stroke-width:0.8;" x="57.6" xlink:href="#m48c297a09b" y="87.63639"/>
      </g>
     </g>
     <g id="text_17">
      <!-- 250 -->
      <g transform="translate(31.5125 91.435609)scale(0.1 -0.1)">
       <use xlink:href="#DejaVuSans-50"/>
       <use x="63.623047" xlink:href="#DejaVuSans-53"/>
       <use x="127.246094" xlink:href="#DejaVuSans-48"/>
      </g>
     </g>
    </g>
    <g id="ytick_7">
     <g id="line2d_17">
      <g>
       <use style="stroke:#000000;stroke-width:0.8;" x="57.6" xlink:href="#m48c297a09b" y="43.725317"/>
      </g>
     </g>
     <g id="text_18">
      <!-- 300 -->
      <g transform="translate(31.5125 47.524536)scale(0.1 -0.1)">
       <use xlink:href="#DejaVuSans-51"/>
       <use x="63.623047" xlink:href="#DejaVuSans-48"/>
       <use x="127.246094" xlink:href="#DejaVuSans-48"/>
      </g>
     </g>
    </g>
    <g id="text_19">
     <!-- speedup -->
     <defs>
      <path d="M 44.28125 53.078125 
L 44.28125 44.578125 
Q 40.484375 46.53125 36.375 47.5 
Q 32.28125 48.484375 27.875 48.484375 
Q 21.1875 48.484375 17.84375 46.4375 
Q 14.5 44.390625 14.5 40.28125 
Q 14.5 37.15625 16.890625 35.375 
Q 19.28125 33.59375 26.515625 31.984375 
L 29.59375 31.296875 
Q 39.15625 29.25 43.1875 25.515625 
Q 47.21875 21.78125 47.21875 15.09375 
Q 47.21875 7.46875 41.1875 3.015625 
Q 35.15625 -1.421875 24.609375 -1.421875 
Q 20.21875 -1.421875 15.453125 -0.5625 
Q 10.6875 0.296875 5.421875 2 
L 5.421875 11.28125 
Q 10.40625 8.6875 15.234375 7.390625 
Q 20.0625 6.109375 24.8125 6.109375 
Q 31.15625 6.109375 34.5625 8.28125 
Q 37.984375 10.453125 37.984375 14.40625 
Q 37.984375 18.0625 35.515625 20.015625 
Q 33.0625 21.96875 24.703125 23.78125 
L 21.578125 24.515625 
Q 13.234375 26.265625 9.515625 29.90625 
Q 5.8125 33.546875 5.8125 39.890625 
Q 5.8125 47.609375 11.28125 51.796875 
Q 16.75 56 26.8125 56 
Q 31.78125 56 36.171875 55.265625 
Q 40.578125 54.546875 44.28125 53.078125 
z
" id="DejaVuSans-115"/>
      <path d="M 18.109375 8.203125 
L 18.109375 -20.796875 
L 9.078125 -20.796875 
L 9.078125 54.6875 
L 18.109375 54.6875 
L 18.109375 46.390625 
Q 20.953125 51.265625 25.265625 53.625 
Q 29.59375 56 35.59375 56 
Q 45.5625 56 51.78125 48.09375 
Q 58.015625 40.1875 58.015625 27.296875 
Q 58.015625 14.40625 51.78125 6.484375 
Q 45.5625 -1.421875 35.59375 -1.421875 
Q 29.59375 -1.421875 25.265625 0.953125 
Q 20.953125 3.328125 18.109375 8.203125 
z
M 48.6875 27.296875 
Q 48.6875 37.203125 44.609375 42.84375 
Q 40.53125 48.484375 33.40625 48.484375 
Q 26.265625 48.484375 22.1875 42.84375 
Q 18.109375 37.203125 18.109375 27.296875 
Q 18.109375 17.390625 22.1875 11.75 
Q 26.265625 6.109375 33.40625 6.109375 
Q 40.53125 6.109375 44.609375 11.75 
Q 48.6875 17.390625 48.6875 27.296875 
z
" id="DejaVuSans-112"/>
      <path d="M 56.203125 29.59375 
L 56.203125 25.203125 
L 14.890625 25.203125 
Q 15.484375 15.921875 20.484375 11.0625 
Q 25.484375 6.203125 34.421875 6.203125 
Q 39.59375 6.203125 44.453125 7.46875 
Q 49.3125 8.734375 54.109375 11.28125 
L 54.109375 2.78125 
Q 49.265625 0.734375 44.1875 -0.34375 
Q 39.109375 -1.421875 33.890625 -1.421875 
Q 20.796875 -1.421875 13.15625 6.1875 
Q 5.515625 13.8125 5.515625 26.8125 
Q 5.515625 40.234375 12.765625 48.109375 
Q 20.015625 56 32.328125 56 
Q 43.359375 56 49.78125 48.890625 
Q 56.203125 41.796875 56.203125 29.59375 
z
M 47.21875 32.234375 
Q 47.125 39.59375 43.09375 43.984375 
Q 39.0625 48.390625 32.421875 48.390625 
Q 24.90625 48.390625 20.390625 44.140625 
Q 15.875 39.890625 15.1875 32.171875 
z
" id="DejaVuSans-101"/>
      <path d="M 45.40625 46.390625 
L 45.40625 75.984375 
L 54.390625 75.984375 
L 54.390625 0 
L 45.40625 0 
L 45.40625 8.203125 
Q 42.578125 3.328125 38.25 0.953125 
Q 33.9375 -1.421875 27.875 -1.421875 
Q 17.96875 -1.421875 11.734375 6.484375 
Q 5.515625 14.40625 5.515625 27.296875 
Q 5.515625 40.1875 11.734375 48.09375 
Q 17.96875 56 27.875 56 
Q 33.9375 56 38.25 53.625 
Q 42.578125 51.265625 45.40625 46.390625 
z
M 14.796875 27.296875 
Q 14.796875 17.390625 18.875 11.75 
Q 22.953125 6.109375 30.078125 6.109375 
Q 37.203125 6.109375 41.296875 11.75 
Q 45.40625 17.390625 45.40625 27.296875 
Q 45.40625 37.203125 41.296875 42.84375 
Q 37.203125 48.484375 30.078125 48.484375 
Q 22.953125 48.484375 18.875 42.84375 
Q 14.796875 37.203125 14.796875 27.296875 
z
" id="DejaVuSans-100"/>
      <path d="M 8.5 21.578125 
L 8.5 54.6875 
L 17.484375 54.6875 
L 17.484375 21.921875 
Q 17.484375 14.15625 20.5 10.265625 
Q 23.53125 6.390625 29.59375 6.390625 
Q 36.859375 6.390625 41.078125 11.03125 
Q 45.3125 15.671875 45.3125 23.6875 
L 45.3125 54.6875 
L 54.296875 54.6875 
L 54.296875 0 
L 45.3125 0 
L 45.3125 8.40625 
Q 42.046875 3.421875 37.71875 1 
Q 33.40625 -1.421875 27.6875 -1.421875 
Q 18.265625 -1.421875 13.375 4.4375 
Q 8.5 10.296875 8.5 21.578125 
z
M 31.109375 56 
z
" id="DejaVuSans-117"/>
     </defs>
     <g transform="translate(25.432812 195.977219)rotate(-90)scale(0.1 -0.1)">
      <use xlink:href="#DejaVuSans-115"/>
      <use x="52.099609" xlink:href="#DejaVuSans-112"/>
      <use x="115.576172" xlink:href="#DejaVuSans-101"/>
      <use x="177.099609" xlink:href="#DejaVuSans-101"/>
      <use x="238.623047" xlink:href="#DejaVuSans-100"/>
      <use x="302.099609" xlink:href="#DejaVuSans-117"/>
      <use x="365.478516" xlink:href="#DejaVuSans-112"/>
     </g>
    </g>
   </g>
   <g id="line2d_18">
    <path clip-path="url(#p6ff5543cbe)" d="M 73.832727 151.427825 
L 74.160993 203.732626 
L 74.489258 87.757526 
L 74.817524 210.827195 
L 75.145789 85.009849 
L 75.474055 212.689177 
L 75.80232 211.06473 
L 76.130586 68.390341 
L 76.458851 230.188983 
L 76.787116 220.077306 
L 77.115382 82.535774 
L 77.443647 213.834506 
L 77.771913 116.820514 
L 78.100178 209.043584 
L 78.428444 212.269063 
L 78.756709 104.721501 
L 79.084975 105.79078 
L 79.41324 107.303886 
L 79.741506 119.40561 
L 80.069771 115.159755 
L 80.398037 120.675479 
L 80.726302 120.43665 
L 81.054568 118.871387 
L 81.382833 119.374089 
L 81.711098 135.778956 
L 82.039364 130.519965 
L 82.367629 98.676468 
L 82.695895 128.767876 
L 83.02416 137.315197 
L 83.352426 130.649713 
L 83.680691 133.78849 
L 84.008957 132.459477 
L 84.337222 111.066971 
L 84.665488 144.278105 
L 84.993753 134.028572 
L 85.322019 134.886577 
L 85.650284 138.547675 
L 85.978549 146.758989 
L 86.306815 136.984782 
L 86.963346 147.847129 
L 87.291611 144.469557 
L 87.619877 145.871901 
L 87.948142 141.35753 
L 88.604673 162.867387 
L 88.932939 147.385702 
L 89.261204 145.048247 
L 89.58947 154.386095 
L 89.917735 154.825634 
L 90.246001 148.441353 
L 90.574266 144.688681 
L 90.902531 156.065492 
L 91.230797 157.627443 
L 91.559062 149.604858 
L 91.887328 149.989092 
L 92.215593 153.14588 
L 92.543859 151.624116 
L 93.20039 156.603152 
L 93.528655 151.297662 
L 93.856921 148.372655 
L 94.185186 157.360617 
L 94.513452 156.292654 
L 94.841717 154.61774 
L 95.169983 158.44943 
L 95.826513 161.680965 
L 96.154779 158.295078 
L 96.483044 158.308515 
L 96.81131 171.039496 
L 97.139575 171.740012 
L 97.467841 163.909963 
L 97.796106 166.84743 
L 98.124372 171.472312 
L 98.452637 172.345747 
L 98.780903 164.109911 
L 99.109168 165.375108 
L 99.437434 172.326959 
L 99.765699 174.187251 
L 100.093965 166.816893 
L 100.42223 105.266069 
L 100.750495 172.024405 
L 101.078761 178.065876 
L 101.407026 181.036144 
L 101.735292 172.875755 
L 102.063557 180.456603 
L 102.391823 181.881973 
L 102.720088 165.493475 
L 103.376619 176.657476 
L 103.704885 176.034083 
L 104.03315 174.536015 
L 104.361416 182.374853 
L 104.689681 178.249524 
L 105.017947 168.320327 
L 105.346212 179.270856 
L 105.674477 183.377487 
L 106.002743 173.746507 
L 106.331008 175.673717 
L 106.659274 186.725478 
L 106.987539 184.722193 
L 107.315805 184.167046 
L 107.64407 184.163516 
L 108.300601 185.137198 
L 108.628867 183.663185 
L 108.957132 184.542535 
L 109.285398 188.793852 
L 109.613663 190.324926 
L 109.941928 186.545429 
L 110.270194 188.91631 
L 110.598459 190.450885 
L 111.25499 189.027121 
L 111.583256 178.38485 
L 111.911521 193.519633 
L 112.239787 198.218564 
L 112.568052 183.835751 
L 112.896318 177.621399 
L 113.224583 198.51167 
L 113.552849 195.552872 
L 113.881114 194.078701 
L 114.20938 213.778898 
L 114.86591 200.691437 
L 115.194176 180.943475 
L 115.522441 202.865456 
L 115.850707 190.90081 
L 116.178972 193.922159 
L 116.507238 185.641282 
L 116.835503 201.441107 
L 117.163769 194.322827 
L 117.492034 196.714626 
L 117.8203 202.32275 
L 118.148565 203.252329 
L 118.476831 184.6611 
L 118.805096 197.156465 
L 119.133362 201.67103 
L 119.461627 187.893913 
L 119.789892 189.69833 
L 120.118158 200.381293 
L 120.446423 198.325423 
L 120.774689 203.734719 
L 121.102954 200.877396 
L 121.43122 203.303714 
L 121.759485 207.216541 
L 122.087751 206.917645 
L 122.416016 201.170835 
L 122.744282 202.362333 
L 123.072547 202.90454 
L 123.400813 203.8816 
L 123.729078 196.916549 
L 124.057344 203.374242 
L 124.385609 207.446377 
L 124.713874 202.700222 
L 125.04214 203.861321 
L 125.370405 199.685424 
L 125.698671 210.801954 
L 126.026936 199.832026 
L 126.355202 207.011826 
L 126.683467 206.548672 
L 127.339998 208.941918 
L 127.668264 199.834676 
L 127.996529 208.418999 
L 128.324795 213.978557 
L 128.65306 205.997642 
L 128.981325 209.325124 
L 129.309591 192.907452 
L 129.637856 215.186439 
L 129.966122 202.144606 
L 130.294387 208.813057 
L 130.622653 206.809076 
L 130.950918 174.198216 
L 131.279184 203.763005 
L 131.607449 211.450088 
L 131.935715 205.554268 
L 132.26398 217.661193 
L 132.592246 217.619387 
L 132.920511 214.924229 
L 133.248777 213.819405 
L 133.577042 206.127826 
L 133.905307 219.145712 
L 134.233573 214.252044 
L 134.561838 214.071656 
L 134.890104 219.517314 
L 135.218369 218.636992 
L 135.546635 201.5307 
L 135.8749 212.833105 
L 136.203166 207.748377 
L 136.531431 212.335679 
L 136.859697 199.686409 
L 137.187962 214.033223 
L 137.844493 220.836864 
L 138.172759 221.123114 
L 138.829289 219.925071 
L 139.157555 221.613634 
L 139.48582 218.759563 
L 139.814086 222.845246 
L 140.142351 216.083686 
L 140.470617 221.319678 
L 140.798882 222.646454 
L 141.455413 223.931299 
L 141.783679 212.521715 
L 142.111944 212.560186 
L 142.44021 216.060163 
L 142.768475 209.990562 
L 143.096741 212.777692 
L 143.425006 212.975311 
L 143.753271 223.610962 
L 144.081537 212.887504 
L 144.409802 225.348224 
L 144.738068 216.852587 
L 145.066333 221.477561 
L 145.394599 212.264046 
L 145.722864 226.033112 
L 146.05113 209.457157 
L 146.379395 214.647303 
L 146.707661 212.633033 
L 147.035926 227.711862 
L 147.364192 215.31714 
L 147.692457 227.755073 
L 148.020722 228.15105 
L 148.348988 226.739016 
L 148.677253 228.543716 
L 149.005519 228.959429 
L 149.333784 218.633856 
L 149.66205 221.213875 
L 149.990315 215.553592 
L 150.318581 228.596709 
L 150.646846 228.436715 
L 150.975112 225.385667 
L 151.303377 228.857095 
L 151.631643 226.247047 
L 151.959908 230.473778 
L 152.616439 220.424938 
L 152.944704 220.427646 
L 153.27297 232.973264 
L 153.601235 220.257556 
L 153.929501 222.532046 
L 154.257766 231.871506 
L 154.586032 229.766453 
L 154.914297 231.546713 
L 155.242563 221.942767 
L 155.570828 224.621198 
L 155.899094 234.898915 
L 156.227359 222.579798 
L 156.555625 224.552507 
L 156.88389 228.965664 
L 157.212156 236.918746 
L 157.540421 224.551014 
L 157.868686 222.812693 
L 158.196952 223.931942 
L 158.525217 232.992709 
L 158.853483 235.085638 
L 159.181748 232.325189 
L 159.510014 234.657246 
L 159.838279 235.847184 
L 160.166545 229.792558 
L 160.49481 236.119502 
L 160.823076 232.935973 
L 161.151341 234.848948 
L 161.479607 233.526282 
L 161.807872 235.027991 
L 162.136138 225.951292 
L 162.464403 236.183036 
L 162.792668 233.941275 
L 163.120934 225.539221 
L 163.449199 236.432045 
L 163.777465 231.538128 
L 164.10573 236.781369 
L 164.762261 234.07295 
L 165.090527 228.211584 
L 165.418792 238.166134 
L 165.747058 229.612444 
L 166.075323 228.989738 
L 166.403589 237.51358 
L 166.731854 228.891041 
L 167.060119 239.445719 
L 167.388385 239.960672 
L 167.71665 239.40788 
L 168.044916 228.586557 
L 168.373181 238.441198 
L 168.701447 240.255896 
L 169.029712 240.741192 
L 169.357978 231.906797 
L 169.686243 232.656975 
L 170.014509 236.259015 
L 170.342774 231.197387 
L 170.67104 237.210854 
L 170.999305 231.82081 
L 171.655836 244.86988 
L 171.984101 232.67617 
L 172.312367 234.663677 
L 172.640632 240.264968 
L 172.968898 230.973949 
L 173.297163 233.3639 
L 173.625429 241.527654 
L 174.28196 239.185357 
L 174.610225 243.277518 
L 174.938491 232.761058 
L 175.266756 240.42853 
L 175.595022 239.746733 
L 175.923287 233.251891 
L 176.251553 239.973511 
L 176.579818 238.991892 
L 176.908083 241.476553 
L 177.236349 233.496177 
L 177.564614 231.898495 
L 177.89288 240.464747 
L 178.549411 244.398129 
L 178.877676 235.412938 
L 179.205942 233.563255 
L 179.534207 233.252992 
L 179.862473 235.43484 
L 180.190738 233.438873 
L 180.519004 235.104988 
L 180.847269 240.149541 
L 181.175535 240.310914 
L 181.5038 235.061607 
L 181.832065 236.416147 
L 182.160331 235.397856 
L 182.488596 235.400771 
L 182.816862 234.339357 
L 183.145127 240.904205 
L 183.473393 241.5854 
L 183.801658 235.762082 
L 184.129924 239.669304 
L 184.458189 234.810212 
L 185.11472 237.35735 
L 185.442986 243.515381 
L 185.771251 236.676127 
L 186.099516 246.039469 
L 186.427782 238.012873 
L 186.756047 240.833502 
L 187.084313 237.185203 
L 187.412578 239.492853 
L 187.740844 240.03431 
L 188.069109 246.791328 
L 188.72564 243.720123 
L 189.053906 249.516895 
L 189.382171 239.553699 
L 189.710437 250.162907 
L 190.038702 240.980253 
L 190.366968 241.266643 
L 190.695233 240.327461 
L 191.023498 242.673482 
L 191.351764 241.023681 
L 191.680029 235.553497 
L 192.008295 243.921868 
L 192.33656 238.010976 
L 192.664826 242.299394 
L 192.993091 243.63114 
L 193.321357 243.577533 
L 193.649622 240.698939 
L 193.977888 240.837628 
L 194.306153 242.165966 
L 194.634419 212.013635 
L 194.962684 243.36051 
L 195.29095 236.675883 
L 195.619215 237.300242 
L 195.94748 242.360466 
L 196.275746 241.730678 
L 196.604011 246.420815 
L 196.932277 239.737493 
L 197.260542 242.946581 
L 197.588808 243.035228 
L 197.917073 245.734634 
L 198.245339 238.982527 
L 198.573604 245.35865 
L 198.90187 243.50491 
L 199.230135 238.779759 
L 199.558401 239.560294 
L 199.886666 243.072246 
L 200.214932 243.929199 
L 200.543197 239.278581 
L 200.871462 243.177711 
L 201.199728 243.234581 
L 201.527993 243.170785 
L 201.856259 239.451832 
L 202.184524 240.5972 
L 202.51279 244.008705 
L 202.841055 244.414048 
L 203.169321 239.57393 
L 203.497586 246.462099 
L 203.825852 244.44194 
L 204.154117 249.464385 
L 204.810648 241.870041 
L 205.467179 249.458218 
L 205.795444 248.24346 
L 206.12371 242.822617 
L 206.780241 249.206631 
L 207.108506 242.75033 
L 208.093303 248.057227 
L 208.421568 244.891799 
L 208.749834 244.522026 
L 209.078099 251.966776 
L 209.406365 248.868588 
L 209.73463 243.632543 
L 210.062895 246.20443 
L 210.719426 249.49631 
L 211.047692 243.946555 
L 211.375957 247.120831 
L 211.704223 247.527122 
L 212.032488 258.036377 
L 212.360754 245.60284 
L 212.689019 268.495554 
L 213.017285 248.606907 
L 213.34555 249.420882 
L 213.673816 246.311581 
L 214.002081 245.832527 
L 214.330347 255.828158 
L 214.658612 258.023871 
L 214.986877 245.710998 
L 215.315143 249.524807 
L 215.643408 250.610581 
L 215.971674 258.081111 
L 216.299939 246.856284 
L 216.628205 248.130114 
L 216.95647 251.813569 
L 217.284736 258.743698 
L 217.613001 247.247569 
L 217.941267 249.472569 
L 218.269532 252.651201 
L 218.597798 253.257309 
L 218.926063 247.249745 
L 219.254329 257.055394 
L 219.582594 252.115737 
L 219.910859 254.996618 
L 220.239125 248.48712 
L 220.56739 249.066991 
L 220.895656 252.699692 
L 221.223921 253.860641 
L 221.552187 248.10463 
L 222.208718 252.193214 
L 222.536983 252.750456 
L 222.865249 248.976821 
L 223.193514 249.551741 
L 223.52178 252.141491 
L 223.850045 252.341859 
L 224.178311 248.612956 
L 224.506576 249.540316 
L 224.834841 258.944082 
L 225.163107 252.581741 
L 225.491372 249.545791 
L 225.819638 249.907564 
L 226.147903 252.773763 
L 226.476169 253.261969 
L 226.804434 257.714117 
L 227.1327 250.237547 
L 227.460965 252.36966 
L 227.789231 253.281337 
L 228.117496 250.241164 
L 228.445762 250.19056 
L 228.774027 253.547781 
L 229.102292 253.552256 
L 229.430558 250.102633 
L 229.758823 251.510455 
L 230.087089 282.884223 
L 230.415354 254.813226 
L 230.74362 252.758462 
L 231.071885 256.813264 
L 231.400151 255.651404 
L 231.728416 255.393911 
L 232.056682 252.231899 
L 232.384947 258.300817 
L 232.713213 254.955546 
L 233.041478 254.404826 
L 233.369744 251.584643 
L 233.698009 250.980986 
L 234.026274 261.576597 
L 234.682805 251.722551 
L 235.011071 252.226458 
L 235.339336 258.302098 
L 235.667602 256.101315 
L 235.995867 252.628966 
L 236.324133 253.988085 
L 236.652398 256.372598 
L 236.980664 263.153367 
L 237.308929 252.996222 
L 237.637195 253.338703 
L 237.96546 256.449497 
L 238.293726 257.069885 
L 238.621991 246.394182 
L 238.950256 260.628961 
L 239.278522 255.694302 
L 239.606787 256.615816 
L 239.935053 246.462664 
L 240.263318 260.770027 
L 240.591584 255.457695 
L 240.919849 257.195456 
L 241.248115 261.71471 
L 241.904646 258.132313 
L 242.232911 258.106796 
L 242.561177 254.27028 
L 242.889442 252.651766 
L 243.217708 263.946336 
L 243.545973 263.443964 
L 243.874238 253.678621 
L 244.202504 253.662329 
L 244.530769 258.021929 
L 244.859035 257.916336 
L 245.1873 254.856953 
L 245.515566 262.820869 
L 245.843831 258.468438 
L 246.172097 258.722683 
L 246.500362 255.484731 
L 246.828628 255.504184 
L 247.156893 258.330097 
L 247.485159 259.055314 
L 247.813424 254.360862 
L 248.141689 255.107169 
L 248.469955 260.400875 
L 248.79822 259.949467 
L 249.126486 256.678758 
L 249.454751 255.963427 
L 249.783017 259.626952 
L 250.111282 259.956297 
L 250.439548 256.181409 
L 250.767813 256.002791 
L 251.096079 259.797052 
L 251.424344 260.020894 
L 251.75261 256.395355 
L 252.080875 255.598806 
L 252.409141 260.258534 
L 252.737406 260.808907 
L 253.065671 256.811035 
L 253.393937 256.810809 
L 253.722202 259.84271 
L 254.050468 259.645713 
L 254.378733 256.557085 
L 254.706999 257.069695 
L 255.035264 259.122977 
L 255.36353 260.031821 
L 256.020061 256.174287 
L 256.348326 260.77478 
L 256.676592 260.00592 
L 257.004857 257.473343 
L 257.333123 262.984519 
L 257.661388 260.445082 
L 257.989653 260.059595 
L 258.317919 257.7548 
L 258.646184 258.753721 
L 258.97445 260.715773 
L 259.302715 259.922706 
L 259.630981 256.689398 
L 259.959246 257.839087 
L 260.287512 260.073311 
L 260.615777 260.981907 
L 260.944043 258.03019 
L 261.272308 258.182357 
L 261.600574 261.437404 
L 261.928839 261.14343 
L 262.257105 258.385401 
L 262.58537 257.784467 
L 262.913635 260.438883 
L 263.241901 260.972294 
L 263.570166 258.85187 
L 263.898432 259.629344 
L 264.226697 262.151397 
L 264.554963 262.577671 
L 264.883228 258.524265 
L 265.211494 258.99948 
L 265.539759 261.993571 
L 265.868025 262.35402 
L 266.19629 259.405215 
L 266.852821 263.15132 
L 267.181086 261.326127 
L 267.509352 258.280549 
L 267.837617 259.221398 
L 268.165883 263.011554 
L 268.494148 263.58772 
L 268.822414 259.938029 
L 269.150679 259.093702 
L 269.478945 263.018605 
L 269.80721 262.586978 
L 270.135476 259.599894 
L 270.463741 260.045552 
L 270.792007 264.387089 
L 271.120272 263.613455 
L 271.448538 260.31274 
L 271.776803 259.220337 
L 272.105068 263.604763 
L 272.433334 262.580028 
L 272.761599 260.563309 
L 273.089865 261.382885 
L 273.41813 263.821909 
L 273.746396 263.895212 
L 274.074661 260.424172 
L 274.402927 261.343431 
L 274.731192 263.628596 
L 275.059458 264.571296 
L 275.387723 261.945806 
L 275.715989 260.4377 
L 276.044254 263.337588 
L 276.37252 263.382885 
L 276.700785 261.320384 
L 277.02905 241.468476 
L 277.357316 270.096467 
L 277.685581 264.075544 
L 278.342112 259.487645 
L 278.670378 264.603165 
L 279.326909 262.622515 
L 279.655174 262.488613 
L 279.98344 264.888801 
L 280.311705 264.866982 
L 280.639971 261.274753 
L 280.968236 261.931829 
L 281.296502 266.565281 
L 281.624767 265.773688 
L 281.953032 262.115983 
L 282.281298 261.812242 
L 282.609563 264.70583 
L 282.937829 266.015834 
L 283.266094 262.434041 
L 283.59436 262.76719 
L 283.922625 261.905203 
L 284.250891 264.916323 
L 284.579156 262.403664 
L 284.907422 262.650317 
L 285.235687 265.50655 
L 285.563953 265.87866 
L 285.892218 262.842674 
L 286.220484 262.449787 
L 286.548749 266.094282 
L 286.877014 266.666114 
L 287.20528 262.642882 
L 287.533545 263.443478 
L 287.861811 266.008505 
L 288.190076 267.032063 
L 288.518342 263.298592 
L 288.846607 262.870316 
L 289.174873 266.542729 
L 289.503138 266.140019 
L 289.831404 263.181241 
L 290.487935 266.40765 
L 290.8162 266.654038 
L 291.144465 263.337389 
L 291.472731 263.916598 
L 291.800996 266.42315 
L 292.129262 265.700583 
L 292.457527 264.476737 
L 292.785793 261.651815 
L 293.114058 266.534938 
L 293.442324 267.00082 
L 293.770589 263.74051 
L 294.098855 264.395505 
L 294.42712 266.928933 
L 294.755386 266.241879 
L 295.411917 263.318435 
L 295.740182 267.62484 
L 296.068447 267.131404 
L 296.396713 264.139836 
L 297.381509 267.963735 
L 297.709775 265.710285 
L 298.03804 264.802239 
L 298.366306 267.96896 
L 298.694571 268.577608 
L 299.022837 270.362065 
L 299.679368 259.514177 
L 300.007633 268.595477 
L 300.335899 265.53641 
L 300.664164 265.393192 
L 300.992429 268.179538 
L 301.320695 268.61984 
L 301.64896 265.081926 
L 301.977226 268.092685 
L 302.305491 267.603087 
L 302.633757 268.882941 
L 302.962022 266.408258 
L 303.290288 265.112226 
L 303.618553 268.716844 
L 303.946819 264.665859 
L 304.275084 265.783631 
L 304.60335 266.296482 
L 304.931615 268.617785 
L 305.259881 269.507481 
L 305.588146 267.01154 
L 305.916411 266.676178 
L 306.244677 269.329031 
L 306.572942 268.598208 
L 306.901208 266.292041 
L 307.229473 267.10005 
L 307.557739 268.62389 
L 307.886004 268.965623 
L 308.21427 266.744857 
L 308.542535 265.322139 
L 308.870801 268.932262 
L 309.199066 269.196639 
L 309.527332 266.226006 
L 309.855597 266.342553 
L 310.183862 268.705785 
L 310.512128 269.748912 
L 310.840393 266.758855 
L 311.168659 266.240939 
L 311.496924 269.751747 
L 311.82519 270.13508 
L 312.153455 266.556157 
L 312.481721 266.841941 
L 312.809986 269.33768 
L 313.138252 269.68465 
L 313.466517 267.295722 
L 313.794783 266.039107 
L 314.123048 269.925953 
L 314.451314 270.666483 
L 314.779579 266.435742 
L 315.107844 267.445634 
L 315.43611 270.894604 
L 315.764375 270.377959 
L 316.092641 267.716048 
L 316.420906 266.890888 
L 316.749172 270.812642 
L 317.077437 270.809962 
L 317.405703 267.044963 
L 317.733968 267.658832 
L 318.062234 271.27684 
L 318.390499 270.42682 
L 318.718765 271.531855 
L 319.04703 268.21574 
L 319.375296 270.84669 
L 319.703561 271.274331 
L 320.031826 266.626282 
L 320.360092 267.795305 
L 320.688357 271.251493 
L 321.016623 270.630546 
L 321.344888 267.994253 
L 321.673154 268.371844 
L 322.001419 270.553021 
L 322.329685 271.399743 
L 322.65795 268.65503 
L 322.986216 267.808376 
L 323.314481 270.816378 
L 323.642747 271.1694 
L 323.971012 268.135417 
L 324.299278 268.935519 
L 324.627543 270.962438 
L 324.955808 271.018551 
L 325.284074 267.276257 
L 325.612339 268.317772 
L 325.940605 271.1044 
L 326.26887 271.33074 
L 326.597136 268.02016 
L 326.925401 268.790244 
L 327.253667 273.736156 
L 327.910198 268.098346 
L 328.238463 268.548671 
L 328.566729 270.757721 
L 328.894994 271.194482 
L 329.551525 267.666238 
L 329.87979 271.600795 
L 330.208056 272.508943 
L 330.536321 267.871374 
L 330.864587 269.588976 
L 331.192852 272.35088 
L 331.521118 271.804707 
L 331.849383 269.515314 
L 332.177649 269.701397 
L 332.505914 271.897455 
L 332.83418 272.19157 
L 333.162445 270.094323 
L 333.490711 269.454263 
L 333.818976 274.527158 
L 334.475507 269.849473 
L 334.803772 269.875974 
L 335.132038 274.486881 
L 335.460303 271.764366 
L 335.788569 270.0096 
L 336.116834 269.020494 
L 336.4451 272.69226 
L 336.773365 273.062794 
L 337.101631 269.720004 
L 337.429896 269.986204 
L 337.758162 272.88738 
L 338.086427 272.191363 
L 338.414693 268.428938 
L 338.742958 270.437325 
L 339.071223 273.792527 
L 339.727754 269.32213 
L 340.05602 268.158233 
L 340.384285 272.492025 
L 340.712551 272.915514 
L 341.369082 268.864443 
L 341.697347 272.958865 
L 342.025613 270.874217 
L 342.353878 270.071321 
L 342.682144 270.496771 
L 343.010409 273.663732 
L 343.66694 270.555422 
L 343.995205 269.807207 
L 344.651736 273.415044 
L 344.980002 270.589506 
L 345.308267 269.668472 
L 345.636533 273.300365 
L 345.964798 273.475418 
L 346.293064 270.423864 
L 346.621329 270.803681 
L 346.949595 273.52002 
L 347.27786 273.325943 
L 347.606126 270.0365 
L 347.934391 271.24011 
L 348.262656 273.800174 
L 348.590922 272.607879 
L 348.919187 270.576641 
L 349.247453 270.417896 
L 349.575718 272.778021 
L 349.903984 273.997774 
L 350.232249 271.592539 
L 350.560515 271.198766 
L 350.88878 273.408227 
L 351.217046 273.859535 
L 351.545311 270.816915 
L 351.873577 271.520899 
L 352.201842 273.679432 
L 352.530108 273.809902 
L 352.858373 271.106003 
L 353.186638 271.58466 
L 353.514904 274.098661 
L 353.843169 273.467411 
L 354.171435 271.810198 
L 354.4997 271.936579 
L 354.827966 273.714373 
L 355.156231 273.748345 
L 355.812762 271.173537 
L 356.141028 273.590983 
L 356.469293 273.813726 
L 356.797559 271.502111 
L 357.125824 271.644316 
L 357.45409 276.742954 
L 358.11062 271.279958 
L 358.438886 272.501876 
L 358.767151 274.426094 
L 359.095417 274.067069 
L 359.423682 271.986598 
L 359.751948 272.569992 
L 360.080213 273.605997 
L 360.408479 278.357822 
L 360.736744 271.453044 
L 361.06501 274.737704 
L 361.393275 273.520211 
L 361.721541 275.046117 
L 362.049806 271.554049 
L 362.378072 272.399005 
L 362.706337 274.896445 
L 363.034602 275.054299 
L 363.362868 271.788683 
L 363.691133 272.475977 
L 364.019399 274.697442 
L 364.347664 274.538256 
L 364.67593 272.701937 
L 365.004195 272.651546 
L 365.332461 275.9705 
L 365.660726 274.30972 
L 365.988992 271.794878 
L 366.317257 273.220935 
L 366.645523 275.386423 
L 366.973788 275.548943 
L 367.302053 272.946886 
L 367.630319 271.606973 
L 367.958584 275.186614 
L 368.28685 275.836286 
L 368.615115 273.226218 
L 368.943381 272.635566 
L 369.271646 275.201089 
L 369.599912 275.774076 
L 369.928177 272.872855 
L 370.256443 273.24375 
L 370.584708 274.968329 
L 370.912974 275.17723 
L 371.241239 271.829517 
L 371.569505 272.985865 
L 371.89777 276.056182 
L 372.226035 275.063288 
L 372.554301 272.678519 
L 372.882566 273.893594 
L 373.210832 283.238284 
L 373.539097 275.466634 
L 373.867363 273.781742 
L 374.195628 273.637619 
L 374.852159 276.178941 
L 375.180425 273.936312 
L 375.50869 281.264305 
L 375.836956 276.072394 
L 376.165221 275.990453 
L 376.493487 273.853033 
L 376.821752 272.510478 
L 377.150017 275.360197 
L 377.478283 275.460613 
L 377.806548 274.090638 
L 378.134814 273.52866 
L 378.463079 276.079088 
L 378.791345 276.342243 
L 379.11961 273.575707 
L 379.447876 273.761503 
L 379.776141 276.51379 
L 380.104407 275.330119 
L 380.432672 273.635373 
L 380.760938 274.113154 
L 381.089203 276.412862 
L 381.417469 276.876352 
L 381.745734 273.435834 
L 382.073999 273.436306 
L 382.402265 276.896666 
L 382.73053 276.537588 
L 383.058796 274.066987 
L 383.387061 273.734986 
L 383.715327 276.634602 
L 384.043592 276.821834 
L 384.371858 274.172311 
L 384.700123 274.511972 
L 385.028389 277.336306 
L 385.356654 277.482114 
L 385.68492 276.6922 
L 386.013185 274.734148 
L 386.341451 276.673719 
L 386.669716 276.078308 
L 386.997981 274.276146 
L 387.326247 274.607794 
L 387.654512 276.620801 
L 387.982778 277.18978 
L 388.311043 275.114699 
L 388.639309 274.892708 
L 388.967574 275.323696 
L 389.29584 276.748184 
L 389.624105 273.915095 
L 390.280636 276.784984 
L 390.608902 276.289409 
L 390.937167 275.14444 
L 391.265432 275.361456 
L 391.593698 277.256628 
L 391.921963 277.355322 
L 392.250229 275.167636 
L 392.578494 275.108671 
L 392.90676 276.912702 
L 393.235025 277.480638 
L 393.563291 275.532659 
L 393.891556 274.575872 
L 394.219822 277.39009 
L 394.548087 277.616686 
L 395.204618 274.209262 
L 395.532884 277.294894 
L 395.861149 277.213288 
L 396.189414 275.66817 
L 396.51768 275.454533 
L 396.845945 277.390656 
L 397.174211 278.006222 
L 397.502476 275.713269 
L 397.830742 279.573817 
L 398.159007 276.97784 
L 398.487273 277.704083 
L 398.487273 277.704083 
" style="fill:none;stroke:#1f77b4;stroke-linecap:square;stroke-width:1.5;"/>
   </g>
   <g id="line2d_19">
    <path clip-path="url(#p6ff5543cbe)" d="M 73.832727 131.401861 
L 74.489258 53.568 
L 74.817524 118.978749 
L 75.145789 116.072616 
L 75.80232 133.934997 
L 76.130586 130.657714 
L 76.458851 141.707025 
L 76.787116 139.181285 
L 77.115382 143.477581 
L 77.443647 141.927782 
L 77.771913 153.320474 
L 78.100178 147.727344 
L 78.428444 154.85615 
L 78.756709 144.904293 
L 79.084975 156.522366 
L 79.41324 154.227478 
L 79.741506 165.128806 
L 80.069771 133.39646 
L 80.398037 158.589732 
L 80.726302 161.294091 
L 81.054568 162.96352 
L 81.382833 165.542581 
L 81.711098 165.960512 
L 82.039364 164.274459 
L 82.367629 172.7352 
L 82.695895 185.303437 
L 83.02416 179.797651 
L 83.352426 176.660028 
L 83.680691 178.216326 
L 84.008957 182.063268 
L 84.337222 184.542062 
L 84.665488 178.09659 
L 84.993753 189.130666 
L 85.322019 161.06017 
L 85.650284 181.546545 
L 85.978549 183.546115 
L 86.306815 190.873336 
L 86.63508 188.640312 
L 86.963346 192.465079 
L 87.291611 193.406412 
L 87.619877 193.619583 
L 87.948142 183.785742 
L 88.276408 186.54312 
L 88.604673 193.615654 
L 89.261204 198.955619 
L 89.58947 191.042257 
L 89.917735 197.882806 
L 90.246001 188.976627 
L 90.574266 237.028537 
L 90.902531 199.797011 
L 91.230797 205.382735 
L 91.559062 199.880913 
L 91.887328 205.512119 
L 92.215593 205.338077 
L 92.543859 206.040969 
L 92.872124 195.976469 
L 93.20039 209.436246 
L 93.528655 200.963971 
L 93.856921 199.508652 
L 94.185186 201.160248 
L 94.513452 206.087566 
L 94.841717 205.715743 
L 95.169983 204.398622 
L 95.498248 248.282945 
L 95.826513 210.915584 
L 96.154779 215.167349 
L 97.139575 218.44416 
L 97.467841 219.705901 
L 97.796106 204.859247 
L 98.124372 209.645025 
L 98.452637 211.007777 
L 98.780903 208.371113 
L 99.109168 211.601337 
L 99.437434 223.18712 
L 99.765699 210.650989 
L 100.093965 218.249778 
L 100.42223 257.352367 
L 100.750495 218.07039 
L 101.078761 227.193554 
L 101.735292 214.529894 
L 102.063557 214.826729 
L 102.391823 226.569464 
L 102.720088 222.596021 
L 103.048354 228.131027 
L 103.376619 224.039292 
L 103.704885 231.422162 
L 104.03315 227.176601 
L 104.361416 232.654594 
L 104.689681 229.293396 
L 105.017947 205.826199 
L 105.346212 223.960822 
L 105.674477 224.600787 
L 106.002743 221.112697 
L 106.331008 227.815795 
L 106.659274 227.218195 
L 106.987539 234.632712 
L 107.315805 221.120004 
L 107.64407 235.872435 
L 107.972336 233.196193 
L 108.300601 228.412427 
L 108.628867 233.722447 
L 109.613663 220.556466 
L 109.941928 236.061539 
L 110.270194 241.030914 
L 110.598459 230.119126 
L 110.926725 235.54143 
L 111.25499 237.362712 
L 111.911521 226.464531 
L 112.239787 240.537 
L 112.568052 230.665417 
L 112.896318 235.142196 
L 113.224583 236.36345 
L 113.552849 244.337464 
L 113.881114 231.629665 
L 114.20938 231.409105 
L 114.537645 231.330118 
L 114.86591 238.204354 
L 115.194176 233.204907 
L 115.522441 239.059538 
L 115.850707 233.519674 
L 116.178972 241.845136 
L 116.507238 232.260183 
L 116.835503 243.136674 
L 117.163769 235.239246 
L 117.492034 240.268746 
L 117.8203 236.387566 
L 118.148565 240.31032 
L 118.476831 236.902137 
L 118.805096 230.153636 
L 119.133362 236.554617 
L 119.461627 245.659474 
L 119.789892 238.362318 
L 120.118158 248.806225 
L 120.446423 239.552594 
L 120.774689 241.225065 
L 121.102954 240.380379 
L 121.43122 244.306943 
L 121.759485 232.852465 
L 122.087751 242.836568 
L 122.416016 241.063805 
L 122.744282 250.943264 
L 123.072547 230.567238 
L 123.400813 244.778615 
L 123.729078 240.815992 
L 124.057344 246.219225 
L 124.385609 241.833137 
L 124.713874 245.894646 
L 125.04214 242.385476 
L 125.370405 249.625846 
L 125.698671 244.613827 
L 126.026936 246.87541 
L 126.355202 244.568827 
L 126.683467 247.76083 
L 127.339998 241.203933 
L 127.668264 245.70816 
L 127.996529 248.322664 
L 128.324795 245.144032 
L 128.65306 248.719562 
L 128.981325 246.540809 
L 129.309591 250.770407 
L 129.637856 252.214827 
L 129.966122 251.514619 
L 130.294387 246.764078 
L 130.622653 251.313408 
L 130.950918 248.130417 
L 131.279184 251.463653 
L 131.607449 232.536278 
L 131.935715 252.676558 
L 132.26398 249.191137 
L 132.592246 251.770674 
L 132.920511 249.553077 
L 133.248777 251.645637 
L 133.577042 248.218971 
L 133.905307 253.763396 
L 134.233573 251.199991 
L 134.561838 253.871493 
L 134.890104 257.924052 
L 135.218369 254.562405 
L 135.546635 269.715762 
L 135.8749 244.632376 
L 136.203166 250.826679 
L 136.531431 253.726574 
L 136.859697 250.51754 
L 137.187962 255.24874 
L 137.516228 251.613402 
L 137.844493 254.215681 
L 138.172759 253.266686 
L 138.501024 255.125507 
L 138.829289 253.589521 
L 139.157555 256.918407 
L 139.48582 253.119923 
L 139.814086 252.917716 
L 140.142351 256.306512 
L 140.470617 257.163527 
L 140.798882 254.891127 
L 141.127148 260.046022 
L 141.455413 255.493851 
L 141.783679 256.253985 
L 142.111944 261.619786 
L 142.44021 258.180772 
L 142.768475 257.746528 
L 143.096741 258.744404 
L 143.425006 255.533663 
L 144.081537 263.072678 
L 144.409802 259.404073 
L 144.738068 257.347718 
L 145.066333 258.807489 
L 145.394599 257.656687 
L 145.722864 259.63764 
L 146.05113 259.061081 
L 146.379395 261.371743 
L 146.707661 258.3433 
L 147.035926 261.554022 
L 147.364192 258.136219 
L 147.692457 261.868819 
L 148.020722 264.327881 
L 149.005519 258.411549 
L 149.66205 260.651833 
L 149.990315 259.31983 
L 150.318581 262.674928 
L 150.646846 260.768486 
L 150.975112 263.085726 
L 151.303377 260.30835 
L 151.959908 266.282166 
L 152.288174 263.613398 
L 152.616439 266.5183 
L 152.944704 264.629283 
L 153.27297 261.652789 
L 153.601235 264.935984 
L 153.929501 262.1361 
L 154.257766 264.327734 
L 154.586032 262.802969 
L 154.914297 264.930974 
L 155.570828 258.448762 
L 156.227359 265.005934 
L 156.555625 262.868748 
L 156.88389 265.368633 
L 157.212156 263.336348 
L 157.540421 267.331292 
L 157.868686 263.678019 
L 158.196952 265.151625 
L 158.525217 264.042426 
L 158.853483 265.930319 
L 159.181748 263.911984 
L 159.510014 257.084463 
L 159.838279 263.853626 
L 160.166545 266.490532 
L 160.49481 264.122836 
L 160.823076 267.159651 
L 161.151341 258.342209 
L 161.807872 270.181175 
L 162.136138 267.514182 
L 162.464403 265.831524 
L 162.792668 268.788437 
L 163.120934 257.573635 
L 163.449199 279.195788 
L 163.777465 264.829467 
L 164.10573 267.661405 
L 164.433996 265.857761 
L 164.762261 268.292265 
L 165.090527 268.780867 
L 165.418792 268.573775 
L 165.747058 267.333923 
L 166.075323 269.218608 
L 166.403589 266.585369 
L 166.731854 269.73359 
L 167.060119 267.802986 
L 167.388385 268.183785 
L 167.71665 266.808879 
L 168.044916 270.010528 
L 168.373181 267.451322 
L 169.029712 267.886613 
L 169.357978 271.004006 
L 169.686243 267.95186 
L 170.014509 269.650799 
L 170.342774 268.232923 
L 170.67104 269.931218 
L 170.999305 268.447968 
L 171.327571 270.716398 
L 171.655836 269.358752 
L 171.984101 271.221629 
L 172.312367 270.478368 
L 172.640632 271.665417 
L 172.968898 268.573377 
L 173.297163 271.827576 
L 173.625429 269.273479 
L 173.953694 271.693395 
L 174.28196 269.672078 
L 174.610225 271.868147 
L 174.938491 269.952795 
L 175.266756 272.631378 
L 175.595022 270.195924 
L 175.923287 272.077124 
L 176.251553 270.16452 
L 176.579818 271.211519 
L 176.908083 269.549965 
L 177.236349 271.385737 
L 177.564614 270.691053 
L 177.89288 273.362828 
L 178.221145 271.345565 
L 178.549411 271.676242 
L 178.877676 272.196584 
L 179.205942 273.615787 
L 179.534207 270.951456 
L 179.862473 273.740657 
L 180.190738 271.004291 
L 180.519004 273.609213 
L 180.847269 271.342932 
L 181.175535 273.903373 
L 181.5038 271.986229 
L 181.832065 274.314706 
L 182.160331 271.639002 
L 182.488596 274.436439 
L 182.816862 272.309802 
L 183.145127 274.567814 
L 183.473393 272.626724 
L 183.801658 274.469592 
L 184.129924 272.791236 
L 184.458189 274.025157 
L 184.786455 272.517438 
L 185.11472 273.594322 
L 185.442986 272.528795 
L 185.771251 274.644117 
L 186.099516 273.356806 
L 186.427782 275.060662 
L 186.756047 273.29017 
L 187.084313 275.252108 
L 187.412578 274.156026 
L 187.740844 274.9419 
L 188.069109 272.421351 
L 188.397375 275.510538 
L 188.72564 273.646697 
L 189.053906 275.689503 
L 189.382171 273.926791 
L 189.710437 276.300519 
L 190.038702 272.985282 
L 190.366968 276.084328 
L 190.695233 274.0318 
L 191.023498 275.576646 
L 191.351764 274.437599 
L 191.680029 275.855093 
L 192.008295 274.860771 
L 192.33656 276.283895 
L 192.664826 275.045202 
L 192.993091 277.150826 
L 193.321357 275.267937 
L 193.649622 275.835385 
L 193.977888 275.172219 
L 194.306153 276.431998 
L 194.634419 275.289483 
L 194.962684 276.808479 
L 195.29095 275.614278 
L 195.619215 277.004963 
L 195.94748 275.558162 
L 196.275746 277.195222 
L 196.604011 275.61594 
L 196.932277 277.368003 
L 197.260542 276.025523 
L 197.588808 277.680323 
L 197.917073 275.573618 
L 198.245339 277.3255 
L 198.573604 274.892018 
L 198.90187 277.05624 
L 199.230135 276.46225 
L 199.558401 278.169747 
L 199.886666 276.638102 
L 200.214932 278.268963 
L 200.543197 276.736743 
L 200.871462 278.39857 
L 201.199728 277.313682 
L 201.527993 278.661324 
L 201.856259 277.205493 
L 202.184524 278.613473 
L 202.51279 277.319619 
L 202.841055 278.78309 
L 203.169321 283.973717 
L 203.497586 278.614485 
L 203.825852 276.278833 
L 204.154117 278.77266 
L 204.482383 277.0246 
L 204.810648 279.023319 
L 205.138914 277.083723 
L 205.467179 278.50433 
L 205.795444 277.603985 
L 206.12371 279.113037 
L 206.451975 277.70601 
L 206.780241 279.71584 
L 207.108506 277.956053 
L 207.436772 279.565522 
L 207.765037 276.838196 
L 208.093303 279.516203 
L 208.421568 277.96106 
L 208.749834 279.13664 
L 209.078099 278.074796 
L 209.406365 279.957097 
L 209.73463 278.156002 
L 210.062895 280.249462 
L 210.391161 277.938315 
L 210.719426 280.443798 
L 211.047692 278.348811 
L 211.375957 280.063683 
L 211.704223 278.697808 
L 212.032488 280.201707 
L 212.360754 278.590218 
L 212.689019 280.724631 
L 213.017285 278.621487 
L 213.34555 280.964445 
L 213.673816 278.739418 
L 214.002081 280.580074 
L 214.330347 279.00127 
L 214.658612 279.834726 
L 214.986877 278.541989 
L 215.315143 280.162312 
L 215.643408 278.778611 
L 215.971674 281.206816 
L 216.299939 279.112437 
L 216.628205 281.307824 
L 216.95647 279.312993 
L 217.284736 280.452668 
L 217.613001 279.169643 
L 217.941267 281.547422 
L 218.269532 285.36479 
L 218.597798 280.77911 
L 218.926063 280.015302 
L 219.254329 281.430965 
L 219.582594 279.866806 
L 219.910859 280.981952 
L 220.239125 279.572114 
L 220.56739 281.60544 
L 220.895656 279.522724 
L 221.223921 281.413328 
L 221.552187 279.615999 
L 221.880452 281.314234 
L 222.208718 280.748879 
L 222.536983 281.783831 
L 222.865249 279.999085 
L 223.193514 281.553458 
L 223.52178 280.059332 
L 223.850045 281.222388 
L 224.178311 280.840674 
L 224.506576 282.046459 
L 224.834841 280.839154 
L 225.163107 281.734772 
L 225.491372 280.610903 
L 225.819638 282.043423 
L 226.147903 281.023149 
L 226.476169 282.304937 
L 226.804434 281.162473 
L 227.1327 281.974981 
L 227.460965 280.977387 
L 227.789231 282.084268 
L 228.117496 281.280908 
L 228.445762 282.988859 
L 228.774027 281.409653 
L 229.102292 285.796255 
L 229.430558 280.878036 
L 229.758823 282.99197 
L 230.087089 281.42322 
L 230.415354 282.977544 
L 230.74362 281.675287 
L 231.071885 283.276834 
L 231.400151 281.737133 
L 231.728416 283.046915 
L 232.056682 281.261571 
L 232.384947 282.703821 
L 232.713213 281.649262 
L 233.041478 283.200973 
L 233.369744 281.98619 
L 233.698009 283.266093 
L 234.026274 282.067114 
L 234.35454 283.327657 
L 234.682805 281.119356 
L 235.011071 283.139089 
L 235.339336 281.40009 
L 235.667602 283.966875 
L 235.995867 281.373807 
L 236.324133 284.194093 
L 236.652398 282.048947 
L 236.980664 284.025103 
L 237.308929 282.282757 
L 237.637195 283.408781 
L 237.96546 282.381024 
L 238.293726 284.331679 
L 238.621991 282.450026 
L 238.950256 283.811729 
L 239.278522 281.82304 
L 239.606787 283.432286 
L 239.935053 282.865062 
L 240.263318 283.518089 
L 240.591584 282.413905 
L 240.919849 284.367169 
L 241.248115 282.337373 
L 241.57638 283.757723 
L 241.904646 283.077069 
L 242.232911 284.282377 
L 242.561177 283.319069 
L 242.889442 284.098491 
L 243.217708 283.239356 
L 243.545973 284.037736 
L 243.874238 282.520031 
L 244.202504 284.170056 
L 244.530769 282.877592 
L 244.859035 283.925569 
L 245.1873 282.547162 
L 245.515566 284.86203 
L 245.843831 282.712943 
L 246.172097 284.658076 
L 246.500362 283.08477 
L 246.828628 284.981708 
L 247.156893 284.116964 
L 247.485159 285.278267 
L 247.813424 283.986258 
L 248.141689 284.359215 
L 248.469955 283.862984 
L 248.79822 284.685077 
L 249.126486 282.878112 
L 249.454751 284.379997 
L 249.783017 284.010013 
L 250.111282 285.683111 
L 250.439548 284.291293 
L 250.767813 285.462988 
L 251.096079 283.894339 
L 251.424344 285.526531 
L 251.75261 283.973618 
L 252.080875 285.684973 
L 252.409141 288.330333 
L 252.737406 285.615995 
L 253.065671 284.404683 
L 253.393937 284.886776 
L 253.722202 283.821676 
L 254.050468 285.219319 
L 254.378733 283.513962 
L 254.706999 285.704646 
L 255.035264 284.689033 
L 255.36353 286.293354 
L 255.691795 284.635376 
L 256.020061 285.975069 
L 256.348326 284.549255 
L 256.676592 286.075031 
L 257.004857 283.516714 
L 257.333123 286.047298 
L 257.661388 284.232404 
L 257.989653 286.263703 
L 258.317919 284.964929 
L 258.646184 285.221721 
L 258.97445 284.296935 
L 259.302715 286.229419 
L 259.630981 285.053204 
L 259.959246 286.47168 
L 260.287512 285.035623 
L 260.615777 286.093113 
L 260.944043 283.885563 
L 261.272308 285.625629 
L 261.600574 284.440432 
L 261.928839 285.741962 
L 262.257105 284.805454 
L 262.58537 286.025203 
L 262.913635 284.501985 
L 263.241901 285.884899 
L 263.570166 285.471218 
L 263.898432 286.614239 
L 264.226697 285.541179 
L 264.554963 287.137915 
L 264.883228 285.595066 
L 265.211494 286.325732 
L 265.539759 284.397537 
L 265.868025 286.474946 
L 266.19629 284.725102 
L 266.524556 286.94727 
L 266.852821 285.370128 
L 267.181086 287.120546 
L 267.509352 285.80344 
L 267.837617 286.458884 
L 268.165883 285.362014 
L 268.494148 290.200744 
L 268.822414 285.82418 
L 269.150679 286.443982 
L 269.478945 284.593395 
L 269.80721 286.409811 
L 270.135476 285.850178 
L 270.463741 286.303756 
L 270.792007 286.11979 
L 271.120272 287.16476 
L 271.448538 286.030572 
L 271.776803 286.473134 
L 272.105068 286.23832 
L 272.433334 287.260839 
L 272.761599 286.054142 
L 273.089865 287.22613 
L 273.41813 286.083753 
L 273.746396 286.883451 
L 274.074661 289.811073 
L 274.402927 286.874958 
L 274.731192 286.477723 
L 275.059458 286.931192 
L 275.387723 285.508605 
L 275.715989 287.621776 
L 276.044254 285.992726 
L 276.37252 287.095153 
L 276.700785 285.988466 
L 277.02905 287.620742 
L 277.357316 286.426953 
L 277.685581 287.932863 
L 278.013847 286.358841 
L 278.342112 287.122178 
L 278.670378 286.751102 
L 278.998643 287.225681 
L 279.326909 286.203425 
L 279.655174 287.403972 
L 279.98344 286.641665 
L 280.311705 287.510083 
L 280.639971 286.718732 
L 280.968236 288.166059 
L 281.296502 287.034019 
L 281.624767 287.646973 
L 281.953032 286.033164 
L 282.281298 287.429091 
L 282.609563 286.129005 
L 282.937829 288.333154 
L 283.266094 286.794452 
L 283.59436 287.632635 
L 283.922625 286.25051 
L 284.250891 287.847255 
L 284.579156 287.300417 
L 284.907422 288.19167 
L 285.235687 286.398831 
L 285.563953 287.768014 
L 285.892218 286.884369 
L 286.220484 288.543994 
L 286.548749 286.793472 
L 286.877014 287.693582 
L 287.20528 287.589989 
L 287.861811 287.601377 
L 288.190076 288.530868 
L 288.518342 287.098434 
L 288.846607 289.000397 
L 289.174873 287.328244 
L 289.503138 288.769614 
L 289.831404 287.468213 
L 290.159669 288.905938 
L 290.487935 287.768592 
L 290.8162 288.424691 
L 291.144465 287.506578 
L 291.472731 291.371687 
L 291.800996 287.525693 
L 292.129262 289.025434 
L 292.457527 287.658169 
L 292.785793 289.106776 
L 293.114058 287.907604 
L 293.442324 288.226883 
L 293.770589 287.429263 
L 294.098855 288.754832 
L 294.42712 287.952017 
L 294.755386 289.102906 
L 295.083651 287.850687 
L 295.411917 288.814008 
L 295.740182 288.216754 
L 296.068447 288.985504 
L 296.396713 287.966165 
L 296.724978 288.678645 
L 297.053244 288.207498 
L 297.381509 289.433191 
L 297.709775 287.567169 
L 298.03804 289.125085 
L 298.366306 287.769308 
L 298.694571 288.871728 
L 299.022837 287.437226 
L 299.351102 288.835776 
L 299.679368 287.773416 
L 300.007633 289.279664 
L 300.335899 287.963376 
L 300.664164 289.54539 
L 300.992429 288.538731 
L 301.320695 289.237487 
L 301.64896 287.822611 
L 301.977226 288.81349 
L 302.305491 287.933154 
L 302.633757 289.547494 
L 302.962022 288.427001 
L 303.290288 289.270755 
L 303.618553 288.84223 
L 303.946819 288.660988 
L 304.275084 288.667402 
L 304.60335 291.760874 
L 304.931615 288.731616 
L 305.259881 289.273148 
L 305.588146 288.566929 
L 305.916411 290.004773 
L 306.244677 288.334437 
L 306.572942 289.509574 
L 306.901208 288.104618 
L 307.229473 290.119046 
L 307.557739 288.393932 
L 307.886004 289.374042 
L 308.21427 288.929754 
L 308.542535 289.036472 
L 308.870801 288.377046 
L 309.199066 289.919511 
L 309.527332 288.761109 
L 309.855597 289.581007 
L 310.183862 288.335398 
L 310.512128 289.570658 
L 310.840393 289.142421 
L 311.168659 289.744174 
L 311.496924 289.161847 
L 311.82519 289.580406 
L 312.153455 288.748992 
L 312.481721 289.370287 
L 312.809986 289.238323 
L 313.138252 289.499751 
L 313.466517 289.329257 
L 313.794783 290.457835 
L 314.123048 289.121087 
L 314.451314 290.043688 
L 314.779579 288.440073 
L 315.107844 290.007128 
L 315.43611 288.948994 
L 315.764375 290.385257 
L 316.092641 289.278107 
L 316.420906 290.36753 
L 316.749172 289.224894 
L 317.077437 290.437926 
L 317.405703 288.626415 
L 317.733968 290.429519 
L 318.062234 288.961563 
L 318.390499 289.543856 
L 318.718765 288.794697 
L 319.04703 289.926817 
L 319.375296 289.279039 
L 319.703561 289.95663 
L 320.031826 288.788712 
L 320.360092 290.778896 
L 320.688357 289.622302 
L 321.016623 290.71075 
L 321.344888 289.141868 
L 321.673154 290.001827 
L 322.001419 289.230963 
L 322.329685 290.527788 
L 322.65795 289.266674 
L 322.986216 290.242256 
L 323.314481 289.712071 
L 323.642747 290.570542 
L 323.971012 289.829153 
L 324.299278 292.764596 
L 324.627543 289.750954 
L 324.955808 290.444506 
L 325.284074 289.318942 
L 325.612339 290.34532 
L 325.940605 290.025352 
L 326.26887 290.876347 
L 326.597136 289.575234 
L 326.925401 290.572227 
L 327.253667 290.076904 
L 327.581932 291.112613 
L 327.910198 290.15117 
L 328.238463 290.435518 
L 328.566729 289.691361 
L 328.894994 290.810874 
L 329.223259 289.456788 
L 329.551525 291.111007 
L 329.87979 289.806044 
L 330.208056 292.854039 
L 330.536321 289.780152 
L 330.864587 291.444619 
L 331.192852 292.491283 
L 331.521118 291.480478 
L 331.849383 289.569538 
L 332.177649 291.082613 
L 332.505914 290.160337 
L 332.83418 291.382158 
L 333.162445 289.674861 
L 333.490711 290.658127 
L 333.818976 289.742027 
L 334.147241 291.133967 
L 334.475507 290.324765 
L 334.803772 290.968074 
L 335.132038 290.368579 
L 335.460303 291.343747 
L 335.788569 290.352514 
L 336.116834 291.633626 
L 336.4451 290.488214 
L 336.773365 291.043596 
L 337.101631 290.294185 
L 337.429896 291.084522 
L 337.758162 290.564145 
L 338.086427 291.528275 
L 338.414693 289.972384 
L 338.742958 291.785039 
L 339.071223 290.164293 
L 339.399489 291.197017 
L 339.727754 290.291428 
L 340.384285 292.479464 
L 341.040816 290.569768 
L 341.369082 291.900465 
L 341.697347 290.245906 
L 342.025613 291.537836 
L 342.353878 290.833426 
L 342.682144 291.293259 
L 343.010409 290.960873 
L 343.338675 291.684485 
L 343.66694 290.507203 
L 343.995205 291.281348 
L 344.323471 291.123194 
L 344.651736 291.420262 
L 344.980002 290.582224 
L 345.308267 292.150908 
L 345.636533 290.812723 
L 345.964798 291.452255 
L 346.293064 290.681867 
L 346.621329 291.86054 
L 346.949595 291.051078 
L 347.27786 292.16026 
L 347.606126 291.262304 
L 347.934391 291.652436 
L 348.262656 290.8349 
L 348.590922 291.935584 
L 348.919187 290.786799 
L 349.247453 291.798042 
L 349.575718 290.748958 
L 349.903984 291.825519 
L 350.232249 290.76298 
L 350.560515 292.287484 
L 350.88878 290.982062 
L 351.217046 291.744837 
L 351.545311 291.275766 
L 351.873577 292.270485 
L 352.201842 291.261905 
L 352.530108 291.96868 
L 352.858373 291.38436 
L 353.186638 291.983116 
L 353.514904 291.36613 
L 353.843169 291.883225 
L 354.171435 291.133969 
L 354.4997 291.908725 
L 354.827966 291.040943 
L 355.156231 292.098338 
L 355.484497 290.933691 
L 355.812762 292.274037 
L 356.141028 291.173597 
L 356.469293 292.435403 
L 356.797559 291.368717 
L 357.125824 292.473042 
L 357.45409 291.7726 
L 357.782355 292.133651 
L 358.11062 291.642327 
L 358.438886 292.314342 
L 358.767151 295.488 
L 359.095417 292.310907 
L 359.423682 291.80518 
L 359.751948 292.82609 
L 360.080213 291.652435 
L 360.408479 292.395785 
L 360.736744 291.495978 
L 361.06501 286.451058 
L 361.393275 291.043045 
L 361.721541 292.564811 
L 362.049806 291.790188 
L 362.378072 292.541293 
L 362.706337 291.519814 
L 363.034602 292.463395 
L 363.362868 291.366265 
L 363.691133 292.190915 
L 364.019399 291.597003 
L 364.347664 292.533002 
L 364.67593 291.716583 
L 365.004195 292.792576 
L 365.332461 291.96998 
L 365.660726 292.661 
L 365.988992 291.144361 
L 366.317257 292.357304 
L 366.645523 291.800769 
L 366.973788 294.095336 
L 367.302053 291.995274 
L 367.630319 292.931026 
L 367.958584 292.142412 
L 368.28685 292.772584 
L 368.615115 291.773285 
L 368.943381 292.422122 
L 369.271646 292.139321 
L 369.599912 292.466142 
L 369.928177 291.71751 
L 370.256443 293.259561 
L 370.584708 293.604978 
L 370.912974 293.163077 
L 371.241239 291.731311 
L 371.569505 292.834066 
L 371.89777 292.195224 
L 372.226035 293.377923 
L 372.554301 291.770782 
L 372.882566 293.163065 
L 373.210832 292.082423 
L 373.539097 293.007021 
L 373.867363 291.985381 
L 374.195628 293.486361 
L 374.523894 292.154138 
L 374.852159 293.075123 
L 375.180425 291.863193 
L 375.50869 292.955458 
L 375.836956 291.755241 
L 376.165221 292.931384 
L 376.493487 291.992073 
L 376.821752 292.729622 
L 377.150017 292.432843 
L 377.478283 292.868867 
L 377.806548 292.278406 
L 378.134814 292.946857 
L 378.463079 292.106098 
L 378.791345 293.4427 
L 379.11961 292.629959 
L 379.447876 293.230416 
L 379.776141 292.281207 
L 380.104407 293.187775 
L 380.432672 292.317809 
L 380.760938 292.982393 
L 381.089203 292.33868 
L 381.417469 293.177067 
L 381.745734 292.367671 
L 382.073999 293.162234 
L 382.402265 291.898454 
L 382.73053 293.483202 
L 383.058796 292.113086 
L 383.387061 293.143711 
L 383.715327 292.198385 
L 384.043592 293.195601 
L 384.371858 292.31528 
L 384.700123 293.353327 
L 385.028389 292.233724 
L 385.356654 293.30394 
L 385.68492 292.154041 
L 386.013185 293.108826 
L 386.341451 292.411943 
L 386.669716 293.458099 
L 386.997981 292.253952 
L 387.326247 293.47386 
L 387.654512 292.532186 
L 387.982778 293.478094 
L 388.311043 292.693051 
L 388.639309 293.426316 
L 388.967574 292.623096 
L 389.29584 293.495833 
L 389.624105 292.474769 
L 389.952371 293.784786 
L 390.280636 292.698938 
L 390.608902 293.663671 
L 390.937167 292.732268 
L 391.265432 293.419143 
L 391.593698 293.000696 
L 391.921963 293.706523 
L 392.250229 292.580329 
L 392.578494 293.612365 
L 392.90676 292.907843 
L 393.235025 293.63147 
L 393.563291 292.623389 
L 393.891556 293.377325 
L 394.219822 292.70053 
L 394.548087 293.787967 
L 394.876353 292.870239 
L 395.204618 293.650488 
L 395.532884 292.927333 
L 395.861149 294.096926 
L 396.189414 293.124437 
L 396.51768 293.580226 
L 396.845945 293.332789 
L 397.174211 293.781915 
L 397.502476 293.439436 
L 397.830742 293.546653 
L 398.159007 293.203546 
L 398.487273 293.796619 
L 398.487273 293.796619 
" style="fill:none;stroke:#ff7f0e;stroke-linecap:square;stroke-width:1.5;"/>
   </g>
   <g id="patch_3">
    <path d="M 57.6 307.584 
L 57.6 41.472 
" style="fill:none;stroke:#000000;stroke-linecap:square;stroke-linejoin:miter;stroke-width:0.8;"/>
   </g>
   <g id="patch_4">
    <path d="M 414.72 307.584 
L 414.72 41.472 
" style="fill:none;stroke:#000000;stroke-linecap:square;stroke-linejoin:miter;stroke-width:0.8;"/>
   </g>
   <g id="patch_5">
    <path d="M 57.6 307.584 
L 414.72 307.584 
" style="fill:none;stroke:#000000;stroke-linecap:square;stroke-linejoin:miter;stroke-width:0.8;"/>
   </g>
   <g id="patch_6">
    <path d="M 57.6 41.472 
L 414.72 41.472 
" style="fill:none;stroke:#000000;stroke-linecap:square;stroke-linejoin:miter;stroke-width:0.8;"/>
   </g>
   <g id="text_20">
    <!-- ROC Speedup -->
    <defs>
     <path d="M 44.390625 34.1875 
Q 47.5625 33.109375 50.5625 29.59375 
Q 53.5625 26.078125 56.59375 19.921875 
L 66.609375 0 
L 56 0 
L 46.6875 18.703125 
Q 43.0625 26.03125 39.671875 28.421875 
Q 36.28125 30.8125 30.421875 30.8125 
L 19.671875 30.8125 
L 19.671875 0 
L 9.8125 0 
L 9.8125 72.90625 
L 32.078125 72.90625 
Q 44.578125 72.90625 50.734375 67.671875 
Q 56.890625 62.453125 56.890625 51.90625 
Q 56.890625 45.015625 53.6875 40.46875 
Q 50.484375 35.9375 44.390625 34.1875 
z
M 19.671875 64.796875 
L 19.671875 38.921875 
L 32.078125 38.921875 
Q 39.203125 38.921875 42.84375 42.21875 
Q 46.484375 45.515625 46.484375 51.90625 
Q 46.484375 58.296875 42.84375 61.546875 
Q 39.203125 64.796875 32.078125 64.796875 
z
" id="DejaVuSans-82"/>
     <path d="M 39.40625 66.21875 
Q 28.65625 66.21875 22.328125 58.203125 
Q 16.015625 50.203125 16.015625 36.375 
Q 16.015625 22.609375 22.328125 14.59375 
Q 28.65625 6.59375 39.40625 6.59375 
Q 50.140625 6.59375 56.421875 14.59375 
Q 62.703125 22.609375 62.703125 36.375 
Q 62.703125 50.203125 56.421875 58.203125 
Q 50.140625 66.21875 39.40625 66.21875 
z
M 39.40625 74.21875 
Q 54.734375 74.21875 63.90625 63.9375 
Q 73.09375 53.65625 73.09375 36.375 
Q 73.09375 19.140625 63.90625 8.859375 
Q 54.734375 -1.421875 39.40625 -1.421875 
Q 24.03125 -1.421875 14.8125 8.828125 
Q 5.609375 19.09375 5.609375 36.375 
Q 5.609375 53.65625 14.8125 63.9375 
Q 24.03125 74.21875 39.40625 74.21875 
z
" id="DejaVuSans-79"/>
     <path d="M 64.40625 67.28125 
L 64.40625 56.890625 
Q 59.421875 61.53125 53.78125 63.8125 
Q 48.140625 66.109375 41.796875 66.109375 
Q 29.296875 66.109375 22.65625 58.46875 
Q 16.015625 50.828125 16.015625 36.375 
Q 16.015625 21.96875 22.65625 14.328125 
Q 29.296875 6.6875 41.796875 6.6875 
Q 48.140625 6.6875 53.78125 8.984375 
Q 59.421875 11.28125 64.40625 15.921875 
L 64.40625 5.609375 
Q 59.234375 2.09375 53.4375 0.328125 
Q 47.65625 -1.421875 41.21875 -1.421875 
Q 24.65625 -1.421875 15.125 8.703125 
Q 5.609375 18.84375 5.609375 36.375 
Q 5.609375 53.953125 15.125 64.078125 
Q 24.65625 74.21875 41.21875 74.21875 
Q 47.75 74.21875 53.53125 72.484375 
Q 59.328125 70.75 64.40625 67.28125 
z
" id="DejaVuSans-67"/>
     <path id="DejaVuSans-32"/>
     <path d="M 53.515625 70.515625 
L 53.515625 60.890625 
Q 47.90625 63.578125 42.921875 64.890625 
Q 37.9375 66.21875 33.296875 66.21875 
Q 25.25 66.21875 20.875 63.09375 
Q 16.5 59.96875 16.5 54.203125 
Q 16.5 49.359375 19.40625 46.890625 
Q 22.3125 44.4375 30.421875 42.921875 
L 36.375 41.703125 
Q 47.40625 39.59375 52.65625 34.296875 
Q 57.90625 29 57.90625 20.125 
Q 57.90625 9.515625 50.796875 4.046875 
Q 43.703125 -1.421875 29.984375 -1.421875 
Q 24.8125 -1.421875 18.96875 -0.25 
Q 13.140625 0.921875 6.890625 3.21875 
L 6.890625 13.375 
Q 12.890625 10.015625 18.65625 8.296875 
Q 24.421875 6.59375 29.984375 6.59375 
Q 38.421875 6.59375 43.015625 9.90625 
Q 47.609375 13.234375 47.609375 19.390625 
Q 47.609375 24.75 44.3125 27.78125 
Q 41.015625 30.8125 33.5 32.328125 
L 27.484375 33.5 
Q 16.453125 35.6875 11.515625 40.375 
Q 6.59375 45.0625 6.59375 53.421875 
Q 6.59375 63.09375 13.40625 68.65625 
Q 20.21875 74.21875 32.171875 74.21875 
Q 37.3125 74.21875 42.625 73.28125 
Q 47.953125 72.359375 53.515625 70.515625 
z
" id="DejaVuSans-83"/>
    </defs>
    <g transform="translate(194.74875 35.472)scale(0.12 -0.12)">
     <use xlink:href="#DejaVuSans-82"/>
     <use x="69.482422" xlink:href="#DejaVuSans-79"/>
     <use x="148.193359" xlink:href="#DejaVuSans-67"/>
     <use x="218.017578" xlink:href="#DejaVuSans-32"/>
     <use x="249.804688" xlink:href="#DejaVuSans-83"/>
     <use x="313.28125" xlink:href="#DejaVuSans-112"/>
     <use x="376.757812" xlink:href="#DejaVuSans-101"/>
     <use x="438.28125" xlink:href="#DejaVuSans-101"/>
     <use x="499.804688" xlink:href="#DejaVuSans-100"/>
     <use x="563.28125" xlink:href="#DejaVuSans-117"/>
     <use x="626.660156" xlink:href="#DejaVuSans-112"/>
    </g>
   </g>
   <g id="legend_1">
    <g id="patch_7">
     <path d="M 304.093437 78.82825 
L 407.72 78.82825 
Q 409.72 78.82825 409.72 76.82825 
L 409.72 48.472 
Q 409.72 46.472 407.72 46.472 
L 304.093437 46.472 
Q 302.093437 46.472 302.093437 48.472 
L 302.093437 76.82825 
Q 302.093437 78.82825 304.093437 78.82825 
z
" style="fill:#ffffff;opacity:0.8;stroke:#cccccc;stroke-linejoin:miter;"/>
    </g>
    <g id="line2d_20">
     <path d="M 306.093437 54.570437 
L 326.093437 54.570437 
" style="fill:none;stroke:#1f77b4;stroke-linecap:square;stroke-width:1.5;"/>
    </g>
    <g id="line2d_21"/>
    <g id="text_21">
     <!-- numpy.float32 -->
     <defs>
      <path d="M 52 44.1875 
Q 55.375 50.25 60.0625 53.125 
Q 64.75 56 71.09375 56 
Q 79.640625 56 84.28125 50.015625 
Q 88.921875 44.046875 88.921875 33.015625 
L 88.921875 0 
L 79.890625 0 
L 79.890625 32.71875 
Q 79.890625 40.578125 77.09375 44.375 
Q 74.3125 48.1875 68.609375 48.1875 
Q 61.625 48.1875 57.5625 43.546875 
Q 53.515625 38.921875 53.515625 30.90625 
L 53.515625 0 
L 44.484375 0 
L 44.484375 32.71875 
Q 44.484375 40.625 41.703125 44.40625 
Q 38.921875 48.1875 33.109375 48.1875 
Q 26.21875 48.1875 22.15625 43.53125 
Q 18.109375 38.875 18.109375 30.90625 
L 18.109375 0 
L 9.078125 0 
L 9.078125 54.6875 
L 18.109375 54.6875 
L 18.109375 46.1875 
Q 21.1875 51.21875 25.484375 53.609375 
Q 29.78125 56 35.6875 56 
Q 41.65625 56 45.828125 52.96875 
Q 50 49.953125 52 44.1875 
z
" id="DejaVuSans-109"/>
      <path d="M 32.171875 -5.078125 
Q 28.375 -14.84375 24.75 -17.8125 
Q 21.140625 -20.796875 15.09375 -20.796875 
L 7.90625 -20.796875 
L 7.90625 -13.28125 
L 13.1875 -13.28125 
Q 16.890625 -13.28125 18.9375 -11.515625 
Q 21 -9.765625 23.484375 -3.21875 
L 25.09375 0.875 
L 2.984375 54.6875 
L 12.5 54.6875 
L 29.59375 11.921875 
L 46.6875 54.6875 
L 56.203125 54.6875 
z
" id="DejaVuSans-121"/>
      <path d="M 37.109375 75.984375 
L 37.109375 68.5 
L 28.515625 68.5 
Q 23.6875 68.5 21.796875 66.546875 
Q 19.921875 64.59375 19.921875 59.515625 
L 19.921875 54.6875 
L 34.71875 54.6875 
L 34.71875 47.703125 
L 19.921875 47.703125 
L 19.921875 0 
L 10.890625 0 
L 10.890625 47.703125 
L 2.296875 47.703125 
L 2.296875 54.6875 
L 10.890625 54.6875 
L 10.890625 58.5 
Q 10.890625 67.625 15.140625 71.796875 
Q 19.390625 75.984375 28.609375 75.984375 
z
" id="DejaVuSans-102"/>
      <path d="M 9.421875 75.984375 
L 18.40625 75.984375 
L 18.40625 0 
L 9.421875 0 
z
" id="DejaVuSans-108"/>
      <path d="M 30.609375 48.390625 
Q 23.390625 48.390625 19.1875 42.75 
Q 14.984375 37.109375 14.984375 27.296875 
Q 14.984375 17.484375 19.15625 11.84375 
Q 23.34375 6.203125 30.609375 6.203125 
Q 37.796875 6.203125 41.984375 11.859375 
Q 46.1875 17.53125 46.1875 27.296875 
Q 46.1875 37.015625 41.984375 42.703125 
Q 37.796875 48.390625 30.609375 48.390625 
z
M 30.609375 56 
Q 42.328125 56 49.015625 48.375 
Q 55.71875 40.765625 55.71875 27.296875 
Q 55.71875 13.875 49.015625 6.21875 
Q 42.328125 -1.421875 30.609375 -1.421875 
Q 18.84375 -1.421875 12.171875 6.21875 
Q 5.515625 13.875 5.515625 27.296875 
Q 5.515625 40.765625 12.171875 48.375 
Q 18.84375 56 30.609375 56 
z
" id="DejaVuSans-111"/>
      <path d="M 34.28125 27.484375 
Q 23.390625 27.484375 19.1875 25 
Q 14.984375 22.515625 14.984375 16.5 
Q 14.984375 11.71875 18.140625 8.90625 
Q 21.296875 6.109375 26.703125 6.109375 
Q 34.1875 6.109375 38.703125 11.40625 
Q 43.21875 16.703125 43.21875 25.484375 
L 43.21875 27.484375 
z
M 52.203125 31.203125 
L 52.203125 0 
L 43.21875 0 
L 43.21875 8.296875 
Q 40.140625 3.328125 35.546875 0.953125 
Q 30.953125 -1.421875 24.3125 -1.421875 
Q 15.921875 -1.421875 10.953125 3.296875 
Q 6 8.015625 6 15.921875 
Q 6 25.140625 12.171875 29.828125 
Q 18.359375 34.515625 30.609375 34.515625 
L 43.21875 34.515625 
L 43.21875 35.40625 
Q 43.21875 41.609375 39.140625 45 
Q 35.0625 48.390625 27.6875 48.390625 
Q 23 48.390625 18.546875 47.265625 
Q 14.109375 46.140625 10.015625 43.890625 
L 10.015625 52.203125 
Q 14.9375 54.109375 19.578125 55.046875 
Q 24.21875 56 28.609375 56 
Q 40.484375 56 46.34375 49.84375 
Q 52.203125 43.703125 52.203125 31.203125 
z
" id="DejaVuSans-97"/>
      <path d="M 18.3125 70.21875 
L 18.3125 54.6875 
L 36.8125 54.6875 
L 36.8125 47.703125 
L 18.3125 47.703125 
L 18.3125 18.015625 
Q 18.3125 11.328125 20.140625 9.421875 
Q 21.96875 7.515625 27.59375 7.515625 
L 36.8125 7.515625 
L 36.8125 0 
L 27.59375 0 
Q 17.1875 0 13.234375 3.875 
Q 9.28125 7.765625 9.28125 18.015625 
L 9.28125 47.703125 
L 2.6875 47.703125 
L 2.6875 54.6875 
L 9.28125 54.6875 
L 9.28125 70.21875 
z
" id="DejaVuSans-116"/>
     </defs>
     <g transform="translate(334.093437 58.070437)scale(0.1 -0.1)">
      <use xlink:href="#DejaVuSans-110"/>
      <use x="63.378906" xlink:href="#DejaVuSans-117"/>
      <use x="126.757812" xlink:href="#DejaVuSans-109"/>
      <use x="224.169922" xlink:href="#DejaVuSans-112"/>
      <use x="287.646484" xlink:href="#DejaVuSans-121"/>
      <use x="332.576172" xlink:href="#DejaVuSans-46"/>
      <use x="364.363281" xlink:href="#DejaVuSans-102"/>
      <use x="399.568359" xlink:href="#DejaVuSans-108"/>
      <use x="427.351562" xlink:href="#DejaVuSans-111"/>
      <use x="488.533203" xlink:href="#DejaVuSans-97"/>
      <use x="549.8125" xlink:href="#DejaVuSans-116"/>
      <use x="589.021484" xlink:href="#DejaVuSans-51"/>
      <use x="652.644531" xlink:href="#DejaVuSans-50"/>
     </g>
    </g>
    <g id="line2d_22">
     <path d="M 306.093437 69.248562 
L 326.093437 69.248562 
" style="fill:none;stroke:#ff7f0e;stroke-linecap:square;stroke-width:1.5;"/>
    </g>
    <g id="line2d_23"/>
    <g id="text_22">
     <!-- numpy.float64 -->
     <g transform="translate(334.093437 72.748562)scale(0.1 -0.1)">
      <use xlink:href="#DejaVuSans-110"/>
      <use x="63.378906" xlink:href="#DejaVuSans-117"/>
      <use x="126.757812" xlink:href="#DejaVuSans-109"/>
      <use x="224.169922" xlink:href="#DejaVuSans-112"/>
      <use x="287.646484" xlink:href="#DejaVuSans-121"/>
      <use x="332.576172" xlink:href="#DejaVuSans-46"/>
      <use x="364.363281" xlink:href="#DejaVuSans-102"/>
      <use x="399.568359" xlink:href="#DejaVuSans-108"/>
      <use x="427.351562" xlink:href="#DejaVuSans-111"/>
      <use x="488.533203" xlink:href="#DejaVuSans-97"/>
      <use x="549.8125" xlink:href="#DejaVuSans-116"/>
      <use x="589.021484" xlink:href="#DejaVuSans-54"/>
      <use x="652.644531" xlink:href="#DejaVuSans-52"/>
     </g>
    </g>
   </g>
  </g>
 </g>
 <defs>
  <clipPath id="p6ff5543cbe">
   <rect height="266.112" width="357.12" x="57.6" y="41.472"/>
  </clipPath>
 </defs>
</svg>
