<?xml version="1.0" encoding="utf-8" standalone="no"?>
<!DOCTYPE svg PUBLIC "-//W3C//DTD SVG 1.1//EN"
  "http://www.w3.org/Graphics/SVG/1.1/DTD/svg11.dtd">
<!-- Created with matplotlib (https://matplotlib.org/) -->
<svg height="720pt" version="1.1" viewBox="0 0 1440 720" width="1440pt" xmlns="http://www.w3.org/2000/svg" xmlns:xlink="http://www.w3.org/1999/xlink">
 <defs>
  <style type="text/css">
*{stroke-linecap:butt;stroke-linejoin:round;}
  </style>
 </defs>
 <g id="figure_1">
  <g id="patch_1">
   <path d="M 0 720 
L 1440 720 
L 1440 0 
L 0 0 
z
" style="fill:#ffffff;"/>
  </g>
  <g id="axes_1">
   <g id="patch_2">
    <path d="M 180 640.8 
L 1296 640.8 
L 1296 86.4 
L 180 86.4 
z
" style="fill:#ffffff;"/>
   </g>
   <g id="matplotlib.axis_1">
    <g id="xtick_1">
     <g id="line2d_1">
      <defs>
       <path d="M 0 0 
L 0 3.5 
" id="mf14a41623a" style="stroke:#000000;stroke-width:0.8;"/>
      </defs>
      <g>
       <use style="stroke:#000000;stroke-width:0.8;" x="333.310231" xlink:href="#mf14a41623a" y="640.8"/>
      </g>
     </g>
     <g id="text_1">
      <!-- 100.0 -->
      <defs>
       <path d="M 12.40625 8.296875 
L 28.515625 8.296875 
L 28.515625 63.921875 
L 10.984375 60.40625 
L 10.984375 69.390625 
L 28.421875 72.90625 
L 38.28125 72.90625 
L 38.28125 8.296875 
L 54.390625 8.296875 
L 54.390625 0 
L 12.40625 0 
z
" id="DejaVuSans-49"/>
       <path d="M 31.78125 66.40625 
Q 24.171875 66.40625 20.328125 58.90625 
Q 16.5 51.421875 16.5 36.375 
Q 16.5 21.390625 20.328125 13.890625 
Q 24.171875 6.390625 31.78125 6.390625 
Q 39.453125 6.390625 43.28125 13.890625 
Q 47.125 21.390625 47.125 36.375 
Q 47.125 51.421875 43.28125 58.90625 
Q 39.453125 66.40625 31.78125 66.40625 
z
M 31.78125 74.21875 
Q 44.046875 74.21875 50.515625 64.515625 
Q 56.984375 54.828125 56.984375 36.375 
Q 56.984375 17.96875 50.515625 8.265625 
Q 44.046875 -1.421875 31.78125 -1.421875 
Q 19.53125 -1.421875 13.0625 8.265625 
Q 6.59375 17.96875 6.59375 36.375 
Q 6.59375 54.828125 13.0625 64.515625 
Q 19.53125 74.21875 31.78125 74.21875 
z
" id="DejaVuSans-48"/>
       <path d="M 10.6875 12.40625 
L 21 12.40625 
L 21 0 
L 10.6875 0 
z
" id="DejaVuSans-46"/>
      </defs>
      <g transform="translate(318.996168 655.398438)scale(0.1 -0.1)">
       <use xlink:href="#DejaVuSans-49"/>
       <use x="63.623047" xlink:href="#DejaVuSans-48"/>
       <use x="127.246094" xlink:href="#DejaVuSans-48"/>
       <use x="190.869141" xlink:href="#DejaVuSans-46"/>
       <use x="222.65625" xlink:href="#DejaVuSans-48"/>
      </g>
     </g>
    </g>
    <g id="xtick_2">
     <g id="line2d_2">
      <g>
       <use style="stroke:#000000;stroke-width:0.8;" x="435.893189" xlink:href="#mf14a41623a" y="640.8"/>
      </g>
     </g>
     <g id="text_2">
      <!-- 200.0 -->
      <defs>
       <path d="M 19.1875 8.296875 
L 53.609375 8.296875 
L 53.609375 0 
L 7.328125 0 
L 7.328125 8.296875 
Q 12.9375 14.109375 22.625 23.890625 
Q 32.328125 33.6875 34.8125 36.53125 
Q 39.546875 41.84375 41.421875 45.53125 
Q 43.3125 49.21875 43.3125 52.78125 
Q 43.3125 58.59375 39.234375 62.25 
Q 35.15625 65.921875 28.609375 65.921875 
Q 23.96875 65.921875 18.8125 64.3125 
Q 13.671875 62.703125 7.8125 59.421875 
L 7.8125 69.390625 
Q 13.765625 71.78125 18.9375 73 
Q 24.125 74.21875 28.421875 74.21875 
Q 39.75 74.21875 46.484375 68.546875 
Q 53.21875 62.890625 53.21875 53.421875 
Q 53.21875 48.921875 51.53125 44.890625 
Q 49.859375 40.875 45.40625 35.40625 
Q 44.1875 33.984375 37.640625 27.21875 
Q 31.109375 20.453125 19.1875 8.296875 
z
" id="DejaVuSans-50"/>
      </defs>
      <g transform="translate(421.579126 655.398438)scale(0.1 -0.1)">
       <use xlink:href="#DejaVuSans-50"/>
       <use x="63.623047" xlink:href="#DejaVuSans-48"/>
       <use x="127.246094" xlink:href="#DejaVuSans-48"/>
       <use x="190.869141" xlink:href="#DejaVuSans-46"/>
       <use x="222.65625" xlink:href="#DejaVuSans-48"/>
      </g>
     </g>
    </g>
    <g id="xtick_3">
     <g id="line2d_3">
      <g>
       <use style="stroke:#000000;stroke-width:0.8;" x="538.476147" xlink:href="#mf14a41623a" y="640.8"/>
      </g>
     </g>
     <g id="text_3">
      <!-- 300.0 -->
      <defs>
       <path d="M 40.578125 39.3125 
Q 47.65625 37.796875 51.625 33 
Q 55.609375 28.21875 55.609375 21.1875 
Q 55.609375 10.40625 48.1875 4.484375 
Q 40.765625 -1.421875 27.09375 -1.421875 
Q 22.515625 -1.421875 17.65625 -0.515625 
Q 12.796875 0.390625 7.625 2.203125 
L 7.625 11.71875 
Q 11.71875 9.328125 16.59375 8.109375 
Q 21.484375 6.890625 26.8125 6.890625 
Q 36.078125 6.890625 40.9375 10.546875 
Q 45.796875 14.203125 45.796875 21.1875 
Q 45.796875 27.640625 41.28125 31.265625 
Q 36.765625 34.90625 28.71875 34.90625 
L 20.21875 34.90625 
L 20.21875 43.015625 
L 29.109375 43.015625 
Q 36.375 43.015625 40.234375 45.921875 
Q 44.09375 48.828125 44.09375 54.296875 
Q 44.09375 59.90625 40.109375 62.90625 
Q 36.140625 65.921875 28.71875 65.921875 
Q 24.65625 65.921875 20.015625 65.03125 
Q 15.375 64.15625 9.8125 62.3125 
L 9.8125 71.09375 
Q 15.4375 72.65625 20.34375 73.4375 
Q 25.25 74.21875 29.59375 74.21875 
Q 40.828125 74.21875 47.359375 69.109375 
Q 53.90625 64.015625 53.90625 55.328125 
Q 53.90625 49.265625 50.4375 45.09375 
Q 46.96875 40.921875 40.578125 39.3125 
z
" id="DejaVuSans-51"/>
      </defs>
      <g transform="translate(524.162084 655.398438)scale(0.1 -0.1)">
       <use xlink:href="#DejaVuSans-51"/>
       <use x="63.623047" xlink:href="#DejaVuSans-48"/>
       <use x="127.246094" xlink:href="#DejaVuSans-48"/>
       <use x="190.869141" xlink:href="#DejaVuSans-46"/>
       <use x="222.65625" xlink:href="#DejaVuSans-48"/>
      </g>
     </g>
    </g>
    <g id="xtick_4">
     <g id="line2d_4">
      <g>
       <use style="stroke:#000000;stroke-width:0.8;" x="641.059105" xlink:href="#mf14a41623a" y="640.8"/>
      </g>
     </g>
     <g id="text_4">
      <!-- 400.0 -->
      <defs>
       <path d="M 37.796875 64.3125 
L 12.890625 25.390625 
L 37.796875 25.390625 
z
M 35.203125 72.90625 
L 47.609375 72.90625 
L 47.609375 25.390625 
L 58.015625 25.390625 
L 58.015625 17.1875 
L 47.609375 17.1875 
L 47.609375 0 
L 37.796875 0 
L 37.796875 17.1875 
L 4.890625 17.1875 
L 4.890625 26.703125 
z
" id="DejaVuSans-52"/>
      </defs>
      <g transform="translate(626.745042 655.398438)scale(0.1 -0.1)">
       <use xlink:href="#DejaVuSans-52"/>
       <use x="63.623047" xlink:href="#DejaVuSans-48"/>
       <use x="127.246094" xlink:href="#DejaVuSans-48"/>
       <use x="190.869141" xlink:href="#DejaVuSans-46"/>
       <use x="222.65625" xlink:href="#DejaVuSans-48"/>
      </g>
     </g>
    </g>
    <g id="xtick_5">
     <g id="line2d_5">
      <g>
       <use style="stroke:#000000;stroke-width:0.8;" x="743.642063" xlink:href="#mf14a41623a" y="640.8"/>
      </g>
     </g>
     <g id="text_5">
      <!-- 500.0 -->
      <defs>
       <path d="M 10.796875 72.90625 
L 49.515625 72.90625 
L 49.515625 64.59375 
L 19.828125 64.59375 
L 19.828125 46.734375 
Q 21.96875 47.46875 24.109375 47.828125 
Q 26.265625 48.1875 28.421875 48.1875 
Q 40.625 48.1875 47.75 41.5 
Q 54.890625 34.8125 54.890625 23.390625 
Q 54.890625 11.625 47.5625 5.09375 
Q 40.234375 -1.421875 26.90625 -1.421875 
Q 22.3125 -1.421875 17.546875 -0.640625 
Q 12.796875 0.140625 7.71875 1.703125 
L 7.71875 11.625 
Q 12.109375 9.234375 16.796875 8.0625 
Q 21.484375 6.890625 26.703125 6.890625 
Q 35.15625 6.890625 40.078125 11.328125 
Q 45.015625 15.765625 45.015625 23.390625 
Q 45.015625 31 40.078125 35.4375 
Q 35.15625 39.890625 26.703125 39.890625 
Q 22.75 39.890625 18.8125 39.015625 
Q 14.890625 38.140625 10.796875 36.28125 
z
" id="DejaVuSans-53"/>
      </defs>
      <g transform="translate(729.328 655.398438)scale(0.1 -0.1)">
       <use xlink:href="#DejaVuSans-53"/>
       <use x="63.623047" xlink:href="#DejaVuSans-48"/>
       <use x="127.246094" xlink:href="#DejaVuSans-48"/>
       <use x="190.869141" xlink:href="#DejaVuSans-46"/>
       <use x="222.65625" xlink:href="#DejaVuSans-48"/>
      </g>
     </g>
    </g>
    <g id="xtick_6">
     <g id="line2d_6">
      <g>
       <use style="stroke:#000000;stroke-width:0.8;" x="846.225021" xlink:href="#mf14a41623a" y="640.8"/>
      </g>
     </g>
     <g id="text_6">
      <!-- 600.0 -->
      <defs>
       <path d="M 33.015625 40.375 
Q 26.375 40.375 22.484375 35.828125 
Q 18.609375 31.296875 18.609375 23.390625 
Q 18.609375 15.53125 22.484375 10.953125 
Q 26.375 6.390625 33.015625 6.390625 
Q 39.65625 6.390625 43.53125 10.953125 
Q 47.40625 15.53125 47.40625 23.390625 
Q 47.40625 31.296875 43.53125 35.828125 
Q 39.65625 40.375 33.015625 40.375 
z
M 52.59375 71.296875 
L 52.59375 62.3125 
Q 48.875 64.0625 45.09375 64.984375 
Q 41.3125 65.921875 37.59375 65.921875 
Q 27.828125 65.921875 22.671875 59.328125 
Q 17.53125 52.734375 16.796875 39.40625 
Q 19.671875 43.65625 24.015625 45.921875 
Q 28.375 48.1875 33.59375 48.1875 
Q 44.578125 48.1875 50.953125 41.515625 
Q 57.328125 34.859375 57.328125 23.390625 
Q 57.328125 12.15625 50.6875 5.359375 
Q 44.046875 -1.421875 33.015625 -1.421875 
Q 20.359375 -1.421875 13.671875 8.265625 
Q 6.984375 17.96875 6.984375 36.375 
Q 6.984375 53.65625 15.1875 63.9375 
Q 23.390625 74.21875 37.203125 74.21875 
Q 40.921875 74.21875 44.703125 73.484375 
Q 48.484375 72.75 52.59375 71.296875 
z
" id="DejaVuSans-54"/>
      </defs>
      <g transform="translate(831.910958 655.398438)scale(0.1 -0.1)">
       <use xlink:href="#DejaVuSans-54"/>
       <use x="63.623047" xlink:href="#DejaVuSans-48"/>
       <use x="127.246094" xlink:href="#DejaVuSans-48"/>
       <use x="190.869141" xlink:href="#DejaVuSans-46"/>
       <use x="222.65625" xlink:href="#DejaVuSans-48"/>
      </g>
     </g>
    </g>
    <g id="xtick_7">
     <g id="line2d_7">
      <g>
       <use style="stroke:#000000;stroke-width:0.8;" x="948.807979" xlink:href="#mf14a41623a" y="640.8"/>
      </g>
     </g>
     <g id="text_7">
      <!-- 700.0 -->
      <defs>
       <path d="M 8.203125 72.90625 
L 55.078125 72.90625 
L 55.078125 68.703125 
L 28.609375 0 
L 18.3125 0 
L 43.21875 64.59375 
L 8.203125 64.59375 
z
" id="DejaVuSans-55"/>
      </defs>
      <g transform="translate(934.493916 655.398438)scale(0.1 -0.1)">
       <use xlink:href="#DejaVuSans-55"/>
       <use x="63.623047" xlink:href="#DejaVuSans-48"/>
       <use x="127.246094" xlink:href="#DejaVuSans-48"/>
       <use x="190.869141" xlink:href="#DejaVuSans-46"/>
       <use x="222.65625" xlink:href="#DejaVuSans-48"/>
      </g>
     </g>
    </g>
    <g id="xtick_8">
     <g id="line2d_8">
      <g>
       <use style="stroke:#000000;stroke-width:0.8;" x="1051.390937" xlink:href="#mf14a41623a" y="640.8"/>
      </g>
     </g>
     <g id="text_8">
      <!-- 800.0 -->
      <defs>
       <path d="M 31.78125 34.625 
Q 24.75 34.625 20.71875 30.859375 
Q 16.703125 27.09375 16.703125 20.515625 
Q 16.703125 13.921875 20.71875 10.15625 
Q 24.75 6.390625 31.78125 6.390625 
Q 38.8125 6.390625 42.859375 10.171875 
Q 46.921875 13.96875 46.921875 20.515625 
Q 46.921875 27.09375 42.890625 30.859375 
Q 38.875 34.625 31.78125 34.625 
z
M 21.921875 38.8125 
Q 15.578125 40.375 12.03125 44.71875 
Q 8.5 49.078125 8.5 55.328125 
Q 8.5 64.0625 14.71875 69.140625 
Q 20.953125 74.21875 31.78125 74.21875 
Q 42.671875 74.21875 48.875 69.140625 
Q 55.078125 64.0625 55.078125 55.328125 
Q 55.078125 49.078125 51.53125 44.71875 
Q 48 40.375 41.703125 38.8125 
Q 48.828125 37.15625 52.796875 32.3125 
Q 56.78125 27.484375 56.78125 20.515625 
Q 56.78125 9.90625 50.3125 4.234375 
Q 43.84375 -1.421875 31.78125 -1.421875 
Q 19.734375 -1.421875 13.25 4.234375 
Q 6.78125 9.90625 6.78125 20.515625 
Q 6.78125 27.484375 10.78125 32.3125 
Q 14.796875 37.15625 21.921875 38.8125 
z
M 18.3125 54.390625 
Q 18.3125 48.734375 21.84375 45.5625 
Q 25.390625 42.390625 31.78125 42.390625 
Q 38.140625 42.390625 41.71875 45.5625 
Q 45.3125 48.734375 45.3125 54.390625 
Q 45.3125 60.0625 41.71875 63.234375 
Q 38.140625 66.40625 31.78125 66.40625 
Q 25.390625 66.40625 21.84375 63.234375 
Q 18.3125 60.0625 18.3125 54.390625 
z
" id="DejaVuSans-56"/>
      </defs>
      <g transform="translate(1037.076874 655.398438)scale(0.1 -0.1)">
       <use xlink:href="#DejaVuSans-56"/>
       <use x="63.623047" xlink:href="#DejaVuSans-48"/>
       <use x="127.246094" xlink:href="#DejaVuSans-48"/>
       <use x="190.869141" xlink:href="#DejaVuSans-46"/>
       <use x="222.65625" xlink:href="#DejaVuSans-48"/>
      </g>
     </g>
    </g>
    <g id="xtick_9">
     <g id="line2d_9">
      <g>
       <use style="stroke:#000000;stroke-width:0.8;" x="1153.973895" xlink:href="#mf14a41623a" y="640.8"/>
      </g>
     </g>
     <g id="text_9">
      <!-- 900.0 -->
      <defs>
       <path d="M 10.984375 1.515625 
L 10.984375 10.5 
Q 14.703125 8.734375 18.5 7.8125 
Q 22.3125 6.890625 25.984375 6.890625 
Q 35.75 6.890625 40.890625 13.453125 
Q 46.046875 20.015625 46.78125 33.40625 
Q 43.953125 29.203125 39.59375 26.953125 
Q 35.25 24.703125 29.984375 24.703125 
Q 19.046875 24.703125 12.671875 31.3125 
Q 6.296875 37.9375 6.296875 49.421875 
Q 6.296875 60.640625 12.9375 67.421875 
Q 19.578125 74.21875 30.609375 74.21875 
Q 43.265625 74.21875 49.921875 64.515625 
Q 56.59375 54.828125 56.59375 36.375 
Q 56.59375 19.140625 48.40625 8.859375 
Q 40.234375 -1.421875 26.421875 -1.421875 
Q 22.703125 -1.421875 18.890625 -0.6875 
Q 15.09375 0.046875 10.984375 1.515625 
z
M 30.609375 32.421875 
Q 37.25 32.421875 41.125 36.953125 
Q 45.015625 41.5 45.015625 49.421875 
Q 45.015625 57.28125 41.125 61.84375 
Q 37.25 66.40625 30.609375 66.40625 
Q 23.96875 66.40625 20.09375 61.84375 
Q 16.21875 57.28125 16.21875 49.421875 
Q 16.21875 41.5 20.09375 36.953125 
Q 23.96875 32.421875 30.609375 32.421875 
z
" id="DejaVuSans-57"/>
      </defs>
      <g transform="translate(1139.659832 655.398438)scale(0.1 -0.1)">
       <use xlink:href="#DejaVuSans-57"/>
       <use x="63.623047" xlink:href="#DejaVuSans-48"/>
       <use x="127.246094" xlink:href="#DejaVuSans-48"/>
       <use x="190.869141" xlink:href="#DejaVuSans-46"/>
       <use x="222.65625" xlink:href="#DejaVuSans-48"/>
      </g>
     </g>
    </g>
    <g id="xtick_10">
     <g id="line2d_10">
      <g>
       <use style="stroke:#000000;stroke-width:0.8;" x="1256.556853" xlink:href="#mf14a41623a" y="640.8"/>
      </g>
     </g>
     <g id="text_10">
      <!-- 1000.0 -->
      <g transform="translate(1239.06154 655.398438)scale(0.1 -0.1)">
       <use xlink:href="#DejaVuSans-49"/>
       <use x="63.623047" xlink:href="#DejaVuSans-48"/>
       <use x="127.246094" xlink:href="#DejaVuSans-48"/>
       <use x="190.869141" xlink:href="#DejaVuSans-48"/>
       <use x="254.492188" xlink:href="#DejaVuSans-46"/>
       <use x="286.279297" xlink:href="#DejaVuSans-48"/>
      </g>
     </g>
    </g>
    <g id="text_11">
     <!-- n -->
     <defs>
      <path d="M 54.890625 33.015625 
L 54.890625 0 
L 45.90625 0 
L 45.90625 32.71875 
Q 45.90625 40.484375 42.875 44.328125 
Q 39.84375 48.1875 33.796875 48.1875 
Q 26.515625 48.1875 22.3125 43.546875 
Q 18.109375 38.921875 18.109375 30.90625 
L 18.109375 0 
L 9.078125 0 
L 9.078125 54.6875 
L 18.109375 54.6875 
L 18.109375 46.1875 
Q 21.34375 51.125 25.703125 53.5625 
Q 30.078125 56 35.796875 56 
Q 45.21875 56 50.046875 50.171875 
Q 54.890625 44.34375 54.890625 33.015625 
z
" id="DejaVuSans-110"/>
     </defs>
     <g transform="translate(734.83125 669.076563)scale(0.1 -0.1)">
      <use xlink:href="#DejaVuSans-110"/>
     </g>
    </g>
   </g>
   <g id="matplotlib.axis_2">
    <g id="ytick_1">
     <g id="line2d_11">
      <defs>
       <path d="M 0 0 
L -3.5 0 
" id="m20a39e9de9" style="stroke:#000000;stroke-width:0.8;"/>
      </defs>
      <g>
       <use style="stroke:#000000;stroke-width:0.8;" x="180" xlink:href="#m20a39e9de9" y="637.372526"/>
      </g>
     </g>
     <g id="text_12">
      <!-- 0 -->
      <g transform="translate(166.6375 641.171745)scale(0.1 -0.1)">
       <use xlink:href="#DejaVuSans-48"/>
      </g>
     </g>
    </g>
    <g id="ytick_2">
     <g id="line2d_12">
      <g>
       <use style="stroke:#000000;stroke-width:0.8;" x="180" xlink:href="#m20a39e9de9" y="562.279986"/>
      </g>
     </g>
     <g id="text_13">
      <!-- 50 -->
      <g transform="translate(160.275 566.079204)scale(0.1 -0.1)">
       <use xlink:href="#DejaVuSans-53"/>
       <use x="63.623047" xlink:href="#DejaVuSans-48"/>
      </g>
     </g>
    </g>
    <g id="ytick_3">
     <g id="line2d_13">
      <g>
       <use style="stroke:#000000;stroke-width:0.8;" x="180" xlink:href="#m20a39e9de9" y="487.187445"/>
      </g>
     </g>
     <g id="text_14">
      <!-- 100 -->
      <g transform="translate(153.9125 490.986664)scale(0.1 -0.1)">
       <use xlink:href="#DejaVuSans-49"/>
       <use x="63.623047" xlink:href="#DejaVuSans-48"/>
       <use x="127.246094" xlink:href="#DejaVuSans-48"/>
      </g>
     </g>
    </g>
    <g id="ytick_4">
     <g id="line2d_14">
      <g>
       <use style="stroke:#000000;stroke-width:0.8;" x="180" xlink:href="#m20a39e9de9" y="412.094905"/>
      </g>
     </g>
     <g id="text_15">
      <!-- 150 -->
      <g transform="translate(153.9125 415.894124)scale(0.1 -0.1)">
       <use xlink:href="#DejaVuSans-49"/>
       <use x="63.623047" xlink:href="#DejaVuSans-53"/>
       <use x="127.246094" xlink:href="#DejaVuSans-48"/>
      </g>
     </g>
    </g>
    <g id="ytick_5">
     <g id="line2d_15">
      <g>
       <use style="stroke:#000000;stroke-width:0.8;" x="180" xlink:href="#m20a39e9de9" y="337.002365"/>
      </g>
     </g>
     <g id="text_16">
      <!-- 200 -->
      <g transform="translate(153.9125 340.801584)scale(0.1 -0.1)">
       <use xlink:href="#DejaVuSans-50"/>
       <use x="63.623047" xlink:href="#DejaVuSans-48"/>
       <use x="127.246094" xlink:href="#DejaVuSans-48"/>
      </g>
     </g>
    </g>
    <g id="ytick_6">
     <g id="line2d_16">
      <g>
       <use style="stroke:#000000;stroke-width:0.8;" x="180" xlink:href="#m20a39e9de9" y="261.909824"/>
      </g>
     </g>
     <g id="text_17">
      <!-- 250 -->
      <g transform="translate(153.9125 265.709043)scale(0.1 -0.1)">
       <use xlink:href="#DejaVuSans-50"/>
       <use x="63.623047" xlink:href="#DejaVuSans-53"/>
       <use x="127.246094" xlink:href="#DejaVuSans-48"/>
      </g>
     </g>
    </g>
    <g id="ytick_7">
     <g id="line2d_17">
      <g>
       <use style="stroke:#000000;stroke-width:0.8;" x="180" xlink:href="#m20a39e9de9" y="186.817284"/>
      </g>
     </g>
     <g id="text_18">
      <!-- 300 -->
      <g transform="translate(153.9125 190.616503)scale(0.1 -0.1)">
       <use xlink:href="#DejaVuSans-51"/>
       <use x="63.623047" xlink:href="#DejaVuSans-48"/>
       <use x="127.246094" xlink:href="#DejaVuSans-48"/>
      </g>
     </g>
    </g>
    <g id="ytick_8">
     <g id="line2d_18">
      <g>
       <use style="stroke:#000000;stroke-width:0.8;" x="180" xlink:href="#m20a39e9de9" y="111.724744"/>
      </g>
     </g>
     <g id="text_19">
      <!-- 350 -->
      <g transform="translate(153.9125 115.523963)scale(0.1 -0.1)">
       <use xlink:href="#DejaVuSans-51"/>
       <use x="63.623047" xlink:href="#DejaVuSans-53"/>
       <use x="127.246094" xlink:href="#DejaVuSans-48"/>
      </g>
     </g>
    </g>
    <g id="text_20">
     <!-- speedup -->
     <defs>
      <path d="M 44.28125 53.078125 
L 44.28125 44.578125 
Q 40.484375 46.53125 36.375 47.5 
Q 32.28125 48.484375 27.875 48.484375 
Q 21.1875 48.484375 17.84375 46.4375 
Q 14.5 44.390625 14.5 40.28125 
Q 14.5 37.15625 16.890625 35.375 
Q 19.28125 33.59375 26.515625 31.984375 
L 29.59375 31.296875 
Q 39.15625 29.25 43.1875 25.515625 
Q 47.21875 21.78125 47.21875 15.09375 
Q 47.21875 7.46875 41.1875 3.015625 
Q 35.15625 -1.421875 24.609375 -1.421875 
Q 20.21875 -1.421875 15.453125 -0.5625 
Q 10.6875 0.296875 5.421875 2 
L 5.421875 11.28125 
Q 10.40625 8.6875 15.234375 7.390625 
Q 20.0625 6.109375 24.8125 6.109375 
Q 31.15625 6.109375 34.5625 8.28125 
Q 37.984375 10.453125 37.984375 14.40625 
Q 37.984375 18.0625 35.515625 20.015625 
Q 33.0625 21.96875 24.703125 23.78125 
L 21.578125 24.515625 
Q 13.234375 26.265625 9.515625 29.90625 
Q 5.8125 33.546875 5.8125 39.890625 
Q 5.8125 47.609375 11.28125 51.796875 
Q 16.75 56 26.8125 56 
Q 31.78125 56 36.171875 55.265625 
Q 40.578125 54.546875 44.28125 53.078125 
z
" id="DejaVuSans-115"/>
      <path d="M 18.109375 8.203125 
L 18.109375 -20.796875 
L 9.078125 -20.796875 
L 9.078125 54.6875 
L 18.109375 54.6875 
L 18.109375 46.390625 
Q 20.953125 51.265625 25.265625 53.625 
Q 29.59375 56 35.59375 56 
Q 45.5625 56 51.78125 48.09375 
Q 58.015625 40.1875 58.015625 27.296875 
Q 58.015625 14.40625 51.78125 6.484375 
Q 45.5625 -1.421875 35.59375 -1.421875 
Q 29.59375 -1.421875 25.265625 0.953125 
Q 20.953125 3.328125 18.109375 8.203125 
z
M 48.6875 27.296875 
Q 48.6875 37.203125 44.609375 42.84375 
Q 40.53125 48.484375 33.40625 48.484375 
Q 26.265625 48.484375 22.1875 42.84375 
Q 18.109375 37.203125 18.109375 27.296875 
Q 18.109375 17.390625 22.1875 11.75 
Q 26.265625 6.109375 33.40625 6.109375 
Q 40.53125 6.109375 44.609375 11.75 
Q 48.6875 17.390625 48.6875 27.296875 
z
" id="DejaVuSans-112"/>
      <path d="M 56.203125 29.59375 
L 56.203125 25.203125 
L 14.890625 25.203125 
Q 15.484375 15.921875 20.484375 11.0625 
Q 25.484375 6.203125 34.421875 6.203125 
Q 39.59375 6.203125 44.453125 7.46875 
Q 49.3125 8.734375 54.109375 11.28125 
L 54.109375 2.78125 
Q 49.265625 0.734375 44.1875 -0.34375 
Q 39.109375 -1.421875 33.890625 -1.421875 
Q 20.796875 -1.421875 13.15625 6.1875 
Q 5.515625 13.8125 5.515625 26.8125 
Q 5.515625 40.234375 12.765625 48.109375 
Q 20.015625 56 32.328125 56 
Q 43.359375 56 49.78125 48.890625 
Q 56.203125 41.796875 56.203125 29.59375 
z
M 47.21875 32.234375 
Q 47.125 39.59375 43.09375 43.984375 
Q 39.0625 48.390625 32.421875 48.390625 
Q 24.90625 48.390625 20.390625 44.140625 
Q 15.875 39.890625 15.1875 32.171875 
z
" id="DejaVuSans-101"/>
      <path d="M 45.40625 46.390625 
L 45.40625 75.984375 
L 54.390625 75.984375 
L 54.390625 0 
L 45.40625 0 
L 45.40625 8.203125 
Q 42.578125 3.328125 38.25 0.953125 
Q 33.9375 -1.421875 27.875 -1.421875 
Q 17.96875 -1.421875 11.734375 6.484375 
Q 5.515625 14.40625 5.515625 27.296875 
Q 5.515625 40.1875 11.734375 48.09375 
Q 17.96875 56 27.875 56 
Q 33.9375 56 38.25 53.625 
Q 42.578125 51.265625 45.40625 46.390625 
z
M 14.796875 27.296875 
Q 14.796875 17.390625 18.875 11.75 
Q 22.953125 6.109375 30.078125 6.109375 
Q 37.203125 6.109375 41.296875 11.75 
Q 45.40625 17.390625 45.40625 27.296875 
Q 45.40625 37.203125 41.296875 42.84375 
Q 37.203125 48.484375 30.078125 48.484375 
Q 22.953125 48.484375 18.875 42.84375 
Q 14.796875 37.203125 14.796875 27.296875 
z
" id="DejaVuSans-100"/>
      <path d="M 8.5 21.578125 
L 8.5 54.6875 
L 17.484375 54.6875 
L 17.484375 21.921875 
Q 17.484375 14.15625 20.5 10.265625 
Q 23.53125 6.390625 29.59375 6.390625 
Q 36.859375 6.390625 41.078125 11.03125 
Q 45.3125 15.671875 45.3125 23.6875 
L 45.3125 54.6875 
L 54.296875 54.6875 
L 54.296875 0 
L 45.3125 0 
L 45.3125 8.40625 
Q 42.046875 3.421875 37.71875 1 
Q 33.40625 -1.421875 27.6875 -1.421875 
Q 18.265625 -1.421875 13.375 4.4375 
Q 8.5 10.296875 8.5 21.578125 
z
M 31.109375 56 
z
" id="DejaVuSans-117"/>
     </defs>
     <g transform="translate(147.832812 385.049219)rotate(-90)scale(0.1 -0.1)">
      <use xlink:href="#DejaVuSans-115"/>
      <use x="52.099609" xlink:href="#DejaVuSans-112"/>
      <use x="115.576172" xlink:href="#DejaVuSans-101"/>
      <use x="177.099609" xlink:href="#DejaVuSans-101"/>
      <use x="238.623047" xlink:href="#DejaVuSans-100"/>
      <use x="302.099609" xlink:href="#DejaVuSans-117"/>
      <use x="365.478516" xlink:href="#DejaVuSans-112"/>
     </g>
    </g>
   </g>
   <g id="line2d_19">
    <path clip-path="url(#p337c7d8bc5)" d="M 230.727273 343.21821 
L 231.753102 474.127448 
L 232.778932 273.403423 
L 233.804761 481.051906 
L 234.830591 306.442308 
L 235.856421 477.003657 
L 236.88225 486.92459 
L 237.90808 315.037704 
L 238.933909 497.410366 
L 239.959739 476.448572 
L 240.985569 290.794756 
L 242.011398 477.103028 
L 243.037228 111.6 
L 244.063057 506.229945 
L 245.088887 509.189844 
L 246.114716 310.176133 
L 247.140546 326.775534 
L 248.166376 329.84657 
L 249.192205 319.763871 
L 250.218035 324.046938 
L 251.243864 323.458494 
L 252.269694 335.854183 
L 253.295523 337.871392 
L 254.321353 342.81106 
L 255.347183 331.228481 
L 256.373012 334.028055 
L 257.398842 343.615823 
L 258.424671 346.892737 
L 259.450501 345.190282 
L 260.476331 337.64792 
L 261.50216 367.421107 
L 262.52799 365.025804 
L 263.553819 347.081354 
L 264.579649 354.606823 
L 265.605478 366.053484 
L 266.631308 375.458385 
L 267.657138 355.873052 
L 268.682967 364.484155 
L 269.708797 383.189294 
L 270.734626 381.437618 
L 271.760456 368.113202 
L 272.786286 373.326134 
L 273.812115 385.467457 
L 274.837945 382.167189 
L 275.863774 373.883391 
L 276.889604 379.799289 
L 277.915433 394.255129 
L 278.941263 388.64116 
L 279.967093 384.954984 
L 280.992922 386.043388 
L 282.018752 397.531434 
L 283.044581 400.469319 
L 284.070411 386.93294 
L 285.09624 388.695942 
L 286.12207 401.578339 
L 287.1479 397.285127 
L 288.173729 389.83218 
L 289.199559 379.445281 
L 290.225388 396.184158 
L 291.251218 399.80878 
L 292.277048 394.889068 
L 293.302877 398.838121 
L 294.328707 408.831992 
L 295.354536 404.584096 
L 296.380366 399.790238 
L 297.406195 400.036095 
L 298.432025 436.415947 
L 299.457855 400.821607 
L 300.483684 388.703074 
L 301.509514 402.441319 
L 302.535343 405.195061 
L 304.587002 397.558124 
L 305.612832 415.034099 
L 306.638662 404.488391 
L 307.664491 408.612196 
L 308.690321 417.443066 
L 309.71615 448.138704 
L 310.74198 454.24261 
L 311.76781 404.901482 
L 312.793639 403.660553 
L 313.819469 415.690801 
L 314.845298 395.799873 
L 315.871128 406.782225 
L 316.896957 428.093701 
L 317.922787 418.99551 
L 318.948617 421.056759 
L 319.974446 422.511684 
L 321.000276 421.197311 
L 322.026105 423.120369 
L 323.051935 428.858358 
L 324.077765 411.132905 
L 325.103594 406.297171 
L 326.129424 417.019527 
L 327.155253 431.750499 
L 328.181083 412.476623 
L 329.206912 422.876483 
L 330.232742 424.788366 
L 331.258572 432.490639 
L 332.284401 437.006163 
L 333.310231 423.804671 
L 334.33606 430.949721 
L 335.36189 439.484875 
L 336.387719 435.486526 
L 337.413549 434.36508 
L 338.439379 430.074827 
L 339.465208 538.98151 
L 340.491038 443.488981 
L 341.516867 424.472793 
L 342.542697 444.0773 
L 343.568527 444.294132 
L 344.594356 435.821151 
L 345.620186 439.094311 
L 346.646015 430.886407 
L 347.671845 436.036758 
L 348.697674 427.903145 
L 349.723504 443.493223 
L 350.749334 436.06813 
L 351.775163 449.992602 
L 352.800993 454.738841 
L 353.826822 444.485807 
L 354.852652 436.953124 
L 355.878481 457.763838 
L 356.904311 540.938361 
L 357.930141 447.174229 
L 358.95597 442.384897 
L 359.9818 457.713462 
L 361.007629 446.432989 
L 362.033459 460.024828 
L 363.059289 438.776681 
L 364.085118 442.049885 
L 365.110948 454.20596 
L 366.136777 464.60451 
L 367.162607 465.667523 
L 368.188436 430.705104 
L 369.214266 426.802414 
L 370.240096 455.597094 
L 371.265925 386.093713 
L 372.291755 489.096473 
L 373.317584 446.472805 
L 374.343414 453.972291 
L 375.369243 441.671357 
L 376.395073 442.156225 
L 377.420903 509.072207 
L 378.446732 464.346079 
L 380.498391 462.334936 
L 381.524221 460.226336 
L 382.550051 442.791368 
L 383.57588 457.737708 
L 384.60171 440.225207 
L 385.627539 457.583844 
L 386.653369 447.420224 
L 387.679198 444.564634 
L 388.705028 467.697586 
L 389.730858 476.265074 
L 390.756687 471.982355 
L 391.782517 471.804207 
L 392.808346 467.103075 
L 393.834176 471.58303 
L 394.860006 449.162334 
L 395.885835 474.887047 
L 396.911665 476.515073 
L 397.937494 466.195655 
L 398.963324 473.642481 
L 399.989153 468.788507 
L 401.014983 455.974544 
L 402.040813 458.267172 
L 403.066642 458.200572 
L 404.092472 465.657336 
L 405.118301 451.344764 
L 406.144131 483.170622 
L 407.16996 484.614041 
L 408.19579 485.48984 
L 409.22162 472.103813 
L 410.247449 454.864398 
L 411.273279 479.005542 
L 412.299108 476.414906 
L 413.324938 478.24558 
L 414.350768 479.574185 
L 415.376597 480.439695 
L 416.402427 465.053456 
L 417.428256 456.784031 
L 418.454086 477.191987 
L 419.479915 472.938229 
L 421.531575 458.700405 
L 422.557404 477.227901 
L 423.583234 473.155374 
L 424.609063 477.460316 
L 425.634893 361.893081 
L 426.660722 505.987587 
L 427.686552 468.959245 
L 428.712382 481.786342 
L 429.738211 478.643946 
L 430.764041 485.145585 
L 431.78987 474.400208 
L 432.8157 471.071913 
L 433.84153 479.531119 
L 434.867359 470.044288 
L 435.893189 475.706238 
L 436.919018 499.431192 
L 437.944848 483.956294 
L 438.970677 479.931028 
L 439.996507 477.93421 
L 441.022337 489.591099 
L 442.048166 473.540296 
L 443.073996 483.291756 
L 444.099825 474.895479 
L 445.125655 483.065767 
L 446.151485 489.150744 
L 447.177314 478.256954 
L 448.203144 501.984061 
L 449.228973 484.421824 
L 450.254803 476.1229 
L 451.280632 471.847005 
L 452.306462 498.331773 
L 453.332292 489.280537 
L 454.358121 471.067269 
L 455.383951 474.050411 
L 456.40978 488.309294 
L 457.43561 490.015057 
L 458.461439 483.011222 
L 459.487269 495.009821 
L 460.513099 487.913137 
L 461.538928 486.440933 
L 462.564758 483.146134 
L 463.590587 487.189265 
L 464.616417 485.045957 
L 465.642247 484.060241 
L 466.668076 498.945719 
L 467.693906 477.407751 
L 468.719735 507.200557 
L 469.745565 488.303246 
L 470.771394 497.623201 
L 471.797224 480.818764 
L 472.823054 489.227121 
L 473.848883 487.662229 
L 474.874713 487.206702 
L 475.900542 502.217341 
L 476.926372 487.218593 
L 477.952201 489.820649 
L 478.978031 505.433979 
L 480.003861 502.253737 
L 481.02969 492.544738 
L 482.05552 488.38254 
L 483.081349 507.632723 
L 484.107179 485.137644 
L 485.133009 512.365493 
L 486.158838 511.21753 
L 487.184668 489.436886 
L 488.210497 508.265287 
L 489.236327 496.586335 
L 490.262156 494.511614 
L 491.287986 485.975514 
L 492.313816 493.855756 
L 493.339645 493.170912 
L 494.365475 499.373454 
L 495.391304 490.557568 
L 496.417134 488.836493 
L 497.442964 518.208354 
L 498.468793 499.457728 
L 499.494623 491.49593 
L 500.520452 490.85659 
L 501.546282 499.559357 
L 502.572111 500.200021 
L 503.597941 513.422366 
L 504.623771 506.736068 
L 505.6496 502.336397 
L 506.67543 514.021608 
L 507.701259 494.334221 
L 508.727089 505.597286 
L 509.752918 502.649967 
L 510.778748 509.985794 
L 511.804578 495.556857 
L 512.830407 493.831952 
L 513.856237 517.217809 
L 514.882066 502.785463 
L 515.907896 496.377552 
L 516.933726 495.003558 
L 517.959555 495.196355 
L 518.985385 504.346944 
L 520.011214 496.347631 
L 521.037044 497.750242 
L 522.062873 516.451029 
L 523.088703 506.99158 
L 524.114533 514.760812 
L 525.140362 501.655084 
L 526.166192 506.180613 
L 527.192021 509.089422 
L 528.217851 491.887781 
L 529.24368 513.090112 
L 530.26951 507.102806 
L 531.29534 506.714373 
L 532.321169 499.410019 
L 533.346999 501.124799 
L 534.372828 515.605486 
L 535.398658 510.520222 
L 536.424488 500.598193 
L 537.450317 501.583069 
L 538.476147 508.568396 
L 539.501976 511.018447 
L 540.527806 504.722507 
L 541.553635 508.284743 
L 542.579465 514.556316 
L 543.605295 591.819807 
L 544.631124 505.459098 
L 545.656954 504.529916 
L 546.682783 514.928369 
L 547.708613 510.603763 
L 548.734443 512.642324 
L 549.760272 513.332908 
L 550.786102 507.956445 
L 551.811931 506.694277 
L 552.837761 587.557797 
L 553.86359 515.675759 
L 554.88942 504.50728 
L 555.91525 471.110675 
L 556.941079 542.341362 
L 557.966909 515.456943 
L 558.992738 513.083733 
L 560.018568 507.547365 
L 561.044397 514.046637 
L 562.070227 516.01237 
L 563.096057 526.704436 
L 564.121886 528.819502 
L 565.147716 513.598433 
L 566.173545 516.929241 
L 567.199375 510.469519 
L 568.225205 512.158031 
L 570.276864 523.550064 
L 571.302693 508.249036 
L 572.328523 510.79954 
L 573.354352 519.186911 
L 574.380182 516.465789 
L 575.406012 509.752866 
L 576.431841 530.754707 
L 577.457671 519.064264 
L 578.4835 521.340206 
L 579.50933 515.343643 
L 580.535159 513.1477 
L 581.560989 525.992724 
L 582.586819 536.146871 
L 583.612648 530.823528 
L 584.638478 533.639028 
L 585.664307 519.649514 
L 586.690137 521.745788 
L 587.715967 513.244613 
L 588.741796 514.942216 
L 589.767626 521.585599 
L 590.793455 524.810066 
L 591.819285 516.387329 
L 592.845114 517.233142 
L 593.870944 526.711941 
L 594.896774 523.034159 
L 595.922603 524.647997 
L 596.948433 524.064453 
L 597.974262 516.106691 
L 599.000092 517.182957 
L 600.025922 529.782627 
L 601.051751 524.671808 
L 602.077581 485.306879 
L 603.10341 546.309232 
L 604.12924 526.734205 
L 605.155069 529.325871 
L 606.180899 518.992375 
L 607.206729 524.942056 
L 608.232558 528.64815 
L 609.258388 533.191651 
L 610.284217 519.808835 
L 611.310047 537.545029 
L 612.335876 527.243815 
L 613.361706 527.735825 
L 614.387536 520.24313 
L 615.413365 520.364714 
L 616.439195 529.646133 
L 617.465024 527.76915 
L 618.490854 521.561166 
L 619.516684 520.466228 
L 620.542513 530.439594 
L 621.568343 530.233208 
L 622.594172 525.462744 
L 623.620002 524.307675 
L 624.645831 532.278834 
L 625.671661 531.147615 
L 626.697491 525.216201 
L 627.72332 524.452601 
L 628.74915 549.167629 
L 629.774979 533.032511 
L 630.800809 524.377269 
L 631.826638 524.45755 
L 632.852468 530.007698 
L 633.878298 531.05506 
L 634.904127 522.667371 
L 635.929957 525.090779 
L 636.955786 529.043862 
L 637.981616 532.291291 
L 639.007446 530.32796 
L 640.033275 525.430789 
L 641.059105 538.478947 
L 642.084934 535.693434 
L 643.110764 526.470003 
L 644.136593 527.951807 
L 645.162423 533.41467 
L 646.188253 534.564088 
L 647.214082 534.551102 
L 648.239912 537.034126 
L 649.265741 528.503429 
L 650.291571 528.85404 
L 651.3174 542.719616 
L 652.34323 537.917284 
L 653.36906 529.524578 
L 654.394889 532.000677 
L 655.420719 536.748985 
L 656.446548 537.714074 
L 657.472378 529.366669 
L 658.498208 531.029707 
L 659.524037 537.705028 
L 660.549867 539.326494 
L 661.575696 531.261158 
L 662.601526 533.098667 
L 663.627355 518.585332 
L 664.653185 541.638467 
L 665.679015 571.440874 
L 666.704844 531.129522 
L 667.730674 538.558492 
L 668.756503 539.70295 
L 669.782333 532.221318 
L 670.808163 533.975224 
L 671.833992 540.285486 
L 672.859822 541.000971 
L 673.885651 534.538286 
L 674.911481 534.865217 
L 675.93731 540.941839 
L 676.96314 542.399858 
L 677.98897 534.530677 
L 679.014799 534.916101 
L 680.040629 542.301496 
L 681.066458 541.367557 
L 682.092288 535.176783 
L 683.118117 536.224665 
L 684.143947 544.309079 
L 685.169777 544.307828 
L 686.195606 535.48931 
L 687.221436 537.748328 
L 688.247265 597.755301 
L 689.273095 556.235567 
L 690.298925 529.915718 
L 692.350584 545.519917 
L 693.376413 544.467689 
L 694.402243 538.384778 
L 695.428072 537.644758 
L 696.453902 545.862141 
L 697.479732 545.893438 
L 698.505561 538.972387 
L 699.531391 538.553903 
L 700.55722 545.880871 
L 701.58305 544.927287 
L 702.608879 540.409071 
L 703.634709 538.682969 
L 704.660539 488.868003 
L 705.686368 554.616594 
L 706.712198 538.760088 
L 707.738027 541.736818 
L 708.763857 546.888031 
L 709.789687 547.299251 
L 710.815516 541.084943 
L 711.841346 541.820173 
L 712.867175 544.051995 
L 713.893005 547.390025 
L 714.918834 540.987474 
L 715.944664 543.274181 
L 716.970494 547.284187 
L 717.996323 548.358185 
L 719.022153 541.423655 
L 720.047982 542.459829 
L 721.073812 551.370658 
L 722.099642 544.807576 
L 723.125471 547.071639 
L 724.151301 543.267021 
L 725.17713 548.743565 
L 726.20296 549.118803 
L 727.228789 544.42633 
L 728.254619 543.370145 
L 729.280449 550.653885 
L 730.306278 573.749821 
L 731.332108 543.582128 
L 732.357937 543.800444 
L 733.383767 549.458329 
L 734.409596 551.556238 
L 735.435426 548.100515 
L 736.461256 558.500259 
L 737.487085 562.647576 
L 738.512915 557.755361 
L 739.538744 520.235085 
L 740.564574 523.251108 
L 741.590404 549.162192 
L 742.616233 554.819889 
L 743.642063 546.437157 
L 744.667892 546.534161 
L 745.693722 552.165097 
L 746.719551 552.849651 
L 747.745381 550.528503 
L 748.771211 545.471408 
L 749.79704 553.97297 
L 750.82287 553.322519 
L 751.848699 547.901728 
L 752.874529 547.180006 
L 753.900358 554.054908 
L 754.926188 554.590136 
L 755.952018 547.013625 
L 756.977847 547.733452 
L 758.003677 553.829261 
L 759.029506 553.193444 
L 760.055336 560.470144 
L 761.081166 551.018998 
L 762.106995 554.418686 
L 763.132825 554.383554 
L 764.158654 548.436322 
L 765.184484 550.032001 
L 766.210313 554.425072 
L 767.236143 554.914728 
L 768.261973 522.77483 
L 769.287802 548.957704 
L 770.313632 557.516356 
L 771.339461 555.579576 
L 772.365291 550.475754 
L 773.391121 546.599824 
L 774.41695 555.395063 
L 775.44278 555.961596 
L 776.468609 548.540283 
L 777.494439 548.977285 
L 778.520268 557.595185 
L 779.546098 559.495937 
L 780.571928 551.006708 
L 781.597757 550.252168 
L 782.623587 556.833729 
L 783.649416 559.183397 
L 784.675246 549.758879 
L 785.701075 550.373251 
L 786.726905 556.480162 
L 787.752735 555.74555 
L 788.778564 549.735018 
L 789.804394 551.452669 
L 790.830223 559.556101 
L 791.856053 557.064333 
L 792.881883 551.416912 
L 793.907712 552.285867 
L 794.933542 558.615074 
L 795.959371 557.459184 
L 796.985201 553.410044 
L 798.01103 550.047322 
L 800.06269 568.563758 
L 801.088519 552.785512 
L 802.114349 555.202699 
L 803.140178 558.793645 
L 804.166008 559.048483 
L 805.191837 552.275875 
L 806.217667 538.497352 
L 807.243497 562.301977 
L 808.269326 556.906997 
L 809.295156 552.560341 
L 810.320985 552.062063 
L 811.346815 559.309186 
L 812.372645 557.134854 
L 813.398474 553.949244 
L 814.424304 555.179993 
L 815.450133 558.954833 
L 816.475963 560.62079 
L 817.501792 552.807006 
L 818.527622 555.306126 
L 819.553452 558.160022 
L 820.579281 559.595516 
L 821.605111 556.39293 
L 822.63094 554.221778 
L 823.65677 561.269058 
L 824.6826 560.32869 
L 825.708429 555.158515 
L 826.734259 554.152952 
L 827.760088 560.930379 
L 828.785918 561.0102 
L 829.811747 554.940188 
L 830.837577 556.621104 
L 831.863407 558.923541 
L 832.889236 562.226994 
L 833.915066 555.052666 
L 834.940895 555.912483 
L 835.966725 560.289514 
L 836.992554 561.72079 
L 838.018384 558.248824 
L 839.044214 556.249666 
L 840.070043 561.501922 
L 842.121702 556.705948 
L 843.147532 556.327413 
L 844.173362 562.83609 
L 845.199191 563.784775 
L 846.225021 556.878071 
L 847.25085 557.693158 
L 848.27668 563.17818 
L 849.302509 563.502286 
L 850.328339 555.63384 
L 851.354169 557.456715 
L 852.379998 564.623894 
L 853.405828 563.257538 
L 854.431657 558.444627 
L 855.457487 559.136414 
L 856.483316 564.290106 
L 857.509146 565.837816 
L 858.534976 558.28954 
L 859.560805 559.791126 
L 860.586635 563.405694 
L 861.612464 564.368925 
L 862.638294 558.488214 
L 863.664124 557.269797 
L 864.689953 565.030048 
L 865.715783 563.632022 
L 867.767442 558.447826 
L 868.793271 564.376984 
L 869.819101 566.847038 
L 870.844931 560.022223 
L 871.87076 560.259923 
L 872.89659 565.188992 
L 873.922419 561.082118 
L 874.948249 557.447686 
L 875.974078 559.64867 
L 876.999908 557.566576 
L 878.025738 568.155229 
L 879.051567 559.519049 
L 880.077397 558.111494 
L 881.103226 569.061565 
L 882.129056 565.460202 
L 883.154886 558.716604 
L 884.180715 560.188642 
L 885.206545 568.529459 
L 886.232374 565.630897 
L 887.258204 559.94679 
L 888.284033 560.674511 
L 889.309863 566.768417 
L 890.335693 567.971399 
L 891.361522 561.788285 
L 892.387352 562.456722 
L 893.413181 556.196914 
L 895.464841 564.354098 
L 896.49067 561.842567 
L 897.5165 566.389273 
L 898.542329 566.384025 
L 899.568159 556.57743 
L 900.593988 561.821716 
L 902.645648 569.327271 
L 903.671477 560.334034 
L 904.697307 560.917665 
L 905.723136 568.596614 
L 906.748966 567.810827 
L 907.774795 563.312945 
L 908.800625 563.744118 
L 910.852284 569.214255 
L 911.878114 563.420465 
L 912.903943 563.46133 
L 913.929773 565.598279 
L 914.955603 559.628337 
L 915.981432 567.289745 
L 917.007262 562.568268 
L 918.033091 567.88085 
L 919.058921 560.166239 
L 920.08475 563.670075 
L 922.13641 566.318191 
L 923.162239 572.230313 
L 924.188069 566.277727 
L 925.213898 563.836931 
L 926.239728 570.018818 
L 927.265557 569.593866 
L 928.291387 554.712319 
L 929.317217 558.303102 
L 930.343046 568.375568 
L 931.368876 570.424687 
L 932.394705 567.022834 
L 933.420535 565.544345 
L 934.446365 571.400494 
L 935.472194 569.656332 
L 936.498024 567.516239 
L 937.523853 567.160969 
L 938.549683 570.3215 
L 939.575512 570.938168 
L 940.601342 565.388641 
L 941.627172 567.002198 
L 942.653001 571.2142 
L 943.678831 571.202385 
L 944.70466 565.309699 
L 945.73049 567.607356 
L 946.75632 569.61226 
L 947.782149 571.98915 
L 948.807979 563.94417 
L 949.833808 563.893306 
L 950.859638 570.576585 
L 951.885467 571.317054 
L 952.911297 567.365105 
L 953.937127 567.053128 
L 954.962956 571.944796 
L 955.988786 572.27107 
L 957.014615 569.245825 
L 958.040445 566.737616 
L 959.066274 572.278348 
L 960.092104 572.261099 
L 961.117934 567.460827 
L 962.143763 569.701053 
L 963.169593 570.090468 
L 964.195422 574.065505 
L 965.221252 569.485997 
L 966.247082 567.945121 
L 967.272911 573.086942 
L 968.298741 573.691501 
L 969.32457 568.577771 
L 970.3504 570.690942 
L 971.376229 573.150906 
L 972.402059 574.046356 
L 973.427889 569.078242 
L 974.453718 568.785254 
L 975.479548 574.734196 
L 976.505377 575.920679 
L 977.531207 569.338618 
L 978.557036 572.485705 
L 979.582866 574.490797 
L 980.608696 573.973782 
L 981.634525 568.672796 
L 982.660355 568.952093 
L 983.686184 566.38407 
L 984.712014 574.403565 
L 985.737844 568.57446 
L 986.763673 569.631627 
L 987.789503 575.713295 
L 988.815332 574.407251 
L 989.841162 570.063846 
L 990.866991 573.52828 
L 991.892821 572.257357 
L 992.918651 574.860281 
L 993.94448 570.554375 
L 994.97031 570.519683 
L 995.996139 575.35429 
L 997.021969 568.737097 
L 998.047799 570.600471 
L 999.073628 571.383722 
L 1000.099458 573.710987 
L 1001.125287 575.027641 
L 1002.151117 569.900481 
L 1003.176946 569.143374 
L 1004.202776 576.116991 
L 1005.228606 574.215159 
L 1006.254435 563.652998 
L 1007.280265 570.61992 
L 1008.306094 575.864287 
L 1009.331924 575.117915 
L 1010.357753 571.776381 
L 1011.383583 572.905218 
L 1012.409413 573.594588 
L 1013.435242 575.994985 
L 1014.461072 572.711949 
L 1015.486901 571.415131 
L 1016.512731 569.236846 
L 1017.538561 571.610865 
L 1018.56439 575.89928 
L 1019.59022 571.752195 
L 1020.616049 577.058016 
L 1021.641879 576.691488 
L 1022.667708 571.354924 
L 1023.693538 574.478357 
L 1024.719368 572.757072 
L 1025.745197 571.962555 
L 1026.771027 573.828117 
L 1027.796856 573.095388 
L 1028.822686 573.954086 
L 1029.848515 591.137965 
L 1030.874345 571.457948 
L 1031.900175 573.341504 
L 1032.926004 571.456206 
L 1033.951834 565.044671 
L 1034.977663 573.470386 
L 1036.003493 574.2316 
L 1037.029323 573.578076 
L 1038.055152 573.541413 
L 1039.080982 573.271682 
L 1040.106811 573.55622 
L 1041.132641 572.252386 
L 1042.15847 574.883996 
L 1043.1843 572.003147 
L 1044.21013 574.566259 
L 1045.235959 571.856743 
L 1046.261789 574.621396 
L 1047.287618 574.406112 
L 1048.313448 573.232915 
L 1049.339278 575.806174 
L 1050.365107 574.811165 
L 1051.390937 576.070746 
L 1052.416766 573.023497 
L 1053.442596 574.728976 
L 1054.468425 576.170487 
L 1055.494255 574.5176 
L 1057.545914 574.897758 
L 1058.571744 574.658807 
L 1059.597573 574.302211 
L 1060.623403 575.742312 
L 1061.649232 576.53405 
L 1062.675062 575.186471 
L 1063.700892 574.80308 
L 1064.726721 573.236081 
L 1065.752551 574.948055 
L 1066.77838 576.319042 
L 1067.80421 573.339983 
L 1068.83004 569.112722 
L 1069.855869 576.51432 
L 1070.881699 575.855146 
L 1072.933358 576.215764 
L 1073.959187 574.429016 
L 1074.985017 573.832122 
L 1077.036676 577.965456 
L 1078.062506 574.926714 
L 1079.088335 575.540169 
L 1080.114165 571.398728 
L 1081.139994 577.18892 
L 1082.165824 576.890267 
L 1083.191654 574.416364 
L 1084.217483 565.414446 
L 1085.243313 576.467049 
L 1086.269142 575.555688 
L 1087.294972 577.02682 
L 1088.320802 576.731076 
L 1089.346631 577.72422 
L 1090.372461 576.176356 
L 1091.39829 576.709672 
L 1092.42412 576.369723 
L 1093.449949 577.090813 
L 1094.475779 577.281919 
L 1095.501609 566.052847 
L 1096.527438 577.044688 
L 1097.553268 577.4657 
L 1098.579097 576.100045 
L 1099.604927 593.357868 
L 1100.630757 576.804304 
L 1101.656586 578.339259 
L 1102.682416 578.979949 
L 1103.708245 576.945318 
L 1104.734075 577.518254 
L 1105.759904 578.524193 
L 1106.785734 566.795763 
L 1107.811564 578.96588 
L 1108.837393 578.26684 
L 1110.889052 575.235466 
L 1111.914882 578.497061 
L 1112.940711 572.707213 
L 1113.966541 569.940242 
L 1114.992371 576.125484 
L 1116.0182 577.496459 
L 1117.04403 580.310336 
L 1118.069859 577.174359 
L 1119.095689 577.783183 
L 1120.121519 578.188547 
L 1121.147348 568.807727 
L 1122.173178 578.205642 
L 1123.199007 579.866369 
L 1124.224837 578.278815 
L 1125.250666 577.31127 
L 1126.276496 578.736409 
L 1127.302326 578.642093 
L 1128.328155 578.681051 
L 1129.353985 577.428348 
L 1130.379814 577.3184 
L 1131.405644 579.928927 
L 1132.431473 571.133364 
L 1133.457303 578.962043 
L 1134.483133 578.517312 
L 1135.508962 579.29308 
L 1136.534792 581.533944 
L 1137.560621 582.096974 
L 1138.586451 578.461695 
L 1139.612281 576.559266 
L 1140.63811 578.327111 
L 1141.66394 580.618942 
L 1142.689769 577.256937 
L 1143.715599 578.680041 
L 1144.741428 577.847218 
L 1145.767258 579.427952 
L 1146.793088 575.852547 
L 1147.818917 580.896892 
L 1149.870576 578.569338 
L 1150.896406 578.081286 
L 1151.922235 578.051939 
L 1152.948065 576.589054 
L 1153.973895 578.810112 
L 1154.999724 578.479087 
L 1156.025554 581.197974 
L 1157.051383 578.362243 
L 1158.077213 572.255999 
L 1159.103043 579.283612 
L 1160.128872 578.509302 
L 1161.154702 578.352648 
L 1162.180531 579.282717 
L 1163.206361 580.985652 
L 1164.23219 579.957213 
L 1165.25802 580.950157 
L 1166.28385 579.954054 
L 1167.309679 593.281861 
L 1168.335509 579.701948 
L 1169.361338 580.184649 
L 1170.387168 580.16682 
L 1172.438827 581.448631 
L 1173.464657 580.023034 
L 1174.490486 581.549057 
L 1175.516316 580.819286 
L 1176.542145 581.508353 
L 1177.567975 580.07399 
L 1178.593805 579.545278 
L 1179.619634 570.943123 
L 1180.645464 579.080948 
L 1181.671293 579.081073 
L 1182.697123 574.900051 
L 1183.722952 580.02613 
L 1184.748782 582.319849 
L 1185.774612 581.716213 
L 1186.800441 573.000821 
L 1187.826271 582.07589 
L 1188.8521 581.321011 
L 1189.87793 583.301149 
L 1190.90376 580.835056 
L 1191.929589 582.082995 
L 1192.955419 582.6781 
L 1193.981248 568.980585 
L 1195.007078 582.542262 
L 1196.032907 582.033328 
L 1197.058737 581.312307 
L 1198.084567 581.265563 
L 1199.110396 581.764099 
L 1200.136226 575.212278 
L 1201.162055 583.762825 
L 1202.187885 581.985186 
L 1203.213714 581.857531 
L 1204.239544 582.794577 
L 1205.265374 581.611425 
L 1206.291203 581.792236 
L 1207.317033 581.780989 
L 1208.342862 581.951831 
L 1209.368692 581.63328 
L 1210.394522 582.143673 
L 1211.420351 580.790158 
L 1212.446181 580.401358 
L 1213.47201 581.779787 
L 1214.49784 582.274754 
L 1215.523669 582.459951 
L 1216.549499 583.465499 
L 1217.575329 583.283468 
L 1218.601158 577.086879 
L 1219.626988 582.938277 
L 1221.678647 582.377158 
L 1222.704477 583.237368 
L 1223.730306 582.826598 
L 1224.756136 583.912725 
L 1225.781965 582.070255 
L 1226.807795 582.181243 
L 1227.833624 584.719956 
L 1228.859454 578.620382 
L 1229.885284 584.211674 
L 1230.911113 584.019305 
L 1231.936943 584.051038 
L 1232.962772 583.898814 
L 1233.988602 582.668055 
L 1235.014431 584.102453 
L 1236.040261 576.579196 
L 1237.066091 584.056656 
L 1238.09192 584.398894 
L 1239.11775 583.942961 
L 1240.143579 581.111985 
L 1241.169409 586.06773 
L 1242.195239 582.152378 
L 1243.221068 589.467538 
L 1244.246898 583.948151 
L 1245.272727 584.891077 
L 1245.272727 584.891077 
" style="fill:none;stroke:#1f77b4;stroke-linecap:square;stroke-width:1.5;"/>
   </g>
   <g id="line2d_20">
    <path clip-path="url(#p337c7d8bc5)" d="M 230.727273 370.239475 
L 231.753102 285.3775 
L 232.778932 280.80859 
L 233.804761 335.412728 
L 235.856421 323.486252 
L 236.88225 362.000517 
L 237.90808 335.21481 
L 238.933909 361.501528 
L 239.959739 520.162634 
L 240.985569 359.460069 
L 242.011398 366.110181 
L 243.037228 379.782724 
L 244.063057 366.395104 
L 245.088887 392.444045 
L 246.114716 377.495694 
L 247.140546 392.772189 
L 248.166376 383.648572 
L 249.192205 384.122628 
L 250.218035 388.340344 
L 251.243864 390.152203 
L 252.269694 392.972357 
L 253.295523 393.319509 
L 254.321353 389.964642 
L 255.347183 410.652883 
L 256.373012 410.137227 
L 257.398842 406.578893 
L 258.424671 399.04573 
L 259.450501 415.07096 
L 260.476331 419.818515 
L 261.50216 431.287723 
L 262.52799 413.568442 
L 263.553819 432.303679 
L 264.579649 427.348014 
L 265.605478 423.248548 
L 266.631308 430.857947 
L 267.657138 412.651089 
L 268.682967 325.854254 
L 269.708797 487.290501 
L 270.734626 444.578393 
L 271.760456 444.295437 
L 272.786286 447.473379 
L 273.812115 440.316933 
L 274.837945 442.566368 
L 275.863774 451.600218 
L 276.889604 453.371044 
L 277.915433 453.216602 
L 278.941263 443.376449 
L 279.967093 445.539244 
L 280.992922 430.572033 
L 282.018752 463.85442 
L 283.044581 445.629782 
L 284.070411 460.067497 
L 285.09624 464.258216 
L 286.12207 465.419808 
L 287.1479 466.981196 
L 288.173729 470.307923 
L 289.199559 466.091244 
L 290.225388 452.087221 
L 291.251218 463.643004 
L 292.277048 472.595081 
L 293.302877 458.787098 
L 294.328707 483.655912 
L 295.354536 474.382779 
L 296.380366 472.780332 
L 297.406195 490.989381 
L 298.432025 479.475983 
L 299.457855 473.812561 
L 300.483684 471.590713 
L 301.509514 470.335642 
L 302.535343 476.305533 
L 303.561173 474.982205 
L 304.587002 472.817328 
L 305.612832 478.411227 
L 306.638662 456.432686 
L 307.664491 493.799156 
L 308.690321 480.582368 
L 309.71615 493.879877 
L 310.74198 486.085547 
L 311.76781 483.006471 
L 312.793639 492.911631 
L 313.819469 498.934845 
L 314.845298 482.78695 
L 315.871128 491.460627 
L 316.896957 481.811637 
L 317.922787 491.349091 
L 318.948617 479.783546 
L 321.000276 501.414755 
L 322.026105 489.918665 
L 323.051935 488.420427 
L 324.077765 492.646887 
L 325.103594 488.329272 
L 326.129424 494.790445 
L 327.155253 489.177848 
L 329.206912 500.269296 
L 330.232742 499.220956 
L 331.258572 488.416977 
L 332.284401 425.177879 
L 333.310231 537.978567 
L 334.33606 502.730922 
L 335.36189 504.547687 
L 336.387719 504.203995 
L 337.413549 498.909062 
L 338.439379 513.704802 
L 339.465208 500.019962 
L 340.491038 507.805967 
L 341.516867 520.026755 
L 342.542697 493.3369 
L 343.568527 495.952128 
L 344.594356 510.749022 
L 345.620186 505.999704 
L 346.646015 510.835542 
L 347.671845 506.687574 
L 348.697674 512.523309 
L 349.723504 506.527089 
L 350.749334 514.76798 
L 351.775163 509.232232 
L 352.800993 516.07837 
L 353.826822 511.424532 
L 354.852652 512.108099 
L 355.878481 515.554915 
L 356.904311 519.539863 
L 357.930141 512.291126 
L 358.95597 520.039406 
L 359.9818 514.867173 
L 361.007629 519.592256 
L 362.033459 514.947413 
L 363.059289 521.825718 
L 364.085118 509.607166 
L 365.110948 524.015932 
L 366.136777 515.336117 
L 367.162607 532.92853 
L 368.188436 518.282113 
L 369.214266 523.877125 
L 370.240096 519.997678 
L 371.265925 524.153941 
L 372.291755 519.182467 
L 373.317584 525.85383 
L 374.343414 522.731537 
L 375.369243 527.194458 
L 376.395073 524.140785 
L 377.420903 528.618432 
L 378.446732 536.878982 
L 379.472562 531.062346 
L 380.498391 514.58401 
L 381.524221 531.888978 
L 382.550051 527.557074 
L 383.57588 531.59356 
L 384.60171 527.46369 
L 385.627539 559.634569 
L 386.653369 527.713847 
L 387.679198 533.596237 
L 388.705028 528.031203 
L 389.730858 487.581997 
L 390.756687 532.412225 
L 391.782517 533.721143 
L 392.808346 531.908306 
L 393.834176 540.757185 
L 394.860006 532.828704 
L 395.885835 537.184073 
L 396.911665 533.426722 
L 397.937494 538.963144 
L 398.963324 533.303193 
L 399.989153 528.338009 
L 401.014983 548.562171 
L 402.040813 541.792495 
L 403.066642 536.053209 
L 404.092472 542.201699 
L 405.118301 537.943044 
L 406.144131 543.812924 
L 407.16996 535.469968 
L 408.19579 543.234931 
L 409.22162 537.039184 
L 410.247449 545.038242 
L 411.273279 533.884006 
L 412.299108 547.089088 
L 413.324938 539.851859 
L 414.350768 544.165637 
L 415.376597 541.005162 
L 416.402427 545.411673 
L 417.428256 539.797235 
L 418.454086 543.86459 
L 419.479915 542.291389 
L 420.505745 547.783378 
L 421.531575 537.964508 
L 422.557404 548.979044 
L 423.583234 542.556333 
L 424.609063 547.334129 
L 425.634893 545.306242 
L 426.660722 548.870141 
L 427.686552 543.956445 
L 428.712382 550.708804 
L 429.738211 545.660078 
L 430.764041 552.731875 
L 431.78987 546.496753 
L 432.8157 555.708864 
L 433.84153 547.026568 
L 434.867359 552.303443 
L 435.893189 549.714197 
L 436.919018 553.242237 
L 437.944848 543.999334 
L 438.970677 553.642897 
L 439.996507 549.474122 
L 441.022337 554.774328 
L 442.048166 550.08198 
L 443.073996 549.003537 
L 444.099825 546.313214 
L 445.125655 574.334223 
L 446.151485 551.03142 
L 447.177314 554.361253 
L 448.203144 552.02744 
L 449.228973 556.017074 
L 450.254803 552.543846 
L 451.280632 557.724682 
L 452.306462 551.95835 
L 453.332292 555.608718 
L 454.358121 552.844858 
L 455.383951 559.378854 
L 456.40978 552.126482 
L 457.43561 561.963223 
L 458.461439 554.989412 
L 459.487269 559.811868 
L 460.513099 555.618689 
L 461.538928 561.278777 
L 462.564758 554.718685 
L 463.590587 567.370885 
L 464.616417 556.358676 
L 465.642247 561.858018 
L 466.668076 556.856 
L 467.693906 562.251211 
L 468.719735 557.334395 
L 469.745565 561.350316 
L 470.771394 558.156579 
L 471.797224 562.791082 
L 472.823054 559.325225 
L 473.848883 561.607248 
L 474.874713 559.363471 
L 475.900542 563.856493 
L 476.926372 558.621521 
L 477.952201 563.157254 
L 478.978031 553.596899 
L 480.003861 564.276114 
L 481.02969 556.547607 
L 482.05552 564.549087 
L 483.081349 558.906944 
L 484.107179 564.479237 
L 485.133009 561.297265 
L 486.158838 565.362559 
L 487.184668 561.738197 
L 488.210497 567.199379 
L 489.236327 564.002165 
L 490.262156 566.723881 
L 491.287986 562.133124 
L 492.313816 566.115817 
L 493.339645 560.100187 
L 494.365475 549.184202 
L 495.391304 555.147288 
L 496.417134 570.753357 
L 497.442964 563.790533 
L 498.468793 568.834903 
L 499.494623 564.693487 
L 500.520452 569.936323 
L 501.546282 566.055093 
L 502.572111 561.422964 
L 503.597941 569.938058 
L 504.623771 569.494787 
L 505.6496 567.222835 
L 506.67543 570.601923 
L 507.701259 567.156378 
L 508.727089 571.437639 
L 509.752918 568.386472 
L 510.778748 571.42298 
L 511.804578 566.147251 
L 512.830407 572.820416 
L 513.856237 567.15596 
L 514.882066 570.815836 
L 515.907896 568.31675 
L 516.933726 573.007875 
L 517.959555 568.015315 
L 518.985385 572.89436 
L 520.011214 568.571505 
L 521.037044 571.328938 
L 522.062873 561.806182 
L 523.088703 576.666208 
L 524.114533 569.582292 
L 525.140362 574.239014 
L 526.166192 570.159017 
L 527.192021 574.301685 
L 528.217851 569.270897 
L 529.24368 572.510777 
L 530.26951 570.460618 
L 531.29534 575.070848 
L 532.321169 572.94552 
L 533.346999 574.785431 
L 534.372828 576.321476 
L 535.398658 575.050502 
L 536.424488 572.41862 
L 537.450317 574.876475 
L 538.476147 572.576542 
L 539.501976 575.469109 
L 540.527806 573.367098 
L 541.553635 580.529485 
L 542.579465 559.016997 
L 543.605295 586.794145 
L 544.631124 573.31905 
L 545.656954 576.701273 
L 546.682783 573.163032 
L 547.708613 574.977413 
L 548.734443 559.181035 
L 549.760272 558.721098 
L 550.786102 576.327269 
L 551.811931 577.67609 
L 552.837761 574.373036 
L 553.86359 577.660676 
L 554.88942 575.468399 
L 555.91525 578.688107 
L 556.941079 575.08754 
L 557.966909 577.968415 
L 558.992738 577.650216 
L 560.018568 580.479727 
L 561.044397 576.064013 
L 562.070227 580.431757 
L 563.096057 576.209298 
L 564.121886 580.405729 
L 565.147716 574.666874 
L 566.173545 579.168822 
L 567.199375 576.632589 
L 568.225205 579.837657 
L 569.251034 575.787991 
L 570.276864 581.969065 
L 571.302693 577.742283 
L 572.328523 606.969805 
L 573.354352 578.449454 
L 574.380182 581.221525 
L 575.406012 578.834414 
L 576.431841 582.062301 
L 577.457671 578.534111 
L 578.4835 581.691089 
L 579.50933 581.013751 
L 580.535159 581.909766 
L 581.560989 579.056627 
L 582.586819 582.707622 
L 583.612648 580.035878 
L 584.638478 582.538837 
L 585.664307 581.008692 
L 586.690137 583.803191 
L 587.715967 593.649171 
L 588.741796 583.448344 
L 589.767626 579.846709 
L 590.793455 584.108823 
L 591.819285 579.792406 
L 592.845114 584.749765 
L 593.870944 580.639796 
L 594.896774 585.067263 
L 595.922603 579.491665 
L 596.948433 583.251244 
L 597.974262 579.561153 
L 599.000092 584.629401 
L 600.025922 582.305902 
L 601.051751 584.102054 
L 602.077581 581.817955 
L 603.10341 585.935791 
L 604.12924 581.044721 
L 605.155069 546.489258 
L 606.180899 584.946962 
L 607.206729 578.863514 
L 608.232558 582.001626 
L 609.258388 586.218437 
L 610.284217 582.652189 
L 611.310047 585.792473 
L 612.335876 583.238742 
L 613.361706 585.269384 
L 614.387536 582.060388 
L 615.413365 587.325643 
L 616.439195 582.12207 
L 617.465024 587.281612 
L 618.490854 582.631238 
L 619.516684 586.679535 
L 620.542513 583.84112 
L 621.568343 586.964934 
L 622.594172 584.412875 
L 623.620002 588.210492 
L 624.645831 584.665613 
L 625.671661 588.363078 
L 626.697491 584.2612 
L 627.72332 587.241899 
L 628.74915 584.772873 
L 629.774979 588.60243 
L 630.800809 590.71068 
L 631.826638 589.195174 
L 632.852468 585.576398 
L 633.878298 587.561179 
L 634.904127 585.838233 
L 635.929957 589.638119 
L 636.955786 584.520399 
L 637.981616 589.671276 
L 639.007446 586.650832 
L 640.033275 588.170898 
L 641.059105 585.64936 
L 642.084934 589.057778 
L 643.110764 586.019013 
L 644.136593 589.473857 
L 645.162423 587.675102 
L 646.188253 589.898907 
L 647.214082 585.673616 
L 648.239912 588.464022 
L 649.265741 586.019226 
L 650.291571 589.119661 
L 651.3174 586.225093 
L 652.34323 590.293801 
L 653.36906 587.690658 
L 654.394889 590.418922 
L 655.420719 587.556135 
L 656.446548 590.266805 
L 657.472378 587.674493 
L 658.498208 590.77052 
L 659.524037 587.667055 
L 660.549867 590.791021 
L 661.575696 588.807328 
L 662.601526 589.305843 
L 663.627355 587.299997 
L 664.653185 591.585786 
L 665.679015 588.766554 
L 666.704844 591.277657 
L 667.730674 588.876191 
L 668.756503 590.280771 
L 669.782333 589.868491 
L 670.808163 591.061056 
L 671.833992 588.220249 
L 672.859822 591.062305 
L 673.885651 575.311341 
L 674.911481 591.522952 
L 675.93731 588.653009 
L 676.96314 593.037949 
L 677.98897 589.73802 
L 679.014799 593.186273 
L 680.040629 589.20808 
L 681.066458 593.210238 
L 682.092288 589.600575 
L 683.118117 593.598294 
L 684.143947 600.089124 
L 685.169777 591.251037 
L 686.195606 591.460284 
L 687.221436 591.95419 
L 688.247265 590.699715 
L 689.273095 595.994219 
L 690.298925 591.746491 
L 691.324754 594.552753 
L 692.350584 591.847943 
L 693.376413 596.617122 
L 694.402243 590.370276 
L 695.428072 594.354639 
L 696.453902 591.862938 
L 697.479732 593.915978 
L 698.505561 590.694538 
L 699.531391 593.902815 
L 700.55722 591.343574 
L 701.58305 594.749441 
L 702.608879 590.849783 
L 703.634709 593.337142 
L 704.660539 592.76869 
L 705.686368 595.230695 
L 706.712198 593.096974 
L 707.738027 595.036948 
L 708.763857 592.122159 
L 709.789687 602.702209 
L 710.815516 591.309904 
L 711.841346 594.642603 
L 712.867175 592.253211 
L 713.893005 573.772121 
L 714.918834 594.917037 
L 715.944664 595.40411 
L 716.970494 592.008888 
L 717.996323 595.433565 
L 719.022153 593.411318 
L 720.047982 594.956812 
L 721.073812 593.111217 
L 722.099642 595.897089 
L 723.125471 593.320042 
L 724.151301 595.631664 
L 725.17713 593.328123 
L 726.20296 596.011068 
L 727.228789 593.729487 
L 728.254619 595.957245 
L 729.280449 593.780495 
L 730.306278 596.680326 
L 731.332108 594.17508 
L 732.357937 595.799675 
L 733.383767 592.946007 
L 734.409596 597.610187 
L 735.435426 595.804839 
L 736.461256 597.332461 
L 737.487085 594.27071 
L 738.512915 597.44167 
L 739.538744 592.906255 
L 740.564574 596.419666 
L 741.590404 594.471586 
L 742.616233 597.934895 
L 743.642063 595.53832 
L 744.667892 597.232127 
L 745.693722 594.513044 
L 746.719551 598.01449 
L 747.745381 596.096979 
L 748.771211 596.894465 
L 749.79704 595.859977 
L 750.82287 596.803853 
L 751.848699 594.987556 
L 752.874529 579.143101 
L 753.900358 602.040117 
L 754.926188 598.126654 
L 755.952018 603.374144 
L 756.977847 598.909201 
L 758.003677 596.605645 
L 759.029506 598.792128 
L 760.055336 596.947985 
L 761.081166 598.067208 
L 762.106995 596.4119 
L 763.132825 597.445835 
L 764.158654 597.341929 
L 765.184484 598.894144 
L 766.210313 596.642164 
L 767.236143 599.81955 
L 768.261973 596.624148 
L 769.287802 599.379908 
L 770.313632 595.750076 
L 771.339461 598.556019 
L 772.365291 595.947856 
L 773.391121 599.163706 
L 774.41695 597.089289 
L 775.44278 600.151741 
L 776.468609 598.33251 
L 777.494439 599.492598 
L 778.520268 597.843507 
L 779.546098 599.770472 
L 780.571928 597.362166 
L 781.597757 599.881752 
L 782.623587 597.559054 
L 783.649416 599.172877 
L 784.675246 597.382029 
L 785.701075 600.509934 
L 786.726905 596.542953 
L 787.752735 599.331467 
L 788.778564 597.522283 
L 789.804394 600.390655 
L 790.830223 571.764737 
L 791.856053 599.215922 
L 792.881883 598.236679 
L 793.907712 600.399683 
L 794.933542 598.853364 
L 795.959371 600.298018 
L 796.985201 598.939088 
L 798.01103 600.713873 
L 799.03686 597.706553 
L 800.06269 599.984817 
L 801.088519 598.790046 
L 802.114349 600.834662 
L 803.140178 599.954799 
L 804.166008 601.100338 
L 805.191837 599.369893 
L 806.217667 599.567799 
L 807.243497 598.585768 
L 808.269326 601.060924 
L 809.295156 599.063189 
L 810.320985 606.501423 
L 811.346815 598.894687 
L 812.372645 601.076724 
L 813.398474 598.283215 
L 814.424304 601.335073 
L 815.450133 598.749365 
L 816.475963 601.23576 
L 817.501792 599.628542 
L 818.527622 600.732355 
L 819.553452 599.493258 
L 820.579281 600.42326 
L 821.605111 599.432337 
L 822.63094 601.426901 
L 823.65677 599.718398 
L 824.6826 601.978518 
L 825.708429 599.899223 
L 826.734259 601.359828 
L 827.760088 595.931962 
L 828.785918 602.189442 
L 829.811747 599.448908 
L 830.837577 602.234613 
L 831.863407 600.080661 
L 832.889236 600.979573 
L 833.915066 599.84009 
L 834.940895 602.714425 
L 835.966725 600.95364 
L 836.992554 603.074598 
L 838.018384 600.778913 
L 839.044214 603.37723 
L 840.070043 599.202571 
L 841.095873 602.06431 
L 842.121702 601.262705 
L 843.147532 602.929079 
L 844.173362 601.094837 
L 845.199191 601.745535 
L 846.225021 601.308121 
L 847.25085 603.13624 
L 848.27668 601.284734 
L 849.302509 603.390113 
L 850.328339 600.656297 
L 851.354169 603.27966 
L 852.379998 600.572476 
L 853.405828 603.178504 
L 854.431657 601.161198 
L 855.457487 603.672467 
L 856.483316 600.68387 
L 857.509146 602.945045 
L 858.534976 601.364107 
L 859.560805 604.002428 
L 860.586635 601.544753 
L 861.612464 603.110368 
L 862.638294 601.948705 
L 863.664124 603.557204 
L 864.689953 602.758577 
L 865.715783 604.109113 
L 866.741612 600.992361 
L 867.767442 603.110616 
L 868.793271 601.687006 
L 869.819101 604.138587 
L 870.844931 602.548086 
L 871.87076 603.87162 
L 872.89659 601.241923 
L 873.922419 603.938387 
L 874.948249 601.921466 
L 875.974078 603.850615 
L 878.025738 602.45362 
L 879.051567 604.259237 
L 880.077397 603.823096 
L 881.103226 601.972733 
L 882.129056 604.217722 
L 883.154886 602.441902 
L 884.180715 604.09417 
L 885.206545 603.039294 
L 886.232374 604.908743 
L 887.258204 602.372077 
L 888.284033 604.444747 
L 889.309863 601.971828 
L 890.335693 604.949889 
L 891.361522 603.778099 
L 892.387352 604.290221 
L 893.413181 603.616585 
L 894.439011 605.057699 
L 895.464841 603.033694 
L 896.49067 605.23531 
L 897.5165 601.898052 
L 898.542329 605.172202 
L 899.568159 603.652252 
L 900.593988 605.197901 
L 901.619818 602.670339 
L 902.645648 604.586535 
L 903.671477 603.183522 
L 904.697307 605.780945 
L 905.723136 603.238737 
L 906.748966 605.300005 
L 907.774795 603.153135 
L 908.800625 605.529111 
L 909.826455 603.907039 
L 910.852284 605.090842 
L 911.878114 602.840284 
L 912.903943 588.399441 
L 913.929773 603.069798 
L 914.955603 606.826231 
L 915.981432 601.931745 
L 917.007262 595.483272 
L 918.033091 603.787278 
L 919.058921 606.659723 
L 920.08475 603.892605 
L 921.11058 606.026024 
L 922.13641 604.728859 
L 923.162239 606.340033 
L 924.188069 604.63407 
L 925.213898 606.036475 
L 926.239728 603.476097 
L 927.265557 607.064865 
L 928.291387 604.403097 
L 929.317217 606.499928 
L 930.343046 604.78061 
L 931.368876 607.185159 
L 932.394705 603.858338 
L 933.420535 606.413292 
L 934.446365 605.100013 
L 935.472194 606.771093 
L 936.498024 604.907203 
L 937.523853 606.683021 
L 938.549683 604.744039 
L 939.575512 606.610539 
L 940.601342 604.679929 
L 941.627172 606.275583 
L 942.653001 604.662858 
L 943.678831 606.485476 
L 944.70466 604.433105 
L 945.73049 606.768594 
L 946.75632 606.094678 
L 947.782149 606.735644 
L 948.807979 605.685559 
L 949.833808 606.986873 
L 950.859638 605.40111 
L 951.885467 607.567111 
L 952.911297 605.056483 
L 953.937127 608.129525 
L 954.962956 606.239218 
L 955.988786 607.841081 
L 957.014615 606.024425 
L 958.040445 611.898602 
L 959.066274 605.512516 
L 960.092104 607.384908 
L 961.117934 605.529601 
L 962.143763 607.58948 
L 963.169593 606.300675 
L 964.195422 607.759986 
L 965.221252 606.474737 
L 966.247082 595.918234 
L 967.272911 606.489503 
L 968.298741 602.48134 
L 969.32457 606.00861 
L 970.3504 607.467156 
L 971.376229 606.323365 
L 972.402059 607.061758 
L 973.427889 605.706633 
L 974.453718 607.677328 
L 975.479548 609.002618 
L 976.505377 608.203366 
L 977.531207 605.849214 
L 978.557036 608.257484 
L 979.582866 606.804972 
L 980.608696 608.496885 
L 981.634525 606.96165 
L 982.660355 608.607878 
L 983.686184 606.729205 
L 984.712014 607.96939 
L 985.737844 606.365085 
L 986.763673 607.512846 
L 987.789503 607.13119 
L 988.815332 609.215253 
L 989.841162 606.238641 
L 990.866991 608.812827 
L 991.892821 607.448716 
L 992.918651 609.29258 
L 993.94448 606.334762 
L 994.97031 609.088103 
L 995.996139 606.772497 
L 997.021969 609.259468 
L 998.047799 607.605902 
L 999.073628 608.901332 
L 1000.099458 606.512056 
L 1001.125287 612.809708 
L 1002.151117 607.737723 
L 1003.176946 607.110497 
L 1004.202776 605.565306 
L 1005.228606 608.779591 
L 1006.254435 606.620942 
L 1007.280265 608.491325 
L 1008.306094 607.148579 
L 1009.331924 608.633986 
L 1010.357753 600.983588 
L 1011.383583 608.694007 
L 1012.409413 607.334856 
L 1013.435242 609.703019 
L 1014.461072 607.480814 
L 1015.486901 608.685796 
L 1016.512731 607.355756 
L 1017.538561 609.667261 
L 1018.56439 607.454492 
L 1019.59022 609.219461 
L 1020.616049 607.050912 
L 1021.641879 608.739354 
L 1022.667708 607.531856 
L 1023.693538 608.851036 
L 1024.719368 608.419473 
L 1025.745197 610.222879 
L 1026.771027 608.064225 
L 1027.796856 609.284496 
L 1028.822686 608.511165 
L 1029.848515 608.509393 
L 1030.874345 607.760297 
L 1031.900175 609.563651 
L 1032.926004 607.896288 
L 1033.951834 610.011599 
L 1034.977663 608.55079 
L 1036.003493 609.509925 
L 1037.029323 607.720222 
L 1038.055152 609.863538 
L 1039.080982 608.252378 
L 1040.106811 609.462866 
L 1041.132641 607.569473 
L 1042.15847 593.750113 
L 1043.1843 608.770202 
L 1044.21013 609.538357 
L 1045.235959 607.94246 
L 1046.261789 609.856554 
L 1047.287618 607.927688 
L 1048.313448 610.542668 
L 1049.339278 608.961752 
L 1050.365107 610.529362 
L 1051.390937 608.827317 
L 1052.416766 610.531559 
L 1053.442596 608.631772 
L 1054.468425 610.412122 
L 1055.494255 608.49992 
L 1056.520085 609.831245 
L 1057.545914 608.476289 
L 1058.571744 610.410393 
L 1059.597573 608.453025 
L 1060.623403 610.333219 
L 1061.649232 609.111311 
L 1062.675062 610.706755 
L 1063.700892 608.646177 
L 1064.726721 610.491853 
L 1065.752551 609.438042 
L 1066.77838 610.589686 
L 1067.80421 608.714217 
L 1068.83004 611.098625 
L 1069.855869 608.660475 
L 1070.881699 611.07442 
L 1071.907528 608.939068 
L 1072.933358 599.699636 
L 1073.959187 608.509003 
L 1074.985017 609.282295 
L 1076.010847 609.228265 
L 1077.036676 611.056763 
L 1078.062506 608.832042 
L 1079.088335 611.042739 
L 1080.114165 609.225997 
L 1081.139994 610.454568 
L 1082.165824 608.917968 
L 1083.191654 611.324151 
L 1084.217483 609.39627 
L 1085.243313 611.090355 
L 1086.269142 610.061997 
L 1087.294972 611.289814 
L 1088.320802 609.590314 
L 1089.346631 611.80863 
L 1090.372461 610.196321 
L 1091.39829 610.816838 
L 1092.42412 609.730954 
L 1093.449949 611.986928 
L 1094.475779 609.829965 
L 1095.501609 611.778519 
L 1096.527438 607.669582 
L 1097.553268 610.480755 
L 1098.579097 609.645521 
L 1099.604927 611.575165 
L 1100.630757 610.315649 
L 1101.656586 613.792562 
L 1102.682416 596.449833 
L 1103.708245 611.392505 
L 1104.734075 609.721268 
L 1105.759904 611.538868 
L 1106.785734 610.066393 
L 1107.811564 611.664384 
L 1108.837393 610.082044 
L 1109.863223 611.431534 
L 1110.889052 610.193727 
L 1111.914882 612.05391 
L 1112.940711 610.513733 
L 1113.966541 611.7465 
L 1114.992371 610.555175 
L 1116.0182 612.147023 
L 1117.04403 610.257332 
L 1118.069859 611.962521 
L 1119.095689 609.073708 
L 1120.121519 611.74096 
L 1121.147348 609.342659 
L 1122.173178 612.188716 
L 1123.199007 610.562276 
L 1124.224837 611.902474 
L 1125.250666 610.618506 
L 1126.276496 611.843858 
L 1127.302326 610.38494 
L 1128.328155 611.904523 
L 1129.353985 610.374023 
L 1130.379814 612.381237 
L 1131.405644 610.098959 
L 1132.431473 603.827138 
L 1133.457303 610.808054 
L 1134.483133 612.288966 
L 1135.508962 610.331451 
L 1136.534792 612.086884 
L 1137.560621 610.884679 
L 1138.586451 612.643746 
L 1139.612281 610.326309 
L 1140.63811 612.353353 
L 1141.66394 610.495427 
L 1142.689769 612.225799 
L 1143.715599 610.64652 
L 1144.741428 612.703622 
L 1145.767258 611.065384 
L 1146.793088 612.17493 
L 1147.818917 611.05115 
L 1148.844747 612.795511 
L 1149.870576 611.045909 
L 1150.896406 612.392726 
L 1151.922235 610.663212 
L 1152.948065 612.601452 
L 1153.973895 610.933295 
L 1154.999724 612.770401 
L 1156.025554 611.000881 
L 1157.051383 613.202094 
L 1158.077213 611.537917 
L 1159.103043 613.229178 
L 1160.128872 611.385155 
L 1161.154702 613.294909 
L 1162.180531 601.284438 
L 1163.206361 613.566222 
L 1164.23219 611.457519 
L 1165.25802 612.396711 
L 1166.28385 611.17926 
L 1167.309679 612.965892 
L 1168.335509 611.464119 
L 1169.361338 612.766105 
L 1170.387168 611.611407 
L 1171.412998 612.956856 
L 1172.438827 611.302896 
L 1173.464657 612.985012 
L 1174.490486 611.533153 
L 1175.516316 613.048192 
L 1176.542145 611.383481 
L 1177.567975 613.304688 
L 1178.593805 611.610917 
L 1179.619634 613.452033 
L 1180.645464 611.094893 
L 1181.671293 613.294581 
L 1182.697123 611.840774 
L 1183.722952 613.382125 
L 1184.748782 611.616005 
L 1185.774612 613.370783 
L 1186.800441 612.021355 
L 1187.826271 613.29769 
L 1188.8521 611.557362 
L 1189.87793 604.182308 
L 1190.90376 611.770916 
L 1191.929589 613.374759 
L 1192.955419 611.577012 
L 1193.981248 613.314843 
L 1195.007078 612.068299 
L 1196.032907 613.61533 
L 1197.058737 612.42365 
L 1198.084567 613.652204 
L 1199.110396 611.938045 
L 1200.136226 613.824961 
L 1201.162055 612.478491 
L 1202.187885 614.053134 
L 1203.213714 612.630104 
L 1204.239544 613.961285 
L 1205.265374 612.544864 
L 1206.291203 613.785202 
L 1207.317033 612.061632 
L 1208.342862 613.87829 
L 1209.368692 611.427478 
L 1210.394522 613.671225 
L 1211.420351 612.833007 
L 1212.446181 614.014683 
L 1213.47201 611.963919 
L 1214.49784 613.937113 
L 1215.523669 612.453128 
L 1216.549499 614.22696 
L 1217.575329 612.167802 
L 1218.601158 606.290319 
L 1219.626988 603.142314 
L 1220.652817 613.948882 
L 1221.678647 612.760725 
L 1222.704477 614.538957 
L 1223.730306 613.003632 
L 1224.756136 613.887317 
L 1225.781965 612.602368 
L 1226.807795 614.158005 
L 1227.833624 612.965494 
L 1228.859454 614.145401 
L 1229.885284 612.652937 
L 1230.911113 614.133863 
L 1231.936943 612.067416 
L 1232.962772 613.551968 
L 1233.988602 612.890642 
L 1235.014431 603.258119 
L 1236.040261 615.6 
L 1237.066091 613.909822 
L 1238.09192 612.858695 
L 1239.11775 614.440696 
L 1240.143579 613.458087 
L 1241.169409 614.597691 
L 1242.195239 613.450313 
L 1243.221068 615.115861 
L 1244.246898 613.5146 
L 1245.272727 614.854464 
L 1245.272727 614.854464 
" style="fill:none;stroke:#ff7f0e;stroke-linecap:square;stroke-width:1.5;"/>
   </g>
   <g id="patch_3">
    <path d="M 180 640.8 
L 180 86.4 
" style="fill:none;stroke:#000000;stroke-linecap:square;stroke-linejoin:miter;stroke-width:0.8;"/>
   </g>
   <g id="patch_4">
    <path d="M 1296 640.8 
L 1296 86.4 
" style="fill:none;stroke:#000000;stroke-linecap:square;stroke-linejoin:miter;stroke-width:0.8;"/>
   </g>
   <g id="patch_5">
    <path d="M 180 640.8 
L 1296 640.8 
" style="fill:none;stroke:#000000;stroke-linecap:square;stroke-linejoin:miter;stroke-width:0.8;"/>
   </g>
   <g id="patch_6">
    <path d="M 180 86.4 
L 1296 86.4 
" style="fill:none;stroke:#000000;stroke-linecap:square;stroke-linejoin:miter;stroke-width:0.8;"/>
   </g>
   <g id="text_21">
    <!-- ROC Speedup -->
    <defs>
     <path d="M 44.390625 34.1875 
Q 47.5625 33.109375 50.5625 29.59375 
Q 53.5625 26.078125 56.59375 19.921875 
L 66.609375 0 
L 56 0 
L 46.6875 18.703125 
Q 43.0625 26.03125 39.671875 28.421875 
Q 36.28125 30.8125 30.421875 30.8125 
L 19.671875 30.8125 
L 19.671875 0 
L 9.8125 0 
L 9.8125 72.90625 
L 32.078125 72.90625 
Q 44.578125 72.90625 50.734375 67.671875 
Q 56.890625 62.453125 56.890625 51.90625 
Q 56.890625 45.015625 53.6875 40.46875 
Q 50.484375 35.9375 44.390625 34.1875 
z
M 19.671875 64.796875 
L 19.671875 38.921875 
L 32.078125 38.921875 
Q 39.203125 38.921875 42.84375 42.21875 
Q 46.484375 45.515625 46.484375 51.90625 
Q 46.484375 58.296875 42.84375 61.546875 
Q 39.203125 64.796875 32.078125 64.796875 
z
" id="DejaVuSans-82"/>
     <path d="M 39.40625 66.21875 
Q 28.65625 66.21875 22.328125 58.203125 
Q 16.015625 50.203125 16.015625 36.375 
Q 16.015625 22.609375 22.328125 14.59375 
Q 28.65625 6.59375 39.40625 6.59375 
Q 50.140625 6.59375 56.421875 14.59375 
Q 62.703125 22.609375 62.703125 36.375 
Q 62.703125 50.203125 56.421875 58.203125 
Q 50.140625 66.21875 39.40625 66.21875 
z
M 39.40625 74.21875 
Q 54.734375 74.21875 63.90625 63.9375 
Q 73.09375 53.65625 73.09375 36.375 
Q 73.09375 19.140625 63.90625 8.859375 
Q 54.734375 -1.421875 39.40625 -1.421875 
Q 24.03125 -1.421875 14.8125 8.828125 
Q 5.609375 19.09375 5.609375 36.375 
Q 5.609375 53.65625 14.8125 63.9375 
Q 24.03125 74.21875 39.40625 74.21875 
z
" id="DejaVuSans-79"/>
     <path d="M 64.40625 67.28125 
L 64.40625 56.890625 
Q 59.421875 61.53125 53.78125 63.8125 
Q 48.140625 66.109375 41.796875 66.109375 
Q 29.296875 66.109375 22.65625 58.46875 
Q 16.015625 50.828125 16.015625 36.375 
Q 16.015625 21.96875 22.65625 14.328125 
Q 29.296875 6.6875 41.796875 6.6875 
Q 48.140625 6.6875 53.78125 8.984375 
Q 59.421875 11.28125 64.40625 15.921875 
L 64.40625 5.609375 
Q 59.234375 2.09375 53.4375 0.328125 
Q 47.65625 -1.421875 41.21875 -1.421875 
Q 24.65625 -1.421875 15.125 8.703125 
Q 5.609375 18.84375 5.609375 36.375 
Q 5.609375 53.953125 15.125 64.078125 
Q 24.65625 74.21875 41.21875 74.21875 
Q 47.75 74.21875 53.53125 72.484375 
Q 59.328125 70.75 64.40625 67.28125 
z
" id="DejaVuSans-67"/>
     <path id="DejaVuSans-32"/>
     <path d="M 53.515625 70.515625 
L 53.515625 60.890625 
Q 47.90625 63.578125 42.921875 64.890625 
Q 37.9375 66.21875 33.296875 66.21875 
Q 25.25 66.21875 20.875 63.09375 
Q 16.5 59.96875 16.5 54.203125 
Q 16.5 49.359375 19.40625 46.890625 
Q 22.3125 44.4375 30.421875 42.921875 
L 36.375 41.703125 
Q 47.40625 39.59375 52.65625 34.296875 
Q 57.90625 29 57.90625 20.125 
Q 57.90625 9.515625 50.796875 4.046875 
Q 43.703125 -1.421875 29.984375 -1.421875 
Q 24.8125 -1.421875 18.96875 -0.25 
Q 13.140625 0.921875 6.890625 3.21875 
L 6.890625 13.375 
Q 12.890625 10.015625 18.65625 8.296875 
Q 24.421875 6.59375 29.984375 6.59375 
Q 38.421875 6.59375 43.015625 9.90625 
Q 47.609375 13.234375 47.609375 19.390625 
Q 47.609375 24.75 44.3125 27.78125 
Q 41.015625 30.8125 33.5 32.328125 
L 27.484375 33.5 
Q 16.453125 35.6875 11.515625 40.375 
Q 6.59375 45.0625 6.59375 53.421875 
Q 6.59375 63.09375 13.40625 68.65625 
Q 20.21875 74.21875 32.171875 74.21875 
Q 37.3125 74.21875 42.625 73.28125 
Q 47.953125 72.359375 53.515625 70.515625 
z
" id="DejaVuSans-83"/>
    </defs>
    <g transform="translate(696.58875 80.4)scale(0.12 -0.12)">
     <use xlink:href="#DejaVuSans-82"/>
     <use x="69.482422" xlink:href="#DejaVuSans-79"/>
     <use x="148.193359" xlink:href="#DejaVuSans-67"/>
     <use x="218.017578" xlink:href="#DejaVuSans-32"/>
     <use x="249.804688" xlink:href="#DejaVuSans-83"/>
     <use x="313.28125" xlink:href="#DejaVuSans-112"/>
     <use x="376.757812" xlink:href="#DejaVuSans-101"/>
     <use x="438.28125" xlink:href="#DejaVuSans-101"/>
     <use x="499.804688" xlink:href="#DejaVuSans-100"/>
     <use x="563.28125" xlink:href="#DejaVuSans-117"/>
     <use x="626.660156" xlink:href="#DejaVuSans-112"/>
    </g>
   </g>
   <g id="legend_1">
    <g id="patch_7">
     <path d="M 1185.373437 123.75625 
L 1289 123.75625 
Q 1291 123.75625 1291 121.75625 
L 1291 93.4 
Q 1291 91.4 1289 91.4 
L 1185.373437 91.4 
Q 1183.373437 91.4 1183.373437 93.4 
L 1183.373437 121.75625 
Q 1183.373437 123.75625 1185.373437 123.75625 
z
" style="fill:#ffffff;opacity:0.8;stroke:#cccccc;stroke-linejoin:miter;"/>
    </g>
    <g id="line2d_21">
     <path d="M 1187.373437 99.498437 
L 1207.373437 99.498437 
" style="fill:none;stroke:#1f77b4;stroke-linecap:square;stroke-width:1.5;"/>
    </g>
    <g id="line2d_22"/>
    <g id="text_22">
     <!-- numpy.float32 -->
     <defs>
      <path d="M 52 44.1875 
Q 55.375 50.25 60.0625 53.125 
Q 64.75 56 71.09375 56 
Q 79.640625 56 84.28125 50.015625 
Q 88.921875 44.046875 88.921875 33.015625 
L 88.921875 0 
L 79.890625 0 
L 79.890625 32.71875 
Q 79.890625 40.578125 77.09375 44.375 
Q 74.3125 48.1875 68.609375 48.1875 
Q 61.625 48.1875 57.5625 43.546875 
Q 53.515625 38.921875 53.515625 30.90625 
L 53.515625 0 
L 44.484375 0 
L 44.484375 32.71875 
Q 44.484375 40.625 41.703125 44.40625 
Q 38.921875 48.1875 33.109375 48.1875 
Q 26.21875 48.1875 22.15625 43.53125 
Q 18.109375 38.875 18.109375 30.90625 
L 18.109375 0 
L 9.078125 0 
L 9.078125 54.6875 
L 18.109375 54.6875 
L 18.109375 46.1875 
Q 21.1875 51.21875 25.484375 53.609375 
Q 29.78125 56 35.6875 56 
Q 41.65625 56 45.828125 52.96875 
Q 50 49.953125 52 44.1875 
z
" id="DejaVuSans-109"/>
      <path d="M 32.171875 -5.078125 
Q 28.375 -14.84375 24.75 -17.8125 
Q 21.140625 -20.796875 15.09375 -20.796875 
L 7.90625 -20.796875 
L 7.90625 -13.28125 
L 13.1875 -13.28125 
Q 16.890625 -13.28125 18.9375 -11.515625 
Q 21 -9.765625 23.484375 -3.21875 
L 25.09375 0.875 
L 2.984375 54.6875 
L 12.5 54.6875 
L 29.59375 11.921875 
L 46.6875 54.6875 
L 56.203125 54.6875 
z
" id="DejaVuSans-121"/>
      <path d="M 37.109375 75.984375 
L 37.109375 68.5 
L 28.515625 68.5 
Q 23.6875 68.5 21.796875 66.546875 
Q 19.921875 64.59375 19.921875 59.515625 
L 19.921875 54.6875 
L 34.71875 54.6875 
L 34.71875 47.703125 
L 19.921875 47.703125 
L 19.921875 0 
L 10.890625 0 
L 10.890625 47.703125 
L 2.296875 47.703125 
L 2.296875 54.6875 
L 10.890625 54.6875 
L 10.890625 58.5 
Q 10.890625 67.625 15.140625 71.796875 
Q 19.390625 75.984375 28.609375 75.984375 
z
" id="DejaVuSans-102"/>
      <path d="M 9.421875 75.984375 
L 18.40625 75.984375 
L 18.40625 0 
L 9.421875 0 
z
" id="DejaVuSans-108"/>
      <path d="M 30.609375 48.390625 
Q 23.390625 48.390625 19.1875 42.75 
Q 14.984375 37.109375 14.984375 27.296875 
Q 14.984375 17.484375 19.15625 11.84375 
Q 23.34375 6.203125 30.609375 6.203125 
Q 37.796875 6.203125 41.984375 11.859375 
Q 46.1875 17.53125 46.1875 27.296875 
Q 46.1875 37.015625 41.984375 42.703125 
Q 37.796875 48.390625 30.609375 48.390625 
z
M 30.609375 56 
Q 42.328125 56 49.015625 48.375 
Q 55.71875 40.765625 55.71875 27.296875 
Q 55.71875 13.875 49.015625 6.21875 
Q 42.328125 -1.421875 30.609375 -1.421875 
Q 18.84375 -1.421875 12.171875 6.21875 
Q 5.515625 13.875 5.515625 27.296875 
Q 5.515625 40.765625 12.171875 48.375 
Q 18.84375 56 30.609375 56 
z
" id="DejaVuSans-111"/>
      <path d="M 34.28125 27.484375 
Q 23.390625 27.484375 19.1875 25 
Q 14.984375 22.515625 14.984375 16.5 
Q 14.984375 11.71875 18.140625 8.90625 
Q 21.296875 6.109375 26.703125 6.109375 
Q 34.1875 6.109375 38.703125 11.40625 
Q 43.21875 16.703125 43.21875 25.484375 
L 43.21875 27.484375 
z
M 52.203125 31.203125 
L 52.203125 0 
L 43.21875 0 
L 43.21875 8.296875 
Q 40.140625 3.328125 35.546875 0.953125 
Q 30.953125 -1.421875 24.3125 -1.421875 
Q 15.921875 -1.421875 10.953125 3.296875 
Q 6 8.015625 6 15.921875 
Q 6 25.140625 12.171875 29.828125 
Q 18.359375 34.515625 30.609375 34.515625 
L 43.21875 34.515625 
L 43.21875 35.40625 
Q 43.21875 41.609375 39.140625 45 
Q 35.0625 48.390625 27.6875 48.390625 
Q 23 48.390625 18.546875 47.265625 
Q 14.109375 46.140625 10.015625 43.890625 
L 10.015625 52.203125 
Q 14.9375 54.109375 19.578125 55.046875 
Q 24.21875 56 28.609375 56 
Q 40.484375 56 46.34375 49.84375 
Q 52.203125 43.703125 52.203125 31.203125 
z
" id="DejaVuSans-97"/>
      <path d="M 18.3125 70.21875 
L 18.3125 54.6875 
L 36.8125 54.6875 
L 36.8125 47.703125 
L 18.3125 47.703125 
L 18.3125 18.015625 
Q 18.3125 11.328125 20.140625 9.421875 
Q 21.96875 7.515625 27.59375 7.515625 
L 36.8125 7.515625 
L 36.8125 0 
L 27.59375 0 
Q 17.1875 0 13.234375 3.875 
Q 9.28125 7.765625 9.28125 18.015625 
L 9.28125 47.703125 
L 2.6875 47.703125 
L 2.6875 54.6875 
L 9.28125 54.6875 
L 9.28125 70.21875 
z
" id="DejaVuSans-116"/>
     </defs>
     <g transform="translate(1215.373437 102.998437)scale(0.1 -0.1)">
      <use xlink:href="#DejaVuSans-110"/>
      <use x="63.378906" xlink:href="#DejaVuSans-117"/>
      <use x="126.757812" xlink:href="#DejaVuSans-109"/>
      <use x="224.169922" xlink:href="#DejaVuSans-112"/>
      <use x="287.646484" xlink:href="#DejaVuSans-121"/>
      <use x="332.576172" xlink:href="#DejaVuSans-46"/>
      <use x="364.363281" xlink:href="#DejaVuSans-102"/>
      <use x="399.568359" xlink:href="#DejaVuSans-108"/>
      <use x="427.351562" xlink:href="#DejaVuSans-111"/>
      <use x="488.533203" xlink:href="#DejaVuSans-97"/>
      <use x="549.8125" xlink:href="#DejaVuSans-116"/>
      <use x="589.021484" xlink:href="#DejaVuSans-51"/>
      <use x="652.644531" xlink:href="#DejaVuSans-50"/>
     </g>
    </g>
    <g id="line2d_23">
     <path d="M 1187.373437 114.176562 
L 1207.373437 114.176562 
" style="fill:none;stroke:#ff7f0e;stroke-linecap:square;stroke-width:1.5;"/>
    </g>
    <g id="line2d_24"/>
    <g id="text_23">
     <!-- numpy.float64 -->
     <g transform="translate(1215.373437 117.676562)scale(0.1 -0.1)">
      <use xlink:href="#DejaVuSans-110"/>
      <use x="63.378906" xlink:href="#DejaVuSans-117"/>
      <use x="126.757812" xlink:href="#DejaVuSans-109"/>
      <use x="224.169922" xlink:href="#DejaVuSans-112"/>
      <use x="287.646484" xlink:href="#DejaVuSans-121"/>
      <use x="332.576172" xlink:href="#DejaVuSans-46"/>
      <use x="364.363281" xlink:href="#DejaVuSans-102"/>
      <use x="399.568359" xlink:href="#DejaVuSans-108"/>
      <use x="427.351562" xlink:href="#DejaVuSans-111"/>
      <use x="488.533203" xlink:href="#DejaVuSans-97"/>
      <use x="549.8125" xlink:href="#DejaVuSans-116"/>
      <use x="589.021484" xlink:href="#DejaVuSans-54"/>
      <use x="652.644531" xlink:href="#DejaVuSans-52"/>
     </g>
    </g>
   </g>
  </g>
 </g>
 <defs>
  <clipPath id="p337c7d8bc5">
   <rect height="554.4" width="1116" x="180" y="86.4"/>
  </clipPath>
 </defs>
</svg>
