<?xml version="1.0" encoding="utf-8" standalone="no"?>
<!DOCTYPE svg PUBLIC "-//W3C//DTD SVG 1.1//EN"
  "http://www.w3.org/Graphics/SVG/1.1/DTD/svg11.dtd">
<!-- Created with matplotlib (https://matplotlib.org/) -->
<svg height="345.6pt" version="1.1" viewBox="0 0 460.8 345.6" width="460.8pt" xmlns="http://www.w3.org/2000/svg" xmlns:xlink="http://www.w3.org/1999/xlink">
 <defs>
  <style type="text/css">
*{stroke-linecap:butt;stroke-linejoin:round;}
  </style>
 </defs>
 <g id="figure_1">
  <g id="patch_1">
   <path d="M 0 345.6 
L 460.8 345.6 
L 460.8 0 
L 0 0 
z
" style="fill:#ffffff;"/>
  </g>
  <g id="axes_1">
   <g id="patch_2">
    <path d="M 57.6 307.584 
L 414.72 307.584 
L 414.72 41.472 
L 57.6 41.472 
z
" style="fill:#ffffff;"/>
   </g>
   <g id="matplotlib.axis_1">
    <g id="xtick_1">
     <g id="line2d_1">
      <defs>
       <path d="M 0 0 
L 0 3.5 
" id="mc123e8f4d8" style="stroke:#000000;stroke-width:0.8;"/>
      </defs>
      <g>
       <use style="stroke:#000000;stroke-width:0.8;" x="106.659274" xlink:href="#mc123e8f4d8" y="307.584"/>
      </g>
     </g>
     <g id="text_1">
      <!-- 100.0 -->
      <defs>
       <path d="M 12.40625 8.296875 
L 28.515625 8.296875 
L 28.515625 63.921875 
L 10.984375 60.40625 
L 10.984375 69.390625 
L 28.421875 72.90625 
L 38.28125 72.90625 
L 38.28125 8.296875 
L 54.390625 8.296875 
L 54.390625 0 
L 12.40625 0 
z
" id="DejaVuSans-49"/>
       <path d="M 31.78125 66.40625 
Q 24.171875 66.40625 20.328125 58.90625 
Q 16.5 51.421875 16.5 36.375 
Q 16.5 21.390625 20.328125 13.890625 
Q 24.171875 6.390625 31.78125 6.390625 
Q 39.453125 6.390625 43.28125 13.890625 
Q 47.125 21.390625 47.125 36.375 
Q 47.125 51.421875 43.28125 58.90625 
Q 39.453125 66.40625 31.78125 66.40625 
z
M 31.78125 74.21875 
Q 44.046875 74.21875 50.515625 64.515625 
Q 56.984375 54.828125 56.984375 36.375 
Q 56.984375 17.96875 50.515625 8.265625 
Q 44.046875 -1.421875 31.78125 -1.421875 
Q 19.53125 -1.421875 13.0625 8.265625 
Q 6.59375 17.96875 6.59375 36.375 
Q 6.59375 54.828125 13.0625 64.515625 
Q 19.53125 74.21875 31.78125 74.21875 
z
" id="DejaVuSans-48"/>
       <path d="M 10.6875 12.40625 
L 21 12.40625 
L 21 0 
L 10.6875 0 
z
" id="DejaVuSans-46"/>
      </defs>
      <g transform="translate(92.345211 322.182437)scale(0.1 -0.1)">
       <use xlink:href="#DejaVuSans-49"/>
       <use x="63.623047" xlink:href="#DejaVuSans-48"/>
       <use x="127.246094" xlink:href="#DejaVuSans-48"/>
       <use x="190.869141" xlink:href="#DejaVuSans-46"/>
       <use x="222.65625" xlink:href="#DejaVuSans-48"/>
      </g>
     </g>
    </g>
    <g id="xtick_2">
     <g id="line2d_2">
      <g>
       <use style="stroke:#000000;stroke-width:0.8;" x="139.48582" xlink:href="#mc123e8f4d8" y="307.584"/>
      </g>
     </g>
     <g id="text_2">
      <!-- 200.0 -->
      <defs>
       <path d="M 19.1875 8.296875 
L 53.609375 8.296875 
L 53.609375 0 
L 7.328125 0 
L 7.328125 8.296875 
Q 12.9375 14.109375 22.625 23.890625 
Q 32.328125 33.6875 34.8125 36.53125 
Q 39.546875 41.84375 41.421875 45.53125 
Q 43.3125 49.21875 43.3125 52.78125 
Q 43.3125 58.59375 39.234375 62.25 
Q 35.15625 65.921875 28.609375 65.921875 
Q 23.96875 65.921875 18.8125 64.3125 
Q 13.671875 62.703125 7.8125 59.421875 
L 7.8125 69.390625 
Q 13.765625 71.78125 18.9375 73 
Q 24.125 74.21875 28.421875 74.21875 
Q 39.75 74.21875 46.484375 68.546875 
Q 53.21875 62.890625 53.21875 53.421875 
Q 53.21875 48.921875 51.53125 44.890625 
Q 49.859375 40.875 45.40625 35.40625 
Q 44.1875 33.984375 37.640625 27.21875 
Q 31.109375 20.453125 19.1875 8.296875 
z
" id="DejaVuSans-50"/>
      </defs>
      <g transform="translate(125.171758 322.182437)scale(0.1 -0.1)">
       <use xlink:href="#DejaVuSans-50"/>
       <use x="63.623047" xlink:href="#DejaVuSans-48"/>
       <use x="127.246094" xlink:href="#DejaVuSans-48"/>
       <use x="190.869141" xlink:href="#DejaVuSans-46"/>
       <use x="222.65625" xlink:href="#DejaVuSans-48"/>
      </g>
     </g>
    </g>
    <g id="xtick_3">
     <g id="line2d_3">
      <g>
       <use style="stroke:#000000;stroke-width:0.8;" x="172.312367" xlink:href="#mc123e8f4d8" y="307.584"/>
      </g>
     </g>
     <g id="text_3">
      <!-- 300.0 -->
      <defs>
       <path d="M 40.578125 39.3125 
Q 47.65625 37.796875 51.625 33 
Q 55.609375 28.21875 55.609375 21.1875 
Q 55.609375 10.40625 48.1875 4.484375 
Q 40.765625 -1.421875 27.09375 -1.421875 
Q 22.515625 -1.421875 17.65625 -0.515625 
Q 12.796875 0.390625 7.625 2.203125 
L 7.625 11.71875 
Q 11.71875 9.328125 16.59375 8.109375 
Q 21.484375 6.890625 26.8125 6.890625 
Q 36.078125 6.890625 40.9375 10.546875 
Q 45.796875 14.203125 45.796875 21.1875 
Q 45.796875 27.640625 41.28125 31.265625 
Q 36.765625 34.90625 28.71875 34.90625 
L 20.21875 34.90625 
L 20.21875 43.015625 
L 29.109375 43.015625 
Q 36.375 43.015625 40.234375 45.921875 
Q 44.09375 48.828125 44.09375 54.296875 
Q 44.09375 59.90625 40.109375 62.90625 
Q 36.140625 65.921875 28.71875 65.921875 
Q 24.65625 65.921875 20.015625 65.03125 
Q 15.375 64.15625 9.8125 62.3125 
L 9.8125 71.09375 
Q 15.4375 72.65625 20.34375 73.4375 
Q 25.25 74.21875 29.59375 74.21875 
Q 40.828125 74.21875 47.359375 69.109375 
Q 53.90625 64.015625 53.90625 55.328125 
Q 53.90625 49.265625 50.4375 45.09375 
Q 46.96875 40.921875 40.578125 39.3125 
z
" id="DejaVuSans-51"/>
      </defs>
      <g transform="translate(157.998304 322.182437)scale(0.1 -0.1)">
       <use xlink:href="#DejaVuSans-51"/>
       <use x="63.623047" xlink:href="#DejaVuSans-48"/>
       <use x="127.246094" xlink:href="#DejaVuSans-48"/>
       <use x="190.869141" xlink:href="#DejaVuSans-46"/>
       <use x="222.65625" xlink:href="#DejaVuSans-48"/>
      </g>
     </g>
    </g>
    <g id="xtick_4">
     <g id="line2d_4">
      <g>
       <use style="stroke:#000000;stroke-width:0.8;" x="205.138914" xlink:href="#mc123e8f4d8" y="307.584"/>
      </g>
     </g>
     <g id="text_4">
      <!-- 400.0 -->
      <defs>
       <path d="M 37.796875 64.3125 
L 12.890625 25.390625 
L 37.796875 25.390625 
z
M 35.203125 72.90625 
L 47.609375 72.90625 
L 47.609375 25.390625 
L 58.015625 25.390625 
L 58.015625 17.1875 
L 47.609375 17.1875 
L 47.609375 0 
L 37.796875 0 
L 37.796875 17.1875 
L 4.890625 17.1875 
L 4.890625 26.703125 
z
" id="DejaVuSans-52"/>
      </defs>
      <g transform="translate(190.824851 322.182437)scale(0.1 -0.1)">
       <use xlink:href="#DejaVuSans-52"/>
       <use x="63.623047" xlink:href="#DejaVuSans-48"/>
       <use x="127.246094" xlink:href="#DejaVuSans-48"/>
       <use x="190.869141" xlink:href="#DejaVuSans-46"/>
       <use x="222.65625" xlink:href="#DejaVuSans-48"/>
      </g>
     </g>
    </g>
    <g id="xtick_5">
     <g id="line2d_5">
      <g>
       <use style="stroke:#000000;stroke-width:0.8;" x="237.96546" xlink:href="#mc123e8f4d8" y="307.584"/>
      </g>
     </g>
     <g id="text_5">
      <!-- 500.0 -->
      <defs>
       <path d="M 10.796875 72.90625 
L 49.515625 72.90625 
L 49.515625 64.59375 
L 19.828125 64.59375 
L 19.828125 46.734375 
Q 21.96875 47.46875 24.109375 47.828125 
Q 26.265625 48.1875 28.421875 48.1875 
Q 40.625 48.1875 47.75 41.5 
Q 54.890625 34.8125 54.890625 23.390625 
Q 54.890625 11.625 47.5625 5.09375 
Q 40.234375 -1.421875 26.90625 -1.421875 
Q 22.3125 -1.421875 17.546875 -0.640625 
Q 12.796875 0.140625 7.71875 1.703125 
L 7.71875 11.625 
Q 12.109375 9.234375 16.796875 8.0625 
Q 21.484375 6.890625 26.703125 6.890625 
Q 35.15625 6.890625 40.078125 11.328125 
Q 45.015625 15.765625 45.015625 23.390625 
Q 45.015625 31 40.078125 35.4375 
Q 35.15625 39.890625 26.703125 39.890625 
Q 22.75 39.890625 18.8125 39.015625 
Q 14.890625 38.140625 10.796875 36.28125 
z
" id="DejaVuSans-53"/>
      </defs>
      <g transform="translate(223.651398 322.182437)scale(0.1 -0.1)">
       <use xlink:href="#DejaVuSans-53"/>
       <use x="63.623047" xlink:href="#DejaVuSans-48"/>
       <use x="127.246094" xlink:href="#DejaVuSans-48"/>
       <use x="190.869141" xlink:href="#DejaVuSans-46"/>
       <use x="222.65625" xlink:href="#DejaVuSans-48"/>
      </g>
     </g>
    </g>
    <g id="xtick_6">
     <g id="line2d_6">
      <g>
       <use style="stroke:#000000;stroke-width:0.8;" x="270.792007" xlink:href="#mc123e8f4d8" y="307.584"/>
      </g>
     </g>
     <g id="text_6">
      <!-- 600.0 -->
      <defs>
       <path d="M 33.015625 40.375 
Q 26.375 40.375 22.484375 35.828125 
Q 18.609375 31.296875 18.609375 23.390625 
Q 18.609375 15.53125 22.484375 10.953125 
Q 26.375 6.390625 33.015625 6.390625 
Q 39.65625 6.390625 43.53125 10.953125 
Q 47.40625 15.53125 47.40625 23.390625 
Q 47.40625 31.296875 43.53125 35.828125 
Q 39.65625 40.375 33.015625 40.375 
z
M 52.59375 71.296875 
L 52.59375 62.3125 
Q 48.875 64.0625 45.09375 64.984375 
Q 41.3125 65.921875 37.59375 65.921875 
Q 27.828125 65.921875 22.671875 59.328125 
Q 17.53125 52.734375 16.796875 39.40625 
Q 19.671875 43.65625 24.015625 45.921875 
Q 28.375 48.1875 33.59375 48.1875 
Q 44.578125 48.1875 50.953125 41.515625 
Q 57.328125 34.859375 57.328125 23.390625 
Q 57.328125 12.15625 50.6875 5.359375 
Q 44.046875 -1.421875 33.015625 -1.421875 
Q 20.359375 -1.421875 13.671875 8.265625 
Q 6.984375 17.96875 6.984375 36.375 
Q 6.984375 53.65625 15.1875 63.9375 
Q 23.390625 74.21875 37.203125 74.21875 
Q 40.921875 74.21875 44.703125 73.484375 
Q 48.484375 72.75 52.59375 71.296875 
z
" id="DejaVuSans-54"/>
      </defs>
      <g transform="translate(256.477944 322.182437)scale(0.1 -0.1)">
       <use xlink:href="#DejaVuSans-54"/>
       <use x="63.623047" xlink:href="#DejaVuSans-48"/>
       <use x="127.246094" xlink:href="#DejaVuSans-48"/>
       <use x="190.869141" xlink:href="#DejaVuSans-46"/>
       <use x="222.65625" xlink:href="#DejaVuSans-48"/>
      </g>
     </g>
    </g>
    <g id="xtick_7">
     <g id="line2d_7">
      <g>
       <use style="stroke:#000000;stroke-width:0.8;" x="303.618553" xlink:href="#mc123e8f4d8" y="307.584"/>
      </g>
     </g>
     <g id="text_7">
      <!-- 700.0 -->
      <defs>
       <path d="M 8.203125 72.90625 
L 55.078125 72.90625 
L 55.078125 68.703125 
L 28.609375 0 
L 18.3125 0 
L 43.21875 64.59375 
L 8.203125 64.59375 
z
" id="DejaVuSans-55"/>
      </defs>
      <g transform="translate(289.304491 322.182437)scale(0.1 -0.1)">
       <use xlink:href="#DejaVuSans-55"/>
       <use x="63.623047" xlink:href="#DejaVuSans-48"/>
       <use x="127.246094" xlink:href="#DejaVuSans-48"/>
       <use x="190.869141" xlink:href="#DejaVuSans-46"/>
       <use x="222.65625" xlink:href="#DejaVuSans-48"/>
      </g>
     </g>
    </g>
    <g id="xtick_8">
     <g id="line2d_8">
      <g>
       <use style="stroke:#000000;stroke-width:0.8;" x="336.4451" xlink:href="#mc123e8f4d8" y="307.584"/>
      </g>
     </g>
     <g id="text_8">
      <!-- 800.0 -->
      <defs>
       <path d="M 31.78125 34.625 
Q 24.75 34.625 20.71875 30.859375 
Q 16.703125 27.09375 16.703125 20.515625 
Q 16.703125 13.921875 20.71875 10.15625 
Q 24.75 6.390625 31.78125 6.390625 
Q 38.8125 6.390625 42.859375 10.171875 
Q 46.921875 13.96875 46.921875 20.515625 
Q 46.921875 27.09375 42.890625 30.859375 
Q 38.875 34.625 31.78125 34.625 
z
M 21.921875 38.8125 
Q 15.578125 40.375 12.03125 44.71875 
Q 8.5 49.078125 8.5 55.328125 
Q 8.5 64.0625 14.71875 69.140625 
Q 20.953125 74.21875 31.78125 74.21875 
Q 42.671875 74.21875 48.875 69.140625 
Q 55.078125 64.0625 55.078125 55.328125 
Q 55.078125 49.078125 51.53125 44.71875 
Q 48 40.375 41.703125 38.8125 
Q 48.828125 37.15625 52.796875 32.3125 
Q 56.78125 27.484375 56.78125 20.515625 
Q 56.78125 9.90625 50.3125 4.234375 
Q 43.84375 -1.421875 31.78125 -1.421875 
Q 19.734375 -1.421875 13.25 4.234375 
Q 6.78125 9.90625 6.78125 20.515625 
Q 6.78125 27.484375 10.78125 32.3125 
Q 14.796875 37.15625 21.921875 38.8125 
z
M 18.3125 54.390625 
Q 18.3125 48.734375 21.84375 45.5625 
Q 25.390625 42.390625 31.78125 42.390625 
Q 38.140625 42.390625 41.71875 45.5625 
Q 45.3125 48.734375 45.3125 54.390625 
Q 45.3125 60.0625 41.71875 63.234375 
Q 38.140625 66.40625 31.78125 66.40625 
Q 25.390625 66.40625 21.84375 63.234375 
Q 18.3125 60.0625 18.3125 54.390625 
z
" id="DejaVuSans-56"/>
      </defs>
      <g transform="translate(322.131037 322.182437)scale(0.1 -0.1)">
       <use xlink:href="#DejaVuSans-56"/>
       <use x="63.623047" xlink:href="#DejaVuSans-48"/>
       <use x="127.246094" xlink:href="#DejaVuSans-48"/>
       <use x="190.869141" xlink:href="#DejaVuSans-46"/>
       <use x="222.65625" xlink:href="#DejaVuSans-48"/>
      </g>
     </g>
    </g>
    <g id="xtick_9">
     <g id="line2d_9">
      <g>
       <use style="stroke:#000000;stroke-width:0.8;" x="369.271646" xlink:href="#mc123e8f4d8" y="307.584"/>
      </g>
     </g>
     <g id="text_9">
      <!-- 900.0 -->
      <defs>
       <path d="M 10.984375 1.515625 
L 10.984375 10.5 
Q 14.703125 8.734375 18.5 7.8125 
Q 22.3125 6.890625 25.984375 6.890625 
Q 35.75 6.890625 40.890625 13.453125 
Q 46.046875 20.015625 46.78125 33.40625 
Q 43.953125 29.203125 39.59375 26.953125 
Q 35.25 24.703125 29.984375 24.703125 
Q 19.046875 24.703125 12.671875 31.3125 
Q 6.296875 37.9375 6.296875 49.421875 
Q 6.296875 60.640625 12.9375 67.421875 
Q 19.578125 74.21875 30.609375 74.21875 
Q 43.265625 74.21875 49.921875 64.515625 
Q 56.59375 54.828125 56.59375 36.375 
Q 56.59375 19.140625 48.40625 8.859375 
Q 40.234375 -1.421875 26.421875 -1.421875 
Q 22.703125 -1.421875 18.890625 -0.6875 
Q 15.09375 0.046875 10.984375 1.515625 
z
M 30.609375 32.421875 
Q 37.25 32.421875 41.125 36.953125 
Q 45.015625 41.5 45.015625 49.421875 
Q 45.015625 57.28125 41.125 61.84375 
Q 37.25 66.40625 30.609375 66.40625 
Q 23.96875 66.40625 20.09375 61.84375 
Q 16.21875 57.28125 16.21875 49.421875 
Q 16.21875 41.5 20.09375 36.953125 
Q 23.96875 32.421875 30.609375 32.421875 
z
" id="DejaVuSans-57"/>
      </defs>
      <g transform="translate(354.957584 322.182437)scale(0.1 -0.1)">
       <use xlink:href="#DejaVuSans-57"/>
       <use x="63.623047" xlink:href="#DejaVuSans-48"/>
       <use x="127.246094" xlink:href="#DejaVuSans-48"/>
       <use x="190.869141" xlink:href="#DejaVuSans-46"/>
       <use x="222.65625" xlink:href="#DejaVuSans-48"/>
      </g>
     </g>
    </g>
    <g id="xtick_10">
     <g id="line2d_10">
      <g>
       <use style="stroke:#000000;stroke-width:0.8;" x="402.098193" xlink:href="#mc123e8f4d8" y="307.584"/>
      </g>
     </g>
     <g id="text_10">
      <!-- 1000.0 -->
      <g transform="translate(384.60288 322.182437)scale(0.1 -0.1)">
       <use xlink:href="#DejaVuSans-49"/>
       <use x="63.623047" xlink:href="#DejaVuSans-48"/>
       <use x="127.246094" xlink:href="#DejaVuSans-48"/>
       <use x="190.869141" xlink:href="#DejaVuSans-48"/>
       <use x="254.492188" xlink:href="#DejaVuSans-46"/>
       <use x="286.279297" xlink:href="#DejaVuSans-48"/>
      </g>
     </g>
    </g>
    <g id="text_11">
     <!-- n -->
     <defs>
      <path d="M 54.890625 33.015625 
L 54.890625 0 
L 45.90625 0 
L 45.90625 32.71875 
Q 45.90625 40.484375 42.875 44.328125 
Q 39.84375 48.1875 33.796875 48.1875 
Q 26.515625 48.1875 22.3125 43.546875 
Q 18.109375 38.921875 18.109375 30.90625 
L 18.109375 0 
L 9.078125 0 
L 9.078125 54.6875 
L 18.109375 54.6875 
L 18.109375 46.1875 
Q 21.34375 51.125 25.703125 53.5625 
Q 30.078125 56 35.796875 56 
Q 45.21875 56 50.046875 50.171875 
Q 54.890625 44.34375 54.890625 33.015625 
z
" id="DejaVuSans-110"/>
     </defs>
     <g transform="translate(232.99125 335.860562)scale(0.1 -0.1)">
      <use xlink:href="#DejaVuSans-110"/>
     </g>
    </g>
   </g>
   <g id="matplotlib.axis_2">
    <g id="ytick_1">
     <g id="line2d_11">
      <defs>
       <path d="M 0 0 
L -3.5 0 
" id="m620fbcd20f" style="stroke:#000000;stroke-width:0.8;"/>
      </defs>
      <g>
       <use style="stroke:#000000;stroke-width:0.8;" x="57.6" xlink:href="#m620fbcd20f" y="303.894746"/>
      </g>
     </g>
     <g id="text_12">
      <!-- 0 -->
      <g transform="translate(44.2375 307.693965)scale(0.1 -0.1)">
       <use xlink:href="#DejaVuSans-48"/>
      </g>
     </g>
    </g>
    <g id="ytick_2">
     <g id="line2d_12">
      <g>
       <use style="stroke:#000000;stroke-width:0.8;" x="57.6" xlink:href="#m620fbcd20f" y="271.222224"/>
      </g>
     </g>
     <g id="text_13">
      <!-- 50 -->
      <g transform="translate(37.875 275.021443)scale(0.1 -0.1)">
       <use xlink:href="#DejaVuSans-53"/>
       <use x="63.623047" xlink:href="#DejaVuSans-48"/>
      </g>
     </g>
    </g>
    <g id="ytick_3">
     <g id="line2d_13">
      <g>
       <use style="stroke:#000000;stroke-width:0.8;" x="57.6" xlink:href="#m620fbcd20f" y="238.549703"/>
      </g>
     </g>
     <g id="text_14">
      <!-- 100 -->
      <g transform="translate(31.5125 242.348922)scale(0.1 -0.1)">
       <use xlink:href="#DejaVuSans-49"/>
       <use x="63.623047" xlink:href="#DejaVuSans-48"/>
       <use x="127.246094" xlink:href="#DejaVuSans-48"/>
      </g>
     </g>
    </g>
    <g id="ytick_4">
     <g id="line2d_14">
      <g>
       <use style="stroke:#000000;stroke-width:0.8;" x="57.6" xlink:href="#m620fbcd20f" y="205.877181"/>
      </g>
     </g>
     <g id="text_15">
      <!-- 150 -->
      <g transform="translate(31.5125 209.6764)scale(0.1 -0.1)">
       <use xlink:href="#DejaVuSans-49"/>
       <use x="63.623047" xlink:href="#DejaVuSans-53"/>
       <use x="127.246094" xlink:href="#DejaVuSans-48"/>
      </g>
     </g>
    </g>
    <g id="ytick_5">
     <g id="line2d_15">
      <g>
       <use style="stroke:#000000;stroke-width:0.8;" x="57.6" xlink:href="#m620fbcd20f" y="173.20466"/>
      </g>
     </g>
     <g id="text_16">
      <!-- 200 -->
      <g transform="translate(31.5125 177.003879)scale(0.1 -0.1)">
       <use xlink:href="#DejaVuSans-50"/>
       <use x="63.623047" xlink:href="#DejaVuSans-48"/>
       <use x="127.246094" xlink:href="#DejaVuSans-48"/>
      </g>
     </g>
    </g>
    <g id="ytick_6">
     <g id="line2d_16">
      <g>
       <use style="stroke:#000000;stroke-width:0.8;" x="57.6" xlink:href="#m620fbcd20f" y="140.532138"/>
      </g>
     </g>
     <g id="text_17">
      <!-- 250 -->
      <g transform="translate(31.5125 144.331357)scale(0.1 -0.1)">
       <use xlink:href="#DejaVuSans-50"/>
       <use x="63.623047" xlink:href="#DejaVuSans-53"/>
       <use x="127.246094" xlink:href="#DejaVuSans-48"/>
      </g>
     </g>
    </g>
    <g id="ytick_7">
     <g id="line2d_17">
      <g>
       <use style="stroke:#000000;stroke-width:0.8;" x="57.6" xlink:href="#m620fbcd20f" y="107.859617"/>
      </g>
     </g>
     <g id="text_18">
      <!-- 300 -->
      <g transform="translate(31.5125 111.658836)scale(0.1 -0.1)">
       <use xlink:href="#DejaVuSans-51"/>
       <use x="63.623047" xlink:href="#DejaVuSans-48"/>
       <use x="127.246094" xlink:href="#DejaVuSans-48"/>
      </g>
     </g>
    </g>
    <g id="ytick_8">
     <g id="line2d_18">
      <g>
       <use style="stroke:#000000;stroke-width:0.8;" x="57.6" xlink:href="#m620fbcd20f" y="75.187095"/>
      </g>
     </g>
     <g id="text_19">
      <!-- 350 -->
      <g transform="translate(31.5125 78.986314)scale(0.1 -0.1)">
       <use xlink:href="#DejaVuSans-51"/>
       <use x="63.623047" xlink:href="#DejaVuSans-53"/>
       <use x="127.246094" xlink:href="#DejaVuSans-48"/>
      </g>
     </g>
    </g>
    <g id="ytick_9">
     <g id="line2d_19">
      <g>
       <use style="stroke:#000000;stroke-width:0.8;" x="57.6" xlink:href="#m620fbcd20f" y="42.514574"/>
      </g>
     </g>
     <g id="text_20">
      <!-- 400 -->
      <g transform="translate(31.5125 46.313793)scale(0.1 -0.1)">
       <use xlink:href="#DejaVuSans-52"/>
       <use x="63.623047" xlink:href="#DejaVuSans-48"/>
       <use x="127.246094" xlink:href="#DejaVuSans-48"/>
      </g>
     </g>
    </g>
    <g id="text_21">
     <!-- speedup -->
     <defs>
      <path d="M 44.28125 53.078125 
L 44.28125 44.578125 
Q 40.484375 46.53125 36.375 47.5 
Q 32.28125 48.484375 27.875 48.484375 
Q 21.1875 48.484375 17.84375 46.4375 
Q 14.5 44.390625 14.5 40.28125 
Q 14.5 37.15625 16.890625 35.375 
Q 19.28125 33.59375 26.515625 31.984375 
L 29.59375 31.296875 
Q 39.15625 29.25 43.1875 25.515625 
Q 47.21875 21.78125 47.21875 15.09375 
Q 47.21875 7.46875 41.1875 3.015625 
Q 35.15625 -1.421875 24.609375 -1.421875 
Q 20.21875 -1.421875 15.453125 -0.5625 
Q 10.6875 0.296875 5.421875 2 
L 5.421875 11.28125 
Q 10.40625 8.6875 15.234375 7.390625 
Q 20.0625 6.109375 24.8125 6.109375 
Q 31.15625 6.109375 34.5625 8.28125 
Q 37.984375 10.453125 37.984375 14.40625 
Q 37.984375 18.0625 35.515625 20.015625 
Q 33.0625 21.96875 24.703125 23.78125 
L 21.578125 24.515625 
Q 13.234375 26.265625 9.515625 29.90625 
Q 5.8125 33.546875 5.8125 39.890625 
Q 5.8125 47.609375 11.28125 51.796875 
Q 16.75 56 26.8125 56 
Q 31.78125 56 36.171875 55.265625 
Q 40.578125 54.546875 44.28125 53.078125 
z
" id="DejaVuSans-115"/>
      <path d="M 18.109375 8.203125 
L 18.109375 -20.796875 
L 9.078125 -20.796875 
L 9.078125 54.6875 
L 18.109375 54.6875 
L 18.109375 46.390625 
Q 20.953125 51.265625 25.265625 53.625 
Q 29.59375 56 35.59375 56 
Q 45.5625 56 51.78125 48.09375 
Q 58.015625 40.1875 58.015625 27.296875 
Q 58.015625 14.40625 51.78125 6.484375 
Q 45.5625 -1.421875 35.59375 -1.421875 
Q 29.59375 -1.421875 25.265625 0.953125 
Q 20.953125 3.328125 18.109375 8.203125 
z
M 48.6875 27.296875 
Q 48.6875 37.203125 44.609375 42.84375 
Q 40.53125 48.484375 33.40625 48.484375 
Q 26.265625 48.484375 22.1875 42.84375 
Q 18.109375 37.203125 18.109375 27.296875 
Q 18.109375 17.390625 22.1875 11.75 
Q 26.265625 6.109375 33.40625 6.109375 
Q 40.53125 6.109375 44.609375 11.75 
Q 48.6875 17.390625 48.6875 27.296875 
z
" id="DejaVuSans-112"/>
      <path d="M 56.203125 29.59375 
L 56.203125 25.203125 
L 14.890625 25.203125 
Q 15.484375 15.921875 20.484375 11.0625 
Q 25.484375 6.203125 34.421875 6.203125 
Q 39.59375 6.203125 44.453125 7.46875 
Q 49.3125 8.734375 54.109375 11.28125 
L 54.109375 2.78125 
Q 49.265625 0.734375 44.1875 -0.34375 
Q 39.109375 -1.421875 33.890625 -1.421875 
Q 20.796875 -1.421875 13.15625 6.1875 
Q 5.515625 13.8125 5.515625 26.8125 
Q 5.515625 40.234375 12.765625 48.109375 
Q 20.015625 56 32.328125 56 
Q 43.359375 56 49.78125 48.890625 
Q 56.203125 41.796875 56.203125 29.59375 
z
M 47.21875 32.234375 
Q 47.125 39.59375 43.09375 43.984375 
Q 39.0625 48.390625 32.421875 48.390625 
Q 24.90625 48.390625 20.390625 44.140625 
Q 15.875 39.890625 15.1875 32.171875 
z
" id="DejaVuSans-101"/>
      <path d="M 45.40625 46.390625 
L 45.40625 75.984375 
L 54.390625 75.984375 
L 54.390625 0 
L 45.40625 0 
L 45.40625 8.203125 
Q 42.578125 3.328125 38.25 0.953125 
Q 33.9375 -1.421875 27.875 -1.421875 
Q 17.96875 -1.421875 11.734375 6.484375 
Q 5.515625 14.40625 5.515625 27.296875 
Q 5.515625 40.1875 11.734375 48.09375 
Q 17.96875 56 27.875 56 
Q 33.9375 56 38.25 53.625 
Q 42.578125 51.265625 45.40625 46.390625 
z
M 14.796875 27.296875 
Q 14.796875 17.390625 18.875 11.75 
Q 22.953125 6.109375 30.078125 6.109375 
Q 37.203125 6.109375 41.296875 11.75 
Q 45.40625 17.390625 45.40625 27.296875 
Q 45.40625 37.203125 41.296875 42.84375 
Q 37.203125 48.484375 30.078125 48.484375 
Q 22.953125 48.484375 18.875 42.84375 
Q 14.796875 37.203125 14.796875 27.296875 
z
" id="DejaVuSans-100"/>
      <path d="M 8.5 21.578125 
L 8.5 54.6875 
L 17.484375 54.6875 
L 17.484375 21.921875 
Q 17.484375 14.15625 20.5 10.265625 
Q 23.53125 6.390625 29.59375 6.390625 
Q 36.859375 6.390625 41.078125 11.03125 
Q 45.3125 15.671875 45.3125 23.6875 
L 45.3125 54.6875 
L 54.296875 54.6875 
L 54.296875 0 
L 45.3125 0 
L 45.3125 8.40625 
Q 42.046875 3.421875 37.71875 1 
Q 33.40625 -1.421875 27.6875 -1.421875 
Q 18.265625 -1.421875 13.375 4.4375 
Q 8.5 10.296875 8.5 21.578125 
z
M 31.109375 56 
z
" id="DejaVuSans-117"/>
     </defs>
     <g transform="translate(25.432812 195.977219)rotate(-90)scale(0.1 -0.1)">
      <use xlink:href="#DejaVuSans-115"/>
      <use x="52.099609" xlink:href="#DejaVuSans-112"/>
      <use x="115.576172" xlink:href="#DejaVuSans-101"/>
      <use x="177.099609" xlink:href="#DejaVuSans-101"/>
      <use x="238.623047" xlink:href="#DejaVuSans-100"/>
      <use x="302.099609" xlink:href="#DejaVuSans-117"/>
      <use x="365.478516" xlink:href="#DejaVuSans-112"/>
     </g>
    </g>
   </g>
   <g id="line2d_20">
    <path clip-path="url(#p29342f181a)" d="M 73.832727 188.65337 
L 74.160993 146.124905 
L 74.489258 155.212101 
L 74.817524 157.01691 
L 75.145789 162.440937 
L 75.80232 159.194942 
L 76.130586 161.426961 
L 76.458851 148.438776 
L 77.115382 156.869251 
L 77.443647 150.970435 
L 77.771913 156.675084 
L 78.100178 156.600976 
L 78.428444 157.950643 
L 78.756709 171.205573 
L 79.084975 157.580502 
L 79.741506 178.533311 
L 80.069771 170.775406 
L 80.398037 171.256479 
L 80.726302 162.83422 
L 81.054568 171.116305 
L 81.382833 175.196626 
L 81.711098 172.321766 
L 82.367629 177.139497 
L 82.695895 176.80157 
L 83.02416 176.842435 
L 83.352426 175.674328 
L 83.680691 177.58018 
L 84.008957 185.837685 
L 84.337222 179.226589 
L 84.665488 179.980111 
L 84.993753 180.104479 
L 85.322019 180.599387 
L 85.650284 178.647622 
L 85.978549 180.628057 
L 86.306815 185.371467 
L 86.63508 223.655246 
L 86.963346 184.318693 
L 87.291611 185.97232 
L 87.619877 186.530278 
L 87.948142 192.853473 
L 88.276408 182.629859 
L 88.604673 184.488721 
L 88.932939 196.421153 
L 89.261204 195.106548 
L 89.58947 187.860861 
L 89.917735 189.430857 
L 90.246001 193.169486 
L 90.574266 190.539969 
L 91.230797 188.728389 
L 91.559062 191.053901 
L 91.887328 189.461745 
L 92.215593 190.028075 
L 92.872124 194.767776 
L 93.20039 190.021225 
L 93.528655 195.593479 
L 93.856921 194.224614 
L 94.185186 196.303279 
L 94.513452 195.111389 
L 94.841717 194.397641 
L 95.169983 196.004283 
L 95.498248 201.606336 
L 95.826513 198.908027 
L 96.154779 198.732517 
L 96.483044 197.761146 
L 96.81131 201.502029 
L 97.139575 200.896303 
L 97.467841 201.463274 
L 98.124372 201.427173 
L 98.452637 206.246989 
L 99.109168 198.80352 
L 99.437434 202.132904 
L 99.765699 208.614863 
L 100.093965 199.611403 
L 100.42223 202.960639 
L 100.750495 209.37355 
L 101.078761 208.443054 
L 101.407026 200.46024 
L 101.735292 205.288672 
L 102.063557 206.86305 
L 102.391823 207.041578 
L 102.720088 207.823215 
L 103.048354 206.38718 
L 103.376619 205.76271 
L 104.361416 208.445153 
L 104.689681 212.305867 
L 105.017947 212.816568 
L 105.674477 205.755078 
L 106.002743 214.63653 
L 106.331008 210.872727 
L 106.659274 205.472095 
L 106.987539 217.117606 
L 107.315805 215.548129 
L 107.64407 217.279845 
L 107.972336 213.047197 
L 108.300601 213.45033 
L 108.628867 210.877671 
L 108.957132 216.127518 
L 109.285398 214.112351 
L 109.613663 207.288028 
L 109.941928 214.367965 
L 110.270194 245.245944 
L 110.598459 194.227266 
L 110.926725 214.268553 
L 111.25499 212.833834 
L 111.583256 225.394583 
L 111.911521 199.331399 
L 112.239787 226.273589 
L 112.896318 218.395919 
L 113.224583 217.467758 
L 113.552849 210.60107 
L 113.881114 214.724205 
L 114.20938 224.407809 
L 114.537645 218.179779 
L 114.86591 217.639859 
L 115.194176 227.350628 
L 115.522441 222.449033 
L 115.850707 226.88711 
L 116.178972 200.858625 
L 116.507238 206.144313 
L 116.835503 202.134108 
L 117.492034 239.848258 
L 117.8203 224.84778 
L 118.148565 232.503954 
L 118.476831 219.490242 
L 118.805096 232.332416 
L 119.133362 220.913033 
L 119.461627 223.443291 
L 119.789892 243.560478 
L 120.118158 218.142699 
L 120.446423 204.861567 
L 120.774689 224.623754 
L 121.102954 224.232916 
L 121.43122 215.389397 
L 121.759485 226.179692 
L 122.087751 228.31609 
L 122.416016 215.37639 
L 122.744282 237.48002 
L 123.072547 222.103273 
L 123.400813 217.882085 
L 123.729078 216.004205 
L 124.057344 229.435857 
L 124.713874 225.229497 
L 125.04214 222.629302 
L 125.370405 232.040588 
L 125.698671 222.477439 
L 126.026936 221.117537 
L 126.355202 218.731891 
L 126.683467 220.261341 
L 127.011733 211.339374 
L 127.339998 232.504955 
L 127.996529 222.900481 
L 128.324795 226.2657 
L 128.65306 53.568 
L 128.981325 253.42909 
L 129.309591 208.122378 
L 129.637856 232.39328 
L 129.966122 242.319008 
L 130.294387 226.329719 
L 130.622653 239.958428 
L 130.950918 228.999976 
L 131.279184 236.285538 
L 131.607449 222.903857 
L 131.935715 226.568926 
L 132.26398 232.871121 
L 132.592246 231.398298 
L 132.920511 225.983881 
L 133.248777 233.432198 
L 133.577042 231.021364 
L 133.905307 231.783723 
L 134.233573 224.19222 
L 134.561838 238.142192 
L 134.890104 231.753969 
L 135.218369 230.795953 
L 135.546635 234.145579 
L 135.8749 226.257954 
L 136.531431 232.342489 
L 136.859697 230.350545 
L 137.187962 236.509068 
L 137.516228 234.117582 
L 137.844493 255.052791 
L 138.172759 235.991195 
L 138.501024 228.355077 
L 138.829289 241.772364 
L 139.157555 241.928473 
L 139.48582 229.569726 
L 140.142351 240.270444 
L 140.470617 239.307399 
L 141.127148 228.985751 
L 141.455413 242.265646 
L 141.783679 234.180645 
L 142.111944 238.126247 
L 142.44021 231.438871 
L 143.096741 250.565349 
L 143.425006 236.843315 
L 143.753271 237.176713 
L 144.081537 236.484471 
L 144.409802 241.951948 
L 144.738068 235.600727 
L 145.394599 244.082284 
L 145.722864 242.934211 
L 146.05113 232.198528 
L 146.379395 249.215666 
L 146.707661 236.637864 
L 147.035926 244.358934 
L 147.692457 233.160439 
L 148.348988 246.83383 
L 148.677253 237.022047 
L 149.005519 236.722705 
L 149.333784 239.995517 
L 149.66205 244.399701 
L 149.990315 241.732462 
L 150.318581 230.087416 
L 150.646846 241.619376 
L 150.975112 236.826948 
L 151.303377 238.180021 
L 151.631643 238.837431 
L 151.959908 245.467696 
L 152.288174 236.774665 
L 152.616439 240.991194 
L 152.944704 241.195301 
L 153.27297 235.971909 
L 153.601235 236.825065 
L 153.929501 246.965889 
L 154.257766 243.391804 
L 154.586032 238.130565 
L 154.914297 244.98429 
L 155.242563 247.888436 
L 155.570828 240.785411 
L 155.899094 237.268723 
L 156.227359 239.759433 
L 156.555625 271.135499 
L 156.88389 243.130342 
L 157.212156 244.989714 
L 157.540421 241.261641 
L 157.868686 244.167393 
L 158.196952 245.330523 
L 158.525217 242.80966 
L 158.853483 246.964199 
L 159.181748 246.990467 
L 159.838279 241.558282 
L 160.166545 241.26696 
L 160.49481 247.520677 
L 160.823076 246.160176 
L 161.151341 239.811501 
L 161.479607 241.848909 
L 161.807872 245.080271 
L 162.136138 243.70158 
L 162.464403 241.173162 
L 162.792668 244.800885 
L 163.449199 245.41284 
L 163.777465 249.364113 
L 164.10573 241.620054 
L 164.433996 245.938462 
L 164.762261 247.137124 
L 165.090527 251.952151 
L 165.418792 246.539975 
L 165.747058 246.071137 
L 166.075323 247.646189 
L 166.403589 242.545831 
L 166.731854 244.847962 
L 167.060119 240.696264 
L 167.388385 248.377708 
L 167.71665 243.673079 
L 168.044916 242.644579 
L 168.373181 247.036657 
L 168.701447 247.238337 
L 169.029712 243.740048 
L 169.357978 245.052982 
L 169.686243 248.824986 
L 170.014509 248.283155 
L 170.67104 243.591416 
L 170.999305 247.109439 
L 171.327571 247.440852 
L 171.655836 244.676381 
L 171.984101 245.82689 
L 172.312367 248.767436 
L 172.640632 249.050464 
L 172.968898 248.035279 
L 173.297163 246.490933 
L 173.625429 250.467304 
L 173.953694 248.945945 
L 174.28196 249.703318 
L 174.610225 249.276453 
L 174.938491 251.023895 
L 175.266756 249.715074 
L 175.595022 252.355119 
L 176.251553 248.834754 
L 176.579818 248.170605 
L 176.908083 250.916258 
L 177.236349 252.724217 
L 177.564614 247.590582 
L 178.549411 253.987597 
L 178.877676 247.742558 
L 179.205942 247.308174 
L 179.534207 251.364074 
L 179.862473 251.499235 
L 180.190738 248.606201 
L 180.519004 247.719037 
L 180.847269 251.939729 
L 181.175535 252.129616 
L 181.5038 250.122101 
L 181.832065 249.236501 
L 182.160331 252.315133 
L 182.488596 252.239109 
L 182.816862 247.919171 
L 183.145127 247.549392 
L 183.473393 251.753296 
L 183.801658 252.540983 
L 184.129924 250.576935 
L 184.458189 250.077017 
L 185.11472 256.47547 
L 185.442986 249.724463 
L 185.771251 250.747936 
L 186.099516 257.748667 
L 186.427782 258.093525 
L 186.756047 250.937475 
L 187.084313 254.271437 
L 187.412578 254.344319 
L 187.740844 254.950071 
L 188.069109 251.355345 
L 188.397375 251.288947 
L 188.72564 254.992022 
L 189.053906 260.934164 
L 189.382171 252.193911 
L 189.710437 251.443078 
L 190.038702 255.576427 
L 190.366968 252.870666 
L 190.695233 255.980882 
L 191.023498 256.040361 
L 191.351764 253.079001 
L 191.680029 253.658281 
L 192.008295 255.258704 
L 192.33656 252.400827 
L 192.664826 252.008027 
L 192.993091 252.71013 
L 193.321357 256.33793 
L 193.649622 257.469067 
L 193.977888 259.012258 
L 194.306153 258.057726 
L 194.634419 256.280087 
L 194.962684 258.547925 
L 195.29095 253.769266 
L 195.619215 253.788896 
L 195.94748 257.30743 
L 196.275746 256.28325 
L 196.604011 253.627075 
L 196.932277 254.102097 
L 197.260542 259.772947 
L 197.588808 256.984951 
L 197.917073 256.02806 
L 198.245339 253.807047 
L 198.573604 257.139573 
L 198.90187 256.034372 
L 199.230135 256.174069 
L 199.558401 255.866095 
L 199.886666 258.120462 
L 200.214932 261.931301 
L 200.543197 255.479416 
L 200.871462 254.939083 
L 201.199728 258.2795 
L 201.856259 256.562754 
L 202.184524 255.410345 
L 202.51279 257.407883 
L 202.841055 257.420915 
L 203.169321 254.995198 
L 203.497586 256.218867 
L 204.154117 260.443158 
L 204.482383 255.633418 
L 204.810648 256.348284 
L 205.138914 258.920879 
L 205.467179 259.86965 
L 206.12371 256.275377 
L 206.451975 261.566737 
L 206.780241 259.142037 
L 207.108506 259.225895 
L 207.436772 259.854673 
L 207.765037 256.218691 
L 208.093303 257.83522 
L 208.421568 263.960059 
L 209.078099 257.294832 
L 209.406365 257.163084 
L 209.73463 260.212288 
L 210.062895 260.884354 
L 210.391161 257.751741 
L 210.719426 258.192541 
L 211.047692 263.371922 
L 211.375957 261.503104 
L 211.704223 257.667113 
L 212.032488 258.9647 
L 212.360754 260.962535 
L 212.689019 261.573016 
L 213.017285 258.53147 
L 213.34555 259.444453 
L 213.673816 260.750591 
L 214.002081 262.576884 
L 214.330347 258.922364 
L 214.658612 259.234272 
L 214.986877 261.806959 
L 215.315143 263.336871 
L 215.643408 259.09851 
L 216.299939 261.290924 
L 216.628205 267.692592 
L 216.95647 259.25924 
L 217.284736 260.931143 
L 217.613001 263.433053 
L 217.941267 263.203656 
L 218.597798 257.93648 
L 218.926063 258.507797 
L 219.254329 269.529782 
L 219.582594 250.784211 
L 219.910859 257.622829 
L 220.239125 236.835347 
L 220.56739 265.493516 
L 220.895656 260.993849 
L 221.223921 275.057123 
L 221.552187 262.832482 
L 221.880452 270.045984 
L 222.208718 273.402674 
L 222.536983 260.314945 
L 223.193514 271.232508 
L 223.52178 257.447071 
L 223.850045 257.231092 
L 224.506576 261.40669 
L 224.834841 261.015552 
L 225.163107 261.747021 
L 225.491372 268.06707 
L 225.819638 264.528589 
L 226.147903 263.792254 
L 226.476169 261.656359 
L 226.804434 260.566003 
L 227.1327 253.39756 
L 227.460965 266.803366 
L 227.789231 261.796961 
L 228.117496 275.115004 
L 228.445762 262.489356 
L 228.774027 264.413958 
L 229.102292 242.741718 
L 229.430558 271.593971 
L 229.758823 266.018917 
L 230.087089 235.474984 
L 230.415354 267.312537 
L 230.74362 263.526873 
L 231.071885 265.271672 
L 231.400151 262.353619 
L 231.728416 263.148292 
L 232.056682 260.92938 
L 232.384947 262.893365 
L 232.713213 263.433487 
L 233.041478 251.754457 
L 233.369744 262.257201 
L 233.698009 262.119271 
L 234.026274 261.687907 
L 234.35454 265.320297 
L 234.682805 246.435673 
L 235.011071 255.259794 
L 235.339336 269.207881 
L 235.667602 263.656017 
L 235.995867 263.764551 
L 236.324133 265.656616 
L 236.652398 263.821864 
L 236.980664 263.749276 
L 237.308929 266.678512 
L 237.637195 265.361183 
L 237.96546 265.855929 
L 238.293726 253.015558 
L 238.621991 269.284622 
L 238.950256 258.882994 
L 239.278522 264.054823 
L 239.606787 265.422433 
L 239.935053 266.301142 
L 240.263318 268.060391 
L 240.591584 258.188474 
L 240.919849 264.906755 
L 241.248115 258.596237 
L 241.57638 266.383794 
L 241.904646 265.165725 
L 242.232911 266.130916 
L 242.561177 267.779036 
L 242.889442 252.282643 
L 243.217708 256.295914 
L 243.545973 268.789803 
L 244.202504 268.606993 
L 244.530769 268.992975 
L 244.859035 265.963167 
L 245.1873 268.047161 
L 245.515566 269.031564 
L 245.843831 264.863379 
L 246.172097 264.802153 
L 246.500362 268.056536 
L 246.828628 269.215516 
L 247.156893 266.399813 
L 247.485159 266.128525 
L 247.813424 268.70875 
L 248.141689 268.975735 
L 248.469955 266.86924 
L 249.126486 269.423253 
L 249.454751 268.991203 
L 249.783017 270.323184 
L 250.111282 266.135586 
L 250.439548 269.333533 
L 250.767813 269.075092 
L 251.096079 261.32761 
L 251.424344 265.887324 
L 251.75261 268.821004 
L 252.080875 270.090454 
L 252.409141 266.609527 
L 252.737406 266.305722 
L 253.065671 269.348688 
L 253.393937 269.373179 
L 253.722202 267.139939 
L 254.050468 266.289687 
L 254.378733 268.368806 
L 254.706999 279.976249 
L 255.035264 266.885866 
L 255.36353 269.350755 
L 255.691795 269.953038 
L 256.020061 263.478987 
L 256.676592 269.415672 
L 257.333123 270.545523 
L 257.661388 270.492233 
L 257.989653 267.778302 
L 258.317919 269.696262 
L 258.646184 270.797812 
L 258.97445 265.896917 
L 259.302715 267.33738 
L 259.630981 270.673759 
L 259.959246 270.205667 
L 260.944043 265.182288 
L 261.272308 280.253617 
L 261.600574 266.210011 
L 261.928839 269.907714 
L 262.257105 269.505525 
L 262.58537 271.032891 
L 262.913635 267.341189 
L 263.241901 269.398244 
L 263.570166 270.494138 
L 263.898432 273.262755 
L 264.226697 268.489088 
L 264.554963 268.261469 
L 264.883228 270.992833 
L 265.211494 270.78416 
L 265.539759 259.7683 
L 265.868025 270.579093 
L 266.19629 270.526689 
L 266.524556 270.683867 
L 266.852821 268.114828 
L 267.181086 276.605658 
L 267.509352 271.272938 
L 267.837617 270.75765 
L 268.165883 269.768518 
L 268.494148 268.193875 
L 268.822414 271.462911 
L 269.150679 270.722199 
L 269.478945 269.017694 
L 269.80721 269.254106 
L 270.463741 274.593872 
L 270.792007 269.307741 
L 271.120272 269.841924 
L 271.448538 271.765539 
L 271.776803 272.537722 
L 272.105068 270.406762 
L 272.433334 269.999288 
L 272.761599 274.535338 
L 273.089865 273.872309 
L 273.41813 269.784329 
L 273.746396 270.116992 
L 274.074661 272.835584 
L 274.402927 273.071074 
L 274.731192 269.901051 
L 275.059458 272.87136 
L 275.387723 272.657535 
L 275.715989 273.153948 
L 276.044254 270.650273 
L 276.37252 271.14624 
L 276.700785 273.404192 
L 277.02905 272.90895 
L 277.357316 254.709794 
L 277.685581 272.624894 
L 278.013847 261.498587 
L 278.342112 274.620246 
L 278.670378 271.020333 
L 278.998643 270.777485 
L 279.326909 273.784679 
L 279.655174 279.754824 
L 279.98344 263.258454 
L 280.311705 262.215424 
L 280.639971 270.597455 
L 280.968236 273.481622 
L 281.296502 270.401854 
L 281.624767 272.479097 
L 281.953032 273.625073 
L 282.281298 273.392158 
L 282.609563 272.009901 
L 282.937829 262.758201 
L 283.266094 273.855438 
L 283.59436 262.259922 
L 283.922625 272.473967 
L 284.250891 271.704944 
L 284.579156 275.971339 
L 285.235687 271.79692 
L 285.563953 271.792888 
L 285.892218 275.46276 
L 286.220484 274.649603 
L 286.548749 271.805503 
L 286.877014 270.812208 
L 287.20528 272.867139 
L 287.533545 273.638212 
L 287.861811 271.332866 
L 288.190076 258.712535 
L 288.518342 276.86258 
L 288.846607 273.280028 
L 289.174873 271.788837 
L 289.503138 271.013259 
L 289.831404 273.844111 
L 290.159669 274.117172 
L 290.487935 273.99812 
L 290.8162 271.833396 
L 291.144465 274.654901 
L 291.472731 274.102797 
L 292.129262 270.88743 
L 292.785793 275.789995 
L 293.114058 271.9908 
L 293.442324 274.997766 
L 293.770589 274.125943 
L 294.098855 274.598283 
L 294.42712 272.351422 
L 294.755386 271.06757 
L 295.083651 274.957839 
L 295.411917 274.156168 
L 295.740182 274.083549 
L 296.068447 273.058581 
L 296.396713 274.872406 
L 296.724978 274.248428 
L 297.053244 269.451921 
L 297.381509 276.945307 
L 297.709775 274.521383 
L 298.03804 274.548667 
L 298.366306 272.776518 
L 298.694571 273.141459 
L 299.351102 277.080531 
L 299.679368 281.941499 
L 300.007633 273.204675 
L 300.335899 275.68618 
L 300.664164 273.643067 
L 300.992429 273.099288 
L 301.320695 270.032071 
L 301.64896 275.240161 
L 301.977226 260.193669 
L 302.305491 274.593486 
L 302.633757 273.082317 
L 302.962022 275.025842 
L 303.290288 273.170813 
L 303.618553 273.954799 
L 303.946819 268.211988 
L 304.275084 276.422195 
L 304.60335 275.608345 
L 304.931615 273.101834 
L 305.259881 273.067037 
L 305.916411 279.837761 
L 306.572942 272.841888 
L 307.557739 278.887023 
L 307.886004 274.180977 
L 308.21427 282.467306 
L 308.542535 275.591252 
L 308.870801 273.314811 
L 309.199066 274.441588 
L 309.527332 271.321713 
L 309.855597 277.505621 
L 310.183862 267.909056 
L 310.512128 275.087003 
L 310.840393 276.083498 
L 311.168659 276.509803 
L 311.496924 271.750156 
L 311.82519 273.092217 
L 312.153455 277.40552 
L 312.481721 276.294091 
L 312.809986 274.551598 
L 313.138252 273.816556 
L 313.466517 276.466716 
L 313.794783 276.338536 
L 314.123048 266.978821 
L 314.451314 268.225634 
L 314.779579 276.246893 
L 315.107844 276.538278 
L 315.43611 272.064629 
L 316.092641 276.849481 
L 316.420906 276.904451 
L 317.077437 274.014259 
L 317.405703 277.26366 
L 318.062234 275.167355 
L 318.390499 275.212116 
L 319.04703 276.855047 
L 319.375296 274.922661 
L 319.703561 274.534543 
L 320.031826 277.157453 
L 320.360092 276.965593 
L 320.688357 274.595184 
L 321.344888 276.239452 
L 321.673154 277.334463 
L 322.001419 277.117495 
L 322.329685 282.709439 
L 322.65795 277.257991 
L 322.986216 276.977704 
L 323.314481 274.383838 
L 323.642747 275.482963 
L 323.971012 277.633318 
L 324.299278 277.254323 
L 324.627543 275.514725 
L 324.955808 275.607053 
L 325.612339 277.737869 
L 325.940605 275.143605 
L 326.26887 275.417126 
L 326.597136 272.842578 
L 326.925401 278.199146 
L 327.253667 274.95931 
L 327.581932 275.433129 
L 327.910198 278.241657 
L 328.238463 277.327519 
L 328.566729 275.714645 
L 328.894994 275.975559 
L 329.223259 277.706516 
L 329.551525 278.11325 
L 329.87979 275.793614 
L 330.208056 259.269552 
L 330.536321 278.773093 
L 330.864587 277.706533 
L 331.192852 275.572598 
L 331.521118 276.261359 
L 331.849383 278.784403 
L 332.505914 276.408887 
L 332.83418 276.77337 
L 333.162445 277.775845 
L 333.490711 277.985131 
L 333.818976 276.137902 
L 334.147241 276.537369 
L 334.475507 279.046294 
L 334.803772 278.526893 
L 335.132038 275.933716 
L 335.460303 276.235803 
L 335.788569 278.407192 
L 336.4451 276.257565 
L 336.773365 277.028637 
L 337.101631 278.159045 
L 337.429896 278.662328 
L 337.758162 276.835074 
L 338.086427 269.588548 
L 338.414693 280.22442 
L 338.742958 278.867061 
L 339.071223 276.382822 
L 339.399489 276.394378 
L 339.727754 278.822515 
L 340.05602 278.70062 
L 340.384285 276.20349 
L 340.712551 276.80207 
L 341.040816 278.98975 
L 341.369082 278.132266 
L 341.697347 276.764784 
L 342.025613 277.472472 
L 342.353878 268.806172 
L 342.682144 279.813376 
L 343.010409 276.901487 
L 343.338675 277.008725 
L 343.66694 278.835389 
L 343.995205 278.909259 
L 344.323471 277.068946 
L 344.651736 277.32896 
L 344.980002 278.892623 
L 345.636533 277.335819 
L 345.964798 277.423322 
L 346.293064 278.536716 
L 346.621329 269.556973 
L 346.949595 278.79847 
L 347.27786 277.596435 
L 347.606126 278.528383 
L 347.934391 279.909413 
L 348.262656 277.642091 
L 348.590922 277.963731 
L 349.247453 279.434363 
L 349.575718 277.83275 
L 349.903984 277.370278 
L 350.232249 279.2349 
L 350.560515 279.921729 
L 350.88878 277.656475 
L 351.217046 273.827418 
L 351.545311 279.904393 
L 351.873577 279.470153 
L 352.201842 283.803782 
L 352.530108 277.87335 
L 352.858373 279.361794 
L 353.186638 279.039701 
L 353.514904 277.816575 
L 353.843169 278.246287 
L 354.4997 279.867374 
L 354.827966 278.012945 
L 355.156231 278.054208 
L 355.484497 279.565006 
L 355.812762 280.083367 
L 356.141028 278.559968 
L 356.469293 277.979606 
L 356.797559 279.996317 
L 357.125824 280.314593 
L 357.45409 277.879592 
L 357.782355 278.098087 
L 358.11062 281.524668 
L 358.438886 280.108846 
L 358.767151 277.420096 
L 359.095417 277.502699 
L 359.423682 280.605096 
L 360.080213 278.635671 
L 360.408479 278.232013 
L 360.736744 285.309715 
L 361.06501 279.744321 
L 361.393275 278.165774 
L 361.721541 274.469663 
L 362.049806 280.212781 
L 362.378072 280.167985 
L 362.706337 284.835965 
L 363.034602 278.346421 
L 363.362868 280.125345 
L 363.691133 280.765281 
L 364.019399 278.742433 
L 364.347664 268.798989 
L 364.67593 281.090245 
L 365.004195 280.189369 
L 365.332461 278.097003 
L 365.660726 279.652869 
L 365.988992 279.193317 
L 366.317257 280.182663 
L 366.645523 278.385291 
L 366.973788 277.668848 
L 367.302053 279.88581 
L 367.630319 281.25584 
L 367.958584 278.384707 
L 368.28685 278.293964 
L 368.943381 281.043823 
L 369.271646 268.426769 
L 369.599912 278.03437 
L 369.928177 279.959634 
L 370.256443 280.691171 
L 370.912974 276.922395 
L 371.241239 281.305249 
L 371.569505 281.011725 
L 371.89777 278.549524 
L 372.226035 278.998233 
L 372.554301 281.052017 
L 372.882566 280.013876 
L 373.210832 279.775101 
L 373.539097 279.041152 
L 373.867363 280.819679 
L 374.195628 280.416194 
L 374.523894 279.02305 
L 374.852159 276.999663 
L 375.180425 281.20811 
L 375.50869 280.302199 
L 375.836956 278.735519 
L 376.165221 278.80346 
L 376.493487 280.593767 
L 376.821752 289.476556 
L 377.150017 276.088109 
L 377.478283 273.475103 
L 377.806548 281.612465 
L 378.134814 281.32109 
L 378.463079 283.582007 
L 378.791345 279.46108 
L 379.11961 281.637446 
L 379.447876 285.18426 
L 379.776141 278.407621 
L 380.104407 279.036985 
L 380.432672 283.871861 
L 380.760938 282.426603 
L 381.089203 279.248941 
L 381.417469 279.656373 
L 381.745734 281.673034 
L 382.073999 281.405228 
L 382.402265 277.338009 
L 383.058796 281.44739 
L 383.387061 281.243466 
L 383.715327 280.03005 
L 384.043592 279.604995 
L 384.371858 282.013118 
L 384.700123 285.587577 
L 385.028389 279.920046 
L 385.356654 279.658541 
L 386.013185 280.606391 
L 386.341451 276.095903 
L 386.669716 280.026609 
L 386.997981 277.779998 
L 387.326247 281.077664 
L 387.654512 280.476828 
L 387.982778 280.126068 
L 388.311043 278.673984 
L 388.967574 279.36968 
L 389.29584 277.274947 
L 389.624105 280.22094 
L 389.952371 280.644827 
L 390.280636 274.954254 
L 390.608902 282.930764 
L 390.937167 278.206466 
L 391.265432 278.617387 
L 391.593698 278.444991 
L 391.921963 280.463468 
L 392.250229 279.244733 
L 392.578494 280.384648 
L 392.90676 280.906674 
L 393.235025 280.871496 
L 393.563291 280.181208 
L 393.891556 280.346268 
L 394.219822 279.218525 
L 394.548087 284.00454 
L 394.876353 281.515256 
L 395.204618 281.053889 
L 395.532884 281.929702 
L 396.189414 277.939414 
L 396.51768 281.64221 
L 396.845945 280.190662 
L 397.174211 271.045783 
L 397.502476 280.431743 
L 397.830742 279.698815 
L 398.159007 282.177548 
L 398.487273 279.425778 
L 398.487273 279.425778 
" style="fill:none;stroke:#1f77b4;stroke-linecap:square;stroke-width:1.5;"/>
   </g>
   <g id="line2d_21">
    <path clip-path="url(#p29342f181a)" d="M 73.832727 178.203998 
L 74.160993 57.901432 
L 74.489258 234.368118 
L 74.817524 166.852669 
L 75.145789 166.891422 
L 75.474055 166.803019 
L 75.80232 170.337591 
L 76.130586 164.535476 
L 76.458851 168.29066 
L 76.787116 174.237163 
L 77.443647 180.046291 
L 77.771913 175.927717 
L 78.100178 135.973442 
L 78.428444 234.279338 
L 78.756709 185.722564 
L 79.084975 186.229437 
L 79.41324 183.729137 
L 79.741506 188.822928 
L 80.069771 182.177707 
L 80.398037 193.390639 
L 80.726302 193.883229 
L 81.054568 193.072114 
L 81.382833 193.868003 
L 81.711098 195.82062 
L 82.039364 193.365361 
L 82.367629 123.702846 
L 82.695895 211.404624 
L 83.02416 201.838988 
L 83.352426 206.529581 
L 83.680691 206.810844 
L 84.008957 204.970963 
L 84.337222 208.641768 
L 84.665488 205.752786 
L 84.993753 205.320443 
L 85.322019 213.126367 
L 85.650284 209.671295 
L 85.978549 209.725918 
L 86.306815 208.102994 
L 86.63508 144.198257 
L 86.963346 213.559415 
L 87.619877 209.335635 
L 87.948142 221.077619 
L 88.276408 216.590685 
L 88.604673 218.639181 
L 88.932939 219.217835 
L 89.261204 222.365335 
L 89.58947 219.616606 
L 89.917735 224.913658 
L 90.246001 219.718642 
L 90.574266 178.540665 
L 90.902531 252.815165 
L 91.230797 224.193317 
L 91.559062 223.501255 
L 91.887328 228.263763 
L 92.215593 224.887334 
L 92.543859 230.030049 
L 92.872124 219.434195 
L 93.20039 233.386975 
L 93.528655 227.447521 
L 93.856921 233.931781 
L 94.185186 227.510924 
L 94.513452 200.613305 
L 94.841717 251.826905 
L 95.169983 202.156858 
L 95.498248 189.279161 
L 95.826513 234.556316 
L 96.154779 228.132869 
L 96.483044 229.14499 
L 96.81131 228.52522 
L 97.139575 230.848999 
L 97.467841 229.859188 
L 97.796106 229.381506 
L 98.124372 181.741878 
L 98.452637 249.526077 
L 98.780903 230.656112 
L 99.109168 234.354886 
L 99.437434 231.847299 
L 99.765699 230.81171 
L 100.093965 232.348632 
L 100.42223 236.898208 
L 100.750495 236.881417 
L 101.078761 238.437466 
L 101.407026 234.884928 
L 101.735292 236.669224 
L 102.063557 228.060699 
L 102.391823 244.339307 
L 102.720088 237.007264 
L 103.048354 234.923289 
L 103.376619 255.307068 
L 103.704885 239.750018 
L 104.03315 242.106902 
L 104.361416 242.237745 
L 104.689681 240.350243 
L 105.017947 241.832079 
L 105.346212 216.318251 
L 105.674477 258.822218 
L 106.002743 244.487616 
L 106.331008 244.64738 
L 106.659274 241.102977 
L 106.987539 245.183875 
L 107.315805 246.804262 
L 107.64407 249.561032 
L 107.972336 243.283618 
L 108.300601 248.401307 
L 108.628867 250.209942 
L 108.957132 248.796975 
L 109.285398 247.96273 
L 109.613663 253.222322 
L 109.941928 245.265673 
L 110.270194 253.595209 
L 110.598459 250.557785 
L 110.926725 252.83985 
L 111.25499 246.147524 
L 111.583256 249.946406 
L 111.911521 247.254408 
L 112.239787 252.930568 
L 112.568052 251.216766 
L 112.896318 253.460413 
L 113.224583 246.287695 
L 113.881114 253.834254 
L 114.20938 252.577255 
L 114.537645 248.828137 
L 114.86591 251.819908 
L 115.194176 249.808099 
L 115.522441 251.878058 
L 115.850707 252.566634 
L 116.178972 256.696376 
L 116.507238 253.78778 
L 116.835503 231.932671 
L 117.163769 254.036337 
L 117.492034 254.386885 
L 117.8203 255.98784 
L 118.148565 255.087062 
L 118.476831 251.752836 
L 118.805096 257.060068 
L 119.133362 252.865312 
L 119.461627 255.855434 
L 119.789892 253.221473 
L 120.118158 259.533157 
L 120.446423 248.803723 
L 120.774689 257.780617 
L 121.102954 249.912004 
L 121.43122 258.11567 
L 121.759485 250.272131 
L 122.087751 258.967691 
L 122.416016 255.448596 
L 122.744282 257.753787 
L 123.072547 256.675538 
L 123.400813 258.796746 
L 123.729078 255.761466 
L 124.057344 233.620933 
L 124.385609 257.802575 
L 124.713874 259.675823 
L 125.04214 260.255525 
L 125.370405 259.816906 
L 125.698671 258.262288 
L 126.026936 260.917463 
L 126.355202 256.780844 
L 126.683467 261.6535 
L 127.011733 258.027675 
L 127.339998 260.593772 
L 127.668264 258.671398 
L 127.996529 264.370365 
L 128.324795 265.488804 
L 128.65306 259.408597 
L 128.981325 259.453763 
L 129.309591 261.83751 
L 129.637856 260.320792 
L 129.966122 262.138775 
L 130.294387 259.507263 
L 130.622653 262.788008 
L 130.950918 255.329561 
L 131.279184 268.570295 
L 131.607449 260.931953 
L 131.935715 262.755236 
L 132.26398 261.529349 
L 132.592246 263.880838 
L 132.920511 261.088465 
L 133.248777 264.746892 
L 133.577042 262.361856 
L 133.905307 264.92598 
L 134.233573 262.583182 
L 134.561838 266.599206 
L 134.890104 260.217285 
L 135.218369 265.289101 
L 135.546635 263.875861 
L 135.8749 265.688684 
L 136.203166 262.711345 
L 136.531431 265.659523 
L 136.859697 263.39057 
L 137.187962 266.461648 
L 137.516228 263.522574 
L 137.844493 257.785624 
L 138.501024 275.14648 
L 138.829289 261.510785 
L 139.157555 266.237548 
L 139.48582 264.591854 
L 139.814086 260.584638 
L 140.142351 265.075581 
L 140.470617 267.38526 
L 140.798882 262.742239 
L 141.127148 269.295426 
L 141.455413 265.487654 
L 141.783679 268.979014 
L 142.111944 266.052431 
L 142.44021 268.582352 
L 142.768475 266.04111 
L 143.096741 265.249022 
L 143.425006 267.785677 
L 143.753271 269.322683 
L 144.081537 266.609013 
L 144.409802 270.000459 
L 144.738068 267.211479 
L 145.066333 269.190842 
L 145.394599 267.538338 
L 145.722864 269.264119 
L 146.05113 267.919345 
L 146.379395 268.441188 
L 146.707661 275.207879 
L 147.035926 268.450875 
L 147.364192 269.556382 
L 147.692457 272.24672 
L 148.020722 267.63909 
L 148.348988 270.716586 
L 148.677253 268.222157 
L 149.005519 269.080331 
L 149.333784 269.300409 
L 149.66205 269.264243 
L 149.990315 270.504985 
L 150.318581 270.940249 
L 150.646846 270.963946 
L 150.975112 271.757713 
L 151.303377 262.342345 
L 151.631643 270.794777 
L 151.959908 253.925877 
L 152.288174 269.938994 
L 152.616439 268.864325 
L 153.27297 272.146379 
L 153.601235 268.514388 
L 153.929501 272.787797 
L 154.257766 270.486232 
L 154.586032 269.993762 
L 154.914297 270.412216 
L 155.242563 272.724246 
L 155.899094 270.445879 
L 156.555625 271.961754 
L 156.88389 263.810094 
L 157.212156 273.508528 
L 157.540421 270.952731 
L 157.868686 273.469864 
L 158.525217 269.98872 
L 158.853483 273.074899 
L 159.181748 273.768 
L 159.510014 273.589317 
L 159.838279 266.829021 
L 160.166545 275.903766 
L 160.49481 273.273417 
L 160.823076 272.308161 
L 161.151341 273.539089 
L 161.479607 271.966287 
L 161.807872 274.40946 
L 162.136138 273.19675 
L 162.464403 275.046815 
L 162.792668 280.763231 
L 163.120934 276.044341 
L 163.449199 273.463537 
L 163.777465 274.711455 
L 164.10573 273.361231 
L 164.433996 275.153031 
L 164.762261 273.542121 
L 165.090527 275.671576 
L 165.418792 273.513805 
L 165.747058 274.836319 
L 166.075323 274.648149 
L 166.403589 283.304042 
L 166.731854 274.501849 
L 167.060119 275.852541 
L 167.388385 274.442708 
L 167.71665 279.843031 
L 168.044916 274.469888 
L 168.373181 275.782585 
L 168.701447 275.350789 
L 169.029712 273.822983 
L 169.357978 274.672927 
L 169.686243 276.179297 
L 170.014509 274.812652 
L 170.342774 275.931313 
L 170.67104 275.059059 
L 170.999305 277.181863 
L 171.327571 274.857262 
L 171.655836 277.198406 
L 171.984101 272.232167 
L 172.312367 276.366794 
L 172.640632 275.931358 
L 172.968898 277.673558 
L 173.297163 277.461345 
L 173.953694 276.295016 
L 174.28196 277.711008 
L 174.938491 274.957487 
L 175.266756 270.323319 
L 175.595022 276.215208 
L 175.923287 278.156925 
L 176.251553 276.608176 
L 176.579818 277.028137 
L 176.908083 276.618301 
L 177.236349 282.999642 
L 177.564614 276.913107 
L 177.89288 278.677025 
L 178.221145 276.633631 
L 178.549411 278.841822 
L 178.877676 276.854136 
L 179.205942 278.923142 
L 179.534207 277.332831 
L 179.862473 278.525374 
L 180.190738 277.213078 
L 180.519004 278.160651 
L 180.847269 268.777299 
L 181.175535 279.179653 
L 181.5038 277.787278 
L 181.832065 279.097447 
L 182.160331 278.343311 
L 182.488596 279.286798 
L 182.816862 278.073439 
L 183.145127 279.220774 
L 183.473393 278.473314 
L 183.801658 279.785124 
L 184.129924 278.937634 
L 184.458189 279.688681 
L 184.786455 278.089935 
L 185.11472 279.374695 
L 185.442986 278.311858 
L 185.771251 279.979466 
L 186.099516 278.368256 
L 186.427782 280.160851 
L 186.756047 280.247476 
L 187.412578 278.322756 
L 187.740844 279.868845 
L 188.069109 278.95345 
L 188.397375 280.565008 
L 188.72564 279.162956 
L 189.053906 283.605403 
L 189.382171 279.261951 
L 189.710437 280.965255 
L 190.038702 279.641755 
L 190.366968 279.36288 
L 190.695233 280.541372 
L 191.023498 279.961591 
L 191.351764 281.152412 
L 191.680029 280.28649 
L 192.008295 280.707579 
L 192.33656 276.094507 
L 192.664826 282.821872 
L 192.993091 280.552676 
L 193.321357 282.618227 
L 193.649622 280.369889 
L 193.977888 281.532128 
L 194.306153 281.134202 
L 194.634419 281.987173 
L 194.962684 280.651222 
L 195.29095 281.978248 
L 195.619215 286.376629 
L 195.94748 282.452119 
L 196.275746 280.375203 
L 196.604011 282.135748 
L 196.932277 280.764526 
L 197.260542 282.022187 
L 197.588808 279.541304 
L 197.917073 279.886343 
L 198.245339 272.563715 
L 198.90187 284.873542 
L 199.558401 280.58115 
L 199.886666 282.269651 
L 200.214932 281.39412 
L 200.543197 281.784461 
L 200.871462 281.91005 
L 201.199728 282.462596 
L 201.527993 281.814789 
L 201.856259 282.377286 
L 202.184524 286.266753 
L 202.51279 281.286349 
L 202.841055 286.634121 
L 203.169321 279.27374 
L 203.825852 282.881529 
L 204.154117 280.720214 
L 204.482383 282.68166 
L 204.810648 282.174573 
L 205.138914 282.99327 
L 205.795444 282.19939 
L 206.12371 282.945335 
L 206.780241 282.215088 
L 207.108506 282.314825 
L 207.436772 283.647037 
L 207.765037 282.121343 
L 208.093303 283.683392 
L 208.421568 280.619453 
L 208.749834 284.520861 
L 209.078099 282.046541 
L 209.406365 283.868335 
L 209.73463 282.541724 
L 210.062895 284.131264 
L 210.391161 282.420284 
L 210.719426 283.776943 
L 211.047692 282.558446 
L 211.375957 284.011761 
L 211.704223 281.864103 
L 212.032488 283.99592 
L 212.360754 282.823371 
L 212.689019 284.331367 
L 213.017285 282.620036 
L 213.34555 283.897951 
L 213.673816 282.7565 
L 214.002081 288.092069 
L 214.330347 283.071979 
L 214.658612 283.956595 
L 214.986877 283.189869 
L 215.315143 284.00021 
L 215.643408 282.564173 
L 215.971674 284.246812 
L 216.299939 283.128003 
L 216.628205 283.949159 
L 216.95647 283.381768 
L 217.284736 284.412544 
L 217.613001 283.624084 
L 217.941267 284.555921 
L 218.269532 283.767809 
L 218.597798 284.759802 
L 218.926063 283.676934 
L 219.254329 282.20235 
L 219.582594 283.20885 
L 219.910859 284.960464 
L 220.239125 283.886989 
L 220.56739 284.70809 
L 220.895656 284.154495 
L 221.223921 285.382746 
L 221.552187 283.285257 
L 221.880452 285.783369 
L 222.208718 283.883574 
L 222.536983 284.741325 
L 222.865249 283.631011 
L 223.193514 285.106494 
L 223.52178 283.942853 
L 223.850045 285.538821 
L 224.178311 282.253956 
L 224.834841 277.548851 
L 225.163107 285.590861 
L 225.491372 284.141583 
L 226.147903 287.214828 
L 226.476169 284.92139 
L 226.804434 284.231694 
L 227.1327 285.275972 
L 227.460965 284.150348 
L 227.789231 285.539898 
L 228.117496 284.688604 
L 228.445762 286.082835 
L 228.774027 286.895635 
L 229.102292 285.829667 
L 229.430558 284.268924 
L 229.758823 285.627638 
L 230.087089 284.812162 
L 230.415354 285.624244 
L 230.74362 285.187002 
L 231.071885 285.149848 
L 231.400151 285.79398 
L 231.728416 285.889208 
L 232.056682 284.825 
L 232.384947 285.963458 
L 232.713213 284.789348 
L 233.041478 276.912772 
L 233.369744 284.777703 
L 233.698009 284.676364 
L 234.026274 284.330401 
L 234.35454 286.218453 
L 234.682805 281.824271 
L 235.011071 286.20147 
L 235.339336 285.336468 
L 235.667602 285.926323 
L 235.995867 285.2898 
L 236.324133 288.647246 
L 236.652398 285.624744 
L 236.980664 279.062042 
L 237.308929 284.443713 
L 237.637195 286.445922 
L 237.96546 285.463525 
L 238.293726 286.077956 
L 238.621991 285.291322 
L 238.950256 286.439049 
L 239.278522 277.582759 
L 239.606787 286.693448 
L 239.935053 285.491312 
L 240.263318 286.616876 
L 240.591584 285.318679 
L 240.919849 286.280136 
L 241.248115 285.678587 
L 241.57638 277.218124 
L 241.904646 286.182024 
L 242.232911 286.876308 
L 242.561177 286.802245 
L 242.889442 286.555873 
L 243.217708 285.804007 
L 243.545973 287.18519 
L 243.874238 277.890464 
L 244.202504 286.696114 
L 244.530769 285.72599 
L 244.859035 287.120959 
L 245.1873 286.08302 
L 245.515566 288.31388 
L 245.843831 286.56427 
L 246.172097 282.905227 
L 246.500362 285.917834 
L 246.828628 287.622696 
L 247.156893 286.236912 
L 247.485159 287.62773 
L 247.813424 286.051628 
L 248.141689 287.489489 
L 248.469955 278.935702 
L 248.79822 287.786141 
L 249.126486 286.694947 
L 249.454751 287.025181 
L 249.783017 286.764108 
L 250.111282 287.486489 
L 250.439548 286.371772 
L 250.767813 287.77972 
L 251.096079 286.862294 
L 251.424344 287.634879 
L 251.75261 286.7591 
L 252.080875 287.736726 
L 252.409141 286.303754 
L 252.737406 287.625546 
L 253.065671 287.038989 
L 253.393937 287.435061 
L 253.722202 286.724416 
L 254.050468 287.214117 
L 254.378733 286.960538 
L 254.706999 287.383416 
L 255.035264 287.061923 
L 255.36353 290.32628 
L 255.691795 285.216239 
L 256.020061 288.132702 
L 256.348326 286.737011 
L 256.676592 288.348445 
L 257.004857 286.851344 
L 257.333123 289.404115 
L 257.661388 287.265562 
L 257.989653 288.06084 
L 258.317919 287.144715 
L 258.646184 288.084432 
L 258.97445 287.329848 
L 259.302715 288.640172 
L 259.630981 287.178051 
L 259.959246 288.085934 
L 260.287512 287.55834 
L 260.615777 288.587858 
L 260.944043 287.634509 
L 261.272308 288.066355 
L 261.600574 287.444629 
L 261.928839 288.77465 
L 262.257105 287.399436 
L 262.58537 288.398985 
L 262.913635 287.405018 
L 263.241901 288.004032 
L 263.570166 287.674812 
L 263.898432 288.735117 
L 264.226697 287.877127 
L 264.554963 288.695214 
L 264.883228 287.771171 
L 265.211494 288.763509 
L 265.539759 287.496648 
L 265.868025 288.637499 
L 266.19629 287.751346 
L 266.852821 287.152358 
L 267.181086 288.418477 
L 267.509352 288.047978 
L 267.837617 289.075175 
L 268.165883 287.368631 
L 268.494148 288.296633 
L 268.822414 287.983262 
L 269.150679 288.488654 
L 269.478945 287.883476 
L 269.80721 288.953361 
L 270.135476 287.850152 
L 270.463741 288.653423 
L 270.792007 288.200243 
L 271.120272 284.106002 
L 271.448538 288.386926 
L 271.776803 289.211276 
L 272.105068 287.710521 
L 272.433334 288.781 
L 272.761599 288.059403 
L 273.089865 289.110717 
L 273.41813 288.296784 
L 273.746396 289.484073 
L 274.074661 288.462031 
L 274.402927 289.328106 
L 274.731192 288.026857 
L 275.059458 289.187423 
L 275.715989 288.045069 
L 276.044254 283.905445 
L 276.37252 289.512536 
L 276.700785 287.859777 
L 277.02905 289.07667 
L 277.357316 288.778117 
L 277.685581 289.43013 
L 278.013847 288.554113 
L 278.342112 289.255019 
L 278.670378 288.881032 
L 278.998643 289.515433 
L 279.326909 287.833549 
L 279.655174 289.185744 
L 279.98344 288.527695 
L 280.311705 289.420882 
L 280.639971 288.806962 
L 280.968236 289.722876 
L 281.296502 288.891026 
L 281.624767 289.518041 
L 281.953032 288.889294 
L 282.281298 281.629693 
L 282.609563 288.562083 
L 282.937829 289.573463 
L 283.266094 288.546268 
L 283.59436 289.529629 
L 283.922625 289.182336 
L 284.250891 289.573283 
L 284.579156 288.993441 
L 284.907422 289.687318 
L 285.235687 288.631817 
L 285.563953 289.909046 
L 285.892218 288.985704 
L 286.220484 290.22224 
L 286.548749 288.800066 
L 286.877014 289.543646 
L 287.20528 289.051379 
L 287.533545 290.305773 
L 287.861811 288.798492 
L 288.190076 289.993123 
L 288.518342 289.163556 
L 288.846607 286.166244 
L 289.174873 289.489951 
L 289.503138 290.249006 
L 289.831404 288.905108 
L 290.159669 290.152494 
L 290.487935 289.136204 
L 290.8162 290.380935 
L 291.144465 288.971382 
L 291.472731 290.076708 
L 291.800996 289.705667 
L 292.129262 290.288327 
L 292.457527 289.615799 
L 292.785793 290.326936 
L 293.114058 289.632849 
L 293.442324 290.635457 
L 293.770589 289.682903 
L 294.098855 290.044239 
L 294.42712 289.383543 
L 294.755386 290.105669 
L 295.083651 289.525004 
L 295.411917 290.411746 
L 295.740182 289.18015 
L 296.068447 290.607439 
L 296.396713 289.890415 
L 296.724978 290.202995 
L 297.053244 289.645303 
L 297.381509 290.138151 
L 297.709775 290.082501 
L 298.03804 290.803885 
L 298.366306 289.791927 
L 298.694571 290.504904 
L 299.022837 283.294665 
L 299.351102 290.596439 
L 299.679368 289.597341 
L 300.007633 290.574109 
L 300.335899 289.096029 
L 300.664164 290.235178 
L 300.992429 289.901474 
L 301.320695 285.733956 
L 301.64896 289.896229 
L 301.977226 290.454495 
L 302.305491 289.775099 
L 302.633757 290.079081 
L 302.962022 290.00738 
L 303.290288 291.069987 
L 303.618553 289.834447 
L 303.946819 290.867044 
L 304.275084 289.422238 
L 304.60335 289.647649 
L 304.931615 290.155207 
L 305.259881 285.584826 
L 305.916411 290.562512 
L 306.244677 290.046025 
L 306.572942 290.730967 
L 306.901208 290.043725 
L 307.229473 288.932321 
L 307.557739 285.073696 
L 307.886004 290.477591 
L 308.21427 283.62572 
L 308.542535 288.477944 
L 308.870801 287.53603 
L 309.199066 288.654269 
L 309.527332 288.140915 
L 309.855597 290.471343 
L 310.183862 290.350423 
L 310.512128 286.842279 
L 311.168659 290.878136 
L 311.496924 290.13107 
L 311.82519 290.952641 
L 312.153455 290.186174 
L 312.481721 285.490671 
L 312.809986 290.389622 
L 313.138252 291.123771 
L 313.466517 290.67579 
L 313.794783 290.995005 
L 314.123048 290.283779 
L 314.451314 286.320084 
L 314.779579 290.409245 
L 315.107844 291.370006 
L 315.43611 290.667485 
L 315.764375 291.125957 
L 316.092641 290.849638 
L 316.420906 286.219679 
L 316.749172 290.42946 
L 317.077437 290.662637 
L 317.405703 290.366906 
L 317.733968 291.157307 
L 318.062234 290.636183 
L 318.390499 283.643524 
L 318.718765 290.338174 
L 319.04703 291.455655 
L 319.375296 290.416936 
L 319.703561 291.571543 
L 320.031826 290.434398 
L 320.360092 283.994226 
L 320.688357 290.882946 
L 321.016623 291.284251 
L 321.344888 290.711459 
L 321.673154 291.854989 
L 322.001419 290.762627 
L 322.329685 286.30305 
L 322.65795 291.243002 
L 322.986216 291.527029 
L 323.314481 290.484234 
L 323.642747 292.038578 
L 323.971012 290.612102 
L 324.299278 292.319848 
L 324.627543 293.36881 
L 324.955808 290.855334 
L 325.284074 291.132327 
L 325.612339 291.670715 
L 325.940605 290.489615 
L 326.26887 291.50011 
L 326.925401 290.6639 
L 327.253667 290.558116 
L 327.581932 291.694926 
L 327.910198 290.810014 
L 328.238463 291.656156 
L 328.566729 290.759038 
L 328.894994 292.004436 
L 329.223259 291.055024 
L 329.551525 291.824967 
L 329.87979 290.068832 
L 330.208056 292.111374 
L 330.536321 291.134915 
L 330.864587 292.096226 
L 331.192852 291.345315 
L 331.521118 291.783047 
L 331.849383 292.744535 
L 332.177649 292.212431 
L 332.505914 290.893536 
L 332.83418 291.767476 
L 333.162445 291.15285 
L 333.490711 292.065876 
L 333.818976 291.20777 
L 334.147241 292.046833 
L 334.475507 290.949908 
L 334.803772 291.949047 
L 335.132038 291.656555 
L 335.460303 292.072733 
L 335.788569 285.409561 
L 336.116834 292.312844 
L 336.4451 291.620862 
L 336.773365 290.367568 
L 337.101631 291.592712 
L 337.429896 292.331481 
L 337.758162 291.24166 
L 338.086427 292.248105 
L 338.414693 291.747104 
L 338.742958 292.289404 
L 339.071223 291.547131 
L 339.399489 292.483534 
L 339.727754 291.578763 
L 340.05602 291.316391 
L 340.384285 288.067296 
L 340.712551 292.303142 
L 341.040816 291.484873 
L 341.369082 292.399454 
L 341.697347 291.644247 
L 342.025613 292.117202 
L 342.353878 291.81343 
L 342.682144 292.30514 
L 343.010409 291.189248 
L 343.338675 292.637614 
L 343.66694 290.646778 
L 343.995205 291.289277 
L 344.323471 292.483842 
L 344.651736 289.197749 
L 345.308267 293.833597 
L 345.636533 291.51054 
L 345.964798 292.659505 
L 346.293064 292.081978 
L 346.621329 292.141073 
L 346.949595 292.039251 
L 347.606126 293.562604 
L 347.934391 292.270372 
L 348.262656 291.780469 
L 348.590922 292.606651 
L 348.919187 291.679574 
L 349.247453 292.790253 
L 349.575718 292.162318 
L 349.903984 292.692374 
L 350.232249 291.807388 
L 350.560515 293.064963 
L 350.88878 291.926326 
L 351.217046 292.512474 
L 351.545311 292.142053 
L 351.873577 292.956664 
L 352.201842 291.872359 
L 352.530108 292.81263 
L 352.858373 292.273242 
L 353.186638 292.739333 
L 353.514904 291.827282 
L 353.843169 292.610147 
L 354.171435 291.711844 
L 354.4997 288.749494 
L 354.827966 291.864719 
L 355.156231 292.828861 
L 355.484497 292.314058 
L 355.812762 292.875086 
L 356.141028 292.132697 
L 356.469293 292.686704 
L 356.797559 292.3358 
L 357.125824 292.941711 
L 357.45409 292.328055 
L 357.782355 292.416026 
L 358.11062 293.213289 
L 358.438886 293.024094 
L 358.767151 292.381714 
L 359.095417 293.043551 
L 359.423682 292.368369 
L 359.751948 290.993528 
L 360.080213 294.120872 
L 360.736744 292.341572 
L 361.06501 292.328807 
L 361.393275 292.454593 
L 361.721541 293.177894 
L 362.049806 291.769178 
L 362.378072 292.704572 
L 362.706337 292.564383 
L 363.034602 293.133031 
L 363.362868 291.52944 
L 363.691133 291.104775 
L 364.019399 292.544994 
L 364.347664 293.302165 
L 364.67593 291.928274 
L 365.004195 292.991258 
L 365.332461 293.077605 
L 365.660726 293.405153 
L 365.988992 292.463816 
L 366.317257 293.071659 
L 366.645523 292.703866 
L 366.973788 293.180879 
L 367.302053 292.123993 
L 367.630319 293.304371 
L 367.958584 292.782319 
L 368.28685 293.560301 
L 368.615115 292.681714 
L 368.943381 293.042851 
L 369.271646 292.398557 
L 369.599912 293.803377 
L 369.928177 291.899655 
L 370.256443 292.49493 
L 370.584708 292.672161 
L 370.912974 293.364904 
L 371.241239 291.466869 
L 371.569505 293.421403 
L 371.89777 292.829932 
L 372.226035 293.517505 
L 372.554301 290.858488 
L 372.882566 293.320467 
L 373.210832 292.071941 
L 373.539097 293.405223 
L 373.867363 292.587476 
L 374.195628 293.533505 
L 374.523894 293.702421 
L 375.180425 292.446065 
L 375.50869 293.35671 
L 376.165221 292.426347 
L 376.821752 293.414411 
L 377.150017 292.922295 
L 377.478283 293.506795 
L 377.806548 292.714787 
L 378.134814 293.697621 
L 378.463079 292.670842 
L 378.791345 293.793518 
L 379.11961 292.933992 
L 379.447876 293.758414 
L 379.776141 291.811822 
L 380.104407 293.724932 
L 380.432672 293.053186 
L 380.760938 293.642703 
L 381.089203 292.799735 
L 381.417469 293.557249 
L 381.745734 295.420466 
L 382.073999 293.63993 
L 382.402265 292.978398 
L 382.73053 293.251824 
L 383.058796 291.452273 
L 383.387061 293.318978 
L 383.715327 292.867355 
L 384.043592 293.496646 
L 384.371858 292.710551 
L 384.700123 293.648187 
L 385.028389 293.080296 
L 385.356654 293.970975 
L 385.68492 293.073657 
L 386.013185 293.90292 
L 386.341451 292.04778 
L 386.669716 292.265944 
L 386.997981 293.213979 
L 387.326247 293.079478 
L 387.654512 293.26577 
L 387.982778 293.948408 
L 388.311043 292.976493 
L 388.639309 293.889805 
L 388.967574 292.255216 
L 389.29584 293.674937 
L 389.624105 293.222713 
L 389.952371 293.938019 
L 390.280636 292.061092 
L 390.608902 293.827511 
L 390.937167 293.299299 
L 391.265432 294.064278 
L 391.593698 293.242104 
L 391.921963 293.271512 
L 392.250229 293.468916 
L 392.578494 294.202414 
L 392.90676 294.595668 
L 393.563291 293.469235 
L 393.891556 294.208427 
L 394.219822 292.279655 
L 394.548087 294.017013 
L 394.876353 293.474371 
L 395.204618 294.148801 
L 395.532884 292.18542 
L 395.861149 295.488 
L 396.189414 293.105203 
L 396.51768 294.210831 
L 396.845945 293.561992 
L 397.174211 293.729861 
L 397.502476 285.886006 
L 397.830742 290.892172 
L 398.159007 293.295856 
L 398.487273 294.02155 
L 398.487273 294.02155 
" style="fill:none;stroke:#ff7f0e;stroke-linecap:square;stroke-width:1.5;"/>
   </g>
   <g id="patch_3">
    <path d="M 57.6 307.584 
L 57.6 41.472 
" style="fill:none;stroke:#000000;stroke-linecap:square;stroke-linejoin:miter;stroke-width:0.8;"/>
   </g>
   <g id="patch_4">
    <path d="M 414.72 307.584 
L 414.72 41.472 
" style="fill:none;stroke:#000000;stroke-linecap:square;stroke-linejoin:miter;stroke-width:0.8;"/>
   </g>
   <g id="patch_5">
    <path d="M 57.6 307.584 
L 414.72 307.584 
" style="fill:none;stroke:#000000;stroke-linecap:square;stroke-linejoin:miter;stroke-width:0.8;"/>
   </g>
   <g id="patch_6">
    <path d="M 57.6 41.472 
L 414.72 41.472 
" style="fill:none;stroke:#000000;stroke-linecap:square;stroke-linejoin:miter;stroke-width:0.8;"/>
   </g>
   <g id="text_22">
    <!-- ROC Speedup -->
    <defs>
     <path d="M 44.390625 34.1875 
Q 47.5625 33.109375 50.5625 29.59375 
Q 53.5625 26.078125 56.59375 19.921875 
L 66.609375 0 
L 56 0 
L 46.6875 18.703125 
Q 43.0625 26.03125 39.671875 28.421875 
Q 36.28125 30.8125 30.421875 30.8125 
L 19.671875 30.8125 
L 19.671875 0 
L 9.8125 0 
L 9.8125 72.90625 
L 32.078125 72.90625 
Q 44.578125 72.90625 50.734375 67.671875 
Q 56.890625 62.453125 56.890625 51.90625 
Q 56.890625 45.015625 53.6875 40.46875 
Q 50.484375 35.9375 44.390625 34.1875 
z
M 19.671875 64.796875 
L 19.671875 38.921875 
L 32.078125 38.921875 
Q 39.203125 38.921875 42.84375 42.21875 
Q 46.484375 45.515625 46.484375 51.90625 
Q 46.484375 58.296875 42.84375 61.546875 
Q 39.203125 64.796875 32.078125 64.796875 
z
" id="DejaVuSans-82"/>
     <path d="M 39.40625 66.21875 
Q 28.65625 66.21875 22.328125 58.203125 
Q 16.015625 50.203125 16.015625 36.375 
Q 16.015625 22.609375 22.328125 14.59375 
Q 28.65625 6.59375 39.40625 6.59375 
Q 50.140625 6.59375 56.421875 14.59375 
Q 62.703125 22.609375 62.703125 36.375 
Q 62.703125 50.203125 56.421875 58.203125 
Q 50.140625 66.21875 39.40625 66.21875 
z
M 39.40625 74.21875 
Q 54.734375 74.21875 63.90625 63.9375 
Q 73.09375 53.65625 73.09375 36.375 
Q 73.09375 19.140625 63.90625 8.859375 
Q 54.734375 -1.421875 39.40625 -1.421875 
Q 24.03125 -1.421875 14.8125 8.828125 
Q 5.609375 19.09375 5.609375 36.375 
Q 5.609375 53.65625 14.8125 63.9375 
Q 24.03125 74.21875 39.40625 74.21875 
z
" id="DejaVuSans-79"/>
     <path d="M 64.40625 67.28125 
L 64.40625 56.890625 
Q 59.421875 61.53125 53.78125 63.8125 
Q 48.140625 66.109375 41.796875 66.109375 
Q 29.296875 66.109375 22.65625 58.46875 
Q 16.015625 50.828125 16.015625 36.375 
Q 16.015625 21.96875 22.65625 14.328125 
Q 29.296875 6.6875 41.796875 6.6875 
Q 48.140625 6.6875 53.78125 8.984375 
Q 59.421875 11.28125 64.40625 15.921875 
L 64.40625 5.609375 
Q 59.234375 2.09375 53.4375 0.328125 
Q 47.65625 -1.421875 41.21875 -1.421875 
Q 24.65625 -1.421875 15.125 8.703125 
Q 5.609375 18.84375 5.609375 36.375 
Q 5.609375 53.953125 15.125 64.078125 
Q 24.65625 74.21875 41.21875 74.21875 
Q 47.75 74.21875 53.53125 72.484375 
Q 59.328125 70.75 64.40625 67.28125 
z
" id="DejaVuSans-67"/>
     <path id="DejaVuSans-32"/>
     <path d="M 53.515625 70.515625 
L 53.515625 60.890625 
Q 47.90625 63.578125 42.921875 64.890625 
Q 37.9375 66.21875 33.296875 66.21875 
Q 25.25 66.21875 20.875 63.09375 
Q 16.5 59.96875 16.5 54.203125 
Q 16.5 49.359375 19.40625 46.890625 
Q 22.3125 44.4375 30.421875 42.921875 
L 36.375 41.703125 
Q 47.40625 39.59375 52.65625 34.296875 
Q 57.90625 29 57.90625 20.125 
Q 57.90625 9.515625 50.796875 4.046875 
Q 43.703125 -1.421875 29.984375 -1.421875 
Q 24.8125 -1.421875 18.96875 -0.25 
Q 13.140625 0.921875 6.890625 3.21875 
L 6.890625 13.375 
Q 12.890625 10.015625 18.65625 8.296875 
Q 24.421875 6.59375 29.984375 6.59375 
Q 38.421875 6.59375 43.015625 9.90625 
Q 47.609375 13.234375 47.609375 19.390625 
Q 47.609375 24.75 44.3125 27.78125 
Q 41.015625 30.8125 33.5 32.328125 
L 27.484375 33.5 
Q 16.453125 35.6875 11.515625 40.375 
Q 6.59375 45.0625 6.59375 53.421875 
Q 6.59375 63.09375 13.40625 68.65625 
Q 20.21875 74.21875 32.171875 74.21875 
Q 37.3125 74.21875 42.625 73.28125 
Q 47.953125 72.359375 53.515625 70.515625 
z
" id="DejaVuSans-83"/>
    </defs>
    <g transform="translate(194.74875 35.472)scale(0.12 -0.12)">
     <use xlink:href="#DejaVuSans-82"/>
     <use x="69.482422" xlink:href="#DejaVuSans-79"/>
     <use x="148.193359" xlink:href="#DejaVuSans-67"/>
     <use x="218.017578" xlink:href="#DejaVuSans-32"/>
     <use x="249.804688" xlink:href="#DejaVuSans-83"/>
     <use x="313.28125" xlink:href="#DejaVuSans-112"/>
     <use x="376.757812" xlink:href="#DejaVuSans-101"/>
     <use x="438.28125" xlink:href="#DejaVuSans-101"/>
     <use x="499.804688" xlink:href="#DejaVuSans-100"/>
     <use x="563.28125" xlink:href="#DejaVuSans-117"/>
     <use x="626.660156" xlink:href="#DejaVuSans-112"/>
    </g>
   </g>
   <g id="legend_1">
    <g id="patch_7">
     <path d="M 304.093437 78.82825 
L 407.72 78.82825 
Q 409.72 78.82825 409.72 76.82825 
L 409.72 48.472 
Q 409.72 46.472 407.72 46.472 
L 304.093437 46.472 
Q 302.093437 46.472 302.093437 48.472 
L 302.093437 76.82825 
Q 302.093437 78.82825 304.093437 78.82825 
z
" style="fill:#ffffff;opacity:0.8;stroke:#cccccc;stroke-linejoin:miter;"/>
    </g>
    <g id="line2d_22">
     <path d="M 306.093437 54.570437 
L 326.093437 54.570437 
" style="fill:none;stroke:#1f77b4;stroke-linecap:square;stroke-width:1.5;"/>
    </g>
    <g id="line2d_23"/>
    <g id="text_23">
     <!-- numpy.float32 -->
     <defs>
      <path d="M 52 44.1875 
Q 55.375 50.25 60.0625 53.125 
Q 64.75 56 71.09375 56 
Q 79.640625 56 84.28125 50.015625 
Q 88.921875 44.046875 88.921875 33.015625 
L 88.921875 0 
L 79.890625 0 
L 79.890625 32.71875 
Q 79.890625 40.578125 77.09375 44.375 
Q 74.3125 48.1875 68.609375 48.1875 
Q 61.625 48.1875 57.5625 43.546875 
Q 53.515625 38.921875 53.515625 30.90625 
L 53.515625 0 
L 44.484375 0 
L 44.484375 32.71875 
Q 44.484375 40.625 41.703125 44.40625 
Q 38.921875 48.1875 33.109375 48.1875 
Q 26.21875 48.1875 22.15625 43.53125 
Q 18.109375 38.875 18.109375 30.90625 
L 18.109375 0 
L 9.078125 0 
L 9.078125 54.6875 
L 18.109375 54.6875 
L 18.109375 46.1875 
Q 21.1875 51.21875 25.484375 53.609375 
Q 29.78125 56 35.6875 56 
Q 41.65625 56 45.828125 52.96875 
Q 50 49.953125 52 44.1875 
z
" id="DejaVuSans-109"/>
      <path d="M 32.171875 -5.078125 
Q 28.375 -14.84375 24.75 -17.8125 
Q 21.140625 -20.796875 15.09375 -20.796875 
L 7.90625 -20.796875 
L 7.90625 -13.28125 
L 13.1875 -13.28125 
Q 16.890625 -13.28125 18.9375 -11.515625 
Q 21 -9.765625 23.484375 -3.21875 
L 25.09375 0.875 
L 2.984375 54.6875 
L 12.5 54.6875 
L 29.59375 11.921875 
L 46.6875 54.6875 
L 56.203125 54.6875 
z
" id="DejaVuSans-121"/>
      <path d="M 37.109375 75.984375 
L 37.109375 68.5 
L 28.515625 68.5 
Q 23.6875 68.5 21.796875 66.546875 
Q 19.921875 64.59375 19.921875 59.515625 
L 19.921875 54.6875 
L 34.71875 54.6875 
L 34.71875 47.703125 
L 19.921875 47.703125 
L 19.921875 0 
L 10.890625 0 
L 10.890625 47.703125 
L 2.296875 47.703125 
L 2.296875 54.6875 
L 10.890625 54.6875 
L 10.890625 58.5 
Q 10.890625 67.625 15.140625 71.796875 
Q 19.390625 75.984375 28.609375 75.984375 
z
" id="DejaVuSans-102"/>
      <path d="M 9.421875 75.984375 
L 18.40625 75.984375 
L 18.40625 0 
L 9.421875 0 
z
" id="DejaVuSans-108"/>
      <path d="M 30.609375 48.390625 
Q 23.390625 48.390625 19.1875 42.75 
Q 14.984375 37.109375 14.984375 27.296875 
Q 14.984375 17.484375 19.15625 11.84375 
Q 23.34375 6.203125 30.609375 6.203125 
Q 37.796875 6.203125 41.984375 11.859375 
Q 46.1875 17.53125 46.1875 27.296875 
Q 46.1875 37.015625 41.984375 42.703125 
Q 37.796875 48.390625 30.609375 48.390625 
z
M 30.609375 56 
Q 42.328125 56 49.015625 48.375 
Q 55.71875 40.765625 55.71875 27.296875 
Q 55.71875 13.875 49.015625 6.21875 
Q 42.328125 -1.421875 30.609375 -1.421875 
Q 18.84375 -1.421875 12.171875 6.21875 
Q 5.515625 13.875 5.515625 27.296875 
Q 5.515625 40.765625 12.171875 48.375 
Q 18.84375 56 30.609375 56 
z
" id="DejaVuSans-111"/>
      <path d="M 34.28125 27.484375 
Q 23.390625 27.484375 19.1875 25 
Q 14.984375 22.515625 14.984375 16.5 
Q 14.984375 11.71875 18.140625 8.90625 
Q 21.296875 6.109375 26.703125 6.109375 
Q 34.1875 6.109375 38.703125 11.40625 
Q 43.21875 16.703125 43.21875 25.484375 
L 43.21875 27.484375 
z
M 52.203125 31.203125 
L 52.203125 0 
L 43.21875 0 
L 43.21875 8.296875 
Q 40.140625 3.328125 35.546875 0.953125 
Q 30.953125 -1.421875 24.3125 -1.421875 
Q 15.921875 -1.421875 10.953125 3.296875 
Q 6 8.015625 6 15.921875 
Q 6 25.140625 12.171875 29.828125 
Q 18.359375 34.515625 30.609375 34.515625 
L 43.21875 34.515625 
L 43.21875 35.40625 
Q 43.21875 41.609375 39.140625 45 
Q 35.0625 48.390625 27.6875 48.390625 
Q 23 48.390625 18.546875 47.265625 
Q 14.109375 46.140625 10.015625 43.890625 
L 10.015625 52.203125 
Q 14.9375 54.109375 19.578125 55.046875 
Q 24.21875 56 28.609375 56 
Q 40.484375 56 46.34375 49.84375 
Q 52.203125 43.703125 52.203125 31.203125 
z
" id="DejaVuSans-97"/>
      <path d="M 18.3125 70.21875 
L 18.3125 54.6875 
L 36.8125 54.6875 
L 36.8125 47.703125 
L 18.3125 47.703125 
L 18.3125 18.015625 
Q 18.3125 11.328125 20.140625 9.421875 
Q 21.96875 7.515625 27.59375 7.515625 
L 36.8125 7.515625 
L 36.8125 0 
L 27.59375 0 
Q 17.1875 0 13.234375 3.875 
Q 9.28125 7.765625 9.28125 18.015625 
L 9.28125 47.703125 
L 2.6875 47.703125 
L 2.6875 54.6875 
L 9.28125 54.6875 
L 9.28125 70.21875 
z
" id="DejaVuSans-116"/>
     </defs>
     <g transform="translate(334.093437 58.070437)scale(0.1 -0.1)">
      <use xlink:href="#DejaVuSans-110"/>
      <use x="63.378906" xlink:href="#DejaVuSans-117"/>
      <use x="126.757812" xlink:href="#DejaVuSans-109"/>
      <use x="224.169922" xlink:href="#DejaVuSans-112"/>
      <use x="287.646484" xlink:href="#DejaVuSans-121"/>
      <use x="332.576172" xlink:href="#DejaVuSans-46"/>
      <use x="364.363281" xlink:href="#DejaVuSans-102"/>
      <use x="399.568359" xlink:href="#DejaVuSans-108"/>
      <use x="427.351562" xlink:href="#DejaVuSans-111"/>
      <use x="488.533203" xlink:href="#DejaVuSans-97"/>
      <use x="549.8125" xlink:href="#DejaVuSans-116"/>
      <use x="589.021484" xlink:href="#DejaVuSans-51"/>
      <use x="652.644531" xlink:href="#DejaVuSans-50"/>
     </g>
    </g>
    <g id="line2d_24">
     <path d="M 306.093437 69.248562 
L 326.093437 69.248562 
" style="fill:none;stroke:#ff7f0e;stroke-linecap:square;stroke-width:1.5;"/>
    </g>
    <g id="line2d_25"/>
    <g id="text_24">
     <!-- numpy.float64 -->
     <g transform="translate(334.093437 72.748562)scale(0.1 -0.1)">
      <use xlink:href="#DejaVuSans-110"/>
      <use x="63.378906" xlink:href="#DejaVuSans-117"/>
      <use x="126.757812" xlink:href="#DejaVuSans-109"/>
      <use x="224.169922" xlink:href="#DejaVuSans-112"/>
      <use x="287.646484" xlink:href="#DejaVuSans-121"/>
      <use x="332.576172" xlink:href="#DejaVuSans-46"/>
      <use x="364.363281" xlink:href="#DejaVuSans-102"/>
      <use x="399.568359" xlink:href="#DejaVuSans-108"/>
      <use x="427.351562" xlink:href="#DejaVuSans-111"/>
      <use x="488.533203" xlink:href="#DejaVuSans-97"/>
      <use x="549.8125" xlink:href="#DejaVuSans-116"/>
      <use x="589.021484" xlink:href="#DejaVuSans-54"/>
      <use x="652.644531" xlink:href="#DejaVuSans-52"/>
     </g>
    </g>
   </g>
  </g>
 </g>
 <defs>
  <clipPath id="p29342f181a">
   <rect height="266.112" width="357.12" x="57.6" y="41.472"/>
  </clipPath>
 </defs>
</svg>
