<?xml version="1.0" encoding="utf-8" standalone="no"?>
<!DOCTYPE svg PUBLIC "-//W3C//DTD SVG 1.1//EN"
  "http://www.w3.org/Graphics/SVG/1.1/DTD/svg11.dtd">
<!-- Created with matplotlib (https://matplotlib.org/) -->
<svg height="720pt" version="1.1" viewBox="0 0 1440 720" width="1440pt" xmlns="http://www.w3.org/2000/svg" xmlns:xlink="http://www.w3.org/1999/xlink">
 <defs>
  <style type="text/css">
*{stroke-linecap:butt;stroke-linejoin:round;}
  </style>
 </defs>
 <g id="figure_1">
  <g id="patch_1">
   <path d="M 0 720 
L 1440 720 
L 1440 0 
L 0 0 
z
" style="fill:#ffffff;"/>
  </g>
  <g id="axes_1">
   <g id="patch_2">
    <path d="M 180 640.8 
L 1296 640.8 
L 1296 86.4 
L 180 86.4 
z
" style="fill:#ffffff;"/>
   </g>
   <g id="matplotlib.axis_1">
    <g id="xtick_1">
     <g id="line2d_1">
      <defs>
       <path d="M 0 0 
L 0 3.5 
" id="maf59e84c37" style="stroke:#000000;stroke-width:0.8;"/>
      </defs>
      <g>
       <use style="stroke:#000000;stroke-width:0.8;" x="333.310231" xlink:href="#maf59e84c37" y="640.8"/>
      </g>
     </g>
     <g id="text_1">
      <!-- 100.0 -->
      <defs>
       <path d="M 12.40625 8.296875 
L 28.515625 8.296875 
L 28.515625 63.921875 
L 10.984375 60.40625 
L 10.984375 69.390625 
L 28.421875 72.90625 
L 38.28125 72.90625 
L 38.28125 8.296875 
L 54.390625 8.296875 
L 54.390625 0 
L 12.40625 0 
z
" id="DejaVuSans-49"/>
       <path d="M 31.78125 66.40625 
Q 24.171875 66.40625 20.328125 58.90625 
Q 16.5 51.421875 16.5 36.375 
Q 16.5 21.390625 20.328125 13.890625 
Q 24.171875 6.390625 31.78125 6.390625 
Q 39.453125 6.390625 43.28125 13.890625 
Q 47.125 21.390625 47.125 36.375 
Q 47.125 51.421875 43.28125 58.90625 
Q 39.453125 66.40625 31.78125 66.40625 
z
M 31.78125 74.21875 
Q 44.046875 74.21875 50.515625 64.515625 
Q 56.984375 54.828125 56.984375 36.375 
Q 56.984375 17.96875 50.515625 8.265625 
Q 44.046875 -1.421875 31.78125 -1.421875 
Q 19.53125 -1.421875 13.0625 8.265625 
Q 6.59375 17.96875 6.59375 36.375 
Q 6.59375 54.828125 13.0625 64.515625 
Q 19.53125 74.21875 31.78125 74.21875 
z
" id="DejaVuSans-48"/>
       <path d="M 10.6875 12.40625 
L 21 12.40625 
L 21 0 
L 10.6875 0 
z
" id="DejaVuSans-46"/>
      </defs>
      <g transform="translate(318.996168 655.398438)scale(0.1 -0.1)">
       <use xlink:href="#DejaVuSans-49"/>
       <use x="63.623047" xlink:href="#DejaVuSans-48"/>
       <use x="127.246094" xlink:href="#DejaVuSans-48"/>
       <use x="190.869141" xlink:href="#DejaVuSans-46"/>
       <use x="222.65625" xlink:href="#DejaVuSans-48"/>
      </g>
     </g>
    </g>
    <g id="xtick_2">
     <g id="line2d_2">
      <g>
       <use style="stroke:#000000;stroke-width:0.8;" x="435.893189" xlink:href="#maf59e84c37" y="640.8"/>
      </g>
     </g>
     <g id="text_2">
      <!-- 200.0 -->
      <defs>
       <path d="M 19.1875 8.296875 
L 53.609375 8.296875 
L 53.609375 0 
L 7.328125 0 
L 7.328125 8.296875 
Q 12.9375 14.109375 22.625 23.890625 
Q 32.328125 33.6875 34.8125 36.53125 
Q 39.546875 41.84375 41.421875 45.53125 
Q 43.3125 49.21875 43.3125 52.78125 
Q 43.3125 58.59375 39.234375 62.25 
Q 35.15625 65.921875 28.609375 65.921875 
Q 23.96875 65.921875 18.8125 64.3125 
Q 13.671875 62.703125 7.8125 59.421875 
L 7.8125 69.390625 
Q 13.765625 71.78125 18.9375 73 
Q 24.125 74.21875 28.421875 74.21875 
Q 39.75 74.21875 46.484375 68.546875 
Q 53.21875 62.890625 53.21875 53.421875 
Q 53.21875 48.921875 51.53125 44.890625 
Q 49.859375 40.875 45.40625 35.40625 
Q 44.1875 33.984375 37.640625 27.21875 
Q 31.109375 20.453125 19.1875 8.296875 
z
" id="DejaVuSans-50"/>
      </defs>
      <g transform="translate(421.579126 655.398438)scale(0.1 -0.1)">
       <use xlink:href="#DejaVuSans-50"/>
       <use x="63.623047" xlink:href="#DejaVuSans-48"/>
       <use x="127.246094" xlink:href="#DejaVuSans-48"/>
       <use x="190.869141" xlink:href="#DejaVuSans-46"/>
       <use x="222.65625" xlink:href="#DejaVuSans-48"/>
      </g>
     </g>
    </g>
    <g id="xtick_3">
     <g id="line2d_3">
      <g>
       <use style="stroke:#000000;stroke-width:0.8;" x="538.476147" xlink:href="#maf59e84c37" y="640.8"/>
      </g>
     </g>
     <g id="text_3">
      <!-- 300.0 -->
      <defs>
       <path d="M 40.578125 39.3125 
Q 47.65625 37.796875 51.625 33 
Q 55.609375 28.21875 55.609375 21.1875 
Q 55.609375 10.40625 48.1875 4.484375 
Q 40.765625 -1.421875 27.09375 -1.421875 
Q 22.515625 -1.421875 17.65625 -0.515625 
Q 12.796875 0.390625 7.625 2.203125 
L 7.625 11.71875 
Q 11.71875 9.328125 16.59375 8.109375 
Q 21.484375 6.890625 26.8125 6.890625 
Q 36.078125 6.890625 40.9375 10.546875 
Q 45.796875 14.203125 45.796875 21.1875 
Q 45.796875 27.640625 41.28125 31.265625 
Q 36.765625 34.90625 28.71875 34.90625 
L 20.21875 34.90625 
L 20.21875 43.015625 
L 29.109375 43.015625 
Q 36.375 43.015625 40.234375 45.921875 
Q 44.09375 48.828125 44.09375 54.296875 
Q 44.09375 59.90625 40.109375 62.90625 
Q 36.140625 65.921875 28.71875 65.921875 
Q 24.65625 65.921875 20.015625 65.03125 
Q 15.375 64.15625 9.8125 62.3125 
L 9.8125 71.09375 
Q 15.4375 72.65625 20.34375 73.4375 
Q 25.25 74.21875 29.59375 74.21875 
Q 40.828125 74.21875 47.359375 69.109375 
Q 53.90625 64.015625 53.90625 55.328125 
Q 53.90625 49.265625 50.4375 45.09375 
Q 46.96875 40.921875 40.578125 39.3125 
z
" id="DejaVuSans-51"/>
      </defs>
      <g transform="translate(524.162084 655.398438)scale(0.1 -0.1)">
       <use xlink:href="#DejaVuSans-51"/>
       <use x="63.623047" xlink:href="#DejaVuSans-48"/>
       <use x="127.246094" xlink:href="#DejaVuSans-48"/>
       <use x="190.869141" xlink:href="#DejaVuSans-46"/>
       <use x="222.65625" xlink:href="#DejaVuSans-48"/>
      </g>
     </g>
    </g>
    <g id="xtick_4">
     <g id="line2d_4">
      <g>
       <use style="stroke:#000000;stroke-width:0.8;" x="641.059105" xlink:href="#maf59e84c37" y="640.8"/>
      </g>
     </g>
     <g id="text_4">
      <!-- 400.0 -->
      <defs>
       <path d="M 37.796875 64.3125 
L 12.890625 25.390625 
L 37.796875 25.390625 
z
M 35.203125 72.90625 
L 47.609375 72.90625 
L 47.609375 25.390625 
L 58.015625 25.390625 
L 58.015625 17.1875 
L 47.609375 17.1875 
L 47.609375 0 
L 37.796875 0 
L 37.796875 17.1875 
L 4.890625 17.1875 
L 4.890625 26.703125 
z
" id="DejaVuSans-52"/>
      </defs>
      <g transform="translate(626.745042 655.398438)scale(0.1 -0.1)">
       <use xlink:href="#DejaVuSans-52"/>
       <use x="63.623047" xlink:href="#DejaVuSans-48"/>
       <use x="127.246094" xlink:href="#DejaVuSans-48"/>
       <use x="190.869141" xlink:href="#DejaVuSans-46"/>
       <use x="222.65625" xlink:href="#DejaVuSans-48"/>
      </g>
     </g>
    </g>
    <g id="xtick_5">
     <g id="line2d_5">
      <g>
       <use style="stroke:#000000;stroke-width:0.8;" x="743.642063" xlink:href="#maf59e84c37" y="640.8"/>
      </g>
     </g>
     <g id="text_5">
      <!-- 500.0 -->
      <defs>
       <path d="M 10.796875 72.90625 
L 49.515625 72.90625 
L 49.515625 64.59375 
L 19.828125 64.59375 
L 19.828125 46.734375 
Q 21.96875 47.46875 24.109375 47.828125 
Q 26.265625 48.1875 28.421875 48.1875 
Q 40.625 48.1875 47.75 41.5 
Q 54.890625 34.8125 54.890625 23.390625 
Q 54.890625 11.625 47.5625 5.09375 
Q 40.234375 -1.421875 26.90625 -1.421875 
Q 22.3125 -1.421875 17.546875 -0.640625 
Q 12.796875 0.140625 7.71875 1.703125 
L 7.71875 11.625 
Q 12.109375 9.234375 16.796875 8.0625 
Q 21.484375 6.890625 26.703125 6.890625 
Q 35.15625 6.890625 40.078125 11.328125 
Q 45.015625 15.765625 45.015625 23.390625 
Q 45.015625 31 40.078125 35.4375 
Q 35.15625 39.890625 26.703125 39.890625 
Q 22.75 39.890625 18.8125 39.015625 
Q 14.890625 38.140625 10.796875 36.28125 
z
" id="DejaVuSans-53"/>
      </defs>
      <g transform="translate(729.328 655.398438)scale(0.1 -0.1)">
       <use xlink:href="#DejaVuSans-53"/>
       <use x="63.623047" xlink:href="#DejaVuSans-48"/>
       <use x="127.246094" xlink:href="#DejaVuSans-48"/>
       <use x="190.869141" xlink:href="#DejaVuSans-46"/>
       <use x="222.65625" xlink:href="#DejaVuSans-48"/>
      </g>
     </g>
    </g>
    <g id="xtick_6">
     <g id="line2d_6">
      <g>
       <use style="stroke:#000000;stroke-width:0.8;" x="846.225021" xlink:href="#maf59e84c37" y="640.8"/>
      </g>
     </g>
     <g id="text_6">
      <!-- 600.0 -->
      <defs>
       <path d="M 33.015625 40.375 
Q 26.375 40.375 22.484375 35.828125 
Q 18.609375 31.296875 18.609375 23.390625 
Q 18.609375 15.53125 22.484375 10.953125 
Q 26.375 6.390625 33.015625 6.390625 
Q 39.65625 6.390625 43.53125 10.953125 
Q 47.40625 15.53125 47.40625 23.390625 
Q 47.40625 31.296875 43.53125 35.828125 
Q 39.65625 40.375 33.015625 40.375 
z
M 52.59375 71.296875 
L 52.59375 62.3125 
Q 48.875 64.0625 45.09375 64.984375 
Q 41.3125 65.921875 37.59375 65.921875 
Q 27.828125 65.921875 22.671875 59.328125 
Q 17.53125 52.734375 16.796875 39.40625 
Q 19.671875 43.65625 24.015625 45.921875 
Q 28.375 48.1875 33.59375 48.1875 
Q 44.578125 48.1875 50.953125 41.515625 
Q 57.328125 34.859375 57.328125 23.390625 
Q 57.328125 12.15625 50.6875 5.359375 
Q 44.046875 -1.421875 33.015625 -1.421875 
Q 20.359375 -1.421875 13.671875 8.265625 
Q 6.984375 17.96875 6.984375 36.375 
Q 6.984375 53.65625 15.1875 63.9375 
Q 23.390625 74.21875 37.203125 74.21875 
Q 40.921875 74.21875 44.703125 73.484375 
Q 48.484375 72.75 52.59375 71.296875 
z
" id="DejaVuSans-54"/>
      </defs>
      <g transform="translate(831.910958 655.398438)scale(0.1 -0.1)">
       <use xlink:href="#DejaVuSans-54"/>
       <use x="63.623047" xlink:href="#DejaVuSans-48"/>
       <use x="127.246094" xlink:href="#DejaVuSans-48"/>
       <use x="190.869141" xlink:href="#DejaVuSans-46"/>
       <use x="222.65625" xlink:href="#DejaVuSans-48"/>
      </g>
     </g>
    </g>
    <g id="xtick_7">
     <g id="line2d_7">
      <g>
       <use style="stroke:#000000;stroke-width:0.8;" x="948.807979" xlink:href="#maf59e84c37" y="640.8"/>
      </g>
     </g>
     <g id="text_7">
      <!-- 700.0 -->
      <defs>
       <path d="M 8.203125 72.90625 
L 55.078125 72.90625 
L 55.078125 68.703125 
L 28.609375 0 
L 18.3125 0 
L 43.21875 64.59375 
L 8.203125 64.59375 
z
" id="DejaVuSans-55"/>
      </defs>
      <g transform="translate(934.493916 655.398438)scale(0.1 -0.1)">
       <use xlink:href="#DejaVuSans-55"/>
       <use x="63.623047" xlink:href="#DejaVuSans-48"/>
       <use x="127.246094" xlink:href="#DejaVuSans-48"/>
       <use x="190.869141" xlink:href="#DejaVuSans-46"/>
       <use x="222.65625" xlink:href="#DejaVuSans-48"/>
      </g>
     </g>
    </g>
    <g id="xtick_8">
     <g id="line2d_8">
      <g>
       <use style="stroke:#000000;stroke-width:0.8;" x="1051.390937" xlink:href="#maf59e84c37" y="640.8"/>
      </g>
     </g>
     <g id="text_8">
      <!-- 800.0 -->
      <defs>
       <path d="M 31.78125 34.625 
Q 24.75 34.625 20.71875 30.859375 
Q 16.703125 27.09375 16.703125 20.515625 
Q 16.703125 13.921875 20.71875 10.15625 
Q 24.75 6.390625 31.78125 6.390625 
Q 38.8125 6.390625 42.859375 10.171875 
Q 46.921875 13.96875 46.921875 20.515625 
Q 46.921875 27.09375 42.890625 30.859375 
Q 38.875 34.625 31.78125 34.625 
z
M 21.921875 38.8125 
Q 15.578125 40.375 12.03125 44.71875 
Q 8.5 49.078125 8.5 55.328125 
Q 8.5 64.0625 14.71875 69.140625 
Q 20.953125 74.21875 31.78125 74.21875 
Q 42.671875 74.21875 48.875 69.140625 
Q 55.078125 64.0625 55.078125 55.328125 
Q 55.078125 49.078125 51.53125 44.71875 
Q 48 40.375 41.703125 38.8125 
Q 48.828125 37.15625 52.796875 32.3125 
Q 56.78125 27.484375 56.78125 20.515625 
Q 56.78125 9.90625 50.3125 4.234375 
Q 43.84375 -1.421875 31.78125 -1.421875 
Q 19.734375 -1.421875 13.25 4.234375 
Q 6.78125 9.90625 6.78125 20.515625 
Q 6.78125 27.484375 10.78125 32.3125 
Q 14.796875 37.15625 21.921875 38.8125 
z
M 18.3125 54.390625 
Q 18.3125 48.734375 21.84375 45.5625 
Q 25.390625 42.390625 31.78125 42.390625 
Q 38.140625 42.390625 41.71875 45.5625 
Q 45.3125 48.734375 45.3125 54.390625 
Q 45.3125 60.0625 41.71875 63.234375 
Q 38.140625 66.40625 31.78125 66.40625 
Q 25.390625 66.40625 21.84375 63.234375 
Q 18.3125 60.0625 18.3125 54.390625 
z
" id="DejaVuSans-56"/>
      </defs>
      <g transform="translate(1037.076874 655.398438)scale(0.1 -0.1)">
       <use xlink:href="#DejaVuSans-56"/>
       <use x="63.623047" xlink:href="#DejaVuSans-48"/>
       <use x="127.246094" xlink:href="#DejaVuSans-48"/>
       <use x="190.869141" xlink:href="#DejaVuSans-46"/>
       <use x="222.65625" xlink:href="#DejaVuSans-48"/>
      </g>
     </g>
    </g>
    <g id="xtick_9">
     <g id="line2d_9">
      <g>
       <use style="stroke:#000000;stroke-width:0.8;" x="1153.973895" xlink:href="#maf59e84c37" y="640.8"/>
      </g>
     </g>
     <g id="text_9">
      <!-- 900.0 -->
      <defs>
       <path d="M 10.984375 1.515625 
L 10.984375 10.5 
Q 14.703125 8.734375 18.5 7.8125 
Q 22.3125 6.890625 25.984375 6.890625 
Q 35.75 6.890625 40.890625 13.453125 
Q 46.046875 20.015625 46.78125 33.40625 
Q 43.953125 29.203125 39.59375 26.953125 
Q 35.25 24.703125 29.984375 24.703125 
Q 19.046875 24.703125 12.671875 31.3125 
Q 6.296875 37.9375 6.296875 49.421875 
Q 6.296875 60.640625 12.9375 67.421875 
Q 19.578125 74.21875 30.609375 74.21875 
Q 43.265625 74.21875 49.921875 64.515625 
Q 56.59375 54.828125 56.59375 36.375 
Q 56.59375 19.140625 48.40625 8.859375 
Q 40.234375 -1.421875 26.421875 -1.421875 
Q 22.703125 -1.421875 18.890625 -0.6875 
Q 15.09375 0.046875 10.984375 1.515625 
z
M 30.609375 32.421875 
Q 37.25 32.421875 41.125 36.953125 
Q 45.015625 41.5 45.015625 49.421875 
Q 45.015625 57.28125 41.125 61.84375 
Q 37.25 66.40625 30.609375 66.40625 
Q 23.96875 66.40625 20.09375 61.84375 
Q 16.21875 57.28125 16.21875 49.421875 
Q 16.21875 41.5 20.09375 36.953125 
Q 23.96875 32.421875 30.609375 32.421875 
z
" id="DejaVuSans-57"/>
      </defs>
      <g transform="translate(1139.659832 655.398438)scale(0.1 -0.1)">
       <use xlink:href="#DejaVuSans-57"/>
       <use x="63.623047" xlink:href="#DejaVuSans-48"/>
       <use x="127.246094" xlink:href="#DejaVuSans-48"/>
       <use x="190.869141" xlink:href="#DejaVuSans-46"/>
       <use x="222.65625" xlink:href="#DejaVuSans-48"/>
      </g>
     </g>
    </g>
    <g id="xtick_10">
     <g id="line2d_10">
      <g>
       <use style="stroke:#000000;stroke-width:0.8;" x="1256.556853" xlink:href="#maf59e84c37" y="640.8"/>
      </g>
     </g>
     <g id="text_10">
      <!-- 1000.0 -->
      <g transform="translate(1239.06154 655.398438)scale(0.1 -0.1)">
       <use xlink:href="#DejaVuSans-49"/>
       <use x="63.623047" xlink:href="#DejaVuSans-48"/>
       <use x="127.246094" xlink:href="#DejaVuSans-48"/>
       <use x="190.869141" xlink:href="#DejaVuSans-48"/>
       <use x="254.492188" xlink:href="#DejaVuSans-46"/>
       <use x="286.279297" xlink:href="#DejaVuSans-48"/>
      </g>
     </g>
    </g>
    <g id="text_11">
     <!-- n -->
     <defs>
      <path d="M 54.890625 33.015625 
L 54.890625 0 
L 45.90625 0 
L 45.90625 32.71875 
Q 45.90625 40.484375 42.875 44.328125 
Q 39.84375 48.1875 33.796875 48.1875 
Q 26.515625 48.1875 22.3125 43.546875 
Q 18.109375 38.921875 18.109375 30.90625 
L 18.109375 0 
L 9.078125 0 
L 9.078125 54.6875 
L 18.109375 54.6875 
L 18.109375 46.1875 
Q 21.34375 51.125 25.703125 53.5625 
Q 30.078125 56 35.796875 56 
Q 45.21875 56 50.046875 50.171875 
Q 54.890625 44.34375 54.890625 33.015625 
z
" id="DejaVuSans-110"/>
     </defs>
     <g transform="translate(734.83125 669.076563)scale(0.1 -0.1)">
      <use xlink:href="#DejaVuSans-110"/>
     </g>
    </g>
   </g>
   <g id="matplotlib.axis_2">
    <g id="ytick_1">
     <g id="line2d_11">
      <defs>
       <path d="M 0 0 
L -3.5 0 
" id="m6af89549a3" style="stroke:#000000;stroke-width:0.8;"/>
      </defs>
      <g>
       <use style="stroke:#000000;stroke-width:0.8;" x="180" xlink:href="#m6af89549a3" y="592.943467"/>
      </g>
     </g>
     <g id="text_12">
      <!-- 20 -->
      <g transform="translate(160.275 596.742686)scale(0.1 -0.1)">
       <use xlink:href="#DejaVuSans-50"/>
       <use x="63.623047" xlink:href="#DejaVuSans-48"/>
      </g>
     </g>
    </g>
    <g id="ytick_2">
     <g id="line2d_12">
      <g>
       <use style="stroke:#000000;stroke-width:0.8;" x="180" xlink:href="#m6af89549a3" y="503.990553"/>
      </g>
     </g>
     <g id="text_13">
      <!-- 30 -->
      <g transform="translate(160.275 507.789772)scale(0.1 -0.1)">
       <use xlink:href="#DejaVuSans-51"/>
       <use x="63.623047" xlink:href="#DejaVuSans-48"/>
      </g>
     </g>
    </g>
    <g id="ytick_3">
     <g id="line2d_13">
      <g>
       <use style="stroke:#000000;stroke-width:0.8;" x="180" xlink:href="#m6af89549a3" y="415.03764"/>
      </g>
     </g>
     <g id="text_14">
      <!-- 40 -->
      <g transform="translate(160.275 418.836859)scale(0.1 -0.1)">
       <use xlink:href="#DejaVuSans-52"/>
       <use x="63.623047" xlink:href="#DejaVuSans-48"/>
      </g>
     </g>
    </g>
    <g id="ytick_4">
     <g id="line2d_14">
      <g>
       <use style="stroke:#000000;stroke-width:0.8;" x="180" xlink:href="#m6af89549a3" y="326.084726"/>
      </g>
     </g>
     <g id="text_15">
      <!-- 50 -->
      <g transform="translate(160.275 329.883945)scale(0.1 -0.1)">
       <use xlink:href="#DejaVuSans-53"/>
       <use x="63.623047" xlink:href="#DejaVuSans-48"/>
      </g>
     </g>
    </g>
    <g id="ytick_5">
     <g id="line2d_15">
      <g>
       <use style="stroke:#000000;stroke-width:0.8;" x="180" xlink:href="#m6af89549a3" y="237.131813"/>
      </g>
     </g>
     <g id="text_16">
      <!-- 60 -->
      <g transform="translate(160.275 240.931031)scale(0.1 -0.1)">
       <use xlink:href="#DejaVuSans-54"/>
       <use x="63.623047" xlink:href="#DejaVuSans-48"/>
      </g>
     </g>
    </g>
    <g id="ytick_6">
     <g id="line2d_16">
      <g>
       <use style="stroke:#000000;stroke-width:0.8;" x="180" xlink:href="#m6af89549a3" y="148.178899"/>
      </g>
     </g>
     <g id="text_17">
      <!-- 70 -->
      <g transform="translate(160.275 151.978118)scale(0.1 -0.1)">
       <use xlink:href="#DejaVuSans-55"/>
       <use x="63.623047" xlink:href="#DejaVuSans-48"/>
      </g>
     </g>
    </g>
    <g id="text_18">
     <!-- speedup -->
     <defs>
      <path d="M 44.28125 53.078125 
L 44.28125 44.578125 
Q 40.484375 46.53125 36.375 47.5 
Q 32.28125 48.484375 27.875 48.484375 
Q 21.1875 48.484375 17.84375 46.4375 
Q 14.5 44.390625 14.5 40.28125 
Q 14.5 37.15625 16.890625 35.375 
Q 19.28125 33.59375 26.515625 31.984375 
L 29.59375 31.296875 
Q 39.15625 29.25 43.1875 25.515625 
Q 47.21875 21.78125 47.21875 15.09375 
Q 47.21875 7.46875 41.1875 3.015625 
Q 35.15625 -1.421875 24.609375 -1.421875 
Q 20.21875 -1.421875 15.453125 -0.5625 
Q 10.6875 0.296875 5.421875 2 
L 5.421875 11.28125 
Q 10.40625 8.6875 15.234375 7.390625 
Q 20.0625 6.109375 24.8125 6.109375 
Q 31.15625 6.109375 34.5625 8.28125 
Q 37.984375 10.453125 37.984375 14.40625 
Q 37.984375 18.0625 35.515625 20.015625 
Q 33.0625 21.96875 24.703125 23.78125 
L 21.578125 24.515625 
Q 13.234375 26.265625 9.515625 29.90625 
Q 5.8125 33.546875 5.8125 39.890625 
Q 5.8125 47.609375 11.28125 51.796875 
Q 16.75 56 26.8125 56 
Q 31.78125 56 36.171875 55.265625 
Q 40.578125 54.546875 44.28125 53.078125 
z
" id="DejaVuSans-115"/>
      <path d="M 18.109375 8.203125 
L 18.109375 -20.796875 
L 9.078125 -20.796875 
L 9.078125 54.6875 
L 18.109375 54.6875 
L 18.109375 46.390625 
Q 20.953125 51.265625 25.265625 53.625 
Q 29.59375 56 35.59375 56 
Q 45.5625 56 51.78125 48.09375 
Q 58.015625 40.1875 58.015625 27.296875 
Q 58.015625 14.40625 51.78125 6.484375 
Q 45.5625 -1.421875 35.59375 -1.421875 
Q 29.59375 -1.421875 25.265625 0.953125 
Q 20.953125 3.328125 18.109375 8.203125 
z
M 48.6875 27.296875 
Q 48.6875 37.203125 44.609375 42.84375 
Q 40.53125 48.484375 33.40625 48.484375 
Q 26.265625 48.484375 22.1875 42.84375 
Q 18.109375 37.203125 18.109375 27.296875 
Q 18.109375 17.390625 22.1875 11.75 
Q 26.265625 6.109375 33.40625 6.109375 
Q 40.53125 6.109375 44.609375 11.75 
Q 48.6875 17.390625 48.6875 27.296875 
z
" id="DejaVuSans-112"/>
      <path d="M 56.203125 29.59375 
L 56.203125 25.203125 
L 14.890625 25.203125 
Q 15.484375 15.921875 20.484375 11.0625 
Q 25.484375 6.203125 34.421875 6.203125 
Q 39.59375 6.203125 44.453125 7.46875 
Q 49.3125 8.734375 54.109375 11.28125 
L 54.109375 2.78125 
Q 49.265625 0.734375 44.1875 -0.34375 
Q 39.109375 -1.421875 33.890625 -1.421875 
Q 20.796875 -1.421875 13.15625 6.1875 
Q 5.515625 13.8125 5.515625 26.8125 
Q 5.515625 40.234375 12.765625 48.109375 
Q 20.015625 56 32.328125 56 
Q 43.359375 56 49.78125 48.890625 
Q 56.203125 41.796875 56.203125 29.59375 
z
M 47.21875 32.234375 
Q 47.125 39.59375 43.09375 43.984375 
Q 39.0625 48.390625 32.421875 48.390625 
Q 24.90625 48.390625 20.390625 44.140625 
Q 15.875 39.890625 15.1875 32.171875 
z
" id="DejaVuSans-101"/>
      <path d="M 45.40625 46.390625 
L 45.40625 75.984375 
L 54.390625 75.984375 
L 54.390625 0 
L 45.40625 0 
L 45.40625 8.203125 
Q 42.578125 3.328125 38.25 0.953125 
Q 33.9375 -1.421875 27.875 -1.421875 
Q 17.96875 -1.421875 11.734375 6.484375 
Q 5.515625 14.40625 5.515625 27.296875 
Q 5.515625 40.1875 11.734375 48.09375 
Q 17.96875 56 27.875 56 
Q 33.9375 56 38.25 53.625 
Q 42.578125 51.265625 45.40625 46.390625 
z
M 14.796875 27.296875 
Q 14.796875 17.390625 18.875 11.75 
Q 22.953125 6.109375 30.078125 6.109375 
Q 37.203125 6.109375 41.296875 11.75 
Q 45.40625 17.390625 45.40625 27.296875 
Q 45.40625 37.203125 41.296875 42.84375 
Q 37.203125 48.484375 30.078125 48.484375 
Q 22.953125 48.484375 18.875 42.84375 
Q 14.796875 37.203125 14.796875 27.296875 
z
" id="DejaVuSans-100"/>
      <path d="M 8.5 21.578125 
L 8.5 54.6875 
L 17.484375 54.6875 
L 17.484375 21.921875 
Q 17.484375 14.15625 20.5 10.265625 
Q 23.53125 6.390625 29.59375 6.390625 
Q 36.859375 6.390625 41.078125 11.03125 
Q 45.3125 15.671875 45.3125 23.6875 
L 45.3125 54.6875 
L 54.296875 54.6875 
L 54.296875 0 
L 45.3125 0 
L 45.3125 8.40625 
Q 42.046875 3.421875 37.71875 1 
Q 33.40625 -1.421875 27.6875 -1.421875 
Q 18.265625 -1.421875 13.375 4.4375 
Q 8.5 10.296875 8.5 21.578125 
z
M 31.109375 56 
z
" id="DejaVuSans-117"/>
     </defs>
     <g transform="translate(154.195312 385.049219)rotate(-90)scale(0.1 -0.1)">
      <use xlink:href="#DejaVuSans-115"/>
      <use x="52.099609" xlink:href="#DejaVuSans-112"/>
      <use x="115.576172" xlink:href="#DejaVuSans-101"/>
      <use x="177.099609" xlink:href="#DejaVuSans-101"/>
      <use x="238.623047" xlink:href="#DejaVuSans-100"/>
      <use x="302.099609" xlink:href="#DejaVuSans-117"/>
      <use x="365.478516" xlink:href="#DejaVuSans-112"/>
     </g>
    </g>
   </g>
   <g id="line2d_17">
    <path clip-path="url(#pfae107ed1a)" d="M 230.727273 589.215729 
L 231.753102 507.217401 
L 232.778932 517.776264 
L 233.804761 517.714034 
L 234.830591 514.6768 
L 235.856421 538.887031 
L 236.88225 467.655463 
L 237.90808 515.110443 
L 238.933909 452.719969 
L 239.959739 452.17953 
L 240.985569 425.400272 
L 242.011398 461.232934 
L 243.037228 414.579888 
L 244.063057 467.836259 
L 245.088887 438.828865 
L 246.114716 440.053184 
L 247.140546 454.144189 
L 248.166376 441.744895 
L 249.192205 472.005847 
L 250.218035 451.050447 
L 251.243864 440.175738 
L 252.269694 460.778933 
L 253.295523 456.879628 
L 254.321353 459.624103 
L 255.347183 460.274779 
L 256.373012 440.384098 
L 257.398842 439.377386 
L 258.424671 450.706763 
L 259.450501 440.953377 
L 260.476331 439.4756 
L 261.50216 471.59187 
L 262.52799 464.914579 
L 263.553819 453.075341 
L 264.579649 447.166021 
L 265.605478 447.332808 
L 266.631308 470.330659 
L 267.657138 430.614328 
L 268.682967 445.604767 
L 269.708797 435.156474 
L 270.734626 461.867711 
L 271.760456 450.320178 
L 272.786286 451.403612 
L 273.812115 452.932813 
L 274.837945 557.085903 
L 275.863774 451.811914 
L 276.889604 474.045053 
L 277.915433 449.544612 
L 278.941263 459.092082 
L 279.967093 444.102083 
L 280.992922 446.277206 
L 282.018752 476.615047 
L 283.044581 471.153502 
L 284.070411 448.556581 
L 285.09624 429.495233 
L 286.12207 442.414791 
L 287.1479 459.425001 
L 288.173729 436.152313 
L 289.199559 458.90185 
L 290.225388 456.594251 
L 291.251218 450.242248 
L 292.277048 450.507601 
L 293.302877 444.462228 
L 294.328707 442.488316 
L 295.354536 459.417235 
L 296.380366 445.626783 
L 297.406195 484.454305 
L 298.432025 443.485658 
L 299.457855 445.997027 
L 300.483684 451.397388 
L 301.509514 443.392407 
L 302.535343 476.777041 
L 303.561173 518.294051 
L 304.587002 449.858664 
L 305.612832 447.856045 
L 306.638662 458.862495 
L 307.664491 460.83812 
L 308.690321 443.614621 
L 309.71615 450.190862 
L 310.74198 450.773333 
L 311.76781 450.220663 
L 312.793639 431.965696 
L 313.819469 450.920366 
L 314.845298 441.5237 
L 315.871128 448.070961 
L 316.896957 469.14039 
L 317.922787 507.331099 
L 318.948617 474.887758 
L 319.974446 458.831081 
L 321.000276 448.12207 
L 322.026105 443.174786 
L 323.051935 444.210681 
L 324.077765 459.891026 
L 325.103594 460.649093 
L 326.129424 454.356701 
L 327.155253 440.118879 
L 328.181083 438.581624 
L 329.206912 446.671938 
L 330.232742 468.27501 
L 331.258572 449.040052 
L 332.284401 453.796688 
L 333.310231 451.80568 
L 334.33606 497.374022 
L 335.36189 459.62067 
L 336.387719 462.620132 
L 337.413549 450.733004 
L 338.439379 451.039627 
L 339.465208 470.942074 
L 340.491038 460.279434 
L 341.516867 474.467352 
L 342.542697 467.622385 
L 343.568527 470.59597 
L 344.594356 461.167526 
L 345.620186 464.210393 
L 346.646015 458.348828 
L 347.671845 472.151407 
L 348.697674 459.926544 
L 349.723504 530.665059 
L 350.749334 457.430187 
L 351.775163 465.925005 
L 352.800993 468.067337 
L 353.826822 447.377589 
L 354.852652 460.692508 
L 355.878481 445.593814 
L 356.904311 452.676802 
L 357.930141 464.482597 
L 358.95597 451.166529 
L 359.9818 454.864546 
L 361.007629 470.467902 
L 362.033459 462.159561 
L 363.059289 465.064817 
L 364.085118 462.64051 
L 365.110948 454.701332 
L 366.136777 459.232137 
L 367.162607 468.140962 
L 368.188436 464.356855 
L 369.214266 457.497121 
L 370.240096 457.00073 
L 371.265925 462.421723 
L 372.291755 448.908761 
L 373.317584 460.457701 
L 374.343414 448.42493 
L 375.369243 455.340099 
L 376.395073 451.382381 
L 377.420903 483.498978 
L 378.446732 489.378847 
L 379.472562 465.435196 
L 380.498391 456.875065 
L 381.524221 453.70733 
L 382.550051 459.451503 
L 383.57588 461.457645 
L 384.60171 457.080845 
L 385.627539 469.062329 
L 386.653369 474.294475 
L 387.679198 466.59164 
L 388.705028 522.865166 
L 389.730858 466.448375 
L 390.756687 462.240636 
L 391.782517 471.764344 
L 392.808346 468.409027 
L 393.834176 473.622021 
L 394.860006 470.847816 
L 395.885835 473.953689 
L 396.911665 448.6239 
L 397.937494 480.912939 
L 398.963324 479.611089 
L 399.989153 528.528045 
L 401.014983 480.983535 
L 402.040813 471.759532 
L 403.066642 484.664493 
L 404.092472 475.721185 
L 405.118301 484.238959 
L 406.144131 474.047187 
L 408.19579 495.270136 
L 409.22162 469.260161 
L 410.247449 484.224006 
L 411.273279 463.493975 
L 412.299108 460.845774 
L 413.324938 471.345609 
L 414.350768 463.736541 
L 415.376597 477.542915 
L 416.402427 460.040654 
L 417.428256 492.7331 
L 418.454086 463.472825 
L 419.479915 463.830052 
L 420.505745 463.40626 
L 421.531575 437.262737 
L 422.557404 461.313611 
L 423.583234 375.726634 
L 424.609063 462.942612 
L 425.634893 479.27059 
L 426.660722 377.367455 
L 427.686552 476.015512 
L 428.712382 474.703714 
L 429.738211 476.758578 
L 430.764041 490.070332 
L 431.78987 459.56466 
L 432.8157 482.884785 
L 433.84153 475.963989 
L 434.867359 493.190001 
L 435.893189 463.283876 
L 436.919018 455.365401 
L 437.944848 461.845217 
L 438.970677 569.576432 
L 439.996507 473.227769 
L 441.022337 461.003913 
L 442.048166 111.6 
L 443.073996 410.338543 
L 444.099825 524.558226 
L 445.125655 536.915068 
L 446.151485 551.138402 
L 447.177314 569.865543 
L 448.203144 539.618777 
L 449.228973 467.412318 
L 450.254803 468.482805 
L 451.280632 486.88391 
L 452.306462 466.933463 
L 453.332292 470.63479 
L 454.358121 480.831374 
L 455.383951 493.546215 
L 456.40978 541.155577 
L 457.43561 484.550089 
L 458.461439 484.305983 
L 459.487269 558.292076 
L 460.513099 501.582614 
L 461.538928 504.916693 
L 462.564758 501.621018 
L 463.590587 501.242735 
L 464.616417 504.981217 
L 465.642247 493.141899 
L 466.668076 507.324887 
L 467.693906 495.939829 
L 468.719735 500.189943 
L 469.745565 501.578852 
L 470.771394 501.788067 
L 471.797224 483.453642 
L 472.823054 476.472281 
L 473.848883 483.503638 
L 474.874713 537.214265 
L 475.900542 534.582017 
L 476.926372 504.639498 
L 477.952201 514.03693 
L 478.978031 475.766251 
L 480.003861 483.464526 
L 481.02969 498.93642 
L 482.05552 496.398786 
L 483.081349 475.514008 
L 484.107179 494.951692 
L 485.133009 480.143211 
L 486.158838 482.489739 
L 487.184668 490.887546 
L 488.210497 493.265258 
L 489.236327 476.870227 
L 490.262156 474.14135 
L 491.287986 486.483415 
L 492.313816 481.168762 
L 493.339645 464.643172 
L 494.365475 486.658021 
L 495.391304 477.709823 
L 496.417134 488.983708 
L 497.442964 412.180309 
L 498.468793 484.769353 
L 499.494623 474.885282 
L 500.520452 476.350874 
L 501.546282 495.650325 
L 502.572111 484.192908 
L 503.597941 474.096324 
L 504.623771 470.868348 
L 505.6496 444.227257 
L 506.67543 481.334719 
L 507.701259 495.216945 
L 508.727089 469.6712 
L 509.752918 483.373272 
L 510.778748 481.446536 
L 511.804578 494.843816 
L 512.830407 484.057844 
L 513.856237 491.214083 
L 514.882066 503.717521 
L 515.907896 497.614952 
L 516.933726 489.75992 
L 517.959555 495.126106 
L 518.985385 482.410242 
L 520.011214 491.264729 
L 521.037044 491.455011 
L 522.062873 493.985309 
L 523.088703 494.456173 
L 524.114533 490.631011 
L 525.140362 482.990449 
L 526.166192 476.559545 
L 527.192021 484.437974 
L 528.217851 486.502662 
L 529.24368 483.065424 
L 530.26951 486.181203 
L 531.29534 479.415092 
L 532.321169 490.731825 
L 533.346999 486.818744 
L 534.372828 499.991115 
L 535.398658 498.543902 
L 536.424488 504.399865 
L 537.450317 555.855194 
L 538.476147 504.953873 
L 539.501976 505.512064 
L 540.527806 501.933235 
L 541.553635 499.890964 
L 542.579465 546.327472 
L 543.605295 507.789166 
L 544.631124 512.97757 
L 545.656954 496.189769 
L 546.682783 508.180252 
L 547.708613 504.984812 
L 548.734443 489.331442 
L 549.760272 507.137793 
L 550.786102 536.280289 
L 551.811931 522.577967 
L 552.837761 467.49333 
L 553.86359 501.542943 
L 554.88942 486.060805 
L 555.91525 484.047406 
L 556.941079 510.251494 
L 557.966909 507.298779 
L 558.992738 502.128707 
L 560.018568 511.902569 
L 561.044397 512.988555 
L 562.070227 506.445877 
L 563.096057 495.945372 
L 564.121886 508.469525 
L 565.147716 504.619559 
L 566.173545 496.265303 
L 567.199375 503.36482 
L 568.225205 491.856656 
L 569.251034 505.771325 
L 570.276864 497.084391 
L 571.302693 505.415943 
L 572.328523 530.827306 
L 573.354352 492.041784 
L 574.380182 508.2691 
L 575.406012 493.057974 
L 576.431841 492.723947 
L 577.457671 494.917435 
L 578.4835 500.605407 
L 579.50933 509.213264 
L 580.535159 511.703747 
L 581.560989 511.501381 
L 582.586819 539.092302 
L 583.612648 500.856125 
L 584.638478 500.31027 
L 586.690137 519.30124 
L 587.715967 506.302016 
L 588.741796 500.035622 
L 589.767626 513.611642 
L 590.793455 500.104211 
L 591.819285 502.172036 
L 592.845114 511.823004 
L 593.870944 539.451494 
L 594.896774 510.928751 
L 595.922603 517.825228 
L 596.948433 481.245662 
L 597.974262 551.104203 
L 599.000092 499.48043 
L 600.025922 513.623479 
L 601.051751 510.796038 
L 602.077581 515.214923 
L 603.10341 549.448843 
L 604.12924 534.979154 
L 605.155069 522.282224 
L 606.180899 507.105157 
L 607.206729 530.311185 
L 608.232558 503.192834 
L 609.258388 503.726468 
L 610.284217 515.644548 
L 611.310047 504.679021 
L 612.335876 503.384458 
L 613.361706 511.550417 
L 614.387536 501.893949 
L 615.413365 500.511517 
L 616.439195 495.344488 
L 617.465024 502.881315 
L 618.490854 494.760683 
L 619.516684 511.593787 
L 620.542513 545.726317 
L 621.568343 555.870902 
L 622.594172 524.462603 
L 623.620002 558.618983 
L 624.645831 554.098703 
L 625.671661 528.576604 
L 626.697491 515.102305 
L 627.72332 508.979567 
L 628.74915 507.578395 
L 629.774979 510.15346 
L 630.800809 493.575335 
L 631.826638 504.667753 
L 632.852468 524.345556 
L 633.878298 534.734596 
L 634.904127 523.191324 
L 635.929957 507.175544 
L 636.955786 513.796532 
L 637.981616 508.910581 
L 639.007446 495.776887 
L 640.033275 538.110736 
L 641.059105 539.617577 
L 642.084934 545.442387 
L 643.110764 500.216472 
L 644.136593 585.631964 
L 645.162423 549.98037 
L 646.188253 537.608243 
L 647.214082 546.401403 
L 648.239912 536.504452 
L 649.265741 529.367625 
L 650.291571 531.476222 
L 651.3174 553.859756 
L 652.34323 529.460752 
L 653.36906 540.257707 
L 654.394889 557.614066 
L 655.420719 528.738331 
L 656.446548 529.093528 
L 657.472378 553.222401 
L 658.498208 527.07977 
L 659.524037 531.04103 
L 661.575696 521.663941 
L 662.601526 541.743519 
L 663.627355 541.129335 
L 664.653185 541.34205 
L 665.679015 523.485097 
L 666.704844 579.514776 
L 667.730674 544.959581 
L 668.756503 530.898921 
L 669.782333 586.223627 
L 670.808163 546.087825 
L 671.833992 561.859326 
L 672.859822 553.589624 
L 673.885651 552.223409 
L 674.911481 590.633748 
L 675.93731 535.496386 
L 676.96314 548.813892 
L 677.98897 540.979337 
L 679.014799 555.520371 
L 680.040629 540.12923 
L 681.066458 556.987581 
L 682.092288 546.568172 
L 683.118117 527.87972 
L 684.143947 570.53056 
L 685.169777 527.823547 
L 686.195606 519.302104 
L 687.221436 521.841909 
L 688.247265 525.833858 
L 689.273095 529.22325 
L 690.298925 509.839813 
L 691.324754 508.898938 
L 692.350584 510.989443 
L 693.376413 516.847566 
L 694.402243 597.016512 
L 695.428072 512.396828 
L 696.453902 527.414459 
L 697.479732 511.719769 
L 698.505561 523.366818 
L 699.531391 518.565018 
L 700.55722 532.393791 
L 701.58305 526.315517 
L 702.608879 523.306364 
L 703.634709 522.739392 
L 704.660539 525.534914 
L 705.686368 520.029226 
L 706.712198 517.190967 
L 707.738027 510.897979 
L 708.763857 513.175849 
L 709.789687 583.299576 
L 710.815516 583.211653 
L 711.841346 537.779149 
L 712.867175 529.851539 
L 713.893005 556.879314 
L 714.918834 526.055372 
L 715.944664 538.515063 
L 716.970494 555.448254 
L 717.996323 538.614496 
L 719.022153 559.372189 
L 720.047982 540.120835 
L 721.073812 508.393993 
L 722.099642 545.976542 
L 723.125471 508.184181 
L 725.17713 579.182295 
L 726.20296 557.004565 
L 727.228789 530.414484 
L 728.254619 551.95308 
L 729.280449 555.598252 
L 730.306278 560.273207 
L 731.332108 559.567053 
L 732.357937 530.896978 
L 733.383767 567.199618 
L 734.409596 478.63299 
L 735.435426 528.986252 
L 736.461256 539.248018 
L 737.487085 525.280092 
L 738.512915 538.810158 
L 739.538744 526.662133 
L 740.564574 545.44816 
L 741.590404 550.387593 
L 742.616233 537.264235 
L 743.642063 557.00404 
L 744.667892 581.607186 
L 745.693722 538.108236 
L 746.719551 529.651389 
L 748.771211 535.851861 
L 749.79704 546.647565 
L 750.82287 542.380129 
L 751.848699 611.096664 
L 752.874529 549.696281 
L 753.900358 560.92143 
L 754.926188 543.31617 
L 755.952018 532.070523 
L 756.977847 532.848641 
L 758.003677 554.098606 
L 759.029506 561.31807 
L 760.055336 531.174692 
L 761.081166 534.206993 
L 762.106995 528.590595 
L 763.132825 553.355342 
L 764.158654 548.349513 
L 765.184484 554.18212 
L 766.210313 551.763648 
L 767.236143 600.45266 
L 768.261973 569.985886 
L 769.287802 558.197633 
L 770.313632 597.510787 
L 771.339461 554.639581 
L 772.365291 570.035475 
L 773.391121 573.191638 
L 774.41695 570.716641 
L 775.44278 568.599095 
L 776.468609 554.182867 
L 777.494439 536.059014 
L 778.520268 548.864439 
L 779.546098 534.060658 
L 780.571928 556.174749 
L 781.597757 543.042826 
L 782.623587 563.366761 
L 783.649416 556.308532 
L 784.675246 565.48354 
L 785.701075 556.044335 
L 786.726905 543.493473 
L 787.752735 533.078845 
L 788.778564 548.859517 
L 789.804394 585.450247 
L 790.830223 513.353279 
L 791.856053 598.086538 
L 792.881883 535.580123 
L 793.907712 565.627801 
L 794.933542 545.052265 
L 795.959371 540.960579 
L 796.985201 533.431015 
L 798.01103 554.823932 
L 799.03686 542.60038 
L 800.06269 548.401773 
L 801.088519 551.575577 
L 802.114349 562.628425 
L 803.140178 558.394727 
L 804.166008 556.822807 
L 805.191837 558.969364 
L 806.217667 568.198978 
L 807.243497 541.776355 
L 808.269326 557.58091 
L 809.295156 565.264173 
L 810.320985 558.867327 
L 811.346815 510.812129 
L 812.372645 535.198337 
L 813.398474 574.081931 
L 814.424304 561.572239 
L 815.450133 546.678999 
L 816.475963 549.900847 
L 817.501792 569.87503 
L 818.527622 567.655389 
L 819.553452 573.742592 
L 820.579281 565.360587 
L 821.605111 568.848964 
L 822.63094 602.758 
L 823.65677 573.687095 
L 824.6826 564.264481 
L 825.708429 510.65856 
L 826.734259 575.095055 
L 827.760088 541.490158 
L 828.785918 546.386415 
L 829.811747 580.324918 
L 830.837577 553.078142 
L 831.863407 549.609856 
L 832.889236 549.346917 
L 833.915066 560.998711 
L 834.940895 560.366676 
L 835.966725 557.970896 
L 836.992554 566.408009 
L 838.018384 567.123759 
L 839.044214 560.781196 
L 840.070043 570.766046 
L 841.095873 560.406008 
L 842.121702 564.915477 
L 843.147532 558.504702 
L 844.173362 433.172433 
L 845.199191 562.608453 
L 846.225021 565.970393 
L 847.25085 538.934533 
L 848.27668 544.971962 
L 850.328339 592.053232 
L 851.354169 568.064747 
L 852.379998 601.58952 
L 853.405828 568.311356 
L 854.431657 572.336981 
L 855.457487 579.154105 
L 856.483316 571.715678 
L 857.509146 567.85999 
L 858.534976 553.252176 
L 859.560805 570.168623 
L 860.586635 548.116062 
L 861.612464 520.405759 
L 862.638294 517.979726 
L 863.664124 527.432046 
L 864.689953 526.34038 
L 865.715783 534.393402 
L 866.741612 532.429008 
L 867.767442 538.48191 
L 868.793271 529.369657 
L 869.819101 524.82213 
L 870.844931 525.56402 
L 871.87076 523.859215 
L 872.89659 518.780469 
L 873.922419 526.388418 
L 874.948249 560.793065 
L 875.974078 518.565351 
L 876.999908 536.357525 
L 878.025738 528.99781 
L 879.051567 520.500283 
L 880.077397 527.788515 
L 881.103226 524.098093 
L 882.129056 480.590894 
L 883.154886 531.43359 
L 884.180715 496.722566 
L 885.206545 451.125038 
L 886.232374 506.466987 
L 887.258204 497.042335 
L 888.284033 503.089585 
L 889.309863 496.139418 
L 890.335693 499.547897 
L 891.361522 494.126864 
L 892.387352 500.766293 
L 893.413181 496.393909 
L 894.439011 498.196983 
L 895.464841 492.222506 
L 896.49067 498.71305 
L 897.5165 494.106573 
L 898.542329 495.201664 
L 899.568159 497.61882 
L 900.593988 499.394612 
L 901.619818 495.467882 
L 902.645648 532.268605 
L 903.671477 522.760609 
L 904.697307 522.080259 
L 905.723136 563.850151 
L 906.748966 525.673168 
L 907.774795 551.975296 
L 908.800625 550.323608 
L 909.826455 509.177636 
L 910.852284 552.316949 
L 911.878114 531.628542 
L 912.903943 526.324037 
L 913.929773 542.284383 
L 914.955603 531.545486 
L 915.981432 538.268512 
L 917.007262 543.095054 
L 918.033091 539.438091 
L 919.058921 525.317968 
L 920.08475 526.261292 
L 922.13641 541.514583 
L 923.162239 545.318957 
L 924.188069 547.076001 
L 925.213898 546.412389 
L 926.239728 539.969643 
L 927.265557 529.347892 
L 928.291387 547.016993 
L 929.317217 545.454422 
L 930.343046 537.853499 
L 932.394705 529.647014 
L 933.420535 527.522204 
L 934.446365 538.165783 
L 935.472194 543.833773 
L 936.498024 511.601637 
L 937.523853 523.832815 
L 938.549683 594.559394 
L 939.575512 462.177519 
L 940.601342 452.753856 
L 941.627172 460.756511 
L 942.653001 441.687186 
L 943.678831 450.25263 
L 944.70466 450.528523 
L 945.73049 525.222508 
L 946.75632 536.019652 
L 947.782149 529.527012 
L 948.807979 544.920427 
L 949.833808 542.680797 
L 950.859638 518.615156 
L 951.885467 548.938005 
L 952.911297 529.383202 
L 953.937127 528.097072 
L 954.962956 549.570294 
L 955.988786 527.980734 
L 957.014615 542.13835 
L 958.040445 546.549666 
L 959.066274 539.573238 
L 960.092104 549.232298 
L 961.117934 530.170817 
L 962.143763 526.983017 
L 963.169593 523.325856 
L 964.195422 585.821265 
L 965.221252 540.124591 
L 966.247082 538.946444 
L 967.272911 544.619864 
L 968.298741 542.636079 
L 969.32457 531.774284 
L 970.3504 548.813281 
L 971.376229 538.162876 
L 972.402059 548.522263 
L 973.427889 547.374312 
L 974.453718 547.094905 
L 975.479548 561.190513 
L 976.505377 541.877088 
L 977.531207 540.19325 
L 978.557036 543.60989 
L 979.582866 548.974179 
L 980.608696 538.043393 
L 981.634525 545.666806 
L 982.660355 549.268141 
L 983.686184 557.197931 
L 984.712014 551.562474 
L 985.737844 535.602006 
L 986.763673 594.691056 
L 987.789503 551.913292 
L 988.815332 538.229042 
L 989.841162 539.698438 
L 990.866991 547.375283 
L 991.892821 524.581451 
L 992.918651 546.275168 
L 993.94448 550.335611 
L 994.97031 563.786833 
L 995.996139 557.938427 
L 997.021969 557.620779 
L 998.047799 534.668684 
L 999.073628 552.22405 
L 1000.099458 537.168726 
L 1001.125287 530.852213 
L 1002.151117 528.035857 
L 1003.176946 527.3071 
L 1004.202776 540.711204 
L 1005.228606 541.480708 
L 1006.254435 552.863811 
L 1007.280265 524.581531 
L 1008.306094 525.024033 
L 1009.331924 531.406898 
L 1010.357753 536.237291 
L 1011.383583 534.644315 
L 1012.409413 536.238058 
L 1013.435242 534.955928 
L 1014.461072 529.358066 
L 1015.486901 533.954069 
L 1016.512731 518.359785 
L 1017.538561 527.201385 
L 1018.56439 529.394573 
L 1019.59022 540.329767 
L 1020.616049 537.482522 
L 1021.641879 533.396063 
L 1022.667708 541.957368 
L 1023.693538 535.43209 
L 1024.719368 595.31789 
L 1025.745197 546.085534 
L 1026.771027 548.448396 
L 1027.796856 562.667146 
L 1028.822686 533.797639 
L 1029.848515 534.456268 
L 1030.874345 536.131547 
L 1031.900175 534.718187 
L 1032.926004 532.084125 
L 1033.951834 534.317828 
L 1034.977663 538.336619 
L 1036.003493 529.938964 
L 1037.029323 532.563326 
L 1038.055152 529.733489 
L 1039.080982 534.056662 
L 1040.106811 527.200093 
L 1041.132641 536.420405 
L 1042.15847 530.665175 
L 1043.1843 528.001082 
L 1044.21013 535.853318 
L 1045.235959 526.991705 
L 1046.261789 528.095278 
L 1047.287618 534.422014 
L 1048.313448 543.216124 
L 1049.339278 527.204244 
L 1050.365107 533.980329 
L 1051.390937 544.012966 
L 1052.416766 484.966088 
L 1053.442596 459.910651 
L 1054.468425 534.36595 
L 1055.494255 529.783761 
L 1056.520085 554.027985 
L 1057.545914 556.369618 
L 1058.571744 565.440533 
L 1059.597573 554.329391 
L 1060.623403 567.760731 
L 1061.649232 554.288496 
L 1062.675062 587.079706 
L 1063.700892 567.64751 
L 1064.726721 572.684165 
L 1065.752551 574.510198 
L 1066.77838 568.309987 
L 1067.80421 560.208587 
L 1068.83004 587.028711 
L 1069.855869 590.963402 
L 1070.881699 589.983226 
L 1071.907528 583.957 
L 1072.933358 530.829861 
L 1073.959187 576.068816 
L 1074.985017 555.708974 
L 1076.010847 563.940281 
L 1077.036676 554.450217 
L 1078.062506 561.73366 
L 1079.088335 546.175055 
L 1080.114165 540.980125 
L 1081.139994 537.226311 
L 1082.165824 593.125382 
L 1083.191654 555.800239 
L 1084.217483 544.508778 
L 1085.243313 550.022142 
L 1086.269142 551.358985 
L 1087.294972 537.527536 
L 1088.320802 551.95811 
L 1089.346631 554.976288 
L 1090.372461 566.348576 
L 1091.39829 586.339476 
L 1092.42412 572.452847 
L 1093.449949 576.504435 
L 1094.475779 514.972936 
L 1095.501609 541.145587 
L 1096.527438 539.721344 
L 1097.553268 534.577243 
L 1098.579097 536.153085 
L 1099.604927 536.851804 
L 1100.630757 540.230934 
L 1101.656586 536.538567 
L 1102.682416 537.747108 
L 1103.708245 552.19024 
L 1104.734075 539.244214 
L 1105.759904 559.532461 
L 1106.785734 539.293012 
L 1107.811564 553.77993 
L 1108.837393 540.326823 
L 1109.863223 535.097452 
L 1110.889052 558.48136 
L 1111.914882 535.636485 
L 1112.940711 538.71209 
L 1113.966541 529.59944 
L 1114.992371 540.926953 
L 1116.0182 543.561746 
L 1117.04403 557.981907 
L 1118.069859 540.573966 
L 1119.095689 535.874135 
L 1120.121519 541.418415 
L 1121.147348 544.090118 
L 1122.173178 535.391628 
L 1123.199007 561.745302 
L 1124.224837 559.412557 
L 1125.250666 543.374356 
L 1126.276496 550.918177 
L 1127.302326 543.505588 
L 1128.328155 557.788446 
L 1129.353985 561.223271 
L 1130.379814 553.588219 
L 1131.405644 560.109909 
L 1132.431473 552.546404 
L 1133.457303 552.147807 
L 1134.483133 551.158704 
L 1135.508962 565.020194 
L 1136.534792 556.004074 
L 1137.560621 539.116214 
L 1138.586451 554.226192 
L 1139.612281 556.965339 
L 1140.63811 545.082753 
L 1141.66394 562.217655 
L 1142.689769 536.317388 
L 1143.715599 552.2269 
L 1144.741428 545.513263 
L 1145.767258 543.691777 
L 1146.793088 556.815796 
L 1147.818917 558.779729 
L 1148.844747 557.161222 
L 1149.870576 552.529769 
L 1150.896406 556.390837 
L 1151.922235 561.397335 
L 1152.948065 555.650662 
L 1153.973895 560.328743 
L 1154.999724 555.748984 
L 1156.025554 558.765759 
L 1157.051383 556.621621 
L 1158.077213 544.487284 
L 1159.103043 546.639391 
L 1160.128872 537.350427 
L 1161.154702 546.463281 
L 1162.180531 540.705884 
L 1163.206361 559.936627 
L 1164.23219 570.073795 
L 1165.25802 569.343871 
L 1166.28385 586.600654 
L 1167.309679 554.314403 
L 1168.335509 542.818138 
L 1169.361338 554.747937 
L 1171.412998 563.633798 
L 1172.438827 569.655123 
L 1173.464657 535.400554 
L 1174.490486 568.236928 
L 1175.516316 568.534261 
L 1176.542145 545.751193 
L 1177.567975 534.233568 
L 1178.593805 562.772356 
L 1179.619634 538.778528 
L 1180.645464 535.636546 
L 1181.671293 573.737108 
L 1182.697123 528.430804 
L 1183.722952 531.639023 
L 1184.748782 547.230505 
L 1185.774612 544.125838 
L 1186.800441 556.747032 
L 1187.826271 559.008917 
L 1188.8521 557.141264 
L 1189.87793 544.757757 
L 1190.90376 565.157453 
L 1191.929589 560.389397 
L 1192.955419 566.79206 
L 1193.981248 561.598282 
L 1195.007078 560.887001 
L 1196.032907 563.872189 
L 1197.058737 532.451422 
L 1198.084567 539.609521 
L 1199.110396 573.533436 
L 1200.136226 557.706113 
L 1201.162055 548.638695 
L 1202.187885 563.950259 
L 1203.213714 561.74588 
L 1204.239544 560.679582 
L 1205.265374 563.561119 
L 1206.291203 563.946555 
L 1207.317033 558.968991 
L 1208.342862 565.04833 
L 1209.368692 555.541568 
L 1210.394522 562.958061 
L 1211.420351 555.802801 
L 1212.446181 558.801906 
L 1213.47201 565.120427 
L 1214.49784 545.729854 
L 1215.523669 552.223871 
L 1216.549499 541.792249 
L 1217.575329 543.642805 
L 1218.601158 535.627166 
L 1219.626988 563.050276 
L 1220.652817 550.104686 
L 1221.678647 558.90649 
L 1222.704477 560.723075 
L 1223.730306 557.850636 
L 1224.756136 569.150195 
L 1225.781965 561.925693 
L 1226.807795 561.82427 
L 1227.833624 543.475743 
L 1228.859454 563.398552 
L 1229.885284 547.159459 
L 1230.911113 603.225941 
L 1231.936943 549.961366 
L 1232.962772 562.086014 
L 1233.988602 565.847407 
L 1235.014431 581.33893 
L 1236.040261 573.733588 
L 1237.066091 574.963499 
L 1238.09192 574.960396 
L 1239.11775 584.645849 
L 1240.143579 551.55227 
L 1241.169409 558.035349 
L 1242.195239 541.338687 
L 1243.221068 562.047188 
L 1244.246898 561.737074 
L 1245.272727 565.083967 
L 1245.272727 565.083967 
" style="fill:none;stroke:#1f77b4;stroke-linecap:square;stroke-width:1.5;"/>
   </g>
   <g id="line2d_18">
    <path clip-path="url(#pfae107ed1a)" d="M 230.727273 538.515746 
L 231.753102 442.354521 
L 232.778932 448.421461 
L 233.804761 463.290859 
L 234.830591 509.924901 
L 235.856421 462.295996 
L 236.88225 388.330532 
L 237.90808 423.241827 
L 238.933909 450.993116 
L 239.959739 448.66056 
L 240.985569 496.984823 
L 242.011398 458.793756 
L 243.037228 440.490697 
L 244.063057 476.559088 
L 245.088887 436.310271 
L 246.114716 451.489572 
L 247.140546 438.258875 
L 248.166376 429.503485 
L 249.192205 449.989189 
L 250.218035 446.1689 
L 251.243864 457.371602 
L 253.295523 464.934892 
L 255.347183 445.846649 
L 256.373012 452.127165 
L 257.398842 524.795471 
L 258.424671 462.517454 
L 259.450501 460.473995 
L 260.476331 445.219345 
L 261.50216 439.414459 
L 262.52799 447.740847 
L 263.553819 442.623163 
L 264.579649 467.561328 
L 265.605478 449.991086 
L 266.631308 454.932609 
L 267.657138 441.889138 
L 268.682967 456.836972 
L 269.708797 445.356668 
L 270.734626 456.663351 
L 271.760456 440.090519 
L 272.786286 459.515533 
L 273.812115 458.933684 
L 274.837945 450.376071 
L 275.863774 467.350229 
L 276.889604 471.529807 
L 277.915433 445.736703 
L 278.941263 461.797551 
L 279.967093 446.981445 
L 280.992922 445.903852 
L 282.018752 518.702467 
L 283.044581 447.648147 
L 284.070411 430.768799 
L 285.09624 447.081667 
L 286.12207 444.532997 
L 287.1479 443.966031 
L 288.173729 448.497582 
L 289.199559 443.310745 
L 290.225388 540.088758 
L 291.251218 462.998882 
L 292.277048 439.978781 
L 293.302877 427.256479 
L 294.328707 420.4636 
L 295.354536 441.910053 
L 296.380366 452.994918 
L 297.406195 436.864703 
L 298.432025 455.412793 
L 299.457855 445.262868 
L 300.483684 432.65454 
L 301.509514 426.550265 
L 302.535343 439.341347 
L 303.561173 425.211626 
L 304.587002 431.01912 
L 305.612832 422.58387 
L 306.638662 432.068916 
L 307.664491 430.049813 
L 308.690321 445.467409 
L 309.71615 438.364833 
L 310.74198 487.855921 
L 311.76781 454.629882 
L 312.793639 455.377871 
L 313.819469 447.147135 
L 314.845298 450.916099 
L 315.871128 445.786069 
L 316.896957 442.492996 
L 317.922787 441.377499 
L 318.948617 420.766132 
L 319.974446 433.27867 
L 321.000276 425.579219 
L 322.026105 455.582472 
L 323.051935 431.209003 
L 324.077765 433.774596 
L 325.103594 452.445069 
L 326.129424 439.354676 
L 327.155253 446.327291 
L 328.181083 462.472216 
L 329.206912 448.622683 
L 330.232742 452.649391 
L 331.258572 447.486614 
L 332.284401 443.584044 
L 333.310231 450.635305 
L 334.33606 458.654819 
L 335.36189 451.917419 
L 336.387719 460.020148 
L 337.413549 455.299451 
L 338.439379 461.798551 
L 339.465208 453.060103 
L 340.491038 448.302155 
L 341.516867 545.247684 
L 342.542697 460.427815 
L 343.568527 462.395326 
L 344.594356 454.227082 
L 345.620186 456.826856 
L 346.646015 468.064734 
L 347.671845 461.504086 
L 348.697674 455.97403 
L 349.723504 454.423558 
L 350.749334 458.640454 
L 351.775163 457.767116 
L 352.800993 461.234544 
L 353.826822 467.372739 
L 354.852652 469.990696 
L 355.878481 448.811019 
L 356.904311 499.186326 
L 357.930141 470.809245 
L 358.95597 537.509734 
L 359.9818 462.720983 
L 361.007629 474.112855 
L 362.033459 467.852733 
L 363.059289 479.797719 
L 364.085118 460.005131 
L 365.110948 475.016416 
L 366.136777 466.896923 
L 367.162607 460.737189 
L 368.188436 461.763102 
L 369.214266 528.333201 
L 370.240096 477.31791 
L 371.265925 526.272414 
L 372.291755 473.037105 
L 373.317584 484.08008 
L 374.343414 485.502883 
L 375.369243 545.707613 
L 376.395073 485.724716 
L 377.420903 462.14346 
L 378.446732 456.541468 
L 379.472562 457.212526 
L 380.498391 476.099509 
L 381.524221 473.003577 
L 382.550051 463.46512 
L 383.57588 468.372389 
L 384.60171 488.749093 
L 385.627539 473.191707 
L 386.653369 475.887126 
L 387.679198 479.37276 
L 388.705028 479.836062 
L 389.730858 474.230505 
L 390.756687 478.756066 
L 391.782517 440.189621 
L 392.808346 488.015481 
L 393.834176 466.468396 
L 394.860006 467.079867 
L 395.885835 466.411398 
L 396.911665 468.200503 
L 397.937494 474.211917 
L 398.963324 478.622692 
L 399.989153 533.218871 
L 401.014983 477.860832 
L 402.040813 487.233967 
L 403.066642 477.582538 
L 404.092472 489.204998 
L 405.118301 537.582801 
L 406.144131 463.937769 
L 407.16996 482.517743 
L 408.19579 476.943357 
L 409.22162 468.39698 
L 410.247449 467.272417 
L 411.273279 470.6505 
L 412.299108 482.332951 
L 413.324938 463.143487 
L 414.350768 526.243996 
L 415.376597 482.739809 
L 416.402427 475.063749 
L 417.428256 474.713371 
L 418.454086 488.110478 
L 419.479915 480.421948 
L 420.505745 490.464863 
L 421.531575 491.438708 
L 422.557404 491.302321 
L 423.583234 471.416489 
L 424.609063 534.264821 
L 425.634893 485.167773 
L 426.660722 480.652601 
L 427.686552 491.874322 
L 428.712382 475.841804 
L 429.738211 484.373185 
L 430.764041 474.064317 
L 431.78987 488.904567 
L 432.8157 539.27401 
L 433.84153 485.136221 
L 434.867359 503.699342 
L 435.893189 501.575731 
L 436.919018 539.100019 
L 437.944848 483.247379 
L 438.970677 472.245512 
L 439.996507 495.201299 
L 441.022337 482.981332 
L 442.048166 536.753558 
L 443.073996 473.730274 
L 444.099825 469.253102 
L 445.125655 478.66503 
L 446.151485 481.003574 
L 447.177314 508.593244 
L 448.203144 483.659618 
L 449.228973 470.602867 
L 450.254803 537.218371 
L 451.280632 483.780374 
L 452.306462 504.015632 
L 453.332292 511.274054 
L 454.358121 502.867216 
L 455.383951 471.166375 
L 456.40978 493.075817 
L 457.43561 488.290543 
L 458.461439 484.31735 
L 459.487269 546.801473 
L 460.513099 492.12493 
L 461.538928 489.047535 
L 462.564758 464.951063 
L 463.590587 482.310899 
L 464.616417 475.753009 
L 465.642247 491.462356 
L 466.668076 536.586722 
L 467.693906 477.663954 
L 468.719735 497.19148 
L 469.745565 474.167256 
L 471.797224 482.006787 
L 472.823054 492.96159 
L 473.848883 502.699248 
L 474.874713 502.9948 
L 475.900542 489.582502 
L 476.926372 500.256799 
L 477.952201 527.958759 
L 478.978031 497.548521 
L 480.003861 505.555188 
L 481.02969 538.548719 
L 482.05552 478.028897 
L 483.081349 479.29742 
L 484.107179 494.425167 
L 485.133009 380.262456 
L 486.158838 490.770812 
L 487.184668 516.281187 
L 488.210497 484.254605 
L 489.236327 482.818858 
L 490.262156 528.149369 
L 491.287986 501.61409 
L 492.313816 470.731144 
L 493.339645 486.747013 
L 494.365475 492.141674 
L 495.391304 504.481743 
L 496.417134 499.744132 
L 497.442964 475.233073 
L 498.468793 503.41568 
L 499.494623 502.260756 
L 500.520452 532.668414 
L 501.546282 478.875968 
L 502.572111 506.727827 
L 503.597941 496.830942 
L 504.623771 503.608518 
L 505.6496 501.519445 
L 506.67543 506.437657 
L 507.701259 503.975574 
L 508.727089 503.261914 
L 509.752918 485.020369 
L 510.778748 508.43763 
L 511.804578 502.667814 
L 512.830407 494.195288 
L 513.856237 495.318511 
L 514.882066 492.064733 
L 515.907896 490.216146 
L 516.933726 492.048103 
L 517.959555 497.855154 
L 518.985385 497.368893 
L 520.011214 494.101135 
L 521.037044 491.917459 
L 522.062873 478.008311 
L 523.088703 478.937021 
L 524.114533 487.586131 
L 525.140362 493.573155 
L 526.166192 496.759698 
L 527.192021 500.933267 
L 528.217851 499.313979 
L 529.24368 491.65923 
L 530.26951 496.548946 
L 531.29534 498.728532 
L 532.321169 499.511417 
L 533.346999 497.500414 
L 534.372828 482.86542 
L 535.398658 493.180985 
L 536.424488 486.748033 
L 537.450317 499.704139 
L 538.476147 507.626646 
L 539.501976 435.583067 
L 540.527806 486.804398 
L 541.553635 477.884525 
L 543.605295 499.433376 
L 544.631124 496.748261 
L 545.656954 493.165636 
L 546.682783 485.368969 
L 547.708613 485.596256 
L 548.734443 492.64112 
L 549.760272 487.040545 
L 550.786102 491.191395 
L 551.811931 492.8522 
L 552.837761 493.615708 
L 553.86359 517.720615 
L 554.88942 498.175582 
L 555.91525 502.117239 
L 556.941079 501.797532 
L 557.966909 502.523916 
L 560.018568 500.474196 
L 561.044397 514.779841 
L 562.070227 492.84339 
L 563.096057 507.661126 
L 564.121886 499.937023 
L 565.147716 506.114424 
L 566.173545 514.132008 
L 567.199375 500.402648 
L 569.251034 514.244279 
L 570.276864 510.757072 
L 571.302693 515.771792 
L 572.328523 515.170493 
L 573.354352 512.112647 
L 574.380182 516.564948 
L 575.406012 446.56053 
L 576.431841 516.473782 
L 577.457671 509.530584 
L 578.4835 542.52312 
L 579.50933 519.499813 
L 580.535159 504.379267 
L 581.560989 579.910829 
L 582.586819 492.268156 
L 583.612648 499.933821 
L 584.638478 542.073602 
L 585.664307 510.114887 
L 586.690137 511.065064 
L 587.715967 565.907828 
L 588.741796 502.24067 
L 589.767626 500.633673 
L 591.819285 515.001967 
L 592.845114 522.135652 
L 593.870944 504.863177 
L 594.896774 503.447502 
L 595.922603 494.570852 
L 596.948433 507.262477 
L 597.974262 509.017972 
L 599.000092 487.763461 
L 600.025922 476.140904 
L 601.051751 507.935039 
L 602.077581 490.877042 
L 603.10341 498.538809 
L 604.12924 502.006676 
L 605.155069 538.344433 
L 606.180899 502.907878 
L 607.206729 514.503172 
L 608.232558 515.437299 
L 609.258388 527.364329 
L 610.284217 453.706239 
L 611.310047 547.887122 
L 612.335876 501.389268 
L 613.361706 499.408214 
L 614.387536 526.357953 
L 615.413365 530.917906 
L 616.439195 497.803756 
L 617.465024 520.791836 
L 618.490854 504.603255 
L 619.516684 516.980335 
L 620.542513 508.724067 
L 621.568343 507.544483 
L 622.594172 503.807887 
L 623.620002 511.843215 
L 624.645831 510.140924 
L 625.671661 518.636731 
L 626.697491 505.913717 
L 627.72332 507.998637 
L 628.74915 511.764488 
L 629.774979 521.832506 
L 630.800809 520.128882 
L 631.826638 491.765187 
L 632.852468 505.271398 
L 633.878298 494.222071 
L 634.904127 501.401893 
L 635.929957 502.599975 
L 636.955786 556.066563 
L 637.981616 512.51793 
L 639.007446 516.327485 
L 640.033275 557.352389 
L 641.059105 518.993402 
L 642.084934 522.585469 
L 643.110764 501.409275 
L 644.136593 511.05097 
L 645.162423 551.952871 
L 646.188253 520.643175 
L 647.214082 502.217074 
L 648.239912 486.263962 
L 649.265741 503.83954 
L 650.291571 519.113463 
L 651.3174 523.383675 
L 652.34323 512.999907 
L 653.36906 547.726137 
L 654.394889 519.542139 
L 655.420719 526.305963 
L 656.446548 502.284402 
L 657.472378 514.968234 
L 658.498208 506.75118 
L 659.524037 525.851925 
L 660.549867 502.700673 
L 661.575696 476.538022 
L 662.601526 514.081159 
L 663.627355 514.155137 
L 664.653185 516.7681 
L 665.679015 514.791809 
L 666.704844 518.723763 
L 667.730674 482.734894 
L 668.756503 517.133723 
L 669.782333 505.687923 
L 670.808163 497.987682 
L 671.833992 500.305305 
L 672.859822 514.987386 
L 673.885651 576.836684 
L 674.911481 519.400641 
L 675.93731 516.479418 
L 676.96314 505.786286 
L 677.98897 518.88236 
L 679.014799 526.736039 
L 680.040629 525.358271 
L 681.066458 522.308574 
L 682.092288 519.892586 
L 683.118117 503.127419 
L 684.143947 531.149626 
L 685.169777 555.29019 
L 686.195606 527.083537 
L 687.221436 536.882346 
L 688.247265 511.33469 
L 689.273095 524.763178 
L 690.298925 551.319263 
L 691.324754 526.992677 
L 692.350584 532.641025 
L 693.376413 514.885184 
L 694.402243 517.372543 
L 695.428072 540.23025 
L 696.453902 499.619476 
L 697.479732 511.372673 
L 698.505561 529.260036 
L 699.531391 524.568894 
L 700.55722 544.73852 
L 701.58305 500.911116 
L 702.608879 504.992427 
L 703.634709 508.052056 
L 704.660539 509.807711 
L 705.686368 502.029837 
L 706.712198 513.149087 
L 707.738027 508.558205 
L 708.763857 505.221166 
L 709.789687 505.849742 
L 710.815516 503.096259 
L 711.841346 508.753487 
L 712.867175 520.938796 
L 713.893005 502.956721 
L 714.918834 491.487173 
L 715.944664 519.07608 
L 716.970494 502.728494 
L 717.996323 576.346344 
L 719.022153 521.190264 
L 720.047982 520.323471 
L 721.073812 530.397139 
L 722.099642 555.60672 
L 723.125471 513.62443 
L 724.151301 520.277451 
L 725.17713 522.003112 
L 726.20296 521.266115 
L 727.228789 531.595152 
L 728.254619 531.063662 
L 729.280449 531.298015 
L 730.306278 565.72769 
L 731.332108 509.688772 
L 732.357937 540.869586 
L 733.383767 522.957997 
L 734.409596 554.148776 
L 735.435426 515.795091 
L 736.461256 519.125955 
L 737.487085 559.626263 
L 738.512915 520.533918 
L 739.538744 565.631036 
L 740.564574 521.779216 
L 741.590404 544.066305 
L 742.616233 528.433701 
L 743.642063 519.882592 
L 744.667892 533.37303 
L 745.693722 535.540603 
L 746.719551 534.597141 
L 747.745381 564.498692 
L 748.771211 538.967341 
L 749.79704 536.72245 
L 750.82287 564.773043 
L 751.848699 545.479697 
L 752.874529 537.113671 
L 753.900358 534.624824 
L 754.926188 535.706096 
L 755.952018 535.372323 
L 756.977847 536.781411 
L 758.003677 565.840913 
L 759.029506 513.137515 
L 760.055336 524.494943 
L 761.081166 513.322651 
L 762.106995 518.568475 
L 763.132825 565.220303 
L 764.158654 531.546359 
L 765.184484 524.359344 
L 766.210313 521.938773 
L 767.236143 533.799075 
L 768.261973 533.298431 
L 769.287802 536.741026 
L 770.313632 531.022197 
L 771.339461 533.203572 
L 772.365291 532.345329 
L 773.391121 535.619074 
L 774.41695 538.235905 
L 775.44278 546.281152 
L 776.468609 537.35539 
L 777.494439 515.849526 
L 778.520268 548.979171 
L 779.546098 433.004765 
L 780.571928 516.915772 
L 781.597757 532.224365 
L 782.623587 533.425779 
L 783.649416 527.65896 
L 784.675246 531.525433 
L 785.701075 541.766968 
L 786.726905 514.967797 
L 787.752735 510.506363 
L 788.778564 539.429825 
L 789.804394 556.367609 
L 790.830223 540.604777 
L 791.856053 532.668238 
L 792.881883 525.802029 
L 793.907712 519.961348 
L 794.933542 536.048395 
L 795.959371 517.714205 
L 796.985201 530.575336 
L 798.01103 517.397191 
L 799.03686 539.749404 
L 800.06269 520.460982 
L 801.088519 538.854964 
L 802.114349 522.723567 
L 803.140178 525.207576 
L 804.166008 517.094906 
L 805.191837 549.208053 
L 806.217667 529.20885 
L 807.243497 530.198195 
L 808.269326 526.486317 
L 809.295156 531.225129 
L 810.320985 539.173473 
L 811.346815 539.410337 
L 812.372645 536.312795 
L 813.398474 540.6602 
L 814.424304 530.805061 
L 815.450133 527.73488 
L 816.475963 517.002102 
L 817.501792 510.711414 
L 818.527622 522.170993 
L 819.553452 541.53049 
L 820.579281 570.235148 
L 821.605111 528.70021 
L 822.63094 530.455434 
L 823.65677 542.742663 
L 824.6826 509.192776 
L 825.708429 523.776609 
L 826.734259 531.381724 
L 827.760088 532.858066 
L 828.785918 538.524393 
L 829.811747 528.719808 
L 830.837577 532.45621 
L 831.863407 522.135358 
L 832.889236 539.288768 
L 833.915066 541.282719 
L 834.940895 540.719332 
L 835.966725 513.131115 
L 836.992554 572.720501 
L 838.018384 524.334193 
L 839.044214 582.401257 
L 840.070043 535.868509 
L 841.095873 481.120473 
L 842.121702 540.110816 
L 843.147532 532.983738 
L 844.173362 542.805543 
L 845.199191 524.66735 
L 846.225021 513.267581 
L 847.25085 518.231479 
L 848.27668 533.973377 
L 849.302509 524.863169 
L 850.328339 518.858418 
L 851.354169 546.271041 
L 852.379998 522.654505 
L 853.405828 526.549638 
L 854.431657 546.528963 
L 855.457487 513.349189 
L 856.483316 542.360397 
L 857.509146 538.784206 
L 858.534976 528.932002 
L 859.560805 545.75034 
L 860.586635 528.370152 
L 861.612464 515.949357 
L 862.638294 523.07539 
L 863.664124 536.78195 
L 864.689953 557.638222 
L 865.715783 525.047737 
L 866.741612 544.440154 
L 867.767442 532.741458 
L 868.793271 546.932507 
L 869.819101 546.964315 
L 870.844931 526.031414 
L 871.87076 547.584662 
L 872.89659 532.703503 
L 873.922419 557.343965 
L 874.948249 535.52071 
L 875.974078 541.471966 
L 878.025738 544.554802 
L 879.051567 538.371223 
L 880.077397 543.080176 
L 882.129056 534.617427 
L 883.154886 533.537572 
L 884.180715 547.018472 
L 885.206545 534.737253 
L 886.232374 540.434257 
L 887.258204 542.617892 
L 888.284033 539.547881 
L 889.309863 530.778432 
L 890.335693 541.294902 
L 891.361522 539.118019 
L 892.387352 546.771462 
L 893.413181 540.351202 
L 894.439011 543.733901 
L 895.464841 531.416035 
L 896.49067 508.651337 
L 897.5165 501.743892 
L 898.542329 498.733852 
L 899.568159 497.010866 
L 900.593988 508.964573 
L 901.619818 509.565254 
L 902.645648 518.385775 
L 903.671477 498.822045 
L 904.697307 508.264168 
L 905.723136 507.613228 
L 906.748966 505.051362 
L 907.774795 504.275738 
L 908.800625 502.273928 
L 909.826455 503.491398 
L 910.852284 506.032879 
L 911.878114 503.642627 
L 912.903943 509.753253 
L 913.929773 507.106364 
L 914.955603 505.585259 
L 915.981432 506.071523 
L 917.007262 508.709031 
L 918.033091 481.645719 
L 919.058921 514.093979 
L 920.08475 511.563188 
L 921.11058 502.061895 
L 922.13641 499.821079 
L 923.162239 529.928549 
L 924.188069 531.408947 
L 925.213898 549.595862 
L 926.239728 533.025351 
L 927.265557 550.508279 
L 928.291387 536.154517 
L 929.317217 551.536841 
L 930.343046 533.122687 
L 931.368876 545.84238 
L 932.394705 551.491601 
L 933.420535 542.523795 
L 934.446365 551.741485 
L 935.472194 548.97132 
L 936.498024 550.35253 
L 937.523853 543.922227 
L 938.549683 551.275821 
L 939.575512 542.74936 
L 940.601342 569.429368 
L 941.627172 531.265188 
L 942.653001 539.117186 
L 943.678831 551.631018 
L 944.70466 579.138719 
L 945.73049 535.442813 
L 946.75632 544.525249 
L 947.782149 552.558652 
L 948.807979 551.305102 
L 949.833808 521.347451 
L 950.859638 544.564626 
L 951.885467 455.808697 
L 952.911297 536.19287 
L 953.937127 532.154281 
L 954.962956 535.349522 
L 955.988786 533.760164 
L 957.014615 537.422908 
L 958.040445 536.534145 
L 959.066274 527.943328 
L 960.092104 529.075296 
L 961.117934 526.170596 
L 962.143763 532.160308 
L 963.169593 533.101554 
L 964.195422 539.373137 
L 965.221252 527.728148 
L 966.247082 533.629898 
L 967.272911 534.027795 
L 968.298741 534.622523 
L 969.32457 529.276983 
L 970.3504 536.627794 
L 971.376229 533.843565 
L 972.402059 528.68937 
L 973.427889 535.205776 
L 974.453718 500.456804 
L 975.479548 529.33996 
L 976.505377 535.191635 
L 977.531207 520.706492 
L 978.557036 540.127768 
L 979.582866 526.640484 
L 980.608696 537.485795 
L 981.634525 528.328523 
L 982.660355 529.875039 
L 983.686184 535.241384 
L 984.712014 528.732816 
L 985.737844 531.688492 
L 986.763673 538.404437 
L 987.789503 537.375565 
L 988.815332 533.750851 
L 989.841162 531.554066 
L 990.866991 542.116327 
L 991.892821 531.40999 
L 992.918651 556.654114 
L 993.94448 526.083235 
L 994.97031 528.032548 
L 995.996139 545.209288 
L 997.021969 534.32025 
L 998.047799 530.315328 
L 999.073628 536.240895 
L 1000.099458 538.103292 
L 1001.125287 554.246659 
L 1002.151117 558.379562 
L 1003.176946 529.01171 
L 1004.202776 539.754052 
L 1005.228606 563.851872 
L 1006.254435 542.620874 
L 1007.280265 547.042929 
L 1008.306094 546.633216 
L 1009.331924 535.975387 
L 1010.357753 540.725326 
L 1011.383583 551.921744 
L 1012.409413 541.057366 
L 1013.435242 537.384524 
L 1014.461072 542.959847 
L 1015.486901 531.351597 
L 1016.512731 540.407357 
L 1017.538561 551.355313 
L 1018.56439 551.03834 
L 1019.59022 528.938111 
L 1020.616049 531.811072 
L 1021.641879 548.853597 
L 1022.667708 532.358295 
L 1023.693538 550.355001 
L 1024.719368 547.313357 
L 1025.745197 526.022406 
L 1026.771027 586.622465 
L 1027.796856 551.415727 
L 1028.822686 548.785974 
L 1029.848515 559.647507 
L 1030.874345 550.419326 
L 1031.900175 560.116696 
L 1032.926004 545.989575 
L 1033.951834 549.872654 
L 1034.977663 558.728665 
L 1036.003493 560.154044 
L 1037.029323 560.740745 
L 1038.055152 535.717668 
L 1039.080982 534.427737 
L 1040.106811 528.090674 
L 1041.132641 516.53446 
L 1042.15847 544.727129 
L 1043.1843 535.295289 
L 1044.21013 548.39022 
L 1045.235959 530.299129 
L 1046.261789 540.950271 
L 1047.287618 540.957858 
L 1048.313448 545.464255 
L 1049.339278 538.108468 
L 1050.365107 543.227587 
L 1051.390937 540.869491 
L 1052.416766 555.894639 
L 1053.442596 537.523062 
L 1054.468425 540.827938 
L 1055.494255 551.222382 
L 1056.520085 540.557819 
L 1057.545914 615.6 
L 1058.571744 564.681183 
L 1059.597573 538.63748 
L 1060.623403 556.11761 
L 1061.649232 519.722815 
L 1062.675062 544.010793 
L 1063.700892 535.158332 
L 1064.726721 536.659676 
L 1065.752551 575.798213 
L 1067.80421 531.391982 
L 1068.83004 561.419798 
L 1069.855869 562.074002 
L 1070.881699 545.093764 
L 1071.907528 555.161184 
L 1072.933358 548.413805 
L 1073.959187 584.13675 
L 1076.010847 555.726553 
L 1077.036676 565.771129 
L 1078.062506 535.252078 
L 1079.088335 535.255766 
L 1080.114165 536.126101 
L 1081.139994 536.337069 
L 1082.165824 545.855393 
L 1083.191654 533.226641 
L 1084.217483 530.46502 
L 1085.243313 534.884943 
L 1086.269142 535.048437 
L 1087.294972 566.382816 
L 1088.320802 537.185689 
L 1089.346631 544.693981 
L 1090.372461 540.866354 
L 1091.39829 535.167592 
L 1092.42412 539.472599 
L 1093.449949 540.655205 
L 1094.475779 525.744394 
L 1095.501609 545.877461 
L 1096.527438 531.941152 
L 1097.553268 502.929202 
L 1098.579097 522.344598 
L 1099.604927 536.12381 
L 1100.630757 553.625963 
L 1101.656586 564.722896 
L 1102.682416 584.969609 
L 1103.708245 532.940389 
L 1104.734075 574.959897 
L 1105.759904 558.868908 
L 1106.785734 545.427935 
L 1109.863223 536.182071 
L 1110.889052 540.285999 
L 1111.914882 538.444797 
L 1112.940711 545.843402 
L 1113.966541 548.61329 
L 1114.992371 549.257019 
L 1116.0182 566.59587 
L 1117.04403 546.704398 
L 1118.069859 556.567784 
L 1119.095689 546.521158 
L 1120.121519 555.962251 
L 1121.147348 567.346714 
L 1122.173178 574.735538 
L 1123.199007 573.21181 
L 1124.224837 539.650338 
L 1125.250666 541.235501 
L 1126.276496 578.59403 
L 1127.302326 593.898969 
L 1128.328155 574.057449 
L 1129.353985 576.166605 
L 1130.379814 571.517551 
L 1131.405644 569.391239 
L 1132.431473 566.60633 
L 1133.457303 569.577114 
L 1134.483133 554.338248 
L 1135.508962 590.516538 
L 1136.534792 559.032576 
L 1137.560621 566.297332 
L 1138.586451 565.583053 
L 1139.612281 557.214338 
L 1140.63811 567.120881 
L 1141.66394 567.864038 
L 1142.689769 576.010424 
L 1143.715599 567.887158 
L 1144.741428 549.210655 
L 1145.767258 558.01363 
L 1146.793088 547.872764 
L 1147.818917 552.875331 
L 1148.844747 547.808566 
L 1149.870576 543.923031 
L 1150.896406 548.063151 
L 1151.922235 537.772204 
L 1152.948065 551.070944 
L 1153.973895 548.376143 
L 1154.999724 553.196821 
L 1156.025554 545.007535 
L 1157.051383 551.488033 
L 1158.077213 552.157083 
L 1159.103043 545.908694 
L 1160.128872 549.175416 
L 1161.154702 569.441276 
L 1162.180531 586.028938 
L 1163.206361 566.812569 
L 1164.23219 543.796883 
L 1165.25802 557.356361 
L 1166.28385 559.462659 
L 1167.309679 545.778336 
L 1168.335509 555.761258 
L 1169.361338 563.255873 
L 1170.387168 602.889376 
L 1171.412998 573.840595 
L 1172.438827 576.40742 
L 1173.464657 564.069021 
L 1174.490486 568.260032 
L 1175.516316 570.458647 
L 1176.542145 546.197171 
L 1177.567975 562.314114 
L 1178.593805 536.023604 
L 1179.619634 556.786682 
L 1180.645464 516.393403 
L 1181.671293 559.772695 
L 1182.697123 557.637893 
L 1183.722952 554.225194 
L 1184.748782 578.358265 
L 1185.774612 538.085706 
L 1186.800441 544.201235 
L 1187.826271 549.196724 
L 1188.8521 479.9843 
L 1189.87793 551.312009 
L 1190.90376 547.706044 
L 1191.929589 557.240496 
L 1192.955419 560.632613 
L 1193.981248 605.708227 
L 1195.007078 558.879882 
L 1196.032907 545.396833 
L 1197.058737 547.965575 
L 1198.084567 553.947802 
L 1199.110396 556.67376 
L 1200.136226 562.015384 
L 1201.162055 553.935818 
L 1202.187885 553.76536 
L 1204.239544 570.126781 
L 1205.265374 541.203847 
L 1206.291203 551.753821 
L 1207.317033 569.679373 
L 1208.342862 572.217579 
L 1209.368692 579.257388 
L 1210.394522 551.073235 
L 1211.420351 570.549026 
L 1212.446181 573.908374 
L 1213.47201 559.055255 
L 1214.49784 554.431178 
L 1215.523669 558.45361 
L 1216.549499 560.415478 
L 1217.575329 549.49598 
L 1218.601158 562.082707 
L 1219.626988 555.908536 
L 1220.652817 578.137247 
L 1221.678647 570.339796 
L 1222.704477 570.160433 
L 1223.730306 574.797665 
L 1224.756136 592.818338 
L 1225.781965 591.190859 
L 1226.807795 565.076129 
L 1227.833624 589.939029 
L 1228.859454 564.879773 
L 1229.885284 558.467217 
L 1230.911113 567.693375 
L 1231.936943 587.233599 
L 1233.988602 530.590827 
L 1235.014431 541.496752 
L 1236.040261 509.310419 
L 1237.066091 550.763673 
L 1238.09192 543.239323 
L 1239.11775 558.150885 
L 1240.143579 560.362502 
L 1241.169409 573.553111 
L 1242.195239 570.900786 
L 1243.221068 563.430334 
L 1244.246898 572.71033 
L 1245.272727 567.805523 
L 1245.272727 567.805523 
" style="fill:none;stroke:#ff7f0e;stroke-linecap:square;stroke-width:1.5;"/>
   </g>
   <g id="patch_3">
    <path d="M 180 640.8 
L 180 86.4 
" style="fill:none;stroke:#000000;stroke-linecap:square;stroke-linejoin:miter;stroke-width:0.8;"/>
   </g>
   <g id="patch_4">
    <path d="M 1296 640.8 
L 1296 86.4 
" style="fill:none;stroke:#000000;stroke-linecap:square;stroke-linejoin:miter;stroke-width:0.8;"/>
   </g>
   <g id="patch_5">
    <path d="M 180 640.8 
L 1296 640.8 
" style="fill:none;stroke:#000000;stroke-linecap:square;stroke-linejoin:miter;stroke-width:0.8;"/>
   </g>
   <g id="patch_6">
    <path d="M 180 86.4 
L 1296 86.4 
" style="fill:none;stroke:#000000;stroke-linecap:square;stroke-linejoin:miter;stroke-width:0.8;"/>
   </g>
   <g id="text_19">
    <!-- RSI Speedup -->
    <defs>
     <path d="M 44.390625 34.1875 
Q 47.5625 33.109375 50.5625 29.59375 
Q 53.5625 26.078125 56.59375 19.921875 
L 66.609375 0 
L 56 0 
L 46.6875 18.703125 
Q 43.0625 26.03125 39.671875 28.421875 
Q 36.28125 30.8125 30.421875 30.8125 
L 19.671875 30.8125 
L 19.671875 0 
L 9.8125 0 
L 9.8125 72.90625 
L 32.078125 72.90625 
Q 44.578125 72.90625 50.734375 67.671875 
Q 56.890625 62.453125 56.890625 51.90625 
Q 56.890625 45.015625 53.6875 40.46875 
Q 50.484375 35.9375 44.390625 34.1875 
z
M 19.671875 64.796875 
L 19.671875 38.921875 
L 32.078125 38.921875 
Q 39.203125 38.921875 42.84375 42.21875 
Q 46.484375 45.515625 46.484375 51.90625 
Q 46.484375 58.296875 42.84375 61.546875 
Q 39.203125 64.796875 32.078125 64.796875 
z
" id="DejaVuSans-82"/>
     <path d="M 53.515625 70.515625 
L 53.515625 60.890625 
Q 47.90625 63.578125 42.921875 64.890625 
Q 37.9375 66.21875 33.296875 66.21875 
Q 25.25 66.21875 20.875 63.09375 
Q 16.5 59.96875 16.5 54.203125 
Q 16.5 49.359375 19.40625 46.890625 
Q 22.3125 44.4375 30.421875 42.921875 
L 36.375 41.703125 
Q 47.40625 39.59375 52.65625 34.296875 
Q 57.90625 29 57.90625 20.125 
Q 57.90625 9.515625 50.796875 4.046875 
Q 43.703125 -1.421875 29.984375 -1.421875 
Q 24.8125 -1.421875 18.96875 -0.25 
Q 13.140625 0.921875 6.890625 3.21875 
L 6.890625 13.375 
Q 12.890625 10.015625 18.65625 8.296875 
Q 24.421875 6.59375 29.984375 6.59375 
Q 38.421875 6.59375 43.015625 9.90625 
Q 47.609375 13.234375 47.609375 19.390625 
Q 47.609375 24.75 44.3125 27.78125 
Q 41.015625 30.8125 33.5 32.328125 
L 27.484375 33.5 
Q 16.453125 35.6875 11.515625 40.375 
Q 6.59375 45.0625 6.59375 53.421875 
Q 6.59375 63.09375 13.40625 68.65625 
Q 20.21875 74.21875 32.171875 74.21875 
Q 37.3125 74.21875 42.625 73.28125 
Q 47.953125 72.359375 53.515625 70.515625 
z
" id="DejaVuSans-83"/>
     <path d="M 9.8125 72.90625 
L 19.671875 72.90625 
L 19.671875 0 
L 9.8125 0 
z
" id="DejaVuSans-73"/>
     <path id="DejaVuSans-32"/>
    </defs>
    <g transform="translate(699.9225 80.4)scale(0.12 -0.12)">
     <use xlink:href="#DejaVuSans-82"/>
     <use x="69.482422" xlink:href="#DejaVuSans-83"/>
     <use x="132.958984" xlink:href="#DejaVuSans-73"/>
     <use x="162.451172" xlink:href="#DejaVuSans-32"/>
     <use x="194.238281" xlink:href="#DejaVuSans-83"/>
     <use x="257.714844" xlink:href="#DejaVuSans-112"/>
     <use x="321.191406" xlink:href="#DejaVuSans-101"/>
     <use x="382.714844" xlink:href="#DejaVuSans-101"/>
     <use x="444.238281" xlink:href="#DejaVuSans-100"/>
     <use x="507.714844" xlink:href="#DejaVuSans-117"/>
     <use x="571.09375" xlink:href="#DejaVuSans-112"/>
    </g>
   </g>
   <g id="legend_1">
    <g id="patch_7">
     <path d="M 1185.373437 123.75625 
L 1289 123.75625 
Q 1291 123.75625 1291 121.75625 
L 1291 93.4 
Q 1291 91.4 1289 91.4 
L 1185.373437 91.4 
Q 1183.373437 91.4 1183.373437 93.4 
L 1183.373437 121.75625 
Q 1183.373437 123.75625 1185.373437 123.75625 
z
" style="fill:#ffffff;opacity:0.8;stroke:#cccccc;stroke-linejoin:miter;"/>
    </g>
    <g id="line2d_19">
     <path d="M 1187.373437 99.498437 
L 1207.373437 99.498437 
" style="fill:none;stroke:#1f77b4;stroke-linecap:square;stroke-width:1.5;"/>
    </g>
    <g id="line2d_20"/>
    <g id="text_20">
     <!-- numpy.float32 -->
     <defs>
      <path d="M 52 44.1875 
Q 55.375 50.25 60.0625 53.125 
Q 64.75 56 71.09375 56 
Q 79.640625 56 84.28125 50.015625 
Q 88.921875 44.046875 88.921875 33.015625 
L 88.921875 0 
L 79.890625 0 
L 79.890625 32.71875 
Q 79.890625 40.578125 77.09375 44.375 
Q 74.3125 48.1875 68.609375 48.1875 
Q 61.625 48.1875 57.5625 43.546875 
Q 53.515625 38.921875 53.515625 30.90625 
L 53.515625 0 
L 44.484375 0 
L 44.484375 32.71875 
Q 44.484375 40.625 41.703125 44.40625 
Q 38.921875 48.1875 33.109375 48.1875 
Q 26.21875 48.1875 22.15625 43.53125 
Q 18.109375 38.875 18.109375 30.90625 
L 18.109375 0 
L 9.078125 0 
L 9.078125 54.6875 
L 18.109375 54.6875 
L 18.109375 46.1875 
Q 21.1875 51.21875 25.484375 53.609375 
Q 29.78125 56 35.6875 56 
Q 41.65625 56 45.828125 52.96875 
Q 50 49.953125 52 44.1875 
z
" id="DejaVuSans-109"/>
      <path d="M 32.171875 -5.078125 
Q 28.375 -14.84375 24.75 -17.8125 
Q 21.140625 -20.796875 15.09375 -20.796875 
L 7.90625 -20.796875 
L 7.90625 -13.28125 
L 13.1875 -13.28125 
Q 16.890625 -13.28125 18.9375 -11.515625 
Q 21 -9.765625 23.484375 -3.21875 
L 25.09375 0.875 
L 2.984375 54.6875 
L 12.5 54.6875 
L 29.59375 11.921875 
L 46.6875 54.6875 
L 56.203125 54.6875 
z
" id="DejaVuSans-121"/>
      <path d="M 37.109375 75.984375 
L 37.109375 68.5 
L 28.515625 68.5 
Q 23.6875 68.5 21.796875 66.546875 
Q 19.921875 64.59375 19.921875 59.515625 
L 19.921875 54.6875 
L 34.71875 54.6875 
L 34.71875 47.703125 
L 19.921875 47.703125 
L 19.921875 0 
L 10.890625 0 
L 10.890625 47.703125 
L 2.296875 47.703125 
L 2.296875 54.6875 
L 10.890625 54.6875 
L 10.890625 58.5 
Q 10.890625 67.625 15.140625 71.796875 
Q 19.390625 75.984375 28.609375 75.984375 
z
" id="DejaVuSans-102"/>
      <path d="M 9.421875 75.984375 
L 18.40625 75.984375 
L 18.40625 0 
L 9.421875 0 
z
" id="DejaVuSans-108"/>
      <path d="M 30.609375 48.390625 
Q 23.390625 48.390625 19.1875 42.75 
Q 14.984375 37.109375 14.984375 27.296875 
Q 14.984375 17.484375 19.15625 11.84375 
Q 23.34375 6.203125 30.609375 6.203125 
Q 37.796875 6.203125 41.984375 11.859375 
Q 46.1875 17.53125 46.1875 27.296875 
Q 46.1875 37.015625 41.984375 42.703125 
Q 37.796875 48.390625 30.609375 48.390625 
z
M 30.609375 56 
Q 42.328125 56 49.015625 48.375 
Q 55.71875 40.765625 55.71875 27.296875 
Q 55.71875 13.875 49.015625 6.21875 
Q 42.328125 -1.421875 30.609375 -1.421875 
Q 18.84375 -1.421875 12.171875 6.21875 
Q 5.515625 13.875 5.515625 27.296875 
Q 5.515625 40.765625 12.171875 48.375 
Q 18.84375 56 30.609375 56 
z
" id="DejaVuSans-111"/>
      <path d="M 34.28125 27.484375 
Q 23.390625 27.484375 19.1875 25 
Q 14.984375 22.515625 14.984375 16.5 
Q 14.984375 11.71875 18.140625 8.90625 
Q 21.296875 6.109375 26.703125 6.109375 
Q 34.1875 6.109375 38.703125 11.40625 
Q 43.21875 16.703125 43.21875 25.484375 
L 43.21875 27.484375 
z
M 52.203125 31.203125 
L 52.203125 0 
L 43.21875 0 
L 43.21875 8.296875 
Q 40.140625 3.328125 35.546875 0.953125 
Q 30.953125 -1.421875 24.3125 -1.421875 
Q 15.921875 -1.421875 10.953125 3.296875 
Q 6 8.015625 6 15.921875 
Q 6 25.140625 12.171875 29.828125 
Q 18.359375 34.515625 30.609375 34.515625 
L 43.21875 34.515625 
L 43.21875 35.40625 
Q 43.21875 41.609375 39.140625 45 
Q 35.0625 48.390625 27.6875 48.390625 
Q 23 48.390625 18.546875 47.265625 
Q 14.109375 46.140625 10.015625 43.890625 
L 10.015625 52.203125 
Q 14.9375 54.109375 19.578125 55.046875 
Q 24.21875 56 28.609375 56 
Q 40.484375 56 46.34375 49.84375 
Q 52.203125 43.703125 52.203125 31.203125 
z
" id="DejaVuSans-97"/>
      <path d="M 18.3125 70.21875 
L 18.3125 54.6875 
L 36.8125 54.6875 
L 36.8125 47.703125 
L 18.3125 47.703125 
L 18.3125 18.015625 
Q 18.3125 11.328125 20.140625 9.421875 
Q 21.96875 7.515625 27.59375 7.515625 
L 36.8125 7.515625 
L 36.8125 0 
L 27.59375 0 
Q 17.1875 0 13.234375 3.875 
Q 9.28125 7.765625 9.28125 18.015625 
L 9.28125 47.703125 
L 2.6875 47.703125 
L 2.6875 54.6875 
L 9.28125 54.6875 
L 9.28125 70.21875 
z
" id="DejaVuSans-116"/>
     </defs>
     <g transform="translate(1215.373437 102.998437)scale(0.1 -0.1)">
      <use xlink:href="#DejaVuSans-110"/>
      <use x="63.378906" xlink:href="#DejaVuSans-117"/>
      <use x="126.757812" xlink:href="#DejaVuSans-109"/>
      <use x="224.169922" xlink:href="#DejaVuSans-112"/>
      <use x="287.646484" xlink:href="#DejaVuSans-121"/>
      <use x="332.576172" xlink:href="#DejaVuSans-46"/>
      <use x="364.363281" xlink:href="#DejaVuSans-102"/>
      <use x="399.568359" xlink:href="#DejaVuSans-108"/>
      <use x="427.351562" xlink:href="#DejaVuSans-111"/>
      <use x="488.533203" xlink:href="#DejaVuSans-97"/>
      <use x="549.8125" xlink:href="#DejaVuSans-116"/>
      <use x="589.021484" xlink:href="#DejaVuSans-51"/>
      <use x="652.644531" xlink:href="#DejaVuSans-50"/>
     </g>
    </g>
    <g id="line2d_21">
     <path d="M 1187.373437 114.176562 
L 1207.373437 114.176562 
" style="fill:none;stroke:#ff7f0e;stroke-linecap:square;stroke-width:1.5;"/>
    </g>
    <g id="line2d_22"/>
    <g id="text_21">
     <!-- numpy.float64 -->
     <g transform="translate(1215.373437 117.676562)scale(0.1 -0.1)">
      <use xlink:href="#DejaVuSans-110"/>
      <use x="63.378906" xlink:href="#DejaVuSans-117"/>
      <use x="126.757812" xlink:href="#DejaVuSans-109"/>
      <use x="224.169922" xlink:href="#DejaVuSans-112"/>
      <use x="287.646484" xlink:href="#DejaVuSans-121"/>
      <use x="332.576172" xlink:href="#DejaVuSans-46"/>
      <use x="364.363281" xlink:href="#DejaVuSans-102"/>
      <use x="399.568359" xlink:href="#DejaVuSans-108"/>
      <use x="427.351562" xlink:href="#DejaVuSans-111"/>
      <use x="488.533203" xlink:href="#DejaVuSans-97"/>
      <use x="549.8125" xlink:href="#DejaVuSans-116"/>
      <use x="589.021484" xlink:href="#DejaVuSans-54"/>
      <use x="652.644531" xlink:href="#DejaVuSans-52"/>
     </g>
    </g>
   </g>
  </g>
 </g>
 <defs>
  <clipPath id="pfae107ed1a">
   <rect height="554.4" width="1116" x="180" y="86.4"/>
  </clipPath>
 </defs>
</svg>
