<?xml version="1.0" encoding="utf-8" standalone="no"?>
<!DOCTYPE svg PUBLIC "-//W3C//DTD SVG 1.1//EN"
  "http://www.w3.org/Graphics/SVG/1.1/DTD/svg11.dtd">
<!-- Created with matplotlib (https://matplotlib.org/) -->
<svg height="720pt" version="1.1" viewBox="0 0 1440 720" width="1440pt" xmlns="http://www.w3.org/2000/svg" xmlns:xlink="http://www.w3.org/1999/xlink">
 <defs>
  <style type="text/css">
*{stroke-linecap:butt;stroke-linejoin:round;}
  </style>
 </defs>
 <g id="figure_1">
  <g id="patch_1">
   <path d="M 0 720 
L 1440 720 
L 1440 0 
L 0 0 
z
" style="fill:#ffffff;"/>
  </g>
  <g id="axes_1">
   <g id="patch_2">
    <path d="M 180 640.8 
L 1296 640.8 
L 1296 86.4 
L 180 86.4 
z
" style="fill:#ffffff;"/>
   </g>
   <g id="matplotlib.axis_1">
    <g id="xtick_1">
     <g id="line2d_1">
      <defs>
       <path d="M 0 0 
L 0 3.5 
" id="m9596c51cac" style="stroke:#000000;stroke-width:0.8;"/>
      </defs>
      <g>
       <use style="stroke:#000000;stroke-width:0.8;" x="333.310231" xlink:href="#m9596c51cac" y="640.8"/>
      </g>
     </g>
     <g id="text_1">
      <!-- 100.0 -->
      <defs>
       <path d="M 12.40625 8.296875 
L 28.515625 8.296875 
L 28.515625 63.921875 
L 10.984375 60.40625 
L 10.984375 69.390625 
L 28.421875 72.90625 
L 38.28125 72.90625 
L 38.28125 8.296875 
L 54.390625 8.296875 
L 54.390625 0 
L 12.40625 0 
z
" id="DejaVuSans-49"/>
       <path d="M 31.78125 66.40625 
Q 24.171875 66.40625 20.328125 58.90625 
Q 16.5 51.421875 16.5 36.375 
Q 16.5 21.390625 20.328125 13.890625 
Q 24.171875 6.390625 31.78125 6.390625 
Q 39.453125 6.390625 43.28125 13.890625 
Q 47.125 21.390625 47.125 36.375 
Q 47.125 51.421875 43.28125 58.90625 
Q 39.453125 66.40625 31.78125 66.40625 
z
M 31.78125 74.21875 
Q 44.046875 74.21875 50.515625 64.515625 
Q 56.984375 54.828125 56.984375 36.375 
Q 56.984375 17.96875 50.515625 8.265625 
Q 44.046875 -1.421875 31.78125 -1.421875 
Q 19.53125 -1.421875 13.0625 8.265625 
Q 6.59375 17.96875 6.59375 36.375 
Q 6.59375 54.828125 13.0625 64.515625 
Q 19.53125 74.21875 31.78125 74.21875 
z
" id="DejaVuSans-48"/>
       <path d="M 10.6875 12.40625 
L 21 12.40625 
L 21 0 
L 10.6875 0 
z
" id="DejaVuSans-46"/>
      </defs>
      <g transform="translate(318.996168 655.398438)scale(0.1 -0.1)">
       <use xlink:href="#DejaVuSans-49"/>
       <use x="63.623047" xlink:href="#DejaVuSans-48"/>
       <use x="127.246094" xlink:href="#DejaVuSans-48"/>
       <use x="190.869141" xlink:href="#DejaVuSans-46"/>
       <use x="222.65625" xlink:href="#DejaVuSans-48"/>
      </g>
     </g>
    </g>
    <g id="xtick_2">
     <g id="line2d_2">
      <g>
       <use style="stroke:#000000;stroke-width:0.8;" x="435.893189" xlink:href="#m9596c51cac" y="640.8"/>
      </g>
     </g>
     <g id="text_2">
      <!-- 200.0 -->
      <defs>
       <path d="M 19.1875 8.296875 
L 53.609375 8.296875 
L 53.609375 0 
L 7.328125 0 
L 7.328125 8.296875 
Q 12.9375 14.109375 22.625 23.890625 
Q 32.328125 33.6875 34.8125 36.53125 
Q 39.546875 41.84375 41.421875 45.53125 
Q 43.3125 49.21875 43.3125 52.78125 
Q 43.3125 58.59375 39.234375 62.25 
Q 35.15625 65.921875 28.609375 65.921875 
Q 23.96875 65.921875 18.8125 64.3125 
Q 13.671875 62.703125 7.8125 59.421875 
L 7.8125 69.390625 
Q 13.765625 71.78125 18.9375 73 
Q 24.125 74.21875 28.421875 74.21875 
Q 39.75 74.21875 46.484375 68.546875 
Q 53.21875 62.890625 53.21875 53.421875 
Q 53.21875 48.921875 51.53125 44.890625 
Q 49.859375 40.875 45.40625 35.40625 
Q 44.1875 33.984375 37.640625 27.21875 
Q 31.109375 20.453125 19.1875 8.296875 
z
" id="DejaVuSans-50"/>
      </defs>
      <g transform="translate(421.579126 655.398438)scale(0.1 -0.1)">
       <use xlink:href="#DejaVuSans-50"/>
       <use x="63.623047" xlink:href="#DejaVuSans-48"/>
       <use x="127.246094" xlink:href="#DejaVuSans-48"/>
       <use x="190.869141" xlink:href="#DejaVuSans-46"/>
       <use x="222.65625" xlink:href="#DejaVuSans-48"/>
      </g>
     </g>
    </g>
    <g id="xtick_3">
     <g id="line2d_3">
      <g>
       <use style="stroke:#000000;stroke-width:0.8;" x="538.476147" xlink:href="#m9596c51cac" y="640.8"/>
      </g>
     </g>
     <g id="text_3">
      <!-- 300.0 -->
      <defs>
       <path d="M 40.578125 39.3125 
Q 47.65625 37.796875 51.625 33 
Q 55.609375 28.21875 55.609375 21.1875 
Q 55.609375 10.40625 48.1875 4.484375 
Q 40.765625 -1.421875 27.09375 -1.421875 
Q 22.515625 -1.421875 17.65625 -0.515625 
Q 12.796875 0.390625 7.625 2.203125 
L 7.625 11.71875 
Q 11.71875 9.328125 16.59375 8.109375 
Q 21.484375 6.890625 26.8125 6.890625 
Q 36.078125 6.890625 40.9375 10.546875 
Q 45.796875 14.203125 45.796875 21.1875 
Q 45.796875 27.640625 41.28125 31.265625 
Q 36.765625 34.90625 28.71875 34.90625 
L 20.21875 34.90625 
L 20.21875 43.015625 
L 29.109375 43.015625 
Q 36.375 43.015625 40.234375 45.921875 
Q 44.09375 48.828125 44.09375 54.296875 
Q 44.09375 59.90625 40.109375 62.90625 
Q 36.140625 65.921875 28.71875 65.921875 
Q 24.65625 65.921875 20.015625 65.03125 
Q 15.375 64.15625 9.8125 62.3125 
L 9.8125 71.09375 
Q 15.4375 72.65625 20.34375 73.4375 
Q 25.25 74.21875 29.59375 74.21875 
Q 40.828125 74.21875 47.359375 69.109375 
Q 53.90625 64.015625 53.90625 55.328125 
Q 53.90625 49.265625 50.4375 45.09375 
Q 46.96875 40.921875 40.578125 39.3125 
z
" id="DejaVuSans-51"/>
      </defs>
      <g transform="translate(524.162084 655.398438)scale(0.1 -0.1)">
       <use xlink:href="#DejaVuSans-51"/>
       <use x="63.623047" xlink:href="#DejaVuSans-48"/>
       <use x="127.246094" xlink:href="#DejaVuSans-48"/>
       <use x="190.869141" xlink:href="#DejaVuSans-46"/>
       <use x="222.65625" xlink:href="#DejaVuSans-48"/>
      </g>
     </g>
    </g>
    <g id="xtick_4">
     <g id="line2d_4">
      <g>
       <use style="stroke:#000000;stroke-width:0.8;" x="641.059105" xlink:href="#m9596c51cac" y="640.8"/>
      </g>
     </g>
     <g id="text_4">
      <!-- 400.0 -->
      <defs>
       <path d="M 37.796875 64.3125 
L 12.890625 25.390625 
L 37.796875 25.390625 
z
M 35.203125 72.90625 
L 47.609375 72.90625 
L 47.609375 25.390625 
L 58.015625 25.390625 
L 58.015625 17.1875 
L 47.609375 17.1875 
L 47.609375 0 
L 37.796875 0 
L 37.796875 17.1875 
L 4.890625 17.1875 
L 4.890625 26.703125 
z
" id="DejaVuSans-52"/>
      </defs>
      <g transform="translate(626.745042 655.398438)scale(0.1 -0.1)">
       <use xlink:href="#DejaVuSans-52"/>
       <use x="63.623047" xlink:href="#DejaVuSans-48"/>
       <use x="127.246094" xlink:href="#DejaVuSans-48"/>
       <use x="190.869141" xlink:href="#DejaVuSans-46"/>
       <use x="222.65625" xlink:href="#DejaVuSans-48"/>
      </g>
     </g>
    </g>
    <g id="xtick_5">
     <g id="line2d_5">
      <g>
       <use style="stroke:#000000;stroke-width:0.8;" x="743.642063" xlink:href="#m9596c51cac" y="640.8"/>
      </g>
     </g>
     <g id="text_5">
      <!-- 500.0 -->
      <defs>
       <path d="M 10.796875 72.90625 
L 49.515625 72.90625 
L 49.515625 64.59375 
L 19.828125 64.59375 
L 19.828125 46.734375 
Q 21.96875 47.46875 24.109375 47.828125 
Q 26.265625 48.1875 28.421875 48.1875 
Q 40.625 48.1875 47.75 41.5 
Q 54.890625 34.8125 54.890625 23.390625 
Q 54.890625 11.625 47.5625 5.09375 
Q 40.234375 -1.421875 26.90625 -1.421875 
Q 22.3125 -1.421875 17.546875 -0.640625 
Q 12.796875 0.140625 7.71875 1.703125 
L 7.71875 11.625 
Q 12.109375 9.234375 16.796875 8.0625 
Q 21.484375 6.890625 26.703125 6.890625 
Q 35.15625 6.890625 40.078125 11.328125 
Q 45.015625 15.765625 45.015625 23.390625 
Q 45.015625 31 40.078125 35.4375 
Q 35.15625 39.890625 26.703125 39.890625 
Q 22.75 39.890625 18.8125 39.015625 
Q 14.890625 38.140625 10.796875 36.28125 
z
" id="DejaVuSans-53"/>
      </defs>
      <g transform="translate(729.328 655.398438)scale(0.1 -0.1)">
       <use xlink:href="#DejaVuSans-53"/>
       <use x="63.623047" xlink:href="#DejaVuSans-48"/>
       <use x="127.246094" xlink:href="#DejaVuSans-48"/>
       <use x="190.869141" xlink:href="#DejaVuSans-46"/>
       <use x="222.65625" xlink:href="#DejaVuSans-48"/>
      </g>
     </g>
    </g>
    <g id="xtick_6">
     <g id="line2d_6">
      <g>
       <use style="stroke:#000000;stroke-width:0.8;" x="846.225021" xlink:href="#m9596c51cac" y="640.8"/>
      </g>
     </g>
     <g id="text_6">
      <!-- 600.0 -->
      <defs>
       <path d="M 33.015625 40.375 
Q 26.375 40.375 22.484375 35.828125 
Q 18.609375 31.296875 18.609375 23.390625 
Q 18.609375 15.53125 22.484375 10.953125 
Q 26.375 6.390625 33.015625 6.390625 
Q 39.65625 6.390625 43.53125 10.953125 
Q 47.40625 15.53125 47.40625 23.390625 
Q 47.40625 31.296875 43.53125 35.828125 
Q 39.65625 40.375 33.015625 40.375 
z
M 52.59375 71.296875 
L 52.59375 62.3125 
Q 48.875 64.0625 45.09375 64.984375 
Q 41.3125 65.921875 37.59375 65.921875 
Q 27.828125 65.921875 22.671875 59.328125 
Q 17.53125 52.734375 16.796875 39.40625 
Q 19.671875 43.65625 24.015625 45.921875 
Q 28.375 48.1875 33.59375 48.1875 
Q 44.578125 48.1875 50.953125 41.515625 
Q 57.328125 34.859375 57.328125 23.390625 
Q 57.328125 12.15625 50.6875 5.359375 
Q 44.046875 -1.421875 33.015625 -1.421875 
Q 20.359375 -1.421875 13.671875 8.265625 
Q 6.984375 17.96875 6.984375 36.375 
Q 6.984375 53.65625 15.1875 63.9375 
Q 23.390625 74.21875 37.203125 74.21875 
Q 40.921875 74.21875 44.703125 73.484375 
Q 48.484375 72.75 52.59375 71.296875 
z
" id="DejaVuSans-54"/>
      </defs>
      <g transform="translate(831.910958 655.398438)scale(0.1 -0.1)">
       <use xlink:href="#DejaVuSans-54"/>
       <use x="63.623047" xlink:href="#DejaVuSans-48"/>
       <use x="127.246094" xlink:href="#DejaVuSans-48"/>
       <use x="190.869141" xlink:href="#DejaVuSans-46"/>
       <use x="222.65625" xlink:href="#DejaVuSans-48"/>
      </g>
     </g>
    </g>
    <g id="xtick_7">
     <g id="line2d_7">
      <g>
       <use style="stroke:#000000;stroke-width:0.8;" x="948.807979" xlink:href="#m9596c51cac" y="640.8"/>
      </g>
     </g>
     <g id="text_7">
      <!-- 700.0 -->
      <defs>
       <path d="M 8.203125 72.90625 
L 55.078125 72.90625 
L 55.078125 68.703125 
L 28.609375 0 
L 18.3125 0 
L 43.21875 64.59375 
L 8.203125 64.59375 
z
" id="DejaVuSans-55"/>
      </defs>
      <g transform="translate(934.493916 655.398438)scale(0.1 -0.1)">
       <use xlink:href="#DejaVuSans-55"/>
       <use x="63.623047" xlink:href="#DejaVuSans-48"/>
       <use x="127.246094" xlink:href="#DejaVuSans-48"/>
       <use x="190.869141" xlink:href="#DejaVuSans-46"/>
       <use x="222.65625" xlink:href="#DejaVuSans-48"/>
      </g>
     </g>
    </g>
    <g id="xtick_8">
     <g id="line2d_8">
      <g>
       <use style="stroke:#000000;stroke-width:0.8;" x="1051.390937" xlink:href="#m9596c51cac" y="640.8"/>
      </g>
     </g>
     <g id="text_8">
      <!-- 800.0 -->
      <defs>
       <path d="M 31.78125 34.625 
Q 24.75 34.625 20.71875 30.859375 
Q 16.703125 27.09375 16.703125 20.515625 
Q 16.703125 13.921875 20.71875 10.15625 
Q 24.75 6.390625 31.78125 6.390625 
Q 38.8125 6.390625 42.859375 10.171875 
Q 46.921875 13.96875 46.921875 20.515625 
Q 46.921875 27.09375 42.890625 30.859375 
Q 38.875 34.625 31.78125 34.625 
z
M 21.921875 38.8125 
Q 15.578125 40.375 12.03125 44.71875 
Q 8.5 49.078125 8.5 55.328125 
Q 8.5 64.0625 14.71875 69.140625 
Q 20.953125 74.21875 31.78125 74.21875 
Q 42.671875 74.21875 48.875 69.140625 
Q 55.078125 64.0625 55.078125 55.328125 
Q 55.078125 49.078125 51.53125 44.71875 
Q 48 40.375 41.703125 38.8125 
Q 48.828125 37.15625 52.796875 32.3125 
Q 56.78125 27.484375 56.78125 20.515625 
Q 56.78125 9.90625 50.3125 4.234375 
Q 43.84375 -1.421875 31.78125 -1.421875 
Q 19.734375 -1.421875 13.25 4.234375 
Q 6.78125 9.90625 6.78125 20.515625 
Q 6.78125 27.484375 10.78125 32.3125 
Q 14.796875 37.15625 21.921875 38.8125 
z
M 18.3125 54.390625 
Q 18.3125 48.734375 21.84375 45.5625 
Q 25.390625 42.390625 31.78125 42.390625 
Q 38.140625 42.390625 41.71875 45.5625 
Q 45.3125 48.734375 45.3125 54.390625 
Q 45.3125 60.0625 41.71875 63.234375 
Q 38.140625 66.40625 31.78125 66.40625 
Q 25.390625 66.40625 21.84375 63.234375 
Q 18.3125 60.0625 18.3125 54.390625 
z
" id="DejaVuSans-56"/>
      </defs>
      <g transform="translate(1037.076874 655.398438)scale(0.1 -0.1)">
       <use xlink:href="#DejaVuSans-56"/>
       <use x="63.623047" xlink:href="#DejaVuSans-48"/>
       <use x="127.246094" xlink:href="#DejaVuSans-48"/>
       <use x="190.869141" xlink:href="#DejaVuSans-46"/>
       <use x="222.65625" xlink:href="#DejaVuSans-48"/>
      </g>
     </g>
    </g>
    <g id="xtick_9">
     <g id="line2d_9">
      <g>
       <use style="stroke:#000000;stroke-width:0.8;" x="1153.973895" xlink:href="#m9596c51cac" y="640.8"/>
      </g>
     </g>
     <g id="text_9">
      <!-- 900.0 -->
      <defs>
       <path d="M 10.984375 1.515625 
L 10.984375 10.5 
Q 14.703125 8.734375 18.5 7.8125 
Q 22.3125 6.890625 25.984375 6.890625 
Q 35.75 6.890625 40.890625 13.453125 
Q 46.046875 20.015625 46.78125 33.40625 
Q 43.953125 29.203125 39.59375 26.953125 
Q 35.25 24.703125 29.984375 24.703125 
Q 19.046875 24.703125 12.671875 31.3125 
Q 6.296875 37.9375 6.296875 49.421875 
Q 6.296875 60.640625 12.9375 67.421875 
Q 19.578125 74.21875 30.609375 74.21875 
Q 43.265625 74.21875 49.921875 64.515625 
Q 56.59375 54.828125 56.59375 36.375 
Q 56.59375 19.140625 48.40625 8.859375 
Q 40.234375 -1.421875 26.421875 -1.421875 
Q 22.703125 -1.421875 18.890625 -0.6875 
Q 15.09375 0.046875 10.984375 1.515625 
z
M 30.609375 32.421875 
Q 37.25 32.421875 41.125 36.953125 
Q 45.015625 41.5 45.015625 49.421875 
Q 45.015625 57.28125 41.125 61.84375 
Q 37.25 66.40625 30.609375 66.40625 
Q 23.96875 66.40625 20.09375 61.84375 
Q 16.21875 57.28125 16.21875 49.421875 
Q 16.21875 41.5 20.09375 36.953125 
Q 23.96875 32.421875 30.609375 32.421875 
z
" id="DejaVuSans-57"/>
      </defs>
      <g transform="translate(1139.659832 655.398438)scale(0.1 -0.1)">
       <use xlink:href="#DejaVuSans-57"/>
       <use x="63.623047" xlink:href="#DejaVuSans-48"/>
       <use x="127.246094" xlink:href="#DejaVuSans-48"/>
       <use x="190.869141" xlink:href="#DejaVuSans-46"/>
       <use x="222.65625" xlink:href="#DejaVuSans-48"/>
      </g>
     </g>
    </g>
    <g id="xtick_10">
     <g id="line2d_10">
      <g>
       <use style="stroke:#000000;stroke-width:0.8;" x="1256.556853" xlink:href="#m9596c51cac" y="640.8"/>
      </g>
     </g>
     <g id="text_10">
      <!-- 1000.0 -->
      <g transform="translate(1239.06154 655.398438)scale(0.1 -0.1)">
       <use xlink:href="#DejaVuSans-49"/>
       <use x="63.623047" xlink:href="#DejaVuSans-48"/>
       <use x="127.246094" xlink:href="#DejaVuSans-48"/>
       <use x="190.869141" xlink:href="#DejaVuSans-48"/>
       <use x="254.492188" xlink:href="#DejaVuSans-46"/>
       <use x="286.279297" xlink:href="#DejaVuSans-48"/>
      </g>
     </g>
    </g>
    <g id="text_11">
     <!-- n -->
     <defs>
      <path d="M 54.890625 33.015625 
L 54.890625 0 
L 45.90625 0 
L 45.90625 32.71875 
Q 45.90625 40.484375 42.875 44.328125 
Q 39.84375 48.1875 33.796875 48.1875 
Q 26.515625 48.1875 22.3125 43.546875 
Q 18.109375 38.921875 18.109375 30.90625 
L 18.109375 0 
L 9.078125 0 
L 9.078125 54.6875 
L 18.109375 54.6875 
L 18.109375 46.1875 
Q 21.34375 51.125 25.703125 53.5625 
Q 30.078125 56 35.796875 56 
Q 45.21875 56 50.046875 50.171875 
Q 54.890625 44.34375 54.890625 33.015625 
z
" id="DejaVuSans-110"/>
     </defs>
     <g transform="translate(734.83125 669.076563)scale(0.1 -0.1)">
      <use xlink:href="#DejaVuSans-110"/>
     </g>
    </g>
   </g>
   <g id="matplotlib.axis_2">
    <g id="ytick_1">
     <g id="line2d_11">
      <defs>
       <path d="M 0 0 
L -3.5 0 
" id="md6a3964a4a" style="stroke:#000000;stroke-width:0.8;"/>
      </defs>
      <g>
       <use style="stroke:#000000;stroke-width:0.8;" x="180" xlink:href="#md6a3964a4a" y="591.318409"/>
      </g>
     </g>
     <g id="text_12">
      <!-- 10 -->
      <g transform="translate(160.275 595.117628)scale(0.1 -0.1)">
       <use xlink:href="#DejaVuSans-49"/>
       <use x="63.623047" xlink:href="#DejaVuSans-48"/>
      </g>
     </g>
    </g>
    <g id="ytick_2">
     <g id="line2d_12">
      <g>
       <use style="stroke:#000000;stroke-width:0.8;" x="180" xlink:href="#md6a3964a4a" y="518.492818"/>
      </g>
     </g>
     <g id="text_13">
      <!-- 20 -->
      <g transform="translate(160.275 522.292037)scale(0.1 -0.1)">
       <use xlink:href="#DejaVuSans-50"/>
       <use x="63.623047" xlink:href="#DejaVuSans-48"/>
      </g>
     </g>
    </g>
    <g id="ytick_3">
     <g id="line2d_13">
      <g>
       <use style="stroke:#000000;stroke-width:0.8;" x="180" xlink:href="#md6a3964a4a" y="445.667228"/>
      </g>
     </g>
     <g id="text_14">
      <!-- 30 -->
      <g transform="translate(160.275 449.466447)scale(0.1 -0.1)">
       <use xlink:href="#DejaVuSans-51"/>
       <use x="63.623047" xlink:href="#DejaVuSans-48"/>
      </g>
     </g>
    </g>
    <g id="ytick_4">
     <g id="line2d_14">
      <g>
       <use style="stroke:#000000;stroke-width:0.8;" x="180" xlink:href="#md6a3964a4a" y="372.841637"/>
      </g>
     </g>
     <g id="text_15">
      <!-- 40 -->
      <g transform="translate(160.275 376.640856)scale(0.1 -0.1)">
       <use xlink:href="#DejaVuSans-52"/>
       <use x="63.623047" xlink:href="#DejaVuSans-48"/>
      </g>
     </g>
    </g>
    <g id="ytick_5">
     <g id="line2d_15">
      <g>
       <use style="stroke:#000000;stroke-width:0.8;" x="180" xlink:href="#md6a3964a4a" y="300.016047"/>
      </g>
     </g>
     <g id="text_16">
      <!-- 50 -->
      <g transform="translate(160.275 303.815266)scale(0.1 -0.1)">
       <use xlink:href="#DejaVuSans-53"/>
       <use x="63.623047" xlink:href="#DejaVuSans-48"/>
      </g>
     </g>
    </g>
    <g id="ytick_6">
     <g id="line2d_16">
      <g>
       <use style="stroke:#000000;stroke-width:0.8;" x="180" xlink:href="#md6a3964a4a" y="227.190456"/>
      </g>
     </g>
     <g id="text_17">
      <!-- 60 -->
      <g transform="translate(160.275 230.989675)scale(0.1 -0.1)">
       <use xlink:href="#DejaVuSans-54"/>
       <use x="63.623047" xlink:href="#DejaVuSans-48"/>
      </g>
     </g>
    </g>
    <g id="ytick_7">
     <g id="line2d_17">
      <g>
       <use style="stroke:#000000;stroke-width:0.8;" x="180" xlink:href="#md6a3964a4a" y="154.364866"/>
      </g>
     </g>
     <g id="text_18">
      <!-- 70 -->
      <g transform="translate(160.275 158.164085)scale(0.1 -0.1)">
       <use xlink:href="#DejaVuSans-55"/>
       <use x="63.623047" xlink:href="#DejaVuSans-48"/>
      </g>
     </g>
    </g>
    <g id="text_19">
     <!-- speedup -->
     <defs>
      <path d="M 44.28125 53.078125 
L 44.28125 44.578125 
Q 40.484375 46.53125 36.375 47.5 
Q 32.28125 48.484375 27.875 48.484375 
Q 21.1875 48.484375 17.84375 46.4375 
Q 14.5 44.390625 14.5 40.28125 
Q 14.5 37.15625 16.890625 35.375 
Q 19.28125 33.59375 26.515625 31.984375 
L 29.59375 31.296875 
Q 39.15625 29.25 43.1875 25.515625 
Q 47.21875 21.78125 47.21875 15.09375 
Q 47.21875 7.46875 41.1875 3.015625 
Q 35.15625 -1.421875 24.609375 -1.421875 
Q 20.21875 -1.421875 15.453125 -0.5625 
Q 10.6875 0.296875 5.421875 2 
L 5.421875 11.28125 
Q 10.40625 8.6875 15.234375 7.390625 
Q 20.0625 6.109375 24.8125 6.109375 
Q 31.15625 6.109375 34.5625 8.28125 
Q 37.984375 10.453125 37.984375 14.40625 
Q 37.984375 18.0625 35.515625 20.015625 
Q 33.0625 21.96875 24.703125 23.78125 
L 21.578125 24.515625 
Q 13.234375 26.265625 9.515625 29.90625 
Q 5.8125 33.546875 5.8125 39.890625 
Q 5.8125 47.609375 11.28125 51.796875 
Q 16.75 56 26.8125 56 
Q 31.78125 56 36.171875 55.265625 
Q 40.578125 54.546875 44.28125 53.078125 
z
" id="DejaVuSans-115"/>
      <path d="M 18.109375 8.203125 
L 18.109375 -20.796875 
L 9.078125 -20.796875 
L 9.078125 54.6875 
L 18.109375 54.6875 
L 18.109375 46.390625 
Q 20.953125 51.265625 25.265625 53.625 
Q 29.59375 56 35.59375 56 
Q 45.5625 56 51.78125 48.09375 
Q 58.015625 40.1875 58.015625 27.296875 
Q 58.015625 14.40625 51.78125 6.484375 
Q 45.5625 -1.421875 35.59375 -1.421875 
Q 29.59375 -1.421875 25.265625 0.953125 
Q 20.953125 3.328125 18.109375 8.203125 
z
M 48.6875 27.296875 
Q 48.6875 37.203125 44.609375 42.84375 
Q 40.53125 48.484375 33.40625 48.484375 
Q 26.265625 48.484375 22.1875 42.84375 
Q 18.109375 37.203125 18.109375 27.296875 
Q 18.109375 17.390625 22.1875 11.75 
Q 26.265625 6.109375 33.40625 6.109375 
Q 40.53125 6.109375 44.609375 11.75 
Q 48.6875 17.390625 48.6875 27.296875 
z
" id="DejaVuSans-112"/>
      <path d="M 56.203125 29.59375 
L 56.203125 25.203125 
L 14.890625 25.203125 
Q 15.484375 15.921875 20.484375 11.0625 
Q 25.484375 6.203125 34.421875 6.203125 
Q 39.59375 6.203125 44.453125 7.46875 
Q 49.3125 8.734375 54.109375 11.28125 
L 54.109375 2.78125 
Q 49.265625 0.734375 44.1875 -0.34375 
Q 39.109375 -1.421875 33.890625 -1.421875 
Q 20.796875 -1.421875 13.15625 6.1875 
Q 5.515625 13.8125 5.515625 26.8125 
Q 5.515625 40.234375 12.765625 48.109375 
Q 20.015625 56 32.328125 56 
Q 43.359375 56 49.78125 48.890625 
Q 56.203125 41.796875 56.203125 29.59375 
z
M 47.21875 32.234375 
Q 47.125 39.59375 43.09375 43.984375 
Q 39.0625 48.390625 32.421875 48.390625 
Q 24.90625 48.390625 20.390625 44.140625 
Q 15.875 39.890625 15.1875 32.171875 
z
" id="DejaVuSans-101"/>
      <path d="M 45.40625 46.390625 
L 45.40625 75.984375 
L 54.390625 75.984375 
L 54.390625 0 
L 45.40625 0 
L 45.40625 8.203125 
Q 42.578125 3.328125 38.25 0.953125 
Q 33.9375 -1.421875 27.875 -1.421875 
Q 17.96875 -1.421875 11.734375 6.484375 
Q 5.515625 14.40625 5.515625 27.296875 
Q 5.515625 40.1875 11.734375 48.09375 
Q 17.96875 56 27.875 56 
Q 33.9375 56 38.25 53.625 
Q 42.578125 51.265625 45.40625 46.390625 
z
M 14.796875 27.296875 
Q 14.796875 17.390625 18.875 11.75 
Q 22.953125 6.109375 30.078125 6.109375 
Q 37.203125 6.109375 41.296875 11.75 
Q 45.40625 17.390625 45.40625 27.296875 
Q 45.40625 37.203125 41.296875 42.84375 
Q 37.203125 48.484375 30.078125 48.484375 
Q 22.953125 48.484375 18.875 42.84375 
Q 14.796875 37.203125 14.796875 27.296875 
z
" id="DejaVuSans-100"/>
      <path d="M 8.5 21.578125 
L 8.5 54.6875 
L 17.484375 54.6875 
L 17.484375 21.921875 
Q 17.484375 14.15625 20.5 10.265625 
Q 23.53125 6.390625 29.59375 6.390625 
Q 36.859375 6.390625 41.078125 11.03125 
Q 45.3125 15.671875 45.3125 23.6875 
L 45.3125 54.6875 
L 54.296875 54.6875 
L 54.296875 0 
L 45.3125 0 
L 45.3125 8.40625 
Q 42.046875 3.421875 37.71875 1 
Q 33.40625 -1.421875 27.6875 -1.421875 
Q 18.265625 -1.421875 13.375 4.4375 
Q 8.5 10.296875 8.5 21.578125 
z
M 31.109375 56 
z
" id="DejaVuSans-117"/>
     </defs>
     <g transform="translate(154.195312 385.049219)rotate(-90)scale(0.1 -0.1)">
      <use xlink:href="#DejaVuSans-115"/>
      <use x="52.099609" xlink:href="#DejaVuSans-112"/>
      <use x="115.576172" xlink:href="#DejaVuSans-101"/>
      <use x="177.099609" xlink:href="#DejaVuSans-101"/>
      <use x="238.623047" xlink:href="#DejaVuSans-100"/>
      <use x="302.099609" xlink:href="#DejaVuSans-117"/>
      <use x="365.478516" xlink:href="#DejaVuSans-112"/>
     </g>
    </g>
   </g>
   <g id="line2d_18">
    <path clip-path="url(#p65800b7056)" d="M 230.727273 512.622766 
L 231.753102 408.212564 
L 232.778932 439.869013 
L 233.804761 445.118322 
L 234.830591 443.095482 
L 235.856421 379.850531 
L 236.88225 378.801392 
L 237.90808 389.965363 
L 238.933909 378.151162 
L 239.959739 440.031778 
L 240.985569 405.967407 
L 242.011398 396.659811 
L 243.037228 386.230516 
L 244.063057 392.19441 
L 245.088887 394.315968 
L 246.114716 397.623393 
L 247.140546 386.998698 
L 248.166376 371.823671 
L 249.192205 391.362504 
L 250.218035 384.022515 
L 251.243864 394.270814 
L 252.269694 383.696185 
L 253.295523 368.74715 
L 254.321353 439.382766 
L 255.347183 375.132314 
L 256.373012 329.042369 
L 257.398842 468.107475 
L 258.424671 111.6 
L 259.450501 258.02713 
L 260.476331 142.855729 
L 261.50216 448.679872 
L 262.52799 380.021874 
L 263.553819 394.597465 
L 264.579649 380.477328 
L 265.605478 380.204507 
L 266.631308 382.026149 
L 267.657138 373.364792 
L 268.682967 373.024686 
L 269.708797 385.267027 
L 270.734626 294.103977 
L 271.760456 225.366672 
L 272.786286 391.055505 
L 273.812115 270.371993 
L 274.837945 214.701358 
L 275.863774 244.334506 
L 276.889604 278.092889 
L 277.915433 383.948414 
L 278.941263 399.96969 
L 279.967093 266.758031 
L 280.992922 381.357046 
L 282.018752 371.797892 
L 283.044581 373.104799 
L 284.070411 376.186007 
L 285.09624 387.290094 
L 286.12207 385.742571 
L 287.1479 408.410244 
L 288.173729 385.021846 
L 289.199559 456.653848 
L 290.225388 373.549958 
L 291.251218 408.081771 
L 292.277048 382.538983 
L 293.302877 406.838976 
L 294.328707 405.999385 
L 295.354536 393.077691 
L 296.380366 397.149069 
L 297.406195 391.247604 
L 298.432025 388.195867 
L 299.457855 383.684552 
L 300.483684 406.993568 
L 301.509514 289.764402 
L 302.535343 398.876824 
L 303.561173 388.111067 
L 304.587002 390.60771 
L 305.612832 391.227632 
L 306.638662 410.368701 
L 307.664491 398.398332 
L 308.690321 393.112145 
L 309.71615 381.012509 
L 310.74198 403.31315 
L 311.76781 404.477422 
L 312.793639 458.540527 
L 313.819469 392.527586 
L 314.845298 389.847619 
L 315.871128 422.020982 
L 316.896957 392.58901 
L 317.922787 395.782759 
L 318.948617 416.349803 
L 319.974446 384.324887 
L 321.000276 412.473604 
L 322.026105 407.04519 
L 323.051935 397.574707 
L 324.077765 397.11848 
L 325.103594 398.135562 
L 326.129424 387.290259 
L 327.155253 393.073403 
L 328.181083 392.729797 
L 329.206912 412.105961 
L 330.232742 403.3556 
L 331.258572 389.944302 
L 332.284401 406.488641 
L 333.310231 407.714171 
L 334.33606 387.262781 
L 335.36189 392.969228 
L 336.387719 391.799065 
L 337.413549 400.60871 
L 338.439379 395.234021 
L 339.465208 393.159917 
L 340.491038 409.24599 
L 341.516867 387.571476 
L 342.542697 405.818026 
L 343.568527 400.341883 
L 344.594356 458.993277 
L 345.620186 397.844735 
L 346.646015 415.67748 
L 347.671845 401.452638 
L 348.697674 395.033592 
L 349.723504 381.911096 
L 350.749334 406.888372 
L 351.775163 393.644888 
L 352.800993 394.861024 
L 353.826822 410.488993 
L 354.852652 405.530214 
L 355.878481 416.699096 
L 356.904311 401.348588 
L 357.930141 392.436851 
L 358.95597 413.13355 
L 359.9818 403.358925 
L 361.007629 412.600972 
L 362.033459 410.441537 
L 363.059289 322.58264 
L 364.085118 413.782035 
L 365.110948 384.778973 
L 367.162607 243.738222 
L 368.188436 274.715425 
L 369.214266 280.560023 
L 370.240096 271.60335 
L 371.265925 268.8243 
L 372.291755 286.489416 
L 373.317584 414.896854 
L 374.343414 399.521113 
L 375.369243 388.928889 
L 376.395073 301.770693 
L 377.420903 278.782006 
L 378.446732 279.218942 
L 379.472562 273.362815 
L 380.498391 307.919852 
L 381.524221 267.841276 
L 382.550051 238.148043 
L 383.57588 417.100913 
L 384.60171 416.839657 
L 385.627539 404.044829 
L 386.653369 413.397423 
L 387.679198 398.352366 
L 388.705028 403.516717 
L 389.730858 402.797632 
L 390.756687 414.470887 
L 391.782517 392.883618 
L 392.808346 395.180323 
L 393.834176 397.798841 
L 394.860006 414.55691 
L 395.885835 299.671026 
L 396.911665 407.840203 
L 397.937494 408.524431 
L 398.963324 399.387976 
L 399.989153 400.796079 
L 401.014983 399.536731 
L 402.040813 323.980958 
L 403.066642 260.470665 
L 404.092472 246.008266 
L 405.118301 412.778602 
L 406.144131 331.519834 
L 407.16996 463.412971 
L 408.19579 408.325831 
L 409.22162 396.837858 
L 410.247449 402.425792 
L 411.273279 387.177139 
L 412.299108 329.096785 
L 413.324938 286.205051 
L 414.350768 402.896913 
L 416.402427 283.622564 
L 417.428256 253.860047 
L 418.454086 278.832493 
L 419.479915 256.428654 
L 420.505745 165.487091 
L 421.531575 255.470806 
L 422.557404 395.242514 
L 423.583234 332.089008 
L 424.609063 319.630539 
L 425.634893 346.081993 
L 426.660722 328.782116 
L 427.686552 339.914264 
L 428.712382 395.856391 
L 429.738211 395.169312 
L 430.764041 408.382137 
L 431.78987 408.095907 
L 432.8157 416.380164 
L 433.84153 394.070421 
L 434.867359 422.939076 
L 435.893189 390.892142 
L 436.919018 419.337666 
L 437.944848 408.07457 
L 438.970677 409.655905 
L 439.996507 403.349004 
L 441.022337 410.172779 
L 442.048166 400.671183 
L 443.073996 404.653837 
L 444.099825 398.652042 
L 445.125655 411.404933 
L 446.151485 399.246576 
L 447.177314 404.14507 
L 448.203144 402.549725 
L 449.228973 396.769151 
L 450.254803 421.066176 
L 451.280632 412.775394 
L 452.306462 411.977482 
L 453.332292 400.276479 
L 454.358121 394.910058 
L 455.383951 411.841055 
L 456.40978 417.224017 
L 457.43561 415.55258 
L 458.461439 412.13972 
L 459.487269 442.889936 
L 462.564758 395.898917 
L 463.590587 420.570477 
L 464.616417 396.852892 
L 465.642247 403.53207 
L 466.668076 401.758092 
L 467.693906 400.717511 
L 468.719735 405.122346 
L 469.745565 319.746539 
L 470.771394 423.920197 
L 471.797224 402.762629 
L 472.823054 403.347658 
L 473.848883 338.875458 
L 474.874713 416.413127 
L 475.900542 418.511066 
L 476.926372 345.558199 
L 477.952201 413.114163 
L 478.978031 420.873591 
L 480.003861 408.733887 
L 481.02969 391.537978 
L 482.05552 421.696332 
L 483.081349 406.655972 
L 484.107179 421.068899 
L 485.133009 415.617971 
L 486.158838 386.13314 
L 487.184668 426.660111 
L 488.210497 421.701924 
L 489.236327 404.70906 
L 490.262156 439.506077 
L 491.287986 412.446419 
L 492.313816 463.692363 
L 493.339645 408.207405 
L 494.365475 428.79144 
L 495.391304 424.17367 
L 496.417134 441.387922 
L 497.442964 424.752479 
L 498.468793 425.628746 
L 499.494623 402.825007 
L 501.546282 421.417046 
L 502.572111 419.329074 
L 503.597941 416.586302 
L 504.623771 411.530534 
L 505.6496 422.296684 
L 506.67543 409.547805 
L 507.701259 426.742303 
L 508.727089 426.62702 
L 509.752918 414.851531 
L 510.778748 420.858856 
L 511.804578 409.227211 
L 512.830407 413.403603 
L 513.856237 424.829602 
L 514.882066 421.034834 
L 515.907896 416.331549 
L 516.933726 424.340362 
L 517.959555 424.90145 
L 518.985385 411.846209 
L 520.011214 419.305971 
L 521.037044 431.310877 
L 522.062873 426.475951 
L 523.088703 402.568105 
L 524.114533 428.967158 
L 525.140362 415.114563 
L 526.166192 370.941733 
L 527.192021 339.213684 
L 528.217851 337.099849 
L 529.24368 210.16644 
L 530.26951 418.389784 
L 531.29534 420.444914 
L 532.321169 424.603629 
L 533.346999 420.158624 
L 534.372828 426.188121 
L 535.398658 469.054449 
L 536.424488 463.297912 
L 537.450317 488.596187 
L 538.476147 422.767906 
L 539.501976 447.587408 
L 540.527806 412.477744 
L 541.553635 416.106127 
L 542.579465 412.327197 
L 543.605295 409.377476 
L 544.631124 423.128767 
L 545.656954 424.368336 
L 546.682783 423.007449 
L 547.708613 437.606384 
L 548.734443 341.693431 
L 549.760272 306.657341 
L 550.786102 308.734174 
L 551.811931 425.520866 
L 552.837761 466.66466 
L 553.86359 427.916314 
L 554.88942 424.144511 
L 555.91525 425.042744 
L 556.941079 434.638954 
L 557.966909 424.923778 
L 558.992738 417.748 
L 561.044397 317.140335 
L 562.070227 327.978718 
L 563.096057 429.463886 
L 564.121886 321.446392 
L 565.147716 428.545498 
L 566.173545 421.264537 
L 567.199375 413.102378 
L 568.225205 397.881403 
L 569.251034 433.704486 
L 570.276864 431.242541 
L 571.302693 396.041049 
L 572.328523 431.937679 
L 573.354352 430.289102 
L 574.380182 386.695348 
L 576.431841 475.832411 
L 577.457671 437.836702 
L 578.4835 443.465638 
L 579.50933 433.312249 
L 580.535159 440.539676 
L 581.560989 437.039221 
L 582.586819 435.890913 
L 583.612648 440.977219 
L 584.638478 433.329654 
L 585.664307 411.964837 
L 586.690137 421.005057 
L 587.715967 432.079074 
L 588.741796 430.011009 
L 589.767626 428.79553 
L 590.793455 442.399244 
L 591.819285 436.688015 
L 592.845114 430.226327 
L 593.870944 426.380782 
L 594.896774 437.83521 
L 595.922603 426.916263 
L 596.948433 429.879777 
L 597.974262 437.165224 
L 599.000092 446.121931 
L 600.025922 436.286465 
L 601.051751 415.802529 
L 602.077581 431.018391 
L 603.10341 430.442572 
L 604.12924 425.980205 
L 605.155069 443.338995 
L 606.180899 440.597787 
L 607.206729 434.540398 
L 608.232558 477.981109 
L 609.258388 442.566082 
L 610.284217 438.376745 
L 611.310047 423.344196 
L 612.335876 426.204963 
L 613.361706 436.766639 
L 614.387536 432.688646 
L 615.413365 429.767335 
L 616.439195 430.251711 
L 617.465024 438.40741 
L 618.490854 434.851635 
L 619.516684 429.549649 
L 620.542513 437.172061 
L 621.568343 433.382334 
L 622.594172 448.548423 
L 623.620002 448.636507 
L 624.645831 450.432358 
L 625.671661 447.573731 
L 626.697491 433.151995 
L 627.72332 454.19201 
L 628.74915 437.423277 
L 629.774979 430.800006 
L 630.800809 433.109364 
L 631.826638 445.820563 
L 632.852468 438.792027 
L 633.878298 421.997224 
L 634.904127 447.557076 
L 635.929957 438.095623 
L 636.955786 446.572124 
L 637.981616 434.515573 
L 639.007446 419.87832 
L 640.033275 432.804524 
L 641.059105 430.489923 
L 642.084934 430.219315 
L 643.110764 423.990499 
L 644.136593 432.892538 
L 645.162423 435.575571 
L 646.188253 423.261191 
L 647.214082 429.914871 
L 648.239912 442.242748 
L 649.265741 441.935473 
L 650.291571 438.410436 
L 651.3174 438.981565 
L 652.34323 443.614706 
L 653.36906 429.619233 
L 654.394889 442.8897 
L 655.420719 436.924324 
L 656.446548 480.535928 
L 657.472378 440.060759 
L 658.498208 441.025374 
L 659.524037 440.413982 
L 660.549867 440.189112 
L 661.575696 433.500217 
L 662.601526 429.067746 
L 663.627355 411.997536 
L 664.653185 435.879969 
L 665.679015 370.077129 
L 666.704844 401.902921 
L 667.730674 382.105409 
L 668.756503 347.394023 
L 669.782333 253.098839 
L 670.808163 412.040018 
L 671.833992 401.253479 
L 672.859822 354.776814 
L 673.885651 370.67569 
L 674.911481 372.085707 
L 675.93731 359.222927 
L 676.96314 353.402116 
L 677.98897 420.733936 
L 679.014799 412.552783 
L 681.066458 376.181397 
L 682.092288 381.104256 
L 683.118117 306.970226 
L 684.143947 413.213266 
L 685.169777 429.172038 
L 686.195606 369.861058 
L 687.221436 450.869678 
L 688.247265 454.953504 
L 689.273095 450.943063 
L 690.298925 482.0392 
L 691.324754 462.632597 
L 692.350584 476.608758 
L 693.376413 483.734877 
L 694.402243 482.847896 
L 695.428072 444.206801 
L 696.453902 451.273557 
L 697.479732 452.468244 
L 698.505561 427.726283 
L 699.531391 448.702343 
L 701.58305 426.061929 
L 702.608879 434.695633 
L 703.634709 430.19571 
L 704.660539 427.780184 
L 705.686368 445.81669 
L 706.712198 446.957925 
L 707.738027 418.229247 
L 708.763857 436.59538 
L 709.789687 448.720022 
L 710.815516 433.229362 
L 711.841346 428.936566 
L 712.867175 444.602469 
L 713.893005 444.755441 
L 714.918834 434.221408 
L 715.944664 435.509982 
L 716.970494 440.183991 
L 717.996323 420.928762 
L 719.022153 316.08654 
L 720.047982 359.467316 
L 721.073812 374.331166 
L 722.099642 363.912902 
L 723.125471 395.433483 
L 724.151301 477.816581 
L 725.17713 434.252546 
L 726.20296 444.418983 
L 727.228789 445.29632 
L 728.254619 439.086566 
L 729.280449 444.290855 
L 730.306278 441.270383 
L 731.332108 452.282135 
L 732.357937 440.799718 
L 733.383767 447.527836 
L 734.409596 436.621504 
L 735.435426 461.446661 
L 736.461256 443.22945 
L 737.487085 438.456108 
L 738.512915 437.690067 
L 739.538744 435.40517 
L 740.564574 429.080164 
L 741.590404 436.593647 
L 742.616233 439.358106 
L 743.642063 445.845673 
L 744.667892 449.458386 
L 745.693722 445.186869 
L 746.719551 456.694492 
L 747.745381 444.193394 
L 748.771211 459.465858 
L 749.79704 444.800829 
L 750.82287 446.068374 
L 751.848699 432.02672 
L 752.874529 453.055934 
L 753.900358 450.61778 
L 754.926188 461.022762 
L 755.952018 438.126254 
L 756.977847 457.303548 
L 758.003677 438.613876 
L 759.029506 385.639581 
L 760.055336 343.9437 
L 761.081166 377.52753 
L 762.106995 363.133392 
L 763.132825 448.810456 
L 764.158654 369.611653 
L 765.184484 361.513031 
L 766.210313 361.939906 
L 767.236143 371.514234 
L 768.261973 353.69778 
L 769.287802 378.746879 
L 770.313632 375.489697 
L 771.339461 389.683401 
L 772.365291 440.133773 
L 773.391121 440.853361 
L 774.41695 450.358492 
L 775.44278 482.900199 
L 776.468609 446.041193 
L 777.494439 459.4397 
L 778.520268 418.958519 
L 779.546098 428.268973 
L 780.571928 448.774078 
L 781.597757 442.015699 
L 782.623587 458.098967 
L 784.675246 436.860683 
L 785.701075 440.634815 
L 786.726905 438.926918 
L 787.752735 451.576465 
L 788.778564 446.741282 
L 789.804394 370.502615 
L 790.830223 444.779035 
L 791.856053 440.726793 
L 792.881883 446.948357 
L 793.907712 444.033135 
L 794.933542 452.102947 
L 795.959371 432.386983 
L 796.985201 457.938688 
L 798.01103 446.717167 
L 799.03686 432.244713 
L 800.06269 450.594633 
L 801.088519 451.303344 
L 802.114349 370.944505 
L 803.140178 362.304949 
L 804.166008 356.498289 
L 805.191837 415.102939 
L 806.217667 395.805404 
L 807.243497 355.337919 
L 808.269326 373.425559 
L 809.295156 368.186713 
L 810.320985 436.972248 
L 811.346815 430.349393 
L 812.372645 451.993501 
L 813.398474 441.552156 
L 814.424304 440.352298 
L 815.450133 430.858088 
L 816.475963 455.055736 
L 817.501792 437.66039 
L 818.527622 431.884441 
L 819.553452 450.154451 
L 820.579281 448.463994 
L 821.605111 440.38075 
L 822.63094 450.063739 
L 823.65677 441.006338 
L 824.6826 454.195876 
L 825.708429 380.859293 
L 826.734259 370.814577 
L 827.760088 357.890233 
L 828.785918 376.185862 
L 829.811747 363.177736 
L 830.837577 427.599518 
L 831.863407 458.846285 
L 832.889236 436.312459 
L 833.915066 439.025097 
L 834.940895 446.792408 
L 835.966725 389.726447 
L 836.992554 435.736629 
L 838.018384 428.001523 
L 839.044214 415.734798 
L 840.070043 447.14323 
L 841.095873 447.130622 
L 842.121702 386.618822 
L 843.147532 379.033341 
L 844.173362 422.830592 
L 845.199191 380.492642 
L 846.225021 506.870742 
L 847.25085 450.476665 
L 848.27668 407.665018 
L 849.302509 383.525224 
L 850.328339 380.724838 
L 851.354169 383.968253 
L 852.379998 377.397308 
L 853.405828 449.453916 
L 854.431657 435.424015 
L 855.457487 401.619998 
L 856.483316 447.571775 
L 857.509146 459.950255 
L 858.534976 455.575749 
L 859.560805 445.239943 
L 860.586635 451.71469 
L 861.612464 432.684253 
L 862.638294 448.148888 
L 863.664124 449.763981 
L 864.689953 446.473942 
L 865.715783 444.741716 
L 866.741612 456.682536 
L 867.767442 443.52163 
L 868.793271 448.045962 
L 869.819101 376.447369 
L 870.844931 441.51564 
L 871.87076 395.418985 
L 872.89659 383.447395 
L 873.922419 374.252559 
L 874.948249 370.100543 
L 875.974078 384.803862 
L 876.999908 374.651321 
L 878.025738 370.101983 
L 879.051567 405.284539 
L 880.077397 400.080403 
L 881.103226 385.367856 
L 882.129056 458.684898 
L 883.154886 460.033217 
L 884.180715 401.464492 
L 885.206545 400.021215 
L 886.232374 488.910811 
L 887.258204 408.117988 
L 888.284033 460.473793 
L 889.309863 436.392965 
L 890.335693 444.08479 
L 891.361522 459.666458 
L 892.387352 451.242758 
L 893.413181 456.44648 
L 894.439011 459.930654 
L 895.464841 480.073487 
L 896.49067 442.784981 
L 897.5165 442.376517 
L 898.542329 452.881581 
L 899.568159 401.498874 
L 901.619818 373.088156 
L 902.645648 385.053725 
L 903.671477 400.32948 
L 904.697307 386.725984 
L 905.723136 379.394814 
L 906.748966 399.101605 
L 907.774795 382.912164 
L 908.800625 349.614779 
L 909.826455 388.058312 
L 910.852284 387.637416 
L 911.878114 457.442323 
L 912.903943 469.875625 
L 913.929773 459.873001 
L 914.955603 377.369323 
L 915.981432 376.513462 
L 917.007262 449.926167 
L 918.033091 394.796825 
L 919.058921 383.268036 
L 920.08475 460.140721 
L 921.11058 501.358131 
L 922.13641 459.090026 
L 923.162239 457.249909 
L 924.188069 464.384459 
L 925.213898 464.569161 
L 926.239728 460.310704 
L 927.265557 468.480901 
L 928.291387 454.958547 
L 929.317217 459.58016 
L 930.343046 454.394942 
L 931.368876 458.725151 
L 932.394705 463.640797 
L 933.420535 473.493257 
L 934.446365 461.3349 
L 935.472194 494.352063 
L 936.498024 450.713523 
L 937.523853 470.555099 
L 938.549683 479.792425 
L 939.575512 452.318012 
L 940.601342 469.734614 
L 941.627172 451.046965 
L 942.653001 502.125246 
L 943.678831 481.120056 
L 944.70466 469.275289 
L 945.73049 482.132446 
L 946.75632 451.765254 
L 947.782149 445.572492 
L 948.807979 487.185102 
L 949.833808 461.714129 
L 950.859638 462.913733 
L 951.885467 464.619616 
L 952.911297 444.773623 
L 953.937127 470.257902 
L 954.962956 459.263687 
L 955.988786 461.491601 
L 957.014615 449.291251 
L 958.040445 445.585063 
L 959.066274 467.788841 
L 960.092104 461.056389 
L 961.117934 474.593342 
L 962.143763 446.971836 
L 963.169593 462.258406 
L 964.195422 451.622836 
L 965.221252 455.7943 
L 966.247082 468.976917 
L 967.272911 495.282213 
L 968.298741 462.51284 
L 969.32457 479.678435 
L 970.3504 410.440214 
L 971.376229 473.400559 
L 972.402059 470.122651 
L 973.427889 473.901146 
L 974.453718 475.996926 
L 975.479548 461.643787 
L 976.505377 458.243084 
L 977.531207 494.540073 
L 978.557036 460.189232 
L 979.582866 449.919122 
L 980.608696 386.532156 
L 981.634525 387.313936 
L 982.660355 394.521845 
L 983.686184 388.374558 
L 984.712014 396.750413 
L 985.737844 450.723084 
L 986.763673 446.456124 
L 987.789503 443.078806 
L 988.815332 447.604089 
L 990.866991 467.483545 
L 991.892821 463.311351 
L 992.918651 448.131226 
L 993.94448 449.836854 
L 994.97031 460.692449 
L 995.996139 514.932468 
L 997.021969 483.635335 
L 998.047799 485.325416 
L 999.073628 492.243899 
L 1000.099458 460.314145 
L 1001.125287 467.676498 
L 1002.151117 446.40829 
L 1003.176946 454.02748 
L 1004.202776 441.726057 
L 1005.228606 458.751768 
L 1006.254435 455.534403 
L 1007.280265 450.59049 
L 1008.306094 458.355967 
L 1009.331924 452.682637 
L 1010.357753 467.586993 
L 1011.383583 461.919647 
L 1012.409413 467.573204 
L 1013.435242 464.64289 
L 1014.461072 456.563861 
L 1015.486901 466.409808 
L 1016.512731 464.185576 
L 1017.538561 412.776473 
L 1018.56439 474.635504 
L 1019.59022 469.62856 
L 1020.616049 460.500304 
L 1021.641879 465.70992 
L 1022.667708 458.404405 
L 1023.693538 453.995934 
L 1024.719368 469.0052 
L 1025.745197 455.167889 
L 1026.771027 409.193146 
L 1027.796856 465.960803 
L 1028.822686 457.707883 
L 1029.848515 458.333637 
L 1030.874345 460.392041 
L 1031.900175 460.659004 
L 1032.926004 420.84039 
L 1033.951834 489.191728 
L 1034.977663 471.773159 
L 1036.003493 405.549379 
L 1037.029323 395.525862 
L 1038.055152 472.26956 
L 1039.080982 468.656133 
L 1040.106811 497.814234 
L 1041.132641 459.630785 
L 1042.15847 465.431933 
L 1043.1843 476.414598 
L 1044.21013 411.152924 
L 1045.235959 427.302604 
L 1046.261789 402.800182 
L 1048.313448 429.905902 
L 1049.339278 458.263287 
L 1050.365107 407.854351 
L 1051.390937 400.030759 
L 1052.416766 407.203036 
L 1053.442596 397.979014 
L 1054.468425 430.294967 
L 1055.494255 407.818897 
L 1056.520085 508.781811 
L 1057.545914 479.186575 
L 1058.571744 474.433719 
L 1059.597573 453.613438 
L 1060.623403 473.076022 
L 1061.649232 502.624855 
L 1062.675062 491.037026 
L 1063.700892 499.568111 
L 1064.726721 492.195733 
L 1065.752551 464.618421 
L 1066.77838 466.579951 
L 1067.80421 469.642369 
L 1068.83004 454.898264 
L 1069.855869 475.460259 
L 1070.881699 429.113375 
L 1071.907528 461.965009 
L 1072.933358 462.480604 
L 1073.959187 463.371966 
L 1074.985017 474.596284 
L 1076.010847 471.751611 
L 1077.036676 469.881906 
L 1078.062506 461.177216 
L 1079.088335 472.657098 
L 1080.114165 467.313164 
L 1081.139994 472.363782 
L 1082.165824 475.677143 
L 1083.191654 480.201653 
L 1084.217483 478.854969 
L 1085.243313 474.245669 
L 1086.269142 462.55585 
L 1087.294972 461.934057 
L 1088.320802 470.712385 
L 1089.346631 475.4487 
L 1090.372461 459.920758 
L 1091.39829 471.644198 
L 1092.42412 431.231635 
L 1093.449949 457.924192 
L 1094.475779 459.984769 
L 1095.501609 490.32292 
L 1096.527438 457.927312 
L 1097.553268 471.585224 
L 1098.579097 514.892699 
L 1099.604927 501.69078 
L 1100.630757 463.066325 
L 1101.656586 503.087496 
L 1102.682416 488.096429 
L 1103.708245 468.899538 
L 1104.734075 478.292677 
L 1105.759904 463.68273 
L 1106.785734 477.080848 
L 1107.811564 463.768269 
L 1108.837393 465.911822 
L 1109.863223 458.859937 
L 1110.889052 437.524629 
L 1111.914882 451.637914 
L 1112.940711 450.083705 
L 1113.966541 453.315043 
L 1114.992371 452.901742 
L 1116.0182 465.104265 
L 1117.04403 459.60205 
L 1118.069859 460.950518 
L 1119.095689 444.142526 
L 1120.121519 470.841464 
L 1121.147348 464.118006 
L 1122.173178 475.547625 
L 1123.199007 467.424021 
L 1124.224837 457.661866 
L 1125.250666 442.031595 
L 1126.276496 460.491762 
L 1127.302326 517.727086 
L 1128.328155 461.37551 
L 1129.353985 469.037683 
L 1130.379814 451.671675 
L 1131.405644 472.838132 
L 1132.431473 497.495252 
L 1133.457303 455.1626 
L 1134.483133 490.073793 
L 1135.508962 459.769716 
L 1136.534792 478.656879 
L 1137.560621 471.82263 
L 1138.586451 460.381141 
L 1139.612281 468.656265 
L 1140.63811 497.151793 
L 1141.66394 426.44579 
L 1142.689769 458.919168 
L 1143.715599 482.664702 
L 1144.741428 466.700586 
L 1145.767258 464.185601 
L 1146.793088 464.97734 
L 1147.818917 459.232747 
L 1148.844747 469.022826 
L 1149.870576 460.991462 
L 1150.896406 559.670553 
L 1151.922235 482.285091 
L 1152.948065 445.515445 
L 1153.973895 469.834647 
L 1154.999724 465.764648 
L 1156.025554 471.264038 
L 1157.051383 483.677869 
L 1158.077213 423.528298 
L 1159.103043 411.444501 
L 1160.128872 491.102712 
L 1161.154702 468.763365 
L 1162.180531 521.02054 
L 1163.206361 514.591836 
L 1164.23219 501.449723 
L 1165.25802 511.591706 
L 1166.28385 478.217603 
L 1167.309679 467.571453 
L 1168.335509 432.941095 
L 1169.361338 462.178054 
L 1170.387168 453.747388 
L 1171.412998 449.748495 
L 1172.438827 468.606297 
L 1173.464657 451.014755 
L 1174.490486 497.5662 
L 1175.516316 446.144416 
L 1176.542145 467.69921 
L 1177.567975 432.272508 
L 1178.593805 434.765974 
L 1179.619634 313.265122 
L 1180.645464 459.197011 
L 1181.671293 453.449628 
L 1182.697123 396.007614 
L 1183.722952 455.275136 
L 1184.748782 384.266528 
L 1185.774612 466.957372 
L 1186.800441 462.97462 
L 1187.826271 448.561127 
L 1188.8521 486.193311 
L 1189.87793 483.898387 
L 1190.90376 477.710516 
L 1191.929589 496.918446 
L 1192.955419 485.992711 
L 1193.981248 465.015555 
L 1195.007078 497.434934 
L 1196.032907 460.751168 
L 1197.058737 561.21152 
L 1198.084567 505.04613 
L 1199.110396 494.889301 
L 1200.136226 475.268571 
L 1201.162055 491.56599 
L 1202.187885 533.362277 
L 1203.213714 478.703013 
L 1204.239544 485.183236 
L 1205.265374 478.181533 
L 1206.291203 451.689485 
L 1207.317033 432.814048 
L 1209.368692 494.861595 
L 1210.394522 461.522194 
L 1211.420351 462.087692 
L 1212.446181 465.498106 
L 1213.47201 470.592231 
L 1214.49784 413.233867 
L 1215.523669 410.254375 
L 1216.549499 409.048297 
L 1217.575329 399.793397 
L 1218.601158 461.266583 
L 1219.626988 471.966466 
L 1220.652817 468.937709 
L 1221.678647 435.818572 
L 1222.704477 489.72271 
L 1223.730306 471.130852 
L 1224.756136 466.718406 
L 1225.781965 477.523507 
L 1226.807795 480.387678 
L 1227.833624 481.077179 
L 1228.859454 487.501451 
L 1229.885284 465.030564 
L 1230.911113 461.428496 
L 1231.936943 472.735115 
L 1232.962772 448.3458 
L 1233.988602 507.284099 
L 1235.014431 486.813666 
L 1236.040261 493.087702 
L 1237.066091 474.720523 
L 1238.09192 497.34851 
L 1239.11775 507.324175 
L 1240.143579 495.193022 
L 1241.169409 494.394478 
L 1242.195239 484.193591 
L 1243.221068 491.944376 
L 1244.246898 473.417221 
L 1245.272727 489.646432 
L 1245.272727 489.646432 
" style="fill:none;stroke:#1f77b4;stroke-linecap:square;stroke-width:1.5;"/>
   </g>
   <g id="line2d_19">
    <path clip-path="url(#p65800b7056)" d="M 230.727273 477.542321 
L 231.753102 422.947135 
L 232.778932 395.01871 
L 233.804761 514.225512 
L 234.830591 454.50668 
L 235.856421 447.414155 
L 236.88225 456.30636 
L 237.90808 451.650482 
L 238.933909 398.647281 
L 239.959739 395.416868 
L 240.985569 411.327998 
L 242.011398 390.621634 
L 243.037228 391.473941 
L 244.063057 405.699574 
L 245.088887 387.091566 
L 246.114716 391.328332 
L 247.140546 396.303202 
L 248.166376 392.223695 
L 249.192205 384.960997 
L 250.218035 387.340526 
L 251.243864 395.859093 
L 252.269694 391.752544 
L 253.295523 393.610972 
L 254.321353 409.450216 
L 255.347183 405.254999 
L 256.373012 406.11811 
L 257.398842 384.936567 
L 258.424671 405.432208 
L 259.450501 390.304658 
L 260.476331 404.05892 
L 261.50216 390.205561 
L 262.52799 398.331294 
L 263.553819 399.488274 
L 264.579649 407.974842 
L 265.605478 300.919501 
L 266.631308 325.575768 
L 267.657138 267.242278 
L 268.682967 411.682705 
L 269.708797 242.408525 
L 270.734626 404.217947 
L 271.760456 456.084979 
L 272.786286 392.280429 
L 273.812115 416.38378 
L 274.837945 321.410598 
L 275.863774 375.398925 
L 276.889604 406.226798 
L 277.915433 370.260442 
L 278.941263 386.083053 
L 279.967093 394.975088 
L 280.992922 395.661646 
L 282.018752 383.220693 
L 283.044581 393.643525 
L 284.070411 402.773529 
L 285.09624 387.390708 
L 286.12207 404.663548 
L 287.1479 363.99724 
L 288.173729 398.33784 
L 290.225388 405.619971 
L 291.251218 384.677117 
L 292.277048 397.698952 
L 293.302877 421.133982 
L 294.328707 414.110508 
L 295.354536 397.086307 
L 296.380366 412.950795 
L 297.406195 453.909716 
L 298.432025 391.738568 
L 299.457855 395.192883 
L 300.483684 392.131418 
L 301.509514 410.139503 
L 302.535343 389.891411 
L 303.561173 404.55505 
L 304.587002 408.148658 
L 305.612832 458.259179 
L 306.638662 417.351631 
L 308.690321 411.615095 
L 309.71615 400.814932 
L 310.74198 440.552423 
L 311.76781 406.34008 
L 312.793639 403.80873 
L 313.819469 403.000627 
L 314.845298 462.874025 
L 315.871128 402.361446 
L 316.896957 367.267013 
L 318.948617 404.102351 
L 319.974446 402.742499 
L 321.000276 386.938406 
L 322.026105 396.790003 
L 323.051935 414.070646 
L 324.077765 401.51605 
L 325.103594 408.19784 
L 326.129424 400.618548 
L 327.155253 414.069024 
L 328.181083 387.326224 
L 329.206912 389.814316 
L 330.232742 408.560018 
L 331.258572 398.653273 
L 332.284401 414.411733 
L 333.310231 412.702549 
L 334.33606 415.83364 
L 335.36189 394.18554 
L 336.387719 391.478375 
L 337.413549 405.445948 
L 338.439379 403.656624 
L 339.465208 409.771943 
L 340.491038 411.52055 
L 341.516867 403.897468 
L 342.542697 417.240594 
L 344.594356 410.461207 
L 345.620186 348.893127 
L 346.646015 411.230969 
L 347.671845 380.207833 
L 348.697674 458.023995 
L 349.723504 426.090602 
L 350.749334 402.376323 
L 351.775163 408.939588 
L 352.800993 403.793078 
L 353.826822 424.134289 
L 354.852652 413.847147 
L 355.878481 410.330442 
L 356.904311 306.2985 
L 357.930141 400.412103 
L 358.95597 408.32579 
L 359.9818 422.361272 
L 361.007629 408.463059 
L 362.033459 412.280835 
L 363.059289 456.409529 
L 364.085118 412.148375 
L 365.110948 396.515358 
L 366.136777 427.745061 
L 367.162607 404.663997 
L 368.188436 425.283212 
L 369.214266 411.990718 
L 370.240096 410.924408 
L 371.265925 407.337486 
L 372.291755 401.940124 
L 373.317584 413.73731 
L 374.343414 436.799786 
L 375.369243 412.055355 
L 376.395073 424.03157 
L 377.420903 424.830705 
L 378.446732 409.812482 
L 379.472562 407.403145 
L 380.498391 412.762121 
L 381.524221 317.043314 
L 382.550051 410.4899 
L 383.57588 401.225531 
L 384.60171 410.162763 
L 385.627539 360.108079 
L 386.653369 346.069773 
L 387.679198 411.528128 
L 388.705028 426.724335 
L 389.730858 341.26847 
L 390.756687 270.724697 
L 391.782517 406.252398 
L 392.808346 427.508254 
L 393.834176 418.059777 
L 394.860006 402.943341 
L 395.885835 345.500177 
L 396.911665 400.181658 
L 398.963324 412.974029 
L 399.989153 461.720651 
L 401.014983 461.567488 
L 402.040813 410.59041 
L 403.066642 415.573349 
L 404.092472 422.05863 
L 405.118301 469.240504 
L 406.144131 306.040403 
L 407.16996 420.37895 
L 409.22162 407.997065 
L 410.247449 415.581319 
L 411.273279 422.143683 
L 412.299108 415.46182 
L 413.324938 387.841924 
L 414.350768 404.112301 
L 415.376597 412.778166 
L 416.402427 403.043548 
L 417.428256 397.667853 
L 418.454086 459.891689 
L 419.479915 462.001847 
L 420.505745 429.156411 
L 421.531575 428.775679 
L 422.557404 430.992086 
L 423.583234 404.777682 
L 424.609063 427.072682 
L 425.634893 423.034037 
L 426.660722 428.368149 
L 427.686552 415.711112 
L 428.712382 417.989972 
L 429.738211 423.971642 
L 430.764041 428.922263 
L 431.78987 418.790707 
L 432.8157 416.654402 
L 433.84153 420.977404 
L 434.867359 425.994558 
L 435.893189 466.575014 
L 436.919018 429.932492 
L 437.944848 406.567028 
L 438.970677 426.088342 
L 439.996507 415.471098 
L 441.022337 416.301623 
L 442.048166 350.602163 
L 443.073996 409.698377 
L 444.099825 409.6718 
L 445.125655 437.721636 
L 446.151485 425.707575 
L 447.177314 417.957113 
L 448.203144 319.6301 
L 449.228973 274.5278 
L 450.254803 269.442332 
L 451.280632 313.385832 
L 452.306462 406.347877 
L 453.332292 411.533088 
L 454.358121 294.568363 
L 455.383951 229.801992 
L 456.40978 275.396068 
L 457.43561 270.73278 
L 458.461439 306.629615 
L 459.487269 407.832414 
L 460.513099 282.464168 
L 461.538928 313.963555 
L 462.564758 411.141606 
L 463.590587 303.244501 
L 464.616417 300.112143 
L 465.642247 425.904762 
L 466.668076 398.442733 
L 467.693906 333.182835 
L 468.719735 354.82239 
L 469.745565 337.418696 
L 470.771394 339.881925 
L 471.797224 300.538162 
L 472.823054 335.576451 
L 473.848883 417.617755 
L 474.874713 348.766121 
L 475.900542 422.032933 
L 476.926372 403.432057 
L 477.952201 405.429114 
L 478.978031 403.527413 
L 480.003861 349.945864 
L 481.02969 418.260812 
L 482.05552 421.11025 
L 483.081349 456.684299 
L 484.107179 421.747746 
L 486.158838 288.038482 
L 487.184668 417.470146 
L 488.210497 414.857086 
L 489.236327 420.485807 
L 490.262156 410.5971 
L 491.287986 429.192462 
L 492.313816 429.214211 
L 493.339645 423.625092 
L 494.365475 415.968279 
L 495.391304 406.446735 
L 496.417134 425.185521 
L 497.442964 465.018675 
L 498.468793 418.273628 
L 499.494623 408.670152 
L 500.520452 321.502299 
L 501.546282 318.192829 
L 502.572111 307.135367 
L 503.597941 318.347093 
L 504.623771 418.354615 
L 505.6496 331.131388 
L 506.67543 330.557577 
L 507.701259 322.825766 
L 508.727089 355.155262 
L 509.752918 438.175032 
L 510.778748 430.691372 
L 511.804578 340.508656 
L 512.830407 334.578107 
L 513.856237 322.855774 
L 514.882066 347.310932 
L 515.907896 420.756705 
L 516.933726 472.011316 
L 517.959555 243.541154 
L 518.985385 377.268789 
L 520.011214 330.850362 
L 521.037044 318.080316 
L 522.062873 361.209758 
L 523.088703 333.332528 
L 524.114533 338.457167 
L 525.140362 371.276827 
L 526.166192 425.622024 
L 527.192021 423.227972 
L 528.217851 427.028619 
L 529.24368 433.594471 
L 530.26951 423.985277 
L 531.29534 400.519763 
L 532.321169 434.575475 
L 533.346999 426.349114 
L 534.372828 447.585994 
L 535.398658 427.781523 
L 536.424488 430.333381 
L 537.450317 415.834351 
L 538.476147 417.311319 
L 539.501976 422.584049 
L 540.527806 413.350551 
L 541.553635 357.342054 
L 542.579465 430.224486 
L 544.631124 408.597156 
L 545.656954 419.117601 
L 546.682783 418.638601 
L 547.708613 384.001793 
L 548.734443 358.799756 
L 549.760272 345.320974 
L 550.786102 343.103814 
L 551.811931 342.217848 
L 552.837761 332.983172 
L 553.86359 468.019639 
L 554.88942 371.034444 
L 555.91525 350.994951 
L 556.941079 372.697711 
L 557.966909 359.728513 
L 558.992738 427.363307 
L 560.018568 426.746737 
L 561.044397 439.547609 
L 562.070227 428.884935 
L 563.096057 432.447942 
L 564.121886 449.474605 
L 565.147716 442.335308 
L 566.173545 429.521734 
L 567.199375 448.981122 
L 568.225205 438.100699 
L 569.251034 480.102565 
L 570.276864 415.168247 
L 571.302693 432.047255 
L 572.328523 437.264405 
L 573.354352 433.215926 
L 574.380182 432.886019 
L 575.406012 355.007472 
L 576.431841 423.154824 
L 577.457671 439.5498 
L 578.4835 425.312141 
L 579.50933 448.413185 
L 580.535159 430.221598 
L 581.560989 425.809424 
L 582.586819 423.150358 
L 583.612648 450.571303 
L 584.638478 449.698511 
L 585.664307 434.801027 
L 586.690137 447.63234 
L 587.715967 444.670422 
L 588.741796 475.151803 
L 589.767626 471.867163 
L 590.793455 449.639563 
L 591.819285 436.557517 
L 593.870944 446.106733 
L 594.896774 615.6 
L 595.922603 443.011359 
L 596.948433 484.181872 
L 597.974262 415.021235 
L 599.000092 439.170721 
L 600.025922 474.018421 
L 601.051751 435.114659 
L 602.077581 445.514296 
L 603.10341 480.945387 
L 604.12924 447.139214 
L 605.155069 492.446279 
L 606.180899 458.837016 
L 607.206729 441.896938 
L 608.232558 440.94937 
L 609.258388 438.916459 
L 610.284217 467.123864 
L 611.310047 449.283436 
L 612.335876 446.679341 
L 613.361706 434.669669 
L 614.387536 439.581624 
L 615.413365 437.521512 
L 616.439195 467.254731 
L 617.465024 431.268309 
L 618.490854 448.481343 
L 619.516684 434.496919 
L 620.542513 434.957907 
L 621.568343 432.641662 
L 622.594172 437.653318 
L 623.620002 444.103131 
L 624.645831 501.483495 
L 625.671661 474.972698 
L 626.697491 463.106914 
L 627.72332 456.892947 
L 628.74915 460.005976 
L 629.774979 441.496497 
L 630.800809 449.441335 
L 631.826638 434.754947 
L 632.852468 442.76643 
L 633.878298 446.280696 
L 634.904127 451.423093 
L 635.929957 447.695455 
L 636.955786 482.804631 
L 637.981616 459.32584 
L 639.007446 472.897033 
L 640.033275 479.790178 
L 642.084934 442.32753 
L 643.110764 457.515096 
L 644.136593 456.985723 
L 645.162423 425.829483 
L 646.188253 432.839536 
L 647.214082 420.208826 
L 648.239912 421.137275 
L 649.265741 427.310875 
L 650.291571 425.480517 
L 651.3174 418.597041 
L 652.34323 425.717879 
L 653.36906 417.835085 
L 654.394889 428.672963 
L 655.420719 421.911177 
L 656.446548 433.937984 
L 657.472378 420.950551 
L 658.498208 430.126089 
L 659.524037 424.776258 
L 660.549867 415.188725 
L 661.575696 433.474737 
L 662.601526 435.515971 
L 663.627355 432.39013 
L 664.653185 441.254898 
L 665.679015 438.232414 
L 666.704844 413.505718 
L 667.730674 432.413712 
L 668.756503 443.902335 
L 669.782333 407.902699 
L 670.808163 437.925657 
L 671.833992 433.413098 
L 672.859822 409.146614 
L 673.885651 441.277505 
L 674.911481 434.524356 
L 675.93731 428.577701 
L 676.96314 441.777973 
L 677.98897 439.460879 
L 679.014799 437.956304 
L 680.040629 431.830573 
L 681.066458 434.211568 
L 682.092288 443.138355 
L 683.118117 444.013466 
L 684.143947 442.343234 
L 685.169777 443.675975 
L 686.195606 485.697208 
L 687.221436 451.312354 
L 688.247265 430.918782 
L 689.273095 450.294622 
L 690.298925 430.068844 
L 691.324754 430.03518 
L 692.350584 436.662737 
L 693.376413 474.706282 
L 694.402243 439.097849 
L 695.428072 430.653859 
L 696.453902 459.09083 
L 697.479732 431.728483 
L 698.505561 446.785717 
L 699.531391 430.543116 
L 700.55722 440.748491 
L 701.58305 438.690378 
L 702.608879 423.795644 
L 703.634709 434.491275 
L 704.660539 447.435406 
L 705.686368 427.289391 
L 706.712198 437.797761 
L 707.738027 445.832925 
L 708.763857 442.29577 
L 709.789687 443.746854 
L 710.815516 461.744795 
L 711.841346 436.400206 
L 712.867175 451.578106 
L 713.893005 438.614093 
L 714.918834 437.752672 
L 715.944664 439.090689 
L 716.970494 446.808871 
L 717.996323 452.25872 
L 719.022153 444.859118 
L 720.047982 428.481253 
L 721.073812 445.049669 
L 722.099642 436.233532 
L 723.125471 459.561235 
L 724.151301 453.781696 
L 725.17713 467.484018 
L 726.20296 444.159657 
L 727.228789 445.221523 
L 728.254619 433.798164 
L 729.280449 545.15296 
L 730.306278 443.602088 
L 731.332108 450.583515 
L 732.357937 437.695103 
L 733.383767 434.246841 
L 734.409596 452.904498 
L 735.435426 446.829382 
L 736.461256 436.263581 
L 737.487085 447.213377 
L 738.512915 360.960021 
L 739.538744 437.978131 
L 740.564574 421.62546 
L 741.590404 442.402438 
L 742.616233 398.02662 
L 743.642063 437.28027 
L 744.667892 429.164645 
L 745.693722 434.009738 
L 746.719551 441.324734 
L 747.745381 460.121063 
L 748.771211 446.75305 
L 749.79704 437.841929 
L 750.82287 432.21231 
L 751.848699 445.088497 
L 752.874529 444.680093 
L 753.900358 434.052003 
L 754.926188 416.138087 
L 755.952018 428.011674 
L 756.977847 369.236583 
L 758.003677 298.939887 
L 759.029506 367.228841 
L 760.055336 368.880837 
L 761.081166 306.004497 
L 762.106995 432.962522 
L 763.132825 386.615226 
L 764.158654 441.242103 
L 765.184484 469.511531 
L 766.210313 451.94806 
L 767.236143 442.875969 
L 768.261973 474.577052 
L 769.287802 450.783392 
L 770.313632 444.076997 
L 771.339461 439.63919 
L 772.365291 447.031407 
L 773.391121 374.863531 
L 774.41695 458.937679 
L 775.44278 323.723105 
L 776.468609 370.158646 
L 777.494439 360.447737 
L 778.520268 422.980018 
L 779.546098 437.084785 
L 780.571928 448.371509 
L 781.597757 406.793463 
L 782.623587 451.002124 
L 783.649416 468.450607 
L 784.675246 456.679406 
L 785.701075 466.958845 
L 786.726905 439.953543 
L 787.752735 463.25323 
L 788.778564 460.164363 
L 789.804394 460.315153 
L 790.830223 453.739268 
L 791.856053 414.687302 
L 792.881883 446.52219 
L 793.907712 457.635101 
L 794.933542 457.325082 
L 795.959371 458.217164 
L 796.985201 454.617252 
L 798.01103 424.420872 
L 799.03686 442.536001 
L 800.06269 447.002588 
L 801.088519 391.805793 
L 802.114349 449.26068 
L 803.140178 441.253027 
L 804.166008 446.335106 
L 805.191837 456.514348 
L 806.217667 483.454067 
L 807.243497 446.166692 
L 809.295156 434.584098 
L 810.320985 455.703735 
L 811.346815 437.686838 
L 812.372645 437.052056 
L 813.398474 484.499284 
L 814.424304 457.519692 
L 815.450133 442.728203 
L 816.475963 445.721286 
L 817.501792 442.049898 
L 818.527622 390.488997 
L 819.553452 444.707487 
L 820.579281 522.365993 
L 821.605111 442.426863 
L 822.63094 439.317787 
L 823.65677 433.938052 
L 824.6826 434.604068 
L 825.708429 434.217373 
L 826.734259 440.624825 
L 827.760088 435.53034 
L 828.785918 445.885996 
L 829.811747 435.851031 
L 830.837577 455.54012 
L 831.863407 445.090379 
L 832.889236 452.161171 
L 833.915066 441.840072 
L 834.940895 448.293274 
L 835.966725 436.480663 
L 838.018384 464.122908 
L 839.044214 437.036612 
L 840.070043 394.93654 
L 841.095873 444.570171 
L 842.121702 440.766977 
L 843.147532 434.335111 
L 844.173362 445.117943 
L 845.199191 450.824681 
L 846.225021 447.918059 
L 847.25085 441.452097 
L 848.27668 458.167408 
L 849.302509 448.109937 
L 850.328339 452.087427 
L 851.354169 482.885959 
L 852.379998 455.830774 
L 853.405828 442.751619 
L 854.431657 444.297744 
L 855.457487 441.178746 
L 856.483316 452.274883 
L 857.509146 448.378599 
L 858.534976 478.886147 
L 859.560805 437.71496 
L 860.586635 435.552829 
L 861.612464 434.353705 
L 862.638294 443.528137 
L 863.664124 450.207606 
L 864.689953 460.494353 
L 865.715783 448.136075 
L 866.741612 453.188459 
L 867.767442 445.869907 
L 868.793271 448.924764 
L 869.819101 457.610209 
L 870.844931 442.264328 
L 871.87076 489.126099 
L 872.89659 457.684071 
L 873.922419 439.251499 
L 874.948249 455.55111 
L 875.974078 458.411338 
L 876.999908 458.112447 
L 878.025738 455.506165 
L 879.051567 448.707955 
L 880.077397 453.286365 
L 881.103226 466.903404 
L 882.129056 450.542089 
L 883.154886 453.309838 
L 884.180715 458.833467 
L 885.206545 452.008137 
L 886.232374 462.400249 
L 887.258204 447.087119 
L 888.284033 417.058208 
L 889.309863 430.641537 
L 890.335693 447.979386 
L 891.361522 445.961468 
L 892.387352 457.122205 
L 893.413181 446.97879 
L 894.439011 443.130843 
L 895.464841 443.173542 
L 896.49067 466.426197 
L 897.5165 466.079191 
L 898.542329 440.19149 
L 900.593988 498.143985 
L 901.619818 449.917464 
L 902.645648 449.410732 
L 903.671477 448.4277 
L 904.697307 458.180686 
L 905.723136 502.500128 
L 906.748966 445.998801 
L 907.774795 465.088355 
L 908.800625 469.249214 
L 909.826455 476.039704 
L 910.852284 450.86303 
L 911.878114 455.323826 
L 912.903943 449.321943 
L 913.929773 489.849728 
L 914.955603 476.774018 
L 915.981432 446.459893 
L 917.007262 435.210991 
L 918.033091 452.049497 
L 919.058921 459.68589 
L 920.08475 498.309457 
L 921.11058 449.302848 
L 922.13641 466.966031 
L 923.162239 457.262279 
L 924.188069 450.051527 
L 925.213898 463.292508 
L 926.239728 461.563017 
L 928.291387 472.680119 
L 929.317217 470.421308 
L 930.343046 471.494049 
L 931.368876 461.15827 
L 932.394705 487.330447 
L 933.420535 471.747912 
L 934.446365 460.471415 
L 935.472194 468.768531 
L 936.498024 470.021996 
L 937.523853 475.987547 
L 938.549683 460.579007 
L 939.575512 460.076879 
L 940.601342 461.852316 
L 941.627172 454.45027 
L 942.653001 452.736468 
L 943.678831 470.253466 
L 944.70466 457.717769 
L 945.73049 456.817262 
L 946.75632 463.788252 
L 947.782149 464.328105 
L 948.807979 493.477503 
L 949.833808 430.307057 
L 950.859638 463.805127 
L 951.885467 476.050958 
L 952.911297 517.49181 
L 953.937127 481.000345 
L 954.962956 474.698693 
L 955.988786 442.534377 
L 957.014615 419.488651 
L 958.040445 392.25666 
L 959.066274 432.806323 
L 960.092104 434.708238 
L 961.117934 443.785381 
L 962.143763 438.872574 
L 963.169593 379.390256 
L 964.195422 381.75675 
L 965.221252 392.108655 
L 966.247082 424.75923 
L 967.272911 368.918226 
L 968.298741 384.913419 
L 969.32457 371.041556 
L 970.3504 378.239536 
L 971.376229 392.985801 
L 972.402059 396.018333 
L 973.427889 392.812295 
L 974.453718 391.50348 
L 975.479548 405.560953 
L 976.505377 395.120833 
L 977.531207 402.530293 
L 978.557036 405.435765 
L 979.582866 406.009173 
L 981.634525 398.451625 
L 982.660355 474.293111 
L 983.686184 449.118951 
L 984.712014 445.102309 
L 986.763673 447.312077 
L 987.789503 455.916477 
L 988.815332 444.018833 
L 989.841162 459.35769 
L 990.866991 448.325585 
L 991.892821 443.07187 
L 992.918651 448.953895 
L 993.94448 450.812186 
L 994.97031 450.47423 
L 995.996139 488.533249 
L 997.021969 458.24773 
L 998.047799 451.827588 
L 999.073628 472.015767 
L 1000.099458 457.564695 
L 1001.125287 450.102961 
L 1002.151117 474.838838 
L 1003.176946 463.537881 
L 1004.202776 458.908844 
L 1005.228606 427.143477 
L 1006.254435 449.303691 
L 1007.280265 449.618902 
L 1008.306094 455.467124 
L 1009.331924 457.514915 
L 1010.357753 382.950757 
L 1011.383583 398.13575 
L 1012.409413 406.812196 
L 1013.435242 387.720358 
L 1014.461072 447.70223 
L 1016.512731 398.936571 
L 1017.538561 454.595809 
L 1018.56439 384.908445 
L 1019.59022 449.489949 
L 1020.616049 448.024147 
L 1021.641879 464.971098 
L 1022.667708 464.681866 
L 1023.693538 449.647866 
L 1024.719368 449.161014 
L 1025.745197 453.25414 
L 1026.771027 472.483321 
L 1027.796856 409.156886 
L 1028.822686 469.137333 
L 1029.848515 451.252933 
L 1030.874345 467.480286 
L 1031.900175 458.69595 
L 1032.926004 472.071927 
L 1033.951834 460.137931 
L 1034.977663 456.876189 
L 1036.003493 464.067234 
L 1037.029323 472.757318 
L 1038.055152 464.662944 
L 1039.080982 458.21881 
L 1040.106811 462.458957 
L 1041.132641 412.297524 
L 1042.15847 405.262161 
L 1043.1843 400.273607 
L 1044.21013 466.314491 
L 1045.235959 461.0394 
L 1046.261789 460.304608 
L 1047.287618 469.19132 
L 1048.313448 452.249939 
L 1049.339278 477.314958 
L 1050.365107 464.967426 
L 1051.390937 459.203066 
L 1052.416766 459.046583 
L 1053.442596 434.106314 
L 1054.468425 459.956144 
L 1055.494255 460.643718 
L 1056.520085 454.314068 
L 1057.545914 466.504624 
L 1058.571744 455.447012 
L 1059.597573 467.022483 
L 1060.623403 485.961064 
L 1061.649232 467.977073 
L 1062.675062 465.416431 
L 1063.700892 478.002291 
L 1064.726721 474.627833 
L 1065.752551 523.119238 
L 1066.77838 458.843914 
L 1067.80421 473.774596 
L 1068.83004 480.702388 
L 1069.855869 458.183615 
L 1070.881699 475.70192 
L 1071.907528 496.82361 
L 1072.933358 457.499004 
L 1073.959187 477.867072 
L 1074.985017 491.13685 
L 1076.010847 459.097968 
L 1077.036676 455.68758 
L 1078.062506 478.024034 
L 1079.088335 456.546037 
L 1080.114165 468.88502 
L 1081.139994 445.351491 
L 1082.165824 462.133352 
L 1083.191654 465.035137 
L 1084.217483 440.912553 
L 1085.243313 455.368948 
L 1086.269142 456.593419 
L 1087.294972 472.11511 
L 1088.320802 460.221979 
L 1089.346631 445.874644 
L 1090.372461 479.514893 
L 1091.39829 457.677935 
L 1092.42412 450.845227 
L 1093.449949 471.523931 
L 1094.475779 447.367333 
L 1095.501609 482.586239 
L 1096.527438 471.299616 
L 1097.553268 470.703842 
L 1098.579097 457.696653 
L 1099.604927 466.137608 
L 1100.630757 465.856614 
L 1101.656586 470.008801 
L 1102.682416 471.975227 
L 1103.708245 460.286406 
L 1104.734075 473.464306 
L 1105.759904 469.539583 
L 1106.785734 476.780482 
L 1107.811564 455.247757 
L 1108.837393 481.120852 
L 1109.863223 474.133036 
L 1110.889052 479.177872 
L 1111.914882 465.618 
L 1112.940711 461.060847 
L 1113.966541 468.154473 
L 1114.992371 470.563663 
L 1116.0182 475.502748 
L 1117.04403 456.476344 
L 1118.069859 469.715835 
L 1119.095689 478.455225 
L 1120.121519 449.834297 
L 1121.147348 476.282192 
L 1122.173178 469.533461 
L 1123.199007 479.635127 
L 1124.224837 473.45555 
L 1125.250666 479.116243 
L 1126.276496 429.923224 
L 1127.302326 464.68946 
L 1128.328155 473.397906 
L 1129.353985 473.951929 
L 1130.379814 480.307096 
L 1131.405644 501.968182 
L 1132.431473 464.666778 
L 1133.457303 460.569227 
L 1134.483133 465.611934 
L 1135.508962 467.567839 
L 1136.534792 480.817615 
L 1137.560621 420.719252 
L 1138.586451 463.219567 
L 1139.612281 448.183167 
L 1140.63811 500.552615 
L 1141.66394 487.715474 
L 1142.689769 460.020874 
L 1143.715599 487.044387 
L 1144.741428 468.795083 
L 1145.767258 463.575971 
L 1146.793088 475.321671 
L 1147.818917 476.185688 
L 1148.844747 478.852399 
L 1149.870576 496.696641 
L 1151.922235 441.969041 
L 1152.948065 486.971447 
L 1153.973895 423.144778 
L 1154.999724 471.997616 
L 1156.025554 469.961027 
L 1157.051383 551.819319 
L 1158.077213 469.101135 
L 1159.103043 448.214058 
L 1160.128872 480.587065 
L 1161.154702 458.901771 
L 1162.180531 470.744167 
L 1163.206361 523.177739 
L 1164.23219 473.261814 
L 1165.25802 474.067159 
L 1166.28385 462.747205 
L 1167.309679 474.813103 
L 1168.335509 456.847626 
L 1169.361338 471.059095 
L 1170.387168 473.210281 
L 1171.412998 476.685458 
L 1172.438827 475.101609 
L 1173.464657 483.162313 
L 1174.490486 448.653807 
L 1175.516316 453.705905 
L 1176.542145 477.990013 
L 1177.567975 464.611939 
L 1179.619634 468.938863 
L 1180.645464 475.669373 
L 1181.671293 475.318208 
L 1182.697123 465.637575 
L 1183.722952 474.912645 
L 1184.748782 488.224861 
L 1185.774612 464.966966 
L 1186.800441 465.744498 
L 1187.826271 499.26377 
L 1188.8521 477.968324 
L 1189.87793 474.732193 
L 1190.90376 462.335136 
L 1191.929589 489.851915 
L 1192.955419 474.503714 
L 1193.981248 478.48839 
L 1195.007078 457.265651 
L 1196.032907 473.572731 
L 1197.058737 484.407102 
L 1198.084567 464.930788 
L 1199.110396 473.843672 
L 1200.136226 456.684317 
L 1201.162055 466.302277 
L 1202.187885 462.780528 
L 1203.213714 467.03766 
L 1204.239544 456.953713 
L 1205.265374 464.058202 
L 1206.291203 464.402819 
L 1207.317033 457.461605 
L 1208.342862 468.691332 
L 1209.368692 465.137033 
L 1210.394522 469.050246 
L 1211.420351 458.845286 
L 1212.446181 461.246215 
L 1213.47201 458.154345 
L 1214.49784 464.246729 
L 1215.523669 459.516575 
L 1216.549499 463.249891 
L 1217.575329 460.891754 
L 1218.601158 465.459505 
L 1219.626988 460.379154 
L 1220.652817 463.222121 
L 1221.678647 459.693125 
L 1222.704477 460.888031 
L 1223.730306 483.221785 
L 1224.756136 475.276642 
L 1225.781965 472.166716 
L 1226.807795 473.221269 
L 1227.833624 471.331317 
L 1228.859454 496.625202 
L 1229.885284 476.716423 
L 1230.911113 499.332134 
L 1231.936943 473.245621 
L 1232.962772 487.008794 
L 1233.988602 486.827873 
L 1235.014431 470.829093 
L 1236.040261 480.304184 
L 1237.066091 466.629091 
L 1238.09192 473.382349 
L 1239.11775 465.170464 
L 1240.143579 402.55012 
L 1241.169409 435.6057 
L 1242.195239 416.522464 
L 1243.221068 401.1153 
L 1244.246898 408.379221 
L 1245.272727 472.450341 
L 1245.272727 472.450341 
" style="fill:none;stroke:#ff7f0e;stroke-linecap:square;stroke-width:1.5;"/>
   </g>
   <g id="patch_3">
    <path d="M 180 640.8 
L 180 86.4 
" style="fill:none;stroke:#000000;stroke-linecap:square;stroke-linejoin:miter;stroke-width:0.8;"/>
   </g>
   <g id="patch_4">
    <path d="M 1296 640.8 
L 1296 86.4 
" style="fill:none;stroke:#000000;stroke-linecap:square;stroke-linejoin:miter;stroke-width:0.8;"/>
   </g>
   <g id="patch_5">
    <path d="M 180 640.8 
L 1296 640.8 
" style="fill:none;stroke:#000000;stroke-linecap:square;stroke-linejoin:miter;stroke-width:0.8;"/>
   </g>
   <g id="patch_6">
    <path d="M 180 86.4 
L 1296 86.4 
" style="fill:none;stroke:#000000;stroke-linecap:square;stroke-linejoin:miter;stroke-width:0.8;"/>
   </g>
   <g id="text_20">
    <!-- RSI Speedup -->
    <defs>
     <path d="M 44.390625 34.1875 
Q 47.5625 33.109375 50.5625 29.59375 
Q 53.5625 26.078125 56.59375 19.921875 
L 66.609375 0 
L 56 0 
L 46.6875 18.703125 
Q 43.0625 26.03125 39.671875 28.421875 
Q 36.28125 30.8125 30.421875 30.8125 
L 19.671875 30.8125 
L 19.671875 0 
L 9.8125 0 
L 9.8125 72.90625 
L 32.078125 72.90625 
Q 44.578125 72.90625 50.734375 67.671875 
Q 56.890625 62.453125 56.890625 51.90625 
Q 56.890625 45.015625 53.6875 40.46875 
Q 50.484375 35.9375 44.390625 34.1875 
z
M 19.671875 64.796875 
L 19.671875 38.921875 
L 32.078125 38.921875 
Q 39.203125 38.921875 42.84375 42.21875 
Q 46.484375 45.515625 46.484375 51.90625 
Q 46.484375 58.296875 42.84375 61.546875 
Q 39.203125 64.796875 32.078125 64.796875 
z
" id="DejaVuSans-82"/>
     <path d="M 53.515625 70.515625 
L 53.515625 60.890625 
Q 47.90625 63.578125 42.921875 64.890625 
Q 37.9375 66.21875 33.296875 66.21875 
Q 25.25 66.21875 20.875 63.09375 
Q 16.5 59.96875 16.5 54.203125 
Q 16.5 49.359375 19.40625 46.890625 
Q 22.3125 44.4375 30.421875 42.921875 
L 36.375 41.703125 
Q 47.40625 39.59375 52.65625 34.296875 
Q 57.90625 29 57.90625 20.125 
Q 57.90625 9.515625 50.796875 4.046875 
Q 43.703125 -1.421875 29.984375 -1.421875 
Q 24.8125 -1.421875 18.96875 -0.25 
Q 13.140625 0.921875 6.890625 3.21875 
L 6.890625 13.375 
Q 12.890625 10.015625 18.65625 8.296875 
Q 24.421875 6.59375 29.984375 6.59375 
Q 38.421875 6.59375 43.015625 9.90625 
Q 47.609375 13.234375 47.609375 19.390625 
Q 47.609375 24.75 44.3125 27.78125 
Q 41.015625 30.8125 33.5 32.328125 
L 27.484375 33.5 
Q 16.453125 35.6875 11.515625 40.375 
Q 6.59375 45.0625 6.59375 53.421875 
Q 6.59375 63.09375 13.40625 68.65625 
Q 20.21875 74.21875 32.171875 74.21875 
Q 37.3125 74.21875 42.625 73.28125 
Q 47.953125 72.359375 53.515625 70.515625 
z
" id="DejaVuSans-83"/>
     <path d="M 9.8125 72.90625 
L 19.671875 72.90625 
L 19.671875 0 
L 9.8125 0 
z
" id="DejaVuSans-73"/>
     <path id="DejaVuSans-32"/>
    </defs>
    <g transform="translate(699.9225 80.4)scale(0.12 -0.12)">
     <use xlink:href="#DejaVuSans-82"/>
     <use x="69.482422" xlink:href="#DejaVuSans-83"/>
     <use x="132.958984" xlink:href="#DejaVuSans-73"/>
     <use x="162.451172" xlink:href="#DejaVuSans-32"/>
     <use x="194.238281" xlink:href="#DejaVuSans-83"/>
     <use x="257.714844" xlink:href="#DejaVuSans-112"/>
     <use x="321.191406" xlink:href="#DejaVuSans-101"/>
     <use x="382.714844" xlink:href="#DejaVuSans-101"/>
     <use x="444.238281" xlink:href="#DejaVuSans-100"/>
     <use x="507.714844" xlink:href="#DejaVuSans-117"/>
     <use x="571.09375" xlink:href="#DejaVuSans-112"/>
    </g>
   </g>
   <g id="legend_1">
    <g id="patch_7">
     <path d="M 1185.373437 123.75625 
L 1289 123.75625 
Q 1291 123.75625 1291 121.75625 
L 1291 93.4 
Q 1291 91.4 1289 91.4 
L 1185.373437 91.4 
Q 1183.373437 91.4 1183.373437 93.4 
L 1183.373437 121.75625 
Q 1183.373437 123.75625 1185.373437 123.75625 
z
" style="fill:#ffffff;opacity:0.8;stroke:#cccccc;stroke-linejoin:miter;"/>
    </g>
    <g id="line2d_20">
     <path d="M 1187.373437 99.498437 
L 1207.373437 99.498437 
" style="fill:none;stroke:#1f77b4;stroke-linecap:square;stroke-width:1.5;"/>
    </g>
    <g id="line2d_21"/>
    <g id="text_21">
     <!-- numpy.float32 -->
     <defs>
      <path d="M 52 44.1875 
Q 55.375 50.25 60.0625 53.125 
Q 64.75 56 71.09375 56 
Q 79.640625 56 84.28125 50.015625 
Q 88.921875 44.046875 88.921875 33.015625 
L 88.921875 0 
L 79.890625 0 
L 79.890625 32.71875 
Q 79.890625 40.578125 77.09375 44.375 
Q 74.3125 48.1875 68.609375 48.1875 
Q 61.625 48.1875 57.5625 43.546875 
Q 53.515625 38.921875 53.515625 30.90625 
L 53.515625 0 
L 44.484375 0 
L 44.484375 32.71875 
Q 44.484375 40.625 41.703125 44.40625 
Q 38.921875 48.1875 33.109375 48.1875 
Q 26.21875 48.1875 22.15625 43.53125 
Q 18.109375 38.875 18.109375 30.90625 
L 18.109375 0 
L 9.078125 0 
L 9.078125 54.6875 
L 18.109375 54.6875 
L 18.109375 46.1875 
Q 21.1875 51.21875 25.484375 53.609375 
Q 29.78125 56 35.6875 56 
Q 41.65625 56 45.828125 52.96875 
Q 50 49.953125 52 44.1875 
z
" id="DejaVuSans-109"/>
      <path d="M 32.171875 -5.078125 
Q 28.375 -14.84375 24.75 -17.8125 
Q 21.140625 -20.796875 15.09375 -20.796875 
L 7.90625 -20.796875 
L 7.90625 -13.28125 
L 13.1875 -13.28125 
Q 16.890625 -13.28125 18.9375 -11.515625 
Q 21 -9.765625 23.484375 -3.21875 
L 25.09375 0.875 
L 2.984375 54.6875 
L 12.5 54.6875 
L 29.59375 11.921875 
L 46.6875 54.6875 
L 56.203125 54.6875 
z
" id="DejaVuSans-121"/>
      <path d="M 37.109375 75.984375 
L 37.109375 68.5 
L 28.515625 68.5 
Q 23.6875 68.5 21.796875 66.546875 
Q 19.921875 64.59375 19.921875 59.515625 
L 19.921875 54.6875 
L 34.71875 54.6875 
L 34.71875 47.703125 
L 19.921875 47.703125 
L 19.921875 0 
L 10.890625 0 
L 10.890625 47.703125 
L 2.296875 47.703125 
L 2.296875 54.6875 
L 10.890625 54.6875 
L 10.890625 58.5 
Q 10.890625 67.625 15.140625 71.796875 
Q 19.390625 75.984375 28.609375 75.984375 
z
" id="DejaVuSans-102"/>
      <path d="M 9.421875 75.984375 
L 18.40625 75.984375 
L 18.40625 0 
L 9.421875 0 
z
" id="DejaVuSans-108"/>
      <path d="M 30.609375 48.390625 
Q 23.390625 48.390625 19.1875 42.75 
Q 14.984375 37.109375 14.984375 27.296875 
Q 14.984375 17.484375 19.15625 11.84375 
Q 23.34375 6.203125 30.609375 6.203125 
Q 37.796875 6.203125 41.984375 11.859375 
Q 46.1875 17.53125 46.1875 27.296875 
Q 46.1875 37.015625 41.984375 42.703125 
Q 37.796875 48.390625 30.609375 48.390625 
z
M 30.609375 56 
Q 42.328125 56 49.015625 48.375 
Q 55.71875 40.765625 55.71875 27.296875 
Q 55.71875 13.875 49.015625 6.21875 
Q 42.328125 -1.421875 30.609375 -1.421875 
Q 18.84375 -1.421875 12.171875 6.21875 
Q 5.515625 13.875 5.515625 27.296875 
Q 5.515625 40.765625 12.171875 48.375 
Q 18.84375 56 30.609375 56 
z
" id="DejaVuSans-111"/>
      <path d="M 34.28125 27.484375 
Q 23.390625 27.484375 19.1875 25 
Q 14.984375 22.515625 14.984375 16.5 
Q 14.984375 11.71875 18.140625 8.90625 
Q 21.296875 6.109375 26.703125 6.109375 
Q 34.1875 6.109375 38.703125 11.40625 
Q 43.21875 16.703125 43.21875 25.484375 
L 43.21875 27.484375 
z
M 52.203125 31.203125 
L 52.203125 0 
L 43.21875 0 
L 43.21875 8.296875 
Q 40.140625 3.328125 35.546875 0.953125 
Q 30.953125 -1.421875 24.3125 -1.421875 
Q 15.921875 -1.421875 10.953125 3.296875 
Q 6 8.015625 6 15.921875 
Q 6 25.140625 12.171875 29.828125 
Q 18.359375 34.515625 30.609375 34.515625 
L 43.21875 34.515625 
L 43.21875 35.40625 
Q 43.21875 41.609375 39.140625 45 
Q 35.0625 48.390625 27.6875 48.390625 
Q 23 48.390625 18.546875 47.265625 
Q 14.109375 46.140625 10.015625 43.890625 
L 10.015625 52.203125 
Q 14.9375 54.109375 19.578125 55.046875 
Q 24.21875 56 28.609375 56 
Q 40.484375 56 46.34375 49.84375 
Q 52.203125 43.703125 52.203125 31.203125 
z
" id="DejaVuSans-97"/>
      <path d="M 18.3125 70.21875 
L 18.3125 54.6875 
L 36.8125 54.6875 
L 36.8125 47.703125 
L 18.3125 47.703125 
L 18.3125 18.015625 
Q 18.3125 11.328125 20.140625 9.421875 
Q 21.96875 7.515625 27.59375 7.515625 
L 36.8125 7.515625 
L 36.8125 0 
L 27.59375 0 
Q 17.1875 0 13.234375 3.875 
Q 9.28125 7.765625 9.28125 18.015625 
L 9.28125 47.703125 
L 2.6875 47.703125 
L 2.6875 54.6875 
L 9.28125 54.6875 
L 9.28125 70.21875 
z
" id="DejaVuSans-116"/>
     </defs>
     <g transform="translate(1215.373437 102.998437)scale(0.1 -0.1)">
      <use xlink:href="#DejaVuSans-110"/>
      <use x="63.378906" xlink:href="#DejaVuSans-117"/>
      <use x="126.757812" xlink:href="#DejaVuSans-109"/>
      <use x="224.169922" xlink:href="#DejaVuSans-112"/>
      <use x="287.646484" xlink:href="#DejaVuSans-121"/>
      <use x="332.576172" xlink:href="#DejaVuSans-46"/>
      <use x="364.363281" xlink:href="#DejaVuSans-102"/>
      <use x="399.568359" xlink:href="#DejaVuSans-108"/>
      <use x="427.351562" xlink:href="#DejaVuSans-111"/>
      <use x="488.533203" xlink:href="#DejaVuSans-97"/>
      <use x="549.8125" xlink:href="#DejaVuSans-116"/>
      <use x="589.021484" xlink:href="#DejaVuSans-51"/>
      <use x="652.644531" xlink:href="#DejaVuSans-50"/>
     </g>
    </g>
    <g id="line2d_22">
     <path d="M 1187.373437 114.176562 
L 1207.373437 114.176562 
" style="fill:none;stroke:#ff7f0e;stroke-linecap:square;stroke-width:1.5;"/>
    </g>
    <g id="line2d_23"/>
    <g id="text_22">
     <!-- numpy.float64 -->
     <g transform="translate(1215.373437 117.676562)scale(0.1 -0.1)">
      <use xlink:href="#DejaVuSans-110"/>
      <use x="63.378906" xlink:href="#DejaVuSans-117"/>
      <use x="126.757812" xlink:href="#DejaVuSans-109"/>
      <use x="224.169922" xlink:href="#DejaVuSans-112"/>
      <use x="287.646484" xlink:href="#DejaVuSans-121"/>
      <use x="332.576172" xlink:href="#DejaVuSans-46"/>
      <use x="364.363281" xlink:href="#DejaVuSans-102"/>
      <use x="399.568359" xlink:href="#DejaVuSans-108"/>
      <use x="427.351562" xlink:href="#DejaVuSans-111"/>
      <use x="488.533203" xlink:href="#DejaVuSans-97"/>
      <use x="549.8125" xlink:href="#DejaVuSans-116"/>
      <use x="589.021484" xlink:href="#DejaVuSans-54"/>
      <use x="652.644531" xlink:href="#DejaVuSans-52"/>
     </g>
    </g>
   </g>
  </g>
 </g>
 <defs>
  <clipPath id="p65800b7056">
   <rect height="554.4" width="1116" x="180" y="86.4"/>
  </clipPath>
 </defs>
</svg>
