<?xml version="1.0" encoding="utf-8" standalone="no"?>
<!DOCTYPE svg PUBLIC "-//W3C//DTD SVG 1.1//EN"
  "http://www.w3.org/Graphics/SVG/1.1/DTD/svg11.dtd">
<!-- Created with matplotlib (https://matplotlib.org/) -->
<svg height="345.6pt" version="1.1" viewBox="0 0 460.8 345.6" width="460.8pt" xmlns="http://www.w3.org/2000/svg" xmlns:xlink="http://www.w3.org/1999/xlink">
 <defs>
  <style type="text/css">
*{stroke-linecap:butt;stroke-linejoin:round;}
  </style>
 </defs>
 <g id="figure_1">
  <g id="patch_1">
   <path d="M 0 345.6 
L 460.8 345.6 
L 460.8 0 
L 0 0 
z
" style="fill:#ffffff;"/>
  </g>
  <g id="axes_1">
   <g id="patch_2">
    <path d="M 57.6 307.584 
L 414.72 307.584 
L 414.72 41.472 
L 57.6 41.472 
z
" style="fill:#ffffff;"/>
   </g>
   <g id="matplotlib.axis_1">
    <g id="xtick_1">
     <g id="line2d_1">
      <defs>
       <path d="M 0 0 
L 0 3.5 
" id="me6ddbeeede" style="stroke:#000000;stroke-width:0.8;"/>
      </defs>
      <g>
       <use style="stroke:#000000;stroke-width:0.8;" x="106.659274" xlink:href="#me6ddbeeede" y="307.584"/>
      </g>
     </g>
     <g id="text_1">
      <!-- 100.0 -->
      <defs>
       <path d="M 12.40625 8.296875 
L 28.515625 8.296875 
L 28.515625 63.921875 
L 10.984375 60.40625 
L 10.984375 69.390625 
L 28.421875 72.90625 
L 38.28125 72.90625 
L 38.28125 8.296875 
L 54.390625 8.296875 
L 54.390625 0 
L 12.40625 0 
z
" id="DejaVuSans-49"/>
       <path d="M 31.78125 66.40625 
Q 24.171875 66.40625 20.328125 58.90625 
Q 16.5 51.421875 16.5 36.375 
Q 16.5 21.390625 20.328125 13.890625 
Q 24.171875 6.390625 31.78125 6.390625 
Q 39.453125 6.390625 43.28125 13.890625 
Q 47.125 21.390625 47.125 36.375 
Q 47.125 51.421875 43.28125 58.90625 
Q 39.453125 66.40625 31.78125 66.40625 
z
M 31.78125 74.21875 
Q 44.046875 74.21875 50.515625 64.515625 
Q 56.984375 54.828125 56.984375 36.375 
Q 56.984375 17.96875 50.515625 8.265625 
Q 44.046875 -1.421875 31.78125 -1.421875 
Q 19.53125 -1.421875 13.0625 8.265625 
Q 6.59375 17.96875 6.59375 36.375 
Q 6.59375 54.828125 13.0625 64.515625 
Q 19.53125 74.21875 31.78125 74.21875 
z
" id="DejaVuSans-48"/>
       <path d="M 10.6875 12.40625 
L 21 12.40625 
L 21 0 
L 10.6875 0 
z
" id="DejaVuSans-46"/>
      </defs>
      <g transform="translate(92.345211 322.182437)scale(0.1 -0.1)">
       <use xlink:href="#DejaVuSans-49"/>
       <use x="63.623047" xlink:href="#DejaVuSans-48"/>
       <use x="127.246094" xlink:href="#DejaVuSans-48"/>
       <use x="190.869141" xlink:href="#DejaVuSans-46"/>
       <use x="222.65625" xlink:href="#DejaVuSans-48"/>
      </g>
     </g>
    </g>
    <g id="xtick_2">
     <g id="line2d_2">
      <g>
       <use style="stroke:#000000;stroke-width:0.8;" x="139.48582" xlink:href="#me6ddbeeede" y="307.584"/>
      </g>
     </g>
     <g id="text_2">
      <!-- 200.0 -->
      <defs>
       <path d="M 19.1875 8.296875 
L 53.609375 8.296875 
L 53.609375 0 
L 7.328125 0 
L 7.328125 8.296875 
Q 12.9375 14.109375 22.625 23.890625 
Q 32.328125 33.6875 34.8125 36.53125 
Q 39.546875 41.84375 41.421875 45.53125 
Q 43.3125 49.21875 43.3125 52.78125 
Q 43.3125 58.59375 39.234375 62.25 
Q 35.15625 65.921875 28.609375 65.921875 
Q 23.96875 65.921875 18.8125 64.3125 
Q 13.671875 62.703125 7.8125 59.421875 
L 7.8125 69.390625 
Q 13.765625 71.78125 18.9375 73 
Q 24.125 74.21875 28.421875 74.21875 
Q 39.75 74.21875 46.484375 68.546875 
Q 53.21875 62.890625 53.21875 53.421875 
Q 53.21875 48.921875 51.53125 44.890625 
Q 49.859375 40.875 45.40625 35.40625 
Q 44.1875 33.984375 37.640625 27.21875 
Q 31.109375 20.453125 19.1875 8.296875 
z
" id="DejaVuSans-50"/>
      </defs>
      <g transform="translate(125.171758 322.182437)scale(0.1 -0.1)">
       <use xlink:href="#DejaVuSans-50"/>
       <use x="63.623047" xlink:href="#DejaVuSans-48"/>
       <use x="127.246094" xlink:href="#DejaVuSans-48"/>
       <use x="190.869141" xlink:href="#DejaVuSans-46"/>
       <use x="222.65625" xlink:href="#DejaVuSans-48"/>
      </g>
     </g>
    </g>
    <g id="xtick_3">
     <g id="line2d_3">
      <g>
       <use style="stroke:#000000;stroke-width:0.8;" x="172.312367" xlink:href="#me6ddbeeede" y="307.584"/>
      </g>
     </g>
     <g id="text_3">
      <!-- 300.0 -->
      <defs>
       <path d="M 40.578125 39.3125 
Q 47.65625 37.796875 51.625 33 
Q 55.609375 28.21875 55.609375 21.1875 
Q 55.609375 10.40625 48.1875 4.484375 
Q 40.765625 -1.421875 27.09375 -1.421875 
Q 22.515625 -1.421875 17.65625 -0.515625 
Q 12.796875 0.390625 7.625 2.203125 
L 7.625 11.71875 
Q 11.71875 9.328125 16.59375 8.109375 
Q 21.484375 6.890625 26.8125 6.890625 
Q 36.078125 6.890625 40.9375 10.546875 
Q 45.796875 14.203125 45.796875 21.1875 
Q 45.796875 27.640625 41.28125 31.265625 
Q 36.765625 34.90625 28.71875 34.90625 
L 20.21875 34.90625 
L 20.21875 43.015625 
L 29.109375 43.015625 
Q 36.375 43.015625 40.234375 45.921875 
Q 44.09375 48.828125 44.09375 54.296875 
Q 44.09375 59.90625 40.109375 62.90625 
Q 36.140625 65.921875 28.71875 65.921875 
Q 24.65625 65.921875 20.015625 65.03125 
Q 15.375 64.15625 9.8125 62.3125 
L 9.8125 71.09375 
Q 15.4375 72.65625 20.34375 73.4375 
Q 25.25 74.21875 29.59375 74.21875 
Q 40.828125 74.21875 47.359375 69.109375 
Q 53.90625 64.015625 53.90625 55.328125 
Q 53.90625 49.265625 50.4375 45.09375 
Q 46.96875 40.921875 40.578125 39.3125 
z
" id="DejaVuSans-51"/>
      </defs>
      <g transform="translate(157.998304 322.182437)scale(0.1 -0.1)">
       <use xlink:href="#DejaVuSans-51"/>
       <use x="63.623047" xlink:href="#DejaVuSans-48"/>
       <use x="127.246094" xlink:href="#DejaVuSans-48"/>
       <use x="190.869141" xlink:href="#DejaVuSans-46"/>
       <use x="222.65625" xlink:href="#DejaVuSans-48"/>
      </g>
     </g>
    </g>
    <g id="xtick_4">
     <g id="line2d_4">
      <g>
       <use style="stroke:#000000;stroke-width:0.8;" x="205.138914" xlink:href="#me6ddbeeede" y="307.584"/>
      </g>
     </g>
     <g id="text_4">
      <!-- 400.0 -->
      <defs>
       <path d="M 37.796875 64.3125 
L 12.890625 25.390625 
L 37.796875 25.390625 
z
M 35.203125 72.90625 
L 47.609375 72.90625 
L 47.609375 25.390625 
L 58.015625 25.390625 
L 58.015625 17.1875 
L 47.609375 17.1875 
L 47.609375 0 
L 37.796875 0 
L 37.796875 17.1875 
L 4.890625 17.1875 
L 4.890625 26.703125 
z
" id="DejaVuSans-52"/>
      </defs>
      <g transform="translate(190.824851 322.182437)scale(0.1 -0.1)">
       <use xlink:href="#DejaVuSans-52"/>
       <use x="63.623047" xlink:href="#DejaVuSans-48"/>
       <use x="127.246094" xlink:href="#DejaVuSans-48"/>
       <use x="190.869141" xlink:href="#DejaVuSans-46"/>
       <use x="222.65625" xlink:href="#DejaVuSans-48"/>
      </g>
     </g>
    </g>
    <g id="xtick_5">
     <g id="line2d_5">
      <g>
       <use style="stroke:#000000;stroke-width:0.8;" x="237.96546" xlink:href="#me6ddbeeede" y="307.584"/>
      </g>
     </g>
     <g id="text_5">
      <!-- 500.0 -->
      <defs>
       <path d="M 10.796875 72.90625 
L 49.515625 72.90625 
L 49.515625 64.59375 
L 19.828125 64.59375 
L 19.828125 46.734375 
Q 21.96875 47.46875 24.109375 47.828125 
Q 26.265625 48.1875 28.421875 48.1875 
Q 40.625 48.1875 47.75 41.5 
Q 54.890625 34.8125 54.890625 23.390625 
Q 54.890625 11.625 47.5625 5.09375 
Q 40.234375 -1.421875 26.90625 -1.421875 
Q 22.3125 -1.421875 17.546875 -0.640625 
Q 12.796875 0.140625 7.71875 1.703125 
L 7.71875 11.625 
Q 12.109375 9.234375 16.796875 8.0625 
Q 21.484375 6.890625 26.703125 6.890625 
Q 35.15625 6.890625 40.078125 11.328125 
Q 45.015625 15.765625 45.015625 23.390625 
Q 45.015625 31 40.078125 35.4375 
Q 35.15625 39.890625 26.703125 39.890625 
Q 22.75 39.890625 18.8125 39.015625 
Q 14.890625 38.140625 10.796875 36.28125 
z
" id="DejaVuSans-53"/>
      </defs>
      <g transform="translate(223.651398 322.182437)scale(0.1 -0.1)">
       <use xlink:href="#DejaVuSans-53"/>
       <use x="63.623047" xlink:href="#DejaVuSans-48"/>
       <use x="127.246094" xlink:href="#DejaVuSans-48"/>
       <use x="190.869141" xlink:href="#DejaVuSans-46"/>
       <use x="222.65625" xlink:href="#DejaVuSans-48"/>
      </g>
     </g>
    </g>
    <g id="xtick_6">
     <g id="line2d_6">
      <g>
       <use style="stroke:#000000;stroke-width:0.8;" x="270.792007" xlink:href="#me6ddbeeede" y="307.584"/>
      </g>
     </g>
     <g id="text_6">
      <!-- 600.0 -->
      <defs>
       <path d="M 33.015625 40.375 
Q 26.375 40.375 22.484375 35.828125 
Q 18.609375 31.296875 18.609375 23.390625 
Q 18.609375 15.53125 22.484375 10.953125 
Q 26.375 6.390625 33.015625 6.390625 
Q 39.65625 6.390625 43.53125 10.953125 
Q 47.40625 15.53125 47.40625 23.390625 
Q 47.40625 31.296875 43.53125 35.828125 
Q 39.65625 40.375 33.015625 40.375 
z
M 52.59375 71.296875 
L 52.59375 62.3125 
Q 48.875 64.0625 45.09375 64.984375 
Q 41.3125 65.921875 37.59375 65.921875 
Q 27.828125 65.921875 22.671875 59.328125 
Q 17.53125 52.734375 16.796875 39.40625 
Q 19.671875 43.65625 24.015625 45.921875 
Q 28.375 48.1875 33.59375 48.1875 
Q 44.578125 48.1875 50.953125 41.515625 
Q 57.328125 34.859375 57.328125 23.390625 
Q 57.328125 12.15625 50.6875 5.359375 
Q 44.046875 -1.421875 33.015625 -1.421875 
Q 20.359375 -1.421875 13.671875 8.265625 
Q 6.984375 17.96875 6.984375 36.375 
Q 6.984375 53.65625 15.1875 63.9375 
Q 23.390625 74.21875 37.203125 74.21875 
Q 40.921875 74.21875 44.703125 73.484375 
Q 48.484375 72.75 52.59375 71.296875 
z
" id="DejaVuSans-54"/>
      </defs>
      <g transform="translate(256.477944 322.182437)scale(0.1 -0.1)">
       <use xlink:href="#DejaVuSans-54"/>
       <use x="63.623047" xlink:href="#DejaVuSans-48"/>
       <use x="127.246094" xlink:href="#DejaVuSans-48"/>
       <use x="190.869141" xlink:href="#DejaVuSans-46"/>
       <use x="222.65625" xlink:href="#DejaVuSans-48"/>
      </g>
     </g>
    </g>
    <g id="xtick_7">
     <g id="line2d_7">
      <g>
       <use style="stroke:#000000;stroke-width:0.8;" x="303.618553" xlink:href="#me6ddbeeede" y="307.584"/>
      </g>
     </g>
     <g id="text_7">
      <!-- 700.0 -->
      <defs>
       <path d="M 8.203125 72.90625 
L 55.078125 72.90625 
L 55.078125 68.703125 
L 28.609375 0 
L 18.3125 0 
L 43.21875 64.59375 
L 8.203125 64.59375 
z
" id="DejaVuSans-55"/>
      </defs>
      <g transform="translate(289.304491 322.182437)scale(0.1 -0.1)">
       <use xlink:href="#DejaVuSans-55"/>
       <use x="63.623047" xlink:href="#DejaVuSans-48"/>
       <use x="127.246094" xlink:href="#DejaVuSans-48"/>
       <use x="190.869141" xlink:href="#DejaVuSans-46"/>
       <use x="222.65625" xlink:href="#DejaVuSans-48"/>
      </g>
     </g>
    </g>
    <g id="xtick_8">
     <g id="line2d_8">
      <g>
       <use style="stroke:#000000;stroke-width:0.8;" x="336.4451" xlink:href="#me6ddbeeede" y="307.584"/>
      </g>
     </g>
     <g id="text_8">
      <!-- 800.0 -->
      <defs>
       <path d="M 31.78125 34.625 
Q 24.75 34.625 20.71875 30.859375 
Q 16.703125 27.09375 16.703125 20.515625 
Q 16.703125 13.921875 20.71875 10.15625 
Q 24.75 6.390625 31.78125 6.390625 
Q 38.8125 6.390625 42.859375 10.171875 
Q 46.921875 13.96875 46.921875 20.515625 
Q 46.921875 27.09375 42.890625 30.859375 
Q 38.875 34.625 31.78125 34.625 
z
M 21.921875 38.8125 
Q 15.578125 40.375 12.03125 44.71875 
Q 8.5 49.078125 8.5 55.328125 
Q 8.5 64.0625 14.71875 69.140625 
Q 20.953125 74.21875 31.78125 74.21875 
Q 42.671875 74.21875 48.875 69.140625 
Q 55.078125 64.0625 55.078125 55.328125 
Q 55.078125 49.078125 51.53125 44.71875 
Q 48 40.375 41.703125 38.8125 
Q 48.828125 37.15625 52.796875 32.3125 
Q 56.78125 27.484375 56.78125 20.515625 
Q 56.78125 9.90625 50.3125 4.234375 
Q 43.84375 -1.421875 31.78125 -1.421875 
Q 19.734375 -1.421875 13.25 4.234375 
Q 6.78125 9.90625 6.78125 20.515625 
Q 6.78125 27.484375 10.78125 32.3125 
Q 14.796875 37.15625 21.921875 38.8125 
z
M 18.3125 54.390625 
Q 18.3125 48.734375 21.84375 45.5625 
Q 25.390625 42.390625 31.78125 42.390625 
Q 38.140625 42.390625 41.71875 45.5625 
Q 45.3125 48.734375 45.3125 54.390625 
Q 45.3125 60.0625 41.71875 63.234375 
Q 38.140625 66.40625 31.78125 66.40625 
Q 25.390625 66.40625 21.84375 63.234375 
Q 18.3125 60.0625 18.3125 54.390625 
z
" id="DejaVuSans-56"/>
      </defs>
      <g transform="translate(322.131037 322.182437)scale(0.1 -0.1)">
       <use xlink:href="#DejaVuSans-56"/>
       <use x="63.623047" xlink:href="#DejaVuSans-48"/>
       <use x="127.246094" xlink:href="#DejaVuSans-48"/>
       <use x="190.869141" xlink:href="#DejaVuSans-46"/>
       <use x="222.65625" xlink:href="#DejaVuSans-48"/>
      </g>
     </g>
    </g>
    <g id="xtick_9">
     <g id="line2d_9">
      <g>
       <use style="stroke:#000000;stroke-width:0.8;" x="369.271646" xlink:href="#me6ddbeeede" y="307.584"/>
      </g>
     </g>
     <g id="text_9">
      <!-- 900.0 -->
      <defs>
       <path d="M 10.984375 1.515625 
L 10.984375 10.5 
Q 14.703125 8.734375 18.5 7.8125 
Q 22.3125 6.890625 25.984375 6.890625 
Q 35.75 6.890625 40.890625 13.453125 
Q 46.046875 20.015625 46.78125 33.40625 
Q 43.953125 29.203125 39.59375 26.953125 
Q 35.25 24.703125 29.984375 24.703125 
Q 19.046875 24.703125 12.671875 31.3125 
Q 6.296875 37.9375 6.296875 49.421875 
Q 6.296875 60.640625 12.9375 67.421875 
Q 19.578125 74.21875 30.609375 74.21875 
Q 43.265625 74.21875 49.921875 64.515625 
Q 56.59375 54.828125 56.59375 36.375 
Q 56.59375 19.140625 48.40625 8.859375 
Q 40.234375 -1.421875 26.421875 -1.421875 
Q 22.703125 -1.421875 18.890625 -0.6875 
Q 15.09375 0.046875 10.984375 1.515625 
z
M 30.609375 32.421875 
Q 37.25 32.421875 41.125 36.953125 
Q 45.015625 41.5 45.015625 49.421875 
Q 45.015625 57.28125 41.125 61.84375 
Q 37.25 66.40625 30.609375 66.40625 
Q 23.96875 66.40625 20.09375 61.84375 
Q 16.21875 57.28125 16.21875 49.421875 
Q 16.21875 41.5 20.09375 36.953125 
Q 23.96875 32.421875 30.609375 32.421875 
z
" id="DejaVuSans-57"/>
      </defs>
      <g transform="translate(354.957584 322.182437)scale(0.1 -0.1)">
       <use xlink:href="#DejaVuSans-57"/>
       <use x="63.623047" xlink:href="#DejaVuSans-48"/>
       <use x="127.246094" xlink:href="#DejaVuSans-48"/>
       <use x="190.869141" xlink:href="#DejaVuSans-46"/>
       <use x="222.65625" xlink:href="#DejaVuSans-48"/>
      </g>
     </g>
    </g>
    <g id="xtick_10">
     <g id="line2d_10">
      <g>
       <use style="stroke:#000000;stroke-width:0.8;" x="402.098193" xlink:href="#me6ddbeeede" y="307.584"/>
      </g>
     </g>
     <g id="text_10">
      <!-- 1000.0 -->
      <g transform="translate(384.60288 322.182437)scale(0.1 -0.1)">
       <use xlink:href="#DejaVuSans-49"/>
       <use x="63.623047" xlink:href="#DejaVuSans-48"/>
       <use x="127.246094" xlink:href="#DejaVuSans-48"/>
       <use x="190.869141" xlink:href="#DejaVuSans-48"/>
       <use x="254.492188" xlink:href="#DejaVuSans-46"/>
       <use x="286.279297" xlink:href="#DejaVuSans-48"/>
      </g>
     </g>
    </g>
    <g id="text_11">
     <!-- n -->
     <defs>
      <path d="M 54.890625 33.015625 
L 54.890625 0 
L 45.90625 0 
L 45.90625 32.71875 
Q 45.90625 40.484375 42.875 44.328125 
Q 39.84375 48.1875 33.796875 48.1875 
Q 26.515625 48.1875 22.3125 43.546875 
Q 18.109375 38.921875 18.109375 30.90625 
L 18.109375 0 
L 9.078125 0 
L 9.078125 54.6875 
L 18.109375 54.6875 
L 18.109375 46.1875 
Q 21.34375 51.125 25.703125 53.5625 
Q 30.078125 56 35.796875 56 
Q 45.21875 56 50.046875 50.171875 
Q 54.890625 44.34375 54.890625 33.015625 
z
" id="DejaVuSans-110"/>
     </defs>
     <g transform="translate(232.99125 335.860562)scale(0.1 -0.1)">
      <use xlink:href="#DejaVuSans-110"/>
     </g>
    </g>
   </g>
   <g id="matplotlib.axis_2">
    <g id="ytick_1">
     <g id="line2d_11">
      <defs>
       <path d="M 0 0 
L -3.5 0 
" id="m0025d52760" style="stroke:#000000;stroke-width:0.8;"/>
      </defs>
      <g>
       <use style="stroke:#000000;stroke-width:0.8;" x="57.6" xlink:href="#m0025d52760" y="303.155966"/>
      </g>
     </g>
     <g id="text_12">
      <!-- 10 -->
      <g transform="translate(37.875 306.955185)scale(0.1 -0.1)">
       <use xlink:href="#DejaVuSans-49"/>
       <use x="63.623047" xlink:href="#DejaVuSans-48"/>
      </g>
     </g>
    </g>
    <g id="ytick_2">
     <g id="line2d_12">
      <g>
       <use style="stroke:#000000;stroke-width:0.8;" x="57.6" xlink:href="#m0025d52760" y="259.960926"/>
      </g>
     </g>
     <g id="text_13">
      <!-- 20 -->
      <g transform="translate(37.875 263.760145)scale(0.1 -0.1)">
       <use xlink:href="#DejaVuSans-50"/>
       <use x="63.623047" xlink:href="#DejaVuSans-48"/>
      </g>
     </g>
    </g>
    <g id="ytick_3">
     <g id="line2d_13">
      <g>
       <use style="stroke:#000000;stroke-width:0.8;" x="57.6" xlink:href="#m0025d52760" y="216.765886"/>
      </g>
     </g>
     <g id="text_14">
      <!-- 30 -->
      <g transform="translate(37.875 220.565105)scale(0.1 -0.1)">
       <use xlink:href="#DejaVuSans-51"/>
       <use x="63.623047" xlink:href="#DejaVuSans-48"/>
      </g>
     </g>
    </g>
    <g id="ytick_4">
     <g id="line2d_14">
      <g>
       <use style="stroke:#000000;stroke-width:0.8;" x="57.6" xlink:href="#m0025d52760" y="173.570846"/>
      </g>
     </g>
     <g id="text_15">
      <!-- 40 -->
      <g transform="translate(37.875 177.370065)scale(0.1 -0.1)">
       <use xlink:href="#DejaVuSans-52"/>
       <use x="63.623047" xlink:href="#DejaVuSans-48"/>
      </g>
     </g>
    </g>
    <g id="ytick_5">
     <g id="line2d_15">
      <g>
       <use style="stroke:#000000;stroke-width:0.8;" x="57.6" xlink:href="#m0025d52760" y="130.375806"/>
      </g>
     </g>
     <g id="text_16">
      <!-- 50 -->
      <g transform="translate(37.875 134.175025)scale(0.1 -0.1)">
       <use xlink:href="#DejaVuSans-53"/>
       <use x="63.623047" xlink:href="#DejaVuSans-48"/>
      </g>
     </g>
    </g>
    <g id="ytick_6">
     <g id="line2d_16">
      <g>
       <use style="stroke:#000000;stroke-width:0.8;" x="57.6" xlink:href="#m0025d52760" y="87.180766"/>
      </g>
     </g>
     <g id="text_17">
      <!-- 60 -->
      <g transform="translate(37.875 90.979985)scale(0.1 -0.1)">
       <use xlink:href="#DejaVuSans-54"/>
       <use x="63.623047" xlink:href="#DejaVuSans-48"/>
      </g>
     </g>
    </g>
    <g id="ytick_7">
     <g id="line2d_17">
      <g>
       <use style="stroke:#000000;stroke-width:0.8;" x="57.6" xlink:href="#m0025d52760" y="43.985726"/>
      </g>
     </g>
     <g id="text_18">
      <!-- 70 -->
      <g transform="translate(37.875 47.784945)scale(0.1 -0.1)">
       <use xlink:href="#DejaVuSans-55"/>
       <use x="63.623047" xlink:href="#DejaVuSans-48"/>
      </g>
     </g>
    </g>
    <g id="text_19">
     <!-- speedup -->
     <defs>
      <path d="M 44.28125 53.078125 
L 44.28125 44.578125 
Q 40.484375 46.53125 36.375 47.5 
Q 32.28125 48.484375 27.875 48.484375 
Q 21.1875 48.484375 17.84375 46.4375 
Q 14.5 44.390625 14.5 40.28125 
Q 14.5 37.15625 16.890625 35.375 
Q 19.28125 33.59375 26.515625 31.984375 
L 29.59375 31.296875 
Q 39.15625 29.25 43.1875 25.515625 
Q 47.21875 21.78125 47.21875 15.09375 
Q 47.21875 7.46875 41.1875 3.015625 
Q 35.15625 -1.421875 24.609375 -1.421875 
Q 20.21875 -1.421875 15.453125 -0.5625 
Q 10.6875 0.296875 5.421875 2 
L 5.421875 11.28125 
Q 10.40625 8.6875 15.234375 7.390625 
Q 20.0625 6.109375 24.8125 6.109375 
Q 31.15625 6.109375 34.5625 8.28125 
Q 37.984375 10.453125 37.984375 14.40625 
Q 37.984375 18.0625 35.515625 20.015625 
Q 33.0625 21.96875 24.703125 23.78125 
L 21.578125 24.515625 
Q 13.234375 26.265625 9.515625 29.90625 
Q 5.8125 33.546875 5.8125 39.890625 
Q 5.8125 47.609375 11.28125 51.796875 
Q 16.75 56 26.8125 56 
Q 31.78125 56 36.171875 55.265625 
Q 40.578125 54.546875 44.28125 53.078125 
z
" id="DejaVuSans-115"/>
      <path d="M 18.109375 8.203125 
L 18.109375 -20.796875 
L 9.078125 -20.796875 
L 9.078125 54.6875 
L 18.109375 54.6875 
L 18.109375 46.390625 
Q 20.953125 51.265625 25.265625 53.625 
Q 29.59375 56 35.59375 56 
Q 45.5625 56 51.78125 48.09375 
Q 58.015625 40.1875 58.015625 27.296875 
Q 58.015625 14.40625 51.78125 6.484375 
Q 45.5625 -1.421875 35.59375 -1.421875 
Q 29.59375 -1.421875 25.265625 0.953125 
Q 20.953125 3.328125 18.109375 8.203125 
z
M 48.6875 27.296875 
Q 48.6875 37.203125 44.609375 42.84375 
Q 40.53125 48.484375 33.40625 48.484375 
Q 26.265625 48.484375 22.1875 42.84375 
Q 18.109375 37.203125 18.109375 27.296875 
Q 18.109375 17.390625 22.1875 11.75 
Q 26.265625 6.109375 33.40625 6.109375 
Q 40.53125 6.109375 44.609375 11.75 
Q 48.6875 17.390625 48.6875 27.296875 
z
" id="DejaVuSans-112"/>
      <path d="M 56.203125 29.59375 
L 56.203125 25.203125 
L 14.890625 25.203125 
Q 15.484375 15.921875 20.484375 11.0625 
Q 25.484375 6.203125 34.421875 6.203125 
Q 39.59375 6.203125 44.453125 7.46875 
Q 49.3125 8.734375 54.109375 11.28125 
L 54.109375 2.78125 
Q 49.265625 0.734375 44.1875 -0.34375 
Q 39.109375 -1.421875 33.890625 -1.421875 
Q 20.796875 -1.421875 13.15625 6.1875 
Q 5.515625 13.8125 5.515625 26.8125 
Q 5.515625 40.234375 12.765625 48.109375 
Q 20.015625 56 32.328125 56 
Q 43.359375 56 49.78125 48.890625 
Q 56.203125 41.796875 56.203125 29.59375 
z
M 47.21875 32.234375 
Q 47.125 39.59375 43.09375 43.984375 
Q 39.0625 48.390625 32.421875 48.390625 
Q 24.90625 48.390625 20.390625 44.140625 
Q 15.875 39.890625 15.1875 32.171875 
z
" id="DejaVuSans-101"/>
      <path d="M 45.40625 46.390625 
L 45.40625 75.984375 
L 54.390625 75.984375 
L 54.390625 0 
L 45.40625 0 
L 45.40625 8.203125 
Q 42.578125 3.328125 38.25 0.953125 
Q 33.9375 -1.421875 27.875 -1.421875 
Q 17.96875 -1.421875 11.734375 6.484375 
Q 5.515625 14.40625 5.515625 27.296875 
Q 5.515625 40.1875 11.734375 48.09375 
Q 17.96875 56 27.875 56 
Q 33.9375 56 38.25 53.625 
Q 42.578125 51.265625 45.40625 46.390625 
z
M 14.796875 27.296875 
Q 14.796875 17.390625 18.875 11.75 
Q 22.953125 6.109375 30.078125 6.109375 
Q 37.203125 6.109375 41.296875 11.75 
Q 45.40625 17.390625 45.40625 27.296875 
Q 45.40625 37.203125 41.296875 42.84375 
Q 37.203125 48.484375 30.078125 48.484375 
Q 22.953125 48.484375 18.875 42.84375 
Q 14.796875 37.203125 14.796875 27.296875 
z
" id="DejaVuSans-100"/>
      <path d="M 8.5 21.578125 
L 8.5 54.6875 
L 17.484375 54.6875 
L 17.484375 21.921875 
Q 17.484375 14.15625 20.5 10.265625 
Q 23.53125 6.390625 29.59375 6.390625 
Q 36.859375 6.390625 41.078125 11.03125 
Q 45.3125 15.671875 45.3125 23.6875 
L 45.3125 54.6875 
L 54.296875 54.6875 
L 54.296875 0 
L 45.3125 0 
L 45.3125 8.40625 
Q 42.046875 3.421875 37.71875 1 
Q 33.40625 -1.421875 27.6875 -1.421875 
Q 18.265625 -1.421875 13.375 4.4375 
Q 8.5 10.296875 8.5 21.578125 
z
M 31.109375 56 
z
" id="DejaVuSans-117"/>
     </defs>
     <g transform="translate(31.795312 195.977219)rotate(-90)scale(0.1 -0.1)">
      <use xlink:href="#DejaVuSans-115"/>
      <use x="52.099609" xlink:href="#DejaVuSans-112"/>
      <use x="115.576172" xlink:href="#DejaVuSans-101"/>
      <use x="177.099609" xlink:href="#DejaVuSans-101"/>
      <use x="238.623047" xlink:href="#DejaVuSans-100"/>
      <use x="302.099609" xlink:href="#DejaVuSans-117"/>
      <use x="365.478516" xlink:href="#DejaVuSans-112"/>
     </g>
    </g>
   </g>
   <g id="line2d_18">
    <path clip-path="url(#pe4e83e25af)" d="M 73.832727 259.087365 
L 74.160993 224.09611 
L 74.489258 211.372072 
L 74.817524 234.436475 
L 75.145789 240.216326 
L 75.474055 235.271079 
L 75.80232 241.735859 
L 76.130586 189.541894 
L 76.458851 205.669382 
L 77.115382 178.406656 
L 77.443647 188.53939 
L 77.771913 149.80112 
L 78.100178 205.704307 
L 78.428444 186.342792 
L 78.756709 200.226726 
L 79.084975 188.324733 
L 79.41324 186.648562 
L 79.741506 190.900734 
L 80.069771 178.49629 
L 80.398037 186.869423 
L 80.726302 183.599827 
L 81.054568 187.334531 
L 81.382833 188.78297 
L 81.711098 217.153472 
L 82.039364 181.071538 
L 82.367629 196.592593 
L 82.695895 188.372769 
L 83.02416 173.465488 
L 83.352426 188.869935 
L 83.680691 189.948023 
L 84.008957 192.188278 
L 84.337222 196.128487 
L 84.665488 186.63978 
L 84.993753 197.497693 
L 85.322019 191.929576 
L 85.650284 182.990685 
L 85.978549 187.498463 
L 86.306815 181.392645 
L 86.63508 218.159525 
L 86.963346 185.610863 
L 87.291611 198.637546 
L 87.619877 193.050987 
L 87.948142 198.502328 
L 88.276408 189.646049 
L 88.604673 198.638783 
L 88.932939 190.387172 
L 89.261204 202.395442 
L 89.58947 219.604884 
L 89.917735 175.757759 
L 90.246001 202.734758 
L 90.574266 196.429995 
L 90.902531 195.211122 
L 91.230797 195.69758 
L 91.559062 210.210163 
L 91.887328 192.100058 
L 92.215593 189.419901 
L 92.543859 181.636205 
L 93.20039 200.932115 
L 93.528655 228.585829 
L 93.856921 191.285789 
L 94.185186 193.50879 
L 94.513452 201.646128 
L 94.841717 187.207272 
L 95.498248 209.003555 
L 95.826513 192.422582 
L 96.154779 164.753506 
L 96.483044 114.6859 
L 96.81131 116.025926 
L 97.139575 197.859179 
L 97.467841 192.409027 
L 97.796106 203.336585 
L 98.124372 187.963765 
L 98.452637 196.440617 
L 98.780903 198.129577 
L 99.109168 188.559823 
L 99.765699 200.229107 
L 100.093965 198.112086 
L 100.42223 194.632417 
L 100.750495 203.613051 
L 101.078761 194.957059 
L 101.407026 203.712648 
L 101.735292 199.051186 
L 102.063557 197.970893 
L 102.391823 219.190629 
L 102.720088 200.317993 
L 103.048354 198.463995 
L 103.376619 199.596817 
L 103.704885 192.32473 
L 104.03315 202.286057 
L 104.361416 181.802337 
L 104.689681 200.262561 
L 105.017947 200.371767 
L 105.346212 194.218822 
L 105.674477 192.465723 
L 106.002743 213.921849 
L 106.659274 194.728177 
L 106.987539 206.70709 
L 107.315805 168.725329 
L 107.64407 114.068589 
L 107.972336 200.305725 
L 108.300601 200.392917 
L 108.628867 188.45538 
L 108.957132 183.225442 
L 109.285398 157.560634 
L 109.613663 160.876693 
L 109.941928 151.402092 
L 110.270194 185.204946 
L 110.598459 160.972747 
L 110.926725 159.82317 
L 111.583256 163.456046 
L 111.911521 163.152645 
L 112.568052 199.85687 
L 112.896318 191.238755 
L 113.224583 190.733845 
L 113.552849 163.412797 
L 113.881114 190.701265 
L 114.20938 166.469911 
L 114.537645 160.383818 
L 114.86591 163.442302 
L 115.194176 162.589056 
L 115.522441 168.135592 
L 115.850707 162.020391 
L 116.178972 165.200888 
L 116.507238 171.11546 
L 116.835503 172.278488 
L 117.163769 190.703926 
L 117.492034 159.991149 
L 117.8203 201.336605 
L 118.148565 200.749731 
L 118.476831 200.394096 
L 118.805096 212.620395 
L 119.133362 205.260259 
L 119.461627 215.813803 
L 119.789892 211.965372 
L 120.118158 223.081797 
L 120.446423 210.789128 
L 120.774689 213.96301 
L 121.102954 205.17497 
L 121.759485 214.564111 
L 122.087751 212.126444 
L 122.416016 234.67242 
L 122.744282 226.244243 
L 123.072547 212.726306 
L 123.400813 173.331288 
L 123.729078 212.605891 
L 124.057344 213.965688 
L 124.385609 213.683858 
L 124.713874 210.726913 
L 125.04214 215.213176 
L 125.370405 207.245461 
L 125.698671 207.754188 
L 126.026936 213.722266 
L 126.355202 209.719198 
L 126.683467 208.522831 
L 127.011733 201.949091 
L 127.339998 205.238072 
L 127.668264 224.96643 
L 127.996529 210.506816 
L 128.324795 207.93945 
L 128.981325 224.474026 
L 129.309591 213.771474 
L 129.637856 209.87527 
L 129.966122 209.38909 
L 130.294387 227.298466 
L 130.622653 215.351964 
L 130.950918 260.66601 
L 131.279184 157.748891 
L 131.607449 223.791914 
L 131.935715 212.501529 
L 132.26398 207.347757 
L 132.592246 211.070821 
L 132.920511 211.727873 
L 133.248777 176.919355 
L 133.577042 215.196777 
L 133.905307 223.291038 
L 134.233573 203.483735 
L 134.561838 210.754385 
L 134.890104 211.219681 
L 135.218369 209.106769 
L 135.546635 218.182066 
L 135.8749 220.822262 
L 136.203166 213.390798 
L 136.531431 214.348578 
L 136.859697 231.662001 
L 137.187962 197.216615 
L 137.844493 225.950458 
L 138.172759 215.460812 
L 138.501024 244.801293 
L 138.829289 220.066575 
L 139.157555 217.704044 
L 139.48582 217.527851 
L 139.814086 226.069891 
L 140.142351 219.675955 
L 140.470617 220.878029 
L 140.798882 218.290668 
L 141.127148 212.886317 
L 141.455413 216.466842 
L 141.783679 238.375986 
L 142.111944 221.583748 
L 142.44021 220.450389 
L 142.768475 215.835176 
L 143.096741 228.762658 
L 143.425006 201.487549 
L 143.753271 206.343366 
L 144.081537 204.209172 
L 144.409802 236.083692 
L 144.738068 218.238572 
L 145.066333 216.674014 
L 145.394599 225.985256 
L 145.722864 217.857735 
L 146.05113 219.754142 
L 146.379395 225.624102 
L 146.707661 216.868689 
L 147.035926 236.701261 
L 147.364192 228.195548 
L 147.692457 235.09058 
L 148.020722 225.050172 
L 148.348988 221.225784 
L 148.677253 214.582626 
L 149.005519 232.803266 
L 149.333784 211.375787 
L 149.66205 224.231177 
L 149.990315 217.717753 
L 150.318581 219.161812 
L 150.646846 230.299973 
L 150.975112 217.43593 
L 151.303377 218.539249 
L 151.631643 216.300972 
L 151.959908 210.94888 
L 152.288174 210.521729 
L 152.616439 217.920871 
L 152.944704 222.090051 
L 153.27297 216.83204 
L 153.601235 221.592256 
L 153.929501 233.984238 
L 154.257766 224.727706 
L 154.586032 220.618527 
L 154.914297 223.586208 
L 155.242563 176.223395 
L 155.570828 222.032353 
L 155.899094 211.426355 
L 156.227359 222.458821 
L 156.555625 221.130539 
L 156.88389 220.858886 
L 157.212156 228.520732 
L 157.540421 226.246957 
L 157.868686 222.545972 
L 158.196952 185.22768 
L 158.525217 217.138095 
L 158.853483 221.456337 
L 159.181748 217.236895 
L 159.510014 219.52118 
L 159.838279 223.277935 
L 160.166545 225.629331 
L 160.49481 223.640052 
L 160.823076 225.999142 
L 161.151341 236.439077 
L 161.479607 229.308331 
L 161.807872 234.138197 
L 162.136138 233.578449 
L 162.464403 228.461589 
L 162.792668 232.977867 
L 163.120934 222.372199 
L 163.449199 225.152366 
L 163.777465 237.389415 
L 164.10573 227.982691 
L 164.762261 246.572281 
L 165.090527 226.128348 
L 165.418792 227.402772 
L 165.747058 225.173949 
L 166.403589 232.162833 
L 166.731854 229.26181 
L 167.060119 249.038168 
L 167.388385 229.624548 
L 167.71665 236.913208 
L 168.044916 228.086479 
L 168.373181 235.084413 
L 168.701447 221.21573 
L 169.029712 234.346066 
L 169.357978 226.427975 
L 169.686243 234.335304 
L 170.014509 234.062225 
L 170.342774 227.339312 
L 170.67104 225.49301 
L 170.999305 234.709877 
L 171.327571 226.710541 
L 171.655836 221.435012 
L 171.984101 228.105288 
L 172.312367 227.183165 
L 172.640632 232.713836 
L 172.968898 228.372059 
L 173.297163 229.610333 
L 173.625429 226.076169 
L 173.953694 225.679859 
L 174.28196 222.807297 
L 174.610225 229.6093 
L 174.938491 224.133355 
L 175.266756 230.098577 
L 175.595022 229.446583 
L 175.923287 226.406368 
L 176.251553 235.655606 
L 176.579818 235.597585 
L 176.908083 213.126865 
L 177.236349 237.416154 
L 177.564614 224.345858 
L 177.89288 223.044066 
L 178.549411 210.885987 
L 178.877676 211.068196 
L 179.205942 213.089551 
L 179.534207 211.050214 
L 179.862473 230.194476 
L 180.190738 234.276214 
L 180.519004 231.513395 
L 180.847269 236.205425 
L 181.175535 239.25939 
L 181.5038 233.862701 
L 181.832065 237.081622 
L 182.160331 235.302093 
L 182.488596 227.532746 
L 182.816862 264.130749 
L 183.145127 234.927729 
L 183.473393 226.87435 
L 183.801658 231.266074 
L 184.129924 225.17093 
L 184.458189 235.334711 
L 184.786455 231.618527 
L 185.11472 234.18104 
L 185.442986 202.723281 
L 185.771251 239.071257 
L 186.099516 250.90049 
L 186.427782 268.587163 
L 187.084313 244.961131 
L 187.412578 254.529368 
L 187.740844 245.07999 
L 188.069109 259.112166 
L 188.397375 236.452456 
L 188.72564 241.38336 
L 189.053906 230.70478 
L 189.382171 232.888348 
L 189.710437 249.95305 
L 190.038702 239.573923 
L 190.366968 254.151923 
L 190.695233 232.395286 
L 191.023498 231.399136 
L 191.351764 250.553291 
L 192.008295 237.72518 
L 192.33656 233.104188 
L 192.664826 236.989745 
L 192.993091 233.456802 
L 193.321357 223.224399 
L 193.649622 234.673342 
L 193.977888 234.236308 
L 194.306153 230.536002 
L 194.634419 244.827176 
L 194.962684 243.771674 
L 195.619215 233.927629 
L 195.94748 237.090928 
L 196.275746 236.572977 
L 196.604011 232.139972 
L 196.932277 239.613702 
L 197.260542 241.431329 
L 197.588808 232.40643 
L 197.917073 236.754559 
L 198.245339 204.257819 
L 198.573604 240.337961 
L 198.90187 235.42431 
L 199.230135 236.203408 
L 199.558401 237.758742 
L 199.886666 235.897309 
L 200.214932 247.726607 
L 200.543197 236.474496 
L 200.871462 243.08965 
L 201.199728 231.15518 
L 201.527993 250.504377 
L 201.856259 242.417873 
L 202.184524 244.688844 
L 202.51279 239.71621 
L 202.841055 242.095687 
L 203.169321 238.092015 
L 203.497586 239.739411 
L 203.825852 232.732707 
L 204.154117 234.997371 
L 204.482383 244.332969 
L 204.810648 242.275916 
L 205.138914 244.625895 
L 205.467179 233.45609 
L 205.795444 238.602912 
L 206.12371 238.568495 
L 206.451975 241.041569 
L 206.780241 237.184351 
L 207.108506 241.376482 
L 207.436772 233.76035 
L 207.765037 237.681438 
L 208.093303 234.592046 
L 208.421568 235.166539 
L 208.749834 221.978969 
L 209.078099 243.033452 
L 209.406365 242.426035 
L 209.73463 235.412553 
L 210.062895 232.687552 
L 210.391161 240.325202 
L 210.719426 242.327123 
L 211.047692 231.700919 
L 211.375957 231.747361 
L 211.704223 241.754932 
L 212.032488 239.613248 
L 212.360754 240.762424 
L 212.689019 241.135206 
L 213.017285 238.903652 
L 213.34555 246.205589 
L 213.673816 243.021831 
L 214.002081 236.118333 
L 214.330347 239.28894 
L 214.658612 239.731001 
L 214.986877 239.521934 
L 215.315143 242.282977 
L 215.643408 242.63855 
L 215.971674 230.052101 
L 216.299939 255.253597 
L 216.628205 239.755868 
L 216.95647 235.565521 
L 217.284736 244.847832 
L 217.613001 246.311151 
L 217.941267 239.952892 
L 218.269532 261.178726 
L 218.597798 247.261735 
L 219.254329 236.917948 
L 219.582594 239.4819 
L 219.910859 240.557582 
L 220.239125 240.223387 
L 220.895656 241.756825 
L 221.223921 237.417103 
L 221.552187 250.749013 
L 221.880452 242.357567 
L 222.208718 244.309265 
L 222.536983 233.876152 
L 222.865249 234.249262 
L 223.193514 238.16449 
L 223.850045 247.840005 
L 224.178311 202.124117 
L 224.506576 241.034679 
L 224.834841 243.431752 
L 225.163107 203.902161 
L 225.491372 209.809378 
L 225.819638 208.193195 
L 226.147903 210.339761 
L 226.476169 206.704298 
L 226.804434 210.295499 
L 227.1327 188.136875 
L 227.460965 208.877517 
L 227.789231 246.584916 
L 228.117496 244.141846 
L 228.445762 249.287967 
L 228.774027 251.929402 
L 229.102292 242.852005 
L 229.430558 253.34099 
L 229.758823 243.796428 
L 230.087089 247.776041 
L 230.415354 250.04306 
L 230.74362 250.908895 
L 231.071885 251.156201 
L 231.400151 254.799629 
L 231.728416 243.890734 
L 232.056682 247.51115 
L 232.384947 230.210334 
L 232.713213 257.369924 
L 233.041478 236.727407 
L 233.369744 208.16783 
L 233.698009 238.551373 
L 234.026274 234.877662 
L 234.35454 207.948811 
L 234.682805 208.724591 
L 235.011071 202.209295 
L 235.339336 203.656846 
L 235.667602 211.740448 
L 235.995867 209.96485 
L 236.324133 202.675996 
L 236.652398 208.99597 
L 236.980664 254.768836 
L 237.308929 243.678871 
L 237.637195 238.418952 
L 238.293726 256.049793 
L 238.621991 249.275408 
L 238.950256 261.226996 
L 239.278522 250.423803 
L 239.606787 254.068593 
L 239.935053 245.946572 
L 240.263318 241.578622 
L 240.591584 248.442024 
L 240.919849 234.432803 
L 241.248115 262.384492 
L 241.57638 266.723852 
L 241.904646 265.580045 
L 242.232911 262.889335 
L 242.561177 265.818573 
L 242.889442 250.126636 
L 243.217708 276.167497 
L 243.545973 267.827587 
L 243.874238 269.035961 
L 244.202504 249.415462 
L 244.530769 252.74992 
L 244.859035 257.941192 
L 245.843831 220.849873 
L 246.172097 232.321989 
L 246.500362 248.752809 
L 246.828628 255.932536 
L 247.156893 251.460821 
L 247.485159 264.662945 
L 247.813424 260.813631 
L 248.141689 251.718279 
L 248.469955 263.311452 
L 248.79822 258.973481 
L 249.126486 259.516061 
L 249.454751 255.259623 
L 249.783017 259.26994 
L 250.111282 272.677479 
L 250.439548 267.991885 
L 250.767813 275.464643 
L 251.096079 255.548025 
L 251.424344 258.40205 
L 251.75261 259.869268 
L 252.080875 269.975308 
L 252.409141 269.489671 
L 252.737406 257.92243 
L 253.065671 275.841365 
L 253.393937 262.153924 
L 253.722202 280.376384 
L 254.050468 256.72479 
L 254.378733 256.875915 
L 254.706999 272.815655 
L 255.035264 272.775023 
L 255.691795 263.911464 
L 256.020061 269.200213 
L 256.348326 261.834424 
L 256.676592 262.344814 
L 257.661388 237.481476 
L 257.989653 246.60751 
L 258.317919 268.587697 
L 258.646184 243.882952 
L 258.97445 263.26734 
L 259.302715 261.229585 
L 259.630981 266.693209 
L 259.959246 263.255046 
L 260.287512 246.330975 
L 260.615777 268.74549 
L 260.944043 243.997339 
L 261.272308 256.504411 
L 261.600574 246.347168 
L 261.928839 272.974172 
L 262.257105 251.838949 
L 262.58537 252.354222 
L 263.241901 265.324968 
L 263.570166 254.042262 
L 263.898432 272.295683 
L 264.226697 264.175194 
L 264.554963 270.830472 
L 264.883228 280.484882 
L 265.211494 245.698238 
L 265.539759 228.513123 
L 265.868025 261.927433 
L 266.19629 261.909717 
L 266.524556 248.55901 
L 266.852821 244.625131 
L 267.181086 262.223374 
L 267.509352 260.777102 
L 267.837617 253.060006 
L 268.165883 268.559315 
L 268.494148 247.000038 
L 268.822414 266.94275 
L 269.150679 245.031767 
L 269.478945 263.83309 
L 269.80721 248.564207 
L 270.135476 250.687002 
L 270.463741 259.965804 
L 270.792007 257.677883 
L 271.120272 247.294869 
L 271.448538 262.805146 
L 271.776803 264.482913 
L 272.105068 252.660656 
L 272.433334 250.635461 
L 272.761599 242.60325 
L 273.089865 255.83801 
L 273.41813 254.872697 
L 273.746396 249.146871 
L 274.074661 260.942995 
L 274.402927 258.736625 
L 274.731192 261.562143 
L 275.059458 262.028178 
L 275.387723 253.731704 
L 275.715989 253.180879 
L 276.044254 257.269282 
L 276.37252 263.264075 
L 277.02905 249.787081 
L 277.357316 250.369425 
L 277.685581 260.040236 
L 278.013847 263.639002 
L 278.342112 260.404081 
L 278.670378 254.28067 
L 278.998643 255.650143 
L 279.326909 263.791955 
L 279.655174 264.573167 
L 279.98344 248.635825 
L 280.311705 261.026451 
L 280.639971 252.443356 
L 281.296502 265.429363 
L 281.624767 252.732214 
L 281.953032 266.905324 
L 282.281298 260.191082 
L 282.609563 250.13462 
L 282.937829 266.9291 
L 283.59436 250.03093 
L 283.922625 259.652026 
L 284.250891 250.910358 
L 284.579156 264.985619 
L 284.907422 271.385478 
L 285.235687 264.754368 
L 285.563953 253.441773 
L 285.892218 256.201605 
L 286.220484 264.979722 
L 286.548749 251.937117 
L 286.877014 252.195609 
L 287.20528 261.74838 
L 287.533545 264.450431 
L 287.861811 253.719971 
L 288.190076 257.411574 
L 288.518342 254.973318 
L 288.846607 253.609142 
L 289.174873 256.310008 
L 289.503138 245.052894 
L 289.831404 253.375292 
L 290.159669 257.754361 
L 290.487935 260.20287 
L 290.8162 260.485459 
L 291.144465 263.055731 
L 291.472731 261.081238 
L 291.800996 267.744205 
L 292.129262 263.711686 
L 292.457527 252.937448 
L 292.785793 266.229272 
L 293.114058 253.041941 
L 293.442324 266.247322 
L 293.770589 263.703787 
L 294.098855 253.900226 
L 294.42712 265.861346 
L 294.755386 263.451873 
L 295.083651 263.292545 
L 295.411917 262.089064 
L 295.740182 249.188005 
L 296.068447 265.025058 
L 296.396713 263.265802 
L 296.724978 254.984579 
L 297.053244 260.383651 
L 297.381509 273.107981 
L 297.709775 268.147279 
L 298.03804 259.239207 
L 298.366306 274.741577 
L 298.694571 272.581311 
L 299.022837 259.032869 
L 299.351102 254.446182 
L 299.679368 279.011167 
L 300.007633 255.260524 
L 300.664164 252.104877 
L 300.992429 256.994266 
L 301.320695 258.610285 
L 301.64896 257.919314 
L 301.977226 266.539585 
L 302.305491 263.483182 
L 302.633757 269.691859 
L 302.962022 263.173754 
L 303.290288 267.413617 
L 303.618553 253.970844 
L 303.946819 251.174752 
L 304.275084 270.468234 
L 304.931615 252.596608 
L 305.259881 266.17524 
L 305.588146 270.045289 
L 305.916411 261.744221 
L 306.244677 272.043089 
L 306.572942 261.250288 
L 306.901208 268.531036 
L 307.229473 267.157322 
L 307.557739 266.803616 
L 307.886004 271.900728 
L 308.21427 267.81077 
L 308.542535 256.230065 
L 308.870801 267.46184 
L 309.199066 252.198039 
L 309.855597 264.209561 
L 310.183862 257.647639 
L 310.512128 265.020253 
L 310.840393 277.249537 
L 311.168659 268.636746 
L 311.496924 251.457208 
L 311.82519 255.461128 
L 312.153455 263.214818 
L 312.481721 258.373915 
L 312.809986 257.743771 
L 313.138252 273.578172 
L 313.466517 280.715786 
L 313.794783 255.778462 
L 314.123048 245.661391 
L 314.451314 225.84162 
L 314.779579 249.296254 
L 315.107844 253.248364 
L 315.43611 255.61722 
L 315.764375 253.67851 
L 316.092641 261.317605 
L 316.420906 263.623396 
L 316.749172 240.990791 
L 317.077437 256.587646 
L 317.405703 265.425373 
L 317.733968 270.740131 
L 318.062234 269.933705 
L 318.390499 259.810299 
L 318.718765 276.030009 
L 319.04703 263.317337 
L 319.375296 255.605464 
L 319.703561 257.265565 
L 320.031826 265.475404 
L 320.360092 257.974994 
L 320.688357 253.463479 
L 321.016623 259.958771 
L 321.344888 259.089317 
L 321.673154 252.884505 
L 322.001419 257.40014 
L 322.329685 266.413603 
L 322.65795 264.518654 
L 322.986216 267.591554 
L 323.314481 268.062025 
L 323.642747 267.441728 
L 323.971012 259.33749 
L 324.299278 276.553946 
L 324.627543 265.262523 
L 324.955808 269.375797 
L 325.284074 263.255978 
L 325.612339 276.694386 
L 325.940605 262.119996 
L 326.26887 275.021202 
L 326.597136 262.660798 
L 326.925401 262.469037 
L 327.253667 262.129211 
L 327.581932 270.936475 
L 327.910198 261.279737 
L 328.238463 264.005898 
L 328.566729 251.873893 
L 328.894994 261.257645 
L 329.223259 263.763739 
L 329.551525 250.324485 
L 329.87979 253.426001 
L 330.208056 240.9251 
L 330.536321 238.817987 
L 330.864587 231.280432 
L 331.192852 237.136616 
L 331.521118 227.182636 
L 331.849383 238.930204 
L 332.177649 227.781939 
L 332.505914 227.17856 
L 332.83418 264.590197 
L 333.162445 259.76462 
L 333.490711 264.235245 
L 333.818976 272.902015 
L 334.147241 266.953172 
L 334.475507 263.383465 
L 334.803772 277.257694 
L 335.132038 261.276814 
L 335.460303 262.800832 
L 335.788569 276.188631 
L 336.4451 258.418111 
L 336.773365 261.754552 
L 337.101631 261.6771 
L 337.429896 257.770392 
L 337.758162 256.567787 
L 338.086427 269.2811 
L 338.414693 261.077955 
L 338.742958 274.488827 
L 339.071223 265.421908 
L 339.399489 260.717547 
L 339.727754 265.311465 
L 340.384285 260.113151 
L 340.712551 259.305442 
L 341.040816 271.594432 
L 341.369082 261.757946 
L 341.697347 258.141708 
L 342.025613 273.669766 
L 342.353878 260.056178 
L 342.682144 275.597248 
L 343.338675 261.144744 
L 343.66694 262.085856 
L 343.995205 261.392361 
L 344.323471 259.56253 
L 344.651736 265.850968 
L 344.980002 269.297342 
L 345.308267 263.7806 
L 345.636533 263.93795 
L 345.964798 263.060918 
L 346.293064 271.08331 
L 346.621329 264.943024 
L 346.949595 265.635913 
L 347.27786 276.747353 
L 347.606126 272.798209 
L 347.934391 271.266261 
L 348.262656 274.904202 
L 348.590922 271.700266 
L 348.919187 270.232394 
L 349.247453 274.274055 
L 349.575718 264.634438 
L 349.903984 274.649591 
L 350.232249 273.89622 
L 350.88878 264.214738 
L 351.217046 263.748257 
L 351.545311 276.547632 
L 351.873577 277.136022 
L 352.201842 269.407726 
L 352.530108 270.905086 
L 352.858373 269.681009 
L 353.186638 277.369502 
L 353.514904 277.344027 
L 353.843169 281.868181 
L 354.171435 276.429814 
L 354.4997 268.879057 
L 354.827966 276.752807 
L 355.156231 269.951326 
L 355.484497 272.359081 
L 355.812762 258.6053 
L 356.141028 275.082157 
L 356.469293 281.78137 
L 356.797559 282.688064 
L 357.45409 259.85598 
L 357.782355 276.405876 
L 358.11062 279.442337 
L 358.438886 272.188609 
L 358.767151 270.117389 
L 359.095417 280.381748 
L 359.423682 280.194065 
L 359.751948 281.078241 
L 360.080213 260.219171 
L 360.408479 276.92173 
L 360.736744 269.094222 
L 361.393275 281.304813 
L 361.721541 274.058603 
L 362.049806 283.656418 
L 362.378072 269.153636 
L 362.706337 268.090543 
L 363.034602 273.929848 
L 363.362868 267.379423 
L 363.691133 265.678512 
L 364.019399 275.066156 
L 364.347664 278.380166 
L 364.67593 269.250671 
L 365.332461 273.440755 
L 365.660726 283.35922 
L 365.988992 269.237276 
L 366.317257 263.264447 
L 366.645523 269.385405 
L 366.973788 280.87653 
L 367.302053 259.245739 
L 367.630319 260.819598 
L 367.958584 272.106349 
L 368.28685 272.225747 
L 368.615115 273.640046 
L 368.943381 270.443895 
L 369.271646 253.894215 
L 369.599912 261.078931 
L 369.928177 271.943882 
L 370.256443 272.124197 
L 370.584708 266.002747 
L 370.912974 280.89628 
L 371.241239 282.026452 
L 371.569505 266.250087 
L 371.89777 280.028673 
L 372.554301 263.400961 
L 372.882566 275.885041 
L 373.210832 266.095348 
L 373.539097 262.805104 
L 373.867363 267.253673 
L 374.195628 277.054371 
L 374.523894 264.903033 
L 374.852159 260.716208 
L 375.180425 264.192878 
L 375.50869 264.693956 
L 375.836956 261.174441 
L 376.165221 263.655649 
L 376.493487 273.572291 
L 376.821752 259.807356 
L 377.150017 261.578599 
L 377.478283 273.845885 
L 377.806548 271.87424 
L 378.134814 262.526268 
L 378.463079 273.07342 
L 378.791345 278.355288 
L 379.11961 268.928883 
L 379.447876 273.443692 
L 379.776141 275.625307 
L 380.104407 264.746188 
L 380.432672 275.943328 
L 381.089203 263.996936 
L 381.417469 263.451033 
L 381.745734 266.760441 
L 382.073999 273.083426 
L 382.402265 261.503076 
L 382.73053 270.731906 
L 383.058796 275.007584 
L 383.387061 274.044514 
L 383.715327 283.103156 
L 384.043592 271.946087 
L 384.371858 275.883595 
L 384.700123 272.84263 
L 385.028389 279.668768 
L 385.356654 278.180658 
L 385.68492 275.766728 
L 386.013185 263.741868 
L 386.669716 286.610724 
L 386.997981 273.1405 
L 387.326247 274.741547 
L 387.654512 274.610142 
L 388.311043 283.283619 
L 388.639309 276.684761 
L 388.967574 280.400379 
L 389.29584 266.604525 
L 389.624105 270.432646 
L 389.952371 278.420313 
L 390.280636 272.411432 
L 390.608902 279.169101 
L 390.937167 268.76457 
L 391.265432 271.112362 
L 391.921963 272.216539 
L 392.250229 272.235965 
L 392.578494 266.225049 
L 392.90676 264.495355 
L 393.235025 274.709706 
L 393.563291 277.385445 
L 393.891556 266.451923 
L 394.219822 271.85908 
L 394.548087 280.194249 
L 394.876353 277.27664 
L 395.204618 278.803926 
L 395.532884 273.4024 
L 395.861149 273.537249 
L 396.189414 277.183224 
L 396.51768 289.356614 
L 397.174211 279.897386 
L 397.502476 266.396827 
L 397.830742 262.86005 
L 398.159007 278.361774 
L 398.487273 261.901916 
L 398.487273 261.901916 
" style="fill:none;stroke:#1f77b4;stroke-linecap:square;stroke-width:1.5;"/>
   </g>
   <g id="line2d_19">
    <path clip-path="url(#pe4e83e25af)" d="M 73.832727 246.69575 
L 74.160993 190.427868 
L 74.489258 190.4408 
L 74.817524 138.319283 
L 75.145789 205.133297 
L 75.474055 175.499692 
L 75.80232 200.426255 
L 76.130586 137.314684 
L 76.458851 102.103854 
L 76.787116 53.568 
L 77.115382 149.325271 
L 77.443647 149.851502 
L 77.771913 70.592746 
L 78.100178 80.319891 
L 78.756709 117.188808 
L 79.084975 116.930303 
L 79.41324 145.211538 
L 79.741506 192.291891 
L 80.069771 143.915333 
L 80.398037 139.339831 
L 80.726302 100.65204 
L 81.054568 119.438484 
L 81.382833 198.469075 
L 81.711098 188.098841 
L 82.039364 200.660772 
L 82.367629 187.082535 
L 82.695895 191.761069 
L 83.02416 138.655998 
L 83.352426 203.664328 
L 83.680691 193.780925 
L 84.008957 167.594453 
L 84.337222 218.792783 
L 84.665488 172.615383 
L 84.993753 146.370561 
L 85.322019 154.687833 
L 85.650284 150.968203 
L 85.978549 152.246721 
L 86.306815 152.620454 
L 86.63508 149.534187 
L 86.963346 158.156099 
L 87.291611 150.142031 
L 87.619877 191.780388 
L 87.948142 190.930433 
L 88.276408 198.599527 
L 88.604673 197.604113 
L 88.932939 176.682302 
L 89.261204 201.819618 
L 89.58947 203.275201 
L 89.917735 252.492971 
L 90.246001 190.333593 
L 90.574266 188.577537 
L 91.230797 200.072631 
L 91.559062 193.906858 
L 91.887328 195.693421 
L 92.215593 207.22593 
L 92.543859 198.692505 
L 92.872124 206.557751 
L 93.20039 201.668978 
L 93.528655 204.977992 
L 93.856921 203.12844 
L 94.185186 205.021107 
L 94.513452 186.691472 
L 94.841717 212.108116 
L 95.169983 208.107975 
L 95.826513 152.735416 
L 96.154779 156.366049 
L 96.483044 193.44437 
L 97.139575 205.407742 
L 97.467841 206.553615 
L 98.124372 163.561822 
L 98.452637 159.649179 
L 98.780903 165.707595 
L 99.109168 159.127773 
L 99.437434 109.865066 
L 99.765699 159.365139 
L 100.093965 157.18491 
L 100.42223 169.964421 
L 100.750495 160.109734 
L 101.078761 203.001326 
L 101.407026 197.640856 
L 101.735292 202.095354 
L 102.063557 199.646205 
L 102.391823 200.840377 
L 102.720088 211.925549 
L 103.048354 214.365473 
L 103.376619 222.457349 
L 103.704885 176.361902 
L 104.03315 207.754429 
L 104.361416 175.903858 
L 104.689681 203.781011 
L 105.017947 208.917 
L 105.346212 205.152895 
L 105.674477 203.590212 
L 106.002743 212.470237 
L 106.331008 213.030499 
L 106.659274 208.835022 
L 106.987539 211.653087 
L 107.315805 216.090121 
L 107.64407 218.863283 
L 107.972336 212.800589 
L 108.300601 238.397524 
L 108.628867 209.403963 
L 108.957132 237.088661 
L 109.613663 212.141725 
L 109.941928 211.225268 
L 110.270194 221.62912 
L 110.598459 222.117713 
L 110.926725 213.703073 
L 111.25499 211.777046 
L 111.583256 212.251774 
L 111.911521 213.428385 
L 112.239787 219.946154 
L 112.568052 214.288256 
L 112.896318 216.009248 
L 113.224583 211.171684 
L 113.552849 221.709918 
L 113.881114 218.167563 
L 114.20938 220.99058 
L 114.537645 216.095407 
L 114.86591 216.550213 
L 115.194176 207.721743 
L 115.522441 208.345793 
L 115.850707 215.952167 
L 116.178972 212.610223 
L 116.507238 175.007403 
L 116.835503 215.911825 
L 117.163769 216.185347 
L 117.492034 185.69342 
L 117.8203 211.037425 
L 118.148565 212.300132 
L 118.476831 219.602675 
L 118.805096 219.419181 
L 119.133362 212.369325 
L 119.461627 217.701739 
L 119.789892 211.902852 
L 120.118158 197.234471 
L 120.446423 215.63408 
L 120.774689 221.071778 
L 121.102954 216.322342 
L 121.43122 228.24271 
L 121.759485 228.772209 
L 122.087751 219.116628 
L 122.416016 213.726411 
L 123.072547 225.079908 
L 123.400813 211.811775 
L 124.057344 238.432325 
L 124.385609 188.95369 
L 124.713874 202.006767 
L 125.04214 183.708834 
L 125.370405 171.991415 
L 125.698671 223.708222 
L 126.355202 224.698008 
L 126.683467 239.583931 
L 127.011733 220.318137 
L 127.339998 210.842638 
L 127.668264 223.488071 
L 127.996529 230.059088 
L 128.324795 231.569252 
L 128.65306 209.97983 
L 128.981325 210.659517 
L 129.309591 193.97138 
L 129.637856 185.441836 
L 129.966122 187.93132 
L 130.622653 168.002191 
L 130.950918 179.842166 
L 131.279184 142.038259 
L 131.607449 168.498764 
L 131.935715 142.294795 
L 132.26398 169.469675 
L 132.592246 180.739084 
L 132.920511 120.887689 
L 133.248777 183.234228 
L 133.577042 164.736001 
L 133.905307 165.341744 
L 134.561838 238.600256 
L 134.890104 214.333531 
L 135.218369 216.764681 
L 135.546635 244.487256 
L 135.8749 219.151161 
L 136.203166 219.031123 
L 136.531431 235.61311 
L 136.859697 243.428583 
L 137.516228 200.808865 
L 137.844493 227.515509 
L 138.172759 230.93279 
L 138.501024 224.706746 
L 138.829289 203.415525 
L 139.157555 230.1858 
L 139.48582 219.405959 
L 140.142351 149.700546 
L 140.470617 185.946286 
L 140.798882 116.302683 
L 141.127148 175.804542 
L 141.455413 181.558055 
L 141.783679 190.638413 
L 142.111944 258.629771 
L 142.44021 157.462119 
L 142.768475 217.873257 
L 143.096741 142.69886 
L 143.425006 140.494229 
L 143.753271 81.758015 
L 144.081537 97.956399 
L 144.409802 169.382515 
L 144.738068 212.080433 
L 145.066333 228.803223 
L 145.394599 227.921296 
L 145.722864 229.848101 
L 146.05113 261.468257 
L 146.379395 242.905487 
L 146.707661 230.712517 
L 147.035926 191.535383 
L 147.364192 192.857664 
L 147.692457 193.119794 
L 148.020722 198.083791 
L 148.348988 133.44917 
L 148.677253 169.954581 
L 149.005519 249.287927 
L 149.333784 218.849939 
L 149.66205 252.223149 
L 149.990315 231.685377 
L 150.318581 248.518089 
L 150.646846 217.545749 
L 150.975112 233.354253 
L 151.303377 220.094038 
L 151.631643 217.347843 
L 151.959908 238.361458 
L 152.616439 180.475128 
L 152.944704 241.95803 
L 153.27297 243.15484 
L 153.601235 236.267161 
L 153.929501 246.255686 
L 154.257766 250.745906 
L 154.586032 231.289758 
L 154.914297 230.521587 
L 155.242563 213.607671 
L 155.570828 212.402338 
L 155.899094 215.349691 
L 156.227359 206.287291 
L 156.555625 235.753214 
L 156.88389 203.524957 
L 157.212156 227.387034 
L 157.540421 232.068837 
L 157.868686 231.019653 
L 158.196952 228.544418 
L 158.525217 257.094138 
L 159.181748 206.691413 
L 159.510014 223.607264 
L 159.838279 215.615404 
L 160.166545 158.80635 
L 160.49481 200.044176 
L 160.823076 219.480603 
L 161.151341 213.152588 
L 161.807872 195.721751 
L 162.464403 199.687713 
L 162.792668 195.821427 
L 163.120934 194.932615 
L 163.449199 182.300528 
L 163.777465 214.563101 
L 164.10573 179.055582 
L 164.433996 186.859061 
L 164.762261 230.083542 
L 165.090527 212.450558 
L 165.418792 201.41629 
L 165.747058 238.279996 
L 166.075323 226.571015 
L 166.403589 240.376864 
L 166.731854 216.977431 
L 167.060119 227.500729 
L 167.388385 204.119227 
L 167.71665 233.876825 
L 168.044916 233.37404 
L 168.373181 236.472688 
L 168.701447 238.315445 
L 169.029712 237.623195 
L 169.357978 217.660875 
L 169.686243 211.761093 
L 170.014509 214.617516 
L 170.342774 232.536693 
L 170.67104 220.813564 
L 170.999305 220.663337 
L 171.327571 234.504 
L 171.655836 226.994125 
L 171.984101 242.126898 
L 172.312367 211.748022 
L 172.640632 237.918352 
L 172.968898 237.538787 
L 173.297163 229.498951 
L 173.953694 242.343649 
L 174.28196 255.461019 
L 174.610225 233.103351 
L 174.938491 238.352412 
L 175.266756 239.408621 
L 175.595022 246.463128 
L 175.923287 240.320886 
L 176.251553 224.683228 
L 176.579818 235.72042 
L 176.908083 236.954084 
L 177.236349 200.674674 
L 177.564614 205.207919 
L 177.89288 194.665065 
L 178.221145 206.013405 
L 178.549411 205.559649 
L 178.877676 232.13265 
L 179.205942 216.956874 
L 179.534207 225.932731 
L 179.862473 201.261883 
L 180.519004 249.078202 
L 180.847269 257.192564 
L 181.175535 238.440218 
L 181.5038 240.861312 
L 181.832065 245.750021 
L 182.160331 241.489979 
L 182.488596 243.734576 
L 182.816862 243.81757 
L 183.145127 238.879475 
L 184.129924 250.462029 
L 184.458189 238.457954 
L 184.786455 217.153696 
L 185.11472 241.939681 
L 185.442986 192.188013 
L 185.771251 237.249513 
L 186.099516 235.082827 
L 186.427782 240.850168 
L 186.756047 238.866434 
L 187.084313 246.704774 
L 187.412578 240.589323 
L 187.740844 247.056784 
L 188.069109 246.620707 
L 188.397375 219.006217 
L 188.72564 236.096457 
L 189.053906 246.726286 
L 189.382171 249.433497 
L 189.710437 241.604834 
L 190.038702 240.179394 
L 190.366968 242.108039 
L 190.695233 245.909332 
L 191.023498 243.849148 
L 191.351764 242.714566 
L 191.680029 244.012403 
L 192.008295 243.818171 
L 192.33656 224.38155 
L 192.664826 255.149182 
L 192.993091 244.009017 
L 193.321357 250.665939 
L 193.649622 243.536794 
L 193.977888 252.027479 
L 194.306153 251.608363 
L 194.634419 252.200762 
L 194.962684 233.52051 
L 195.29095 238.088269 
L 195.619215 239.751791 
L 195.94748 246.011944 
L 196.275746 242.323566 
L 196.604011 247.058751 
L 196.932277 243.787719 
L 197.260542 256.467501 
L 197.588808 249.804172 
L 197.917073 250.584942 
L 198.573604 241.637742 
L 198.90187 250.282865 
L 199.230135 248.607185 
L 199.886666 215.472571 
L 200.214932 252.059506 
L 200.543197 247.906899 
L 200.871462 242.124172 
L 201.199728 264.640068 
L 201.527993 248.417152 
L 201.856259 258.977948 
L 202.184524 244.497209 
L 202.51279 256.710361 
L 202.841055 253.739031 
L 203.169321 253.218662 
L 203.497586 255.396792 
L 203.825852 250.138528 
L 204.154117 247.462543 
L 204.482383 243.31693 
L 204.810648 244.915521 
L 205.138914 244.50079 
L 205.467179 250.379356 
L 205.795444 253.782353 
L 206.12371 242.605582 
L 206.451975 251.879915 
L 206.780241 252.683911 
L 207.108506 255.689258 
L 207.436772 245.547512 
L 207.765037 246.900489 
L 208.093303 224.639312 
L 208.421568 218.035149 
L 208.749834 218.904292 
L 209.078099 232.466515 
L 209.406365 213.514431 
L 209.73463 226.50856 
L 210.062895 203.335199 
L 210.391161 256.979947 
L 210.719426 253.366656 
L 211.047692 253.696111 
L 211.375957 256.669548 
L 211.704223 251.763848 
L 212.032488 256.152292 
L 212.360754 226.693449 
L 212.689019 235.961038 
L 213.017285 226.612144 
L 213.34555 229.914979 
L 213.673816 259.354124 
L 214.002081 259.404407 
L 214.330347 237.074271 
L 214.658612 248.516264 
L 214.986877 238.382998 
L 215.315143 248.711816 
L 215.643408 223.670184 
L 215.971674 239.257732 
L 216.299939 241.390848 
L 216.628205 250.295919 
L 216.95647 218.009902 
L 217.284736 217.685758 
L 217.613001 225.521599 
L 217.941267 226.527206 
L 218.269532 259.356193 
L 218.597798 238.997632 
L 218.926063 245.583118 
L 219.254329 245.939296 
L 219.582594 241.035738 
L 219.910859 244.679024 
L 220.239125 253.868481 
L 220.56739 256.054488 
L 220.895656 227.187399 
L 221.223921 246.366801 
L 221.552187 244.827397 
L 221.880452 248.991163 
L 222.208718 256.55078 
L 222.865249 252.324802 
L 223.193514 238.052949 
L 223.52178 241.505926 
L 223.850045 238.949048 
L 224.178311 219.772599 
L 224.506576 213.962497 
L 224.834841 202.306202 
L 225.163107 217.088185 
L 225.491372 257.728941 
L 226.147903 250.369872 
L 226.476169 267.649386 
L 226.804434 259.093307 
L 227.1327 264.64956 
L 227.460965 255.02544 
L 227.789231 264.776656 
L 228.117496 261.453676 
L 228.445762 259.60527 
L 228.774027 269.650043 
L 229.102292 249.019253 
L 229.430558 245.330077 
L 229.758823 248.84308 
L 230.415354 258.051228 
L 230.74362 249.722062 
L 231.071885 254.651865 
L 231.400151 263.628757 
L 231.728416 260.611455 
L 232.056682 284.06097 
L 232.384947 251.459238 
L 232.713213 258.650191 
L 233.041478 199.118051 
L 233.369744 184.66453 
L 233.698009 203.126666 
L 234.026274 159.675654 
L 234.35454 155.865902 
L 234.682805 157.44946 
L 235.011071 160.645998 
L 235.339336 263.294175 
L 235.667602 252.041571 
L 235.995867 250.772203 
L 236.324133 239.851044 
L 236.652398 224.52734 
L 236.980664 223.939209 
L 237.308929 262.457135 
L 237.96546 249.067813 
L 238.293726 268.289516 
L 238.621991 252.610907 
L 238.950256 253.040907 
L 239.278522 254.343372 
L 239.606787 262.959918 
L 239.935053 267.774021 
L 240.263318 268.950684 
L 240.591584 255.061296 
L 240.919849 253.96496 
L 241.248115 271.509263 
L 241.57638 263.65292 
L 241.904646 276.334559 
L 242.232911 259.943926 
L 242.561177 259.468086 
L 242.889442 265.316895 
L 243.217708 263.48571 
L 243.545973 263.172813 
L 243.874238 266.281641 
L 244.202504 263.84155 
L 244.530769 277.305357 
L 244.859035 257.546615 
L 245.1873 256.52363 
L 245.515566 267.264347 
L 245.843831 283.411089 
L 246.172097 267.892021 
L 246.500362 235.329246 
L 246.828628 226.105544 
L 247.156893 268.972418 
L 247.485159 279.736226 
L 247.813424 271.04212 
L 248.141689 272.973524 
L 248.469955 241.527543 
L 248.79822 253.525235 
L 249.126486 256.193159 
L 249.454751 264.226347 
L 249.783017 285.484875 
L 250.111282 268.128733 
L 250.767813 255.552452 
L 251.096079 256.621943 
L 251.424344 272.487353 
L 251.75261 260.401701 
L 252.409141 258.465365 
L 252.737406 267.191616 
L 253.065671 259.475948 
L 253.393937 261.506255 
L 253.722202 241.441267 
L 254.050468 257.346911 
L 254.378733 259.205462 
L 254.706999 257.679488 
L 255.035264 263.440751 
L 255.36353 266.030617 
L 255.691795 263.976073 
L 256.348326 284.337198 
L 256.676592 258.196531 
L 257.333123 263.829853 
L 257.661388 258.372275 
L 257.989653 267.421169 
L 258.317919 255.419232 
L 258.646184 232.193348 
L 259.630981 271.764373 
L 259.959246 269.081134 
L 260.287512 269.132337 
L 260.615777 267.51576 
L 260.944043 244.999755 
L 261.272308 263.655847 
L 261.600574 258.228483 
L 261.928839 258.562591 
L 262.257105 276.414888 
L 262.913635 265.143697 
L 263.241901 266.913816 
L 263.570166 272.350855 
L 263.898432 260.938459 
L 264.226697 267.883276 
L 264.883228 271.536562 
L 265.211494 264.546634 
L 265.539759 276.322291 
L 266.19629 278.71372 
L 266.524556 277.065903 
L 266.852821 264.107661 
L 267.181086 274.465276 
L 267.509352 264.297664 
L 267.837617 269.43198 
L 268.165883 286.406582 
L 268.494148 269.369583 
L 269.150679 269.883059 
L 269.478945 263.962968 
L 269.80721 265.835546 
L 270.135476 264.985356 
L 270.463741 232.466556 
L 270.792007 280.960538 
L 271.120272 268.395344 
L 271.448538 260.10533 
L 271.776803 277.639329 
L 272.105068 272.607615 
L 272.433334 272.234437 
L 272.761599 277.90768 
L 273.089865 257.599643 
L 273.41813 259.125884 
L 273.746396 256.095922 
L 274.074661 233.314887 
L 274.402927 250.647975 
L 274.731192 219.359736 
L 275.059458 232.068854 
L 275.387723 225.85278 
L 275.715989 246.3117 
L 276.044254 242.812646 
L 276.37252 236.581856 
L 276.700785 236.334163 
L 277.02905 250.272536 
L 277.357316 235.801847 
L 277.685581 269.735839 
L 278.013847 269.691291 
L 278.342112 275.902434 
L 278.670378 262.078909 
L 278.998643 265.367307 
L 279.326909 261.684488 
L 279.655174 272.34553 
L 279.98344 270.891948 
L 280.311705 261.648784 
L 280.639971 261.773095 
L 280.968236 264.479571 
L 281.296502 277.3635 
L 281.624767 262.247138 
L 281.953032 264.235218 
L 282.281298 277.34409 
L 282.609563 280.530125 
L 282.937829 265.326376 
L 283.266094 278.557155 
L 283.59436 276.578226 
L 283.922625 261.158762 
L 284.250891 276.049374 
L 284.907422 277.480382 
L 285.235687 278.845362 
L 285.563953 263.644271 
L 285.892218 276.892304 
L 286.220484 266.696912 
L 286.548749 260.854031 
L 286.877014 264.896044 
L 287.20528 271.241834 
L 287.861811 278.603817 
L 288.190076 269.435923 
L 288.518342 275.418202 
L 288.846607 265.497301 
L 289.174873 266.774695 
L 289.831404 272.798126 
L 290.159669 269.564275 
L 290.487935 270.090064 
L 290.8162 283.609015 
L 291.472731 276.96907 
L 291.800996 266.77791 
L 292.457527 288.354873 
L 292.785793 274.10509 
L 293.114058 276.424907 
L 293.442324 281.96311 
L 293.770589 279.201928 
L 294.098855 273.205869 
L 294.42712 274.5618 
L 294.755386 283.068942 
L 295.083651 282.057404 
L 295.411917 280.595492 
L 295.740182 272.741015 
L 296.068447 275.576125 
L 296.396713 273.765378 
L 296.724978 278.019151 
L 297.053244 263.432238 
L 297.709775 282.583042 
L 298.03804 280.662372 
L 298.366306 266.775718 
L 298.694571 276.552788 
L 299.022837 265.405079 
L 299.679368 272.058257 
L 300.007633 263.945773 
L 300.335899 265.224216 
L 300.664164 270.717392 
L 300.992429 259.3418 
L 301.320695 259.519917 
L 301.977226 269.620667 
L 302.305491 270.916349 
L 302.633757 265.068816 
L 302.962022 263.073578 
L 303.290288 278.803659 
L 303.618553 270.012224 
L 303.946819 268.803618 
L 304.275084 269.322143 
L 304.60335 281.49634 
L 304.931615 266.154977 
L 305.259881 269.461292 
L 305.916411 283.426902 
L 306.244677 269.64205 
L 306.572942 272.683643 
L 306.901208 272.494061 
L 307.229473 278.465449 
L 307.557739 269.003104 
L 307.886004 272.021717 
L 308.21427 264.713233 
L 308.542535 272.981482 
L 308.870801 287.146602 
L 309.199066 274.732295 
L 309.527332 271.408495 
L 309.855597 281.096196 
L 310.183862 275.232163 
L 310.512128 278.571852 
L 310.840393 279.29656 
L 311.496924 283.194895 
L 311.82519 266.892249 
L 312.481721 294.59573 
L 312.809986 275.687194 
L 313.138252 279.746213 
L 313.466517 279.420449 
L 313.794783 276.606351 
L 314.123048 279.043488 
L 314.451314 267.712875 
L 314.779579 267.087037 
L 315.107844 268.407947 
L 315.43611 267.16801 
L 315.764375 276.188786 
L 316.092641 272.861288 
L 316.420906 276.75069 
L 316.749172 269.713521 
L 317.077437 271.418423 
L 317.405703 276.418697 
L 317.733968 268.450217 
L 318.062234 272.210542 
L 318.390499 270.309747 
L 318.718765 284.760347 
L 319.04703 284.174286 
L 319.375296 285.287698 
L 319.703561 285.950269 
L 320.031826 265.536316 
L 320.360092 271.211399 
L 320.688357 266.901861 
L 321.016623 266.934138 
L 321.344888 270.425545 
L 321.673154 266.981293 
L 322.001419 246.045939 
L 322.329685 268.847395 
L 322.65795 246.158769 
L 322.986216 256.921331 
L 323.314481 236.709902 
L 323.642747 253.841631 
L 323.971012 250.014395 
L 324.299278 263.33773 
L 324.627543 270.646277 
L 324.955808 268.343697 
L 325.284074 276.763551 
L 325.612339 269.88745 
L 325.940605 276.166523 
L 326.26887 276.625379 
L 326.597136 276.029051 
L 326.925401 272.080595 
L 327.253667 279.575283 
L 327.581932 267.74643 
L 327.910198 281.739584 
L 328.238463 284.962294 
L 328.566729 274.075383 
L 328.894994 271.429382 
L 329.223259 265.791077 
L 329.551525 289.040733 
L 329.87979 283.489669 
L 330.208056 273.586119 
L 330.536321 272.232971 
L 330.864587 253.092144 
L 331.521118 240.341979 
L 331.849383 275.356057 
L 332.177649 232.649389 
L 332.505914 263.234389 
L 333.162445 281.403238 
L 333.490711 277.671362 
L 333.818976 279.316714 
L 334.147241 283.633186 
L 334.475507 277.610611 
L 334.803772 268.42223 
L 335.132038 269.57343 
L 335.460303 267.541373 
L 335.788569 276.905266 
L 336.116834 279.319156 
L 336.4451 278.018193 
L 336.773365 271.023427 
L 337.101631 274.426041 
L 337.429896 268.523944 
L 337.758162 271.611459 
L 338.086427 268.356329 
L 338.414693 277.000699 
L 338.742958 268.246109 
L 339.071223 264.951832 
L 339.399489 276.644848 
L 339.727754 280.651321 
L 340.05602 281.014921 
L 340.384285 263.196921 
L 340.712551 265.244379 
L 341.040816 278.822701 
L 341.369082 287.09496 
L 341.697347 285.04532 
L 342.025613 273.974621 
L 342.353878 272.246404 
L 342.682144 277.871817 
L 343.010409 276.431655 
L 343.338675 274.312366 
L 343.66694 277.11775 
L 343.995205 278.414372 
L 344.323471 281.086455 
L 344.651736 286.379251 
L 344.980002 270.437254 
L 345.308267 278.761075 
L 345.636533 280.638391 
L 345.964798 279.509611 
L 346.293064 278.937756 
L 346.621329 272.096782 
L 346.949595 277.588709 
L 347.27786 278.095804 
L 347.606126 284.86233 
L 347.934391 266.329987 
L 348.262656 257.280802 
L 348.590922 283.261938 
L 348.919187 274.91689 
L 349.247453 285.540935 
L 349.575718 285.86167 
L 349.903984 289.14648 
L 350.560515 269.73621 
L 350.88878 278.900258 
L 351.217046 277.689289 
L 351.545311 277.486705 
L 351.873577 255.774127 
L 352.201842 270.137017 
L 352.530108 277.453849 
L 352.858373 282.077867 
L 353.186638 281.63251 
L 353.514904 287.085294 
L 353.843169 286.646931 
L 354.171435 286.611257 
L 354.4997 284.274865 
L 354.827966 280.163039 
L 355.156231 274.416812 
L 355.812762 284.455015 
L 356.141028 281.496993 
L 356.469293 290.166638 
L 356.797559 288.611455 
L 357.125824 281.475782 
L 357.45409 280.434575 
L 357.782355 293.62099 
L 358.11062 286.844436 
L 358.438886 284.90361 
L 358.767151 277.796596 
L 359.095417 274.03467 
L 359.423682 280.305526 
L 359.751948 293.441743 
L 360.080213 267.579157 
L 360.408479 286.317555 
L 361.06501 281.102058 
L 361.393275 290.732176 
L 361.721541 277.858402 
L 362.049806 284.295807 
L 362.378072 278.184101 
L 362.706337 276.862375 
L 363.034602 281.133653 
L 363.362868 279.550429 
L 363.691133 291.592488 
L 364.019399 280.69685 
L 364.347664 262.09417 
L 364.67593 260.347671 
L 365.004195 280.000755 
L 365.332461 278.824475 
L 365.660726 273.519605 
L 365.988992 281.819045 
L 366.317257 276.124456 
L 366.973788 275.346079 
L 367.302053 284.632692 
L 367.630319 289.603659 
L 367.958584 279.531759 
L 368.28685 285.409662 
L 368.615115 279.488556 
L 368.943381 278.156051 
L 369.271646 244.055465 
L 369.599912 250.553555 
L 369.928177 244.974112 
L 370.256443 246.994405 
L 370.584708 244.626073 
L 370.912974 243.080004 
L 371.241239 251.162197 
L 371.569505 241.520542 
L 371.89777 245.4227 
L 372.226035 273.960285 
L 372.554301 269.66173 
L 372.882566 266.926358 
L 373.210832 243.377478 
L 373.539097 246.706684 
L 373.867363 245.468853 
L 374.195628 255.224814 
L 374.523894 251.456635 
L 374.852159 246.377883 
L 375.180425 245.953109 
L 375.50869 244.24888 
L 375.836956 256.220189 
L 376.165221 252.91207 
L 376.493487 254.437303 
L 376.821752 254.905737 
L 377.150017 253.569639 
L 377.478283 254.932777 
L 377.806548 255.369687 
L 378.134814 252.887215 
L 378.463079 241.061434 
L 378.791345 253.401095 
L 379.11961 254.157162 
L 379.447876 244.098466 
L 379.776141 249.135056 
L 380.104407 247.751488 
L 380.432672 255.357677 
L 381.089203 248.257623 
L 381.417469 255.046986 
L 381.745734 275.423285 
L 382.073999 250.284929 
L 382.402265 241.954813 
L 382.73053 250.122264 
L 383.058796 254.254377 
L 383.387061 248.387453 
L 384.043592 246.672963 
L 384.371858 248.921354 
L 385.028389 258.432637 
L 385.356654 252.738792 
L 386.013185 248.700473 
L 386.341451 251.538154 
L 386.669716 258.957144 
L 386.997981 257.970105 
L 387.326247 206.769395 
L 387.654512 251.925488 
L 387.982778 254.070856 
L 388.311043 252.130244 
L 388.639309 235.800817 
L 388.967574 251.678669 
L 389.29584 277.70596 
L 389.624105 250.990916 
L 389.952371 275.864107 
L 390.280636 276.770196 
L 390.608902 283.55036 
L 390.937167 295.488 
L 391.265432 286.554917 
L 391.593698 284.522527 
L 391.921963 284.803282 
L 392.250229 289.822032 
L 392.578494 284.193942 
L 392.90676 282.001318 
L 393.235025 278.438578 
L 393.563291 280.763643 
L 393.891556 287.326644 
L 394.219822 283.353621 
L 394.548087 293.5155 
L 394.876353 290.965335 
L 395.204618 281.280014 
L 395.532884 276.774506 
L 395.861149 259.252526 
L 396.189414 263.936235 
L 396.51768 284.388947 
L 396.845945 288.181884 
L 397.174211 257.074658 
L 397.502476 282.146493 
L 397.830742 282.011845 
L 398.159007 279.024007 
L 398.487273 283.500777 
L 398.487273 283.500777 
" style="fill:none;stroke:#ff7f0e;stroke-linecap:square;stroke-width:1.5;"/>
   </g>
   <g id="patch_3">
    <path d="M 57.6 307.584 
L 57.6 41.472 
" style="fill:none;stroke:#000000;stroke-linecap:square;stroke-linejoin:miter;stroke-width:0.8;"/>
   </g>
   <g id="patch_4">
    <path d="M 414.72 307.584 
L 414.72 41.472 
" style="fill:none;stroke:#000000;stroke-linecap:square;stroke-linejoin:miter;stroke-width:0.8;"/>
   </g>
   <g id="patch_5">
    <path d="M 57.6 307.584 
L 414.72 307.584 
" style="fill:none;stroke:#000000;stroke-linecap:square;stroke-linejoin:miter;stroke-width:0.8;"/>
   </g>
   <g id="patch_6">
    <path d="M 57.6 41.472 
L 414.72 41.472 
" style="fill:none;stroke:#000000;stroke-linecap:square;stroke-linejoin:miter;stroke-width:0.8;"/>
   </g>
   <g id="text_20">
    <!-- RSI Speedup -->
    <defs>
     <path d="M 44.390625 34.1875 
Q 47.5625 33.109375 50.5625 29.59375 
Q 53.5625 26.078125 56.59375 19.921875 
L 66.609375 0 
L 56 0 
L 46.6875 18.703125 
Q 43.0625 26.03125 39.671875 28.421875 
Q 36.28125 30.8125 30.421875 30.8125 
L 19.671875 30.8125 
L 19.671875 0 
L 9.8125 0 
L 9.8125 72.90625 
L 32.078125 72.90625 
Q 44.578125 72.90625 50.734375 67.671875 
Q 56.890625 62.453125 56.890625 51.90625 
Q 56.890625 45.015625 53.6875 40.46875 
Q 50.484375 35.9375 44.390625 34.1875 
z
M 19.671875 64.796875 
L 19.671875 38.921875 
L 32.078125 38.921875 
Q 39.203125 38.921875 42.84375 42.21875 
Q 46.484375 45.515625 46.484375 51.90625 
Q 46.484375 58.296875 42.84375 61.546875 
Q 39.203125 64.796875 32.078125 64.796875 
z
" id="DejaVuSans-82"/>
     <path d="M 53.515625 70.515625 
L 53.515625 60.890625 
Q 47.90625 63.578125 42.921875 64.890625 
Q 37.9375 66.21875 33.296875 66.21875 
Q 25.25 66.21875 20.875 63.09375 
Q 16.5 59.96875 16.5 54.203125 
Q 16.5 49.359375 19.40625 46.890625 
Q 22.3125 44.4375 30.421875 42.921875 
L 36.375 41.703125 
Q 47.40625 39.59375 52.65625 34.296875 
Q 57.90625 29 57.90625 20.125 
Q 57.90625 9.515625 50.796875 4.046875 
Q 43.703125 -1.421875 29.984375 -1.421875 
Q 24.8125 -1.421875 18.96875 -0.25 
Q 13.140625 0.921875 6.890625 3.21875 
L 6.890625 13.375 
Q 12.890625 10.015625 18.65625 8.296875 
Q 24.421875 6.59375 29.984375 6.59375 
Q 38.421875 6.59375 43.015625 9.90625 
Q 47.609375 13.234375 47.609375 19.390625 
Q 47.609375 24.75 44.3125 27.78125 
Q 41.015625 30.8125 33.5 32.328125 
L 27.484375 33.5 
Q 16.453125 35.6875 11.515625 40.375 
Q 6.59375 45.0625 6.59375 53.421875 
Q 6.59375 63.09375 13.40625 68.65625 
Q 20.21875 74.21875 32.171875 74.21875 
Q 37.3125 74.21875 42.625 73.28125 
Q 47.953125 72.359375 53.515625 70.515625 
z
" id="DejaVuSans-83"/>
     <path d="M 9.8125 72.90625 
L 19.671875 72.90625 
L 19.671875 0 
L 9.8125 0 
z
" id="DejaVuSans-73"/>
     <path id="DejaVuSans-32"/>
    </defs>
    <g transform="translate(198.0825 35.472)scale(0.12 -0.12)">
     <use xlink:href="#DejaVuSans-82"/>
     <use x="69.482422" xlink:href="#DejaVuSans-83"/>
     <use x="132.958984" xlink:href="#DejaVuSans-73"/>
     <use x="162.451172" xlink:href="#DejaVuSans-32"/>
     <use x="194.238281" xlink:href="#DejaVuSans-83"/>
     <use x="257.714844" xlink:href="#DejaVuSans-112"/>
     <use x="321.191406" xlink:href="#DejaVuSans-101"/>
     <use x="382.714844" xlink:href="#DejaVuSans-101"/>
     <use x="444.238281" xlink:href="#DejaVuSans-100"/>
     <use x="507.714844" xlink:href="#DejaVuSans-117"/>
     <use x="571.09375" xlink:href="#DejaVuSans-112"/>
    </g>
   </g>
   <g id="legend_1">
    <g id="patch_7">
     <path d="M 304.093437 78.82825 
L 407.72 78.82825 
Q 409.72 78.82825 409.72 76.82825 
L 409.72 48.472 
Q 409.72 46.472 407.72 46.472 
L 304.093437 46.472 
Q 302.093437 46.472 302.093437 48.472 
L 302.093437 76.82825 
Q 302.093437 78.82825 304.093437 78.82825 
z
" style="fill:#ffffff;opacity:0.8;stroke:#cccccc;stroke-linejoin:miter;"/>
    </g>
    <g id="line2d_20">
     <path d="M 306.093437 54.570437 
L 326.093437 54.570437 
" style="fill:none;stroke:#1f77b4;stroke-linecap:square;stroke-width:1.5;"/>
    </g>
    <g id="line2d_21"/>
    <g id="text_21">
     <!-- numpy.float32 -->
     <defs>
      <path d="M 52 44.1875 
Q 55.375 50.25 60.0625 53.125 
Q 64.75 56 71.09375 56 
Q 79.640625 56 84.28125 50.015625 
Q 88.921875 44.046875 88.921875 33.015625 
L 88.921875 0 
L 79.890625 0 
L 79.890625 32.71875 
Q 79.890625 40.578125 77.09375 44.375 
Q 74.3125 48.1875 68.609375 48.1875 
Q 61.625 48.1875 57.5625 43.546875 
Q 53.515625 38.921875 53.515625 30.90625 
L 53.515625 0 
L 44.484375 0 
L 44.484375 32.71875 
Q 44.484375 40.625 41.703125 44.40625 
Q 38.921875 48.1875 33.109375 48.1875 
Q 26.21875 48.1875 22.15625 43.53125 
Q 18.109375 38.875 18.109375 30.90625 
L 18.109375 0 
L 9.078125 0 
L 9.078125 54.6875 
L 18.109375 54.6875 
L 18.109375 46.1875 
Q 21.1875 51.21875 25.484375 53.609375 
Q 29.78125 56 35.6875 56 
Q 41.65625 56 45.828125 52.96875 
Q 50 49.953125 52 44.1875 
z
" id="DejaVuSans-109"/>
      <path d="M 32.171875 -5.078125 
Q 28.375 -14.84375 24.75 -17.8125 
Q 21.140625 -20.796875 15.09375 -20.796875 
L 7.90625 -20.796875 
L 7.90625 -13.28125 
L 13.1875 -13.28125 
Q 16.890625 -13.28125 18.9375 -11.515625 
Q 21 -9.765625 23.484375 -3.21875 
L 25.09375 0.875 
L 2.984375 54.6875 
L 12.5 54.6875 
L 29.59375 11.921875 
L 46.6875 54.6875 
L 56.203125 54.6875 
z
" id="DejaVuSans-121"/>
      <path d="M 37.109375 75.984375 
L 37.109375 68.5 
L 28.515625 68.5 
Q 23.6875 68.5 21.796875 66.546875 
Q 19.921875 64.59375 19.921875 59.515625 
L 19.921875 54.6875 
L 34.71875 54.6875 
L 34.71875 47.703125 
L 19.921875 47.703125 
L 19.921875 0 
L 10.890625 0 
L 10.890625 47.703125 
L 2.296875 47.703125 
L 2.296875 54.6875 
L 10.890625 54.6875 
L 10.890625 58.5 
Q 10.890625 67.625 15.140625 71.796875 
Q 19.390625 75.984375 28.609375 75.984375 
z
" id="DejaVuSans-102"/>
      <path d="M 9.421875 75.984375 
L 18.40625 75.984375 
L 18.40625 0 
L 9.421875 0 
z
" id="DejaVuSans-108"/>
      <path d="M 30.609375 48.390625 
Q 23.390625 48.390625 19.1875 42.75 
Q 14.984375 37.109375 14.984375 27.296875 
Q 14.984375 17.484375 19.15625 11.84375 
Q 23.34375 6.203125 30.609375 6.203125 
Q 37.796875 6.203125 41.984375 11.859375 
Q 46.1875 17.53125 46.1875 27.296875 
Q 46.1875 37.015625 41.984375 42.703125 
Q 37.796875 48.390625 30.609375 48.390625 
z
M 30.609375 56 
Q 42.328125 56 49.015625 48.375 
Q 55.71875 40.765625 55.71875 27.296875 
Q 55.71875 13.875 49.015625 6.21875 
Q 42.328125 -1.421875 30.609375 -1.421875 
Q 18.84375 -1.421875 12.171875 6.21875 
Q 5.515625 13.875 5.515625 27.296875 
Q 5.515625 40.765625 12.171875 48.375 
Q 18.84375 56 30.609375 56 
z
" id="DejaVuSans-111"/>
      <path d="M 34.28125 27.484375 
Q 23.390625 27.484375 19.1875 25 
Q 14.984375 22.515625 14.984375 16.5 
Q 14.984375 11.71875 18.140625 8.90625 
Q 21.296875 6.109375 26.703125 6.109375 
Q 34.1875 6.109375 38.703125 11.40625 
Q 43.21875 16.703125 43.21875 25.484375 
L 43.21875 27.484375 
z
M 52.203125 31.203125 
L 52.203125 0 
L 43.21875 0 
L 43.21875 8.296875 
Q 40.140625 3.328125 35.546875 0.953125 
Q 30.953125 -1.421875 24.3125 -1.421875 
Q 15.921875 -1.421875 10.953125 3.296875 
Q 6 8.015625 6 15.921875 
Q 6 25.140625 12.171875 29.828125 
Q 18.359375 34.515625 30.609375 34.515625 
L 43.21875 34.515625 
L 43.21875 35.40625 
Q 43.21875 41.609375 39.140625 45 
Q 35.0625 48.390625 27.6875 48.390625 
Q 23 48.390625 18.546875 47.265625 
Q 14.109375 46.140625 10.015625 43.890625 
L 10.015625 52.203125 
Q 14.9375 54.109375 19.578125 55.046875 
Q 24.21875 56 28.609375 56 
Q 40.484375 56 46.34375 49.84375 
Q 52.203125 43.703125 52.203125 31.203125 
z
" id="DejaVuSans-97"/>
      <path d="M 18.3125 70.21875 
L 18.3125 54.6875 
L 36.8125 54.6875 
L 36.8125 47.703125 
L 18.3125 47.703125 
L 18.3125 18.015625 
Q 18.3125 11.328125 20.140625 9.421875 
Q 21.96875 7.515625 27.59375 7.515625 
L 36.8125 7.515625 
L 36.8125 0 
L 27.59375 0 
Q 17.1875 0 13.234375 3.875 
Q 9.28125 7.765625 9.28125 18.015625 
L 9.28125 47.703125 
L 2.6875 47.703125 
L 2.6875 54.6875 
L 9.28125 54.6875 
L 9.28125 70.21875 
z
" id="DejaVuSans-116"/>
     </defs>
     <g transform="translate(334.093437 58.070437)scale(0.1 -0.1)">
      <use xlink:href="#DejaVuSans-110"/>
      <use x="63.378906" xlink:href="#DejaVuSans-117"/>
      <use x="126.757812" xlink:href="#DejaVuSans-109"/>
      <use x="224.169922" xlink:href="#DejaVuSans-112"/>
      <use x="287.646484" xlink:href="#DejaVuSans-121"/>
      <use x="332.576172" xlink:href="#DejaVuSans-46"/>
      <use x="364.363281" xlink:href="#DejaVuSans-102"/>
      <use x="399.568359" xlink:href="#DejaVuSans-108"/>
      <use x="427.351562" xlink:href="#DejaVuSans-111"/>
      <use x="488.533203" xlink:href="#DejaVuSans-97"/>
      <use x="549.8125" xlink:href="#DejaVuSans-116"/>
      <use x="589.021484" xlink:href="#DejaVuSans-51"/>
      <use x="652.644531" xlink:href="#DejaVuSans-50"/>
     </g>
    </g>
    <g id="line2d_22">
     <path d="M 306.093437 69.248562 
L 326.093437 69.248562 
" style="fill:none;stroke:#ff7f0e;stroke-linecap:square;stroke-width:1.5;"/>
    </g>
    <g id="line2d_23"/>
    <g id="text_22">
     <!-- numpy.float64 -->
     <g transform="translate(334.093437 72.748562)scale(0.1 -0.1)">
      <use xlink:href="#DejaVuSans-110"/>
      <use x="63.378906" xlink:href="#DejaVuSans-117"/>
      <use x="126.757812" xlink:href="#DejaVuSans-109"/>
      <use x="224.169922" xlink:href="#DejaVuSans-112"/>
      <use x="287.646484" xlink:href="#DejaVuSans-121"/>
      <use x="332.576172" xlink:href="#DejaVuSans-46"/>
      <use x="364.363281" xlink:href="#DejaVuSans-102"/>
      <use x="399.568359" xlink:href="#DejaVuSans-108"/>
      <use x="427.351562" xlink:href="#DejaVuSans-111"/>
      <use x="488.533203" xlink:href="#DejaVuSans-97"/>
      <use x="549.8125" xlink:href="#DejaVuSans-116"/>
      <use x="589.021484" xlink:href="#DejaVuSans-54"/>
      <use x="652.644531" xlink:href="#DejaVuSans-52"/>
     </g>
    </g>
   </g>
  </g>
 </g>
 <defs>
  <clipPath id="pe4e83e25af">
   <rect height="266.112" width="357.12" x="57.6" y="41.472"/>
  </clipPath>
 </defs>
</svg>
