<?xml version="1.0" encoding="utf-8" standalone="no"?>
<!DOCTYPE svg PUBLIC "-//W3C//DTD SVG 1.1//EN"
  "http://www.w3.org/Graphics/SVG/1.1/DTD/svg11.dtd">
<!-- Created with matplotlib (https://matplotlib.org/) -->
<svg height="345.6pt" version="1.1" viewBox="0 0 460.8 345.6" width="460.8pt" xmlns="http://www.w3.org/2000/svg" xmlns:xlink="http://www.w3.org/1999/xlink">
 <defs>
  <style type="text/css">
*{stroke-linecap:butt;stroke-linejoin:round;}
  </style>
 </defs>
 <g id="figure_1">
  <g id="patch_1">
   <path d="M 0 345.6 
L 460.8 345.6 
L 460.8 0 
L 0 0 
z
" style="fill:#ffffff;"/>
  </g>
  <g id="axes_1">
   <g id="patch_2">
    <path d="M 57.6 307.584 
L 414.72 307.584 
L 414.72 41.472 
L 57.6 41.472 
z
" style="fill:#ffffff;"/>
   </g>
   <g id="matplotlib.axis_1">
    <g id="xtick_1">
     <g id="line2d_1">
      <defs>
       <path d="M 0 0 
L 0 3.5 
" id="m80ec8f4388" style="stroke:#000000;stroke-width:0.8;"/>
      </defs>
      <g>
       <use style="stroke:#000000;stroke-width:0.8;" x="106.659274" xlink:href="#m80ec8f4388" y="307.584"/>
      </g>
     </g>
     <g id="text_1">
      <!-- 100.0 -->
      <defs>
       <path d="M 12.40625 8.296875 
L 28.515625 8.296875 
L 28.515625 63.921875 
L 10.984375 60.40625 
L 10.984375 69.390625 
L 28.421875 72.90625 
L 38.28125 72.90625 
L 38.28125 8.296875 
L 54.390625 8.296875 
L 54.390625 0 
L 12.40625 0 
z
" id="DejaVuSans-49"/>
       <path d="M 31.78125 66.40625 
Q 24.171875 66.40625 20.328125 58.90625 
Q 16.5 51.421875 16.5 36.375 
Q 16.5 21.390625 20.328125 13.890625 
Q 24.171875 6.390625 31.78125 6.390625 
Q 39.453125 6.390625 43.28125 13.890625 
Q 47.125 21.390625 47.125 36.375 
Q 47.125 51.421875 43.28125 58.90625 
Q 39.453125 66.40625 31.78125 66.40625 
z
M 31.78125 74.21875 
Q 44.046875 74.21875 50.515625 64.515625 
Q 56.984375 54.828125 56.984375 36.375 
Q 56.984375 17.96875 50.515625 8.265625 
Q 44.046875 -1.421875 31.78125 -1.421875 
Q 19.53125 -1.421875 13.0625 8.265625 
Q 6.59375 17.96875 6.59375 36.375 
Q 6.59375 54.828125 13.0625 64.515625 
Q 19.53125 74.21875 31.78125 74.21875 
z
" id="DejaVuSans-48"/>
       <path d="M 10.6875 12.40625 
L 21 12.40625 
L 21 0 
L 10.6875 0 
z
" id="DejaVuSans-46"/>
      </defs>
      <g transform="translate(92.345211 322.182437)scale(0.1 -0.1)">
       <use xlink:href="#DejaVuSans-49"/>
       <use x="63.623047" xlink:href="#DejaVuSans-48"/>
       <use x="127.246094" xlink:href="#DejaVuSans-48"/>
       <use x="190.869141" xlink:href="#DejaVuSans-46"/>
       <use x="222.65625" xlink:href="#DejaVuSans-48"/>
      </g>
     </g>
    </g>
    <g id="xtick_2">
     <g id="line2d_2">
      <g>
       <use style="stroke:#000000;stroke-width:0.8;" x="139.48582" xlink:href="#m80ec8f4388" y="307.584"/>
      </g>
     </g>
     <g id="text_2">
      <!-- 200.0 -->
      <defs>
       <path d="M 19.1875 8.296875 
L 53.609375 8.296875 
L 53.609375 0 
L 7.328125 0 
L 7.328125 8.296875 
Q 12.9375 14.109375 22.625 23.890625 
Q 32.328125 33.6875 34.8125 36.53125 
Q 39.546875 41.84375 41.421875 45.53125 
Q 43.3125 49.21875 43.3125 52.78125 
Q 43.3125 58.59375 39.234375 62.25 
Q 35.15625 65.921875 28.609375 65.921875 
Q 23.96875 65.921875 18.8125 64.3125 
Q 13.671875 62.703125 7.8125 59.421875 
L 7.8125 69.390625 
Q 13.765625 71.78125 18.9375 73 
Q 24.125 74.21875 28.421875 74.21875 
Q 39.75 74.21875 46.484375 68.546875 
Q 53.21875 62.890625 53.21875 53.421875 
Q 53.21875 48.921875 51.53125 44.890625 
Q 49.859375 40.875 45.40625 35.40625 
Q 44.1875 33.984375 37.640625 27.21875 
Q 31.109375 20.453125 19.1875 8.296875 
z
" id="DejaVuSans-50"/>
      </defs>
      <g transform="translate(125.171758 322.182437)scale(0.1 -0.1)">
       <use xlink:href="#DejaVuSans-50"/>
       <use x="63.623047" xlink:href="#DejaVuSans-48"/>
       <use x="127.246094" xlink:href="#DejaVuSans-48"/>
       <use x="190.869141" xlink:href="#DejaVuSans-46"/>
       <use x="222.65625" xlink:href="#DejaVuSans-48"/>
      </g>
     </g>
    </g>
    <g id="xtick_3">
     <g id="line2d_3">
      <g>
       <use style="stroke:#000000;stroke-width:0.8;" x="172.312367" xlink:href="#m80ec8f4388" y="307.584"/>
      </g>
     </g>
     <g id="text_3">
      <!-- 300.0 -->
      <defs>
       <path d="M 40.578125 39.3125 
Q 47.65625 37.796875 51.625 33 
Q 55.609375 28.21875 55.609375 21.1875 
Q 55.609375 10.40625 48.1875 4.484375 
Q 40.765625 -1.421875 27.09375 -1.421875 
Q 22.515625 -1.421875 17.65625 -0.515625 
Q 12.796875 0.390625 7.625 2.203125 
L 7.625 11.71875 
Q 11.71875 9.328125 16.59375 8.109375 
Q 21.484375 6.890625 26.8125 6.890625 
Q 36.078125 6.890625 40.9375 10.546875 
Q 45.796875 14.203125 45.796875 21.1875 
Q 45.796875 27.640625 41.28125 31.265625 
Q 36.765625 34.90625 28.71875 34.90625 
L 20.21875 34.90625 
L 20.21875 43.015625 
L 29.109375 43.015625 
Q 36.375 43.015625 40.234375 45.921875 
Q 44.09375 48.828125 44.09375 54.296875 
Q 44.09375 59.90625 40.109375 62.90625 
Q 36.140625 65.921875 28.71875 65.921875 
Q 24.65625 65.921875 20.015625 65.03125 
Q 15.375 64.15625 9.8125 62.3125 
L 9.8125 71.09375 
Q 15.4375 72.65625 20.34375 73.4375 
Q 25.25 74.21875 29.59375 74.21875 
Q 40.828125 74.21875 47.359375 69.109375 
Q 53.90625 64.015625 53.90625 55.328125 
Q 53.90625 49.265625 50.4375 45.09375 
Q 46.96875 40.921875 40.578125 39.3125 
z
" id="DejaVuSans-51"/>
      </defs>
      <g transform="translate(157.998304 322.182437)scale(0.1 -0.1)">
       <use xlink:href="#DejaVuSans-51"/>
       <use x="63.623047" xlink:href="#DejaVuSans-48"/>
       <use x="127.246094" xlink:href="#DejaVuSans-48"/>
       <use x="190.869141" xlink:href="#DejaVuSans-46"/>
       <use x="222.65625" xlink:href="#DejaVuSans-48"/>
      </g>
     </g>
    </g>
    <g id="xtick_4">
     <g id="line2d_4">
      <g>
       <use style="stroke:#000000;stroke-width:0.8;" x="205.138914" xlink:href="#m80ec8f4388" y="307.584"/>
      </g>
     </g>
     <g id="text_4">
      <!-- 400.0 -->
      <defs>
       <path d="M 37.796875 64.3125 
L 12.890625 25.390625 
L 37.796875 25.390625 
z
M 35.203125 72.90625 
L 47.609375 72.90625 
L 47.609375 25.390625 
L 58.015625 25.390625 
L 58.015625 17.1875 
L 47.609375 17.1875 
L 47.609375 0 
L 37.796875 0 
L 37.796875 17.1875 
L 4.890625 17.1875 
L 4.890625 26.703125 
z
" id="DejaVuSans-52"/>
      </defs>
      <g transform="translate(190.824851 322.182437)scale(0.1 -0.1)">
       <use xlink:href="#DejaVuSans-52"/>
       <use x="63.623047" xlink:href="#DejaVuSans-48"/>
       <use x="127.246094" xlink:href="#DejaVuSans-48"/>
       <use x="190.869141" xlink:href="#DejaVuSans-46"/>
       <use x="222.65625" xlink:href="#DejaVuSans-48"/>
      </g>
     </g>
    </g>
    <g id="xtick_5">
     <g id="line2d_5">
      <g>
       <use style="stroke:#000000;stroke-width:0.8;" x="237.96546" xlink:href="#m80ec8f4388" y="307.584"/>
      </g>
     </g>
     <g id="text_5">
      <!-- 500.0 -->
      <defs>
       <path d="M 10.796875 72.90625 
L 49.515625 72.90625 
L 49.515625 64.59375 
L 19.828125 64.59375 
L 19.828125 46.734375 
Q 21.96875 47.46875 24.109375 47.828125 
Q 26.265625 48.1875 28.421875 48.1875 
Q 40.625 48.1875 47.75 41.5 
Q 54.890625 34.8125 54.890625 23.390625 
Q 54.890625 11.625 47.5625 5.09375 
Q 40.234375 -1.421875 26.90625 -1.421875 
Q 22.3125 -1.421875 17.546875 -0.640625 
Q 12.796875 0.140625 7.71875 1.703125 
L 7.71875 11.625 
Q 12.109375 9.234375 16.796875 8.0625 
Q 21.484375 6.890625 26.703125 6.890625 
Q 35.15625 6.890625 40.078125 11.328125 
Q 45.015625 15.765625 45.015625 23.390625 
Q 45.015625 31 40.078125 35.4375 
Q 35.15625 39.890625 26.703125 39.890625 
Q 22.75 39.890625 18.8125 39.015625 
Q 14.890625 38.140625 10.796875 36.28125 
z
" id="DejaVuSans-53"/>
      </defs>
      <g transform="translate(223.651398 322.182437)scale(0.1 -0.1)">
       <use xlink:href="#DejaVuSans-53"/>
       <use x="63.623047" xlink:href="#DejaVuSans-48"/>
       <use x="127.246094" xlink:href="#DejaVuSans-48"/>
       <use x="190.869141" xlink:href="#DejaVuSans-46"/>
       <use x="222.65625" xlink:href="#DejaVuSans-48"/>
      </g>
     </g>
    </g>
    <g id="xtick_6">
     <g id="line2d_6">
      <g>
       <use style="stroke:#000000;stroke-width:0.8;" x="270.792007" xlink:href="#m80ec8f4388" y="307.584"/>
      </g>
     </g>
     <g id="text_6">
      <!-- 600.0 -->
      <defs>
       <path d="M 33.015625 40.375 
Q 26.375 40.375 22.484375 35.828125 
Q 18.609375 31.296875 18.609375 23.390625 
Q 18.609375 15.53125 22.484375 10.953125 
Q 26.375 6.390625 33.015625 6.390625 
Q 39.65625 6.390625 43.53125 10.953125 
Q 47.40625 15.53125 47.40625 23.390625 
Q 47.40625 31.296875 43.53125 35.828125 
Q 39.65625 40.375 33.015625 40.375 
z
M 52.59375 71.296875 
L 52.59375 62.3125 
Q 48.875 64.0625 45.09375 64.984375 
Q 41.3125 65.921875 37.59375 65.921875 
Q 27.828125 65.921875 22.671875 59.328125 
Q 17.53125 52.734375 16.796875 39.40625 
Q 19.671875 43.65625 24.015625 45.921875 
Q 28.375 48.1875 33.59375 48.1875 
Q 44.578125 48.1875 50.953125 41.515625 
Q 57.328125 34.859375 57.328125 23.390625 
Q 57.328125 12.15625 50.6875 5.359375 
Q 44.046875 -1.421875 33.015625 -1.421875 
Q 20.359375 -1.421875 13.671875 8.265625 
Q 6.984375 17.96875 6.984375 36.375 
Q 6.984375 53.65625 15.1875 63.9375 
Q 23.390625 74.21875 37.203125 74.21875 
Q 40.921875 74.21875 44.703125 73.484375 
Q 48.484375 72.75 52.59375 71.296875 
z
" id="DejaVuSans-54"/>
      </defs>
      <g transform="translate(256.477944 322.182437)scale(0.1 -0.1)">
       <use xlink:href="#DejaVuSans-54"/>
       <use x="63.623047" xlink:href="#DejaVuSans-48"/>
       <use x="127.246094" xlink:href="#DejaVuSans-48"/>
       <use x="190.869141" xlink:href="#DejaVuSans-46"/>
       <use x="222.65625" xlink:href="#DejaVuSans-48"/>
      </g>
     </g>
    </g>
    <g id="xtick_7">
     <g id="line2d_7">
      <g>
       <use style="stroke:#000000;stroke-width:0.8;" x="303.618553" xlink:href="#m80ec8f4388" y="307.584"/>
      </g>
     </g>
     <g id="text_7">
      <!-- 700.0 -->
      <defs>
       <path d="M 8.203125 72.90625 
L 55.078125 72.90625 
L 55.078125 68.703125 
L 28.609375 0 
L 18.3125 0 
L 43.21875 64.59375 
L 8.203125 64.59375 
z
" id="DejaVuSans-55"/>
      </defs>
      <g transform="translate(289.304491 322.182437)scale(0.1 -0.1)">
       <use xlink:href="#DejaVuSans-55"/>
       <use x="63.623047" xlink:href="#DejaVuSans-48"/>
       <use x="127.246094" xlink:href="#DejaVuSans-48"/>
       <use x="190.869141" xlink:href="#DejaVuSans-46"/>
       <use x="222.65625" xlink:href="#DejaVuSans-48"/>
      </g>
     </g>
    </g>
    <g id="xtick_8">
     <g id="line2d_8">
      <g>
       <use style="stroke:#000000;stroke-width:0.8;" x="336.4451" xlink:href="#m80ec8f4388" y="307.584"/>
      </g>
     </g>
     <g id="text_8">
      <!-- 800.0 -->
      <defs>
       <path d="M 31.78125 34.625 
Q 24.75 34.625 20.71875 30.859375 
Q 16.703125 27.09375 16.703125 20.515625 
Q 16.703125 13.921875 20.71875 10.15625 
Q 24.75 6.390625 31.78125 6.390625 
Q 38.8125 6.390625 42.859375 10.171875 
Q 46.921875 13.96875 46.921875 20.515625 
Q 46.921875 27.09375 42.890625 30.859375 
Q 38.875 34.625 31.78125 34.625 
z
M 21.921875 38.8125 
Q 15.578125 40.375 12.03125 44.71875 
Q 8.5 49.078125 8.5 55.328125 
Q 8.5 64.0625 14.71875 69.140625 
Q 20.953125 74.21875 31.78125 74.21875 
Q 42.671875 74.21875 48.875 69.140625 
Q 55.078125 64.0625 55.078125 55.328125 
Q 55.078125 49.078125 51.53125 44.71875 
Q 48 40.375 41.703125 38.8125 
Q 48.828125 37.15625 52.796875 32.3125 
Q 56.78125 27.484375 56.78125 20.515625 
Q 56.78125 9.90625 50.3125 4.234375 
Q 43.84375 -1.421875 31.78125 -1.421875 
Q 19.734375 -1.421875 13.25 4.234375 
Q 6.78125 9.90625 6.78125 20.515625 
Q 6.78125 27.484375 10.78125 32.3125 
Q 14.796875 37.15625 21.921875 38.8125 
z
M 18.3125 54.390625 
Q 18.3125 48.734375 21.84375 45.5625 
Q 25.390625 42.390625 31.78125 42.390625 
Q 38.140625 42.390625 41.71875 45.5625 
Q 45.3125 48.734375 45.3125 54.390625 
Q 45.3125 60.0625 41.71875 63.234375 
Q 38.140625 66.40625 31.78125 66.40625 
Q 25.390625 66.40625 21.84375 63.234375 
Q 18.3125 60.0625 18.3125 54.390625 
z
" id="DejaVuSans-56"/>
      </defs>
      <g transform="translate(322.131037 322.182437)scale(0.1 -0.1)">
       <use xlink:href="#DejaVuSans-56"/>
       <use x="63.623047" xlink:href="#DejaVuSans-48"/>
       <use x="127.246094" xlink:href="#DejaVuSans-48"/>
       <use x="190.869141" xlink:href="#DejaVuSans-46"/>
       <use x="222.65625" xlink:href="#DejaVuSans-48"/>
      </g>
     </g>
    </g>
    <g id="xtick_9">
     <g id="line2d_9">
      <g>
       <use style="stroke:#000000;stroke-width:0.8;" x="369.271646" xlink:href="#m80ec8f4388" y="307.584"/>
      </g>
     </g>
     <g id="text_9">
      <!-- 900.0 -->
      <defs>
       <path d="M 10.984375 1.515625 
L 10.984375 10.5 
Q 14.703125 8.734375 18.5 7.8125 
Q 22.3125 6.890625 25.984375 6.890625 
Q 35.75 6.890625 40.890625 13.453125 
Q 46.046875 20.015625 46.78125 33.40625 
Q 43.953125 29.203125 39.59375 26.953125 
Q 35.25 24.703125 29.984375 24.703125 
Q 19.046875 24.703125 12.671875 31.3125 
Q 6.296875 37.9375 6.296875 49.421875 
Q 6.296875 60.640625 12.9375 67.421875 
Q 19.578125 74.21875 30.609375 74.21875 
Q 43.265625 74.21875 49.921875 64.515625 
Q 56.59375 54.828125 56.59375 36.375 
Q 56.59375 19.140625 48.40625 8.859375 
Q 40.234375 -1.421875 26.421875 -1.421875 
Q 22.703125 -1.421875 18.890625 -0.6875 
Q 15.09375 0.046875 10.984375 1.515625 
z
M 30.609375 32.421875 
Q 37.25 32.421875 41.125 36.953125 
Q 45.015625 41.5 45.015625 49.421875 
Q 45.015625 57.28125 41.125 61.84375 
Q 37.25 66.40625 30.609375 66.40625 
Q 23.96875 66.40625 20.09375 61.84375 
Q 16.21875 57.28125 16.21875 49.421875 
Q 16.21875 41.5 20.09375 36.953125 
Q 23.96875 32.421875 30.609375 32.421875 
z
" id="DejaVuSans-57"/>
      </defs>
      <g transform="translate(354.957584 322.182437)scale(0.1 -0.1)">
       <use xlink:href="#DejaVuSans-57"/>
       <use x="63.623047" xlink:href="#DejaVuSans-48"/>
       <use x="127.246094" xlink:href="#DejaVuSans-48"/>
       <use x="190.869141" xlink:href="#DejaVuSans-46"/>
       <use x="222.65625" xlink:href="#DejaVuSans-48"/>
      </g>
     </g>
    </g>
    <g id="xtick_10">
     <g id="line2d_10">
      <g>
       <use style="stroke:#000000;stroke-width:0.8;" x="402.098193" xlink:href="#m80ec8f4388" y="307.584"/>
      </g>
     </g>
     <g id="text_10">
      <!-- 1000.0 -->
      <g transform="translate(384.60288 322.182437)scale(0.1 -0.1)">
       <use xlink:href="#DejaVuSans-49"/>
       <use x="63.623047" xlink:href="#DejaVuSans-48"/>
       <use x="127.246094" xlink:href="#DejaVuSans-48"/>
       <use x="190.869141" xlink:href="#DejaVuSans-48"/>
       <use x="254.492188" xlink:href="#DejaVuSans-46"/>
       <use x="286.279297" xlink:href="#DejaVuSans-48"/>
      </g>
     </g>
    </g>
    <g id="text_11">
     <!-- n -->
     <defs>
      <path d="M 54.890625 33.015625 
L 54.890625 0 
L 45.90625 0 
L 45.90625 32.71875 
Q 45.90625 40.484375 42.875 44.328125 
Q 39.84375 48.1875 33.796875 48.1875 
Q 26.515625 48.1875 22.3125 43.546875 
Q 18.109375 38.921875 18.109375 30.90625 
L 18.109375 0 
L 9.078125 0 
L 9.078125 54.6875 
L 18.109375 54.6875 
L 18.109375 46.1875 
Q 21.34375 51.125 25.703125 53.5625 
Q 30.078125 56 35.796875 56 
Q 45.21875 56 50.046875 50.171875 
Q 54.890625 44.34375 54.890625 33.015625 
z
" id="DejaVuSans-110"/>
     </defs>
     <g transform="translate(232.99125 335.860562)scale(0.1 -0.1)">
      <use xlink:href="#DejaVuSans-110"/>
     </g>
    </g>
   </g>
   <g id="matplotlib.axis_2">
    <g id="ytick_1">
     <g id="line2d_11">
      <defs>
       <path d="M 0 0 
L -3.5 0 
" id="mc8dcd5f856" style="stroke:#000000;stroke-width:0.8;"/>
      </defs>
      <g>
       <use style="stroke:#000000;stroke-width:0.8;" x="57.6" xlink:href="#mc8dcd5f856" y="303.67112"/>
      </g>
     </g>
     <g id="text_12">
      <!-- 0 -->
      <g transform="translate(44.2375 307.470339)scale(0.1 -0.1)">
       <use xlink:href="#DejaVuSans-48"/>
      </g>
     </g>
    </g>
    <g id="ytick_2">
     <g id="line2d_12">
      <g>
       <use style="stroke:#000000;stroke-width:0.8;" x="57.6" xlink:href="#mc8dcd5f856" y="251.299447"/>
      </g>
     </g>
     <g id="text_13">
      <!-- 200 -->
      <g transform="translate(31.5125 255.098666)scale(0.1 -0.1)">
       <use xlink:href="#DejaVuSans-50"/>
       <use x="63.623047" xlink:href="#DejaVuSans-48"/>
       <use x="127.246094" xlink:href="#DejaVuSans-48"/>
      </g>
     </g>
    </g>
    <g id="ytick_3">
     <g id="line2d_13">
      <g>
       <use style="stroke:#000000;stroke-width:0.8;" x="57.6" xlink:href="#mc8dcd5f856" y="198.927774"/>
      </g>
     </g>
     <g id="text_14">
      <!-- 400 -->
      <g transform="translate(31.5125 202.726993)scale(0.1 -0.1)">
       <use xlink:href="#DejaVuSans-52"/>
       <use x="63.623047" xlink:href="#DejaVuSans-48"/>
       <use x="127.246094" xlink:href="#DejaVuSans-48"/>
      </g>
     </g>
    </g>
    <g id="ytick_4">
     <g id="line2d_14">
      <g>
       <use style="stroke:#000000;stroke-width:0.8;" x="57.6" xlink:href="#mc8dcd5f856" y="146.556101"/>
      </g>
     </g>
     <g id="text_15">
      <!-- 600 -->
      <g transform="translate(31.5125 150.35532)scale(0.1 -0.1)">
       <use xlink:href="#DejaVuSans-54"/>
       <use x="63.623047" xlink:href="#DejaVuSans-48"/>
       <use x="127.246094" xlink:href="#DejaVuSans-48"/>
      </g>
     </g>
    </g>
    <g id="ytick_5">
     <g id="line2d_15">
      <g>
       <use style="stroke:#000000;stroke-width:0.8;" x="57.6" xlink:href="#mc8dcd5f856" y="94.184428"/>
      </g>
     </g>
     <g id="text_16">
      <!-- 800 -->
      <g transform="translate(31.5125 97.983647)scale(0.1 -0.1)">
       <use xlink:href="#DejaVuSans-56"/>
       <use x="63.623047" xlink:href="#DejaVuSans-48"/>
       <use x="127.246094" xlink:href="#DejaVuSans-48"/>
      </g>
     </g>
    </g>
    <g id="ytick_6">
     <g id="line2d_16">
      <g>
       <use style="stroke:#000000;stroke-width:0.8;" x="57.6" xlink:href="#mc8dcd5f856" y="41.812755"/>
      </g>
     </g>
     <g id="text_17">
      <!-- 1000 -->
      <g transform="translate(25.15 45.611974)scale(0.1 -0.1)">
       <use xlink:href="#DejaVuSans-49"/>
       <use x="63.623047" xlink:href="#DejaVuSans-48"/>
       <use x="127.246094" xlink:href="#DejaVuSans-48"/>
       <use x="190.869141" xlink:href="#DejaVuSans-48"/>
      </g>
     </g>
    </g>
    <g id="text_18">
     <!-- speedup -->
     <defs>
      <path d="M 44.28125 53.078125 
L 44.28125 44.578125 
Q 40.484375 46.53125 36.375 47.5 
Q 32.28125 48.484375 27.875 48.484375 
Q 21.1875 48.484375 17.84375 46.4375 
Q 14.5 44.390625 14.5 40.28125 
Q 14.5 37.15625 16.890625 35.375 
Q 19.28125 33.59375 26.515625 31.984375 
L 29.59375 31.296875 
Q 39.15625 29.25 43.1875 25.515625 
Q 47.21875 21.78125 47.21875 15.09375 
Q 47.21875 7.46875 41.1875 3.015625 
Q 35.15625 -1.421875 24.609375 -1.421875 
Q 20.21875 -1.421875 15.453125 -0.5625 
Q 10.6875 0.296875 5.421875 2 
L 5.421875 11.28125 
Q 10.40625 8.6875 15.234375 7.390625 
Q 20.0625 6.109375 24.8125 6.109375 
Q 31.15625 6.109375 34.5625 8.28125 
Q 37.984375 10.453125 37.984375 14.40625 
Q 37.984375 18.0625 35.515625 20.015625 
Q 33.0625 21.96875 24.703125 23.78125 
L 21.578125 24.515625 
Q 13.234375 26.265625 9.515625 29.90625 
Q 5.8125 33.546875 5.8125 39.890625 
Q 5.8125 47.609375 11.28125 51.796875 
Q 16.75 56 26.8125 56 
Q 31.78125 56 36.171875 55.265625 
Q 40.578125 54.546875 44.28125 53.078125 
z
" id="DejaVuSans-115"/>
      <path d="M 18.109375 8.203125 
L 18.109375 -20.796875 
L 9.078125 -20.796875 
L 9.078125 54.6875 
L 18.109375 54.6875 
L 18.109375 46.390625 
Q 20.953125 51.265625 25.265625 53.625 
Q 29.59375 56 35.59375 56 
Q 45.5625 56 51.78125 48.09375 
Q 58.015625 40.1875 58.015625 27.296875 
Q 58.015625 14.40625 51.78125 6.484375 
Q 45.5625 -1.421875 35.59375 -1.421875 
Q 29.59375 -1.421875 25.265625 0.953125 
Q 20.953125 3.328125 18.109375 8.203125 
z
M 48.6875 27.296875 
Q 48.6875 37.203125 44.609375 42.84375 
Q 40.53125 48.484375 33.40625 48.484375 
Q 26.265625 48.484375 22.1875 42.84375 
Q 18.109375 37.203125 18.109375 27.296875 
Q 18.109375 17.390625 22.1875 11.75 
Q 26.265625 6.109375 33.40625 6.109375 
Q 40.53125 6.109375 44.609375 11.75 
Q 48.6875 17.390625 48.6875 27.296875 
z
" id="DejaVuSans-112"/>
      <path d="M 56.203125 29.59375 
L 56.203125 25.203125 
L 14.890625 25.203125 
Q 15.484375 15.921875 20.484375 11.0625 
Q 25.484375 6.203125 34.421875 6.203125 
Q 39.59375 6.203125 44.453125 7.46875 
Q 49.3125 8.734375 54.109375 11.28125 
L 54.109375 2.78125 
Q 49.265625 0.734375 44.1875 -0.34375 
Q 39.109375 -1.421875 33.890625 -1.421875 
Q 20.796875 -1.421875 13.15625 6.1875 
Q 5.515625 13.8125 5.515625 26.8125 
Q 5.515625 40.234375 12.765625 48.109375 
Q 20.015625 56 32.328125 56 
Q 43.359375 56 49.78125 48.890625 
Q 56.203125 41.796875 56.203125 29.59375 
z
M 47.21875 32.234375 
Q 47.125 39.59375 43.09375 43.984375 
Q 39.0625 48.390625 32.421875 48.390625 
Q 24.90625 48.390625 20.390625 44.140625 
Q 15.875 39.890625 15.1875 32.171875 
z
" id="DejaVuSans-101"/>
      <path d="M 45.40625 46.390625 
L 45.40625 75.984375 
L 54.390625 75.984375 
L 54.390625 0 
L 45.40625 0 
L 45.40625 8.203125 
Q 42.578125 3.328125 38.25 0.953125 
Q 33.9375 -1.421875 27.875 -1.421875 
Q 17.96875 -1.421875 11.734375 6.484375 
Q 5.515625 14.40625 5.515625 27.296875 
Q 5.515625 40.1875 11.734375 48.09375 
Q 17.96875 56 27.875 56 
Q 33.9375 56 38.25 53.625 
Q 42.578125 51.265625 45.40625 46.390625 
z
M 14.796875 27.296875 
Q 14.796875 17.390625 18.875 11.75 
Q 22.953125 6.109375 30.078125 6.109375 
Q 37.203125 6.109375 41.296875 11.75 
Q 45.40625 17.390625 45.40625 27.296875 
Q 45.40625 37.203125 41.296875 42.84375 
Q 37.203125 48.484375 30.078125 48.484375 
Q 22.953125 48.484375 18.875 42.84375 
Q 14.796875 37.203125 14.796875 27.296875 
z
" id="DejaVuSans-100"/>
      <path d="M 8.5 21.578125 
L 8.5 54.6875 
L 17.484375 54.6875 
L 17.484375 21.921875 
Q 17.484375 14.15625 20.5 10.265625 
Q 23.53125 6.390625 29.59375 6.390625 
Q 36.859375 6.390625 41.078125 11.03125 
Q 45.3125 15.671875 45.3125 23.6875 
L 45.3125 54.6875 
L 54.296875 54.6875 
L 54.296875 0 
L 45.3125 0 
L 45.3125 8.40625 
Q 42.046875 3.421875 37.71875 1 
Q 33.40625 -1.421875 27.6875 -1.421875 
Q 18.265625 -1.421875 13.375 4.4375 
Q 8.5 10.296875 8.5 21.578125 
z
M 31.109375 56 
z
" id="DejaVuSans-117"/>
     </defs>
     <g transform="translate(19.070312 195.977219)rotate(-90)scale(0.1 -0.1)">
      <use xlink:href="#DejaVuSans-115"/>
      <use x="52.099609" xlink:href="#DejaVuSans-112"/>
      <use x="115.576172" xlink:href="#DejaVuSans-101"/>
      <use x="177.099609" xlink:href="#DejaVuSans-101"/>
      <use x="238.623047" xlink:href="#DejaVuSans-100"/>
      <use x="302.099609" xlink:href="#DejaVuSans-117"/>
      <use x="365.478516" xlink:href="#DejaVuSans-112"/>
     </g>
    </g>
   </g>
   <g id="line2d_17">
    <path clip-path="url(#p7ebbf3f73f)" d="M 73.832727 197.649571 
L 74.160993 188.653618 
L 74.489258 161.693932 
L 74.817524 203.753569 
L 75.145789 108.137397 
L 75.474055 193.294752 
L 75.80232 218.806774 
L 76.130586 118.368258 
L 76.458851 221.617301 
L 76.787116 53.568 
L 77.115382 177.378869 
L 77.443647 124.831676 
L 77.771913 131.348606 
L 78.100178 227.559163 
L 78.428444 133.630565 
L 78.756709 134.638674 
L 79.084975 141.973056 
L 79.41324 145.929676 
L 79.741506 142.971993 
L 80.069771 150.612785 
L 80.398037 122.487513 
L 80.726302 167.044554 
L 81.054568 153.747094 
L 81.382833 158.374205 
L 81.711098 161.289779 
L 82.039364 169.511416 
L 82.695895 160.512929 
L 83.02416 111.59804 
L 83.352426 173.084003 
L 83.680691 174.422706 
L 84.008957 174.223183 
L 84.337222 176.089258 
L 84.665488 180.18901 
L 84.993753 176.780778 
L 85.322019 169.535165 
L 85.650284 184.259597 
L 85.978549 184.059846 
L 86.306815 185.335994 
L 86.63508 188.328936 
L 86.963346 188.486703 
L 87.291611 188.964215 
L 87.619877 150.466491 
L 87.948142 197.67804 
L 88.276408 194.374993 
L 88.604673 194.234167 
L 88.932939 197.363598 
L 89.261204 197.150009 
L 89.58947 197.48714 
L 89.917735 199.002477 
L 90.246001 208.424189 
L 90.574266 201.597526 
L 90.902531 202.943635 
L 91.230797 186.460666 
L 91.559062 186.009123 
L 91.887328 186.856295 
L 92.215593 226.008946 
L 92.543859 208.189118 
L 92.872124 207.205351 
L 93.20039 210.454023 
L 93.528655 211.303273 
L 93.856921 211.7921 
L 94.185186 192.256977 
L 94.513452 234.926264 
L 94.841717 213.630306 
L 95.169983 214.294165 
L 95.498248 213.052996 
L 95.826513 217.305663 
L 96.154779 217.122845 
L 96.483044 202.750271 
L 96.81131 228.354929 
L 97.139575 219.143368 
L 97.467841 218.254327 
L 97.796106 202.557266 
L 98.124372 227.859991 
L 98.452637 221.903611 
L 98.780903 219.894037 
L 99.109168 221.029028 
L 99.437434 224.110002 
L 99.765699 222.082447 
L 100.093965 206.69917 
L 100.42223 229.156366 
L 100.750495 225.463131 
L 101.078761 208.59283 
L 101.407026 231.667382 
L 101.735292 228.444009 
L 102.063557 228.78613 
L 102.391823 228.217074 
L 102.720088 230.973332 
L 103.048354 229.334543 
L 103.376619 230.403819 
L 103.704885 217.361055 
L 104.03315 210.516289 
L 104.361416 206.047905 
L 104.689681 225.704873 
L 105.017947 259.160124 
L 105.346212 226.277599 
L 105.674477 221.831671 
L 106.002743 235.866862 
L 106.331008 234.582105 
L 106.659274 235.804118 
L 106.987539 235.393855 
L 107.315805 235.209998 
L 107.64407 238.378382 
L 107.972336 236.944567 
L 108.300601 237.883705 
L 108.628867 235.509249 
L 108.957132 239.707625 
L 109.285398 239.403905 
L 109.613663 234.49658 
L 109.941928 240.558355 
L 110.270194 239.79871 
L 110.598459 240.780508 
L 110.926725 236.01495 
L 111.25499 241.52705 
L 111.583256 242.262995 
L 112.239787 239.227526 
L 112.568052 243.084911 
L 112.896318 242.715453 
L 113.224583 220.779661 
L 113.552849 246.37631 
L 114.20938 243.520497 
L 114.537645 267.55379 
L 114.86591 245.378267 
L 115.194176 244.945767 
L 115.850707 246.515874 
L 116.178972 246.268955 
L 116.507238 247.793691 
L 116.835503 247.777643 
L 117.163769 246.92374 
L 117.492034 247.682288 
L 117.8203 233.422338 
L 118.148565 249.524268 
L 118.476831 248.667452 
L 118.805096 248.442041 
L 119.133362 250.787295 
L 119.461627 249.76341 
L 119.789892 250.612756 
L 120.118158 249.436575 
L 120.446423 249.519669 
L 120.774689 249.964128 
L 121.102954 239.102434 
L 121.43122 257.714911 
L 121.759485 251.158929 
L 122.087751 251.421356 
L 122.416016 250.814834 
L 123.072547 252.334159 
L 123.400813 238.821559 
L 123.729078 260.644076 
L 124.057344 240.361444 
L 124.385609 253.883175 
L 124.713874 253.997943 
L 125.04214 253.908588 
L 125.370405 252.338121 
L 126.026936 254.148274 
L 126.355202 254.668014 
L 126.683467 254.398456 
L 127.011733 256.084604 
L 127.339998 255.383981 
L 127.668264 249.950539 
L 127.996529 258.389736 
L 128.324795 255.598482 
L 128.65306 256.162028 
L 128.981325 256.275421 
L 129.309591 256.891864 
L 129.637856 256.576824 
L 129.966122 256.492511 
L 130.294387 258.380379 
L 130.622653 257.339128 
L 131.279184 246.025605 
L 131.607449 257.443552 
L 131.935715 256.249663 
L 132.26398 253.407524 
L 132.592246 259.177327 
L 132.920511 258.685417 
L 133.248777 260.309278 
L 133.577042 259.329529 
L 133.905307 259.434434 
L 134.233573 256.526266 
L 134.561838 260.368738 
L 134.890104 259.844789 
L 135.218369 258.737645 
L 135.546635 246.996212 
L 135.8749 260.892973 
L 136.203166 259.297232 
L 136.859697 260.838392 
L 137.187962 261.195166 
L 137.516228 260.138983 
L 137.844493 260.885684 
L 138.172759 261.239194 
L 138.501024 261.089656 
L 138.829289 262.221279 
L 139.48582 262.624476 
L 139.814086 260.387712 
L 140.142351 263.114769 
L 140.470617 262.927477 
L 140.798882 262.345006 
L 141.127148 264.254155 
L 141.455413 246.846119 
L 141.783679 253.403881 
L 142.111944 263.647229 
L 142.44021 263.446001 
L 142.768475 264.399416 
L 143.096741 264.421169 
L 143.425006 263.967653 
L 143.753271 255.866415 
L 144.081537 266.082751 
L 144.409802 264.674749 
L 144.738068 263.926066 
L 145.066333 265.782754 
L 145.394599 264.858528 
L 145.722864 264.942726 
L 146.05113 264.558063 
L 146.379395 264.880168 
L 146.707661 265.486686 
L 147.035926 258.127316 
L 147.364192 267.057398 
L 147.692457 265.250691 
L 148.020722 265.312506 
L 148.348988 267.359051 
L 148.677253 266.223918 
L 149.005519 262.908662 
L 149.333784 261.545676 
L 149.66205 266.837311 
L 150.318581 267.037946 
L 150.646846 266.77116 
L 150.975112 267.148469 
L 151.303377 266.917847 
L 151.631643 268.3113 
L 151.959908 267.39297 
L 152.288174 267.377701 
L 152.616439 267.825042 
L 152.944704 268.632489 
L 153.27297 267.864532 
L 153.601235 268.087596 
L 153.929501 268.511055 
L 154.586032 268.108309 
L 155.242563 269.155966 
L 155.570828 268.325936 
L 155.899094 269.392522 
L 156.227359 268.983226 
L 156.555625 261.717158 
L 156.88389 261.039042 
L 157.212156 269.317174 
L 157.540421 269.19764 
L 157.868686 266.971867 
L 158.196952 269.86992 
L 158.525217 263.808924 
L 158.853483 270.25655 
L 159.181748 270.247139 
L 159.510014 269.908912 
L 159.838279 274.207921 
L 160.166545 270.134885 
L 160.49481 270.154902 
L 160.823076 269.91861 
L 161.151341 271.418321 
L 161.479607 270.536523 
L 161.807872 270.326144 
L 162.136138 271.688048 
L 162.464403 271.17216 
L 162.792668 270.903979 
L 163.120934 271.594581 
L 163.777465 271.029693 
L 164.10573 271.102418 
L 164.433996 271.554313 
L 164.762261 271.545103 
L 165.090527 270.739111 
L 165.418792 272.315364 
L 165.747058 271.932076 
L 166.075323 271.980736 
L 166.403589 272.536049 
L 166.731854 272.064114 
L 167.060119 272.05111 
L 167.388385 272.628032 
L 167.71665 272.394675 
L 168.044916 272.403309 
L 168.373181 272.598303 
L 168.701447 272.584007 
L 169.029712 272.736619 
L 169.357978 272.622778 
L 169.686243 273.288742 
L 170.342774 272.86209 
L 170.67104 273.509063 
L 171.327571 273.319604 
L 171.655836 273.757145 
L 171.984101 273.757 
L 172.312367 273.635948 
L 172.640632 273.246824 
L 172.968898 274.200263 
L 173.625429 273.45029 
L 173.953694 274.230569 
L 174.28196 274.358503 
L 174.610225 273.041939 
L 174.938491 276.885283 
L 175.266756 269.598745 
L 175.923287 280.390181 
L 176.251553 274.609824 
L 176.579818 266.147567 
L 176.908083 275.258482 
L 177.564614 274.626259 
L 177.89288 275.445581 
L 178.221145 274.93368 
L 178.549411 269.040609 
L 178.877676 275.654883 
L 179.205942 275.143423 
L 179.534207 275.197662 
L 179.862473 275.522844 
L 180.190738 275.240374 
L 180.519004 275.625001 
L 180.847269 275.476189 
L 181.175535 275.856585 
L 181.5038 275.752099 
L 181.832065 272.285275 
L 182.488596 281.438949 
L 182.816862 272.136588 
L 183.145127 276.881544 
L 183.473393 276.135296 
L 183.801658 276.307407 
L 184.129924 275.86432 
L 184.458189 276.389868 
L 184.786455 276.11976 
L 185.11472 276.858963 
L 185.771251 276.284136 
L 186.099516 277.124136 
L 186.756047 276.507963 
L 187.084313 277.399746 
L 187.412578 277.012199 
L 187.740844 276.958948 
L 188.397375 277.398486 
L 188.72564 277.056303 
L 189.053906 277.546428 
L 189.382171 277.645687 
L 189.710437 273.5449 
L 190.038702 273.438182 
L 190.366968 277.568926 
L 190.695233 273.210568 
L 191.023498 274.391149 
L 191.351764 277.94891 
L 191.680029 277.119056 
L 192.008295 278.106788 
L 192.664826 277.488335 
L 192.993091 278.327045 
L 193.321357 278.019742 
L 193.649622 270.826185 
L 193.977888 278.795237 
L 194.306153 278.23346 
L 194.634419 278.03256 
L 194.962684 278.921588 
L 195.29095 278.397212 
L 195.619215 278.409524 
L 195.94748 278.723976 
L 196.275746 278.563882 
L 196.604011 272.418073 
L 196.932277 279.09044 
L 197.260542 278.624864 
L 197.588808 275.228323 
L 197.917073 278.857056 
L 198.245339 276.438542 
L 198.573604 271.941011 
L 198.90187 279.712739 
L 199.230135 278.915448 
L 199.558401 279.013285 
L 199.886666 279.35723 
L 200.214932 279.351566 
L 200.543197 273.4103 
L 200.871462 279.642258 
L 201.199728 277.47313 
L 201.856259 279.740302 
L 202.184524 279.41886 
L 202.51279 273.746292 
L 202.841055 279.578464 
L 203.169321 279.664915 
L 203.497586 279.39204 
L 203.825852 279.954477 
L 204.154117 279.87176 
L 204.482383 276.151723 
L 204.810648 280.287114 
L 205.138914 280.073697 
L 205.467179 280.014487 
L 205.795444 280.48034 
L 206.12371 280.197225 
L 206.451975 277.791159 
L 206.780241 276.211292 
L 207.108506 279.827831 
L 207.765037 280.421876 
L 208.093303 279.610255 
L 208.421568 280.835736 
L 208.749834 280.591711 
L 209.078099 275.674206 
L 209.406365 280.977777 
L 209.73463 280.581582 
L 210.062895 280.458702 
L 210.391161 281.044749 
L 210.719426 280.870428 
L 211.047692 280.915653 
L 211.375957 280.544454 
L 211.704223 281.125266 
L 212.032488 275.573374 
L 212.360754 281.573585 
L 212.689019 281.272888 
L 213.017285 275.821143 
L 213.34555 281.201006 
L 213.673816 281.258084 
L 214.002081 275.644648 
L 214.330347 281.752881 
L 214.658612 281.541768 
L 214.986877 281.471289 
L 215.315143 281.879713 
L 215.643408 281.709473 
L 215.971674 275.173474 
L 216.299939 282.033541 
L 216.628205 281.521938 
L 216.95647 282.904935 
L 217.284736 281.680341 
L 217.613001 277.758363 
L 217.941267 281.832965 
L 218.269532 281.922607 
L 218.597798 281.88576 
L 218.926063 282.048664 
L 219.254329 282.064021 
L 219.582594 277.936375 
L 219.910859 282.366996 
L 220.239125 282.074903 
L 220.56739 282.064523 
L 220.895656 282.515143 
L 221.223921 285.145415 
L 221.552187 279.819977 
L 221.880452 279.237469 
L 222.208718 282.572153 
L 222.536983 282.867367 
L 222.865249 282.617113 
L 223.193514 282.522568 
L 223.52178 281.421904 
L 223.850045 282.979726 
L 224.178311 282.633376 
L 224.506576 282.936973 
L 224.834841 282.912299 
L 225.163107 282.744541 
L 225.491372 283.010137 
L 225.819638 285.916936 
L 226.147903 282.913064 
L 226.476169 283.105141 
L 227.1327 283.001495 
L 227.460965 282.815721 
L 227.789231 283.095111 
L 228.117496 283.141923 
L 228.445762 282.299569 
L 228.774027 282.368803 
L 229.102292 282.236227 
L 229.430558 281.782954 
L 229.758823 283.305153 
L 230.087089 283.614573 
L 230.415354 283.211385 
L 230.74362 283.039828 
L 231.071885 289.356027 
L 231.400151 283.334211 
L 231.728416 282.994512 
L 232.056682 282.424267 
L 232.384947 284.014068 
L 232.713213 283.705376 
L 233.041478 282.720871 
L 233.369744 284.079859 
L 233.698009 283.813682 
L 234.026274 283.173663 
L 234.35454 283.960934 
L 234.682805 283.837206 
L 235.011071 283.374721 
L 235.339336 284.311633 
L 235.667602 283.911862 
L 235.995867 284.19608 
L 236.652398 284.037235 
L 237.308929 281.269257 
L 237.637195 283.932159 
L 237.96546 284.174627 
L 238.293726 284.153809 
L 238.621991 280.23318 
L 238.950256 284.156606 
L 239.278522 284.438489 
L 239.606787 283.392901 
L 239.935053 284.290869 
L 240.263318 284.756334 
L 240.591584 279.116311 
L 240.919849 284.779493 
L 241.248115 284.587145 
L 241.57638 284.608803 
L 241.904646 284.285769 
L 242.232911 284.594278 
L 242.561177 284.235911 
L 242.889442 284.597941 
L 243.545973 284.549312 
L 243.874238 284.706171 
L 244.530769 280.933213 
L 244.859035 284.869262 
L 245.1873 284.679187 
L 245.515566 284.931571 
L 245.843831 284.930719 
L 246.172097 284.422177 
L 246.500362 285.180183 
L 247.156893 284.748468 
L 247.485159 285.319835 
L 248.141689 284.839917 
L 248.469955 285.33155 
L 248.79822 285.152203 
L 249.126486 284.824903 
L 249.454751 285.158311 
L 250.111282 285.208537 
L 250.439548 284.628226 
L 250.767813 280.299381 
L 251.096079 285.44955 
L 251.424344 285.325996 
L 251.75261 283.379419 
L 252.080875 282.533323 
L 252.409141 285.457371 
L 253.065671 285.552183 
L 253.393937 281.47147 
L 253.722202 285.56869 
L 254.050468 285.638542 
L 254.378733 283.480269 
L 254.706999 285.952597 
L 255.035264 287.517584 
L 255.36353 285.492118 
L 255.691795 285.790457 
L 256.020061 285.488669 
L 256.348326 285.797838 
L 256.676592 285.797016 
L 257.004857 285.5727 
L 257.661388 286.032125 
L 257.989653 285.882028 
L 258.317919 286.089402 
L 258.646184 286.066669 
L 258.97445 287.829654 
L 259.302715 286.103228 
L 259.630981 285.896153 
L 260.287512 286.127947 
L 260.615777 286.124217 
L 260.944043 285.847876 
L 261.272308 286.41439 
L 261.600574 286.214793 
L 261.928839 286.149293 
L 262.257105 286.37379 
L 262.913635 286.218396 
L 263.241901 286.414407 
L 263.570166 286.373849 
L 263.898432 288.104077 
L 264.226697 286.439217 
L 264.554963 286.238506 
L 264.883228 286.71219 
L 265.539759 286.497352 
L 265.868025 286.758993 
L 266.19629 286.702905 
L 266.524556 281.967804 
L 266.852821 283.030565 
L 267.181086 287.658891 
L 267.509352 286.681316 
L 268.494148 286.859903 
L 268.822414 286.769537 
L 269.478945 287.033265 
L 269.80721 286.66195 
L 270.135476 287.132951 
L 270.792007 286.934738 
L 271.120272 287.067999 
L 272.105068 287.100261 
L 272.433334 286.846152 
L 272.761599 286.128598 
L 273.089865 287.209217 
L 273.41813 286.79359 
L 273.746396 287.503311 
L 274.074661 286.012384 
L 274.402927 287.242999 
L 274.731192 287.262129 
L 275.059458 286.995403 
L 275.387723 286.074999 
L 275.715989 287.370913 
L 276.044254 286.477874 
L 276.37252 288.100072 
L 276.700785 287.466366 
L 277.02905 287.093398 
L 277.357316 287.739416 
L 277.685581 287.51567 
L 278.342112 287.53786 
L 278.670378 287.130055 
L 278.998643 287.920102 
L 279.326909 287.589227 
L 279.655174 287.429734 
L 279.98344 287.581831 
L 280.311705 288.748734 
L 280.639971 286.438598 
L 280.968236 287.653315 
L 281.296502 287.320631 
L 281.624767 287.762559 
L 281.953032 287.159021 
L 282.281298 287.019984 
L 282.609563 287.796538 
L 282.937829 287.715881 
L 283.266094 287.061625 
L 283.59436 287.288057 
L 283.922625 287.652584 
L 284.250891 287.839383 
L 284.579156 287.293757 
L 284.907422 287.472221 
L 285.235687 287.779896 
L 285.892218 287.895184 
L 286.220484 287.616277 
L 286.548749 287.595984 
L 286.877014 287.928323 
L 287.20528 287.995817 
L 287.533545 287.048716 
L 287.861811 287.864022 
L 288.190076 287.567369 
L 288.518342 287.572678 
L 288.846607 288.011409 
L 289.174873 288.103449 
L 289.503138 288.647056 
L 289.831404 287.347924 
L 290.159669 287.691982 
L 290.487935 287.463304 
L 290.8162 288.169938 
L 291.144465 289.199748 
L 291.472731 288.271049 
L 291.800996 288.268753 
L 292.129262 288.459407 
L 292.457527 288.325626 
L 292.785793 287.759214 
L 293.442324 288.308232 
L 293.770589 287.193527 
L 294.098855 289.737713 
L 294.42712 288.417349 
L 294.755386 288.157244 
L 295.083651 288.557998 
L 295.411917 287.227436 
L 295.740182 288.491229 
L 296.068447 288.297164 
L 296.396713 287.86989 
L 296.724978 288.548293 
L 297.053244 288.624307 
L 297.381509 289.000871 
L 297.709775 288.63587 
L 298.03804 287.480439 
L 298.366306 288.530596 
L 298.694571 288.568267 
L 299.022837 287.882787 
L 299.351102 288.789767 
L 299.679368 288.69522 
L 300.007633 287.877056 
L 300.335899 288.726049 
L 300.664164 288.283559 
L 301.320695 288.770188 
L 301.64896 287.869766 
L 301.977226 288.848955 
L 302.305491 288.826803 
L 302.633757 288.391073 
L 302.962022 288.871292 
L 303.290288 288.267397 
L 303.618553 288.695144 
L 303.946819 288.927459 
L 304.275084 287.500381 
L 304.60335 289.094086 
L 304.931615 288.938055 
L 305.259881 289.520775 
L 305.916411 288.273567 
L 306.244677 289.049794 
L 306.901208 288.254615 
L 307.229473 289.078459 
L 307.557739 288.258645 
L 307.886004 288.616803 
L 308.21427 289.174887 
L 308.542535 282.953082 
L 309.199066 289.114664 
L 309.527332 289.094929 
L 309.855597 289.20955 
L 310.183862 288.90349 
L 310.512128 289.417726 
L 312.153455 289.246486 
L 313.138252 289.399408 
L 313.466517 289.417816 
L 313.794783 289.277125 
L 314.123048 289.41087 
L 314.451314 285.510743 
L 314.779579 289.386335 
L 315.107844 289.438562 
L 315.43611 289.112251 
L 315.764375 289.589327 
L 316.420906 289.3513 
L 316.749172 289.603687 
L 317.077437 289.302789 
L 317.405703 289.688417 
L 317.733968 289.615028 
L 318.390499 289.706274 
L 318.718765 289.180803 
L 319.04703 289.501816 
L 319.703561 289.655627 
L 320.031826 289.656973 
L 320.360092 286.800671 
L 320.688357 289.780182 
L 321.344888 289.693294 
L 321.673154 289.689513 
L 322.001419 286.017376 
L 322.329685 286.532625 
L 322.65795 289.783734 
L 322.986216 289.741554 
L 323.314481 289.821522 
L 323.642747 289.614246 
L 323.971012 289.981203 
L 324.299278 289.929649 
L 324.627543 290.040536 
L 325.284074 289.835756 
L 325.612339 290.032023 
L 325.940605 290.081993 
L 326.26887 289.837657 
L 326.597136 290.040518 
L 326.925401 289.855296 
L 327.581932 290.105408 
L 327.910198 286.669936 
L 328.238463 290.211673 
L 328.566729 290.046381 
L 328.894994 290.054147 
L 329.223259 290.181298 
L 329.551525 288.216109 
L 329.87979 289.097372 
L 330.208056 285.97889 
L 330.536321 288.516394 
L 330.864587 287.114744 
L 331.192852 288.939076 
L 331.521118 287.051188 
L 331.849383 289.486653 
L 332.177649 289.588949 
L 332.505914 287.624272 
L 332.83418 290.347279 
L 333.162445 288.009348 
L 333.490711 291.032012 
L 333.818976 287.150942 
L 334.147241 290.271105 
L 334.475507 290.24755 
L 334.803772 291.538404 
L 335.132038 290.43054 
L 335.460303 290.159514 
L 335.788569 290.490553 
L 336.116834 290.436161 
L 336.4451 290.09478 
L 336.773365 290.48979 
L 337.101631 290.108018 
L 337.429896 290.463062 
L 337.758162 290.54701 
L 338.086427 290.369576 
L 338.414693 290.432784 
L 338.742958 290.378784 
L 339.071223 290.562931 
L 339.399489 290.551563 
L 339.727754 290.244157 
L 340.05602 291.707607 
L 340.384285 289.968851 
L 340.712551 290.436188 
L 341.040816 290.542798 
L 341.369082 286.44084 
L 341.697347 290.745398 
L 342.025613 289.853324 
L 342.353878 290.76991 
L 342.682144 290.292361 
L 343.010409 290.323412 
L 343.338675 290.701036 
L 343.66694 289.554812 
L 343.995205 290.90685 
L 344.651736 290.27894 
L 344.980002 290.786754 
L 345.308267 289.978873 
L 345.636533 290.473487 
L 345.964798 289.820019 
L 346.293064 290.090729 
L 346.621329 291.067623 
L 346.949595 290.435474 
L 347.27786 290.911677 
L 347.606126 288.247198 
L 347.934391 288.239631 
L 348.262656 290.125619 
L 348.919187 290.982718 
L 349.247453 290.296309 
L 349.575718 290.98188 
L 349.903984 289.251637 
L 350.232249 290.851019 
L 350.560515 289.967313 
L 350.88878 290.720992 
L 351.217046 291.04418 
L 351.545311 290.902777 
L 351.873577 291.079989 
L 352.201842 291.702505 
L 352.530108 290.720836 
L 352.858373 291.028637 
L 353.186638 290.53211 
L 353.514904 291.222081 
L 353.843169 287.660135 
L 354.171435 290.920115 
L 354.4997 291.132396 
L 354.827966 290.948915 
L 355.156231 291.144831 
L 355.484497 288.219515 
L 355.812762 291.198614 
L 356.141028 289.899427 
L 356.469293 291.663661 
L 356.797559 289.644156 
L 357.125824 290.752943 
L 357.45409 291.182374 
L 357.782355 290.714348 
L 358.11062 291.218687 
L 358.438886 290.410075 
L 359.095417 291.299002 
L 359.423682 291.480361 
L 359.751948 291.926806 
L 360.080213 290.815459 
L 360.408479 286.39073 
L 360.736744 290.91781 
L 361.06501 291.50492 
L 361.721541 291.12613 
L 362.049806 291.40543 
L 362.378072 290.896615 
L 362.706337 291.43015 
L 363.362868 291.20538 
L 363.691133 291.404977 
L 364.019399 291.202204 
L 364.347664 291.377653 
L 364.67593 291.183372 
L 365.004195 291.211151 
L 365.332461 291.466151 
L 365.660726 287.892475 
L 365.988992 291.496333 
L 366.317257 287.548857 
L 366.645523 291.612951 
L 366.973788 290.564167 
L 367.302053 291.546456 
L 368.28685 291.625995 
L 368.615115 290.792978 
L 368.943381 291.463339 
L 369.271646 288.948841 
L 369.599912 288.358563 
L 369.928177 287.500742 
L 370.256443 287.512187 
L 370.912974 286.608434 
L 371.241239 287.916732 
L 371.569505 286.851873 
L 371.89777 290.469395 
L 372.226035 290.337333 
L 372.554301 291.609854 
L 372.882566 291.677194 
L 373.210832 290.710706 
L 373.539097 291.811585 
L 373.867363 290.425025 
L 374.195628 291.637614 
L 374.523894 291.59674 
L 374.852159 290.785241 
L 375.180425 291.73719 
L 375.50869 292.061315 
L 376.165221 291.610176 
L 376.821752 291.806677 
L 377.150017 291.654924 
L 377.478283 291.769397 
L 377.806548 291.017901 
L 378.134814 291.949004 
L 378.463079 291.348109 
L 378.791345 291.95495 
L 379.11961 291.918485 
L 379.447876 290.7665 
L 379.776141 291.920818 
L 380.104407 291.729108 
L 380.432672 292.037951 
L 380.760938 291.776703 
L 381.089203 291.139507 
L 381.417469 291.944951 
L 381.745734 291.589689 
L 382.073999 292.029939 
L 382.402265 291.096565 
L 382.73053 292.00933 
L 383.058796 291.751106 
L 383.715327 291.657702 
L 384.043592 291.178078 
L 384.371858 291.884421 
L 384.700123 289.81219 
L 385.028389 286.153343 
L 385.356654 291.604732 
L 385.68492 292.04348 
L 386.013185 286.057092 
L 386.341451 290.564021 
L 386.669716 291.724836 
L 387.326247 291.967339 
L 387.654512 289.99178 
L 387.982778 291.64633 
L 388.311043 292.100599 
L 388.639309 291.824679 
L 388.967574 291.896694 
L 389.29584 290.695455 
L 389.624105 292.063408 
L 389.952371 289.566813 
L 390.280636 292.166586 
L 390.608902 290.012427 
L 390.937167 291.912081 
L 391.265432 291.499684 
L 391.593698 292.164803 
L 391.921963 292.286435 
L 392.250229 291.905858 
L 392.578494 292.38437 
L 392.90676 289.910304 
L 393.235025 292.333972 
L 393.563291 290.33936 
L 393.891556 292.156148 
L 394.219822 291.368354 
L 394.548087 292.133774 
L 394.876353 292.390573 
L 395.204618 292.212774 
L 395.532884 292.413629 
L 395.861149 290.933299 
L 396.189414 293.257474 
L 396.51768 290.409492 
L 396.845945 292.007495 
L 397.174211 291.532912 
L 397.502476 291.696813 
L 397.830742 292.446027 
L 398.159007 292.204483 
L 398.487273 292.49542 
L 398.487273 292.49542 
" style="fill:none;stroke:#1f77b4;stroke-linecap:square;stroke-width:1.5;"/>
   </g>
   <g id="line2d_18">
    <path clip-path="url(#p7ebbf3f73f)" d="M 73.832727 139.888854 
L 74.160993 102.304723 
L 74.489258 105.215006 
L 74.817524 121.965516 
L 75.145789 110.399365 
L 75.474055 123.448377 
L 75.80232 122.013195 
L 76.458851 132.674755 
L 76.787116 128.255835 
L 77.115382 130.873751 
L 77.443647 151.638318 
L 77.771913 145.193665 
L 78.100178 141.480246 
L 78.428444 147.165222 
L 78.756709 157.996742 
L 79.084975 157.611125 
L 79.41324 160.573496 
L 79.741506 172.956608 
L 80.069771 211.279104 
L 80.398037 167.459267 
L 80.726302 171.863095 
L 81.054568 174.507099 
L 81.382833 173.843825 
L 81.711098 173.585451 
L 82.039364 175.75149 
L 82.367629 189.630348 
L 82.695895 183.835704 
L 83.02416 185.725717 
L 83.352426 149.335902 
L 83.680691 187.429782 
L 84.008957 192.172679 
L 84.337222 174.992244 
L 84.665488 195.399547 
L 84.993753 248.137631 
L 85.322019 193.399125 
L 85.650284 200.377803 
L 85.978549 200.658237 
L 86.306815 201.728118 
L 86.63508 202.057185 
L 86.963346 208.554613 
L 87.291611 202.188472 
L 87.619877 207.371763 
L 87.948142 179.057586 
L 88.276408 213.68262 
L 88.604673 209.357894 
L 88.932939 209.631683 
L 89.261204 211.326322 
L 89.58947 213.846992 
L 89.917735 215.017265 
L 90.246001 215.446813 
L 90.902531 215.780314 
L 91.230797 218.356973 
L 91.559062 198.460709 
L 91.887328 222.449316 
L 92.215593 221.926822 
L 92.543859 211.628485 
L 92.872124 210.734833 
L 93.20039 224.302589 
L 93.528655 224.280405 
L 93.856921 222.646917 
L 94.185186 208.989051 
L 94.513452 226.237132 
L 94.841717 229.55305 
L 95.169983 228.353587 
L 95.498248 229.076569 
L 95.826513 228.358768 
L 96.154779 233.280885 
L 96.483044 231.841949 
L 96.81131 231.79961 
L 97.139575 232.713074 
L 97.467841 232.777463 
L 97.796106 233.0662 
L 98.124372 235.616234 
L 98.452637 233.157514 
L 98.780903 237.633956 
L 99.437434 235.746556 
L 99.765699 238.545847 
L 100.093965 238.674223 
L 100.42223 239.396825 
L 100.750495 239.329302 
L 101.078761 241.511993 
L 101.407026 242.441091 
L 101.735292 241.47369 
L 102.063557 223.215173 
L 102.391823 245.276967 
L 102.720088 244.15512 
L 103.048354 239.375157 
L 103.376619 247.047178 
L 103.704885 244.06198 
L 104.03315 244.084427 
L 104.361416 244.851391 
L 104.689681 244.35479 
L 105.017947 245.968 
L 105.346212 246.128076 
L 105.674477 247.955044 
L 106.002743 246.765315 
L 106.331008 246.70014 
L 106.659274 238.094454 
L 106.987539 249.866344 
L 107.315805 248.836901 
L 107.64407 248.691305 
L 107.972336 249.952069 
L 108.300601 247.492493 
L 108.957132 253.314936 
L 109.285398 251.411466 
L 109.613663 251.453856 
L 109.941928 242.374078 
L 110.270194 259.213273 
L 110.598459 252.854922 
L 110.926725 252.563794 
L 111.25499 250.923761 
L 111.583256 257.657675 
L 112.239787 250.130788 
L 112.568052 252.204354 
L 112.896318 264.982321 
L 113.224583 253.905074 
L 113.552849 255.91634 
L 113.881114 255.14865 
L 114.20938 255.826082 
L 114.537645 253.418886 
L 114.86591 257.926021 
L 115.194176 256.51098 
L 115.522441 250.057116 
L 115.850707 265.154085 
L 116.178972 257.174722 
L 116.507238 257.568968 
L 116.835503 256.51169 
L 117.163769 260.18236 
L 117.492034 259.102588 
L 117.8203 257.437185 
L 118.148565 259.314576 
L 118.476831 259.187714 
L 118.805096 259.576966 
L 119.133362 258.172258 
L 119.461627 261.132729 
L 119.789892 259.756825 
L 120.118158 258.877294 
L 120.446423 261.614387 
L 120.774689 260.655749 
L 121.102954 260.912231 
L 121.43122 260.140704 
L 121.759485 263.186367 
L 122.087751 261.435361 
L 122.416016 260.704288 
L 122.744282 262.777857 
L 123.072547 262.173016 
L 123.400813 262.428575 
L 123.729078 261.858903 
L 124.057344 264.901643 
L 124.385609 263.892502 
L 124.713874 262.470825 
L 125.04214 264.891117 
L 125.370405 264.276992 
L 125.698671 264.609884 
L 126.026936 268.90796 
L 126.355202 265.542952 
L 126.683467 264.776297 
L 127.011733 264.976272 
L 127.339998 265.020076 
L 127.668264 265.975469 
L 127.996529 264.968434 
L 128.324795 265.270137 
L 128.65306 266.475247 
L 128.981325 265.878267 
L 129.309591 264.915363 
L 129.637856 266.98986 
L 129.966122 266.704278 
L 130.294387 266.626483 
L 130.622653 254.946601 
L 130.950918 267.201777 
L 131.279184 263.480415 
L 131.607449 268.404526 
L 131.935715 267.339084 
L 132.26398 267.948401 
L 132.592246 266.263557 
L 132.920511 269.388603 
L 133.577042 266.99091 
L 133.905307 269.296489 
L 134.233573 269.487646 
L 134.561838 268.742724 
L 134.890104 270.85305 
L 135.218369 269.272126 
L 135.546635 268.436369 
L 135.8749 268.064861 
L 136.203166 269.854582 
L 136.531431 270.611294 
L 136.859697 269.534052 
L 137.516228 270.147327 
L 138.172759 269.721753 
L 138.501024 271.314382 
L 138.829289 270.860269 
L 139.157555 268.587857 
L 139.48582 271.523939 
L 139.814086 271.136023 
L 140.142351 270.01237 
L 140.470617 271.263273 
L 140.798882 271.629133 
L 141.127148 270.947602 
L 141.455413 271.034171 
L 141.783679 272.863711 
L 142.111944 272.273235 
L 142.44021 270.645018 
L 142.768475 273.005205 
L 143.096741 272.634105 
L 143.425006 272.712098 
L 143.753271 271.775903 
L 144.081537 273.096388 
L 144.409802 272.972695 
L 144.738068 272.182987 
L 145.066333 273.127905 
L 145.394599 273.230162 
L 145.722864 272.226622 
L 146.05113 273.7036 
L 146.379395 273.668392 
L 146.707661 273.024586 
L 147.364192 274.259768 
L 147.692457 273.539177 
L 148.020722 268.488749 
L 148.348988 274.454911 
L 148.677253 268.945647 
L 149.005519 274.179687 
L 149.333784 275.068711 
L 149.66205 274.702632 
L 149.990315 272.280119 
L 150.318581 274.92784 
L 150.646846 274.936039 
L 150.975112 273.700153 
L 151.303377 273.343911 
L 151.631643 275.327482 
L 151.959908 275.196095 
L 152.288174 276.649237 
L 152.616439 275.666563 
L 152.944704 275.666712 
L 153.27297 273.158513 
L 153.601235 275.8403 
L 153.929501 276.020709 
L 154.257766 272.847462 
L 154.586032 277.410898 
L 154.914297 276.461173 
L 155.242563 274.871072 
L 155.570828 280.233638 
L 155.899094 276.776354 
L 156.227359 275.181954 
L 156.555625 274.668985 
L 156.88389 276.81677 
L 157.212156 276.593594 
L 157.540421 275.44965 
L 157.868686 277.046812 
L 158.196952 277.395415 
L 158.525217 274.357543 
L 158.853483 277.767148 
L 159.181748 277.549417 
L 159.510014 274.468614 
L 159.838279 278.098531 
L 160.166545 277.728361 
L 160.49481 275.297077 
L 160.823076 283.157549 
L 161.151341 277.83938 
L 161.807872 276.63531 
L 162.136138 278.210679 
L 162.464403 278.049018 
L 162.792668 277.725529 
L 163.120934 278.626595 
L 163.449199 278.493362 
L 163.777465 276.620543 
L 164.10573 279.181562 
L 164.433996 278.694098 
L 164.762261 276.325186 
L 165.090527 279.451769 
L 165.418792 278.799681 
L 165.747058 276.393752 
L 166.075323 280.32834 
L 166.731854 278.129368 
L 167.060119 279.456639 
L 167.388385 279.4688 
L 167.71665 279.343936 
L 168.044916 279.34587 
L 168.373181 279.721718 
L 168.701447 279.685985 
L 169.029712 283.409288 
L 169.357978 280.30207 
L 169.686243 279.935599 
L 170.014509 279.337288 
L 170.342774 280.197104 
L 170.67104 280.097691 
L 170.999305 279.288961 
L 171.327571 280.552591 
L 171.655836 280.406937 
L 171.984101 279.871111 
L 172.312367 280.571346 
L 172.640632 284.143679 
L 172.968898 279.798451 
L 173.297163 280.43357 
L 173.625429 280.808328 
L 173.953694 280.404631 
L 174.28196 280.945562 
L 174.610225 280.846468 
L 174.938491 280.959704 
L 175.266756 275.381305 
L 175.595022 281.582592 
L 175.923287 281.155753 
L 176.251553 275.637723 
L 176.579818 281.765254 
L 176.908083 281.246937 
L 177.236349 274.85934 
L 177.564614 281.763636 
L 177.89288 281.586738 
L 178.221145 279.220798 
L 178.549411 281.726636 
L 178.877676 281.567518 
L 179.205942 276.458026 
L 179.534207 282.156658 
L 179.862473 281.981918 
L 180.190738 279.767876 
L 180.519004 282.116834 
L 180.847269 282.050627 
L 181.175535 275.778203 
L 181.5038 282.384033 
L 181.832065 281.694735 
L 182.160331 283.533256 
L 182.488596 282.298079 
L 182.816862 279.275732 
L 183.145127 283.163852 
L 183.473393 282.123397 
L 183.801658 279.498173 
L 184.129924 282.954776 
L 184.458189 282.80775 
L 184.786455 279.603607 
L 185.11472 282.939171 
L 185.442986 282.857216 
L 185.771251 278.626308 
L 186.099516 282.917679 
L 186.427782 282.829117 
L 186.756047 278.531699 
L 187.084313 283.062513 
L 187.412578 283.217799 
L 187.740844 279.074302 
L 188.069109 283.084563 
L 188.397375 283.324452 
L 188.72564 278.651393 
L 189.053906 283.335638 
L 189.382171 283.442651 
L 189.710437 279.495177 
L 190.038702 283.677931 
L 190.366968 283.543368 
L 190.695233 279.212314 
L 191.023498 283.85013 
L 191.351764 283.691486 
L 191.680029 282.98004 
L 192.008295 283.874127 
L 192.33656 283.754854 
L 192.664826 278.511683 
L 192.993091 284.058001 
L 193.321357 283.956583 
L 193.649622 281.711944 
L 193.977888 284.389927 
L 194.306153 284.075303 
L 194.634419 281.628665 
L 194.962684 284.431619 
L 195.29095 284.220093 
L 195.619215 283.407845 
L 195.94748 284.265958 
L 196.275746 284.403405 
L 196.604011 283.288615 
L 196.932277 284.443845 
L 197.260542 284.475884 
L 197.588808 284.004859 
L 197.917073 284.744677 
L 198.245339 284.575282 
L 198.573604 283.941484 
L 198.90187 284.892991 
L 199.230135 284.738396 
L 199.558401 284.218529 
L 199.886666 284.971094 
L 200.214932 285.086093 
L 200.543197 284.479153 
L 200.871462 285.177681 
L 201.527993 284.827347 
L 201.856259 285.06424 
L 202.184524 285.157283 
L 202.51279 284.686864 
L 202.841055 285.33622 
L 203.169321 285.20537 
L 203.497586 284.883131 
L 203.825852 285.283468 
L 204.154117 285.427194 
L 204.482383 284.973941 
L 205.138914 285.604707 
L 205.467179 285.08364 
L 205.795444 285.570128 
L 206.12371 285.772989 
L 206.451975 287.304056 
L 206.780241 285.187969 
L 207.108506 285.735951 
L 207.436772 284.879431 
L 207.765037 285.528352 
L 208.093303 285.852509 
L 208.421568 285.301557 
L 209.078099 285.968991 
L 209.406365 285.598116 
L 209.73463 285.960655 
L 210.062895 286.125876 
L 210.391161 285.60495 
L 211.047692 286.213708 
L 211.375957 285.899015 
L 212.032488 286.346826 
L 212.360754 286.246916 
L 212.689019 280.412851 
L 213.017285 286.309317 
L 213.34555 284.459402 
L 213.673816 288.001787 
L 214.002081 286.503307 
L 214.330347 281.224724 
L 214.658612 286.818629 
L 214.986877 286.727402 
L 215.315143 282.439088 
L 215.643408 286.869879 
L 215.971674 286.30525 
L 216.299939 283.2757 
L 216.628205 286.852044 
L 216.95647 286.463555 
L 217.284736 286.527922 
L 217.613001 286.758889 
L 217.941267 283.514438 
L 218.269532 289.461548 
L 218.597798 286.865524 
L 218.926063 281.983141 
L 219.254329 287.086265 
L 219.582594 286.965125 
L 219.910859 286.102657 
L 220.239125 286.563823 
L 220.56739 286.444656 
L 220.895656 284.904725 
L 221.223921 287.260517 
L 221.552187 285.154733 
L 221.880452 288.712478 
L 222.208718 289.079004 
L 222.536983 282.579616 
L 222.865249 287.467665 
L 223.193514 287.473186 
L 223.52178 284.408761 
L 223.850045 287.528612 
L 224.178311 286.625037 
L 224.506576 284.267985 
L 224.834841 287.586779 
L 225.163107 285.779572 
L 225.491372 288.439758 
L 225.819638 287.643262 
L 226.147903 283.57439 
L 226.476169 287.763898 
L 226.804434 287.768299 
L 227.1327 283.227149 
L 227.460965 287.941037 
L 227.789231 287.269036 
L 228.117496 284.770212 
L 228.445762 287.840303 
L 228.774027 286.663574 
L 229.102292 288.819543 
L 229.430558 287.880452 
L 229.758823 283.813704 
L 230.087089 288.080294 
L 230.415354 287.940219 
L 230.74362 284.015217 
L 231.071885 288.273747 
L 231.400151 287.223114 
L 231.728416 284.846117 
L 232.056682 288.211561 
L 232.384947 286.81847 
L 232.713213 289.644303 
L 233.041478 288.225924 
L 233.369744 284.41707 
L 233.698009 288.432792 
L 234.026274 288.326521 
L 234.35454 284.166699 
L 234.682805 287.792165 
L 235.011071 287.254573 
L 235.339336 287.567248 
L 235.667602 288.449115 
L 235.995867 284.973597 
L 236.324133 288.67611 
L 236.652398 288.461676 
L 236.980664 284.826497 
L 237.308929 288.828986 
L 237.96546 287.63642 
L 238.293726 288.722133 
L 238.621991 286.785975 
L 238.950256 288.927858 
L 239.278522 288.714487 
L 239.606787 284.782621 
L 239.935053 288.86678 
L 240.263318 288.822866 
L 240.591584 287.53474 
L 240.919849 290.540532 
L 241.248115 288.072428 
L 241.57638 288.881645 
L 241.904646 288.970465 
L 242.232911 285.021567 
L 242.561177 289.006644 
L 242.889442 288.965338 
L 243.217708 285.760015 
L 243.545973 289.21307 
L 243.874238 288.403068 
L 244.202504 288.990473 
L 244.530769 289.225076 
L 244.859035 287.290362 
L 245.1873 288.453281 
L 245.515566 289.105415 
L 245.843831 283.481698 
L 246.172097 286.954929 
L 246.500362 289.108889 
L 246.828628 289.328287 
L 247.156893 289.306765 
L 247.485159 287.728745 
L 247.813424 289.474562 
L 248.469955 289.309329 
L 248.79822 289.617969 
L 249.126486 288.785123 
L 249.454751 289.381453 
L 250.111282 289.453231 
L 250.767813 289.656826 
L 251.096079 288.733291 
L 251.424344 289.732582 
L 251.75261 289.588072 
L 252.080875 283.049664 
L 252.409141 289.88058 
L 252.737406 287.482619 
L 253.065671 289.700697 
L 253.393937 289.774563 
L 253.722202 289.056529 
L 254.050468 289.853601 
L 254.378733 289.803214 
L 254.706999 289.377487 
L 255.035264 290.030934 
L 255.36353 289.886733 
L 255.691795 287.020562 
L 256.020061 289.984209 
L 256.348326 289.501353 
L 256.676592 290.027319 
L 257.004857 290.015639 
L 257.333123 289.60985 
L 257.661388 290.035459 
L 257.989653 289.993544 
L 258.317919 285.922288 
L 258.646184 290.220189 
L 259.302715 290.022747 
L 259.630981 290.161128 
L 259.959246 285.630334 
L 260.287512 288.23456 
L 260.615777 289.624123 
L 261.272308 290.239418 
L 261.600574 290.046159 
L 262.257105 290.29348 
L 262.58537 287.14079 
L 262.913635 290.292371 
L 263.241901 290.295238 
L 263.570166 287.31811 
L 263.898432 290.441853 
L 264.226697 288.1814 
L 264.554963 290.414572 
L 264.883228 290.43914 
L 265.211494 287.500726 
L 265.539759 290.578294 
L 265.868025 292.088593 
L 266.19629 290.516258 
L 266.524556 290.509304 
L 266.852821 288.1552 
L 267.181086 290.689731 
L 267.837617 290.539171 
L 268.165883 290.634581 
L 268.494148 290.309049 
L 268.822414 290.684253 
L 269.150679 290.632936 
L 269.478945 286.200068 
L 269.80721 290.78832 
L 270.463741 290.737952 
L 271.776803 290.804957 
L 272.105068 287.770444 
L 272.433334 290.871851 
L 272.761599 290.942153 
L 273.089865 285.59759 
L 273.41813 291.035277 
L 273.746396 283.950316 
L 274.074661 288.935722 
L 274.402927 290.895055 
L 275.059458 291.022773 
L 275.387723 290.842344 
L 275.715989 291.214842 
L 276.044254 290.769805 
L 276.37252 290.96011 
L 276.700785 292.133225 
L 277.02905 290.720949 
L 277.357316 291.129542 
L 278.670378 291.246403 
L 278.998643 291.057585 
L 279.326909 291.38534 
L 279.655174 290.892494 
L 279.98344 291.208105 
L 280.311705 291.255382 
L 280.639971 290.752244 
L 280.968236 291.164234 
L 281.296502 291.318386 
L 281.624767 291.170924 
L 281.953032 291.428394 
L 282.609563 291.287312 
L 282.937829 291.503131 
L 283.266094 291.195279 
L 283.59436 291.391284 
L 283.922625 291.421635 
L 284.250891 290.755284 
L 284.579156 291.629413 
L 285.235687 291.507521 
L 285.563953 291.582737 
L 285.892218 291.150558 
L 286.220484 291.558542 
L 286.548749 291.55456 
L 286.877014 291.254109 
L 287.533545 291.67229 
L 287.861811 292.17561 
L 288.190076 289.651387 
L 288.846607 291.433453 
L 289.174873 291.722656 
L 289.503138 288.886378 
L 289.831404 291.896159 
L 290.487935 291.642653 
L 290.8162 291.816795 
L 291.144465 289.624996 
L 291.472731 292.881667 
L 291.800996 291.789871 
L 292.785793 291.908162 
L 293.114058 291.749018 
L 293.442324 291.988776 
L 293.770589 291.86083 
L 294.098855 291.956729 
L 294.42712 291.924381 
L 294.755386 288.655994 
L 295.083651 292.070733 
L 295.740182 291.939431 
L 296.068447 291.995859 
L 296.396713 291.91671 
L 296.724978 293.051725 
L 297.053244 292.044209 
L 297.381509 291.884266 
L 297.709775 292.157849 
L 298.03804 292.142464 
L 298.366306 291.932845 
L 298.694571 292.198062 
L 299.022837 292.115518 
L 299.351102 292.207855 
L 299.679368 292.13659 
L 300.007633 291.931012 
L 300.335899 292.303233 
L 300.664164 290.539399 
L 300.992429 289.618015 
L 301.320695 292.094727 
L 301.64896 290.553194 
L 302.305491 293.137444 
L 302.962022 291.31317 
L 303.290288 292.33032 
L 303.618553 292.312186 
L 303.946819 292.135815 
L 304.275084 292.384763 
L 304.60335 291.67094 
L 304.931615 292.371555 
L 305.588146 292.378877 
L 305.916411 292.490466 
L 306.572942 292.453466 
L 306.901208 292.495358 
L 307.229473 292.05387 
L 307.557739 292.529389 
L 307.886004 292.55519 
L 308.21427 290.005424 
L 308.542535 292.625819 
L 308.870801 292.544159 
L 309.527332 292.633244 
L 309.855597 292.422151 
L 310.183862 292.660029 
L 310.840393 292.51666 
L 311.168659 292.676393 
L 311.82519 292.605978 
L 312.153455 292.680162 
L 312.481721 292.577877 
L 312.809986 292.747187 
L 313.794783 292.778461 
L 314.123048 288.112448 
L 314.451314 292.782654 
L 314.779579 292.67806 
L 315.107844 291.046439 
L 315.43611 293.497847 
L 315.764375 292.799537 
L 317.077437 292.860532 
L 317.405703 292.450476 
L 317.733968 291.716375 
L 318.062234 292.739595 
L 318.718765 292.935049 
L 320.031826 292.865754 
L 320.360092 292.97569 
L 320.688357 288.266655 
L 321.016623 293.091243 
L 321.344888 292.816732 
L 322.001419 293.024762 
L 323.314481 292.953651 
L 323.642747 293.098332 
L 323.971012 289.475699 
L 324.299278 293.186126 
L 324.627543 293.049876 
L 325.940605 293.207865 
L 326.26887 292.243507 
L 326.597136 293.120585 
L 326.925401 293.23054 
L 327.253667 293.083231 
L 327.581932 293.210728 
L 327.910198 291.208714 
L 328.566729 293.705961 
L 328.894994 293.264735 
L 329.223259 293.258884 
L 329.551525 293.018996 
L 329.87979 293.402606 
L 330.208056 293.239605 
L 330.864587 293.373347 
L 331.192852 292.998187 
L 331.521118 293.467124 
L 331.849383 293.315493 
L 332.505914 293.424134 
L 332.83418 293.246663 
L 333.490711 293.469461 
L 333.818976 293.272299 
L 334.147241 293.416094 
L 334.475507 290.516145 
L 334.803772 293.563106 
L 335.132038 292.471596 
L 335.460303 293.455008 
L 335.788569 293.298684 
L 336.116834 292.593897 
L 336.4451 293.549879 
L 336.773365 290.372993 
L 337.101631 293.497039 
L 337.429896 292.60682 
L 337.758162 293.495588 
L 338.742958 293.566948 
L 339.071223 290.984289 
L 339.399489 293.545998 
L 339.727754 293.594503 
L 340.05602 293.834402 
L 340.384285 293.662837 
L 340.712551 289.927879 
L 341.040816 293.641109 
L 342.025613 293.705553 
L 342.353878 293.44218 
L 342.682144 293.739481 
L 343.010409 292.072369 
L 343.338675 293.687186 
L 343.66694 293.712402 
L 343.995205 293.599754 
L 344.651736 293.780138 
L 345.308267 293.815744 
L 345.636533 293.576729 
L 345.964798 293.8434 
L 346.293064 293.621441 
L 346.621329 293.870897 
L 346.949595 292.37264 
L 347.27786 293.826717 
L 347.606126 293.613551 
L 347.934391 288.421201 
L 348.262656 289.048695 
L 348.590922 293.245671 
L 348.919187 292.174072 
L 349.247453 294.535125 
L 349.903984 293.160296 
L 350.232249 293.971231 
L 350.560515 291.812427 
L 350.88878 293.986255 
L 351.217046 292.703945 
L 351.545311 293.861116 
L 351.873577 294.026158 
L 352.201842 292.734607 
L 352.530108 293.978774 
L 352.858373 291.662175 
L 353.186638 294.083287 
L 353.514904 292.591445 
L 353.843169 293.7746 
L 354.171435 293.78896 
L 354.4997 293.243207 
L 354.827966 293.906344 
L 355.156231 291.991603 
L 355.484497 294.100176 
L 355.812762 292.723971 
L 356.141028 293.982279 
L 356.469293 294.036712 
L 356.797559 293.161418 
L 357.125824 294.109727 
L 357.45409 292.397706 
L 357.782355 294.167755 
L 358.11062 292.707008 
L 358.438886 294.140174 
L 358.767151 294.152163 
L 359.095417 293.027881 
L 359.423682 294.173825 
L 359.751948 291.841764 
L 360.080213 294.072211 
L 360.408479 291.458438 
L 360.736744 294.250834 
L 361.06501 293.922248 
L 361.393275 294.877766 
L 361.721541 294.279942 
L 362.049806 293.95341 
L 362.378072 294.298628 
L 362.706337 294.005469 
L 363.034602 294.23312 
L 364.019399 294.303703 
L 364.347664 294.203482 
L 365.660726 294.419496 
L 365.988992 293.548961 
L 366.317257 294.3606 
L 367.302053 294.383598 
L 367.630319 293.985194 
L 367.958584 294.437346 
L 368.28685 294.020979 
L 368.615115 294.54163 
L 368.943381 294.416632 
L 369.271646 293.123226 
L 369.599912 294.478564 
L 369.928177 292.544664 
L 370.256443 294.434875 
L 370.584708 294.271767 
L 370.912974 294.502622 
L 371.241239 294.458681 
L 371.569505 294.011593 
L 371.89777 294.504396 
L 372.226035 290.734854 
L 372.554301 294.409867 
L 372.882566 292.771667 
L 373.210832 294.561333 
L 373.867363 294.436226 
L 374.195628 294.610322 
L 374.523894 294.36514 
L 374.852159 294.544333 
L 375.50869 294.549358 
L 375.836956 295.102663 
L 376.165221 294.574299 
L 376.493487 294.612277 
L 376.821752 292.737588 
L 377.150017 294.63399 
L 377.478283 293.073086 
L 377.806548 294.586069 
L 378.134814 294.347619 
L 378.463079 293.580452 
L 378.791345 294.644729 
L 379.447876 294.703054 
L 379.776141 293.838439 
L 380.104407 294.758434 
L 380.432672 291.799743 
L 380.760938 294.722539 
L 381.089203 294.42524 
L 381.417469 294.697821 
L 382.402265 294.740813 
L 382.73053 292.006535 
L 383.058796 294.752203 
L 383.387061 294.679638 
L 383.715327 294.729681 
L 384.043592 294.544604 
L 384.371858 294.829085 
L 384.700123 294.841703 
L 385.028389 292.394688 
L 385.356654 294.793921 
L 385.68492 294.568462 
L 386.013185 294.858127 
L 386.669716 294.754504 
L 386.997981 294.868363 
L 387.326247 295.155036 
L 387.654512 294.876027 
L 388.639309 294.718349 
L 389.29584 294.905834 
L 389.624105 295.027159 
L 389.952371 294.461726 
L 390.937167 294.89405 
L 391.265432 294.978401 
L 391.593698 294.786442 
L 391.921963 295.002735 
L 392.250229 293.24272 
L 392.578494 294.911227 
L 392.90676 294.977211 
L 393.235025 295.488 
L 393.563291 294.845661 
L 394.219822 295.076521 
L 394.548087 292.256041 
L 394.876353 294.96221 
L 395.204618 292.935878 
L 395.532884 294.998166 
L 395.861149 293.406412 
L 396.189414 295.051525 
L 396.51768 294.022983 
L 396.845945 295.035263 
L 397.830742 295.078901 
L 398.159007 292.569892 
L 398.487273 295.153716 
L 398.487273 295.153716 
" style="fill:none;stroke:#ff7f0e;stroke-linecap:square;stroke-width:1.5;"/>
   </g>
   <g id="patch_3">
    <path d="M 57.6 307.584 
L 57.6 41.472 
" style="fill:none;stroke:#000000;stroke-linecap:square;stroke-linejoin:miter;stroke-width:0.8;"/>
   </g>
   <g id="patch_4">
    <path d="M 414.72 307.584 
L 414.72 41.472 
" style="fill:none;stroke:#000000;stroke-linecap:square;stroke-linejoin:miter;stroke-width:0.8;"/>
   </g>
   <g id="patch_5">
    <path d="M 57.6 307.584 
L 414.72 307.584 
" style="fill:none;stroke:#000000;stroke-linecap:square;stroke-linejoin:miter;stroke-width:0.8;"/>
   </g>
   <g id="patch_6">
    <path d="M 57.6 41.472 
L 414.72 41.472 
" style="fill:none;stroke:#000000;stroke-linecap:square;stroke-linejoin:miter;stroke-width:0.8;"/>
   </g>
   <g id="text_19">
    <!-- RSI Speedup -->
    <defs>
     <path d="M 44.390625 34.1875 
Q 47.5625 33.109375 50.5625 29.59375 
Q 53.5625 26.078125 56.59375 19.921875 
L 66.609375 0 
L 56 0 
L 46.6875 18.703125 
Q 43.0625 26.03125 39.671875 28.421875 
Q 36.28125 30.8125 30.421875 30.8125 
L 19.671875 30.8125 
L 19.671875 0 
L 9.8125 0 
L 9.8125 72.90625 
L 32.078125 72.90625 
Q 44.578125 72.90625 50.734375 67.671875 
Q 56.890625 62.453125 56.890625 51.90625 
Q 56.890625 45.015625 53.6875 40.46875 
Q 50.484375 35.9375 44.390625 34.1875 
z
M 19.671875 64.796875 
L 19.671875 38.921875 
L 32.078125 38.921875 
Q 39.203125 38.921875 42.84375 42.21875 
Q 46.484375 45.515625 46.484375 51.90625 
Q 46.484375 58.296875 42.84375 61.546875 
Q 39.203125 64.796875 32.078125 64.796875 
z
" id="DejaVuSans-82"/>
     <path d="M 53.515625 70.515625 
L 53.515625 60.890625 
Q 47.90625 63.578125 42.921875 64.890625 
Q 37.9375 66.21875 33.296875 66.21875 
Q 25.25 66.21875 20.875 63.09375 
Q 16.5 59.96875 16.5 54.203125 
Q 16.5 49.359375 19.40625 46.890625 
Q 22.3125 44.4375 30.421875 42.921875 
L 36.375 41.703125 
Q 47.40625 39.59375 52.65625 34.296875 
Q 57.90625 29 57.90625 20.125 
Q 57.90625 9.515625 50.796875 4.046875 
Q 43.703125 -1.421875 29.984375 -1.421875 
Q 24.8125 -1.421875 18.96875 -0.25 
Q 13.140625 0.921875 6.890625 3.21875 
L 6.890625 13.375 
Q 12.890625 10.015625 18.65625 8.296875 
Q 24.421875 6.59375 29.984375 6.59375 
Q 38.421875 6.59375 43.015625 9.90625 
Q 47.609375 13.234375 47.609375 19.390625 
Q 47.609375 24.75 44.3125 27.78125 
Q 41.015625 30.8125 33.5 32.328125 
L 27.484375 33.5 
Q 16.453125 35.6875 11.515625 40.375 
Q 6.59375 45.0625 6.59375 53.421875 
Q 6.59375 63.09375 13.40625 68.65625 
Q 20.21875 74.21875 32.171875 74.21875 
Q 37.3125 74.21875 42.625 73.28125 
Q 47.953125 72.359375 53.515625 70.515625 
z
" id="DejaVuSans-83"/>
     <path d="M 9.8125 72.90625 
L 19.671875 72.90625 
L 19.671875 0 
L 9.8125 0 
z
" id="DejaVuSans-73"/>
     <path id="DejaVuSans-32"/>
    </defs>
    <g transform="translate(198.0825 35.472)scale(0.12 -0.12)">
     <use xlink:href="#DejaVuSans-82"/>
     <use x="69.482422" xlink:href="#DejaVuSans-83"/>
     <use x="132.958984" xlink:href="#DejaVuSans-73"/>
     <use x="162.451172" xlink:href="#DejaVuSans-32"/>
     <use x="194.238281" xlink:href="#DejaVuSans-83"/>
     <use x="257.714844" xlink:href="#DejaVuSans-112"/>
     <use x="321.191406" xlink:href="#DejaVuSans-101"/>
     <use x="382.714844" xlink:href="#DejaVuSans-101"/>
     <use x="444.238281" xlink:href="#DejaVuSans-100"/>
     <use x="507.714844" xlink:href="#DejaVuSans-117"/>
     <use x="571.09375" xlink:href="#DejaVuSans-112"/>
    </g>
   </g>
   <g id="legend_1">
    <g id="patch_7">
     <path d="M 304.093437 78.82825 
L 407.72 78.82825 
Q 409.72 78.82825 409.72 76.82825 
L 409.72 48.472 
Q 409.72 46.472 407.72 46.472 
L 304.093437 46.472 
Q 302.093437 46.472 302.093437 48.472 
L 302.093437 76.82825 
Q 302.093437 78.82825 304.093437 78.82825 
z
" style="fill:#ffffff;opacity:0.8;stroke:#cccccc;stroke-linejoin:miter;"/>
    </g>
    <g id="line2d_19">
     <path d="M 306.093437 54.570437 
L 326.093437 54.570437 
" style="fill:none;stroke:#1f77b4;stroke-linecap:square;stroke-width:1.5;"/>
    </g>
    <g id="line2d_20"/>
    <g id="text_20">
     <!-- numpy.float32 -->
     <defs>
      <path d="M 52 44.1875 
Q 55.375 50.25 60.0625 53.125 
Q 64.75 56 71.09375 56 
Q 79.640625 56 84.28125 50.015625 
Q 88.921875 44.046875 88.921875 33.015625 
L 88.921875 0 
L 79.890625 0 
L 79.890625 32.71875 
Q 79.890625 40.578125 77.09375 44.375 
Q 74.3125 48.1875 68.609375 48.1875 
Q 61.625 48.1875 57.5625 43.546875 
Q 53.515625 38.921875 53.515625 30.90625 
L 53.515625 0 
L 44.484375 0 
L 44.484375 32.71875 
Q 44.484375 40.625 41.703125 44.40625 
Q 38.921875 48.1875 33.109375 48.1875 
Q 26.21875 48.1875 22.15625 43.53125 
Q 18.109375 38.875 18.109375 30.90625 
L 18.109375 0 
L 9.078125 0 
L 9.078125 54.6875 
L 18.109375 54.6875 
L 18.109375 46.1875 
Q 21.1875 51.21875 25.484375 53.609375 
Q 29.78125 56 35.6875 56 
Q 41.65625 56 45.828125 52.96875 
Q 50 49.953125 52 44.1875 
z
" id="DejaVuSans-109"/>
      <path d="M 32.171875 -5.078125 
Q 28.375 -14.84375 24.75 -17.8125 
Q 21.140625 -20.796875 15.09375 -20.796875 
L 7.90625 -20.796875 
L 7.90625 -13.28125 
L 13.1875 -13.28125 
Q 16.890625 -13.28125 18.9375 -11.515625 
Q 21 -9.765625 23.484375 -3.21875 
L 25.09375 0.875 
L 2.984375 54.6875 
L 12.5 54.6875 
L 29.59375 11.921875 
L 46.6875 54.6875 
L 56.203125 54.6875 
z
" id="DejaVuSans-121"/>
      <path d="M 37.109375 75.984375 
L 37.109375 68.5 
L 28.515625 68.5 
Q 23.6875 68.5 21.796875 66.546875 
Q 19.921875 64.59375 19.921875 59.515625 
L 19.921875 54.6875 
L 34.71875 54.6875 
L 34.71875 47.703125 
L 19.921875 47.703125 
L 19.921875 0 
L 10.890625 0 
L 10.890625 47.703125 
L 2.296875 47.703125 
L 2.296875 54.6875 
L 10.890625 54.6875 
L 10.890625 58.5 
Q 10.890625 67.625 15.140625 71.796875 
Q 19.390625 75.984375 28.609375 75.984375 
z
" id="DejaVuSans-102"/>
      <path d="M 9.421875 75.984375 
L 18.40625 75.984375 
L 18.40625 0 
L 9.421875 0 
z
" id="DejaVuSans-108"/>
      <path d="M 30.609375 48.390625 
Q 23.390625 48.390625 19.1875 42.75 
Q 14.984375 37.109375 14.984375 27.296875 
Q 14.984375 17.484375 19.15625 11.84375 
Q 23.34375 6.203125 30.609375 6.203125 
Q 37.796875 6.203125 41.984375 11.859375 
Q 46.1875 17.53125 46.1875 27.296875 
Q 46.1875 37.015625 41.984375 42.703125 
Q 37.796875 48.390625 30.609375 48.390625 
z
M 30.609375 56 
Q 42.328125 56 49.015625 48.375 
Q 55.71875 40.765625 55.71875 27.296875 
Q 55.71875 13.875 49.015625 6.21875 
Q 42.328125 -1.421875 30.609375 -1.421875 
Q 18.84375 -1.421875 12.171875 6.21875 
Q 5.515625 13.875 5.515625 27.296875 
Q 5.515625 40.765625 12.171875 48.375 
Q 18.84375 56 30.609375 56 
z
" id="DejaVuSans-111"/>
      <path d="M 34.28125 27.484375 
Q 23.390625 27.484375 19.1875 25 
Q 14.984375 22.515625 14.984375 16.5 
Q 14.984375 11.71875 18.140625 8.90625 
Q 21.296875 6.109375 26.703125 6.109375 
Q 34.1875 6.109375 38.703125 11.40625 
Q 43.21875 16.703125 43.21875 25.484375 
L 43.21875 27.484375 
z
M 52.203125 31.203125 
L 52.203125 0 
L 43.21875 0 
L 43.21875 8.296875 
Q 40.140625 3.328125 35.546875 0.953125 
Q 30.953125 -1.421875 24.3125 -1.421875 
Q 15.921875 -1.421875 10.953125 3.296875 
Q 6 8.015625 6 15.921875 
Q 6 25.140625 12.171875 29.828125 
Q 18.359375 34.515625 30.609375 34.515625 
L 43.21875 34.515625 
L 43.21875 35.40625 
Q 43.21875 41.609375 39.140625 45 
Q 35.0625 48.390625 27.6875 48.390625 
Q 23 48.390625 18.546875 47.265625 
Q 14.109375 46.140625 10.015625 43.890625 
L 10.015625 52.203125 
Q 14.9375 54.109375 19.578125 55.046875 
Q 24.21875 56 28.609375 56 
Q 40.484375 56 46.34375 49.84375 
Q 52.203125 43.703125 52.203125 31.203125 
z
" id="DejaVuSans-97"/>
      <path d="M 18.3125 70.21875 
L 18.3125 54.6875 
L 36.8125 54.6875 
L 36.8125 47.703125 
L 18.3125 47.703125 
L 18.3125 18.015625 
Q 18.3125 11.328125 20.140625 9.421875 
Q 21.96875 7.515625 27.59375 7.515625 
L 36.8125 7.515625 
L 36.8125 0 
L 27.59375 0 
Q 17.1875 0 13.234375 3.875 
Q 9.28125 7.765625 9.28125 18.015625 
L 9.28125 47.703125 
L 2.6875 47.703125 
L 2.6875 54.6875 
L 9.28125 54.6875 
L 9.28125 70.21875 
z
" id="DejaVuSans-116"/>
     </defs>
     <g transform="translate(334.093437 58.070437)scale(0.1 -0.1)">
      <use xlink:href="#DejaVuSans-110"/>
      <use x="63.378906" xlink:href="#DejaVuSans-117"/>
      <use x="126.757812" xlink:href="#DejaVuSans-109"/>
      <use x="224.169922" xlink:href="#DejaVuSans-112"/>
      <use x="287.646484" xlink:href="#DejaVuSans-121"/>
      <use x="332.576172" xlink:href="#DejaVuSans-46"/>
      <use x="364.363281" xlink:href="#DejaVuSans-102"/>
      <use x="399.568359" xlink:href="#DejaVuSans-108"/>
      <use x="427.351562" xlink:href="#DejaVuSans-111"/>
      <use x="488.533203" xlink:href="#DejaVuSans-97"/>
      <use x="549.8125" xlink:href="#DejaVuSans-116"/>
      <use x="589.021484" xlink:href="#DejaVuSans-51"/>
      <use x="652.644531" xlink:href="#DejaVuSans-50"/>
     </g>
    </g>
    <g id="line2d_21">
     <path d="M 306.093437 69.248562 
L 326.093437 69.248562 
" style="fill:none;stroke:#ff7f0e;stroke-linecap:square;stroke-width:1.5;"/>
    </g>
    <g id="line2d_22"/>
    <g id="text_21">
     <!-- numpy.float64 -->
     <g transform="translate(334.093437 72.748562)scale(0.1 -0.1)">
      <use xlink:href="#DejaVuSans-110"/>
      <use x="63.378906" xlink:href="#DejaVuSans-117"/>
      <use x="126.757812" xlink:href="#DejaVuSans-109"/>
      <use x="224.169922" xlink:href="#DejaVuSans-112"/>
      <use x="287.646484" xlink:href="#DejaVuSans-121"/>
      <use x="332.576172" xlink:href="#DejaVuSans-46"/>
      <use x="364.363281" xlink:href="#DejaVuSans-102"/>
      <use x="399.568359" xlink:href="#DejaVuSans-108"/>
      <use x="427.351562" xlink:href="#DejaVuSans-111"/>
      <use x="488.533203" xlink:href="#DejaVuSans-97"/>
      <use x="549.8125" xlink:href="#DejaVuSans-116"/>
      <use x="589.021484" xlink:href="#DejaVuSans-54"/>
      <use x="652.644531" xlink:href="#DejaVuSans-52"/>
     </g>
    </g>
   </g>
  </g>
 </g>
 <defs>
  <clipPath id="p7ebbf3f73f">
   <rect height="266.112" width="357.12" x="57.6" y="41.472"/>
  </clipPath>
 </defs>
</svg>
