<?xml version="1.0" encoding="utf-8" standalone="no"?>
<!DOCTYPE svg PUBLIC "-//W3C//DTD SVG 1.1//EN"
  "http://www.w3.org/Graphics/SVG/1.1/DTD/svg11.dtd">
<!-- Created with matplotlib (https://matplotlib.org/) -->
<svg height="720pt" version="1.1" viewBox="0 0 1440 720" width="1440pt" xmlns="http://www.w3.org/2000/svg" xmlns:xlink="http://www.w3.org/1999/xlink">
 <defs>
  <style type="text/css">
*{stroke-linecap:butt;stroke-linejoin:round;}
  </style>
 </defs>
 <g id="figure_1">
  <g id="patch_1">
   <path d="M 0 720 
L 1440 720 
L 1440 0 
L 0 0 
z
" style="fill:#ffffff;"/>
  </g>
  <g id="axes_1">
   <g id="patch_2">
    <path d="M 180 640.8 
L 1296 640.8 
L 1296 86.4 
L 180 86.4 
z
" style="fill:#ffffff;"/>
   </g>
   <g id="matplotlib.axis_1">
    <g id="xtick_1">
     <g id="line2d_1">
      <defs>
       <path d="M 0 0 
L 0 3.5 
" id="m2da070adb4" style="stroke:#000000;stroke-width:0.8;"/>
      </defs>
      <g>
       <use style="stroke:#000000;stroke-width:0.8;" x="333.310231" xlink:href="#m2da070adb4" y="640.8"/>
      </g>
     </g>
     <g id="text_1">
      <!-- 100.0 -->
      <defs>
       <path d="M 12.40625 8.296875 
L 28.515625 8.296875 
L 28.515625 63.921875 
L 10.984375 60.40625 
L 10.984375 69.390625 
L 28.421875 72.90625 
L 38.28125 72.90625 
L 38.28125 8.296875 
L 54.390625 8.296875 
L 54.390625 0 
L 12.40625 0 
z
" id="DejaVuSans-49"/>
       <path d="M 31.78125 66.40625 
Q 24.171875 66.40625 20.328125 58.90625 
Q 16.5 51.421875 16.5 36.375 
Q 16.5 21.390625 20.328125 13.890625 
Q 24.171875 6.390625 31.78125 6.390625 
Q 39.453125 6.390625 43.28125 13.890625 
Q 47.125 21.390625 47.125 36.375 
Q 47.125 51.421875 43.28125 58.90625 
Q 39.453125 66.40625 31.78125 66.40625 
z
M 31.78125 74.21875 
Q 44.046875 74.21875 50.515625 64.515625 
Q 56.984375 54.828125 56.984375 36.375 
Q 56.984375 17.96875 50.515625 8.265625 
Q 44.046875 -1.421875 31.78125 -1.421875 
Q 19.53125 -1.421875 13.0625 8.265625 
Q 6.59375 17.96875 6.59375 36.375 
Q 6.59375 54.828125 13.0625 64.515625 
Q 19.53125 74.21875 31.78125 74.21875 
z
" id="DejaVuSans-48"/>
       <path d="M 10.6875 12.40625 
L 21 12.40625 
L 21 0 
L 10.6875 0 
z
" id="DejaVuSans-46"/>
      </defs>
      <g transform="translate(318.996168 655.398438)scale(0.1 -0.1)">
       <use xlink:href="#DejaVuSans-49"/>
       <use x="63.623047" xlink:href="#DejaVuSans-48"/>
       <use x="127.246094" xlink:href="#DejaVuSans-48"/>
       <use x="190.869141" xlink:href="#DejaVuSans-46"/>
       <use x="222.65625" xlink:href="#DejaVuSans-48"/>
      </g>
     </g>
    </g>
    <g id="xtick_2">
     <g id="line2d_2">
      <g>
       <use style="stroke:#000000;stroke-width:0.8;" x="435.893189" xlink:href="#m2da070adb4" y="640.8"/>
      </g>
     </g>
     <g id="text_2">
      <!-- 200.0 -->
      <defs>
       <path d="M 19.1875 8.296875 
L 53.609375 8.296875 
L 53.609375 0 
L 7.328125 0 
L 7.328125 8.296875 
Q 12.9375 14.109375 22.625 23.890625 
Q 32.328125 33.6875 34.8125 36.53125 
Q 39.546875 41.84375 41.421875 45.53125 
Q 43.3125 49.21875 43.3125 52.78125 
Q 43.3125 58.59375 39.234375 62.25 
Q 35.15625 65.921875 28.609375 65.921875 
Q 23.96875 65.921875 18.8125 64.3125 
Q 13.671875 62.703125 7.8125 59.421875 
L 7.8125 69.390625 
Q 13.765625 71.78125 18.9375 73 
Q 24.125 74.21875 28.421875 74.21875 
Q 39.75 74.21875 46.484375 68.546875 
Q 53.21875 62.890625 53.21875 53.421875 
Q 53.21875 48.921875 51.53125 44.890625 
Q 49.859375 40.875 45.40625 35.40625 
Q 44.1875 33.984375 37.640625 27.21875 
Q 31.109375 20.453125 19.1875 8.296875 
z
" id="DejaVuSans-50"/>
      </defs>
      <g transform="translate(421.579126 655.398438)scale(0.1 -0.1)">
       <use xlink:href="#DejaVuSans-50"/>
       <use x="63.623047" xlink:href="#DejaVuSans-48"/>
       <use x="127.246094" xlink:href="#DejaVuSans-48"/>
       <use x="190.869141" xlink:href="#DejaVuSans-46"/>
       <use x="222.65625" xlink:href="#DejaVuSans-48"/>
      </g>
     </g>
    </g>
    <g id="xtick_3">
     <g id="line2d_3">
      <g>
       <use style="stroke:#000000;stroke-width:0.8;" x="538.476147" xlink:href="#m2da070adb4" y="640.8"/>
      </g>
     </g>
     <g id="text_3">
      <!-- 300.0 -->
      <defs>
       <path d="M 40.578125 39.3125 
Q 47.65625 37.796875 51.625 33 
Q 55.609375 28.21875 55.609375 21.1875 
Q 55.609375 10.40625 48.1875 4.484375 
Q 40.765625 -1.421875 27.09375 -1.421875 
Q 22.515625 -1.421875 17.65625 -0.515625 
Q 12.796875 0.390625 7.625 2.203125 
L 7.625 11.71875 
Q 11.71875 9.328125 16.59375 8.109375 
Q 21.484375 6.890625 26.8125 6.890625 
Q 36.078125 6.890625 40.9375 10.546875 
Q 45.796875 14.203125 45.796875 21.1875 
Q 45.796875 27.640625 41.28125 31.265625 
Q 36.765625 34.90625 28.71875 34.90625 
L 20.21875 34.90625 
L 20.21875 43.015625 
L 29.109375 43.015625 
Q 36.375 43.015625 40.234375 45.921875 
Q 44.09375 48.828125 44.09375 54.296875 
Q 44.09375 59.90625 40.109375 62.90625 
Q 36.140625 65.921875 28.71875 65.921875 
Q 24.65625 65.921875 20.015625 65.03125 
Q 15.375 64.15625 9.8125 62.3125 
L 9.8125 71.09375 
Q 15.4375 72.65625 20.34375 73.4375 
Q 25.25 74.21875 29.59375 74.21875 
Q 40.828125 74.21875 47.359375 69.109375 
Q 53.90625 64.015625 53.90625 55.328125 
Q 53.90625 49.265625 50.4375 45.09375 
Q 46.96875 40.921875 40.578125 39.3125 
z
" id="DejaVuSans-51"/>
      </defs>
      <g transform="translate(524.162084 655.398438)scale(0.1 -0.1)">
       <use xlink:href="#DejaVuSans-51"/>
       <use x="63.623047" xlink:href="#DejaVuSans-48"/>
       <use x="127.246094" xlink:href="#DejaVuSans-48"/>
       <use x="190.869141" xlink:href="#DejaVuSans-46"/>
       <use x="222.65625" xlink:href="#DejaVuSans-48"/>
      </g>
     </g>
    </g>
    <g id="xtick_4">
     <g id="line2d_4">
      <g>
       <use style="stroke:#000000;stroke-width:0.8;" x="641.059105" xlink:href="#m2da070adb4" y="640.8"/>
      </g>
     </g>
     <g id="text_4">
      <!-- 400.0 -->
      <defs>
       <path d="M 37.796875 64.3125 
L 12.890625 25.390625 
L 37.796875 25.390625 
z
M 35.203125 72.90625 
L 47.609375 72.90625 
L 47.609375 25.390625 
L 58.015625 25.390625 
L 58.015625 17.1875 
L 47.609375 17.1875 
L 47.609375 0 
L 37.796875 0 
L 37.796875 17.1875 
L 4.890625 17.1875 
L 4.890625 26.703125 
z
" id="DejaVuSans-52"/>
      </defs>
      <g transform="translate(626.745042 655.398438)scale(0.1 -0.1)">
       <use xlink:href="#DejaVuSans-52"/>
       <use x="63.623047" xlink:href="#DejaVuSans-48"/>
       <use x="127.246094" xlink:href="#DejaVuSans-48"/>
       <use x="190.869141" xlink:href="#DejaVuSans-46"/>
       <use x="222.65625" xlink:href="#DejaVuSans-48"/>
      </g>
     </g>
    </g>
    <g id="xtick_5">
     <g id="line2d_5">
      <g>
       <use style="stroke:#000000;stroke-width:0.8;" x="743.642063" xlink:href="#m2da070adb4" y="640.8"/>
      </g>
     </g>
     <g id="text_5">
      <!-- 500.0 -->
      <defs>
       <path d="M 10.796875 72.90625 
L 49.515625 72.90625 
L 49.515625 64.59375 
L 19.828125 64.59375 
L 19.828125 46.734375 
Q 21.96875 47.46875 24.109375 47.828125 
Q 26.265625 48.1875 28.421875 48.1875 
Q 40.625 48.1875 47.75 41.5 
Q 54.890625 34.8125 54.890625 23.390625 
Q 54.890625 11.625 47.5625 5.09375 
Q 40.234375 -1.421875 26.90625 -1.421875 
Q 22.3125 -1.421875 17.546875 -0.640625 
Q 12.796875 0.140625 7.71875 1.703125 
L 7.71875 11.625 
Q 12.109375 9.234375 16.796875 8.0625 
Q 21.484375 6.890625 26.703125 6.890625 
Q 35.15625 6.890625 40.078125 11.328125 
Q 45.015625 15.765625 45.015625 23.390625 
Q 45.015625 31 40.078125 35.4375 
Q 35.15625 39.890625 26.703125 39.890625 
Q 22.75 39.890625 18.8125 39.015625 
Q 14.890625 38.140625 10.796875 36.28125 
z
" id="DejaVuSans-53"/>
      </defs>
      <g transform="translate(729.328 655.398438)scale(0.1 -0.1)">
       <use xlink:href="#DejaVuSans-53"/>
       <use x="63.623047" xlink:href="#DejaVuSans-48"/>
       <use x="127.246094" xlink:href="#DejaVuSans-48"/>
       <use x="190.869141" xlink:href="#DejaVuSans-46"/>
       <use x="222.65625" xlink:href="#DejaVuSans-48"/>
      </g>
     </g>
    </g>
    <g id="xtick_6">
     <g id="line2d_6">
      <g>
       <use style="stroke:#000000;stroke-width:0.8;" x="846.225021" xlink:href="#m2da070adb4" y="640.8"/>
      </g>
     </g>
     <g id="text_6">
      <!-- 600.0 -->
      <defs>
       <path d="M 33.015625 40.375 
Q 26.375 40.375 22.484375 35.828125 
Q 18.609375 31.296875 18.609375 23.390625 
Q 18.609375 15.53125 22.484375 10.953125 
Q 26.375 6.390625 33.015625 6.390625 
Q 39.65625 6.390625 43.53125 10.953125 
Q 47.40625 15.53125 47.40625 23.390625 
Q 47.40625 31.296875 43.53125 35.828125 
Q 39.65625 40.375 33.015625 40.375 
z
M 52.59375 71.296875 
L 52.59375 62.3125 
Q 48.875 64.0625 45.09375 64.984375 
Q 41.3125 65.921875 37.59375 65.921875 
Q 27.828125 65.921875 22.671875 59.328125 
Q 17.53125 52.734375 16.796875 39.40625 
Q 19.671875 43.65625 24.015625 45.921875 
Q 28.375 48.1875 33.59375 48.1875 
Q 44.578125 48.1875 50.953125 41.515625 
Q 57.328125 34.859375 57.328125 23.390625 
Q 57.328125 12.15625 50.6875 5.359375 
Q 44.046875 -1.421875 33.015625 -1.421875 
Q 20.359375 -1.421875 13.671875 8.265625 
Q 6.984375 17.96875 6.984375 36.375 
Q 6.984375 53.65625 15.1875 63.9375 
Q 23.390625 74.21875 37.203125 74.21875 
Q 40.921875 74.21875 44.703125 73.484375 
Q 48.484375 72.75 52.59375 71.296875 
z
" id="DejaVuSans-54"/>
      </defs>
      <g transform="translate(831.910958 655.398438)scale(0.1 -0.1)">
       <use xlink:href="#DejaVuSans-54"/>
       <use x="63.623047" xlink:href="#DejaVuSans-48"/>
       <use x="127.246094" xlink:href="#DejaVuSans-48"/>
       <use x="190.869141" xlink:href="#DejaVuSans-46"/>
       <use x="222.65625" xlink:href="#DejaVuSans-48"/>
      </g>
     </g>
    </g>
    <g id="xtick_7">
     <g id="line2d_7">
      <g>
       <use style="stroke:#000000;stroke-width:0.8;" x="948.807979" xlink:href="#m2da070adb4" y="640.8"/>
      </g>
     </g>
     <g id="text_7">
      <!-- 700.0 -->
      <defs>
       <path d="M 8.203125 72.90625 
L 55.078125 72.90625 
L 55.078125 68.703125 
L 28.609375 0 
L 18.3125 0 
L 43.21875 64.59375 
L 8.203125 64.59375 
z
" id="DejaVuSans-55"/>
      </defs>
      <g transform="translate(934.493916 655.398438)scale(0.1 -0.1)">
       <use xlink:href="#DejaVuSans-55"/>
       <use x="63.623047" xlink:href="#DejaVuSans-48"/>
       <use x="127.246094" xlink:href="#DejaVuSans-48"/>
       <use x="190.869141" xlink:href="#DejaVuSans-46"/>
       <use x="222.65625" xlink:href="#DejaVuSans-48"/>
      </g>
     </g>
    </g>
    <g id="xtick_8">
     <g id="line2d_8">
      <g>
       <use style="stroke:#000000;stroke-width:0.8;" x="1051.390937" xlink:href="#m2da070adb4" y="640.8"/>
      </g>
     </g>
     <g id="text_8">
      <!-- 800.0 -->
      <defs>
       <path d="M 31.78125 34.625 
Q 24.75 34.625 20.71875 30.859375 
Q 16.703125 27.09375 16.703125 20.515625 
Q 16.703125 13.921875 20.71875 10.15625 
Q 24.75 6.390625 31.78125 6.390625 
Q 38.8125 6.390625 42.859375 10.171875 
Q 46.921875 13.96875 46.921875 20.515625 
Q 46.921875 27.09375 42.890625 30.859375 
Q 38.875 34.625 31.78125 34.625 
z
M 21.921875 38.8125 
Q 15.578125 40.375 12.03125 44.71875 
Q 8.5 49.078125 8.5 55.328125 
Q 8.5 64.0625 14.71875 69.140625 
Q 20.953125 74.21875 31.78125 74.21875 
Q 42.671875 74.21875 48.875 69.140625 
Q 55.078125 64.0625 55.078125 55.328125 
Q 55.078125 49.078125 51.53125 44.71875 
Q 48 40.375 41.703125 38.8125 
Q 48.828125 37.15625 52.796875 32.3125 
Q 56.78125 27.484375 56.78125 20.515625 
Q 56.78125 9.90625 50.3125 4.234375 
Q 43.84375 -1.421875 31.78125 -1.421875 
Q 19.734375 -1.421875 13.25 4.234375 
Q 6.78125 9.90625 6.78125 20.515625 
Q 6.78125 27.484375 10.78125 32.3125 
Q 14.796875 37.15625 21.921875 38.8125 
z
M 18.3125 54.390625 
Q 18.3125 48.734375 21.84375 45.5625 
Q 25.390625 42.390625 31.78125 42.390625 
Q 38.140625 42.390625 41.71875 45.5625 
Q 45.3125 48.734375 45.3125 54.390625 
Q 45.3125 60.0625 41.71875 63.234375 
Q 38.140625 66.40625 31.78125 66.40625 
Q 25.390625 66.40625 21.84375 63.234375 
Q 18.3125 60.0625 18.3125 54.390625 
z
" id="DejaVuSans-56"/>
      </defs>
      <g transform="translate(1037.076874 655.398438)scale(0.1 -0.1)">
       <use xlink:href="#DejaVuSans-56"/>
       <use x="63.623047" xlink:href="#DejaVuSans-48"/>
       <use x="127.246094" xlink:href="#DejaVuSans-48"/>
       <use x="190.869141" xlink:href="#DejaVuSans-46"/>
       <use x="222.65625" xlink:href="#DejaVuSans-48"/>
      </g>
     </g>
    </g>
    <g id="xtick_9">
     <g id="line2d_9">
      <g>
       <use style="stroke:#000000;stroke-width:0.8;" x="1153.973895" xlink:href="#m2da070adb4" y="640.8"/>
      </g>
     </g>
     <g id="text_9">
      <!-- 900.0 -->
      <defs>
       <path d="M 10.984375 1.515625 
L 10.984375 10.5 
Q 14.703125 8.734375 18.5 7.8125 
Q 22.3125 6.890625 25.984375 6.890625 
Q 35.75 6.890625 40.890625 13.453125 
Q 46.046875 20.015625 46.78125 33.40625 
Q 43.953125 29.203125 39.59375 26.953125 
Q 35.25 24.703125 29.984375 24.703125 
Q 19.046875 24.703125 12.671875 31.3125 
Q 6.296875 37.9375 6.296875 49.421875 
Q 6.296875 60.640625 12.9375 67.421875 
Q 19.578125 74.21875 30.609375 74.21875 
Q 43.265625 74.21875 49.921875 64.515625 
Q 56.59375 54.828125 56.59375 36.375 
Q 56.59375 19.140625 48.40625 8.859375 
Q 40.234375 -1.421875 26.421875 -1.421875 
Q 22.703125 -1.421875 18.890625 -0.6875 
Q 15.09375 0.046875 10.984375 1.515625 
z
M 30.609375 32.421875 
Q 37.25 32.421875 41.125 36.953125 
Q 45.015625 41.5 45.015625 49.421875 
Q 45.015625 57.28125 41.125 61.84375 
Q 37.25 66.40625 30.609375 66.40625 
Q 23.96875 66.40625 20.09375 61.84375 
Q 16.21875 57.28125 16.21875 49.421875 
Q 16.21875 41.5 20.09375 36.953125 
Q 23.96875 32.421875 30.609375 32.421875 
z
" id="DejaVuSans-57"/>
      </defs>
      <g transform="translate(1139.659832 655.398438)scale(0.1 -0.1)">
       <use xlink:href="#DejaVuSans-57"/>
       <use x="63.623047" xlink:href="#DejaVuSans-48"/>
       <use x="127.246094" xlink:href="#DejaVuSans-48"/>
       <use x="190.869141" xlink:href="#DejaVuSans-46"/>
       <use x="222.65625" xlink:href="#DejaVuSans-48"/>
      </g>
     </g>
    </g>
    <g id="xtick_10">
     <g id="line2d_10">
      <g>
       <use style="stroke:#000000;stroke-width:0.8;" x="1256.556853" xlink:href="#m2da070adb4" y="640.8"/>
      </g>
     </g>
     <g id="text_10">
      <!-- 1000.0 -->
      <g transform="translate(1239.06154 655.398438)scale(0.1 -0.1)">
       <use xlink:href="#DejaVuSans-49"/>
       <use x="63.623047" xlink:href="#DejaVuSans-48"/>
       <use x="127.246094" xlink:href="#DejaVuSans-48"/>
       <use x="190.869141" xlink:href="#DejaVuSans-48"/>
       <use x="254.492188" xlink:href="#DejaVuSans-46"/>
       <use x="286.279297" xlink:href="#DejaVuSans-48"/>
      </g>
     </g>
    </g>
    <g id="text_11">
     <!-- n -->
     <defs>
      <path d="M 54.890625 33.015625 
L 54.890625 0 
L 45.90625 0 
L 45.90625 32.71875 
Q 45.90625 40.484375 42.875 44.328125 
Q 39.84375 48.1875 33.796875 48.1875 
Q 26.515625 48.1875 22.3125 43.546875 
Q 18.109375 38.921875 18.109375 30.90625 
L 18.109375 0 
L 9.078125 0 
L 9.078125 54.6875 
L 18.109375 54.6875 
L 18.109375 46.1875 
Q 21.34375 51.125 25.703125 53.5625 
Q 30.078125 56 35.796875 56 
Q 45.21875 56 50.046875 50.171875 
Q 54.890625 44.34375 54.890625 33.015625 
z
" id="DejaVuSans-110"/>
     </defs>
     <g transform="translate(734.83125 669.076563)scale(0.1 -0.1)">
      <use xlink:href="#DejaVuSans-110"/>
     </g>
    </g>
   </g>
   <g id="matplotlib.axis_2">
    <g id="ytick_1">
     <g id="line2d_11">
      <defs>
       <path d="M 0 0 
L -3.5 0 
" id="md2e0da6a9a" style="stroke:#000000;stroke-width:0.8;"/>
      </defs>
      <g>
       <use style="stroke:#000000;stroke-width:0.8;" x="180" xlink:href="#md2e0da6a9a" y="634.929002"/>
      </g>
     </g>
     <g id="text_12">
      <!-- 0 -->
      <g transform="translate(166.6375 638.728221)scale(0.1 -0.1)">
       <use xlink:href="#DejaVuSans-48"/>
      </g>
     </g>
    </g>
    <g id="ytick_2">
     <g id="line2d_12">
      <g>
       <use style="stroke:#000000;stroke-width:0.8;" x="180" xlink:href="#md2e0da6a9a" y="548.486104"/>
      </g>
     </g>
     <g id="text_13">
      <!-- 50 -->
      <g transform="translate(160.275 552.285323)scale(0.1 -0.1)">
       <use xlink:href="#DejaVuSans-53"/>
       <use x="63.623047" xlink:href="#DejaVuSans-48"/>
      </g>
     </g>
    </g>
    <g id="ytick_3">
     <g id="line2d_13">
      <g>
       <use style="stroke:#000000;stroke-width:0.8;" x="180" xlink:href="#md2e0da6a9a" y="462.043207"/>
      </g>
     </g>
     <g id="text_14">
      <!-- 100 -->
      <g transform="translate(153.9125 465.842425)scale(0.1 -0.1)">
       <use xlink:href="#DejaVuSans-49"/>
       <use x="63.623047" xlink:href="#DejaVuSans-48"/>
       <use x="127.246094" xlink:href="#DejaVuSans-48"/>
      </g>
     </g>
    </g>
    <g id="ytick_4">
     <g id="line2d_14">
      <g>
       <use style="stroke:#000000;stroke-width:0.8;" x="180" xlink:href="#md2e0da6a9a" y="375.600309"/>
      </g>
     </g>
     <g id="text_15">
      <!-- 150 -->
      <g transform="translate(153.9125 379.399528)scale(0.1 -0.1)">
       <use xlink:href="#DejaVuSans-49"/>
       <use x="63.623047" xlink:href="#DejaVuSans-53"/>
       <use x="127.246094" xlink:href="#DejaVuSans-48"/>
      </g>
     </g>
    </g>
    <g id="ytick_5">
     <g id="line2d_15">
      <g>
       <use style="stroke:#000000;stroke-width:0.8;" x="180" xlink:href="#md2e0da6a9a" y="289.157411"/>
      </g>
     </g>
     <g id="text_16">
      <!-- 200 -->
      <g transform="translate(153.9125 292.95663)scale(0.1 -0.1)">
       <use xlink:href="#DejaVuSans-50"/>
       <use x="63.623047" xlink:href="#DejaVuSans-48"/>
       <use x="127.246094" xlink:href="#DejaVuSans-48"/>
      </g>
     </g>
    </g>
    <g id="ytick_6">
     <g id="line2d_16">
      <g>
       <use style="stroke:#000000;stroke-width:0.8;" x="180" xlink:href="#md2e0da6a9a" y="202.714513"/>
      </g>
     </g>
     <g id="text_17">
      <!-- 250 -->
      <g transform="translate(153.9125 206.513732)scale(0.1 -0.1)">
       <use xlink:href="#DejaVuSans-50"/>
       <use x="63.623047" xlink:href="#DejaVuSans-53"/>
       <use x="127.246094" xlink:href="#DejaVuSans-48"/>
      </g>
     </g>
    </g>
    <g id="ytick_7">
     <g id="line2d_17">
      <g>
       <use style="stroke:#000000;stroke-width:0.8;" x="180" xlink:href="#md2e0da6a9a" y="116.271616"/>
      </g>
     </g>
     <g id="text_18">
      <!-- 300 -->
      <g transform="translate(153.9125 120.070834)scale(0.1 -0.1)">
       <use xlink:href="#DejaVuSans-51"/>
       <use x="63.623047" xlink:href="#DejaVuSans-48"/>
       <use x="127.246094" xlink:href="#DejaVuSans-48"/>
      </g>
     </g>
    </g>
    <g id="text_19">
     <!-- speedup -->
     <defs>
      <path d="M 44.28125 53.078125 
L 44.28125 44.578125 
Q 40.484375 46.53125 36.375 47.5 
Q 32.28125 48.484375 27.875 48.484375 
Q 21.1875 48.484375 17.84375 46.4375 
Q 14.5 44.390625 14.5 40.28125 
Q 14.5 37.15625 16.890625 35.375 
Q 19.28125 33.59375 26.515625 31.984375 
L 29.59375 31.296875 
Q 39.15625 29.25 43.1875 25.515625 
Q 47.21875 21.78125 47.21875 15.09375 
Q 47.21875 7.46875 41.1875 3.015625 
Q 35.15625 -1.421875 24.609375 -1.421875 
Q 20.21875 -1.421875 15.453125 -0.5625 
Q 10.6875 0.296875 5.421875 2 
L 5.421875 11.28125 
Q 10.40625 8.6875 15.234375 7.390625 
Q 20.0625 6.109375 24.8125 6.109375 
Q 31.15625 6.109375 34.5625 8.28125 
Q 37.984375 10.453125 37.984375 14.40625 
Q 37.984375 18.0625 35.515625 20.015625 
Q 33.0625 21.96875 24.703125 23.78125 
L 21.578125 24.515625 
Q 13.234375 26.265625 9.515625 29.90625 
Q 5.8125 33.546875 5.8125 39.890625 
Q 5.8125 47.609375 11.28125 51.796875 
Q 16.75 56 26.8125 56 
Q 31.78125 56 36.171875 55.265625 
Q 40.578125 54.546875 44.28125 53.078125 
z
" id="DejaVuSans-115"/>
      <path d="M 18.109375 8.203125 
L 18.109375 -20.796875 
L 9.078125 -20.796875 
L 9.078125 54.6875 
L 18.109375 54.6875 
L 18.109375 46.390625 
Q 20.953125 51.265625 25.265625 53.625 
Q 29.59375 56 35.59375 56 
Q 45.5625 56 51.78125 48.09375 
Q 58.015625 40.1875 58.015625 27.296875 
Q 58.015625 14.40625 51.78125 6.484375 
Q 45.5625 -1.421875 35.59375 -1.421875 
Q 29.59375 -1.421875 25.265625 0.953125 
Q 20.953125 3.328125 18.109375 8.203125 
z
M 48.6875 27.296875 
Q 48.6875 37.203125 44.609375 42.84375 
Q 40.53125 48.484375 33.40625 48.484375 
Q 26.265625 48.484375 22.1875 42.84375 
Q 18.109375 37.203125 18.109375 27.296875 
Q 18.109375 17.390625 22.1875 11.75 
Q 26.265625 6.109375 33.40625 6.109375 
Q 40.53125 6.109375 44.609375 11.75 
Q 48.6875 17.390625 48.6875 27.296875 
z
" id="DejaVuSans-112"/>
      <path d="M 56.203125 29.59375 
L 56.203125 25.203125 
L 14.890625 25.203125 
Q 15.484375 15.921875 20.484375 11.0625 
Q 25.484375 6.203125 34.421875 6.203125 
Q 39.59375 6.203125 44.453125 7.46875 
Q 49.3125 8.734375 54.109375 11.28125 
L 54.109375 2.78125 
Q 49.265625 0.734375 44.1875 -0.34375 
Q 39.109375 -1.421875 33.890625 -1.421875 
Q 20.796875 -1.421875 13.15625 6.1875 
Q 5.515625 13.8125 5.515625 26.8125 
Q 5.515625 40.234375 12.765625 48.109375 
Q 20.015625 56 32.328125 56 
Q 43.359375 56 49.78125 48.890625 
Q 56.203125 41.796875 56.203125 29.59375 
z
M 47.21875 32.234375 
Q 47.125 39.59375 43.09375 43.984375 
Q 39.0625 48.390625 32.421875 48.390625 
Q 24.90625 48.390625 20.390625 44.140625 
Q 15.875 39.890625 15.1875 32.171875 
z
" id="DejaVuSans-101"/>
      <path d="M 45.40625 46.390625 
L 45.40625 75.984375 
L 54.390625 75.984375 
L 54.390625 0 
L 45.40625 0 
L 45.40625 8.203125 
Q 42.578125 3.328125 38.25 0.953125 
Q 33.9375 -1.421875 27.875 -1.421875 
Q 17.96875 -1.421875 11.734375 6.484375 
Q 5.515625 14.40625 5.515625 27.296875 
Q 5.515625 40.1875 11.734375 48.09375 
Q 17.96875 56 27.875 56 
Q 33.9375 56 38.25 53.625 
Q 42.578125 51.265625 45.40625 46.390625 
z
M 14.796875 27.296875 
Q 14.796875 17.390625 18.875 11.75 
Q 22.953125 6.109375 30.078125 6.109375 
Q 37.203125 6.109375 41.296875 11.75 
Q 45.40625 17.390625 45.40625 27.296875 
Q 45.40625 37.203125 41.296875 42.84375 
Q 37.203125 48.484375 30.078125 48.484375 
Q 22.953125 48.484375 18.875 42.84375 
Q 14.796875 37.203125 14.796875 27.296875 
z
" id="DejaVuSans-100"/>
      <path d="M 8.5 21.578125 
L 8.5 54.6875 
L 17.484375 54.6875 
L 17.484375 21.921875 
Q 17.484375 14.15625 20.5 10.265625 
Q 23.53125 6.390625 29.59375 6.390625 
Q 36.859375 6.390625 41.078125 11.03125 
Q 45.3125 15.671875 45.3125 23.6875 
L 45.3125 54.6875 
L 54.296875 54.6875 
L 54.296875 0 
L 45.3125 0 
L 45.3125 8.40625 
Q 42.046875 3.421875 37.71875 1 
Q 33.40625 -1.421875 27.6875 -1.421875 
Q 18.265625 -1.421875 13.375 4.4375 
Q 8.5 10.296875 8.5 21.578125 
z
M 31.109375 56 
z
" id="DejaVuSans-117"/>
     </defs>
     <g transform="translate(147.832812 385.049219)rotate(-90)scale(0.1 -0.1)">
      <use xlink:href="#DejaVuSans-115"/>
      <use x="52.099609" xlink:href="#DejaVuSans-112"/>
      <use x="115.576172" xlink:href="#DejaVuSans-101"/>
      <use x="177.099609" xlink:href="#DejaVuSans-101"/>
      <use x="238.623047" xlink:href="#DejaVuSans-100"/>
      <use x="302.099609" xlink:href="#DejaVuSans-117"/>
      <use x="365.478516" xlink:href="#DejaVuSans-112"/>
     </g>
    </g>
   </g>
   <g id="line2d_18">
    <path clip-path="url(#pdb40e6923c)" d="M 230.727273 228.327531 
L 231.753102 306.990839 
L 232.778932 111.6 
L 233.804761 326.149909 
L 234.830591 188.983868 
L 235.856421 339.124797 
L 236.88225 168.513043 
L 237.90808 174.628175 
L 238.933909 388.524341 
L 239.959739 186.199251 
L 240.985569 209.400663 
L 242.011398 215.86757 
L 243.037228 227.557428 
L 244.063057 259.769069 
L 245.088887 251.553579 
L 246.114716 266.271391 
L 247.140546 277.478317 
L 248.166376 282.572825 
L 249.192205 278.416924 
L 250.218035 281.359225 
L 251.243864 304.538029 
L 252.269694 302.895749 
L 253.295523 314.229931 
L 254.321353 304.32397 
L 255.347183 328.970374 
L 256.373012 324.854523 
L 257.398842 323.21792 
L 258.424671 340.620507 
L 259.450501 334.75937 
L 260.476331 346.978534 
L 261.50216 337.488095 
L 262.52799 337.330816 
L 263.553819 341.433532 
L 264.579649 365.216367 
L 265.605478 343.234084 
L 266.631308 371.175953 
L 268.682967 382.767123 
L 269.708797 434.451745 
L 270.734626 386.06421 
L 271.760456 364.443072 
L 272.786286 386.033935 
L 273.812115 379.787006 
L 274.837945 396.068901 
L 275.863774 375.942289 
L 276.889604 383.775005 
L 277.915433 389.695218 
L 278.941263 407.426144 
L 279.967093 406.527267 
L 280.992922 392.867768 
L 282.018752 393.9214 
L 283.044581 409.885703 
L 284.070411 401.767219 
L 285.09624 419.140046 
L 286.12207 415.490976 
L 287.1479 421.97908 
L 288.173729 423.502935 
L 289.199559 416.454756 
L 290.225388 430.859503 
L 291.251218 420.748857 
L 292.277048 432.142204 
L 293.302877 434.140191 
L 294.328707 428.560822 
L 295.354536 430.958651 
L 296.380366 415.383312 
L 297.406195 440.575904 
L 298.432025 440.76958 
L 299.457855 449.727082 
L 300.483684 426.731986 
L 301.509514 441.134427 
L 302.535343 442.185782 
L 303.561173 432.890672 
L 304.587002 450.682151 
L 305.612832 440.503407 
L 306.638662 437.223474 
L 307.664491 440.117534 
L 308.690321 451.818686 
L 309.71615 442.751068 
L 310.74198 455.10865 
L 311.76781 457.341735 
L 312.793639 455.807112 
L 313.819469 451.639858 
L 314.845298 459.866668 
L 315.871128 452.288564 
L 316.896957 459.538644 
L 317.922787 461.91464 
L 318.948617 460.38341 
L 319.974446 461.361112 
L 321.000276 460.017274 
L 322.026105 467.049585 
L 323.051935 469.346387 
L 324.077765 470.859387 
L 325.103594 471.375338 
L 326.129424 465.149031 
L 327.155253 474.249274 
L 328.181083 465.224254 
L 329.206912 472.02229 
L 330.232742 472.138602 
L 331.258572 468.09699 
L 332.284401 478.257191 
L 333.310231 470.589733 
L 334.33606 475.116573 
L 335.36189 483.084332 
L 336.387719 522.239799 
L 337.413549 483.812982 
L 338.439379 477.495052 
L 339.465208 477.919101 
L 340.491038 488.117002 
L 341.516867 477.973559 
L 342.542697 488.374012 
L 343.568527 487.091133 
L 344.594356 487.730526 
L 345.620186 481.125021 
L 346.646015 484.053283 
L 347.671845 481.350404 
L 348.697674 512.131385 
L 349.723504 490.953405 
L 350.749334 492.366536 
L 352.800993 496.025472 
L 353.826822 491.881658 
L 354.852652 495.10445 
L 355.878481 497.179715 
L 356.904311 498.198497 
L 357.930141 498.464198 
L 358.95597 496.311959 
L 359.9818 498.931123 
L 361.007629 498.710814 
L 362.033459 495.196259 
L 363.059289 501.243133 
L 364.085118 498.986489 
L 365.110948 501.998737 
L 366.136777 503.923081 
L 367.162607 522.597432 
L 368.188436 502.219012 
L 369.214266 505.824106 
L 370.240096 503.201811 
L 371.265925 503.745146 
L 372.291755 504.007741 
L 373.317584 507.692018 
L 374.343414 504.266775 
L 375.369243 504.349629 
L 376.395073 508.357033 
L 377.420903 511.144248 
L 378.446732 509.607362 
L 380.498391 506.855465 
L 381.524221 509.807234 
L 382.550051 509.880121 
L 383.57588 511.133268 
L 384.60171 512.80476 
L 385.627539 546.326866 
L 386.653369 547.436568 
L 387.679198 512.791492 
L 388.705028 512.230614 
L 389.730858 511.350527 
L 390.756687 516.602639 
L 391.782517 516.637845 
L 392.808346 514.282049 
L 393.834176 513.985559 
L 394.860006 512.871533 
L 395.885835 519.761949 
L 396.911665 517.239737 
L 397.937494 518.582509 
L 398.963324 516.611721 
L 399.989153 532.495002 
L 401.014983 521.975246 
L 402.040813 521.19564 
L 403.066642 520.052392 
L 404.092472 520.410428 
L 405.118301 520.11786 
L 406.144131 536.884774 
L 407.16996 521.256487 
L 408.19579 521.734556 
L 409.22162 550.454541 
L 410.247449 523.747842 
L 411.273279 541.038733 
L 412.299108 522.002609 
L 413.324938 525.763059 
L 414.350768 523.434996 
L 415.376597 525.572871 
L 416.402427 523.194773 
L 417.428256 527.562508 
L 418.454086 528.993687 
L 419.479915 531.385307 
L 420.505745 530.864203 
L 421.531575 542.357674 
L 422.557404 528.316994 
L 423.583234 527.759181 
L 424.609063 529.435268 
L 425.634893 527.710797 
L 426.660722 536.547997 
L 427.686552 530.78073 
L 428.712382 533.317648 
L 429.738211 529.525762 
L 430.764041 531.976703 
L 431.78987 533.036341 
L 432.8157 532.965441 
L 433.84153 535.165774 
L 434.867359 534.850949 
L 435.893189 533.944158 
L 436.919018 534.615088 
L 437.944848 534.007081 
L 438.970677 534.543566 
L 439.996507 537.866714 
L 441.022337 538.575747 
L 442.048166 536.313734 
L 443.073996 535.668191 
L 444.099825 536.445506 
L 445.125655 536.895178 
L 446.151485 538.546983 
L 447.177314 536.740805 
L 448.203144 540.304858 
L 449.228973 537.48197 
L 450.254803 537.465291 
L 451.280632 539.21819 
L 452.306462 539.478264 
L 454.358121 539.539542 
L 456.40978 543.41641 
L 457.43561 539.655664 
L 458.461439 542.828708 
L 459.487269 541.993501 
L 460.513099 542.499581 
L 461.538928 540.857436 
L 462.564758 541.825866 
L 463.590587 543.836879 
L 464.616417 543.898723 
L 465.642247 543.682226 
L 466.668076 546.651363 
L 467.693906 546.416482 
L 468.719735 546.568284 
L 469.745565 546.991271 
L 470.771394 546.514742 
L 471.797224 548.456497 
L 473.848883 547.028654 
L 474.874713 548.22473 
L 475.900542 552.051664 
L 476.926372 549.940404 
L 477.952201 549.720822 
L 478.978031 547.753637 
L 480.003861 549.640719 
L 481.02969 549.184305 
L 482.05552 551.084869 
L 483.081349 548.836799 
L 484.107179 554.449358 
L 485.133009 550.873137 
L 486.158838 550.578721 
L 487.184668 550.422374 
L 489.236327 551.670608 
L 490.262156 551.973605 
L 491.287986 553.679297 
L 492.313816 551.394777 
L 493.339645 552.960492 
L 494.365475 553.389434 
L 495.391304 553.563328 
L 496.417134 553.107388 
L 497.442964 552.929472 
L 498.468793 554.6136 
L 499.494623 566.298094 
L 500.520452 558.569909 
L 501.546282 554.707818 
L 502.572111 552.09953 
L 503.597941 555.707249 
L 504.623771 553.427595 
L 505.6496 553.002788 
L 506.67543 553.191226 
L 507.701259 554.013932 
L 508.727089 553.985411 
L 509.752918 554.290349 
L 510.778748 556.919691 
L 511.804578 555.699788 
L 512.830407 554.214678 
L 513.856237 557.138318 
L 514.882066 556.089488 
L 515.907896 555.469673 
L 516.933726 557.194815 
L 517.959555 555.922295 
L 518.985385 556.510335 
L 520.011214 556.03103 
L 521.037044 557.675883 
L 522.062873 556.104654 
L 523.088703 568.367342 
L 524.114533 557.116946 
L 525.140362 559.765007 
L 526.166192 560.277141 
L 527.192021 557.844176 
L 528.217851 557.465276 
L 530.26951 558.551636 
L 532.321169 559.188762 
L 533.346999 554.341077 
L 534.372828 552.30726 
L 535.398658 550.682231 
L 536.424488 559.324971 
L 537.450317 560.985883 
L 538.476147 560.64538 
L 539.501976 560.826558 
L 540.527806 561.247433 
L 541.553635 558.85845 
L 542.579465 563.159811 
L 543.605295 561.954645 
L 544.631124 564.271086 
L 545.656954 560.625366 
L 546.682783 562.67928 
L 547.708613 561.432363 
L 549.760272 561.55885 
L 550.786102 563.883369 
L 551.811931 569.071614 
L 552.837761 563.183179 
L 553.86359 562.530251 
L 554.88942 562.408929 
L 555.91525 564.173427 
L 556.941079 563.137456 
L 557.966909 564.41908 
L 558.992738 564.310688 
L 560.018568 562.582475 
L 561.044397 562.860536 
L 562.070227 564.075118 
L 563.096057 564.613767 
L 564.121886 564.943318 
L 565.147716 564.265656 
L 566.173545 564.949018 
L 567.199375 558.877788 
L 568.225205 564.781477 
L 569.251034 565.635904 
L 570.276864 564.867661 
L 571.302693 564.474953 
L 573.354352 565.615287 
L 574.380182 565.328488 
L 575.406012 564.529649 
L 576.431841 553.653526 
L 577.457671 568.265276 
L 578.4835 566.337921 
L 579.50933 565.316303 
L 580.535159 569.475623 
L 581.560989 566.89086 
L 582.586819 565.61265 
L 584.638478 566.938171 
L 585.664307 566.893529 
L 586.690137 560.937535 
L 587.715967 595.66854 
L 588.741796 568.099846 
L 589.767626 567.466186 
L 590.793455 571.045692 
L 591.819285 564.751523 
L 592.845114 570.964436 
L 593.870944 570.305488 
L 595.922603 570.755942 
L 596.948433 566.498741 
L 597.974262 570.711384 
L 599.000092 582.37274 
L 600.025922 571.239008 
L 601.051751 569.352659 
L 602.077581 570.662235 
L 603.10341 570.967134 
L 604.12924 571.688063 
L 605.155069 571.433464 
L 606.180899 571.858879 
L 607.206729 571.119999 
L 608.232558 572.216081 
L 609.258388 571.670929 
L 610.284217 572.42796 
L 611.310047 572.388738 
L 612.335876 571.580278 
L 613.361706 572.599283 
L 614.387536 573.113481 
L 615.413365 591.08247 
L 616.439195 573.275708 
L 617.465024 573.116234 
L 618.490854 572.723992 
L 619.516684 572.768722 
L 620.542513 573.782195 
L 621.568343 573.267057 
L 622.594172 578.209394 
L 623.620002 573.195046 
L 624.645831 574.097856 
L 625.671661 573.442027 
L 626.697491 576.93959 
L 627.72332 573.87105 
L 629.774979 574.392487 
L 630.800809 574.451705 
L 631.826638 574.202204 
L 632.852468 574.254796 
L 633.878298 573.782365 
L 634.904127 574.411105 
L 635.929957 574.383953 
L 637.981616 575.382346 
L 639.007446 575.394499 
L 640.033275 574.96016 
L 641.059105 575.417187 
L 642.084934 570.580539 
L 643.110764 576.453636 
L 644.136593 575.848563 
L 645.162423 576.536395 
L 647.214082 577.245705 
L 648.239912 581.522009 
L 649.265741 577.614106 
L 650.291571 576.456572 
L 651.3174 576.704588 
L 652.34323 576.130275 
L 653.36906 576.409482 
L 654.394889 576.519442 
L 655.420719 576.474336 
L 656.446548 577.021944 
L 657.472378 576.849065 
L 658.498208 575.134577 
L 659.524037 576.414862 
L 660.549867 576.4646 
L 661.575696 577.354132 
L 662.601526 576.680831 
L 663.627355 579.343685 
L 664.653185 578.295763 
L 665.679015 576.717718 
L 666.704844 578.842197 
L 667.730674 577.255667 
L 668.756503 579.168422 
L 669.782333 579.07317 
L 670.808163 579.624315 
L 671.833992 579.543335 
L 672.859822 579.037418 
L 673.885651 579.802276 
L 674.911481 578.999202 
L 675.93731 580.057086 
L 676.96314 577.617953 
L 677.98897 579.03542 
L 679.014799 588.435202 
L 680.040629 592.409355 
L 681.066458 578.05968 
L 682.092288 578.238431 
L 683.118117 578.722749 
L 684.143947 579.376358 
L 685.169777 579.556191 
L 686.195606 579.136317 
L 687.221436 579.422579 
L 688.247265 579.124476 
L 689.273095 578.480921 
L 690.298925 578.804227 
L 691.324754 578.917299 
L 692.350584 579.518078 
L 693.376413 579.258257 
L 694.402243 580.028435 
L 695.428072 580.490425 
L 696.453902 568.428751 
L 697.479732 587.954072 
L 698.505561 573.091624 
L 699.531391 580.961015 
L 700.55722 580.728321 
L 701.58305 581.499148 
L 702.608879 580.679662 
L 703.634709 582.045669 
L 704.660539 581.973745 
L 705.686368 596.926445 
L 706.712198 585.788321 
L 707.738027 580.265774 
L 708.763857 580.21998 
L 709.789687 580.929879 
L 710.815516 580.619634 
L 711.841346 581.656299 
L 712.867175 581.311522 
L 713.893005 584.071597 
L 714.918834 581.916557 
L 715.944664 582.279893 
L 716.970494 582.226753 
L 717.996323 582.785778 
L 719.022153 582.187433 
L 720.047982 583.836871 
L 721.073812 582.594688 
L 722.099642 581.561627 
L 723.125471 585.803294 
L 724.151301 583.109368 
L 725.17713 583.071211 
L 726.20296 582.669844 
L 728.254619 583.048261 
L 730.306278 583.188352 
L 731.332108 582.095445 
L 732.357937 583.116327 
L 733.383767 583.441629 
L 734.409596 583.630422 
L 735.435426 583.700863 
L 736.461256 584.011689 
L 737.487085 584.957467 
L 738.512915 596.650812 
L 739.538744 583.846098 
L 740.564574 584.52483 
L 741.590404 584.535687 
L 744.667892 583.474174 
L 745.693722 584.053093 
L 746.719551 585.078625 
L 747.745381 584.90529 
L 748.771211 584.326605 
L 749.79704 584.509203 
L 750.82287 585.015762 
L 752.874529 584.81926 
L 753.900358 585.463001 
L 754.926188 585.251259 
L 755.952018 585.377398 
L 756.977847 585.206802 
L 758.003677 585.257074 
L 759.029506 585.451012 
L 760.055336 585.813143 
L 761.081166 587.142584 
L 762.106995 585.548828 
L 763.132825 585.925167 
L 764.158654 585.909176 
L 765.184484 595.249297 
L 766.210313 585.850132 
L 767.236143 585.823941 
L 768.261973 585.152732 
L 769.287802 583.864505 
L 770.313632 585.888481 
L 771.339461 584.139231 
L 772.365291 585.982958 
L 773.391121 585.728214 
L 774.41695 585.339709 
L 775.44278 585.97872 
L 776.468609 585.966371 
L 777.494439 586.15364 
L 778.520268 586.139956 
L 779.546098 586.244884 
L 780.571928 586.552176 
L 781.597757 586.429024 
L 782.623587 585.466271 
L 783.649416 585.699508 
L 784.675246 586.330061 
L 785.701075 585.843735 
L 786.726905 586.745233 
L 787.752735 586.757987 
L 788.778564 587.160634 
L 789.804394 586.627798 
L 790.830223 587.098408 
L 791.856053 587.248855 
L 792.881883 587.070879 
L 793.907712 587.384614 
L 794.933542 587.119003 
L 796.985201 588.18112 
L 798.01103 583.982751 
L 799.03686 590.63474 
L 800.06269 592.506547 
L 801.088519 586.225206 
L 802.114349 586.459278 
L 803.140178 585.943716 
L 804.166008 587.240735 
L 805.191837 588.102929 
L 806.217667 588.654849 
L 807.243497 588.22044 
L 808.269326 595.759743 
L 809.295156 586.768448 
L 810.320985 591.435435 
L 811.346815 587.837797 
L 812.372645 587.913702 
L 813.398474 588.148497 
L 814.424304 588.039752 
L 815.450133 587.585672 
L 816.475963 588.29464 
L 817.501792 587.626077 
L 818.527622 587.10335 
L 819.553452 587.746012 
L 820.579281 587.927223 
L 821.605111 587.934015 
L 822.63094 587.684465 
L 823.65677 587.984957 
L 824.6826 587.785219 
L 825.708429 588.183003 
L 826.734259 587.931012 
L 827.760088 588.108082 
L 828.785918 586.984657 
L 829.811747 588.014693 
L 830.837577 588.751747 
L 831.863407 588.653658 
L 832.889236 588.176665 
L 834.940895 588.642588 
L 835.966725 588.391164 
L 836.992554 588.682636 
L 838.018384 588.135432 
L 839.044214 588.644029 
L 841.095873 588.962213 
L 842.121702 588.865892 
L 843.147532 588.908418 
L 845.199191 590.167445 
L 846.225021 589.74889 
L 847.25085 589.810178 
L 848.27668 589.497493 
L 849.302509 601.558194 
L 850.328339 589.988193 
L 851.354169 590.238176 
L 852.379998 590.131671 
L 853.405828 590.522927 
L 854.431657 590.549 
L 855.457487 589.959833 
L 856.483316 589.804032 
L 857.509146 590.126067 
L 858.534976 589.931431 
L 859.560805 590.001812 
L 860.586635 590.28342 
L 861.612464 590.205276 
L 862.638294 590.418924 
L 863.664124 597.86428 
L 864.689953 590.276848 
L 865.715783 590.410718 
L 866.741612 590.171819 
L 867.767442 590.455129 
L 868.793271 590.362368 
L 869.819101 604.276228 
L 870.844931 590.7341 
L 871.87076 591.203813 
L 872.89659 590.211048 
L 873.922419 590.597062 
L 874.948249 590.166687 
L 875.974078 590.243209 
L 876.999908 590.658635 
L 878.025738 590.754231 
L 879.051567 590.971078 
L 880.077397 592.738548 
L 882.129056 604.324946 
L 883.154886 591.035478 
L 884.180715 590.268169 
L 885.206545 590.512486 
L 886.232374 590.480517 
L 888.284033 590.870615 
L 889.309863 590.332353 
L 890.335693 591.409815 
L 891.361522 591.132356 
L 892.387352 591.657822 
L 893.413181 592.03412 
L 894.439011 591.330941 
L 895.464841 591.780915 
L 896.49067 592.041317 
L 897.5165 599.506054 
L 898.542329 591.786975 
L 899.568159 592.375265 
L 900.593988 592.279814 
L 901.619818 592.002569 
L 902.645648 592.225839 
L 903.671477 592.267875 
L 904.697307 590.426428 
L 905.723136 592.042239 
L 906.748966 592.575554 
L 907.774795 594.899742 
L 908.800625 591.952805 
L 909.826455 592.121764 
L 910.852284 592.59955 
L 911.878114 592.153494 
L 912.903943 592.601452 
L 913.929773 591.932361 
L 914.955603 594.61455 
L 915.981432 593.047017 
L 917.007262 592.85472 
L 919.058921 592.788173 
L 920.08475 592.912564 
L 921.11058 592.575012 
L 923.162239 593.081834 
L 925.213898 592.749614 
L 926.239728 592.914368 
L 929.317217 592.757671 
L 930.343046 592.802234 
L 931.368876 592.665171 
L 932.394705 592.953187 
L 933.420535 592.868897 
L 934.446365 593.01474 
L 935.472194 566.389661 
L 936.498024 594.730858 
L 937.523853 596.009979 
L 938.549683 593.956068 
L 939.575512 595.227269 
L 940.601342 593.179971 
L 941.627172 593.146922 
L 942.653001 593.697185 
L 943.678831 593.333359 
L 944.70466 593.539065 
L 946.75632 593.476863 
L 947.782149 594.137919 
L 948.807979 602.506687 
L 949.833808 601.027016 
L 950.859638 594.193376 
L 951.885467 592.368574 
L 952.911297 593.244106 
L 954.962956 593.63648 
L 957.014615 593.452399 
L 958.040445 593.535824 
L 959.066274 593.979521 
L 960.092104 593.285245 
L 961.117934 593.755474 
L 962.143763 593.767422 
L 963.169593 594.022958 
L 964.195422 593.55459 
L 965.221252 593.490847 
L 966.247082 593.702033 
L 967.272911 596.067561 
L 968.298741 594.495595 
L 969.32457 594.125563 
L 970.3504 593.978565 
L 971.376229 593.718592 
L 972.402059 594.174827 
L 973.427889 593.916082 
L 974.453718 594.754917 
L 975.479548 594.673168 
L 976.505377 594.72843 
L 977.531207 594.666077 
L 978.557036 594.49129 
L 979.582866 595.008747 
L 980.608696 598.746166 
L 981.634525 594.769079 
L 982.660355 592.029117 
L 983.686184 596.156657 
L 984.712014 594.258947 
L 985.737844 594.773321 
L 986.763673 594.68521 
L 987.789503 597.243968 
L 988.815332 594.894839 
L 989.841162 595.253347 
L 990.866991 594.673406 
L 991.892821 595.601192 
L 992.918651 595.07823 
L 993.94448 594.882787 
L 994.97031 595.312008 
L 995.996139 595.31994 
L 998.047799 595.588416 
L 999.073628 595.505084 
L 1000.099458 596.334287 
L 1002.151117 595.008924 
L 1003.176946 595.363134 
L 1004.202776 594.798614 
L 1005.228606 594.790681 
L 1006.254435 595.276562 
L 1007.280265 595.080228 
L 1008.306094 595.503387 
L 1009.331924 595.630969 
L 1010.357753 595.611035 
L 1011.383583 594.372107 
L 1013.435242 597.414721 
L 1014.461072 595.650322 
L 1015.486901 594.905825 
L 1016.512731 595.035655 
L 1018.56439 597.208388 
L 1019.59022 596.031996 
L 1020.616049 596.764701 
L 1022.667708 595.993474 
L 1023.693538 595.845395 
L 1024.719368 595.551046 
L 1025.745197 596.054773 
L 1026.771027 595.653078 
L 1027.796856 596.229434 
L 1028.822686 596.358123 
L 1029.848515 596.265664 
L 1031.900175 596.34308 
L 1032.926004 596.231768 
L 1033.951834 597.845999 
L 1034.977663 593.656315 
L 1036.003493 596.378544 
L 1037.029323 596.396286 
L 1038.055152 596.80948 
L 1039.080982 597.044068 
L 1040.106811 595.900108 
L 1041.132641 596.568934 
L 1042.15847 596.072643 
L 1043.1843 596.116205 
L 1044.21013 596.351276 
L 1045.235959 596.88429 
L 1046.261789 596.607971 
L 1047.287618 596.126736 
L 1048.313448 597.531021 
L 1049.339278 596.865146 
L 1051.390937 596.570657 
L 1053.442596 597.268519 
L 1054.468425 596.233341 
L 1055.494255 597.071194 
L 1056.520085 597.253428 
L 1057.545914 596.79903 
L 1059.597573 596.274896 
L 1061.649232 598.469345 
L 1062.675062 598.326328 
L 1063.700892 598.750427 
L 1064.726721 598.966849 
L 1065.752551 595.657443 
L 1066.77838 599.389855 
L 1067.80421 597.858241 
L 1068.83004 598.853889 
L 1069.855869 609.196686 
L 1070.881699 596.970555 
L 1071.907528 600.69726 
L 1072.933358 597.603571 
L 1073.959187 598.57207 
L 1074.985017 598.517734 
L 1076.010847 600.665636 
L 1077.036676 603.567109 
L 1078.062506 598.373882 
L 1079.088335 599.013885 
L 1080.114165 597.748742 
L 1081.139994 600.216002 
L 1082.165824 597.61603 
L 1083.191654 599.003201 
L 1085.243313 598.582958 
L 1086.269142 600.415519 
L 1087.294972 599.051697 
L 1088.320802 598.472541 
L 1089.346631 599.103174 
L 1090.372461 599.007386 
L 1091.39829 598.4953 
L 1092.42412 599.035816 
L 1093.449949 599.219 
L 1094.475779 599.189219 
L 1095.501609 599.026955 
L 1097.553268 599.242824 
L 1098.579097 598.804975 
L 1099.604927 599.23657 
L 1100.630757 599.32103 
L 1101.656586 598.401966 
L 1102.682416 599.286025 
L 1103.708245 599.404901 
L 1104.734075 599.21897 
L 1105.759904 599.193919 
L 1108.837393 599.933674 
L 1109.863223 599.244124 
L 1110.889052 600.301154 
L 1111.914882 599.766369 
L 1112.940711 599.716776 
L 1113.966541 599.544569 
L 1114.992371 599.152642 
L 1116.0182 599.504807 
L 1119.095689 599.904267 
L 1120.121519 598.576177 
L 1121.147348 598.709419 
L 1122.173178 598.540573 
L 1123.199007 599.997499 
L 1125.250666 597.729225 
L 1126.276496 598.861743 
L 1127.302326 598.378606 
L 1128.328155 598.763552 
L 1129.353985 598.402322 
L 1130.379814 598.987695 
L 1131.405644 598.958823 
L 1132.431473 594.276225 
L 1133.457303 598.548398 
L 1134.483133 598.679857 
L 1135.508962 602.046077 
L 1136.534792 598.607711 
L 1137.560621 598.84954 
L 1138.586451 597.514312 
L 1139.612281 598.830001 
L 1141.66394 598.841061 
L 1142.689769 609.900527 
L 1143.715599 601.696161 
L 1144.741428 603.668114 
L 1145.767258 598.830917 
L 1146.793088 598.775265 
L 1147.818917 603.935351 
L 1148.844747 598.841758 
L 1149.870576 608.028877 
L 1150.896406 598.73114 
L 1151.922235 598.641929 
L 1152.948065 605.620484 
L 1153.973895 599.077809 
L 1156.025554 598.883966 
L 1157.051383 598.779555 
L 1158.077213 599.119068 
L 1159.103043 598.984501 
L 1160.128872 598.719659 
L 1161.154702 605.198817 
L 1162.180531 599.757442 
L 1163.206361 599.200815 
L 1164.23219 599.349267 
L 1165.25802 599.109904 
L 1166.28385 599.564027 
L 1167.309679 599.5117 
L 1168.335509 599.300609 
L 1169.361338 599.389043 
L 1170.387168 599.67362 
L 1171.412998 599.263559 
L 1172.438827 599.369738 
L 1173.464657 599.809337 
L 1174.490486 599.554248 
L 1175.516316 599.56163 
L 1176.542145 599.331622 
L 1177.567975 599.671541 
L 1178.593805 599.178221 
L 1179.619634 599.43891 
L 1180.645464 599.199797 
L 1181.671293 599.10099 
L 1182.697123 599.666617 
L 1183.722952 599.240043 
L 1184.748782 599.861393 
L 1185.774612 599.938775 
L 1187.826271 599.102408 
L 1188.8521 600.03147 
L 1189.87793 599.744778 
L 1190.90376 599.603968 
L 1191.929589 600.200375 
L 1192.955419 602.546692 
L 1193.981248 600.11608 
L 1195.007078 600.070795 
L 1197.058737 600.308798 
L 1198.084567 599.788843 
L 1199.110396 601.328055 
L 1200.136226 599.785679 
L 1202.187885 600.449959 
L 1203.213714 598.825141 
L 1204.239544 599.686547 
L 1205.265374 599.409948 
L 1206.291203 599.981784 
L 1207.317033 606.066704 
L 1208.342862 599.884959 
L 1209.368692 600.255641 
L 1210.394522 599.717154 
L 1211.420351 599.889097 
L 1212.446181 600.302159 
L 1213.47201 599.927782 
L 1214.49784 599.928561 
L 1215.523669 600.207285 
L 1216.549499 599.364164 
L 1217.575329 600.027227 
L 1218.601158 601.374682 
L 1219.626988 600.199889 
L 1220.652817 599.953834 
L 1221.678647 601.588036 
L 1222.704477 599.313896 
L 1223.730306 599.918398 
L 1224.756136 601.49879 
L 1225.781965 600.079997 
L 1226.807795 600.27345 
L 1228.859454 600.354073 
L 1229.885284 600.603794 
L 1230.911113 601.574017 
L 1231.936943 600.147356 
L 1232.962772 600.340639 
L 1233.988602 600.36712 
L 1235.014431 600.231889 
L 1236.040261 600.460732 
L 1237.066091 600.135568 
L 1238.09192 600.365332 
L 1239.11775 596.7127 
L 1240.143579 600.400994 
L 1241.169409 600.356399 
L 1242.195239 599.978378 
L 1244.246898 600.311615 
L 1245.272727 600.036035 
L 1245.272727 600.036035 
" style="fill:none;stroke:#1f77b4;stroke-linecap:square;stroke-width:1.5;"/>
   </g>
   <g id="line2d_19">
    <path clip-path="url(#pdb40e6923c)" d="M 230.727273 218.887062 
L 231.753102 213.635277 
L 232.778932 223.060341 
L 233.804761 264.041428 
L 234.830591 276.11784 
L 235.856421 285.785641 
L 236.88225 249.098108 
L 237.90808 289.44188 
L 238.933909 263.304778 
L 239.959739 245.0561 
L 240.985569 297.543292 
L 242.011398 321.178644 
L 243.037228 283.329123 
L 244.063057 258.458529 
L 245.088887 309.690657 
L 246.114716 317.17211 
L 247.140546 337.781481 
L 248.166376 321.945361 
L 249.192205 346.425445 
L 250.218035 330.338671 
L 251.243864 328.360719 
L 252.269694 329.710088 
L 253.295523 353.313747 
L 254.321353 353.500812 
L 255.347183 323.959282 
L 256.373012 337.662403 
L 257.398842 360.229035 
L 258.424671 346.515197 
L 259.450501 370.540866 
L 260.476331 353.042969 
L 261.50216 378.143956 
L 262.52799 387.390844 
L 263.553819 383.823719 
L 264.579649 397.029542 
L 265.605478 387.53183 
L 266.631308 393.71922 
L 267.657138 391.091071 
L 268.682967 405.77974 
L 269.708797 394.243216 
L 270.734626 410.884703 
L 271.760456 412.570601 
L 272.786286 400.858965 
L 273.812115 410.532692 
L 274.837945 400.645336 
L 275.863774 410.991571 
L 276.889604 410.434201 
L 277.915433 405.410847 
L 278.941263 419.01907 
L 279.967093 410.32047 
L 280.992922 444.525273 
L 282.018752 445.676869 
L 283.044581 427.314284 
L 284.070411 440.827027 
L 285.09624 444.842307 
L 286.12207 454.706233 
L 287.1479 457.400739 
L 288.173729 462.236965 
L 289.199559 440.045659 
L 290.225388 459.90417 
L 291.251218 463.776336 
L 292.277048 444.557909 
L 293.302877 457.209934 
L 294.328707 476.20052 
L 295.354536 466.984392 
L 296.380366 487.377607 
L 297.406195 465.743672 
L 298.432025 465.774477 
L 299.457855 514.216835 
L 301.509514 462.53727 
L 302.535343 460.676258 
L 303.561173 455.204438 
L 304.587002 456.18406 
L 305.612832 469.264995 
L 306.638662 473.137171 
L 307.664491 463.301694 
L 308.690321 472.964635 
L 309.71615 475.338904 
L 310.74198 478.043966 
L 311.76781 470.699429 
L 312.793639 473.352079 
L 313.819469 472.770818 
L 314.845298 473.223786 
L 316.896957 480.584208 
L 317.922787 479.379219 
L 318.948617 483.293869 
L 319.974446 483.087595 
L 321.000276 484.818082 
L 322.026105 480.997278 
L 323.051935 489.383505 
L 324.077765 478.988029 
L 325.103594 491.369445 
L 326.129424 488.188276 
L 327.155253 503.232257 
L 328.181083 490.799505 
L 329.206912 491.531608 
L 330.232742 490.38288 
L 331.258572 499.365642 
L 332.284401 503.699322 
L 333.310231 498.406624 
L 334.33606 507.879823 
L 335.36189 503.390639 
L 337.413549 501.981042 
L 338.439379 502.951329 
L 339.465208 508.968706 
L 340.491038 505.725906 
L 341.516867 500.55728 
L 342.542697 494.366281 
L 343.568527 503.921646 
L 344.594356 495.218331 
L 346.646015 502.019257 
L 347.671845 503.760919 
L 348.697674 501.342818 
L 349.723504 507.646068 
L 350.749334 507.871431 
L 351.775163 512.597863 
L 352.800993 504.111726 
L 353.826822 510.700234 
L 354.852652 511.130024 
L 355.878481 526.253964 
L 356.904311 507.437689 
L 357.930141 511.346113 
L 358.95597 517.947596 
L 359.9818 516.426586 
L 361.007629 515.846032 
L 362.033459 512.00351 
L 363.059289 530.581451 
L 364.085118 531.96549 
L 365.110948 515.149612 
L 366.136777 519.2806 
L 367.162607 519.212687 
L 368.188436 524.693195 
L 369.214266 520.058272 
L 371.265925 519.730218 
L 372.291755 517.678426 
L 373.317584 514.639465 
L 374.343414 528.354338 
L 375.369243 533.575961 
L 376.395073 521.375067 
L 377.420903 517.604349 
L 378.446732 530.35195 
L 379.472562 526.766578 
L 380.498391 524.657605 
L 381.524221 525.105536 
L 382.550051 523.816959 
L 383.57588 528.19656 
L 384.60171 527.706384 
L 385.627539 527.026449 
L 386.653369 528.300703 
L 387.679198 526.52191 
L 388.705028 528.900485 
L 389.730858 526.622199 
L 390.756687 529.543382 
L 391.782517 544.112977 
L 392.808346 530.303216 
L 393.834176 542.29456 
L 394.860006 532.653108 
L 395.885835 533.981282 
L 396.911665 529.584567 
L 397.937494 534.416472 
L 398.963324 533.827199 
L 399.989153 533.705729 
L 401.014983 537.041412 
L 402.040813 538.394446 
L 403.066642 536.886089 
L 404.092472 536.016122 
L 405.118301 533.631714 
L 406.144131 536.423802 
L 407.16996 536.241757 
L 408.19579 538.28959 
L 409.22162 536.329847 
L 410.247449 537.107095 
L 411.273279 538.393682 
L 412.299108 537.943495 
L 413.324938 541.762802 
L 414.350768 540.353743 
L 415.376597 537.470415 
L 416.402427 541.878778 
L 417.428256 541.879385 
L 418.454086 539.97611 
L 419.479915 553.849476 
L 420.505745 541.856453 
L 421.531575 542.772096 
L 422.557404 540.836833 
L 423.583234 542.162803 
L 424.609063 541.169592 
L 425.634893 543.991782 
L 426.660722 551.458694 
L 427.686552 545.872006 
L 428.712382 545.617686 
L 429.738211 543.197283 
L 430.764041 546.284985 
L 431.78987 546.653018 
L 432.8157 548.365648 
L 433.84153 551.579294 
L 434.867359 547.752123 
L 435.893189 547.983363 
L 436.919018 546.901115 
L 437.944848 549.720799 
L 438.970677 547.694126 
L 439.996507 546.69913 
L 441.022337 549.569396 
L 442.048166 550.606155 
L 443.073996 549.545002 
L 444.099825 551.82779 
L 445.125655 551.89836 
L 446.151485 552.201662 
L 447.177314 551.519739 
L 448.203144 549.836525 
L 449.228973 553.251388 
L 450.254803 552.446993 
L 451.280632 552.150726 
L 452.306462 554.301494 
L 453.332292 554.501027 
L 454.358121 552.721417 
L 455.383951 562.516867 
L 456.40978 553.186903 
L 457.43561 554.342464 
L 458.461439 554.701732 
L 459.487269 554.055635 
L 460.513099 555.165761 
L 461.538928 554.685436 
L 462.564758 555.280804 
L 463.590587 556.549952 
L 464.616417 557.534326 
L 465.642247 555.652475 
L 466.668076 558.400722 
L 467.693906 556.679819 
L 468.719735 557.420581 
L 469.745565 554.28008 
L 470.771394 558.611906 
L 471.797224 558.902924 
L 472.823054 558.031533 
L 473.848883 559.003639 
L 474.874713 560.143264 
L 475.900542 560.749525 
L 476.926372 558.86284 
L 477.952201 560.779898 
L 478.978031 560.144783 
L 480.003861 563.031527 
L 481.02969 561.555557 
L 483.081349 564.038564 
L 484.107179 571.717391 
L 485.133009 569.400726 
L 486.158838 563.191984 
L 487.184668 564.288888 
L 488.210497 563.529594 
L 489.236327 562.406827 
L 490.262156 564.392472 
L 491.287986 563.181989 
L 492.313816 565.685748 
L 493.339645 563.109593 
L 494.365475 564.250785 
L 495.391304 565.723613 
L 496.417134 565.986859 
L 497.442964 574.774467 
L 498.468793 565.666274 
L 499.494623 564.809689 
L 500.520452 570.610968 
L 501.546282 566.04632 
L 502.572111 566.890576 
L 503.597941 566.584135 
L 504.623771 567.340162 
L 505.6496 566.687964 
L 506.67543 568.946275 
L 507.701259 566.917571 
L 509.752918 571.152911 
L 510.778748 565.474304 
L 511.804578 567.808003 
L 512.830407 563.319562 
L 513.856237 565.464643 
L 514.882066 568.052491 
L 515.907896 567.140145 
L 516.933726 570.561262 
L 517.959555 568.189152 
L 518.985385 566.434834 
L 520.011214 567.44877 
L 521.037044 567.051872 
L 522.062873 568.471119 
L 523.088703 568.281223 
L 524.114533 567.233319 
L 525.140362 570.465844 
L 526.166192 569.764424 
L 527.192021 577.70428 
L 528.217851 571.410563 
L 529.24368 570.576731 
L 530.26951 569.298602 
L 531.29534 571.605405 
L 532.321169 569.099362 
L 533.346999 572.196914 
L 534.372828 572.17625 
L 535.398658 571.386911 
L 536.424488 569.194525 
L 537.450317 572.019151 
L 538.476147 570.629401 
L 539.501976 571.942434 
L 540.527806 568.103476 
L 541.553635 572.039385 
L 542.579465 570.620256 
L 544.631124 571.384622 
L 545.656954 570.641061 
L 546.682783 570.981617 
L 547.708613 571.100712 
L 548.734443 569.694318 
L 549.760272 572.228308 
L 550.786102 571.881662 
L 551.811931 573.198598 
L 552.837761 573.439861 
L 553.86359 572.496465 
L 554.88942 574.879037 
L 555.91525 572.958594 
L 556.941079 575.323267 
L 557.966909 573.394156 
L 558.992738 574.243031 
L 560.018568 574.551676 
L 561.044397 573.703681 
L 562.070227 574.416992 
L 563.096057 574.423759 
L 564.121886 575.241931 
L 565.147716 574.857719 
L 566.173545 576.543343 
L 567.199375 574.924847 
L 568.225205 576.124206 
L 569.251034 574.765583 
L 570.276864 576.762222 
L 571.302693 576.782234 
L 572.328523 576.675714 
L 573.354352 578.429789 
L 574.380182 575.934746 
L 575.406012 578.861326 
L 576.431841 579.336582 
L 577.457671 578.742068 
L 578.4835 578.280667 
L 579.50933 578.483968 
L 580.535159 579.436927 
L 581.560989 576.145489 
L 582.586819 582.767463 
L 583.612648 574.362592 
L 584.638478 577.833383 
L 585.664307 577.253009 
L 586.690137 578.295591 
L 587.715967 580.403374 
L 588.741796 577.705859 
L 589.767626 578.285324 
L 590.793455 579.90076 
L 591.819285 578.671924 
L 592.845114 579.434624 
L 593.870944 583.534908 
L 594.896774 579.087787 
L 595.922603 577.298412 
L 596.948433 579.633494 
L 597.974262 579.742785 
L 599.000092 579.521078 
L 600.025922 580.806369 
L 601.051751 580.090917 
L 602.077581 580.146406 
L 603.10341 579.52836 
L 604.12924 580.293101 
L 605.155069 579.335951 
L 606.180899 580.180547 
L 607.206729 578.987298 
L 608.232558 582.417855 
L 609.258388 586.851224 
L 610.284217 583.187489 
L 611.310047 584.289804 
L 613.361706 582.412067 
L 614.387536 582.440205 
L 615.413365 583.065597 
L 616.439195 583.212669 
L 617.465024 584.118845 
L 618.490854 583.540502 
L 619.516684 582.612245 
L 620.542513 584.370977 
L 621.568343 584.257276 
L 622.594172 584.733542 
L 623.620002 588.076293 
L 624.645831 583.763631 
L 625.671661 583.199991 
L 626.697491 585.349735 
L 627.72332 582.409748 
L 628.74915 580.194978 
L 629.774979 580.001696 
L 631.826638 580.933523 
L 632.852468 581.059259 
L 633.878298 580.556063 
L 634.904127 591.118558 
L 635.929957 580.224358 
L 636.955786 580.995418 
L 637.981616 581.16906 
L 639.007446 580.873128 
L 640.033275 581.017688 
L 641.059105 581.470601 
L 642.084934 587.28798 
L 643.110764 581.467125 
L 644.136593 582.749716 
L 645.162423 581.582309 
L 646.188253 581.392778 
L 647.214082 581.930313 
L 648.239912 581.795632 
L 649.265741 582.173886 
L 651.3174 580.965107 
L 652.34323 583.008434 
L 653.36906 587.936153 
L 654.394889 583.784146 
L 655.420719 583.48937 
L 656.446548 582.032496 
L 657.472378 581.640789 
L 658.498208 583.096272 
L 659.524037 582.772905 
L 660.549867 583.879858 
L 661.575696 585.264122 
L 662.601526 584.139086 
L 663.627355 583.51513 
L 664.653185 586.67732 
L 665.679015 583.910881 
L 666.704844 583.647062 
L 668.756503 585.123667 
L 670.808163 583.626288 
L 671.833992 584.417076 
L 672.859822 583.903275 
L 673.885651 583.755458 
L 674.911481 584.346265 
L 675.93731 580.363817 
L 676.96314 581.984271 
L 677.98897 582.074132 
L 679.014799 581.374274 
L 681.066458 583.974552 
L 682.092288 584.140343 
L 683.118117 583.725645 
L 684.143947 579.154972 
L 685.169777 584.137661 
L 686.195606 584.377114 
L 687.221436 583.36565 
L 688.247265 584.938516 
L 689.273095 584.668392 
L 690.298925 584.694641 
L 691.324754 584.551917 
L 692.350584 583.861607 
L 693.376413 585.426186 
L 694.402243 590.041643 
L 695.428072 585.754531 
L 696.453902 585.591819 
L 697.479732 586.007111 
L 698.505561 586.014572 
L 699.531391 586.348036 
L 700.55722 585.472898 
L 701.58305 585.899317 
L 702.608879 585.990381 
L 703.634709 585.958967 
L 704.660539 585.199433 
L 705.686368 586.394716 
L 706.712198 586.281887 
L 707.738027 593.541083 
L 708.763857 586.250337 
L 709.789687 586.696916 
L 710.815516 586.776522 
L 712.867175 586.068757 
L 713.893005 586.351082 
L 714.918834 586.4994 
L 715.944664 586.939052 
L 716.970494 587.155983 
L 717.996323 586.865374 
L 719.022153 586.722077 
L 720.047982 587.130117 
L 721.073812 589.166621 
L 722.099642 587.165096 
L 723.125471 587.391804 
L 724.151301 586.963692 
L 725.17713 587.545014 
L 726.20296 587.424838 
L 727.228789 591.645454 
L 728.254619 587.664835 
L 729.280449 587.540923 
L 730.306278 590.929357 
L 731.332108 587.365647 
L 732.357937 587.809486 
L 733.383767 588.118738 
L 734.409596 588.72929 
L 736.461256 587.972551 
L 737.487085 587.972175 
L 738.512915 587.444461 
L 739.538744 588.7315 
L 740.564574 588.69199 
L 741.590404 588.078137 
L 743.642063 588.698352 
L 744.667892 588.465907 
L 745.693722 588.727843 
L 746.719551 590.757919 
L 747.745381 589.141443 
L 748.771211 589.490094 
L 749.79704 590.621725 
L 751.848699 589.686059 
L 752.874529 590.912635 
L 753.900358 590.236597 
L 755.952018 589.497556 
L 756.977847 590.09006 
L 758.003677 589.998513 
L 759.029506 590.127991 
L 760.055336 594.519047 
L 761.081166 591.351989 
L 762.106995 590.69823 
L 763.132825 590.263449 
L 764.158654 591.332798 
L 765.184484 590.591322 
L 766.210313 590.685954 
L 767.236143 591.220878 
L 768.261973 590.507745 
L 769.287802 590.512238 
L 771.339461 590.177085 
L 772.365291 591.068297 
L 773.391121 596.316422 
L 774.41695 590.595108 
L 775.44278 590.906091 
L 776.468609 590.958036 
L 777.494439 590.614946 
L 779.546098 591.333382 
L 780.571928 591.138037 
L 781.597757 591.190176 
L 782.623587 590.790301 
L 783.649416 591.461732 
L 784.675246 591.140688 
L 785.701075 591.964475 
L 786.726905 593.505527 
L 787.752735 591.560296 
L 788.778564 591.461605 
L 789.804394 590.98235 
L 790.830223 590.803743 
L 791.856053 592.678513 
L 792.881883 595.005747 
L 793.907712 591.402682 
L 795.959371 591.700672 
L 796.985201 592.099703 
L 798.01103 592.271815 
L 799.03686 592.145098 
L 800.06269 592.646082 
L 801.088519 592.334549 
L 802.114349 592.310988 
L 803.140178 592.740423 
L 805.191837 592.198664 
L 806.217667 592.333234 
L 807.243497 598.106007 
L 808.269326 592.489508 
L 809.295156 592.504302 
L 810.320985 592.822841 
L 811.346815 592.21342 
L 812.372645 593.057776 
L 813.398474 594.178749 
L 814.424304 592.678933 
L 815.450133 592.279038 
L 816.475963 596.187387 
L 817.501792 593.006362 
L 818.527622 592.856507 
L 819.553452 592.234547 
L 820.579281 592.919032 
L 821.605111 593.186186 
L 822.63094 592.972554 
L 823.65677 593.620276 
L 824.6826 591.94637 
L 825.708429 597.405114 
L 826.734259 593.394583 
L 827.760088 593.292223 
L 828.785918 593.485808 
L 829.811747 593.138612 
L 830.837577 593.40577 
L 831.863407 593.026813 
L 832.889236 593.472045 
L 833.915066 593.528349 
L 834.940895 593.774536 
L 835.966725 593.484128 
L 836.992554 594.158863 
L 838.018384 593.946765 
L 839.044214 599.485725 
L 840.070043 593.64762 
L 841.095873 593.233182 
L 842.121702 592.996844 
L 843.147532 591.187425 
L 844.173362 591.502389 
L 845.199191 596.370071 
L 846.225021 595.690365 
L 847.25085 594.024436 
L 848.27668 593.239659 
L 849.302509 596.375251 
L 850.328339 592.829953 
L 851.354169 593.470043 
L 852.379998 595.19821 
L 853.405828 594.21329 
L 855.457487 593.757851 
L 857.509146 594.087244 
L 858.534976 597.878584 
L 859.560805 594.174774 
L 860.586635 596.7663 
L 861.612464 594.386012 
L 862.638294 593.610071 
L 863.664124 594.326632 
L 864.689953 594.026548 
L 865.715783 594.578779 
L 866.741612 593.910478 
L 867.767442 594.718133 
L 868.793271 594.316936 
L 869.819101 594.258543 
L 870.844931 595.101579 
L 871.87076 594.053987 
L 872.89659 594.912938 
L 873.922419 594.834586 
L 874.948249 594.607021 
L 875.974078 594.534537 
L 876.999908 594.653957 
L 879.051567 594.567968 
L 881.103226 594.906346 
L 883.154886 594.813967 
L 884.180715 595.231254 
L 885.206545 595.258131 
L 886.232374 594.738277 
L 887.258204 595.101082 
L 888.284033 595.589079 
L 889.309863 595.082301 
L 890.335693 595.233355 
L 891.361522 600.978832 
L 892.387352 595.496852 
L 893.413181 594.585459 
L 894.439011 595.865308 
L 895.464841 595.654746 
L 896.49067 595.281324 
L 897.5165 595.694216 
L 898.542329 595.151075 
L 899.568159 595.575949 
L 900.593988 595.821774 
L 901.619818 595.471936 
L 902.645648 595.578433 
L 903.671477 596.217083 
L 904.697307 601.70308 
L 905.723136 595.593385 
L 906.748966 596.069707 
L 907.774795 595.328841 
L 909.826455 596.450952 
L 910.852284 595.909023 
L 911.878114 596.039682 
L 912.903943 597.830252 
L 913.929773 595.802653 
L 914.955603 592.942822 
L 915.981432 596.085464 
L 917.007262 596.807008 
L 918.033091 597.896868 
L 919.058921 594.472392 
L 920.08475 596.968119 
L 921.11058 596.591857 
L 922.13641 596.814496 
L 923.162239 596.64007 
L 924.188069 597.837394 
L 925.213898 596.18801 
L 926.239728 597.163099 
L 927.265557 597.713593 
L 928.291387 597.242108 
L 930.343046 597.853023 
L 932.394705 597.783897 
L 933.420535 596.790549 
L 934.446365 594.777704 
L 935.472194 597.115058 
L 937.523853 595.536178 
L 938.549683 596.920217 
L 939.575512 598.090519 
L 940.601342 597.431101 
L 942.653001 597.331439 
L 943.678831 597.733999 
L 944.70466 596.082553 
L 945.73049 597.095372 
L 946.75632 597.575027 
L 947.782149 597.178223 
L 948.807979 597.842889 
L 949.833808 597.422567 
L 951.885467 597.242801 
L 952.911297 597.880577 
L 953.937127 597.473471 
L 954.962956 597.739256 
L 955.988786 597.491398 
L 957.014615 601.302351 
L 958.040445 597.911528 
L 959.066274 597.400709 
L 960.092104 598.715802 
L 962.143763 597.66638 
L 963.169593 597.680382 
L 964.195422 598.178349 
L 965.221252 598.28029 
L 967.272911 597.941789 
L 968.298741 597.350768 
L 969.32457 597.997242 
L 970.3504 601.766815 
L 971.376229 597.48044 
L 972.402059 597.787045 
L 973.427889 598.466225 
L 974.453718 599.707698 
L 975.479548 598.140254 
L 976.505377 598.123988 
L 977.531207 594.530746 
L 978.557036 598.022096 
L 979.582866 597.558887 
L 980.608696 599.825065 
L 981.634525 597.921381 
L 982.660355 597.96888 
L 983.686184 599.409679 
L 984.712014 598.30718 
L 985.737844 598.58673 
L 986.763673 597.796306 
L 987.789503 598.116463 
L 988.815332 598.250752 
L 989.841162 601.508824 
L 990.866991 598.137547 
L 993.94448 598.139542 
L 994.97031 598.743546 
L 995.996139 600.12719 
L 997.021969 598.706353 
L 998.047799 598.531234 
L 999.073628 598.942613 
L 1000.099458 598.265742 
L 1001.125287 599.073961 
L 1002.151117 599.200655 
L 1003.176946 598.95372 
L 1007.280265 598.98627 
L 1008.306094 597.678182 
L 1009.331924 597.769338 
L 1010.357753 599.034972 
L 1011.383583 597.472816 
L 1012.409413 597.597701 
L 1013.435242 601.923906 
L 1014.461072 598.302923 
L 1015.486901 591.090028 
L 1016.512731 598.316525 
L 1017.538561 598.422059 
L 1018.56439 598.937977 
L 1019.59022 598.457712 
L 1020.616049 598.530215 
L 1021.641879 598.104441 
L 1022.667708 602.402714 
L 1023.693538 599.328986 
L 1024.719368 599.385668 
L 1025.745197 598.930168 
L 1026.771027 599.591227 
L 1027.796856 599.003099 
L 1028.822686 598.742807 
L 1029.848515 598.929775 
L 1030.874345 599.827763 
L 1031.900175 599.232374 
L 1032.926004 598.832515 
L 1033.951834 599.677815 
L 1034.977663 599.012189 
L 1036.003493 604.202207 
L 1037.029323 599.082262 
L 1038.055152 599.868646 
L 1039.080982 599.278548 
L 1042.15847 599.792026 
L 1043.1843 599.423661 
L 1044.21013 599.998703 
L 1045.235959 599.989633 
L 1046.261789 599.693976 
L 1047.287618 598.827269 
L 1048.313448 600.144236 
L 1049.339278 600.880267 
L 1050.365107 600.040786 
L 1051.390937 600.158045 
L 1052.416766 600.086163 
L 1054.468425 599.433818 
L 1055.494255 602.284057 
L 1056.520085 599.889831 
L 1057.545914 598.850996 
L 1058.571744 599.329092 
L 1060.623403 600.978518 
L 1061.649232 601.295164 
L 1062.675062 603.729429 
L 1063.700892 602.103545 
L 1064.726721 602.154101 
L 1065.752551 602.356704 
L 1066.77838 600.578543 
L 1067.80421 602.396007 
L 1068.83004 602.348992 
L 1069.855869 602.482536 
L 1070.881699 600.955269 
L 1071.907528 602.377801 
L 1072.933358 602.409841 
L 1073.959187 601.34355 
L 1074.985017 602.865987 
L 1076.010847 602.709706 
L 1077.036676 602.667262 
L 1078.062506 602.827473 
L 1079.088335 607.006595 
L 1080.114165 602.324276 
L 1082.165824 602.723314 
L 1083.191654 602.478001 
L 1084.217483 602.444368 
L 1085.243313 602.781128 
L 1086.269142 602.26377 
L 1087.294972 602.445241 
L 1088.320802 606.03032 
L 1089.346631 602.757791 
L 1090.372461 602.578009 
L 1091.39829 602.775758 
L 1093.449949 602.504665 
L 1094.475779 602.916893 
L 1095.501609 603.147181 
L 1097.553268 602.910526 
L 1098.579097 602.836076 
L 1099.604927 603.123749 
L 1100.630757 603.982558 
L 1101.656586 607.010364 
L 1102.682416 601.680473 
L 1103.708245 602.835144 
L 1104.734075 601.648995 
L 1105.759904 604.358567 
L 1106.785734 602.658101 
L 1107.811564 602.785838 
L 1108.837393 603.222663 
L 1109.863223 603.13424 
L 1110.889052 602.634128 
L 1111.914882 602.992423 
L 1112.940711 602.727555 
L 1113.966541 602.926529 
L 1114.992371 603.770423 
L 1117.04403 603.254494 
L 1118.069859 603.464255 
L 1119.095689 603.157744 
L 1120.121519 603.216273 
L 1121.147348 609.282224 
L 1122.173178 603.229252 
L 1124.224837 603.090515 
L 1125.250666 603.475008 
L 1126.276496 603.352644 
L 1127.302326 603.368481 
L 1128.328155 603.496995 
L 1129.353985 603.092188 
L 1130.379814 603.28612 
L 1131.405644 603.724424 
L 1132.431473 603.526761 
L 1134.483133 603.341826 
L 1135.508962 608.124094 
L 1136.534792 603.741996 
L 1137.560621 603.116254 
L 1138.586451 603.625793 
L 1139.612281 602.82687 
L 1140.63811 603.827673 
L 1141.66394 603.41634 
L 1142.689769 603.509277 
L 1143.715599 600.560781 
L 1144.741428 599.275999 
L 1145.767258 603.880953 
L 1147.818917 602.883145 
L 1148.844747 604.997312 
L 1149.870576 603.635776 
L 1150.896406 603.644814 
L 1152.948065 604.060285 
L 1153.973895 609.600688 
L 1154.999724 602.893367 
L 1156.025554 603.736472 
L 1157.051383 603.921196 
L 1158.077213 603.778478 
L 1159.103043 603.903823 
L 1160.128872 604.179419 
L 1161.154702 604.078418 
L 1162.180531 603.784151 
L 1163.206361 603.75639 
L 1164.23219 607.499497 
L 1165.25802 603.760096 
L 1166.28385 604.030176 
L 1167.309679 608.051962 
L 1168.335509 603.211753 
L 1169.361338 604.037366 
L 1170.387168 603.721037 
L 1171.412998 604.011689 
L 1172.438827 603.746265 
L 1173.464657 604.182795 
L 1174.490486 602.438931 
L 1175.516316 603.058936 
L 1176.542145 602.947939 
L 1177.567975 602.684299 
L 1178.593805 603.443163 
L 1179.619634 613.188271 
L 1180.645464 605.128842 
L 1181.671293 604.048759 
L 1182.697123 603.784001 
L 1183.722952 603.741583 
L 1184.748782 604.059487 
L 1185.774612 604.028226 
L 1186.800441 606.095636 
L 1187.826271 608.774996 
L 1188.8521 603.771962 
L 1189.87793 604.317905 
L 1190.90376 609.804575 
L 1191.929589 603.495589 
L 1192.955419 607.651752 
L 1193.981248 604.138364 
L 1195.007078 603.616004 
L 1196.032907 605.720561 
L 1197.058737 604.118705 
L 1198.084567 605.453431 
L 1199.110396 604.269416 
L 1200.136226 604.232294 
L 1201.162055 605.249941 
L 1202.187885 604.531736 
L 1203.213714 604.387478 
L 1204.239544 603.951882 
L 1205.265374 604.677618 
L 1206.291203 604.770546 
L 1208.342862 604.537758 
L 1209.368692 601.429586 
L 1210.394522 603.094134 
L 1211.420351 604.14781 
L 1212.446181 603.629882 
L 1213.47201 615.6 
L 1214.49784 605.879523 
L 1215.523669 604.47869 
L 1216.549499 604.571021 
L 1217.575329 606.05666 
L 1218.601158 604.565585 
L 1219.626988 607.971432 
L 1220.652817 604.808727 
L 1221.678647 604.637056 
L 1222.704477 604.595018 
L 1223.730306 604.322359 
L 1224.756136 605.751429 
L 1225.781965 602.998329 
L 1226.807795 604.830468 
L 1227.833624 603.957597 
L 1228.859454 604.081724 
L 1229.885284 604.816598 
L 1230.911113 605.691694 
L 1231.936943 605.007667 
L 1232.962772 609.669158 
L 1233.988602 604.51842 
L 1235.014431 604.690913 
L 1236.040261 605.064864 
L 1237.066091 605.186121 
L 1238.09192 605.645561 
L 1239.11775 604.721391 
L 1240.143579 604.67546 
L 1241.169409 605.077136 
L 1242.195239 604.005241 
L 1243.221068 605.337592 
L 1244.246898 605.111131 
L 1245.272727 604.737805 
L 1245.272727 604.737805 
" style="fill:none;stroke:#ff7f0e;stroke-linecap:square;stroke-width:1.5;"/>
   </g>
   <g id="patch_3">
    <path d="M 180 640.8 
L 180 86.4 
" style="fill:none;stroke:#000000;stroke-linecap:square;stroke-linejoin:miter;stroke-width:0.8;"/>
   </g>
   <g id="patch_4">
    <path d="M 1296 640.8 
L 1296 86.4 
" style="fill:none;stroke:#000000;stroke-linecap:square;stroke-linejoin:miter;stroke-width:0.8;"/>
   </g>
   <g id="patch_5">
    <path d="M 180 640.8 
L 1296 640.8 
" style="fill:none;stroke:#000000;stroke-linecap:square;stroke-linejoin:miter;stroke-width:0.8;"/>
   </g>
   <g id="patch_6">
    <path d="M 180 86.4 
L 1296 86.4 
" style="fill:none;stroke:#000000;stroke-linecap:square;stroke-linejoin:miter;stroke-width:0.8;"/>
   </g>
   <g id="text_20">
    <!-- Stochastic Oscillator Speedup -->
    <defs>
     <path d="M 53.515625 70.515625 
L 53.515625 60.890625 
Q 47.90625 63.578125 42.921875 64.890625 
Q 37.9375 66.21875 33.296875 66.21875 
Q 25.25 66.21875 20.875 63.09375 
Q 16.5 59.96875 16.5 54.203125 
Q 16.5 49.359375 19.40625 46.890625 
Q 22.3125 44.4375 30.421875 42.921875 
L 36.375 41.703125 
Q 47.40625 39.59375 52.65625 34.296875 
Q 57.90625 29 57.90625 20.125 
Q 57.90625 9.515625 50.796875 4.046875 
Q 43.703125 -1.421875 29.984375 -1.421875 
Q 24.8125 -1.421875 18.96875 -0.25 
Q 13.140625 0.921875 6.890625 3.21875 
L 6.890625 13.375 
Q 12.890625 10.015625 18.65625 8.296875 
Q 24.421875 6.59375 29.984375 6.59375 
Q 38.421875 6.59375 43.015625 9.90625 
Q 47.609375 13.234375 47.609375 19.390625 
Q 47.609375 24.75 44.3125 27.78125 
Q 41.015625 30.8125 33.5 32.328125 
L 27.484375 33.5 
Q 16.453125 35.6875 11.515625 40.375 
Q 6.59375 45.0625 6.59375 53.421875 
Q 6.59375 63.09375 13.40625 68.65625 
Q 20.21875 74.21875 32.171875 74.21875 
Q 37.3125 74.21875 42.625 73.28125 
Q 47.953125 72.359375 53.515625 70.515625 
z
" id="DejaVuSans-83"/>
     <path d="M 18.3125 70.21875 
L 18.3125 54.6875 
L 36.8125 54.6875 
L 36.8125 47.703125 
L 18.3125 47.703125 
L 18.3125 18.015625 
Q 18.3125 11.328125 20.140625 9.421875 
Q 21.96875 7.515625 27.59375 7.515625 
L 36.8125 7.515625 
L 36.8125 0 
L 27.59375 0 
Q 17.1875 0 13.234375 3.875 
Q 9.28125 7.765625 9.28125 18.015625 
L 9.28125 47.703125 
L 2.6875 47.703125 
L 2.6875 54.6875 
L 9.28125 54.6875 
L 9.28125 70.21875 
z
" id="DejaVuSans-116"/>
     <path d="M 30.609375 48.390625 
Q 23.390625 48.390625 19.1875 42.75 
Q 14.984375 37.109375 14.984375 27.296875 
Q 14.984375 17.484375 19.15625 11.84375 
Q 23.34375 6.203125 30.609375 6.203125 
Q 37.796875 6.203125 41.984375 11.859375 
Q 46.1875 17.53125 46.1875 27.296875 
Q 46.1875 37.015625 41.984375 42.703125 
Q 37.796875 48.390625 30.609375 48.390625 
z
M 30.609375 56 
Q 42.328125 56 49.015625 48.375 
Q 55.71875 40.765625 55.71875 27.296875 
Q 55.71875 13.875 49.015625 6.21875 
Q 42.328125 -1.421875 30.609375 -1.421875 
Q 18.84375 -1.421875 12.171875 6.21875 
Q 5.515625 13.875 5.515625 27.296875 
Q 5.515625 40.765625 12.171875 48.375 
Q 18.84375 56 30.609375 56 
z
" id="DejaVuSans-111"/>
     <path d="M 48.78125 52.59375 
L 48.78125 44.1875 
Q 44.96875 46.296875 41.140625 47.34375 
Q 37.3125 48.390625 33.40625 48.390625 
Q 24.65625 48.390625 19.8125 42.84375 
Q 14.984375 37.3125 14.984375 27.296875 
Q 14.984375 17.28125 19.8125 11.734375 
Q 24.65625 6.203125 33.40625 6.203125 
Q 37.3125 6.203125 41.140625 7.25 
Q 44.96875 8.296875 48.78125 10.40625 
L 48.78125 2.09375 
Q 45.015625 0.34375 40.984375 -0.53125 
Q 36.96875 -1.421875 32.421875 -1.421875 
Q 20.0625 -1.421875 12.78125 6.34375 
Q 5.515625 14.109375 5.515625 27.296875 
Q 5.515625 40.671875 12.859375 48.328125 
Q 20.21875 56 33.015625 56 
Q 37.15625 56 41.109375 55.140625 
Q 45.0625 54.296875 48.78125 52.59375 
z
" id="DejaVuSans-99"/>
     <path d="M 54.890625 33.015625 
L 54.890625 0 
L 45.90625 0 
L 45.90625 32.71875 
Q 45.90625 40.484375 42.875 44.328125 
Q 39.84375 48.1875 33.796875 48.1875 
Q 26.515625 48.1875 22.3125 43.546875 
Q 18.109375 38.921875 18.109375 30.90625 
L 18.109375 0 
L 9.078125 0 
L 9.078125 75.984375 
L 18.109375 75.984375 
L 18.109375 46.1875 
Q 21.34375 51.125 25.703125 53.5625 
Q 30.078125 56 35.796875 56 
Q 45.21875 56 50.046875 50.171875 
Q 54.890625 44.34375 54.890625 33.015625 
z
" id="DejaVuSans-104"/>
     <path d="M 34.28125 27.484375 
Q 23.390625 27.484375 19.1875 25 
Q 14.984375 22.515625 14.984375 16.5 
Q 14.984375 11.71875 18.140625 8.90625 
Q 21.296875 6.109375 26.703125 6.109375 
Q 34.1875 6.109375 38.703125 11.40625 
Q 43.21875 16.703125 43.21875 25.484375 
L 43.21875 27.484375 
z
M 52.203125 31.203125 
L 52.203125 0 
L 43.21875 0 
L 43.21875 8.296875 
Q 40.140625 3.328125 35.546875 0.953125 
Q 30.953125 -1.421875 24.3125 -1.421875 
Q 15.921875 -1.421875 10.953125 3.296875 
Q 6 8.015625 6 15.921875 
Q 6 25.140625 12.171875 29.828125 
Q 18.359375 34.515625 30.609375 34.515625 
L 43.21875 34.515625 
L 43.21875 35.40625 
Q 43.21875 41.609375 39.140625 45 
Q 35.0625 48.390625 27.6875 48.390625 
Q 23 48.390625 18.546875 47.265625 
Q 14.109375 46.140625 10.015625 43.890625 
L 10.015625 52.203125 
Q 14.9375 54.109375 19.578125 55.046875 
Q 24.21875 56 28.609375 56 
Q 40.484375 56 46.34375 49.84375 
Q 52.203125 43.703125 52.203125 31.203125 
z
" id="DejaVuSans-97"/>
     <path d="M 9.421875 54.6875 
L 18.40625 54.6875 
L 18.40625 0 
L 9.421875 0 
z
M 9.421875 75.984375 
L 18.40625 75.984375 
L 18.40625 64.59375 
L 9.421875 64.59375 
z
" id="DejaVuSans-105"/>
     <path id="DejaVuSans-32"/>
     <path d="M 39.40625 66.21875 
Q 28.65625 66.21875 22.328125 58.203125 
Q 16.015625 50.203125 16.015625 36.375 
Q 16.015625 22.609375 22.328125 14.59375 
Q 28.65625 6.59375 39.40625 6.59375 
Q 50.140625 6.59375 56.421875 14.59375 
Q 62.703125 22.609375 62.703125 36.375 
Q 62.703125 50.203125 56.421875 58.203125 
Q 50.140625 66.21875 39.40625 66.21875 
z
M 39.40625 74.21875 
Q 54.734375 74.21875 63.90625 63.9375 
Q 73.09375 53.65625 73.09375 36.375 
Q 73.09375 19.140625 63.90625 8.859375 
Q 54.734375 -1.421875 39.40625 -1.421875 
Q 24.03125 -1.421875 14.8125 8.828125 
Q 5.609375 19.09375 5.609375 36.375 
Q 5.609375 53.65625 14.8125 63.9375 
Q 24.03125 74.21875 39.40625 74.21875 
z
" id="DejaVuSans-79"/>
     <path d="M 9.421875 75.984375 
L 18.40625 75.984375 
L 18.40625 0 
L 9.421875 0 
z
" id="DejaVuSans-108"/>
     <path d="M 41.109375 46.296875 
Q 39.59375 47.171875 37.8125 47.578125 
Q 36.03125 48 33.890625 48 
Q 26.265625 48 22.1875 43.046875 
Q 18.109375 38.09375 18.109375 28.8125 
L 18.109375 0 
L 9.078125 0 
L 9.078125 54.6875 
L 18.109375 54.6875 
L 18.109375 46.1875 
Q 20.953125 51.171875 25.484375 53.578125 
Q 30.03125 56 36.53125 56 
Q 37.453125 56 38.578125 55.875 
Q 39.703125 55.765625 41.0625 55.515625 
z
" id="DejaVuSans-114"/>
    </defs>
    <g transform="translate(648.39375 80.4)scale(0.12 -0.12)">
     <use xlink:href="#DejaVuSans-83"/>
     <use x="63.476562" xlink:href="#DejaVuSans-116"/>
     <use x="102.685547" xlink:href="#DejaVuSans-111"/>
     <use x="163.867188" xlink:href="#DejaVuSans-99"/>
     <use x="218.847656" xlink:href="#DejaVuSans-104"/>
     <use x="282.226562" xlink:href="#DejaVuSans-97"/>
     <use x="343.505859" xlink:href="#DejaVuSans-115"/>
     <use x="395.605469" xlink:href="#DejaVuSans-116"/>
     <use x="434.814453" xlink:href="#DejaVuSans-105"/>
     <use x="462.597656" xlink:href="#DejaVuSans-99"/>
     <use x="517.578125" xlink:href="#DejaVuSans-32"/>
     <use x="549.365234" xlink:href="#DejaVuSans-79"/>
     <use x="628.076172" xlink:href="#DejaVuSans-115"/>
     <use x="680.175781" xlink:href="#DejaVuSans-99"/>
     <use x="735.15625" xlink:href="#DejaVuSans-105"/>
     <use x="762.939453" xlink:href="#DejaVuSans-108"/>
     <use x="790.722656" xlink:href="#DejaVuSans-108"/>
     <use x="818.505859" xlink:href="#DejaVuSans-97"/>
     <use x="879.785156" xlink:href="#DejaVuSans-116"/>
     <use x="918.994141" xlink:href="#DejaVuSans-111"/>
     <use x="980.175781" xlink:href="#DejaVuSans-114"/>
     <use x="1021.289062" xlink:href="#DejaVuSans-32"/>
     <use x="1053.076172" xlink:href="#DejaVuSans-83"/>
     <use x="1116.552734" xlink:href="#DejaVuSans-112"/>
     <use x="1180.029297" xlink:href="#DejaVuSans-101"/>
     <use x="1241.552734" xlink:href="#DejaVuSans-101"/>
     <use x="1303.076172" xlink:href="#DejaVuSans-100"/>
     <use x="1366.552734" xlink:href="#DejaVuSans-117"/>
     <use x="1429.931641" xlink:href="#DejaVuSans-112"/>
    </g>
   </g>
   <g id="legend_1">
    <g id="patch_7">
     <path d="M 1185.373437 123.75625 
L 1289 123.75625 
Q 1291 123.75625 1291 121.75625 
L 1291 93.4 
Q 1291 91.4 1289 91.4 
L 1185.373437 91.4 
Q 1183.373437 91.4 1183.373437 93.4 
L 1183.373437 121.75625 
Q 1183.373437 123.75625 1185.373437 123.75625 
z
" style="fill:#ffffff;opacity:0.8;stroke:#cccccc;stroke-linejoin:miter;"/>
    </g>
    <g id="line2d_20">
     <path d="M 1187.373437 99.498437 
L 1207.373437 99.498437 
" style="fill:none;stroke:#1f77b4;stroke-linecap:square;stroke-width:1.5;"/>
    </g>
    <g id="line2d_21"/>
    <g id="text_21">
     <!-- numpy.float32 -->
     <defs>
      <path d="M 52 44.1875 
Q 55.375 50.25 60.0625 53.125 
Q 64.75 56 71.09375 56 
Q 79.640625 56 84.28125 50.015625 
Q 88.921875 44.046875 88.921875 33.015625 
L 88.921875 0 
L 79.890625 0 
L 79.890625 32.71875 
Q 79.890625 40.578125 77.09375 44.375 
Q 74.3125 48.1875 68.609375 48.1875 
Q 61.625 48.1875 57.5625 43.546875 
Q 53.515625 38.921875 53.515625 30.90625 
L 53.515625 0 
L 44.484375 0 
L 44.484375 32.71875 
Q 44.484375 40.625 41.703125 44.40625 
Q 38.921875 48.1875 33.109375 48.1875 
Q 26.21875 48.1875 22.15625 43.53125 
Q 18.109375 38.875 18.109375 30.90625 
L 18.109375 0 
L 9.078125 0 
L 9.078125 54.6875 
L 18.109375 54.6875 
L 18.109375 46.1875 
Q 21.1875 51.21875 25.484375 53.609375 
Q 29.78125 56 35.6875 56 
Q 41.65625 56 45.828125 52.96875 
Q 50 49.953125 52 44.1875 
z
" id="DejaVuSans-109"/>
      <path d="M 32.171875 -5.078125 
Q 28.375 -14.84375 24.75 -17.8125 
Q 21.140625 -20.796875 15.09375 -20.796875 
L 7.90625 -20.796875 
L 7.90625 -13.28125 
L 13.1875 -13.28125 
Q 16.890625 -13.28125 18.9375 -11.515625 
Q 21 -9.765625 23.484375 -3.21875 
L 25.09375 0.875 
L 2.984375 54.6875 
L 12.5 54.6875 
L 29.59375 11.921875 
L 46.6875 54.6875 
L 56.203125 54.6875 
z
" id="DejaVuSans-121"/>
      <path d="M 37.109375 75.984375 
L 37.109375 68.5 
L 28.515625 68.5 
Q 23.6875 68.5 21.796875 66.546875 
Q 19.921875 64.59375 19.921875 59.515625 
L 19.921875 54.6875 
L 34.71875 54.6875 
L 34.71875 47.703125 
L 19.921875 47.703125 
L 19.921875 0 
L 10.890625 0 
L 10.890625 47.703125 
L 2.296875 47.703125 
L 2.296875 54.6875 
L 10.890625 54.6875 
L 10.890625 58.5 
Q 10.890625 67.625 15.140625 71.796875 
Q 19.390625 75.984375 28.609375 75.984375 
z
" id="DejaVuSans-102"/>
     </defs>
     <g transform="translate(1215.373437 102.998437)scale(0.1 -0.1)">
      <use xlink:href="#DejaVuSans-110"/>
      <use x="63.378906" xlink:href="#DejaVuSans-117"/>
      <use x="126.757812" xlink:href="#DejaVuSans-109"/>
      <use x="224.169922" xlink:href="#DejaVuSans-112"/>
      <use x="287.646484" xlink:href="#DejaVuSans-121"/>
      <use x="332.576172" xlink:href="#DejaVuSans-46"/>
      <use x="364.363281" xlink:href="#DejaVuSans-102"/>
      <use x="399.568359" xlink:href="#DejaVuSans-108"/>
      <use x="427.351562" xlink:href="#DejaVuSans-111"/>
      <use x="488.533203" xlink:href="#DejaVuSans-97"/>
      <use x="549.8125" xlink:href="#DejaVuSans-116"/>
      <use x="589.021484" xlink:href="#DejaVuSans-51"/>
      <use x="652.644531" xlink:href="#DejaVuSans-50"/>
     </g>
    </g>
    <g id="line2d_22">
     <path d="M 1187.373437 114.176562 
L 1207.373437 114.176562 
" style="fill:none;stroke:#ff7f0e;stroke-linecap:square;stroke-width:1.5;"/>
    </g>
    <g id="line2d_23"/>
    <g id="text_22">
     <!-- numpy.float64 -->
     <g transform="translate(1215.373437 117.676562)scale(0.1 -0.1)">
      <use xlink:href="#DejaVuSans-110"/>
      <use x="63.378906" xlink:href="#DejaVuSans-117"/>
      <use x="126.757812" xlink:href="#DejaVuSans-109"/>
      <use x="224.169922" xlink:href="#DejaVuSans-112"/>
      <use x="287.646484" xlink:href="#DejaVuSans-121"/>
      <use x="332.576172" xlink:href="#DejaVuSans-46"/>
      <use x="364.363281" xlink:href="#DejaVuSans-102"/>
      <use x="399.568359" xlink:href="#DejaVuSans-108"/>
      <use x="427.351562" xlink:href="#DejaVuSans-111"/>
      <use x="488.533203" xlink:href="#DejaVuSans-97"/>
      <use x="549.8125" xlink:href="#DejaVuSans-116"/>
      <use x="589.021484" xlink:href="#DejaVuSans-54"/>
      <use x="652.644531" xlink:href="#DejaVuSans-52"/>
     </g>
    </g>
   </g>
  </g>
 </g>
 <defs>
  <clipPath id="pdb40e6923c">
   <rect height="554.4" width="1116" x="180" y="86.4"/>
  </clipPath>
 </defs>
</svg>
