<?xml version="1.0" encoding="utf-8" standalone="no"?>
<!DOCTYPE svg PUBLIC "-//W3C//DTD SVG 1.1//EN"
  "http://www.w3.org/Graphics/SVG/1.1/DTD/svg11.dtd">
<!-- Created with matplotlib (https://matplotlib.org/) -->
<svg height="720pt" version="1.1" viewBox="0 0 1440 720" width="1440pt" xmlns="http://www.w3.org/2000/svg" xmlns:xlink="http://www.w3.org/1999/xlink">
 <defs>
  <style type="text/css">
*{stroke-linecap:butt;stroke-linejoin:round;}
  </style>
 </defs>
 <g id="figure_1">
  <g id="patch_1">
   <path d="M 0 720 
L 1440 720 
L 1440 0 
L 0 0 
z
" style="fill:#ffffff;"/>
  </g>
  <g id="axes_1">
   <g id="patch_2">
    <path d="M 180 640.8 
L 1296 640.8 
L 1296 86.4 
L 180 86.4 
z
" style="fill:#ffffff;"/>
   </g>
   <g id="matplotlib.axis_1">
    <g id="xtick_1">
     <g id="line2d_1">
      <defs>
       <path d="M 0 0 
L 0 3.5 
" id="m0d00b2ce22" style="stroke:#000000;stroke-width:0.8;"/>
      </defs>
      <g>
       <use style="stroke:#000000;stroke-width:0.8;" x="333.310231" xlink:href="#m0d00b2ce22" y="640.8"/>
      </g>
     </g>
     <g id="text_1">
      <!-- 100.0 -->
      <defs>
       <path d="M 12.40625 8.296875 
L 28.515625 8.296875 
L 28.515625 63.921875 
L 10.984375 60.40625 
L 10.984375 69.390625 
L 28.421875 72.90625 
L 38.28125 72.90625 
L 38.28125 8.296875 
L 54.390625 8.296875 
L 54.390625 0 
L 12.40625 0 
z
" id="DejaVuSans-49"/>
       <path d="M 31.78125 66.40625 
Q 24.171875 66.40625 20.328125 58.90625 
Q 16.5 51.421875 16.5 36.375 
Q 16.5 21.390625 20.328125 13.890625 
Q 24.171875 6.390625 31.78125 6.390625 
Q 39.453125 6.390625 43.28125 13.890625 
Q 47.125 21.390625 47.125 36.375 
Q 47.125 51.421875 43.28125 58.90625 
Q 39.453125 66.40625 31.78125 66.40625 
z
M 31.78125 74.21875 
Q 44.046875 74.21875 50.515625 64.515625 
Q 56.984375 54.828125 56.984375 36.375 
Q 56.984375 17.96875 50.515625 8.265625 
Q 44.046875 -1.421875 31.78125 -1.421875 
Q 19.53125 -1.421875 13.0625 8.265625 
Q 6.59375 17.96875 6.59375 36.375 
Q 6.59375 54.828125 13.0625 64.515625 
Q 19.53125 74.21875 31.78125 74.21875 
z
" id="DejaVuSans-48"/>
       <path d="M 10.6875 12.40625 
L 21 12.40625 
L 21 0 
L 10.6875 0 
z
" id="DejaVuSans-46"/>
      </defs>
      <g transform="translate(318.996168 655.398438)scale(0.1 -0.1)">
       <use xlink:href="#DejaVuSans-49"/>
       <use x="63.623047" xlink:href="#DejaVuSans-48"/>
       <use x="127.246094" xlink:href="#DejaVuSans-48"/>
       <use x="190.869141" xlink:href="#DejaVuSans-46"/>
       <use x="222.65625" xlink:href="#DejaVuSans-48"/>
      </g>
     </g>
    </g>
    <g id="xtick_2">
     <g id="line2d_2">
      <g>
       <use style="stroke:#000000;stroke-width:0.8;" x="435.893189" xlink:href="#m0d00b2ce22" y="640.8"/>
      </g>
     </g>
     <g id="text_2">
      <!-- 200.0 -->
      <defs>
       <path d="M 19.1875 8.296875 
L 53.609375 8.296875 
L 53.609375 0 
L 7.328125 0 
L 7.328125 8.296875 
Q 12.9375 14.109375 22.625 23.890625 
Q 32.328125 33.6875 34.8125 36.53125 
Q 39.546875 41.84375 41.421875 45.53125 
Q 43.3125 49.21875 43.3125 52.78125 
Q 43.3125 58.59375 39.234375 62.25 
Q 35.15625 65.921875 28.609375 65.921875 
Q 23.96875 65.921875 18.8125 64.3125 
Q 13.671875 62.703125 7.8125 59.421875 
L 7.8125 69.390625 
Q 13.765625 71.78125 18.9375 73 
Q 24.125 74.21875 28.421875 74.21875 
Q 39.75 74.21875 46.484375 68.546875 
Q 53.21875 62.890625 53.21875 53.421875 
Q 53.21875 48.921875 51.53125 44.890625 
Q 49.859375 40.875 45.40625 35.40625 
Q 44.1875 33.984375 37.640625 27.21875 
Q 31.109375 20.453125 19.1875 8.296875 
z
" id="DejaVuSans-50"/>
      </defs>
      <g transform="translate(421.579126 655.398438)scale(0.1 -0.1)">
       <use xlink:href="#DejaVuSans-50"/>
       <use x="63.623047" xlink:href="#DejaVuSans-48"/>
       <use x="127.246094" xlink:href="#DejaVuSans-48"/>
       <use x="190.869141" xlink:href="#DejaVuSans-46"/>
       <use x="222.65625" xlink:href="#DejaVuSans-48"/>
      </g>
     </g>
    </g>
    <g id="xtick_3">
     <g id="line2d_3">
      <g>
       <use style="stroke:#000000;stroke-width:0.8;" x="538.476147" xlink:href="#m0d00b2ce22" y="640.8"/>
      </g>
     </g>
     <g id="text_3">
      <!-- 300.0 -->
      <defs>
       <path d="M 40.578125 39.3125 
Q 47.65625 37.796875 51.625 33 
Q 55.609375 28.21875 55.609375 21.1875 
Q 55.609375 10.40625 48.1875 4.484375 
Q 40.765625 -1.421875 27.09375 -1.421875 
Q 22.515625 -1.421875 17.65625 -0.515625 
Q 12.796875 0.390625 7.625 2.203125 
L 7.625 11.71875 
Q 11.71875 9.328125 16.59375 8.109375 
Q 21.484375 6.890625 26.8125 6.890625 
Q 36.078125 6.890625 40.9375 10.546875 
Q 45.796875 14.203125 45.796875 21.1875 
Q 45.796875 27.640625 41.28125 31.265625 
Q 36.765625 34.90625 28.71875 34.90625 
L 20.21875 34.90625 
L 20.21875 43.015625 
L 29.109375 43.015625 
Q 36.375 43.015625 40.234375 45.921875 
Q 44.09375 48.828125 44.09375 54.296875 
Q 44.09375 59.90625 40.109375 62.90625 
Q 36.140625 65.921875 28.71875 65.921875 
Q 24.65625 65.921875 20.015625 65.03125 
Q 15.375 64.15625 9.8125 62.3125 
L 9.8125 71.09375 
Q 15.4375 72.65625 20.34375 73.4375 
Q 25.25 74.21875 29.59375 74.21875 
Q 40.828125 74.21875 47.359375 69.109375 
Q 53.90625 64.015625 53.90625 55.328125 
Q 53.90625 49.265625 50.4375 45.09375 
Q 46.96875 40.921875 40.578125 39.3125 
z
" id="DejaVuSans-51"/>
      </defs>
      <g transform="translate(524.162084 655.398438)scale(0.1 -0.1)">
       <use xlink:href="#DejaVuSans-51"/>
       <use x="63.623047" xlink:href="#DejaVuSans-48"/>
       <use x="127.246094" xlink:href="#DejaVuSans-48"/>
       <use x="190.869141" xlink:href="#DejaVuSans-46"/>
       <use x="222.65625" xlink:href="#DejaVuSans-48"/>
      </g>
     </g>
    </g>
    <g id="xtick_4">
     <g id="line2d_4">
      <g>
       <use style="stroke:#000000;stroke-width:0.8;" x="641.059105" xlink:href="#m0d00b2ce22" y="640.8"/>
      </g>
     </g>
     <g id="text_4">
      <!-- 400.0 -->
      <defs>
       <path d="M 37.796875 64.3125 
L 12.890625 25.390625 
L 37.796875 25.390625 
z
M 35.203125 72.90625 
L 47.609375 72.90625 
L 47.609375 25.390625 
L 58.015625 25.390625 
L 58.015625 17.1875 
L 47.609375 17.1875 
L 47.609375 0 
L 37.796875 0 
L 37.796875 17.1875 
L 4.890625 17.1875 
L 4.890625 26.703125 
z
" id="DejaVuSans-52"/>
      </defs>
      <g transform="translate(626.745042 655.398438)scale(0.1 -0.1)">
       <use xlink:href="#DejaVuSans-52"/>
       <use x="63.623047" xlink:href="#DejaVuSans-48"/>
       <use x="127.246094" xlink:href="#DejaVuSans-48"/>
       <use x="190.869141" xlink:href="#DejaVuSans-46"/>
       <use x="222.65625" xlink:href="#DejaVuSans-48"/>
      </g>
     </g>
    </g>
    <g id="xtick_5">
     <g id="line2d_5">
      <g>
       <use style="stroke:#000000;stroke-width:0.8;" x="743.642063" xlink:href="#m0d00b2ce22" y="640.8"/>
      </g>
     </g>
     <g id="text_5">
      <!-- 500.0 -->
      <defs>
       <path d="M 10.796875 72.90625 
L 49.515625 72.90625 
L 49.515625 64.59375 
L 19.828125 64.59375 
L 19.828125 46.734375 
Q 21.96875 47.46875 24.109375 47.828125 
Q 26.265625 48.1875 28.421875 48.1875 
Q 40.625 48.1875 47.75 41.5 
Q 54.890625 34.8125 54.890625 23.390625 
Q 54.890625 11.625 47.5625 5.09375 
Q 40.234375 -1.421875 26.90625 -1.421875 
Q 22.3125 -1.421875 17.546875 -0.640625 
Q 12.796875 0.140625 7.71875 1.703125 
L 7.71875 11.625 
Q 12.109375 9.234375 16.796875 8.0625 
Q 21.484375 6.890625 26.703125 6.890625 
Q 35.15625 6.890625 40.078125 11.328125 
Q 45.015625 15.765625 45.015625 23.390625 
Q 45.015625 31 40.078125 35.4375 
Q 35.15625 39.890625 26.703125 39.890625 
Q 22.75 39.890625 18.8125 39.015625 
Q 14.890625 38.140625 10.796875 36.28125 
z
" id="DejaVuSans-53"/>
      </defs>
      <g transform="translate(729.328 655.398438)scale(0.1 -0.1)">
       <use xlink:href="#DejaVuSans-53"/>
       <use x="63.623047" xlink:href="#DejaVuSans-48"/>
       <use x="127.246094" xlink:href="#DejaVuSans-48"/>
       <use x="190.869141" xlink:href="#DejaVuSans-46"/>
       <use x="222.65625" xlink:href="#DejaVuSans-48"/>
      </g>
     </g>
    </g>
    <g id="xtick_6">
     <g id="line2d_6">
      <g>
       <use style="stroke:#000000;stroke-width:0.8;" x="846.225021" xlink:href="#m0d00b2ce22" y="640.8"/>
      </g>
     </g>
     <g id="text_6">
      <!-- 600.0 -->
      <defs>
       <path d="M 33.015625 40.375 
Q 26.375 40.375 22.484375 35.828125 
Q 18.609375 31.296875 18.609375 23.390625 
Q 18.609375 15.53125 22.484375 10.953125 
Q 26.375 6.390625 33.015625 6.390625 
Q 39.65625 6.390625 43.53125 10.953125 
Q 47.40625 15.53125 47.40625 23.390625 
Q 47.40625 31.296875 43.53125 35.828125 
Q 39.65625 40.375 33.015625 40.375 
z
M 52.59375 71.296875 
L 52.59375 62.3125 
Q 48.875 64.0625 45.09375 64.984375 
Q 41.3125 65.921875 37.59375 65.921875 
Q 27.828125 65.921875 22.671875 59.328125 
Q 17.53125 52.734375 16.796875 39.40625 
Q 19.671875 43.65625 24.015625 45.921875 
Q 28.375 48.1875 33.59375 48.1875 
Q 44.578125 48.1875 50.953125 41.515625 
Q 57.328125 34.859375 57.328125 23.390625 
Q 57.328125 12.15625 50.6875 5.359375 
Q 44.046875 -1.421875 33.015625 -1.421875 
Q 20.359375 -1.421875 13.671875 8.265625 
Q 6.984375 17.96875 6.984375 36.375 
Q 6.984375 53.65625 15.1875 63.9375 
Q 23.390625 74.21875 37.203125 74.21875 
Q 40.921875 74.21875 44.703125 73.484375 
Q 48.484375 72.75 52.59375 71.296875 
z
" id="DejaVuSans-54"/>
      </defs>
      <g transform="translate(831.910958 655.398438)scale(0.1 -0.1)">
       <use xlink:href="#DejaVuSans-54"/>
       <use x="63.623047" xlink:href="#DejaVuSans-48"/>
       <use x="127.246094" xlink:href="#DejaVuSans-48"/>
       <use x="190.869141" xlink:href="#DejaVuSans-46"/>
       <use x="222.65625" xlink:href="#DejaVuSans-48"/>
      </g>
     </g>
    </g>
    <g id="xtick_7">
     <g id="line2d_7">
      <g>
       <use style="stroke:#000000;stroke-width:0.8;" x="948.807979" xlink:href="#m0d00b2ce22" y="640.8"/>
      </g>
     </g>
     <g id="text_7">
      <!-- 700.0 -->
      <defs>
       <path d="M 8.203125 72.90625 
L 55.078125 72.90625 
L 55.078125 68.703125 
L 28.609375 0 
L 18.3125 0 
L 43.21875 64.59375 
L 8.203125 64.59375 
z
" id="DejaVuSans-55"/>
      </defs>
      <g transform="translate(934.493916 655.398438)scale(0.1 -0.1)">
       <use xlink:href="#DejaVuSans-55"/>
       <use x="63.623047" xlink:href="#DejaVuSans-48"/>
       <use x="127.246094" xlink:href="#DejaVuSans-48"/>
       <use x="190.869141" xlink:href="#DejaVuSans-46"/>
       <use x="222.65625" xlink:href="#DejaVuSans-48"/>
      </g>
     </g>
    </g>
    <g id="xtick_8">
     <g id="line2d_8">
      <g>
       <use style="stroke:#000000;stroke-width:0.8;" x="1051.390937" xlink:href="#m0d00b2ce22" y="640.8"/>
      </g>
     </g>
     <g id="text_8">
      <!-- 800.0 -->
      <defs>
       <path d="M 31.78125 34.625 
Q 24.75 34.625 20.71875 30.859375 
Q 16.703125 27.09375 16.703125 20.515625 
Q 16.703125 13.921875 20.71875 10.15625 
Q 24.75 6.390625 31.78125 6.390625 
Q 38.8125 6.390625 42.859375 10.171875 
Q 46.921875 13.96875 46.921875 20.515625 
Q 46.921875 27.09375 42.890625 30.859375 
Q 38.875 34.625 31.78125 34.625 
z
M 21.921875 38.8125 
Q 15.578125 40.375 12.03125 44.71875 
Q 8.5 49.078125 8.5 55.328125 
Q 8.5 64.0625 14.71875 69.140625 
Q 20.953125 74.21875 31.78125 74.21875 
Q 42.671875 74.21875 48.875 69.140625 
Q 55.078125 64.0625 55.078125 55.328125 
Q 55.078125 49.078125 51.53125 44.71875 
Q 48 40.375 41.703125 38.8125 
Q 48.828125 37.15625 52.796875 32.3125 
Q 56.78125 27.484375 56.78125 20.515625 
Q 56.78125 9.90625 50.3125 4.234375 
Q 43.84375 -1.421875 31.78125 -1.421875 
Q 19.734375 -1.421875 13.25 4.234375 
Q 6.78125 9.90625 6.78125 20.515625 
Q 6.78125 27.484375 10.78125 32.3125 
Q 14.796875 37.15625 21.921875 38.8125 
z
M 18.3125 54.390625 
Q 18.3125 48.734375 21.84375 45.5625 
Q 25.390625 42.390625 31.78125 42.390625 
Q 38.140625 42.390625 41.71875 45.5625 
Q 45.3125 48.734375 45.3125 54.390625 
Q 45.3125 60.0625 41.71875 63.234375 
Q 38.140625 66.40625 31.78125 66.40625 
Q 25.390625 66.40625 21.84375 63.234375 
Q 18.3125 60.0625 18.3125 54.390625 
z
" id="DejaVuSans-56"/>
      </defs>
      <g transform="translate(1037.076874 655.398438)scale(0.1 -0.1)">
       <use xlink:href="#DejaVuSans-56"/>
       <use x="63.623047" xlink:href="#DejaVuSans-48"/>
       <use x="127.246094" xlink:href="#DejaVuSans-48"/>
       <use x="190.869141" xlink:href="#DejaVuSans-46"/>
       <use x="222.65625" xlink:href="#DejaVuSans-48"/>
      </g>
     </g>
    </g>
    <g id="xtick_9">
     <g id="line2d_9">
      <g>
       <use style="stroke:#000000;stroke-width:0.8;" x="1153.973895" xlink:href="#m0d00b2ce22" y="640.8"/>
      </g>
     </g>
     <g id="text_9">
      <!-- 900.0 -->
      <defs>
       <path d="M 10.984375 1.515625 
L 10.984375 10.5 
Q 14.703125 8.734375 18.5 7.8125 
Q 22.3125 6.890625 25.984375 6.890625 
Q 35.75 6.890625 40.890625 13.453125 
Q 46.046875 20.015625 46.78125 33.40625 
Q 43.953125 29.203125 39.59375 26.953125 
Q 35.25 24.703125 29.984375 24.703125 
Q 19.046875 24.703125 12.671875 31.3125 
Q 6.296875 37.9375 6.296875 49.421875 
Q 6.296875 60.640625 12.9375 67.421875 
Q 19.578125 74.21875 30.609375 74.21875 
Q 43.265625 74.21875 49.921875 64.515625 
Q 56.59375 54.828125 56.59375 36.375 
Q 56.59375 19.140625 48.40625 8.859375 
Q 40.234375 -1.421875 26.421875 -1.421875 
Q 22.703125 -1.421875 18.890625 -0.6875 
Q 15.09375 0.046875 10.984375 1.515625 
z
M 30.609375 32.421875 
Q 37.25 32.421875 41.125 36.953125 
Q 45.015625 41.5 45.015625 49.421875 
Q 45.015625 57.28125 41.125 61.84375 
Q 37.25 66.40625 30.609375 66.40625 
Q 23.96875 66.40625 20.09375 61.84375 
Q 16.21875 57.28125 16.21875 49.421875 
Q 16.21875 41.5 20.09375 36.953125 
Q 23.96875 32.421875 30.609375 32.421875 
z
" id="DejaVuSans-57"/>
      </defs>
      <g transform="translate(1139.659832 655.398438)scale(0.1 -0.1)">
       <use xlink:href="#DejaVuSans-57"/>
       <use x="63.623047" xlink:href="#DejaVuSans-48"/>
       <use x="127.246094" xlink:href="#DejaVuSans-48"/>
       <use x="190.869141" xlink:href="#DejaVuSans-46"/>
       <use x="222.65625" xlink:href="#DejaVuSans-48"/>
      </g>
     </g>
    </g>
    <g id="xtick_10">
     <g id="line2d_10">
      <g>
       <use style="stroke:#000000;stroke-width:0.8;" x="1256.556853" xlink:href="#m0d00b2ce22" y="640.8"/>
      </g>
     </g>
     <g id="text_10">
      <!-- 1000.0 -->
      <g transform="translate(1239.06154 655.398438)scale(0.1 -0.1)">
       <use xlink:href="#DejaVuSans-49"/>
       <use x="63.623047" xlink:href="#DejaVuSans-48"/>
       <use x="127.246094" xlink:href="#DejaVuSans-48"/>
       <use x="190.869141" xlink:href="#DejaVuSans-48"/>
       <use x="254.492188" xlink:href="#DejaVuSans-46"/>
       <use x="286.279297" xlink:href="#DejaVuSans-48"/>
      </g>
     </g>
    </g>
    <g id="text_11">
     <!-- n -->
     <defs>
      <path d="M 54.890625 33.015625 
L 54.890625 0 
L 45.90625 0 
L 45.90625 32.71875 
Q 45.90625 40.484375 42.875 44.328125 
Q 39.84375 48.1875 33.796875 48.1875 
Q 26.515625 48.1875 22.3125 43.546875 
Q 18.109375 38.921875 18.109375 30.90625 
L 18.109375 0 
L 9.078125 0 
L 9.078125 54.6875 
L 18.109375 54.6875 
L 18.109375 46.1875 
Q 21.34375 51.125 25.703125 53.5625 
Q 30.078125 56 35.796875 56 
Q 45.21875 56 50.046875 50.171875 
Q 54.890625 44.34375 54.890625 33.015625 
z
" id="DejaVuSans-110"/>
     </defs>
     <g transform="translate(734.83125 669.076563)scale(0.1 -0.1)">
      <use xlink:href="#DejaVuSans-110"/>
     </g>
    </g>
   </g>
   <g id="matplotlib.axis_2">
    <g id="ytick_1">
     <g id="line2d_11">
      <defs>
       <path d="M 0 0 
L -3.5 0 
" id="med98d8eaab" style="stroke:#000000;stroke-width:0.8;"/>
      </defs>
      <g>
       <use style="stroke:#000000;stroke-width:0.8;" x="180" xlink:href="#med98d8eaab" y="633.165093"/>
      </g>
     </g>
     <g id="text_12">
      <!-- 0 -->
      <g transform="translate(166.6375 636.964312)scale(0.1 -0.1)">
       <use xlink:href="#DejaVuSans-48"/>
      </g>
     </g>
    </g>
    <g id="ytick_2">
     <g id="line2d_12">
      <g>
       <use style="stroke:#000000;stroke-width:0.8;" x="180" xlink:href="#med98d8eaab" y="526.627166"/>
      </g>
     </g>
     <g id="text_13">
      <!-- 50 -->
      <g transform="translate(160.275 530.426385)scale(0.1 -0.1)">
       <use xlink:href="#DejaVuSans-53"/>
       <use x="63.623047" xlink:href="#DejaVuSans-48"/>
      </g>
     </g>
    </g>
    <g id="ytick_3">
     <g id="line2d_13">
      <g>
       <use style="stroke:#000000;stroke-width:0.8;" x="180" xlink:href="#med98d8eaab" y="420.08924"/>
      </g>
     </g>
     <g id="text_14">
      <!-- 100 -->
      <g transform="translate(153.9125 423.888458)scale(0.1 -0.1)">
       <use xlink:href="#DejaVuSans-49"/>
       <use x="63.623047" xlink:href="#DejaVuSans-48"/>
       <use x="127.246094" xlink:href="#DejaVuSans-48"/>
      </g>
     </g>
    </g>
    <g id="ytick_4">
     <g id="line2d_14">
      <g>
       <use style="stroke:#000000;stroke-width:0.8;" x="180" xlink:href="#med98d8eaab" y="313.551313"/>
      </g>
     </g>
     <g id="text_15">
      <!-- 150 -->
      <g transform="translate(153.9125 317.350532)scale(0.1 -0.1)">
       <use xlink:href="#DejaVuSans-49"/>
       <use x="63.623047" xlink:href="#DejaVuSans-53"/>
       <use x="127.246094" xlink:href="#DejaVuSans-48"/>
      </g>
     </g>
    </g>
    <g id="ytick_5">
     <g id="line2d_15">
      <g>
       <use style="stroke:#000000;stroke-width:0.8;" x="180" xlink:href="#med98d8eaab" y="207.013386"/>
      </g>
     </g>
     <g id="text_16">
      <!-- 200 -->
      <g transform="translate(153.9125 210.812605)scale(0.1 -0.1)">
       <use xlink:href="#DejaVuSans-50"/>
       <use x="63.623047" xlink:href="#DejaVuSans-48"/>
       <use x="127.246094" xlink:href="#DejaVuSans-48"/>
      </g>
     </g>
    </g>
    <g id="ytick_6">
     <g id="line2d_16">
      <g>
       <use style="stroke:#000000;stroke-width:0.8;" x="180" xlink:href="#med98d8eaab" y="100.47546"/>
      </g>
     </g>
     <g id="text_17">
      <!-- 250 -->
      <g transform="translate(153.9125 104.274678)scale(0.1 -0.1)">
       <use xlink:href="#DejaVuSans-50"/>
       <use x="63.623047" xlink:href="#DejaVuSans-53"/>
       <use x="127.246094" xlink:href="#DejaVuSans-48"/>
      </g>
     </g>
    </g>
    <g id="text_18">
     <!-- speedup -->
     <defs>
      <path d="M 44.28125 53.078125 
L 44.28125 44.578125 
Q 40.484375 46.53125 36.375 47.5 
Q 32.28125 48.484375 27.875 48.484375 
Q 21.1875 48.484375 17.84375 46.4375 
Q 14.5 44.390625 14.5 40.28125 
Q 14.5 37.15625 16.890625 35.375 
Q 19.28125 33.59375 26.515625 31.984375 
L 29.59375 31.296875 
Q 39.15625 29.25 43.1875 25.515625 
Q 47.21875 21.78125 47.21875 15.09375 
Q 47.21875 7.46875 41.1875 3.015625 
Q 35.15625 -1.421875 24.609375 -1.421875 
Q 20.21875 -1.421875 15.453125 -0.5625 
Q 10.6875 0.296875 5.421875 2 
L 5.421875 11.28125 
Q 10.40625 8.6875 15.234375 7.390625 
Q 20.0625 6.109375 24.8125 6.109375 
Q 31.15625 6.109375 34.5625 8.28125 
Q 37.984375 10.453125 37.984375 14.40625 
Q 37.984375 18.0625 35.515625 20.015625 
Q 33.0625 21.96875 24.703125 23.78125 
L 21.578125 24.515625 
Q 13.234375 26.265625 9.515625 29.90625 
Q 5.8125 33.546875 5.8125 39.890625 
Q 5.8125 47.609375 11.28125 51.796875 
Q 16.75 56 26.8125 56 
Q 31.78125 56 36.171875 55.265625 
Q 40.578125 54.546875 44.28125 53.078125 
z
" id="DejaVuSans-115"/>
      <path d="M 18.109375 8.203125 
L 18.109375 -20.796875 
L 9.078125 -20.796875 
L 9.078125 54.6875 
L 18.109375 54.6875 
L 18.109375 46.390625 
Q 20.953125 51.265625 25.265625 53.625 
Q 29.59375 56 35.59375 56 
Q 45.5625 56 51.78125 48.09375 
Q 58.015625 40.1875 58.015625 27.296875 
Q 58.015625 14.40625 51.78125 6.484375 
Q 45.5625 -1.421875 35.59375 -1.421875 
Q 29.59375 -1.421875 25.265625 0.953125 
Q 20.953125 3.328125 18.109375 8.203125 
z
M 48.6875 27.296875 
Q 48.6875 37.203125 44.609375 42.84375 
Q 40.53125 48.484375 33.40625 48.484375 
Q 26.265625 48.484375 22.1875 42.84375 
Q 18.109375 37.203125 18.109375 27.296875 
Q 18.109375 17.390625 22.1875 11.75 
Q 26.265625 6.109375 33.40625 6.109375 
Q 40.53125 6.109375 44.609375 11.75 
Q 48.6875 17.390625 48.6875 27.296875 
z
" id="DejaVuSans-112"/>
      <path d="M 56.203125 29.59375 
L 56.203125 25.203125 
L 14.890625 25.203125 
Q 15.484375 15.921875 20.484375 11.0625 
Q 25.484375 6.203125 34.421875 6.203125 
Q 39.59375 6.203125 44.453125 7.46875 
Q 49.3125 8.734375 54.109375 11.28125 
L 54.109375 2.78125 
Q 49.265625 0.734375 44.1875 -0.34375 
Q 39.109375 -1.421875 33.890625 -1.421875 
Q 20.796875 -1.421875 13.15625 6.1875 
Q 5.515625 13.8125 5.515625 26.8125 
Q 5.515625 40.234375 12.765625 48.109375 
Q 20.015625 56 32.328125 56 
Q 43.359375 56 49.78125 48.890625 
Q 56.203125 41.796875 56.203125 29.59375 
z
M 47.21875 32.234375 
Q 47.125 39.59375 43.09375 43.984375 
Q 39.0625 48.390625 32.421875 48.390625 
Q 24.90625 48.390625 20.390625 44.140625 
Q 15.875 39.890625 15.1875 32.171875 
z
" id="DejaVuSans-101"/>
      <path d="M 45.40625 46.390625 
L 45.40625 75.984375 
L 54.390625 75.984375 
L 54.390625 0 
L 45.40625 0 
L 45.40625 8.203125 
Q 42.578125 3.328125 38.25 0.953125 
Q 33.9375 -1.421875 27.875 -1.421875 
Q 17.96875 -1.421875 11.734375 6.484375 
Q 5.515625 14.40625 5.515625 27.296875 
Q 5.515625 40.1875 11.734375 48.09375 
Q 17.96875 56 27.875 56 
Q 33.9375 56 38.25 53.625 
Q 42.578125 51.265625 45.40625 46.390625 
z
M 14.796875 27.296875 
Q 14.796875 17.390625 18.875 11.75 
Q 22.953125 6.109375 30.078125 6.109375 
Q 37.203125 6.109375 41.296875 11.75 
Q 45.40625 17.390625 45.40625 27.296875 
Q 45.40625 37.203125 41.296875 42.84375 
Q 37.203125 48.484375 30.078125 48.484375 
Q 22.953125 48.484375 18.875 42.84375 
Q 14.796875 37.203125 14.796875 27.296875 
z
" id="DejaVuSans-100"/>
      <path d="M 8.5 21.578125 
L 8.5 54.6875 
L 17.484375 54.6875 
L 17.484375 21.921875 
Q 17.484375 14.15625 20.5 10.265625 
Q 23.53125 6.390625 29.59375 6.390625 
Q 36.859375 6.390625 41.078125 11.03125 
Q 45.3125 15.671875 45.3125 23.6875 
L 45.3125 54.6875 
L 54.296875 54.6875 
L 54.296875 0 
L 45.3125 0 
L 45.3125 8.40625 
Q 42.046875 3.421875 37.71875 1 
Q 33.40625 -1.421875 27.6875 -1.421875 
Q 18.265625 -1.421875 13.375 4.4375 
Q 8.5 10.296875 8.5 21.578125 
z
M 31.109375 56 
z
" id="DejaVuSans-117"/>
     </defs>
     <g transform="translate(147.832812 385.049219)rotate(-90)scale(0.1 -0.1)">
      <use xlink:href="#DejaVuSans-115"/>
      <use x="52.099609" xlink:href="#DejaVuSans-112"/>
      <use x="115.576172" xlink:href="#DejaVuSans-101"/>
      <use x="177.099609" xlink:href="#DejaVuSans-101"/>
      <use x="238.623047" xlink:href="#DejaVuSans-100"/>
      <use x="302.099609" xlink:href="#DejaVuSans-117"/>
      <use x="365.478516" xlink:href="#DejaVuSans-112"/>
     </g>
    </g>
   </g>
   <g id="line2d_17">
    <path clip-path="url(#p9dcfa776ad)" d="M 230.727273 202.636908 
L 231.753102 291.661736 
L 232.778932 132.82612 
L 233.804761 318.278157 
L 234.830591 194.325225 
L 235.856421 347.88984 
L 236.88225 221.881272 
L 237.90808 221.899595 
L 238.933909 389.934171 
L 239.959739 244.191718 
L 240.985569 236.28948 
L 242.011398 277.751095 
L 243.037228 261.274105 
L 244.063057 293.589141 
L 245.088887 296.884083 
L 246.114716 311.738761 
L 247.140546 319.515349 
L 248.166376 320.155687 
L 249.192205 326.546445 
L 250.218035 336.206009 
L 251.243864 351.209247 
L 252.269694 353.298453 
L 253.295523 358.500944 
L 254.321353 374.10953 
L 255.347183 366.501072 
L 256.373012 379.252755 
L 257.398842 381.231608 
L 258.424671 386.10414 
L 259.450501 389.532599 
L 260.476331 390.380432 
L 261.50216 397.432309 
L 262.52799 402.844078 
L 263.553819 404.729542 
L 264.579649 411.099827 
L 265.605478 418.263291 
L 266.631308 416.789633 
L 267.657138 422.67991 
L 268.682967 418.682605 
L 269.708797 424.992496 
L 270.734626 428.968589 
L 272.786286 434.368793 
L 273.812115 437.952048 
L 274.837945 442.965462 
L 275.863774 446.844271 
L 276.889604 447.477195 
L 277.915433 451.412999 
L 278.941263 454.332747 
L 279.967093 453.890117 
L 280.992922 454.670722 
L 282.018752 459.087701 
L 283.044581 458.63048 
L 284.070411 461.99155 
L 285.09624 463.92863 
L 286.12207 467.102713 
L 288.173729 472.703927 
L 289.199559 471.877055 
L 290.225388 474.848409 
L 291.251218 475.055814 
L 292.277048 477.937583 
L 293.302877 479.100416 
L 294.328707 481.563041 
L 295.354536 485.624949 
L 296.380366 485.735499 
L 297.406195 485.334345 
L 298.432025 488.11688 
L 299.457855 488.081994 
L 300.483684 492.175924 
L 301.509514 491.523746 
L 302.535343 494.11891 
L 303.561173 494.111168 
L 304.587002 496.664655 
L 305.612832 497.504075 
L 306.638662 499.803197 
L 307.664491 490.686258 
L 308.690321 499.10341 
L 309.71615 502.190684 
L 310.74198 502.881171 
L 311.76781 502.272459 
L 312.793639 505.941305 
L 313.819469 505.879441 
L 314.845298 509.54448 
L 315.871128 507.920024 
L 316.896957 514.425241 
L 317.922787 504.505058 
L 318.948617 505.101544 
L 319.974446 498.643377 
L 321.000276 503.638932 
L 322.026105 507.571258 
L 323.051935 502.587448 
L 324.077765 512.815179 
L 325.103594 508.485073 
L 326.129424 516.32955 
L 327.155253 509.826771 
L 328.181083 549.849646 
L 329.206912 541.351513 
L 330.232742 541.707593 
L 331.258572 512.257945 
L 332.284401 513.929116 
L 333.310231 512.967132 
L 334.33606 517.686661 
L 335.36189 525.50112 
L 336.387719 550.847716 
L 337.413549 526.753011 
L 338.439379 523.827309 
L 339.465208 516.996769 
L 340.491038 519.833829 
L 341.516867 554.539893 
L 342.542697 530.062074 
L 343.568527 530.888268 
L 344.594356 532.595433 
L 345.620186 531.454402 
L 346.646015 533.219092 
L 347.671845 545.30427 
L 348.697674 535.234979 
L 349.723504 537.094929 
L 350.749334 536.323103 
L 352.800993 538.084103 
L 353.826822 539.577784 
L 354.852652 539.485412 
L 355.878481 540.365623 
L 357.930141 538.167341 
L 358.95597 539.630002 
L 359.9818 539.765186 
L 361.007629 550.933722 
L 362.033459 540.928738 
L 363.059289 543.713505 
L 364.085118 541.743916 
L 365.110948 543.531632 
L 366.136777 544.45099 
L 367.162607 544.974508 
L 368.188436 542.333484 
L 369.214266 545.852754 
L 370.240096 544.290924 
L 371.265925 547.622026 
L 373.317584 548.202171 
L 374.343414 545.802261 
L 375.369243 546.1233 
L 376.395073 548.179749 
L 377.420903 550.926569 
L 378.446732 552.13991 
L 379.472562 550.800149 
L 380.498391 550.983702 
L 381.524221 552.32465 
L 383.57588 549.66528 
L 384.60171 550.385531 
L 385.627539 553.110491 
L 386.653369 551.557789 
L 387.679198 550.730778 
L 388.705028 552.790375 
L 389.730858 564.432611 
L 390.756687 550.842376 
L 391.782517 548.9308 
L 392.808346 549.651908 
L 393.834176 548.868778 
L 394.860006 553.126377 
L 396.911665 551.035781 
L 397.937494 551.921495 
L 398.963324 554.226659 
L 399.989153 552.311403 
L 401.014983 551.865772 
L 402.040813 554.18644 
L 403.066642 568.256982 
L 404.092472 567.553118 
L 405.118301 554.118791 
L 406.144131 549.054433 
L 407.16996 554.824794 
L 408.19579 557.261533 
L 409.22162 553.259297 
L 410.247449 554.122595 
L 411.273279 560.322049 
L 412.299108 555.504936 
L 413.324938 557.276002 
L 414.350768 556.583771 
L 415.376597 557.034281 
L 416.402427 558.71151 
L 417.428256 558.88012 
L 418.454086 557.419767 
L 419.479915 560.077131 
L 421.531575 558.30297 
L 422.557404 558.376655 
L 423.583234 559.012175 
L 424.609063 560.533698 
L 425.634893 558.388106 
L 426.660722 561.230001 
L 427.686552 556.587811 
L 428.712382 570.931985 
L 429.738211 562.442957 
L 431.78987 557.363543 
L 432.8157 571.531351 
L 433.84153 564.833623 
L 434.867359 564.197827 
L 435.893189 564.493231 
L 436.919018 564.577859 
L 437.944848 564.989148 
L 438.970677 562.76384 
L 439.996507 568.249738 
L 441.022337 567.459178 
L 442.048166 567.428327 
L 443.073996 572.418445 
L 444.099825 568.174547 
L 445.125655 569.047108 
L 447.177314 570.237831 
L 448.203144 567.555872 
L 449.228973 566.331981 
L 450.254803 566.446665 
L 451.280632 568.747208 
L 452.306462 568.27434 
L 453.332292 570.581796 
L 454.358121 570.220604 
L 455.383951 570.889696 
L 456.40978 571.005316 
L 457.43561 570.813434 
L 458.461439 571.290477 
L 459.487269 572.722372 
L 460.513099 569.743379 
L 461.538928 571.74832 
L 462.564758 571.297541 
L 463.590587 573.073707 
L 464.616417 573.269591 
L 465.642247 572.464031 
L 466.668076 570.401231 
L 467.693906 573.540214 
L 468.719735 572.886808 
L 469.745565 573.680447 
L 471.797224 574.654727 
L 472.823054 573.532598 
L 473.848883 575.393162 
L 474.874713 575.372832 
L 475.900542 574.40945 
L 476.926372 575.66154 
L 477.952201 574.965108 
L 478.978031 575.675761 
L 480.003861 575.612935 
L 481.02969 568.480427 
L 482.05552 568.544209 
L 483.081349 575.446707 
L 484.107179 577.003535 
L 485.133009 577.802851 
L 486.158838 576.995883 
L 487.184668 574.735692 
L 488.210497 574.687459 
L 489.236327 577.603004 
L 490.262156 575.845374 
L 491.287986 575.5666 
L 492.313816 576.843577 
L 493.339645 577.187117 
L 494.365475 579.031803 
L 495.391304 575.954485 
L 496.417134 577.001495 
L 497.442964 579.193006 
L 498.468793 577.496297 
L 499.494623 579.835153 
L 500.520452 577.75404 
L 501.546282 585.561905 
L 502.572111 579.57351 
L 503.597941 579.280373 
L 504.623771 578.683309 
L 505.6496 579.089536 
L 506.67543 579.626306 
L 507.701259 579.118247 
L 508.727089 580.688612 
L 509.752918 581.517375 
L 510.778748 573.659046 
L 511.804578 580.987877 
L 512.830407 579.474022 
L 513.856237 579.883365 
L 514.882066 580.548339 
L 515.907896 580.752613 
L 516.933726 579.826081 
L 517.959555 588.584784 
L 518.985385 581.158221 
L 520.011214 579.738407 
L 521.037044 581.185438 
L 522.062873 581.530516 
L 523.088703 580.947298 
L 524.114533 582.260215 
L 525.140362 582.21094 
L 526.166192 581.049832 
L 527.192021 582.681897 
L 528.217851 581.605463 
L 529.24368 582.931296 
L 531.29534 583.372504 
L 532.321169 581.617698 
L 533.346999 581.949932 
L 534.372828 582.875454 
L 535.398658 577.471372 
L 536.424488 583.234704 
L 537.450317 582.933233 
L 538.476147 588.807798 
L 539.501976 583.856938 
L 540.527806 582.904944 
L 541.553635 583.402742 
L 542.579465 583.125381 
L 543.605295 582.634144 
L 544.631124 584.257965 
L 545.656954 583.391797 
L 546.682783 585.637082 
L 547.708613 583.855191 
L 548.734443 582.931345 
L 549.760272 589.679609 
L 550.786102 587.370802 
L 551.811931 588.310444 
L 552.837761 584.003628 
L 553.86359 582.90934 
L 554.88942 583.765369 
L 555.91525 585.016479 
L 556.941079 585.31857 
L 557.966909 584.085618 
L 560.018568 586.022404 
L 561.044397 585.025967 
L 562.070227 585.506394 
L 563.096057 586.723359 
L 564.121886 585.410016 
L 565.147716 585.804339 
L 566.173545 585.701738 
L 567.199375 585.836106 
L 568.225205 586.320324 
L 569.251034 585.612308 
L 570.276864 589.639269 
L 571.302693 586.962348 
L 572.328523 587.196689 
L 573.354352 586.098601 
L 574.380182 586.185838 
L 575.406012 586.479695 
L 576.431841 588.011372 
L 577.457671 588.005061 
L 578.4835 588.182431 
L 579.50933 587.397749 
L 580.535159 588.26943 
L 581.560989 587.012845 
L 582.586819 587.123761 
L 583.612648 587.68796 
L 584.638478 587.217472 
L 585.664307 587.451856 
L 586.690137 587.31829 
L 587.715967 587.646292 
L 588.741796 588.561317 
L 589.767626 575.344902 
L 590.793455 607.793449 
L 591.819285 589.915363 
L 592.845114 589.701839 
L 593.870944 590.238614 
L 594.896774 589.822849 
L 595.922603 589.806321 
L 596.948433 589.605681 
L 597.974262 590.383418 
L 599.000092 589.230621 
L 600.025922 590.079336 
L 601.051751 590.322392 
L 602.077581 593.104787 
L 603.10341 590.071836 
L 604.12924 590.886136 
L 605.155069 590.944114 
L 606.180899 590.471297 
L 607.206729 591.013769 
L 608.232558 591.124179 
L 609.258388 591.707911 
L 610.284217 591.506293 
L 611.310047 590.987994 
L 612.335876 591.135014 
L 613.361706 591.411518 
L 614.387536 591.939639 
L 615.413365 591.67491 
L 616.439195 591.585543 
L 617.465024 590.959049 
L 618.490854 591.805339 
L 619.516684 590.462596 
L 620.542513 591.75982 
L 621.568343 591.900494 
L 622.594172 592.222055 
L 623.620002 591.59584 
L 625.671661 592.541061 
L 626.697491 592.202069 
L 627.72332 592.411198 
L 628.74915 592.891129 
L 629.774979 592.267877 
L 630.800809 592.700597 
L 631.826638 592.072055 
L 632.852468 592.628924 
L 633.878298 592.898419 
L 634.904127 592.606818 
L 635.929957 593.036072 
L 636.955786 592.563482 
L 637.981616 592.803005 
L 639.007446 593.492911 
L 640.033275 594.732282 
L 641.059105 592.997764 
L 642.084934 593.216181 
L 643.110764 593.562162 
L 644.136593 593.607329 
L 645.162423 593.237428 
L 646.188253 593.550274 
L 647.214082 594.032424 
L 648.239912 592.748002 
L 649.265741 593.506438 
L 650.291571 593.727323 
L 651.3174 596.911729 
L 652.34323 593.452862 
L 653.36906 593.530725 
L 654.394889 593.929126 
L 655.420719 593.928268 
L 656.446548 593.785718 
L 657.472378 593.052862 
L 658.498208 593.53595 
L 660.549867 595.068861 
L 661.575696 594.520256 
L 662.601526 594.513458 
L 663.627355 603.503568 
L 664.653185 594.593945 
L 665.679015 593.964847 
L 666.704844 594.3383 
L 667.730674 594.000357 
L 668.756503 600.791214 
L 669.782333 594.564218 
L 670.808163 594.284904 
L 671.833992 595.544723 
L 672.859822 597.826236 
L 673.885651 594.210333 
L 674.911481 595.231379 
L 675.93731 594.37701 
L 676.96314 596.344107 
L 677.98897 595.345634 
L 679.014799 594.718359 
L 680.040629 595.932131 
L 681.066458 594.589169 
L 682.092288 598.252244 
L 683.118117 595.61805 
L 684.143947 595.998836 
L 685.169777 599.019966 
L 686.195606 595.047041 
L 687.221436 595.006841 
L 688.247265 595.916476 
L 689.273095 595.795684 
L 690.298925 595.510647 
L 691.324754 595.031018 
L 692.350584 596.393512 
L 693.376413 596.077486 
L 694.402243 598.136022 
L 695.428072 596.180831 
L 696.453902 597.063285 
L 697.479732 596.328144 
L 698.505561 596.7488 
L 699.531391 596.312047 
L 700.55722 596.23763 
L 701.58305 597.279552 
L 702.608879 596.436412 
L 703.634709 597.317682 
L 704.660539 596.535237 
L 705.686368 596.980852 
L 706.712198 596.908757 
L 707.738027 597.060081 
L 708.763857 597.079433 
L 709.789687 597.270056 
L 710.815516 597.729415 
L 711.841346 597.381388 
L 712.867175 599.261945 
L 713.893005 597.163855 
L 714.918834 598.06294 
L 715.944664 597.143617 
L 716.970494 597.909264 
L 717.996323 597.772649 
L 719.022153 598.094585 
L 720.047982 597.866403 
L 721.073812 598.261806 
L 722.099642 597.935164 
L 723.125471 598.124002 
L 724.151301 597.87127 
L 725.17713 598.133036 
L 726.20296 598.269461 
L 727.228789 598.173849 
L 728.254619 598.242789 
L 729.280449 598.572971 
L 730.306278 599.920476 
L 731.332108 598.983634 
L 732.357937 598.84222 
L 733.383767 598.530688 
L 734.409596 598.589777 
L 735.435426 599.977123 
L 736.461256 598.562398 
L 737.487085 598.844664 
L 738.512915 598.747191 
L 739.538744 598.920598 
L 740.564574 601.75888 
L 741.590404 599.12715 
L 742.616233 598.355715 
L 743.642063 598.95497 
L 744.667892 599.175129 
L 748.771211 599.363928 
L 749.79704 599.748684 
L 752.874529 599.514548 
L 753.900358 600.094514 
L 754.926188 599.90773 
L 755.952018 599.537297 
L 756.977847 599.954551 
L 758.003677 599.962662 
L 759.029506 601.525853 
L 760.055336 599.803286 
L 763.132825 600.134268 
L 764.158654 599.769344 
L 765.184484 600.137579 
L 766.210313 600.108321 
L 767.236143 600.441312 
L 768.261973 600.173278 
L 769.287802 600.414031 
L 770.313632 600.163595 
L 771.339461 601.671407 
L 772.365291 600.151542 
L 774.41695 600.423116 
L 775.44278 600.634497 
L 776.468609 600.543973 
L 778.520268 600.777291 
L 780.571928 600.405805 
L 781.597757 600.887435 
L 782.623587 600.913861 
L 784.675246 600.641691 
L 785.701075 600.853296 
L 787.752735 600.693176 
L 788.778564 600.755591 
L 789.804394 602.438004 
L 790.830223 600.930686 
L 791.856053 601.059686 
L 792.881883 600.836717 
L 794.933542 601.057426 
L 795.959371 600.87801 
L 796.985201 601.132412 
L 798.01103 600.729656 
L 799.03686 600.831981 
L 800.06269 602.172937 
L 801.088519 601.736954 
L 802.114349 601.04636 
L 803.140178 601.194457 
L 804.166008 602.317647 
L 805.191837 601.321363 
L 808.269326 601.198574 
L 809.295156 600.731048 
L 810.320985 600.602391 
L 811.346815 601.186574 
L 812.372645 602.386308 
L 813.398474 601.081904 
L 814.424304 601.313623 
L 815.450133 601.269458 
L 817.501792 601.388528 
L 818.527622 601.269818 
L 819.553452 601.466512 
L 823.65677 601.588599 
L 824.6826 601.706625 
L 825.708429 601.70527 
L 826.734259 601.297064 
L 827.760088 602.80088 
L 828.785918 601.714028 
L 829.811747 601.581523 
L 831.863407 601.921767 
L 832.889236 600.911811 
L 834.940895 603.250279 
L 835.966725 601.918348 
L 836.992554 601.80521 
L 838.018384 602.096646 
L 839.044214 602.002416 
L 840.070043 601.716334 
L 841.095873 602.078383 
L 843.147532 602.399284 
L 844.173362 601.869987 
L 845.199191 603.127538 
L 846.225021 602.283048 
L 847.25085 602.234493 
L 848.27668 602.509564 
L 850.328339 602.33261 
L 851.354169 602.557523 
L 852.379998 602.36315 
L 853.405828 602.380295 
L 854.431657 602.820211 
L 855.457487 602.65643 
L 856.483316 602.890443 
L 857.509146 602.826015 
L 858.534976 602.875635 
L 859.560805 605.156869 
L 860.586635 603.019033 
L 861.612464 603.038687 
L 862.638294 602.918512 
L 863.664124 602.978823 
L 865.715783 602.868494 
L 866.741612 603.813799 
L 867.767442 603.072159 
L 868.793271 602.972533 
L 869.819101 603.36791 
L 870.844931 602.981124 
L 871.87076 603.217047 
L 872.89659 603.066954 
L 873.922419 603.078229 
L 874.948249 603.285008 
L 876.999908 603.238932 
L 878.025738 604.172527 
L 879.051567 603.278276 
L 880.077397 603.850089 
L 881.103226 603.77822 
L 884.180715 603.964668 
L 885.206545 603.701086 
L 886.232374 604.615011 
L 887.258204 604.002642 
L 889.309863 603.782303 
L 890.335693 603.341782 
L 891.361522 604.059277 
L 893.413181 603.840762 
L 894.439011 605.443135 
L 895.464841 604.014435 
L 896.49067 604.074048 
L 897.5165 603.976414 
L 898.542329 604.15826 
L 899.568159 604.015465 
L 900.593988 604.063581 
L 901.619818 604.971908 
L 902.645648 603.966957 
L 903.671477 603.869148 
L 905.723136 604.424534 
L 906.748966 606.682651 
L 907.774795 604.643851 
L 908.800625 604.707872 
L 909.826455 604.631552 
L 910.852284 604.386557 
L 911.878114 604.609316 
L 917.007262 604.785912 
L 918.033091 604.95815 
L 920.08475 604.698635 
L 921.11058 605.020791 
L 922.13641 604.830969 
L 923.162239 604.79854 
L 924.188069 605.047095 
L 925.213898 604.658814 
L 926.239728 604.861251 
L 929.317217 604.93006 
L 931.368876 604.924289 
L 932.394705 605.145991 
L 933.420535 604.900311 
L 936.498024 604.915216 
L 937.523853 605.88623 
L 938.549683 605.092235 
L 939.575512 605.977174 
L 940.601342 604.998435 
L 941.627172 607.800789 
L 942.653001 607.734971 
L 943.678831 605.375754 
L 945.73049 605.402404 
L 946.75632 605.465496 
L 947.782149 605.305302 
L 948.807979 605.518463 
L 949.833808 605.404334 
L 950.859638 605.099745 
L 951.885467 604.635432 
L 952.911297 605.51178 
L 953.937127 605.803746 
L 954.962956 605.58297 
L 957.014615 605.741927 
L 958.040445 606.365506 
L 959.066274 605.470679 
L 960.092104 605.699003 
L 963.169593 605.862837 
L 964.195422 605.678896 
L 965.221252 605.921034 
L 966.247082 605.724215 
L 967.272911 606.051279 
L 970.3504 605.897902 
L 971.376229 606.044146 
L 972.402059 606.006305 
L 973.427889 606.72802 
L 974.453718 606.145172 
L 975.479548 605.973058 
L 976.505377 606.251145 
L 977.531207 605.886856 
L 978.557036 606.192401 
L 979.582866 606.170756 
L 980.608696 606.910411 
L 981.634525 606.114875 
L 982.660355 606.299764 
L 983.686184 605.918247 
L 984.712014 606.098191 
L 985.737844 605.792862 
L 986.763673 606.070308 
L 987.789503 606.093048 
L 988.815332 606.441222 
L 989.841162 606.290028 
L 990.866991 606.409762 
L 991.892821 607.149043 
L 992.918651 606.476933 
L 993.94448 606.085332 
L 994.97031 605.870038 
L 995.996139 606.424279 
L 997.021969 606.561985 
L 998.047799 606.552147 
L 999.073628 606.742404 
L 1000.099458 606.428786 
L 1001.125287 606.646434 
L 1002.151117 610.247062 
L 1003.176946 606.786157 
L 1004.202776 606.528291 
L 1005.228606 606.658218 
L 1006.254435 606.392598 
L 1007.280265 606.508553 
L 1008.306094 606.316777 
L 1009.331924 606.642533 
L 1011.383583 606.743362 
L 1012.409413 607.232869 
L 1013.435242 607.394286 
L 1014.461072 605.964019 
L 1015.486901 606.919996 
L 1016.512731 607.250338 
L 1019.59022 607.102005 
L 1022.667708 607.206071 
L 1023.693538 607.0415 
L 1024.719368 607.148841 
L 1025.745197 607.605976 
L 1026.771027 607.409994 
L 1027.796856 607.007802 
L 1028.822686 607.27909 
L 1029.848515 607.274035 
L 1030.874345 607.124047 
L 1031.900175 607.587585 
L 1032.926004 607.097704 
L 1034.977663 607.562454 
L 1037.029323 607.282969 
L 1038.055152 608.109579 
L 1039.080982 607.43961 
L 1040.106811 608.151478 
L 1041.132641 607.803286 
L 1042.15847 607.329636 
L 1043.1843 607.640669 
L 1044.21013 606.988207 
L 1045.235959 607.781783 
L 1046.261789 607.589786 
L 1047.287618 607.891404 
L 1048.313448 607.768131 
L 1049.339278 607.325163 
L 1050.365107 607.750755 
L 1051.390937 607.933058 
L 1052.416766 607.762678 
L 1053.442596 607.78225 
L 1054.468425 608.002501 
L 1057.545914 607.937008 
L 1058.571744 607.738329 
L 1059.597573 607.823327 
L 1060.623403 608.225038 
L 1061.649232 608.216096 
L 1062.675062 608.644674 
L 1064.726721 608.698522 
L 1065.752551 609.191642 
L 1066.77838 608.923782 
L 1067.80421 608.823223 
L 1068.83004 609.20641 
L 1070.881699 609.373202 
L 1071.907528 609.966186 
L 1072.933358 609.1855 
L 1073.959187 609.489104 
L 1074.985017 609.466672 
L 1076.010847 609.327073 
L 1077.036676 609.456257 
L 1078.062506 609.344245 
L 1079.088335 609.486394 
L 1080.114165 609.378647 
L 1081.139994 609.686017 
L 1082.165824 609.375495 
L 1083.191654 610.058269 
L 1084.217483 609.394305 
L 1086.269142 609.345213 
L 1087.294972 609.457883 
L 1089.346631 609.446756 
L 1090.372461 609.580567 
L 1091.39829 609.447647 
L 1093.449949 609.505265 
L 1095.501609 609.560725 
L 1107.811564 609.772776 
L 1108.837393 609.619716 
L 1109.863223 610.212295 
L 1110.889052 609.674521 
L 1111.914882 609.526892 
L 1112.940711 609.687838 
L 1116.0182 609.85264 
L 1117.04403 609.535118 
L 1118.069859 610.249059 
L 1119.095689 609.474663 
L 1120.121519 609.613798 
L 1121.147348 609.899835 
L 1122.173178 609.81948 
L 1123.199007 609.997527 
L 1125.250666 609.835541 
L 1126.276496 609.929579 
L 1127.302326 610.567142 
L 1128.328155 609.951531 
L 1129.353985 610.17583 
L 1130.379814 610.042671 
L 1132.431473 610.0379 
L 1133.457303 609.869844 
L 1134.483133 609.90804 
L 1135.508962 610.224216 
L 1136.534792 612.394566 
L 1137.560621 610.088694 
L 1138.586451 610.024133 
L 1139.612281 610.155525 
L 1142.689769 609.934465 
L 1143.715599 610.644591 
L 1144.741428 610.061005 
L 1146.793088 610.172666 
L 1147.818917 610.267699 
L 1148.844747 610.081122 
L 1149.870576 610.039623 
L 1150.896406 611.966755 
L 1151.922235 610.174452 
L 1152.948065 610.10504 
L 1154.999724 610.28602 
L 1156.025554 610.597482 
L 1157.051383 610.155991 
L 1158.077213 610.152688 
L 1159.103043 611.168937 
L 1160.128872 610.708921 
L 1161.154702 609.686017 
L 1162.180531 610.36094 
L 1163.206361 610.329216 
L 1164.23219 610.629765 
L 1166.28385 610.196203 
L 1167.309679 610.860728 
L 1168.335509 610.110498 
L 1169.361338 610.530756 
L 1170.387168 609.696979 
L 1171.412998 610.121992 
L 1172.438827 610.393732 
L 1173.464657 607.444761 
L 1174.490486 610.431774 
L 1175.516316 610.397315 
L 1176.542145 610.221404 
L 1177.567975 612.137467 
L 1178.593805 610.232424 
L 1179.619634 610.556475 
L 1180.645464 610.236679 
L 1181.671293 610.652801 
L 1182.697123 607.094387 
L 1183.722952 612.656162 
L 1184.748782 610.555983 
L 1185.774612 611.809135 
L 1186.800441 609.783911 
L 1187.826271 610.656158 
L 1188.8521 610.630778 
L 1189.87793 609.725801 
L 1190.90376 610.322226 
L 1191.929589 610.338291 
L 1192.955419 610.608561 
L 1193.981248 610.337971 
L 1195.007078 610.526198 
L 1196.032907 611.563776 
L 1197.058737 610.885036 
L 1198.084567 610.617312 
L 1199.110396 610.212935 
L 1200.136226 608.459401 
L 1201.162055 610.806166 
L 1202.187885 610.696882 
L 1203.213714 610.700442 
L 1204.239544 610.862476 
L 1205.265374 610.301153 
L 1206.291203 610.865676 
L 1209.368692 610.841209 
L 1210.394522 610.937985 
L 1211.420351 610.206802 
L 1213.47201 611.473024 
L 1214.49784 610.852768 
L 1215.523669 610.560202 
L 1216.549499 611.694372 
L 1217.575329 610.849842 
L 1218.601158 610.66258 
L 1219.626988 612.792079 
L 1220.652817 610.549826 
L 1221.678647 610.605188 
L 1222.704477 611.226567 
L 1223.730306 610.971548 
L 1226.807795 610.950445 
L 1227.833624 612.388921 
L 1228.859454 609.033974 
L 1229.885284 613.247519 
L 1230.911113 615.6 
L 1231.936943 612.352292 
L 1232.962772 611.099448 
L 1233.988602 610.911486 
L 1235.014431 610.483181 
L 1236.040261 611.093088 
L 1237.066091 610.634603 
L 1238.09192 610.871611 
L 1239.11775 608.49989 
L 1240.143579 610.841075 
L 1241.169409 612.610293 
L 1242.195239 611.025852 
L 1243.221068 611.019313 
L 1244.246898 613.806512 
L 1245.272727 611.112641 
L 1245.272727 611.112641 
" style="fill:none;stroke:#1f77b4;stroke-linecap:square;stroke-width:1.5;"/>
   </g>
   <g id="line2d_18">
    <path clip-path="url(#p9dcfa776ad)" d="M 230.727273 138.370724 
L 231.753102 111.6 
L 232.778932 147.563041 
L 233.804761 173.51743 
L 234.830591 173.351798 
L 235.856421 178.878239 
L 236.88225 227.879092 
L 237.90808 197.740963 
L 238.933909 217.712281 
L 239.959739 159.832395 
L 240.985569 187.083154 
L 242.011398 243.21458 
L 243.037228 275.15462 
L 244.063057 234.142687 
L 245.088887 204.079333 
L 246.114716 260.921666 
L 247.140546 250.510315 
L 248.166376 234.599073 
L 249.192205 227.845734 
L 250.218035 273.512354 
L 251.243864 301.094158 
L 252.269694 279.740201 
L 253.295523 283.957136 
L 254.321353 338.080485 
L 255.347183 293.746431 
L 256.373012 267.660699 
L 257.398842 287.428005 
L 258.424671 298.633728 
L 259.450501 285.611912 
L 260.476331 322.626333 
L 261.50216 302.512357 
L 262.52799 334.08375 
L 263.553819 328.726084 
L 264.579649 351.421148 
L 265.605478 364.232791 
L 266.631308 353.400073 
L 267.657138 357.497935 
L 268.682967 398.499096 
L 269.708797 349.328467 
L 270.734626 360.803926 
L 271.760456 361.579219 
L 272.786286 370.507243 
L 273.812115 369.945547 
L 274.837945 366.564466 
L 275.863774 373.48439 
L 276.889604 357.713104 
L 277.915433 376.293567 
L 278.941263 376.918291 
L 279.967093 371.673343 
L 280.992922 417.647863 
L 282.018752 417.18713 
L 283.044581 418.024087 
L 284.070411 387.8285 
L 285.09624 425.506082 
L 286.12207 409.29037 
L 287.1479 420.311329 
L 288.173729 405.85608 
L 289.199559 434.750471 
L 290.225388 413.215644 
L 291.251218 396.602399 
L 292.277048 440.167091 
L 293.302877 432.804834 
L 294.328707 439.234278 
L 295.354536 424.734427 
L 296.380366 420.863971 
L 297.406195 416.15625 
L 298.432025 425.43777 
L 300.483684 430.848359 
L 301.509514 428.432205 
L 302.535343 433.043808 
L 303.561173 417.071802 
L 304.587002 451.642872 
L 305.612832 451.83546 
L 306.638662 454.019781 
L 307.664491 447.850876 
L 308.690321 460.476194 
L 309.71615 439.441928 
L 310.74198 440.475918 
L 311.76781 434.663874 
L 312.793639 440.219984 
L 313.819469 483.13984 
L 314.845298 447.731397 
L 315.871128 467.351646 
L 316.896957 444.363638 
L 317.922787 454.284213 
L 318.948617 462.537026 
L 319.974446 468.284078 
L 321.000276 446.135071 
L 322.026105 457.349297 
L 323.051935 452.992068 
L 324.077765 452.892719 
L 325.103594 461.253275 
L 326.129424 470.948914 
L 327.155253 474.121068 
L 328.181083 472.187534 
L 329.206912 467.333217 
L 330.232742 463.036052 
L 331.258572 473.635734 
L 332.284401 472.14673 
L 333.310231 471.919567 
L 334.33606 476.559566 
L 335.36189 486.294002 
L 336.387719 475.271759 
L 337.413549 482.946863 
L 338.439379 484.020521 
L 339.465208 482.420141 
L 340.491038 493.074979 
L 341.516867 486.041982 
L 342.542697 478.003096 
L 343.568527 472.788171 
L 344.594356 479.648966 
L 345.620186 480.799133 
L 346.646015 487.394242 
L 347.671845 478.834621 
L 348.697674 480.59769 
L 349.723504 485.177128 
L 350.749334 480.970336 
L 351.775163 484.749694 
L 352.800993 486.494281 
L 353.826822 481.728761 
L 354.852652 488.280448 
L 355.878481 489.392181 
L 356.904311 492.306214 
L 357.930141 490.387991 
L 358.95597 495.046515 
L 359.9818 493.909164 
L 361.007629 491.533373 
L 362.033459 494.450768 
L 363.059289 490.755876 
L 364.085118 497.006091 
L 365.110948 497.941857 
L 366.136777 495.858476 
L 367.162607 496.496244 
L 368.188436 499.454911 
L 369.214266 499.353291 
L 370.240096 494.128875 
L 371.265925 497.20334 
L 372.291755 496.940862 
L 373.317584 499.431259 
L 374.343414 502.345702 
L 375.369243 501.163231 
L 376.395073 500.50539 
L 377.420903 504.141887 
L 378.446732 507.212831 
L 379.472562 507.955642 
L 380.498391 503.518176 
L 381.524221 508.973775 
L 382.550051 505.949227 
L 383.57588 504.135723 
L 384.60171 509.341941 
L 385.627539 528.032721 
L 386.653369 507.089837 
L 387.679198 508.654324 
L 388.705028 504.440839 
L 389.730858 502.737897 
L 390.756687 511.065242 
L 391.782517 512.14006 
L 392.808346 520.096637 
L 393.834176 512.99635 
L 394.860006 511.398528 
L 395.885835 516.069959 
L 396.911665 510.206536 
L 397.937494 513.778784 
L 398.963324 532.982832 
L 399.989153 516.025599 
L 401.014983 514.229053 
L 402.040813 528.822701 
L 403.066642 517.344548 
L 404.092472 518.909428 
L 405.118301 519.097352 
L 406.144131 528.780213 
L 407.16996 520.393513 
L 408.19579 517.886279 
L 409.22162 522.122698 
L 410.247449 521.458112 
L 411.273279 517.248885 
L 412.299108 526.190217 
L 413.324938 534.088166 
L 414.350768 524.761961 
L 415.376597 522.585803 
L 416.402427 524.50406 
L 417.428256 522.769028 
L 418.454086 523.057947 
L 419.479915 525.536593 
L 420.505745 524.299499 
L 421.531575 527.908373 
L 422.557404 529.679854 
L 423.583234 526.484641 
L 424.609063 525.256499 
L 425.634893 524.32403 
L 426.660722 525.075883 
L 427.686552 537.106909 
L 428.712382 525.235394 
L 429.738211 532.316496 
L 430.764041 528.351717 
L 431.78987 530.821384 
L 432.8157 530.360727 
L 433.84153 530.673824 
L 434.867359 532.981607 
L 435.893189 529.987959 
L 436.919018 533.53137 
L 437.944848 533.18111 
L 439.996507 529.591033 
L 441.022337 533.905125 
L 442.048166 533.73953 
L 443.073996 534.110401 
L 444.099825 535.457359 
L 445.125655 535.864181 
L 446.151485 534.332856 
L 447.177314 535.710751 
L 448.203144 537.946321 
L 449.228973 534.978987 
L 450.254803 537.726341 
L 451.280632 534.526373 
L 452.306462 539.540352 
L 453.332292 538.705624 
L 454.358121 538.824014 
L 455.383951 537.17982 
L 456.40978 538.692502 
L 457.43561 537.503631 
L 458.461439 536.685264 
L 459.487269 540.216252 
L 460.513099 541.827312 
L 461.538928 537.379208 
L 462.564758 537.013168 
L 463.590587 539.713983 
L 464.616417 551.847961 
L 465.642247 539.503596 
L 466.668076 539.884441 
L 467.693906 540.566368 
L 468.719735 547.769138 
L 469.745565 540.957239 
L 470.771394 545.405899 
L 471.797224 546.384332 
L 472.823054 542.871953 
L 473.848883 545.702373 
L 474.874713 546.939926 
L 475.900542 547.79737 
L 476.926372 547.180059 
L 477.952201 545.272288 
L 478.978031 547.691542 
L 480.003861 548.403025 
L 481.02969 547.271778 
L 482.05552 547.70348 
L 483.081349 547.104433 
L 484.107179 547.142672 
L 485.133009 547.500632 
L 486.158838 549.913342 
L 487.184668 547.158981 
L 488.210497 552.187853 
L 489.236327 549.424614 
L 490.262156 549.761877 
L 491.287986 552.787036 
L 492.313816 548.892759 
L 493.339645 551.790705 
L 494.365475 551.313661 
L 495.391304 551.792069 
L 496.417134 551.417069 
L 497.442964 552.483008 
L 498.468793 551.971592 
L 499.494623 553.082622 
L 500.520452 553.505058 
L 501.546282 561.875602 
L 502.572111 551.799898 
L 503.597941 554.019825 
L 504.623771 553.21512 
L 505.6496 554.737015 
L 506.67543 553.430743 
L 508.727089 553.200807 
L 509.752918 553.983359 
L 510.778748 558.815101 
L 511.804578 562.066115 
L 512.830407 552.716728 
L 513.856237 553.520444 
L 514.882066 553.278428 
L 515.907896 555.822334 
L 516.933726 554.995272 
L 517.959555 555.158433 
L 518.985385 554.849955 
L 520.011214 555.724396 
L 521.037044 556.787026 
L 522.062873 554.032676 
L 523.088703 554.325392 
L 524.114533 555.113972 
L 525.140362 555.224622 
L 526.166192 556.689238 
L 527.192021 556.651876 
L 528.217851 559.762869 
L 529.24368 557.259112 
L 530.26951 557.86095 
L 531.29534 558.314296 
L 532.321169 559.700678 
L 534.372828 557.560198 
L 535.398658 559.782328 
L 536.424488 560.565613 
L 537.450317 565.438617 
L 538.476147 559.835071 
L 539.501976 559.309663 
L 540.527806 563.052232 
L 541.553635 562.755663 
L 542.579465 558.406872 
L 543.605295 557.967998 
L 544.631124 558.803756 
L 545.656954 558.212094 
L 546.682783 560.060032 
L 547.708613 558.760918 
L 548.734443 560.448822 
L 550.786102 559.959983 
L 551.811931 562.251298 
L 552.837761 561.665169 
L 553.86359 559.653818 
L 554.88942 560.673326 
L 555.91525 560.681524 
L 556.941079 561.409926 
L 557.966909 561.837703 
L 558.992738 561.104912 
L 560.018568 561.31949 
L 561.044397 562.318348 
L 562.070227 561.748421 
L 563.096057 562.847013 
L 564.121886 560.66757 
L 565.147716 568.086739 
L 566.173545 561.894017 
L 567.199375 564.022935 
L 568.225205 564.091389 
L 569.251034 563.950657 
L 570.276864 563.220681 
L 571.302693 566.284383 
L 572.328523 564.236851 
L 573.354352 565.515743 
L 574.380182 573.206857 
L 575.406012 563.964316 
L 576.431841 564.180758 
L 577.457671 565.270167 
L 578.4835 564.462238 
L 579.50933 564.867481 
L 580.535159 567.337272 
L 581.560989 564.702726 
L 582.586819 567.03667 
L 583.612648 566.90039 
L 584.638478 564.989612 
L 585.664307 564.669171 
L 586.690137 565.621604 
L 588.741796 566.927265 
L 589.767626 568.780845 
L 590.793455 567.277592 
L 591.819285 569.173107 
L 592.845114 567.887304 
L 593.870944 566.298457 
L 594.896774 570.003375 
L 595.922603 565.604447 
L 596.948433 569.482123 
L 597.974262 569.284711 
L 599.000092 568.057897 
L 600.025922 568.128239 
L 601.051751 568.615075 
L 602.077581 568.503918 
L 604.12924 569.274698 
L 605.155069 569.969211 
L 606.180899 577.114705 
L 607.206729 571.31272 
L 608.232558 571.828519 
L 609.258388 570.660306 
L 610.284217 570.687678 
L 611.310047 572.267417 
L 612.335876 571.410405 
L 613.361706 571.334322 
L 614.387536 572.46497 
L 615.413365 572.910953 
L 616.439195 573.51236 
L 617.465024 573.095993 
L 618.490854 573.477134 
L 619.516684 572.6806 
L 620.542513 573.398549 
L 621.568343 578.60692 
L 622.594172 573.690377 
L 623.620002 573.836616 
L 624.645831 573.590986 
L 625.671661 574.059006 
L 626.697491 576.687416 
L 627.72332 574.37475 
L 628.74915 574.945836 
L 629.774979 578.679144 
L 630.800809 575.450993 
L 631.826638 574.745885 
L 632.852468 582.439893 
L 633.878298 575.368936 
L 634.904127 577.005677 
L 635.929957 575.564985 
L 636.955786 574.954667 
L 637.981616 575.922664 
L 639.007446 574.895437 
L 640.033275 574.367519 
L 641.059105 576.389604 
L 642.084934 577.077164 
L 643.110764 575.96504 
L 645.162423 575.337688 
L 646.188253 575.930684 
L 647.214082 581.480402 
L 648.239912 573.293886 
L 649.265741 575.264817 
L 650.291571 574.422824 
L 651.3174 575.000529 
L 652.34323 581.539371 
L 653.36906 582.484489 
L 654.394889 572.913213 
L 655.420719 571.679651 
L 656.446548 574.578534 
L 657.472378 575.947743 
L 658.498208 575.240669 
L 659.524037 573.210538 
L 660.549867 577.039252 
L 661.575696 573.481363 
L 662.601526 572.957185 
L 663.627355 572.715841 
L 664.653185 572.901343 
L 665.679015 573.51766 
L 666.704844 574.530853 
L 667.730674 577.622043 
L 668.756503 576.488559 
L 669.782333 574.23216 
L 670.808163 574.153707 
L 672.859822 574.507814 
L 673.885651 574.353438 
L 674.911481 574.666689 
L 675.93731 572.69983 
L 676.96314 573.978194 
L 680.040629 574.511253 
L 681.066458 575.059458 
L 683.118117 574.498282 
L 684.143947 583.241136 
L 685.169777 574.318627 
L 686.195606 574.319144 
L 687.221436 574.634113 
L 688.247265 574.695625 
L 689.273095 575.037955 
L 690.298925 578.255926 
L 691.324754 574.791604 
L 692.350584 573.970727 
L 693.376413 575.213793 
L 694.402243 580.454704 
L 695.428072 575.310596 
L 696.453902 575.90677 
L 697.479732 575.678285 
L 698.505561 574.955337 
L 699.531391 576.187513 
L 700.55722 576.12218 
L 701.58305 580.323227 
L 702.608879 575.646882 
L 703.634709 575.923768 
L 704.660539 576.503951 
L 706.712198 575.953735 
L 707.738027 586.099741 
L 708.763857 576.526064 
L 709.789687 580.15525 
L 710.815516 577.040573 
L 711.841346 576.175629 
L 712.867175 576.980542 
L 714.918834 577.043421 
L 715.944664 576.675383 
L 717.996323 577.707895 
L 719.022153 577.183198 
L 720.047982 576.956161 
L 721.073812 579.229563 
L 722.099642 577.517787 
L 723.125471 577.660699 
L 724.151301 576.24513 
L 725.17713 578.612127 
L 726.20296 578.323844 
L 727.228789 582.928802 
L 728.254619 579.825377 
L 729.280449 577.703608 
L 730.306278 577.933217 
L 731.332108 577.875764 
L 732.357937 578.468587 
L 733.383767 578.077261 
L 734.409596 578.955283 
L 735.435426 578.707459 
L 737.487085 577.972735 
L 738.512915 578.693094 
L 739.538744 579.137362 
L 740.564574 578.238236 
L 742.616233 579.14187 
L 743.642063 580.400876 
L 744.667892 578.791724 
L 745.693722 580.148604 
L 746.719551 580.22242 
L 747.745381 581.357715 
L 748.771211 579.953296 
L 749.79704 580.226923 
L 750.82287 583.713272 
L 751.848699 580.180963 
L 752.874529 580.788578 
L 754.926188 580.852458 
L 755.952018 581.269776 
L 756.977847 580.894081 
L 758.003677 580.292164 
L 759.029506 581.103337 
L 760.055336 586.492887 
L 761.081166 581.191789 
L 762.106995 581.650252 
L 763.132825 580.680169 
L 764.158654 581.73764 
L 766.210313 581.681767 
L 767.236143 581.59285 
L 768.261973 584.838593 
L 769.287802 581.702658 
L 770.313632 583.271441 
L 771.339461 581.998056 
L 772.365291 581.993002 
L 773.391121 589.405369 
L 774.41695 582.474322 
L 775.44278 582.114623 
L 776.468609 584.687517 
L 777.494439 582.022025 
L 778.520268 582.231994 
L 779.546098 582.094467 
L 781.597757 582.159199 
L 782.623587 582.726366 
L 783.649416 582.2653 
L 784.675246 581.164096 
L 786.726905 584.223033 
L 787.752735 582.321696 
L 788.778564 582.372071 
L 789.804394 584.573165 
L 790.830223 583.410883 
L 791.856053 582.930231 
L 792.881883 586.770307 
L 793.907712 585.137539 
L 794.933542 582.843409 
L 795.959371 586.296998 
L 796.985201 583.343748 
L 798.01103 583.886548 
L 799.03686 583.182578 
L 800.06269 583.931505 
L 801.088519 583.172406 
L 802.114349 582.879026 
L 803.140178 583.624151 
L 804.166008 583.349335 
L 805.191837 583.656484 
L 808.269326 583.842126 
L 809.295156 584.379814 
L 810.320985 583.794185 
L 811.346815 584.104507 
L 812.372645 585.028713 
L 813.398474 584.131304 
L 814.424304 583.901585 
L 815.450133 584.27457 
L 817.501792 583.742509 
L 818.527622 584.64659 
L 819.553452 593.750284 
L 820.579281 585.344948 
L 821.605111 584.22185 
L 822.63094 584.408181 
L 823.65677 586.737611 
L 824.6826 584.542593 
L 825.708429 589.141256 
L 826.734259 584.408623 
L 827.760088 584.82654 
L 828.785918 584.793518 
L 830.837577 585.135191 
L 831.863407 584.60869 
L 832.889236 585.558839 
L 833.915066 584.782445 
L 834.940895 586.64451 
L 835.966725 584.927648 
L 836.992554 588.340692 
L 838.018384 584.803712 
L 839.044214 592.295282 
L 840.070043 586.021289 
L 841.095873 584.884062 
L 842.121702 584.340129 
L 843.147532 583.372994 
L 844.173362 583.535247 
L 845.199191 586.271611 
L 846.225021 585.600169 
L 847.25085 585.136509 
L 848.27668 585.845695 
L 849.302509 585.019293 
L 850.328339 591.364086 
L 851.354169 585.277973 
L 852.379998 587.291361 
L 853.405828 585.866545 
L 854.431657 586.780434 
L 855.457487 585.741427 
L 856.483316 585.990857 
L 857.509146 584.901544 
L 858.534976 588.600079 
L 859.560805 585.749024 
L 860.586635 587.191563 
L 861.612464 585.659022 
L 862.638294 585.477112 
L 863.664124 585.688646 
L 864.689953 586.894501 
L 865.715783 591.779441 
L 866.741612 585.543903 
L 867.767442 581.294862 
L 868.793271 587.035197 
L 869.819101 585.536522 
L 870.844931 586.440734 
L 871.87076 586.249519 
L 872.89659 586.887977 
L 873.922419 586.994339 
L 874.948249 586.712457 
L 875.974078 586.191356 
L 876.999908 586.546896 
L 878.025738 587.266779 
L 879.051567 586.892001 
L 880.077397 588.745961 
L 881.103226 586.41585 
L 882.129056 586.222177 
L 883.154886 586.223537 
L 884.180715 586.504766 
L 885.206545 587.262557 
L 886.232374 586.818219 
L 887.258204 586.959636 
L 888.284033 587.77112 
L 889.309863 587.308779 
L 890.335693 587.348082 
L 891.361522 592.269666 
L 892.387352 587.783691 
L 893.413181 589.981366 
L 894.439011 586.944476 
L 895.464841 587.88619 
L 896.49067 589.476405 
L 897.5165 587.133087 
L 898.542329 587.80477 
L 899.568159 589.855671 
L 900.593988 587.965357 
L 901.619818 588.030939 
L 902.645648 589.989865 
L 903.671477 588.144878 
L 904.697307 595.581828 
L 905.723136 587.343659 
L 907.774795 588.185412 
L 908.800625 587.968939 
L 909.826455 587.867375 
L 910.852284 588.012771 
L 911.878114 587.306151 
L 912.903943 588.200072 
L 913.929773 588.563425 
L 914.955603 588.086729 
L 915.981432 588.017366 
L 917.007262 590.352328 
L 918.033091 590.167381 
L 919.058921 588.466582 
L 920.08475 589.029923 
L 921.11058 588.623426 
L 922.13641 588.93552 
L 923.162239 587.968601 
L 924.188069 592.321822 
L 925.213898 588.229934 
L 926.239728 588.838348 
L 927.265557 588.983154 
L 928.291387 588.012615 
L 929.317217 589.610914 
L 930.343046 588.796804 
L 931.368876 589.294898 
L 932.394705 588.671108 
L 933.420535 590.992214 
L 934.446365 588.649833 
L 935.472194 589.344625 
L 936.498024 588.81187 
L 937.523853 589.336865 
L 938.549683 591.420274 
L 939.575512 589.383254 
L 940.601342 589.781049 
L 942.653001 588.873803 
L 943.678831 589.348657 
L 944.70466 589.686564 
L 946.75632 588.74407 
L 948.807979 589.908954 
L 950.859638 589.06568 
L 951.885467 589.137034 
L 952.911297 589.730926 
L 953.937127 589.929531 
L 954.962956 589.585638 
L 955.988786 591.039743 
L 957.014615 593.565849 
L 958.040445 589.889163 
L 959.066274 590.106257 
L 960.092104 589.588188 
L 961.117934 589.528426 
L 962.143763 589.293983 
L 963.169593 589.93893 
L 964.195422 589.925925 
L 965.221252 589.584709 
L 966.247082 590.296971 
L 967.272911 590.294703 
L 968.298741 589.95887 
L 969.32457 589.794871 
L 970.3504 597.139656 
L 971.376229 589.695771 
L 972.402059 589.787088 
L 973.427889 590.592572 
L 974.453718 589.841175 
L 975.479548 590.228185 
L 976.505377 590.171603 
L 977.531207 590.330618 
L 978.557036 590.195753 
L 979.582866 589.766937 
L 981.634525 590.756083 
L 982.660355 590.567908 
L 983.686184 591.496888 
L 984.712014 590.779346 
L 985.737844 591.051947 
L 986.763673 590.274713 
L 987.789503 591.978608 
L 988.815332 590.495945 
L 989.841162 596.252173 
L 990.866991 590.011145 
L 991.892821 591.575194 
L 992.918651 590.631611 
L 993.94448 590.32632 
L 994.97031 590.700929 
L 995.996139 591.227448 
L 997.021969 591.555899 
L 998.047799 590.758458 
L 999.073628 591.017303 
L 1000.099458 590.749867 
L 1001.125287 591.341013 
L 1002.151117 590.817936 
L 1003.176946 590.456441 
L 1004.202776 591.947621 
L 1005.228606 591.655743 
L 1006.254435 591.639566 
L 1007.280265 591.378284 
L 1008.306094 591.234066 
L 1010.357753 591.419468 
L 1011.383583 590.958709 
L 1012.409413 591.580984 
L 1013.435242 590.572979 
L 1014.461072 590.910922 
L 1015.486901 590.140283 
L 1016.512731 591.558465 
L 1017.538561 591.529026 
L 1019.59022 590.901441 
L 1020.616049 590.817853 
L 1021.641879 592.821259 
L 1022.667708 596.093965 
L 1023.693538 590.998912 
L 1024.719368 591.116035 
L 1025.745197 591.777034 
L 1027.796856 591.528848 
L 1028.822686 591.147705 
L 1029.848515 591.257874 
L 1030.874345 590.982823 
L 1031.900175 593.233788 
L 1032.926004 591.352664 
L 1033.951834 591.103291 
L 1034.977663 591.825914 
L 1036.003493 597.852883 
L 1037.029323 591.964682 
L 1038.055152 591.361087 
L 1039.080982 591.991676 
L 1040.106811 591.884504 
L 1041.132641 591.244558 
L 1042.15847 592.065508 
L 1043.1843 591.427562 
L 1045.235959 592.096977 
L 1048.313448 591.912843 
L 1049.339278 590.741661 
L 1050.365107 592.371528 
L 1051.390937 592.075635 
L 1054.468425 591.956954 
L 1055.494255 595.761502 
L 1056.520085 590.742991 
L 1057.545914 592.250092 
L 1058.571744 592.687974 
L 1059.597573 591.87635 
L 1060.623403 592.883955 
L 1061.649232 594.17089 
L 1062.675062 596.041068 
L 1063.700892 594.713721 
L 1064.726721 594.808565 
L 1065.752551 595.308451 
L 1066.77838 595.077418 
L 1067.80421 597.718819 
L 1068.83004 595.262123 
L 1069.855869 594.977221 
L 1070.881699 595.231074 
L 1071.907528 595.182442 
L 1072.933358 594.950385 
L 1073.959187 595.010471 
L 1074.985017 595.954318 
L 1076.010847 594.968857 
L 1077.036676 595.089184 
L 1078.062506 595.49832 
L 1079.088335 595.180603 
L 1080.114165 595.611676 
L 1082.165824 595.057141 
L 1084.217483 595.273929 
L 1085.243313 595.085411 
L 1086.269142 595.433356 
L 1087.294972 595.424744 
L 1088.320802 598.083697 
L 1089.346631 595.203077 
L 1090.372461 595.360826 
L 1091.39829 596.297299 
L 1092.42412 595.259404 
L 1093.449949 595.30924 
L 1094.475779 595.609012 
L 1095.501609 595.598119 
L 1096.527438 595.462362 
L 1098.579097 595.833811 
L 1099.604927 595.840726 
L 1100.630757 595.476569 
L 1101.656586 601.327721 
L 1102.682416 595.987651 
L 1104.734075 595.799722 
L 1105.759904 597.504402 
L 1106.785734 595.824782 
L 1107.811564 595.849331 
L 1109.863223 595.722691 
L 1110.889052 595.823404 
L 1111.914882 595.802166 
L 1112.940711 595.365839 
L 1113.966541 596.050501 
L 1114.992371 596.570128 
L 1116.0182 596.1827 
L 1117.04403 596.147329 
L 1118.069859 597.011325 
L 1119.095689 596.440617 
L 1120.121519 596.440385 
L 1121.147348 599.8673 
L 1122.173178 596.089473 
L 1123.199007 596.067722 
L 1124.224837 596.290255 
L 1125.250666 596.345841 
L 1126.276496 596.13298 
L 1127.302326 596.078471 
L 1128.328155 597.968071 
L 1129.353985 595.801197 
L 1130.379814 596.287267 
L 1131.405644 596.482898 
L 1132.431473 596.520962 
L 1133.457303 597.762219 
L 1134.483133 596.697459 
L 1135.508962 596.346672 
L 1137.560621 596.433675 
L 1138.586451 596.314148 
L 1139.612281 596.40134 
L 1140.63811 596.648737 
L 1141.66394 596.1038 
L 1142.689769 596.316012 
L 1143.715599 596.783434 
L 1144.741428 596.564358 
L 1145.767258 597.540865 
L 1146.793088 596.239848 
L 1147.818917 598.448435 
L 1148.844747 596.464632 
L 1149.870576 596.655998 
L 1150.896406 598.194712 
L 1152.948065 596.005958 
L 1153.973895 600.922536 
L 1154.999724 596.721557 
L 1156.025554 597.956537 
L 1157.051383 596.63174 
L 1158.077213 596.443135 
L 1159.103043 596.805238 
L 1161.154702 596.898692 
L 1162.180531 596.464442 
L 1163.206361 596.829284 
L 1165.25802 596.58829 
L 1166.28385 597.448737 
L 1167.309679 603.331689 
L 1168.335509 596.922394 
L 1169.361338 597.007366 
L 1170.387168 597.277675 
L 1171.412998 597.308436 
L 1172.438827 596.972137 
L 1174.490486 597.055838 
L 1175.516316 597.471227 
L 1176.542145 596.862667 
L 1177.567975 598.272315 
L 1178.593805 597.097134 
L 1179.619634 597.413252 
L 1180.645464 597.240889 
L 1181.671293 596.948955 
L 1183.722952 597.141214 
L 1184.748782 596.700404 
L 1185.774612 596.919344 
L 1186.800441 599.975493 
L 1187.826271 597.244962 
L 1188.8521 597.283181 
L 1189.87793 595.498702 
L 1190.90376 597.160492 
L 1191.929589 596.89498 
L 1192.955419 597.464549 
L 1193.981248 598.562195 
L 1195.007078 597.853172 
L 1196.032907 597.700511 
L 1197.058737 598.171436 
L 1198.084567 597.602175 
L 1199.110396 597.295717 
L 1200.136226 597.429568 
L 1201.162055 596.905251 
L 1202.187885 598.82405 
L 1203.213714 597.946104 
L 1204.239544 597.526445 
L 1205.265374 598.295938 
L 1206.291203 598.686343 
L 1207.317033 598.846428 
L 1208.342862 597.464653 
L 1210.394522 597.841701 
L 1211.420351 597.440816 
L 1212.446181 597.608998 
L 1213.47201 597.624545 
L 1214.49784 593.395936 
L 1215.523669 597.582268 
L 1216.549499 597.838421 
L 1217.575329 597.258143 
L 1218.601158 597.430899 
L 1219.626988 601.421132 
L 1220.652817 597.616766 
L 1221.678647 599.046907 
L 1222.704477 598.144659 
L 1223.730306 597.959426 
L 1224.756136 598.158968 
L 1225.781965 597.882301 
L 1226.807795 598.351104 
L 1227.833624 598.119544 
L 1228.859454 598.039679 
L 1229.885284 597.671704 
L 1230.911113 597.97154 
L 1231.936943 597.96736 
L 1232.962772 603.459635 
L 1233.988602 598.236879 
L 1235.014431 598.070847 
L 1236.040261 599.280186 
L 1237.066091 597.878842 
L 1238.09192 597.969558 
L 1239.11775 598.211573 
L 1240.143579 597.82575 
L 1242.195239 598.17466 
L 1243.221068 597.992279 
L 1244.246898 598.280653 
L 1245.272727 599.547631 
L 1245.272727 599.547631 
" style="fill:none;stroke:#ff7f0e;stroke-linecap:square;stroke-width:1.5;"/>
   </g>
   <g id="patch_3">
    <path d="M 180 640.8 
L 180 86.4 
" style="fill:none;stroke:#000000;stroke-linecap:square;stroke-linejoin:miter;stroke-width:0.8;"/>
   </g>
   <g id="patch_4">
    <path d="M 1296 640.8 
L 1296 86.4 
" style="fill:none;stroke:#000000;stroke-linecap:square;stroke-linejoin:miter;stroke-width:0.8;"/>
   </g>
   <g id="patch_5">
    <path d="M 180 640.8 
L 1296 640.8 
" style="fill:none;stroke:#000000;stroke-linecap:square;stroke-linejoin:miter;stroke-width:0.8;"/>
   </g>
   <g id="patch_6">
    <path d="M 180 86.4 
L 1296 86.4 
" style="fill:none;stroke:#000000;stroke-linecap:square;stroke-linejoin:miter;stroke-width:0.8;"/>
   </g>
   <g id="text_19">
    <!-- Stochastic Oscillator Speedup -->
    <defs>
     <path d="M 53.515625 70.515625 
L 53.515625 60.890625 
Q 47.90625 63.578125 42.921875 64.890625 
Q 37.9375 66.21875 33.296875 66.21875 
Q 25.25 66.21875 20.875 63.09375 
Q 16.5 59.96875 16.5 54.203125 
Q 16.5 49.359375 19.40625 46.890625 
Q 22.3125 44.4375 30.421875 42.921875 
L 36.375 41.703125 
Q 47.40625 39.59375 52.65625 34.296875 
Q 57.90625 29 57.90625 20.125 
Q 57.90625 9.515625 50.796875 4.046875 
Q 43.703125 -1.421875 29.984375 -1.421875 
Q 24.8125 -1.421875 18.96875 -0.25 
Q 13.140625 0.921875 6.890625 3.21875 
L 6.890625 13.375 
Q 12.890625 10.015625 18.65625 8.296875 
Q 24.421875 6.59375 29.984375 6.59375 
Q 38.421875 6.59375 43.015625 9.90625 
Q 47.609375 13.234375 47.609375 19.390625 
Q 47.609375 24.75 44.3125 27.78125 
Q 41.015625 30.8125 33.5 32.328125 
L 27.484375 33.5 
Q 16.453125 35.6875 11.515625 40.375 
Q 6.59375 45.0625 6.59375 53.421875 
Q 6.59375 63.09375 13.40625 68.65625 
Q 20.21875 74.21875 32.171875 74.21875 
Q 37.3125 74.21875 42.625 73.28125 
Q 47.953125 72.359375 53.515625 70.515625 
z
" id="DejaVuSans-83"/>
     <path d="M 18.3125 70.21875 
L 18.3125 54.6875 
L 36.8125 54.6875 
L 36.8125 47.703125 
L 18.3125 47.703125 
L 18.3125 18.015625 
Q 18.3125 11.328125 20.140625 9.421875 
Q 21.96875 7.515625 27.59375 7.515625 
L 36.8125 7.515625 
L 36.8125 0 
L 27.59375 0 
Q 17.1875 0 13.234375 3.875 
Q 9.28125 7.765625 9.28125 18.015625 
L 9.28125 47.703125 
L 2.6875 47.703125 
L 2.6875 54.6875 
L 9.28125 54.6875 
L 9.28125 70.21875 
z
" id="DejaVuSans-116"/>
     <path d="M 30.609375 48.390625 
Q 23.390625 48.390625 19.1875 42.75 
Q 14.984375 37.109375 14.984375 27.296875 
Q 14.984375 17.484375 19.15625 11.84375 
Q 23.34375 6.203125 30.609375 6.203125 
Q 37.796875 6.203125 41.984375 11.859375 
Q 46.1875 17.53125 46.1875 27.296875 
Q 46.1875 37.015625 41.984375 42.703125 
Q 37.796875 48.390625 30.609375 48.390625 
z
M 30.609375 56 
Q 42.328125 56 49.015625 48.375 
Q 55.71875 40.765625 55.71875 27.296875 
Q 55.71875 13.875 49.015625 6.21875 
Q 42.328125 -1.421875 30.609375 -1.421875 
Q 18.84375 -1.421875 12.171875 6.21875 
Q 5.515625 13.875 5.515625 27.296875 
Q 5.515625 40.765625 12.171875 48.375 
Q 18.84375 56 30.609375 56 
z
" id="DejaVuSans-111"/>
     <path d="M 48.78125 52.59375 
L 48.78125 44.1875 
Q 44.96875 46.296875 41.140625 47.34375 
Q 37.3125 48.390625 33.40625 48.390625 
Q 24.65625 48.390625 19.8125 42.84375 
Q 14.984375 37.3125 14.984375 27.296875 
Q 14.984375 17.28125 19.8125 11.734375 
Q 24.65625 6.203125 33.40625 6.203125 
Q 37.3125 6.203125 41.140625 7.25 
Q 44.96875 8.296875 48.78125 10.40625 
L 48.78125 2.09375 
Q 45.015625 0.34375 40.984375 -0.53125 
Q 36.96875 -1.421875 32.421875 -1.421875 
Q 20.0625 -1.421875 12.78125 6.34375 
Q 5.515625 14.109375 5.515625 27.296875 
Q 5.515625 40.671875 12.859375 48.328125 
Q 20.21875 56 33.015625 56 
Q 37.15625 56 41.109375 55.140625 
Q 45.0625 54.296875 48.78125 52.59375 
z
" id="DejaVuSans-99"/>
     <path d="M 54.890625 33.015625 
L 54.890625 0 
L 45.90625 0 
L 45.90625 32.71875 
Q 45.90625 40.484375 42.875 44.328125 
Q 39.84375 48.1875 33.796875 48.1875 
Q 26.515625 48.1875 22.3125 43.546875 
Q 18.109375 38.921875 18.109375 30.90625 
L 18.109375 0 
L 9.078125 0 
L 9.078125 75.984375 
L 18.109375 75.984375 
L 18.109375 46.1875 
Q 21.34375 51.125 25.703125 53.5625 
Q 30.078125 56 35.796875 56 
Q 45.21875 56 50.046875 50.171875 
Q 54.890625 44.34375 54.890625 33.015625 
z
" id="DejaVuSans-104"/>
     <path d="M 34.28125 27.484375 
Q 23.390625 27.484375 19.1875 25 
Q 14.984375 22.515625 14.984375 16.5 
Q 14.984375 11.71875 18.140625 8.90625 
Q 21.296875 6.109375 26.703125 6.109375 
Q 34.1875 6.109375 38.703125 11.40625 
Q 43.21875 16.703125 43.21875 25.484375 
L 43.21875 27.484375 
z
M 52.203125 31.203125 
L 52.203125 0 
L 43.21875 0 
L 43.21875 8.296875 
Q 40.140625 3.328125 35.546875 0.953125 
Q 30.953125 -1.421875 24.3125 -1.421875 
Q 15.921875 -1.421875 10.953125 3.296875 
Q 6 8.015625 6 15.921875 
Q 6 25.140625 12.171875 29.828125 
Q 18.359375 34.515625 30.609375 34.515625 
L 43.21875 34.515625 
L 43.21875 35.40625 
Q 43.21875 41.609375 39.140625 45 
Q 35.0625 48.390625 27.6875 48.390625 
Q 23 48.390625 18.546875 47.265625 
Q 14.109375 46.140625 10.015625 43.890625 
L 10.015625 52.203125 
Q 14.9375 54.109375 19.578125 55.046875 
Q 24.21875 56 28.609375 56 
Q 40.484375 56 46.34375 49.84375 
Q 52.203125 43.703125 52.203125 31.203125 
z
" id="DejaVuSans-97"/>
     <path d="M 9.421875 54.6875 
L 18.40625 54.6875 
L 18.40625 0 
L 9.421875 0 
z
M 9.421875 75.984375 
L 18.40625 75.984375 
L 18.40625 64.59375 
L 9.421875 64.59375 
z
" id="DejaVuSans-105"/>
     <path id="DejaVuSans-32"/>
     <path d="M 39.40625 66.21875 
Q 28.65625 66.21875 22.328125 58.203125 
Q 16.015625 50.203125 16.015625 36.375 
Q 16.015625 22.609375 22.328125 14.59375 
Q 28.65625 6.59375 39.40625 6.59375 
Q 50.140625 6.59375 56.421875 14.59375 
Q 62.703125 22.609375 62.703125 36.375 
Q 62.703125 50.203125 56.421875 58.203125 
Q 50.140625 66.21875 39.40625 66.21875 
z
M 39.40625 74.21875 
Q 54.734375 74.21875 63.90625 63.9375 
Q 73.09375 53.65625 73.09375 36.375 
Q 73.09375 19.140625 63.90625 8.859375 
Q 54.734375 -1.421875 39.40625 -1.421875 
Q 24.03125 -1.421875 14.8125 8.828125 
Q 5.609375 19.09375 5.609375 36.375 
Q 5.609375 53.65625 14.8125 63.9375 
Q 24.03125 74.21875 39.40625 74.21875 
z
" id="DejaVuSans-79"/>
     <path d="M 9.421875 75.984375 
L 18.40625 75.984375 
L 18.40625 0 
L 9.421875 0 
z
" id="DejaVuSans-108"/>
     <path d="M 41.109375 46.296875 
Q 39.59375 47.171875 37.8125 47.578125 
Q 36.03125 48 33.890625 48 
Q 26.265625 48 22.1875 43.046875 
Q 18.109375 38.09375 18.109375 28.8125 
L 18.109375 0 
L 9.078125 0 
L 9.078125 54.6875 
L 18.109375 54.6875 
L 18.109375 46.1875 
Q 20.953125 51.171875 25.484375 53.578125 
Q 30.03125 56 36.53125 56 
Q 37.453125 56 38.578125 55.875 
Q 39.703125 55.765625 41.0625 55.515625 
z
" id="DejaVuSans-114"/>
    </defs>
    <g transform="translate(648.39375 80.4)scale(0.12 -0.12)">
     <use xlink:href="#DejaVuSans-83"/>
     <use x="63.476562" xlink:href="#DejaVuSans-116"/>
     <use x="102.685547" xlink:href="#DejaVuSans-111"/>
     <use x="163.867188" xlink:href="#DejaVuSans-99"/>
     <use x="218.847656" xlink:href="#DejaVuSans-104"/>
     <use x="282.226562" xlink:href="#DejaVuSans-97"/>
     <use x="343.505859" xlink:href="#DejaVuSans-115"/>
     <use x="395.605469" xlink:href="#DejaVuSans-116"/>
     <use x="434.814453" xlink:href="#DejaVuSans-105"/>
     <use x="462.597656" xlink:href="#DejaVuSans-99"/>
     <use x="517.578125" xlink:href="#DejaVuSans-32"/>
     <use x="549.365234" xlink:href="#DejaVuSans-79"/>
     <use x="628.076172" xlink:href="#DejaVuSans-115"/>
     <use x="680.175781" xlink:href="#DejaVuSans-99"/>
     <use x="735.15625" xlink:href="#DejaVuSans-105"/>
     <use x="762.939453" xlink:href="#DejaVuSans-108"/>
     <use x="790.722656" xlink:href="#DejaVuSans-108"/>
     <use x="818.505859" xlink:href="#DejaVuSans-97"/>
     <use x="879.785156" xlink:href="#DejaVuSans-116"/>
     <use x="918.994141" xlink:href="#DejaVuSans-111"/>
     <use x="980.175781" xlink:href="#DejaVuSans-114"/>
     <use x="1021.289062" xlink:href="#DejaVuSans-32"/>
     <use x="1053.076172" xlink:href="#DejaVuSans-83"/>
     <use x="1116.552734" xlink:href="#DejaVuSans-112"/>
     <use x="1180.029297" xlink:href="#DejaVuSans-101"/>
     <use x="1241.552734" xlink:href="#DejaVuSans-101"/>
     <use x="1303.076172" xlink:href="#DejaVuSans-100"/>
     <use x="1366.552734" xlink:href="#DejaVuSans-117"/>
     <use x="1429.931641" xlink:href="#DejaVuSans-112"/>
    </g>
   </g>
   <g id="legend_1">
    <g id="patch_7">
     <path d="M 1185.373437 123.75625 
L 1289 123.75625 
Q 1291 123.75625 1291 121.75625 
L 1291 93.4 
Q 1291 91.4 1289 91.4 
L 1185.373437 91.4 
Q 1183.373437 91.4 1183.373437 93.4 
L 1183.373437 121.75625 
Q 1183.373437 123.75625 1185.373437 123.75625 
z
" style="fill:#ffffff;opacity:0.8;stroke:#cccccc;stroke-linejoin:miter;"/>
    </g>
    <g id="line2d_19">
     <path d="M 1187.373437 99.498437 
L 1207.373437 99.498437 
" style="fill:none;stroke:#1f77b4;stroke-linecap:square;stroke-width:1.5;"/>
    </g>
    <g id="line2d_20"/>
    <g id="text_20">
     <!-- numpy.float32 -->
     <defs>
      <path d="M 52 44.1875 
Q 55.375 50.25 60.0625 53.125 
Q 64.75 56 71.09375 56 
Q 79.640625 56 84.28125 50.015625 
Q 88.921875 44.046875 88.921875 33.015625 
L 88.921875 0 
L 79.890625 0 
L 79.890625 32.71875 
Q 79.890625 40.578125 77.09375 44.375 
Q 74.3125 48.1875 68.609375 48.1875 
Q 61.625 48.1875 57.5625 43.546875 
Q 53.515625 38.921875 53.515625 30.90625 
L 53.515625 0 
L 44.484375 0 
L 44.484375 32.71875 
Q 44.484375 40.625 41.703125 44.40625 
Q 38.921875 48.1875 33.109375 48.1875 
Q 26.21875 48.1875 22.15625 43.53125 
Q 18.109375 38.875 18.109375 30.90625 
L 18.109375 0 
L 9.078125 0 
L 9.078125 54.6875 
L 18.109375 54.6875 
L 18.109375 46.1875 
Q 21.1875 51.21875 25.484375 53.609375 
Q 29.78125 56 35.6875 56 
Q 41.65625 56 45.828125 52.96875 
Q 50 49.953125 52 44.1875 
z
" id="DejaVuSans-109"/>
      <path d="M 32.171875 -5.078125 
Q 28.375 -14.84375 24.75 -17.8125 
Q 21.140625 -20.796875 15.09375 -20.796875 
L 7.90625 -20.796875 
L 7.90625 -13.28125 
L 13.1875 -13.28125 
Q 16.890625 -13.28125 18.9375 -11.515625 
Q 21 -9.765625 23.484375 -3.21875 
L 25.09375 0.875 
L 2.984375 54.6875 
L 12.5 54.6875 
L 29.59375 11.921875 
L 46.6875 54.6875 
L 56.203125 54.6875 
z
" id="DejaVuSans-121"/>
      <path d="M 37.109375 75.984375 
L 37.109375 68.5 
L 28.515625 68.5 
Q 23.6875 68.5 21.796875 66.546875 
Q 19.921875 64.59375 19.921875 59.515625 
L 19.921875 54.6875 
L 34.71875 54.6875 
L 34.71875 47.703125 
L 19.921875 47.703125 
L 19.921875 0 
L 10.890625 0 
L 10.890625 47.703125 
L 2.296875 47.703125 
L 2.296875 54.6875 
L 10.890625 54.6875 
L 10.890625 58.5 
Q 10.890625 67.625 15.140625 71.796875 
Q 19.390625 75.984375 28.609375 75.984375 
z
" id="DejaVuSans-102"/>
     </defs>
     <g transform="translate(1215.373437 102.998437)scale(0.1 -0.1)">
      <use xlink:href="#DejaVuSans-110"/>
      <use x="63.378906" xlink:href="#DejaVuSans-117"/>
      <use x="126.757812" xlink:href="#DejaVuSans-109"/>
      <use x="224.169922" xlink:href="#DejaVuSans-112"/>
      <use x="287.646484" xlink:href="#DejaVuSans-121"/>
      <use x="332.576172" xlink:href="#DejaVuSans-46"/>
      <use x="364.363281" xlink:href="#DejaVuSans-102"/>
      <use x="399.568359" xlink:href="#DejaVuSans-108"/>
      <use x="427.351562" xlink:href="#DejaVuSans-111"/>
      <use x="488.533203" xlink:href="#DejaVuSans-97"/>
      <use x="549.8125" xlink:href="#DejaVuSans-116"/>
      <use x="589.021484" xlink:href="#DejaVuSans-51"/>
      <use x="652.644531" xlink:href="#DejaVuSans-50"/>
     </g>
    </g>
    <g id="line2d_21">
     <path d="M 1187.373437 114.176562 
L 1207.373437 114.176562 
" style="fill:none;stroke:#ff7f0e;stroke-linecap:square;stroke-width:1.5;"/>
    </g>
    <g id="line2d_22"/>
    <g id="text_21">
     <!-- numpy.float64 -->
     <g transform="translate(1215.373437 117.676562)scale(0.1 -0.1)">
      <use xlink:href="#DejaVuSans-110"/>
      <use x="63.378906" xlink:href="#DejaVuSans-117"/>
      <use x="126.757812" xlink:href="#DejaVuSans-109"/>
      <use x="224.169922" xlink:href="#DejaVuSans-112"/>
      <use x="287.646484" xlink:href="#DejaVuSans-121"/>
      <use x="332.576172" xlink:href="#DejaVuSans-46"/>
      <use x="364.363281" xlink:href="#DejaVuSans-102"/>
      <use x="399.568359" xlink:href="#DejaVuSans-108"/>
      <use x="427.351562" xlink:href="#DejaVuSans-111"/>
      <use x="488.533203" xlink:href="#DejaVuSans-97"/>
      <use x="549.8125" xlink:href="#DejaVuSans-116"/>
      <use x="589.021484" xlink:href="#DejaVuSans-54"/>
      <use x="652.644531" xlink:href="#DejaVuSans-52"/>
     </g>
    </g>
   </g>
  </g>
 </g>
 <defs>
  <clipPath id="p9dcfa776ad">
   <rect height="554.4" width="1116" x="180" y="86.4"/>
  </clipPath>
 </defs>
</svg>
