<?xml version="1.0" encoding="utf-8" standalone="no"?>
<!DOCTYPE svg PUBLIC "-//W3C//DTD SVG 1.1//EN"
  "http://www.w3.org/Graphics/SVG/1.1/DTD/svg11.dtd">
<!-- Created with matplotlib (https://matplotlib.org/) -->
<svg height="720pt" version="1.1" viewBox="0 0 1440 720" width="1440pt" xmlns="http://www.w3.org/2000/svg" xmlns:xlink="http://www.w3.org/1999/xlink">
 <defs>
  <style type="text/css">
*{stroke-linecap:butt;stroke-linejoin:round;}
  </style>
 </defs>
 <g id="figure_1">
  <g id="patch_1">
   <path d="M 0 720 
L 1440 720 
L 1440 0 
L 0 0 
z
" style="fill:#ffffff;"/>
  </g>
  <g id="axes_1">
   <g id="patch_2">
    <path d="M 180 640.8 
L 1296 640.8 
L 1296 86.4 
L 180 86.4 
z
" style="fill:#ffffff;"/>
   </g>
   <g id="matplotlib.axis_1">
    <g id="xtick_1">
     <g id="line2d_1">
      <defs>
       <path d="M 0 0 
L 0 3.5 
" id="m51222acd53" style="stroke:#000000;stroke-width:0.8;"/>
      </defs>
      <g>
       <use style="stroke:#000000;stroke-width:0.8;" x="333.310231" xlink:href="#m51222acd53" y="640.8"/>
      </g>
     </g>
     <g id="text_1">
      <!-- 100.0 -->
      <defs>
       <path d="M 12.40625 8.296875 
L 28.515625 8.296875 
L 28.515625 63.921875 
L 10.984375 60.40625 
L 10.984375 69.390625 
L 28.421875 72.90625 
L 38.28125 72.90625 
L 38.28125 8.296875 
L 54.390625 8.296875 
L 54.390625 0 
L 12.40625 0 
z
" id="DejaVuSans-49"/>
       <path d="M 31.78125 66.40625 
Q 24.171875 66.40625 20.328125 58.90625 
Q 16.5 51.421875 16.5 36.375 
Q 16.5 21.390625 20.328125 13.890625 
Q 24.171875 6.390625 31.78125 6.390625 
Q 39.453125 6.390625 43.28125 13.890625 
Q 47.125 21.390625 47.125 36.375 
Q 47.125 51.421875 43.28125 58.90625 
Q 39.453125 66.40625 31.78125 66.40625 
z
M 31.78125 74.21875 
Q 44.046875 74.21875 50.515625 64.515625 
Q 56.984375 54.828125 56.984375 36.375 
Q 56.984375 17.96875 50.515625 8.265625 
Q 44.046875 -1.421875 31.78125 -1.421875 
Q 19.53125 -1.421875 13.0625 8.265625 
Q 6.59375 17.96875 6.59375 36.375 
Q 6.59375 54.828125 13.0625 64.515625 
Q 19.53125 74.21875 31.78125 74.21875 
z
" id="DejaVuSans-48"/>
       <path d="M 10.6875 12.40625 
L 21 12.40625 
L 21 0 
L 10.6875 0 
z
" id="DejaVuSans-46"/>
      </defs>
      <g transform="translate(318.996168 655.398438)scale(0.1 -0.1)">
       <use xlink:href="#DejaVuSans-49"/>
       <use x="63.623047" xlink:href="#DejaVuSans-48"/>
       <use x="127.246094" xlink:href="#DejaVuSans-48"/>
       <use x="190.869141" xlink:href="#DejaVuSans-46"/>
       <use x="222.65625" xlink:href="#DejaVuSans-48"/>
      </g>
     </g>
    </g>
    <g id="xtick_2">
     <g id="line2d_2">
      <g>
       <use style="stroke:#000000;stroke-width:0.8;" x="435.893189" xlink:href="#m51222acd53" y="640.8"/>
      </g>
     </g>
     <g id="text_2">
      <!-- 200.0 -->
      <defs>
       <path d="M 19.1875 8.296875 
L 53.609375 8.296875 
L 53.609375 0 
L 7.328125 0 
L 7.328125 8.296875 
Q 12.9375 14.109375 22.625 23.890625 
Q 32.328125 33.6875 34.8125 36.53125 
Q 39.546875 41.84375 41.421875 45.53125 
Q 43.3125 49.21875 43.3125 52.78125 
Q 43.3125 58.59375 39.234375 62.25 
Q 35.15625 65.921875 28.609375 65.921875 
Q 23.96875 65.921875 18.8125 64.3125 
Q 13.671875 62.703125 7.8125 59.421875 
L 7.8125 69.390625 
Q 13.765625 71.78125 18.9375 73 
Q 24.125 74.21875 28.421875 74.21875 
Q 39.75 74.21875 46.484375 68.546875 
Q 53.21875 62.890625 53.21875 53.421875 
Q 53.21875 48.921875 51.53125 44.890625 
Q 49.859375 40.875 45.40625 35.40625 
Q 44.1875 33.984375 37.640625 27.21875 
Q 31.109375 20.453125 19.1875 8.296875 
z
" id="DejaVuSans-50"/>
      </defs>
      <g transform="translate(421.579126 655.398438)scale(0.1 -0.1)">
       <use xlink:href="#DejaVuSans-50"/>
       <use x="63.623047" xlink:href="#DejaVuSans-48"/>
       <use x="127.246094" xlink:href="#DejaVuSans-48"/>
       <use x="190.869141" xlink:href="#DejaVuSans-46"/>
       <use x="222.65625" xlink:href="#DejaVuSans-48"/>
      </g>
     </g>
    </g>
    <g id="xtick_3">
     <g id="line2d_3">
      <g>
       <use style="stroke:#000000;stroke-width:0.8;" x="538.476147" xlink:href="#m51222acd53" y="640.8"/>
      </g>
     </g>
     <g id="text_3">
      <!-- 300.0 -->
      <defs>
       <path d="M 40.578125 39.3125 
Q 47.65625 37.796875 51.625 33 
Q 55.609375 28.21875 55.609375 21.1875 
Q 55.609375 10.40625 48.1875 4.484375 
Q 40.765625 -1.421875 27.09375 -1.421875 
Q 22.515625 -1.421875 17.65625 -0.515625 
Q 12.796875 0.390625 7.625 2.203125 
L 7.625 11.71875 
Q 11.71875 9.328125 16.59375 8.109375 
Q 21.484375 6.890625 26.8125 6.890625 
Q 36.078125 6.890625 40.9375 10.546875 
Q 45.796875 14.203125 45.796875 21.1875 
Q 45.796875 27.640625 41.28125 31.265625 
Q 36.765625 34.90625 28.71875 34.90625 
L 20.21875 34.90625 
L 20.21875 43.015625 
L 29.109375 43.015625 
Q 36.375 43.015625 40.234375 45.921875 
Q 44.09375 48.828125 44.09375 54.296875 
Q 44.09375 59.90625 40.109375 62.90625 
Q 36.140625 65.921875 28.71875 65.921875 
Q 24.65625 65.921875 20.015625 65.03125 
Q 15.375 64.15625 9.8125 62.3125 
L 9.8125 71.09375 
Q 15.4375 72.65625 20.34375 73.4375 
Q 25.25 74.21875 29.59375 74.21875 
Q 40.828125 74.21875 47.359375 69.109375 
Q 53.90625 64.015625 53.90625 55.328125 
Q 53.90625 49.265625 50.4375 45.09375 
Q 46.96875 40.921875 40.578125 39.3125 
z
" id="DejaVuSans-51"/>
      </defs>
      <g transform="translate(524.162084 655.398438)scale(0.1 -0.1)">
       <use xlink:href="#DejaVuSans-51"/>
       <use x="63.623047" xlink:href="#DejaVuSans-48"/>
       <use x="127.246094" xlink:href="#DejaVuSans-48"/>
       <use x="190.869141" xlink:href="#DejaVuSans-46"/>
       <use x="222.65625" xlink:href="#DejaVuSans-48"/>
      </g>
     </g>
    </g>
    <g id="xtick_4">
     <g id="line2d_4">
      <g>
       <use style="stroke:#000000;stroke-width:0.8;" x="641.059105" xlink:href="#m51222acd53" y="640.8"/>
      </g>
     </g>
     <g id="text_4">
      <!-- 400.0 -->
      <defs>
       <path d="M 37.796875 64.3125 
L 12.890625 25.390625 
L 37.796875 25.390625 
z
M 35.203125 72.90625 
L 47.609375 72.90625 
L 47.609375 25.390625 
L 58.015625 25.390625 
L 58.015625 17.1875 
L 47.609375 17.1875 
L 47.609375 0 
L 37.796875 0 
L 37.796875 17.1875 
L 4.890625 17.1875 
L 4.890625 26.703125 
z
" id="DejaVuSans-52"/>
      </defs>
      <g transform="translate(626.745042 655.398438)scale(0.1 -0.1)">
       <use xlink:href="#DejaVuSans-52"/>
       <use x="63.623047" xlink:href="#DejaVuSans-48"/>
       <use x="127.246094" xlink:href="#DejaVuSans-48"/>
       <use x="190.869141" xlink:href="#DejaVuSans-46"/>
       <use x="222.65625" xlink:href="#DejaVuSans-48"/>
      </g>
     </g>
    </g>
    <g id="xtick_5">
     <g id="line2d_5">
      <g>
       <use style="stroke:#000000;stroke-width:0.8;" x="743.642063" xlink:href="#m51222acd53" y="640.8"/>
      </g>
     </g>
     <g id="text_5">
      <!-- 500.0 -->
      <defs>
       <path d="M 10.796875 72.90625 
L 49.515625 72.90625 
L 49.515625 64.59375 
L 19.828125 64.59375 
L 19.828125 46.734375 
Q 21.96875 47.46875 24.109375 47.828125 
Q 26.265625 48.1875 28.421875 48.1875 
Q 40.625 48.1875 47.75 41.5 
Q 54.890625 34.8125 54.890625 23.390625 
Q 54.890625 11.625 47.5625 5.09375 
Q 40.234375 -1.421875 26.90625 -1.421875 
Q 22.3125 -1.421875 17.546875 -0.640625 
Q 12.796875 0.140625 7.71875 1.703125 
L 7.71875 11.625 
Q 12.109375 9.234375 16.796875 8.0625 
Q 21.484375 6.890625 26.703125 6.890625 
Q 35.15625 6.890625 40.078125 11.328125 
Q 45.015625 15.765625 45.015625 23.390625 
Q 45.015625 31 40.078125 35.4375 
Q 35.15625 39.890625 26.703125 39.890625 
Q 22.75 39.890625 18.8125 39.015625 
Q 14.890625 38.140625 10.796875 36.28125 
z
" id="DejaVuSans-53"/>
      </defs>
      <g transform="translate(729.328 655.398438)scale(0.1 -0.1)">
       <use xlink:href="#DejaVuSans-53"/>
       <use x="63.623047" xlink:href="#DejaVuSans-48"/>
       <use x="127.246094" xlink:href="#DejaVuSans-48"/>
       <use x="190.869141" xlink:href="#DejaVuSans-46"/>
       <use x="222.65625" xlink:href="#DejaVuSans-48"/>
      </g>
     </g>
    </g>
    <g id="xtick_6">
     <g id="line2d_6">
      <g>
       <use style="stroke:#000000;stroke-width:0.8;" x="846.225021" xlink:href="#m51222acd53" y="640.8"/>
      </g>
     </g>
     <g id="text_6">
      <!-- 600.0 -->
      <defs>
       <path d="M 33.015625 40.375 
Q 26.375 40.375 22.484375 35.828125 
Q 18.609375 31.296875 18.609375 23.390625 
Q 18.609375 15.53125 22.484375 10.953125 
Q 26.375 6.390625 33.015625 6.390625 
Q 39.65625 6.390625 43.53125 10.953125 
Q 47.40625 15.53125 47.40625 23.390625 
Q 47.40625 31.296875 43.53125 35.828125 
Q 39.65625 40.375 33.015625 40.375 
z
M 52.59375 71.296875 
L 52.59375 62.3125 
Q 48.875 64.0625 45.09375 64.984375 
Q 41.3125 65.921875 37.59375 65.921875 
Q 27.828125 65.921875 22.671875 59.328125 
Q 17.53125 52.734375 16.796875 39.40625 
Q 19.671875 43.65625 24.015625 45.921875 
Q 28.375 48.1875 33.59375 48.1875 
Q 44.578125 48.1875 50.953125 41.515625 
Q 57.328125 34.859375 57.328125 23.390625 
Q 57.328125 12.15625 50.6875 5.359375 
Q 44.046875 -1.421875 33.015625 -1.421875 
Q 20.359375 -1.421875 13.671875 8.265625 
Q 6.984375 17.96875 6.984375 36.375 
Q 6.984375 53.65625 15.1875 63.9375 
Q 23.390625 74.21875 37.203125 74.21875 
Q 40.921875 74.21875 44.703125 73.484375 
Q 48.484375 72.75 52.59375 71.296875 
z
" id="DejaVuSans-54"/>
      </defs>
      <g transform="translate(831.910958 655.398438)scale(0.1 -0.1)">
       <use xlink:href="#DejaVuSans-54"/>
       <use x="63.623047" xlink:href="#DejaVuSans-48"/>
       <use x="127.246094" xlink:href="#DejaVuSans-48"/>
       <use x="190.869141" xlink:href="#DejaVuSans-46"/>
       <use x="222.65625" xlink:href="#DejaVuSans-48"/>
      </g>
     </g>
    </g>
    <g id="xtick_7">
     <g id="line2d_7">
      <g>
       <use style="stroke:#000000;stroke-width:0.8;" x="948.807979" xlink:href="#m51222acd53" y="640.8"/>
      </g>
     </g>
     <g id="text_7">
      <!-- 700.0 -->
      <defs>
       <path d="M 8.203125 72.90625 
L 55.078125 72.90625 
L 55.078125 68.703125 
L 28.609375 0 
L 18.3125 0 
L 43.21875 64.59375 
L 8.203125 64.59375 
z
" id="DejaVuSans-55"/>
      </defs>
      <g transform="translate(934.493916 655.398438)scale(0.1 -0.1)">
       <use xlink:href="#DejaVuSans-55"/>
       <use x="63.623047" xlink:href="#DejaVuSans-48"/>
       <use x="127.246094" xlink:href="#DejaVuSans-48"/>
       <use x="190.869141" xlink:href="#DejaVuSans-46"/>
       <use x="222.65625" xlink:href="#DejaVuSans-48"/>
      </g>
     </g>
    </g>
    <g id="xtick_8">
     <g id="line2d_8">
      <g>
       <use style="stroke:#000000;stroke-width:0.8;" x="1051.390937" xlink:href="#m51222acd53" y="640.8"/>
      </g>
     </g>
     <g id="text_8">
      <!-- 800.0 -->
      <defs>
       <path d="M 31.78125 34.625 
Q 24.75 34.625 20.71875 30.859375 
Q 16.703125 27.09375 16.703125 20.515625 
Q 16.703125 13.921875 20.71875 10.15625 
Q 24.75 6.390625 31.78125 6.390625 
Q 38.8125 6.390625 42.859375 10.171875 
Q 46.921875 13.96875 46.921875 20.515625 
Q 46.921875 27.09375 42.890625 30.859375 
Q 38.875 34.625 31.78125 34.625 
z
M 21.921875 38.8125 
Q 15.578125 40.375 12.03125 44.71875 
Q 8.5 49.078125 8.5 55.328125 
Q 8.5 64.0625 14.71875 69.140625 
Q 20.953125 74.21875 31.78125 74.21875 
Q 42.671875 74.21875 48.875 69.140625 
Q 55.078125 64.0625 55.078125 55.328125 
Q 55.078125 49.078125 51.53125 44.71875 
Q 48 40.375 41.703125 38.8125 
Q 48.828125 37.15625 52.796875 32.3125 
Q 56.78125 27.484375 56.78125 20.515625 
Q 56.78125 9.90625 50.3125 4.234375 
Q 43.84375 -1.421875 31.78125 -1.421875 
Q 19.734375 -1.421875 13.25 4.234375 
Q 6.78125 9.90625 6.78125 20.515625 
Q 6.78125 27.484375 10.78125 32.3125 
Q 14.796875 37.15625 21.921875 38.8125 
z
M 18.3125 54.390625 
Q 18.3125 48.734375 21.84375 45.5625 
Q 25.390625 42.390625 31.78125 42.390625 
Q 38.140625 42.390625 41.71875 45.5625 
Q 45.3125 48.734375 45.3125 54.390625 
Q 45.3125 60.0625 41.71875 63.234375 
Q 38.140625 66.40625 31.78125 66.40625 
Q 25.390625 66.40625 21.84375 63.234375 
Q 18.3125 60.0625 18.3125 54.390625 
z
" id="DejaVuSans-56"/>
      </defs>
      <g transform="translate(1037.076874 655.398438)scale(0.1 -0.1)">
       <use xlink:href="#DejaVuSans-56"/>
       <use x="63.623047" xlink:href="#DejaVuSans-48"/>
       <use x="127.246094" xlink:href="#DejaVuSans-48"/>
       <use x="190.869141" xlink:href="#DejaVuSans-46"/>
       <use x="222.65625" xlink:href="#DejaVuSans-48"/>
      </g>
     </g>
    </g>
    <g id="xtick_9">
     <g id="line2d_9">
      <g>
       <use style="stroke:#000000;stroke-width:0.8;" x="1153.973895" xlink:href="#m51222acd53" y="640.8"/>
      </g>
     </g>
     <g id="text_9">
      <!-- 900.0 -->
      <defs>
       <path d="M 10.984375 1.515625 
L 10.984375 10.5 
Q 14.703125 8.734375 18.5 7.8125 
Q 22.3125 6.890625 25.984375 6.890625 
Q 35.75 6.890625 40.890625 13.453125 
Q 46.046875 20.015625 46.78125 33.40625 
Q 43.953125 29.203125 39.59375 26.953125 
Q 35.25 24.703125 29.984375 24.703125 
Q 19.046875 24.703125 12.671875 31.3125 
Q 6.296875 37.9375 6.296875 49.421875 
Q 6.296875 60.640625 12.9375 67.421875 
Q 19.578125 74.21875 30.609375 74.21875 
Q 43.265625 74.21875 49.921875 64.515625 
Q 56.59375 54.828125 56.59375 36.375 
Q 56.59375 19.140625 48.40625 8.859375 
Q 40.234375 -1.421875 26.421875 -1.421875 
Q 22.703125 -1.421875 18.890625 -0.6875 
Q 15.09375 0.046875 10.984375 1.515625 
z
M 30.609375 32.421875 
Q 37.25 32.421875 41.125 36.953125 
Q 45.015625 41.5 45.015625 49.421875 
Q 45.015625 57.28125 41.125 61.84375 
Q 37.25 66.40625 30.609375 66.40625 
Q 23.96875 66.40625 20.09375 61.84375 
Q 16.21875 57.28125 16.21875 49.421875 
Q 16.21875 41.5 20.09375 36.953125 
Q 23.96875 32.421875 30.609375 32.421875 
z
" id="DejaVuSans-57"/>
      </defs>
      <g transform="translate(1139.659832 655.398438)scale(0.1 -0.1)">
       <use xlink:href="#DejaVuSans-57"/>
       <use x="63.623047" xlink:href="#DejaVuSans-48"/>
       <use x="127.246094" xlink:href="#DejaVuSans-48"/>
       <use x="190.869141" xlink:href="#DejaVuSans-46"/>
       <use x="222.65625" xlink:href="#DejaVuSans-48"/>
      </g>
     </g>
    </g>
    <g id="xtick_10">
     <g id="line2d_10">
      <g>
       <use style="stroke:#000000;stroke-width:0.8;" x="1256.556853" xlink:href="#m51222acd53" y="640.8"/>
      </g>
     </g>
     <g id="text_10">
      <!-- 1000.0 -->
      <g transform="translate(1239.06154 655.398438)scale(0.1 -0.1)">
       <use xlink:href="#DejaVuSans-49"/>
       <use x="63.623047" xlink:href="#DejaVuSans-48"/>
       <use x="127.246094" xlink:href="#DejaVuSans-48"/>
       <use x="190.869141" xlink:href="#DejaVuSans-48"/>
       <use x="254.492188" xlink:href="#DejaVuSans-46"/>
       <use x="286.279297" xlink:href="#DejaVuSans-48"/>
      </g>
     </g>
    </g>
    <g id="text_11">
     <!-- n -->
     <defs>
      <path d="M 54.890625 33.015625 
L 54.890625 0 
L 45.90625 0 
L 45.90625 32.71875 
Q 45.90625 40.484375 42.875 44.328125 
Q 39.84375 48.1875 33.796875 48.1875 
Q 26.515625 48.1875 22.3125 43.546875 
Q 18.109375 38.921875 18.109375 30.90625 
L 18.109375 0 
L 9.078125 0 
L 9.078125 54.6875 
L 18.109375 54.6875 
L 18.109375 46.1875 
Q 21.34375 51.125 25.703125 53.5625 
Q 30.078125 56 35.796875 56 
Q 45.21875 56 50.046875 50.171875 
Q 54.890625 44.34375 54.890625 33.015625 
z
" id="DejaVuSans-110"/>
     </defs>
     <g transform="translate(734.83125 669.076563)scale(0.1 -0.1)">
      <use xlink:href="#DejaVuSans-110"/>
     </g>
    </g>
   </g>
   <g id="matplotlib.axis_2">
    <g id="ytick_1">
     <g id="line2d_11">
      <defs>
       <path d="M 0 0 
L -3.5 0 
" id="md13b86edf8" style="stroke:#000000;stroke-width:0.8;"/>
      </defs>
      <g>
       <use style="stroke:#000000;stroke-width:0.8;" x="180" xlink:href="#md13b86edf8" y="627.124762"/>
      </g>
     </g>
     <g id="text_12">
      <!-- 0 -->
      <g transform="translate(166.6375 630.923981)scale(0.1 -0.1)">
       <use xlink:href="#DejaVuSans-48"/>
      </g>
     </g>
    </g>
    <g id="ytick_2">
     <g id="line2d_12">
      <g>
       <use style="stroke:#000000;stroke-width:0.8;" x="180" xlink:href="#md13b86edf8" y="562.174887"/>
      </g>
     </g>
     <g id="text_13">
      <!-- 50 -->
      <g transform="translate(160.275 565.974106)scale(0.1 -0.1)">
       <use xlink:href="#DejaVuSans-53"/>
       <use x="63.623047" xlink:href="#DejaVuSans-48"/>
      </g>
     </g>
    </g>
    <g id="ytick_3">
     <g id="line2d_13">
      <g>
       <use style="stroke:#000000;stroke-width:0.8;" x="180" xlink:href="#md13b86edf8" y="497.225012"/>
      </g>
     </g>
     <g id="text_14">
      <!-- 100 -->
      <g transform="translate(153.9125 501.024231)scale(0.1 -0.1)">
       <use xlink:href="#DejaVuSans-49"/>
       <use x="63.623047" xlink:href="#DejaVuSans-48"/>
       <use x="127.246094" xlink:href="#DejaVuSans-48"/>
      </g>
     </g>
    </g>
    <g id="ytick_4">
     <g id="line2d_14">
      <g>
       <use style="stroke:#000000;stroke-width:0.8;" x="180" xlink:href="#md13b86edf8" y="432.275137"/>
      </g>
     </g>
     <g id="text_15">
      <!-- 150 -->
      <g transform="translate(153.9125 436.074356)scale(0.1 -0.1)">
       <use xlink:href="#DejaVuSans-49"/>
       <use x="63.623047" xlink:href="#DejaVuSans-53"/>
       <use x="127.246094" xlink:href="#DejaVuSans-48"/>
      </g>
     </g>
    </g>
    <g id="ytick_5">
     <g id="line2d_15">
      <g>
       <use style="stroke:#000000;stroke-width:0.8;" x="180" xlink:href="#md13b86edf8" y="367.325262"/>
      </g>
     </g>
     <g id="text_16">
      <!-- 200 -->
      <g transform="translate(153.9125 371.12448)scale(0.1 -0.1)">
       <use xlink:href="#DejaVuSans-50"/>
       <use x="63.623047" xlink:href="#DejaVuSans-48"/>
       <use x="127.246094" xlink:href="#DejaVuSans-48"/>
      </g>
     </g>
    </g>
    <g id="ytick_6">
     <g id="line2d_16">
      <g>
       <use style="stroke:#000000;stroke-width:0.8;" x="180" xlink:href="#md13b86edf8" y="302.375387"/>
      </g>
     </g>
     <g id="text_17">
      <!-- 250 -->
      <g transform="translate(153.9125 306.174605)scale(0.1 -0.1)">
       <use xlink:href="#DejaVuSans-50"/>
       <use x="63.623047" xlink:href="#DejaVuSans-53"/>
       <use x="127.246094" xlink:href="#DejaVuSans-48"/>
      </g>
     </g>
    </g>
    <g id="ytick_7">
     <g id="line2d_17">
      <g>
       <use style="stroke:#000000;stroke-width:0.8;" x="180" xlink:href="#md13b86edf8" y="237.425511"/>
      </g>
     </g>
     <g id="text_18">
      <!-- 300 -->
      <g transform="translate(153.9125 241.22473)scale(0.1 -0.1)">
       <use xlink:href="#DejaVuSans-51"/>
       <use x="63.623047" xlink:href="#DejaVuSans-48"/>
       <use x="127.246094" xlink:href="#DejaVuSans-48"/>
      </g>
     </g>
    </g>
    <g id="ytick_8">
     <g id="line2d_18">
      <g>
       <use style="stroke:#000000;stroke-width:0.8;" x="180" xlink:href="#md13b86edf8" y="172.475636"/>
      </g>
     </g>
     <g id="text_19">
      <!-- 350 -->
      <g transform="translate(153.9125 176.274855)scale(0.1 -0.1)">
       <use xlink:href="#DejaVuSans-51"/>
       <use x="63.623047" xlink:href="#DejaVuSans-53"/>
       <use x="127.246094" xlink:href="#DejaVuSans-48"/>
      </g>
     </g>
    </g>
    <g id="ytick_9">
     <g id="line2d_19">
      <g>
       <use style="stroke:#000000;stroke-width:0.8;" x="180" xlink:href="#md13b86edf8" y="107.525761"/>
      </g>
     </g>
     <g id="text_20">
      <!-- 400 -->
      <g transform="translate(153.9125 111.32498)scale(0.1 -0.1)">
       <use xlink:href="#DejaVuSans-52"/>
       <use x="63.623047" xlink:href="#DejaVuSans-48"/>
       <use x="127.246094" xlink:href="#DejaVuSans-48"/>
      </g>
     </g>
    </g>
    <g id="text_21">
     <!-- speedup -->
     <defs>
      <path d="M 44.28125 53.078125 
L 44.28125 44.578125 
Q 40.484375 46.53125 36.375 47.5 
Q 32.28125 48.484375 27.875 48.484375 
Q 21.1875 48.484375 17.84375 46.4375 
Q 14.5 44.390625 14.5 40.28125 
Q 14.5 37.15625 16.890625 35.375 
Q 19.28125 33.59375 26.515625 31.984375 
L 29.59375 31.296875 
Q 39.15625 29.25 43.1875 25.515625 
Q 47.21875 21.78125 47.21875 15.09375 
Q 47.21875 7.46875 41.1875 3.015625 
Q 35.15625 -1.421875 24.609375 -1.421875 
Q 20.21875 -1.421875 15.453125 -0.5625 
Q 10.6875 0.296875 5.421875 2 
L 5.421875 11.28125 
Q 10.40625 8.6875 15.234375 7.390625 
Q 20.0625 6.109375 24.8125 6.109375 
Q 31.15625 6.109375 34.5625 8.28125 
Q 37.984375 10.453125 37.984375 14.40625 
Q 37.984375 18.0625 35.515625 20.015625 
Q 33.0625 21.96875 24.703125 23.78125 
L 21.578125 24.515625 
Q 13.234375 26.265625 9.515625 29.90625 
Q 5.8125 33.546875 5.8125 39.890625 
Q 5.8125 47.609375 11.28125 51.796875 
Q 16.75 56 26.8125 56 
Q 31.78125 56 36.171875 55.265625 
Q 40.578125 54.546875 44.28125 53.078125 
z
" id="DejaVuSans-115"/>
      <path d="M 18.109375 8.203125 
L 18.109375 -20.796875 
L 9.078125 -20.796875 
L 9.078125 54.6875 
L 18.109375 54.6875 
L 18.109375 46.390625 
Q 20.953125 51.265625 25.265625 53.625 
Q 29.59375 56 35.59375 56 
Q 45.5625 56 51.78125 48.09375 
Q 58.015625 40.1875 58.015625 27.296875 
Q 58.015625 14.40625 51.78125 6.484375 
Q 45.5625 -1.421875 35.59375 -1.421875 
Q 29.59375 -1.421875 25.265625 0.953125 
Q 20.953125 3.328125 18.109375 8.203125 
z
M 48.6875 27.296875 
Q 48.6875 37.203125 44.609375 42.84375 
Q 40.53125 48.484375 33.40625 48.484375 
Q 26.265625 48.484375 22.1875 42.84375 
Q 18.109375 37.203125 18.109375 27.296875 
Q 18.109375 17.390625 22.1875 11.75 
Q 26.265625 6.109375 33.40625 6.109375 
Q 40.53125 6.109375 44.609375 11.75 
Q 48.6875 17.390625 48.6875 27.296875 
z
" id="DejaVuSans-112"/>
      <path d="M 56.203125 29.59375 
L 56.203125 25.203125 
L 14.890625 25.203125 
Q 15.484375 15.921875 20.484375 11.0625 
Q 25.484375 6.203125 34.421875 6.203125 
Q 39.59375 6.203125 44.453125 7.46875 
Q 49.3125 8.734375 54.109375 11.28125 
L 54.109375 2.78125 
Q 49.265625 0.734375 44.1875 -0.34375 
Q 39.109375 -1.421875 33.890625 -1.421875 
Q 20.796875 -1.421875 13.15625 6.1875 
Q 5.515625 13.8125 5.515625 26.8125 
Q 5.515625 40.234375 12.765625 48.109375 
Q 20.015625 56 32.328125 56 
Q 43.359375 56 49.78125 48.890625 
Q 56.203125 41.796875 56.203125 29.59375 
z
M 47.21875 32.234375 
Q 47.125 39.59375 43.09375 43.984375 
Q 39.0625 48.390625 32.421875 48.390625 
Q 24.90625 48.390625 20.390625 44.140625 
Q 15.875 39.890625 15.1875 32.171875 
z
" id="DejaVuSans-101"/>
      <path d="M 45.40625 46.390625 
L 45.40625 75.984375 
L 54.390625 75.984375 
L 54.390625 0 
L 45.40625 0 
L 45.40625 8.203125 
Q 42.578125 3.328125 38.25 0.953125 
Q 33.9375 -1.421875 27.875 -1.421875 
Q 17.96875 -1.421875 11.734375 6.484375 
Q 5.515625 14.40625 5.515625 27.296875 
Q 5.515625 40.1875 11.734375 48.09375 
Q 17.96875 56 27.875 56 
Q 33.9375 56 38.25 53.625 
Q 42.578125 51.265625 45.40625 46.390625 
z
M 14.796875 27.296875 
Q 14.796875 17.390625 18.875 11.75 
Q 22.953125 6.109375 30.078125 6.109375 
Q 37.203125 6.109375 41.296875 11.75 
Q 45.40625 17.390625 45.40625 27.296875 
Q 45.40625 37.203125 41.296875 42.84375 
Q 37.203125 48.484375 30.078125 48.484375 
Q 22.953125 48.484375 18.875 42.84375 
Q 14.796875 37.203125 14.796875 27.296875 
z
" id="DejaVuSans-100"/>
      <path d="M 8.5 21.578125 
L 8.5 54.6875 
L 17.484375 54.6875 
L 17.484375 21.921875 
Q 17.484375 14.15625 20.5 10.265625 
Q 23.53125 6.390625 29.59375 6.390625 
Q 36.859375 6.390625 41.078125 11.03125 
Q 45.3125 15.671875 45.3125 23.6875 
L 45.3125 54.6875 
L 54.296875 54.6875 
L 54.296875 0 
L 45.3125 0 
L 45.3125 8.40625 
Q 42.046875 3.421875 37.71875 1 
Q 33.40625 -1.421875 27.6875 -1.421875 
Q 18.265625 -1.421875 13.375 4.4375 
Q 8.5 10.296875 8.5 21.578125 
z
M 31.109375 56 
z
" id="DejaVuSans-117"/>
     </defs>
     <g transform="translate(147.832812 385.049219)rotate(-90)scale(0.1 -0.1)">
      <use xlink:href="#DejaVuSans-115"/>
      <use x="52.099609" xlink:href="#DejaVuSans-112"/>
      <use x="115.576172" xlink:href="#DejaVuSans-101"/>
      <use x="177.099609" xlink:href="#DejaVuSans-101"/>
      <use x="238.623047" xlink:href="#DejaVuSans-100"/>
      <use x="302.099609" xlink:href="#DejaVuSans-117"/>
      <use x="365.478516" xlink:href="#DejaVuSans-112"/>
     </g>
    </g>
   </g>
   <g id="line2d_20">
    <path clip-path="url(#p44cc5b5ae9)" d="M 230.727273 328.512205 
L 231.753102 403.751639 
L 232.778932 111.6 
L 233.804761 435.311295 
L 234.830591 324.543723 
L 235.856421 435.00614 
L 236.88225 352.46513 
L 237.90808 348.422441 
L 238.933909 473.591825 
L 239.959739 367.953912 
L 240.985569 365.847293 
L 243.037228 384.505303 
L 244.063057 396.370595 
L 245.088887 387.801548 
L 246.114716 390.984783 
L 247.140546 406.003471 
L 248.166376 407.004098 
L 249.192205 417.135117 
L 250.218035 421.608348 
L 251.243864 420.366031 
L 252.269694 425.600704 
L 253.295523 425.164853 
L 254.321353 427.716207 
L 255.347183 443.000352 
L 256.373012 500.047663 
L 257.398842 451.114821 
L 258.424671 451.706937 
L 259.450501 461.039188 
L 260.476331 465.792335 
L 261.50216 454.75951 
L 262.52799 473.509681 
L 263.553819 467.193479 
L 264.579649 458.412347 
L 265.605478 464.505734 
L 266.631308 472.31924 
L 267.657138 476.652475 
L 268.682967 472.365801 
L 269.708797 478.161148 
L 270.734626 481.448112 
L 271.760456 481.428075 
L 272.786286 488.975298 
L 273.812115 433.189289 
L 274.837945 434.523449 
L 275.863774 528.231637 
L 276.889604 435.878614 
L 277.915433 503.543564 
L 278.941263 490.154393 
L 279.967093 488.903013 
L 280.992922 497.62906 
L 282.018752 503.93007 
L 283.044581 501.156698 
L 284.070411 492.22166 
L 285.09624 494.811566 
L 286.12207 497.805286 
L 287.1479 495.059149 
L 288.173729 502.670018 
L 289.199559 506.737822 
L 290.225388 504.95742 
L 291.251218 505.463872 
L 292.277048 506.966966 
L 293.302877 505.828558 
L 294.328707 506.677891 
L 295.354536 502.766429 
L 296.380366 508.383852 
L 297.406195 510.989559 
L 298.432025 507.01216 
L 299.457855 508.350496 
L 300.483684 498.539329 
L 301.509514 509.067668 
L 302.535343 471.799303 
L 303.561173 512.184789 
L 304.587002 503.29059 
L 305.612832 524.337956 
L 306.638662 515.012555 
L 307.664491 523.424767 
L 308.690321 517.555945 
L 309.71615 550.814443 
L 310.74198 505.749987 
L 311.76781 513.093968 
L 312.793639 553.117093 
L 313.819469 538.228012 
L 314.845298 528.58067 
L 315.871128 531.404686 
L 316.896957 535.161087 
L 317.922787 530.674647 
L 318.948617 531.363874 
L 319.974446 529.87652 
L 321.000276 531.106616 
L 322.026105 537.664396 
L 323.051935 540.264409 
L 324.077765 533.968225 
L 325.103594 534.476115 
L 326.129424 533.898472 
L 327.155253 535.775927 
L 328.181083 536.181327 
L 329.206912 539.541534 
L 330.232742 537.663107 
L 331.258572 539.128458 
L 332.284401 538.106483 
L 333.310231 556.731365 
L 334.33606 542.015102 
L 335.36189 539.994964 
L 336.387719 541.827857 
L 337.413549 542.735048 
L 338.439379 506.245217 
L 339.465208 575.958589 
L 340.491038 552.977243 
L 341.516867 545.499856 
L 342.542697 547.394924 
L 343.568527 545.200336 
L 344.594356 548.346757 
L 345.620186 545.945671 
L 346.646015 550.786306 
L 347.671845 547.236457 
L 348.697674 547.718551 
L 349.723504 549.154564 
L 350.749334 549.951544 
L 351.775163 551.116472 
L 352.800993 553.846992 
L 353.826822 552.637018 
L 354.852652 524.946565 
L 355.878481 551.975999 
L 356.904311 553.751556 
L 357.930141 557.990841 
L 358.95597 554.643518 
L 359.9818 541.500548 
L 361.007629 569.036135 
L 362.033459 553.291744 
L 363.059289 554.841902 
L 364.085118 554.755821 
L 365.110948 555.046737 
L 366.136777 555.662508 
L 367.162607 557.040454 
L 368.188436 555.771635 
L 369.214266 556.397906 
L 370.240096 557.619175 
L 371.265925 563.22724 
L 372.291755 558.823232 
L 373.317584 563.854241 
L 374.343414 557.691801 
L 375.369243 564.325615 
L 376.395073 560.054876 
L 377.420903 549.519209 
L 378.446732 583.923461 
L 379.472562 561.103214 
L 380.498391 559.95828 
L 381.524221 574.086927 
L 382.550051 562.218051 
L 383.57588 561.048681 
L 384.60171 561.212021 
L 385.627539 562.875245 
L 386.653369 563.410505 
L 387.679198 563.481551 
L 388.705028 565.971378 
L 389.730858 563.519474 
L 390.756687 563.430217 
L 391.782517 563.862261 
L 392.808346 566.911692 
L 393.834176 565.216608 
L 394.860006 565.294391 
L 395.885835 564.633598 
L 396.911665 565.929234 
L 398.963324 565.972377 
L 399.989153 566.341655 
L 401.014983 566.531272 
L 402.040813 576.727285 
L 403.066642 571.160759 
L 404.092472 566.835155 
L 405.118301 567.422806 
L 406.144131 573.732636 
L 407.16996 567.607469 
L 408.19579 568.088763 
L 409.22162 567.796958 
L 410.247449 567.633179 
L 411.273279 569.244832 
L 412.299108 569.660712 
L 413.324938 568.744595 
L 414.350768 570.082403 
L 415.376597 570.061444 
L 416.402427 570.308641 
L 417.428256 582.797438 
L 418.454086 575.795073 
L 419.479915 570.798718 
L 420.505745 570.791783 
L 421.531575 578.884239 
L 422.557404 571.639631 
L 423.583234 571.667103 
L 424.609063 572.095514 
L 425.634893 571.671544 
L 426.660722 572.772231 
L 427.686552 573.128677 
L 428.712382 574.669698 
L 429.738211 569.617941 
L 430.764041 567.245465 
L 431.78987 573.455785 
L 432.8157 573.954794 
L 433.84153 573.084128 
L 434.867359 573.930703 
L 435.893189 580.148056 
L 436.919018 575.102401 
L 437.944848 575.202038 
L 438.970677 575.08781 
L 439.996507 575.301921 
L 441.022337 576.143621 
L 442.048166 575.569635 
L 443.073996 576.188564 
L 444.099825 576.293962 
L 445.125655 576.62069 
L 446.151485 576.370374 
L 447.177314 577.377748 
L 448.203144 574.691698 
L 449.228973 578.233375 
L 450.254803 574.33527 
L 451.280632 596.757758 
L 452.306462 576.100669 
L 453.332292 578.91146 
L 454.358121 583.750118 
L 455.383951 578.333308 
L 456.40978 578.391116 
L 457.43561 578.962216 
L 458.461439 578.486633 
L 459.487269 578.6127 
L 460.513099 583.722472 
L 461.538928 579.053533 
L 462.564758 579.454634 
L 466.668076 579.884027 
L 467.693906 580.22755 
L 468.719735 580.279298 
L 470.771394 581.224741 
L 471.797224 586.910718 
L 472.823054 580.343131 
L 474.874713 581.406206 
L 475.900542 581.221118 
L 476.926372 581.66995 
L 477.952201 581.521583 
L 478.978031 581.84131 
L 480.003861 571.182642 
L 481.02969 582.557629 
L 482.05552 582.067716 
L 483.081349 580.554917 
L 484.107179 568.454225 
L 485.133009 582.811488 
L 486.158838 582.93134 
L 487.184668 582.414428 
L 488.210497 573.891186 
L 489.236327 587.25857 
L 490.262156 587.500456 
L 491.287986 582.775689 
L 492.313816 573.214977 
L 493.339645 584.368066 
L 494.365475 583.744088 
L 495.391304 583.373906 
L 496.417134 575.469675 
L 497.442964 585.037673 
L 498.468793 584.550075 
L 499.494623 584.9611 
L 500.520452 579.693618 
L 501.546282 584.676108 
L 502.572111 584.746816 
L 503.597941 585.212869 
L 504.623771 586.757191 
L 505.6496 585.794755 
L 507.701259 585.508084 
L 508.727089 588.646221 
L 509.752918 584.693273 
L 510.778748 585.651538 
L 511.804578 585.179416 
L 512.830407 574.940838 
L 513.856237 587.399767 
L 514.882066 585.929787 
L 515.907896 586.529533 
L 516.933726 575.975243 
L 517.959555 586.454617 
L 518.985385 586.371683 
L 520.011214 586.563096 
L 521.037044 566.348967 
L 522.062873 588.063553 
L 523.088703 587.146387 
L 524.114533 586.987064 
L 525.140362 587.43959 
L 526.166192 587.578498 
L 527.192021 587.472581 
L 528.217851 587.816892 
L 529.24368 587.647484 
L 530.26951 587.929839 
L 531.29534 587.85261 
L 532.321169 588.267553 
L 533.346999 586.753205 
L 534.372828 601.822871 
L 535.398658 588.618757 
L 536.424488 588.779666 
L 537.450317 576.442035 
L 538.476147 570.672458 
L 539.501976 588.805523 
L 541.553635 589.496316 
L 542.579465 589.240336 
L 543.605295 589.450377 
L 544.631124 589.777107 
L 545.656954 589.224962 
L 546.682783 589.392888 
L 547.708613 589.703525 
L 548.734443 589.757359 
L 549.760272 583.63327 
L 550.786102 590.093786 
L 551.811931 590.200233 
L 552.837761 590.544025 
L 553.86359 590.429917 
L 554.88942 590.64971 
L 555.91525 590.343465 
L 557.966909 590.468983 
L 558.992738 590.93249 
L 560.018568 591.070535 
L 561.044397 589.871015 
L 562.070227 571.116808 
L 563.096057 591.37821 
L 566.173545 590.490058 
L 567.199375 587.877708 
L 568.225205 587.535716 
L 569.251034 587.630921 
L 570.276864 591.630466 
L 571.302693 601.945045 
L 572.328523 591.508481 
L 573.354352 592.375753 
L 574.380182 591.705563 
L 575.406012 592.07171 
L 576.431841 591.15611 
L 577.457671 592.352315 
L 578.4835 592.471067 
L 579.50933 592.360717 
L 580.535159 591.905881 
L 581.560989 592.884928 
L 582.586819 595.596315 
L 583.612648 585.937545 
L 584.638478 586.517768 
L 585.664307 597.731532 
L 586.690137 592.694901 
L 587.715967 592.185106 
L 588.741796 592.558134 
L 589.767626 592.785548 
L 590.793455 592.845252 
L 591.819285 593.237274 
L 592.845114 592.896668 
L 593.870944 593.274899 
L 594.896774 593.187177 
L 595.922603 593.861813 
L 596.948433 593.758449 
L 597.974262 566.794322 
L 599.000092 591.996213 
L 600.025922 596.716294 
L 601.051751 592.016047 
L 602.077581 594.515615 
L 603.10341 593.447577 
L 604.12924 594.394369 
L 605.155069 594.668591 
L 606.180899 593.801331 
L 608.232558 595.079547 
L 609.258388 594.632438 
L 610.284217 594.50938 
L 611.310047 590.696399 
L 612.335876 594.543673 
L 613.361706 595.785619 
L 614.387536 594.713548 
L 615.413365 594.794237 
L 616.439195 596.968718 
L 617.465024 593.222088 
L 618.490854 595.0888 
L 619.516684 595.092913 
L 620.542513 594.26294 
L 621.568343 583.635702 
L 622.594172 595.363714 
L 623.620002 596.37776 
L 624.645831 588.442944 
L 625.671661 595.896375 
L 626.697491 595.939566 
L 627.72332 595.044499 
L 628.74915 600.595545 
L 629.774979 595.43854 
L 630.800809 595.541829 
L 631.826638 588.624785 
L 632.852468 602.266132 
L 633.878298 595.867044 
L 634.904127 595.873641 
L 635.929957 589.14457 
L 636.955786 595.727559 
L 637.981616 595.877856 
L 639.007446 595.753061 
L 640.033275 596.390196 
L 641.059105 596.179739 
L 642.084934 596.137166 
L 643.110764 596.869159 
L 644.136593 597.133251 
L 645.162423 597.090123 
L 646.188253 596.553526 
L 647.214082 590.099736 
L 648.239912 597.048992 
L 651.3174 596.889685 
L 653.36906 597.285953 
L 654.394889 590.916934 
L 655.420719 597.122536 
L 656.446548 597.439617 
L 657.472378 597.001122 
L 658.498208 591.32687 
L 659.524037 597.372847 
L 660.549867 597.046748 
L 661.575696 593.376427 
L 662.601526 597.970656 
L 663.627355 597.554593 
L 664.653185 597.756669 
L 665.679015 591.706597 
L 666.704844 597.857157 
L 667.730674 597.814222 
L 668.756503 597.582548 
L 669.782333 601.342562 
L 670.808163 597.605781 
L 671.833992 597.839055 
L 672.859822 591.339969 
L 673.885651 599.789773 
L 674.911481 598.038145 
L 675.93731 597.976849 
L 676.96314 587.783084 
L 677.98897 598.163693 
L 679.014799 606.94136 
L 681.066458 595.107253 
L 682.092288 594.974113 
L 683.118117 591.829941 
L 684.143947 598.774444 
L 687.221436 598.851209 
L 688.247265 598.58874 
L 689.273095 598.90732 
L 690.298925 593.339569 
L 691.324754 598.951931 
L 692.350584 599.013145 
L 693.376413 598.00149 
L 694.402243 599.159882 
L 696.453902 599.203431 
L 697.479732 599.511129 
L 698.505561 599.497574 
L 702.608879 599.999134 
L 704.660539 599.675751 
L 706.712198 599.735767 
L 707.738027 599.906598 
L 708.763857 594.054412 
L 709.789687 600.21349 
L 710.815516 600.020988 
L 711.841346 601.415216 
L 712.867175 600.098843 
L 713.893005 599.960243 
L 716.970494 600.126148 
L 717.996323 600.41008 
L 720.047982 600.521224 
L 721.073812 600.404472 
L 722.099642 600.519522 
L 723.125471 600.097117 
L 725.17713 600.802181 
L 726.20296 600.581509 
L 727.228789 594.757513 
L 728.254619 600.384819 
L 729.280449 600.63548 
L 730.306278 600.31272 
L 731.332108 600.894512 
L 732.357937 600.574835 
L 733.383767 600.857179 
L 734.409596 600.910452 
L 735.435426 602.776169 
L 736.461256 601.194545 
L 738.512915 600.930779 
L 739.538744 601.077728 
L 740.564574 601.029793 
L 741.590404 601.257964 
L 743.642063 601.210784 
L 744.667892 600.591737 
L 745.693722 601.476706 
L 746.719551 601.570333 
L 747.745381 601.342006 
L 748.771211 601.460072 
L 749.79704 601.318988 
L 752.874529 601.835967 
L 753.900358 601.82589 
L 754.926188 600.668633 
L 755.952018 601.722213 
L 756.977847 601.845748 
L 758.003677 601.432763 
L 759.029506 601.840201 
L 760.055336 601.716315 
L 761.081166 602.296419 
L 762.106995 601.76082 
L 763.132825 603.080519 
L 764.158654 601.945711 
L 765.184484 607.247795 
L 766.210313 602.065653 
L 767.236143 602.184058 
L 769.287802 602.002866 
L 770.313632 598.135961 
L 771.339461 602.043003 
L 772.365291 603.846445 
L 773.391121 602.319787 
L 774.41695 601.734937 
L 775.44278 602.2393 
L 776.468609 602.121688 
L 777.494439 602.325438 
L 778.520268 602.038895 
L 779.546098 602.378024 
L 780.571928 602.165486 
L 782.623587 602.615898 
L 783.649416 602.489086 
L 784.675246 601.219194 
L 785.701075 603.935207 
L 786.726905 598.053243 
L 787.752735 602.028832 
L 788.778564 596.419665 
L 789.804394 602.34284 
L 790.830223 602.309586 
L 791.856053 603.939147 
L 792.881883 602.81544 
L 793.907712 602.511232 
L 794.933542 602.69518 
L 795.959371 602.733213 
L 796.985201 602.65023 
L 798.01103 602.911934 
L 800.06269 602.219171 
L 801.088519 602.94618 
L 802.114349 600.784741 
L 803.140178 603.025101 
L 806.217667 603.143125 
L 807.243497 602.526444 
L 808.269326 603.386701 
L 809.295156 602.851051 
L 810.320985 603.374 
L 812.372645 603.568966 
L 813.398474 603.249103 
L 814.424304 603.091224 
L 816.475963 603.543493 
L 818.527622 603.481547 
L 820.579281 603.647718 
L 821.605111 603.68798 
L 822.63094 603.949164 
L 823.65677 603.627979 
L 824.6826 603.856272 
L 825.708429 603.572655 
L 827.760088 603.789705 
L 828.785918 603.582694 
L 829.811747 603.763878 
L 830.837577 603.802914 
L 831.863407 604.999697 
L 832.889236 603.759947 
L 833.915066 603.992078 
L 834.940895 596.833155 
L 835.966725 599.976288 
L 836.992554 603.909915 
L 840.070043 603.733653 
L 841.095873 604.156723 
L 843.147532 603.916437 
L 844.173362 603.961572 
L 846.225021 603.895196 
L 847.25085 599.76504 
L 848.27668 603.930174 
L 850.328339 603.928313 
L 851.354169 605.248411 
L 852.379998 603.436832 
L 853.405828 604.033872 
L 854.431657 604.066992 
L 856.483316 604.388256 
L 857.509146 604.449014 
L 858.534976 605.738046 
L 859.560805 604.526075 
L 860.586635 604.545604 
L 861.612464 604.419887 
L 862.638294 604.640691 
L 863.664124 604.518619 
L 864.689953 608.741883 
L 865.715783 604.78898 
L 866.741612 604.576474 
L 867.767442 606.036665 
L 868.793271 604.767959 
L 869.819101 604.697284 
L 870.844931 604.792459 
L 871.87076 604.562591 
L 874.948249 604.797975 
L 875.974078 610.471696 
L 876.999908 605.930079 
L 878.025738 604.84834 
L 879.051567 604.77395 
L 880.077397 604.475517 
L 882.129056 605.098696 
L 883.154886 605.127462 
L 884.180715 595.98656 
L 885.206545 605.100647 
L 886.232374 602.546173 
L 887.258204 601.644606 
L 888.284033 600.118915 
L 889.309863 605.172535 
L 890.335693 605.116958 
L 891.361522 606.171569 
L 892.387352 605.159272 
L 893.413181 604.990592 
L 894.439011 605.11951 
L 895.464841 605.464103 
L 896.49067 605.224062 
L 898.542329 605.13076 
L 899.568159 605.405232 
L 900.593988 605.135142 
L 901.619818 605.34513 
L 902.645648 605.185044 
L 904.697307 605.471951 
L 905.723136 605.346703 
L 908.800625 605.400446 
L 909.826455 606.392021 
L 910.852284 605.79224 
L 911.878114 605.598094 
L 912.903943 606.511692 
L 913.929773 605.27666 
L 914.955603 605.565764 
L 915.981432 605.598314 
L 917.007262 605.392785 
L 920.08475 605.628278 
L 921.11058 605.903362 
L 923.162239 605.687344 
L 924.188069 605.878392 
L 927.265557 605.769519 
L 929.317217 605.755086 
L 930.343046 605.725668 
L 931.368876 601.908876 
L 932.394705 603.615243 
L 933.420535 605.696437 
L 934.446365 606.018982 
L 935.472194 606.141633 
L 936.498024 605.92048 
L 937.523853 605.997743 
L 938.549683 605.846672 
L 939.575512 606.044221 
L 941.627172 606.151745 
L 942.653001 606.346127 
L 943.678831 605.58341 
L 944.70466 606.221806 
L 945.73049 606.211523 
L 946.75632 610.577009 
L 947.782149 611.050448 
L 948.807979 606.012076 
L 949.833808 606.09724 
L 951.885467 605.773225 
L 952.911297 607.037188 
L 953.937127 606.401358 
L 957.014615 606.474508 
L 958.040445 606.60136 
L 959.066274 606.492329 
L 960.092104 606.558275 
L 961.117934 603.684145 
L 962.143763 606.543898 
L 963.169593 606.659843 
L 964.195422 604.342206 
L 965.221252 606.767754 
L 966.247082 606.767553 
L 967.272911 606.894999 
L 969.32457 606.828927 
L 972.402059 606.278302 
L 973.427889 606.526341 
L 975.479548 606.574503 
L 976.505377 600.594733 
L 977.531207 612.807762 
L 978.557036 607.405564 
L 979.582866 606.510103 
L 980.608696 608.459526 
L 981.634525 606.555595 
L 983.686184 606.668121 
L 984.712014 606.673495 
L 985.737844 607.317249 
L 986.763673 606.851308 
L 987.789503 606.761217 
L 988.815332 606.927433 
L 989.841162 606.583337 
L 990.866991 606.836687 
L 991.892821 606.41012 
L 992.918651 608.442279 
L 993.94448 606.544957 
L 994.97031 606.800443 
L 995.996139 606.467545 
L 997.021969 606.837787 
L 999.073628 606.723723 
L 1000.099458 606.768863 
L 1001.125287 607.042919 
L 1002.151117 607.510692 
L 1003.176946 606.853159 
L 1006.254435 606.800409 
L 1007.280265 606.963457 
L 1010.357753 606.81276 
L 1011.383583 607.050926 
L 1012.409413 606.775705 
L 1013.435242 607.239577 
L 1015.486901 607.051138 
L 1016.512731 607.283129 
L 1017.538561 607.318184 
L 1018.56439 607.478994 
L 1019.59022 607.399295 
L 1020.616049 602.600303 
L 1021.641879 614.308338 
L 1023.693538 607.255429 
L 1024.719368 606.640734 
L 1025.745197 607.416488 
L 1026.771027 607.270518 
L 1027.796856 607.477622 
L 1030.874345 607.221635 
L 1031.900175 607.581125 
L 1032.926004 607.271768 
L 1033.951834 607.59693 
L 1034.977663 607.522296 
L 1036.003493 607.581078 
L 1037.029323 608.887297 
L 1038.055152 607.488929 
L 1039.080982 607.156987 
L 1040.106811 607.412504 
L 1041.132641 607.456213 
L 1042.15847 607.378511 
L 1044.21013 607.58252 
L 1045.235959 607.260522 
L 1046.261789 607.70848 
L 1047.287618 607.191105 
L 1048.313448 607.497246 
L 1050.365107 607.670013 
L 1051.390937 612.005573 
L 1052.416766 607.663243 
L 1053.442596 607.807906 
L 1054.468425 607.54475 
L 1055.494255 607.8808 
L 1057.545914 607.880974 
L 1058.571744 607.394035 
L 1059.597573 607.647093 
L 1060.623403 607.742281 
L 1061.649232 608.114385 
L 1062.675062 607.283663 
L 1063.700892 602.78866 
L 1064.726721 607.848251 
L 1065.752551 608.486191 
L 1066.77838 608.98939 
L 1067.80421 610.845142 
L 1068.83004 608.525404 
L 1069.855869 608.697043 
L 1070.881699 608.455925 
L 1078.062506 608.504306 
L 1079.088335 609.053148 
L 1080.114165 608.509557 
L 1081.139994 609.082503 
L 1082.165824 608.633683 
L 1084.217483 608.573247 
L 1087.294972 608.683778 
L 1089.346631 608.542253 
L 1090.372461 608.664775 
L 1091.39829 609.014029 
L 1093.449949 608.893541 
L 1094.475779 609.007653 
L 1095.501609 608.834394 
L 1097.553268 609.070988 
L 1098.579097 609.211454 
L 1101.656586 608.986729 
L 1102.682416 609.157609 
L 1103.708245 609.185722 
L 1104.734075 604.778401 
L 1105.759904 603.857635 
L 1106.785734 609.1277 
L 1107.811564 607.786951 
L 1108.837393 608.556082 
L 1109.863223 609.134448 
L 1110.889052 609.241264 
L 1112.940711 609.169439 
L 1114.992371 609.233357 
L 1116.0182 609.808543 
L 1117.04403 609.244532 
L 1124.224837 609.263624 
L 1125.250666 608.974061 
L 1126.276496 609.34267 
L 1127.302326 609.316741 
L 1128.328155 609.414683 
L 1129.353985 609.16997 
L 1130.379814 609.866129 
L 1131.405644 609.290427 
L 1132.431473 609.344117 
L 1133.457303 609.237901 
L 1134.483133 608.479837 
L 1135.508962 609.306045 
L 1137.560621 609.248882 
L 1138.586451 613.395708 
L 1139.612281 609.250323 
L 1142.689769 609.247741 
L 1143.715599 609.944932 
L 1144.741428 604.40002 
L 1145.767258 609.024025 
L 1146.793088 609.515558 
L 1148.844747 609.509732 
L 1149.870576 609.394987 
L 1151.922235 609.512011 
L 1152.948065 609.939684 
L 1153.973895 609.526483 
L 1154.999724 608.904912 
L 1156.025554 612.900679 
L 1157.051383 609.149067 
L 1161.154702 609.190062 
L 1162.180531 605.206914 
L 1163.206361 609.046451 
L 1166.28385 609.129834 
L 1167.309679 609.087276 
L 1168.335509 609.20343 
L 1169.361338 608.364369 
L 1170.387168 609.141931 
L 1172.438827 609.056794 
L 1173.464657 609.28561 
L 1174.490486 609.238117 
L 1175.516316 609.569455 
L 1176.542145 609.16497 
L 1177.567975 609.271275 
L 1180.645464 609.076358 
L 1181.671293 609.17099 
L 1182.697123 608.690959 
L 1183.722952 614.362169 
L 1184.748782 609.545165 
L 1186.800441 609.097899 
L 1188.8521 609.404811 
L 1189.87793 609.274038 
L 1190.90376 609.833362 
L 1191.929589 609.489765 
L 1192.955419 609.297443 
L 1195.007078 609.316846 
L 1201.162055 609.302141 
L 1202.187885 609.841267 
L 1203.213714 609.308155 
L 1204.239544 609.270765 
L 1205.265374 609.366547 
L 1206.291203 609.889098 
L 1207.317033 609.314959 
L 1208.342862 609.402375 
L 1209.368692 611.184282 
L 1210.394522 609.314922 
L 1211.420351 609.220971 
L 1212.446181 609.44824 
L 1218.601158 609.312484 
L 1219.626988 605.909692 
L 1220.652817 606.79497 
L 1221.678647 609.537251 
L 1222.704477 609.371141 
L 1223.730306 609.355649 
L 1226.807795 609.686444 
L 1227.833624 609.574121 
L 1228.859454 609.782649 
L 1230.911113 609.765557 
L 1231.936943 609.824149 
L 1232.962772 609.680039 
L 1233.988602 609.716296 
L 1235.014431 609.910652 
L 1236.040261 609.753719 
L 1238.09192 609.714116 
L 1239.11775 609.957402 
L 1241.169409 609.779152 
L 1242.195239 609.905847 
L 1244.246898 609.701257 
L 1245.272727 609.968607 
L 1245.272727 609.968607 
" style="fill:none;stroke:#1f77b4;stroke-linecap:square;stroke-width:1.5;"/>
   </g>
   <g id="line2d_21">
    <path clip-path="url(#p44cc5b5ae9)" d="M 230.727273 336.93411 
L 231.753102 336.924816 
L 232.778932 354.475006 
L 233.804761 386.430295 
L 234.830591 381.15207 
L 235.856421 291.371232 
L 236.88225 294.889865 
L 237.90808 344.921508 
L 238.933909 381.757972 
L 239.959739 362.913051 
L 240.985569 397.233371 
L 242.011398 405.556287 
L 243.037228 405.552373 
L 244.063057 404.908947 
L 245.088887 445.391856 
L 246.114716 408.684173 
L 247.140546 446.009856 
L 248.166376 454.511028 
L 249.192205 439.258427 
L 250.218035 457.567234 
L 251.243864 424.464864 
L 252.269694 454.268065 
L 253.295523 467.707806 
L 254.321353 450.618559 
L 255.347183 465.617421 
L 256.373012 453.934691 
L 257.398842 469.331784 
L 258.424671 437.097814 
L 259.450501 474.676442 
L 260.476331 400.072696 
L 261.50216 434.401183 
L 262.52799 456.948758 
L 263.553819 409.646199 
L 264.579649 507.821021 
L 265.605478 466.965388 
L 266.631308 477.389904 
L 267.657138 478.342587 
L 268.682967 474.70762 
L 269.708797 480.738478 
L 270.734626 478.11667 
L 271.760456 487.92981 
L 272.786286 476.161814 
L 273.812115 490.087716 
L 274.837945 492.353431 
L 275.863774 503.089093 
L 276.889604 490.75463 
L 277.915433 507.682576 
L 278.941263 509.763842 
L 279.967093 508.03769 
L 280.992922 512.880416 
L 282.018752 501.559181 
L 283.044581 495.345045 
L 284.070411 508.98758 
L 285.09624 515.398575 
L 286.12207 505.136342 
L 287.1479 514.247209 
L 288.173729 519.254744 
L 289.199559 516.431882 
L 290.225388 516.80919 
L 291.251218 515.200175 
L 292.277048 520.215192 
L 293.302877 513.532682 
L 294.328707 523.398178 
L 295.354536 528.013355 
L 296.380366 522.954627 
L 297.406195 510.177708 
L 298.432025 521.830293 
L 299.457855 524.643148 
L 300.483684 524.388399 
L 301.509514 515.558633 
L 302.535343 518.879742 
L 303.561173 524.685392 
L 304.587002 528.528335 
L 305.612832 527.480399 
L 306.638662 528.756014 
L 307.664491 534.11069 
L 308.690321 536.960927 
L 309.71615 536.859512 
L 310.74198 537.608166 
L 311.76781 535.081924 
L 312.793639 534.850121 
L 313.819469 537.58059 
L 314.845298 541.586709 
L 315.871128 539.954849 
L 316.896957 538.937154 
L 317.922787 530.984495 
L 318.948617 539.08013 
L 319.974446 538.540242 
L 321.000276 540.140812 
L 322.026105 544.019837 
L 323.051935 543.423884 
L 324.077765 540.832212 
L 325.103594 542.74523 
L 326.129424 544.32009 
L 327.155253 547.070229 
L 328.181083 541.326885 
L 329.206912 544.708506 
L 330.232742 546.829646 
L 331.258572 544.968215 
L 332.284401 548.726842 
L 333.310231 549.087957 
L 334.33606 550.310876 
L 335.36189 548.980405 
L 336.387719 550.697215 
L 337.413549 552.670968 
L 338.439379 548.251185 
L 339.465208 523.993935 
L 340.491038 531.53433 
L 341.516867 573.740197 
L 342.542697 549.320963 
L 343.568527 549.521957 
L 344.594356 548.594074 
L 346.646015 559.524903 
L 348.697674 555.00947 
L 349.723504 556.536175 
L 350.749334 554.080121 
L 351.775163 556.599421 
L 352.800993 558.194403 
L 353.826822 556.896031 
L 354.852652 572.53769 
L 355.878481 558.232256 
L 356.904311 556.267761 
L 357.930141 559.219118 
L 358.95597 555.623876 
L 359.9818 555.768116 
L 361.007629 556.437241 
L 362.033459 560.974332 
L 363.059289 579.159584 
L 364.085118 553.095084 
L 365.110948 560.699487 
L 366.136777 563.982061 
L 367.162607 562.467733 
L 368.188436 563.598256 
L 369.214266 562.753788 
L 370.240096 564.832883 
L 371.265925 564.164174 
L 372.291755 564.328632 
L 373.317584 563.36511 
L 374.343414 563.381267 
L 375.369243 566.788455 
L 376.395073 564.614665 
L 377.420903 565.162537 
L 378.446732 565.433446 
L 380.498391 565.139883 
L 381.524221 567.230411 
L 382.550051 567.409736 
L 383.57588 564.895309 
L 384.60171 564.149702 
L 385.627539 567.94335 
L 386.653369 564.055185 
L 387.679198 568.511623 
L 388.705028 568.81986 
L 389.730858 572.623322 
L 390.756687 567.731101 
L 391.782517 569.721757 
L 392.808346 568.596032 
L 393.834176 572.832721 
L 394.860006 571.234153 
L 395.885835 569.331872 
L 396.911665 569.627652 
L 397.937494 568.756148 
L 398.963324 569.065105 
L 399.989153 571.366102 
L 401.014983 575.249546 
L 402.040813 571.48488 
L 403.066642 570.57785 
L 404.092472 574.365989 
L 405.118301 569.900843 
L 406.144131 570.357531 
L 407.16996 570.583565 
L 408.19579 573.339954 
L 410.247449 571.073923 
L 411.273279 573.941849 
L 412.299108 574.244993 
L 413.324938 573.790804 
L 414.350768 576.802704 
L 415.376597 582.251104 
L 416.402427 568.694849 
L 417.428256 561.433212 
L 418.454086 572.818676 
L 419.479915 549.553542 
L 420.505745 561.339305 
L 421.531575 592.511069 
L 422.557404 572.232296 
L 423.583234 573.375325 
L 424.609063 575.186196 
L 425.634893 583.276428 
L 426.660722 576.334159 
L 427.686552 577.656948 
L 428.712382 577.01267 
L 429.738211 584.224398 
L 430.764041 577.753508 
L 431.78987 577.556889 
L 432.8157 580.358136 
L 433.84153 578.112945 
L 434.867359 579.178758 
L 435.893189 576.797421 
L 436.919018 579.404587 
L 437.944848 577.207412 
L 438.970677 577.419006 
L 439.996507 577.843954 
L 442.048166 579.700223 
L 443.073996 580.200852 
L 444.099825 579.344909 
L 445.125655 579.680889 
L 446.151485 578.224327 
L 447.177314 579.315738 
L 448.203144 579.615312 
L 449.228973 581.751968 
L 450.254803 580.175067 
L 451.280632 580.056039 
L 452.306462 580.905208 
L 453.332292 581.469754 
L 454.358121 581.550414 
L 455.383951 580.449179 
L 456.40978 582.106867 
L 457.43561 580.641393 
L 458.461439 581.202459 
L 459.487269 581.323147 
L 460.513099 582.392616 
L 461.538928 582.066146 
L 462.564758 583.43369 
L 463.590587 586.022849 
L 464.616417 583.186911 
L 465.642247 581.221607 
L 466.668076 582.828198 
L 467.693906 584.221706 
L 468.719735 582.595599 
L 469.745565 581.614419 
L 470.771394 582.103239 
L 471.797224 583.044205 
L 472.823054 583.141734 
L 473.848883 583.843578 
L 474.874713 583.923559 
L 475.900542 581.100713 
L 476.926372 580.130882 
L 477.952201 581.047953 
L 478.978031 580.313787 
L 480.003861 586.079139 
L 481.02969 578.336045 
L 482.05552 571.912162 
L 483.081349 574.453221 
L 484.107179 597.590792 
L 485.133009 597.667996 
L 486.158838 584.434824 
L 487.184668 583.987148 
L 488.210497 584.446278 
L 489.236327 585.684036 
L 490.262156 585.440338 
L 491.287986 585.732122 
L 492.313816 585.327683 
L 493.339645 589.775548 
L 494.365475 586.137213 
L 495.391304 586.928603 
L 496.417134 586.138671 
L 497.442964 584.957371 
L 498.468793 586.708479 
L 499.494623 585.638557 
L 500.520452 587.108801 
L 501.546282 587.727083 
L 502.572111 586.288193 
L 503.597941 586.931166 
L 504.623771 588.39183 
L 505.6496 587.648644 
L 507.701259 588.069015 
L 508.727089 588.10412 
L 509.752918 591.858389 
L 510.778748 588.311568 
L 511.804578 588.553566 
L 512.830407 589.865514 
L 513.856237 588.253675 
L 514.882066 590.021795 
L 515.907896 588.311741 
L 516.933726 588.18456 
L 517.959555 588.748551 
L 518.985385 589.011215 
L 520.011214 588.881687 
L 521.037044 587.378282 
L 522.062873 589.116446 
L 523.088703 588.729446 
L 524.114533 593.051929 
L 525.140362 594.46867 
L 526.166192 592.13405 
L 527.192021 589.0045 
L 528.217851 580.261664 
L 529.24368 592.590914 
L 530.26951 587.131941 
L 531.29534 588.300128 
L 533.346999 590.122806 
L 534.372828 589.817422 
L 535.398658 590.694142 
L 536.424488 589.698443 
L 537.450317 590.086615 
L 538.476147 586.599702 
L 539.501976 590.62203 
L 540.527806 589.993185 
L 541.553635 591.221359 
L 542.579465 591.262619 
L 543.605295 591.455955 
L 545.656954 594.535931 
L 546.682783 577.329162 
L 547.708613 590.746141 
L 548.734443 588.404756 
L 549.760272 600.116721 
L 550.786102 601.424987 
L 551.811931 591.752082 
L 552.837761 587.43165 
L 554.88942 591.020767 
L 555.91525 594.494058 
L 556.941079 594.123151 
L 557.966909 591.751289 
L 558.992738 591.871495 
L 560.018568 596.261474 
L 561.044397 592.837283 
L 562.070227 593.400018 
L 563.096057 593.296553 
L 564.121886 591.80751 
L 565.147716 596.468636 
L 566.173545 592.730265 
L 567.199375 593.384756 
L 568.225205 593.690252 
L 569.251034 594.145029 
L 570.276864 593.709278 
L 571.302693 593.936166 
L 572.328523 593.951089 
L 573.354352 593.634669 
L 574.380182 593.666281 
L 575.406012 594.470571 
L 576.431841 593.815186 
L 578.4835 594.476039 
L 579.50933 594.574741 
L 580.535159 597.441254 
L 581.560989 594.771035 
L 582.586819 598.888637 
L 583.612648 597.137758 
L 584.638478 595.663096 
L 585.664307 595.207355 
L 586.690137 596.075138 
L 587.715967 595.326258 
L 588.741796 595.788508 
L 589.767626 596.472203 
L 590.793455 596.3556 
L 591.819285 595.556123 
L 592.845114 596.292015 
L 593.870944 595.789172 
L 595.922603 595.53806 
L 596.948433 596.813922 
L 597.974262 599.238951 
L 599.000092 595.854172 
L 600.025922 597.112334 
L 601.051751 599.449839 
L 602.077581 596.755905 
L 603.10341 596.220567 
L 604.12924 596.830845 
L 605.155069 596.573079 
L 606.180899 596.992832 
L 607.206729 601.735944 
L 608.232558 596.607007 
L 609.258388 579.905706 
L 610.284217 596.816564 
L 611.310047 607.118879 
L 612.335876 596.203816 
L 613.361706 598.140237 
L 614.387536 597.400133 
L 615.413365 596.87749 
L 616.439195 597.682862 
L 617.465024 598.650535 
L 618.490854 597.766151 
L 619.516684 597.559317 
L 620.542513 597.689297 
L 621.568343 600.230527 
L 622.594172 598.289156 
L 623.620002 600.6216 
L 624.645831 604.657655 
L 625.671661 597.916946 
L 626.697491 597.602615 
L 627.72332 599.131814 
L 628.74915 597.242998 
L 629.774979 596.773835 
L 630.800809 598.447299 
L 631.826638 596.104687 
L 632.852468 596.33115 
L 633.878298 598.411081 
L 634.904127 596.533814 
L 635.929957 596.054113 
L 636.955786 596.876525 
L 637.981616 596.131153 
L 639.007446 597.186756 
L 640.033275 596.875439 
L 641.059105 595.757 
L 642.084934 599.463587 
L 643.110764 595.005848 
L 644.136593 596.861514 
L 645.162423 597.1868 
L 646.188253 596.303635 
L 647.214082 597.207552 
L 651.3174 597.408321 
L 652.34323 596.9419 
L 653.36906 597.333393 
L 654.394889 597.116192 
L 655.420719 599.450989 
L 656.446548 600.404893 
L 657.472378 597.044524 
L 659.524037 597.896725 
L 660.549867 597.507201 
L 661.575696 598.975896 
L 662.601526 593.812452 
L 663.627355 597.170992 
L 664.653185 589.119031 
L 665.679015 586.330553 
L 666.704844 603.58676 
L 667.730674 598.165964 
L 668.756503 599.468278 
L 669.782333 588.25053 
L 670.808163 600.862139 
L 671.833992 598.282008 
L 673.885651 598.027069 
L 674.911481 598.501637 
L 675.93731 598.116966 
L 676.96314 598.54488 
L 679.014799 598.148377 
L 681.066458 598.878433 
L 682.092288 598.490558 
L 683.118117 597.847311 
L 684.143947 598.771385 
L 685.169777 598.503866 
L 686.195606 600.553706 
L 687.221436 598.88016 
L 688.247265 598.25584 
L 689.273095 601.386468 
L 690.298925 598.684311 
L 691.324754 598.767046 
L 692.350584 599.206024 
L 693.376413 599.285816 
L 694.402243 600.542543 
L 695.428072 599.136438 
L 696.453902 599.249195 
L 697.479732 599.158543 
L 698.505561 599.430322 
L 699.531391 599.381342 
L 701.58305 599.932298 
L 702.608879 599.608479 
L 703.634709 598.984243 
L 704.660539 599.324954 
L 705.686368 599.834418 
L 706.712198 598.914657 
L 707.738027 602.4924 
L 708.763857 599.275541 
L 709.789687 599.972804 
L 710.815516 600.086837 
L 711.841346 599.758815 
L 712.867175 599.555106 
L 713.893005 600.359876 
L 714.918834 599.156193 
L 715.944664 607.143635 
L 716.970494 599.763388 
L 717.996323 602.013286 
L 719.022153 599.129114 
L 720.047982 594.889452 
L 721.073812 601.415632 
L 722.099642 599.03025 
L 723.125471 599.411773 
L 724.151301 591.30767 
L 725.17713 597.599024 
L 727.228789 601.457263 
L 728.254619 600.851319 
L 730.306278 600.607768 
L 731.332108 600.379037 
L 733.383767 600.897303 
L 734.409596 601.557521 
L 735.435426 601.167372 
L 736.461256 600.5921 
L 737.487085 600.971238 
L 738.512915 600.466511 
L 739.538744 600.982176 
L 741.590404 601.448245 
L 742.616233 601.231984 
L 743.642063 600.64158 
L 744.667892 601.484963 
L 745.693722 601.607498 
L 746.719551 601.861639 
L 747.745381 601.205852 
L 748.771211 601.52974 
L 750.82287 601.536922 
L 751.848699 596.674726 
L 752.874529 601.788892 
L 753.900358 601.638726 
L 755.952018 601.624821 
L 756.977847 602.09293 
L 758.003677 601.987773 
L 759.029506 602.127561 
L 760.055336 603.355385 
L 761.081166 603.89741 
L 762.106995 602.025283 
L 765.184484 602.09809 
L 766.210313 602.45339 
L 767.236143 595.04921 
L 768.261973 604.165998 
L 769.287802 598.712434 
L 770.313632 600.94075 
L 771.339461 608.46468 
L 772.365291 592.901055 
L 773.391121 604.461155 
L 774.41695 602.280273 
L 775.44278 602.124582 
L 776.468609 602.301483 
L 777.494439 603.476128 
L 778.520268 602.06784 
L 779.546098 602.74082 
L 780.571928 602.71902 
L 781.597757 602.867303 
L 782.623587 604.517321 
L 783.649416 603.717433 
L 784.675246 602.579441 
L 785.701075 601.976811 
L 786.726905 603.325129 
L 787.752735 602.555586 
L 788.778564 602.749508 
L 789.804394 603.539819 
L 790.830223 602.201381 
L 791.856053 602.971502 
L 792.881883 603.902448 
L 793.907712 602.468304 
L 794.933542 602.983202 
L 795.959371 602.907909 
L 796.985201 603.193863 
L 798.01103 603.030716 
L 800.06269 603.312864 
L 803.140178 602.845672 
L 804.166008 603.386927 
L 805.191837 603.266771 
L 806.217667 603.381661 
L 807.243497 603.176122 
L 808.269326 602.654445 
L 809.295156 601.902945 
L 810.320985 601.843685 
L 811.346815 601.651174 
L 812.372645 601.987992 
L 813.398474 603.286616 
L 814.424304 601.418577 
L 815.450133 600.693699 
L 816.475963 595.385819 
L 817.501792 607.918697 
L 819.553452 598.36148 
L 820.579281 604.90562 
L 821.605111 602.839743 
L 824.6826 603.682859 
L 825.708429 604.846596 
L 826.734259 603.603925 
L 827.760088 603.250069 
L 828.785918 603.721768 
L 829.811747 605.433392 
L 830.837577 602.953458 
L 831.863407 603.71574 
L 832.889236 603.702319 
L 833.915066 603.456573 
L 834.940895 603.976472 
L 835.966725 604.621414 
L 836.992554 603.827006 
L 838.018384 603.936562 
L 839.044214 606.533688 
L 840.070043 604.021896 
L 841.095873 603.437525 
L 842.121702 603.746732 
L 843.147532 602.444945 
L 844.173362 604.004275 
L 845.199191 604.542827 
L 846.225021 604.038636 
L 847.25085 603.780241 
L 848.27668 604.120378 
L 849.302509 603.436561 
L 850.328339 603.853851 
L 851.354169 604.432651 
L 852.379998 604.880292 
L 853.405828 604.388824 
L 854.431657 604.412171 
L 856.483316 604.275056 
L 857.509146 604.482887 
L 858.534976 605.147491 
L 859.560805 604.726478 
L 860.586635 604.633672 
L 861.612464 603.989777 
L 862.638294 604.53683 
L 863.664124 604.598474 
L 864.689953 603.458665 
L 865.715783 603.649877 
L 866.741612 608.81732 
L 867.767442 605.121125 
L 868.793271 604.426514 
L 870.844931 604.301652 
L 871.87076 604.608433 
L 873.922419 604.266215 
L 874.948249 605.739441 
L 875.974078 604.246392 
L 881.103226 605.0675 
L 882.129056 604.970128 
L 883.154886 605.020531 
L 884.180715 604.794256 
L 885.206545 604.734029 
L 886.232374 604.982661 
L 887.258204 605.054645 
L 888.284033 604.926596 
L 889.309863 605.812605 
L 890.335693 605.136615 
L 891.361522 606.392414 
L 892.387352 605.081386 
L 893.413181 605.256058 
L 894.439011 604.881687 
L 895.464841 605.178521 
L 896.49067 604.995664 
L 897.5165 605.041487 
L 898.542329 606.228484 
L 899.568159 605.172886 
L 900.593988 605.047157 
L 902.645648 604.629493 
L 903.671477 604.947182 
L 904.697307 607.623291 
L 905.723136 605.498418 
L 906.748966 605.195171 
L 907.774795 605.424297 
L 908.800625 605.475004 
L 909.826455 605.133765 
L 910.852284 605.682593 
L 911.878114 608.938336 
L 912.903943 599.686917 
L 913.929773 604.710203 
L 914.955603 604.85566 
L 915.981432 605.460316 
L 917.007262 605.179306 
L 918.033091 607.009753 
L 919.058921 605.674179 
L 920.08475 605.566931 
L 922.13641 605.587282 
L 924.188069 605.965297 
L 925.213898 605.653986 
L 926.239728 606.038038 
L 927.265557 605.821436 
L 928.291387 605.857225 
L 929.317217 607.025718 
L 931.368876 605.674793 
L 933.420535 605.504887 
L 934.446365 605.785787 
L 936.498024 606.001769 
L 937.523853 605.600055 
L 939.575512 605.768605 
L 940.601342 606.020719 
L 942.653001 605.826649 
L 943.678831 607.764888 
L 944.70466 605.946847 
L 945.73049 606.596009 
L 946.75632 605.9487 
L 948.807979 606.185697 
L 950.859638 605.971344 
L 951.885467 606.186144 
L 953.937127 606.158081 
L 954.962956 602.08483 
L 955.988786 612.384123 
L 957.014615 606.846886 
L 958.040445 607.945257 
L 959.066274 603.549109 
L 960.092104 600.259895 
L 961.117934 606.131611 
L 962.143763 605.878646 
L 963.169593 606.201599 
L 966.247082 606.069726 
L 967.272911 606.407884 
L 968.298741 605.934742 
L 969.32457 606.370402 
L 970.3504 608.603952 
L 971.376229 606.03342 
L 972.402059 606.0042 
L 973.427889 606.272986 
L 974.453718 605.162639 
L 976.505377 605.198299 
L 977.531207 605.96857 
L 978.557036 606.385055 
L 980.608696 606.457515 
L 981.634525 606.242569 
L 982.660355 607.474171 
L 983.686184 610.944654 
L 984.712014 605.938484 
L 985.737844 606.608434 
L 987.789503 606.085362 
L 988.815332 606.493898 
L 989.841162 607.403931 
L 990.866991 606.362514 
L 991.892821 606.468837 
L 992.918651 606.319688 
L 993.94448 606.668017 
L 994.97031 606.14187 
L 995.996139 606.343719 
L 997.021969 605.725958 
L 998.047799 601.317238 
L 999.073628 607.706919 
L 1000.099458 610.220996 
L 1001.125287 606.477604 
L 1002.151117 606.917471 
L 1003.176946 606.602738 
L 1004.202776 606.582098 
L 1005.228606 608.241295 
L 1006.254435 606.312046 
L 1007.280265 607.29659 
L 1008.306094 606.780058 
L 1009.331924 609.057045 
L 1010.357753 606.575214 
L 1011.383583 607.467913 
L 1013.435242 606.765146 
L 1014.461072 607.139825 
L 1015.486901 606.97651 
L 1016.512731 607.254354 
L 1017.538561 607.183816 
L 1018.56439 607.954679 
L 1019.59022 608.122275 
L 1020.616049 607.58209 
L 1021.641879 608.232203 
L 1022.667708 609.154266 
L 1023.693538 608.142143 
L 1026.771027 608.110579 
L 1027.796856 607.119708 
L 1028.822686 606.77094 
L 1029.848515 607.100812 
L 1030.874345 606.985139 
L 1031.900175 607.387796 
L 1032.926004 607.222895 
L 1033.951834 607.843579 
L 1034.977663 607.287757 
L 1036.003493 609.455408 
L 1037.029323 607.197206 
L 1038.055152 607.427564 
L 1039.080982 607.337764 
L 1040.106811 610.81904 
L 1041.132641 606.011058 
L 1042.15847 605.97632 
L 1043.1843 609.450627 
L 1044.21013 607.01889 
L 1045.235959 606.969211 
L 1046.261789 607.267365 
L 1048.313448 607.16631 
L 1049.339278 607.984436 
L 1050.365107 607.341701 
L 1051.390937 607.284312 
L 1052.416766 607.607011 
L 1053.442596 607.648639 
L 1055.494255 609.476409 
L 1056.520085 607.27006 
L 1057.545914 607.238612 
L 1058.571744 607.462349 
L 1059.597573 607.341716 
L 1060.623403 607.957802 
L 1061.649232 608.959114 
L 1062.675062 609.017109 
L 1063.700892 609.245011 
L 1064.726721 608.812852 
L 1065.752551 609.424981 
L 1066.77838 608.795353 
L 1067.80421 608.96845 
L 1068.83004 608.53702 
L 1069.855869 608.792576 
L 1071.907528 608.91009 
L 1072.933358 608.824722 
L 1073.959187 608.868678 
L 1074.985017 608.759246 
L 1076.010847 609.018162 
L 1077.036676 608.875814 
L 1078.062506 608.880156 
L 1079.088335 608.768326 
L 1080.114165 608.800099 
L 1081.139994 607.751801 
L 1082.165824 607.715941 
L 1083.191654 609.418913 
L 1084.217483 608.390328 
L 1085.243313 608.828619 
L 1086.269142 609.03863 
L 1087.294972 609.036279 
L 1088.320802 609.834888 
L 1089.346631 609.094816 
L 1090.372461 608.960372 
L 1091.39829 609.013913 
L 1092.42412 609.464122 
L 1093.449949 609.054345 
L 1094.475779 609.042926 
L 1095.501609 609.185039 
L 1100.630757 609.196793 
L 1101.656586 611.645467 
L 1102.682416 609.252959 
L 1103.708245 609.148131 
L 1104.734075 609.202214 
L 1105.759904 608.973897 
L 1106.785734 609.219065 
L 1107.811564 609.005904 
L 1108.837393 609.257293 
L 1109.863223 606.482149 
L 1110.889052 609.010333 
L 1111.914882 609.176458 
L 1112.940711 608.999882 
L 1113.966541 609.231011 
L 1114.992371 609.874142 
L 1116.0182 609.461072 
L 1117.04403 609.938088 
L 1118.069859 609.174784 
L 1119.095689 609.405357 
L 1120.121519 609.400267 
L 1121.147348 610.84268 
L 1122.173178 607.860135 
L 1123.199007 610.102324 
L 1124.224837 605.179886 
L 1125.250666 609.927595 
L 1126.276496 609.335746 
L 1127.302326 609.409453 
L 1129.353985 609.926549 
L 1130.379814 609.5385 
L 1131.405644 609.403026 
L 1133.457303 609.602083 
L 1135.508962 609.298133 
L 1136.534792 609.459546 
L 1137.560621 610.160167 
L 1138.586451 609.734407 
L 1139.612281 609.178849 
L 1140.63811 609.241078 
L 1141.66394 608.225882 
L 1142.689769 608.928539 
L 1143.715599 609.431476 
L 1145.767258 609.896467 
L 1147.818917 609.389348 
L 1148.844747 609.631973 
L 1149.870576 609.549692 
L 1150.896406 609.639975 
L 1151.922235 609.489913 
L 1152.948065 609.464303 
L 1153.973895 610.601385 
L 1154.999724 609.450906 
L 1156.025554 610.533593 
L 1157.051383 609.712942 
L 1158.077213 609.762707 
L 1159.103043 609.552696 
L 1160.128872 609.817261 
L 1161.154702 609.713319 
L 1162.180531 612.138272 
L 1163.206361 605.818258 
L 1164.23219 606.663178 
L 1165.25802 609.189201 
L 1166.28385 609.278121 
L 1167.309679 611.555579 
L 1168.335509 609.76429 
L 1170.387168 609.723389 
L 1171.412998 609.584024 
L 1172.438827 609.826376 
L 1173.464657 609.417988 
L 1174.490486 609.662989 
L 1175.516316 609.657974 
L 1176.542145 610.696274 
L 1177.567975 609.885866 
L 1178.593805 609.765537 
L 1179.619634 609.825041 
L 1180.645464 610.525528 
L 1181.671293 609.819353 
L 1182.697123 610.24961 
L 1183.722952 609.909333 
L 1184.748782 610.105013 
L 1185.774612 610.465608 
L 1186.800441 610.582328 
L 1187.826271 609.904827 
L 1190.90376 609.767162 
L 1191.929589 609.988341 
L 1192.955419 609.969123 
L 1195.007078 610.84283 
L 1196.032907 609.998681 
L 1199.110396 610.012775 
L 1200.136226 609.438349 
L 1201.162055 605.906418 
L 1202.187885 609.547295 
L 1203.213714 607.9759 
L 1204.239544 607.90466 
L 1205.265374 615.6 
L 1206.291203 609.299517 
L 1207.317033 609.747203 
L 1208.342862 610.935274 
L 1209.368692 610.087105 
L 1210.394522 610.140668 
L 1211.420351 609.796933 
L 1212.446181 610.118019 
L 1213.47201 610.032004 
L 1214.49784 609.798411 
L 1215.523669 611.055454 
L 1216.549499 609.872171 
L 1218.601158 609.730666 
L 1219.626988 611.002637 
L 1220.652817 610.163691 
L 1221.678647 610.776548 
L 1222.704477 610.704327 
L 1223.730306 611.092426 
L 1224.756136 610.302774 
L 1225.781965 610.133712 
L 1226.807795 610.241683 
L 1230.911113 610.091882 
L 1231.936943 610.992422 
L 1232.962772 612.245981 
L 1233.988602 610.260836 
L 1235.014431 610.672884 
L 1236.040261 610.243142 
L 1237.066091 610.371476 
L 1238.09192 609.430032 
L 1239.11775 610.10213 
L 1240.143579 610.034099 
L 1241.169409 608.245783 
L 1242.195239 611.051345 
L 1243.221068 610.359674 
L 1244.246898 610.392978 
L 1245.272727 610.258088 
L 1245.272727 610.258088 
" style="fill:none;stroke:#ff7f0e;stroke-linecap:square;stroke-width:1.5;"/>
   </g>
   <g id="patch_3">
    <path d="M 180 640.8 
L 180 86.4 
" style="fill:none;stroke:#000000;stroke-linecap:square;stroke-linejoin:miter;stroke-width:0.8;"/>
   </g>
   <g id="patch_4">
    <path d="M 1296 640.8 
L 1296 86.4 
" style="fill:none;stroke:#000000;stroke-linecap:square;stroke-linejoin:miter;stroke-width:0.8;"/>
   </g>
   <g id="patch_5">
    <path d="M 180 640.8 
L 1296 640.8 
" style="fill:none;stroke:#000000;stroke-linecap:square;stroke-linejoin:miter;stroke-width:0.8;"/>
   </g>
   <g id="patch_6">
    <path d="M 180 86.4 
L 1296 86.4 
" style="fill:none;stroke:#000000;stroke-linecap:square;stroke-linejoin:miter;stroke-width:0.8;"/>
   </g>
   <g id="text_22">
    <!-- Stochastic Oscillator Speedup -->
    <defs>
     <path d="M 53.515625 70.515625 
L 53.515625 60.890625 
Q 47.90625 63.578125 42.921875 64.890625 
Q 37.9375 66.21875 33.296875 66.21875 
Q 25.25 66.21875 20.875 63.09375 
Q 16.5 59.96875 16.5 54.203125 
Q 16.5 49.359375 19.40625 46.890625 
Q 22.3125 44.4375 30.421875 42.921875 
L 36.375 41.703125 
Q 47.40625 39.59375 52.65625 34.296875 
Q 57.90625 29 57.90625 20.125 
Q 57.90625 9.515625 50.796875 4.046875 
Q 43.703125 -1.421875 29.984375 -1.421875 
Q 24.8125 -1.421875 18.96875 -0.25 
Q 13.140625 0.921875 6.890625 3.21875 
L 6.890625 13.375 
Q 12.890625 10.015625 18.65625 8.296875 
Q 24.421875 6.59375 29.984375 6.59375 
Q 38.421875 6.59375 43.015625 9.90625 
Q 47.609375 13.234375 47.609375 19.390625 
Q 47.609375 24.75 44.3125 27.78125 
Q 41.015625 30.8125 33.5 32.328125 
L 27.484375 33.5 
Q 16.453125 35.6875 11.515625 40.375 
Q 6.59375 45.0625 6.59375 53.421875 
Q 6.59375 63.09375 13.40625 68.65625 
Q 20.21875 74.21875 32.171875 74.21875 
Q 37.3125 74.21875 42.625 73.28125 
Q 47.953125 72.359375 53.515625 70.515625 
z
" id="DejaVuSans-83"/>
     <path d="M 18.3125 70.21875 
L 18.3125 54.6875 
L 36.8125 54.6875 
L 36.8125 47.703125 
L 18.3125 47.703125 
L 18.3125 18.015625 
Q 18.3125 11.328125 20.140625 9.421875 
Q 21.96875 7.515625 27.59375 7.515625 
L 36.8125 7.515625 
L 36.8125 0 
L 27.59375 0 
Q 17.1875 0 13.234375 3.875 
Q 9.28125 7.765625 9.28125 18.015625 
L 9.28125 47.703125 
L 2.6875 47.703125 
L 2.6875 54.6875 
L 9.28125 54.6875 
L 9.28125 70.21875 
z
" id="DejaVuSans-116"/>
     <path d="M 30.609375 48.390625 
Q 23.390625 48.390625 19.1875 42.75 
Q 14.984375 37.109375 14.984375 27.296875 
Q 14.984375 17.484375 19.15625 11.84375 
Q 23.34375 6.203125 30.609375 6.203125 
Q 37.796875 6.203125 41.984375 11.859375 
Q 46.1875 17.53125 46.1875 27.296875 
Q 46.1875 37.015625 41.984375 42.703125 
Q 37.796875 48.390625 30.609375 48.390625 
z
M 30.609375 56 
Q 42.328125 56 49.015625 48.375 
Q 55.71875 40.765625 55.71875 27.296875 
Q 55.71875 13.875 49.015625 6.21875 
Q 42.328125 -1.421875 30.609375 -1.421875 
Q 18.84375 -1.421875 12.171875 6.21875 
Q 5.515625 13.875 5.515625 27.296875 
Q 5.515625 40.765625 12.171875 48.375 
Q 18.84375 56 30.609375 56 
z
" id="DejaVuSans-111"/>
     <path d="M 48.78125 52.59375 
L 48.78125 44.1875 
Q 44.96875 46.296875 41.140625 47.34375 
Q 37.3125 48.390625 33.40625 48.390625 
Q 24.65625 48.390625 19.8125 42.84375 
Q 14.984375 37.3125 14.984375 27.296875 
Q 14.984375 17.28125 19.8125 11.734375 
Q 24.65625 6.203125 33.40625 6.203125 
Q 37.3125 6.203125 41.140625 7.25 
Q 44.96875 8.296875 48.78125 10.40625 
L 48.78125 2.09375 
Q 45.015625 0.34375 40.984375 -0.53125 
Q 36.96875 -1.421875 32.421875 -1.421875 
Q 20.0625 -1.421875 12.78125 6.34375 
Q 5.515625 14.109375 5.515625 27.296875 
Q 5.515625 40.671875 12.859375 48.328125 
Q 20.21875 56 33.015625 56 
Q 37.15625 56 41.109375 55.140625 
Q 45.0625 54.296875 48.78125 52.59375 
z
" id="DejaVuSans-99"/>
     <path d="M 54.890625 33.015625 
L 54.890625 0 
L 45.90625 0 
L 45.90625 32.71875 
Q 45.90625 40.484375 42.875 44.328125 
Q 39.84375 48.1875 33.796875 48.1875 
Q 26.515625 48.1875 22.3125 43.546875 
Q 18.109375 38.921875 18.109375 30.90625 
L 18.109375 0 
L 9.078125 0 
L 9.078125 75.984375 
L 18.109375 75.984375 
L 18.109375 46.1875 
Q 21.34375 51.125 25.703125 53.5625 
Q 30.078125 56 35.796875 56 
Q 45.21875 56 50.046875 50.171875 
Q 54.890625 44.34375 54.890625 33.015625 
z
" id="DejaVuSans-104"/>
     <path d="M 34.28125 27.484375 
Q 23.390625 27.484375 19.1875 25 
Q 14.984375 22.515625 14.984375 16.5 
Q 14.984375 11.71875 18.140625 8.90625 
Q 21.296875 6.109375 26.703125 6.109375 
Q 34.1875 6.109375 38.703125 11.40625 
Q 43.21875 16.703125 43.21875 25.484375 
L 43.21875 27.484375 
z
M 52.203125 31.203125 
L 52.203125 0 
L 43.21875 0 
L 43.21875 8.296875 
Q 40.140625 3.328125 35.546875 0.953125 
Q 30.953125 -1.421875 24.3125 -1.421875 
Q 15.921875 -1.421875 10.953125 3.296875 
Q 6 8.015625 6 15.921875 
Q 6 25.140625 12.171875 29.828125 
Q 18.359375 34.515625 30.609375 34.515625 
L 43.21875 34.515625 
L 43.21875 35.40625 
Q 43.21875 41.609375 39.140625 45 
Q 35.0625 48.390625 27.6875 48.390625 
Q 23 48.390625 18.546875 47.265625 
Q 14.109375 46.140625 10.015625 43.890625 
L 10.015625 52.203125 
Q 14.9375 54.109375 19.578125 55.046875 
Q 24.21875 56 28.609375 56 
Q 40.484375 56 46.34375 49.84375 
Q 52.203125 43.703125 52.203125 31.203125 
z
" id="DejaVuSans-97"/>
     <path d="M 9.421875 54.6875 
L 18.40625 54.6875 
L 18.40625 0 
L 9.421875 0 
z
M 9.421875 75.984375 
L 18.40625 75.984375 
L 18.40625 64.59375 
L 9.421875 64.59375 
z
" id="DejaVuSans-105"/>
     <path id="DejaVuSans-32"/>
     <path d="M 39.40625 66.21875 
Q 28.65625 66.21875 22.328125 58.203125 
Q 16.015625 50.203125 16.015625 36.375 
Q 16.015625 22.609375 22.328125 14.59375 
Q 28.65625 6.59375 39.40625 6.59375 
Q 50.140625 6.59375 56.421875 14.59375 
Q 62.703125 22.609375 62.703125 36.375 
Q 62.703125 50.203125 56.421875 58.203125 
Q 50.140625 66.21875 39.40625 66.21875 
z
M 39.40625 74.21875 
Q 54.734375 74.21875 63.90625 63.9375 
Q 73.09375 53.65625 73.09375 36.375 
Q 73.09375 19.140625 63.90625 8.859375 
Q 54.734375 -1.421875 39.40625 -1.421875 
Q 24.03125 -1.421875 14.8125 8.828125 
Q 5.609375 19.09375 5.609375 36.375 
Q 5.609375 53.65625 14.8125 63.9375 
Q 24.03125 74.21875 39.40625 74.21875 
z
" id="DejaVuSans-79"/>
     <path d="M 9.421875 75.984375 
L 18.40625 75.984375 
L 18.40625 0 
L 9.421875 0 
z
" id="DejaVuSans-108"/>
     <path d="M 41.109375 46.296875 
Q 39.59375 47.171875 37.8125 47.578125 
Q 36.03125 48 33.890625 48 
Q 26.265625 48 22.1875 43.046875 
Q 18.109375 38.09375 18.109375 28.8125 
L 18.109375 0 
L 9.078125 0 
L 9.078125 54.6875 
L 18.109375 54.6875 
L 18.109375 46.1875 
Q 20.953125 51.171875 25.484375 53.578125 
Q 30.03125 56 36.53125 56 
Q 37.453125 56 38.578125 55.875 
Q 39.703125 55.765625 41.0625 55.515625 
z
" id="DejaVuSans-114"/>
    </defs>
    <g transform="translate(648.39375 80.4)scale(0.12 -0.12)">
     <use xlink:href="#DejaVuSans-83"/>
     <use x="63.476562" xlink:href="#DejaVuSans-116"/>
     <use x="102.685547" xlink:href="#DejaVuSans-111"/>
     <use x="163.867188" xlink:href="#DejaVuSans-99"/>
     <use x="218.847656" xlink:href="#DejaVuSans-104"/>
     <use x="282.226562" xlink:href="#DejaVuSans-97"/>
     <use x="343.505859" xlink:href="#DejaVuSans-115"/>
     <use x="395.605469" xlink:href="#DejaVuSans-116"/>
     <use x="434.814453" xlink:href="#DejaVuSans-105"/>
     <use x="462.597656" xlink:href="#DejaVuSans-99"/>
     <use x="517.578125" xlink:href="#DejaVuSans-32"/>
     <use x="549.365234" xlink:href="#DejaVuSans-79"/>
     <use x="628.076172" xlink:href="#DejaVuSans-115"/>
     <use x="680.175781" xlink:href="#DejaVuSans-99"/>
     <use x="735.15625" xlink:href="#DejaVuSans-105"/>
     <use x="762.939453" xlink:href="#DejaVuSans-108"/>
     <use x="790.722656" xlink:href="#DejaVuSans-108"/>
     <use x="818.505859" xlink:href="#DejaVuSans-97"/>
     <use x="879.785156" xlink:href="#DejaVuSans-116"/>
     <use x="918.994141" xlink:href="#DejaVuSans-111"/>
     <use x="980.175781" xlink:href="#DejaVuSans-114"/>
     <use x="1021.289062" xlink:href="#DejaVuSans-32"/>
     <use x="1053.076172" xlink:href="#DejaVuSans-83"/>
     <use x="1116.552734" xlink:href="#DejaVuSans-112"/>
     <use x="1180.029297" xlink:href="#DejaVuSans-101"/>
     <use x="1241.552734" xlink:href="#DejaVuSans-101"/>
     <use x="1303.076172" xlink:href="#DejaVuSans-100"/>
     <use x="1366.552734" xlink:href="#DejaVuSans-117"/>
     <use x="1429.931641" xlink:href="#DejaVuSans-112"/>
    </g>
   </g>
   <g id="legend_1">
    <g id="patch_7">
     <path d="M 1185.373437 123.75625 
L 1289 123.75625 
Q 1291 123.75625 1291 121.75625 
L 1291 93.4 
Q 1291 91.4 1289 91.4 
L 1185.373437 91.4 
Q 1183.373437 91.4 1183.373437 93.4 
L 1183.373437 121.75625 
Q 1183.373437 123.75625 1185.373437 123.75625 
z
" style="fill:#ffffff;opacity:0.8;stroke:#cccccc;stroke-linejoin:miter;"/>
    </g>
    <g id="line2d_22">
     <path d="M 1187.373437 99.498437 
L 1207.373437 99.498437 
" style="fill:none;stroke:#1f77b4;stroke-linecap:square;stroke-width:1.5;"/>
    </g>
    <g id="line2d_23"/>
    <g id="text_23">
     <!-- numpy.float32 -->
     <defs>
      <path d="M 52 44.1875 
Q 55.375 50.25 60.0625 53.125 
Q 64.75 56 71.09375 56 
Q 79.640625 56 84.28125 50.015625 
Q 88.921875 44.046875 88.921875 33.015625 
L 88.921875 0 
L 79.890625 0 
L 79.890625 32.71875 
Q 79.890625 40.578125 77.09375 44.375 
Q 74.3125 48.1875 68.609375 48.1875 
Q 61.625 48.1875 57.5625 43.546875 
Q 53.515625 38.921875 53.515625 30.90625 
L 53.515625 0 
L 44.484375 0 
L 44.484375 32.71875 
Q 44.484375 40.625 41.703125 44.40625 
Q 38.921875 48.1875 33.109375 48.1875 
Q 26.21875 48.1875 22.15625 43.53125 
Q 18.109375 38.875 18.109375 30.90625 
L 18.109375 0 
L 9.078125 0 
L 9.078125 54.6875 
L 18.109375 54.6875 
L 18.109375 46.1875 
Q 21.1875 51.21875 25.484375 53.609375 
Q 29.78125 56 35.6875 56 
Q 41.65625 56 45.828125 52.96875 
Q 50 49.953125 52 44.1875 
z
" id="DejaVuSans-109"/>
      <path d="M 32.171875 -5.078125 
Q 28.375 -14.84375 24.75 -17.8125 
Q 21.140625 -20.796875 15.09375 -20.796875 
L 7.90625 -20.796875 
L 7.90625 -13.28125 
L 13.1875 -13.28125 
Q 16.890625 -13.28125 18.9375 -11.515625 
Q 21 -9.765625 23.484375 -3.21875 
L 25.09375 0.875 
L 2.984375 54.6875 
L 12.5 54.6875 
L 29.59375 11.921875 
L 46.6875 54.6875 
L 56.203125 54.6875 
z
" id="DejaVuSans-121"/>
      <path d="M 37.109375 75.984375 
L 37.109375 68.5 
L 28.515625 68.5 
Q 23.6875 68.5 21.796875 66.546875 
Q 19.921875 64.59375 19.921875 59.515625 
L 19.921875 54.6875 
L 34.71875 54.6875 
L 34.71875 47.703125 
L 19.921875 47.703125 
L 19.921875 0 
L 10.890625 0 
L 10.890625 47.703125 
L 2.296875 47.703125 
L 2.296875 54.6875 
L 10.890625 54.6875 
L 10.890625 58.5 
Q 10.890625 67.625 15.140625 71.796875 
Q 19.390625 75.984375 28.609375 75.984375 
z
" id="DejaVuSans-102"/>
     </defs>
     <g transform="translate(1215.373437 102.998437)scale(0.1 -0.1)">
      <use xlink:href="#DejaVuSans-110"/>
      <use x="63.378906" xlink:href="#DejaVuSans-117"/>
      <use x="126.757812" xlink:href="#DejaVuSans-109"/>
      <use x="224.169922" xlink:href="#DejaVuSans-112"/>
      <use x="287.646484" xlink:href="#DejaVuSans-121"/>
      <use x="332.576172" xlink:href="#DejaVuSans-46"/>
      <use x="364.363281" xlink:href="#DejaVuSans-102"/>
      <use x="399.568359" xlink:href="#DejaVuSans-108"/>
      <use x="427.351562" xlink:href="#DejaVuSans-111"/>
      <use x="488.533203" xlink:href="#DejaVuSans-97"/>
      <use x="549.8125" xlink:href="#DejaVuSans-116"/>
      <use x="589.021484" xlink:href="#DejaVuSans-51"/>
      <use x="652.644531" xlink:href="#DejaVuSans-50"/>
     </g>
    </g>
    <g id="line2d_24">
     <path d="M 1187.373437 114.176562 
L 1207.373437 114.176562 
" style="fill:none;stroke:#ff7f0e;stroke-linecap:square;stroke-width:1.5;"/>
    </g>
    <g id="line2d_25"/>
    <g id="text_24">
     <!-- numpy.float64 -->
     <g transform="translate(1215.373437 117.676562)scale(0.1 -0.1)">
      <use xlink:href="#DejaVuSans-110"/>
      <use x="63.378906" xlink:href="#DejaVuSans-117"/>
      <use x="126.757812" xlink:href="#DejaVuSans-109"/>
      <use x="224.169922" xlink:href="#DejaVuSans-112"/>
      <use x="287.646484" xlink:href="#DejaVuSans-121"/>
      <use x="332.576172" xlink:href="#DejaVuSans-46"/>
      <use x="364.363281" xlink:href="#DejaVuSans-102"/>
      <use x="399.568359" xlink:href="#DejaVuSans-108"/>
      <use x="427.351562" xlink:href="#DejaVuSans-111"/>
      <use x="488.533203" xlink:href="#DejaVuSans-97"/>
      <use x="549.8125" xlink:href="#DejaVuSans-116"/>
      <use x="589.021484" xlink:href="#DejaVuSans-54"/>
      <use x="652.644531" xlink:href="#DejaVuSans-52"/>
     </g>
    </g>
   </g>
  </g>
 </g>
 <defs>
  <clipPath id="p44cc5b5ae9">
   <rect height="554.4" width="1116" x="180" y="86.4"/>
  </clipPath>
 </defs>
</svg>
