<?xml version="1.0" encoding="utf-8" standalone="no"?>
<!DOCTYPE svg PUBLIC "-//W3C//DTD SVG 1.1//EN"
  "http://www.w3.org/Graphics/SVG/1.1/DTD/svg11.dtd">
<!-- Created with matplotlib (https://matplotlib.org/) -->
<svg height="345.6pt" version="1.1" viewBox="0 0 460.8 345.6" width="460.8pt" xmlns="http://www.w3.org/2000/svg" xmlns:xlink="http://www.w3.org/1999/xlink">
 <defs>
  <style type="text/css">
*{stroke-linecap:butt;stroke-linejoin:round;}
  </style>
 </defs>
 <g id="figure_1">
  <g id="patch_1">
   <path d="M 0 345.6 
L 460.8 345.6 
L 460.8 0 
L 0 0 
z
" style="fill:#ffffff;"/>
  </g>
  <g id="axes_1">
   <g id="patch_2">
    <path d="M 57.6 307.584 
L 414.72 307.584 
L 414.72 41.472 
L 57.6 41.472 
z
" style="fill:#ffffff;"/>
   </g>
   <g id="matplotlib.axis_1">
    <g id="xtick_1">
     <g id="line2d_1">
      <defs>
       <path d="M 0 0 
L 0 3.5 
" id="m17476319b9" style="stroke:#000000;stroke-width:0.8;"/>
      </defs>
      <g>
       <use style="stroke:#000000;stroke-width:0.8;" x="106.659274" xlink:href="#m17476319b9" y="307.584"/>
      </g>
     </g>
     <g id="text_1">
      <!-- 100.0 -->
      <defs>
       <path d="M 12.40625 8.296875 
L 28.515625 8.296875 
L 28.515625 63.921875 
L 10.984375 60.40625 
L 10.984375 69.390625 
L 28.421875 72.90625 
L 38.28125 72.90625 
L 38.28125 8.296875 
L 54.390625 8.296875 
L 54.390625 0 
L 12.40625 0 
z
" id="DejaVuSans-49"/>
       <path d="M 31.78125 66.40625 
Q 24.171875 66.40625 20.328125 58.90625 
Q 16.5 51.421875 16.5 36.375 
Q 16.5 21.390625 20.328125 13.890625 
Q 24.171875 6.390625 31.78125 6.390625 
Q 39.453125 6.390625 43.28125 13.890625 
Q 47.125 21.390625 47.125 36.375 
Q 47.125 51.421875 43.28125 58.90625 
Q 39.453125 66.40625 31.78125 66.40625 
z
M 31.78125 74.21875 
Q 44.046875 74.21875 50.515625 64.515625 
Q 56.984375 54.828125 56.984375 36.375 
Q 56.984375 17.96875 50.515625 8.265625 
Q 44.046875 -1.421875 31.78125 -1.421875 
Q 19.53125 -1.421875 13.0625 8.265625 
Q 6.59375 17.96875 6.59375 36.375 
Q 6.59375 54.828125 13.0625 64.515625 
Q 19.53125 74.21875 31.78125 74.21875 
z
" id="DejaVuSans-48"/>
       <path d="M 10.6875 12.40625 
L 21 12.40625 
L 21 0 
L 10.6875 0 
z
" id="DejaVuSans-46"/>
      </defs>
      <g transform="translate(92.345211 322.182437)scale(0.1 -0.1)">
       <use xlink:href="#DejaVuSans-49"/>
       <use x="63.623047" xlink:href="#DejaVuSans-48"/>
       <use x="127.246094" xlink:href="#DejaVuSans-48"/>
       <use x="190.869141" xlink:href="#DejaVuSans-46"/>
       <use x="222.65625" xlink:href="#DejaVuSans-48"/>
      </g>
     </g>
    </g>
    <g id="xtick_2">
     <g id="line2d_2">
      <g>
       <use style="stroke:#000000;stroke-width:0.8;" x="139.48582" xlink:href="#m17476319b9" y="307.584"/>
      </g>
     </g>
     <g id="text_2">
      <!-- 200.0 -->
      <defs>
       <path d="M 19.1875 8.296875 
L 53.609375 8.296875 
L 53.609375 0 
L 7.328125 0 
L 7.328125 8.296875 
Q 12.9375 14.109375 22.625 23.890625 
Q 32.328125 33.6875 34.8125 36.53125 
Q 39.546875 41.84375 41.421875 45.53125 
Q 43.3125 49.21875 43.3125 52.78125 
Q 43.3125 58.59375 39.234375 62.25 
Q 35.15625 65.921875 28.609375 65.921875 
Q 23.96875 65.921875 18.8125 64.3125 
Q 13.671875 62.703125 7.8125 59.421875 
L 7.8125 69.390625 
Q 13.765625 71.78125 18.9375 73 
Q 24.125 74.21875 28.421875 74.21875 
Q 39.75 74.21875 46.484375 68.546875 
Q 53.21875 62.890625 53.21875 53.421875 
Q 53.21875 48.921875 51.53125 44.890625 
Q 49.859375 40.875 45.40625 35.40625 
Q 44.1875 33.984375 37.640625 27.21875 
Q 31.109375 20.453125 19.1875 8.296875 
z
" id="DejaVuSans-50"/>
      </defs>
      <g transform="translate(125.171758 322.182437)scale(0.1 -0.1)">
       <use xlink:href="#DejaVuSans-50"/>
       <use x="63.623047" xlink:href="#DejaVuSans-48"/>
       <use x="127.246094" xlink:href="#DejaVuSans-48"/>
       <use x="190.869141" xlink:href="#DejaVuSans-46"/>
       <use x="222.65625" xlink:href="#DejaVuSans-48"/>
      </g>
     </g>
    </g>
    <g id="xtick_3">
     <g id="line2d_3">
      <g>
       <use style="stroke:#000000;stroke-width:0.8;" x="172.312367" xlink:href="#m17476319b9" y="307.584"/>
      </g>
     </g>
     <g id="text_3">
      <!-- 300.0 -->
      <defs>
       <path d="M 40.578125 39.3125 
Q 47.65625 37.796875 51.625 33 
Q 55.609375 28.21875 55.609375 21.1875 
Q 55.609375 10.40625 48.1875 4.484375 
Q 40.765625 -1.421875 27.09375 -1.421875 
Q 22.515625 -1.421875 17.65625 -0.515625 
Q 12.796875 0.390625 7.625 2.203125 
L 7.625 11.71875 
Q 11.71875 9.328125 16.59375 8.109375 
Q 21.484375 6.890625 26.8125 6.890625 
Q 36.078125 6.890625 40.9375 10.546875 
Q 45.796875 14.203125 45.796875 21.1875 
Q 45.796875 27.640625 41.28125 31.265625 
Q 36.765625 34.90625 28.71875 34.90625 
L 20.21875 34.90625 
L 20.21875 43.015625 
L 29.109375 43.015625 
Q 36.375 43.015625 40.234375 45.921875 
Q 44.09375 48.828125 44.09375 54.296875 
Q 44.09375 59.90625 40.109375 62.90625 
Q 36.140625 65.921875 28.71875 65.921875 
Q 24.65625 65.921875 20.015625 65.03125 
Q 15.375 64.15625 9.8125 62.3125 
L 9.8125 71.09375 
Q 15.4375 72.65625 20.34375 73.4375 
Q 25.25 74.21875 29.59375 74.21875 
Q 40.828125 74.21875 47.359375 69.109375 
Q 53.90625 64.015625 53.90625 55.328125 
Q 53.90625 49.265625 50.4375 45.09375 
Q 46.96875 40.921875 40.578125 39.3125 
z
" id="DejaVuSans-51"/>
      </defs>
      <g transform="translate(157.998304 322.182437)scale(0.1 -0.1)">
       <use xlink:href="#DejaVuSans-51"/>
       <use x="63.623047" xlink:href="#DejaVuSans-48"/>
       <use x="127.246094" xlink:href="#DejaVuSans-48"/>
       <use x="190.869141" xlink:href="#DejaVuSans-46"/>
       <use x="222.65625" xlink:href="#DejaVuSans-48"/>
      </g>
     </g>
    </g>
    <g id="xtick_4">
     <g id="line2d_4">
      <g>
       <use style="stroke:#000000;stroke-width:0.8;" x="205.138914" xlink:href="#m17476319b9" y="307.584"/>
      </g>
     </g>
     <g id="text_4">
      <!-- 400.0 -->
      <defs>
       <path d="M 37.796875 64.3125 
L 12.890625 25.390625 
L 37.796875 25.390625 
z
M 35.203125 72.90625 
L 47.609375 72.90625 
L 47.609375 25.390625 
L 58.015625 25.390625 
L 58.015625 17.1875 
L 47.609375 17.1875 
L 47.609375 0 
L 37.796875 0 
L 37.796875 17.1875 
L 4.890625 17.1875 
L 4.890625 26.703125 
z
" id="DejaVuSans-52"/>
      </defs>
      <g transform="translate(190.824851 322.182437)scale(0.1 -0.1)">
       <use xlink:href="#DejaVuSans-52"/>
       <use x="63.623047" xlink:href="#DejaVuSans-48"/>
       <use x="127.246094" xlink:href="#DejaVuSans-48"/>
       <use x="190.869141" xlink:href="#DejaVuSans-46"/>
       <use x="222.65625" xlink:href="#DejaVuSans-48"/>
      </g>
     </g>
    </g>
    <g id="xtick_5">
     <g id="line2d_5">
      <g>
       <use style="stroke:#000000;stroke-width:0.8;" x="237.96546" xlink:href="#m17476319b9" y="307.584"/>
      </g>
     </g>
     <g id="text_5">
      <!-- 500.0 -->
      <defs>
       <path d="M 10.796875 72.90625 
L 49.515625 72.90625 
L 49.515625 64.59375 
L 19.828125 64.59375 
L 19.828125 46.734375 
Q 21.96875 47.46875 24.109375 47.828125 
Q 26.265625 48.1875 28.421875 48.1875 
Q 40.625 48.1875 47.75 41.5 
Q 54.890625 34.8125 54.890625 23.390625 
Q 54.890625 11.625 47.5625 5.09375 
Q 40.234375 -1.421875 26.90625 -1.421875 
Q 22.3125 -1.421875 17.546875 -0.640625 
Q 12.796875 0.140625 7.71875 1.703125 
L 7.71875 11.625 
Q 12.109375 9.234375 16.796875 8.0625 
Q 21.484375 6.890625 26.703125 6.890625 
Q 35.15625 6.890625 40.078125 11.328125 
Q 45.015625 15.765625 45.015625 23.390625 
Q 45.015625 31 40.078125 35.4375 
Q 35.15625 39.890625 26.703125 39.890625 
Q 22.75 39.890625 18.8125 39.015625 
Q 14.890625 38.140625 10.796875 36.28125 
z
" id="DejaVuSans-53"/>
      </defs>
      <g transform="translate(223.651398 322.182437)scale(0.1 -0.1)">
       <use xlink:href="#DejaVuSans-53"/>
       <use x="63.623047" xlink:href="#DejaVuSans-48"/>
       <use x="127.246094" xlink:href="#DejaVuSans-48"/>
       <use x="190.869141" xlink:href="#DejaVuSans-46"/>
       <use x="222.65625" xlink:href="#DejaVuSans-48"/>
      </g>
     </g>
    </g>
    <g id="xtick_6">
     <g id="line2d_6">
      <g>
       <use style="stroke:#000000;stroke-width:0.8;" x="270.792007" xlink:href="#m17476319b9" y="307.584"/>
      </g>
     </g>
     <g id="text_6">
      <!-- 600.0 -->
      <defs>
       <path d="M 33.015625 40.375 
Q 26.375 40.375 22.484375 35.828125 
Q 18.609375 31.296875 18.609375 23.390625 
Q 18.609375 15.53125 22.484375 10.953125 
Q 26.375 6.390625 33.015625 6.390625 
Q 39.65625 6.390625 43.53125 10.953125 
Q 47.40625 15.53125 47.40625 23.390625 
Q 47.40625 31.296875 43.53125 35.828125 
Q 39.65625 40.375 33.015625 40.375 
z
M 52.59375 71.296875 
L 52.59375 62.3125 
Q 48.875 64.0625 45.09375 64.984375 
Q 41.3125 65.921875 37.59375 65.921875 
Q 27.828125 65.921875 22.671875 59.328125 
Q 17.53125 52.734375 16.796875 39.40625 
Q 19.671875 43.65625 24.015625 45.921875 
Q 28.375 48.1875 33.59375 48.1875 
Q 44.578125 48.1875 50.953125 41.515625 
Q 57.328125 34.859375 57.328125 23.390625 
Q 57.328125 12.15625 50.6875 5.359375 
Q 44.046875 -1.421875 33.015625 -1.421875 
Q 20.359375 -1.421875 13.671875 8.265625 
Q 6.984375 17.96875 6.984375 36.375 
Q 6.984375 53.65625 15.1875 63.9375 
Q 23.390625 74.21875 37.203125 74.21875 
Q 40.921875 74.21875 44.703125 73.484375 
Q 48.484375 72.75 52.59375 71.296875 
z
" id="DejaVuSans-54"/>
      </defs>
      <g transform="translate(256.477944 322.182437)scale(0.1 -0.1)">
       <use xlink:href="#DejaVuSans-54"/>
       <use x="63.623047" xlink:href="#DejaVuSans-48"/>
       <use x="127.246094" xlink:href="#DejaVuSans-48"/>
       <use x="190.869141" xlink:href="#DejaVuSans-46"/>
       <use x="222.65625" xlink:href="#DejaVuSans-48"/>
      </g>
     </g>
    </g>
    <g id="xtick_7">
     <g id="line2d_7">
      <g>
       <use style="stroke:#000000;stroke-width:0.8;" x="303.618553" xlink:href="#m17476319b9" y="307.584"/>
      </g>
     </g>
     <g id="text_7">
      <!-- 700.0 -->
      <defs>
       <path d="M 8.203125 72.90625 
L 55.078125 72.90625 
L 55.078125 68.703125 
L 28.609375 0 
L 18.3125 0 
L 43.21875 64.59375 
L 8.203125 64.59375 
z
" id="DejaVuSans-55"/>
      </defs>
      <g transform="translate(289.304491 322.182437)scale(0.1 -0.1)">
       <use xlink:href="#DejaVuSans-55"/>
       <use x="63.623047" xlink:href="#DejaVuSans-48"/>
       <use x="127.246094" xlink:href="#DejaVuSans-48"/>
       <use x="190.869141" xlink:href="#DejaVuSans-46"/>
       <use x="222.65625" xlink:href="#DejaVuSans-48"/>
      </g>
     </g>
    </g>
    <g id="xtick_8">
     <g id="line2d_8">
      <g>
       <use style="stroke:#000000;stroke-width:0.8;" x="336.4451" xlink:href="#m17476319b9" y="307.584"/>
      </g>
     </g>
     <g id="text_8">
      <!-- 800.0 -->
      <defs>
       <path d="M 31.78125 34.625 
Q 24.75 34.625 20.71875 30.859375 
Q 16.703125 27.09375 16.703125 20.515625 
Q 16.703125 13.921875 20.71875 10.15625 
Q 24.75 6.390625 31.78125 6.390625 
Q 38.8125 6.390625 42.859375 10.171875 
Q 46.921875 13.96875 46.921875 20.515625 
Q 46.921875 27.09375 42.890625 30.859375 
Q 38.875 34.625 31.78125 34.625 
z
M 21.921875 38.8125 
Q 15.578125 40.375 12.03125 44.71875 
Q 8.5 49.078125 8.5 55.328125 
Q 8.5 64.0625 14.71875 69.140625 
Q 20.953125 74.21875 31.78125 74.21875 
Q 42.671875 74.21875 48.875 69.140625 
Q 55.078125 64.0625 55.078125 55.328125 
Q 55.078125 49.078125 51.53125 44.71875 
Q 48 40.375 41.703125 38.8125 
Q 48.828125 37.15625 52.796875 32.3125 
Q 56.78125 27.484375 56.78125 20.515625 
Q 56.78125 9.90625 50.3125 4.234375 
Q 43.84375 -1.421875 31.78125 -1.421875 
Q 19.734375 -1.421875 13.25 4.234375 
Q 6.78125 9.90625 6.78125 20.515625 
Q 6.78125 27.484375 10.78125 32.3125 
Q 14.796875 37.15625 21.921875 38.8125 
z
M 18.3125 54.390625 
Q 18.3125 48.734375 21.84375 45.5625 
Q 25.390625 42.390625 31.78125 42.390625 
Q 38.140625 42.390625 41.71875 45.5625 
Q 45.3125 48.734375 45.3125 54.390625 
Q 45.3125 60.0625 41.71875 63.234375 
Q 38.140625 66.40625 31.78125 66.40625 
Q 25.390625 66.40625 21.84375 63.234375 
Q 18.3125 60.0625 18.3125 54.390625 
z
" id="DejaVuSans-56"/>
      </defs>
      <g transform="translate(322.131037 322.182437)scale(0.1 -0.1)">
       <use xlink:href="#DejaVuSans-56"/>
       <use x="63.623047" xlink:href="#DejaVuSans-48"/>
       <use x="127.246094" xlink:href="#DejaVuSans-48"/>
       <use x="190.869141" xlink:href="#DejaVuSans-46"/>
       <use x="222.65625" xlink:href="#DejaVuSans-48"/>
      </g>
     </g>
    </g>
    <g id="xtick_9">
     <g id="line2d_9">
      <g>
       <use style="stroke:#000000;stroke-width:0.8;" x="369.271646" xlink:href="#m17476319b9" y="307.584"/>
      </g>
     </g>
     <g id="text_9">
      <!-- 900.0 -->
      <defs>
       <path d="M 10.984375 1.515625 
L 10.984375 10.5 
Q 14.703125 8.734375 18.5 7.8125 
Q 22.3125 6.890625 25.984375 6.890625 
Q 35.75 6.890625 40.890625 13.453125 
Q 46.046875 20.015625 46.78125 33.40625 
Q 43.953125 29.203125 39.59375 26.953125 
Q 35.25 24.703125 29.984375 24.703125 
Q 19.046875 24.703125 12.671875 31.3125 
Q 6.296875 37.9375 6.296875 49.421875 
Q 6.296875 60.640625 12.9375 67.421875 
Q 19.578125 74.21875 30.609375 74.21875 
Q 43.265625 74.21875 49.921875 64.515625 
Q 56.59375 54.828125 56.59375 36.375 
Q 56.59375 19.140625 48.40625 8.859375 
Q 40.234375 -1.421875 26.421875 -1.421875 
Q 22.703125 -1.421875 18.890625 -0.6875 
Q 15.09375 0.046875 10.984375 1.515625 
z
M 30.609375 32.421875 
Q 37.25 32.421875 41.125 36.953125 
Q 45.015625 41.5 45.015625 49.421875 
Q 45.015625 57.28125 41.125 61.84375 
Q 37.25 66.40625 30.609375 66.40625 
Q 23.96875 66.40625 20.09375 61.84375 
Q 16.21875 57.28125 16.21875 49.421875 
Q 16.21875 41.5 20.09375 36.953125 
Q 23.96875 32.421875 30.609375 32.421875 
z
" id="DejaVuSans-57"/>
      </defs>
      <g transform="translate(354.957584 322.182437)scale(0.1 -0.1)">
       <use xlink:href="#DejaVuSans-57"/>
       <use x="63.623047" xlink:href="#DejaVuSans-48"/>
       <use x="127.246094" xlink:href="#DejaVuSans-48"/>
       <use x="190.869141" xlink:href="#DejaVuSans-46"/>
       <use x="222.65625" xlink:href="#DejaVuSans-48"/>
      </g>
     </g>
    </g>
    <g id="xtick_10">
     <g id="line2d_10">
      <g>
       <use style="stroke:#000000;stroke-width:0.8;" x="402.098193" xlink:href="#m17476319b9" y="307.584"/>
      </g>
     </g>
     <g id="text_10">
      <!-- 1000.0 -->
      <g transform="translate(384.60288 322.182437)scale(0.1 -0.1)">
       <use xlink:href="#DejaVuSans-49"/>
       <use x="63.623047" xlink:href="#DejaVuSans-48"/>
       <use x="127.246094" xlink:href="#DejaVuSans-48"/>
       <use x="190.869141" xlink:href="#DejaVuSans-48"/>
       <use x="254.492188" xlink:href="#DejaVuSans-46"/>
       <use x="286.279297" xlink:href="#DejaVuSans-48"/>
      </g>
     </g>
    </g>
    <g id="text_11">
     <!-- n -->
     <defs>
      <path d="M 54.890625 33.015625 
L 54.890625 0 
L 45.90625 0 
L 45.90625 32.71875 
Q 45.90625 40.484375 42.875 44.328125 
Q 39.84375 48.1875 33.796875 48.1875 
Q 26.515625 48.1875 22.3125 43.546875 
Q 18.109375 38.921875 18.109375 30.90625 
L 18.109375 0 
L 9.078125 0 
L 9.078125 54.6875 
L 18.109375 54.6875 
L 18.109375 46.1875 
Q 21.34375 51.125 25.703125 53.5625 
Q 30.078125 56 35.796875 56 
Q 45.21875 56 50.046875 50.171875 
Q 54.890625 44.34375 54.890625 33.015625 
z
" id="DejaVuSans-110"/>
     </defs>
     <g transform="translate(232.99125 335.860562)scale(0.1 -0.1)">
      <use xlink:href="#DejaVuSans-110"/>
     </g>
    </g>
   </g>
   <g id="matplotlib.axis_2">
    <g id="ytick_1">
     <g id="line2d_11">
      <defs>
       <path d="M 0 0 
L -3.5 0 
" id="m5dd49f084b" style="stroke:#000000;stroke-width:0.8;"/>
      </defs>
      <g>
       <use style="stroke:#000000;stroke-width:0.8;" x="57.6" xlink:href="#m5dd49f084b" y="304.779186"/>
      </g>
     </g>
     <g id="text_12">
      <!-- 0 -->
      <g transform="translate(44.2375 308.578404)scale(0.1 -0.1)">
       <use xlink:href="#DejaVuSans-48"/>
      </g>
     </g>
    </g>
    <g id="ytick_2">
     <g id="line2d_12">
      <g>
       <use style="stroke:#000000;stroke-width:0.8;" x="57.6" xlink:href="#m5dd49f084b" y="257.13403"/>
      </g>
     </g>
     <g id="text_13">
      <!-- 100 -->
      <g transform="translate(31.5125 260.933249)scale(0.1 -0.1)">
       <use xlink:href="#DejaVuSans-49"/>
       <use x="63.623047" xlink:href="#DejaVuSans-48"/>
       <use x="127.246094" xlink:href="#DejaVuSans-48"/>
      </g>
     </g>
    </g>
    <g id="ytick_3">
     <g id="line2d_13">
      <g>
       <use style="stroke:#000000;stroke-width:0.8;" x="57.6" xlink:href="#m5dd49f084b" y="209.488875"/>
      </g>
     </g>
     <g id="text_14">
      <!-- 200 -->
      <g transform="translate(31.5125 213.288094)scale(0.1 -0.1)">
       <use xlink:href="#DejaVuSans-50"/>
       <use x="63.623047" xlink:href="#DejaVuSans-48"/>
       <use x="127.246094" xlink:href="#DejaVuSans-48"/>
      </g>
     </g>
    </g>
    <g id="ytick_4">
     <g id="line2d_14">
      <g>
       <use style="stroke:#000000;stroke-width:0.8;" x="57.6" xlink:href="#m5dd49f084b" y="161.84372"/>
      </g>
     </g>
     <g id="text_15">
      <!-- 300 -->
      <g transform="translate(31.5125 165.642939)scale(0.1 -0.1)">
       <use xlink:href="#DejaVuSans-51"/>
       <use x="63.623047" xlink:href="#DejaVuSans-48"/>
       <use x="127.246094" xlink:href="#DejaVuSans-48"/>
      </g>
     </g>
    </g>
    <g id="ytick_5">
     <g id="line2d_15">
      <g>
       <use style="stroke:#000000;stroke-width:0.8;" x="57.6" xlink:href="#m5dd49f084b" y="114.198565"/>
      </g>
     </g>
     <g id="text_16">
      <!-- 400 -->
      <g transform="translate(31.5125 117.997783)scale(0.1 -0.1)">
       <use xlink:href="#DejaVuSans-52"/>
       <use x="63.623047" xlink:href="#DejaVuSans-48"/>
       <use x="127.246094" xlink:href="#DejaVuSans-48"/>
      </g>
     </g>
    </g>
    <g id="ytick_6">
     <g id="line2d_16">
      <g>
       <use style="stroke:#000000;stroke-width:0.8;" x="57.6" xlink:href="#m5dd49f084b" y="66.553409"/>
      </g>
     </g>
     <g id="text_17">
      <!-- 500 -->
      <g transform="translate(31.5125 70.352628)scale(0.1 -0.1)">
       <use xlink:href="#DejaVuSans-53"/>
       <use x="63.623047" xlink:href="#DejaVuSans-48"/>
       <use x="127.246094" xlink:href="#DejaVuSans-48"/>
      </g>
     </g>
    </g>
    <g id="text_18">
     <!-- speedup -->
     <defs>
      <path d="M 44.28125 53.078125 
L 44.28125 44.578125 
Q 40.484375 46.53125 36.375 47.5 
Q 32.28125 48.484375 27.875 48.484375 
Q 21.1875 48.484375 17.84375 46.4375 
Q 14.5 44.390625 14.5 40.28125 
Q 14.5 37.15625 16.890625 35.375 
Q 19.28125 33.59375 26.515625 31.984375 
L 29.59375 31.296875 
Q 39.15625 29.25 43.1875 25.515625 
Q 47.21875 21.78125 47.21875 15.09375 
Q 47.21875 7.46875 41.1875 3.015625 
Q 35.15625 -1.421875 24.609375 -1.421875 
Q 20.21875 -1.421875 15.453125 -0.5625 
Q 10.6875 0.296875 5.421875 2 
L 5.421875 11.28125 
Q 10.40625 8.6875 15.234375 7.390625 
Q 20.0625 6.109375 24.8125 6.109375 
Q 31.15625 6.109375 34.5625 8.28125 
Q 37.984375 10.453125 37.984375 14.40625 
Q 37.984375 18.0625 35.515625 20.015625 
Q 33.0625 21.96875 24.703125 23.78125 
L 21.578125 24.515625 
Q 13.234375 26.265625 9.515625 29.90625 
Q 5.8125 33.546875 5.8125 39.890625 
Q 5.8125 47.609375 11.28125 51.796875 
Q 16.75 56 26.8125 56 
Q 31.78125 56 36.171875 55.265625 
Q 40.578125 54.546875 44.28125 53.078125 
z
" id="DejaVuSans-115"/>
      <path d="M 18.109375 8.203125 
L 18.109375 -20.796875 
L 9.078125 -20.796875 
L 9.078125 54.6875 
L 18.109375 54.6875 
L 18.109375 46.390625 
Q 20.953125 51.265625 25.265625 53.625 
Q 29.59375 56 35.59375 56 
Q 45.5625 56 51.78125 48.09375 
Q 58.015625 40.1875 58.015625 27.296875 
Q 58.015625 14.40625 51.78125 6.484375 
Q 45.5625 -1.421875 35.59375 -1.421875 
Q 29.59375 -1.421875 25.265625 0.953125 
Q 20.953125 3.328125 18.109375 8.203125 
z
M 48.6875 27.296875 
Q 48.6875 37.203125 44.609375 42.84375 
Q 40.53125 48.484375 33.40625 48.484375 
Q 26.265625 48.484375 22.1875 42.84375 
Q 18.109375 37.203125 18.109375 27.296875 
Q 18.109375 17.390625 22.1875 11.75 
Q 26.265625 6.109375 33.40625 6.109375 
Q 40.53125 6.109375 44.609375 11.75 
Q 48.6875 17.390625 48.6875 27.296875 
z
" id="DejaVuSans-112"/>
      <path d="M 56.203125 29.59375 
L 56.203125 25.203125 
L 14.890625 25.203125 
Q 15.484375 15.921875 20.484375 11.0625 
Q 25.484375 6.203125 34.421875 6.203125 
Q 39.59375 6.203125 44.453125 7.46875 
Q 49.3125 8.734375 54.109375 11.28125 
L 54.109375 2.78125 
Q 49.265625 0.734375 44.1875 -0.34375 
Q 39.109375 -1.421875 33.890625 -1.421875 
Q 20.796875 -1.421875 13.15625 6.1875 
Q 5.515625 13.8125 5.515625 26.8125 
Q 5.515625 40.234375 12.765625 48.109375 
Q 20.015625 56 32.328125 56 
Q 43.359375 56 49.78125 48.890625 
Q 56.203125 41.796875 56.203125 29.59375 
z
M 47.21875 32.234375 
Q 47.125 39.59375 43.09375 43.984375 
Q 39.0625 48.390625 32.421875 48.390625 
Q 24.90625 48.390625 20.390625 44.140625 
Q 15.875 39.890625 15.1875 32.171875 
z
" id="DejaVuSans-101"/>
      <path d="M 45.40625 46.390625 
L 45.40625 75.984375 
L 54.390625 75.984375 
L 54.390625 0 
L 45.40625 0 
L 45.40625 8.203125 
Q 42.578125 3.328125 38.25 0.953125 
Q 33.9375 -1.421875 27.875 -1.421875 
Q 17.96875 -1.421875 11.734375 6.484375 
Q 5.515625 14.40625 5.515625 27.296875 
Q 5.515625 40.1875 11.734375 48.09375 
Q 17.96875 56 27.875 56 
Q 33.9375 56 38.25 53.625 
Q 42.578125 51.265625 45.40625 46.390625 
z
M 14.796875 27.296875 
Q 14.796875 17.390625 18.875 11.75 
Q 22.953125 6.109375 30.078125 6.109375 
Q 37.203125 6.109375 41.296875 11.75 
Q 45.40625 17.390625 45.40625 27.296875 
Q 45.40625 37.203125 41.296875 42.84375 
Q 37.203125 48.484375 30.078125 48.484375 
Q 22.953125 48.484375 18.875 42.84375 
Q 14.796875 37.203125 14.796875 27.296875 
z
" id="DejaVuSans-100"/>
      <path d="M 8.5 21.578125 
L 8.5 54.6875 
L 17.484375 54.6875 
L 17.484375 21.921875 
Q 17.484375 14.15625 20.5 10.265625 
Q 23.53125 6.390625 29.59375 6.390625 
Q 36.859375 6.390625 41.078125 11.03125 
Q 45.3125 15.671875 45.3125 23.6875 
L 45.3125 54.6875 
L 54.296875 54.6875 
L 54.296875 0 
L 45.3125 0 
L 45.3125 8.40625 
Q 42.046875 3.421875 37.71875 1 
Q 33.40625 -1.421875 27.6875 -1.421875 
Q 18.265625 -1.421875 13.375 4.4375 
Q 8.5 10.296875 8.5 21.578125 
z
M 31.109375 56 
z
" id="DejaVuSans-117"/>
     </defs>
     <g transform="translate(25.432812 195.977219)rotate(-90)scale(0.1 -0.1)">
      <use xlink:href="#DejaVuSans-115"/>
      <use x="52.099609" xlink:href="#DejaVuSans-112"/>
      <use x="115.576172" xlink:href="#DejaVuSans-101"/>
      <use x="177.099609" xlink:href="#DejaVuSans-101"/>
      <use x="238.623047" xlink:href="#DejaVuSans-100"/>
      <use x="302.099609" xlink:href="#DejaVuSans-117"/>
      <use x="365.478516" xlink:href="#DejaVuSans-112"/>
     </g>
    </g>
   </g>
   <g id="line2d_17">
    <path clip-path="url(#pc0bbb95b4e)" d="M 73.832727 150.647584 
L 74.160993 187.861703 
L 74.489258 94.35999 
L 74.817524 180.781722 
L 75.145789 100.133284 
L 75.474055 179.745455 
L 75.80232 184.503593 
L 76.130586 126.422603 
L 76.458851 198.484422 
L 76.787116 123.107179 
L 77.443647 129.000879 
L 77.771913 132.182865 
L 78.100178 195.635303 
L 78.428444 149.53542 
L 78.756709 151.857509 
L 79.084975 157.161361 
L 79.41324 160.376109 
L 79.741506 164.701343 
L 80.069771 161.043245 
L 80.398037 164.575726 
L 80.726302 166.424505 
L 81.054568 169.653436 
L 81.382833 171.056052 
L 81.711098 173.56028 
L 82.039364 174.483358 
L 82.367629 178.017809 
L 82.695895 179.039197 
L 83.02416 178.049994 
L 83.352426 181.384865 
L 83.680691 183.057556 
L 84.008957 185.424947 
L 84.337222 189.19912 
L 84.665488 188.783011 
L 85.322019 192.753992 
L 85.650284 193.589133 
L 85.978549 200.962963 
L 86.306815 198.423524 
L 86.63508 194.757421 
L 87.291611 206.674848 
L 87.948142 203.053939 
L 88.276408 207.438783 
L 88.604673 209.950348 
L 89.261204 211.609337 
L 89.58947 211.627962 
L 89.917735 213.903725 
L 90.574266 216.133178 
L 90.902531 215.889577 
L 91.230797 216.668038 
L 91.559062 218.301841 
L 91.887328 219.19974 
L 92.215593 221.926484 
L 92.543859 221.601176 
L 92.872124 221.853013 
L 93.856921 226.032987 
L 94.513452 226.151088 
L 94.841717 227.875985 
L 95.169983 228.476323 
L 95.498248 229.744532 
L 95.826513 229.963965 
L 96.483044 230.921467 
L 96.81131 231.808611 
L 97.139575 232.048844 
L 97.467841 232.652765 
L 97.796106 234.154887 
L 98.124372 234.294023 
L 98.780903 235.662287 
L 99.109168 234.508893 
L 99.437434 237.891769 
L 99.765699 237.704637 
L 100.42223 238.280968 
L 100.750495 239.009018 
L 101.078761 240.376828 
L 101.407026 240.35756 
L 101.735292 240.68578 
L 103.376619 243.376228 
L 103.704885 242.768981 
L 104.03315 243.452233 
L 104.361416 246.772831 
L 104.689681 245.682796 
L 105.017947 246.157525 
L 105.346212 245.993831 
L 105.674477 245.467263 
L 106.002743 246.669419 
L 106.331008 246.920009 
L 107.972336 248.987547 
L 108.300601 249.320673 
L 108.628867 249.82141 
L 108.957132 250.752946 
L 109.285398 250.244844 
L 109.613663 251.523826 
L 110.270194 252.208871 
L 110.598459 252.767945 
L 110.926725 252.883722 
L 111.583256 253.464016 
L 111.911521 253.35694 
L 112.239787 253.895509 
L 113.224583 254.230043 
L 113.552849 255.109816 
L 113.881114 255.087475 
L 114.20938 255.182332 
L 114.537645 255.407154 
L 115.850707 256.977564 
L 116.178972 257.11503 
L 117.492034 258.301879 
L 117.8203 258.96779 
L 118.148565 259.001225 
L 118.805096 259.49986 
L 119.461627 259.812616 
L 119.789892 260.358218 
L 120.118158 260.230265 
L 121.43122 261.516927 
L 121.759485 261.476969 
L 122.416016 261.960472 
L 122.744282 262.161489 
L 123.072547 262.539464 
L 123.400813 262.621766 
L 124.057344 263.49785 
L 124.385609 263.542517 
L 124.713874 263.745358 
L 125.04214 264.49765 
L 125.370405 264.427131 
L 125.698671 264.70128 
L 126.026936 264.483363 
L 126.355202 264.643951 
L 126.683467 264.967815 
L 127.011733 265.117756 
L 127.339998 265.392687 
L 127.668264 265.400665 
L 127.996529 265.609441 
L 128.324795 264.729512 
L 128.65306 265.804257 
L 129.966122 266.886141 
L 130.622653 267.33682 
L 130.950918 267.630944 
L 131.607449 267.790893 
L 131.935715 279.773637 
L 132.26398 268.140144 
L 132.592246 268.174874 
L 132.920511 268.505864 
L 133.577042 268.562117 
L 134.233573 268.809053 
L 134.561838 269.247025 
L 134.890104 268.990269 
L 135.218369 269.495442 
L 135.8749 269.824036 
L 136.203166 269.829407 
L 136.531431 270.225597 
L 136.859697 270.177929 
L 137.187962 270.251568 
L 137.516228 272.072387 
L 137.844493 272.277146 
L 138.172759 271.484767 
L 138.501024 276.242195 
L 138.829289 259.641878 
L 139.157555 269.086475 
L 139.48582 271.105561 
L 139.814086 271.039753 
L 140.142351 270.746888 
L 140.470617 271.384574 
L 140.798882 270.616332 
L 141.127148 277.430689 
L 141.455413 270.863081 
L 141.783679 271.008463 
L 142.111944 271.948609 
L 142.44021 271.944002 
L 142.768475 270.328637 
L 143.096741 272.083796 
L 143.753271 272.861034 
L 144.081537 271.973475 
L 144.409802 277.707986 
L 144.738068 270.932235 
L 145.066333 273.277854 
L 145.394599 273.628671 
L 145.722864 273.468652 
L 146.05113 273.581972 
L 146.379395 273.309092 
L 147.035926 273.913202 
L 147.692457 273.497786 
L 148.020722 273.77056 
L 148.348988 284.123362 
L 148.677253 274.138446 
L 149.005519 274.627488 
L 150.318581 274.812817 
L 150.646846 275.253 
L 150.975112 279.520652 
L 151.303377 275.314416 
L 152.616439 275.650649 
L 152.944704 275.410603 
L 153.27297 275.443886 
L 153.601235 276.327672 
L 153.929501 275.858556 
L 154.257766 275.926577 
L 154.586032 276.379223 
L 154.914297 276.317218 
L 155.242563 276.413664 
L 155.570828 276.630569 
L 155.899094 276.658267 
L 156.227359 275.540881 
L 156.555625 276.828766 
L 156.88389 276.303237 
L 157.212156 277.056297 
L 157.868686 276.61807 
L 158.196952 282.985689 
L 158.525217 276.957394 
L 158.853483 277.447407 
L 160.823076 278.060133 
L 161.151341 278.260756 
L 161.479607 278.115363 
L 161.807872 278.098957 
L 162.136138 278.310451 
L 162.464403 278.152058 
L 162.792668 278.492183 
L 163.449199 278.61853 
L 163.777465 278.908979 
L 164.10573 278.850669 
L 164.762261 278.99785 
L 165.090527 278.906548 
L 165.418792 279.093725 
L 165.747058 279.110149 
L 166.403589 279.656401 
L 166.731854 279.371298 
L 167.060119 279.525552 
L 167.388385 279.44896 
L 167.71665 279.089832 
L 168.044916 279.558251 
L 169.029712 280.136983 
L 169.357978 279.899442 
L 169.686243 279.869266 
L 170.342774 280.269599 
L 170.67104 280.148373 
L 171.327571 280.343432 
L 171.655836 281.148882 
L 172.312367 280.552441 
L 173.297163 280.816495 
L 173.625429 280.712903 
L 174.28196 281.048087 
L 174.610225 281.138092 
L 174.938491 280.254591 
L 175.266756 281.115764 
L 175.923287 281.30309 
L 176.251553 281.049133 
L 176.579818 281.362684 
L 176.908083 281.356381 
L 177.236349 281.562865 
L 177.564614 281.411916 
L 177.89288 281.605578 
L 179.205942 281.81939 
L 179.534207 279.44257 
L 179.862473 281.970398 
L 180.190738 280.796546 
L 180.519004 281.096212 
L 180.847269 282.00645 
L 181.175535 281.980024 
L 181.5038 282.273995 
L 181.832065 281.252694 
L 182.160331 282.470577 
L 182.488596 282.247075 
L 182.816862 282.441726 
L 183.473393 282.2098 
L 183.801658 282.166562 
L 184.129924 282.702165 
L 184.786455 282.698919 
L 185.442986 282.978706 
L 186.099516 283.117648 
L 186.427782 283.309616 
L 186.756047 283.150555 
L 187.084313 283.286279 
L 187.412578 286.240357 
L 187.740844 282.70186 
L 188.069109 283.208365 
L 188.397375 283.324454 
L 188.72564 283.708595 
L 189.053906 283.456644 
L 189.382171 283.421036 
L 190.038702 283.715657 
L 190.366968 283.825096 
L 190.695233 283.763724 
L 192.33656 284.13217 
L 192.664826 284.338464 
L 193.321357 284.204437 
L 194.634419 284.305284 
L 195.29095 284.004352 
L 195.94748 284.444208 
L 196.275746 284.290811 
L 196.604011 284.587147 
L 197.588808 284.830171 
L 197.917073 284.750031 
L 198.245339 284.087428 
L 198.573604 284.789403 
L 198.90187 284.88468 
L 199.230135 284.76154 
L 199.886666 284.875167 
L 200.214932 285.124217 
L 200.543197 285.080084 
L 200.871462 284.905869 
L 201.199728 285.171077 
L 202.51279 285.47202 
L 202.841055 285.408537 
L 203.169321 285.560494 
L 203.825852 285.49281 
L 204.154117 285.522349 
L 204.482383 285.676287 
L 204.810648 285.570553 
L 205.138914 285.88657 
L 205.467179 285.893721 
L 205.795444 280.788649 
L 206.12371 284.042978 
L 206.451975 285.686195 
L 207.108506 285.983426 
L 207.436772 285.956373 
L 207.765037 286.405961 
L 208.093303 286.023802 
L 209.078099 286.107096 
L 210.062895 286.188342 
L 210.391161 288.564117 
L 210.719426 286.372776 
L 211.047692 286.052262 
L 211.704223 286.563896 
L 212.032488 287.981373 
L 212.360754 286.293075 
L 213.017285 286.352004 
L 213.34555 286.55482 
L 216.95647 286.958317 
L 217.284736 286.903194 
L 217.613001 287.042161 
L 218.269532 286.994425 
L 218.597798 286.829178 
L 218.926063 287.176597 
L 219.254329 287.187373 
L 219.910859 286.907398 
L 220.239125 287.284713 
L 221.552187 287.423033 
L 221.880452 287.251578 
L 222.865249 287.574475 
L 223.193514 288.890706 
L 223.52178 287.571129 
L 224.178311 287.63335 
L 224.506576 287.411477 
L 224.834841 287.577394 
L 227.789231 287.913778 
L 228.117496 286.08424 
L 228.445762 287.366731 
L 228.774027 287.426156 
L 229.102292 287.913626 
L 229.430558 286.21372 
L 229.758823 286.67388 
L 230.087089 288.019015 
L 230.415354 287.522395 
L 230.74362 288.111821 
L 231.071885 288.19892 
L 231.400151 287.746174 
L 231.728416 286.881755 
L 232.056682 288.291839 
L 232.384947 288.314182 
L 232.713213 288.136801 
L 233.041478 287.676765 
L 233.369744 288.545713 
L 233.698009 288.155826 
L 234.026274 288.2245 
L 234.35454 287.929715 
L 234.682805 288.567214 
L 235.011071 292.467851 
L 235.339336 292.729353 
L 235.667602 288.524955 
L 235.995867 288.495934 
L 237.308929 288.943385 
L 237.637195 289.607889 
L 237.96546 288.699503 
L 238.293726 288.848736 
L 238.621991 289.46946 
L 238.950256 288.825126 
L 239.278522 288.987376 
L 240.263318 288.823513 
L 240.591584 289.03365 
L 241.904646 289.051768 
L 242.232911 287.560135 
L 242.561177 289.026868 
L 242.889442 288.031306 
L 243.217708 289.042856 
L 243.545973 288.935497 
L 243.874238 289.15959 
L 244.202504 290.840731 
L 244.530769 288.818482 
L 244.859035 289.286864 
L 245.1873 288.999522 
L 246.172097 289.391818 
L 246.500362 289.383905 
L 246.828628 289.239423 
L 247.156893 290.606049 
L 247.485159 289.586464 
L 248.141689 289.64847 
L 248.79822 289.646951 
L 249.126486 289.726775 
L 249.454751 289.44541 
L 250.439548 289.705044 
L 250.767813 289.612537 
L 251.424344 289.733878 
L 251.75261 289.817024 
L 252.409141 289.703143 
L 253.065671 289.885785 
L 254.706999 289.979499 
L 255.035264 289.74794 
L 255.36353 289.956356 
L 256.020061 289.90414 
L 257.004857 290.11468 
L 257.333123 289.927757 
L 257.661388 290.064829 
L 257.989653 289.473265 
L 258.317919 290.093024 
L 258.646184 289.959315 
L 258.97445 291.126374 
L 259.302715 290.140017 
L 259.959246 290.135736 
L 260.615777 290.116521 
L 260.944043 290.301725 
L 261.928839 290.286881 
L 262.257105 292.033358 
L 262.58537 290.324996 
L 263.241901 290.329916 
L 263.570166 291.3708 
L 263.898432 290.410614 
L 265.868025 290.521596 
L 266.19629 290.404818 
L 266.852821 290.604452 
L 268.494148 290.58675 
L 271.448538 290.859118 
L 272.105068 290.710711 
L 272.433334 291.445794 
L 272.761599 290.615318 
L 273.089865 291.059233 
L 273.41813 290.810874 
L 273.746396 290.91055 
L 274.074661 291.208811 
L 275.059458 291.116051 
L 275.387723 291.112095 
L 275.715989 291.931192 
L 276.044254 291.019981 
L 276.700785 291.242079 
L 277.685581 291.095502 
L 279.98344 291.231238 
L 281.296502 291.260828 
L 281.624767 291.530476 
L 282.281298 291.350478 
L 283.266094 291.494924 
L 285.235687 291.508453 
L 285.892218 291.602603 
L 286.548749 291.534552 
L 286.877014 291.763696 
L 287.20528 291.845024 
L 287.533545 291.536857 
L 287.861811 291.73291 
L 293.770589 292.117054 
L 294.098855 291.993373 
L 294.42712 292.073484 
L 294.755386 292.861586 
L 295.083651 292.153339 
L 295.411917 292.174885 
L 295.740182 291.841285 
L 296.068447 292.081719 
L 296.396713 292.03608 
L 297.053244 292.215471 
L 297.381509 292.223901 
L 297.709775 292.99362 
L 298.03804 292.293074 
L 298.694571 292.194523 
L 299.351102 292.394148 
L 300.007633 292.230806 
L 300.335899 292.23484 
L 300.664164 292.989064 
L 300.992429 292.228387 
L 303.290288 292.378462 
L 303.618553 290.054595 
L 303.946819 292.336884 
L 304.60335 292.371732 
L 304.931615 292.461836 
L 305.259881 292.360498 
L 305.588146 292.968494 
L 305.916411 292.524376 
L 306.244677 293.29646 
L 306.572942 292.615181 
L 306.901208 292.455518 
L 307.229473 292.511094 
L 307.557739 292.6817 
L 307.886004 292.639364 
L 308.21427 292.709308 
L 308.542535 292.560033 
L 308.870801 292.552539 
L 309.527332 292.812115 
L 310.183862 292.685371 
L 310.512128 292.798132 
L 310.840393 292.742594 
L 311.168659 293.373944 
L 311.496924 292.632981 
L 312.809986 292.691579 
L 314.123048 292.818646 
L 315.43611 292.813638 
L 315.764375 292.594049 
L 316.092641 292.870683 
L 316.420906 292.945942 
L 317.077437 292.814526 
L 317.405703 292.943852 
L 318.062234 292.885397 
L 318.718765 292.983525 
L 319.04703 292.950467 
L 319.375296 293.034348 
L 319.703561 294.053324 
L 320.031826 293.01192 
L 320.688357 293.15713 
L 321.016623 293.094406 
L 321.344888 293.217525 
L 323.642747 293.135539 
L 324.627543 293.254698 
L 325.284074 293.230136 
L 325.612339 293.387695 
L 326.597136 293.362953 
L 326.925401 293.446915 
L 327.253667 293.239007 
L 327.581932 293.283752 
L 327.910198 293.448895 
L 328.566729 293.425175 
L 328.894994 293.283995 
L 329.223259 293.503983 
L 330.208056 293.331057 
L 330.864587 293.503507 
L 331.192852 294.046438 
L 331.521118 293.343144 
L 331.849383 293.608818 
L 332.177649 293.423597 
L 332.505914 293.511384 
L 332.83418 294.003915 
L 333.162445 293.589948 
L 333.490711 293.508586 
L 333.818976 293.615811 
L 334.147241 293.473347 
L 334.803772 293.569803 
L 335.132038 293.547818 
L 335.788569 293.685576 
L 336.116834 293.545664 
L 336.773365 293.743534 
L 337.101631 293.627816 
L 338.086427 293.714851 
L 338.414693 294.115116 
L 338.742958 293.613274 
L 339.071223 293.60869 
L 339.727754 293.926173 
L 341.040816 293.862175 
L 342.025613 293.857809 
L 342.353878 293.859319 
L 342.682144 293.670064 
L 343.66694 293.795298 
L 343.995205 293.801896 
L 344.323471 293.92224 
L 344.651736 293.816797 
L 344.980002 293.958452 
L 345.636533 293.954948 
L 348.262656 293.999076 
L 348.590922 293.686775 
L 348.919187 294.170264 
L 349.903984 293.948545 
L 350.232249 294.059731 
L 350.560515 293.983821 
L 351.873577 294.162458 
L 352.530108 294.053897 
L 352.858373 294.205214 
L 353.514904 294.158232 
L 353.843169 294.088167 
L 354.171435 294.210932 
L 354.827966 294.085747 
L 356.141028 294.111534 
L 356.797559 294.185254 
L 357.125824 294.662098 
L 357.45409 294.147874 
L 358.438886 294.280513 
L 358.767151 294.148726 
L 359.423682 294.272963 
L 360.736744 294.290555 
L 361.06501 294.738466 
L 361.393275 294.262411 
L 362.378072 294.334363 
L 362.706337 294.770644 
L 363.034602 294.291937 
L 363.691133 294.317454 
L 364.347664 294.305704 
L 364.67593 294.171582 
L 365.004195 294.366395 
L 365.660726 294.358647 
L 365.988992 294.826437 
L 366.317257 294.386694 
L 369.271646 294.448841 
L 369.599912 294.395374 
L 369.928177 294.461882 
L 370.256443 294.914937 
L 370.584708 294.473236 
L 371.241239 294.464791 
L 371.569505 294.589957 
L 371.89777 294.521986 
L 372.226035 294.296336 
L 372.554301 294.524248 
L 372.882566 295.488 
L 373.210832 294.917029 
L 373.867363 294.59851 
L 374.195628 294.688573 
L 375.180425 294.629596 
L 375.50869 294.749629 
L 376.165221 294.700173 
L 376.493487 295.173832 
L 376.821752 294.699901 
L 377.478283 294.63366 
L 378.791345 294.775478 
L 379.11961 294.661205 
L 379.776141 294.606627 
L 380.104407 295.114797 
L 380.432672 294.808154 
L 380.760938 294.853783 
L 381.089203 294.711833 
L 381.745734 294.854989 
L 382.402265 294.70004 
L 382.73053 294.835999 
L 385.356654 294.845241 
L 385.68492 294.959368 
L 386.669716 294.972142 
L 387.326247 294.945628 
L 387.654512 295.311854 
L 387.982778 294.919948 
L 388.311043 294.950526 
L 388.639309 295.348577 
L 388.967574 294.964777 
L 389.29584 294.948551 
L 389.624105 295.341873 
L 389.952371 294.989633 
L 390.280636 294.993767 
L 390.608902 295.344511 
L 390.937167 294.984555 
L 391.265432 295.040546 
L 391.593698 295.359649 
L 391.921963 295.038884 
L 392.250229 295.09588 
L 392.578494 294.942537 
L 393.235025 295.070017 
L 393.563291 294.888389 
L 394.219822 295.124571 
L 396.845945 295.112641 
L 397.174211 295.000714 
L 397.502476 295.166623 
L 398.487273 295.146937 
L 398.487273 295.146937 
" style="fill:none;stroke:#1f77b4;stroke-linecap:square;stroke-width:1.5;"/>
   </g>
   <g id="line2d_18">
    <path clip-path="url(#pc0bbb95b4e)" d="M 73.832727 101.819859 
L 74.160993 53.568 
L 74.489258 90.446019 
L 74.817524 86.079625 
L 75.145789 78.912646 
L 76.130586 107.37105 
L 76.458851 110.27106 
L 76.787116 110.309294 
L 77.443647 113.781416 
L 77.771913 118.092408 
L 78.100178 113.68669 
L 78.428444 124.202642 
L 79.084975 127.867899 
L 79.41324 129.163998 
L 79.741506 135.745643 
L 80.069771 138.385494 
L 80.398037 145.232146 
L 80.726302 145.227914 
L 82.039364 156.164687 
L 82.367629 157.206006 
L 82.695895 161.980883 
L 83.352426 167.025459 
L 83.680691 170.576652 
L 84.008957 171.482156 
L 84.337222 173.674802 
L 84.665488 173.929551 
L 84.993753 178.675119 
L 85.322019 180.336536 
L 85.650284 181.314871 
L 85.978549 183.31731 
L 86.306815 184.627438 
L 86.63508 187.412708 
L 86.963346 188.196203 
L 87.291611 194.59912 
L 87.619877 194.251181 
L 87.948142 193.180922 
L 88.276408 193.248835 
L 88.604673 193.738362 
L 88.932939 192.372584 
L 89.261204 196.255176 
L 89.917735 199.957405 
L 90.246001 200.756273 
L 90.574266 202.701939 
L 90.902531 205.485087 
L 91.230797 206.280569 
L 91.559062 207.894096 
L 91.887328 208.915425 
L 92.215593 208.541324 
L 92.543859 214.946257 
L 92.872124 211.542496 
L 93.20039 212.963279 
L 93.528655 212.272764 
L 93.856921 213.264014 
L 94.185186 213.138758 
L 94.513452 214.923149 
L 94.841717 215.394264 
L 95.169983 217.628226 
L 95.498248 217.452559 
L 95.826513 218.289416 
L 96.154779 218.370642 
L 96.483044 219.781211 
L 96.81131 219.755486 
L 97.139575 220.699478 
L 97.467841 226.816815 
L 97.796106 222.459032 
L 98.452637 224.699427 
L 98.780903 224.326489 
L 99.437434 227.293747 
L 99.765699 227.682918 
L 100.093965 228.417878 
L 100.42223 228.180793 
L 101.078761 230.5427 
L 101.407026 231.169374 
L 101.735292 232.96673 
L 102.063557 232.408643 
L 102.391823 235.484788 
L 102.720088 233.297241 
L 103.376619 234.369774 
L 103.704885 234.887331 
L 104.03315 242.17817 
L 104.361416 237.44278 
L 104.689681 236.560808 
L 105.017947 237.526765 
L 105.346212 236.75532 
L 105.674477 237.944544 
L 106.002743 238.011671 
L 106.331008 238.421483 
L 106.659274 239.248772 
L 107.315805 240.321778 
L 107.64407 241.310159 
L 107.972336 241.536035 
L 108.300601 241.439599 
L 108.628867 242.465453 
L 109.285398 242.422254 
L 109.613663 243.067401 
L 109.941928 243.417722 
L 110.270194 243.476624 
L 110.926725 243.971553 
L 111.25499 245.192393 
L 111.583256 244.903646 
L 111.911521 242.215902 
L 112.239787 245.171401 
L 113.224583 247.061619 
L 113.552849 247.494147 
L 113.881114 247.668979 
L 114.20938 248.765223 
L 114.537645 248.851852 
L 114.86591 248.200335 
L 115.194176 249.211457 
L 115.522441 249.394486 
L 115.850707 249.92851 
L 116.178972 249.092697 
L 116.835503 251.014919 
L 117.163769 250.046777 
L 117.492034 251.564024 
L 117.8203 251.240469 
L 118.148565 252.232435 
L 118.476831 252.447443 
L 118.805096 252.93892 
L 119.133362 252.648438 
L 119.461627 253.487491 
L 119.789892 252.592992 
L 120.118158 253.931689 
L 120.446423 254.122357 
L 120.774689 254.501972 
L 121.102954 257.041406 
L 121.43122 255.381025 
L 121.759485 254.813659 
L 122.087751 256.27537 
L 122.416016 255.962749 
L 122.744282 256.280373 
L 123.072547 256.135229 
L 123.400813 256.547886 
L 123.729078 256.741428 
L 124.057344 256.083842 
L 124.385609 255.905695 
L 124.713874 257.337085 
L 125.370405 257.911834 
L 125.698671 257.937513 
L 126.026936 258.08084 
L 126.683467 258.835209 
L 127.011733 258.924302 
L 127.339998 259.347176 
L 127.668264 259.298123 
L 127.996529 259.472673 
L 128.324795 259.923962 
L 128.65306 259.037789 
L 128.981325 260.052122 
L 129.966122 261.019544 
L 130.294387 261.476674 
L 130.622653 261.545482 
L 130.950918 260.425056 
L 131.279184 262.123609 
L 131.607449 262.018032 
L 131.935715 261.298595 
L 132.26398 261.186057 
L 132.592246 262.913205 
L 132.920511 263.5261 
L 133.577042 263.123897 
L 133.905307 262.436197 
L 134.233573 263.016124 
L 134.561838 263.133191 
L 135.218369 264.097855 
L 135.546635 264.087809 
L 135.8749 262.797312 
L 136.203166 264.3486 
L 136.531431 264.672396 
L 137.187962 264.663981 
L 137.516228 263.675892 
L 137.844493 268.790583 
L 138.172759 265.789015 
L 138.501024 265.276873 
L 138.829289 265.70106 
L 139.157555 266.371306 
L 139.48582 272.887442 
L 139.814086 266.249432 
L 140.142351 264.728506 
L 140.470617 265.981883 
L 140.798882 266.776162 
L 141.127148 266.421719 
L 141.455413 262.981164 
L 141.783679 267.283526 
L 142.111944 267.348515 
L 142.44021 259.295235 
L 142.768475 276.722796 
L 143.096741 267.467707 
L 143.425006 267.595774 
L 143.753271 271.982199 
L 144.081537 268.001268 
L 144.409802 267.823274 
L 144.738068 268.266263 
L 145.066333 268.367672 
L 145.394599 267.797101 
L 145.722864 268.156834 
L 146.05113 268.264913 
L 146.379395 269.017106 
L 147.035926 268.674177 
L 147.364192 278.266027 
L 147.692457 269.462849 
L 148.020722 268.877678 
L 148.348988 269.292173 
L 148.677253 269.094326 
L 149.005519 270.0921 
L 149.333784 269.865183 
L 149.66205 270.070261 
L 149.990315 269.095507 
L 150.318581 270.165412 
L 150.646846 270.000786 
L 150.975112 267.333457 
L 151.303377 271.163799 
L 151.631643 270.013738 
L 152.288174 271.544857 
L 152.616439 270.487481 
L 152.944704 270.581625 
L 153.27297 270.996375 
L 153.601235 270.217789 
L 153.929501 270.784306 
L 154.257766 271.737257 
L 154.586032 275.704371 
L 154.914297 272.605434 
L 155.242563 272.529149 
L 155.570828 271.853127 
L 155.899094 272.571088 
L 156.227359 272.7615 
L 156.555625 271.791916 
L 156.88389 272.735617 
L 157.212156 271.614441 
L 157.540421 272.873568 
L 158.196952 272.991863 
L 158.525217 272.255704 
L 158.853483 273.487272 
L 159.181748 273.379524 
L 159.838279 273.609027 
L 160.166545 278.392674 
L 160.49481 273.725537 
L 160.823076 273.531864 
L 161.151341 270.148449 
L 161.479607 274.253688 
L 161.807872 273.909749 
L 162.136138 274.228501 
L 162.464403 273.701499 
L 162.792668 274.737264 
L 163.120934 273.799412 
L 163.449199 274.64426 
L 163.777465 274.067618 
L 164.10573 274.316917 
L 164.433996 278.762909 
L 164.762261 274.108602 
L 165.090527 274.265174 
L 165.418792 275.003937 
L 165.747058 274.702498 
L 166.075323 274.914551 
L 166.403589 275.536345 
L 166.731854 275.674332 
L 167.060119 275.952106 
L 167.388385 275.031301 
L 167.71665 275.821929 
L 168.044916 275.181747 
L 168.373181 275.150367 
L 168.701447 275.295258 
L 169.029712 275.984919 
L 169.357978 275.168832 
L 169.686243 276.42963 
L 170.014509 276.289425 
L 170.67104 276.779689 
L 170.999305 276.440403 
L 171.327571 275.746504 
L 171.655836 277.779652 
L 171.984101 276.852931 
L 172.312367 276.479775 
L 172.640632 276.454696 
L 172.968898 277.081273 
L 173.297163 276.279631 
L 173.625429 277.144872 
L 173.953694 276.466005 
L 174.610225 277.153447 
L 174.938491 276.739226 
L 175.266756 277.195363 
L 175.595022 275.559043 
L 175.923287 277.305038 
L 176.251553 277.000773 
L 176.579818 277.79368 
L 176.908083 277.069138 
L 177.236349 277.75906 
L 177.564614 277.525341 
L 177.89288 277.705866 
L 178.221145 277.675214 
L 178.549411 278.148804 
L 178.877676 278.034032 
L 179.205942 278.54287 
L 179.534207 278.727232 
L 179.862473 278.568875 
L 180.190738 278.868337 
L 180.519004 278.747382 
L 181.175535 279.214966 
L 181.5038 278.873185 
L 181.832065 279.104005 
L 182.160331 279.192262 
L 182.488596 279.45482 
L 183.145127 279.280874 
L 183.473393 279.310239 
L 183.801658 279.633953 
L 184.129924 278.70985 
L 184.458189 279.039622 
L 184.786455 279.663193 
L 185.442986 279.043802 
L 185.771251 279.134933 
L 186.099516 279.08284 
L 186.427782 278.888824 
L 186.756047 279.028928 
L 187.084313 279.498218 
L 187.412578 279.577 
L 187.740844 279.798782 
L 188.069109 282.169835 
L 188.397375 281.374083 
L 188.72564 279.931898 
L 189.053906 279.867536 
L 189.382171 280.097467 
L 190.038702 279.934955 
L 190.366968 279.974351 
L 190.695233 282.549374 
L 191.023498 280.153468 
L 191.351764 279.89575 
L 191.680029 280.235269 
L 192.008295 279.858441 
L 192.33656 279.704982 
L 192.993091 280.488233 
L 193.321357 279.646867 
L 193.977888 281.221995 
L 194.306153 281.263517 
L 194.634419 281.087748 
L 194.962684 280.637343 
L 195.29095 281.27564 
L 195.619215 281.522498 
L 195.94748 283.313157 
L 196.275746 281.547902 
L 196.932277 281.098955 
L 197.260542 281.587168 
L 197.588808 280.948207 
L 197.917073 281.792441 
L 198.245339 281.15406 
L 198.573604 281.784754 
L 198.90187 281.692652 
L 199.230135 281.349754 
L 199.558401 281.559781 
L 199.886666 281.242848 
L 200.214932 281.322867 
L 200.543197 281.759412 
L 201.199728 281.427793 
L 201.856259 281.508109 
L 202.184524 282.523259 
L 202.51279 284.131508 
L 202.841055 281.69709 
L 203.169321 282.538514 
L 203.497586 282.536382 
L 203.825852 282.310267 
L 204.154117 282.790891 
L 204.482383 282.736376 
L 204.810648 282.159579 
L 205.138914 283.803558 
L 205.467179 281.176767 
L 205.795444 282.002828 
L 206.12371 282.517538 
L 206.451975 282.712391 
L 206.780241 282.423369 
L 207.108506 284.889494 
L 207.436772 282.685003 
L 207.765037 282.782551 
L 208.093303 283.19692 
L 208.421568 282.805121 
L 208.749834 283.454522 
L 209.078099 283.222225 
L 209.406365 283.215425 
L 209.73463 283.044393 
L 210.062895 283.098686 
L 210.719426 283.010646 
L 211.047692 283.065314 
L 211.375957 283.820364 
L 212.032488 283.460039 
L 212.360754 283.438999 
L 213.017285 283.658807 
L 213.34555 283.570282 
L 213.673816 283.360661 
L 214.002081 283.578612 
L 214.658612 283.371681 
L 214.986877 283.419715 
L 215.315143 283.847161 
L 215.643408 283.4361 
L 215.971674 282.843618 
L 216.299939 283.56273 
L 216.628205 283.944893 
L 216.95647 281.934858 
L 217.284736 283.928047 
L 217.613001 283.884198 
L 217.941267 284.283496 
L 218.269532 284.02099 
L 218.926063 283.857641 
L 219.254329 284.242789 
L 219.582594 285.738234 
L 219.910859 283.813696 
L 220.239125 283.87029 
L 220.56739 284.479217 
L 220.895656 286.067214 
L 221.223921 284.112586 
L 221.552187 284.150912 
L 221.880452 286.878839 
L 222.208718 284.72395 
L 222.865249 284.611712 
L 223.193514 285.032102 
L 223.52178 284.882598 
L 223.850045 284.581996 
L 224.178311 284.62325 
L 224.506576 284.869625 
L 225.163107 285.007411 
L 226.147903 285.181482 
L 226.476169 284.44402 
L 226.804434 285.099179 
L 227.1327 286.936351 
L 227.460965 284.961298 
L 228.117496 284.977789 
L 228.445762 285.419985 
L 228.774027 284.839453 
L 229.430558 284.894807 
L 230.74362 285.467803 
L 231.071885 285.113706 
L 231.400151 285.259573 
L 231.728416 285.105425 
L 232.056682 285.423807 
L 232.713213 285.437111 
L 233.041478 285.276692 
L 233.369744 285.304205 
L 233.698009 285.838147 
L 234.026274 285.585313 
L 234.682805 285.426226 
L 235.011071 285.633591 
L 235.339336 285.492424 
L 235.667602 285.517493 
L 235.995867 285.728625 
L 236.652398 285.631476 
L 236.980664 285.731158 
L 237.308929 285.565213 
L 237.637195 285.839156 
L 238.293726 285.760925 
L 238.621991 287.644265 
L 238.950256 286.516736 
L 239.278522 286.018363 
L 239.606787 286.014411 
L 239.935053 286.232121 
L 240.919849 286.039408 
L 241.904646 286.49195 
L 242.889442 286.079488 
L 243.217708 286.205209 
L 243.545973 286.545579 
L 243.874238 286.339242 
L 244.202504 286.348783 
L 244.530769 285.941525 
L 244.859035 286.007951 
L 245.515566 286.542364 
L 245.843831 286.38628 
L 246.172097 286.692222 
L 246.500362 286.287099 
L 246.828628 286.989553 
L 247.485159 286.607205 
L 248.141689 287.118951 
L 248.469955 286.805109 
L 249.126486 287.117066 
L 249.454751 286.996998 
L 249.783017 286.692233 
L 250.111282 287.082551 
L 250.439548 288.249733 
L 250.767813 287.25146 
L 251.096079 287.21764 
L 251.75261 286.914015 
L 252.080875 287.392391 
L 252.409141 286.962329 
L 253.722202 287.28437 
L 254.050468 287.137526 
L 254.378733 287.53709 
L 255.36353 287.509717 
L 255.691795 288.359627 
L 256.020061 287.344455 
L 256.348326 287.606101 
L 257.004857 287.66172 
L 257.333123 287.372313 
L 258.317919 287.576634 
L 258.646184 287.98567 
L 259.302715 287.524488 
L 259.630981 287.661023 
L 259.959246 287.605369 
L 260.287512 288.82868 
L 260.615777 287.549622 
L 261.272308 287.897236 
L 261.600574 287.463891 
L 261.928839 287.710637 
L 262.257105 290.841173 
L 262.58537 287.97967 
L 263.241901 287.802467 
L 263.570166 287.918127 
L 263.898432 287.831571 
L 264.226697 287.891809 
L 264.554963 287.805076 
L 265.211494 288.058319 
L 265.868025 287.922783 
L 266.524556 288.119504 
L 266.852821 287.267904 
L 267.181086 288.117933 
L 267.509352 288.423109 
L 267.837617 288.246843 
L 268.165883 288.373718 
L 268.494148 288.276617 
L 268.822414 287.789379 
L 269.478945 288.272703 
L 269.80721 288.245115 
L 270.135476 288.39055 
L 270.463741 288.407372 
L 270.792007 288.259773 
L 271.448538 288.340321 
L 272.105068 290.075753 
L 272.433334 289.679241 
L 272.761599 288.615057 
L 273.089865 289.892612 
L 273.41813 288.805276 
L 274.074661 288.565817 
L 274.402927 288.711821 
L 275.387723 288.714962 
L 275.715989 288.758811 
L 276.044254 288.647404 
L 277.02905 288.888998 
L 277.357316 288.631711 
L 277.685581 288.783694 
L 278.013847 288.799729 
L 278.670378 289.376051 
L 278.998643 288.738454 
L 279.655174 288.928096 
L 280.968236 289.009939 
L 281.296502 289.104987 
L 281.624767 289.000367 
L 282.609563 289.180681 
L 282.937829 289.050179 
L 283.59436 289.193636 
L 283.922625 287.84948 
L 284.250891 290.656942 
L 284.579156 289.238096 
L 284.907422 289.245407 
L 285.235687 289.399411 
L 285.563953 289.20608 
L 285.892218 287.307996 
L 286.220484 289.19056 
L 286.548749 288.092941 
L 286.877014 289.516623 
L 288.190076 289.726001 
L 288.518342 289.415651 
L 288.846607 289.561719 
L 289.174873 290.450943 
L 289.503138 289.570449 
L 289.831404 289.455039 
L 290.159669 289.880778 
L 290.487935 290.770022 
L 290.8162 289.528995 
L 291.472731 289.717688 
L 292.457527 289.281982 
L 292.785793 290.762149 
L 293.114058 289.667341 
L 294.42712 289.812019 
L 294.755386 290.812492 
L 295.083651 289.779084 
L 295.740182 289.966224 
L 296.396713 289.855693 
L 296.724978 289.959949 
L 297.053244 290.942435 
L 297.381509 289.949393 
L 298.03804 290.095221 
L 298.366306 289.933736 
L 299.022837 289.933441 
L 299.351102 290.060921 
L 300.335899 290.01363 
L 301.977226 290.228881 
L 302.305491 290.082325 
L 303.290288 290.203336 
L 303.946819 290.168517 
L 305.588146 290.267357 
L 305.916411 292.146253 
L 306.244677 290.565922 
L 306.572942 290.350221 
L 307.557739 290.482866 
L 307.886004 290.388275 
L 308.542535 290.519178 
L 309.527332 290.513651 
L 309.855597 290.593775 
L 310.183862 290.509402 
L 311.168659 290.55697 
L 311.496924 290.432161 
L 312.481721 290.700409 
L 312.809986 290.719179 
L 313.138252 290.506881 
L 313.794783 290.850151 
L 314.123048 290.655484 
L 314.451314 290.59172 
L 315.107844 290.891863 
L 315.43611 290.724186 
L 317.077437 290.860777 
L 317.405703 291.632638 
L 317.733968 290.811474 
L 318.390499 290.935457 
L 318.718765 290.838472 
L 320.688357 291.007857 
L 321.016623 290.937284 
L 321.344888 291.054445 
L 321.673154 290.598166 
L 322.329685 291.151205 
L 322.65795 292.559266 
L 322.986216 291.355203 
L 323.314481 291.136475 
L 324.955808 291.151276 
L 325.284074 291.358685 
L 326.597136 291.132282 
L 326.925401 291.321393 
L 327.253667 291.213315 
L 330.208056 291.409691 
L 331.192852 291.31189 
L 331.849383 291.495642 
L 334.475507 291.519776 
L 334.803772 291.609777 
L 335.132038 291.503891 
L 335.788569 291.469187 
L 336.116834 291.761112 
L 336.773365 291.549308 
L 337.101631 292.361671 
L 337.429896 291.701593 
L 337.758162 291.582231 
L 339.399489 291.812314 
L 339.727754 292.397412 
L 340.05602 291.918221 
L 340.384285 291.79402 
L 340.712551 291.846945 
L 341.040816 289.893762 
L 341.369082 291.971206 
L 341.697347 291.500265 
L 342.025613 291.87254 
L 342.353878 291.819429 
L 342.682144 291.929311 
L 343.338675 291.624366 
L 343.995205 291.892942 
L 344.323471 292.556732 
L 344.651736 291.90145 
L 346.621329 291.978718 
L 346.949595 292.076091 
L 347.934391 291.87179 
L 348.919187 292.068344 
L 350.560515 292.161661 
L 350.88878 292.060865 
L 351.545311 292.795684 
L 351.873577 292.228376 
L 353.843169 292.196856 
L 354.171435 291.68377 
L 354.4997 292.283298 
L 355.812762 292.301312 
L 356.141028 293.497249 
L 356.469293 293.259701 
L 356.797559 292.471502 
L 357.125824 292.436147 
L 357.45409 292.536348 
L 358.767151 292.393402 
L 359.095417 292.481717 
L 359.423682 292.40233 
L 359.751948 292.498555 
L 360.080213 292.37702 
L 360.408479 292.476268 
L 360.736744 292.315139 
L 361.06501 292.545683 
L 361.393275 292.438552 
L 362.049806 292.533197 
L 362.706337 292.421074 
L 363.034602 293.047609 
L 363.362868 292.468881 
L 363.691133 292.561259 
L 364.67593 292.487441 
L 365.004195 292.56074 
L 365.332461 292.490645 
L 365.660726 292.564275 
L 365.988992 292.409818 
L 366.645523 292.653022 
L 367.958584 292.478509 
L 368.28685 292.672379 
L 369.599912 292.585257 
L 369.928177 294.025712 
L 370.256443 292.697148 
L 371.241239 292.678476 
L 371.569505 292.813194 
L 372.226035 292.472261 
L 372.554301 292.698999 
L 372.882566 292.517374 
L 373.210832 293.687533 
L 373.539097 292.839094 
L 373.867363 292.684715 
L 374.195628 292.839946 
L 374.523894 292.82236 
L 374.852159 292.692147 
L 375.50869 292.914578 
L 376.165221 292.785345 
L 376.821752 292.954325 
L 377.478283 292.690583 
L 378.134814 292.980252 
L 378.463079 292.860371 
L 379.11961 292.889387 
L 379.447876 293.59955 
L 379.776141 292.796785 
L 380.432672 292.991775 
L 380.760938 293.116568 
L 381.089203 292.933596 
L 381.745734 292.951293 
L 382.073999 293.060908 
L 382.402265 292.930719 
L 383.387061 293.093229 
L 384.043592 292.935601 
L 384.700123 293.120954 
L 385.028389 292.996419 
L 385.356654 293.125916 
L 387.326247 293.072369 
L 387.982778 293.152861 
L 388.311043 293.143533 
L 388.639309 291.892069 
L 388.967574 293.16246 
L 389.29584 292.739589 
L 389.624105 293.14762 
L 389.952371 294.738271 
L 390.280636 294.301091 
L 390.608902 293.271378 
L 392.578494 293.288928 
L 394.548087 293.338963 
L 395.204618 293.380875 
L 395.532884 293.757576 
L 395.861149 293.346715 
L 396.51768 293.454381 
L 396.845945 293.354587 
L 397.174211 293.424445 
L 397.502476 293.316898 
L 398.159007 293.45598 
L 398.487273 293.383328 
L 398.487273 293.383328 
" style="fill:none;stroke:#ff7f0e;stroke-linecap:square;stroke-width:1.5;"/>
   </g>
   <g id="patch_3">
    <path d="M 57.6 307.584 
L 57.6 41.472 
" style="fill:none;stroke:#000000;stroke-linecap:square;stroke-linejoin:miter;stroke-width:0.8;"/>
   </g>
   <g id="patch_4">
    <path d="M 414.72 307.584 
L 414.72 41.472 
" style="fill:none;stroke:#000000;stroke-linecap:square;stroke-linejoin:miter;stroke-width:0.8;"/>
   </g>
   <g id="patch_5">
    <path d="M 57.6 307.584 
L 414.72 307.584 
" style="fill:none;stroke:#000000;stroke-linecap:square;stroke-linejoin:miter;stroke-width:0.8;"/>
   </g>
   <g id="patch_6">
    <path d="M 57.6 41.472 
L 414.72 41.472 
" style="fill:none;stroke:#000000;stroke-linecap:square;stroke-linejoin:miter;stroke-width:0.8;"/>
   </g>
   <g id="text_19">
    <!-- TSI Speedup -->
    <defs>
     <path d="M -0.296875 72.90625 
L 61.375 72.90625 
L 61.375 64.59375 
L 35.5 64.59375 
L 35.5 0 
L 25.59375 0 
L 25.59375 64.59375 
L -0.296875 64.59375 
z
" id="DejaVuSans-84"/>
     <path d="M 53.515625 70.515625 
L 53.515625 60.890625 
Q 47.90625 63.578125 42.921875 64.890625 
Q 37.9375 66.21875 33.296875 66.21875 
Q 25.25 66.21875 20.875 63.09375 
Q 16.5 59.96875 16.5 54.203125 
Q 16.5 49.359375 19.40625 46.890625 
Q 22.3125 44.4375 30.421875 42.921875 
L 36.375 41.703125 
Q 47.40625 39.59375 52.65625 34.296875 
Q 57.90625 29 57.90625 20.125 
Q 57.90625 9.515625 50.796875 4.046875 
Q 43.703125 -1.421875 29.984375 -1.421875 
Q 24.8125 -1.421875 18.96875 -0.25 
Q 13.140625 0.921875 6.890625 3.21875 
L 6.890625 13.375 
Q 12.890625 10.015625 18.65625 8.296875 
Q 24.421875 6.59375 29.984375 6.59375 
Q 38.421875 6.59375 43.015625 9.90625 
Q 47.609375 13.234375 47.609375 19.390625 
Q 47.609375 24.75 44.3125 27.78125 
Q 41.015625 30.8125 33.5 32.328125 
L 27.484375 33.5 
Q 16.453125 35.6875 11.515625 40.375 
Q 6.59375 45.0625 6.59375 53.421875 
Q 6.59375 63.09375 13.40625 68.65625 
Q 20.21875 74.21875 32.171875 74.21875 
Q 37.3125 74.21875 42.625 73.28125 
Q 47.953125 72.359375 53.515625 70.515625 
z
" id="DejaVuSans-83"/>
     <path d="M 9.8125 72.90625 
L 19.671875 72.90625 
L 19.671875 0 
L 9.8125 0 
z
" id="DejaVuSans-73"/>
     <path id="DejaVuSans-32"/>
    </defs>
    <g transform="translate(198.586875 35.472)scale(0.12 -0.12)">
     <use xlink:href="#DejaVuSans-84"/>
     <use x="61.083984" xlink:href="#DejaVuSans-83"/>
     <use x="124.560547" xlink:href="#DejaVuSans-73"/>
     <use x="154.052734" xlink:href="#DejaVuSans-32"/>
     <use x="185.839844" xlink:href="#DejaVuSans-83"/>
     <use x="249.316406" xlink:href="#DejaVuSans-112"/>
     <use x="312.792969" xlink:href="#DejaVuSans-101"/>
     <use x="374.316406" xlink:href="#DejaVuSans-101"/>
     <use x="435.839844" xlink:href="#DejaVuSans-100"/>
     <use x="499.316406" xlink:href="#DejaVuSans-117"/>
     <use x="562.695312" xlink:href="#DejaVuSans-112"/>
    </g>
   </g>
   <g id="legend_1">
    <g id="patch_7">
     <path d="M 304.093437 78.82825 
L 407.72 78.82825 
Q 409.72 78.82825 409.72 76.82825 
L 409.72 48.472 
Q 409.72 46.472 407.72 46.472 
L 304.093437 46.472 
Q 302.093437 46.472 302.093437 48.472 
L 302.093437 76.82825 
Q 302.093437 78.82825 304.093437 78.82825 
z
" style="fill:#ffffff;opacity:0.8;stroke:#cccccc;stroke-linejoin:miter;"/>
    </g>
    <g id="line2d_19">
     <path d="M 306.093437 54.570437 
L 326.093437 54.570437 
" style="fill:none;stroke:#1f77b4;stroke-linecap:square;stroke-width:1.5;"/>
    </g>
    <g id="line2d_20"/>
    <g id="text_20">
     <!-- numpy.float32 -->
     <defs>
      <path d="M 52 44.1875 
Q 55.375 50.25 60.0625 53.125 
Q 64.75 56 71.09375 56 
Q 79.640625 56 84.28125 50.015625 
Q 88.921875 44.046875 88.921875 33.015625 
L 88.921875 0 
L 79.890625 0 
L 79.890625 32.71875 
Q 79.890625 40.578125 77.09375 44.375 
Q 74.3125 48.1875 68.609375 48.1875 
Q 61.625 48.1875 57.5625 43.546875 
Q 53.515625 38.921875 53.515625 30.90625 
L 53.515625 0 
L 44.484375 0 
L 44.484375 32.71875 
Q 44.484375 40.625 41.703125 44.40625 
Q 38.921875 48.1875 33.109375 48.1875 
Q 26.21875 48.1875 22.15625 43.53125 
Q 18.109375 38.875 18.109375 30.90625 
L 18.109375 0 
L 9.078125 0 
L 9.078125 54.6875 
L 18.109375 54.6875 
L 18.109375 46.1875 
Q 21.1875 51.21875 25.484375 53.609375 
Q 29.78125 56 35.6875 56 
Q 41.65625 56 45.828125 52.96875 
Q 50 49.953125 52 44.1875 
z
" id="DejaVuSans-109"/>
      <path d="M 32.171875 -5.078125 
Q 28.375 -14.84375 24.75 -17.8125 
Q 21.140625 -20.796875 15.09375 -20.796875 
L 7.90625 -20.796875 
L 7.90625 -13.28125 
L 13.1875 -13.28125 
Q 16.890625 -13.28125 18.9375 -11.515625 
Q 21 -9.765625 23.484375 -3.21875 
L 25.09375 0.875 
L 2.984375 54.6875 
L 12.5 54.6875 
L 29.59375 11.921875 
L 46.6875 54.6875 
L 56.203125 54.6875 
z
" id="DejaVuSans-121"/>
      <path d="M 37.109375 75.984375 
L 37.109375 68.5 
L 28.515625 68.5 
Q 23.6875 68.5 21.796875 66.546875 
Q 19.921875 64.59375 19.921875 59.515625 
L 19.921875 54.6875 
L 34.71875 54.6875 
L 34.71875 47.703125 
L 19.921875 47.703125 
L 19.921875 0 
L 10.890625 0 
L 10.890625 47.703125 
L 2.296875 47.703125 
L 2.296875 54.6875 
L 10.890625 54.6875 
L 10.890625 58.5 
Q 10.890625 67.625 15.140625 71.796875 
Q 19.390625 75.984375 28.609375 75.984375 
z
" id="DejaVuSans-102"/>
      <path d="M 9.421875 75.984375 
L 18.40625 75.984375 
L 18.40625 0 
L 9.421875 0 
z
" id="DejaVuSans-108"/>
      <path d="M 30.609375 48.390625 
Q 23.390625 48.390625 19.1875 42.75 
Q 14.984375 37.109375 14.984375 27.296875 
Q 14.984375 17.484375 19.15625 11.84375 
Q 23.34375 6.203125 30.609375 6.203125 
Q 37.796875 6.203125 41.984375 11.859375 
Q 46.1875 17.53125 46.1875 27.296875 
Q 46.1875 37.015625 41.984375 42.703125 
Q 37.796875 48.390625 30.609375 48.390625 
z
M 30.609375 56 
Q 42.328125 56 49.015625 48.375 
Q 55.71875 40.765625 55.71875 27.296875 
Q 55.71875 13.875 49.015625 6.21875 
Q 42.328125 -1.421875 30.609375 -1.421875 
Q 18.84375 -1.421875 12.171875 6.21875 
Q 5.515625 13.875 5.515625 27.296875 
Q 5.515625 40.765625 12.171875 48.375 
Q 18.84375 56 30.609375 56 
z
" id="DejaVuSans-111"/>
      <path d="M 34.28125 27.484375 
Q 23.390625 27.484375 19.1875 25 
Q 14.984375 22.515625 14.984375 16.5 
Q 14.984375 11.71875 18.140625 8.90625 
Q 21.296875 6.109375 26.703125 6.109375 
Q 34.1875 6.109375 38.703125 11.40625 
Q 43.21875 16.703125 43.21875 25.484375 
L 43.21875 27.484375 
z
M 52.203125 31.203125 
L 52.203125 0 
L 43.21875 0 
L 43.21875 8.296875 
Q 40.140625 3.328125 35.546875 0.953125 
Q 30.953125 -1.421875 24.3125 -1.421875 
Q 15.921875 -1.421875 10.953125 3.296875 
Q 6 8.015625 6 15.921875 
Q 6 25.140625 12.171875 29.828125 
Q 18.359375 34.515625 30.609375 34.515625 
L 43.21875 34.515625 
L 43.21875 35.40625 
Q 43.21875 41.609375 39.140625 45 
Q 35.0625 48.390625 27.6875 48.390625 
Q 23 48.390625 18.546875 47.265625 
Q 14.109375 46.140625 10.015625 43.890625 
L 10.015625 52.203125 
Q 14.9375 54.109375 19.578125 55.046875 
Q 24.21875 56 28.609375 56 
Q 40.484375 56 46.34375 49.84375 
Q 52.203125 43.703125 52.203125 31.203125 
z
" id="DejaVuSans-97"/>
      <path d="M 18.3125 70.21875 
L 18.3125 54.6875 
L 36.8125 54.6875 
L 36.8125 47.703125 
L 18.3125 47.703125 
L 18.3125 18.015625 
Q 18.3125 11.328125 20.140625 9.421875 
Q 21.96875 7.515625 27.59375 7.515625 
L 36.8125 7.515625 
L 36.8125 0 
L 27.59375 0 
Q 17.1875 0 13.234375 3.875 
Q 9.28125 7.765625 9.28125 18.015625 
L 9.28125 47.703125 
L 2.6875 47.703125 
L 2.6875 54.6875 
L 9.28125 54.6875 
L 9.28125 70.21875 
z
" id="DejaVuSans-116"/>
     </defs>
     <g transform="translate(334.093437 58.070437)scale(0.1 -0.1)">
      <use xlink:href="#DejaVuSans-110"/>
      <use x="63.378906" xlink:href="#DejaVuSans-117"/>
      <use x="126.757812" xlink:href="#DejaVuSans-109"/>
      <use x="224.169922" xlink:href="#DejaVuSans-112"/>
      <use x="287.646484" xlink:href="#DejaVuSans-121"/>
      <use x="332.576172" xlink:href="#DejaVuSans-46"/>
      <use x="364.363281" xlink:href="#DejaVuSans-102"/>
      <use x="399.568359" xlink:href="#DejaVuSans-108"/>
      <use x="427.351562" xlink:href="#DejaVuSans-111"/>
      <use x="488.533203" xlink:href="#DejaVuSans-97"/>
      <use x="549.8125" xlink:href="#DejaVuSans-116"/>
      <use x="589.021484" xlink:href="#DejaVuSans-51"/>
      <use x="652.644531" xlink:href="#DejaVuSans-50"/>
     </g>
    </g>
    <g id="line2d_21">
     <path d="M 306.093437 69.248562 
L 326.093437 69.248562 
" style="fill:none;stroke:#ff7f0e;stroke-linecap:square;stroke-width:1.5;"/>
    </g>
    <g id="line2d_22"/>
    <g id="text_21">
     <!-- numpy.float64 -->
     <g transform="translate(334.093437 72.748562)scale(0.1 -0.1)">
      <use xlink:href="#DejaVuSans-110"/>
      <use x="63.378906" xlink:href="#DejaVuSans-117"/>
      <use x="126.757812" xlink:href="#DejaVuSans-109"/>
      <use x="224.169922" xlink:href="#DejaVuSans-112"/>
      <use x="287.646484" xlink:href="#DejaVuSans-121"/>
      <use x="332.576172" xlink:href="#DejaVuSans-46"/>
      <use x="364.363281" xlink:href="#DejaVuSans-102"/>
      <use x="399.568359" xlink:href="#DejaVuSans-108"/>
      <use x="427.351562" xlink:href="#DejaVuSans-111"/>
      <use x="488.533203" xlink:href="#DejaVuSans-97"/>
      <use x="549.8125" xlink:href="#DejaVuSans-116"/>
      <use x="589.021484" xlink:href="#DejaVuSans-54"/>
      <use x="652.644531" xlink:href="#DejaVuSans-52"/>
     </g>
    </g>
   </g>
  </g>
 </g>
 <defs>
  <clipPath id="pc0bbb95b4e">
   <rect height="266.112" width="357.12" x="57.6" y="41.472"/>
  </clipPath>
 </defs>
</svg>
