<?xml version="1.0" encoding="utf-8" standalone="no"?>
<!DOCTYPE svg PUBLIC "-//W3C//DTD SVG 1.1//EN"
  "http://www.w3.org/Graphics/SVG/1.1/DTD/svg11.dtd">
<!-- Created with matplotlib (https://matplotlib.org/) -->
<svg height="720pt" version="1.1" viewBox="0 0 1440 720" width="1440pt" xmlns="http://www.w3.org/2000/svg" xmlns:xlink="http://www.w3.org/1999/xlink">
 <defs>
  <style type="text/css">
*{stroke-linecap:butt;stroke-linejoin:round;}
  </style>
 </defs>
 <g id="figure_1">
  <g id="patch_1">
   <path d="M 0 720 
L 1440 720 
L 1440 0 
L 0 0 
z
" style="fill:#ffffff;"/>
  </g>
  <g id="axes_1">
   <g id="patch_2">
    <path d="M 180 640.8 
L 1296 640.8 
L 1296 86.4 
L 180 86.4 
z
" style="fill:#ffffff;"/>
   </g>
   <g id="matplotlib.axis_1">
    <g id="xtick_1">
     <g id="line2d_1">
      <defs>
       <path d="M 0 0 
L 0 3.5 
" id="m7be4a33b1f" style="stroke:#000000;stroke-width:0.8;"/>
      </defs>
      <g>
       <use style="stroke:#000000;stroke-width:0.8;" x="333.310231" xlink:href="#m7be4a33b1f" y="640.8"/>
      </g>
     </g>
     <g id="text_1">
      <!-- 100.0 -->
      <defs>
       <path d="M 12.40625 8.296875 
L 28.515625 8.296875 
L 28.515625 63.921875 
L 10.984375 60.40625 
L 10.984375 69.390625 
L 28.421875 72.90625 
L 38.28125 72.90625 
L 38.28125 8.296875 
L 54.390625 8.296875 
L 54.390625 0 
L 12.40625 0 
z
" id="DejaVuSans-49"/>
       <path d="M 31.78125 66.40625 
Q 24.171875 66.40625 20.328125 58.90625 
Q 16.5 51.421875 16.5 36.375 
Q 16.5 21.390625 20.328125 13.890625 
Q 24.171875 6.390625 31.78125 6.390625 
Q 39.453125 6.390625 43.28125 13.890625 
Q 47.125 21.390625 47.125 36.375 
Q 47.125 51.421875 43.28125 58.90625 
Q 39.453125 66.40625 31.78125 66.40625 
z
M 31.78125 74.21875 
Q 44.046875 74.21875 50.515625 64.515625 
Q 56.984375 54.828125 56.984375 36.375 
Q 56.984375 17.96875 50.515625 8.265625 
Q 44.046875 -1.421875 31.78125 -1.421875 
Q 19.53125 -1.421875 13.0625 8.265625 
Q 6.59375 17.96875 6.59375 36.375 
Q 6.59375 54.828125 13.0625 64.515625 
Q 19.53125 74.21875 31.78125 74.21875 
z
" id="DejaVuSans-48"/>
       <path d="M 10.6875 12.40625 
L 21 12.40625 
L 21 0 
L 10.6875 0 
z
" id="DejaVuSans-46"/>
      </defs>
      <g transform="translate(318.996168 655.398438)scale(0.1 -0.1)">
       <use xlink:href="#DejaVuSans-49"/>
       <use x="63.623047" xlink:href="#DejaVuSans-48"/>
       <use x="127.246094" xlink:href="#DejaVuSans-48"/>
       <use x="190.869141" xlink:href="#DejaVuSans-46"/>
       <use x="222.65625" xlink:href="#DejaVuSans-48"/>
      </g>
     </g>
    </g>
    <g id="xtick_2">
     <g id="line2d_2">
      <g>
       <use style="stroke:#000000;stroke-width:0.8;" x="435.893189" xlink:href="#m7be4a33b1f" y="640.8"/>
      </g>
     </g>
     <g id="text_2">
      <!-- 200.0 -->
      <defs>
       <path d="M 19.1875 8.296875 
L 53.609375 8.296875 
L 53.609375 0 
L 7.328125 0 
L 7.328125 8.296875 
Q 12.9375 14.109375 22.625 23.890625 
Q 32.328125 33.6875 34.8125 36.53125 
Q 39.546875 41.84375 41.421875 45.53125 
Q 43.3125 49.21875 43.3125 52.78125 
Q 43.3125 58.59375 39.234375 62.25 
Q 35.15625 65.921875 28.609375 65.921875 
Q 23.96875 65.921875 18.8125 64.3125 
Q 13.671875 62.703125 7.8125 59.421875 
L 7.8125 69.390625 
Q 13.765625 71.78125 18.9375 73 
Q 24.125 74.21875 28.421875 74.21875 
Q 39.75 74.21875 46.484375 68.546875 
Q 53.21875 62.890625 53.21875 53.421875 
Q 53.21875 48.921875 51.53125 44.890625 
Q 49.859375 40.875 45.40625 35.40625 
Q 44.1875 33.984375 37.640625 27.21875 
Q 31.109375 20.453125 19.1875 8.296875 
z
" id="DejaVuSans-50"/>
      </defs>
      <g transform="translate(421.579126 655.398438)scale(0.1 -0.1)">
       <use xlink:href="#DejaVuSans-50"/>
       <use x="63.623047" xlink:href="#DejaVuSans-48"/>
       <use x="127.246094" xlink:href="#DejaVuSans-48"/>
       <use x="190.869141" xlink:href="#DejaVuSans-46"/>
       <use x="222.65625" xlink:href="#DejaVuSans-48"/>
      </g>
     </g>
    </g>
    <g id="xtick_3">
     <g id="line2d_3">
      <g>
       <use style="stroke:#000000;stroke-width:0.8;" x="538.476147" xlink:href="#m7be4a33b1f" y="640.8"/>
      </g>
     </g>
     <g id="text_3">
      <!-- 300.0 -->
      <defs>
       <path d="M 40.578125 39.3125 
Q 47.65625 37.796875 51.625 33 
Q 55.609375 28.21875 55.609375 21.1875 
Q 55.609375 10.40625 48.1875 4.484375 
Q 40.765625 -1.421875 27.09375 -1.421875 
Q 22.515625 -1.421875 17.65625 -0.515625 
Q 12.796875 0.390625 7.625 2.203125 
L 7.625 11.71875 
Q 11.71875 9.328125 16.59375 8.109375 
Q 21.484375 6.890625 26.8125 6.890625 
Q 36.078125 6.890625 40.9375 10.546875 
Q 45.796875 14.203125 45.796875 21.1875 
Q 45.796875 27.640625 41.28125 31.265625 
Q 36.765625 34.90625 28.71875 34.90625 
L 20.21875 34.90625 
L 20.21875 43.015625 
L 29.109375 43.015625 
Q 36.375 43.015625 40.234375 45.921875 
Q 44.09375 48.828125 44.09375 54.296875 
Q 44.09375 59.90625 40.109375 62.90625 
Q 36.140625 65.921875 28.71875 65.921875 
Q 24.65625 65.921875 20.015625 65.03125 
Q 15.375 64.15625 9.8125 62.3125 
L 9.8125 71.09375 
Q 15.4375 72.65625 20.34375 73.4375 
Q 25.25 74.21875 29.59375 74.21875 
Q 40.828125 74.21875 47.359375 69.109375 
Q 53.90625 64.015625 53.90625 55.328125 
Q 53.90625 49.265625 50.4375 45.09375 
Q 46.96875 40.921875 40.578125 39.3125 
z
" id="DejaVuSans-51"/>
      </defs>
      <g transform="translate(524.162084 655.398438)scale(0.1 -0.1)">
       <use xlink:href="#DejaVuSans-51"/>
       <use x="63.623047" xlink:href="#DejaVuSans-48"/>
       <use x="127.246094" xlink:href="#DejaVuSans-48"/>
       <use x="190.869141" xlink:href="#DejaVuSans-46"/>
       <use x="222.65625" xlink:href="#DejaVuSans-48"/>
      </g>
     </g>
    </g>
    <g id="xtick_4">
     <g id="line2d_4">
      <g>
       <use style="stroke:#000000;stroke-width:0.8;" x="641.059105" xlink:href="#m7be4a33b1f" y="640.8"/>
      </g>
     </g>
     <g id="text_4">
      <!-- 400.0 -->
      <defs>
       <path d="M 37.796875 64.3125 
L 12.890625 25.390625 
L 37.796875 25.390625 
z
M 35.203125 72.90625 
L 47.609375 72.90625 
L 47.609375 25.390625 
L 58.015625 25.390625 
L 58.015625 17.1875 
L 47.609375 17.1875 
L 47.609375 0 
L 37.796875 0 
L 37.796875 17.1875 
L 4.890625 17.1875 
L 4.890625 26.703125 
z
" id="DejaVuSans-52"/>
      </defs>
      <g transform="translate(626.745042 655.398438)scale(0.1 -0.1)">
       <use xlink:href="#DejaVuSans-52"/>
       <use x="63.623047" xlink:href="#DejaVuSans-48"/>
       <use x="127.246094" xlink:href="#DejaVuSans-48"/>
       <use x="190.869141" xlink:href="#DejaVuSans-46"/>
       <use x="222.65625" xlink:href="#DejaVuSans-48"/>
      </g>
     </g>
    </g>
    <g id="xtick_5">
     <g id="line2d_5">
      <g>
       <use style="stroke:#000000;stroke-width:0.8;" x="743.642063" xlink:href="#m7be4a33b1f" y="640.8"/>
      </g>
     </g>
     <g id="text_5">
      <!-- 500.0 -->
      <defs>
       <path d="M 10.796875 72.90625 
L 49.515625 72.90625 
L 49.515625 64.59375 
L 19.828125 64.59375 
L 19.828125 46.734375 
Q 21.96875 47.46875 24.109375 47.828125 
Q 26.265625 48.1875 28.421875 48.1875 
Q 40.625 48.1875 47.75 41.5 
Q 54.890625 34.8125 54.890625 23.390625 
Q 54.890625 11.625 47.5625 5.09375 
Q 40.234375 -1.421875 26.90625 -1.421875 
Q 22.3125 -1.421875 17.546875 -0.640625 
Q 12.796875 0.140625 7.71875 1.703125 
L 7.71875 11.625 
Q 12.109375 9.234375 16.796875 8.0625 
Q 21.484375 6.890625 26.703125 6.890625 
Q 35.15625 6.890625 40.078125 11.328125 
Q 45.015625 15.765625 45.015625 23.390625 
Q 45.015625 31 40.078125 35.4375 
Q 35.15625 39.890625 26.703125 39.890625 
Q 22.75 39.890625 18.8125 39.015625 
Q 14.890625 38.140625 10.796875 36.28125 
z
" id="DejaVuSans-53"/>
      </defs>
      <g transform="translate(729.328 655.398438)scale(0.1 -0.1)">
       <use xlink:href="#DejaVuSans-53"/>
       <use x="63.623047" xlink:href="#DejaVuSans-48"/>
       <use x="127.246094" xlink:href="#DejaVuSans-48"/>
       <use x="190.869141" xlink:href="#DejaVuSans-46"/>
       <use x="222.65625" xlink:href="#DejaVuSans-48"/>
      </g>
     </g>
    </g>
    <g id="xtick_6">
     <g id="line2d_6">
      <g>
       <use style="stroke:#000000;stroke-width:0.8;" x="846.225021" xlink:href="#m7be4a33b1f" y="640.8"/>
      </g>
     </g>
     <g id="text_6">
      <!-- 600.0 -->
      <defs>
       <path d="M 33.015625 40.375 
Q 26.375 40.375 22.484375 35.828125 
Q 18.609375 31.296875 18.609375 23.390625 
Q 18.609375 15.53125 22.484375 10.953125 
Q 26.375 6.390625 33.015625 6.390625 
Q 39.65625 6.390625 43.53125 10.953125 
Q 47.40625 15.53125 47.40625 23.390625 
Q 47.40625 31.296875 43.53125 35.828125 
Q 39.65625 40.375 33.015625 40.375 
z
M 52.59375 71.296875 
L 52.59375 62.3125 
Q 48.875 64.0625 45.09375 64.984375 
Q 41.3125 65.921875 37.59375 65.921875 
Q 27.828125 65.921875 22.671875 59.328125 
Q 17.53125 52.734375 16.796875 39.40625 
Q 19.671875 43.65625 24.015625 45.921875 
Q 28.375 48.1875 33.59375 48.1875 
Q 44.578125 48.1875 50.953125 41.515625 
Q 57.328125 34.859375 57.328125 23.390625 
Q 57.328125 12.15625 50.6875 5.359375 
Q 44.046875 -1.421875 33.015625 -1.421875 
Q 20.359375 -1.421875 13.671875 8.265625 
Q 6.984375 17.96875 6.984375 36.375 
Q 6.984375 53.65625 15.1875 63.9375 
Q 23.390625 74.21875 37.203125 74.21875 
Q 40.921875 74.21875 44.703125 73.484375 
Q 48.484375 72.75 52.59375 71.296875 
z
" id="DejaVuSans-54"/>
      </defs>
      <g transform="translate(831.910958 655.398438)scale(0.1 -0.1)">
       <use xlink:href="#DejaVuSans-54"/>
       <use x="63.623047" xlink:href="#DejaVuSans-48"/>
       <use x="127.246094" xlink:href="#DejaVuSans-48"/>
       <use x="190.869141" xlink:href="#DejaVuSans-46"/>
       <use x="222.65625" xlink:href="#DejaVuSans-48"/>
      </g>
     </g>
    </g>
    <g id="xtick_7">
     <g id="line2d_7">
      <g>
       <use style="stroke:#000000;stroke-width:0.8;" x="948.807979" xlink:href="#m7be4a33b1f" y="640.8"/>
      </g>
     </g>
     <g id="text_7">
      <!-- 700.0 -->
      <defs>
       <path d="M 8.203125 72.90625 
L 55.078125 72.90625 
L 55.078125 68.703125 
L 28.609375 0 
L 18.3125 0 
L 43.21875 64.59375 
L 8.203125 64.59375 
z
" id="DejaVuSans-55"/>
      </defs>
      <g transform="translate(934.493916 655.398438)scale(0.1 -0.1)">
       <use xlink:href="#DejaVuSans-55"/>
       <use x="63.623047" xlink:href="#DejaVuSans-48"/>
       <use x="127.246094" xlink:href="#DejaVuSans-48"/>
       <use x="190.869141" xlink:href="#DejaVuSans-46"/>
       <use x="222.65625" xlink:href="#DejaVuSans-48"/>
      </g>
     </g>
    </g>
    <g id="xtick_8">
     <g id="line2d_8">
      <g>
       <use style="stroke:#000000;stroke-width:0.8;" x="1051.390937" xlink:href="#m7be4a33b1f" y="640.8"/>
      </g>
     </g>
     <g id="text_8">
      <!-- 800.0 -->
      <defs>
       <path d="M 31.78125 34.625 
Q 24.75 34.625 20.71875 30.859375 
Q 16.703125 27.09375 16.703125 20.515625 
Q 16.703125 13.921875 20.71875 10.15625 
Q 24.75 6.390625 31.78125 6.390625 
Q 38.8125 6.390625 42.859375 10.171875 
Q 46.921875 13.96875 46.921875 20.515625 
Q 46.921875 27.09375 42.890625 30.859375 
Q 38.875 34.625 31.78125 34.625 
z
M 21.921875 38.8125 
Q 15.578125 40.375 12.03125 44.71875 
Q 8.5 49.078125 8.5 55.328125 
Q 8.5 64.0625 14.71875 69.140625 
Q 20.953125 74.21875 31.78125 74.21875 
Q 42.671875 74.21875 48.875 69.140625 
Q 55.078125 64.0625 55.078125 55.328125 
Q 55.078125 49.078125 51.53125 44.71875 
Q 48 40.375 41.703125 38.8125 
Q 48.828125 37.15625 52.796875 32.3125 
Q 56.78125 27.484375 56.78125 20.515625 
Q 56.78125 9.90625 50.3125 4.234375 
Q 43.84375 -1.421875 31.78125 -1.421875 
Q 19.734375 -1.421875 13.25 4.234375 
Q 6.78125 9.90625 6.78125 20.515625 
Q 6.78125 27.484375 10.78125 32.3125 
Q 14.796875 37.15625 21.921875 38.8125 
z
M 18.3125 54.390625 
Q 18.3125 48.734375 21.84375 45.5625 
Q 25.390625 42.390625 31.78125 42.390625 
Q 38.140625 42.390625 41.71875 45.5625 
Q 45.3125 48.734375 45.3125 54.390625 
Q 45.3125 60.0625 41.71875 63.234375 
Q 38.140625 66.40625 31.78125 66.40625 
Q 25.390625 66.40625 21.84375 63.234375 
Q 18.3125 60.0625 18.3125 54.390625 
z
" id="DejaVuSans-56"/>
      </defs>
      <g transform="translate(1037.076874 655.398438)scale(0.1 -0.1)">
       <use xlink:href="#DejaVuSans-56"/>
       <use x="63.623047" xlink:href="#DejaVuSans-48"/>
       <use x="127.246094" xlink:href="#DejaVuSans-48"/>
       <use x="190.869141" xlink:href="#DejaVuSans-46"/>
       <use x="222.65625" xlink:href="#DejaVuSans-48"/>
      </g>
     </g>
    </g>
    <g id="xtick_9">
     <g id="line2d_9">
      <g>
       <use style="stroke:#000000;stroke-width:0.8;" x="1153.973895" xlink:href="#m7be4a33b1f" y="640.8"/>
      </g>
     </g>
     <g id="text_9">
      <!-- 900.0 -->
      <defs>
       <path d="M 10.984375 1.515625 
L 10.984375 10.5 
Q 14.703125 8.734375 18.5 7.8125 
Q 22.3125 6.890625 25.984375 6.890625 
Q 35.75 6.890625 40.890625 13.453125 
Q 46.046875 20.015625 46.78125 33.40625 
Q 43.953125 29.203125 39.59375 26.953125 
Q 35.25 24.703125 29.984375 24.703125 
Q 19.046875 24.703125 12.671875 31.3125 
Q 6.296875 37.9375 6.296875 49.421875 
Q 6.296875 60.640625 12.9375 67.421875 
Q 19.578125 74.21875 30.609375 74.21875 
Q 43.265625 74.21875 49.921875 64.515625 
Q 56.59375 54.828125 56.59375 36.375 
Q 56.59375 19.140625 48.40625 8.859375 
Q 40.234375 -1.421875 26.421875 -1.421875 
Q 22.703125 -1.421875 18.890625 -0.6875 
Q 15.09375 0.046875 10.984375 1.515625 
z
M 30.609375 32.421875 
Q 37.25 32.421875 41.125 36.953125 
Q 45.015625 41.5 45.015625 49.421875 
Q 45.015625 57.28125 41.125 61.84375 
Q 37.25 66.40625 30.609375 66.40625 
Q 23.96875 66.40625 20.09375 61.84375 
Q 16.21875 57.28125 16.21875 49.421875 
Q 16.21875 41.5 20.09375 36.953125 
Q 23.96875 32.421875 30.609375 32.421875 
z
" id="DejaVuSans-57"/>
      </defs>
      <g transform="translate(1139.659832 655.398438)scale(0.1 -0.1)">
       <use xlink:href="#DejaVuSans-57"/>
       <use x="63.623047" xlink:href="#DejaVuSans-48"/>
       <use x="127.246094" xlink:href="#DejaVuSans-48"/>
       <use x="190.869141" xlink:href="#DejaVuSans-46"/>
       <use x="222.65625" xlink:href="#DejaVuSans-48"/>
      </g>
     </g>
    </g>
    <g id="xtick_10">
     <g id="line2d_10">
      <g>
       <use style="stroke:#000000;stroke-width:0.8;" x="1256.556853" xlink:href="#m7be4a33b1f" y="640.8"/>
      </g>
     </g>
     <g id="text_10">
      <!-- 1000.0 -->
      <g transform="translate(1239.06154 655.398438)scale(0.1 -0.1)">
       <use xlink:href="#DejaVuSans-49"/>
       <use x="63.623047" xlink:href="#DejaVuSans-48"/>
       <use x="127.246094" xlink:href="#DejaVuSans-48"/>
       <use x="190.869141" xlink:href="#DejaVuSans-48"/>
       <use x="254.492188" xlink:href="#DejaVuSans-46"/>
       <use x="286.279297" xlink:href="#DejaVuSans-48"/>
      </g>
     </g>
    </g>
    <g id="text_11">
     <!-- n -->
     <defs>
      <path d="M 54.890625 33.015625 
L 54.890625 0 
L 45.90625 0 
L 45.90625 32.71875 
Q 45.90625 40.484375 42.875 44.328125 
Q 39.84375 48.1875 33.796875 48.1875 
Q 26.515625 48.1875 22.3125 43.546875 
Q 18.109375 38.921875 18.109375 30.90625 
L 18.109375 0 
L 9.078125 0 
L 9.078125 54.6875 
L 18.109375 54.6875 
L 18.109375 46.1875 
Q 21.34375 51.125 25.703125 53.5625 
Q 30.078125 56 35.796875 56 
Q 45.21875 56 50.046875 50.171875 
Q 54.890625 44.34375 54.890625 33.015625 
z
" id="DejaVuSans-110"/>
     </defs>
     <g transform="translate(734.83125 669.076563)scale(0.1 -0.1)">
      <use xlink:href="#DejaVuSans-110"/>
     </g>
    </g>
   </g>
   <g id="matplotlib.axis_2">
    <g id="ytick_1">
     <g id="line2d_11">
      <defs>
       <path d="M 0 0 
L -3.5 0 
" id="m3d2533d12d" style="stroke:#000000;stroke-width:0.8;"/>
      </defs>
      <g>
       <use style="stroke:#000000;stroke-width:0.8;" x="180" xlink:href="#m3d2533d12d" y="635.776922"/>
      </g>
     </g>
     <g id="text_12">
      <!-- 0 -->
      <g transform="translate(166.6375 639.57614)scale(0.1 -0.1)">
       <use xlink:href="#DejaVuSans-48"/>
      </g>
     </g>
    </g>
    <g id="ytick_2">
     <g id="line2d_12">
      <g>
       <use style="stroke:#000000;stroke-width:0.8;" x="180" xlink:href="#m3d2533d12d" y="538.53539"/>
      </g>
     </g>
     <g id="text_13">
      <!-- 100 -->
      <g transform="translate(153.9125 542.334609)scale(0.1 -0.1)">
       <use xlink:href="#DejaVuSans-49"/>
       <use x="63.623047" xlink:href="#DejaVuSans-48"/>
       <use x="127.246094" xlink:href="#DejaVuSans-48"/>
      </g>
     </g>
    </g>
    <g id="ytick_3">
     <g id="line2d_13">
      <g>
       <use style="stroke:#000000;stroke-width:0.8;" x="180" xlink:href="#m3d2533d12d" y="441.293859"/>
      </g>
     </g>
     <g id="text_14">
      <!-- 200 -->
      <g transform="translate(153.9125 445.093078)scale(0.1 -0.1)">
       <use xlink:href="#DejaVuSans-50"/>
       <use x="63.623047" xlink:href="#DejaVuSans-48"/>
       <use x="127.246094" xlink:href="#DejaVuSans-48"/>
      </g>
     </g>
    </g>
    <g id="ytick_4">
     <g id="line2d_14">
      <g>
       <use style="stroke:#000000;stroke-width:0.8;" x="180" xlink:href="#m3d2533d12d" y="344.052328"/>
      </g>
     </g>
     <g id="text_15">
      <!-- 300 -->
      <g transform="translate(153.9125 347.851547)scale(0.1 -0.1)">
       <use xlink:href="#DejaVuSans-51"/>
       <use x="63.623047" xlink:href="#DejaVuSans-48"/>
       <use x="127.246094" xlink:href="#DejaVuSans-48"/>
      </g>
     </g>
    </g>
    <g id="ytick_5">
     <g id="line2d_15">
      <g>
       <use style="stroke:#000000;stroke-width:0.8;" x="180" xlink:href="#m3d2533d12d" y="246.810797"/>
      </g>
     </g>
     <g id="text_16">
      <!-- 400 -->
      <g transform="translate(153.9125 250.610015)scale(0.1 -0.1)">
       <use xlink:href="#DejaVuSans-52"/>
       <use x="63.623047" xlink:href="#DejaVuSans-48"/>
       <use x="127.246094" xlink:href="#DejaVuSans-48"/>
      </g>
     </g>
    </g>
    <g id="ytick_6">
     <g id="line2d_16">
      <g>
       <use style="stroke:#000000;stroke-width:0.8;" x="180" xlink:href="#m3d2533d12d" y="149.569265"/>
      </g>
     </g>
     <g id="text_17">
      <!-- 500 -->
      <g transform="translate(153.9125 153.368484)scale(0.1 -0.1)">
       <use xlink:href="#DejaVuSans-53"/>
       <use x="63.623047" xlink:href="#DejaVuSans-48"/>
       <use x="127.246094" xlink:href="#DejaVuSans-48"/>
      </g>
     </g>
    </g>
    <g id="text_18">
     <!-- speedup -->
     <defs>
      <path d="M 44.28125 53.078125 
L 44.28125 44.578125 
Q 40.484375 46.53125 36.375 47.5 
Q 32.28125 48.484375 27.875 48.484375 
Q 21.1875 48.484375 17.84375 46.4375 
Q 14.5 44.390625 14.5 40.28125 
Q 14.5 37.15625 16.890625 35.375 
Q 19.28125 33.59375 26.515625 31.984375 
L 29.59375 31.296875 
Q 39.15625 29.25 43.1875 25.515625 
Q 47.21875 21.78125 47.21875 15.09375 
Q 47.21875 7.46875 41.1875 3.015625 
Q 35.15625 -1.421875 24.609375 -1.421875 
Q 20.21875 -1.421875 15.453125 -0.5625 
Q 10.6875 0.296875 5.421875 2 
L 5.421875 11.28125 
Q 10.40625 8.6875 15.234375 7.390625 
Q 20.0625 6.109375 24.8125 6.109375 
Q 31.15625 6.109375 34.5625 8.28125 
Q 37.984375 10.453125 37.984375 14.40625 
Q 37.984375 18.0625 35.515625 20.015625 
Q 33.0625 21.96875 24.703125 23.78125 
L 21.578125 24.515625 
Q 13.234375 26.265625 9.515625 29.90625 
Q 5.8125 33.546875 5.8125 39.890625 
Q 5.8125 47.609375 11.28125 51.796875 
Q 16.75 56 26.8125 56 
Q 31.78125 56 36.171875 55.265625 
Q 40.578125 54.546875 44.28125 53.078125 
z
" id="DejaVuSans-115"/>
      <path d="M 18.109375 8.203125 
L 18.109375 -20.796875 
L 9.078125 -20.796875 
L 9.078125 54.6875 
L 18.109375 54.6875 
L 18.109375 46.390625 
Q 20.953125 51.265625 25.265625 53.625 
Q 29.59375 56 35.59375 56 
Q 45.5625 56 51.78125 48.09375 
Q 58.015625 40.1875 58.015625 27.296875 
Q 58.015625 14.40625 51.78125 6.484375 
Q 45.5625 -1.421875 35.59375 -1.421875 
Q 29.59375 -1.421875 25.265625 0.953125 
Q 20.953125 3.328125 18.109375 8.203125 
z
M 48.6875 27.296875 
Q 48.6875 37.203125 44.609375 42.84375 
Q 40.53125 48.484375 33.40625 48.484375 
Q 26.265625 48.484375 22.1875 42.84375 
Q 18.109375 37.203125 18.109375 27.296875 
Q 18.109375 17.390625 22.1875 11.75 
Q 26.265625 6.109375 33.40625 6.109375 
Q 40.53125 6.109375 44.609375 11.75 
Q 48.6875 17.390625 48.6875 27.296875 
z
" id="DejaVuSans-112"/>
      <path d="M 56.203125 29.59375 
L 56.203125 25.203125 
L 14.890625 25.203125 
Q 15.484375 15.921875 20.484375 11.0625 
Q 25.484375 6.203125 34.421875 6.203125 
Q 39.59375 6.203125 44.453125 7.46875 
Q 49.3125 8.734375 54.109375 11.28125 
L 54.109375 2.78125 
Q 49.265625 0.734375 44.1875 -0.34375 
Q 39.109375 -1.421875 33.890625 -1.421875 
Q 20.796875 -1.421875 13.15625 6.1875 
Q 5.515625 13.8125 5.515625 26.8125 
Q 5.515625 40.234375 12.765625 48.109375 
Q 20.015625 56 32.328125 56 
Q 43.359375 56 49.78125 48.890625 
Q 56.203125 41.796875 56.203125 29.59375 
z
M 47.21875 32.234375 
Q 47.125 39.59375 43.09375 43.984375 
Q 39.0625 48.390625 32.421875 48.390625 
Q 24.90625 48.390625 20.390625 44.140625 
Q 15.875 39.890625 15.1875 32.171875 
z
" id="DejaVuSans-101"/>
      <path d="M 45.40625 46.390625 
L 45.40625 75.984375 
L 54.390625 75.984375 
L 54.390625 0 
L 45.40625 0 
L 45.40625 8.203125 
Q 42.578125 3.328125 38.25 0.953125 
Q 33.9375 -1.421875 27.875 -1.421875 
Q 17.96875 -1.421875 11.734375 6.484375 
Q 5.515625 14.40625 5.515625 27.296875 
Q 5.515625 40.1875 11.734375 48.09375 
Q 17.96875 56 27.875 56 
Q 33.9375 56 38.25 53.625 
Q 42.578125 51.265625 45.40625 46.390625 
z
M 14.796875 27.296875 
Q 14.796875 17.390625 18.875 11.75 
Q 22.953125 6.109375 30.078125 6.109375 
Q 37.203125 6.109375 41.296875 11.75 
Q 45.40625 17.390625 45.40625 27.296875 
Q 45.40625 37.203125 41.296875 42.84375 
Q 37.203125 48.484375 30.078125 48.484375 
Q 22.953125 48.484375 18.875 42.84375 
Q 14.796875 37.203125 14.796875 27.296875 
z
" id="DejaVuSans-100"/>
      <path d="M 8.5 21.578125 
L 8.5 54.6875 
L 17.484375 54.6875 
L 17.484375 21.921875 
Q 17.484375 14.15625 20.5 10.265625 
Q 23.53125 6.390625 29.59375 6.390625 
Q 36.859375 6.390625 41.078125 11.03125 
Q 45.3125 15.671875 45.3125 23.6875 
L 45.3125 54.6875 
L 54.296875 54.6875 
L 54.296875 0 
L 45.3125 0 
L 45.3125 8.40625 
Q 42.046875 3.421875 37.71875 1 
Q 33.40625 -1.421875 27.6875 -1.421875 
Q 18.265625 -1.421875 13.375 4.4375 
Q 8.5 10.296875 8.5 21.578125 
z
M 31.109375 56 
z
" id="DejaVuSans-117"/>
     </defs>
     <g transform="translate(147.832812 385.049219)rotate(-90)scale(0.1 -0.1)">
      <use xlink:href="#DejaVuSans-115"/>
      <use x="52.099609" xlink:href="#DejaVuSans-112"/>
      <use x="115.576172" xlink:href="#DejaVuSans-101"/>
      <use x="177.099609" xlink:href="#DejaVuSans-101"/>
      <use x="238.623047" xlink:href="#DejaVuSans-100"/>
      <use x="302.099609" xlink:href="#DejaVuSans-117"/>
      <use x="365.478516" xlink:href="#DejaVuSans-112"/>
     </g>
    </g>
   </g>
   <g id="line2d_17">
    <path clip-path="url(#p46643d3967)" d="M 230.727273 306.718756 
L 231.753102 344.346424 
L 232.778932 165.541165 
L 233.804761 358.79339 
L 234.830591 215.011191 
L 235.856421 395.796285 
L 236.88225 389.134504 
L 237.90808 225.581502 
L 238.933909 417.869932 
L 239.959739 224.754391 
L 240.985569 259.206372 
L 242.011398 254.163062 
L 243.037228 266.106285 
L 244.063057 400.255946 
L 245.088887 275.078031 
L 246.114716 288.313515 
L 247.140546 308.091899 
L 248.166376 297.388826 
L 249.192205 311.290036 
L 250.218035 315.861816 
L 252.269694 331.079603 
L 253.295523 332.032083 
L 254.321353 339.041239 
L 255.347183 344.575991 
L 256.373012 351.356965 
L 257.398842 362.306208 
L 258.424671 360.433086 
L 259.450501 361.955622 
L 260.476331 368.472991 
L 261.50216 377.354179 
L 262.52799 379.968868 
L 263.553819 381.034188 
L 264.579649 389.266548 
L 265.605478 395.440815 
L 266.631308 395.989798 
L 267.657138 395.383886 
L 268.682967 401.798314 
L 269.708797 402.662839 
L 270.734626 414.270461 
L 271.760456 403.150243 
L 272.786286 413.821687 
L 273.812115 418.311883 
L 274.837945 420.024923 
L 275.863774 422.14829 
L 276.889604 426.240496 
L 277.915433 431.038677 
L 278.941263 427.548723 
L 279.967093 431.348654 
L 280.992922 439.838303 
L 282.018752 433.013625 
L 283.044581 437.302211 
L 284.070411 439.172848 
L 285.09624 448.52642 
L 286.12207 444.577851 
L 287.1479 446.894864 
L 288.173729 448.06186 
L 290.225388 453.873879 
L 291.251218 454.696583 
L 292.277048 457.376415 
L 293.302877 461.401351 
L 294.328707 463.997843 
L 295.354536 461.461594 
L 296.380366 465.688448 
L 297.406195 468.2757 
L 298.432025 468.979239 
L 299.457855 471.254406 
L 300.483684 472.039362 
L 301.509514 474.976956 
L 302.535343 510.606521 
L 303.561173 479.024395 
L 304.587002 482.734466 
L 305.612832 481.46766 
L 306.638662 481.945782 
L 308.690321 484.726447 
L 309.71615 487.059276 
L 310.74198 487.113981 
L 311.76781 486.737468 
L 312.793639 487.423743 
L 313.819469 488.540872 
L 314.845298 490.224648 
L 315.871128 490.953653 
L 316.896957 494.207362 
L 317.922787 496.634616 
L 318.948617 497.82637 
L 319.974446 497.767533 
L 321.000276 498.813472 
L 322.026105 500.32049 
L 323.051935 502.546991 
L 324.077765 504.307105 
L 325.103594 504.121876 
L 326.129424 509.356362 
L 327.155253 509.034085 
L 328.181083 508.119083 
L 329.206912 511.335513 
L 330.232742 509.206856 
L 331.258572 509.52429 
L 332.284401 510.091322 
L 333.310231 511.285913 
L 334.33606 512.940618 
L 335.36189 512.892822 
L 336.387719 512.284154 
L 337.413549 514.502367 
L 338.439379 515.11623 
L 339.465208 517.017065 
L 340.491038 516.711535 
L 342.542697 519.511676 
L 343.568527 519.353285 
L 344.594356 520.291336 
L 345.620186 520.542021 
L 346.646015 520.373945 
L 347.671845 522.134475 
L 349.723504 523.247789 
L 350.749334 522.305738 
L 351.775163 525.919254 
L 352.800993 525.974456 
L 353.826822 526.594645 
L 354.852652 528.378631 
L 355.878481 528.838332 
L 356.904311 528.502475 
L 357.930141 529.003296 
L 359.9818 531.748835 
L 361.007629 530.406659 
L 362.033459 530.884172 
L 363.059289 532.026925 
L 364.085118 533.76411 
L 365.110948 533.939006 
L 366.136777 534.335941 
L 367.162607 534.53813 
L 368.188436 535.118131 
L 370.240096 537.550272 
L 371.265925 538.623076 
L 372.291755 539.461734 
L 373.317584 539.094843 
L 374.343414 538.563453 
L 375.369243 540.194074 
L 376.395073 541.075513 
L 377.420903 540.866614 
L 378.446732 541.400957 
L 380.498391 543.266728 
L 381.524221 543.145692 
L 382.550051 543.384212 
L 383.57588 543.886765 
L 384.60171 544.681471 
L 385.627539 544.846524 
L 386.653369 545.477163 
L 387.679198 546.486294 
L 388.705028 545.387095 
L 389.730858 546.421781 
L 390.756687 546.989144 
L 391.782517 548.193533 
L 392.808346 548.766865 
L 393.834176 548.846061 
L 394.860006 548.625974 
L 395.885835 549.764195 
L 396.911665 550.37845 
L 397.937494 550.069702 
L 398.963324 551.085441 
L 399.989153 551.096242 
L 401.014983 553.076436 
L 402.040813 551.702114 
L 403.066642 552.539997 
L 404.092472 552.654161 
L 405.118301 553.077479 
L 406.144131 553.699325 
L 407.16996 554.08771 
L 409.22162 555.18628 
L 410.247449 555.128155 
L 411.273279 555.38321 
L 412.299108 555.507606 
L 414.350768 555.157772 
L 416.402427 557.00895 
L 417.428256 556.972414 
L 418.454086 556.505213 
L 419.479915 557.475887 
L 420.505745 557.914356 
L 421.531575 558.524281 
L 422.557404 558.900248 
L 423.583234 559.840138 
L 424.609063 560.055648 
L 425.634893 560.546231 
L 426.660722 559.76264 
L 427.686552 560.689307 
L 428.712382 561.421348 
L 429.738211 565.031429 
L 430.764041 561.951105 
L 431.78987 562.705646 
L 432.8157 562.413715 
L 434.867359 562.414755 
L 436.919018 563.387508 
L 437.944848 562.492336 
L 438.970677 563.573964 
L 441.022337 564.679414 
L 442.048166 564.891257 
L 443.073996 564.753766 
L 444.099825 565.162442 
L 445.125655 566.729389 
L 446.151485 566.02828 
L 447.177314 565.807271 
L 449.228973 566.634973 
L 450.254803 566.540866 
L 451.280632 567.200807 
L 452.306462 567.007602 
L 453.332292 567.732738 
L 454.358121 565.715581 
L 455.383951 567.487533 
L 456.40978 567.894375 
L 457.43561 567.766338 
L 458.461439 568.426841 
L 459.487269 569.797454 
L 460.513099 568.756351 
L 461.538928 569.572218 
L 463.590587 568.940543 
L 464.616417 569.835802 
L 465.642247 569.917606 
L 466.668076 570.407167 
L 467.693906 570.194204 
L 468.719735 570.79334 
L 469.745565 571.205868 
L 470.771394 571.414001 
L 471.797224 572.390856 
L 472.823054 571.5327 
L 473.848883 572.232306 
L 475.900542 572.201636 
L 476.926372 572.597713 
L 477.952201 572.373501 
L 480.003861 573.031871 
L 481.02969 572.749455 
L 482.05552 573.731827 
L 483.081349 574.235311 
L 484.107179 573.604284 
L 485.133009 573.891524 
L 487.184668 573.655314 
L 488.210497 574.685745 
L 489.236327 575.257713 
L 492.313816 575.271093 
L 493.339645 576.56077 
L 494.365475 576.123321 
L 495.391304 576.109051 
L 496.417134 576.213326 
L 497.442964 576.590651 
L 498.468793 576.781896 
L 500.520452 576.948634 
L 501.546282 577.397911 
L 502.572111 584.854565 
L 503.597941 577.427773 
L 505.6496 578.107925 
L 507.701259 577.742236 
L 508.727089 578.443947 
L 509.752918 578.731742 
L 511.804578 579.810205 
L 512.830407 579.061873 
L 513.856237 579.319807 
L 514.882066 579.290913 
L 515.907896 579.967126 
L 516.933726 579.855024 
L 517.959555 580.221931 
L 518.985385 579.866564 
L 520.011214 581.101903 
L 521.037044 580.588547 
L 522.062873 582.502332 
L 523.088703 580.894533 
L 524.114533 581.331027 
L 525.140362 581.280787 
L 527.192021 581.797913 
L 528.217851 581.432717 
L 529.24368 581.637443 
L 531.29534 582.39735 
L 532.321169 582.514862 
L 533.346999 581.922662 
L 534.372828 583.511734 
L 535.398658 589.373412 
L 536.424488 583.517754 
L 537.450317 585.890728 
L 538.476147 583.133623 
L 539.501976 583.736714 
L 540.527806 583.535728 
L 541.553635 583.15473 
L 542.579465 584.051274 
L 543.605295 584.366929 
L 544.631124 583.179411 
L 545.656954 583.528784 
L 546.682783 581.530507 
L 547.708613 584.567071 
L 548.734443 584.604841 
L 549.760272 584.19411 
L 550.786102 584.472408 
L 551.811931 585.166719 
L 552.837761 585.314706 
L 553.86359 585.2338 
L 554.88942 585.032436 
L 556.941079 585.931047 
L 557.966909 585.908369 
L 558.992738 585.462959 
L 560.018568 586.278326 
L 562.070227 586.179149 
L 563.096057 586.905162 
L 564.121886 586.721235 
L 565.147716 586.687191 
L 566.173545 586.948737 
L 567.199375 586.263907 
L 568.225205 587.348497 
L 569.251034 586.903824 
L 570.276864 586.766937 
L 571.302693 587.624874 
L 572.328523 587.313322 
L 573.354352 587.80672 
L 574.380182 586.927617 
L 575.406012 588.010801 
L 576.431841 588.176532 
L 577.457671 587.822355 
L 578.4835 588.227498 
L 579.50933 587.974861 
L 581.560989 587.971051 
L 582.586819 588.707932 
L 584.638478 589.242924 
L 586.690137 588.593448 
L 587.715967 589.226445 
L 588.741796 589.49636 
L 589.767626 589.387539 
L 590.793455 588.622927 
L 591.819285 589.366878 
L 592.845114 589.391606 
L 593.870944 590.037079 
L 594.896774 589.895605 
L 595.922603 589.300665 
L 596.948433 590.653729 
L 597.974262 589.879453 
L 599.000092 590.49797 
L 600.025922 590.492387 
L 601.051751 590.701228 
L 603.10341 590.833563 
L 605.155069 591.239553 
L 607.206729 591.153033 
L 608.232558 591.29859 
L 609.258388 591.79086 
L 610.284217 591.074306 
L 611.310047 591.45309 
L 612.335876 590.962122 
L 613.361706 591.94321 
L 615.413365 591.859584 
L 616.439195 591.687074 
L 617.465024 592.174155 
L 618.490854 591.705015 
L 619.516684 591.720725 
L 620.542513 592.837607 
L 621.568343 593.063467 
L 622.594172 592.85948 
L 623.620002 592.011649 
L 624.645831 592.677359 
L 625.671661 592.372017 
L 626.697491 593.291486 
L 627.72332 592.589878 
L 628.74915 592.74252 
L 629.774979 593.25809 
L 630.800809 593.4106 
L 631.826638 593.341114 
L 632.852468 594.030046 
L 633.878298 593.874847 
L 636.955786 594.166526 
L 637.981616 594.470925 
L 639.007446 593.854648 
L 640.033275 596.550592 
L 641.059105 595.909881 
L 642.084934 595.44569 
L 643.110764 594.443494 
L 644.136593 594.721329 
L 645.162423 594.726243 
L 647.214082 594.426759 
L 648.239912 594.978133 
L 649.265741 594.850792 
L 650.291571 598.693612 
L 651.3174 595.133364 
L 653.36906 595.532053 
L 654.394889 594.992177 
L 655.420719 595.016573 
L 656.446548 595.22096 
L 657.472378 595.665439 
L 658.498208 595.285937 
L 659.524037 595.948167 
L 660.549867 595.988899 
L 661.575696 596.162449 
L 662.601526 596.095302 
L 663.627355 596.426889 
L 664.653185 596.213398 
L 665.679015 596.420375 
L 666.704844 596.287252 
L 667.730674 596.780785 
L 668.756503 596.527811 
L 669.782333 596.79894 
L 670.808163 596.429774 
L 671.833992 596.616059 
L 672.859822 600.190888 
L 673.885651 596.548074 
L 674.911481 596.999678 
L 675.93731 596.009407 
L 676.96314 600.582408 
L 677.98897 597.365051 
L 679.014799 597.375771 
L 680.040629 596.786704 
L 681.066458 600.303323 
L 682.092288 597.731306 
L 684.143947 597.564549 
L 685.169777 600.894301 
L 686.195606 597.7625 
L 688.247265 598.256306 
L 689.273095 601.394261 
L 690.298925 598.284362 
L 691.324754 598.425524 
L 692.350584 598.396098 
L 693.376413 601.319765 
L 694.402243 596.715853 
L 695.428072 598.220123 
L 696.453902 596.47937 
L 697.479732 598.072086 
L 698.505561 598.480362 
L 699.531391 598.720293 
L 700.55722 598.66927 
L 701.58305 599.029681 
L 702.608879 598.861586 
L 703.634709 599.154689 
L 704.660539 601.724377 
L 705.686368 599.154725 
L 706.712198 598.361878 
L 708.763857 598.931878 
L 709.789687 599.073534 
L 710.815516 598.907674 
L 711.841346 599.577132 
L 712.867175 599.277829 
L 713.893005 599.411009 
L 714.918834 599.676979 
L 715.944664 599.656721 
L 716.970494 599.446917 
L 717.996323 599.785071 
L 720.047982 599.513345 
L 721.073812 600.09214 
L 722.099642 599.875709 
L 723.125471 600.006611 
L 725.17713 599.893364 
L 726.20296 599.997211 
L 727.228789 602.750818 
L 728.254619 600.383267 
L 729.280449 600.429157 
L 731.332108 600.192292 
L 732.357937 599.535759 
L 733.383767 599.749847 
L 734.409596 599.192474 
L 735.435426 600.958371 
L 736.461256 600.74994 
L 737.487085 599.844271 
L 738.512915 600.935334 
L 739.538744 601.03519 
L 740.564574 600.422252 
L 741.590404 601.436103 
L 742.616233 601.157645 
L 743.642063 601.352298 
L 744.667892 604.045485 
L 745.693722 602.987212 
L 747.745381 601.618365 
L 748.771211 601.599474 
L 749.79704 601.332386 
L 751.848699 601.65725 
L 752.874529 601.56028 
L 753.900358 601.812468 
L 754.926188 601.579486 
L 755.952018 599.169296 
L 756.977847 600.799983 
L 758.003677 601.997899 
L 759.029506 601.635734 
L 760.055336 601.791458 
L 761.081166 601.788388 
L 762.106995 602.131 
L 763.132825 601.824108 
L 764.158654 601.759151 
L 767.236143 601.91867 
L 768.261973 602.262041 
L 769.287802 602.382953 
L 770.313632 602.311706 
L 771.339461 602.594425 
L 772.365291 602.333246 
L 773.391121 591.712997 
L 774.41695 590.546497 
L 776.468609 590.849437 
L 777.494439 600.079541 
L 778.520268 601.812969 
L 779.546098 602.937956 
L 781.597757 602.628821 
L 782.623587 600.940557 
L 783.649416 600.446654 
L 784.675246 600.572535 
L 786.726905 602.607861 
L 787.752735 601.213174 
L 788.778564 602.842818 
L 789.804394 603.386319 
L 791.856053 603.525844 
L 792.881883 603.310366 
L 793.907712 603.672478 
L 794.933542 603.320765 
L 798.01103 603.679976 
L 799.03686 603.581533 
L 800.06269 603.988258 
L 801.088519 603.683234 
L 805.191837 603.69761 
L 807.243497 604.177757 
L 808.269326 604.152431 
L 809.295156 603.996259 
L 810.320985 603.971517 
L 811.346815 604.313887 
L 812.372645 604.351226 
L 813.398474 604.186028 
L 814.424304 604.57087 
L 815.450133 604.435669 
L 817.501792 604.584101 
L 819.553452 604.625513 
L 820.579281 604.945158 
L 821.605111 604.813553 
L 822.63094 605.249814 
L 823.65677 605.962853 
L 824.6826 605.006662 
L 825.708429 605.28131 
L 826.734259 607.216136 
L 827.760088 604.854386 
L 831.863407 604.811427 
L 834.940895 605.304092 
L 836.992554 605.258067 
L 838.018384 605.111911 
L 839.044214 605.417762 
L 843.147532 605.430036 
L 844.173362 605.69246 
L 845.199191 605.403772 
L 846.225021 604.203144 
L 847.25085 606.007693 
L 848.27668 606.037011 
L 850.328339 605.370467 
L 851.354169 606.197993 
L 852.379998 605.808272 
L 853.405828 605.909009 
L 854.431657 605.845278 
L 855.457487 605.591745 
L 858.534976 606.182131 
L 859.560805 606.137836 
L 861.612464 606.322411 
L 863.664124 606.01731 
L 864.689953 606.488275 
L 865.715783 606.593961 
L 867.767442 606.40139 
L 869.819101 606.571181 
L 870.844931 606.825938 
L 871.87076 606.509377 
L 872.89659 606.735203 
L 873.922419 606.818858 
L 874.948249 606.59557 
L 875.974078 608.433623 
L 876.999908 606.784701 
L 878.025738 606.516747 
L 879.051567 606.870898 
L 880.077397 606.831177 
L 881.103226 606.669632 
L 883.154886 606.872406 
L 884.180715 607.133011 
L 886.232374 606.820218 
L 887.258204 606.997952 
L 888.284033 607.009204 
L 889.309863 607.287453 
L 890.335693 607.071586 
L 891.361522 607.096904 
L 892.387352 607.248879 
L 894.439011 607.358582 
L 895.464841 607.701698 
L 896.49067 607.43235 
L 899.568159 607.654962 
L 900.593988 608.045985 
L 901.619818 610.954734 
L 902.645648 607.355698 
L 903.671477 607.725767 
L 905.723136 607.718359 
L 906.748966 607.918281 
L 908.800625 607.781593 
L 909.826455 607.842426 
L 910.852284 608.243704 
L 911.878114 607.827089 
L 913.929773 608.085248 
L 915.981432 607.99232 
L 917.007262 608.145301 
L 918.033091 608.050757 
L 919.058921 608.591977 
L 920.08475 608.091492 
L 921.11058 608.121608 
L 922.13641 608.309978 
L 923.162239 608.185858 
L 926.239728 608.586543 
L 927.265557 609.036656 
L 928.291387 608.867723 
L 929.317217 609.054133 
L 931.368876 608.655306 
L 932.394705 608.627833 
L 933.420535 608.80718 
L 934.446365 608.488759 
L 935.472194 609.675902 
L 936.498024 608.541722 
L 937.523853 608.04629 
L 938.549683 608.483861 
L 939.575512 607.615399 
L 940.601342 609.370622 
L 941.627172 609.135942 
L 942.653001 608.658798 
L 943.678831 608.979282 
L 945.73049 608.820707 
L 946.75632 610.231583 
L 947.782149 609.114727 
L 948.807979 609.298664 
L 949.833808 608.951471 
L 950.859638 609.106037 
L 951.885467 609.432869 
L 952.911297 609.377023 
L 953.937127 608.777054 
L 954.962956 608.708619 
L 957.014615 609.694343 
L 958.040445 609.099838 
L 959.066274 609.549126 
L 960.092104 609.811766 
L 961.117934 609.627996 
L 962.143763 609.885605 
L 963.169593 609.615895 
L 965.221252 609.664545 
L 966.247082 609.566169 
L 967.272911 609.628976 
L 968.298741 608.817038 
L 969.32457 608.987479 
L 970.3504 609.840804 
L 972.402059 609.327572 
L 974.453718 610.245806 
L 975.479548 609.948674 
L 976.505377 609.849723 
L 977.531207 609.982539 
L 978.557036 609.905605 
L 980.608696 610.044602 
L 981.634525 609.936586 
L 983.686184 610.089926 
L 984.712014 610.150479 
L 985.737844 609.59834 
L 986.763673 610.223454 
L 988.815332 610.130503 
L 989.841162 610.330208 
L 990.866991 610.232032 
L 994.97031 610.405882 
L 997.021969 610.131047 
L 998.047799 609.612914 
L 999.073628 610.385261 
L 1000.099458 610.609974 
L 1001.125287 610.468284 
L 1002.151117 610.635743 
L 1003.176946 610.467747 
L 1004.202776 610.632854 
L 1005.228606 610.53955 
L 1008.306094 610.760932 
L 1009.331924 610.587016 
L 1010.357753 610.546018 
L 1011.383583 610.831762 
L 1013.435242 610.884247 
L 1014.461072 610.703426 
L 1015.486901 611.565323 
L 1016.512731 609.771872 
L 1017.538561 610.783418 
L 1018.56439 611.063961 
L 1025.745197 611.220658 
L 1026.771027 612.46547 
L 1027.796856 610.840372 
L 1028.822686 611.649394 
L 1029.848515 610.13002 
L 1030.874345 611.388918 
L 1031.900175 611.475604 
L 1034.977663 612.789933 
L 1036.003493 611.545576 
L 1037.029323 611.419432 
L 1038.055152 612.641015 
L 1039.080982 611.572323 
L 1040.106811 611.460771 
L 1041.132641 611.644621 
L 1042.15847 611.297479 
L 1043.1843 611.401821 
L 1044.21013 611.838604 
L 1045.235959 611.268402 
L 1046.261789 611.611661 
L 1047.287618 612.730233 
L 1048.313448 612.742562 
L 1049.339278 611.761438 
L 1051.390937 611.675298 
L 1052.416766 612.473314 
L 1053.442596 611.789968 
L 1055.494255 611.732803 
L 1056.520085 611.905674 
L 1058.571744 611.850835 
L 1060.623403 612.002758 
L 1061.649232 612.257853 
L 1062.675062 611.709466 
L 1063.700892 613.579777 
L 1064.726721 612.316799 
L 1066.77838 611.871697 
L 1067.80421 612.353467 
L 1068.83004 612.017263 
L 1071.907528 612.286032 
L 1073.959187 612.062258 
L 1074.985017 613.332689 
L 1076.010847 612.147444 
L 1077.036676 612.345712 
L 1078.062506 612.303868 
L 1079.088335 612.480486 
L 1080.114165 612.253564 
L 1082.165824 612.518854 
L 1083.191654 612.446389 
L 1084.217483 611.818595 
L 1085.243313 612.369604 
L 1086.269142 612.181345 
L 1087.294972 612.57468 
L 1088.320802 612.197047 
L 1089.346631 612.491812 
L 1090.372461 612.658535 
L 1093.449949 612.56947 
L 1095.501609 612.755246 
L 1096.527438 612.709076 
L 1097.553268 612.867656 
L 1098.579097 612.498454 
L 1099.604927 612.827153 
L 1102.682416 612.865019 
L 1103.708245 613.136713 
L 1104.734075 612.878618 
L 1105.759904 612.972026 
L 1106.785734 601.472814 
L 1107.811564 612.767236 
L 1108.837393 612.963122 
L 1109.863223 613.031132 
L 1110.889052 612.95323 
L 1111.914882 613.033927 
L 1112.940711 612.83177 
L 1113.966541 613.037208 
L 1116.0182 613.122762 
L 1117.04403 612.991844 
L 1118.069859 614.010509 
L 1119.095689 613.233926 
L 1121.147348 613.056453 
L 1124.224837 613.287185 
L 1125.250666 613.537164 
L 1126.276496 613.139743 
L 1127.302326 613.373395 
L 1130.379814 613.284792 
L 1132.431473 613.389102 
L 1133.457303 611.242817 
L 1134.483133 613.319698 
L 1136.534792 613.337505 
L 1137.560621 613.292627 
L 1138.586451 614.365621 
L 1139.612281 613.445745 
L 1141.66394 613.393377 
L 1143.715599 613.322069 
L 1145.767258 612.592908 
L 1146.793088 612.680777 
L 1147.818917 613.487907 
L 1148.844747 613.328531 
L 1149.870576 613.528447 
L 1150.896406 613.429407 
L 1151.922235 613.813748 
L 1152.948065 613.53139 
L 1159.103043 613.75664 
L 1161.154702 613.897538 
L 1162.180531 613.704239 
L 1164.23219 613.878379 
L 1165.25802 614.725209 
L 1166.28385 615.160175 
L 1167.309679 613.886211 
L 1168.335509 613.930555 
L 1169.361338 613.640566 
L 1170.387168 613.769279 
L 1171.412998 613.721598 
L 1172.438827 614.939144 
L 1173.464657 613.994285 
L 1174.490486 613.967949 
L 1175.516316 615.011351 
L 1176.542145 613.906526 
L 1177.567975 614.047146 
L 1178.593805 613.958291 
L 1183.722952 614.141519 
L 1184.748782 614.149466 
L 1185.774612 612.165615 
L 1186.800441 614.046538 
L 1189.87793 614.248118 
L 1192.955419 614.137593 
L 1193.981248 614.332059 
L 1195.007078 613.951377 
L 1196.032907 614.327686 
L 1197.058737 614.200281 
L 1202.187885 614.438225 
L 1203.213714 614.174416 
L 1204.239544 614.451432 
L 1207.317033 614.507196 
L 1208.342862 614.411368 
L 1209.368692 614.545556 
L 1210.394522 614.44332 
L 1212.446181 614.54862 
L 1213.47201 615.382811 
L 1214.49784 614.451914 
L 1215.523669 613.812911 
L 1216.549499 613.805206 
L 1217.575329 614.625543 
L 1219.626988 614.463859 
L 1221.678647 614.870974 
L 1223.730306 614.693716 
L 1224.756136 615.6 
L 1225.781965 614.805685 
L 1232.962772 614.679348 
L 1233.988602 614.306951 
L 1235.014431 614.259508 
L 1237.066091 615.026257 
L 1238.09192 615.042527 
L 1240.143579 614.761144 
L 1241.169409 615.292247 
L 1242.195239 614.987429 
L 1245.272727 614.990383 
L 1245.272727 614.990383 
" style="fill:none;stroke:#1f77b4;stroke-linecap:square;stroke-width:1.5;"/>
   </g>
   <g id="line2d_18">
    <path clip-path="url(#p46643d3967)" d="M 230.727273 207.127871 
L 231.753102 111.6 
L 232.778932 128.182239 
L 233.804761 113.861757 
L 234.830591 145.15049 
L 235.856421 142.018411 
L 236.88225 120.86614 
L 237.90808 300.624033 
L 238.933909 183.921696 
L 239.959739 191.064939 
L 240.985569 178.34162 
L 242.011398 215.338028 
L 243.037228 229.787891 
L 244.063057 238.767302 
L 245.088887 237.06481 
L 246.114716 266.274306 
L 247.140546 268.432059 
L 248.166376 265.314588 
L 249.192205 281.012556 
L 250.218035 298.512121 
L 251.243864 291.697396 
L 253.295523 309.119176 
L 254.321353 191.256703 
L 255.347183 284.179811 
L 256.373012 263.960185 
L 257.398842 408.853387 
L 258.424671 333.92975 
L 259.450501 338.106236 
L 260.476331 340.686434 
L 261.50216 349.55878 
L 263.553819 357.119919 
L 264.579649 363.515892 
L 265.605478 382.290736 
L 266.631308 370.265823 
L 267.657138 374.936293 
L 268.682967 374.329811 
L 269.708797 379.512454 
L 270.734626 373.210274 
L 271.760456 385.796345 
L 272.786286 385.552711 
L 273.812115 398.331224 
L 274.837945 396.931 
L 275.863774 400.549585 
L 277.915433 403.838344 
L 278.941263 408.284093 
L 279.967093 409.190272 
L 280.992922 414.173093 
L 282.018752 412.677292 
L 283.044581 418.713048 
L 284.070411 373.742295 
L 285.09624 422.33281 
L 286.12207 425.188159 
L 287.1479 428.975075 
L 288.173729 366.538371 
L 289.199559 351.943617 
L 291.251218 432.96708 
L 292.277048 410.437493 
L 293.302877 484.105172 
L 294.328707 444.773943 
L 295.354536 442.593081 
L 296.380366 444.178253 
L 297.406195 448.789539 
L 298.432025 450.15463 
L 299.457855 454.763493 
L 300.483684 458.078681 
L 301.509514 457.497387 
L 302.535343 444.744093 
L 303.561173 462.772553 
L 304.587002 462.427035 
L 305.612832 464.997918 
L 306.638662 471.269474 
L 307.664491 411.461233 
L 308.690321 426.389611 
L 309.71615 452.855799 
L 310.74198 472.703531 
L 311.76781 473.662668 
L 312.793639 468.78749 
L 313.819469 477.113346 
L 314.845298 464.377661 
L 315.871128 509.815438 
L 316.896957 478.738507 
L 317.922787 482.292191 
L 318.948617 483.113074 
L 319.974446 485.248851 
L 321.000276 483.930707 
L 322.026105 488.051401 
L 323.051935 491.436136 
L 324.077765 529.832237 
L 325.103594 504.120577 
L 326.129424 495.255892 
L 327.155253 492.959255 
L 328.181083 487.896106 
L 329.206912 494.338543 
L 330.232742 495.503486 
L 331.258572 504.785757 
L 332.284401 469.084076 
L 333.310231 459.048987 
L 334.33606 496.838506 
L 335.36189 505.911663 
L 336.387719 508.099351 
L 337.413549 519.97668 
L 338.439379 508.677097 
L 339.465208 510.157191 
L 340.491038 517.22393 
L 342.542697 507.921534 
L 343.568527 514.256077 
L 344.594356 515.627588 
L 345.620186 515.095502 
L 346.646015 515.368926 
L 347.671845 517.033615 
L 348.697674 519.322027 
L 349.723504 519.066763 
L 350.749334 520.418349 
L 351.775163 444.05363 
L 352.800993 478.415267 
L 353.826822 529.267399 
L 354.852652 520.740491 
L 355.878481 523.645386 
L 356.904311 524.169564 
L 357.930141 520.063994 
L 358.95597 524.411384 
L 359.9818 526.59173 
L 361.007629 527.181504 
L 362.033459 546.807979 
L 363.059289 528.020749 
L 364.085118 527.829332 
L 365.110948 528.414407 
L 366.136777 527.893249 
L 367.162607 528.768762 
L 368.188436 530.261698 
L 369.214266 460.613409 
L 370.240096 489.047818 
L 371.265925 535.778168 
L 372.291755 528.40974 
L 373.317584 534.253408 
L 374.343414 534.303111 
L 375.369243 557.242448 
L 376.395073 513.661949 
L 377.420903 534.185632 
L 378.446732 540.306083 
L 379.472562 536.599117 
L 380.498391 537.131926 
L 381.524221 536.2337 
L 382.550051 533.252904 
L 383.57588 536.31557 
L 385.627539 539.565316 
L 386.653369 539.493506 
L 387.679198 540.831053 
L 388.705028 538.547292 
L 389.730858 541.368491 
L 390.756687 541.498187 
L 391.782517 541.397883 
L 392.808346 541.727712 
L 393.834176 542.610429 
L 394.860006 544.259966 
L 395.885835 542.71152 
L 396.911665 494.667758 
L 397.937494 507.896424 
L 398.963324 548.329164 
L 399.989153 546.43021 
L 401.014983 546.023754 
L 402.040813 548.126717 
L 403.066642 545.899392 
L 404.092472 546.665783 
L 405.118301 545.706117 
L 406.144131 548.616809 
L 407.16996 545.746871 
L 408.19579 546.811746 
L 409.22162 547.271841 
L 410.247449 547.396871 
L 411.273279 546.984018 
L 412.299108 549.673861 
L 413.324938 548.609374 
L 414.350768 548.375361 
L 415.376597 549.280524 
L 416.402427 549.80014 
L 417.428256 553.833063 
L 418.454086 551.863997 
L 419.479915 550.216066 
L 420.505745 515.993229 
L 421.531575 519.457989 
L 422.557404 551.723375 
L 423.583234 550.628598 
L 424.609063 554.637207 
L 425.634893 553.00572 
L 426.660722 553.765463 
L 427.686552 555.179119 
L 428.712382 554.158514 
L 429.738211 553.915523 
L 430.764041 563.834045 
L 431.78987 557.449608 
L 432.8157 555.633998 
L 433.84153 557.936952 
L 434.867359 557.846005 
L 435.893189 558.916181 
L 436.919018 559.172327 
L 437.944848 558.55351 
L 438.970677 556.68013 
L 439.996507 545.213995 
L 441.022337 523.087794 
L 442.048166 539.967538 
L 443.073996 551.744556 
L 444.099825 538.400038 
L 445.125655 556.447933 
L 446.151485 556.296741 
L 447.177314 556.741902 
L 448.203144 557.86163 
L 449.228973 558.137621 
L 450.254803 558.935614 
L 451.280632 558.335927 
L 452.306462 553.24852 
L 453.332292 557.674415 
L 454.358121 557.512154 
L 455.383951 559.832782 
L 456.40978 559.195527 
L 457.43561 560.740508 
L 458.461439 560.422545 
L 459.487269 559.908673 
L 460.513099 560.178452 
L 461.538928 558.723815 
L 462.564758 560.697564 
L 463.590587 559.739023 
L 464.616417 555.900682 
L 465.642247 559.693975 
L 466.668076 560.833442 
L 467.693906 564.156188 
L 468.719735 564.110324 
L 469.745565 562.616356 
L 470.771394 565.298612 
L 471.797224 564.93223 
L 473.848883 565.735822 
L 474.874713 565.630356 
L 475.900542 567.912275 
L 476.926372 566.340886 
L 477.952201 566.733188 
L 478.978031 566.109063 
L 480.003861 565.765469 
L 481.02969 538.06292 
L 482.05552 539.145718 
L 483.081349 568.535482 
L 484.107179 569.441003 
L 485.133009 568.877593 
L 488.210497 568.314989 
L 490.262156 568.568459 
L 491.287986 569.587595 
L 493.339645 539.329991 
L 494.365475 566.964302 
L 495.391304 570.18639 
L 496.417134 570.501943 
L 497.442964 567.871111 
L 498.468793 570.490976 
L 499.494623 571.091446 
L 500.520452 571.942064 
L 501.546282 571.482485 
L 502.572111 572.370567 
L 503.597941 569.961361 
L 504.623771 552.8212 
L 505.6496 574.779195 
L 506.67543 572.336367 
L 507.701259 570.782916 
L 508.727089 572.764936 
L 509.752918 572.805173 
L 510.778748 573.028247 
L 511.804578 571.429931 
L 512.830407 572.625925 
L 513.856237 572.764329 
L 514.882066 573.973733 
L 515.907896 572.762267 
L 516.933726 573.083112 
L 517.959555 573.695932 
L 518.985385 574.607727 
L 520.011214 574.447685 
L 521.037044 575.221823 
L 522.062873 574.473659 
L 523.088703 575.692512 
L 524.114533 575.393575 
L 525.140362 576.163421 
L 526.166192 575.672584 
L 527.192021 574.755968 
L 528.217851 575.175675 
L 529.24368 575.245458 
L 530.26951 575.627807 
L 531.29534 536.909149 
L 532.321169 554.246784 
L 533.346999 582.784878 
L 534.372828 577.57766 
L 535.398658 576.883101 
L 536.424488 579.46476 
L 537.450317 574.666028 
L 538.476147 577.485396 
L 539.501976 578.245131 
L 542.579465 578.213138 
L 543.605295 577.851943 
L 544.631124 578.668003 
L 545.656954 578.742538 
L 546.682783 579.42207 
L 547.708613 578.897462 
L 548.734443 577.613494 
L 550.786102 579.630565 
L 551.811931 579.078892 
L 552.837761 579.645708 
L 553.86359 586.960174 
L 554.88942 578.74972 
L 555.91525 577.562832 
L 556.941079 579.545849 
L 557.966909 580.008283 
L 558.992738 580.167634 
L 560.018568 580.085917 
L 561.044397 556.309721 
L 562.070227 557.526669 
L 563.096057 579.566972 
L 565.147716 580.854695 
L 566.173545 580.931001 
L 567.199375 578.7865 
L 568.225205 581.405519 
L 569.251034 579.970472 
L 570.276864 581.64583 
L 571.302693 581.933349 
L 572.328523 582.46941 
L 573.354352 581.945959 
L 574.380182 582.389602 
L 575.406012 581.684196 
L 576.431841 580.238803 
L 577.457671 585.163408 
L 578.4835 565.001146 
L 579.50933 561.645832 
L 580.535159 585.484657 
L 581.560989 582.886663 
L 582.586819 581.067805 
L 583.612648 573.598427 
L 584.638478 583.356469 
L 585.664307 583.730894 
L 586.690137 584.980051 
L 587.715967 588.286747 
L 588.741796 587.555474 
L 589.767626 584.234014 
L 590.793455 584.497042 
L 591.819285 584.031001 
L 592.845114 584.146341 
L 593.870944 584.722411 
L 595.922603 585.383632 
L 596.948433 583.757125 
L 597.974262 585.63843 
L 599.000092 585.511516 
L 600.025922 584.622483 
L 601.051751 574.223688 
L 602.077581 585.313668 
L 603.10341 586.595053 
L 604.12924 585.309579 
L 605.155069 585.476679 
L 606.180899 586.305527 
L 610.284217 586.302088 
L 611.310047 586.799891 
L 612.335876 586.078488 
L 613.361706 587.02851 
L 614.387536 587.051559 
L 615.413365 587.342128 
L 616.439195 587.029415 
L 617.465024 587.421295 
L 618.490854 587.482133 
L 619.516684 586.879703 
L 620.542513 587.137927 
L 621.568343 593.203042 
L 622.594172 587.581832 
L 623.620002 588.171352 
L 624.645831 589.62296 
L 625.671661 588.21075 
L 626.697491 588.878387 
L 627.72332 588.52429 
L 628.74915 588.734091 
L 629.774979 588.318492 
L 630.800809 588.786606 
L 631.826638 590.614649 
L 632.852468 588.226619 
L 633.878298 589.070349 
L 634.904127 588.844866 
L 636.955786 589.319602 
L 637.981616 588.272696 
L 639.007446 589.311705 
L 640.033275 590.966236 
L 641.059105 592.995192 
L 642.084934 591.039802 
L 643.110764 589.534762 
L 644.136593 590.187507 
L 645.162423 589.959015 
L 646.188253 590.139746 
L 647.214082 589.26244 
L 648.239912 589.709446 
L 649.265741 585.305502 
L 650.291571 590.034268 
L 651.3174 590.085525 
L 652.34323 590.331497 
L 653.36906 589.902958 
L 655.420719 590.55502 
L 656.446548 590.438907 
L 658.498208 590.806927 
L 659.524037 590.492674 
L 660.549867 591.237523 
L 661.575696 590.711939 
L 662.601526 591.122044 
L 663.627355 591.412336 
L 664.653185 590.967892 
L 665.679015 590.967181 
L 666.704844 591.284603 
L 667.730674 591.381133 
L 668.756503 591.699176 
L 669.782333 591.349997 
L 670.808163 591.445784 
L 672.859822 592.129548 
L 675.93731 592.015546 
L 676.96314 592.64676 
L 677.98897 592.374845 
L 679.014799 591.932724 
L 680.040629 592.406952 
L 681.066458 592.690674 
L 682.092288 592.168417 
L 683.118117 592.655203 
L 684.143947 592.918613 
L 685.169777 594.565923 
L 686.195606 592.615838 
L 688.247265 592.859753 
L 689.273095 593.448671 
L 690.298925 592.862692 
L 691.324754 593.199746 
L 692.350584 593.0853 
L 693.376413 598.615094 
L 694.402243 594.01839 
L 695.428072 593.172446 
L 697.479732 594.446963 
L 698.505561 593.84421 
L 699.531391 593.67587 
L 700.55722 595.362557 
L 701.58305 594.152575 
L 702.608879 593.825642 
L 703.634709 594.025647 
L 705.686368 593.915274 
L 707.738027 593.898015 
L 708.763857 593.73252 
L 709.789687 594.553182 
L 711.841346 594.397565 
L 713.893005 594.85878 
L 714.918834 595.976597 
L 715.944664 594.716851 
L 716.970494 594.918498 
L 717.996323 594.872481 
L 719.022153 594.698344 
L 720.047982 595.287419 
L 721.073812 595.325055 
L 722.099642 595.054112 
L 724.151301 595.542957 
L 725.17713 595.581287 
L 726.20296 596.527072 
L 727.228789 595.61949 
L 728.254619 595.985973 
L 729.280449 595.746382 
L 730.306278 596.052176 
L 731.332108 595.593736 
L 732.357937 595.990494 
L 733.383767 596.135399 
L 734.409596 596.114699 
L 735.435426 595.837552 
L 738.512915 596.535685 
L 740.564574 596.242777 
L 741.590404 596.251317 
L 742.616233 596.82692 
L 743.642063 596.53414 
L 744.667892 596.42602 
L 745.693722 601.777677 
L 746.719551 598.377366 
L 747.745381 596.808828 
L 748.771211 600.182189 
L 749.79704 597.495347 
L 750.82287 597.691967 
L 751.848699 597.141932 
L 752.874529 598.436262 
L 753.900358 597.397315 
L 754.926188 597.167134 
L 755.952018 597.090131 
L 758.003677 597.549245 
L 759.029506 600.637487 
L 760.055336 597.779712 
L 762.106995 597.45715 
L 763.132825 597.865319 
L 764.158654 597.791352 
L 765.184484 597.362753 
L 766.210313 597.613134 
L 767.236143 598.004052 
L 768.261973 597.684921 
L 769.287802 598.048931 
L 770.313632 597.754529 
L 771.339461 598.277587 
L 772.365291 598.343111 
L 773.391121 597.409052 
L 774.41695 598.206599 
L 775.44278 598.355441 
L 776.468609 597.941537 
L 777.494439 598.350244 
L 778.520268 601.629729 
L 779.546098 598.735699 
L 780.571928 598.434106 
L 781.597757 598.419058 
L 783.649416 599.085546 
L 784.675246 599.918483 
L 785.701075 598.914881 
L 786.726905 598.701885 
L 787.752735 599.26231 
L 788.778564 598.995511 
L 789.804394 598.993902 
L 790.830223 598.786749 
L 792.881883 599.076995 
L 795.959371 599.669479 
L 798.01103 599.446013 
L 799.03686 601.924996 
L 800.06269 600.123487 
L 802.114349 599.92116 
L 803.140178 599.912045 
L 804.166008 600.279552 
L 805.191837 599.732173 
L 806.217667 599.625418 
L 807.243497 600.075542 
L 808.269326 599.479891 
L 809.295156 600.091866 
L 810.320985 599.998303 
L 811.346815 600.262025 
L 812.372645 599.962481 
L 813.398474 600.33626 
L 814.424304 600.053349 
L 815.450133 600.016599 
L 816.475963 600.60851 
L 817.501792 600.368154 
L 818.527622 600.476846 
L 819.553452 600.320559 
L 821.605111 600.53857 
L 822.63094 600.800285 
L 823.65677 600.601605 
L 824.6826 601.154291 
L 825.708429 600.937654 
L 826.734259 600.86186 
L 827.760088 600.960339 
L 828.785918 601.369931 
L 829.811747 600.871249 
L 830.837577 601.147343 
L 832.889236 601.332031 
L 834.940895 601.130931 
L 835.966725 601.040621 
L 836.992554 601.942308 
L 838.018384 601.469821 
L 839.044214 601.568958 
L 840.070043 601.211517 
L 841.095873 601.472167 
L 842.121702 601.440252 
L 843.147532 601.545878 
L 844.173362 601.431443 
L 845.199191 601.930623 
L 847.25085 601.153106 
L 848.27668 601.827923 
L 849.302509 602.260404 
L 850.328339 604.908351 
L 851.354169 604.558272 
L 852.379998 602.256959 
L 853.405828 602.338985 
L 854.431657 604.64345 
L 855.457487 602.352266 
L 857.509146 602.2183 
L 858.534976 602.096384 
L 859.560805 602.384387 
L 860.586635 602.231201 
L 861.612464 602.311608 
L 862.638294 602.61543 
L 863.664124 602.503206 
L 865.715783 602.601049 
L 867.767442 604.815676 
L 868.793271 602.764228 
L 869.819101 602.679992 
L 870.844931 602.866797 
L 871.87076 602.547524 
L 873.922419 603.047781 
L 874.948249 602.934829 
L 875.974078 602.696223 
L 878.025738 603.274193 
L 879.051567 603.196616 
L 880.077397 603.263468 
L 881.103226 604.473161 
L 882.129056 603.115513 
L 883.154886 603.122386 
L 884.180715 603.498705 
L 886.232374 603.815058 
L 887.258204 603.533745 
L 888.284033 603.748048 
L 889.309863 603.378536 
L 890.335693 604.006028 
L 891.361522 603.817511 
L 892.387352 603.414385 
L 893.413181 603.794071 
L 899.568159 603.984313 
L 900.593988 603.417733 
L 902.645648 604.407267 
L 903.671477 606.924016 
L 904.697307 604.553177 
L 905.723136 604.312956 
L 906.748966 604.489769 
L 907.774795 604.489445 
L 908.800625 604.254045 
L 909.826455 604.245924 
L 910.852284 604.659077 
L 911.878114 604.519104 
L 912.903943 604.67798 
L 918.033091 604.779017 
L 919.058921 604.593666 
L 920.08475 604.826102 
L 921.11058 604.443649 
L 922.13641 604.958749 
L 923.162239 605.001214 
L 924.188069 604.667441 
L 925.213898 604.970798 
L 927.265557 604.889784 
L 928.291387 607.071647 
L 929.317217 604.846777 
L 930.343046 605.174737 
L 932.394705 605.067983 
L 933.420535 605.135756 
L 934.446365 605.059835 
L 935.472194 605.54249 
L 936.498024 605.358576 
L 937.523853 605.576104 
L 938.549683 605.363098 
L 939.575512 605.710481 
L 940.601342 605.411213 
L 942.653001 605.325267 
L 943.678831 605.537713 
L 944.70466 605.425133 
L 945.73049 605.578773 
L 947.782149 605.600548 
L 948.807979 605.688333 
L 949.833808 605.640227 
L 952.911297 605.972608 
L 953.937127 605.742329 
L 954.962956 605.930988 
L 955.988786 609.655462 
L 957.014615 606.504556 
L 958.040445 606.128289 
L 959.066274 606.205599 
L 960.092104 606.411626 
L 961.117934 606.353533 
L 962.143763 606.067195 
L 963.169593 607.209913 
L 964.195422 606.172277 
L 965.221252 608.377769 
L 966.247082 606.171502 
L 967.272911 608.223843 
L 968.298741 606.476779 
L 969.32457 606.435841 
L 970.3504 606.275322 
L 971.376229 606.290165 
L 972.402059 606.589548 
L 973.427889 606.473291 
L 977.531207 606.598204 
L 978.557036 606.504284 
L 979.582866 606.728457 
L 980.608696 606.749699 
L 981.634525 606.374015 
L 982.660355 606.705376 
L 983.686184 608.472088 
L 984.712014 606.738531 
L 985.737844 608.423397 
L 986.763673 606.684038 
L 987.789503 608.631173 
L 988.815332 606.950902 
L 990.866991 606.681307 
L 992.918651 607.037366 
L 994.97031 607.111204 
L 997.021969 607.58552 
L 998.047799 607.228993 
L 1004.202776 607.276906 
L 1005.228606 607.829914 
L 1006.254435 607.310944 
L 1007.280265 607.381731 
L 1008.306094 611.106769 
L 1009.331924 608.770057 
L 1010.357753 607.549467 
L 1011.383583 607.263976 
L 1012.409413 607.61754 
L 1015.486901 607.562624 
L 1016.512731 607.811867 
L 1017.538561 607.855498 
L 1018.56439 607.635594 
L 1019.59022 607.822615 
L 1020.616049 607.814217 
L 1021.641879 607.976405 
L 1022.667708 604.199763 
L 1023.693538 607.956504 
L 1024.719368 608.092136 
L 1025.745197 607.060165 
L 1026.771027 607.834992 
L 1028.822686 607.916816 
L 1034.977663 608.147199 
L 1036.003493 606.703291 
L 1037.029323 606.404037 
L 1038.055152 607.977279 
L 1039.080982 607.28827 
L 1040.106811 608.137275 
L 1041.132641 608.257605 
L 1042.15847 607.625045 
L 1043.1843 608.767281 
L 1044.21013 608.430122 
L 1045.235959 608.407947 
L 1046.261789 608.622525 
L 1047.287618 608.485465 
L 1048.313448 609.087941 
L 1049.339278 608.43794 
L 1050.365107 608.666107 
L 1051.390937 608.484546 
L 1052.416766 608.555275 
L 1053.442596 609.979384 
L 1054.468425 608.772344 
L 1055.494255 611.024524 
L 1056.520085 608.66539 
L 1057.545914 608.794065 
L 1059.597573 608.82882 
L 1060.623403 608.830863 
L 1061.649232 610.635856 
L 1062.675062 609.146234 
L 1063.700892 609.061425 
L 1064.726721 609.103779 
L 1065.752551 606.939806 
L 1066.77838 608.082368 
L 1068.83004 608.837415 
L 1069.855869 610.566579 
L 1070.881699 604.586727 
L 1071.907528 608.656407 
L 1072.933358 608.623567 
L 1073.959187 608.382773 
L 1074.985017 609.642585 
L 1076.010847 602.505025 
L 1077.036676 608.80243 
L 1078.062506 608.753448 
L 1079.088335 608.520335 
L 1080.114165 606.682381 
L 1081.139994 608.733802 
L 1083.191654 609.207365 
L 1084.217483 608.836757 
L 1085.243313 607.676646 
L 1086.269142 609.585131 
L 1087.294972 608.660305 
L 1088.320802 600.172276 
L 1089.346631 610.138789 
L 1090.372461 609.096916 
L 1091.39829 609.330993 
L 1092.42412 608.778898 
L 1093.449949 608.012468 
L 1094.475779 609.443432 
L 1096.527438 609.648517 
L 1097.553268 609.669526 
L 1098.579097 607.559884 
L 1099.604927 610.865284 
L 1100.630757 609.436491 
L 1101.656586 609.697747 
L 1102.682416 609.725576 
L 1103.708245 609.874233 
L 1105.759904 609.74427 
L 1106.785734 608.603 
L 1107.811564 610.014307 
L 1108.837393 609.775321 
L 1109.863223 610.026748 
L 1110.889052 609.796669 
L 1111.914882 610.087081 
L 1112.940711 612.378588 
L 1113.966541 611.915453 
L 1114.992371 610.369538 
L 1116.0182 607.796089 
L 1117.04403 609.940691 
L 1118.069859 610.121317 
L 1119.095689 609.772858 
L 1120.121519 610.188488 
L 1121.147348 610.215649 
L 1122.173178 610.071825 
L 1123.199007 610.125955 
L 1124.224837 610.335462 
L 1125.250666 610.175374 
L 1126.276496 610.219571 
L 1127.302326 607.384042 
L 1128.328155 610.020168 
L 1129.353985 610.289796 
L 1130.379814 610.347276 
L 1131.405644 610.228134 
L 1132.431473 610.433935 
L 1134.483133 610.288674 
L 1135.508962 610.458758 
L 1136.534792 609.320056 
L 1137.560621 610.177232 
L 1140.63811 610.531828 
L 1141.66394 610.286178 
L 1142.689769 610.293634 
L 1143.715599 610.473656 
L 1144.741428 611.016492 
L 1145.767258 610.331241 
L 1146.793088 608.065919 
L 1147.818917 610.332705 
L 1148.844747 610.730626 
L 1149.870576 610.486475 
L 1150.896406 610.522232 
L 1151.922235 610.752614 
L 1152.948065 610.704305 
L 1153.973895 611.192059 
L 1154.999724 610.641065 
L 1159.103043 610.768588 
L 1160.128872 610.689224 
L 1161.154702 609.261692 
L 1162.180531 610.040772 
L 1163.206361 610.973034 
L 1164.23219 610.721437 
L 1165.25802 610.761795 
L 1166.28385 612.985041 
L 1167.309679 611.203706 
L 1168.335509 611.119002 
L 1169.361338 612.324899 
L 1170.387168 611.051226 
L 1171.412998 611.092131 
L 1172.438827 611.012843 
L 1173.464657 611.179775 
L 1174.490486 610.686799 
L 1175.516316 610.954538 
L 1176.542145 609.258999 
L 1177.567975 611.258841 
L 1178.593805 610.811773 
L 1179.619634 611.033767 
L 1183.722952 611.221729 
L 1184.748782 611.174306 
L 1185.774612 611.243635 
L 1186.800441 611.047278 
L 1187.826271 611.319545 
L 1188.8521 611.159478 
L 1189.87793 612.663457 
L 1190.90376 611.275434 
L 1191.929589 611.140577 
L 1193.981248 611.361274 
L 1195.007078 611.343316 
L 1196.032907 609.233275 
L 1197.058737 610.998502 
L 1198.084567 611.292983 
L 1199.110396 611.439769 
L 1200.136226 611.91167 
L 1201.162055 611.571877 
L 1202.187885 611.678729 
L 1203.213714 611.57948 
L 1204.239544 611.617545 
L 1205.265374 611.523606 
L 1206.291203 610.297221 
L 1207.317033 611.50044 
L 1209.368692 611.498512 
L 1210.394522 611.873596 
L 1212.446181 611.5498 
L 1214.49784 611.88147 
L 1215.523669 611.867236 
L 1216.549499 611.575955 
L 1217.575329 612.192688 
L 1218.601158 615.048689 
L 1219.626988 613.369119 
L 1220.652817 612.049592 
L 1221.678647 612.169461 
L 1222.704477 610.204258 
L 1223.730306 612.911367 
L 1224.756136 611.764574 
L 1225.781965 611.984768 
L 1226.807795 612.401394 
L 1227.833624 612.06787 
L 1230.911113 612.115382 
L 1231.936943 611.87802 
L 1232.962772 613.312568 
L 1233.988602 611.940732 
L 1235.014431 613.808891 
L 1236.040261 612.616857 
L 1237.066091 612.017885 
L 1238.09192 612.253062 
L 1239.11775 612.329424 
L 1240.143579 612.082998 
L 1243.221068 612.286681 
L 1244.246898 613.106067 
L 1245.272727 611.517453 
L 1245.272727 611.517453 
" style="fill:none;stroke:#ff7f0e;stroke-linecap:square;stroke-width:1.5;"/>
   </g>
   <g id="patch_3">
    <path d="M 180 640.8 
L 180 86.4 
" style="fill:none;stroke:#000000;stroke-linecap:square;stroke-linejoin:miter;stroke-width:0.8;"/>
   </g>
   <g id="patch_4">
    <path d="M 1296 640.8 
L 1296 86.4 
" style="fill:none;stroke:#000000;stroke-linecap:square;stroke-linejoin:miter;stroke-width:0.8;"/>
   </g>
   <g id="patch_5">
    <path d="M 180 640.8 
L 1296 640.8 
" style="fill:none;stroke:#000000;stroke-linecap:square;stroke-linejoin:miter;stroke-width:0.8;"/>
   </g>
   <g id="patch_6">
    <path d="M 180 86.4 
L 1296 86.4 
" style="fill:none;stroke:#000000;stroke-linecap:square;stroke-linejoin:miter;stroke-width:0.8;"/>
   </g>
   <g id="text_19">
    <!-- TSI Speedup -->
    <defs>
     <path d="M -0.296875 72.90625 
L 61.375 72.90625 
L 61.375 64.59375 
L 35.5 64.59375 
L 35.5 0 
L 25.59375 0 
L 25.59375 64.59375 
L -0.296875 64.59375 
z
" id="DejaVuSans-84"/>
     <path d="M 53.515625 70.515625 
L 53.515625 60.890625 
Q 47.90625 63.578125 42.921875 64.890625 
Q 37.9375 66.21875 33.296875 66.21875 
Q 25.25 66.21875 20.875 63.09375 
Q 16.5 59.96875 16.5 54.203125 
Q 16.5 49.359375 19.40625 46.890625 
Q 22.3125 44.4375 30.421875 42.921875 
L 36.375 41.703125 
Q 47.40625 39.59375 52.65625 34.296875 
Q 57.90625 29 57.90625 20.125 
Q 57.90625 9.515625 50.796875 4.046875 
Q 43.703125 -1.421875 29.984375 -1.421875 
Q 24.8125 -1.421875 18.96875 -0.25 
Q 13.140625 0.921875 6.890625 3.21875 
L 6.890625 13.375 
Q 12.890625 10.015625 18.65625 8.296875 
Q 24.421875 6.59375 29.984375 6.59375 
Q 38.421875 6.59375 43.015625 9.90625 
Q 47.609375 13.234375 47.609375 19.390625 
Q 47.609375 24.75 44.3125 27.78125 
Q 41.015625 30.8125 33.5 32.328125 
L 27.484375 33.5 
Q 16.453125 35.6875 11.515625 40.375 
Q 6.59375 45.0625 6.59375 53.421875 
Q 6.59375 63.09375 13.40625 68.65625 
Q 20.21875 74.21875 32.171875 74.21875 
Q 37.3125 74.21875 42.625 73.28125 
Q 47.953125 72.359375 53.515625 70.515625 
z
" id="DejaVuSans-83"/>
     <path d="M 9.8125 72.90625 
L 19.671875 72.90625 
L 19.671875 0 
L 9.8125 0 
z
" id="DejaVuSans-73"/>
     <path id="DejaVuSans-32"/>
    </defs>
    <g transform="translate(700.426875 80.4)scale(0.12 -0.12)">
     <use xlink:href="#DejaVuSans-84"/>
     <use x="61.083984" xlink:href="#DejaVuSans-83"/>
     <use x="124.560547" xlink:href="#DejaVuSans-73"/>
     <use x="154.052734" xlink:href="#DejaVuSans-32"/>
     <use x="185.839844" xlink:href="#DejaVuSans-83"/>
     <use x="249.316406" xlink:href="#DejaVuSans-112"/>
     <use x="312.792969" xlink:href="#DejaVuSans-101"/>
     <use x="374.316406" xlink:href="#DejaVuSans-101"/>
     <use x="435.839844" xlink:href="#DejaVuSans-100"/>
     <use x="499.316406" xlink:href="#DejaVuSans-117"/>
     <use x="562.695312" xlink:href="#DejaVuSans-112"/>
    </g>
   </g>
   <g id="legend_1">
    <g id="patch_7">
     <path d="M 1185.373437 123.75625 
L 1289 123.75625 
Q 1291 123.75625 1291 121.75625 
L 1291 93.4 
Q 1291 91.4 1289 91.4 
L 1185.373437 91.4 
Q 1183.373437 91.4 1183.373437 93.4 
L 1183.373437 121.75625 
Q 1183.373437 123.75625 1185.373437 123.75625 
z
" style="fill:#ffffff;opacity:0.8;stroke:#cccccc;stroke-linejoin:miter;"/>
    </g>
    <g id="line2d_19">
     <path d="M 1187.373437 99.498437 
L 1207.373437 99.498437 
" style="fill:none;stroke:#1f77b4;stroke-linecap:square;stroke-width:1.5;"/>
    </g>
    <g id="line2d_20"/>
    <g id="text_20">
     <!-- numpy.float32 -->
     <defs>
      <path d="M 52 44.1875 
Q 55.375 50.25 60.0625 53.125 
Q 64.75 56 71.09375 56 
Q 79.640625 56 84.28125 50.015625 
Q 88.921875 44.046875 88.921875 33.015625 
L 88.921875 0 
L 79.890625 0 
L 79.890625 32.71875 
Q 79.890625 40.578125 77.09375 44.375 
Q 74.3125 48.1875 68.609375 48.1875 
Q 61.625 48.1875 57.5625 43.546875 
Q 53.515625 38.921875 53.515625 30.90625 
L 53.515625 0 
L 44.484375 0 
L 44.484375 32.71875 
Q 44.484375 40.625 41.703125 44.40625 
Q 38.921875 48.1875 33.109375 48.1875 
Q 26.21875 48.1875 22.15625 43.53125 
Q 18.109375 38.875 18.109375 30.90625 
L 18.109375 0 
L 9.078125 0 
L 9.078125 54.6875 
L 18.109375 54.6875 
L 18.109375 46.1875 
Q 21.1875 51.21875 25.484375 53.609375 
Q 29.78125 56 35.6875 56 
Q 41.65625 56 45.828125 52.96875 
Q 50 49.953125 52 44.1875 
z
" id="DejaVuSans-109"/>
      <path d="M 32.171875 -5.078125 
Q 28.375 -14.84375 24.75 -17.8125 
Q 21.140625 -20.796875 15.09375 -20.796875 
L 7.90625 -20.796875 
L 7.90625 -13.28125 
L 13.1875 -13.28125 
Q 16.890625 -13.28125 18.9375 -11.515625 
Q 21 -9.765625 23.484375 -3.21875 
L 25.09375 0.875 
L 2.984375 54.6875 
L 12.5 54.6875 
L 29.59375 11.921875 
L 46.6875 54.6875 
L 56.203125 54.6875 
z
" id="DejaVuSans-121"/>
      <path d="M 37.109375 75.984375 
L 37.109375 68.5 
L 28.515625 68.5 
Q 23.6875 68.5 21.796875 66.546875 
Q 19.921875 64.59375 19.921875 59.515625 
L 19.921875 54.6875 
L 34.71875 54.6875 
L 34.71875 47.703125 
L 19.921875 47.703125 
L 19.921875 0 
L 10.890625 0 
L 10.890625 47.703125 
L 2.296875 47.703125 
L 2.296875 54.6875 
L 10.890625 54.6875 
L 10.890625 58.5 
Q 10.890625 67.625 15.140625 71.796875 
Q 19.390625 75.984375 28.609375 75.984375 
z
" id="DejaVuSans-102"/>
      <path d="M 9.421875 75.984375 
L 18.40625 75.984375 
L 18.40625 0 
L 9.421875 0 
z
" id="DejaVuSans-108"/>
      <path d="M 30.609375 48.390625 
Q 23.390625 48.390625 19.1875 42.75 
Q 14.984375 37.109375 14.984375 27.296875 
Q 14.984375 17.484375 19.15625 11.84375 
Q 23.34375 6.203125 30.609375 6.203125 
Q 37.796875 6.203125 41.984375 11.859375 
Q 46.1875 17.53125 46.1875 27.296875 
Q 46.1875 37.015625 41.984375 42.703125 
Q 37.796875 48.390625 30.609375 48.390625 
z
M 30.609375 56 
Q 42.328125 56 49.015625 48.375 
Q 55.71875 40.765625 55.71875 27.296875 
Q 55.71875 13.875 49.015625 6.21875 
Q 42.328125 -1.421875 30.609375 -1.421875 
Q 18.84375 -1.421875 12.171875 6.21875 
Q 5.515625 13.875 5.515625 27.296875 
Q 5.515625 40.765625 12.171875 48.375 
Q 18.84375 56 30.609375 56 
z
" id="DejaVuSans-111"/>
      <path d="M 34.28125 27.484375 
Q 23.390625 27.484375 19.1875 25 
Q 14.984375 22.515625 14.984375 16.5 
Q 14.984375 11.71875 18.140625 8.90625 
Q 21.296875 6.109375 26.703125 6.109375 
Q 34.1875 6.109375 38.703125 11.40625 
Q 43.21875 16.703125 43.21875 25.484375 
L 43.21875 27.484375 
z
M 52.203125 31.203125 
L 52.203125 0 
L 43.21875 0 
L 43.21875 8.296875 
Q 40.140625 3.328125 35.546875 0.953125 
Q 30.953125 -1.421875 24.3125 -1.421875 
Q 15.921875 -1.421875 10.953125 3.296875 
Q 6 8.015625 6 15.921875 
Q 6 25.140625 12.171875 29.828125 
Q 18.359375 34.515625 30.609375 34.515625 
L 43.21875 34.515625 
L 43.21875 35.40625 
Q 43.21875 41.609375 39.140625 45 
Q 35.0625 48.390625 27.6875 48.390625 
Q 23 48.390625 18.546875 47.265625 
Q 14.109375 46.140625 10.015625 43.890625 
L 10.015625 52.203125 
Q 14.9375 54.109375 19.578125 55.046875 
Q 24.21875 56 28.609375 56 
Q 40.484375 56 46.34375 49.84375 
Q 52.203125 43.703125 52.203125 31.203125 
z
" id="DejaVuSans-97"/>
      <path d="M 18.3125 70.21875 
L 18.3125 54.6875 
L 36.8125 54.6875 
L 36.8125 47.703125 
L 18.3125 47.703125 
L 18.3125 18.015625 
Q 18.3125 11.328125 20.140625 9.421875 
Q 21.96875 7.515625 27.59375 7.515625 
L 36.8125 7.515625 
L 36.8125 0 
L 27.59375 0 
Q 17.1875 0 13.234375 3.875 
Q 9.28125 7.765625 9.28125 18.015625 
L 9.28125 47.703125 
L 2.6875 47.703125 
L 2.6875 54.6875 
L 9.28125 54.6875 
L 9.28125 70.21875 
z
" id="DejaVuSans-116"/>
     </defs>
     <g transform="translate(1215.373437 102.998437)scale(0.1 -0.1)">
      <use xlink:href="#DejaVuSans-110"/>
      <use x="63.378906" xlink:href="#DejaVuSans-117"/>
      <use x="126.757812" xlink:href="#DejaVuSans-109"/>
      <use x="224.169922" xlink:href="#DejaVuSans-112"/>
      <use x="287.646484" xlink:href="#DejaVuSans-121"/>
      <use x="332.576172" xlink:href="#DejaVuSans-46"/>
      <use x="364.363281" xlink:href="#DejaVuSans-102"/>
      <use x="399.568359" xlink:href="#DejaVuSans-108"/>
      <use x="427.351562" xlink:href="#DejaVuSans-111"/>
      <use x="488.533203" xlink:href="#DejaVuSans-97"/>
      <use x="549.8125" xlink:href="#DejaVuSans-116"/>
      <use x="589.021484" xlink:href="#DejaVuSans-51"/>
      <use x="652.644531" xlink:href="#DejaVuSans-50"/>
     </g>
    </g>
    <g id="line2d_21">
     <path d="M 1187.373437 114.176562 
L 1207.373437 114.176562 
" style="fill:none;stroke:#ff7f0e;stroke-linecap:square;stroke-width:1.5;"/>
    </g>
    <g id="line2d_22"/>
    <g id="text_21">
     <!-- numpy.float64 -->
     <g transform="translate(1215.373437 117.676562)scale(0.1 -0.1)">
      <use xlink:href="#DejaVuSans-110"/>
      <use x="63.378906" xlink:href="#DejaVuSans-117"/>
      <use x="126.757812" xlink:href="#DejaVuSans-109"/>
      <use x="224.169922" xlink:href="#DejaVuSans-112"/>
      <use x="287.646484" xlink:href="#DejaVuSans-121"/>
      <use x="332.576172" xlink:href="#DejaVuSans-46"/>
      <use x="364.363281" xlink:href="#DejaVuSans-102"/>
      <use x="399.568359" xlink:href="#DejaVuSans-108"/>
      <use x="427.351562" xlink:href="#DejaVuSans-111"/>
      <use x="488.533203" xlink:href="#DejaVuSans-97"/>
      <use x="549.8125" xlink:href="#DejaVuSans-116"/>
      <use x="589.021484" xlink:href="#DejaVuSans-54"/>
      <use x="652.644531" xlink:href="#DejaVuSans-52"/>
     </g>
    </g>
   </g>
  </g>
 </g>
 <defs>
  <clipPath id="p46643d3967">
   <rect height="554.4" width="1116" x="180" y="86.4"/>
  </clipPath>
 </defs>
</svg>
