<?xml version="1.0" encoding="utf-8" standalone="no"?>
<!DOCTYPE svg PUBLIC "-//W3C//DTD SVG 1.1//EN"
  "http://www.w3.org/Graphics/SVG/1.1/DTD/svg11.dtd">
<!-- Created with matplotlib (https://matplotlib.org/) -->
<svg height="720pt" version="1.1" viewBox="0 0 1440 720" width="1440pt" xmlns="http://www.w3.org/2000/svg" xmlns:xlink="http://www.w3.org/1999/xlink">
 <defs>
  <style type="text/css">
*{stroke-linecap:butt;stroke-linejoin:round;}
  </style>
 </defs>
 <g id="figure_1">
  <g id="patch_1">
   <path d="M 0 720 
L 1440 720 
L 1440 0 
L 0 0 
z
" style="fill:#ffffff;"/>
  </g>
  <g id="axes_1">
   <g id="patch_2">
    <path d="M 180 640.8 
L 1296 640.8 
L 1296 86.4 
L 180 86.4 
z
" style="fill:#ffffff;"/>
   </g>
   <g id="matplotlib.axis_1">
    <g id="xtick_1">
     <g id="line2d_1">
      <defs>
       <path d="M 0 0 
L 0 3.5 
" id="mcb4bc8f36e" style="stroke:#000000;stroke-width:0.8;"/>
      </defs>
      <g>
       <use style="stroke:#000000;stroke-width:0.8;" x="333.310231" xlink:href="#mcb4bc8f36e" y="640.8"/>
      </g>
     </g>
     <g id="text_1">
      <!-- 100.0 -->
      <defs>
       <path d="M 12.40625 8.296875 
L 28.515625 8.296875 
L 28.515625 63.921875 
L 10.984375 60.40625 
L 10.984375 69.390625 
L 28.421875 72.90625 
L 38.28125 72.90625 
L 38.28125 8.296875 
L 54.390625 8.296875 
L 54.390625 0 
L 12.40625 0 
z
" id="DejaVuSans-49"/>
       <path d="M 31.78125 66.40625 
Q 24.171875 66.40625 20.328125 58.90625 
Q 16.5 51.421875 16.5 36.375 
Q 16.5 21.390625 20.328125 13.890625 
Q 24.171875 6.390625 31.78125 6.390625 
Q 39.453125 6.390625 43.28125 13.890625 
Q 47.125 21.390625 47.125 36.375 
Q 47.125 51.421875 43.28125 58.90625 
Q 39.453125 66.40625 31.78125 66.40625 
z
M 31.78125 74.21875 
Q 44.046875 74.21875 50.515625 64.515625 
Q 56.984375 54.828125 56.984375 36.375 
Q 56.984375 17.96875 50.515625 8.265625 
Q 44.046875 -1.421875 31.78125 -1.421875 
Q 19.53125 -1.421875 13.0625 8.265625 
Q 6.59375 17.96875 6.59375 36.375 
Q 6.59375 54.828125 13.0625 64.515625 
Q 19.53125 74.21875 31.78125 74.21875 
z
" id="DejaVuSans-48"/>
       <path d="M 10.6875 12.40625 
L 21 12.40625 
L 21 0 
L 10.6875 0 
z
" id="DejaVuSans-46"/>
      </defs>
      <g transform="translate(318.996168 655.398438)scale(0.1 -0.1)">
       <use xlink:href="#DejaVuSans-49"/>
       <use x="63.623047" xlink:href="#DejaVuSans-48"/>
       <use x="127.246094" xlink:href="#DejaVuSans-48"/>
       <use x="190.869141" xlink:href="#DejaVuSans-46"/>
       <use x="222.65625" xlink:href="#DejaVuSans-48"/>
      </g>
     </g>
    </g>
    <g id="xtick_2">
     <g id="line2d_2">
      <g>
       <use style="stroke:#000000;stroke-width:0.8;" x="435.893189" xlink:href="#mcb4bc8f36e" y="640.8"/>
      </g>
     </g>
     <g id="text_2">
      <!-- 200.0 -->
      <defs>
       <path d="M 19.1875 8.296875 
L 53.609375 8.296875 
L 53.609375 0 
L 7.328125 0 
L 7.328125 8.296875 
Q 12.9375 14.109375 22.625 23.890625 
Q 32.328125 33.6875 34.8125 36.53125 
Q 39.546875 41.84375 41.421875 45.53125 
Q 43.3125 49.21875 43.3125 52.78125 
Q 43.3125 58.59375 39.234375 62.25 
Q 35.15625 65.921875 28.609375 65.921875 
Q 23.96875 65.921875 18.8125 64.3125 
Q 13.671875 62.703125 7.8125 59.421875 
L 7.8125 69.390625 
Q 13.765625 71.78125 18.9375 73 
Q 24.125 74.21875 28.421875 74.21875 
Q 39.75 74.21875 46.484375 68.546875 
Q 53.21875 62.890625 53.21875 53.421875 
Q 53.21875 48.921875 51.53125 44.890625 
Q 49.859375 40.875 45.40625 35.40625 
Q 44.1875 33.984375 37.640625 27.21875 
Q 31.109375 20.453125 19.1875 8.296875 
z
" id="DejaVuSans-50"/>
      </defs>
      <g transform="translate(421.579126 655.398438)scale(0.1 -0.1)">
       <use xlink:href="#DejaVuSans-50"/>
       <use x="63.623047" xlink:href="#DejaVuSans-48"/>
       <use x="127.246094" xlink:href="#DejaVuSans-48"/>
       <use x="190.869141" xlink:href="#DejaVuSans-46"/>
       <use x="222.65625" xlink:href="#DejaVuSans-48"/>
      </g>
     </g>
    </g>
    <g id="xtick_3">
     <g id="line2d_3">
      <g>
       <use style="stroke:#000000;stroke-width:0.8;" x="538.476147" xlink:href="#mcb4bc8f36e" y="640.8"/>
      </g>
     </g>
     <g id="text_3">
      <!-- 300.0 -->
      <defs>
       <path d="M 40.578125 39.3125 
Q 47.65625 37.796875 51.625 33 
Q 55.609375 28.21875 55.609375 21.1875 
Q 55.609375 10.40625 48.1875 4.484375 
Q 40.765625 -1.421875 27.09375 -1.421875 
Q 22.515625 -1.421875 17.65625 -0.515625 
Q 12.796875 0.390625 7.625 2.203125 
L 7.625 11.71875 
Q 11.71875 9.328125 16.59375 8.109375 
Q 21.484375 6.890625 26.8125 6.890625 
Q 36.078125 6.890625 40.9375 10.546875 
Q 45.796875 14.203125 45.796875 21.1875 
Q 45.796875 27.640625 41.28125 31.265625 
Q 36.765625 34.90625 28.71875 34.90625 
L 20.21875 34.90625 
L 20.21875 43.015625 
L 29.109375 43.015625 
Q 36.375 43.015625 40.234375 45.921875 
Q 44.09375 48.828125 44.09375 54.296875 
Q 44.09375 59.90625 40.109375 62.90625 
Q 36.140625 65.921875 28.71875 65.921875 
Q 24.65625 65.921875 20.015625 65.03125 
Q 15.375 64.15625 9.8125 62.3125 
L 9.8125 71.09375 
Q 15.4375 72.65625 20.34375 73.4375 
Q 25.25 74.21875 29.59375 74.21875 
Q 40.828125 74.21875 47.359375 69.109375 
Q 53.90625 64.015625 53.90625 55.328125 
Q 53.90625 49.265625 50.4375 45.09375 
Q 46.96875 40.921875 40.578125 39.3125 
z
" id="DejaVuSans-51"/>
      </defs>
      <g transform="translate(524.162084 655.398438)scale(0.1 -0.1)">
       <use xlink:href="#DejaVuSans-51"/>
       <use x="63.623047" xlink:href="#DejaVuSans-48"/>
       <use x="127.246094" xlink:href="#DejaVuSans-48"/>
       <use x="190.869141" xlink:href="#DejaVuSans-46"/>
       <use x="222.65625" xlink:href="#DejaVuSans-48"/>
      </g>
     </g>
    </g>
    <g id="xtick_4">
     <g id="line2d_4">
      <g>
       <use style="stroke:#000000;stroke-width:0.8;" x="641.059105" xlink:href="#mcb4bc8f36e" y="640.8"/>
      </g>
     </g>
     <g id="text_4">
      <!-- 400.0 -->
      <defs>
       <path d="M 37.796875 64.3125 
L 12.890625 25.390625 
L 37.796875 25.390625 
z
M 35.203125 72.90625 
L 47.609375 72.90625 
L 47.609375 25.390625 
L 58.015625 25.390625 
L 58.015625 17.1875 
L 47.609375 17.1875 
L 47.609375 0 
L 37.796875 0 
L 37.796875 17.1875 
L 4.890625 17.1875 
L 4.890625 26.703125 
z
" id="DejaVuSans-52"/>
      </defs>
      <g transform="translate(626.745042 655.398438)scale(0.1 -0.1)">
       <use xlink:href="#DejaVuSans-52"/>
       <use x="63.623047" xlink:href="#DejaVuSans-48"/>
       <use x="127.246094" xlink:href="#DejaVuSans-48"/>
       <use x="190.869141" xlink:href="#DejaVuSans-46"/>
       <use x="222.65625" xlink:href="#DejaVuSans-48"/>
      </g>
     </g>
    </g>
    <g id="xtick_5">
     <g id="line2d_5">
      <g>
       <use style="stroke:#000000;stroke-width:0.8;" x="743.642063" xlink:href="#mcb4bc8f36e" y="640.8"/>
      </g>
     </g>
     <g id="text_5">
      <!-- 500.0 -->
      <defs>
       <path d="M 10.796875 72.90625 
L 49.515625 72.90625 
L 49.515625 64.59375 
L 19.828125 64.59375 
L 19.828125 46.734375 
Q 21.96875 47.46875 24.109375 47.828125 
Q 26.265625 48.1875 28.421875 48.1875 
Q 40.625 48.1875 47.75 41.5 
Q 54.890625 34.8125 54.890625 23.390625 
Q 54.890625 11.625 47.5625 5.09375 
Q 40.234375 -1.421875 26.90625 -1.421875 
Q 22.3125 -1.421875 17.546875 -0.640625 
Q 12.796875 0.140625 7.71875 1.703125 
L 7.71875 11.625 
Q 12.109375 9.234375 16.796875 8.0625 
Q 21.484375 6.890625 26.703125 6.890625 
Q 35.15625 6.890625 40.078125 11.328125 
Q 45.015625 15.765625 45.015625 23.390625 
Q 45.015625 31 40.078125 35.4375 
Q 35.15625 39.890625 26.703125 39.890625 
Q 22.75 39.890625 18.8125 39.015625 
Q 14.890625 38.140625 10.796875 36.28125 
z
" id="DejaVuSans-53"/>
      </defs>
      <g transform="translate(729.328 655.398438)scale(0.1 -0.1)">
       <use xlink:href="#DejaVuSans-53"/>
       <use x="63.623047" xlink:href="#DejaVuSans-48"/>
       <use x="127.246094" xlink:href="#DejaVuSans-48"/>
       <use x="190.869141" xlink:href="#DejaVuSans-46"/>
       <use x="222.65625" xlink:href="#DejaVuSans-48"/>
      </g>
     </g>
    </g>
    <g id="xtick_6">
     <g id="line2d_6">
      <g>
       <use style="stroke:#000000;stroke-width:0.8;" x="846.225021" xlink:href="#mcb4bc8f36e" y="640.8"/>
      </g>
     </g>
     <g id="text_6">
      <!-- 600.0 -->
      <defs>
       <path d="M 33.015625 40.375 
Q 26.375 40.375 22.484375 35.828125 
Q 18.609375 31.296875 18.609375 23.390625 
Q 18.609375 15.53125 22.484375 10.953125 
Q 26.375 6.390625 33.015625 6.390625 
Q 39.65625 6.390625 43.53125 10.953125 
Q 47.40625 15.53125 47.40625 23.390625 
Q 47.40625 31.296875 43.53125 35.828125 
Q 39.65625 40.375 33.015625 40.375 
z
M 52.59375 71.296875 
L 52.59375 62.3125 
Q 48.875 64.0625 45.09375 64.984375 
Q 41.3125 65.921875 37.59375 65.921875 
Q 27.828125 65.921875 22.671875 59.328125 
Q 17.53125 52.734375 16.796875 39.40625 
Q 19.671875 43.65625 24.015625 45.921875 
Q 28.375 48.1875 33.59375 48.1875 
Q 44.578125 48.1875 50.953125 41.515625 
Q 57.328125 34.859375 57.328125 23.390625 
Q 57.328125 12.15625 50.6875 5.359375 
Q 44.046875 -1.421875 33.015625 -1.421875 
Q 20.359375 -1.421875 13.671875 8.265625 
Q 6.984375 17.96875 6.984375 36.375 
Q 6.984375 53.65625 15.1875 63.9375 
Q 23.390625 74.21875 37.203125 74.21875 
Q 40.921875 74.21875 44.703125 73.484375 
Q 48.484375 72.75 52.59375 71.296875 
z
" id="DejaVuSans-54"/>
      </defs>
      <g transform="translate(831.910958 655.398438)scale(0.1 -0.1)">
       <use xlink:href="#DejaVuSans-54"/>
       <use x="63.623047" xlink:href="#DejaVuSans-48"/>
       <use x="127.246094" xlink:href="#DejaVuSans-48"/>
       <use x="190.869141" xlink:href="#DejaVuSans-46"/>
       <use x="222.65625" xlink:href="#DejaVuSans-48"/>
      </g>
     </g>
    </g>
    <g id="xtick_7">
     <g id="line2d_7">
      <g>
       <use style="stroke:#000000;stroke-width:0.8;" x="948.807979" xlink:href="#mcb4bc8f36e" y="640.8"/>
      </g>
     </g>
     <g id="text_7">
      <!-- 700.0 -->
      <defs>
       <path d="M 8.203125 72.90625 
L 55.078125 72.90625 
L 55.078125 68.703125 
L 28.609375 0 
L 18.3125 0 
L 43.21875 64.59375 
L 8.203125 64.59375 
z
" id="DejaVuSans-55"/>
      </defs>
      <g transform="translate(934.493916 655.398438)scale(0.1 -0.1)">
       <use xlink:href="#DejaVuSans-55"/>
       <use x="63.623047" xlink:href="#DejaVuSans-48"/>
       <use x="127.246094" xlink:href="#DejaVuSans-48"/>
       <use x="190.869141" xlink:href="#DejaVuSans-46"/>
       <use x="222.65625" xlink:href="#DejaVuSans-48"/>
      </g>
     </g>
    </g>
    <g id="xtick_8">
     <g id="line2d_8">
      <g>
       <use style="stroke:#000000;stroke-width:0.8;" x="1051.390937" xlink:href="#mcb4bc8f36e" y="640.8"/>
      </g>
     </g>
     <g id="text_8">
      <!-- 800.0 -->
      <defs>
       <path d="M 31.78125 34.625 
Q 24.75 34.625 20.71875 30.859375 
Q 16.703125 27.09375 16.703125 20.515625 
Q 16.703125 13.921875 20.71875 10.15625 
Q 24.75 6.390625 31.78125 6.390625 
Q 38.8125 6.390625 42.859375 10.171875 
Q 46.921875 13.96875 46.921875 20.515625 
Q 46.921875 27.09375 42.890625 30.859375 
Q 38.875 34.625 31.78125 34.625 
z
M 21.921875 38.8125 
Q 15.578125 40.375 12.03125 44.71875 
Q 8.5 49.078125 8.5 55.328125 
Q 8.5 64.0625 14.71875 69.140625 
Q 20.953125 74.21875 31.78125 74.21875 
Q 42.671875 74.21875 48.875 69.140625 
Q 55.078125 64.0625 55.078125 55.328125 
Q 55.078125 49.078125 51.53125 44.71875 
Q 48 40.375 41.703125 38.8125 
Q 48.828125 37.15625 52.796875 32.3125 
Q 56.78125 27.484375 56.78125 20.515625 
Q 56.78125 9.90625 50.3125 4.234375 
Q 43.84375 -1.421875 31.78125 -1.421875 
Q 19.734375 -1.421875 13.25 4.234375 
Q 6.78125 9.90625 6.78125 20.515625 
Q 6.78125 27.484375 10.78125 32.3125 
Q 14.796875 37.15625 21.921875 38.8125 
z
M 18.3125 54.390625 
Q 18.3125 48.734375 21.84375 45.5625 
Q 25.390625 42.390625 31.78125 42.390625 
Q 38.140625 42.390625 41.71875 45.5625 
Q 45.3125 48.734375 45.3125 54.390625 
Q 45.3125 60.0625 41.71875 63.234375 
Q 38.140625 66.40625 31.78125 66.40625 
Q 25.390625 66.40625 21.84375 63.234375 
Q 18.3125 60.0625 18.3125 54.390625 
z
" id="DejaVuSans-56"/>
      </defs>
      <g transform="translate(1037.076874 655.398438)scale(0.1 -0.1)">
       <use xlink:href="#DejaVuSans-56"/>
       <use x="63.623047" xlink:href="#DejaVuSans-48"/>
       <use x="127.246094" xlink:href="#DejaVuSans-48"/>
       <use x="190.869141" xlink:href="#DejaVuSans-46"/>
       <use x="222.65625" xlink:href="#DejaVuSans-48"/>
      </g>
     </g>
    </g>
    <g id="xtick_9">
     <g id="line2d_9">
      <g>
       <use style="stroke:#000000;stroke-width:0.8;" x="1153.973895" xlink:href="#mcb4bc8f36e" y="640.8"/>
      </g>
     </g>
     <g id="text_9">
      <!-- 900.0 -->
      <defs>
       <path d="M 10.984375 1.515625 
L 10.984375 10.5 
Q 14.703125 8.734375 18.5 7.8125 
Q 22.3125 6.890625 25.984375 6.890625 
Q 35.75 6.890625 40.890625 13.453125 
Q 46.046875 20.015625 46.78125 33.40625 
Q 43.953125 29.203125 39.59375 26.953125 
Q 35.25 24.703125 29.984375 24.703125 
Q 19.046875 24.703125 12.671875 31.3125 
Q 6.296875 37.9375 6.296875 49.421875 
Q 6.296875 60.640625 12.9375 67.421875 
Q 19.578125 74.21875 30.609375 74.21875 
Q 43.265625 74.21875 49.921875 64.515625 
Q 56.59375 54.828125 56.59375 36.375 
Q 56.59375 19.140625 48.40625 8.859375 
Q 40.234375 -1.421875 26.421875 -1.421875 
Q 22.703125 -1.421875 18.890625 -0.6875 
Q 15.09375 0.046875 10.984375 1.515625 
z
M 30.609375 32.421875 
Q 37.25 32.421875 41.125 36.953125 
Q 45.015625 41.5 45.015625 49.421875 
Q 45.015625 57.28125 41.125 61.84375 
Q 37.25 66.40625 30.609375 66.40625 
Q 23.96875 66.40625 20.09375 61.84375 
Q 16.21875 57.28125 16.21875 49.421875 
Q 16.21875 41.5 20.09375 36.953125 
Q 23.96875 32.421875 30.609375 32.421875 
z
" id="DejaVuSans-57"/>
      </defs>
      <g transform="translate(1139.659832 655.398438)scale(0.1 -0.1)">
       <use xlink:href="#DejaVuSans-57"/>
       <use x="63.623047" xlink:href="#DejaVuSans-48"/>
       <use x="127.246094" xlink:href="#DejaVuSans-48"/>
       <use x="190.869141" xlink:href="#DejaVuSans-46"/>
       <use x="222.65625" xlink:href="#DejaVuSans-48"/>
      </g>
     </g>
    </g>
    <g id="xtick_10">
     <g id="line2d_10">
      <g>
       <use style="stroke:#000000;stroke-width:0.8;" x="1256.556853" xlink:href="#mcb4bc8f36e" y="640.8"/>
      </g>
     </g>
     <g id="text_10">
      <!-- 1000.0 -->
      <g transform="translate(1239.06154 655.398438)scale(0.1 -0.1)">
       <use xlink:href="#DejaVuSans-49"/>
       <use x="63.623047" xlink:href="#DejaVuSans-48"/>
       <use x="127.246094" xlink:href="#DejaVuSans-48"/>
       <use x="190.869141" xlink:href="#DejaVuSans-48"/>
       <use x="254.492188" xlink:href="#DejaVuSans-46"/>
       <use x="286.279297" xlink:href="#DejaVuSans-48"/>
      </g>
     </g>
    </g>
    <g id="text_11">
     <!-- n -->
     <defs>
      <path d="M 54.890625 33.015625 
L 54.890625 0 
L 45.90625 0 
L 45.90625 32.71875 
Q 45.90625 40.484375 42.875 44.328125 
Q 39.84375 48.1875 33.796875 48.1875 
Q 26.515625 48.1875 22.3125 43.546875 
Q 18.109375 38.921875 18.109375 30.90625 
L 18.109375 0 
L 9.078125 0 
L 9.078125 54.6875 
L 18.109375 54.6875 
L 18.109375 46.1875 
Q 21.34375 51.125 25.703125 53.5625 
Q 30.078125 56 35.796875 56 
Q 45.21875 56 50.046875 50.171875 
Q 54.890625 44.34375 54.890625 33.015625 
z
" id="DejaVuSans-110"/>
     </defs>
     <g transform="translate(734.83125 669.076563)scale(0.1 -0.1)">
      <use xlink:href="#DejaVuSans-110"/>
     </g>
    </g>
   </g>
   <g id="matplotlib.axis_2">
    <g id="ytick_1">
     <g id="line2d_11">
      <defs>
       <path d="M 0 0 
L -3.5 0 
" id="ma81bbfdd80" style="stroke:#000000;stroke-width:0.8;"/>
      </defs>
      <g>
       <use style="stroke:#000000;stroke-width:0.8;" x="180" xlink:href="#ma81bbfdd80" y="636.302933"/>
      </g>
     </g>
     <g id="text_12">
      <!-- 0 -->
      <g transform="translate(166.6375 640.102152)scale(0.1 -0.1)">
       <use xlink:href="#DejaVuSans-48"/>
      </g>
     </g>
    </g>
    <g id="ytick_2">
     <g id="line2d_12">
      <g>
       <use style="stroke:#000000;stroke-width:0.8;" x="180" xlink:href="#ma81bbfdd80" y="540.987421"/>
      </g>
     </g>
     <g id="text_13">
      <!-- 100 -->
      <g transform="translate(153.9125 544.78664)scale(0.1 -0.1)">
       <use xlink:href="#DejaVuSans-49"/>
       <use x="63.623047" xlink:href="#DejaVuSans-48"/>
       <use x="127.246094" xlink:href="#DejaVuSans-48"/>
      </g>
     </g>
    </g>
    <g id="ytick_3">
     <g id="line2d_13">
      <g>
       <use style="stroke:#000000;stroke-width:0.8;" x="180" xlink:href="#ma81bbfdd80" y="445.67191"/>
      </g>
     </g>
     <g id="text_14">
      <!-- 200 -->
      <g transform="translate(153.9125 449.471128)scale(0.1 -0.1)">
       <use xlink:href="#DejaVuSans-50"/>
       <use x="63.623047" xlink:href="#DejaVuSans-48"/>
       <use x="127.246094" xlink:href="#DejaVuSans-48"/>
      </g>
     </g>
    </g>
    <g id="ytick_4">
     <g id="line2d_14">
      <g>
       <use style="stroke:#000000;stroke-width:0.8;" x="180" xlink:href="#ma81bbfdd80" y="350.356398"/>
      </g>
     </g>
     <g id="text_15">
      <!-- 300 -->
      <g transform="translate(153.9125 354.155616)scale(0.1 -0.1)">
       <use xlink:href="#DejaVuSans-51"/>
       <use x="63.623047" xlink:href="#DejaVuSans-48"/>
       <use x="127.246094" xlink:href="#DejaVuSans-48"/>
      </g>
     </g>
    </g>
    <g id="ytick_5">
     <g id="line2d_15">
      <g>
       <use style="stroke:#000000;stroke-width:0.8;" x="180" xlink:href="#ma81bbfdd80" y="255.040886"/>
      </g>
     </g>
     <g id="text_16">
      <!-- 400 -->
      <g transform="translate(153.9125 258.840104)scale(0.1 -0.1)">
       <use xlink:href="#DejaVuSans-52"/>
       <use x="63.623047" xlink:href="#DejaVuSans-48"/>
       <use x="127.246094" xlink:href="#DejaVuSans-48"/>
      </g>
     </g>
    </g>
    <g id="ytick_6">
     <g id="line2d_16">
      <g>
       <use style="stroke:#000000;stroke-width:0.8;" x="180" xlink:href="#ma81bbfdd80" y="159.725374"/>
      </g>
     </g>
     <g id="text_17">
      <!-- 500 -->
      <g transform="translate(153.9125 163.524593)scale(0.1 -0.1)">
       <use xlink:href="#DejaVuSans-53"/>
       <use x="63.623047" xlink:href="#DejaVuSans-48"/>
       <use x="127.246094" xlink:href="#DejaVuSans-48"/>
      </g>
     </g>
    </g>
    <g id="text_18">
     <!-- speedup -->
     <defs>
      <path d="M 44.28125 53.078125 
L 44.28125 44.578125 
Q 40.484375 46.53125 36.375 47.5 
Q 32.28125 48.484375 27.875 48.484375 
Q 21.1875 48.484375 17.84375 46.4375 
Q 14.5 44.390625 14.5 40.28125 
Q 14.5 37.15625 16.890625 35.375 
Q 19.28125 33.59375 26.515625 31.984375 
L 29.59375 31.296875 
Q 39.15625 29.25 43.1875 25.515625 
Q 47.21875 21.78125 47.21875 15.09375 
Q 47.21875 7.46875 41.1875 3.015625 
Q 35.15625 -1.421875 24.609375 -1.421875 
Q 20.21875 -1.421875 15.453125 -0.5625 
Q 10.6875 0.296875 5.421875 2 
L 5.421875 11.28125 
Q 10.40625 8.6875 15.234375 7.390625 
Q 20.0625 6.109375 24.8125 6.109375 
Q 31.15625 6.109375 34.5625 8.28125 
Q 37.984375 10.453125 37.984375 14.40625 
Q 37.984375 18.0625 35.515625 20.015625 
Q 33.0625 21.96875 24.703125 23.78125 
L 21.578125 24.515625 
Q 13.234375 26.265625 9.515625 29.90625 
Q 5.8125 33.546875 5.8125 39.890625 
Q 5.8125 47.609375 11.28125 51.796875 
Q 16.75 56 26.8125 56 
Q 31.78125 56 36.171875 55.265625 
Q 40.578125 54.546875 44.28125 53.078125 
z
" id="DejaVuSans-115"/>
      <path d="M 18.109375 8.203125 
L 18.109375 -20.796875 
L 9.078125 -20.796875 
L 9.078125 54.6875 
L 18.109375 54.6875 
L 18.109375 46.390625 
Q 20.953125 51.265625 25.265625 53.625 
Q 29.59375 56 35.59375 56 
Q 45.5625 56 51.78125 48.09375 
Q 58.015625 40.1875 58.015625 27.296875 
Q 58.015625 14.40625 51.78125 6.484375 
Q 45.5625 -1.421875 35.59375 -1.421875 
Q 29.59375 -1.421875 25.265625 0.953125 
Q 20.953125 3.328125 18.109375 8.203125 
z
M 48.6875 27.296875 
Q 48.6875 37.203125 44.609375 42.84375 
Q 40.53125 48.484375 33.40625 48.484375 
Q 26.265625 48.484375 22.1875 42.84375 
Q 18.109375 37.203125 18.109375 27.296875 
Q 18.109375 17.390625 22.1875 11.75 
Q 26.265625 6.109375 33.40625 6.109375 
Q 40.53125 6.109375 44.609375 11.75 
Q 48.6875 17.390625 48.6875 27.296875 
z
" id="DejaVuSans-112"/>
      <path d="M 56.203125 29.59375 
L 56.203125 25.203125 
L 14.890625 25.203125 
Q 15.484375 15.921875 20.484375 11.0625 
Q 25.484375 6.203125 34.421875 6.203125 
Q 39.59375 6.203125 44.453125 7.46875 
Q 49.3125 8.734375 54.109375 11.28125 
L 54.109375 2.78125 
Q 49.265625 0.734375 44.1875 -0.34375 
Q 39.109375 -1.421875 33.890625 -1.421875 
Q 20.796875 -1.421875 13.15625 6.1875 
Q 5.515625 13.8125 5.515625 26.8125 
Q 5.515625 40.234375 12.765625 48.109375 
Q 20.015625 56 32.328125 56 
Q 43.359375 56 49.78125 48.890625 
Q 56.203125 41.796875 56.203125 29.59375 
z
M 47.21875 32.234375 
Q 47.125 39.59375 43.09375 43.984375 
Q 39.0625 48.390625 32.421875 48.390625 
Q 24.90625 48.390625 20.390625 44.140625 
Q 15.875 39.890625 15.1875 32.171875 
z
" id="DejaVuSans-101"/>
      <path d="M 45.40625 46.390625 
L 45.40625 75.984375 
L 54.390625 75.984375 
L 54.390625 0 
L 45.40625 0 
L 45.40625 8.203125 
Q 42.578125 3.328125 38.25 0.953125 
Q 33.9375 -1.421875 27.875 -1.421875 
Q 17.96875 -1.421875 11.734375 6.484375 
Q 5.515625 14.40625 5.515625 27.296875 
Q 5.515625 40.1875 11.734375 48.09375 
Q 17.96875 56 27.875 56 
Q 33.9375 56 38.25 53.625 
Q 42.578125 51.265625 45.40625 46.390625 
z
M 14.796875 27.296875 
Q 14.796875 17.390625 18.875 11.75 
Q 22.953125 6.109375 30.078125 6.109375 
Q 37.203125 6.109375 41.296875 11.75 
Q 45.40625 17.390625 45.40625 27.296875 
Q 45.40625 37.203125 41.296875 42.84375 
Q 37.203125 48.484375 30.078125 48.484375 
Q 22.953125 48.484375 18.875 42.84375 
Q 14.796875 37.203125 14.796875 27.296875 
z
" id="DejaVuSans-100"/>
      <path d="M 8.5 21.578125 
L 8.5 54.6875 
L 17.484375 54.6875 
L 17.484375 21.921875 
Q 17.484375 14.15625 20.5 10.265625 
Q 23.53125 6.390625 29.59375 6.390625 
Q 36.859375 6.390625 41.078125 11.03125 
Q 45.3125 15.671875 45.3125 23.6875 
L 45.3125 54.6875 
L 54.296875 54.6875 
L 54.296875 0 
L 45.3125 0 
L 45.3125 8.40625 
Q 42.046875 3.421875 37.71875 1 
Q 33.40625 -1.421875 27.6875 -1.421875 
Q 18.265625 -1.421875 13.375 4.4375 
Q 8.5 10.296875 8.5 21.578125 
z
M 31.109375 56 
z
" id="DejaVuSans-117"/>
     </defs>
     <g transform="translate(147.832812 385.049219)rotate(-90)scale(0.1 -0.1)">
      <use xlink:href="#DejaVuSans-115"/>
      <use x="52.099609" xlink:href="#DejaVuSans-112"/>
      <use x="115.576172" xlink:href="#DejaVuSans-101"/>
      <use x="177.099609" xlink:href="#DejaVuSans-101"/>
      <use x="238.623047" xlink:href="#DejaVuSans-100"/>
      <use x="302.099609" xlink:href="#DejaVuSans-117"/>
      <use x="365.478516" xlink:href="#DejaVuSans-112"/>
     </g>
    </g>
   </g>
   <g id="line2d_17">
    <path clip-path="url(#p3a53dd3e0a)" d="M 230.727273 216.180059 
L 231.753102 143.866791 
L 232.778932 180.186272 
L 233.804761 176.702802 
L 235.856421 208.175105 
L 236.88225 191.889818 
L 237.90808 202.34095 
L 238.933909 225.893437 
L 239.959739 242.172682 
L 240.985569 243.371418 
L 242.011398 239.554618 
L 243.037228 259.856117 
L 244.063057 257.580295 
L 246.114716 267.045475 
L 247.140546 287.561287 
L 248.166376 300.511744 
L 249.192205 294.791579 
L 250.218035 325.145265 
L 251.243864 310.466056 
L 252.269694 319.547758 
L 253.295523 326.427131 
L 254.321353 327.374065 
L 255.347183 336.207717 
L 256.373012 348.93422 
L 257.398842 337.323328 
L 258.424671 349.317857 
L 259.450501 364.793232 
L 260.476331 359.698229 
L 261.50216 362.752404 
L 262.52799 372.261891 
L 264.579649 381.095674 
L 265.605478 382.461889 
L 266.631308 385.041125 
L 267.657138 386.641258 
L 268.682967 395.622092 
L 269.708797 395.175823 
L 270.734626 400.625863 
L 271.760456 404.632728 
L 272.786286 406.993124 
L 273.812115 411.922694 
L 275.863774 418.726378 
L 276.889604 422.458083 
L 277.915433 424.942464 
L 278.941263 424.380811 
L 279.967093 429.537146 
L 280.992922 433.651935 
L 282.018752 432.928486 
L 283.044581 435.832382 
L 284.070411 439.356149 
L 286.12207 445.296926 
L 287.1479 442.9964 
L 288.173729 449.827436 
L 289.199559 449.359628 
L 290.225388 453.82591 
L 291.251218 451.8465 
L 292.277048 453.630429 
L 293.302877 457.061805 
L 294.328707 462.290519 
L 295.354536 463.327017 
L 296.380366 462.495781 
L 297.406195 462.663342 
L 298.432025 468.281918 
L 299.457855 466.705557 
L 300.483684 471.278715 
L 301.509514 470.38606 
L 302.535343 476.14927 
L 303.561173 473.967938 
L 304.587002 474.643141 
L 305.612832 476.30673 
L 306.638662 481.316326 
L 307.664491 479.70167 
L 308.690321 481.138805 
L 309.71615 482.233819 
L 310.74198 488.971041 
L 311.76781 486.120844 
L 312.793639 486.488484 
L 313.819469 489.433949 
L 314.845298 494.079745 
L 315.871128 492.562471 
L 316.896957 492.109016 
L 317.922787 492.41676 
L 318.948617 497.754515 
L 319.974446 496.221295 
L 321.000276 496.918916 
L 322.026105 498.096643 
L 323.051935 499.948267 
L 324.077765 500.383753 
L 326.129424 502.814413 
L 327.155253 506.885625 
L 328.181083 504.888189 
L 329.206912 506.001511 
L 330.232742 508.974015 
L 331.258572 510.359634 
L 332.284401 510.377151 
L 333.310231 510.524116 
L 334.33606 511.991994 
L 335.36189 513.011722 
L 336.387719 511.82331 
L 337.413549 514.384023 
L 338.439379 514.230485 
L 339.465208 515.771119 
L 340.491038 514.667942 
L 341.516867 517.495459 
L 343.568527 519.549267 
L 344.594356 517.695401 
L 345.620186 521.767453 
L 346.646015 520.493801 
L 347.671845 523.183237 
L 348.697674 521.758939 
L 349.723504 523.240881 
L 350.749334 520.917146 
L 351.775163 522.944841 
L 352.800993 527.455894 
L 353.826822 551.576565 
L 354.852652 528.100987 
L 355.878481 530.931674 
L 356.904311 528.93228 
L 357.930141 529.18941 
L 358.95597 543.237271 
L 359.9818 532.965235 
L 361.007629 527.434929 
L 362.033459 530.712015 
L 363.059289 532.783397 
L 364.085118 532.323623 
L 365.110948 532.316551 
L 367.162607 533.934837 
L 368.188436 535.729467 
L 369.214266 535.010406 
L 370.240096 535.32765 
L 372.291755 537.375307 
L 373.317584 535.890254 
L 374.343414 537.940069 
L 375.369243 539.109064 
L 376.395073 539.870884 
L 377.420903 538.96399 
L 378.446732 539.526818 
L 379.472562 541.44548 
L 380.498391 542.112178 
L 381.524221 541.185111 
L 382.550051 542.002315 
L 383.57588 542.379761 
L 384.60171 544.358271 
L 385.627539 542.925422 
L 386.653369 544.257078 
L 387.679198 544.392009 
L 388.705028 545.803649 
L 389.730858 544.812136 
L 391.782517 547.137443 
L 392.808346 548.324441 
L 393.834176 546.737587 
L 394.860006 548.580076 
L 395.885835 547.969112 
L 396.911665 548.055111 
L 397.937494 547.043462 
L 398.963324 544.654077 
L 399.989153 550.188485 
L 401.014983 549.998475 
L 402.040813 549.567355 
L 403.066642 549.426249 
L 405.118301 551.270183 
L 406.144131 551.007046 
L 407.16996 552.496279 
L 409.22162 553.332577 
L 410.247449 552.925171 
L 411.273279 553.823379 
L 412.299108 556.54048 
L 413.324938 556.388478 
L 414.350768 555.002766 
L 415.376597 555.251782 
L 416.402427 555.743527 
L 417.428256 556.416065 
L 418.454086 555.123836 
L 419.479915 559.737652 
L 420.505745 557.591575 
L 421.531575 558.224278 
L 422.557404 557.23922 
L 423.583234 558.355518 
L 424.609063 558.599167 
L 425.634893 559.100839 
L 426.660722 558.805818 
L 427.686552 559.931454 
L 428.712382 560.118264 
L 429.738211 561.225454 
L 430.764041 565.062002 
L 431.78987 561.673352 
L 432.8157 560.801364 
L 433.84153 561.074197 
L 434.867359 561.026365 
L 435.893189 562.209241 
L 436.919018 562.33861 
L 437.944848 562.601631 
L 438.970677 562.39579 
L 439.996507 563.448784 
L 441.022337 562.998978 
L 442.048166 563.695944 
L 443.073996 563.702605 
L 444.099825 565.042468 
L 445.125655 564.92083 
L 446.151485 564.220537 
L 447.177314 564.765586 
L 448.203144 565.851723 
L 449.228973 565.94162 
L 450.254803 565.551341 
L 451.280632 565.310684 
L 452.306462 566.345558 
L 453.332292 566.998829 
L 454.358121 566.696487 
L 455.383951 566.988879 
L 456.40978 567.535423 
L 457.43561 567.85007 
L 458.461439 567.364554 
L 459.487269 575.605836 
L 460.513099 568.655256 
L 461.538928 568.289964 
L 462.564758 568.415463 
L 463.590587 568.19146 
L 464.616417 564.270509 
L 465.642247 570.57285 
L 466.668076 569.86567 
L 468.719735 570.173418 
L 469.745565 569.646836 
L 470.771394 570.51768 
L 471.797224 569.671333 
L 472.823054 571.802891 
L 473.848883 571.211245 
L 474.874713 572.06393 
L 475.900542 570.997796 
L 476.926372 571.570643 
L 477.952201 571.945277 
L 478.978031 571.999963 
L 480.003861 572.481344 
L 481.02969 571.945527 
L 482.05552 573.609874 
L 483.081349 573.553538 
L 484.107179 572.790652 
L 485.133009 573.913045 
L 486.158838 573.952629 
L 487.184668 574.170902 
L 489.236327 573.602073 
L 490.262156 574.482425 
L 492.313816 575.02632 
L 493.339645 575.611164 
L 494.365475 575.083976 
L 495.391304 576.481419 
L 496.417134 575.64904 
L 497.442964 575.953239 
L 498.468793 575.876851 
L 499.494623 576.295622 
L 500.520452 576.031765 
L 501.546282 576.85823 
L 502.572111 576.511885 
L 503.597941 577.225496 
L 504.623771 576.275213 
L 505.6496 578.391456 
L 506.67543 577.07743 
L 507.701259 577.826631 
L 508.727089 578.424981 
L 509.752918 578.617291 
L 510.778748 578.608102 
L 511.804578 579.478821 
L 512.830407 578.103087 
L 513.856237 579.005679 
L 515.907896 579.550897 
L 516.933726 579.509876 
L 517.959555 579.818959 
L 518.985385 579.676833 
L 520.011214 579.231767 
L 521.037044 579.491859 
L 522.062873 579.591157 
L 524.114533 580.742279 
L 525.140362 579.425186 
L 526.166192 581.107274 
L 527.192021 581.289024 
L 528.217851 580.59323 
L 529.24368 581.287097 
L 531.29534 582.30027 
L 532.321169 581.948047 
L 534.372828 581.573785 
L 535.398658 581.835973 
L 536.424488 582.754255 
L 537.450317 581.85796 
L 538.476147 582.896871 
L 539.501976 583.215008 
L 540.527806 583.135359 
L 541.553635 582.682254 
L 542.579465 583.497477 
L 543.605295 583.974981 
L 544.631124 582.593957 
L 545.656954 583.538928 
L 546.682783 583.890604 
L 547.708613 584.386772 
L 548.734443 584.034439 
L 549.760272 583.525376 
L 550.786102 584.174473 
L 551.811931 584.5984 
L 552.837761 584.47572 
L 553.86359 584.686146 
L 554.88942 585.071049 
L 555.91525 584.476806 
L 556.941079 584.596071 
L 557.966909 585.077406 
L 558.992738 585.87592 
L 560.018568 586.06249 
L 562.070227 585.615022 
L 563.096057 586.269282 
L 564.121886 586.059568 
L 565.147716 586.379149 
L 566.173545 586.177067 
L 567.199375 586.737345 
L 568.225205 586.947836 
L 569.251034 586.583414 
L 570.276864 586.794646 
L 571.302693 587.521406 
L 572.328523 587.300298 
L 573.354352 586.782453 
L 575.406012 587.685837 
L 576.431841 587.976498 
L 577.457671 587.106051 
L 578.4835 587.012877 
L 579.50933 588.707853 
L 580.535159 586.376691 
L 581.560989 587.93277 
L 582.586819 588.22757 
L 583.612648 588.105185 
L 584.638478 588.616414 
L 585.664307 588.420992 
L 587.715967 588.577795 
L 588.741796 589.02565 
L 589.767626 589.004672 
L 590.793455 587.131407 
L 591.819285 589.143074 
L 592.845114 588.820005 
L 593.870944 588.898716 
L 595.922603 589.795073 
L 596.948433 589.952087 
L 597.974262 589.985296 
L 599.000092 588.71657 
L 600.025922 590.130051 
L 601.051751 590.551694 
L 602.077581 589.584474 
L 603.10341 590.332967 
L 604.12924 590.36557 
L 605.155069 590.613625 
L 606.180899 590.447842 
L 607.206729 591.204611 
L 609.258388 590.856088 
L 610.284217 590.572667 
L 611.310047 590.551926 
L 612.335876 591.835297 
L 613.361706 591.920658 
L 614.387536 591.568786 
L 615.413365 591.455856 
L 616.439195 592.177316 
L 617.465024 592.018083 
L 618.490854 592.186722 
L 619.516684 591.842052 
L 620.542513 591.842455 
L 621.568343 592.377812 
L 622.594172 590.996938 
L 623.620002 592.145253 
L 624.645831 592.331532 
L 625.671661 596.800382 
L 626.697491 592.603935 
L 627.72332 591.470577 
L 628.74915 585.816657 
L 629.774979 592.360581 
L 630.800809 593.299316 
L 631.826638 592.69039 
L 632.852468 593.354057 
L 633.878298 593.534959 
L 634.904127 591.417443 
L 635.929957 593.262737 
L 636.955786 593.917947 
L 637.981616 594.004426 
L 639.007446 593.433889 
L 640.033275 593.398571 
L 641.059105 594.026394 
L 642.084934 594.4153 
L 643.110764 594.230113 
L 647.214082 594.620127 
L 648.239912 593.430767 
L 650.291571 594.726655 
L 651.3174 594.843236 
L 652.34323 594.601485 
L 653.36906 595.303739 
L 654.394889 595.434285 
L 655.420719 595.059426 
L 656.446548 594.862624 
L 657.472378 595.539231 
L 658.498208 595.065801 
L 659.524037 595.13075 
L 660.549867 594.809872 
L 661.575696 595.866082 
L 662.601526 598.334884 
L 663.627355 595.040423 
L 664.653185 595.862783 
L 665.679015 595.994185 
L 666.704844 596.374336 
L 667.730674 595.939061 
L 668.756503 595.172698 
L 669.782333 596.292723 
L 670.808163 596.003749 
L 671.833992 595.914796 
L 672.859822 596.221887 
L 673.885651 596.710503 
L 674.911481 596.762504 
L 675.93731 596.216353 
L 676.96314 596.555294 
L 677.98897 597.159539 
L 679.014799 597.103784 
L 680.040629 596.421334 
L 681.066458 600.31217 
L 682.092288 597.408772 
L 684.143947 596.961435 
L 685.169777 597.167296 
L 686.195606 597.718652 
L 687.221436 596.861579 
L 688.247265 597.600693 
L 689.273095 597.040589 
L 690.298925 597.84232 
L 691.324754 598.114426 
L 692.350584 597.251708 
L 693.376413 597.501559 
L 694.402243 597.892751 
L 695.428072 597.785108 
L 696.453902 588.780553 
L 697.479732 597.367347 
L 698.505561 598.589846 
L 699.531391 598.672935 
L 700.55722 598.204157 
L 701.58305 597.858891 
L 702.608879 598.347568 
L 703.634709 598.193687 
L 704.660539 598.386356 
L 705.686368 598.157777 
L 706.712198 598.874783 
L 707.738027 598.862006 
L 708.763857 598.733705 
L 709.789687 598.300395 
L 710.815516 599.202346 
L 711.841346 598.913882 
L 713.893005 598.635862 
L 714.918834 599.035639 
L 715.944664 599.04161 
L 716.970494 599.272946 
L 717.996323 599.043715 
L 719.022153 599.477413 
L 720.047982 599.535925 
L 721.073812 599.15446 
L 722.099642 599.101293 
L 723.125471 599.445889 
L 724.151301 600.022426 
L 725.17713 599.264497 
L 726.20296 599.633604 
L 727.228789 598.432362 
L 728.254619 599.999704 
L 730.306278 599.845829 
L 731.332108 600.258352 
L 732.357937 599.841599 
L 733.383767 599.832534 
L 734.409596 600.275624 
L 737.487085 600.272174 
L 738.512915 600.318423 
L 739.538744 600.611767 
L 740.564574 600.778378 
L 741.590404 600.796701 
L 742.616233 600.503426 
L 743.642063 600.878246 
L 744.667892 601.106502 
L 745.693722 602.985049 
L 746.719551 601.233712 
L 747.745381 601.135589 
L 748.771211 601.274697 
L 749.79704 601.054955 
L 751.848699 601.292204 
L 752.874529 601.667319 
L 753.900358 601.415504 
L 754.926188 601.357259 
L 755.952018 601.907461 
L 756.977847 601.417099 
L 759.029506 600.890133 
L 760.055336 601.738624 
L 761.081166 601.595538 
L 762.106995 601.874203 
L 763.132825 601.608421 
L 765.184484 602.02075 
L 766.210313 601.591861 
L 767.236143 602.265726 
L 769.287802 602.299984 
L 770.313632 594.594197 
L 771.339461 601.886209 
L 772.365291 602.178509 
L 774.41695 602.358459 
L 775.44278 602.166288 
L 776.468609 602.45984 
L 777.494439 602.453753 
L 778.520268 602.635852 
L 779.546098 602.40865 
L 780.571928 602.802406 
L 781.597757 602.778563 
L 782.623587 602.277768 
L 783.649416 602.45924 
L 784.675246 602.526384 
L 785.701075 602.956199 
L 787.752735 602.761295 
L 788.778564 603.176116 
L 789.804394 602.843583 
L 790.830223 590.109455 
L 791.856053 602.921528 
L 793.907712 603.256276 
L 794.933542 603.171071 
L 795.959371 602.916624 
L 796.985201 603.524558 
L 800.06269 603.219937 
L 801.088519 603.708148 
L 802.114349 603.972533 
L 803.140178 603.827309 
L 804.166008 603.392614 
L 805.191837 604.078073 
L 808.269326 603.767753 
L 810.320985 604.08878 
L 811.346815 603.721382 
L 812.372645 603.809115 
L 813.398474 604.259211 
L 814.424304 604.001469 
L 815.450133 604.622958 
L 816.475963 604.158834 
L 818.527622 604.482063 
L 820.579281 604.14945 
L 821.605111 604.612456 
L 822.63094 604.682341 
L 823.65677 606.461498 
L 824.6826 606.130845 
L 825.708429 604.543091 
L 826.734259 604.961859 
L 827.760088 604.537079 
L 828.785918 604.305366 
L 829.811747 605.24829 
L 830.837577 604.192635 
L 831.863407 604.772955 
L 832.889236 604.657595 
L 833.915066 605.129504 
L 834.940895 605.062827 
L 835.966725 604.798226 
L 836.992554 606.970727 
L 838.018384 605.196904 
L 840.070043 605.168141 
L 842.121702 605.169485 
L 843.147532 605.346368 
L 844.173362 605.237989 
L 845.199191 605.253306 
L 846.225021 605.788959 
L 847.25085 605.64033 
L 848.27668 604.673656 
L 849.302509 605.37312 
L 850.328339 605.533969 
L 851.354169 606.252619 
L 852.379998 605.626122 
L 853.405828 605.749579 
L 854.431657 606.026895 
L 856.483316 605.886359 
L 857.509146 605.669688 
L 858.534976 606.261446 
L 859.560805 606.000057 
L 863.664124 606.192892 
L 864.689953 605.989023 
L 865.715783 605.927968 
L 866.741612 606.326187 
L 869.819101 606.099399 
L 870.844931 606.397662 
L 871.87076 606.567173 
L 872.89659 606.333797 
L 873.922419 606.430958 
L 875.974078 606.820233 
L 876.999908 606.543074 
L 880.077397 606.994907 
L 881.103226 606.650112 
L 882.129056 606.460224 
L 883.154886 606.976738 
L 884.180715 607.038957 
L 885.206545 606.739224 
L 886.232374 606.765015 
L 887.258204 606.411509 
L 888.284033 606.57081 
L 889.309863 606.89569 
L 890.335693 606.823891 
L 891.361522 607.384742 
L 892.387352 606.553978 
L 893.413181 607.11727 
L 895.464841 607.51191 
L 896.49067 607.196843 
L 897.5165 607.415478 
L 898.542329 607.259525 
L 899.568159 607.353413 
L 900.593988 607.314168 
L 901.619818 607.451722 
L 902.645648 607.223152 
L 903.671477 607.425951 
L 904.697307 607.844072 
L 905.723136 607.541963 
L 906.748966 609.205792 
L 907.774795 607.781315 
L 908.800625 607.622223 
L 909.826455 607.709147 
L 910.852284 607.560305 
L 912.903943 607.873769 
L 914.955603 607.772701 
L 918.033091 608.271832 
L 920.08475 608.029584 
L 923.162239 608.413183 
L 924.188069 608.025711 
L 925.213898 608.350931 
L 926.239728 608.025208 
L 927.265557 607.993159 
L 928.291387 608.244875 
L 929.317217 608.340162 
L 931.368876 608.232863 
L 932.394705 608.476648 
L 935.472194 608.443097 
L 936.498024 608.633727 
L 937.523853 608.638827 
L 938.549683 608.356912 
L 939.575512 608.606968 
L 941.627172 608.907564 
L 942.653001 608.524634 
L 943.678831 608.577604 
L 944.70466 609.348244 
L 946.75632 608.718418 
L 947.782149 609.096623 
L 948.807979 609.053326 
L 949.833808 610.478137 
L 950.859638 610.127308 
L 951.885467 610.456318 
L 952.911297 607.561711 
L 953.937127 610.773006 
L 954.962956 608.831756 
L 955.988786 610.387264 
L 957.014615 609.639236 
L 958.040445 609.197196 
L 959.066274 609.3688 
L 960.092104 609.088475 
L 962.143763 609.454047 
L 963.169593 609.422221 
L 964.195422 609.253283 
L 965.221252 609.712978 
L 966.247082 609.396731 
L 969.32457 609.413762 
L 970.3504 609.371603 
L 971.376229 609.687756 
L 972.402059 609.500478 
L 973.427889 609.775713 
L 978.557036 609.794107 
L 979.582866 610.055746 
L 980.608696 609.540488 
L 981.634525 609.452872 
L 982.660355 609.929916 
L 983.686184 609.866622 
L 984.712014 610.20117 
L 985.737844 610.104623 
L 986.763673 610.124911 
L 987.789503 610.336497 
L 988.815332 609.887966 
L 989.841162 610.231445 
L 992.918651 609.714264 
L 993.94448 610.349137 
L 994.97031 610.321276 
L 995.996139 609.724335 
L 997.021969 610.151471 
L 998.047799 610.349985 
L 999.073628 610.814675 
L 1000.099458 610.297511 
L 1001.125287 610.177877 
L 1002.151117 610.538201 
L 1003.176946 610.528322 
L 1005.228606 610.21403 
L 1006.254435 610.515708 
L 1007.280265 610.571449 
L 1008.306094 610.235138 
L 1010.357753 610.54122 
L 1011.383583 610.671374 
L 1012.409413 610.374941 
L 1013.435242 610.367412 
L 1014.461072 610.7468 
L 1015.486901 610.653256 
L 1016.512731 611.035741 
L 1017.538561 610.559038 
L 1018.56439 610.815882 
L 1019.59022 610.704346 
L 1020.616049 610.770924 
L 1021.641879 612.543727 
L 1022.667708 611.036918 
L 1023.693538 612.834711 
L 1024.719368 610.762869 
L 1025.745197 610.751459 
L 1026.771027 611.035548 
L 1027.796856 610.986328 
L 1028.822686 611.052388 
L 1029.848515 610.995825 
L 1030.874345 611.204924 
L 1032.926004 610.897822 
L 1034.977663 610.993853 
L 1036.003493 611.278329 
L 1037.029323 610.733287 
L 1039.080982 611.527419 
L 1042.15847 611.214376 
L 1044.21013 611.424599 
L 1045.235959 611.392407 
L 1046.261789 611.765422 
L 1050.365107 611.292027 
L 1051.390937 612.034633 
L 1053.442596 611.530177 
L 1054.468425 611.434219 
L 1055.494255 611.789606 
L 1057.545914 611.625193 
L 1058.571744 611.465395 
L 1060.623403 611.905047 
L 1061.649232 613.271117 
L 1062.675062 611.126542 
L 1063.700892 611.926407 
L 1065.752551 611.886115 
L 1066.77838 611.725095 
L 1067.80421 612.015685 
L 1069.855869 611.857782 
L 1070.881699 613.399612 
L 1071.907528 612.147131 
L 1072.933358 612.190678 
L 1074.985017 611.887079 
L 1076.010847 612.240483 
L 1077.036676 612.041007 
L 1079.088335 612.015258 
L 1080.114165 612.205042 
L 1081.139994 612.051284 
L 1082.165824 612.201273 
L 1083.191654 612.099836 
L 1084.217483 612.406017 
L 1087.294972 612.242107 
L 1088.320802 612.499125 
L 1090.372461 612.307164 
L 1092.42412 612.389963 
L 1093.449949 612.554306 
L 1095.501609 612.459025 
L 1096.527438 613.044827 
L 1097.553268 612.598297 
L 1099.604927 612.285607 
L 1100.630757 612.750927 
L 1101.656586 612.791399 
L 1102.682416 612.62473 
L 1103.708245 612.571494 
L 1105.759904 612.845545 
L 1106.785734 613.800612 
L 1107.811564 612.529302 
L 1108.837393 612.849572 
L 1109.863223 612.762461 
L 1110.889052 612.794341 
L 1111.914882 612.529583 
L 1112.940711 612.516965 
L 1113.966541 612.864026 
L 1114.992371 612.701381 
L 1116.0182 612.775726 
L 1117.04403 613.022353 
L 1119.095689 612.88312 
L 1120.121519 612.697861 
L 1121.147348 613.046379 
L 1124.224837 612.996402 
L 1125.250666 613.133032 
L 1126.276496 613.131813 
L 1127.302326 612.915651 
L 1129.353985 612.901713 
L 1130.379814 613.100144 
L 1131.405644 613.11461 
L 1132.431473 612.816895 
L 1133.457303 613.250577 
L 1134.483133 613.277003 
L 1135.508962 612.912692 
L 1136.534792 611.194995 
L 1137.560621 613.116353 
L 1138.586451 612.713592 
L 1139.612281 613.100405 
L 1140.63811 613.966626 
L 1141.66394 613.366903 
L 1142.689769 613.387878 
L 1143.715599 613.125233 
L 1144.741428 613.05882 
L 1145.767258 613.486871 
L 1146.793088 613.700905 
L 1147.818917 613.299604 
L 1148.844747 613.237805 
L 1149.870576 613.502634 
L 1150.896406 613.486131 
L 1151.922235 613.234739 
L 1152.948065 613.544842 
L 1153.973895 613.518216 
L 1154.999724 613.635667 
L 1156.025554 613.524517 
L 1157.051383 614.417506 
L 1158.077213 613.757406 
L 1160.128872 613.535968 
L 1161.154702 613.595665 
L 1162.180531 614.020442 
L 1163.206361 613.710568 
L 1165.25802 613.314746 
L 1166.28385 614.102582 
L 1167.309679 614.014521 
L 1168.335509 614.64697 
L 1169.361338 613.646818 
L 1170.387168 613.986916 
L 1171.412998 613.897689 
L 1172.438827 613.658453 
L 1173.464657 614.010025 
L 1175.516316 614.083131 
L 1176.542145 613.806595 
L 1177.567975 613.775589 
L 1178.593805 614.053399 
L 1179.619634 614.03548 
L 1180.645464 613.20185 
L 1182.697123 614.20669 
L 1183.722952 614.041011 
L 1184.748782 614.023636 
L 1185.774612 615.154829 
L 1186.800441 614.077429 
L 1189.87793 613.816547 
L 1190.90376 614.131732 
L 1191.929589 614.03189 
L 1192.955419 614.86252 
L 1193.981248 613.908822 
L 1195.007078 614.187906 
L 1196.032907 614.195041 
L 1197.058737 613.913935 
L 1198.084567 613.885087 
L 1199.110396 614.274388 
L 1200.136226 614.360732 
L 1201.162055 614.152138 
L 1202.187885 614.177012 
L 1203.213714 614.350378 
L 1206.291203 614.280949 
L 1207.317033 614.47812 
L 1208.342862 614.302182 
L 1209.368692 614.348112 
L 1210.394522 614.018108 
L 1211.420351 614.543584 
L 1212.446181 614.512431 
L 1213.47201 614.311436 
L 1215.523669 614.534427 
L 1216.549499 613.940764 
L 1217.575329 614.351193 
L 1219.626988 614.734513 
L 1222.704477 614.489261 
L 1223.730306 614.734534 
L 1224.756136 614.799037 
L 1225.781965 614.504253 
L 1226.807795 614.549148 
L 1227.833624 614.786733 
L 1230.911113 614.652492 
L 1231.936943 615.6 
L 1232.962772 615.047796 
L 1233.988602 614.751428 
L 1235.014431 614.740573 
L 1236.040261 614.988374 
L 1238.09192 614.801342 
L 1239.11775 615.082937 
L 1240.143579 614.920123 
L 1242.195239 615.028117 
L 1243.221068 614.700708 
L 1244.246898 614.880409 
L 1245.272727 614.913134 
L 1245.272727 614.913134 
" style="fill:none;stroke:#1f77b4;stroke-linecap:square;stroke-width:1.5;"/>
   </g>
   <g id="line2d_18">
    <path clip-path="url(#p3a53dd3e0a)" d="M 230.727273 241.331907 
L 231.753102 111.6 
L 233.804761 145.216104 
L 234.830591 148.707621 
L 235.856421 167.629744 
L 236.88225 192.72404 
L 239.959739 218.497037 
L 240.985569 241.668043 
L 242.011398 223.073364 
L 244.063057 253.476319 
L 245.088887 207.33499 
L 246.114716 286.038961 
L 247.140546 282.217356 
L 248.166376 272.949537 
L 249.192205 303.861566 
L 250.218035 284.444095 
L 251.243864 309.938199 
L 252.269694 300.390527 
L 253.295523 307.481824 
L 254.321353 306.592678 
L 255.347183 329.990727 
L 256.373012 317.423623 
L 257.398842 330.815406 
L 258.424671 335.190525 
L 259.450501 345.417008 
L 260.476331 344.1846 
L 261.50216 350.403187 
L 262.52799 351.35082 
L 263.553819 354.549612 
L 266.631308 368.704779 
L 267.657138 385.3983 
L 268.682967 377.739426 
L 269.708797 383.947104 
L 270.734626 378.449026 
L 271.760456 385.022297 
L 272.786286 392.440798 
L 273.812115 397.798385 
L 274.837945 397.159889 
L 275.863774 405.764045 
L 276.889604 407.549787 
L 277.915433 404.275313 
L 278.941263 411.926143 
L 279.967093 416.696193 
L 280.992922 413.400376 
L 282.018752 421.490545 
L 283.044581 417.379408 
L 284.070411 421.834804 
L 285.09624 424.332615 
L 286.12207 425.979337 
L 287.1479 426.492133 
L 288.173729 427.656627 
L 289.199559 434.266537 
L 290.225388 440.110479 
L 291.251218 439.22449 
L 292.277048 446.760111 
L 293.302877 444.295953 
L 294.328707 452.100868 
L 295.354536 509.407696 
L 296.380366 453.444822 
L 297.406195 452.613586 
L 298.432025 458.043912 
L 299.457855 454.667339 
L 300.483684 459.247953 
L 301.509514 458.529953 
L 302.535343 464.732747 
L 303.561173 461.949003 
L 304.587002 464.328825 
L 305.612832 468.510995 
L 307.664491 467.584777 
L 308.690321 473.441383 
L 309.71615 474.476063 
L 310.74198 470.945833 
L 311.76781 471.972336 
L 312.793639 476.75744 
L 313.819469 502.118954 
L 314.845298 481.260477 
L 315.871128 478.073047 
L 316.896957 480.052232 
L 318.948617 484.728461 
L 319.974446 487.339457 
L 321.000276 487.613355 
L 322.026105 488.061352 
L 323.051935 489.547945 
L 324.077765 490.715474 
L 325.103594 490.32313 
L 326.129424 493.874362 
L 327.155253 494.38337 
L 328.181083 496.133984 
L 329.206912 536.910851 
L 330.232742 501.807591 
L 331.258572 498.348151 
L 332.284401 498.310777 
L 333.310231 499.3774 
L 334.33606 499.453577 
L 335.36189 500.862431 
L 336.387719 500.918517 
L 337.413549 503.597288 
L 338.439379 503.166505 
L 340.491038 506.408957 
L 341.516867 506.242104 
L 342.542697 507.04387 
L 343.568527 510.569727 
L 344.594356 509.388029 
L 345.620186 510.783307 
L 346.646015 513.232005 
L 347.671845 513.565258 
L 348.697674 514.568543 
L 349.723504 510.062779 
L 350.749334 515.364342 
L 351.775163 514.87269 
L 352.800993 517.632416 
L 353.826822 516.928324 
L 354.852652 515.219982 
L 355.878481 515.622007 
L 356.904311 515.566716 
L 357.930141 519.023714 
L 358.95597 520.386861 
L 359.9818 525.778136 
L 361.007629 526.356533 
L 362.033459 525.718662 
L 363.059289 528.886459 
L 364.085118 528.586511 
L 365.110948 527.901923 
L 366.136777 526.744031 
L 367.162607 531.993134 
L 368.188436 530.812721 
L 369.214266 531.16011 
L 370.240096 529.928179 
L 371.265925 531.528596 
L 372.291755 531.09633 
L 373.317584 553.64312 
L 374.343414 536.477757 
L 375.369243 533.026446 
L 377.420903 534.513567 
L 378.446732 533.245575 
L 379.472562 531.186589 
L 380.498391 533.756394 
L 381.524221 534.968527 
L 382.550051 535.027456 
L 383.57588 534.365721 
L 384.60171 533.482323 
L 385.627539 536.767984 
L 386.653369 537.326918 
L 387.679198 538.083497 
L 388.705028 537.576628 
L 389.730858 538.695436 
L 390.756687 537.745269 
L 391.782517 536.112441 
L 392.808346 537.570818 
L 393.834176 539.456781 
L 394.860006 539.245328 
L 395.885835 540.571496 
L 396.911665 538.069205 
L 397.937494 542.20238 
L 398.963324 541.478769 
L 399.989153 543.709123 
L 401.014983 544.679794 
L 402.040813 543.987696 
L 403.066642 541.417184 
L 404.092472 547.278274 
L 405.118301 544.604006 
L 406.144131 544.615995 
L 407.16996 545.35588 
L 408.19579 547.081225 
L 409.22162 546.012991 
L 410.247449 544.663632 
L 411.273279 547.512154 
L 412.299108 548.096906 
L 413.324938 547.855271 
L 414.350768 548.126441 
L 415.376597 548.743918 
L 416.402427 548.315018 
L 417.428256 547.454396 
L 418.454086 551.915816 
L 419.479915 548.40905 
L 420.505745 548.49056 
L 421.531575 551.725405 
L 422.557404 551.16508 
L 423.583234 552.074459 
L 424.609063 552.216324 
L 425.634893 552.100402 
L 426.660722 553.410506 
L 427.686552 553.446423 
L 428.712382 554.404101 
L 429.738211 553.482561 
L 430.764041 553.404242 
L 431.78987 554.228144 
L 432.8157 552.297036 
L 433.84153 569.962943 
L 434.867359 555.352368 
L 435.893189 554.461071 
L 436.919018 555.627263 
L 437.944848 556.54362 
L 438.970677 556.190819 
L 439.996507 554.684195 
L 441.022337 554.933942 
L 442.048166 554.52415 
L 443.073996 557.556027 
L 444.099825 555.658555 
L 445.125655 557.739065 
L 446.151485 558.442104 
L 447.177314 556.752425 
L 448.203144 560.019853 
L 449.228973 558.813312 
L 450.254803 558.20613 
L 451.280632 560.293439 
L 452.306462 561.129324 
L 453.332292 560.519733 
L 454.358121 560.24665 
L 455.383951 558.257671 
L 456.40978 560.771523 
L 457.43561 559.434071 
L 458.461439 561.360971 
L 459.487269 583.114064 
L 460.513099 561.33826 
L 461.538928 561.898028 
L 462.564758 562.977768 
L 463.590587 562.343228 
L 464.616417 562.002076 
L 465.642247 562.400303 
L 466.668076 563.415357 
L 467.693906 562.43766 
L 468.719735 563.410599 
L 469.745565 562.611183 
L 470.771394 564.386726 
L 471.797224 563.12681 
L 472.823054 564.325616 
L 473.848883 564.587042 
L 475.900542 565.654738 
L 476.926372 564.86721 
L 477.952201 565.794384 
L 478.978031 565.980052 
L 481.02969 566.858267 
L 482.05552 565.186628 
L 483.081349 565.914171 
L 486.158838 568.557768 
L 487.184668 565.783837 
L 488.210497 567.564699 
L 489.236327 568.417104 
L 490.262156 567.82364 
L 491.287986 567.705224 
L 492.313816 568.02589 
L 493.339645 569.027458 
L 494.365475 569.659527 
L 495.391304 568.621424 
L 496.417134 569.624122 
L 497.442964 553.518804 
L 498.468793 570.997217 
L 499.494623 568.314465 
L 500.520452 570.480653 
L 501.546282 570.926252 
L 502.572111 573.05141 
L 503.597941 572.774103 
L 504.623771 573.289161 
L 505.6496 573.221851 
L 506.67543 573.271824 
L 507.701259 573.018024 
L 508.727089 574.419788 
L 509.752918 572.759991 
L 510.778748 573.65495 
L 511.804578 573.133611 
L 512.830407 582.738817 
L 513.856237 573.93732 
L 514.882066 574.26172 
L 515.907896 574.005503 
L 516.933726 574.440905 
L 517.959555 573.659354 
L 518.985385 577.360474 
L 520.011214 574.777987 
L 521.037044 576.852972 
L 522.062873 574.772625 
L 523.088703 574.733331 
L 524.114533 574.486077 
L 525.140362 575.102298 
L 526.166192 575.113102 
L 527.192021 575.271553 
L 528.217851 576.218785 
L 530.26951 576.79136 
L 531.29534 577.645002 
L 532.321169 577.32456 
L 533.346999 576.164838 
L 535.398658 576.488961 
L 536.424488 578.275777 
L 537.450317 575.737282 
L 538.476147 574.842038 
L 539.501976 577.067044 
L 540.527806 576.952431 
L 541.553635 585.930534 
L 542.579465 576.916249 
L 543.605295 577.533847 
L 544.631124 577.314425 
L 546.682783 577.433334 
L 547.708613 579.877573 
L 548.734443 581.058143 
L 549.760272 579.277453 
L 550.786102 579.139879 
L 552.837761 580.493542 
L 553.86359 580.639973 
L 554.88942 581.223929 
L 556.941079 580.33742 
L 557.966909 580.051457 
L 558.992738 582.548213 
L 560.018568 582.630287 
L 561.044397 581.278287 
L 562.070227 581.362629 
L 563.096057 581.230755 
L 564.121886 581.545513 
L 565.147716 580.917317 
L 566.173545 581.329734 
L 567.199375 583.46994 
L 568.225205 581.919501 
L 569.251034 583.189828 
L 570.276864 582.159442 
L 571.302693 582.369001 
L 572.328523 581.956504 
L 573.354352 582.622192 
L 574.380182 581.149796 
L 575.406012 582.625464 
L 576.431841 583.807727 
L 577.457671 582.511878 
L 578.4835 583.86491 
L 579.50933 582.219159 
L 582.586819 583.427399 
L 583.612648 581.848694 
L 584.638478 582.952899 
L 585.664307 583.050484 
L 586.690137 583.921631 
L 587.715967 590.033516 
L 588.741796 582.252969 
L 589.767626 582.738818 
L 590.793455 582.857983 
L 591.819285 583.366392 
L 592.845114 585.463461 
L 593.870944 584.681181 
L 594.896774 585.613731 
L 595.922603 586.774397 
L 596.948433 585.958661 
L 597.974262 585.405115 
L 599.000092 585.233853 
L 600.025922 585.564229 
L 601.051751 586.093602 
L 602.077581 585.316988 
L 604.12924 591.16509 
L 605.155069 586.498187 
L 606.180899 585.938603 
L 607.206729 586.893575 
L 608.232558 586.438001 
L 609.258388 586.244425 
L 610.284217 586.317817 
L 611.310047 587.276336 
L 612.335876 586.939186 
L 613.361706 587.318089 
L 614.387536 587.22914 
L 615.413365 587.367334 
L 616.439195 586.430946 
L 617.465024 587.013437 
L 619.516684 587.556979 
L 620.542513 587.146678 
L 621.568343 589.102958 
L 622.594172 587.684235 
L 623.620002 588.153407 
L 624.645831 587.236819 
L 625.671661 588.014102 
L 626.697491 588.062264 
L 627.72332 589.557314 
L 628.74915 587.767065 
L 629.774979 588.71986 
L 630.800809 588.11272 
L 631.826638 588.482752 
L 632.852468 588.118665 
L 633.878298 589.397099 
L 634.904127 588.091577 
L 635.929957 588.870884 
L 636.955786 588.892858 
L 637.981616 590.857448 
L 639.007446 589.294957 
L 640.033275 589.098062 
L 641.059105 593.968274 
L 642.084934 589.529108 
L 643.110764 590.682673 
L 644.136593 588.887585 
L 645.162423 589.334776 
L 646.188253 589.95583 
L 647.214082 589.259743 
L 648.239912 590.005268 
L 650.291571 590.024109 
L 651.3174 590.107782 
L 652.34323 589.852594 
L 653.36906 591.250705 
L 654.394889 590.255699 
L 655.420719 589.562883 
L 656.446548 590.372208 
L 657.472378 589.934265 
L 658.498208 590.490618 
L 659.524037 590.483244 
L 660.549867 590.255969 
L 661.575696 590.705397 
L 662.601526 591.406277 
L 663.627355 590.711803 
L 664.653185 591.090155 
L 665.679015 592.731106 
L 666.704844 592.765264 
L 667.730674 591.862188 
L 668.756503 591.651947 
L 669.782333 591.320394 
L 670.808163 591.521918 
L 671.833992 591.233973 
L 672.859822 591.616517 
L 673.885651 592.138074 
L 674.911481 591.646052 
L 675.93731 591.571898 
L 679.014799 592.226905 
L 680.040629 591.799806 
L 681.066458 592.259473 
L 682.092288 592.391108 
L 684.143947 592.323413 
L 685.169777 591.984233 
L 686.195606 592.626518 
L 688.247265 592.259653 
L 689.273095 594.591431 
L 690.298925 592.835824 
L 691.324754 594.041558 
L 692.350584 592.898007 
L 693.376413 593.160713 
L 694.402243 592.69426 
L 695.428072 592.782625 
L 696.453902 594.060136 
L 697.479732 592.884714 
L 698.505561 592.683331 
L 699.531391 593.373458 
L 700.55722 593.537045 
L 701.58305 593.579646 
L 702.608879 593.199173 
L 703.634709 593.462043 
L 704.660539 592.211314 
L 705.686368 593.246856 
L 706.712198 593.75689 
L 707.738027 602.594527 
L 708.763857 593.781556 
L 709.789687 592.550987 
L 710.815516 594.352553 
L 711.841346 593.928607 
L 712.867175 594.108513 
L 713.893005 593.83684 
L 714.918834 594.655644 
L 715.944664 595.646335 
L 716.970494 594.588817 
L 717.996323 594.840176 
L 719.022153 594.466567 
L 720.047982 595.175481 
L 721.073812 594.89997 
L 722.099642 594.962114 
L 724.151301 594.79804 
L 725.17713 598.274237 
L 726.20296 595.216451 
L 727.228789 595.692848 
L 728.254619 595.529313 
L 729.280449 595.796229 
L 730.306278 595.451064 
L 731.332108 595.892808 
L 732.357937 595.550059 
L 733.383767 594.639796 
L 734.409596 595.070033 
L 735.435426 594.220443 
L 736.461256 594.947961 
L 737.487085 594.778853 
L 738.512915 595.239195 
L 740.564574 595.242914 
L 741.590404 594.7984 
L 742.616233 596.089263 
L 743.642063 595.098374 
L 744.667892 596.020117 
L 745.693722 600.15453 
L 746.719551 596.357635 
L 747.745381 595.571724 
L 748.771211 599.732287 
L 749.79704 595.839684 
L 750.82287 596.483642 
L 752.874529 596.651845 
L 753.900358 595.879184 
L 754.926188 596.770386 
L 755.952018 596.888104 
L 756.977847 596.813968 
L 758.003677 596.137605 
L 759.029506 596.7015 
L 760.055336 595.771284 
L 761.081166 596.742791 
L 762.106995 596.293174 
L 763.132825 597.146865 
L 764.158654 595.790699 
L 765.184484 597.306657 
L 766.210313 596.459059 
L 767.236143 596.953008 
L 768.261973 598.299804 
L 769.287802 596.906761 
L 770.313632 596.766552 
L 771.339461 598.212678 
L 772.365291 596.953689 
L 773.391121 597.590331 
L 774.41695 597.132449 
L 775.44278 597.79676 
L 776.468609 597.214798 
L 777.494439 597.615108 
L 778.520268 596.867754 
L 779.546098 597.875254 
L 780.571928 596.822396 
L 781.597757 598.121731 
L 782.623587 597.301509 
L 783.649416 598.303566 
L 784.675246 597.525 
L 785.701075 597.826898 
L 786.726905 597.56768 
L 787.752735 598.12817 
L 788.778564 597.415832 
L 789.804394 598.238892 
L 790.830223 597.975064 
L 791.856053 598.320067 
L 792.881883 598.040486 
L 793.907712 598.547306 
L 794.933542 601.100229 
L 795.959371 598.8362 
L 796.985201 598.295112 
L 798.01103 599.105036 
L 799.03686 598.665336 
L 800.06269 598.951907 
L 801.088519 598.587666 
L 802.114349 598.94966 
L 803.140178 598.694663 
L 804.166008 599.365637 
L 805.191837 598.716657 
L 806.217667 598.991833 
L 807.243497 598.874478 
L 808.269326 599.6018 
L 809.295156 601.897623 
L 810.320985 599.324651 
L 811.346815 598.700389 
L 812.372645 599.827427 
L 813.398474 599.009817 
L 814.424304 599.636532 
L 815.450133 598.874625 
L 816.475963 599.75324 
L 817.501792 599.172619 
L 818.527622 599.590947 
L 819.553452 599.299898 
L 820.579281 599.957353 
L 821.605111 598.997162 
L 822.63094 599.898864 
L 823.65677 599.444999 
L 824.6826 599.77774 
L 825.708429 599.475593 
L 826.734259 600.109807 
L 827.760088 599.572201 
L 828.785918 602.786544 
L 829.811747 599.554771 
L 830.837577 600.29252 
L 831.863407 599.855359 
L 832.889236 600.438313 
L 833.915066 600.030809 
L 834.940895 600.418451 
L 835.966725 599.964319 
L 836.992554 600.734357 
L 838.018384 600.181441 
L 839.044214 600.285568 
L 840.070043 600.123121 
L 841.095873 600.988773 
L 842.121702 602.918246 
L 843.147532 600.5493 
L 844.173362 600.473802 
L 845.199191 600.658016 
L 846.225021 600.016007 
L 847.25085 600.809165 
L 848.27668 600.733033 
L 849.302509 601.429189 
L 850.328339 600.129714 
L 851.354169 602.288985 
L 852.379998 600.74028 
L 853.405828 601.503207 
L 854.431657 600.825512 
L 855.457487 602.321508 
L 856.483316 600.82054 
L 857.509146 601.513894 
L 858.534976 600.647826 
L 859.560805 601.318143 
L 860.586635 601.027229 
L 861.612464 601.684603 
L 862.638294 601.10903 
L 863.664124 601.68652 
L 864.689953 601.371389 
L 865.715783 601.969739 
L 866.741612 601.491671 
L 867.767442 601.727056 
L 868.793271 601.116447 
L 869.819101 601.739046 
L 870.844931 601.279569 
L 871.87076 601.994048 
L 872.89659 601.590573 
L 873.922419 602.244469 
L 874.948249 601.506773 
L 875.974078 602.084919 
L 876.999908 601.359369 
L 878.025738 602.331643 
L 879.051567 601.831488 
L 880.077397 602.19527 
L 881.103226 601.946926 
L 882.129056 602.546191 
L 883.154886 601.892376 
L 884.180715 602.553741 
L 885.206545 602.094883 
L 886.232374 602.416857 
L 887.258204 602.189242 
L 888.284033 602.625925 
L 889.309863 602.132281 
L 890.335693 602.657893 
L 891.361522 602.141159 
L 892.387352 602.513821 
L 893.413181 602.118534 
L 894.439011 602.603188 
L 895.464841 602.329679 
L 896.49067 602.761285 
L 897.5165 602.044981 
L 898.542329 593.265513 
L 899.568159 602.473495 
L 900.593988 602.70866 
L 901.619818 602.596597 
L 902.645648 603.422993 
L 903.671477 603.977821 
L 904.697307 603.320274 
L 905.723136 602.964687 
L 906.748966 603.352843 
L 907.774795 602.754345 
L 909.826455 603.903241 
L 910.852284 603.693218 
L 911.878114 603.019752 
L 912.903943 603.590456 
L 913.929773 603.06176 
L 914.955603 603.702891 
L 915.981432 603.018624 
L 917.007262 603.636548 
L 918.033091 602.841265 
L 919.058921 603.794586 
L 920.08475 602.143097 
L 921.11058 602.841907 
L 922.13641 603.129969 
L 923.162239 603.672582 
L 924.188069 603.354994 
L 925.213898 603.910011 
L 926.239728 603.446855 
L 927.265557 604.083798 
L 928.291387 603.377762 
L 929.317217 604.09648 
L 930.343046 603.577209 
L 931.368876 604.391446 
L 932.394705 603.473337 
L 933.420535 604.479477 
L 934.446365 603.73714 
L 935.472194 604.391375 
L 936.498024 603.566066 
L 937.523853 604.120064 
L 938.549683 603.724708 
L 939.575512 604.602809 
L 940.601342 604.130082 
L 941.627172 604.38289 
L 942.653001 603.987961 
L 943.678831 604.944143 
L 944.70466 603.979468 
L 945.73049 608.952112 
L 946.75632 604.073035 
L 947.782149 604.677037 
L 948.807979 604.099948 
L 949.833808 604.395233 
L 950.859638 604.031071 
L 951.885467 604.743304 
L 952.911297 604.258797 
L 953.937127 604.943576 
L 954.962956 604.307856 
L 955.988786 606.166345 
L 957.014615 604.703208 
L 958.040445 605.11422 
L 959.066274 604.747956 
L 960.092104 605.376751 
L 961.117934 604.927417 
L 962.143763 605.016921 
L 963.169593 604.677273 
L 964.195422 605.35614 
L 965.221252 604.650288 
L 967.272911 604.43706 
L 968.298741 605.397611 
L 969.32457 604.645817 
L 970.3504 605.22139 
L 971.376229 604.90513 
L 972.402059 605.392448 
L 973.427889 604.971819 
L 974.453718 605.297743 
L 975.479548 604.960176 
L 976.505377 606.378927 
L 977.531207 604.978036 
L 978.557036 605.283211 
L 979.582866 604.929666 
L 980.608696 605.352844 
L 981.634525 604.483598 
L 982.660355 605.782475 
L 983.686184 605.249732 
L 984.712014 605.657253 
L 985.737844 605.129921 
L 986.763673 605.628589 
L 987.789503 605.447648 
L 988.815332 606.146162 
L 989.841162 605.490018 
L 990.866991 605.873914 
L 991.892821 605.573349 
L 992.918651 606.181544 
L 993.94448 604.720789 
L 994.97031 605.876834 
L 995.996139 605.498156 
L 997.021969 606.10289 
L 998.047799 605.547583 
L 999.073628 605.97586 
L 1000.099458 605.580331 
L 1001.125287 606.10263 
L 1002.151117 605.91611 
L 1003.176946 607.883873 
L 1004.202776 605.986947 
L 1005.228606 606.51646 
L 1006.254435 605.925408 
L 1007.280265 606.55878 
L 1008.306094 609.504388 
L 1009.331924 606.766203 
L 1010.357753 605.573539 
L 1011.383583 607.207373 
L 1012.409413 605.933488 
L 1013.435242 606.751746 
L 1014.461072 606.115785 
L 1015.486901 606.533556 
L 1016.512731 606.185133 
L 1017.538561 606.677464 
L 1018.56439 607.544662 
L 1019.59022 606.69133 
L 1020.616049 606.46886 
L 1021.641879 607.211753 
L 1022.667708 606.921601 
L 1023.693538 606.507206 
L 1024.719368 606.438509 
L 1025.745197 606.983077 
L 1026.771027 606.891537 
L 1028.822686 606.379902 
L 1029.848515 607.046093 
L 1030.874345 606.442951 
L 1031.900175 606.720317 
L 1032.926004 606.646683 
L 1033.951834 607.225569 
L 1034.977663 606.632703 
L 1036.003493 607.163603 
L 1037.029323 606.776691 
L 1038.055152 607.338606 
L 1039.080982 606.823887 
L 1040.106811 608.30541 
L 1041.132641 606.676194 
L 1042.15847 607.34069 
L 1043.1843 606.767863 
L 1044.21013 607.3991 
L 1045.235959 606.809757 
L 1046.261789 607.838116 
L 1047.287618 607.079998 
L 1048.313448 607.32321 
L 1049.339278 606.867136 
L 1050.365107 609.062736 
L 1051.390937 607.185497 
L 1052.416766 607.465183 
L 1053.442596 607.164206 
L 1054.468425 607.750897 
L 1055.494255 607.028501 
L 1056.520085 607.659002 
L 1057.545914 607.196467 
L 1058.571744 607.752396 
L 1059.597573 607.445583 
L 1060.623403 608.422045 
L 1062.675062 608.458305 
L 1063.700892 608.082626 
L 1064.726721 608.318536 
L 1065.752551 608.069718 
L 1066.77838 608.623705 
L 1067.80421 607.751648 
L 1068.83004 609.714389 
L 1069.855869 608.113668 
L 1070.881699 608.75357 
L 1071.907528 607.824391 
L 1072.933358 608.559846 
L 1073.959187 608.452095 
L 1074.985017 608.729635 
L 1076.010847 608.292789 
L 1077.036676 608.593569 
L 1078.062506 608.245253 
L 1079.088335 608.853824 
L 1080.114165 608.341615 
L 1081.139994 608.722717 
L 1082.165824 608.189899 
L 1083.191654 608.792041 
L 1084.217483 608.285508 
L 1085.243313 608.874564 
L 1086.269142 608.541787 
L 1087.294972 608.827792 
L 1088.320802 608.274051 
L 1089.346631 608.712959 
L 1090.372461 608.561901 
L 1091.39829 609.13794 
L 1092.42412 608.417909 
L 1093.449949 609.028749 
L 1094.475779 608.464319 
L 1095.501609 608.891361 
L 1096.527438 608.508874 
L 1097.553268 609.142189 
L 1098.579097 608.549176 
L 1100.630757 609.999165 
L 1101.656586 609.413487 
L 1102.682416 609.059382 
L 1103.708245 609.533543 
L 1104.734075 608.929819 
L 1105.759904 609.245701 
L 1106.785734 608.86961 
L 1107.811564 609.387488 
L 1108.837393 608.935216 
L 1109.863223 609.374713 
L 1110.889052 608.83214 
L 1111.914882 609.58829 
L 1112.940711 608.485094 
L 1113.966541 610.374467 
L 1114.992371 609.23898 
L 1116.0182 609.559849 
L 1117.04403 609.345349 
L 1118.069859 609.449353 
L 1119.095689 609.129097 
L 1120.121519 610.0066 
L 1121.147348 609.209393 
L 1122.173178 609.708018 
L 1123.199007 609.125494 
L 1124.224837 609.695193 
L 1125.250666 609.202005 
L 1126.276496 609.550732 
L 1127.302326 609.254288 
L 1128.328155 609.821588 
L 1129.353985 609.197086 
L 1130.379814 609.657831 
L 1131.405644 609.034899 
L 1132.431473 609.97819 
L 1133.457303 609.399054 
L 1134.483133 609.735572 
L 1135.508962 609.360536 
L 1136.534792 609.91759 
L 1137.560621 609.529774 
L 1138.586451 611.223709 
L 1139.612281 609.404796 
L 1140.63811 609.972933 
L 1141.66394 609.396412 
L 1142.689769 609.786046 
L 1143.715599 609.532539 
L 1144.741428 609.942964 
L 1145.767258 608.987505 
L 1146.793088 609.965926 
L 1147.818917 609.471084 
L 1148.844747 610.171985 
L 1149.870576 609.481579 
L 1150.896406 611.110925 
L 1151.922235 609.622099 
L 1152.948065 610.101545 
L 1153.973895 609.733648 
L 1154.999724 610.016672 
L 1156.025554 609.655259 
L 1157.051383 610.120501 
L 1158.077213 609.522592 
L 1159.103043 610.594024 
L 1160.128872 609.763896 
L 1161.154702 610.240707 
L 1162.180531 609.75828 
L 1163.206361 610.365842 
L 1164.23219 609.773713 
L 1165.25802 610.12678 
L 1166.28385 610.941748 
L 1167.309679 610.364348 
L 1168.335509 610.144677 
L 1169.361338 610.306126 
L 1170.387168 610.065165 
L 1171.412998 610.508013 
L 1172.438827 609.797784 
L 1173.464657 612.707656 
L 1174.490486 610.036191 
L 1175.516316 610.350199 
L 1176.542145 610.023871 
L 1177.567975 610.681385 
L 1178.593805 610.124625 
L 1179.619634 610.461388 
L 1180.645464 610.216104 
L 1181.671293 610.692377 
L 1182.697123 603.805407 
L 1183.722952 610.446452 
L 1184.748782 610.260504 
L 1185.774612 612.453706 
L 1186.800441 610.124645 
L 1187.826271 610.514659 
L 1188.8521 611.594545 
L 1189.87793 610.989922 
L 1190.90376 610.166534 
L 1191.929589 610.613949 
L 1192.955419 610.403205 
L 1193.981248 610.843651 
L 1195.007078 610.301689 
L 1196.032907 610.738668 
L 1197.058737 610.514526 
L 1198.084567 610.854431 
L 1199.110396 610.488069 
L 1200.136226 610.738019 
L 1201.162055 610.53311 
L 1202.187885 611.015733 
L 1203.213714 610.542738 
L 1204.239544 610.762522 
L 1205.265374 610.399783 
L 1206.291203 611.180908 
L 1207.317033 611.764884 
L 1208.342862 611.075959 
L 1209.368692 610.793567 
L 1210.394522 612.264478 
L 1211.420351 610.75039 
L 1212.446181 611.033762 
L 1213.47201 610.852623 
L 1214.49784 611.088154 
L 1215.523669 610.944817 
L 1216.549499 611.31964 
L 1217.575329 610.665001 
L 1218.601158 612.33111 
L 1219.626988 611.077635 
L 1220.652817 611.318687 
L 1221.678647 610.500093 
L 1224.756136 611.295365 
L 1225.781965 610.127071 
L 1226.807795 611.443513 
L 1227.833624 610.940447 
L 1228.859454 611.306499 
L 1229.885284 610.920767 
L 1230.911113 611.485261 
L 1231.936943 611.223373 
L 1232.962772 611.301093 
L 1233.988602 610.954315 
L 1235.014431 611.511208 
L 1236.040261 611.095263 
L 1237.066091 611.528419 
L 1238.09192 611.194662 
L 1239.11775 611.672835 
L 1240.143579 611.108524 
L 1241.169409 611.389989 
L 1242.195239 611.145322 
L 1243.221068 611.858897 
L 1244.246898 611.09887 
L 1245.272727 611.608215 
L 1245.272727 611.608215 
" style="fill:none;stroke:#ff7f0e;stroke-linecap:square;stroke-width:1.5;"/>
   </g>
   <g id="patch_3">
    <path d="M 180 640.8 
L 180 86.4 
" style="fill:none;stroke:#000000;stroke-linecap:square;stroke-linejoin:miter;stroke-width:0.8;"/>
   </g>
   <g id="patch_4">
    <path d="M 1296 640.8 
L 1296 86.4 
" style="fill:none;stroke:#000000;stroke-linecap:square;stroke-linejoin:miter;stroke-width:0.8;"/>
   </g>
   <g id="patch_5">
    <path d="M 180 640.8 
L 1296 640.8 
" style="fill:none;stroke:#000000;stroke-linecap:square;stroke-linejoin:miter;stroke-width:0.8;"/>
   </g>
   <g id="patch_6">
    <path d="M 180 86.4 
L 1296 86.4 
" style="fill:none;stroke:#000000;stroke-linecap:square;stroke-linejoin:miter;stroke-width:0.8;"/>
   </g>
   <g id="text_19">
    <!-- TSI Speedup -->
    <defs>
     <path d="M -0.296875 72.90625 
L 61.375 72.90625 
L 61.375 64.59375 
L 35.5 64.59375 
L 35.5 0 
L 25.59375 0 
L 25.59375 64.59375 
L -0.296875 64.59375 
z
" id="DejaVuSans-84"/>
     <path d="M 53.515625 70.515625 
L 53.515625 60.890625 
Q 47.90625 63.578125 42.921875 64.890625 
Q 37.9375 66.21875 33.296875 66.21875 
Q 25.25 66.21875 20.875 63.09375 
Q 16.5 59.96875 16.5 54.203125 
Q 16.5 49.359375 19.40625 46.890625 
Q 22.3125 44.4375 30.421875 42.921875 
L 36.375 41.703125 
Q 47.40625 39.59375 52.65625 34.296875 
Q 57.90625 29 57.90625 20.125 
Q 57.90625 9.515625 50.796875 4.046875 
Q 43.703125 -1.421875 29.984375 -1.421875 
Q 24.8125 -1.421875 18.96875 -0.25 
Q 13.140625 0.921875 6.890625 3.21875 
L 6.890625 13.375 
Q 12.890625 10.015625 18.65625 8.296875 
Q 24.421875 6.59375 29.984375 6.59375 
Q 38.421875 6.59375 43.015625 9.90625 
Q 47.609375 13.234375 47.609375 19.390625 
Q 47.609375 24.75 44.3125 27.78125 
Q 41.015625 30.8125 33.5 32.328125 
L 27.484375 33.5 
Q 16.453125 35.6875 11.515625 40.375 
Q 6.59375 45.0625 6.59375 53.421875 
Q 6.59375 63.09375 13.40625 68.65625 
Q 20.21875 74.21875 32.171875 74.21875 
Q 37.3125 74.21875 42.625 73.28125 
Q 47.953125 72.359375 53.515625 70.515625 
z
" id="DejaVuSans-83"/>
     <path d="M 9.8125 72.90625 
L 19.671875 72.90625 
L 19.671875 0 
L 9.8125 0 
z
" id="DejaVuSans-73"/>
     <path id="DejaVuSans-32"/>
    </defs>
    <g transform="translate(700.426875 80.4)scale(0.12 -0.12)">
     <use xlink:href="#DejaVuSans-84"/>
     <use x="61.083984" xlink:href="#DejaVuSans-83"/>
     <use x="124.560547" xlink:href="#DejaVuSans-73"/>
     <use x="154.052734" xlink:href="#DejaVuSans-32"/>
     <use x="185.839844" xlink:href="#DejaVuSans-83"/>
     <use x="249.316406" xlink:href="#DejaVuSans-112"/>
     <use x="312.792969" xlink:href="#DejaVuSans-101"/>
     <use x="374.316406" xlink:href="#DejaVuSans-101"/>
     <use x="435.839844" xlink:href="#DejaVuSans-100"/>
     <use x="499.316406" xlink:href="#DejaVuSans-117"/>
     <use x="562.695312" xlink:href="#DejaVuSans-112"/>
    </g>
   </g>
   <g id="legend_1">
    <g id="patch_7">
     <path d="M 1185.373437 123.75625 
L 1289 123.75625 
Q 1291 123.75625 1291 121.75625 
L 1291 93.4 
Q 1291 91.4 1289 91.4 
L 1185.373437 91.4 
Q 1183.373437 91.4 1183.373437 93.4 
L 1183.373437 121.75625 
Q 1183.373437 123.75625 1185.373437 123.75625 
z
" style="fill:#ffffff;opacity:0.8;stroke:#cccccc;stroke-linejoin:miter;"/>
    </g>
    <g id="line2d_19">
     <path d="M 1187.373437 99.498437 
L 1207.373437 99.498437 
" style="fill:none;stroke:#1f77b4;stroke-linecap:square;stroke-width:1.5;"/>
    </g>
    <g id="line2d_20"/>
    <g id="text_20">
     <!-- numpy.float32 -->
     <defs>
      <path d="M 52 44.1875 
Q 55.375 50.25 60.0625 53.125 
Q 64.75 56 71.09375 56 
Q 79.640625 56 84.28125 50.015625 
Q 88.921875 44.046875 88.921875 33.015625 
L 88.921875 0 
L 79.890625 0 
L 79.890625 32.71875 
Q 79.890625 40.578125 77.09375 44.375 
Q 74.3125 48.1875 68.609375 48.1875 
Q 61.625 48.1875 57.5625 43.546875 
Q 53.515625 38.921875 53.515625 30.90625 
L 53.515625 0 
L 44.484375 0 
L 44.484375 32.71875 
Q 44.484375 40.625 41.703125 44.40625 
Q 38.921875 48.1875 33.109375 48.1875 
Q 26.21875 48.1875 22.15625 43.53125 
Q 18.109375 38.875 18.109375 30.90625 
L 18.109375 0 
L 9.078125 0 
L 9.078125 54.6875 
L 18.109375 54.6875 
L 18.109375 46.1875 
Q 21.1875 51.21875 25.484375 53.609375 
Q 29.78125 56 35.6875 56 
Q 41.65625 56 45.828125 52.96875 
Q 50 49.953125 52 44.1875 
z
" id="DejaVuSans-109"/>
      <path d="M 32.171875 -5.078125 
Q 28.375 -14.84375 24.75 -17.8125 
Q 21.140625 -20.796875 15.09375 -20.796875 
L 7.90625 -20.796875 
L 7.90625 -13.28125 
L 13.1875 -13.28125 
Q 16.890625 -13.28125 18.9375 -11.515625 
Q 21 -9.765625 23.484375 -3.21875 
L 25.09375 0.875 
L 2.984375 54.6875 
L 12.5 54.6875 
L 29.59375 11.921875 
L 46.6875 54.6875 
L 56.203125 54.6875 
z
" id="DejaVuSans-121"/>
      <path d="M 37.109375 75.984375 
L 37.109375 68.5 
L 28.515625 68.5 
Q 23.6875 68.5 21.796875 66.546875 
Q 19.921875 64.59375 19.921875 59.515625 
L 19.921875 54.6875 
L 34.71875 54.6875 
L 34.71875 47.703125 
L 19.921875 47.703125 
L 19.921875 0 
L 10.890625 0 
L 10.890625 47.703125 
L 2.296875 47.703125 
L 2.296875 54.6875 
L 10.890625 54.6875 
L 10.890625 58.5 
Q 10.890625 67.625 15.140625 71.796875 
Q 19.390625 75.984375 28.609375 75.984375 
z
" id="DejaVuSans-102"/>
      <path d="M 9.421875 75.984375 
L 18.40625 75.984375 
L 18.40625 0 
L 9.421875 0 
z
" id="DejaVuSans-108"/>
      <path d="M 30.609375 48.390625 
Q 23.390625 48.390625 19.1875 42.75 
Q 14.984375 37.109375 14.984375 27.296875 
Q 14.984375 17.484375 19.15625 11.84375 
Q 23.34375 6.203125 30.609375 6.203125 
Q 37.796875 6.203125 41.984375 11.859375 
Q 46.1875 17.53125 46.1875 27.296875 
Q 46.1875 37.015625 41.984375 42.703125 
Q 37.796875 48.390625 30.609375 48.390625 
z
M 30.609375 56 
Q 42.328125 56 49.015625 48.375 
Q 55.71875 40.765625 55.71875 27.296875 
Q 55.71875 13.875 49.015625 6.21875 
Q 42.328125 -1.421875 30.609375 -1.421875 
Q 18.84375 -1.421875 12.171875 6.21875 
Q 5.515625 13.875 5.515625 27.296875 
Q 5.515625 40.765625 12.171875 48.375 
Q 18.84375 56 30.609375 56 
z
" id="DejaVuSans-111"/>
      <path d="M 34.28125 27.484375 
Q 23.390625 27.484375 19.1875 25 
Q 14.984375 22.515625 14.984375 16.5 
Q 14.984375 11.71875 18.140625 8.90625 
Q 21.296875 6.109375 26.703125 6.109375 
Q 34.1875 6.109375 38.703125 11.40625 
Q 43.21875 16.703125 43.21875 25.484375 
L 43.21875 27.484375 
z
M 52.203125 31.203125 
L 52.203125 0 
L 43.21875 0 
L 43.21875 8.296875 
Q 40.140625 3.328125 35.546875 0.953125 
Q 30.953125 -1.421875 24.3125 -1.421875 
Q 15.921875 -1.421875 10.953125 3.296875 
Q 6 8.015625 6 15.921875 
Q 6 25.140625 12.171875 29.828125 
Q 18.359375 34.515625 30.609375 34.515625 
L 43.21875 34.515625 
L 43.21875 35.40625 
Q 43.21875 41.609375 39.140625 45 
Q 35.0625 48.390625 27.6875 48.390625 
Q 23 48.390625 18.546875 47.265625 
Q 14.109375 46.140625 10.015625 43.890625 
L 10.015625 52.203125 
Q 14.9375 54.109375 19.578125 55.046875 
Q 24.21875 56 28.609375 56 
Q 40.484375 56 46.34375 49.84375 
Q 52.203125 43.703125 52.203125 31.203125 
z
" id="DejaVuSans-97"/>
      <path d="M 18.3125 70.21875 
L 18.3125 54.6875 
L 36.8125 54.6875 
L 36.8125 47.703125 
L 18.3125 47.703125 
L 18.3125 18.015625 
Q 18.3125 11.328125 20.140625 9.421875 
Q 21.96875 7.515625 27.59375 7.515625 
L 36.8125 7.515625 
L 36.8125 0 
L 27.59375 0 
Q 17.1875 0 13.234375 3.875 
Q 9.28125 7.765625 9.28125 18.015625 
L 9.28125 47.703125 
L 2.6875 47.703125 
L 2.6875 54.6875 
L 9.28125 54.6875 
L 9.28125 70.21875 
z
" id="DejaVuSans-116"/>
     </defs>
     <g transform="translate(1215.373437 102.998437)scale(0.1 -0.1)">
      <use xlink:href="#DejaVuSans-110"/>
      <use x="63.378906" xlink:href="#DejaVuSans-117"/>
      <use x="126.757812" xlink:href="#DejaVuSans-109"/>
      <use x="224.169922" xlink:href="#DejaVuSans-112"/>
      <use x="287.646484" xlink:href="#DejaVuSans-121"/>
      <use x="332.576172" xlink:href="#DejaVuSans-46"/>
      <use x="364.363281" xlink:href="#DejaVuSans-102"/>
      <use x="399.568359" xlink:href="#DejaVuSans-108"/>
      <use x="427.351562" xlink:href="#DejaVuSans-111"/>
      <use x="488.533203" xlink:href="#DejaVuSans-97"/>
      <use x="549.8125" xlink:href="#DejaVuSans-116"/>
      <use x="589.021484" xlink:href="#DejaVuSans-51"/>
      <use x="652.644531" xlink:href="#DejaVuSans-50"/>
     </g>
    </g>
    <g id="line2d_21">
     <path d="M 1187.373437 114.176562 
L 1207.373437 114.176562 
" style="fill:none;stroke:#ff7f0e;stroke-linecap:square;stroke-width:1.5;"/>
    </g>
    <g id="line2d_22"/>
    <g id="text_21">
     <!-- numpy.float64 -->
     <g transform="translate(1215.373437 117.676562)scale(0.1 -0.1)">
      <use xlink:href="#DejaVuSans-110"/>
      <use x="63.378906" xlink:href="#DejaVuSans-117"/>
      <use x="126.757812" xlink:href="#DejaVuSans-109"/>
      <use x="224.169922" xlink:href="#DejaVuSans-112"/>
      <use x="287.646484" xlink:href="#DejaVuSans-121"/>
      <use x="332.576172" xlink:href="#DejaVuSans-46"/>
      <use x="364.363281" xlink:href="#DejaVuSans-102"/>
      <use x="399.568359" xlink:href="#DejaVuSans-108"/>
      <use x="427.351562" xlink:href="#DejaVuSans-111"/>
      <use x="488.533203" xlink:href="#DejaVuSans-97"/>
      <use x="549.8125" xlink:href="#DejaVuSans-116"/>
      <use x="589.021484" xlink:href="#DejaVuSans-54"/>
      <use x="652.644531" xlink:href="#DejaVuSans-52"/>
     </g>
    </g>
   </g>
  </g>
 </g>
 <defs>
  <clipPath id="p3a53dd3e0a">
   <rect height="554.4" width="1116" x="180" y="86.4"/>
  </clipPath>
 </defs>
</svg>
