<?xml version="1.0" encoding="utf-8" standalone="no"?>
<!DOCTYPE svg PUBLIC "-//W3C//DTD SVG 1.1//EN"
  "http://www.w3.org/Graphics/SVG/1.1/DTD/svg11.dtd">
<!-- Created with matplotlib (https://matplotlib.org/) -->
<svg height="720pt" version="1.1" viewBox="0 0 1440 720" width="1440pt" xmlns="http://www.w3.org/2000/svg" xmlns:xlink="http://www.w3.org/1999/xlink">
 <defs>
  <style type="text/css">
*{stroke-linecap:butt;stroke-linejoin:round;}
  </style>
 </defs>
 <g id="figure_1">
  <g id="patch_1">
   <path d="M 0 720 
L 1440 720 
L 1440 0 
L 0 0 
z
" style="fill:#ffffff;"/>
  </g>
  <g id="axes_1">
   <g id="patch_2">
    <path d="M 180 640.8 
L 1296 640.8 
L 1296 86.4 
L 180 86.4 
z
" style="fill:#ffffff;"/>
   </g>
   <g id="matplotlib.axis_1">
    <g id="xtick_1">
     <g id="line2d_1">
      <defs>
       <path d="M 0 0 
L 0 3.5 
" id="m4dcc5abde5" style="stroke:#000000;stroke-width:0.8;"/>
      </defs>
      <g>
       <use style="stroke:#000000;stroke-width:0.8;" x="333.310231" xlink:href="#m4dcc5abde5" y="640.8"/>
      </g>
     </g>
     <g id="text_1">
      <!-- 100.0 -->
      <defs>
       <path d="M 12.40625 8.296875 
L 28.515625 8.296875 
L 28.515625 63.921875 
L 10.984375 60.40625 
L 10.984375 69.390625 
L 28.421875 72.90625 
L 38.28125 72.90625 
L 38.28125 8.296875 
L 54.390625 8.296875 
L 54.390625 0 
L 12.40625 0 
z
" id="DejaVuSans-49"/>
       <path d="M 31.78125 66.40625 
Q 24.171875 66.40625 20.328125 58.90625 
Q 16.5 51.421875 16.5 36.375 
Q 16.5 21.390625 20.328125 13.890625 
Q 24.171875 6.390625 31.78125 6.390625 
Q 39.453125 6.390625 43.28125 13.890625 
Q 47.125 21.390625 47.125 36.375 
Q 47.125 51.421875 43.28125 58.90625 
Q 39.453125 66.40625 31.78125 66.40625 
z
M 31.78125 74.21875 
Q 44.046875 74.21875 50.515625 64.515625 
Q 56.984375 54.828125 56.984375 36.375 
Q 56.984375 17.96875 50.515625 8.265625 
Q 44.046875 -1.421875 31.78125 -1.421875 
Q 19.53125 -1.421875 13.0625 8.265625 
Q 6.59375 17.96875 6.59375 36.375 
Q 6.59375 54.828125 13.0625 64.515625 
Q 19.53125 74.21875 31.78125 74.21875 
z
" id="DejaVuSans-48"/>
       <path d="M 10.6875 12.40625 
L 21 12.40625 
L 21 0 
L 10.6875 0 
z
" id="DejaVuSans-46"/>
      </defs>
      <g transform="translate(318.996168 655.398438)scale(0.1 -0.1)">
       <use xlink:href="#DejaVuSans-49"/>
       <use x="63.623047" xlink:href="#DejaVuSans-48"/>
       <use x="127.246094" xlink:href="#DejaVuSans-48"/>
       <use x="190.869141" xlink:href="#DejaVuSans-46"/>
       <use x="222.65625" xlink:href="#DejaVuSans-48"/>
      </g>
     </g>
    </g>
    <g id="xtick_2">
     <g id="line2d_2">
      <g>
       <use style="stroke:#000000;stroke-width:0.8;" x="435.893189" xlink:href="#m4dcc5abde5" y="640.8"/>
      </g>
     </g>
     <g id="text_2">
      <!-- 200.0 -->
      <defs>
       <path d="M 19.1875 8.296875 
L 53.609375 8.296875 
L 53.609375 0 
L 7.328125 0 
L 7.328125 8.296875 
Q 12.9375 14.109375 22.625 23.890625 
Q 32.328125 33.6875 34.8125 36.53125 
Q 39.546875 41.84375 41.421875 45.53125 
Q 43.3125 49.21875 43.3125 52.78125 
Q 43.3125 58.59375 39.234375 62.25 
Q 35.15625 65.921875 28.609375 65.921875 
Q 23.96875 65.921875 18.8125 64.3125 
Q 13.671875 62.703125 7.8125 59.421875 
L 7.8125 69.390625 
Q 13.765625 71.78125 18.9375 73 
Q 24.125 74.21875 28.421875 74.21875 
Q 39.75 74.21875 46.484375 68.546875 
Q 53.21875 62.890625 53.21875 53.421875 
Q 53.21875 48.921875 51.53125 44.890625 
Q 49.859375 40.875 45.40625 35.40625 
Q 44.1875 33.984375 37.640625 27.21875 
Q 31.109375 20.453125 19.1875 8.296875 
z
" id="DejaVuSans-50"/>
      </defs>
      <g transform="translate(421.579126 655.398438)scale(0.1 -0.1)">
       <use xlink:href="#DejaVuSans-50"/>
       <use x="63.623047" xlink:href="#DejaVuSans-48"/>
       <use x="127.246094" xlink:href="#DejaVuSans-48"/>
       <use x="190.869141" xlink:href="#DejaVuSans-46"/>
       <use x="222.65625" xlink:href="#DejaVuSans-48"/>
      </g>
     </g>
    </g>
    <g id="xtick_3">
     <g id="line2d_3">
      <g>
       <use style="stroke:#000000;stroke-width:0.8;" x="538.476147" xlink:href="#m4dcc5abde5" y="640.8"/>
      </g>
     </g>
     <g id="text_3">
      <!-- 300.0 -->
      <defs>
       <path d="M 40.578125 39.3125 
Q 47.65625 37.796875 51.625 33 
Q 55.609375 28.21875 55.609375 21.1875 
Q 55.609375 10.40625 48.1875 4.484375 
Q 40.765625 -1.421875 27.09375 -1.421875 
Q 22.515625 -1.421875 17.65625 -0.515625 
Q 12.796875 0.390625 7.625 2.203125 
L 7.625 11.71875 
Q 11.71875 9.328125 16.59375 8.109375 
Q 21.484375 6.890625 26.8125 6.890625 
Q 36.078125 6.890625 40.9375 10.546875 
Q 45.796875 14.203125 45.796875 21.1875 
Q 45.796875 27.640625 41.28125 31.265625 
Q 36.765625 34.90625 28.71875 34.90625 
L 20.21875 34.90625 
L 20.21875 43.015625 
L 29.109375 43.015625 
Q 36.375 43.015625 40.234375 45.921875 
Q 44.09375 48.828125 44.09375 54.296875 
Q 44.09375 59.90625 40.109375 62.90625 
Q 36.140625 65.921875 28.71875 65.921875 
Q 24.65625 65.921875 20.015625 65.03125 
Q 15.375 64.15625 9.8125 62.3125 
L 9.8125 71.09375 
Q 15.4375 72.65625 20.34375 73.4375 
Q 25.25 74.21875 29.59375 74.21875 
Q 40.828125 74.21875 47.359375 69.109375 
Q 53.90625 64.015625 53.90625 55.328125 
Q 53.90625 49.265625 50.4375 45.09375 
Q 46.96875 40.921875 40.578125 39.3125 
z
" id="DejaVuSans-51"/>
      </defs>
      <g transform="translate(524.162084 655.398438)scale(0.1 -0.1)">
       <use xlink:href="#DejaVuSans-51"/>
       <use x="63.623047" xlink:href="#DejaVuSans-48"/>
       <use x="127.246094" xlink:href="#DejaVuSans-48"/>
       <use x="190.869141" xlink:href="#DejaVuSans-46"/>
       <use x="222.65625" xlink:href="#DejaVuSans-48"/>
      </g>
     </g>
    </g>
    <g id="xtick_4">
     <g id="line2d_4">
      <g>
       <use style="stroke:#000000;stroke-width:0.8;" x="641.059105" xlink:href="#m4dcc5abde5" y="640.8"/>
      </g>
     </g>
     <g id="text_4">
      <!-- 400.0 -->
      <defs>
       <path d="M 37.796875 64.3125 
L 12.890625 25.390625 
L 37.796875 25.390625 
z
M 35.203125 72.90625 
L 47.609375 72.90625 
L 47.609375 25.390625 
L 58.015625 25.390625 
L 58.015625 17.1875 
L 47.609375 17.1875 
L 47.609375 0 
L 37.796875 0 
L 37.796875 17.1875 
L 4.890625 17.1875 
L 4.890625 26.703125 
z
" id="DejaVuSans-52"/>
      </defs>
      <g transform="translate(626.745042 655.398438)scale(0.1 -0.1)">
       <use xlink:href="#DejaVuSans-52"/>
       <use x="63.623047" xlink:href="#DejaVuSans-48"/>
       <use x="127.246094" xlink:href="#DejaVuSans-48"/>
       <use x="190.869141" xlink:href="#DejaVuSans-46"/>
       <use x="222.65625" xlink:href="#DejaVuSans-48"/>
      </g>
     </g>
    </g>
    <g id="xtick_5">
     <g id="line2d_5">
      <g>
       <use style="stroke:#000000;stroke-width:0.8;" x="743.642063" xlink:href="#m4dcc5abde5" y="640.8"/>
      </g>
     </g>
     <g id="text_5">
      <!-- 500.0 -->
      <defs>
       <path d="M 10.796875 72.90625 
L 49.515625 72.90625 
L 49.515625 64.59375 
L 19.828125 64.59375 
L 19.828125 46.734375 
Q 21.96875 47.46875 24.109375 47.828125 
Q 26.265625 48.1875 28.421875 48.1875 
Q 40.625 48.1875 47.75 41.5 
Q 54.890625 34.8125 54.890625 23.390625 
Q 54.890625 11.625 47.5625 5.09375 
Q 40.234375 -1.421875 26.90625 -1.421875 
Q 22.3125 -1.421875 17.546875 -0.640625 
Q 12.796875 0.140625 7.71875 1.703125 
L 7.71875 11.625 
Q 12.109375 9.234375 16.796875 8.0625 
Q 21.484375 6.890625 26.703125 6.890625 
Q 35.15625 6.890625 40.078125 11.328125 
Q 45.015625 15.765625 45.015625 23.390625 
Q 45.015625 31 40.078125 35.4375 
Q 35.15625 39.890625 26.703125 39.890625 
Q 22.75 39.890625 18.8125 39.015625 
Q 14.890625 38.140625 10.796875 36.28125 
z
" id="DejaVuSans-53"/>
      </defs>
      <g transform="translate(729.328 655.398438)scale(0.1 -0.1)">
       <use xlink:href="#DejaVuSans-53"/>
       <use x="63.623047" xlink:href="#DejaVuSans-48"/>
       <use x="127.246094" xlink:href="#DejaVuSans-48"/>
       <use x="190.869141" xlink:href="#DejaVuSans-46"/>
       <use x="222.65625" xlink:href="#DejaVuSans-48"/>
      </g>
     </g>
    </g>
    <g id="xtick_6">
     <g id="line2d_6">
      <g>
       <use style="stroke:#000000;stroke-width:0.8;" x="846.225021" xlink:href="#m4dcc5abde5" y="640.8"/>
      </g>
     </g>
     <g id="text_6">
      <!-- 600.0 -->
      <defs>
       <path d="M 33.015625 40.375 
Q 26.375 40.375 22.484375 35.828125 
Q 18.609375 31.296875 18.609375 23.390625 
Q 18.609375 15.53125 22.484375 10.953125 
Q 26.375 6.390625 33.015625 6.390625 
Q 39.65625 6.390625 43.53125 10.953125 
Q 47.40625 15.53125 47.40625 23.390625 
Q 47.40625 31.296875 43.53125 35.828125 
Q 39.65625 40.375 33.015625 40.375 
z
M 52.59375 71.296875 
L 52.59375 62.3125 
Q 48.875 64.0625 45.09375 64.984375 
Q 41.3125 65.921875 37.59375 65.921875 
Q 27.828125 65.921875 22.671875 59.328125 
Q 17.53125 52.734375 16.796875 39.40625 
Q 19.671875 43.65625 24.015625 45.921875 
Q 28.375 48.1875 33.59375 48.1875 
Q 44.578125 48.1875 50.953125 41.515625 
Q 57.328125 34.859375 57.328125 23.390625 
Q 57.328125 12.15625 50.6875 5.359375 
Q 44.046875 -1.421875 33.015625 -1.421875 
Q 20.359375 -1.421875 13.671875 8.265625 
Q 6.984375 17.96875 6.984375 36.375 
Q 6.984375 53.65625 15.1875 63.9375 
Q 23.390625 74.21875 37.203125 74.21875 
Q 40.921875 74.21875 44.703125 73.484375 
Q 48.484375 72.75 52.59375 71.296875 
z
" id="DejaVuSans-54"/>
      </defs>
      <g transform="translate(831.910958 655.398438)scale(0.1 -0.1)">
       <use xlink:href="#DejaVuSans-54"/>
       <use x="63.623047" xlink:href="#DejaVuSans-48"/>
       <use x="127.246094" xlink:href="#DejaVuSans-48"/>
       <use x="190.869141" xlink:href="#DejaVuSans-46"/>
       <use x="222.65625" xlink:href="#DejaVuSans-48"/>
      </g>
     </g>
    </g>
    <g id="xtick_7">
     <g id="line2d_7">
      <g>
       <use style="stroke:#000000;stroke-width:0.8;" x="948.807979" xlink:href="#m4dcc5abde5" y="640.8"/>
      </g>
     </g>
     <g id="text_7">
      <!-- 700.0 -->
      <defs>
       <path d="M 8.203125 72.90625 
L 55.078125 72.90625 
L 55.078125 68.703125 
L 28.609375 0 
L 18.3125 0 
L 43.21875 64.59375 
L 8.203125 64.59375 
z
" id="DejaVuSans-55"/>
      </defs>
      <g transform="translate(934.493916 655.398438)scale(0.1 -0.1)">
       <use xlink:href="#DejaVuSans-55"/>
       <use x="63.623047" xlink:href="#DejaVuSans-48"/>
       <use x="127.246094" xlink:href="#DejaVuSans-48"/>
       <use x="190.869141" xlink:href="#DejaVuSans-46"/>
       <use x="222.65625" xlink:href="#DejaVuSans-48"/>
      </g>
     </g>
    </g>
    <g id="xtick_8">
     <g id="line2d_8">
      <g>
       <use style="stroke:#000000;stroke-width:0.8;" x="1051.390937" xlink:href="#m4dcc5abde5" y="640.8"/>
      </g>
     </g>
     <g id="text_8">
      <!-- 800.0 -->
      <defs>
       <path d="M 31.78125 34.625 
Q 24.75 34.625 20.71875 30.859375 
Q 16.703125 27.09375 16.703125 20.515625 
Q 16.703125 13.921875 20.71875 10.15625 
Q 24.75 6.390625 31.78125 6.390625 
Q 38.8125 6.390625 42.859375 10.171875 
Q 46.921875 13.96875 46.921875 20.515625 
Q 46.921875 27.09375 42.890625 30.859375 
Q 38.875 34.625 31.78125 34.625 
z
M 21.921875 38.8125 
Q 15.578125 40.375 12.03125 44.71875 
Q 8.5 49.078125 8.5 55.328125 
Q 8.5 64.0625 14.71875 69.140625 
Q 20.953125 74.21875 31.78125 74.21875 
Q 42.671875 74.21875 48.875 69.140625 
Q 55.078125 64.0625 55.078125 55.328125 
Q 55.078125 49.078125 51.53125 44.71875 
Q 48 40.375 41.703125 38.8125 
Q 48.828125 37.15625 52.796875 32.3125 
Q 56.78125 27.484375 56.78125 20.515625 
Q 56.78125 9.90625 50.3125 4.234375 
Q 43.84375 -1.421875 31.78125 -1.421875 
Q 19.734375 -1.421875 13.25 4.234375 
Q 6.78125 9.90625 6.78125 20.515625 
Q 6.78125 27.484375 10.78125 32.3125 
Q 14.796875 37.15625 21.921875 38.8125 
z
M 18.3125 54.390625 
Q 18.3125 48.734375 21.84375 45.5625 
Q 25.390625 42.390625 31.78125 42.390625 
Q 38.140625 42.390625 41.71875 45.5625 
Q 45.3125 48.734375 45.3125 54.390625 
Q 45.3125 60.0625 41.71875 63.234375 
Q 38.140625 66.40625 31.78125 66.40625 
Q 25.390625 66.40625 21.84375 63.234375 
Q 18.3125 60.0625 18.3125 54.390625 
z
" id="DejaVuSans-56"/>
      </defs>
      <g transform="translate(1037.076874 655.398438)scale(0.1 -0.1)">
       <use xlink:href="#DejaVuSans-56"/>
       <use x="63.623047" xlink:href="#DejaVuSans-48"/>
       <use x="127.246094" xlink:href="#DejaVuSans-48"/>
       <use x="190.869141" xlink:href="#DejaVuSans-46"/>
       <use x="222.65625" xlink:href="#DejaVuSans-48"/>
      </g>
     </g>
    </g>
    <g id="xtick_9">
     <g id="line2d_9">
      <g>
       <use style="stroke:#000000;stroke-width:0.8;" x="1153.973895" xlink:href="#m4dcc5abde5" y="640.8"/>
      </g>
     </g>
     <g id="text_9">
      <!-- 900.0 -->
      <defs>
       <path d="M 10.984375 1.515625 
L 10.984375 10.5 
Q 14.703125 8.734375 18.5 7.8125 
Q 22.3125 6.890625 25.984375 6.890625 
Q 35.75 6.890625 40.890625 13.453125 
Q 46.046875 20.015625 46.78125 33.40625 
Q 43.953125 29.203125 39.59375 26.953125 
Q 35.25 24.703125 29.984375 24.703125 
Q 19.046875 24.703125 12.671875 31.3125 
Q 6.296875 37.9375 6.296875 49.421875 
Q 6.296875 60.640625 12.9375 67.421875 
Q 19.578125 74.21875 30.609375 74.21875 
Q 43.265625 74.21875 49.921875 64.515625 
Q 56.59375 54.828125 56.59375 36.375 
Q 56.59375 19.140625 48.40625 8.859375 
Q 40.234375 -1.421875 26.421875 -1.421875 
Q 22.703125 -1.421875 18.890625 -0.6875 
Q 15.09375 0.046875 10.984375 1.515625 
z
M 30.609375 32.421875 
Q 37.25 32.421875 41.125 36.953125 
Q 45.015625 41.5 45.015625 49.421875 
Q 45.015625 57.28125 41.125 61.84375 
Q 37.25 66.40625 30.609375 66.40625 
Q 23.96875 66.40625 20.09375 61.84375 
Q 16.21875 57.28125 16.21875 49.421875 
Q 16.21875 41.5 20.09375 36.953125 
Q 23.96875 32.421875 30.609375 32.421875 
z
" id="DejaVuSans-57"/>
      </defs>
      <g transform="translate(1139.659832 655.398438)scale(0.1 -0.1)">
       <use xlink:href="#DejaVuSans-57"/>
       <use x="63.623047" xlink:href="#DejaVuSans-48"/>
       <use x="127.246094" xlink:href="#DejaVuSans-48"/>
       <use x="190.869141" xlink:href="#DejaVuSans-46"/>
       <use x="222.65625" xlink:href="#DejaVuSans-48"/>
      </g>
     </g>
    </g>
    <g id="xtick_10">
     <g id="line2d_10">
      <g>
       <use style="stroke:#000000;stroke-width:0.8;" x="1256.556853" xlink:href="#m4dcc5abde5" y="640.8"/>
      </g>
     </g>
     <g id="text_10">
      <!-- 1000.0 -->
      <g transform="translate(1239.06154 655.398438)scale(0.1 -0.1)">
       <use xlink:href="#DejaVuSans-49"/>
       <use x="63.623047" xlink:href="#DejaVuSans-48"/>
       <use x="127.246094" xlink:href="#DejaVuSans-48"/>
       <use x="190.869141" xlink:href="#DejaVuSans-48"/>
       <use x="254.492188" xlink:href="#DejaVuSans-46"/>
       <use x="286.279297" xlink:href="#DejaVuSans-48"/>
      </g>
     </g>
    </g>
    <g id="text_11">
     <!-- n -->
     <defs>
      <path d="M 54.890625 33.015625 
L 54.890625 0 
L 45.90625 0 
L 45.90625 32.71875 
Q 45.90625 40.484375 42.875 44.328125 
Q 39.84375 48.1875 33.796875 48.1875 
Q 26.515625 48.1875 22.3125 43.546875 
Q 18.109375 38.921875 18.109375 30.90625 
L 18.109375 0 
L 9.078125 0 
L 9.078125 54.6875 
L 18.109375 54.6875 
L 18.109375 46.1875 
Q 21.34375 51.125 25.703125 53.5625 
Q 30.078125 56 35.796875 56 
Q 45.21875 56 50.046875 50.171875 
Q 54.890625 44.34375 54.890625 33.015625 
z
" id="DejaVuSans-110"/>
     </defs>
     <g transform="translate(734.83125 669.076563)scale(0.1 -0.1)">
      <use xlink:href="#DejaVuSans-110"/>
     </g>
    </g>
   </g>
   <g id="matplotlib.axis_2">
    <g id="ytick_1">
     <g id="line2d_11">
      <defs>
       <path d="M 0 0 
L -3.5 0 
" id="mebac106cb5" style="stroke:#000000;stroke-width:0.8;"/>
      </defs>
      <g>
       <use style="stroke:#000000;stroke-width:0.8;" x="180" xlink:href="#mebac106cb5" y="582.242567"/>
      </g>
     </g>
     <g id="text_12">
      <!-- 2000 -->
      <g transform="translate(147.55 586.041786)scale(0.1 -0.1)">
       <use xlink:href="#DejaVuSans-50"/>
       <use x="63.623047" xlink:href="#DejaVuSans-48"/>
       <use x="127.246094" xlink:href="#DejaVuSans-48"/>
       <use x="190.869141" xlink:href="#DejaVuSans-48"/>
      </g>
     </g>
    </g>
    <g id="ytick_2">
     <g id="line2d_12">
      <g>
       <use style="stroke:#000000;stroke-width:0.8;" x="180" xlink:href="#mebac106cb5" y="469.348972"/>
      </g>
     </g>
     <g id="text_13">
      <!-- 4000 -->
      <g transform="translate(147.55 473.148191)scale(0.1 -0.1)">
       <use xlink:href="#DejaVuSans-52"/>
       <use x="63.623047" xlink:href="#DejaVuSans-48"/>
       <use x="127.246094" xlink:href="#DejaVuSans-48"/>
       <use x="190.869141" xlink:href="#DejaVuSans-48"/>
      </g>
     </g>
    </g>
    <g id="ytick_3">
     <g id="line2d_13">
      <g>
       <use style="stroke:#000000;stroke-width:0.8;" x="180" xlink:href="#mebac106cb5" y="356.455378"/>
      </g>
     </g>
     <g id="text_14">
      <!-- 6000 -->
      <g transform="translate(147.55 360.254596)scale(0.1 -0.1)">
       <use xlink:href="#DejaVuSans-54"/>
       <use x="63.623047" xlink:href="#DejaVuSans-48"/>
       <use x="127.246094" xlink:href="#DejaVuSans-48"/>
       <use x="190.869141" xlink:href="#DejaVuSans-48"/>
      </g>
     </g>
    </g>
    <g id="ytick_4">
     <g id="line2d_14">
      <g>
       <use style="stroke:#000000;stroke-width:0.8;" x="180" xlink:href="#mebac106cb5" y="243.561783"/>
      </g>
     </g>
     <g id="text_15">
      <!-- 8000 -->
      <g transform="translate(147.55 247.361002)scale(0.1 -0.1)">
       <use xlink:href="#DejaVuSans-56"/>
       <use x="63.623047" xlink:href="#DejaVuSans-48"/>
       <use x="127.246094" xlink:href="#DejaVuSans-48"/>
       <use x="190.869141" xlink:href="#DejaVuSans-48"/>
      </g>
     </g>
    </g>
    <g id="ytick_5">
     <g id="line2d_15">
      <g>
       <use style="stroke:#000000;stroke-width:0.8;" x="180" xlink:href="#mebac106cb5" y="130.668188"/>
      </g>
     </g>
     <g id="text_16">
      <!-- 10000 -->
      <g transform="translate(141.1875 134.467407)scale(0.1 -0.1)">
       <use xlink:href="#DejaVuSans-49"/>
       <use x="63.623047" xlink:href="#DejaVuSans-48"/>
       <use x="127.246094" xlink:href="#DejaVuSans-48"/>
       <use x="190.869141" xlink:href="#DejaVuSans-48"/>
       <use x="254.492188" xlink:href="#DejaVuSans-48"/>
      </g>
     </g>
    </g>
    <g id="text_17">
     <!-- speedup -->
     <defs>
      <path d="M 44.28125 53.078125 
L 44.28125 44.578125 
Q 40.484375 46.53125 36.375 47.5 
Q 32.28125 48.484375 27.875 48.484375 
Q 21.1875 48.484375 17.84375 46.4375 
Q 14.5 44.390625 14.5 40.28125 
Q 14.5 37.15625 16.890625 35.375 
Q 19.28125 33.59375 26.515625 31.984375 
L 29.59375 31.296875 
Q 39.15625 29.25 43.1875 25.515625 
Q 47.21875 21.78125 47.21875 15.09375 
Q 47.21875 7.46875 41.1875 3.015625 
Q 35.15625 -1.421875 24.609375 -1.421875 
Q 20.21875 -1.421875 15.453125 -0.5625 
Q 10.6875 0.296875 5.421875 2 
L 5.421875 11.28125 
Q 10.40625 8.6875 15.234375 7.390625 
Q 20.0625 6.109375 24.8125 6.109375 
Q 31.15625 6.109375 34.5625 8.28125 
Q 37.984375 10.453125 37.984375 14.40625 
Q 37.984375 18.0625 35.515625 20.015625 
Q 33.0625 21.96875 24.703125 23.78125 
L 21.578125 24.515625 
Q 13.234375 26.265625 9.515625 29.90625 
Q 5.8125 33.546875 5.8125 39.890625 
Q 5.8125 47.609375 11.28125 51.796875 
Q 16.75 56 26.8125 56 
Q 31.78125 56 36.171875 55.265625 
Q 40.578125 54.546875 44.28125 53.078125 
z
" id="DejaVuSans-115"/>
      <path d="M 18.109375 8.203125 
L 18.109375 -20.796875 
L 9.078125 -20.796875 
L 9.078125 54.6875 
L 18.109375 54.6875 
L 18.109375 46.390625 
Q 20.953125 51.265625 25.265625 53.625 
Q 29.59375 56 35.59375 56 
Q 45.5625 56 51.78125 48.09375 
Q 58.015625 40.1875 58.015625 27.296875 
Q 58.015625 14.40625 51.78125 6.484375 
Q 45.5625 -1.421875 35.59375 -1.421875 
Q 29.59375 -1.421875 25.265625 0.953125 
Q 20.953125 3.328125 18.109375 8.203125 
z
M 48.6875 27.296875 
Q 48.6875 37.203125 44.609375 42.84375 
Q 40.53125 48.484375 33.40625 48.484375 
Q 26.265625 48.484375 22.1875 42.84375 
Q 18.109375 37.203125 18.109375 27.296875 
Q 18.109375 17.390625 22.1875 11.75 
Q 26.265625 6.109375 33.40625 6.109375 
Q 40.53125 6.109375 44.609375 11.75 
Q 48.6875 17.390625 48.6875 27.296875 
z
" id="DejaVuSans-112"/>
      <path d="M 56.203125 29.59375 
L 56.203125 25.203125 
L 14.890625 25.203125 
Q 15.484375 15.921875 20.484375 11.0625 
Q 25.484375 6.203125 34.421875 6.203125 
Q 39.59375 6.203125 44.453125 7.46875 
Q 49.3125 8.734375 54.109375 11.28125 
L 54.109375 2.78125 
Q 49.265625 0.734375 44.1875 -0.34375 
Q 39.109375 -1.421875 33.890625 -1.421875 
Q 20.796875 -1.421875 13.15625 6.1875 
Q 5.515625 13.8125 5.515625 26.8125 
Q 5.515625 40.234375 12.765625 48.109375 
Q 20.015625 56 32.328125 56 
Q 43.359375 56 49.78125 48.890625 
Q 56.203125 41.796875 56.203125 29.59375 
z
M 47.21875 32.234375 
Q 47.125 39.59375 43.09375 43.984375 
Q 39.0625 48.390625 32.421875 48.390625 
Q 24.90625 48.390625 20.390625 44.140625 
Q 15.875 39.890625 15.1875 32.171875 
z
" id="DejaVuSans-101"/>
      <path d="M 45.40625 46.390625 
L 45.40625 75.984375 
L 54.390625 75.984375 
L 54.390625 0 
L 45.40625 0 
L 45.40625 8.203125 
Q 42.578125 3.328125 38.25 0.953125 
Q 33.9375 -1.421875 27.875 -1.421875 
Q 17.96875 -1.421875 11.734375 6.484375 
Q 5.515625 14.40625 5.515625 27.296875 
Q 5.515625 40.1875 11.734375 48.09375 
Q 17.96875 56 27.875 56 
Q 33.9375 56 38.25 53.625 
Q 42.578125 51.265625 45.40625 46.390625 
z
M 14.796875 27.296875 
Q 14.796875 17.390625 18.875 11.75 
Q 22.953125 6.109375 30.078125 6.109375 
Q 37.203125 6.109375 41.296875 11.75 
Q 45.40625 17.390625 45.40625 27.296875 
Q 45.40625 37.203125 41.296875 42.84375 
Q 37.203125 48.484375 30.078125 48.484375 
Q 22.953125 48.484375 18.875 42.84375 
Q 14.796875 37.203125 14.796875 27.296875 
z
" id="DejaVuSans-100"/>
      <path d="M 8.5 21.578125 
L 8.5 54.6875 
L 17.484375 54.6875 
L 17.484375 21.921875 
Q 17.484375 14.15625 20.5 10.265625 
Q 23.53125 6.390625 29.59375 6.390625 
Q 36.859375 6.390625 41.078125 11.03125 
Q 45.3125 15.671875 45.3125 23.6875 
L 45.3125 54.6875 
L 54.296875 54.6875 
L 54.296875 0 
L 45.3125 0 
L 45.3125 8.40625 
Q 42.046875 3.421875 37.71875 1 
Q 33.40625 -1.421875 27.6875 -1.421875 
Q 18.265625 -1.421875 13.375 4.4375 
Q 8.5 10.296875 8.5 21.578125 
z
M 31.109375 56 
z
" id="DejaVuSans-117"/>
     </defs>
     <g transform="translate(135.107812 385.049219)rotate(-90)scale(0.1 -0.1)">
      <use xlink:href="#DejaVuSans-115"/>
      <use x="52.099609" xlink:href="#DejaVuSans-112"/>
      <use x="115.576172" xlink:href="#DejaVuSans-101"/>
      <use x="177.099609" xlink:href="#DejaVuSans-101"/>
      <use x="238.623047" xlink:href="#DejaVuSans-100"/>
      <use x="302.099609" xlink:href="#DejaVuSans-117"/>
      <use x="365.478516" xlink:href="#DejaVuSans-112"/>
     </g>
    </g>
   </g>
   <g id="line2d_16">
    <path clip-path="url(#p24063e1343)" d="M 230.727273 600.481868 
L 231.753102 565.313733 
L 232.778932 550.034034 
L 233.804761 561.379317 
L 234.830591 552.833079 
L 235.856421 554.4981 
L 236.88225 554.462725 
L 237.90808 535.390411 
L 238.933909 533.362323 
L 239.959739 528.497209 
L 240.985569 505.901716 
L 242.011398 520.480364 
L 243.037228 520.871791 
L 244.063057 519.812023 
L 245.088887 493.369279 
L 246.114716 496.896049 
L 247.140546 501.710793 
L 248.166376 491.532414 
L 249.192205 467.973447 
L 250.218035 459.555945 
L 251.243864 479.935974 
L 252.269694 478.24662 
L 253.295523 480.168722 
L 254.321353 464.728547 
L 255.347183 470.41285 
L 256.373012 420.261969 
L 257.398842 434.365718 
L 258.424671 464.107057 
L 259.450501 445.751343 
L 260.476331 445.271552 
L 261.50216 450.296265 
L 262.52799 445.462832 
L 263.553819 412.399568 
L 264.579649 454.368681 
L 265.605478 516.645029 
L 266.631308 423.721873 
L 267.657138 416.232556 
L 268.682967 430.113123 
L 269.708797 414.60798 
L 270.734626 443.45953 
L 271.760456 385.406897 
L 272.786286 425.760604 
L 273.812115 394.010529 
L 274.837945 401.531598 
L 275.863774 447.123432 
L 276.889604 379.855383 
L 277.915433 387.450683 
L 278.941263 357.171744 
L 279.967093 378.948576 
L 280.992922 418.895254 
L 282.018752 362.955755 
L 283.044581 399.001555 
L 284.070411 389.088067 
L 285.09624 393.192142 
L 286.12207 352.335507 
L 287.1479 398.476116 
L 288.173729 357.935583 
L 289.199559 392.071709 
L 291.251218 368.264361 
L 292.277048 482.879267 
L 293.302877 398.307237 
L 294.328707 426.116758 
L 295.354536 361.866649 
L 296.380366 368.870126 
L 298.432025 331.141717 
L 299.457855 343.973308 
L 300.483684 379.711708 
L 301.509514 375.376257 
L 302.535343 365.647028 
L 303.561173 348.177995 
L 304.587002 361.937718 
L 305.612832 394.645114 
L 306.638662 329.546935 
L 307.664491 332.539318 
L 308.690321 328.319703 
L 309.71615 366.116019 
L 310.74198 357.926109 
L 311.76781 331.255858 
L 312.793639 334.277898 
L 313.819469 379.270726 
L 315.871128 297.010019 
L 316.896957 366.300703 
L 317.922787 340.468418 
L 318.948617 415.450515 
L 319.974446 338.54315 
L 321.000276 350.317628 
L 322.026105 316.608613 
L 323.051935 316.206249 
L 324.077765 334.757434 
L 325.103594 284.416516 
L 326.129424 378.289513 
L 327.155253 335.625378 
L 328.181083 309.292402 
L 329.206912 298.734346 
L 330.232742 331.554417 
L 331.258572 332.358574 
L 332.284401 284.416779 
L 333.310231 311.124926 
L 334.33606 301.785859 
L 336.387719 322.643656 
L 337.413549 302.724774 
L 338.439379 303.183475 
L 339.465208 301.945833 
L 340.491038 372.098761 
L 341.516867 399.643219 
L 342.542697 288.237246 
L 343.568527 287.79629 
L 344.594356 279.952381 
L 345.620186 261.265999 
L 346.646015 273.858033 
L 347.671845 305.950716 
L 348.697674 295.724677 
L 349.723504 272.666698 
L 350.749334 291.142038 
L 351.775163 267.27723 
L 352.800993 269.407675 
L 353.826822 296.296756 
L 354.852652 281.535229 
L 355.878481 285.247578 
L 356.904311 285.144014 
L 357.930141 280.181437 
L 358.95597 319.2905 
L 359.9818 292.205836 
L 361.007629 280.181094 
L 362.033459 269.602862 
L 363.059289 271.710402 
L 364.085118 289.864131 
L 365.110948 291.962959 
L 366.136777 320.171055 
L 367.162607 270.431222 
L 368.188436 290.555607 
L 369.214266 279.65041 
L 370.240096 262.647828 
L 371.265925 251.671564 
L 372.291755 285.676045 
L 373.317584 291.864808 
L 374.343414 259.009842 
L 375.369243 275.921077 
L 376.395073 269.208018 
L 377.420903 273.449945 
L 378.446732 270.482326 
L 379.472562 264.510325 
L 380.498391 272.241581 
L 381.524221 255.810489 
L 382.550051 299.633768 
L 383.57588 248.870142 
L 384.60171 264.79847 
L 385.627539 253.940185 
L 386.653369 252.016315 
L 387.679198 275.830681 
L 388.705028 234.323097 
L 389.730858 247.694659 
L 390.756687 266.95547 
L 391.782517 251.338037 
L 392.808346 238.090071 
L 393.834176 339.339035 
L 394.860006 277.853718 
L 395.885835 247.336486 
L 396.911665 308.887776 
L 397.937494 278.799311 
L 398.963324 273.653354 
L 399.989153 247.803172 
L 401.014983 255.446629 
L 402.040813 261.02299 
L 403.066642 255.50659 
L 404.092472 287.574562 
L 405.118301 226.441149 
L 406.144131 234.782798 
L 407.16996 252.641794 
L 408.19579 228.641977 
L 409.22162 255.994438 
L 410.247449 269.82935 
L 411.273279 235.916549 
L 412.299108 253.723876 
L 413.324938 265.564123 
L 414.350768 243.011303 
L 415.376597 260.772889 
L 416.402427 257.944352 
L 417.428256 243.043184 
L 418.454086 239.917495 
L 419.479915 277.270073 
L 420.505745 282.847042 
L 421.531575 260.991624 
L 422.557404 266.278263 
L 423.583234 239.871231 
L 424.609063 275.830557 
L 425.634893 253.54825 
L 426.660722 263.239148 
L 427.686552 244.191096 
L 428.712382 245.378127 
L 429.738211 217.411515 
L 430.764041 378.578588 
L 431.78987 238.599225 
L 432.8157 237.91491 
L 433.84153 225.812216 
L 434.867359 248.889526 
L 435.893189 244.263422 
L 436.919018 262.377927 
L 437.944848 246.663926 
L 438.970677 240.304283 
L 439.996507 224.353976 
L 441.022337 231.254849 
L 442.048166 255.618514 
L 443.073996 252.875463 
L 444.099825 244.882876 
L 445.125655 226.592858 
L 446.151485 223.954373 
L 447.177314 248.316971 
L 448.203144 245.846124 
L 449.228973 255.517415 
L 450.254803 274.8998 
L 451.280632 241.95712 
L 452.306462 225.609372 
L 453.332292 236.688418 
L 454.358121 211.46426 
L 455.383951 209.365126 
L 456.40978 358.55826 
L 457.43561 229.866607 
L 458.461439 221.072003 
L 459.487269 205.958766 
L 460.513099 235.529109 
L 461.538928 209.573218 
L 462.564758 230.507049 
L 463.590587 310.024754 
L 464.616417 232.082852 
L 465.642247 251.89317 
L 466.668076 218.342635 
L 467.693906 220.483682 
L 468.719735 221.865689 
L 469.745565 220.502264 
L 470.771394 231.515174 
L 471.797224 217.440172 
L 472.823054 218.403071 
L 473.848883 219.824877 
L 474.874713 235.251373 
L 475.900542 203.340931 
L 476.926372 229.250739 
L 477.952201 220.666301 
L 478.978031 213.921971 
L 480.003861 202.602655 
L 481.02969 205.329288 
L 482.05552 297.71463 
L 483.081349 221.842758 
L 484.107179 221.136436 
L 485.133009 303.34086 
L 486.158838 235.955978 
L 487.184668 220.949833 
L 488.210497 213.352496 
L 489.236327 223.99163 
L 490.262156 226.404381 
L 491.287986 215.07157 
L 492.313816 230.340311 
L 493.339645 196.204523 
L 494.365475 240.792946 
L 495.391304 222.667753 
L 496.417134 211.465386 
L 497.442964 234.566455 
L 498.468793 231.28919 
L 499.494623 293.041853 
L 500.520452 218.682901 
L 501.546282 212.380646 
L 502.572111 236.541293 
L 503.597941 217.889241 
L 504.623771 219.974378 
L 505.6496 227.049464 
L 506.67543 282.821442 
L 507.701259 226.002147 
L 508.727089 212.426467 
L 509.752918 210.622434 
L 510.778748 216.9949 
L 511.804578 207.239599 
L 512.830407 213.738535 
L 513.856237 221.226845 
L 514.882066 221.171803 
L 515.907896 200.848753 
L 516.933726 201.399682 
L 517.959555 220.111801 
L 518.985385 213.354771 
L 520.011214 232.62467 
L 521.037044 211.137742 
L 522.062873 216.487322 
L 523.088703 196.347735 
L 524.114533 194.924874 
L 525.140362 200.403884 
L 526.166192 215.657941 
L 527.192021 214.4526 
L 528.217851 209.601382 
L 529.24368 216.296813 
L 530.26951 214.431435 
L 531.29534 227.467308 
L 532.321169 214.176244 
L 533.346999 212.716534 
L 534.372828 210.361504 
L 535.398658 210.639102 
L 536.424488 203.781444 
L 537.450317 346.137884 
L 538.476147 227.89054 
L 539.501976 205.384969 
L 540.527806 281.409958 
L 541.553635 209.116326 
L 542.579465 205.15056 
L 543.605295 216.504897 
L 544.631124 213.772132 
L 545.656954 215.539237 
L 546.682783 209.050213 
L 547.708613 210.247773 
L 548.734443 182.077524 
L 549.760272 201.55657 
L 550.786102 197.365247 
L 551.811931 203.410912 
L 552.837761 221.510687 
L 553.86359 206.907702 
L 554.88942 214.235228 
L 555.91525 219.880231 
L 556.941079 203.114996 
L 557.966909 211.984152 
L 558.992738 270.632901 
L 560.018568 223.058135 
L 561.044397 212.530448 
L 562.070227 217.125444 
L 563.096057 210.834184 
L 564.121886 221.097122 
L 565.147716 257.499476 
L 566.173545 215.953195 
L 567.199375 203.910565 
L 568.225205 221.634311 
L 569.251034 216.821248 
L 570.276864 218.909318 
L 571.302693 217.901742 
L 572.328523 218.316177 
L 573.354352 228.01767 
L 574.380182 225.32719 
L 575.406012 217.82776 
L 576.431841 240.97878 
L 577.457671 315.817491 
L 578.4835 226.332715 
L 579.50933 224.779038 
L 580.535159 213.300303 
L 581.560989 214.52315 
L 582.586819 224.452864 
L 583.612648 214.722232 
L 584.638478 249.356801 
L 585.664307 230.586312 
L 586.690137 229.490591 
L 587.715967 230.390558 
L 588.741796 217.018856 
L 589.767626 209.128352 
L 590.793455 196.664306 
L 591.819285 211.603633 
L 592.845114 243.989855 
L 593.870944 208.37668 
L 594.896774 210.363913 
L 595.922603 208.99294 
L 596.948433 206.348212 
L 597.974262 230.792562 
L 599.000092 214.199882 
L 600.025922 216.283189 
L 601.051751 229.499224 
L 602.077581 217.143429 
L 603.10341 210.66913 
L 604.12924 216.820741 
L 605.155069 219.586623 
L 606.180899 232.422605 
L 607.206729 235.724822 
L 608.232558 204.824606 
L 610.284217 232.556917 
L 611.310047 210.98667 
L 612.335876 220.206872 
L 613.361706 225.463655 
L 614.387536 249.954644 
L 615.413365 214.745679 
L 616.439195 219.91083 
L 617.465024 237.956621 
L 618.490854 245.585714 
L 619.516684 224.496876 
L 620.542513 242.755118 
L 621.568343 249.157739 
L 622.594172 224.024751 
L 623.620002 228.424384 
L 624.645831 262.734111 
L 625.671661 233.300481 
L 626.697491 246.23273 
L 627.72332 218.10219 
L 628.74915 230.125764 
L 629.774979 254.104467 
L 630.800809 291.564329 
L 631.826638 253.314696 
L 632.852468 221.008774 
L 633.878298 232.309958 
L 634.904127 236.387512 
L 635.929957 220.61878 
L 636.955786 227.399254 
L 637.981616 222.116337 
L 639.007446 256.57594 
L 641.059105 229.710569 
L 642.084934 237.542485 
L 643.110764 214.239606 
L 644.136593 203.03628 
L 645.162423 213.151772 
L 646.188253 200.318975 
L 647.214082 205.38059 
L 648.239912 205.862842 
L 649.265741 224.750157 
L 651.3174 209.777292 
L 652.34323 207.661164 
L 653.36906 275.19899 
L 654.394889 222.860448 
L 655.420719 219.590538 
L 656.446548 217.933042 
L 657.472378 226.733367 
L 658.498208 214.433545 
L 659.524037 264.49515 
L 660.549867 199.163358 
L 661.575696 218.574437 
L 662.601526 210.835229 
L 663.627355 217.241795 
L 664.653185 225.546079 
L 665.679015 214.69749 
L 666.704844 221.548688 
L 667.730674 230.143104 
L 668.756503 209.974503 
L 669.782333 220.059826 
L 670.808163 223.761643 
L 671.833992 219.897124 
L 672.859822 233.444601 
L 673.885651 222.136709 
L 674.911481 241.489512 
L 675.93731 238.118673 
L 676.96314 208.453861 
L 677.98897 231.269332 
L 679.014799 232.400328 
L 680.040629 232.54947 
L 681.066458 232.094075 
L 682.092288 209.258592 
L 683.118117 214.978521 
L 685.169777 207.726521 
L 686.195606 200.615186 
L 687.221436 208.790157 
L 688.247265 208.375801 
L 689.273095 210.679688 
L 691.324754 223.229374 
L 692.350584 234.354521 
L 693.376413 217.35055 
L 694.402243 214.228293 
L 695.428072 220.961318 
L 696.453902 222.914451 
L 697.479732 213.61248 
L 698.505561 210.636609 
L 699.531391 200.38816 
L 700.55722 202.750676 
L 701.58305 213.808675 
L 702.608879 201.970242 
L 703.634709 215.56275 
L 704.660539 258.549315 
L 705.686368 202.179188 
L 706.712198 205.344746 
L 707.738027 218.470895 
L 708.763857 198.845778 
L 709.789687 220.10651 
L 710.815516 207.2112 
L 711.841346 204.796873 
L 712.867175 206.894232 
L 713.893005 255.790188 
L 714.918834 198.75937 
L 715.944664 208.515576 
L 717.996323 214.229991 
L 719.022153 215.665078 
L 720.047982 220.238905 
L 721.073812 217.693895 
L 722.099642 211.595345 
L 723.125471 211.28766 
L 724.151301 202.125183 
L 725.17713 207.423583 
L 726.20296 204.083853 
L 727.228789 206.59517 
L 728.254619 210.965831 
L 729.280449 207.530562 
L 730.306278 227.675758 
L 731.332108 212.464139 
L 732.357937 216.938784 
L 733.383767 214.370095 
L 734.409596 216.165177 
L 735.435426 207.849709 
L 736.461256 217.18714 
L 738.512915 203.764878 
L 739.538744 203.57541 
L 740.564574 211.650691 
L 741.590404 209.500526 
L 742.616233 232.962452 
L 743.642063 201.454994 
L 744.667892 214.557074 
L 745.693722 247.268677 
L 746.719551 218.440798 
L 747.745381 207.224293 
L 748.771211 213.811153 
L 749.79704 204.590777 
L 750.82287 204.814152 
L 751.848699 191.002971 
L 752.874529 198.455157 
L 753.900358 198.065104 
L 754.926188 295.761083 
L 755.952018 194.964685 
L 756.977847 209.147371 
L 758.003677 217.8996 
L 759.029506 215.311723 
L 760.055336 203.181774 
L 761.081166 204.042419 
L 762.106995 203.474587 
L 763.132825 200.2843 
L 764.158654 202.264635 
L 765.184484 205.526317 
L 766.210313 194.48964 
L 767.236143 202.691306 
L 768.261973 199.80234 
L 769.287802 208.427116 
L 770.313632 203.975599 
L 771.339461 208.053021 
L 772.365291 195.860904 
L 773.391121 202.778104 
L 774.41695 258.066477 
L 775.44278 199.970863 
L 776.468609 193.441709 
L 777.494439 199.562064 
L 778.520268 195.463627 
L 779.546098 196.64011 
L 780.571928 197.269435 
L 781.597757 244.531905 
L 782.623587 193.891985 
L 783.649416 200.256816 
L 784.675246 193.707788 
L 785.701075 288.843665 
L 786.726905 188.114122 
L 787.752735 185.029517 
L 788.778564 195.471382 
L 789.804394 200.501941 
L 790.830223 198.611575 
L 791.856053 185.843049 
L 792.881883 185.53157 
L 793.907712 191.787469 
L 794.933542 189.851902 
L 795.959371 201.330826 
L 796.985201 196.015243 
L 798.01103 195.50694 
L 799.03686 183.899695 
L 800.06269 169.879679 
L 801.088519 178.773283 
L 803.140178 191.709445 
L 804.166008 187.611541 
L 805.191837 192.401498 
L 806.217667 193.769668 
L 807.243497 190.198206 
L 808.269326 263.233081 
L 809.295156 195.753211 
L 810.320985 193.406211 
L 811.346815 196.90744 
L 812.372645 189.667952 
L 813.398474 190.45619 
L 814.424304 190.832532 
L 815.450133 232.48421 
L 816.475963 190.290413 
L 817.501792 193.830201 
L 818.527622 187.399565 
L 819.553452 195.158325 
L 820.579281 194.844049 
L 821.605111 192.332415 
L 823.65677 203.985478 
L 824.6826 198.101936 
L 825.708429 198.904263 
L 826.734259 202.239796 
L 827.760088 190.413827 
L 828.785918 181.330915 
L 829.811747 186.896677 
L 830.837577 182.009433 
L 831.863407 193.133893 
L 832.889236 189.823671 
L 833.915066 197.270314 
L 834.940895 192.899367 
L 835.966725 198.902588 
L 836.992554 166.6706 
L 838.018384 163.080571 
L 840.070043 227.674307 
L 841.095873 189.061159 
L 842.121702 189.948138 
L 843.147532 191.924102 
L 844.173362 189.453214 
L 845.199191 174.986909 
L 846.225021 190.756298 
L 847.25085 191.67394 
L 848.27668 187.11945 
L 849.302509 185.826448 
L 850.328339 185.948736 
L 851.354169 205.171373 
L 852.379998 187.145658 
L 853.405828 187.554773 
L 854.431657 191.704515 
L 855.457487 193.101966 
L 856.483316 196.787615 
L 857.509146 194.245019 
L 858.534976 187.086842 
L 859.560805 195.747773 
L 860.586635 193.01777 
L 861.612464 202.994699 
L 862.638294 197.632964 
L 863.664124 199.729329 
L 864.689953 195.95343 
L 865.715783 203.822136 
L 866.741612 198.745697 
L 867.767442 212.792449 
L 868.793271 204.839637 
L 869.819101 217.453351 
L 870.844931 200.201175 
L 871.87076 205.667759 
L 872.89659 198.910003 
L 873.922419 212.819606 
L 874.948249 200.360782 
L 875.974078 301.53529 
L 876.999908 209.503307 
L 878.025738 209.053479 
L 879.051567 199.760085 
L 880.077397 201.206494 
L 881.103226 199.768829 
L 882.129056 211.755686 
L 883.154886 204.066074 
L 884.180715 211.114748 
L 885.206545 217.32152 
L 886.232374 213.660746 
L 887.258204 215.640045 
L 888.284033 222.325152 
L 890.335693 206.534851 
L 891.361522 213.82255 
L 892.387352 197.010352 
L 893.413181 217.380517 
L 894.439011 216.761957 
L 895.464841 217.089683 
L 896.49067 213.117891 
L 897.5165 213.723583 
L 898.542329 220.414582 
L 899.568159 211.20309 
L 900.593988 217.171074 
L 901.619818 215.120251 
L 902.645648 211.982508 
L 903.671477 205.149188 
L 904.697307 220.498815 
L 905.723136 216.015233 
L 906.748966 212.704223 
L 907.774795 226.296555 
L 908.800625 201.606289 
L 909.826455 183.535636 
L 910.852284 202.855263 
L 911.878114 211.105036 
L 912.903943 212.694896 
L 913.929773 201.270424 
L 914.955603 199.677274 
L 915.981432 203.914112 
L 917.007262 202.761824 
L 918.033091 214.596948 
L 919.058921 272.913834 
L 920.08475 208.347389 
L 921.11058 203.492978 
L 922.13641 304.291264 
L 923.162239 196.028042 
L 924.188069 197.946833 
L 925.213898 201.175925 
L 926.239728 198.317125 
L 927.265557 202.627705 
L 928.291387 197.00861 
L 929.317217 205.582659 
L 930.343046 195.4781 
L 931.368876 216.901544 
L 932.394705 223.949258 
L 933.420535 222.723 
L 934.446365 212.493464 
L 935.472194 263.582603 
L 936.498024 216.340268 
L 937.523853 199.216938 
L 938.549683 226.389447 
L 939.575512 229.500504 
L 940.601342 210.059044 
L 941.627172 221.249703 
L 942.653001 211.030994 
L 943.678831 207.464793 
L 944.70466 263.416195 
L 945.73049 219.957369 
L 946.75632 206.421737 
L 947.782149 225.262844 
L 948.807979 220.481236 
L 949.833808 218.609567 
L 950.859638 221.278635 
L 951.885467 228.59403 
L 952.911297 263.456969 
L 953.937127 234.337596 
L 954.962956 243.628046 
L 955.988786 272.471625 
L 957.014615 199.613328 
L 958.040445 216.390013 
L 959.066274 199.671093 
L 960.092104 236.20088 
L 961.117934 209.872582 
L 962.143763 206.582093 
L 963.169593 203.886438 
L 964.195422 200.076698 
L 965.221252 203.807851 
L 966.247082 195.954534 
L 967.272911 213.866207 
L 968.298741 251.703269 
L 969.32457 199.884479 
L 970.3504 211.708196 
L 971.376229 238.865495 
L 972.402059 210.227217 
L 973.427889 205.316893 
L 974.453718 254.027683 
L 975.479548 209.773802 
L 976.505377 255.508657 
L 977.531207 205.260442 
L 978.557036 209.47615 
L 979.582866 207.267639 
L 980.608696 223.676973 
L 981.634525 223.246329 
L 982.660355 203.423177 
L 983.686184 208.60914 
L 984.712014 221.67129 
L 985.737844 210.882312 
L 986.763673 216.973981 
L 987.789503 210.242418 
L 988.815332 226.97526 
L 989.841162 198.487203 
L 990.866991 217.189678 
L 991.892821 239.68474 
L 992.918651 251.51555 
L 993.94448 219.196471 
L 994.97031 218.728838 
L 995.996139 231.497032 
L 997.021969 285.309325 
L 998.047799 209.129922 
L 999.073628 233.732874 
L 1000.099458 240.686366 
L 1001.125287 216.633916 
L 1002.151117 230.610711 
L 1003.176946 225.922802 
L 1004.202776 216.217832 
L 1005.228606 225.222977 
L 1006.254435 218.723567 
L 1007.280265 242.969801 
L 1008.306094 235.751617 
L 1009.331924 226.598165 
L 1010.357753 239.483861 
L 1011.383583 242.21404 
L 1012.409413 236.241178 
L 1013.435242 222.413562 
L 1014.461072 239.820195 
L 1015.486901 243.442664 
L 1016.512731 218.665515 
L 1017.538561 227.100601 
L 1018.56439 219.703466 
L 1019.59022 229.819457 
L 1020.616049 219.167837 
L 1021.641879 276.497429 
L 1022.667708 229.851551 
L 1023.693538 226.688664 
L 1024.719368 229.745537 
L 1025.745197 214.741302 
L 1026.771027 257.847313 
L 1027.796856 240.417884 
L 1028.822686 231.680883 
L 1029.848515 221.281211 
L 1030.874345 212.899105 
L 1031.900175 242.136772 
L 1032.926004 250.784263 
L 1033.951834 239.482579 
L 1034.977663 236.704273 
L 1036.003493 239.773376 
L 1037.029323 237.028984 
L 1038.055152 238.152747 
L 1039.080982 191.978531 
L 1040.106811 220.324891 
L 1041.132641 218.745774 
L 1042.15847 197.45851 
L 1043.1843 205.154282 
L 1044.21013 215.872636 
L 1045.235959 213.632795 
L 1046.261789 218.203102 
L 1047.287618 199.008399 
L 1048.313448 217.815406 
L 1049.339278 219.029741 
L 1050.365107 216.878169 
L 1051.390937 222.941684 
L 1052.416766 208.539035 
L 1053.442596 226.646184 
L 1054.468425 224.0788 
L 1055.494255 215.114852 
L 1056.520085 213.301269 
L 1057.545914 212.526912 
L 1059.597573 220.222375 
L 1060.623403 222.724581 
L 1061.649232 227.950151 
L 1062.675062 232.085374 
L 1063.700892 232.193951 
L 1064.726721 208.467146 
L 1065.752551 212.944923 
L 1066.77838 213.786524 
L 1067.80421 215.840992 
L 1068.83004 197.634556 
L 1069.855869 199.920541 
L 1070.881699 207.38618 
L 1071.907528 211.264605 
L 1072.933358 231.026404 
L 1073.959187 199.697787 
L 1074.985017 222.439085 
L 1076.010847 220.155466 
L 1078.062506 213.620894 
L 1079.088335 221.614166 
L 1080.114165 220.097403 
L 1081.139994 220.281222 
L 1082.165824 252.963676 
L 1083.191654 226.406067 
L 1085.243313 212.439989 
L 1086.269142 202.927326 
L 1087.294972 230.94791 
L 1088.320802 226.055979 
L 1089.346631 232.032875 
L 1090.372461 241.328106 
L 1091.39829 233.60192 
L 1092.42412 236.016269 
L 1093.449949 221.013846 
L 1094.475779 230.429964 
L 1095.501609 256.355687 
L 1096.527438 228.004496 
L 1097.553268 216.873883 
L 1098.579097 235.931467 
L 1099.604927 237.17073 
L 1100.630757 232.298337 
L 1101.656586 218.359658 
L 1102.682416 250.381743 
L 1103.708245 236.277985 
L 1104.734075 237.471638 
L 1105.759904 232.115471 
L 1106.785734 217.133289 
L 1107.811564 233.57855 
L 1108.837393 259.480741 
L 1109.863223 229.196356 
L 1110.889052 239.094086 
L 1111.914882 239.482797 
L 1112.940711 223.289545 
L 1113.966541 226.041052 
L 1114.992371 240.767006 
L 1116.0182 245.182295 
L 1117.04403 242.345059 
L 1118.069859 243.089686 
L 1119.095689 242.592085 
L 1120.121519 240.650804 
L 1121.147348 242.091385 
L 1122.173178 229.02546 
L 1123.199007 231.723641 
L 1124.224837 216.695406 
L 1125.250666 234.07745 
L 1126.276496 227.730063 
L 1127.302326 214.453305 
L 1128.328155 232.90408 
L 1129.353985 234.891544 
L 1130.379814 227.488965 
L 1131.405644 227.938434 
L 1132.431473 235.956858 
L 1133.457303 225.595163 
L 1134.483133 220.122277 
L 1135.508962 237.633413 
L 1136.534792 239.921966 
L 1138.586451 231.285355 
L 1139.612281 248.974278 
L 1140.63811 208.994771 
L 1141.66394 251.688367 
L 1142.689769 239.772783 
L 1143.715599 216.132584 
L 1144.741428 217.958555 
L 1145.767258 219.462466 
L 1146.793088 207.156804 
L 1147.818917 211.480633 
L 1148.844747 217.336568 
L 1149.870576 218.647735 
L 1150.896406 219.674571 
L 1151.922235 217.995196 
L 1152.948065 217.627011 
L 1153.973895 207.560677 
L 1154.999724 221.977893 
L 1156.025554 216.284688 
L 1157.051383 225.755013 
L 1159.103043 309.420638 
L 1160.128872 250.940321 
L 1161.154702 223.169532 
L 1162.180531 216.885493 
L 1163.206361 220.169541 
L 1164.23219 209.630712 
L 1165.25802 209.729925 
L 1166.28385 231.581283 
L 1167.309679 229.927405 
L 1168.335509 205.445725 
L 1169.361338 233.38314 
L 1170.387168 204.106395 
L 1171.412998 190.318301 
L 1172.438827 208.144389 
L 1173.464657 206.690281 
L 1174.490486 202.55477 
L 1175.516316 203.1833 
L 1176.542145 205.017886 
L 1177.567975 209.356435 
L 1178.593805 195.398829 
L 1179.619634 207.766039 
L 1180.645464 197.982202 
L 1181.671293 204.22194 
L 1182.697123 208.662068 
L 1183.722952 200.951338 
L 1184.748782 208.580726 
L 1185.774612 213.476919 
L 1186.800441 219.665006 
L 1187.826271 215.2769 
L 1188.8521 219.725039 
L 1189.87793 197.40473 
L 1190.90376 214.303561 
L 1192.955419 227.046549 
L 1193.981248 195.609154 
L 1195.007078 125.980962 
L 1196.032907 230.157074 
L 1197.058737 224.57877 
L 1198.084567 224.093106 
L 1199.110396 290.275653 
L 1200.136226 218.771607 
L 1201.162055 221.977112 
L 1202.187885 236.259736 
L 1203.213714 221.121675 
L 1204.239544 210.248007 
L 1205.265374 227.260652 
L 1206.291203 229.477208 
L 1207.317033 224.240686 
L 1208.342862 223.92331 
L 1209.368692 257.041954 
L 1210.394522 209.664264 
L 1211.420351 253.953583 
L 1212.446181 236.718363 
L 1213.47201 216.212191 
L 1214.49784 228.496476 
L 1215.523669 224.404454 
L 1216.549499 226.942399 
L 1217.575329 290.98256 
L 1218.601158 179.408486 
L 1219.626988 127.420949 
L 1220.652817 226.609079 
L 1221.678647 203.912037 
L 1222.704477 123.882446 
L 1223.730306 242.599967 
L 1224.756136 221.841162 
L 1225.781965 221.959017 
L 1226.807795 361.930669 
L 1227.833624 205.676555 
L 1228.859454 214.787414 
L 1229.885284 220.116215 
L 1230.911113 203.133721 
L 1231.936943 202.498432 
L 1232.962772 206.652502 
L 1233.988602 215.104038 
L 1235.014431 217.301147 
L 1236.040261 214.503215 
L 1237.066091 218.933924 
L 1238.09192 219.107797 
L 1239.11775 111.6 
L 1240.143579 190.90503 
L 1241.169409 236.136691 
L 1242.195239 213.838861 
L 1243.221068 227.100697 
L 1244.246898 221.823739 
L 1245.272727 215.335407 
L 1245.272727 215.335407 
" style="fill:none;stroke:#1f77b4;stroke-linecap:square;stroke-width:1.5;"/>
   </g>
   <g id="line2d_17">
    <path clip-path="url(#p24063e1343)" d="M 230.727273 600.460256 
L 231.753102 579.876825 
L 232.778932 582.574954 
L 233.804761 566.230123 
L 234.830591 568.127069 
L 235.856421 571.235229 
L 236.88225 563.516247 
L 237.90808 560.123366 
L 238.933909 558.641999 
L 239.959739 555.003503 
L 240.985569 543.659845 
L 242.011398 564.816167 
L 243.037228 560.201113 
L 244.063057 578.52589 
L 245.088887 571.30937 
L 246.114716 587.6304 
L 247.140546 608.896173 
L 248.166376 557.586049 
L 249.192205 542.605063 
L 250.218035 523.195355 
L 251.243864 544.519209 
L 252.269694 539.06252 
L 253.295523 563.097472 
L 254.321353 535.255396 
L 255.347183 524.704378 
L 256.373012 522.787991 
L 257.398842 566.588659 
L 258.424671 530.080935 
L 259.450501 502.814636 
L 260.476331 508.443831 
L 261.50216 528.680073 
L 262.52799 544.356988 
L 263.553819 500.745776 
L 264.579649 531.858914 
L 265.605478 510.0791 
L 266.631308 509.510837 
L 267.657138 526.017534 
L 268.682967 579.882191 
L 269.708797 524.294559 
L 270.734626 559.761829 
L 271.760456 489.305467 
L 272.786286 508.054706 
L 273.812115 537.22636 
L 274.837945 511.769533 
L 275.863774 503.75183 
L 276.889604 548.88423 
L 277.915433 503.95725 
L 278.941263 503.815444 
L 279.967093 499.408186 
L 280.992922 502.084586 
L 282.018752 516.910454 
L 283.044581 494.636651 
L 284.070411 557.705655 
L 285.09624 508.682053 
L 286.12207 505.482291 
L 287.1479 493.692672 
L 288.173729 496.782991 
L 289.199559 491.564771 
L 290.225388 475.501749 
L 291.251218 492.926203 
L 292.277048 486.918462 
L 293.302877 486.783166 
L 294.328707 494.257534 
L 295.354536 461.366215 
L 296.380366 487.835693 
L 297.406195 490.234961 
L 298.432025 503.562732 
L 299.457855 455.871478 
L 300.483684 477.487245 
L 301.509514 490.786699 
L 302.535343 507.715989 
L 303.561173 488.955746 
L 304.587002 473.61305 
L 305.612832 517.89209 
L 306.638662 505.386444 
L 307.664491 487.165667 
L 308.690321 529.106444 
L 309.71615 483.618873 
L 310.74198 444.23147 
L 311.76781 494.264069 
L 312.793639 487.067905 
L 313.819469 537.271846 
L 314.845298 483.943027 
L 315.871128 488.525921 
L 316.896957 540.764171 
L 317.922787 499.962121 
L 318.948617 485.464955 
L 319.974446 484.284322 
L 321.000276 492.219067 
L 322.026105 487.00457 
L 323.051935 487.232633 
L 324.077765 485.833143 
L 325.103594 498.7099 
L 326.129424 477.203068 
L 327.155253 485.30923 
L 328.181083 444.543928 
L 329.206912 483.843979 
L 330.232742 483.540491 
L 331.258572 481.58511 
L 332.284401 482.894915 
L 333.310231 490.420836 
L 334.33606 479.781518 
L 335.36189 475.61628 
L 336.387719 469.572834 
L 337.413549 512.318763 
L 338.439379 470.072841 
L 339.465208 481.77494 
L 340.491038 478.695386 
L 341.516867 474.627905 
L 342.542697 463.176199 
L 343.568527 481.815586 
L 344.594356 462.579293 
L 345.620186 475.126415 
L 346.646015 475.490647 
L 347.671845 471.102942 
L 348.697674 461.527638 
L 349.723504 468.250566 
L 350.749334 468.422444 
L 351.775163 463.530338 
L 352.800993 463.270487 
L 353.826822 472.051484 
L 354.852652 461.687805 
L 355.878481 485.541962 
L 356.904311 459.062222 
L 357.930141 442.530735 
L 358.95597 444.632324 
L 359.9818 473.666179 
L 361.007629 473.225114 
L 362.033459 477.942268 
L 363.059289 474.82093 
L 364.085118 479.056595 
L 365.110948 453.211966 
L 366.136777 468.932077 
L 367.162607 469.412374 
L 368.188436 469.408471 
L 369.214266 470.47558 
L 370.240096 476.714378 
L 371.265925 448.143939 
L 372.291755 461.152565 
L 373.317584 461.925923 
L 374.343414 492.438482 
L 375.369243 472.435604 
L 376.395073 470.334346 
L 377.420903 466.944513 
L 378.446732 467.791783 
L 379.472562 465.328408 
L 380.498391 463.31638 
L 381.524221 461.927677 
L 382.550051 457.138198 
L 383.57588 463.321566 
L 384.60171 463.378463 
L 385.627539 410.207311 
L 386.653369 480.368435 
L 387.679198 446.904984 
L 388.705028 518.87857 
L 389.730858 456.969516 
L 390.756687 461.876595 
L 391.782517 492.414968 
L 392.808346 452.41248 
L 393.834176 459.330867 
L 394.860006 497.774045 
L 395.885835 466.485382 
L 396.911665 492.272105 
L 397.937494 458.161148 
L 398.963324 453.134914 
L 399.989153 465.874329 
L 401.014983 459.71346 
L 402.040813 462.598644 
L 403.066642 438.291236 
L 404.092472 504.487233 
L 405.118301 445.967112 
L 406.144131 454.981186 
L 407.16996 495.595764 
L 408.19579 460.117212 
L 409.22162 460.67604 
L 410.247449 451.89592 
L 411.273279 451.218768 
L 412.299108 429.604853 
L 413.324938 433.84788 
L 414.350768 530.847576 
L 415.376597 423.709588 
L 416.402427 457.660764 
L 417.428256 457.410439 
L 418.454086 443.987197 
L 419.479915 441.656499 
L 420.505745 448.921605 
L 421.531575 440.632894 
L 422.557404 448.191046 
L 423.583234 433.806376 
L 424.609063 448.583846 
L 425.634893 512.794591 
L 426.660722 459.473212 
L 427.686552 454.914699 
L 428.712382 437.26502 
L 429.738211 449.565055 
L 430.764041 457.674313 
L 431.78987 464.253541 
L 432.8157 454.062107 
L 433.84153 462.314975 
L 434.867359 446.03422 
L 435.893189 433.420398 
L 437.944848 442.440856 
L 438.970677 460.356981 
L 439.996507 453.569743 
L 441.022337 477.220693 
L 442.048166 456.23444 
L 443.073996 459.49321 
L 444.099825 459.999499 
L 445.125655 434.8438 
L 446.151485 467.648072 
L 447.177314 431.521216 
L 448.203144 439.621288 
L 449.228973 433.888192 
L 450.254803 510.331683 
L 451.280632 445.121431 
L 452.306462 476.497176 
L 453.332292 484.990392 
L 454.358121 479.330096 
L 455.383951 456.330334 
L 456.40978 462.100776 
L 457.43561 459.471464 
L 458.461439 397.374942 
L 459.487269 473.492382 
L 460.513099 450.393143 
L 461.538928 456.171819 
L 462.564758 448.788645 
L 463.590587 444.598434 
L 464.616417 496.927229 
L 465.642247 448.075577 
L 466.668076 416.539751 
L 467.693906 437.74853 
L 468.719735 438.153703 
L 469.745565 459.547715 
L 470.771394 457.990614 
L 471.797224 444.50848 
L 472.823054 484.449158 
L 473.848883 457.557243 
L 474.874713 444.927057 
L 475.900542 459.59185 
L 476.926372 464.126706 
L 477.952201 449.032994 
L 478.978031 442.102395 
L 480.003861 442.044137 
L 481.02969 462.665339 
L 482.05552 455.650946 
L 483.081349 453.341776 
L 484.107179 434.617362 
L 485.133009 458.800413 
L 486.158838 458.172822 
L 487.184668 457.226382 
L 488.210497 460.144603 
L 489.236327 455.412248 
L 490.262156 455.364212 
L 491.287986 468.852664 
L 492.313816 456.944226 
L 493.339645 439.749278 
L 494.365475 452.425511 
L 495.391304 450.18559 
L 496.417134 454.739853 
L 497.442964 452.623182 
L 498.468793 458.611679 
L 499.494623 452.771768 
L 500.520452 457.942243 
L 501.546282 457.805437 
L 502.572111 454.208605 
L 503.597941 452.240651 
L 504.623771 496.443203 
L 505.6496 453.996556 
L 506.67543 445.555725 
L 507.701259 455.465774 
L 509.752918 442.672856 
L 510.778748 451.799017 
L 511.804578 449.333489 
L 512.830407 454.865257 
L 513.856237 457.936548 
L 514.882066 465.057956 
L 515.907896 456.400436 
L 516.933726 453.798777 
L 517.959555 456.938112 
L 518.985385 459.249982 
L 520.011214 453.130052 
L 521.037044 460.788171 
L 522.062873 448.839095 
L 523.088703 463.006726 
L 524.114533 447.998601 
L 525.140362 486.219546 
L 526.166192 432.299027 
L 527.192021 452.312429 
L 528.217851 441.201452 
L 529.24368 508.047921 
L 530.26951 465.253022 
L 531.29534 457.005761 
L 532.321169 459.940734 
L 533.346999 454.407585 
L 534.372828 452.118548 
L 535.398658 476.599268 
L 536.424488 444.150636 
L 537.450317 468.468015 
L 538.476147 453.573834 
L 539.501976 453.088027 
L 540.527806 451.613971 
L 541.553635 455.395304 
L 542.579465 451.008406 
L 543.605295 432.158297 
L 544.631124 448.268513 
L 545.656954 460.971944 
L 546.682783 445.775226 
L 547.708613 447.552909 
L 548.734443 447.409066 
L 549.760272 456.234551 
L 550.786102 454.935915 
L 551.811931 418.497759 
L 552.837761 456.12163 
L 553.86359 457.956596 
L 554.88942 438.892668 
L 555.91525 451.301738 
L 556.941079 475.399245 
L 557.966909 425.275931 
L 558.992738 443.717142 
L 560.018568 458.347526 
L 561.044397 461.227295 
L 562.070227 459.256516 
L 563.096057 449.726547 
L 564.121886 453.34885 
L 565.147716 456.432974 
L 566.173545 450.467966 
L 567.199375 461.584866 
L 568.225205 457.822884 
L 569.251034 462.902232 
L 570.276864 457.191074 
L 571.302693 456.840901 
L 572.328523 466.149572 
L 573.354352 455.795177 
L 574.380182 447.346707 
L 575.406012 459.393963 
L 576.431841 456.100976 
L 577.457671 457.94677 
L 578.4835 455.988249 
L 579.50933 446.8709 
L 580.535159 458.145144 
L 581.560989 457.708593 
L 582.586819 473.420075 
L 583.612648 458.367518 
L 584.638478 439.608942 
L 585.664307 478.793648 
L 587.715967 450.528908 
L 588.741796 470.365616 
L 589.767626 474.177629 
L 590.793455 413.468974 
L 591.819285 452.023829 
L 592.845114 452.74148 
L 593.870944 472.828592 
L 594.896774 449.734733 
L 595.922603 447.6706 
L 596.948433 444.897376 
L 597.974262 435.593524 
L 599.000092 452.095601 
L 600.025922 452.554335 
L 601.051751 509.386426 
L 602.077581 470.672357 
L 603.10341 476.393965 
L 604.12924 450.923633 
L 605.155069 454.468449 
L 606.180899 448.213118 
L 607.206729 452.778935 
L 608.232558 454.028152 
L 609.258388 426.27942 
L 610.284217 454.5313 
L 611.310047 437.895117 
L 612.335876 454.331906 
L 613.361706 450.390652 
L 614.387536 462.052962 
L 615.413365 435.974682 
L 616.439195 461.370174 
L 617.465024 461.486489 
L 618.490854 451.500176 
L 619.516684 435.31555 
L 620.542513 468.103788 
L 621.568343 452.473435 
L 622.594172 452.726713 
L 623.620002 451.417728 
L 624.645831 473.641714 
L 625.671661 449.679556 
L 626.697491 436.023875 
L 627.72332 488.574753 
L 628.74915 454.713473 
L 629.774979 452.345162 
L 630.800809 460.213664 
L 631.826638 451.824628 
L 632.852468 437.524548 
L 633.878298 436.361262 
L 634.904127 453.253334 
L 635.929957 460.525983 
L 636.955786 447.284656 
L 637.981616 444.894138 
L 639.007446 469.338622 
L 640.033275 449.926541 
L 641.059105 456.774173 
L 642.084934 456.240694 
L 643.110764 423.665093 
L 644.136593 456.523007 
L 645.162423 455.995087 
L 647.214082 450.692786 
L 648.239912 453.340967 
L 649.265741 450.515399 
L 650.291571 435.513915 
L 651.3174 453.04944 
L 652.34323 454.278927 
L 653.36906 452.112294 
L 654.394889 437.785048 
L 655.420719 448.378328 
L 656.446548 446.923034 
L 657.472378 461.82706 
L 658.498208 452.900871 
L 659.524037 439.203092 
L 660.549867 474.370669 
L 661.575696 452.045205 
L 662.601526 454.269965 
L 663.627355 455.711828 
L 664.653185 449.991755 
L 665.679015 441.505027 
L 666.704844 449.326143 
L 667.730674 451.131643 
L 668.756503 432.202661 
L 669.782333 438.441917 
L 670.808163 508.638994 
L 671.833992 450.880176 
L 672.859822 451.497492 
L 673.885651 448.904109 
L 674.911481 451.154081 
L 675.93731 435.365774 
L 676.96314 449.957561 
L 677.98897 460.145258 
L 679.014799 452.523719 
L 680.040629 485.230114 
L 681.066458 450.530806 
L 682.092288 451.741835 
L 683.118117 436.060511 
L 684.143947 470.908292 
L 685.169777 463.328983 
L 686.195606 468.001521 
L 687.221436 452.049363 
L 688.247265 446.151057 
L 689.273095 453.465841 
L 690.298925 449.621931 
L 691.324754 444.139128 
L 692.350584 461.897263 
L 693.376413 445.270069 
L 694.402243 475.119511 
L 695.428072 438.71149 
L 696.453902 449.861405 
L 697.479732 449.371874 
L 698.505561 431.875399 
L 699.531391 441.586277 
L 700.55722 495.319551 
L 701.58305 449.426814 
L 702.608879 453.528596 
L 703.634709 443.713005 
L 704.660539 441.020947 
L 705.686368 462.246118 
L 706.712198 448.346848 
L 707.738027 445.516137 
L 708.763857 439.867386 
L 709.789687 450.096157 
L 710.815516 462.712192 
L 711.841346 449.450629 
L 713.893005 437.128929 
L 714.918834 448.872728 
L 715.944664 444.928323 
L 716.970494 445.803375 
L 717.996323 447.542786 
L 719.022153 431.804305 
L 720.047982 451.697192 
L 721.073812 449.634473 
L 722.099642 418.565084 
L 723.125471 450.788396 
L 724.151301 441.962983 
L 725.17713 463.278577 
L 726.20296 443.925397 
L 727.228789 448.481563 
L 728.254619 453.924051 
L 729.280449 449.924567 
L 730.306278 475.62074 
L 731.332108 456.765945 
L 732.357937 459.607889 
L 733.383767 453.721099 
L 734.409596 426.765319 
L 735.435426 457.462873 
L 736.461256 452.833391 
L 737.487085 459.465451 
L 738.512915 455.364256 
L 739.538744 434.009432 
L 740.564574 420.716462 
L 741.590404 456.644815 
L 742.616233 448.245486 
L 743.642063 446.498235 
L 744.667892 443.341588 
L 745.693722 465.710073 
L 746.719551 454.927165 
L 747.745381 452.519175 
L 748.771211 452.321907 
L 749.79704 476.923064 
L 750.82287 457.135274 
L 751.848699 446.335394 
L 752.874529 437.665856 
L 753.900358 456.161346 
L 754.926188 458.428974 
L 755.952018 462.487467 
L 756.977847 462.508429 
L 758.003677 456.424493 
L 759.029506 439.227952 
L 760.055336 467.12017 
L 761.081166 458.135502 
L 762.106995 441.350161 
L 763.132825 453.918144 
L 764.158654 455.628566 
L 765.184484 465.426149 
L 766.210313 443.784309 
L 767.236143 511.115695 
L 768.261973 456.77188 
L 769.287802 457.425025 
L 770.313632 459.579593 
L 771.339461 460.40959 
L 772.365291 459.147563 
L 773.391121 442.229714 
L 774.41695 450.872357 
L 775.44278 453.246303 
L 776.468609 455.156865 
L 777.494439 449.848464 
L 778.520268 453.396427 
L 779.546098 440.01681 
L 780.571928 450.629889 
L 781.597757 454.697817 
L 782.623587 449.603141 
L 783.649416 439.715965 
L 784.675246 459.301218 
L 785.701075 454.380244 
L 786.726905 462.219024 
L 787.752735 452.02277 
L 788.778564 451.780871 
L 789.804394 445.379801 
L 790.830223 465.557648 
L 791.856053 450.321304 
L 792.881883 455.456012 
L 793.907712 441.696552 
L 794.933542 459.944587 
L 795.959371 456.402242 
L 796.985201 459.025053 
L 798.01103 448.443994 
L 799.03686 451.865325 
L 800.06269 456.993464 
L 801.088519 456.485653 
L 802.114349 446.412835 
L 803.140178 462.689051 
L 804.166008 460.038785 
L 805.191837 453.721068 
L 806.217667 469.364086 
L 807.243497 457.276853 
L 808.269326 461.27001 
L 809.295156 478.110563 
L 810.320985 484.808526 
L 811.346815 441.776729 
L 812.372645 495.982267 
L 813.398474 458.152473 
L 814.424304 447.118795 
L 815.450133 458.806846 
L 816.475963 461.747091 
L 817.501792 468.675578 
L 818.527622 460.110455 
L 819.553452 452.76369 
L 821.605111 458.070527 
L 822.63094 442.881563 
L 823.65677 459.37556 
L 824.6826 460.430416 
L 825.708429 460.468134 
L 826.734259 452.357207 
L 827.760088 434.586182 
L 828.785918 454.936662 
L 829.811747 445.620692 
L 830.837577 467.428794 
L 831.863407 442.049885 
L 832.889236 432.236407 
L 833.915066 462.876658 
L 835.966725 441.010779 
L 836.992554 503.978325 
L 838.018384 446.336782 
L 839.044214 450.849489 
L 840.070043 438.027291 
L 841.095873 454.678431 
L 842.121702 453.830749 
L 843.147532 452.419 
L 844.173362 438.576301 
L 845.199191 442.111977 
L 846.225021 454.420646 
L 847.25085 452.777776 
L 848.27668 452.686947 
L 849.302509 442.558463 
L 850.328339 446.31271 
L 851.354169 431.774688 
L 852.379998 452.196049 
L 853.405828 452.637401 
L 854.431657 442.82899 
L 855.457487 430.239598 
L 856.483316 450.024786 
L 857.509146 451.547072 
L 858.534976 439.084809 
L 859.560805 439.183443 
L 860.586635 435.806389 
L 861.612464 446.31771 
L 862.638294 450.625362 
L 863.664124 441.907151 
L 864.689953 457.353335 
L 865.715783 456.335658 
L 866.741612 458.775619 
L 867.767442 456.227574 
L 869.819101 437.989808 
L 870.844931 517.412808 
L 871.87076 451.772802 
L 872.89659 448.430579 
L 873.922419 457.572144 
L 876.999908 441.796226 
L 878.025738 451.024623 
L 879.051567 449.509737 
L 880.077397 447.400104 
L 881.103226 453.420953 
L 882.129056 456.713737 
L 883.154886 456.766384 
L 884.180715 453.411236 
L 885.206545 462.537232 
L 886.232374 456.664301 
L 887.258204 442.589511 
L 888.284033 452.565309 
L 889.309863 452.431707 
L 890.335693 441.086834 
L 891.361522 456.453258 
L 892.387352 464.464318 
L 893.413181 435.041573 
L 894.439011 474.881977 
L 895.464841 434.489458 
L 896.49067 435.259402 
L 897.5165 449.44118 
L 898.542329 448.332315 
L 899.568159 457.838187 
L 900.593988 438.365473 
L 901.619818 435.636283 
L 902.645648 419.75673 
L 903.671477 442.556712 
L 904.697307 437.183745 
L 905.723136 445.374187 
L 906.748966 429.946517 
L 908.800625 455.781606 
L 909.826455 434.59487 
L 910.852284 440.808544 
L 911.878114 440.022086 
L 912.903943 450.637345 
L 913.929773 445.637865 
L 914.955603 484.225879 
L 915.981432 452.820763 
L 917.007262 444.61179 
L 918.033091 427.964107 
L 919.058921 441.839904 
L 920.08475 450.063478 
L 921.11058 435.064504 
L 922.13641 478.08457 
L 923.162239 440.498837 
L 924.188069 453.230387 
L 925.213898 443.593785 
L 926.239728 430.71965 
L 927.265557 442.032759 
L 928.291387 475.957298 
L 929.317217 438.55557 
L 930.343046 436.807813 
L 931.368876 438.568746 
L 932.394705 451.46706 
L 933.420535 439.302374 
L 934.446365 445.991468 
L 935.472194 438.17294 
L 936.498024 440.734958 
L 937.523853 433.919308 
L 938.549683 430.728745 
L 939.575512 463.979986 
L 940.601342 434.760806 
L 941.627172 437.689456 
L 942.653001 429.978994 
L 943.678831 430.483173 
L 944.70466 441.894374 
L 945.73049 438.269981 
L 946.75632 436.989064 
L 947.782149 438.248845 
L 948.807979 426.325836 
L 949.833808 436.825602 
L 950.859638 437.693783 
L 951.885467 446.305009 
L 952.911297 450.014242 
L 953.937127 436.726677 
L 954.962956 447.483684 
L 955.988786 446.053784 
L 957.014615 443.34528 
L 958.040445 419.72745 
L 959.066274 450.162918 
L 960.092104 438.45093 
L 961.117934 435.181328 
L 962.143763 438.520831 
L 963.169593 436.564528 
L 964.195422 433.644688 
L 965.221252 440.899349 
L 966.247082 440.099251 
L 967.272911 441.284725 
L 968.298741 436.690797 
L 969.32457 493.031295 
L 970.3504 438.952508 
L 971.376229 443.390136 
L 972.402059 445.071535 
L 973.427889 440.352621 
L 974.453718 442.04033 
L 975.479548 429.701394 
L 976.505377 440.275281 
L 977.531207 443.760778 
L 978.557036 442.314619 
L 979.582866 442.606633 
L 980.608696 445.600281 
L 982.660355 435.137846 
L 983.686184 443.663159 
L 984.712014 443.67822 
L 985.737844 431.598184 
L 986.763673 485.705341 
L 987.789503 435.763177 
L 988.815332 432.98259 
L 989.841162 468.555737 
L 990.866991 442.910299 
L 991.892821 438.666918 
L 992.918651 413.542163 
L 993.94448 424.624854 
L 994.97031 440.223406 
L 995.996139 430.521463 
L 997.021969 445.005218 
L 998.047799 437.481477 
L 999.073628 428.607337 
L 1000.099458 432.442978 
L 1001.125287 441.259632 
L 1002.151117 435.788846 
L 1003.176946 439.399519 
L 1004.202776 431.530159 
L 1005.228606 489.314295 
L 1006.254435 438.222231 
L 1007.280265 436.906194 
L 1008.306094 468.973095 
L 1009.331924 425.691661 
L 1010.357753 444.722787 
L 1011.383583 438.000806 
L 1012.409413 449.077087 
L 1013.435242 443.093616 
L 1014.461072 438.062632 
L 1015.486901 436.250367 
L 1016.512731 432.914251 
L 1017.538561 439.103521 
L 1018.56439 436.472049 
L 1019.59022 440.185059 
L 1020.616049 440.988186 
L 1021.641879 440.422382 
L 1022.667708 442.480778 
L 1023.693538 445.324299 
L 1024.719368 430.176796 
L 1025.745197 442.971628 
L 1026.771027 440.380284 
L 1027.796856 432.044177 
L 1028.822686 431.362803 
L 1029.848515 432.892916 
L 1030.874345 437.378346 
L 1031.900175 455.073585 
L 1032.926004 445.187697 
L 1033.951834 443.086216 
L 1034.977663 431.90124 
L 1036.003493 443.385821 
L 1037.029323 441.939197 
L 1038.055152 439.372019 
L 1039.080982 440.436927 
L 1040.106811 438.137326 
L 1041.132641 500.943419 
L 1042.15847 437.584941 
L 1043.1843 476.96324 
L 1044.21013 435.942423 
L 1045.235959 440.578425 
L 1046.261789 432.483126 
L 1047.287618 444.68791 
L 1048.313448 446.946898 
L 1049.339278 440.250391 
L 1050.365107 441.455033 
L 1051.390937 440.251464 
L 1052.416766 442.040928 
L 1053.442596 443.410637 
L 1054.468425 437.899474 
L 1055.494255 441.593804 
L 1056.520085 447.456735 
L 1057.545914 439.300971 
L 1058.571744 433.227718 
L 1059.597573 387.171708 
L 1060.623403 475.905615 
L 1061.649232 431.772551 
L 1062.675062 446.521806 
L 1063.700892 442.199887 
L 1064.726721 443.515653 
L 1065.752551 425.909672 
L 1066.77838 446.345988 
L 1067.80421 462.787143 
L 1068.83004 483.467343 
L 1069.855869 443.658099 
L 1070.881699 467.198716 
L 1071.907528 443.963214 
L 1072.933358 446.6051 
L 1073.959187 472.491169 
L 1074.985017 442.104202 
L 1076.010847 436.506842 
L 1077.036676 449.0529 
L 1078.062506 447.278395 
L 1079.088335 449.013879 
L 1080.114165 461.743615 
L 1081.139994 446.147952 
L 1082.165824 495.077166 
L 1083.191654 442.839272 
L 1084.217483 498.965121 
L 1085.243313 452.382651 
L 1086.269142 458.161048 
L 1087.294972 443.805902 
L 1088.320802 445.850526 
L 1090.372461 436.5008 
L 1091.39829 440.564214 
L 1092.42412 440.430611 
L 1093.449949 446.904275 
L 1094.475779 441.474463 
L 1095.501609 464.076965 
L 1096.527438 450.082553 
L 1097.553268 453.082792 
L 1098.579097 442.622151 
L 1099.604927 453.969374 
L 1100.630757 479.973755 
L 1101.656586 459.927234 
L 1102.682416 453.722196 
L 1103.708245 454.234661 
L 1104.734075 444.832335 
L 1105.759904 446.440363 
L 1106.785734 445.640447 
L 1107.811564 440.588571 
L 1108.837393 457.507185 
L 1109.863223 449.699004 
L 1110.889052 445.556154 
L 1111.914882 459.598218 
L 1112.940711 445.69226 
L 1113.966541 442.26759 
L 1114.992371 445.437829 
L 1116.0182 448.096584 
L 1117.04403 463.266398 
L 1118.069859 426.228038 
L 1119.095689 509.470818 
L 1120.121519 459.087213 
L 1121.147348 446.550674 
L 1122.173178 448.485235 
L 1123.199007 456.023848 
L 1124.224837 460.191632 
L 1125.250666 453.940123 
L 1126.276496 453.596528 
L 1127.302326 444.066664 
L 1128.328155 440.608715 
L 1129.353985 464.281371 
L 1130.379814 449.09903 
L 1131.405644 452.673095 
L 1132.431473 460.662131 
L 1133.457303 448.169032 
L 1134.483133 452.574596 
L 1135.508962 471.917458 
L 1136.534792 457.014231 
L 1137.560621 447.773371 
L 1138.586451 464.39558 
L 1139.612281 444.783561 
L 1140.63811 457.608955 
L 1141.66394 449.13802 
L 1142.689769 456.69192 
L 1143.715599 445.316118 
L 1144.741428 462.991184 
L 1145.767258 456.955537 
L 1146.793088 458.786972 
L 1147.818917 470.69902 
L 1148.844747 453.243012 
L 1149.870576 466.290928 
L 1150.896406 463.350804 
L 1151.922235 467.748982 
L 1152.948065 466.05653 
L 1153.973895 467.22304 
L 1154.999724 498.254267 
L 1156.025554 434.912695 
L 1157.051383 504.671534 
L 1158.077213 361.12744 
L 1159.103043 498.199388 
L 1160.128872 442.988006 
L 1161.154702 395.704435 
L 1162.180531 450.340948 
L 1163.206361 358.247859 
L 1164.23219 533.758652 
L 1165.25802 445.375811 
L 1166.28385 400.305101 
L 1167.309679 449.922273 
L 1168.335509 569.377761 
L 1169.361338 378.483232 
L 1170.387168 365.932235 
L 1171.412998 363.36571 
L 1173.464657 449.884107 
L 1174.490486 464.943849 
L 1175.516316 432.486419 
L 1176.542145 370.416859 
L 1177.567975 552.848078 
L 1178.593805 482.291331 
L 1179.619634 383.582026 
L 1180.645464 496.187178 
L 1181.671293 414.439558 
L 1182.697123 387.759285 
L 1183.722952 524.916562 
L 1184.748782 501.986644 
L 1185.774612 381.137838 
L 1186.800441 452.388694 
L 1187.826271 491.122989 
L 1188.8521 405.173307 
L 1189.87793 474.075878 
L 1190.90376 493.531564 
L 1191.929589 412.159464 
L 1192.955419 456.699171 
L 1193.981248 615.6 
L 1195.007078 457.503844 
L 1196.032907 380.925074 
L 1197.058737 489.808676 
L 1198.084567 427.54436 
L 1199.110396 534.650806 
L 1200.136226 532.378558 
L 1201.162055 440.991083 
L 1202.187885 372.641234 
L 1203.213714 483.228127 
L 1204.239544 405.879718 
L 1205.265374 407.132471 
L 1206.291203 404.15912 
L 1207.317033 462.287449 
L 1208.342862 480.32413 
L 1209.368692 361.116525 
L 1210.394522 394.065017 
L 1211.420351 390.887704 
L 1212.446181 392.202746 
L 1213.47201 416.11387 
L 1214.49784 396.969214 
L 1215.523669 574.619296 
L 1216.549499 472.667491 
L 1217.575329 478.812948 
L 1218.601158 446.984007 
L 1219.626988 436.725746 
L 1220.652817 430.580756 
L 1221.678647 408.531217 
L 1223.730306 558.131112 
L 1224.756136 380.10307 
L 1225.781965 455.245106 
L 1226.807795 451.176819 
L 1227.833624 403.796942 
L 1228.859454 511.06984 
L 1229.885284 462.939445 
L 1230.911113 389.697995 
L 1231.936943 534.321136 
L 1232.962772 414.15556 
L 1235.014431 435.761041 
L 1236.040261 560.085277 
L 1237.066091 533.717217 
L 1238.09192 454.933698 
L 1239.11775 544.19652 
L 1240.143579 377.716142 
L 1241.169409 388.66151 
L 1242.195239 372.865025 
L 1243.221068 513.07333 
L 1244.246898 387.400539 
L 1245.272727 384.376997 
L 1245.272727 384.376997 
" style="fill:none;stroke:#ff7f0e;stroke-linecap:square;stroke-width:1.5;"/>
   </g>
   <g id="patch_3">
    <path d="M 180 640.8 
L 180 86.4 
" style="fill:none;stroke:#000000;stroke-linecap:square;stroke-linejoin:miter;stroke-width:0.8;"/>
   </g>
   <g id="patch_4">
    <path d="M 1296 640.8 
L 1296 86.4 
" style="fill:none;stroke:#000000;stroke-linecap:square;stroke-linejoin:miter;stroke-width:0.8;"/>
   </g>
   <g id="patch_5">
    <path d="M 180 640.8 
L 1296 640.8 
" style="fill:none;stroke:#000000;stroke-linecap:square;stroke-linejoin:miter;stroke-width:0.8;"/>
   </g>
   <g id="patch_6">
    <path d="M 180 86.4 
L 1296 86.4 
" style="fill:none;stroke:#000000;stroke-linecap:square;stroke-linejoin:miter;stroke-width:0.8;"/>
   </g>
   <g id="text_18">
    <!-- Ultimate Oscillator Speedup -->
    <defs>
     <path d="M 8.6875 72.90625 
L 18.609375 72.90625 
L 18.609375 28.609375 
Q 18.609375 16.890625 22.84375 11.734375 
Q 27.09375 6.59375 36.625 6.59375 
Q 46.09375 6.59375 50.34375 11.734375 
Q 54.59375 16.890625 54.59375 28.609375 
L 54.59375 72.90625 
L 64.5 72.90625 
L 64.5 27.390625 
Q 64.5 13.140625 57.4375 5.859375 
Q 50.390625 -1.421875 36.625 -1.421875 
Q 22.796875 -1.421875 15.734375 5.859375 
Q 8.6875 13.140625 8.6875 27.390625 
z
" id="DejaVuSans-85"/>
     <path d="M 9.421875 75.984375 
L 18.40625 75.984375 
L 18.40625 0 
L 9.421875 0 
z
" id="DejaVuSans-108"/>
     <path d="M 18.3125 70.21875 
L 18.3125 54.6875 
L 36.8125 54.6875 
L 36.8125 47.703125 
L 18.3125 47.703125 
L 18.3125 18.015625 
Q 18.3125 11.328125 20.140625 9.421875 
Q 21.96875 7.515625 27.59375 7.515625 
L 36.8125 7.515625 
L 36.8125 0 
L 27.59375 0 
Q 17.1875 0 13.234375 3.875 
Q 9.28125 7.765625 9.28125 18.015625 
L 9.28125 47.703125 
L 2.6875 47.703125 
L 2.6875 54.6875 
L 9.28125 54.6875 
L 9.28125 70.21875 
z
" id="DejaVuSans-116"/>
     <path d="M 9.421875 54.6875 
L 18.40625 54.6875 
L 18.40625 0 
L 9.421875 0 
z
M 9.421875 75.984375 
L 18.40625 75.984375 
L 18.40625 64.59375 
L 9.421875 64.59375 
z
" id="DejaVuSans-105"/>
     <path d="M 52 44.1875 
Q 55.375 50.25 60.0625 53.125 
Q 64.75 56 71.09375 56 
Q 79.640625 56 84.28125 50.015625 
Q 88.921875 44.046875 88.921875 33.015625 
L 88.921875 0 
L 79.890625 0 
L 79.890625 32.71875 
Q 79.890625 40.578125 77.09375 44.375 
Q 74.3125 48.1875 68.609375 48.1875 
Q 61.625 48.1875 57.5625 43.546875 
Q 53.515625 38.921875 53.515625 30.90625 
L 53.515625 0 
L 44.484375 0 
L 44.484375 32.71875 
Q 44.484375 40.625 41.703125 44.40625 
Q 38.921875 48.1875 33.109375 48.1875 
Q 26.21875 48.1875 22.15625 43.53125 
Q 18.109375 38.875 18.109375 30.90625 
L 18.109375 0 
L 9.078125 0 
L 9.078125 54.6875 
L 18.109375 54.6875 
L 18.109375 46.1875 
Q 21.1875 51.21875 25.484375 53.609375 
Q 29.78125 56 35.6875 56 
Q 41.65625 56 45.828125 52.96875 
Q 50 49.953125 52 44.1875 
z
" id="DejaVuSans-109"/>
     <path d="M 34.28125 27.484375 
Q 23.390625 27.484375 19.1875 25 
Q 14.984375 22.515625 14.984375 16.5 
Q 14.984375 11.71875 18.140625 8.90625 
Q 21.296875 6.109375 26.703125 6.109375 
Q 34.1875 6.109375 38.703125 11.40625 
Q 43.21875 16.703125 43.21875 25.484375 
L 43.21875 27.484375 
z
M 52.203125 31.203125 
L 52.203125 0 
L 43.21875 0 
L 43.21875 8.296875 
Q 40.140625 3.328125 35.546875 0.953125 
Q 30.953125 -1.421875 24.3125 -1.421875 
Q 15.921875 -1.421875 10.953125 3.296875 
Q 6 8.015625 6 15.921875 
Q 6 25.140625 12.171875 29.828125 
Q 18.359375 34.515625 30.609375 34.515625 
L 43.21875 34.515625 
L 43.21875 35.40625 
Q 43.21875 41.609375 39.140625 45 
Q 35.0625 48.390625 27.6875 48.390625 
Q 23 48.390625 18.546875 47.265625 
Q 14.109375 46.140625 10.015625 43.890625 
L 10.015625 52.203125 
Q 14.9375 54.109375 19.578125 55.046875 
Q 24.21875 56 28.609375 56 
Q 40.484375 56 46.34375 49.84375 
Q 52.203125 43.703125 52.203125 31.203125 
z
" id="DejaVuSans-97"/>
     <path id="DejaVuSans-32"/>
     <path d="M 39.40625 66.21875 
Q 28.65625 66.21875 22.328125 58.203125 
Q 16.015625 50.203125 16.015625 36.375 
Q 16.015625 22.609375 22.328125 14.59375 
Q 28.65625 6.59375 39.40625 6.59375 
Q 50.140625 6.59375 56.421875 14.59375 
Q 62.703125 22.609375 62.703125 36.375 
Q 62.703125 50.203125 56.421875 58.203125 
Q 50.140625 66.21875 39.40625 66.21875 
z
M 39.40625 74.21875 
Q 54.734375 74.21875 63.90625 63.9375 
Q 73.09375 53.65625 73.09375 36.375 
Q 73.09375 19.140625 63.90625 8.859375 
Q 54.734375 -1.421875 39.40625 -1.421875 
Q 24.03125 -1.421875 14.8125 8.828125 
Q 5.609375 19.09375 5.609375 36.375 
Q 5.609375 53.65625 14.8125 63.9375 
Q 24.03125 74.21875 39.40625 74.21875 
z
" id="DejaVuSans-79"/>
     <path d="M 48.78125 52.59375 
L 48.78125 44.1875 
Q 44.96875 46.296875 41.140625 47.34375 
Q 37.3125 48.390625 33.40625 48.390625 
Q 24.65625 48.390625 19.8125 42.84375 
Q 14.984375 37.3125 14.984375 27.296875 
Q 14.984375 17.28125 19.8125 11.734375 
Q 24.65625 6.203125 33.40625 6.203125 
Q 37.3125 6.203125 41.140625 7.25 
Q 44.96875 8.296875 48.78125 10.40625 
L 48.78125 2.09375 
Q 45.015625 0.34375 40.984375 -0.53125 
Q 36.96875 -1.421875 32.421875 -1.421875 
Q 20.0625 -1.421875 12.78125 6.34375 
Q 5.515625 14.109375 5.515625 27.296875 
Q 5.515625 40.671875 12.859375 48.328125 
Q 20.21875 56 33.015625 56 
Q 37.15625 56 41.109375 55.140625 
Q 45.0625 54.296875 48.78125 52.59375 
z
" id="DejaVuSans-99"/>
     <path d="M 30.609375 48.390625 
Q 23.390625 48.390625 19.1875 42.75 
Q 14.984375 37.109375 14.984375 27.296875 
Q 14.984375 17.484375 19.15625 11.84375 
Q 23.34375 6.203125 30.609375 6.203125 
Q 37.796875 6.203125 41.984375 11.859375 
Q 46.1875 17.53125 46.1875 27.296875 
Q 46.1875 37.015625 41.984375 42.703125 
Q 37.796875 48.390625 30.609375 48.390625 
z
M 30.609375 56 
Q 42.328125 56 49.015625 48.375 
Q 55.71875 40.765625 55.71875 27.296875 
Q 55.71875 13.875 49.015625 6.21875 
Q 42.328125 -1.421875 30.609375 -1.421875 
Q 18.84375 -1.421875 12.171875 6.21875 
Q 5.515625 13.875 5.515625 27.296875 
Q 5.515625 40.765625 12.171875 48.375 
Q 18.84375 56 30.609375 56 
z
" id="DejaVuSans-111"/>
     <path d="M 41.109375 46.296875 
Q 39.59375 47.171875 37.8125 47.578125 
Q 36.03125 48 33.890625 48 
Q 26.265625 48 22.1875 43.046875 
Q 18.109375 38.09375 18.109375 28.8125 
L 18.109375 0 
L 9.078125 0 
L 9.078125 54.6875 
L 18.109375 54.6875 
L 18.109375 46.1875 
Q 20.953125 51.171875 25.484375 53.578125 
Q 30.03125 56 36.53125 56 
Q 37.453125 56 38.578125 55.875 
Q 39.703125 55.765625 41.0625 55.515625 
z
" id="DejaVuSans-114"/>
     <path d="M 53.515625 70.515625 
L 53.515625 60.890625 
Q 47.90625 63.578125 42.921875 64.890625 
Q 37.9375 66.21875 33.296875 66.21875 
Q 25.25 66.21875 20.875 63.09375 
Q 16.5 59.96875 16.5 54.203125 
Q 16.5 49.359375 19.40625 46.890625 
Q 22.3125 44.4375 30.421875 42.921875 
L 36.375 41.703125 
Q 47.40625 39.59375 52.65625 34.296875 
Q 57.90625 29 57.90625 20.125 
Q 57.90625 9.515625 50.796875 4.046875 
Q 43.703125 -1.421875 29.984375 -1.421875 
Q 24.8125 -1.421875 18.96875 -0.25 
Q 13.140625 0.921875 6.890625 3.21875 
L 6.890625 13.375 
Q 12.890625 10.015625 18.65625 8.296875 
Q 24.421875 6.59375 29.984375 6.59375 
Q 38.421875 6.59375 43.015625 9.90625 
Q 47.609375 13.234375 47.609375 19.390625 
Q 47.609375 24.75 44.3125 27.78125 
Q 41.015625 30.8125 33.5 32.328125 
L 27.484375 33.5 
Q 16.453125 35.6875 11.515625 40.375 
Q 6.59375 45.0625 6.59375 53.421875 
Q 6.59375 63.09375 13.40625 68.65625 
Q 20.21875 74.21875 32.171875 74.21875 
Q 37.3125 74.21875 42.625 73.28125 
Q 47.953125 72.359375 53.515625 70.515625 
z
" id="DejaVuSans-83"/>
    </defs>
    <g transform="translate(653.805938 80.4)scale(0.12 -0.12)">
     <use xlink:href="#DejaVuSans-85"/>
     <use x="73.193359" xlink:href="#DejaVuSans-108"/>
     <use x="100.976562" xlink:href="#DejaVuSans-116"/>
     <use x="140.185547" xlink:href="#DejaVuSans-105"/>
     <use x="167.96875" xlink:href="#DejaVuSans-109"/>
     <use x="265.380859" xlink:href="#DejaVuSans-97"/>
     <use x="326.660156" xlink:href="#DejaVuSans-116"/>
     <use x="365.869141" xlink:href="#DejaVuSans-101"/>
     <use x="427.392578" xlink:href="#DejaVuSans-32"/>
     <use x="459.179688" xlink:href="#DejaVuSans-79"/>
     <use x="537.890625" xlink:href="#DejaVuSans-115"/>
     <use x="589.990234" xlink:href="#DejaVuSans-99"/>
     <use x="644.970703" xlink:href="#DejaVuSans-105"/>
     <use x="672.753906" xlink:href="#DejaVuSans-108"/>
     <use x="700.537109" xlink:href="#DejaVuSans-108"/>
     <use x="728.320312" xlink:href="#DejaVuSans-97"/>
     <use x="789.599609" xlink:href="#DejaVuSans-116"/>
     <use x="828.808594" xlink:href="#DejaVuSans-111"/>
     <use x="889.990234" xlink:href="#DejaVuSans-114"/>
     <use x="931.103516" xlink:href="#DejaVuSans-32"/>
     <use x="962.890625" xlink:href="#DejaVuSans-83"/>
     <use x="1026.367188" xlink:href="#DejaVuSans-112"/>
     <use x="1089.84375" xlink:href="#DejaVuSans-101"/>
     <use x="1151.367188" xlink:href="#DejaVuSans-101"/>
     <use x="1212.890625" xlink:href="#DejaVuSans-100"/>
     <use x="1276.367188" xlink:href="#DejaVuSans-117"/>
     <use x="1339.746094" xlink:href="#DejaVuSans-112"/>
    </g>
   </g>
   <g id="legend_1">
    <g id="patch_7">
     <path d="M 1185.373437 123.75625 
L 1289 123.75625 
Q 1291 123.75625 1291 121.75625 
L 1291 93.4 
Q 1291 91.4 1289 91.4 
L 1185.373437 91.4 
Q 1183.373437 91.4 1183.373437 93.4 
L 1183.373437 121.75625 
Q 1183.373437 123.75625 1185.373437 123.75625 
z
" style="fill:#ffffff;opacity:0.8;stroke:#cccccc;stroke-linejoin:miter;"/>
    </g>
    <g id="line2d_18">
     <path d="M 1187.373437 99.498437 
L 1207.373437 99.498437 
" style="fill:none;stroke:#1f77b4;stroke-linecap:square;stroke-width:1.5;"/>
    </g>
    <g id="line2d_19"/>
    <g id="text_19">
     <!-- numpy.float32 -->
     <defs>
      <path d="M 32.171875 -5.078125 
Q 28.375 -14.84375 24.75 -17.8125 
Q 21.140625 -20.796875 15.09375 -20.796875 
L 7.90625 -20.796875 
L 7.90625 -13.28125 
L 13.1875 -13.28125 
Q 16.890625 -13.28125 18.9375 -11.515625 
Q 21 -9.765625 23.484375 -3.21875 
L 25.09375 0.875 
L 2.984375 54.6875 
L 12.5 54.6875 
L 29.59375 11.921875 
L 46.6875 54.6875 
L 56.203125 54.6875 
z
" id="DejaVuSans-121"/>
      <path d="M 37.109375 75.984375 
L 37.109375 68.5 
L 28.515625 68.5 
Q 23.6875 68.5 21.796875 66.546875 
Q 19.921875 64.59375 19.921875 59.515625 
L 19.921875 54.6875 
L 34.71875 54.6875 
L 34.71875 47.703125 
L 19.921875 47.703125 
L 19.921875 0 
L 10.890625 0 
L 10.890625 47.703125 
L 2.296875 47.703125 
L 2.296875 54.6875 
L 10.890625 54.6875 
L 10.890625 58.5 
Q 10.890625 67.625 15.140625 71.796875 
Q 19.390625 75.984375 28.609375 75.984375 
z
" id="DejaVuSans-102"/>
     </defs>
     <g transform="translate(1215.373437 102.998437)scale(0.1 -0.1)">
      <use xlink:href="#DejaVuSans-110"/>
      <use x="63.378906" xlink:href="#DejaVuSans-117"/>
      <use x="126.757812" xlink:href="#DejaVuSans-109"/>
      <use x="224.169922" xlink:href="#DejaVuSans-112"/>
      <use x="287.646484" xlink:href="#DejaVuSans-121"/>
      <use x="332.576172" xlink:href="#DejaVuSans-46"/>
      <use x="364.363281" xlink:href="#DejaVuSans-102"/>
      <use x="399.568359" xlink:href="#DejaVuSans-108"/>
      <use x="427.351562" xlink:href="#DejaVuSans-111"/>
      <use x="488.533203" xlink:href="#DejaVuSans-97"/>
      <use x="549.8125" xlink:href="#DejaVuSans-116"/>
      <use x="589.021484" xlink:href="#DejaVuSans-51"/>
      <use x="652.644531" xlink:href="#DejaVuSans-50"/>
     </g>
    </g>
    <g id="line2d_20">
     <path d="M 1187.373437 114.176562 
L 1207.373437 114.176562 
" style="fill:none;stroke:#ff7f0e;stroke-linecap:square;stroke-width:1.5;"/>
    </g>
    <g id="line2d_21"/>
    <g id="text_20">
     <!-- numpy.float64 -->
     <g transform="translate(1215.373437 117.676562)scale(0.1 -0.1)">
      <use xlink:href="#DejaVuSans-110"/>
      <use x="63.378906" xlink:href="#DejaVuSans-117"/>
      <use x="126.757812" xlink:href="#DejaVuSans-109"/>
      <use x="224.169922" xlink:href="#DejaVuSans-112"/>
      <use x="287.646484" xlink:href="#DejaVuSans-121"/>
      <use x="332.576172" xlink:href="#DejaVuSans-46"/>
      <use x="364.363281" xlink:href="#DejaVuSans-102"/>
      <use x="399.568359" xlink:href="#DejaVuSans-108"/>
      <use x="427.351562" xlink:href="#DejaVuSans-111"/>
      <use x="488.533203" xlink:href="#DejaVuSans-97"/>
      <use x="549.8125" xlink:href="#DejaVuSans-116"/>
      <use x="589.021484" xlink:href="#DejaVuSans-54"/>
      <use x="652.644531" xlink:href="#DejaVuSans-52"/>
     </g>
    </g>
   </g>
  </g>
 </g>
 <defs>
  <clipPath id="p24063e1343">
   <rect height="554.4" width="1116" x="180" y="86.4"/>
  </clipPath>
 </defs>
</svg>
