<?xml version="1.0" encoding="utf-8" standalone="no"?>
<!DOCTYPE svg PUBLIC "-//W3C//DTD SVG 1.1//EN"
  "http://www.w3.org/Graphics/SVG/1.1/DTD/svg11.dtd">
<!-- Created with matplotlib (https://matplotlib.org/) -->
<svg height="720pt" version="1.1" viewBox="0 0 1440 720" width="1440pt" xmlns="http://www.w3.org/2000/svg" xmlns:xlink="http://www.w3.org/1999/xlink">
 <defs>
  <style type="text/css">
*{stroke-linecap:butt;stroke-linejoin:round;}
  </style>
 </defs>
 <g id="figure_1">
  <g id="patch_1">
   <path d="M 0 720 
L 1440 720 
L 1440 0 
L 0 0 
z
" style="fill:#ffffff;"/>
  </g>
  <g id="axes_1">
   <g id="patch_2">
    <path d="M 180 640.8 
L 1296 640.8 
L 1296 86.4 
L 180 86.4 
z
" style="fill:#ffffff;"/>
   </g>
   <g id="matplotlib.axis_1">
    <g id="xtick_1">
     <g id="line2d_1">
      <defs>
       <path d="M 0 0 
L 0 3.5 
" id="me88e8a384f" style="stroke:#000000;stroke-width:0.8;"/>
      </defs>
      <g>
       <use style="stroke:#000000;stroke-width:0.8;" x="333.310231" xlink:href="#me88e8a384f" y="640.8"/>
      </g>
     </g>
     <g id="text_1">
      <!-- 100.0 -->
      <defs>
       <path d="M 12.40625 8.296875 
L 28.515625 8.296875 
L 28.515625 63.921875 
L 10.984375 60.40625 
L 10.984375 69.390625 
L 28.421875 72.90625 
L 38.28125 72.90625 
L 38.28125 8.296875 
L 54.390625 8.296875 
L 54.390625 0 
L 12.40625 0 
z
" id="DejaVuSans-49"/>
       <path d="M 31.78125 66.40625 
Q 24.171875 66.40625 20.328125 58.90625 
Q 16.5 51.421875 16.5 36.375 
Q 16.5 21.390625 20.328125 13.890625 
Q 24.171875 6.390625 31.78125 6.390625 
Q 39.453125 6.390625 43.28125 13.890625 
Q 47.125 21.390625 47.125 36.375 
Q 47.125 51.421875 43.28125 58.90625 
Q 39.453125 66.40625 31.78125 66.40625 
z
M 31.78125 74.21875 
Q 44.046875 74.21875 50.515625 64.515625 
Q 56.984375 54.828125 56.984375 36.375 
Q 56.984375 17.96875 50.515625 8.265625 
Q 44.046875 -1.421875 31.78125 -1.421875 
Q 19.53125 -1.421875 13.0625 8.265625 
Q 6.59375 17.96875 6.59375 36.375 
Q 6.59375 54.828125 13.0625 64.515625 
Q 19.53125 74.21875 31.78125 74.21875 
z
" id="DejaVuSans-48"/>
       <path d="M 10.6875 12.40625 
L 21 12.40625 
L 21 0 
L 10.6875 0 
z
" id="DejaVuSans-46"/>
      </defs>
      <g transform="translate(318.996168 655.398438)scale(0.1 -0.1)">
       <use xlink:href="#DejaVuSans-49"/>
       <use x="63.623047" xlink:href="#DejaVuSans-48"/>
       <use x="127.246094" xlink:href="#DejaVuSans-48"/>
       <use x="190.869141" xlink:href="#DejaVuSans-46"/>
       <use x="222.65625" xlink:href="#DejaVuSans-48"/>
      </g>
     </g>
    </g>
    <g id="xtick_2">
     <g id="line2d_2">
      <g>
       <use style="stroke:#000000;stroke-width:0.8;" x="435.893189" xlink:href="#me88e8a384f" y="640.8"/>
      </g>
     </g>
     <g id="text_2">
      <!-- 200.0 -->
      <defs>
       <path d="M 19.1875 8.296875 
L 53.609375 8.296875 
L 53.609375 0 
L 7.328125 0 
L 7.328125 8.296875 
Q 12.9375 14.109375 22.625 23.890625 
Q 32.328125 33.6875 34.8125 36.53125 
Q 39.546875 41.84375 41.421875 45.53125 
Q 43.3125 49.21875 43.3125 52.78125 
Q 43.3125 58.59375 39.234375 62.25 
Q 35.15625 65.921875 28.609375 65.921875 
Q 23.96875 65.921875 18.8125 64.3125 
Q 13.671875 62.703125 7.8125 59.421875 
L 7.8125 69.390625 
Q 13.765625 71.78125 18.9375 73 
Q 24.125 74.21875 28.421875 74.21875 
Q 39.75 74.21875 46.484375 68.546875 
Q 53.21875 62.890625 53.21875 53.421875 
Q 53.21875 48.921875 51.53125 44.890625 
Q 49.859375 40.875 45.40625 35.40625 
Q 44.1875 33.984375 37.640625 27.21875 
Q 31.109375 20.453125 19.1875 8.296875 
z
" id="DejaVuSans-50"/>
      </defs>
      <g transform="translate(421.579126 655.398438)scale(0.1 -0.1)">
       <use xlink:href="#DejaVuSans-50"/>
       <use x="63.623047" xlink:href="#DejaVuSans-48"/>
       <use x="127.246094" xlink:href="#DejaVuSans-48"/>
       <use x="190.869141" xlink:href="#DejaVuSans-46"/>
       <use x="222.65625" xlink:href="#DejaVuSans-48"/>
      </g>
     </g>
    </g>
    <g id="xtick_3">
     <g id="line2d_3">
      <g>
       <use style="stroke:#000000;stroke-width:0.8;" x="538.476147" xlink:href="#me88e8a384f" y="640.8"/>
      </g>
     </g>
     <g id="text_3">
      <!-- 300.0 -->
      <defs>
       <path d="M 40.578125 39.3125 
Q 47.65625 37.796875 51.625 33 
Q 55.609375 28.21875 55.609375 21.1875 
Q 55.609375 10.40625 48.1875 4.484375 
Q 40.765625 -1.421875 27.09375 -1.421875 
Q 22.515625 -1.421875 17.65625 -0.515625 
Q 12.796875 0.390625 7.625 2.203125 
L 7.625 11.71875 
Q 11.71875 9.328125 16.59375 8.109375 
Q 21.484375 6.890625 26.8125 6.890625 
Q 36.078125 6.890625 40.9375 10.546875 
Q 45.796875 14.203125 45.796875 21.1875 
Q 45.796875 27.640625 41.28125 31.265625 
Q 36.765625 34.90625 28.71875 34.90625 
L 20.21875 34.90625 
L 20.21875 43.015625 
L 29.109375 43.015625 
Q 36.375 43.015625 40.234375 45.921875 
Q 44.09375 48.828125 44.09375 54.296875 
Q 44.09375 59.90625 40.109375 62.90625 
Q 36.140625 65.921875 28.71875 65.921875 
Q 24.65625 65.921875 20.015625 65.03125 
Q 15.375 64.15625 9.8125 62.3125 
L 9.8125 71.09375 
Q 15.4375 72.65625 20.34375 73.4375 
Q 25.25 74.21875 29.59375 74.21875 
Q 40.828125 74.21875 47.359375 69.109375 
Q 53.90625 64.015625 53.90625 55.328125 
Q 53.90625 49.265625 50.4375 45.09375 
Q 46.96875 40.921875 40.578125 39.3125 
z
" id="DejaVuSans-51"/>
      </defs>
      <g transform="translate(524.162084 655.398438)scale(0.1 -0.1)">
       <use xlink:href="#DejaVuSans-51"/>
       <use x="63.623047" xlink:href="#DejaVuSans-48"/>
       <use x="127.246094" xlink:href="#DejaVuSans-48"/>
       <use x="190.869141" xlink:href="#DejaVuSans-46"/>
       <use x="222.65625" xlink:href="#DejaVuSans-48"/>
      </g>
     </g>
    </g>
    <g id="xtick_4">
     <g id="line2d_4">
      <g>
       <use style="stroke:#000000;stroke-width:0.8;" x="641.059105" xlink:href="#me88e8a384f" y="640.8"/>
      </g>
     </g>
     <g id="text_4">
      <!-- 400.0 -->
      <defs>
       <path d="M 37.796875 64.3125 
L 12.890625 25.390625 
L 37.796875 25.390625 
z
M 35.203125 72.90625 
L 47.609375 72.90625 
L 47.609375 25.390625 
L 58.015625 25.390625 
L 58.015625 17.1875 
L 47.609375 17.1875 
L 47.609375 0 
L 37.796875 0 
L 37.796875 17.1875 
L 4.890625 17.1875 
L 4.890625 26.703125 
z
" id="DejaVuSans-52"/>
      </defs>
      <g transform="translate(626.745042 655.398438)scale(0.1 -0.1)">
       <use xlink:href="#DejaVuSans-52"/>
       <use x="63.623047" xlink:href="#DejaVuSans-48"/>
       <use x="127.246094" xlink:href="#DejaVuSans-48"/>
       <use x="190.869141" xlink:href="#DejaVuSans-46"/>
       <use x="222.65625" xlink:href="#DejaVuSans-48"/>
      </g>
     </g>
    </g>
    <g id="xtick_5">
     <g id="line2d_5">
      <g>
       <use style="stroke:#000000;stroke-width:0.8;" x="743.642063" xlink:href="#me88e8a384f" y="640.8"/>
      </g>
     </g>
     <g id="text_5">
      <!-- 500.0 -->
      <defs>
       <path d="M 10.796875 72.90625 
L 49.515625 72.90625 
L 49.515625 64.59375 
L 19.828125 64.59375 
L 19.828125 46.734375 
Q 21.96875 47.46875 24.109375 47.828125 
Q 26.265625 48.1875 28.421875 48.1875 
Q 40.625 48.1875 47.75 41.5 
Q 54.890625 34.8125 54.890625 23.390625 
Q 54.890625 11.625 47.5625 5.09375 
Q 40.234375 -1.421875 26.90625 -1.421875 
Q 22.3125 -1.421875 17.546875 -0.640625 
Q 12.796875 0.140625 7.71875 1.703125 
L 7.71875 11.625 
Q 12.109375 9.234375 16.796875 8.0625 
Q 21.484375 6.890625 26.703125 6.890625 
Q 35.15625 6.890625 40.078125 11.328125 
Q 45.015625 15.765625 45.015625 23.390625 
Q 45.015625 31 40.078125 35.4375 
Q 35.15625 39.890625 26.703125 39.890625 
Q 22.75 39.890625 18.8125 39.015625 
Q 14.890625 38.140625 10.796875 36.28125 
z
" id="DejaVuSans-53"/>
      </defs>
      <g transform="translate(729.328 655.398438)scale(0.1 -0.1)">
       <use xlink:href="#DejaVuSans-53"/>
       <use x="63.623047" xlink:href="#DejaVuSans-48"/>
       <use x="127.246094" xlink:href="#DejaVuSans-48"/>
       <use x="190.869141" xlink:href="#DejaVuSans-46"/>
       <use x="222.65625" xlink:href="#DejaVuSans-48"/>
      </g>
     </g>
    </g>
    <g id="xtick_6">
     <g id="line2d_6">
      <g>
       <use style="stroke:#000000;stroke-width:0.8;" x="846.225021" xlink:href="#me88e8a384f" y="640.8"/>
      </g>
     </g>
     <g id="text_6">
      <!-- 600.0 -->
      <defs>
       <path d="M 33.015625 40.375 
Q 26.375 40.375 22.484375 35.828125 
Q 18.609375 31.296875 18.609375 23.390625 
Q 18.609375 15.53125 22.484375 10.953125 
Q 26.375 6.390625 33.015625 6.390625 
Q 39.65625 6.390625 43.53125 10.953125 
Q 47.40625 15.53125 47.40625 23.390625 
Q 47.40625 31.296875 43.53125 35.828125 
Q 39.65625 40.375 33.015625 40.375 
z
M 52.59375 71.296875 
L 52.59375 62.3125 
Q 48.875 64.0625 45.09375 64.984375 
Q 41.3125 65.921875 37.59375 65.921875 
Q 27.828125 65.921875 22.671875 59.328125 
Q 17.53125 52.734375 16.796875 39.40625 
Q 19.671875 43.65625 24.015625 45.921875 
Q 28.375 48.1875 33.59375 48.1875 
Q 44.578125 48.1875 50.953125 41.515625 
Q 57.328125 34.859375 57.328125 23.390625 
Q 57.328125 12.15625 50.6875 5.359375 
Q 44.046875 -1.421875 33.015625 -1.421875 
Q 20.359375 -1.421875 13.671875 8.265625 
Q 6.984375 17.96875 6.984375 36.375 
Q 6.984375 53.65625 15.1875 63.9375 
Q 23.390625 74.21875 37.203125 74.21875 
Q 40.921875 74.21875 44.703125 73.484375 
Q 48.484375 72.75 52.59375 71.296875 
z
" id="DejaVuSans-54"/>
      </defs>
      <g transform="translate(831.910958 655.398438)scale(0.1 -0.1)">
       <use xlink:href="#DejaVuSans-54"/>
       <use x="63.623047" xlink:href="#DejaVuSans-48"/>
       <use x="127.246094" xlink:href="#DejaVuSans-48"/>
       <use x="190.869141" xlink:href="#DejaVuSans-46"/>
       <use x="222.65625" xlink:href="#DejaVuSans-48"/>
      </g>
     </g>
    </g>
    <g id="xtick_7">
     <g id="line2d_7">
      <g>
       <use style="stroke:#000000;stroke-width:0.8;" x="948.807979" xlink:href="#me88e8a384f" y="640.8"/>
      </g>
     </g>
     <g id="text_7">
      <!-- 700.0 -->
      <defs>
       <path d="M 8.203125 72.90625 
L 55.078125 72.90625 
L 55.078125 68.703125 
L 28.609375 0 
L 18.3125 0 
L 43.21875 64.59375 
L 8.203125 64.59375 
z
" id="DejaVuSans-55"/>
      </defs>
      <g transform="translate(934.493916 655.398438)scale(0.1 -0.1)">
       <use xlink:href="#DejaVuSans-55"/>
       <use x="63.623047" xlink:href="#DejaVuSans-48"/>
       <use x="127.246094" xlink:href="#DejaVuSans-48"/>
       <use x="190.869141" xlink:href="#DejaVuSans-46"/>
       <use x="222.65625" xlink:href="#DejaVuSans-48"/>
      </g>
     </g>
    </g>
    <g id="xtick_8">
     <g id="line2d_8">
      <g>
       <use style="stroke:#000000;stroke-width:0.8;" x="1051.390937" xlink:href="#me88e8a384f" y="640.8"/>
      </g>
     </g>
     <g id="text_8">
      <!-- 800.0 -->
      <defs>
       <path d="M 31.78125 34.625 
Q 24.75 34.625 20.71875 30.859375 
Q 16.703125 27.09375 16.703125 20.515625 
Q 16.703125 13.921875 20.71875 10.15625 
Q 24.75 6.390625 31.78125 6.390625 
Q 38.8125 6.390625 42.859375 10.171875 
Q 46.921875 13.96875 46.921875 20.515625 
Q 46.921875 27.09375 42.890625 30.859375 
Q 38.875 34.625 31.78125 34.625 
z
M 21.921875 38.8125 
Q 15.578125 40.375 12.03125 44.71875 
Q 8.5 49.078125 8.5 55.328125 
Q 8.5 64.0625 14.71875 69.140625 
Q 20.953125 74.21875 31.78125 74.21875 
Q 42.671875 74.21875 48.875 69.140625 
Q 55.078125 64.0625 55.078125 55.328125 
Q 55.078125 49.078125 51.53125 44.71875 
Q 48 40.375 41.703125 38.8125 
Q 48.828125 37.15625 52.796875 32.3125 
Q 56.78125 27.484375 56.78125 20.515625 
Q 56.78125 9.90625 50.3125 4.234375 
Q 43.84375 -1.421875 31.78125 -1.421875 
Q 19.734375 -1.421875 13.25 4.234375 
Q 6.78125 9.90625 6.78125 20.515625 
Q 6.78125 27.484375 10.78125 32.3125 
Q 14.796875 37.15625 21.921875 38.8125 
z
M 18.3125 54.390625 
Q 18.3125 48.734375 21.84375 45.5625 
Q 25.390625 42.390625 31.78125 42.390625 
Q 38.140625 42.390625 41.71875 45.5625 
Q 45.3125 48.734375 45.3125 54.390625 
Q 45.3125 60.0625 41.71875 63.234375 
Q 38.140625 66.40625 31.78125 66.40625 
Q 25.390625 66.40625 21.84375 63.234375 
Q 18.3125 60.0625 18.3125 54.390625 
z
" id="DejaVuSans-56"/>
      </defs>
      <g transform="translate(1037.076874 655.398438)scale(0.1 -0.1)">
       <use xlink:href="#DejaVuSans-56"/>
       <use x="63.623047" xlink:href="#DejaVuSans-48"/>
       <use x="127.246094" xlink:href="#DejaVuSans-48"/>
       <use x="190.869141" xlink:href="#DejaVuSans-46"/>
       <use x="222.65625" xlink:href="#DejaVuSans-48"/>
      </g>
     </g>
    </g>
    <g id="xtick_9">
     <g id="line2d_9">
      <g>
       <use style="stroke:#000000;stroke-width:0.8;" x="1153.973895" xlink:href="#me88e8a384f" y="640.8"/>
      </g>
     </g>
     <g id="text_9">
      <!-- 900.0 -->
      <defs>
       <path d="M 10.984375 1.515625 
L 10.984375 10.5 
Q 14.703125 8.734375 18.5 7.8125 
Q 22.3125 6.890625 25.984375 6.890625 
Q 35.75 6.890625 40.890625 13.453125 
Q 46.046875 20.015625 46.78125 33.40625 
Q 43.953125 29.203125 39.59375 26.953125 
Q 35.25 24.703125 29.984375 24.703125 
Q 19.046875 24.703125 12.671875 31.3125 
Q 6.296875 37.9375 6.296875 49.421875 
Q 6.296875 60.640625 12.9375 67.421875 
Q 19.578125 74.21875 30.609375 74.21875 
Q 43.265625 74.21875 49.921875 64.515625 
Q 56.59375 54.828125 56.59375 36.375 
Q 56.59375 19.140625 48.40625 8.859375 
Q 40.234375 -1.421875 26.421875 -1.421875 
Q 22.703125 -1.421875 18.890625 -0.6875 
Q 15.09375 0.046875 10.984375 1.515625 
z
M 30.609375 32.421875 
Q 37.25 32.421875 41.125 36.953125 
Q 45.015625 41.5 45.015625 49.421875 
Q 45.015625 57.28125 41.125 61.84375 
Q 37.25 66.40625 30.609375 66.40625 
Q 23.96875 66.40625 20.09375 61.84375 
Q 16.21875 57.28125 16.21875 49.421875 
Q 16.21875 41.5 20.09375 36.953125 
Q 23.96875 32.421875 30.609375 32.421875 
z
" id="DejaVuSans-57"/>
      </defs>
      <g transform="translate(1139.659832 655.398438)scale(0.1 -0.1)">
       <use xlink:href="#DejaVuSans-57"/>
       <use x="63.623047" xlink:href="#DejaVuSans-48"/>
       <use x="127.246094" xlink:href="#DejaVuSans-48"/>
       <use x="190.869141" xlink:href="#DejaVuSans-46"/>
       <use x="222.65625" xlink:href="#DejaVuSans-48"/>
      </g>
     </g>
    </g>
    <g id="xtick_10">
     <g id="line2d_10">
      <g>
       <use style="stroke:#000000;stroke-width:0.8;" x="1256.556853" xlink:href="#me88e8a384f" y="640.8"/>
      </g>
     </g>
     <g id="text_10">
      <!-- 1000.0 -->
      <g transform="translate(1239.06154 655.398438)scale(0.1 -0.1)">
       <use xlink:href="#DejaVuSans-49"/>
       <use x="63.623047" xlink:href="#DejaVuSans-48"/>
       <use x="127.246094" xlink:href="#DejaVuSans-48"/>
       <use x="190.869141" xlink:href="#DejaVuSans-48"/>
       <use x="254.492188" xlink:href="#DejaVuSans-46"/>
       <use x="286.279297" xlink:href="#DejaVuSans-48"/>
      </g>
     </g>
    </g>
    <g id="text_11">
     <!-- n -->
     <defs>
      <path d="M 54.890625 33.015625 
L 54.890625 0 
L 45.90625 0 
L 45.90625 32.71875 
Q 45.90625 40.484375 42.875 44.328125 
Q 39.84375 48.1875 33.796875 48.1875 
Q 26.515625 48.1875 22.3125 43.546875 
Q 18.109375 38.921875 18.109375 30.90625 
L 18.109375 0 
L 9.078125 0 
L 9.078125 54.6875 
L 18.109375 54.6875 
L 18.109375 46.1875 
Q 21.34375 51.125 25.703125 53.5625 
Q 30.078125 56 35.796875 56 
Q 45.21875 56 50.046875 50.171875 
Q 54.890625 44.34375 54.890625 33.015625 
z
" id="DejaVuSans-110"/>
     </defs>
     <g transform="translate(734.83125 669.076563)scale(0.1 -0.1)">
      <use xlink:href="#DejaVuSans-110"/>
     </g>
    </g>
   </g>
   <g id="matplotlib.axis_2">
    <g id="ytick_1">
     <g id="line2d_11">
      <defs>
       <path d="M 0 0 
L -3.5 0 
" id="meb1c993a1d" style="stroke:#000000;stroke-width:0.8;"/>
      </defs>
      <g>
       <use style="stroke:#000000;stroke-width:0.8;" x="180" xlink:href="#meb1c993a1d" y="634.04646"/>
      </g>
     </g>
     <g id="text_12">
      <!-- 0 -->
      <g transform="translate(166.6375 637.845679)scale(0.1 -0.1)">
       <use xlink:href="#DejaVuSans-48"/>
      </g>
     </g>
    </g>
    <g id="ytick_2">
     <g id="line2d_12">
      <g>
       <use style="stroke:#000000;stroke-width:0.8;" x="180" xlink:href="#meb1c993a1d" y="511.973449"/>
      </g>
     </g>
     <g id="text_13">
      <!-- 200 -->
      <g transform="translate(153.9125 515.772668)scale(0.1 -0.1)">
       <use xlink:href="#DejaVuSans-50"/>
       <use x="63.623047" xlink:href="#DejaVuSans-48"/>
       <use x="127.246094" xlink:href="#DejaVuSans-48"/>
      </g>
     </g>
    </g>
    <g id="ytick_3">
     <g id="line2d_13">
      <g>
       <use style="stroke:#000000;stroke-width:0.8;" x="180" xlink:href="#meb1c993a1d" y="389.900438"/>
      </g>
     </g>
     <g id="text_14">
      <!-- 400 -->
      <g transform="translate(153.9125 393.699657)scale(0.1 -0.1)">
       <use xlink:href="#DejaVuSans-52"/>
       <use x="63.623047" xlink:href="#DejaVuSans-48"/>
       <use x="127.246094" xlink:href="#DejaVuSans-48"/>
      </g>
     </g>
    </g>
    <g id="ytick_4">
     <g id="line2d_14">
      <g>
       <use style="stroke:#000000;stroke-width:0.8;" x="180" xlink:href="#meb1c993a1d" y="267.827427"/>
      </g>
     </g>
     <g id="text_15">
      <!-- 600 -->
      <g transform="translate(153.9125 271.626646)scale(0.1 -0.1)">
       <use xlink:href="#DejaVuSans-54"/>
       <use x="63.623047" xlink:href="#DejaVuSans-48"/>
       <use x="127.246094" xlink:href="#DejaVuSans-48"/>
      </g>
     </g>
    </g>
    <g id="ytick_5">
     <g id="line2d_15">
      <g>
       <use style="stroke:#000000;stroke-width:0.8;" x="180" xlink:href="#meb1c993a1d" y="145.754416"/>
      </g>
     </g>
     <g id="text_16">
      <!-- 800 -->
      <g transform="translate(153.9125 149.553635)scale(0.1 -0.1)">
       <use xlink:href="#DejaVuSans-56"/>
       <use x="63.623047" xlink:href="#DejaVuSans-48"/>
       <use x="127.246094" xlink:href="#DejaVuSans-48"/>
      </g>
     </g>
    </g>
    <g id="text_17">
     <!-- speedup -->
     <defs>
      <path d="M 44.28125 53.078125 
L 44.28125 44.578125 
Q 40.484375 46.53125 36.375 47.5 
Q 32.28125 48.484375 27.875 48.484375 
Q 21.1875 48.484375 17.84375 46.4375 
Q 14.5 44.390625 14.5 40.28125 
Q 14.5 37.15625 16.890625 35.375 
Q 19.28125 33.59375 26.515625 31.984375 
L 29.59375 31.296875 
Q 39.15625 29.25 43.1875 25.515625 
Q 47.21875 21.78125 47.21875 15.09375 
Q 47.21875 7.46875 41.1875 3.015625 
Q 35.15625 -1.421875 24.609375 -1.421875 
Q 20.21875 -1.421875 15.453125 -0.5625 
Q 10.6875 0.296875 5.421875 2 
L 5.421875 11.28125 
Q 10.40625 8.6875 15.234375 7.390625 
Q 20.0625 6.109375 24.8125 6.109375 
Q 31.15625 6.109375 34.5625 8.28125 
Q 37.984375 10.453125 37.984375 14.40625 
Q 37.984375 18.0625 35.515625 20.015625 
Q 33.0625 21.96875 24.703125 23.78125 
L 21.578125 24.515625 
Q 13.234375 26.265625 9.515625 29.90625 
Q 5.8125 33.546875 5.8125 39.890625 
Q 5.8125 47.609375 11.28125 51.796875 
Q 16.75 56 26.8125 56 
Q 31.78125 56 36.171875 55.265625 
Q 40.578125 54.546875 44.28125 53.078125 
z
" id="DejaVuSans-115"/>
      <path d="M 18.109375 8.203125 
L 18.109375 -20.796875 
L 9.078125 -20.796875 
L 9.078125 54.6875 
L 18.109375 54.6875 
L 18.109375 46.390625 
Q 20.953125 51.265625 25.265625 53.625 
Q 29.59375 56 35.59375 56 
Q 45.5625 56 51.78125 48.09375 
Q 58.015625 40.1875 58.015625 27.296875 
Q 58.015625 14.40625 51.78125 6.484375 
Q 45.5625 -1.421875 35.59375 -1.421875 
Q 29.59375 -1.421875 25.265625 0.953125 
Q 20.953125 3.328125 18.109375 8.203125 
z
M 48.6875 27.296875 
Q 48.6875 37.203125 44.609375 42.84375 
Q 40.53125 48.484375 33.40625 48.484375 
Q 26.265625 48.484375 22.1875 42.84375 
Q 18.109375 37.203125 18.109375 27.296875 
Q 18.109375 17.390625 22.1875 11.75 
Q 26.265625 6.109375 33.40625 6.109375 
Q 40.53125 6.109375 44.609375 11.75 
Q 48.6875 17.390625 48.6875 27.296875 
z
" id="DejaVuSans-112"/>
      <path d="M 56.203125 29.59375 
L 56.203125 25.203125 
L 14.890625 25.203125 
Q 15.484375 15.921875 20.484375 11.0625 
Q 25.484375 6.203125 34.421875 6.203125 
Q 39.59375 6.203125 44.453125 7.46875 
Q 49.3125 8.734375 54.109375 11.28125 
L 54.109375 2.78125 
Q 49.265625 0.734375 44.1875 -0.34375 
Q 39.109375 -1.421875 33.890625 -1.421875 
Q 20.796875 -1.421875 13.15625 6.1875 
Q 5.515625 13.8125 5.515625 26.8125 
Q 5.515625 40.234375 12.765625 48.109375 
Q 20.015625 56 32.328125 56 
Q 43.359375 56 49.78125 48.890625 
Q 56.203125 41.796875 56.203125 29.59375 
z
M 47.21875 32.234375 
Q 47.125 39.59375 43.09375 43.984375 
Q 39.0625 48.390625 32.421875 48.390625 
Q 24.90625 48.390625 20.390625 44.140625 
Q 15.875 39.890625 15.1875 32.171875 
z
" id="DejaVuSans-101"/>
      <path d="M 45.40625 46.390625 
L 45.40625 75.984375 
L 54.390625 75.984375 
L 54.390625 0 
L 45.40625 0 
L 45.40625 8.203125 
Q 42.578125 3.328125 38.25 0.953125 
Q 33.9375 -1.421875 27.875 -1.421875 
Q 17.96875 -1.421875 11.734375 6.484375 
Q 5.515625 14.40625 5.515625 27.296875 
Q 5.515625 40.1875 11.734375 48.09375 
Q 17.96875 56 27.875 56 
Q 33.9375 56 38.25 53.625 
Q 42.578125 51.265625 45.40625 46.390625 
z
M 14.796875 27.296875 
Q 14.796875 17.390625 18.875 11.75 
Q 22.953125 6.109375 30.078125 6.109375 
Q 37.203125 6.109375 41.296875 11.75 
Q 45.40625 17.390625 45.40625 27.296875 
Q 45.40625 37.203125 41.296875 42.84375 
Q 37.203125 48.484375 30.078125 48.484375 
Q 22.953125 48.484375 18.875 42.84375 
Q 14.796875 37.203125 14.796875 27.296875 
z
" id="DejaVuSans-100"/>
      <path d="M 8.5 21.578125 
L 8.5 54.6875 
L 17.484375 54.6875 
L 17.484375 21.921875 
Q 17.484375 14.15625 20.5 10.265625 
Q 23.53125 6.390625 29.59375 6.390625 
Q 36.859375 6.390625 41.078125 11.03125 
Q 45.3125 15.671875 45.3125 23.6875 
L 45.3125 54.6875 
L 54.296875 54.6875 
L 54.296875 0 
L 45.3125 0 
L 45.3125 8.40625 
Q 42.046875 3.421875 37.71875 1 
Q 33.40625 -1.421875 27.6875 -1.421875 
Q 18.265625 -1.421875 13.375 4.4375 
Q 8.5 10.296875 8.5 21.578125 
z
M 31.109375 56 
z
" id="DejaVuSans-117"/>
     </defs>
     <g transform="translate(147.832812 385.049219)rotate(-90)scale(0.1 -0.1)">
      <use xlink:href="#DejaVuSans-115"/>
      <use x="52.099609" xlink:href="#DejaVuSans-112"/>
      <use x="115.576172" xlink:href="#DejaVuSans-101"/>
      <use x="177.099609" xlink:href="#DejaVuSans-101"/>
      <use x="238.623047" xlink:href="#DejaVuSans-100"/>
      <use x="302.099609" xlink:href="#DejaVuSans-117"/>
      <use x="365.478516" xlink:href="#DejaVuSans-112"/>
     </g>
    </g>
   </g>
   <g id="line2d_16">
    <path clip-path="url(#pb610e2e782)" d="M 230.727273 290.417268 
L 231.753102 315.986225 
L 232.778932 111.6 
L 233.804761 332.966796 
L 234.830591 175.049686 
L 235.856421 155.492967 
L 236.88225 182.866234 
L 237.90808 195.359842 
L 238.933909 219.004506 
L 239.959739 230.56677 
L 240.985569 197.9188 
L 242.011398 322.528834 
L 243.037228 171.379619 
L 244.063057 241.454007 
L 245.088887 200.494889 
L 246.114716 241.367787 
L 247.140546 211.736928 
L 248.166376 254.838014 
L 249.192205 249.256567 
L 250.218035 280.245797 
L 251.243864 238.554982 
L 252.269694 247.923347 
L 253.295523 279.819567 
L 254.321353 269.850469 
L 255.347183 244.349535 
L 256.373012 281.782011 
L 257.398842 282.312584 
L 258.424671 291.549859 
L 259.450501 281.025535 
L 260.476331 293.305946 
L 261.50216 311.767212 
L 262.52799 305.837739 
L 263.553819 269.147075 
L 264.579649 310.611523 
L 265.605478 297.919685 
L 266.631308 297.939124 
L 267.657138 315.675756 
L 268.682967 275.746578 
L 269.708797 333.895861 
L 270.734626 335.208989 
L 271.760456 328.805702 
L 272.786286 334.877776 
L 273.812115 332.788382 
L 274.837945 318.100989 
L 275.863774 325.972415 
L 276.889604 336.322383 
L 277.915433 327.634833 
L 278.941263 305.007132 
L 279.967093 336.196347 
L 280.992922 323.759127 
L 282.018752 340.384892 
L 283.044581 330.175212 
L 284.070411 356.871124 
L 285.09624 360.053675 
L 286.12207 379.031015 
L 287.1479 347.686192 
L 288.173729 337.561405 
L 289.199559 355.495903 
L 290.225388 343.871334 
L 291.251218 371.097043 
L 292.277048 352.381923 
L 293.302877 340.775817 
L 294.328707 376.489249 
L 295.354536 341.156894 
L 296.380366 394.145275 
L 297.406195 373.075485 
L 298.432025 375.936175 
L 299.457855 371.0999 
L 300.483684 345.248721 
L 301.509514 366.156347 
L 302.535343 373.260784 
L 303.561173 463.39221 
L 304.587002 375.795377 
L 305.612832 387.106953 
L 306.638662 393.563965 
L 307.664491 374.125226 
L 308.690321 375.718579 
L 309.71615 380.178033 
L 310.74198 370.544437 
L 311.76781 350.073752 
L 312.793639 388.996881 
L 313.819469 384.64764 
L 314.845298 396.763123 
L 315.871128 391.448497 
L 316.896957 401.738896 
L 317.922787 377.248368 
L 318.948617 391.078651 
L 319.974446 407.426666 
L 321.000276 400.494726 
L 322.026105 387.151992 
L 323.051935 404.574467 
L 324.077765 405.308628 
L 325.103594 480.755823 
L 326.129424 418.270431 
L 327.155253 413.294125 
L 328.181083 406.588262 
L 329.206912 418.156357 
L 330.232742 401.903622 
L 331.258572 401.101263 
L 332.284401 475.750609 
L 333.310231 391.03341 
L 334.33606 427.358407 
L 335.36189 422.141229 
L 336.387719 405.20504 
L 337.413549 418.13504 
L 338.439379 421.0614 
L 339.465208 420.377862 
L 340.491038 427.76407 
L 341.516867 494.814764 
L 342.542697 425.959586 
L 343.568527 413.042284 
L 344.594356 424.44197 
L 345.620186 451.810256 
L 346.646015 529.808261 
L 347.671845 421.829611 
L 348.697674 432.878621 
L 349.723504 430.055497 
L 350.749334 460.801559 
L 351.775163 455.056085 
L 352.800993 435.738359 
L 353.826822 439.547351 
L 354.852652 437.6181 
L 355.878481 425.115395 
L 356.904311 439.45573 
L 357.930141 475.592811 
L 358.95597 444.963178 
L 359.9818 448.251091 
L 361.007629 434.089449 
L 362.033459 440.001607 
L 363.059289 440.292187 
L 364.085118 453.061838 
L 365.110948 450.803765 
L 366.136777 443.567066 
L 367.162607 447.671377 
L 368.188436 442.79945 
L 369.214266 451.85839 
L 370.240096 440.884783 
L 371.265925 457.142617 
L 372.291755 490.940143 
L 373.317584 481.71095 
L 374.343414 447.543413 
L 375.369243 456.663696 
L 376.395073 452.824704 
L 377.420903 451.596725 
L 378.446732 455.938859 
L 379.472562 453.090244 
L 380.498391 455.104431 
L 381.524221 458.102595 
L 382.550051 465.616853 
L 383.57588 461.042576 
L 384.60171 466.324242 
L 385.627539 461.05502 
L 386.653369 467.235658 
L 387.679198 466.891412 
L 388.705028 466.985844 
L 389.730858 500.099893 
L 390.756687 467.68854 
L 391.782517 474.279295 
L 392.808346 469.61729 
L 393.834176 469.210718 
L 394.860006 472.390244 
L 395.885835 468.431026 
L 396.911665 473.426779 
L 397.937494 466.469798 
L 398.963324 468.317151 
L 402.040813 469.527691 
L 403.066642 466.793179 
L 404.092472 468.819564 
L 405.118301 471.201018 
L 406.144131 466.301702 
L 407.16996 476.055835 
L 408.19579 476.281658 
L 409.22162 474.905114 
L 410.247449 472.672367 
L 411.273279 513.925079 
L 412.299108 480.084634 
L 413.324938 479.521284 
L 414.350768 477.053702 
L 415.376597 479.645874 
L 417.428256 475.654655 
L 418.454086 474.456098 
L 419.479915 474.924476 
L 420.505745 493.957631 
L 421.531575 478.568444 
L 422.557404 481.394283 
L 423.583234 483.68146 
L 424.609063 488.255682 
L 425.634893 485.951304 
L 426.660722 434.651365 
L 427.686552 508.038695 
L 428.712382 484.130758 
L 429.738211 481.542072 
L 430.764041 494.554875 
L 431.78987 491.96329 
L 432.8157 510.274724 
L 433.84153 484.157561 
L 434.867359 484.377074 
L 435.893189 487.090235 
L 436.919018 492.145882 
L 437.944848 490.303961 
L 438.970677 483.887693 
L 439.996507 490.453773 
L 441.022337 492.111195 
L 442.048166 489.969089 
L 443.073996 492.793671 
L 444.099825 493.694148 
L 445.125655 492.259621 
L 446.151485 488.392644 
L 447.177314 496.68695 
L 448.203144 497.889641 
L 449.228973 497.408986 
L 450.254803 492.018394 
L 451.280632 494.529216 
L 452.306462 494.180543 
L 453.332292 495.335625 
L 454.358121 491.731478 
L 455.383951 494.232035 
L 456.40978 487.363157 
L 457.43561 518.099439 
L 458.461439 499.552941 
L 459.487269 494.70804 
L 460.513099 502.241075 
L 461.538928 502.748424 
L 462.564758 499.941405 
L 463.590587 498.999662 
L 464.616417 504.171439 
L 465.642247 502.698031 
L 466.668076 496.342185 
L 467.693906 500.795655 
L 468.719735 506.589352 
L 469.745565 502.381963 
L 470.771394 500.628375 
L 471.797224 504.494629 
L 472.823054 503.282571 
L 473.848883 509.600564 
L 474.874713 500.046845 
L 475.900542 502.433557 
L 476.926372 506.981307 
L 477.952201 504.560265 
L 478.978031 510.614595 
L 480.003861 507.96133 
L 481.02969 507.920562 
L 482.05552 506.394905 
L 483.081349 508.05621 
L 484.107179 508.097856 
L 485.133009 507.079976 
L 486.158838 512.320645 
L 487.184668 512.495153 
L 488.210497 510.857896 
L 489.236327 526.812677 
L 490.262156 510.77007 
L 491.287986 512.717968 
L 492.313816 513.326488 
L 493.339645 512.952319 
L 494.365475 512.432243 
L 495.391304 511.034816 
L 496.417134 512.802955 
L 498.468793 513.179801 
L 499.494623 515.176169 
L 500.520452 516.845266 
L 501.546282 515.139826 
L 502.572111 516.127807 
L 504.623771 515.139015 
L 505.6496 515.429418 
L 506.67543 518.13057 
L 507.701259 516.986679 
L 508.727089 516.133055 
L 509.752918 518.964345 
L 510.778748 520.481601 
L 511.804578 527.752725 
L 512.830407 527.052194 
L 513.856237 528.550291 
L 514.882066 527.677302 
L 515.907896 526.527039 
L 516.933726 518.101422 
L 517.959555 507.287762 
L 518.985385 522.861444 
L 520.011214 530.685584 
L 521.037044 520.264395 
L 522.062873 526.46781 
L 523.088703 528.341142 
L 524.114533 526.951546 
L 525.140362 527.123412 
L 526.166192 532.075797 
L 527.192021 532.157388 
L 528.217851 519.588606 
L 529.24368 524.142654 
L 530.26951 526.713727 
L 531.29534 525.069554 
L 532.321169 517.272875 
L 533.346999 512.211074 
L 534.372828 550.610575 
L 535.398658 529.673637 
L 536.424488 522.911619 
L 537.450317 529.758506 
L 538.476147 534.741145 
L 539.501976 528.499332 
L 540.527806 533.014321 
L 541.553635 534.278842 
L 542.579465 528.510429 
L 543.605295 535.472812 
L 544.631124 548.645097 
L 545.656954 529.163561 
L 546.682783 528.8411 
L 547.708613 532.391637 
L 548.734443 532.132042 
L 549.760272 524.639012 
L 550.786102 532.607267 
L 551.811931 527.102282 
L 552.837761 523.48913 
L 553.86359 529.380705 
L 554.88942 533.074989 
L 555.91525 531.295233 
L 557.966909 544.952853 
L 558.992738 537.152822 
L 560.018568 535.977348 
L 561.044397 538.765735 
L 562.070227 538.813421 
L 563.096057 535.178818 
L 564.121886 537.4616 
L 565.147716 533.631063 
L 566.173545 540.515376 
L 567.199375 532.587961 
L 568.225205 536.703185 
L 569.251034 538.280425 
L 570.276864 528.319225 
L 571.302693 533.745396 
L 572.328523 540.61031 
L 573.354352 540.224316 
L 574.380182 539.393711 
L 575.406012 541.128981 
L 576.431841 540.675387 
L 577.457671 541.088873 
L 578.4835 542.078857 
L 579.50933 537.80202 
L 580.535159 544.310482 
L 581.560989 544.27227 
L 582.586819 538.601685 
L 583.612648 542.469632 
L 584.638478 543.235912 
L 585.664307 542.330517 
L 586.690137 545.022328 
L 587.715967 548.114138 
L 588.741796 548.106195 
L 589.767626 545.648484 
L 590.793455 540.916796 
L 591.819285 547.697439 
L 592.845114 543.291232 
L 593.870944 544.247955 
L 594.896774 543.388217 
L 595.922603 540.663499 
L 596.948433 546.102298 
L 597.974262 542.137826 
L 599.000092 542.765492 
L 600.025922 543.667536 
L 601.051751 545.771786 
L 602.077581 535.589129 
L 603.10341 540.474498 
L 604.12924 544.474582 
L 605.155069 543.384583 
L 606.180899 541.598599 
L 607.206729 539.478496 
L 608.232558 543.791908 
L 609.258388 545.493568 
L 610.284217 541.858474 
L 611.310047 539.153342 
L 612.335876 544.729293 
L 613.361706 544.079536 
L 614.387536 541.858907 
L 615.413365 541.578241 
L 616.439195 543.974751 
L 617.465024 545.696033 
L 618.490854 541.305552 
L 619.516684 541.313516 
L 620.542513 545.531609 
L 621.568343 547.198788 
L 622.594172 542.578505 
L 623.620002 543.090938 
L 624.645831 546.092013 
L 625.671661 546.777327 
L 626.697491 543.048771 
L 627.72332 543.004433 
L 628.74915 546.360028 
L 629.774979 547.355301 
L 631.826638 543.30675 
L 632.852468 548.054067 
L 633.878298 549.126378 
L 634.904127 546.999839 
L 635.929957 546.945976 
L 636.955786 549.476747 
L 637.981616 549.897687 
L 639.007446 548.057741 
L 640.033275 548.210969 
L 641.059105 560.283877 
L 642.084934 554.049259 
L 643.110764 547.043931 
L 644.136593 559.028578 
L 645.162423 549.485667 
L 646.188253 551.071131 
L 647.214082 547.629932 
L 648.239912 547.69296 
L 649.265741 572.027298 
L 650.291571 551.374097 
L 651.3174 548.9359 
L 652.34323 547.657885 
L 653.36906 551.842988 
L 655.420719 549.354749 
L 656.446548 548.763369 
L 657.472378 558.844092 
L 658.498208 552.576549 
L 659.524037 554.581236 
L 660.549867 548.407295 
L 661.575696 552.304949 
L 662.601526 551.519975 
L 663.627355 549.906347 
L 664.653185 549.478802 
L 665.679015 552.108083 
L 666.704844 553.479869 
L 667.730674 550.016724 
L 668.756503 550.117173 
L 669.782333 554.38613 
L 670.808163 552.684216 
L 671.833992 552.382364 
L 672.859822 551.774276 
L 673.885651 547.762011 
L 674.911481 557.607487 
L 675.93731 553.095257 
L 676.96314 552.233505 
L 677.98897 553.932462 
L 679.014799 553.887339 
L 681.066458 551.456581 
L 683.118117 556.066934 
L 684.143947 553.422069 
L 685.169777 552.385892 
L 686.195606 555.593892 
L 687.221436 556.429597 
L 688.247265 552.068453 
L 689.273095 553.738369 
L 690.298925 556.507655 
L 691.324754 557.103938 
L 692.350584 554.189519 
L 693.376413 558.69652 
L 694.402243 558.205182 
L 695.428072 557.346576 
L 696.453902 563.744389 
L 697.479732 554.891075 
L 698.505561 558.38826 
L 699.531391 558.325127 
L 700.55722 556.45556 
L 702.608879 560.126483 
L 703.634709 558.884383 
L 704.660539 557.201372 
L 705.686368 556.808847 
L 706.712198 559.569804 
L 707.738027 558.540423 
L 708.763857 557.680788 
L 709.789687 557.420333 
L 710.815516 560.509799 
L 711.841346 559.768002 
L 713.893005 557.213874 
L 714.918834 559.717596 
L 715.944664 559.905846 
L 716.970494 558.32296 
L 717.996323 558.270869 
L 719.022153 559.614271 
L 720.047982 560.378251 
L 721.073812 558.41967 
L 722.099642 557.858674 
L 723.125471 561.395948 
L 724.151301 561.618332 
L 725.17713 559.226569 
L 726.20296 558.998694 
L 727.228789 561.458085 
L 728.254619 561.635156 
L 729.280449 559.763032 
L 730.306278 559.002656 
L 731.332108 561.393538 
L 732.357937 561.633056 
L 733.383767 559.16634 
L 734.409596 559.989896 
L 735.435426 562.85942 
L 736.461256 562.526483 
L 737.487085 561.050844 
L 738.512915 560.763391 
L 739.538744 563.47441 
L 740.564574 563.045928 
L 741.590404 561.034066 
L 742.616233 560.250689 
L 743.642063 562.558362 
L 744.667892 563.663805 
L 745.693722 572.683151 
L 746.719551 566.161056 
L 747.745381 565.881313 
L 748.771211 566.038876 
L 749.79704 562.597402 
L 750.82287 561.57303 
L 751.848699 564.333807 
L 752.874529 564.280984 
L 753.900358 562.392559 
L 754.926188 562.019449 
L 755.952018 564.567222 
L 756.977847 564.357712 
L 758.003677 561.996897 
L 759.029506 563.014369 
L 760.055336 564.586969 
L 761.081166 564.378919 
L 762.106995 562.728668 
L 763.132825 562.721909 
L 764.158654 564.817347 
L 765.184484 561.532937 
L 766.210313 562.548093 
L 767.236143 562.57866 
L 768.261973 565.313518 
L 769.287802 565.623041 
L 770.313632 563.764707 
L 771.339461 563.857759 
L 772.365291 565.866018 
L 773.391121 565.69314 
L 774.41695 564.119209 
L 775.44278 564.632484 
L 776.468609 556.841657 
L 777.494439 569.908035 
L 778.520268 564.015047 
L 779.546098 563.156864 
L 780.571928 565.867365 
L 781.597757 566.796039 
L 782.623587 564.85441 
L 783.649416 565.295348 
L 784.675246 567.177737 
L 785.701075 566.530877 
L 786.726905 564.413608 
L 787.752735 564.372612 
L 788.778564 567.059129 
L 789.804394 567.191822 
L 790.830223 565.329711 
L 791.856053 565.64043 
L 792.881883 567.969331 
L 793.907712 567.876197 
L 794.933542 565.521724 
L 795.959371 566.045428 
L 796.985201 567.997342 
L 798.01103 568.396319 
L 799.03686 567.128498 
L 800.06269 566.970714 
L 801.088519 569.544244 
L 802.114349 568.45537 
L 803.140178 566.070236 
L 804.166008 566.867886 
L 805.191837 568.361904 
L 806.217667 568.858845 
L 807.243497 566.928687 
L 808.269326 566.696858 
L 809.295156 568.770532 
L 810.320985 568.093029 
L 811.346815 530.682198 
L 812.372645 563.565791 
L 813.398474 586.41638 
L 814.424304 569.749209 
L 815.450133 557.439824 
L 816.475963 567.977139 
L 817.501792 561.300785 
L 818.527622 569.74697 
L 819.553452 568.093744 
L 820.579281 568.886347 
L 821.605111 569.409142 
L 822.63094 569.464243 
L 823.65677 568.314448 
L 824.6826 568.238948 
L 825.708429 575.159713 
L 826.734259 569.620096 
L 827.760088 568.159723 
L 828.785918 567.950404 
L 829.811747 570.259428 
L 830.837577 570.684623 
L 831.863407 568.604411 
L 832.889236 568.818354 
L 833.915066 570.767787 
L 835.966725 570.71492 
L 836.992554 568.7863 
L 838.018384 570.340052 
L 839.044214 569.94186 
L 840.070043 569.084339 
L 841.095873 570.589992 
L 842.121702 575.384695 
L 843.147532 570.330731 
L 844.173362 569.965842 
L 845.199191 570.272205 
L 846.225021 570.846271 
L 847.25085 571.814955 
L 848.27668 571.089554 
L 849.302509 571.084374 
L 850.328339 568.333841 
L 851.354169 579.79721 
L 852.379998 573.464308 
L 853.405828 571.802655 
L 854.431657 571.20032 
L 855.457487 571.446406 
L 856.483316 571.191969 
L 857.509146 571.319409 
L 858.534976 572.504856 
L 859.560805 572.080968 
L 860.586635 571.527289 
L 861.612464 570.755693 
L 862.638294 571.55807 
L 863.664124 572.061331 
L 864.689953 571.586819 
L 866.741612 571.387672 
L 867.767442 572.434447 
L 868.793271 571.849229 
L 869.819101 571.647755 
L 870.844931 571.830135 
L 871.87076 572.864855 
L 872.89659 573.056343 
L 873.922419 572.138255 
L 874.948249 573.250895 
L 875.974078 573.335433 
L 876.999908 572.511425 
L 878.025738 572.720776 
L 879.051567 572.806415 
L 881.103226 572.461435 
L 882.129056 572.635213 
L 883.154886 573.413026 
L 884.180715 572.896585 
L 885.206545 573.100485 
L 886.232374 572.805114 
L 887.258204 573.61423 
L 888.284033 573.554565 
L 890.335693 573.3146 
L 891.361522 573.173539 
L 892.387352 573.950755 
L 893.413181 573.358451 
L 895.464841 573.517193 
L 896.49067 573.371544 
L 897.5165 573.433975 
L 898.542329 580.007298 
L 899.568159 574.350794 
L 900.593988 574.395122 
L 901.619818 574.090355 
L 902.645648 573.145971 
L 903.671477 576.590444 
L 905.723136 575.104497 
L 906.748966 576.211787 
L 907.774795 575.675224 
L 909.826455 575.074787 
L 910.852284 575.419221 
L 911.878114 575.483535 
L 912.903943 581.065393 
L 913.929773 574.940585 
L 914.955603 574.809253 
L 915.981432 575.353373 
L 917.007262 585.571098 
L 918.033091 575.350752 
L 919.058921 575.877107 
L 920.08475 575.518706 
L 921.11058 575.769369 
L 922.13641 575.457827 
L 923.162239 578.960446 
L 924.188069 576.708149 
L 925.213898 576.336872 
L 926.239728 576.383056 
L 927.265557 576.050882 
L 928.291387 576.179635 
L 929.317217 578.696503 
L 930.343046 583.712528 
L 931.368876 576.306332 
L 932.394705 576.371369 
L 933.420535 576.757974 
L 934.446365 576.45285 
L 935.472194 565.656451 
L 936.498024 577.388641 
L 937.523853 576.73745 
L 938.549683 576.454743 
L 939.575512 576.702423 
L 940.601342 576.371638 
L 941.627172 576.814673 
L 942.653001 576.726533 
L 943.678831 576.947279 
L 944.70466 576.896526 
L 945.73049 577.498349 
L 946.75632 577.067897 
L 948.807979 576.830171 
L 949.833808 577.571159 
L 950.859638 577.431923 
L 952.911297 578.3027 
L 953.937127 588.893577 
L 954.962956 577.956442 
L 955.988786 587.037292 
L 957.014615 581.395147 
L 958.040445 579.897642 
L 959.066274 578.673896 
L 960.092104 578.313806 
L 961.117934 578.595371 
L 962.143763 579.657314 
L 963.169593 578.598526 
L 964.195422 578.42354 
L 967.272911 578.316974 
L 968.298741 582.328874 
L 969.32457 578.887982 
L 970.3504 578.703474 
L 971.376229 578.153616 
L 972.402059 578.249688 
L 974.453718 579.210549 
L 975.479548 583.352391 
L 976.505377 579.369403 
L 977.531207 579.479648 
L 978.557036 579.861059 
L 979.582866 581.075807 
L 980.608696 579.194677 
L 982.660355 579.576116 
L 984.712014 578.794179 
L 985.737844 579.464629 
L 986.763673 579.760312 
L 987.789503 579.430487 
L 988.815332 578.916959 
L 989.841162 579.47998 
L 990.866991 579.695994 
L 991.892821 579.211822 
L 994.97031 580.204168 
L 995.996139 579.476166 
L 997.021969 579.596187 
L 998.047799 579.950865 
L 999.073628 579.990053 
L 1000.099458 579.38853 
L 1001.125287 579.705081 
L 1002.151117 580.206262 
L 1003.176946 580.16859 
L 1004.202776 580.759171 
L 1005.228606 579.850606 
L 1006.254435 580.377439 
L 1007.280265 580.393975 
L 1008.306094 584.028236 
L 1009.331924 581.591723 
L 1010.357753 581.174449 
L 1011.383583 581.280853 
L 1012.409413 580.400045 
L 1013.435242 580.721793 
L 1014.461072 581.268558 
L 1016.512731 580.895925 
L 1017.538561 577.701935 
L 1018.56439 581.090528 
L 1019.59022 581.437949 
L 1020.616049 581.111937 
L 1023.693538 581.43515 
L 1024.719368 581.0737 
L 1025.745197 581.117489 
L 1026.771027 581.663565 
L 1027.796856 581.197355 
L 1028.822686 581.649377 
L 1029.848515 581.238286 
L 1030.874345 581.931171 
L 1031.900175 585.304622 
L 1032.926004 581.489102 
L 1033.951834 581.306409 
L 1034.977663 581.552677 
L 1036.003493 582.033247 
L 1037.029323 581.645329 
L 1038.055152 581.670221 
L 1039.080982 581.994918 
L 1040.106811 582.111816 
L 1041.132641 581.605536 
L 1042.15847 581.499937 
L 1043.1843 582.030334 
L 1044.21013 582.230265 
L 1045.235959 582.937453 
L 1047.287618 581.916776 
L 1048.313448 581.886785 
L 1050.365107 583.300194 
L 1051.390937 582.570326 
L 1052.416766 582.540853 
L 1053.442596 583.144503 
L 1054.468425 583.137349 
L 1055.494255 582.664417 
L 1056.520085 582.671745 
L 1057.545914 583.527672 
L 1058.571744 583.707625 
L 1059.597573 586.039594 
L 1060.623403 583.15565 
L 1061.649232 589.656097 
L 1062.675062 586.164519 
L 1063.700892 583.717999 
L 1064.726721 583.467171 
L 1065.752551 584.352414 
L 1066.77838 584.029199 
L 1067.80421 583.497529 
L 1068.83004 583.398358 
L 1069.855869 584.318601 
L 1070.881699 584.403207 
L 1071.907528 583.707708 
L 1072.933358 583.295252 
L 1073.959187 584.277099 
L 1074.985017 584.493164 
L 1077.036676 583.610258 
L 1078.062506 584.5649 
L 1079.088335 584.723603 
L 1080.114165 583.613284 
L 1081.139994 583.685311 
L 1082.165824 584.680095 
L 1083.191654 584.332093 
L 1084.217483 586.761008 
L 1085.243313 584.169843 
L 1086.269142 584.577972 
L 1087.294972 584.387928 
L 1088.320802 587.360649 
L 1089.346631 583.949243 
L 1090.372461 585.684549 
L 1091.39829 584.726135 
L 1092.42412 584.143664 
L 1093.449949 584.357117 
L 1094.475779 585.006521 
L 1095.501609 585.34282 
L 1096.527438 584.464297 
L 1097.553268 585.583345 
L 1098.579097 584.900406 
L 1099.604927 586.078172 
L 1100.630757 585.696886 
L 1101.656586 584.579089 
L 1102.682416 585.684096 
L 1103.708245 585.585093 
L 1104.734075 584.636042 
L 1105.759904 584.788104 
L 1106.785734 589.575416 
L 1107.811564 586.01839 
L 1108.837393 585.041299 
L 1109.863223 584.653349 
L 1110.889052 585.903774 
L 1111.914882 586.248306 
L 1112.940711 584.305889 
L 1113.966541 586.423317 
L 1114.992371 586.632207 
L 1116.0182 587.027098 
L 1117.04403 585.398153 
L 1118.069859 585.211501 
L 1119.095689 586.085878 
L 1120.121519 586.136932 
L 1121.147348 585.469566 
L 1122.173178 585.539011 
L 1123.199007 586.203024 
L 1124.224837 589.270854 
L 1125.250666 585.419547 
L 1126.276496 585.268524 
L 1127.302326 586.268423 
L 1128.328155 586.354938 
L 1129.353985 585.647009 
L 1130.379814 585.723036 
L 1131.405644 586.361689 
L 1132.431473 586.609956 
L 1133.457303 585.577784 
L 1134.483133 585.9897 
L 1135.508962 586.646828 
L 1136.534792 586.337369 
L 1137.560621 588.736581 
L 1138.586451 585.786172 
L 1139.612281 586.779005 
L 1140.63811 589.130083 
L 1141.66394 585.707541 
L 1142.689769 586.272336 
L 1143.715599 588.125901 
L 1144.741428 586.821017 
L 1145.767258 586.487751 
L 1146.793088 586.37498 
L 1147.818917 587.039603 
L 1148.844747 586.958551 
L 1149.870576 586.183145 
L 1150.896406 586.273278 
L 1151.922235 587.150806 
L 1152.948065 586.992608 
L 1153.973895 586.491212 
L 1154.999724 586.434227 
L 1156.025554 587.54135 
L 1157.051383 587.055106 
L 1158.077213 586.694239 
L 1159.103043 586.652401 
L 1160.128872 587.690713 
L 1161.154702 587.518355 
L 1162.180531 586.97281 
L 1163.206361 586.710162 
L 1164.23219 588.145974 
L 1165.25802 587.321134 
L 1166.28385 592.422564 
L 1167.309679 588.809018 
L 1168.335509 587.494655 
L 1169.361338 587.394467 
L 1170.387168 586.292946 
L 1171.412998 586.237253 
L 1172.438827 587.15104 
L 1173.464657 586.764253 
L 1174.490486 587.620814 
L 1175.516316 586.132256 
L 1176.542145 586.73467 
L 1177.567975 586.808327 
L 1178.593805 586.208051 
L 1179.619634 586.300456 
L 1180.645464 591.885599 
L 1181.671293 587.511257 
L 1182.697123 586.469179 
L 1183.722952 586.100014 
L 1184.748782 587.03389 
L 1185.774612 586.834106 
L 1187.826271 585.663463 
L 1188.8521 587.287362 
L 1189.87793 586.797036 
L 1190.90376 586.162803 
L 1191.929589 586.142922 
L 1192.955419 586.912131 
L 1195.007078 587.369229 
L 1196.032907 590.631637 
L 1197.058737 588.251689 
L 1198.084567 588.116759 
L 1199.110396 587.648902 
L 1200.136226 587.894238 
L 1201.162055 589.323452 
L 1202.187885 588.769542 
L 1203.213714 587.755224 
L 1204.239544 587.931834 
L 1205.265374 588.569592 
L 1206.291203 588.754239 
L 1207.317033 587.897562 
L 1208.342862 588.207642 
L 1209.368692 589.334295 
L 1210.394522 588.899745 
L 1211.420351 588.240235 
L 1212.446181 588.098396 
L 1213.47201 588.930905 
L 1214.49784 589.038575 
L 1215.523669 588.268768 
L 1216.549499 588.557608 
L 1217.575329 589.517585 
L 1218.601158 589.809472 
L 1219.626988 588.802961 
L 1220.652817 588.668532 
L 1221.678647 589.462239 
L 1222.704477 588.772926 
L 1224.756136 588.535813 
L 1225.781965 589.228678 
L 1226.807795 589.31427 
L 1227.833624 588.888284 
L 1228.859454 588.663118 
L 1229.885284 589.501222 
L 1230.911113 589.452169 
L 1231.936943 588.834489 
L 1232.962772 588.859241 
L 1233.988602 589.52107 
L 1235.014431 589.6545 
L 1236.040261 589.218323 
L 1237.066091 588.9355 
L 1238.09192 589.905613 
L 1239.11775 589.789239 
L 1240.143579 589.041687 
L 1241.169409 589.198769 
L 1242.195239 589.727128 
L 1243.221068 589.768317 
L 1244.246898 595.438303 
L 1245.272727 589.529213 
L 1245.272727 589.529213 
" style="fill:none;stroke:#1f77b4;stroke-linecap:square;stroke-width:1.5;"/>
   </g>
   <g id="line2d_17">
    <path clip-path="url(#pb610e2e782)" d="M 230.727273 227.928096 
L 231.753102 165.232478 
L 232.778932 201.398485 
L 233.804761 250.189938 
L 234.830591 229.142407 
L 235.856421 259.512211 
L 236.88225 279.430209 
L 237.90808 284.983662 
L 238.933909 268.504464 
L 239.959739 301.20576 
L 240.985569 322.327189 
L 242.011398 281.862636 
L 243.037228 311.476568 
L 244.063057 309.645038 
L 245.088887 269.922642 
L 246.114716 320.682014 
L 247.140546 327.998942 
L 248.166376 334.361577 
L 249.192205 321.440898 
L 250.218035 322.777328 
L 251.243864 355.383176 
L 252.269694 358.217695 
L 253.295523 364.967208 
L 254.321353 357.47862 
L 255.347183 373.043129 
L 256.373012 355.738072 
L 257.398842 361.113868 
L 258.424671 359.345279 
L 259.450501 384.068883 
L 260.476331 369.21733 
L 261.50216 389.346374 
L 262.52799 394.442133 
L 263.553819 389.640598 
L 264.579649 376.989163 
L 265.605478 397.905227 
L 266.631308 385.898345 
L 267.657138 394.950977 
L 268.682967 399.334544 
L 269.708797 418.29062 
L 270.734626 408.572241 
L 271.760456 425.417038 
L 272.786286 429.27546 
L 273.812115 430.443629 
L 274.837945 412.727915 
L 275.863774 430.995879 
L 276.889604 425.8502 
L 277.915433 435.350177 
L 278.941263 420.746667 
L 279.967093 457.776537 
L 280.992922 425.095065 
L 282.018752 440.879533 
L 283.044581 435.106319 
L 284.070411 446.115371 
L 285.09624 436.507203 
L 286.12207 449.312586 
L 287.1479 450.471602 
L 288.173729 449.850133 
L 289.199559 451.023137 
L 290.225388 456.833959 
L 291.251218 443.226047 
L 292.277048 466.471949 
L 293.302877 454.030008 
L 294.328707 465.506196 
L 295.354536 464.014288 
L 296.380366 469.583034 
L 297.406195 456.829795 
L 298.432025 469.289821 
L 299.457855 472.889145 
L 300.483684 466.984675 
L 301.509514 476.578005 
L 302.535343 480.920888 
L 303.561173 479.402719 
L 304.587002 518.879908 
L 305.612832 482.862528 
L 306.638662 479.227492 
L 307.664491 480.46124 
L 308.690321 485.263978 
L 309.71615 484.175314 
L 310.74198 481.808248 
L 311.76781 484.356232 
L 312.793639 488.622945 
L 313.819469 482.898574 
L 314.845298 493.446503 
L 315.871128 483.220054 
L 316.896957 492.541407 
L 317.922787 492.023587 
L 318.948617 495.379337 
L 319.974446 490.375026 
L 321.000276 497.871631 
L 322.026105 489.220122 
L 323.051935 493.533608 
L 324.077765 492.217028 
L 325.103594 510.128967 
L 326.129424 494.094332 
L 327.155253 506.441819 
L 328.181083 503.006575 
L 329.206912 505.219903 
L 330.232742 501.727344 
L 331.258572 504.797598 
L 332.284401 503.370276 
L 333.310231 504.994556 
L 334.33606 502.690436 
L 335.36189 511.416427 
L 336.387719 506.457494 
L 337.413549 513.673255 
L 338.439379 510.681292 
L 339.465208 514.23054 
L 340.491038 510.034502 
L 341.516867 515.323895 
L 342.542697 513.788101 
L 343.568527 518.363902 
L 344.594356 513.615086 
L 345.620186 522.365494 
L 346.646015 518.354572 
L 347.671845 517.773507 
L 348.697674 516.798053 
L 349.723504 521.204201 
L 350.749334 515.837822 
L 351.775163 523.995058 
L 352.800993 518.638769 
L 353.826822 525.059195 
L 354.852652 520.43612 
L 355.878481 525.154656 
L 356.904311 525.729952 
L 357.930141 524.986768 
L 358.95597 523.679545 
L 359.9818 527.589995 
L 361.007629 524.108638 
L 362.033459 529.229041 
L 363.059289 528.170503 
L 364.085118 528.714376 
L 365.110948 528.409536 
L 366.136777 532.297359 
L 367.162607 529.747765 
L 368.188436 532.625039 
L 369.214266 528.247785 
L 370.240096 530.924301 
L 371.265925 532.15325 
L 372.291755 534.153652 
L 373.317584 530.547165 
L 374.343414 532.832075 
L 375.369243 534.189615 
L 376.395073 537.220201 
L 377.420903 534.358154 
L 378.446732 545.27303 
L 379.472562 536.46577 
L 380.498391 540.22896 
L 381.524221 551.728447 
L 382.550051 540.612157 
L 383.57588 538.623881 
L 384.60171 539.701246 
L 385.627539 535.878251 
L 386.653369 539.523373 
L 387.679198 537.58038 
L 388.705028 542.671439 
L 389.730858 534.960684 
L 390.756687 542.29097 
L 391.782517 540.828613 
L 392.808346 543.960684 
L 393.834176 541.272861 
L 394.860006 544.077687 
L 395.885835 542.725273 
L 396.911665 546.11269 
L 397.937494 543.516766 
L 398.963324 547.165808 
L 399.989153 543.796684 
L 401.014983 545.154325 
L 402.040813 544.690848 
L 403.066642 547.553135 
L 404.092472 556.687525 
L 405.118301 549.590397 
L 406.144131 546.932556 
L 407.16996 550.499106 
L 408.19579 547.090729 
L 409.22162 549.733331 
L 410.247449 548.823254 
L 411.273279 550.647248 
L 412.299108 549.071973 
L 413.324938 552.082816 
L 414.350768 548.450088 
L 415.376597 552.64752 
L 416.402427 550.946838 
L 417.428256 555.376672 
L 418.454086 551.366417 
L 419.479915 554.40674 
L 420.505745 552.283095 
L 421.531575 554.026558 
L 422.557404 552.129774 
L 423.583234 556.085471 
L 424.609063 554.937878 
L 425.634893 556.035648 
L 426.660722 552.740177 
L 427.686552 557.327712 
L 428.712382 554.354056 
L 429.738211 558.461604 
L 430.764041 566.374437 
L 431.78987 559.723125 
L 432.8157 555.531028 
L 433.84153 559.598354 
L 434.867359 555.327382 
L 435.893189 558.851489 
L 436.919018 556.872215 
L 437.944848 560.111229 
L 438.970677 557.771343 
L 439.996507 560.324877 
L 441.022337 559.061806 
L 442.048166 561.248314 
L 443.073996 558.579414 
L 444.099825 560.738505 
L 445.125655 560.054279 
L 446.151485 562.391776 
L 447.177314 560.945665 
L 448.203144 562.04129 
L 449.228973 561.050228 
L 450.254803 560.815393 
L 451.280632 568.148538 
L 452.306462 563.932395 
L 453.332292 561.642953 
L 454.358121 563.868126 
L 455.383951 563.02393 
L 456.40978 565.513683 
L 457.43561 563.941635 
L 458.461439 565.46855 
L 459.487269 564.921654 
L 460.513099 566.495943 
L 461.538928 563.98584 
L 462.564758 573.998275 
L 463.590587 564.545004 
L 464.616417 567.453126 
L 465.642247 564.441974 
L 466.668076 567.808008 
L 467.693906 566.705444 
L 468.719735 567.789116 
L 469.745565 566.287928 
L 470.771394 568.374895 
L 471.797224 569.167996 
L 472.823054 570.531006 
L 473.848883 567.821433 
L 474.874713 570.76875 
L 475.900542 569.154812 
L 476.926372 571.70184 
L 477.952201 569.787986 
L 478.978031 570.924525 
L 480.003861 570.09766 
L 481.02969 571.478216 
L 482.05552 570.842526 
L 483.081349 577.416082 
L 484.107179 573.431015 
L 485.133009 573.468846 
L 486.158838 571.910231 
L 487.184668 573.515686 
L 488.210497 574.553726 
L 489.236327 574.043723 
L 490.262156 574.000179 
L 491.287986 576.076003 
L 492.313816 572.332099 
L 493.339645 574.530282 
L 494.365475 573.427872 
L 495.391304 574.882917 
L 496.417134 574.614426 
L 497.442964 574.736148 
L 498.468793 573.186705 
L 499.494623 581.362283 
L 500.520452 573.154894 
L 501.546282 576.117409 
L 502.572111 555.596498 
L 503.597941 571.001611 
L 504.623771 561.628508 
L 505.6496 572.104908 
L 506.67543 574.682787 
L 507.701259 572.41186 
L 509.752918 579.065042 
L 510.778748 575.847144 
L 511.804578 575.176737 
L 512.830407 576.369435 
L 513.856237 578.999273 
L 514.882066 576.339686 
L 515.907896 578.349411 
L 516.933726 577.132595 
L 517.959555 578.060783 
L 518.985385 579.967789 
L 520.011214 578.934899 
L 521.037044 577.463507 
L 522.062873 581.63852 
L 523.088703 577.515661 
L 524.114533 580.426306 
L 525.140362 579.05503 
L 526.166192 581.690793 
L 527.192021 578.418914 
L 528.217851 579.999483 
L 529.24368 583.228409 
L 530.26951 581.052507 
L 531.29534 580.370709 
L 532.321169 580.959829 
L 533.346999 578.326621 
L 534.372828 581.728975 
L 535.398658 578.976253 
L 536.424488 587.608892 
L 537.450317 580.270569 
L 538.476147 581.861681 
L 539.501976 579.934337 
L 540.527806 581.910651 
L 541.553635 579.816694 
L 542.579465 581.999065 
L 543.605295 580.92777 
L 544.631124 582.093082 
L 545.656954 581.040701 
L 546.682783 582.57384 
L 547.708613 581.056813 
L 548.734443 587.073607 
L 549.760272 581.534891 
L 550.786102 583.304987 
L 551.811931 582.738 
L 552.837761 583.439366 
L 553.86359 581.75529 
L 554.88942 583.724911 
L 555.91525 582.073633 
L 556.941079 584.445486 
L 557.966909 585.352618 
L 558.992738 584.121944 
L 560.018568 582.451463 
L 561.044397 587.278222 
L 562.070227 585.392041 
L 563.096057 585.077804 
L 564.121886 583.503563 
L 565.147716 585.105306 
L 566.173545 583.685207 
L 567.199375 585.20874 
L 568.225205 584.074305 
L 569.251034 585.619809 
L 570.276864 584.255042 
L 571.302693 584.504002 
L 572.328523 586.587753 
L 573.354352 585.437713 
L 574.380182 584.484182 
L 575.406012 585.838594 
L 576.431841 585.012863 
L 577.457671 578.636248 
L 578.4835 577.916652 
L 579.50933 586.216806 
L 580.535159 585.240639 
L 581.560989 588.849024 
L 582.586819 585.295463 
L 583.612648 586.572953 
L 584.638478 585.670411 
L 585.664307 587.049113 
L 586.690137 582.137545 
L 587.715967 587.97835 
L 588.741796 589.167544 
L 589.767626 588.006049 
L 590.793455 586.406719 
L 591.819285 588.44623 
L 592.845114 588.263839 
L 593.870944 588.489807 
L 594.896774 587.735215 
L 595.922603 586.687323 
L 596.948433 587.658616 
L 597.974262 586.953085 
L 599.000092 587.942151 
L 600.025922 587.294472 
L 601.051751 588.640078 
L 602.077581 587.227604 
L 603.10341 588.698754 
L 604.12924 590.729427 
L 605.155069 588.613276 
L 606.180899 587.341792 
L 607.206729 589.663812 
L 608.232558 587.723365 
L 609.258388 589.097741 
L 610.284217 587.578352 
L 611.310047 589.479312 
L 612.335876 588.568955 
L 613.361706 589.623719 
L 614.387536 590.452544 
L 615.413365 589.614525 
L 616.439195 589.99448 
L 617.465024 592.955437 
L 618.490854 589.147778 
L 619.516684 590.016937 
L 620.542513 589.267368 
L 621.568343 589.223263 
L 622.594172 588.355972 
L 623.620002 590.164538 
L 624.645831 590.494039 
L 626.697491 589.762729 
L 627.72332 594.916124 
L 628.74915 589.019869 
L 629.774979 593.885947 
L 630.800809 583.367066 
L 631.826638 590.362709 
L 632.852468 589.009859 
L 633.878298 588.012066 
L 634.904127 590.781211 
L 635.929957 591.887538 
L 636.955786 589.91544 
L 637.981616 589.958621 
L 639.007446 589.861197 
L 640.033275 594.859897 
L 641.059105 592.459574 
L 642.084934 592.246562 
L 643.110764 589.9461 
L 644.136593 590.693587 
L 645.162423 590.763939 
L 646.188253 592.409795 
L 648.239912 590.876222 
L 649.265741 591.411468 
L 650.291571 590.709338 
L 651.3174 593.10482 
L 652.34323 591.40291 
L 653.36906 592.816173 
L 654.394889 592.7002 
L 655.420719 592.734697 
L 656.446548 592.181294 
L 657.472378 593.475871 
L 658.498208 592.198928 
L 659.524037 597.512732 
L 660.549867 591.770943 
L 661.575696 593.877266 
L 662.601526 592.758243 
L 663.627355 594.321735 
L 664.653185 592.566813 
L 665.679015 594.345963 
L 666.704844 593.208331 
L 667.730674 594.664933 
L 668.756503 593.343468 
L 669.782333 594.658639 
L 670.808163 593.252216 
L 671.833992 594.758925 
L 672.859822 593.5048 
L 673.885651 595.02522 
L 674.911481 593.452784 
L 675.93731 594.978233 
L 676.96314 593.576291 
L 677.98897 595.236254 
L 679.014799 593.755997 
L 681.066458 596.534553 
L 683.118117 593.968096 
L 684.143947 595.512839 
L 685.169777 594.147169 
L 686.195606 595.652263 
L 687.221436 594.143703 
L 688.247265 595.605382 
L 689.273095 594.336838 
L 690.298925 595.532627 
L 691.324754 594.588106 
L 692.350584 597.102208 
L 693.376413 600.63482 
L 694.402243 596.871441 
L 695.428072 594.920765 
L 696.453902 596.032185 
L 697.479732 595.003573 
L 698.505561 596.035705 
L 699.531391 595.226279 
L 700.55722 596.927807 
L 701.58305 595.371304 
L 702.608879 596.670966 
L 703.634709 595.864034 
L 704.660539 598.505217 
L 705.686368 595.605603 
L 706.712198 596.894797 
L 707.738027 596.649489 
L 708.763857 596.987109 
L 709.789687 596.060434 
L 710.815516 597.006346 
L 711.841346 595.908071 
L 712.867175 597.38677 
L 713.893005 596.322662 
L 714.918834 597.432401 
L 715.944664 596.190086 
L 716.970494 597.563921 
L 717.996323 596.580038 
L 719.022153 597.655362 
L 720.047982 597.060784 
L 721.073812 597.783807 
L 722.099642 596.682192 
L 723.125471 592.062165 
L 724.151301 577.240147 
L 725.17713 600.351436 
L 726.20296 596.728015 
L 727.228789 598.150858 
L 728.254619 597.04751 
L 729.280449 598.438031 
L 730.306278 597.128357 
L 731.332108 598.256157 
L 732.357937 597.315318 
L 733.383767 598.603447 
L 734.409596 597.365205 
L 735.435426 598.667731 
L 736.461256 597.483993 
L 737.487085 598.602719 
L 738.512915 597.550013 
L 739.538744 598.930544 
L 740.564574 598.525747 
L 741.590404 599.149148 
L 742.616233 597.904406 
L 743.642063 599.16111 
L 744.667892 598.534306 
L 745.693722 602.558716 
L 746.719551 599.786602 
L 747.745381 599.583211 
L 748.771211 598.48162 
L 749.79704 599.237434 
L 750.82287 598.373664 
L 751.848699 603.477885 
L 752.874529 598.478056 
L 753.900358 599.584214 
L 754.926188 598.710769 
L 755.952018 599.709561 
L 756.977847 598.851755 
L 758.003677 599.957708 
L 759.029506 598.702768 
L 760.055336 599.971173 
L 761.081166 598.755899 
L 762.106995 600.050169 
L 763.132825 598.930095 
L 764.158654 600.130239 
L 765.184484 599.128102 
L 766.210313 600.231776 
L 767.236143 599.067082 
L 768.261973 600.06882 
L 769.287802 599.13668 
L 770.313632 600.30629 
L 771.339461 599.658295 
L 772.365291 601.691946 
L 773.391121 599.836998 
L 774.41695 600.889171 
L 775.44278 601.117237 
L 776.468609 600.690439 
L 777.494439 599.785658 
L 778.520268 600.82269 
L 779.546098 592.276732 
L 780.571928 602.530492 
L 781.597757 600.041243 
L 782.623587 601.083563 
L 783.649416 600.015518 
L 784.675246 601.291316 
L 785.701075 600.167788 
L 786.726905 601.291453 
L 787.752735 600.580668 
L 788.778564 597.619353 
L 789.804394 597.230532 
L 790.830223 601.442448 
L 791.856053 600.519934 
L 792.881883 600.149379 
L 793.907712 600.191678 
L 794.933542 601.554725 
L 795.959371 600.678593 
L 796.985201 602.114037 
L 798.01103 601.062557 
L 799.03686 603.737059 
L 800.06269 601.284627 
L 801.088519 602.04277 
L 802.114349 601.06847 
L 803.140178 602.01956 
L 804.166008 601.138834 
L 805.191837 602.052633 
L 806.217667 601.034854 
L 807.243497 602.287495 
L 808.269326 601.217951 
L 809.295156 602.174187 
L 810.320985 601.002835 
L 811.346815 602.366871 
L 812.372645 601.451436 
L 813.398474 602.45089 
L 814.424304 601.465975 
L 815.450133 602.493885 
L 816.475963 601.432821 
L 817.501792 602.654273 
L 818.527622 601.624166 
L 819.553452 602.770879 
L 820.579281 601.700884 
L 821.605111 602.78633 
L 822.63094 601.862384 
L 824.6826 603.749241 
L 825.708429 603.214042 
L 826.734259 601.877964 
L 827.760088 603.031309 
L 828.785918 601.908235 
L 829.811747 602.882288 
L 830.837577 601.512456 
L 831.863407 602.626844 
L 832.889236 601.709914 
L 833.915066 602.607021 
L 834.940895 601.750024 
L 835.966725 602.436708 
L 836.992554 601.606305 
L 838.018384 601.915798 
L 839.044214 600.861622 
L 840.070043 602.559148 
L 841.095873 602.121409 
L 842.121702 603.290801 
L 843.147532 602.060677 
L 844.173362 604.640612 
L 845.199191 606.052924 
L 846.225021 603.219964 
L 847.25085 602.244127 
L 848.27668 603.237115 
L 849.302509 602.395068 
L 850.328339 603.804072 
L 851.354169 604.422279 
L 852.379998 603.90063 
L 853.405828 602.663275 
L 854.431657 603.46584 
L 855.457487 602.584993 
L 856.483316 603.611757 
L 857.509146 602.623185 
L 858.534976 603.393795 
L 859.560805 602.617558 
L 860.586635 603.731733 
L 861.612464 602.866966 
L 862.638294 603.915792 
L 863.664124 602.683881 
L 864.689953 605.120005 
L 865.715783 602.922175 
L 866.741612 604.685988 
L 867.767442 603.092271 
L 868.793271 604.01071 
L 869.819101 603.094731 
L 870.844931 603.887007 
L 871.87076 602.329861 
L 872.89659 603.285613 
L 873.922419 602.999812 
L 874.948249 604.055203 
L 875.974078 603.303799 
L 876.999908 605.262972 
L 878.025738 603.552009 
L 879.051567 604.47895 
L 880.077397 603.373409 
L 881.103226 604.501961 
L 882.129056 603.889123 
L 883.154886 604.914847 
L 884.180715 604.098301 
L 885.206545 605.453251 
L 886.232374 604.234335 
L 887.258204 605.197719 
L 888.284033 604.293939 
L 889.309863 605.147387 
L 890.335693 604.22431 
L 891.361522 605.189435 
L 892.387352 604.308206 
L 893.413181 605.327673 
L 894.439011 604.818296 
L 895.464841 603.213807 
L 896.49067 604.456849 
L 897.5165 604.809012 
L 898.542329 604.114167 
L 899.568159 605.891739 
L 900.593988 604.831825 
L 901.619818 605.57956 
L 902.645648 604.117678 
L 903.671477 607.965965 
L 904.697307 605.263051 
L 905.723136 605.813075 
L 906.748966 604.786335 
L 907.774795 605.862308 
L 908.800625 604.778813 
L 909.826455 605.939451 
L 910.852284 604.924142 
L 911.878114 605.954086 
L 912.903943 599.971658 
L 913.929773 605.974383 
L 914.955603 604.934128 
L 915.981432 605.879538 
L 917.007262 605.047276 
L 918.033091 605.944765 
L 919.058921 604.823151 
L 920.08475 606.039973 
L 921.11058 605.273838 
L 922.13641 606.385208 
L 923.162239 605.141813 
L 924.188069 606.40236 
L 925.213898 605.027735 
L 926.239728 606.280991 
L 927.265557 605.212498 
L 928.291387 606.665314 
L 929.317217 605.756013 
L 930.343046 606.384591 
L 931.368876 605.389353 
L 932.394705 606.502351 
L 933.420535 605.595335 
L 934.446365 606.291877 
L 935.472194 605.746038 
L 936.498024 606.660221 
L 937.523853 605.459028 
L 938.549683 606.081474 
L 939.575512 606.074141 
L 940.601342 606.765278 
L 941.627172 604.064719 
L 942.653001 605.553455 
L 943.678831 605.021387 
L 944.70466 605.701516 
L 945.73049 605.647195 
L 946.75632 606.772308 
L 947.782149 606.061814 
L 948.807979 606.617351 
L 949.833808 605.710856 
L 950.859638 607.268727 
L 951.885467 605.287293 
L 952.911297 606.930705 
L 953.937127 605.753095 
L 954.962956 606.939824 
L 955.988786 613.321856 
L 957.014615 607.737491 
L 958.040445 608.523596 
L 959.066274 608.336409 
L 960.092104 606.311037 
L 961.117934 607.039336 
L 962.143763 606.082816 
L 963.169593 607.778764 
L 964.195422 608.220116 
L 965.221252 607.741031 
L 966.247082 606.38517 
L 967.272911 607.29232 
L 968.298741 606.656804 
L 969.32457 607.449467 
L 970.3504 606.780089 
L 971.376229 607.615157 
L 972.402059 607.063995 
L 973.427889 607.56078 
L 974.453718 609.461649 
L 975.479548 607.87423 
L 976.505377 606.681431 
L 977.531207 607.732834 
L 978.557036 607.088464 
L 979.582866 607.562231 
L 980.608696 607.087883 
L 981.634525 608.246423 
L 982.660355 607.649986 
L 983.686184 608.077993 
L 984.712014 607.094472 
L 985.737844 608.036673 
L 986.763673 607.23854 
L 987.789503 608.206268 
L 988.815332 607.367445 
L 989.841162 608.878969 
L 990.866991 607.249109 
L 991.892821 608.264503 
L 992.918651 598.839647 
L 993.94448 605.438576 
L 994.97031 602.539009 
L 995.996139 608.120769 
L 997.021969 608.82036 
L 999.073628 607.35908 
L 1000.099458 608.511964 
L 1002.151117 608.585887 
L 1003.176946 607.794159 
L 1004.202776 608.617017 
L 1005.228606 607.578781 
L 1006.254435 609.185517 
L 1007.280265 607.853206 
L 1008.306094 611.167804 
L 1009.331924 609.241553 
L 1010.357753 608.918529 
L 1011.383583 608.267071 
L 1012.409413 608.877132 
L 1013.435242 608.179724 
L 1014.461072 609.074087 
L 1015.486901 608.111478 
L 1016.512731 608.821092 
L 1017.538561 608.16544 
L 1018.56439 609.083936 
L 1019.59022 608.128486 
L 1020.616049 608.992098 
L 1021.641879 608.223601 
L 1022.667708 609.09107 
L 1023.693538 609.301722 
L 1024.719368 609.266028 
L 1025.745197 608.497658 
L 1026.771027 609.138496 
L 1027.796856 608.469517 
L 1028.822686 609.119834 
L 1029.848515 608.566867 
L 1030.874345 609.419154 
L 1031.900175 609.508875 
L 1032.926004 609.470255 
L 1033.951834 608.77031 
L 1034.977663 610.359866 
L 1036.003493 608.892427 
L 1037.029323 609.318169 
L 1038.055152 608.72099 
L 1039.080982 610.092602 
L 1040.106811 608.805465 
L 1041.132641 609.67266 
L 1042.15847 608.851267 
L 1043.1843 609.641501 
L 1044.21013 608.909961 
L 1045.235959 609.751242 
L 1046.261789 609.027517 
L 1047.287618 609.725987 
L 1048.313448 608.89709 
L 1049.339278 609.876367 
L 1050.365107 609.052892 
L 1051.390937 609.887752 
L 1053.442596 609.976736 
L 1054.468425 609.082339 
L 1055.494255 609.946795 
L 1056.520085 609.448327 
L 1058.571744 610.089541 
L 1059.597573 610.175993 
L 1060.623403 608.286382 
L 1061.649232 611.506937 
L 1062.675062 609.724268 
L 1063.700892 611.09274 
L 1064.726721 609.673915 
L 1065.752551 610.310639 
L 1066.77838 609.454735 
L 1067.80421 610.277181 
L 1068.83004 609.573635 
L 1069.855869 611.151605 
L 1070.881699 609.658419 
L 1071.907528 610.315651 
L 1072.933358 609.759968 
L 1073.959187 610.453697 
L 1074.985017 609.725273 
L 1076.010847 610.669185 
L 1077.036676 609.642185 
L 1078.062506 610.508302 
L 1079.088335 609.768831 
L 1080.114165 610.632529 
L 1081.139994 609.808673 
L 1082.165824 610.64545 
L 1083.191654 609.746354 
L 1084.217483 610.711945 
L 1085.243313 609.892834 
L 1086.269142 610.729941 
L 1087.294972 611.317183 
L 1088.320802 610.893578 
L 1089.346631 610.052723 
L 1090.372461 610.714877 
L 1091.39829 610.137976 
L 1092.42412 610.91179 
L 1093.449949 610.26794 
L 1094.475779 610.831488 
L 1095.501609 610.031446 
L 1096.527438 611.517791 
L 1097.553268 610.309006 
L 1098.579097 610.954863 
L 1099.604927 610.23632 
L 1100.630757 611.035779 
L 1101.656586 610.250241 
L 1102.682416 611.113841 
L 1103.708245 610.34708 
L 1104.734075 611.10865 
L 1105.759904 611.122181 
L 1106.785734 611.293446 
L 1107.811564 610.340242 
L 1108.837393 611.262162 
L 1109.863223 610.367114 
L 1110.889052 611.265241 
L 1111.914882 610.367818 
L 1112.940711 611.287748 
L 1113.966541 611.937502 
L 1114.992371 611.903114 
L 1116.0182 610.679172 
L 1117.04403 611.441131 
L 1118.069859 610.732919 
L 1119.095689 610.784894 
L 1120.121519 610.653611 
L 1121.147348 611.453604 
L 1122.173178 610.730626 
L 1123.199007 611.390499 
L 1124.224837 610.733767 
L 1125.250666 611.554716 
L 1126.276496 610.820554 
L 1127.302326 613.025461 
L 1128.328155 610.758822 
L 1129.353985 611.555648 
L 1130.379814 610.814881 
L 1131.405644 612.257804 
L 1132.431473 610.858533 
L 1133.457303 611.642868 
L 1134.483133 610.941965 
L 1135.508962 611.702245 
L 1136.534792 610.968614 
L 1137.560621 611.664547 
L 1138.586451 611.047344 
L 1139.612281 612.27249 
L 1140.63811 610.156796 
L 1141.66394 611.7902 
L 1142.689769 610.920299 
L 1143.715599 611.733528 
L 1144.741428 611.157591 
L 1145.767258 612.502336 
L 1146.793088 611.1709 
L 1147.818917 611.908622 
L 1148.844747 611.140717 
L 1149.870576 611.9703 
L 1150.896406 611.216767 
L 1151.922235 611.94899 
L 1152.948065 611.273794 
L 1153.973895 611.963198 
L 1154.999724 611.48784 
L 1156.025554 611.948325 
L 1157.051383 611.332421 
L 1158.077213 611.835133 
L 1159.103043 611.224073 
L 1160.128872 612.118121 
L 1161.154702 611.153657 
L 1162.180531 612.211119 
L 1163.206361 611.323224 
L 1164.23219 612.226783 
L 1165.25802 611.520279 
L 1166.28385 614.559916 
L 1167.309679 611.941584 
L 1168.335509 612.290658 
L 1169.361338 612.193258 
L 1170.387168 612.297569 
L 1171.412998 611.646433 
L 1172.438827 612.326136 
L 1173.464657 611.573537 
L 1174.490486 612.358781 
L 1175.516316 611.690286 
L 1176.542145 612.371901 
L 1177.567975 611.670241 
L 1178.593805 612.352644 
L 1179.619634 611.702241 
L 1180.645464 612.432828 
L 1181.671293 611.681131 
L 1182.697123 612.427746 
L 1183.722952 611.725732 
L 1184.748782 612.482093 
L 1185.774612 611.757848 
L 1186.800441 612.49155 
L 1187.826271 611.708242 
L 1188.8521 612.506344 
L 1189.87793 611.747684 
L 1190.90376 612.719867 
L 1191.929589 612.061135 
L 1192.955419 612.818483 
L 1193.981248 611.974751 
L 1195.007078 612.573887 
L 1196.032907 612.057318 
L 1197.058737 614.90109 
L 1198.084567 611.945846 
L 1199.110396 612.698404 
L 1200.136226 612.040979 
L 1201.162055 612.746073 
L 1202.187885 612.095359 
L 1203.213714 612.840139 
L 1204.239544 612.128287 
L 1205.265374 612.801922 
L 1206.291203 612.004066 
L 1207.317033 612.857084 
L 1208.342862 612.224321 
L 1209.368692 612.695353 
L 1210.394522 612.201717 
L 1211.420351 612.824606 
L 1212.446181 612.259226 
L 1213.47201 612.950674 
L 1214.49784 612.121954 
L 1215.523669 612.995082 
L 1216.549499 612.866293 
L 1217.575329 612.35322 
L 1218.601158 615.6 
L 1219.626988 613.460337 
L 1220.652817 612.49588 
L 1221.678647 613.712209 
L 1222.704477 612.418768 
L 1223.730306 613.144728 
L 1224.756136 612.361671 
L 1225.781965 613.192158 
L 1226.807795 612.414526 
L 1227.833624 613.179249 
L 1228.859454 612.90107 
L 1229.885284 613.171666 
L 1230.911113 612.521241 
L 1231.936943 613.213917 
L 1232.962772 612.80246 
L 1233.988602 613.182401 
L 1235.014431 612.536191 
L 1236.040261 613.645809 
L 1237.066091 612.554361 
L 1238.09192 613.320982 
L 1239.11775 612.733829 
L 1240.143579 613.299801 
L 1241.169409 612.66952 
L 1242.195239 614.030745 
L 1243.221068 612.843154 
L 1244.246898 613.557141 
L 1245.272727 613.062847 
L 1245.272727 613.062847 
" style="fill:none;stroke:#ff7f0e;stroke-linecap:square;stroke-width:1.5;"/>
   </g>
   <g id="patch_3">
    <path d="M 180 640.8 
L 180 86.4 
" style="fill:none;stroke:#000000;stroke-linecap:square;stroke-linejoin:miter;stroke-width:0.8;"/>
   </g>
   <g id="patch_4">
    <path d="M 1296 640.8 
L 1296 86.4 
" style="fill:none;stroke:#000000;stroke-linecap:square;stroke-linejoin:miter;stroke-width:0.8;"/>
   </g>
   <g id="patch_5">
    <path d="M 180 640.8 
L 1296 640.8 
" style="fill:none;stroke:#000000;stroke-linecap:square;stroke-linejoin:miter;stroke-width:0.8;"/>
   </g>
   <g id="patch_6">
    <path d="M 180 86.4 
L 1296 86.4 
" style="fill:none;stroke:#000000;stroke-linecap:square;stroke-linejoin:miter;stroke-width:0.8;"/>
   </g>
   <g id="text_18">
    <!-- Ultimate Oscillator Speedup -->
    <defs>
     <path d="M 8.6875 72.90625 
L 18.609375 72.90625 
L 18.609375 28.609375 
Q 18.609375 16.890625 22.84375 11.734375 
Q 27.09375 6.59375 36.625 6.59375 
Q 46.09375 6.59375 50.34375 11.734375 
Q 54.59375 16.890625 54.59375 28.609375 
L 54.59375 72.90625 
L 64.5 72.90625 
L 64.5 27.390625 
Q 64.5 13.140625 57.4375 5.859375 
Q 50.390625 -1.421875 36.625 -1.421875 
Q 22.796875 -1.421875 15.734375 5.859375 
Q 8.6875 13.140625 8.6875 27.390625 
z
" id="DejaVuSans-85"/>
     <path d="M 9.421875 75.984375 
L 18.40625 75.984375 
L 18.40625 0 
L 9.421875 0 
z
" id="DejaVuSans-108"/>
     <path d="M 18.3125 70.21875 
L 18.3125 54.6875 
L 36.8125 54.6875 
L 36.8125 47.703125 
L 18.3125 47.703125 
L 18.3125 18.015625 
Q 18.3125 11.328125 20.140625 9.421875 
Q 21.96875 7.515625 27.59375 7.515625 
L 36.8125 7.515625 
L 36.8125 0 
L 27.59375 0 
Q 17.1875 0 13.234375 3.875 
Q 9.28125 7.765625 9.28125 18.015625 
L 9.28125 47.703125 
L 2.6875 47.703125 
L 2.6875 54.6875 
L 9.28125 54.6875 
L 9.28125 70.21875 
z
" id="DejaVuSans-116"/>
     <path d="M 9.421875 54.6875 
L 18.40625 54.6875 
L 18.40625 0 
L 9.421875 0 
z
M 9.421875 75.984375 
L 18.40625 75.984375 
L 18.40625 64.59375 
L 9.421875 64.59375 
z
" id="DejaVuSans-105"/>
     <path d="M 52 44.1875 
Q 55.375 50.25 60.0625 53.125 
Q 64.75 56 71.09375 56 
Q 79.640625 56 84.28125 50.015625 
Q 88.921875 44.046875 88.921875 33.015625 
L 88.921875 0 
L 79.890625 0 
L 79.890625 32.71875 
Q 79.890625 40.578125 77.09375 44.375 
Q 74.3125 48.1875 68.609375 48.1875 
Q 61.625 48.1875 57.5625 43.546875 
Q 53.515625 38.921875 53.515625 30.90625 
L 53.515625 0 
L 44.484375 0 
L 44.484375 32.71875 
Q 44.484375 40.625 41.703125 44.40625 
Q 38.921875 48.1875 33.109375 48.1875 
Q 26.21875 48.1875 22.15625 43.53125 
Q 18.109375 38.875 18.109375 30.90625 
L 18.109375 0 
L 9.078125 0 
L 9.078125 54.6875 
L 18.109375 54.6875 
L 18.109375 46.1875 
Q 21.1875 51.21875 25.484375 53.609375 
Q 29.78125 56 35.6875 56 
Q 41.65625 56 45.828125 52.96875 
Q 50 49.953125 52 44.1875 
z
" id="DejaVuSans-109"/>
     <path d="M 34.28125 27.484375 
Q 23.390625 27.484375 19.1875 25 
Q 14.984375 22.515625 14.984375 16.5 
Q 14.984375 11.71875 18.140625 8.90625 
Q 21.296875 6.109375 26.703125 6.109375 
Q 34.1875 6.109375 38.703125 11.40625 
Q 43.21875 16.703125 43.21875 25.484375 
L 43.21875 27.484375 
z
M 52.203125 31.203125 
L 52.203125 0 
L 43.21875 0 
L 43.21875 8.296875 
Q 40.140625 3.328125 35.546875 0.953125 
Q 30.953125 -1.421875 24.3125 -1.421875 
Q 15.921875 -1.421875 10.953125 3.296875 
Q 6 8.015625 6 15.921875 
Q 6 25.140625 12.171875 29.828125 
Q 18.359375 34.515625 30.609375 34.515625 
L 43.21875 34.515625 
L 43.21875 35.40625 
Q 43.21875 41.609375 39.140625 45 
Q 35.0625 48.390625 27.6875 48.390625 
Q 23 48.390625 18.546875 47.265625 
Q 14.109375 46.140625 10.015625 43.890625 
L 10.015625 52.203125 
Q 14.9375 54.109375 19.578125 55.046875 
Q 24.21875 56 28.609375 56 
Q 40.484375 56 46.34375 49.84375 
Q 52.203125 43.703125 52.203125 31.203125 
z
" id="DejaVuSans-97"/>
     <path id="DejaVuSans-32"/>
     <path d="M 39.40625 66.21875 
Q 28.65625 66.21875 22.328125 58.203125 
Q 16.015625 50.203125 16.015625 36.375 
Q 16.015625 22.609375 22.328125 14.59375 
Q 28.65625 6.59375 39.40625 6.59375 
Q 50.140625 6.59375 56.421875 14.59375 
Q 62.703125 22.609375 62.703125 36.375 
Q 62.703125 50.203125 56.421875 58.203125 
Q 50.140625 66.21875 39.40625 66.21875 
z
M 39.40625 74.21875 
Q 54.734375 74.21875 63.90625 63.9375 
Q 73.09375 53.65625 73.09375 36.375 
Q 73.09375 19.140625 63.90625 8.859375 
Q 54.734375 -1.421875 39.40625 -1.421875 
Q 24.03125 -1.421875 14.8125 8.828125 
Q 5.609375 19.09375 5.609375 36.375 
Q 5.609375 53.65625 14.8125 63.9375 
Q 24.03125 74.21875 39.40625 74.21875 
z
" id="DejaVuSans-79"/>
     <path d="M 48.78125 52.59375 
L 48.78125 44.1875 
Q 44.96875 46.296875 41.140625 47.34375 
Q 37.3125 48.390625 33.40625 48.390625 
Q 24.65625 48.390625 19.8125 42.84375 
Q 14.984375 37.3125 14.984375 27.296875 
Q 14.984375 17.28125 19.8125 11.734375 
Q 24.65625 6.203125 33.40625 6.203125 
Q 37.3125 6.203125 41.140625 7.25 
Q 44.96875 8.296875 48.78125 10.40625 
L 48.78125 2.09375 
Q 45.015625 0.34375 40.984375 -0.53125 
Q 36.96875 -1.421875 32.421875 -1.421875 
Q 20.0625 -1.421875 12.78125 6.34375 
Q 5.515625 14.109375 5.515625 27.296875 
Q 5.515625 40.671875 12.859375 48.328125 
Q 20.21875 56 33.015625 56 
Q 37.15625 56 41.109375 55.140625 
Q 45.0625 54.296875 48.78125 52.59375 
z
" id="DejaVuSans-99"/>
     <path d="M 30.609375 48.390625 
Q 23.390625 48.390625 19.1875 42.75 
Q 14.984375 37.109375 14.984375 27.296875 
Q 14.984375 17.484375 19.15625 11.84375 
Q 23.34375 6.203125 30.609375 6.203125 
Q 37.796875 6.203125 41.984375 11.859375 
Q 46.1875 17.53125 46.1875 27.296875 
Q 46.1875 37.015625 41.984375 42.703125 
Q 37.796875 48.390625 30.609375 48.390625 
z
M 30.609375 56 
Q 42.328125 56 49.015625 48.375 
Q 55.71875 40.765625 55.71875 27.296875 
Q 55.71875 13.875 49.015625 6.21875 
Q 42.328125 -1.421875 30.609375 -1.421875 
Q 18.84375 -1.421875 12.171875 6.21875 
Q 5.515625 13.875 5.515625 27.296875 
Q 5.515625 40.765625 12.171875 48.375 
Q 18.84375 56 30.609375 56 
z
" id="DejaVuSans-111"/>
     <path d="M 41.109375 46.296875 
Q 39.59375 47.171875 37.8125 47.578125 
Q 36.03125 48 33.890625 48 
Q 26.265625 48 22.1875 43.046875 
Q 18.109375 38.09375 18.109375 28.8125 
L 18.109375 0 
L 9.078125 0 
L 9.078125 54.6875 
L 18.109375 54.6875 
L 18.109375 46.1875 
Q 20.953125 51.171875 25.484375 53.578125 
Q 30.03125 56 36.53125 56 
Q 37.453125 56 38.578125 55.875 
Q 39.703125 55.765625 41.0625 55.515625 
z
" id="DejaVuSans-114"/>
     <path d="M 53.515625 70.515625 
L 53.515625 60.890625 
Q 47.90625 63.578125 42.921875 64.890625 
Q 37.9375 66.21875 33.296875 66.21875 
Q 25.25 66.21875 20.875 63.09375 
Q 16.5 59.96875 16.5 54.203125 
Q 16.5 49.359375 19.40625 46.890625 
Q 22.3125 44.4375 30.421875 42.921875 
L 36.375 41.703125 
Q 47.40625 39.59375 52.65625 34.296875 
Q 57.90625 29 57.90625 20.125 
Q 57.90625 9.515625 50.796875 4.046875 
Q 43.703125 -1.421875 29.984375 -1.421875 
Q 24.8125 -1.421875 18.96875 -0.25 
Q 13.140625 0.921875 6.890625 3.21875 
L 6.890625 13.375 
Q 12.890625 10.015625 18.65625 8.296875 
Q 24.421875 6.59375 29.984375 6.59375 
Q 38.421875 6.59375 43.015625 9.90625 
Q 47.609375 13.234375 47.609375 19.390625 
Q 47.609375 24.75 44.3125 27.78125 
Q 41.015625 30.8125 33.5 32.328125 
L 27.484375 33.5 
Q 16.453125 35.6875 11.515625 40.375 
Q 6.59375 45.0625 6.59375 53.421875 
Q 6.59375 63.09375 13.40625 68.65625 
Q 20.21875 74.21875 32.171875 74.21875 
Q 37.3125 74.21875 42.625 73.28125 
Q 47.953125 72.359375 53.515625 70.515625 
z
" id="DejaVuSans-83"/>
    </defs>
    <g transform="translate(653.805938 80.4)scale(0.12 -0.12)">
     <use xlink:href="#DejaVuSans-85"/>
     <use x="73.193359" xlink:href="#DejaVuSans-108"/>
     <use x="100.976562" xlink:href="#DejaVuSans-116"/>
     <use x="140.185547" xlink:href="#DejaVuSans-105"/>
     <use x="167.96875" xlink:href="#DejaVuSans-109"/>
     <use x="265.380859" xlink:href="#DejaVuSans-97"/>
     <use x="326.660156" xlink:href="#DejaVuSans-116"/>
     <use x="365.869141" xlink:href="#DejaVuSans-101"/>
     <use x="427.392578" xlink:href="#DejaVuSans-32"/>
     <use x="459.179688" xlink:href="#DejaVuSans-79"/>
     <use x="537.890625" xlink:href="#DejaVuSans-115"/>
     <use x="589.990234" xlink:href="#DejaVuSans-99"/>
     <use x="644.970703" xlink:href="#DejaVuSans-105"/>
     <use x="672.753906" xlink:href="#DejaVuSans-108"/>
     <use x="700.537109" xlink:href="#DejaVuSans-108"/>
     <use x="728.320312" xlink:href="#DejaVuSans-97"/>
     <use x="789.599609" xlink:href="#DejaVuSans-116"/>
     <use x="828.808594" xlink:href="#DejaVuSans-111"/>
     <use x="889.990234" xlink:href="#DejaVuSans-114"/>
     <use x="931.103516" xlink:href="#DejaVuSans-32"/>
     <use x="962.890625" xlink:href="#DejaVuSans-83"/>
     <use x="1026.367188" xlink:href="#DejaVuSans-112"/>
     <use x="1089.84375" xlink:href="#DejaVuSans-101"/>
     <use x="1151.367188" xlink:href="#DejaVuSans-101"/>
     <use x="1212.890625" xlink:href="#DejaVuSans-100"/>
     <use x="1276.367188" xlink:href="#DejaVuSans-117"/>
     <use x="1339.746094" xlink:href="#DejaVuSans-112"/>
    </g>
   </g>
   <g id="legend_1">
    <g id="patch_7">
     <path d="M 1185.373437 123.75625 
L 1289 123.75625 
Q 1291 123.75625 1291 121.75625 
L 1291 93.4 
Q 1291 91.4 1289 91.4 
L 1185.373437 91.4 
Q 1183.373437 91.4 1183.373437 93.4 
L 1183.373437 121.75625 
Q 1183.373437 123.75625 1185.373437 123.75625 
z
" style="fill:#ffffff;opacity:0.8;stroke:#cccccc;stroke-linejoin:miter;"/>
    </g>
    <g id="line2d_18">
     <path d="M 1187.373437 99.498437 
L 1207.373437 99.498437 
" style="fill:none;stroke:#1f77b4;stroke-linecap:square;stroke-width:1.5;"/>
    </g>
    <g id="line2d_19"/>
    <g id="text_19">
     <!-- numpy.float32 -->
     <defs>
      <path d="M 32.171875 -5.078125 
Q 28.375 -14.84375 24.75 -17.8125 
Q 21.140625 -20.796875 15.09375 -20.796875 
L 7.90625 -20.796875 
L 7.90625 -13.28125 
L 13.1875 -13.28125 
Q 16.890625 -13.28125 18.9375 -11.515625 
Q 21 -9.765625 23.484375 -3.21875 
L 25.09375 0.875 
L 2.984375 54.6875 
L 12.5 54.6875 
L 29.59375 11.921875 
L 46.6875 54.6875 
L 56.203125 54.6875 
z
" id="DejaVuSans-121"/>
      <path d="M 37.109375 75.984375 
L 37.109375 68.5 
L 28.515625 68.5 
Q 23.6875 68.5 21.796875 66.546875 
Q 19.921875 64.59375 19.921875 59.515625 
L 19.921875 54.6875 
L 34.71875 54.6875 
L 34.71875 47.703125 
L 19.921875 47.703125 
L 19.921875 0 
L 10.890625 0 
L 10.890625 47.703125 
L 2.296875 47.703125 
L 2.296875 54.6875 
L 10.890625 54.6875 
L 10.890625 58.5 
Q 10.890625 67.625 15.140625 71.796875 
Q 19.390625 75.984375 28.609375 75.984375 
z
" id="DejaVuSans-102"/>
     </defs>
     <g transform="translate(1215.373437 102.998437)scale(0.1 -0.1)">
      <use xlink:href="#DejaVuSans-110"/>
      <use x="63.378906" xlink:href="#DejaVuSans-117"/>
      <use x="126.757812" xlink:href="#DejaVuSans-109"/>
      <use x="224.169922" xlink:href="#DejaVuSans-112"/>
      <use x="287.646484" xlink:href="#DejaVuSans-121"/>
      <use x="332.576172" xlink:href="#DejaVuSans-46"/>
      <use x="364.363281" xlink:href="#DejaVuSans-102"/>
      <use x="399.568359" xlink:href="#DejaVuSans-108"/>
      <use x="427.351562" xlink:href="#DejaVuSans-111"/>
      <use x="488.533203" xlink:href="#DejaVuSans-97"/>
      <use x="549.8125" xlink:href="#DejaVuSans-116"/>
      <use x="589.021484" xlink:href="#DejaVuSans-51"/>
      <use x="652.644531" xlink:href="#DejaVuSans-50"/>
     </g>
    </g>
    <g id="line2d_20">
     <path d="M 1187.373437 114.176562 
L 1207.373437 114.176562 
" style="fill:none;stroke:#ff7f0e;stroke-linecap:square;stroke-width:1.5;"/>
    </g>
    <g id="line2d_21"/>
    <g id="text_20">
     <!-- numpy.float64 -->
     <g transform="translate(1215.373437 117.676562)scale(0.1 -0.1)">
      <use xlink:href="#DejaVuSans-110"/>
      <use x="63.378906" xlink:href="#DejaVuSans-117"/>
      <use x="126.757812" xlink:href="#DejaVuSans-109"/>
      <use x="224.169922" xlink:href="#DejaVuSans-112"/>
      <use x="287.646484" xlink:href="#DejaVuSans-121"/>
      <use x="332.576172" xlink:href="#DejaVuSans-46"/>
      <use x="364.363281" xlink:href="#DejaVuSans-102"/>
      <use x="399.568359" xlink:href="#DejaVuSans-108"/>
      <use x="427.351562" xlink:href="#DejaVuSans-111"/>
      <use x="488.533203" xlink:href="#DejaVuSans-97"/>
      <use x="549.8125" xlink:href="#DejaVuSans-116"/>
      <use x="589.021484" xlink:href="#DejaVuSans-54"/>
      <use x="652.644531" xlink:href="#DejaVuSans-52"/>
     </g>
    </g>
   </g>
  </g>
 </g>
 <defs>
  <clipPath id="pb610e2e782">
   <rect height="554.4" width="1116" x="180" y="86.4"/>
  </clipPath>
 </defs>
</svg>
