<?xml version="1.0" encoding="utf-8" standalone="no"?>
<!DOCTYPE svg PUBLIC "-//W3C//DTD SVG 1.1//EN"
  "http://www.w3.org/Graphics/SVG/1.1/DTD/svg11.dtd">
<!-- Created with matplotlib (https://matplotlib.org/) -->
<svg height="720pt" version="1.1" viewBox="0 0 1440 720" width="1440pt" xmlns="http://www.w3.org/2000/svg" xmlns:xlink="http://www.w3.org/1999/xlink">
 <defs>
  <style type="text/css">
*{stroke-linecap:butt;stroke-linejoin:round;}
  </style>
 </defs>
 <g id="figure_1">
  <g id="patch_1">
   <path d="M 0 720 
L 1440 720 
L 1440 0 
L 0 0 
z
" style="fill:#ffffff;"/>
  </g>
  <g id="axes_1">
   <g id="patch_2">
    <path d="M 180 640.8 
L 1296 640.8 
L 1296 86.4 
L 180 86.4 
z
" style="fill:#ffffff;"/>
   </g>
   <g id="matplotlib.axis_1">
    <g id="xtick_1">
     <g id="line2d_1">
      <defs>
       <path d="M 0 0 
L 0 3.5 
" id="m22fef16888" style="stroke:#000000;stroke-width:0.8;"/>
      </defs>
      <g>
       <use style="stroke:#000000;stroke-width:0.8;" x="333.310231" xlink:href="#m22fef16888" y="640.8"/>
      </g>
     </g>
     <g id="text_1">
      <!-- 100.0 -->
      <defs>
       <path d="M 12.40625 8.296875 
L 28.515625 8.296875 
L 28.515625 63.921875 
L 10.984375 60.40625 
L 10.984375 69.390625 
L 28.421875 72.90625 
L 38.28125 72.90625 
L 38.28125 8.296875 
L 54.390625 8.296875 
L 54.390625 0 
L 12.40625 0 
z
" id="DejaVuSans-49"/>
       <path d="M 31.78125 66.40625 
Q 24.171875 66.40625 20.328125 58.90625 
Q 16.5 51.421875 16.5 36.375 
Q 16.5 21.390625 20.328125 13.890625 
Q 24.171875 6.390625 31.78125 6.390625 
Q 39.453125 6.390625 43.28125 13.890625 
Q 47.125 21.390625 47.125 36.375 
Q 47.125 51.421875 43.28125 58.90625 
Q 39.453125 66.40625 31.78125 66.40625 
z
M 31.78125 74.21875 
Q 44.046875 74.21875 50.515625 64.515625 
Q 56.984375 54.828125 56.984375 36.375 
Q 56.984375 17.96875 50.515625 8.265625 
Q 44.046875 -1.421875 31.78125 -1.421875 
Q 19.53125 -1.421875 13.0625 8.265625 
Q 6.59375 17.96875 6.59375 36.375 
Q 6.59375 54.828125 13.0625 64.515625 
Q 19.53125 74.21875 31.78125 74.21875 
z
" id="DejaVuSans-48"/>
       <path d="M 10.6875 12.40625 
L 21 12.40625 
L 21 0 
L 10.6875 0 
z
" id="DejaVuSans-46"/>
      </defs>
      <g transform="translate(318.996168 655.398438)scale(0.1 -0.1)">
       <use xlink:href="#DejaVuSans-49"/>
       <use x="63.623047" xlink:href="#DejaVuSans-48"/>
       <use x="127.246094" xlink:href="#DejaVuSans-48"/>
       <use x="190.869141" xlink:href="#DejaVuSans-46"/>
       <use x="222.65625" xlink:href="#DejaVuSans-48"/>
      </g>
     </g>
    </g>
    <g id="xtick_2">
     <g id="line2d_2">
      <g>
       <use style="stroke:#000000;stroke-width:0.8;" x="435.893189" xlink:href="#m22fef16888" y="640.8"/>
      </g>
     </g>
     <g id="text_2">
      <!-- 200.0 -->
      <defs>
       <path d="M 19.1875 8.296875 
L 53.609375 8.296875 
L 53.609375 0 
L 7.328125 0 
L 7.328125 8.296875 
Q 12.9375 14.109375 22.625 23.890625 
Q 32.328125 33.6875 34.8125 36.53125 
Q 39.546875 41.84375 41.421875 45.53125 
Q 43.3125 49.21875 43.3125 52.78125 
Q 43.3125 58.59375 39.234375 62.25 
Q 35.15625 65.921875 28.609375 65.921875 
Q 23.96875 65.921875 18.8125 64.3125 
Q 13.671875 62.703125 7.8125 59.421875 
L 7.8125 69.390625 
Q 13.765625 71.78125 18.9375 73 
Q 24.125 74.21875 28.421875 74.21875 
Q 39.75 74.21875 46.484375 68.546875 
Q 53.21875 62.890625 53.21875 53.421875 
Q 53.21875 48.921875 51.53125 44.890625 
Q 49.859375 40.875 45.40625 35.40625 
Q 44.1875 33.984375 37.640625 27.21875 
Q 31.109375 20.453125 19.1875 8.296875 
z
" id="DejaVuSans-50"/>
      </defs>
      <g transform="translate(421.579126 655.398438)scale(0.1 -0.1)">
       <use xlink:href="#DejaVuSans-50"/>
       <use x="63.623047" xlink:href="#DejaVuSans-48"/>
       <use x="127.246094" xlink:href="#DejaVuSans-48"/>
       <use x="190.869141" xlink:href="#DejaVuSans-46"/>
       <use x="222.65625" xlink:href="#DejaVuSans-48"/>
      </g>
     </g>
    </g>
    <g id="xtick_3">
     <g id="line2d_3">
      <g>
       <use style="stroke:#000000;stroke-width:0.8;" x="538.476147" xlink:href="#m22fef16888" y="640.8"/>
      </g>
     </g>
     <g id="text_3">
      <!-- 300.0 -->
      <defs>
       <path d="M 40.578125 39.3125 
Q 47.65625 37.796875 51.625 33 
Q 55.609375 28.21875 55.609375 21.1875 
Q 55.609375 10.40625 48.1875 4.484375 
Q 40.765625 -1.421875 27.09375 -1.421875 
Q 22.515625 -1.421875 17.65625 -0.515625 
Q 12.796875 0.390625 7.625 2.203125 
L 7.625 11.71875 
Q 11.71875 9.328125 16.59375 8.109375 
Q 21.484375 6.890625 26.8125 6.890625 
Q 36.078125 6.890625 40.9375 10.546875 
Q 45.796875 14.203125 45.796875 21.1875 
Q 45.796875 27.640625 41.28125 31.265625 
Q 36.765625 34.90625 28.71875 34.90625 
L 20.21875 34.90625 
L 20.21875 43.015625 
L 29.109375 43.015625 
Q 36.375 43.015625 40.234375 45.921875 
Q 44.09375 48.828125 44.09375 54.296875 
Q 44.09375 59.90625 40.109375 62.90625 
Q 36.140625 65.921875 28.71875 65.921875 
Q 24.65625 65.921875 20.015625 65.03125 
Q 15.375 64.15625 9.8125 62.3125 
L 9.8125 71.09375 
Q 15.4375 72.65625 20.34375 73.4375 
Q 25.25 74.21875 29.59375 74.21875 
Q 40.828125 74.21875 47.359375 69.109375 
Q 53.90625 64.015625 53.90625 55.328125 
Q 53.90625 49.265625 50.4375 45.09375 
Q 46.96875 40.921875 40.578125 39.3125 
z
" id="DejaVuSans-51"/>
      </defs>
      <g transform="translate(524.162084 655.398438)scale(0.1 -0.1)">
       <use xlink:href="#DejaVuSans-51"/>
       <use x="63.623047" xlink:href="#DejaVuSans-48"/>
       <use x="127.246094" xlink:href="#DejaVuSans-48"/>
       <use x="190.869141" xlink:href="#DejaVuSans-46"/>
       <use x="222.65625" xlink:href="#DejaVuSans-48"/>
      </g>
     </g>
    </g>
    <g id="xtick_4">
     <g id="line2d_4">
      <g>
       <use style="stroke:#000000;stroke-width:0.8;" x="641.059105" xlink:href="#m22fef16888" y="640.8"/>
      </g>
     </g>
     <g id="text_4">
      <!-- 400.0 -->
      <defs>
       <path d="M 37.796875 64.3125 
L 12.890625 25.390625 
L 37.796875 25.390625 
z
M 35.203125 72.90625 
L 47.609375 72.90625 
L 47.609375 25.390625 
L 58.015625 25.390625 
L 58.015625 17.1875 
L 47.609375 17.1875 
L 47.609375 0 
L 37.796875 0 
L 37.796875 17.1875 
L 4.890625 17.1875 
L 4.890625 26.703125 
z
" id="DejaVuSans-52"/>
      </defs>
      <g transform="translate(626.745042 655.398438)scale(0.1 -0.1)">
       <use xlink:href="#DejaVuSans-52"/>
       <use x="63.623047" xlink:href="#DejaVuSans-48"/>
       <use x="127.246094" xlink:href="#DejaVuSans-48"/>
       <use x="190.869141" xlink:href="#DejaVuSans-46"/>
       <use x="222.65625" xlink:href="#DejaVuSans-48"/>
      </g>
     </g>
    </g>
    <g id="xtick_5">
     <g id="line2d_5">
      <g>
       <use style="stroke:#000000;stroke-width:0.8;" x="743.642063" xlink:href="#m22fef16888" y="640.8"/>
      </g>
     </g>
     <g id="text_5">
      <!-- 500.0 -->
      <defs>
       <path d="M 10.796875 72.90625 
L 49.515625 72.90625 
L 49.515625 64.59375 
L 19.828125 64.59375 
L 19.828125 46.734375 
Q 21.96875 47.46875 24.109375 47.828125 
Q 26.265625 48.1875 28.421875 48.1875 
Q 40.625 48.1875 47.75 41.5 
Q 54.890625 34.8125 54.890625 23.390625 
Q 54.890625 11.625 47.5625 5.09375 
Q 40.234375 -1.421875 26.90625 -1.421875 
Q 22.3125 -1.421875 17.546875 -0.640625 
Q 12.796875 0.140625 7.71875 1.703125 
L 7.71875 11.625 
Q 12.109375 9.234375 16.796875 8.0625 
Q 21.484375 6.890625 26.703125 6.890625 
Q 35.15625 6.890625 40.078125 11.328125 
Q 45.015625 15.765625 45.015625 23.390625 
Q 45.015625 31 40.078125 35.4375 
Q 35.15625 39.890625 26.703125 39.890625 
Q 22.75 39.890625 18.8125 39.015625 
Q 14.890625 38.140625 10.796875 36.28125 
z
" id="DejaVuSans-53"/>
      </defs>
      <g transform="translate(729.328 655.398438)scale(0.1 -0.1)">
       <use xlink:href="#DejaVuSans-53"/>
       <use x="63.623047" xlink:href="#DejaVuSans-48"/>
       <use x="127.246094" xlink:href="#DejaVuSans-48"/>
       <use x="190.869141" xlink:href="#DejaVuSans-46"/>
       <use x="222.65625" xlink:href="#DejaVuSans-48"/>
      </g>
     </g>
    </g>
    <g id="xtick_6">
     <g id="line2d_6">
      <g>
       <use style="stroke:#000000;stroke-width:0.8;" x="846.225021" xlink:href="#m22fef16888" y="640.8"/>
      </g>
     </g>
     <g id="text_6">
      <!-- 600.0 -->
      <defs>
       <path d="M 33.015625 40.375 
Q 26.375 40.375 22.484375 35.828125 
Q 18.609375 31.296875 18.609375 23.390625 
Q 18.609375 15.53125 22.484375 10.953125 
Q 26.375 6.390625 33.015625 6.390625 
Q 39.65625 6.390625 43.53125 10.953125 
Q 47.40625 15.53125 47.40625 23.390625 
Q 47.40625 31.296875 43.53125 35.828125 
Q 39.65625 40.375 33.015625 40.375 
z
M 52.59375 71.296875 
L 52.59375 62.3125 
Q 48.875 64.0625 45.09375 64.984375 
Q 41.3125 65.921875 37.59375 65.921875 
Q 27.828125 65.921875 22.671875 59.328125 
Q 17.53125 52.734375 16.796875 39.40625 
Q 19.671875 43.65625 24.015625 45.921875 
Q 28.375 48.1875 33.59375 48.1875 
Q 44.578125 48.1875 50.953125 41.515625 
Q 57.328125 34.859375 57.328125 23.390625 
Q 57.328125 12.15625 50.6875 5.359375 
Q 44.046875 -1.421875 33.015625 -1.421875 
Q 20.359375 -1.421875 13.671875 8.265625 
Q 6.984375 17.96875 6.984375 36.375 
Q 6.984375 53.65625 15.1875 63.9375 
Q 23.390625 74.21875 37.203125 74.21875 
Q 40.921875 74.21875 44.703125 73.484375 
Q 48.484375 72.75 52.59375 71.296875 
z
" id="DejaVuSans-54"/>
      </defs>
      <g transform="translate(831.910958 655.398438)scale(0.1 -0.1)">
       <use xlink:href="#DejaVuSans-54"/>
       <use x="63.623047" xlink:href="#DejaVuSans-48"/>
       <use x="127.246094" xlink:href="#DejaVuSans-48"/>
       <use x="190.869141" xlink:href="#DejaVuSans-46"/>
       <use x="222.65625" xlink:href="#DejaVuSans-48"/>
      </g>
     </g>
    </g>
    <g id="xtick_7">
     <g id="line2d_7">
      <g>
       <use style="stroke:#000000;stroke-width:0.8;" x="948.807979" xlink:href="#m22fef16888" y="640.8"/>
      </g>
     </g>
     <g id="text_7">
      <!-- 700.0 -->
      <defs>
       <path d="M 8.203125 72.90625 
L 55.078125 72.90625 
L 55.078125 68.703125 
L 28.609375 0 
L 18.3125 0 
L 43.21875 64.59375 
L 8.203125 64.59375 
z
" id="DejaVuSans-55"/>
      </defs>
      <g transform="translate(934.493916 655.398438)scale(0.1 -0.1)">
       <use xlink:href="#DejaVuSans-55"/>
       <use x="63.623047" xlink:href="#DejaVuSans-48"/>
       <use x="127.246094" xlink:href="#DejaVuSans-48"/>
       <use x="190.869141" xlink:href="#DejaVuSans-46"/>
       <use x="222.65625" xlink:href="#DejaVuSans-48"/>
      </g>
     </g>
    </g>
    <g id="xtick_8">
     <g id="line2d_8">
      <g>
       <use style="stroke:#000000;stroke-width:0.8;" x="1051.390937" xlink:href="#m22fef16888" y="640.8"/>
      </g>
     </g>
     <g id="text_8">
      <!-- 800.0 -->
      <defs>
       <path d="M 31.78125 34.625 
Q 24.75 34.625 20.71875 30.859375 
Q 16.703125 27.09375 16.703125 20.515625 
Q 16.703125 13.921875 20.71875 10.15625 
Q 24.75 6.390625 31.78125 6.390625 
Q 38.8125 6.390625 42.859375 10.171875 
Q 46.921875 13.96875 46.921875 20.515625 
Q 46.921875 27.09375 42.890625 30.859375 
Q 38.875 34.625 31.78125 34.625 
z
M 21.921875 38.8125 
Q 15.578125 40.375 12.03125 44.71875 
Q 8.5 49.078125 8.5 55.328125 
Q 8.5 64.0625 14.71875 69.140625 
Q 20.953125 74.21875 31.78125 74.21875 
Q 42.671875 74.21875 48.875 69.140625 
Q 55.078125 64.0625 55.078125 55.328125 
Q 55.078125 49.078125 51.53125 44.71875 
Q 48 40.375 41.703125 38.8125 
Q 48.828125 37.15625 52.796875 32.3125 
Q 56.78125 27.484375 56.78125 20.515625 
Q 56.78125 9.90625 50.3125 4.234375 
Q 43.84375 -1.421875 31.78125 -1.421875 
Q 19.734375 -1.421875 13.25 4.234375 
Q 6.78125 9.90625 6.78125 20.515625 
Q 6.78125 27.484375 10.78125 32.3125 
Q 14.796875 37.15625 21.921875 38.8125 
z
M 18.3125 54.390625 
Q 18.3125 48.734375 21.84375 45.5625 
Q 25.390625 42.390625 31.78125 42.390625 
Q 38.140625 42.390625 41.71875 45.5625 
Q 45.3125 48.734375 45.3125 54.390625 
Q 45.3125 60.0625 41.71875 63.234375 
Q 38.140625 66.40625 31.78125 66.40625 
Q 25.390625 66.40625 21.84375 63.234375 
Q 18.3125 60.0625 18.3125 54.390625 
z
" id="DejaVuSans-56"/>
      </defs>
      <g transform="translate(1037.076874 655.398438)scale(0.1 -0.1)">
       <use xlink:href="#DejaVuSans-56"/>
       <use x="63.623047" xlink:href="#DejaVuSans-48"/>
       <use x="127.246094" xlink:href="#DejaVuSans-48"/>
       <use x="190.869141" xlink:href="#DejaVuSans-46"/>
       <use x="222.65625" xlink:href="#DejaVuSans-48"/>
      </g>
     </g>
    </g>
    <g id="xtick_9">
     <g id="line2d_9">
      <g>
       <use style="stroke:#000000;stroke-width:0.8;" x="1153.973895" xlink:href="#m22fef16888" y="640.8"/>
      </g>
     </g>
     <g id="text_9">
      <!-- 900.0 -->
      <defs>
       <path d="M 10.984375 1.515625 
L 10.984375 10.5 
Q 14.703125 8.734375 18.5 7.8125 
Q 22.3125 6.890625 25.984375 6.890625 
Q 35.75 6.890625 40.890625 13.453125 
Q 46.046875 20.015625 46.78125 33.40625 
Q 43.953125 29.203125 39.59375 26.953125 
Q 35.25 24.703125 29.984375 24.703125 
Q 19.046875 24.703125 12.671875 31.3125 
Q 6.296875 37.9375 6.296875 49.421875 
Q 6.296875 60.640625 12.9375 67.421875 
Q 19.578125 74.21875 30.609375 74.21875 
Q 43.265625 74.21875 49.921875 64.515625 
Q 56.59375 54.828125 56.59375 36.375 
Q 56.59375 19.140625 48.40625 8.859375 
Q 40.234375 -1.421875 26.421875 -1.421875 
Q 22.703125 -1.421875 18.890625 -0.6875 
Q 15.09375 0.046875 10.984375 1.515625 
z
M 30.609375 32.421875 
Q 37.25 32.421875 41.125 36.953125 
Q 45.015625 41.5 45.015625 49.421875 
Q 45.015625 57.28125 41.125 61.84375 
Q 37.25 66.40625 30.609375 66.40625 
Q 23.96875 66.40625 20.09375 61.84375 
Q 16.21875 57.28125 16.21875 49.421875 
Q 16.21875 41.5 20.09375 36.953125 
Q 23.96875 32.421875 30.609375 32.421875 
z
" id="DejaVuSans-57"/>
      </defs>
      <g transform="translate(1139.659832 655.398438)scale(0.1 -0.1)">
       <use xlink:href="#DejaVuSans-57"/>
       <use x="63.623047" xlink:href="#DejaVuSans-48"/>
       <use x="127.246094" xlink:href="#DejaVuSans-48"/>
       <use x="190.869141" xlink:href="#DejaVuSans-46"/>
       <use x="222.65625" xlink:href="#DejaVuSans-48"/>
      </g>
     </g>
    </g>
    <g id="xtick_10">
     <g id="line2d_10">
      <g>
       <use style="stroke:#000000;stroke-width:0.8;" x="1256.556853" xlink:href="#m22fef16888" y="640.8"/>
      </g>
     </g>
     <g id="text_10">
      <!-- 1000.0 -->
      <g transform="translate(1239.06154 655.398438)scale(0.1 -0.1)">
       <use xlink:href="#DejaVuSans-49"/>
       <use x="63.623047" xlink:href="#DejaVuSans-48"/>
       <use x="127.246094" xlink:href="#DejaVuSans-48"/>
       <use x="190.869141" xlink:href="#DejaVuSans-48"/>
       <use x="254.492188" xlink:href="#DejaVuSans-46"/>
       <use x="286.279297" xlink:href="#DejaVuSans-48"/>
      </g>
     </g>
    </g>
    <g id="text_11">
     <!-- n -->
     <defs>
      <path d="M 54.890625 33.015625 
L 54.890625 0 
L 45.90625 0 
L 45.90625 32.71875 
Q 45.90625 40.484375 42.875 44.328125 
Q 39.84375 48.1875 33.796875 48.1875 
Q 26.515625 48.1875 22.3125 43.546875 
Q 18.109375 38.921875 18.109375 30.90625 
L 18.109375 0 
L 9.078125 0 
L 9.078125 54.6875 
L 18.109375 54.6875 
L 18.109375 46.1875 
Q 21.34375 51.125 25.703125 53.5625 
Q 30.078125 56 35.796875 56 
Q 45.21875 56 50.046875 50.171875 
Q 54.890625 44.34375 54.890625 33.015625 
z
" id="DejaVuSans-110"/>
     </defs>
     <g transform="translate(734.83125 669.076563)scale(0.1 -0.1)">
      <use xlink:href="#DejaVuSans-110"/>
     </g>
    </g>
   </g>
   <g id="matplotlib.axis_2">
    <g id="ytick_1">
     <g id="line2d_11">
      <defs>
       <path d="M 0 0 
L -3.5 0 
" id="m6e352ce286" style="stroke:#000000;stroke-width:0.8;"/>
      </defs>
      <g>
       <use style="stroke:#000000;stroke-width:0.8;" x="180" xlink:href="#m6e352ce286" y="566.611729"/>
      </g>
     </g>
     <g id="text_12">
      <!-- 100 -->
      <g transform="translate(153.9125 570.410948)scale(0.1 -0.1)">
       <use xlink:href="#DejaVuSans-49"/>
       <use x="63.623047" xlink:href="#DejaVuSans-48"/>
       <use x="127.246094" xlink:href="#DejaVuSans-48"/>
      </g>
     </g>
    </g>
    <g id="ytick_2">
     <g id="line2d_12">
      <g>
       <use style="stroke:#000000;stroke-width:0.8;" x="180" xlink:href="#m6e352ce286" y="469.885776"/>
      </g>
     </g>
     <g id="text_13">
      <!-- 200 -->
      <g transform="translate(153.9125 473.684995)scale(0.1 -0.1)">
       <use xlink:href="#DejaVuSans-50"/>
       <use x="63.623047" xlink:href="#DejaVuSans-48"/>
       <use x="127.246094" xlink:href="#DejaVuSans-48"/>
      </g>
     </g>
    </g>
    <g id="ytick_3">
     <g id="line2d_13">
      <g>
       <use style="stroke:#000000;stroke-width:0.8;" x="180" xlink:href="#m6e352ce286" y="373.159823"/>
      </g>
     </g>
     <g id="text_14">
      <!-- 300 -->
      <g transform="translate(153.9125 376.959042)scale(0.1 -0.1)">
       <use xlink:href="#DejaVuSans-51"/>
       <use x="63.623047" xlink:href="#DejaVuSans-48"/>
       <use x="127.246094" xlink:href="#DejaVuSans-48"/>
      </g>
     </g>
    </g>
    <g id="ytick_4">
     <g id="line2d_14">
      <g>
       <use style="stroke:#000000;stroke-width:0.8;" x="180" xlink:href="#m6e352ce286" y="276.43387"/>
      </g>
     </g>
     <g id="text_15">
      <!-- 400 -->
      <g transform="translate(153.9125 280.233089)scale(0.1 -0.1)">
       <use xlink:href="#DejaVuSans-52"/>
       <use x="63.623047" xlink:href="#DejaVuSans-48"/>
       <use x="127.246094" xlink:href="#DejaVuSans-48"/>
      </g>
     </g>
    </g>
    <g id="ytick_5">
     <g id="line2d_15">
      <g>
       <use style="stroke:#000000;stroke-width:0.8;" x="180" xlink:href="#m6e352ce286" y="179.707917"/>
      </g>
     </g>
     <g id="text_16">
      <!-- 500 -->
      <g transform="translate(153.9125 183.507136)scale(0.1 -0.1)">
       <use xlink:href="#DejaVuSans-53"/>
       <use x="63.623047" xlink:href="#DejaVuSans-48"/>
       <use x="127.246094" xlink:href="#DejaVuSans-48"/>
      </g>
     </g>
    </g>
    <g id="text_17">
     <!-- speedup -->
     <defs>
      <path d="M 44.28125 53.078125 
L 44.28125 44.578125 
Q 40.484375 46.53125 36.375 47.5 
Q 32.28125 48.484375 27.875 48.484375 
Q 21.1875 48.484375 17.84375 46.4375 
Q 14.5 44.390625 14.5 40.28125 
Q 14.5 37.15625 16.890625 35.375 
Q 19.28125 33.59375 26.515625 31.984375 
L 29.59375 31.296875 
Q 39.15625 29.25 43.1875 25.515625 
Q 47.21875 21.78125 47.21875 15.09375 
Q 47.21875 7.46875 41.1875 3.015625 
Q 35.15625 -1.421875 24.609375 -1.421875 
Q 20.21875 -1.421875 15.453125 -0.5625 
Q 10.6875 0.296875 5.421875 2 
L 5.421875 11.28125 
Q 10.40625 8.6875 15.234375 7.390625 
Q 20.0625 6.109375 24.8125 6.109375 
Q 31.15625 6.109375 34.5625 8.28125 
Q 37.984375 10.453125 37.984375 14.40625 
Q 37.984375 18.0625 35.515625 20.015625 
Q 33.0625 21.96875 24.703125 23.78125 
L 21.578125 24.515625 
Q 13.234375 26.265625 9.515625 29.90625 
Q 5.8125 33.546875 5.8125 39.890625 
Q 5.8125 47.609375 11.28125 51.796875 
Q 16.75 56 26.8125 56 
Q 31.78125 56 36.171875 55.265625 
Q 40.578125 54.546875 44.28125 53.078125 
z
" id="DejaVuSans-115"/>
      <path d="M 18.109375 8.203125 
L 18.109375 -20.796875 
L 9.078125 -20.796875 
L 9.078125 54.6875 
L 18.109375 54.6875 
L 18.109375 46.390625 
Q 20.953125 51.265625 25.265625 53.625 
Q 29.59375 56 35.59375 56 
Q 45.5625 56 51.78125 48.09375 
Q 58.015625 40.1875 58.015625 27.296875 
Q 58.015625 14.40625 51.78125 6.484375 
Q 45.5625 -1.421875 35.59375 -1.421875 
Q 29.59375 -1.421875 25.265625 0.953125 
Q 20.953125 3.328125 18.109375 8.203125 
z
M 48.6875 27.296875 
Q 48.6875 37.203125 44.609375 42.84375 
Q 40.53125 48.484375 33.40625 48.484375 
Q 26.265625 48.484375 22.1875 42.84375 
Q 18.109375 37.203125 18.109375 27.296875 
Q 18.109375 17.390625 22.1875 11.75 
Q 26.265625 6.109375 33.40625 6.109375 
Q 40.53125 6.109375 44.609375 11.75 
Q 48.6875 17.390625 48.6875 27.296875 
z
" id="DejaVuSans-112"/>
      <path d="M 56.203125 29.59375 
L 56.203125 25.203125 
L 14.890625 25.203125 
Q 15.484375 15.921875 20.484375 11.0625 
Q 25.484375 6.203125 34.421875 6.203125 
Q 39.59375 6.203125 44.453125 7.46875 
Q 49.3125 8.734375 54.109375 11.28125 
L 54.109375 2.78125 
Q 49.265625 0.734375 44.1875 -0.34375 
Q 39.109375 -1.421875 33.890625 -1.421875 
Q 20.796875 -1.421875 13.15625 6.1875 
Q 5.515625 13.8125 5.515625 26.8125 
Q 5.515625 40.234375 12.765625 48.109375 
Q 20.015625 56 32.328125 56 
Q 43.359375 56 49.78125 48.890625 
Q 56.203125 41.796875 56.203125 29.59375 
z
M 47.21875 32.234375 
Q 47.125 39.59375 43.09375 43.984375 
Q 39.0625 48.390625 32.421875 48.390625 
Q 24.90625 48.390625 20.390625 44.140625 
Q 15.875 39.890625 15.1875 32.171875 
z
" id="DejaVuSans-101"/>
      <path d="M 45.40625 46.390625 
L 45.40625 75.984375 
L 54.390625 75.984375 
L 54.390625 0 
L 45.40625 0 
L 45.40625 8.203125 
Q 42.578125 3.328125 38.25 0.953125 
Q 33.9375 -1.421875 27.875 -1.421875 
Q 17.96875 -1.421875 11.734375 6.484375 
Q 5.515625 14.40625 5.515625 27.296875 
Q 5.515625 40.1875 11.734375 48.09375 
Q 17.96875 56 27.875 56 
Q 33.9375 56 38.25 53.625 
Q 42.578125 51.265625 45.40625 46.390625 
z
M 14.796875 27.296875 
Q 14.796875 17.390625 18.875 11.75 
Q 22.953125 6.109375 30.078125 6.109375 
Q 37.203125 6.109375 41.296875 11.75 
Q 45.40625 17.390625 45.40625 27.296875 
Q 45.40625 37.203125 41.296875 42.84375 
Q 37.203125 48.484375 30.078125 48.484375 
Q 22.953125 48.484375 18.875 42.84375 
Q 14.796875 37.203125 14.796875 27.296875 
z
" id="DejaVuSans-100"/>
      <path d="M 8.5 21.578125 
L 8.5 54.6875 
L 17.484375 54.6875 
L 17.484375 21.921875 
Q 17.484375 14.15625 20.5 10.265625 
Q 23.53125 6.390625 29.59375 6.390625 
Q 36.859375 6.390625 41.078125 11.03125 
Q 45.3125 15.671875 45.3125 23.6875 
L 45.3125 54.6875 
L 54.296875 54.6875 
L 54.296875 0 
L 45.3125 0 
L 45.3125 8.40625 
Q 42.046875 3.421875 37.71875 1 
Q 33.40625 -1.421875 27.6875 -1.421875 
Q 18.265625 -1.421875 13.375 4.4375 
Q 8.5 10.296875 8.5 21.578125 
z
M 31.109375 56 
z
" id="DejaVuSans-117"/>
     </defs>
     <g transform="translate(147.832812 385.049219)rotate(-90)scale(0.1 -0.1)">
      <use xlink:href="#DejaVuSans-115"/>
      <use x="52.099609" xlink:href="#DejaVuSans-112"/>
      <use x="115.576172" xlink:href="#DejaVuSans-101"/>
      <use x="177.099609" xlink:href="#DejaVuSans-101"/>
      <use x="238.623047" xlink:href="#DejaVuSans-100"/>
      <use x="302.099609" xlink:href="#DejaVuSans-117"/>
      <use x="365.478516" xlink:href="#DejaVuSans-112"/>
     </g>
    </g>
   </g>
   <g id="line2d_16">
    <path clip-path="url(#pe1eaba6e6a)" d="M 230.727273 390.832839 
L 231.753102 442.724882 
L 232.778932 136.993691 
L 233.804761 445.287906 
L 234.830591 144.071358 
L 235.856421 472.853953 
L 236.88225 448.851064 
L 237.90808 161.456597 
L 238.933909 470.279266 
L 239.959739 444.431468 
L 240.985569 208.529477 
L 242.011398 479.682969 
L 243.037228 158.368207 
L 244.063057 483.089324 
L 245.088887 447.408815 
L 246.114716 165.953732 
L 247.140546 206.511333 
L 248.166376 189.438972 
L 249.192205 201.708937 
L 250.218035 210.750055 
L 251.243864 213.605672 
L 252.269694 212.831257 
L 253.295523 211.907249 
L 254.321353 229.635306 
L 255.347183 226.463194 
L 256.373012 232.035367 
L 257.398842 233.96021 
L 258.424671 241.132513 
L 259.450501 243.358935 
L 260.476331 227.576189 
L 261.50216 249.902684 
L 262.52799 254.365737 
L 263.553819 249.466463 
L 264.579649 257.740251 
L 265.605478 255.141431 
L 266.631308 242.535337 
L 267.657138 263.33951 
L 268.682967 258.508574 
L 269.708797 263.084154 
L 270.734626 249.590907 
L 271.760456 267.414414 
L 272.786286 281.721987 
L 273.812115 275.404408 
L 274.837945 290.763502 
L 275.863774 268.99064 
L 276.889604 289.463988 
L 277.915433 285.161636 
L 278.941263 288.930008 
L 279.967093 312.79098 
L 280.992922 281.896779 
L 282.018752 288.333466 
L 283.044581 273.693577 
L 284.070411 298.809454 
L 285.09624 304.04264 
L 286.12207 303.236882 
L 287.1479 279.658651 
L 289.199559 318.409328 
L 290.225388 289.382039 
L 291.251218 293.813254 
L 292.277048 308.147547 
L 293.302877 318.495884 
L 294.328707 305.479808 
L 295.354536 311.858266 
L 296.380366 323.405432 
L 297.406195 342.49484 
L 298.432025 322.054127 
L 299.457855 312.497842 
L 300.483684 320.192315 
L 301.509514 332.530174 
L 302.535343 322.4279 
L 303.561173 336.797202 
L 304.587002 333.990229 
L 305.612832 335.565612 
L 306.638662 330.259404 
L 307.664491 343.967286 
L 308.690321 329.360064 
L 309.71615 346.509775 
L 310.74198 323.28218 
L 311.76781 327.077349 
L 312.793639 350.162975 
L 313.819469 341.824033 
L 314.845298 345.530349 
L 315.871128 351.588716 
L 316.896957 355.496539 
L 317.922787 352.958495 
L 318.948617 351.210491 
L 319.974446 356.9049 
L 321.000276 357.737248 
L 322.026105 365.095601 
L 323.051935 348.040616 
L 324.077765 434.370975 
L 325.103594 363.738382 
L 326.129424 360.226276 
L 327.155253 362.847015 
L 328.181083 368.466917 
L 329.206912 341.246099 
L 330.232742 353.469392 
L 331.258572 370.490262 
L 332.284401 381.372944 
L 333.310231 374.320647 
L 334.33606 376.111543 
L 335.36189 381.76184 
L 336.387719 366.893383 
L 337.413549 375.907472 
L 338.439379 375.907597 
L 339.465208 377.349201 
L 341.516867 386.033868 
L 342.542697 379.976335 
L 343.568527 394.571591 
L 345.620186 375.564031 
L 346.646015 392.071738 
L 347.671845 376.956846 
L 348.697674 389.010604 
L 349.723504 386.774735 
L 350.749334 389.60914 
L 351.775163 393.569426 
L 352.800993 387.748167 
L 353.826822 395.06719 
L 354.852652 397.764665 
L 355.878481 395.427095 
L 356.904311 397.343652 
L 357.930141 379.676457 
L 358.95597 394.622093 
L 359.9818 396.796685 
L 361.007629 386.055278 
L 362.033459 404.36278 
L 363.059289 403.098737 
L 364.085118 410.310086 
L 365.110948 400.571197 
L 366.136777 404.027652 
L 367.162607 401.354815 
L 368.188436 414.838008 
L 369.214266 405.526559 
L 370.240096 407.207051 
L 371.265925 404.231675 
L 372.291755 405.652733 
L 373.317584 409.025383 
L 374.343414 416.301498 
L 375.369243 404.766462 
L 376.395073 420.398325 
L 377.420903 418.464909 
L 378.446732 428.170818 
L 379.472562 426.251724 
L 380.498391 426.43659 
L 381.524221 421.875388 
L 382.550051 403.62047 
L 383.57588 423.902506 
L 384.60171 430.919192 
L 385.627539 425.656878 
L 386.653369 421.846339 
L 387.679198 428.583595 
L 389.730858 423.551472 
L 390.756687 429.214346 
L 392.808346 435.822782 
L 393.834176 429.596959 
L 394.860006 430.837431 
L 395.885835 428.760266 
L 396.911665 439.111895 
L 397.937494 431.252005 
L 398.963324 442.964414 
L 399.989153 442.575298 
L 401.014983 431.511981 
L 402.040813 437.445668 
L 403.066642 436.886776 
L 404.092472 437.896946 
L 405.118301 447.880804 
L 406.144131 446.234147 
L 407.16996 442.808304 
L 408.19579 433.773743 
L 409.22162 450.136838 
L 410.247449 432.070783 
L 411.273279 427.521336 
L 412.299108 423.962555 
L 413.324938 449.168443 
L 414.350768 452.377651 
L 415.376597 451.54656 
L 417.428256 436.767278 
L 418.454086 451.619558 
L 419.479915 445.049474 
L 420.505745 454.203417 
L 421.531575 362.064928 
L 422.557404 498.514546 
L 423.583234 451.359601 
L 424.609063 451.85219 
L 425.634893 454.081809 
L 426.660722 443.801338 
L 427.686552 469.657691 
L 428.712382 460.068186 
L 429.738211 452.029473 
L 430.764041 453.518892 
L 431.78987 456.94271 
L 432.8157 463.964446 
L 433.84153 456.307678 
L 434.867359 443.064441 
L 435.893189 463.848187 
L 436.919018 458.164857 
L 437.944848 447.927141 
L 438.970677 459.798501 
L 439.996507 458.846416 
L 441.022337 467.38202 
L 442.048166 469.373032 
L 443.073996 458.435029 
L 444.099825 467.956038 
L 445.125655 467.298443 
L 446.151485 465.376087 
L 447.177314 455.573722 
L 449.228973 471.951771 
L 450.254803 468.218939 
L 451.280632 471.445078 
L 452.306462 470.766389 
L 453.332292 463.1777 
L 454.358121 472.900177 
L 455.383951 473.510627 
L 456.40978 472.580169 
L 457.43561 470.632605 
L 458.461439 467.68659 
L 459.487269 471.048036 
L 460.513099 466.132178 
L 461.538928 504.226831 
L 462.564758 473.919211 
L 463.590587 474.123994 
L 464.616417 475.076721 
L 465.642247 490.996716 
L 466.668076 476.046118 
L 467.693906 477.971428 
L 468.719735 479.391636 
L 469.745565 476.742387 
L 470.771394 476.788291 
L 471.797224 465.055411 
L 472.823054 484.382666 
L 473.848883 474.659333 
L 474.874713 469.641096 
L 475.900542 491.934396 
L 476.926372 486.902203 
L 477.952201 465.575727 
L 478.978031 472.846962 
L 480.003861 504.670446 
L 481.02969 482.423045 
L 482.05552 489.716632 
L 483.081349 476.172596 
L 484.107179 477.584175 
L 485.133009 511.223081 
L 486.158838 531.652091 
L 487.184668 482.321464 
L 488.210497 487.541532 
L 489.236327 478.363295 
L 490.262156 483.081548 
L 491.287986 486.578673 
L 492.313816 477.615776 
L 493.339645 492.509915 
L 494.365475 478.075123 
L 495.391304 487.723981 
L 496.417134 484.310486 
L 497.442964 489.912224 
L 498.468793 482.169356 
L 499.494623 496.426764 
L 500.520452 500.997051 
L 501.546282 499.996264 
L 502.572111 494.290359 
L 503.597941 495.753263 
L 504.623771 491.559006 
L 506.67543 497.331132 
L 507.701259 489.979271 
L 508.727089 490.441824 
L 509.752918 493.744414 
L 510.778748 497.677084 
L 511.804578 484.66672 
L 512.830407 501.909971 
L 513.856237 496.275171 
L 514.882066 495.48777 
L 515.907896 495.269018 
L 516.933726 492.557154 
L 517.959555 505.611965 
L 518.985385 496.571596 
L 520.011214 499.205951 
L 521.037044 500.809613 
L 522.062873 501.035969 
L 523.088703 489.090417 
L 524.114533 503.299247 
L 525.140362 501.574659 
L 526.166192 499.472864 
L 527.192021 503.556815 
L 528.217851 502.808454 
L 529.24368 501.204128 
L 530.26951 496.047171 
L 531.29534 502.184786 
L 532.321169 517.40013 
L 533.346999 495.970469 
L 534.372828 513.515557 
L 535.398658 498.370487 
L 536.424488 495.889257 
L 537.450317 508.144622 
L 538.476147 505.968667 
L 539.501976 513.823817 
L 541.553635 453.046161 
L 542.579465 502.601301 
L 543.605295 515.729877 
L 545.656954 476.619106 
L 546.682783 524.543418 
L 547.708613 546.528515 
L 548.734443 509.654905 
L 549.760272 512.775132 
L 550.786102 508.866965 
L 551.811931 511.548578 
L 552.837761 522.442503 
L 554.88942 508.759908 
L 555.91525 527.330563 
L 556.941079 506.647583 
L 557.966909 508.947109 
L 558.992738 513.196379 
L 560.018568 512.760172 
L 561.044397 509.015247 
L 562.070227 517.899836 
L 563.096057 513.081695 
L 564.121886 470.346866 
L 566.173545 538.987317 
L 567.199375 523.544648 
L 568.225205 503.80995 
L 569.251034 528.407675 
L 570.276864 511.775116 
L 571.302693 533.482833 
L 572.328523 505.270738 
L 573.354352 491.508414 
L 574.380182 506.107118 
L 575.406012 534.661688 
L 576.431841 525.685218 
L 577.457671 518.885151 
L 578.4835 520.064172 
L 579.50933 516.359329 
L 580.535159 515.405795 
L 581.560989 522.372147 
L 582.586819 523.204131 
L 583.612648 529.515838 
L 585.664307 523.551865 
L 586.690137 522.511751 
L 587.715967 522.694504 
L 588.741796 522.188977 
L 589.767626 524.567583 
L 590.793455 524.91165 
L 591.819285 516.575254 
L 592.845114 524.824601 
L 593.870944 517.401236 
L 594.896774 528.728585 
L 595.922603 522.116963 
L 596.948433 523.884849 
L 597.974262 527.755523 
L 599.000092 525.182002 
L 600.025922 526.179363 
L 601.051751 531.168975 
L 602.077581 529.273134 
L 604.12924 527.829061 
L 605.155069 527.835508 
L 606.180899 528.580999 
L 607.206729 530.903157 
L 608.232558 528.379871 
L 609.258388 530.797001 
L 610.284217 530.198872 
L 611.310047 531.911165 
L 612.335876 527.691948 
L 613.361706 529.924668 
L 614.387536 528.975615 
L 615.413365 529.586211 
L 616.439195 529.207485 
L 617.465024 529.959897 
L 618.490854 532.25103 
L 619.516684 532.054984 
L 620.542513 531.187469 
L 621.568343 519.410269 
L 622.594172 523.618108 
L 623.620002 533.726492 
L 625.671661 526.589203 
L 627.72332 533.137066 
L 628.74915 531.436483 
L 629.774979 535.446159 
L 630.800809 530.614046 
L 631.826638 531.228944 
L 632.852468 537.352354 
L 633.878298 537.718649 
L 634.904127 532.766688 
L 635.929957 535.754213 
L 636.955786 538.030668 
L 637.981616 536.765399 
L 639.007446 530.366015 
L 640.033275 535.498506 
L 641.059105 537.328484 
L 642.084934 525.13955 
L 643.110764 532.123549 
L 644.136593 533.86034 
L 645.162423 539.308298 
L 646.188253 540.415317 
L 647.214082 533.449133 
L 648.239912 541.917137 
L 649.265741 540.999488 
L 650.291571 541.377966 
L 651.3174 534.518309 
L 652.34323 542.124913 
L 653.36906 538.347521 
L 654.394889 541.749646 
L 655.420719 543.159975 
L 656.446548 542.069945 
L 657.472378 534.863051 
L 658.498208 535.792061 
L 659.524037 542.199127 
L 660.549867 541.247837 
L 661.575696 543.177205 
L 662.601526 542.803701 
L 663.627355 540.179784 
L 664.653185 545.864509 
L 665.679015 541.738989 
L 666.704844 539.321672 
L 667.730674 543.367889 
L 668.756503 543.069988 
L 669.782333 549.078325 
L 670.808163 544.772851 
L 671.833992 541.880325 
L 672.859822 543.681289 
L 673.885651 550.908422 
L 674.911481 560.876159 
L 675.93731 544.168088 
L 676.96314 548.498854 
L 677.98897 551.247891 
L 680.040629 539.888899 
L 681.066458 537.893846 
L 682.092288 548.95856 
L 683.118117 548.844783 
L 684.143947 551.284495 
L 685.169777 536.556103 
L 686.195606 551.808826 
L 687.221436 550.887948 
L 688.247265 554.843099 
L 689.273095 556.539507 
L 690.298925 549.41513 
L 691.324754 552.488455 
L 692.350584 551.970076 
L 693.376413 560.641738 
L 694.402243 555.621741 
L 695.428072 551.605874 
L 696.453902 567.574503 
L 697.479732 550.84036 
L 698.505561 549.15114 
L 699.531391 555.787697 
L 700.55722 551.782924 
L 701.58305 545.42155 
L 702.608879 552.481707 
L 703.634709 553.444975 
L 704.660539 556.100218 
L 705.686368 553.660364 
L 706.712198 552.931959 
L 707.738027 551.530846 
L 708.763857 554.2755 
L 709.789687 555.119031 
L 710.815516 552.802712 
L 711.841346 552.941145 
L 712.867175 556.189183 
L 713.893005 555.625648 
L 714.918834 555.685432 
L 715.944664 554.972811 
L 716.970494 555.892097 
L 717.996323 552.759931 
L 719.022153 552.761108 
L 721.073812 560.458941 
L 722.099642 557.630998 
L 723.125471 570.433365 
L 724.151301 557.202165 
L 725.17713 552.993709 
L 726.20296 566.629947 
L 727.228789 558.680632 
L 728.254619 553.620757 
L 729.280449 555.70793 
L 730.306278 553.058402 
L 731.332108 556.939086 
L 732.357937 556.979716 
L 733.383767 551.430523 
L 734.409596 551.573836 
L 735.435426 559.115142 
L 736.461256 560.767524 
L 737.487085 559.891847 
L 738.512915 555.365952 
L 739.538744 557.404813 
L 740.564574 559.031263 
L 741.590404 564.848237 
L 742.616233 615.6 
L 743.642063 553.243782 
L 744.667892 559.097802 
L 745.693722 556.74895 
L 746.719551 552.8078 
L 747.745381 563.864887 
L 748.771211 558.103667 
L 749.79704 556.968631 
L 750.82287 562.475045 
L 751.848699 561.030624 
L 752.874529 565.793733 
L 753.900358 560.409606 
L 754.926188 557.673582 
L 755.952018 561.429782 
L 756.977847 555.174945 
L 758.003677 567.374262 
L 759.029506 561.380981 
L 760.055336 592.437967 
L 761.081166 560.965971 
L 762.106995 559.581392 
L 763.132825 565.415527 
L 764.158654 558.657058 
L 765.184484 561.687721 
L 766.210313 561.197635 
L 767.236143 557.552498 
L 768.261973 562.640966 
L 769.287802 557.926423 
L 770.313632 564.262044 
L 771.339461 564.630861 
L 772.365291 561.850783 
L 773.391121 563.536451 
L 774.41695 558.519671 
L 775.44278 565.562232 
L 776.468609 563.240017 
L 777.494439 563.395948 
L 778.520268 566.950319 
L 779.546098 558.890947 
L 780.571928 566.753081 
L 781.597757 560.583232 
L 782.623587 563.120922 
L 783.649416 567.93499 
L 784.675246 558.958618 
L 785.701075 564.431993 
L 786.726905 563.967565 
L 787.752735 566.250263 
L 788.778564 567.256196 
L 789.804394 560.661691 
L 790.830223 565.449022 
L 791.856053 564.262708 
L 792.881883 568.182661 
L 793.907712 563.254065 
L 794.933542 563.743917 
L 796.985201 566.821162 
L 798.01103 565.186305 
L 799.03686 565.284994 
L 800.06269 565.641031 
L 801.088519 569.362773 
L 802.114349 565.962194 
L 803.140178 570.452779 
L 804.166008 573.730992 
L 805.191837 567.735558 
L 806.217667 568.878594 
L 807.243497 566.120131 
L 808.269326 567.443887 
L 809.295156 568.326866 
L 810.320985 570.123194 
L 811.346815 566.66653 
L 812.372645 564.876307 
L 813.398474 567.032481 
L 814.424304 567.879158 
L 815.450133 569.788213 
L 816.475963 567.38564 
L 817.501792 572.415772 
L 818.527622 569.842959 
L 819.553452 569.677133 
L 820.579281 564.808958 
L 821.605111 569.394603 
L 822.63094 566.73196 
L 823.65677 568.369171 
L 824.6826 568.899789 
L 825.708429 573.947323 
L 826.734259 570.004711 
L 827.760088 569.137055 
L 828.785918 570.255029 
L 829.811747 573.737696 
L 830.837577 574.155745 
L 831.863407 576.050623 
L 832.889236 567.120541 
L 833.915066 568.672816 
L 834.940895 567.900371 
L 835.966725 571.052537 
L 836.992554 572.274465 
L 838.018384 578.379663 
L 839.044214 572.731691 
L 840.070043 569.589805 
L 841.095873 574.042971 
L 842.121702 572.978396 
L 843.147532 573.275043 
L 844.173362 570.717338 
L 845.199191 569.596019 
L 846.225021 570.725191 
L 847.25085 574.049828 
L 848.27668 572.5331 
L 849.302509 572.523029 
L 850.328339 567.001789 
L 851.354169 568.701828 
L 852.379998 571.695468 
L 853.405828 573.609801 
L 854.431657 580.704519 
L 856.483316 573.351504 
L 857.509146 571.666578 
L 858.534976 572.314333 
L 859.560805 569.618296 
L 860.586635 576.564929 
L 861.612464 574.818424 
L 862.638294 575.729356 
L 863.664124 574.9725 
L 864.689953 570.729866 
L 865.715783 573.150829 
L 866.741612 573.240681 
L 867.767442 574.57768 
L 868.793271 573.334037 
L 869.819101 573.939425 
L 870.844931 576.529843 
L 871.87076 574.545662 
L 872.89659 581.916453 
L 873.922419 577.357131 
L 874.948249 577.055741 
L 875.974078 574.835372 
L 876.999908 575.825258 
L 878.025738 574.972637 
L 879.051567 574.959202 
L 880.077397 575.999837 
L 881.103226 577.299411 
L 882.129056 576.180018 
L 883.154886 577.117733 
L 884.180715 573.720834 
L 885.206545 576.712181 
L 886.232374 574.657381 
L 887.258204 576.496631 
L 888.284033 575.342966 
L 889.309863 577.582113 
L 890.335693 574.537394 
L 891.361522 576.255245 
L 892.387352 575.15137 
L 893.413181 577.478489 
L 894.439011 577.357549 
L 895.464841 576.44913 
L 896.49067 578.218312 
L 897.5165 577.376757 
L 898.542329 577.008708 
L 899.568159 578.237145 
L 900.593988 576.15598 
L 902.645648 576.613752 
L 903.671477 579.146505 
L 904.697307 580.254239 
L 905.723136 579.205764 
L 906.748966 579.405117 
L 907.774795 577.634194 
L 909.826455 579.888547 
L 910.852284 578.508114 
L 911.878114 580.347425 
L 912.903943 572.579285 
L 913.929773 580.321252 
L 914.955603 582.176923 
L 915.981432 582.427149 
L 917.007262 578.183099 
L 918.033091 578.525846 
L 919.058921 579.389475 
L 920.08475 579.041784 
L 921.11058 580.924893 
L 922.13641 580.794125 
L 923.162239 581.062695 
L 924.188069 577.214919 
L 925.213898 591.595285 
L 926.239728 583.086331 
L 927.265557 576.895671 
L 928.291387 579.567987 
L 929.317217 580.092533 
L 930.343046 583.303863 
L 931.368876 581.06091 
L 932.394705 588.605929 
L 933.420535 584.61088 
L 934.446365 581.303219 
L 935.472194 579.921304 
L 936.498024 579.16793 
L 937.523853 582.244533 
L 938.549683 604.821579 
L 939.575512 583.940132 
L 940.601342 582.810884 
L 941.627172 578.746632 
L 942.653001 587.942875 
L 943.678831 582.886156 
L 944.70466 582.831839 
L 945.73049 584.531752 
L 946.75632 583.217213 
L 947.782149 585.470318 
L 948.807979 588.505897 
L 949.833808 583.671459 
L 950.859638 581.262118 
L 951.885467 587.520366 
L 952.911297 581.494456 
L 953.937127 583.489082 
L 954.962956 583.25191 
L 955.988786 584.890373 
L 957.014615 584.307475 
L 958.040445 585.677898 
L 959.066274 584.995899 
L 960.092104 582.434291 
L 961.117934 585.816364 
L 962.143763 585.390149 
L 963.169593 585.710354 
L 964.195422 584.199101 
L 965.221252 584.290655 
L 966.247082 583.557752 
L 967.272911 582.631311 
L 968.298741 584.095939 
L 969.32457 583.139462 
L 970.3504 589.687296 
L 971.376229 584.83756 
L 972.402059 586.736047 
L 973.427889 585.904357 
L 974.453718 588.261804 
L 975.479548 586.008884 
L 976.505377 588.920893 
L 977.531207 586.830305 
L 978.557036 579.473875 
L 979.582866 590.072846 
L 980.608696 583.834284 
L 981.634525 584.57688 
L 982.660355 584.671982 
L 983.686184 588.406871 
L 984.712014 585.88365 
L 985.737844 584.051143 
L 986.763673 586.441697 
L 987.789503 584.502605 
L 988.815332 588.30431 
L 989.841162 584.91429 
L 990.866991 586.08909 
L 991.892821 605.214839 
L 992.918651 588.847368 
L 993.94448 587.165162 
L 994.97031 586.772807 
L 995.996139 585.783311 
L 998.047799 587.545015 
L 999.073628 586.518812 
L 1000.099458 588.297038 
L 1001.125287 588.353973 
L 1002.151117 588.549589 
L 1003.176946 589.084233 
L 1004.202776 591.702036 
L 1005.228606 586.08719 
L 1006.254435 585.244684 
L 1007.280265 587.848765 
L 1008.306094 587.656565 
L 1009.331924 586.835434 
L 1010.357753 584.130879 
L 1011.383583 587.650291 
L 1012.409413 586.316142 
L 1013.435242 588.694058 
L 1014.461072 588.544394 
L 1015.486901 589.776047 
L 1016.512731 588.608909 
L 1017.538561 600.126912 
L 1018.56439 590.597033 
L 1019.59022 583.554857 
L 1020.616049 589.565787 
L 1021.641879 585.443362 
L 1023.693538 590.140257 
L 1024.719368 591.126297 
L 1025.745197 590.367205 
L 1026.771027 591.41921 
L 1027.796856 591.056337 
L 1028.822686 585.016777 
L 1029.848515 590.286111 
L 1030.874345 588.544193 
L 1031.900175 590.915387 
L 1032.926004 585.77097 
L 1033.951834 589.664113 
L 1034.977663 588.336089 
L 1036.003493 588.120721 
L 1037.029323 589.561882 
L 1038.055152 592.279989 
L 1039.080982 589.850996 
L 1040.106811 588.137108 
L 1041.132641 590.53536 
L 1042.15847 586.895397 
L 1043.1843 590.966543 
L 1044.21013 588.791561 
L 1045.235959 591.594103 
L 1046.261789 588.249698 
L 1047.287618 594.506026 
L 1048.313448 589.7321 
L 1049.339278 589.293544 
L 1050.365107 592.757621 
L 1051.390937 594.677004 
L 1052.416766 592.112802 
L 1053.442596 593.059845 
L 1054.468425 590.611611 
L 1055.494255 590.806794 
L 1056.520085 590.300218 
L 1057.545914 589.999672 
L 1058.571744 591.647652 
L 1059.597573 588.069023 
L 1060.623403 590.334561 
L 1061.649232 590.122428 
L 1062.675062 591.016987 
L 1063.700892 591.219017 
L 1064.726721 594.539844 
L 1065.752551 594.735189 
L 1066.77838 591.308731 
L 1067.80421 591.288768 
L 1068.83004 598.621337 
L 1069.855869 593.28061 
L 1070.881699 593.894628 
L 1071.907528 592.584409 
L 1072.933358 589.78162 
L 1073.959187 591.135934 
L 1074.985017 593.979447 
L 1076.010847 593.714121 
L 1078.062506 594.127203 
L 1079.088335 593.79951 
L 1080.114165 593.622267 
L 1081.139994 594.724345 
L 1082.165824 594.650162 
L 1083.191654 599.054883 
L 1084.217483 593.993894 
L 1085.243313 594.777212 
L 1086.269142 591.509692 
L 1087.294972 593.202002 
L 1088.320802 593.879644 
L 1089.346631 593.186024 
L 1090.372461 594.472139 
L 1091.39829 594.314452 
L 1092.42412 593.550412 
L 1093.449949 593.263014 
L 1095.501609 594.971299 
L 1096.527438 593.531565 
L 1097.553268 593.859832 
L 1098.579097 594.367964 
L 1099.604927 593.958215 
L 1100.630757 593.38785 
L 1101.656586 594.742214 
L 1102.682416 594.807602 
L 1103.708245 592.837754 
L 1104.734075 594.981099 
L 1105.759904 593.919547 
L 1106.785734 594.79948 
L 1107.811564 594.975874 
L 1108.837393 594.156431 
L 1109.863223 595.119222 
L 1110.889052 595.842047 
L 1111.914882 594.661473 
L 1112.940711 594.810386 
L 1113.966541 595.246441 
L 1114.992371 596.437008 
L 1116.0182 595.354687 
L 1117.04403 595.952388 
L 1118.069859 597.106853 
L 1119.095689 596.640498 
L 1120.121519 598.070024 
L 1122.173178 594.522096 
L 1123.199007 596.245588 
L 1124.224837 597.66628 
L 1125.250666 597.2537 
L 1126.276496 596.306738 
L 1129.353985 597.85329 
L 1131.405644 596.193365 
L 1132.431473 596.581709 
L 1133.457303 594.45914 
L 1134.483133 596.704726 
L 1135.508962 596.987224 
L 1137.560621 597.328689 
L 1138.586451 597.183431 
L 1139.612281 597.81565 
L 1140.63811 599.725797 
L 1141.66394 598.022115 
L 1142.689769 598.673418 
L 1144.741428 596.510644 
L 1145.767258 599.205126 
L 1146.793088 599.092132 
L 1147.818917 598.23573 
L 1148.844747 598.647814 
L 1149.870576 598.370074 
L 1150.896406 597.482419 
L 1151.922235 598.82797 
L 1152.948065 599.336195 
L 1153.973895 599.013741 
L 1154.999724 597.950059 
L 1156.025554 599.115634 
L 1157.051383 599.499141 
L 1158.077213 597.083594 
L 1159.103043 599.504985 
L 1160.128872 598.986977 
L 1161.154702 600.762567 
L 1162.180531 598.258435 
L 1163.206361 598.729331 
L 1164.23219 598.3618 
L 1165.25802 598.852789 
L 1166.28385 599.006138 
L 1167.309679 599.894636 
L 1168.335509 598.443379 
L 1169.361338 598.357084 
L 1170.387168 598.711721 
L 1171.412998 601.019199 
L 1172.438827 597.704945 
L 1173.464657 598.520905 
L 1174.490486 599.6127 
L 1175.516316 598.648547 
L 1176.542145 599.009882 
L 1177.567975 599.818847 
L 1178.593805 599.480649 
L 1179.619634 599.613796 
L 1180.645464 598.060146 
L 1181.671293 600.123798 
L 1182.697123 599.055119 
L 1184.748782 600.774823 
L 1185.774612 600.365963 
L 1186.800441 597.696741 
L 1187.826271 599.06222 
L 1188.8521 601.218473 
L 1189.87793 598.726786 
L 1190.90376 599.946246 
L 1191.929589 599.112539 
L 1192.955419 602.190147 
L 1193.981248 600.687323 
L 1195.007078 599.481894 
L 1196.032907 606.838842 
L 1197.058737 606.461705 
L 1198.084567 600.433477 
L 1199.110396 598.619629 
L 1200.136226 599.664184 
L 1201.162055 599.531013 
L 1202.187885 600.42748 
L 1203.213714 600.893644 
L 1204.239544 601.944159 
L 1205.265374 613.587343 
L 1206.291203 602.805982 
L 1207.317033 602.303171 
L 1208.342862 601.193167 
L 1209.368692 599.838398 
L 1210.394522 602.241234 
L 1212.446181 600.502634 
L 1213.47201 599.96124 
L 1214.49784 601.475359 
L 1215.523669 599.786978 
L 1216.549499 599.325436 
L 1217.575329 600.594822 
L 1218.601158 603.246839 
L 1219.626988 601.293587 
L 1220.652817 600.57692 
L 1221.678647 600.642938 
L 1222.704477 602.430372 
L 1223.730306 600.628199 
L 1224.756136 601.983194 
L 1225.781965 599.173788 
L 1226.807795 602.699282 
L 1227.833624 601.125957 
L 1228.859454 601.573663 
L 1229.885284 600.285024 
L 1230.911113 603.340471 
L 1231.936943 602.077655 
L 1232.962772 603.784652 
L 1233.988602 600.215084 
L 1235.014431 604.715438 
L 1236.040261 602.178988 
L 1237.066091 602.105825 
L 1238.09192 602.748565 
L 1239.11775 601.36562 
L 1240.143579 602.710504 
L 1241.169409 601.259741 
L 1242.195239 601.898702 
L 1243.221068 606.980315 
L 1244.246898 596.293499 
L 1245.272727 605.367546 
L 1245.272727 605.367546 
" style="fill:none;stroke:#1f77b4;stroke-linecap:square;stroke-width:1.5;"/>
   </g>
   <g id="line2d_17">
    <path clip-path="url(#pe1eaba6e6a)" d="M 230.727273 260.051266 
L 231.753102 143.098728 
L 232.778932 111.6 
L 233.804761 186.642184 
L 234.830591 148.093633 
L 235.856421 171.540841 
L 236.88225 159.854979 
L 237.90808 183.352811 
L 238.933909 178.47045 
L 239.959739 187.390265 
L 240.985569 180.70881 
L 243.037228 211.923973 
L 244.063057 205.89739 
L 245.088887 208.123316 
L 246.114716 197.132927 
L 247.140546 225.557472 
L 248.166376 211.580459 
L 249.192205 202.240929 
L 251.243864 238.526405 
L 252.269694 245.107603 
L 253.295523 231.030551 
L 254.321353 245.539794 
L 255.347183 242.349051 
L 256.373012 244.288755 
L 257.398842 258.77591 
L 258.424671 259.134803 
L 259.450501 253.290257 
L 260.476331 150.472004 
L 261.50216 231.211458 
L 262.52799 281.270287 
L 263.553819 237.803747 
L 264.579649 278.669288 
L 265.605478 244.461129 
L 266.631308 281.286003 
L 267.657138 273.81348 
L 268.682967 299.360228 
L 269.708797 264.962625 
L 270.734626 243.071804 
L 271.760456 261.077199 
L 272.786286 246.879808 
L 273.812115 389.631765 
L 274.837945 302.431542 
L 275.863774 273.808695 
L 276.889604 310.602651 
L 277.915433 295.793659 
L 278.941263 287.859999 
L 279.967093 297.145329 
L 280.992922 301.377783 
L 282.018752 300.589829 
L 283.044581 297.396905 
L 284.070411 278.475401 
L 285.09624 374.496292 
L 286.12207 410.744129 
L 287.1479 284.044741 
L 288.173729 322.700093 
L 289.199559 325.086736 
L 290.225388 318.106622 
L 291.251218 315.76551 
L 292.277048 318.388059 
L 293.302877 330.639222 
L 294.328707 324.936268 
L 295.354536 328.180118 
L 296.380366 317.373131 
L 297.406195 337.725284 
L 298.432025 320.86833 
L 299.457855 333.720512 
L 300.483684 369.246224 
L 301.509514 343.507305 
L 302.535343 321.68083 
L 303.561173 326.803952 
L 304.587002 347.506962 
L 305.612832 330.627466 
L 306.638662 325.893339 
L 307.664491 356.835963 
L 308.690321 352.947178 
L 309.71615 338.222712 
L 310.74198 450.47298 
L 311.76781 351.741179 
L 312.793639 363.969682 
L 313.819469 352.996764 
L 314.845298 344.878044 
L 315.871128 350.304374 
L 316.896957 348.414495 
L 317.922787 375.852187 
L 318.948617 357.021674 
L 319.974446 345.894897 
L 321.000276 374.716191 
L 322.026105 368.88388 
L 323.051935 370.567632 
L 324.077765 337.714977 
L 325.103594 357.644648 
L 326.129424 390.729225 
L 327.155253 366.993463 
L 328.181083 372.848941 
L 329.206912 368.019256 
L 330.232742 376.175918 
L 331.258572 368.964245 
L 332.284401 366.570092 
L 334.33606 376.965174 
L 335.36189 381.13108 
L 336.387719 384.072632 
L 337.413549 379.41553 
L 338.439379 406.139011 
L 339.465208 378.5578 
L 340.491038 387.842858 
L 341.516867 421.815495 
L 342.542697 389.334927 
L 343.568527 374.984805 
L 344.594356 401.360036 
L 345.620186 391.167304 
L 346.646015 402.900868 
L 347.671845 387.234761 
L 348.697674 396.796406 
L 349.723504 395.568555 
L 350.749334 402.776422 
L 351.775163 390.41495 
L 352.800993 428.196656 
L 353.826822 373.416222 
L 354.852652 445.157312 
L 355.878481 432.051422 
L 356.904311 368.398862 
L 357.930141 425.109729 
L 358.95597 379.776246 
L 359.9818 440.184414 
L 361.007629 463.204756 
L 362.033459 454.51538 
L 363.059289 435.883269 
L 364.085118 352.104391 
L 365.110948 415.834936 
L 366.136777 436.080595 
L 367.162607 421.005124 
L 368.188436 418.164268 
L 369.214266 277.883557 
L 370.240096 415.240937 
L 371.265925 419.037987 
L 372.291755 424.715972 
L 373.317584 428.61711 
L 374.343414 299.011303 
L 375.369243 434.918481 
L 376.395073 411.19414 
L 377.420903 489.70714 
L 378.446732 434.344871 
L 379.472562 417.703022 
L 380.498391 406.661837 
L 381.524221 433.401935 
L 382.550051 425.72537 
L 383.57588 427.297741 
L 384.60171 428.651466 
L 385.627539 435.483903 
L 386.653369 430.336939 
L 387.679198 428.443151 
L 388.705028 441.768104 
L 389.730858 437.054125 
L 390.756687 444.833176 
L 391.782517 432.883391 
L 392.808346 449.403001 
L 393.834176 429.525204 
L 394.860006 441.138655 
L 395.885835 451.434883 
L 396.911665 445.469561 
L 397.937494 443.893955 
L 398.963324 447.879508 
L 399.989153 444.195621 
L 401.014983 443.422364 
L 402.040813 441.828494 
L 403.066642 449.725622 
L 404.092472 454.904528 
L 405.118301 451.930505 
L 406.144131 451.897802 
L 407.16996 456.112346 
L 408.19579 457.079071 
L 409.22162 448.417149 
L 410.247449 468.905861 
L 411.273279 453.939874 
L 412.299108 451.97824 
L 413.324938 453.924771 
L 414.350768 459.997497 
L 415.376597 459.870108 
L 416.402427 456.097067 
L 417.428256 455.256707 
L 418.454086 464.057597 
L 419.479915 457.106955 
L 420.505745 458.969472 
L 421.531575 459.85122 
L 422.557404 465.607548 
L 423.583234 467.885291 
L 424.609063 464.062174 
L 425.634893 460.755075 
L 426.660722 465.992229 
L 427.686552 472.253074 
L 428.712382 467.601501 
L 429.738211 465.566974 
L 430.764041 470.469533 
L 431.78987 455.481561 
L 432.8157 474.929636 
L 433.84153 476.313729 
L 434.867359 471.180176 
L 435.893189 471.730595 
L 436.919018 474.267448 
L 437.944848 468.409937 
L 438.970677 473.610077 
L 439.996507 473.013508 
L 442.048166 481.631973 
L 443.073996 480.883503 
L 444.099825 481.019579 
L 445.125655 479.172022 
L 446.151485 477.019389 
L 447.177314 482.108807 
L 448.203144 482.681149 
L 449.228973 488.497706 
L 450.254803 481.717467 
L 451.280632 481.760569 
L 452.306462 479.308967 
L 453.332292 488.490141 
L 454.358121 487.733924 
L 455.383951 490.661386 
L 456.40978 481.929322 
L 457.43561 488.88202 
L 458.461439 485.725858 
L 459.487269 486.435852 
L 460.513099 487.320499 
L 461.538928 490.202011 
L 462.564758 486.163111 
L 463.590587 492.497142 
L 464.616417 502.255395 
L 465.642247 487.458726 
L 466.668076 492.087461 
L 467.693906 502.258139 
L 468.719735 497.221526 
L 469.745565 493.891119 
L 470.771394 494.811617 
L 471.797224 500.90455 
L 472.823054 494.254479 
L 473.848883 501.170172 
L 474.874713 493.441517 
L 475.900542 490.599498 
L 476.926372 499.735323 
L 477.952201 496.288455 
L 478.978031 499.092228 
L 480.003861 515.072016 
L 481.02969 498.097807 
L 482.05552 495.500671 
L 483.081349 497.989096 
L 484.107179 499.483601 
L 485.133009 496.914456 
L 486.158838 497.548571 
L 487.184668 505.503031 
L 488.210497 502.415408 
L 489.236327 504.387568 
L 490.262156 505.697111 
L 491.287986 500.940791 
L 492.313816 505.305228 
L 493.339645 510.166339 
L 494.365475 502.249693 
L 495.391304 505.415831 
L 496.417134 513.168836 
L 497.442964 505.091584 
L 498.468793 506.356582 
L 499.494623 506.560069 
L 500.520452 508.165562 
L 501.546282 507.955208 
L 502.572111 510.185876 
L 503.597941 506.485553 
L 504.623771 505.702067 
L 505.6496 512.412855 
L 506.67543 524.743476 
L 507.701259 507.190177 
L 508.727089 510.430367 
L 509.752918 510.929338 
L 510.778748 511.030449 
L 511.804578 509.319396 
L 512.830407 512.035512 
L 513.856237 510.993252 
L 514.882066 509.082322 
L 515.907896 512.929663 
L 516.933726 571.956406 
L 517.959555 514.16363 
L 518.985385 511.486953 
L 520.011214 516.847175 
L 521.037044 511.739284 
L 522.062873 515.48737 
L 523.088703 514.325853 
L 524.114533 517.080852 
L 525.140362 519.332849 
L 526.166192 513.204937 
L 527.192021 524.18424 
L 528.217851 516.827701 
L 529.24368 518.218766 
L 530.26951 517.528953 
L 531.29534 514.326156 
L 532.321169 520.82993 
L 533.346999 517.835698 
L 534.372828 519.016659 
L 535.398658 516.899703 
L 536.424488 535.456755 
L 537.450317 520.170776 
L 538.476147 520.072737 
L 539.501976 522.974437 
L 540.527806 523.430714 
L 541.553635 528.6799 
L 542.579465 519.223556 
L 543.605295 520.609153 
L 544.631124 519.27513 
L 545.656954 525.771064 
L 547.708613 524.08523 
L 548.734443 575.280231 
L 549.760272 526.075108 
L 551.811931 526.335569 
L 552.837761 523.009771 
L 553.86359 531.799834 
L 554.88942 527.610399 
L 555.91525 528.738221 
L 556.941079 519.302962 
L 557.966909 527.22675 
L 558.992738 524.748533 
L 560.018568 524.473142 
L 561.044397 529.322181 
L 562.070227 528.282962 
L 563.096057 523.759999 
L 564.121886 527.037117 
L 565.147716 531.204146 
L 566.173545 528.330664 
L 567.199375 534.86718 
L 568.225205 530.72066 
L 569.251034 543.713129 
L 570.276864 529.091946 
L 571.302693 536.531381 
L 572.328523 531.573979 
L 573.354352 532.06274 
L 574.380182 527.775153 
L 576.431841 538.202815 
L 577.457671 531.673278 
L 578.4835 534.092028 
L 579.50933 533.125481 
L 580.535159 528.921285 
L 581.560989 533.287486 
L 582.586819 538.400544 
L 583.612648 538.469205 
L 584.638478 531.718994 
L 585.664307 536.615641 
L 586.690137 540.423729 
L 587.715967 556.787032 
L 588.741796 532.945825 
L 589.767626 534.761124 
L 590.793455 539.05762 
L 591.819285 531.851456 
L 592.845114 536.899646 
L 593.870944 538.288209 
L 594.896774 538.660165 
L 595.922603 535.455152 
L 596.948433 533.858968 
L 597.974262 535.203087 
L 599.000092 538.85393 
L 600.025922 535.874539 
L 601.051751 536.461745 
L 602.077581 558.890801 
L 603.10341 539.065461 
L 604.12924 534.322823 
L 605.155069 542.806278 
L 606.180899 540.33169 
L 607.206729 544.358422 
L 608.232558 540.480236 
L 609.258388 534.68277 
L 610.284217 537.392033 
L 611.310047 540.794259 
L 612.335876 541.857143 
L 613.361706 541.488053 
L 614.387536 537.565274 
L 615.413365 543.359752 
L 616.439195 539.869472 
L 617.465024 542.479013 
L 618.490854 545.423408 
L 619.516684 546.104265 
L 620.542513 535.018524 
L 621.568343 539.745632 
L 622.594172 543.309494 
L 623.620002 553.078113 
L 624.645831 547.537996 
L 625.671661 540.74305 
L 626.697491 543.612377 
L 627.72332 545.873616 
L 628.74915 545.235769 
L 629.774979 545.766284 
L 630.800809 547.588573 
L 631.826638 568.065764 
L 632.852468 546.223478 
L 633.878298 548.012454 
L 634.904127 544.088185 
L 635.929957 545.485676 
L 636.955786 543.311194 
L 637.981616 547.147488 
L 639.007446 545.791315 
L 640.033275 547.717313 
L 641.059105 546.702045 
L 642.084934 552.246712 
L 643.110764 552.611836 
L 644.136593 550.555119 
L 645.162423 551.051348 
L 646.188253 552.668785 
L 647.214082 545.54761 
L 648.239912 549.134627 
L 649.265741 550.788652 
L 650.291571 553.328527 
L 651.3174 548.901602 
L 652.34323 551.086132 
L 653.36906 550.549986 
L 654.394889 553.147598 
L 655.420719 552.678853 
L 656.446548 550.542771 
L 658.498208 552.862274 
L 659.524037 551.911228 
L 660.549867 552.589349 
L 661.575696 553.927418 
L 662.601526 554.063773 
L 663.627355 557.413686 
L 664.653185 553.211956 
L 665.679015 552.019223 
L 666.704844 554.242118 
L 667.730674 554.688809 
L 668.756503 558.977982 
L 669.782333 553.893272 
L 670.808163 554.204889 
L 671.833992 553.341241 
L 672.859822 557.696126 
L 673.885651 555.958476 
L 674.911481 555.820799 
L 675.93731 555.170563 
L 676.96314 556.296995 
L 677.98897 560.348919 
L 679.014799 555.256861 
L 680.040629 557.836113 
L 681.066458 556.924827 
L 682.092288 557.801631 
L 683.118117 557.543438 
L 684.143947 557.575806 
L 685.169777 556.273785 
L 686.195606 557.667591 
L 687.221436 560.86985 
L 688.247265 553.983859 
L 689.273095 558.788771 
L 690.298925 560.359853 
L 691.324754 557.995621 
L 692.350584 558.69199 
L 693.376413 558.311163 
L 694.402243 555.889892 
L 695.428072 559.443179 
L 696.453902 558.801066 
L 697.479732 560.551592 
L 698.505561 559.189032 
L 700.55722 560.519905 
L 701.58305 563.358019 
L 702.608879 559.709622 
L 703.634709 561.161967 
L 704.660539 560.681266 
L 705.686368 561.223399 
L 706.712198 564.00373 
L 707.738027 560.440847 
L 708.763857 563.032388 
L 709.789687 561.884218 
L 710.815516 562.170986 
L 711.841346 563.268201 
L 712.867175 554.775077 
L 713.893005 562.440085 
L 714.918834 562.443603 
L 715.944664 563.793171 
L 716.970494 564.205379 
L 717.996323 560.484136 
L 719.022153 561.044587 
L 720.047982 562.080026 
L 721.073812 564.449175 
L 722.099642 567.644744 
L 723.125471 568.812664 
L 724.151301 563.509284 
L 725.17713 564.057334 
L 726.20296 565.604282 
L 727.228789 570.152766 
L 728.254619 563.916755 
L 729.280449 562.130634 
L 730.306278 564.931381 
L 731.332108 565.209988 
L 732.357937 568.524057 
L 733.383767 563.726937 
L 734.409596 566.039434 
L 735.435426 563.939287 
L 736.461256 567.022821 
L 737.487085 567.420013 
L 738.512915 565.326404 
L 739.538744 566.818042 
L 740.564574 566.957461 
L 742.616233 568.892105 
L 743.642063 566.500248 
L 744.667892 565.330353 
L 745.693722 568.914846 
L 746.719551 566.041849 
L 747.745381 565.922899 
L 748.771211 571.039511 
L 749.79704 568.538915 
L 750.82287 570.135203 
L 751.848699 571.261153 
L 752.874529 571.602112 
L 753.900358 566.429339 
L 754.926188 566.9545 
L 755.952018 569.113156 
L 756.977847 568.393489 
L 758.003677 566.052174 
L 759.029506 569.813796 
L 760.055336 571.25539 
L 761.081166 569.71754 
L 762.106995 570.336465 
L 763.132825 570.394565 
L 764.158654 567.141168 
L 765.184484 570.251572 
L 766.210313 572.887006 
L 767.236143 567.36362 
L 768.261973 568.796248 
L 769.287802 568.551093 
L 770.313632 570.475798 
L 771.339461 570.95314 
L 772.365291 595.074187 
L 773.391121 568.26605 
L 774.41695 572.789105 
L 775.44278 571.904714 
L 776.468609 571.620081 
L 777.494439 572.803172 
L 778.520268 571.669647 
L 779.546098 567.900975 
L 780.571928 572.144013 
L 781.597757 572.151034 
L 782.623587 566.413075 
L 783.649416 574.322653 
L 784.675246 573.40138 
L 785.701075 570.931852 
L 787.752735 574.668076 
L 788.778564 572.293711 
L 789.804394 573.000634 
L 790.830223 572.841577 
L 791.856053 573.560371 
L 792.881883 574.077052 
L 793.907712 572.451874 
L 794.933542 571.13804 
L 795.959371 576.26013 
L 796.985201 574.73203 
L 798.01103 571.182197 
L 799.03686 573.866851 
L 800.06269 574.568103 
L 801.088519 571.816609 
L 802.114349 576.186076 
L 803.140178 575.969136 
L 804.166008 571.754741 
L 805.191837 575.347711 
L 806.217667 574.557556 
L 807.243497 575.77973 
L 808.269326 578.771948 
L 809.295156 575.22453 
L 810.320985 574.627876 
L 811.346815 576.075729 
L 812.372645 572.3736 
L 813.398474 574.266062 
L 814.424304 577.458986 
L 815.450133 576.201858 
L 816.475963 576.154682 
L 817.501792 575.928603 
L 818.527622 574.883775 
L 819.553452 572.489774 
L 820.579281 574.183409 
L 821.605111 576.105488 
L 822.63094 577.583133 
L 823.65677 577.810932 
L 824.6826 577.741249 
L 825.708429 573.710994 
L 826.734259 577.13059 
L 827.760088 577.884307 
L 828.785918 575.846874 
L 829.811747 578.103566 
L 830.837577 578.143981 
L 831.863407 575.45249 
L 832.889236 577.41444 
L 833.915066 576.645816 
L 834.940895 576.572457 
L 835.966725 577.738288 
L 836.992554 580.26039 
L 838.018384 577.130635 
L 840.070043 578.543635 
L 841.095873 577.978757 
L 843.147532 579.084022 
L 844.173362 577.426983 
L 845.199191 578.943485 
L 846.225021 579.452799 
L 847.25085 577.889569 
L 848.27668 578.441806 
L 849.302509 577.916507 
L 850.328339 570.061435 
L 851.354169 579.760751 
L 852.379998 580.488682 
L 853.405828 580.657514 
L 854.431657 579.692558 
L 855.457487 579.486666 
L 856.483316 579.617243 
L 857.509146 578.7423 
L 858.534976 581.536737 
L 859.560805 578.302745 
L 860.586635 580.058563 
L 861.612464 582.616895 
L 862.638294 582.14716 
L 863.664124 581.914822 
L 864.689953 581.524798 
L 865.715783 579.824154 
L 866.741612 581.397128 
L 867.767442 582.513173 
L 868.793271 581.967654 
L 869.819101 582.023471 
L 870.844931 578.824244 
L 871.87076 582.13646 
L 872.89659 580.711434 
L 873.922419 584.05 
L 874.948249 582.637961 
L 875.974078 583.518158 
L 876.999908 583.646995 
L 878.025738 581.270338 
L 879.051567 582.084151 
L 880.077397 582.153308 
L 881.103226 583.61126 
L 882.129056 581.368966 
L 883.154886 582.642114 
L 884.180715 584.18469 
L 885.206545 585.268197 
L 887.258204 582.999542 
L 888.284033 581.075505 
L 889.309863 583.30931 
L 891.361522 584.162311 
L 892.387352 583.840021 
L 893.413181 583.674903 
L 894.439011 585.319116 
L 896.49067 583.485406 
L 897.5165 583.92244 
L 898.542329 583.089195 
L 899.568159 584.379532 
L 900.593988 583.465485 
L 901.619818 584.173318 
L 902.645648 584.256439 
L 903.671477 584.768534 
L 904.697307 582.450747 
L 905.723136 584.535642 
L 906.748966 585.335255 
L 907.774795 584.748546 
L 908.800625 586.095023 
L 909.826455 584.792057 
L 910.852284 585.461645 
L 911.878114 584.486616 
L 912.903943 586.267211 
L 913.929773 589.530379 
L 914.955603 585.091059 
L 915.981432 585.91175 
L 917.007262 585.986465 
L 918.033091 584.610906 
L 919.058921 586.206944 
L 920.08475 585.486658 
L 921.11058 585.500432 
L 922.13641 585.647178 
L 923.162239 586.522647 
L 924.188069 584.30708 
L 925.213898 586.385445 
L 926.239728 586.882061 
L 927.265557 587.568181 
L 928.291387 586.887287 
L 929.317217 587.26053 
L 930.343046 586.443228 
L 931.368876 590.064814 
L 932.394705 586.661129 
L 933.420535 588.515842 
L 934.446365 587.390542 
L 935.472194 587.17142 
L 936.498024 587.961317 
L 937.523853 586.84795 
L 938.549683 585.528983 
L 939.575512 587.070432 
L 940.601342 588.233276 
L 941.627172 587.754112 
L 942.653001 589.637933 
L 943.678831 587.725164 
L 944.70466 589.532928 
L 945.73049 587.564269 
L 946.75632 586.775796 
L 947.782149 587.670737 
L 948.807979 586.872684 
L 949.833808 586.88659 
L 950.859638 588.816445 
L 951.885467 588.164331 
L 952.911297 588.137948 
L 953.937127 589.461311 
L 954.962956 589.466424 
L 955.988786 588.549612 
L 957.014615 586.407017 
L 958.040445 588.057444 
L 959.066274 586.175775 
L 960.092104 589.223174 
L 961.117934 588.551494 
L 962.143763 589.586756 
L 963.169593 586.888263 
L 964.195422 589.260198 
L 965.221252 589.430948 
L 966.247082 590.008626 
L 967.272911 588.786799 
L 968.298741 591.063133 
L 969.32457 590.933264 
L 970.3504 588.24189 
L 971.376229 589.328518 
L 972.402059 589.638715 
L 973.427889 589.523145 
L 974.453718 589.940928 
L 975.479548 588.779078 
L 976.505377 588.430386 
L 977.531207 590.187653 
L 978.557036 588.053692 
L 979.582866 590.998154 
L 980.608696 590.358582 
L 981.634525 591.690617 
L 982.660355 591.334317 
L 983.686184 589.556885 
L 984.712014 590.616256 
L 985.737844 590.403013 
L 986.763673 589.821375 
L 987.789503 590.461207 
L 988.815332 590.732394 
L 989.841162 590.383596 
L 990.866991 590.426539 
L 991.892821 590.86747 
L 992.918651 590.728922 
L 993.94448 592.888346 
L 995.996139 592.145282 
L 997.021969 592.824455 
L 998.047799 595.490281 
L 999.073628 590.609911 
L 1000.099458 588.956031 
L 1001.125287 591.305496 
L 1002.151117 593.12756 
L 1003.176946 591.702317 
L 1004.202776 591.929398 
L 1005.228606 591.521779 
L 1006.254435 593.117062 
L 1007.280265 590.176967 
L 1008.306094 592.495701 
L 1009.331924 592.720674 
L 1010.357753 595.431226 
L 1011.383583 591.940961 
L 1012.409413 593.67945 
L 1013.435242 594.471865 
L 1014.461072 594.023629 
L 1016.512731 592.095329 
L 1017.538561 593.641613 
L 1018.56439 594.082551 
L 1019.59022 592.396028 
L 1020.616049 593.699259 
L 1021.641879 592.545472 
L 1023.693538 593.575258 
L 1024.719368 592.861068 
L 1025.745197 592.678131 
L 1027.796856 593.103946 
L 1028.822686 593.838353 
L 1029.848515 595.070966 
L 1030.874345 594.884337 
L 1031.900175 595.277192 
L 1032.926004 594.860353 
L 1033.951834 595.618485 
L 1034.977663 595.206213 
L 1036.003493 593.954292 
L 1037.029323 594.126104 
L 1038.055152 594.80731 
L 1039.080982 593.754511 
L 1040.106811 594.438199 
L 1041.132641 593.60276 
L 1042.15847 593.776508 
L 1043.1843 595.012035 
L 1044.21013 594.290215 
L 1045.235959 594.953542 
L 1046.261789 595.165284 
L 1047.287618 594.360567 
L 1048.313448 595.972075 
L 1049.339278 595.201935 
L 1050.365107 595.544076 
L 1051.390937 594.647654 
L 1052.416766 596.107005 
L 1053.442596 596.48065 
L 1054.468425 596.257424 
L 1055.494255 596.400407 
L 1056.520085 595.860069 
L 1057.545914 595.706478 
L 1058.571744 596.515746 
L 1059.597573 596.153672 
L 1060.623403 595.363516 
L 1061.649232 596.496825 
L 1062.675062 597.220559 
L 1063.700892 594.605596 
L 1064.726721 596.379882 
L 1065.752551 594.85701 
L 1067.80421 597.450932 
L 1068.83004 594.533237 
L 1069.855869 594.31465 
L 1070.881699 595.973986 
L 1071.907528 596.528476 
L 1072.933358 596.414982 
L 1073.959187 595.782071 
L 1074.985017 596.669701 
L 1076.010847 598.197622 
L 1078.062506 596.084765 
L 1079.088335 597.406709 
L 1080.114165 599.750476 
L 1081.139994 596.410329 
L 1082.165824 597.126773 
L 1083.191654 605.376026 
L 1084.217483 596.471195 
L 1085.243313 597.954617 
L 1086.269142 595.987448 
L 1087.294972 597.119977 
L 1088.320802 596.630733 
L 1089.346631 597.833172 
L 1090.372461 597.680541 
L 1091.39829 598.916604 
L 1092.42412 598.497292 
L 1093.449949 599.1783 
L 1094.475779 601.613549 
L 1095.501609 598.464393 
L 1096.527438 597.579492 
L 1097.553268 598.0523 
L 1098.579097 599.188818 
L 1099.604927 598.942302 
L 1100.630757 598.434576 
L 1102.682416 599.65401 
L 1103.708245 598.96942 
L 1104.734075 599.122771 
L 1105.759904 599.856156 
L 1106.785734 598.390647 
L 1107.811564 599.955916 
L 1108.837393 599.489046 
L 1109.863223 601.012494 
L 1110.889052 599.304367 
L 1111.914882 600.081244 
L 1112.940711 599.908637 
L 1114.992371 599.757555 
L 1116.0182 599.490162 
L 1117.04403 600.786424 
L 1118.069859 599.988309 
L 1119.095689 600.950027 
L 1120.121519 600.246432 
L 1121.147348 600.207822 
L 1122.173178 598.469889 
L 1123.199007 600.692594 
L 1125.250666 598.206846 
L 1126.276496 600.394055 
L 1127.302326 599.092215 
L 1128.328155 598.56196 
L 1129.353985 599.717598 
L 1130.379814 599.185846 
L 1131.405644 600.107827 
L 1132.431473 600.500239 
L 1133.457303 598.564311 
L 1134.483133 601.540331 
L 1135.508962 600.509679 
L 1136.534792 601.143891 
L 1137.560621 601.079135 
L 1138.586451 600.03525 
L 1141.66394 601.623396 
L 1142.689769 600.615855 
L 1143.715599 600.722877 
L 1144.741428 601.803544 
L 1145.767258 598.883257 
L 1146.793088 601.562715 
L 1147.818917 602.128001 
L 1149.870576 601.206783 
L 1150.896406 600.45002 
L 1151.922235 601.719052 
L 1152.948065 601.690169 
L 1153.973895 613.458911 
L 1154.999724 601.558505 
L 1156.025554 603.982731 
L 1157.051383 602.257291 
L 1158.077213 602.211059 
L 1159.103043 602.798695 
L 1160.128872 602.842144 
L 1161.154702 603.462597 
L 1162.180531 602.347238 
L 1163.206361 604.063599 
L 1164.23219 603.411979 
L 1165.25802 603.814185 
L 1166.28385 601.193618 
L 1167.309679 601.5128 
L 1168.335509 602.189904 
L 1169.361338 601.898333 
L 1170.387168 601.914644 
L 1171.412998 602.485276 
L 1172.438827 602.512665 
L 1173.464657 601.155371 
L 1174.490486 602.290066 
L 1175.516316 603.098761 
L 1176.542145 603.586443 
L 1177.567975 602.37839 
L 1178.593805 602.524902 
L 1179.619634 603.039406 
L 1180.645464 600.93071 
L 1181.671293 602.926441 
L 1182.697123 603.100598 
L 1183.722952 602.432997 
L 1184.748782 602.878811 
L 1185.774612 602.435639 
L 1186.800441 603.138435 
L 1187.826271 603.110078 
L 1188.8521 603.636279 
L 1189.87793 602.978222 
L 1190.90376 603.322947 
L 1191.929589 602.89837 
L 1192.955419 603.510535 
L 1193.981248 603.030844 
L 1195.007078 602.711959 
L 1196.032907 603.116766 
L 1197.058737 603.192612 
L 1198.084567 604.24749 
L 1199.110396 603.328127 
L 1200.136226 603.875716 
L 1203.213714 603.61346 
L 1204.239544 605.040597 
L 1205.265374 605.002729 
L 1206.291203 605.236798 
L 1207.317033 604.83135 
L 1208.342862 604.746996 
L 1209.368692 604.232564 
L 1210.394522 604.963789 
L 1211.420351 605.205913 
L 1212.446181 604.880462 
L 1213.47201 605.318813 
L 1214.49784 605.520259 
L 1216.549499 603.057821 
L 1217.575329 604.332828 
L 1218.601158 603.284614 
L 1219.626988 602.815315 
L 1221.678647 604.53553 
L 1222.704477 604.511403 
L 1223.730306 606.066166 
L 1224.756136 605.806746 
L 1225.781965 604.236331 
L 1226.807795 603.644191 
L 1227.833624 604.709224 
L 1228.859454 605.554017 
L 1229.885284 605.520838 
L 1230.911113 607.324937 
L 1231.936943 605.512153 
L 1232.962772 605.087954 
L 1233.988602 604.513144 
L 1235.014431 605.417299 
L 1236.040261 605.456706 
L 1237.066091 604.888606 
L 1238.09192 605.95024 
L 1239.11775 605.811435 
L 1240.143579 605.369593 
L 1242.195239 606.11581 
L 1243.221068 605.337053 
L 1244.246898 605.966859 
L 1245.272727 604.904409 
L 1245.272727 604.904409 
" style="fill:none;stroke:#ff7f0e;stroke-linecap:square;stroke-width:1.5;"/>
   </g>
   <g id="patch_3">
    <path d="M 180 640.8 
L 180 86.4 
" style="fill:none;stroke:#000000;stroke-linecap:square;stroke-linejoin:miter;stroke-width:0.8;"/>
   </g>
   <g id="patch_4">
    <path d="M 1296 640.8 
L 1296 86.4 
" style="fill:none;stroke:#000000;stroke-linecap:square;stroke-linejoin:miter;stroke-width:0.8;"/>
   </g>
   <g id="patch_5">
    <path d="M 180 640.8 
L 1296 640.8 
" style="fill:none;stroke:#000000;stroke-linecap:square;stroke-linejoin:miter;stroke-width:0.8;"/>
   </g>
   <g id="patch_6">
    <path d="M 180 86.4 
L 1296 86.4 
" style="fill:none;stroke:#000000;stroke-linecap:square;stroke-linejoin:miter;stroke-width:0.8;"/>
   </g>
   <g id="text_18">
    <!-- Volume-price trend (VPT) Speedup -->
    <defs>
     <path d="M 28.609375 0 
L 0.78125 72.90625 
L 11.078125 72.90625 
L 34.1875 11.53125 
L 57.328125 72.90625 
L 67.578125 72.90625 
L 39.796875 0 
z
" id="DejaVuSans-86"/>
     <path d="M 30.609375 48.390625 
Q 23.390625 48.390625 19.1875 42.75 
Q 14.984375 37.109375 14.984375 27.296875 
Q 14.984375 17.484375 19.15625 11.84375 
Q 23.34375 6.203125 30.609375 6.203125 
Q 37.796875 6.203125 41.984375 11.859375 
Q 46.1875 17.53125 46.1875 27.296875 
Q 46.1875 37.015625 41.984375 42.703125 
Q 37.796875 48.390625 30.609375 48.390625 
z
M 30.609375 56 
Q 42.328125 56 49.015625 48.375 
Q 55.71875 40.765625 55.71875 27.296875 
Q 55.71875 13.875 49.015625 6.21875 
Q 42.328125 -1.421875 30.609375 -1.421875 
Q 18.84375 -1.421875 12.171875 6.21875 
Q 5.515625 13.875 5.515625 27.296875 
Q 5.515625 40.765625 12.171875 48.375 
Q 18.84375 56 30.609375 56 
z
" id="DejaVuSans-111"/>
     <path d="M 9.421875 75.984375 
L 18.40625 75.984375 
L 18.40625 0 
L 9.421875 0 
z
" id="DejaVuSans-108"/>
     <path d="M 52 44.1875 
Q 55.375 50.25 60.0625 53.125 
Q 64.75 56 71.09375 56 
Q 79.640625 56 84.28125 50.015625 
Q 88.921875 44.046875 88.921875 33.015625 
L 88.921875 0 
L 79.890625 0 
L 79.890625 32.71875 
Q 79.890625 40.578125 77.09375 44.375 
Q 74.3125 48.1875 68.609375 48.1875 
Q 61.625 48.1875 57.5625 43.546875 
Q 53.515625 38.921875 53.515625 30.90625 
L 53.515625 0 
L 44.484375 0 
L 44.484375 32.71875 
Q 44.484375 40.625 41.703125 44.40625 
Q 38.921875 48.1875 33.109375 48.1875 
Q 26.21875 48.1875 22.15625 43.53125 
Q 18.109375 38.875 18.109375 30.90625 
L 18.109375 0 
L 9.078125 0 
L 9.078125 54.6875 
L 18.109375 54.6875 
L 18.109375 46.1875 
Q 21.1875 51.21875 25.484375 53.609375 
Q 29.78125 56 35.6875 56 
Q 41.65625 56 45.828125 52.96875 
Q 50 49.953125 52 44.1875 
z
" id="DejaVuSans-109"/>
     <path d="M 4.890625 31.390625 
L 31.203125 31.390625 
L 31.203125 23.390625 
L 4.890625 23.390625 
z
" id="DejaVuSans-45"/>
     <path d="M 41.109375 46.296875 
Q 39.59375 47.171875 37.8125 47.578125 
Q 36.03125 48 33.890625 48 
Q 26.265625 48 22.1875 43.046875 
Q 18.109375 38.09375 18.109375 28.8125 
L 18.109375 0 
L 9.078125 0 
L 9.078125 54.6875 
L 18.109375 54.6875 
L 18.109375 46.1875 
Q 20.953125 51.171875 25.484375 53.578125 
Q 30.03125 56 36.53125 56 
Q 37.453125 56 38.578125 55.875 
Q 39.703125 55.765625 41.0625 55.515625 
z
" id="DejaVuSans-114"/>
     <path d="M 9.421875 54.6875 
L 18.40625 54.6875 
L 18.40625 0 
L 9.421875 0 
z
M 9.421875 75.984375 
L 18.40625 75.984375 
L 18.40625 64.59375 
L 9.421875 64.59375 
z
" id="DejaVuSans-105"/>
     <path d="M 48.78125 52.59375 
L 48.78125 44.1875 
Q 44.96875 46.296875 41.140625 47.34375 
Q 37.3125 48.390625 33.40625 48.390625 
Q 24.65625 48.390625 19.8125 42.84375 
Q 14.984375 37.3125 14.984375 27.296875 
Q 14.984375 17.28125 19.8125 11.734375 
Q 24.65625 6.203125 33.40625 6.203125 
Q 37.3125 6.203125 41.140625 7.25 
Q 44.96875 8.296875 48.78125 10.40625 
L 48.78125 2.09375 
Q 45.015625 0.34375 40.984375 -0.53125 
Q 36.96875 -1.421875 32.421875 -1.421875 
Q 20.0625 -1.421875 12.78125 6.34375 
Q 5.515625 14.109375 5.515625 27.296875 
Q 5.515625 40.671875 12.859375 48.328125 
Q 20.21875 56 33.015625 56 
Q 37.15625 56 41.109375 55.140625 
Q 45.0625 54.296875 48.78125 52.59375 
z
" id="DejaVuSans-99"/>
     <path id="DejaVuSans-32"/>
     <path d="M 18.3125 70.21875 
L 18.3125 54.6875 
L 36.8125 54.6875 
L 36.8125 47.703125 
L 18.3125 47.703125 
L 18.3125 18.015625 
Q 18.3125 11.328125 20.140625 9.421875 
Q 21.96875 7.515625 27.59375 7.515625 
L 36.8125 7.515625 
L 36.8125 0 
L 27.59375 0 
Q 17.1875 0 13.234375 3.875 
Q 9.28125 7.765625 9.28125 18.015625 
L 9.28125 47.703125 
L 2.6875 47.703125 
L 2.6875 54.6875 
L 9.28125 54.6875 
L 9.28125 70.21875 
z
" id="DejaVuSans-116"/>
     <path d="M 31 75.875 
Q 24.46875 64.65625 21.28125 53.65625 
Q 18.109375 42.671875 18.109375 31.390625 
Q 18.109375 20.125 21.3125 9.0625 
Q 24.515625 -2 31 -13.1875 
L 23.1875 -13.1875 
Q 15.875 -1.703125 12.234375 9.375 
Q 8.59375 20.453125 8.59375 31.390625 
Q 8.59375 42.28125 12.203125 53.3125 
Q 15.828125 64.359375 23.1875 75.875 
z
" id="DejaVuSans-40"/>
     <path d="M 19.671875 64.796875 
L 19.671875 37.40625 
L 32.078125 37.40625 
Q 38.96875 37.40625 42.71875 40.96875 
Q 46.484375 44.53125 46.484375 51.125 
Q 46.484375 57.671875 42.71875 61.234375 
Q 38.96875 64.796875 32.078125 64.796875 
z
M 9.8125 72.90625 
L 32.078125 72.90625 
Q 44.34375 72.90625 50.609375 67.359375 
Q 56.890625 61.8125 56.890625 51.125 
Q 56.890625 40.328125 50.609375 34.8125 
Q 44.34375 29.296875 32.078125 29.296875 
L 19.671875 29.296875 
L 19.671875 0 
L 9.8125 0 
z
" id="DejaVuSans-80"/>
     <path d="M -0.296875 72.90625 
L 61.375 72.90625 
L 61.375 64.59375 
L 35.5 64.59375 
L 35.5 0 
L 25.59375 0 
L 25.59375 64.59375 
L -0.296875 64.59375 
z
" id="DejaVuSans-84"/>
     <path d="M 8.015625 75.875 
L 15.828125 75.875 
Q 23.140625 64.359375 26.78125 53.3125 
Q 30.421875 42.28125 30.421875 31.390625 
Q 30.421875 20.453125 26.78125 9.375 
Q 23.140625 -1.703125 15.828125 -13.1875 
L 8.015625 -13.1875 
Q 14.5 -2 17.703125 9.0625 
Q 20.90625 20.125 20.90625 31.390625 
Q 20.90625 42.671875 17.703125 53.65625 
Q 14.5 64.65625 8.015625 75.875 
z
" id="DejaVuSans-41"/>
     <path d="M 53.515625 70.515625 
L 53.515625 60.890625 
Q 47.90625 63.578125 42.921875 64.890625 
Q 37.9375 66.21875 33.296875 66.21875 
Q 25.25 66.21875 20.875 63.09375 
Q 16.5 59.96875 16.5 54.203125 
Q 16.5 49.359375 19.40625 46.890625 
Q 22.3125 44.4375 30.421875 42.921875 
L 36.375 41.703125 
Q 47.40625 39.59375 52.65625 34.296875 
Q 57.90625 29 57.90625 20.125 
Q 57.90625 9.515625 50.796875 4.046875 
Q 43.703125 -1.421875 29.984375 -1.421875 
Q 24.8125 -1.421875 18.96875 -0.25 
Q 13.140625 0.921875 6.890625 3.21875 
L 6.890625 13.375 
Q 12.890625 10.015625 18.65625 8.296875 
Q 24.421875 6.59375 29.984375 6.59375 
Q 38.421875 6.59375 43.015625 9.90625 
Q 47.609375 13.234375 47.609375 19.390625 
Q 47.609375 24.75 44.3125 27.78125 
Q 41.015625 30.8125 33.5 32.328125 
L 27.484375 33.5 
Q 16.453125 35.6875 11.515625 40.375 
Q 6.59375 45.0625 6.59375 53.421875 
Q 6.59375 63.09375 13.40625 68.65625 
Q 20.21875 74.21875 32.171875 74.21875 
Q 37.3125 74.21875 42.625 73.28125 
Q 47.953125 72.359375 53.515625 70.515625 
z
" id="DejaVuSans-83"/>
    </defs>
    <g transform="translate(634.386562 80.4)scale(0.12 -0.12)">
     <use xlink:href="#DejaVuSans-86"/>
     <use x="60.658203" xlink:href="#DejaVuSans-111"/>
     <use x="121.839844" xlink:href="#DejaVuSans-108"/>
     <use x="149.623047" xlink:href="#DejaVuSans-117"/>
     <use x="213.001953" xlink:href="#DejaVuSans-109"/>
     <use x="310.414062" xlink:href="#DejaVuSans-101"/>
     <use x="371.9375" xlink:href="#DejaVuSans-45"/>
     <use x="408.021484" xlink:href="#DejaVuSans-112"/>
     <use x="471.498047" xlink:href="#DejaVuSans-114"/>
     <use x="512.611328" xlink:href="#DejaVuSans-105"/>
     <use x="540.394531" xlink:href="#DejaVuSans-99"/>
     <use x="595.375" xlink:href="#DejaVuSans-101"/>
     <use x="656.898438" xlink:href="#DejaVuSans-32"/>
     <use x="688.685547" xlink:href="#DejaVuSans-116"/>
     <use x="727.894531" xlink:href="#DejaVuSans-114"/>
     <use x="766.757812" xlink:href="#DejaVuSans-101"/>
     <use x="828.28125" xlink:href="#DejaVuSans-110"/>
     <use x="891.660156" xlink:href="#DejaVuSans-100"/>
     <use x="955.136719" xlink:href="#DejaVuSans-32"/>
     <use x="986.923828" xlink:href="#DejaVuSans-40"/>
     <use x="1025.9375" xlink:href="#DejaVuSans-86"/>
     <use x="1094.345703" xlink:href="#DejaVuSans-80"/>
     <use x="1154.648438" xlink:href="#DejaVuSans-84"/>
     <use x="1215.732422" xlink:href="#DejaVuSans-41"/>
     <use x="1254.746094" xlink:href="#DejaVuSans-32"/>
     <use x="1286.533203" xlink:href="#DejaVuSans-83"/>
     <use x="1350.009766" xlink:href="#DejaVuSans-112"/>
     <use x="1413.486328" xlink:href="#DejaVuSans-101"/>
     <use x="1475.009766" xlink:href="#DejaVuSans-101"/>
     <use x="1536.533203" xlink:href="#DejaVuSans-100"/>
     <use x="1600.009766" xlink:href="#DejaVuSans-117"/>
     <use x="1663.388672" xlink:href="#DejaVuSans-112"/>
    </g>
   </g>
   <g id="legend_1">
    <g id="patch_7">
     <path d="M 1185.373437 123.75625 
L 1289 123.75625 
Q 1291 123.75625 1291 121.75625 
L 1291 93.4 
Q 1291 91.4 1289 91.4 
L 1185.373437 91.4 
Q 1183.373437 91.4 1183.373437 93.4 
L 1183.373437 121.75625 
Q 1183.373437 123.75625 1185.373437 123.75625 
z
" style="fill:#ffffff;opacity:0.8;stroke:#cccccc;stroke-linejoin:miter;"/>
    </g>
    <g id="line2d_18">
     <path d="M 1187.373437 99.498437 
L 1207.373437 99.498437 
" style="fill:none;stroke:#1f77b4;stroke-linecap:square;stroke-width:1.5;"/>
    </g>
    <g id="line2d_19"/>
    <g id="text_19">
     <!-- numpy.float32 -->
     <defs>
      <path d="M 32.171875 -5.078125 
Q 28.375 -14.84375 24.75 -17.8125 
Q 21.140625 -20.796875 15.09375 -20.796875 
L 7.90625 -20.796875 
L 7.90625 -13.28125 
L 13.1875 -13.28125 
Q 16.890625 -13.28125 18.9375 -11.515625 
Q 21 -9.765625 23.484375 -3.21875 
L 25.09375 0.875 
L 2.984375 54.6875 
L 12.5 54.6875 
L 29.59375 11.921875 
L 46.6875 54.6875 
L 56.203125 54.6875 
z
" id="DejaVuSans-121"/>
      <path d="M 37.109375 75.984375 
L 37.109375 68.5 
L 28.515625 68.5 
Q 23.6875 68.5 21.796875 66.546875 
Q 19.921875 64.59375 19.921875 59.515625 
L 19.921875 54.6875 
L 34.71875 54.6875 
L 34.71875 47.703125 
L 19.921875 47.703125 
L 19.921875 0 
L 10.890625 0 
L 10.890625 47.703125 
L 2.296875 47.703125 
L 2.296875 54.6875 
L 10.890625 54.6875 
L 10.890625 58.5 
Q 10.890625 67.625 15.140625 71.796875 
Q 19.390625 75.984375 28.609375 75.984375 
z
" id="DejaVuSans-102"/>
      <path d="M 34.28125 27.484375 
Q 23.390625 27.484375 19.1875 25 
Q 14.984375 22.515625 14.984375 16.5 
Q 14.984375 11.71875 18.140625 8.90625 
Q 21.296875 6.109375 26.703125 6.109375 
Q 34.1875 6.109375 38.703125 11.40625 
Q 43.21875 16.703125 43.21875 25.484375 
L 43.21875 27.484375 
z
M 52.203125 31.203125 
L 52.203125 0 
L 43.21875 0 
L 43.21875 8.296875 
Q 40.140625 3.328125 35.546875 0.953125 
Q 30.953125 -1.421875 24.3125 -1.421875 
Q 15.921875 -1.421875 10.953125 3.296875 
Q 6 8.015625 6 15.921875 
Q 6 25.140625 12.171875 29.828125 
Q 18.359375 34.515625 30.609375 34.515625 
L 43.21875 34.515625 
L 43.21875 35.40625 
Q 43.21875 41.609375 39.140625 45 
Q 35.0625 48.390625 27.6875 48.390625 
Q 23 48.390625 18.546875 47.265625 
Q 14.109375 46.140625 10.015625 43.890625 
L 10.015625 52.203125 
Q 14.9375 54.109375 19.578125 55.046875 
Q 24.21875 56 28.609375 56 
Q 40.484375 56 46.34375 49.84375 
Q 52.203125 43.703125 52.203125 31.203125 
z
" id="DejaVuSans-97"/>
     </defs>
     <g transform="translate(1215.373437 102.998437)scale(0.1 -0.1)">
      <use xlink:href="#DejaVuSans-110"/>
      <use x="63.378906" xlink:href="#DejaVuSans-117"/>
      <use x="126.757812" xlink:href="#DejaVuSans-109"/>
      <use x="224.169922" xlink:href="#DejaVuSans-112"/>
      <use x="287.646484" xlink:href="#DejaVuSans-121"/>
      <use x="332.576172" xlink:href="#DejaVuSans-46"/>
      <use x="364.363281" xlink:href="#DejaVuSans-102"/>
      <use x="399.568359" xlink:href="#DejaVuSans-108"/>
      <use x="427.351562" xlink:href="#DejaVuSans-111"/>
      <use x="488.533203" xlink:href="#DejaVuSans-97"/>
      <use x="549.8125" xlink:href="#DejaVuSans-116"/>
      <use x="589.021484" xlink:href="#DejaVuSans-51"/>
      <use x="652.644531" xlink:href="#DejaVuSans-50"/>
     </g>
    </g>
    <g id="line2d_20">
     <path d="M 1187.373437 114.176562 
L 1207.373437 114.176562 
" style="fill:none;stroke:#ff7f0e;stroke-linecap:square;stroke-width:1.5;"/>
    </g>
    <g id="line2d_21"/>
    <g id="text_20">
     <!-- numpy.float64 -->
     <g transform="translate(1215.373437 117.676562)scale(0.1 -0.1)">
      <use xlink:href="#DejaVuSans-110"/>
      <use x="63.378906" xlink:href="#DejaVuSans-117"/>
      <use x="126.757812" xlink:href="#DejaVuSans-109"/>
      <use x="224.169922" xlink:href="#DejaVuSans-112"/>
      <use x="287.646484" xlink:href="#DejaVuSans-121"/>
      <use x="332.576172" xlink:href="#DejaVuSans-46"/>
      <use x="364.363281" xlink:href="#DejaVuSans-102"/>
      <use x="399.568359" xlink:href="#DejaVuSans-108"/>
      <use x="427.351562" xlink:href="#DejaVuSans-111"/>
      <use x="488.533203" xlink:href="#DejaVuSans-97"/>
      <use x="549.8125" xlink:href="#DejaVuSans-116"/>
      <use x="589.021484" xlink:href="#DejaVuSans-54"/>
      <use x="652.644531" xlink:href="#DejaVuSans-52"/>
     </g>
    </g>
   </g>
  </g>
 </g>
 <defs>
  <clipPath id="pe1eaba6e6a">
   <rect height="554.4" width="1116" x="180" y="86.4"/>
  </clipPath>
 </defs>
</svg>
