<?xml version="1.0" encoding="utf-8" standalone="no"?>
<!DOCTYPE svg PUBLIC "-//W3C//DTD SVG 1.1//EN"
  "http://www.w3.org/Graphics/SVG/1.1/DTD/svg11.dtd">
<!-- Created with matplotlib (https://matplotlib.org/) -->
<svg height="720pt" version="1.1" viewBox="0 0 1440 720" width="1440pt" xmlns="http://www.w3.org/2000/svg" xmlns:xlink="http://www.w3.org/1999/xlink">
 <defs>
  <style type="text/css">
*{stroke-linecap:butt;stroke-linejoin:round;}
  </style>
 </defs>
 <g id="figure_1">
  <g id="patch_1">
   <path d="M 0 720 
L 1440 720 
L 1440 0 
L 0 0 
z
" style="fill:#ffffff;"/>
  </g>
  <g id="axes_1">
   <g id="patch_2">
    <path d="M 180 640.8 
L 1296 640.8 
L 1296 86.4 
L 180 86.4 
z
" style="fill:#ffffff;"/>
   </g>
   <g id="matplotlib.axis_1">
    <g id="xtick_1">
     <g id="line2d_1">
      <defs>
       <path d="M 0 0 
L 0 3.5 
" id="me344a612f1" style="stroke:#000000;stroke-width:0.8;"/>
      </defs>
      <g>
       <use style="stroke:#000000;stroke-width:0.8;" x="333.310231" xlink:href="#me344a612f1" y="640.8"/>
      </g>
     </g>
     <g id="text_1">
      <!-- 100.0 -->
      <defs>
       <path d="M 12.40625 8.296875 
L 28.515625 8.296875 
L 28.515625 63.921875 
L 10.984375 60.40625 
L 10.984375 69.390625 
L 28.421875 72.90625 
L 38.28125 72.90625 
L 38.28125 8.296875 
L 54.390625 8.296875 
L 54.390625 0 
L 12.40625 0 
z
" id="DejaVuSans-49"/>
       <path d="M 31.78125 66.40625 
Q 24.171875 66.40625 20.328125 58.90625 
Q 16.5 51.421875 16.5 36.375 
Q 16.5 21.390625 20.328125 13.890625 
Q 24.171875 6.390625 31.78125 6.390625 
Q 39.453125 6.390625 43.28125 13.890625 
Q 47.125 21.390625 47.125 36.375 
Q 47.125 51.421875 43.28125 58.90625 
Q 39.453125 66.40625 31.78125 66.40625 
z
M 31.78125 74.21875 
Q 44.046875 74.21875 50.515625 64.515625 
Q 56.984375 54.828125 56.984375 36.375 
Q 56.984375 17.96875 50.515625 8.265625 
Q 44.046875 -1.421875 31.78125 -1.421875 
Q 19.53125 -1.421875 13.0625 8.265625 
Q 6.59375 17.96875 6.59375 36.375 
Q 6.59375 54.828125 13.0625 64.515625 
Q 19.53125 74.21875 31.78125 74.21875 
z
" id="DejaVuSans-48"/>
       <path d="M 10.6875 12.40625 
L 21 12.40625 
L 21 0 
L 10.6875 0 
z
" id="DejaVuSans-46"/>
      </defs>
      <g transform="translate(318.996168 655.398438)scale(0.1 -0.1)">
       <use xlink:href="#DejaVuSans-49"/>
       <use x="63.623047" xlink:href="#DejaVuSans-48"/>
       <use x="127.246094" xlink:href="#DejaVuSans-48"/>
       <use x="190.869141" xlink:href="#DejaVuSans-46"/>
       <use x="222.65625" xlink:href="#DejaVuSans-48"/>
      </g>
     </g>
    </g>
    <g id="xtick_2">
     <g id="line2d_2">
      <g>
       <use style="stroke:#000000;stroke-width:0.8;" x="435.893189" xlink:href="#me344a612f1" y="640.8"/>
      </g>
     </g>
     <g id="text_2">
      <!-- 200.0 -->
      <defs>
       <path d="M 19.1875 8.296875 
L 53.609375 8.296875 
L 53.609375 0 
L 7.328125 0 
L 7.328125 8.296875 
Q 12.9375 14.109375 22.625 23.890625 
Q 32.328125 33.6875 34.8125 36.53125 
Q 39.546875 41.84375 41.421875 45.53125 
Q 43.3125 49.21875 43.3125 52.78125 
Q 43.3125 58.59375 39.234375 62.25 
Q 35.15625 65.921875 28.609375 65.921875 
Q 23.96875 65.921875 18.8125 64.3125 
Q 13.671875 62.703125 7.8125 59.421875 
L 7.8125 69.390625 
Q 13.765625 71.78125 18.9375 73 
Q 24.125 74.21875 28.421875 74.21875 
Q 39.75 74.21875 46.484375 68.546875 
Q 53.21875 62.890625 53.21875 53.421875 
Q 53.21875 48.921875 51.53125 44.890625 
Q 49.859375 40.875 45.40625 35.40625 
Q 44.1875 33.984375 37.640625 27.21875 
Q 31.109375 20.453125 19.1875 8.296875 
z
" id="DejaVuSans-50"/>
      </defs>
      <g transform="translate(421.579126 655.398438)scale(0.1 -0.1)">
       <use xlink:href="#DejaVuSans-50"/>
       <use x="63.623047" xlink:href="#DejaVuSans-48"/>
       <use x="127.246094" xlink:href="#DejaVuSans-48"/>
       <use x="190.869141" xlink:href="#DejaVuSans-46"/>
       <use x="222.65625" xlink:href="#DejaVuSans-48"/>
      </g>
     </g>
    </g>
    <g id="xtick_3">
     <g id="line2d_3">
      <g>
       <use style="stroke:#000000;stroke-width:0.8;" x="538.476147" xlink:href="#me344a612f1" y="640.8"/>
      </g>
     </g>
     <g id="text_3">
      <!-- 300.0 -->
      <defs>
       <path d="M 40.578125 39.3125 
Q 47.65625 37.796875 51.625 33 
Q 55.609375 28.21875 55.609375 21.1875 
Q 55.609375 10.40625 48.1875 4.484375 
Q 40.765625 -1.421875 27.09375 -1.421875 
Q 22.515625 -1.421875 17.65625 -0.515625 
Q 12.796875 0.390625 7.625 2.203125 
L 7.625 11.71875 
Q 11.71875 9.328125 16.59375 8.109375 
Q 21.484375 6.890625 26.8125 6.890625 
Q 36.078125 6.890625 40.9375 10.546875 
Q 45.796875 14.203125 45.796875 21.1875 
Q 45.796875 27.640625 41.28125 31.265625 
Q 36.765625 34.90625 28.71875 34.90625 
L 20.21875 34.90625 
L 20.21875 43.015625 
L 29.109375 43.015625 
Q 36.375 43.015625 40.234375 45.921875 
Q 44.09375 48.828125 44.09375 54.296875 
Q 44.09375 59.90625 40.109375 62.90625 
Q 36.140625 65.921875 28.71875 65.921875 
Q 24.65625 65.921875 20.015625 65.03125 
Q 15.375 64.15625 9.8125 62.3125 
L 9.8125 71.09375 
Q 15.4375 72.65625 20.34375 73.4375 
Q 25.25 74.21875 29.59375 74.21875 
Q 40.828125 74.21875 47.359375 69.109375 
Q 53.90625 64.015625 53.90625 55.328125 
Q 53.90625 49.265625 50.4375 45.09375 
Q 46.96875 40.921875 40.578125 39.3125 
z
" id="DejaVuSans-51"/>
      </defs>
      <g transform="translate(524.162084 655.398438)scale(0.1 -0.1)">
       <use xlink:href="#DejaVuSans-51"/>
       <use x="63.623047" xlink:href="#DejaVuSans-48"/>
       <use x="127.246094" xlink:href="#DejaVuSans-48"/>
       <use x="190.869141" xlink:href="#DejaVuSans-46"/>
       <use x="222.65625" xlink:href="#DejaVuSans-48"/>
      </g>
     </g>
    </g>
    <g id="xtick_4">
     <g id="line2d_4">
      <g>
       <use style="stroke:#000000;stroke-width:0.8;" x="641.059105" xlink:href="#me344a612f1" y="640.8"/>
      </g>
     </g>
     <g id="text_4">
      <!-- 400.0 -->
      <defs>
       <path d="M 37.796875 64.3125 
L 12.890625 25.390625 
L 37.796875 25.390625 
z
M 35.203125 72.90625 
L 47.609375 72.90625 
L 47.609375 25.390625 
L 58.015625 25.390625 
L 58.015625 17.1875 
L 47.609375 17.1875 
L 47.609375 0 
L 37.796875 0 
L 37.796875 17.1875 
L 4.890625 17.1875 
L 4.890625 26.703125 
z
" id="DejaVuSans-52"/>
      </defs>
      <g transform="translate(626.745042 655.398438)scale(0.1 -0.1)">
       <use xlink:href="#DejaVuSans-52"/>
       <use x="63.623047" xlink:href="#DejaVuSans-48"/>
       <use x="127.246094" xlink:href="#DejaVuSans-48"/>
       <use x="190.869141" xlink:href="#DejaVuSans-46"/>
       <use x="222.65625" xlink:href="#DejaVuSans-48"/>
      </g>
     </g>
    </g>
    <g id="xtick_5">
     <g id="line2d_5">
      <g>
       <use style="stroke:#000000;stroke-width:0.8;" x="743.642063" xlink:href="#me344a612f1" y="640.8"/>
      </g>
     </g>
     <g id="text_5">
      <!-- 500.0 -->
      <defs>
       <path d="M 10.796875 72.90625 
L 49.515625 72.90625 
L 49.515625 64.59375 
L 19.828125 64.59375 
L 19.828125 46.734375 
Q 21.96875 47.46875 24.109375 47.828125 
Q 26.265625 48.1875 28.421875 48.1875 
Q 40.625 48.1875 47.75 41.5 
Q 54.890625 34.8125 54.890625 23.390625 
Q 54.890625 11.625 47.5625 5.09375 
Q 40.234375 -1.421875 26.90625 -1.421875 
Q 22.3125 -1.421875 17.546875 -0.640625 
Q 12.796875 0.140625 7.71875 1.703125 
L 7.71875 11.625 
Q 12.109375 9.234375 16.796875 8.0625 
Q 21.484375 6.890625 26.703125 6.890625 
Q 35.15625 6.890625 40.078125 11.328125 
Q 45.015625 15.765625 45.015625 23.390625 
Q 45.015625 31 40.078125 35.4375 
Q 35.15625 39.890625 26.703125 39.890625 
Q 22.75 39.890625 18.8125 39.015625 
Q 14.890625 38.140625 10.796875 36.28125 
z
" id="DejaVuSans-53"/>
      </defs>
      <g transform="translate(729.328 655.398438)scale(0.1 -0.1)">
       <use xlink:href="#DejaVuSans-53"/>
       <use x="63.623047" xlink:href="#DejaVuSans-48"/>
       <use x="127.246094" xlink:href="#DejaVuSans-48"/>
       <use x="190.869141" xlink:href="#DejaVuSans-46"/>
       <use x="222.65625" xlink:href="#DejaVuSans-48"/>
      </g>
     </g>
    </g>
    <g id="xtick_6">
     <g id="line2d_6">
      <g>
       <use style="stroke:#000000;stroke-width:0.8;" x="846.225021" xlink:href="#me344a612f1" y="640.8"/>
      </g>
     </g>
     <g id="text_6">
      <!-- 600.0 -->
      <defs>
       <path d="M 33.015625 40.375 
Q 26.375 40.375 22.484375 35.828125 
Q 18.609375 31.296875 18.609375 23.390625 
Q 18.609375 15.53125 22.484375 10.953125 
Q 26.375 6.390625 33.015625 6.390625 
Q 39.65625 6.390625 43.53125 10.953125 
Q 47.40625 15.53125 47.40625 23.390625 
Q 47.40625 31.296875 43.53125 35.828125 
Q 39.65625 40.375 33.015625 40.375 
z
M 52.59375 71.296875 
L 52.59375 62.3125 
Q 48.875 64.0625 45.09375 64.984375 
Q 41.3125 65.921875 37.59375 65.921875 
Q 27.828125 65.921875 22.671875 59.328125 
Q 17.53125 52.734375 16.796875 39.40625 
Q 19.671875 43.65625 24.015625 45.921875 
Q 28.375 48.1875 33.59375 48.1875 
Q 44.578125 48.1875 50.953125 41.515625 
Q 57.328125 34.859375 57.328125 23.390625 
Q 57.328125 12.15625 50.6875 5.359375 
Q 44.046875 -1.421875 33.015625 -1.421875 
Q 20.359375 -1.421875 13.671875 8.265625 
Q 6.984375 17.96875 6.984375 36.375 
Q 6.984375 53.65625 15.1875 63.9375 
Q 23.390625 74.21875 37.203125 74.21875 
Q 40.921875 74.21875 44.703125 73.484375 
Q 48.484375 72.75 52.59375 71.296875 
z
" id="DejaVuSans-54"/>
      </defs>
      <g transform="translate(831.910958 655.398438)scale(0.1 -0.1)">
       <use xlink:href="#DejaVuSans-54"/>
       <use x="63.623047" xlink:href="#DejaVuSans-48"/>
       <use x="127.246094" xlink:href="#DejaVuSans-48"/>
       <use x="190.869141" xlink:href="#DejaVuSans-46"/>
       <use x="222.65625" xlink:href="#DejaVuSans-48"/>
      </g>
     </g>
    </g>
    <g id="xtick_7">
     <g id="line2d_7">
      <g>
       <use style="stroke:#000000;stroke-width:0.8;" x="948.807979" xlink:href="#me344a612f1" y="640.8"/>
      </g>
     </g>
     <g id="text_7">
      <!-- 700.0 -->
      <defs>
       <path d="M 8.203125 72.90625 
L 55.078125 72.90625 
L 55.078125 68.703125 
L 28.609375 0 
L 18.3125 0 
L 43.21875 64.59375 
L 8.203125 64.59375 
z
" id="DejaVuSans-55"/>
      </defs>
      <g transform="translate(934.493916 655.398438)scale(0.1 -0.1)">
       <use xlink:href="#DejaVuSans-55"/>
       <use x="63.623047" xlink:href="#DejaVuSans-48"/>
       <use x="127.246094" xlink:href="#DejaVuSans-48"/>
       <use x="190.869141" xlink:href="#DejaVuSans-46"/>
       <use x="222.65625" xlink:href="#DejaVuSans-48"/>
      </g>
     </g>
    </g>
    <g id="xtick_8">
     <g id="line2d_8">
      <g>
       <use style="stroke:#000000;stroke-width:0.8;" x="1051.390937" xlink:href="#me344a612f1" y="640.8"/>
      </g>
     </g>
     <g id="text_8">
      <!-- 800.0 -->
      <defs>
       <path d="M 31.78125 34.625 
Q 24.75 34.625 20.71875 30.859375 
Q 16.703125 27.09375 16.703125 20.515625 
Q 16.703125 13.921875 20.71875 10.15625 
Q 24.75 6.390625 31.78125 6.390625 
Q 38.8125 6.390625 42.859375 10.171875 
Q 46.921875 13.96875 46.921875 20.515625 
Q 46.921875 27.09375 42.890625 30.859375 
Q 38.875 34.625 31.78125 34.625 
z
M 21.921875 38.8125 
Q 15.578125 40.375 12.03125 44.71875 
Q 8.5 49.078125 8.5 55.328125 
Q 8.5 64.0625 14.71875 69.140625 
Q 20.953125 74.21875 31.78125 74.21875 
Q 42.671875 74.21875 48.875 69.140625 
Q 55.078125 64.0625 55.078125 55.328125 
Q 55.078125 49.078125 51.53125 44.71875 
Q 48 40.375 41.703125 38.8125 
Q 48.828125 37.15625 52.796875 32.3125 
Q 56.78125 27.484375 56.78125 20.515625 
Q 56.78125 9.90625 50.3125 4.234375 
Q 43.84375 -1.421875 31.78125 -1.421875 
Q 19.734375 -1.421875 13.25 4.234375 
Q 6.78125 9.90625 6.78125 20.515625 
Q 6.78125 27.484375 10.78125 32.3125 
Q 14.796875 37.15625 21.921875 38.8125 
z
M 18.3125 54.390625 
Q 18.3125 48.734375 21.84375 45.5625 
Q 25.390625 42.390625 31.78125 42.390625 
Q 38.140625 42.390625 41.71875 45.5625 
Q 45.3125 48.734375 45.3125 54.390625 
Q 45.3125 60.0625 41.71875 63.234375 
Q 38.140625 66.40625 31.78125 66.40625 
Q 25.390625 66.40625 21.84375 63.234375 
Q 18.3125 60.0625 18.3125 54.390625 
z
" id="DejaVuSans-56"/>
      </defs>
      <g transform="translate(1037.076874 655.398438)scale(0.1 -0.1)">
       <use xlink:href="#DejaVuSans-56"/>
       <use x="63.623047" xlink:href="#DejaVuSans-48"/>
       <use x="127.246094" xlink:href="#DejaVuSans-48"/>
       <use x="190.869141" xlink:href="#DejaVuSans-46"/>
       <use x="222.65625" xlink:href="#DejaVuSans-48"/>
      </g>
     </g>
    </g>
    <g id="xtick_9">
     <g id="line2d_9">
      <g>
       <use style="stroke:#000000;stroke-width:0.8;" x="1153.973895" xlink:href="#me344a612f1" y="640.8"/>
      </g>
     </g>
     <g id="text_9">
      <!-- 900.0 -->
      <defs>
       <path d="M 10.984375 1.515625 
L 10.984375 10.5 
Q 14.703125 8.734375 18.5 7.8125 
Q 22.3125 6.890625 25.984375 6.890625 
Q 35.75 6.890625 40.890625 13.453125 
Q 46.046875 20.015625 46.78125 33.40625 
Q 43.953125 29.203125 39.59375 26.953125 
Q 35.25 24.703125 29.984375 24.703125 
Q 19.046875 24.703125 12.671875 31.3125 
Q 6.296875 37.9375 6.296875 49.421875 
Q 6.296875 60.640625 12.9375 67.421875 
Q 19.578125 74.21875 30.609375 74.21875 
Q 43.265625 74.21875 49.921875 64.515625 
Q 56.59375 54.828125 56.59375 36.375 
Q 56.59375 19.140625 48.40625 8.859375 
Q 40.234375 -1.421875 26.421875 -1.421875 
Q 22.703125 -1.421875 18.890625 -0.6875 
Q 15.09375 0.046875 10.984375 1.515625 
z
M 30.609375 32.421875 
Q 37.25 32.421875 41.125 36.953125 
Q 45.015625 41.5 45.015625 49.421875 
Q 45.015625 57.28125 41.125 61.84375 
Q 37.25 66.40625 30.609375 66.40625 
Q 23.96875 66.40625 20.09375 61.84375 
Q 16.21875 57.28125 16.21875 49.421875 
Q 16.21875 41.5 20.09375 36.953125 
Q 23.96875 32.421875 30.609375 32.421875 
z
" id="DejaVuSans-57"/>
      </defs>
      <g transform="translate(1139.659832 655.398438)scale(0.1 -0.1)">
       <use xlink:href="#DejaVuSans-57"/>
       <use x="63.623047" xlink:href="#DejaVuSans-48"/>
       <use x="127.246094" xlink:href="#DejaVuSans-48"/>
       <use x="190.869141" xlink:href="#DejaVuSans-46"/>
       <use x="222.65625" xlink:href="#DejaVuSans-48"/>
      </g>
     </g>
    </g>
    <g id="xtick_10">
     <g id="line2d_10">
      <g>
       <use style="stroke:#000000;stroke-width:0.8;" x="1256.556853" xlink:href="#me344a612f1" y="640.8"/>
      </g>
     </g>
     <g id="text_10">
      <!-- 1000.0 -->
      <g transform="translate(1239.06154 655.398438)scale(0.1 -0.1)">
       <use xlink:href="#DejaVuSans-49"/>
       <use x="63.623047" xlink:href="#DejaVuSans-48"/>
       <use x="127.246094" xlink:href="#DejaVuSans-48"/>
       <use x="190.869141" xlink:href="#DejaVuSans-48"/>
       <use x="254.492188" xlink:href="#DejaVuSans-46"/>
       <use x="286.279297" xlink:href="#DejaVuSans-48"/>
      </g>
     </g>
    </g>
    <g id="text_11">
     <!-- n -->
     <defs>
      <path d="M 54.890625 33.015625 
L 54.890625 0 
L 45.90625 0 
L 45.90625 32.71875 
Q 45.90625 40.484375 42.875 44.328125 
Q 39.84375 48.1875 33.796875 48.1875 
Q 26.515625 48.1875 22.3125 43.546875 
Q 18.109375 38.921875 18.109375 30.90625 
L 18.109375 0 
L 9.078125 0 
L 9.078125 54.6875 
L 18.109375 54.6875 
L 18.109375 46.1875 
Q 21.34375 51.125 25.703125 53.5625 
Q 30.078125 56 35.796875 56 
Q 45.21875 56 50.046875 50.171875 
Q 54.890625 44.34375 54.890625 33.015625 
z
" id="DejaVuSans-110"/>
     </defs>
     <g transform="translate(734.83125 669.076563)scale(0.1 -0.1)">
      <use xlink:href="#DejaVuSans-110"/>
     </g>
    </g>
   </g>
   <g id="matplotlib.axis_2">
    <g id="ytick_1">
     <g id="line2d_11">
      <defs>
       <path d="M 0 0 
L -3.5 0 
" id="mc8737abcf7" style="stroke:#000000;stroke-width:0.8;"/>
      </defs>
      <g>
       <use style="stroke:#000000;stroke-width:0.8;" x="180" xlink:href="#mc8737abcf7" y="567.335352"/>
      </g>
     </g>
     <g id="text_12">
      <!-- 50 -->
      <g transform="translate(160.275 571.134571)scale(0.1 -0.1)">
       <use xlink:href="#DejaVuSans-53"/>
       <use x="63.623047" xlink:href="#DejaVuSans-48"/>
      </g>
     </g>
    </g>
    <g id="ytick_2">
     <g id="line2d_12">
      <g>
       <use style="stroke:#000000;stroke-width:0.8;" x="180" xlink:href="#mc8737abcf7" y="485.199414"/>
      </g>
     </g>
     <g id="text_13">
      <!-- 100 -->
      <g transform="translate(153.9125 488.998632)scale(0.1 -0.1)">
       <use xlink:href="#DejaVuSans-49"/>
       <use x="63.623047" xlink:href="#DejaVuSans-48"/>
       <use x="127.246094" xlink:href="#DejaVuSans-48"/>
      </g>
     </g>
    </g>
    <g id="ytick_3">
     <g id="line2d_13">
      <g>
       <use style="stroke:#000000;stroke-width:0.8;" x="180" xlink:href="#mc8737abcf7" y="403.063475"/>
      </g>
     </g>
     <g id="text_14">
      <!-- 150 -->
      <g transform="translate(153.9125 406.862694)scale(0.1 -0.1)">
       <use xlink:href="#DejaVuSans-49"/>
       <use x="63.623047" xlink:href="#DejaVuSans-53"/>
       <use x="127.246094" xlink:href="#DejaVuSans-48"/>
      </g>
     </g>
    </g>
    <g id="ytick_4">
     <g id="line2d_14">
      <g>
       <use style="stroke:#000000;stroke-width:0.8;" x="180" xlink:href="#mc8737abcf7" y="320.927536"/>
      </g>
     </g>
     <g id="text_15">
      <!-- 200 -->
      <g transform="translate(153.9125 324.726755)scale(0.1 -0.1)">
       <use xlink:href="#DejaVuSans-50"/>
       <use x="63.623047" xlink:href="#DejaVuSans-48"/>
       <use x="127.246094" xlink:href="#DejaVuSans-48"/>
      </g>
     </g>
    </g>
    <g id="ytick_5">
     <g id="line2d_15">
      <g>
       <use style="stroke:#000000;stroke-width:0.8;" x="180" xlink:href="#mc8737abcf7" y="238.791598"/>
      </g>
     </g>
     <g id="text_16">
      <!-- 250 -->
      <g transform="translate(153.9125 242.590817)scale(0.1 -0.1)">
       <use xlink:href="#DejaVuSans-50"/>
       <use x="63.623047" xlink:href="#DejaVuSans-53"/>
       <use x="127.246094" xlink:href="#DejaVuSans-48"/>
      </g>
     </g>
    </g>
    <g id="ytick_6">
     <g id="line2d_16">
      <g>
       <use style="stroke:#000000;stroke-width:0.8;" x="180" xlink:href="#mc8737abcf7" y="156.655659"/>
      </g>
     </g>
     <g id="text_17">
      <!-- 300 -->
      <g transform="translate(153.9125 160.454878)scale(0.1 -0.1)">
       <use xlink:href="#DejaVuSans-51"/>
       <use x="63.623047" xlink:href="#DejaVuSans-48"/>
       <use x="127.246094" xlink:href="#DejaVuSans-48"/>
      </g>
     </g>
    </g>
    <g id="text_18">
     <!-- speedup -->
     <defs>
      <path d="M 44.28125 53.078125 
L 44.28125 44.578125 
Q 40.484375 46.53125 36.375 47.5 
Q 32.28125 48.484375 27.875 48.484375 
Q 21.1875 48.484375 17.84375 46.4375 
Q 14.5 44.390625 14.5 40.28125 
Q 14.5 37.15625 16.890625 35.375 
Q 19.28125 33.59375 26.515625 31.984375 
L 29.59375 31.296875 
Q 39.15625 29.25 43.1875 25.515625 
Q 47.21875 21.78125 47.21875 15.09375 
Q 47.21875 7.46875 41.1875 3.015625 
Q 35.15625 -1.421875 24.609375 -1.421875 
Q 20.21875 -1.421875 15.453125 -0.5625 
Q 10.6875 0.296875 5.421875 2 
L 5.421875 11.28125 
Q 10.40625 8.6875 15.234375 7.390625 
Q 20.0625 6.109375 24.8125 6.109375 
Q 31.15625 6.109375 34.5625 8.28125 
Q 37.984375 10.453125 37.984375 14.40625 
Q 37.984375 18.0625 35.515625 20.015625 
Q 33.0625 21.96875 24.703125 23.78125 
L 21.578125 24.515625 
Q 13.234375 26.265625 9.515625 29.90625 
Q 5.8125 33.546875 5.8125 39.890625 
Q 5.8125 47.609375 11.28125 51.796875 
Q 16.75 56 26.8125 56 
Q 31.78125 56 36.171875 55.265625 
Q 40.578125 54.546875 44.28125 53.078125 
z
" id="DejaVuSans-115"/>
      <path d="M 18.109375 8.203125 
L 18.109375 -20.796875 
L 9.078125 -20.796875 
L 9.078125 54.6875 
L 18.109375 54.6875 
L 18.109375 46.390625 
Q 20.953125 51.265625 25.265625 53.625 
Q 29.59375 56 35.59375 56 
Q 45.5625 56 51.78125 48.09375 
Q 58.015625 40.1875 58.015625 27.296875 
Q 58.015625 14.40625 51.78125 6.484375 
Q 45.5625 -1.421875 35.59375 -1.421875 
Q 29.59375 -1.421875 25.265625 0.953125 
Q 20.953125 3.328125 18.109375 8.203125 
z
M 48.6875 27.296875 
Q 48.6875 37.203125 44.609375 42.84375 
Q 40.53125 48.484375 33.40625 48.484375 
Q 26.265625 48.484375 22.1875 42.84375 
Q 18.109375 37.203125 18.109375 27.296875 
Q 18.109375 17.390625 22.1875 11.75 
Q 26.265625 6.109375 33.40625 6.109375 
Q 40.53125 6.109375 44.609375 11.75 
Q 48.6875 17.390625 48.6875 27.296875 
z
" id="DejaVuSans-112"/>
      <path d="M 56.203125 29.59375 
L 56.203125 25.203125 
L 14.890625 25.203125 
Q 15.484375 15.921875 20.484375 11.0625 
Q 25.484375 6.203125 34.421875 6.203125 
Q 39.59375 6.203125 44.453125 7.46875 
Q 49.3125 8.734375 54.109375 11.28125 
L 54.109375 2.78125 
Q 49.265625 0.734375 44.1875 -0.34375 
Q 39.109375 -1.421875 33.890625 -1.421875 
Q 20.796875 -1.421875 13.15625 6.1875 
Q 5.515625 13.8125 5.515625 26.8125 
Q 5.515625 40.234375 12.765625 48.109375 
Q 20.015625 56 32.328125 56 
Q 43.359375 56 49.78125 48.890625 
Q 56.203125 41.796875 56.203125 29.59375 
z
M 47.21875 32.234375 
Q 47.125 39.59375 43.09375 43.984375 
Q 39.0625 48.390625 32.421875 48.390625 
Q 24.90625 48.390625 20.390625 44.140625 
Q 15.875 39.890625 15.1875 32.171875 
z
" id="DejaVuSans-101"/>
      <path d="M 45.40625 46.390625 
L 45.40625 75.984375 
L 54.390625 75.984375 
L 54.390625 0 
L 45.40625 0 
L 45.40625 8.203125 
Q 42.578125 3.328125 38.25 0.953125 
Q 33.9375 -1.421875 27.875 -1.421875 
Q 17.96875 -1.421875 11.734375 6.484375 
Q 5.515625 14.40625 5.515625 27.296875 
Q 5.515625 40.1875 11.734375 48.09375 
Q 17.96875 56 27.875 56 
Q 33.9375 56 38.25 53.625 
Q 42.578125 51.265625 45.40625 46.390625 
z
M 14.796875 27.296875 
Q 14.796875 17.390625 18.875 11.75 
Q 22.953125 6.109375 30.078125 6.109375 
Q 37.203125 6.109375 41.296875 11.75 
Q 45.40625 17.390625 45.40625 27.296875 
Q 45.40625 37.203125 41.296875 42.84375 
Q 37.203125 48.484375 30.078125 48.484375 
Q 22.953125 48.484375 18.875 42.84375 
Q 14.796875 37.203125 14.796875 27.296875 
z
" id="DejaVuSans-100"/>
      <path d="M 8.5 21.578125 
L 8.5 54.6875 
L 17.484375 54.6875 
L 17.484375 21.921875 
Q 17.484375 14.15625 20.5 10.265625 
Q 23.53125 6.390625 29.59375 6.390625 
Q 36.859375 6.390625 41.078125 11.03125 
Q 45.3125 15.671875 45.3125 23.6875 
L 45.3125 54.6875 
L 54.296875 54.6875 
L 54.296875 0 
L 45.3125 0 
L 45.3125 8.40625 
Q 42.046875 3.421875 37.71875 1 
Q 33.40625 -1.421875 27.6875 -1.421875 
Q 18.265625 -1.421875 13.375 4.4375 
Q 8.5 10.296875 8.5 21.578125 
z
M 31.109375 56 
z
" id="DejaVuSans-117"/>
     </defs>
     <g transform="translate(147.832812 385.049219)rotate(-90)scale(0.1 -0.1)">
      <use xlink:href="#DejaVuSans-115"/>
      <use x="52.099609" xlink:href="#DejaVuSans-112"/>
      <use x="115.576172" xlink:href="#DejaVuSans-101"/>
      <use x="177.099609" xlink:href="#DejaVuSans-101"/>
      <use x="238.623047" xlink:href="#DejaVuSans-100"/>
      <use x="302.099609" xlink:href="#DejaVuSans-117"/>
      <use x="365.478516" xlink:href="#DejaVuSans-112"/>
     </g>
    </g>
   </g>
   <g id="line2d_17">
    <path clip-path="url(#pf25422776b)" d="M 230.727273 263.584798 
L 231.753102 335.440294 
L 232.778932 113.164662 
L 233.804761 339.378805 
L 234.830591 121.489802 
L 235.856421 350.415117 
L 236.88225 144.225487 
L 237.90808 124.739628 
L 238.933909 386.486919 
L 239.959739 134.933491 
L 240.985569 161.028391 
L 242.011398 161.306098 
L 243.037228 183.176168 
L 244.063057 183.673269 
L 245.088887 192.337278 
L 246.114716 170.852641 
L 247.140546 212.421783 
L 248.166376 221.688004 
L 249.192205 221.877835 
L 250.218035 196.805708 
L 251.243864 215.113374 
L 252.269694 229.285106 
L 253.295523 249.094929 
L 254.321353 221.657793 
L 255.347183 239.951791 
L 256.373012 262.123948 
L 257.398842 268.417456 
L 258.424671 231.800497 
L 259.450501 277.323073 
L 260.476331 275.597081 
L 261.50216 318.993134 
L 262.52799 272.742503 
L 263.553819 266.358413 
L 264.579649 271.07348 
L 265.605478 293.892283 
L 266.631308 254.790475 
L 267.657138 281.969593 
L 268.682967 301.704999 
L 269.708797 272.700328 
L 270.734626 296.59426 
L 271.760456 303.416044 
L 272.786286 325.315854 
L 273.812115 298.308291 
L 274.837945 316.257169 
L 275.863774 277.063854 
L 276.889604 282.324449 
L 277.915433 307.878344 
L 278.941263 281.775237 
L 279.967093 331.932934 
L 280.992922 354.715536 
L 282.018752 324.34275 
L 283.044581 318.570447 
L 284.070411 330.403699 
L 285.09624 324.983457 
L 286.12207 368.007386 
L 287.1479 327.281629 
L 288.173729 307.409826 
L 289.199559 305.903313 
L 290.225388 307.32844 
L 291.251218 379.496918 
L 292.277048 338.854394 
L 293.302877 336.821734 
L 294.328707 344.400471 
L 295.354536 355.396039 
L 296.380366 320.503449 
L 297.406195 328.748805 
L 298.432025 329.662368 
L 299.457855 345.91402 
L 300.483684 316.033959 
L 301.509514 345.014733 
L 302.535343 359.856048 
L 303.561173 381.130945 
L 304.587002 346.122758 
L 305.612832 375.532908 
L 306.638662 355.508419 
L 307.664491 348.659866 
L 308.690321 353.460211 
L 309.71615 351.730484 
L 310.74198 344.097453 
L 311.76781 371.849489 
L 312.793639 353.19429 
L 313.819469 351.491354 
L 314.845298 354.362086 
L 315.871128 463.035231 
L 316.896957 377.652777 
L 317.922787 376.661443 
L 318.948617 386.095558 
L 319.974446 377.429808 
L 321.000276 376.310242 
L 322.026105 363.407845 
L 323.051935 385.260693 
L 324.077765 394.293452 
L 325.103594 387.914482 
L 326.129424 386.309533 
L 327.155253 416.061477 
L 328.181083 399.408003 
L 329.206912 396.373296 
L 330.232742 383.029188 
L 331.258572 427.396199 
L 332.284401 382.083821 
L 333.310231 387.174694 
L 334.33606 390.423096 
L 335.36189 387.969448 
L 336.387719 386.265739 
L 337.413549 402.287107 
L 338.439379 400.944934 
L 339.465208 394.098093 
L 340.491038 404.91578 
L 341.516867 408.231728 
L 342.542697 407.222139 
L 343.568527 392.864565 
L 344.594356 407.951803 
L 345.620186 421.384333 
L 346.646015 412.601682 
L 347.671845 407.619935 
L 348.697674 417.473226 
L 349.723504 423.263223 
L 350.749334 435.229063 
L 351.775163 437.138498 
L 352.800993 423.754222 
L 353.826822 435.78429 
L 354.852652 418.247276 
L 355.878481 415.588402 
L 356.904311 467.591824 
L 357.930141 469.017119 
L 358.95597 417.05856 
L 359.9818 466.59844 
L 361.007629 429.584271 
L 362.033459 432.220125 
L 363.059289 416.277612 
L 364.085118 426.816835 
L 365.110948 428.844044 
L 366.136777 443.361456 
L 367.162607 454.754438 
L 368.188436 488.880817 
L 369.214266 426.689058 
L 370.240096 418.044997 
L 371.265925 444.896368 
L 372.291755 462.372398 
L 373.317584 437.336916 
L 374.343414 489.543262 
L 375.369243 450.853536 
L 376.395073 440.082865 
L 377.420903 463.58546 
L 378.446732 443.767275 
L 379.472562 438.562493 
L 380.498391 440.446954 
L 381.524221 446.845294 
L 382.550051 440.641258 
L 383.57588 450.734838 
L 384.60171 442.87479 
L 385.627539 460.63491 
L 386.653369 437.696447 
L 387.679198 446.185828 
L 388.705028 448.106715 
L 389.730858 453.063559 
L 390.756687 480.707993 
L 391.782517 482.466239 
L 392.808346 451.609698 
L 393.834176 447.986181 
L 394.860006 447.080899 
L 395.885835 440.818489 
L 396.911665 452.953253 
L 397.937494 451.845848 
L 398.963324 453.823377 
L 399.989153 447.132609 
L 401.014983 448.968783 
L 402.040813 451.705831 
L 403.066642 480.648157 
L 404.092472 463.861749 
L 405.118301 457.939945 
L 406.144131 450.621595 
L 407.16996 455.898753 
L 408.19579 449.129709 
L 409.22162 451.334493 
L 410.247449 471.129873 
L 411.273279 468.598356 
L 412.299108 460.667747 
L 414.350768 469.838396 
L 415.376597 469.134644 
L 416.402427 467.844151 
L 417.428256 464.490705 
L 418.454086 458.295407 
L 419.479915 466.163567 
L 420.505745 465.399191 
L 421.531575 471.036052 
L 422.557404 471.065083 
L 423.583234 453.21472 
L 424.609063 470.309022 
L 425.634893 508.367439 
L 426.660722 460.605131 
L 427.686552 471.829805 
L 429.738211 475.08379 
L 430.764041 473.995459 
L 431.78987 477.426078 
L 432.8157 471.219149 
L 433.84153 480.957889 
L 434.867359 468.47899 
L 435.893189 477.138093 
L 436.919018 487.535179 
L 437.944848 475.071669 
L 438.970677 466.938605 
L 439.996507 476.423647 
L 441.022337 480.195405 
L 442.048166 469.653651 
L 443.073996 469.769709 
L 444.099825 479.502142 
L 445.125655 528.40664 
L 446.151485 477.173604 
L 447.177314 478.864926 
L 448.203144 469.319356 
L 449.228973 478.649922 
L 450.254803 482.965459 
L 451.280632 499.641031 
L 452.306462 473.590919 
L 453.332292 472.947429 
L 454.358121 482.394147 
L 456.40978 482.742099 
L 457.43561 508.0438 
L 458.461439 477.369817 
L 459.487269 481.876277 
L 460.513099 482.756482 
L 461.538928 492.040076 
L 462.564758 485.731768 
L 463.590587 487.551911 
L 464.616417 484.888692 
L 465.642247 487.509775 
L 466.668076 483.081904 
L 467.693906 502.359853 
L 468.719735 475.384272 
L 469.745565 479.840533 
L 470.771394 492.073592 
L 471.797224 473.988113 
L 472.823054 504.556932 
L 473.848883 489.798535 
L 474.874713 493.285417 
L 475.900542 500.486788 
L 476.926372 488.681449 
L 477.952201 485.363511 
L 478.978031 497.94241 
L 480.003861 484.735067 
L 481.02969 490.55788 
L 482.05552 493.091901 
L 483.081349 499.067318 
L 484.107179 493.42423 
L 485.133009 495.148513 
L 486.158838 497.294276 
L 487.184668 497.68746 
L 488.210497 512.558602 
L 489.236327 507.087046 
L 490.262156 498.638095 
L 491.287986 503.232202 
L 492.313816 491.585624 
L 493.339645 488.714499 
L 494.365475 488.183257 
L 495.391304 501.834682 
L 496.417134 508.666713 
L 497.442964 537.978449 
L 498.468793 500.26457 
L 499.494623 504.7616 
L 500.520452 502.870491 
L 501.546282 500.175996 
L 502.572111 500.861735 
L 503.597941 504.662497 
L 504.623771 498.409237 
L 505.6496 498.300274 
L 506.67543 507.236952 
L 507.701259 499.83259 
L 508.727089 499.374684 
L 509.752918 502.767252 
L 510.778748 503.764718 
L 511.804578 498.675185 
L 512.830407 505.593378 
L 513.856237 500.445149 
L 514.882066 496.291523 
L 515.907896 520.87072 
L 516.933726 509.011263 
L 517.959555 500.438267 
L 518.985385 506.706651 
L 520.011214 509.316383 
L 521.037044 511.395907 
L 522.062873 503.792761 
L 523.088703 511.308657 
L 524.114533 520.890362 
L 525.140362 503.549294 
L 526.166192 510.051782 
L 527.192021 511.049458 
L 528.217851 524.626334 
L 529.24368 512.00673 
L 530.26951 512.176198 
L 531.29534 503.266684 
L 532.321169 511.132377 
L 533.346999 505.179507 
L 534.372828 510.528008 
L 535.398658 513.45225 
L 536.424488 507.515339 
L 537.450317 507.655737 
L 538.476147 523.201129 
L 539.501976 524.363474 
L 540.527806 510.890106 
L 541.553635 511.56314 
L 542.579465 508.58603 
L 543.605295 522.782377 
L 544.631124 517.742836 
L 545.656954 510.979019 
L 546.682783 524.457569 
L 547.708613 520.662421 
L 548.734443 518.357155 
L 549.760272 538.984258 
L 550.786102 515.423769 
L 551.811931 525.78537 
L 552.837761 515.589633 
L 553.86359 513.482248 
L 554.88942 517.237348 
L 555.91525 520.110706 
L 556.941079 508.414043 
L 557.966909 512.570525 
L 558.992738 514.018949 
L 560.018568 514.663562 
L 561.044397 518.749412 
L 562.070227 517.87185 
L 563.096057 522.088618 
L 564.121886 517.844638 
L 565.147716 511.323368 
L 566.173545 523.561234 
L 567.199375 523.883983 
L 568.225205 519.815494 
L 569.251034 515.187644 
L 570.276864 513.078582 
L 571.302693 526.930062 
L 572.328523 523.616587 
L 573.354352 522.479028 
L 574.380182 522.55914 
L 575.406012 520.739448 
L 576.431841 540.408184 
L 577.457671 524.167023 
L 578.4835 526.846673 
L 579.50933 525.155008 
L 580.535159 522.589728 
L 581.560989 524.273746 
L 582.586819 521.818002 
L 583.612648 523.069717 
L 584.638478 519.545976 
L 585.664307 517.502745 
L 586.690137 526.976511 
L 587.715967 518.821553 
L 588.741796 524.456766 
L 589.767626 526.15037 
L 590.793455 529.266021 
L 591.819285 523.446518 
L 592.845114 524.282236 
L 593.870944 529.379262 
L 594.896774 548.08873 
L 595.922603 528.697319 
L 596.948433 526.964224 
L 597.974262 523.435434 
L 599.000092 526.252385 
L 600.025922 542.69593 
L 601.051751 525.541631 
L 602.077581 530.783752 
L 603.10341 526.170494 
L 604.12924 529.197567 
L 605.155069 543.191693 
L 606.180899 525.053001 
L 607.206729 527.778754 
L 608.232558 524.609186 
L 609.258388 528.519265 
L 610.284217 529.063485 
L 611.310047 531.507678 
L 612.335876 531.04757 
L 613.361706 524.746355 
L 614.387536 528.700999 
L 615.413365 529.975401 
L 616.439195 530.60073 
L 617.465024 529.244398 
L 618.490854 528.691269 
L 619.516684 533.931934 
L 620.542513 536.021968 
L 621.568343 537.314094 
L 622.594172 532.154698 
L 623.620002 539.389324 
L 624.645831 530.468031 
L 625.671661 531.212767 
L 626.697491 535.833009 
L 627.72332 535.631967 
L 628.74915 538.23772 
L 629.774979 533.069635 
L 630.800809 534.714647 
L 631.826638 536.614294 
L 632.852468 533.811781 
L 633.878298 533.594028 
L 634.904127 534.588493 
L 635.929957 533.949385 
L 636.955786 555.149942 
L 637.981616 531.395831 
L 639.007446 531.721867 
L 640.033275 534.196457 
L 641.059105 533.656387 
L 642.084934 537.446629 
L 643.110764 533.112991 
L 644.136593 533.598108 
L 645.162423 534.868704 
L 646.188253 535.628536 
L 647.214082 533.416274 
L 648.239912 538.36298 
L 649.265741 536.786286 
L 650.291571 542.520344 
L 651.3174 538.122444 
L 652.34323 539.64222 
L 653.36906 538.876474 
L 654.394889 540.141549 
L 655.420719 539.519898 
L 656.446548 538.691488 
L 657.472378 540.119042 
L 658.498208 539.88938 
L 659.524037 539.860758 
L 660.549867 550.360946 
L 661.575696 537.946944 
L 662.601526 540.276507 
L 663.627355 539.101205 
L 664.653185 541.286977 
L 665.679015 540.017949 
L 666.704844 539.03577 
L 667.730674 557.192513 
L 668.756503 539.198098 
L 669.782333 538.361761 
L 670.808163 543.224392 
L 671.833992 539.841925 
L 672.859822 543.008482 
L 673.885651 544.006269 
L 674.911481 542.381399 
L 675.93731 543.162528 
L 676.96314 541.773468 
L 677.98897 544.341587 
L 679.014799 542.113023 
L 680.040629 540.6844 
L 681.066458 542.151372 
L 682.092288 544.362095 
L 683.118117 542.042327 
L 684.143947 543.823334 
L 685.169777 539.011188 
L 686.195606 544.146607 
L 687.221436 547.810449 
L 688.247265 542.413448 
L 689.273095 549.609495 
L 690.298925 543.212228 
L 691.324754 540.111504 
L 692.350584 545.942483 
L 693.376413 541.245359 
L 694.402243 543.582492 
L 695.428072 552.555983 
L 696.453902 547.858659 
L 697.479732 552.496966 
L 698.505561 549.369283 
L 699.531391 550.461285 
L 700.55722 544.930774 
L 701.58305 551.554499 
L 702.608879 548.124892 
L 704.660539 553.314957 
L 705.686368 553.448541 
L 706.712198 544.27376 
L 707.738027 550.698149 
L 709.789687 546.743908 
L 710.815516 569.487753 
L 711.841346 550.768024 
L 712.867175 551.201261 
L 713.893005 550.776052 
L 714.918834 551.327129 
L 715.944664 554.14715 
L 716.970494 548.719806 
L 717.996323 545.47735 
L 719.022153 545.375986 
L 720.047982 547.597923 
L 721.073812 559.534903 
L 722.099642 555.479723 
L 723.125471 546.084739 
L 724.151301 548.816851 
L 725.17713 553.699873 
L 726.20296 546.944766 
L 727.228789 554.453031 
L 728.254619 552.573332 
L 729.280449 547.067039 
L 730.306278 554.422333 
L 731.332108 552.807876 
L 732.357937 551.903593 
L 733.383767 549.570791 
L 734.409596 555.493967 
L 735.435426 549.161635 
L 736.461256 554.853659 
L 737.487085 556.77447 
L 738.512915 556.598711 
L 739.538744 555.359441 
L 740.564574 549.232509 
L 741.590404 551.953478 
L 742.616233 547.538225 
L 743.642063 550.68133 
L 744.667892 549.813561 
L 745.693722 550.625337 
L 746.719551 549.957589 
L 747.745381 550.471835 
L 748.771211 552.003914 
L 749.79704 554.391981 
L 750.82287 553.477444 
L 751.848699 561.143825 
L 752.874529 559.326356 
L 753.900358 555.103119 
L 754.926188 551.733766 
L 755.952018 554.780131 
L 756.977847 548.752589 
L 758.003677 553.610516 
L 759.029506 553.464825 
L 760.055336 553.561574 
L 761.081166 553.895579 
L 762.106995 553.940583 
L 763.132825 553.58675 
L 764.158654 553.688955 
L 765.184484 548.685467 
L 766.210313 554.270537 
L 767.236143 551.888559 
L 768.261973 554.561594 
L 769.287802 555.497607 
L 770.313632 553.695865 
L 771.339461 553.60262 
L 772.365291 556.206084 
L 773.391121 555.543098 
L 774.41695 551.620792 
L 775.44278 558.602157 
L 776.468609 554.318165 
L 777.494439 553.953098 
L 778.520268 554.872262 
L 779.546098 555.468741 
L 780.571928 562.242042 
L 781.597757 556.069209 
L 782.623587 551.45912 
L 783.649416 556.921881 
L 784.675246 553.993534 
L 785.701075 555.386635 
L 786.726905 558.521257 
L 787.752735 558.185364 
L 788.778564 557.302584 
L 789.804394 558.316951 
L 790.830223 558.692246 
L 791.856053 554.222133 
L 792.881883 561.122589 
L 793.907712 563.579032 
L 794.933542 559.156601 
L 795.959371 554.104617 
L 796.985201 558.364771 
L 798.01103 558.679927 
L 799.03686 555.652774 
L 800.06269 554.218956 
L 801.088519 559.873812 
L 802.114349 559.770261 
L 803.140178 557.414047 
L 805.191837 561.315981 
L 806.217667 560.156508 
L 807.243497 560.664546 
L 808.269326 561.565214 
L 809.295156 558.999154 
L 811.346815 560.654068 
L 812.372645 561.340783 
L 813.398474 565.611022 
L 814.424304 560.71779 
L 815.450133 562.0014 
L 816.475963 563.477104 
L 817.501792 560.554693 
L 818.527622 560.558148 
L 819.553452 563.689881 
L 820.579281 564.032797 
L 821.605111 577.708255 
L 822.63094 577.58193 
L 823.65677 563.959375 
L 824.6826 556.371859 
L 825.708429 559.773438 
L 826.734259 568.372056 
L 827.760088 562.353741 
L 828.785918 557.713451 
L 829.811747 567.273002 
L 830.837577 560.303599 
L 831.863407 563.94394 
L 832.889236 562.85073 
L 833.915066 576.530583 
L 834.940895 557.680146 
L 835.966725 560.823579 
L 836.992554 559.846311 
L 838.018384 564.045051 
L 839.044214 572.166275 
L 840.070043 566.880031 
L 841.095873 562.695746 
L 842.121702 559.357761 
L 843.147532 568.586119 
L 844.173362 575.631934 
L 845.199191 575.708763 
L 846.225021 575.919951 
L 847.25085 563.940885 
L 848.27668 565.784299 
L 849.302509 563.578871 
L 851.354169 565.842798 
L 852.379998 564.336125 
L 853.405828 562.383401 
L 854.431657 563.068344 
L 855.457487 564.428598 
L 856.483316 564.147681 
L 857.509146 563.26177 
L 858.534976 564.237278 
L 859.560805 566.986309 
L 860.586635 560.712662 
L 861.612464 573.237373 
L 862.638294 561.525442 
L 863.664124 574.523063 
L 864.689953 559.28685 
L 865.715783 564.896369 
L 866.741612 565.561667 
L 867.767442 563.029677 
L 868.793271 565.183198 
L 869.819101 566.763624 
L 870.844931 566.271485 
L 872.89659 563.819523 
L 873.922419 565.447435 
L 874.948249 563.144863 
L 875.974078 566.521792 
L 876.999908 564.906386 
L 878.025738 566.616073 
L 879.051567 565.27029 
L 880.077397 566.645365 
L 881.103226 564.835644 
L 882.129056 566.777686 
L 883.154886 565.102236 
L 884.180715 565.287413 
L 885.206545 565.7051 
L 886.232374 564.171488 
L 887.258204 557.423307 
L 888.284033 566.581276 
L 889.309863 565.206945 
L 890.335693 567.743823 
L 891.361522 565.239069 
L 892.387352 567.40844 
L 893.413181 572.320012 
L 894.439011 566.26592 
L 896.49067 570.225984 
L 897.5165 564.961397 
L 898.542329 570.196415 
L 899.568159 563.978633 
L 900.593988 568.529876 
L 901.619818 564.060005 
L 902.645648 567.250073 
L 903.671477 571.163084 
L 904.697307 566.874987 
L 905.723136 566.062488 
L 906.748966 564.147791 
L 908.800625 572.853752 
L 909.826455 570.789869 
L 910.852284 566.733403 
L 911.878114 567.381544 
L 912.903943 568.349801 
L 913.929773 568.624329 
L 914.955603 563.61848 
L 915.981432 569.642648 
L 917.007262 569.886611 
L 918.033091 565.711575 
L 919.058921 568.307725 
L 920.08475 568.790315 
L 921.11058 567.665366 
L 922.13641 567.81769 
L 923.162239 570.410001 
L 924.188069 570.306984 
L 925.213898 570.041836 
L 926.239728 563.6515 
L 927.265557 570.006516 
L 928.291387 567.485261 
L 929.317217 566.926947 
L 930.343046 580.293518 
L 931.368876 579.632747 
L 932.394705 569.324733 
L 933.420535 569.605225 
L 934.446365 577.490136 
L 935.472194 575.669332 
L 936.498024 570.725198 
L 937.523853 571.193094 
L 938.549683 577.45746 
L 939.575512 568.866099 
L 940.601342 570.151046 
L 941.627172 571.991572 
L 942.653001 568.957998 
L 943.678831 568.160795 
L 944.70466 573.906361 
L 945.73049 569.569705 
L 946.75632 571.690513 
L 947.782149 568.374256 
L 948.807979 570.155606 
L 949.833808 568.946529 
L 950.859638 569.522971 
L 951.885467 573.223667 
L 952.911297 571.773252 
L 953.937127 569.042161 
L 954.962956 568.838322 
L 955.988786 572.767975 
L 957.014615 573.516388 
L 958.040445 569.362507 
L 959.066274 574.835624 
L 960.092104 574.130771 
L 961.117934 572.938942 
L 962.143763 567.697688 
L 963.169593 578.684722 
L 964.195422 577.267802 
L 965.221252 573.423524 
L 966.247082 573.244259 
L 967.272911 572.002881 
L 968.298741 573.957695 
L 969.32457 571.889312 
L 970.3504 571.184408 
L 971.376229 572.643553 
L 972.402059 576.839069 
L 973.427889 574.325453 
L 974.453718 576.908847 
L 975.479548 580.256103 
L 976.505377 576.139062 
L 977.531207 574.86555 
L 978.557036 572.754115 
L 979.582866 574.78285 
L 980.608696 577.68126 
L 981.634525 570.166256 
L 982.660355 573.208114 
L 983.686184 574.348889 
L 984.712014 576.877406 
L 985.737844 575.015144 
L 986.763673 578.458347 
L 987.789503 577.020243 
L 988.815332 576.236756 
L 989.841162 574.827586 
L 990.866991 575.240119 
L 991.892821 575.485398 
L 993.94448 573.571358 
L 994.97031 573.945025 
L 995.996139 575.137066 
L 997.021969 575.055722 
L 998.047799 575.135336 
L 999.073628 575.882158 
L 1000.099458 575.377715 
L 1001.125287 576.581334 
L 1002.151117 576.782653 
L 1003.176946 576.461815 
L 1004.202776 576.010861 
L 1005.228606 575.773391 
L 1007.280265 575.598559 
L 1008.306094 575.754488 
L 1009.331924 578.667385 
L 1010.357753 577.248482 
L 1011.383583 578.941385 
L 1012.409413 579.125158 
L 1013.435242 578.933799 
L 1014.461072 578.007137 
L 1015.486901 579.414403 
L 1016.512731 579.255873 
L 1017.538561 577.790106 
L 1018.56439 579.33487 
L 1019.59022 576.44918 
L 1020.616049 575.877863 
L 1021.641879 580.66606 
L 1022.667708 584.25635 
L 1023.693538 579.374323 
L 1024.719368 579.573767 
L 1025.745197 577.350484 
L 1026.771027 579.723654 
L 1028.822686 580.161905 
L 1029.848515 578.628263 
L 1030.874345 587.802705 
L 1031.900175 581.295689 
L 1032.926004 580.687741 
L 1033.951834 580.281572 
L 1036.003493 581.006305 
L 1038.055152 578.955449 
L 1039.080982 579.071964 
L 1040.106811 577.52417 
L 1041.132641 576.823953 
L 1042.15847 579.317421 
L 1043.1843 576.030798 
L 1044.21013 577.479692 
L 1045.235959 578.24063 
L 1046.261789 577.734195 
L 1047.287618 574.362283 
L 1048.313448 579.221724 
L 1049.339278 581.05951 
L 1050.365107 578.828036 
L 1051.390937 576.982339 
L 1052.416766 582.172602 
L 1053.442596 579.358281 
L 1054.468425 579.257324 
L 1055.494255 577.67232 
L 1056.520085 577.74916 
L 1058.571744 584.22128 
L 1059.597573 577.100347 
L 1060.623403 577.920189 
L 1062.675062 580.849648 
L 1064.726721 577.843369 
L 1065.752551 580.016468 
L 1066.77838 578.238972 
L 1067.80421 589.100667 
L 1068.83004 582.516557 
L 1069.855869 580.378693 
L 1070.881699 580.717313 
L 1071.907528 579.014925 
L 1072.933358 579.963334 
L 1073.959187 588.009165 
L 1074.985017 582.467923 
L 1076.010847 579.599685 
L 1077.036676 573.641162 
L 1078.062506 579.100553 
L 1079.088335 581.675499 
L 1080.114165 578.423799 
L 1081.139994 586.563474 
L 1082.165824 581.769435 
L 1083.191654 581.295095 
L 1084.217483 576.158869 
L 1085.243313 579.748331 
L 1086.269142 581.355085 
L 1087.294972 584.583977 
L 1088.320802 580.219639 
L 1089.346631 580.822169 
L 1090.372461 582.591085 
L 1091.39829 579.61228 
L 1092.42412 579.317521 
L 1093.449949 588.26441 
L 1094.475779 582.419195 
L 1095.501609 583.046102 
L 1096.527438 580.093617 
L 1097.553268 579.832603 
L 1098.579097 582.140008 
L 1099.604927 582.058007 
L 1100.630757 581.202052 
L 1102.682416 581.635163 
L 1103.708245 580.959376 
L 1104.734075 578.8452 
L 1105.759904 579.979066 
L 1106.785734 583.207104 
L 1107.811564 581.910041 
L 1108.837393 580.135907 
L 1109.863223 579.06979 
L 1110.889052 581.973665 
L 1111.914882 583.232884 
L 1112.940711 580.677699 
L 1113.966541 582.66959 
L 1114.992371 581.318826 
L 1116.0182 582.852038 
L 1117.04403 580.00804 
L 1118.069859 581.764826 
L 1119.095689 582.714543 
L 1121.147348 586.319205 
L 1122.173178 578.953243 
L 1123.199007 583.434621 
L 1124.224837 583.794126 
L 1125.250666 583.136998 
L 1126.276496 580.233 
L 1127.302326 581.647502 
L 1128.328155 586.716779 
L 1129.353985 588.461792 
L 1130.379814 582.755581 
L 1131.405644 583.436779 
L 1132.431473 587.448796 
L 1133.457303 582.069516 
L 1134.483133 582.312056 
L 1135.508962 588.76641 
L 1136.534792 586.049166 
L 1137.560621 584.873904 
L 1138.586451 585.27636 
L 1139.612281 585.911584 
L 1140.63811 586.690104 
L 1141.66394 585.416353 
L 1142.689769 584.883204 
L 1143.715599 586.003851 
L 1144.741428 586.129285 
L 1145.767258 582.958762 
L 1146.793088 568.041176 
L 1147.818917 564.585562 
L 1149.870576 564.476993 
L 1150.896406 562.627974 
L 1151.922235 562.759989 
L 1152.948065 583.730474 
L 1153.973895 583.430188 
L 1154.999724 581.692751 
L 1156.025554 555.67833 
L 1157.051383 579.868653 
L 1158.077213 581.415742 
L 1159.103043 583.612289 
L 1160.128872 582.601355 
L 1161.154702 584.452878 
L 1162.180531 580.317935 
L 1163.206361 583.465828 
L 1164.23219 592.754975 
L 1165.25802 582.189014 
L 1166.28385 583.535051 
L 1167.309679 585.351122 
L 1168.335509 585.4829 
L 1169.361338 586.137922 
L 1170.387168 584.355169 
L 1171.412998 584.338074 
L 1172.438827 584.686232 
L 1173.464657 592.420138 
L 1174.490486 583.52035 
L 1175.516316 583.924681 
L 1176.542145 585.789474 
L 1177.567975 586.01815 
L 1178.593805 590.956238 
L 1179.619634 583.124322 
L 1180.645464 586.218538 
L 1181.671293 584.977885 
L 1182.697123 590.928089 
L 1183.722952 584.370452 
L 1184.748782 586.124671 
L 1185.774612 588.382798 
L 1186.800441 587.808022 
L 1187.826271 585.284933 
L 1188.8521 584.823529 
L 1189.87793 586.64634 
L 1190.90376 585.055239 
L 1191.929589 584.579561 
L 1193.981248 591.649972 
L 1195.007078 582.661047 
L 1196.032907 583.774867 
L 1197.058737 588.487975 
L 1198.084567 589.003152 
L 1199.110396 584.468093 
L 1200.136226 588.419482 
L 1201.162055 584.146909 
L 1202.187885 584.127892 
L 1203.213714 582.373441 
L 1204.239544 584.150012 
L 1205.265374 586.403728 
L 1206.291203 585.540786 
L 1207.317033 587.332457 
L 1208.342862 586.396683 
L 1209.368692 585.917754 
L 1210.394522 586.589591 
L 1211.420351 588.924561 
L 1212.446181 584.83536 
L 1213.47201 586.963254 
L 1214.49784 586.12053 
L 1215.523669 588.606033 
L 1216.549499 585.828644 
L 1217.575329 586.572668 
L 1218.601158 585.97236 
L 1219.626988 584.78069 
L 1220.652817 584.855138 
L 1221.678647 586.684841 
L 1222.704477 584.834401 
L 1223.730306 585.974792 
L 1224.756136 587.949499 
L 1225.781965 586.141668 
L 1226.807795 588.375731 
L 1227.833624 585.817276 
L 1228.859454 586.081843 
L 1229.885284 587.561357 
L 1230.911113 588.643136 
L 1231.936943 587.257919 
L 1232.962772 588.967035 
L 1233.988602 586.621519 
L 1235.014431 588.652635 
L 1236.040261 585.695266 
L 1237.066091 587.056915 
L 1238.09192 586.060659 
L 1239.11775 586.976352 
L 1240.143579 587.228708 
L 1241.169409 585.388011 
L 1242.195239 588.293753 
L 1243.221068 588.457379 
L 1244.246898 586.45677 
L 1245.272727 587.023673 
L 1245.272727 587.023673 
" style="fill:none;stroke:#1f77b4;stroke-linecap:square;stroke-width:1.5;"/>
   </g>
   <g id="line2d_18">
    <path clip-path="url(#pf25422776b)" d="M 230.727273 181.765185 
L 231.753102 112.998587 
L 232.778932 111.6 
L 233.804761 167.99074 
L 234.830591 179.460875 
L 235.856421 172.027489 
L 236.88225 186.881984 
L 237.90808 195.66211 
L 238.933909 215.49414 
L 239.959739 215.567288 
L 240.985569 205.791835 
L 242.011398 198.218049 
L 243.037228 203.953681 
L 244.063057 218.777997 
L 245.088887 249.038747 
L 246.114716 253.563525 
L 247.140546 236.544099 
L 248.166376 255.994585 
L 249.192205 271.475941 
L 250.218035 259.907832 
L 251.243864 262.911433 
L 252.269694 372.124285 
L 253.295523 303.885505 
L 254.321353 280.133281 
L 255.347183 282.545348 
L 256.373012 290.668687 
L 257.398842 296.813013 
L 258.424671 302.260817 
L 259.450501 305.833153 
L 260.476331 326.456598 
L 261.50216 306.578064 
L 262.52799 337.666854 
L 263.553819 320.259599 
L 264.579649 328.643537 
L 265.605478 346.458765 
L 266.631308 343.840119 
L 267.657138 355.544993 
L 268.682967 354.6 
L 269.708797 313.382564 
L 270.734626 367.164817 
L 271.760456 358.252136 
L 272.786286 367.553444 
L 273.812115 369.456353 
L 274.837945 372.026656 
L 275.863774 368.492048 
L 276.889604 372.035035 
L 277.915433 370.51862 
L 278.941263 385.926228 
L 279.967093 380.249211 
L 280.992922 402.497408 
L 282.018752 376.60901 
L 283.044581 383.069252 
L 284.070411 387.590659 
L 285.09624 387.345655 
L 286.12207 399.974667 
L 287.1479 398.382477 
L 288.173729 395.387233 
L 289.199559 411.162693 
L 290.225388 407.080741 
L 291.251218 397.469672 
L 292.277048 408.162713 
L 293.302877 446.497223 
L 294.328707 407.842418 
L 295.354536 402.078435 
L 296.380366 416.85784 
L 297.406195 415.571419 
L 298.432025 419.7464 
L 299.457855 413.134553 
L 300.483684 436.445809 
L 301.509514 422.693107 
L 302.535343 427.223381 
L 303.561173 429.914875 
L 304.587002 503.777642 
L 305.612832 432.419244 
L 306.638662 436.491364 
L 307.664491 434.808167 
L 308.690321 437.981871 
L 309.71615 438.76773 
L 310.74198 443.109244 
L 311.76781 438.633314 
L 312.793639 452.407819 
L 313.819469 440.167196 
L 314.845298 446.048903 
L 315.871128 442.234061 
L 316.896957 447.944187 
L 317.922787 445.660669 
L 318.948617 441.208499 
L 319.974446 448.412696 
L 321.000276 453.119229 
L 322.026105 446.138471 
L 323.051935 450.174765 
L 324.077765 441.799767 
L 325.103594 458.707311 
L 326.129424 500.447933 
L 327.155253 450.479195 
L 328.181083 452.074349 
L 329.206912 457.119927 
L 330.232742 457.667467 
L 331.258572 455.105622 
L 332.284401 463.326526 
L 333.310231 461.917726 
L 334.33606 459.811341 
L 335.36189 467.299104 
L 336.387719 468.648442 
L 337.413549 463.193874 
L 339.465208 477.231612 
L 340.491038 462.92803 
L 341.516867 476.319142 
L 342.542697 473.640556 
L 343.568527 480.348702 
L 344.594356 467.112684 
L 345.620186 480.509656 
L 346.646015 471.695038 
L 347.671845 477.30241 
L 348.697674 473.238133 
L 349.723504 474.550605 
L 350.749334 469.097838 
L 351.775163 482.744339 
L 352.800993 482.670268 
L 353.826822 476.11286 
L 354.852652 485.072775 
L 355.878481 473.803622 
L 356.904311 498.10569 
L 357.930141 473.976058 
L 358.95597 475.394032 
L 359.9818 493.183011 
L 361.007629 491.712502 
L 362.033459 490.610087 
L 363.059289 508.568016 
L 364.085118 482.039227 
L 365.110948 491.476543 
L 366.136777 495.136266 
L 367.162607 487.023755 
L 368.188436 494.033989 
L 369.214266 492.380657 
L 370.240096 488.116288 
L 371.265925 496.436909 
L 372.291755 494.760249 
L 373.317584 496.696851 
L 374.343414 503.204789 
L 375.369243 483.611167 
L 376.395073 495.848102 
L 377.420903 490.388261 
L 378.446732 505.909793 
L 379.472562 491.339311 
L 380.498391 507.948955 
L 381.524221 493.195419 
L 382.550051 502.088024 
L 383.57588 502.346189 
L 384.60171 504.682918 
L 385.627539 496.374406 
L 386.653369 500.655878 
L 387.679198 493.377299 
L 388.705028 504.278395 
L 389.730858 503.948694 
L 390.756687 500.26251 
L 391.782517 501.829029 
L 392.808346 513.44844 
L 393.834176 511.832321 
L 394.860006 510.468875 
L 395.885835 498.966051 
L 397.937494 518.895155 
L 398.963324 522.333521 
L 399.989153 515.653314 
L 401.014983 519.941189 
L 402.040813 514.367267 
L 403.066642 521.785255 
L 404.092472 521.407794 
L 405.118301 519.742898 
L 406.144131 510.051911 
L 407.16996 524.314172 
L 408.19579 528.529053 
L 409.22162 525.867457 
L 410.247449 522.827137 
L 411.273279 524.58489 
L 412.299108 523.013548 
L 413.324938 527.340212 
L 414.350768 519.374594 
L 415.376597 528.367344 
L 416.402427 526.248748 
L 417.428256 555.224234 
L 418.454086 527.528156 
L 419.479915 530.942478 
L 420.505745 529.323575 
L 421.531575 531.594719 
L 422.557404 518.689541 
L 423.583234 533.207395 
L 424.609063 533.906001 
L 425.634893 532.210033 
L 426.660722 527.83984 
L 427.686552 535.117522 
L 428.712382 528.443917 
L 429.738211 532.26113 
L 430.764041 533.09421 
L 431.78987 530.694587 
L 432.8157 534.673386 
L 433.84153 535.741194 
L 434.867359 535.364967 
L 435.893189 530.215444 
L 436.919018 532.398724 
L 437.944848 538.311627 
L 438.970677 536.831426 
L 439.996507 539.828975 
L 441.022337 535.695752 
L 442.048166 538.478077 
L 444.099825 542.377032 
L 445.125655 539.144794 
L 446.151485 541.531321 
L 447.177314 540.182502 
L 448.203144 537.182622 
L 449.228973 536.332035 
L 450.254803 541.600817 
L 451.280632 540.566801 
L 452.306462 543.443857 
L 453.332292 535.036214 
L 454.358121 540.412863 
L 455.383951 543.385856 
L 456.40978 543.884994 
L 457.43561 542.932519 
L 458.461439 543.674396 
L 459.487269 542.727081 
L 460.513099 543.847207 
L 461.538928 540.634181 
L 462.564758 546.002604 
L 463.590587 542.50622 
L 464.616417 562.269507 
L 465.642247 542.803945 
L 466.668076 543.875003 
L 467.693906 547.647235 
L 468.719735 549.463414 
L 469.745565 542.911487 
L 470.771394 539.760545 
L 471.797224 549.353342 
L 472.823054 547.759128 
L 473.848883 549.22144 
L 474.874713 524.387685 
L 475.900542 541.536539 
L 476.926372 532.503452 
L 477.952201 545.185056 
L 478.978031 537.768181 
L 480.003861 546.139917 
L 481.02969 542.626588 
L 482.05552 536.313259 
L 483.081349 547.005131 
L 484.107179 548.641202 
L 485.133009 541.171775 
L 486.158838 549.872283 
L 487.184668 554.88519 
L 488.210497 561.809628 
L 489.236327 531.072859 
L 490.262156 543.821684 
L 491.287986 542.895926 
L 492.313816 547.264727 
L 493.339645 541.389496 
L 494.365475 545.207379 
L 495.391304 544.865217 
L 496.417134 548.883172 
L 497.442964 547.592629 
L 498.468793 545.121624 
L 499.494623 545.903816 
L 500.520452 553.694974 
L 501.546282 556.238959 
L 502.572111 549.761074 
L 503.597941 540.360304 
L 504.623771 550.421267 
L 505.6496 551.623182 
L 506.67543 550.736026 
L 507.701259 545.709991 
L 508.727089 549.807392 
L 509.752918 549.268149 
L 510.778748 550.797542 
L 511.804578 549.217898 
L 512.830407 551.274676 
L 513.856237 551.998174 
L 514.882066 549.358456 
L 515.907896 550.722606 
L 516.933726 551.620972 
L 517.959555 550.05868 
L 518.985385 555.270458 
L 520.011214 553.745178 
L 521.037044 557.540128 
L 522.062873 554.775167 
L 523.088703 557.066284 
L 524.114533 554.083641 
L 525.140362 541.082637 
L 526.166192 549.313807 
L 527.192021 553.619502 
L 528.217851 554.373236 
L 529.24368 559.369675 
L 530.26951 437.45108 
L 531.29534 562.115626 
L 532.321169 565.215932 
L 533.346999 553.227852 
L 534.372828 570.945003 
L 535.398658 559.282021 
L 536.424488 567.981327 
L 537.450317 563.677398 
L 538.476147 561.059104 
L 539.501976 562.781559 
L 540.527806 554.596144 
L 541.553635 557.99985 
L 542.579465 558.298418 
L 544.631124 561.862417 
L 545.656954 558.604394 
L 546.682783 558.388773 
L 547.708613 565.463565 
L 548.734443 560.213148 
L 549.760272 557.971007 
L 550.786102 560.861976 
L 551.811931 557.494948 
L 552.837761 560.722433 
L 553.86359 557.913351 
L 554.88942 559.877712 
L 555.91525 564.011519 
L 556.941079 571.573005 
L 557.966909 556.954295 
L 558.992738 563.400567 
L 560.018568 560.327455 
L 561.044397 559.000431 
L 562.070227 558.981046 
L 563.096057 562.62672 
L 564.121886 561.83348 
L 565.147716 563.073782 
L 566.173545 562.885822 
L 567.199375 567.98997 
L 568.225205 564.736936 
L 569.251034 560.292939 
L 570.276864 561.719374 
L 571.302693 560.101527 
L 572.328523 562.663445 
L 573.354352 567.086592 
L 574.380182 562.510755 
L 575.406012 567.105174 
L 576.431841 561.184601 
L 577.457671 571.262141 
L 578.4835 559.149187 
L 579.50933 568.754032 
L 580.535159 562.660614 
L 581.560989 565.117889 
L 582.586819 565.058503 
L 583.612648 565.773185 
L 584.638478 565.496223 
L 585.664307 558.712144 
L 586.690137 565.552313 
L 587.715967 575.233819 
L 588.741796 564.709619 
L 589.767626 570.763296 
L 590.793455 569.737768 
L 591.819285 568.313091 
L 592.845114 560.06946 
L 593.870944 569.940236 
L 594.896774 571.186727 
L 595.922603 566.01235 
L 596.948433 570.05604 
L 597.974262 566.770075 
L 599.000092 571.649266 
L 600.025922 567.06551 
L 601.051751 569.096502 
L 602.077581 561.684053 
L 603.10341 569.053549 
L 604.12924 568.860898 
L 605.155069 568.174791 
L 606.180899 567.625861 
L 607.206729 570.557241 
L 608.232558 570.847618 
L 609.258388 575.644982 
L 610.284217 579.649075 
L 611.310047 571.015153 
L 612.335876 573.081646 
L 613.361706 572.170921 
L 614.387536 572.708623 
L 615.413365 572.489031 
L 616.439195 572.068679 
L 617.465024 571.262925 
L 619.516684 574.73735 
L 620.542513 568.786731 
L 621.568343 577.825694 
L 622.594172 575.77256 
L 623.620002 574.269403 
L 624.645831 569.236349 
L 625.671661 571.469621 
L 626.697491 572.665964 
L 627.72332 575.253148 
L 628.74915 576.230448 
L 629.774979 574.526227 
L 630.800809 571.472014 
L 631.826638 575.768195 
L 632.852468 573.263958 
L 633.878298 574.628556 
L 634.904127 574.313475 
L 635.929957 579.469326 
L 636.955786 574.847619 
L 637.981616 576.512595 
L 640.033275 574.986291 
L 641.059105 574.561792 
L 642.084934 576.943057 
L 643.110764 574.177699 
L 644.136593 576.668882 
L 645.162423 576.28314 
L 646.188253 576.832409 
L 647.214082 578.383276 
L 648.239912 575.499149 
L 649.265741 576.80362 
L 650.291571 572.415491 
L 651.3174 576.69152 
L 652.34323 576.160624 
L 653.36906 576.207257 
L 654.394889 574.917674 
L 655.420719 578.078786 
L 656.446548 575.256885 
L 657.472378 581.331862 
L 658.498208 571.456942 
L 659.524037 576.777752 
L 660.549867 576.675923 
L 661.575696 577.04323 
L 662.601526 577.795813 
L 663.627355 577.864697 
L 664.653185 578.951527 
L 665.679015 582.521853 
L 666.704844 578.241476 
L 667.730674 580.991907 
L 668.756503 581.14437 
L 669.782333 573.713458 
L 670.808163 581.201173 
L 671.833992 582.159594 
L 672.859822 582.15466 
L 673.885651 581.578462 
L 674.911481 579.090263 
L 675.93731 583.277132 
L 676.96314 581.307693 
L 677.98897 580.256177 
L 679.014799 581.108803 
L 680.040629 583.149445 
L 681.066458 582.467489 
L 682.092288 583.343449 
L 683.118117 582.712853 
L 684.143947 583.03095 
L 685.169777 581.650224 
L 686.195606 584.539133 
L 687.221436 581.436369 
L 688.247265 580.781475 
L 689.273095 582.918641 
L 690.298925 583.698142 
L 692.350584 582.388058 
L 694.402243 584.025214 
L 695.428072 580.260436 
L 696.453902 590.973986 
L 697.479732 582.816424 
L 698.505561 580.944883 
L 699.531391 583.974469 
L 700.55722 585.054406 
L 701.58305 583.225816 
L 702.608879 584.681308 
L 703.634709 584.138251 
L 704.660539 585.983532 
L 705.686368 585.513806 
L 706.712198 586.016367 
L 707.738027 585.941019 
L 708.763857 586.083879 
L 710.815516 582.905365 
L 711.841346 582.306608 
L 712.867175 582.677954 
L 713.893005 582.413147 
L 714.918834 586.288733 
L 715.944664 583.518078 
L 716.970494 583.859306 
L 717.996323 582.245178 
L 719.022153 584.876083 
L 720.047982 581.805319 
L 721.073812 583.997388 
L 722.099642 583.838046 
L 723.125471 585.216533 
L 724.151301 582.843416 
L 725.17713 587.327093 
L 726.20296 583.032661 
L 727.228789 583.934846 
L 728.254619 584.133525 
L 729.280449 582.323061 
L 730.306278 592.278225 
L 731.332108 584.331476 
L 732.357937 583.433852 
L 733.383767 590.56299 
L 734.409596 583.008063 
L 735.435426 586.14376 
L 736.461256 585.368955 
L 737.487085 586.647338 
L 738.512915 571.376061 
L 739.538744 587.485576 
L 740.564574 586.176884 
L 741.590404 588.692883 
L 742.616233 587.153885 
L 743.642063 586.249218 
L 744.667892 577.42455 
L 745.693722 589.056899 
L 746.719551 587.163656 
L 747.745381 586.483444 
L 748.771211 586.218156 
L 749.79704 589.488868 
L 751.848699 584.461048 
L 752.874529 586.473353 
L 753.900358 586.828345 
L 754.926188 585.511196 
L 755.952018 586.901849 
L 756.977847 584.714752 
L 758.003677 586.89042 
L 759.029506 586.28194 
L 760.055336 587.276116 
L 761.081166 587.427865 
L 762.106995 589.091806 
L 763.132825 586.785618 
L 764.158654 589.101573 
L 765.184484 584.491521 
L 766.210313 590.301521 
L 767.236143 587.28928 
L 768.261973 589.808213 
L 769.287802 586.113548 
L 770.313632 589.778208 
L 771.339461 587.749985 
L 772.365291 588.0789 
L 773.391121 587.99447 
L 774.41695 589.601552 
L 775.44278 587.037839 
L 776.468609 590.427547 
L 777.494439 587.871725 
L 778.520268 589.633183 
L 779.546098 588.252763 
L 780.571928 589.149259 
L 781.597757 587.773463 
L 782.623587 590.200713 
L 783.649416 587.733301 
L 784.675246 589.284774 
L 785.701075 589.124455 
L 786.726905 590.070885 
L 787.752735 588.908376 
L 788.778564 590.909481 
L 789.804394 589.834361 
L 790.830223 590.433996 
L 791.856053 589.588522 
L 792.881883 590.767996 
L 793.907712 590.558717 
L 794.933542 592.258291 
L 795.959371 590.600721 
L 796.985201 589.95702 
L 798.01103 593.333709 
L 799.03686 593.519672 
L 800.06269 594.616454 
L 801.088519 591.479766 
L 802.114349 589.473844 
L 803.140178 592.558052 
L 804.166008 589.957391 
L 805.191837 591.142394 
L 806.217667 589.890299 
L 807.243497 594.212754 
L 808.269326 590.396129 
L 809.295156 590.171384 
L 810.320985 591.541736 
L 811.346815 590.677989 
L 812.372645 590.319546 
L 813.398474 590.499844 
L 814.424304 590.466117 
L 815.450133 591.912673 
L 816.475963 591.353098 
L 817.501792 590.31995 
L 818.527622 590.162904 
L 820.579281 592.288862 
L 821.605111 590.515614 
L 822.63094 591.109149 
L 823.65677 591.982914 
L 825.708429 591.94215 
L 826.734259 585.198228 
L 827.760088 580.114269 
L 828.785918 582.073881 
L 829.811747 579.736719 
L 830.837577 573.609298 
L 831.863407 578.931402 
L 832.889236 581.06085 
L 833.915066 597.069579 
L 834.940895 592.986535 
L 835.966725 592.147541 
L 836.992554 592.00018 
L 838.018384 594.316505 
L 839.044214 593.089617 
L 840.070043 592.542111 
L 841.095873 576.21425 
L 842.121702 572.614653 
L 844.173362 594.338886 
L 845.199191 592.816511 
L 846.225021 594.833301 
L 848.27668 592.165894 
L 849.302509 594.390883 
L 850.328339 595.503683 
L 851.354169 592.757257 
L 852.379998 594.807764 
L 853.405828 594.748688 
L 854.431657 595.633513 
L 855.457487 591.169467 
L 856.483316 594.843914 
L 857.509146 594.455661 
L 858.534976 600.401145 
L 859.560805 594.749789 
L 860.586635 596.248698 
L 861.612464 595.406034 
L 862.638294 597.145864 
L 864.689953 595.248823 
L 865.715783 593.7874 
L 866.741612 595.671288 
L 867.767442 594.386917 
L 868.793271 596.361218 
L 869.819101 594.837844 
L 870.844931 596.377113 
L 871.87076 594.763828 
L 872.89659 596.337223 
L 873.922419 593.835276 
L 874.948249 596.397067 
L 875.974078 596.908179 
L 876.999908 596.051091 
L 878.025738 596.661566 
L 879.051567 596.847746 
L 880.077397 595.665748 
L 881.103226 596.172119 
L 882.129056 595.752419 
L 883.154886 598.613489 
L 884.180715 601.865449 
L 885.206545 596.613843 
L 886.232374 597.29268 
L 888.284033 600.683233 
L 889.309863 597.524582 
L 890.335693 597.983617 
L 891.361522 597.173346 
L 892.387352 596.781554 
L 893.413181 598.487066 
L 894.439011 597.761921 
L 895.464841 599.38163 
L 896.49067 596.195909 
L 897.5165 599.20822 
L 898.542329 597.781559 
L 899.568159 597.614862 
L 900.593988 598.278964 
L 901.619818 597.649291 
L 902.645648 598.397073 
L 903.671477 598.400811 
L 904.697307 598.907526 
L 905.723136 598.770718 
L 906.748966 596.927414 
L 907.774795 598.866679 
L 908.800625 598.809904 
L 909.826455 598.110331 
L 910.852284 596.456529 
L 911.878114 599.111936 
L 912.903943 597.595649 
L 913.929773 602.651908 
L 914.955603 597.383213 
L 915.981432 598.606737 
L 917.007262 598.103737 
L 918.033091 598.872505 
L 919.058921 597.865274 
L 920.08475 598.788931 
L 921.11058 598.84035 
L 922.13641 599.136399 
L 923.162239 599.311631 
L 925.213898 598.112814 
L 926.239728 598.211382 
L 927.265557 599.066081 
L 928.291387 597.682482 
L 929.317217 598.971927 
L 930.343046 597.580916 
L 931.368876 603.703631 
L 932.394705 600.248049 
L 933.420535 598.376221 
L 934.446365 601.886267 
L 935.472194 598.274388 
L 936.498024 600.882017 
L 937.523853 598.092443 
L 938.549683 599.64261 
L 939.575512 597.377431 
L 940.601342 599.077893 
L 941.627172 599.012277 
L 942.653001 600.911879 
L 943.678831 597.628024 
L 945.73049 601.785134 
L 946.75632 599.998443 
L 947.782149 599.111366 
L 948.807979 600.098349 
L 949.833808 599.801274 
L 950.859638 598.985074 
L 951.885467 598.978203 
L 952.911297 600.736818 
L 953.937127 597.784271 
L 954.962956 600.929696 
L 955.988786 601.482859 
L 957.014615 601.832245 
L 958.040445 601.326548 
L 959.066274 601.662753 
L 960.092104 599.645672 
L 961.117934 601.193252 
L 962.143763 605.373341 
L 963.169593 600.6855 
L 964.195422 599.19367 
L 965.221252 600.55963 
L 966.247082 599.766446 
L 967.272911 602.410784 
L 968.298741 600.272791 
L 969.32457 604.5427 
L 970.3504 600.158385 
L 971.376229 601.652391 
L 972.402059 600.250996 
L 973.427889 600.208987 
L 974.453718 604.115132 
L 975.479548 600.90633 
L 977.531207 599.315072 
L 978.557036 599.877828 
L 979.582866 602.01176 
L 980.608696 600.48295 
L 981.634525 605.122691 
L 982.660355 600.340956 
L 983.686184 601.996279 
L 984.712014 600.634305 
L 985.737844 601.699395 
L 986.763673 601.446658 
L 987.789503 602.918935 
L 988.815332 601.320919 
L 989.841162 601.674662 
L 990.866991 601.442962 
L 991.892821 603.126911 
L 992.918651 600.038883 
L 993.94448 602.538685 
L 994.97031 601.660878 
L 995.996139 602.792286 
L 997.021969 601.301401 
L 998.047799 602.822781 
L 999.073628 601.20756 
L 1000.099458 602.815415 
L 1001.125287 603.722723 
L 1003.176946 601.863372 
L 1004.202776 602.478399 
L 1005.228606 602.045011 
L 1006.254435 603.099078 
L 1007.280265 602.653373 
L 1008.306094 604.070653 
L 1009.331924 602.11127 
L 1010.357753 602.97951 
L 1011.383583 602.482287 
L 1012.409413 603.613232 
L 1013.435242 603.772698 
L 1014.461072 604.699969 
L 1015.486901 603.65873 
L 1016.512731 604.271329 
L 1017.538561 602.157969 
L 1019.59022 604.017952 
L 1020.616049 604.840877 
L 1021.641879 603.313212 
L 1022.667708 604.795411 
L 1023.693538 603.687195 
L 1024.719368 604.769118 
L 1025.745197 603.365143 
L 1027.796856 604.193372 
L 1028.822686 603.717671 
L 1029.848515 604.121062 
L 1030.874345 604.963256 
L 1031.900175 604.31195 
L 1032.926004 604.999983 
L 1033.951834 604.618044 
L 1034.977663 604.009139 
L 1036.003493 603.038116 
L 1037.029323 604.132649 
L 1038.055152 603.612039 
L 1039.080982 603.629064 
L 1040.106811 602.768146 
L 1041.132641 605.169949 
L 1042.15847 604.640818 
L 1043.1843 609.782049 
L 1044.21013 603.615855 
L 1045.235959 604.925237 
L 1046.261789 602.711117 
L 1047.287618 604.577557 
L 1048.313448 603.271549 
L 1049.339278 608.817744 
L 1050.365107 602.241965 
L 1052.416766 607.834783 
L 1053.442596 604.899663 
L 1054.468425 607.133537 
L 1055.494255 604.102711 
L 1056.520085 602.425706 
L 1057.545914 603.577152 
L 1058.571744 604.111228 
L 1059.597573 605.259358 
L 1060.623403 607.542709 
L 1061.649232 604.773957 
L 1062.675062 604.172345 
L 1063.700892 606.012632 
L 1064.726721 604.446501 
L 1065.752551 605.901837 
L 1066.77838 604.526801 
L 1067.80421 605.328724 
L 1068.83004 602.661525 
L 1069.855869 605.63641 
L 1070.881699 602.895311 
L 1071.907528 604.986083 
L 1072.933358 606.392004 
L 1074.985017 604.984963 
L 1076.010847 603.637428 
L 1077.036676 604.27451 
L 1078.062506 605.267782 
L 1080.114165 604.602521 
L 1081.139994 604.702086 
L 1082.165824 605.961904 
L 1083.191654 605.431763 
L 1084.217483 606.32784 
L 1085.243313 604.722904 
L 1086.269142 606.071681 
L 1087.294972 603.413289 
L 1088.320802 606.424333 
L 1089.346631 605.312836 
L 1090.372461 609.072191 
L 1091.39829 607.012941 
L 1092.42412 606.578145 
L 1093.449949 605.742742 
L 1094.475779 604.594737 
L 1095.501609 605.528437 
L 1096.527438 609.31699 
L 1097.553268 605.860687 
L 1098.579097 609.001429 
L 1099.604927 605.520776 
L 1100.630757 605.74408 
L 1101.656586 603.391211 
L 1102.682416 606.390192 
L 1103.708245 606.010021 
L 1104.734075 606.681027 
L 1105.759904 604.792249 
L 1106.785734 606.338216 
L 1107.811564 605.53602 
L 1108.837393 606.810979 
L 1109.863223 606.477685 
L 1110.889052 606.992446 
L 1112.940711 606.231168 
L 1113.966541 606.271047 
L 1114.992371 607.530194 
L 1116.0182 605.851299 
L 1117.04403 607.506945 
L 1118.069859 606.73724 
L 1119.095689 607.115669 
L 1120.121519 606.326096 
L 1121.147348 607.562923 
L 1122.173178 605.322104 
L 1123.199007 607.526319 
L 1124.224837 606.778233 
L 1125.250666 607.101824 
L 1126.276496 609.72235 
L 1127.302326 607.02127 
L 1128.328155 606.686078 
L 1129.353985 607.161394 
L 1130.379814 606.776124 
L 1131.405644 608.85336 
L 1132.431473 607.424817 
L 1133.457303 607.538439 
L 1134.483133 605.687775 
L 1135.508962 607.08851 
L 1136.534792 607.083289 
L 1137.560621 607.452259 
L 1139.612281 607.253231 
L 1140.63811 607.046786 
L 1141.66394 606.551627 
L 1142.689769 606.721368 
L 1143.715599 607.841603 
L 1144.741428 605.358243 
L 1145.767258 610.835442 
L 1146.793088 606.606987 
L 1147.818917 608.089881 
L 1148.844747 605.678155 
L 1149.870576 608.166602 
L 1150.896406 606.641684 
L 1151.922235 606.968899 
L 1153.973895 608.072171 
L 1154.999724 607.228951 
L 1156.025554 610.205024 
L 1157.051383 607.03117 
L 1158.077213 608.507696 
L 1159.103043 606.008677 
L 1160.128872 608.134291 
L 1161.154702 608.858301 
L 1162.180531 607.628105 
L 1163.206361 607.901086 
L 1164.23219 607.791625 
L 1166.28385 609.233444 
L 1167.309679 608.301251 
L 1168.335509 609.751326 
L 1169.361338 606.709965 
L 1170.387168 609.127191 
L 1171.412998 607.431568 
L 1172.438827 607.056454 
L 1173.464657 606.463272 
L 1174.490486 608.487501 
L 1175.516316 608.865206 
L 1176.542145 607.610804 
L 1177.567975 607.558531 
L 1178.593805 607.704044 
L 1179.619634 610.976808 
L 1180.645464 611.779838 
L 1181.671293 607.017931 
L 1182.697123 609.038705 
L 1183.722952 607.917019 
L 1184.748782 609.805006 
L 1185.774612 608.610051 
L 1186.800441 609.936397 
L 1187.826271 608.086986 
L 1188.8521 609.028557 
L 1190.90376 608.312643 
L 1191.929589 610.520535 
L 1192.955419 608.051343 
L 1193.981248 610.0027 
L 1195.007078 612.365468 
L 1196.032907 608.87425 
L 1197.058737 608.74625 
L 1198.084567 610.961676 
L 1199.110396 611.599425 
L 1200.136226 611.346636 
L 1201.162055 609.175919 
L 1202.187885 608.825847 
L 1203.213714 612.735839 
L 1204.239544 612.02271 
L 1205.265374 611.746316 
L 1206.291203 613.200639 
L 1207.317033 611.778597 
L 1208.342862 611.592307 
L 1209.368692 612.400073 
L 1210.394522 609.269418 
L 1211.420351 611.259613 
L 1212.446181 611.287191 
L 1213.47201 615.6 
L 1214.49784 611.90323 
L 1215.523669 611.853058 
L 1216.549499 610.410953 
L 1217.575329 611.920115 
L 1218.601158 612.495664 
L 1219.626988 612.703445 
L 1220.652817 611.347196 
L 1221.678647 612.096776 
L 1222.704477 611.481744 
L 1223.730306 612.500964 
L 1224.756136 612.365869 
L 1225.781965 611.501744 
L 1226.807795 611.078812 
L 1227.833624 612.346046 
L 1228.859454 611.2885 
L 1229.885284 612.402202 
L 1230.911113 612.180181 
L 1231.936943 612.5413 
L 1232.962772 612.110563 
L 1233.988602 610.279568 
L 1235.014431 608.690256 
L 1236.040261 613.984612 
L 1237.066091 611.17918 
L 1238.09192 612.008839 
L 1239.11775 612.045089 
L 1240.143579 612.99423 
L 1241.169409 610.54575 
L 1242.195239 612.435718 
L 1243.221068 611.623908 
L 1244.246898 611.811506 
L 1245.272727 612.274037 
L 1245.272727 612.274037 
" style="fill:none;stroke:#ff7f0e;stroke-linecap:square;stroke-width:1.5;"/>
   </g>
   <g id="patch_3">
    <path d="M 180 640.8 
L 180 86.4 
" style="fill:none;stroke:#000000;stroke-linecap:square;stroke-linejoin:miter;stroke-width:0.8;"/>
   </g>
   <g id="patch_4">
    <path d="M 1296 640.8 
L 1296 86.4 
" style="fill:none;stroke:#000000;stroke-linecap:square;stroke-linejoin:miter;stroke-width:0.8;"/>
   </g>
   <g id="patch_5">
    <path d="M 180 640.8 
L 1296 640.8 
" style="fill:none;stroke:#000000;stroke-linecap:square;stroke-linejoin:miter;stroke-width:0.8;"/>
   </g>
   <g id="patch_6">
    <path d="M 180 86.4 
L 1296 86.4 
" style="fill:none;stroke:#000000;stroke-linecap:square;stroke-linejoin:miter;stroke-width:0.8;"/>
   </g>
   <g id="text_19">
    <!-- Volume Weighted Average Price (VWAP) Speedup -->
    <defs>
     <path d="M 28.609375 0 
L 0.78125 72.90625 
L 11.078125 72.90625 
L 34.1875 11.53125 
L 57.328125 72.90625 
L 67.578125 72.90625 
L 39.796875 0 
z
" id="DejaVuSans-86"/>
     <path d="M 30.609375 48.390625 
Q 23.390625 48.390625 19.1875 42.75 
Q 14.984375 37.109375 14.984375 27.296875 
Q 14.984375 17.484375 19.15625 11.84375 
Q 23.34375 6.203125 30.609375 6.203125 
Q 37.796875 6.203125 41.984375 11.859375 
Q 46.1875 17.53125 46.1875 27.296875 
Q 46.1875 37.015625 41.984375 42.703125 
Q 37.796875 48.390625 30.609375 48.390625 
z
M 30.609375 56 
Q 42.328125 56 49.015625 48.375 
Q 55.71875 40.765625 55.71875 27.296875 
Q 55.71875 13.875 49.015625 6.21875 
Q 42.328125 -1.421875 30.609375 -1.421875 
Q 18.84375 -1.421875 12.171875 6.21875 
Q 5.515625 13.875 5.515625 27.296875 
Q 5.515625 40.765625 12.171875 48.375 
Q 18.84375 56 30.609375 56 
z
" id="DejaVuSans-111"/>
     <path d="M 9.421875 75.984375 
L 18.40625 75.984375 
L 18.40625 0 
L 9.421875 0 
z
" id="DejaVuSans-108"/>
     <path d="M 52 44.1875 
Q 55.375 50.25 60.0625 53.125 
Q 64.75 56 71.09375 56 
Q 79.640625 56 84.28125 50.015625 
Q 88.921875 44.046875 88.921875 33.015625 
L 88.921875 0 
L 79.890625 0 
L 79.890625 32.71875 
Q 79.890625 40.578125 77.09375 44.375 
Q 74.3125 48.1875 68.609375 48.1875 
Q 61.625 48.1875 57.5625 43.546875 
Q 53.515625 38.921875 53.515625 30.90625 
L 53.515625 0 
L 44.484375 0 
L 44.484375 32.71875 
Q 44.484375 40.625 41.703125 44.40625 
Q 38.921875 48.1875 33.109375 48.1875 
Q 26.21875 48.1875 22.15625 43.53125 
Q 18.109375 38.875 18.109375 30.90625 
L 18.109375 0 
L 9.078125 0 
L 9.078125 54.6875 
L 18.109375 54.6875 
L 18.109375 46.1875 
Q 21.1875 51.21875 25.484375 53.609375 
Q 29.78125 56 35.6875 56 
Q 41.65625 56 45.828125 52.96875 
Q 50 49.953125 52 44.1875 
z
" id="DejaVuSans-109"/>
     <path id="DejaVuSans-32"/>
     <path d="M 3.328125 72.90625 
L 13.28125 72.90625 
L 28.609375 11.28125 
L 43.890625 72.90625 
L 54.984375 72.90625 
L 70.3125 11.28125 
L 85.59375 72.90625 
L 95.609375 72.90625 
L 77.296875 0 
L 64.890625 0 
L 49.515625 63.28125 
L 33.984375 0 
L 21.578125 0 
z
" id="DejaVuSans-87"/>
     <path d="M 9.421875 54.6875 
L 18.40625 54.6875 
L 18.40625 0 
L 9.421875 0 
z
M 9.421875 75.984375 
L 18.40625 75.984375 
L 18.40625 64.59375 
L 9.421875 64.59375 
z
" id="DejaVuSans-105"/>
     <path d="M 45.40625 27.984375 
Q 45.40625 37.75 41.375 43.109375 
Q 37.359375 48.484375 30.078125 48.484375 
Q 22.859375 48.484375 18.828125 43.109375 
Q 14.796875 37.75 14.796875 27.984375 
Q 14.796875 18.265625 18.828125 12.890625 
Q 22.859375 7.515625 30.078125 7.515625 
Q 37.359375 7.515625 41.375 12.890625 
Q 45.40625 18.265625 45.40625 27.984375 
z
M 54.390625 6.78125 
Q 54.390625 -7.171875 48.1875 -13.984375 
Q 42 -20.796875 29.203125 -20.796875 
Q 24.46875 -20.796875 20.265625 -20.09375 
Q 16.0625 -19.390625 12.109375 -17.921875 
L 12.109375 -9.1875 
Q 16.0625 -11.328125 19.921875 -12.34375 
Q 23.78125 -13.375 27.78125 -13.375 
Q 36.625 -13.375 41.015625 -8.765625 
Q 45.40625 -4.15625 45.40625 5.171875 
L 45.40625 9.625 
Q 42.625 4.78125 38.28125 2.390625 
Q 33.9375 0 27.875 0 
Q 17.828125 0 11.671875 7.65625 
Q 5.515625 15.328125 5.515625 27.984375 
Q 5.515625 40.671875 11.671875 48.328125 
Q 17.828125 56 27.875 56 
Q 33.9375 56 38.28125 53.609375 
Q 42.625 51.21875 45.40625 46.390625 
L 45.40625 54.6875 
L 54.390625 54.6875 
z
" id="DejaVuSans-103"/>
     <path d="M 54.890625 33.015625 
L 54.890625 0 
L 45.90625 0 
L 45.90625 32.71875 
Q 45.90625 40.484375 42.875 44.328125 
Q 39.84375 48.1875 33.796875 48.1875 
Q 26.515625 48.1875 22.3125 43.546875 
Q 18.109375 38.921875 18.109375 30.90625 
L 18.109375 0 
L 9.078125 0 
L 9.078125 75.984375 
L 18.109375 75.984375 
L 18.109375 46.1875 
Q 21.34375 51.125 25.703125 53.5625 
Q 30.078125 56 35.796875 56 
Q 45.21875 56 50.046875 50.171875 
Q 54.890625 44.34375 54.890625 33.015625 
z
" id="DejaVuSans-104"/>
     <path d="M 18.3125 70.21875 
L 18.3125 54.6875 
L 36.8125 54.6875 
L 36.8125 47.703125 
L 18.3125 47.703125 
L 18.3125 18.015625 
Q 18.3125 11.328125 20.140625 9.421875 
Q 21.96875 7.515625 27.59375 7.515625 
L 36.8125 7.515625 
L 36.8125 0 
L 27.59375 0 
Q 17.1875 0 13.234375 3.875 
Q 9.28125 7.765625 9.28125 18.015625 
L 9.28125 47.703125 
L 2.6875 47.703125 
L 2.6875 54.6875 
L 9.28125 54.6875 
L 9.28125 70.21875 
z
" id="DejaVuSans-116"/>
     <path d="M 34.1875 63.1875 
L 20.796875 26.90625 
L 47.609375 26.90625 
z
M 28.609375 72.90625 
L 39.796875 72.90625 
L 67.578125 0 
L 57.328125 0 
L 50.6875 18.703125 
L 17.828125 18.703125 
L 11.1875 0 
L 0.78125 0 
z
" id="DejaVuSans-65"/>
     <path d="M 2.984375 54.6875 
L 12.5 54.6875 
L 29.59375 8.796875 
L 46.6875 54.6875 
L 56.203125 54.6875 
L 35.6875 0 
L 23.484375 0 
z
" id="DejaVuSans-118"/>
     <path d="M 41.109375 46.296875 
Q 39.59375 47.171875 37.8125 47.578125 
Q 36.03125 48 33.890625 48 
Q 26.265625 48 22.1875 43.046875 
Q 18.109375 38.09375 18.109375 28.8125 
L 18.109375 0 
L 9.078125 0 
L 9.078125 54.6875 
L 18.109375 54.6875 
L 18.109375 46.1875 
Q 20.953125 51.171875 25.484375 53.578125 
Q 30.03125 56 36.53125 56 
Q 37.453125 56 38.578125 55.875 
Q 39.703125 55.765625 41.0625 55.515625 
z
" id="DejaVuSans-114"/>
     <path d="M 34.28125 27.484375 
Q 23.390625 27.484375 19.1875 25 
Q 14.984375 22.515625 14.984375 16.5 
Q 14.984375 11.71875 18.140625 8.90625 
Q 21.296875 6.109375 26.703125 6.109375 
Q 34.1875 6.109375 38.703125 11.40625 
Q 43.21875 16.703125 43.21875 25.484375 
L 43.21875 27.484375 
z
M 52.203125 31.203125 
L 52.203125 0 
L 43.21875 0 
L 43.21875 8.296875 
Q 40.140625 3.328125 35.546875 0.953125 
Q 30.953125 -1.421875 24.3125 -1.421875 
Q 15.921875 -1.421875 10.953125 3.296875 
Q 6 8.015625 6 15.921875 
Q 6 25.140625 12.171875 29.828125 
Q 18.359375 34.515625 30.609375 34.515625 
L 43.21875 34.515625 
L 43.21875 35.40625 
Q 43.21875 41.609375 39.140625 45 
Q 35.0625 48.390625 27.6875 48.390625 
Q 23 48.390625 18.546875 47.265625 
Q 14.109375 46.140625 10.015625 43.890625 
L 10.015625 52.203125 
Q 14.9375 54.109375 19.578125 55.046875 
Q 24.21875 56 28.609375 56 
Q 40.484375 56 46.34375 49.84375 
Q 52.203125 43.703125 52.203125 31.203125 
z
" id="DejaVuSans-97"/>
     <path d="M 19.671875 64.796875 
L 19.671875 37.40625 
L 32.078125 37.40625 
Q 38.96875 37.40625 42.71875 40.96875 
Q 46.484375 44.53125 46.484375 51.125 
Q 46.484375 57.671875 42.71875 61.234375 
Q 38.96875 64.796875 32.078125 64.796875 
z
M 9.8125 72.90625 
L 32.078125 72.90625 
Q 44.34375 72.90625 50.609375 67.359375 
Q 56.890625 61.8125 56.890625 51.125 
Q 56.890625 40.328125 50.609375 34.8125 
Q 44.34375 29.296875 32.078125 29.296875 
L 19.671875 29.296875 
L 19.671875 0 
L 9.8125 0 
z
" id="DejaVuSans-80"/>
     <path d="M 48.78125 52.59375 
L 48.78125 44.1875 
Q 44.96875 46.296875 41.140625 47.34375 
Q 37.3125 48.390625 33.40625 48.390625 
Q 24.65625 48.390625 19.8125 42.84375 
Q 14.984375 37.3125 14.984375 27.296875 
Q 14.984375 17.28125 19.8125 11.734375 
Q 24.65625 6.203125 33.40625 6.203125 
Q 37.3125 6.203125 41.140625 7.25 
Q 44.96875 8.296875 48.78125 10.40625 
L 48.78125 2.09375 
Q 45.015625 0.34375 40.984375 -0.53125 
Q 36.96875 -1.421875 32.421875 -1.421875 
Q 20.0625 -1.421875 12.78125 6.34375 
Q 5.515625 14.109375 5.515625 27.296875 
Q 5.515625 40.671875 12.859375 48.328125 
Q 20.21875 56 33.015625 56 
Q 37.15625 56 41.109375 55.140625 
Q 45.0625 54.296875 48.78125 52.59375 
z
" id="DejaVuSans-99"/>
     <path d="M 31 75.875 
Q 24.46875 64.65625 21.28125 53.65625 
Q 18.109375 42.671875 18.109375 31.390625 
Q 18.109375 20.125 21.3125 9.0625 
Q 24.515625 -2 31 -13.1875 
L 23.1875 -13.1875 
Q 15.875 -1.703125 12.234375 9.375 
Q 8.59375 20.453125 8.59375 31.390625 
Q 8.59375 42.28125 12.203125 53.3125 
Q 15.828125 64.359375 23.1875 75.875 
z
" id="DejaVuSans-40"/>
     <path d="M 8.015625 75.875 
L 15.828125 75.875 
Q 23.140625 64.359375 26.78125 53.3125 
Q 30.421875 42.28125 30.421875 31.390625 
Q 30.421875 20.453125 26.78125 9.375 
Q 23.140625 -1.703125 15.828125 -13.1875 
L 8.015625 -13.1875 
Q 14.5 -2 17.703125 9.0625 
Q 20.90625 20.125 20.90625 31.390625 
Q 20.90625 42.671875 17.703125 53.65625 
Q 14.5 64.65625 8.015625 75.875 
z
" id="DejaVuSans-41"/>
     <path d="M 53.515625 70.515625 
L 53.515625 60.890625 
Q 47.90625 63.578125 42.921875 64.890625 
Q 37.9375 66.21875 33.296875 66.21875 
Q 25.25 66.21875 20.875 63.09375 
Q 16.5 59.96875 16.5 54.203125 
Q 16.5 49.359375 19.40625 46.890625 
Q 22.3125 44.4375 30.421875 42.921875 
L 36.375 41.703125 
Q 47.40625 39.59375 52.65625 34.296875 
Q 57.90625 29 57.90625 20.125 
Q 57.90625 9.515625 50.796875 4.046875 
Q 43.703125 -1.421875 29.984375 -1.421875 
Q 24.8125 -1.421875 18.96875 -0.25 
Q 13.140625 0.921875 6.890625 3.21875 
L 6.890625 13.375 
Q 12.890625 10.015625 18.65625 8.296875 
Q 24.421875 6.59375 29.984375 6.59375 
Q 38.421875 6.59375 43.015625 9.90625 
Q 47.609375 13.234375 47.609375 19.390625 
Q 47.609375 24.75 44.3125 27.78125 
Q 41.015625 30.8125 33.5 32.328125 
L 27.484375 33.5 
Q 16.453125 35.6875 11.515625 40.375 
Q 6.59375 45.0625 6.59375 53.421875 
Q 6.59375 63.09375 13.40625 68.65625 
Q 20.21875 74.21875 32.171875 74.21875 
Q 37.3125 74.21875 42.625 73.28125 
Q 47.953125 72.359375 53.515625 70.515625 
z
" id="DejaVuSans-83"/>
    </defs>
    <g transform="translate(589.935938 80.4)scale(0.12 -0.12)">
     <use xlink:href="#DejaVuSans-86"/>
     <use x="60.658203" xlink:href="#DejaVuSans-111"/>
     <use x="121.839844" xlink:href="#DejaVuSans-108"/>
     <use x="149.623047" xlink:href="#DejaVuSans-117"/>
     <use x="213.001953" xlink:href="#DejaVuSans-109"/>
     <use x="310.414062" xlink:href="#DejaVuSans-101"/>
     <use x="371.9375" xlink:href="#DejaVuSans-32"/>
     <use x="403.724609" xlink:href="#DejaVuSans-87"/>
     <use x="496.726562" xlink:href="#DejaVuSans-101"/>
     <use x="558.25" xlink:href="#DejaVuSans-105"/>
     <use x="586.033203" xlink:href="#DejaVuSans-103"/>
     <use x="649.509766" xlink:href="#DejaVuSans-104"/>
     <use x="712.888672" xlink:href="#DejaVuSans-116"/>
     <use x="752.097656" xlink:href="#DejaVuSans-101"/>
     <use x="813.621094" xlink:href="#DejaVuSans-100"/>
     <use x="877.097656" xlink:href="#DejaVuSans-32"/>
     <use x="908.884766" xlink:href="#DejaVuSans-65"/>
     <use x="971.417969" xlink:href="#DejaVuSans-118"/>
     <use x="1030.597656" xlink:href="#DejaVuSans-101"/>
     <use x="1092.121094" xlink:href="#DejaVuSans-114"/>
     <use x="1133.234375" xlink:href="#DejaVuSans-97"/>
     <use x="1194.513672" xlink:href="#DejaVuSans-103"/>
     <use x="1257.990234" xlink:href="#DejaVuSans-101"/>
     <use x="1319.513672" xlink:href="#DejaVuSans-32"/>
     <use x="1351.300781" xlink:href="#DejaVuSans-80"/>
     <use x="1409.853516" xlink:href="#DejaVuSans-114"/>
     <use x="1450.966797" xlink:href="#DejaVuSans-105"/>
     <use x="1478.75" xlink:href="#DejaVuSans-99"/>
     <use x="1533.730469" xlink:href="#DejaVuSans-101"/>
     <use x="1595.253906" xlink:href="#DejaVuSans-32"/>
     <use x="1627.041016" xlink:href="#DejaVuSans-40"/>
     <use x="1666.054688" xlink:href="#DejaVuSans-86"/>
     <use x="1734.462891" xlink:href="#DejaVuSans-87"/>
     <use x="1827.839844" xlink:href="#DejaVuSans-65"/>
     <use x="1896.248047" xlink:href="#DejaVuSans-80"/>
     <use x="1956.550781" xlink:href="#DejaVuSans-41"/>
     <use x="1995.564453" xlink:href="#DejaVuSans-32"/>
     <use x="2027.351562" xlink:href="#DejaVuSans-83"/>
     <use x="2090.828125" xlink:href="#DejaVuSans-112"/>
     <use x="2154.304688" xlink:href="#DejaVuSans-101"/>
     <use x="2215.828125" xlink:href="#DejaVuSans-101"/>
     <use x="2277.351562" xlink:href="#DejaVuSans-100"/>
     <use x="2340.828125" xlink:href="#DejaVuSans-117"/>
     <use x="2404.207031" xlink:href="#DejaVuSans-112"/>
    </g>
   </g>
   <g id="legend_1">
    <g id="patch_7">
     <path d="M 1185.373437 123.75625 
L 1289 123.75625 
Q 1291 123.75625 1291 121.75625 
L 1291 93.4 
Q 1291 91.4 1289 91.4 
L 1185.373437 91.4 
Q 1183.373437 91.4 1183.373437 93.4 
L 1183.373437 121.75625 
Q 1183.373437 123.75625 1185.373437 123.75625 
z
" style="fill:#ffffff;opacity:0.8;stroke:#cccccc;stroke-linejoin:miter;"/>
    </g>
    <g id="line2d_19">
     <path d="M 1187.373437 99.498437 
L 1207.373437 99.498437 
" style="fill:none;stroke:#1f77b4;stroke-linecap:square;stroke-width:1.5;"/>
    </g>
    <g id="line2d_20"/>
    <g id="text_20">
     <!-- numpy.float32 -->
     <defs>
      <path d="M 32.171875 -5.078125 
Q 28.375 -14.84375 24.75 -17.8125 
Q 21.140625 -20.796875 15.09375 -20.796875 
L 7.90625 -20.796875 
L 7.90625 -13.28125 
L 13.1875 -13.28125 
Q 16.890625 -13.28125 18.9375 -11.515625 
Q 21 -9.765625 23.484375 -3.21875 
L 25.09375 0.875 
L 2.984375 54.6875 
L 12.5 54.6875 
L 29.59375 11.921875 
L 46.6875 54.6875 
L 56.203125 54.6875 
z
" id="DejaVuSans-121"/>
      <path d="M 37.109375 75.984375 
L 37.109375 68.5 
L 28.515625 68.5 
Q 23.6875 68.5 21.796875 66.546875 
Q 19.921875 64.59375 19.921875 59.515625 
L 19.921875 54.6875 
L 34.71875 54.6875 
L 34.71875 47.703125 
L 19.921875 47.703125 
L 19.921875 0 
L 10.890625 0 
L 10.890625 47.703125 
L 2.296875 47.703125 
L 2.296875 54.6875 
L 10.890625 54.6875 
L 10.890625 58.5 
Q 10.890625 67.625 15.140625 71.796875 
Q 19.390625 75.984375 28.609375 75.984375 
z
" id="DejaVuSans-102"/>
     </defs>
     <g transform="translate(1215.373437 102.998437)scale(0.1 -0.1)">
      <use xlink:href="#DejaVuSans-110"/>
      <use x="63.378906" xlink:href="#DejaVuSans-117"/>
      <use x="126.757812" xlink:href="#DejaVuSans-109"/>
      <use x="224.169922" xlink:href="#DejaVuSans-112"/>
      <use x="287.646484" xlink:href="#DejaVuSans-121"/>
      <use x="332.576172" xlink:href="#DejaVuSans-46"/>
      <use x="364.363281" xlink:href="#DejaVuSans-102"/>
      <use x="399.568359" xlink:href="#DejaVuSans-108"/>
      <use x="427.351562" xlink:href="#DejaVuSans-111"/>
      <use x="488.533203" xlink:href="#DejaVuSans-97"/>
      <use x="549.8125" xlink:href="#DejaVuSans-116"/>
      <use x="589.021484" xlink:href="#DejaVuSans-51"/>
      <use x="652.644531" xlink:href="#DejaVuSans-50"/>
     </g>
    </g>
    <g id="line2d_21">
     <path d="M 1187.373437 114.176562 
L 1207.373437 114.176562 
" style="fill:none;stroke:#ff7f0e;stroke-linecap:square;stroke-width:1.5;"/>
    </g>
    <g id="line2d_22"/>
    <g id="text_21">
     <!-- numpy.float64 -->
     <g transform="translate(1215.373437 117.676562)scale(0.1 -0.1)">
      <use xlink:href="#DejaVuSans-110"/>
      <use x="63.378906" xlink:href="#DejaVuSans-117"/>
      <use x="126.757812" xlink:href="#DejaVuSans-109"/>
      <use x="224.169922" xlink:href="#DejaVuSans-112"/>
      <use x="287.646484" xlink:href="#DejaVuSans-121"/>
      <use x="332.576172" xlink:href="#DejaVuSans-46"/>
      <use x="364.363281" xlink:href="#DejaVuSans-102"/>
      <use x="399.568359" xlink:href="#DejaVuSans-108"/>
      <use x="427.351562" xlink:href="#DejaVuSans-111"/>
      <use x="488.533203" xlink:href="#DejaVuSans-97"/>
      <use x="549.8125" xlink:href="#DejaVuSans-116"/>
      <use x="589.021484" xlink:href="#DejaVuSans-54"/>
      <use x="652.644531" xlink:href="#DejaVuSans-52"/>
     </g>
    </g>
   </g>
  </g>
 </g>
 <defs>
  <clipPath id="pf25422776b">
   <rect height="554.4" width="1116" x="180" y="86.4"/>
  </clipPath>
 </defs>
</svg>
