<?xml version="1.0" encoding="utf-8" standalone="no"?>
<!DOCTYPE svg PUBLIC "-//W3C//DTD SVG 1.1//EN"
  "http://www.w3.org/Graphics/SVG/1.1/DTD/svg11.dtd">
<!-- Created with matplotlib (https://matplotlib.org/) -->
<svg height="720pt" version="1.1" viewBox="0 0 1440 720" width="1440pt" xmlns="http://www.w3.org/2000/svg" xmlns:xlink="http://www.w3.org/1999/xlink">
 <defs>
  <style type="text/css">
*{stroke-linecap:butt;stroke-linejoin:round;}
  </style>
 </defs>
 <g id="figure_1">
  <g id="patch_1">
   <path d="M 0 720 
L 1440 720 
L 1440 0 
L 0 0 
z
" style="fill:#ffffff;"/>
  </g>
  <g id="axes_1">
   <g id="patch_2">
    <path d="M 180 640.8 
L 1296 640.8 
L 1296 86.4 
L 180 86.4 
z
" style="fill:#ffffff;"/>
   </g>
   <g id="matplotlib.axis_1">
    <g id="xtick_1">
     <g id="line2d_1">
      <defs>
       <path d="M 0 0 
L 0 3.5 
" id="mcae0b840b1" style="stroke:#000000;stroke-width:0.8;"/>
      </defs>
      <g>
       <use style="stroke:#000000;stroke-width:0.8;" x="333.310231" xlink:href="#mcae0b840b1" y="640.8"/>
      </g>
     </g>
     <g id="text_1">
      <!-- 100.0 -->
      <defs>
       <path d="M 12.40625 8.296875 
L 28.515625 8.296875 
L 28.515625 63.921875 
L 10.984375 60.40625 
L 10.984375 69.390625 
L 28.421875 72.90625 
L 38.28125 72.90625 
L 38.28125 8.296875 
L 54.390625 8.296875 
L 54.390625 0 
L 12.40625 0 
z
" id="DejaVuSans-49"/>
       <path d="M 31.78125 66.40625 
Q 24.171875 66.40625 20.328125 58.90625 
Q 16.5 51.421875 16.5 36.375 
Q 16.5 21.390625 20.328125 13.890625 
Q 24.171875 6.390625 31.78125 6.390625 
Q 39.453125 6.390625 43.28125 13.890625 
Q 47.125 21.390625 47.125 36.375 
Q 47.125 51.421875 43.28125 58.90625 
Q 39.453125 66.40625 31.78125 66.40625 
z
M 31.78125 74.21875 
Q 44.046875 74.21875 50.515625 64.515625 
Q 56.984375 54.828125 56.984375 36.375 
Q 56.984375 17.96875 50.515625 8.265625 
Q 44.046875 -1.421875 31.78125 -1.421875 
Q 19.53125 -1.421875 13.0625 8.265625 
Q 6.59375 17.96875 6.59375 36.375 
Q 6.59375 54.828125 13.0625 64.515625 
Q 19.53125 74.21875 31.78125 74.21875 
z
" id="DejaVuSans-48"/>
       <path d="M 10.6875 12.40625 
L 21 12.40625 
L 21 0 
L 10.6875 0 
z
" id="DejaVuSans-46"/>
      </defs>
      <g transform="translate(318.996168 655.398438)scale(0.1 -0.1)">
       <use xlink:href="#DejaVuSans-49"/>
       <use x="63.623047" xlink:href="#DejaVuSans-48"/>
       <use x="127.246094" xlink:href="#DejaVuSans-48"/>
       <use x="190.869141" xlink:href="#DejaVuSans-46"/>
       <use x="222.65625" xlink:href="#DejaVuSans-48"/>
      </g>
     </g>
    </g>
    <g id="xtick_2">
     <g id="line2d_2">
      <g>
       <use style="stroke:#000000;stroke-width:0.8;" x="435.893189" xlink:href="#mcae0b840b1" y="640.8"/>
      </g>
     </g>
     <g id="text_2">
      <!-- 200.0 -->
      <defs>
       <path d="M 19.1875 8.296875 
L 53.609375 8.296875 
L 53.609375 0 
L 7.328125 0 
L 7.328125 8.296875 
Q 12.9375 14.109375 22.625 23.890625 
Q 32.328125 33.6875 34.8125 36.53125 
Q 39.546875 41.84375 41.421875 45.53125 
Q 43.3125 49.21875 43.3125 52.78125 
Q 43.3125 58.59375 39.234375 62.25 
Q 35.15625 65.921875 28.609375 65.921875 
Q 23.96875 65.921875 18.8125 64.3125 
Q 13.671875 62.703125 7.8125 59.421875 
L 7.8125 69.390625 
Q 13.765625 71.78125 18.9375 73 
Q 24.125 74.21875 28.421875 74.21875 
Q 39.75 74.21875 46.484375 68.546875 
Q 53.21875 62.890625 53.21875 53.421875 
Q 53.21875 48.921875 51.53125 44.890625 
Q 49.859375 40.875 45.40625 35.40625 
Q 44.1875 33.984375 37.640625 27.21875 
Q 31.109375 20.453125 19.1875 8.296875 
z
" id="DejaVuSans-50"/>
      </defs>
      <g transform="translate(421.579126 655.398438)scale(0.1 -0.1)">
       <use xlink:href="#DejaVuSans-50"/>
       <use x="63.623047" xlink:href="#DejaVuSans-48"/>
       <use x="127.246094" xlink:href="#DejaVuSans-48"/>
       <use x="190.869141" xlink:href="#DejaVuSans-46"/>
       <use x="222.65625" xlink:href="#DejaVuSans-48"/>
      </g>
     </g>
    </g>
    <g id="xtick_3">
     <g id="line2d_3">
      <g>
       <use style="stroke:#000000;stroke-width:0.8;" x="538.476147" xlink:href="#mcae0b840b1" y="640.8"/>
      </g>
     </g>
     <g id="text_3">
      <!-- 300.0 -->
      <defs>
       <path d="M 40.578125 39.3125 
Q 47.65625 37.796875 51.625 33 
Q 55.609375 28.21875 55.609375 21.1875 
Q 55.609375 10.40625 48.1875 4.484375 
Q 40.765625 -1.421875 27.09375 -1.421875 
Q 22.515625 -1.421875 17.65625 -0.515625 
Q 12.796875 0.390625 7.625 2.203125 
L 7.625 11.71875 
Q 11.71875 9.328125 16.59375 8.109375 
Q 21.484375 6.890625 26.8125 6.890625 
Q 36.078125 6.890625 40.9375 10.546875 
Q 45.796875 14.203125 45.796875 21.1875 
Q 45.796875 27.640625 41.28125 31.265625 
Q 36.765625 34.90625 28.71875 34.90625 
L 20.21875 34.90625 
L 20.21875 43.015625 
L 29.109375 43.015625 
Q 36.375 43.015625 40.234375 45.921875 
Q 44.09375 48.828125 44.09375 54.296875 
Q 44.09375 59.90625 40.109375 62.90625 
Q 36.140625 65.921875 28.71875 65.921875 
Q 24.65625 65.921875 20.015625 65.03125 
Q 15.375 64.15625 9.8125 62.3125 
L 9.8125 71.09375 
Q 15.4375 72.65625 20.34375 73.4375 
Q 25.25 74.21875 29.59375 74.21875 
Q 40.828125 74.21875 47.359375 69.109375 
Q 53.90625 64.015625 53.90625 55.328125 
Q 53.90625 49.265625 50.4375 45.09375 
Q 46.96875 40.921875 40.578125 39.3125 
z
" id="DejaVuSans-51"/>
      </defs>
      <g transform="translate(524.162084 655.398438)scale(0.1 -0.1)">
       <use xlink:href="#DejaVuSans-51"/>
       <use x="63.623047" xlink:href="#DejaVuSans-48"/>
       <use x="127.246094" xlink:href="#DejaVuSans-48"/>
       <use x="190.869141" xlink:href="#DejaVuSans-46"/>
       <use x="222.65625" xlink:href="#DejaVuSans-48"/>
      </g>
     </g>
    </g>
    <g id="xtick_4">
     <g id="line2d_4">
      <g>
       <use style="stroke:#000000;stroke-width:0.8;" x="641.059105" xlink:href="#mcae0b840b1" y="640.8"/>
      </g>
     </g>
     <g id="text_4">
      <!-- 400.0 -->
      <defs>
       <path d="M 37.796875 64.3125 
L 12.890625 25.390625 
L 37.796875 25.390625 
z
M 35.203125 72.90625 
L 47.609375 72.90625 
L 47.609375 25.390625 
L 58.015625 25.390625 
L 58.015625 17.1875 
L 47.609375 17.1875 
L 47.609375 0 
L 37.796875 0 
L 37.796875 17.1875 
L 4.890625 17.1875 
L 4.890625 26.703125 
z
" id="DejaVuSans-52"/>
      </defs>
      <g transform="translate(626.745042 655.398438)scale(0.1 -0.1)">
       <use xlink:href="#DejaVuSans-52"/>
       <use x="63.623047" xlink:href="#DejaVuSans-48"/>
       <use x="127.246094" xlink:href="#DejaVuSans-48"/>
       <use x="190.869141" xlink:href="#DejaVuSans-46"/>
       <use x="222.65625" xlink:href="#DejaVuSans-48"/>
      </g>
     </g>
    </g>
    <g id="xtick_5">
     <g id="line2d_5">
      <g>
       <use style="stroke:#000000;stroke-width:0.8;" x="743.642063" xlink:href="#mcae0b840b1" y="640.8"/>
      </g>
     </g>
     <g id="text_5">
      <!-- 500.0 -->
      <defs>
       <path d="M 10.796875 72.90625 
L 49.515625 72.90625 
L 49.515625 64.59375 
L 19.828125 64.59375 
L 19.828125 46.734375 
Q 21.96875 47.46875 24.109375 47.828125 
Q 26.265625 48.1875 28.421875 48.1875 
Q 40.625 48.1875 47.75 41.5 
Q 54.890625 34.8125 54.890625 23.390625 
Q 54.890625 11.625 47.5625 5.09375 
Q 40.234375 -1.421875 26.90625 -1.421875 
Q 22.3125 -1.421875 17.546875 -0.640625 
Q 12.796875 0.140625 7.71875 1.703125 
L 7.71875 11.625 
Q 12.109375 9.234375 16.796875 8.0625 
Q 21.484375 6.890625 26.703125 6.890625 
Q 35.15625 6.890625 40.078125 11.328125 
Q 45.015625 15.765625 45.015625 23.390625 
Q 45.015625 31 40.078125 35.4375 
Q 35.15625 39.890625 26.703125 39.890625 
Q 22.75 39.890625 18.8125 39.015625 
Q 14.890625 38.140625 10.796875 36.28125 
z
" id="DejaVuSans-53"/>
      </defs>
      <g transform="translate(729.328 655.398438)scale(0.1 -0.1)">
       <use xlink:href="#DejaVuSans-53"/>
       <use x="63.623047" xlink:href="#DejaVuSans-48"/>
       <use x="127.246094" xlink:href="#DejaVuSans-48"/>
       <use x="190.869141" xlink:href="#DejaVuSans-46"/>
       <use x="222.65625" xlink:href="#DejaVuSans-48"/>
      </g>
     </g>
    </g>
    <g id="xtick_6">
     <g id="line2d_6">
      <g>
       <use style="stroke:#000000;stroke-width:0.8;" x="846.225021" xlink:href="#mcae0b840b1" y="640.8"/>
      </g>
     </g>
     <g id="text_6">
      <!-- 600.0 -->
      <defs>
       <path d="M 33.015625 40.375 
Q 26.375 40.375 22.484375 35.828125 
Q 18.609375 31.296875 18.609375 23.390625 
Q 18.609375 15.53125 22.484375 10.953125 
Q 26.375 6.390625 33.015625 6.390625 
Q 39.65625 6.390625 43.53125 10.953125 
Q 47.40625 15.53125 47.40625 23.390625 
Q 47.40625 31.296875 43.53125 35.828125 
Q 39.65625 40.375 33.015625 40.375 
z
M 52.59375 71.296875 
L 52.59375 62.3125 
Q 48.875 64.0625 45.09375 64.984375 
Q 41.3125 65.921875 37.59375 65.921875 
Q 27.828125 65.921875 22.671875 59.328125 
Q 17.53125 52.734375 16.796875 39.40625 
Q 19.671875 43.65625 24.015625 45.921875 
Q 28.375 48.1875 33.59375 48.1875 
Q 44.578125 48.1875 50.953125 41.515625 
Q 57.328125 34.859375 57.328125 23.390625 
Q 57.328125 12.15625 50.6875 5.359375 
Q 44.046875 -1.421875 33.015625 -1.421875 
Q 20.359375 -1.421875 13.671875 8.265625 
Q 6.984375 17.96875 6.984375 36.375 
Q 6.984375 53.65625 15.1875 63.9375 
Q 23.390625 74.21875 37.203125 74.21875 
Q 40.921875 74.21875 44.703125 73.484375 
Q 48.484375 72.75 52.59375 71.296875 
z
" id="DejaVuSans-54"/>
      </defs>
      <g transform="translate(831.910958 655.398438)scale(0.1 -0.1)">
       <use xlink:href="#DejaVuSans-54"/>
       <use x="63.623047" xlink:href="#DejaVuSans-48"/>
       <use x="127.246094" xlink:href="#DejaVuSans-48"/>
       <use x="190.869141" xlink:href="#DejaVuSans-46"/>
       <use x="222.65625" xlink:href="#DejaVuSans-48"/>
      </g>
     </g>
    </g>
    <g id="xtick_7">
     <g id="line2d_7">
      <g>
       <use style="stroke:#000000;stroke-width:0.8;" x="948.807979" xlink:href="#mcae0b840b1" y="640.8"/>
      </g>
     </g>
     <g id="text_7">
      <!-- 700.0 -->
      <defs>
       <path d="M 8.203125 72.90625 
L 55.078125 72.90625 
L 55.078125 68.703125 
L 28.609375 0 
L 18.3125 0 
L 43.21875 64.59375 
L 8.203125 64.59375 
z
" id="DejaVuSans-55"/>
      </defs>
      <g transform="translate(934.493916 655.398438)scale(0.1 -0.1)">
       <use xlink:href="#DejaVuSans-55"/>
       <use x="63.623047" xlink:href="#DejaVuSans-48"/>
       <use x="127.246094" xlink:href="#DejaVuSans-48"/>
       <use x="190.869141" xlink:href="#DejaVuSans-46"/>
       <use x="222.65625" xlink:href="#DejaVuSans-48"/>
      </g>
     </g>
    </g>
    <g id="xtick_8">
     <g id="line2d_8">
      <g>
       <use style="stroke:#000000;stroke-width:0.8;" x="1051.390937" xlink:href="#mcae0b840b1" y="640.8"/>
      </g>
     </g>
     <g id="text_8">
      <!-- 800.0 -->
      <defs>
       <path d="M 31.78125 34.625 
Q 24.75 34.625 20.71875 30.859375 
Q 16.703125 27.09375 16.703125 20.515625 
Q 16.703125 13.921875 20.71875 10.15625 
Q 24.75 6.390625 31.78125 6.390625 
Q 38.8125 6.390625 42.859375 10.171875 
Q 46.921875 13.96875 46.921875 20.515625 
Q 46.921875 27.09375 42.890625 30.859375 
Q 38.875 34.625 31.78125 34.625 
z
M 21.921875 38.8125 
Q 15.578125 40.375 12.03125 44.71875 
Q 8.5 49.078125 8.5 55.328125 
Q 8.5 64.0625 14.71875 69.140625 
Q 20.953125 74.21875 31.78125 74.21875 
Q 42.671875 74.21875 48.875 69.140625 
Q 55.078125 64.0625 55.078125 55.328125 
Q 55.078125 49.078125 51.53125 44.71875 
Q 48 40.375 41.703125 38.8125 
Q 48.828125 37.15625 52.796875 32.3125 
Q 56.78125 27.484375 56.78125 20.515625 
Q 56.78125 9.90625 50.3125 4.234375 
Q 43.84375 -1.421875 31.78125 -1.421875 
Q 19.734375 -1.421875 13.25 4.234375 
Q 6.78125 9.90625 6.78125 20.515625 
Q 6.78125 27.484375 10.78125 32.3125 
Q 14.796875 37.15625 21.921875 38.8125 
z
M 18.3125 54.390625 
Q 18.3125 48.734375 21.84375 45.5625 
Q 25.390625 42.390625 31.78125 42.390625 
Q 38.140625 42.390625 41.71875 45.5625 
Q 45.3125 48.734375 45.3125 54.390625 
Q 45.3125 60.0625 41.71875 63.234375 
Q 38.140625 66.40625 31.78125 66.40625 
Q 25.390625 66.40625 21.84375 63.234375 
Q 18.3125 60.0625 18.3125 54.390625 
z
" id="DejaVuSans-56"/>
      </defs>
      <g transform="translate(1037.076874 655.398438)scale(0.1 -0.1)">
       <use xlink:href="#DejaVuSans-56"/>
       <use x="63.623047" xlink:href="#DejaVuSans-48"/>
       <use x="127.246094" xlink:href="#DejaVuSans-48"/>
       <use x="190.869141" xlink:href="#DejaVuSans-46"/>
       <use x="222.65625" xlink:href="#DejaVuSans-48"/>
      </g>
     </g>
    </g>
    <g id="xtick_9">
     <g id="line2d_9">
      <g>
       <use style="stroke:#000000;stroke-width:0.8;" x="1153.973895" xlink:href="#mcae0b840b1" y="640.8"/>
      </g>
     </g>
     <g id="text_9">
      <!-- 900.0 -->
      <defs>
       <path d="M 10.984375 1.515625 
L 10.984375 10.5 
Q 14.703125 8.734375 18.5 7.8125 
Q 22.3125 6.890625 25.984375 6.890625 
Q 35.75 6.890625 40.890625 13.453125 
Q 46.046875 20.015625 46.78125 33.40625 
Q 43.953125 29.203125 39.59375 26.953125 
Q 35.25 24.703125 29.984375 24.703125 
Q 19.046875 24.703125 12.671875 31.3125 
Q 6.296875 37.9375 6.296875 49.421875 
Q 6.296875 60.640625 12.9375 67.421875 
Q 19.578125 74.21875 30.609375 74.21875 
Q 43.265625 74.21875 49.921875 64.515625 
Q 56.59375 54.828125 56.59375 36.375 
Q 56.59375 19.140625 48.40625 8.859375 
Q 40.234375 -1.421875 26.421875 -1.421875 
Q 22.703125 -1.421875 18.890625 -0.6875 
Q 15.09375 0.046875 10.984375 1.515625 
z
M 30.609375 32.421875 
Q 37.25 32.421875 41.125 36.953125 
Q 45.015625 41.5 45.015625 49.421875 
Q 45.015625 57.28125 41.125 61.84375 
Q 37.25 66.40625 30.609375 66.40625 
Q 23.96875 66.40625 20.09375 61.84375 
Q 16.21875 57.28125 16.21875 49.421875 
Q 16.21875 41.5 20.09375 36.953125 
Q 23.96875 32.421875 30.609375 32.421875 
z
" id="DejaVuSans-57"/>
      </defs>
      <g transform="translate(1139.659832 655.398438)scale(0.1 -0.1)">
       <use xlink:href="#DejaVuSans-57"/>
       <use x="63.623047" xlink:href="#DejaVuSans-48"/>
       <use x="127.246094" xlink:href="#DejaVuSans-48"/>
       <use x="190.869141" xlink:href="#DejaVuSans-46"/>
       <use x="222.65625" xlink:href="#DejaVuSans-48"/>
      </g>
     </g>
    </g>
    <g id="xtick_10">
     <g id="line2d_10">
      <g>
       <use style="stroke:#000000;stroke-width:0.8;" x="1256.556853" xlink:href="#mcae0b840b1" y="640.8"/>
      </g>
     </g>
     <g id="text_10">
      <!-- 1000.0 -->
      <g transform="translate(1239.06154 655.398438)scale(0.1 -0.1)">
       <use xlink:href="#DejaVuSans-49"/>
       <use x="63.623047" xlink:href="#DejaVuSans-48"/>
       <use x="127.246094" xlink:href="#DejaVuSans-48"/>
       <use x="190.869141" xlink:href="#DejaVuSans-48"/>
       <use x="254.492188" xlink:href="#DejaVuSans-46"/>
       <use x="286.279297" xlink:href="#DejaVuSans-48"/>
      </g>
     </g>
    </g>
    <g id="text_11">
     <!-- n -->
     <defs>
      <path d="M 54.890625 33.015625 
L 54.890625 0 
L 45.90625 0 
L 45.90625 32.71875 
Q 45.90625 40.484375 42.875 44.328125 
Q 39.84375 48.1875 33.796875 48.1875 
Q 26.515625 48.1875 22.3125 43.546875 
Q 18.109375 38.921875 18.109375 30.90625 
L 18.109375 0 
L 9.078125 0 
L 9.078125 54.6875 
L 18.109375 54.6875 
L 18.109375 46.1875 
Q 21.34375 51.125 25.703125 53.5625 
Q 30.078125 56 35.796875 56 
Q 45.21875 56 50.046875 50.171875 
Q 54.890625 44.34375 54.890625 33.015625 
z
" id="DejaVuSans-110"/>
     </defs>
     <g transform="translate(734.83125 669.076563)scale(0.1 -0.1)">
      <use xlink:href="#DejaVuSans-110"/>
     </g>
    </g>
   </g>
   <g id="matplotlib.axis_2">
    <g id="ytick_1">
     <g id="line2d_11">
      <defs>
       <path d="M 0 0 
L -3.5 0 
" id="mcb6f831f71" style="stroke:#000000;stroke-width:0.8;"/>
      </defs>
      <g>
       <use style="stroke:#000000;stroke-width:0.8;" x="180" xlink:href="#mcb6f831f71" y="627.93996"/>
      </g>
     </g>
     <g id="text_12">
      <!-- 0 -->
      <g transform="translate(166.6375 631.739179)scale(0.1 -0.1)">
       <use xlink:href="#DejaVuSans-48"/>
      </g>
     </g>
    </g>
    <g id="ytick_2">
     <g id="line2d_12">
      <g>
       <use style="stroke:#000000;stroke-width:0.8;" x="180" xlink:href="#mcb6f831f71" y="522.878753"/>
      </g>
     </g>
     <g id="text_13">
      <!-- 50 -->
      <g transform="translate(160.275 526.677971)scale(0.1 -0.1)">
       <use xlink:href="#DejaVuSans-53"/>
       <use x="63.623047" xlink:href="#DejaVuSans-48"/>
      </g>
     </g>
    </g>
    <g id="ytick_3">
     <g id="line2d_13">
      <g>
       <use style="stroke:#000000;stroke-width:0.8;" x="180" xlink:href="#mcb6f831f71" y="417.817545"/>
      </g>
     </g>
     <g id="text_14">
      <!-- 100 -->
      <g transform="translate(153.9125 421.616764)scale(0.1 -0.1)">
       <use xlink:href="#DejaVuSans-49"/>
       <use x="63.623047" xlink:href="#DejaVuSans-48"/>
       <use x="127.246094" xlink:href="#DejaVuSans-48"/>
      </g>
     </g>
    </g>
    <g id="ytick_4">
     <g id="line2d_14">
      <g>
       <use style="stroke:#000000;stroke-width:0.8;" x="180" xlink:href="#mcb6f831f71" y="312.756338"/>
      </g>
     </g>
     <g id="text_15">
      <!-- 150 -->
      <g transform="translate(153.9125 316.555557)scale(0.1 -0.1)">
       <use xlink:href="#DejaVuSans-49"/>
       <use x="63.623047" xlink:href="#DejaVuSans-53"/>
       <use x="127.246094" xlink:href="#DejaVuSans-48"/>
      </g>
     </g>
    </g>
    <g id="ytick_5">
     <g id="line2d_15">
      <g>
       <use style="stroke:#000000;stroke-width:0.8;" x="180" xlink:href="#mcb6f831f71" y="207.69513"/>
      </g>
     </g>
     <g id="text_16">
      <!-- 200 -->
      <g transform="translate(153.9125 211.494349)scale(0.1 -0.1)">
       <use xlink:href="#DejaVuSans-50"/>
       <use x="63.623047" xlink:href="#DejaVuSans-48"/>
       <use x="127.246094" xlink:href="#DejaVuSans-48"/>
      </g>
     </g>
    </g>
    <g id="ytick_6">
     <g id="line2d_16">
      <g>
       <use style="stroke:#000000;stroke-width:0.8;" x="180" xlink:href="#mcb6f831f71" y="102.633923"/>
      </g>
     </g>
     <g id="text_17">
      <!-- 250 -->
      <g transform="translate(153.9125 106.433142)scale(0.1 -0.1)">
       <use xlink:href="#DejaVuSans-50"/>
       <use x="63.623047" xlink:href="#DejaVuSans-53"/>
       <use x="127.246094" xlink:href="#DejaVuSans-48"/>
      </g>
     </g>
    </g>
    <g id="text_18">
     <!-- speedup -->
     <defs>
      <path d="M 44.28125 53.078125 
L 44.28125 44.578125 
Q 40.484375 46.53125 36.375 47.5 
Q 32.28125 48.484375 27.875 48.484375 
Q 21.1875 48.484375 17.84375 46.4375 
Q 14.5 44.390625 14.5 40.28125 
Q 14.5 37.15625 16.890625 35.375 
Q 19.28125 33.59375 26.515625 31.984375 
L 29.59375 31.296875 
Q 39.15625 29.25 43.1875 25.515625 
Q 47.21875 21.78125 47.21875 15.09375 
Q 47.21875 7.46875 41.1875 3.015625 
Q 35.15625 -1.421875 24.609375 -1.421875 
Q 20.21875 -1.421875 15.453125 -0.5625 
Q 10.6875 0.296875 5.421875 2 
L 5.421875 11.28125 
Q 10.40625 8.6875 15.234375 7.390625 
Q 20.0625 6.109375 24.8125 6.109375 
Q 31.15625 6.109375 34.5625 8.28125 
Q 37.984375 10.453125 37.984375 14.40625 
Q 37.984375 18.0625 35.515625 20.015625 
Q 33.0625 21.96875 24.703125 23.78125 
L 21.578125 24.515625 
Q 13.234375 26.265625 9.515625 29.90625 
Q 5.8125 33.546875 5.8125 39.890625 
Q 5.8125 47.609375 11.28125 51.796875 
Q 16.75 56 26.8125 56 
Q 31.78125 56 36.171875 55.265625 
Q 40.578125 54.546875 44.28125 53.078125 
z
" id="DejaVuSans-115"/>
      <path d="M 18.109375 8.203125 
L 18.109375 -20.796875 
L 9.078125 -20.796875 
L 9.078125 54.6875 
L 18.109375 54.6875 
L 18.109375 46.390625 
Q 20.953125 51.265625 25.265625 53.625 
Q 29.59375 56 35.59375 56 
Q 45.5625 56 51.78125 48.09375 
Q 58.015625 40.1875 58.015625 27.296875 
Q 58.015625 14.40625 51.78125 6.484375 
Q 45.5625 -1.421875 35.59375 -1.421875 
Q 29.59375 -1.421875 25.265625 0.953125 
Q 20.953125 3.328125 18.109375 8.203125 
z
M 48.6875 27.296875 
Q 48.6875 37.203125 44.609375 42.84375 
Q 40.53125 48.484375 33.40625 48.484375 
Q 26.265625 48.484375 22.1875 42.84375 
Q 18.109375 37.203125 18.109375 27.296875 
Q 18.109375 17.390625 22.1875 11.75 
Q 26.265625 6.109375 33.40625 6.109375 
Q 40.53125 6.109375 44.609375 11.75 
Q 48.6875 17.390625 48.6875 27.296875 
z
" id="DejaVuSans-112"/>
      <path d="M 56.203125 29.59375 
L 56.203125 25.203125 
L 14.890625 25.203125 
Q 15.484375 15.921875 20.484375 11.0625 
Q 25.484375 6.203125 34.421875 6.203125 
Q 39.59375 6.203125 44.453125 7.46875 
Q 49.3125 8.734375 54.109375 11.28125 
L 54.109375 2.78125 
Q 49.265625 0.734375 44.1875 -0.34375 
Q 39.109375 -1.421875 33.890625 -1.421875 
Q 20.796875 -1.421875 13.15625 6.1875 
Q 5.515625 13.8125 5.515625 26.8125 
Q 5.515625 40.234375 12.765625 48.109375 
Q 20.015625 56 32.328125 56 
Q 43.359375 56 49.78125 48.890625 
Q 56.203125 41.796875 56.203125 29.59375 
z
M 47.21875 32.234375 
Q 47.125 39.59375 43.09375 43.984375 
Q 39.0625 48.390625 32.421875 48.390625 
Q 24.90625 48.390625 20.390625 44.140625 
Q 15.875 39.890625 15.1875 32.171875 
z
" id="DejaVuSans-101"/>
      <path d="M 45.40625 46.390625 
L 45.40625 75.984375 
L 54.390625 75.984375 
L 54.390625 0 
L 45.40625 0 
L 45.40625 8.203125 
Q 42.578125 3.328125 38.25 0.953125 
Q 33.9375 -1.421875 27.875 -1.421875 
Q 17.96875 -1.421875 11.734375 6.484375 
Q 5.515625 14.40625 5.515625 27.296875 
Q 5.515625 40.1875 11.734375 48.09375 
Q 17.96875 56 27.875 56 
Q 33.9375 56 38.25 53.625 
Q 42.578125 51.265625 45.40625 46.390625 
z
M 14.796875 27.296875 
Q 14.796875 17.390625 18.875 11.75 
Q 22.953125 6.109375 30.078125 6.109375 
Q 37.203125 6.109375 41.296875 11.75 
Q 45.40625 17.390625 45.40625 27.296875 
Q 45.40625 37.203125 41.296875 42.84375 
Q 37.203125 48.484375 30.078125 48.484375 
Q 22.953125 48.484375 18.875 42.84375 
Q 14.796875 37.203125 14.796875 27.296875 
z
" id="DejaVuSans-100"/>
      <path d="M 8.5 21.578125 
L 8.5 54.6875 
L 17.484375 54.6875 
L 17.484375 21.921875 
Q 17.484375 14.15625 20.5 10.265625 
Q 23.53125 6.390625 29.59375 6.390625 
Q 36.859375 6.390625 41.078125 11.03125 
Q 45.3125 15.671875 45.3125 23.6875 
L 45.3125 54.6875 
L 54.296875 54.6875 
L 54.296875 0 
L 45.3125 0 
L 45.3125 8.40625 
Q 42.046875 3.421875 37.71875 1 
Q 33.40625 -1.421875 27.6875 -1.421875 
Q 18.265625 -1.421875 13.375 4.4375 
Q 8.5 10.296875 8.5 21.578125 
z
M 31.109375 56 
z
" id="DejaVuSans-117"/>
     </defs>
     <g transform="translate(147.832812 385.049219)rotate(-90)scale(0.1 -0.1)">
      <use xlink:href="#DejaVuSans-115"/>
      <use x="52.099609" xlink:href="#DejaVuSans-112"/>
      <use x="115.576172" xlink:href="#DejaVuSans-101"/>
      <use x="177.099609" xlink:href="#DejaVuSans-101"/>
      <use x="238.623047" xlink:href="#DejaVuSans-100"/>
      <use x="302.099609" xlink:href="#DejaVuSans-117"/>
      <use x="365.478516" xlink:href="#DejaVuSans-112"/>
     </g>
    </g>
   </g>
   <g id="line2d_17">
    <path clip-path="url(#p91ebff263d)" d="M 230.727273 185.601532 
L 231.753102 312.128394 
L 232.778932 162.17797 
L 233.804761 333.971656 
L 234.830591 204.11647 
L 235.856421 356.307981 
L 236.88225 224.318702 
L 237.90808 251.234159 
L 238.933909 410.623918 
L 239.959739 278.516948 
L 240.985569 267.436159 
L 243.037228 308.538499 
L 244.063057 299.183696 
L 245.088887 318.314384 
L 246.114716 327.153454 
L 247.140546 342.983672 
L 248.166376 342.075806 
L 249.192205 349.909847 
L 250.218035 356.546669 
L 251.243864 364.067317 
L 252.269694 366.062195 
L 253.295523 367.207626 
L 254.321353 371.478125 
L 255.347183 386.852189 
L 256.373012 388.008789 
L 257.398842 394.757668 
L 258.424671 404.669331 
L 259.450501 407.893849 
L 260.476331 408.586155 
L 261.50216 413.413798 
L 262.52799 419.346591 
L 263.553819 422.556487 
L 264.579649 427.287958 
L 265.605478 425.792818 
L 267.657138 435.355072 
L 268.682967 429.55441 
L 269.708797 447.818604 
L 270.734626 448.461489 
L 271.760456 446.993269 
L 272.786286 454.066441 
L 273.812115 449.438065 
L 274.837945 453.352398 
L 277.915433 461.579172 
L 278.941263 465.13657 
L 279.967093 471.512054 
L 280.992922 467.585358 
L 282.018752 473.229986 
L 283.044581 472.812689 
L 284.070411 474.849344 
L 285.09624 470.988482 
L 286.12207 474.87676 
L 287.1479 473.152395 
L 288.173729 480.2834 
L 289.199559 480.049067 
L 290.225388 482.475625 
L 291.251218 483.698571 
L 292.277048 477.470359 
L 293.302877 489.649865 
L 294.328707 488.381382 
L 295.354536 490.849358 
L 296.380366 492.573251 
L 297.406195 491.854904 
L 298.432025 496.295729 
L 299.457855 494.088759 
L 301.509514 500.446215 
L 302.535343 500.707205 
L 303.561173 501.569268 
L 304.587002 503.609553 
L 305.612832 502.159828 
L 306.638662 506.14755 
L 307.664491 508.929996 
L 308.690321 507.61468 
L 309.71615 509.830401 
L 311.76781 512.124692 
L 312.793639 510.034432 
L 313.819469 513.667058 
L 314.845298 515.047627 
L 315.871128 514.975505 
L 316.896957 516.442819 
L 317.922787 518.550359 
L 318.948617 516.655101 
L 319.974446 519.448239 
L 321.000276 519.58588 
L 322.026105 540.218815 
L 323.051935 522.212703 
L 324.077765 525.169102 
L 325.103594 522.351673 
L 326.129424 523.531549 
L 327.155253 526.636967 
L 328.181083 526.763763 
L 329.206912 528.482321 
L 330.232742 527.964216 
L 331.258572 529.240656 
L 332.284401 528.977522 
L 333.310231 558.8167 
L 334.33606 530.506021 
L 335.36189 533.21366 
L 337.413549 529.513628 
L 338.439379 532.614788 
L 339.465208 534.837413 
L 340.491038 533.346934 
L 341.516867 532.828618 
L 342.542697 538.789962 
L 343.568527 539.28412 
L 345.620186 542.867471 
L 346.646015 541.744503 
L 347.671845 539.627544 
L 348.697674 542.82018 
L 349.723504 546.841863 
L 350.749334 542.915224 
L 351.775163 543.832019 
L 353.826822 556.702111 
L 354.852652 545.668711 
L 355.878481 550.578984 
L 356.904311 545.910955 
L 357.930141 546.250963 
L 358.95597 545.033587 
L 359.9818 546.810911 
L 361.007629 545.8562 
L 362.033459 545.089777 
L 363.059289 546.40382 
L 364.085118 547.415907 
L 365.110948 543.64038 
L 366.136777 544.054008 
L 367.162607 552.677925 
L 368.188436 554.932905 
L 369.214266 522.671671 
L 370.240096 570.629986 
L 371.265925 551.550134 
L 372.291755 552.346618 
L 373.317584 549.447388 
L 374.343414 553.140364 
L 375.369243 553.37116 
L 376.395073 554.247411 
L 377.420903 554.596199 
L 378.446732 554.623354 
L 379.472562 552.955314 
L 380.498391 553.255959 
L 381.524221 556.037274 
L 382.550051 555.063626 
L 383.57588 555.955212 
L 384.60171 556.494006 
L 385.627539 557.68414 
L 386.653369 556.757753 
L 387.679198 557.627554 
L 388.705028 558.242076 
L 389.730858 557.241585 
L 390.756687 556.593821 
L 391.782517 559.021454 
L 392.808346 558.435374 
L 393.834176 558.636034 
L 394.860006 559.380448 
L 395.885835 560.353599 
L 396.911665 557.877059 
L 397.937494 560.094 
L 398.963324 561.179103 
L 399.989153 560.321089 
L 401.014983 560.482834 
L 402.040813 562.080189 
L 403.066642 560.417394 
L 404.092472 563.228845 
L 405.118301 561.677956 
L 406.144131 563.510629 
L 407.16996 561.098714 
L 408.19579 559.070401 
L 409.22162 563.124872 
L 410.247449 564.97844 
L 411.273279 565.504635 
L 412.299108 564.329226 
L 413.324938 561.831052 
L 414.350768 563.636102 
L 415.376597 564.754296 
L 416.402427 565.327432 
L 417.428256 566.299599 
L 418.454086 572.574291 
L 419.479915 563.992304 
L 420.505745 566.814817 
L 421.531575 567.413964 
L 422.557404 567.022102 
L 423.583234 566.985337 
L 424.609063 567.606054 
L 425.634893 566.396058 
L 427.686552 567.853712 
L 428.712382 569.397531 
L 429.738211 569.441586 
L 430.764041 568.587929 
L 431.78987 570.050364 
L 432.8157 569.123451 
L 433.84153 570.894987 
L 434.867359 571.359664 
L 435.893189 570.723494 
L 436.919018 569.66954 
L 437.944848 571.803309 
L 439.996507 571.409858 
L 441.022337 571.905632 
L 442.048166 576.00371 
L 443.073996 571.425772 
L 444.099825 572.988261 
L 445.125655 571.909892 
L 446.151485 577.957995 
L 447.177314 572.436136 
L 448.203144 571.858809 
L 449.228973 573.707072 
L 450.254803 573.350511 
L 451.280632 573.83002 
L 452.306462 574.018994 
L 453.332292 573.110964 
L 454.358121 573.635485 
L 455.383951 573.981741 
L 457.43561 575.008009 
L 458.461439 574.718212 
L 459.487269 574.739969 
L 460.513099 575.029496 
L 461.538928 575.678123 
L 462.564758 575.797308 
L 463.590587 574.83363 
L 464.616417 574.586824 
L 465.642247 576.214425 
L 466.668076 576.011197 
L 467.693906 580.792433 
L 468.719735 576.305367 
L 469.745565 575.262874 
L 471.797224 577.515726 
L 472.823054 577.079885 
L 473.848883 577.64153 
L 474.874713 576.694318 
L 475.900542 577.858605 
L 476.926372 578.470622 
L 477.952201 578.154663 
L 478.978031 578.502102 
L 480.003861 577.036291 
L 481.02969 578.979418 
L 482.05552 579.151201 
L 483.081349 579.459196 
L 484.107179 579.439755 
L 485.133009 578.771846 
L 487.184668 581.015329 
L 488.210497 580.617138 
L 489.236327 580.555144 
L 490.262156 579.800115 
L 492.313816 581.611006 
L 493.339645 584.934955 
L 494.365475 581.741886 
L 495.391304 581.12774 
L 496.417134 581.563628 
L 497.442964 582.343963 
L 498.468793 582.067944 
L 499.494623 581.54698 
L 500.520452 581.431318 
L 501.546282 582.499668 
L 502.572111 582.489655 
L 503.597941 582.982159 
L 504.623771 582.877874 
L 505.6496 580.665781 
L 506.67543 581.879884 
L 507.701259 583.732914 
L 508.727089 583.074883 
L 509.752918 582.866298 
L 510.778748 582.055201 
L 511.804578 586.102071 
L 512.830407 582.756285 
L 513.856237 582.504995 
L 514.882066 582.531171 
L 515.907896 582.220303 
L 516.933726 582.940223 
L 517.959555 583.452098 
L 518.985385 583.128262 
L 520.011214 583.407013 
L 521.037044 582.891515 
L 522.062873 583.905345 
L 523.088703 583.71354 
L 524.114533 584.513658 
L 525.140362 584.240067 
L 526.166192 584.944401 
L 528.217851 585.55128 
L 529.24368 588.655088 
L 530.26951 584.965076 
L 531.29534 584.443482 
L 532.321169 585.681136 
L 533.346999 585.736316 
L 534.372828 585.27223 
L 535.398658 585.747387 
L 536.424488 584.882932 
L 537.450317 586.290454 
L 538.476147 585.930019 
L 539.501976 586.181971 
L 540.527806 586.205753 
L 541.553635 585.134148 
L 542.579465 586.38235 
L 543.605295 586.067037 
L 544.631124 586.881151 
L 545.656954 589.749002 
L 546.682783 586.13436 
L 547.708613 587.282579 
L 548.734443 584.390598 
L 549.760272 594.721843 
L 550.786102 587.52488 
L 551.811931 587.321889 
L 552.837761 587.539549 
L 553.86359 587.459773 
L 554.88942 587.218688 
L 555.91525 586.644939 
L 556.941079 587.777135 
L 557.966909 587.933442 
L 561.044397 587.768817 
L 562.070227 588.233347 
L 563.096057 588.072082 
L 565.147716 589.739889 
L 566.173545 588.019595 
L 567.199375 588.909246 
L 568.225205 589.358406 
L 569.251034 588.812996 
L 570.276864 589.236217 
L 571.302693 588.329709 
L 572.328523 589.505276 
L 574.380182 589.019541 
L 575.406012 589.594395 
L 576.431841 589.316362 
L 577.457671 589.627821 
L 578.4835 589.39413 
L 579.50933 590.080128 
L 580.535159 588.430973 
L 581.560989 590.042485 
L 582.586819 590.237653 
L 583.612648 591.299392 
L 585.664307 590.026808 
L 587.715967 591.860283 
L 588.741796 590.748615 
L 589.767626 591.207461 
L 590.793455 594.837237 
L 591.819285 591.389676 
L 592.845114 591.411359 
L 593.870944 591.950496 
L 594.896774 590.983593 
L 595.922603 591.28406 
L 596.948433 591.90892 
L 599.000092 591.651581 
L 600.025922 591.107303 
L 601.051751 592.312989 
L 602.077581 592.617065 
L 604.12924 591.916994 
L 605.155069 592.332948 
L 606.180899 592.496095 
L 607.206729 592.296776 
L 608.232558 592.311672 
L 609.258388 591.847768 
L 610.284217 593.394435 
L 611.310047 593.207314 
L 612.335876 592.67668 
L 613.361706 593.144099 
L 614.387536 598.948571 
L 615.413365 593.059897 
L 616.439195 593.198322 
L 617.465024 594.750633 
L 618.490854 592.761838 
L 619.516684 593.328204 
L 620.542513 590.897798 
L 621.568343 593.426748 
L 622.594172 592.908815 
L 623.620002 593.765042 
L 624.645831 593.743902 
L 625.671661 592.860947 
L 626.697491 593.935371 
L 627.72332 594.085119 
L 630.800809 594.137562 
L 631.826638 593.566309 
L 632.852468 594.339127 
L 633.878298 594.576695 
L 634.904127 594.184653 
L 635.929957 594.576546 
L 637.981616 594.056337 
L 639.007446 594.475827 
L 640.033275 594.669129 
L 641.059105 600.276867 
L 642.084934 595.090677 
L 643.110764 595.23813 
L 644.136593 595.778831 
L 645.162423 594.933576 
L 647.214082 595.920635 
L 648.239912 596.117634 
L 649.265741 595.232436 
L 652.34323 595.827553 
L 654.394889 595.595169 
L 655.420719 596.053402 
L 656.446548 595.496777 
L 657.472378 595.772196 
L 658.498208 602.004346 
L 659.524037 595.869029 
L 660.549867 596.064381 
L 661.575696 596.078049 
L 662.601526 595.348981 
L 663.627355 596.200648 
L 664.653185 596.242236 
L 665.679015 596.060713 
L 666.704844 595.56067 
L 668.756503 596.45001 
L 669.782333 596.349081 
L 670.808163 595.805703 
L 671.833992 595.661498 
L 672.859822 596.449109 
L 673.885651 596.74444 
L 674.911481 596.728819 
L 675.93731 595.826364 
L 676.96314 596.654799 
L 677.98897 596.789376 
L 679.014799 586.492101 
L 680.040629 607.98776 
L 681.066458 596.80556 
L 682.092288 596.85052 
L 683.118117 596.774942 
L 684.143947 596.458222 
L 685.169777 597.004932 
L 686.195606 597.061132 
L 687.221436 596.98398 
L 688.247265 596.759507 
L 689.273095 597.288161 
L 691.324754 597.610219 
L 692.350584 598.814452 
L 693.376413 602.397408 
L 694.402243 597.921909 
L 696.453902 597.956678 
L 697.479732 596.94634 
L 698.505561 597.931965 
L 700.55722 597.497565 
L 701.58305 597.465953 
L 702.608879 597.926285 
L 704.660539 598.138139 
L 705.686368 598.007542 
L 706.712198 598.207983 
L 707.738027 598.154886 
L 708.763857 598.277825 
L 709.789687 598.518596 
L 710.815516 597.848327 
L 711.841346 598.718893 
L 712.867175 598.690607 
L 713.893005 599.47007 
L 714.918834 599.100768 
L 715.944664 598.28499 
L 716.970494 596.843699 
L 717.996323 598.81546 
L 719.022153 597.753038 
L 720.047982 598.641217 
L 721.073812 598.816376 
L 723.125471 597.975739 
L 724.151301 598.772483 
L 725.17713 599.193349 
L 726.20296 599.189105 
L 727.228789 598.99279 
L 728.254619 598.986902 
L 729.280449 599.153181 
L 730.306278 599.179339 
L 731.332108 599.373043 
L 732.357937 599.299263 
L 733.383767 599.458758 
L 734.409596 599.398044 
L 735.435426 599.466643 
L 736.461256 603.626337 
L 737.487085 599.355919 
L 738.512915 599.632058 
L 740.564574 599.50275 
L 741.590404 602.572512 
L 742.616233 599.979634 
L 743.642063 599.845949 
L 744.667892 599.479292 
L 745.693722 599.820209 
L 746.719551 600.308371 
L 747.745381 600.253789 
L 748.771211 599.893182 
L 749.79704 600.315762 
L 750.82287 600.309302 
L 751.848699 600.464533 
L 752.874529 599.842268 
L 753.900358 600.249541 
L 754.926188 600.32374 
L 755.952018 600.279837 
L 756.977847 605.293037 
L 758.003677 600.679038 
L 759.029506 599.816724 
L 760.055336 601.957102 
L 761.081166 601.950547 
L 762.106995 600.612394 
L 764.158654 600.945664 
L 765.184484 600.862806 
L 766.210313 601.107925 
L 767.236143 600.919921 
L 769.287802 601.045186 
L 770.313632 600.894509 
L 771.339461 600.939955 
L 772.365291 600.411064 
L 773.391121 600.952545 
L 774.41695 601.082248 
L 775.44278 601.002094 
L 776.468609 602.979959 
L 777.494439 601.31151 
L 779.546098 601.479944 
L 780.571928 602.08824 
L 782.623587 601.498175 
L 783.649416 601.58228 
L 784.675246 602.864063 
L 785.701075 601.690074 
L 786.726905 601.393354 
L 787.752735 601.862945 
L 789.804394 601.546694 
L 790.830223 601.66346 
L 791.856053 601.281327 
L 792.881883 601.687586 
L 793.907712 603.047858 
L 794.933542 602.002097 
L 795.959371 601.461416 
L 796.985201 601.819213 
L 799.03686 601.730735 
L 800.06269 604.791102 
L 801.088519 602.050877 
L 802.114349 600.74536 
L 803.140178 601.52818 
L 804.166008 604.353942 
L 805.191837 602.074766 
L 806.217667 602.109942 
L 807.243497 601.553792 
L 808.269326 601.945717 
L 809.295156 602.184919 
L 810.320985 602.018018 
L 811.346815 604.506539 
L 812.372645 602.142488 
L 813.398474 603.428616 
L 814.424304 602.013548 
L 815.450133 602.471245 
L 816.475963 602.371832 
L 817.501792 602.67956 
L 818.527622 601.78513 
L 819.553452 602.690675 
L 820.579281 602.520827 
L 821.605111 602.595019 
L 822.63094 605.763283 
L 823.65677 602.704828 
L 824.6826 603.847106 
L 825.708429 603.878484 
L 826.734259 603.041058 
L 827.760088 603.059222 
L 828.785918 602.883347 
L 829.811747 602.945906 
L 831.863407 602.700806 
L 832.889236 602.905062 
L 833.915066 602.427193 
L 834.940895 603.432657 
L 835.966725 603.212513 
L 836.992554 602.84343 
L 838.018384 602.5956 
L 839.044214 602.904973 
L 840.070043 602.851727 
L 841.095873 603.10288 
L 842.121702 602.466572 
L 843.147532 603.993747 
L 844.173362 603.154595 
L 845.199191 603.147932 
L 846.225021 606.006999 
L 847.25085 602.820155 
L 848.27668 603.036008 
L 852.379998 603.044322 
L 853.405828 602.831537 
L 854.431657 603.113302 
L 855.457487 603.047678 
L 856.483316 604.07391 
L 857.509146 602.918892 
L 858.534976 603.55177 
L 859.560805 603.555734 
L 860.586635 601.01354 
L 861.612464 606.346674 
L 862.638294 603.142942 
L 863.664124 603.61082 
L 864.689953 603.147124 
L 865.715783 603.997704 
L 866.741612 603.881387 
L 867.767442 603.891469 
L 868.793271 603.516324 
L 869.819101 603.923413 
L 870.844931 605.938191 
L 871.87076 603.931989 
L 872.89659 603.482169 
L 873.922419 604.167267 
L 874.948249 604.131655 
L 875.974078 603.662003 
L 876.999908 603.911393 
L 878.025738 604.61008 
L 880.077397 603.716322 
L 881.103226 604.205351 
L 882.129056 605.332109 
L 883.154886 603.978019 
L 884.180715 604.258793 
L 885.206545 603.849787 
L 886.232374 604.344447 
L 887.258204 603.960331 
L 888.284033 604.345329 
L 889.309863 604.378291 
L 890.335693 604.566268 
L 891.361522 604.29156 
L 892.387352 604.482871 
L 893.413181 604.548865 
L 894.439011 603.910402 
L 895.464841 604.428451 
L 897.5165 604.54849 
L 898.542329 604.32333 
L 899.568159 604.447873 
L 900.593988 606.804649 
L 901.619818 604.044097 
L 902.645648 604.471843 
L 903.671477 604.705067 
L 904.697307 604.500662 
L 905.723136 604.423513 
L 907.774795 604.682446 
L 908.800625 604.94434 
L 909.826455 604.628622 
L 910.852284 604.623582 
L 911.878114 604.352041 
L 912.903943 604.659483 
L 914.955603 604.256572 
L 915.981432 604.548027 
L 917.007262 604.717584 
L 918.033091 605.386413 
L 919.058921 607.414247 
L 920.08475 598.985167 
L 921.11058 604.505997 
L 922.13641 605.238175 
L 923.162239 604.767095 
L 924.188069 604.88501 
L 925.213898 605.223116 
L 926.239728 604.988332 
L 927.265557 604.932532 
L 928.291387 605.167744 
L 929.317217 605.100119 
L 930.343046 605.383694 
L 931.368876 605.35583 
L 932.394705 605.112496 
L 933.420535 605.439505 
L 934.446365 605.437029 
L 936.498024 605.667589 
L 939.575512 605.374922 
L 940.601342 605.556556 
L 941.627172 606.334177 
L 942.653001 605.040724 
L 943.678831 605.381408 
L 944.70466 605.518416 
L 948.807979 605.442957 
L 949.833808 605.078087 
L 950.859638 606.085182 
L 951.885467 605.780071 
L 952.911297 605.265023 
L 953.937127 605.533602 
L 954.962956 605.612543 
L 955.988786 605.473914 
L 957.014615 605.480038 
L 958.040445 605.637198 
L 959.066274 605.659197 
L 960.092104 605.487106 
L 961.117934 605.675278 
L 962.143763 605.627292 
L 963.169593 605.211432 
L 964.195422 605.753481 
L 965.221252 605.575457 
L 966.247082 606.105546 
L 969.32457 605.147323 
L 970.3504 605.776089 
L 971.376229 605.49219 
L 972.402059 605.348095 
L 973.427889 606.358265 
L 974.453718 605.570086 
L 975.479548 605.532846 
L 976.505377 608.794157 
L 977.531207 605.524617 
L 978.557036 606.204486 
L 979.582866 605.168838 
L 980.608696 605.654573 
L 982.660355 605.545802 
L 983.686184 605.635357 
L 986.763673 605.314607 
L 987.789503 606.169633 
L 988.815332 605.303848 
L 989.841162 604.285478 
L 990.866991 606.781321 
L 991.892821 606.730193 
L 992.918651 606.990695 
L 993.94448 605.877205 
L 994.97031 605.816153 
L 995.996139 604.698722 
L 997.021969 608.730852 
L 998.047799 606.045431 
L 999.073628 604.371555 
L 1000.099458 605.552344 
L 1001.125287 605.952615 
L 1002.151117 605.947525 
L 1003.176946 605.388042 
L 1004.202776 605.927995 
L 1005.228606 605.023984 
L 1006.254435 612.3644 
L 1007.280265 605.279054 
L 1008.306094 605.35249 
L 1009.331924 603.205738 
L 1010.357753 605.411028 
L 1011.383583 604.952126 
L 1012.409413 602.499685 
L 1013.435242 605.287689 
L 1014.461072 605.591632 
L 1015.486901 602.705404 
L 1016.512731 605.566224 
L 1017.538561 605.507759 
L 1018.56439 603.191721 
L 1019.59022 605.417911 
L 1020.616049 605.709158 
L 1021.641879 604.152213 
L 1022.667708 607.080839 
L 1023.693538 605.702199 
L 1024.719368 602.944157 
L 1025.745197 606.401414 
L 1026.771027 606.676633 
L 1027.796856 604.306108 
L 1028.822686 609.160877 
L 1030.874345 606.169257 
L 1031.900175 608.504113 
L 1032.926004 606.369014 
L 1033.951834 606.171391 
L 1034.977663 609.754923 
L 1036.003493 606.281085 
L 1037.029323 606.900465 
L 1038.055152 603.852844 
L 1039.080982 606.453883 
L 1040.106811 606.594603 
L 1041.132641 603.988452 
L 1042.15847 603.847752 
L 1043.1843 606.14383 
L 1044.21013 605.414698 
L 1045.235959 606.734044 
L 1046.261789 606.115395 
L 1047.287618 605.975627 
L 1048.313448 606.151316 
L 1049.339278 605.9554 
L 1050.365107 606.187461 
L 1051.390937 606.020911 
L 1052.416766 605.738526 
L 1054.468425 606.27718 
L 1055.494255 606.140983 
L 1057.545914 606.098122 
L 1058.571744 608.961106 
L 1059.597573 606.533546 
L 1060.623403 606.163575 
L 1061.649232 607.098329 
L 1063.700892 607.168097 
L 1064.726721 607.080975 
L 1065.752551 607.2482 
L 1066.77838 607.291415 
L 1067.80421 607.12291 
L 1068.83004 607.293368 
L 1069.855869 607.039869 
L 1071.907528 607.27353 
L 1073.959187 607.21343 
L 1074.985017 607.299665 
L 1076.010847 606.926137 
L 1077.036676 607.270259 
L 1078.062506 607.190372 
L 1079.088335 606.41073 
L 1080.114165 606.869343 
L 1081.139994 607.180611 
L 1082.165824 607.243502 
L 1083.191654 608.449287 
L 1084.217483 608.147922 
L 1085.243313 608.355166 
L 1087.294972 608.211142 
L 1088.320802 608.217107 
L 1089.346631 608.351416 
L 1092.42412 608.429702 
L 1093.449949 608.522297 
L 1094.475779 608.955623 
L 1095.501609 608.443081 
L 1096.527438 608.510456 
L 1097.553268 609.057866 
L 1098.579097 608.550319 
L 1099.604927 608.642631 
L 1100.630757 608.533532 
L 1102.682416 608.513642 
L 1103.708245 608.160402 
L 1104.734075 608.593426 
L 1105.759904 608.307878 
L 1106.785734 608.537015 
L 1107.811564 608.1898 
L 1108.837393 608.455605 
L 1109.863223 608.573477 
L 1113.966541 608.563922 
L 1114.992371 607.742634 
L 1116.0182 608.717873 
L 1117.04403 615.6 
L 1118.069859 609.477687 
L 1119.095689 608.856549 
L 1121.147348 608.865956 
L 1122.173178 608.931647 
L 1123.199007 609.306582 
L 1124.224837 608.718915 
L 1125.250666 608.885108 
L 1127.302326 608.842701 
L 1128.328155 609.296659 
L 1129.353985 608.713487 
L 1130.379814 608.811339 
L 1131.405644 608.758478 
L 1132.431473 610.269876 
L 1133.457303 607.040506 
L 1134.483133 608.742871 
L 1135.508962 608.770635 
L 1136.534792 610.06967 
L 1137.560621 610.715 
L 1138.586451 608.855286 
L 1139.612281 609.158539 
L 1140.63811 609.166703 
L 1141.66394 608.888072 
L 1142.689769 608.42865 
L 1143.715599 608.374579 
L 1144.741428 608.546846 
L 1145.767258 609.313517 
L 1146.793088 608.787412 
L 1147.818917 608.635981 
L 1148.844747 608.731947 
L 1149.870576 608.554201 
L 1150.896406 608.694265 
L 1152.948065 608.464295 
L 1153.973895 609.204865 
L 1154.999724 608.651404 
L 1156.025554 608.523792 
L 1157.051383 608.73961 
L 1160.128872 608.511995 
L 1161.154702 608.571266 
L 1162.180531 609.08044 
L 1163.206361 608.560808 
L 1165.25802 608.703798 
L 1166.28385 608.606965 
L 1167.309679 608.693609 
L 1168.335509 608.621564 
L 1174.490486 608.801856 
L 1175.516316 608.70991 
L 1178.593805 608.955089 
L 1179.619634 610.136095 
L 1180.645464 608.976717 
L 1181.671293 609.094752 
L 1182.697123 608.706088 
L 1183.722952 608.993043 
L 1184.748782 608.890811 
L 1185.774612 608.974533 
L 1186.800441 609.509635 
L 1187.826271 608.933559 
L 1188.8521 608.881795 
L 1190.90376 609.042194 
L 1193.981248 608.92355 
L 1195.007078 609.018243 
L 1196.032907 608.931312 
L 1197.058737 609.01622 
L 1198.084567 609.624709 
L 1199.110396 608.927522 
L 1200.136226 608.899561 
L 1201.162055 609.001153 
L 1202.187885 608.712905 
L 1203.213714 608.978589 
L 1204.239544 608.604703 
L 1205.265374 609.048089 
L 1209.368692 609.070452 
L 1210.394522 608.954409 
L 1211.420351 609.122147 
L 1212.446181 608.56946 
L 1213.47201 609.126558 
L 1214.49784 611.018437 
L 1215.523669 609.028494 
L 1216.549499 608.928584 
L 1217.575329 608.990824 
L 1218.601158 608.932789 
L 1219.626988 609.138881 
L 1220.652817 608.958511 
L 1221.678647 609.111612 
L 1224.756136 609.066918 
L 1225.781965 609.166017 
L 1226.807795 609.13328 
L 1227.833624 609.268581 
L 1228.859454 609.103294 
L 1230.911113 609.225659 
L 1232.962772 609.107556 
L 1233.988602 609.1869 
L 1235.014431 609.053589 
L 1236.040261 609.216577 
L 1237.066091 609.526566 
L 1238.09192 609.282956 
L 1239.11775 609.930131 
L 1240.143579 609.405366 
L 1241.169409 609.561815 
L 1243.221068 609.494137 
L 1244.246898 609.513492 
L 1245.272727 609.30068 
L 1245.272727 609.30068 
" style="fill:none;stroke:#1f77b4;stroke-linecap:square;stroke-width:1.5;"/>
   </g>
   <g id="line2d_18">
    <path clip-path="url(#p91ebff263d)" d="M 230.727273 111.6 
L 231.753102 145.912598 
L 232.778932 154.128763 
L 233.804761 177.337106 
L 234.830591 187.576789 
L 235.856421 212.936576 
L 236.88225 229.102495 
L 237.90808 196.980118 
L 238.933909 192.0474 
L 239.959739 238.238287 
L 240.985569 263.572966 
L 242.011398 258.864425 
L 243.037228 221.352237 
L 244.063057 296.671449 
L 246.114716 266.537035 
L 247.140546 436.495914 
L 248.166376 312.362106 
L 249.192205 286.821107 
L 250.218035 287.880633 
L 251.243864 260.090295 
L 252.269694 180.553337 
L 253.295523 313.648733 
L 254.321353 323.024309 
L 255.347183 323.385846 
L 256.373012 341.171524 
L 257.398842 336.050787 
L 258.424671 343.514729 
L 259.450501 321.904126 
L 260.476331 338.988566 
L 261.50216 335.203505 
L 262.52799 344.75433 
L 263.553819 330.514776 
L 264.579649 355.647545 
L 265.605478 367.270228 
L 266.631308 332.554434 
L 267.657138 381.691424 
L 268.682967 376.581022 
L 269.708797 381.196646 
L 270.734626 375.639575 
L 271.760456 383.593647 
L 272.786286 385.796822 
L 273.812115 398.03085 
L 274.837945 375.131333 
L 275.863774 389.372231 
L 276.889604 395.298694 
L 277.915433 372.475562 
L 278.941263 397.284063 
L 279.967093 397.049543 
L 282.018752 377.191453 
L 283.044581 406.174968 
L 284.070411 397.874762 
L 285.09624 430.726634 
L 286.12207 408.200962 
L 287.1479 409.115366 
L 288.173729 412.819423 
L 289.199559 414.782405 
L 290.225388 427.126949 
L 291.251218 423.508645 
L 292.277048 430.816961 
L 293.302877 412.068407 
L 294.328707 421.023288 
L 295.354536 433.573669 
L 296.380366 430.468755 
L 297.406195 429.483423 
L 298.432025 413.761511 
L 299.457855 428.853065 
L 300.483684 435.240044 
L 301.509514 422.832293 
L 302.535343 448.777596 
L 304.587002 425.808751 
L 305.612832 447.016859 
L 306.638662 446.006269 
L 307.664491 486.046328 
L 308.690321 447.881731 
L 309.71615 433.720984 
L 311.76781 441.869599 
L 312.793639 449.968724 
L 313.819469 443.863064 
L 314.845298 453.949966 
L 315.871128 440.327695 
L 316.896957 461.151345 
L 317.922787 465.913609 
L 318.948617 447.88194 
L 319.974446 462.151091 
L 321.000276 461.138406 
L 322.026105 463.116628 
L 323.051935 476.001073 
L 324.077765 470.88604 
L 325.103594 461.159644 
L 326.129424 455.794986 
L 327.155253 481.065021 
L 328.181083 471.715749 
L 329.206912 466.304921 
L 330.232742 468.377366 
L 331.258572 479.413099 
L 332.284401 472.792763 
L 333.310231 476.01555 
L 334.33606 487.44813 
L 335.36189 492.957279 
L 336.387719 484.631607 
L 337.413549 480.907792 
L 338.439379 482.66935 
L 339.465208 476.040322 
L 340.491038 478.105331 
L 341.516867 483.406314 
L 342.542697 485.37544 
L 343.568527 474.248103 
L 344.594356 473.596569 
L 345.620186 515.508515 
L 346.646015 481.115919 
L 347.671845 477.315929 
L 349.723504 488.998049 
L 350.749334 481.90594 
L 351.775163 480.903369 
L 352.800993 480.415946 
L 353.826822 486.023373 
L 354.852652 497.615365 
L 355.878481 503.397451 
L 356.904311 493.84444 
L 357.930141 489.56484 
L 358.95597 506.63933 
L 359.9818 488.703063 
L 361.007629 496.453027 
L 362.033459 498.428921 
L 363.059289 494.441893 
L 364.085118 494.945666 
L 365.110948 491.916831 
L 366.136777 500.208844 
L 367.162607 496.020485 
L 368.188436 499.532829 
L 369.214266 502.13978 
L 370.240096 498.967322 
L 371.265925 498.890192 
L 372.291755 499.218414 
L 373.317584 497.672346 
L 374.343414 499.575819 
L 375.369243 500.955949 
L 376.395073 501.734196 
L 377.420903 500.401511 
L 378.446732 503.687761 
L 379.472562 503.136643 
L 380.498391 507.574924 
L 381.524221 505.043896 
L 382.550051 509.373086 
L 383.57588 505.63131 
L 384.60171 504.719496 
L 385.627539 508.880891 
L 386.653369 511.208078 
L 387.679198 510.378846 
L 388.705028 510.278375 
L 389.730858 513.520992 
L 390.756687 504.933975 
L 391.782517 510.111374 
L 392.808346 514.0311 
L 393.834176 514.508918 
L 394.860006 515.255995 
L 395.885835 514.87612 
L 396.911665 515.679974 
L 397.937494 515.56348 
L 398.963324 514.595804 
L 399.989153 532.628344 
L 401.014983 515.123869 
L 402.040813 513.0359 
L 403.066642 521.449159 
L 404.092472 513.809052 
L 405.118301 521.05706 
L 406.144131 518.102595 
L 408.19579 517.117356 
L 409.22162 521.787055 
L 410.247449 519.69853 
L 412.299108 523.330146 
L 413.324938 526.631427 
L 414.350768 522.763553 
L 415.376597 523.218625 
L 416.402427 520.405662 
L 417.428256 524.812818 
L 418.454086 523.293325 
L 419.479915 524.447201 
L 420.505745 525.108601 
L 421.531575 526.616057 
L 422.557404 527.070305 
L 423.583234 527.977235 
L 424.609063 522.739493 
L 425.634893 525.643429 
L 426.660722 526.603469 
L 427.686552 529.457704 
L 428.712382 527.60097 
L 429.738211 530.168693 
L 430.764041 528.466953 
L 431.78987 531.901898 
L 432.8157 528.768749 
L 433.84153 528.969479 
L 434.867359 529.955151 
L 435.893189 531.718337 
L 436.919018 532.39984 
L 438.970677 532.658624 
L 439.996507 533.341953 
L 441.022337 535.35253 
L 442.048166 530.63107 
L 443.073996 536.725557 
L 444.099825 533.828398 
L 445.125655 532.061093 
L 446.151485 532.935625 
L 447.177314 537.442874 
L 448.203144 532.940359 
L 449.228973 533.492028 
L 450.254803 536.777446 
L 451.280632 538.423272 
L 452.306462 547.123174 
L 453.332292 539.469284 
L 454.358121 539.270637 
L 455.383951 542.220632 
L 456.40978 535.844456 
L 457.43561 537.488136 
L 458.461439 536.10243 
L 459.487269 536.584715 
L 460.513099 540.959898 
L 461.538928 541.999946 
L 462.564758 541.678949 
L 463.590587 539.638334 
L 464.616417 538.87749 
L 465.642247 539.00306 
L 466.668076 540.058907 
L 467.693906 541.434505 
L 468.719735 541.262011 
L 469.745565 542.012414 
L 470.771394 541.778716 
L 471.797224 543.770393 
L 472.823054 543.184985 
L 473.848883 544.298947 
L 474.874713 546.517243 
L 475.900542 545.53715 
L 476.926372 548.09496 
L 477.952201 557.57332 
L 478.978031 546.596573 
L 480.003861 547.193722 
L 481.02969 549.191858 
L 482.05552 548.39136 
L 483.081349 547.432034 
L 484.107179 549.701954 
L 485.133009 550.366992 
L 486.158838 548.990585 
L 487.184668 551.022531 
L 488.210497 551.542692 
L 490.262156 551.384174 
L 491.287986 551.700036 
L 492.313816 551.781878 
L 493.339645 552.323219 
L 494.365475 552.60126 
L 495.391304 553.413266 
L 496.417134 552.705276 
L 497.442964 553.657123 
L 498.468793 553.226456 
L 499.494623 553.946854 
L 500.520452 555.218354 
L 501.546282 552.743276 
L 502.572111 555.338048 
L 503.597941 554.595413 
L 504.623771 555.690416 
L 505.6496 557.256334 
L 506.67543 553.486961 
L 507.701259 554.759479 
L 508.727089 554.48295 
L 509.752918 554.477301 
L 510.778748 555.931679 
L 511.804578 555.863679 
L 512.830407 552.21498 
L 513.856237 559.742589 
L 514.882066 553.219985 
L 515.907896 554.549225 
L 516.933726 553.883757 
L 517.959555 557.318245 
L 518.985385 554.92613 
L 520.011214 555.137324 
L 522.062873 554.879939 
L 523.088703 558.713799 
L 524.114533 558.487962 
L 525.140362 549.51412 
L 526.166192 550.791926 
L 527.192021 552.956145 
L 528.217851 553.242534 
L 529.24368 562.719261 
L 530.26951 550.742376 
L 531.29534 553.389527 
L 532.321169 553.880009 
L 533.346999 554.738048 
L 534.372828 555.186529 
L 535.398658 555.047749 
L 536.424488 555.543463 
L 537.450317 557.028932 
L 538.476147 556.671887 
L 539.501976 565.727435 
L 540.527806 556.870064 
L 542.579465 555.795994 
L 543.605295 557.103328 
L 544.631124 557.134527 
L 545.656954 556.408599 
L 546.682783 557.979455 
L 547.708613 558.850549 
L 548.734443 559.102302 
L 549.760272 556.87959 
L 550.786102 557.561852 
L 551.811931 559.045364 
L 552.837761 561.133156 
L 553.86359 559.641072 
L 554.88942 560.187631 
L 555.91525 559.039498 
L 556.941079 561.247001 
L 557.966909 568.227032 
L 558.992738 561.375548 
L 560.018568 558.654709 
L 561.044397 559.870601 
L 562.070227 561.547078 
L 563.096057 561.216562 
L 564.121886 560.013277 
L 565.147716 561.177924 
L 566.173545 559.238789 
L 567.199375 560.871344 
L 568.225205 561.043016 
L 569.251034 562.430912 
L 570.276864 562.432166 
L 571.302693 562.969829 
L 572.328523 561.904226 
L 573.354352 569.974537 
L 574.380182 562.770782 
L 575.406012 562.386058 
L 576.431841 563.812408 
L 577.457671 564.105037 
L 578.4835 564.774252 
L 579.50933 563.381832 
L 580.535159 563.594703 
L 581.560989 563.289359 
L 582.586819 564.349883 
L 583.612648 564.170948 
L 584.638478 575.634396 
L 585.664307 563.763937 
L 586.690137 563.85753 
L 587.715967 565.141363 
L 588.741796 565.947775 
L 589.767626 566.304919 
L 590.793455 565.7682 
L 591.819285 566.283193 
L 592.845114 565.48078 
L 593.870944 566.048363 
L 594.896774 565.810843 
L 595.922603 567.113745 
L 596.948433 566.383065 
L 597.974262 566.221637 
L 599.000092 567.831922 
L 600.025922 567.97897 
L 601.051751 580.261628 
L 602.077581 567.300069 
L 603.10341 593.263882 
L 604.12924 567.801896 
L 605.155069 567.812768 
L 606.180899 567.412512 
L 607.206729 570.658914 
L 608.232558 569.598333 
L 609.258388 570.779779 
L 610.284217 565.569059 
L 611.310047 577.65999 
L 612.335876 556.376932 
L 613.361706 592.601229 
L 614.387536 571.798349 
L 615.413365 577.122814 
L 616.439195 571.792654 
L 617.465024 572.547643 
L 618.490854 571.762398 
L 619.516684 572.386382 
L 620.542513 571.734316 
L 621.568343 572.11343 
L 622.594172 572.085447 
L 623.620002 581.995865 
L 624.645831 572.622044 
L 625.671661 571.872946 
L 626.697491 568.84513 
L 627.72332 568.947266 
L 628.74915 568.107259 
L 629.774979 569.508685 
L 630.800809 570.129061 
L 631.826638 569.945399 
L 632.852468 569.909411 
L 633.878298 570.511725 
L 634.904127 573.436794 
L 635.929957 571.510896 
L 636.955786 570.370511 
L 637.981616 570.578526 
L 639.007446 572.004397 
L 640.033275 571.016137 
L 641.059105 571.739259 
L 642.084934 571.572261 
L 643.110764 572.418881 
L 644.136593 572.503546 
L 645.162423 571.646717 
L 646.188253 572.758514 
L 647.214082 582.647481 
L 648.239912 570.894793 
L 649.265741 573.170469 
L 650.291571 572.724713 
L 651.3174 578.300301 
L 652.34323 573.474436 
L 653.36906 574.184913 
L 654.394889 572.913482 
L 655.420719 573.512422 
L 656.446548 574.266371 
L 657.472378 573.825085 
L 658.498208 575.56593 
L 659.524037 573.918831 
L 660.549867 575.278472 
L 661.575696 574.342687 
L 662.601526 574.643511 
L 663.627355 576.436896 
L 664.653185 575.396294 
L 665.679015 571.047724 
L 666.704844 570.449218 
L 667.730674 570.652373 
L 668.756503 571.499099 
L 669.782333 571.807654 
L 670.808163 571.318352 
L 671.833992 571.143925 
L 672.859822 570.759377 
L 673.885651 570.737774 
L 674.911481 572.96185 
L 675.93731 570.19634 
L 677.98897 571.558966 
L 679.014799 571.244613 
L 680.040629 571.3128 
L 681.066458 574.474133 
L 682.092288 570.608883 
L 683.118117 571.441392 
L 684.143947 571.405845 
L 685.169777 571.25771 
L 686.195606 571.335114 
L 687.221436 572.052349 
L 688.247265 571.604283 
L 689.273095 572.690752 
L 691.324754 572.13263 
L 692.350584 571.580135 
L 693.376413 572.552296 
L 694.402243 577.948729 
L 695.428072 572.013178 
L 696.453902 573.502487 
L 697.479732 572.247405 
L 698.505561 573.429467 
L 699.531391 573.228415 
L 700.55722 572.791157 
L 701.58305 573.843 
L 702.608879 573.824201 
L 703.634709 573.564255 
L 704.660539 573.810933 
L 705.686368 572.79118 
L 706.712198 572.472994 
L 707.738027 584.222688 
L 708.763857 570.997104 
L 709.789687 582.518334 
L 710.815516 574.131521 
L 711.841346 574.24173 
L 713.893005 573.815403 
L 714.918834 574.39496 
L 715.944664 573.666064 
L 716.970494 574.782815 
L 717.996323 575.127724 
L 719.022153 575.082718 
L 721.073812 574.27801 
L 722.099642 575.14295 
L 723.125471 574.711016 
L 724.151301 574.976819 
L 726.20296 574.53324 
L 727.228789 580.423661 
L 728.254619 575.689979 
L 729.280449 575.141621 
L 730.306278 575.602355 
L 731.332108 574.784161 
L 733.383767 575.570343 
L 734.409596 576.121707 
L 735.435426 575.886154 
L 736.461256 576.326634 
L 737.487085 575.423107 
L 738.512915 575.278532 
L 739.538744 575.610009 
L 740.564574 579.334936 
L 741.590404 575.596964 
L 742.616233 575.287533 
L 743.642063 575.656702 
L 744.667892 575.292435 
L 745.693722 575.762424 
L 746.719551 580.050482 
L 747.745381 577.302955 
L 748.771211 577.084194 
L 749.79704 577.321823 
L 750.82287 578.053033 
L 751.848699 577.002274 
L 752.874529 577.881292 
L 753.900358 578.161196 
L 754.926188 577.753553 
L 755.952018 578.300003 
L 756.977847 572.529264 
L 759.029506 575.083877 
L 760.055336 582.323026 
L 762.106995 572.318319 
L 763.132825 577.514987 
L 764.158654 578.550107 
L 765.184484 578.586106 
L 766.210313 577.934989 
L 767.236143 578.043405 
L 768.261973 578.889223 
L 769.287802 578.178067 
L 770.313632 578.649357 
L 771.339461 578.739664 
L 772.365291 578.631499 
L 773.391121 589.607326 
L 774.41695 578.747726 
L 776.468609 579.301536 
L 777.494439 578.812564 
L 778.520268 579.303012 
L 779.546098 579.172586 
L 780.571928 580.646362 
L 781.597757 579.790369 
L 782.623587 579.280714 
L 784.675246 579.178047 
L 785.701075 579.626362 
L 786.726905 580.216469 
L 787.752735 579.357459 
L 788.778564 579.605338 
L 789.804394 580.140638 
L 790.830223 579.175667 
L 791.856053 580.141109 
L 792.881883 584.410697 
L 793.907712 578.77964 
L 794.933542 579.836893 
L 795.959371 579.713439 
L 796.985201 580.414483 
L 798.01103 579.981565 
L 799.03686 580.671284 
L 801.088519 580.748661 
L 803.140178 580.154381 
L 804.166008 581.711496 
L 805.191837 580.637663 
L 806.217667 582.05794 
L 807.243497 580.333718 
L 809.295156 581.090588 
L 810.320985 580.838069 
L 811.346815 580.893477 
L 812.372645 584.059201 
L 813.398474 581.232988 
L 814.424304 583.801706 
L 815.450133 581.308972 
L 816.475963 580.843746 
L 817.501792 581.630677 
L 818.527622 581.634072 
L 819.553452 581.76995 
L 820.579281 581.49175 
L 821.605111 581.674006 
L 822.63094 579.645213 
L 823.65677 581.378663 
L 824.6826 581.636324 
L 825.708429 585.55 
L 826.734259 579.904582 
L 827.760088 582.334987 
L 828.785918 581.165047 
L 829.811747 582.028006 
L 830.837577 581.470008 
L 831.863407 581.411444 
L 832.889236 581.811561 
L 833.915066 581.514527 
L 834.940895 581.583346 
L 835.966725 581.954079 
L 836.992554 581.932739 
L 838.018384 582.31996 
L 839.044214 590.421152 
L 840.070043 581.029695 
L 841.095873 580.965364 
L 842.121702 579.907319 
L 843.147532 579.995546 
L 844.173362 580.684666 
L 845.199191 581.698592 
L 846.225021 581.13393 
L 847.25085 581.637839 
L 848.27668 581.746368 
L 849.302509 584.737446 
L 850.328339 582.131808 
L 851.354169 582.433463 
L 852.379998 582.166472 
L 853.405828 582.238525 
L 854.431657 581.812045 
L 855.457487 582.207495 
L 856.483316 582.121384 
L 857.509146 582.591262 
L 858.534976 586.805692 
L 859.560805 579.6607 
L 860.586635 583.807152 
L 861.612464 582.64641 
L 862.638294 582.345115 
L 863.664124 579.278064 
L 864.689953 582.219431 
L 865.715783 582.436576 
L 866.741612 585.555965 
L 867.767442 579.719509 
L 868.793271 582.497373 
L 869.819101 582.688714 
L 870.844931 582.451094 
L 871.87076 582.332759 
L 872.89659 582.679475 
L 873.922419 579.205609 
L 874.948249 582.767533 
L 875.974078 583.266974 
L 876.999908 583.578946 
L 878.025738 586.170819 
L 879.051567 583.00407 
L 880.077397 586.722738 
L 881.103226 583.707474 
L 882.129056 583.98753 
L 883.154886 583.806513 
L 884.180715 583.10873 
L 885.206545 583.910964 
L 886.232374 584.101461 
L 887.258204 583.224879 
L 888.284033 584.519742 
L 889.309863 584.12668 
L 890.335693 583.586159 
L 891.361522 588.803435 
L 892.387352 587.152174 
L 893.413181 584.628969 
L 894.439011 584.53467 
L 895.464841 584.259581 
L 896.49067 584.239329 
L 897.5165 584.454731 
L 899.568159 584.48478 
L 900.593988 584.828211 
L 901.619818 584.723657 
L 902.645648 583.871923 
L 903.671477 584.017667 
L 904.697307 593.000001 
L 905.723136 584.276168 
L 906.748966 584.299798 
L 907.774795 584.56538 
L 908.800625 584.608294 
L 909.826455 584.289354 
L 910.852284 584.309718 
L 911.878114 584.458916 
L 912.903943 584.957795 
L 913.929773 584.706414 
L 914.955603 584.74611 
L 915.981432 584.596744 
L 917.007262 585.305102 
L 918.033091 587.380438 
L 919.058921 585.534243 
L 920.08475 584.769479 
L 922.13641 585.691958 
L 923.162239 584.933061 
L 924.188069 588.988307 
L 925.213898 588.183874 
L 926.239728 585.471303 
L 927.265557 585.495141 
L 928.291387 583.998209 
L 929.317217 585.001863 
L 930.343046 585.46252 
L 931.368876 585.478672 
L 932.394705 586.187363 
L 933.420535 584.79167 
L 934.446365 585.375034 
L 935.472194 585.560187 
L 936.498024 585.379188 
L 937.523853 588.064479 
L 938.549683 586.35564 
L 939.575512 585.494945 
L 940.601342 585.613074 
L 941.627172 585.334461 
L 942.653001 585.914226 
L 943.678831 588.90615 
L 944.70466 586.466446 
L 945.73049 586.206722 
L 946.75632 585.746843 
L 947.782149 585.548563 
L 948.807979 583.131711 
L 949.833808 583.459183 
L 951.885467 587.198818 
L 952.911297 586.188714 
L 953.937127 586.486632 
L 954.962956 586.347781 
L 955.988786 586.541751 
L 957.014615 589.450143 
L 958.040445 585.709238 
L 959.066274 588.935857 
L 960.092104 586.024841 
L 961.117934 585.861072 
L 962.143763 586.385798 
L 963.169593 586.203614 
L 964.195422 586.662064 
L 965.221252 585.960256 
L 966.247082 586.41584 
L 967.272911 586.621012 
L 968.298741 587.065672 
L 969.32457 586.599716 
L 970.3504 594.816835 
L 971.376229 587.094538 
L 972.402059 587.073206 
L 974.453718 586.318047 
L 975.479548 587.26404 
L 976.505377 587.270354 
L 977.531207 586.931193 
L 978.557036 587.289373 
L 979.582866 587.156349 
L 980.608696 587.180781 
L 981.634525 586.707781 
L 983.686184 586.963397 
L 984.712014 583.735857 
L 985.737844 587.451721 
L 986.763673 589.441271 
L 987.789503 587.378456 
L 988.815332 586.981572 
L 989.841162 591.302327 
L 990.866991 587.434333 
L 991.892821 586.9514 
L 992.918651 587.471332 
L 993.94448 587.126191 
L 994.97031 587.331661 
L 995.996139 587.765919 
L 997.021969 587.625674 
L 1000.099458 587.803552 
L 1001.125287 587.857578 
L 1002.151117 588.124658 
L 1003.176946 591.34965 
L 1004.202776 588.085004 
L 1005.228606 587.076664 
L 1007.280265 587.751806 
L 1008.306094 587.29395 
L 1009.331924 590.273271 
L 1010.357753 587.03276 
L 1011.383583 587.703589 
L 1012.409413 587.478951 
L 1013.435242 588.32375 
L 1014.461072 587.951759 
L 1015.486901 587.284797 
L 1016.512731 587.07074 
L 1017.538561 588.119819 
L 1018.56439 587.672814 
L 1020.616049 587.986571 
L 1021.641879 588.445027 
L 1022.667708 592.74688 
L 1023.693538 587.944323 
L 1025.745197 588.420689 
L 1026.771027 587.837764 
L 1027.796856 587.994472 
L 1028.822686 588.012314 
L 1029.848515 588.409229 
L 1030.874345 588.386643 
L 1031.900175 587.530754 
L 1032.926004 587.859689 
L 1033.951834 587.713216 
L 1034.977663 587.99866 
L 1036.003493 596.0048 
L 1037.029323 588.717276 
L 1039.080982 588.907961 
L 1040.106811 588.762502 
L 1041.132641 591.044811 
L 1042.15847 588.47651 
L 1043.1843 588.456064 
L 1044.21013 587.649345 
L 1045.235959 588.560107 
L 1046.261789 588.737025 
L 1047.287618 578.564902 
L 1048.313448 588.884642 
L 1049.339278 588.878284 
L 1050.365107 588.306184 
L 1051.390937 589.01642 
L 1052.416766 588.601403 
L 1054.468425 588.894959 
L 1055.494255 592.70727 
L 1056.520085 589.435455 
L 1057.545914 589.066645 
L 1058.571744 591.204251 
L 1059.597573 588.565565 
L 1061.649232 590.401969 
L 1062.675062 592.486107 
L 1063.700892 591.406271 
L 1065.752551 591.60587 
L 1066.77838 591.57777 
L 1067.80421 591.83062 
L 1068.83004 593.000095 
L 1069.855869 596.429495 
L 1070.881699 591.768249 
L 1072.933358 591.749859 
L 1073.959187 593.722443 
L 1074.985017 594.004671 
L 1076.010847 591.892573 
L 1077.036676 591.764466 
L 1078.062506 591.830705 
L 1079.088335 592.013593 
L 1080.114165 594.173086 
L 1081.139994 591.767638 
L 1082.165824 591.998618 
L 1083.191654 591.949025 
L 1084.217483 592.209714 
L 1085.243313 592.272655 
L 1086.269142 592.110606 
L 1087.294972 591.490454 
L 1088.320802 596.748361 
L 1089.346631 591.631746 
L 1090.372461 592.552914 
L 1091.39829 592.104751 
L 1092.42412 592.081949 
L 1093.449949 592.198817 
L 1094.475779 592.900529 
L 1095.501609 592.340578 
L 1097.553268 591.807957 
L 1098.579097 592.215577 
L 1100.630757 592.005622 
L 1101.656586 599.141048 
L 1102.682416 592.029048 
L 1103.708245 594.218126 
L 1104.734075 591.205666 
L 1105.759904 592.299736 
L 1106.785734 592.405325 
L 1107.811564 593.129132 
L 1108.837393 592.465352 
L 1109.863223 592.103191 
L 1110.889052 592.228709 
L 1111.914882 592.607966 
L 1112.940711 591.926672 
L 1113.966541 592.548263 
L 1114.992371 592.833183 
L 1117.04403 592.220157 
L 1118.069859 592.906826 
L 1120.121519 592.670578 
L 1121.147348 596.173263 
L 1122.173178 592.707933 
L 1123.199007 592.784115 
L 1124.224837 594.528124 
L 1125.250666 592.792024 
L 1126.276496 592.607801 
L 1127.302326 592.966954 
L 1128.328155 592.959171 
L 1129.353985 592.278502 
L 1130.379814 592.70871 
L 1131.405644 592.904754 
L 1132.431473 592.719191 
L 1133.457303 592.992603 
L 1134.483133 594.476365 
L 1135.508962 593.186324 
L 1136.534792 592.69907 
L 1137.560621 593.136396 
L 1139.612281 592.74842 
L 1140.63811 595.531023 
L 1141.66394 593.184265 
L 1142.689769 593.021919 
L 1143.715599 594.399353 
L 1144.741428 592.844496 
L 1145.767258 593.127701 
L 1146.793088 592.954195 
L 1147.818917 593.35141 
L 1148.844747 593.196578 
L 1149.870576 593.455016 
L 1150.896406 593.477427 
L 1151.922235 598.678243 
L 1152.948065 595.628356 
L 1153.973895 597.121521 
L 1156.025554 592.950483 
L 1157.051383 593.407434 
L 1158.077213 593.266424 
L 1160.128872 593.320931 
L 1161.154702 593.505477 
L 1162.180531 593.161505 
L 1164.23219 593.505818 
L 1165.25802 593.035222 
L 1166.28385 593.440082 
L 1167.309679 600.465981 
L 1168.335509 593.539395 
L 1169.361338 593.372895 
L 1170.387168 593.467555 
L 1171.412998 594.752542 
L 1172.438827 592.920721 
L 1173.464657 593.341292 
L 1174.490486 593.320671 
L 1175.516316 594.941883 
L 1176.542145 593.378677 
L 1177.567975 594.838049 
L 1178.593805 593.027034 
L 1179.619634 593.571659 
L 1180.645464 595.030339 
L 1181.671293 593.847722 
L 1182.697123 593.671578 
L 1183.722952 593.695433 
L 1184.748782 596.067199 
L 1185.774612 593.692454 
L 1186.800441 597.164953 
L 1187.826271 593.56382 
L 1188.8521 593.766913 
L 1189.87793 590.769569 
L 1190.90376 593.559766 
L 1191.929589 593.884088 
L 1192.955419 593.727363 
L 1193.981248 593.787825 
L 1195.007078 594.051217 
L 1196.032907 593.967571 
L 1197.058737 592.664038 
L 1198.084567 593.861255 
L 1199.110396 593.275978 
L 1200.136226 595.001391 
L 1201.162055 593.984211 
L 1202.187885 593.845246 
L 1203.213714 592.970226 
L 1204.239544 593.120453 
L 1205.265374 593.852642 
L 1206.291203 596.168876 
L 1207.317033 594.022299 
L 1208.342862 593.57 
L 1209.368692 593.24494 
L 1210.394522 595.437382 
L 1211.420351 593.881868 
L 1212.446181 593.63455 
L 1213.47201 593.681182 
L 1214.49784 593.918059 
L 1215.523669 593.655723 
L 1216.549499 593.991735 
L 1217.575329 593.582508 
L 1218.601158 593.941414 
L 1219.626988 597.80571 
L 1220.652817 594.216888 
L 1221.678647 594.587939 
L 1222.704477 594.262895 
L 1224.756136 594.142392 
L 1225.781965 593.907725 
L 1226.807795 593.835392 
L 1228.859454 594.332427 
L 1229.885284 594.323189 
L 1230.911113 594.429681 
L 1231.936943 594.67314 
L 1232.962772 601.273873 
L 1233.988602 594.618675 
L 1235.014431 598.274053 
L 1236.040261 593.833417 
L 1237.066091 594.258119 
L 1238.09192 595.233803 
L 1239.11775 589.225093 
L 1240.143579 594.184107 
L 1241.169409 594.256343 
L 1242.195239 596.14038 
L 1243.221068 594.763863 
L 1245.272727 594.687351 
L 1245.272727 594.687351 
" style="fill:none;stroke:#ff7f0e;stroke-linecap:square;stroke-width:1.5;"/>
   </g>
   <g id="patch_3">
    <path d="M 180 640.8 
L 180 86.4 
" style="fill:none;stroke:#000000;stroke-linecap:square;stroke-linejoin:miter;stroke-width:0.8;"/>
   </g>
   <g id="patch_4">
    <path d="M 1296 640.8 
L 1296 86.4 
" style="fill:none;stroke:#000000;stroke-linecap:square;stroke-linejoin:miter;stroke-width:0.8;"/>
   </g>
   <g id="patch_5">
    <path d="M 180 640.8 
L 1296 640.8 
" style="fill:none;stroke:#000000;stroke-linecap:square;stroke-linejoin:miter;stroke-width:0.8;"/>
   </g>
   <g id="patch_6">
    <path d="M 180 86.4 
L 1296 86.4 
" style="fill:none;stroke:#000000;stroke-linecap:square;stroke-linejoin:miter;stroke-width:0.8;"/>
   </g>
   <g id="text_19">
    <!-- Williams %R Speedup -->
    <defs>
     <path d="M 3.328125 72.90625 
L 13.28125 72.90625 
L 28.609375 11.28125 
L 43.890625 72.90625 
L 54.984375 72.90625 
L 70.3125 11.28125 
L 85.59375 72.90625 
L 95.609375 72.90625 
L 77.296875 0 
L 64.890625 0 
L 49.515625 63.28125 
L 33.984375 0 
L 21.578125 0 
z
" id="DejaVuSans-87"/>
     <path d="M 9.421875 54.6875 
L 18.40625 54.6875 
L 18.40625 0 
L 9.421875 0 
z
M 9.421875 75.984375 
L 18.40625 75.984375 
L 18.40625 64.59375 
L 9.421875 64.59375 
z
" id="DejaVuSans-105"/>
     <path d="M 9.421875 75.984375 
L 18.40625 75.984375 
L 18.40625 0 
L 9.421875 0 
z
" id="DejaVuSans-108"/>
     <path d="M 34.28125 27.484375 
Q 23.390625 27.484375 19.1875 25 
Q 14.984375 22.515625 14.984375 16.5 
Q 14.984375 11.71875 18.140625 8.90625 
Q 21.296875 6.109375 26.703125 6.109375 
Q 34.1875 6.109375 38.703125 11.40625 
Q 43.21875 16.703125 43.21875 25.484375 
L 43.21875 27.484375 
z
M 52.203125 31.203125 
L 52.203125 0 
L 43.21875 0 
L 43.21875 8.296875 
Q 40.140625 3.328125 35.546875 0.953125 
Q 30.953125 -1.421875 24.3125 -1.421875 
Q 15.921875 -1.421875 10.953125 3.296875 
Q 6 8.015625 6 15.921875 
Q 6 25.140625 12.171875 29.828125 
Q 18.359375 34.515625 30.609375 34.515625 
L 43.21875 34.515625 
L 43.21875 35.40625 
Q 43.21875 41.609375 39.140625 45 
Q 35.0625 48.390625 27.6875 48.390625 
Q 23 48.390625 18.546875 47.265625 
Q 14.109375 46.140625 10.015625 43.890625 
L 10.015625 52.203125 
Q 14.9375 54.109375 19.578125 55.046875 
Q 24.21875 56 28.609375 56 
Q 40.484375 56 46.34375 49.84375 
Q 52.203125 43.703125 52.203125 31.203125 
z
" id="DejaVuSans-97"/>
     <path d="M 52 44.1875 
Q 55.375 50.25 60.0625 53.125 
Q 64.75 56 71.09375 56 
Q 79.640625 56 84.28125 50.015625 
Q 88.921875 44.046875 88.921875 33.015625 
L 88.921875 0 
L 79.890625 0 
L 79.890625 32.71875 
Q 79.890625 40.578125 77.09375 44.375 
Q 74.3125 48.1875 68.609375 48.1875 
Q 61.625 48.1875 57.5625 43.546875 
Q 53.515625 38.921875 53.515625 30.90625 
L 53.515625 0 
L 44.484375 0 
L 44.484375 32.71875 
Q 44.484375 40.625 41.703125 44.40625 
Q 38.921875 48.1875 33.109375 48.1875 
Q 26.21875 48.1875 22.15625 43.53125 
Q 18.109375 38.875 18.109375 30.90625 
L 18.109375 0 
L 9.078125 0 
L 9.078125 54.6875 
L 18.109375 54.6875 
L 18.109375 46.1875 
Q 21.1875 51.21875 25.484375 53.609375 
Q 29.78125 56 35.6875 56 
Q 41.65625 56 45.828125 52.96875 
Q 50 49.953125 52 44.1875 
z
" id="DejaVuSans-109"/>
     <path id="DejaVuSans-32"/>
     <path d="M 72.703125 32.078125 
Q 68.453125 32.078125 66.03125 28.46875 
Q 63.625 24.859375 63.625 18.40625 
Q 63.625 12.0625 66.03125 8.421875 
Q 68.453125 4.78125 72.703125 4.78125 
Q 76.859375 4.78125 79.265625 8.421875 
Q 81.6875 12.0625 81.6875 18.40625 
Q 81.6875 24.8125 79.265625 28.4375 
Q 76.859375 32.078125 72.703125 32.078125 
z
M 72.703125 38.28125 
Q 80.421875 38.28125 84.953125 32.90625 
Q 89.5 27.546875 89.5 18.40625 
Q 89.5 9.28125 84.9375 3.921875 
Q 80.375 -1.421875 72.703125 -1.421875 
Q 64.890625 -1.421875 60.34375 3.921875 
Q 55.8125 9.28125 55.8125 18.40625 
Q 55.8125 27.59375 60.375 32.9375 
Q 64.9375 38.28125 72.703125 38.28125 
z
M 22.3125 68.015625 
Q 18.109375 68.015625 15.6875 64.375 
Q 13.28125 60.75 13.28125 54.390625 
Q 13.28125 47.953125 15.671875 44.328125 
Q 18.0625 40.71875 22.3125 40.71875 
Q 26.5625 40.71875 28.96875 44.328125 
Q 31.390625 47.953125 31.390625 54.390625 
Q 31.390625 60.6875 28.953125 64.34375 
Q 26.515625 68.015625 22.3125 68.015625 
z
M 66.40625 74.21875 
L 74.21875 74.21875 
L 28.609375 -1.421875 
L 20.796875 -1.421875 
z
M 22.3125 74.21875 
Q 30.03125 74.21875 34.609375 68.875 
Q 39.203125 63.53125 39.203125 54.390625 
Q 39.203125 45.171875 34.640625 39.84375 
Q 30.078125 34.515625 22.3125 34.515625 
Q 14.546875 34.515625 10.03125 39.859375 
Q 5.515625 45.21875 5.515625 54.390625 
Q 5.515625 63.484375 10.046875 68.84375 
Q 14.59375 74.21875 22.3125 74.21875 
z
" id="DejaVuSans-37"/>
     <path d="M 44.390625 34.1875 
Q 47.5625 33.109375 50.5625 29.59375 
Q 53.5625 26.078125 56.59375 19.921875 
L 66.609375 0 
L 56 0 
L 46.6875 18.703125 
Q 43.0625 26.03125 39.671875 28.421875 
Q 36.28125 30.8125 30.421875 30.8125 
L 19.671875 30.8125 
L 19.671875 0 
L 9.8125 0 
L 9.8125 72.90625 
L 32.078125 72.90625 
Q 44.578125 72.90625 50.734375 67.671875 
Q 56.890625 62.453125 56.890625 51.90625 
Q 56.890625 45.015625 53.6875 40.46875 
Q 50.484375 35.9375 44.390625 34.1875 
z
M 19.671875 64.796875 
L 19.671875 38.921875 
L 32.078125 38.921875 
Q 39.203125 38.921875 42.84375 42.21875 
Q 46.484375 45.515625 46.484375 51.90625 
Q 46.484375 58.296875 42.84375 61.546875 
Q 39.203125 64.796875 32.078125 64.796875 
z
" id="DejaVuSans-82"/>
     <path d="M 53.515625 70.515625 
L 53.515625 60.890625 
Q 47.90625 63.578125 42.921875 64.890625 
Q 37.9375 66.21875 33.296875 66.21875 
Q 25.25 66.21875 20.875 63.09375 
Q 16.5 59.96875 16.5 54.203125 
Q 16.5 49.359375 19.40625 46.890625 
Q 22.3125 44.4375 30.421875 42.921875 
L 36.375 41.703125 
Q 47.40625 39.59375 52.65625 34.296875 
Q 57.90625 29 57.90625 20.125 
Q 57.90625 9.515625 50.796875 4.046875 
Q 43.703125 -1.421875 29.984375 -1.421875 
Q 24.8125 -1.421875 18.96875 -0.25 
Q 13.140625 0.921875 6.890625 3.21875 
L 6.890625 13.375 
Q 12.890625 10.015625 18.65625 8.296875 
Q 24.421875 6.59375 29.984375 6.59375 
Q 38.421875 6.59375 43.015625 9.90625 
Q 47.609375 13.234375 47.609375 19.390625 
Q 47.609375 24.75 44.3125 27.78125 
Q 41.015625 30.8125 33.5 32.328125 
L 27.484375 33.5 
Q 16.453125 35.6875 11.515625 40.375 
Q 6.59375 45.0625 6.59375 53.421875 
Q 6.59375 63.09375 13.40625 68.65625 
Q 20.21875 74.21875 32.171875 74.21875 
Q 37.3125 74.21875 42.625 73.28125 
Q 47.953125 72.359375 53.515625 70.515625 
z
" id="DejaVuSans-83"/>
    </defs>
    <g transform="translate(672.781875 80.4)scale(0.12 -0.12)">
     <use xlink:href="#DejaVuSans-87"/>
     <use x="96.626953" xlink:href="#DejaVuSans-105"/>
     <use x="124.410156" xlink:href="#DejaVuSans-108"/>
     <use x="152.193359" xlink:href="#DejaVuSans-108"/>
     <use x="179.976562" xlink:href="#DejaVuSans-105"/>
     <use x="207.759766" xlink:href="#DejaVuSans-97"/>
     <use x="269.039062" xlink:href="#DejaVuSans-109"/>
     <use x="366.451172" xlink:href="#DejaVuSans-115"/>
     <use x="418.550781" xlink:href="#DejaVuSans-32"/>
     <use x="450.337891" xlink:href="#DejaVuSans-37"/>
     <use x="545.357422" xlink:href="#DejaVuSans-82"/>
     <use x="614.839844" xlink:href="#DejaVuSans-32"/>
     <use x="646.626953" xlink:href="#DejaVuSans-83"/>
     <use x="710.103516" xlink:href="#DejaVuSans-112"/>
     <use x="773.580078" xlink:href="#DejaVuSans-101"/>
     <use x="835.103516" xlink:href="#DejaVuSans-101"/>
     <use x="896.626953" xlink:href="#DejaVuSans-100"/>
     <use x="960.103516" xlink:href="#DejaVuSans-117"/>
     <use x="1023.482422" xlink:href="#DejaVuSans-112"/>
    </g>
   </g>
   <g id="legend_1">
    <g id="patch_7">
     <path d="M 1185.373437 123.75625 
L 1289 123.75625 
Q 1291 123.75625 1291 121.75625 
L 1291 93.4 
Q 1291 91.4 1289 91.4 
L 1185.373437 91.4 
Q 1183.373437 91.4 1183.373437 93.4 
L 1183.373437 121.75625 
Q 1183.373437 123.75625 1185.373437 123.75625 
z
" style="fill:#ffffff;opacity:0.8;stroke:#cccccc;stroke-linejoin:miter;"/>
    </g>
    <g id="line2d_19">
     <path d="M 1187.373437 99.498437 
L 1207.373437 99.498437 
" style="fill:none;stroke:#1f77b4;stroke-linecap:square;stroke-width:1.5;"/>
    </g>
    <g id="line2d_20"/>
    <g id="text_20">
     <!-- numpy.float32 -->
     <defs>
      <path d="M 32.171875 -5.078125 
Q 28.375 -14.84375 24.75 -17.8125 
Q 21.140625 -20.796875 15.09375 -20.796875 
L 7.90625 -20.796875 
L 7.90625 -13.28125 
L 13.1875 -13.28125 
Q 16.890625 -13.28125 18.9375 -11.515625 
Q 21 -9.765625 23.484375 -3.21875 
L 25.09375 0.875 
L 2.984375 54.6875 
L 12.5 54.6875 
L 29.59375 11.921875 
L 46.6875 54.6875 
L 56.203125 54.6875 
z
" id="DejaVuSans-121"/>
      <path d="M 37.109375 75.984375 
L 37.109375 68.5 
L 28.515625 68.5 
Q 23.6875 68.5 21.796875 66.546875 
Q 19.921875 64.59375 19.921875 59.515625 
L 19.921875 54.6875 
L 34.71875 54.6875 
L 34.71875 47.703125 
L 19.921875 47.703125 
L 19.921875 0 
L 10.890625 0 
L 10.890625 47.703125 
L 2.296875 47.703125 
L 2.296875 54.6875 
L 10.890625 54.6875 
L 10.890625 58.5 
Q 10.890625 67.625 15.140625 71.796875 
Q 19.390625 75.984375 28.609375 75.984375 
z
" id="DejaVuSans-102"/>
      <path d="M 30.609375 48.390625 
Q 23.390625 48.390625 19.1875 42.75 
Q 14.984375 37.109375 14.984375 27.296875 
Q 14.984375 17.484375 19.15625 11.84375 
Q 23.34375 6.203125 30.609375 6.203125 
Q 37.796875 6.203125 41.984375 11.859375 
Q 46.1875 17.53125 46.1875 27.296875 
Q 46.1875 37.015625 41.984375 42.703125 
Q 37.796875 48.390625 30.609375 48.390625 
z
M 30.609375 56 
Q 42.328125 56 49.015625 48.375 
Q 55.71875 40.765625 55.71875 27.296875 
Q 55.71875 13.875 49.015625 6.21875 
Q 42.328125 -1.421875 30.609375 -1.421875 
Q 18.84375 -1.421875 12.171875 6.21875 
Q 5.515625 13.875 5.515625 27.296875 
Q 5.515625 40.765625 12.171875 48.375 
Q 18.84375 56 30.609375 56 
z
" id="DejaVuSans-111"/>
      <path d="M 18.3125 70.21875 
L 18.3125 54.6875 
L 36.8125 54.6875 
L 36.8125 47.703125 
L 18.3125 47.703125 
L 18.3125 18.015625 
Q 18.3125 11.328125 20.140625 9.421875 
Q 21.96875 7.515625 27.59375 7.515625 
L 36.8125 7.515625 
L 36.8125 0 
L 27.59375 0 
Q 17.1875 0 13.234375 3.875 
Q 9.28125 7.765625 9.28125 18.015625 
L 9.28125 47.703125 
L 2.6875 47.703125 
L 2.6875 54.6875 
L 9.28125 54.6875 
L 9.28125 70.21875 
z
" id="DejaVuSans-116"/>
     </defs>
     <g transform="translate(1215.373437 102.998437)scale(0.1 -0.1)">
      <use xlink:href="#DejaVuSans-110"/>
      <use x="63.378906" xlink:href="#DejaVuSans-117"/>
      <use x="126.757812" xlink:href="#DejaVuSans-109"/>
      <use x="224.169922" xlink:href="#DejaVuSans-112"/>
      <use x="287.646484" xlink:href="#DejaVuSans-121"/>
      <use x="332.576172" xlink:href="#DejaVuSans-46"/>
      <use x="364.363281" xlink:href="#DejaVuSans-102"/>
      <use x="399.568359" xlink:href="#DejaVuSans-108"/>
      <use x="427.351562" xlink:href="#DejaVuSans-111"/>
      <use x="488.533203" xlink:href="#DejaVuSans-97"/>
      <use x="549.8125" xlink:href="#DejaVuSans-116"/>
      <use x="589.021484" xlink:href="#DejaVuSans-51"/>
      <use x="652.644531" xlink:href="#DejaVuSans-50"/>
     </g>
    </g>
    <g id="line2d_21">
     <path d="M 1187.373437 114.176562 
L 1207.373437 114.176562 
" style="fill:none;stroke:#ff7f0e;stroke-linecap:square;stroke-width:1.5;"/>
    </g>
    <g id="line2d_22"/>
    <g id="text_21">
     <!-- numpy.float64 -->
     <g transform="translate(1215.373437 117.676562)scale(0.1 -0.1)">
      <use xlink:href="#DejaVuSans-110"/>
      <use x="63.378906" xlink:href="#DejaVuSans-117"/>
      <use x="126.757812" xlink:href="#DejaVuSans-109"/>
      <use x="224.169922" xlink:href="#DejaVuSans-112"/>
      <use x="287.646484" xlink:href="#DejaVuSans-121"/>
      <use x="332.576172" xlink:href="#DejaVuSans-46"/>
      <use x="364.363281" xlink:href="#DejaVuSans-102"/>
      <use x="399.568359" xlink:href="#DejaVuSans-108"/>
      <use x="427.351562" xlink:href="#DejaVuSans-111"/>
      <use x="488.533203" xlink:href="#DejaVuSans-97"/>
      <use x="549.8125" xlink:href="#DejaVuSans-116"/>
      <use x="589.021484" xlink:href="#DejaVuSans-54"/>
      <use x="652.644531" xlink:href="#DejaVuSans-52"/>
     </g>
    </g>
   </g>
  </g>
 </g>
 <defs>
  <clipPath id="p91ebff263d">
   <rect height="554.4" width="1116" x="180" y="86.4"/>
  </clipPath>
 </defs>
</svg>
