<?xml version="1.0" encoding="utf-8" standalone="no"?>
<!DOCTYPE svg PUBLIC "-//W3C//DTD SVG 1.1//EN"
  "http://www.w3.org/Graphics/SVG/1.1/DTD/svg11.dtd">
<!-- Created with matplotlib (https://matplotlib.org/) -->
<svg height="720pt" version="1.1" viewBox="0 0 1440 720" width="1440pt" xmlns="http://www.w3.org/2000/svg" xmlns:xlink="http://www.w3.org/1999/xlink">
 <defs>
  <style type="text/css">
*{stroke-linecap:butt;stroke-linejoin:round;}
  </style>
 </defs>
 <g id="figure_1">
  <g id="patch_1">
   <path d="M 0 720 
L 1440 720 
L 1440 0 
L 0 0 
z
" style="fill:#ffffff;"/>
  </g>
  <g id="axes_1">
   <g id="patch_2">
    <path d="M 180 640.8 
L 1296 640.8 
L 1296 86.4 
L 180 86.4 
z
" style="fill:#ffffff;"/>
   </g>
   <g id="matplotlib.axis_1">
    <g id="xtick_1">
     <g id="line2d_1">
      <defs>
       <path d="M 0 0 
L 0 3.5 
" id="m3a84fb9f33" style="stroke:#000000;stroke-width:0.8;"/>
      </defs>
      <g>
       <use style="stroke:#000000;stroke-width:0.8;" x="333.310231" xlink:href="#m3a84fb9f33" y="640.8"/>
      </g>
     </g>
     <g id="text_1">
      <!-- 100.0 -->
      <defs>
       <path d="M 12.40625 8.296875 
L 28.515625 8.296875 
L 28.515625 63.921875 
L 10.984375 60.40625 
L 10.984375 69.390625 
L 28.421875 72.90625 
L 38.28125 72.90625 
L 38.28125 8.296875 
L 54.390625 8.296875 
L 54.390625 0 
L 12.40625 0 
z
" id="DejaVuSans-49"/>
       <path d="M 31.78125 66.40625 
Q 24.171875 66.40625 20.328125 58.90625 
Q 16.5 51.421875 16.5 36.375 
Q 16.5 21.390625 20.328125 13.890625 
Q 24.171875 6.390625 31.78125 6.390625 
Q 39.453125 6.390625 43.28125 13.890625 
Q 47.125 21.390625 47.125 36.375 
Q 47.125 51.421875 43.28125 58.90625 
Q 39.453125 66.40625 31.78125 66.40625 
z
M 31.78125 74.21875 
Q 44.046875 74.21875 50.515625 64.515625 
Q 56.984375 54.828125 56.984375 36.375 
Q 56.984375 17.96875 50.515625 8.265625 
Q 44.046875 -1.421875 31.78125 -1.421875 
Q 19.53125 -1.421875 13.0625 8.265625 
Q 6.59375 17.96875 6.59375 36.375 
Q 6.59375 54.828125 13.0625 64.515625 
Q 19.53125 74.21875 31.78125 74.21875 
z
" id="DejaVuSans-48"/>
       <path d="M 10.6875 12.40625 
L 21 12.40625 
L 21 0 
L 10.6875 0 
z
" id="DejaVuSans-46"/>
      </defs>
      <g transform="translate(318.996168 655.398438)scale(0.1 -0.1)">
       <use xlink:href="#DejaVuSans-49"/>
       <use x="63.623047" xlink:href="#DejaVuSans-48"/>
       <use x="127.246094" xlink:href="#DejaVuSans-48"/>
       <use x="190.869141" xlink:href="#DejaVuSans-46"/>
       <use x="222.65625" xlink:href="#DejaVuSans-48"/>
      </g>
     </g>
    </g>
    <g id="xtick_2">
     <g id="line2d_2">
      <g>
       <use style="stroke:#000000;stroke-width:0.8;" x="435.893189" xlink:href="#m3a84fb9f33" y="640.8"/>
      </g>
     </g>
     <g id="text_2">
      <!-- 200.0 -->
      <defs>
       <path d="M 19.1875 8.296875 
L 53.609375 8.296875 
L 53.609375 0 
L 7.328125 0 
L 7.328125 8.296875 
Q 12.9375 14.109375 22.625 23.890625 
Q 32.328125 33.6875 34.8125 36.53125 
Q 39.546875 41.84375 41.421875 45.53125 
Q 43.3125 49.21875 43.3125 52.78125 
Q 43.3125 58.59375 39.234375 62.25 
Q 35.15625 65.921875 28.609375 65.921875 
Q 23.96875 65.921875 18.8125 64.3125 
Q 13.671875 62.703125 7.8125 59.421875 
L 7.8125 69.390625 
Q 13.765625 71.78125 18.9375 73 
Q 24.125 74.21875 28.421875 74.21875 
Q 39.75 74.21875 46.484375 68.546875 
Q 53.21875 62.890625 53.21875 53.421875 
Q 53.21875 48.921875 51.53125 44.890625 
Q 49.859375 40.875 45.40625 35.40625 
Q 44.1875 33.984375 37.640625 27.21875 
Q 31.109375 20.453125 19.1875 8.296875 
z
" id="DejaVuSans-50"/>
      </defs>
      <g transform="translate(421.579126 655.398438)scale(0.1 -0.1)">
       <use xlink:href="#DejaVuSans-50"/>
       <use x="63.623047" xlink:href="#DejaVuSans-48"/>
       <use x="127.246094" xlink:href="#DejaVuSans-48"/>
       <use x="190.869141" xlink:href="#DejaVuSans-46"/>
       <use x="222.65625" xlink:href="#DejaVuSans-48"/>
      </g>
     </g>
    </g>
    <g id="xtick_3">
     <g id="line2d_3">
      <g>
       <use style="stroke:#000000;stroke-width:0.8;" x="538.476147" xlink:href="#m3a84fb9f33" y="640.8"/>
      </g>
     </g>
     <g id="text_3">
      <!-- 300.0 -->
      <defs>
       <path d="M 40.578125 39.3125 
Q 47.65625 37.796875 51.625 33 
Q 55.609375 28.21875 55.609375 21.1875 
Q 55.609375 10.40625 48.1875 4.484375 
Q 40.765625 -1.421875 27.09375 -1.421875 
Q 22.515625 -1.421875 17.65625 -0.515625 
Q 12.796875 0.390625 7.625 2.203125 
L 7.625 11.71875 
Q 11.71875 9.328125 16.59375 8.109375 
Q 21.484375 6.890625 26.8125 6.890625 
Q 36.078125 6.890625 40.9375 10.546875 
Q 45.796875 14.203125 45.796875 21.1875 
Q 45.796875 27.640625 41.28125 31.265625 
Q 36.765625 34.90625 28.71875 34.90625 
L 20.21875 34.90625 
L 20.21875 43.015625 
L 29.109375 43.015625 
Q 36.375 43.015625 40.234375 45.921875 
Q 44.09375 48.828125 44.09375 54.296875 
Q 44.09375 59.90625 40.109375 62.90625 
Q 36.140625 65.921875 28.71875 65.921875 
Q 24.65625 65.921875 20.015625 65.03125 
Q 15.375 64.15625 9.8125 62.3125 
L 9.8125 71.09375 
Q 15.4375 72.65625 20.34375 73.4375 
Q 25.25 74.21875 29.59375 74.21875 
Q 40.828125 74.21875 47.359375 69.109375 
Q 53.90625 64.015625 53.90625 55.328125 
Q 53.90625 49.265625 50.4375 45.09375 
Q 46.96875 40.921875 40.578125 39.3125 
z
" id="DejaVuSans-51"/>
      </defs>
      <g transform="translate(524.162084 655.398438)scale(0.1 -0.1)">
       <use xlink:href="#DejaVuSans-51"/>
       <use x="63.623047" xlink:href="#DejaVuSans-48"/>
       <use x="127.246094" xlink:href="#DejaVuSans-48"/>
       <use x="190.869141" xlink:href="#DejaVuSans-46"/>
       <use x="222.65625" xlink:href="#DejaVuSans-48"/>
      </g>
     </g>
    </g>
    <g id="xtick_4">
     <g id="line2d_4">
      <g>
       <use style="stroke:#000000;stroke-width:0.8;" x="641.059105" xlink:href="#m3a84fb9f33" y="640.8"/>
      </g>
     </g>
     <g id="text_4">
      <!-- 400.0 -->
      <defs>
       <path d="M 37.796875 64.3125 
L 12.890625 25.390625 
L 37.796875 25.390625 
z
M 35.203125 72.90625 
L 47.609375 72.90625 
L 47.609375 25.390625 
L 58.015625 25.390625 
L 58.015625 17.1875 
L 47.609375 17.1875 
L 47.609375 0 
L 37.796875 0 
L 37.796875 17.1875 
L 4.890625 17.1875 
L 4.890625 26.703125 
z
" id="DejaVuSans-52"/>
      </defs>
      <g transform="translate(626.745042 655.398438)scale(0.1 -0.1)">
       <use xlink:href="#DejaVuSans-52"/>
       <use x="63.623047" xlink:href="#DejaVuSans-48"/>
       <use x="127.246094" xlink:href="#DejaVuSans-48"/>
       <use x="190.869141" xlink:href="#DejaVuSans-46"/>
       <use x="222.65625" xlink:href="#DejaVuSans-48"/>
      </g>
     </g>
    </g>
    <g id="xtick_5">
     <g id="line2d_5">
      <g>
       <use style="stroke:#000000;stroke-width:0.8;" x="743.642063" xlink:href="#m3a84fb9f33" y="640.8"/>
      </g>
     </g>
     <g id="text_5">
      <!-- 500.0 -->
      <defs>
       <path d="M 10.796875 72.90625 
L 49.515625 72.90625 
L 49.515625 64.59375 
L 19.828125 64.59375 
L 19.828125 46.734375 
Q 21.96875 47.46875 24.109375 47.828125 
Q 26.265625 48.1875 28.421875 48.1875 
Q 40.625 48.1875 47.75 41.5 
Q 54.890625 34.8125 54.890625 23.390625 
Q 54.890625 11.625 47.5625 5.09375 
Q 40.234375 -1.421875 26.90625 -1.421875 
Q 22.3125 -1.421875 17.546875 -0.640625 
Q 12.796875 0.140625 7.71875 1.703125 
L 7.71875 11.625 
Q 12.109375 9.234375 16.796875 8.0625 
Q 21.484375 6.890625 26.703125 6.890625 
Q 35.15625 6.890625 40.078125 11.328125 
Q 45.015625 15.765625 45.015625 23.390625 
Q 45.015625 31 40.078125 35.4375 
Q 35.15625 39.890625 26.703125 39.890625 
Q 22.75 39.890625 18.8125 39.015625 
Q 14.890625 38.140625 10.796875 36.28125 
z
" id="DejaVuSans-53"/>
      </defs>
      <g transform="translate(729.328 655.398438)scale(0.1 -0.1)">
       <use xlink:href="#DejaVuSans-53"/>
       <use x="63.623047" xlink:href="#DejaVuSans-48"/>
       <use x="127.246094" xlink:href="#DejaVuSans-48"/>
       <use x="190.869141" xlink:href="#DejaVuSans-46"/>
       <use x="222.65625" xlink:href="#DejaVuSans-48"/>
      </g>
     </g>
    </g>
    <g id="xtick_6">
     <g id="line2d_6">
      <g>
       <use style="stroke:#000000;stroke-width:0.8;" x="846.225021" xlink:href="#m3a84fb9f33" y="640.8"/>
      </g>
     </g>
     <g id="text_6">
      <!-- 600.0 -->
      <defs>
       <path d="M 33.015625 40.375 
Q 26.375 40.375 22.484375 35.828125 
Q 18.609375 31.296875 18.609375 23.390625 
Q 18.609375 15.53125 22.484375 10.953125 
Q 26.375 6.390625 33.015625 6.390625 
Q 39.65625 6.390625 43.53125 10.953125 
Q 47.40625 15.53125 47.40625 23.390625 
Q 47.40625 31.296875 43.53125 35.828125 
Q 39.65625 40.375 33.015625 40.375 
z
M 52.59375 71.296875 
L 52.59375 62.3125 
Q 48.875 64.0625 45.09375 64.984375 
Q 41.3125 65.921875 37.59375 65.921875 
Q 27.828125 65.921875 22.671875 59.328125 
Q 17.53125 52.734375 16.796875 39.40625 
Q 19.671875 43.65625 24.015625 45.921875 
Q 28.375 48.1875 33.59375 48.1875 
Q 44.578125 48.1875 50.953125 41.515625 
Q 57.328125 34.859375 57.328125 23.390625 
Q 57.328125 12.15625 50.6875 5.359375 
Q 44.046875 -1.421875 33.015625 -1.421875 
Q 20.359375 -1.421875 13.671875 8.265625 
Q 6.984375 17.96875 6.984375 36.375 
Q 6.984375 53.65625 15.1875 63.9375 
Q 23.390625 74.21875 37.203125 74.21875 
Q 40.921875 74.21875 44.703125 73.484375 
Q 48.484375 72.75 52.59375 71.296875 
z
" id="DejaVuSans-54"/>
      </defs>
      <g transform="translate(831.910958 655.398438)scale(0.1 -0.1)">
       <use xlink:href="#DejaVuSans-54"/>
       <use x="63.623047" xlink:href="#DejaVuSans-48"/>
       <use x="127.246094" xlink:href="#DejaVuSans-48"/>
       <use x="190.869141" xlink:href="#DejaVuSans-46"/>
       <use x="222.65625" xlink:href="#DejaVuSans-48"/>
      </g>
     </g>
    </g>
    <g id="xtick_7">
     <g id="line2d_7">
      <g>
       <use style="stroke:#000000;stroke-width:0.8;" x="948.807979" xlink:href="#m3a84fb9f33" y="640.8"/>
      </g>
     </g>
     <g id="text_7">
      <!-- 700.0 -->
      <defs>
       <path d="M 8.203125 72.90625 
L 55.078125 72.90625 
L 55.078125 68.703125 
L 28.609375 0 
L 18.3125 0 
L 43.21875 64.59375 
L 8.203125 64.59375 
z
" id="DejaVuSans-55"/>
      </defs>
      <g transform="translate(934.493916 655.398438)scale(0.1 -0.1)">
       <use xlink:href="#DejaVuSans-55"/>
       <use x="63.623047" xlink:href="#DejaVuSans-48"/>
       <use x="127.246094" xlink:href="#DejaVuSans-48"/>
       <use x="190.869141" xlink:href="#DejaVuSans-46"/>
       <use x="222.65625" xlink:href="#DejaVuSans-48"/>
      </g>
     </g>
    </g>
    <g id="xtick_8">
     <g id="line2d_8">
      <g>
       <use style="stroke:#000000;stroke-width:0.8;" x="1051.390937" xlink:href="#m3a84fb9f33" y="640.8"/>
      </g>
     </g>
     <g id="text_8">
      <!-- 800.0 -->
      <defs>
       <path d="M 31.78125 34.625 
Q 24.75 34.625 20.71875 30.859375 
Q 16.703125 27.09375 16.703125 20.515625 
Q 16.703125 13.921875 20.71875 10.15625 
Q 24.75 6.390625 31.78125 6.390625 
Q 38.8125 6.390625 42.859375 10.171875 
Q 46.921875 13.96875 46.921875 20.515625 
Q 46.921875 27.09375 42.890625 30.859375 
Q 38.875 34.625 31.78125 34.625 
z
M 21.921875 38.8125 
Q 15.578125 40.375 12.03125 44.71875 
Q 8.5 49.078125 8.5 55.328125 
Q 8.5 64.0625 14.71875 69.140625 
Q 20.953125 74.21875 31.78125 74.21875 
Q 42.671875 74.21875 48.875 69.140625 
Q 55.078125 64.0625 55.078125 55.328125 
Q 55.078125 49.078125 51.53125 44.71875 
Q 48 40.375 41.703125 38.8125 
Q 48.828125 37.15625 52.796875 32.3125 
Q 56.78125 27.484375 56.78125 20.515625 
Q 56.78125 9.90625 50.3125 4.234375 
Q 43.84375 -1.421875 31.78125 -1.421875 
Q 19.734375 -1.421875 13.25 4.234375 
Q 6.78125 9.90625 6.78125 20.515625 
Q 6.78125 27.484375 10.78125 32.3125 
Q 14.796875 37.15625 21.921875 38.8125 
z
M 18.3125 54.390625 
Q 18.3125 48.734375 21.84375 45.5625 
Q 25.390625 42.390625 31.78125 42.390625 
Q 38.140625 42.390625 41.71875 45.5625 
Q 45.3125 48.734375 45.3125 54.390625 
Q 45.3125 60.0625 41.71875 63.234375 
Q 38.140625 66.40625 31.78125 66.40625 
Q 25.390625 66.40625 21.84375 63.234375 
Q 18.3125 60.0625 18.3125 54.390625 
z
" id="DejaVuSans-56"/>
      </defs>
      <g transform="translate(1037.076874 655.398438)scale(0.1 -0.1)">
       <use xlink:href="#DejaVuSans-56"/>
       <use x="63.623047" xlink:href="#DejaVuSans-48"/>
       <use x="127.246094" xlink:href="#DejaVuSans-48"/>
       <use x="190.869141" xlink:href="#DejaVuSans-46"/>
       <use x="222.65625" xlink:href="#DejaVuSans-48"/>
      </g>
     </g>
    </g>
    <g id="xtick_9">
     <g id="line2d_9">
      <g>
       <use style="stroke:#000000;stroke-width:0.8;" x="1153.973895" xlink:href="#m3a84fb9f33" y="640.8"/>
      </g>
     </g>
     <g id="text_9">
      <!-- 900.0 -->
      <defs>
       <path d="M 10.984375 1.515625 
L 10.984375 10.5 
Q 14.703125 8.734375 18.5 7.8125 
Q 22.3125 6.890625 25.984375 6.890625 
Q 35.75 6.890625 40.890625 13.453125 
Q 46.046875 20.015625 46.78125 33.40625 
Q 43.953125 29.203125 39.59375 26.953125 
Q 35.25 24.703125 29.984375 24.703125 
Q 19.046875 24.703125 12.671875 31.3125 
Q 6.296875 37.9375 6.296875 49.421875 
Q 6.296875 60.640625 12.9375 67.421875 
Q 19.578125 74.21875 30.609375 74.21875 
Q 43.265625 74.21875 49.921875 64.515625 
Q 56.59375 54.828125 56.59375 36.375 
Q 56.59375 19.140625 48.40625 8.859375 
Q 40.234375 -1.421875 26.421875 -1.421875 
Q 22.703125 -1.421875 18.890625 -0.6875 
Q 15.09375 0.046875 10.984375 1.515625 
z
M 30.609375 32.421875 
Q 37.25 32.421875 41.125 36.953125 
Q 45.015625 41.5 45.015625 49.421875 
Q 45.015625 57.28125 41.125 61.84375 
Q 37.25 66.40625 30.609375 66.40625 
Q 23.96875 66.40625 20.09375 61.84375 
Q 16.21875 57.28125 16.21875 49.421875 
Q 16.21875 41.5 20.09375 36.953125 
Q 23.96875 32.421875 30.609375 32.421875 
z
" id="DejaVuSans-57"/>
      </defs>
      <g transform="translate(1139.659832 655.398438)scale(0.1 -0.1)">
       <use xlink:href="#DejaVuSans-57"/>
       <use x="63.623047" xlink:href="#DejaVuSans-48"/>
       <use x="127.246094" xlink:href="#DejaVuSans-48"/>
       <use x="190.869141" xlink:href="#DejaVuSans-46"/>
       <use x="222.65625" xlink:href="#DejaVuSans-48"/>
      </g>
     </g>
    </g>
    <g id="xtick_10">
     <g id="line2d_10">
      <g>
       <use style="stroke:#000000;stroke-width:0.8;" x="1256.556853" xlink:href="#m3a84fb9f33" y="640.8"/>
      </g>
     </g>
     <g id="text_10">
      <!-- 1000.0 -->
      <g transform="translate(1239.06154 655.398438)scale(0.1 -0.1)">
       <use xlink:href="#DejaVuSans-49"/>
       <use x="63.623047" xlink:href="#DejaVuSans-48"/>
       <use x="127.246094" xlink:href="#DejaVuSans-48"/>
       <use x="190.869141" xlink:href="#DejaVuSans-48"/>
       <use x="254.492188" xlink:href="#DejaVuSans-46"/>
       <use x="286.279297" xlink:href="#DejaVuSans-48"/>
      </g>
     </g>
    </g>
    <g id="text_11">
     <!-- n -->
     <defs>
      <path d="M 54.890625 33.015625 
L 54.890625 0 
L 45.90625 0 
L 45.90625 32.71875 
Q 45.90625 40.484375 42.875 44.328125 
Q 39.84375 48.1875 33.796875 48.1875 
Q 26.515625 48.1875 22.3125 43.546875 
Q 18.109375 38.921875 18.109375 30.90625 
L 18.109375 0 
L 9.078125 0 
L 9.078125 54.6875 
L 18.109375 54.6875 
L 18.109375 46.1875 
Q 21.34375 51.125 25.703125 53.5625 
Q 30.078125 56 35.796875 56 
Q 45.21875 56 50.046875 50.171875 
Q 54.890625 44.34375 54.890625 33.015625 
z
" id="DejaVuSans-110"/>
     </defs>
     <g transform="translate(734.83125 669.076563)scale(0.1 -0.1)">
      <use xlink:href="#DejaVuSans-110"/>
     </g>
    </g>
   </g>
   <g id="matplotlib.axis_2">
    <g id="ytick_1">
     <g id="line2d_11">
      <defs>
       <path d="M 0 0 
L -3.5 0 
" id="m102b8d1aa9" style="stroke:#000000;stroke-width:0.8;"/>
      </defs>
      <g>
       <use style="stroke:#000000;stroke-width:0.8;" x="180" xlink:href="#m102b8d1aa9" y="634.989239"/>
      </g>
     </g>
     <g id="text_12">
      <!-- 0 -->
      <g transform="translate(166.6375 638.788458)scale(0.1 -0.1)">
       <use xlink:href="#DejaVuSans-48"/>
      </g>
     </g>
    </g>
    <g id="ytick_2">
     <g id="line2d_12">
      <g>
       <use style="stroke:#000000;stroke-width:0.8;" x="180" xlink:href="#m102b8d1aa9" y="535.877525"/>
      </g>
     </g>
     <g id="text_13">
      <!-- 100 -->
      <g transform="translate(153.9125 539.676744)scale(0.1 -0.1)">
       <use xlink:href="#DejaVuSans-49"/>
       <use x="63.623047" xlink:href="#DejaVuSans-48"/>
       <use x="127.246094" xlink:href="#DejaVuSans-48"/>
      </g>
     </g>
    </g>
    <g id="ytick_3">
     <g id="line2d_13">
      <g>
       <use style="stroke:#000000;stroke-width:0.8;" x="180" xlink:href="#m102b8d1aa9" y="436.765812"/>
      </g>
     </g>
     <g id="text_14">
      <!-- 200 -->
      <g transform="translate(153.9125 440.56503)scale(0.1 -0.1)">
       <use xlink:href="#DejaVuSans-50"/>
       <use x="63.623047" xlink:href="#DejaVuSans-48"/>
       <use x="127.246094" xlink:href="#DejaVuSans-48"/>
      </g>
     </g>
    </g>
    <g id="ytick_4">
     <g id="line2d_14">
      <g>
       <use style="stroke:#000000;stroke-width:0.8;" x="180" xlink:href="#m102b8d1aa9" y="337.654098"/>
      </g>
     </g>
     <g id="text_15">
      <!-- 300 -->
      <g transform="translate(153.9125 341.453317)scale(0.1 -0.1)">
       <use xlink:href="#DejaVuSans-51"/>
       <use x="63.623047" xlink:href="#DejaVuSans-48"/>
       <use x="127.246094" xlink:href="#DejaVuSans-48"/>
      </g>
     </g>
    </g>
    <g id="ytick_5">
     <g id="line2d_15">
      <g>
       <use style="stroke:#000000;stroke-width:0.8;" x="180" xlink:href="#m102b8d1aa9" y="238.542384"/>
      </g>
     </g>
     <g id="text_16">
      <!-- 400 -->
      <g transform="translate(153.9125 242.341603)scale(0.1 -0.1)">
       <use xlink:href="#DejaVuSans-52"/>
       <use x="63.623047" xlink:href="#DejaVuSans-48"/>
       <use x="127.246094" xlink:href="#DejaVuSans-48"/>
      </g>
     </g>
    </g>
    <g id="ytick_6">
     <g id="line2d_16">
      <g>
       <use style="stroke:#000000;stroke-width:0.8;" x="180" xlink:href="#m102b8d1aa9" y="139.43067"/>
      </g>
     </g>
     <g id="text_17">
      <!-- 500 -->
      <g transform="translate(153.9125 143.229889)scale(0.1 -0.1)">
       <use xlink:href="#DejaVuSans-53"/>
       <use x="63.623047" xlink:href="#DejaVuSans-48"/>
       <use x="127.246094" xlink:href="#DejaVuSans-48"/>
      </g>
     </g>
    </g>
    <g id="text_18">
     <!-- speedup -->
     <defs>
      <path d="M 44.28125 53.078125 
L 44.28125 44.578125 
Q 40.484375 46.53125 36.375 47.5 
Q 32.28125 48.484375 27.875 48.484375 
Q 21.1875 48.484375 17.84375 46.4375 
Q 14.5 44.390625 14.5 40.28125 
Q 14.5 37.15625 16.890625 35.375 
Q 19.28125 33.59375 26.515625 31.984375 
L 29.59375 31.296875 
Q 39.15625 29.25 43.1875 25.515625 
Q 47.21875 21.78125 47.21875 15.09375 
Q 47.21875 7.46875 41.1875 3.015625 
Q 35.15625 -1.421875 24.609375 -1.421875 
Q 20.21875 -1.421875 15.453125 -0.5625 
Q 10.6875 0.296875 5.421875 2 
L 5.421875 11.28125 
Q 10.40625 8.6875 15.234375 7.390625 
Q 20.0625 6.109375 24.8125 6.109375 
Q 31.15625 6.109375 34.5625 8.28125 
Q 37.984375 10.453125 37.984375 14.40625 
Q 37.984375 18.0625 35.515625 20.015625 
Q 33.0625 21.96875 24.703125 23.78125 
L 21.578125 24.515625 
Q 13.234375 26.265625 9.515625 29.90625 
Q 5.8125 33.546875 5.8125 39.890625 
Q 5.8125 47.609375 11.28125 51.796875 
Q 16.75 56 26.8125 56 
Q 31.78125 56 36.171875 55.265625 
Q 40.578125 54.546875 44.28125 53.078125 
z
" id="DejaVuSans-115"/>
      <path d="M 18.109375 8.203125 
L 18.109375 -20.796875 
L 9.078125 -20.796875 
L 9.078125 54.6875 
L 18.109375 54.6875 
L 18.109375 46.390625 
Q 20.953125 51.265625 25.265625 53.625 
Q 29.59375 56 35.59375 56 
Q 45.5625 56 51.78125 48.09375 
Q 58.015625 40.1875 58.015625 27.296875 
Q 58.015625 14.40625 51.78125 6.484375 
Q 45.5625 -1.421875 35.59375 -1.421875 
Q 29.59375 -1.421875 25.265625 0.953125 
Q 20.953125 3.328125 18.109375 8.203125 
z
M 48.6875 27.296875 
Q 48.6875 37.203125 44.609375 42.84375 
Q 40.53125 48.484375 33.40625 48.484375 
Q 26.265625 48.484375 22.1875 42.84375 
Q 18.109375 37.203125 18.109375 27.296875 
Q 18.109375 17.390625 22.1875 11.75 
Q 26.265625 6.109375 33.40625 6.109375 
Q 40.53125 6.109375 44.609375 11.75 
Q 48.6875 17.390625 48.6875 27.296875 
z
" id="DejaVuSans-112"/>
      <path d="M 56.203125 29.59375 
L 56.203125 25.203125 
L 14.890625 25.203125 
Q 15.484375 15.921875 20.484375 11.0625 
Q 25.484375 6.203125 34.421875 6.203125 
Q 39.59375 6.203125 44.453125 7.46875 
Q 49.3125 8.734375 54.109375 11.28125 
L 54.109375 2.78125 
Q 49.265625 0.734375 44.1875 -0.34375 
Q 39.109375 -1.421875 33.890625 -1.421875 
Q 20.796875 -1.421875 13.15625 6.1875 
Q 5.515625 13.8125 5.515625 26.8125 
Q 5.515625 40.234375 12.765625 48.109375 
Q 20.015625 56 32.328125 56 
Q 43.359375 56 49.78125 48.890625 
Q 56.203125 41.796875 56.203125 29.59375 
z
M 47.21875 32.234375 
Q 47.125 39.59375 43.09375 43.984375 
Q 39.0625 48.390625 32.421875 48.390625 
Q 24.90625 48.390625 20.390625 44.140625 
Q 15.875 39.890625 15.1875 32.171875 
z
" id="DejaVuSans-101"/>
      <path d="M 45.40625 46.390625 
L 45.40625 75.984375 
L 54.390625 75.984375 
L 54.390625 0 
L 45.40625 0 
L 45.40625 8.203125 
Q 42.578125 3.328125 38.25 0.953125 
Q 33.9375 -1.421875 27.875 -1.421875 
Q 17.96875 -1.421875 11.734375 6.484375 
Q 5.515625 14.40625 5.515625 27.296875 
Q 5.515625 40.1875 11.734375 48.09375 
Q 17.96875 56 27.875 56 
Q 33.9375 56 38.25 53.625 
Q 42.578125 51.265625 45.40625 46.390625 
z
M 14.796875 27.296875 
Q 14.796875 17.390625 18.875 11.75 
Q 22.953125 6.109375 30.078125 6.109375 
Q 37.203125 6.109375 41.296875 11.75 
Q 45.40625 17.390625 45.40625 27.296875 
Q 45.40625 37.203125 41.296875 42.84375 
Q 37.203125 48.484375 30.078125 48.484375 
Q 22.953125 48.484375 18.875 42.84375 
Q 14.796875 37.203125 14.796875 27.296875 
z
" id="DejaVuSans-100"/>
      <path d="M 8.5 21.578125 
L 8.5 54.6875 
L 17.484375 54.6875 
L 17.484375 21.921875 
Q 17.484375 14.15625 20.5 10.265625 
Q 23.53125 6.390625 29.59375 6.390625 
Q 36.859375 6.390625 41.078125 11.03125 
Q 45.3125 15.671875 45.3125 23.6875 
L 45.3125 54.6875 
L 54.296875 54.6875 
L 54.296875 0 
L 45.3125 0 
L 45.3125 8.40625 
Q 42.046875 3.421875 37.71875 1 
Q 33.40625 -1.421875 27.6875 -1.421875 
Q 18.265625 -1.421875 13.375 4.4375 
Q 8.5 10.296875 8.5 21.578125 
z
M 31.109375 56 
z
" id="DejaVuSans-117"/>
     </defs>
     <g transform="translate(147.832812 385.049219)rotate(-90)scale(0.1 -0.1)">
      <use xlink:href="#DejaVuSans-115"/>
      <use x="52.099609" xlink:href="#DejaVuSans-112"/>
      <use x="115.576172" xlink:href="#DejaVuSans-101"/>
      <use x="177.099609" xlink:href="#DejaVuSans-101"/>
      <use x="238.623047" xlink:href="#DejaVuSans-100"/>
      <use x="302.099609" xlink:href="#DejaVuSans-117"/>
      <use x="365.478516" xlink:href="#DejaVuSans-112"/>
     </g>
    </g>
   </g>
   <g id="line2d_17">
    <path clip-path="url(#pb2b81df90d)" d="M 230.727273 307.051076 
L 231.753102 350.662474 
L 232.778932 165.392844 
L 233.804761 369.313511 
L 234.830591 221.910148 
L 235.856421 371.138933 
L 236.88225 381.867928 
L 237.90808 211.211484 
L 238.933909 405.534777 
L 239.959739 249.362996 
L 240.985569 245.512175 
L 242.011398 254.977167 
L 243.037228 259.870396 
L 244.063057 401.011361 
L 245.088887 278.157977 
L 246.114716 280.826328 
L 247.140546 291.52243 
L 248.166376 305.915293 
L 249.192205 322.738778 
L 250.218035 307.551615 
L 251.243864 320.59453 
L 252.269694 341.16524 
L 253.295523 323.983417 
L 254.321353 350.3714 
L 255.347183 436.302086 
L 256.373012 345.276092 
L 257.398842 356.347656 
L 258.424671 355.561634 
L 259.450501 360.166639 
L 260.476331 378.600939 
L 261.50216 389.180617 
L 262.52799 378.309669 
L 263.553819 380.22767 
L 264.579649 383.108161 
L 265.605478 391.409551 
L 266.631308 398.22346 
L 267.657138 396.556642 
L 268.682967 411.821958 
L 269.708797 406.006674 
L 270.734626 408.645009 
L 271.760456 411.59414 
L 272.786286 413.456107 
L 273.812115 420.256321 
L 274.837945 421.319717 
L 275.863774 420.305411 
L 276.889604 427.763849 
L 277.915433 430.756388 
L 278.941263 430.803849 
L 279.967093 435.20442 
L 280.992922 438.723582 
L 282.018752 441.391415 
L 283.044581 443.655025 
L 284.070411 446.91037 
L 285.09624 451.026484 
L 286.12207 452.924135 
L 287.1479 453.058667 
L 288.173729 456.832867 
L 289.199559 457.774107 
L 290.225388 459.766978 
L 291.251218 462.926101 
L 292.277048 461.64486 
L 293.302877 466.736458 
L 294.328707 469.261449 
L 295.354536 466.026951 
L 296.380366 470.817855 
L 297.406195 474.025332 
L 300.483684 478.80677 
L 301.509514 479.223557 
L 302.535343 477.973299 
L 303.561173 483.444839 
L 304.587002 484.086265 
L 305.612832 489.019119 
L 306.638662 485.527935 
L 307.664491 486.469105 
L 308.690321 487.604868 
L 309.71615 491.436087 
L 310.74198 503.788299 
L 311.76781 492.406917 
L 312.793639 492.41151 
L 313.819469 495.21122 
L 314.845298 496.681551 
L 315.871128 495.398339 
L 316.896957 498.323826 
L 317.922787 499.505672 
L 318.948617 501.000492 
L 319.974446 501.685227 
L 321.000276 501.274666 
L 322.026105 505.380709 
L 323.051935 505.388236 
L 324.077765 504.382554 
L 325.103594 506.099778 
L 326.129424 512.687083 
L 327.155253 508.908134 
L 328.181083 509.977421 
L 329.206912 508.478141 
L 330.232742 511.889305 
L 331.258572 511.104918 
L 332.284401 513.426451 
L 335.36189 516.772307 
L 336.387719 516.695241 
L 337.413549 521.363968 
L 338.439379 518.255384 
L 339.465208 518.970403 
L 340.491038 520.124257 
L 341.516867 520.772472 
L 342.542697 519.353248 
L 343.568527 522.683308 
L 344.594356 521.706377 
L 345.620186 524.194794 
L 346.646015 525.398342 
L 348.697674 525.812846 
L 349.723504 524.009804 
L 350.749334 527.050989 
L 351.775163 548.469061 
L 352.800993 528.695391 
L 353.826822 529.416415 
L 354.852652 528.514864 
L 355.878481 532.184232 
L 356.904311 531.016239 
L 357.930141 531.319733 
L 358.95597 533.465083 
L 361.007629 534.903065 
L 362.033459 535.211449 
L 363.059289 534.704673 
L 364.085118 536.281636 
L 365.110948 536.258245 
L 366.136777 537.585244 
L 367.162607 538.382031 
L 368.188436 539.502149 
L 369.214266 539.043493 
L 370.240096 537.707963 
L 371.265925 540.727138 
L 372.291755 541.109802 
L 373.317584 540.068483 
L 374.343414 542.236912 
L 375.369243 542.090544 
L 376.395073 542.501781 
L 377.420903 543.095455 
L 379.472562 544.749997 
L 380.498391 525.859773 
L 381.524221 546.360213 
L 382.550051 545.812269 
L 383.57588 546.13609 
L 384.60171 542.583378 
L 385.627539 546.872201 
L 387.679198 547.123699 
L 388.705028 548.01149 
L 389.730858 548.121838 
L 390.756687 548.727245 
L 391.782517 566.096694 
L 392.808346 551.06908 
L 393.834176 550.713151 
L 394.860006 549.975907 
L 395.885835 550.874155 
L 396.911665 550.875589 
L 397.937494 551.076416 
L 398.963324 551.963478 
L 401.014983 553.157709 
L 402.040813 553.300475 
L 403.066642 553.216972 
L 404.092472 553.895725 
L 405.118301 554.883815 
L 406.144131 554.838796 
L 409.22162 556.656889 
L 410.247449 556.884619 
L 411.273279 557.329043 
L 412.299108 557.337229 
L 413.324938 558.148007 
L 414.350768 558.031158 
L 415.376597 558.836949 
L 416.402427 558.828706 
L 417.428256 559.30031 
L 418.454086 559.290591 
L 419.479915 559.778299 
L 420.505745 559.398964 
L 421.531575 559.764971 
L 422.557404 560.354878 
L 423.583234 560.481332 
L 425.634893 561.996331 
L 427.686552 562.293011 
L 428.712382 562.499011 
L 429.738211 566.026914 
L 430.764041 563.200962 
L 431.78987 563.93976 
L 432.8157 564.084495 
L 433.84153 564.552209 
L 434.867359 563.973634 
L 435.893189 564.758036 
L 436.919018 565.008968 
L 437.944848 565.984224 
L 438.970677 566.249077 
L 439.996507 565.795253 
L 441.022337 566.289568 
L 442.048166 566.27636 
L 444.099825 566.812367 
L 445.125655 565.560864 
L 446.151485 567.059464 
L 447.177314 567.675562 
L 448.203144 567.620146 
L 449.228973 568.151756 
L 451.280632 568.248583 
L 452.306462 569.598168 
L 453.332292 569.331404 
L 455.383951 569.370566 
L 456.40978 569.895458 
L 457.43561 569.741667 
L 458.461439 570.314299 
L 460.513099 570.397045 
L 462.564758 570.994556 
L 463.590587 571.457299 
L 464.616417 580.683066 
L 465.642247 572.054166 
L 467.693906 571.924936 
L 468.719735 572.358348 
L 470.771394 572.68349 
L 471.797224 573.177756 
L 473.848883 573.282982 
L 474.874713 573.886157 
L 475.900542 574.821226 
L 476.926372 574.215608 
L 477.952201 574.196832 
L 478.978031 573.178089 
L 480.003861 574.320513 
L 481.02969 574.63968 
L 482.05552 574.702637 
L 483.081349 575.346229 
L 485.133009 575.724902 
L 486.158838 576.315379 
L 488.210497 576.554922 
L 490.262156 576.424461 
L 491.287986 577.181433 
L 493.339645 577.455606 
L 494.365475 577.871762 
L 496.417134 578.147848 
L 497.442964 577.867071 
L 498.468793 578.231481 
L 499.494623 578.742956 
L 500.520452 578.609597 
L 501.546282 578.346212 
L 502.572111 578.905461 
L 503.597941 579.204625 
L 504.623771 586.117324 
L 505.6496 578.262662 
L 506.67543 579.568266 
L 507.701259 579.987495 
L 508.727089 579.561796 
L 509.752918 580.039367 
L 510.778748 580.037572 
L 511.804578 580.442593 
L 512.830407 587.225808 
L 513.856237 580.56877 
L 514.882066 580.895014 
L 516.933726 580.629574 
L 517.959555 580.839262 
L 518.985385 581.523204 
L 520.011214 581.757051 
L 521.037044 582.281322 
L 523.088703 581.430839 
L 524.114533 582.348004 
L 525.140362 582.343305 
L 526.166192 581.960395 
L 528.217851 583.049109 
L 529.24368 582.726197 
L 530.26951 582.792903 
L 531.29534 583.113119 
L 532.321169 583.047863 
L 533.346999 583.740707 
L 534.372828 583.742385 
L 535.398658 583.324566 
L 536.424488 584.690868 
L 537.450317 584.45182 
L 538.476147 584.350848 
L 542.579465 584.918002 
L 543.605295 584.989478 
L 544.631124 584.737044 
L 545.656954 584.919376 
L 546.682783 585.422808 
L 547.708613 585.574505 
L 548.734443 585.289234 
L 549.760272 585.863988 
L 551.811931 586.11508 
L 552.837761 585.823059 
L 553.86359 586.294899 
L 554.88942 585.850944 
L 555.91525 585.920388 
L 556.941079 587.22553 
L 557.966909 586.132258 
L 558.992738 586.292513 
L 560.018568 586.986476 
L 561.044397 587.242347 
L 562.070227 587.341863 
L 563.096057 586.767262 
L 564.121886 586.945552 
L 566.173545 587.592727 
L 567.199375 587.114942 
L 568.225205 587.855643 
L 569.251034 588.297573 
L 570.276864 588.304727 
L 571.302693 587.544063 
L 573.354352 587.95177 
L 574.380182 588.123554 
L 575.406012 593.176207 
L 576.431841 588.713584 
L 577.457671 588.66528 
L 578.4835 589.26565 
L 579.50933 587.181732 
L 580.535159 589.49426 
L 581.560989 589.358618 
L 582.586819 589.647812 
L 583.612648 589.709891 
L 584.638478 589.88565 
L 585.664307 589.510317 
L 586.690137 590.163118 
L 587.715967 589.425043 
L 588.741796 590.239292 
L 589.767626 590.48837 
L 590.793455 590.088049 
L 591.819285 590.503571 
L 592.845114 594.818659 
L 593.870944 591.102014 
L 594.896774 590.55796 
L 595.922603 590.802067 
L 596.948433 590.930316 
L 597.974262 591.254377 
L 599.000092 590.8032 
L 600.025922 591.321176 
L 601.051751 591.395704 
L 602.077581 591.178831 
L 603.10341 591.816177 
L 604.12924 591.432868 
L 605.155069 591.266309 
L 606.180899 592.251243 
L 607.206729 591.769361 
L 608.232558 592.470661 
L 609.258388 592.773004 
L 610.284217 592.291381 
L 611.310047 591.276385 
L 612.335876 591.722468 
L 613.361706 592.88822 
L 615.413365 592.978906 
L 616.439195 592.069257 
L 617.465024 592.652947 
L 618.490854 592.721942 
L 620.542513 593.466691 
L 621.568343 593.487028 
L 622.594172 593.211857 
L 623.620002 593.766281 
L 624.645831 593.788656 
L 625.671661 593.509714 
L 629.774979 594.05231 
L 630.800809 593.592825 
L 631.826638 594.165527 
L 633.878298 594.128972 
L 634.904127 594.548814 
L 636.955786 594.519127 
L 637.981616 594.145403 
L 639.007446 594.906595 
L 640.033275 594.972986 
L 641.059105 595.412731 
L 642.084934 595.347839 
L 643.110764 594.741426 
L 644.136593 595.51646 
L 645.162423 595.374 
L 646.188253 594.189269 
L 647.214082 595.431463 
L 648.239912 595.262475 
L 649.265741 595.902096 
L 650.291571 595.649653 
L 651.3174 596.024514 
L 652.34323 595.374588 
L 653.36906 595.929643 
L 655.420719 596.170651 
L 656.446548 596.185505 
L 657.472378 596.043387 
L 659.524037 596.441816 
L 660.549867 596.556496 
L 661.575696 596.264908 
L 663.627355 596.812175 
L 664.653185 596.576458 
L 665.679015 599.892995 
L 666.704844 596.611432 
L 667.730674 597.638357 
L 668.756503 597.286259 
L 669.782333 600.418861 
L 670.808163 597.275324 
L 672.859822 597.206057 
L 673.885651 597.295264 
L 675.93731 597.687321 
L 676.96314 597.669493 
L 677.98897 597.503113 
L 679.014799 597.684959 
L 680.040629 597.294015 
L 681.066458 597.958076 
L 682.092288 597.657973 
L 683.118117 597.716866 
L 684.143947 598.086535 
L 685.169777 597.862542 
L 686.195606 597.908071 
L 687.221436 598.334701 
L 688.247265 598.238858 
L 689.273095 598.415236 
L 690.298925 601.369573 
L 691.324754 598.164331 
L 694.402243 598.76324 
L 695.428072 598.82579 
L 696.453902 598.322531 
L 697.479732 598.910035 
L 699.531391 598.491322 
L 700.55722 598.576478 
L 701.58305 598.787904 
L 702.608879 599.266059 
L 704.660539 598.855292 
L 705.686368 599.369947 
L 706.712198 599.573038 
L 707.738027 599.329142 
L 708.763857 599.534974 
L 712.867175 599.541479 
L 713.893005 599.845117 
L 714.918834 599.738151 
L 715.944664 600.334777 
L 716.970494 601.103289 
L 717.996323 599.736136 
L 719.022153 599.759568 
L 720.047982 599.468487 
L 721.073812 600.435709 
L 722.099642 599.961468 
L 725.17713 600.264089 
L 726.20296 600.688946 
L 727.228789 600.507411 
L 728.254619 600.673833 
L 729.280449 600.393548 
L 731.332108 600.834921 
L 732.357937 600.60949 
L 733.383767 600.842101 
L 735.435426 600.903669 
L 736.461256 600.662643 
L 737.487085 601.009313 
L 738.512915 601.22157 
L 739.538744 600.910335 
L 741.590404 601.356041 
L 742.616233 601.16107 
L 743.642063 601.227913 
L 744.667892 601.595134 
L 745.693722 602.667515 
L 746.719551 601.880217 
L 747.745381 601.902221 
L 748.771211 601.522681 
L 749.79704 601.856701 
L 750.82287 601.563426 
L 751.848699 602.237408 
L 752.874529 601.641815 
L 753.900358 601.692763 
L 754.926188 601.930581 
L 755.952018 601.80014 
L 756.977847 602.025709 
L 758.003677 602.037161 
L 759.029506 602.470954 
L 760.055336 602.054716 
L 761.081166 602.000764 
L 762.106995 602.115525 
L 763.132825 602.071955 
L 764.158654 602.275723 
L 765.184484 602.315519 
L 766.210313 602.607974 
L 767.236143 602.407427 
L 768.261973 602.480287 
L 769.287802 602.427155 
L 770.313632 602.833621 
L 774.41695 602.955763 
L 775.44278 602.850415 
L 776.468609 603.170201 
L 777.494439 605.206507 
L 778.520268 603.158525 
L 779.546098 603.245492 
L 780.571928 603.561511 
L 781.597757 603.21718 
L 782.623587 603.287413 
L 784.675246 603.134564 
L 785.701075 603.358412 
L 786.726905 603.431568 
L 787.752735 603.245074 
L 788.778564 603.590899 
L 789.804394 603.466336 
L 790.830223 603.653113 
L 792.881883 603.704949 
L 793.907712 604.07844 
L 794.933542 603.902134 
L 795.959371 605.70664 
L 796.985201 604.274343 
L 798.01103 603.697632 
L 799.03686 606.230131 
L 800.06269 603.905762 
L 801.088519 603.904617 
L 802.114349 604.022746 
L 803.140178 603.9513 
L 804.166008 604.015117 
L 805.191837 604.215928 
L 806.217667 603.976833 
L 807.243497 604.267774 
L 808.269326 604.070987 
L 809.295156 604.325923 
L 811.346815 604.257339 
L 812.372645 602.343765 
L 813.398474 603.666545 
L 814.424304 604.716251 
L 817.501792 604.651402 
L 818.527622 604.914703 
L 819.553452 604.880532 
L 820.579281 605.020092 
L 821.605111 605.299227 
L 822.63094 605.263206 
L 823.65677 604.657341 
L 827.760088 605.256485 
L 829.811747 605.133954 
L 830.837577 605.393105 
L 831.863407 605.101829 
L 832.889236 605.328904 
L 833.915066 605.431794 
L 835.966725 605.297544 
L 838.018384 605.454374 
L 839.044214 605.736591 
L 840.070043 605.356517 
L 841.095873 605.410187 
L 842.121702 605.686605 
L 843.147532 605.135777 
L 844.173362 607.599103 
L 845.199191 605.537074 
L 846.225021 605.846206 
L 847.25085 605.944874 
L 849.302509 605.705589 
L 850.328339 605.635583 
L 851.354169 607.068411 
L 852.379998 606.41949 
L 853.405828 606.058188 
L 854.431657 606.043166 
L 855.457487 606.309813 
L 856.483316 606.162096 
L 857.509146 606.126878 
L 858.534976 606.20628 
L 859.560805 606.51486 
L 860.586635 606.524004 
L 861.612464 605.873385 
L 863.664124 606.341281 
L 864.689953 606.167293 
L 865.715783 606.448772 
L 866.741612 606.601599 
L 867.767442 606.476103 
L 868.793271 606.472635 
L 869.819101 606.326184 
L 870.844931 606.721681 
L 871.87076 606.809422 
L 872.89659 606.65639 
L 873.922419 606.77948 
L 874.948249 607.085663 
L 875.974078 606.979273 
L 876.999908 606.696986 
L 878.025738 606.6203 
L 879.051567 606.891273 
L 880.077397 606.888189 
L 881.103226 607.15883 
L 882.129056 606.898054 
L 883.154886 607.431862 
L 884.180715 607.089686 
L 885.206545 607.039885 
L 886.232374 607.27741 
L 887.258204 607.039141 
L 890.335693 607.167722 
L 891.361522 607.531306 
L 892.387352 607.32881 
L 894.439011 607.295034 
L 895.464841 607.532599 
L 896.49067 607.639438 
L 899.568159 607.489536 
L 900.593988 607.978673 
L 901.619818 607.611145 
L 902.645648 607.496769 
L 905.723136 608.073079 
L 907.774795 608.196859 
L 908.800625 607.55892 
L 909.826455 607.648199 
L 910.852284 607.906707 
L 912.903943 607.983585 
L 913.929773 607.917745 
L 914.955603 607.982843 
L 915.981432 608.177543 
L 917.007262 608.161862 
L 918.033091 608.265327 
L 919.058921 608.155496 
L 921.11058 608.301331 
L 922.13641 608.180656 
L 923.162239 608.413214 
L 924.188069 608.139714 
L 925.213898 608.495455 
L 926.239728 608.281325 
L 927.265557 609.892876 
L 928.291387 608.857137 
L 929.317217 608.480248 
L 930.343046 608.812072 
L 932.394705 608.611851 
L 933.420535 608.978363 
L 936.498024 608.693006 
L 937.523853 609.078938 
L 938.549683 608.835212 
L 940.601342 608.975056 
L 941.627172 608.997529 
L 942.653001 608.799826 
L 943.678831 609.070869 
L 945.73049 609.005164 
L 946.75632 609.273851 
L 948.807979 609.016543 
L 950.859638 609.015112 
L 951.885467 609.382302 
L 952.911297 609.255583 
L 953.937127 609.619409 
L 954.962956 610.215182 
L 955.988786 609.711433 
L 958.040445 609.654778 
L 959.066274 609.05288 
L 961.117934 609.42359 
L 962.143763 609.526704 
L 963.169593 609.391254 
L 965.221252 609.49587 
L 966.247082 609.804301 
L 967.272911 609.71408 
L 968.298741 609.846513 
L 969.32457 609.640511 
L 970.3504 610.920031 
L 971.376229 609.752093 
L 972.402059 611.051918 
L 973.427889 609.751543 
L 974.453718 609.838408 
L 975.479548 609.641583 
L 976.505377 609.602078 
L 978.557036 609.885662 
L 979.582866 609.775391 
L 981.634525 610.015092 
L 982.660355 609.850681 
L 985.737844 610.013968 
L 986.763673 610.140749 
L 987.789503 610.43094 
L 988.815332 610.165418 
L 989.841162 610.28869 
L 990.866991 610.048279 
L 991.892821 610.161501 
L 992.918651 607.370101 
L 993.94448 610.562071 
L 994.97031 610.252308 
L 997.021969 610.142573 
L 998.047799 610.504314 
L 1000.099458 610.324942 
L 1002.151117 610.543228 
L 1003.176946 610.487085 
L 1004.202776 610.64789 
L 1005.228606 610.448566 
L 1006.254435 610.58611 
L 1007.280265 610.856754 
L 1008.306094 610.596626 
L 1009.331924 610.813654 
L 1010.357753 610.619585 
L 1011.383583 610.731677 
L 1013.435242 610.560892 
L 1014.461072 610.827597 
L 1017.538561 610.705334 
L 1018.56439 610.943049 
L 1019.59022 610.918111 
L 1020.616049 610.440966 
L 1021.641879 610.823449 
L 1023.693538 611.246786 
L 1024.719368 610.820951 
L 1026.771027 611.158316 
L 1029.848515 610.920531 
L 1032.926004 611.285705 
L 1034.977663 611.237707 
L 1036.003493 611.128364 
L 1037.029323 611.149902 
L 1038.055152 610.819283 
L 1039.080982 611.312071 
L 1040.106811 611.254537 
L 1041.132641 611.697155 
L 1042.15847 612.741818 
L 1043.1843 611.602852 
L 1044.21013 611.65882 
L 1045.235959 611.38227 
L 1048.313448 611.57598 
L 1049.339278 611.764463 
L 1050.365107 611.43983 
L 1051.390937 611.67488 
L 1052.416766 611.783683 
L 1053.442596 612.094723 
L 1054.468425 611.628715 
L 1055.494255 611.373929 
L 1056.520085 611.602162 
L 1057.545914 611.672582 
L 1058.571744 611.542778 
L 1059.597573 611.799678 
L 1060.623403 611.782355 
L 1061.649232 612.116095 
L 1062.675062 612.10962 
L 1063.700892 611.786222 
L 1065.752551 611.784896 
L 1066.77838 612.296481 
L 1067.80421 612.322408 
L 1068.83004 612.036477 
L 1069.855869 612.046535 
L 1070.881699 613.182405 
L 1071.907528 612.325141 
L 1073.959187 612.029457 
L 1077.036676 612.08507 
L 1078.062506 612.017554 
L 1079.088335 612.442178 
L 1081.139994 611.843678 
L 1083.191654 612.46255 
L 1084.217483 612.404397 
L 1086.269142 612.50963 
L 1087.294972 612.131628 
L 1088.320802 612.624298 
L 1089.346631 612.32416 
L 1090.372461 612.242548 
L 1091.39829 612.395839 
L 1092.42412 612.356652 
L 1093.449949 612.506661 
L 1095.501609 612.419928 
L 1096.527438 612.317449 
L 1097.553268 612.695482 
L 1098.579097 613.368295 
L 1099.604927 612.536458 
L 1101.656586 612.78287 
L 1102.682416 612.643164 
L 1103.708245 612.632457 
L 1104.734075 612.424201 
L 1105.759904 613.613763 
L 1106.785734 612.724524 
L 1108.837393 612.668328 
L 1110.889052 612.996562 
L 1111.914882 612.809539 
L 1112.940711 612.985123 
L 1116.0182 612.71219 
L 1118.069859 612.984649 
L 1119.095689 612.853066 
L 1120.121519 612.908418 
L 1121.147348 612.81933 
L 1122.173178 613.042923 
L 1123.199007 612.725032 
L 1125.250666 613.010327 
L 1127.302326 613.179571 
L 1128.328155 612.90426 
L 1129.353985 613.102391 
L 1130.379814 614.048664 
L 1131.405644 612.98425 
L 1133.457303 613.052131 
L 1134.483133 613.411372 
L 1135.508962 614.137796 
L 1136.534792 613.028192 
L 1138.586451 613.137195 
L 1139.612281 613.116876 
L 1140.63811 615.316458 
L 1141.66394 613.257102 
L 1144.741428 613.16045 
L 1145.767258 614.275455 
L 1146.793088 613.43408 
L 1147.818917 613.114253 
L 1149.870576 613.621635 
L 1150.896406 613.413445 
L 1153.973895 613.284332 
L 1154.999724 613.446009 
L 1157.051383 613.394259 
L 1158.077213 610.130271 
L 1159.103043 608.317793 
L 1160.128872 612.885066 
L 1161.154702 612.900602 
L 1162.180531 613.631807 
L 1164.23219 613.448381 
L 1165.25802 614.39393 
L 1166.28385 614.284639 
L 1167.309679 613.986904 
L 1168.335509 613.855756 
L 1169.361338 613.53625 
L 1171.412998 613.739721 
L 1173.464657 613.627835 
L 1174.490486 614.661228 
L 1175.516316 613.816375 
L 1176.542145 613.726019 
L 1177.567975 614.056775 
L 1178.593805 613.81741 
L 1179.619634 613.885214 
L 1180.645464 614.085563 
L 1181.671293 613.856341 
L 1182.697123 613.916482 
L 1183.722952 613.741947 
L 1184.748782 613.767702 
L 1185.774612 614.810425 
L 1186.800441 613.83482 
L 1187.826271 613.90729 
L 1188.8521 614.942042 
L 1189.87793 613.834126 
L 1190.90376 614.01087 
L 1192.955419 613.89102 
L 1193.981248 613.968178 
L 1195.007078 613.906344 
L 1198.084567 614.110861 
L 1199.110396 613.810021 
L 1201.162055 614.136211 
L 1202.187885 614.064168 
L 1203.213714 614.260348 
L 1205.265374 614.162505 
L 1206.291203 614.195992 
L 1207.317033 614.356738 
L 1208.342862 614.204916 
L 1209.368692 615.356014 
L 1210.394522 614.209677 
L 1211.420351 614.312835 
L 1212.446181 615.243884 
L 1213.47201 614.209403 
L 1216.549499 614.33287 
L 1217.575329 614.279 
L 1218.601158 614.078437 
L 1219.626988 614.378455 
L 1222.704477 614.263238 
L 1223.730306 614.447083 
L 1224.756136 615.6 
L 1225.781965 614.468895 
L 1229.885284 614.63111 
L 1230.911113 615.278998 
L 1231.936943 614.6721 
L 1232.962772 614.802285 
L 1233.988602 615.395215 
L 1235.014431 614.576291 
L 1236.040261 614.620931 
L 1237.066091 615.497703 
L 1239.11775 614.265646 
L 1240.143579 614.699452 
L 1242.195239 614.645936 
L 1243.221068 614.735652 
L 1244.246898 614.653836 
L 1245.272727 614.783545 
L 1245.272727 614.783545 
" style="fill:none;stroke:#1f77b4;stroke-linecap:square;stroke-width:1.5;"/>
   </g>
   <g id="line2d_18">
    <path clip-path="url(#pb2b81df90d)" d="M 230.727273 225.03036 
L 231.753102 111.6 
L 232.778932 160.992531 
L 233.804761 153.545084 
L 234.830591 180.111445 
L 235.856421 186.455272 
L 236.88225 193.649637 
L 237.90808 204.694037 
L 238.933909 223.650627 
L 239.959739 216.356445 
L 240.985569 227.344058 
L 242.011398 225.997748 
L 243.037228 248.003221 
L 245.088887 272.389057 
L 246.114716 270.526752 
L 248.166376 274.918444 
L 249.192205 290.808315 
L 250.218035 283.276092 
L 251.243864 289.488347 
L 252.269694 292.801674 
L 253.295523 302.154784 
L 254.321353 303.557883 
L 256.373012 324.187708 
L 257.398842 325.305263 
L 258.424671 334.22253 
L 260.476331 345.230482 
L 261.50216 349.926759 
L 262.52799 356.103479 
L 263.553819 375.981659 
L 264.579649 375.10745 
L 265.605478 368.311162 
L 266.631308 371.100913 
L 267.657138 375.978905 
L 268.682967 374.512338 
L 269.708797 381.60637 
L 270.734626 385.707885 
L 272.786286 392.717535 
L 273.812115 400.381178 
L 274.837945 406.021994 
L 275.863774 401.509049 
L 276.889604 400.838325 
L 277.915433 406.805926 
L 278.941263 406.177719 
L 279.967093 411.752028 
L 280.992922 414.210191 
L 282.018752 417.921633 
L 283.044581 420.387627 
L 284.070411 420.868697 
L 285.09624 424.927922 
L 286.12207 426.934993 
L 287.1479 431.458645 
L 288.173729 431.922153 
L 289.199559 478.150362 
L 290.225388 455.542641 
L 291.251218 443.677622 
L 292.277048 442.830745 
L 293.302877 444.550836 
L 294.328707 445.177588 
L 296.380366 450.498466 
L 297.406195 451.709989 
L 298.432025 455.648007 
L 299.457855 453.404888 
L 300.483684 455.788934 
L 301.509514 456.828768 
L 302.535343 458.345613 
L 303.561173 458.25898 
L 304.587002 462.908334 
L 305.612832 462.621299 
L 306.638662 464.284178 
L 307.664491 464.631119 
L 308.690321 467.505793 
L 309.71615 468.897271 
L 310.74198 475.867913 
L 311.76781 471.788935 
L 312.793639 473.083005 
L 313.819469 475.549488 
L 318.948617 482.634517 
L 319.974446 481.59785 
L 321.000276 486.2512 
L 322.026105 485.764743 
L 323.051935 487.896085 
L 324.077765 488.521183 
L 325.103594 502.843941 
L 326.129424 494.648324 
L 327.155253 491.291269 
L 328.181083 491.721586 
L 329.206912 493.152039 
L 330.232742 493.910256 
L 331.258572 495.267746 
L 332.284401 493.44378 
L 333.310231 497.71632 
L 334.33606 498.718455 
L 335.36189 500.442592 
L 336.387719 500.992498 
L 337.413549 502.133223 
L 338.439379 502.466966 
L 339.465208 505.058008 
L 340.491038 504.048701 
L 341.516867 506.664845 
L 342.542697 507.414594 
L 343.568527 509.466595 
L 344.594356 505.238908 
L 345.620186 509.306513 
L 346.646015 507.503378 
L 347.671845 510.483927 
L 348.697674 511.027033 
L 349.723504 510.271223 
L 350.749334 512.016436 
L 351.775163 513.200067 
L 352.800993 513.796986 
L 353.826822 513.80968 
L 354.852652 515.049802 
L 356.904311 516.689112 
L 357.930141 517.936378 
L 358.95597 514.155469 
L 359.9818 519.44833 
L 361.007629 519.177783 
L 362.033459 518.767348 
L 363.059289 520.307604 
L 364.085118 521.362857 
L 365.110948 522.157175 
L 366.136777 522.504383 
L 367.162607 524.004954 
L 368.188436 524.344789 
L 369.214266 524.037055 
L 370.240096 526.239272 
L 371.265925 524.47607 
L 372.291755 526.307734 
L 373.317584 527.35957 
L 374.343414 526.34698 
L 375.369243 528.496739 
L 376.395073 527.501666 
L 377.420903 529.874998 
L 378.446732 534.133651 
L 379.472562 531.927901 
L 380.498391 553.62843 
L 381.524221 534.085181 
L 382.550051 534.46065 
L 383.57588 535.244047 
L 384.60171 536.543316 
L 385.627539 535.225875 
L 386.653369 535.432635 
L 387.679198 535.452991 
L 388.705028 535.81711 
L 390.756687 536.323495 
L 391.782517 536.75621 
L 392.808346 537.372444 
L 393.834176 538.236368 
L 394.860006 538.113837 
L 395.885835 539.365388 
L 396.911665 535.950966 
L 397.937494 538.967849 
L 399.989153 540.479744 
L 402.040813 540.324652 
L 403.066642 541.713853 
L 404.092472 540.277376 
L 405.118301 542.344103 
L 406.144131 543.209204 
L 408.19579 544.393797 
L 409.22162 544.622185 
L 410.247449 543.211229 
L 411.273279 546.02105 
L 412.299108 544.769218 
L 413.324938 544.330656 
L 414.350768 544.141743 
L 415.376597 547.491247 
L 416.402427 547.460386 
L 417.428256 547.271119 
L 418.454086 579.876381 
L 419.479915 547.280242 
L 420.505745 550.250924 
L 421.531575 548.494911 
L 422.557404 550.141975 
L 423.583234 548.541051 
L 424.609063 547.990195 
L 425.634893 550.776608 
L 426.660722 550.378215 
L 427.686552 550.852675 
L 428.712382 549.658697 
L 429.738211 550.904037 
L 430.764041 559.271125 
L 431.78987 551.656341 
L 432.8157 552.024131 
L 433.84153 551.591071 
L 435.893189 555.226869 
L 436.919018 551.514597 
L 437.944848 552.266218 
L 438.970677 553.867216 
L 439.996507 556.337245 
L 441.022337 556.358559 
L 442.048166 556.177629 
L 443.073996 557.321223 
L 444.099825 554.781969 
L 445.125655 557.58605 
L 446.151485 557.622009 
L 447.177314 558.03976 
L 448.203144 557.688154 
L 449.228973 555.732178 
L 450.254803 558.168303 
L 451.280632 558.665001 
L 452.306462 558.026684 
L 453.332292 558.911697 
L 454.358121 560.72745 
L 455.383951 560.251871 
L 456.40978 557.775646 
L 457.43561 560.287243 
L 458.461439 559.723901 
L 459.487269 561.412654 
L 460.513099 560.901669 
L 461.538928 560.567648 
L 462.564758 562.170522 
L 463.590587 562.370024 
L 464.616417 562.794777 
L 465.642247 561.295788 
L 466.668076 563.434862 
L 467.693906 563.318974 
L 468.719735 562.490629 
L 469.745565 563.539033 
L 470.771394 564.208135 
L 471.797224 564.356699 
L 472.823054 563.652762 
L 473.848883 563.935959 
L 474.874713 563.911442 
L 475.900542 565.146133 
L 476.926372 564.22141 
L 477.952201 564.530872 
L 478.978031 563.815272 
L 480.003861 566.421779 
L 481.02969 563.63137 
L 482.05552 566.437802 
L 483.081349 574.450817 
L 484.107179 567.968845 
L 485.133009 565.762447 
L 486.158838 565.952122 
L 488.210497 567.475728 
L 489.236327 565.632188 
L 490.262156 566.547248 
L 491.287986 566.632716 
L 492.313816 568.345406 
L 493.339645 567.830631 
L 494.365475 567.644308 
L 495.391304 568.639141 
L 496.417134 569.372824 
L 497.442964 567.24902 
L 498.468793 568.870372 
L 499.494623 568.228119 
L 500.520452 567.971316 
L 501.546282 568.791746 
L 502.572111 570.937772 
L 503.597941 569.753549 
L 504.623771 568.920373 
L 505.6496 568.945968 
L 506.67543 570.861067 
L 507.701259 570.681219 
L 508.727089 571.357984 
L 509.752918 570.316126 
L 510.778748 571.815658 
L 511.804578 571.2428 
L 512.830407 572.981401 
L 513.856237 570.797027 
L 514.882066 573.345872 
L 515.907896 572.211097 
L 516.933726 572.590681 
L 517.959555 574.068948 
L 518.985385 572.638453 
L 520.011214 571.749235 
L 521.037044 573.051387 
L 522.062873 573.182641 
L 523.088703 572.29298 
L 524.114533 573.669482 
L 525.140362 574.160996 
L 526.166192 574.330001 
L 528.217851 573.401286 
L 529.24368 574.639277 
L 530.26951 574.682844 
L 531.29534 574.995642 
L 532.321169 574.97053 
L 533.346999 574.209896 
L 534.372828 574.812074 
L 535.398658 567.347251 
L 536.424488 576.275727 
L 537.450317 576.144619 
L 538.476147 575.167632 
L 539.501976 575.519681 
L 540.527806 576.608469 
L 541.553635 576.284796 
L 542.579465 577.564654 
L 543.605295 576.068472 
L 544.631124 575.820219 
L 545.656954 576.128128 
L 546.682783 577.348392 
L 547.708613 578.144678 
L 548.734443 577.343125 
L 549.760272 576.840537 
L 550.786102 579.154341 
L 551.811931 578.362904 
L 552.837761 578.00428 
L 553.86359 578.765908 
L 554.88942 577.890012 
L 557.966909 579.430225 
L 558.992738 578.532627 
L 560.018568 578.27794 
L 561.044397 580.448222 
L 562.070227 578.947774 
L 563.096057 579.455627 
L 564.121886 580.312781 
L 565.147716 579.422028 
L 566.173545 580.456158 
L 567.199375 580.284375 
L 568.225205 580.58854 
L 569.251034 581.975944 
L 570.276864 580.571335 
L 571.302693 580.459863 
L 572.328523 579.05337 
L 573.354352 580.871676 
L 574.380182 582.940442 
L 575.406012 580.727589 
L 576.431841 582.746457 
L 577.457671 581.4487 
L 578.4835 581.932824 
L 579.50933 581.424911 
L 580.535159 583.284087 
L 581.560989 581.85192 
L 582.586819 581.181055 
L 583.612648 582.574211 
L 584.638478 581.862206 
L 585.664307 582.880202 
L 586.690137 582.760562 
L 587.715967 588.389699 
L 588.741796 586.094531 
L 589.767626 583.092287 
L 590.793455 583.011593 
L 591.819285 583.821182 
L 592.845114 583.303817 
L 593.870944 584.529796 
L 594.896774 591.446134 
L 595.922603 584.986564 
L 596.948433 583.647221 
L 599.000092 584.304288 
L 600.025922 582.965434 
L 601.051751 585.313847 
L 602.077581 583.921935 
L 603.10341 584.730783 
L 605.155069 584.068943 
L 606.180899 583.836444 
L 609.258388 584.888467 
L 610.284217 584.508312 
L 611.310047 585.164548 
L 612.335876 585.37554 
L 613.361706 584.657554 
L 615.413365 585.509479 
L 616.439195 585.151871 
L 617.465024 585.923434 
L 618.490854 585.581373 
L 620.542513 585.675642 
L 621.568343 586.108835 
L 622.594172 585.852673 
L 623.620002 586.120925 
L 624.645831 585.82111 
L 625.671661 585.826451 
L 626.697491 586.59703 
L 627.72332 586.727354 
L 628.74915 586.714644 
L 629.774979 586.862522 
L 630.800809 586.533555 
L 631.826638 588.186377 
L 632.852468 586.933455 
L 633.878298 587.569738 
L 634.904127 587.590899 
L 635.929957 587.090909 
L 636.955786 587.180506 
L 637.981616 587.889763 
L 639.007446 587.920114 
L 640.033275 587.30747 
L 641.059105 591.030051 
L 642.084934 588.67935 
L 643.110764 588.241694 
L 644.136593 589.88102 
L 645.162423 588.208962 
L 646.188253 588.716176 
L 647.214082 588.467265 
L 648.239912 589.044855 
L 649.265741 588.648943 
L 650.291571 589.230736 
L 651.3174 589.565194 
L 652.34323 588.955656 
L 653.36906 589.69352 
L 654.394889 585.794164 
L 655.420719 588.09614 
L 656.446548 575.552093 
L 657.472378 569.227781 
L 658.498208 573.571875 
L 659.524037 571.637514 
L 660.549867 570.582969 
L 661.575696 571.1189 
L 662.601526 574.165973 
L 663.627355 588.578885 
L 664.653185 590.177192 
L 665.679015 590.460736 
L 666.704844 589.910015 
L 667.730674 590.481636 
L 668.756503 590.415728 
L 669.782333 590.551151 
L 670.808163 590.511362 
L 671.833992 590.029771 
L 672.859822 591.259596 
L 673.885651 591.867422 
L 674.911481 590.396086 
L 675.93731 591.226844 
L 676.96314 591.330559 
L 677.98897 590.825969 
L 679.014799 591.490012 
L 680.040629 591.320571 
L 681.066458 590.815791 
L 682.092288 591.366623 
L 683.118117 592.05266 
L 685.169777 590.334621 
L 686.195606 590.827133 
L 687.221436 586.291231 
L 688.247265 592.765755 
L 689.273095 596.546669 
L 690.298925 582.680499 
L 691.324754 592.922272 
L 692.350584 592.370579 
L 693.376413 594.528286 
L 694.402243 592.951872 
L 695.428072 591.742315 
L 696.453902 589.330669 
L 697.479732 592.39973 
L 698.505561 593.064523 
L 699.531391 590.977217 
L 700.55722 592.700634 
L 701.58305 593.148907 
L 702.608879 593.333505 
L 703.634709 588.862881 
L 704.660539 592.994311 
L 705.686368 593.189703 
L 706.712198 590.71562 
L 707.738027 589.329048 
L 708.763857 593.737208 
L 709.789687 580.15 
L 710.815516 597.198774 
L 711.841346 593.675947 
L 712.867175 589.176862 
L 713.893005 591.250599 
L 714.918834 586.348232 
L 715.944664 586.442074 
L 716.970494 594.963379 
L 717.996323 582.350601 
L 719.022153 586.223238 
L 720.047982 594.639682 
L 721.073812 584.97958 
L 722.099642 592.505054 
L 723.125471 591.785235 
L 724.151301 581.005509 
L 725.17713 599.044019 
L 726.20296 591.395611 
L 727.228789 588.188156 
L 728.254619 594.147827 
L 729.280449 594.205247 
L 730.306278 594.490276 
L 731.332108 595.697221 
L 732.357937 594.435468 
L 733.383767 594.842798 
L 734.409596 595.474191 
L 735.435426 594.979942 
L 736.461256 595.111506 
L 737.487085 586.566542 
L 738.512915 596.10766 
L 739.538744 595.34392 
L 740.564574 594.932812 
L 741.590404 595.304697 
L 742.616233 595.254247 
L 743.642063 595.462165 
L 744.667892 595.409907 
L 745.693722 599.530037 
L 746.719551 596.802414 
L 747.745381 595.883208 
L 748.771211 595.737788 
L 749.79704 596.240484 
L 750.82287 596.191023 
L 751.848699 596.316009 
L 752.874529 595.804006 
L 753.900358 596.139393 
L 754.926188 595.81667 
L 755.952018 596.434874 
L 756.977847 596.203961 
L 759.029506 596.271755 
L 760.055336 596.674048 
L 761.081166 596.783272 
L 762.106995 596.339963 
L 763.132825 599.86762 
L 764.158654 597.041243 
L 765.184484 596.692721 
L 766.210313 596.725887 
L 767.236143 596.599253 
L 768.261973 596.931259 
L 769.287802 598.435057 
L 770.313632 597.083519 
L 771.339461 596.947668 
L 772.365291 597.255012 
L 773.391121 596.98847 
L 774.41695 597.364317 
L 776.468609 597.618012 
L 778.520268 597.419156 
L 779.546098 597.620946 
L 780.571928 597.398049 
L 781.597757 597.84717 
L 782.623587 600.742501 
L 783.649416 597.752618 
L 785.701075 597.842255 
L 787.752735 598.027175 
L 788.778564 597.660622 
L 789.804394 599.064191 
L 790.830223 598.260039 
L 791.856053 597.976248 
L 792.881883 598.336037 
L 793.907712 599.282886 
L 794.933542 597.994042 
L 795.959371 598.537555 
L 796.985201 598.144513 
L 798.01103 598.629013 
L 799.03686 600.522583 
L 800.06269 598.665418 
L 801.088519 598.719315 
L 802.114349 599.082021 
L 804.166008 598.808813 
L 805.191837 599.065343 
L 806.217667 599.15923 
L 808.269326 598.910211 
L 809.295156 599.037931 
L 810.320985 602.088054 
L 811.346815 599.117151 
L 812.372645 599.108271 
L 813.398474 600.121793 
L 814.424304 599.288487 
L 815.450133 599.263725 
L 816.475963 599.539348 
L 817.501792 598.972569 
L 818.527622 599.47591 
L 821.605111 599.588401 
L 822.63094 599.774167 
L 823.65677 599.686107 
L 827.760088 599.997175 
L 828.785918 599.853147 
L 829.811747 600.21358 
L 830.837577 600.043631 
L 831.863407 600.864754 
L 832.889236 599.94886 
L 833.915066 600.393129 
L 834.940895 600.145484 
L 835.966725 600.305664 
L 836.992554 601.354338 
L 838.018384 600.253077 
L 839.044214 600.575763 
L 841.095873 600.56773 
L 842.121702 603.023631 
L 843.147532 600.830432 
L 844.173362 600.437 
L 845.199191 600.620899 
L 846.225021 600.595701 
L 847.25085 600.734521 
L 848.27668 601.001514 
L 849.302509 601.071984 
L 850.328339 604.10985 
L 851.354169 604.39026 
L 852.379998 601.43962 
L 854.431657 601.504238 
L 855.457487 601.301529 
L 856.483316 601.448705 
L 857.509146 601.345721 
L 859.560805 601.589195 
L 860.586635 601.381261 
L 862.638294 601.260052 
L 863.664124 601.157479 
L 864.689953 601.264274 
L 865.715783 601.512417 
L 866.741612 603.660439 
L 867.767442 601.506583 
L 868.793271 601.693006 
L 869.819101 602.922759 
L 870.844931 601.572953 
L 871.87076 601.328451 
L 872.89659 601.745457 
L 873.922419 601.737559 
L 875.974078 602.11376 
L 876.999908 602.358767 
L 878.025738 601.798784 
L 879.051567 601.721763 
L 880.077397 602.130698 
L 881.103226 601.975115 
L 882.129056 602.790492 
L 883.154886 602.040493 
L 885.206545 602.286225 
L 886.232374 602.436304 
L 887.258204 602.352066 
L 888.284033 602.390179 
L 889.309863 602.297766 
L 890.335693 602.542652 
L 891.361522 602.553972 
L 892.387352 602.718991 
L 894.439011 602.567319 
L 895.464841 602.750076 
L 896.49067 602.690822 
L 897.5165 602.068904 
L 898.542329 602.870961 
L 899.568159 602.885249 
L 900.593988 603.13083 
L 901.619818 602.981531 
L 902.645648 603.152489 
L 903.671477 605.809556 
L 904.697307 603.543132 
L 906.748966 603.451148 
L 907.774795 605.666315 
L 908.800625 603.272565 
L 909.826455 603.3612 
L 910.852284 603.574275 
L 911.878114 603.353414 
L 912.903943 603.612107 
L 913.929773 603.427326 
L 917.007262 603.42539 
L 919.058921 603.444037 
L 920.08475 605.913142 
L 921.11058 603.457301 
L 922.13641 603.415514 
L 923.162239 602.522329 
L 924.188069 603.819278 
L 925.213898 602.927654 
L 926.239728 597.990928 
L 927.265557 605.005886 
L 928.291387 605.934466 
L 929.317217 603.732633 
L 930.343046 604.048705 
L 931.368876 603.887968 
L 934.446365 604.182352 
L 935.472194 604.145609 
L 936.498024 603.64099 
L 937.523853 604.203513 
L 938.549683 603.984047 
L 939.575512 604.347155 
L 941.627172 604.299522 
L 942.653001 601.365168 
L 943.678831 592.917528 
L 944.70466 600.004085 
L 945.73049 603.975844 
L 946.75632 604.025451 
L 947.782149 604.607726 
L 948.807979 604.674758 
L 949.833808 604.519177 
L 951.885467 604.574181 
L 952.911297 604.810219 
L 953.937127 604.665825 
L 954.962956 604.388765 
L 955.988786 608.533174 
L 957.014615 601.546282 
L 958.040445 604.329404 
L 959.066274 604.35469 
L 960.092104 603.054521 
L 961.117934 604.171912 
L 962.143763 602.839148 
L 963.169593 603.005353 
L 964.195422 604.246483 
L 965.221252 602.16032 
L 966.247082 603.98693 
L 967.272911 604.239842 
L 968.298741 603.180998 
L 969.32457 602.76115 
L 970.3504 604.001801 
L 971.376229 605.511752 
L 972.402059 604.329676 
L 973.427889 602.811316 
L 974.453718 604.641463 
L 975.479548 606.101671 
L 976.505377 602.932381 
L 977.531207 605.130743 
L 978.557036 604.328119 
L 979.582866 605.092411 
L 980.608696 604.757107 
L 981.634525 604.230205 
L 982.660355 604.800854 
L 983.686184 605.051811 
L 984.712014 604.391147 
L 985.737844 604.48547 
L 986.763673 605.960355 
L 987.789503 606.045119 
L 988.815332 605.650417 
L 989.841162 605.80806 
L 990.866991 607.451633 
L 991.892821 605.947326 
L 992.918651 606.576008 
L 993.94448 605.515042 
L 994.97031 605.225311 
L 995.996139 606.591326 
L 997.021969 605.5304 
L 998.047799 605.240517 
L 999.073628 607.218007 
L 1000.099458 605.394787 
L 1001.125287 604.432436 
L 1002.151117 605.430504 
L 1003.176946 605.612236 
L 1004.202776 603.774066 
L 1005.228606 605.710278 
L 1006.254435 604.834581 
L 1007.280265 605.368724 
L 1008.306094 608.880524 
L 1009.331924 605.08348 
L 1010.357753 606.116793 
L 1011.383583 606.295263 
L 1012.409413 605.338926 
L 1013.435242 606.237189 
L 1014.461072 605.885217 
L 1015.486901 609.407047 
L 1016.512731 606.647373 
L 1017.538561 605.103785 
L 1018.56439 606.250042 
L 1019.59022 606.815494 
L 1020.616049 604.470935 
L 1021.641879 605.935045 
L 1022.667708 606.008875 
L 1023.693538 605.444415 
L 1024.719368 606.14757 
L 1025.745197 605.610014 
L 1026.771027 608.017656 
L 1028.822686 604.912137 
L 1029.848515 606.108613 
L 1030.874345 606.350489 
L 1031.900175 607.125166 
L 1032.926004 606.176136 
L 1033.951834 606.121281 
L 1036.003493 606.656833 
L 1037.029323 606.820168 
L 1038.055152 606.636684 
L 1039.080982 606.898525 
L 1040.106811 606.762654 
L 1041.132641 607.083663 
L 1042.15847 607.102602 
L 1043.1843 608.489223 
L 1044.21013 606.864718 
L 1045.235959 606.896729 
L 1046.261789 607.375761 
L 1047.287618 607.247684 
L 1048.313448 607.314862 
L 1049.339278 606.959416 
L 1050.365107 607.413973 
L 1051.390937 607.378231 
L 1052.416766 607.099238 
L 1054.468425 607.518679 
L 1055.494255 607.670505 
L 1056.520085 607.525886 
L 1058.571744 607.692074 
L 1060.623403 607.764479 
L 1061.649232 608.95319 
L 1062.675062 607.24003 
L 1063.700892 607.368525 
L 1064.726721 608.045039 
L 1065.752551 606.975828 
L 1066.77838 608.237033 
L 1067.80421 606.948664 
L 1068.83004 606.788519 
L 1069.855869 607.048846 
L 1070.881699 606.697362 
L 1071.907528 607.621538 
L 1072.933358 606.825224 
L 1073.959187 606.887963 
L 1074.985017 607.435689 
L 1076.010847 605.338965 
L 1077.036676 606.19693 
L 1078.062506 604.935072 
L 1079.088335 608.166296 
L 1080.114165 609.69265 
L 1081.139994 608.125996 
L 1082.165824 608.355251 
L 1085.243313 608.090911 
L 1086.269142 608.413317 
L 1087.294972 608.283464 
L 1088.320802 608.431152 
L 1089.346631 608.312962 
L 1090.372461 608.491371 
L 1091.39829 609.932817 
L 1092.42412 604.144084 
L 1093.449949 608.404519 
L 1094.475779 608.50672 
L 1097.553268 608.481802 
L 1098.579097 608.721869 
L 1100.630757 608.6854 
L 1101.656586 608.827528 
L 1102.682416 609.894171 
L 1103.708245 608.73403 
L 1104.734075 608.697166 
L 1105.759904 608.375586 
L 1106.785734 608.805289 
L 1109.863223 608.883068 
L 1110.889052 608.983812 
L 1111.914882 608.931157 
L 1112.940711 611.452955 
L 1113.966541 610.821805 
L 1114.992371 609.381182 
L 1116.0182 609.133472 
L 1117.04403 609.371013 
L 1119.095689 609.229068 
L 1120.121519 608.950862 
L 1121.147348 609.101801 
L 1122.173178 609.46857 
L 1123.199007 609.175588 
L 1124.224837 609.047924 
L 1125.250666 610.216683 
L 1126.276496 609.150328 
L 1127.302326 608.930374 
L 1128.328155 609.288353 
L 1129.353985 608.905157 
L 1130.379814 609.327729 
L 1131.405644 609.124992 
L 1132.431473 609.041812 
L 1133.457303 609.246416 
L 1135.508962 609.314301 
L 1136.534792 609.43199 
L 1139.612281 609.313821 
L 1142.689769 609.598565 
L 1144.741428 609.326798 
L 1146.793088 609.641527 
L 1148.844747 609.472129 
L 1149.870576 609.721884 
L 1150.896406 609.563923 
L 1151.922235 609.707093 
L 1154.999724 609.583205 
L 1157.051383 609.68134 
L 1158.077213 609.637215 
L 1159.103043 609.347938 
L 1160.128872 609.794348 
L 1161.154702 609.705325 
L 1162.180531 610.502318 
L 1163.206361 609.81307 
L 1164.23219 610.583209 
L 1165.25802 609.767861 
L 1166.28385 611.845482 
L 1167.309679 610.120501 
L 1168.335509 609.777482 
L 1169.361338 610.101034 
L 1174.490486 609.955835 
L 1175.516316 610.353161 
L 1177.567975 609.965417 
L 1178.593805 610.218425 
L 1179.619634 610.121266 
L 1181.671293 610.186746 
L 1182.697123 610.076733 
L 1183.722952 610.283449 
L 1184.748782 609.795282 
L 1185.774612 610.246855 
L 1186.800441 611.492826 
L 1187.826271 610.360838 
L 1189.87793 610.433148 
L 1192.955419 610.316925 
L 1195.007078 610.52105 
L 1196.032907 610.293314 
L 1197.058737 610.489545 
L 1199.110396 610.318934 
L 1200.136226 610.472224 
L 1201.162055 610.363008 
L 1203.213714 610.575536 
L 1204.239544 610.432325 
L 1205.265374 610.674887 
L 1208.342862 610.588772 
L 1209.368692 610.672932 
L 1210.394522 610.589399 
L 1211.420351 610.760797 
L 1214.49784 610.822 
L 1215.523669 610.736865 
L 1216.549499 610.900032 
L 1217.575329 610.739294 
L 1218.601158 613.810623 
L 1219.626988 611.138582 
L 1220.652817 610.970944 
L 1223.730306 611.103856 
L 1224.756136 610.897257 
L 1225.781965 610.936555 
L 1226.807795 611.115661 
L 1227.833624 610.96722 
L 1230.911113 611.099285 
L 1231.936943 610.994087 
L 1232.962772 612.468035 
L 1233.988602 611.107705 
L 1235.014431 611.228991 
L 1236.040261 611.158678 
L 1237.066091 611.325351 
L 1238.09192 611.261096 
L 1239.11775 612.271117 
L 1240.143579 611.147139 
L 1241.169409 611.257814 
L 1242.195239 612.306476 
L 1243.221068 611.311265 
L 1244.246898 611.139796 
L 1245.272727 612.388513 
L 1245.272727 612.388513 
" style="fill:none;stroke:#ff7f0e;stroke-linecap:square;stroke-width:1.5;"/>
   </g>
   <g id="patch_3">
    <path d="M 180 640.8 
L 180 86.4 
" style="fill:none;stroke:#000000;stroke-linecap:square;stroke-linejoin:miter;stroke-width:0.8;"/>
   </g>
   <g id="patch_4">
    <path d="M 1296 640.8 
L 1296 86.4 
" style="fill:none;stroke:#000000;stroke-linecap:square;stroke-linejoin:miter;stroke-width:0.8;"/>
   </g>
   <g id="patch_5">
    <path d="M 180 640.8 
L 1296 640.8 
" style="fill:none;stroke:#000000;stroke-linecap:square;stroke-linejoin:miter;stroke-width:0.8;"/>
   </g>
   <g id="patch_6">
    <path d="M 180 86.4 
L 1296 86.4 
" style="fill:none;stroke:#000000;stroke-linecap:square;stroke-linejoin:miter;stroke-width:0.8;"/>
   </g>
   <g id="text_19">
    <!-- TSI Speedup -->
    <defs>
     <path d="M -0.296875 72.90625 
L 61.375 72.90625 
L 61.375 64.59375 
L 35.5 64.59375 
L 35.5 0 
L 25.59375 0 
L 25.59375 64.59375 
L -0.296875 64.59375 
z
" id="DejaVuSans-84"/>
     <path d="M 53.515625 70.515625 
L 53.515625 60.890625 
Q 47.90625 63.578125 42.921875 64.890625 
Q 37.9375 66.21875 33.296875 66.21875 
Q 25.25 66.21875 20.875 63.09375 
Q 16.5 59.96875 16.5 54.203125 
Q 16.5 49.359375 19.40625 46.890625 
Q 22.3125 44.4375 30.421875 42.921875 
L 36.375 41.703125 
Q 47.40625 39.59375 52.65625 34.296875 
Q 57.90625 29 57.90625 20.125 
Q 57.90625 9.515625 50.796875 4.046875 
Q 43.703125 -1.421875 29.984375 -1.421875 
Q 24.8125 -1.421875 18.96875 -0.25 
Q 13.140625 0.921875 6.890625 3.21875 
L 6.890625 13.375 
Q 12.890625 10.015625 18.65625 8.296875 
Q 24.421875 6.59375 29.984375 6.59375 
Q 38.421875 6.59375 43.015625 9.90625 
Q 47.609375 13.234375 47.609375 19.390625 
Q 47.609375 24.75 44.3125 27.78125 
Q 41.015625 30.8125 33.5 32.328125 
L 27.484375 33.5 
Q 16.453125 35.6875 11.515625 40.375 
Q 6.59375 45.0625 6.59375 53.421875 
Q 6.59375 63.09375 13.40625 68.65625 
Q 20.21875 74.21875 32.171875 74.21875 
Q 37.3125 74.21875 42.625 73.28125 
Q 47.953125 72.359375 53.515625 70.515625 
z
" id="DejaVuSans-83"/>
     <path d="M 9.8125 72.90625 
L 19.671875 72.90625 
L 19.671875 0 
L 9.8125 0 
z
" id="DejaVuSans-73"/>
     <path id="DejaVuSans-32"/>
    </defs>
    <g transform="translate(700.426875 80.4)scale(0.12 -0.12)">
     <use xlink:href="#DejaVuSans-84"/>
     <use x="61.083984" xlink:href="#DejaVuSans-83"/>
     <use x="124.560547" xlink:href="#DejaVuSans-73"/>
     <use x="154.052734" xlink:href="#DejaVuSans-32"/>
     <use x="185.839844" xlink:href="#DejaVuSans-83"/>
     <use x="249.316406" xlink:href="#DejaVuSans-112"/>
     <use x="312.792969" xlink:href="#DejaVuSans-101"/>
     <use x="374.316406" xlink:href="#DejaVuSans-101"/>
     <use x="435.839844" xlink:href="#DejaVuSans-100"/>
     <use x="499.316406" xlink:href="#DejaVuSans-117"/>
     <use x="562.695312" xlink:href="#DejaVuSans-112"/>
    </g>
   </g>
   <g id="legend_1">
    <g id="patch_7">
     <path d="M 1185.373437 123.75625 
L 1289 123.75625 
Q 1291 123.75625 1291 121.75625 
L 1291 93.4 
Q 1291 91.4 1289 91.4 
L 1185.373437 91.4 
Q 1183.373437 91.4 1183.373437 93.4 
L 1183.373437 121.75625 
Q 1183.373437 123.75625 1185.373437 123.75625 
z
" style="fill:#ffffff;opacity:0.8;stroke:#cccccc;stroke-linejoin:miter;"/>
    </g>
    <g id="line2d_19">
     <path d="M 1187.373437 99.498437 
L 1207.373437 99.498437 
" style="fill:none;stroke:#1f77b4;stroke-linecap:square;stroke-width:1.5;"/>
    </g>
    <g id="line2d_20"/>
    <g id="text_20">
     <!-- numpy.float32 -->
     <defs>
      <path d="M 52 44.1875 
Q 55.375 50.25 60.0625 53.125 
Q 64.75 56 71.09375 56 
Q 79.640625 56 84.28125 50.015625 
Q 88.921875 44.046875 88.921875 33.015625 
L 88.921875 0 
L 79.890625 0 
L 79.890625 32.71875 
Q 79.890625 40.578125 77.09375 44.375 
Q 74.3125 48.1875 68.609375 48.1875 
Q 61.625 48.1875 57.5625 43.546875 
Q 53.515625 38.921875 53.515625 30.90625 
L 53.515625 0 
L 44.484375 0 
L 44.484375 32.71875 
Q 44.484375 40.625 41.703125 44.40625 
Q 38.921875 48.1875 33.109375 48.1875 
Q 26.21875 48.1875 22.15625 43.53125 
Q 18.109375 38.875 18.109375 30.90625 
L 18.109375 0 
L 9.078125 0 
L 9.078125 54.6875 
L 18.109375 54.6875 
L 18.109375 46.1875 
Q 21.1875 51.21875 25.484375 53.609375 
Q 29.78125 56 35.6875 56 
Q 41.65625 56 45.828125 52.96875 
Q 50 49.953125 52 44.1875 
z
" id="DejaVuSans-109"/>
      <path d="M 32.171875 -5.078125 
Q 28.375 -14.84375 24.75 -17.8125 
Q 21.140625 -20.796875 15.09375 -20.796875 
L 7.90625 -20.796875 
L 7.90625 -13.28125 
L 13.1875 -13.28125 
Q 16.890625 -13.28125 18.9375 -11.515625 
Q 21 -9.765625 23.484375 -3.21875 
L 25.09375 0.875 
L 2.984375 54.6875 
L 12.5 54.6875 
L 29.59375 11.921875 
L 46.6875 54.6875 
L 56.203125 54.6875 
z
" id="DejaVuSans-121"/>
      <path d="M 37.109375 75.984375 
L 37.109375 68.5 
L 28.515625 68.5 
Q 23.6875 68.5 21.796875 66.546875 
Q 19.921875 64.59375 19.921875 59.515625 
L 19.921875 54.6875 
L 34.71875 54.6875 
L 34.71875 47.703125 
L 19.921875 47.703125 
L 19.921875 0 
L 10.890625 0 
L 10.890625 47.703125 
L 2.296875 47.703125 
L 2.296875 54.6875 
L 10.890625 54.6875 
L 10.890625 58.5 
Q 10.890625 67.625 15.140625 71.796875 
Q 19.390625 75.984375 28.609375 75.984375 
z
" id="DejaVuSans-102"/>
      <path d="M 9.421875 75.984375 
L 18.40625 75.984375 
L 18.40625 0 
L 9.421875 0 
z
" id="DejaVuSans-108"/>
      <path d="M 30.609375 48.390625 
Q 23.390625 48.390625 19.1875 42.75 
Q 14.984375 37.109375 14.984375 27.296875 
Q 14.984375 17.484375 19.15625 11.84375 
Q 23.34375 6.203125 30.609375 6.203125 
Q 37.796875 6.203125 41.984375 11.859375 
Q 46.1875 17.53125 46.1875 27.296875 
Q 46.1875 37.015625 41.984375 42.703125 
Q 37.796875 48.390625 30.609375 48.390625 
z
M 30.609375 56 
Q 42.328125 56 49.015625 48.375 
Q 55.71875 40.765625 55.71875 27.296875 
Q 55.71875 13.875 49.015625 6.21875 
Q 42.328125 -1.421875 30.609375 -1.421875 
Q 18.84375 -1.421875 12.171875 6.21875 
Q 5.515625 13.875 5.515625 27.296875 
Q 5.515625 40.765625 12.171875 48.375 
Q 18.84375 56 30.609375 56 
z
" id="DejaVuSans-111"/>
      <path d="M 34.28125 27.484375 
Q 23.390625 27.484375 19.1875 25 
Q 14.984375 22.515625 14.984375 16.5 
Q 14.984375 11.71875 18.140625 8.90625 
Q 21.296875 6.109375 26.703125 6.109375 
Q 34.1875 6.109375 38.703125 11.40625 
Q 43.21875 16.703125 43.21875 25.484375 
L 43.21875 27.484375 
z
M 52.203125 31.203125 
L 52.203125 0 
L 43.21875 0 
L 43.21875 8.296875 
Q 40.140625 3.328125 35.546875 0.953125 
Q 30.953125 -1.421875 24.3125 -1.421875 
Q 15.921875 -1.421875 10.953125 3.296875 
Q 6 8.015625 6 15.921875 
Q 6 25.140625 12.171875 29.828125 
Q 18.359375 34.515625 30.609375 34.515625 
L 43.21875 34.515625 
L 43.21875 35.40625 
Q 43.21875 41.609375 39.140625 45 
Q 35.0625 48.390625 27.6875 48.390625 
Q 23 48.390625 18.546875 47.265625 
Q 14.109375 46.140625 10.015625 43.890625 
L 10.015625 52.203125 
Q 14.9375 54.109375 19.578125 55.046875 
Q 24.21875 56 28.609375 56 
Q 40.484375 56 46.34375 49.84375 
Q 52.203125 43.703125 52.203125 31.203125 
z
" id="DejaVuSans-97"/>
      <path d="M 18.3125 70.21875 
L 18.3125 54.6875 
L 36.8125 54.6875 
L 36.8125 47.703125 
L 18.3125 47.703125 
L 18.3125 18.015625 
Q 18.3125 11.328125 20.140625 9.421875 
Q 21.96875 7.515625 27.59375 7.515625 
L 36.8125 7.515625 
L 36.8125 0 
L 27.59375 0 
Q 17.1875 0 13.234375 3.875 
Q 9.28125 7.765625 9.28125 18.015625 
L 9.28125 47.703125 
L 2.6875 47.703125 
L 2.6875 54.6875 
L 9.28125 54.6875 
L 9.28125 70.21875 
z
" id="DejaVuSans-116"/>
     </defs>
     <g transform="translate(1215.373437 102.998437)scale(0.1 -0.1)">
      <use xlink:href="#DejaVuSans-110"/>
      <use x="63.378906" xlink:href="#DejaVuSans-117"/>
      <use x="126.757812" xlink:href="#DejaVuSans-109"/>
      <use x="224.169922" xlink:href="#DejaVuSans-112"/>
      <use x="287.646484" xlink:href="#DejaVuSans-121"/>
      <use x="332.576172" xlink:href="#DejaVuSans-46"/>
      <use x="364.363281" xlink:href="#DejaVuSans-102"/>
      <use x="399.568359" xlink:href="#DejaVuSans-108"/>
      <use x="427.351562" xlink:href="#DejaVuSans-111"/>
      <use x="488.533203" xlink:href="#DejaVuSans-97"/>
      <use x="549.8125" xlink:href="#DejaVuSans-116"/>
      <use x="589.021484" xlink:href="#DejaVuSans-51"/>
      <use x="652.644531" xlink:href="#DejaVuSans-50"/>
     </g>
    </g>
    <g id="line2d_21">
     <path d="M 1187.373437 114.176562 
L 1207.373437 114.176562 
" style="fill:none;stroke:#ff7f0e;stroke-linecap:square;stroke-width:1.5;"/>
    </g>
    <g id="line2d_22"/>
    <g id="text_21">
     <!-- numpy.float64 -->
     <g transform="translate(1215.373437 117.676562)scale(0.1 -0.1)">
      <use xlink:href="#DejaVuSans-110"/>
      <use x="63.378906" xlink:href="#DejaVuSans-117"/>
      <use x="126.757812" xlink:href="#DejaVuSans-109"/>
      <use x="224.169922" xlink:href="#DejaVuSans-112"/>
      <use x="287.646484" xlink:href="#DejaVuSans-121"/>
      <use x="332.576172" xlink:href="#DejaVuSans-46"/>
      <use x="364.363281" xlink:href="#DejaVuSans-102"/>
      <use x="399.568359" xlink:href="#DejaVuSans-108"/>
      <use x="427.351562" xlink:href="#DejaVuSans-111"/>
      <use x="488.533203" xlink:href="#DejaVuSans-97"/>
      <use x="549.8125" xlink:href="#DejaVuSans-116"/>
      <use x="589.021484" xlink:href="#DejaVuSans-54"/>
      <use x="652.644531" xlink:href="#DejaVuSans-52"/>
     </g>
    </g>
   </g>
  </g>
 </g>
 <defs>
  <clipPath id="pb2b81df90d">
   <rect height="554.4" width="1116" x="180" y="86.4"/>
  </clipPath>
 </defs>
</svg>
