<?xml version="1.0" encoding="utf-8" standalone="no"?>
<!DOCTYPE svg PUBLIC "-//W3C//DTD SVG 1.1//EN"
  "http://www.w3.org/Graphics/SVG/1.1/DTD/svg11.dtd">
<!-- Created with matplotlib (https://matplotlib.org/) -->
<svg height="720pt" version="1.1" viewBox="0 0 1440 720" width="1440pt" xmlns="http://www.w3.org/2000/svg" xmlns:xlink="http://www.w3.org/1999/xlink">
 <defs>
  <style type="text/css">
*{stroke-linecap:butt;stroke-linejoin:round;}
  </style>
 </defs>
 <g id="figure_1">
  <g id="patch_1">
   <path d="M 0 720 
L 1440 720 
L 1440 0 
L 0 0 
z
" style="fill:#ffffff;"/>
  </g>
  <g id="axes_1">
   <g id="patch_2">
    <path d="M 180 640.8 
L 1296 640.8 
L 1296 86.4 
L 180 86.4 
z
" style="fill:#ffffff;"/>
   </g>
   <g id="matplotlib.axis_1">
    <g id="xtick_1">
     <g id="line2d_1">
      <defs>
       <path d="M 0 0 
L 0 3.5 
" id="m463cf35907" style="stroke:#000000;stroke-width:0.8;"/>
      </defs>
      <g>
       <use style="stroke:#000000;stroke-width:0.8;" x="333.310231" xlink:href="#m463cf35907" y="640.8"/>
      </g>
     </g>
     <g id="text_1">
      <!-- 100.0 -->
      <defs>
       <path d="M 12.40625 8.296875 
L 28.515625 8.296875 
L 28.515625 63.921875 
L 10.984375 60.40625 
L 10.984375 69.390625 
L 28.421875 72.90625 
L 38.28125 72.90625 
L 38.28125 8.296875 
L 54.390625 8.296875 
L 54.390625 0 
L 12.40625 0 
z
" id="DejaVuSans-49"/>
       <path d="M 31.78125 66.40625 
Q 24.171875 66.40625 20.328125 58.90625 
Q 16.5 51.421875 16.5 36.375 
Q 16.5 21.390625 20.328125 13.890625 
Q 24.171875 6.390625 31.78125 6.390625 
Q 39.453125 6.390625 43.28125 13.890625 
Q 47.125 21.390625 47.125 36.375 
Q 47.125 51.421875 43.28125 58.90625 
Q 39.453125 66.40625 31.78125 66.40625 
z
M 31.78125 74.21875 
Q 44.046875 74.21875 50.515625 64.515625 
Q 56.984375 54.828125 56.984375 36.375 
Q 56.984375 17.96875 50.515625 8.265625 
Q 44.046875 -1.421875 31.78125 -1.421875 
Q 19.53125 -1.421875 13.0625 8.265625 
Q 6.59375 17.96875 6.59375 36.375 
Q 6.59375 54.828125 13.0625 64.515625 
Q 19.53125 74.21875 31.78125 74.21875 
z
" id="DejaVuSans-48"/>
       <path d="M 10.6875 12.40625 
L 21 12.40625 
L 21 0 
L 10.6875 0 
z
" id="DejaVuSans-46"/>
      </defs>
      <g transform="translate(318.996168 655.398438)scale(0.1 -0.1)">
       <use xlink:href="#DejaVuSans-49"/>
       <use x="63.623047" xlink:href="#DejaVuSans-48"/>
       <use x="127.246094" xlink:href="#DejaVuSans-48"/>
       <use x="190.869141" xlink:href="#DejaVuSans-46"/>
       <use x="222.65625" xlink:href="#DejaVuSans-48"/>
      </g>
     </g>
    </g>
    <g id="xtick_2">
     <g id="line2d_2">
      <g>
       <use style="stroke:#000000;stroke-width:0.8;" x="435.893189" xlink:href="#m463cf35907" y="640.8"/>
      </g>
     </g>
     <g id="text_2">
      <!-- 200.0 -->
      <defs>
       <path d="M 19.1875 8.296875 
L 53.609375 8.296875 
L 53.609375 0 
L 7.328125 0 
L 7.328125 8.296875 
Q 12.9375 14.109375 22.625 23.890625 
Q 32.328125 33.6875 34.8125 36.53125 
Q 39.546875 41.84375 41.421875 45.53125 
Q 43.3125 49.21875 43.3125 52.78125 
Q 43.3125 58.59375 39.234375 62.25 
Q 35.15625 65.921875 28.609375 65.921875 
Q 23.96875 65.921875 18.8125 64.3125 
Q 13.671875 62.703125 7.8125 59.421875 
L 7.8125 69.390625 
Q 13.765625 71.78125 18.9375 73 
Q 24.125 74.21875 28.421875 74.21875 
Q 39.75 74.21875 46.484375 68.546875 
Q 53.21875 62.890625 53.21875 53.421875 
Q 53.21875 48.921875 51.53125 44.890625 
Q 49.859375 40.875 45.40625 35.40625 
Q 44.1875 33.984375 37.640625 27.21875 
Q 31.109375 20.453125 19.1875 8.296875 
z
" id="DejaVuSans-50"/>
      </defs>
      <g transform="translate(421.579126 655.398438)scale(0.1 -0.1)">
       <use xlink:href="#DejaVuSans-50"/>
       <use x="63.623047" xlink:href="#DejaVuSans-48"/>
       <use x="127.246094" xlink:href="#DejaVuSans-48"/>
       <use x="190.869141" xlink:href="#DejaVuSans-46"/>
       <use x="222.65625" xlink:href="#DejaVuSans-48"/>
      </g>
     </g>
    </g>
    <g id="xtick_3">
     <g id="line2d_3">
      <g>
       <use style="stroke:#000000;stroke-width:0.8;" x="538.476147" xlink:href="#m463cf35907" y="640.8"/>
      </g>
     </g>
     <g id="text_3">
      <!-- 300.0 -->
      <defs>
       <path d="M 40.578125 39.3125 
Q 47.65625 37.796875 51.625 33 
Q 55.609375 28.21875 55.609375 21.1875 
Q 55.609375 10.40625 48.1875 4.484375 
Q 40.765625 -1.421875 27.09375 -1.421875 
Q 22.515625 -1.421875 17.65625 -0.515625 
Q 12.796875 0.390625 7.625 2.203125 
L 7.625 11.71875 
Q 11.71875 9.328125 16.59375 8.109375 
Q 21.484375 6.890625 26.8125 6.890625 
Q 36.078125 6.890625 40.9375 10.546875 
Q 45.796875 14.203125 45.796875 21.1875 
Q 45.796875 27.640625 41.28125 31.265625 
Q 36.765625 34.90625 28.71875 34.90625 
L 20.21875 34.90625 
L 20.21875 43.015625 
L 29.109375 43.015625 
Q 36.375 43.015625 40.234375 45.921875 
Q 44.09375 48.828125 44.09375 54.296875 
Q 44.09375 59.90625 40.109375 62.90625 
Q 36.140625 65.921875 28.71875 65.921875 
Q 24.65625 65.921875 20.015625 65.03125 
Q 15.375 64.15625 9.8125 62.3125 
L 9.8125 71.09375 
Q 15.4375 72.65625 20.34375 73.4375 
Q 25.25 74.21875 29.59375 74.21875 
Q 40.828125 74.21875 47.359375 69.109375 
Q 53.90625 64.015625 53.90625 55.328125 
Q 53.90625 49.265625 50.4375 45.09375 
Q 46.96875 40.921875 40.578125 39.3125 
z
" id="DejaVuSans-51"/>
      </defs>
      <g transform="translate(524.162084 655.398438)scale(0.1 -0.1)">
       <use xlink:href="#DejaVuSans-51"/>
       <use x="63.623047" xlink:href="#DejaVuSans-48"/>
       <use x="127.246094" xlink:href="#DejaVuSans-48"/>
       <use x="190.869141" xlink:href="#DejaVuSans-46"/>
       <use x="222.65625" xlink:href="#DejaVuSans-48"/>
      </g>
     </g>
    </g>
    <g id="xtick_4">
     <g id="line2d_4">
      <g>
       <use style="stroke:#000000;stroke-width:0.8;" x="641.059105" xlink:href="#m463cf35907" y="640.8"/>
      </g>
     </g>
     <g id="text_4">
      <!-- 400.0 -->
      <defs>
       <path d="M 37.796875 64.3125 
L 12.890625 25.390625 
L 37.796875 25.390625 
z
M 35.203125 72.90625 
L 47.609375 72.90625 
L 47.609375 25.390625 
L 58.015625 25.390625 
L 58.015625 17.1875 
L 47.609375 17.1875 
L 47.609375 0 
L 37.796875 0 
L 37.796875 17.1875 
L 4.890625 17.1875 
L 4.890625 26.703125 
z
" id="DejaVuSans-52"/>
      </defs>
      <g transform="translate(626.745042 655.398438)scale(0.1 -0.1)">
       <use xlink:href="#DejaVuSans-52"/>
       <use x="63.623047" xlink:href="#DejaVuSans-48"/>
       <use x="127.246094" xlink:href="#DejaVuSans-48"/>
       <use x="190.869141" xlink:href="#DejaVuSans-46"/>
       <use x="222.65625" xlink:href="#DejaVuSans-48"/>
      </g>
     </g>
    </g>
    <g id="xtick_5">
     <g id="line2d_5">
      <g>
       <use style="stroke:#000000;stroke-width:0.8;" x="743.642063" xlink:href="#m463cf35907" y="640.8"/>
      </g>
     </g>
     <g id="text_5">
      <!-- 500.0 -->
      <defs>
       <path d="M 10.796875 72.90625 
L 49.515625 72.90625 
L 49.515625 64.59375 
L 19.828125 64.59375 
L 19.828125 46.734375 
Q 21.96875 47.46875 24.109375 47.828125 
Q 26.265625 48.1875 28.421875 48.1875 
Q 40.625 48.1875 47.75 41.5 
Q 54.890625 34.8125 54.890625 23.390625 
Q 54.890625 11.625 47.5625 5.09375 
Q 40.234375 -1.421875 26.90625 -1.421875 
Q 22.3125 -1.421875 17.546875 -0.640625 
Q 12.796875 0.140625 7.71875 1.703125 
L 7.71875 11.625 
Q 12.109375 9.234375 16.796875 8.0625 
Q 21.484375 6.890625 26.703125 6.890625 
Q 35.15625 6.890625 40.078125 11.328125 
Q 45.015625 15.765625 45.015625 23.390625 
Q 45.015625 31 40.078125 35.4375 
Q 35.15625 39.890625 26.703125 39.890625 
Q 22.75 39.890625 18.8125 39.015625 
Q 14.890625 38.140625 10.796875 36.28125 
z
" id="DejaVuSans-53"/>
      </defs>
      <g transform="translate(729.328 655.398438)scale(0.1 -0.1)">
       <use xlink:href="#DejaVuSans-53"/>
       <use x="63.623047" xlink:href="#DejaVuSans-48"/>
       <use x="127.246094" xlink:href="#DejaVuSans-48"/>
       <use x="190.869141" xlink:href="#DejaVuSans-46"/>
       <use x="222.65625" xlink:href="#DejaVuSans-48"/>
      </g>
     </g>
    </g>
    <g id="xtick_6">
     <g id="line2d_6">
      <g>
       <use style="stroke:#000000;stroke-width:0.8;" x="846.225021" xlink:href="#m463cf35907" y="640.8"/>
      </g>
     </g>
     <g id="text_6">
      <!-- 600.0 -->
      <defs>
       <path d="M 33.015625 40.375 
Q 26.375 40.375 22.484375 35.828125 
Q 18.609375 31.296875 18.609375 23.390625 
Q 18.609375 15.53125 22.484375 10.953125 
Q 26.375 6.390625 33.015625 6.390625 
Q 39.65625 6.390625 43.53125 10.953125 
Q 47.40625 15.53125 47.40625 23.390625 
Q 47.40625 31.296875 43.53125 35.828125 
Q 39.65625 40.375 33.015625 40.375 
z
M 52.59375 71.296875 
L 52.59375 62.3125 
Q 48.875 64.0625 45.09375 64.984375 
Q 41.3125 65.921875 37.59375 65.921875 
Q 27.828125 65.921875 22.671875 59.328125 
Q 17.53125 52.734375 16.796875 39.40625 
Q 19.671875 43.65625 24.015625 45.921875 
Q 28.375 48.1875 33.59375 48.1875 
Q 44.578125 48.1875 50.953125 41.515625 
Q 57.328125 34.859375 57.328125 23.390625 
Q 57.328125 12.15625 50.6875 5.359375 
Q 44.046875 -1.421875 33.015625 -1.421875 
Q 20.359375 -1.421875 13.671875 8.265625 
Q 6.984375 17.96875 6.984375 36.375 
Q 6.984375 53.65625 15.1875 63.9375 
Q 23.390625 74.21875 37.203125 74.21875 
Q 40.921875 74.21875 44.703125 73.484375 
Q 48.484375 72.75 52.59375 71.296875 
z
" id="DejaVuSans-54"/>
      </defs>
      <g transform="translate(831.910958 655.398438)scale(0.1 -0.1)">
       <use xlink:href="#DejaVuSans-54"/>
       <use x="63.623047" xlink:href="#DejaVuSans-48"/>
       <use x="127.246094" xlink:href="#DejaVuSans-48"/>
       <use x="190.869141" xlink:href="#DejaVuSans-46"/>
       <use x="222.65625" xlink:href="#DejaVuSans-48"/>
      </g>
     </g>
    </g>
    <g id="xtick_7">
     <g id="line2d_7">
      <g>
       <use style="stroke:#000000;stroke-width:0.8;" x="948.807979" xlink:href="#m463cf35907" y="640.8"/>
      </g>
     </g>
     <g id="text_7">
      <!-- 700.0 -->
      <defs>
       <path d="M 8.203125 72.90625 
L 55.078125 72.90625 
L 55.078125 68.703125 
L 28.609375 0 
L 18.3125 0 
L 43.21875 64.59375 
L 8.203125 64.59375 
z
" id="DejaVuSans-55"/>
      </defs>
      <g transform="translate(934.493916 655.398438)scale(0.1 -0.1)">
       <use xlink:href="#DejaVuSans-55"/>
       <use x="63.623047" xlink:href="#DejaVuSans-48"/>
       <use x="127.246094" xlink:href="#DejaVuSans-48"/>
       <use x="190.869141" xlink:href="#DejaVuSans-46"/>
       <use x="222.65625" xlink:href="#DejaVuSans-48"/>
      </g>
     </g>
    </g>
    <g id="xtick_8">
     <g id="line2d_8">
      <g>
       <use style="stroke:#000000;stroke-width:0.8;" x="1051.390937" xlink:href="#m463cf35907" y="640.8"/>
      </g>
     </g>
     <g id="text_8">
      <!-- 800.0 -->
      <defs>
       <path d="M 31.78125 34.625 
Q 24.75 34.625 20.71875 30.859375 
Q 16.703125 27.09375 16.703125 20.515625 
Q 16.703125 13.921875 20.71875 10.15625 
Q 24.75 6.390625 31.78125 6.390625 
Q 38.8125 6.390625 42.859375 10.171875 
Q 46.921875 13.96875 46.921875 20.515625 
Q 46.921875 27.09375 42.890625 30.859375 
Q 38.875 34.625 31.78125 34.625 
z
M 21.921875 38.8125 
Q 15.578125 40.375 12.03125 44.71875 
Q 8.5 49.078125 8.5 55.328125 
Q 8.5 64.0625 14.71875 69.140625 
Q 20.953125 74.21875 31.78125 74.21875 
Q 42.671875 74.21875 48.875 69.140625 
Q 55.078125 64.0625 55.078125 55.328125 
Q 55.078125 49.078125 51.53125 44.71875 
Q 48 40.375 41.703125 38.8125 
Q 48.828125 37.15625 52.796875 32.3125 
Q 56.78125 27.484375 56.78125 20.515625 
Q 56.78125 9.90625 50.3125 4.234375 
Q 43.84375 -1.421875 31.78125 -1.421875 
Q 19.734375 -1.421875 13.25 4.234375 
Q 6.78125 9.90625 6.78125 20.515625 
Q 6.78125 27.484375 10.78125 32.3125 
Q 14.796875 37.15625 21.921875 38.8125 
z
M 18.3125 54.390625 
Q 18.3125 48.734375 21.84375 45.5625 
Q 25.390625 42.390625 31.78125 42.390625 
Q 38.140625 42.390625 41.71875 45.5625 
Q 45.3125 48.734375 45.3125 54.390625 
Q 45.3125 60.0625 41.71875 63.234375 
Q 38.140625 66.40625 31.78125 66.40625 
Q 25.390625 66.40625 21.84375 63.234375 
Q 18.3125 60.0625 18.3125 54.390625 
z
" id="DejaVuSans-56"/>
      </defs>
      <g transform="translate(1037.076874 655.398438)scale(0.1 -0.1)">
       <use xlink:href="#DejaVuSans-56"/>
       <use x="63.623047" xlink:href="#DejaVuSans-48"/>
       <use x="127.246094" xlink:href="#DejaVuSans-48"/>
       <use x="190.869141" xlink:href="#DejaVuSans-46"/>
       <use x="222.65625" xlink:href="#DejaVuSans-48"/>
      </g>
     </g>
    </g>
    <g id="xtick_9">
     <g id="line2d_9">
      <g>
       <use style="stroke:#000000;stroke-width:0.8;" x="1153.973895" xlink:href="#m463cf35907" y="640.8"/>
      </g>
     </g>
     <g id="text_9">
      <!-- 900.0 -->
      <defs>
       <path d="M 10.984375 1.515625 
L 10.984375 10.5 
Q 14.703125 8.734375 18.5 7.8125 
Q 22.3125 6.890625 25.984375 6.890625 
Q 35.75 6.890625 40.890625 13.453125 
Q 46.046875 20.015625 46.78125 33.40625 
Q 43.953125 29.203125 39.59375 26.953125 
Q 35.25 24.703125 29.984375 24.703125 
Q 19.046875 24.703125 12.671875 31.3125 
Q 6.296875 37.9375 6.296875 49.421875 
Q 6.296875 60.640625 12.9375 67.421875 
Q 19.578125 74.21875 30.609375 74.21875 
Q 43.265625 74.21875 49.921875 64.515625 
Q 56.59375 54.828125 56.59375 36.375 
Q 56.59375 19.140625 48.40625 8.859375 
Q 40.234375 -1.421875 26.421875 -1.421875 
Q 22.703125 -1.421875 18.890625 -0.6875 
Q 15.09375 0.046875 10.984375 1.515625 
z
M 30.609375 32.421875 
Q 37.25 32.421875 41.125 36.953125 
Q 45.015625 41.5 45.015625 49.421875 
Q 45.015625 57.28125 41.125 61.84375 
Q 37.25 66.40625 30.609375 66.40625 
Q 23.96875 66.40625 20.09375 61.84375 
Q 16.21875 57.28125 16.21875 49.421875 
Q 16.21875 41.5 20.09375 36.953125 
Q 23.96875 32.421875 30.609375 32.421875 
z
" id="DejaVuSans-57"/>
      </defs>
      <g transform="translate(1139.659832 655.398438)scale(0.1 -0.1)">
       <use xlink:href="#DejaVuSans-57"/>
       <use x="63.623047" xlink:href="#DejaVuSans-48"/>
       <use x="127.246094" xlink:href="#DejaVuSans-48"/>
       <use x="190.869141" xlink:href="#DejaVuSans-46"/>
       <use x="222.65625" xlink:href="#DejaVuSans-48"/>
      </g>
     </g>
    </g>
    <g id="xtick_10">
     <g id="line2d_10">
      <g>
       <use style="stroke:#000000;stroke-width:0.8;" x="1256.556853" xlink:href="#m463cf35907" y="640.8"/>
      </g>
     </g>
     <g id="text_10">
      <!-- 1000.0 -->
      <g transform="translate(1239.06154 655.398438)scale(0.1 -0.1)">
       <use xlink:href="#DejaVuSans-49"/>
       <use x="63.623047" xlink:href="#DejaVuSans-48"/>
       <use x="127.246094" xlink:href="#DejaVuSans-48"/>
       <use x="190.869141" xlink:href="#DejaVuSans-48"/>
       <use x="254.492188" xlink:href="#DejaVuSans-46"/>
       <use x="286.279297" xlink:href="#DejaVuSans-48"/>
      </g>
     </g>
    </g>
    <g id="text_11">
     <!-- n -->
     <defs>
      <path d="M 54.890625 33.015625 
L 54.890625 0 
L 45.90625 0 
L 45.90625 32.71875 
Q 45.90625 40.484375 42.875 44.328125 
Q 39.84375 48.1875 33.796875 48.1875 
Q 26.515625 48.1875 22.3125 43.546875 
Q 18.109375 38.921875 18.109375 30.90625 
L 18.109375 0 
L 9.078125 0 
L 9.078125 54.6875 
L 18.109375 54.6875 
L 18.109375 46.1875 
Q 21.34375 51.125 25.703125 53.5625 
Q 30.078125 56 35.796875 56 
Q 45.21875 56 50.046875 50.171875 
Q 54.890625 44.34375 54.890625 33.015625 
z
" id="DejaVuSans-110"/>
     </defs>
     <g transform="translate(734.83125 669.076563)scale(0.1 -0.1)">
      <use xlink:href="#DejaVuSans-110"/>
     </g>
    </g>
   </g>
   <g id="matplotlib.axis_2">
    <g id="ytick_1">
     <g id="line2d_11">
      <defs>
       <path d="M 0 0 
L -3.5 0 
" id="md0ccf7c3b4" style="stroke:#000000;stroke-width:0.8;"/>
      </defs>
      <g>
       <use style="stroke:#000000;stroke-width:0.8;" x="180" xlink:href="#md0ccf7c3b4" y="632.228467"/>
      </g>
     </g>
     <g id="text_12">
      <!-- 0 -->
      <g transform="translate(166.6375 636.027686)scale(0.1 -0.1)">
       <use xlink:href="#DejaVuSans-48"/>
      </g>
     </g>
    </g>
    <g id="ytick_2">
     <g id="line2d_12">
      <g>
       <use style="stroke:#000000;stroke-width:0.8;" x="180" xlink:href="#md0ccf7c3b4" y="566.927233"/>
      </g>
     </g>
     <g id="text_13">
      <!-- 100 -->
      <g transform="translate(153.9125 570.726452)scale(0.1 -0.1)">
       <use xlink:href="#DejaVuSans-49"/>
       <use x="63.623047" xlink:href="#DejaVuSans-48"/>
       <use x="127.246094" xlink:href="#DejaVuSans-48"/>
      </g>
     </g>
    </g>
    <g id="ytick_3">
     <g id="line2d_13">
      <g>
       <use style="stroke:#000000;stroke-width:0.8;" x="180" xlink:href="#md0ccf7c3b4" y="501.625999"/>
      </g>
     </g>
     <g id="text_14">
      <!-- 200 -->
      <g transform="translate(153.9125 505.425218)scale(0.1 -0.1)">
       <use xlink:href="#DejaVuSans-50"/>
       <use x="63.623047" xlink:href="#DejaVuSans-48"/>
       <use x="127.246094" xlink:href="#DejaVuSans-48"/>
      </g>
     </g>
    </g>
    <g id="ytick_4">
     <g id="line2d_14">
      <g>
       <use style="stroke:#000000;stroke-width:0.8;" x="180" xlink:href="#md0ccf7c3b4" y="436.324765"/>
      </g>
     </g>
     <g id="text_15">
      <!-- 300 -->
      <g transform="translate(153.9125 440.123984)scale(0.1 -0.1)">
       <use xlink:href="#DejaVuSans-51"/>
       <use x="63.623047" xlink:href="#DejaVuSans-48"/>
       <use x="127.246094" xlink:href="#DejaVuSans-48"/>
      </g>
     </g>
    </g>
    <g id="ytick_5">
     <g id="line2d_15">
      <g>
       <use style="stroke:#000000;stroke-width:0.8;" x="180" xlink:href="#md0ccf7c3b4" y="371.023532"/>
      </g>
     </g>
     <g id="text_16">
      <!-- 400 -->
      <g transform="translate(153.9125 374.82275)scale(0.1 -0.1)">
       <use xlink:href="#DejaVuSans-52"/>
       <use x="63.623047" xlink:href="#DejaVuSans-48"/>
       <use x="127.246094" xlink:href="#DejaVuSans-48"/>
      </g>
     </g>
    </g>
    <g id="ytick_6">
     <g id="line2d_16">
      <g>
       <use style="stroke:#000000;stroke-width:0.8;" x="180" xlink:href="#md0ccf7c3b4" y="305.722298"/>
      </g>
     </g>
     <g id="text_17">
      <!-- 500 -->
      <g transform="translate(153.9125 309.521516)scale(0.1 -0.1)">
       <use xlink:href="#DejaVuSans-53"/>
       <use x="63.623047" xlink:href="#DejaVuSans-48"/>
       <use x="127.246094" xlink:href="#DejaVuSans-48"/>
      </g>
     </g>
    </g>
    <g id="ytick_7">
     <g id="line2d_17">
      <g>
       <use style="stroke:#000000;stroke-width:0.8;" x="180" xlink:href="#md0ccf7c3b4" y="240.421064"/>
      </g>
     </g>
     <g id="text_18">
      <!-- 600 -->
      <g transform="translate(153.9125 244.220282)scale(0.1 -0.1)">
       <use xlink:href="#DejaVuSans-54"/>
       <use x="63.623047" xlink:href="#DejaVuSans-48"/>
       <use x="127.246094" xlink:href="#DejaVuSans-48"/>
      </g>
     </g>
    </g>
    <g id="ytick_8">
     <g id="line2d_18">
      <g>
       <use style="stroke:#000000;stroke-width:0.8;" x="180" xlink:href="#md0ccf7c3b4" y="175.11983"/>
      </g>
     </g>
     <g id="text_19">
      <!-- 700 -->
      <g transform="translate(153.9125 178.919048)scale(0.1 -0.1)">
       <use xlink:href="#DejaVuSans-55"/>
       <use x="63.623047" xlink:href="#DejaVuSans-48"/>
       <use x="127.246094" xlink:href="#DejaVuSans-48"/>
      </g>
     </g>
    </g>
    <g id="ytick_9">
     <g id="line2d_19">
      <g>
       <use style="stroke:#000000;stroke-width:0.8;" x="180" xlink:href="#md0ccf7c3b4" y="109.818596"/>
      </g>
     </g>
     <g id="text_20">
      <!-- 800 -->
      <g transform="translate(153.9125 113.617814)scale(0.1 -0.1)">
       <use xlink:href="#DejaVuSans-56"/>
       <use x="63.623047" xlink:href="#DejaVuSans-48"/>
       <use x="127.246094" xlink:href="#DejaVuSans-48"/>
      </g>
     </g>
    </g>
    <g id="text_21">
     <!-- speedup -->
     <defs>
      <path d="M 44.28125 53.078125 
L 44.28125 44.578125 
Q 40.484375 46.53125 36.375 47.5 
Q 32.28125 48.484375 27.875 48.484375 
Q 21.1875 48.484375 17.84375 46.4375 
Q 14.5 44.390625 14.5 40.28125 
Q 14.5 37.15625 16.890625 35.375 
Q 19.28125 33.59375 26.515625 31.984375 
L 29.59375 31.296875 
Q 39.15625 29.25 43.1875 25.515625 
Q 47.21875 21.78125 47.21875 15.09375 
Q 47.21875 7.46875 41.1875 3.015625 
Q 35.15625 -1.421875 24.609375 -1.421875 
Q 20.21875 -1.421875 15.453125 -0.5625 
Q 10.6875 0.296875 5.421875 2 
L 5.421875 11.28125 
Q 10.40625 8.6875 15.234375 7.390625 
Q 20.0625 6.109375 24.8125 6.109375 
Q 31.15625 6.109375 34.5625 8.28125 
Q 37.984375 10.453125 37.984375 14.40625 
Q 37.984375 18.0625 35.515625 20.015625 
Q 33.0625 21.96875 24.703125 23.78125 
L 21.578125 24.515625 
Q 13.234375 26.265625 9.515625 29.90625 
Q 5.8125 33.546875 5.8125 39.890625 
Q 5.8125 47.609375 11.28125 51.796875 
Q 16.75 56 26.8125 56 
Q 31.78125 56 36.171875 55.265625 
Q 40.578125 54.546875 44.28125 53.078125 
z
" id="DejaVuSans-115"/>
      <path d="M 18.109375 8.203125 
L 18.109375 -20.796875 
L 9.078125 -20.796875 
L 9.078125 54.6875 
L 18.109375 54.6875 
L 18.109375 46.390625 
Q 20.953125 51.265625 25.265625 53.625 
Q 29.59375 56 35.59375 56 
Q 45.5625 56 51.78125 48.09375 
Q 58.015625 40.1875 58.015625 27.296875 
Q 58.015625 14.40625 51.78125 6.484375 
Q 45.5625 -1.421875 35.59375 -1.421875 
Q 29.59375 -1.421875 25.265625 0.953125 
Q 20.953125 3.328125 18.109375 8.203125 
z
M 48.6875 27.296875 
Q 48.6875 37.203125 44.609375 42.84375 
Q 40.53125 48.484375 33.40625 48.484375 
Q 26.265625 48.484375 22.1875 42.84375 
Q 18.109375 37.203125 18.109375 27.296875 
Q 18.109375 17.390625 22.1875 11.75 
Q 26.265625 6.109375 33.40625 6.109375 
Q 40.53125 6.109375 44.609375 11.75 
Q 48.6875 17.390625 48.6875 27.296875 
z
" id="DejaVuSans-112"/>
      <path d="M 56.203125 29.59375 
L 56.203125 25.203125 
L 14.890625 25.203125 
Q 15.484375 15.921875 20.484375 11.0625 
Q 25.484375 6.203125 34.421875 6.203125 
Q 39.59375 6.203125 44.453125 7.46875 
Q 49.3125 8.734375 54.109375 11.28125 
L 54.109375 2.78125 
Q 49.265625 0.734375 44.1875 -0.34375 
Q 39.109375 -1.421875 33.890625 -1.421875 
Q 20.796875 -1.421875 13.15625 6.1875 
Q 5.515625 13.8125 5.515625 26.8125 
Q 5.515625 40.234375 12.765625 48.109375 
Q 20.015625 56 32.328125 56 
Q 43.359375 56 49.78125 48.890625 
Q 56.203125 41.796875 56.203125 29.59375 
z
M 47.21875 32.234375 
Q 47.125 39.59375 43.09375 43.984375 
Q 39.0625 48.390625 32.421875 48.390625 
Q 24.90625 48.390625 20.390625 44.140625 
Q 15.875 39.890625 15.1875 32.171875 
z
" id="DejaVuSans-101"/>
      <path d="M 45.40625 46.390625 
L 45.40625 75.984375 
L 54.390625 75.984375 
L 54.390625 0 
L 45.40625 0 
L 45.40625 8.203125 
Q 42.578125 3.328125 38.25 0.953125 
Q 33.9375 -1.421875 27.875 -1.421875 
Q 17.96875 -1.421875 11.734375 6.484375 
Q 5.515625 14.40625 5.515625 27.296875 
Q 5.515625 40.1875 11.734375 48.09375 
Q 17.96875 56 27.875 56 
Q 33.9375 56 38.25 53.625 
Q 42.578125 51.265625 45.40625 46.390625 
z
M 14.796875 27.296875 
Q 14.796875 17.390625 18.875 11.75 
Q 22.953125 6.109375 30.078125 6.109375 
Q 37.203125 6.109375 41.296875 11.75 
Q 45.40625 17.390625 45.40625 27.296875 
Q 45.40625 37.203125 41.296875 42.84375 
Q 37.203125 48.484375 30.078125 48.484375 
Q 22.953125 48.484375 18.875 42.84375 
Q 14.796875 37.203125 14.796875 27.296875 
z
" id="DejaVuSans-100"/>
      <path d="M 8.5 21.578125 
L 8.5 54.6875 
L 17.484375 54.6875 
L 17.484375 21.921875 
Q 17.484375 14.15625 20.5 10.265625 
Q 23.53125 6.390625 29.59375 6.390625 
Q 36.859375 6.390625 41.078125 11.03125 
Q 45.3125 15.671875 45.3125 23.6875 
L 45.3125 54.6875 
L 54.296875 54.6875 
L 54.296875 0 
L 45.3125 0 
L 45.3125 8.40625 
Q 42.046875 3.421875 37.71875 1 
Q 33.40625 -1.421875 27.6875 -1.421875 
Q 18.265625 -1.421875 13.375 4.4375 
Q 8.5 10.296875 8.5 21.578125 
z
M 31.109375 56 
z
" id="DejaVuSans-117"/>
     </defs>
     <g transform="translate(147.832812 385.049219)rotate(-90)scale(0.1 -0.1)">
      <use xlink:href="#DejaVuSans-115"/>
      <use x="52.099609" xlink:href="#DejaVuSans-112"/>
      <use x="115.576172" xlink:href="#DejaVuSans-101"/>
      <use x="177.099609" xlink:href="#DejaVuSans-101"/>
      <use x="238.623047" xlink:href="#DejaVuSans-100"/>
      <use x="302.099609" xlink:href="#DejaVuSans-117"/>
      <use x="365.478516" xlink:href="#DejaVuSans-112"/>
     </g>
    </g>
   </g>
   <g id="line2d_20">
    <path clip-path="url(#pe5d8ee1106)" d="M 230.727273 279.947376 
L 231.753102 306.83068 
L 232.778932 155.347354 
L 233.804761 340.522112 
L 234.830591 169.336083 
L 235.856421 192.963344 
L 236.88225 209.351932 
L 237.90808 185.825495 
L 238.933909 186.118102 
L 239.959739 157.595673 
L 240.985569 227.06658 
L 242.011398 208.103451 
L 243.037228 214.047836 
L 244.063057 250.665471 
L 245.088887 240.999617 
L 246.114716 250.54403 
L 247.140546 266.472182 
L 248.166376 264.476879 
L 249.192205 292.393772 
L 250.218035 266.364204 
L 251.243864 137.102442 
L 252.269694 324.059761 
L 253.295523 325.606269 
L 254.321353 283.13768 
L 255.347183 324.989028 
L 256.373012 306.77082 
L 257.398842 404.480228 
L 258.424671 330.681917 
L 259.450501 314.106918 
L 260.476331 325.431215 
L 261.50216 305.909313 
L 262.52799 332.784858 
L 263.553819 339.449801 
L 264.579649 340.047292 
L 265.605478 335.397895 
L 266.631308 353.445915 
L 267.657138 351.619414 
L 268.682967 358.263278 
L 269.708797 356.131531 
L 270.734626 368.826655 
L 271.760456 346.563479 
L 272.786286 370.598725 
L 273.812115 421.902101 
L 274.837945 369.838351 
L 275.863774 371.274676 
L 276.889604 383.471303 
L 277.915433 381.435658 
L 278.941263 376.204659 
L 279.967093 389.99249 
L 280.992922 394.990087 
L 282.018752 407.586327 
L 283.044581 388.354427 
L 284.070411 386.567649 
L 286.12207 403.333731 
L 287.1479 386.285168 
L 288.173729 405.876946 
L 289.199559 413.790869 
L 290.225388 395.252993 
L 291.251218 388.690225 
L 292.277048 410.955095 
L 293.302877 394.478238 
L 294.328707 423.579464 
L 295.354536 431.79832 
L 296.380366 415.167839 
L 297.406195 413.795569 
L 298.432025 422.525475 
L 299.457855 415.716108 
L 300.483684 433.051276 
L 301.509514 425.359305 
L 302.535343 423.466753 
L 303.561173 423.459799 
L 304.587002 425.070689 
L 305.612832 430.258926 
L 306.638662 450.250493 
L 307.664491 422.341044 
L 308.690321 432.915702 
L 309.71615 434.910418 
L 310.74198 475.307448 
L 311.76781 436.230568 
L 312.793639 442.059126 
L 313.819469 438.051851 
L 314.845298 444.233109 
L 315.871128 430.627179 
L 316.896957 437.450032 
L 317.922787 446.513016 
L 318.948617 452.340577 
L 319.974446 450.088495 
L 321.000276 449.977211 
L 322.026105 445.590648 
L 323.051935 447.969199 
L 324.077765 455.989969 
L 325.103594 447.380455 
L 326.129424 458.898632 
L 327.155253 449.68788 
L 328.181083 464.886674 
L 329.206912 470.603261 
L 330.232742 433.153333 
L 331.258572 464.774311 
L 332.284401 461.35393 
L 333.310231 465.538624 
L 334.33606 467.898654 
L 335.36189 475.844156 
L 336.387719 457.228736 
L 337.413549 474.451693 
L 338.439379 471.260331 
L 339.465208 460.084689 
L 340.491038 467.397974 
L 341.516867 479.193163 
L 342.542697 474.617434 
L 343.568527 482.859677 
L 344.594356 472.750036 
L 346.646015 478.387839 
L 347.671845 478.857317 
L 348.697674 470.696777 
L 350.749334 479.4566 
L 351.775163 480.055468 
L 352.800993 496.877719 
L 353.826822 482.699464 
L 354.852652 482.195697 
L 355.878481 476.495016 
L 357.930141 487.646192 
L 358.95597 484.013839 
L 359.9818 495.30888 
L 361.007629 491.628506 
L 362.033459 489.14543 
L 363.059289 492.963029 
L 364.085118 488.924121 
L 365.110948 499.240656 
L 366.136777 491.813477 
L 367.162607 496.242626 
L 368.188436 492.214072 
L 369.214266 490.876401 
L 370.240096 505.130709 
L 371.265925 492.240612 
L 372.291755 490.925938 
L 373.317584 491.111778 
L 374.343414 500.043819 
L 375.369243 496.403942 
L 376.395073 494.990892 
L 377.420903 503.062539 
L 378.446732 503.106658 
L 379.472562 499.432205 
L 380.498391 500.359838 
L 381.524221 499.887793 
L 382.550051 505.527108 
L 383.57588 503.733265 
L 384.60171 497.383643 
L 385.627539 502.362927 
L 386.653369 518.638971 
L 387.679198 506.063032 
L 388.705028 503.975039 
L 389.730858 500.344089 
L 390.756687 507.045618 
L 391.782517 505.335714 
L 392.808346 507.897276 
L 393.834176 507.932657 
L 394.860006 516.680364 
L 395.885835 507.370169 
L 396.911665 510.908186 
L 397.937494 509.563217 
L 398.963324 514.675593 
L 399.989153 511.144335 
L 401.014983 537.876403 
L 402.040813 511.482119 
L 403.066642 502.25276 
L 404.092472 518.311098 
L 405.118301 513.782029 
L 406.144131 511.076967 
L 407.16996 515.178236 
L 408.19579 513.744343 
L 409.22162 520.868758 
L 410.247449 517.128141 
L 411.273279 516.56018 
L 412.299108 519.040013 
L 413.324938 518.186987 
L 414.350768 519.312515 
L 415.376597 518.926228 
L 416.402427 517.026206 
L 417.428256 516.4005 
L 418.454086 520.477164 
L 419.479915 517.926069 
L 420.505745 518.209704 
L 421.531575 522.58664 
L 422.557404 522.038912 
L 423.583234 519.904696 
L 424.609063 521.477525 
L 425.634893 535.172272 
L 426.660722 523.948244 
L 427.686552 529.06742 
L 428.712382 525.86755 
L 429.738211 524.025432 
L 430.764041 533.849972 
L 431.78987 528.667618 
L 432.8157 542.059637 
L 433.84153 526.484477 
L 434.867359 524.655086 
L 435.893189 529.01981 
L 436.919018 525.365877 
L 437.944848 525.100428 
L 438.970677 526.358051 
L 439.996507 528.717464 
L 441.022337 527.405966 
L 442.048166 526.838896 
L 443.073996 526.825879 
L 444.099825 532.339858 
L 445.125655 532.54779 
L 446.151485 531.874662 
L 447.177314 531.434269 
L 448.203144 530.31792 
L 449.228973 535.511786 
L 450.254803 531.375885 
L 451.280632 532.197169 
L 452.306462 530.567047 
L 453.332292 534.195293 
L 454.358121 532.607754 
L 455.383951 535.25248 
L 456.40978 534.642117 
L 457.43561 535.535739 
L 458.461439 533.573718 
L 460.513099 535.461612 
L 461.538928 535.681195 
L 462.564758 533.827273 
L 463.590587 538.113196 
L 464.616417 539.567107 
L 465.642247 541.569972 
L 466.668076 541.924465 
L 467.693906 538.211963 
L 468.719735 540.042685 
L 469.745565 540.81394 
L 470.771394 540.831635 
L 471.797224 543.718818 
L 472.823054 543.524364 
L 473.848883 539.634931 
L 474.874713 540.242906 
L 475.900542 542.52603 
L 476.926372 537.996277 
L 478.978031 540.798454 
L 480.003861 539.014989 
L 481.02969 538.094271 
L 482.05552 538.449088 
L 483.081349 542.980705 
L 484.107179 544.592857 
L 485.133009 547.896803 
L 486.158838 543.662331 
L 487.184668 541.886623 
L 488.210497 544.735136 
L 489.236327 543.324266 
L 490.262156 541.039481 
L 491.287986 542.752732 
L 492.313816 544.712966 
L 493.339645 544.672828 
L 494.365475 543.732853 
L 495.391304 545.993487 
L 496.417134 547.592883 
L 497.442964 557.487652 
L 498.468793 549.335963 
L 499.494623 546.426636 
L 500.520452 550.551264 
L 501.546282 543.645561 
L 502.572111 547.063 
L 503.597941 547.363821 
L 504.623771 557.240658 
L 505.6496 547.121378 
L 506.67543 539.083903 
L 507.701259 550.464917 
L 508.727089 549.790868 
L 509.752918 547.066057 
L 510.778748 557.105087 
L 511.804578 550.969423 
L 513.856237 548.185466 
L 514.882066 549.258745 
L 515.907896 549.356465 
L 516.933726 550.575419 
L 517.959555 543.994269 
L 518.985385 551.08194 
L 520.011214 554.87219 
L 521.037044 546.092941 
L 522.062873 551.134908 
L 523.088703 550.166854 
L 524.114533 543.211159 
L 525.140362 551.628937 
L 526.166192 552.141521 
L 527.192021 551.582547 
L 528.217851 553.130292 
L 529.24368 553.39134 
L 530.26951 552.297744 
L 531.29534 549.828667 
L 532.321169 562.99417 
L 533.346999 553.091263 
L 534.372828 554.172116 
L 535.398658 538.445436 
L 536.424488 555.273393 
L 537.450317 562.388915 
L 538.476147 553.611727 
L 539.501976 551.598942 
L 540.527806 555.913428 
L 541.553635 555.664601 
L 542.579465 546.78791 
L 543.605295 547.513022 
L 544.631124 558.498635 
L 545.656954 557.903765 
L 546.682783 554.074429 
L 547.708613 554.860351 
L 548.734443 553.093251 
L 549.760272 559.023442 
L 550.786102 548.264702 
L 551.811931 555.880555 
L 552.837761 556.720987 
L 553.86359 557.263928 
L 554.88942 556.442562 
L 555.91525 557.658905 
L 556.941079 557.664755 
L 557.966909 557.430571 
L 558.992738 556.848241 
L 560.018568 552.170113 
L 561.044397 559.190663 
L 562.070227 559.303089 
L 563.096057 555.896783 
L 564.121886 554.465292 
L 565.147716 541.160341 
L 566.173545 556.310147 
L 567.199375 558.868428 
L 568.225205 560.857911 
L 569.251034 556.247092 
L 570.276864 557.113556 
L 571.302693 561.584127 
L 572.328523 553.212419 
L 573.354352 558.186781 
L 574.380182 556.869856 
L 575.406012 562.120907 
L 576.431841 561.360561 
L 577.457671 565.658204 
L 578.4835 559.632594 
L 580.535159 561.917879 
L 581.560989 561.114473 
L 582.586819 562.3474 
L 583.612648 560.417709 
L 584.638478 562.007442 
L 585.664307 564.254414 
L 586.690137 561.631837 
L 587.715967 562.610168 
L 588.741796 563.367144 
L 589.767626 562.293969 
L 590.793455 563.563443 
L 591.819285 562.754609 
L 592.845114 564.049297 
L 593.870944 569.634025 
L 594.896774 563.930202 
L 595.922603 563.269328 
L 596.948433 567.052647 
L 597.974262 562.145093 
L 599.000092 564.111126 
L 600.025922 567.240134 
L 601.051751 563.439352 
L 602.077581 572.607987 
L 603.10341 558.028875 
L 604.12924 564.490648 
L 605.155069 565.49541 
L 606.180899 566.254421 
L 607.206729 574.604228 
L 608.232558 564.948145 
L 609.258388 565.62683 
L 610.284217 566.606043 
L 611.310047 565.865488 
L 612.335876 566.245595 
L 613.361706 566.196542 
L 614.387536 567.038198 
L 615.413365 570.132782 
L 616.439195 567.740109 
L 617.465024 569.222833 
L 618.490854 567.267093 
L 619.516684 568.169435 
L 620.542513 566.936988 
L 621.568343 567.959483 
L 622.594172 567.881694 
L 623.620002 568.37793 
L 624.645831 568.489898 
L 625.671661 567.403469 
L 626.697491 567.241066 
L 627.72332 569.946209 
L 628.74915 566.00379 
L 629.774979 568.992919 
L 630.800809 568.689021 
L 631.826638 569.696589 
L 632.852468 568.080136 
L 633.878298 569.078856 
L 634.904127 569.457456 
L 635.929957 568.856195 
L 636.955786 569.657848 
L 637.981616 564.952537 
L 639.007446 569.577171 
L 640.033275 570.4731 
L 641.059105 578.76847 
L 642.084934 570.0835 
L 643.110764 570.596406 
L 644.136593 570.751926 
L 645.162423 569.755934 
L 646.188253 571.486143 
L 647.214082 571.40507 
L 648.239912 571.155246 
L 649.265741 570.557533 
L 650.291571 571.025526 
L 651.3174 569.46807 
L 652.34323 570.470639 
L 653.36906 569.023748 
L 654.394889 570.701348 
L 655.420719 572.762798 
L 656.446548 568.636139 
L 657.472378 571.528755 
L 658.498208 571.622219 
L 659.524037 572.447095 
L 660.549867 576.601711 
L 661.575696 572.125598 
L 662.601526 573.933412 
L 663.627355 571.039713 
L 664.653185 572.708916 
L 665.679015 576.568118 
L 666.704844 573.984486 
L 667.730674 572.830931 
L 668.756503 573.089141 
L 670.808163 573.130735 
L 671.833992 574.840963 
L 672.859822 576.302604 
L 673.885651 572.927805 
L 674.911481 574.326436 
L 675.93731 578.944141 
L 676.96314 568.907484 
L 677.98897 574.422091 
L 679.014799 574.461479 
L 680.040629 574.016863 
L 681.066458 574.764505 
L 682.092288 575.94433 
L 683.118117 574.71845 
L 684.143947 574.558706 
L 685.169777 578.817368 
L 686.195606 574.580919 
L 687.221436 575.412167 
L 688.247265 575.587296 
L 689.273095 575.099163 
L 690.298925 570.714132 
L 691.324754 578.992127 
L 692.350584 577.068124 
L 693.376413 581.922676 
L 694.402243 576.02626 
L 695.428072 576.028824 
L 697.479732 576.584586 
L 698.505561 576.307682 
L 699.531391 576.757766 
L 700.55722 577.555848 
L 701.58305 577.527029 
L 702.608879 580.670198 
L 703.634709 577.513685 
L 704.660539 576.800142 
L 705.686368 577.376075 
L 706.712198 581.174401 
L 707.738027 576.866734 
L 708.763857 577.404272 
L 709.789687 577.794499 
L 710.815516 578.539644 
L 711.841346 577.369072 
L 712.867175 578.385362 
L 713.893005 577.77724 
L 714.918834 578.814427 
L 715.944664 579.161334 
L 716.970494 578.847608 
L 717.996323 578.3785 
L 719.022153 578.791113 
L 720.047982 578.239429 
L 721.073812 579.214054 
L 722.099642 579.613734 
L 723.125471 579.042394 
L 724.151301 582.30486 
L 725.17713 578.613775 
L 726.20296 578.796719 
L 727.228789 578.783798 
L 728.254619 579.570444 
L 729.280449 578.966021 
L 730.306278 579.471814 
L 731.332108 579.768177 
L 732.357937 580.47546 
L 733.383767 584.241998 
L 734.409596 580.317551 
L 735.435426 579.99 
L 736.461256 580.709344 
L 737.487085 580.966738 
L 738.512915 581.090441 
L 739.538744 580.769728 
L 740.564574 579.850542 
L 741.590404 580.469747 
L 742.616233 582.705719 
L 743.642063 581.103765 
L 744.667892 580.334583 
L 745.693722 580.695977 
L 746.719551 578.670252 
L 747.745381 583.22032 
L 748.771211 581.007668 
L 750.82287 580.580546 
L 752.874529 581.138826 
L 753.900358 581.80065 
L 754.926188 581.545631 
L 755.952018 581.604656 
L 756.977847 582.139462 
L 758.003677 581.856756 
L 759.029506 582.754602 
L 760.055336 581.972328 
L 761.081166 582.534895 
L 762.106995 581.744492 
L 763.132825 583.613784 
L 764.158654 582.380483 
L 767.236143 581.5901 
L 768.261973 581.937849 
L 769.287802 582.075798 
L 770.313632 583.356117 
L 771.339461 582.545771 
L 773.391121 582.504895 
L 774.41695 583.168263 
L 775.44278 583.248611 
L 776.468609 582.998695 
L 777.494439 589.79415 
L 778.520268 584.053853 
L 779.546098 584.141527 
L 780.571928 583.32926 
L 781.597757 585.661063 
L 782.623587 585.053185 
L 783.649416 583.568165 
L 784.675246 583.380106 
L 785.701075 583.521165 
L 786.726905 583.807089 
L 787.752735 583.778441 
L 788.778564 580.132239 
L 789.804394 584.067218 
L 790.830223 584.164972 
L 791.856053 584.080593 
L 792.881883 584.770677 
L 793.907712 584.214525 
L 794.933542 584.321863 
L 795.959371 584.769843 
L 796.985201 585.673455 
L 798.01103 584.355061 
L 799.03686 584.974916 
L 800.06269 585.342243 
L 801.088519 584.570668 
L 802.114349 585.007395 
L 803.140178 585.581636 
L 804.166008 584.370167 
L 805.191837 584.759239 
L 806.217667 584.877129 
L 807.243497 585.349837 
L 808.269326 585.283338 
L 809.295156 585.102963 
L 810.320985 585.119959 
L 811.346815 585.413866 
L 812.372645 585.520262 
L 813.398474 585.303484 
L 814.424304 582.912744 
L 815.450133 585.539344 
L 816.475963 585.570306 
L 817.501792 582.294583 
L 818.527622 585.537559 
L 819.553452 589.307686 
L 820.579281 586.019262 
L 821.605111 585.749079 
L 822.63094 585.77288 
L 823.65677 586.104506 
L 824.6826 586.822264 
L 825.708429 585.371622 
L 826.734259 586.131712 
L 828.785918 586.750906 
L 829.811747 586.783969 
L 830.837577 588.377115 
L 831.863407 586.545039 
L 832.889236 587.15885 
L 833.915066 586.78223 
L 834.940895 586.890599 
L 835.966725 587.164139 
L 838.018384 586.857355 
L 839.044214 587.73385 
L 840.070043 590.244584 
L 841.095873 587.006045 
L 842.121702 587.754165 
L 843.147532 587.103753 
L 844.173362 588.322066 
L 845.199191 587.832585 
L 846.225021 585.48232 
L 847.25085 587.356005 
L 848.27668 588.401516 
L 849.302509 587.27052 
L 850.328339 588.000017 
L 852.379998 588.457399 
L 853.405828 588.562682 
L 854.431657 587.928933 
L 855.457487 587.940389 
L 856.483316 591.150246 
L 857.509146 588.8142 
L 858.534976 587.609159 
L 859.560805 588.243172 
L 860.586635 588.219237 
L 861.612464 589.542376 
L 862.638294 589.091545 
L 863.664124 589.326784 
L 864.689953 589.688773 
L 865.715783 589.668306 
L 866.741612 589.7988 
L 867.767442 588.814374 
L 868.793271 584.364996 
L 869.819101 589.488527 
L 870.844931 589.342711 
L 871.87076 589.371314 
L 872.89659 589.519995 
L 873.922419 590.411244 
L 874.948249 589.544761 
L 875.974078 590.522638 
L 876.999908 589.004641 
L 878.025738 590.141861 
L 879.051567 589.802645 
L 880.077397 592.41056 
L 881.103226 590.147765 
L 882.129056 590.595437 
L 883.154886 589.795033 
L 884.180715 589.70898 
L 886.232374 590.354336 
L 887.258204 590.242945 
L 888.284033 590.643439 
L 889.309863 590.098306 
L 890.335693 590.592258 
L 891.361522 589.954409 
L 893.413181 591.023471 
L 895.464841 590.371942 
L 896.49067 590.440324 
L 897.5165 591.473699 
L 898.542329 591.566394 
L 899.568159 590.907661 
L 900.593988 590.883597 
L 901.619818 591.718814 
L 902.645648 591.552351 
L 903.671477 591.9854 
L 904.697307 591.548346 
L 905.723136 591.902332 
L 906.748966 591.630205 
L 907.774795 591.749054 
L 908.800625 591.196276 
L 909.826455 591.922378 
L 910.852284 591.751673 
L 911.878114 591.963287 
L 912.903943 591.776202 
L 913.929773 591.937887 
L 918.033091 591.798591 
L 919.058921 591.860086 
L 921.11058 591.774088 
L 922.13641 592.536153 
L 923.162239 592.014972 
L 924.188069 591.767582 
L 925.213898 591.871197 
L 926.239728 592.483488 
L 927.265557 594.451424 
L 928.291387 591.888817 
L 929.317217 591.949196 
L 930.343046 592.267322 
L 932.394705 592.509971 
L 935.472194 592.71434 
L 936.498024 592.331007 
L 938.549683 592.755113 
L 939.575512 590.559462 
L 940.601342 592.553358 
L 941.627172 592.598776 
L 942.653001 593.560556 
L 943.678831 592.647712 
L 944.70466 593.248281 
L 945.73049 592.476657 
L 946.75632 593.29641 
L 947.782149 593.464089 
L 948.807979 593.107325 
L 949.833808 592.183168 
L 950.859638 593.104599 
L 951.885467 593.312052 
L 952.911297 592.871856 
L 953.937127 592.938548 
L 954.962956 593.624128 
L 955.988786 597.16517 
L 957.014615 596.417475 
L 958.040445 594.387235 
L 959.066274 594.160343 
L 960.092104 594.23485 
L 961.117934 593.878063 
L 962.143763 593.14549 
L 963.169593 593.814512 
L 964.195422 593.568971 
L 965.221252 593.450052 
L 966.247082 593.695092 
L 967.272911 594.157815 
L 968.298741 594.295587 
L 969.32457 593.794685 
L 970.3504 593.812534 
L 972.402059 594.148838 
L 973.427889 593.944349 
L 974.453718 596.331159 
L 975.479548 594.527549 
L 977.531207 594.07718 
L 979.582866 594.379603 
L 980.608696 594.433885 
L 981.634525 594.197932 
L 982.660355 594.228548 
L 983.686184 594.536924 
L 984.712014 594.424081 
L 985.737844 594.616474 
L 986.763673 594.687873 
L 987.789503 595.064983 
L 988.815332 595.16213 
L 989.841162 594.770264 
L 990.866991 594.828724 
L 991.892821 595.064206 
L 993.94448 594.737226 
L 994.97031 595.02667 
L 998.047799 595.084763 
L 999.073628 595.008916 
L 1000.099458 595.186944 
L 1001.125287 588.165006 
L 1002.151117 595.822258 
L 1003.176946 595.22247 
L 1004.202776 592.829207 
L 1005.228606 595.546763 
L 1006.254435 595.933186 
L 1007.280265 595.583272 
L 1008.306094 597.061972 
L 1009.331924 596.431065 
L 1010.357753 595.623999 
L 1011.383583 595.73424 
L 1012.409413 597.649272 
L 1013.435242 593.633507 
L 1014.461072 595.736458 
L 1015.486901 595.605896 
L 1016.512731 595.649577 
L 1017.538561 595.878781 
L 1018.56439 595.748641 
L 1020.616049 596.205128 
L 1021.641879 596.124218 
L 1022.667708 595.680755 
L 1023.693538 595.505302 
L 1024.719368 596.698272 
L 1025.745197 595.336227 
L 1026.771027 595.571377 
L 1027.796856 596.347862 
L 1028.822686 596.666973 
L 1029.848515 596.49787 
L 1030.874345 596.578782 
L 1031.900175 596.281046 
L 1032.926004 598.139069 
L 1033.951834 596.608937 
L 1034.977663 595.872527 
L 1036.003493 596.316831 
L 1037.029323 596.498763 
L 1038.055152 596.923328 
L 1039.080982 596.525677 
L 1040.106811 598.083925 
L 1041.132641 596.76076 
L 1042.15847 596.975221 
L 1043.1843 596.591052 
L 1044.21013 593.482438 
L 1045.235959 601.125655 
L 1046.261789 596.570783 
L 1047.287618 597.008324 
L 1048.313448 597.129196 
L 1049.339278 596.601074 
L 1050.365107 596.547178 
L 1051.390937 597.562201 
L 1052.416766 597.332228 
L 1053.442596 596.853575 
L 1055.494255 596.987569 
L 1056.520085 597.337925 
L 1057.545914 598.144017 
L 1058.571744 597.205166 
L 1059.597573 597.478034 
L 1061.649232 597.256056 
L 1062.675062 597.927174 
L 1063.700892 597.768253 
L 1064.726721 597.899117 
L 1065.752551 597.324488 
L 1066.77838 597.71134 
L 1067.80421 599.327893 
L 1068.83004 598.035332 
L 1069.855869 597.82993 
L 1070.881699 597.807076 
L 1071.907528 598.129773 
L 1072.933358 597.829084 
L 1074.985017 597.888449 
L 1076.010847 597.880016 
L 1077.036676 598.113157 
L 1078.062506 597.706982 
L 1079.088335 597.906183 
L 1080.114165 598.227922 
L 1081.139994 598.429488 
L 1082.165824 597.726583 
L 1083.191654 597.685258 
L 1084.217483 598.215003 
L 1085.243313 598.157228 
L 1086.269142 597.936462 
L 1087.294972 597.876307 
L 1088.320802 598.309024 
L 1089.346631 598.315226 
L 1090.372461 598.012246 
L 1091.39829 598.072502 
L 1092.42412 598.554606 
L 1093.449949 598.447195 
L 1094.475779 598.056185 
L 1095.501609 598.124415 
L 1096.527438 598.628561 
L 1097.553268 600.217972 
L 1098.579097 598.232238 
L 1099.604927 598.109881 
L 1100.630757 598.791264 
L 1101.656586 598.367687 
L 1102.682416 601.942962 
L 1103.708245 598.723832 
L 1104.734075 598.830083 
L 1105.759904 599.437457 
L 1106.785734 598.497753 
L 1107.811564 598.267736 
L 1108.837393 599.039326 
L 1109.863223 597.504241 
L 1110.889052 598.311892 
L 1111.914882 598.531491 
L 1112.940711 599.172993 
L 1113.966541 599.153225 
L 1114.992371 598.855121 
L 1116.0182 601.989461 
L 1117.04403 599.086378 
L 1118.069859 599.478846 
L 1119.095689 598.654681 
L 1120.121519 598.659935 
L 1121.147348 599.258261 
L 1122.173178 599.422855 
L 1123.199007 599.023425 
L 1124.224837 597.676275 
L 1125.250666 599.516024 
L 1128.328155 599.105943 
L 1129.353985 599.555599 
L 1133.457303 599.52324 
L 1134.483133 599.654383 
L 1135.508962 599.206341 
L 1136.534792 599.210859 
L 1137.560621 599.724251 
L 1138.586451 599.771237 
L 1139.612281 599.32064 
L 1140.63811 599.491832 
L 1141.66394 599.801288 
L 1142.689769 601.004702 
L 1143.715599 599.600447 
L 1144.741428 599.332011 
L 1145.767258 599.732049 
L 1146.793088 601.135585 
L 1147.818917 599.843405 
L 1148.844747 599.614705 
L 1149.870576 599.853958 
L 1150.896406 601.350244 
L 1151.922235 599.591417 
L 1152.948065 599.568544 
L 1153.973895 600.057494 
L 1154.999724 601.705973 
L 1156.025554 599.707612 
L 1157.051383 599.493948 
L 1158.077213 600.214226 
L 1159.103043 600.517877 
L 1160.128872 599.972316 
L 1161.154702 599.827338 
L 1162.180531 600.496067 
L 1163.206361 600.556396 
L 1164.23219 600.015773 
L 1165.25802 600.019692 
L 1166.28385 602.931211 
L 1167.309679 601.452803 
L 1168.335509 600.275575 
L 1169.361338 600.199804 
L 1170.387168 600.434233 
L 1171.412998 600.279775 
L 1172.438827 600.350452 
L 1173.464657 600.240721 
L 1174.490486 600.470033 
L 1175.516316 600.439739 
L 1176.542145 600.149904 
L 1177.567975 600.092015 
L 1178.593805 600.979629 
L 1179.619634 600.596766 
L 1180.645464 600.375771 
L 1181.671293 600.31022 
L 1182.697123 600.672732 
L 1183.722952 600.680264 
L 1184.748782 600.347541 
L 1185.774612 600.254118 
L 1186.800441 601.036303 
L 1187.826271 600.894452 
L 1188.8521 600.495714 
L 1189.87793 600.61255 
L 1190.90376 602.043887 
L 1191.929589 600.975886 
L 1192.955419 600.490799 
L 1193.981248 600.410383 
L 1195.007078 600.956527 
L 1196.032907 600.862689 
L 1197.058737 600.584637 
L 1198.084567 600.713583 
L 1199.110396 601.125303 
L 1200.136226 601.156459 
L 1201.162055 600.770228 
L 1202.187885 597.061888 
L 1203.213714 602.503223 
L 1204.239544 601.679623 
L 1205.265374 601.066574 
L 1206.291203 600.903231 
L 1207.317033 601.403458 
L 1208.342862 601.398038 
L 1209.368692 601.005336 
L 1210.394522 601.007061 
L 1211.420351 601.364508 
L 1212.446181 601.548879 
L 1213.47201 600.76706 
L 1214.49784 600.896671 
L 1215.523669 601.23604 
L 1216.549499 601.282473 
L 1217.575329 601.088263 
L 1218.601158 601.3955 
L 1220.652817 601.541189 
L 1221.678647 600.516476 
L 1222.704477 601.263518 
L 1223.730306 601.64464 
L 1224.756136 601.746271 
L 1226.807795 600.67278 
L 1227.833624 601.74143 
L 1228.859454 603.133306 
L 1229.885284 601.468921 
L 1230.911113 601.481958 
L 1231.936943 601.968395 
L 1232.962772 602.718454 
L 1233.988602 601.587218 
L 1235.014431 601.483278 
L 1236.040261 602.034511 
L 1237.066091 601.931721 
L 1238.09192 601.707272 
L 1239.11775 601.129762 
L 1240.143579 601.917218 
L 1241.169409 602.068464 
L 1242.195239 601.675971 
L 1243.221068 601.723075 
L 1244.246898 602.028288 
L 1245.272727 602.059313 
L 1245.272727 602.059313 
" style="fill:none;stroke:#1f77b4;stroke-linecap:square;stroke-width:1.5;"/>
   </g>
   <g id="line2d_21">
    <path clip-path="url(#pe5d8ee1106)" d="M 230.727273 216.318164 
L 231.753102 111.6 
L 232.778932 253.711186 
L 233.804761 266.241532 
L 234.830591 221.844714 
L 235.856421 233.533495 
L 236.88225 229.51261 
L 237.90808 255.518463 
L 238.933909 253.514407 
L 239.959739 271.659657 
L 240.985569 259.096447 
L 242.011398 290.036544 
L 243.037228 291.138879 
L 244.063057 296.152875 
L 245.088887 270.44251 
L 246.114716 318.584348 
L 247.140546 329.940634 
L 248.166376 336.405624 
L 249.192205 341.603172 
L 250.218035 321.274658 
L 251.243864 342.017211 
L 252.269694 357.082067 
L 254.321353 325.384096 
L 255.347183 369.121382 
L 256.373012 360.483387 
L 257.398842 374.749419 
L 258.424671 403.778021 
L 259.450501 365.72006 
L 260.476331 372.224206 
L 261.50216 368.203584 
L 262.52799 451.48956 
L 263.553819 390.231681 
L 264.579649 398.24973 
L 265.605478 397.452247 
L 266.631308 412.946993 
L 267.657138 401.432597 
L 268.682967 397.562081 
L 270.734626 423.045226 
L 271.760456 424.51093 
L 272.786286 412.838558 
L 273.812115 469.191324 
L 274.837945 423.373363 
L 275.863774 423.372624 
L 276.889604 420.665445 
L 277.915433 434.01134 
L 278.941263 434.320436 
L 279.967093 431.218469 
L 280.992922 440.258382 
L 282.018752 444.394276 
L 283.044581 447.986971 
L 284.070411 448.663144 
L 285.09624 452.314502 
L 286.12207 465.366458 
L 287.1479 448.96607 
L 288.173729 493.608316 
L 289.199559 461.515003 
L 290.225388 460.791379 
L 291.251218 464.431786 
L 292.277048 457.61585 
L 293.302877 455.89121 
L 294.328707 454.572707 
L 295.354536 459.176956 
L 296.380366 460.616119 
L 297.406195 467.097115 
L 298.432025 466.43401 
L 299.457855 476.090839 
L 300.483684 507.478954 
L 301.509514 490.288703 
L 302.535343 487.536956 
L 303.561173 481.819353 
L 304.587002 480.18872 
L 305.612832 486.32863 
L 306.638662 481.341457 
L 307.664491 485.80391 
L 308.690321 485.973112 
L 309.71615 485.708574 
L 310.74198 490.167852 
L 311.76781 489.647246 
L 312.793639 487.221648 
L 314.845298 493.367109 
L 315.871128 495.685658 
L 316.896957 493.399159 
L 317.922787 497.05012 
L 318.948617 490.695067 
L 319.974446 498.109287 
L 322.026105 499.977126 
L 323.051935 496.697193 
L 324.077765 524.332136 
L 325.103594 503.762641 
L 326.129424 508.777982 
L 327.155253 502.025186 
L 328.181083 503.83036 
L 329.206912 501.406661 
L 330.232742 506.311099 
L 331.258572 507.68968 
L 332.284401 509.776824 
L 333.310231 510.887181 
L 334.33606 516.592314 
L 335.36189 513.420574 
L 336.387719 514.805552 
L 337.413549 518.684185 
L 338.439379 519.484514 
L 339.465208 518.259055 
L 340.491038 514.262842 
L 341.516867 522.191644 
L 342.542697 519.848552 
L 343.568527 517.993853 
L 344.594356 527.438972 
L 345.620186 517.616469 
L 346.646015 517.682962 
L 347.671845 521.437687 
L 348.697674 523.656352 
L 349.723504 521.301873 
L 350.749334 523.128333 
L 351.775163 523.317042 
L 352.800993 526.391738 
L 353.826822 524.247993 
L 354.852652 529.976548 
L 355.878481 546.114437 
L 356.904311 530.014757 
L 357.930141 526.675717 
L 358.95597 530.293552 
L 359.9818 527.898582 
L 362.033459 527.922449 
L 363.059289 531.868699 
L 364.085118 528.975925 
L 365.110948 543.759542 
L 366.136777 532.023182 
L 367.162607 530.09287 
L 368.188436 532.679244 
L 369.214266 537.27066 
L 370.240096 538.469942 
L 371.265925 535.609135 
L 372.291755 548.841499 
L 373.317584 538.789144 
L 374.343414 535.752189 
L 375.369243 537.838446 
L 376.395073 541.454007 
L 377.420903 539.572481 
L 378.446732 542.873169 
L 380.498391 537.852196 
L 381.524221 553.296726 
L 382.550051 539.891595 
L 383.57588 550.485888 
L 384.60171 539.265738 
L 385.627539 541.913318 
L 386.653369 543.801472 
L 387.679198 545.254527 
L 388.705028 541.99446 
L 389.730858 548.661612 
L 390.756687 544.404581 
L 391.782517 545.959187 
L 392.808346 543.208544 
L 393.834176 546.472821 
L 394.860006 546.354336 
L 395.885835 548.077101 
L 396.911665 544.814765 
L 397.937494 549.368906 
L 398.963324 547.871317 
L 399.989153 548.517415 
L 401.014983 550.148904 
L 402.040813 550.44883 
L 403.066642 551.221064 
L 404.092472 552.836643 
L 405.118301 549.699217 
L 406.144131 552.611128 
L 407.16996 551.452987 
L 408.19579 553.72116 
L 409.22162 551.410232 
L 410.247449 555.399975 
L 411.273279 552.058577 
L 412.299108 554.812303 
L 413.324938 553.08996 
L 414.350768 555.454943 
L 415.376597 552.561451 
L 416.402427 555.127854 
L 417.428256 554.412274 
L 418.454086 556.327103 
L 419.479915 554.488074 
L 420.505745 557.225677 
L 421.531575 556.526113 
L 422.557404 558.542114 
L 423.583234 560.290115 
L 424.609063 559.761577 
L 425.634893 555.490657 
L 426.660722 558.388811 
L 427.686552 556.870241 
L 429.738211 560.263307 
L 430.764041 568.209684 
L 431.78987 559.722893 
L 432.8157 566.073725 
L 433.84153 559.338577 
L 434.867359 560.231638 
L 435.893189 561.566403 
L 436.919018 561.518918 
L 437.944848 563.619206 
L 438.970677 562.9357 
L 439.996507 561.228034 
L 441.022337 563.171631 
L 442.048166 561.758198 
L 443.073996 563.689694 
L 444.099825 562.511886 
L 445.125655 565.115272 
L 446.151485 562.715184 
L 447.177314 563.797689 
L 448.203144 564.169222 
L 449.228973 565.015833 
L 450.254803 569.208007 
L 451.280632 565.196305 
L 452.306462 564.748815 
L 453.332292 566.037701 
L 454.358121 564.325838 
L 455.383951 567.730166 
L 456.40978 566.100225 
L 457.43561 568.216787 
L 458.461439 572.676101 
L 459.487269 568.453622 
L 460.513099 567.373648 
L 461.538928 564.545204 
L 462.564758 566.468732 
L 463.590587 569.204881 
L 464.616417 568.989083 
L 465.642247 569.609229 
L 466.668076 568.812569 
L 467.693906 571.310663 
L 468.719735 574.323621 
L 469.745565 570.175262 
L 470.771394 576.278713 
L 471.797224 577.413865 
L 472.823054 566.752621 
L 473.848883 573.386435 
L 474.874713 571.840339 
L 475.900542 571.264628 
L 476.926372 571.199469 
L 477.952201 570.787041 
L 478.978031 574.428843 
L 480.003861 570.482023 
L 481.02969 573.086742 
L 482.05552 571.862708 
L 483.081349 577.983365 
L 484.107179 573.910026 
L 485.133009 574.128923 
L 486.158838 572.945983 
L 487.184668 573.743071 
L 488.210497 572.380004 
L 489.236327 573.387837 
L 490.262156 573.044072 
L 491.287986 575.907503 
L 492.313816 572.261761 
L 493.339645 576.299575 
L 494.365475 574.278572 
L 495.391304 575.96763 
L 496.417134 573.758887 
L 497.442964 576.615405 
L 498.468793 574.701666 
L 499.494623 576.600783 
L 500.520452 579.52107 
L 501.546282 577.229966 
L 502.572111 575.749626 
L 503.597941 577.271362 
L 504.623771 576.381174 
L 505.6496 577.37689 
L 506.67543 575.733623 
L 507.701259 577.332784 
L 508.727089 576.312148 
L 509.752918 579.304902 
L 510.778748 577.763638 
L 511.804578 578.009174 
L 512.830407 576.90812 
L 513.856237 579.02851 
L 514.882066 577.842257 
L 515.907896 578.85954 
L 516.933726 578.151423 
L 517.959555 579.980418 
L 518.985385 578.2771 
L 520.011214 583.882012 
L 521.037044 578.324231 
L 522.062873 580.400681 
L 523.088703 578.775853 
L 524.114533 580.616217 
L 525.140362 579.326226 
L 526.166192 580.614547 
L 527.192021 579.058733 
L 528.217851 582.841706 
L 529.24368 580.063516 
L 530.26951 581.369166 
L 531.29534 581.368416 
L 532.321169 581.558581 
L 533.346999 580.443426 
L 534.372828 581.975034 
L 535.398658 581.301465 
L 536.424488 584.104391 
L 537.450317 581.568177 
L 538.476147 582.753565 
L 539.501976 581.299161 
L 540.527806 582.642422 
L 541.553635 581.566883 
L 542.579465 583.093629 
L 543.605295 581.451574 
L 544.631124 583.261302 
L 545.656954 582.362932 
L 546.682783 586.389574 
L 547.708613 582.643755 
L 548.734443 581.840012 
L 549.760272 583.292298 
L 550.786102 582.105673 
L 551.811931 584.043344 
L 552.837761 582.490995 
L 553.86359 584.41158 
L 554.88942 584.82736 
L 555.91525 585.434979 
L 556.941079 583.046192 
L 557.966909 584.73959 
L 558.992738 583.170013 
L 560.018568 584.677376 
L 561.044397 583.6068 
L 562.070227 586.411384 
L 563.096057 583.954714 
L 564.121886 585.625313 
L 565.147716 584.561373 
L 566.173545 585.883419 
L 567.199375 584.494131 
L 568.225205 586.021026 
L 569.251034 585.561429 
L 570.276864 586.005793 
L 571.302693 587.957335 
L 572.328523 586.186097 
L 573.354352 583.185429 
L 574.380182 587.325578 
L 575.406012 586.669855 
L 576.431841 586.50531 
L 577.457671 587.465451 
L 578.4835 587.666652 
L 579.50933 585.696427 
L 580.535159 588.711733 
L 581.560989 589.0917 
L 582.586819 587.474181 
L 583.612648 586.231036 
L 584.638478 587.782034 
L 585.664307 586.767778 
L 586.690137 588.921641 
L 587.715967 586.727739 
L 588.741796 590.324213 
L 589.767626 587.473839 
L 590.793455 588.290973 
L 591.819285 587.412647 
L 592.845114 589.62058 
L 593.870944 587.269342 
L 594.896774 587.944085 
L 595.922603 588.909157 
L 596.948433 588.197583 
L 597.974262 589.311709 
L 599.000092 588.146703 
L 600.025922 590.174746 
L 601.051751 588.385308 
L 602.077581 587.750014 
L 603.10341 588.472335 
L 604.12924 588.957709 
L 605.155069 588.485706 
L 606.180899 590.036928 
L 607.206729 588.714683 
L 608.232558 590.675404 
L 609.258388 589.91954 
L 610.284217 590.656448 
L 611.310047 589.427257 
L 612.335876 590.954034 
L 613.361706 588.933348 
L 614.387536 591.474463 
L 615.413365 590.170897 
L 616.439195 591.181975 
L 617.465024 589.831236 
L 618.490854 593.909737 
L 619.516684 590.200414 
L 620.542513 591.568592 
L 622.594172 591.636377 
L 623.620002 590.607983 
L 624.645831 590.374029 
L 625.671661 590.542847 
L 626.697491 591.763518 
L 627.72332 590.260854 
L 628.74915 591.165531 
L 629.774979 587.342862 
L 630.800809 592.213334 
L 631.826638 591.238622 
L 632.852468 592.224495 
L 633.878298 591.200302 
L 634.904127 592.639778 
L 635.929957 591.455217 
L 636.955786 592.635658 
L 637.981616 593.106878 
L 639.007446 595.187091 
L 640.033275 591.658344 
L 641.059105 595.717644 
L 642.084934 592.787778 
L 643.110764 593.594008 
L 644.136593 592.066303 
L 645.162423 593.368775 
L 646.188253 592.493505 
L 647.214082 592.299159 
L 648.239912 593.53517 
L 649.265741 592.466799 
L 650.291571 593.776178 
L 651.3174 592.485236 
L 652.34323 595.996833 
L 653.36906 592.984922 
L 654.394889 593.988161 
L 655.420719 593.130318 
L 656.446548 594.211826 
L 657.472378 592.748429 
L 658.498208 594.229223 
L 659.524037 593.606567 
L 660.549867 594.167824 
L 661.575696 593.453344 
L 662.601526 594.620233 
L 663.627355 593.422616 
L 664.653185 594.653002 
L 665.679015 593.578339 
L 666.704844 594.848667 
L 667.730674 594.15785 
L 668.756503 593.011236 
L 670.808163 595.705133 
L 671.833992 593.893202 
L 672.859822 595.41163 
L 673.885651 592.855704 
L 674.911481 595.444456 
L 675.93731 594.720431 
L 676.96314 595.336009 
L 679.014799 595.37855 
L 680.040629 594.338298 
L 681.066458 595.973152 
L 682.092288 594.968854 
L 683.118117 596.086945 
L 684.143947 594.867118 
L 685.169777 595.938043 
L 686.195606 594.737762 
L 687.221436 596.097997 
L 688.247265 595.007981 
L 689.273095 596.157568 
L 690.298925 595.578497 
L 691.324754 596.313701 
L 692.350584 595.756333 
L 693.376413 600.654487 
L 694.402243 596.180198 
L 695.428072 596.406293 
L 696.453902 595.838317 
L 697.479732 597.073774 
L 698.505561 595.552836 
L 699.531391 596.953487 
L 700.55722 595.879617 
L 701.58305 596.89592 
L 702.608879 596.173755 
L 703.634709 597.44297 
L 704.660539 596.165443 
L 705.686368 597.278226 
L 706.712198 596.110523 
L 707.738027 598.917614 
L 708.763857 596.100174 
L 709.789687 597.122874 
L 710.815516 597.624377 
L 711.841346 597.863511 
L 712.867175 596.725664 
L 713.893005 597.482638 
L 714.918834 596.627656 
L 715.944664 597.773199 
L 716.970494 598.564723 
L 717.996323 597.941481 
L 719.022153 597.032421 
L 720.047982 598.482221 
L 721.073812 597.125521 
L 722.099642 598.180425 
L 723.125471 597.254681 
L 724.151301 598.216461 
L 725.17713 597.341123 
L 726.20296 598.509983 
L 727.228789 597.588808 
L 728.254619 598.257348 
L 729.280449 597.116188 
L 730.306278 598.611349 
L 731.332108 597.878566 
L 732.357937 601.02027 
L 733.383767 597.897196 
L 734.409596 598.630214 
L 735.435426 597.81434 
L 736.461256 599.002222 
L 737.487085 598.053691 
L 738.512915 599.155862 
L 739.538744 598.327817 
L 740.564574 599.298003 
L 741.590404 598.923567 
L 742.616233 600.845328 
L 743.642063 599.09466 
L 744.667892 599.265459 
L 745.693722 597.252618 
L 746.719551 599.968033 
L 747.745381 598.546576 
L 748.771211 599.94373 
L 749.79704 593.977852 
L 750.82287 598.807228 
L 751.848699 597.660879 
L 752.874529 603.21901 
L 753.900358 598.038195 
L 754.926188 600.182406 
L 755.952018 597.827034 
L 756.977847 599.38343 
L 758.003677 599.021747 
L 759.029506 599.632349 
L 760.055336 597.676721 
L 761.081166 599.728639 
L 762.106995 599.291928 
L 763.132825 599.290241 
L 764.158654 598.690262 
L 765.184484 600.696993 
L 766.210313 598.701144 
L 767.236143 598.822593 
L 768.261973 599.538949 
L 769.287802 600.558881 
L 770.313632 598.589943 
L 772.365291 601.11592 
L 773.391121 599.848002 
L 774.41695 599.284607 
L 775.44278 600.72904 
L 776.468609 599.05408 
L 777.494439 600.690031 
L 778.520268 598.53683 
L 779.546098 600.085383 
L 780.571928 599.052954 
L 781.597757 600.833834 
L 782.623587 599.188248 
L 783.649416 600.128234 
L 784.675246 599.097557 
L 785.701075 601.6007 
L 786.726905 599.568119 
L 787.752735 600.296726 
L 788.778564 600.644842 
L 789.804394 602.223581 
L 790.830223 599.486209 
L 791.856053 600.218336 
L 792.881883 600.793053 
L 793.907712 600.424473 
L 794.933542 599.316818 
L 795.959371 601.488067 
L 796.985201 600.143558 
L 798.01103 600.929464 
L 799.03686 601.473538 
L 800.06269 602.242596 
L 801.088519 599.799829 
L 802.114349 600.778561 
L 803.140178 601.133054 
L 804.166008 602.223843 
L 805.191837 598.060638 
L 806.217667 602.022006 
L 807.243497 601.593331 
L 808.269326 602.930364 
L 809.295156 601.75154 
L 810.320985 602.557881 
L 811.346815 601.667726 
L 812.372645 602.538503 
L 813.398474 601.327937 
L 814.424304 603.78278 
L 815.450133 601.667393 
L 816.475963 601.377263 
L 817.501792 602.098787 
L 818.527622 602.564275 
L 819.553452 601.934201 
L 820.579281 602.853926 
L 821.605111 601.968966 
L 822.63094 603.116508 
L 823.65677 602.47379 
L 824.6826 603.831338 
L 825.708429 602.309591 
L 826.734259 604.942683 
L 827.760088 602.273966 
L 828.785918 603.202799 
L 829.811747 602.251444 
L 830.837577 603.486447 
L 831.863407 602.827864 
L 832.889236 603.320215 
L 834.940895 603.513742 
L 835.966725 602.728164 
L 836.992554 603.371984 
L 838.018384 602.946025 
L 839.044214 604.663316 
L 840.070043 602.72571 
L 841.095873 603.634111 
L 842.121702 603.136041 
L 843.147532 603.976792 
L 844.173362 603.029362 
L 845.199191 603.600679 
L 846.225021 602.914041 
L 847.25085 603.469741 
L 848.27668 603.181508 
L 849.302509 604.102942 
L 850.328339 603.229943 
L 851.354169 605.331021 
L 852.379998 603.41502 
L 853.405828 603.968751 
L 854.431657 604.06026 
L 855.457487 603.982805 
L 856.483316 602.527052 
L 857.509146 603.83906 
L 858.534976 602.842803 
L 859.560805 604.280117 
L 860.586635 603.457772 
L 861.612464 604.387491 
L 862.638294 603.714411 
L 863.664124 604.513244 
L 864.689953 603.167469 
L 865.715783 604.282194 
L 866.741612 602.77794 
L 867.767442 599.911486 
L 868.793271 603.743933 
L 869.819101 602.811208 
L 870.844931 602.813036 
L 871.87076 603.971986 
L 872.89659 603.687606 
L 873.922419 604.511799 
L 874.948249 602.321529 
L 875.974078 603.968509 
L 876.999908 606.225312 
L 879.051567 603.961651 
L 880.077397 603.727178 
L 881.103226 604.098474 
L 882.129056 603.060941 
L 883.154886 602.667528 
L 884.180715 601.149258 
L 885.206545 603.327318 
L 886.232374 604.531506 
L 887.258204 606.522849 
L 888.284033 602.639951 
L 889.309863 604.653853 
L 890.335693 603.123919 
L 892.387352 601.086543 
L 893.413181 604.314649 
L 894.439011 603.521315 
L 895.464841 604.746275 
L 896.49067 605.589747 
L 897.5165 604.857665 
L 898.542329 605.6424 
L 899.568159 604.969128 
L 900.593988 605.637933 
L 901.619818 605.581606 
L 902.645648 605.750695 
L 903.671477 606.752029 
L 904.697307 606.027894 
L 905.723136 604.688097 
L 906.748966 605.767521 
L 907.774795 605.266898 
L 908.800625 606.208419 
L 909.826455 605.066276 
L 910.852284 606.073074 
L 911.878114 605.228615 
L 912.903943 606.341913 
L 913.929773 604.434878 
L 914.955603 607.030412 
L 915.981432 606.373484 
L 917.007262 607.339077 
L 918.033091 606.43088 
L 919.058921 606.214308 
L 920.08475 605.512899 
L 921.11058 606.335373 
L 922.13641 605.776552 
L 923.162239 606.527142 
L 924.188069 605.602428 
L 925.213898 606.306738 
L 926.239728 605.824173 
L 927.265557 606.652621 
L 928.291387 606.063943 
L 929.317217 606.789841 
L 930.343046 606.293859 
L 931.368876 605.484063 
L 932.394705 605.962501 
L 933.420535 606.765813 
L 934.446365 606.186986 
L 935.472194 606.642268 
L 936.498024 606.228002 
L 937.523853 606.615941 
L 938.549683 606.016588 
L 939.575512 607.334426 
L 940.601342 606.060781 
L 942.653001 607.69824 
L 943.678831 607.07008 
L 945.73049 607.070717 
L 946.75632 605.790861 
L 947.782149 606.78374 
L 948.807979 605.831109 
L 949.833808 606.993754 
L 950.859638 605.653959 
L 951.885467 606.923754 
L 952.911297 606.03006 
L 953.937127 609.314535 
L 954.962956 606.6989 
L 955.988786 610.118442 
L 957.014615 607.024001 
L 958.040445 607.600553 
L 959.066274 606.879641 
L 960.092104 606.89369 
L 961.117934 606.528977 
L 962.143763 607.762304 
L 963.169593 606.3842 
L 964.195422 607.223006 
L 965.221252 606.534935 
L 966.247082 608.384739 
L 967.272911 606.700494 
L 968.298741 607.081124 
L 969.32457 606.727548 
L 970.3504 607.623395 
L 971.376229 606.733152 
L 972.402059 607.46481 
L 973.427889 606.410467 
L 974.453718 607.794318 
L 975.479548 606.93666 
L 976.505377 607.642875 
L 977.531207 606.874745 
L 978.557036 608.14386 
L 979.582866 606.934267 
L 980.608696 608.021315 
L 981.634525 606.406385 
L 982.660355 608.027621 
L 983.686184 607.115838 
L 984.712014 608.515601 
L 985.737844 607.312054 
L 986.763673 608.240153 
L 987.789503 607.145545 
L 988.815332 608.067402 
L 989.841162 607.477362 
L 990.866991 608.278017 
L 991.892821 607.597854 
L 992.918651 608.151515 
L 993.94448 608.527853 
L 994.97031 608.518435 
L 995.996139 607.839774 
L 997.021969 608.502655 
L 998.047799 607.741068 
L 999.073628 608.454401 
L 1000.099458 607.828992 
L 1001.125287 608.601953 
L 1002.151117 607.875717 
L 1003.176946 608.466445 
L 1004.202776 608.648226 
L 1005.228606 608.619213 
L 1006.254435 607.936915 
L 1007.280265 608.667192 
L 1008.306094 611.202105 
L 1009.331924 609.281619 
L 1010.357753 608.151509 
L 1011.383583 608.817528 
L 1012.409413 608.6424 
L 1013.435242 608.924862 
L 1014.461072 608.122254 
L 1015.486901 608.899724 
L 1016.512731 608.19657 
L 1017.538561 608.863103 
L 1018.56439 609.108623 
L 1019.59022 609.169581 
L 1020.616049 608.343645 
L 1021.641879 608.753905 
L 1022.667708 608.334527 
L 1023.693538 609.078838 
L 1024.719368 608.466077 
L 1025.745197 609.028558 
L 1026.771027 608.47217 
L 1027.796856 609.176358 
L 1028.822686 608.403827 
L 1029.848515 609.219386 
L 1030.874345 608.506504 
L 1031.900175 609.186142 
L 1032.926004 608.740636 
L 1033.951834 609.232555 
L 1034.977663 609.348309 
L 1036.003493 609.322179 
L 1037.029323 608.901014 
L 1038.055152 609.394024 
L 1039.080982 608.832951 
L 1040.106811 610.2832 
L 1041.132641 608.971132 
L 1042.15847 609.486854 
L 1043.1843 608.845557 
L 1044.21013 609.491526 
L 1045.235959 608.977024 
L 1046.261789 609.588 
L 1047.287618 608.929858 
L 1048.313448 609.718932 
L 1049.339278 609.0324 
L 1050.365107 609.590777 
L 1051.390937 609.020172 
L 1052.416766 609.698163 
L 1053.442596 609.770713 
L 1054.468425 609.64264 
L 1055.494255 608.898242 
L 1056.520085 609.832137 
L 1057.545914 609.071169 
L 1058.571744 609.781751 
L 1059.597573 609.306938 
L 1060.623403 610.022283 
L 1061.649232 610.293718 
L 1062.675062 610.079444 
L 1063.700892 609.348523 
L 1064.726721 610.093293 
L 1065.752551 609.449508 
L 1066.77838 610.085754 
L 1067.80421 609.481385 
L 1068.83004 610.079195 
L 1069.855869 609.489935 
L 1070.881699 610.093003 
L 1071.907528 609.569137 
L 1072.933358 610.222501 
L 1073.959187 609.517341 
L 1074.985017 610.188402 
L 1076.010847 609.623047 
L 1077.036676 610.695549 
L 1078.062506 609.686541 
L 1079.088335 610.211674 
L 1080.114165 609.72724 
L 1081.139994 610.45603 
L 1083.191654 610.350274 
L 1084.217483 609.831913 
L 1085.243313 610.478509 
L 1086.269142 609.800531 
L 1087.294972 611.690618 
L 1088.320802 609.950629 
L 1089.346631 610.601815 
L 1090.372461 609.950597 
L 1091.39829 610.682512 
L 1092.42412 610.039371 
L 1093.449949 610.665745 
L 1094.475779 609.582274 
L 1095.501609 610.456802 
L 1096.527438 609.947302 
L 1097.553268 611.238728 
L 1098.579097 609.782484 
L 1099.604927 610.683101 
L 1100.630757 609.961234 
L 1101.656586 610.734642 
L 1102.682416 610.081087 
L 1103.708245 610.791248 
L 1104.734075 610.198336 
L 1105.759904 610.872114 
L 1106.785734 610.854044 
L 1107.811564 610.972921 
L 1108.837393 610.258416 
L 1109.863223 610.908702 
L 1110.889052 610.218589 
L 1111.914882 611.558213 
L 1112.940711 610.285773 
L 1113.966541 612.019238 
L 1114.992371 610.588664 
L 1116.0182 611.734178 
L 1117.04403 610.574815 
L 1118.069859 611.131095 
L 1119.095689 610.419829 
L 1120.121519 611.096657 
L 1121.147348 610.537255 
L 1122.173178 611.164811 
L 1123.199007 610.511429 
L 1124.224837 611.217508 
L 1125.250666 611.000774 
L 1126.276496 611.193632 
L 1127.302326 610.612599 
L 1128.328155 611.48463 
L 1129.353985 611.861897 
L 1131.405644 610.645735 
L 1132.431473 611.331052 
L 1134.483133 611.235718 
L 1135.508962 610.711523 
L 1136.534792 611.180515 
L 1137.560621 610.858691 
L 1138.586451 611.358223 
L 1140.63811 611.688112 
L 1141.66394 610.807525 
L 1142.689769 611.486304 
L 1143.715599 610.939431 
L 1144.741428 612.083123 
L 1145.767258 610.942045 
L 1146.793088 611.485517 
L 1147.818917 610.937823 
L 1148.844747 612.099278 
L 1149.870576 610.920668 
L 1150.896406 611.635255 
L 1151.922235 610.767031 
L 1152.948065 611.619894 
L 1153.973895 611.063463 
L 1154.999724 611.658609 
L 1156.025554 611.539661 
L 1157.051383 611.705858 
L 1158.077213 611.090379 
L 1159.103043 611.733236 
L 1160.128872 611.280068 
L 1161.154702 611.738708 
L 1162.180531 611.120786 
L 1163.206361 612.24754 
L 1164.23219 611.189231 
L 1165.25802 611.792468 
L 1166.28385 612.649219 
L 1168.335509 611.320741 
L 1169.361338 611.966963 
L 1170.387168 611.359435 
L 1171.412998 611.746047 
L 1172.438827 611.120869 
L 1173.464657 611.507581 
L 1174.490486 611.329776 
L 1175.516316 611.890529 
L 1176.542145 611.424569 
L 1177.567975 612.021681 
L 1178.593805 611.360461 
L 1179.619634 611.910007 
L 1180.645464 611.333816 
L 1181.671293 612.057141 
L 1182.697123 611.56073 
L 1183.722952 612.102764 
L 1184.748782 611.569253 
L 1185.774612 612.695607 
L 1186.800441 611.660821 
L 1187.826271 612.195591 
L 1188.8521 612.142655 
L 1189.87793 611.833881 
L 1190.90376 611.644866 
L 1191.929589 612.808664 
L 1192.955419 611.833684 
L 1193.981248 612.294971 
L 1196.032907 612.407553 
L 1197.058737 611.746683 
L 1198.084567 612.759417 
L 1199.110396 611.49467 
L 1200.136226 612.298204 
L 1201.162055 611.807936 
L 1202.187885 612.376775 
L 1203.213714 611.926358 
L 1204.239544 612.464458 
L 1205.265374 611.921645 
L 1206.291203 612.540965 
L 1207.317033 611.98813 
L 1208.342862 612.455787 
L 1209.368692 611.967837 
L 1210.394522 612.598871 
L 1211.420351 611.990304 
L 1212.446181 612.625356 
L 1213.47201 612.03836 
L 1214.49784 612.931804 
L 1215.523669 612.092874 
L 1216.549499 612.725534 
L 1217.575329 612.051019 
L 1218.601158 615.6 
L 1219.626988 612.3843 
L 1220.652817 612.830075 
L 1221.678647 612.142633 
L 1222.704477 612.742344 
L 1223.730306 612.087478 
L 1224.756136 612.708799 
L 1225.781965 612.155924 
L 1226.807795 613.125823 
L 1227.833624 612.19525 
L 1228.859454 612.841666 
L 1229.885284 612.335139 
L 1230.911113 613.039434 
L 1231.936943 612.306623 
L 1232.962772 612.816966 
L 1233.988602 612.552525 
L 1235.014431 613.310379 
L 1236.040261 612.28982 
L 1237.066091 613.001823 
L 1238.09192 612.509692 
L 1239.11775 613.034932 
L 1240.143579 612.47329 
L 1241.169409 612.97793 
L 1242.195239 612.450152 
L 1243.221068 613.543854 
L 1244.246898 612.498539 
L 1245.272727 613.204178 
L 1245.272727 613.204178 
" style="fill:none;stroke:#ff7f0e;stroke-linecap:square;stroke-width:1.5;"/>
   </g>
   <g id="patch_3">
    <path d="M 180 640.8 
L 180 86.4 
" style="fill:none;stroke:#000000;stroke-linecap:square;stroke-linejoin:miter;stroke-width:0.8;"/>
   </g>
   <g id="patch_4">
    <path d="M 1296 640.8 
L 1296 86.4 
" style="fill:none;stroke:#000000;stroke-linecap:square;stroke-linejoin:miter;stroke-width:0.8;"/>
   </g>
   <g id="patch_5">
    <path d="M 180 640.8 
L 1296 640.8 
" style="fill:none;stroke:#000000;stroke-linecap:square;stroke-linejoin:miter;stroke-width:0.8;"/>
   </g>
   <g id="patch_6">
    <path d="M 180 86.4 
L 1296 86.4 
" style="fill:none;stroke:#000000;stroke-linecap:square;stroke-linejoin:miter;stroke-width:0.8;"/>
   </g>
   <g id="text_22">
    <!-- Ultimate Oscillator Speedup -->
    <defs>
     <path d="M 8.6875 72.90625 
L 18.609375 72.90625 
L 18.609375 28.609375 
Q 18.609375 16.890625 22.84375 11.734375 
Q 27.09375 6.59375 36.625 6.59375 
Q 46.09375 6.59375 50.34375 11.734375 
Q 54.59375 16.890625 54.59375 28.609375 
L 54.59375 72.90625 
L 64.5 72.90625 
L 64.5 27.390625 
Q 64.5 13.140625 57.4375 5.859375 
Q 50.390625 -1.421875 36.625 -1.421875 
Q 22.796875 -1.421875 15.734375 5.859375 
Q 8.6875 13.140625 8.6875 27.390625 
z
" id="DejaVuSans-85"/>
     <path d="M 9.421875 75.984375 
L 18.40625 75.984375 
L 18.40625 0 
L 9.421875 0 
z
" id="DejaVuSans-108"/>
     <path d="M 18.3125 70.21875 
L 18.3125 54.6875 
L 36.8125 54.6875 
L 36.8125 47.703125 
L 18.3125 47.703125 
L 18.3125 18.015625 
Q 18.3125 11.328125 20.140625 9.421875 
Q 21.96875 7.515625 27.59375 7.515625 
L 36.8125 7.515625 
L 36.8125 0 
L 27.59375 0 
Q 17.1875 0 13.234375 3.875 
Q 9.28125 7.765625 9.28125 18.015625 
L 9.28125 47.703125 
L 2.6875 47.703125 
L 2.6875 54.6875 
L 9.28125 54.6875 
L 9.28125 70.21875 
z
" id="DejaVuSans-116"/>
     <path d="M 9.421875 54.6875 
L 18.40625 54.6875 
L 18.40625 0 
L 9.421875 0 
z
M 9.421875 75.984375 
L 18.40625 75.984375 
L 18.40625 64.59375 
L 9.421875 64.59375 
z
" id="DejaVuSans-105"/>
     <path d="M 52 44.1875 
Q 55.375 50.25 60.0625 53.125 
Q 64.75 56 71.09375 56 
Q 79.640625 56 84.28125 50.015625 
Q 88.921875 44.046875 88.921875 33.015625 
L 88.921875 0 
L 79.890625 0 
L 79.890625 32.71875 
Q 79.890625 40.578125 77.09375 44.375 
Q 74.3125 48.1875 68.609375 48.1875 
Q 61.625 48.1875 57.5625 43.546875 
Q 53.515625 38.921875 53.515625 30.90625 
L 53.515625 0 
L 44.484375 0 
L 44.484375 32.71875 
Q 44.484375 40.625 41.703125 44.40625 
Q 38.921875 48.1875 33.109375 48.1875 
Q 26.21875 48.1875 22.15625 43.53125 
Q 18.109375 38.875 18.109375 30.90625 
L 18.109375 0 
L 9.078125 0 
L 9.078125 54.6875 
L 18.109375 54.6875 
L 18.109375 46.1875 
Q 21.1875 51.21875 25.484375 53.609375 
Q 29.78125 56 35.6875 56 
Q 41.65625 56 45.828125 52.96875 
Q 50 49.953125 52 44.1875 
z
" id="DejaVuSans-109"/>
     <path d="M 34.28125 27.484375 
Q 23.390625 27.484375 19.1875 25 
Q 14.984375 22.515625 14.984375 16.5 
Q 14.984375 11.71875 18.140625 8.90625 
Q 21.296875 6.109375 26.703125 6.109375 
Q 34.1875 6.109375 38.703125 11.40625 
Q 43.21875 16.703125 43.21875 25.484375 
L 43.21875 27.484375 
z
M 52.203125 31.203125 
L 52.203125 0 
L 43.21875 0 
L 43.21875 8.296875 
Q 40.140625 3.328125 35.546875 0.953125 
Q 30.953125 -1.421875 24.3125 -1.421875 
Q 15.921875 -1.421875 10.953125 3.296875 
Q 6 8.015625 6 15.921875 
Q 6 25.140625 12.171875 29.828125 
Q 18.359375 34.515625 30.609375 34.515625 
L 43.21875 34.515625 
L 43.21875 35.40625 
Q 43.21875 41.609375 39.140625 45 
Q 35.0625 48.390625 27.6875 48.390625 
Q 23 48.390625 18.546875 47.265625 
Q 14.109375 46.140625 10.015625 43.890625 
L 10.015625 52.203125 
Q 14.9375 54.109375 19.578125 55.046875 
Q 24.21875 56 28.609375 56 
Q 40.484375 56 46.34375 49.84375 
Q 52.203125 43.703125 52.203125 31.203125 
z
" id="DejaVuSans-97"/>
     <path id="DejaVuSans-32"/>
     <path d="M 39.40625 66.21875 
Q 28.65625 66.21875 22.328125 58.203125 
Q 16.015625 50.203125 16.015625 36.375 
Q 16.015625 22.609375 22.328125 14.59375 
Q 28.65625 6.59375 39.40625 6.59375 
Q 50.140625 6.59375 56.421875 14.59375 
Q 62.703125 22.609375 62.703125 36.375 
Q 62.703125 50.203125 56.421875 58.203125 
Q 50.140625 66.21875 39.40625 66.21875 
z
M 39.40625 74.21875 
Q 54.734375 74.21875 63.90625 63.9375 
Q 73.09375 53.65625 73.09375 36.375 
Q 73.09375 19.140625 63.90625 8.859375 
Q 54.734375 -1.421875 39.40625 -1.421875 
Q 24.03125 -1.421875 14.8125 8.828125 
Q 5.609375 19.09375 5.609375 36.375 
Q 5.609375 53.65625 14.8125 63.9375 
Q 24.03125 74.21875 39.40625 74.21875 
z
" id="DejaVuSans-79"/>
     <path d="M 48.78125 52.59375 
L 48.78125 44.1875 
Q 44.96875 46.296875 41.140625 47.34375 
Q 37.3125 48.390625 33.40625 48.390625 
Q 24.65625 48.390625 19.8125 42.84375 
Q 14.984375 37.3125 14.984375 27.296875 
Q 14.984375 17.28125 19.8125 11.734375 
Q 24.65625 6.203125 33.40625 6.203125 
Q 37.3125 6.203125 41.140625 7.25 
Q 44.96875 8.296875 48.78125 10.40625 
L 48.78125 2.09375 
Q 45.015625 0.34375 40.984375 -0.53125 
Q 36.96875 -1.421875 32.421875 -1.421875 
Q 20.0625 -1.421875 12.78125 6.34375 
Q 5.515625 14.109375 5.515625 27.296875 
Q 5.515625 40.671875 12.859375 48.328125 
Q 20.21875 56 33.015625 56 
Q 37.15625 56 41.109375 55.140625 
Q 45.0625 54.296875 48.78125 52.59375 
z
" id="DejaVuSans-99"/>
     <path d="M 30.609375 48.390625 
Q 23.390625 48.390625 19.1875 42.75 
Q 14.984375 37.109375 14.984375 27.296875 
Q 14.984375 17.484375 19.15625 11.84375 
Q 23.34375 6.203125 30.609375 6.203125 
Q 37.796875 6.203125 41.984375 11.859375 
Q 46.1875 17.53125 46.1875 27.296875 
Q 46.1875 37.015625 41.984375 42.703125 
Q 37.796875 48.390625 30.609375 48.390625 
z
M 30.609375 56 
Q 42.328125 56 49.015625 48.375 
Q 55.71875 40.765625 55.71875 27.296875 
Q 55.71875 13.875 49.015625 6.21875 
Q 42.328125 -1.421875 30.609375 -1.421875 
Q 18.84375 -1.421875 12.171875 6.21875 
Q 5.515625 13.875 5.515625 27.296875 
Q 5.515625 40.765625 12.171875 48.375 
Q 18.84375 56 30.609375 56 
z
" id="DejaVuSans-111"/>
     <path d="M 41.109375 46.296875 
Q 39.59375 47.171875 37.8125 47.578125 
Q 36.03125 48 33.890625 48 
Q 26.265625 48 22.1875 43.046875 
Q 18.109375 38.09375 18.109375 28.8125 
L 18.109375 0 
L 9.078125 0 
L 9.078125 54.6875 
L 18.109375 54.6875 
L 18.109375 46.1875 
Q 20.953125 51.171875 25.484375 53.578125 
Q 30.03125 56 36.53125 56 
Q 37.453125 56 38.578125 55.875 
Q 39.703125 55.765625 41.0625 55.515625 
z
" id="DejaVuSans-114"/>
     <path d="M 53.515625 70.515625 
L 53.515625 60.890625 
Q 47.90625 63.578125 42.921875 64.890625 
Q 37.9375 66.21875 33.296875 66.21875 
Q 25.25 66.21875 20.875 63.09375 
Q 16.5 59.96875 16.5 54.203125 
Q 16.5 49.359375 19.40625 46.890625 
Q 22.3125 44.4375 30.421875 42.921875 
L 36.375 41.703125 
Q 47.40625 39.59375 52.65625 34.296875 
Q 57.90625 29 57.90625 20.125 
Q 57.90625 9.515625 50.796875 4.046875 
Q 43.703125 -1.421875 29.984375 -1.421875 
Q 24.8125 -1.421875 18.96875 -0.25 
Q 13.140625 0.921875 6.890625 3.21875 
L 6.890625 13.375 
Q 12.890625 10.015625 18.65625 8.296875 
Q 24.421875 6.59375 29.984375 6.59375 
Q 38.421875 6.59375 43.015625 9.90625 
Q 47.609375 13.234375 47.609375 19.390625 
Q 47.609375 24.75 44.3125 27.78125 
Q 41.015625 30.8125 33.5 32.328125 
L 27.484375 33.5 
Q 16.453125 35.6875 11.515625 40.375 
Q 6.59375 45.0625 6.59375 53.421875 
Q 6.59375 63.09375 13.40625 68.65625 
Q 20.21875 74.21875 32.171875 74.21875 
Q 37.3125 74.21875 42.625 73.28125 
Q 47.953125 72.359375 53.515625 70.515625 
z
" id="DejaVuSans-83"/>
    </defs>
    <g transform="translate(653.805938 80.4)scale(0.12 -0.12)">
     <use xlink:href="#DejaVuSans-85"/>
     <use x="73.193359" xlink:href="#DejaVuSans-108"/>
     <use x="100.976562" xlink:href="#DejaVuSans-116"/>
     <use x="140.185547" xlink:href="#DejaVuSans-105"/>
     <use x="167.96875" xlink:href="#DejaVuSans-109"/>
     <use x="265.380859" xlink:href="#DejaVuSans-97"/>
     <use x="326.660156" xlink:href="#DejaVuSans-116"/>
     <use x="365.869141" xlink:href="#DejaVuSans-101"/>
     <use x="427.392578" xlink:href="#DejaVuSans-32"/>
     <use x="459.179688" xlink:href="#DejaVuSans-79"/>
     <use x="537.890625" xlink:href="#DejaVuSans-115"/>
     <use x="589.990234" xlink:href="#DejaVuSans-99"/>
     <use x="644.970703" xlink:href="#DejaVuSans-105"/>
     <use x="672.753906" xlink:href="#DejaVuSans-108"/>
     <use x="700.537109" xlink:href="#DejaVuSans-108"/>
     <use x="728.320312" xlink:href="#DejaVuSans-97"/>
     <use x="789.599609" xlink:href="#DejaVuSans-116"/>
     <use x="828.808594" xlink:href="#DejaVuSans-111"/>
     <use x="889.990234" xlink:href="#DejaVuSans-114"/>
     <use x="931.103516" xlink:href="#DejaVuSans-32"/>
     <use x="962.890625" xlink:href="#DejaVuSans-83"/>
     <use x="1026.367188" xlink:href="#DejaVuSans-112"/>
     <use x="1089.84375" xlink:href="#DejaVuSans-101"/>
     <use x="1151.367188" xlink:href="#DejaVuSans-101"/>
     <use x="1212.890625" xlink:href="#DejaVuSans-100"/>
     <use x="1276.367188" xlink:href="#DejaVuSans-117"/>
     <use x="1339.746094" xlink:href="#DejaVuSans-112"/>
    </g>
   </g>
   <g id="legend_1">
    <g id="patch_7">
     <path d="M 1185.373437 123.75625 
L 1289 123.75625 
Q 1291 123.75625 1291 121.75625 
L 1291 93.4 
Q 1291 91.4 1289 91.4 
L 1185.373437 91.4 
Q 1183.373437 91.4 1183.373437 93.4 
L 1183.373437 121.75625 
Q 1183.373437 123.75625 1185.373437 123.75625 
z
" style="fill:#ffffff;opacity:0.8;stroke:#cccccc;stroke-linejoin:miter;"/>
    </g>
    <g id="line2d_22">
     <path d="M 1187.373437 99.498437 
L 1207.373437 99.498437 
" style="fill:none;stroke:#1f77b4;stroke-linecap:square;stroke-width:1.5;"/>
    </g>
    <g id="line2d_23"/>
    <g id="text_23">
     <!-- numpy.float32 -->
     <defs>
      <path d="M 32.171875 -5.078125 
Q 28.375 -14.84375 24.75 -17.8125 
Q 21.140625 -20.796875 15.09375 -20.796875 
L 7.90625 -20.796875 
L 7.90625 -13.28125 
L 13.1875 -13.28125 
Q 16.890625 -13.28125 18.9375 -11.515625 
Q 21 -9.765625 23.484375 -3.21875 
L 25.09375 0.875 
L 2.984375 54.6875 
L 12.5 54.6875 
L 29.59375 11.921875 
L 46.6875 54.6875 
L 56.203125 54.6875 
z
" id="DejaVuSans-121"/>
      <path d="M 37.109375 75.984375 
L 37.109375 68.5 
L 28.515625 68.5 
Q 23.6875 68.5 21.796875 66.546875 
Q 19.921875 64.59375 19.921875 59.515625 
L 19.921875 54.6875 
L 34.71875 54.6875 
L 34.71875 47.703125 
L 19.921875 47.703125 
L 19.921875 0 
L 10.890625 0 
L 10.890625 47.703125 
L 2.296875 47.703125 
L 2.296875 54.6875 
L 10.890625 54.6875 
L 10.890625 58.5 
Q 10.890625 67.625 15.140625 71.796875 
Q 19.390625 75.984375 28.609375 75.984375 
z
" id="DejaVuSans-102"/>
     </defs>
     <g transform="translate(1215.373437 102.998437)scale(0.1 -0.1)">
      <use xlink:href="#DejaVuSans-110"/>
      <use x="63.378906" xlink:href="#DejaVuSans-117"/>
      <use x="126.757812" xlink:href="#DejaVuSans-109"/>
      <use x="224.169922" xlink:href="#DejaVuSans-112"/>
      <use x="287.646484" xlink:href="#DejaVuSans-121"/>
      <use x="332.576172" xlink:href="#DejaVuSans-46"/>
      <use x="364.363281" xlink:href="#DejaVuSans-102"/>
      <use x="399.568359" xlink:href="#DejaVuSans-108"/>
      <use x="427.351562" xlink:href="#DejaVuSans-111"/>
      <use x="488.533203" xlink:href="#DejaVuSans-97"/>
      <use x="549.8125" xlink:href="#DejaVuSans-116"/>
      <use x="589.021484" xlink:href="#DejaVuSans-51"/>
      <use x="652.644531" xlink:href="#DejaVuSans-50"/>
     </g>
    </g>
    <g id="line2d_24">
     <path d="M 1187.373437 114.176562 
L 1207.373437 114.176562 
" style="fill:none;stroke:#ff7f0e;stroke-linecap:square;stroke-width:1.5;"/>
    </g>
    <g id="line2d_25"/>
    <g id="text_24">
     <!-- numpy.float64 -->
     <g transform="translate(1215.373437 117.676562)scale(0.1 -0.1)">
      <use xlink:href="#DejaVuSans-110"/>
      <use x="63.378906" xlink:href="#DejaVuSans-117"/>
      <use x="126.757812" xlink:href="#DejaVuSans-109"/>
      <use x="224.169922" xlink:href="#DejaVuSans-112"/>
      <use x="287.646484" xlink:href="#DejaVuSans-121"/>
      <use x="332.576172" xlink:href="#DejaVuSans-46"/>
      <use x="364.363281" xlink:href="#DejaVuSans-102"/>
      <use x="399.568359" xlink:href="#DejaVuSans-108"/>
      <use x="427.351562" xlink:href="#DejaVuSans-111"/>
      <use x="488.533203" xlink:href="#DejaVuSans-97"/>
      <use x="549.8125" xlink:href="#DejaVuSans-116"/>
      <use x="589.021484" xlink:href="#DejaVuSans-54"/>
      <use x="652.644531" xlink:href="#DejaVuSans-52"/>
     </g>
    </g>
   </g>
  </g>
 </g>
 <defs>
  <clipPath id="pe5d8ee1106">
   <rect height="554.4" width="1116" x="180" y="86.4"/>
  </clipPath>
 </defs>
</svg>
