<?xml version="1.0" encoding="utf-8" standalone="no"?>
<!DOCTYPE svg PUBLIC "-//W3C//DTD SVG 1.1//EN"
  "http://www.w3.org/Graphics/SVG/1.1/DTD/svg11.dtd">
<!-- Created with matplotlib (https://matplotlib.org/) -->
<svg height="720pt" version="1.1" viewBox="0 0 1440 720" width="1440pt" xmlns="http://www.w3.org/2000/svg" xmlns:xlink="http://www.w3.org/1999/xlink">
 <defs>
  <style type="text/css">
*{stroke-linecap:butt;stroke-linejoin:round;}
  </style>
 </defs>
 <g id="figure_1">
  <g id="patch_1">
   <path d="M 0 720 
L 1440 720 
L 1440 0 
L 0 0 
z
" style="fill:#ffffff;"/>
  </g>
  <g id="axes_1">
   <g id="patch_2">
    <path d="M 180 640.8 
L 1296 640.8 
L 1296 86.4 
L 180 86.4 
z
" style="fill:#ffffff;"/>
   </g>
   <g id="matplotlib.axis_1">
    <g id="xtick_1">
     <g id="line2d_1">
      <defs>
       <path d="M 0 0 
L 0 3.5 
" id="m57a0184634" style="stroke:#000000;stroke-width:0.8;"/>
      </defs>
      <g>
       <use style="stroke:#000000;stroke-width:0.8;" x="333.310231" xlink:href="#m57a0184634" y="640.8"/>
      </g>
     </g>
     <g id="text_1">
      <!-- 100.0 -->
      <defs>
       <path d="M 12.40625 8.296875 
L 28.515625 8.296875 
L 28.515625 63.921875 
L 10.984375 60.40625 
L 10.984375 69.390625 
L 28.421875 72.90625 
L 38.28125 72.90625 
L 38.28125 8.296875 
L 54.390625 8.296875 
L 54.390625 0 
L 12.40625 0 
z
" id="DejaVuSans-49"/>
       <path d="M 31.78125 66.40625 
Q 24.171875 66.40625 20.328125 58.90625 
Q 16.5 51.421875 16.5 36.375 
Q 16.5 21.390625 20.328125 13.890625 
Q 24.171875 6.390625 31.78125 6.390625 
Q 39.453125 6.390625 43.28125 13.890625 
Q 47.125 21.390625 47.125 36.375 
Q 47.125 51.421875 43.28125 58.90625 
Q 39.453125 66.40625 31.78125 66.40625 
z
M 31.78125 74.21875 
Q 44.046875 74.21875 50.515625 64.515625 
Q 56.984375 54.828125 56.984375 36.375 
Q 56.984375 17.96875 50.515625 8.265625 
Q 44.046875 -1.421875 31.78125 -1.421875 
Q 19.53125 -1.421875 13.0625 8.265625 
Q 6.59375 17.96875 6.59375 36.375 
Q 6.59375 54.828125 13.0625 64.515625 
Q 19.53125 74.21875 31.78125 74.21875 
z
" id="DejaVuSans-48"/>
       <path d="M 10.6875 12.40625 
L 21 12.40625 
L 21 0 
L 10.6875 0 
z
" id="DejaVuSans-46"/>
      </defs>
      <g transform="translate(318.996168 655.398438)scale(0.1 -0.1)">
       <use xlink:href="#DejaVuSans-49"/>
       <use x="63.623047" xlink:href="#DejaVuSans-48"/>
       <use x="127.246094" xlink:href="#DejaVuSans-48"/>
       <use x="190.869141" xlink:href="#DejaVuSans-46"/>
       <use x="222.65625" xlink:href="#DejaVuSans-48"/>
      </g>
     </g>
    </g>
    <g id="xtick_2">
     <g id="line2d_2">
      <g>
       <use style="stroke:#000000;stroke-width:0.8;" x="435.893189" xlink:href="#m57a0184634" y="640.8"/>
      </g>
     </g>
     <g id="text_2">
      <!-- 200.0 -->
      <defs>
       <path d="M 19.1875 8.296875 
L 53.609375 8.296875 
L 53.609375 0 
L 7.328125 0 
L 7.328125 8.296875 
Q 12.9375 14.109375 22.625 23.890625 
Q 32.328125 33.6875 34.8125 36.53125 
Q 39.546875 41.84375 41.421875 45.53125 
Q 43.3125 49.21875 43.3125 52.78125 
Q 43.3125 58.59375 39.234375 62.25 
Q 35.15625 65.921875 28.609375 65.921875 
Q 23.96875 65.921875 18.8125 64.3125 
Q 13.671875 62.703125 7.8125 59.421875 
L 7.8125 69.390625 
Q 13.765625 71.78125 18.9375 73 
Q 24.125 74.21875 28.421875 74.21875 
Q 39.75 74.21875 46.484375 68.546875 
Q 53.21875 62.890625 53.21875 53.421875 
Q 53.21875 48.921875 51.53125 44.890625 
Q 49.859375 40.875 45.40625 35.40625 
Q 44.1875 33.984375 37.640625 27.21875 
Q 31.109375 20.453125 19.1875 8.296875 
z
" id="DejaVuSans-50"/>
      </defs>
      <g transform="translate(421.579126 655.398438)scale(0.1 -0.1)">
       <use xlink:href="#DejaVuSans-50"/>
       <use x="63.623047" xlink:href="#DejaVuSans-48"/>
       <use x="127.246094" xlink:href="#DejaVuSans-48"/>
       <use x="190.869141" xlink:href="#DejaVuSans-46"/>
       <use x="222.65625" xlink:href="#DejaVuSans-48"/>
      </g>
     </g>
    </g>
    <g id="xtick_3">
     <g id="line2d_3">
      <g>
       <use style="stroke:#000000;stroke-width:0.8;" x="538.476147" xlink:href="#m57a0184634" y="640.8"/>
      </g>
     </g>
     <g id="text_3">
      <!-- 300.0 -->
      <defs>
       <path d="M 40.578125 39.3125 
Q 47.65625 37.796875 51.625 33 
Q 55.609375 28.21875 55.609375 21.1875 
Q 55.609375 10.40625 48.1875 4.484375 
Q 40.765625 -1.421875 27.09375 -1.421875 
Q 22.515625 -1.421875 17.65625 -0.515625 
Q 12.796875 0.390625 7.625 2.203125 
L 7.625 11.71875 
Q 11.71875 9.328125 16.59375 8.109375 
Q 21.484375 6.890625 26.8125 6.890625 
Q 36.078125 6.890625 40.9375 10.546875 
Q 45.796875 14.203125 45.796875 21.1875 
Q 45.796875 27.640625 41.28125 31.265625 
Q 36.765625 34.90625 28.71875 34.90625 
L 20.21875 34.90625 
L 20.21875 43.015625 
L 29.109375 43.015625 
Q 36.375 43.015625 40.234375 45.921875 
Q 44.09375 48.828125 44.09375 54.296875 
Q 44.09375 59.90625 40.109375 62.90625 
Q 36.140625 65.921875 28.71875 65.921875 
Q 24.65625 65.921875 20.015625 65.03125 
Q 15.375 64.15625 9.8125 62.3125 
L 9.8125 71.09375 
Q 15.4375 72.65625 20.34375 73.4375 
Q 25.25 74.21875 29.59375 74.21875 
Q 40.828125 74.21875 47.359375 69.109375 
Q 53.90625 64.015625 53.90625 55.328125 
Q 53.90625 49.265625 50.4375 45.09375 
Q 46.96875 40.921875 40.578125 39.3125 
z
" id="DejaVuSans-51"/>
      </defs>
      <g transform="translate(524.162084 655.398438)scale(0.1 -0.1)">
       <use xlink:href="#DejaVuSans-51"/>
       <use x="63.623047" xlink:href="#DejaVuSans-48"/>
       <use x="127.246094" xlink:href="#DejaVuSans-48"/>
       <use x="190.869141" xlink:href="#DejaVuSans-46"/>
       <use x="222.65625" xlink:href="#DejaVuSans-48"/>
      </g>
     </g>
    </g>
    <g id="xtick_4">
     <g id="line2d_4">
      <g>
       <use style="stroke:#000000;stroke-width:0.8;" x="641.059105" xlink:href="#m57a0184634" y="640.8"/>
      </g>
     </g>
     <g id="text_4">
      <!-- 400.0 -->
      <defs>
       <path d="M 37.796875 64.3125 
L 12.890625 25.390625 
L 37.796875 25.390625 
z
M 35.203125 72.90625 
L 47.609375 72.90625 
L 47.609375 25.390625 
L 58.015625 25.390625 
L 58.015625 17.1875 
L 47.609375 17.1875 
L 47.609375 0 
L 37.796875 0 
L 37.796875 17.1875 
L 4.890625 17.1875 
L 4.890625 26.703125 
z
" id="DejaVuSans-52"/>
      </defs>
      <g transform="translate(626.745042 655.398438)scale(0.1 -0.1)">
       <use xlink:href="#DejaVuSans-52"/>
       <use x="63.623047" xlink:href="#DejaVuSans-48"/>
       <use x="127.246094" xlink:href="#DejaVuSans-48"/>
       <use x="190.869141" xlink:href="#DejaVuSans-46"/>
       <use x="222.65625" xlink:href="#DejaVuSans-48"/>
      </g>
     </g>
    </g>
    <g id="xtick_5">
     <g id="line2d_5">
      <g>
       <use style="stroke:#000000;stroke-width:0.8;" x="743.642063" xlink:href="#m57a0184634" y="640.8"/>
      </g>
     </g>
     <g id="text_5">
      <!-- 500.0 -->
      <defs>
       <path d="M 10.796875 72.90625 
L 49.515625 72.90625 
L 49.515625 64.59375 
L 19.828125 64.59375 
L 19.828125 46.734375 
Q 21.96875 47.46875 24.109375 47.828125 
Q 26.265625 48.1875 28.421875 48.1875 
Q 40.625 48.1875 47.75 41.5 
Q 54.890625 34.8125 54.890625 23.390625 
Q 54.890625 11.625 47.5625 5.09375 
Q 40.234375 -1.421875 26.90625 -1.421875 
Q 22.3125 -1.421875 17.546875 -0.640625 
Q 12.796875 0.140625 7.71875 1.703125 
L 7.71875 11.625 
Q 12.109375 9.234375 16.796875 8.0625 
Q 21.484375 6.890625 26.703125 6.890625 
Q 35.15625 6.890625 40.078125 11.328125 
Q 45.015625 15.765625 45.015625 23.390625 
Q 45.015625 31 40.078125 35.4375 
Q 35.15625 39.890625 26.703125 39.890625 
Q 22.75 39.890625 18.8125 39.015625 
Q 14.890625 38.140625 10.796875 36.28125 
z
" id="DejaVuSans-53"/>
      </defs>
      <g transform="translate(729.328 655.398438)scale(0.1 -0.1)">
       <use xlink:href="#DejaVuSans-53"/>
       <use x="63.623047" xlink:href="#DejaVuSans-48"/>
       <use x="127.246094" xlink:href="#DejaVuSans-48"/>
       <use x="190.869141" xlink:href="#DejaVuSans-46"/>
       <use x="222.65625" xlink:href="#DejaVuSans-48"/>
      </g>
     </g>
    </g>
    <g id="xtick_6">
     <g id="line2d_6">
      <g>
       <use style="stroke:#000000;stroke-width:0.8;" x="846.225021" xlink:href="#m57a0184634" y="640.8"/>
      </g>
     </g>
     <g id="text_6">
      <!-- 600.0 -->
      <defs>
       <path d="M 33.015625 40.375 
Q 26.375 40.375 22.484375 35.828125 
Q 18.609375 31.296875 18.609375 23.390625 
Q 18.609375 15.53125 22.484375 10.953125 
Q 26.375 6.390625 33.015625 6.390625 
Q 39.65625 6.390625 43.53125 10.953125 
Q 47.40625 15.53125 47.40625 23.390625 
Q 47.40625 31.296875 43.53125 35.828125 
Q 39.65625 40.375 33.015625 40.375 
z
M 52.59375 71.296875 
L 52.59375 62.3125 
Q 48.875 64.0625 45.09375 64.984375 
Q 41.3125 65.921875 37.59375 65.921875 
Q 27.828125 65.921875 22.671875 59.328125 
Q 17.53125 52.734375 16.796875 39.40625 
Q 19.671875 43.65625 24.015625 45.921875 
Q 28.375 48.1875 33.59375 48.1875 
Q 44.578125 48.1875 50.953125 41.515625 
Q 57.328125 34.859375 57.328125 23.390625 
Q 57.328125 12.15625 50.6875 5.359375 
Q 44.046875 -1.421875 33.015625 -1.421875 
Q 20.359375 -1.421875 13.671875 8.265625 
Q 6.984375 17.96875 6.984375 36.375 
Q 6.984375 53.65625 15.1875 63.9375 
Q 23.390625 74.21875 37.203125 74.21875 
Q 40.921875 74.21875 44.703125 73.484375 
Q 48.484375 72.75 52.59375 71.296875 
z
" id="DejaVuSans-54"/>
      </defs>
      <g transform="translate(831.910958 655.398438)scale(0.1 -0.1)">
       <use xlink:href="#DejaVuSans-54"/>
       <use x="63.623047" xlink:href="#DejaVuSans-48"/>
       <use x="127.246094" xlink:href="#DejaVuSans-48"/>
       <use x="190.869141" xlink:href="#DejaVuSans-46"/>
       <use x="222.65625" xlink:href="#DejaVuSans-48"/>
      </g>
     </g>
    </g>
    <g id="xtick_7">
     <g id="line2d_7">
      <g>
       <use style="stroke:#000000;stroke-width:0.8;" x="948.807979" xlink:href="#m57a0184634" y="640.8"/>
      </g>
     </g>
     <g id="text_7">
      <!-- 700.0 -->
      <defs>
       <path d="M 8.203125 72.90625 
L 55.078125 72.90625 
L 55.078125 68.703125 
L 28.609375 0 
L 18.3125 0 
L 43.21875 64.59375 
L 8.203125 64.59375 
z
" id="DejaVuSans-55"/>
      </defs>
      <g transform="translate(934.493916 655.398438)scale(0.1 -0.1)">
       <use xlink:href="#DejaVuSans-55"/>
       <use x="63.623047" xlink:href="#DejaVuSans-48"/>
       <use x="127.246094" xlink:href="#DejaVuSans-48"/>
       <use x="190.869141" xlink:href="#DejaVuSans-46"/>
       <use x="222.65625" xlink:href="#DejaVuSans-48"/>
      </g>
     </g>
    </g>
    <g id="xtick_8">
     <g id="line2d_8">
      <g>
       <use style="stroke:#000000;stroke-width:0.8;" x="1051.390937" xlink:href="#m57a0184634" y="640.8"/>
      </g>
     </g>
     <g id="text_8">
      <!-- 800.0 -->
      <defs>
       <path d="M 31.78125 34.625 
Q 24.75 34.625 20.71875 30.859375 
Q 16.703125 27.09375 16.703125 20.515625 
Q 16.703125 13.921875 20.71875 10.15625 
Q 24.75 6.390625 31.78125 6.390625 
Q 38.8125 6.390625 42.859375 10.171875 
Q 46.921875 13.96875 46.921875 20.515625 
Q 46.921875 27.09375 42.890625 30.859375 
Q 38.875 34.625 31.78125 34.625 
z
M 21.921875 38.8125 
Q 15.578125 40.375 12.03125 44.71875 
Q 8.5 49.078125 8.5 55.328125 
Q 8.5 64.0625 14.71875 69.140625 
Q 20.953125 74.21875 31.78125 74.21875 
Q 42.671875 74.21875 48.875 69.140625 
Q 55.078125 64.0625 55.078125 55.328125 
Q 55.078125 49.078125 51.53125 44.71875 
Q 48 40.375 41.703125 38.8125 
Q 48.828125 37.15625 52.796875 32.3125 
Q 56.78125 27.484375 56.78125 20.515625 
Q 56.78125 9.90625 50.3125 4.234375 
Q 43.84375 -1.421875 31.78125 -1.421875 
Q 19.734375 -1.421875 13.25 4.234375 
Q 6.78125 9.90625 6.78125 20.515625 
Q 6.78125 27.484375 10.78125 32.3125 
Q 14.796875 37.15625 21.921875 38.8125 
z
M 18.3125 54.390625 
Q 18.3125 48.734375 21.84375 45.5625 
Q 25.390625 42.390625 31.78125 42.390625 
Q 38.140625 42.390625 41.71875 45.5625 
Q 45.3125 48.734375 45.3125 54.390625 
Q 45.3125 60.0625 41.71875 63.234375 
Q 38.140625 66.40625 31.78125 66.40625 
Q 25.390625 66.40625 21.84375 63.234375 
Q 18.3125 60.0625 18.3125 54.390625 
z
" id="DejaVuSans-56"/>
      </defs>
      <g transform="translate(1037.076874 655.398438)scale(0.1 -0.1)">
       <use xlink:href="#DejaVuSans-56"/>
       <use x="63.623047" xlink:href="#DejaVuSans-48"/>
       <use x="127.246094" xlink:href="#DejaVuSans-48"/>
       <use x="190.869141" xlink:href="#DejaVuSans-46"/>
       <use x="222.65625" xlink:href="#DejaVuSans-48"/>
      </g>
     </g>
    </g>
    <g id="xtick_9">
     <g id="line2d_9">
      <g>
       <use style="stroke:#000000;stroke-width:0.8;" x="1153.973895" xlink:href="#m57a0184634" y="640.8"/>
      </g>
     </g>
     <g id="text_9">
      <!-- 900.0 -->
      <defs>
       <path d="M 10.984375 1.515625 
L 10.984375 10.5 
Q 14.703125 8.734375 18.5 7.8125 
Q 22.3125 6.890625 25.984375 6.890625 
Q 35.75 6.890625 40.890625 13.453125 
Q 46.046875 20.015625 46.78125 33.40625 
Q 43.953125 29.203125 39.59375 26.953125 
Q 35.25 24.703125 29.984375 24.703125 
Q 19.046875 24.703125 12.671875 31.3125 
Q 6.296875 37.9375 6.296875 49.421875 
Q 6.296875 60.640625 12.9375 67.421875 
Q 19.578125 74.21875 30.609375 74.21875 
Q 43.265625 74.21875 49.921875 64.515625 
Q 56.59375 54.828125 56.59375 36.375 
Q 56.59375 19.140625 48.40625 8.859375 
Q 40.234375 -1.421875 26.421875 -1.421875 
Q 22.703125 -1.421875 18.890625 -0.6875 
Q 15.09375 0.046875 10.984375 1.515625 
z
M 30.609375 32.421875 
Q 37.25 32.421875 41.125 36.953125 
Q 45.015625 41.5 45.015625 49.421875 
Q 45.015625 57.28125 41.125 61.84375 
Q 37.25 66.40625 30.609375 66.40625 
Q 23.96875 66.40625 20.09375 61.84375 
Q 16.21875 57.28125 16.21875 49.421875 
Q 16.21875 41.5 20.09375 36.953125 
Q 23.96875 32.421875 30.609375 32.421875 
z
" id="DejaVuSans-57"/>
      </defs>
      <g transform="translate(1139.659832 655.398438)scale(0.1 -0.1)">
       <use xlink:href="#DejaVuSans-57"/>
       <use x="63.623047" xlink:href="#DejaVuSans-48"/>
       <use x="127.246094" xlink:href="#DejaVuSans-48"/>
       <use x="190.869141" xlink:href="#DejaVuSans-46"/>
       <use x="222.65625" xlink:href="#DejaVuSans-48"/>
      </g>
     </g>
    </g>
    <g id="xtick_10">
     <g id="line2d_10">
      <g>
       <use style="stroke:#000000;stroke-width:0.8;" x="1256.556853" xlink:href="#m57a0184634" y="640.8"/>
      </g>
     </g>
     <g id="text_10">
      <!-- 1000.0 -->
      <g transform="translate(1239.06154 655.398438)scale(0.1 -0.1)">
       <use xlink:href="#DejaVuSans-49"/>
       <use x="63.623047" xlink:href="#DejaVuSans-48"/>
       <use x="127.246094" xlink:href="#DejaVuSans-48"/>
       <use x="190.869141" xlink:href="#DejaVuSans-48"/>
       <use x="254.492188" xlink:href="#DejaVuSans-46"/>
       <use x="286.279297" xlink:href="#DejaVuSans-48"/>
      </g>
     </g>
    </g>
    <g id="text_11">
     <!-- n -->
     <defs>
      <path d="M 54.890625 33.015625 
L 54.890625 0 
L 45.90625 0 
L 45.90625 32.71875 
Q 45.90625 40.484375 42.875 44.328125 
Q 39.84375 48.1875 33.796875 48.1875 
Q 26.515625 48.1875 22.3125 43.546875 
Q 18.109375 38.921875 18.109375 30.90625 
L 18.109375 0 
L 9.078125 0 
L 9.078125 54.6875 
L 18.109375 54.6875 
L 18.109375 46.1875 
Q 21.34375 51.125 25.703125 53.5625 
Q 30.078125 56 35.796875 56 
Q 45.21875 56 50.046875 50.171875 
Q 54.890625 44.34375 54.890625 33.015625 
z
" id="DejaVuSans-110"/>
     </defs>
     <g transform="translate(734.83125 669.076563)scale(0.1 -0.1)">
      <use xlink:href="#DejaVuSans-110"/>
     </g>
    </g>
   </g>
   <g id="matplotlib.axis_2">
    <g id="ytick_1">
     <g id="line2d_11">
      <defs>
       <path d="M 0 0 
L -3.5 0 
" id="m11f02164f5" style="stroke:#000000;stroke-width:0.8;"/>
      </defs>
      <g>
       <use style="stroke:#000000;stroke-width:0.8;" x="180" xlink:href="#m11f02164f5" y="635.369715"/>
      </g>
     </g>
     <g id="text_12">
      <!-- 0 -->
      <g transform="translate(166.6375 639.168933)scale(0.1 -0.1)">
       <use xlink:href="#DejaVuSans-48"/>
      </g>
     </g>
    </g>
    <g id="ytick_2">
     <g id="line2d_12">
      <g>
       <use style="stroke:#000000;stroke-width:0.8;" x="180" xlink:href="#m11f02164f5" y="527.652774"/>
      </g>
     </g>
     <g id="text_13">
      <!-- 50 -->
      <g transform="translate(160.275 531.451993)scale(0.1 -0.1)">
       <use xlink:href="#DejaVuSans-53"/>
       <use x="63.623047" xlink:href="#DejaVuSans-48"/>
      </g>
     </g>
    </g>
    <g id="ytick_3">
     <g id="line2d_13">
      <g>
       <use style="stroke:#000000;stroke-width:0.8;" x="180" xlink:href="#m11f02164f5" y="419.935834"/>
      </g>
     </g>
     <g id="text_14">
      <!-- 100 -->
      <g transform="translate(153.9125 423.735053)scale(0.1 -0.1)">
       <use xlink:href="#DejaVuSans-49"/>
       <use x="63.623047" xlink:href="#DejaVuSans-48"/>
       <use x="127.246094" xlink:href="#DejaVuSans-48"/>
      </g>
     </g>
    </g>
    <g id="ytick_4">
     <g id="line2d_14">
      <g>
       <use style="stroke:#000000;stroke-width:0.8;" x="180" xlink:href="#m11f02164f5" y="312.218894"/>
      </g>
     </g>
     <g id="text_15">
      <!-- 150 -->
      <g transform="translate(153.9125 316.018113)scale(0.1 -0.1)">
       <use xlink:href="#DejaVuSans-49"/>
       <use x="63.623047" xlink:href="#DejaVuSans-53"/>
       <use x="127.246094" xlink:href="#DejaVuSans-48"/>
      </g>
     </g>
    </g>
    <g id="ytick_5">
     <g id="line2d_15">
      <g>
       <use style="stroke:#000000;stroke-width:0.8;" x="180" xlink:href="#m11f02164f5" y="204.501954"/>
      </g>
     </g>
     <g id="text_16">
      <!-- 200 -->
      <g transform="translate(153.9125 208.301172)scale(0.1 -0.1)">
       <use xlink:href="#DejaVuSans-50"/>
       <use x="63.623047" xlink:href="#DejaVuSans-48"/>
       <use x="127.246094" xlink:href="#DejaVuSans-48"/>
      </g>
     </g>
    </g>
    <g id="ytick_6">
     <g id="line2d_16">
      <g>
       <use style="stroke:#000000;stroke-width:0.8;" x="180" xlink:href="#m11f02164f5" y="96.785014"/>
      </g>
     </g>
     <g id="text_17">
      <!-- 250 -->
      <g transform="translate(153.9125 100.584232)scale(0.1 -0.1)">
       <use xlink:href="#DejaVuSans-50"/>
       <use x="63.623047" xlink:href="#DejaVuSans-53"/>
       <use x="127.246094" xlink:href="#DejaVuSans-48"/>
      </g>
     </g>
    </g>
    <g id="text_18">
     <!-- speedup -->
     <defs>
      <path d="M 44.28125 53.078125 
L 44.28125 44.578125 
Q 40.484375 46.53125 36.375 47.5 
Q 32.28125 48.484375 27.875 48.484375 
Q 21.1875 48.484375 17.84375 46.4375 
Q 14.5 44.390625 14.5 40.28125 
Q 14.5 37.15625 16.890625 35.375 
Q 19.28125 33.59375 26.515625 31.984375 
L 29.59375 31.296875 
Q 39.15625 29.25 43.1875 25.515625 
Q 47.21875 21.78125 47.21875 15.09375 
Q 47.21875 7.46875 41.1875 3.015625 
Q 35.15625 -1.421875 24.609375 -1.421875 
Q 20.21875 -1.421875 15.453125 -0.5625 
Q 10.6875 0.296875 5.421875 2 
L 5.421875 11.28125 
Q 10.40625 8.6875 15.234375 7.390625 
Q 20.0625 6.109375 24.8125 6.109375 
Q 31.15625 6.109375 34.5625 8.28125 
Q 37.984375 10.453125 37.984375 14.40625 
Q 37.984375 18.0625 35.515625 20.015625 
Q 33.0625 21.96875 24.703125 23.78125 
L 21.578125 24.515625 
Q 13.234375 26.265625 9.515625 29.90625 
Q 5.8125 33.546875 5.8125 39.890625 
Q 5.8125 47.609375 11.28125 51.796875 
Q 16.75 56 26.8125 56 
Q 31.78125 56 36.171875 55.265625 
Q 40.578125 54.546875 44.28125 53.078125 
z
" id="DejaVuSans-115"/>
      <path d="M 18.109375 8.203125 
L 18.109375 -20.796875 
L 9.078125 -20.796875 
L 9.078125 54.6875 
L 18.109375 54.6875 
L 18.109375 46.390625 
Q 20.953125 51.265625 25.265625 53.625 
Q 29.59375 56 35.59375 56 
Q 45.5625 56 51.78125 48.09375 
Q 58.015625 40.1875 58.015625 27.296875 
Q 58.015625 14.40625 51.78125 6.484375 
Q 45.5625 -1.421875 35.59375 -1.421875 
Q 29.59375 -1.421875 25.265625 0.953125 
Q 20.953125 3.328125 18.109375 8.203125 
z
M 48.6875 27.296875 
Q 48.6875 37.203125 44.609375 42.84375 
Q 40.53125 48.484375 33.40625 48.484375 
Q 26.265625 48.484375 22.1875 42.84375 
Q 18.109375 37.203125 18.109375 27.296875 
Q 18.109375 17.390625 22.1875 11.75 
Q 26.265625 6.109375 33.40625 6.109375 
Q 40.53125 6.109375 44.609375 11.75 
Q 48.6875 17.390625 48.6875 27.296875 
z
" id="DejaVuSans-112"/>
      <path d="M 56.203125 29.59375 
L 56.203125 25.203125 
L 14.890625 25.203125 
Q 15.484375 15.921875 20.484375 11.0625 
Q 25.484375 6.203125 34.421875 6.203125 
Q 39.59375 6.203125 44.453125 7.46875 
Q 49.3125 8.734375 54.109375 11.28125 
L 54.109375 2.78125 
Q 49.265625 0.734375 44.1875 -0.34375 
Q 39.109375 -1.421875 33.890625 -1.421875 
Q 20.796875 -1.421875 13.15625 6.1875 
Q 5.515625 13.8125 5.515625 26.8125 
Q 5.515625 40.234375 12.765625 48.109375 
Q 20.015625 56 32.328125 56 
Q 43.359375 56 49.78125 48.890625 
Q 56.203125 41.796875 56.203125 29.59375 
z
M 47.21875 32.234375 
Q 47.125 39.59375 43.09375 43.984375 
Q 39.0625 48.390625 32.421875 48.390625 
Q 24.90625 48.390625 20.390625 44.140625 
Q 15.875 39.890625 15.1875 32.171875 
z
" id="DejaVuSans-101"/>
      <path d="M 45.40625 46.390625 
L 45.40625 75.984375 
L 54.390625 75.984375 
L 54.390625 0 
L 45.40625 0 
L 45.40625 8.203125 
Q 42.578125 3.328125 38.25 0.953125 
Q 33.9375 -1.421875 27.875 -1.421875 
Q 17.96875 -1.421875 11.734375 6.484375 
Q 5.515625 14.40625 5.515625 27.296875 
Q 5.515625 40.1875 11.734375 48.09375 
Q 17.96875 56 27.875 56 
Q 33.9375 56 38.25 53.625 
Q 42.578125 51.265625 45.40625 46.390625 
z
M 14.796875 27.296875 
Q 14.796875 17.390625 18.875 11.75 
Q 22.953125 6.109375 30.078125 6.109375 
Q 37.203125 6.109375 41.296875 11.75 
Q 45.40625 17.390625 45.40625 27.296875 
Q 45.40625 37.203125 41.296875 42.84375 
Q 37.203125 48.484375 30.078125 48.484375 
Q 22.953125 48.484375 18.875 42.84375 
Q 14.796875 37.203125 14.796875 27.296875 
z
" id="DejaVuSans-100"/>
      <path d="M 8.5 21.578125 
L 8.5 54.6875 
L 17.484375 54.6875 
L 17.484375 21.921875 
Q 17.484375 14.15625 20.5 10.265625 
Q 23.53125 6.390625 29.59375 6.390625 
Q 36.859375 6.390625 41.078125 11.03125 
Q 45.3125 15.671875 45.3125 23.6875 
L 45.3125 54.6875 
L 54.296875 54.6875 
L 54.296875 0 
L 45.3125 0 
L 45.3125 8.40625 
Q 42.046875 3.421875 37.71875 1 
Q 33.40625 -1.421875 27.6875 -1.421875 
Q 18.265625 -1.421875 13.375 4.4375 
Q 8.5 10.296875 8.5 21.578125 
z
M 31.109375 56 
z
" id="DejaVuSans-117"/>
     </defs>
     <g transform="translate(147.832812 385.049219)rotate(-90)scale(0.1 -0.1)">
      <use xlink:href="#DejaVuSans-115"/>
      <use x="52.099609" xlink:href="#DejaVuSans-112"/>
      <use x="115.576172" xlink:href="#DejaVuSans-101"/>
      <use x="177.099609" xlink:href="#DejaVuSans-101"/>
      <use x="238.623047" xlink:href="#DejaVuSans-100"/>
      <use x="302.099609" xlink:href="#DejaVuSans-117"/>
      <use x="365.478516" xlink:href="#DejaVuSans-112"/>
     </g>
    </g>
   </g>
   <g id="line2d_17">
    <path clip-path="url(#pfc328ade43)" d="M 230.727273 200.193015 
L 231.753102 297.321691 
L 232.778932 111.6 
L 233.804761 312.883067 
L 234.830591 131.469508 
L 235.856421 320.042012 
L 236.88225 170.726343 
L 237.90808 177.763549 
L 238.933909 391.86412 
L 239.959739 202.363147 
L 240.985569 227.608299 
L 242.011398 248.059894 
L 243.037228 226.399517 
L 244.063057 249.208368 
L 245.088887 237.482611 
L 246.114716 266.6906 
L 247.140546 278.698778 
L 248.166376 276.903777 
L 249.192205 294.197636 
L 250.218035 299.530856 
L 252.269694 312.557649 
L 253.295523 314.998933 
L 254.321353 327.210852 
L 255.347183 332.624405 
L 256.373012 344.273084 
L 257.398842 345.947929 
L 258.424671 355.163695 
L 259.450501 353.696068 
L 260.476331 353.917235 
L 261.50216 367.239125 
L 262.52799 372.198674 
L 263.553819 365.197616 
L 264.579649 373.950532 
L 265.605478 374.784265 
L 266.631308 384.175663 
L 267.657138 390.285022 
L 268.682967 397.185872 
L 269.708797 397.148452 
L 270.734626 402.004189 
L 271.760456 403.518142 
L 272.786286 408.273333 
L 273.812115 409.762657 
L 274.837945 422.535742 
L 275.863774 410.949291 
L 276.889604 420.33083 
L 277.915433 419.195387 
L 278.941263 420.643746 
L 279.967093 425.304005 
L 280.992922 425.878178 
L 282.018752 430.609205 
L 283.044581 437.935231 
L 284.070411 434.54564 
L 285.09624 439.015778 
L 286.12207 435.106949 
L 287.1479 441.239729 
L 288.173729 442.757117 
L 289.199559 443.630027 
L 290.225388 446.296415 
L 291.251218 446.263763 
L 292.277048 449.62754 
L 293.302877 451.801139 
L 294.328707 453.685277 
L 295.354536 458.561804 
L 296.380366 462.181692 
L 297.406195 456.720141 
L 298.432025 462.631629 
L 299.457855 463.123173 
L 300.483684 466.772794 
L 301.509514 464.967081 
L 302.535343 469.443443 
L 303.561173 508.120928 
L 304.587002 470.345602 
L 305.612832 473.320924 
L 307.664491 475.797585 
L 308.690321 478.900223 
L 309.71615 477.030684 
L 311.76781 481.81769 
L 312.793639 485.256158 
L 313.819469 485.638063 
L 314.845298 487.630682 
L 315.871128 486.6573 
L 316.896957 488.572315 
L 317.922787 486.915678 
L 318.948617 490.936252 
L 319.974446 492.311948 
L 321.000276 493.290121 
L 322.026105 497.226373 
L 323.051935 495.080216 
L 324.077765 497.175463 
L 325.103594 496.424257 
L 326.129424 497.601874 
L 327.155253 498.355416 
L 328.181083 500.24544 
L 330.232742 503.308115 
L 331.258572 505.705785 
L 332.284401 514.955899 
L 333.310231 506.611783 
L 334.33606 506.902149 
L 335.36189 507.410932 
L 336.387719 507.447323 
L 337.413549 508.712268 
L 338.439379 506.475173 
L 339.465208 512.562449 
L 340.491038 510.880833 
L 341.516867 512.44669 
L 342.542697 513.479776 
L 343.568527 515.423042 
L 344.594356 540.361878 
L 345.620186 516.981629 
L 346.646015 518.792657 
L 347.671845 516.558893 
L 348.697674 520.555775 
L 349.723504 519.709192 
L 350.749334 520.910391 
L 351.775163 522.819263 
L 352.800993 520.996766 
L 353.826822 521.932651 
L 354.852652 523.196439 
L 355.878481 524.764265 
L 356.904311 524.09348 
L 357.930141 526.187074 
L 358.95597 524.249688 
L 361.007629 528.537591 
L 362.033459 526.004411 
L 363.059289 528.032254 
L 364.085118 529.618463 
L 365.110948 528.338348 
L 366.136777 527.467357 
L 367.162607 531.485663 
L 368.188436 530.792002 
L 369.214266 529.763118 
L 370.240096 533.056196 
L 371.265925 532.816143 
L 372.291755 533.010478 
L 373.317584 533.717271 
L 374.343414 533.856061 
L 375.369243 532.216379 
L 376.395073 533.935686 
L 377.420903 536.704455 
L 379.472562 536.424803 
L 380.498391 535.758339 
L 381.524221 538.150348 
L 383.57588 539.701248 
L 384.60171 539.467351 
L 385.627539 536.622265 
L 386.653369 543.069059 
L 387.679198 541.332352 
L 388.705028 542.125282 
L 389.730858 540.528654 
L 390.756687 542.545197 
L 391.782517 542.853458 
L 392.808346 543.615362 
L 393.834176 542.872746 
L 394.860006 544.041852 
L 395.885835 543.617032 
L 396.911665 541.716684 
L 397.937494 544.568086 
L 398.963324 544.665241 
L 399.989153 544.530399 
L 401.014983 545.116088 
L 402.040813 546.524717 
L 403.066642 545.118441 
L 404.092472 548.87448 
L 405.118301 547.735187 
L 406.144131 548.605403 
L 407.16996 549.666872 
L 408.19579 548.700746 
L 409.22162 549.923182 
L 410.247449 568.49752 
L 411.273279 550.494713 
L 412.299108 549.687143 
L 413.324938 550.752836 
L 414.350768 551.428799 
L 415.376597 551.771375 
L 416.402427 552.327676 
L 417.428256 552.586176 
L 418.454086 552.507354 
L 419.479915 551.958755 
L 420.505745 551.545963 
L 421.531575 556.244091 
L 422.557404 554.924286 
L 423.583234 554.005149 
L 424.609063 553.781988 
L 425.634893 553.984796 
L 426.660722 554.418382 
L 427.686552 555.177242 
L 428.712382 553.817502 
L 429.738211 554.843237 
L 431.78987 556.29775 
L 433.84153 557.150627 
L 434.867359 555.95877 
L 435.893189 557.506336 
L 436.919018 558.435237 
L 437.944848 567.316709 
L 438.970677 558.803338 
L 439.996507 558.988485 
L 441.022337 558.278029 
L 442.048166 558.050794 
L 443.073996 559.451165 
L 444.099825 559.915889 
L 445.125655 559.924807 
L 446.151485 559.726247 
L 447.177314 561.165141 
L 448.203144 560.697681 
L 449.228973 561.581753 
L 450.254803 560.540986 
L 451.280632 562.086794 
L 452.306462 561.536229 
L 453.332292 562.290473 
L 454.358121 562.781969 
L 455.383951 562.197908 
L 456.40978 562.838138 
L 458.461439 562.610203 
L 459.487269 581.171866 
L 460.513099 562.963344 
L 461.538928 563.982659 
L 462.564758 560.951245 
L 463.590587 564.413268 
L 464.616417 564.025286 
L 465.642247 564.250737 
L 466.668076 564.646234 
L 467.693906 564.73328 
L 468.719735 565.381191 
L 469.745565 563.566883 
L 470.771394 566.202424 
L 471.797224 566.993519 
L 472.823054 565.967542 
L 474.874713 565.543019 
L 475.900542 565.640163 
L 476.926372 567.117267 
L 477.952201 571.975109 
L 478.978031 567.228011 
L 480.003861 566.889347 
L 481.02969 567.755435 
L 482.05552 566.680778 
L 483.081349 567.80769 
L 484.107179 565.690749 
L 485.133009 564.81566 
L 486.158838 581.261219 
L 487.184668 569.16228 
L 488.210497 569.673071 
L 489.236327 570.455948 
L 490.262156 570.115686 
L 491.287986 568.415603 
L 492.313816 570.973811 
L 493.339645 570.021162 
L 494.365475 570.560589 
L 495.391304 570.968491 
L 496.417134 572.836965 
L 497.442964 571.672926 
L 498.468793 571.077408 
L 499.494623 573.275125 
L 500.520452 571.77625 
L 502.572111 571.651952 
L 503.597941 571.829427 
L 504.623771 572.371656 
L 505.6496 571.8149 
L 506.67543 572.371744 
L 507.701259 572.589329 
L 508.727089 571.608103 
L 509.752918 573.335978 
L 510.778748 574.41719 
L 511.804578 573.908208 
L 512.830407 574.023538 
L 513.856237 572.798815 
L 514.882066 574.064272 
L 515.907896 574.704709 
L 516.933726 574.773822 
L 517.959555 575.070916 
L 518.985385 574.132936 
L 520.011214 574.458275 
L 521.037044 575.411331 
L 522.062873 575.085787 
L 523.088703 575.615893 
L 524.114533 575.771281 
L 525.140362 555.151828 
L 527.192021 583.245542 
L 528.217851 575.974791 
L 529.24368 576.168951 
L 530.26951 576.003102 
L 531.29534 574.203694 
L 532.321169 577.733404 
L 533.346999 577.10998 
L 534.372828 578.362948 
L 535.398658 577.837036 
L 536.424488 577.503454 
L 537.450317 578.312473 
L 538.476147 578.86971 
L 539.501976 579.598745 
L 542.579465 578.583853 
L 543.605295 578.440429 
L 544.631124 579.181461 
L 545.656954 577.911963 
L 546.682783 579.218987 
L 547.708613 579.683922 
L 548.734443 579.246245 
L 549.760272 578.66338 
L 550.786102 579.892361 
L 551.811931 579.854252 
L 552.837761 580.392162 
L 553.86359 579.797122 
L 554.88942 579.998415 
L 555.91525 578.712638 
L 556.941079 581.087869 
L 557.966909 581.55464 
L 558.992738 581.86469 
L 560.018568 581.605145 
L 561.044397 581.907428 
L 562.070227 579.795824 
L 563.096057 587.384088 
L 564.121886 581.868582 
L 565.147716 581.088926 
L 566.173545 581.95961 
L 567.199375 582.212279 
L 568.225205 582.10887 
L 569.251034 582.403342 
L 570.276864 582.842406 
L 571.302693 582.309131 
L 572.328523 582.469945 
L 573.354352 583.080804 
L 574.380182 582.713316 
L 575.406012 582.664629 
L 576.431841 583.214463 
L 577.457671 582.732297 
L 578.4835 582.821587 
L 579.50933 589.404204 
L 580.535159 583.581185 
L 581.560989 583.241478 
L 582.586819 583.688282 
L 583.612648 595.615379 
L 584.638478 583.67486 
L 585.664307 583.997577 
L 586.690137 584.145005 
L 587.715967 583.323446 
L 588.741796 583.620237 
L 589.767626 585.567481 
L 590.793455 585.338397 
L 593.870944 585.633842 
L 594.896774 585.587091 
L 595.922603 599.196349 
L 596.948433 585.507863 
L 597.974262 586.466066 
L 599.000092 586.457902 
L 600.025922 597.331106 
L 601.051751 589.823836 
L 602.077581 585.806689 
L 603.10341 585.605878 
L 604.12924 586.344305 
L 605.155069 586.281259 
L 606.180899 586.565042 
L 607.206729 586.579261 
L 608.232558 586.846276 
L 609.258388 586.777075 
L 610.284217 586.940605 
L 612.335876 586.976474 
L 614.387536 587.339572 
L 615.413365 587.109369 
L 616.439195 587.851421 
L 617.465024 587.576183 
L 618.490854 587.504043 
L 619.516684 594.192505 
L 620.542513 590.885387 
L 621.568343 598.74995 
L 622.594172 588.122354 
L 623.620002 589.172488 
L 624.645831 586.755314 
L 625.671661 588.41642 
L 626.697491 588.838958 
L 627.72332 587.164915 
L 628.74915 588.966829 
L 629.774979 589.104746 
L 630.800809 588.845148 
L 632.852468 589.175823 
L 633.878298 589.162685 
L 634.904127 588.98827 
L 635.929957 589.434864 
L 636.955786 600.072825 
L 637.981616 589.624272 
L 639.007446 589.15844 
L 640.033275 589.587187 
L 641.059105 589.419088 
L 642.084934 589.976689 
L 644.136593 590.127851 
L 645.162423 590.075973 
L 646.188253 590.618758 
L 647.214082 590.272721 
L 648.239912 589.754601 
L 649.265741 591.312588 
L 651.3174 590.168415 
L 652.34323 590.619151 
L 653.36906 590.729031 
L 654.394889 590.666692 
L 655.420719 590.987939 
L 656.446548 590.756552 
L 658.498208 590.808877 
L 659.524037 591.384643 
L 660.549867 590.767512 
L 661.575696 591.636822 
L 662.601526 591.600108 
L 663.627355 591.431944 
L 664.653185 592.810446 
L 665.679015 592.443111 
L 666.704844 591.352368 
L 667.730674 592.365005 
L 668.756503 593.048864 
L 669.782333 595.797653 
L 670.808163 593.00916 
L 671.833992 592.408113 
L 672.859822 593.662779 
L 673.885651 593.407249 
L 676.96314 593.004858 
L 677.98897 593.279515 
L 679.014799 592.8012 
L 680.040629 593.620051 
L 681.066458 593.363052 
L 683.118117 593.472279 
L 684.143947 595.970481 
L 685.169777 593.661411 
L 687.221436 593.167627 
L 689.273095 593.456346 
L 690.298925 593.935877 
L 691.324754 593.636959 
L 692.350584 593.928107 
L 694.402243 601.880476 
L 695.428072 593.970508 
L 696.453902 593.669964 
L 697.479732 594.323017 
L 698.505561 596.833397 
L 699.531391 603.923457 
L 700.55722 594.634654 
L 701.58305 594.762073 
L 702.608879 592.634878 
L 703.634709 594.49536 
L 704.660539 594.604345 
L 705.686368 594.227524 
L 706.712198 594.374582 
L 707.738027 594.276799 
L 708.763857 592.584388 
L 709.789687 598.61175 
L 710.815516 594.923812 
L 711.841346 594.326321 
L 712.867175 594.922789 
L 713.893005 594.413178 
L 714.918834 601.472881 
L 715.944664 594.650324 
L 716.970494 595.219057 
L 717.996323 594.887777 
L 719.022153 595.142597 
L 720.047982 593.36726 
L 721.073812 594.859682 
L 722.099642 594.875789 
L 723.125471 594.130199 
L 724.151301 594.636577 
L 725.17713 595.588589 
L 726.20296 595.731099 
L 727.228789 595.628835 
L 729.280449 596.378244 
L 730.306278 595.919432 
L 731.332108 595.646816 
L 732.357937 596.223466 
L 733.383767 596.357988 
L 734.409596 595.737989 
L 735.435426 595.873008 
L 736.461256 596.575 
L 737.487085 596.458263 
L 738.512915 596.222418 
L 739.538744 596.103184 
L 740.564574 596.217335 
L 741.590404 598.649201 
L 742.616233 596.391657 
L 743.642063 605.482423 
L 744.667892 596.655658 
L 745.693722 598.799697 
L 746.719551 596.744873 
L 747.745381 597.041365 
L 749.79704 597.237347 
L 750.82287 597.163312 
L 751.848699 602.569001 
L 752.874529 597.406834 
L 753.900358 597.889706 
L 754.926188 597.712503 
L 755.952018 597.381993 
L 756.977847 597.648083 
L 758.003677 598.048524 
L 759.029506 597.621597 
L 760.055336 597.91007 
L 761.081166 597.706462 
L 762.106995 597.944403 
L 763.132825 597.80034 
L 764.158654 598.161123 
L 765.184484 597.494313 
L 766.210313 598.471981 
L 767.236143 598.299153 
L 768.261973 598.387138 
L 769.287802 598.670415 
L 770.313632 598.536916 
L 771.339461 598.781355 
L 772.365291 598.077715 
L 773.391121 598.712781 
L 775.44278 598.898222 
L 776.468609 600.900763 
L 777.494439 598.558159 
L 778.520268 606.710032 
L 779.546098 599.159594 
L 780.571928 598.536441 
L 781.597757 598.936154 
L 782.623587 598.975347 
L 783.649416 599.365159 
L 784.675246 599.409298 
L 785.701075 597.840371 
L 786.726905 599.2865 
L 788.778564 599.961822 
L 789.804394 599.735652 
L 790.830223 599.683125 
L 791.856053 599.802026 
L 792.881883 599.548742 
L 793.907712 599.425675 
L 794.933542 599.698919 
L 796.985201 599.652895 
L 798.01103 599.3249 
L 799.03686 603.41753 
L 800.06269 599.966017 
L 801.088519 600.778389 
L 802.114349 600.342045 
L 803.140178 600.145153 
L 804.166008 601.606212 
L 805.191837 599.940749 
L 807.243497 600.274658 
L 808.269326 599.686984 
L 809.295156 599.613928 
L 810.320985 600.010046 
L 811.346815 599.984449 
L 813.398474 600.288083 
L 814.424304 600.942871 
L 815.450133 600.132863 
L 819.553452 600.261519 
L 820.579281 599.633855 
L 821.605111 600.177123 
L 822.63094 600.407498 
L 823.65677 600.498919 
L 824.6826 600.41367 
L 826.734259 600.442751 
L 827.760088 600.17651 
L 828.785918 600.739528 
L 829.811747 600.673616 
L 830.837577 600.311467 
L 831.863407 600.824454 
L 833.915066 600.892402 
L 834.940895 600.721551 
L 836.992554 600.673631 
L 839.044214 601.122881 
L 840.070043 601.170708 
L 841.095873 599.91217 
L 842.121702 601.183451 
L 843.147532 601.41248 
L 844.173362 601.467155 
L 845.199191 600.863421 
L 846.225021 601.391295 
L 847.25085 601.239481 
L 848.27668 601.764097 
L 849.302509 601.604811 
L 850.328339 601.631966 
L 851.354169 601.328611 
L 852.379998 601.363653 
L 853.405828 601.65613 
L 854.431657 602.377501 
L 855.457487 606.228745 
L 856.483316 602.309668 
L 858.534976 602.29127 
L 859.560805 602.490687 
L 860.586635 602.52835 
L 861.612464 602.331554 
L 862.638294 601.934188 
L 863.664124 601.961403 
L 864.689953 605.306619 
L 865.715783 602.363257 
L 867.767442 602.334288 
L 868.793271 601.795939 
L 870.844931 602.600787 
L 871.87076 609.469296 
L 872.89659 602.720137 
L 873.922419 602.460598 
L 876.999908 602.766826 
L 878.025738 605.258152 
L 879.051567 602.894022 
L 882.129056 602.501238 
L 883.154886 603.412494 
L 884.180715 602.910093 
L 885.206545 603.280101 
L 887.258204 603.149146 
L 889.309863 603.072651 
L 890.335693 601.400047 
L 891.361522 603.217976 
L 892.387352 603.535685 
L 893.413181 603.564641 
L 894.439011 602.597939 
L 895.464841 603.127984 
L 897.5165 603.130142 
L 898.542329 601.751233 
L 899.568159 611.177336 
L 900.593988 602.926622 
L 901.619818 603.167636 
L 902.645648 602.493857 
L 903.671477 598.825576 
L 904.697307 602.763653 
L 905.723136 600.061107 
L 906.748966 603.351521 
L 907.774795 601.94196 
L 909.826455 603.253557 
L 910.852284 602.880077 
L 911.878114 603.01983 
L 912.903943 601.344625 
L 913.929773 603.001408 
L 915.981432 602.806569 
L 917.007262 602.328505 
L 918.033091 604.04939 
L 919.058921 602.915477 
L 920.08475 602.708276 
L 921.11058 603.226438 
L 922.13641 602.726622 
L 923.162239 602.674008 
L 924.188069 604.282231 
L 925.213898 606.349676 
L 926.239728 603.935586 
L 927.265557 603.466216 
L 928.291387 603.352456 
L 929.317217 603.413552 
L 930.343046 604.280768 
L 931.368876 603.932993 
L 932.394705 605.150808 
L 933.420535 604.866727 
L 934.446365 604.344481 
L 936.498024 604.341105 
L 937.523853 604.07022 
L 938.549683 604.446976 
L 939.575512 604.655937 
L 940.601342 604.647436 
L 941.627172 605.918037 
L 942.653001 608.385306 
L 943.678831 604.624837 
L 945.73049 604.611937 
L 946.75632 604.299287 
L 947.782149 604.795349 
L 948.807979 604.484602 
L 949.833808 605.974976 
L 950.859638 605.140521 
L 951.885467 603.519361 
L 952.911297 607.425062 
L 953.937127 604.713079 
L 954.962956 604.331587 
L 955.988786 604.787148 
L 957.014615 604.995761 
L 958.040445 604.723487 
L 959.066274 604.807296 
L 960.092104 604.653482 
L 961.117934 604.283932 
L 962.143763 604.638405 
L 965.221252 604.722698 
L 966.247082 604.854553 
L 967.272911 605.318371 
L 968.298741 606.342054 
L 969.32457 604.663675 
L 970.3504 604.513935 
L 971.376229 604.481384 
L 972.402059 604.978278 
L 973.427889 604.961576 
L 974.453718 605.099638 
L 975.479548 609.02233 
L 976.505377 606.690124 
L 977.531207 605.086373 
L 978.557036 606.360639 
L 979.582866 604.232675 
L 981.634525 604.430334 
L 982.660355 604.13784 
L 983.686184 604.784308 
L 984.712014 604.709346 
L 985.737844 604.850451 
L 986.763673 606.096614 
L 987.789503 606.365644 
L 988.815332 605.932238 
L 989.841162 606.437544 
L 990.866991 605.385545 
L 991.892821 605.137419 
L 992.918651 605.28164 
L 993.94448 605.311542 
L 994.97031 609.236496 
L 995.996139 605.255134 
L 997.021969 605.558672 
L 998.047799 605.596875 
L 1000.099458 605.385419 
L 1001.125287 606.551663 
L 1002.151117 605.227749 
L 1003.176946 605.531176 
L 1004.202776 605.308248 
L 1005.228606 605.425551 
L 1006.254435 605.385469 
L 1007.280265 605.568902 
L 1008.306094 604.911403 
L 1009.331924 605.538138 
L 1010.357753 605.489218 
L 1011.383583 605.187577 
L 1012.409413 605.592421 
L 1013.435242 605.183093 
L 1014.461072 606.632993 
L 1015.486901 605.217008 
L 1016.512731 605.376918 
L 1018.56439 605.348019 
L 1019.59022 605.401146 
L 1020.616049 605.72026 
L 1021.641879 605.55542 
L 1023.693538 605.664601 
L 1027.796856 605.623932 
L 1028.822686 605.292977 
L 1029.848515 605.583118 
L 1030.874345 605.577918 
L 1031.900175 606.732594 
L 1032.926004 605.37639 
L 1033.951834 605.648335 
L 1034.977663 605.768571 
L 1036.003493 605.002664 
L 1037.029323 605.496174 
L 1040.106811 605.689001 
L 1041.132641 604.747391 
L 1042.15847 604.899236 
L 1043.1843 604.934499 
L 1044.21013 606.282989 
L 1045.235959 606.479015 
L 1046.261789 606.25897 
L 1047.287618 606.412655 
L 1048.313448 606.389701 
L 1049.339278 606.653857 
L 1050.365107 606.440702 
L 1052.416766 606.379129 
L 1053.442596 606.664682 
L 1054.468425 607.454686 
L 1055.494255 606.176157 
L 1056.520085 606.189451 
L 1057.545914 606.433588 
L 1058.571744 606.391557 
L 1059.597573 612.9465 
L 1060.623403 604.636404 
L 1061.649232 607.645144 
L 1062.675062 606.514366 
L 1063.700892 607.676363 
L 1064.726721 607.798975 
L 1065.752551 607.733642 
L 1066.77838 607.833488 
L 1067.80421 610.429069 
L 1068.83004 607.88942 
L 1069.855869 607.965903 
L 1070.881699 607.543733 
L 1071.907528 606.675759 
L 1072.933358 612.561013 
L 1073.959187 608.000857 
L 1074.985017 607.855478 
L 1076.010847 609.900859 
L 1077.036676 607.885424 
L 1078.062506 607.633208 
L 1079.088335 607.150332 
L 1080.114165 607.749137 
L 1081.139994 613.295553 
L 1082.165824 608.009936 
L 1088.320802 608.081325 
L 1089.346631 609.628818 
L 1090.372461 608.02043 
L 1091.39829 608.231979 
L 1095.501609 608.335977 
L 1096.527438 608.662303 
L 1097.553268 608.518007 
L 1098.579097 608.659943 
L 1099.604927 608.543942 
L 1101.656586 608.562166 
L 1102.682416 608.528375 
L 1103.708245 608.086455 
L 1104.734075 608.545968 
L 1107.811564 608.571169 
L 1108.837393 608.540917 
L 1109.863223 608.094718 
L 1110.889052 608.629975 
L 1111.914882 609.314269 
L 1112.940711 608.485567 
L 1113.966541 608.862224 
L 1114.992371 607.749083 
L 1116.0182 610.587645 
L 1117.04403 609.184215 
L 1118.069859 609.069744 
L 1122.173178 609.186198 
L 1125.250666 609.294612 
L 1126.276496 611.568287 
L 1127.302326 609.07388 
L 1128.328155 609.083737 
L 1129.353985 609.332127 
L 1130.379814 609.216842 
L 1131.405644 609.345919 
L 1132.431473 609.24017 
L 1133.457303 609.334393 
L 1139.612281 609.255989 
L 1140.63811 608.935646 
L 1141.66394 609.202641 
L 1144.741428 609.24104 
L 1145.767258 615.52924 
L 1146.793088 609.237106 
L 1147.818917 609.33234 
L 1149.870576 609.231883 
L 1150.896406 609.400293 
L 1151.922235 609.323846 
L 1152.948065 598.765414 
L 1153.973895 606.456712 
L 1154.999724 608.962885 
L 1156.025554 609.177468 
L 1157.051383 608.873271 
L 1158.077213 609.057789 
L 1159.103043 610.190078 
L 1160.128872 609.297601 
L 1161.154702 609.503346 
L 1162.180531 615.6 
L 1163.206361 609.546116 
L 1164.23219 609.603654 
L 1165.25802 608.810727 
L 1166.28385 609.316777 
L 1167.309679 610.825256 
L 1168.335509 609.578141 
L 1169.361338 609.05006 
L 1171.412998 609.509038 
L 1172.438827 609.041657 
L 1173.464657 610.522402 
L 1174.490486 609.012352 
L 1175.516316 609.955123 
L 1176.542145 609.589377 
L 1177.567975 609.548607 
L 1178.593805 609.776904 
L 1179.619634 609.618727 
L 1180.645464 609.715056 
L 1181.671293 609.55085 
L 1182.697123 610.58779 
L 1183.722952 609.697649 
L 1184.748782 609.798985 
L 1185.774612 609.611136 
L 1186.800441 609.749665 
L 1187.826271 606.372601 
L 1188.8521 609.826747 
L 1189.87793 609.688669 
L 1190.90376 609.820171 
L 1191.929589 609.678651 
L 1192.955419 609.710397 
L 1193.981248 609.855067 
L 1196.032907 609.670396 
L 1197.058737 609.874663 
L 1200.136226 609.177774 
L 1201.162055 609.402355 
L 1202.187885 609.148952 
L 1203.213714 609.237707 
L 1204.239544 609.172328 
L 1205.265374 609.435246 
L 1206.291203 608.767128 
L 1207.317033 609.318206 
L 1208.342862 609.25637 
L 1209.368692 609.470503 
L 1210.394522 611.394395 
L 1211.420351 609.423616 
L 1212.446181 609.516109 
L 1213.47201 609.30032 
L 1214.49784 609.27238 
L 1215.523669 609.412996 
L 1216.549499 609.335826 
L 1217.575329 609.433723 
L 1218.601158 609.34303 
L 1219.626988 609.395988 
L 1220.652817 608.721055 
L 1221.678647 609.433208 
L 1224.756136 609.381334 
L 1226.807795 609.451854 
L 1227.833624 609.329522 
L 1230.911113 609.426233 
L 1231.936943 609.590784 
L 1232.962772 609.412024 
L 1233.988602 609.579791 
L 1235.014431 609.422652 
L 1236.040261 609.567555 
L 1237.066091 609.904808 
L 1238.09192 609.953367 
L 1240.143579 609.706176 
L 1241.169409 609.902453 
L 1242.195239 609.747651 
L 1243.221068 609.929255 
L 1244.246898 609.360738 
L 1245.272727 609.564619 
L 1245.272727 609.564619 
" style="fill:none;stroke:#1f77b4;stroke-linecap:square;stroke-width:1.5;"/>
   </g>
   <g id="line2d_18">
    <path clip-path="url(#pfc328ade43)" d="M 230.727273 162.963123 
L 231.753102 134.783999 
L 232.778932 157.16184 
L 233.804761 208.010843 
L 234.830591 237.146756 
L 235.856421 246.0459 
L 236.88225 194.338502 
L 237.90808 275.857115 
L 238.933909 266.531459 
L 239.959739 267.818808 
L 240.985569 278.076616 
L 242.011398 232.676273 
L 243.037228 290.149167 
L 244.063057 253.907046 
L 245.088887 277.061882 
L 246.114716 284.216577 
L 247.140546 267.189925 
L 248.166376 321.325705 
L 249.192205 312.823274 
L 250.218035 300.104445 
L 252.269694 344.007941 
L 253.295523 338.902834 
L 254.321353 329.565158 
L 255.347183 312.597663 
L 256.373012 321.35794 
L 257.398842 345.862584 
L 258.424671 354.06097 
L 259.450501 365.819526 
L 260.476331 369.335706 
L 261.50216 360.519191 
L 262.52799 353.472679 
L 263.553819 350.538371 
L 264.579649 397.0935 
L 265.605478 363.207162 
L 267.657138 391.306474 
L 268.682967 400.701471 
L 269.708797 393.377888 
L 270.734626 394.375222 
L 271.760456 399.227185 
L 272.786286 402.602426 
L 273.812115 407.997791 
L 274.837945 391.72368 
L 275.863774 422.537708 
L 276.889604 396.214653 
L 277.915433 391.992017 
L 278.941263 413.17599 
L 279.967093 398.456864 
L 280.992922 399.7122 
L 282.018752 418.854915 
L 283.044581 420.45996 
L 284.070411 425.437309 
L 285.09624 405.831211 
L 286.12207 446.712797 
L 287.1479 430.675215 
L 288.173729 437.568473 
L 289.199559 432.1116 
L 290.225388 427.562966 
L 291.251218 439.874629 
L 292.277048 445.173413 
L 293.302877 447.362748 
L 294.328707 433.577282 
L 295.354536 437.702679 
L 296.380366 448.620534 
L 297.406195 452.161059 
L 298.432025 453.567911 
L 299.457855 440.164517 
L 300.483684 441.48439 
L 301.509514 426.298909 
L 302.535343 428.654897 
L 303.561173 420.410255 
L 304.587002 451.906907 
L 305.612832 453.111383 
L 306.638662 467.174786 
L 307.664491 465.186192 
L 308.690321 457.93076 
L 309.71615 458.865344 
L 310.74198 464.886147 
L 311.76781 458.664189 
L 312.793639 475.368255 
L 313.819469 458.242515 
L 314.845298 473.514721 
L 315.871128 499.144088 
L 316.896957 476.147647 
L 317.922787 475.99673 
L 318.948617 472.373104 
L 319.974446 473.621428 
L 321.000276 483.730287 
L 322.026105 528.243165 
L 323.051935 481.353288 
L 324.077765 480.034512 
L 325.103594 480.45193 
L 326.129424 486.069856 
L 327.155253 489.871477 
L 328.181083 487.768478 
L 330.232742 477.502981 
L 331.258572 488.225769 
L 332.284401 488.885233 
L 333.310231 484.892046 
L 334.33606 495.793928 
L 336.387719 491.955295 
L 337.413549 492.444806 
L 338.439379 492.717491 
L 339.465208 494.2119 
L 340.491038 498.766971 
L 341.516867 495.247554 
L 342.542697 489.839841 
L 343.568527 499.029927 
L 344.594356 497.489883 
L 345.620186 498.675356 
L 346.646015 505.985365 
L 347.671845 496.873504 
L 348.697674 495.749724 
L 349.723504 500.532605 
L 350.749334 501.214833 
L 351.775163 504.841935 
L 352.800993 505.097191 
L 353.826822 480.456314 
L 354.852652 513.871796 
L 355.878481 502.101379 
L 356.904311 515.167605 
L 357.930141 505.856043 
L 358.95597 508.946951 
L 361.007629 512.201047 
L 362.033459 511.22885 
L 363.059289 506.351339 
L 364.085118 513.868114 
L 365.110948 513.828958 
L 366.136777 511.482041 
L 367.162607 515.526688 
L 368.188436 515.413648 
L 369.214266 514.628556 
L 370.240096 516.905716 
L 371.265925 517.801272 
L 372.291755 517.869462 
L 373.317584 516.410913 
L 374.343414 516.977295 
L 375.369243 521.545544 
L 376.395073 515.17298 
L 377.420903 520.041623 
L 378.446732 527.680017 
L 379.472562 521.527719 
L 380.498391 520.220049 
L 381.524221 518.068286 
L 382.550051 522.583151 
L 383.57588 524.961399 
L 385.627539 523.744157 
L 386.653369 525.215867 
L 387.679198 535.235571 
L 388.705028 531.812851 
L 389.730858 534.110069 
L 390.756687 527.412465 
L 391.782517 525.644761 
L 392.808346 543.799792 
L 393.834176 535.493706 
L 394.860006 531.982161 
L 395.885835 526.939802 
L 396.911665 537.77801 
L 397.937494 531.390745 
L 398.963324 536.663994 
L 399.989153 538.489782 
L 401.014983 538.065004 
L 402.040813 536.455255 
L 403.066642 537.214902 
L 404.092472 539.844963 
L 406.144131 538.92097 
L 407.16996 539.085806 
L 408.19579 536.524105 
L 409.22162 539.86945 
L 410.247449 537.383505 
L 411.273279 540.896283 
L 412.299108 541.846162 
L 413.324938 539.94187 
L 414.350768 543.382377 
L 415.376597 553.716309 
L 416.402427 544.681219 
L 417.428256 544.546591 
L 418.454086 535.561826 
L 419.479915 545.104855 
L 420.505745 545.361265 
L 421.531575 544.054478 
L 422.557404 550.06941 
L 423.583234 540.822638 
L 424.609063 541.810714 
L 425.634893 536.757092 
L 426.660722 544.375138 
L 427.686552 541.084491 
L 428.712382 546.601364 
L 429.738211 548.25233 
L 430.764041 550.459522 
L 431.78987 548.068457 
L 433.84153 548.761098 
L 434.867359 542.71797 
L 435.893189 555.017562 
L 436.919018 546.253769 
L 437.944848 542.939455 
L 438.970677 543.062278 
L 439.996507 548.884199 
L 441.022337 547.496704 
L 442.048166 547.423507 
L 443.073996 549.261408 
L 444.099825 548.573655 
L 445.125655 552.483892 
L 446.151485 555.133666 
L 447.177314 552.194588 
L 448.203144 549.59968 
L 449.228973 553.788794 
L 450.254803 551.465709 
L 451.280632 552.342631 
L 452.306462 564.773732 
L 453.332292 553.879548 
L 455.383951 552.041647 
L 456.40978 553.21783 
L 457.43561 555.538436 
L 458.461439 553.479802 
L 459.487269 554.418927 
L 460.513099 554.947544 
L 461.538928 553.192929 
L 462.564758 554.731609 
L 463.590587 552.99656 
L 464.616417 563.73791 
L 465.642247 553.216345 
L 466.668076 555.444316 
L 467.693906 555.033604 
L 468.719735 556.816761 
L 469.745565 560.559632 
L 470.771394 555.209493 
L 471.797224 555.171738 
L 473.848883 555.782894 
L 474.874713 558.484056 
L 475.900542 552.991184 
L 476.926372 551.096423 
L 477.952201 557.94624 
L 478.978031 548.213567 
L 480.003861 548.562624 
L 481.02969 557.24472 
L 482.05552 556.763864 
L 483.081349 557.858964 
L 484.107179 556.774758 
L 485.133009 563.145796 
L 487.184668 559.149736 
L 488.210497 559.352391 
L 489.236327 560.153186 
L 490.262156 561.217066 
L 491.287986 561.168566 
L 492.313816 560.628803 
L 493.339645 560.726119 
L 494.365475 562.013737 
L 495.391304 561.986457 
L 496.417134 560.841475 
L 497.442964 560.205183 
L 498.468793 562.778546 
L 499.494623 562.67721 
L 500.520452 571.722134 
L 501.546282 563.572168 
L 502.572111 563.30051 
L 503.597941 563.833897 
L 504.623771 562.310954 
L 505.6496 562.893109 
L 506.67543 561.864479 
L 508.727089 564.802498 
L 509.752918 564.311196 
L 510.778748 563.425764 
L 511.804578 566.064122 
L 512.830407 566.479433 
L 513.856237 565.641611 
L 514.882066 564.262374 
L 515.907896 568.115611 
L 516.933726 565.829964 
L 517.959555 566.943794 
L 518.985385 566.649548 
L 520.011214 565.656843 
L 521.037044 582.534016 
L 522.062873 566.421537 
L 523.088703 565.569692 
L 524.114533 567.707037 
L 525.140362 566.009752 
L 526.166192 566.80016 
L 527.192021 569.729035 
L 528.217851 569.014592 
L 529.24368 567.0706 
L 530.26951 569.469437 
L 531.29534 568.176881 
L 532.321169 572.129118 
L 533.346999 570.860775 
L 534.372828 566.885936 
L 535.398658 567.126498 
L 536.424488 568.816717 
L 537.450317 570.957184 
L 538.476147 569.981538 
L 539.501976 568.066024 
L 540.527806 568.336415 
L 541.553635 569.19657 
L 542.579465 568.997617 
L 543.605295 568.023091 
L 544.631124 568.431438 
L 545.656954 571.77308 
L 546.682783 570.149375 
L 547.708613 570.682903 
L 548.734443 569.729833 
L 549.760272 570.644172 
L 550.786102 571.041649 
L 551.811931 568.81628 
L 552.837761 570.81827 
L 553.86359 571.029308 
L 554.88942 572.414925 
L 555.91525 572.941613 
L 556.941079 571.771375 
L 557.966909 571.126693 
L 558.992738 571.272343 
L 560.018568 578.577131 
L 561.044397 571.202217 
L 562.070227 572.398003 
L 563.096057 572.725442 
L 564.121886 572.106534 
L 565.147716 573.072414 
L 566.173545 573.126718 
L 567.199375 573.421671 
L 568.225205 574.156221 
L 569.251034 573.954707 
L 570.276864 574.109627 
L 571.302693 573.314428 
L 572.328523 573.422716 
L 573.354352 574.98449 
L 574.380182 574.743885 
L 575.406012 575.895003 
L 576.431841 574.684839 
L 577.457671 576.421424 
L 578.4835 575.25397 
L 579.50933 575.789589 
L 581.560989 577.301297 
L 582.586819 576.286135 
L 583.612648 578.034873 
L 584.638478 578.446495 
L 585.664307 578.987317 
L 586.690137 578.141386 
L 587.715967 578.576637 
L 589.767626 578.994112 
L 590.793455 578.83149 
L 591.819285 579.354074 
L 592.845114 581.069915 
L 593.870944 579.942914 
L 594.896774 580.061645 
L 595.922603 579.792986 
L 596.948433 581.981292 
L 597.974262 579.490509 
L 599.000092 584.848969 
L 600.025922 579.588135 
L 602.077581 581.482845 
L 603.10341 580.407348 
L 604.12924 580.744267 
L 605.155069 581.750315 
L 606.180899 581.217009 
L 607.206729 581.034592 
L 608.232558 582.295193 
L 609.258388 581.105251 
L 610.284217 577.581097 
L 611.310047 581.640658 
L 612.335876 581.979503 
L 613.361706 582.838448 
L 614.387536 582.316459 
L 615.413365 582.564049 
L 616.439195 582.53949 
L 617.465024 582.786761 
L 618.490854 583.585501 
L 619.516684 583.036969 
L 620.542513 583.430815 
L 621.568343 584.268143 
L 622.594172 583.447626 
L 624.645831 583.62885 
L 625.671661 583.724032 
L 626.697491 583.378492 
L 627.72332 583.991797 
L 628.74915 583.674581 
L 629.774979 583.960681 
L 630.800809 584.866751 
L 631.826638 588.525299 
L 632.852468 584.675632 
L 633.878298 584.699331 
L 634.904127 589.641844 
L 635.929957 581.472693 
L 636.955786 582.431364 
L 637.981616 581.515362 
L 639.007446 581.354001 
L 640.033275 582.191084 
L 641.059105 582.665308 
L 642.084934 582.39642 
L 643.110764 576.286288 
L 644.136593 576.104874 
L 645.162423 577.670284 
L 646.188253 581.679795 
L 647.214082 582.529661 
L 648.239912 583.1032 
L 649.265741 588.213462 
L 650.291571 583.561759 
L 651.3174 584.321211 
L 652.34323 582.911469 
L 653.36906 583.749806 
L 656.446548 583.33598 
L 657.472378 583.833075 
L 658.498208 583.665859 
L 659.524037 581.869552 
L 660.549867 583.893419 
L 661.575696 582.091731 
L 662.601526 581.466243 
L 663.627355 580.35529 
L 664.653185 581.157087 
L 665.679015 581.700626 
L 666.704844 585.768204 
L 667.730674 581.041012 
L 668.756503 582.414746 
L 669.782333 582.035696 
L 670.808163 582.185339 
L 672.859822 582.114184 
L 673.885651 585.127471 
L 674.911481 582.447524 
L 675.93731 586.626735 
L 676.96314 582.725583 
L 677.98897 583.1517 
L 681.066458 582.683719 
L 682.092288 580.557866 
L 683.118117 576.658228 
L 684.143947 576.29104 
L 685.169777 583.90731 
L 686.195606 583.338397 
L 687.221436 583.09542 
L 688.247265 583.742031 
L 689.273095 588.706559 
L 690.298925 584.218187 
L 691.324754 583.359369 
L 692.350584 583.11276 
L 693.376413 583.270655 
L 694.402243 583.954239 
L 695.428072 583.143895 
L 696.453902 584.175478 
L 697.479732 584.003967 
L 698.505561 584.193838 
L 699.531391 584.504748 
L 700.55722 583.826104 
L 701.58305 584.861213 
L 703.634709 584.019448 
L 704.660539 585.024156 
L 705.686368 584.431717 
L 706.712198 584.202624 
L 707.738027 584.89032 
L 708.763857 588.155868 
L 709.789687 584.748725 
L 710.815516 585.366394 
L 711.841346 589.912572 
L 712.867175 584.988717 
L 713.893005 585.137973 
L 714.918834 585.43243 
L 715.944664 585.130849 
L 716.970494 585.337487 
L 717.996323 585.365194 
L 719.022153 585.768842 
L 720.047982 585.822655 
L 721.073812 586.513732 
L 722.099642 585.954325 
L 723.125471 586.356781 
L 724.151301 585.86569 
L 725.17713 586.403676 
L 726.20296 586.448683 
L 727.228789 590.052101 
L 728.254619 587.060166 
L 729.280449 586.707644 
L 730.306278 587.291027 
L 731.332108 587.468037 
L 732.357937 586.715653 
L 733.383767 587.598359 
L 734.409596 587.156552 
L 735.435426 587.54524 
L 736.461256 587.103442 
L 737.487085 587.969876 
L 738.512915 590.722311 
L 739.538744 587.966178 
L 740.564574 589.287511 
L 741.590404 587.895429 
L 744.667892 587.266995 
L 745.693722 587.976852 
L 746.719551 591.299665 
L 747.745381 588.173244 
L 748.771211 588.217301 
L 749.79704 588.47754 
L 750.82287 588.989398 
L 751.848699 588.806446 
L 752.874529 588.860336 
L 753.900358 588.202116 
L 755.952018 588.403971 
L 756.977847 588.750451 
L 758.003677 589.284407 
L 759.029506 588.546141 
L 760.055336 592.01319 
L 761.081166 588.830432 
L 762.106995 588.920763 
L 764.158654 588.604182 
L 765.184484 589.17606 
L 766.210313 589.296948 
L 767.236143 588.839464 
L 768.261973 589.363328 
L 769.287802 588.903175 
L 770.313632 590.5285 
L 771.339461 589.751029 
L 772.365291 588.796499 
L 773.391121 596.82309 
L 774.41695 592.482864 
L 775.44278 589.719473 
L 776.468609 590.311004 
L 777.494439 589.755265 
L 778.520268 589.684606 
L 779.546098 590.099574 
L 780.571928 590.385956 
L 781.597757 590.253287 
L 782.623587 590.401663 
L 783.649416 589.735498 
L 784.675246 590.446649 
L 785.701075 590.595776 
L 787.752735 590.645862 
L 790.830223 590.168567 
L 791.856053 590.558887 
L 792.881883 593.18332 
L 793.907712 589.434398 
L 794.933542 590.617348 
L 795.959371 590.735144 
L 796.985201 598.650461 
L 798.01103 591.189691 
L 799.03686 591.052106 
L 800.06269 591.478153 
L 801.088519 591.515809 
L 802.114349 596.461528 
L 803.140178 591.863628 
L 804.166008 590.805302 
L 805.191837 591.875584 
L 806.217667 593.372193 
L 807.243497 594.014317 
L 808.269326 592.008479 
L 809.295156 589.265333 
L 810.320985 587.599658 
L 811.346815 586.760976 
L 812.372645 590.109378 
L 813.398474 587.509414 
L 814.424304 591.51466 
L 815.450133 591.409327 
L 816.475963 591.77035 
L 817.501792 591.233371 
L 818.527622 590.963546 
L 819.553452 591.566875 
L 820.579281 592.032947 
L 821.605111 591.580815 
L 822.63094 591.596463 
L 823.65677 592.169349 
L 824.6826 591.991031 
L 825.708429 604.79514 
L 826.734259 591.378135 
L 827.760088 592.016058 
L 828.785918 592.05728 
L 829.811747 591.899809 
L 830.837577 591.402535 
L 831.863407 592.285412 
L 833.915066 591.940707 
L 834.940895 592.074956 
L 835.966725 592.327004 
L 836.992554 591.69037 
L 838.018384 592.142476 
L 839.044214 599.960873 
L 840.070043 592.737133 
L 842.121702 592.401417 
L 843.147532 592.70199 
L 844.173362 592.31209 
L 845.199191 592.494351 
L 846.225021 591.991171 
L 847.25085 592.642869 
L 848.27668 593.016387 
L 850.328339 592.786291 
L 851.354169 593.429001 
L 852.379998 593.177439 
L 855.457487 593.506368 
L 856.483316 593.29898 
L 857.509146 592.953277 
L 858.534976 596.036385 
L 859.560805 593.380194 
L 860.586635 593.700585 
L 861.612464 596.549524 
L 862.638294 594.629361 
L 863.664124 594.052011 
L 864.689953 593.649396 
L 865.715783 594.005002 
L 866.741612 592.717411 
L 867.767442 593.899217 
L 868.793271 594.289156 
L 869.819101 593.480242 
L 870.844931 594.276544 
L 871.87076 594.724085 
L 872.89659 593.982404 
L 873.922419 594.447031 
L 874.948249 593.353308 
L 875.974078 591.777995 
L 876.999908 593.979681 
L 878.025738 597.430213 
L 879.051567 594.554588 
L 880.077397 592.411702 
L 881.103226 597.261892 
L 882.129056 592.906777 
L 883.154886 594.698786 
L 884.180715 593.704686 
L 885.206545 592.891058 
L 886.232374 594.2118 
L 887.258204 594.75553 
L 888.284033 594.978623 
L 889.309863 595.458231 
L 890.335693 594.441472 
L 891.361522 597.749619 
L 892.387352 594.434636 
L 893.413181 594.899631 
L 894.439011 594.392894 
L 895.464841 595.13025 
L 896.49067 594.417428 
L 897.5165 597.11811 
L 898.542329 595.369341 
L 899.568159 595.568677 
L 900.593988 595.099128 
L 902.645648 594.418661 
L 903.671477 595.414777 
L 904.697307 601.973923 
L 905.723136 597.273468 
L 906.748966 595.757909 
L 907.774795 595.111401 
L 908.800625 595.717218 
L 909.826455 595.812532 
L 910.852284 594.899872 
L 911.878114 595.560648 
L 912.903943 595.91047 
L 913.929773 596.077362 
L 914.955603 595.679181 
L 917.007262 596.040906 
L 918.033091 596.000879 
L 919.058921 596.137286 
L 920.08475 595.432452 
L 921.11058 595.275751 
L 922.13641 596.233887 
L 923.162239 595.910384 
L 924.188069 600.009211 
L 925.213898 596.88378 
L 927.265557 595.792189 
L 928.291387 594.950564 
L 929.317217 596.337504 
L 930.343046 596.286455 
L 931.368876 595.949356 
L 933.420535 596.272151 
L 934.446365 596.741006 
L 935.472194 596.78806 
L 936.498024 595.840077 
L 937.523853 598.194421 
L 938.549683 596.695959 
L 939.575512 596.204151 
L 940.601342 596.18505 
L 941.627172 596.01808 
L 942.653001 596.643249 
L 943.678831 599.681014 
L 944.70466 596.832087 
L 945.73049 596.590056 
L 948.807979 597.518266 
L 949.833808 596.782615 
L 950.859638 597.009114 
L 951.885467 596.513924 
L 952.911297 596.876587 
L 953.937127 596.696925 
L 954.962956 596.959629 
L 955.988786 596.643465 
L 957.014615 599.657114 
L 958.040445 596.523656 
L 959.066274 597.248257 
L 960.092104 597.070303 
L 961.117934 597.571013 
L 963.169593 597.618208 
L 964.195422 597.337765 
L 965.221252 583.60663 
L 966.247082 597.143668 
L 967.272911 597.16149 
L 968.298741 597.595645 
L 969.32457 596.822628 
L 970.3504 603.133202 
L 971.376229 597.262969 
L 972.402059 596.956601 
L 973.427889 596.936091 
L 974.453718 595.777263 
L 975.479548 592.856105 
L 976.505377 593.058747 
L 977.531207 593.397166 
L 978.557036 593.456783 
L 979.582866 596.533006 
L 981.634525 596.841077 
L 982.660355 596.203241 
L 983.686184 596.348108 
L 984.712014 593.272573 
L 985.737844 596.833822 
L 986.763673 596.920918 
L 987.789503 594.90563 
L 988.815332 597.442752 
L 989.841162 598.917316 
L 990.866991 596.815936 
L 991.892821 597.943328 
L 992.918651 597.195171 
L 993.94448 597.136165 
L 994.97031 597.196798 
L 995.996139 598.372289 
L 997.021969 598.412019 
L 998.047799 597.901797 
L 999.073628 600.243023 
L 1001.125287 596.113099 
L 1002.151117 598.184934 
L 1003.176946 599.786519 
L 1004.202776 611.878186 
L 1005.228606 598.026865 
L 1006.254435 597.060198 
L 1008.306094 598.111068 
L 1009.331924 600.434392 
L 1010.357753 597.940032 
L 1012.409413 597.960465 
L 1014.461072 599.139084 
L 1015.486901 598.567282 
L 1016.512731 598.791932 
L 1017.538561 598.77807 
L 1018.56439 598.387232 
L 1019.59022 598.670259 
L 1020.616049 599.124097 
L 1021.641879 598.932347 
L 1022.667708 601.113198 
L 1023.693538 598.689885 
L 1024.719368 599.009568 
L 1027.796856 598.523622 
L 1028.822686 598.730672 
L 1029.848515 598.645506 
L 1030.874345 595.060548 
L 1031.900175 598.730199 
L 1032.926004 598.197296 
L 1033.951834 598.673194 
L 1034.977663 598.885216 
L 1036.003493 604.733449 
L 1037.029323 599.271526 
L 1038.055152 596.673602 
L 1039.080982 598.690971 
L 1040.106811 598.776311 
L 1041.132641 599.01568 
L 1042.15847 596.426791 
L 1043.1843 602.548358 
L 1044.21013 598.876543 
L 1045.235959 599.429104 
L 1046.261789 597.738415 
L 1047.287618 602.523538 
L 1048.313448 599.065141 
L 1050.365107 599.628842 
L 1051.390937 599.364435 
L 1052.416766 599.27931 
L 1053.442596 599.478967 
L 1054.468425 600.007334 
L 1055.494255 601.21637 
L 1056.520085 599.327092 
L 1057.545914 599.683741 
L 1058.571744 599.470827 
L 1059.597573 598.559724 
L 1060.623403 600.374013 
L 1061.649232 602.681686 
L 1062.675062 600.73885 
L 1063.700892 601.696451 
L 1064.726721 601.492898 
L 1065.752551 601.846209 
L 1066.77838 601.798697 
L 1067.80421 601.545482 
L 1068.83004 602.93845 
L 1069.855869 601.413747 
L 1070.881699 601.927371 
L 1071.907528 602.077995 
L 1072.933358 606.975681 
L 1073.959187 601.829309 
L 1074.985017 604.154251 
L 1076.010847 601.953404 
L 1078.062506 601.882348 
L 1079.088335 602.082017 
L 1080.114165 601.961261 
L 1081.139994 601.452376 
L 1082.165824 602.275052 
L 1083.191654 601.639161 
L 1084.217483 602.377447 
L 1085.243313 602.04603 
L 1087.294972 602.17845 
L 1088.320802 604.150774 
L 1089.346631 602.376136 
L 1090.372461 602.101422 
L 1091.39829 602.377069 
L 1092.42412 602.489972 
L 1093.449949 602.321226 
L 1094.475779 602.43515 
L 1096.527438 602.224307 
L 1097.553268 602.388416 
L 1099.604927 602.478483 
L 1100.630757 602.370667 
L 1101.656586 608.101674 
L 1102.682416 602.621677 
L 1104.734075 602.401074 
L 1105.759904 602.647622 
L 1106.785734 602.208424 
L 1109.863223 602.423021 
L 1110.889052 602.382443 
L 1111.914882 602.586944 
L 1112.940711 602.12132 
L 1113.966541 602.799292 
L 1114.992371 602.938155 
L 1116.0182 602.504698 
L 1117.04403 602.835431 
L 1119.095689 602.686839 
L 1120.121519 602.571241 
L 1121.147348 604.909902 
L 1122.173178 602.736585 
L 1125.250666 602.864671 
L 1126.276496 602.89571 
L 1127.302326 603.200638 
L 1128.328155 603.219929 
L 1129.353985 602.399328 
L 1130.379814 603.004661 
L 1131.405644 603.07253 
L 1133.457303 602.777884 
L 1134.483133 603.849833 
L 1135.508962 602.997122 
L 1136.534792 602.70906 
L 1137.560621 602.888426 
L 1138.586451 604.480864 
L 1139.612281 602.975404 
L 1140.63811 604.88424 
L 1141.66394 599.969942 
L 1142.689769 599.332511 
L 1143.715599 602.414618 
L 1144.741428 602.61985 
L 1145.767258 603.197785 
L 1146.793088 602.792965 
L 1147.818917 602.244578 
L 1148.844747 602.957627 
L 1150.896406 602.399299 
L 1151.922235 602.612892 
L 1152.948065 602.949025 
L 1153.973895 604.946589 
L 1154.999724 603.17177 
L 1158.077213 603.122813 
L 1162.180531 602.940738 
L 1163.206361 603.128922 
L 1164.23219 603.036373 
L 1165.25802 603.729584 
L 1166.28385 602.912145 
L 1167.309679 608.645458 
L 1168.335509 603.043591 
L 1169.361338 603.413152 
L 1170.387168 603.275716 
L 1171.412998 602.901804 
L 1172.438827 603.163432 
L 1173.464657 604.225111 
L 1174.490486 603.379376 
L 1175.516316 606.46848 
L 1176.542145 603.57911 
L 1177.567975 603.006337 
L 1178.593805 603.200603 
L 1179.619634 603.20411 
L 1180.645464 603.47607 
L 1182.697123 603.809885 
L 1183.722952 603.256057 
L 1184.748782 609.309941 
L 1185.774612 603.428499 
L 1186.800441 609.336114 
L 1187.826271 603.552776 
L 1188.8521 603.599771 
L 1189.87793 603.364533 
L 1190.90376 602.065548 
L 1191.929589 603.718761 
L 1192.955419 604.123342 
L 1193.981248 603.454914 
L 1195.007078 605.232131 
L 1196.032907 603.831694 
L 1197.058737 602.683958 
L 1198.084567 603.848535 
L 1199.110396 608.488281 
L 1200.136226 605.13552 
L 1201.162055 605.248937 
L 1202.187885 603.92469 
L 1203.213714 603.868941 
L 1204.239544 604.144287 
L 1205.265374 603.87081 
L 1206.291203 606.095268 
L 1207.317033 604.106221 
L 1208.342862 603.601642 
L 1209.368692 603.476601 
L 1210.394522 603.625223 
L 1211.420351 603.581376 
L 1212.446181 603.9794 
L 1213.47201 603.76158 
L 1214.49784 603.818194 
L 1215.523669 603.112188 
L 1216.549499 603.673069 
L 1218.601158 604.016156 
L 1219.626988 606.402881 
L 1220.652817 604.163928 
L 1221.678647 604.243695 
L 1222.704477 614.308125 
L 1223.730306 604.248097 
L 1224.756136 604.760658 
L 1225.781965 604.737447 
L 1226.807795 603.876253 
L 1227.833624 604.02741 
L 1228.859454 604.061311 
L 1229.885284 604.547303 
L 1230.911113 605.718084 
L 1231.936943 604.525104 
L 1232.962772 609.642657 
L 1233.988602 604.644861 
L 1235.014431 604.151293 
L 1236.040261 604.241238 
L 1238.09192 604.620129 
L 1239.11775 604.421302 
L 1241.169409 604.823993 
L 1242.195239 605.685366 
L 1243.221068 602.65454 
L 1244.246898 604.820475 
L 1245.272727 604.393307 
L 1245.272727 604.393307 
" style="fill:none;stroke:#ff7f0e;stroke-linecap:square;stroke-width:1.5;"/>
   </g>
   <g id="patch_3">
    <path d="M 180 640.8 
L 180 86.4 
" style="fill:none;stroke:#000000;stroke-linecap:square;stroke-linejoin:miter;stroke-width:0.8;"/>
   </g>
   <g id="patch_4">
    <path d="M 1296 640.8 
L 1296 86.4 
" style="fill:none;stroke:#000000;stroke-linecap:square;stroke-linejoin:miter;stroke-width:0.8;"/>
   </g>
   <g id="patch_5">
    <path d="M 180 640.8 
L 1296 640.8 
" style="fill:none;stroke:#000000;stroke-linecap:square;stroke-linejoin:miter;stroke-width:0.8;"/>
   </g>
   <g id="patch_6">
    <path d="M 180 86.4 
L 1296 86.4 
" style="fill:none;stroke:#000000;stroke-linecap:square;stroke-linejoin:miter;stroke-width:0.8;"/>
   </g>
   <g id="text_19">
    <!-- Williams %R Speedup -->
    <defs>
     <path d="M 3.328125 72.90625 
L 13.28125 72.90625 
L 28.609375 11.28125 
L 43.890625 72.90625 
L 54.984375 72.90625 
L 70.3125 11.28125 
L 85.59375 72.90625 
L 95.609375 72.90625 
L 77.296875 0 
L 64.890625 0 
L 49.515625 63.28125 
L 33.984375 0 
L 21.578125 0 
z
" id="DejaVuSans-87"/>
     <path d="M 9.421875 54.6875 
L 18.40625 54.6875 
L 18.40625 0 
L 9.421875 0 
z
M 9.421875 75.984375 
L 18.40625 75.984375 
L 18.40625 64.59375 
L 9.421875 64.59375 
z
" id="DejaVuSans-105"/>
     <path d="M 9.421875 75.984375 
L 18.40625 75.984375 
L 18.40625 0 
L 9.421875 0 
z
" id="DejaVuSans-108"/>
     <path d="M 34.28125 27.484375 
Q 23.390625 27.484375 19.1875 25 
Q 14.984375 22.515625 14.984375 16.5 
Q 14.984375 11.71875 18.140625 8.90625 
Q 21.296875 6.109375 26.703125 6.109375 
Q 34.1875 6.109375 38.703125 11.40625 
Q 43.21875 16.703125 43.21875 25.484375 
L 43.21875 27.484375 
z
M 52.203125 31.203125 
L 52.203125 0 
L 43.21875 0 
L 43.21875 8.296875 
Q 40.140625 3.328125 35.546875 0.953125 
Q 30.953125 -1.421875 24.3125 -1.421875 
Q 15.921875 -1.421875 10.953125 3.296875 
Q 6 8.015625 6 15.921875 
Q 6 25.140625 12.171875 29.828125 
Q 18.359375 34.515625 30.609375 34.515625 
L 43.21875 34.515625 
L 43.21875 35.40625 
Q 43.21875 41.609375 39.140625 45 
Q 35.0625 48.390625 27.6875 48.390625 
Q 23 48.390625 18.546875 47.265625 
Q 14.109375 46.140625 10.015625 43.890625 
L 10.015625 52.203125 
Q 14.9375 54.109375 19.578125 55.046875 
Q 24.21875 56 28.609375 56 
Q 40.484375 56 46.34375 49.84375 
Q 52.203125 43.703125 52.203125 31.203125 
z
" id="DejaVuSans-97"/>
     <path d="M 52 44.1875 
Q 55.375 50.25 60.0625 53.125 
Q 64.75 56 71.09375 56 
Q 79.640625 56 84.28125 50.015625 
Q 88.921875 44.046875 88.921875 33.015625 
L 88.921875 0 
L 79.890625 0 
L 79.890625 32.71875 
Q 79.890625 40.578125 77.09375 44.375 
Q 74.3125 48.1875 68.609375 48.1875 
Q 61.625 48.1875 57.5625 43.546875 
Q 53.515625 38.921875 53.515625 30.90625 
L 53.515625 0 
L 44.484375 0 
L 44.484375 32.71875 
Q 44.484375 40.625 41.703125 44.40625 
Q 38.921875 48.1875 33.109375 48.1875 
Q 26.21875 48.1875 22.15625 43.53125 
Q 18.109375 38.875 18.109375 30.90625 
L 18.109375 0 
L 9.078125 0 
L 9.078125 54.6875 
L 18.109375 54.6875 
L 18.109375 46.1875 
Q 21.1875 51.21875 25.484375 53.609375 
Q 29.78125 56 35.6875 56 
Q 41.65625 56 45.828125 52.96875 
Q 50 49.953125 52 44.1875 
z
" id="DejaVuSans-109"/>
     <path id="DejaVuSans-32"/>
     <path d="M 72.703125 32.078125 
Q 68.453125 32.078125 66.03125 28.46875 
Q 63.625 24.859375 63.625 18.40625 
Q 63.625 12.0625 66.03125 8.421875 
Q 68.453125 4.78125 72.703125 4.78125 
Q 76.859375 4.78125 79.265625 8.421875 
Q 81.6875 12.0625 81.6875 18.40625 
Q 81.6875 24.8125 79.265625 28.4375 
Q 76.859375 32.078125 72.703125 32.078125 
z
M 72.703125 38.28125 
Q 80.421875 38.28125 84.953125 32.90625 
Q 89.5 27.546875 89.5 18.40625 
Q 89.5 9.28125 84.9375 3.921875 
Q 80.375 -1.421875 72.703125 -1.421875 
Q 64.890625 -1.421875 60.34375 3.921875 
Q 55.8125 9.28125 55.8125 18.40625 
Q 55.8125 27.59375 60.375 32.9375 
Q 64.9375 38.28125 72.703125 38.28125 
z
M 22.3125 68.015625 
Q 18.109375 68.015625 15.6875 64.375 
Q 13.28125 60.75 13.28125 54.390625 
Q 13.28125 47.953125 15.671875 44.328125 
Q 18.0625 40.71875 22.3125 40.71875 
Q 26.5625 40.71875 28.96875 44.328125 
Q 31.390625 47.953125 31.390625 54.390625 
Q 31.390625 60.6875 28.953125 64.34375 
Q 26.515625 68.015625 22.3125 68.015625 
z
M 66.40625 74.21875 
L 74.21875 74.21875 
L 28.609375 -1.421875 
L 20.796875 -1.421875 
z
M 22.3125 74.21875 
Q 30.03125 74.21875 34.609375 68.875 
Q 39.203125 63.53125 39.203125 54.390625 
Q 39.203125 45.171875 34.640625 39.84375 
Q 30.078125 34.515625 22.3125 34.515625 
Q 14.546875 34.515625 10.03125 39.859375 
Q 5.515625 45.21875 5.515625 54.390625 
Q 5.515625 63.484375 10.046875 68.84375 
Q 14.59375 74.21875 22.3125 74.21875 
z
" id="DejaVuSans-37"/>
     <path d="M 44.390625 34.1875 
Q 47.5625 33.109375 50.5625 29.59375 
Q 53.5625 26.078125 56.59375 19.921875 
L 66.609375 0 
L 56 0 
L 46.6875 18.703125 
Q 43.0625 26.03125 39.671875 28.421875 
Q 36.28125 30.8125 30.421875 30.8125 
L 19.671875 30.8125 
L 19.671875 0 
L 9.8125 0 
L 9.8125 72.90625 
L 32.078125 72.90625 
Q 44.578125 72.90625 50.734375 67.671875 
Q 56.890625 62.453125 56.890625 51.90625 
Q 56.890625 45.015625 53.6875 40.46875 
Q 50.484375 35.9375 44.390625 34.1875 
z
M 19.671875 64.796875 
L 19.671875 38.921875 
L 32.078125 38.921875 
Q 39.203125 38.921875 42.84375 42.21875 
Q 46.484375 45.515625 46.484375 51.90625 
Q 46.484375 58.296875 42.84375 61.546875 
Q 39.203125 64.796875 32.078125 64.796875 
z
" id="DejaVuSans-82"/>
     <path d="M 53.515625 70.515625 
L 53.515625 60.890625 
Q 47.90625 63.578125 42.921875 64.890625 
Q 37.9375 66.21875 33.296875 66.21875 
Q 25.25 66.21875 20.875 63.09375 
Q 16.5 59.96875 16.5 54.203125 
Q 16.5 49.359375 19.40625 46.890625 
Q 22.3125 44.4375 30.421875 42.921875 
L 36.375 41.703125 
Q 47.40625 39.59375 52.65625 34.296875 
Q 57.90625 29 57.90625 20.125 
Q 57.90625 9.515625 50.796875 4.046875 
Q 43.703125 -1.421875 29.984375 -1.421875 
Q 24.8125 -1.421875 18.96875 -0.25 
Q 13.140625 0.921875 6.890625 3.21875 
L 6.890625 13.375 
Q 12.890625 10.015625 18.65625 8.296875 
Q 24.421875 6.59375 29.984375 6.59375 
Q 38.421875 6.59375 43.015625 9.90625 
Q 47.609375 13.234375 47.609375 19.390625 
Q 47.609375 24.75 44.3125 27.78125 
Q 41.015625 30.8125 33.5 32.328125 
L 27.484375 33.5 
Q 16.453125 35.6875 11.515625 40.375 
Q 6.59375 45.0625 6.59375 53.421875 
Q 6.59375 63.09375 13.40625 68.65625 
Q 20.21875 74.21875 32.171875 74.21875 
Q 37.3125 74.21875 42.625 73.28125 
Q 47.953125 72.359375 53.515625 70.515625 
z
" id="DejaVuSans-83"/>
    </defs>
    <g transform="translate(672.781875 80.4)scale(0.12 -0.12)">
     <use xlink:href="#DejaVuSans-87"/>
     <use x="96.626953" xlink:href="#DejaVuSans-105"/>
     <use x="124.410156" xlink:href="#DejaVuSans-108"/>
     <use x="152.193359" xlink:href="#DejaVuSans-108"/>
     <use x="179.976562" xlink:href="#DejaVuSans-105"/>
     <use x="207.759766" xlink:href="#DejaVuSans-97"/>
     <use x="269.039062" xlink:href="#DejaVuSans-109"/>
     <use x="366.451172" xlink:href="#DejaVuSans-115"/>
     <use x="418.550781" xlink:href="#DejaVuSans-32"/>
     <use x="450.337891" xlink:href="#DejaVuSans-37"/>
     <use x="545.357422" xlink:href="#DejaVuSans-82"/>
     <use x="614.839844" xlink:href="#DejaVuSans-32"/>
     <use x="646.626953" xlink:href="#DejaVuSans-83"/>
     <use x="710.103516" xlink:href="#DejaVuSans-112"/>
     <use x="773.580078" xlink:href="#DejaVuSans-101"/>
     <use x="835.103516" xlink:href="#DejaVuSans-101"/>
     <use x="896.626953" xlink:href="#DejaVuSans-100"/>
     <use x="960.103516" xlink:href="#DejaVuSans-117"/>
     <use x="1023.482422" xlink:href="#DejaVuSans-112"/>
    </g>
   </g>
   <g id="legend_1">
    <g id="patch_7">
     <path d="M 1185.373437 123.75625 
L 1289 123.75625 
Q 1291 123.75625 1291 121.75625 
L 1291 93.4 
Q 1291 91.4 1289 91.4 
L 1185.373437 91.4 
Q 1183.373437 91.4 1183.373437 93.4 
L 1183.373437 121.75625 
Q 1183.373437 123.75625 1185.373437 123.75625 
z
" style="fill:#ffffff;opacity:0.8;stroke:#cccccc;stroke-linejoin:miter;"/>
    </g>
    <g id="line2d_19">
     <path d="M 1187.373437 99.498437 
L 1207.373437 99.498437 
" style="fill:none;stroke:#1f77b4;stroke-linecap:square;stroke-width:1.5;"/>
    </g>
    <g id="line2d_20"/>
    <g id="text_20">
     <!-- numpy.float32 -->
     <defs>
      <path d="M 32.171875 -5.078125 
Q 28.375 -14.84375 24.75 -17.8125 
Q 21.140625 -20.796875 15.09375 -20.796875 
L 7.90625 -20.796875 
L 7.90625 -13.28125 
L 13.1875 -13.28125 
Q 16.890625 -13.28125 18.9375 -11.515625 
Q 21 -9.765625 23.484375 -3.21875 
L 25.09375 0.875 
L 2.984375 54.6875 
L 12.5 54.6875 
L 29.59375 11.921875 
L 46.6875 54.6875 
L 56.203125 54.6875 
z
" id="DejaVuSans-121"/>
      <path d="M 37.109375 75.984375 
L 37.109375 68.5 
L 28.515625 68.5 
Q 23.6875 68.5 21.796875 66.546875 
Q 19.921875 64.59375 19.921875 59.515625 
L 19.921875 54.6875 
L 34.71875 54.6875 
L 34.71875 47.703125 
L 19.921875 47.703125 
L 19.921875 0 
L 10.890625 0 
L 10.890625 47.703125 
L 2.296875 47.703125 
L 2.296875 54.6875 
L 10.890625 54.6875 
L 10.890625 58.5 
Q 10.890625 67.625 15.140625 71.796875 
Q 19.390625 75.984375 28.609375 75.984375 
z
" id="DejaVuSans-102"/>
      <path d="M 30.609375 48.390625 
Q 23.390625 48.390625 19.1875 42.75 
Q 14.984375 37.109375 14.984375 27.296875 
Q 14.984375 17.484375 19.15625 11.84375 
Q 23.34375 6.203125 30.609375 6.203125 
Q 37.796875 6.203125 41.984375 11.859375 
Q 46.1875 17.53125 46.1875 27.296875 
Q 46.1875 37.015625 41.984375 42.703125 
Q 37.796875 48.390625 30.609375 48.390625 
z
M 30.609375 56 
Q 42.328125 56 49.015625 48.375 
Q 55.71875 40.765625 55.71875 27.296875 
Q 55.71875 13.875 49.015625 6.21875 
Q 42.328125 -1.421875 30.609375 -1.421875 
Q 18.84375 -1.421875 12.171875 6.21875 
Q 5.515625 13.875 5.515625 27.296875 
Q 5.515625 40.765625 12.171875 48.375 
Q 18.84375 56 30.609375 56 
z
" id="DejaVuSans-111"/>
      <path d="M 18.3125 70.21875 
L 18.3125 54.6875 
L 36.8125 54.6875 
L 36.8125 47.703125 
L 18.3125 47.703125 
L 18.3125 18.015625 
Q 18.3125 11.328125 20.140625 9.421875 
Q 21.96875 7.515625 27.59375 7.515625 
L 36.8125 7.515625 
L 36.8125 0 
L 27.59375 0 
Q 17.1875 0 13.234375 3.875 
Q 9.28125 7.765625 9.28125 18.015625 
L 9.28125 47.703125 
L 2.6875 47.703125 
L 2.6875 54.6875 
L 9.28125 54.6875 
L 9.28125 70.21875 
z
" id="DejaVuSans-116"/>
     </defs>
     <g transform="translate(1215.373437 102.998437)scale(0.1 -0.1)">
      <use xlink:href="#DejaVuSans-110"/>
      <use x="63.378906" xlink:href="#DejaVuSans-117"/>
      <use x="126.757812" xlink:href="#DejaVuSans-109"/>
      <use x="224.169922" xlink:href="#DejaVuSans-112"/>
      <use x="287.646484" xlink:href="#DejaVuSans-121"/>
      <use x="332.576172" xlink:href="#DejaVuSans-46"/>
      <use x="364.363281" xlink:href="#DejaVuSans-102"/>
      <use x="399.568359" xlink:href="#DejaVuSans-108"/>
      <use x="427.351562" xlink:href="#DejaVuSans-111"/>
      <use x="488.533203" xlink:href="#DejaVuSans-97"/>
      <use x="549.8125" xlink:href="#DejaVuSans-116"/>
      <use x="589.021484" xlink:href="#DejaVuSans-51"/>
      <use x="652.644531" xlink:href="#DejaVuSans-50"/>
     </g>
    </g>
    <g id="line2d_21">
     <path d="M 1187.373437 114.176562 
L 1207.373437 114.176562 
" style="fill:none;stroke:#ff7f0e;stroke-linecap:square;stroke-width:1.5;"/>
    </g>
    <g id="line2d_22"/>
    <g id="text_21">
     <!-- numpy.float64 -->
     <g transform="translate(1215.373437 117.676562)scale(0.1 -0.1)">
      <use xlink:href="#DejaVuSans-110"/>
      <use x="63.378906" xlink:href="#DejaVuSans-117"/>
      <use x="126.757812" xlink:href="#DejaVuSans-109"/>
      <use x="224.169922" xlink:href="#DejaVuSans-112"/>
      <use x="287.646484" xlink:href="#DejaVuSans-121"/>
      <use x="332.576172" xlink:href="#DejaVuSans-46"/>
      <use x="364.363281" xlink:href="#DejaVuSans-102"/>
      <use x="399.568359" xlink:href="#DejaVuSans-108"/>
      <use x="427.351562" xlink:href="#DejaVuSans-111"/>
      <use x="488.533203" xlink:href="#DejaVuSans-97"/>
      <use x="549.8125" xlink:href="#DejaVuSans-116"/>
      <use x="589.021484" xlink:href="#DejaVuSans-54"/>
      <use x="652.644531" xlink:href="#DejaVuSans-52"/>
     </g>
    </g>
   </g>
  </g>
 </g>
 <defs>
  <clipPath id="pfc328ade43">
   <rect height="554.4" width="1116" x="180" y="86.4"/>
  </clipPath>
 </defs>
</svg>
