<?xml version="1.0" encoding="utf-8" standalone="no"?>
<!DOCTYPE svg PUBLIC "-//W3C//DTD SVG 1.1//EN"
  "http://www.w3.org/Graphics/SVG/1.1/DTD/svg11.dtd">
<!-- Created with matplotlib (https://matplotlib.org/) -->
<svg height="345.6pt" version="1.1" viewBox="0 0 460.8 345.6" width="460.8pt" xmlns="http://www.w3.org/2000/svg" xmlns:xlink="http://www.w3.org/1999/xlink">
 <defs>
  <style type="text/css">
*{stroke-linecap:butt;stroke-linejoin:round;}
  </style>
 </defs>
 <g id="figure_1">
  <g id="patch_1">
   <path d="M 0 345.6 
L 460.8 345.6 
L 460.8 0 
L 0 0 
z
" style="fill:#ffffff;"/>
  </g>
  <g id="axes_1">
   <g id="patch_2">
    <path d="M 57.6 307.584 
L 414.72 307.584 
L 414.72 41.472 
L 57.6 41.472 
z
" style="fill:#ffffff;"/>
   </g>
   <g id="matplotlib.axis_1">
    <g id="xtick_1">
     <g id="line2d_1">
      <defs>
       <path d="M 0 0 
L 0 3.5 
" id="maa14326809" style="stroke:#000000;stroke-width:0.8;"/>
      </defs>
      <g>
       <use style="stroke:#000000;stroke-width:0.8;" x="106.659274" xlink:href="#maa14326809" y="307.584"/>
      </g>
     </g>
     <g id="text_1">
      <!-- 100.0 -->
      <defs>
       <path d="M 12.40625 8.296875 
L 28.515625 8.296875 
L 28.515625 63.921875 
L 10.984375 60.40625 
L 10.984375 69.390625 
L 28.421875 72.90625 
L 38.28125 72.90625 
L 38.28125 8.296875 
L 54.390625 8.296875 
L 54.390625 0 
L 12.40625 0 
z
" id="DejaVuSans-49"/>
       <path d="M 31.78125 66.40625 
Q 24.171875 66.40625 20.328125 58.90625 
Q 16.5 51.421875 16.5 36.375 
Q 16.5 21.390625 20.328125 13.890625 
Q 24.171875 6.390625 31.78125 6.390625 
Q 39.453125 6.390625 43.28125 13.890625 
Q 47.125 21.390625 47.125 36.375 
Q 47.125 51.421875 43.28125 58.90625 
Q 39.453125 66.40625 31.78125 66.40625 
z
M 31.78125 74.21875 
Q 44.046875 74.21875 50.515625 64.515625 
Q 56.984375 54.828125 56.984375 36.375 
Q 56.984375 17.96875 50.515625 8.265625 
Q 44.046875 -1.421875 31.78125 -1.421875 
Q 19.53125 -1.421875 13.0625 8.265625 
Q 6.59375 17.96875 6.59375 36.375 
Q 6.59375 54.828125 13.0625 64.515625 
Q 19.53125 74.21875 31.78125 74.21875 
z
" id="DejaVuSans-48"/>
       <path d="M 10.6875 12.40625 
L 21 12.40625 
L 21 0 
L 10.6875 0 
z
" id="DejaVuSans-46"/>
      </defs>
      <g transform="translate(92.345211 322.182437)scale(0.1 -0.1)">
       <use xlink:href="#DejaVuSans-49"/>
       <use x="63.623047" xlink:href="#DejaVuSans-48"/>
       <use x="127.246094" xlink:href="#DejaVuSans-48"/>
       <use x="190.869141" xlink:href="#DejaVuSans-46"/>
       <use x="222.65625" xlink:href="#DejaVuSans-48"/>
      </g>
     </g>
    </g>
    <g id="xtick_2">
     <g id="line2d_2">
      <g>
       <use style="stroke:#000000;stroke-width:0.8;" x="139.48582" xlink:href="#maa14326809" y="307.584"/>
      </g>
     </g>
     <g id="text_2">
      <!-- 200.0 -->
      <defs>
       <path d="M 19.1875 8.296875 
L 53.609375 8.296875 
L 53.609375 0 
L 7.328125 0 
L 7.328125 8.296875 
Q 12.9375 14.109375 22.625 23.890625 
Q 32.328125 33.6875 34.8125 36.53125 
Q 39.546875 41.84375 41.421875 45.53125 
Q 43.3125 49.21875 43.3125 52.78125 
Q 43.3125 58.59375 39.234375 62.25 
Q 35.15625 65.921875 28.609375 65.921875 
Q 23.96875 65.921875 18.8125 64.3125 
Q 13.671875 62.703125 7.8125 59.421875 
L 7.8125 69.390625 
Q 13.765625 71.78125 18.9375 73 
Q 24.125 74.21875 28.421875 74.21875 
Q 39.75 74.21875 46.484375 68.546875 
Q 53.21875 62.890625 53.21875 53.421875 
Q 53.21875 48.921875 51.53125 44.890625 
Q 49.859375 40.875 45.40625 35.40625 
Q 44.1875 33.984375 37.640625 27.21875 
Q 31.109375 20.453125 19.1875 8.296875 
z
" id="DejaVuSans-50"/>
      </defs>
      <g transform="translate(125.171758 322.182437)scale(0.1 -0.1)">
       <use xlink:href="#DejaVuSans-50"/>
       <use x="63.623047" xlink:href="#DejaVuSans-48"/>
       <use x="127.246094" xlink:href="#DejaVuSans-48"/>
       <use x="190.869141" xlink:href="#DejaVuSans-46"/>
       <use x="222.65625" xlink:href="#DejaVuSans-48"/>
      </g>
     </g>
    </g>
    <g id="xtick_3">
     <g id="line2d_3">
      <g>
       <use style="stroke:#000000;stroke-width:0.8;" x="172.312367" xlink:href="#maa14326809" y="307.584"/>
      </g>
     </g>
     <g id="text_3">
      <!-- 300.0 -->
      <defs>
       <path d="M 40.578125 39.3125 
Q 47.65625 37.796875 51.625 33 
Q 55.609375 28.21875 55.609375 21.1875 
Q 55.609375 10.40625 48.1875 4.484375 
Q 40.765625 -1.421875 27.09375 -1.421875 
Q 22.515625 -1.421875 17.65625 -0.515625 
Q 12.796875 0.390625 7.625 2.203125 
L 7.625 11.71875 
Q 11.71875 9.328125 16.59375 8.109375 
Q 21.484375 6.890625 26.8125 6.890625 
Q 36.078125 6.890625 40.9375 10.546875 
Q 45.796875 14.203125 45.796875 21.1875 
Q 45.796875 27.640625 41.28125 31.265625 
Q 36.765625 34.90625 28.71875 34.90625 
L 20.21875 34.90625 
L 20.21875 43.015625 
L 29.109375 43.015625 
Q 36.375 43.015625 40.234375 45.921875 
Q 44.09375 48.828125 44.09375 54.296875 
Q 44.09375 59.90625 40.109375 62.90625 
Q 36.140625 65.921875 28.71875 65.921875 
Q 24.65625 65.921875 20.015625 65.03125 
Q 15.375 64.15625 9.8125 62.3125 
L 9.8125 71.09375 
Q 15.4375 72.65625 20.34375 73.4375 
Q 25.25 74.21875 29.59375 74.21875 
Q 40.828125 74.21875 47.359375 69.109375 
Q 53.90625 64.015625 53.90625 55.328125 
Q 53.90625 49.265625 50.4375 45.09375 
Q 46.96875 40.921875 40.578125 39.3125 
z
" id="DejaVuSans-51"/>
      </defs>
      <g transform="translate(157.998304 322.182437)scale(0.1 -0.1)">
       <use xlink:href="#DejaVuSans-51"/>
       <use x="63.623047" xlink:href="#DejaVuSans-48"/>
       <use x="127.246094" xlink:href="#DejaVuSans-48"/>
       <use x="190.869141" xlink:href="#DejaVuSans-46"/>
       <use x="222.65625" xlink:href="#DejaVuSans-48"/>
      </g>
     </g>
    </g>
    <g id="xtick_4">
     <g id="line2d_4">
      <g>
       <use style="stroke:#000000;stroke-width:0.8;" x="205.138914" xlink:href="#maa14326809" y="307.584"/>
      </g>
     </g>
     <g id="text_4">
      <!-- 400.0 -->
      <defs>
       <path d="M 37.796875 64.3125 
L 12.890625 25.390625 
L 37.796875 25.390625 
z
M 35.203125 72.90625 
L 47.609375 72.90625 
L 47.609375 25.390625 
L 58.015625 25.390625 
L 58.015625 17.1875 
L 47.609375 17.1875 
L 47.609375 0 
L 37.796875 0 
L 37.796875 17.1875 
L 4.890625 17.1875 
L 4.890625 26.703125 
z
" id="DejaVuSans-52"/>
      </defs>
      <g transform="translate(190.824851 322.182437)scale(0.1 -0.1)">
       <use xlink:href="#DejaVuSans-52"/>
       <use x="63.623047" xlink:href="#DejaVuSans-48"/>
       <use x="127.246094" xlink:href="#DejaVuSans-48"/>
       <use x="190.869141" xlink:href="#DejaVuSans-46"/>
       <use x="222.65625" xlink:href="#DejaVuSans-48"/>
      </g>
     </g>
    </g>
    <g id="xtick_5">
     <g id="line2d_5">
      <g>
       <use style="stroke:#000000;stroke-width:0.8;" x="237.96546" xlink:href="#maa14326809" y="307.584"/>
      </g>
     </g>
     <g id="text_5">
      <!-- 500.0 -->
      <defs>
       <path d="M 10.796875 72.90625 
L 49.515625 72.90625 
L 49.515625 64.59375 
L 19.828125 64.59375 
L 19.828125 46.734375 
Q 21.96875 47.46875 24.109375 47.828125 
Q 26.265625 48.1875 28.421875 48.1875 
Q 40.625 48.1875 47.75 41.5 
Q 54.890625 34.8125 54.890625 23.390625 
Q 54.890625 11.625 47.5625 5.09375 
Q 40.234375 -1.421875 26.90625 -1.421875 
Q 22.3125 -1.421875 17.546875 -0.640625 
Q 12.796875 0.140625 7.71875 1.703125 
L 7.71875 11.625 
Q 12.109375 9.234375 16.796875 8.0625 
Q 21.484375 6.890625 26.703125 6.890625 
Q 35.15625 6.890625 40.078125 11.328125 
Q 45.015625 15.765625 45.015625 23.390625 
Q 45.015625 31 40.078125 35.4375 
Q 35.15625 39.890625 26.703125 39.890625 
Q 22.75 39.890625 18.8125 39.015625 
Q 14.890625 38.140625 10.796875 36.28125 
z
" id="DejaVuSans-53"/>
      </defs>
      <g transform="translate(223.651398 322.182437)scale(0.1 -0.1)">
       <use xlink:href="#DejaVuSans-53"/>
       <use x="63.623047" xlink:href="#DejaVuSans-48"/>
       <use x="127.246094" xlink:href="#DejaVuSans-48"/>
       <use x="190.869141" xlink:href="#DejaVuSans-46"/>
       <use x="222.65625" xlink:href="#DejaVuSans-48"/>
      </g>
     </g>
    </g>
    <g id="xtick_6">
     <g id="line2d_6">
      <g>
       <use style="stroke:#000000;stroke-width:0.8;" x="270.792007" xlink:href="#maa14326809" y="307.584"/>
      </g>
     </g>
     <g id="text_6">
      <!-- 600.0 -->
      <defs>
       <path d="M 33.015625 40.375 
Q 26.375 40.375 22.484375 35.828125 
Q 18.609375 31.296875 18.609375 23.390625 
Q 18.609375 15.53125 22.484375 10.953125 
Q 26.375 6.390625 33.015625 6.390625 
Q 39.65625 6.390625 43.53125 10.953125 
Q 47.40625 15.53125 47.40625 23.390625 
Q 47.40625 31.296875 43.53125 35.828125 
Q 39.65625 40.375 33.015625 40.375 
z
M 52.59375 71.296875 
L 52.59375 62.3125 
Q 48.875 64.0625 45.09375 64.984375 
Q 41.3125 65.921875 37.59375 65.921875 
Q 27.828125 65.921875 22.671875 59.328125 
Q 17.53125 52.734375 16.796875 39.40625 
Q 19.671875 43.65625 24.015625 45.921875 
Q 28.375 48.1875 33.59375 48.1875 
Q 44.578125 48.1875 50.953125 41.515625 
Q 57.328125 34.859375 57.328125 23.390625 
Q 57.328125 12.15625 50.6875 5.359375 
Q 44.046875 -1.421875 33.015625 -1.421875 
Q 20.359375 -1.421875 13.671875 8.265625 
Q 6.984375 17.96875 6.984375 36.375 
Q 6.984375 53.65625 15.1875 63.9375 
Q 23.390625 74.21875 37.203125 74.21875 
Q 40.921875 74.21875 44.703125 73.484375 
Q 48.484375 72.75 52.59375 71.296875 
z
" id="DejaVuSans-54"/>
      </defs>
      <g transform="translate(256.477944 322.182437)scale(0.1 -0.1)">
       <use xlink:href="#DejaVuSans-54"/>
       <use x="63.623047" xlink:href="#DejaVuSans-48"/>
       <use x="127.246094" xlink:href="#DejaVuSans-48"/>
       <use x="190.869141" xlink:href="#DejaVuSans-46"/>
       <use x="222.65625" xlink:href="#DejaVuSans-48"/>
      </g>
     </g>
    </g>
    <g id="xtick_7">
     <g id="line2d_7">
      <g>
       <use style="stroke:#000000;stroke-width:0.8;" x="303.618553" xlink:href="#maa14326809" y="307.584"/>
      </g>
     </g>
     <g id="text_7">
      <!-- 700.0 -->
      <defs>
       <path d="M 8.203125 72.90625 
L 55.078125 72.90625 
L 55.078125 68.703125 
L 28.609375 0 
L 18.3125 0 
L 43.21875 64.59375 
L 8.203125 64.59375 
z
" id="DejaVuSans-55"/>
      </defs>
      <g transform="translate(289.304491 322.182437)scale(0.1 -0.1)">
       <use xlink:href="#DejaVuSans-55"/>
       <use x="63.623047" xlink:href="#DejaVuSans-48"/>
       <use x="127.246094" xlink:href="#DejaVuSans-48"/>
       <use x="190.869141" xlink:href="#DejaVuSans-46"/>
       <use x="222.65625" xlink:href="#DejaVuSans-48"/>
      </g>
     </g>
    </g>
    <g id="xtick_8">
     <g id="line2d_8">
      <g>
       <use style="stroke:#000000;stroke-width:0.8;" x="336.4451" xlink:href="#maa14326809" y="307.584"/>
      </g>
     </g>
     <g id="text_8">
      <!-- 800.0 -->
      <defs>
       <path d="M 31.78125 34.625 
Q 24.75 34.625 20.71875 30.859375 
Q 16.703125 27.09375 16.703125 20.515625 
Q 16.703125 13.921875 20.71875 10.15625 
Q 24.75 6.390625 31.78125 6.390625 
Q 38.8125 6.390625 42.859375 10.171875 
Q 46.921875 13.96875 46.921875 20.515625 
Q 46.921875 27.09375 42.890625 30.859375 
Q 38.875 34.625 31.78125 34.625 
z
M 21.921875 38.8125 
Q 15.578125 40.375 12.03125 44.71875 
Q 8.5 49.078125 8.5 55.328125 
Q 8.5 64.0625 14.71875 69.140625 
Q 20.953125 74.21875 31.78125 74.21875 
Q 42.671875 74.21875 48.875 69.140625 
Q 55.078125 64.0625 55.078125 55.328125 
Q 55.078125 49.078125 51.53125 44.71875 
Q 48 40.375 41.703125 38.8125 
Q 48.828125 37.15625 52.796875 32.3125 
Q 56.78125 27.484375 56.78125 20.515625 
Q 56.78125 9.90625 50.3125 4.234375 
Q 43.84375 -1.421875 31.78125 -1.421875 
Q 19.734375 -1.421875 13.25 4.234375 
Q 6.78125 9.90625 6.78125 20.515625 
Q 6.78125 27.484375 10.78125 32.3125 
Q 14.796875 37.15625 21.921875 38.8125 
z
M 18.3125 54.390625 
Q 18.3125 48.734375 21.84375 45.5625 
Q 25.390625 42.390625 31.78125 42.390625 
Q 38.140625 42.390625 41.71875 45.5625 
Q 45.3125 48.734375 45.3125 54.390625 
Q 45.3125 60.0625 41.71875 63.234375 
Q 38.140625 66.40625 31.78125 66.40625 
Q 25.390625 66.40625 21.84375 63.234375 
Q 18.3125 60.0625 18.3125 54.390625 
z
" id="DejaVuSans-56"/>
      </defs>
      <g transform="translate(322.131037 322.182437)scale(0.1 -0.1)">
       <use xlink:href="#DejaVuSans-56"/>
       <use x="63.623047" xlink:href="#DejaVuSans-48"/>
       <use x="127.246094" xlink:href="#DejaVuSans-48"/>
       <use x="190.869141" xlink:href="#DejaVuSans-46"/>
       <use x="222.65625" xlink:href="#DejaVuSans-48"/>
      </g>
     </g>
    </g>
    <g id="xtick_9">
     <g id="line2d_9">
      <g>
       <use style="stroke:#000000;stroke-width:0.8;" x="369.271646" xlink:href="#maa14326809" y="307.584"/>
      </g>
     </g>
     <g id="text_9">
      <!-- 900.0 -->
      <defs>
       <path d="M 10.984375 1.515625 
L 10.984375 10.5 
Q 14.703125 8.734375 18.5 7.8125 
Q 22.3125 6.890625 25.984375 6.890625 
Q 35.75 6.890625 40.890625 13.453125 
Q 46.046875 20.015625 46.78125 33.40625 
Q 43.953125 29.203125 39.59375 26.953125 
Q 35.25 24.703125 29.984375 24.703125 
Q 19.046875 24.703125 12.671875 31.3125 
Q 6.296875 37.9375 6.296875 49.421875 
Q 6.296875 60.640625 12.9375 67.421875 
Q 19.578125 74.21875 30.609375 74.21875 
Q 43.265625 74.21875 49.921875 64.515625 
Q 56.59375 54.828125 56.59375 36.375 
Q 56.59375 19.140625 48.40625 8.859375 
Q 40.234375 -1.421875 26.421875 -1.421875 
Q 22.703125 -1.421875 18.890625 -0.6875 
Q 15.09375 0.046875 10.984375 1.515625 
z
M 30.609375 32.421875 
Q 37.25 32.421875 41.125 36.953125 
Q 45.015625 41.5 45.015625 49.421875 
Q 45.015625 57.28125 41.125 61.84375 
Q 37.25 66.40625 30.609375 66.40625 
Q 23.96875 66.40625 20.09375 61.84375 
Q 16.21875 57.28125 16.21875 49.421875 
Q 16.21875 41.5 20.09375 36.953125 
Q 23.96875 32.421875 30.609375 32.421875 
z
" id="DejaVuSans-57"/>
      </defs>
      <g transform="translate(354.957584 322.182437)scale(0.1 -0.1)">
       <use xlink:href="#DejaVuSans-57"/>
       <use x="63.623047" xlink:href="#DejaVuSans-48"/>
       <use x="127.246094" xlink:href="#DejaVuSans-48"/>
       <use x="190.869141" xlink:href="#DejaVuSans-46"/>
       <use x="222.65625" xlink:href="#DejaVuSans-48"/>
      </g>
     </g>
    </g>
    <g id="xtick_10">
     <g id="line2d_10">
      <g>
       <use style="stroke:#000000;stroke-width:0.8;" x="402.098193" xlink:href="#maa14326809" y="307.584"/>
      </g>
     </g>
     <g id="text_10">
      <!-- 1000.0 -->
      <g transform="translate(384.60288 322.182437)scale(0.1 -0.1)">
       <use xlink:href="#DejaVuSans-49"/>
       <use x="63.623047" xlink:href="#DejaVuSans-48"/>
       <use x="127.246094" xlink:href="#DejaVuSans-48"/>
       <use x="190.869141" xlink:href="#DejaVuSans-48"/>
       <use x="254.492188" xlink:href="#DejaVuSans-46"/>
       <use x="286.279297" xlink:href="#DejaVuSans-48"/>
      </g>
     </g>
    </g>
    <g id="text_11">
     <!-- n -->
     <defs>
      <path d="M 54.890625 33.015625 
L 54.890625 0 
L 45.90625 0 
L 45.90625 32.71875 
Q 45.90625 40.484375 42.875 44.328125 
Q 39.84375 48.1875 33.796875 48.1875 
Q 26.515625 48.1875 22.3125 43.546875 
Q 18.109375 38.921875 18.109375 30.90625 
L 18.109375 0 
L 9.078125 0 
L 9.078125 54.6875 
L 18.109375 54.6875 
L 18.109375 46.1875 
Q 21.34375 51.125 25.703125 53.5625 
Q 30.078125 56 35.796875 56 
Q 45.21875 56 50.046875 50.171875 
Q 54.890625 44.34375 54.890625 33.015625 
z
" id="DejaVuSans-110"/>
     </defs>
     <g transform="translate(232.99125 335.860562)scale(0.1 -0.1)">
      <use xlink:href="#DejaVuSans-110"/>
     </g>
    </g>
   </g>
   <g id="matplotlib.axis_2">
    <g id="ytick_1">
     <g id="line2d_11">
      <defs>
       <path d="M 0 0 
L -3.5 0 
" id="m68c0705b8a" style="stroke:#000000;stroke-width:0.8;"/>
      </defs>
      <g>
       <use style="stroke:#000000;stroke-width:0.8;" x="57.6" xlink:href="#m68c0705b8a" y="255.911618"/>
      </g>
     </g>
     <g id="text_12">
      <!-- 50 -->
      <g transform="translate(37.875 259.710836)scale(0.1 -0.1)">
       <use xlink:href="#DejaVuSans-53"/>
       <use x="63.623047" xlink:href="#DejaVuSans-48"/>
      </g>
     </g>
    </g>
    <g id="ytick_2">
     <g id="line2d_12">
      <g>
       <use style="stroke:#000000;stroke-width:0.8;" x="57.6" xlink:href="#m68c0705b8a" y="200.635447"/>
      </g>
     </g>
     <g id="text_13">
      <!-- 100 -->
      <g transform="translate(31.5125 204.434666)scale(0.1 -0.1)">
       <use xlink:href="#DejaVuSans-49"/>
       <use x="63.623047" xlink:href="#DejaVuSans-48"/>
       <use x="127.246094" xlink:href="#DejaVuSans-48"/>
      </g>
     </g>
    </g>
    <g id="ytick_3">
     <g id="line2d_13">
      <g>
       <use style="stroke:#000000;stroke-width:0.8;" x="57.6" xlink:href="#m68c0705b8a" y="145.359277"/>
      </g>
     </g>
     <g id="text_14">
      <!-- 150 -->
      <g transform="translate(31.5125 149.158495)scale(0.1 -0.1)">
       <use xlink:href="#DejaVuSans-49"/>
       <use x="63.623047" xlink:href="#DejaVuSans-53"/>
       <use x="127.246094" xlink:href="#DejaVuSans-48"/>
      </g>
     </g>
    </g>
    <g id="ytick_4">
     <g id="line2d_14">
      <g>
       <use style="stroke:#000000;stroke-width:0.8;" x="57.6" xlink:href="#m68c0705b8a" y="90.083106"/>
      </g>
     </g>
     <g id="text_15">
      <!-- 200 -->
      <g transform="translate(31.5125 93.882325)scale(0.1 -0.1)">
       <use xlink:href="#DejaVuSans-50"/>
       <use x="63.623047" xlink:href="#DejaVuSans-48"/>
       <use x="127.246094" xlink:href="#DejaVuSans-48"/>
      </g>
     </g>
    </g>
    <g id="text_16">
     <!-- speedup -->
     <defs>
      <path d="M 44.28125 53.078125 
L 44.28125 44.578125 
Q 40.484375 46.53125 36.375 47.5 
Q 32.28125 48.484375 27.875 48.484375 
Q 21.1875 48.484375 17.84375 46.4375 
Q 14.5 44.390625 14.5 40.28125 
Q 14.5 37.15625 16.890625 35.375 
Q 19.28125 33.59375 26.515625 31.984375 
L 29.59375 31.296875 
Q 39.15625 29.25 43.1875 25.515625 
Q 47.21875 21.78125 47.21875 15.09375 
Q 47.21875 7.46875 41.1875 3.015625 
Q 35.15625 -1.421875 24.609375 -1.421875 
Q 20.21875 -1.421875 15.453125 -0.5625 
Q 10.6875 0.296875 5.421875 2 
L 5.421875 11.28125 
Q 10.40625 8.6875 15.234375 7.390625 
Q 20.0625 6.109375 24.8125 6.109375 
Q 31.15625 6.109375 34.5625 8.28125 
Q 37.984375 10.453125 37.984375 14.40625 
Q 37.984375 18.0625 35.515625 20.015625 
Q 33.0625 21.96875 24.703125 23.78125 
L 21.578125 24.515625 
Q 13.234375 26.265625 9.515625 29.90625 
Q 5.8125 33.546875 5.8125 39.890625 
Q 5.8125 47.609375 11.28125 51.796875 
Q 16.75 56 26.8125 56 
Q 31.78125 56 36.171875 55.265625 
Q 40.578125 54.546875 44.28125 53.078125 
z
" id="DejaVuSans-115"/>
      <path d="M 18.109375 8.203125 
L 18.109375 -20.796875 
L 9.078125 -20.796875 
L 9.078125 54.6875 
L 18.109375 54.6875 
L 18.109375 46.390625 
Q 20.953125 51.265625 25.265625 53.625 
Q 29.59375 56 35.59375 56 
Q 45.5625 56 51.78125 48.09375 
Q 58.015625 40.1875 58.015625 27.296875 
Q 58.015625 14.40625 51.78125 6.484375 
Q 45.5625 -1.421875 35.59375 -1.421875 
Q 29.59375 -1.421875 25.265625 0.953125 
Q 20.953125 3.328125 18.109375 8.203125 
z
M 48.6875 27.296875 
Q 48.6875 37.203125 44.609375 42.84375 
Q 40.53125 48.484375 33.40625 48.484375 
Q 26.265625 48.484375 22.1875 42.84375 
Q 18.109375 37.203125 18.109375 27.296875 
Q 18.109375 17.390625 22.1875 11.75 
Q 26.265625 6.109375 33.40625 6.109375 
Q 40.53125 6.109375 44.609375 11.75 
Q 48.6875 17.390625 48.6875 27.296875 
z
" id="DejaVuSans-112"/>
      <path d="M 56.203125 29.59375 
L 56.203125 25.203125 
L 14.890625 25.203125 
Q 15.484375 15.921875 20.484375 11.0625 
Q 25.484375 6.203125 34.421875 6.203125 
Q 39.59375 6.203125 44.453125 7.46875 
Q 49.3125 8.734375 54.109375 11.28125 
L 54.109375 2.78125 
Q 49.265625 0.734375 44.1875 -0.34375 
Q 39.109375 -1.421875 33.890625 -1.421875 
Q 20.796875 -1.421875 13.15625 6.1875 
Q 5.515625 13.8125 5.515625 26.8125 
Q 5.515625 40.234375 12.765625 48.109375 
Q 20.015625 56 32.328125 56 
Q 43.359375 56 49.78125 48.890625 
Q 56.203125 41.796875 56.203125 29.59375 
z
M 47.21875 32.234375 
Q 47.125 39.59375 43.09375 43.984375 
Q 39.0625 48.390625 32.421875 48.390625 
Q 24.90625 48.390625 20.390625 44.140625 
Q 15.875 39.890625 15.1875 32.171875 
z
" id="DejaVuSans-101"/>
      <path d="M 45.40625 46.390625 
L 45.40625 75.984375 
L 54.390625 75.984375 
L 54.390625 0 
L 45.40625 0 
L 45.40625 8.203125 
Q 42.578125 3.328125 38.25 0.953125 
Q 33.9375 -1.421875 27.875 -1.421875 
Q 17.96875 -1.421875 11.734375 6.484375 
Q 5.515625 14.40625 5.515625 27.296875 
Q 5.515625 40.1875 11.734375 48.09375 
Q 17.96875 56 27.875 56 
Q 33.9375 56 38.25 53.625 
Q 42.578125 51.265625 45.40625 46.390625 
z
M 14.796875 27.296875 
Q 14.796875 17.390625 18.875 11.75 
Q 22.953125 6.109375 30.078125 6.109375 
Q 37.203125 6.109375 41.296875 11.75 
Q 45.40625 17.390625 45.40625 27.296875 
Q 45.40625 37.203125 41.296875 42.84375 
Q 37.203125 48.484375 30.078125 48.484375 
Q 22.953125 48.484375 18.875 42.84375 
Q 14.796875 37.203125 14.796875 27.296875 
z
" id="DejaVuSans-100"/>
      <path d="M 8.5 21.578125 
L 8.5 54.6875 
L 17.484375 54.6875 
L 17.484375 21.921875 
Q 17.484375 14.15625 20.5 10.265625 
Q 23.53125 6.390625 29.59375 6.390625 
Q 36.859375 6.390625 41.078125 11.03125 
Q 45.3125 15.671875 45.3125 23.6875 
L 45.3125 54.6875 
L 54.296875 54.6875 
L 54.296875 0 
L 45.3125 0 
L 45.3125 8.40625 
Q 42.046875 3.421875 37.71875 1 
Q 33.40625 -1.421875 27.6875 -1.421875 
Q 18.265625 -1.421875 13.375 4.4375 
Q 8.5 10.296875 8.5 21.578125 
z
M 31.109375 56 
z
" id="DejaVuSans-117"/>
     </defs>
     <g transform="translate(25.432812 195.977219)rotate(-90)scale(0.1 -0.1)">
      <use xlink:href="#DejaVuSans-115"/>
      <use x="52.099609" xlink:href="#DejaVuSans-112"/>
      <use x="115.576172" xlink:href="#DejaVuSans-101"/>
      <use x="177.099609" xlink:href="#DejaVuSans-101"/>
      <use x="238.623047" xlink:href="#DejaVuSans-100"/>
      <use x="302.099609" xlink:href="#DejaVuSans-117"/>
      <use x="365.478516" xlink:href="#DejaVuSans-112"/>
     </g>
    </g>
   </g>
   <g id="line2d_15">
    <path clip-path="url(#pec563489d2)" d="M 73.832727 79.549622 
L 74.160993 142.319532 
L 74.489258 153.123794 
L 74.817524 53.568 
L 75.145789 86.705432 
L 75.474055 99.537933 
L 75.80232 84.270295 
L 76.130586 97.376502 
L 76.458851 93.825056 
L 77.115382 115.128258 
L 77.443647 123.683148 
L 77.771913 112.291915 
L 78.756709 143.404252 
L 79.084975 126.618916 
L 79.41324 125.526403 
L 79.741506 129.150955 
L 80.069771 125.523321 
L 80.398037 159.804164 
L 80.726302 136.57856 
L 81.054568 145.701872 
L 81.382833 143.828897 
L 81.711098 151.042265 
L 82.039364 147.340746 
L 82.367629 139.716061 
L 82.695895 156.224939 
L 83.02416 155.108255 
L 83.352426 183.437202 
L 83.680691 160.453477 
L 84.008957 163.974695 
L 84.337222 186.174511 
L 84.665488 170.532922 
L 84.993753 163.646172 
L 85.322019 172.905028 
L 85.650284 162.415055 
L 85.978549 178.003662 
L 86.306815 165.687206 
L 86.63508 183.823524 
L 86.963346 182.484304 
L 87.291611 183.311512 
L 87.619877 170.99202 
L 87.948142 175.615122 
L 88.276408 230.135133 
L 88.604673 183.023089 
L 88.932939 189.328648 
L 89.261204 186.944349 
L 89.58947 191.741284 
L 89.917735 191.626148 
L 90.246001 191.00634 
L 90.574266 199.211979 
L 91.230797 188.802886 
L 91.559062 199.981062 
L 91.887328 196.742273 
L 92.215593 192.368394 
L 92.543859 205.884228 
L 92.872124 193.695784 
L 93.20039 191.709962 
L 93.528655 197.324041 
L 93.856921 207.515464 
L 94.185186 195.193135 
L 94.841717 204.830963 
L 95.169983 202.543693 
L 95.498248 208.346808 
L 95.826513 210.596529 
L 96.154779 207.715013 
L 96.483044 208.370021 
L 96.81131 209.32425 
L 97.139575 203.485591 
L 97.467841 210.4808 
L 97.796106 212.125475 
L 98.124372 212.852806 
L 98.452637 216.000638 
L 98.780903 214.608863 
L 99.109168 225.457803 
L 99.437434 210.342615 
L 99.765699 231.147438 
L 100.093965 202.70985 
L 100.42223 186.268944 
L 100.750495 229.042594 
L 101.078761 219.035455 
L 101.407026 219.604643 
L 102.063557 225.061582 
L 102.391823 219.737379 
L 102.720088 230.619006 
L 103.048354 217.949686 
L 103.376619 219.755466 
L 103.704885 225.804291 
L 104.03315 223.995197 
L 104.361416 227.026473 
L 104.689681 220.66485 
L 105.017947 219.963935 
L 105.346212 225.891952 
L 105.674477 224.225539 
L 106.002743 224.481063 
L 106.331008 226.115311 
L 106.659274 225.976717 
L 106.987539 224.787107 
L 107.315805 230.044959 
L 107.64407 222.619616 
L 107.972336 229.400258 
L 108.300601 230.267587 
L 108.628867 228.730261 
L 108.957132 231.169934 
L 109.285398 228.425886 
L 109.613663 233.526169 
L 109.941928 228.74981 
L 110.270194 231.648946 
L 110.598459 230.659149 
L 110.926725 230.85516 
L 111.25499 234.565869 
L 111.583256 231.450599 
L 111.911521 230.358521 
L 112.239787 233.473222 
L 112.568052 232.435622 
L 112.896318 235.220412 
L 113.224583 236.153445 
L 113.552849 238.797112 
L 113.881114 236.821698 
L 114.20938 238.764821 
L 114.537645 236.453253 
L 114.86591 235.410289 
L 115.194176 238.190527 
L 115.522441 235.525578 
L 115.850707 240.572529 
L 116.178972 235.98071 
L 116.507238 248.797663 
L 116.835503 240.377709 
L 117.163769 237.594786 
L 117.492034 237.831731 
L 117.8203 241.246478 
L 118.476831 243.968307 
L 118.805096 244.155546 
L 119.133362 243.134631 
L 119.461627 243.411733 
L 119.789892 228.11519 
L 120.118158 247.768262 
L 120.446423 247.874304 
L 120.774689 247.787199 
L 121.102954 252.501481 
L 121.43122 250.833053 
L 121.759485 247.788641 
L 122.087751 250.844345 
L 122.416016 248.570603 
L 122.744282 244.504989 
L 123.400813 245.024001 
L 123.729078 247.779181 
L 124.385609 247.516072 
L 124.713874 248.292563 
L 125.04214 249.679005 
L 125.370405 249.327748 
L 125.698671 250.31539 
L 126.026936 248.953885 
L 126.355202 249.267457 
L 126.683467 249.07596 
L 127.011733 249.292854 
L 127.339998 251.670848 
L 127.668264 257.151643 
L 127.996529 240.744006 
L 128.324795 253.770835 
L 128.65306 259.248322 
L 128.981325 251.285106 
L 129.309591 252.762282 
L 129.637856 251.728605 
L 129.966122 256.736146 
L 130.294387 253.902519 
L 130.622653 254.554614 
L 130.950918 252.753091 
L 131.279184 252.043026 
L 131.607449 253.107704 
L 131.935715 253.27294 
L 132.26398 254.171741 
L 132.592246 253.757861 
L 133.248777 254.934041 
L 133.577042 241.532014 
L 133.905307 249.270314 
L 134.233573 266.747938 
L 134.561838 255.756946 
L 134.890104 255.155438 
L 135.218369 255.833723 
L 135.546635 255.885564 
L 135.8749 261.46666 
L 136.203166 256.920053 
L 136.531431 256.865205 
L 136.859697 257.664037 
L 137.187962 257.20141 
L 137.516228 257.082632 
L 137.844493 258.209469 
L 138.172759 257.674851 
L 138.501024 258.095819 
L 138.829289 257.386153 
L 139.157555 257.958323 
L 139.814086 259.39996 
L 140.142351 259.124113 
L 140.470617 259.58055 
L 140.798882 258.942943 
L 141.127148 261.20316 
L 141.455413 265.891909 
L 141.783679 259.816044 
L 142.111944 260.700792 
L 142.44021 259.986487 
L 142.768475 260.63876 
L 143.096741 260.899906 
L 143.425006 263.483067 
L 143.753271 261.029394 
L 144.081537 261.64115 
L 144.409802 260.849019 
L 144.738068 259.455711 
L 145.066333 261.923622 
L 145.394599 261.134015 
L 145.722864 262.563293 
L 146.05113 262.283101 
L 146.379395 262.2153 
L 146.707661 262.758524 
L 147.035926 262.412512 
L 147.364192 263.241077 
L 147.692457 262.583329 
L 148.348988 262.849626 
L 148.677253 263.093756 
L 149.005519 264.094106 
L 149.333784 263.760317 
L 149.66205 263.817849 
L 150.318581 265.768182 
L 150.646846 263.959172 
L 150.975112 265.26355 
L 151.631643 265.618783 
L 151.959908 265.484394 
L 152.288174 264.859558 
L 152.616439 265.346614 
L 152.944704 264.492083 
L 153.27297 268.147264 
L 153.601235 265.747915 
L 153.929501 269.347825 
L 154.257766 266.320775 
L 154.914297 266.0203 
L 155.242563 268.077533 
L 155.570828 266.902231 
L 155.899094 266.46363 
L 156.227359 266.794002 
L 156.555625 266.900506 
L 156.88389 268.606432 
L 157.212156 267.027896 
L 157.540421 267.280845 
L 158.196952 266.63121 
L 158.525217 267.873168 
L 158.853483 276.794238 
L 159.181748 267.513798 
L 159.510014 268.661179 
L 159.838279 268.479834 
L 160.166545 267.795289 
L 160.49481 269.736852 
L 160.823076 268.871483 
L 161.151341 268.624467 
L 161.479607 267.884571 
L 161.807872 272.503084 
L 162.136138 269.496064 
L 162.464403 268.700998 
L 162.792668 269.201692 
L 163.120934 269.002769 
L 163.449199 262.506161 
L 163.777465 270.366728 
L 164.10573 262.706988 
L 164.433996 269.04717 
L 165.090527 270.048525 
L 165.418792 269.240622 
L 166.075323 271.001339 
L 166.403589 270.284726 
L 167.060119 270.900306 
L 167.388385 270.619359 
L 167.71665 270.850446 
L 168.044916 270.5911 
L 168.373181 270.949361 
L 168.701447 270.75901 
L 169.029712 271.381297 
L 169.357978 271.492283 
L 169.686243 271.266978 
L 170.014509 271.414694 
L 170.342774 272.14545 
L 170.67104 272.305769 
L 170.999305 271.808256 
L 171.327571 272.003769 
L 171.655836 272.663848 
L 171.984101 273.620613 
L 172.312367 272.246975 
L 172.640632 272.551589 
L 172.968898 272.586759 
L 173.297163 272.143891 
L 173.625429 270.845558 
L 173.953694 273.784817 
L 174.28196 273.548171 
L 174.610225 273.561342 
L 174.938491 273.305495 
L 175.266756 273.728897 
L 175.595022 273.609385 
L 175.923287 272.8744 
L 176.251553 274.062484 
L 176.579818 274.27818 
L 176.908083 274.094387 
L 177.564614 274.062048 
L 177.89288 274.82181 
L 178.221145 278.723419 
L 178.549411 274.095089 
L 178.877676 274.514953 
L 179.205942 274.545509 
L 179.862473 274.922936 
L 180.190738 274.339758 
L 180.519004 274.896742 
L 180.847269 275.188908 
L 181.175535 274.467834 
L 181.5038 276.112992 
L 182.160331 275.061389 
L 182.488596 275.367957 
L 182.816862 275.299029 
L 183.145127 276.454775 
L 183.473393 275.917626 
L 183.801658 274.92989 
L 184.129924 276.068423 
L 184.458189 275.766375 
L 184.786455 277.812583 
L 185.11472 276.042618 
L 185.442986 275.797417 
L 185.771251 276.284407 
L 186.099516 276.413707 
L 186.427782 275.920766 
L 186.756047 277.057232 
L 187.084313 277.205091 
L 187.412578 276.712332 
L 187.740844 276.921786 
L 188.069109 276.122887 
L 188.397375 277.690061 
L 188.72564 277.406782 
L 189.053906 276.753344 
L 189.382171 277.446206 
L 189.710437 276.248834 
L 190.038702 277.752317 
L 190.366968 277.989171 
L 190.695233 277.247306 
L 191.023498 268.20602 
L 191.351764 278.160107 
L 191.680029 277.371809 
L 192.008295 277.96371 
L 192.664826 277.938724 
L 192.993091 278.055465 
L 193.649622 277.524899 
L 193.977888 278.858879 
L 194.306153 277.970418 
L 194.634419 278.749172 
L 194.962684 277.501487 
L 195.29095 278.560179 
L 195.619215 278.536361 
L 195.94748 278.248109 
L 196.275746 278.639925 
L 196.604011 278.82681 
L 196.932277 277.957087 
L 197.260542 279.242771 
L 197.917073 279.099511 
L 198.245339 279.290257 
L 198.573604 278.496573 
L 198.90187 279.936183 
L 199.230135 279.786994 
L 199.558401 278.843542 
L 199.886666 279.498828 
L 200.214932 278.785478 
L 200.543197 278.695723 
L 200.871462 279.999049 
L 201.199728 279.045472 
L 201.527993 279.209818 
L 201.856259 279.682253 
L 202.184524 279.283096 
L 202.51279 280.195225 
L 203.169321 279.411934 
L 203.497586 279.811154 
L 203.825852 279.592249 
L 204.154117 280.486655 
L 204.482383 280.510503 
L 204.810648 279.409511 
L 205.138914 280.547112 
L 205.467179 279.966426 
L 205.795444 280.766252 
L 206.12371 280.704248 
L 206.451975 280.102296 
L 206.780241 280.958984 
L 207.108506 280.591707 
L 207.436772 280.45895 
L 207.765037 281.226232 
L 208.093303 281.375143 
L 208.421568 280.656592 
L 208.749834 280.828128 
L 209.078099 280.598615 
L 209.406365 281.289117 
L 209.73463 282.284256 
L 210.062895 280.9168 
L 210.391161 281.234472 
L 210.719426 279.915878 
L 211.047692 281.137615 
L 211.704223 280.651967 
L 212.032488 281.711738 
L 212.360754 281.465716 
L 212.689019 279.757889 
L 213.017285 281.850339 
L 213.34555 281.416563 
L 213.673816 281.229455 
L 214.002081 281.927041 
L 214.658612 281.803091 
L 214.986877 282.013133 
L 215.315143 281.498697 
L 215.643408 281.726409 
L 215.971674 281.647566 
L 216.299939 282.43819 
L 216.628205 281.978088 
L 216.95647 272.805368 
L 217.284736 280.09692 
L 217.613001 276.423323 
L 217.941267 281.717466 
L 218.269532 282.290767 
L 218.597798 282.487083 
L 218.926063 283.761946 
L 219.582594 282.13631 
L 219.910859 282.73476 
L 220.239125 282.56795 
L 220.56739 281.869515 
L 220.895656 283.143858 
L 221.223921 282.786977 
L 221.552187 282.89117 
L 221.880452 282.822726 
L 222.208718 282.619993 
L 222.536983 283.25849 
L 223.193514 282.764186 
L 223.52178 283.58245 
L 223.850045 282.980428 
L 224.178311 282.664526 
L 224.506576 283.268946 
L 224.834841 283.313186 
L 225.163107 283.95117 
L 225.491372 283.373662 
L 225.819638 283.197732 
L 226.147903 282.170706 
L 226.476169 277.456316 
L 226.804434 285.441101 
L 227.1327 283.390266 
L 227.460965 282.950479 
L 227.789231 283.705738 
L 228.117496 283.799818 
L 228.445762 284.123195 
L 229.102292 283.932679 
L 229.430558 283.268178 
L 230.087089 284.03258 
L 230.415354 277.428641 
L 230.74362 284.796829 
L 231.071885 282.990869 
L 231.400151 283.988389 
L 231.728416 283.857378 
L 232.056682 287.252092 
L 232.384947 284.118994 
L 232.713213 283.747401 
L 233.369744 284.497291 
L 233.698009 284.157875 
L 234.026274 286.763516 
L 234.35454 283.866026 
L 234.682805 284.57238 
L 235.011071 284.593435 
L 235.339336 284.491547 
L 235.995867 285.231998 
L 236.324133 284.825321 
L 236.980664 284.645114 
L 237.308929 284.64759 
L 237.637195 284.817068 
L 237.96546 284.506216 
L 238.950256 285.380983 
L 239.935053 285.081191 
L 240.263318 284.134 
L 240.591584 278.746272 
L 240.919849 283.913068 
L 241.248115 285.16639 
L 241.904646 285.218924 
L 242.232911 285.066445 
L 242.561177 285.638793 
L 242.889442 285.668347 
L 243.217708 285.27454 
L 243.545973 285.878835 
L 243.874238 285.84176 
L 244.202504 285.034082 
L 244.530769 285.745659 
L 244.859035 285.471301 
L 245.515566 285.466698 
L 245.843831 285.925347 
L 246.172097 286.100303 
L 246.500362 286.042293 
L 246.828628 285.608092 
L 247.156893 286.033362 
L 247.485159 285.606528 
L 247.813424 285.985675 
L 248.141689 285.962149 
L 248.469955 285.568785 
L 248.79822 286.118724 
L 249.126486 286.190565 
L 249.454751 285.817428 
L 249.783017 286.607995 
L 250.111282 286.225618 
L 250.439548 286.645282 
L 251.096079 285.803073 
L 251.424344 286.702976 
L 251.75261 286.447817 
L 252.080875 286.360042 
L 252.409141 286.513412 
L 252.737406 286.394963 
L 253.393937 286.680252 
L 253.722202 286.084086 
L 254.050468 287.944423 
L 254.378733 286.703962 
L 254.706999 286.33091 
L 255.035264 286.881365 
L 255.36353 286.857021 
L 255.691795 286.636221 
L 256.020061 286.831025 
L 256.348326 286.795946 
L 256.676592 287.018676 
L 257.004857 287.075048 
L 257.333123 286.698852 
L 257.661388 286.962043 
L 257.989653 286.655453 
L 258.317919 287.134026 
L 258.646184 287.077723 
L 258.97445 287.538813 
L 259.302715 287.163049 
L 259.630981 287.104985 
L 259.959246 286.719618 
L 260.287512 287.40726 
L 260.615777 287.316685 
L 260.944043 286.958786 
L 261.272308 287.331429 
L 261.600574 287.044027 
L 261.928839 287.420756 
L 262.58537 287.006538 
L 262.913635 287.19055 
L 263.570166 290.082231 
L 263.898432 287.395039 
L 264.226697 286.843569 
L 264.554963 287.811244 
L 265.211494 287.077853 
L 265.539759 287.962396 
L 265.868025 287.967723 
L 266.19629 287.418708 
L 266.524556 287.879572 
L 266.852821 289.156548 
L 267.181086 287.883495 
L 267.509352 287.814614 
L 267.837617 287.421919 
L 268.165883 287.927493 
L 268.494148 287.745906 
L 268.822414 287.997288 
L 269.150679 287.876089 
L 269.478945 287.487213 
L 269.80721 287.94464 
L 270.135476 288.082454 
L 270.463741 287.672861 
L 270.792007 288.59258 
L 271.448538 287.884742 
L 271.776803 288.578846 
L 272.105068 287.540335 
L 272.433334 288.515195 
L 272.761599 288.051854 
L 273.089865 288.280049 
L 273.41813 288.246211 
L 273.746396 288.047233 
L 274.074661 288.391767 
L 274.402927 288.28487 
L 274.731192 287.041806 
L 275.059458 288.511399 
L 275.387723 288.447431 
L 275.715989 288.031795 
L 276.044254 288.86559 
L 276.37252 288.466758 
L 276.700785 288.479511 
L 277.02905 288.818618 
L 277.357316 288.342025 
L 277.685581 288.45336 
L 278.013847 288.12979 
L 278.342112 288.478344 
L 278.670378 288.210783 
L 278.998643 289.238239 
L 279.326909 288.597155 
L 279.655174 288.765054 
L 279.98344 288.503055 
L 280.311705 288.742631 
L 280.639971 288.767206 
L 280.968236 288.368538 
L 281.296502 289.0155 
L 281.953032 288.461414 
L 282.281298 288.922678 
L 282.609563 288.785171 
L 282.937829 289.173571 
L 283.266094 288.933104 
L 283.59436 288.219644 
L 283.922625 289.018156 
L 284.250891 288.579193 
L 284.579156 282.192258 
L 284.907422 288.880923 
L 285.235687 288.630648 
L 285.563953 289.192562 
L 285.892218 289.092168 
L 286.220484 288.765264 
L 286.548749 289.504715 
L 287.20528 289.081231 
L 287.533545 289.256 
L 287.861811 289.047395 
L 288.190076 289.575415 
L 288.518342 288.642498 
L 289.174873 289.561586 
L 289.503138 289.256142 
L 290.159669 289.587745 
L 290.487935 288.906607 
L 290.8162 289.497006 
L 291.144465 289.503908 
L 291.472731 288.961789 
L 291.800996 289.805707 
L 292.129262 289.759994 
L 292.457527 289.46791 
L 292.785793 289.965141 
L 293.114058 289.428814 
L 293.442324 290.104682 
L 293.770589 289.979603 
L 294.098855 289.601601 
L 294.42712 289.940632 
L 294.755386 289.436712 
L 295.083651 289.855423 
L 295.411917 289.985576 
L 295.740182 289.201942 
L 296.068447 290.069243 
L 296.396713 289.97444 
L 296.724978 289.441444 
L 297.053244 290.352057 
L 297.381509 290.165943 
L 297.709775 289.802489 
L 298.03804 290.220623 
L 298.366306 289.793803 
L 298.694571 290.478188 
L 299.351102 289.982918 
L 299.679368 290.288165 
L 300.007633 290.040556 
L 300.664164 290.398106 
L 300.992429 289.643411 
L 301.320695 290.460411 
L 301.64896 290.267108 
L 301.977226 289.742386 
L 302.305491 290.769839 
L 302.633757 290.281078 
L 302.962022 290.05074 
L 303.290288 290.515853 
L 303.618553 289.980991 
L 303.946819 290.641069 
L 304.60335 290.029645 
L 304.931615 290.698612 
L 305.259881 282.152414 
L 305.916411 290.653655 
L 306.244677 289.840662 
L 306.572942 291.046743 
L 306.901208 290.60465 
L 307.229473 289.933565 
L 307.557739 290.996301 
L 307.886004 290.86088 
L 308.21427 290.219422 
L 308.542535 290.970465 
L 308.870801 290.2494 
L 309.199066 291.011204 
L 309.527332 291.012262 
L 309.855597 290.399771 
L 310.183862 291.032902 
L 310.512128 290.563701 
L 310.840393 290.536358 
L 311.168659 290.990316 
L 311.496924 290.197199 
L 311.82519 290.704194 
L 312.153455 290.761993 
L 312.481721 290.39379 
L 312.809986 291.308311 
L 313.138252 290.997233 
L 313.466517 290.521684 
L 313.794783 292.500568 
L 314.123048 290.595054 
L 314.451314 291.6108 
L 314.779579 291.316001 
L 315.107844 290.820656 
L 315.43611 291.400621 
L 315.764375 290.979207 
L 316.092641 286.869801 
L 316.420906 291.696535 
L 316.749172 290.414778 
L 317.077437 291.507129 
L 317.733968 290.659709 
L 318.062234 291.164558 
L 318.390499 291.071847 
L 318.718765 290.861873 
L 319.04703 291.286425 
L 319.375296 291.014936 
L 319.703561 291.468611 
L 320.031826 291.373422 
L 320.360092 291.018841 
L 320.688357 291.536503 
L 321.016623 291.028452 
L 321.673154 291.193147 
L 322.001419 290.860049 
L 322.329685 291.38633 
L 322.986216 291.008256 
L 323.314481 291.554415 
L 323.971012 291.219712 
L 324.299278 289.425245 
L 324.627543 289.20458 
L 324.955808 291.826037 
L 325.284074 291.62077 
L 325.612339 291.258834 
L 325.940605 291.695895 
L 326.26887 291.331246 
L 326.597136 291.701393 
L 326.925401 291.552099 
L 327.253667 291.141189 
L 327.581932 291.600736 
L 327.910198 291.727559 
L 328.238463 291.153109 
L 328.566729 291.983761 
L 329.223259 291.478841 
L 329.551525 292.009803 
L 329.87979 291.693188 
L 330.208056 292.092153 
L 330.536321 291.900389 
L 330.864587 291.564548 
L 331.192852 291.942535 
L 331.521118 291.647657 
L 331.849383 291.952394 
L 332.177649 291.983939 
L 332.505914 291.358485 
L 332.83418 291.932657 
L 333.162445 291.892465 
L 333.490711 291.582182 
L 333.818976 292.412677 
L 334.475507 291.864407 
L 334.803772 291.86841 
L 335.132038 291.73509 
L 335.460303 292.217908 
L 336.116834 291.765162 
L 336.4451 291.998759 
L 336.773365 291.922175 
L 337.101631 292.02414 
L 337.429896 293.163113 
L 337.758162 291.817807 
L 338.086427 292.222371 
L 338.414693 292.247078 
L 338.742958 291.814363 
L 339.071223 292.291612 
L 339.399489 292.141034 
L 340.384285 292.378637 
L 340.712551 292.665669 
L 341.369082 292.414266 
L 341.697347 292.687021 
L 342.025613 292.480016 
L 342.353878 292.754148 
L 342.682144 292.72776 
L 343.010409 292.232642 
L 343.338675 292.668931 
L 343.66694 293.949799 
L 343.995205 292.261131 
L 344.323471 293.125587 
L 344.651736 292.883857 
L 344.980002 292.819536 
L 345.308267 292.87292 
L 345.636533 292.676238 
L 345.964798 293.019964 
L 346.621329 292.563106 
L 346.949595 292.895881 
L 347.27786 292.626025 
L 347.606126 292.832903 
L 347.934391 293.895877 
L 348.262656 292.484983 
L 348.590922 292.996314 
L 348.919187 292.977231 
L 349.247453 292.469183 
L 349.575718 293.174831 
L 350.232249 292.702439 
L 350.560515 293.037872 
L 350.88878 292.881146 
L 351.217046 293.285262 
L 351.873577 292.870777 
L 352.201842 293.070261 
L 352.530108 292.906817 
L 352.858373 293.115879 
L 353.186638 293.021551 
L 353.514904 292.237537 
L 353.843169 293.017508 
L 354.171435 294.139692 
L 354.4997 292.840975 
L 354.827966 293.319626 
L 355.156231 293.087587 
L 355.484497 293.019559 
L 355.812762 293.074519 
L 356.141028 292.765995 
L 356.469293 293.403075 
L 356.797559 293.379528 
L 357.125824 293.75791 
L 357.45409 293.317232 
L 357.782355 293.241845 
L 358.438886 293.440931 
L 358.767151 293.024026 
L 359.423682 293.359829 
L 359.751948 293.091171 
L 360.080213 293.76326 
L 360.408479 293.348149 
L 360.736744 293.242296 
L 361.06501 293.387327 
L 361.393275 293.173116 
L 361.721541 293.661615 
L 362.049806 289.344527 
L 362.378072 288.316694 
L 362.706337 293.433525 
L 363.034602 293.306066 
L 363.362868 293.632349 
L 363.691133 293.516733 
L 364.019399 293.126449 
L 364.347664 293.60417 
L 365.004195 293.329761 
L 365.332461 293.752271 
L 365.660726 293.332168 
L 365.988992 293.286464 
L 366.317257 293.476436 
L 366.645523 293.39539 
L 366.973788 293.901247 
L 367.958584 293.288777 
L 368.28685 293.428738 
L 368.615115 293.698059 
L 368.943381 294.493002 
L 369.271646 293.180575 
L 369.599912 293.521453 
L 369.928177 293.54756 
L 370.256443 293.316198 
L 370.584708 293.835545 
L 370.912974 293.558682 
L 371.241239 293.567743 
L 371.569505 293.80207 
L 371.89777 293.542224 
L 372.226035 293.916051 
L 372.554301 293.777521 
L 372.882566 293.344107 
L 373.210832 294.736064 
L 373.539097 293.744227 
L 374.195628 293.747922 
L 374.523894 293.350822 
L 374.852159 293.753375 
L 375.180425 293.878052 
L 375.50869 293.47978 
L 375.836956 294.027465 
L 376.493487 293.659413 
L 376.821752 293.897213 
L 377.150017 293.673465 
L 377.478283 294.189524 
L 378.134814 293.617012 
L 378.463079 293.976153 
L 378.791345 293.801804 
L 379.11961 294.099588 
L 379.447876 292.212254 
L 379.776141 293.641634 
L 380.104407 293.655387 
L 380.432672 293.954022 
L 380.760938 293.791744 
L 381.089203 294.383552 
L 381.417469 293.945118 
L 381.745734 293.79062 
L 382.073999 294.157628 
L 382.402265 293.789913 
L 382.73053 294.996321 
L 383.058796 294.191365 
L 383.387061 293.838222 
L 383.715327 294.178019 
L 384.043592 293.920033 
L 384.371858 294.162039 
L 384.700123 294.262235 
L 385.028389 293.802563 
L 385.356654 294.160849 
L 385.68492 294.124733 
L 386.013185 293.73564 
L 386.341451 294.406789 
L 386.997981 293.951707 
L 387.326247 294.236187 
L 387.654512 294.07512 
L 387.982778 294.538397 
L 388.639309 294.050288 
L 388.967574 294.312835 
L 389.29584 292.957518 
L 389.624105 294.337984 
L 389.952371 294.350674 
L 390.280636 293.712378 
L 390.608902 294.17227 
L 390.937167 294.240778 
L 391.265432 293.944674 
L 391.593698 294.687898 
L 392.250229 294.213319 
L 392.578494 294.378287 
L 392.90676 294.365266 
L 393.235025 294.713244 
L 393.563291 294.56088 
L 393.891556 294.160861 
L 394.219822 294.544631 
L 394.548087 294.476321 
L 395.204618 294.516318 
L 395.532884 294.089704 
L 395.861149 295.488 
L 396.189414 294.61956 
L 396.845945 290.396392 
L 397.174211 292.794432 
L 397.502476 294.293094 
L 397.830742 294.856366 
L 398.159007 294.38115 
L 398.487273 294.968647 
L 398.487273 294.968647 
" style="fill:none;stroke:#1f77b4;stroke-linecap:square;stroke-width:1.5;"/>
   </g>
   <g id="patch_3">
    <path d="M 57.6 307.584 
L 57.6 41.472 
" style="fill:none;stroke:#000000;stroke-linecap:square;stroke-linejoin:miter;stroke-width:0.8;"/>
   </g>
   <g id="patch_4">
    <path d="M 414.72 307.584 
L 414.72 41.472 
" style="fill:none;stroke:#000000;stroke-linecap:square;stroke-linejoin:miter;stroke-width:0.8;"/>
   </g>
   <g id="patch_5">
    <path d="M 57.6 307.584 
L 414.72 307.584 
" style="fill:none;stroke:#000000;stroke-linecap:square;stroke-linejoin:miter;stroke-width:0.8;"/>
   </g>
   <g id="patch_6">
    <path d="M 57.6 41.472 
L 414.72 41.472 
" style="fill:none;stroke:#000000;stroke-linecap:square;stroke-linejoin:miter;stroke-width:0.8;"/>
   </g>
   <g id="text_17">
    <!-- AO Speedup -->
    <defs>
     <path d="M 34.1875 63.1875 
L 20.796875 26.90625 
L 47.609375 26.90625 
z
M 28.609375 72.90625 
L 39.796875 72.90625 
L 67.578125 0 
L 57.328125 0 
L 50.6875 18.703125 
L 17.828125 18.703125 
L 11.1875 0 
L 0.78125 0 
z
" id="DejaVuSans-65"/>
     <path d="M 39.40625 66.21875 
Q 28.65625 66.21875 22.328125 58.203125 
Q 16.015625 50.203125 16.015625 36.375 
Q 16.015625 22.609375 22.328125 14.59375 
Q 28.65625 6.59375 39.40625 6.59375 
Q 50.140625 6.59375 56.421875 14.59375 
Q 62.703125 22.609375 62.703125 36.375 
Q 62.703125 50.203125 56.421875 58.203125 
Q 50.140625 66.21875 39.40625 66.21875 
z
M 39.40625 74.21875 
Q 54.734375 74.21875 63.90625 63.9375 
Q 73.09375 53.65625 73.09375 36.375 
Q 73.09375 19.140625 63.90625 8.859375 
Q 54.734375 -1.421875 39.40625 -1.421875 
Q 24.03125 -1.421875 14.8125 8.828125 
Q 5.609375 19.09375 5.609375 36.375 
Q 5.609375 53.65625 14.8125 63.9375 
Q 24.03125 74.21875 39.40625 74.21875 
z
" id="DejaVuSans-79"/>
     <path id="DejaVuSans-32"/>
     <path d="M 53.515625 70.515625 
L 53.515625 60.890625 
Q 47.90625 63.578125 42.921875 64.890625 
Q 37.9375 66.21875 33.296875 66.21875 
Q 25.25 66.21875 20.875 63.09375 
Q 16.5 59.96875 16.5 54.203125 
Q 16.5 49.359375 19.40625 46.890625 
Q 22.3125 44.4375 30.421875 42.921875 
L 36.375 41.703125 
Q 47.40625 39.59375 52.65625 34.296875 
Q 57.90625 29 57.90625 20.125 
Q 57.90625 9.515625 50.796875 4.046875 
Q 43.703125 -1.421875 29.984375 -1.421875 
Q 24.8125 -1.421875 18.96875 -0.25 
Q 13.140625 0.921875 6.890625 3.21875 
L 6.890625 13.375 
Q 12.890625 10.015625 18.65625 8.296875 
Q 24.421875 6.59375 29.984375 6.59375 
Q 38.421875 6.59375 43.015625 9.90625 
Q 47.609375 13.234375 47.609375 19.390625 
Q 47.609375 24.75 44.3125 27.78125 
Q 41.015625 30.8125 33.5 32.328125 
L 27.484375 33.5 
Q 16.453125 35.6875 11.515625 40.375 
Q 6.59375 45.0625 6.59375 53.421875 
Q 6.59375 63.09375 13.40625 68.65625 
Q 20.21875 74.21875 32.171875 74.21875 
Q 37.3125 74.21875 42.625 73.28125 
Q 47.953125 72.359375 53.515625 70.515625 
z
" id="DejaVuSans-83"/>
    </defs>
    <g transform="translate(199.108125 35.472)scale(0.12 -0.12)">
     <use xlink:href="#DejaVuSans-65"/>
     <use x="66.658203" xlink:href="#DejaVuSans-79"/>
     <use x="145.369141" xlink:href="#DejaVuSans-32"/>
     <use x="177.15625" xlink:href="#DejaVuSans-83"/>
     <use x="240.632812" xlink:href="#DejaVuSans-112"/>
     <use x="304.109375" xlink:href="#DejaVuSans-101"/>
     <use x="365.632812" xlink:href="#DejaVuSans-101"/>
     <use x="427.15625" xlink:href="#DejaVuSans-100"/>
     <use x="490.632812" xlink:href="#DejaVuSans-117"/>
     <use x="554.011719" xlink:href="#DejaVuSans-112"/>
    </g>
   </g>
  </g>
 </g>
 <defs>
  <clipPath id="pec563489d2">
   <rect height="266.112" width="357.12" x="57.6" y="41.472"/>
  </clipPath>
 </defs>
</svg>
