<?xml version="1.0" encoding="utf-8" standalone="no"?>
<!DOCTYPE svg PUBLIC "-//W3C//DTD SVG 1.1//EN"
  "http://www.w3.org/Graphics/SVG/1.1/DTD/svg11.dtd">
<!-- Created with matplotlib (https://matplotlib.org/) -->
<svg height="345.6pt" version="1.1" viewBox="0 0 460.8 345.6" width="460.8pt" xmlns="http://www.w3.org/2000/svg" xmlns:xlink="http://www.w3.org/1999/xlink">
 <defs>
  <style type="text/css">
*{stroke-linecap:butt;stroke-linejoin:round;}
  </style>
 </defs>
 <g id="figure_1">
  <g id="patch_1">
   <path d="M 0 345.6 
L 460.8 345.6 
L 460.8 0 
L 0 0 
z
" style="fill:#ffffff;"/>
  </g>
  <g id="axes_1">
   <g id="patch_2">
    <path d="M 57.6 307.584 
L 414.72 307.584 
L 414.72 41.472 
L 57.6 41.472 
z
" style="fill:#ffffff;"/>
   </g>
   <g id="matplotlib.axis_1">
    <g id="xtick_1">
     <g id="line2d_1">
      <defs>
       <path d="M 0 0 
L 0 3.5 
" id="m380f11f0e8" style="stroke:#000000;stroke-width:0.8;"/>
      </defs>
      <g>
       <use style="stroke:#000000;stroke-width:0.8;" x="106.659274" xlink:href="#m380f11f0e8" y="307.584"/>
      </g>
     </g>
     <g id="text_1">
      <!-- 100.0 -->
      <defs>
       <path d="M 12.40625 8.296875 
L 28.515625 8.296875 
L 28.515625 63.921875 
L 10.984375 60.40625 
L 10.984375 69.390625 
L 28.421875 72.90625 
L 38.28125 72.90625 
L 38.28125 8.296875 
L 54.390625 8.296875 
L 54.390625 0 
L 12.40625 0 
z
" id="DejaVuSans-49"/>
       <path d="M 31.78125 66.40625 
Q 24.171875 66.40625 20.328125 58.90625 
Q 16.5 51.421875 16.5 36.375 
Q 16.5 21.390625 20.328125 13.890625 
Q 24.171875 6.390625 31.78125 6.390625 
Q 39.453125 6.390625 43.28125 13.890625 
Q 47.125 21.390625 47.125 36.375 
Q 47.125 51.421875 43.28125 58.90625 
Q 39.453125 66.40625 31.78125 66.40625 
z
M 31.78125 74.21875 
Q 44.046875 74.21875 50.515625 64.515625 
Q 56.984375 54.828125 56.984375 36.375 
Q 56.984375 17.96875 50.515625 8.265625 
Q 44.046875 -1.421875 31.78125 -1.421875 
Q 19.53125 -1.421875 13.0625 8.265625 
Q 6.59375 17.96875 6.59375 36.375 
Q 6.59375 54.828125 13.0625 64.515625 
Q 19.53125 74.21875 31.78125 74.21875 
z
" id="DejaVuSans-48"/>
       <path d="M 10.6875 12.40625 
L 21 12.40625 
L 21 0 
L 10.6875 0 
z
" id="DejaVuSans-46"/>
      </defs>
      <g transform="translate(92.345211 322.182437)scale(0.1 -0.1)">
       <use xlink:href="#DejaVuSans-49"/>
       <use x="63.623047" xlink:href="#DejaVuSans-48"/>
       <use x="127.246094" xlink:href="#DejaVuSans-48"/>
       <use x="190.869141" xlink:href="#DejaVuSans-46"/>
       <use x="222.65625" xlink:href="#DejaVuSans-48"/>
      </g>
     </g>
    </g>
    <g id="xtick_2">
     <g id="line2d_2">
      <g>
       <use style="stroke:#000000;stroke-width:0.8;" x="139.48582" xlink:href="#m380f11f0e8" y="307.584"/>
      </g>
     </g>
     <g id="text_2">
      <!-- 200.0 -->
      <defs>
       <path d="M 19.1875 8.296875 
L 53.609375 8.296875 
L 53.609375 0 
L 7.328125 0 
L 7.328125 8.296875 
Q 12.9375 14.109375 22.625 23.890625 
Q 32.328125 33.6875 34.8125 36.53125 
Q 39.546875 41.84375 41.421875 45.53125 
Q 43.3125 49.21875 43.3125 52.78125 
Q 43.3125 58.59375 39.234375 62.25 
Q 35.15625 65.921875 28.609375 65.921875 
Q 23.96875 65.921875 18.8125 64.3125 
Q 13.671875 62.703125 7.8125 59.421875 
L 7.8125 69.390625 
Q 13.765625 71.78125 18.9375 73 
Q 24.125 74.21875 28.421875 74.21875 
Q 39.75 74.21875 46.484375 68.546875 
Q 53.21875 62.890625 53.21875 53.421875 
Q 53.21875 48.921875 51.53125 44.890625 
Q 49.859375 40.875 45.40625 35.40625 
Q 44.1875 33.984375 37.640625 27.21875 
Q 31.109375 20.453125 19.1875 8.296875 
z
" id="DejaVuSans-50"/>
      </defs>
      <g transform="translate(125.171758 322.182437)scale(0.1 -0.1)">
       <use xlink:href="#DejaVuSans-50"/>
       <use x="63.623047" xlink:href="#DejaVuSans-48"/>
       <use x="127.246094" xlink:href="#DejaVuSans-48"/>
       <use x="190.869141" xlink:href="#DejaVuSans-46"/>
       <use x="222.65625" xlink:href="#DejaVuSans-48"/>
      </g>
     </g>
    </g>
    <g id="xtick_3">
     <g id="line2d_3">
      <g>
       <use style="stroke:#000000;stroke-width:0.8;" x="172.312367" xlink:href="#m380f11f0e8" y="307.584"/>
      </g>
     </g>
     <g id="text_3">
      <!-- 300.0 -->
      <defs>
       <path d="M 40.578125 39.3125 
Q 47.65625 37.796875 51.625 33 
Q 55.609375 28.21875 55.609375 21.1875 
Q 55.609375 10.40625 48.1875 4.484375 
Q 40.765625 -1.421875 27.09375 -1.421875 
Q 22.515625 -1.421875 17.65625 -0.515625 
Q 12.796875 0.390625 7.625 2.203125 
L 7.625 11.71875 
Q 11.71875 9.328125 16.59375 8.109375 
Q 21.484375 6.890625 26.8125 6.890625 
Q 36.078125 6.890625 40.9375 10.546875 
Q 45.796875 14.203125 45.796875 21.1875 
Q 45.796875 27.640625 41.28125 31.265625 
Q 36.765625 34.90625 28.71875 34.90625 
L 20.21875 34.90625 
L 20.21875 43.015625 
L 29.109375 43.015625 
Q 36.375 43.015625 40.234375 45.921875 
Q 44.09375 48.828125 44.09375 54.296875 
Q 44.09375 59.90625 40.109375 62.90625 
Q 36.140625 65.921875 28.71875 65.921875 
Q 24.65625 65.921875 20.015625 65.03125 
Q 15.375 64.15625 9.8125 62.3125 
L 9.8125 71.09375 
Q 15.4375 72.65625 20.34375 73.4375 
Q 25.25 74.21875 29.59375 74.21875 
Q 40.828125 74.21875 47.359375 69.109375 
Q 53.90625 64.015625 53.90625 55.328125 
Q 53.90625 49.265625 50.4375 45.09375 
Q 46.96875 40.921875 40.578125 39.3125 
z
" id="DejaVuSans-51"/>
      </defs>
      <g transform="translate(157.998304 322.182437)scale(0.1 -0.1)">
       <use xlink:href="#DejaVuSans-51"/>
       <use x="63.623047" xlink:href="#DejaVuSans-48"/>
       <use x="127.246094" xlink:href="#DejaVuSans-48"/>
       <use x="190.869141" xlink:href="#DejaVuSans-46"/>
       <use x="222.65625" xlink:href="#DejaVuSans-48"/>
      </g>
     </g>
    </g>
    <g id="xtick_4">
     <g id="line2d_4">
      <g>
       <use style="stroke:#000000;stroke-width:0.8;" x="205.138914" xlink:href="#m380f11f0e8" y="307.584"/>
      </g>
     </g>
     <g id="text_4">
      <!-- 400.0 -->
      <defs>
       <path d="M 37.796875 64.3125 
L 12.890625 25.390625 
L 37.796875 25.390625 
z
M 35.203125 72.90625 
L 47.609375 72.90625 
L 47.609375 25.390625 
L 58.015625 25.390625 
L 58.015625 17.1875 
L 47.609375 17.1875 
L 47.609375 0 
L 37.796875 0 
L 37.796875 17.1875 
L 4.890625 17.1875 
L 4.890625 26.703125 
z
" id="DejaVuSans-52"/>
      </defs>
      <g transform="translate(190.824851 322.182437)scale(0.1 -0.1)">
       <use xlink:href="#DejaVuSans-52"/>
       <use x="63.623047" xlink:href="#DejaVuSans-48"/>
       <use x="127.246094" xlink:href="#DejaVuSans-48"/>
       <use x="190.869141" xlink:href="#DejaVuSans-46"/>
       <use x="222.65625" xlink:href="#DejaVuSans-48"/>
      </g>
     </g>
    </g>
    <g id="xtick_5">
     <g id="line2d_5">
      <g>
       <use style="stroke:#000000;stroke-width:0.8;" x="237.96546" xlink:href="#m380f11f0e8" y="307.584"/>
      </g>
     </g>
     <g id="text_5">
      <!-- 500.0 -->
      <defs>
       <path d="M 10.796875 72.90625 
L 49.515625 72.90625 
L 49.515625 64.59375 
L 19.828125 64.59375 
L 19.828125 46.734375 
Q 21.96875 47.46875 24.109375 47.828125 
Q 26.265625 48.1875 28.421875 48.1875 
Q 40.625 48.1875 47.75 41.5 
Q 54.890625 34.8125 54.890625 23.390625 
Q 54.890625 11.625 47.5625 5.09375 
Q 40.234375 -1.421875 26.90625 -1.421875 
Q 22.3125 -1.421875 17.546875 -0.640625 
Q 12.796875 0.140625 7.71875 1.703125 
L 7.71875 11.625 
Q 12.109375 9.234375 16.796875 8.0625 
Q 21.484375 6.890625 26.703125 6.890625 
Q 35.15625 6.890625 40.078125 11.328125 
Q 45.015625 15.765625 45.015625 23.390625 
Q 45.015625 31 40.078125 35.4375 
Q 35.15625 39.890625 26.703125 39.890625 
Q 22.75 39.890625 18.8125 39.015625 
Q 14.890625 38.140625 10.796875 36.28125 
z
" id="DejaVuSans-53"/>
      </defs>
      <g transform="translate(223.651398 322.182437)scale(0.1 -0.1)">
       <use xlink:href="#DejaVuSans-53"/>
       <use x="63.623047" xlink:href="#DejaVuSans-48"/>
       <use x="127.246094" xlink:href="#DejaVuSans-48"/>
       <use x="190.869141" xlink:href="#DejaVuSans-46"/>
       <use x="222.65625" xlink:href="#DejaVuSans-48"/>
      </g>
     </g>
    </g>
    <g id="xtick_6">
     <g id="line2d_6">
      <g>
       <use style="stroke:#000000;stroke-width:0.8;" x="270.792007" xlink:href="#m380f11f0e8" y="307.584"/>
      </g>
     </g>
     <g id="text_6">
      <!-- 600.0 -->
      <defs>
       <path d="M 33.015625 40.375 
Q 26.375 40.375 22.484375 35.828125 
Q 18.609375 31.296875 18.609375 23.390625 
Q 18.609375 15.53125 22.484375 10.953125 
Q 26.375 6.390625 33.015625 6.390625 
Q 39.65625 6.390625 43.53125 10.953125 
Q 47.40625 15.53125 47.40625 23.390625 
Q 47.40625 31.296875 43.53125 35.828125 
Q 39.65625 40.375 33.015625 40.375 
z
M 52.59375 71.296875 
L 52.59375 62.3125 
Q 48.875 64.0625 45.09375 64.984375 
Q 41.3125 65.921875 37.59375 65.921875 
Q 27.828125 65.921875 22.671875 59.328125 
Q 17.53125 52.734375 16.796875 39.40625 
Q 19.671875 43.65625 24.015625 45.921875 
Q 28.375 48.1875 33.59375 48.1875 
Q 44.578125 48.1875 50.953125 41.515625 
Q 57.328125 34.859375 57.328125 23.390625 
Q 57.328125 12.15625 50.6875 5.359375 
Q 44.046875 -1.421875 33.015625 -1.421875 
Q 20.359375 -1.421875 13.671875 8.265625 
Q 6.984375 17.96875 6.984375 36.375 
Q 6.984375 53.65625 15.1875 63.9375 
Q 23.390625 74.21875 37.203125 74.21875 
Q 40.921875 74.21875 44.703125 73.484375 
Q 48.484375 72.75 52.59375 71.296875 
z
" id="DejaVuSans-54"/>
      </defs>
      <g transform="translate(256.477944 322.182437)scale(0.1 -0.1)">
       <use xlink:href="#DejaVuSans-54"/>
       <use x="63.623047" xlink:href="#DejaVuSans-48"/>
       <use x="127.246094" xlink:href="#DejaVuSans-48"/>
       <use x="190.869141" xlink:href="#DejaVuSans-46"/>
       <use x="222.65625" xlink:href="#DejaVuSans-48"/>
      </g>
     </g>
    </g>
    <g id="xtick_7">
     <g id="line2d_7">
      <g>
       <use style="stroke:#000000;stroke-width:0.8;" x="303.618553" xlink:href="#m380f11f0e8" y="307.584"/>
      </g>
     </g>
     <g id="text_7">
      <!-- 700.0 -->
      <defs>
       <path d="M 8.203125 72.90625 
L 55.078125 72.90625 
L 55.078125 68.703125 
L 28.609375 0 
L 18.3125 0 
L 43.21875 64.59375 
L 8.203125 64.59375 
z
" id="DejaVuSans-55"/>
      </defs>
      <g transform="translate(289.304491 322.182437)scale(0.1 -0.1)">
       <use xlink:href="#DejaVuSans-55"/>
       <use x="63.623047" xlink:href="#DejaVuSans-48"/>
       <use x="127.246094" xlink:href="#DejaVuSans-48"/>
       <use x="190.869141" xlink:href="#DejaVuSans-46"/>
       <use x="222.65625" xlink:href="#DejaVuSans-48"/>
      </g>
     </g>
    </g>
    <g id="xtick_8">
     <g id="line2d_8">
      <g>
       <use style="stroke:#000000;stroke-width:0.8;" x="336.4451" xlink:href="#m380f11f0e8" y="307.584"/>
      </g>
     </g>
     <g id="text_8">
      <!-- 800.0 -->
      <defs>
       <path d="M 31.78125 34.625 
Q 24.75 34.625 20.71875 30.859375 
Q 16.703125 27.09375 16.703125 20.515625 
Q 16.703125 13.921875 20.71875 10.15625 
Q 24.75 6.390625 31.78125 6.390625 
Q 38.8125 6.390625 42.859375 10.171875 
Q 46.921875 13.96875 46.921875 20.515625 
Q 46.921875 27.09375 42.890625 30.859375 
Q 38.875 34.625 31.78125 34.625 
z
M 21.921875 38.8125 
Q 15.578125 40.375 12.03125 44.71875 
Q 8.5 49.078125 8.5 55.328125 
Q 8.5 64.0625 14.71875 69.140625 
Q 20.953125 74.21875 31.78125 74.21875 
Q 42.671875 74.21875 48.875 69.140625 
Q 55.078125 64.0625 55.078125 55.328125 
Q 55.078125 49.078125 51.53125 44.71875 
Q 48 40.375 41.703125 38.8125 
Q 48.828125 37.15625 52.796875 32.3125 
Q 56.78125 27.484375 56.78125 20.515625 
Q 56.78125 9.90625 50.3125 4.234375 
Q 43.84375 -1.421875 31.78125 -1.421875 
Q 19.734375 -1.421875 13.25 4.234375 
Q 6.78125 9.90625 6.78125 20.515625 
Q 6.78125 27.484375 10.78125 32.3125 
Q 14.796875 37.15625 21.921875 38.8125 
z
M 18.3125 54.390625 
Q 18.3125 48.734375 21.84375 45.5625 
Q 25.390625 42.390625 31.78125 42.390625 
Q 38.140625 42.390625 41.71875 45.5625 
Q 45.3125 48.734375 45.3125 54.390625 
Q 45.3125 60.0625 41.71875 63.234375 
Q 38.140625 66.40625 31.78125 66.40625 
Q 25.390625 66.40625 21.84375 63.234375 
Q 18.3125 60.0625 18.3125 54.390625 
z
" id="DejaVuSans-56"/>
      </defs>
      <g transform="translate(322.131037 322.182437)scale(0.1 -0.1)">
       <use xlink:href="#DejaVuSans-56"/>
       <use x="63.623047" xlink:href="#DejaVuSans-48"/>
       <use x="127.246094" xlink:href="#DejaVuSans-48"/>
       <use x="190.869141" xlink:href="#DejaVuSans-46"/>
       <use x="222.65625" xlink:href="#DejaVuSans-48"/>
      </g>
     </g>
    </g>
    <g id="xtick_9">
     <g id="line2d_9">
      <g>
       <use style="stroke:#000000;stroke-width:0.8;" x="369.271646" xlink:href="#m380f11f0e8" y="307.584"/>
      </g>
     </g>
     <g id="text_9">
      <!-- 900.0 -->
      <defs>
       <path d="M 10.984375 1.515625 
L 10.984375 10.5 
Q 14.703125 8.734375 18.5 7.8125 
Q 22.3125 6.890625 25.984375 6.890625 
Q 35.75 6.890625 40.890625 13.453125 
Q 46.046875 20.015625 46.78125 33.40625 
Q 43.953125 29.203125 39.59375 26.953125 
Q 35.25 24.703125 29.984375 24.703125 
Q 19.046875 24.703125 12.671875 31.3125 
Q 6.296875 37.9375 6.296875 49.421875 
Q 6.296875 60.640625 12.9375 67.421875 
Q 19.578125 74.21875 30.609375 74.21875 
Q 43.265625 74.21875 49.921875 64.515625 
Q 56.59375 54.828125 56.59375 36.375 
Q 56.59375 19.140625 48.40625 8.859375 
Q 40.234375 -1.421875 26.421875 -1.421875 
Q 22.703125 -1.421875 18.890625 -0.6875 
Q 15.09375 0.046875 10.984375 1.515625 
z
M 30.609375 32.421875 
Q 37.25 32.421875 41.125 36.953125 
Q 45.015625 41.5 45.015625 49.421875 
Q 45.015625 57.28125 41.125 61.84375 
Q 37.25 66.40625 30.609375 66.40625 
Q 23.96875 66.40625 20.09375 61.84375 
Q 16.21875 57.28125 16.21875 49.421875 
Q 16.21875 41.5 20.09375 36.953125 
Q 23.96875 32.421875 30.609375 32.421875 
z
" id="DejaVuSans-57"/>
      </defs>
      <g transform="translate(354.957584 322.182437)scale(0.1 -0.1)">
       <use xlink:href="#DejaVuSans-57"/>
       <use x="63.623047" xlink:href="#DejaVuSans-48"/>
       <use x="127.246094" xlink:href="#DejaVuSans-48"/>
       <use x="190.869141" xlink:href="#DejaVuSans-46"/>
       <use x="222.65625" xlink:href="#DejaVuSans-48"/>
      </g>
     </g>
    </g>
    <g id="xtick_10">
     <g id="line2d_10">
      <g>
       <use style="stroke:#000000;stroke-width:0.8;" x="402.098193" xlink:href="#m380f11f0e8" y="307.584"/>
      </g>
     </g>
     <g id="text_10">
      <!-- 1000.0 -->
      <g transform="translate(384.60288 322.182437)scale(0.1 -0.1)">
       <use xlink:href="#DejaVuSans-49"/>
       <use x="63.623047" xlink:href="#DejaVuSans-48"/>
       <use x="127.246094" xlink:href="#DejaVuSans-48"/>
       <use x="190.869141" xlink:href="#DejaVuSans-48"/>
       <use x="254.492188" xlink:href="#DejaVuSans-46"/>
       <use x="286.279297" xlink:href="#DejaVuSans-48"/>
      </g>
     </g>
    </g>
    <g id="text_11">
     <!-- n -->
     <defs>
      <path d="M 54.890625 33.015625 
L 54.890625 0 
L 45.90625 0 
L 45.90625 32.71875 
Q 45.90625 40.484375 42.875 44.328125 
Q 39.84375 48.1875 33.796875 48.1875 
Q 26.515625 48.1875 22.3125 43.546875 
Q 18.109375 38.921875 18.109375 30.90625 
L 18.109375 0 
L 9.078125 0 
L 9.078125 54.6875 
L 18.109375 54.6875 
L 18.109375 46.1875 
Q 21.34375 51.125 25.703125 53.5625 
Q 30.078125 56 35.796875 56 
Q 45.21875 56 50.046875 50.171875 
Q 54.890625 44.34375 54.890625 33.015625 
z
" id="DejaVuSans-110"/>
     </defs>
     <g transform="translate(232.99125 335.860562)scale(0.1 -0.1)">
      <use xlink:href="#DejaVuSans-110"/>
     </g>
    </g>
   </g>
   <g id="matplotlib.axis_2">
    <g id="ytick_1">
     <g id="line2d_11">
      <defs>
       <path d="M 0 0 
L -3.5 0 
" id="m04c1506b91" style="stroke:#000000;stroke-width:0.8;"/>
      </defs>
      <g>
       <use style="stroke:#000000;stroke-width:0.8;" x="57.6" xlink:href="#m04c1506b91" y="295.054662"/>
      </g>
     </g>
     <g id="text_12">
      <!-- 200 -->
      <g transform="translate(31.5125 298.85388)scale(0.1 -0.1)">
       <use xlink:href="#DejaVuSans-50"/>
       <use x="63.623047" xlink:href="#DejaVuSans-48"/>
       <use x="127.246094" xlink:href="#DejaVuSans-48"/>
      </g>
     </g>
    </g>
    <g id="ytick_2">
     <g id="line2d_12">
      <g>
       <use style="stroke:#000000;stroke-width:0.8;" x="57.6" xlink:href="#m04c1506b91" y="238.879333"/>
      </g>
     </g>
     <g id="text_13">
      <!-- 300 -->
      <g transform="translate(31.5125 242.678552)scale(0.1 -0.1)">
       <use xlink:href="#DejaVuSans-51"/>
       <use x="63.623047" xlink:href="#DejaVuSans-48"/>
       <use x="127.246094" xlink:href="#DejaVuSans-48"/>
      </g>
     </g>
    </g>
    <g id="ytick_3">
     <g id="line2d_13">
      <g>
       <use style="stroke:#000000;stroke-width:0.8;" x="57.6" xlink:href="#m04c1506b91" y="182.704005"/>
      </g>
     </g>
     <g id="text_14">
      <!-- 400 -->
      <g transform="translate(31.5125 186.503224)scale(0.1 -0.1)">
       <use xlink:href="#DejaVuSans-52"/>
       <use x="63.623047" xlink:href="#DejaVuSans-48"/>
       <use x="127.246094" xlink:href="#DejaVuSans-48"/>
      </g>
     </g>
    </g>
    <g id="ytick_4">
     <g id="line2d_14">
      <g>
       <use style="stroke:#000000;stroke-width:0.8;" x="57.6" xlink:href="#m04c1506b91" y="126.528676"/>
      </g>
     </g>
     <g id="text_15">
      <!-- 500 -->
      <g transform="translate(31.5125 130.327895)scale(0.1 -0.1)">
       <use xlink:href="#DejaVuSans-53"/>
       <use x="63.623047" xlink:href="#DejaVuSans-48"/>
       <use x="127.246094" xlink:href="#DejaVuSans-48"/>
      </g>
     </g>
    </g>
    <g id="ytick_5">
     <g id="line2d_15">
      <g>
       <use style="stroke:#000000;stroke-width:0.8;" x="57.6" xlink:href="#m04c1506b91" y="70.353348"/>
      </g>
     </g>
     <g id="text_16">
      <!-- 600 -->
      <g transform="translate(31.5125 74.152567)scale(0.1 -0.1)">
       <use xlink:href="#DejaVuSans-54"/>
       <use x="63.623047" xlink:href="#DejaVuSans-48"/>
       <use x="127.246094" xlink:href="#DejaVuSans-48"/>
      </g>
     </g>
    </g>
    <g id="text_17">
     <!-- speedup -->
     <defs>
      <path d="M 44.28125 53.078125 
L 44.28125 44.578125 
Q 40.484375 46.53125 36.375 47.5 
Q 32.28125 48.484375 27.875 48.484375 
Q 21.1875 48.484375 17.84375 46.4375 
Q 14.5 44.390625 14.5 40.28125 
Q 14.5 37.15625 16.890625 35.375 
Q 19.28125 33.59375 26.515625 31.984375 
L 29.59375 31.296875 
Q 39.15625 29.25 43.1875 25.515625 
Q 47.21875 21.78125 47.21875 15.09375 
Q 47.21875 7.46875 41.1875 3.015625 
Q 35.15625 -1.421875 24.609375 -1.421875 
Q 20.21875 -1.421875 15.453125 -0.5625 
Q 10.6875 0.296875 5.421875 2 
L 5.421875 11.28125 
Q 10.40625 8.6875 15.234375 7.390625 
Q 20.0625 6.109375 24.8125 6.109375 
Q 31.15625 6.109375 34.5625 8.28125 
Q 37.984375 10.453125 37.984375 14.40625 
Q 37.984375 18.0625 35.515625 20.015625 
Q 33.0625 21.96875 24.703125 23.78125 
L 21.578125 24.515625 
Q 13.234375 26.265625 9.515625 29.90625 
Q 5.8125 33.546875 5.8125 39.890625 
Q 5.8125 47.609375 11.28125 51.796875 
Q 16.75 56 26.8125 56 
Q 31.78125 56 36.171875 55.265625 
Q 40.578125 54.546875 44.28125 53.078125 
z
" id="DejaVuSans-115"/>
      <path d="M 18.109375 8.203125 
L 18.109375 -20.796875 
L 9.078125 -20.796875 
L 9.078125 54.6875 
L 18.109375 54.6875 
L 18.109375 46.390625 
Q 20.953125 51.265625 25.265625 53.625 
Q 29.59375 56 35.59375 56 
Q 45.5625 56 51.78125 48.09375 
Q 58.015625 40.1875 58.015625 27.296875 
Q 58.015625 14.40625 51.78125 6.484375 
Q 45.5625 -1.421875 35.59375 -1.421875 
Q 29.59375 -1.421875 25.265625 0.953125 
Q 20.953125 3.328125 18.109375 8.203125 
z
M 48.6875 27.296875 
Q 48.6875 37.203125 44.609375 42.84375 
Q 40.53125 48.484375 33.40625 48.484375 
Q 26.265625 48.484375 22.1875 42.84375 
Q 18.109375 37.203125 18.109375 27.296875 
Q 18.109375 17.390625 22.1875 11.75 
Q 26.265625 6.109375 33.40625 6.109375 
Q 40.53125 6.109375 44.609375 11.75 
Q 48.6875 17.390625 48.6875 27.296875 
z
" id="DejaVuSans-112"/>
      <path d="M 56.203125 29.59375 
L 56.203125 25.203125 
L 14.890625 25.203125 
Q 15.484375 15.921875 20.484375 11.0625 
Q 25.484375 6.203125 34.421875 6.203125 
Q 39.59375 6.203125 44.453125 7.46875 
Q 49.3125 8.734375 54.109375 11.28125 
L 54.109375 2.78125 
Q 49.265625 0.734375 44.1875 -0.34375 
Q 39.109375 -1.421875 33.890625 -1.421875 
Q 20.796875 -1.421875 13.15625 6.1875 
Q 5.515625 13.8125 5.515625 26.8125 
Q 5.515625 40.234375 12.765625 48.109375 
Q 20.015625 56 32.328125 56 
Q 43.359375 56 49.78125 48.890625 
Q 56.203125 41.796875 56.203125 29.59375 
z
M 47.21875 32.234375 
Q 47.125 39.59375 43.09375 43.984375 
Q 39.0625 48.390625 32.421875 48.390625 
Q 24.90625 48.390625 20.390625 44.140625 
Q 15.875 39.890625 15.1875 32.171875 
z
" id="DejaVuSans-101"/>
      <path d="M 45.40625 46.390625 
L 45.40625 75.984375 
L 54.390625 75.984375 
L 54.390625 0 
L 45.40625 0 
L 45.40625 8.203125 
Q 42.578125 3.328125 38.25 0.953125 
Q 33.9375 -1.421875 27.875 -1.421875 
Q 17.96875 -1.421875 11.734375 6.484375 
Q 5.515625 14.40625 5.515625 27.296875 
Q 5.515625 40.1875 11.734375 48.09375 
Q 17.96875 56 27.875 56 
Q 33.9375 56 38.25 53.625 
Q 42.578125 51.265625 45.40625 46.390625 
z
M 14.796875 27.296875 
Q 14.796875 17.390625 18.875 11.75 
Q 22.953125 6.109375 30.078125 6.109375 
Q 37.203125 6.109375 41.296875 11.75 
Q 45.40625 17.390625 45.40625 27.296875 
Q 45.40625 37.203125 41.296875 42.84375 
Q 37.203125 48.484375 30.078125 48.484375 
Q 22.953125 48.484375 18.875 42.84375 
Q 14.796875 37.203125 14.796875 27.296875 
z
" id="DejaVuSans-100"/>
      <path d="M 8.5 21.578125 
L 8.5 54.6875 
L 17.484375 54.6875 
L 17.484375 21.921875 
Q 17.484375 14.15625 20.5 10.265625 
Q 23.53125 6.390625 29.59375 6.390625 
Q 36.859375 6.390625 41.078125 11.03125 
Q 45.3125 15.671875 45.3125 23.6875 
L 45.3125 54.6875 
L 54.296875 54.6875 
L 54.296875 0 
L 45.3125 0 
L 45.3125 8.40625 
Q 42.046875 3.421875 37.71875 1 
Q 33.40625 -1.421875 27.6875 -1.421875 
Q 18.265625 -1.421875 13.375 4.4375 
Q 8.5 10.296875 8.5 21.578125 
z
M 31.109375 56 
z
" id="DejaVuSans-117"/>
     </defs>
     <g transform="translate(25.432812 195.977219)rotate(-90)scale(0.1 -0.1)">
      <use xlink:href="#DejaVuSans-115"/>
      <use x="52.099609" xlink:href="#DejaVuSans-112"/>
      <use x="115.576172" xlink:href="#DejaVuSans-101"/>
      <use x="177.099609" xlink:href="#DejaVuSans-101"/>
      <use x="238.623047" xlink:href="#DejaVuSans-100"/>
      <use x="302.099609" xlink:href="#DejaVuSans-117"/>
      <use x="365.478516" xlink:href="#DejaVuSans-112"/>
     </g>
    </g>
   </g>
   <g id="line2d_16">
    <path clip-path="url(#p73936e8aab)" d="M 73.832727 249.38999 
L 74.160993 162.93939 
L 74.489258 173.65247 
L 74.817524 178.507318 
L 75.145789 194.011927 
L 75.474055 191.435935 
L 75.80232 195.698055 
L 76.130586 197.019823 
L 76.458851 202.161242 
L 76.787116 199.528706 
L 77.115382 198.690092 
L 77.443647 209.497377 
L 77.771913 206.891882 
L 78.100178 213.143556 
L 78.428444 202.979532 
L 78.756709 212.043879 
L 79.084975 200.934667 
L 80.069771 220.661986 
L 80.398037 206.3965 
L 80.726302 203.228068 
L 81.382833 213.035756 
L 81.711098 213.516511 
L 82.039364 207.383332 
L 82.367629 219.59871 
L 82.695895 227.271412 
L 83.02416 217.308085 
L 83.352426 221.602282 
L 83.680691 219.349483 
L 84.337222 223.30997 
L 84.665488 224.846406 
L 84.993753 205.484593 
L 85.322019 204.266847 
L 85.650284 206.202864 
L 85.978549 226.611053 
L 86.306815 203.864365 
L 86.63508 207.965554 
L 86.963346 214.987722 
L 87.291611 200.921805 
L 87.619877 210.750332 
L 87.948142 227.131359 
L 88.276408 220.296767 
L 88.604673 226.928509 
L 89.261204 219.888208 
L 89.58947 202.857361 
L 89.917735 220.366728 
L 90.574266 199.276421 
L 90.902531 213.103554 
L 91.230797 215.199637 
L 91.559062 221.292752 
L 91.887328 209.067125 
L 92.215593 217.476983 
L 92.543859 207.585349 
L 92.872124 201.952442 
L 93.20039 214.196029 
L 93.528655 207.304742 
L 93.856921 213.759368 
L 94.185186 239.071142 
L 94.513452 218.785495 
L 94.841717 221.021569 
L 95.169983 204.54155 
L 95.826513 224.670966 
L 96.154779 198.398786 
L 96.483044 215.844377 
L 96.81131 203.548181 
L 97.139575 207.352871 
L 97.467841 219.017329 
L 97.796106 209.22005 
L 98.124372 210.987827 
L 98.452637 194.351746 
L 98.780903 211.612163 
L 99.109168 206.722658 
L 99.437434 189.068708 
L 99.765699 277.931863 
L 100.093965 244.379715 
L 100.42223 236.49739 
L 100.750495 225.326016 
L 101.078761 233.076991 
L 101.407026 211.557327 
L 101.735292 213.878329 
L 102.391823 195.596289 
L 102.720088 217.657925 
L 103.048354 290.167401 
L 103.376619 214.123699 
L 103.704885 215.077906 
L 104.03315 224.387171 
L 104.361416 214.356674 
L 104.689681 233.92426 
L 105.017947 204.325845 
L 105.346212 208.324448 
L 105.674477 208.576068 
L 106.002743 227.403568 
L 106.331008 214.994953 
L 106.659274 193.485765 
L 106.987539 215.908648 
L 107.315805 218.013263 
L 107.64407 208.269821 
L 107.972336 192.973542 
L 108.300601 217.858557 
L 108.628867 211.256826 
L 108.957132 208.566934 
L 109.285398 208.155379 
L 109.613663 215.906983 
L 109.941928 200.844241 
L 110.270194 211.170227 
L 110.598459 203.948038 
L 110.926725 215.57105 
L 111.25499 191.904865 
L 111.583256 213.304435 
L 111.911521 195.04778 
L 112.239787 208.226691 
L 112.568052 201.307501 
L 112.896318 210.852444 
L 113.224583 210.76077 
L 113.552849 215.86409 
L 113.881114 214.308156 
L 114.20938 208.276885 
L 114.537645 198.084964 
L 114.86591 221.848188 
L 115.194176 215.019884 
L 115.522441 219.336573 
L 116.178972 212.359516 
L 116.507238 222.351262 
L 116.835503 239.221444 
L 117.163769 228.298884 
L 117.492034 235.776087 
L 117.8203 230.19264 
L 118.148565 242.691971 
L 118.476831 230.042047 
L 118.805096 229.092185 
L 119.133362 228.575782 
L 119.461627 227.455734 
L 119.789892 235.914536 
L 120.446423 201.947153 
L 120.774689 215.190653 
L 121.102954 205.91715 
L 121.43122 218.818717 
L 121.759485 207.263884 
L 122.087751 219.643808 
L 122.416016 212.712366 
L 122.744282 214.231556 
L 123.400813 204.882452 
L 123.729078 205.698042 
L 124.057344 200.416927 
L 124.385609 190.792965 
L 124.713874 203.960976 
L 125.04214 208.339742 
L 125.370405 217.623066 
L 125.698671 211.727483 
L 126.026936 248.817852 
L 126.355202 200.936158 
L 126.683467 213.471007 
L 127.011733 211.515461 
L 127.339998 231.373906 
L 127.668264 228.618286 
L 127.996529 212.947471 
L 128.324795 203.931528 
L 128.65306 217.248822 
L 128.981325 195.747852 
L 129.309591 214.030211 
L 129.637856 219.950359 
L 129.966122 295.488 
L 130.294387 203.189282 
L 130.622653 287.515328 
L 130.950918 208.024433 
L 131.279184 209.103663 
L 131.607449 190.008845 
L 131.935715 217.857409 
L 132.26398 219.990657 
L 132.592246 217.526879 
L 132.920511 224.645436 
L 133.248777 271.93559 
L 133.577042 222.229328 
L 133.905307 216.022587 
L 134.233573 221.528912 
L 134.561838 207.305016 
L 135.218369 229.881851 
L 135.546635 210.599625 
L 135.8749 208.373552 
L 136.203166 212.024579 
L 136.531431 211.986446 
L 136.859697 196.514962 
L 137.187962 224.04406 
L 137.516228 202.743336 
L 137.844493 215.051078 
L 138.172759 192.269418 
L 138.501024 229.484313 
L 138.829289 226.217027 
L 139.48582 189.883001 
L 139.814086 214.366446 
L 140.142351 219.025316 
L 140.470617 215.830164 
L 140.798882 209.960913 
L 141.127148 216.318307 
L 141.455413 196.773447 
L 142.111944 256.100622 
L 142.768475 205.143213 
L 143.096741 216.69497 
L 143.425006 213.915721 
L 143.753271 206.298073 
L 144.081537 260.262659 
L 144.409802 226.858928 
L 144.738068 256.871175 
L 145.066333 209.376957 
L 145.394599 203.35632 
L 145.722864 217.47551 
L 146.05113 210.172598 
L 146.379395 214.014855 
L 146.707661 208.556204 
L 147.035926 209.865853 
L 147.364192 209.860892 
L 147.692457 211.544857 
L 148.020722 202.783367 
L 148.348988 211.79594 
L 148.677253 205.566559 
L 149.005519 207.227026 
L 149.333784 216.026913 
L 149.66205 209.76871 
L 149.990315 207.916423 
L 150.318581 210.302963 
L 150.646846 208.302214 
L 150.975112 214.37016 
L 151.303377 193.342628 
L 151.631643 210.73802 
L 151.959908 191.428161 
L 152.288174 208.234193 
L 152.616439 216.877693 
L 152.944704 219.125975 
L 153.27297 202.801968 
L 153.601235 215.303207 
L 153.929501 206.900129 
L 154.257766 214.622878 
L 154.586032 201.812978 
L 154.914297 228.662255 
L 155.242563 202.060584 
L 155.570828 213.151537 
L 155.899094 209.969461 
L 156.227359 211.431983 
L 156.555625 202.042448 
L 156.88389 248.267555 
L 157.212156 219.927724 
L 157.540421 206.738011 
L 157.868686 226.93891 
L 158.196952 220.429588 
L 158.525217 202.178321 
L 158.853483 219.961896 
L 159.181748 214.547708 
L 159.510014 212.875997 
L 159.838279 206.37033 
L 160.166545 202.158408 
L 160.49481 214.465797 
L 160.823076 210.810466 
L 161.151341 218.790502 
L 161.807872 198.928877 
L 162.136138 209.015128 
L 162.464403 197.483918 
L 162.792668 207.081754 
L 163.120934 205.872011 
L 163.449199 212.44773 
L 163.777465 204.908988 
L 164.10573 221.660383 
L 164.433996 220.052169 
L 164.762261 228.066424 
L 165.090527 215.317751 
L 165.418792 222.02204 
L 165.747058 214.376094 
L 166.075323 212.817935 
L 166.403589 204.057014 
L 166.731854 223.304136 
L 167.060119 200.498285 
L 167.388385 210.018664 
L 167.71665 197.179064 
L 168.044916 235.248341 
L 168.373181 207.418336 
L 168.701447 216.755168 
L 169.029712 194.415337 
L 169.357978 154.013495 
L 169.686243 181.820934 
L 170.014509 247.195739 
L 170.342774 175.545025 
L 170.67104 218.243001 
L 170.999305 199.467398 
L 171.327571 215.329015 
L 171.655836 208.872596 
L 171.984101 215.92904 
L 172.312367 207.737234 
L 172.640632 211.62734 
L 172.968898 198.856293 
L 173.297163 210.218629 
L 173.625429 207.438396 
L 173.953694 207.523717 
L 174.28196 201.531289 
L 174.610225 213.561183 
L 174.938491 212.151265 
L 175.595022 211.09934 
L 175.923287 212.070675 
L 176.251553 201.525906 
L 176.579818 216.552256 
L 176.908083 203.951534 
L 177.236349 210.71882 
L 177.564614 205.423487 
L 177.89288 212.885481 
L 178.221145 200.453994 
L 178.549411 212.698077 
L 178.877676 203.152686 
L 179.205942 212.46215 
L 179.534207 205.272406 
L 179.862473 212.445222 
L 180.190738 207.258956 
L 180.519004 208.876443 
L 180.847269 198.498725 
L 181.175535 208.791372 
L 181.5038 200.670085 
L 181.832065 211.123493 
L 182.160331 197.959958 
L 182.488596 209.105777 
L 182.816862 208.179341 
L 183.145127 209.898658 
L 183.473393 199.930286 
L 183.801658 210.93975 
L 184.129924 202.383363 
L 184.458189 211.59528 
L 184.786455 202.37297 
L 185.11472 215.758743 
L 185.442986 199.618717 
L 185.771251 213.221397 
L 186.099516 203.918496 
L 186.427782 210.512172 
L 186.756047 207.91903 
L 187.084313 212.700586 
L 187.412578 204.979321 
L 187.740844 216.569663 
L 188.069109 200.983414 
L 188.397375 215.669226 
L 188.72564 224.943605 
L 189.053906 213.250432 
L 189.382171 206.77959 
L 189.710437 213.984387 
L 190.038702 205.209975 
L 190.366968 213.898779 
L 190.695233 202.778475 
L 191.023498 212.711865 
L 191.351764 206.074981 
L 191.680029 212.630152 
L 192.008295 225.134455 
L 192.33656 182.175421 
L 192.664826 227.151855 
L 192.993091 220.913422 
L 193.321357 204.877836 
L 193.649622 219.650859 
L 193.977888 208.418777 
L 194.306153 216.61488 
L 194.634419 221.528549 
L 194.962684 208.665038 
L 195.29095 205.251569 
L 195.619215 239.922707 
L 195.94748 201.343263 
L 196.275746 205.171227 
L 196.604011 210.50984 
L 196.932277 234.151483 
L 197.260542 203.267836 
L 197.588808 227.683683 
L 197.917073 205.367964 
L 198.245339 214.599731 
L 198.573604 205.730273 
L 198.90187 203.136106 
L 199.558401 213.969335 
L 199.886666 206.021356 
L 200.543197 226.668035 
L 201.199728 203.486004 
L 201.527993 214.419068 
L 201.856259 195.369889 
L 202.184524 208.079917 
L 202.51279 203.018932 
L 202.841055 210.290091 
L 203.169321 197.246688 
L 203.497586 212.334893 
L 203.825852 199.609325 
L 204.154117 218.907674 
L 204.482383 188.775195 
L 204.810648 239.738607 
L 205.138914 189.27719 
L 205.467179 219.841544 
L 205.795444 212.412663 
L 206.12371 215.365 
L 206.451975 210.58717 
L 206.780241 219.155887 
L 207.108506 221.150595 
L 207.436772 213.15245 
L 207.765037 202.201894 
L 208.093303 215.624677 
L 208.421568 201.44885 
L 208.749834 213.891734 
L 209.078099 203.519342 
L 209.406365 236.473693 
L 209.73463 203.757313 
L 210.062895 216.41426 
L 210.391161 207.578613 
L 210.719426 214.342393 
L 211.047692 223.784686 
L 211.375957 216.038386 
L 211.704223 204.158304 
L 212.032488 211.930244 
L 212.360754 166.763243 
L 212.689019 238.184653 
L 213.673816 209.602458 
L 214.002081 216.408225 
L 214.330347 205.589708 
L 214.658612 209.30469 
L 214.986877 201.669143 
L 215.315143 212.199345 
L 215.643408 207.268111 
L 215.971674 196.483779 
L 216.299939 240.185618 
L 216.95647 216.13048 
L 217.284736 180.659383 
L 217.613001 223.757186 
L 217.941267 208.740877 
L 218.269532 214.012264 
L 218.597798 238.215424 
L 218.926063 212.843803 
L 219.254329 217.452322 
L 219.582594 186.939446 
L 219.910859 53.568 
L 220.239125 211.519897 
L 220.56739 221.57763 
L 220.895656 206.217541 
L 221.223921 212.846323 
L 221.552187 209.194463 
L 221.880452 210.313104 
L 222.208718 202.756208 
L 222.536983 209.810587 
L 222.865249 186.655584 
L 223.193514 207.637118 
L 223.52178 202.195079 
L 223.850045 217.390735 
L 224.178311 195.41017 
L 224.506576 212.44367 
L 224.834841 188.002951 
L 225.163107 226.084083 
L 225.491372 211.870123 
L 225.819638 223.715863 
L 226.147903 209.887302 
L 226.476169 227.596957 
L 226.804434 190.959413 
L 227.1327 205.908673 
L 227.460965 208.753958 
L 227.789231 212.655111 
L 228.117496 229.015382 
L 228.445762 209.220183 
L 228.774027 206.353576 
L 229.102292 250.245476 
L 229.430558 209.488247 
L 229.758823 224.944559 
L 230.087089 207.891713 
L 230.415354 219.876579 
L 230.74362 211.184276 
L 231.071885 224.97884 
L 231.400151 206.221416 
L 231.728416 222.690594 
L 232.056682 215.689085 
L 232.384947 219.059481 
L 232.713213 208.836576 
L 233.041478 221.086132 
L 233.369744 207.682483 
L 233.698009 255.528752 
L 234.026274 203.980632 
L 234.35454 208.262426 
L 234.682805 200.787956 
L 235.011071 205.926654 
L 235.339336 206.345412 
L 235.667602 212.850087 
L 235.995867 208.297884 
L 236.324133 218.860375 
L 236.652398 205.978779 
L 236.980664 218.856201 
L 237.308929 182.038842 
L 237.637195 222.439576 
L 237.96546 226.268256 
L 238.621991 211.616588 
L 238.950256 217.154629 
L 239.278522 201.891733 
L 239.606787 218.863845 
L 239.935053 205.024172 
L 240.263318 218.186076 
L 240.591584 209.889526 
L 240.919849 214.957865 
L 241.248115 233.397868 
L 241.904646 206.212692 
L 242.232911 217.371653 
L 242.561177 202.477325 
L 242.889442 212.316111 
L 243.217708 203.17907 
L 243.545973 220.17257 
L 243.874238 207.507384 
L 244.202504 213.616759 
L 244.530769 207.361322 
L 244.859035 232.667226 
L 245.1873 204.537352 
L 245.515566 218.815301 
L 245.843831 207.82618 
L 246.500362 227.458545 
L 246.828628 211.338012 
L 247.156893 236.816186 
L 247.813424 198.01811 
L 248.141689 221.67924 
L 248.469955 207.806584 
L 248.79822 218.026363 
L 249.126486 197.009817 
L 249.454751 216.136401 
L 249.783017 211.646904 
L 250.111282 219.73543 
L 250.439548 210.915514 
L 250.767813 216.532957 
L 251.096079 211.262486 
L 251.424344 220.028811 
L 251.75261 207.237142 
L 252.080875 218.917485 
L 252.409141 206.083839 
L 252.737406 216.459852 
L 253.065671 201.482276 
L 253.393937 225.879111 
L 253.722202 200.53381 
L 254.050468 222.573671 
L 254.378733 208.253568 
L 254.706999 221.903323 
L 255.035264 207.187598 
L 255.36353 209.081885 
L 255.691795 206.121678 
L 256.020061 209.839247 
L 256.348326 162.011494 
L 256.676592 217.594309 
L 257.004857 225.992973 
L 257.661388 216.207188 
L 257.989653 220.705864 
L 258.317919 199.002886 
L 258.646184 222.456468 
L 258.97445 211.475472 
L 259.302715 221.348806 
L 259.630981 214.150919 
L 259.959246 223.865603 
L 260.287512 209.752748 
L 260.615777 218.44147 
L 260.944043 202.881089 
L 261.600574 208.915836 
L 261.928839 219.213402 
L 262.257105 212.902307 
L 262.58537 220.213847 
L 262.913635 210.004532 
L 263.241901 216.904771 
L 263.570166 212.070472 
L 263.898432 221.260714 
L 264.226697 206.835237 
L 264.554963 218.781749 
L 264.883228 211.956908 
L 265.211494 213.812129 
L 265.539759 221.522844 
L 266.19629 209.51955 
L 266.524556 218.935804 
L 266.852821 210.728523 
L 267.181086 221.043119 
L 267.509352 196.485705 
L 268.165883 231.894306 
L 268.494148 210.901071 
L 268.822414 205.263504 
L 269.150679 212.665624 
L 269.478945 209.544239 
L 269.80721 220.763923 
L 270.135476 214.944111 
L 270.463741 219.541522 
L 270.792007 219.990483 
L 271.120272 219.325533 
L 271.448538 203.679886 
L 271.776803 218.041329 
L 272.105068 208.989556 
L 272.433334 220.884574 
L 272.761599 208.954858 
L 273.089865 217.253399 
L 273.41813 209.69765 
L 273.746396 214.250115 
L 274.074661 208.433592 
L 274.731192 224.140542 
L 275.059458 218.707348 
L 275.387723 206.178686 
L 275.715989 220.73347 
L 276.044254 209.25801 
L 276.37252 206.635804 
L 276.700785 178.766956 
L 277.02905 204.197201 
L 277.357316 206.810293 
L 277.685581 220.471892 
L 278.013847 208.101883 
L 278.342112 218.591985 
L 278.670378 211.099704 
L 278.998643 218.24316 
L 279.326909 210.118119 
L 279.655174 216.52116 
L 279.98344 209.420745 
L 280.311705 220.805176 
L 280.639971 210.196005 
L 280.968236 218.3227 
L 281.296502 207.220041 
L 281.624767 250.598254 
L 281.953032 202.921367 
L 282.281298 220.126573 
L 282.609563 207.765932 
L 282.937829 220.071459 
L 283.266094 205.56338 
L 283.59436 217.731042 
L 283.922625 205.035419 
L 284.250891 217.415232 
L 284.579156 203.683685 
L 284.907422 216.810259 
L 285.235687 205.767349 
L 285.563953 213.987882 
L 285.892218 205.418755 
L 286.220484 218.81936 
L 286.548749 208.30538 
L 286.877014 216.32921 
L 287.20528 217.34926 
L 287.533545 217.51793 
L 287.861811 207.809893 
L 288.190076 211.662558 
L 288.518342 201.700272 
L 288.846607 240.897485 
L 289.174873 207.229852 
L 289.503138 225.803759 
L 289.831404 204.552919 
L 290.159669 219.44578 
L 290.487935 213.292409 
L 290.8162 217.795996 
L 291.144465 206.624102 
L 291.472731 219.228839 
L 291.800996 204.255092 
L 292.129262 156.527207 
L 292.457527 209.350915 
L 292.785793 218.026744 
L 293.114058 209.834633 
L 293.442324 218.494687 
L 293.770589 208.603792 
L 294.098855 222.305234 
L 294.42712 205.982654 
L 294.755386 217.558321 
L 295.083651 203.76015 
L 295.411917 217.777042 
L 295.740182 205.075036 
L 296.068447 214.619535 
L 296.396713 205.225691 
L 296.724978 217.473088 
L 297.053244 222.616547 
L 297.381509 217.065116 
L 297.709775 204.478515 
L 298.03804 228.989265 
L 298.366306 230.46309 
L 298.694571 224.709309 
L 299.022837 209.421926 
L 299.351102 214.473889 
L 299.679368 204.171898 
L 300.007633 220.814943 
L 300.335899 204.080655 
L 300.664164 219.739532 
L 300.992429 209.347099 
L 301.320695 213.641818 
L 301.64896 205.576762 
L 301.977226 216.316906 
L 302.305491 207.582882 
L 302.633757 214.888892 
L 302.962022 208.068242 
L 303.290288 223.904342 
L 303.618553 206.860594 
L 303.946819 217.240847 
L 304.275084 206.299651 
L 304.60335 213.863087 
L 304.931615 206.992374 
L 305.259881 205.231804 
L 305.588146 201.702247 
L 305.916411 212.39307 
L 306.244677 179.796499 
L 306.572942 224.434206 
L 306.901208 205.275763 
L 307.229473 221.067414 
L 307.557739 205.364867 
L 307.886004 217.834953 
L 308.21427 205.005049 
L 308.542535 220.697622 
L 308.870801 206.385038 
L 309.199066 213.788508 
L 309.527332 208.875736 
L 309.855597 215.887996 
L 310.183862 229.892231 
L 310.840393 206.812017 
L 311.168659 216.759789 
L 311.496924 202.624135 
L 311.82519 225.517412 
L 312.153455 206.675913 
L 312.481721 216.543561 
L 312.809986 206.132669 
L 313.138252 215.574774 
L 313.466517 214.14032 
L 313.794783 215.96955 
L 314.123048 205.308198 
L 314.451314 213.703782 
L 314.779579 200.289173 
L 315.107844 216.853483 
L 315.43611 206.265553 
L 315.764375 214.092553 
L 316.092641 209.968576 
L 316.420906 217.481381 
L 316.749172 210.291054 
L 317.077437 218.797306 
L 317.405703 204.997916 
L 317.733968 216.413856 
L 318.062234 204.382203 
L 318.390499 218.605772 
L 318.718765 205.223362 
L 319.04703 217.966396 
L 319.375296 207.217213 
L 319.703561 218.307248 
L 320.031826 206.103696 
L 320.360092 215.997146 
L 320.688357 203.906527 
L 321.016623 217.243155 
L 321.344888 204.770871 
L 321.673154 220.337183 
L 322.001419 203.212067 
L 322.329685 213.852685 
L 322.65795 204.880646 
L 322.986216 217.46955 
L 323.314481 204.706952 
L 323.642747 215.402965 
L 323.971012 207.567815 
L 324.299278 219.250723 
L 324.627543 207.547745 
L 324.955808 218.640661 
L 325.284074 207.902379 
L 325.612339 224.424113 
L 325.940605 203.407679 
L 326.26887 215.092327 
L 326.597136 208.196002 
L 326.925401 215.546895 
L 327.253667 207.278018 
L 327.581932 216.245626 
L 327.910198 214.052576 
L 328.238463 219.010378 
L 328.566729 183.145095 
L 328.894994 220.39167 
L 329.223259 209.621828 
L 329.551525 219.333775 
L 329.87979 197.220158 
L 330.208056 218.577413 
L 330.536321 207.136418 
L 330.864587 218.477643 
L 331.192852 204.868318 
L 331.521118 219.594694 
L 331.849383 211.158675 
L 332.177649 217.803646 
L 332.505914 210.947564 
L 332.83418 215.66877 
L 333.162445 206.784726 
L 333.490711 218.615242 
L 333.818976 207.713011 
L 334.147241 220.879282 
L 334.475507 205.816261 
L 334.803772 210.323253 
L 335.132038 206.594441 
L 335.460303 220.39243 
L 335.788569 208.822399 
L 336.116834 216.395837 
L 336.4451 207.956314 
L 336.773365 219.350409 
L 337.101631 205.105536 
L 337.429896 218.323422 
L 337.758162 205.534053 
L 338.086427 229.544256 
L 338.414693 208.501635 
L 338.742958 213.350871 
L 339.071223 208.566337 
L 339.399489 211.775379 
L 339.727754 197.821855 
L 340.05602 220.532508 
L 340.384285 212.635013 
L 340.712551 198.621857 
L 341.040816 195.380968 
L 341.369082 251.027663 
L 341.697347 220.528551 
L 342.353878 209.739971 
L 342.682144 197.10399 
L 343.010409 210.788417 
L 343.338675 215.618667 
L 343.995205 197.338518 
L 344.651736 221.183032 
L 344.980002 206.914327 
L 345.308267 218.022836 
L 345.636533 183.352067 
L 345.964798 217.228044 
L 346.293064 200.948749 
L 346.621329 198.792359 
L 346.949595 167.160138 
L 347.27786 216.781013 
L 347.606126 199.938313 
L 347.934391 215.700018 
L 348.262656 194.362661 
L 348.590922 210.113075 
L 348.919187 198.971409 
L 349.247453 217.181424 
L 349.575718 178.708758 
L 349.903984 223.926105 
L 350.232249 208.157842 
L 350.560515 216.374627 
L 350.88878 186.220622 
L 351.217046 225.497798 
L 351.545311 205.690502 
L 351.873577 217.177314 
L 352.201842 210.411934 
L 352.530108 221.650939 
L 352.858373 210.148376 
L 353.186638 219.293908 
L 353.514904 205.427211 
L 353.843169 186.293455 
L 354.171435 211.048899 
L 354.4997 220.026382 
L 354.827966 209.594352 
L 355.156231 203.534965 
L 355.812762 220.625548 
L 356.141028 207.735829 
L 356.469293 201.418021 
L 357.125824 220.907637 
L 357.45409 210.029701 
L 357.782355 213.092589 
L 358.11062 204.146386 
L 358.438886 221.182428 
L 358.767151 205.217522 
L 359.095417 217.856374 
L 359.423682 189.901119 
L 359.751948 220.261161 
L 360.080213 207.76561 
L 360.408479 214.459487 
L 360.736744 197.14297 
L 361.06501 221.715355 
L 361.393275 209.011069 
L 361.721541 218.756152 
L 362.049806 197.396865 
L 362.378072 217.044216 
L 362.706337 209.235594 
L 363.034602 218.440423 
L 363.362868 191.760423 
L 363.691133 215.300962 
L 364.019399 203.658258 
L 364.347664 215.828965 
L 364.67593 181.28093 
L 365.004195 221.630281 
L 365.332461 205.722257 
L 365.660726 217.595046 
L 365.988992 188.823061 
L 366.317257 207.618703 
L 366.645523 209.970988 
L 366.973788 214.385547 
L 367.302053 187.029466 
L 367.630319 219.674248 
L 367.958584 202.534785 
L 368.28685 218.201612 
L 368.615115 197.284146 
L 368.943381 218.605806 
L 369.271646 207.472939 
L 369.599912 217.497111 
L 369.928177 183.363822 
L 370.256443 218.894813 
L 370.584708 207.245953 
L 370.912974 216.341519 
L 371.241239 197.786409 
L 371.569505 220.360129 
L 371.89777 207.086542 
L 372.226035 218.056947 
L 372.554301 193.075227 
L 372.882566 220.330567 
L 373.210832 208.176762 
L 373.539097 218.42243 
L 373.867363 186.058306 
L 374.195628 247.321375 
L 374.523894 193.301706 
L 374.852159 229.979161 
L 375.180425 200.435552 
L 375.50869 221.827036 
L 375.836956 211.792955 
L 376.165221 219.404768 
L 376.493487 200.574787 
L 377.150017 217.649281 
L 377.478283 219.475885 
L 377.806548 205.908798 
L 378.134814 179.016787 
L 378.463079 198.029466 
L 378.791345 225.566091 
L 379.11961 193.090068 
L 379.447876 210.103632 
L 379.776141 213.246774 
L 380.104407 208.77177 
L 380.432672 195.505705 
L 380.760938 211.641132 
L 381.089203 220.865313 
L 381.417469 220.009772 
L 381.745734 211.979092 
L 382.073999 212.368779 
L 382.402265 211.351533 
L 382.73053 217.400828 
L 383.058796 210.895549 
L 383.387061 219.618873 
L 383.715327 212.830301 
L 384.043592 222.702938 
L 384.371858 212.008389 
L 384.700123 217.326971 
L 385.028389 211.662457 
L 385.356654 221.367265 
L 385.68492 210.61647 
L 386.013185 223.660455 
L 386.341451 204.00664 
L 386.669716 218.140873 
L 386.997981 209.112806 
L 387.326247 219.442514 
L 387.654512 213.416241 
L 387.982778 168.221449 
L 388.311043 178.632733 
L 388.639309 224.672231 
L 388.967574 232.741689 
L 389.624105 212.66072 
L 389.952371 221.20705 
L 390.280636 211.158404 
L 390.608902 221.588735 
L 390.937167 211.467127 
L 391.265432 222.488812 
L 391.593698 207.937493 
L 391.921963 216.949213 
L 392.250229 197.311049 
L 392.578494 221.388835 
L 392.90676 209.679515 
L 393.235025 221.261308 
L 393.563291 205.26109 
L 393.891556 222.461388 
L 394.219822 213.870455 
L 394.548087 219.488305 
L 394.876353 208.547178 
L 395.204618 225.743761 
L 395.532884 210.38052 
L 395.861149 221.240932 
L 396.189414 207.434923 
L 396.51768 214.586972 
L 396.845945 209.046735 
L 397.174211 219.360698 
L 397.502476 209.813991 
L 397.830742 212.328359 
L 398.159007 200.870522 
L 398.487273 221.849612 
L 398.487273 221.849612 
" style="fill:none;stroke:#1f77b4;stroke-linecap:square;stroke-width:1.5;"/>
   </g>
   <g id="patch_3">
    <path d="M 57.6 307.584 
L 57.6 41.472 
" style="fill:none;stroke:#000000;stroke-linecap:square;stroke-linejoin:miter;stroke-width:0.8;"/>
   </g>
   <g id="patch_4">
    <path d="M 414.72 307.584 
L 414.72 41.472 
" style="fill:none;stroke:#000000;stroke-linecap:square;stroke-linejoin:miter;stroke-width:0.8;"/>
   </g>
   <g id="patch_5">
    <path d="M 57.6 307.584 
L 414.72 307.584 
" style="fill:none;stroke:#000000;stroke-linecap:square;stroke-linejoin:miter;stroke-width:0.8;"/>
   </g>
   <g id="patch_6">
    <path d="M 57.6 41.472 
L 414.72 41.472 
" style="fill:none;stroke:#000000;stroke-linecap:square;stroke-linejoin:miter;stroke-width:0.8;"/>
   </g>
   <g id="text_18">
    <!-- KAMA Speedup -->
    <defs>
     <path d="M 9.8125 72.90625 
L 19.671875 72.90625 
L 19.671875 42.09375 
L 52.390625 72.90625 
L 65.09375 72.90625 
L 28.90625 38.921875 
L 67.671875 0 
L 54.6875 0 
L 19.671875 35.109375 
L 19.671875 0 
L 9.8125 0 
z
" id="DejaVuSans-75"/>
     <path d="M 34.1875 63.1875 
L 20.796875 26.90625 
L 47.609375 26.90625 
z
M 28.609375 72.90625 
L 39.796875 72.90625 
L 67.578125 0 
L 57.328125 0 
L 50.6875 18.703125 
L 17.828125 18.703125 
L 11.1875 0 
L 0.78125 0 
z
" id="DejaVuSans-65"/>
     <path d="M 9.8125 72.90625 
L 24.515625 72.90625 
L 43.109375 23.296875 
L 61.8125 72.90625 
L 76.515625 72.90625 
L 76.515625 0 
L 66.890625 0 
L 66.890625 64.015625 
L 48.09375 14.015625 
L 38.1875 14.015625 
L 19.390625 64.015625 
L 19.390625 0 
L 9.8125 0 
z
" id="DejaVuSans-77"/>
     <path id="DejaVuSans-32"/>
     <path d="M 53.515625 70.515625 
L 53.515625 60.890625 
Q 47.90625 63.578125 42.921875 64.890625 
Q 37.9375 66.21875 33.296875 66.21875 
Q 25.25 66.21875 20.875 63.09375 
Q 16.5 59.96875 16.5 54.203125 
Q 16.5 49.359375 19.40625 46.890625 
Q 22.3125 44.4375 30.421875 42.921875 
L 36.375 41.703125 
Q 47.40625 39.59375 52.65625 34.296875 
Q 57.90625 29 57.90625 20.125 
Q 57.90625 9.515625 50.796875 4.046875 
Q 43.703125 -1.421875 29.984375 -1.421875 
Q 24.8125 -1.421875 18.96875 -0.25 
Q 13.140625 0.921875 6.890625 3.21875 
L 6.890625 13.375 
Q 12.890625 10.015625 18.65625 8.296875 
Q 24.421875 6.59375 29.984375 6.59375 
Q 38.421875 6.59375 43.015625 9.90625 
Q 47.609375 13.234375 47.609375 19.390625 
Q 47.609375 24.75 44.3125 27.78125 
Q 41.015625 30.8125 33.5 32.328125 
L 27.484375 33.5 
Q 16.453125 35.6875 11.515625 40.375 
Q 6.59375 45.0625 6.59375 53.421875 
Q 6.59375 63.09375 13.40625 68.65625 
Q 20.21875 74.21875 32.171875 74.21875 
Q 37.3125 74.21875 42.625 73.28125 
Q 47.953125 72.359375 53.515625 70.515625 
z
" id="DejaVuSans-83"/>
    </defs>
    <g transform="translate(190.615313 35.472)scale(0.12 -0.12)">
     <use xlink:href="#DejaVuSans-75"/>
     <use x="63.826172" xlink:href="#DejaVuSans-65"/>
     <use x="132.234375" xlink:href="#DejaVuSans-77"/>
     <use x="218.513672" xlink:href="#DejaVuSans-65"/>
     <use x="286.921875" xlink:href="#DejaVuSans-32"/>
     <use x="318.708984" xlink:href="#DejaVuSans-83"/>
     <use x="382.185547" xlink:href="#DejaVuSans-112"/>
     <use x="445.662109" xlink:href="#DejaVuSans-101"/>
     <use x="507.185547" xlink:href="#DejaVuSans-101"/>
     <use x="568.708984" xlink:href="#DejaVuSans-100"/>
     <use x="632.185547" xlink:href="#DejaVuSans-117"/>
     <use x="695.564453" xlink:href="#DejaVuSans-112"/>
    </g>
   </g>
  </g>
 </g>
 <defs>
  <clipPath id="p73936e8aab">
   <rect height="266.112" width="357.12" x="57.6" y="41.472"/>
  </clipPath>
 </defs>
</svg>
