<?xml version="1.0" encoding="utf-8" standalone="no"?>
<!DOCTYPE svg PUBLIC "-//W3C//DTD SVG 1.1//EN"
  "http://www.w3.org/Graphics/SVG/1.1/DTD/svg11.dtd">
<!-- Created with matplotlib (https://matplotlib.org/) -->
<svg height="345.6pt" version="1.1" viewBox="0 0 460.8 345.6" width="460.8pt" xmlns="http://www.w3.org/2000/svg" xmlns:xlink="http://www.w3.org/1999/xlink">
 <defs>
  <style type="text/css">
*{stroke-linecap:butt;stroke-linejoin:round;}
  </style>
 </defs>
 <g id="figure_1">
  <g id="patch_1">
   <path d="M 0 345.6 
L 460.8 345.6 
L 460.8 0 
L 0 0 
z
" style="fill:#ffffff;"/>
  </g>
  <g id="axes_1">
   <g id="patch_2">
    <path d="M 57.6 307.584 
L 414.72 307.584 
L 414.72 41.472 
L 57.6 41.472 
z
" style="fill:#ffffff;"/>
   </g>
   <g id="matplotlib.axis_1">
    <g id="xtick_1">
     <g id="line2d_1">
      <defs>
       <path d="M 0 0 
L 0 3.5 
" id="mf017c9e91d" style="stroke:#000000;stroke-width:0.8;"/>
      </defs>
      <g>
       <use style="stroke:#000000;stroke-width:0.8;" x="106.659274" xlink:href="#mf017c9e91d" y="307.584"/>
      </g>
     </g>
     <g id="text_1">
      <!-- 100.0 -->
      <defs>
       <path d="M 12.40625 8.296875 
L 28.515625 8.296875 
L 28.515625 63.921875 
L 10.984375 60.40625 
L 10.984375 69.390625 
L 28.421875 72.90625 
L 38.28125 72.90625 
L 38.28125 8.296875 
L 54.390625 8.296875 
L 54.390625 0 
L 12.40625 0 
z
" id="DejaVuSans-49"/>
       <path d="M 31.78125 66.40625 
Q 24.171875 66.40625 20.328125 58.90625 
Q 16.5 51.421875 16.5 36.375 
Q 16.5 21.390625 20.328125 13.890625 
Q 24.171875 6.390625 31.78125 6.390625 
Q 39.453125 6.390625 43.28125 13.890625 
Q 47.125 21.390625 47.125 36.375 
Q 47.125 51.421875 43.28125 58.90625 
Q 39.453125 66.40625 31.78125 66.40625 
z
M 31.78125 74.21875 
Q 44.046875 74.21875 50.515625 64.515625 
Q 56.984375 54.828125 56.984375 36.375 
Q 56.984375 17.96875 50.515625 8.265625 
Q 44.046875 -1.421875 31.78125 -1.421875 
Q 19.53125 -1.421875 13.0625 8.265625 
Q 6.59375 17.96875 6.59375 36.375 
Q 6.59375 54.828125 13.0625 64.515625 
Q 19.53125 74.21875 31.78125 74.21875 
z
" id="DejaVuSans-48"/>
       <path d="M 10.6875 12.40625 
L 21 12.40625 
L 21 0 
L 10.6875 0 
z
" id="DejaVuSans-46"/>
      </defs>
      <g transform="translate(92.345211 322.182437)scale(0.1 -0.1)">
       <use xlink:href="#DejaVuSans-49"/>
       <use x="63.623047" xlink:href="#DejaVuSans-48"/>
       <use x="127.246094" xlink:href="#DejaVuSans-48"/>
       <use x="190.869141" xlink:href="#DejaVuSans-46"/>
       <use x="222.65625" xlink:href="#DejaVuSans-48"/>
      </g>
     </g>
    </g>
    <g id="xtick_2">
     <g id="line2d_2">
      <g>
       <use style="stroke:#000000;stroke-width:0.8;" x="139.48582" xlink:href="#mf017c9e91d" y="307.584"/>
      </g>
     </g>
     <g id="text_2">
      <!-- 200.0 -->
      <defs>
       <path d="M 19.1875 8.296875 
L 53.609375 8.296875 
L 53.609375 0 
L 7.328125 0 
L 7.328125 8.296875 
Q 12.9375 14.109375 22.625 23.890625 
Q 32.328125 33.6875 34.8125 36.53125 
Q 39.546875 41.84375 41.421875 45.53125 
Q 43.3125 49.21875 43.3125 52.78125 
Q 43.3125 58.59375 39.234375 62.25 
Q 35.15625 65.921875 28.609375 65.921875 
Q 23.96875 65.921875 18.8125 64.3125 
Q 13.671875 62.703125 7.8125 59.421875 
L 7.8125 69.390625 
Q 13.765625 71.78125 18.9375 73 
Q 24.125 74.21875 28.421875 74.21875 
Q 39.75 74.21875 46.484375 68.546875 
Q 53.21875 62.890625 53.21875 53.421875 
Q 53.21875 48.921875 51.53125 44.890625 
Q 49.859375 40.875 45.40625 35.40625 
Q 44.1875 33.984375 37.640625 27.21875 
Q 31.109375 20.453125 19.1875 8.296875 
z
" id="DejaVuSans-50"/>
      </defs>
      <g transform="translate(125.171758 322.182437)scale(0.1 -0.1)">
       <use xlink:href="#DejaVuSans-50"/>
       <use x="63.623047" xlink:href="#DejaVuSans-48"/>
       <use x="127.246094" xlink:href="#DejaVuSans-48"/>
       <use x="190.869141" xlink:href="#DejaVuSans-46"/>
       <use x="222.65625" xlink:href="#DejaVuSans-48"/>
      </g>
     </g>
    </g>
    <g id="xtick_3">
     <g id="line2d_3">
      <g>
       <use style="stroke:#000000;stroke-width:0.8;" x="172.312367" xlink:href="#mf017c9e91d" y="307.584"/>
      </g>
     </g>
     <g id="text_3">
      <!-- 300.0 -->
      <defs>
       <path d="M 40.578125 39.3125 
Q 47.65625 37.796875 51.625 33 
Q 55.609375 28.21875 55.609375 21.1875 
Q 55.609375 10.40625 48.1875 4.484375 
Q 40.765625 -1.421875 27.09375 -1.421875 
Q 22.515625 -1.421875 17.65625 -0.515625 
Q 12.796875 0.390625 7.625 2.203125 
L 7.625 11.71875 
Q 11.71875 9.328125 16.59375 8.109375 
Q 21.484375 6.890625 26.8125 6.890625 
Q 36.078125 6.890625 40.9375 10.546875 
Q 45.796875 14.203125 45.796875 21.1875 
Q 45.796875 27.640625 41.28125 31.265625 
Q 36.765625 34.90625 28.71875 34.90625 
L 20.21875 34.90625 
L 20.21875 43.015625 
L 29.109375 43.015625 
Q 36.375 43.015625 40.234375 45.921875 
Q 44.09375 48.828125 44.09375 54.296875 
Q 44.09375 59.90625 40.109375 62.90625 
Q 36.140625 65.921875 28.71875 65.921875 
Q 24.65625 65.921875 20.015625 65.03125 
Q 15.375 64.15625 9.8125 62.3125 
L 9.8125 71.09375 
Q 15.4375 72.65625 20.34375 73.4375 
Q 25.25 74.21875 29.59375 74.21875 
Q 40.828125 74.21875 47.359375 69.109375 
Q 53.90625 64.015625 53.90625 55.328125 
Q 53.90625 49.265625 50.4375 45.09375 
Q 46.96875 40.921875 40.578125 39.3125 
z
" id="DejaVuSans-51"/>
      </defs>
      <g transform="translate(157.998304 322.182437)scale(0.1 -0.1)">
       <use xlink:href="#DejaVuSans-51"/>
       <use x="63.623047" xlink:href="#DejaVuSans-48"/>
       <use x="127.246094" xlink:href="#DejaVuSans-48"/>
       <use x="190.869141" xlink:href="#DejaVuSans-46"/>
       <use x="222.65625" xlink:href="#DejaVuSans-48"/>
      </g>
     </g>
    </g>
    <g id="xtick_4">
     <g id="line2d_4">
      <g>
       <use style="stroke:#000000;stroke-width:0.8;" x="205.138914" xlink:href="#mf017c9e91d" y="307.584"/>
      </g>
     </g>
     <g id="text_4">
      <!-- 400.0 -->
      <defs>
       <path d="M 37.796875 64.3125 
L 12.890625 25.390625 
L 37.796875 25.390625 
z
M 35.203125 72.90625 
L 47.609375 72.90625 
L 47.609375 25.390625 
L 58.015625 25.390625 
L 58.015625 17.1875 
L 47.609375 17.1875 
L 47.609375 0 
L 37.796875 0 
L 37.796875 17.1875 
L 4.890625 17.1875 
L 4.890625 26.703125 
z
" id="DejaVuSans-52"/>
      </defs>
      <g transform="translate(190.824851 322.182437)scale(0.1 -0.1)">
       <use xlink:href="#DejaVuSans-52"/>
       <use x="63.623047" xlink:href="#DejaVuSans-48"/>
       <use x="127.246094" xlink:href="#DejaVuSans-48"/>
       <use x="190.869141" xlink:href="#DejaVuSans-46"/>
       <use x="222.65625" xlink:href="#DejaVuSans-48"/>
      </g>
     </g>
    </g>
    <g id="xtick_5">
     <g id="line2d_5">
      <g>
       <use style="stroke:#000000;stroke-width:0.8;" x="237.96546" xlink:href="#mf017c9e91d" y="307.584"/>
      </g>
     </g>
     <g id="text_5">
      <!-- 500.0 -->
      <defs>
       <path d="M 10.796875 72.90625 
L 49.515625 72.90625 
L 49.515625 64.59375 
L 19.828125 64.59375 
L 19.828125 46.734375 
Q 21.96875 47.46875 24.109375 47.828125 
Q 26.265625 48.1875 28.421875 48.1875 
Q 40.625 48.1875 47.75 41.5 
Q 54.890625 34.8125 54.890625 23.390625 
Q 54.890625 11.625 47.5625 5.09375 
Q 40.234375 -1.421875 26.90625 -1.421875 
Q 22.3125 -1.421875 17.546875 -0.640625 
Q 12.796875 0.140625 7.71875 1.703125 
L 7.71875 11.625 
Q 12.109375 9.234375 16.796875 8.0625 
Q 21.484375 6.890625 26.703125 6.890625 
Q 35.15625 6.890625 40.078125 11.328125 
Q 45.015625 15.765625 45.015625 23.390625 
Q 45.015625 31 40.078125 35.4375 
Q 35.15625 39.890625 26.703125 39.890625 
Q 22.75 39.890625 18.8125 39.015625 
Q 14.890625 38.140625 10.796875 36.28125 
z
" id="DejaVuSans-53"/>
      </defs>
      <g transform="translate(223.651398 322.182437)scale(0.1 -0.1)">
       <use xlink:href="#DejaVuSans-53"/>
       <use x="63.623047" xlink:href="#DejaVuSans-48"/>
       <use x="127.246094" xlink:href="#DejaVuSans-48"/>
       <use x="190.869141" xlink:href="#DejaVuSans-46"/>
       <use x="222.65625" xlink:href="#DejaVuSans-48"/>
      </g>
     </g>
    </g>
    <g id="xtick_6">
     <g id="line2d_6">
      <g>
       <use style="stroke:#000000;stroke-width:0.8;" x="270.792007" xlink:href="#mf017c9e91d" y="307.584"/>
      </g>
     </g>
     <g id="text_6">
      <!-- 600.0 -->
      <defs>
       <path d="M 33.015625 40.375 
Q 26.375 40.375 22.484375 35.828125 
Q 18.609375 31.296875 18.609375 23.390625 
Q 18.609375 15.53125 22.484375 10.953125 
Q 26.375 6.390625 33.015625 6.390625 
Q 39.65625 6.390625 43.53125 10.953125 
Q 47.40625 15.53125 47.40625 23.390625 
Q 47.40625 31.296875 43.53125 35.828125 
Q 39.65625 40.375 33.015625 40.375 
z
M 52.59375 71.296875 
L 52.59375 62.3125 
Q 48.875 64.0625 45.09375 64.984375 
Q 41.3125 65.921875 37.59375 65.921875 
Q 27.828125 65.921875 22.671875 59.328125 
Q 17.53125 52.734375 16.796875 39.40625 
Q 19.671875 43.65625 24.015625 45.921875 
Q 28.375 48.1875 33.59375 48.1875 
Q 44.578125 48.1875 50.953125 41.515625 
Q 57.328125 34.859375 57.328125 23.390625 
Q 57.328125 12.15625 50.6875 5.359375 
Q 44.046875 -1.421875 33.015625 -1.421875 
Q 20.359375 -1.421875 13.671875 8.265625 
Q 6.984375 17.96875 6.984375 36.375 
Q 6.984375 53.65625 15.1875 63.9375 
Q 23.390625 74.21875 37.203125 74.21875 
Q 40.921875 74.21875 44.703125 73.484375 
Q 48.484375 72.75 52.59375 71.296875 
z
" id="DejaVuSans-54"/>
      </defs>
      <g transform="translate(256.477944 322.182437)scale(0.1 -0.1)">
       <use xlink:href="#DejaVuSans-54"/>
       <use x="63.623047" xlink:href="#DejaVuSans-48"/>
       <use x="127.246094" xlink:href="#DejaVuSans-48"/>
       <use x="190.869141" xlink:href="#DejaVuSans-46"/>
       <use x="222.65625" xlink:href="#DejaVuSans-48"/>
      </g>
     </g>
    </g>
    <g id="xtick_7">
     <g id="line2d_7">
      <g>
       <use style="stroke:#000000;stroke-width:0.8;" x="303.618553" xlink:href="#mf017c9e91d" y="307.584"/>
      </g>
     </g>
     <g id="text_7">
      <!-- 700.0 -->
      <defs>
       <path d="M 8.203125 72.90625 
L 55.078125 72.90625 
L 55.078125 68.703125 
L 28.609375 0 
L 18.3125 0 
L 43.21875 64.59375 
L 8.203125 64.59375 
z
" id="DejaVuSans-55"/>
      </defs>
      <g transform="translate(289.304491 322.182437)scale(0.1 -0.1)">
       <use xlink:href="#DejaVuSans-55"/>
       <use x="63.623047" xlink:href="#DejaVuSans-48"/>
       <use x="127.246094" xlink:href="#DejaVuSans-48"/>
       <use x="190.869141" xlink:href="#DejaVuSans-46"/>
       <use x="222.65625" xlink:href="#DejaVuSans-48"/>
      </g>
     </g>
    </g>
    <g id="xtick_8">
     <g id="line2d_8">
      <g>
       <use style="stroke:#000000;stroke-width:0.8;" x="336.4451" xlink:href="#mf017c9e91d" y="307.584"/>
      </g>
     </g>
     <g id="text_8">
      <!-- 800.0 -->
      <defs>
       <path d="M 31.78125 34.625 
Q 24.75 34.625 20.71875 30.859375 
Q 16.703125 27.09375 16.703125 20.515625 
Q 16.703125 13.921875 20.71875 10.15625 
Q 24.75 6.390625 31.78125 6.390625 
Q 38.8125 6.390625 42.859375 10.171875 
Q 46.921875 13.96875 46.921875 20.515625 
Q 46.921875 27.09375 42.890625 30.859375 
Q 38.875 34.625 31.78125 34.625 
z
M 21.921875 38.8125 
Q 15.578125 40.375 12.03125 44.71875 
Q 8.5 49.078125 8.5 55.328125 
Q 8.5 64.0625 14.71875 69.140625 
Q 20.953125 74.21875 31.78125 74.21875 
Q 42.671875 74.21875 48.875 69.140625 
Q 55.078125 64.0625 55.078125 55.328125 
Q 55.078125 49.078125 51.53125 44.71875 
Q 48 40.375 41.703125 38.8125 
Q 48.828125 37.15625 52.796875 32.3125 
Q 56.78125 27.484375 56.78125 20.515625 
Q 56.78125 9.90625 50.3125 4.234375 
Q 43.84375 -1.421875 31.78125 -1.421875 
Q 19.734375 -1.421875 13.25 4.234375 
Q 6.78125 9.90625 6.78125 20.515625 
Q 6.78125 27.484375 10.78125 32.3125 
Q 14.796875 37.15625 21.921875 38.8125 
z
M 18.3125 54.390625 
Q 18.3125 48.734375 21.84375 45.5625 
Q 25.390625 42.390625 31.78125 42.390625 
Q 38.140625 42.390625 41.71875 45.5625 
Q 45.3125 48.734375 45.3125 54.390625 
Q 45.3125 60.0625 41.71875 63.234375 
Q 38.140625 66.40625 31.78125 66.40625 
Q 25.390625 66.40625 21.84375 63.234375 
Q 18.3125 60.0625 18.3125 54.390625 
z
" id="DejaVuSans-56"/>
      </defs>
      <g transform="translate(322.131037 322.182437)scale(0.1 -0.1)">
       <use xlink:href="#DejaVuSans-56"/>
       <use x="63.623047" xlink:href="#DejaVuSans-48"/>
       <use x="127.246094" xlink:href="#DejaVuSans-48"/>
       <use x="190.869141" xlink:href="#DejaVuSans-46"/>
       <use x="222.65625" xlink:href="#DejaVuSans-48"/>
      </g>
     </g>
    </g>
    <g id="xtick_9">
     <g id="line2d_9">
      <g>
       <use style="stroke:#000000;stroke-width:0.8;" x="369.271646" xlink:href="#mf017c9e91d" y="307.584"/>
      </g>
     </g>
     <g id="text_9">
      <!-- 900.0 -->
      <defs>
       <path d="M 10.984375 1.515625 
L 10.984375 10.5 
Q 14.703125 8.734375 18.5 7.8125 
Q 22.3125 6.890625 25.984375 6.890625 
Q 35.75 6.890625 40.890625 13.453125 
Q 46.046875 20.015625 46.78125 33.40625 
Q 43.953125 29.203125 39.59375 26.953125 
Q 35.25 24.703125 29.984375 24.703125 
Q 19.046875 24.703125 12.671875 31.3125 
Q 6.296875 37.9375 6.296875 49.421875 
Q 6.296875 60.640625 12.9375 67.421875 
Q 19.578125 74.21875 30.609375 74.21875 
Q 43.265625 74.21875 49.921875 64.515625 
Q 56.59375 54.828125 56.59375 36.375 
Q 56.59375 19.140625 48.40625 8.859375 
Q 40.234375 -1.421875 26.421875 -1.421875 
Q 22.703125 -1.421875 18.890625 -0.6875 
Q 15.09375 0.046875 10.984375 1.515625 
z
M 30.609375 32.421875 
Q 37.25 32.421875 41.125 36.953125 
Q 45.015625 41.5 45.015625 49.421875 
Q 45.015625 57.28125 41.125 61.84375 
Q 37.25 66.40625 30.609375 66.40625 
Q 23.96875 66.40625 20.09375 61.84375 
Q 16.21875 57.28125 16.21875 49.421875 
Q 16.21875 41.5 20.09375 36.953125 
Q 23.96875 32.421875 30.609375 32.421875 
z
" id="DejaVuSans-57"/>
      </defs>
      <g transform="translate(354.957584 322.182437)scale(0.1 -0.1)">
       <use xlink:href="#DejaVuSans-57"/>
       <use x="63.623047" xlink:href="#DejaVuSans-48"/>
       <use x="127.246094" xlink:href="#DejaVuSans-48"/>
       <use x="190.869141" xlink:href="#DejaVuSans-46"/>
       <use x="222.65625" xlink:href="#DejaVuSans-48"/>
      </g>
     </g>
    </g>
    <g id="xtick_10">
     <g id="line2d_10">
      <g>
       <use style="stroke:#000000;stroke-width:0.8;" x="402.098193" xlink:href="#mf017c9e91d" y="307.584"/>
      </g>
     </g>
     <g id="text_10">
      <!-- 1000.0 -->
      <g transform="translate(384.60288 322.182437)scale(0.1 -0.1)">
       <use xlink:href="#DejaVuSans-49"/>
       <use x="63.623047" xlink:href="#DejaVuSans-48"/>
       <use x="127.246094" xlink:href="#DejaVuSans-48"/>
       <use x="190.869141" xlink:href="#DejaVuSans-48"/>
       <use x="254.492188" xlink:href="#DejaVuSans-46"/>
       <use x="286.279297" xlink:href="#DejaVuSans-48"/>
      </g>
     </g>
    </g>
    <g id="text_11">
     <!-- n -->
     <defs>
      <path d="M 54.890625 33.015625 
L 54.890625 0 
L 45.90625 0 
L 45.90625 32.71875 
Q 45.90625 40.484375 42.875 44.328125 
Q 39.84375 48.1875 33.796875 48.1875 
Q 26.515625 48.1875 22.3125 43.546875 
Q 18.109375 38.921875 18.109375 30.90625 
L 18.109375 0 
L 9.078125 0 
L 9.078125 54.6875 
L 18.109375 54.6875 
L 18.109375 46.1875 
Q 21.34375 51.125 25.703125 53.5625 
Q 30.078125 56 35.796875 56 
Q 45.21875 56 50.046875 50.171875 
Q 54.890625 44.34375 54.890625 33.015625 
z
" id="DejaVuSans-110"/>
     </defs>
     <g transform="translate(232.99125 335.860562)scale(0.1 -0.1)">
      <use xlink:href="#DejaVuSans-110"/>
     </g>
    </g>
   </g>
   <g id="matplotlib.axis_2">
    <g id="ytick_1">
     <g id="line2d_11">
      <defs>
       <path d="M 0 0 
L -3.5 0 
" id="m4bd9dea838" style="stroke:#000000;stroke-width:0.8;"/>
      </defs>
      <g>
       <use style="stroke:#000000;stroke-width:0.8;" x="57.6" xlink:href="#m4bd9dea838" y="303.670758"/>
      </g>
     </g>
     <g id="text_12">
      <!-- 0 -->
      <g transform="translate(44.2375 307.469977)scale(0.1 -0.1)">
       <use xlink:href="#DejaVuSans-48"/>
      </g>
     </g>
    </g>
    <g id="ytick_2">
     <g id="line2d_12">
      <g>
       <use style="stroke:#000000;stroke-width:0.8;" x="57.6" xlink:href="#m4bd9dea838" y="270.206577"/>
      </g>
     </g>
     <g id="text_13">
      <!-- 100 -->
      <g transform="translate(31.5125 274.005795)scale(0.1 -0.1)">
       <use xlink:href="#DejaVuSans-49"/>
       <use x="63.623047" xlink:href="#DejaVuSans-48"/>
       <use x="127.246094" xlink:href="#DejaVuSans-48"/>
      </g>
     </g>
    </g>
    <g id="ytick_3">
     <g id="line2d_13">
      <g>
       <use style="stroke:#000000;stroke-width:0.8;" x="57.6" xlink:href="#m4bd9dea838" y="236.742395"/>
      </g>
     </g>
     <g id="text_14">
      <!-- 200 -->
      <g transform="translate(31.5125 240.541614)scale(0.1 -0.1)">
       <use xlink:href="#DejaVuSans-50"/>
       <use x="63.623047" xlink:href="#DejaVuSans-48"/>
       <use x="127.246094" xlink:href="#DejaVuSans-48"/>
      </g>
     </g>
    </g>
    <g id="ytick_4">
     <g id="line2d_14">
      <g>
       <use style="stroke:#000000;stroke-width:0.8;" x="57.6" xlink:href="#m4bd9dea838" y="203.278214"/>
      </g>
     </g>
     <g id="text_15">
      <!-- 300 -->
      <g transform="translate(31.5125 207.077433)scale(0.1 -0.1)">
       <use xlink:href="#DejaVuSans-51"/>
       <use x="63.623047" xlink:href="#DejaVuSans-48"/>
       <use x="127.246094" xlink:href="#DejaVuSans-48"/>
      </g>
     </g>
    </g>
    <g id="ytick_5">
     <g id="line2d_15">
      <g>
       <use style="stroke:#000000;stroke-width:0.8;" x="57.6" xlink:href="#m4bd9dea838" y="169.814033"/>
      </g>
     </g>
     <g id="text_16">
      <!-- 400 -->
      <g transform="translate(31.5125 173.613252)scale(0.1 -0.1)">
       <use xlink:href="#DejaVuSans-52"/>
       <use x="63.623047" xlink:href="#DejaVuSans-48"/>
       <use x="127.246094" xlink:href="#DejaVuSans-48"/>
      </g>
     </g>
    </g>
    <g id="ytick_6">
     <g id="line2d_16">
      <g>
       <use style="stroke:#000000;stroke-width:0.8;" x="57.6" xlink:href="#m4bd9dea838" y="136.349852"/>
      </g>
     </g>
     <g id="text_17">
      <!-- 500 -->
      <g transform="translate(31.5125 140.14907)scale(0.1 -0.1)">
       <use xlink:href="#DejaVuSans-53"/>
       <use x="63.623047" xlink:href="#DejaVuSans-48"/>
       <use x="127.246094" xlink:href="#DejaVuSans-48"/>
      </g>
     </g>
    </g>
    <g id="ytick_7">
     <g id="line2d_17">
      <g>
       <use style="stroke:#000000;stroke-width:0.8;" x="57.6" xlink:href="#m4bd9dea838" y="102.88567"/>
      </g>
     </g>
     <g id="text_18">
      <!-- 600 -->
      <g transform="translate(31.5125 106.684889)scale(0.1 -0.1)">
       <use xlink:href="#DejaVuSans-54"/>
       <use x="63.623047" xlink:href="#DejaVuSans-48"/>
       <use x="127.246094" xlink:href="#DejaVuSans-48"/>
      </g>
     </g>
    </g>
    <g id="ytick_8">
     <g id="line2d_18">
      <g>
       <use style="stroke:#000000;stroke-width:0.8;" x="57.6" xlink:href="#m4bd9dea838" y="69.421489"/>
      </g>
     </g>
     <g id="text_19">
      <!-- 700 -->
      <g transform="translate(31.5125 73.220708)scale(0.1 -0.1)">
       <use xlink:href="#DejaVuSans-55"/>
       <use x="63.623047" xlink:href="#DejaVuSans-48"/>
       <use x="127.246094" xlink:href="#DejaVuSans-48"/>
      </g>
     </g>
    </g>
    <g id="text_20">
     <!-- speedup -->
     <defs>
      <path d="M 44.28125 53.078125 
L 44.28125 44.578125 
Q 40.484375 46.53125 36.375 47.5 
Q 32.28125 48.484375 27.875 48.484375 
Q 21.1875 48.484375 17.84375 46.4375 
Q 14.5 44.390625 14.5 40.28125 
Q 14.5 37.15625 16.890625 35.375 
Q 19.28125 33.59375 26.515625 31.984375 
L 29.59375 31.296875 
Q 39.15625 29.25 43.1875 25.515625 
Q 47.21875 21.78125 47.21875 15.09375 
Q 47.21875 7.46875 41.1875 3.015625 
Q 35.15625 -1.421875 24.609375 -1.421875 
Q 20.21875 -1.421875 15.453125 -0.5625 
Q 10.6875 0.296875 5.421875 2 
L 5.421875 11.28125 
Q 10.40625 8.6875 15.234375 7.390625 
Q 20.0625 6.109375 24.8125 6.109375 
Q 31.15625 6.109375 34.5625 8.28125 
Q 37.984375 10.453125 37.984375 14.40625 
Q 37.984375 18.0625 35.515625 20.015625 
Q 33.0625 21.96875 24.703125 23.78125 
L 21.578125 24.515625 
Q 13.234375 26.265625 9.515625 29.90625 
Q 5.8125 33.546875 5.8125 39.890625 
Q 5.8125 47.609375 11.28125 51.796875 
Q 16.75 56 26.8125 56 
Q 31.78125 56 36.171875 55.265625 
Q 40.578125 54.546875 44.28125 53.078125 
z
" id="DejaVuSans-115"/>
      <path d="M 18.109375 8.203125 
L 18.109375 -20.796875 
L 9.078125 -20.796875 
L 9.078125 54.6875 
L 18.109375 54.6875 
L 18.109375 46.390625 
Q 20.953125 51.265625 25.265625 53.625 
Q 29.59375 56 35.59375 56 
Q 45.5625 56 51.78125 48.09375 
Q 58.015625 40.1875 58.015625 27.296875 
Q 58.015625 14.40625 51.78125 6.484375 
Q 45.5625 -1.421875 35.59375 -1.421875 
Q 29.59375 -1.421875 25.265625 0.953125 
Q 20.953125 3.328125 18.109375 8.203125 
z
M 48.6875 27.296875 
Q 48.6875 37.203125 44.609375 42.84375 
Q 40.53125 48.484375 33.40625 48.484375 
Q 26.265625 48.484375 22.1875 42.84375 
Q 18.109375 37.203125 18.109375 27.296875 
Q 18.109375 17.390625 22.1875 11.75 
Q 26.265625 6.109375 33.40625 6.109375 
Q 40.53125 6.109375 44.609375 11.75 
Q 48.6875 17.390625 48.6875 27.296875 
z
" id="DejaVuSans-112"/>
      <path d="M 56.203125 29.59375 
L 56.203125 25.203125 
L 14.890625 25.203125 
Q 15.484375 15.921875 20.484375 11.0625 
Q 25.484375 6.203125 34.421875 6.203125 
Q 39.59375 6.203125 44.453125 7.46875 
Q 49.3125 8.734375 54.109375 11.28125 
L 54.109375 2.78125 
Q 49.265625 0.734375 44.1875 -0.34375 
Q 39.109375 -1.421875 33.890625 -1.421875 
Q 20.796875 -1.421875 13.15625 6.1875 
Q 5.515625 13.8125 5.515625 26.8125 
Q 5.515625 40.234375 12.765625 48.109375 
Q 20.015625 56 32.328125 56 
Q 43.359375 56 49.78125 48.890625 
Q 56.203125 41.796875 56.203125 29.59375 
z
M 47.21875 32.234375 
Q 47.125 39.59375 43.09375 43.984375 
Q 39.0625 48.390625 32.421875 48.390625 
Q 24.90625 48.390625 20.390625 44.140625 
Q 15.875 39.890625 15.1875 32.171875 
z
" id="DejaVuSans-101"/>
      <path d="M 45.40625 46.390625 
L 45.40625 75.984375 
L 54.390625 75.984375 
L 54.390625 0 
L 45.40625 0 
L 45.40625 8.203125 
Q 42.578125 3.328125 38.25 0.953125 
Q 33.9375 -1.421875 27.875 -1.421875 
Q 17.96875 -1.421875 11.734375 6.484375 
Q 5.515625 14.40625 5.515625 27.296875 
Q 5.515625 40.1875 11.734375 48.09375 
Q 17.96875 56 27.875 56 
Q 33.9375 56 38.25 53.625 
Q 42.578125 51.265625 45.40625 46.390625 
z
M 14.796875 27.296875 
Q 14.796875 17.390625 18.875 11.75 
Q 22.953125 6.109375 30.078125 6.109375 
Q 37.203125 6.109375 41.296875 11.75 
Q 45.40625 17.390625 45.40625 27.296875 
Q 45.40625 37.203125 41.296875 42.84375 
Q 37.203125 48.484375 30.078125 48.484375 
Q 22.953125 48.484375 18.875 42.84375 
Q 14.796875 37.203125 14.796875 27.296875 
z
" id="DejaVuSans-100"/>
      <path d="M 8.5 21.578125 
L 8.5 54.6875 
L 17.484375 54.6875 
L 17.484375 21.921875 
Q 17.484375 14.15625 20.5 10.265625 
Q 23.53125 6.390625 29.59375 6.390625 
Q 36.859375 6.390625 41.078125 11.03125 
Q 45.3125 15.671875 45.3125 23.6875 
L 45.3125 54.6875 
L 54.296875 54.6875 
L 54.296875 0 
L 45.3125 0 
L 45.3125 8.40625 
Q 42.046875 3.421875 37.71875 1 
Q 33.40625 -1.421875 27.6875 -1.421875 
Q 18.265625 -1.421875 13.375 4.4375 
Q 8.5 10.296875 8.5 21.578125 
z
M 31.109375 56 
z
" id="DejaVuSans-117"/>
     </defs>
     <g transform="translate(25.432812 195.977219)rotate(-90)scale(0.1 -0.1)">
      <use xlink:href="#DejaVuSans-115"/>
      <use x="52.099609" xlink:href="#DejaVuSans-112"/>
      <use x="115.576172" xlink:href="#DejaVuSans-101"/>
      <use x="177.099609" xlink:href="#DejaVuSans-101"/>
      <use x="238.623047" xlink:href="#DejaVuSans-100"/>
      <use x="302.099609" xlink:href="#DejaVuSans-117"/>
      <use x="365.478516" xlink:href="#DejaVuSans-112"/>
     </g>
    </g>
   </g>
   <g id="line2d_19">
    <path clip-path="url(#pae5431910c)" d="M 73.832727 144.8691 
L 74.160993 168.961755 
L 74.489258 177.022818 
L 74.817524 53.568 
L 75.145789 55.903038 
L 75.80232 68.459242 
L 76.130586 79.120823 
L 76.458851 82.974083 
L 76.787116 77.641136 
L 77.115382 92.740222 
L 77.443647 98.396263 
L 77.771913 98.386137 
L 78.756709 107.297545 
L 79.084975 102.968895 
L 79.41324 115.907388 
L 80.069771 124.247709 
L 80.398037 125.411337 
L 80.726302 133.047272 
L 81.054568 132.71875 
L 81.382833 138.107245 
L 81.711098 141.15044 
L 82.039364 140.712395 
L 82.367629 146.491918 
L 82.695895 147.865858 
L 83.02416 145.304082 
L 83.352426 162.270025 
L 83.680691 153.626303 
L 84.337222 160.385822 
L 84.665488 161.134987 
L 84.993753 165.523982 
L 85.322019 160.382536 
L 85.650284 119.559715 
L 85.978549 166.947545 
L 86.306815 170.902479 
L 86.63508 171.816888 
L 86.963346 174.879825 
L 87.291611 174.747031 
L 87.619877 179.268271 
L 88.604673 184.309006 
L 88.932939 184.94587 
L 89.261204 184.622005 
L 89.58947 187.611918 
L 89.917735 185.31697 
L 90.246001 189.986007 
L 90.902531 195.028177 
L 91.230797 190.867618 
L 91.559062 197.512108 
L 91.887328 197.659234 
L 92.215593 199.523937 
L 92.543859 197.8049 
L 93.20039 200.768422 
L 93.528655 198.553489 
L 93.856921 202.749407 
L 94.185186 204.236948 
L 94.513452 208.505705 
L 94.841717 204.644304 
L 95.169983 206.993924 
L 95.826513 209.40474 
L 96.154779 211.989663 
L 96.483044 209.913169 
L 96.81131 211.599102 
L 97.139575 210.388005 
L 97.467841 210.037495 
L 97.796106 215.452388 
L 98.124372 214.893639 
L 98.452637 216.794772 
L 98.780903 217.895773 
L 99.109168 216.552539 
L 99.437434 218.112265 
L 99.765699 218.350163 
L 100.42223 219.324868 
L 100.750495 220.768788 
L 101.078761 223.109336 
L 101.407026 222.238521 
L 101.735292 223.490987 
L 102.391823 224.413211 
L 102.720088 223.708216 
L 103.048354 225.532574 
L 103.376619 222.983368 
L 103.704885 226.563699 
L 104.03315 226.955484 
L 104.361416 226.534288 
L 104.689681 229.288745 
L 105.017947 226.833146 
L 105.346212 229.357341 
L 106.002743 230.666539 
L 106.331008 230.455519 
L 106.659274 231.153555 
L 106.987539 230.27539 
L 107.315805 232.987524 
L 107.972336 231.810275 
L 108.300601 233.681882 
L 108.628867 234.059176 
L 108.957132 235.048306 
L 109.285398 232.937282 
L 109.613663 225.074905 
L 109.941928 225.860386 
L 110.270194 236.795804 
L 110.598459 237.490896 
L 110.926725 236.966195 
L 111.25499 238.059521 
L 111.583256 238.000409 
L 111.911521 238.938918 
L 112.239787 239.437829 
L 112.568052 237.106279 
L 112.896318 239.971646 
L 113.224583 238.649383 
L 113.552849 231.994377 
L 113.881114 240.555587 
L 114.20938 241.063364 
L 114.537645 242.143275 
L 114.86591 234.70009 
L 115.194176 236.908881 
L 115.522441 247.529249 
L 115.850707 242.707579 
L 116.178972 244.356728 
L 116.835503 244.918117 
L 117.492034 246.268164 
L 117.8203 245.060739 
L 118.476831 246.883098 
L 118.805096 247.249442 
L 119.133362 247.080949 
L 119.461627 247.398215 
L 119.789892 248.58341 
L 120.118158 247.893769 
L 120.446423 241.547963 
L 120.774689 254.260232 
L 121.102954 249.001192 
L 121.43122 249.54925 
L 121.759485 249.207285 
L 122.087751 249.468956 
L 122.416016 250.740172 
L 122.744282 251.374882 
L 123.072547 250.765674 
L 123.400813 250.406221 
L 123.729078 251.539934 
L 124.057344 230.485375 
L 124.385609 252.912426 
L 124.713874 252.512999 
L 125.04214 251.441704 
L 125.370405 253.756695 
L 125.698671 253.03729 
L 126.355202 253.500646 
L 127.011733 254.379553 
L 127.339998 254.293208 
L 127.668264 254.758678 
L 127.996529 254.856761 
L 128.324795 254.549775 
L 128.65306 255.285015 
L 129.309591 255.259316 
L 129.637856 239.725562 
L 129.966122 256.716358 
L 130.294387 256.877509 
L 130.622653 256.420645 
L 130.950918 257.128212 
L 131.607449 257.223044 
L 132.26398 257.760067 
L 132.920511 258.233851 
L 133.248777 258.944887 
L 133.577042 258.709951 
L 134.233573 258.891776 
L 134.561838 269.83782 
L 134.890104 258.956987 
L 135.218369 258.785518 
L 135.8749 259.448079 
L 136.203166 260.345096 
L 136.531431 260.212456 
L 136.859697 266.152843 
L 137.187962 260.248325 
L 137.516228 250.668952 
L 137.844493 260.943294 
L 138.172759 261.287036 
L 138.501024 260.426938 
L 138.829289 261.210548 
L 139.48582 261.905238 
L 140.142351 261.745464 
L 140.470617 261.89986 
L 140.798882 262.397619 
L 141.127148 262.640999 
L 141.455413 262.152109 
L 141.783679 262.345979 
L 142.111944 263.300371 
L 142.44021 263.128452 
L 143.096741 263.967825 
L 143.753271 263.98149 
L 144.081537 264.129635 
L 144.409802 264.403997 
L 144.738068 264.973104 
L 145.066333 264.285413 
L 145.394599 264.735465 
L 145.722864 264.822724 
L 146.379395 260.578419 
L 146.707661 265.870968 
L 147.035926 265.666686 
L 147.692457 266.013647 
L 148.020722 265.925553 
L 148.348988 259.084889 
L 148.677253 266.401998 
L 149.333784 265.321351 
L 149.66205 264.068658 
L 149.990315 266.752792 
L 150.318581 266.42483 
L 150.646846 266.861079 
L 150.975112 266.935086 
L 151.303377 267.225606 
L 151.631643 267.949131 
L 151.959908 267.291875 
L 152.288174 267.617186 
L 152.616439 266.287184 
L 152.944704 267.815531 
L 153.27297 268.161439 
L 153.601235 259.777089 
L 153.929501 267.255977 
L 154.257766 261.851847 
L 154.586032 267.650534 
L 154.914297 267.920271 
L 155.242563 268.810841 
L 155.570828 268.460398 
L 155.899094 269.230913 
L 156.227359 269.364518 
L 156.555625 268.983836 
L 156.88389 269.149808 
L 157.212156 269.608876 
L 157.540421 269.565429 
L 157.868686 268.309831 
L 158.196952 269.849979 
L 158.525217 269.949733 
L 158.853483 259.266446 
L 159.181748 270.551841 
L 159.510014 270.05363 
L 159.838279 268.777188 
L 160.166545 270.280921 
L 160.49481 270.311856 
L 160.823076 270.077327 
L 161.151341 270.661104 
L 161.479607 270.586998 
L 161.807872 270.773634 
L 162.136138 271.173434 
L 162.792668 271.100806 
L 163.120934 269.861802 
L 163.449199 271.602094 
L 163.777465 271.105776 
L 164.10573 271.136608 
L 164.762261 272.188901 
L 165.090527 270.716648 
L 165.418792 271.983945 
L 165.747058 272.079719 
L 166.075323 271.888794 
L 166.403589 272.350567 
L 166.731854 272.510009 
L 167.060119 272.84235 
L 167.388385 272.193712 
L 167.71665 273.075335 
L 168.044916 272.798212 
L 168.373181 266.289361 
L 168.701447 274.330138 
L 169.029712 272.571378 
L 169.357978 268.871286 
L 169.686243 272.872749 
L 170.014509 267.772776 
L 170.342774 271.076624 
L 170.67104 273.250041 
L 170.999305 273.489456 
L 171.327571 273.575555 
L 171.655836 273.795112 
L 172.312367 273.825678 
L 172.640632 273.999221 
L 172.968898 274.337561 
L 173.297163 274.106613 
L 173.625429 274.245984 
L 174.28196 274.228475 
L 174.610225 270.905818 
L 174.938491 272.150017 
L 175.266756 272.345941 
L 175.923287 275.838644 
L 176.251553 274.720192 
L 176.579818 274.441612 
L 177.236349 275.239384 
L 177.564614 274.698593 
L 177.89288 275.182443 
L 178.549411 274.7194 
L 178.877676 275.131784 
L 179.205942 274.527242 
L 179.534207 274.406598 
L 179.862473 274.123782 
L 180.190738 274.307788 
L 180.519004 273.675105 
L 180.847269 275.173467 
L 181.175535 274.307281 
L 181.5038 272.340218 
L 181.832065 277.097491 
L 182.160331 274.169259 
L 182.488596 275.982473 
L 183.145127 273.224391 
L 183.473393 275.075666 
L 183.801658 268.68122 
L 184.129924 270.700038 
L 184.458189 271.138958 
L 184.786455 271.913211 
L 185.442986 278.484353 
L 185.771251 273.812086 
L 186.099516 275.174469 
L 186.427782 275.331615 
L 186.756047 275.72911 
L 187.084313 278.117341 
L 187.412578 274.802698 
L 187.740844 274.345599 
L 188.069109 274.930853 
L 188.397375 275.192658 
L 188.72564 274.075374 
L 189.053906 279.430447 
L 189.710437 273.836722 
L 190.038702 276.831277 
L 190.366968 277.337567 
L 190.695233 276.041161 
L 191.023498 277.702621 
L 191.351764 278.280052 
L 191.680029 277.700692 
L 192.33656 278.565515 
L 192.664826 278.352858 
L 192.993091 278.399954 
L 193.321357 278.624171 
L 193.649622 272.127005 
L 193.977888 268.768058 
L 194.306153 278.463175 
L 194.634419 278.742913 
L 194.962684 278.63892 
L 195.29095 279.057831 
L 195.619215 278.897227 
L 195.94748 278.929682 
L 196.275746 278.830447 
L 196.604011 277.817452 
L 196.932277 277.423837 
L 197.260542 277.999445 
L 197.588808 276.632083 
L 197.917073 277.003664 
L 198.245339 277.17653 
L 198.573604 271.643175 
L 198.90187 279.456524 
L 199.230135 279.345369 
L 199.886666 279.60852 
L 200.214932 279.694261 
L 200.543197 279.579884 
L 200.871462 279.863055 
L 201.199728 278.963157 
L 201.527993 279.748743 
L 201.856259 279.802031 
L 202.184524 279.997145 
L 202.51279 279.8477 
L 202.841055 280.027281 
L 203.169321 278.627053 
L 203.497586 278.404456 
L 203.825852 280.060454 
L 204.154117 279.941133 
L 204.810648 280.259089 
L 205.138914 280.477254 
L 205.467179 280.363679 
L 205.795444 280.700204 
L 206.12371 280.500931 
L 206.451975 280.687033 
L 206.780241 280.689863 
L 207.108506 280.853158 
L 207.436772 281.914576 
L 207.765037 280.753988 
L 208.093303 277.353094 
L 208.421568 280.997247 
L 208.749834 280.876106 
L 209.078099 281.020024 
L 210.391161 281.133005 
L 210.719426 281.382184 
L 211.047692 281.12764 
L 211.375957 281.050853 
L 211.704223 281.388289 
L 212.032488 281.30046 
L 212.689019 281.508028 
L 213.017285 281.518978 
L 213.34555 281.743945 
L 213.673816 281.578585 
L 215.315143 281.812274 
L 215.643408 282.055984 
L 215.971674 282.091394 
L 216.299939 281.913395 
L 216.628205 282.075562 
L 217.941267 282.222943 
L 218.269532 282.38786 
L 218.926063 282.331662 
L 219.254329 282.414711 
L 219.582594 282.362828 
L 219.910859 282.485535 
L 220.239125 282.734353 
L 220.56739 282.537822 
L 220.895656 280.535106 
L 221.223921 282.580733 
L 221.552187 282.799629 
L 221.880452 282.609117 
L 222.208718 280.55402 
L 222.536983 285.68894 
L 222.865249 282.817268 
L 223.193514 282.699721 
L 223.52178 282.924173 
L 223.850045 282.694055 
L 224.178311 285.465798 
L 224.506576 282.930785 
L 225.163107 282.983623 
L 225.491372 283.120279 
L 225.819638 285.503612 
L 226.147903 283.121015 
L 226.804434 283.263586 
L 227.1327 283.220386 
L 227.460965 285.586707 
L 227.789231 274.343751 
L 228.117496 281.423724 
L 228.445762 279.523697 
L 228.774027 283.44704 
L 231.728416 283.80171 
L 232.056682 285.971359 
L 232.384947 283.650042 
L 232.713213 283.89612 
L 233.369744 283.945802 
L 233.698009 284.105501 
L 234.35454 283.890211 
L 234.682805 284.121397 
L 235.011071 283.929534 
L 235.339336 284.168433 
L 235.667602 284.232684 
L 235.995867 286.283595 
L 236.324133 284.238159 
L 239.278522 284.61805 
L 241.57638 284.633453 
L 241.904646 283.055744 
L 242.232911 284.842675 
L 242.561177 284.745795 
L 242.889442 284.829712 
L 243.217708 284.756888 
L 244.530769 284.935954 
L 244.859035 274.193468 
L 245.1873 284.992767 
L 245.843831 285.053391 
L 246.172097 285.180345 
L 246.500362 285.101895 
L 246.828628 285.468943 
L 247.156893 285.207619 
L 247.485159 285.175477 
L 248.141689 285.342589 
L 248.79822 285.198626 
L 249.126486 285.411057 
L 250.439548 285.460622 
L 250.767813 285.678966 
L 251.096079 285.587908 
L 252.080875 285.753806 
L 252.409141 285.654536 
L 252.737406 285.786657 
L 253.065671 285.791368 
L 253.393937 285.911214 
L 253.722202 285.81747 
L 254.050468 280.033138 
L 254.378733 286.033355 
L 254.706999 285.852552 
L 255.035264 286.007396 
L 255.691795 285.933583 
L 256.020061 286.066155 
L 256.348326 286.033242 
L 256.676592 286.143992 
L 257.333123 286.012049 
L 258.317919 286.214179 
L 258.646184 286.142208 
L 258.97445 286.326995 
L 259.630981 286.345776 
L 259.959246 286.47888 
L 260.287512 286.383439 
L 260.615777 284.504741 
L 260.944043 286.454283 
L 261.272308 286.515615 
L 261.600574 286.446821 
L 261.928839 288.089419 
L 262.257105 286.480344 
L 262.913635 286.502709 
L 263.241901 285.911104 
L 263.570166 286.507925 
L 264.883228 286.625 
L 265.211494 283.768462 
L 265.539759 285.646621 
L 265.868025 286.326899 
L 266.19629 286.670661 
L 266.852821 286.911636 
L 267.181086 286.823779 
L 268.165883 286.952586 
L 268.494148 286.884859 
L 269.150679 287.059196 
L 269.478945 286.559762 
L 269.80721 287.150673 
L 270.135476 287.102539 
L 270.463741 285.923242 
L 270.792007 288.261116 
L 271.120272 287.048034 
L 271.448538 284.342598 
L 271.776803 287.174876 
L 272.105068 287.050502 
L 272.433334 287.337617 
L 272.761599 287.241854 
L 273.089865 287.027552 
L 273.41813 287.858223 
L 273.746396 287.110765 
L 274.074661 287.405089 
L 274.731192 287.327089 
L 275.059458 285.031013 
L 275.387723 287.569091 
L 275.715989 287.349552 
L 276.044254 287.504332 
L 276.700785 287.563055 
L 278.342112 287.568936 
L 279.326909 287.954577 
L 279.655174 287.66707 
L 280.311705 287.753778 
L 280.639971 287.390891 
L 280.968236 287.388501 
L 281.296502 283.498575 
L 281.624767 287.86051 
L 281.953032 287.769411 
L 282.281298 287.950145 
L 282.609563 287.825256 
L 283.266094 287.877186 
L 283.59436 287.990723 
L 283.922625 289.24992 
L 284.250891 288.003639 
L 284.579156 288.098918 
L 284.907422 287.941996 
L 285.235687 288.126483 
L 285.892218 288.087379 
L 288.518342 288.265727 
L 288.846607 288.073917 
L 289.174873 288.368946 
L 289.503138 288.325873 
L 289.831404 287.933249 
L 290.159669 285.332037 
L 290.487935 288.32096 
L 290.8162 288.403926 
L 291.144465 288.637558 
L 291.472731 288.477886 
L 294.42712 288.648704 
L 294.755386 288.549141 
L 295.083651 288.709917 
L 295.411917 289.87995 
L 295.740182 288.727888 
L 296.068447 287.146149 
L 296.396713 288.729436 
L 296.724978 288.767991 
L 297.053244 291.576595 
L 297.381509 288.920325 
L 297.709775 288.758639 
L 298.366306 288.871336 
L 299.022837 288.902089 
L 300.007633 288.918949 
L 300.335899 288.575779 
L 300.664164 283.473726 
L 300.992429 287.370139 
L 301.320695 289.00129 
L 301.64896 288.983152 
L 301.977226 289.091048 
L 302.633757 289.112313 
L 302.962022 289.077125 
L 303.290288 289.15515 
L 303.618553 291.849408 
L 303.946819 289.168801 
L 304.275084 289.221414 
L 304.60335 289.103066 
L 304.931615 289.273934 
L 305.259881 289.175466 
L 306.244677 289.295953 
L 306.572942 289.358444 
L 307.229473 289.228146 
L 307.557739 289.344442 
L 308.21427 289.320575 
L 308.542535 289.426647 
L 308.870801 290.526875 
L 309.199066 289.312635 
L 309.527332 289.480458 
L 310.840393 289.499598 
L 311.168659 290.700417 
L 311.496924 289.434407 
L 311.82519 289.593997 
L 314.451314 289.629196 
L 314.779579 289.040668 
L 315.107844 289.088808 
L 315.43611 289.298353 
L 315.764375 288.832426 
L 316.092641 285.971309 
L 316.420906 288.073449 
L 316.749172 287.985937 
L 317.405703 289.35699 
L 317.733968 289.344707 
L 318.062234 285.949942 
L 318.390499 288.88528 
L 318.718765 289.097656 
L 319.04703 289.849751 
L 319.375296 289.537674 
L 319.703561 288.618213 
L 320.031826 288.103333 
L 320.360092 288.968511 
L 320.688357 288.599629 
L 321.344888 290.272415 
L 321.673154 287.11444 
L 322.001419 289.963079 
L 322.329685 288.873258 
L 322.65795 289.940243 
L 322.986216 289.989415 
L 323.314481 285.638507 
L 323.642747 290.166486 
L 323.971012 288.498251 
L 324.299278 290.173011 
L 324.627543 290.013959 
L 324.955808 290.170122 
L 325.284074 290.163712 
L 325.612339 289.040796 
L 325.940605 290.250044 
L 326.26887 290.091778 
L 326.597136 290.223971 
L 326.925401 290.110243 
L 327.581932 290.281379 
L 328.566729 290.273283 
L 330.208056 290.452495 
L 330.536321 290.302631 
L 330.864587 290.31236 
L 331.192852 290.071562 
L 331.521118 291.603088 
L 331.849383 290.460263 
L 332.177649 290.319922 
L 332.83418 290.598057 
L 333.818976 290.34381 
L 334.147241 285.186241 
L 334.803772 290.628136 
L 335.132038 290.524825 
L 335.460303 290.728063 
L 337.429896 290.680255 
L 337.758162 290.144545 
L 338.086427 290.579934 
L 338.414693 290.801359 
L 339.071223 290.762789 
L 339.399489 290.305758 
L 339.727754 288.561547 
L 340.05602 290.806456 
L 340.384285 290.875237 
L 340.712551 290.814203 
L 341.697347 290.915793 
L 342.025613 290.522531 
L 342.353878 290.94196 
L 342.682144 291.006376 
L 343.338675 290.977152 
L 343.66694 290.611295 
L 343.995205 291.033184 
L 344.651736 291.041978 
L 344.980002 291.068717 
L 345.308267 290.207436 
L 345.636533 291.016145 
L 345.964798 291.120348 
L 346.293064 289.030768 
L 346.621329 291.076954 
L 348.262656 291.077002 
L 349.903984 291.237473 
L 350.232249 290.46246 
L 350.88878 291.285755 
L 351.545311 291.26233 
L 351.873577 290.445592 
L 352.201842 291.195877 
L 352.530108 290.238254 
L 352.858373 291.252334 
L 353.186638 291.363351 
L 354.171435 291.052185 
L 354.4997 291.304348 
L 354.827966 291.31413 
L 355.156231 291.450151 
L 355.484497 291.41831 
L 355.812762 290.705125 
L 356.141028 291.26925 
L 356.469293 291.044844 
L 356.797559 291.032376 
L 357.125824 291.32676 
L 357.45409 291.07748 
L 358.11062 291.934007 
L 358.438886 291.437478 
L 358.767151 291.520313 
L 359.095417 290.288822 
L 359.423682 291.345712 
L 359.751948 291.000928 
L 360.080213 289.645246 
L 360.408479 289.70601 
L 360.736744 291.585347 
L 361.06501 291.592767 
L 361.393275 291.351973 
L 361.721541 291.661463 
L 362.049806 291.530772 
L 362.378072 291.694011 
L 362.706337 291.479039 
L 363.034602 290.993531 
L 363.362868 291.676433 
L 363.691133 289.305383 
L 364.019399 291.604517 
L 364.347664 291.742437 
L 365.004195 291.720089 
L 365.332461 291.786193 
L 365.660726 291.661566 
L 366.317257 291.776762 
L 366.973788 291.742947 
L 367.958584 291.777561 
L 368.28685 291.772296 
L 368.615115 292.563833 
L 368.943381 291.793477 
L 369.928177 291.866411 
L 370.256443 287.931273 
L 370.584708 291.845999 
L 371.569505 291.875136 
L 371.89777 291.853259 
L 372.226035 291.989968 
L 373.539097 291.923044 
L 373.867363 291.977684 
L 374.195628 288.205503 
L 374.523894 292.063201 
L 375.50869 291.938077 
L 375.836956 292.050633 
L 376.821752 292.050579 
L 377.478283 292.063915 
L 377.806548 292.143423 
L 378.134814 288.831473 
L 378.463079 292.182387 
L 378.791345 292.087768 
L 380.760938 292.204803 
L 381.745734 292.204536 
L 382.402265 292.22905 
L 383.058796 292.249948 
L 383.387061 292.268244 
L 383.715327 291.300282 
L 384.043592 292.233093 
L 384.700123 292.354713 
L 385.68492 292.355649 
L 386.013185 295.488 
L 386.341451 292.368052 
L 386.997981 292.408321 
L 387.326247 291.870032 
L 387.654512 292.273945 
L 387.982778 292.397483 
L 388.639309 292.398862 
L 389.29584 292.351033 
L 389.624105 292.286919 
L 389.952371 290.301196 
L 390.280636 290.13645 
L 390.608902 292.411812 
L 391.265432 292.581792 
L 391.921963 292.519064 
L 392.578494 292.623988 
L 392.90676 293.035145 
L 393.235025 292.591015 
L 393.563291 289.112885 
L 393.891556 292.62697 
L 394.876353 292.582465 
L 396.189414 292.66664 
L 397.174211 292.678509 
L 397.502476 291.153832 
L 397.830742 292.627578 
L 398.487273 292.676994 
L 398.487273 292.676994 
" style="fill:none;stroke:#1f77b4;stroke-linecap:square;stroke-width:1.5;"/>
   </g>
   <g id="patch_3">
    <path d="M 57.6 307.584 
L 57.6 41.472 
" style="fill:none;stroke:#000000;stroke-linecap:square;stroke-linejoin:miter;stroke-width:0.8;"/>
   </g>
   <g id="patch_4">
    <path d="M 414.72 307.584 
L 414.72 41.472 
" style="fill:none;stroke:#000000;stroke-linecap:square;stroke-linejoin:miter;stroke-width:0.8;"/>
   </g>
   <g id="patch_5">
    <path d="M 57.6 307.584 
L 414.72 307.584 
" style="fill:none;stroke:#000000;stroke-linecap:square;stroke-linejoin:miter;stroke-width:0.8;"/>
   </g>
   <g id="patch_6">
    <path d="M 57.6 41.472 
L 414.72 41.472 
" style="fill:none;stroke:#000000;stroke-linecap:square;stroke-linejoin:miter;stroke-width:0.8;"/>
   </g>
   <g id="text_21">
    <!-- RSI Speedup -->
    <defs>
     <path d="M 44.390625 34.1875 
Q 47.5625 33.109375 50.5625 29.59375 
Q 53.5625 26.078125 56.59375 19.921875 
L 66.609375 0 
L 56 0 
L 46.6875 18.703125 
Q 43.0625 26.03125 39.671875 28.421875 
Q 36.28125 30.8125 30.421875 30.8125 
L 19.671875 30.8125 
L 19.671875 0 
L 9.8125 0 
L 9.8125 72.90625 
L 32.078125 72.90625 
Q 44.578125 72.90625 50.734375 67.671875 
Q 56.890625 62.453125 56.890625 51.90625 
Q 56.890625 45.015625 53.6875 40.46875 
Q 50.484375 35.9375 44.390625 34.1875 
z
M 19.671875 64.796875 
L 19.671875 38.921875 
L 32.078125 38.921875 
Q 39.203125 38.921875 42.84375 42.21875 
Q 46.484375 45.515625 46.484375 51.90625 
Q 46.484375 58.296875 42.84375 61.546875 
Q 39.203125 64.796875 32.078125 64.796875 
z
" id="DejaVuSans-82"/>
     <path d="M 53.515625 70.515625 
L 53.515625 60.890625 
Q 47.90625 63.578125 42.921875 64.890625 
Q 37.9375 66.21875 33.296875 66.21875 
Q 25.25 66.21875 20.875 63.09375 
Q 16.5 59.96875 16.5 54.203125 
Q 16.5 49.359375 19.40625 46.890625 
Q 22.3125 44.4375 30.421875 42.921875 
L 36.375 41.703125 
Q 47.40625 39.59375 52.65625 34.296875 
Q 57.90625 29 57.90625 20.125 
Q 57.90625 9.515625 50.796875 4.046875 
Q 43.703125 -1.421875 29.984375 -1.421875 
Q 24.8125 -1.421875 18.96875 -0.25 
Q 13.140625 0.921875 6.890625 3.21875 
L 6.890625 13.375 
Q 12.890625 10.015625 18.65625 8.296875 
Q 24.421875 6.59375 29.984375 6.59375 
Q 38.421875 6.59375 43.015625 9.90625 
Q 47.609375 13.234375 47.609375 19.390625 
Q 47.609375 24.75 44.3125 27.78125 
Q 41.015625 30.8125 33.5 32.328125 
L 27.484375 33.5 
Q 16.453125 35.6875 11.515625 40.375 
Q 6.59375 45.0625 6.59375 53.421875 
Q 6.59375 63.09375 13.40625 68.65625 
Q 20.21875 74.21875 32.171875 74.21875 
Q 37.3125 74.21875 42.625 73.28125 
Q 47.953125 72.359375 53.515625 70.515625 
z
" id="DejaVuSans-83"/>
     <path d="M 9.8125 72.90625 
L 19.671875 72.90625 
L 19.671875 0 
L 9.8125 0 
z
" id="DejaVuSans-73"/>
     <path id="DejaVuSans-32"/>
    </defs>
    <g transform="translate(198.0825 35.472)scale(0.12 -0.12)">
     <use xlink:href="#DejaVuSans-82"/>
     <use x="69.482422" xlink:href="#DejaVuSans-83"/>
     <use x="132.958984" xlink:href="#DejaVuSans-73"/>
     <use x="162.451172" xlink:href="#DejaVuSans-32"/>
     <use x="194.238281" xlink:href="#DejaVuSans-83"/>
     <use x="257.714844" xlink:href="#DejaVuSans-112"/>
     <use x="321.191406" xlink:href="#DejaVuSans-101"/>
     <use x="382.714844" xlink:href="#DejaVuSans-101"/>
     <use x="444.238281" xlink:href="#DejaVuSans-100"/>
     <use x="507.714844" xlink:href="#DejaVuSans-117"/>
     <use x="571.09375" xlink:href="#DejaVuSans-112"/>
    </g>
   </g>
  </g>
 </g>
 <defs>
  <clipPath id="pae5431910c">
   <rect height="266.112" width="357.12" x="57.6" y="41.472"/>
  </clipPath>
 </defs>
</svg>
